ISO-10303-21;
HEADER;
FILE_DESCRIPTION (( 'STEP AP203' ),
    '1' );
FILE_NAME ('11552552384.step.STEP',
    '2026-06-22T08:49:57',
    ( 'localuser' ),
    ( '' ),
    'SwSTEP 2.0',
    'SolidWorks 2025',
    '' );
FILE_SCHEMA (( 'CONFIG_CONTROL_DESIGN' ));
ENDSEC;

DATA;
#1 = CALENDAR_DATE ( 2026, 22, 6 ) ;
#2 = PRODUCT_DEFINITION ( 'General', '', #23, #82 ) ;
#3 = DATE_TIME_ROLE ( 'classification_date' ) ;
#4 = CC_DESIGN_PERSON_AND_ORGANIZATION_ASSIGNMENT ( #127, #174, ( #12 ) ) ;
#5 = ROLE_ASSOCIATION ( #213, #107 ) ;
#6 = CARTESIAN_POINT ( 'NONE',  ( 0.000000000000000000, 0.000000000000000000, 0.000000000000000000 ) ) ;
#7 = APPLICATION_CONTEXT ( 'configuration controlled 3d designs of mechanical parts and assemblies' ) ;
#8 = DIRECTION ( 'NONE',  ( 1.000000000000000000, 0.000000000000000000, 0.000000000000000000 ) ) ;
#9 =( LENGTH_UNIT ( ) NAMED_UNIT ( * ) SI_UNIT ( .MILLI., .METRE. ) );
#10 = APPROVAL ( #67, 'UNKNOWN' ) ;
#11 = COORDINATED_UNIVERSAL_TIME_OFFSET ( 10, 0, .AHEAD. ) ;
#12 = PRODUCT_DEFINITION_FORMATION_WITH_SPECIFIED_SOURCE ( 'Symmetric', '', #132, .NOT_KNOWN. ) ;
#13 = APPROVAL_DATE_TIME ( #136, #141 ) ;
#14 = CALENDAR_DATE ( 2026, 22, 6 ) ;
#15 = CC_DESIGN_PERSON_AND_ORGANIZATION_ASSIGNMENT ( #192, #114, ( #138 ) ) ;
#16 = SHAPE_DEFINITION_REPRESENTATION ( #109, #164 ) ;
#17 = CC_DESIGN_APPROVAL ( #186, ( #23 ) ) ;
#18 = SECURITY_CLASSIFICATION_LEVEL ( 'unclassified' ) ;
#19 = LOCAL_TIME ( 18, 49, 57.00000000000000000, #52 ) ;
#20 = APPROVAL ( #185, 'Coincident' ) ;
#21 = APPROVAL_DATE_TIME ( #200, #20 ) ;
#22 = CALENDAR_DATE ( 2026, 22, 6 ) ;
#23 = PRODUCT_DEFINITION_FORMATION_WITH_SPECIFIED_SOURCE ( 'Symmetric', '', #146, .NOT_KNOWN. ) ;
#24 = APPROVAL_ROLE ( '' ) ;
#25 = CC_DESIGN_PERSON_AND_ORGANIZATION_ASSIGNMENT ( #74, #48, ( #2 ) ) ;
#26 = PROPERTY_DEFINITION ('document property','', #147 ) ;
#27 = DIRECTION ( 'NONE',  ( 0.000000000000000000, 0.000000000000000000, 1.000000000000000000 ) ) ;
#28 = PERSON_AND_ORGANIZATION ( #18446744073709551615, #18446744073709551615 ) ;
#29 = MECHANICAL_CONTEXT ( 'NONE', #7, 'mechanical' ) ;
#30 = SECURITY_CLASSIFICATION ( '', '', #104 ) ;
#31 = PERSON_AND_ORGANIZATION_ROLE ( 'classification_officer' ) ;
#32 = APPLICATION_PROTOCOL_DEFINITION ( 'international standard', 'config_control_design', 1994, #199 ) ;
#33 = CC_DESIGN_APPROVAL ( #206, ( #128 ) ) ;
#34 = SHAPE_REPRESENTATION ( 'Extruded-13.step', ( #64 ), #47 ) ;
#35 = PERSON_AND_ORGANIZATION ( #18446744073709551615, #18446744073709551615 ) ;
#36 = LOCAL_TIME ( 18, 49, 57.00000000000000000, #172 ) ;
#37 = PERSON_AND_ORGANIZATION ( #18446744073709551615, #18446744073709551615 ) ;
#38 = CONTEXT_DEPENDENT_SHAPE_REPRESENTATION ( #51, #58 ) ;
#39 =( NAMED_UNIT ( * ) SI_UNIT ( $, .STERADIAN. ) SOLID_ANGLE_UNIT ( ) );
#40 = APPLICATION_CONTEXT ( 'configuration controlled 3d designs of mechanical parts and assemblies' ) ;
#41 = CC_DESIGN_PERSON_AND_ORGANIZATION_ASSIGNMENT ( #187, #106, ( #146 ) ) ;
#42 = LOCAL_TIME ( 18, 49, 57.00000000000000000, #195 ) ;
#43 = APPROVAL_ROLE ( '' ) ;
#44 = CALENDAR_DATE ( 2026, 22, 6 ) ;
#45 = COORDINATED_UNIVERSAL_TIME_OFFSET ( 10, 0, .AHEAD. ) ;
#46 = CC_DESIGN_PERSON_AND_ORGANIZATION_ASSIGNMENT ( #115, #63, ( #132 ) ) ;
#47 =( GEOMETRIC_REPRESENTATION_CONTEXT ( 3 ) GLOBAL_UNCERTAINTY_ASSIGNED_CONTEXT ( ( #93 ) ) GLOBAL_UNIT_ASSIGNED_CONTEXT ( ( #9, #56, #110 ) ) REPRESENTATION_CONTEXT ( 'NONE', 'WORKASPACE' ) );
#48 = PERSON_AND_ORGANIZATION_ROLE ( 'creator' ) ;
#49 = LOCAL_TIME ( 18, 49, 57.00000000000000000, #117 ) ;
#50 = APPLICATION_PROTOCOL_DEFINITION ( 'international standard', 'config_control_design', 1994, #40 ) ;
#51 =( REPRESENTATION_RELATIONSHIP ('NONE','NONE', #164, #34 ) REPRESENTATION_RELATIONSHIP_WITH_TRANSFORMATION ( #189 )SHAPE_REPRESENTATION_RELATIONSHIP( ) );
#52 = COORDINATED_UNIVERSAL_TIME_OFFSET ( 10, 0, .AHEAD. ) ;
#53 = CALENDAR_DATE ( 2026, 22, 6 ) ;
#54 = PERSON_AND_ORGANIZATION ( #112, #155 ) ;
#55 = PERSON_AND_ORGANIZATION ( #18446744073709551615, #18446744073709551615 ) ;
#56 =( NAMED_UNIT ( * ) PLANE_ANGLE_UNIT ( ) SI_UNIT ( $, .RADIAN. ) );
#57 = CC_DESIGN_DATE_AND_TIME_ASSIGNMENT ( #144, #160, ( #30 ) ) ;
#58 = PRODUCT_DEFINITION_SHAPE ( 'NONE', 'NONE',  #215 ) ;
#59 = LOCAL_TIME ( 18, 49, 57.00000000000000000, #208 ) ;
#60 = CALENDAR_DATE ( 2026, 22, 6 ) ;
#61 = COORDINATED_UNIVERSAL_TIME_OFFSET ( 10, 0, .AHEAD. ) ;
#62 = DATE_TIME_ROLE ( 'creation_date' ) ;
#63 = PERSON_AND_ORGANIZATION_ROLE ( 'design_owner' ) ;
#64 = AXIS2_PLACEMENT_3D ( 'NONE', #6, #27, #94 ) ;
#65 = APPROVAL_DATE_TIME ( #97, #91 ) ;
#66 = LOCAL_TIME ( 18, 49, 57.00000000000000000, #108 ) ;
#67 = APPROVAL_STATUS ( 'not_yet_approved' ) ;
#68 = APPROVAL_PERSON_ORGANIZATION ( #181, #206, #135 ) ;
#69 = CALENDAR_DATE ( 2026, 22, 6 ) ;
#70 = DIRECTION ( 'NONE',  ( 4.890937612370273194E-29, -3.155443620884047222E-30, 0.9999999999999997780 ) ) ;
#71 = APPLICATION_CONTEXT ( 'configuration controlled 3d designs of mechanical parts and assemblies' ) ;
#72 = APPROVAL_ROLE ( '' ) ;
#73 = CALENDAR_DATE ( 2026, 22, 6 ) ;
#74 = PERSON_AND_ORGANIZATION ( #18446744073709551615, #18446744073709551615 ) ;
#75 = UNCERTAINTY_MEASURE_WITH_UNIT (LENGTH_MEASURE( 1.000000000000000082E-05 ), #88, 'distance_accuracy_value', 'NONE');
#76 = APPROVAL_ROLE ( '' ) ;
#77 = CC_DESIGN_DATE_AND_TIME_ASSIGNMENT ( #157, #3, ( #205 ) ) ;
#78 = APPROVAL_STATUS ( 'not_yet_approved' ) ;
#79 = APPROVAL_PERSON_ORGANIZATION ( #180, #141, #72 ) ;
#80 = AXIS2_PLACEMENT_3D ( 'NONE', #133, #92, #8 ) ;
#81 = APPROVAL_ROLE ( '' ) ;
#82 = DESIGN_CONTEXT ( 'detailed design', #199, 'design' ) ;
#83 = COORDINATED_UNIVERSAL_TIME_OFFSET ( 10, 0, .AHEAD. ) ;
#84 = DOCUMENT_TYPE ( 'geometry' ) ;
#85 = CC_DESIGN_PERSON_AND_ORGANIZATION_ASSIGNMENT ( #37, #142, ( #12 ) ) ;
#86 = DATE_AND_TIME ( #22, #19 ) ;
#87 = CC_DESIGN_APPROVAL ( #123, ( #12 ) ) ;
#88 =( LENGTH_UNIT ( ) NAMED_UNIT ( * ) SI_UNIT ( .MILLI., .METRE. ) );
#89 = COORDINATED_UNIVERSAL_TIME_OFFSET ( 10, 0, .AHEAD. ) ;
#90 = PROPERTY_DEFINITION ('external definition','', #147 ) ;
#91 = APPROVAL ( #169, 'Coincident' ) ;
#92 = DIRECTION ( 'NONE',  ( 0.000000000000000000, 0.000000000000000000, 1.000000000000000000 ) ) ;
#93 = UNCERTAINTY_MEASURE_WITH_UNIT (LENGTH_MEASURE( 1.000000000000000082E-05 ), #9, 'distance_accuracy_value', 'NONE');
#94 = DIRECTION ( 'NONE',  ( 1.000000000000000000, 0.000000000000000000, 0.000000000000000000 ) ) ;
#95 = APPROVAL_ROLE ( '' ) ;
#96 = CC_DESIGN_SECURITY_CLASSIFICATION ( #128, ( #23 ) ) ;
#97 = DATE_AND_TIME ( #99, #59 ) ;
#98 = LOCAL_TIME ( 18, 49, 57.00000000000000000, #89 ) ;
#99 = CALENDAR_DATE ( 2026, 22, 6 ) ;
#100 = CC_DESIGN_PERSON_AND_ORGANIZATION_ASSIGNMENT ( #55, #125, ( #30 ) ) ;
#101 = DATE_AND_TIME ( #211, #49 ) ;
#102 = IDENTIFICATION_ROLE ( 'external document id and location', $) ;
#103 = PERSON_AND_ORGANIZATION ( #18446744073709551615, #18446744073709551615 ) ;
#104 = SECURITY_CLASSIFICATION_LEVEL ( 'unclassified' ) ;
#105 = SHAPE_DEFINITION_REPRESENTATION ( #190, #34 ) ;
#106 = PERSON_AND_ORGANIZATION_ROLE ( 'design_owner' ) ;
#107 = APPLIED_DOCUMENT_REFERENCE ( #147,'',( #138) ) ;
#108 = COORDINATED_UNIVERSAL_TIME_OFFSET ( 10, 0, .AHEAD. ) ;
#109 = PRODUCT_DEFINITION_SHAPE ( 'NONE', 'NONE',  #2 ) ;
#110 =( NAMED_UNIT ( * ) SI_UNIT ( $, .STERADIAN. ) SOLID_ANGLE_UNIT ( ) );
#111 = LOCAL_TIME ( 18, 49, 57.00000000000000000, #61 ) ;
#112 = PERSON ( 'NAUO-PER186', 'UNSPECIFIED', 'UNSPECIFIED', ('UNSPECIFIED'), ('UNSPECIFIED'), ('UNSPECIFIED') ) ;
#113 = DIRECTION ( 'NONE',  ( 1.000000000000000222, -1.092455418989176591E-28, 4.890937612370273194E-29 ) ) ;
#114 = PERSON_AND_ORGANIZATION_ROLE ( 'creator' ) ;
#115 = PERSON_AND_ORGANIZATION ( #18446744073709551615, #18446744073709551615 ) ;
#116 = CC_DESIGN_APPROVAL ( #91, ( #138 ) ) ;
#117 = COORDINATED_UNIVERSAL_TIME_OFFSET ( 10, 0, .AHEAD. ) ;
#118 = CC_DESIGN_APPROVAL ( #10, ( #205 ) ) ;
#119 = DATE_AND_TIME ( #73, #122 ) ;
#120 = SECURITY_CLASSIFICATION_LEVEL ( 'unclassified' ) ;
#121 = APPROVAL_DATE_TIME ( #163, #123 ) ;
#122 = LOCAL_TIME ( 18, 49, 57.00000000000000000, #11 ) ;
#123 = APPROVAL ( #182, 'Coincident' ) ;
#124 = CC_DESIGN_SECURITY_CLASSIFICATION ( #205, ( #215 ) ) ;
#125 = PERSON_AND_ORGANIZATION_ROLE ( 'classification_officer' ) ;
#126 = MECHANICAL_CONTEXT ( 'NONE', #71, 'mechanical' ) ;
#127 = PERSON_AND_ORGANIZATION ( #18446744073709551615, #18446744073709551615 ) ;
#128 = SECURITY_CLASSIFICATION ( '', '', #120 ) ;
#129 = CALENDAR_DATE ( 2026, 22, 6 ) ;
#130 = CC_DESIGN_SECURITY_CLASSIFICATION ( #30, ( #12 ) ) ;
#131 = PRODUCT_RELATED_PRODUCT_CATEGORY ( 'detail', '', ( #146 ) ) ;
#132 = PRODUCT ( 'Extruded-13.step', 'Extruded-13.step', '', ( #29 ) ) ;
#133 = CARTESIAN_POINT ( 'NONE',  ( 0.000000000000000000, 0.000000000000000000, 0.000000000000000000 ) ) ;
#134 = APPROVAL_STATUS ( 'not_yet_approved' ) ;
#135 = APPROVAL_ROLE ( '' ) ;
#136 = DATE_AND_TIME ( #14, #150 ) ;
#137 = PERSON_AND_ORGANIZATION_ROLE ( 'design_supplier' ) ;
#138 = PRODUCT_DEFINITION ( 'General', '', #12, #167 ) ;
#139 = APPROVAL_PERSON_ORGANIZATION ( #197, #123, #95 ) ;
#140 = DATE_AND_TIME ( #44, #196 ) ;
#141 = APPROVAL ( #191, 'Coincident' ) ;
#142 = PERSON_AND_ORGANIZATION_ROLE ( 'design_supplier' ) ;
#143 =( GEOMETRIC_REPRESENTATION_CONTEXT ( 3 ) GLOBAL_UNCERTAINTY_ASSIGNED_CONTEXT ( ( #75 ) ) GLOBAL_UNIT_ASSIGNED_CONTEXT ( ( #88, #145, #39 ) ) REPRESENTATION_CONTEXT ( 'NONE', 'WORKASPACE' ) );
#144 = DATE_AND_TIME ( #69, #66 ) ;
#145 =( NAMED_UNIT ( * ) PLANE_ANGLE_UNIT ( ) SI_UNIT ( $, .RADIAN. ) );
#146 = PRODUCT ( '11552552384.step', '11552552384.step', '', ( #126 ) ) ;
#147 = DOCUMENT_FILE ( 'Extruded-13.step.STEP' , '', '', #84, '' ,$ ) ;
#148 = CC_DESIGN_PERSON_AND_ORGANIZATION_ASSIGNMENT ( #54, #156, ( #205 ) ) ;
#149 = DATE_TIME_ROLE ( 'classification_date' ) ;
#150 = LOCAL_TIME ( 18, 49, 57.00000000000000000, #45 ) ;
#151 = DATE_AND_TIME ( #177, #111 ) ;
#152 = DATE_AND_TIME ( #1, #42 ) ;
#153 = APPROVAL_DATE_TIME ( #101, #206 ) ;
#154 = APPLICATION_PROTOCOL_DEFINITION ( 'international standard', 'config_control_design', 1994, #7 ) ;
#155 = ORGANIZATION ( 'NAUO-ORG186', 'UNSPECIFIED', 'UNSPECIFIED' ) ;
#156 = PERSON_AND_ORGANIZATION_ROLE ( 'classification_officer' ) ;
#157 = DATE_AND_TIME ( #129, #98 ) ;
#158 = APPROVAL_PERSON_ORGANIZATION ( #103, #91, #43 ) ;
#159 = PROPERTY_DEFINITION_REPRESENTATION ( #90, #34 ) ;
#160 = DATE_TIME_ROLE ( 'classification_date' ) ;
#161 = CARTESIAN_POINT ( 'NONE',  ( 0.000000000000000000, 0.000000000000000000, 0.000000000000000000 ) ) ;
#162 = PRODUCT_RELATED_PRODUCT_CATEGORY ( 'detail', '', ( #132 ) ) ;
#163 = DATE_AND_TIME ( #60, #36 ) ;
#164 = SHAPE_REPRESENTATION ( '11552552384.step', ( #80, #179 ), #143 ) ;
#165 = DATE_TIME_ROLE ( 'creation_date' ) ;
#166 = CC_DESIGN_PERSON_AND_ORGANIZATION_ASSIGNMENT ( #35, #31, ( #128 ) ) ;
#167 = DESIGN_CONTEXT ( 'detailed design', #40, 'design' ) ;
#168 = PERSON_AND_ORGANIZATION_ROLE ( 'creator' ) ;
#169 = APPROVAL_STATUS ( 'not_yet_approved' ) ;
#170 = APPLIED_EXTERNAL_IDENTIFICATION_ASSIGNMENT ( 'Extruded-13.step.STEP' , #102, #176,( #147) ) ;
#171 = CC_DESIGN_DATE_AND_TIME_ASSIGNMENT ( #152, #149, ( #128 ) ) ;
#172 = COORDINATED_UNIVERSAL_TIME_OFFSET ( 10, 0, .AHEAD. ) ;
#173 = LOCAL_TIME ( 18, 49, 57.00000000000000000, #83 ) ;
#174 = PERSON_AND_ORGANIZATION_ROLE ( 'creator' ) ;
#175 = CC_DESIGN_DATE_AND_TIME_ASSIGNMENT ( #140, #165, ( #138 ) ) ;
#176 = EXTERNAL_SOURCE (IDENTIFIER('') ) ;
#177 = CALENDAR_DATE ( 2026, 22, 6 ) ;
#178 = PERSON_AND_ORGANIZATION ( #18446744073709551615, #18446744073709551615 ) ;
#179 = AXIS2_PLACEMENT_3D ( 'NONE', #161, #70, #113 ) ;
#180 = PERSON_AND_ORGANIZATION ( #18446744073709551615, #18446744073709551615 ) ;
#181 = PERSON_AND_ORGANIZATION ( #18446744073709551615, #18446744073709551615 ) ;
#182 = APPROVAL_STATUS ( 'not_yet_approved' ) ;
#183 = CC_DESIGN_PERSON_AND_ORGANIZATION_ASSIGNMENT ( #210, #168, ( #23 ) ) ;
#184 = PROPERTY_DEFINITION_REPRESENTATION ( #26, #34 ) ;
#185 = APPROVAL_STATUS ( 'not_yet_approved' ) ;
#186 = APPROVAL ( #134, 'Coincident' ) ;
#187 = PERSON_AND_ORGANIZATION ( #18446744073709551615, #18446744073709551615 ) ;
#188 = PERSON_AND_ORGANIZATION ( #18446744073709551615, #18446744073709551615 ) ;
#189 = ITEM_DEFINED_TRANSFORMATION ( 'NONE', 'NONE', #179,  #64 ) ;
#190 = PRODUCT_DEFINITION_SHAPE ( 'NONE', 'NONE',  #138 ) ;
#191 = APPROVAL_STATUS ( 'not_yet_approved' ) ;
#192 = PERSON_AND_ORGANIZATION ( #18446744073709551615, #18446744073709551615 ) ;
#193 = COORDINATED_UNIVERSAL_TIME_OFFSET ( 10, 0, .AHEAD. ) ;
#194 = CC_DESIGN_APPROVAL ( #20, ( #30 ) ) ;
#195 = COORDINATED_UNIVERSAL_TIME_OFFSET ( 10, 0, .AHEAD. ) ;
#196 = LOCAL_TIME ( 18, 49, 57.00000000000000000, #193 ) ;
#197 = PERSON_AND_ORGANIZATION ( #18446744073709551615, #18446744073709551615 ) ;
#198 = CC_DESIGN_DATE_AND_TIME_ASSIGNMENT ( #119, #62, ( #2 ) ) ;
#199 = APPLICATION_CONTEXT ( 'configuration controlled 3d designs of mechanical parts and assemblies' ) ;
#200 = DATE_AND_TIME ( #53, #173 ) ;
#201 = APPROVAL_PERSON_ORGANIZATION ( #28, #186, #76 ) ;
#202 = APPROVAL_PERSON_ORGANIZATION ( #54, #10, #81 ) ;
#203 = APPROVAL_DATE_TIME ( #86, #10 ) ;
#204 = CC_DESIGN_APPROVAL ( #141, ( #2 ) ) ;
#205 = SECURITY_CLASSIFICATION ( '', '', #18 ) ;
#206 = APPROVAL ( #78, 'Coincident' ) ;
#207 = APPLICATION_PROTOCOL_DEFINITION ( 'international standard', 'config_control_design', 1994, #71 ) ;
#208 = COORDINATED_UNIVERSAL_TIME_OFFSET ( 10, 0, .AHEAD. ) ;
#209 = CC_DESIGN_PERSON_AND_ORGANIZATION_ASSIGNMENT ( #178, #137, ( #23 ) ) ;
#210 = PERSON_AND_ORGANIZATION ( #18446744073709551615, #18446744073709551615 ) ;
#211 = CALENDAR_DATE ( 2026, 22, 6 ) ;
#212 = APPROVAL_DATE_TIME ( #151, #186 ) ;
#213 = OBJECT_ROLE ('mandatory',$ ) ;
#214 = APPROVAL_PERSON_ORGANIZATION ( #188, #20, #24 ) ;
#215 = NEXT_ASSEMBLY_USAGE_OCCURRENCE ( 'NAUO186', ' ', ' ', #2, #138, $ ) ;
ENDSEC;
END-ISO-10303-21;
