ISO-10303-21;
HEADER;
FILE_DESCRIPTION (( 'STEP AP203' ),
    '1' );
FILE_NAME ('11557214112.step.STEP',
    '2026-06-22T08:49:55',
    ( 'localuser' ),
    ( '' ),
    'SwSTEP 2.0',
    'SolidWorks 2025',
    '' );
FILE_SCHEMA (( 'CONFIG_CONTROL_DESIGN' ));
ENDSEC;

DATA;
#1 = PERSON_AND_ORGANIZATION_ROLE ( 'creator' ) ;
#2 = COORDINATED_UNIVERSAL_TIME_OFFSET ( 10, 0, .AHEAD. ) ;
#3 = CC_DESIGN_PERSON_AND_ORGANIZATION_ASSIGNMENT ( #99, #169, ( #133 ) ) ;
#4 = APPROVAL_ROLE ( '' ) ;
#5 = SHAPE_DEFINITION_REPRESENTATION ( #196, #106 ) ;
#6 = DATE_AND_TIME ( #194, #53 ) ;
#7 = PRODUCT_RELATED_PRODUCT_CATEGORY ( 'detail', '', ( #146 ) ) ;
#8 = CC_DESIGN_SECURITY_CLASSIFICATION ( #47, ( #17 ) ) ;
#9 = PERSON_AND_ORGANIZATION ( #18446744073709551615, #18446744073709551615 ) ;
#10 = APPLIED_EXTERNAL_IDENTIFICATION_ASSIGNMENT ( 'Extruded-8.step.STEP' , #170, #161,( #20) ) ;
#11 = DATE_AND_TIME ( #45, #91 ) ;
#12 = COORDINATED_UNIVERSAL_TIME_OFFSET ( 10, 0, .AHEAD. ) ;
#13 = OBJECT_ROLE ('mandatory',$ ) ;
#14 = APPROVAL ( #74, 'UNKNOWN' ) ;
#15 = DATE_AND_TIME ( #85, #142 ) ;
#16 = COORDINATED_UNIVERSAL_TIME_OFFSET ( 10, 0, .AHEAD. ) ;
#17 = PRODUCT_DEFINITION_FORMATION_WITH_SPECIFIED_SOURCE ( 'Symmetric', '', #146, .NOT_KNOWN. ) ;
#18 = CC_DESIGN_SECURITY_CLASSIFICATION ( #176, ( #58 ) ) ;
#19 = DIRECTION ( 'NONE',  ( 1.000000000000000000, 0.000000000000000000, 0.000000000000000000 ) ) ;
#20 = DOCUMENT_FILE ( 'Extruded-8.step.STEP' , '', '', #103, '' ,$ ) ;
#21 = PERSON_AND_ORGANIZATION_ROLE ( 'classification_officer' ) ;
#22 = LOCAL_TIME ( 18, 49, 55.00000000000000000, #88 ) ;
#23 = APPROVAL_DATE_TIME ( #11, #187 ) ;
#24 = CONTEXT_DEPENDENT_SHAPE_REPRESENTATION ( #38, #93 ) ;
#25 = APPROVAL_STATUS ( 'not_yet_approved' ) ;
#26 = APPROVAL_PERSON_ORGANIZATION ( #184, #167, #4 ) ;
#27 = SECURITY_CLASSIFICATION_LEVEL ( 'unclassified' ) ;
#28 = CC_DESIGN_DATE_AND_TIME_ASSIGNMENT ( #39, #104, ( #181 ) ) ;
#29 = DATE_AND_TIME ( #89, #166 ) ;
#30 = PROPERTY_DEFINITION ('document property','', #20 ) ;
#31 = APPROVAL ( #135, 'Coincident' ) ;
#32 = CC_DESIGN_APPROVAL ( #14, ( #110 ) ) ;
#33 = MECHANICAL_CONTEXT ( 'NONE', #197, 'mechanical' ) ;
#34 = PERSON_AND_ORGANIZATION ( #18446744073709551615, #18446744073709551615 ) ;
#35 = PERSON_AND_ORGANIZATION_ROLE ( 'design_owner' ) ;
#36 = APPROVAL_PERSON_ORGANIZATION ( #57, #48, #189 ) ;
#37 = APPROVAL_ROLE ( '' ) ;
#38 =( REPRESENTATION_RELATIONSHIP ('NONE','NONE', #106, #152 ) REPRESENTATION_RELATIONSHIP_WITH_TRANSFORMATION ( #72 )SHAPE_REPRESENTATION_RELATIONSHIP( ) );
#39 = DATE_AND_TIME ( #140, #113 ) ;
#40 = COORDINATED_UNIVERSAL_TIME_OFFSET ( 10, 0, .AHEAD. ) ;
#41 = CC_DESIGN_PERSON_AND_ORGANIZATION_ASSIGNMENT ( #179, #90, ( #110 ) ) ;
#42 = CC_DESIGN_APPROVAL ( #174, ( #58 ) ) ;
#43 = CC_DESIGN_DATE_AND_TIME_ASSIGNMENT ( #6, #59, ( #176 ) ) ;
#44 = PERSON_AND_ORGANIZATION_ROLE ( 'creator' ) ;
#45 = CALENDAR_DATE ( 2026, 22, 6 ) ;
#46 = CC_DESIGN_PERSON_AND_ORGANIZATION_ASSIGNMENT ( #121, #168, ( #181 ) ) ;
#47 = SECURITY_CLASSIFICATION ( '', '', #67 ) ;
#48 = APPROVAL ( #125, 'Coincident' ) ;
#49 = APPLICATION_PROTOCOL_DEFINITION ( 'international standard', 'config_control_design', 1994, #197 ) ;
#50 = CALENDAR_DATE ( 2026, 22, 6 ) ;
#51 = CALENDAR_DATE ( 2026, 22, 6 ) ;
#52 = LOCAL_TIME ( 18, 49, 55.00000000000000000, #16 ) ;
#53 = LOCAL_TIME ( 18, 49, 55.00000000000000000, #92 ) ;
#54 = DATE_TIME_ROLE ( 'classification_date' ) ;
#55 = UNCERTAINTY_MEASURE_WITH_UNIT (LENGTH_MEASURE( 1.000000000000000082E-05 ), #199, 'distance_accuracy_value', 'NONE');
#56 = CC_DESIGN_PERSON_AND_ORGANIZATION_ASSIGNMENT ( #9, #145, ( #58 ) ) ;
#57 = PERSON_AND_ORGANIZATION ( #18446744073709551615, #18446744073709551615 ) ;
#58 = PRODUCT_DEFINITION_FORMATION_WITH_SPECIFIED_SOURCE ( 'Symmetric', '', #112, .NOT_KNOWN. ) ;
#59 = DATE_TIME_ROLE ( 'classification_date' ) ;
#60 = APPROVAL_DATE_TIME ( #29, #14 ) ;
#61 = PERSON_AND_ORGANIZATION_ROLE ( 'classification_officer' ) ;
#62 = PROPERTY_DEFINITION ('external definition','', #20 ) ;
#63 = CC_DESIGN_APPROVAL ( #48, ( #133 ) ) ;
#64 = MECHANICAL_CONTEXT ( 'NONE', #68, 'mechanical' ) ;
#65 = PERSON_AND_ORGANIZATION ( #18446744073709551615, #18446744073709551615 ) ;
#66 = CALENDAR_DATE ( 2026, 22, 6 ) ;
#67 = SECURITY_CLASSIFICATION_LEVEL ( 'unclassified' ) ;
#68 = APPLICATION_CONTEXT ( 'configuration controlled 3d designs of mechanical parts and assemblies' ) ;
#69 = APPLICATION_PROTOCOL_DEFINITION ( 'international standard', 'config_control_design', 1994, #68 ) ;
#70 = SECURITY_CLASSIFICATION_LEVEL ( 'unclassified' ) ;
#71 = APPROVAL_PERSON_ORGANIZATION ( #65, #31, #80 ) ;
#72 = ITEM_DEFINED_TRANSFORMATION ( 'NONE', 'NONE', #206,  #129 ) ;
#73 = CC_DESIGN_PERSON_AND_ORGANIZATION_ASSIGNMENT ( #111, #44, ( #58 ) ) ;
#74 = APPROVAL_STATUS ( 'not_yet_approved' ) ;
#75 = CC_DESIGN_SECURITY_CLASSIFICATION ( #110, ( #215 ) ) ;
#76 =( NAMED_UNIT ( * ) SI_UNIT ( $, .STERADIAN. ) SOLID_ANGLE_UNIT ( ) );
#77 =( NAMED_UNIT ( * ) PLANE_ANGLE_UNIT ( ) SI_UNIT ( $, .RADIAN. ) );
#78 = CC_DESIGN_DATE_AND_TIME_ASSIGNMENT ( #100, #171, ( #133 ) ) ;
#79 = APPLICATION_CONTEXT ( 'configuration controlled 3d designs of mechanical parts and assemblies' ) ;
#80 = APPROVAL_ROLE ( '' ) ;
#81 = APPROVAL_STATUS ( 'not_yet_approved' ) ;
#82 =( GEOMETRIC_REPRESENTATION_CONTEXT ( 3 ) GLOBAL_UNCERTAINTY_ASSIGNED_CONTEXT ( ( #139 ) ) GLOBAL_UNIT_ASSIGNED_CONTEXT ( ( #213, #77, #115 ) ) REPRESENTATION_CONTEXT ( 'NONE', 'WORKASPACE' ) );
#83 = ORGANIZATION ( 'NAUO-ORG98', 'UNSPECIFIED', 'UNSPECIFIED' ) ;
#84 = APPROVAL_DATE_TIME ( #15, #119 ) ;
#85 = CALENDAR_DATE ( 2026, 22, 6 ) ;
#86 = CC_DESIGN_PERSON_AND_ORGANIZATION_ASSIGNMENT ( #34, #1, ( #17 ) ) ;
#87 = APPROVAL_DATE_TIME ( #154, #167 ) ;
#88 = COORDINATED_UNIVERSAL_TIME_OFFSET ( 10, 0, .AHEAD. ) ;
#89 = CALENDAR_DATE ( 2026, 22, 6 ) ;
#90 = PERSON_AND_ORGANIZATION_ROLE ( 'classification_officer' ) ;
#91 = LOCAL_TIME ( 18, 49, 55.00000000000000000, #12 ) ;
#92 = COORDINATED_UNIVERSAL_TIME_OFFSET ( 10, 0, .AHEAD. ) ;
#93 = PRODUCT_DEFINITION_SHAPE ( 'NONE', 'NONE',  #215 ) ;
#94 = COORDINATED_UNIVERSAL_TIME_OFFSET ( 10, 0, .AHEAD. ) ;
#95 = APPROVAL_PERSON_ORGANIZATION ( #175, #174, #143 ) ;
#96 = DESIGN_CONTEXT ( 'detailed design', #149, 'design' ) ;
#97 = CC_DESIGN_APPROVAL ( #119, ( #17 ) ) ;
#98 = CC_DESIGN_DATE_AND_TIME_ASSIGNMENT ( #128, #108, ( #110 ) ) ;
#99 = PERSON_AND_ORGANIZATION ( #18446744073709551615, #18446744073709551615 ) ;
#100 = DATE_AND_TIME ( #51, #52 ) ;
#101 = CC_DESIGN_PERSON_AND_ORGANIZATION_ASSIGNMENT ( #188, #156, ( #17 ) ) ;
#102 = DIRECTION ( 'NONE',  ( 0.000000000000000000, 0.000000000000000000, 1.000000000000000000 ) ) ;
#103 = DOCUMENT_TYPE ( 'geometry' ) ;
#104 = DATE_TIME_ROLE ( 'creation_date' ) ;
#105 = COORDINATED_UNIVERSAL_TIME_OFFSET ( 10, 0, .AHEAD. ) ;
#106 = SHAPE_REPRESENTATION ( '11557214112.step', ( #109, #206 ), #82 ) ;
#107 = CC_DESIGN_PERSON_AND_ORGANIZATION_ASSIGNMENT ( #209, #61, ( #176 ) ) ;
#108 = DATE_TIME_ROLE ( 'classification_date' ) ;
#109 = AXIS2_PLACEMENT_3D ( 'NONE', #155, #102, #19 ) ;
#110 = SECURITY_CLASSIFICATION ( '', '', #70 ) ;
#111 = PERSON_AND_ORGANIZATION ( #18446744073709551615, #18446744073709551615 ) ;
#112 = PRODUCT ( 'Extruded-8.step', 'Extruded-8.step', '', ( #64 ) ) ;
#113 = LOCAL_TIME ( 18, 49, 55.00000000000000000, #40 ) ;
#114 = LOCAL_TIME ( 18, 49, 55.00000000000000000, #105 ) ;
#115 =( NAMED_UNIT ( * ) SI_UNIT ( $, .STERADIAN. ) SOLID_ANGLE_UNIT ( ) );
#116 = DIRECTION ( 'NONE',  ( 0.000000000000000000, 0.000000000000000000, 1.000000000000000000 ) ) ;
#117 = CC_DESIGN_APPROVAL ( #31, ( #47 ) ) ;
#118 = DIRECTION ( 'NONE',  ( 1.000000000000000000, 0.000000000000000000, 0.000000000000000000 ) ) ;
#119 = APPROVAL ( #173, 'Coincident' ) ;
#120 = APPROVAL_DATE_TIME ( #136, #48 ) ;
#121 = PERSON_AND_ORGANIZATION ( #18446744073709551615, #18446744073709551615 ) ;
#122 = COORDINATED_UNIVERSAL_TIME_OFFSET ( 10, 0, .AHEAD. ) ;
#123 = CC_DESIGN_APPROVAL ( #187, ( #176 ) ) ;
#124 = COORDINATED_UNIVERSAL_TIME_OFFSET ( 10, 0, .AHEAD. ) ;
#125 = APPROVAL_STATUS ( 'not_yet_approved' ) ;
#126 = APPLIED_DOCUMENT_REFERENCE ( #20,'',( #133) ) ;
#127 = PERSON_AND_ORGANIZATION ( #18446744073709551615, #18446744073709551615 ) ;
#128 = DATE_AND_TIME ( #207, #22 ) ;
#129 = AXIS2_PLACEMENT_3D ( 'NONE', #212, #116, #118 ) ;
#130 = APPROVAL_PERSON_ORGANIZATION ( #179, #14, #160 ) ;
#131 = CALENDAR_DATE ( 2026, 22, 6 ) ;
#132 = PRODUCT_DEFINITION_SHAPE ( 'NONE', 'NONE',  #133 ) ;
#133 = PRODUCT_DEFINITION ( 'General', '', #58, #200 ) ;
#134 =( NAMED_UNIT ( * ) PLANE_ANGLE_UNIT ( ) SI_UNIT ( $, .RADIAN. ) );
#135 = APPROVAL_STATUS ( 'not_yet_approved' ) ;
#136 = DATE_AND_TIME ( #50, #163 ) ;
#137 = PERSON_AND_ORGANIZATION_ROLE ( 'design_owner' ) ;
#138 = PERSON_AND_ORGANIZATION ( #18446744073709551615, #18446744073709551615 ) ;
#139 = UNCERTAINTY_MEASURE_WITH_UNIT (LENGTH_MEASURE( 1.000000000000000082E-05 ), #213, 'distance_accuracy_value', 'NONE');
#140 = CALENDAR_DATE ( 2026, 22, 6 ) ;
#141 = SHAPE_DEFINITION_REPRESENTATION ( #132, #152 ) ;
#142 = LOCAL_TIME ( 18, 49, 55.00000000000000000, #2 ) ;
#143 = APPROVAL_ROLE ( '' ) ;
#144 = PROPERTY_DEFINITION_REPRESENTATION ( #62, #152 ) ;
#145 = PERSON_AND_ORGANIZATION_ROLE ( 'design_supplier' ) ;
#146 = PRODUCT ( '11557214112.step', '11557214112.step', '', ( #33 ) ) ;
#147 = PERSON_AND_ORGANIZATION ( #18446744073709551615, #18446744073709551615 ) ;
#148 = CC_DESIGN_PERSON_AND_ORGANIZATION_ASSIGNMENT ( #201, #35, ( #112 ) ) ;
#149 = APPLICATION_CONTEXT ( 'configuration controlled 3d designs of mechanical parts and assemblies' ) ;
#150 = CARTESIAN_POINT ( 'NONE',  ( 0.000000000000000000, 0.000000000000000000, 0.000000000000000000 ) ) ;
#151 = LOCAL_TIME ( 18, 49, 55.00000000000000000, #124 ) ;
#152 = SHAPE_REPRESENTATION ( 'Extruded-8.step', ( #129 ), #191 ) ;
#153 = APPROVAL_DATE_TIME ( #157, #31 ) ;
#154 = DATE_AND_TIME ( #172, #214 ) ;
#155 = CARTESIAN_POINT ( 'NONE',  ( 0.000000000000000000, 0.000000000000000000, 0.000000000000000000 ) ) ;
#156 = PERSON_AND_ORGANIZATION_ROLE ( 'design_supplier' ) ;
#157 = DATE_AND_TIME ( #66, #151 ) ;
#158 = PERSON ( 'NAUO-PER98', 'UNSPECIFIED', 'UNSPECIFIED', ('UNSPECIFIED'), ('UNSPECIFIED'), ('UNSPECIFIED') ) ;
#159 = APPROVAL_STATUS ( 'not_yet_approved' ) ;
#160 = APPROVAL_ROLE ( '' ) ;
#161 = EXTERNAL_SOURCE (IDENTIFIER('') ) ;
#162 = APPROVAL_DATE_TIME ( #178, #174 ) ;
#163 = LOCAL_TIME ( 18, 49, 55.00000000000000000, #94 ) ;
#164 = APPROVAL_ROLE ( '' ) ;
#165 = CC_DESIGN_PERSON_AND_ORGANIZATION_ASSIGNMENT ( #138, #21, ( #47 ) ) ;
#166 = LOCAL_TIME ( 18, 49, 55.00000000000000000, #192 ) ;
#167 = APPROVAL ( #81, 'Coincident' ) ;
#168 = PERSON_AND_ORGANIZATION_ROLE ( 'creator' ) ;
#169 = PERSON_AND_ORGANIZATION_ROLE ( 'creator' ) ;
#170 = IDENTIFICATION_ROLE ( 'external document id and location', $) ;
#171 = DATE_TIME_ROLE ( 'creation_date' ) ;
#172 = CALENDAR_DATE ( 2026, 22, 6 ) ;
#173 = APPROVAL_STATUS ( 'not_yet_approved' ) ;
#174 = APPROVAL ( #25, 'Coincident' ) ;
#175 = PERSON_AND_ORGANIZATION ( #18446744073709551615, #18446744073709551615 ) ;
#176 = SECURITY_CLASSIFICATION ( '', '', #27 ) ;
#177 = ROLE_ASSOCIATION ( #13, #126 ) ;
#178 = DATE_AND_TIME ( #131, #114 ) ;
#179 = PERSON_AND_ORGANIZATION ( #158, #83 ) ;
#180 = APPROVAL_PERSON_ORGANIZATION ( #127, #187, #164 ) ;
#181 = PRODUCT_DEFINITION ( 'General', '', #17, #96 ) ;
#182 = DIRECTION ( 'NONE',  ( 4.890937612370273194E-29, -3.155443620884047222E-30, 0.9999999999999997780 ) ) ;
#183 = CC_DESIGN_APPROVAL ( #167, ( #181 ) ) ;
#184 = PERSON_AND_ORGANIZATION ( #18446744073709551615, #18446744073709551615 ) ;
#185 = COORDINATED_UNIVERSAL_TIME_OFFSET ( 10, 0, .AHEAD. ) ;
#186 = PERSON_AND_ORGANIZATION ( #18446744073709551615, #18446744073709551615 ) ;
#187 = APPROVAL ( #159, 'Coincident' ) ;
#188 = PERSON_AND_ORGANIZATION ( #18446744073709551615, #18446744073709551615 ) ;
#189 = APPROVAL_ROLE ( '' ) ;
#190 = PROPERTY_DEFINITION_REPRESENTATION ( #30, #152 ) ;
#191 =( GEOMETRIC_REPRESENTATION_CONTEXT ( 3 ) GLOBAL_UNCERTAINTY_ASSIGNED_CONTEXT ( ( #55 ) ) GLOBAL_UNIT_ASSIGNED_CONTEXT ( ( #199, #134, #76 ) ) REPRESENTATION_CONTEXT ( 'NONE', 'WORKASPACE' ) );
#192 = COORDINATED_UNIVERSAL_TIME_OFFSET ( 10, 0, .AHEAD. ) ;
#193 = APPROVAL_PERSON_ORGANIZATION ( #186, #119, #37 ) ;
#194 = CALENDAR_DATE ( 2026, 22, 6 ) ;
#195 = CC_DESIGN_DATE_AND_TIME_ASSIGNMENT ( #202, #54, ( #47 ) ) ;
#196 = PRODUCT_DEFINITION_SHAPE ( 'NONE', 'NONE',  #181 ) ;
#197 = APPLICATION_CONTEXT ( 'configuration controlled 3d designs of mechanical parts and assemblies' ) ;
#198 = PRODUCT_RELATED_PRODUCT_CATEGORY ( 'detail', '', ( #112 ) ) ;
#199 =( LENGTH_UNIT ( ) NAMED_UNIT ( * ) SI_UNIT ( .MILLI., .METRE. ) );
#200 = DESIGN_CONTEXT ( 'detailed design', #79, 'design' ) ;
#201 = PERSON_AND_ORGANIZATION ( #18446744073709551615, #18446744073709551615 ) ;
#202 = DATE_AND_TIME ( #204, #210 ) ;
#203 = APPLICATION_PROTOCOL_DEFINITION ( 'international standard', 'config_control_design', 1994, #149 ) ;
#204 = CALENDAR_DATE ( 2026, 22, 6 ) ;
#205 = APPLICATION_PROTOCOL_DEFINITION ( 'international standard', 'config_control_design', 1994, #79 ) ;
#206 = AXIS2_PLACEMENT_3D ( 'NONE', #150, #182, #211 ) ;
#207 = CALENDAR_DATE ( 2026, 22, 6 ) ;
#208 = CC_DESIGN_PERSON_AND_ORGANIZATION_ASSIGNMENT ( #147, #137, ( #146 ) ) ;
#209 = PERSON_AND_ORGANIZATION ( #18446744073709551615, #18446744073709551615 ) ;
#210 = LOCAL_TIME ( 18, 49, 55.00000000000000000, #185 ) ;
#211 = DIRECTION ( 'NONE',  ( 1.000000000000000222, -1.092455418989176591E-28, 4.890937612370273194E-29 ) ) ;
#212 = CARTESIAN_POINT ( 'NONE',  ( 0.000000000000000000, 0.000000000000000000, 0.000000000000000000 ) ) ;
#213 =( LENGTH_UNIT ( ) NAMED_UNIT ( * ) SI_UNIT ( .MILLI., .METRE. ) );
#214 = LOCAL_TIME ( 18, 49, 55.00000000000000000, #122 ) ;
#215 = NEXT_ASSEMBLY_USAGE_OCCURRENCE ( 'NAUO98', ' ', ' ', #181, #133, $ ) ;
ENDSEC;
END-ISO-10303-21;
