ISO-10303-21;
HEADER;
FILE_DESCRIPTION (( 'STEP AP203' ),
    '1' );
FILE_NAME ('11552553264.step.STEP',
    '2026-06-22T08:49:54',
    ( 'localuser' ),
    ( '' ),
    'SwSTEP 2.0',
    'SolidWorks 2025',
    '' );
FILE_SCHEMA (( 'CONFIG_CONTROL_DESIGN' ));
ENDSEC;

DATA;
#1 = COORDINATED_UNIVERSAL_TIME_OFFSET ( 10, 0, .AHEAD. ) ;
#2 = PRODUCT_DEFINITION_FORMATION_WITH_SPECIFIED_SOURCE ( 'Symmetric', '', #26, .NOT_KNOWN. ) ;
#3 = APPROVAL_STATUS ( 'not_yet_approved' ) ;
#4 = AXIS2_PLACEMENT_3D ( 'NONE', #18, #48, #119 ) ;
#5 = CC_DESIGN_APPROVAL ( #103, ( #2 ) ) ;
#6 = CC_DESIGN_PERSON_AND_ORGANIZATION_ASSIGNMENT ( #210, #43, ( #2 ) ) ;
#7 = DATE_AND_TIME ( #83, #167 ) ;
#8 = CALENDAR_DATE ( 2026, 22, 6 ) ;
#9 = PERSON_AND_ORGANIZATION ( #18446744073709551615, #18446744073709551615 ) ;
#10 = DATE_TIME_ROLE ( 'classification_date' ) ;
#11 = PRODUCT_RELATED_PRODUCT_CATEGORY ( 'detail', '', ( #192 ) ) ;
#12 = DATE_TIME_ROLE ( 'classification_date' ) ;
#13 = LOCAL_TIME ( 18, 49, 54.00000000000000000, #122 ) ;
#14 = DESIGN_CONTEXT ( 'detailed design', #106, 'design' ) ;
#15 =( NAMED_UNIT ( * ) PLANE_ANGLE_UNIT ( ) SI_UNIT ( $, .RADIAN. ) );
#16 = APPROVAL ( #97, 'UNKNOWN' ) ;
#17 =( NAMED_UNIT ( * ) SI_UNIT ( $, .STERADIAN. ) SOLID_ANGLE_UNIT ( ) );
#18 = CARTESIAN_POINT ( 'NONE',  ( 0.000000000000000000, 0.000000000000000000, 0.000000000000000000 ) ) ;
#19 = APPROVAL_DATE_TIME ( #105, #145 ) ;
#20 = APPLICATION_CONTEXT ( 'configuration controlled 3d designs of mechanical parts and assemblies' ) ;
#21 = DATE_AND_TIME ( #187, #140 ) ;
#22 = APPROVAL ( #150, 'Coincident' ) ;
#23 = PERSON_AND_ORGANIZATION ( #18446744073709551615, #18446744073709551615 ) ;
#24 = APPROVAL_PERSON_ORGANIZATION ( #34, #145, #171 ) ;
#25 = IDENTIFICATION_ROLE ( 'external document id and location', $) ;
#26 = PRODUCT ( 'Extruded-10.step', 'Extruded-10.step', '', ( #81 ) ) ;
#27 = COORDINATED_UNIVERSAL_TIME_OFFSET ( 10, 0, .AHEAD. ) ;
#28 = DATE_AND_TIME ( #8, #175 ) ;
#29 = COORDINATED_UNIVERSAL_TIME_OFFSET ( 10, 0, .AHEAD. ) ;
#30 = DATE_AND_TIME ( #44, #100 ) ;
#31 = SECURITY_CLASSIFICATION_LEVEL ( 'unclassified' ) ;
#32 = AXIS2_PLACEMENT_3D ( 'NONE', #200, #169, #71 ) ;
#33 = CC_DESIGN_SECURITY_CLASSIFICATION ( #77, ( #2 ) ) ;
#34 = PERSON_AND_ORGANIZATION ( #18446744073709551615, #18446744073709551615 ) ;
#35 = DATE_AND_TIME ( #182, #13 ) ;
#36 = CALENDAR_DATE ( 2026, 22, 6 ) ;
#37 = PERSON_AND_ORGANIZATION ( #18446744073709551615, #18446744073709551615 ) ;
#38 = DATE_TIME_ROLE ( 'classification_date' ) ;
#39 = PERSON_AND_ORGANIZATION ( #18446744073709551615, #18446744073709551615 ) ;
#40 = CC_DESIGN_APPROVAL ( #42, ( #46 ) ) ;
#41 = APPROVAL_STATUS ( 'not_yet_approved' ) ;
#42 = APPROVAL ( #205, 'Coincident' ) ;
#43 = PERSON_AND_ORGANIZATION_ROLE ( 'design_supplier' ) ;
#44 = CALENDAR_DATE ( 2026, 22, 6 ) ;
#45 = SECURITY_CLASSIFICATION_LEVEL ( 'unclassified' ) ;
#46 = SECURITY_CLASSIFICATION ( '', '', #188 ) ;
#47 = LOCAL_TIME ( 18, 49, 54.00000000000000000, #212 ) ;
#48 = DIRECTION ( 'NONE',  ( 0.000000000000000000, 0.000000000000000000, 1.000000000000000000 ) ) ;
#49 = CC_DESIGN_APPROVAL ( #160, ( #56 ) ) ;
#50 = PERSON_AND_ORGANIZATION ( #18446744073709551615, #18446744073709551615 ) ;
#51 = CC_DESIGN_DATE_AND_TIME_ASSIGNMENT ( #35, #38, ( #46 ) ) ;
#52 = PERSON_AND_ORGANIZATION_ROLE ( 'design_owner' ) ;
#53 =( LENGTH_UNIT ( ) NAMED_UNIT ( * ) SI_UNIT ( .MILLI., .METRE. ) );
#54 = COORDINATED_UNIVERSAL_TIME_OFFSET ( 10, 0, .AHEAD. ) ;
#55 = CARTESIAN_POINT ( 'NONE',  ( 0.000000000000000000, 0.000000000000000000, 0.000000000000000000 ) ) ;
#56 = PRODUCT_DEFINITION ( 'General', '', #2, #85 ) ;
#57 = PERSON_AND_ORGANIZATION ( #152, #78 ) ;
#58 = PROPERTY_DEFINITION ('document property','', #159 ) ;
#59 = APPROVAL_STATUS ( 'not_yet_approved' ) ;
#60 = CC_DESIGN_PERSON_AND_ORGANIZATION_ASSIGNMENT ( #115, #174, ( #26 ) ) ;
#61 = APPROVAL_ROLE ( '' ) ;
#62 = DATE_AND_TIME ( #146, #47 ) ;
#63 = CONTEXT_DEPENDENT_SHAPE_REPRESENTATION ( #65, #128 ) ;
#64 = DATE_AND_TIME ( #161, #201 ) ;
#65 =( REPRESENTATION_RELATIONSHIP ('NONE','NONE', #107, #134 ) REPRESENTATION_RELATIONSHIP_WITH_TRANSFORMATION ( #194 )SHAPE_REPRESENTATION_RELATIONSHIP( ) );
#66 = PERSON_AND_ORGANIZATION_ROLE ( 'design_supplier' ) ;
#67 = APPROVAL_PERSON_ORGANIZATION ( #37, #204, #155 ) ;
#68 = CALENDAR_DATE ( 2026, 22, 6 ) ;
#69 = APPROVAL_PERSON_ORGANIZATION ( #117, #103, #196 ) ;
#70 = PROPERTY_DEFINITION_REPRESENTATION ( #58, #134 ) ;
#71 = DIRECTION ( 'NONE',  ( 1.000000000000000222, -1.092455418989176591E-28, 4.890937612370273194E-29 ) ) ;
#72 = UNCERTAINTY_MEASURE_WITH_UNIT (LENGTH_MEASURE( 1.000000000000000082E-05 ), #189, 'distance_accuracy_value', 'NONE');
#73 = PERSON_AND_ORGANIZATION ( #18446744073709551615, #18446744073709551615 ) ;
#74 = CC_DESIGN_PERSON_AND_ORGANIZATION_ASSIGNMENT ( #79, #162, ( #56 ) ) ;
#75 = APPROVAL_ROLE ( '' ) ;
#76 = CC_DESIGN_SECURITY_CLASSIFICATION ( #46, ( #127 ) ) ;
#77 = SECURITY_CLASSIFICATION ( '', '', #31 ) ;
#78 = ORGANIZATION ( 'NAUO-ORG69', 'UNSPECIFIED', 'UNSPECIFIED' ) ;
#79 = PERSON_AND_ORGANIZATION ( #18446744073709551615, #18446744073709551615 ) ;
#80 = CC_DESIGN_DATE_AND_TIME_ASSIGNMENT ( #64, #197, ( #56 ) ) ;
#81 = MECHANICAL_CONTEXT ( 'NONE', #170, 'mechanical' ) ;
#82 = PERSON_AND_ORGANIZATION_ROLE ( 'creator' ) ;
#83 = CALENDAR_DATE ( 2026, 22, 6 ) ;
#84 = APPROVAL_ROLE ( '' ) ;
#85 = DESIGN_CONTEXT ( 'detailed design', #20, 'design' ) ;
#86 = PRODUCT_DEFINITION ( 'General', '', #127, #14 ) ;
#87 = DIRECTION ( 'NONE',  ( 1.000000000000000000, 0.000000000000000000, 0.000000000000000000 ) ) ;
#88 = APPROVAL_PERSON_ORGANIZATION ( #39, #160, #61 ) ;
#89 = DIRECTION ( 'NONE',  ( 0.000000000000000000, 0.000000000000000000, 1.000000000000000000 ) ) ;
#90 = APPLICATION_PROTOCOL_DEFINITION ( 'international standard', 'config_control_design', 1994, #113 ) ;
#91 = APPROVAL_DATE_TIME ( #21, #42 ) ;
#92 = CC_DESIGN_PERSON_AND_ORGANIZATION_ASSIGNMENT ( #50, #142, ( #127 ) ) ;
#93 = PROPERTY_DEFINITION ('external definition','', #159 ) ;
#94 = CC_DESIGN_APPROVAL ( #145, ( #127 ) ) ;
#95 = PERSON_AND_ORGANIZATION ( #18446744073709551615, #18446744073709551615 ) ;
#96 = SHAPE_DEFINITION_REPRESENTATION ( #112, #107 ) ;
#97 = APPROVAL_STATUS ( 'not_yet_approved' ) ;
#98 =( GEOMETRIC_REPRESENTATION_CONTEXT ( 3 ) GLOBAL_UNCERTAINTY_ASSIGNED_CONTEXT ( ( #72 ) ) GLOBAL_UNIT_ASSIGNED_CONTEXT ( ( #189, #120, #209 ) ) REPRESENTATION_CONTEXT ( 'NONE', 'WORKASPACE' ) );
#99 = APPROVAL_DATE_TIME ( #30, #16 ) ;
#100 = LOCAL_TIME ( 18, 49, 54.00000000000000000, #118 ) ;
#101 = PRODUCT_RELATED_PRODUCT_CATEGORY ( 'detail', '', ( #26 ) ) ;
#102 = ROLE_ASSOCIATION ( #157, #180 ) ;
#103 = APPROVAL ( #59, 'Coincident' ) ;
#104 = CC_DESIGN_SECURITY_CLASSIFICATION ( #179, ( #215 ) ) ;
#105 = DATE_AND_TIME ( #68, #207 ) ;
#106 = APPLICATION_CONTEXT ( 'configuration controlled 3d designs of mechanical parts and assemblies' ) ;
#107 = SHAPE_REPRESENTATION ( '11552553264.step', ( #114, #32 ), #158 ) ;
#108 = CC_DESIGN_PERSON_AND_ORGANIZATION_ASSIGNMENT ( #183, #124, ( #86 ) ) ;
#109 = DATE_TIME_ROLE ( 'creation_date' ) ;
#110 = APPROVAL_DATE_TIME ( #156, #204 ) ;
#111 = LOCAL_TIME ( 18, 49, 54.00000000000000000, #203 ) ;
#112 = PRODUCT_DEFINITION_SHAPE ( 'NONE', 'NONE',  #86 ) ;
#113 = APPLICATION_CONTEXT ( 'configuration controlled 3d designs of mechanical parts and assemblies' ) ;
#114 = AXIS2_PLACEMENT_3D ( 'NONE', #55, #89, #87 ) ;
#115 = PERSON_AND_ORGANIZATION ( #18446744073709551615, #18446744073709551615 ) ;
#116 = APPROVAL_DATE_TIME ( #7, #22 ) ;
#117 = PERSON_AND_ORGANIZATION ( #18446744073709551615, #18446744073709551615 ) ;
#118 = COORDINATED_UNIVERSAL_TIME_OFFSET ( 10, 0, .AHEAD. ) ;
#119 = DIRECTION ( 'NONE',  ( 1.000000000000000000, 0.000000000000000000, 0.000000000000000000 ) ) ;
#120 =( NAMED_UNIT ( * ) PLANE_ANGLE_UNIT ( ) SI_UNIT ( $, .RADIAN. ) );
#121 = MECHANICAL_CONTEXT ( 'NONE', #113, 'mechanical' ) ;
#122 = COORDINATED_UNIVERSAL_TIME_OFFSET ( 10, 0, .AHEAD. ) ;
#123 = CC_DESIGN_DATE_AND_TIME_ASSIGNMENT ( #206, #109, ( #86 ) ) ;
#124 = PERSON_AND_ORGANIZATION_ROLE ( 'creator' ) ;
#125 = DOCUMENT_TYPE ( 'geometry' ) ;
#126 = CALENDAR_DATE ( 2026, 22, 6 ) ;
#127 = PRODUCT_DEFINITION_FORMATION_WITH_SPECIFIED_SOURCE ( 'Symmetric', '', #192, .NOT_KNOWN. ) ;
#128 = PRODUCT_DEFINITION_SHAPE ( 'NONE', 'NONE',  #215 ) ;
#129 = CALENDAR_DATE ( 2026, 22, 6 ) ;
#130 = APPROVAL_DATE_TIME ( #132, #103 ) ;
#131 = COORDINATED_UNIVERSAL_TIME_OFFSET ( 10, 0, .AHEAD. ) ;
#132 = DATE_AND_TIME ( #129, #144 ) ;
#133 = APPLICATION_PROTOCOL_DEFINITION ( 'international standard', 'config_control_design', 1994, #20 ) ;
#134 = SHAPE_REPRESENTATION ( 'Extruded-10.step', ( #4 ), #98 ) ;
#135 = COORDINATED_UNIVERSAL_TIME_OFFSET ( 10, 0, .AHEAD. ) ;
#136 = APPLICATION_PROTOCOL_DEFINITION ( 'international standard', 'config_control_design', 1994, #106 ) ;
#137 = CC_DESIGN_PERSON_AND_ORGANIZATION_ASSIGNMENT ( #23, #52, ( #192 ) ) ;
#138 = PROPERTY_DEFINITION_REPRESENTATION ( #93, #134 ) ;
#139 = PERSON_AND_ORGANIZATION ( #18446744073709551615, #18446744073709551615 ) ;
#140 = LOCAL_TIME ( 18, 49, 54.00000000000000000, #54 ) ;
#141 = APPLIED_EXTERNAL_IDENTIFICATION_ASSIGNMENT ( 'Extruded-10.step.STEP' , #25, #166,( #159) ) ;
#142 = PERSON_AND_ORGANIZATION_ROLE ( 'creator' ) ;
#143 = PRODUCT_DEFINITION_SHAPE ( 'NONE', 'NONE',  #56 ) ;
#144 = LOCAL_TIME ( 18, 49, 54.00000000000000000, #198 ) ;
#145 = APPROVAL ( #3, 'Coincident' ) ;
#146 = CALENDAR_DATE ( 2026, 22, 6 ) ;
#147 = APPLICATION_PROTOCOL_DEFINITION ( 'international standard', 'config_control_design', 1994, #170 ) ;
#148 = PERSON_AND_ORGANIZATION_ROLE ( 'classification_officer' ) ;
#149 = LOCAL_TIME ( 18, 49, 54.00000000000000000, #29 ) ;
#150 = APPROVAL_STATUS ( 'not_yet_approved' ) ;
#151 = PERSON_AND_ORGANIZATION_ROLE ( 'classification_officer' ) ;
#152 = PERSON ( 'NAUO-PER69', 'UNSPECIFIED', 'UNSPECIFIED', ('UNSPECIFIED'), ('UNSPECIFIED'), ('UNSPECIFIED') ) ;
#153 = CC_DESIGN_DATE_AND_TIME_ASSIGNMENT ( #62, #12, ( #179 ) ) ;
#154 = APPROVAL_STATUS ( 'not_yet_approved' ) ;
#155 = APPROVAL_ROLE ( '' ) ;
#156 = DATE_AND_TIME ( #126, #111 ) ;
#157 = OBJECT_ROLE ('mandatory',$ ) ;
#158 =( GEOMETRIC_REPRESENTATION_CONTEXT ( 3 ) GLOBAL_UNCERTAINTY_ASSIGNED_CONTEXT ( ( #211 ) ) GLOBAL_UNIT_ASSIGNED_CONTEXT ( ( #53, #15, #17 ) ) REPRESENTATION_CONTEXT ( 'NONE', 'WORKASPACE' ) );
#159 = DOCUMENT_FILE ( 'Extruded-10.step.STEP' , '', '', #125, '' ,$ ) ;
#160 = APPROVAL ( #41, 'Coincident' ) ;
#161 = CALENDAR_DATE ( 2026, 22, 6 ) ;
#162 = PERSON_AND_ORGANIZATION_ROLE ( 'creator' ) ;
#163 = PERSON_AND_ORGANIZATION ( #18446744073709551615, #18446744073709551615 ) ;
#164 = CC_DESIGN_APPROVAL ( #22, ( #77 ) ) ;
#165 = APPROVAL_ROLE ( '' ) ;
#166 = EXTERNAL_SOURCE (IDENTIFIER('') ) ;
#167 = LOCAL_TIME ( 18, 49, 54.00000000000000000, #131 ) ;
#168 = CC_DESIGN_PERSON_AND_ORGANIZATION_ASSIGNMENT ( #73, #66, ( #127 ) ) ;
#169 = DIRECTION ( 'NONE',  ( 4.890937612370273194E-29, -3.155443620884047222E-30, 0.9999999999999997780 ) ) ;
#170 = APPLICATION_CONTEXT ( 'configuration controlled 3d designs of mechanical parts and assemblies' ) ;
#171 = APPROVAL_ROLE ( '' ) ;
#172 = PERSON_AND_ORGANIZATION ( #18446744073709551615, #18446744073709551615 ) ;
#173 = CC_DESIGN_PERSON_AND_ORGANIZATION_ASSIGNMENT ( #139, #202, ( #46 ) ) ;
#174 = PERSON_AND_ORGANIZATION_ROLE ( 'design_owner' ) ;
#175 = LOCAL_TIME ( 18, 49, 54.00000000000000000, #178 ) ;
#176 = APPROVAL_DATE_TIME ( #193, #160 ) ;
#177 = SHAPE_DEFINITION_REPRESENTATION ( #143, #134 ) ;
#178 = COORDINATED_UNIVERSAL_TIME_OFFSET ( 10, 0, .AHEAD. ) ;
#179 = SECURITY_CLASSIFICATION ( '', '', #45 ) ;
#180 = APPLIED_DOCUMENT_REFERENCE ( #159,'',( #56) ) ;
#181 = CC_DESIGN_DATE_AND_TIME_ASSIGNMENT ( #28, #10, ( #77 ) ) ;
#182 = CALENDAR_DATE ( 2026, 22, 6 ) ;
#183 = PERSON_AND_ORGANIZATION ( #18446744073709551615, #18446744073709551615 ) ;
#184 = CC_DESIGN_APPROVAL ( #204, ( #86 ) ) ;
#185 = APPROVAL_PERSON_ORGANIZATION ( #57, #16, #165 ) ;
#186 = CC_DESIGN_PERSON_AND_ORGANIZATION_ASSIGNMENT ( #9, #82, ( #2 ) ) ;
#187 = CALENDAR_DATE ( 2026, 22, 6 ) ;
#188 = SECURITY_CLASSIFICATION_LEVEL ( 'unclassified' ) ;
#189 =( LENGTH_UNIT ( ) NAMED_UNIT ( * ) SI_UNIT ( .MILLI., .METRE. ) );
#190 = LOCAL_TIME ( 18, 49, 54.00000000000000000, #135 ) ;
#191 = APPROVAL_PERSON_ORGANIZATION ( #163, #22, #84 ) ;
#192 = PRODUCT ( '11552553264.step', '11552553264.step', '', ( #121 ) ) ;
#193 = DATE_AND_TIME ( #208, #149 ) ;
#194 = ITEM_DEFINED_TRANSFORMATION ( 'NONE', 'NONE', #32,  #4 ) ;
#195 = CC_DESIGN_APPROVAL ( #16, ( #179 ) ) ;
#196 = APPROVAL_ROLE ( '' ) ;
#197 = DATE_TIME_ROLE ( 'creation_date' ) ;
#198 = COORDINATED_UNIVERSAL_TIME_OFFSET ( 10, 0, .AHEAD. ) ;
#199 = CC_DESIGN_PERSON_AND_ORGANIZATION_ASSIGNMENT ( #95, #148, ( #77 ) ) ;
#200 = CARTESIAN_POINT ( 'NONE',  ( 0.000000000000000000, 0.000000000000000000, 0.000000000000000000 ) ) ;
#201 = LOCAL_TIME ( 18, 49, 54.00000000000000000, #27 ) ;
#202 = PERSON_AND_ORGANIZATION_ROLE ( 'classification_officer' ) ;
#203 = COORDINATED_UNIVERSAL_TIME_OFFSET ( 10, 0, .AHEAD. ) ;
#204 = APPROVAL ( #154, 'Coincident' ) ;
#205 = APPROVAL_STATUS ( 'not_yet_approved' ) ;
#206 = DATE_AND_TIME ( #36, #190 ) ;
#207 = LOCAL_TIME ( 18, 49, 54.00000000000000000, #1 ) ;
#208 = CALENDAR_DATE ( 2026, 22, 6 ) ;
#209 =( NAMED_UNIT ( * ) SI_UNIT ( $, .STERADIAN. ) SOLID_ANGLE_UNIT ( ) );
#210 = PERSON_AND_ORGANIZATION ( #18446744073709551615, #18446744073709551615 ) ;
#211 = UNCERTAINTY_MEASURE_WITH_UNIT (LENGTH_MEASURE( 1.000000000000000082E-05 ), #53, 'distance_accuracy_value', 'NONE');
#212 = COORDINATED_UNIVERSAL_TIME_OFFSET ( 10, 0, .AHEAD. ) ;
#213 = CC_DESIGN_PERSON_AND_ORGANIZATION_ASSIGNMENT ( #57, #151, ( #179 ) ) ;
#214 = APPROVAL_PERSON_ORGANIZATION ( #172, #42, #75 ) ;
#215 = NEXT_ASSEMBLY_USAGE_OCCURRENCE ( 'NAUO69', ' ', ' ', #86, #56, $ ) ;
ENDSEC;
END-ISO-10303-21;
