ISO-10303-21;
HEADER;
FILE_DESCRIPTION (( 'STEP AP203' ),
    '1' );
FILE_NAME ('11552548624.step.STEP',
    '2026-06-22T08:49:54',
    ( 'localuser' ),
    ( '' ),
    'SwSTEP 2.0',
    'SolidWorks 2025',
    '' );
FILE_SCHEMA (( 'CONFIG_CONTROL_DESIGN' ));
ENDSEC;

DATA;
#1 = DATE_AND_TIME ( #35, #171 ) ;
#2 = ROLE_ASSOCIATION ( #157, #172 ) ;
#3 = CC_DESIGN_DATE_AND_TIME_ASSIGNMENT ( #208, #43, ( #123 ) ) ;
#4 = APPROVAL_ROLE ( '' ) ;
#5 = CARTESIAN_POINT ( 'NONE',  ( 0.000000000000000000, 0.000000000000000000, 0.000000000000000000 ) ) ;
#6 = APPLICATION_CONTEXT ( 'configuration controlled 3d designs of mechanical parts and assemblies' ) ;
#7 = LOCAL_TIME ( 18, 49, 54.00000000000000000, #100 ) ;
#8 = PRODUCT_DEFINITION_FORMATION_WITH_SPECIFIED_SOURCE ( 'Symmetric', '', #146, .NOT_KNOWN. ) ;
#9 = SECURITY_CLASSIFICATION_LEVEL ( 'unclassified' ) ;
#10 = DATE_TIME_ROLE ( 'creation_date' ) ;
#11 = DATE_TIME_ROLE ( 'classification_date' ) ;
#12 = COORDINATED_UNIVERSAL_TIME_OFFSET ( 10, 0, .AHEAD. ) ;
#13 = CALENDAR_DATE ( 2026, 22, 6 ) ;
#14 = APPROVAL_ROLE ( '' ) ;
#15 = APPROVAL_PERSON_ORGANIZATION ( #25, #184, #151 ) ;
#16 = APPROVAL_PERSON_ORGANIZATION ( #86, #91, #140 ) ;
#17 = APPROVAL_DATE_TIME ( #50, #104 ) ;
#18 = CALENDAR_DATE ( 2026, 22, 6 ) ;
#19 =( LENGTH_UNIT ( ) NAMED_UNIT ( * ) SI_UNIT ( .MILLI., .METRE. ) );
#20 = CC_DESIGN_SECURITY_CLASSIFICATION ( #147, ( #215 ) ) ;
#21 = AXIS2_PLACEMENT_3D ( 'NONE', #5, #71, #72 ) ;
#22 =( REPRESENTATION_RELATIONSHIP ('NONE','NONE', #107, #74 ) REPRESENTATION_RELATIONSHIP_WITH_TRANSFORMATION ( #173 )SHAPE_REPRESENTATION_RELATIONSHIP( ) );
#23 = PRODUCT ( '11552548624.step', '11552548624.step', '', ( #142 ) ) ;
#24 = PERSON_AND_ORGANIZATION_ROLE ( 'classification_officer' ) ;
#25 = PERSON_AND_ORGANIZATION ( #18446744073709551615, #18446744073709551615 ) ;
#26 = IDENTIFICATION_ROLE ( 'external document id and location', $) ;
#27 = PERSON_AND_ORGANIZATION_ROLE ( 'design_supplier' ) ;
#28 = COORDINATED_UNIVERSAL_TIME_OFFSET ( 10, 0, .AHEAD. ) ;
#29 = MECHANICAL_CONTEXT ( 'NONE', #160, 'mechanical' ) ;
#30 = DATE_AND_TIME ( #105, #36 ) ;
#31 = DESIGN_CONTEXT ( 'detailed design', #6, 'design' ) ;
#32 = PERSON_AND_ORGANIZATION_ROLE ( 'classification_officer' ) ;
#33 = CC_DESIGN_SECURITY_CLASSIFICATION ( #73, ( #207 ) ) ;
#34 = PERSON_AND_ORGANIZATION ( #18446744073709551615, #18446744073709551615 ) ;
#35 = CALENDAR_DATE ( 2026, 22, 6 ) ;
#36 = LOCAL_TIME ( 18, 49, 54.00000000000000000, #124 ) ;
#37 = CC_DESIGN_PERSON_AND_ORGANIZATION_ASSIGNMENT ( #34, #155, ( #181 ) ) ;
#38 = PERSON ( 'NAUO-PER90', 'UNSPECIFIED', 'UNSPECIFIED', ('UNSPECIFIED'), ('UNSPECIFIED'), ('UNSPECIFIED') ) ;
#39 = APPROVAL_ROLE ( '' ) ;
#40 = APPLICATION_CONTEXT ( 'configuration controlled 3d designs of mechanical parts and assemblies' ) ;
#41 = APPROVAL ( #148, 'Coincident' ) ;
#42 = CC_DESIGN_APPROVAL ( #184, ( #207 ) ) ;
#43 = DATE_TIME_ROLE ( 'creation_date' ) ;
#44 = APPROVAL_DATE_TIME ( #163, #184 ) ;
#45 = EXTERNAL_SOURCE (IDENTIFIER('') ) ;
#46 = APPROVAL ( #83, 'Coincident' ) ;
#47 = DATE_AND_TIME ( #129, #192 ) ;
#48 = PERSON_AND_ORGANIZATION ( #18446744073709551615, #18446744073709551615 ) ;
#49 = LOCAL_TIME ( 18, 49, 54.00000000000000000, #168 ) ;
#50 = DATE_AND_TIME ( #201, #167 ) ;
#51 = COORDINATED_UNIVERSAL_TIME_OFFSET ( 10, 0, .AHEAD. ) ;
#52 = LOCAL_TIME ( 18, 49, 54.00000000000000000, #28 ) ;
#53 = CONTEXT_DEPENDENT_SHAPE_REPRESENTATION ( #22, #128 ) ;
#54 = CC_DESIGN_DATE_AND_TIME_ASSIGNMENT ( #106, #169, ( #181 ) ) ;
#55 = DIRECTION ( 'NONE',  ( 0.000000000000000000, 0.000000000000000000, 1.000000000000000000 ) ) ;
#56 =( LENGTH_UNIT ( ) NAMED_UNIT ( * ) SI_UNIT ( .MILLI., .METRE. ) );
#57 = CC_DESIGN_APPROVAL ( #46, ( #8 ) ) ;
#58 = DATE_AND_TIME ( #162, #7 ) ;
#59 = PROPERTY_DEFINITION ('document property','', #150 ) ;
#60 = APPLICATION_PROTOCOL_DEFINITION ( 'international standard', 'config_control_design', 1994, #6 ) ;
#61 = APPROVAL_PERSON_ORGANIZATION ( #130, #156, #135 ) ;
#62 = CALENDAR_DATE ( 2026, 22, 6 ) ;
#63 = APPROVAL_STATUS ( 'not_yet_approved' ) ;
#64 = CALENDAR_DATE ( 2026, 22, 6 ) ;
#65 = CC_DESIGN_PERSON_AND_ORGANIZATION_ASSIGNMENT ( #202, #32, ( #147 ) ) ;
#66 = CALENDAR_DATE ( 2026, 22, 6 ) ;
#67 = COORDINATED_UNIVERSAL_TIME_OFFSET ( 10, 0, .AHEAD. ) ;
#68 = AXIS2_PLACEMENT_3D ( 'NONE', #132, #115, #210 ) ;
#69 = APPROVAL_PERSON_ORGANIZATION ( #202, #104, #14 ) ;
#70 = SHAPE_DEFINITION_REPRESENTATION ( #112, #74 ) ;
#71 = DIRECTION ( 'NONE',  ( 4.890937612370273194E-29, -3.155443620884047222E-30, 0.9999999999999997780 ) ) ;
#72 = DIRECTION ( 'NONE',  ( 1.000000000000000222, -1.092455418989176591E-28, 4.890937612370273194E-29 ) ) ;
#73 = SECURITY_CLASSIFICATION ( '', '', #9 ) ;
#74 = SHAPE_REPRESENTATION ( 'Extruded-3.step', ( #119 ), #85 ) ;
#75 = CC_DESIGN_DATE_AND_TIME_ASSIGNMENT ( #58, #11, ( #73 ) ) ;
#76 = APPROVAL_DATE_TIME ( #47, #206 ) ;
#77 = DOCUMENT_TYPE ( 'geometry' ) ;
#78 = PERSON_AND_ORGANIZATION_ROLE ( 'creator' ) ;
#79 = CC_DESIGN_DATE_AND_TIME_ASSIGNMENT ( #96, #10, ( #166 ) ) ;
#80 = APPROVAL_STATUS ( 'not_yet_approved' ) ;
#81 = APPROVAL_DATE_TIME ( #113, #41 ) ;
#82 = CC_DESIGN_DATE_AND_TIME_ASSIGNMENT ( #158, #185, ( #147 ) ) ;
#83 = APPROVAL_STATUS ( 'not_yet_approved' ) ;
#84 = LOCAL_TIME ( 18, 49, 54.00000000000000000, #176 ) ;
#85 =( GEOMETRIC_REPRESENTATION_CONTEXT ( 3 ) GLOBAL_UNCERTAINTY_ASSIGNED_CONTEXT ( ( #97 ) ) GLOBAL_UNIT_ASSIGNED_CONTEXT ( ( #19, #90, #205 ) ) REPRESENTATION_CONTEXT ( 'NONE', 'WORKASPACE' ) );
#86 = PERSON_AND_ORGANIZATION ( #18446744073709551615, #18446744073709551615 ) ;
#87 = PERSON_AND_ORGANIZATION ( #18446744073709551615, #18446744073709551615 ) ;
#88 = CC_DESIGN_PERSON_AND_ORGANIZATION_ASSIGNMENT ( #154, #27, ( #207 ) ) ;
#89 = CC_DESIGN_APPROVAL ( #206, ( #73 ) ) ;
#90 =( NAMED_UNIT ( * ) PLANE_ANGLE_UNIT ( ) SI_UNIT ( $, .RADIAN. ) );
#91 = APPROVAL ( #102, 'Coincident' ) ;
#92 =( NAMED_UNIT ( * ) SI_UNIT ( $, .STERADIAN. ) SOLID_ANGLE_UNIT ( ) );
#93 = CC_DESIGN_PERSON_AND_ORGANIZATION_ASSIGNMENT ( #175, #78, ( #166 ) ) ;
#94 = PROPERTY_DEFINITION ('external definition','', #150 ) ;
#95 = CC_DESIGN_APPROVAL ( #156, ( #123 ) ) ;
#96 = DATE_AND_TIME ( #64, #111 ) ;
#97 = UNCERTAINTY_MEASURE_WITH_UNIT (LENGTH_MEASURE( 1.000000000000000082E-05 ), #19, 'distance_accuracy_value', 'NONE');
#98 = APPLICATION_PROTOCOL_DEFINITION ( 'international standard', 'config_control_design', 1994, #133 ) ;
#99 = APPROVAL_STATUS ( 'not_yet_approved' ) ;
#100 = COORDINATED_UNIVERSAL_TIME_OFFSET ( 10, 0, .AHEAD. ) ;
#101 = PERSON_AND_ORGANIZATION ( #18446744073709551615, #18446744073709551615 ) ;
#102 = APPROVAL_STATUS ( 'not_yet_approved' ) ;
#103 = SECURITY_CLASSIFICATION_LEVEL ( 'unclassified' ) ;
#104 = APPROVAL ( #121, 'UNKNOWN' ) ;
#105 = CALENDAR_DATE ( 2026, 22, 6 ) ;
#106 = DATE_AND_TIME ( #66, #152 ) ;
#107 = SHAPE_REPRESENTATION ( '11552548624.step', ( #68, #21 ), #114 ) ;
#108 = PERSON_AND_ORGANIZATION ( #18446744073709551615, #18446744073709551615 ) ;
#109 = CC_DESIGN_PERSON_AND_ORGANIZATION_ASSIGNMENT ( #134, #197, ( #207 ) ) ;
#110 =( NAMED_UNIT ( * ) PLANE_ANGLE_UNIT ( ) SI_UNIT ( $, .RADIAN. ) );
#111 = LOCAL_TIME ( 18, 49, 54.00000000000000000, #213 ) ;
#112 = PRODUCT_DEFINITION_SHAPE ( 'NONE', 'NONE',  #166 ) ;
#113 = DATE_AND_TIME ( #13, #52 ) ;
#114 =( GEOMETRIC_REPRESENTATION_CONTEXT ( 3 ) GLOBAL_UNCERTAINTY_ASSIGNED_CONTEXT ( ( #164 ) ) GLOBAL_UNIT_ASSIGNED_CONTEXT ( ( #56, #110, #92 ) ) REPRESENTATION_CONTEXT ( 'NONE', 'WORKASPACE' ) );
#115 = DIRECTION ( 'NONE',  ( 0.000000000000000000, 0.000000000000000000, 1.000000000000000000 ) ) ;
#116 = CC_DESIGN_PERSON_AND_ORGANIZATION_ASSIGNMENT ( #87, #137, ( #8 ) ) ;
#117 = APPROVAL_DATE_TIME ( #209, #156 ) ;
#118 = PERSON_AND_ORGANIZATION_ROLE ( 'design_owner' ) ;
#119 = AXIS2_PLACEMENT_3D ( 'NONE', #188, #55, #145 ) ;
#120 = APPLICATION_PROTOCOL_DEFINITION ( 'international standard', 'config_control_design', 1994, #160 ) ;
#121 = APPROVAL_STATUS ( 'not_yet_approved' ) ;
#122 = PERSON_AND_ORGANIZATION ( #18446744073709551615, #18446744073709551615 ) ;
#123 = PRODUCT_DEFINITION ( 'General', '', #207, #138 ) ;
#124 = COORDINATED_UNIVERSAL_TIME_OFFSET ( 10, 0, .AHEAD. ) ;
#125 = PROPERTY_DEFINITION_REPRESENTATION ( #94, #74 ) ;
#126 = PRODUCT_RELATED_PRODUCT_CATEGORY ( 'detail', '', ( #23 ) ) ;
#127 = CC_DESIGN_APPROVAL ( #91, ( #181 ) ) ;
#128 = PRODUCT_DEFINITION_SHAPE ( 'NONE', 'NONE',  #215 ) ;
#129 = CALENDAR_DATE ( 2026, 22, 6 ) ;
#130 = PERSON_AND_ORGANIZATION ( #18446744073709551615, #18446744073709551615 ) ;
#131 = CC_DESIGN_SECURITY_CLASSIFICATION ( #181, ( #8 ) ) ;
#132 = CARTESIAN_POINT ( 'NONE',  ( 0.000000000000000000, 0.000000000000000000, 0.000000000000000000 ) ) ;
#133 = APPLICATION_CONTEXT ( 'configuration controlled 3d designs of mechanical parts and assemblies' ) ;
#134 = PERSON_AND_ORGANIZATION ( #18446744073709551615, #18446744073709551615 ) ;
#135 = APPROVAL_ROLE ( '' ) ;
#136 = APPROVAL_DATE_TIME ( #1, #91 ) ;
#137 = PERSON_AND_ORGANIZATION_ROLE ( 'creator' ) ;
#138 = DESIGN_CONTEXT ( 'detailed design', #133, 'design' ) ;
#139 = SECURITY_CLASSIFICATION_LEVEL ( 'unclassified' ) ;
#140 = APPROVAL_ROLE ( '' ) ;
#141 = ORGANIZATION ( 'NAUO-ORG90', 'UNSPECIFIED', 'UNSPECIFIED' ) ;
#142 = MECHANICAL_CONTEXT ( 'NONE', #40, 'mechanical' ) ;
#143 = CC_DESIGN_PERSON_AND_ORGANIZATION_ASSIGNMENT ( #48, #24, ( #73 ) ) ;
#144 = LOCAL_TIME ( 18, 49, 54.00000000000000000, #199 ) ;
#145 = DIRECTION ( 'NONE',  ( 1.000000000000000000, 0.000000000000000000, 0.000000000000000000 ) ) ;
#146 = PRODUCT ( 'Extruded-3.step', 'Extruded-3.step', '', ( #29 ) ) ;
#147 = SECURITY_CLASSIFICATION ( '', '', #139 ) ;
#148 = APPROVAL_STATUS ( 'not_yet_approved' ) ;
#149 = PRODUCT_RELATED_PRODUCT_CATEGORY ( 'detail', '', ( #146 ) ) ;
#150 = DOCUMENT_FILE ( 'Extruded-3.step.STEP' , '', '', #77, '' ,$ ) ;
#151 = APPROVAL_ROLE ( '' ) ;
#152 = LOCAL_TIME ( 18, 49, 54.00000000000000000, #51 ) ;
#153 = PERSON_AND_ORGANIZATION_ROLE ( 'design_owner' ) ;
#154 = PERSON_AND_ORGANIZATION ( #18446744073709551615, #18446744073709551615 ) ;
#155 = PERSON_AND_ORGANIZATION_ROLE ( 'classification_officer' ) ;
#156 = APPROVAL ( #80, 'Coincident' ) ;
#157 = OBJECT_ROLE ('mandatory',$ ) ;
#158 = DATE_AND_TIME ( #18, #174 ) ;
#159 = APPROVAL_PERSON_ORGANIZATION ( #198, #206, #165 ) ;
#160 = APPLICATION_CONTEXT ( 'configuration controlled 3d designs of mechanical parts and assemblies' ) ;
#161 = APPROVAL_PERSON_ORGANIZATION ( #179, #41, #39 ) ;
#162 = CALENDAR_DATE ( 2026, 22, 6 ) ;
#163 = DATE_AND_TIME ( #62, #144 ) ;
#164 = UNCERTAINTY_MEASURE_WITH_UNIT (LENGTH_MEASURE( 1.000000000000000082E-05 ), #56, 'distance_accuracy_value', 'NONE');
#165 = APPROVAL_ROLE ( '' ) ;
#166 = PRODUCT_DEFINITION ( 'General', '', #8, #31 ) ;
#167 = LOCAL_TIME ( 18, 49, 54.00000000000000000, #67 ) ;
#168 = COORDINATED_UNIVERSAL_TIME_OFFSET ( 10, 0, .AHEAD. ) ;
#169 = DATE_TIME_ROLE ( 'classification_date' ) ;
#170 = COORDINATED_UNIVERSAL_TIME_OFFSET ( 10, 0, .AHEAD. ) ;
#171 = LOCAL_TIME ( 18, 49, 54.00000000000000000, #203 ) ;
#172 = APPLIED_DOCUMENT_REFERENCE ( #150,'',( #166) ) ;
#173 = ITEM_DEFINED_TRANSFORMATION ( 'NONE', 'NONE', #21,  #119 ) ;
#174 = LOCAL_TIME ( 18, 49, 54.00000000000000000, #170 ) ;
#175 = PERSON_AND_ORGANIZATION ( #18446744073709551615, #18446744073709551615 ) ;
#176 = COORDINATED_UNIVERSAL_TIME_OFFSET ( 10, 0, .AHEAD. ) ;
#177 = CC_DESIGN_PERSON_AND_ORGANIZATION_ASSIGNMENT ( #122, #187, ( #8 ) ) ;
#178 = PERSON_AND_ORGANIZATION_ROLE ( 'creator' ) ;
#179 = PERSON_AND_ORGANIZATION ( #18446744073709551615, #18446744073709551615 ) ;
#180 = APPROVAL_DATE_TIME ( #30, #46 ) ;
#181 = SECURITY_CLASSIFICATION ( '', '', #103 ) ;
#182 = CALENDAR_DATE ( 2026, 22, 6 ) ;
#183 = PERSON_AND_ORGANIZATION ( #18446744073709551615, #18446744073709551615 ) ;
#184 = APPROVAL ( #63, 'Coincident' ) ;
#185 = DATE_TIME_ROLE ( 'classification_date' ) ;
#186 = CC_DESIGN_APPROVAL ( #104, ( #147 ) ) ;
#187 = PERSON_AND_ORGANIZATION_ROLE ( 'design_supplier' ) ;
#188 = CARTESIAN_POINT ( 'NONE',  ( 0.000000000000000000, 0.000000000000000000, 0.000000000000000000 ) ) ;
#189 = CC_DESIGN_PERSON_AND_ORGANIZATION_ASSIGNMENT ( #108, #153, ( #23 ) ) ;
#190 = PROPERTY_DEFINITION_REPRESENTATION ( #59, #74 ) ;
#191 = CC_DESIGN_APPROVAL ( #41, ( #166 ) ) ;
#192 = LOCAL_TIME ( 18, 49, 54.00000000000000000, #12 ) ;
#193 = CC_DESIGN_PERSON_AND_ORGANIZATION_ASSIGNMENT ( #101, #118, ( #146 ) ) ;
#194 = PRODUCT_DEFINITION_SHAPE ( 'NONE', 'NONE',  #123 ) ;
#195 = SHAPE_DEFINITION_REPRESENTATION ( #194, #107 ) ;
#196 = PERSON_AND_ORGANIZATION ( #18446744073709551615, #18446744073709551615 ) ;
#197 = PERSON_AND_ORGANIZATION_ROLE ( 'creator' ) ;
#198 = PERSON_AND_ORGANIZATION ( #18446744073709551615, #18446744073709551615 ) ;
#199 = COORDINATED_UNIVERSAL_TIME_OFFSET ( 10, 0, .AHEAD. ) ;
#200 = CC_DESIGN_PERSON_AND_ORGANIZATION_ASSIGNMENT ( #196, #178, ( #123 ) ) ;
#201 = CALENDAR_DATE ( 2026, 22, 6 ) ;
#202 = PERSON_AND_ORGANIZATION ( #38, #141 ) ;
#203 = COORDINATED_UNIVERSAL_TIME_OFFSET ( 10, 0, .AHEAD. ) ;
#204 = APPLICATION_PROTOCOL_DEFINITION ( 'international standard', 'config_control_design', 1994, #40 ) ;
#205 =( NAMED_UNIT ( * ) SI_UNIT ( $, .STERADIAN. ) SOLID_ANGLE_UNIT ( ) );
#206 = APPROVAL ( #99, 'Coincident' ) ;
#207 = PRODUCT_DEFINITION_FORMATION_WITH_SPECIFIED_SOURCE ( 'Symmetric', '', #23, .NOT_KNOWN. ) ;
#208 = DATE_AND_TIME ( #212, #84 ) ;
#209 = DATE_AND_TIME ( #182, #49 ) ;
#210 = DIRECTION ( 'NONE',  ( 1.000000000000000000, 0.000000000000000000, 0.000000000000000000 ) ) ;
#211 = APPROVAL_PERSON_ORGANIZATION ( #183, #46, #4 ) ;
#212 = CALENDAR_DATE ( 2026, 22, 6 ) ;
#213 = COORDINATED_UNIVERSAL_TIME_OFFSET ( 10, 0, .AHEAD. ) ;
#214 = APPLIED_EXTERNAL_IDENTIFICATION_ASSIGNMENT ( 'Extruded-3.step.STEP' , #26, #45,( #150) ) ;
#215 = NEXT_ASSEMBLY_USAGE_OCCURRENCE ( 'NAUO90', ' ', ' ', #123, #166, $ ) ;
ENDSEC;
END-ISO-10303-21;
