ISO-10303-21;
HEADER;
FILE_DESCRIPTION (( 'STEP AP203' ),
    '1' );
FILE_NAME ('6325040752.step.STEP',
    '2026-06-22T08:49:54',
    ( 'localuser' ),
    ( '' ),
    'SwSTEP 2.0',
    'SolidWorks 2025',
    '' );
FILE_SCHEMA (( 'CONFIG_CONTROL_DESIGN' ));
ENDSEC;

DATA;
#1 = APPROVAL_STATUS ( 'not_yet_approved' ) ;
#2 = COORDINATED_UNIVERSAL_TIME_OFFSET ( 10, 0, .AHEAD. ) ;
#3 =( GEOMETRIC_REPRESENTATION_CONTEXT ( 3 ) GLOBAL_UNCERTAINTY_ASSIGNED_CONTEXT ( ( #90 ) ) GLOBAL_UNIT_ASSIGNED_CONTEXT ( ( #184, #132, #58 ) ) REPRESENTATION_CONTEXT ( 'NONE', 'WORKASPACE' ) );
#4 = DATE_AND_TIME ( #108, #78 ) ;
#5 = APPROVAL_STATUS ( 'not_yet_approved' ) ;
#6 = APPROVAL_DATE_TIME ( #210, #161 ) ;
#7 = CALENDAR_DATE ( 2026, 22, 6 ) ;
#8 = APPLICATION_CONTEXT ( 'configuration controlled 3d designs of mechanical parts and assemblies' ) ;
#9 = CC_DESIGN_PERSON_AND_ORGANIZATION_ASSIGNMENT ( #131, #24, ( #18 ) ) ;
#10 = ORGANIZATION ( 'NAUO-ORG80', 'UNSPECIFIED', 'UNSPECIFIED' ) ;
#11 = COORDINATED_UNIVERSAL_TIME_OFFSET ( 10, 0, .AHEAD. ) ;
#12 = APPROVAL_PERSON_ORGANIZATION ( #201, #150, #17 ) ;
#13 = PERSON_AND_ORGANIZATION_ROLE ( 'design_owner' ) ;
#14 = SHAPE_REPRESENTATION ( 'Extruded-7.step', ( #40 ), #3 ) ;
#15 = CC_DESIGN_DATE_AND_TIME_ASSIGNMENT ( #4, #22, ( #167 ) ) ;
#16 =( NAMED_UNIT ( * ) PLANE_ANGLE_UNIT ( ) SI_UNIT ( $, .RADIAN. ) );
#17 = APPROVAL_ROLE ( '' ) ;
#18 = PRODUCT_DEFINITION ( 'General', '', #26, #195 ) ;
#19 = DIRECTION ( 'NONE',  ( 0.000000000000000000, 0.000000000000000000, 1.000000000000000000 ) ) ;
#20 = APPROVAL ( #59, 'Coincident' ) ;
#21 = PROPERTY_DEFINITION ('document property','', #44 ) ;
#22 = DATE_TIME_ROLE ( 'classification_date' ) ;
#23 = CALENDAR_DATE ( 2026, 22, 6 ) ;
#24 = PERSON_AND_ORGANIZATION_ROLE ( 'creator' ) ;
#25 = APPROVAL_PERSON_ORGANIZATION ( #82, #20, #104 ) ;
#26 = PRODUCT_DEFINITION_FORMATION_WITH_SPECIFIED_SOURCE ( 'Symmetric', '', #191, .NOT_KNOWN. ) ;
#27 = APPROVAL_DATE_TIME ( #100, #150 ) ;
#28 = CC_DESIGN_DATE_AND_TIME_ASSIGNMENT ( #48, #133, ( #115 ) ) ;
#29 = PERSON_AND_ORGANIZATION_ROLE ( 'creator' ) ;
#30 =( LENGTH_UNIT ( ) NAMED_UNIT ( * ) SI_UNIT ( .MILLI., .METRE. ) );
#31 = PERSON_AND_ORGANIZATION ( #18446744073709551615, #18446744073709551615 ) ;
#32 = CC_DESIGN_PERSON_AND_ORGANIZATION_ASSIGNMENT ( #95, #50, ( #26 ) ) ;
#33 = APPLICATION_PROTOCOL_DEFINITION ( 'international standard', 'config_control_design', 1994, #8 ) ;
#34 = PERSON_AND_ORGANIZATION_ROLE ( 'creator' ) ;
#35 = APPROVAL ( #200, 'Coincident' ) ;
#36 = DATE_AND_TIME ( #143, #134 ) ;
#37 = PROPERTY_DEFINITION_REPRESENTATION ( #51, #14 ) ;
#38 = DIRECTION ( 'NONE',  ( 4.890937612370273194E-29, -3.155443620884047222E-30, 0.9999999999999997780 ) ) ;
#39 = CALENDAR_DATE ( 2026, 22, 6 ) ;
#40 = AXIS2_PLACEMENT_3D ( 'NONE', #77, #149, #97 ) ;
#41 = LOCAL_TIME ( 18, 49, 54.00000000000000000, #52 ) ;
#42 = UNCERTAINTY_MEASURE_WITH_UNIT (LENGTH_MEASURE( 1.000000000000000082E-05 ), #30, 'distance_accuracy_value', 'NONE');
#43 = APPROVAL_PERSON_ORGANIZATION ( #80, #35, #122 ) ;
#44 = DOCUMENT_FILE ( 'Extruded-7.step.STEP' , '', '', #81, '' ,$ ) ;
#45 = CC_DESIGN_SECURITY_CLASSIFICATION ( #167, ( #215 ) ) ;
#46 = DATE_TIME_ROLE ( 'creation_date' ) ;
#47 = PERSON_AND_ORGANIZATION ( #18446744073709551615, #18446744073709551615 ) ;
#48 = DATE_AND_TIME ( #170, #199 ) ;
#49 = CC_DESIGN_PERSON_AND_ORGANIZATION_ASSIGNMENT ( #177, #127, ( #140 ) ) ;
#50 = PERSON_AND_ORGANIZATION_ROLE ( 'design_supplier' ) ;
#51 = PROPERTY_DEFINITION ('external definition','', #44 ) ;
#52 = COORDINATED_UNIVERSAL_TIME_OFFSET ( 10, 0, .AHEAD. ) ;
#53 = PRODUCT_RELATED_PRODUCT_CATEGORY ( 'detail', '', ( #142 ) ) ;
#54 = AXIS2_PLACEMENT_3D ( 'NONE', #56, #38, #181 ) ;
#55 = PERSON_AND_ORGANIZATION_ROLE ( 'classification_officer' ) ;
#56 = CARTESIAN_POINT ( 'NONE',  ( 0.000000000000000000, 0.000000000000000000, 0.000000000000000000 ) ) ;
#57 = APPROVAL_STATUS ( 'not_yet_approved' ) ;
#58 =( NAMED_UNIT ( * ) SI_UNIT ( $, .STERADIAN. ) SOLID_ANGLE_UNIT ( ) );
#59 = APPROVAL_STATUS ( 'not_yet_approved' ) ;
#60 = CC_DESIGN_APPROVAL ( #159, ( #18 ) ) ;
#61 = PERSON_AND_ORGANIZATION ( #18446744073709551615, #18446744073709551615 ) ;
#62 = APPLIED_EXTERNAL_IDENTIFICATION_ASSIGNMENT ( 'Extruded-7.step.STEP' , #71, #86,( #44) ) ;
#63 = PERSON_AND_ORGANIZATION ( #18446744073709551615, #18446744073709551615 ) ;
#64 = COORDINATED_UNIVERSAL_TIME_OFFSET ( 10, 0, .AHEAD. ) ;
#65 = CC_DESIGN_PERSON_AND_ORGANIZATION_ASSIGNMENT ( #47, #29, ( #157 ) ) ;
#66 = CARTESIAN_POINT ( 'NONE',  ( 0.000000000000000000, 0.000000000000000000, 0.000000000000000000 ) ) ;
#67 = APPROVAL_PERSON_ORGANIZATION ( #61, #159, #166 ) ;
#68 = CC_DESIGN_PERSON_AND_ORGANIZATION_ASSIGNMENT ( #211, #137, ( #142 ) ) ;
#69 = APPROVAL_PERSON_ORGANIZATION ( #194, #185, #116 ) ;
#70 = PERSON_AND_ORGANIZATION ( #152, #10 ) ;
#71 = IDENTIFICATION_ROLE ( 'external document id and location', $) ;
#72 = APPROVAL_DATE_TIME ( #112, #185 ) ;
#73 = CONTEXT_DEPENDENT_SHAPE_REPRESENTATION ( #117, #87 ) ;
#74 = COORDINATED_UNIVERSAL_TIME_OFFSET ( 10, 0, .AHEAD. ) ;
#75 = MECHANICAL_CONTEXT ( 'NONE', #155, 'mechanical' ) ;
#76 = APPROVAL_ROLE ( '' ) ;
#77 = CARTESIAN_POINT ( 'NONE',  ( 0.000000000000000000, 0.000000000000000000, 0.000000000000000000 ) ) ;
#78 = LOCAL_TIME ( 18, 49, 54.00000000000000000, #74 ) ;
#79 = CC_DESIGN_DATE_AND_TIME_ASSIGNMENT ( #36, #145, ( #140 ) ) ;
#80 = PERSON_AND_ORGANIZATION ( #18446744073709551615, #18446744073709551615 ) ;
#81 = DOCUMENT_TYPE ( 'geometry' ) ;
#82 = PERSON_AND_ORGANIZATION ( #18446744073709551615, #18446744073709551615 ) ;
#83 =( NAMED_UNIT ( * ) SI_UNIT ( $, .STERADIAN. ) SOLID_ANGLE_UNIT ( ) );
#84 = COORDINATED_UNIVERSAL_TIME_OFFSET ( 10, 0, .AHEAD. ) ;
#85 = PERSON_AND_ORGANIZATION ( #18446744073709551615, #18446744073709551615 ) ;
#86 = EXTERNAL_SOURCE (IDENTIFIER('') ) ;
#87 = PRODUCT_DEFINITION_SHAPE ( 'NONE', 'NONE',  #215 ) ;
#88 = CC_DESIGN_APPROVAL ( #20, ( #173 ) ) ;
#89 = COORDINATED_UNIVERSAL_TIME_OFFSET ( 10, 0, .AHEAD. ) ;
#90 = UNCERTAINTY_MEASURE_WITH_UNIT (LENGTH_MEASURE( 1.000000000000000082E-05 ), #184, 'distance_accuracy_value', 'NONE');
#91 = SECURITY_CLASSIFICATION_LEVEL ( 'unclassified' ) ;
#92 = DATE_AND_TIME ( #7, #172 ) ;
#93 = LOCAL_TIME ( 18, 49, 54.00000000000000000, #204 ) ;
#94 = CC_DESIGN_PERSON_AND_ORGANIZATION_ASSIGNMENT ( #174, #34, ( #26 ) ) ;
#95 = PERSON_AND_ORGANIZATION ( #18446744073709551615, #18446744073709551615 ) ;
#96 = APPLICATION_CONTEXT ( 'configuration controlled 3d designs of mechanical parts and assemblies' ) ;
#97 = DIRECTION ( 'NONE',  ( 1.000000000000000000, 0.000000000000000000, 0.000000000000000000 ) ) ;
#98 = CC_DESIGN_PERSON_AND_ORGANIZATION_ASSIGNMENT ( #63, #189, ( #157 ) ) ;
#99 = PERSON_AND_ORGANIZATION ( #18446744073709551615, #18446744073709551615 ) ;
#100 = DATE_AND_TIME ( #123, #139 ) ;
#101 = APPLICATION_CONTEXT ( 'configuration controlled 3d designs of mechanical parts and assemblies' ) ;
#102 = CALENDAR_DATE ( 2026, 22, 6 ) ;
#103 = COORDINATED_UNIVERSAL_TIME_OFFSET ( 10, 0, .AHEAD. ) ;
#104 = APPROVAL_ROLE ( '' ) ;
#105 = OBJECT_ROLE ('mandatory',$ ) ;
#106 = LOCAL_TIME ( 18, 49, 54.00000000000000000, #111 ) ;
#107 = PRODUCT_DEFINITION_SHAPE ( 'NONE', 'NONE',  #173 ) ;
#108 = CALENDAR_DATE ( 2026, 22, 6 ) ;
#109 = LOCAL_TIME ( 18, 49, 54.00000000000000000, #2 ) ;
#110 = APPROVAL_PERSON_ORGANIZATION ( #70, #161, #76 ) ;
#111 = COORDINATED_UNIVERSAL_TIME_OFFSET ( 10, 0, .AHEAD. ) ;
#112 = DATE_AND_TIME ( #39, #206 ) ;
#113 = CC_DESIGN_PERSON_AND_ORGANIZATION_ASSIGNMENT ( #85, #135, ( #173 ) ) ;
#114 = COORDINATED_UNIVERSAL_TIME_OFFSET ( 10, 0, .AHEAD. ) ;
#115 = SECURITY_CLASSIFICATION ( '', '', #136 ) ;
#116 = APPROVAL_ROLE ( '' ) ;
#117 =( REPRESENTATION_RELATIONSHIP ('NONE','NONE', #165, #14 ) REPRESENTATION_RELATIONSHIP_WITH_TRANSFORMATION ( #148 )SHAPE_REPRESENTATION_RELATIONSHIP( ) );
#118 = CC_DESIGN_APPROVAL ( #161, ( #167 ) ) ;
#119 = APPROVAL_DATE_TIME ( #151, #35 ) ;
#120 = PERSON_AND_ORGANIZATION_ROLE ( 'classification_officer' ) ;
#121 = CC_DESIGN_SECURITY_CLASSIFICATION ( #115, ( #157 ) ) ;
#122 = APPROVAL_ROLE ( '' ) ;
#123 = CALENDAR_DATE ( 2026, 22, 6 ) ;
#124 = CC_DESIGN_PERSON_AND_ORGANIZATION_ASSIGNMENT ( #70, #55, ( #167 ) ) ;
#125 = CC_DESIGN_APPROVAL ( #150, ( #115 ) ) ;
#126 = PRODUCT_DEFINITION_SHAPE ( 'NONE', 'NONE',  #18 ) ;
#127 = PERSON_AND_ORGANIZATION_ROLE ( 'classification_officer' ) ;
#128 = APPROVAL ( #5, 'Coincident' ) ;
#129 = SECURITY_CLASSIFICATION_LEVEL ( 'unclassified' ) ;
#130 = APPROVAL_DATE_TIME ( #92, #128 ) ;
#131 = PERSON_AND_ORGANIZATION ( #18446744073709551615, #18446744073709551615 ) ;
#132 =( NAMED_UNIT ( * ) PLANE_ANGLE_UNIT ( ) SI_UNIT ( $, .RADIAN. ) );
#133 = DATE_TIME_ROLE ( 'classification_date' ) ;
#134 = LOCAL_TIME ( 18, 49, 54.00000000000000000, #162 ) ;
#135 = PERSON_AND_ORGANIZATION_ROLE ( 'creator' ) ;
#136 = SECURITY_CLASSIFICATION_LEVEL ( 'unclassified' ) ;
#137 = PERSON_AND_ORGANIZATION_ROLE ( 'design_owner' ) ;
#138 = CC_DESIGN_PERSON_AND_ORGANIZATION_ASSIGNMENT ( #31, #120, ( #115 ) ) ;
#139 = LOCAL_TIME ( 18, 49, 54.00000000000000000, #84 ) ;
#140 = SECURITY_CLASSIFICATION ( '', '', #129 ) ;
#141 = APPROVAL_DATE_TIME ( #171, #20 ) ;
#142 = PRODUCT ( '6325040752.step', '6325040752.step', '', ( #75 ) ) ;
#143 = CALENDAR_DATE ( 2026, 22, 6 ) ;
#144 = DATE_TIME_ROLE ( 'creation_date' ) ;
#145 = DATE_TIME_ROLE ( 'classification_date' ) ;
#146 = AXIS2_PLACEMENT_3D ( 'NONE', #66, #19, #154 ) ;
#147 = CC_DESIGN_SECURITY_CLASSIFICATION ( #140, ( #26 ) ) ;
#148 = ITEM_DEFINED_TRANSFORMATION ( 'NONE', 'NONE', #54,  #40 ) ;
#149 = DIRECTION ( 'NONE',  ( 0.000000000000000000, 0.000000000000000000, 1.000000000000000000 ) ) ;
#150 = APPROVAL ( #1, 'Coincident' ) ;
#151 = DATE_AND_TIME ( #203, #214 ) ;
#152 = PERSON ( 'NAUO-PER80', 'UNSPECIFIED', 'UNSPECIFIED', ('UNSPECIFIED'), ('UNSPECIFIED'), ('UNSPECIFIED') ) ;
#153 = DATE_AND_TIME ( #102, #93 ) ;
#154 = DIRECTION ( 'NONE',  ( 1.000000000000000000, 0.000000000000000000, 0.000000000000000000 ) ) ;
#155 = APPLICATION_CONTEXT ( 'configuration controlled 3d designs of mechanical parts and assemblies' ) ;
#156 = CALENDAR_DATE ( 2026, 22, 6 ) ;
#157 = PRODUCT_DEFINITION_FORMATION_WITH_SPECIFIED_SOURCE ( 'Symmetric', '', #142, .NOT_KNOWN. ) ;
#158 = SHAPE_DEFINITION_REPRESENTATION ( #107, #165 ) ;
#159 = APPROVAL ( #169, 'Coincident' ) ;
#160 = PROPERTY_DEFINITION_REPRESENTATION ( #21, #14 ) ;
#161 = APPROVAL ( #208, 'UNKNOWN' ) ;
#162 = COORDINATED_UNIVERSAL_TIME_OFFSET ( 10, 0, .AHEAD. ) ;
#163 = ROLE_ASSOCIATION ( #105, #196 ) ;
#164 = CC_DESIGN_APPROVAL ( #128, ( #26 ) ) ;
#165 = SHAPE_REPRESENTATION ( '6325040752.step', ( #146, #54 ), #187 ) ;
#166 = APPROVAL_ROLE ( '' ) ;
#167 = SECURITY_CLASSIFICATION ( '', '', #91 ) ;
#168 = APPLICATION_PROTOCOL_DEFINITION ( 'international standard', 'config_control_design', 1994, #101 ) ;
#169 = APPROVAL_STATUS ( 'not_yet_approved' ) ;
#170 = CALENDAR_DATE ( 2026, 22, 6 ) ;
#171 = DATE_AND_TIME ( #156, #109 ) ;
#172 = LOCAL_TIME ( 18, 49, 54.00000000000000000, #89 ) ;
#173 = PRODUCT_DEFINITION ( 'General', '', #157, #183 ) ;
#174 = PERSON_AND_ORGANIZATION ( #18446744073709551615, #18446744073709551615 ) ;
#175 = APPROVAL_PERSON_ORGANIZATION ( #213, #128, #180 ) ;
#176 = CC_DESIGN_DATE_AND_TIME_ASSIGNMENT ( #153, #46, ( #173 ) ) ;
#177 = PERSON_AND_ORGANIZATION ( #18446744073709551615, #18446744073709551615 ) ;
#178 = SHAPE_DEFINITION_REPRESENTATION ( #126, #14 ) ;
#179 = APPLICATION_PROTOCOL_DEFINITION ( 'international standard', 'config_control_design', 1994, #155 ) ;
#180 = APPROVAL_ROLE ( '' ) ;
#181 = DIRECTION ( 'NONE',  ( 1.000000000000000222, -1.092455418989176591E-28, 4.890937612370273194E-29 ) ) ;
#182 = DATE_AND_TIME ( #207, #106 ) ;
#183 = DESIGN_CONTEXT ( 'detailed design', #8, 'design' ) ;
#184 =( LENGTH_UNIT ( ) NAMED_UNIT ( * ) SI_UNIT ( .MILLI., .METRE. ) );
#185 = APPROVAL ( #57, 'Coincident' ) ;
#186 = MECHANICAL_CONTEXT ( 'NONE', #96, 'mechanical' ) ;
#187 =( GEOMETRIC_REPRESENTATION_CONTEXT ( 3 ) GLOBAL_UNCERTAINTY_ASSIGNED_CONTEXT ( ( #42 ) ) GLOBAL_UNIT_ASSIGNED_CONTEXT ( ( #30, #16, #83 ) ) REPRESENTATION_CONTEXT ( 'NONE', 'WORKASPACE' ) );
#188 = CC_DESIGN_APPROVAL ( #185, ( #140 ) ) ;
#189 = PERSON_AND_ORGANIZATION_ROLE ( 'design_supplier' ) ;
#190 = LOCAL_TIME ( 18, 49, 54.00000000000000000, #114 ) ;
#191 = PRODUCT ( 'Extruded-7.step', 'Extruded-7.step', '', ( #186 ) ) ;
#192 = APPROVAL_DATE_TIME ( #182, #159 ) ;
#193 = DATE_AND_TIME ( #209, #190 ) ;
#194 = PERSON_AND_ORGANIZATION ( #18446744073709551615, #18446744073709551615 ) ;
#195 = DESIGN_CONTEXT ( 'detailed design', #101, 'design' ) ;
#196 = APPLIED_DOCUMENT_REFERENCE ( #44,'',( #18) ) ;
#197 = PRODUCT_RELATED_PRODUCT_CATEGORY ( 'detail', '', ( #191 ) ) ;
#198 = APPLICATION_PROTOCOL_DEFINITION ( 'international standard', 'config_control_design', 1994, #96 ) ;
#199 = LOCAL_TIME ( 18, 49, 54.00000000000000000, #103 ) ;
#200 = APPROVAL_STATUS ( 'not_yet_approved' ) ;
#201 = PERSON_AND_ORGANIZATION ( #18446744073709551615, #18446744073709551615 ) ;
#202 = CC_DESIGN_DATE_AND_TIME_ASSIGNMENT ( #193, #144, ( #18 ) ) ;
#203 = CALENDAR_DATE ( 2026, 22, 6 ) ;
#204 = COORDINATED_UNIVERSAL_TIME_OFFSET ( 10, 0, .AHEAD. ) ;
#205 = CC_DESIGN_APPROVAL ( #35, ( #157 ) ) ;
#206 = LOCAL_TIME ( 18, 49, 54.00000000000000000, #11 ) ;
#207 = CALENDAR_DATE ( 2026, 22, 6 ) ;
#208 = APPROVAL_STATUS ( 'not_yet_approved' ) ;
#209 = CALENDAR_DATE ( 2026, 22, 6 ) ;
#210 = DATE_AND_TIME ( #23, #41 ) ;
#211 = PERSON_AND_ORGANIZATION ( #18446744073709551615, #18446744073709551615 ) ;
#212 = CC_DESIGN_PERSON_AND_ORGANIZATION_ASSIGNMENT ( #99, #13, ( #191 ) ) ;
#213 = PERSON_AND_ORGANIZATION ( #18446744073709551615, #18446744073709551615 ) ;
#214 = LOCAL_TIME ( 18, 49, 54.00000000000000000, #64 ) ;
#215 = NEXT_ASSEMBLY_USAGE_OCCURRENCE ( 'NAUO80', ' ', ' ', #173, #18, $ ) ;
ENDSEC;
END-ISO-10303-21;
