ISO-10303-21;
HEADER;
FILE_DESCRIPTION (( 'STEP AP203' ),
    '1' );
FILE_NAME ('6325040992.step.STEP',
    '2026-06-22T08:49:54',
    ( 'localuser' ),
    ( '' ),
    'SwSTEP 2.0',
    'SolidWorks 2025',
    '' );
FILE_SCHEMA (( 'CONFIG_CONTROL_DESIGN' ));
ENDSEC;

DATA;
#1 = SECURITY_CLASSIFICATION_LEVEL ( 'unclassified' ) ;
#2 = APPROVAL_STATUS ( 'not_yet_approved' ) ;
#3 = DATE_AND_TIME ( #100, #15 ) ;
#4 = DATE_AND_TIME ( #139, #114 ) ;
#5 =( GEOMETRIC_REPRESENTATION_CONTEXT ( 3 ) GLOBAL_UNCERTAINTY_ASSIGNED_CONTEXT ( ( #178 ) ) GLOBAL_UNIT_ASSIGNED_CONTEXT ( ( #12, #42, #212 ) ) REPRESENTATION_CONTEXT ( 'NONE', 'WORKASPACE' ) );
#6 = CALENDAR_DATE ( 2026, 22, 6 ) ;
#7 = APPLICATION_CONTEXT ( 'configuration controlled 3d designs of mechanical parts and assemblies' ) ;
#8 = PERSON_AND_ORGANIZATION ( #211, #141 ) ;
#9 = APPROVAL_STATUS ( 'not_yet_approved' ) ;
#10 = CC_DESIGN_DATE_AND_TIME_ASSIGNMENT ( #159, #208, ( #109 ) ) ;
#11 = LOCAL_TIME ( 18, 49, 54.00000000000000000, #191 ) ;
#12 =( LENGTH_UNIT ( ) NAMED_UNIT ( * ) SI_UNIT ( .MILLI., .METRE. ) );
#13 = APPROVAL_ROLE ( '' ) ;
#14 = DOCUMENT_FILE ( 'Extruded-6.step.STEP' , '', '', #116, '' ,$ ) ;
#15 = LOCAL_TIME ( 18, 49, 54.00000000000000000, #183 ) ;
#16 = CC_DESIGN_APPROVAL ( #129, ( #109 ) ) ;
#17 = DESIGN_CONTEXT ( 'detailed design', #7, 'design' ) ;
#18 = COORDINATED_UNIVERSAL_TIME_OFFSET ( 10, 0, .AHEAD. ) ;
#19 = CC_DESIGN_PERSON_AND_ORGANIZATION_ASSIGNMENT ( #72, #41, ( #83 ) ) ;
#20 = PERSON_AND_ORGANIZATION_ROLE ( 'creator' ) ;
#21 = APPLIED_EXTERNAL_IDENTIFICATION_ASSIGNMENT ( 'Extruded-6.step.STEP' , #149, #66,( #14) ) ;
#22 = COORDINATED_UNIVERSAL_TIME_OFFSET ( 10, 0, .AHEAD. ) ;
#23 = CALENDAR_DATE ( 2026, 22, 6 ) ;
#24 = APPROVAL ( #182, 'Coincident' ) ;
#25 = DATE_AND_TIME ( #185, #214 ) ;
#26 = APPROVAL ( #84, 'Coincident' ) ;
#27 = PRODUCT_DEFINITION_SHAPE ( 'NONE', 'NONE',  #120 ) ;
#28 = SHAPE_DEFINITION_REPRESENTATION ( #27, #131 ) ;
#29 = APPLIED_DOCUMENT_REFERENCE ( #14,'',( #120) ) ;
#30 = APPROVAL_DATE_TIME ( #78, #213 ) ;
#31 = CC_DESIGN_APPROVAL ( #203, ( #74 ) ) ;
#32 =( LENGTH_UNIT ( ) NAMED_UNIT ( * ) SI_UNIT ( .MILLI., .METRE. ) );
#33 = PERSON_AND_ORGANIZATION ( #18446744073709551615, #18446744073709551615 ) ;
#34 = APPROVAL_PERSON_ORGANIZATION ( #117, #26, #170 ) ;
#35 = PERSON_AND_ORGANIZATION ( #18446744073709551615, #18446744073709551615 ) ;
#36 = CC_DESIGN_PERSON_AND_ORGANIZATION_ASSIGNMENT ( #35, #102, ( #122 ) ) ;
#37 = SHAPE_DEFINITION_REPRESENTATION ( #188, #118 ) ;
#38 = CALENDAR_DATE ( 2026, 22, 6 ) ;
#39 = DATE_AND_TIME ( #54, #187 ) ;
#40 = CC_DESIGN_PERSON_AND_ORGANIZATION_ASSIGNMENT ( #168, #184, ( #122 ) ) ;
#41 = PERSON_AND_ORGANIZATION_ROLE ( 'classification_officer' ) ;
#42 =( NAMED_UNIT ( * ) PLANE_ANGLE_UNIT ( ) SI_UNIT ( $, .RADIAN. ) );
#43 = ROLE_ASSOCIATION ( #105, #29 ) ;
#44 = PERSON_AND_ORGANIZATION_ROLE ( 'classification_officer' ) ;
#45 = CC_DESIGN_SECURITY_CLASSIFICATION ( #83, ( #122 ) ) ;
#46 = UNCERTAINTY_MEASURE_WITH_UNIT (LENGTH_MEASURE( 1.000000000000000082E-05 ), #32, 'distance_accuracy_value', 'NONE');
#47 = LOCAL_TIME ( 18, 49, 54.00000000000000000, #22 ) ;
#48 = DATE_TIME_ROLE ( 'creation_date' ) ;
#49 = CC_DESIGN_DATE_AND_TIME_ASSIGNMENT ( #4, #48, ( #120 ) ) ;
#50 = DATE_TIME_ROLE ( 'creation_date' ) ;
#51 = APPROVAL_ROLE ( '' ) ;
#52 = PERSON_AND_ORGANIZATION_ROLE ( 'design_owner' ) ;
#53 = LOCAL_TIME ( 18, 49, 54.00000000000000000, #18 ) ;
#54 = CALENDAR_DATE ( 2026, 22, 6 ) ;
#55 = CC_DESIGN_PERSON_AND_ORGANIZATION_ASSIGNMENT ( #186, #20, ( #181 ) ) ;
#56 = DATE_AND_TIME ( #210, #11 ) ;
#57 = PRODUCT ( 'Extruded-6.step', 'Extruded-6.step', '', ( #136 ) ) ;
#58 = CC_DESIGN_PERSON_AND_ORGANIZATION_ASSIGNMENT ( #8, #92, ( #147 ) ) ;
#59 = APPROVAL_PERSON_ORGANIZATION ( #65, #95, #51 ) ;
#60 = APPROVAL_ROLE ( '' ) ;
#61 = APPROVAL_STATUS ( 'not_yet_approved' ) ;
#62 = PERSON_AND_ORGANIZATION_ROLE ( 'design_owner' ) ;
#63 = AXIS2_PLACEMENT_3D ( 'NONE', #179, #164, #132 ) ;
#64 = LOCAL_TIME ( 18, 49, 54.00000000000000000, #130 ) ;
#65 = PERSON_AND_ORGANIZATION ( #18446744073709551615, #18446744073709551615 ) ;
#66 = EXTERNAL_SOURCE (IDENTIFIER('') ) ;
#67 = LOCAL_TIME ( 18, 49, 54.00000000000000000, #121 ) ;
#68 = DATE_AND_TIME ( #150, #53 ) ;
#69 = APPROVAL_PERSON_ORGANIZATION ( #206, #203, #166 ) ;
#70 = APPROVAL_DATE_TIME ( #68, #203 ) ;
#71 = DATE_TIME_ROLE ( 'classification_date' ) ;
#72 = PERSON_AND_ORGANIZATION ( #18446744073709551615, #18446744073709551615 ) ;
#73 =( GEOMETRIC_REPRESENTATION_CONTEXT ( 3 ) GLOBAL_UNCERTAINTY_ASSIGNED_CONTEXT ( ( #46 ) ) GLOBAL_UNIT_ASSIGNED_CONTEXT ( ( #32, #93, #81 ) ) REPRESENTATION_CONTEXT ( 'NONE', 'WORKASPACE' ) );
#74 = PRODUCT_DEFINITION_FORMATION_WITH_SPECIFIED_SOURCE ( 'Symmetric', '', #57, .NOT_KNOWN. ) ;
#75 = CC_DESIGN_PERSON_AND_ORGANIZATION_ASSIGNMENT ( #201, #79, ( #74 ) ) ;
#76 = COORDINATED_UNIVERSAL_TIME_OFFSET ( 10, 0, .AHEAD. ) ;
#77 = PERSON_AND_ORGANIZATION_ROLE ( 'design_supplier' ) ;
#78 = DATE_AND_TIME ( #6, #64 ) ;
#79 = PERSON_AND_ORGANIZATION_ROLE ( 'creator' ) ;
#80 = DATE_TIME_ROLE ( 'classification_date' ) ;
#81 =( NAMED_UNIT ( * ) SI_UNIT ( $, .STERADIAN. ) SOLID_ANGLE_UNIT ( ) );
#82 = APPROVAL_ROLE ( '' ) ;
#83 = SECURITY_CLASSIFICATION ( '', '', #1 ) ;
#84 = APPROVAL_STATUS ( 'not_yet_approved' ) ;
#85 = APPROVAL_PERSON_ORGANIZATION ( #8, #213, #60 ) ;
#86 = CALENDAR_DATE ( 2026, 22, 6 ) ;
#87 = PRODUCT_RELATED_PRODUCT_CATEGORY ( 'detail', '', ( #57 ) ) ;
#88 = APPROVAL_STATUS ( 'not_yet_approved' ) ;
#89 = PERSON_AND_ORGANIZATION ( #18446744073709551615, #18446744073709551615 ) ;
#90 = PRODUCT ( '6325040992.step', '6325040992.step', '', ( #197 ) ) ;
#91 = PROPERTY_DEFINITION_REPRESENTATION ( #106, #131 ) ;
#92 = PERSON_AND_ORGANIZATION_ROLE ( 'classification_officer' ) ;
#93 =( NAMED_UNIT ( * ) PLANE_ANGLE_UNIT ( ) SI_UNIT ( $, .RADIAN. ) );
#94 = APPROVAL_PERSON_ORGANIZATION ( #89, #24, #152 ) ;
#95 = APPROVAL ( #135, 'Coincident' ) ;
#96 = DIRECTION ( 'NONE',  ( 1.000000000000000000, 0.000000000000000000, 0.000000000000000000 ) ) ;
#97 = DESIGN_CONTEXT ( 'detailed design', #107, 'design' ) ;
#98 = CC_DESIGN_PERSON_AND_ORGANIZATION_ASSIGNMENT ( #189, #77, ( #74 ) ) ;
#99 = PERSON_AND_ORGANIZATION_ROLE ( 'creator' ) ;
#100 = CALENDAR_DATE ( 2026, 22, 6 ) ;
#101 = CC_DESIGN_PERSON_AND_ORGANIZATION_ASSIGNMENT ( #156, #52, ( #57 ) ) ;
#102 = PERSON_AND_ORGANIZATION_ROLE ( 'creator' ) ;
#103 = APPLICATION_PROTOCOL_DEFINITION ( 'international standard', 'config_control_design', 1994, #107 ) ;
#104 = APPROVAL_DATE_TIME ( #155, #24 ) ;
#105 = OBJECT_ROLE ('mandatory',$ ) ;
#106 = PROPERTY_DEFINITION ('document property','', #14 ) ;
#107 = APPLICATION_CONTEXT ( 'configuration controlled 3d designs of mechanical parts and assemblies' ) ;
#108 = AXIS2_PLACEMENT_3D ( 'NONE', #174, #146, #163 ) ;
#109 = SECURITY_CLASSIFICATION ( '', '', #173 ) ;
#110 = CC_DESIGN_SECURITY_CLASSIFICATION ( #109, ( #74 ) ) ;
#111 = CALENDAR_DATE ( 2026, 22, 6 ) ;
#112 = APPLICATION_PROTOCOL_DEFINITION ( 'international standard', 'config_control_design', 1994, #142 ) ;
#113 = CC_DESIGN_PERSON_AND_ORGANIZATION_ASSIGNMENT ( #180, #62, ( #90 ) ) ;
#114 = LOCAL_TIME ( 18, 49, 54.00000000000000000, #123 ) ;
#115 = PERSON_AND_ORGANIZATION ( #18446744073709551615, #18446744073709551615 ) ;
#116 = DOCUMENT_TYPE ( 'geometry' ) ;
#117 = PERSON_AND_ORGANIZATION ( #18446744073709551615, #18446744073709551615 ) ;
#118 = SHAPE_REPRESENTATION ( '6325040992.step', ( #144, #108 ), #5 ) ;
#119 = APPROVAL_DATE_TIME ( #25, #26 ) ;
#120 = PRODUCT_DEFINITION ( 'General', '', #74, #97 ) ;
#121 = COORDINATED_UNIVERSAL_TIME_OFFSET ( 10, 0, .AHEAD. ) ;
#122 = PRODUCT_DEFINITION_FORMATION_WITH_SPECIFIED_SOURCE ( 'Symmetric', '', #90, .NOT_KNOWN. ) ;
#123 = COORDINATED_UNIVERSAL_TIME_OFFSET ( 10, 0, .AHEAD. ) ;
#124 = COORDINATED_UNIVERSAL_TIME_OFFSET ( 10, 0, .AHEAD. ) ;
#125 = LOCAL_TIME ( 18, 49, 54.00000000000000000, #124 ) ;
#126 = APPROVAL_PERSON_ORGANIZATION ( #115, #129, #13 ) ;
#127 = PRODUCT_DEFINITION_SHAPE ( 'NONE', 'NONE',  #215 ) ;
#128 = ITEM_DEFINED_TRANSFORMATION ( 'NONE', 'NONE', #108,  #63 ) ;
#129 = APPROVAL ( #61, 'Coincident' ) ;
#130 = COORDINATED_UNIVERSAL_TIME_OFFSET ( 10, 0, .AHEAD. ) ;
#131 = SHAPE_REPRESENTATION ( 'Extruded-6.step', ( #63 ), #73 ) ;
#132 = DIRECTION ( 'NONE',  ( 1.000000000000000000, 0.000000000000000000, 0.000000000000000000 ) ) ;
#133 = APPROVAL_DATE_TIME ( #39, #95 ) ;
#134 = COORDINATED_UNIVERSAL_TIME_OFFSET ( 10, 0, .AHEAD. ) ;
#135 = APPROVAL_STATUS ( 'not_yet_approved' ) ;
#136 = MECHANICAL_CONTEXT ( 'NONE', #154, 'mechanical' ) ;
#137 = CC_DESIGN_DATE_AND_TIME_ASSIGNMENT ( #153, #50, ( #181 ) ) ;
#138 = APPROVAL_PERSON_ORGANIZATION ( #33, #157, #82 ) ;
#139 = CALENDAR_DATE ( 2026, 22, 6 ) ;
#140 = PROPERTY_DEFINITION ('external definition','', #14 ) ;
#141 = ORGANIZATION ( 'NAUO-ORG79', 'UNSPECIFIED', 'UNSPECIFIED' ) ;
#142 = APPLICATION_CONTEXT ( 'configuration controlled 3d designs of mechanical parts and assemblies' ) ;
#143 = CC_DESIGN_DATE_AND_TIME_ASSIGNMENT ( #3, #71, ( #83 ) ) ;
#144 = AXIS2_PLACEMENT_3D ( 'NONE', #175, #148, #96 ) ;
#145 = CONTEXT_DEPENDENT_SHAPE_REPRESENTATION ( #195, #127 ) ;
#146 = DIRECTION ( 'NONE',  ( 4.890937612370273194E-29, -3.155443620884047222E-30, 0.9999999999999997780 ) ) ;
#147 = SECURITY_CLASSIFICATION ( '', '', #209 ) ;
#148 = DIRECTION ( 'NONE',  ( 0.000000000000000000, 0.000000000000000000, 1.000000000000000000 ) ) ;
#149 = IDENTIFICATION_ROLE ( 'external document id and location', $) ;
#150 = CALENDAR_DATE ( 2026, 22, 6 ) ;
#151 = CC_DESIGN_APPROVAL ( #24, ( #83 ) ) ;
#152 = APPROVAL_ROLE ( '' ) ;
#153 = DATE_AND_TIME ( #86, #67 ) ;
#154 = APPLICATION_CONTEXT ( 'configuration controlled 3d designs of mechanical parts and assemblies' ) ;
#155 = DATE_AND_TIME ( #23, #125 ) ;
#156 = PERSON_AND_ORGANIZATION ( #18446744073709551615, #18446744073709551615 ) ;
#157 = APPROVAL ( #88, 'Coincident' ) ;
#158 = LOCAL_TIME ( 18, 49, 54.00000000000000000, #193 ) ;
#159 = DATE_AND_TIME ( #162, #158 ) ;
#160 = CC_DESIGN_PERSON_AND_ORGANIZATION_ASSIGNMENT ( #192, #44, ( #109 ) ) ;
#161 = APPROVAL_DATE_TIME ( #56, #129 ) ;
#162 = CALENDAR_DATE ( 2026, 22, 6 ) ;
#163 = DIRECTION ( 'NONE',  ( 1.000000000000000222, -1.092455418989176591E-28, 4.890937612370273194E-29 ) ) ;
#164 = DIRECTION ( 'NONE',  ( 0.000000000000000000, 0.000000000000000000, 1.000000000000000000 ) ) ;
#165 = LOCAL_TIME ( 18, 49, 54.00000000000000000, #76 ) ;
#166 = APPROVAL_ROLE ( '' ) ;
#167 = APPLICATION_PROTOCOL_DEFINITION ( 'international standard', 'config_control_design', 1994, #154 ) ;
#168 = PERSON_AND_ORGANIZATION ( #18446744073709551615, #18446744073709551615 ) ;
#169 = DATE_AND_TIME ( #38, #47 ) ;
#170 = APPROVAL_ROLE ( '' ) ;
#171 = CC_DESIGN_DATE_AND_TIME_ASSIGNMENT ( #190, #80, ( #147 ) ) ;
#172 = CC_DESIGN_PERSON_AND_ORGANIZATION_ASSIGNMENT ( #198, #99, ( #120 ) ) ;
#173 = SECURITY_CLASSIFICATION_LEVEL ( 'unclassified' ) ;
#174 = CARTESIAN_POINT ( 'NONE',  ( 0.000000000000000000, 0.000000000000000000, 0.000000000000000000 ) ) ;
#175 = CARTESIAN_POINT ( 'NONE',  ( 0.000000000000000000, 0.000000000000000000, 0.000000000000000000 ) ) ;
#176 = CC_DESIGN_APPROVAL ( #213, ( #147 ) ) ;
#177 = PROPERTY_DEFINITION_REPRESENTATION ( #140, #131 ) ;
#178 = UNCERTAINTY_MEASURE_WITH_UNIT (LENGTH_MEASURE( 1.000000000000000082E-05 ), #12, 'distance_accuracy_value', 'NONE');
#179 = CARTESIAN_POINT ( 'NONE',  ( 0.000000000000000000, 0.000000000000000000, 0.000000000000000000 ) ) ;
#180 = PERSON_AND_ORGANIZATION ( #18446744073709551615, #18446744073709551615 ) ;
#181 = PRODUCT_DEFINITION ( 'General', '', #122, #17 ) ;
#182 = APPROVAL_STATUS ( 'not_yet_approved' ) ;
#183 = COORDINATED_UNIVERSAL_TIME_OFFSET ( 10, 0, .AHEAD. ) ;
#184 = PERSON_AND_ORGANIZATION_ROLE ( 'design_supplier' ) ;
#185 = CALENDAR_DATE ( 2026, 22, 6 ) ;
#186 = PERSON_AND_ORGANIZATION ( #18446744073709551615, #18446744073709551615 ) ;
#187 = LOCAL_TIME ( 18, 49, 54.00000000000000000, #202 ) ;
#188 = PRODUCT_DEFINITION_SHAPE ( 'NONE', 'NONE',  #181 ) ;
#189 = PERSON_AND_ORGANIZATION ( #18446744073709551615, #18446744073709551615 ) ;
#190 = DATE_AND_TIME ( #111, #165 ) ;
#191 = COORDINATED_UNIVERSAL_TIME_OFFSET ( 10, 0, .AHEAD. ) ;
#192 = PERSON_AND_ORGANIZATION ( #18446744073709551615, #18446744073709551615 ) ;
#193 = COORDINATED_UNIVERSAL_TIME_OFFSET ( 10, 0, .AHEAD. ) ;
#194 = APPLICATION_PROTOCOL_DEFINITION ( 'international standard', 'config_control_design', 1994, #7 ) ;
#195 =( REPRESENTATION_RELATIONSHIP ('NONE','NONE', #118, #131 ) REPRESENTATION_RELATIONSHIP_WITH_TRANSFORMATION ( #128 )SHAPE_REPRESENTATION_RELATIONSHIP( ) );
#196 = PRODUCT_RELATED_PRODUCT_CATEGORY ( 'detail', '', ( #90 ) ) ;
#197 = MECHANICAL_CONTEXT ( 'NONE', #142, 'mechanical' ) ;
#198 = PERSON_AND_ORGANIZATION ( #18446744073709551615, #18446744073709551615 ) ;
#199 = CC_DESIGN_APPROVAL ( #157, ( #181 ) ) ;
#200 = CC_DESIGN_SECURITY_CLASSIFICATION ( #147, ( #215 ) ) ;
#201 = PERSON_AND_ORGANIZATION ( #18446744073709551615, #18446744073709551615 ) ;
#202 = COORDINATED_UNIVERSAL_TIME_OFFSET ( 10, 0, .AHEAD. ) ;
#203 = APPROVAL ( #2, 'Coincident' ) ;
#204 = APPROVAL_DATE_TIME ( #169, #157 ) ;
#205 = CC_DESIGN_APPROVAL ( #95, ( #122 ) ) ;
#206 = PERSON_AND_ORGANIZATION ( #18446744073709551615, #18446744073709551615 ) ;
#207 = CC_DESIGN_APPROVAL ( #26, ( #120 ) ) ;
#208 = DATE_TIME_ROLE ( 'classification_date' ) ;
#209 = SECURITY_CLASSIFICATION_LEVEL ( 'unclassified' ) ;
#210 = CALENDAR_DATE ( 2026, 22, 6 ) ;
#211 = PERSON ( 'NAUO-PER79', 'UNSPECIFIED', 'UNSPECIFIED', ('UNSPECIFIED'), ('UNSPECIFIED'), ('UNSPECIFIED') ) ;
#212 =( NAMED_UNIT ( * ) SI_UNIT ( $, .STERADIAN. ) SOLID_ANGLE_UNIT ( ) );
#213 = APPROVAL ( #9, 'UNKNOWN' ) ;
#214 = LOCAL_TIME ( 18, 49, 54.00000000000000000, #134 ) ;
#215 = NEXT_ASSEMBLY_USAGE_OCCURRENCE ( 'NAUO79', ' ', ' ', #181, #120, $ ) ;
ENDSEC;
END-ISO-10303-21;
