ISO-10303-21;
HEADER;
FILE_DESCRIPTION (( 'STEP AP203' ),
    '1' );
FILE_NAME ('6325040192.step.STEP',
    '2026-06-22T08:49:54',
    ( 'localuser' ),
    ( '' ),
    'SwSTEP 2.0',
    'SolidWorks 2025',
    '' );
FILE_SCHEMA (( 'CONFIG_CONTROL_DESIGN' ));
ENDSEC;

DATA;
#1 = CC_DESIGN_PERSON_AND_ORGANIZATION_ASSIGNMENT ( #21, #101, ( #19 ) ) ;
#2 = SECURITY_CLASSIFICATION_LEVEL ( 'unclassified' ) ;
#3 = CALENDAR_DATE ( 2026, 22, 6 ) ;
#4 = SECURITY_CLASSIFICATION_LEVEL ( 'unclassified' ) ;
#5 = APPROVAL_ROLE ( '' ) ;
#6 = CC_DESIGN_PERSON_AND_ORGANIZATION_ASSIGNMENT ( #95, #51, ( #102 ) ) ;
#7 = PERSON_AND_ORGANIZATION ( #18446744073709551615, #18446744073709551615 ) ;
#8 = ITEM_DEFINED_TRANSFORMATION ( 'NONE', 'NONE', #33,  #26 ) ;
#9 = LOCAL_TIME ( 18, 49, 54.00000000000000000, #111 ) ;
#10 = SECURITY_CLASSIFICATION ( '', '', #4 ) ;
#11 = PRODUCT_RELATED_PRODUCT_CATEGORY ( 'detail', '', ( #103 ) ) ;
#12 = CC_DESIGN_PERSON_AND_ORGANIZATION_ASSIGNMENT ( #50, #162, ( #102 ) ) ;
#13 = CC_DESIGN_APPROVAL ( #174, ( #188 ) ) ;
#14 = DATE_AND_TIME ( #147, #177 ) ;
#15 = PERSON_AND_ORGANIZATION_ROLE ( 'design_owner' ) ;
#16 = COORDINATED_UNIVERSAL_TIME_OFFSET ( 10, 0, .AHEAD. ) ;
#17 = LOCAL_TIME ( 18, 49, 54.00000000000000000, #78 ) ;
#18 = PERSON_AND_ORGANIZATION ( #18446744073709551615, #18446744073709551615 ) ;
#19 = PRODUCT_DEFINITION_FORMATION_WITH_SPECIFIED_SOURCE ( 'Symmetric', '', #103, .NOT_KNOWN. ) ;
#20 = APPROVAL_ROLE ( '' ) ;
#21 = PERSON_AND_ORGANIZATION ( #18446744073709551615, #18446744073709551615 ) ;
#22 = DATE_AND_TIME ( #35, #106 ) ;
#23 = APPROVAL_ROLE ( '' ) ;
#24 = PERSON_AND_ORGANIZATION_ROLE ( 'creator' ) ;
#25 = COORDINATED_UNIVERSAL_TIME_OFFSET ( 10, 0, .AHEAD. ) ;
#26 = AXIS2_PLACEMENT_3D ( 'NONE', #49, #202, #168 ) ;
#27 = PRODUCT_DEFINITION ( 'General', '', #19, #193 ) ;
#28 = PRODUCT_DEFINITION_SHAPE ( 'NONE', 'NONE',  #27 ) ;
#29 = CALENDAR_DATE ( 2026, 22, 6 ) ;
#30 = CARTESIAN_POINT ( 'NONE',  ( 0.000000000000000000, 0.000000000000000000, 0.000000000000000000 ) ) ;
#31 = DATE_AND_TIME ( #45, #86 ) ;
#32 = APPLICATION_PROTOCOL_DEFINITION ( 'international standard', 'config_control_design', 1994, #122 ) ;
#33 = AXIS2_PLACEMENT_3D ( 'NONE', #150, #131, #120 ) ;
#34 = CALENDAR_DATE ( 2026, 22, 6 ) ;
#35 = CALENDAR_DATE ( 2026, 22, 6 ) ;
#36 = CC_DESIGN_PERSON_AND_ORGANIZATION_ASSIGNMENT ( #88, #161, ( #206 ) ) ;
#37 = CALENDAR_DATE ( 2026, 22, 6 ) ;
#38 = CONTEXT_DEPENDENT_SHAPE_REPRESENTATION ( #72, #85 ) ;
#39 = CC_DESIGN_SECURITY_CLASSIFICATION ( #10, ( #215 ) ) ;
#40 = PERSON_AND_ORGANIZATION ( #18446744073709551615, #18446744073709551615 ) ;
#41 = CC_DESIGN_PERSON_AND_ORGANIZATION_ASSIGNMENT ( #170, #24, ( #27 ) ) ;
#42 = APPROVAL_DATE_TIME ( #185, #84 ) ;
#43 = LOCAL_TIME ( 18, 49, 54.00000000000000000, #82 ) ;
#44 = APPROVAL_DATE_TIME ( #192, #211 ) ;
#45 = CALENDAR_DATE ( 2026, 22, 6 ) ;
#46 = UNCERTAINTY_MEASURE_WITH_UNIT (LENGTH_MEASURE( 1.000000000000000082E-05 ), #153, 'distance_accuracy_value', 'NONE');
#47 =( NAMED_UNIT ( * ) PLANE_ANGLE_UNIT ( ) SI_UNIT ( $, .RADIAN. ) );
#48 = DATE_AND_TIME ( #34, #60 ) ;
#49 = CARTESIAN_POINT ( 'NONE',  ( 0.000000000000000000, 0.000000000000000000, 0.000000000000000000 ) ) ;
#50 = PERSON_AND_ORGANIZATION ( #18446744073709551615, #18446744073709551615 ) ;
#51 = PERSON_AND_ORGANIZATION_ROLE ( 'creator' ) ;
#52 = PERSON_AND_ORGANIZATION ( #18446744073709551615, #18446744073709551615 ) ;
#53 = APPROVAL ( #180, 'Coincident' ) ;
#54 = DATE_AND_TIME ( #100, #167 ) ;
#55 = LOCAL_TIME ( 18, 49, 54.00000000000000000, #190 ) ;
#56 = PRODUCT ( '6325040192.step', '6325040192.step', '', ( #143 ) ) ;
#57 =( GEOMETRIC_REPRESENTATION_CONTEXT ( 3 ) GLOBAL_UNCERTAINTY_ASSIGNED_CONTEXT ( ( #46 ) ) GLOBAL_UNIT_ASSIGNED_CONTEXT ( ( #153, #207, #208 ) ) REPRESENTATION_CONTEXT ( 'NONE', 'WORKASPACE' ) );
#58 = APPROVAL_DATE_TIME ( #14, #157 ) ;
#59 = COORDINATED_UNIVERSAL_TIME_OFFSET ( 10, 0, .AHEAD. ) ;
#60 = LOCAL_TIME ( 18, 49, 54.00000000000000000, #16 ) ;
#61 = DIRECTION ( 'NONE',  ( 0.000000000000000000, 0.000000000000000000, 1.000000000000000000 ) ) ;
#62 = PERSON_AND_ORGANIZATION ( #18446744073709551615, #18446744073709551615 ) ;
#63 = CALENDAR_DATE ( 2026, 22, 6 ) ;
#64 = LOCAL_TIME ( 18, 49, 54.00000000000000000, #25 ) ;
#65 = PERSON_AND_ORGANIZATION ( #18446744073709551615, #18446744073709551615 ) ;
#66 = DATE_AND_TIME ( #37, #64 ) ;
#67 = CC_DESIGN_DATE_AND_TIME_ASSIGNMENT ( #160, #92, ( #110 ) ) ;
#68 = PROPERTY_DEFINITION_REPRESENTATION ( #191, #121 ) ;
#69 = LOCAL_TIME ( 18, 49, 54.00000000000000000, #176 ) ;
#70 = PRODUCT_RELATED_PRODUCT_CATEGORY ( 'detail', '', ( #56 ) ) ;
#71 = CC_DESIGN_PERSON_AND_ORGANIZATION_ASSIGNMENT ( #109, #15, ( #56 ) ) ;
#72 =( REPRESENTATION_RELATIONSHIP ('NONE','NONE', #81, #121 ) REPRESENTATION_RELATIONSHIP_WITH_TRANSFORMATION ( #8 )SHAPE_REPRESENTATION_RELATIONSHIP( ) );
#73 = CALENDAR_DATE ( 2026, 22, 6 ) ;
#74 = PERSON_AND_ORGANIZATION ( #18446744073709551615, #18446744073709551615 ) ;
#75 = CC_DESIGN_SECURITY_CLASSIFICATION ( #206, ( #102 ) ) ;
#76 = PERSON_AND_ORGANIZATION_ROLE ( 'design_owner' ) ;
#77 = APPLICATION_CONTEXT ( 'configuration controlled 3d designs of mechanical parts and assemblies' ) ;
#78 = COORDINATED_UNIVERSAL_TIME_OFFSET ( 10, 0, .AHEAD. ) ;
#79 = PERSON_AND_ORGANIZATION_ROLE ( 'classification_officer' ) ;
#80 = APPROVAL_PERSON_ORGANIZATION ( #128, #53, #145 ) ;
#81 = SHAPE_REPRESENTATION ( '6325040192.step', ( #89, #33 ), #57 ) ;
#82 = COORDINATED_UNIVERSAL_TIME_OFFSET ( 10, 0, .AHEAD. ) ;
#83 = SECURITY_CLASSIFICATION_LEVEL ( 'unclassified' ) ;
#84 = APPROVAL ( #140, 'Coincident' ) ;
#85 = PRODUCT_DEFINITION_SHAPE ( 'NONE', 'NONE',  #215 ) ;
#86 = LOCAL_TIME ( 18, 49, 54.00000000000000000, #59 ) ;
#87 = CC_DESIGN_APPROVAL ( #98, ( #10 ) ) ;
#88 = PERSON_AND_ORGANIZATION ( #18446744073709551615, #18446744073709551615 ) ;
#89 = AXIS2_PLACEMENT_3D ( 'NONE', #30, #61, #181 ) ;
#90 = LOCAL_TIME ( 18, 49, 54.00000000000000000, #201 ) ;
#91 = CC_DESIGN_PERSON_AND_ORGANIZATION_ASSIGNMENT ( #7, #171, ( #188 ) ) ;
#92 = DATE_TIME_ROLE ( 'creation_date' ) ;
#93 = APPROVAL_DATE_TIME ( #144, #53 ) ;
#94 = MECHANICAL_CONTEXT ( 'NONE', #122, 'mechanical' ) ;
#95 = PERSON_AND_ORGANIZATION ( #18446744073709551615, #18446744073709551615 ) ;
#96 = APPROVAL_DATE_TIME ( #22, #174 ) ;
#97 = COORDINATED_UNIVERSAL_TIME_OFFSET ( 10, 0, .AHEAD. ) ;
#98 = APPROVAL ( #203, 'UNKNOWN' ) ;
#99 = PROPERTY_DEFINITION_REPRESENTATION ( #123, #121 ) ;
#100 = CALENDAR_DATE ( 2026, 22, 6 ) ;
#101 = PERSON_AND_ORGANIZATION_ROLE ( 'design_supplier' ) ;
#102 = PRODUCT_DEFINITION_FORMATION_WITH_SPECIFIED_SOURCE ( 'Symmetric', '', #56, .NOT_KNOWN. ) ;
#103 = PRODUCT ( 'Extruded-9.step', 'Extruded-9.step', '', ( #94 ) ) ;
#104 = CC_DESIGN_PERSON_AND_ORGANIZATION_ASSIGNMENT ( #74, #146, ( #110 ) ) ;
#105 = APPROVAL_PERSON_ORGANIZATION ( #62, #211, #20 ) ;
#106 = LOCAL_TIME ( 18, 49, 54.00000000000000000, #97 ) ;
#107 = UNCERTAINTY_MEASURE_WITH_UNIT (LENGTH_MEASURE( 1.000000000000000082E-05 ), #200, 'distance_accuracy_value', 'NONE');
#108 =( NAMED_UNIT ( * ) SI_UNIT ( $, .STERADIAN. ) SOLID_ANGLE_UNIT ( ) );
#109 = PERSON_AND_ORGANIZATION ( #18446744073709551615, #18446744073709551615 ) ;
#110 = PRODUCT_DEFINITION ( 'General', '', #102, #134 ) ;
#111 = COORDINATED_UNIVERSAL_TIME_OFFSET ( 10, 0, .AHEAD. ) ;
#112 = PERSON_AND_ORGANIZATION ( #18446744073709551615, #18446744073709551615 ) ;
#113 = SHAPE_DEFINITION_REPRESENTATION ( #141, #81 ) ;
#114 = APPLICATION_PROTOCOL_DEFINITION ( 'international standard', 'config_control_design', 1994, #129 ) ;
#115 = APPLIED_DOCUMENT_REFERENCE ( #196,'',( #27) ) ;
#116 = DATE_AND_TIME ( #136, #43 ) ;
#117 = CC_DESIGN_DATE_AND_TIME_ASSIGNMENT ( #66, #137, ( #188 ) ) ;
#118 = DATE_AND_TIME ( #132, #55 ) ;
#119 =( GEOMETRIC_REPRESENTATION_CONTEXT ( 3 ) GLOBAL_UNCERTAINTY_ASSIGNED_CONTEXT ( ( #107 ) ) GLOBAL_UNIT_ASSIGNED_CONTEXT ( ( #200, #47, #108 ) ) REPRESENTATION_CONTEXT ( 'NONE', 'WORKASPACE' ) );
#120 = DIRECTION ( 'NONE',  ( 1.000000000000000222, -1.092455418989176591E-28, 4.890937612370273194E-29 ) ) ;
#121 = SHAPE_REPRESENTATION ( 'Extruded-9.step', ( #26 ), #119 ) ;
#122 = APPLICATION_CONTEXT ( 'configuration controlled 3d designs of mechanical parts and assemblies' ) ;
#123 = PROPERTY_DEFINITION ('document property','', #196 ) ;
#124 = APPROVAL_PERSON_ORGANIZATION ( #166, #98, #205 ) ;
#125 = APPLICATION_CONTEXT ( 'configuration controlled 3d designs of mechanical parts and assemblies' ) ;
#126 = APPROVAL_ROLE ( '' ) ;
#127 = APPROVAL_ROLE ( '' ) ;
#128 = PERSON_AND_ORGANIZATION ( #18446744073709551615, #18446744073709551615 ) ;
#129 = APPLICATION_CONTEXT ( 'configuration controlled 3d designs of mechanical parts and assemblies' ) ;
#130 = PERSON_AND_ORGANIZATION ( #18446744073709551615, #18446744073709551615 ) ;
#131 = DIRECTION ( 'NONE',  ( 4.890937612370273194E-29, -3.155443620884047222E-30, 0.9999999999999997780 ) ) ;
#132 = CALENDAR_DATE ( 2026, 22, 6 ) ;
#133 = APPROVAL_PERSON_ORGANIZATION ( #52, #84, #5 ) ;
#134 = DESIGN_CONTEXT ( 'detailed design', #77, 'design' ) ;
#135 = CC_DESIGN_PERSON_AND_ORGANIZATION_ASSIGNMENT ( #65, #197, ( #19 ) ) ;
#136 = CALENDAR_DATE ( 2026, 22, 6 ) ;
#137 = DATE_TIME_ROLE ( 'classification_date' ) ;
#138 = CC_DESIGN_PERSON_AND_ORGANIZATION_ASSIGNMENT ( #166, #79, ( #10 ) ) ;
#139 = CC_DESIGN_APPROVAL ( #211, ( #27 ) ) ;
#140 = APPROVAL_STATUS ( 'not_yet_approved' ) ;
#141 = PRODUCT_DEFINITION_SHAPE ( 'NONE', 'NONE',  #110 ) ;
#142 = APPROVAL_PERSON_ORGANIZATION ( #40, #174, #23 ) ;
#143 = MECHANICAL_CONTEXT ( 'NONE', #125, 'mechanical' ) ;
#144 = DATE_AND_TIME ( #73, #69 ) ;
#145 = APPROVAL_ROLE ( '' ) ;
#146 = PERSON_AND_ORGANIZATION_ROLE ( 'creator' ) ;
#147 = CALENDAR_DATE ( 2026, 22, 6 ) ;
#148 = APPROVAL ( #212, 'Coincident' ) ;
#149 = ROLE_ASSOCIATION ( #213, #115 ) ;
#150 = CARTESIAN_POINT ( 'NONE',  ( 0.000000000000000000, 0.000000000000000000, 0.000000000000000000 ) ) ;
#151 = APPROVAL_PERSON_ORGANIZATION ( #112, #157, #126 ) ;
#152 = APPROVAL_DATE_TIME ( #118, #98 ) ;
#153 =( LENGTH_UNIT ( ) NAMED_UNIT ( * ) SI_UNIT ( .MILLI., .METRE. ) );
#154 = EXTERNAL_SOURCE (IDENTIFIER('') ) ;
#155 = CC_DESIGN_APPROVAL ( #53, ( #102 ) ) ;
#156 = COORDINATED_UNIVERSAL_TIME_OFFSET ( 10, 0, .AHEAD. ) ;
#157 = APPROVAL ( #175, 'Coincident' ) ;
#158 = DOCUMENT_TYPE ( 'geometry' ) ;
#159 = DATE_TIME_ROLE ( 'classification_date' ) ;
#160 = DATE_AND_TIME ( #29, #9 ) ;
#161 = PERSON_AND_ORGANIZATION_ROLE ( 'classification_officer' ) ;
#162 = PERSON_AND_ORGANIZATION_ROLE ( 'design_supplier' ) ;
#163 = CC_DESIGN_SECURITY_CLASSIFICATION ( #188, ( #19 ) ) ;
#164 = APPLICATION_PROTOCOL_DEFINITION ( 'international standard', 'config_control_design', 1994, #125 ) ;
#165 = DATE_TIME_ROLE ( 'creation_date' ) ;
#166 = PERSON_AND_ORGANIZATION ( #209, #178 ) ;
#167 = LOCAL_TIME ( 18, 49, 54.00000000000000000, #156 ) ;
#168 = DIRECTION ( 'NONE',  ( 1.000000000000000000, 0.000000000000000000, 0.000000000000000000 ) ) ;
#169 = SHAPE_DEFINITION_REPRESENTATION ( #28, #121 ) ;
#170 = PERSON_AND_ORGANIZATION ( #18446744073709551615, #18446744073709551615 ) ;
#171 = PERSON_AND_ORGANIZATION_ROLE ( 'classification_officer' ) ;
#172 = CC_DESIGN_DATE_AND_TIME_ASSIGNMENT ( #116, #165, ( #27 ) ) ;
#173 = APPLIED_EXTERNAL_IDENTIFICATION_ASSIGNMENT ( 'Extruded-9.step.STEP' , #204, #154,( #196) ) ;
#174 = APPROVAL ( #184, 'Coincident' ) ;
#175 = APPROVAL_STATUS ( 'not_yet_approved' ) ;
#176 = COORDINATED_UNIVERSAL_TIME_OFFSET ( 10, 0, .AHEAD. ) ;
#177 = LOCAL_TIME ( 18, 49, 54.00000000000000000, #194 ) ;
#178 = ORGANIZATION ( 'NAUO-ORG68', 'UNSPECIFIED', 'UNSPECIFIED' ) ;
#179 = CC_DESIGN_DATE_AND_TIME_ASSIGNMENT ( #48, #159, ( #206 ) ) ;
#180 = APPROVAL_STATUS ( 'not_yet_approved' ) ;
#181 = DIRECTION ( 'NONE',  ( 1.000000000000000000, 0.000000000000000000, 0.000000000000000000 ) ) ;
#182 = APPROVAL_STATUS ( 'not_yet_approved' ) ;
#183 = CC_DESIGN_PERSON_AND_ORGANIZATION_ASSIGNMENT ( #18, #76, ( #103 ) ) ;
#184 = APPROVAL_STATUS ( 'not_yet_approved' ) ;
#185 = DATE_AND_TIME ( #63, #90 ) ;
#186 = DATE_TIME_ROLE ( 'classification_date' ) ;
#187 = APPROVAL_PERSON_ORGANIZATION ( #130, #148, #127 ) ;
#188 = SECURITY_CLASSIFICATION ( '', '', #83 ) ;
#189 = CC_DESIGN_DATE_AND_TIME_ASSIGNMENT ( #54, #186, ( #10 ) ) ;
#190 = COORDINATED_UNIVERSAL_TIME_OFFSET ( 10, 0, .AHEAD. ) ;
#191 = PROPERTY_DEFINITION ('external definition','', #196 ) ;
#192 = DATE_AND_TIME ( #3, #17 ) ;
#193 = DESIGN_CONTEXT ( 'detailed design', #129, 'design' ) ;
#194 = COORDINATED_UNIVERSAL_TIME_OFFSET ( 10, 0, .AHEAD. ) ;
#195 = APPROVAL_DATE_TIME ( #31, #148 ) ;
#196 = DOCUMENT_FILE ( 'Extruded-9.step.STEP' , '', '', #158, '' ,$ ) ;
#197 = PERSON_AND_ORGANIZATION_ROLE ( 'creator' ) ;
#198 = CC_DESIGN_APPROVAL ( #157, ( #110 ) ) ;
#199 = CC_DESIGN_APPROVAL ( #84, ( #19 ) ) ;
#200 =( LENGTH_UNIT ( ) NAMED_UNIT ( * ) SI_UNIT ( .MILLI., .METRE. ) );
#201 = COORDINATED_UNIVERSAL_TIME_OFFSET ( 10, 0, .AHEAD. ) ;
#202 = DIRECTION ( 'NONE',  ( 0.000000000000000000, 0.000000000000000000, 1.000000000000000000 ) ) ;
#203 = APPROVAL_STATUS ( 'not_yet_approved' ) ;
#204 = IDENTIFICATION_ROLE ( 'external document id and location', $) ;
#205 = APPROVAL_ROLE ( '' ) ;
#206 = SECURITY_CLASSIFICATION ( '', '', #2 ) ;
#207 =( NAMED_UNIT ( * ) PLANE_ANGLE_UNIT ( ) SI_UNIT ( $, .RADIAN. ) );
#208 =( NAMED_UNIT ( * ) SI_UNIT ( $, .STERADIAN. ) SOLID_ANGLE_UNIT ( ) );
#209 = PERSON ( 'NAUO-PER68', 'UNSPECIFIED', 'UNSPECIFIED', ('UNSPECIFIED'), ('UNSPECIFIED'), ('UNSPECIFIED') ) ;
#210 = APPLICATION_PROTOCOL_DEFINITION ( 'international standard', 'config_control_design', 1994, #77 ) ;
#211 = APPROVAL ( #182, 'Coincident' ) ;
#212 = APPROVAL_STATUS ( 'not_yet_approved' ) ;
#213 = OBJECT_ROLE ('mandatory',$ ) ;
#214 = CC_DESIGN_APPROVAL ( #148, ( #206 ) ) ;
#215 = NEXT_ASSEMBLY_USAGE_OCCURRENCE ( 'NAUO68', ' ', ' ', #110, #27, $ ) ;
ENDSEC;
END-ISO-10303-21;
