ISO-10303-21;
HEADER;
FILE_DESCRIPTION (( 'STEP AP203' ),
    '1' );
FILE_NAME ('6461079856.step.STEP',
    '2026-06-22T08:49:53',
    ( 'localuser' ),
    ( '' ),
    'SwSTEP 2.0',
    'SolidWorks 2025',
    '' );
FILE_SCHEMA (( 'CONFIG_CONTROL_DESIGN' ));
ENDSEC;

DATA;
#1 = PRODUCT_RELATED_PRODUCT_CATEGORY ( 'detail', '', ( #131 ) ) ;
#2 = COORDINATED_UNIVERSAL_TIME_OFFSET ( 10, 0, .AHEAD. ) ;
#3 = DIRECTION ( 'NONE',  ( 4.890937612370273194E-29, -3.155443620884047222E-30, 0.9999999999999997780 ) ) ;
#4 = APPLICATION_CONTEXT ( 'configuration controlled 3d designs of mechanical parts and assemblies' ) ;
#5 = COORDINATED_UNIVERSAL_TIME_OFFSET ( 10, 0, .AHEAD. ) ;
#6 = CC_DESIGN_SECURITY_CLASSIFICATION ( #86, ( #142 ) ) ;
#7 = CC_DESIGN_PERSON_AND_ORGANIZATION_ASSIGNMENT ( #164, #11, ( #86 ) ) ;
#8 = APPROVAL_ROLE ( '' ) ;
#9 =( REPRESENTATION_RELATIONSHIP ('NONE','NONE', #167, #54 ) REPRESENTATION_RELATIONSHIP_WITH_TRANSFORMATION ( #188 )SHAPE_REPRESENTATION_RELATIONSHIP( ) );
#10 = COORDINATED_UNIVERSAL_TIME_OFFSET ( 10, 0, .AHEAD. ) ;
#11 = PERSON_AND_ORGANIZATION_ROLE ( 'classification_officer' ) ;
#12 = DATE_TIME_ROLE ( 'creation_date' ) ;
#13 = APPLICATION_CONTEXT ( 'configuration controlled 3d designs of mechanical parts and assemblies' ) ;
#14 = CC_DESIGN_PERSON_AND_ORGANIZATION_ASSIGNMENT ( #85, #47, ( #109 ) ) ;
#15 = APPROVAL_DATE_TIME ( #179, #162 ) ;
#16 = APPROVAL_DATE_TIME ( #124, #159 ) ;
#17 = LOCAL_TIME ( 18, 49, 53.00000000000000000, #121 ) ;
#18 = DOCUMENT_FILE ( 'Extruded-5.step.STEP' , '', '', #102, '' ,$ ) ;
#19 = DIRECTION ( 'NONE',  ( 0.000000000000000000, 0.000000000000000000, 1.000000000000000000 ) ) ;
#20 = OBJECT_ROLE ('mandatory',$ ) ;
#21 = CC_DESIGN_PERSON_AND_ORGANIZATION_ASSIGNMENT ( #114, #151, ( #142 ) ) ;
#22 = APPROVAL_PERSON_ORGANIZATION ( #176, #34, #39 ) ;
#23 = CARTESIAN_POINT ( 'NONE',  ( 0.000000000000000000, 0.000000000000000000, 0.000000000000000000 ) ) ;
#24 = CC_DESIGN_DATE_AND_TIME_ASSIGNMENT ( #192, #37, ( #214 ) ) ;
#25 = PROPERTY_DEFINITION ('document property','', #18 ) ;
#26 = PERSON_AND_ORGANIZATION_ROLE ( 'design_owner' ) ;
#27 = APPROVAL_DATE_TIME ( #206, #74 ) ;
#28 = PERSON_AND_ORGANIZATION ( #18446744073709551615, #18446744073709551615 ) ;
#29 = PERSON_AND_ORGANIZATION_ROLE ( 'classification_officer' ) ;
#30 = APPROVAL_ROLE ( '' ) ;
#31 = LOCAL_TIME ( 18, 49, 53.00000000000000000, #132 ) ;
#32 = CALENDAR_DATE ( 2026, 22, 6 ) ;
#33 = CC_DESIGN_DATE_AND_TIME_ASSIGNMENT ( #105, #52, ( #127 ) ) ;
#34 = APPROVAL ( #163, 'Coincident' ) ;
#35 = DIRECTION ( 'NONE',  ( 1.000000000000000000, 0.000000000000000000, 0.000000000000000000 ) ) ;
#36 = APPLIED_EXTERNAL_IDENTIFICATION_ASSIGNMENT ( 'Extruded-5.step.STEP' , #88, #118,( #18) ) ;
#37 = DATE_TIME_ROLE ( 'classification_date' ) ;
#38 = LOCAL_TIME ( 18, 49, 53.00000000000000000, #10 ) ;
#39 = APPROVAL_ROLE ( '' ) ;
#40 = LOCAL_TIME ( 18, 49, 53.00000000000000000, #196 ) ;
#41 = PERSON_AND_ORGANIZATION_ROLE ( 'creator' ) ;
#42 = APPLICATION_CONTEXT ( 'configuration controlled 3d designs of mechanical parts and assemblies' ) ;
#43 = APPROVAL_STATUS ( 'not_yet_approved' ) ;
#44 = DATE_AND_TIME ( #117, #38 ) ;
#45 = CC_DESIGN_APPROVAL ( #162, ( #86 ) ) ;
#46 = CC_DESIGN_APPROVAL ( #159, ( #214 ) ) ;
#47 = PERSON_AND_ORGANIZATION_ROLE ( 'design_owner' ) ;
#48 = DIRECTION ( 'NONE',  ( 1.000000000000000222, -1.092455418989176591E-28, 4.890937612370273194E-29 ) ) ;
#49 = CALENDAR_DATE ( 2026, 22, 6 ) ;
#50 = APPROVAL_ROLE ( '' ) ;
#51 = CC_DESIGN_APPROVAL ( #204, ( #142 ) ) ;
#52 = DATE_TIME_ROLE ( 'classification_date' ) ;
#53 = UNCERTAINTY_MEASURE_WITH_UNIT (LENGTH_MEASURE( 1.000000000000000082E-05 ), #115, 'distance_accuracy_value', 'NONE');
#54 = SHAPE_REPRESENTATION ( 'Extruded-5.step', ( #71 ), #83 ) ;
#55 = CC_DESIGN_PERSON_AND_ORGANIZATION_ASSIGNMENT ( #195, #41, ( #135 ) ) ;
#56 = CALENDAR_DATE ( 2026, 22, 6 ) ;
#57 = PROPERTY_DEFINITION ('external definition','', #18 ) ;
#58 = PERSON_AND_ORGANIZATION_ROLE ( 'creator' ) ;
#59 = DATE_TIME_ROLE ( 'creation_date' ) ;
#60 = CC_DESIGN_PERSON_AND_ORGANIZATION_ASSIGNMENT ( #78, #58, ( #142 ) ) ;
#61 = LOCAL_TIME ( 18, 49, 53.00000000000000000, #148 ) ;
#62 = APPLICATION_PROTOCOL_DEFINITION ( 'international standard', 'config_control_design', 1994, #4 ) ;
#63 = LOCAL_TIME ( 18, 49, 53.00000000000000000, #150 ) ;
#64 = PERSON_AND_ORGANIZATION ( #18446744073709551615, #18446744073709551615 ) ;
#65 = APPLICATION_PROTOCOL_DEFINITION ( 'international standard', 'config_control_design', 1994, #42 ) ;
#66 = APPROVAL_PERSON_ORGANIZATION ( #64, #159, #136 ) ;
#67 = APPROVAL_STATUS ( 'not_yet_approved' ) ;
#68 = ROLE_ASSOCIATION ( #20, #103 ) ;
#69 = APPROVAL ( #152, 'UNKNOWN' ) ;
#70 =( NAMED_UNIT ( * ) SI_UNIT ( $, .STERADIAN. ) SOLID_ANGLE_UNIT ( ) );
#71 = AXIS2_PLACEMENT_3D ( 'NONE', #23, #130, #35 ) ;
#72 = CC_DESIGN_PERSON_AND_ORGANIZATION_ASSIGNMENT ( #28, #96, ( #194 ) ) ;
#73 = LOCAL_TIME ( 18, 49, 53.00000000000000000, #120 ) ;
#74 = APPROVAL ( #43, 'Coincident' ) ;
#75 = CALENDAR_DATE ( 2026, 22, 6 ) ;
#76 = CC_DESIGN_PERSON_AND_ORGANIZATION_ASSIGNMENT ( #113, #95, ( #194 ) ) ;
#77 = PERSON_AND_ORGANIZATION ( #18446744073709551615, #18446744073709551615 ) ;
#78 = PERSON_AND_ORGANIZATION ( #18446744073709551615, #18446744073709551615 ) ;
#79 = PERSON_AND_ORGANIZATION ( #18446744073709551615, #18446744073709551615 ) ;
#80 =( NAMED_UNIT ( * ) SI_UNIT ( $, .STERADIAN. ) SOLID_ANGLE_UNIT ( ) );
#81 =( LENGTH_UNIT ( ) NAMED_UNIT ( * ) SI_UNIT ( .MILLI., .METRE. ) );
#82 = SECURITY_CLASSIFICATION_LEVEL ( 'unclassified' ) ;
#83 =( GEOMETRIC_REPRESENTATION_CONTEXT ( 3 ) GLOBAL_UNCERTAINTY_ASSIGNED_CONTEXT ( ( #101 ) ) GLOBAL_UNIT_ASSIGNED_CONTEXT ( ( #81, #202, #70 ) ) REPRESENTATION_CONTEXT ( 'NONE', 'WORKASPACE' ) );
#84 = APPLICATION_CONTEXT ( 'configuration controlled 3d designs of mechanical parts and assemblies' ) ;
#85 = PERSON_AND_ORGANIZATION ( #18446744073709551615, #18446744073709551615 ) ;
#86 = SECURITY_CLASSIFICATION ( '', '', #82 ) ;
#87 = CC_DESIGN_PERSON_AND_ORGANIZATION_ASSIGNMENT ( #79, #29, ( #214 ) ) ;
#88 = IDENTIFICATION_ROLE ( 'external document id and location', $) ;
#89 = PRODUCT_DEFINITION_SHAPE ( 'NONE', 'NONE',  #215 ) ;
#90 = CC_DESIGN_APPROVAL ( #107, ( #116 ) ) ;
#91 = APPROVAL_PERSON_ORGANIZATION ( #183, #69, #138 ) ;
#92 = APPROVAL_DATE_TIME ( #44, #204 ) ;
#93 = DESIGN_CONTEXT ( 'detailed design', #42, 'design' ) ;
#94 = CC_DESIGN_DATE_AND_TIME_ASSIGNMENT ( #99, #12, ( #135 ) ) ;
#95 = PERSON_AND_ORGANIZATION_ROLE ( 'design_supplier' ) ;
#96 = PERSON_AND_ORGANIZATION_ROLE ( 'creator' ) ;
#97 =( NAMED_UNIT ( * ) PLANE_ANGLE_UNIT ( ) SI_UNIT ( $, .RADIAN. ) );
#98 =( GEOMETRIC_REPRESENTATION_CONTEXT ( 3 ) GLOBAL_UNCERTAINTY_ASSIGNED_CONTEXT ( ( #53 ) ) GLOBAL_UNIT_ASSIGNED_CONTEXT ( ( #115, #97, #80 ) ) REPRESENTATION_CONTEXT ( 'NONE', 'WORKASPACE' ) );
#99 = DATE_AND_TIME ( #75, #61 ) ;
#100 = COORDINATED_UNIVERSAL_TIME_OFFSET ( 10, 0, .AHEAD. ) ;
#101 = UNCERTAINTY_MEASURE_WITH_UNIT (LENGTH_MEASURE( 1.000000000000000082E-05 ), #81, 'distance_accuracy_value', 'NONE');
#102 = DOCUMENT_TYPE ( 'geometry' ) ;
#103 = APPLIED_DOCUMENT_REFERENCE ( #18,'',( #135) ) ;
#104 = LOCAL_TIME ( 18, 49, 53.00000000000000000, #185 ) ;
#105 = DATE_AND_TIME ( #199, #104 ) ;
#106 = APPLICATION_PROTOCOL_DEFINITION ( 'international standard', 'config_control_design', 1994, #84 ) ;
#107 = APPROVAL ( #67, 'Coincident' ) ;
#108 = PERSON_AND_ORGANIZATION ( #18446744073709551615, #18446744073709551615 ) ;
#109 = PRODUCT ( '6461079856.step', '6461079856.step', '', ( #169 ) ) ;
#110 = PERSON_AND_ORGANIZATION ( #18446744073709551615, #18446744073709551615 ) ;
#111 = AXIS2_PLACEMENT_3D ( 'NONE', #155, #19, #143 ) ;
#112 = CC_DESIGN_SECURITY_CLASSIFICATION ( #127, ( #215 ) ) ;
#113 = PERSON_AND_ORGANIZATION ( #18446744073709551615, #18446744073709551615 ) ;
#114 = PERSON_AND_ORGANIZATION ( #18446744073709551615, #18446744073709551615 ) ;
#115 =( LENGTH_UNIT ( ) NAMED_UNIT ( * ) SI_UNIT ( .MILLI., .METRE. ) );
#116 = PRODUCT_DEFINITION ( 'General', '', #142, #187 ) ;
#117 = CALENDAR_DATE ( 2026, 22, 6 ) ;
#118 = EXTERNAL_SOURCE (IDENTIFIER('') ) ;
#119 = APPROVAL_PERSON_ORGANIZATION ( #77, #162, #30 ) ;
#120 = COORDINATED_UNIVERSAL_TIME_OFFSET ( 10, 0, .AHEAD. ) ;
#121 = COORDINATED_UNIVERSAL_TIME_OFFSET ( 10, 0, .AHEAD. ) ;
#122 = CC_DESIGN_APPROVAL ( #69, ( #127 ) ) ;
#123 = PERSON_AND_ORGANIZATION_ROLE ( 'creator' ) ;
#124 = DATE_AND_TIME ( #49, #40 ) ;
#125 = PRODUCT_RELATED_PRODUCT_CATEGORY ( 'detail', '', ( #109 ) ) ;
#126 = APPROVAL_PERSON_ORGANIZATION ( #200, #107, #50 ) ;
#127 = SECURITY_CLASSIFICATION ( '', '', #186 ) ;
#128 = CALENDAR_DATE ( 2026, 22, 6 ) ;
#129 = LOCAL_TIME ( 18, 49, 53.00000000000000000, #5 ) ;
#130 = DIRECTION ( 'NONE',  ( 0.000000000000000000, 0.000000000000000000, 1.000000000000000000 ) ) ;
#131 = PRODUCT ( 'Extruded-5.step', 'Extruded-5.step', '', ( #134 ) ) ;
#132 = COORDINATED_UNIVERSAL_TIME_OFFSET ( 10, 0, .AHEAD. ) ;
#133 = APPROVAL_STATUS ( 'not_yet_approved' ) ;
#134 = MECHANICAL_CONTEXT ( 'NONE', #4, 'mechanical' ) ;
#135 = PRODUCT_DEFINITION ( 'General', '', #194, #93 ) ;
#136 = APPROVAL_ROLE ( '' ) ;
#137 = DATE_AND_TIME ( #207, #180 ) ;
#138 = APPROVAL_ROLE ( '' ) ;
#139 = CC_DESIGN_PERSON_AND_ORGANIZATION_ASSIGNMENT ( #108, #123, ( #116 ) ) ;
#140 = LOCAL_TIME ( 18, 49, 53.00000000000000000, #2 ) ;
#141 = PROPERTY_DEFINITION_REPRESENTATION ( #57, #54 ) ;
#142 = PRODUCT_DEFINITION_FORMATION_WITH_SPECIFIED_SOURCE ( 'Symmetric', '', #109, .NOT_KNOWN. ) ;
#143 = DIRECTION ( 'NONE',  ( 1.000000000000000000, 0.000000000000000000, 0.000000000000000000 ) ) ;
#144 = CALENDAR_DATE ( 2026, 22, 6 ) ;
#145 = PRODUCT_DEFINITION_SHAPE ( 'NONE', 'NONE',  #116 ) ;
#146 = CC_DESIGN_SECURITY_CLASSIFICATION ( #214, ( #194 ) ) ;
#147 = PERSON_AND_ORGANIZATION ( #18446744073709551615, #18446744073709551615 ) ;
#148 = COORDINATED_UNIVERSAL_TIME_OFFSET ( 10, 0, .AHEAD. ) ;
#149 = DATE_TIME_ROLE ( 'classification_date' ) ;
#150 = COORDINATED_UNIVERSAL_TIME_OFFSET ( 10, 0, .AHEAD. ) ;
#151 = PERSON_AND_ORGANIZATION_ROLE ( 'design_supplier' ) ;
#152 = APPROVAL_STATUS ( 'not_yet_approved' ) ;
#153 = APPROVAL_DATE_TIME ( #170, #69 ) ;
#154 = CC_DESIGN_DATE_AND_TIME_ASSIGNMENT ( #213, #149, ( #86 ) ) ;
#155 = CARTESIAN_POINT ( 'NONE',  ( 0.000000000000000000, 0.000000000000000000, 0.000000000000000000 ) ) ;
#156 = PROPERTY_DEFINITION_REPRESENTATION ( #25, #54 ) ;
#157 = APPROVAL_PERSON_ORGANIZATION ( #210, #204, #8 ) ;
#158 = APPROVAL_DATE_TIME ( #190, #107 ) ;
#159 = APPROVAL ( #168, 'Coincident' ) ;
#160 = CC_DESIGN_APPROVAL ( #34, ( #135 ) ) ;
#161 = ORGANIZATION ( 'NAUO-ORG64', 'UNSPECIFIED', 'UNSPECIFIED' ) ;
#162 = APPROVAL ( #133, 'Coincident' ) ;
#163 = APPROVAL_STATUS ( 'not_yet_approved' ) ;
#164 = PERSON_AND_ORGANIZATION ( #18446744073709551615, #18446744073709551615 ) ;
#165 = SECURITY_CLASSIFICATION_LEVEL ( 'unclassified' ) ;
#166 = APPLICATION_PROTOCOL_DEFINITION ( 'international standard', 'config_control_design', 1994, #13 ) ;
#167 = SHAPE_REPRESENTATION ( '6461079856.step', ( #111, #203 ), #98 ) ;
#168 = APPROVAL_STATUS ( 'not_yet_approved' ) ;
#169 = MECHANICAL_CONTEXT ( 'NONE', #84, 'mechanical' ) ;
#170 = DATE_AND_TIME ( #32, #140 ) ;
#171 = CC_DESIGN_DATE_AND_TIME_ASSIGNMENT ( #208, #59, ( #116 ) ) ;
#172 = APPROVAL_STATUS ( 'not_yet_approved' ) ;
#173 = CONTEXT_DEPENDENT_SHAPE_REPRESENTATION ( #9, #89 ) ;
#174 = APPROVAL_PERSON_ORGANIZATION ( #147, #74, #178 ) ;
#175 = CARTESIAN_POINT ( 'NONE',  ( 0.000000000000000000, 0.000000000000000000, 0.000000000000000000 ) ) ;
#176 = PERSON_AND_ORGANIZATION ( #18446744073709551615, #18446744073709551615 ) ;
#177 = APPROVAL_DATE_TIME ( #137, #34 ) ;
#178 = APPROVAL_ROLE ( '' ) ;
#179 = DATE_AND_TIME ( #56, #73 ) ;
#180 = LOCAL_TIME ( 18, 49, 53.00000000000000000, #100 ) ;
#181 = SHAPE_DEFINITION_REPRESENTATION ( #145, #167 ) ;
#182 = CC_DESIGN_PERSON_AND_ORGANIZATION_ASSIGNMENT ( #183, #198, ( #127 ) ) ;
#183 = PERSON_AND_ORGANIZATION ( #212, #161 ) ;
#184 = CC_DESIGN_PERSON_AND_ORGANIZATION_ASSIGNMENT ( #110, #26, ( #131 ) ) ;
#185 = COORDINATED_UNIVERSAL_TIME_OFFSET ( 10, 0, .AHEAD. ) ;
#186 = SECURITY_CLASSIFICATION_LEVEL ( 'unclassified' ) ;
#187 = DESIGN_CONTEXT ( 'detailed design', #13, 'design' ) ;
#188 = ITEM_DEFINED_TRANSFORMATION ( 'NONE', 'NONE', #203,  #71 ) ;
#189 = CC_DESIGN_APPROVAL ( #74, ( #194 ) ) ;
#190 = DATE_AND_TIME ( #128, #17 ) ;
#191 = PRODUCT_DEFINITION_SHAPE ( 'NONE', 'NONE',  #135 ) ;
#192 = DATE_AND_TIME ( #211, #63 ) ;
#193 = CALENDAR_DATE ( 2026, 22, 6 ) ;
#194 = PRODUCT_DEFINITION_FORMATION_WITH_SPECIFIED_SOURCE ( 'Symmetric', '', #131, .NOT_KNOWN. ) ;
#195 = PERSON_AND_ORGANIZATION ( #18446744073709551615, #18446744073709551615 ) ;
#196 = COORDINATED_UNIVERSAL_TIME_OFFSET ( 10, 0, .AHEAD. ) ;
#197 = COORDINATED_UNIVERSAL_TIME_OFFSET ( 10, 0, .AHEAD. ) ;
#198 = PERSON_AND_ORGANIZATION_ROLE ( 'classification_officer' ) ;
#199 = CALENDAR_DATE ( 2026, 22, 6 ) ;
#200 = PERSON_AND_ORGANIZATION ( #18446744073709551615, #18446744073709551615 ) ;
#201 = SHAPE_DEFINITION_REPRESENTATION ( #191, #54 ) ;
#202 =( NAMED_UNIT ( * ) PLANE_ANGLE_UNIT ( ) SI_UNIT ( $, .RADIAN. ) );
#203 = AXIS2_PLACEMENT_3D ( 'NONE', #175, #3, #48 ) ;
#204 = APPROVAL ( #172, 'Coincident' ) ;
#205 = LOCAL_TIME ( 18, 49, 53.00000000000000000, #197 ) ;
#206 = DATE_AND_TIME ( #193, #31 ) ;
#207 = CALENDAR_DATE ( 2026, 22, 6 ) ;
#208 = DATE_AND_TIME ( #144, #129 ) ;
#209 = CALENDAR_DATE ( 2026, 22, 6 ) ;
#210 = PERSON_AND_ORGANIZATION ( #18446744073709551615, #18446744073709551615 ) ;
#211 = CALENDAR_DATE ( 2026, 22, 6 ) ;
#212 = PERSON ( 'NAUO-PER64', 'UNSPECIFIED', 'UNSPECIFIED', ('UNSPECIFIED'), ('UNSPECIFIED'), ('UNSPECIFIED') ) ;
#213 = DATE_AND_TIME ( #209, #205 ) ;
#214 = SECURITY_CLASSIFICATION ( '', '', #165 ) ;
#215 = NEXT_ASSEMBLY_USAGE_OCCURRENCE ( 'NAUO64', ' ', ' ', #116, #135, $ ) ;
ENDSEC;
END-ISO-10303-21;
