ISO-10303-21;
HEADER;
FILE_DESCRIPTION (( 'STEP AP203' ),
    '1' );
FILE_NAME ('6461082896.step.STEP',
    '2026-06-22T08:49:52',
    ( 'localuser' ),
    ( '' ),
    'SwSTEP 2.0',
    'SolidWorks 2025',
    '' );
FILE_SCHEMA (( 'CONFIG_CONTROL_DESIGN' ));
ENDSEC;

DATA;
#1 = PERSON_AND_ORGANIZATION_ROLE ( 'design_supplier' ) ;
#2 = DATE_TIME_ROLE ( 'classification_date' ) ;
#3 = PERSON_AND_ORGANIZATION ( #18446744073709551615, #18446744073709551615 ) ;
#4 = PERSON_AND_ORGANIZATION ( #18446744073709551615, #18446744073709551615 ) ;
#5 = APPROVAL ( #64, 'Coincident' ) ;
#6 = DIRECTION ( 'NONE',  ( 0.000000000000000000, 0.000000000000000000, 1.000000000000000000 ) ) ;
#7 = DATE_TIME_ROLE ( 'creation_date' ) ;
#8 = CC_DESIGN_DATE_AND_TIME_ASSIGNMENT ( #35, #7, ( #130 ) ) ;
#9 = PRODUCT_DEFINITION_SHAPE ( 'NONE', 'NONE',  #130 ) ;
#10 = CALENDAR_DATE ( 2026, 22, 6 ) ;
#11 =( NAMED_UNIT ( * ) SI_UNIT ( $, .STERADIAN. ) SOLID_ANGLE_UNIT ( ) );
#12 = CC_DESIGN_APPROVAL ( #210, ( #147 ) ) ;
#13 = APPROVAL_DATE_TIME ( #198, #210 ) ;
#14 =( LENGTH_UNIT ( ) NAMED_UNIT ( * ) SI_UNIT ( .MILLI., .METRE. ) );
#15 = APPROVAL_PERSON_ORGANIZATION ( #104, #195, #206 ) ;
#16 = PERSON_AND_ORGANIZATION_ROLE ( 'classification_officer' ) ;
#17 = DATE_AND_TIME ( #203, #40 ) ;
#18 = DATE_AND_TIME ( #163, #209 ) ;
#19 = APPLICATION_PROTOCOL_DEFINITION ( 'international standard', 'config_control_design', 1994, #102 ) ;
#20 = COORDINATED_UNIVERSAL_TIME_OFFSET ( 10, 0, .AHEAD. ) ;
#21 = CC_DESIGN_PERSON_AND_ORGANIZATION_ASSIGNMENT ( #47, #169, ( #147 ) ) ;
#22 =( GEOMETRIC_REPRESENTATION_CONTEXT ( 3 ) GLOBAL_UNCERTAINTY_ASSIGNED_CONTEXT ( ( #46 ) ) GLOBAL_UNIT_ASSIGNED_CONTEXT ( ( #153, #119, #197 ) ) REPRESENTATION_CONTEXT ( 'NONE', 'WORKASPACE' ) );
#23 = APPROVAL_PERSON_ORGANIZATION ( #47, #210, #44 ) ;
#24 = DOCUMENT_TYPE ( 'geometry' ) ;
#25 = PROPERTY_DEFINITION ('external definition','', #117 ) ;
#26 = CC_DESIGN_DATE_AND_TIME_ASSIGNMENT ( #95, #134, ( #59 ) ) ;
#27 = COORDINATED_UNIVERSAL_TIME_OFFSET ( 10, 0, .AHEAD. ) ;
#28 = PERSON_AND_ORGANIZATION ( #18446744073709551615, #18446744073709551615 ) ;
#29 = PERSON_AND_ORGANIZATION ( #18446744073709551615, #18446744073709551615 ) ;
#30 = PERSON_AND_ORGANIZATION ( #18446744073709551615, #18446744073709551615 ) ;
#31 = PROPERTY_DEFINITION_REPRESENTATION ( #111, #108 ) ;
#32 = SHAPE_DEFINITION_REPRESENTATION ( #9, #112 ) ;
#33 = PERSON_AND_ORGANIZATION_ROLE ( 'classification_officer' ) ;
#34 = PERSON_AND_ORGANIZATION_ROLE ( 'creator' ) ;
#35 = DATE_AND_TIME ( #175, #207 ) ;
#36 = CC_DESIGN_PERSON_AND_ORGANIZATION_ASSIGNMENT ( #179, #123, ( #144 ) ) ;
#37 = CC_DESIGN_SECURITY_CLASSIFICATION ( #147, ( #215 ) ) ;
#38 = CC_DESIGN_PERSON_AND_ORGANIZATION_ASSIGNMENT ( #29, #16, ( #214 ) ) ;
#39 = CC_DESIGN_PERSON_AND_ORGANIZATION_ASSIGNMENT ( #125, #34, ( #130 ) ) ;
#40 = LOCAL_TIME ( 18, 49, 52.00000000000000000, #55 ) ;
#41 = DATE_AND_TIME ( #133, #85 ) ;
#42 = EXTERNAL_SOURCE (IDENTIFIER('') ) ;
#43 = PERSON_AND_ORGANIZATION ( #18446744073709551615, #18446744073709551615 ) ;
#44 = APPROVAL_ROLE ( '' ) ;
#45 = LOCAL_TIME ( 18, 49, 52.00000000000000000, #82 ) ;
#46 = UNCERTAINTY_MEASURE_WITH_UNIT (LENGTH_MEASURE( 1.000000000000000082E-05 ), #153, 'distance_accuracy_value', 'NONE');
#47 = PERSON_AND_ORGANIZATION ( #161, #184 ) ;
#48 = APPROVAL_ROLE ( '' ) ;
#49 = SECURITY_CLASSIFICATION_LEVEL ( 'unclassified' ) ;
#50 = CC_DESIGN_DATE_AND_TIME_ASSIGNMENT ( #170, #181, ( #214 ) ) ;
#51 = MECHANICAL_CONTEXT ( 'NONE', #102, 'mechanical' ) ;
#52 = AXIS2_PLACEMENT_3D ( 'NONE', #77, #136, #103 ) ;
#53 = COORDINATED_UNIVERSAL_TIME_OFFSET ( 10, 0, .AHEAD. ) ;
#54 = DESIGN_CONTEXT ( 'detailed design', #149, 'design' ) ;
#55 = COORDINATED_UNIVERSAL_TIME_OFFSET ( 10, 0, .AHEAD. ) ;
#56 = CC_DESIGN_DATE_AND_TIME_ASSIGNMENT ( #200, #211, ( #147 ) ) ;
#57 = APPROVAL_PERSON_ORGANIZATION ( #30, #5, #48 ) ;
#58 = CC_DESIGN_PERSON_AND_ORGANIZATION_ASSIGNMENT ( #109, #33, ( #193 ) ) ;
#59 = PRODUCT_DEFINITION ( 'General', '', #156, #54 ) ;
#60 = MECHANICAL_CONTEXT ( 'NONE', #93, 'mechanical' ) ;
#61 = CC_DESIGN_APPROVAL ( #195, ( #113 ) ) ;
#62 = APPROVAL ( #137, 'Coincident' ) ;
#63 = CALENDAR_DATE ( 2026, 22, 6 ) ;
#64 = APPROVAL_STATUS ( 'not_yet_approved' ) ;
#65 = AXIS2_PLACEMENT_3D ( 'NONE', #152, #167, #199 ) ;
#66 = LOCAL_TIME ( 18, 49, 52.00000000000000000, #186 ) ;
#67 = PROPERTY_DEFINITION_REPRESENTATION ( #25, #108 ) ;
#68 = APPROVAL_DATE_TIME ( #107, #145 ) ;
#69 = PERSON_AND_ORGANIZATION_ROLE ( 'creator' ) ;
#70 = APPROVAL_STATUS ( 'not_yet_approved' ) ;
#71 = APPROVAL_ROLE ( '' ) ;
#72 = LOCAL_TIME ( 18, 49, 52.00000000000000000, #53 ) ;
#73 = DATE_AND_TIME ( #158, #72 ) ;
#74 = APPROVAL ( #138, 'Coincident' ) ;
#75 = DATE_AND_TIME ( #91, #165 ) ;
#76 = LOCAL_TIME ( 18, 49, 52.00000000000000000, #151 ) ;
#77 = CARTESIAN_POINT ( 'NONE',  ( 0.000000000000000000, 0.000000000000000000, 0.000000000000000000 ) ) ;
#78 = ROLE_ASSOCIATION ( #176, #80 ) ;
#79 = CC_DESIGN_PERSON_AND_ORGANIZATION_ASSIGNMENT ( #202, #143, ( #113 ) ) ;
#80 = APPLIED_DOCUMENT_REFERENCE ( #117,'',( #59) ) ;
#81 =( REPRESENTATION_RELATIONSHIP ('NONE','NONE', #112, #108 ) REPRESENTATION_RELATIONSHIP_WITH_TRANSFORMATION ( #116 )SHAPE_REPRESENTATION_RELATIONSHIP( ) );
#82 = COORDINATED_UNIVERSAL_TIME_OFFSET ( 10, 0, .AHEAD. ) ;
#83 = CONTEXT_DEPENDENT_SHAPE_REPRESENTATION ( #81, #132 ) ;
#84 = APPROVAL_PERSON_ORGANIZATION ( #192, #74, #88 ) ;
#85 = LOCAL_TIME ( 18, 49, 52.00000000000000000, #122 ) ;
#86 = CALENDAR_DATE ( 2026, 22, 6 ) ;
#87 = PERSON_AND_ORGANIZATION_ROLE ( 'creator' ) ;
#88 = APPROVAL_ROLE ( '' ) ;
#89 = PERSON_AND_ORGANIZATION ( #18446744073709551615, #18446744073709551615 ) ;
#90 = CC_DESIGN_SECURITY_CLASSIFICATION ( #193, ( #113 ) ) ;
#91 = CALENDAR_DATE ( 2026, 22, 6 ) ;
#92 = CC_DESIGN_DATE_AND_TIME_ASSIGNMENT ( #75, #2, ( #193 ) ) ;
#93 = APPLICATION_CONTEXT ( 'configuration controlled 3d designs of mechanical parts and assemblies' ) ;
#94 = CC_DESIGN_PERSON_AND_ORGANIZATION_ASSIGNMENT ( #28, #1, ( #156 ) ) ;
#95 = DATE_AND_TIME ( #63, #45 ) ;
#96 = CC_DESIGN_PERSON_AND_ORGANIZATION_ASSIGNMENT ( #120, #69, ( #59 ) ) ;
#97 = LOCAL_TIME ( 18, 49, 52.00000000000000000, #188 ) ;
#98 = LOCAL_TIME ( 18, 49, 52.00000000000000000, #155 ) ;
#99 = APPROVAL_STATUS ( 'not_yet_approved' ) ;
#100 = PRODUCT_RELATED_PRODUCT_CATEGORY ( 'detail', '', ( #144 ) ) ;
#101 = SECURITY_CLASSIFICATION_LEVEL ( 'unclassified' ) ;
#102 = APPLICATION_CONTEXT ( 'configuration controlled 3d designs of mechanical parts and assemblies' ) ;
#103 = DIRECTION ( 'NONE',  ( 1.000000000000000000, 0.000000000000000000, 0.000000000000000000 ) ) ;
#104 = PERSON_AND_ORGANIZATION ( #18446744073709551615, #18446744073709551615 ) ;
#105 = PERSON_AND_ORGANIZATION_ROLE ( 'design_owner' ) ;
#106 = IDENTIFICATION_ROLE ( 'external document id and location', $) ;
#107 = DATE_AND_TIME ( #191, #97 ) ;
#108 = SHAPE_REPRESENTATION ( 'Extruded-0.step', ( #52 ), #22 ) ;
#109 = PERSON_AND_ORGANIZATION ( #18446744073709551615, #18446744073709551615 ) ;
#110 = APPROVAL_PERSON_ORGANIZATION ( #190, #145, #71 ) ;
#111 = PROPERTY_DEFINITION ('document property','', #117 ) ;
#112 = SHAPE_REPRESENTATION ( '6461082896.step', ( #146, #65 ), #150 ) ;
#113 = PRODUCT_DEFINITION_FORMATION_WITH_SPECIFIED_SOURCE ( 'Symmetric', '', #144, .NOT_KNOWN. ) ;
#114 = APPLIED_EXTERNAL_IDENTIFICATION_ASSIGNMENT ( 'Extruded-0.step.STEP' , #106, #42,( #117) ) ;
#115 = APPROVAL_DATE_TIME ( #41, #5 ) ;
#116 = ITEM_DEFINED_TRANSFORMATION ( 'NONE', 'NONE', #65,  #52 ) ;
#117 = DOCUMENT_FILE ( 'Extruded-0.step.STEP' , '', '', #24, '' ,$ ) ;
#118 = CC_DESIGN_APPROVAL ( #131, ( #59 ) ) ;
#119 =( NAMED_UNIT ( * ) PLANE_ANGLE_UNIT ( ) SI_UNIT ( $, .RADIAN. ) );
#120 = PERSON_AND_ORGANIZATION ( #18446744073709551615, #18446744073709551615 ) ;
#121 = APPLICATION_PROTOCOL_DEFINITION ( 'international standard', 'config_control_design', 1994, #93 ) ;
#122 = COORDINATED_UNIVERSAL_TIME_OFFSET ( 10, 0, .AHEAD. ) ;
#123 = PERSON_AND_ORGANIZATION_ROLE ( 'design_owner' ) ;
#124 = APPROVAL_PERSON_ORGANIZATION ( #43, #62, #157 ) ;
#125 = PERSON_AND_ORGANIZATION ( #18446744073709551615, #18446744073709551615 ) ;
#126 = CC_DESIGN_PERSON_AND_ORGANIZATION_ASSIGNMENT ( #168, #196, ( #156 ) ) ;
#127 = APPROVAL_STATUS ( 'not_yet_approved' ) ;
#128 = APPROVAL_STATUS ( 'not_yet_approved' ) ;
#129 = CC_DESIGN_APPROVAL ( #74, ( #130 ) ) ;
#130 = PRODUCT_DEFINITION ( 'General', '', #113, #204 ) ;
#131 = APPROVAL ( #70, 'Coincident' ) ;
#132 = PRODUCT_DEFINITION_SHAPE ( 'NONE', 'NONE',  #215 ) ;
#133 = CALENDAR_DATE ( 2026, 22, 6 ) ;
#134 = DATE_TIME_ROLE ( 'creation_date' ) ;
#135 = SHAPE_DEFINITION_REPRESENTATION ( #148, #108 ) ;
#136 = DIRECTION ( 'NONE',  ( 0.000000000000000000, 0.000000000000000000, 1.000000000000000000 ) ) ;
#137 = APPROVAL_STATUS ( 'not_yet_approved' ) ;
#138 = APPROVAL_STATUS ( 'not_yet_approved' ) ;
#139 = COORDINATED_UNIVERSAL_TIME_OFFSET ( 10, 0, .AHEAD. ) ;
#140 = LOCAL_TIME ( 18, 49, 52.00000000000000000, #27 ) ;
#141 = DIRECTION ( 'NONE',  ( 1.000000000000000000, 0.000000000000000000, 0.000000000000000000 ) ) ;
#142 = UNCERTAINTY_MEASURE_WITH_UNIT (LENGTH_MEASURE( 1.000000000000000082E-05 ), #14, 'distance_accuracy_value', 'NONE');
#143 = PERSON_AND_ORGANIZATION_ROLE ( 'design_supplier' ) ;
#144 = PRODUCT ( '6461082896.step', '6461082896.step', '', ( #60 ) ) ;
#145 = APPROVAL ( #128, 'Coincident' ) ;
#146 = AXIS2_PLACEMENT_3D ( 'NONE', #182, #6, #141 ) ;
#147 = SECURITY_CLASSIFICATION ( '', '', #101 ) ;
#148 = PRODUCT_DEFINITION_SHAPE ( 'NONE', 'NONE',  #59 ) ;
#149 = APPLICATION_CONTEXT ( 'configuration controlled 3d designs of mechanical parts and assemblies' ) ;
#150 =( GEOMETRIC_REPRESENTATION_CONTEXT ( 3 ) GLOBAL_UNCERTAINTY_ASSIGNED_CONTEXT ( ( #142 ) ) GLOBAL_UNIT_ASSIGNED_CONTEXT ( ( #14, #212, #11 ) ) REPRESENTATION_CONTEXT ( 'NONE', 'WORKASPACE' ) );
#151 = COORDINATED_UNIVERSAL_TIME_OFFSET ( 10, 0, .AHEAD. ) ;
#152 = CARTESIAN_POINT ( 'NONE',  ( 0.000000000000000000, 0.000000000000000000, 0.000000000000000000 ) ) ;
#153 =( LENGTH_UNIT ( ) NAMED_UNIT ( * ) SI_UNIT ( .MILLI., .METRE. ) );
#154 = PRODUCT_RELATED_PRODUCT_CATEGORY ( 'detail', '', ( #194 ) ) ;
#155 = COORDINATED_UNIVERSAL_TIME_OFFSET ( 10, 0, .AHEAD. ) ;
#156 = PRODUCT_DEFINITION_FORMATION_WITH_SPECIFIED_SOURCE ( 'Symmetric', '', #194, .NOT_KNOWN. ) ;
#157 = APPROVAL_ROLE ( '' ) ;
#158 = CALENDAR_DATE ( 2026, 22, 6 ) ;
#159 = COORDINATED_UNIVERSAL_TIME_OFFSET ( 10, 0, .AHEAD. ) ;
#160 = CC_DESIGN_APPROVAL ( #145, ( #193 ) ) ;
#161 = PERSON ( 'NAUO-PER34', 'UNSPECIFIED', 'UNSPECIFIED', ('UNSPECIFIED'), ('UNSPECIFIED'), ('UNSPECIFIED') ) ;
#162 = CC_DESIGN_APPROVAL ( #62, ( #156 ) ) ;
#163 = CALENDAR_DATE ( 2026, 22, 6 ) ;
#164 = APPLICATION_PROTOCOL_DEFINITION ( 'international standard', 'config_control_design', 1994, #189 ) ;
#165 = LOCAL_TIME ( 18, 49, 52.00000000000000000, #20 ) ;
#166 = CC_DESIGN_APPROVAL ( #5, ( #214 ) ) ;
#167 = DIRECTION ( 'NONE',  ( 4.890937612370273194E-29, -3.155443620884047222E-30, 0.9999999999999997780 ) ) ;
#168 = PERSON_AND_ORGANIZATION ( #18446744073709551615, #18446744073709551615 ) ;
#169 = PERSON_AND_ORGANIZATION_ROLE ( 'classification_officer' ) ;
#170 = DATE_AND_TIME ( #86, #66 ) ;
#171 = DATE_AND_TIME ( #201, #98 ) ;
#172 = APPLICATION_PROTOCOL_DEFINITION ( 'international standard', 'config_control_design', 1994, #149 ) ;
#173 = APPROVAL_ROLE ( '' ) ;
#174 = APPROVAL_DATE_TIME ( #73, #74 ) ;
#175 = CALENDAR_DATE ( 2026, 22, 6 ) ;
#176 = OBJECT_ROLE ('mandatory',$ ) ;
#177 = CC_DESIGN_PERSON_AND_ORGANIZATION_ASSIGNMENT ( #4, #87, ( #113 ) ) ;
#178 = CC_DESIGN_SECURITY_CLASSIFICATION ( #214, ( #156 ) ) ;
#179 = PERSON_AND_ORGANIZATION ( #18446744073709551615, #18446744073709551615 ) ;
#180 = SECURITY_CLASSIFICATION_LEVEL ( 'unclassified' ) ;
#181 = DATE_TIME_ROLE ( 'classification_date' ) ;
#182 = CARTESIAN_POINT ( 'NONE',  ( 0.000000000000000000, 0.000000000000000000, 0.000000000000000000 ) ) ;
#183 = APPROVAL_PERSON_ORGANIZATION ( #3, #131, #173 ) ;
#184 = ORGANIZATION ( 'NAUO-ORG34', 'UNSPECIFIED', 'UNSPECIFIED' ) ;
#185 = APPROVAL_DATE_TIME ( #171, #62 ) ;
#186 = COORDINATED_UNIVERSAL_TIME_OFFSET ( 10, 0, .AHEAD. ) ;
#187 = CALENDAR_DATE ( 2026, 22, 6 ) ;
#188 = COORDINATED_UNIVERSAL_TIME_OFFSET ( 10, 0, .AHEAD. ) ;
#189 = APPLICATION_CONTEXT ( 'configuration controlled 3d designs of mechanical parts and assemblies' ) ;
#190 = PERSON_AND_ORGANIZATION ( #18446744073709551615, #18446744073709551615 ) ;
#191 = CALENDAR_DATE ( 2026, 22, 6 ) ;
#192 = PERSON_AND_ORGANIZATION ( #18446744073709551615, #18446744073709551615 ) ;
#193 = SECURITY_CLASSIFICATION ( '', '', #49 ) ;
#194 = PRODUCT ( 'Extruded-0.step', 'Extruded-0.step', '', ( #51 ) ) ;
#195 = APPROVAL ( #127, 'Coincident' ) ;
#196 = PERSON_AND_ORGANIZATION_ROLE ( 'creator' ) ;
#197 =( NAMED_UNIT ( * ) SI_UNIT ( $, .STERADIAN. ) SOLID_ANGLE_UNIT ( ) );
#198 = DATE_AND_TIME ( #10, #140 ) ;
#199 = DIRECTION ( 'NONE',  ( 1.000000000000000222, -1.092455418989176591E-28, 4.890937612370273194E-29 ) ) ;
#200 = DATE_AND_TIME ( #187, #76 ) ;
#201 = CALENDAR_DATE ( 2026, 22, 6 ) ;
#202 = PERSON_AND_ORGANIZATION ( #18446744073709551615, #18446744073709551615 ) ;
#203 = CALENDAR_DATE ( 2026, 22, 6 ) ;
#204 = DESIGN_CONTEXT ( 'detailed design', #189, 'design' ) ;
#205 = APPROVAL_DATE_TIME ( #17, #195 ) ;
#206 = APPROVAL_ROLE ( '' ) ;
#207 = LOCAL_TIME ( 18, 49, 52.00000000000000000, #159 ) ;
#208 = CC_DESIGN_PERSON_AND_ORGANIZATION_ASSIGNMENT ( #89, #105, ( #194 ) ) ;
#209 = LOCAL_TIME ( 18, 49, 52.00000000000000000, #139 ) ;
#210 = APPROVAL ( #99, 'UNKNOWN' ) ;
#211 = DATE_TIME_ROLE ( 'classification_date' ) ;
#212 =( NAMED_UNIT ( * ) PLANE_ANGLE_UNIT ( ) SI_UNIT ( $, .RADIAN. ) );
#213 = APPROVAL_DATE_TIME ( #18, #131 ) ;
#214 = SECURITY_CLASSIFICATION ( '', '', #180 ) ;
#215 = NEXT_ASSEMBLY_USAGE_OCCURRENCE ( 'NAUO34', ' ', ' ', #130, #59, $ ) ;
ENDSEC;
END-ISO-10303-21;
