ISO-10303-21;
HEADER;
FILE_DESCRIPTION (( 'STEP AP203' ),
    '1' );
FILE_NAME ('6461076016.step.STEP',
    '2026-06-22T08:49:53',
    ( 'localuser' ),
    ( '' ),
    'SwSTEP 2.0',
    'SolidWorks 2025',
    '' );
FILE_SCHEMA (( 'CONFIG_CONTROL_DESIGN' ));
ENDSEC;

DATA;
#1 = CARTESIAN_POINT ( 'NONE',  ( 0.000000000000000000, 0.000000000000000000, 0.000000000000000000 ) ) ;
#2 = PERSON_AND_ORGANIZATION_ROLE ( 'design_supplier' ) ;
#3 = COORDINATED_UNIVERSAL_TIME_OFFSET ( 10, 0, .AHEAD. ) ;
#4 = DATE_AND_TIME ( #153, #209 ) ;
#5 = COORDINATED_UNIVERSAL_TIME_OFFSET ( 10, 0, .AHEAD. ) ;
#6 = CC_DESIGN_DATE_AND_TIME_ASSIGNMENT ( #34, #12, ( #115 ) ) ;
#7 = CC_DESIGN_APPROVAL ( #132, ( #134 ) ) ;
#8 = PERSON_AND_ORGANIZATION_ROLE ( 'design_supplier' ) ;
#9 = PERSON_AND_ORGANIZATION ( #18446744073709551615, #18446744073709551615 ) ;
#10 = LOCAL_TIME ( 18, 49, 53.00000000000000000, #30 ) ;
#11 = APPLICATION_PROTOCOL_DEFINITION ( 'international standard', 'config_control_design', 1994, #196 ) ;
#12 = DATE_TIME_ROLE ( 'creation_date' ) ;
#13 = CC_DESIGN_DATE_AND_TIME_ASSIGNMENT ( #118, #157, ( #150 ) ) ;
#14 =( NAMED_UNIT ( * ) SI_UNIT ( $, .STERADIAN. ) SOLID_ANGLE_UNIT ( ) );
#15 = APPROVAL_PERSON_ORGANIZATION ( #61, #127, #18 ) ;
#16 = CALENDAR_DATE ( 2026, 22, 6 ) ;
#17 = CALENDAR_DATE ( 2026, 22, 6 ) ;
#18 = APPROVAL_ROLE ( '' ) ;
#19 = PERSON_AND_ORGANIZATION ( #31, #54 ) ;
#20 = CC_DESIGN_PERSON_AND_ORGANIZATION_ASSIGNMENT ( #188, #208, ( #155 ) ) ;
#21 = COORDINATED_UNIVERSAL_TIME_OFFSET ( 10, 0, .AHEAD. ) ;
#22 = PRODUCT ( 'Extruded-2.step', 'Extruded-2.step', '', ( #141 ) ) ;
#23 =( REPRESENTATION_RELATIONSHIP ('NONE','NONE', #92, #197 ) REPRESENTATION_RELATIONSHIP_WITH_TRANSFORMATION ( #74 )SHAPE_REPRESENTATION_RELATIONSHIP( ) );
#24 = CC_DESIGN_APPROVAL ( #99, ( #29 ) ) ;
#25 = CC_DESIGN_PERSON_AND_ORGANIZATION_ASSIGNMENT ( #68, #90, ( #22 ) ) ;
#26 = APPROVAL_STATUS ( 'not_yet_approved' ) ;
#27 = CALENDAR_DATE ( 2026, 22, 6 ) ;
#28 =( NAMED_UNIT ( * ) PLANE_ANGLE_UNIT ( ) SI_UNIT ( $, .RADIAN. ) );
#29 = PRODUCT_DEFINITION_FORMATION_WITH_SPECIFIED_SOURCE ( 'Symmetric', '', #22, .NOT_KNOWN. ) ;
#30 = COORDINATED_UNIVERSAL_TIME_OFFSET ( 10, 0, .AHEAD. ) ;
#31 = PERSON ( 'NAUO-PER50', 'UNSPECIFIED', 'UNSPECIFIED', ('UNSPECIFIED'), ('UNSPECIFIED'), ('UNSPECIFIED') ) ;
#32 = DATE_AND_TIME ( #190, #53 ) ;
#33 = APPROVAL_DATE_TIME ( #140, #202 ) ;
#34 = DATE_AND_TIME ( #161, #114 ) ;
#35 = CC_DESIGN_PERSON_AND_ORGANIZATION_ASSIGNMENT ( #9, #124, ( #115 ) ) ;
#36 = APPROVAL_PERSON_ORGANIZATION ( #136, #132, #104 ) ;
#37 = DIRECTION ( 'NONE',  ( 1.000000000000000222, -1.092455418989176591E-28, 4.890937612370273194E-29 ) ) ;
#38 = APPROVAL ( #45, 'UNKNOWN' ) ;
#39 = CALENDAR_DATE ( 2026, 22, 6 ) ;
#40 = CC_DESIGN_PERSON_AND_ORGANIZATION_ASSIGNMENT ( #168, #201, ( #145 ) ) ;
#41 =( NAMED_UNIT ( * ) PLANE_ANGLE_UNIT ( ) SI_UNIT ( $, .RADIAN. ) );
#42 = APPLIED_EXTERNAL_IDENTIFICATION_ASSIGNMENT ( 'Extruded-2.step.STEP' , #148, #169,( #48) ) ;
#43 = PERSON_AND_ORGANIZATION ( #18446744073709551615, #18446744073709551615 ) ;
#44 = CALENDAR_DATE ( 2026, 22, 6 ) ;
#45 = APPROVAL_STATUS ( 'not_yet_approved' ) ;
#46 = PRODUCT_RELATED_PRODUCT_CATEGORY ( 'detail', '', ( #125 ) ) ;
#47 = DATE_AND_TIME ( #17, #156 ) ;
#48 = DOCUMENT_FILE ( 'Extruded-2.step.STEP' , '', '', #146, '' ,$ ) ;
#49 = APPROVAL_STATUS ( 'not_yet_approved' ) ;
#50 = APPROVAL ( #198, 'Coincident' ) ;
#51 = PRODUCT_DEFINITION_SHAPE ( 'NONE', 'NONE',  #115 ) ;
#52 = COORDINATED_UNIVERSAL_TIME_OFFSET ( 10, 0, .AHEAD. ) ;
#53 = LOCAL_TIME ( 18, 49, 53.00000000000000000, #207 ) ;
#54 = ORGANIZATION ( 'NAUO-ORG50', 'UNSPECIFIED', 'UNSPECIFIED' ) ;
#55 = APPLICATION_PROTOCOL_DEFINITION ( 'international standard', 'config_control_design', 1994, #91 ) ;
#56 = CC_DESIGN_PERSON_AND_ORGANIZATION_ASSIGNMENT ( #101, #8, ( #134 ) ) ;
#57 = AXIS2_PLACEMENT_3D ( 'NONE', #144, #162, #37 ) ;
#58 = DIRECTION ( 'NONE',  ( 0.000000000000000000, 0.000000000000000000, 1.000000000000000000 ) ) ;
#59 = APPROVAL ( #95, 'Coincident' ) ;
#60 = COORDINATED_UNIVERSAL_TIME_OFFSET ( 10, 0, .AHEAD. ) ;
#61 = PERSON_AND_ORGANIZATION ( #18446744073709551615, #18446744073709551615 ) ;
#62 = APPROVAL_STATUS ( 'not_yet_approved' ) ;
#63 = UNCERTAINTY_MEASURE_WITH_UNIT (LENGTH_MEASURE( 1.000000000000000082E-05 ), #163, 'distance_accuracy_value', 'NONE');
#64 = COORDINATED_UNIVERSAL_TIME_OFFSET ( 10, 0, .AHEAD. ) ;
#65 = PROPERTY_DEFINITION_REPRESENTATION ( #194, #197 ) ;
#66 = LOCAL_TIME ( 18, 49, 53.00000000000000000, #175 ) ;
#67 = CC_DESIGN_SECURITY_CLASSIFICATION ( #150, ( #29 ) ) ;
#68 = PERSON_AND_ORGANIZATION ( #18446744073709551615, #18446744073709551615 ) ;
#69 = AXIS2_PLACEMENT_3D ( 'NONE', #1, #178, #177 ) ;
#70 = CC_DESIGN_APPROVAL ( #50, ( #150 ) ) ;
#71 = COORDINATED_UNIVERSAL_TIME_OFFSET ( 10, 0, .AHEAD. ) ;
#72 = COORDINATED_UNIVERSAL_TIME_OFFSET ( 10, 0, .AHEAD. ) ;
#73 = CC_DESIGN_APPROVAL ( #202, ( #155 ) ) ;
#74 = ITEM_DEFINED_TRANSFORMATION ( 'NONE', 'NONE', #57,  #69 ) ;
#75 = SECURITY_CLASSIFICATION_LEVEL ( 'unclassified' ) ;
#76 = CC_DESIGN_DATE_AND_TIME_ASSIGNMENT ( #32, #172, ( #155 ) ) ;
#77 = PERSON_AND_ORGANIZATION_ROLE ( 'classification_officer' ) ;
#78 = APPROVAL_PERSON_ORGANIZATION ( #43, #99, #130 ) ;
#79 = APPROVAL_STATUS ( 'not_yet_approved' ) ;
#80 = COORDINATED_UNIVERSAL_TIME_OFFSET ( 10, 0, .AHEAD. ) ;
#81 = OBJECT_ROLE ('mandatory',$ ) ;
#82 = PRODUCT_DEFINITION_SHAPE ( 'NONE', 'NONE',  #215 ) ;
#83 = CC_DESIGN_DATE_AND_TIME_ASSIGNMENT ( #167, #116, ( #96 ) ) ;
#84 = LOCAL_TIME ( 18, 49, 53.00000000000000000, #5 ) ;
#85 = PERSON_AND_ORGANIZATION_ROLE ( 'design_owner' ) ;
#86 = LOCAL_TIME ( 18, 49, 53.00000000000000000, #72 ) ;
#87 = UNCERTAINTY_MEASURE_WITH_UNIT (LENGTH_MEASURE( 1.000000000000000082E-05 ), #107, 'distance_accuracy_value', 'NONE');
#88 = CC_DESIGN_PERSON_AND_ORGANIZATION_ASSIGNMENT ( #110, #2, ( #29 ) ) ;
#89 = MECHANICAL_CONTEXT ( 'NONE', #91, 'mechanical' ) ;
#90 = PERSON_AND_ORGANIZATION_ROLE ( 'design_owner' ) ;
#91 = APPLICATION_CONTEXT ( 'configuration controlled 3d designs of mechanical parts and assemblies' ) ;
#92 = SHAPE_REPRESENTATION ( '6461076016.step', ( #200, #57 ), #143 ) ;
#93 = CC_DESIGN_PERSON_AND_ORGANIZATION_ASSIGNMENT ( #142, #193, ( #134 ) ) ;
#94 = PERSON_AND_ORGANIZATION ( #18446744073709551615, #18446744073709551615 ) ;
#95 = APPROVAL_STATUS ( 'not_yet_approved' ) ;
#96 = SECURITY_CLASSIFICATION ( '', '', #75 ) ;
#97 = APPROVAL_DATE_TIME ( #119, #99 ) ;
#98 =( NAMED_UNIT ( * ) SI_UNIT ( $, .STERADIAN. ) SOLID_ANGLE_UNIT ( ) );
#99 = APPROVAL ( #62, 'Coincident' ) ;
#100 = APPROVAL_PERSON_ORGANIZATION ( #121, #202, #160 ) ;
#101 = PERSON_AND_ORGANIZATION ( #18446744073709551615, #18446744073709551615 ) ;
#102 = PRODUCT_DEFINITION_SHAPE ( 'NONE', 'NONE',  #145 ) ;
#103 = APPROVAL_DATE_TIME ( #170, #127 ) ;
#104 = APPROVAL_ROLE ( '' ) ;
#105 = APPROVAL_PERSON_ORGANIZATION ( #94, #59, #183 ) ;
#106 =( GEOMETRIC_REPRESENTATION_CONTEXT ( 3 ) GLOBAL_UNCERTAINTY_ASSIGNED_CONTEXT ( ( #63 ) ) GLOBAL_UNIT_ASSIGNED_CONTEXT ( ( #163, #28, #98 ) ) REPRESENTATION_CONTEXT ( 'NONE', 'WORKASPACE' ) );
#107 =( LENGTH_UNIT ( ) NAMED_UNIT ( * ) SI_UNIT ( .MILLI., .METRE. ) );
#108 = APPLICATION_PROTOCOL_DEFINITION ( 'international standard', 'config_control_design', 1994, #171 ) ;
#109 = APPROVAL_PERSON_ORGANIZATION ( #19, #38, #113 ) ;
#110 = PERSON_AND_ORGANIZATION ( #18446744073709551615, #18446744073709551615 ) ;
#111 = CALENDAR_DATE ( 2026, 22, 6 ) ;
#112 = PROPERTY_DEFINITION_REPRESENTATION ( #139, #197 ) ;
#113 = APPROVAL_ROLE ( '' ) ;
#114 = LOCAL_TIME ( 18, 49, 53.00000000000000000, #21 ) ;
#115 = PRODUCT_DEFINITION ( 'General', '', #134, #199 ) ;
#116 = DATE_TIME_ROLE ( 'classification_date' ) ;
#117 = LOCAL_TIME ( 18, 49, 53.00000000000000000, #60 ) ;
#118 = DATE_AND_TIME ( #166, #176 ) ;
#119 = DATE_AND_TIME ( #39, #117 ) ;
#120 = CALENDAR_DATE ( 2026, 22, 6 ) ;
#121 = PERSON_AND_ORGANIZATION ( #18446744073709551615, #18446744073709551615 ) ;
#122 = CC_DESIGN_APPROVAL ( #59, ( #145 ) ) ;
#123 = CC_DESIGN_PERSON_AND_ORGANIZATION_ASSIGNMENT ( #189, #152, ( #29 ) ) ;
#124 = PERSON_AND_ORGANIZATION_ROLE ( 'creator' ) ;
#125 = PRODUCT ( '6461076016.step', '6461076016.step', '', ( #89 ) ) ;
#126 = CC_DESIGN_SECURITY_CLASSIFICATION ( #96, ( #215 ) ) ;
#127 = APPROVAL ( #26, 'Coincident' ) ;
#128 = PERSON_AND_ORGANIZATION ( #18446744073709551615, #18446744073709551615 ) ;
#129 = APPLIED_DOCUMENT_REFERENCE ( #48,'',( #145) ) ;
#130 = APPROVAL_ROLE ( '' ) ;
#131 = DATE_AND_TIME ( #16, #86 ) ;
#132 = APPROVAL ( #49, 'Coincident' ) ;
#133 = APPROVAL_DATE_TIME ( #186, #50 ) ;
#134 = PRODUCT_DEFINITION_FORMATION_WITH_SPECIFIED_SOURCE ( 'Symmetric', '', #125, .NOT_KNOWN. ) ;
#135 = ROLE_ASSOCIATION ( #81, #129 ) ;
#136 = PERSON_AND_ORGANIZATION ( #18446744073709551615, #18446744073709551615 ) ;
#137 = APPROVAL_DATE_TIME ( #158, #132 ) ;
#138 = SECURITY_CLASSIFICATION_LEVEL ( 'unclassified' ) ;
#139 = PROPERTY_DEFINITION ('document property','', #48 ) ;
#140 = DATE_AND_TIME ( #192, #191 ) ;
#141 = MECHANICAL_CONTEXT ( 'NONE', #196, 'mechanical' ) ;
#142 = PERSON_AND_ORGANIZATION ( #18446744073709551615, #18446744073709551615 ) ;
#143 =( GEOMETRIC_REPRESENTATION_CONTEXT ( 3 ) GLOBAL_UNCERTAINTY_ASSIGNED_CONTEXT ( ( #87 ) ) GLOBAL_UNIT_ASSIGNED_CONTEXT ( ( #107, #41, #14 ) ) REPRESENTATION_CONTEXT ( 'NONE', 'WORKASPACE' ) );
#144 = CARTESIAN_POINT ( 'NONE',  ( 0.000000000000000000, 0.000000000000000000, 0.000000000000000000 ) ) ;
#145 = PRODUCT_DEFINITION ( 'General', '', #29, #181 ) ;
#146 = DOCUMENT_TYPE ( 'geometry' ) ;
#147 = DIRECTION ( 'NONE',  ( 1.000000000000000000, 0.000000000000000000, 0.000000000000000000 ) ) ;
#148 = IDENTIFICATION_ROLE ( 'external document id and location', $) ;
#149 = CC_DESIGN_SECURITY_CLASSIFICATION ( #155, ( #134 ) ) ;
#150 = SECURITY_CLASSIFICATION ( '', '', #138 ) ;
#151 = APPROVAL_ROLE ( '' ) ;
#152 = PERSON_AND_ORGANIZATION_ROLE ( 'creator' ) ;
#153 = CALENDAR_DATE ( 2026, 22, 6 ) ;
#154 = APPROVAL_DATE_TIME ( #47, #38 ) ;
#155 = SECURITY_CLASSIFICATION ( '', '', #159 ) ;
#156 = LOCAL_TIME ( 18, 49, 53.00000000000000000, #64 ) ;
#157 = DATE_TIME_ROLE ( 'classification_date' ) ;
#158 = DATE_AND_TIME ( #120, #66 ) ;
#159 = SECURITY_CLASSIFICATION_LEVEL ( 'unclassified' ) ;
#160 = APPROVAL_ROLE ( '' ) ;
#161 = CALENDAR_DATE ( 2026, 22, 6 ) ;
#162 = DIRECTION ( 'NONE',  ( 4.890937612370273194E-29, -3.155443620884047222E-30, 0.9999999999999997780 ) ) ;
#163 =( LENGTH_UNIT ( ) NAMED_UNIT ( * ) SI_UNIT ( .MILLI., .METRE. ) );
#164 = CC_DESIGN_DATE_AND_TIME_ASSIGNMENT ( #4, #165, ( #145 ) ) ;
#165 = DATE_TIME_ROLE ( 'creation_date' ) ;
#166 = CALENDAR_DATE ( 2026, 22, 6 ) ;
#167 = DATE_AND_TIME ( #44, #10 ) ;
#168 = PERSON_AND_ORGANIZATION ( #18446744073709551615, #18446744073709551615 ) ;
#169 = EXTERNAL_SOURCE (IDENTIFIER('') ) ;
#170 = DATE_AND_TIME ( #27, #84 ) ;
#171 = APPLICATION_CONTEXT ( 'configuration controlled 3d designs of mechanical parts and assemblies' ) ;
#172 = DATE_TIME_ROLE ( 'classification_date' ) ;
#173 = SHAPE_DEFINITION_REPRESENTATION ( #51, #92 ) ;
#174 = CC_DESIGN_PERSON_AND_ORGANIZATION_ASSIGNMENT ( #128, #85, ( #125 ) ) ;
#175 = COORDINATED_UNIVERSAL_TIME_OFFSET ( 10, 0, .AHEAD. ) ;
#176 = LOCAL_TIME ( 18, 49, 53.00000000000000000, #52 ) ;
#177 = DIRECTION ( 'NONE',  ( 1.000000000000000000, 0.000000000000000000, 0.000000000000000000 ) ) ;
#178 = DIRECTION ( 'NONE',  ( 0.000000000000000000, 0.000000000000000000, 1.000000000000000000 ) ) ;
#179 = CARTESIAN_POINT ( 'NONE',  ( 0.000000000000000000, 0.000000000000000000, 0.000000000000000000 ) ) ;
#180 = LOCAL_TIME ( 18, 49, 53.00000000000000000, #3 ) ;
#181 = DESIGN_CONTEXT ( 'detailed design', #182, 'design' ) ;
#182 = APPLICATION_CONTEXT ( 'configuration controlled 3d designs of mechanical parts and assemblies' ) ;
#183 = APPROVAL_ROLE ( '' ) ;
#184 = SHAPE_DEFINITION_REPRESENTATION ( #102, #197 ) ;
#185 = APPLICATION_PROTOCOL_DEFINITION ( 'international standard', 'config_control_design', 1994, #182 ) ;
#186 = DATE_AND_TIME ( #111, #180 ) ;
#187 = PRODUCT_RELATED_PRODUCT_CATEGORY ( 'detail', '', ( #22 ) ) ;
#188 = PERSON_AND_ORGANIZATION ( #18446744073709551615, #18446744073709551615 ) ;
#189 = PERSON_AND_ORGANIZATION ( #18446744073709551615, #18446744073709551615 ) ;
#190 = CALENDAR_DATE ( 2026, 22, 6 ) ;
#191 = LOCAL_TIME ( 18, 49, 53.00000000000000000, #80 ) ;
#192 = CALENDAR_DATE ( 2026, 22, 6 ) ;
#193 = PERSON_AND_ORGANIZATION_ROLE ( 'creator' ) ;
#194 = PROPERTY_DEFINITION ('external definition','', #48 ) ;
#195 = APPROVAL_PERSON_ORGANIZATION ( #206, #50, #151 ) ;
#196 = APPLICATION_CONTEXT ( 'configuration controlled 3d designs of mechanical parts and assemblies' ) ;
#197 = SHAPE_REPRESENTATION ( 'Extruded-2.step', ( #69 ), #106 ) ;
#198 = APPROVAL_STATUS ( 'not_yet_approved' ) ;
#199 = DESIGN_CONTEXT ( 'detailed design', #171, 'design' ) ;
#200 = AXIS2_PLACEMENT_3D ( 'NONE', #179, #58, #147 ) ;
#201 = PERSON_AND_ORGANIZATION_ROLE ( 'creator' ) ;
#202 = APPROVAL ( #79, 'Coincident' ) ;
#203 = APPROVAL_DATE_TIME ( #131, #59 ) ;
#204 = CONTEXT_DEPENDENT_SHAPE_REPRESENTATION ( #23, #82 ) ;
#205 = CC_DESIGN_PERSON_AND_ORGANIZATION_ASSIGNMENT ( #211, #210, ( #150 ) ) ;
#206 = PERSON_AND_ORGANIZATION ( #18446744073709551615, #18446744073709551615 ) ;
#207 = COORDINATED_UNIVERSAL_TIME_OFFSET ( 10, 0, .AHEAD. ) ;
#208 = PERSON_AND_ORGANIZATION_ROLE ( 'classification_officer' ) ;
#209 = LOCAL_TIME ( 18, 49, 53.00000000000000000, #71 ) ;
#210 = PERSON_AND_ORGANIZATION_ROLE ( 'classification_officer' ) ;
#211 = PERSON_AND_ORGANIZATION ( #18446744073709551615, #18446744073709551615 ) ;
#212 = CC_DESIGN_APPROVAL ( #38, ( #96 ) ) ;
#213 = CC_DESIGN_PERSON_AND_ORGANIZATION_ASSIGNMENT ( #19, #77, ( #96 ) ) ;
#214 = CC_DESIGN_APPROVAL ( #127, ( #115 ) ) ;
#215 = NEXT_ASSEMBLY_USAGE_OCCURRENCE ( 'NAUO50', ' ', ' ', #115, #145, $ ) ;
ENDSEC;
END-ISO-10303-21;
