ISO-10303-21;
HEADER;
FILE_DESCRIPTION (( 'STEP AP203' ),
    '1' );
FILE_NAME ('6461083056.step.STEP',
    '2026-06-22T08:49:52',
    ( 'localuser' ),
    ( '' ),
    'SwSTEP 2.0',
    'SolidWorks 2025',
    '' );
FILE_SCHEMA (( 'CONFIG_CONTROL_DESIGN' ));
ENDSEC;

DATA;
#1 = PERSON_AND_ORGANIZATION_ROLE ( 'creator' ) ;
#2 = APPROVAL_STATUS ( 'not_yet_approved' ) ;
#3 = DIRECTION ( 'NONE',  ( 0.000000000000000000, 0.000000000000000000, 1.000000000000000000 ) ) ;
#4 = APPROVAL_DATE_TIME ( #28, #122 ) ;
#5 = PERSON_AND_ORGANIZATION ( #18446744073709551615, #18446744073709551615 ) ;
#6 = PROPERTY_DEFINITION ('external definition','', #79 ) ;
#7 =( NAMED_UNIT ( * ) PLANE_ANGLE_UNIT ( ) SI_UNIT ( $, .RADIAN. ) );
#8 = APPROVAL_DATE_TIME ( #57, #91 ) ;
#9 = CC_DESIGN_APPROVAL ( #91, ( #103 ) ) ;
#10 = PERSON_AND_ORGANIZATION_ROLE ( 'design_supplier' ) ;
#11 = APPROVAL_ROLE ( '' ) ;
#12 = PERSON_AND_ORGANIZATION ( #18446744073709551615, #18446744073709551615 ) ;
#13 = CARTESIAN_POINT ( 'NONE',  ( 0.000000000000000000, 0.000000000000000000, 0.000000000000000000 ) ) ;
#14 = LOCAL_TIME ( 18, 49, 52.00000000000000000, #81 ) ;
#15 = PERSON_AND_ORGANIZATION ( #18446744073709551615, #18446744073709551615 ) ;
#16 = APPROVAL_STATUS ( 'not_yet_approved' ) ;
#17 = PERSON_AND_ORGANIZATION_ROLE ( 'classification_officer' ) ;
#18 = DATE_AND_TIME ( #64, #47 ) ;
#19 = CC_DESIGN_SECURITY_CLASSIFICATION ( #83, ( #215 ) ) ;
#20 = PRODUCT_RELATED_PRODUCT_CATEGORY ( 'detail', '', ( #140 ) ) ;
#21 = PERSON_AND_ORGANIZATION_ROLE ( 'creator' ) ;
#22 = APPLICATION_PROTOCOL_DEFINITION ( 'international standard', 'config_control_design', 1994, #105 ) ;
#23 = PROPERTY_DEFINITION_REPRESENTATION ( #86, #34 ) ;
#24 = APPROVAL_DATE_TIME ( #176, #186 ) ;
#25 = ITEM_DEFINED_TRANSFORMATION ( 'NONE', 'NONE', #189,  #156 ) ;
#26 = SHAPE_DEFINITION_REPRESENTATION ( #190, #191 ) ;
#27 = DATE_AND_TIME ( #160, #209 ) ;
#28 = DATE_AND_TIME ( #80, #14 ) ;
#29 = PRODUCT_DEFINITION ( 'General', '', #214, #197 ) ;
#30 = PERSON_AND_ORGANIZATION ( #18446744073709551615, #18446744073709551615 ) ;
#31 = DATE_TIME_ROLE ( 'classification_date' ) ;
#32 = PERSON_AND_ORGANIZATION ( #18446744073709551615, #18446744073709551615 ) ;
#33 = DOCUMENT_TYPE ( 'geometry' ) ;
#34 = SHAPE_REPRESENTATION ( 'Extruded.step', ( #156 ), #88 ) ;
#35 = APPROVAL ( #175, 'Coincident' ) ;
#36 = CC_DESIGN_SECURITY_CLASSIFICATION ( #207, ( #110 ) ) ;
#37 =( LENGTH_UNIT ( ) NAMED_UNIT ( * ) SI_UNIT ( .MILLI., .METRE. ) );
#38 = COORDINATED_UNIVERSAL_TIME_OFFSET ( 10, 0, .AHEAD. ) ;
#39 = APPROVAL_STATUS ( 'not_yet_approved' ) ;
#40 = CALENDAR_DATE ( 2026, 22, 6 ) ;
#41 = CC_DESIGN_DATE_AND_TIME_ASSIGNMENT ( #18, #137, ( #207 ) ) ;
#42 = APPROVAL_PERSON_ORGANIZATION ( #12, #186, #58 ) ;
#43 = CALENDAR_DATE ( 2026, 22, 6 ) ;
#44 = COORDINATED_UNIVERSAL_TIME_OFFSET ( 10, 0, .AHEAD. ) ;
#45 = SECURITY_CLASSIFICATION_LEVEL ( 'unclassified' ) ;
#46 = DATE_AND_TIME ( #153, #82 ) ;
#47 = LOCAL_TIME ( 18, 49, 52.00000000000000000, #171 ) ;
#48 = CALENDAR_DATE ( 2026, 22, 6 ) ;
#49 = CARTESIAN_POINT ( 'NONE',  ( 0.000000000000000000, 0.000000000000000000, 0.000000000000000000 ) ) ;
#50 = CC_DESIGN_PERSON_AND_ORGANIZATION_ASSIGNMENT ( #90, #184, ( #103 ) ) ;
#51 = CC_DESIGN_PERSON_AND_ORGANIZATION_ASSIGNMENT ( #128, #21, ( #214 ) ) ;
#52 = OBJECT_ROLE ('mandatory',$ ) ;
#53 = CC_DESIGN_PERSON_AND_ORGANIZATION_ASSIGNMENT ( #5, #101, ( #207 ) ) ;
#54 = CC_DESIGN_APPROVAL ( #68, ( #85 ) ) ;
#55 = APPROVAL_ROLE ( '' ) ;
#56 = PROPERTY_DEFINITION_REPRESENTATION ( #6, #34 ) ;
#57 = DATE_AND_TIME ( #192, #157 ) ;
#58 = APPROVAL_ROLE ( '' ) ;
#59 = CALENDAR_DATE ( 2026, 22, 6 ) ;
#60 = CC_DESIGN_PERSON_AND_ORGANIZATION_ASSIGNMENT ( #32, #199, ( #110 ) ) ;
#61 = DATE_AND_TIME ( #48, #147 ) ;
#62 = APPROVAL_STATUS ( 'not_yet_approved' ) ;
#63 = APPROVAL_DATE_TIME ( #46, #68 ) ;
#64 = CALENDAR_DATE ( 2026, 22, 6 ) ;
#65 = APPROVAL ( #84, 'Coincident' ) ;
#66 = PERSON_AND_ORGANIZATION ( #18446744073709551615, #18446744073709551615 ) ;
#67 = LOCAL_TIME ( 18, 49, 52.00000000000000000, #129 ) ;
#68 = APPROVAL ( #102, 'Coincident' ) ;
#69 = APPROVAL_PERSON_ORGANIZATION ( #99, #91, #55 ) ;
#70 = DESIGN_CONTEXT ( 'detailed design', #98, 'design' ) ;
#71 = SECURITY_CLASSIFICATION_LEVEL ( 'unclassified' ) ;
#72 = LOCAL_TIME ( 18, 49, 52.00000000000000000, #194 ) ;
#73 = DATE_AND_TIME ( #193, #208 ) ;
#74 = SHAPE_DEFINITION_REPRESENTATION ( #106, #34 ) ;
#75 = PERSON_AND_ORGANIZATION ( #18446744073709551615, #18446744073709551615 ) ;
#76 =( GEOMETRIC_REPRESENTATION_CONTEXT ( 3 ) GLOBAL_UNCERTAINTY_ASSIGNED_CONTEXT ( ( #138 ) ) GLOBAL_UNIT_ASSIGNED_CONTEXT ( ( #119, #168, #204 ) ) REPRESENTATION_CONTEXT ( 'NONE', 'WORKASPACE' ) );
#77 = APPROVAL_PERSON_ORGANIZATION ( #100, #65, #180 ) ;
#78 = COORDINATED_UNIVERSAL_TIME_OFFSET ( 10, 0, .AHEAD. ) ;
#79 = DOCUMENT_FILE ( 'Extruded.step.STEP' , '', '', #33, '' ,$ ) ;
#80 = CALENDAR_DATE ( 2026, 22, 6 ) ;
#81 = COORDINATED_UNIVERSAL_TIME_OFFSET ( 10, 0, .AHEAD. ) ;
#82 = LOCAL_TIME ( 18, 49, 52.00000000000000000, #202 ) ;
#83 = SECURITY_CLASSIFICATION ( '', '', #71 ) ;
#84 = APPROVAL_STATUS ( 'not_yet_approved' ) ;
#85 = PRODUCT_DEFINITION ( 'General', '', #110, #70 ) ;
#86 = PROPERTY_DEFINITION ('document property','', #79 ) ;
#87 = CC_DESIGN_PERSON_AND_ORGANIZATION_ASSIGNMENT ( #75, #1, ( #29 ) ) ;
#88 =( GEOMETRIC_REPRESENTATION_CONTEXT ( 3 ) GLOBAL_UNCERTAINTY_ASSIGNED_CONTEXT ( ( #93 ) ) GLOBAL_UNIT_ASSIGNED_CONTEXT ( ( #37, #7, #125 ) ) REPRESENTATION_CONTEXT ( 'NONE', 'WORKASPACE' ) );
#89 = CC_DESIGN_APPROVAL ( #162, ( #83 ) ) ;
#90 = PERSON_AND_ORGANIZATION ( #18446744073709551615, #18446744073709551615 ) ;
#91 = APPROVAL ( #62, 'Coincident' ) ;
#92 = MECHANICAL_CONTEXT ( 'NONE', #105, 'mechanical' ) ;
#93 = UNCERTAINTY_MEASURE_WITH_UNIT (LENGTH_MEASURE( 1.000000000000000082E-05 ), #37, 'distance_accuracy_value', 'NONE');
#94 = APPLICATION_PROTOCOL_DEFINITION ( 'international standard', 'config_control_design', 1994, #131 ) ;
#95 = APPROVAL_DATE_TIME ( #111, #162 ) ;
#96 = CC_DESIGN_DATE_AND_TIME_ASSIGNMENT ( #61, #117, ( #85 ) ) ;
#97 = PERSON_AND_ORGANIZATION_ROLE ( 'design_owner' ) ;
#98 = APPLICATION_CONTEXT ( 'configuration controlled 3d designs of mechanical parts and assemblies' ) ;
#99 = PERSON_AND_ORGANIZATION ( #18446744073709551615, #18446744073709551615 ) ;
#100 = PERSON_AND_ORGANIZATION ( #18446744073709551615, #18446744073709551615 ) ;
#101 = PERSON_AND_ORGANIZATION_ROLE ( 'classification_officer' ) ;
#102 = APPROVAL_STATUS ( 'not_yet_approved' ) ;
#103 = SECURITY_CLASSIFICATION ( '', '', #115 ) ;
#104 = CONTEXT_DEPENDENT_SHAPE_REPRESENTATION ( #165, #144 ) ;
#105 = APPLICATION_CONTEXT ( 'configuration controlled 3d designs of mechanical parts and assemblies' ) ;
#106 = PRODUCT_DEFINITION_SHAPE ( 'NONE', 'NONE',  #29 ) ;
#107 = APPROVAL_PERSON_ORGANIZATION ( #66, #68, #169 ) ;
#108 = MECHANICAL_CONTEXT ( 'NONE', #172, 'mechanical' ) ;
#109 = CALENDAR_DATE ( 2026, 22, 6 ) ;
#110 = PRODUCT_DEFINITION_FORMATION_WITH_SPECIFIED_SOURCE ( 'Symmetric', '', #140, .NOT_KNOWN. ) ;
#111 = DATE_AND_TIME ( #40, #72 ) ;
#112 = APPROVAL_PERSON_ORGANIZATION ( #150, #162, #11 ) ;
#113 = DIRECTION ( 'NONE',  ( 0.000000000000000000, 0.000000000000000000, 1.000000000000000000 ) ) ;
#114 = PERSON_AND_ORGANIZATION ( #18446744073709551615, #18446744073709551615 ) ;
#115 = SECURITY_CLASSIFICATION_LEVEL ( 'unclassified' ) ;
#116 = DIRECTION ( 'NONE',  ( 1.000000000000000222, -1.092455418989176591E-28, 4.890937612370273194E-29 ) ) ;
#117 = DATE_TIME_ROLE ( 'creation_date' ) ;
#118 = CC_DESIGN_DATE_AND_TIME_ASSIGNMENT ( #127, #148, ( #29 ) ) ;
#119 =( LENGTH_UNIT ( ) NAMED_UNIT ( * ) SI_UNIT ( .MILLI., .METRE. ) );
#120 = COORDINATED_UNIVERSAL_TIME_OFFSET ( 10, 0, .AHEAD. ) ;
#121 = LOCAL_TIME ( 18, 49, 52.00000000000000000, #212 ) ;
#122 = APPROVAL ( #16, 'Coincident' ) ;
#123 = CC_DESIGN_PERSON_AND_ORGANIZATION_ASSIGNMENT ( #150, #17, ( #83 ) ) ;
#124 = PRODUCT ( 'Extruded.step', 'Extruded.step', '', ( #108 ) ) ;
#125 =( NAMED_UNIT ( * ) SI_UNIT ( $, .STERADIAN. ) SOLID_ANGLE_UNIT ( ) );
#126 = EXTERNAL_SOURCE (IDENTIFIER('') ) ;
#127 = DATE_AND_TIME ( #59, #67 ) ;
#128 = PERSON_AND_ORGANIZATION ( #18446744073709551615, #18446744073709551615 ) ;
#129 = COORDINATED_UNIVERSAL_TIME_OFFSET ( 10, 0, .AHEAD. ) ;
#130 = CC_DESIGN_PERSON_AND_ORGANIZATION_ASSIGNMENT ( #30, #158, ( #110 ) ) ;
#131 = APPLICATION_CONTEXT ( 'configuration controlled 3d designs of mechanical parts and assemblies' ) ;
#132 = APPROVAL_ROLE ( '' ) ;
#133 = PERSON_AND_ORGANIZATION ( #18446744073709551615, #18446744073709551615 ) ;
#134 = APPLIED_DOCUMENT_REFERENCE ( #79,'',( #29) ) ;
#135 = DIRECTION ( 'NONE',  ( 1.000000000000000000, 0.000000000000000000, 0.000000000000000000 ) ) ;
#136 = LOCAL_TIME ( 18, 49, 52.00000000000000000, #44 ) ;
#137 = DATE_TIME_ROLE ( 'classification_date' ) ;
#138 = UNCERTAINTY_MEASURE_WITH_UNIT (LENGTH_MEASURE( 1.000000000000000082E-05 ), #119, 'distance_accuracy_value', 'NONE');
#139 = PERSON_AND_ORGANIZATION_ROLE ( 'creator' ) ;
#140 = PRODUCT ( '6461083056.step', '6461083056.step', '', ( #92 ) ) ;
#141 = CC_DESIGN_PERSON_AND_ORGANIZATION_ASSIGNMENT ( #177, #170, ( #140 ) ) ;
#142 = CC_DESIGN_APPROVAL ( #65, ( #207 ) ) ;
#143 = CC_DESIGN_PERSON_AND_ORGANIZATION_ASSIGNMENT ( #161, #10, ( #214 ) ) ;
#144 = PRODUCT_DEFINITION_SHAPE ( 'NONE', 'NONE',  #215 ) ;
#145 = APPLIED_EXTERNAL_IDENTIFICATION_ASSIGNMENT ( 'Extruded.step.STEP' , #213, #126,( #79) ) ;
#146 = PRODUCT_RELATED_PRODUCT_CATEGORY ( 'detail', '', ( #124 ) ) ;
#147 = LOCAL_TIME ( 18, 49, 52.00000000000000000, #120 ) ;
#148 = DATE_TIME_ROLE ( 'creation_date' ) ;
#149 = DATE_AND_TIME ( #211, #136 ) ;
#150 = PERSON_AND_ORGANIZATION ( #181, #195 ) ;
#151 = DATE_AND_TIME ( #109, #121 ) ;
#152 = DIRECTION ( 'NONE',  ( 1.000000000000000000, 0.000000000000000000, 0.000000000000000000 ) ) ;
#153 = CALENDAR_DATE ( 2026, 22, 6 ) ;
#154 = DIRECTION ( 'NONE',  ( 4.890937612370273194E-29, -3.155443620884047222E-30, 0.9999999999999997780 ) ) ;
#155 = ROLE_ASSOCIATION ( #52, #134 ) ;
#156 = AXIS2_PLACEMENT_3D ( 'NONE', #13, #113, #152 ) ;
#157 = LOCAL_TIME ( 18, 49, 52.00000000000000000, #167 ) ;
#158 = PERSON_AND_ORGANIZATION_ROLE ( 'creator' ) ;
#159 = AXIS2_PLACEMENT_3D ( 'NONE', #200, #3, #135 ) ;
#160 = CALENDAR_DATE ( 2026, 22, 6 ) ;
#161 = PERSON_AND_ORGANIZATION ( #18446744073709551615, #18446744073709551615 ) ;
#162 = APPROVAL ( #2, 'UNKNOWN' ) ;
#163 = COORDINATED_UNIVERSAL_TIME_OFFSET ( 10, 0, .AHEAD. ) ;
#164 = PERSON_AND_ORGANIZATION ( #18446744073709551615, #18446744073709551615 ) ;
#165 =( REPRESENTATION_RELATIONSHIP ('NONE','NONE', #191, #34 ) REPRESENTATION_RELATIONSHIP_WITH_TRANSFORMATION ( #25 )SHAPE_REPRESENTATION_RELATIONSHIP( ) );
#166 = CC_DESIGN_SECURITY_CLASSIFICATION ( #103, ( #214 ) ) ;
#167 = COORDINATED_UNIVERSAL_TIME_OFFSET ( 10, 0, .AHEAD. ) ;
#168 =( NAMED_UNIT ( * ) PLANE_ANGLE_UNIT ( ) SI_UNIT ( $, .RADIAN. ) );
#169 = APPROVAL_ROLE ( '' ) ;
#170 = PERSON_AND_ORGANIZATION_ROLE ( 'design_owner' ) ;
#171 = COORDINATED_UNIVERSAL_TIME_OFFSET ( 10, 0, .AHEAD. ) ;
#172 = APPLICATION_CONTEXT ( 'configuration controlled 3d designs of mechanical parts and assemblies' ) ;
#173 = CC_DESIGN_APPROVAL ( #35, ( #214 ) ) ;
#174 = CC_DESIGN_DATE_AND_TIME_ASSIGNMENT ( #73, #31, ( #83 ) ) ;
#175 = APPROVAL_STATUS ( 'not_yet_approved' ) ;
#176 = DATE_AND_TIME ( #43, #205 ) ;
#177 = PERSON_AND_ORGANIZATION ( #18446744073709551615, #18446744073709551615 ) ;
#178 = CC_DESIGN_APPROVAL ( #122, ( #110 ) ) ;
#179 = APPROVAL_PERSON_ORGANIZATION ( #114, #35, #132 ) ;
#180 = APPROVAL_ROLE ( '' ) ;
#181 = PERSON ( 'NAUO-PER35', 'UNSPECIFIED', 'UNSPECIFIED', ('UNSPECIFIED'), ('UNSPECIFIED'), ('UNSPECIFIED') ) ;
#182 = APPROVAL_DATE_TIME ( #151, #65 ) ;
#183 = CC_DESIGN_DATE_AND_TIME_ASSIGNMENT ( #27, #196, ( #103 ) ) ;
#184 = PERSON_AND_ORGANIZATION_ROLE ( 'classification_officer' ) ;
#185 = APPLICATION_PROTOCOL_DEFINITION ( 'international standard', 'config_control_design', 1994, #98 ) ;
#186 = APPROVAL ( #39, 'Coincident' ) ;
#187 = APPROVAL_ROLE ( '' ) ;
#188 = APPROVAL_PERSON_ORGANIZATION ( #133, #122, #187 ) ;
#189 = AXIS2_PLACEMENT_3D ( 'NONE', #49, #154, #116 ) ;
#190 = PRODUCT_DEFINITION_SHAPE ( 'NONE', 'NONE',  #85 ) ;
#191 = SHAPE_REPRESENTATION ( '6461083056.step', ( #159, #189 ), #76 ) ;
#192 = CALENDAR_DATE ( 2026, 22, 6 ) ;
#193 = CALENDAR_DATE ( 2026, 22, 6 ) ;
#194 = COORDINATED_UNIVERSAL_TIME_OFFSET ( 10, 0, .AHEAD. ) ;
#195 = ORGANIZATION ( 'NAUO-ORG35', 'UNSPECIFIED', 'UNSPECIFIED' ) ;
#196 = DATE_TIME_ROLE ( 'classification_date' ) ;
#197 = DESIGN_CONTEXT ( 'detailed design', #131, 'design' ) ;
#198 = APPLICATION_PROTOCOL_DEFINITION ( 'international standard', 'config_control_design', 1994, #172 ) ;
#199 = PERSON_AND_ORGANIZATION_ROLE ( 'design_supplier' ) ;
#200 = CARTESIAN_POINT ( 'NONE',  ( 0.000000000000000000, 0.000000000000000000, 0.000000000000000000 ) ) ;
#201 = CC_DESIGN_APPROVAL ( #186, ( #29 ) ) ;
#202 = COORDINATED_UNIVERSAL_TIME_OFFSET ( 10, 0, .AHEAD. ) ;
#203 = CC_DESIGN_PERSON_AND_ORGANIZATION_ASSIGNMENT ( #15, #139, ( #85 ) ) ;
#204 =( NAMED_UNIT ( * ) SI_UNIT ( $, .STERADIAN. ) SOLID_ANGLE_UNIT ( ) );
#205 = LOCAL_TIME ( 18, 49, 52.00000000000000000, #163 ) ;
#206 = CC_DESIGN_PERSON_AND_ORGANIZATION_ASSIGNMENT ( #164, #97, ( #124 ) ) ;
#207 = SECURITY_CLASSIFICATION ( '', '', #45 ) ;
#208 = LOCAL_TIME ( 18, 49, 52.00000000000000000, #38 ) ;
#209 = LOCAL_TIME ( 18, 49, 52.00000000000000000, #78 ) ;
#210 = APPROVAL_DATE_TIME ( #149, #35 ) ;
#211 = CALENDAR_DATE ( 2026, 22, 6 ) ;
#212 = COORDINATED_UNIVERSAL_TIME_OFFSET ( 10, 0, .AHEAD. ) ;
#213 = IDENTIFICATION_ROLE ( 'external document id and location', $) ;
#214 = PRODUCT_DEFINITION_FORMATION_WITH_SPECIFIED_SOURCE ( 'Symmetric', '', #124, .NOT_KNOWN. ) ;
#215 = NEXT_ASSEMBLY_USAGE_OCCURRENCE ( 'NAUO35', ' ', ' ', #85, #29, $ ) ;
ENDSEC;
END-ISO-10303-21;
