ISO-10303-21;
HEADER;
FILE_DESCRIPTION (( 'STEP AP203' ),
    '1' );
FILE_NAME ('6461081856.step.STEP',
    '2026-06-22T08:50:00',
    ( 'localuser' ),
    ( '' ),
    'SwSTEP 2.0',
    'SolidWorks 2025',
    '' );
FILE_SCHEMA (( 'CONFIG_CONTROL_DESIGN' ));
ENDSEC;

DATA;
#1 = APPROVAL_STATUS ( 'not_yet_approved' ) ;
#2 = PERSON_AND_ORGANIZATION ( #18446744073709551615, #18446744073709551615 ) ;
#3 = CC_DESIGN_APPROVAL ( #111, ( #209 ) ) ;
#4 = PRODUCT ( '6461081856.step', '6461081856.step', '', ( #110 ) ) ;
#5 = CALENDAR_DATE ( 2026, 22, 6 ) ;
#6 = APPROVAL_PERSON_ORGANIZATION ( #35, #121, #19 ) ;
#7 = DIRECTION ( 'NONE',  ( 1.000000000000000000, 0.000000000000000000, 0.000000000000000000 ) ) ;
#8 = LOCAL_TIME ( 18, 50, 0.000000000000000000, #98 ) ;
#9 = PRODUCT ( 'Extruded-16.step', 'Extruded-16.step', '', ( #95 ) ) ;
#10 = CALENDAR_DATE ( 2026, 22, 6 ) ;
#11 = PERSON_AND_ORGANIZATION_ROLE ( 'creator' ) ;
#12 = CC_DESIGN_PERSON_AND_ORGANIZATION_ASSIGNMENT ( #114, #11, ( #124 ) ) ;
#13 = DATE_AND_TIME ( #118, #102 ) ;
#14 =( GEOMETRIC_REPRESENTATION_CONTEXT ( 3 ) GLOBAL_UNCERTAINTY_ASSIGNED_CONTEXT ( ( #135 ) ) GLOBAL_UNIT_ASSIGNED_CONTEXT ( ( #208, #55, #125 ) ) REPRESENTATION_CONTEXT ( 'NONE', 'WORKASPACE' ) );
#15 = APPROVAL_STATUS ( 'not_yet_approved' ) ;
#16 = DATE_AND_TIME ( #10, #44 ) ;
#17 = CC_DESIGN_APPROVAL ( #121, ( #137 ) ) ;
#18 = CC_DESIGN_DATE_AND_TIME_ASSIGNMENT ( #120, #101, ( #176 ) ) ;
#19 = APPROVAL_ROLE ( '' ) ;
#20 = APPROVAL_STATUS ( 'not_yet_approved' ) ;
#21 = DATE_AND_TIME ( #173, #199 ) ;
#22 = CC_DESIGN_SECURITY_CLASSIFICATION ( #51, ( #179 ) ) ;
#23 = DIRECTION ( 'NONE',  ( 4.890937612370273194E-29, -3.155443620884047222E-30, 0.9999999999999997780 ) ) ;
#24 = CALENDAR_DATE ( 2026, 22, 6 ) ;
#25 = PERSON_AND_ORGANIZATION_ROLE ( 'classification_officer' ) ;
#26 = CC_DESIGN_PERSON_AND_ORGANIZATION_ASSIGNMENT ( #2, #198, ( #124 ) ) ;
#27 = PERSON_AND_ORGANIZATION ( #18446744073709551615, #18446744073709551615 ) ;
#28 = CALENDAR_DATE ( 2026, 22, 6 ) ;
#29 = PERSON_AND_ORGANIZATION_ROLE ( 'creator' ) ;
#30 = LOCAL_TIME ( 18, 50, 0.000000000000000000, #153 ) ;
#31 = PROPERTY_DEFINITION ('document property','', #57 ) ;
#32 = PERSON_AND_ORGANIZATION ( #18446744073709551615, #18446744073709551615 ) ;
#33 = CALENDAR_DATE ( 2026, 22, 6 ) ;
#34 = LOCAL_TIME ( 18, 50, 0.000000000000000000, #77 ) ;
#35 = PERSON_AND_ORGANIZATION ( #18446744073709551615, #18446744073709551615 ) ;
#36 = SHAPE_REPRESENTATION ( '6461081856.step', ( #127, #207 ), #14 ) ;
#37 = APPROVAL_PERSON_ORGANIZATION ( #178, #106, #201 ) ;
#38 = CC_DESIGN_DATE_AND_TIME_ASSIGNMENT ( #13, #117, ( #51 ) ) ;
#39 = CC_DESIGN_DATE_AND_TIME_ASSIGNMENT ( #132, #152, ( #209 ) ) ;
#40 = CC_DESIGN_APPROVAL ( #156, ( #176 ) ) ;
#41 = APPROVAL ( #58, 'Coincident' ) ;
#42 = DIRECTION ( 'NONE',  ( 0.000000000000000000, 0.000000000000000000, 1.000000000000000000 ) ) ;
#43 = CARTESIAN_POINT ( 'NONE',  ( 0.000000000000000000, 0.000000000000000000, 0.000000000000000000 ) ) ;
#44 = LOCAL_TIME ( 18, 50, 0.000000000000000000, #165 ) ;
#45 = DATE_AND_TIME ( #28, #194 ) ;
#46 = PERSON_AND_ORGANIZATION_ROLE ( 'design_supplier' ) ;
#47 = DATE_TIME_ROLE ( 'creation_date' ) ;
#48 = APPROVAL_DATE_TIME ( #214, #111 ) ;
#49 = APPROVAL_PERSON_ORGANIZATION ( #105, #156, #168 ) ;
#50 = PRODUCT_DEFINITION ( 'General', '', #179, #160 ) ;
#51 = SECURITY_CLASSIFICATION ( '', '', #184 ) ;
#52 = CC_DESIGN_PERSON_AND_ORGANIZATION_ASSIGNMENT ( #32, #131, ( #51 ) ) ;
#53 = CC_DESIGN_APPROVAL ( #175, ( #50 ) ) ;
#54 =( NAMED_UNIT ( * ) SI_UNIT ( $, .STERADIAN. ) SOLID_ANGLE_UNIT ( ) );
#55 =( NAMED_UNIT ( * ) PLANE_ANGLE_UNIT ( ) SI_UNIT ( $, .RADIAN. ) );
#56 = CC_DESIGN_DATE_AND_TIME_ASSIGNMENT ( #59, #47, ( #50 ) ) ;
#57 = DOCUMENT_FILE ( 'Extruded-16.step.STEP' , '', '', #181, '' ,$ ) ;
#58 = APPROVAL_STATUS ( 'not_yet_approved' ) ;
#59 = DATE_AND_TIME ( #24, #203 ) ;
#60 = CALENDAR_DATE ( 2026, 22, 6 ) ;
#61 = CALENDAR_DATE ( 2026, 22, 6 ) ;
#62 = SECURITY_CLASSIFICATION_LEVEL ( 'unclassified' ) ;
#63 = CC_DESIGN_APPROVAL ( #41, ( #179 ) ) ;
#64 = PERSON ( 'NAUO-PER292', 'UNSPECIFIED', 'UNSPECIFIED', ('UNSPECIFIED'), ('UNSPECIFIED'), ('UNSPECIFIED') ) ;
#65 = CC_DESIGN_PERSON_AND_ORGANIZATION_ASSIGNMENT ( #134, #25, ( #137 ) ) ;
#66 = APPROVAL_STATUS ( 'not_yet_approved' ) ;
#67 = PERSON_AND_ORGANIZATION_ROLE ( 'classification_officer' ) ;
#68 = DATE_AND_TIME ( #5, #155 ) ;
#69 = COORDINATED_UNIVERSAL_TIME_OFFSET ( 10, 0, .AHEAD. ) ;
#70 = APPLICATION_CONTEXT ( 'configuration controlled 3d designs of mechanical parts and assemblies' ) ;
#71 = PERSON_AND_ORGANIZATION ( #18446744073709551615, #18446744073709551615 ) ;
#72 = CC_DESIGN_PERSON_AND_ORGANIZATION_ASSIGNMENT ( #182, #166, ( #179 ) ) ;
#73 = PERSON_AND_ORGANIZATION ( #18446744073709551615, #18446744073709551615 ) ;
#74 = CALENDAR_DATE ( 2026, 22, 6 ) ;
#75 = PRODUCT_RELATED_PRODUCT_CATEGORY ( 'detail', '', ( #9 ) ) ;
#76 = CC_DESIGN_SECURITY_CLASSIFICATION ( #176, ( #215 ) ) ;
#77 = COORDINATED_UNIVERSAL_TIME_OFFSET ( 10, 0, .AHEAD. ) ;
#78 = APPROVAL_DATE_TIME ( #45, #148 ) ;
#79 = CC_DESIGN_PERSON_AND_ORGANIZATION_ASSIGNMENT ( #73, #46, ( #179 ) ) ;
#80 = APPLICATION_PROTOCOL_DEFINITION ( 'international standard', 'config_control_design', 1994, #170 ) ;
#81 = CC_DESIGN_PERSON_AND_ORGANIZATION_ASSIGNMENT ( #185, #29, ( #209 ) ) ;
#82 = PROPERTY_DEFINITION_REPRESENTATION ( #180, #210 ) ;
#83 = PROPERTY_DEFINITION_REPRESENTATION ( #31, #210 ) ;
#84 = APPLIED_EXTERNAL_IDENTIFICATION_ASSIGNMENT ( 'Extruded-16.step.STEP' , #206, #186,( #57) ) ;
#85 = ITEM_DEFINED_TRANSFORMATION ( 'NONE', 'NONE', #207,  #193 ) ;
#86 = COORDINATED_UNIVERSAL_TIME_OFFSET ( 10, 0, .AHEAD. ) ;
#87 = PERSON_AND_ORGANIZATION_ROLE ( 'creator' ) ;
#88 = LOCAL_TIME ( 18, 50, 0.000000000000000000, #69 ) ;
#89 = DIRECTION ( 'NONE',  ( 0.000000000000000000, 0.000000000000000000, 1.000000000000000000 ) ) ;
#90 = UNCERTAINTY_MEASURE_WITH_UNIT (LENGTH_MEASURE( 1.000000000000000082E-05 ), #141, 'distance_accuracy_value', 'NONE');
#91 = CC_DESIGN_PERSON_AND_ORGANIZATION_ASSIGNMENT ( #105, #67, ( #176 ) ) ;
#92 = APPROVAL_PERSON_ORGANIZATION ( #71, #175, #128 ) ;
#93 = PERSON_AND_ORGANIZATION_ROLE ( 'design_owner' ) ;
#94 = DATE_TIME_ROLE ( 'classification_date' ) ;
#95 = MECHANICAL_CONTEXT ( 'NONE', #170, 'mechanical' ) ;
#96 = CC_DESIGN_PERSON_AND_ORGANIZATION_ASSIGNMENT ( #113, #87, ( #50 ) ) ;
#97 =( GEOMETRIC_REPRESENTATION_CONTEXT ( 3 ) GLOBAL_UNCERTAINTY_ASSIGNED_CONTEXT ( ( #90 ) ) GLOBAL_UNIT_ASSIGNED_CONTEXT ( ( #141, #195, #54 ) ) REPRESENTATION_CONTEXT ( 'NONE', 'WORKASPACE' ) );
#98 = COORDINATED_UNIVERSAL_TIME_OFFSET ( 10, 0, .AHEAD. ) ;
#99 = APPROVAL_STATUS ( 'not_yet_approved' ) ;
#100 = DATE_AND_TIME ( #33, #88 ) ;
#101 = DATE_TIME_ROLE ( 'classification_date' ) ;
#102 = LOCAL_TIME ( 18, 50, 0.000000000000000000, #200 ) ;
#103 = CONTEXT_DEPENDENT_SHAPE_REPRESENTATION ( #174, #112 ) ;
#104 = SECURITY_CLASSIFICATION_LEVEL ( 'unclassified' ) ;
#105 = PERSON_AND_ORGANIZATION ( #64, #187 ) ;
#106 = APPROVAL ( #1, 'Coincident' ) ;
#107 = CARTESIAN_POINT ( 'NONE',  ( 0.000000000000000000, 0.000000000000000000, 0.000000000000000000 ) ) ;
#108 = PERSON_AND_ORGANIZATION_ROLE ( 'design_owner' ) ;
#109 = APPROVAL_PERSON_ORGANIZATION ( #164, #111, #149 ) ;
#110 = MECHANICAL_CONTEXT ( 'NONE', #189, 'mechanical' ) ;
#111 = APPROVAL ( #15, 'Coincident' ) ;
#112 = PRODUCT_DEFINITION_SHAPE ( 'NONE', 'NONE',  #215 ) ;
#113 = PERSON_AND_ORGANIZATION ( #18446744073709551615, #18446744073709551615 ) ;
#114 = PERSON_AND_ORGANIZATION ( #18446744073709551615, #18446744073709551615 ) ;
#115 = APPROVAL_PERSON_ORGANIZATION ( #204, #41, #188 ) ;
#116 = COORDINATED_UNIVERSAL_TIME_OFFSET ( 10, 0, .AHEAD. ) ;
#117 = DATE_TIME_ROLE ( 'classification_date' ) ;
#118 = CALENDAR_DATE ( 2026, 22, 6 ) ;
#119 = APPROVAL_DATE_TIME ( #133, #106 ) ;
#120 = DATE_AND_TIME ( #191, #30 ) ;
#121 = APPROVAL ( #66, 'Coincident' ) ;
#122 = CC_DESIGN_APPROVAL ( #148, ( #51 ) ) ;
#123 = APPROVAL_STATUS ( 'not_yet_approved' ) ;
#124 = PRODUCT_DEFINITION_FORMATION_WITH_SPECIFIED_SOURCE ( 'Symmetric', '', #9, .NOT_KNOWN. ) ;
#125 =( NAMED_UNIT ( * ) SI_UNIT ( $, .STERADIAN. ) SOLID_ANGLE_UNIT ( ) );
#126 = PRODUCT_DEFINITION_SHAPE ( 'NONE', 'NONE',  #209 ) ;
#127 = AXIS2_PLACEMENT_3D ( 'NONE', #107, #89, #129 ) ;
#128 = APPROVAL_ROLE ( '' ) ;
#129 = DIRECTION ( 'NONE',  ( 1.000000000000000000, 0.000000000000000000, 0.000000000000000000 ) ) ;
#130 = COORDINATED_UNIVERSAL_TIME_OFFSET ( 10, 0, .AHEAD. ) ;
#131 = PERSON_AND_ORGANIZATION_ROLE ( 'classification_officer' ) ;
#132 = DATE_AND_TIME ( #60, #157 ) ;
#133 = DATE_AND_TIME ( #61, #8 ) ;
#134 = PERSON_AND_ORGANIZATION ( #18446744073709551615, #18446744073709551615 ) ;
#135 = UNCERTAINTY_MEASURE_WITH_UNIT (LENGTH_MEASURE( 1.000000000000000082E-05 ), #208, 'distance_accuracy_value', 'NONE');
#136 = ROLE_ASSOCIATION ( #158, #169 ) ;
#137 = SECURITY_CLASSIFICATION ( '', '', #62 ) ;
#138 = APPROVAL_DATE_TIME ( #68, #156 ) ;
#139 = APPROVAL_DATE_TIME ( #100, #121 ) ;
#140 = CC_DESIGN_PERSON_AND_ORGANIZATION_ASSIGNMENT ( #27, #93, ( #9 ) ) ;
#141 =( LENGTH_UNIT ( ) NAMED_UNIT ( * ) SI_UNIT ( .MILLI., .METRE. ) );
#142 = CC_DESIGN_DATE_AND_TIME_ASSIGNMENT ( #162, #94, ( #137 ) ) ;
#143 = LOCAL_TIME ( 18, 50, 0.000000000000000000, #116 ) ;
#144 = DIRECTION ( 'NONE',  ( 1.000000000000000222, -1.092455418989176591E-28, 4.890937612370273194E-29 ) ) ;
#145 = APPROVAL_ROLE ( '' ) ;
#146 = COORDINATED_UNIVERSAL_TIME_OFFSET ( 10, 0, .AHEAD. ) ;
#147 = CC_DESIGN_SECURITY_CLASSIFICATION ( #137, ( #124 ) ) ;
#148 = APPROVAL ( #99, 'Coincident' ) ;
#149 = APPROVAL_ROLE ( '' ) ;
#150 = APPLICATION_CONTEXT ( 'configuration controlled 3d designs of mechanical parts and assemblies' ) ;
#151 = SHAPE_DEFINITION_REPRESENTATION ( #183, #36 ) ;
#152 = DATE_TIME_ROLE ( 'creation_date' ) ;
#153 = COORDINATED_UNIVERSAL_TIME_OFFSET ( 10, 0, .AHEAD. ) ;
#154 = SHAPE_DEFINITION_REPRESENTATION ( #126, #210 ) ;
#155 = LOCAL_TIME ( 18, 50, 0.000000000000000000, #171 ) ;
#156 = APPROVAL ( #123, 'UNKNOWN' ) ;
#157 = LOCAL_TIME ( 18, 50, 0.000000000000000000, #130 ) ;
#158 = OBJECT_ROLE ('mandatory',$ ) ;
#159 = APPLICATION_PROTOCOL_DEFINITION ( 'international standard', 'config_control_design', 1994, #70 ) ;
#160 = DESIGN_CONTEXT ( 'detailed design', #70, 'design' ) ;
#161 = CARTESIAN_POINT ( 'NONE',  ( 0.000000000000000000, 0.000000000000000000, 0.000000000000000000 ) ) ;
#162 = DATE_AND_TIME ( #74, #143 ) ;
#163 = DESIGN_CONTEXT ( 'detailed design', #150, 'design' ) ;
#164 = PERSON_AND_ORGANIZATION ( #18446744073709551615, #18446744073709551615 ) ;
#165 = COORDINATED_UNIVERSAL_TIME_OFFSET ( 10, 0, .AHEAD. ) ;
#166 = PERSON_AND_ORGANIZATION_ROLE ( 'creator' ) ;
#167 = PERSON_AND_ORGANIZATION ( #18446744073709551615, #18446744073709551615 ) ;
#168 = APPROVAL_ROLE ( '' ) ;
#169 = APPLIED_DOCUMENT_REFERENCE ( #57,'',( #209) ) ;
#170 = APPLICATION_CONTEXT ( 'configuration controlled 3d designs of mechanical parts and assemblies' ) ;
#171 = COORDINATED_UNIVERSAL_TIME_OFFSET ( 10, 0, .AHEAD. ) ;
#172 = PERSON_AND_ORGANIZATION ( #18446744073709551615, #18446744073709551615 ) ;
#173 = CALENDAR_DATE ( 2026, 22, 6 ) ;
#174 =( REPRESENTATION_RELATIONSHIP ('NONE','NONE', #36, #210 ) REPRESENTATION_RELATIONSHIP_WITH_TRANSFORMATION ( #85 )SHAPE_REPRESENTATION_RELATIONSHIP( ) );
#175 = APPROVAL ( #20, 'Coincident' ) ;
#176 = SECURITY_CLASSIFICATION ( '', '', #104 ) ;
#177 = COORDINATED_UNIVERSAL_TIME_OFFSET ( 10, 0, .AHEAD. ) ;
#178 = PERSON_AND_ORGANIZATION ( #18446744073709551615, #18446744073709551615 ) ;
#179 = PRODUCT_DEFINITION_FORMATION_WITH_SPECIFIED_SOURCE ( 'Symmetric', '', #4, .NOT_KNOWN. ) ;
#180 = PROPERTY_DEFINITION ('external definition','', #57 ) ;
#181 = DOCUMENT_TYPE ( 'geometry' ) ;
#182 = PERSON_AND_ORGANIZATION ( #18446744073709551615, #18446744073709551615 ) ;
#183 = PRODUCT_DEFINITION_SHAPE ( 'NONE', 'NONE',  #50 ) ;
#184 = SECURITY_CLASSIFICATION_LEVEL ( 'unclassified' ) ;
#185 = PERSON_AND_ORGANIZATION ( #18446744073709551615, #18446744073709551615 ) ;
#186 = EXTERNAL_SOURCE (IDENTIFIER('') ) ;
#187 = ORGANIZATION ( 'NAUO-ORG292', 'UNSPECIFIED', 'UNSPECIFIED' ) ;
#188 = APPROVAL_ROLE ( '' ) ;
#189 = APPLICATION_CONTEXT ( 'configuration controlled 3d designs of mechanical parts and assemblies' ) ;
#190 = CC_DESIGN_PERSON_AND_ORGANIZATION_ASSIGNMENT ( #172, #108, ( #4 ) ) ;
#191 = CALENDAR_DATE ( 2026, 22, 6 ) ;
#192 = CC_DESIGN_APPROVAL ( #106, ( #124 ) ) ;
#193 = AXIS2_PLACEMENT_3D ( 'NONE', #161, #42, #7 ) ;
#194 = LOCAL_TIME ( 18, 50, 0.000000000000000000, #146 ) ;
#195 =( NAMED_UNIT ( * ) PLANE_ANGLE_UNIT ( ) SI_UNIT ( $, .RADIAN. ) );
#196 = APPROVAL_DATE_TIME ( #21, #175 ) ;
#197 = APPLICATION_PROTOCOL_DEFINITION ( 'international standard', 'config_control_design', 1994, #189 ) ;
#198 = PERSON_AND_ORGANIZATION_ROLE ( 'design_supplier' ) ;
#199 = LOCAL_TIME ( 18, 50, 0.000000000000000000, #86 ) ;
#200 = COORDINATED_UNIVERSAL_TIME_OFFSET ( 10, 0, .AHEAD. ) ;
#201 = APPROVAL_ROLE ( '' ) ;
#202 = APPROVAL_DATE_TIME ( #16, #41 ) ;
#203 = LOCAL_TIME ( 18, 50, 0.000000000000000000, #177 ) ;
#204 = PERSON_AND_ORGANIZATION ( #18446744073709551615, #18446744073709551615 ) ;
#205 = APPROVAL_PERSON_ORGANIZATION ( #167, #148, #145 ) ;
#206 = IDENTIFICATION_ROLE ( 'external document id and location', $) ;
#207 = AXIS2_PLACEMENT_3D ( 'NONE', #43, #23, #144 ) ;
#208 =( LENGTH_UNIT ( ) NAMED_UNIT ( * ) SI_UNIT ( .MILLI., .METRE. ) );
#209 = PRODUCT_DEFINITION ( 'General', '', #124, #163 ) ;
#210 = SHAPE_REPRESENTATION ( 'Extruded-16.step', ( #193 ), #97 ) ;
#211 = CALENDAR_DATE ( 2026, 22, 6 ) ;
#212 = PRODUCT_RELATED_PRODUCT_CATEGORY ( 'detail', '', ( #4 ) ) ;
#213 = APPLICATION_PROTOCOL_DEFINITION ( 'international standard', 'config_control_design', 1994, #150 ) ;
#214 = DATE_AND_TIME ( #211, #34 ) ;
#215 = NEXT_ASSEMBLY_USAGE_OCCURRENCE ( 'NAUO292', ' ', ' ', #50, #209, $ ) ;
ENDSEC;
END-ISO-10303-21;
