ISO-10303-21;
HEADER;
FILE_DESCRIPTION (( 'STEP AP203' ),
    '1' );
FILE_NAME ('6461077856.step.STEP',
    '2026-06-22T08:49:56',
    ( 'localuser' ),
    ( '' ),
    'SwSTEP 2.0',
    'SolidWorks 2025',
    '' );
FILE_SCHEMA (( 'CONFIG_CONTROL_DESIGN' ));
ENDSEC;

DATA;
#1 = APPROVAL_ROLE ( '' ) ;
#2 = CC_DESIGN_PERSON_AND_ORGANIZATION_ASSIGNMENT ( #36, #103, ( #104 ) ) ;
#3 = APPROVAL_STATUS ( 'not_yet_approved' ) ;
#4 = CC_DESIGN_APPROVAL ( #30, ( #210 ) ) ;
#5 = PERSON_AND_ORGANIZATION ( #18446744073709551615, #18446744073709551615 ) ;
#6 = CALENDAR_DATE ( 2026, 22, 6 ) ;
#7 = APPROVAL ( #88, 'Coincident' ) ;
#8 = PERSON_AND_ORGANIZATION ( #18446744073709551615, #18446744073709551615 ) ;
#9 = EXTERNAL_SOURCE (IDENTIFIER('') ) ;
#10 = CALENDAR_DATE ( 2026, 22, 6 ) ;
#11 = COORDINATED_UNIVERSAL_TIME_OFFSET ( 10, 0, .AHEAD. ) ;
#12 = PERSON_AND_ORGANIZATION_ROLE ( 'classification_officer' ) ;
#13 = PERSON_AND_ORGANIZATION_ROLE ( 'creator' ) ;
#14 = CONTEXT_DEPENDENT_SHAPE_REPRESENTATION ( #96, #124 ) ;
#15 = CC_DESIGN_PERSON_AND_ORGANIZATION_ASSIGNMENT ( #16, #13, ( #62 ) ) ;
#16 = PERSON_AND_ORGANIZATION ( #18446744073709551615, #18446744073709551615 ) ;
#17 = SECURITY_CLASSIFICATION ( '', '', #140 ) ;
#18 = CARTESIAN_POINT ( 'NONE',  ( 0.000000000000000000, 0.000000000000000000, 0.000000000000000000 ) ) ;
#19 = CC_DESIGN_DATE_AND_TIME_ASSIGNMENT ( #27, #177, ( #203 ) ) ;
#20 = APPROVAL_PERSON_ORGANIZATION ( #173, #30, #51 ) ;
#21 = LOCAL_TIME ( 18, 49, 56.00000000000000000, #211 ) ;
#22 =( NAMED_UNIT ( * ) SI_UNIT ( $, .STERADIAN. ) SOLID_ANGLE_UNIT ( ) );
#23 =( LENGTH_UNIT ( ) NAMED_UNIT ( * ) SI_UNIT ( .MILLI., .METRE. ) );
#24 = PRODUCT_DEFINITION_SHAPE ( 'NONE', 'NONE',  #174 ) ;
#25 = PERSON_AND_ORGANIZATION ( #18446744073709551615, #18446744073709551615 ) ;
#26 = UNCERTAINTY_MEASURE_WITH_UNIT (LENGTH_MEASURE( 1.000000000000000082E-05 ), #99, 'distance_accuracy_value', 'NONE');
#27 = DATE_AND_TIME ( #111, #69 ) ;
#28 = DATE_AND_TIME ( #145, #43 ) ;
#29 = SECURITY_CLASSIFICATION_LEVEL ( 'unclassified' ) ;
#30 = APPROVAL ( #85, 'Coincident' ) ;
#31 = PERSON_AND_ORGANIZATION_ROLE ( 'design_supplier' ) ;
#32 = CC_DESIGN_SECURITY_CLASSIFICATION ( #17, ( #80 ) ) ;
#33 = APPROVAL_PERSON_ORGANIZATION ( #209, #59, #91 ) ;
#34 = CC_DESIGN_PERSON_AND_ORGANIZATION_ASSIGNMENT ( #181, #94, ( #174 ) ) ;
#35 =( NAMED_UNIT ( * ) SI_UNIT ( $, .STERADIAN. ) SOLID_ANGLE_UNIT ( ) );
#36 = PERSON_AND_ORGANIZATION ( #18446744073709551615, #18446744073709551615 ) ;
#37 = CARTESIAN_POINT ( 'NONE',  ( 0.000000000000000000, 0.000000000000000000, 0.000000000000000000 ) ) ;
#38 = COORDINATED_UNIVERSAL_TIME_OFFSET ( 10, 0, .AHEAD. ) ;
#39 = PERSON_AND_ORGANIZATION_ROLE ( 'classification_officer' ) ;
#40 = DATE_TIME_ROLE ( 'classification_date' ) ;
#41 = APPROVAL_DATE_TIME ( #60, #84 ) ;
#42 = APPROVAL_STATUS ( 'not_yet_approved' ) ;
#43 = LOCAL_TIME ( 18, 49, 56.00000000000000000, #212 ) ;
#44 = CC_DESIGN_APPROVAL ( #84, ( #190 ) ) ;
#45 = CC_DESIGN_PERSON_AND_ORGANIZATION_ASSIGNMENT ( #47, #53, ( #188 ) ) ;
#46 = DIRECTION ( 'NONE',  ( 1.000000000000000000, 0.000000000000000000, 0.000000000000000000 ) ) ;
#47 = PERSON_AND_ORGANIZATION ( #18446744073709551615, #18446744073709551615 ) ;
#48 = CC_DESIGN_PERSON_AND_ORGANIZATION_ASSIGNMENT ( #72, #100, ( #80 ) ) ;
#49 = APPLICATION_CONTEXT ( 'configuration controlled 3d designs of mechanical parts and assemblies' ) ;
#50 = PERSON_AND_ORGANIZATION ( #18446744073709551615, #18446744073709551615 ) ;
#51 = APPROVAL_ROLE ( '' ) ;
#52 = PROPERTY_DEFINITION ('document property','', #86 ) ;
#53 = PERSON_AND_ORGANIZATION_ROLE ( 'design_owner' ) ;
#54 = DATE_AND_TIME ( #208, #142 ) ;
#55 = APPROVAL ( #139, 'Coincident' ) ;
#56 = CC_DESIGN_APPROVAL ( #151, ( #174 ) ) ;
#57 = LOCAL_TIME ( 18, 49, 56.00000000000000000, #144 ) ;
#58 = DATE_TIME_ROLE ( 'classification_date' ) ;
#59 = APPROVAL ( #132, 'UNKNOWN' ) ;
#60 = DATE_AND_TIME ( #149, #185 ) ;
#61 = PERSON_AND_ORGANIZATION ( #18446744073709551615, #18446744073709551615 ) ;
#62 = PRODUCT_DEFINITION_FORMATION_WITH_SPECIFIED_SOURCE ( 'Symmetric', '', #104, .NOT_KNOWN. ) ;
#63 = IDENTIFICATION_ROLE ( 'external document id and location', $) ;
#64 = COORDINATED_UNIVERSAL_TIME_OFFSET ( 10, 0, .AHEAD. ) ;
#65 = AXIS2_PLACEMENT_3D ( 'NONE', #18, #125, #70 ) ;
#66 = CARTESIAN_POINT ( 'NONE',  ( 0.000000000000000000, 0.000000000000000000, 0.000000000000000000 ) ) ;
#67 = CC_DESIGN_PERSON_AND_ORGANIZATION_ASSIGNMENT ( #50, #122, ( #80 ) ) ;
#68 = CC_DESIGN_APPROVAL ( #55, ( #17 ) ) ;
#69 = LOCAL_TIME ( 18, 49, 56.00000000000000000, #98 ) ;
#70 = DIRECTION ( 'NONE',  ( 1.000000000000000222, -1.092455418989176591E-28, 4.890937612370273194E-29 ) ) ;
#71 = APPROVAL_DATE_TIME ( #90, #7 ) ;
#72 = PERSON_AND_ORGANIZATION ( #18446744073709551615, #18446744073709551615 ) ;
#73 = COORDINATED_UNIVERSAL_TIME_OFFSET ( 10, 0, .AHEAD. ) ;
#74 = PROPERTY_DEFINITION_REPRESENTATION ( #52, #117 ) ;
#75 = SHAPE_DEFINITION_REPRESENTATION ( #24, #117 ) ;
#76 = APPLIED_DOCUMENT_REFERENCE ( #86,'',( #174) ) ;
#77 =( GEOMETRIC_REPRESENTATION_CONTEXT ( 3 ) GLOBAL_UNCERTAINTY_ASSIGNED_CONTEXT ( ( #26 ) ) GLOBAL_UNIT_ASSIGNED_CONTEXT ( ( #99, #184, #35 ) ) REPRESENTATION_CONTEXT ( 'NONE', 'WORKASPACE' ) );
#78 = SECURITY_CLASSIFICATION_LEVEL ( 'unclassified' ) ;
#79 = APPROVAL_ROLE ( '' ) ;
#80 = PRODUCT_DEFINITION_FORMATION_WITH_SPECIFIED_SOURCE ( 'Symmetric', '', #188, .NOT_KNOWN. ) ;
#81 = DESIGN_CONTEXT ( 'detailed design', #49, 'design' ) ;
#82 = CC_DESIGN_APPROVAL ( #59, ( #203 ) ) ;
#83 = DIRECTION ( 'NONE',  ( 1.000000000000000000, 0.000000000000000000, 0.000000000000000000 ) ) ;
#84 = APPROVAL ( #148, 'Coincident' ) ;
#85 = APPROVAL_STATUS ( 'not_yet_approved' ) ;
#86 = DOCUMENT_FILE ( 'Extruded-11.step.STEP' , '', '', #121, '' ,$ ) ;
#87 = PROPERTY_DEFINITION ('external definition','', #86 ) ;
#88 = APPROVAL_STATUS ( 'not_yet_approved' ) ;
#89 = DESIGN_CONTEXT ( 'detailed design', #213, 'design' ) ;
#90 = DATE_AND_TIME ( #10, #200 ) ;
#91 = APPROVAL_ROLE ( '' ) ;
#92 = AXIS2_PLACEMENT_3D ( 'NONE', #37, #105, #83 ) ;
#93 = DATE_AND_TIME ( #129, #198 ) ;
#94 = PERSON_AND_ORGANIZATION_ROLE ( 'creator' ) ;
#95 = APPROVAL_DATE_TIME ( #115, #151 ) ;
#96 =( REPRESENTATION_RELATIONSHIP ('NONE','NONE', #163, #117 ) REPRESENTATION_RELATIONSHIP_WITH_TRANSFORMATION ( #114 )SHAPE_REPRESENTATION_RELATIONSHIP( ) );
#97 = CC_DESIGN_PERSON_AND_ORGANIZATION_ASSIGNMENT ( #61, #31, ( #62 ) ) ;
#98 = COORDINATED_UNIVERSAL_TIME_OFFSET ( 10, 0, .AHEAD. ) ;
#99 =( LENGTH_UNIT ( ) NAMED_UNIT ( * ) SI_UNIT ( .MILLI., .METRE. ) );
#100 = PERSON_AND_ORGANIZATION_ROLE ( 'creator' ) ;
#101 = APPROVAL_PERSON_ORGANIZATION ( #126, #55, #189 ) ;
#102 = APPROVAL_PERSON_ORGANIZATION ( #166, #130, #147 ) ;
#103 = PERSON_AND_ORGANIZATION_ROLE ( 'design_owner' ) ;
#104 = PRODUCT ( 'Extruded-11.step', 'Extruded-11.step', '', ( #186 ) ) ;
#105 = DIRECTION ( 'NONE',  ( 0.000000000000000000, 0.000000000000000000, 1.000000000000000000 ) ) ;
#106 = CC_DESIGN_DATE_AND_TIME_ASSIGNMENT ( #206, #175, ( #210 ) ) ;
#107 = LOCAL_TIME ( 18, 49, 56.00000000000000000, #11 ) ;
#108 = CC_DESIGN_SECURITY_CLASSIFICATION ( #203, ( #215 ) ) ;
#109 = PERSON ( 'NAUO-PER131', 'UNSPECIFIED', 'UNSPECIFIED', ('UNSPECIFIED'), ('UNSPECIFIED'), ('UNSPECIFIED') ) ;
#110 = APPLICATION_PROTOCOL_DEFINITION ( 'international standard', 'config_control_design', 1994, #213 ) ;
#111 = CALENDAR_DATE ( 2026, 22, 6 ) ;
#112 = PERSON_AND_ORGANIZATION ( #18446744073709551615, #18446744073709551615 ) ;
#113 = CC_DESIGN_APPROVAL ( #7, ( #80 ) ) ;
#114 = ITEM_DEFINED_TRANSFORMATION ( 'NONE', 'NONE', #65,  #197 ) ;
#115 = DATE_AND_TIME ( #194, #154 ) ;
#116 = PERSON_AND_ORGANIZATION ( #18446744073709551615, #18446744073709551615 ) ;
#117 = SHAPE_REPRESENTATION ( 'Extruded-11.step', ( #197 ), #77 ) ;
#118 = CC_DESIGN_PERSON_AND_ORGANIZATION_ASSIGNMENT ( #209, #12, ( #203 ) ) ;
#119 =( GEOMETRIC_REPRESENTATION_CONTEXT ( 3 ) GLOBAL_UNCERTAINTY_ASSIGNED_CONTEXT ( ( #133 ) ) GLOBAL_UNIT_ASSIGNED_CONTEXT ( ( #23, #204, #22 ) ) REPRESENTATION_CONTEXT ( 'NONE', 'WORKASPACE' ) );
#120 = CC_DESIGN_SECURITY_CLASSIFICATION ( #190, ( #62 ) ) ;
#121 = DOCUMENT_TYPE ( 'geometry' ) ;
#122 = PERSON_AND_ORGANIZATION_ROLE ( 'design_supplier' ) ;
#123 = COORDINATED_UNIVERSAL_TIME_OFFSET ( 10, 0, .AHEAD. ) ;
#124 = PRODUCT_DEFINITION_SHAPE ( 'NONE', 'NONE',  #215 ) ;
#125 = DIRECTION ( 'NONE',  ( 4.890937612370273194E-29, -3.155443620884047222E-30, 0.9999999999999997780 ) ) ;
#126 = PERSON_AND_ORGANIZATION ( #18446744073709551615, #18446744073709551615 ) ;
#127 = CALENDAR_DATE ( 2026, 22, 6 ) ;
#128 = CALENDAR_DATE ( 2026, 22, 6 ) ;
#129 = CALENDAR_DATE ( 2026, 22, 6 ) ;
#130 = APPROVAL ( #3, 'Coincident' ) ;
#131 = DATE_TIME_ROLE ( 'creation_date' ) ;
#132 = APPROVAL_STATUS ( 'not_yet_approved' ) ;
#133 = UNCERTAINTY_MEASURE_WITH_UNIT (LENGTH_MEASURE( 1.000000000000000082E-05 ), #23, 'distance_accuracy_value', 'NONE');
#134 = DIRECTION ( 'NONE',  ( 0.000000000000000000, 0.000000000000000000, 1.000000000000000000 ) ) ;
#135 = LOCAL_TIME ( 18, 49, 56.00000000000000000, #38 ) ;
#136 = DATE_AND_TIME ( #127, #135 ) ;
#137 = CC_DESIGN_DATE_AND_TIME_ASSIGNMENT ( #176, #40, ( #190 ) ) ;
#138 = PRODUCT_DEFINITION_SHAPE ( 'NONE', 'NONE',  #210 ) ;
#139 = APPROVAL_STATUS ( 'not_yet_approved' ) ;
#140 = SECURITY_CLASSIFICATION_LEVEL ( 'unclassified' ) ;
#141 = CC_DESIGN_DATE_AND_TIME_ASSIGNMENT ( #28, #131, ( #174 ) ) ;
#142 = LOCAL_TIME ( 18, 49, 56.00000000000000000, #187 ) ;
#143 = APPROVAL_PERSON_ORGANIZATION ( #195, #84, #1 ) ;
#144 = COORDINATED_UNIVERSAL_TIME_OFFSET ( 10, 0, .AHEAD. ) ;
#145 = CALENDAR_DATE ( 2026, 22, 6 ) ;
#146 = CC_DESIGN_PERSON_AND_ORGANIZATION_ASSIGNMENT ( #25, #207, ( #210 ) ) ;
#147 = APPROVAL_ROLE ( '' ) ;
#148 = APPROVAL_STATUS ( 'not_yet_approved' ) ;
#149 = CALENDAR_DATE ( 2026, 22, 6 ) ;
#150 = APPROVAL_PERSON_ORGANIZATION ( #112, #151, #79 ) ;
#151 = APPROVAL ( #42, 'Coincident' ) ;
#152 = MECHANICAL_CONTEXT ( 'NONE', #167, 'mechanical' ) ;
#153 = APPLICATION_CONTEXT ( 'configuration controlled 3d designs of mechanical parts and assemblies' ) ;
#154 = LOCAL_TIME ( 18, 49, 56.00000000000000000, #164 ) ;
#155 = APPLICATION_PROTOCOL_DEFINITION ( 'international standard', 'config_control_design', 1994, #153 ) ;
#156 = CC_DESIGN_PERSON_AND_ORGANIZATION_ASSIGNMENT ( #5, #160, ( #17 ) ) ;
#157 = APPROVAL_ROLE ( '' ) ;
#158 = APPROVAL_DATE_TIME ( #201, #30 ) ;
#159 = CC_DESIGN_DATE_AND_TIME_ASSIGNMENT ( #54, #58, ( #17 ) ) ;
#160 = PERSON_AND_ORGANIZATION_ROLE ( 'classification_officer' ) ;
#161 = COORDINATED_UNIVERSAL_TIME_OFFSET ( 10, 0, .AHEAD. ) ;
#162 = ORGANIZATION ( 'NAUO-ORG131', 'UNSPECIFIED', 'UNSPECIFIED' ) ;
#163 = SHAPE_REPRESENTATION ( '6461077856.step', ( #92, #65 ), #119 ) ;
#164 = COORDINATED_UNIVERSAL_TIME_OFFSET ( 10, 0, .AHEAD. ) ;
#165 = APPROVAL_DATE_TIME ( #193, #59 ) ;
#166 = PERSON_AND_ORGANIZATION ( #18446744073709551615, #18446744073709551615 ) ;
#167 = APPLICATION_CONTEXT ( 'configuration controlled 3d designs of mechanical parts and assemblies' ) ;
#168 = CALENDAR_DATE ( 2026, 22, 6 ) ;
#169 = SHAPE_DEFINITION_REPRESENTATION ( #138, #163 ) ;
#170 = APPLICATION_PROTOCOL_DEFINITION ( 'international standard', 'config_control_design', 1994, #49 ) ;
#171 = CC_DESIGN_PERSON_AND_ORGANIZATION_ASSIGNMENT ( #116, #39, ( #190 ) ) ;
#172 = CALENDAR_DATE ( 2026, 22, 6 ) ;
#173 = PERSON_AND_ORGANIZATION ( #18446744073709551615, #18446744073709551615 ) ;
#174 = PRODUCT_DEFINITION ( 'General', '', #62, #81 ) ;
#175 = DATE_TIME_ROLE ( 'creation_date' ) ;
#176 = DATE_AND_TIME ( #168, #21 ) ;
#177 = DATE_TIME_ROLE ( 'classification_date' ) ;
#178 = PRODUCT_RELATED_PRODUCT_CATEGORY ( 'detail', '', ( #104 ) ) ;
#179 = LOCAL_TIME ( 18, 49, 56.00000000000000000, #123 ) ;
#180 = APPLIED_EXTERNAL_IDENTIFICATION_ASSIGNMENT ( 'Extruded-11.step.STEP' , #63, #9,( #86) ) ;
#181 = PERSON_AND_ORGANIZATION ( #18446744073709551615, #18446744073709551615 ) ;
#182 = PROPERTY_DEFINITION_REPRESENTATION ( #87, #117 ) ;
#183 = APPROVAL_DATE_TIME ( #93, #130 ) ;
#184 =( NAMED_UNIT ( * ) PLANE_ANGLE_UNIT ( ) SI_UNIT ( $, .RADIAN. ) );
#185 = LOCAL_TIME ( 18, 49, 56.00000000000000000, #161 ) ;
#186 = MECHANICAL_CONTEXT ( 'NONE', #153, 'mechanical' ) ;
#187 = COORDINATED_UNIVERSAL_TIME_OFFSET ( 10, 0, .AHEAD. ) ;
#188 = PRODUCT ( '6461077856.step', '6461077856.step', '', ( #152 ) ) ;
#189 = APPROVAL_ROLE ( '' ) ;
#190 = SECURITY_CLASSIFICATION ( '', '', #78 ) ;
#191 = APPROVAL_DATE_TIME ( #136, #55 ) ;
#192 = ROLE_ASSOCIATION ( #196, #76 ) ;
#193 = DATE_AND_TIME ( #128, #57 ) ;
#194 = CALENDAR_DATE ( 2026, 22, 6 ) ;
#195 = PERSON_AND_ORGANIZATION ( #18446744073709551615, #18446744073709551615 ) ;
#196 = OBJECT_ROLE ('mandatory',$ ) ;
#197 = AXIS2_PLACEMENT_3D ( 'NONE', #66, #134, #46 ) ;
#198 = LOCAL_TIME ( 18, 49, 56.00000000000000000, #64 ) ;
#199 = APPLICATION_PROTOCOL_DEFINITION ( 'international standard', 'config_control_design', 1994, #167 ) ;
#200 = LOCAL_TIME ( 18, 49, 56.00000000000000000, #73 ) ;
#201 = DATE_AND_TIME ( #172, #107 ) ;
#202 = APPROVAL_PERSON_ORGANIZATION ( #8, #7, #157 ) ;
#203 = SECURITY_CLASSIFICATION ( '', '', #29 ) ;
#204 =( NAMED_UNIT ( * ) PLANE_ANGLE_UNIT ( ) SI_UNIT ( $, .RADIAN. ) );
#205 = PRODUCT_RELATED_PRODUCT_CATEGORY ( 'detail', '', ( #188 ) ) ;
#206 = DATE_AND_TIME ( #6, #179 ) ;
#207 = PERSON_AND_ORGANIZATION_ROLE ( 'creator' ) ;
#208 = CALENDAR_DATE ( 2026, 22, 6 ) ;
#209 = PERSON_AND_ORGANIZATION ( #109, #162 ) ;
#210 = PRODUCT_DEFINITION ( 'General', '', #80, #89 ) ;
#211 = COORDINATED_UNIVERSAL_TIME_OFFSET ( 10, 0, .AHEAD. ) ;
#212 = COORDINATED_UNIVERSAL_TIME_OFFSET ( 10, 0, .AHEAD. ) ;
#213 = APPLICATION_CONTEXT ( 'configuration controlled 3d designs of mechanical parts and assemblies' ) ;
#214 = CC_DESIGN_APPROVAL ( #130, ( #62 ) ) ;
#215 = NEXT_ASSEMBLY_USAGE_OCCURRENCE ( 'NAUO131', ' ', ' ', #210, #174, $ ) ;
ENDSEC;
END-ISO-10303-21;
