ISO-10303-21;
HEADER;
FILE_DESCRIPTION (( 'STEP AP203' ),
    '1' );
FILE_NAME ('6461075776.step.STEP',
    '2026-06-22T08:49:53',
    ( 'localuser' ),
    ( '' ),
    'SwSTEP 2.0',
    'SolidWorks 2025',
    '' );
FILE_SCHEMA (( 'CONFIG_CONTROL_DESIGN' ));
ENDSEC;

DATA;
#1 = ITEM_DEFINED_TRANSFORMATION ( 'NONE', 'NONE', #69,  #37 ) ;
#2 = PERSON_AND_ORGANIZATION ( #18446744073709551615, #18446744073709551615 ) ;
#3 = APPROVAL_DATE_TIME ( #26, #20 ) ;
#4 = CC_DESIGN_PERSON_AND_ORGANIZATION_ASSIGNMENT ( #27, #9, ( #70 ) ) ;
#5 = PERSON_AND_ORGANIZATION ( #18446744073709551615, #18446744073709551615 ) ;
#6 = COORDINATED_UNIVERSAL_TIME_OFFSET ( 10, 0, .AHEAD. ) ;
#7 = APPLICATION_CONTEXT ( 'configuration controlled 3d designs of mechanical parts and assemblies' ) ;
#8 = APPLICATION_PROTOCOL_DEFINITION ( 'international standard', 'config_control_design', 1994, #60 ) ;
#9 = PERSON_AND_ORGANIZATION_ROLE ( 'design_supplier' ) ;
#10 = MECHANICAL_CONTEXT ( 'NONE', #7, 'mechanical' ) ;
#11 = PERSON_AND_ORGANIZATION_ROLE ( 'design_owner' ) ;
#12 = PERSON_AND_ORGANIZATION ( #18446744073709551615, #18446744073709551615 ) ;
#13 = APPROVAL ( #138, 'UNKNOWN' ) ;
#14 = DIRECTION ( 'NONE',  ( 1.000000000000000000, 0.000000000000000000, 0.000000000000000000 ) ) ;
#15 = LOCAL_TIME ( 18, 49, 53.00000000000000000, #113 ) ;
#16 = COORDINATED_UNIVERSAL_TIME_OFFSET ( 10, 0, .AHEAD. ) ;
#17 = SHAPE_REPRESENTATION ( '6461075776.step', ( #44, #69 ), #195 ) ;
#18 = PERSON_AND_ORGANIZATION ( #18446744073709551615, #18446744073709551615 ) ;
#19 = APPROVAL_ROLE ( '' ) ;
#20 = APPROVAL ( #43, 'Coincident' ) ;
#21 = APPROVAL_ROLE ( '' ) ;
#22 = PERSON_AND_ORGANIZATION ( #75, #29 ) ;
#23 = PRODUCT ( 'Extruded-1.step', 'Extruded-1.step', '', ( #191 ) ) ;
#24 = APPROVAL_DATE_TIME ( #103, #13 ) ;
#25 = LOCAL_TIME ( 18, 49, 53.00000000000000000, #130 ) ;
#26 = DATE_AND_TIME ( #126, #15 ) ;
#27 = PERSON_AND_ORGANIZATION ( #18446744073709551615, #18446744073709551615 ) ;
#28 = APPROVAL_STATUS ( 'not_yet_approved' ) ;
#29 = ORGANIZATION ( 'NAUO-ORG49', 'UNSPECIFIED', 'UNSPECIFIED' ) ;
#30 = DATE_TIME_ROLE ( 'creation_date' ) ;
#31 = PROPERTY_DEFINITION_REPRESENTATION ( #101, #122 ) ;
#32 = CALENDAR_DATE ( 2026, 22, 6 ) ;
#33 = LOCAL_TIME ( 18, 49, 53.00000000000000000, #144 ) ;
#34 = DOCUMENT_TYPE ( 'geometry' ) ;
#35 = COORDINATED_UNIVERSAL_TIME_OFFSET ( 10, 0, .AHEAD. ) ;
#36 = APPROVAL ( #90, 'Coincident' ) ;
#37 = AXIS2_PLACEMENT_3D ( 'NONE', #86, #202, #14 ) ;
#38 = PRODUCT_DEFINITION_FORMATION_WITH_SPECIFIED_SOURCE ( 'Symmetric', '', #23, .NOT_KNOWN. ) ;
#39 = DESIGN_CONTEXT ( 'detailed design', #104, 'design' ) ;
#40 = PERSON_AND_ORGANIZATION_ROLE ( 'creator' ) ;
#41 = APPROVAL_ROLE ( '' ) ;
#42 = PRODUCT_RELATED_PRODUCT_CATEGORY ( 'detail', '', ( #23 ) ) ;
#43 = APPROVAL_STATUS ( 'not_yet_approved' ) ;
#44 = AXIS2_PLACEMENT_3D ( 'NONE', #168, #84, #166 ) ;
#45 = CALENDAR_DATE ( 2026, 22, 6 ) ;
#46 = APPROVAL ( #61, 'Coincident' ) ;
#47 = SECURITY_CLASSIFICATION ( '', '', #94 ) ;
#48 = APPROVAL_DATE_TIME ( #135, #143 ) ;
#49 = CC_DESIGN_PERSON_AND_ORGANIZATION_ASSIGNMENT ( #22, #52, ( #128 ) ) ;
#50 = PRODUCT ( '6461075776.step', '6461075776.step', '', ( #10 ) ) ;
#51 = SECURITY_CLASSIFICATION_LEVEL ( 'unclassified' ) ;
#52 = PERSON_AND_ORGANIZATION_ROLE ( 'classification_officer' ) ;
#53 = CC_DESIGN_APPROVAL ( #143, ( #133 ) ) ;
#54 = DIRECTION ( 'NONE',  ( 1.000000000000000222, -1.092455418989176591E-28, 4.890937612370273194E-29 ) ) ;
#55 = CC_DESIGN_PERSON_AND_ORGANIZATION_ASSIGNMENT ( #183, #11, ( #50 ) ) ;
#56 = PERSON_AND_ORGANIZATION ( #18446744073709551615, #18446744073709551615 ) ;
#57 = APPLICATION_PROTOCOL_DEFINITION ( 'international standard', 'config_control_design', 1994, #104 ) ;
#58 = APPROVAL ( #28, 'Coincident' ) ;
#59 = PERSON_AND_ORGANIZATION ( #18446744073709551615, #18446744073709551615 ) ;
#60 = APPLICATION_CONTEXT ( 'configuration controlled 3d designs of mechanical parts and assemblies' ) ;
#61 = APPROVAL_STATUS ( 'not_yet_approved' ) ;
#62 = APPROVAL_PERSON_ORGANIZATION ( #22, #13, #19 ) ;
#63 = APPROVAL_PERSON_ORGANIZATION ( #5, #143, #21 ) ;
#64 = CARTESIAN_POINT ( 'NONE',  ( 0.000000000000000000, 0.000000000000000000, 0.000000000000000000 ) ) ;
#65 = APPROVAL_PERSON_ORGANIZATION ( #102, #36, #67 ) ;
#66 = APPLICATION_CONTEXT ( 'configuration controlled 3d designs of mechanical parts and assemblies' ) ;
#67 = APPROVAL_ROLE ( '' ) ;
#68 = CC_DESIGN_PERSON_AND_ORGANIZATION_ASSIGNMENT ( #161, #163, ( #133 ) ) ;
#69 = AXIS2_PLACEMENT_3D ( 'NONE', #64, #109, #54 ) ;
#70 = PRODUCT_DEFINITION_FORMATION_WITH_SPECIFIED_SOURCE ( 'Symmetric', '', #50, .NOT_KNOWN. ) ;
#71 = DATE_TIME_ROLE ( 'classification_date' ) ;
#72 = DATE_AND_TIME ( #45, #157 ) ;
#73 = APPROVAL_DATE_TIME ( #204, #92 ) ;
#74 = CC_DESIGN_DATE_AND_TIME_ASSIGNMENT ( #118, #158, ( #133 ) ) ;
#75 = PERSON ( 'NAUO-PER49', 'UNSPECIFIED', 'UNSPECIFIED', ('UNSPECIFIED'), ('UNSPECIFIED'), ('UNSPECIFIED') ) ;
#76 = PERSON_AND_ORGANIZATION_ROLE ( 'creator' ) ;
#77 = APPLIED_DOCUMENT_REFERENCE ( #181,'',( #189) ) ;
#78 = CALENDAR_DATE ( 2026, 22, 6 ) ;
#79 = PRODUCT_DEFINITION_SHAPE ( 'NONE', 'NONE',  #215 ) ;
#80 = CC_DESIGN_PERSON_AND_ORGANIZATION_ASSIGNMENT ( #59, #207, ( #38 ) ) ;
#81 = LOCAL_TIME ( 18, 49, 53.00000000000000000, #6 ) ;
#82 = UNCERTAINTY_MEASURE_WITH_UNIT (LENGTH_MEASURE( 1.000000000000000082E-05 ), #91, 'distance_accuracy_value', 'NONE');
#83 = UNCERTAINTY_MEASURE_WITH_UNIT (LENGTH_MEASURE( 1.000000000000000082E-05 ), #88, 'distance_accuracy_value', 'NONE');
#84 = DIRECTION ( 'NONE',  ( 0.000000000000000000, 0.000000000000000000, 1.000000000000000000 ) ) ;
#85 = CC_DESIGN_SECURITY_CLASSIFICATION ( #133, ( #70 ) ) ;
#86 = CARTESIAN_POINT ( 'NONE',  ( 0.000000000000000000, 0.000000000000000000, 0.000000000000000000 ) ) ;
#87 = CC_DESIGN_APPROVAL ( #36, ( #38 ) ) ;
#88 =( LENGTH_UNIT ( ) NAMED_UNIT ( * ) SI_UNIT ( .MILLI., .METRE. ) );
#89 = DATE_AND_TIME ( #186, #184 ) ;
#90 = APPROVAL_STATUS ( 'not_yet_approved' ) ;
#91 =( LENGTH_UNIT ( ) NAMED_UNIT ( * ) SI_UNIT ( .MILLI., .METRE. ) );
#92 = APPROVAL ( #213, 'Coincident' ) ;
#93 = COORDINATED_UNIVERSAL_TIME_OFFSET ( 10, 0, .AHEAD. ) ;
#94 = SECURITY_CLASSIFICATION_LEVEL ( 'unclassified' ) ;
#95 = LOCAL_TIME ( 18, 49, 53.00000000000000000, #106 ) ;
#96 = DATE_AND_TIME ( #154, #25 ) ;
#97 = CC_DESIGN_PERSON_AND_ORGANIZATION_ASSIGNMENT ( #173, #155, ( #47 ) ) ;
#98 = CC_DESIGN_APPROVAL ( #20, ( #70 ) ) ;
#99 = LOCAL_TIME ( 18, 49, 53.00000000000000000, #212 ) ;
#100 = APPROVAL_STATUS ( 'not_yet_approved' ) ;
#101 = PROPERTY_DEFINITION ('document property','', #181 ) ;
#102 = PERSON_AND_ORGANIZATION ( #18446744073709551615, #18446744073709551615 ) ;
#103 = DATE_AND_TIME ( #199, #95 ) ;
#104 = APPLICATION_CONTEXT ( 'configuration controlled 3d designs of mechanical parts and assemblies' ) ;
#105 = SHAPE_DEFINITION_REPRESENTATION ( #139, #17 ) ;
#106 = COORDINATED_UNIVERSAL_TIME_OFFSET ( 10, 0, .AHEAD. ) ;
#107 =( NAMED_UNIT ( * ) PLANE_ANGLE_UNIT ( ) SI_UNIT ( $, .RADIAN. ) );
#108 = LOCAL_TIME ( 18, 49, 53.00000000000000000, #182 ) ;
#109 = DIRECTION ( 'NONE',  ( 4.890937612370273194E-29, -3.155443620884047222E-30, 0.9999999999999997780 ) ) ;
#110 = CC_DESIGN_APPROVAL ( #13, ( #128 ) ) ;
#111 = COORDINATED_UNIVERSAL_TIME_OFFSET ( 10, 0, .AHEAD. ) ;
#112 = APPROVAL_ROLE ( '' ) ;
#113 = COORDINATED_UNIVERSAL_TIME_OFFSET ( 10, 0, .AHEAD. ) ;
#114 = OBJECT_ROLE ('mandatory',$ ) ;
#115 = APPROVAL_PERSON_ORGANIZATION ( #147, #92, #127 ) ;
#116 = CC_DESIGN_PERSON_AND_ORGANIZATION_ASSIGNMENT ( #197, #76, ( #189 ) ) ;
#117 = APPROVAL_DATE_TIME ( #96, #46 ) ;
#118 = DATE_AND_TIME ( #32, #33 ) ;
#119 = CALENDAR_DATE ( 2026, 22, 6 ) ;
#120 =( GEOMETRIC_REPRESENTATION_CONTEXT ( 3 ) GLOBAL_UNCERTAINTY_ASSIGNED_CONTEXT ( ( #82 ) ) GLOBAL_UNIT_ASSIGNED_CONTEXT ( ( #91, #107, #146 ) ) REPRESENTATION_CONTEXT ( 'NONE', 'WORKASPACE' ) );
#121 = CC_DESIGN_PERSON_AND_ORGANIZATION_ASSIGNMENT ( #209, #210, ( #23 ) ) ;
#122 = SHAPE_REPRESENTATION ( 'Extruded-1.step', ( #37 ), #120 ) ;
#123 = DATE_AND_TIME ( #160, #108 ) ;
#124 = PRODUCT_DEFINITION_SHAPE ( 'NONE', 'NONE',  #189 ) ;
#125 = CC_DESIGN_DATE_AND_TIME_ASSIGNMENT ( #196, #30, ( #189 ) ) ;
#126 = CALENDAR_DATE ( 2026, 22, 6 ) ;
#127 = APPROVAL_ROLE ( '' ) ;
#128 = SECURITY_CLASSIFICATION ( '', '', #51 ) ;
#129 = DATE_AND_TIME ( #171, #176 ) ;
#130 = COORDINATED_UNIVERSAL_TIME_OFFSET ( 10, 0, .AHEAD. ) ;
#131 = EXTERNAL_SOURCE (IDENTIFIER('') ) ;
#132 = CC_DESIGN_DATE_AND_TIME_ASSIGNMENT ( #159, #164, ( #128 ) ) ;
#133 = SECURITY_CLASSIFICATION ( '', '', #136 ) ;
#134 =( NAMED_UNIT ( * ) SI_UNIT ( $, .STERADIAN. ) SOLID_ANGLE_UNIT ( ) );
#135 = DATE_AND_TIME ( #78, #156 ) ;
#136 = SECURITY_CLASSIFICATION_LEVEL ( 'unclassified' ) ;
#137 = PRODUCT_DEFINITION ( 'General', '', #70, #39 ) ;
#138 = APPROVAL_STATUS ( 'not_yet_approved' ) ;
#139 = PRODUCT_DEFINITION_SHAPE ( 'NONE', 'NONE',  #137 ) ;
#140 = APPROVAL_ROLE ( '' ) ;
#141 = APPLIED_EXTERNAL_IDENTIFICATION_ASSIGNMENT ( 'Extruded-1.step.STEP' , #203, #131,( #181) ) ;
#142 = PERSON_AND_ORGANIZATION ( #18446744073709551615, #18446744073709551615 ) ;
#143 = APPROVAL ( #100, 'Coincident' ) ;
#144 = COORDINATED_UNIVERSAL_TIME_OFFSET ( 10, 0, .AHEAD. ) ;
#145 = APPROVAL_PERSON_ORGANIZATION ( #12, #20, #112 ) ;
#146 =( NAMED_UNIT ( * ) SI_UNIT ( $, .STERADIAN. ) SOLID_ANGLE_UNIT ( ) );
#147 = PERSON_AND_ORGANIZATION ( #18446744073709551615, #18446744073709551615 ) ;
#148 = PRODUCT_RELATED_PRODUCT_CATEGORY ( 'detail', '', ( #50 ) ) ;
#149 = CALENDAR_DATE ( 2026, 22, 6 ) ;
#150 = CC_DESIGN_SECURITY_CLASSIFICATION ( #47, ( #38 ) ) ;
#151 =( NAMED_UNIT ( * ) PLANE_ANGLE_UNIT ( ) SI_UNIT ( $, .RADIAN. ) );
#152 = CC_DESIGN_APPROVAL ( #92, ( #137 ) ) ;
#153 = CC_DESIGN_APPROVAL ( #46, ( #47 ) ) ;
#154 = CALENDAR_DATE ( 2026, 22, 6 ) ;
#155 = PERSON_AND_ORGANIZATION_ROLE ( 'classification_officer' ) ;
#156 = LOCAL_TIME ( 18, 49, 53.00000000000000000, #179 ) ;
#157 = LOCAL_TIME ( 18, 49, 53.00000000000000000, #93 ) ;
#158 = DATE_TIME_ROLE ( 'classification_date' ) ;
#159 = DATE_AND_TIME ( #172, #99 ) ;
#160 = CALENDAR_DATE ( 2026, 22, 6 ) ;
#161 = PERSON_AND_ORGANIZATION ( #18446744073709551615, #18446744073709551615 ) ;
#162 = CC_DESIGN_PERSON_AND_ORGANIZATION_ASSIGNMENT ( #56, #40, ( #137 ) ) ;
#163 = PERSON_AND_ORGANIZATION_ROLE ( 'classification_officer' ) ;
#164 = DATE_TIME_ROLE ( 'classification_date' ) ;
#165 = APPLICATION_PROTOCOL_DEFINITION ( 'international standard', 'config_control_design', 1994, #7 ) ;
#166 = DIRECTION ( 'NONE',  ( 1.000000000000000000, 0.000000000000000000, 0.000000000000000000 ) ) ;
#167 = APPROVAL_PERSON_ORGANIZATION ( #205, #46, #41 ) ;
#168 = CARTESIAN_POINT ( 'NONE',  ( 0.000000000000000000, 0.000000000000000000, 0.000000000000000000 ) ) ;
#169 = DATE_TIME_ROLE ( 'creation_date' ) ;
#170 =( REPRESENTATION_RELATIONSHIP ('NONE','NONE', #17, #122 ) REPRESENTATION_RELATIONSHIP_WITH_TRANSFORMATION ( #1 )SHAPE_REPRESENTATION_RELATIONSHIP( ) );
#171 = CALENDAR_DATE ( 2026, 22, 6 ) ;
#172 = CALENDAR_DATE ( 2026, 22, 6 ) ;
#173 = PERSON_AND_ORGANIZATION ( #18446744073709551615, #18446744073709551615 ) ;
#174 = PERSON_AND_ORGANIZATION_ROLE ( 'creator' ) ;
#175 = CC_DESIGN_DATE_AND_TIME_ASSIGNMENT ( #129, #71, ( #47 ) ) ;
#176 = LOCAL_TIME ( 18, 49, 53.00000000000000000, #16 ) ;
#177 = APPROVAL_DATE_TIME ( #123, #58 ) ;
#178 = ROLE_ASSOCIATION ( #114, #77 ) ;
#179 = COORDINATED_UNIVERSAL_TIME_OFFSET ( 10, 0, .AHEAD. ) ;
#180 = CC_DESIGN_PERSON_AND_ORGANIZATION_ASSIGNMENT ( #2, #187, ( #38 ) ) ;
#181 = DOCUMENT_FILE ( 'Extruded-1.step.STEP' , '', '', #34, '' ,$ ) ;
#182 = COORDINATED_UNIVERSAL_TIME_OFFSET ( 10, 0, .AHEAD. ) ;
#183 = PERSON_AND_ORGANIZATION ( #18446744073709551615, #18446744073709551615 ) ;
#184 = LOCAL_TIME ( 18, 49, 53.00000000000000000, #111 ) ;
#185 = CC_DESIGN_SECURITY_CLASSIFICATION ( #128, ( #215 ) ) ;
#186 = CALENDAR_DATE ( 2026, 22, 6 ) ;
#187 = PERSON_AND_ORGANIZATION_ROLE ( 'creator' ) ;
#188 = APPROVAL_DATE_TIME ( #72, #36 ) ;
#189 = PRODUCT_DEFINITION ( 'General', '', #38, #201 ) ;
#190 = CC_DESIGN_APPROVAL ( #58, ( #189 ) ) ;
#191 = MECHANICAL_CONTEXT ( 'NONE', #60, 'mechanical' ) ;
#192 = SHAPE_DEFINITION_REPRESENTATION ( #124, #122 ) ;
#193 = APPLICATION_PROTOCOL_DEFINITION ( 'international standard', 'config_control_design', 1994, #66 ) ;
#194 = CONTEXT_DEPENDENT_SHAPE_REPRESENTATION ( #170, #79 ) ;
#195 =( GEOMETRIC_REPRESENTATION_CONTEXT ( 3 ) GLOBAL_UNCERTAINTY_ASSIGNED_CONTEXT ( ( #83 ) ) GLOBAL_UNIT_ASSIGNED_CONTEXT ( ( #88, #151, #134 ) ) REPRESENTATION_CONTEXT ( 'NONE', 'WORKASPACE' ) );
#196 = DATE_AND_TIME ( #119, #81 ) ;
#197 = PERSON_AND_ORGANIZATION ( #18446744073709551615, #18446744073709551615 ) ;
#198 = PROPERTY_DEFINITION ('external definition','', #181 ) ;
#199 = CALENDAR_DATE ( 2026, 22, 6 ) ;
#200 = PROPERTY_DEFINITION_REPRESENTATION ( #198, #122 ) ;
#201 = DESIGN_CONTEXT ( 'detailed design', #66, 'design' ) ;
#202 = DIRECTION ( 'NONE',  ( 0.000000000000000000, 0.000000000000000000, 1.000000000000000000 ) ) ;
#203 = IDENTIFICATION_ROLE ( 'external document id and location', $) ;
#204 = DATE_AND_TIME ( #149, #214 ) ;
#205 = PERSON_AND_ORGANIZATION ( #18446744073709551615, #18446744073709551615 ) ;
#206 = CC_DESIGN_PERSON_AND_ORGANIZATION_ASSIGNMENT ( #18, #174, ( #70 ) ) ;
#207 = PERSON_AND_ORGANIZATION_ROLE ( 'design_supplier' ) ;
#208 = CC_DESIGN_DATE_AND_TIME_ASSIGNMENT ( #89, #169, ( #137 ) ) ;
#209 = PERSON_AND_ORGANIZATION ( #18446744073709551615, #18446744073709551615 ) ;
#210 = PERSON_AND_ORGANIZATION_ROLE ( 'design_owner' ) ;
#211 = APPROVAL_PERSON_ORGANIZATION ( #142, #58, #140 ) ;
#212 = COORDINATED_UNIVERSAL_TIME_OFFSET ( 10, 0, .AHEAD. ) ;
#213 = APPROVAL_STATUS ( 'not_yet_approved' ) ;
#214 = LOCAL_TIME ( 18, 49, 53.00000000000000000, #35 ) ;
#215 = NEXT_ASSEMBLY_USAGE_OCCURRENCE ( 'NAUO49', ' ', ' ', #137, #189, $ ) ;
ENDSEC;
END-ISO-10303-21;
