ISO-10303-21;
HEADER;
FILE_DESCRIPTION (( 'STEP AP203' ),
    '1' );
FILE_NAME ('6461081616.step.STEP',
    '2026-06-22T08:50:00',
    ( 'localuser' ),
    ( '' ),
    'SwSTEP 2.0',
    'SolidWorks 2025',
    '' );
FILE_SCHEMA (( 'CONFIG_CONTROL_DESIGN' ));
ENDSEC;

DATA;
#1 =( NAMED_UNIT ( * ) SI_UNIT ( $, .STERADIAN. ) SOLID_ANGLE_UNIT ( ) );
#2 = PERSON_AND_ORGANIZATION_ROLE ( 'design_supplier' ) ;
#3 = LOCAL_TIME ( 18, 50, 0.000000000000000000, #131 ) ;
#4 = COORDINATED_UNIVERSAL_TIME_OFFSET ( 10, 0, .AHEAD. ) ;
#5 = APPROVAL_STATUS ( 'not_yet_approved' ) ;
#6 = CALENDAR_DATE ( 2026, 22, 6 ) ;
#7 = CC_DESIGN_APPROVAL ( #17, ( #60 ) ) ;
#8 = DATE_AND_TIME ( #54, #50 ) ;
#9 = CALENDAR_DATE ( 2026, 22, 6 ) ;
#10 = APPROVAL_ROLE ( '' ) ;
#11 = ITEM_DEFINED_TRANSFORMATION ( 'NONE', 'NONE', #130,  #202 ) ;
#12 = CALENDAR_DATE ( 2026, 22, 6 ) ;
#13 = PERSON_AND_ORGANIZATION_ROLE ( 'creator' ) ;
#14 = CC_DESIGN_PERSON_AND_ORGANIZATION_ASSIGNMENT ( #174, #2, ( #193 ) ) ;
#15 = CC_DESIGN_APPROVAL ( #18, ( #185 ) ) ;
#16 = UNCERTAINTY_MEASURE_WITH_UNIT (LENGTH_MEASURE( 1.000000000000000082E-05 ), #30, 'distance_accuracy_value', 'NONE');
#17 = APPROVAL ( #73, 'Coincident' ) ;
#18 = APPROVAL ( #81, 'Coincident' ) ;
#19 = COORDINATED_UNIVERSAL_TIME_OFFSET ( 10, 0, .AHEAD. ) ;
#20 = PERSON_AND_ORGANIZATION ( #18446744073709551615, #18446744073709551615 ) ;
#21 = SECURITY_CLASSIFICATION_LEVEL ( 'unclassified' ) ;
#22 = DIRECTION ( 'NONE',  ( 1.000000000000000000, 0.000000000000000000, 0.000000000000000000 ) ) ;
#23 = APPROVAL_PERSON_ORGANIZATION ( #72, #71, #161 ) ;
#24 = CC_DESIGN_DATE_AND_TIME_ASSIGNMENT ( #43, #26, ( #89 ) ) ;
#25 = APPROVAL_ROLE ( '' ) ;
#26 = DATE_TIME_ROLE ( 'classification_date' ) ;
#27 = PRODUCT_DEFINITION_SHAPE ( 'NONE', 'NONE',  #215 ) ;
#28 = PROPERTY_DEFINITION_REPRESENTATION ( #96, #156 ) ;
#29 = CALENDAR_DATE ( 2026, 22, 6 ) ;
#30 =( LENGTH_UNIT ( ) NAMED_UNIT ( * ) SI_UNIT ( .MILLI., .METRE. ) );
#31 = IDENTIFICATION_ROLE ( 'external document id and location', $) ;
#32 = DIRECTION ( 'NONE',  ( 1.000000000000000000, 0.000000000000000000, 0.000000000000000000 ) ) ;
#33 = PRODUCT_DEFINITION_FORMATION_WITH_SPECIFIED_SOURCE ( 'Symmetric', '', #132, .NOT_KNOWN. ) ;
#34 = APPLICATION_PROTOCOL_DEFINITION ( 'international standard', 'config_control_design', 1994, #126 ) ;
#35 = CARTESIAN_POINT ( 'NONE',  ( 0.000000000000000000, 0.000000000000000000, 0.000000000000000000 ) ) ;
#36 = CC_DESIGN_PERSON_AND_ORGANIZATION_ASSIGNMENT ( #147, #209, ( #185 ) ) ;
#37 = DATE_AND_TIME ( #141, #153 ) ;
#38 = CC_DESIGN_DATE_AND_TIME_ASSIGNMENT ( #98, #129, ( #60 ) ) ;
#39 = LOCAL_TIME ( 18, 50, 0.000000000000000000, #48 ) ;
#40 = PERSON_AND_ORGANIZATION_ROLE ( 'creator' ) ;
#41 = DATE_AND_TIME ( #190, #88 ) ;
#42 = PERSON_AND_ORGANIZATION_ROLE ( 'creator' ) ;
#43 = DATE_AND_TIME ( #29, #79 ) ;
#44 = DATE_AND_TIME ( #12, #109 ) ;
#45 = SECURITY_CLASSIFICATION_LEVEL ( 'unclassified' ) ;
#46 = DOCUMENT_TYPE ( 'geometry' ) ;
#47 = APPROVAL_PERSON_ORGANIZATION ( #162, #17, #140 ) ;
#48 = COORDINATED_UNIVERSAL_TIME_OFFSET ( 10, 0, .AHEAD. ) ;
#49 = DESIGN_CONTEXT ( 'detailed design', #183, 'design' ) ;
#50 = LOCAL_TIME ( 18, 50, 0.000000000000000000, #138 ) ;
#51 =( NAMED_UNIT ( * ) PLANE_ANGLE_UNIT ( ) SI_UNIT ( $, .RADIAN. ) );
#52 = DESIGN_CONTEXT ( 'detailed design', #92, 'design' ) ;
#53 = CC_DESIGN_APPROVAL ( #71, ( #214 ) ) ;
#54 = CALENDAR_DATE ( 2026, 22, 6 ) ;
#55 = APPROVAL ( #5, 'Coincident' ) ;
#56 = DATE_TIME_ROLE ( 'creation_date' ) ;
#57 = PERSON_AND_ORGANIZATION ( #18446744073709551615, #18446744073709551615 ) ;
#58 = APPLICATION_PROTOCOL_DEFINITION ( 'international standard', 'config_control_design', 1994, #183 ) ;
#59 = DATE_AND_TIME ( #6, #114 ) ;
#60 = PRODUCT_DEFINITION ( 'General', '', #33, #52 ) ;
#61 = CALENDAR_DATE ( 2026, 22, 6 ) ;
#62 = APPROVAL_PERSON_ORGANIZATION ( #166, #80, #10 ) ;
#63 = DATE_AND_TIME ( #61, #3 ) ;
#64 = CC_DESIGN_PERSON_AND_ORGANIZATION_ASSIGNMENT ( #122, #42, ( #193 ) ) ;
#65 = APPLIED_DOCUMENT_REFERENCE ( #77,'',( #60) ) ;
#66 = PRODUCT_DEFINITION_SHAPE ( 'NONE', 'NONE',  #60 ) ;
#67 = LOCAL_TIME ( 18, 50, 0.000000000000000000, #19 ) ;
#68 = CC_DESIGN_APPROVAL ( #80, ( #33 ) ) ;
#69 =( GEOMETRIC_REPRESENTATION_CONTEXT ( 3 ) GLOBAL_UNCERTAINTY_ASSIGNED_CONTEXT ( ( #201 ) ) GLOBAL_UNIT_ASSIGNED_CONTEXT ( ( #120, #51, #121 ) ) REPRESENTATION_CONTEXT ( 'NONE', 'WORKASPACE' ) );
#70 = APPLICATION_CONTEXT ( 'configuration controlled 3d designs of mechanical parts and assemblies' ) ;
#71 = APPROVAL ( #175, 'Coincident' ) ;
#72 = PERSON_AND_ORGANIZATION ( #18446744073709551615, #18446744073709551615 ) ;
#73 = APPROVAL_STATUS ( 'not_yet_approved' ) ;
#74 = APPLICATION_PROTOCOL_DEFINITION ( 'international standard', 'config_control_design', 1994, #92 ) ;
#75 = LOCAL_TIME ( 18, 50, 0.000000000000000000, #144 ) ;
#76 = SHAPE_REPRESENTATION ( '6461081616.step', ( #206, #130 ), #125 ) ;
#77 = DOCUMENT_FILE ( 'Extruded-17.step.STEP' , '', '', #46, '' ,$ ) ;
#78 = PERSON_AND_ORGANIZATION ( #18446744073709551615, #18446744073709551615 ) ;
#79 = LOCAL_TIME ( 18, 50, 0.000000000000000000, #133 ) ;
#80 = APPROVAL ( #94, 'Coincident' ) ;
#81 = APPROVAL_STATUS ( 'not_yet_approved' ) ;
#82 =( REPRESENTATION_RELATIONSHIP ('NONE','NONE', #76, #156 ) REPRESENTATION_RELATIONSHIP_WITH_TRANSFORMATION ( #11 )SHAPE_REPRESENTATION_RELATIONSHIP( ) );
#83 = APPROVAL_STATUS ( 'not_yet_approved' ) ;
#84 =( NAMED_UNIT ( * ) PLANE_ANGLE_UNIT ( ) SI_UNIT ( $, .RADIAN. ) );
#85 = APPROVAL_PERSON_ORGANIZATION ( #103, #145, #139 ) ;
#86 = APPROVAL_ROLE ( '' ) ;
#87 = CALENDAR_DATE ( 2026, 22, 6 ) ;
#88 = LOCAL_TIME ( 18, 50, 0.000000000000000000, #205 ) ;
#89 = SECURITY_CLASSIFICATION ( '', '', #210 ) ;
#90 = PERSON_AND_ORGANIZATION_ROLE ( 'design_owner' ) ;
#91 = DATE_AND_TIME ( #87, #67 ) ;
#92 = APPLICATION_CONTEXT ( 'configuration controlled 3d designs of mechanical parts and assemblies' ) ;
#93 = CALENDAR_DATE ( 2026, 22, 6 ) ;
#94 = APPROVAL_STATUS ( 'not_yet_approved' ) ;
#95 = DATE_AND_TIME ( #9, #178 ) ;
#96 = PROPERTY_DEFINITION ('document property','', #77 ) ;
#97 = CC_DESIGN_APPROVAL ( #145, ( #169 ) ) ;
#98 = DATE_AND_TIME ( #93, #211 ) ;
#99 = PRODUCT_RELATED_PRODUCT_CATEGORY ( 'detail', '', ( #195 ) ) ;
#100 = CC_DESIGN_SECURITY_CLASSIFICATION ( #214, ( #193 ) ) ;
#101 = OBJECT_ROLE ('mandatory',$ ) ;
#102 = DIRECTION ( 'NONE',  ( 1.000000000000000222, -1.092455418989176591E-28, 4.890937612370273194E-29 ) ) ;
#103 = PERSON_AND_ORGANIZATION ( #18446744073709551615, #18446744073709551615 ) ;
#104 = PERSON_AND_ORGANIZATION ( #18446744073709551615, #18446744073709551615 ) ;
#105 = APPROVAL_DATE_TIME ( #37, #71 ) ;
#106 = CC_DESIGN_DATE_AND_TIME_ASSIGNMENT ( #91, #177, ( #214 ) ) ;
#107 = APPROVAL_DATE_TIME ( #41, #17 ) ;
#108 = CALENDAR_DATE ( 2026, 22, 6 ) ;
#109 = LOCAL_TIME ( 18, 50, 0.000000000000000000, #110 ) ;
#110 = COORDINATED_UNIVERSAL_TIME_OFFSET ( 10, 0, .AHEAD. ) ;
#111 = CC_DESIGN_PERSON_AND_ORGANIZATION_ASSIGNMENT ( #113, #167, ( #89 ) ) ;
#112 = PROPERTY_DEFINITION ('external definition','', #77 ) ;
#113 = PERSON_AND_ORGANIZATION ( #116, #157 ) ;
#114 = LOCAL_TIME ( 18, 50, 0.000000000000000000, #173 ) ;
#115 = CC_DESIGN_APPROVAL ( #135, ( #89 ) ) ;
#116 = PERSON ( 'NAUO-PER291', 'UNSPECIFIED', 'UNSPECIFIED', ('UNSPECIFIED'), ('UNSPECIFIED'), ('UNSPECIFIED') ) ;
#117 = SHAPE_DEFINITION_REPRESENTATION ( #66, #156 ) ;
#118 = CC_DESIGN_PERSON_AND_ORGANIZATION_ASSIGNMENT ( #78, #194, ( #33 ) ) ;
#119 = CARTESIAN_POINT ( 'NONE',  ( 0.000000000000000000, 0.000000000000000000, 0.000000000000000000 ) ) ;
#120 =( LENGTH_UNIT ( ) NAMED_UNIT ( * ) SI_UNIT ( .MILLI., .METRE. ) );
#121 =( NAMED_UNIT ( * ) SI_UNIT ( $, .STERADIAN. ) SOLID_ANGLE_UNIT ( ) );
#122 = PERSON_AND_ORGANIZATION ( #18446744073709551615, #18446744073709551615 ) ;
#123 = DATE_AND_TIME ( #108, #75 ) ;
#124 = PERSON_AND_ORGANIZATION_ROLE ( 'creator' ) ;
#125 =( GEOMETRIC_REPRESENTATION_CONTEXT ( 3 ) GLOBAL_UNCERTAINTY_ASSIGNED_CONTEXT ( ( #16 ) ) GLOBAL_UNIT_ASSIGNED_CONTEXT ( ( #30, #84, #1 ) ) REPRESENTATION_CONTEXT ( 'NONE', 'WORKASPACE' ) );
#126 = APPLICATION_CONTEXT ( 'configuration controlled 3d designs of mechanical parts and assemblies' ) ;
#127 = SHAPE_DEFINITION_REPRESENTATION ( #148, #76 ) ;
#128 = PERSON_AND_ORGANIZATION ( #18446744073709551615, #18446744073709551615 ) ;
#129 = DATE_TIME_ROLE ( 'creation_date' ) ;
#130 = AXIS2_PLACEMENT_3D ( 'NONE', #119, #160, #102 ) ;
#131 = COORDINATED_UNIVERSAL_TIME_OFFSET ( 10, 0, .AHEAD. ) ;
#132 = PRODUCT ( 'Extruded-17.step', 'Extruded-17.step', '', ( #163 ) ) ;
#133 = COORDINATED_UNIVERSAL_TIME_OFFSET ( 10, 0, .AHEAD. ) ;
#134 = CC_DESIGN_DATE_AND_TIME_ASSIGNMENT ( #8, #56, ( #169 ) ) ;
#135 = APPROVAL ( #83, 'UNKNOWN' ) ;
#136 = PERSON_AND_ORGANIZATION ( #18446744073709551615, #18446744073709551615 ) ;
#137 = CC_DESIGN_PERSON_AND_ORGANIZATION_ASSIGNMENT ( #20, #90, ( #132 ) ) ;
#138 = COORDINATED_UNIVERSAL_TIME_OFFSET ( 10, 0, .AHEAD. ) ;
#139 = APPROVAL_ROLE ( '' ) ;
#140 = APPROVAL_ROLE ( '' ) ;
#141 = CALENDAR_DATE ( 2026, 22, 6 ) ;
#142 = APPROVAL_PERSON_ORGANIZATION ( #104, #55, #86 ) ;
#143 = CC_DESIGN_SECURITY_CLASSIFICATION ( #185, ( #33 ) ) ;
#144 = COORDINATED_UNIVERSAL_TIME_OFFSET ( 10, 0, .AHEAD. ) ;
#145 = APPROVAL ( #204, 'Coincident' ) ;
#146 = CALENDAR_DATE ( 2026, 22, 6 ) ;
#147 = PERSON_AND_ORGANIZATION ( #18446744073709551615, #18446744073709551615 ) ;
#148 = PRODUCT_DEFINITION_SHAPE ( 'NONE', 'NONE',  #169 ) ;
#149 = CONTEXT_DEPENDENT_SHAPE_REPRESENTATION ( #82, #27 ) ;
#150 = CC_DESIGN_PERSON_AND_ORGANIZATION_ASSIGNMENT ( #187, #186, ( #214 ) ) ;
#151 = PROPERTY_DEFINITION_REPRESENTATION ( #112, #156 ) ;
#152 = EXTERNAL_SOURCE (IDENTIFIER('') ) ;
#153 = LOCAL_TIME ( 18, 50, 0.000000000000000000, #4 ) ;
#154 = CARTESIAN_POINT ( 'NONE',  ( 0.000000000000000000, 0.000000000000000000, 0.000000000000000000 ) ) ;
#155 = MECHANICAL_CONTEXT ( 'NONE', #126, 'mechanical' ) ;
#156 = SHAPE_REPRESENTATION ( 'Extruded-17.step', ( #202 ), #69 ) ;
#157 = ORGANIZATION ( 'NAUO-ORG291', 'UNSPECIFIED', 'UNSPECIFIED' ) ;
#158 = DIRECTION ( 'NONE',  ( 0.000000000000000000, 0.000000000000000000, 1.000000000000000000 ) ) ;
#159 = CC_DESIGN_PERSON_AND_ORGANIZATION_ASSIGNMENT ( #213, #13, ( #33 ) ) ;
#160 = DIRECTION ( 'NONE',  ( 4.890937612370273194E-29, -3.155443620884047222E-30, 0.9999999999999997780 ) ) ;
#161 = APPROVAL_ROLE ( '' ) ;
#162 = PERSON_AND_ORGANIZATION ( #18446744073709551615, #18446744073709551615 ) ;
#163 = MECHANICAL_CONTEXT ( 'NONE', #70, 'mechanical' ) ;
#164 = CC_DESIGN_APPROVAL ( #55, ( #193 ) ) ;
#165 = APPROVAL_DATE_TIME ( #44, #135 ) ;
#166 = PERSON_AND_ORGANIZATION ( #18446744073709551615, #18446744073709551615 ) ;
#167 = PERSON_AND_ORGANIZATION_ROLE ( 'classification_officer' ) ;
#168 = APPROVAL_DATE_TIME ( #181, #80 ) ;
#169 = PRODUCT_DEFINITION ( 'General', '', #193, #49 ) ;
#170 = CC_DESIGN_PERSON_AND_ORGANIZATION_ASSIGNMENT ( #128, #40, ( #169 ) ) ;
#171 = APPROVAL_DATE_TIME ( #59, #145 ) ;
#172 = CC_DESIGN_SECURITY_CLASSIFICATION ( #89, ( #215 ) ) ;
#173 = COORDINATED_UNIVERSAL_TIME_OFFSET ( 10, 0, .AHEAD. ) ;
#174 = PERSON_AND_ORGANIZATION ( #18446744073709551615, #18446744073709551615 ) ;
#175 = APPROVAL_STATUS ( 'not_yet_approved' ) ;
#176 = CC_DESIGN_PERSON_AND_ORGANIZATION_ASSIGNMENT ( #57, #124, ( #60 ) ) ;
#177 = DATE_TIME_ROLE ( 'classification_date' ) ;
#178 = LOCAL_TIME ( 18, 50, 0.000000000000000000, #196 ) ;
#179 = DATE_TIME_ROLE ( 'classification_date' ) ;
#180 = CC_DESIGN_DATE_AND_TIME_ASSIGNMENT ( #95, #179, ( #185 ) ) ;
#181 = DATE_AND_TIME ( #146, #39 ) ;
#182 = ROLE_ASSOCIATION ( #101, #65 ) ;
#183 = APPLICATION_CONTEXT ( 'configuration controlled 3d designs of mechanical parts and assemblies' ) ;
#184 = DIRECTION ( 'NONE',  ( 0.000000000000000000, 0.000000000000000000, 1.000000000000000000 ) ) ;
#185 = SECURITY_CLASSIFICATION ( '', '', #45 ) ;
#186 = PERSON_AND_ORGANIZATION_ROLE ( 'classification_officer' ) ;
#187 = PERSON_AND_ORGANIZATION ( #18446744073709551615, #18446744073709551615 ) ;
#188 = APPROVAL_PERSON_ORGANIZATION ( #197, #18, #199 ) ;
#189 = COORDINATED_UNIVERSAL_TIME_OFFSET ( 10, 0, .AHEAD. ) ;
#190 = CALENDAR_DATE ( 2026, 22, 6 ) ;
#191 = APPROVAL_DATE_TIME ( #123, #55 ) ;
#192 = APPROVAL_DATE_TIME ( #63, #18 ) ;
#193 = PRODUCT_DEFINITION_FORMATION_WITH_SPECIFIED_SOURCE ( 'Symmetric', '', #195, .NOT_KNOWN. ) ;
#194 = PERSON_AND_ORGANIZATION_ROLE ( 'design_supplier' ) ;
#195 = PRODUCT ( '6461081616.step', '6461081616.step', '', ( #155 ) ) ;
#196 = COORDINATED_UNIVERSAL_TIME_OFFSET ( 10, 0, .AHEAD. ) ;
#197 = PERSON_AND_ORGANIZATION ( #18446744073709551615, #18446744073709551615 ) ;
#198 = APPROVAL_PERSON_ORGANIZATION ( #113, #135, #25 ) ;
#199 = APPROVAL_ROLE ( '' ) ;
#200 = PRODUCT_RELATED_PRODUCT_CATEGORY ( 'detail', '', ( #132 ) ) ;
#201 = UNCERTAINTY_MEASURE_WITH_UNIT (LENGTH_MEASURE( 1.000000000000000082E-05 ), #120, 'distance_accuracy_value', 'NONE');
#202 = AXIS2_PLACEMENT_3D ( 'NONE', #154, #184, #32 ) ;
#203 = APPLICATION_PROTOCOL_DEFINITION ( 'international standard', 'config_control_design', 1994, #70 ) ;
#204 = APPROVAL_STATUS ( 'not_yet_approved' ) ;
#205 = COORDINATED_UNIVERSAL_TIME_OFFSET ( 10, 0, .AHEAD. ) ;
#206 = AXIS2_PLACEMENT_3D ( 'NONE', #35, #158, #22 ) ;
#207 = PERSON_AND_ORGANIZATION_ROLE ( 'design_owner' ) ;
#208 = CC_DESIGN_PERSON_AND_ORGANIZATION_ASSIGNMENT ( #136, #207, ( #195 ) ) ;
#209 = PERSON_AND_ORGANIZATION_ROLE ( 'classification_officer' ) ;
#210 = SECURITY_CLASSIFICATION_LEVEL ( 'unclassified' ) ;
#211 = LOCAL_TIME ( 18, 50, 0.000000000000000000, #189 ) ;
#212 = APPLIED_EXTERNAL_IDENTIFICATION_ASSIGNMENT ( 'Extruded-17.step.STEP' , #31, #152,( #77) ) ;
#213 = PERSON_AND_ORGANIZATION ( #18446744073709551615, #18446744073709551615 ) ;
#214 = SECURITY_CLASSIFICATION ( '', '', #21 ) ;
#215 = NEXT_ASSEMBLY_USAGE_OCCURRENCE ( 'NAUO291', ' ', ' ', #169, #60, $ ) ;
ENDSEC;
END-ISO-10303-21;
