ISO-10303-21;
HEADER;
FILE_DESCRIPTION (( 'STEP AP203' ),
    '1' );
FILE_NAME ('6461078016.step.STEP',
    '2026-06-22T08:49:56',
    ( 'localuser' ),
    ( '' ),
    'SwSTEP 2.0',
    'SolidWorks 2025',
    '' );
FILE_SCHEMA (( 'CONFIG_CONTROL_DESIGN' ));
ENDSEC;

DATA;
#1 = DATE_AND_TIME ( #114, #21 ) ;
#2 = APPROVAL ( #69, 'Coincident' ) ;
#3 = CALENDAR_DATE ( 2026, 22, 6 ) ;
#4 = PROPERTY_DEFINITION_REPRESENTATION ( #57, #108 ) ;
#5 =( GEOMETRIC_REPRESENTATION_CONTEXT ( 3 ) GLOBAL_UNCERTAINTY_ASSIGNED_CONTEXT ( ( #164 ) ) GLOBAL_UNIT_ASSIGNED_CONTEXT ( ( #39, #24, #110 ) ) REPRESENTATION_CONTEXT ( 'NONE', 'WORKASPACE' ) );
#6 = CC_DESIGN_PERSON_AND_ORGANIZATION_ASSIGNMENT ( #172, #170, ( #41 ) ) ;
#7 = APPROVAL_STATUS ( 'not_yet_approved' ) ;
#8 = CC_DESIGN_PERSON_AND_ORGANIZATION_ASSIGNMENT ( #46, #83, ( #15 ) ) ;
#9 = LOCAL_TIME ( 18, 49, 56.00000000000000000, #30 ) ;
#10 = COORDINATED_UNIVERSAL_TIME_OFFSET ( 10, 0, .AHEAD. ) ;
#11 = COORDINATED_UNIVERSAL_TIME_OFFSET ( 10, 0, .AHEAD. ) ;
#12 = CALENDAR_DATE ( 2026, 22, 6 ) ;
#13 = PERSON_AND_ORGANIZATION ( #18446744073709551615, #18446744073709551615 ) ;
#14 = COORDINATED_UNIVERSAL_TIME_OFFSET ( 10, 0, .AHEAD. ) ;
#15 = PRODUCT_DEFINITION_FORMATION_WITH_SPECIFIED_SOURCE ( 'Symmetric', '', #107, .NOT_KNOWN. ) ;
#16 = APPROVAL_ROLE ( '' ) ;
#17 = UNCERTAINTY_MEASURE_WITH_UNIT (LENGTH_MEASURE( 1.000000000000000082E-05 ), #139, 'distance_accuracy_value', 'NONE');
#18 = DIRECTION ( 'NONE',  ( 0.000000000000000000, 0.000000000000000000, 1.000000000000000000 ) ) ;
#19 = APPLICATION_CONTEXT ( 'configuration controlled 3d designs of mechanical parts and assemblies' ) ;
#20 = APPROVAL ( #167, 'Coincident' ) ;
#21 = LOCAL_TIME ( 18, 49, 56.00000000000000000, #146 ) ;
#22 = LOCAL_TIME ( 18, 49, 56.00000000000000000, #72 ) ;
#23 = SECURITY_CLASSIFICATION_LEVEL ( 'unclassified' ) ;
#24 =( NAMED_UNIT ( * ) PLANE_ANGLE_UNIT ( ) SI_UNIT ( $, .RADIAN. ) );
#25 = PRODUCT_DEFINITION ( 'General', '', #41, #141 ) ;
#26 = PROPERTY_DEFINITION ('document property','', #189 ) ;
#27 = APPROVAL_ROLE ( '' ) ;
#28 = SECURITY_CLASSIFICATION_LEVEL ( 'unclassified' ) ;
#29 = CALENDAR_DATE ( 2026, 22, 6 ) ;
#30 = COORDINATED_UNIVERSAL_TIME_OFFSET ( 10, 0, .AHEAD. ) ;
#31 = IDENTIFICATION_ROLE ( 'external document id and location', $) ;
#32 = DATE_AND_TIME ( #182, #210 ) ;
#33 = APPROVAL_STATUS ( 'not_yet_approved' ) ;
#34 = PERSON_AND_ORGANIZATION ( #152, #144 ) ;
#35 = APPROVAL ( #162, 'UNKNOWN' ) ;
#36 = CC_DESIGN_DATE_AND_TIME_ASSIGNMENT ( #1, #199, ( #60 ) ) ;
#37 = APPROVAL ( #7, 'Coincident' ) ;
#38 = PERSON_AND_ORGANIZATION ( #18446744073709551615, #18446744073709551615 ) ;
#39 =( LENGTH_UNIT ( ) NAMED_UNIT ( * ) SI_UNIT ( .MILLI., .METRE. ) );
#40 = EXTERNAL_SOURCE (IDENTIFIER('') ) ;
#41 = PRODUCT_DEFINITION_FORMATION_WITH_SPECIFIED_SOURCE ( 'Symmetric', '', #137, .NOT_KNOWN. ) ;
#42 = DATE_TIME_ROLE ( 'creation_date' ) ;
#43 = APPROVAL ( #82, 'Coincident' ) ;
#44 = ITEM_DEFINED_TRANSFORMATION ( 'NONE', 'NONE', #65,  #81 ) ;
#45 = DESIGN_CONTEXT ( 'detailed design', #187, 'design' ) ;
#46 = PERSON_AND_ORGANIZATION ( #18446744073709551615, #18446744073709551615 ) ;
#47 = CC_DESIGN_APPROVAL ( #37, ( #25 ) ) ;
#48 = MECHANICAL_CONTEXT ( 'NONE', #176, 'mechanical' ) ;
#49 = PERSON_AND_ORGANIZATION ( #18446744073709551615, #18446744073709551615 ) ;
#50 = PERSON_AND_ORGANIZATION ( #18446744073709551615, #18446744073709551615 ) ;
#51 = SHAPE_REPRESENTATION ( '6461078016.step', ( #204, #65 ), #85 ) ;
#52 = LOCAL_TIME ( 18, 49, 56.00000000000000000, #166 ) ;
#53 = CC_DESIGN_PERSON_AND_ORGANIZATION_ASSIGNMENT ( #34, #84, ( #117 ) ) ;
#54 = DOCUMENT_TYPE ( 'geometry' ) ;
#55 = APPLIED_EXTERNAL_IDENTIFICATION_ASSIGNMENT ( 'Extruded-12.step.STEP' , #31, #40,( #189) ) ;
#56 = CALENDAR_DATE ( 2026, 22, 6 ) ;
#57 = PROPERTY_DEFINITION ('external definition','', #189 ) ;
#58 =( NAMED_UNIT ( * ) PLANE_ANGLE_UNIT ( ) SI_UNIT ( $, .RADIAN. ) );
#59 = COORDINATED_UNIVERSAL_TIME_OFFSET ( 10, 0, .AHEAD. ) ;
#60 = PRODUCT_DEFINITION ( 'General', '', #15, #45 ) ;
#61 = CC_DESIGN_APPROVAL ( #43, ( #15 ) ) ;
#62 = DATE_AND_TIME ( #142, #143 ) ;
#63 = COORDINATED_UNIVERSAL_TIME_OFFSET ( 10, 0, .AHEAD. ) ;
#64 = DATE_TIME_ROLE ( 'classification_date' ) ;
#65 = AXIS2_PLACEMENT_3D ( 'NONE', #76, #190, #74 ) ;
#66 = COORDINATED_UNIVERSAL_TIME_OFFSET ( 10, 0, .AHEAD. ) ;
#67 = CC_DESIGN_APPROVAL ( #35, ( #117 ) ) ;
#68 = PERSON_AND_ORGANIZATION ( #18446744073709551615, #18446744073709551615 ) ;
#69 = APPROVAL_STATUS ( 'not_yet_approved' ) ;
#70 = APPROVAL_ROLE ( '' ) ;
#71 = CC_DESIGN_APPROVAL ( #175, ( #214 ) ) ;
#72 = COORDINATED_UNIVERSAL_TIME_OFFSET ( 10, 0, .AHEAD. ) ;
#73 = APPROVAL_PERSON_ORGANIZATION ( #177, #168, #27 ) ;
#74 = DIRECTION ( 'NONE',  ( 1.000000000000000222, -1.092455418989176591E-28, 4.890937612370273194E-29 ) ) ;
#75 = DIRECTION ( 'NONE',  ( 1.000000000000000000, 0.000000000000000000, 0.000000000000000000 ) ) ;
#76 = CARTESIAN_POINT ( 'NONE',  ( 0.000000000000000000, 0.000000000000000000, 0.000000000000000000 ) ) ;
#77 = DATE_AND_TIME ( #56, #157 ) ;
#78 = CALENDAR_DATE ( 2026, 22, 6 ) ;
#79 = APPROVAL_DATE_TIME ( #95, #43 ) ;
#80 = APPROVAL_DATE_TIME ( #129, #20 ) ;
#81 = AXIS2_PLACEMENT_3D ( 'NONE', #169, #18, #154 ) ;
#82 = APPROVAL_STATUS ( 'not_yet_approved' ) ;
#83 = PERSON_AND_ORGANIZATION_ROLE ( 'design_supplier' ) ;
#84 = PERSON_AND_ORGANIZATION_ROLE ( 'classification_officer' ) ;
#85 =( GEOMETRIC_REPRESENTATION_CONTEXT ( 3 ) GLOBAL_UNCERTAINTY_ASSIGNED_CONTEXT ( ( #17 ) ) GLOBAL_UNIT_ASSIGNED_CONTEXT ( ( #139, #58, #138 ) ) REPRESENTATION_CONTEXT ( 'NONE', 'WORKASPACE' ) );
#86 = APPROVAL_PERSON_ORGANIZATION ( #49, #2, #94 ) ;
#87 = PERSON_AND_ORGANIZATION ( #18446744073709551615, #18446744073709551615 ) ;
#88 = CC_DESIGN_PERSON_AND_ORGANIZATION_ASSIGNMENT ( #198, #130, ( #60 ) ) ;
#89 = PERSON_AND_ORGANIZATION ( #18446744073709551615, #18446744073709551615 ) ;
#90 = PRODUCT_DEFINITION_SHAPE ( 'NONE', 'NONE',  #215 ) ;
#91 = CC_DESIGN_APPROVAL ( #168, ( #41 ) ) ;
#92 = APPROVAL_ROLE ( '' ) ;
#93 = PERSON_AND_ORGANIZATION_ROLE ( 'creator' ) ;
#94 = APPROVAL_ROLE ( '' ) ;
#95 = DATE_AND_TIME ( #12, #9 ) ;
#96 = CC_DESIGN_SECURITY_CLASSIFICATION ( #206, ( #15 ) ) ;
#97 = PERSON_AND_ORGANIZATION_ROLE ( 'design_owner' ) ;
#98 = DATE_AND_TIME ( #3, #134 ) ;
#99 = COORDINATED_UNIVERSAL_TIME_OFFSET ( 10, 0, .AHEAD. ) ;
#100 = APPLICATION_PROTOCOL_DEFINITION ( 'international standard', 'config_control_design', 1994, #176 ) ;
#101 = ROLE_ASSOCIATION ( #120, #153 ) ;
#102 = CC_DESIGN_DATE_AND_TIME_ASSIGNMENT ( #145, #118, ( #117 ) ) ;
#103 = PROPERTY_DEFINITION_REPRESENTATION ( #26, #108 ) ;
#104 = PERSON_AND_ORGANIZATION_ROLE ( 'creator' ) ;
#105 = LOCAL_TIME ( 18, 49, 56.00000000000000000, #14 ) ;
#106 = LOCAL_TIME ( 18, 49, 56.00000000000000000, #11 ) ;
#107 = PRODUCT ( 'Extruded-12.step', 'Extruded-12.step', '', ( #48 ) ) ;
#108 = SHAPE_REPRESENTATION ( 'Extruded-12.step', ( #81 ), #5 ) ;
#109 = APPLICATION_PROTOCOL_DEFINITION ( 'international standard', 'config_control_design', 1994, #202 ) ;
#110 =( NAMED_UNIT ( * ) SI_UNIT ( $, .STERADIAN. ) SOLID_ANGLE_UNIT ( ) );
#111 = CC_DESIGN_PERSON_AND_ORGANIZATION_ASSIGNMENT ( #87, #136, ( #214 ) ) ;
#112 = PERSON_AND_ORGANIZATION_ROLE ( 'classification_officer' ) ;
#113 = LOCAL_TIME ( 18, 49, 56.00000000000000000, #99 ) ;
#114 = CALENDAR_DATE ( 2026, 22, 6 ) ;
#115 = APPROVAL_DATE_TIME ( #211, #175 ) ;
#116 = PERSON_AND_ORGANIZATION ( #18446744073709551615, #18446744073709551615 ) ;
#117 = SECURITY_CLASSIFICATION ( '', '', #28 ) ;
#118 = DATE_TIME_ROLE ( 'classification_date' ) ;
#119 = APPROVAL_PERSON_ORGANIZATION ( #183, #175, #128 ) ;
#120 = OBJECT_ROLE ('mandatory',$ ) ;
#121 = CALENDAR_DATE ( 2026, 22, 6 ) ;
#122 = PRODUCT_RELATED_PRODUCT_CATEGORY ( 'detail', '', ( #107 ) ) ;
#123 = APPROVAL_STATUS ( 'not_yet_approved' ) ;
#124 = PRODUCT_DEFINITION_SHAPE ( 'NONE', 'NONE',  #60 ) ;
#125 = CARTESIAN_POINT ( 'NONE',  ( 0.000000000000000000, 0.000000000000000000, 0.000000000000000000 ) ) ;
#126 = APPROVAL_DATE_TIME ( #62, #168 ) ;
#127 = PRODUCT_RELATED_PRODUCT_CATEGORY ( 'detail', '', ( #137 ) ) ;
#128 = APPROVAL_ROLE ( '' ) ;
#129 = DATE_AND_TIME ( #149, #113 ) ;
#130 = PERSON_AND_ORGANIZATION_ROLE ( 'creator' ) ;
#131 = CC_DESIGN_PERSON_AND_ORGANIZATION_ASSIGNMENT ( #38, #93, ( #25 ) ) ;
#132 = SECURITY_CLASSIFICATION_LEVEL ( 'unclassified' ) ;
#133 = SHAPE_DEFINITION_REPRESENTATION ( #124, #108 ) ;
#134 = LOCAL_TIME ( 18, 49, 56.00000000000000000, #66 ) ;
#135 = CC_DESIGN_APPROVAL ( #20, ( #60 ) ) ;
#136 = PERSON_AND_ORGANIZATION_ROLE ( 'classification_officer' ) ;
#137 = PRODUCT ( '6461078016.step', '6461078016.step', '', ( #160 ) ) ;
#138 =( NAMED_UNIT ( * ) SI_UNIT ( $, .STERADIAN. ) SOLID_ANGLE_UNIT ( ) );
#139 =( LENGTH_UNIT ( ) NAMED_UNIT ( * ) SI_UNIT ( .MILLI., .METRE. ) );
#140 = APPLICATION_PROTOCOL_DEFINITION ( 'international standard', 'config_control_design', 1994, #19 ) ;
#141 = DESIGN_CONTEXT ( 'detailed design', #19, 'design' ) ;
#142 = CALENDAR_DATE ( 2026, 22, 6 ) ;
#143 = LOCAL_TIME ( 18, 49, 56.00000000000000000, #10 ) ;
#144 = ORGANIZATION ( 'NAUO-ORG132', 'UNSPECIFIED', 'UNSPECIFIED' ) ;
#145 = DATE_AND_TIME ( #78, #106 ) ;
#146 = COORDINATED_UNIVERSAL_TIME_OFFSET ( 10, 0, .AHEAD. ) ;
#147 = DATE_AND_TIME ( #29, #52 ) ;
#148 = APPROVAL_PERSON_ORGANIZATION ( #34, #35, #70 ) ;
#149 = CALENDAR_DATE ( 2026, 22, 6 ) ;
#150 = PERSON_AND_ORGANIZATION_ROLE ( 'creator' ) ;
#151 = CC_DESIGN_PERSON_AND_ORGANIZATION_ASSIGNMENT ( #116, #97, ( #107 ) ) ;
#152 = PERSON ( 'NAUO-PER132', 'UNSPECIFIED', 'UNSPECIFIED', ('UNSPECIFIED'), ('UNSPECIFIED'), ('UNSPECIFIED') ) ;
#153 = APPLIED_DOCUMENT_REFERENCE ( #189,'',( #60) ) ;
#154 = DIRECTION ( 'NONE',  ( 1.000000000000000000, 0.000000000000000000, 0.000000000000000000 ) ) ;
#155 = APPROVAL_DATE_TIME ( #186, #35 ) ;
#156 = CC_DESIGN_PERSON_AND_ORGANIZATION_ASSIGNMENT ( #196, #104, ( #41 ) ) ;
#157 = LOCAL_TIME ( 18, 49, 56.00000000000000000, #194 ) ;
#158 = CC_DESIGN_DATE_AND_TIME_ASSIGNMENT ( #98, #165, ( #206 ) ) ;
#159 = CC_DESIGN_SECURITY_CLASSIFICATION ( #117, ( #215 ) ) ;
#160 = MECHANICAL_CONTEXT ( 'NONE', #202, 'mechanical' ) ;
#161 = PERSON_AND_ORGANIZATION ( #18446744073709551615, #18446744073709551615 ) ;
#162 = APPROVAL_STATUS ( 'not_yet_approved' ) ;
#163 = APPROVAL_ROLE ( '' ) ;
#164 = UNCERTAINTY_MEASURE_WITH_UNIT (LENGTH_MEASURE( 1.000000000000000082E-05 ), #39, 'distance_accuracy_value', 'NONE');
#165 = DATE_TIME_ROLE ( 'classification_date' ) ;
#166 = COORDINATED_UNIVERSAL_TIME_OFFSET ( 10, 0, .AHEAD. ) ;
#167 = APPROVAL_STATUS ( 'not_yet_approved' ) ;
#168 = APPROVAL ( #123, 'Coincident' ) ;
#169 = CARTESIAN_POINT ( 'NONE',  ( 0.000000000000000000, 0.000000000000000000, 0.000000000000000000 ) ) ;
#170 = PERSON_AND_ORGANIZATION_ROLE ( 'design_supplier' ) ;
#171 = PERSON_AND_ORGANIZATION_ROLE ( 'design_owner' ) ;
#172 = PERSON_AND_ORGANIZATION ( #18446744073709551615, #18446744073709551615 ) ;
#173 = CALENDAR_DATE ( 2026, 22, 6 ) ;
#174 = CC_DESIGN_APPROVAL ( #2, ( #206 ) ) ;
#175 = APPROVAL ( #33, 'Coincident' ) ;
#176 = APPLICATION_CONTEXT ( 'configuration controlled 3d designs of mechanical parts and assemblies' ) ;
#177 = PERSON_AND_ORGANIZATION ( #18446744073709551615, #18446744073709551615 ) ;
#178 = CALENDAR_DATE ( 2026, 22, 6 ) ;
#179 = CC_DESIGN_DATE_AND_TIME_ASSIGNMENT ( #77, #42, ( #25 ) ) ;
#180 = LOCAL_TIME ( 18, 49, 56.00000000000000000, #59 ) ;
#181 = PERSON_AND_ORGANIZATION ( #18446744073709551615, #18446744073709551615 ) ;
#182 = CALENDAR_DATE ( 2026, 22, 6 ) ;
#183 = PERSON_AND_ORGANIZATION ( #18446744073709551615, #18446744073709551615 ) ;
#184 = CONTEXT_DEPENDENT_SHAPE_REPRESENTATION ( #192, #90 ) ;
#185 = APPROVAL_PERSON_ORGANIZATION ( #161, #37, #92 ) ;
#186 = DATE_AND_TIME ( #121, #22 ) ;
#187 = APPLICATION_CONTEXT ( 'configuration controlled 3d designs of mechanical parts and assemblies' ) ;
#188 = CC_DESIGN_SECURITY_CLASSIFICATION ( #214, ( #41 ) ) ;
#189 = DOCUMENT_FILE ( 'Extruded-12.step.STEP' , '', '', #54, '' ,$ ) ;
#190 = DIRECTION ( 'NONE',  ( 4.890937612370273194E-29, -3.155443620884047222E-30, 0.9999999999999997780 ) ) ;
#191 = PRODUCT_DEFINITION_SHAPE ( 'NONE', 'NONE',  #25 ) ;
#192 =( REPRESENTATION_RELATIONSHIP ('NONE','NONE', #51, #108 ) REPRESENTATION_RELATIONSHIP_WITH_TRANSFORMATION ( #44 )SHAPE_REPRESENTATION_RELATIONSHIP( ) );
#193 = DIRECTION ( 'NONE',  ( 0.000000000000000000, 0.000000000000000000, 1.000000000000000000 ) ) ;
#194 = COORDINATED_UNIVERSAL_TIME_OFFSET ( 10, 0, .AHEAD. ) ;
#195 = APPROVAL_PERSON_ORGANIZATION ( #181, #43, #16 ) ;
#196 = PERSON_AND_ORGANIZATION ( #18446744073709551615, #18446744073709551615 ) ;
#197 = CC_DESIGN_PERSON_AND_ORGANIZATION_ASSIGNMENT ( #89, #171, ( #137 ) ) ;
#198 = PERSON_AND_ORGANIZATION ( #18446744073709551615, #18446744073709551615 ) ;
#199 = DATE_TIME_ROLE ( 'creation_date' ) ;
#200 = APPLICATION_PROTOCOL_DEFINITION ( 'international standard', 'config_control_design', 1994, #187 ) ;
#201 = APPROVAL_DATE_TIME ( #32, #2 ) ;
#202 = APPLICATION_CONTEXT ( 'configuration controlled 3d designs of mechanical parts and assemblies' ) ;
#203 = CC_DESIGN_PERSON_AND_ORGANIZATION_ASSIGNMENT ( #13, #112, ( #206 ) ) ;
#204 = AXIS2_PLACEMENT_3D ( 'NONE', #125, #193, #75 ) ;
#205 = APPROVAL_PERSON_ORGANIZATION ( #50, #20, #163 ) ;
#206 = SECURITY_CLASSIFICATION ( '', '', #132 ) ;
#207 = DATE_AND_TIME ( #173, #180 ) ;
#208 = CC_DESIGN_PERSON_AND_ORGANIZATION_ASSIGNMENT ( #68, #150, ( #15 ) ) ;
#209 = APPROVAL_DATE_TIME ( #207, #37 ) ;
#210 = LOCAL_TIME ( 18, 49, 56.00000000000000000, #63 ) ;
#211 = DATE_AND_TIME ( #178, #105 ) ;
#212 = CC_DESIGN_DATE_AND_TIME_ASSIGNMENT ( #147, #64, ( #214 ) ) ;
#213 = SHAPE_DEFINITION_REPRESENTATION ( #191, #51 ) ;
#214 = SECURITY_CLASSIFICATION ( '', '', #23 ) ;
#215 = NEXT_ASSEMBLY_USAGE_OCCURRENCE ( 'NAUO132', ' ', ' ', #25, #60, $ ) ;
ENDSEC;
END-ISO-10303-21;
