ISO-10303-21;
HEADER;
FILE_DESCRIPTION (( 'STEP AP203' ),
    '1' );
FILE_NAME ('6534431024.step.STEP',
    '2026-06-22T08:49:53',
    ( 'localuser' ),
    ( '' ),
    'SwSTEP 2.0',
    'SolidWorks 2025',
    '' );
FILE_SCHEMA (( 'CONFIG_CONTROL_DESIGN' ));
ENDSEC;

DATA;
#1 = CC_DESIGN_PERSON_AND_ORGANIZATION_ASSIGNMENT ( #139, #77, ( #92 ) ) ;
#2 = DESIGN_CONTEXT ( 'detailed design', #47, 'design' ) ;
#3 = PERSON_AND_ORGANIZATION ( #18446744073709551615, #18446744073709551615 ) ;
#4 = ROLE_ASSOCIATION ( #35, #101 ) ;
#5 = PERSON_AND_ORGANIZATION_ROLE ( 'classification_officer' ) ;
#6 = PRODUCT_DEFINITION ( 'General', '', #86, #95 ) ;
#7 = LOCAL_TIME ( 18, 49, 53.00000000000000000, #140 ) ;
#8 = APPROVAL_STATUS ( 'not_yet_approved' ) ;
#9 = PERSON_AND_ORGANIZATION ( #18446744073709551615, #18446744073709551615 ) ;
#10 = PRODUCT_DEFINITION_FORMATION_WITH_SPECIFIED_SOURCE ( 'Symmetric', '', #92, .NOT_KNOWN. ) ;
#11 = MECHANICAL_CONTEXT ( 'NONE', #169, 'mechanical' ) ;
#12 = APPLICATION_PROTOCOL_DEFINITION ( 'international standard', 'config_control_design', 1994, #208 ) ;
#13 =( LENGTH_UNIT ( ) NAMED_UNIT ( * ) SI_UNIT ( .MILLI., .METRE. ) );
#14 = SHAPE_DEFINITION_REPRESENTATION ( #141, #138 ) ;
#15 = COORDINATED_UNIVERSAL_TIME_OFFSET ( 10, 0, .AHEAD. ) ;
#16 = APPLICATION_CONTEXT ( 'configuration controlled 3d designs of mechanical parts and assemblies' ) ;
#17 = PERSON_AND_ORGANIZATION ( #18446744073709551615, #18446744073709551615 ) ;
#18 = CC_DESIGN_PERSON_AND_ORGANIZATION_ASSIGNMENT ( #145, #50, ( #112 ) ) ;
#19 = PERSON_AND_ORGANIZATION ( #212, #68 ) ;
#20 = LOCAL_TIME ( 18, 49, 53.00000000000000000, #129 ) ;
#21 = LOCAL_TIME ( 18, 49, 53.00000000000000000, #211 ) ;
#22 =( NAMED_UNIT ( * ) PLANE_ANGLE_UNIT ( ) SI_UNIT ( $, .RADIAN. ) );
#23 = APPROVAL_ROLE ( '' ) ;
#24 = CC_DESIGN_DATE_AND_TIME_ASSIGNMENT ( #163, #33, ( #185 ) ) ;
#25 = SECURITY_CLASSIFICATION_LEVEL ( 'unclassified' ) ;
#26 = PERSON_AND_ORGANIZATION ( #18446744073709551615, #18446744073709551615 ) ;
#27 = CC_DESIGN_DATE_AND_TIME_ASSIGNMENT ( #42, #113, ( #102 ) ) ;
#28 = PERSON_AND_ORGANIZATION ( #18446744073709551615, #18446744073709551615 ) ;
#29 = PROPERTY_DEFINITION ('document property','', #183 ) ;
#30 = DATE_AND_TIME ( #58, #157 ) ;
#31 = APPROVAL_STATUS ( 'not_yet_approved' ) ;
#32 = UNCERTAINTY_MEASURE_WITH_UNIT (LENGTH_MEASURE( 1.000000000000000082E-05 ), #100, 'distance_accuracy_value', 'NONE');
#33 = DATE_TIME_ROLE ( 'classification_date' ) ;
#34 = CC_DESIGN_APPROVAL ( #76, ( #102 ) ) ;
#35 = OBJECT_ROLE ('mandatory',$ ) ;
#36 = PRODUCT_RELATED_PRODUCT_CATEGORY ( 'detail', '', ( #92 ) ) ;
#37 = DATE_AND_TIME ( #181, #44 ) ;
#38 = APPROVAL ( #152, 'Coincident' ) ;
#39 = DATE_AND_TIME ( #188, #21 ) ;
#40 = COORDINATED_UNIVERSAL_TIME_OFFSET ( 10, 0, .AHEAD. ) ;
#41 = DIRECTION ( 'NONE',  ( 0.000000000000000000, 0.000000000000000000, 1.000000000000000000 ) ) ;
#42 = DATE_AND_TIME ( #80, #65 ) ;
#43 = PERSON_AND_ORGANIZATION ( #18446744073709551615, #18446744073709551615 ) ;
#44 = LOCAL_TIME ( 18, 49, 53.00000000000000000, #132 ) ;
#45 = MECHANICAL_CONTEXT ( 'NONE', #208, 'mechanical' ) ;
#46 = PROPERTY_DEFINITION_REPRESENTATION ( #29, #166 ) ;
#47 = APPLICATION_CONTEXT ( 'configuration controlled 3d designs of mechanical parts and assemblies' ) ;
#48 = LOCAL_TIME ( 18, 49, 53.00000000000000000, #137 ) ;
#49 = APPROVAL_STATUS ( 'not_yet_approved' ) ;
#50 = PERSON_AND_ORGANIZATION_ROLE ( 'design_owner' ) ;
#51 = EXTERNAL_SOURCE (IDENTIFIER('') ) ;
#52 = DATE_AND_TIME ( #197, #48 ) ;
#53 = SECURITY_CLASSIFICATION ( '', '', #187 ) ;
#54 = LOCAL_TIME ( 18, 49, 53.00000000000000000, #146 ) ;
#55 = APPROVAL_DATE_TIME ( #190, #76 ) ;
#56 = CC_DESIGN_PERSON_AND_ORGANIZATION_ASSIGNMENT ( #43, #127, ( #102 ) ) ;
#57 = APPLICATION_PROTOCOL_DEFINITION ( 'international standard', 'config_control_design', 1994, #169 ) ;
#58 = CALENDAR_DATE ( 2026, 22, 6 ) ;
#59 = PROPERTY_DEFINITION ('external definition','', #183 ) ;
#60 = COORDINATED_UNIVERSAL_TIME_OFFSET ( 10, 0, .AHEAD. ) ;
#61 = DATE_AND_TIME ( #207, #7 ) ;
#62 = APPROVAL ( #79, 'Coincident' ) ;
#63 = ITEM_DEFINED_TRANSFORMATION ( 'NONE', 'NONE', #88,  #71 ) ;
#64 =( REPRESENTATION_RELATIONSHIP ('NONE','NONE', #138, #166 ) REPRESENTATION_RELATIONSHIP_WITH_TRANSFORMATION ( #63 )SHAPE_REPRESENTATION_RELATIONSHIP( ) );
#65 = LOCAL_TIME ( 18, 49, 53.00000000000000000, #40 ) ;
#66 = CALENDAR_DATE ( 2026, 22, 6 ) ;
#67 = PERSON_AND_ORGANIZATION_ROLE ( 'classification_officer' ) ;
#68 = ORGANIZATION ( 'NAUO-ORG63', 'UNSPECIFIED', 'UNSPECIFIED' ) ;
#69 = CC_DESIGN_PERSON_AND_ORGANIZATION_ASSIGNMENT ( #28, #117, ( #10 ) ) ;
#70 = DOCUMENT_TYPE ( 'geometry' ) ;
#71 = AXIS2_PLACEMENT_3D ( 'NONE', #90, #41, #191 ) ;
#72 = CC_DESIGN_PERSON_AND_ORGANIZATION_ASSIGNMENT ( #121, #5, ( #53 ) ) ;
#73 = LOCAL_TIME ( 18, 49, 53.00000000000000000, #60 ) ;
#74 = LOCAL_TIME ( 18, 49, 53.00000000000000000, #115 ) ;
#75 = IDENTIFICATION_ROLE ( 'external document id and location', $) ;
#76 = APPROVAL ( #194, 'Coincident' ) ;
#77 = PERSON_AND_ORGANIZATION_ROLE ( 'design_owner' ) ;
#78 = PERSON_AND_ORGANIZATION_ROLE ( 'design_supplier' ) ;
#79 = APPROVAL_STATUS ( 'not_yet_approved' ) ;
#80 = CALENDAR_DATE ( 2026, 22, 6 ) ;
#81 = PERSON_AND_ORGANIZATION ( #18446744073709551615, #18446744073709551615 ) ;
#82 = PERSON_AND_ORGANIZATION_ROLE ( 'creator' ) ;
#83 = SECURITY_CLASSIFICATION ( '', '', #204 ) ;
#84 = CONTEXT_DEPENDENT_SHAPE_REPRESENTATION ( #64, #130 ) ;
#85 = APPROVAL_PERSON_ORGANIZATION ( #107, #38, #23 ) ;
#86 = PRODUCT_DEFINITION_FORMATION_WITH_SPECIFIED_SOURCE ( 'Symmetric', '', #112, .NOT_KNOWN. ) ;
#87 = APPLIED_EXTERNAL_IDENTIFICATION_ASSIGNMENT ( 'Extruded-4.step.STEP' , #75, #51,( #183) ) ;
#88 = AXIS2_PLACEMENT_3D ( 'NONE', #142, #128, #175 ) ;
#89 = APPROVAL_ROLE ( '' ) ;
#90 = CARTESIAN_POINT ( 'NONE',  ( 0.000000000000000000, 0.000000000000000000, 0.000000000000000000 ) ) ;
#91 = DATE_AND_TIME ( #94, #74 ) ;
#92 = PRODUCT ( 'Extruded-4.step', 'Extruded-4.step', '', ( #45 ) ) ;
#93 = PERSON_AND_ORGANIZATION ( #18446744073709551615, #18446744073709551615 ) ;
#94 = CALENDAR_DATE ( 2026, 22, 6 ) ;
#95 = DESIGN_CONTEXT ( 'detailed design', #16, 'design' ) ;
#96 = COORDINATED_UNIVERSAL_TIME_OFFSET ( 10, 0, .AHEAD. ) ;
#97 = DATE_AND_TIME ( #180, #153 ) ;
#98 =( GEOMETRIC_REPRESENTATION_CONTEXT ( 3 ) GLOBAL_UNCERTAINTY_ASSIGNED_CONTEXT ( ( #32 ) ) GLOBAL_UNIT_ASSIGNED_CONTEXT ( ( #100, #22, #104 ) ) REPRESENTATION_CONTEXT ( 'NONE', 'WORKASPACE' ) );
#99 = CC_DESIGN_SECURITY_CLASSIFICATION ( #83, ( #10 ) ) ;
#100 =( LENGTH_UNIT ( ) NAMED_UNIT ( * ) SI_UNIT ( .MILLI., .METRE. ) );
#101 = APPLIED_DOCUMENT_REFERENCE ( #183,'',( #102) ) ;
#102 = PRODUCT_DEFINITION ( 'General', '', #10, #2 ) ;
#103 = APPROVAL_PERSON_ORGANIZATION ( #19, #206, #89 ) ;
#104 =( NAMED_UNIT ( * ) SI_UNIT ( $, .STERADIAN. ) SOLID_ANGLE_UNIT ( ) );
#105 = CC_DESIGN_DATE_AND_TIME_ASSIGNMENT ( #37, #133, ( #6 ) ) ;
#106 = PERSON_AND_ORGANIZATION_ROLE ( 'creator' ) ;
#107 = PERSON_AND_ORGANIZATION ( #18446744073709551615, #18446744073709551615 ) ;
#108 =( GEOMETRIC_REPRESENTATION_CONTEXT ( 3 ) GLOBAL_UNCERTAINTY_ASSIGNED_CONTEXT ( ( #184 ) ) GLOBAL_UNIT_ASSIGNED_CONTEXT ( ( #13, #201, #189 ) ) REPRESENTATION_CONTEXT ( 'NONE', 'WORKASPACE' ) );
#109 = APPROVAL_DATE_TIME ( #39, #206 ) ;
#110 = CC_DESIGN_APPROVAL ( #62, ( #83 ) ) ;
#111 = APPROVAL_STATUS ( 'not_yet_approved' ) ;
#112 = PRODUCT ( '6534431024.step', '6534431024.step', '', ( #11 ) ) ;
#113 = DATE_TIME_ROLE ( 'creation_date' ) ;
#114 = APPROVAL ( #49, 'Coincident' ) ;
#115 = COORDINATED_UNIVERSAL_TIME_OFFSET ( 10, 0, .AHEAD. ) ;
#116 = APPROVAL_PERSON_ORGANIZATION ( #171, #200, #131 ) ;
#117 = PERSON_AND_ORGANIZATION_ROLE ( 'creator' ) ;
#118 = COORDINATED_UNIVERSAL_TIME_OFFSET ( 10, 0, .AHEAD. ) ;
#119 = CC_DESIGN_APPROVAL ( #38, ( #86 ) ) ;
#120 = APPROVAL_DATE_TIME ( #52, #38 ) ;
#121 = PERSON_AND_ORGANIZATION ( #18446744073709551615, #18446744073709551615 ) ;
#122 = CC_DESIGN_DATE_AND_TIME_ASSIGNMENT ( #61, #210, ( #53 ) ) ;
#123 = APPROVAL_PERSON_ORGANIZATION ( #9, #76, #193 ) ;
#124 = CC_DESIGN_PERSON_AND_ORGANIZATION_ASSIGNMENT ( #17, #82, ( #6 ) ) ;
#125 = PERSON_AND_ORGANIZATION ( #18446744073709551615, #18446744073709551615 ) ;
#126 = AXIS2_PLACEMENT_3D ( 'NONE', #134, #155, #170 ) ;
#127 = PERSON_AND_ORGANIZATION_ROLE ( 'creator' ) ;
#128 = DIRECTION ( 'NONE',  ( 4.890937612370273194E-29, -3.155443620884047222E-30, 0.9999999999999997780 ) ) ;
#129 = COORDINATED_UNIVERSAL_TIME_OFFSET ( 10, 0, .AHEAD. ) ;
#130 = PRODUCT_DEFINITION_SHAPE ( 'NONE', 'NONE',  #215 ) ;
#131 = APPROVAL_ROLE ( '' ) ;
#132 = COORDINATED_UNIVERSAL_TIME_OFFSET ( 10, 0, .AHEAD. ) ;
#133 = DATE_TIME_ROLE ( 'creation_date' ) ;
#134 = CARTESIAN_POINT ( 'NONE',  ( 0.000000000000000000, 0.000000000000000000, 0.000000000000000000 ) ) ;
#135 = CC_DESIGN_SECURITY_CLASSIFICATION ( #53, ( #86 ) ) ;
#136 = CC_DESIGN_APPROVAL ( #213, ( #10 ) ) ;
#137 = COORDINATED_UNIVERSAL_TIME_OFFSET ( 10, 0, .AHEAD. ) ;
#138 = SHAPE_REPRESENTATION ( '6534431024.step', ( #126, #88 ), #98 ) ;
#139 = PERSON_AND_ORGANIZATION ( #18446744073709551615, #18446744073709551615 ) ;
#140 = COORDINATED_UNIVERSAL_TIME_OFFSET ( 10, 0, .AHEAD. ) ;
#141 = PRODUCT_DEFINITION_SHAPE ( 'NONE', 'NONE',  #6 ) ;
#142 = CARTESIAN_POINT ( 'NONE',  ( 0.000000000000000000, 0.000000000000000000, 0.000000000000000000 ) ) ;
#143 = APPLICATION_PROTOCOL_DEFINITION ( 'international standard', 'config_control_design', 1994, #47 ) ;
#144 = APPROVAL_ROLE ( '' ) ;
#145 = PERSON_AND_ORGANIZATION ( #18446744073709551615, #18446744073709551615 ) ;
#146 = COORDINATED_UNIVERSAL_TIME_OFFSET ( 10, 0, .AHEAD. ) ;
#147 = CALENDAR_DATE ( 2026, 22, 6 ) ;
#148 = CC_DESIGN_APPROVAL ( #114, ( #6 ) ) ;
#149 = CC_DESIGN_APPROVAL ( #206, ( #185 ) ) ;
#150 = APPROVAL_PERSON_ORGANIZATION ( #26, #213, #174 ) ;
#151 = CC_DESIGN_PERSON_AND_ORGANIZATION_ASSIGNMENT ( #19, #67, ( #185 ) ) ;
#152 = APPROVAL_STATUS ( 'not_yet_approved' ) ;
#153 = LOCAL_TIME ( 18, 49, 53.00000000000000000, #118 ) ;
#154 = PERSON_AND_ORGANIZATION_ROLE ( 'design_supplier' ) ;
#155 = DIRECTION ( 'NONE',  ( 0.000000000000000000, 0.000000000000000000, 1.000000000000000000 ) ) ;
#156 = CC_DESIGN_APPROVAL ( #200, ( #53 ) ) ;
#157 = LOCAL_TIME ( 18, 49, 53.00000000000000000, #15 ) ;
#158 = APPROVAL_DATE_TIME ( #173, #200 ) ;
#159 = CC_DESIGN_PERSON_AND_ORGANIZATION_ASSIGNMENT ( #165, #106, ( #86 ) ) ;
#160 = APPROVAL_DATE_TIME ( #91, #213 ) ;
#161 = PERSON_AND_ORGANIZATION ( #18446744073709551615, #18446744073709551615 ) ;
#162 = DATE_TIME_ROLE ( 'classification_date' ) ;
#163 = DATE_AND_TIME ( #147, #177 ) ;
#164 = APPROVAL_DATE_TIME ( #97, #114 ) ;
#165 = PERSON_AND_ORGANIZATION ( #18446744073709551615, #18446744073709551615 ) ;
#166 = SHAPE_REPRESENTATION ( 'Extruded-4.step', ( #71 ), #108 ) ;
#167 = APPLICATION_PROTOCOL_DEFINITION ( 'international standard', 'config_control_design', 1994, #16 ) ;
#168 = CC_DESIGN_DATE_AND_TIME_ASSIGNMENT ( #30, #162, ( #83 ) ) ;
#169 = APPLICATION_CONTEXT ( 'configuration controlled 3d designs of mechanical parts and assemblies' ) ;
#170 = DIRECTION ( 'NONE',  ( 1.000000000000000000, 0.000000000000000000, 0.000000000000000000 ) ) ;
#171 = PERSON_AND_ORGANIZATION ( #18446744073709551615, #18446744073709551615 ) ;
#172 = DATE_AND_TIME ( #66, #54 ) ;
#173 = DATE_AND_TIME ( #205, #20 ) ;
#174 = APPROVAL_ROLE ( '' ) ;
#175 = DIRECTION ( 'NONE',  ( 1.000000000000000222, -1.092455418989176591E-28, 4.890937612370273194E-29 ) ) ;
#176 = PERSON_AND_ORGANIZATION_ROLE ( 'classification_officer' ) ;
#177 = LOCAL_TIME ( 18, 49, 53.00000000000000000, #96 ) ;
#178 = CC_DESIGN_PERSON_AND_ORGANIZATION_ASSIGNMENT ( #81, #176, ( #83 ) ) ;
#179 = APPROVAL_DATE_TIME ( #172, #62 ) ;
#180 = CALENDAR_DATE ( 2026, 22, 6 ) ;
#181 = CALENDAR_DATE ( 2026, 22, 6 ) ;
#182 = PRODUCT_RELATED_PRODUCT_CATEGORY ( 'detail', '', ( #112 ) ) ;
#183 = DOCUMENT_FILE ( 'Extruded-4.step.STEP' , '', '', #70, '' ,$ ) ;
#184 = UNCERTAINTY_MEASURE_WITH_UNIT (LENGTH_MEASURE( 1.000000000000000082E-05 ), #13, 'distance_accuracy_value', 'NONE');
#185 = SECURITY_CLASSIFICATION ( '', '', #25 ) ;
#186 = CC_DESIGN_PERSON_AND_ORGANIZATION_ASSIGNMENT ( #125, #154, ( #86 ) ) ;
#187 = SECURITY_CLASSIFICATION_LEVEL ( 'unclassified' ) ;
#188 = CALENDAR_DATE ( 2026, 22, 6 ) ;
#189 =( NAMED_UNIT ( * ) SI_UNIT ( $, .STERADIAN. ) SOLID_ANGLE_UNIT ( ) );
#190 = DATE_AND_TIME ( #202, #73 ) ;
#191 = DIRECTION ( 'NONE',  ( 1.000000000000000000, 0.000000000000000000, 0.000000000000000000 ) ) ;
#192 = PRODUCT_DEFINITION_SHAPE ( 'NONE', 'NONE',  #102 ) ;
#193 = APPROVAL_ROLE ( '' ) ;
#194 = APPROVAL_STATUS ( 'not_yet_approved' ) ;
#195 = APPROVAL_ROLE ( '' ) ;
#196 = PROPERTY_DEFINITION_REPRESENTATION ( #59, #166 ) ;
#197 = CALENDAR_DATE ( 2026, 22, 6 ) ;
#198 = CC_DESIGN_PERSON_AND_ORGANIZATION_ASSIGNMENT ( #161, #78, ( #10 ) ) ;
#199 = APPROVAL_PERSON_ORGANIZATION ( #3, #114, #195 ) ;
#200 = APPROVAL ( #8, 'Coincident' ) ;
#201 =( NAMED_UNIT ( * ) PLANE_ANGLE_UNIT ( ) SI_UNIT ( $, .RADIAN. ) );
#202 = CALENDAR_DATE ( 2026, 22, 6 ) ;
#203 = CC_DESIGN_SECURITY_CLASSIFICATION ( #185, ( #215 ) ) ;
#204 = SECURITY_CLASSIFICATION_LEVEL ( 'unclassified' ) ;
#205 = CALENDAR_DATE ( 2026, 22, 6 ) ;
#206 = APPROVAL ( #31, 'UNKNOWN' ) ;
#207 = CALENDAR_DATE ( 2026, 22, 6 ) ;
#208 = APPLICATION_CONTEXT ( 'configuration controlled 3d designs of mechanical parts and assemblies' ) ;
#209 = SHAPE_DEFINITION_REPRESENTATION ( #192, #166 ) ;
#210 = DATE_TIME_ROLE ( 'classification_date' ) ;
#211 = COORDINATED_UNIVERSAL_TIME_OFFSET ( 10, 0, .AHEAD. ) ;
#212 = PERSON ( 'NAUO-PER63', 'UNSPECIFIED', 'UNSPECIFIED', ('UNSPECIFIED'), ('UNSPECIFIED'), ('UNSPECIFIED') ) ;
#213 = APPROVAL ( #111, 'Coincident' ) ;
#214 = APPROVAL_PERSON_ORGANIZATION ( #93, #62, #144 ) ;
#215 = NEXT_ASSEMBLY_USAGE_OCCURRENCE ( 'NAUO63', ' ', ' ', #6, #102, $ ) ;
ENDSEC;
END-ISO-10303-21;
