ISO-10303-21;
HEADER;
FILE_DESCRIPTION (( 'STEP AP203' ),
    '1' );
FILE_NAME ('7087915136.step.STEP',
    '2026-06-22T08:49:59',
    ( 'localuser' ),
    ( '' ),
    'SwSTEP 2.0',
    'SolidWorks 2025',
    '' );
FILE_SCHEMA (( 'CONFIG_CONTROL_DESIGN' ));
ENDSEC;

DATA;
#1 = APPLICATION_PROTOCOL_DEFINITION ( 'international standard', 'config_control_design', 1994, #213 ) ;
#2 = CALENDAR_DATE ( 2026, 22, 6 ) ;
#3 = CALENDAR_DATE ( 2026, 22, 6 ) ;
#4 = COORDINATED_UNIVERSAL_TIME_OFFSET ( 10, 0, .AHEAD. ) ;
#5 = COORDINATED_UNIVERSAL_TIME_OFFSET ( 10, 0, .AHEAD. ) ;
#6 = LOCAL_TIME ( 18, 49, 59.00000000000000000, #133 ) ;
#7 = DATE_TIME_ROLE ( 'creation_date' ) ;
#8 = PERSON_AND_ORGANIZATION_ROLE ( 'design_supplier' ) ;
#9 = DOCUMENT_TYPE ( 'geometry' ) ;
#10 = APPROVAL ( #151, 'Coincident' ) ;
#11 = COORDINATED_UNIVERSAL_TIME_OFFSET ( 10, 0, .AHEAD. ) ;
#12 = APPROVAL ( #73, 'Coincident' ) ;
#13 = DATE_TIME_ROLE ( 'creation_date' ) ;
#14 = LOCAL_TIME ( 18, 49, 59.00000000000000000, #19 ) ;
#15 = DOCUMENT_FILE ( 'Extruded-14.step.STEP' , '', '', #9, '' ,$ ) ;
#16 = CC_DESIGN_PERSON_AND_ORGANIZATION_ASSIGNMENT ( #96, #147, ( #142 ) ) ;
#17 = DIRECTION ( 'NONE',  ( 1.000000000000000000, 0.000000000000000000, 0.000000000000000000 ) ) ;
#18 = COORDINATED_UNIVERSAL_TIME_OFFSET ( 10, 0, .AHEAD. ) ;
#19 = COORDINATED_UNIVERSAL_TIME_OFFSET ( 10, 0, .AHEAD. ) ;
#20 = PERSON_AND_ORGANIZATION_ROLE ( 'design_owner' ) ;
#21 = APPROVAL_STATUS ( 'not_yet_approved' ) ;
#22 = CC_DESIGN_PERSON_AND_ORGANIZATION_ASSIGNMENT ( #67, #192, ( #69 ) ) ;
#23 = APPROVAL_DATE_TIME ( #174, #12 ) ;
#24 = PRODUCT_DEFINITION_SHAPE ( 'NONE', 'NONE',  #69 ) ;
#25 = DATE_AND_TIME ( #2, #6 ) ;
#26 = APPROVAL_DATE_TIME ( #114, #176 ) ;
#27 = APPLICATION_CONTEXT ( 'configuration controlled 3d designs of mechanical parts and assemblies' ) ;
#28 = COORDINATED_UNIVERSAL_TIME_OFFSET ( 10, 0, .AHEAD. ) ;
#29 = CC_DESIGN_DATE_AND_TIME_ASSIGNMENT ( #105, #7, ( #69 ) ) ;
#30 = PERSON_AND_ORGANIZATION ( #18446744073709551615, #18446744073709551615 ) ;
#31 = LOCAL_TIME ( 18, 49, 59.00000000000000000, #141 ) ;
#32 = APPROVAL_ROLE ( '' ) ;
#33 = DATE_TIME_ROLE ( 'classification_date' ) ;
#34 = LOCAL_TIME ( 18, 49, 59.00000000000000000, #5 ) ;
#35 = APPROVAL_ROLE ( '' ) ;
#36 = ITEM_DEFINED_TRANSFORMATION ( 'NONE', 'NONE', #179,  #200 ) ;
#37 = DATE_AND_TIME ( #205, #31 ) ;
#38 = CC_DESIGN_SECURITY_CLASSIFICATION ( #170, ( #98 ) ) ;
#39 = CC_DESIGN_PERSON_AND_ORGANIZATION_ASSIGNMENT ( #206, #118, ( #98 ) ) ;
#40 = PROPERTY_DEFINITION_REPRESENTATION ( #57, #146 ) ;
#41 = LOCAL_TIME ( 18, 49, 59.00000000000000000, #18 ) ;
#42 = DESIGN_CONTEXT ( 'detailed design', #27, 'design' ) ;
#43 = DIRECTION ( 'NONE',  ( 1.000000000000000000, 0.000000000000000000, 0.000000000000000000 ) ) ;
#44 = DIRECTION ( 'NONE',  ( 0.000000000000000000, 0.000000000000000000, 1.000000000000000000 ) ) ;
#45 = APPROVAL_PERSON_ORGANIZATION ( #85, #12, #32 ) ;
#46 = CALENDAR_DATE ( 2026, 22, 6 ) ;
#47 = MECHANICAL_CONTEXT ( 'NONE', #213, 'mechanical' ) ;
#48 = APPROVAL_ROLE ( '' ) ;
#49 =( GEOMETRIC_REPRESENTATION_CONTEXT ( 3 ) GLOBAL_UNCERTAINTY_ASSIGNED_CONTEXT ( ( #210 ) ) GLOBAL_UNIT_ASSIGNED_CONTEXT ( ( #135, #131, #211 ) ) REPRESENTATION_CONTEXT ( 'NONE', 'WORKASPACE' ) );
#50 = DIRECTION ( 'NONE',  ( 4.890937612370273194E-29, -3.155443620884047222E-30, 0.9999999999999997780 ) ) ;
#51 = SHAPE_DEFINITION_REPRESENTATION ( #127, #162 ) ;
#52 = CC_DESIGN_DATE_AND_TIME_ASSIGNMENT ( #55, #54, ( #170 ) ) ;
#53 = DATE_AND_TIME ( #70, #108 ) ;
#54 = DATE_TIME_ROLE ( 'classification_date' ) ;
#55 = DATE_AND_TIME ( #158, #153 ) ;
#56 = CC_DESIGN_PERSON_AND_ORGANIZATION_ASSIGNMENT ( #138, #82, ( #180 ) ) ;
#57 = PROPERTY_DEFINITION ('document property','', #15 ) ;
#58 = APPROVAL_PERSON_ORGANIZATION ( #95, #176, #148 ) ;
#59 = APPROVAL ( #104, 'Coincident' ) ;
#60 = COORDINATED_UNIVERSAL_TIME_OFFSET ( 10, 0, .AHEAD. ) ;
#61 = AXIS2_PLACEMENT_3D ( 'NONE', #78, #115, #17 ) ;
#62 = UNCERTAINTY_MEASURE_WITH_UNIT (LENGTH_MEASURE( 1.000000000000000082E-05 ), #161, 'distance_accuracy_value', 'NONE');
#63 = APPROVAL_ROLE ( '' ) ;
#64 = APPROVAL_PERSON_ORGANIZATION ( #149, #109, #63 ) ;
#65 = SECURITY_CLASSIFICATION_LEVEL ( 'unclassified' ) ;
#66 = CC_DESIGN_SECURITY_CLASSIFICATION ( #180, ( #215 ) ) ;
#67 = PERSON_AND_ORGANIZATION ( #18446744073709551615, #18446744073709551615 ) ;
#68 = APPROVAL_ROLE ( '' ) ;
#69 = PRODUCT_DEFINITION ( 'General', '', #98, #163 ) ;
#70 = CALENDAR_DATE ( 2026, 22, 6 ) ;
#71 = CC_DESIGN_APPROVAL ( #109, ( #185 ) ) ;
#72 = COORDINATED_UNIVERSAL_TIME_OFFSET ( 10, 0, .AHEAD. ) ;
#73 = APPROVAL_STATUS ( 'not_yet_approved' ) ;
#74 = APPLIED_EXTERNAL_IDENTIFICATION_ASSIGNMENT ( 'Extruded-14.step.STEP' , #84, #144,( #15) ) ;
#75 = CARTESIAN_POINT ( 'NONE',  ( 0.000000000000000000, 0.000000000000000000, 0.000000000000000000 ) ) ;
#76 =( REPRESENTATION_RELATIONSHIP ('NONE','NONE', #162, #146 ) REPRESENTATION_RELATIONSHIP_WITH_TRANSFORMATION ( #36 )SHAPE_REPRESENTATION_RELATIONSHIP( ) );
#77 = APPROVAL_STATUS ( 'not_yet_approved' ) ;
#78 = CARTESIAN_POINT ( 'NONE',  ( 0.000000000000000000, 0.000000000000000000, 0.000000000000000000 ) ) ;
#79 = APPROVAL_STATUS ( 'not_yet_approved' ) ;
#80 = CALENDAR_DATE ( 2026, 22, 6 ) ;
#81 = COORDINATED_UNIVERSAL_TIME_OFFSET ( 10, 0, .AHEAD. ) ;
#82 = PERSON_AND_ORGANIZATION_ROLE ( 'classification_officer' ) ;
#83 = CC_DESIGN_PERSON_AND_ORGANIZATION_ASSIGNMENT ( #181, #166, ( #185 ) ) ;
#84 = IDENTIFICATION_ROLE ( 'external document id and location', $) ;
#85 = PERSON_AND_ORGANIZATION ( #18446744073709551615, #18446744073709551615 ) ;
#86 = PERSON_AND_ORGANIZATION ( #18446744073709551615, #18446744073709551615 ) ;
#87 = CC_DESIGN_PERSON_AND_ORGANIZATION_ASSIGNMENT ( #86, #106, ( #170 ) ) ;
#88 =( NAMED_UNIT ( * ) SI_UNIT ( $, .STERADIAN. ) SOLID_ANGLE_UNIT ( ) );
#89 = PRODUCT_DEFINITION_SHAPE ( 'NONE', 'NONE',  #215 ) ;
#90 = PRODUCT_DEFINITION_FORMATION_WITH_SPECIFIED_SOURCE ( 'Symmetric', '', #142, .NOT_KNOWN. ) ;
#91 = CC_DESIGN_APPROVAL ( #12, ( #170 ) ) ;
#92 = SECURITY_CLASSIFICATION ( '', '', #65 ) ;
#93 = CC_DESIGN_APPROVAL ( #168, ( #98 ) ) ;
#94 = CC_DESIGN_DATE_AND_TIME_ASSIGNMENT ( #202, #33, ( #180 ) ) ;
#95 = PERSON_AND_ORGANIZATION ( #18446744073709551615, #18446744073709551615 ) ;
#96 = PERSON_AND_ORGANIZATION ( #18446744073709551615, #18446744073709551615 ) ;
#97 = OBJECT_ROLE ('mandatory',$ ) ;
#98 = PRODUCT_DEFINITION_FORMATION_WITH_SPECIFIED_SOURCE ( 'Symmetric', '', #195, .NOT_KNOWN. ) ;
#99 = PERSON_AND_ORGANIZATION_ROLE ( 'classification_officer' ) ;
#100 = CARTESIAN_POINT ( 'NONE',  ( 0.000000000000000000, 0.000000000000000000, 0.000000000000000000 ) ) ;
#101 = APPROVAL_STATUS ( 'not_yet_approved' ) ;
#102 = MECHANICAL_CONTEXT ( 'NONE', #190, 'mechanical' ) ;
#103 = CC_DESIGN_PERSON_AND_ORGANIZATION_ASSIGNMENT ( #116, #201, ( #90 ) ) ;
#104 = APPROVAL_STATUS ( 'not_yet_approved' ) ;
#105 = DATE_AND_TIME ( #136, #41 ) ;
#106 = PERSON_AND_ORGANIZATION_ROLE ( 'classification_officer' ) ;
#107 = CC_DESIGN_APPROVAL ( #176, ( #92 ) ) ;
#108 = LOCAL_TIME ( 18, 49, 59.00000000000000000, #4 ) ;
#109 = APPROVAL ( #79, 'Coincident' ) ;
#110 = PROPERTY_DEFINITION ('external definition','', #15 ) ;
#111 = CC_DESIGN_SECURITY_CLASSIFICATION ( #92, ( #90 ) ) ;
#112 = LOCAL_TIME ( 18, 49, 59.00000000000000000, #11 ) ;
#113 = APPROVAL ( #101, 'UNKNOWN' ) ;
#114 = DATE_AND_TIME ( #46, #112 ) ;
#115 = DIRECTION ( 'NONE',  ( 0.000000000000000000, 0.000000000000000000, 1.000000000000000000 ) ) ;
#116 = PERSON_AND_ORGANIZATION ( #18446744073709551615, #18446744073709551615 ) ;
#117 = PERSON ( 'NAUO-PER236', 'UNSPECIFIED', 'UNSPECIFIED', ('UNSPECIFIED'), ('UNSPECIFIED'), ('UNSPECIFIED') ) ;
#118 = PERSON_AND_ORGANIZATION_ROLE ( 'creator' ) ;
#119 = CC_DESIGN_PERSON_AND_ORGANIZATION_ASSIGNMENT ( #30, #99, ( #92 ) ) ;
#120 = APPROVAL_DATE_TIME ( #53, #113 ) ;
#121 = CC_DESIGN_APPROVAL ( #59, ( #69 ) ) ;
#122 = CALENDAR_DATE ( 2026, 22, 6 ) ;
#123 = APPLICATION_CONTEXT ( 'configuration controlled 3d designs of mechanical parts and assemblies' ) ;
#124 = APPLIED_DOCUMENT_REFERENCE ( #15,'',( #69) ) ;
#125 = DATE_AND_TIME ( #159, #14 ) ;
#126 = CC_DESIGN_APPROVAL ( #10, ( #90 ) ) ;
#127 = PRODUCT_DEFINITION_SHAPE ( 'NONE', 'NONE',  #185 ) ;
#128 = APPROVAL_PERSON_ORGANIZATION ( #169, #168, #137 ) ;
#129 = CC_DESIGN_PERSON_AND_ORGANIZATION_ASSIGNMENT ( #157, #8, ( #98 ) ) ;
#130 = APPROVAL_DATE_TIME ( #165, #10 ) ;
#131 =( NAMED_UNIT ( * ) PLANE_ANGLE_UNIT ( ) SI_UNIT ( $, .RADIAN. ) );
#132 = APPROVAL_DATE_TIME ( #212, #109 ) ;
#133 = COORDINATED_UNIVERSAL_TIME_OFFSET ( 10, 0, .AHEAD. ) ;
#134 = ORGANIZATION ( 'NAUO-ORG236', 'UNSPECIFIED', 'UNSPECIFIED' ) ;
#135 =( LENGTH_UNIT ( ) NAMED_UNIT ( * ) SI_UNIT ( .MILLI., .METRE. ) );
#136 = CALENDAR_DATE ( 2026, 22, 6 ) ;
#137 = APPROVAL_ROLE ( '' ) ;
#138 = PERSON_AND_ORGANIZATION ( #117, #134 ) ;
#139 = PERSON_AND_ORGANIZATION ( #18446744073709551615, #18446744073709551615 ) ;
#140 = PRODUCT_RELATED_PRODUCT_CATEGORY ( 'detail', '', ( #142 ) ) ;
#141 = COORDINATED_UNIVERSAL_TIME_OFFSET ( 10, 0, .AHEAD. ) ;
#142 = PRODUCT ( '7087915136.step', '7087915136.step', '', ( #47 ) ) ;
#143 = PROPERTY_DEFINITION_REPRESENTATION ( #110, #146 ) ;
#144 = EXTERNAL_SOURCE (IDENTIFIER('') ) ;
#145 = LOCAL_TIME ( 18, 49, 59.00000000000000000, #198 ) ;
#146 = SHAPE_REPRESENTATION ( 'Extruded-14.step', ( #200 ), #152 ) ;
#147 = PERSON_AND_ORGANIZATION_ROLE ( 'design_owner' ) ;
#148 = APPROVAL_ROLE ( '' ) ;
#149 = PERSON_AND_ORGANIZATION ( #18446744073709551615, #18446744073709551615 ) ;
#150 = PERSON_AND_ORGANIZATION_ROLE ( 'design_supplier' ) ;
#151 = APPROVAL_STATUS ( 'not_yet_approved' ) ;
#152 =( GEOMETRIC_REPRESENTATION_CONTEXT ( 3 ) GLOBAL_UNCERTAINTY_ASSIGNED_CONTEXT ( ( #62 ) ) GLOBAL_UNIT_ASSIGNED_CONTEXT ( ( #161, #177, #88 ) ) REPRESENTATION_CONTEXT ( 'NONE', 'WORKASPACE' ) );
#153 = LOCAL_TIME ( 18, 49, 59.00000000000000000, #72 ) ;
#154 = APPROVAL_DATE_TIME ( #37, #168 ) ;
#155 = CC_DESIGN_DATE_AND_TIME_ASSIGNMENT ( #25, #178, ( #92 ) ) ;
#156 = APPROVAL_DATE_TIME ( #125, #59 ) ;
#157 = PERSON_AND_ORGANIZATION ( #18446744073709551615, #18446744073709551615 ) ;
#158 = CALENDAR_DATE ( 2026, 22, 6 ) ;
#159 = CALENDAR_DATE ( 2026, 22, 6 ) ;
#160 = CC_DESIGN_PERSON_AND_ORGANIZATION_ASSIGNMENT ( #139, #20, ( #195 ) ) ;
#161 =( LENGTH_UNIT ( ) NAMED_UNIT ( * ) SI_UNIT ( .MILLI., .METRE. ) );
#162 = SHAPE_REPRESENTATION ( '7087915136.step', ( #61, #179 ), #49 ) ;
#163 = DESIGN_CONTEXT ( 'detailed design', #123, 'design' ) ;
#164 = DIRECTION ( 'NONE',  ( 1.000000000000000222, -1.092455418989176591E-28, 4.890937612370273194E-29 ) ) ;
#165 = DATE_AND_TIME ( #199, #208 ) ;
#166 = PERSON_AND_ORGANIZATION_ROLE ( 'creator' ) ;
#167 = APPLICATION_PROTOCOL_DEFINITION ( 'international standard', 'config_control_design', 1994, #27 ) ;
#168 = APPROVAL ( #21, 'Coincident' ) ;
#169 = PERSON_AND_ORGANIZATION ( #18446744073709551615, #18446744073709551615 ) ;
#170 = SECURITY_CLASSIFICATION ( '', '', #189 ) ;
#171 = PERSON_AND_ORGANIZATION ( #18446744073709551615, #18446744073709551615 ) ;
#172 = CONTEXT_DEPENDENT_SHAPE_REPRESENTATION ( #76, #89 ) ;
#173 = APPLICATION_PROTOCOL_DEFINITION ( 'international standard', 'config_control_design', 1994, #190 ) ;
#174 = DATE_AND_TIME ( #122, #34 ) ;
#175 = LOCAL_TIME ( 18, 49, 59.00000000000000000, #81 ) ;
#176 = APPROVAL ( #77, 'Coincident' ) ;
#177 =( NAMED_UNIT ( * ) PLANE_ANGLE_UNIT ( ) SI_UNIT ( $, .RADIAN. ) );
#178 = DATE_TIME_ROLE ( 'classification_date' ) ;
#179 = AXIS2_PLACEMENT_3D ( 'NONE', #100, #50, #164 ) ;
#180 = SECURITY_CLASSIFICATION ( '', '', #203 ) ;
#181 = PERSON_AND_ORGANIZATION ( #18446744073709551615, #18446744073709551615 ) ;
#182 = PERSON_AND_ORGANIZATION ( #18446744073709551615, #18446744073709551615 ) ;
#183 = PERSON_AND_ORGANIZATION ( #18446744073709551615, #18446744073709551615 ) ;
#184 = CALENDAR_DATE ( 2026, 22, 6 ) ;
#185 = PRODUCT_DEFINITION ( 'General', '', #90, #42 ) ;
#186 = SHAPE_DEFINITION_REPRESENTATION ( #24, #146 ) ;
#187 = APPLICATION_PROTOCOL_DEFINITION ( 'international standard', 'config_control_design', 1994, #123 ) ;
#188 = APPROVAL_PERSON_ORGANIZATION ( #171, #59, #68 ) ;
#189 = SECURITY_CLASSIFICATION_LEVEL ( 'unclassified' ) ;
#190 = APPLICATION_CONTEXT ( 'configuration controlled 3d designs of mechanical parts and assemblies' ) ;
#191 = ROLE_ASSOCIATION ( #97, #124 ) ;
#192 = PERSON_AND_ORGANIZATION_ROLE ( 'creator' ) ;
#193 = APPROVAL_PERSON_ORGANIZATION ( #182, #10, #48 ) ;
#194 = PRODUCT_RELATED_PRODUCT_CATEGORY ( 'detail', '', ( #195 ) ) ;
#195 = PRODUCT ( 'Extruded-14.step', 'Extruded-14.step', '', ( #102 ) ) ;
#196 = CC_DESIGN_DATE_AND_TIME_ASSIGNMENT ( #197, #13, ( #185 ) ) ;
#197 = DATE_AND_TIME ( #80, #145 ) ;
#198 = COORDINATED_UNIVERSAL_TIME_OFFSET ( 10, 0, .AHEAD. ) ;
#199 = CALENDAR_DATE ( 2026, 22, 6 ) ;
#200 = AXIS2_PLACEMENT_3D ( 'NONE', #75, #44, #43 ) ;
#201 = PERSON_AND_ORGANIZATION_ROLE ( 'creator' ) ;
#202 = DATE_AND_TIME ( #3, #175 ) ;
#203 = SECURITY_CLASSIFICATION_LEVEL ( 'unclassified' ) ;
#204 = LOCAL_TIME ( 18, 49, 59.00000000000000000, #60 ) ;
#205 = CALENDAR_DATE ( 2026, 22, 6 ) ;
#206 = PERSON_AND_ORGANIZATION ( #18446744073709551615, #18446744073709551615 ) ;
#207 = CC_DESIGN_PERSON_AND_ORGANIZATION_ASSIGNMENT ( #183, #150, ( #90 ) ) ;
#208 = LOCAL_TIME ( 18, 49, 59.00000000000000000, #28 ) ;
#209 = CC_DESIGN_APPROVAL ( #113, ( #180 ) ) ;
#210 = UNCERTAINTY_MEASURE_WITH_UNIT (LENGTH_MEASURE( 1.000000000000000082E-05 ), #135, 'distance_accuracy_value', 'NONE');
#211 =( NAMED_UNIT ( * ) SI_UNIT ( $, .STERADIAN. ) SOLID_ANGLE_UNIT ( ) );
#212 = DATE_AND_TIME ( #184, #204 ) ;
#213 = APPLICATION_CONTEXT ( 'configuration controlled 3d designs of mechanical parts and assemblies' ) ;
#214 = APPROVAL_PERSON_ORGANIZATION ( #138, #113, #35 ) ;
#215 = NEXT_ASSEMBLY_USAGE_OCCURRENCE ( 'NAUO236', ' ', ' ', #185, #69, $ ) ;
ENDSEC;
END-ISO-10303-21;
