ISO-10303-21;
HEADER;
FILE_DESCRIPTION (( 'STEP AP203' ),
    '1' );
FILE_NAME ('7087914976.step.STEP',
    '2026-06-22T08:49:59',
    ( 'localuser' ),
    ( '' ),
    'SwSTEP 2.0',
    'SolidWorks 2025',
    '' );
FILE_SCHEMA (( 'CONFIG_CONTROL_DESIGN' ));
ENDSEC;

DATA;
#1 = MECHANICAL_CONTEXT ( 'NONE', #202, 'mechanical' ) ;
#2 = APPROVAL_ROLE ( '' ) ;
#3 = PERSON_AND_ORGANIZATION ( #18446744073709551615, #18446744073709551615 ) ;
#4 = APPROVAL_STATUS ( 'not_yet_approved' ) ;
#5 = PERSON_AND_ORGANIZATION ( #18446744073709551615, #18446744073709551615 ) ;
#6 = CALENDAR_DATE ( 2026, 22, 6 ) ;
#7 = APPLIED_DOCUMENT_REFERENCE ( #78,'',( #170) ) ;
#8 =( NAMED_UNIT ( * ) SI_UNIT ( $, .STERADIAN. ) SOLID_ANGLE_UNIT ( ) );
#9 = APPLICATION_CONTEXT ( 'configuration controlled 3d designs of mechanical parts and assemblies' ) ;
#10 = CC_DESIGN_PERSON_AND_ORGANIZATION_ASSIGNMENT ( #103, #105, ( #170 ) ) ;
#11 = LOCAL_TIME ( 18, 49, 59.00000000000000000, #92 ) ;
#12 = CALENDAR_DATE ( 2026, 22, 6 ) ;
#13 = CC_DESIGN_DATE_AND_TIME_ASSIGNMENT ( #141, #91, ( #170 ) ) ;
#14 = APPROVAL_ROLE ( '' ) ;
#15 = LOCAL_TIME ( 18, 49, 59.00000000000000000, #16 ) ;
#16 = COORDINATED_UNIVERSAL_TIME_OFFSET ( 10, 0, .AHEAD. ) ;
#17 = CC_DESIGN_SECURITY_CLASSIFICATION ( #134, ( #215 ) ) ;
#18 = CC_DESIGN_PERSON_AND_ORGANIZATION_ASSIGNMENT ( #176, #36, ( #145 ) ) ;
#19 = DATE_AND_TIME ( #12, #57 ) ;
#20 = COORDINATED_UNIVERSAL_TIME_OFFSET ( 10, 0, .AHEAD. ) ;
#21 = CC_DESIGN_DATE_AND_TIME_ASSIGNMENT ( #140, #37, ( #134 ) ) ;
#22 = CC_DESIGN_APPROVAL ( #68, ( #81 ) ) ;
#23 = COORDINATED_UNIVERSAL_TIME_OFFSET ( 10, 0, .AHEAD. ) ;
#24 = PERSON_AND_ORGANIZATION_ROLE ( 'design_supplier' ) ;
#25 = APPROVAL_DATE_TIME ( #157, #94 ) ;
#26 = LOCAL_TIME ( 18, 49, 59.00000000000000000, #137 ) ;
#27 = APPROVAL_PERSON_ORGANIZATION ( #39, #68, #190 ) ;
#28 = CC_DESIGN_PERSON_AND_ORGANIZATION_ASSIGNMENT ( #102, #149, ( #154 ) ) ;
#29 = CONTEXT_DEPENDENT_SHAPE_REPRESENTATION ( #189, #130 ) ;
#30 = APPROVAL ( #93, 'UNKNOWN' ) ;
#31 = PROPERTY_DEFINITION ('document property','', #78 ) ;
#32 = CALENDAR_DATE ( 2026, 22, 6 ) ;
#33 = COORDINATED_UNIVERSAL_TIME_OFFSET ( 10, 0, .AHEAD. ) ;
#34 = SECURITY_CLASSIFICATION_LEVEL ( 'unclassified' ) ;
#35 = APPROVAL_DATE_TIME ( #139, #100 ) ;
#36 = PERSON_AND_ORGANIZATION_ROLE ( 'design_owner' ) ;
#37 = DATE_TIME_ROLE ( 'classification_date' ) ;
#38 = PERSON_AND_ORGANIZATION ( #18446744073709551615, #18446744073709551615 ) ;
#39 = PERSON_AND_ORGANIZATION ( #18446744073709551615, #18446744073709551615 ) ;
#40 = CC_DESIGN_PERSON_AND_ORGANIZATION_ASSIGNMENT ( #123, #182, ( #188 ) ) ;
#41 =( LENGTH_UNIT ( ) NAMED_UNIT ( * ) SI_UNIT ( .MILLI., .METRE. ) );
#42 = EXTERNAL_SOURCE (IDENTIFIER('') ) ;
#43 =( NAMED_UNIT ( * ) PLANE_ANGLE_UNIT ( ) SI_UNIT ( $, .RADIAN. ) );
#44 = AXIS2_PLACEMENT_3D ( 'NONE', #131, #146, #97 ) ;
#45 = PERSON_AND_ORGANIZATION ( #18446744073709551615, #18446744073709551615 ) ;
#46 = PERSON_AND_ORGANIZATION ( #18446744073709551615, #18446744073709551615 ) ;
#47 = APPROVAL_ROLE ( '' ) ;
#48 = APPROVAL_PERSON_ORGANIZATION ( #46, #100, #152 ) ;
#49 = APPROVAL_DATE_TIME ( #135, #107 ) ;
#50 = CC_DESIGN_PERSON_AND_ORGANIZATION_ASSIGNMENT ( #206, #108, ( #66 ) ) ;
#51 = APPROVAL_DATE_TIME ( #110, #30 ) ;
#52 = DATE_AND_TIME ( #156, #111 ) ;
#53 = COORDINATED_UNIVERSAL_TIME_OFFSET ( 10, 0, .AHEAD. ) ;
#54 = PRODUCT_RELATED_PRODUCT_CATEGORY ( 'detail', '', ( #195 ) ) ;
#55 = PRODUCT_DEFINITION_SHAPE ( 'NONE', 'NONE',  #188 ) ;
#56 = UNCERTAINTY_MEASURE_WITH_UNIT (LENGTH_MEASURE( 1.000000000000000082E-05 ), #75, 'distance_accuracy_value', 'NONE');
#57 = LOCAL_TIME ( 18, 49, 59.00000000000000000, #61 ) ;
#58 = CC_DESIGN_PERSON_AND_ORGANIZATION_ASSIGNMENT ( #200, #181, ( #154 ) ) ;
#59 = DIRECTION ( 'NONE',  ( 1.000000000000000000, 0.000000000000000000, 0.000000000000000000 ) ) ;
#60 = CC_DESIGN_PERSON_AND_ORGANIZATION_ASSIGNMENT ( #45, #106, ( #79 ) ) ;
#61 = COORDINATED_UNIVERSAL_TIME_OFFSET ( 10, 0, .AHEAD. ) ;
#62 = APPLICATION_CONTEXT ( 'configuration controlled 3d designs of mechanical parts and assemblies' ) ;
#63 = CALENDAR_DATE ( 2026, 22, 6 ) ;
#64 =( GEOMETRIC_REPRESENTATION_CONTEXT ( 3 ) GLOBAL_UNCERTAINTY_ASSIGNED_CONTEXT ( ( #196 ) ) GLOBAL_UNIT_ASSIGNED_CONTEXT ( ( #41, #43, #77 ) ) REPRESENTATION_CONTEXT ( 'NONE', 'WORKASPACE' ) );
#65 = DATE_TIME_ROLE ( 'classification_date' ) ;
#66 = PRODUCT_DEFINITION_FORMATION_WITH_SPECIFIED_SOURCE ( 'Symmetric', '', #195, .NOT_KNOWN. ) ;
#67 = ITEM_DEFINED_TRANSFORMATION ( 'NONE', 'NONE', #185,  #44 ) ;
#68 = APPROVAL ( #4, 'Coincident' ) ;
#69 = CALENDAR_DATE ( 2026, 22, 6 ) ;
#70 =( GEOMETRIC_REPRESENTATION_CONTEXT ( 3 ) GLOBAL_UNCERTAINTY_ASSIGNED_CONTEXT ( ( #56 ) ) GLOBAL_UNIT_ASSIGNED_CONTEXT ( ( #75, #98, #8 ) ) REPRESENTATION_CONTEXT ( 'NONE', 'WORKASPACE' ) );
#71 = CC_DESIGN_SECURITY_CLASSIFICATION ( #81, ( #66 ) ) ;
#72 = PROPERTY_DEFINITION_REPRESENTATION ( #95, #148 ) ;
#73 = COORDINATED_UNIVERSAL_TIME_OFFSET ( 10, 0, .AHEAD. ) ;
#74 = CC_DESIGN_APPROVAL ( #30, ( #134 ) ) ;
#75 =( LENGTH_UNIT ( ) NAMED_UNIT ( * ) SI_UNIT ( .MILLI., .METRE. ) );
#76 = CARTESIAN_POINT ( 'NONE',  ( 0.000000000000000000, 0.000000000000000000, 0.000000000000000000 ) ) ;
#77 =( NAMED_UNIT ( * ) SI_UNIT ( $, .STERADIAN. ) SOLID_ANGLE_UNIT ( ) );
#78 = DOCUMENT_FILE ( 'Extruded-15.step.STEP' , '', '', #104, '' ,$ ) ;
#79 = SECURITY_CLASSIFICATION ( '', '', #34 ) ;
#80 = LOCAL_TIME ( 18, 49, 59.00000000000000000, #20 ) ;
#81 = SECURITY_CLASSIFICATION ( '', '', #127 ) ;
#82 = APPROVAL_STATUS ( 'not_yet_approved' ) ;
#83 = COORDINATED_UNIVERSAL_TIME_OFFSET ( 10, 0, .AHEAD. ) ;
#84 = PERSON_AND_ORGANIZATION ( #18446744073709551615, #18446744073709551615 ) ;
#85 = CC_DESIGN_SECURITY_CLASSIFICATION ( #79, ( #154 ) ) ;
#86 = DATE_TIME_ROLE ( 'classification_date' ) ;
#87 = SHAPE_REPRESENTATION ( '7087914976.step', ( #158, #185 ), #70 ) ;
#88 = PERSON_AND_ORGANIZATION_ROLE ( 'classification_officer' ) ;
#89 = CC_DESIGN_DATE_AND_TIME_ASSIGNMENT ( #213, #133, ( #188 ) ) ;
#90 = APPLICATION_CONTEXT ( 'configuration controlled 3d designs of mechanical parts and assemblies' ) ;
#91 = DATE_TIME_ROLE ( 'creation_date' ) ;
#92 = COORDINATED_UNIVERSAL_TIME_OFFSET ( 10, 0, .AHEAD. ) ;
#93 = APPROVAL_STATUS ( 'not_yet_approved' ) ;
#94 = APPROVAL ( #173, 'Coincident' ) ;
#95 = PROPERTY_DEFINITION ('external definition','', #78 ) ;
#96 = DIRECTION ( 'NONE',  ( 4.890937612370273194E-29, -3.155443620884047222E-30, 0.9999999999999997780 ) ) ;
#97 = DIRECTION ( 'NONE',  ( 1.000000000000000000, 0.000000000000000000, 0.000000000000000000 ) ) ;
#98 =( NAMED_UNIT ( * ) PLANE_ANGLE_UNIT ( ) SI_UNIT ( $, .RADIAN. ) );
#99 = CC_DESIGN_APPROVAL ( #115, ( #188 ) ) ;
#100 = APPROVAL ( #121, 'Coincident' ) ;
#101 = DATE_AND_TIME ( #32, #210 ) ;
#102 = PERSON_AND_ORGANIZATION ( #18446744073709551615, #18446744073709551615 ) ;
#103 = PERSON_AND_ORGANIZATION ( #18446744073709551615, #18446744073709551615 ) ;
#104 = DOCUMENT_TYPE ( 'geometry' ) ;
#105 = PERSON_AND_ORGANIZATION_ROLE ( 'creator' ) ;
#106 = PERSON_AND_ORGANIZATION_ROLE ( 'classification_officer' ) ;
#107 = APPROVAL ( #203, 'Coincident' ) ;
#108 = PERSON_AND_ORGANIZATION_ROLE ( 'creator' ) ;
#109 = PERSON_AND_ORGANIZATION ( #18446744073709551615, #18446744073709551615 ) ;
#110 = DATE_AND_TIME ( #191, #129 ) ;
#111 = LOCAL_TIME ( 18, 49, 59.00000000000000000, #73 ) ;
#112 = PRODUCT_RELATED_PRODUCT_CATEGORY ( 'detail', '', ( #145 ) ) ;
#113 = PRODUCT_DEFINITION_SHAPE ( 'NONE', 'NONE',  #170 ) ;
#114 = LOCAL_TIME ( 18, 49, 59.00000000000000000, #201 ) ;
#115 = APPROVAL ( #128, 'Coincident' ) ;
#116 = IDENTIFICATION_ROLE ( 'external document id and location', $) ;
#117 = APPROVAL_PERSON_ORGANIZATION ( #109, #94, #207 ) ;
#118 = CALENDAR_DATE ( 2026, 22, 6 ) ;
#119 = CC_DESIGN_APPROVAL ( #197, ( #170 ) ) ;
#120 = CC_DESIGN_DATE_AND_TIME_ASSIGNMENT ( #52, #86, ( #81 ) ) ;
#121 = APPROVAL_STATUS ( 'not_yet_approved' ) ;
#122 = APPLICATION_PROTOCOL_DEFINITION ( 'international standard', 'config_control_design', 1994, #202 ) ;
#123 = PERSON_AND_ORGANIZATION ( #18446744073709551615, #18446744073709551615 ) ;
#124 = CALENDAR_DATE ( 2026, 22, 6 ) ;
#125 = OBJECT_ROLE ('mandatory',$ ) ;
#126 = PERSON_AND_ORGANIZATION_ROLE ( 'classification_officer' ) ;
#127 = SECURITY_CLASSIFICATION_LEVEL ( 'unclassified' ) ;
#128 = APPROVAL_STATUS ( 'not_yet_approved' ) ;
#129 = LOCAL_TIME ( 18, 49, 59.00000000000000000, #53 ) ;
#130 = PRODUCT_DEFINITION_SHAPE ( 'NONE', 'NONE',  #215 ) ;
#131 = CARTESIAN_POINT ( 'NONE',  ( 0.000000000000000000, 0.000000000000000000, 0.000000000000000000 ) ) ;
#132 = CC_DESIGN_PERSON_AND_ORGANIZATION_ASSIGNMENT ( #169, #179, ( #195 ) ) ;
#133 = DATE_TIME_ROLE ( 'creation_date' ) ;
#134 = SECURITY_CLASSIFICATION ( '', '', #161 ) ;
#135 = DATE_AND_TIME ( #63, #26 ) ;
#136 = APPLICATION_PROTOCOL_DEFINITION ( 'international standard', 'config_control_design', 1994, #62 ) ;
#137 = COORDINATED_UNIVERSAL_TIME_OFFSET ( 10, 0, .AHEAD. ) ;
#138 = DESIGN_CONTEXT ( 'detailed design', #9, 'design' ) ;
#139 = DATE_AND_TIME ( #118, #114 ) ;
#140 = DATE_AND_TIME ( #124, #159 ) ;
#141 = DATE_AND_TIME ( #151, #15 ) ;
#142 = APPROVAL_PERSON_ORGANIZATION ( #166, #107, #14 ) ;
#143 = DATE_AND_TIME ( #69, #11 ) ;
#144 = PROPERTY_DEFINITION_REPRESENTATION ( #31, #148 ) ;
#145 = PRODUCT ( '7087914976.step', '7087914976.step', '', ( #175 ) ) ;
#146 = DIRECTION ( 'NONE',  ( 0.000000000000000000, 0.000000000000000000, 1.000000000000000000 ) ) ;
#147 = CC_DESIGN_APPROVAL ( #107, ( #154 ) ) ;
#148 = SHAPE_REPRESENTATION ( 'Extruded-15.step', ( #44 ), #64 ) ;
#149 = PERSON_AND_ORGANIZATION_ROLE ( 'design_supplier' ) ;
#150 = CARTESIAN_POINT ( 'NONE',  ( 0.000000000000000000, 0.000000000000000000, 0.000000000000000000 ) ) ;
#151 = CALENDAR_DATE ( 2026, 22, 6 ) ;
#152 = APPROVAL_ROLE ( '' ) ;
#153 = SHAPE_DEFINITION_REPRESENTATION ( #55, #87 ) ;
#154 = PRODUCT_DEFINITION_FORMATION_WITH_SPECIFIED_SOURCE ( 'Symmetric', '', #145, .NOT_KNOWN. ) ;
#155 = CC_DESIGN_PERSON_AND_ORGANIZATION_ASSIGNMENT ( #5, #88, ( #81 ) ) ;
#156 = CALENDAR_DATE ( 2026, 22, 6 ) ;
#157 = DATE_AND_TIME ( #6, #211 ) ;
#158 = AXIS2_PLACEMENT_3D ( 'NONE', #150, #205, #59 ) ;
#159 = LOCAL_TIME ( 18, 49, 59.00000000000000000, #184 ) ;
#160 = ROLE_ASSOCIATION ( #125, #7 ) ;
#161 = SECURITY_CLASSIFICATION_LEVEL ( 'unclassified' ) ;
#162 = CC_DESIGN_PERSON_AND_ORGANIZATION_ASSIGNMENT ( #172, #126, ( #134 ) ) ;
#163 = DIRECTION ( 'NONE',  ( 1.000000000000000222, -1.092455418989176591E-28, 4.890937612370273194E-29 ) ) ;
#164 = APPLICATION_PROTOCOL_DEFINITION ( 'international standard', 'config_control_design', 1994, #90 ) ;
#165 = APPROVAL_DATE_TIME ( #101, #197 ) ;
#166 = PERSON_AND_ORGANIZATION ( #18446744073709551615, #18446744073709551615 ) ;
#167 = CALENDAR_DATE ( 2026, 22, 6 ) ;
#168 = APPLICATION_PROTOCOL_DEFINITION ( 'international standard', 'config_control_design', 1994, #9 ) ;
#169 = PERSON_AND_ORGANIZATION ( #18446744073709551615, #18446744073709551615 ) ;
#170 = PRODUCT_DEFINITION ( 'General', '', #66, #183 ) ;
#171 = SHAPE_DEFINITION_REPRESENTATION ( #113, #148 ) ;
#172 = PERSON_AND_ORGANIZATION ( #212, #204 ) ;
#173 = APPROVAL_STATUS ( 'not_yet_approved' ) ;
#174 = APPROVAL_ROLE ( '' ) ;
#175 = MECHANICAL_CONTEXT ( 'NONE', #90, 'mechanical' ) ;
#176 = PERSON_AND_ORGANIZATION ( #18446744073709551615, #18446744073709551615 ) ;
#177 = CALENDAR_DATE ( 2026, 22, 6 ) ;
#178 = CC_DESIGN_APPROVAL ( #100, ( #79 ) ) ;
#179 = PERSON_AND_ORGANIZATION_ROLE ( 'design_owner' ) ;
#180 = APPROVAL_DATE_TIME ( #19, #115 ) ;
#181 = PERSON_AND_ORGANIZATION_ROLE ( 'creator' ) ;
#182 = PERSON_AND_ORGANIZATION_ROLE ( 'creator' ) ;
#183 = DESIGN_CONTEXT ( 'detailed design', #62, 'design' ) ;
#184 = COORDINATED_UNIVERSAL_TIME_OFFSET ( 10, 0, .AHEAD. ) ;
#185 = AXIS2_PLACEMENT_3D ( 'NONE', #76, #96, #163 ) ;
#186 = CC_DESIGN_APPROVAL ( #94, ( #66 ) ) ;
#187 = APPROVAL_DATE_TIME ( #143, #68 ) ;
#188 = PRODUCT_DEFINITION ( 'General', '', #154, #138 ) ;
#189 =( REPRESENTATION_RELATIONSHIP ('NONE','NONE', #87, #148 ) REPRESENTATION_RELATIONSHIP_WITH_TRANSFORMATION ( #67 )SHAPE_REPRESENTATION_RELATIONSHIP( ) );
#190 = APPROVAL_ROLE ( '' ) ;
#191 = CALENDAR_DATE ( 2026, 22, 6 ) ;
#192 = APPROVAL_PERSON_ORGANIZATION ( #3, #197, #2 ) ;
#193 = APPROVAL_PERSON_ORGANIZATION ( #172, #30, #174 ) ;
#194 = CC_DESIGN_PERSON_AND_ORGANIZATION_ASSIGNMENT ( #38, #24, ( #66 ) ) ;
#195 = PRODUCT ( 'Extruded-15.step', 'Extruded-15.step', '', ( #1 ) ) ;
#196 = UNCERTAINTY_MEASURE_WITH_UNIT (LENGTH_MEASURE( 1.000000000000000082E-05 ), #41, 'distance_accuracy_value', 'NONE');
#197 = APPROVAL ( #82, 'Coincident' ) ;
#198 = DATE_AND_TIME ( #167, #208 ) ;
#199 = APPLIED_EXTERNAL_IDENTIFICATION_ASSIGNMENT ( 'Extruded-15.step.STEP' , #116, #42,( #78) ) ;
#200 = PERSON_AND_ORGANIZATION ( #18446744073709551615, #18446744073709551615 ) ;
#201 = COORDINATED_UNIVERSAL_TIME_OFFSET ( 10, 0, .AHEAD. ) ;
#202 = APPLICATION_CONTEXT ( 'configuration controlled 3d designs of mechanical parts and assemblies' ) ;
#203 = APPROVAL_STATUS ( 'not_yet_approved' ) ;
#204 = ORGANIZATION ( 'NAUO-ORG235', 'UNSPECIFIED', 'UNSPECIFIED' ) ;
#205 = DIRECTION ( 'NONE',  ( 0.000000000000000000, 0.000000000000000000, 1.000000000000000000 ) ) ;
#206 = PERSON_AND_ORGANIZATION ( #18446744073709551615, #18446744073709551615 ) ;
#207 = APPROVAL_ROLE ( '' ) ;
#208 = LOCAL_TIME ( 18, 49, 59.00000000000000000, #83 ) ;
#209 = CC_DESIGN_DATE_AND_TIME_ASSIGNMENT ( #198, #65, ( #79 ) ) ;
#210 = LOCAL_TIME ( 18, 49, 59.00000000000000000, #33 ) ;
#211 = LOCAL_TIME ( 18, 49, 59.00000000000000000, #23 ) ;
#212 = PERSON ( 'NAUO-PER235', 'UNSPECIFIED', 'UNSPECIFIED', ('UNSPECIFIED'), ('UNSPECIFIED'), ('UNSPECIFIED') ) ;
#213 = DATE_AND_TIME ( #177, #80 ) ;
#214 = APPROVAL_PERSON_ORGANIZATION ( #84, #115, #47 ) ;
#215 = NEXT_ASSEMBLY_USAGE_OCCURRENCE ( 'NAUO235', ' ', ' ', #188, #170, $ ) ;
ENDSEC;
END-ISO-10303-21;
