ISO-10303-21;
HEADER;
FILE_DESCRIPTION (( 'STEP AP203' ),
    '1' );
FILE_NAME ('Board.step.STEP',
    '2026-06-22T08:49:53',
    ( 'localuser' ),
    ( '' ),
    'SwSTEP 2.0',
    'SolidWorks 2025',
    '' );
FILE_SCHEMA (( 'CONFIG_CONTROL_DESIGN' ));
ENDSEC;

DATA;
#1 = APPROVAL_ROLE ( '' ) ;
#2 = PERSON_AND_ORGANIZATION ( #18446744073709551615, #18446744073709551615 ) ;
#3 = CALENDAR_DATE ( 2026, 22, 6 ) ;
#4 =( GEOMETRIC_REPRESENTATION_CONTEXT ( 3 ) GLOBAL_UNCERTAINTY_ASSIGNED_CONTEXT ( ( #136 ) ) GLOBAL_UNIT_ASSIGNED_CONTEXT ( ( #67, #18, #96 ) ) REPRESENTATION_CONTEXT ( 'NONE', 'WORKASPACE' ) );
#5 = SECURITY_CLASSIFICATION ( '', '', #161 ) ;
#6 = APPROVAL_DATE_TIME ( #192, #175 ) ;
#7 = PROPERTY_DEFINITION_REPRESENTATION ( #59, #27 ) ;
#8 = CC_DESIGN_DATE_AND_TIME_ASSIGNMENT ( #147, #202, ( #119 ) ) ;
#9 = DIRECTION ( 'NONE',  ( 0.000000000000000000, 0.000000000000000000, 1.000000000000000000 ) ) ;
#10 = APPLIED_EXTERNAL_IDENTIFICATION_ASSIGNMENT ( 'Open CASCADE STEP translator 7.5 1.1.1.step.STEP' , #112, #121,( #207) ) ;
#11 = DATE_AND_TIME ( #61, #146 ) ;
#12 = APPROVAL_DATE_TIME ( #62, #91 ) ;
#13 = PERSON_AND_ORGANIZATION ( #18446744073709551615, #18446744073709551615 ) ;
#14 = DATE_TIME_ROLE ( 'classification_date' ) ;
#15 = CC_DESIGN_PERSON_AND_ORGANIZATION_ASSIGNMENT ( #66, #199, ( #138 ) ) ;
#16 = CALENDAR_DATE ( 2026, 22, 6 ) ;
#17 = AXIS2_PLACEMENT_3D ( 'NONE', #30, #9, #34 ) ;
#18 =( NAMED_UNIT ( * ) PLANE_ANGLE_UNIT ( ) SI_UNIT ( $, .RADIAN. ) );
#19 = DATE_AND_TIME ( #156, #99 ) ;
#20 = ORGANIZATION ( 'NAUO-ORG39', 'UNSPECIFIED', 'UNSPECIFIED' ) ;
#21 = COORDINATED_UNIVERSAL_TIME_OFFSET ( 10, 0, .AHEAD. ) ;
#22 = CC_DESIGN_PERSON_AND_ORGANIZATION_ASSIGNMENT ( #79, #52, ( #142 ) ) ;
#23 = AXIS2_PLACEMENT_3D ( 'NONE', #178, #45, #186 ) ;
#24 = PRODUCT_DEFINITION_SHAPE ( 'NONE', 'NONE',  #130 ) ;
#25 = LOCAL_TIME ( 18, 49, 53.00000000000000000, #190 ) ;
#26 = CC_DESIGN_PERSON_AND_ORGANIZATION_ASSIGNMENT ( #2, #69, ( #125 ) ) ;
#27 = SHAPE_REPRESENTATION ( 'Open CASCADE STEP translator 7.5 1.1.1.step', ( #23 ), #4 ) ;
#28 = COORDINATED_UNIVERSAL_TIME_OFFSET ( 10, 0, .AHEAD. ) ;
#29 = COORDINATED_UNIVERSAL_TIME_OFFSET ( 10, 0, .AHEAD. ) ;
#30 = CARTESIAN_POINT ( 'NONE',  ( 0.000000000000000000, 0.000000000000000000, 0.000000000000000000 ) ) ;
#31 = CC_DESIGN_PERSON_AND_ORGANIZATION_ASSIGNMENT ( #113, #150, ( #130 ) ) ;
#32 = PERSON_AND_ORGANIZATION_ROLE ( 'classification_officer' ) ;
#33 = APPROVAL_DATE_TIME ( #44, #187 ) ;
#34 = DIRECTION ( 'NONE',  ( 1.000000000000000000, 0.000000000000000000, 0.000000000000000000 ) ) ;
#35 = CC_DESIGN_PERSON_AND_ORGANIZATION_ASSIGNMENT ( #104, #176, ( #5 ) ) ;
#36 = DATE_AND_TIME ( #3, #106 ) ;
#37 = APPROVAL_DATE_TIME ( #36, #163 ) ;
#38 = APPROVAL_STATUS ( 'not_yet_approved' ) ;
#39 = CC_DESIGN_DATE_AND_TIME_ASSIGNMENT ( #115, #46, ( #130 ) ) ;
#40 = COORDINATED_UNIVERSAL_TIME_OFFSET ( 10, 0, .AHEAD. ) ;
#41 = CALENDAR_DATE ( 2026, 22, 6 ) ;
#42 = LOCAL_TIME ( 18, 49, 53.00000000000000000, #93 ) ;
#43 = PERSON_AND_ORGANIZATION ( #18446744073709551615, #18446744073709551615 ) ;
#44 = DATE_AND_TIME ( #72, #145 ) ;
#45 = DIRECTION ( 'NONE',  ( 0.000000000000000000, 0.000000000000000000, 1.000000000000000000 ) ) ;
#46 = DATE_TIME_ROLE ( 'creation_date' ) ;
#47 = PERSON_AND_ORGANIZATION ( #18446744073709551615, #18446744073709551615 ) ;
#48 = PRODUCT_RELATED_PRODUCT_CATEGORY ( 'detail', '', ( #142 ) ) ;
#49 = LOCAL_TIME ( 18, 49, 53.00000000000000000, #172 ) ;
#50 = SECURITY_CLASSIFICATION_LEVEL ( 'unclassified' ) ;
#51 = DATE_AND_TIME ( #152, #49 ) ;
#52 = PERSON_AND_ORGANIZATION_ROLE ( 'design_owner' ) ;
#53 = APPROVAL_ROLE ( '' ) ;
#54 = LOCAL_TIME ( 18, 49, 53.00000000000000000, #182 ) ;
#55 = CC_DESIGN_PERSON_AND_ORGANIZATION_ASSIGNMENT ( #168, #133, ( #86 ) ) ;
#56 = APPLICATION_CONTEXT ( 'configuration controlled 3d designs of mechanical parts and assemblies' ) ;
#57 = CALENDAR_DATE ( 2026, 22, 6 ) ;
#58 = PRODUCT_RELATED_PRODUCT_CATEGORY ( 'detail', '', ( #125 ) ) ;
#59 = PROPERTY_DEFINITION ('document property','', #207 ) ;
#60 = LOCAL_TIME ( 18, 49, 53.00000000000000000, #165 ) ;
#61 = CALENDAR_DATE ( 2026, 22, 6 ) ;
#62 = DATE_AND_TIME ( #169, #60 ) ;
#63 = PERSON_AND_ORGANIZATION ( #18446744073709551615, #18446744073709551615 ) ;
#64 =( LENGTH_UNIT ( ) NAMED_UNIT ( * ) SI_UNIT ( .MILLI., .METRE. ) );
#65 = APPROVAL_STATUS ( 'not_yet_approved' ) ;
#66 = PERSON_AND_ORGANIZATION ( #18446744073709551615, #18446744073709551615 ) ;
#67 =( LENGTH_UNIT ( ) NAMED_UNIT ( * ) SI_UNIT ( .MILLI., .METRE. ) );
#68 = PERSON_AND_ORGANIZATION ( #18446744073709551615, #18446744073709551615 ) ;
#69 = PERSON_AND_ORGANIZATION_ROLE ( 'design_owner' ) ;
#70 = LOCAL_TIME ( 18, 49, 53.00000000000000000, #28 ) ;
#71 = APPROVAL_PERSON_ORGANIZATION ( #47, #151, #94 ) ;
#72 = CALENDAR_DATE ( 2026, 22, 6 ) ;
#73 = PERSON_AND_ORGANIZATION ( #18446744073709551615, #18446744073709551615 ) ;
#74 =( NAMED_UNIT ( * ) PLANE_ANGLE_UNIT ( ) SI_UNIT ( $, .RADIAN. ) );
#75 = DATE_TIME_ROLE ( 'creation_date' ) ;
#76 = AXIS2_PLACEMENT_3D ( 'NONE', #135, #78, #149 ) ;
#77 = APPLICATION_PROTOCOL_DEFINITION ( 'international standard', 'config_control_design', 1994, #56 ) ;
#78 = DIRECTION ( 'NONE',  ( 4.890937612370273194E-29, -3.155443620884047222E-30, 0.9999999999999997780 ) ) ;
#79 = PERSON_AND_ORGANIZATION ( #18446744073709551615, #18446744073709551615 ) ;
#80 = CC_DESIGN_SECURITY_CLASSIFICATION ( #86, ( #191 ) ) ;
#81 = CC_DESIGN_APPROVAL ( #171, ( #191 ) ) ;
#82 = ROLE_ASSOCIATION ( #95, #143 ) ;
#83 = APPLICATION_CONTEXT ( 'configuration controlled 3d designs of mechanical parts and assemblies' ) ;
#84 = PRODUCT_DEFINITION_SHAPE ( 'NONE', 'NONE',  #215 ) ;
#85 = CC_DESIGN_APPROVAL ( #187, ( #137 ) ) ;
#86 = SECURITY_CLASSIFICATION ( '', '', #50 ) ;
#87 = APPROVAL_STATUS ( 'not_yet_approved' ) ;
#88 = APPROVAL_ROLE ( '' ) ;
#89 = PERSON_AND_ORGANIZATION_ROLE ( 'creator' ) ;
#90 = APPROVAL_ROLE ( '' ) ;
#91 = APPROVAL ( #87, 'Coincident' ) ;
#92 = CALENDAR_DATE ( 2026, 22, 6 ) ;
#93 = COORDINATED_UNIVERSAL_TIME_OFFSET ( 10, 0, .AHEAD. ) ;
#94 = APPROVAL_ROLE ( '' ) ;
#95 = OBJECT_ROLE ('mandatory',$ ) ;
#96 =( NAMED_UNIT ( * ) SI_UNIT ( $, .STERADIAN. ) SOLID_ANGLE_UNIT ( ) );
#97 = APPROVAL_ROLE ( '' ) ;
#98 = APPROVAL ( #38, 'Coincident' ) ;
#99 = LOCAL_TIME ( 18, 49, 53.00000000000000000, #134 ) ;
#100 = CC_DESIGN_APPROVAL ( #163, ( #86 ) ) ;
#101 = CONTEXT_DEPENDENT_SHAPE_REPRESENTATION ( #141, #84 ) ;
#102 = PRODUCT_DEFINITION_SHAPE ( 'NONE', 'NONE',  #137 ) ;
#103 = APPLICATION_CONTEXT ( 'configuration controlled 3d designs of mechanical parts and assemblies' ) ;
#104 = PERSON_AND_ORGANIZATION ( #118, #20 ) ;
#105 =( GEOMETRIC_REPRESENTATION_CONTEXT ( 3 ) GLOBAL_UNCERTAINTY_ASSIGNED_CONTEXT ( ( #196 ) ) GLOBAL_UNIT_ASSIGNED_CONTEXT ( ( #64, #74, #180 ) ) REPRESENTATION_CONTEXT ( 'NONE', 'WORKASPACE' ) );
#106 = LOCAL_TIME ( 18, 49, 53.00000000000000000, #21 ) ;
#107 = APPROVAL_DATE_TIME ( #51, #151 ) ;
#108 = PERSON_AND_ORGANIZATION ( #18446744073709551615, #18446744073709551615 ) ;
#109 = CC_DESIGN_APPROVAL ( #98, ( #130 ) ) ;
#110 = PERSON_AND_ORGANIZATION_ROLE ( 'creator' ) ;
#111 = LOCAL_TIME ( 18, 49, 53.00000000000000000, #40 ) ;
#112 = IDENTIFICATION_ROLE ( 'external document id and location', $) ;
#113 = PERSON_AND_ORGANIZATION ( #18446744073709551615, #18446744073709551615 ) ;
#114 = SHAPE_DEFINITION_REPRESENTATION ( #102, #177 ) ;
#115 = DATE_AND_TIME ( #116, #70 ) ;
#116 = CALENDAR_DATE ( 2026, 22, 6 ) ;
#117 = CC_DESIGN_PERSON_AND_ORGANIZATION_ASSIGNMENT ( #73, #32, ( #119 ) ) ;
#118 = PERSON ( 'NAUO-PER39', 'UNSPECIFIED', 'UNSPECIFIED', ('UNSPECIFIED'), ('UNSPECIFIED'), ('UNSPECIFIED') ) ;
#119 = SECURITY_CLASSIFICATION ( '', '', #212 ) ;
#120 = CC_DESIGN_DATE_AND_TIME_ASSIGNMENT ( #160, #144, ( #5 ) ) ;
#121 = EXTERNAL_SOURCE (IDENTIFIER('') ) ;
#122 = APPROVAL_ROLE ( '' ) ;
#123 = APPROVAL_STATUS ( 'not_yet_approved' ) ;
#124 = ITEM_DEFINED_TRANSFORMATION ( 'NONE', 'NONE', #76,  #23 ) ;
#125 = PRODUCT ( 'Open CASCADE STEP translator 7.5 1.1.1.step', 'Open CASCADE STEP translator 7.5 1.1.1.step', '', ( #155 ) ) ;
#126 = LOCAL_TIME ( 18, 49, 53.00000000000000000, #181 ) ;
#127 = DOCUMENT_TYPE ( 'geometry' ) ;
#128 = CALENDAR_DATE ( 2026, 22, 6 ) ;
#129 = PERSON_AND_ORGANIZATION ( #18446744073709551615, #18446744073709551615 ) ;
#130 = PRODUCT_DEFINITION ( 'General', '', #191, #201 ) ;
#131 = PERSON_AND_ORGANIZATION ( #18446744073709551615, #18446744073709551615 ) ;
#132 = APPROVAL_STATUS ( 'not_yet_approved' ) ;
#133 = PERSON_AND_ORGANIZATION_ROLE ( 'classification_officer' ) ;
#134 = COORDINATED_UNIVERSAL_TIME_OFFSET ( 10, 0, .AHEAD. ) ;
#135 = CARTESIAN_POINT ( 'NONE',  ( 0.000000000000000000, 0.000000000000000000, -1.558323020000000225 ) ) ;
#136 = UNCERTAINTY_MEASURE_WITH_UNIT (LENGTH_MEASURE( 1.000000000000000082E-05 ), #67, 'distance_accuracy_value', 'NONE');
#137 = PRODUCT_DEFINITION ( 'General', '', #138, #185 ) ;
#138 = PRODUCT_DEFINITION_FORMATION_WITH_SPECIFIED_SOURCE ( 'Symmetric', '', #142, .NOT_KNOWN. ) ;
#139 = CC_DESIGN_SECURITY_CLASSIFICATION ( #5, ( #215 ) ) ;
#140 = APPROVAL_DATE_TIME ( #19, #98 ) ;
#141 =( REPRESENTATION_RELATIONSHIP ('NONE','NONE', #177, #27 ) REPRESENTATION_RELATIONSHIP_WITH_TRANSFORMATION ( #124 )SHAPE_REPRESENTATION_RELATIONSHIP( ) );
#142 = PRODUCT ( 'Board.step', 'Board.step', '', ( #173 ) ) ;
#143 = APPLIED_DOCUMENT_REFERENCE ( #207,'',( #130) ) ;
#144 = DATE_TIME_ROLE ( 'classification_date' ) ;
#145 = LOCAL_TIME ( 18, 49, 53.00000000000000000, #29 ) ;
#146 = LOCAL_TIME ( 18, 49, 53.00000000000000000, #166 ) ;
#147 = DATE_AND_TIME ( #128, #42 ) ;
#148 = PERSON_AND_ORGANIZATION_ROLE ( 'creator' ) ;
#149 = DIRECTION ( 'NONE',  ( 1.000000000000000222, -1.092455418989176591E-28, 4.890937612370273194E-29 ) ) ;
#150 = PERSON_AND_ORGANIZATION_ROLE ( 'creator' ) ;
#151 = APPROVAL ( #154, 'Coincident' ) ;
#152 = CALENDAR_DATE ( 2026, 22, 6 ) ;
#153 = PERSON_AND_ORGANIZATION ( #18446744073709551615, #18446744073709551615 ) ;
#154 = APPROVAL_STATUS ( 'not_yet_approved' ) ;
#155 = MECHANICAL_CONTEXT ( 'NONE', #56, 'mechanical' ) ;
#156 = CALENDAR_DATE ( 2026, 22, 6 ) ;
#157 = APPROVAL_PERSON_ORGANIZATION ( #68, #171, #88 ) ;
#158 = APPLICATION_PROTOCOL_DEFINITION ( 'international standard', 'config_control_design', 1994, #206 ) ;
#159 = CC_DESIGN_APPROVAL ( #151, ( #119 ) ) ;
#160 = DATE_AND_TIME ( #41, #111 ) ;
#161 = SECURITY_CLASSIFICATION_LEVEL ( 'unclassified' ) ;
#162 = APPROVAL_PERSON_ORGANIZATION ( #153, #163, #53 ) ;
#163 = APPROVAL ( #65, 'Coincident' ) ;
#164 = PROPERTY_DEFINITION_REPRESENTATION ( #193, #27 ) ;
#165 = COORDINATED_UNIVERSAL_TIME_OFFSET ( 10, 0, .AHEAD. ) ;
#166 = COORDINATED_UNIVERSAL_TIME_OFFSET ( 10, 0, .AHEAD. ) ;
#167 = CC_DESIGN_DATE_AND_TIME_ASSIGNMENT ( #170, #14, ( #86 ) ) ;
#168 = PERSON_AND_ORGANIZATION ( #18446744073709551615, #18446744073709551615 ) ;
#169 = CALENDAR_DATE ( 2026, 22, 6 ) ;
#170 = DATE_AND_TIME ( #92, #126 ) ;
#171 = APPROVAL ( #203, 'Coincident' ) ;
#172 = COORDINATED_UNIVERSAL_TIME_OFFSET ( 10, 0, .AHEAD. ) ;
#173 = MECHANICAL_CONTEXT ( 'NONE', #206, 'mechanical' ) ;
#174 = SHAPE_DEFINITION_REPRESENTATION ( #24, #27 ) ;
#175 = APPROVAL ( #123, 'UNKNOWN' ) ;
#176 = PERSON_AND_ORGANIZATION_ROLE ( 'classification_officer' ) ;
#177 = SHAPE_REPRESENTATION ( 'Board.step', ( #17, #76 ), #105 ) ;
#178 = CARTESIAN_POINT ( 'NONE',  ( 0.000000000000000000, 0.000000000000000000, 0.000000000000000000 ) ) ;
#179 = APPROVAL_PERSON_ORGANIZATION ( #195, #187, #1 ) ;
#180 =( NAMED_UNIT ( * ) SI_UNIT ( $, .STERADIAN. ) SOLID_ANGLE_UNIT ( ) );
#181 = COORDINATED_UNIVERSAL_TIME_OFFSET ( 10, 0, .AHEAD. ) ;
#182 = COORDINATED_UNIVERSAL_TIME_OFFSET ( 10, 0, .AHEAD. ) ;
#183 = CC_DESIGN_PERSON_AND_ORGANIZATION_ASSIGNMENT ( #13, #110, ( #137 ) ) ;
#184 = APPLICATION_PROTOCOL_DEFINITION ( 'international standard', 'config_control_design', 1994, #103 ) ;
#185 = DESIGN_CONTEXT ( 'detailed design', #103, 'design' ) ;
#186 = DIRECTION ( 'NONE',  ( 1.000000000000000000, 0.000000000000000000, 0.000000000000000000 ) ) ;
#187 = APPROVAL ( #132, 'Coincident' ) ;
#188 = APPROVAL_PERSON_ORGANIZATION ( #43, #98, #97 ) ;
#189 = APPROVAL_PERSON_ORGANIZATION ( #104, #175, #122 ) ;
#190 = COORDINATED_UNIVERSAL_TIME_OFFSET ( 10, 0, .AHEAD. ) ;
#191 = PRODUCT_DEFINITION_FORMATION_WITH_SPECIFIED_SOURCE ( 'Symmetric', '', #125, .NOT_KNOWN. ) ;
#192 = DATE_AND_TIME ( #57, #25 ) ;
#193 = PROPERTY_DEFINITION ('external definition','', #207 ) ;
#194 = APPLICATION_PROTOCOL_DEFINITION ( 'international standard', 'config_control_design', 1994, #83 ) ;
#195 = PERSON_AND_ORGANIZATION ( #18446744073709551615, #18446744073709551615 ) ;
#196 = UNCERTAINTY_MEASURE_WITH_UNIT (LENGTH_MEASURE( 1.000000000000000082E-05 ), #64, 'distance_accuracy_value', 'NONE');
#197 = DATE_AND_TIME ( #16, #54 ) ;
#198 = CC_DESIGN_APPROVAL ( #175, ( #5 ) ) ;
#199 = PERSON_AND_ORGANIZATION_ROLE ( 'design_supplier' ) ;
#200 = CC_DESIGN_PERSON_AND_ORGANIZATION_ASSIGNMENT ( #129, #89, ( #138 ) ) ;
#201 = DESIGN_CONTEXT ( 'detailed design', #83, 'design' ) ;
#202 = DATE_TIME_ROLE ( 'classification_date' ) ;
#203 = APPROVAL_STATUS ( 'not_yet_approved' ) ;
#204 = CC_DESIGN_SECURITY_CLASSIFICATION ( #119, ( #138 ) ) ;
#205 = CC_DESIGN_DATE_AND_TIME_ASSIGNMENT ( #197, #75, ( #137 ) ) ;
#206 = APPLICATION_CONTEXT ( 'configuration controlled 3d designs of mechanical parts and assemblies' ) ;
#207 = DOCUMENT_FILE ( 'Open CASCADE STEP translator 7.5 1.1.1.step.STEP' , '', '', #127, '' ,$ ) ;
#208 = CC_DESIGN_APPROVAL ( #91, ( #138 ) ) ;
#209 = CC_DESIGN_PERSON_AND_ORGANIZATION_ASSIGNMENT ( #131, #148, ( #191 ) ) ;
#210 = CC_DESIGN_PERSON_AND_ORGANIZATION_ASSIGNMENT ( #63, #211, ( #191 ) ) ;
#211 = PERSON_AND_ORGANIZATION_ROLE ( 'design_supplier' ) ;
#212 = SECURITY_CLASSIFICATION_LEVEL ( 'unclassified' ) ;
#213 = APPROVAL_DATE_TIME ( #11, #171 ) ;
#214 = APPROVAL_PERSON_ORGANIZATION ( #108, #91, #90 ) ;
#215 = NEXT_ASSEMBLY_USAGE_OCCURRENCE ( 'NAUO39', ' ', ' ', #137, #130, $ ) ;
ENDSEC;
END-ISO-10303-21;
