ISO-10303-21;
HEADER;
FILE_DESCRIPTION (( 'STEP AP203' ),
    '1' );
FILE_NAME ('Body.step.STEP',
    '2026-06-22T08:49:52',
    ( 'localuser' ),
    ( '' ),
    'SwSTEP 2.0',
    'SolidWorks 2025',
    '' );
FILE_SCHEMA (( 'CONFIG_CONTROL_DESIGN' ));
ENDSEC;

DATA;
#1 = CARTESIAN_POINT ( 'NONE',  ( -2.137500000000000178, 1.300000000000000044, 0.002000000000000000042 ) ) ;
#2 = DIRECTION ( 'NONE',  ( 0.05180842985264377809, -0.05180842985264377809, 0.9973122746624586421 ) ) ;
#3 = LINE ( 'NONE', #309, #115 ) ;
#4 = DIRECTION ( 'NONE',  ( 1.000000000000000000, 0.000000000000000000, 0.000000000000000000 ) ) ;
#5 = ADVANCED_FACE ( 'NONE', ( #104 ), #202, .F. ) ;
#6 = DIRECTION ( 'NONE',  ( 0.9986534247384303287, 8.713809146654775900E-19, 0.05187809998645242365 ) ) ;
#7 = DIRECTION ( 'NONE',  ( 0.000000000000000000, 1.000000000000000000, 0.000000000000000000 ) ) ;
#8 = EDGE_CURVE ( 'NONE', #298, #117, #145, .T. ) ;
#9 = AXIS2_PLACEMENT_3D ( 'NONE', #133, #6, #113 ) ;
#10 = CC_DESIGN_SECURITY_CLASSIFICATION ( #224, ( #94 ) ) ;
#11 = EDGE_LOOP ( 'NONE', ( #66, #300, #191, #165 ) ) ;
#12 = ORIENTED_EDGE ( 'NONE', *, *, #30, .T. ) ;
#13 = PRODUCT ( 'Body.step', 'Body.step', '', ( #121 ) ) ;
#14 = ADVANCED_FACE ( 'NONE', ( #152 ), #251, .F. ) ;
#15 = LOCAL_TIME ( 18, 49, 52.00000000000000000, #233 ) ;
#16 = VERTEX_POINT ( 'NONE', #19 ) ;
#17 = EDGE_CURVE ( 'NONE', #226, #91, #302, .T. ) ;
#18 = CARTESIAN_POINT ( 'NONE',  ( -2.137500000000000178, -1.300000000000000044, 1.098000000000000087 ) ) ;
#19 = CARTESIAN_POINT ( 'NONE',  ( 2.087499999999999911, -1.250000000000000000, 1.098000000000000087 ) ) ;
#20 = PERSON_AND_ORGANIZATION_ROLE ( 'classification_officer' ) ;
#21 = DIRECTION ( 'NONE',  ( -0.000000000000000000, 0.9986534247384303287, 0.05187809998645242365 ) ) ;
#22 = DIRECTION ( 'NONE',  ( 1.000000000000000000, 0.000000000000000000, 0.000000000000000000 ) ) ;
#23 = DIRECTION ( 'NONE',  ( 1.000000000000000000, 0.000000000000000000, 0.000000000000000000 ) ) ;
#24 = LINE ( 'NONE', #42, #281 ) ;
#25 = ORIENTED_EDGE ( 'NONE', *, *, #189, .T. ) ;
#26 = AXIS2_PLACEMENT_3D ( 'NONE', #222, #124, #97 ) ;
#27 = CC_DESIGN_APPROVAL ( #237, ( #94 ) ) ;
#28 = CARTESIAN_POINT ( 'NONE',  ( -2.137500000000000178, 1.275000000000000133, 0.6167500000000000204 ) ) ;
#29 = PLANE ( 'NONE',  #9 ) ;
#30 = EDGE_CURVE ( 'NONE', #246, #199, #201, .T. ) ;
#31 = CARTESIAN_POINT ( 'NONE',  ( 2.137500000000000178, 1.300000000000000044, 0.002000000000000000042 ) ) ;
#32 = ADVANCED_BREP_SHAPE_REPRESENTATION ( 'Body.step', ( #59, #274 ), #105 ) ;
#33 = DIRECTION ( 'NONE',  ( 0.05180842985264377809, 0.05180842985264377809, 0.9973122746624586421 ) ) ;
#34 = PERSON_AND_ORGANIZATION ( #18446744073709551615, #18446744073709551615 ) ;
#35 = CARTESIAN_POINT ( 'NONE',  ( 2.137500000000000178, 1.300000000000000044, 0.002000000000000000042 ) ) ;
#36 = ORIENTED_EDGE ( 'NONE', *, *, #255, .T. ) ;
#37 = ORIENTED_EDGE ( 'NONE', *, *, #153, .T. ) ;
#38 = ORIENTED_EDGE ( 'NONE', *, *, #261, .T. ) ;
#39 = ADVANCED_FACE ( 'NONE', ( #258 ), #122, .F. ) ;
#40 = APPLICATION_CONTEXT ( 'configuration controlled 3d designs of mechanical parts and assemblies' ) ;
#41 = EDGE_LOOP ( 'NONE', ( #283, #25, #36, #221 ) ) ;
#42 = CARTESIAN_POINT ( 'NONE',  ( -2.087499999999999911, -1.300000000000000044, 1.098000000000000087 ) ) ;
#43 = PLANE ( 'NONE',  #143 ) ;
#44 = DATE_AND_TIME ( #209, #139 ) ;
#45 = DIRECTION ( 'NONE',  ( -0.000000000000000000, 1.000000000000000000, 0.000000000000000000 ) ) ;
#46 = DIRECTION ( 'NONE',  ( 0.000000000000000000, 0.9986534247384303287, -0.05187809998645242365 ) ) ;
#47 = PERSON_AND_ORGANIZATION ( #18446744073709551615, #18446744073709551615 ) ;
#48 = DIRECTION ( 'NONE',  ( 1.000000000000000000, 0.000000000000000000, 0.000000000000000000 ) ) ;
#49 = PERSON_AND_ORGANIZATION ( #18446744073709551615, #18446744073709551615 ) ;
#50 = CARTESIAN_POINT ( 'NONE',  ( -2.137500000000000178, 1.300000000000000044, 0.002000000000000000042 ) ) ;
#51 = APPROVAL_STATUS ( 'not_yet_approved' ) ;
#52 = CARTESIAN_POINT ( 'NONE',  ( 2.137500000000000178, -1.300000000000000044, 0.002000000000000000042 ) ) ;
#53 = VECTOR ( 'NONE', #2, 1000.000000000000114 ) ;
#54 = EDGE_CURVE ( 'NONE', #75, #164, #305, .T. ) ;
#55 = CARTESIAN_POINT ( 'NONE',  ( 2.087499999999999911, -1.300000000000000044, 1.098000000000000087 ) ) ;
#56 = DIRECTION ( 'NONE',  ( -0.05180842985264377809, 0.05180842985264377809, 0.9973122746624586421 ) ) ;
#57 = DATE_AND_TIME ( #125, #167 ) ;
#58 = CARTESIAN_POINT ( 'NONE',  ( 2.137500000000000178, -1.300000000000000044, 0.002000000000000000042 ) ) ;
#59 = MANIFOLD_SOLID_BREP ( 'Body[1]', #103 ) ;
#60 = ORIENTED_EDGE ( 'NONE', *, *, #99, .F. ) ;
#61 = EDGE_CURVE ( 'NONE', #205, #195, #260, .T. ) ;
#62 = EDGE_LOOP ( 'NONE', ( #173, #218, #248, #146 ) ) ;
#63 = ORIENTED_EDGE ( 'NONE', *, *, #287, .F. ) ;
#64 = ADVANCED_FACE ( 'NONE', ( #330 ), #43, .T. ) ;
#65 = VECTOR ( 'NONE', #242, 1000.000000000000000 ) ;
#66 = ORIENTED_EDGE ( 'NONE', *, *, #61, .F. ) ;
#67 = PERSON_AND_ORGANIZATION ( #18446744073709551615, #18446744073709551615 ) ;
#68 = DIRECTION ( 'NONE',  ( 0.9986534247384303287, -8.713809146654775900E-19, -0.05187809998645242365 ) ) ;
#69 = FACE_OUTER_BOUND ( 'NONE', #62, .T. ) ;
#70 = ORIENTED_EDGE ( 'NONE', *, *, #61, .T. ) ;
#71 = CALENDAR_DATE ( 2026, 22, 6 ) ;
#72 = DATE_AND_TIME ( #200, #175 ) ;
#73 = PRODUCT_DEFINITION ( 'General', '', #94, #303 ) ;
#74 = AXIS2_PLACEMENT_3D ( 'NONE', #150, #68, #254 ) ;
#75 = VERTEX_POINT ( 'NONE', #249 ) ;
#76 = APPROVAL_PERSON_ORGANIZATION ( #230, #90, #206 ) ;
#77 = DIRECTION ( 'NONE',  ( -0.05180842985264377809, -0.05180842985264377809, 0.9973122746624586421 ) ) ;
#78 = CARTESIAN_POINT ( 'NONE',  ( -2.137500000000000178, 1.300000000000000044, 0.1354999999999999816 ) ) ;
#79 = PERSON_AND_ORGANIZATION_ROLE ( 'design_owner' ) ;
#80 = LINE ( 'NONE', #55, #312 ) ;
#81 = ADVANCED_FACE ( 'NONE', ( #100 ), #92, .T. ) ;
#82 = PERSON_AND_ORGANIZATION_ROLE ( 'design_supplier' ) ;
#83 = DIRECTION ( 'NONE',  ( 0.000000000000000000, 0.000000000000000000, 1.000000000000000000 ) ) ;
#84 = VECTOR ( 'NONE', #22, 1000.000000000000000 ) ;
#85 = DIRECTION ( 'NONE',  ( 0.000000000000000000, 1.000000000000000000, 0.000000000000000000 ) ) ;
#86 = FACE_OUTER_BOUND ( 'NONE', #118, .T. ) ;
#87 = CC_DESIGN_PERSON_AND_ORGANIZATION_ASSIGNMENT ( #310, #82, ( #94 ) ) ;
#88 = ORIENTED_EDGE ( 'NONE', *, *, #142, .T. ) ;
#89 = ORIENTED_EDGE ( 'NONE', *, *, #247, .F. ) ;
#90 = APPROVAL ( #183, 'Coincident' ) ;
#91 = VERTEX_POINT ( 'NONE', #239 ) ;
#92 = PLANE ( 'NONE',  #112 ) ;
#93 = AXIS2_PLACEMENT_3D ( 'NONE', #52, #138, #156 ) ;
#94 = PRODUCT_DEFINITION_FORMATION_WITH_SPECIFIED_SOURCE ( 'Symmetric', '', #13, .NOT_KNOWN. ) ;
#95 = DIRECTION ( 'NONE',  ( 1.000000000000000000, 0.000000000000000000, 0.000000000000000000 ) ) ;
#96 = APPROVAL_ROLE ( '' ) ;
#97 = DIRECTION ( 'NONE',  ( 1.000000000000000000, 0.000000000000000000, 0.000000000000000000 ) ) ;
#98 = PERSON_AND_ORGANIZATION ( #18446744073709551615, #18446744073709551615 ) ;
#99 = EDGE_CURVE ( 'NONE', #171, #16, #3, .T. ) ;
#100 = FACE_OUTER_BOUND ( 'NONE', #324, .T. ) ;
#101 = SHAPE_DEFINITION_REPRESENTATION ( #270, #32 ) ;
#102 = LINE ( 'NONE', #178, #315 ) ;
#103 = CLOSED_SHELL ( 'NONE', ( #220, #267, #81, #14, #204, #64, #5, #39, #316, #272 ) ) ;
#104 = FACE_OUTER_BOUND ( 'NONE', #162, .T. ) ;
#105 =( GEOMETRIC_REPRESENTATION_CONTEXT ( 3 ) GLOBAL_UNCERTAINTY_ASSIGNED_CONTEXT ( ( #208 ) ) GLOBAL_UNIT_ASSIGNED_CONTEXT ( ( #259, #326, #308 ) ) REPRESENTATION_CONTEXT ( 'NONE', 'WORKASPACE' ) );
#106 = PERSON_AND_ORGANIZATION ( #18446744073709551615, #18446744073709551615 ) ;
#107 = EDGE_CURVE ( 'NONE', #195, #16, #186, .T. ) ;
#108 = CARTESIAN_POINT ( 'NONE',  ( -2.137500000000000178, -1.300000000000000044, 0.1354999999999999816 ) ) ;
#109 = PERSON_AND_ORGANIZATION_ROLE ( 'creator' ) ;
#110 = LINE ( 'NONE', #111, #297 ) ;
#111 = CARTESIAN_POINT ( 'NONE',  ( -2.112567102835000377, -1.275067102835000021, 0.6154582704240000313 ) ) ;
#112 = AXIS2_PLACEMENT_3D ( 'NONE', #18, #83, #4 ) ;
#113 = DIRECTION ( 'NONE',  ( 0.000000000000000000, -1.000000000000000000, 1.679670062884014950E-17 ) ) ;
#114 = DIRECTION ( 'NONE',  ( 0.000000000000000000, 0.000000000000000000, 1.000000000000000000 ) ) ;
#115 = VECTOR ( 'NONE', #212, 1000.000000000000000 ) ;
#116 = CC_DESIGN_DATE_AND_TIME_ASSIGNMENT ( #180, #284, ( #224 ) ) ;
#117 = VERTEX_POINT ( 'NONE', #185 ) ;
#118 = EDGE_LOOP ( 'NONE', ( #196, #144, #321, #295 ) ) ;
#119 = ORIENTED_EDGE ( 'NONE', *, *, #194, .F. ) ;
#120 = ORIENTED_EDGE ( 'NONE', *, *, #279, .T. ) ;
#121 = MECHANICAL_CONTEXT ( 'NONE', #176, 'mechanical' ) ;
#122 = PLANE ( 'NONE',  #74 ) ;
#123 = CARTESIAN_POINT ( 'NONE',  ( -2.137500000000000178, -1.300000000000000044, 0.002000000000000000042 ) ) ;
#124 = DIRECTION ( 'NONE',  ( 0.000000000000000000, 0.000000000000000000, 1.000000000000000000 ) ) ;
#125 = CALENDAR_DATE ( 2026, 22, 6 ) ;
#126 = ORIENTED_EDGE ( 'NONE', *, *, #279, .F. ) ;
#127 = EDGE_CURVE ( 'NONE', #16, #164, #80, .T. ) ;
#128 = DIRECTION ( 'NONE',  ( 0.000000000000000000, 1.000000000000000000, 0.000000000000000000 ) ) ;
#129 = VECTOR ( 'NONE', #56, 1000.000000000000114 ) ;
#130 = DIRECTION ( 'NONE',  ( -0.000000000000000000, 1.000000000000000000, 0.000000000000000000 ) ) ;
#131 = DIRECTION ( 'NONE',  ( 1.000000000000000000, 0.000000000000000000, 0.000000000000000000 ) ) ;
#132 = LINE ( 'NONE', #108, #331 ) ;
#133 = CARTESIAN_POINT ( 'NONE',  ( 2.112499999999999822, -1.300000000000000044, 0.6167500000000000204 ) ) ;
#134 = CARTESIAN_POINT ( 'NONE',  ( 2.137500000000000178, -1.300000000000000044, 0.002000000000000000042 ) ) ;
#135 = AXIS2_PLACEMENT_3D ( 'NONE', #149, #131, #172 ) ;
#136 = CC_DESIGN_APPROVAL ( #266, ( #73 ) ) ;
#137 = EDGE_CURVE ( 'NONE', #298, #75, #265, .T. ) ;
#138 = DIRECTION ( 'NONE',  ( 1.000000000000000000, 0.000000000000000000, 0.000000000000000000 ) ) ;
#139 = LOCAL_TIME ( 18, 49, 52.00000000000000000, #217 ) ;
#140 = EDGE_LOOP ( 'NONE', ( #38, #327, #307, #245 ) ) ;
#141 = ORIENTED_EDGE ( 'NONE', *, *, #107, .T. ) ;
#142 = EDGE_CURVE ( 'NONE', #226, #205, #291, .T. ) ;
#143 = AXIS2_PLACEMENT_3D ( 'NONE', #50, #130, #229 ) ;
#144 = ORIENTED_EDGE ( 'NONE', *, *, #194, .T. ) ;
#145 = LINE ( 'NONE', #78, #244 ) ;
#146 = ORIENTED_EDGE ( 'NONE', *, *, #137, .T. ) ;
#147 = APPROVAL_DATE_TIME ( #44, #237 ) ;
#148 = VECTOR ( 'NONE', #313, 1000.000000000000000 ) ;
#149 = CARTESIAN_POINT ( 'NONE',  ( -2.137500000000000178, -1.300000000000000044, 0.002000000000000000042 ) ) ;
#150 = CARTESIAN_POINT ( 'NONE',  ( -2.112499999999999822, -1.300000000000000044, 0.6167500000000000204 ) ) ;
#151 = PERSON_AND_ORGANIZATION_ROLE ( 'creator' ) ;
#152 = FACE_OUTER_BOUND ( 'NONE', #269, .T. ) ;
#153 = EDGE_CURVE ( 'NONE', #205, #298, #132, .T. ) ;
#154 = CARTESIAN_POINT ( 'NONE',  ( -2.137500000000000178, 1.300000000000000044, 0.1354999999999999816 ) ) ;
#155 = CARTESIAN_POINT ( 'NONE',  ( -2.137500000000000178, -1.300000000000000044, 0.002000000000000000042 ) ) ;
#156 = DIRECTION ( 'NONE',  ( 0.000000000000000000, 1.000000000000000000, 0.000000000000000000 ) ) ;
#157 = DIRECTION ( 'NONE',  ( 0.000000000000000000, 1.000000000000000000, 0.000000000000000000 ) ) ;
#158 = CARTESIAN_POINT ( 'NONE',  ( 2.106829810434000194, -1.269329810434000061, 0.7259011491360000123 ) ) ;
#159 = CARTESIAN_POINT ( 'NONE',  ( -2.137500000000000178, -1.300000000000000044, 0.1354999999999999816 ) ) ;
#160 = APPROVAL_STATUS ( 'not_yet_approved' ) ;
#161 = EDGE_CURVE ( 'NONE', #205, #171, #110, .T. ) ;
#162 = EDGE_LOOP ( 'NONE', ( #12, #119, #235, #120 ) ) ;
#163 = VECTOR ( 'NONE', #292, 1000.000000000000000 ) ;
#164 = VERTEX_POINT ( 'NONE', #262 ) ;
#165 = ORIENTED_EDGE ( 'NONE', *, *, #214, .T. ) ;
#166 = AXIS2_PLACEMENT_3D ( 'NONE', #280, #46, #177 ) ;
#167 = LOCAL_TIME ( 18, 49, 52.00000000000000000, #257 ) ;
#168 = ORIENTED_EDGE ( 'NONE', *, *, #8, .T. ) ;
#169 = CC_DESIGN_PERSON_AND_ORGANIZATION_ASSIGNMENT ( #106, #109, ( #94 ) ) ;
#170 = CARTESIAN_POINT ( 'NONE',  ( -2.137500000000000178, -1.300000000000000044, 0.002000000000000000042 ) ) ;
#171 = VERTEX_POINT ( 'NONE', #211 ) ;
#172 = DIRECTION ( 'NONE',  ( 0.000000000000000000, 1.000000000000000000, 0.000000000000000000 ) ) ;
#173 = ORIENTED_EDGE ( 'NONE', *, *, #54, .T. ) ;
#174 = VECTOR ( 'NONE', #181, 1000.000000000000000 ) ;
#175 = LOCAL_TIME ( 18, 49, 52.00000000000000000, #304 ) ;
#176 = APPLICATION_CONTEXT ( 'configuration controlled 3d designs of mechanical parts and assemblies' ) ;
#177 = DIRECTION ( 'NONE',  ( -1.000000000000000000, 0.000000000000000000, 0.000000000000000000 ) ) ;
#178 = CARTESIAN_POINT ( 'NONE',  ( 2.103340463009999883, 1.265840463009999972, 0.7930710870660000467 ) ) ;
#179 = CARTESIAN_POINT ( 'NONE',  ( -2.137500000000000178, 1.300000000000000044, 0.002000000000000000042 ) ) ;
#180 = DATE_AND_TIME ( #227, #15 ) ;
#181 = DIRECTION ( 'NONE',  ( 0.000000000000000000, 0.000000000000000000, 1.000000000000000000 ) ) ;
#182 = LINE ( 'NONE', #58, #193 ) ;
#183 = APPROVAL_STATUS ( 'not_yet_approved' ) ;
#184 = APPROVAL_PERSON_ORGANIZATION ( #49, #266, #96 ) ;
#185 = CARTESIAN_POINT ( 'NONE',  ( 2.137500000000000178, 1.300000000000000044, 0.1354999999999999816 ) ) ;
#186 = LINE ( 'NONE', #158, #129 ) ;
#187 = LINE ( 'NONE', #35, #241 ) ;
#188 = AXIS2_PLACEMENT_3D ( 'NONE', #28, #21, #329 ) ;
#189 = EDGE_CURVE ( 'NONE', #195, #117, #263, .T. ) ;
#190 = CC_DESIGN_APPROVAL ( #90, ( #224 ) ) ;
#191 = ORIENTED_EDGE ( 'NONE', *, *, #17, .T. ) ;
#192 = ORIENTED_EDGE ( 'NONE', *, *, #54, .F. ) ;
#193 = VECTOR ( 'NONE', #7, 1000.000000000000000 ) ;
#194 = EDGE_CURVE ( 'NONE', #91, #199, #182, .T. ) ;
#195 = VERTEX_POINT ( 'NONE', #213 ) ;
#196 = ORIENTED_EDGE ( 'NONE', *, *, #214, .F. ) ;
#197 = ORIENTED_EDGE ( 'NONE', *, *, #30, .F. ) ;
#198 = CC_DESIGN_PERSON_AND_ORGANIZATION_ASSIGNMENT ( #67, #79, ( #13 ) ) ;
#199 = VERTEX_POINT ( 'NONE', #31 ) ;
#200 = CALENDAR_DATE ( 2026, 22, 6 ) ;
#201 = LINE ( 'NONE', #179, #215 ) ;
#202 = PLANE ( 'NONE',  #26 ) ;
#203 = PLANE ( 'NONE',  #135 ) ;
#204 = ADVANCED_FACE ( 'NONE', ( #86 ), #289, .T. ) ;
#205 = VERTEX_POINT ( 'NONE', #159 ) ;
#206 = APPROVAL_ROLE ( '' ) ;
#207 = CARTESIAN_POINT ( 'NONE',  ( 2.137500000000000178, -1.300000000000000044, 0.1354999999999999816 ) ) ;
#208 = UNCERTAINTY_MEASURE_WITH_UNIT (LENGTH_MEASURE( 1.000000000000000082E-05 ), #259, 'distance_accuracy_value', 'NONE');
#209 = CALENDAR_DATE ( 2026, 22, 6 ) ;
#210 = APPROVAL_ROLE ( '' ) ;
#211 = CARTESIAN_POINT ( 'NONE',  ( -2.087499999999999911, -1.250000000000000000, 1.098000000000000087 ) ) ;
#212 = DIRECTION ( 'NONE',  ( 1.000000000000000000, 0.000000000000000000, 0.000000000000000000 ) ) ;
#213 = CARTESIAN_POINT ( 'NONE',  ( 2.137500000000000178, -1.300000000000000044, 0.1354999999999999816 ) ) ;
#214 = EDGE_CURVE ( 'NONE', #91, #195, #311, .T. ) ;
#215 = VECTOR ( 'NONE', #95, 1000.000000000000000 ) ;
#216 = APPROVAL_PERSON_ORGANIZATION ( #34, #237, #210 ) ;
#217 = COORDINATED_UNIVERSAL_TIME_OFFSET ( 10, 0, .AHEAD. ) ;
#218 = ORIENTED_EDGE ( 'NONE', *, *, #255, .F. ) ;
#219 = CC_DESIGN_DATE_AND_TIME_ASSIGNMENT ( #57, #240, ( #73 ) ) ;
#220 = ADVANCED_FACE ( 'NONE', ( #238 ), #29, .T. ) ;
#221 = ORIENTED_EDGE ( 'NONE', *, *, #127, .F. ) ;
#222 = CARTESIAN_POINT ( 'NONE',  ( -2.137500000000000178, -1.300000000000000044, 0.002000000000000000042 ) ) ;
#223 = VECTOR ( 'NONE', #48, 1000.000000000000000 ) ;
#224 = SECURITY_CLASSIFICATION ( '', '', #252 ) ;
#225 = FACE_OUTER_BOUND ( 'NONE', #273, .T. ) ;
#226 = VERTEX_POINT ( 'NONE', #243 ) ;
#227 = CALENDAR_DATE ( 2026, 22, 6 ) ;
#228 = LINE ( 'NONE', #1, #174 ) ;
#229 = DIRECTION ( 'NONE',  ( 1.000000000000000000, 0.000000000000000000, 0.000000000000000000 ) ) ;
#230 = PERSON_AND_ORGANIZATION ( #18446744073709551615, #18446744073709551615 ) ;
#231 = DIRECTION ( 'NONE',  ( 0.000000000000000000, 1.000000000000000000, 0.000000000000000000 ) ) ;
#232 = DIRECTION ( 'NONE',  ( 1.000000000000000000, 0.000000000000000000, 0.000000000000000000 ) ) ;
#233 = COORDINATED_UNIVERSAL_TIME_OFFSET ( 10, 0, .AHEAD. ) ;
#234 = PLANE ( 'NONE',  #188 ) ;
#235 = ORIENTED_EDGE ( 'NONE', *, *, #17, .F. ) ;
#236 = FACE_OUTER_BOUND ( 'NONE', #11, .T. ) ;
#237 = APPROVAL ( #160, 'Coincident' ) ;
#238 = FACE_OUTER_BOUND ( 'NONE', #41, .T. ) ;
#239 = CARTESIAN_POINT ( 'NONE',  ( 2.137500000000000178, -1.300000000000000044, 0.002000000000000000042 ) ) ;
#240 = DATE_TIME_ROLE ( 'creation_date' ) ;
#241 = VECTOR ( 'NONE', #114, 1000.000000000000000 ) ;
#242 = DIRECTION ( 'NONE',  ( 0.000000000000000000, 0.000000000000000000, 1.000000000000000000 ) ) ;
#243 = CARTESIAN_POINT ( 'NONE',  ( -2.137500000000000178, -1.300000000000000044, 0.002000000000000000042 ) ) ;
#244 = VECTOR ( 'NONE', #23, 1000.000000000000000 ) ;
#245 = ORIENTED_EDGE ( 'NONE', *, *, #161, .T. ) ;
#246 = VERTEX_POINT ( 'NONE', #314 ) ;
#247 = EDGE_CURVE ( 'NONE', #199, #117, #187, .T. ) ;
#248 = ORIENTED_EDGE ( 'NONE', *, *, #8, .F. ) ;
#249 = CARTESIAN_POINT ( 'NONE',  ( -2.087499999999999911, 1.250000000000000000, 1.098000000000000087 ) ) ;
#250 = DIRECTION ( 'NONE',  ( 1.000000000000000000, 0.000000000000000000, 0.000000000000000000 ) ) ;
#251 = PLANE ( 'NONE',  #166 ) ;
#252 = SECURITY_CLASSIFICATION_LEVEL ( 'unclassified' ) ;
#253 = PLANE ( 'NONE',  #268 ) ;
#254 = DIRECTION ( 'NONE',  ( 0.000000000000000000, -1.000000000000000000, 1.679670062884014950E-17 ) ) ;
#255 = EDGE_CURVE ( 'NONE', #117, #164, #102, .T. ) ;
#256 = DATE_AND_TIME ( #71, #290 ) ;
#257 = COORDINATED_UNIVERSAL_TIME_OFFSET ( 10, 0, .AHEAD. ) ;
#258 = FACE_OUTER_BOUND ( 'NONE', #140, .T. ) ;
#259 =( LENGTH_UNIT ( ) NAMED_UNIT ( * ) SI_UNIT ( .MILLI., .METRE. ) );
#260 = LINE ( 'NONE', #286, #294 ) ;
#261 = EDGE_CURVE ( 'NONE', #171, #75, #24, .T. ) ;
#262 = CARTESIAN_POINT ( 'NONE',  ( 2.087499999999999911, 1.250000000000000000, 1.098000000000000087 ) ) ;
#263 = LINE ( 'NONE', #207, #148 ) ;
#264 = CARTESIAN_POINT ( 'NONE',  ( -2.137500000000000178, -1.300000000000000044, 0.002000000000000000042 ) ) ;
#265 = LINE ( 'NONE', #293, #53 ) ;
#266 = APPROVAL ( #51, 'Coincident' ) ;
#267 = ADVANCED_FACE ( 'NONE', ( #69 ), #234, .T. ) ;
#268 = AXIS2_PLACEMENT_3D ( 'NONE', #170, #45, #276 ) ;
#269 = EDGE_LOOP ( 'NONE', ( #271, #70, #141, #60 ) ) ;
#270 = PRODUCT_DEFINITION_SHAPE ( 'NONE', 'NONE',  #73 ) ;
#271 = ORIENTED_EDGE ( 'NONE', *, *, #161, .F. ) ;
#272 = ADVANCED_FACE ( 'NONE', ( #225 ), #203, .F. ) ;
#273 = EDGE_LOOP ( 'NONE', ( #37, #63, #126, #88 ) ) ;
#274 = AXIS2_PLACEMENT_3D ( 'NONE', #306, #323, #250 ) ;
#275 = EDGE_LOOP ( 'NONE', ( #89, #197, #319, #168 ) ) ;
#276 = DIRECTION ( 'NONE',  ( 1.000000000000000000, 0.000000000000000000, 0.000000000000000000 ) ) ;
#277 = CARTESIAN_POINT ( 'NONE',  ( -2.137500000000000178, 1.250000000000000000, 1.098000000000000087 ) ) ;
#278 = LINE ( 'NONE', #123, #318 ) ;
#279 = EDGE_CURVE ( 'NONE', #226, #246, #278, .T. ) ;
#280 = CARTESIAN_POINT ( 'NONE',  ( -2.137500000000000178, -1.275000000000000133, 0.6167500000000000204 ) ) ;
#281 = VECTOR ( 'NONE', #128, 1000.000000000000000 ) ;
#282 = APPROVAL_DATE_TIME ( #72, #266 ) ;
#283 = ORIENTED_EDGE ( 'NONE', *, *, #107, .F. ) ;
#284 = DATE_TIME_ROLE ( 'classification_date' ) ;
#285 = APPLICATION_PROTOCOL_DEFINITION ( 'international standard', 'config_control_design', 1994, #176 ) ;
#286 = CARTESIAN_POINT ( 'NONE',  ( -2.137500000000000178, -1.300000000000000044, 0.1354999999999999816 ) ) ;
#287 = EDGE_CURVE ( 'NONE', #246, #298, #228, .T. ) ;
#288 = APPLICATION_PROTOCOL_DEFINITION ( 'international standard', 'config_control_design', 1994, #40 ) ;
#289 = PLANE ( 'NONE',  #93 ) ;
#290 = LOCAL_TIME ( 18, 49, 52.00000000000000000, #325 ) ;
#291 = LINE ( 'NONE', #264, #163 ) ;
#292 = DIRECTION ( 'NONE',  ( 0.000000000000000000, 0.000000000000000000, 1.000000000000000000 ) ) ;
#293 = CARTESIAN_POINT ( 'NONE',  ( -2.109077755409999977, 1.271577755410000066, 0.6826282083540000656 ) ) ;
#294 = VECTOR ( 'NONE', #232, 1000.000000000000000 ) ;
#295 = ORIENTED_EDGE ( 'NONE', *, *, #189, .F. ) ;
#296 = CC_DESIGN_PERSON_AND_ORGANIZATION_ASSIGNMENT ( #47, #151, ( #73 ) ) ;
#297 = VECTOR ( 'NONE', #33, 1000.000000000000114 ) ;
#298 = VERTEX_POINT ( 'NONE', #154 ) ;
#299 = ORIENTED_EDGE ( 'NONE', *, *, #99, .T. ) ;
#300 = ORIENTED_EDGE ( 'NONE', *, *, #142, .F. ) ;
#301 = PRODUCT_RELATED_PRODUCT_CATEGORY ( 'detail', '', ( #13 ) ) ;
#302 = LINE ( 'NONE', #155, #223 ) ;
#303 = DESIGN_CONTEXT ( 'detailed design', #40, 'design' ) ;
#304 = COORDINATED_UNIVERSAL_TIME_OFFSET ( 10, 0, .AHEAD. ) ;
#305 = LINE ( 'NONE', #277, #84 ) ;
#306 = CARTESIAN_POINT ( 'NONE',  ( 0.000000000000000000, 0.000000000000000000, 0.000000000000000000 ) ) ;
#307 = ORIENTED_EDGE ( 'NONE', *, *, #153, .F. ) ;
#308 =( NAMED_UNIT ( * ) SI_UNIT ( $, .STERADIAN. ) SOLID_ANGLE_UNIT ( ) );
#309 = CARTESIAN_POINT ( 'NONE',  ( -2.137500000000000178, -1.250000000000000000, 1.098000000000000087 ) ) ;
#310 = PERSON_AND_ORGANIZATION ( #18446744073709551615, #18446744073709551615 ) ;
#311 = LINE ( 'NONE', #134, #65 ) ;
#312 = VECTOR ( 'NONE', #85, 1000.000000000000000 ) ;
#313 = DIRECTION ( 'NONE',  ( 0.000000000000000000, 1.000000000000000000, 0.000000000000000000 ) ) ;
#314 = CARTESIAN_POINT ( 'NONE',  ( -2.137500000000000178, 1.300000000000000044, 0.002000000000000000042 ) ) ;
#315 = VECTOR ( 'NONE', #77, 1000.000000000000114 ) ;
#316 = ADVANCED_FACE ( 'NONE', ( #236 ), #253, .F. ) ;
#317 = ORIENTED_EDGE ( 'NONE', *, *, #261, .F. ) ;
#318 = VECTOR ( 'NONE', #231, 1000.000000000000000 ) ;
#319 = ORIENTED_EDGE ( 'NONE', *, *, #287, .T. ) ;
#320 = ORIENTED_EDGE ( 'NONE', *, *, #127, .T. ) ;
#321 = ORIENTED_EDGE ( 'NONE', *, *, #247, .T. ) ;
#322 = CC_DESIGN_PERSON_AND_ORGANIZATION_ASSIGNMENT ( #98, #20, ( #224 ) ) ;
#323 = DIRECTION ( 'NONE',  ( 0.000000000000000000, 0.000000000000000000, 1.000000000000000000 ) ) ;
#324 = EDGE_LOOP ( 'NONE', ( #317, #299, #320, #192 ) ) ;
#325 = COORDINATED_UNIVERSAL_TIME_OFFSET ( 10, 0, .AHEAD. ) ;
#326 =( NAMED_UNIT ( * ) PLANE_ANGLE_UNIT ( ) SI_UNIT ( $, .RADIAN. ) );
#327 = ORIENTED_EDGE ( 'NONE', *, *, #137, .F. ) ;
#328 = APPROVAL_DATE_TIME ( #256, #90 ) ;
#329 = DIRECTION ( 'NONE',  ( 1.000000000000000000, 0.000000000000000000, 0.000000000000000000 ) ) ;
#330 = FACE_OUTER_BOUND ( 'NONE', #275, .T. ) ;
#331 = VECTOR ( 'NONE', #157, 1000.000000000000000 ) ;
ENDSEC;
END-ISO-10303-21;
