ISO-10303-21;
HEADER;
FILE_DESCRIPTION (( 'STEP AP203' ),
    '1' );
FILE_NAME ('C1.step.STEP',
    '2026-06-22T08:50:00',
    ( 'localuser' ),
    ( '' ),
    'SwSTEP 2.0',
    'SolidWorks 2025',
    '' );
FILE_SCHEMA (( 'CONFIG_CONTROL_DESIGN' ));
ENDSEC;

DATA;
#1 = CONTEXT_DEPENDENT_SHAPE_REPRESENTATION ( #337, #195 ) ;
#2 = DIRECTION ( 'NONE',  ( 1.000000000000000222, -1.092455418989176591E-28, 4.890937612370273194E-29 ) ) ;
#3 = APPROVAL_ROLE ( '' ) ;
#4 = DATE_AND_TIME ( #152, #53 ) ;
#5 = SECURITY_CLASSIFICATION ( '', '', #24 ) ;
#6 = COORDINATED_UNIVERSAL_TIME_OFFSET ( 10, 0, .AHEAD. ) ;
#7 = APPROVAL ( #73, 'Coincident' ) ;
#8 = DATE_AND_TIME ( #220, #38 ) ;
#9 = DESIGN_CONTEXT ( 'detailed design', #179, 'design' ) ;
#10 = DATE_AND_TIME ( #214, #205 ) ;
#11 = AXIS2_PLACEMENT_3D ( 'NONE', #177, #321, #359 ) ;
#12 = LOCAL_TIME ( 18, 50, 0.000000000000000000, #164 ) ;
#13 = APPLICATION_PROTOCOL_DEFINITION ( 'international standard', 'config_control_design', 1994, #238 ) ;
#14 = COORDINATED_UNIVERSAL_TIME_OFFSET ( 10, 0, .AHEAD. ) ;
#15 = PERSON_AND_ORGANIZATION ( #18446744073709551615, #18446744073709551615 ) ;
#16 = SECURITY_CLASSIFICATION_LEVEL ( 'unclassified' ) ;
#17 = PROPERTY_DEFINITION ('external definition','', #327 ) ;
#18 = IDENTIFICATION_ROLE ( 'external document id and location', $) ;
#19 = APPROVAL ( #182, 'Coincident' ) ;
#20 = PERSON_AND_ORGANIZATION ( #18446744073709551615, #18446744073709551615 ) ;
#21 = CALENDAR_DATE ( 2026, 22, 6 ) ;
#22 = CALENDAR_DATE ( 2026, 22, 6 ) ;
#23 = CC_DESIGN_APPROVAL ( #7, ( #215 ) ) ;
#24 = SECURITY_CLASSIFICATION_LEVEL ( 'unclassified' ) ;
#25 = PRODUCT_DEFINITION ( 'General', '', #310, #9 ) ;
#26 = CC_DESIGN_PERSON_AND_ORGANIZATION_ASSIGNMENT ( #103, #364, ( #30 ) ) ;
#27 = ROLE_ASSOCIATION ( #61, #178 ) ;
#28 = APPROVAL_STATUS ( 'not_yet_approved' ) ;
#29 = DIRECTION ( 'NONE',  ( 4.890937612370273194E-29, -3.155443620884047222E-30, 0.9999999999999997780 ) ) ;
#30 = SECURITY_CLASSIFICATION ( '', '', #221 ) ;
#31 = CC_DESIGN_SECURITY_CLASSIFICATION ( #5, ( #388 ) ) ;
#32 = CC_DESIGN_SECURITY_CLASSIFICATION ( #114, ( #389 ) ) ;
#33 = SHAPE_DEFINITION_REPRESENTATION ( #111, #95 ) ;
#34 =( NAMED_UNIT ( * ) PLANE_ANGLE_UNIT ( ) SI_UNIT ( $, .RADIAN. ) );
#35 = PRODUCT_RELATED_PRODUCT_CATEGORY ( 'detail', '', ( #165 ) ) ;
#36 = APPROVAL ( #329, 'UNKNOWN' ) ;
#37 = DATE_AND_TIME ( #367, #166 ) ;
#38 = LOCAL_TIME ( 18, 50, 0.000000000000000000, #252 ) ;
#39 = PERSON_AND_ORGANIZATION_ROLE ( 'creator' ) ;
#40 = DOCUMENT_TYPE ( 'geometry' ) ;
#41 = APPROVAL_STATUS ( 'not_yet_approved' ) ;
#42 = PROPERTY_DEFINITION_REPRESENTATION ( #48, #143 ) ;
#43 = APPROVAL_STATUS ( 'not_yet_approved' ) ;
#44 = CC_DESIGN_SECURITY_CLASSIFICATION ( #30, ( #149 ) ) ;
#45 = PERSON_AND_ORGANIZATION_ROLE ( 'design_owner' ) ;
#46 = CC_DESIGN_PERSON_AND_ORGANIZATION_ASSIGNMENT ( #356, #213, ( #51 ) ) ;
#47 = PERSON_AND_ORGANIZATION ( #18446744073709551615, #18446744073709551615 ) ;
#48 = PROPERTY_DEFINITION ('external definition','', #121 ) ;
#49 = SECURITY_CLASSIFICATION_LEVEL ( 'unclassified' ) ;
#50 = APPROVAL ( #288, 'Coincident' ) ;
#51 = PRODUCT ( 'C1.step', 'C1.step', '', ( #210 ) ) ;
#52 = COORDINATED_UNIVERSAL_TIME_OFFSET ( 10, 0, .AHEAD. ) ;
#53 = LOCAL_TIME ( 18, 50, 0.000000000000000000, #6 ) ;
#54 = DATE_TIME_ROLE ( 'creation_date' ) ;
#55 = PERSON_AND_ORGANIZATION_ROLE ( 'classification_officer' ) ;
#56 =( NAMED_UNIT ( * ) PLANE_ANGLE_UNIT ( ) SI_UNIT ( $, .RADIAN. ) );
#57 = LOCAL_TIME ( 18, 50, 0.000000000000000000, #209 ) ;
#58 = CALENDAR_DATE ( 2026, 22, 6 ) ;
#59 = DIRECTION ( 'NONE',  ( 0.000000000000000000, 0.000000000000000000, 1.000000000000000000 ) ) ;
#60 = ITEM_DEFINED_TRANSFORMATION ( 'NONE', 'NONE', #173,  #131 ) ;
#61 = OBJECT_ROLE ('mandatory',$ ) ;
#62 = DIRECTION ( 'NONE',  ( 4.890937612370273194E-29, -3.155443620884047222E-30, 0.9999999999999997780 ) ) ;
#63 = APPROVAL_STATUS ( 'not_yet_approved' ) ;
#64 = DIRECTION ( 'NONE',  ( 1.000000000000000222, -1.092455418989176591E-28, 4.890937612370273194E-29 ) ) ;
#65 =( GEOMETRIC_REPRESENTATION_CONTEXT ( 3 ) GLOBAL_UNCERTAINTY_ASSIGNED_CONTEXT ( ( #244 ) ) GLOBAL_UNIT_ASSIGNED_CONTEXT ( ( #268, #56, #325 ) ) REPRESENTATION_CONTEXT ( 'NONE', 'WORKASPACE' ) );
#66 = ORGANIZATION ( 'NAUO-ORG289', 'UNSPECIFIED', 'UNSPECIFIED' ) ;
#67 = APPROVAL_ROLE ( '' ) ;
#68 = CC_DESIGN_DATE_AND_TIME_ASSIGNMENT ( #358, #293, ( #114 ) ) ;
#69 = APPLICATION_PROTOCOL_DEFINITION ( 'international standard', 'config_control_design', 1994, #317 ) ;
#70 = CC_DESIGN_DATE_AND_TIME_ASSIGNMENT ( #269, #148, ( #5 ) ) ;
#71 = LOCAL_TIME ( 18, 50, 0.000000000000000000, #233 ) ;
#72 = MECHANICAL_CONTEXT ( 'NONE', #317, 'mechanical' ) ;
#73 = APPROVAL_STATUS ( 'not_yet_approved' ) ;
#74 = PERSON_AND_ORGANIZATION ( #18446744073709551615, #18446744073709551615 ) ;
#75 = SECURITY_CLASSIFICATION ( '', '', #16 ) ;
#76 = PERSON_AND_ORGANIZATION ( #18446744073709551615, #18446744073709551615 ) ;
#77 = DATE_TIME_ROLE ( 'creation_date' ) ;
#78 = CC_DESIGN_PERSON_AND_ORGANIZATION_ASSIGNMENT ( #305, #39, ( #149 ) ) ;
#79 = PRODUCT_DEFINITION_SHAPE ( 'NONE', 'NONE',  #389 ) ;
#80 = DATE_TIME_ROLE ( 'classification_date' ) ;
#81 = IDENTIFICATION_ROLE ( 'external document id and location', $) ;
#82 = APPROVAL_ROLE ( '' ) ;
#83 = APPLIED_EXTERNAL_IDENTIFICATION_ASSIGNMENT ( '6461083056.step.STEP' , #158, #140,( #121) ) ;
#84 = CALENDAR_DATE ( 2026, 22, 6 ) ;
#85 = ITEM_DEFINED_TRANSFORMATION ( 'NONE', 'NONE', #93,  #131 ) ;
#86 = CARTESIAN_POINT ( 'NONE',  ( 0.000000000000000000, 0.000000000000000000, 0.000000000000000000 ) ) ;
#87 = APPROVAL_PERSON_ORGANIZATION ( #74, #7, #157 ) ;
#88 = CARTESIAN_POINT ( 'NONE',  ( 0.000000000000000000, 0.000000000000000000, 0.000000000000000000 ) ) ;
#89 = APPROVAL_PERSON_ORGANIZATION ( #320, #204, #146 ) ;
#90 = COORDINATED_UNIVERSAL_TIME_OFFSET ( 10, 0, .AHEAD. ) ;
#91 = COORDINATED_UNIVERSAL_TIME_OFFSET ( 10, 0, .AHEAD. ) ;
#92 = APPLIED_DOCUMENT_REFERENCE ( #327,'',( #25) ) ;
#93 = AXIS2_PLACEMENT_3D ( 'NONE', #271, #29, #2 ) ;
#94 = LOCAL_TIME ( 18, 50, 0.000000000000000000, #110 ) ;
#95 = SHAPE_REPRESENTATION ( '6461082896.step', ( #131 ), #107 ) ;
#96 = PROPERTY_DEFINITION_REPRESENTATION ( #348, #143 ) ;
#97 = APPROVAL ( #112, 'Coincident' ) ;
#98 = CC_DESIGN_PERSON_AND_ORGANIZATION_ASSIGNMENT ( #190, #366, ( #149 ) ) ;
#99 = PERSON_AND_ORGANIZATION ( #18446744073709551615, #18446744073709551615 ) ;
#100 = PERSON ( 'NAUO-PER288', 'UNSPECIFIED', 'UNSPECIFIED', ('UNSPECIFIED'), ('UNSPECIFIED'), ('UNSPECIFIED') ) ;
#101 = APPROVAL_ROLE ( '' ) ;
#102 = EXTERNAL_SOURCE (IDENTIFIER('') ) ;
#103 = PERSON_AND_ORGANIZATION ( #18446744073709551615, #18446744073709551615 ) ;
#104 = APPROVAL_DATE_TIME ( #307, #7 ) ;
#105 = APPROVAL ( #28, 'Coincident' ) ;
#106 = APPROVAL_ROLE ( '' ) ;
#107 =( GEOMETRIC_REPRESENTATION_CONTEXT ( 3 ) GLOBAL_UNCERTAINTY_ASSIGNED_CONTEXT ( ( #147 ) ) GLOBAL_UNIT_ASSIGNED_CONTEXT ( ( #328, #300, #181 ) ) REPRESENTATION_CONTEXT ( 'NONE', 'WORKASPACE' ) );
#108 = DATE_AND_TIME ( #379, #145 ) ;
#109 = CC_DESIGN_PERSON_AND_ORGANIZATION_ASSIGNMENT ( #260, #378, ( #25 ) ) ;
#110 = COORDINATED_UNIVERSAL_TIME_OFFSET ( 10, 0, .AHEAD. ) ;
#111 = PRODUCT_DEFINITION_SHAPE ( 'NONE', 'NONE',  #25 ) ;
#112 = APPROVAL_STATUS ( 'not_yet_approved' ) ;
#113 = DATE_AND_TIME ( #84, #341 ) ;
#114 = SECURITY_CLASSIFICATION ( '', '', #206 ) ;
#115 = PERSON_AND_ORGANIZATION ( #100, #350 ) ;
#116 = DATE_AND_TIME ( #290, #160 ) ;
#117 = DATE_AND_TIME ( #354, #127 ) ;
#118 = CC_DESIGN_DATE_AND_TIME_ASSIGNMENT ( #4, #77, ( #215 ) ) ;
#119 =( REPRESENTATION_RELATIONSHIP ('NONE','NONE', #383, #143 ) REPRESENTATION_RELATIONSHIP_WITH_TRANSFORMATION ( #294 )SHAPE_REPRESENTATION_RELATIONSHIP( ) );
#120 = CC_DESIGN_PERSON_AND_ORGANIZATION_ASSIGNMENT ( #289, #142, ( #310 ) ) ;
#121 = DOCUMENT_FILE ( '6461083056.step.STEP' , '', '', #199, '' ,$ ) ;
#122 = DIRECTION ( 'NONE',  ( 1.000000000000000000, 0.000000000000000000, 0.000000000000000000 ) ) ;
#123 = APPROVAL_DATE_TIME ( #117, #105 ) ;
#124 = DESIGN_CONTEXT ( 'detailed design', #261, 'design' ) ;
#125 = PERSON_AND_ORGANIZATION ( #18446744073709551615, #18446744073709551615 ) ;
#126 =( GEOMETRIC_REPRESENTATION_CONTEXT ( 3 ) GLOBAL_UNCERTAINTY_ASSIGNED_CONTEXT ( ( #169 ) ) GLOBAL_UNIT_ASSIGNED_CONTEXT ( ( #299, #34, #234 ) ) REPRESENTATION_CONTEXT ( 'NONE', 'WORKASPACE' ) );
#127 = LOCAL_TIME ( 18, 50, 0.000000000000000000, #144 ) ;
#128 = DATE_TIME_ROLE ( 'creation_date' ) ;
#129 = DATE_TIME_ROLE ( 'classification_date' ) ;
#130 = APPROVAL_DATE_TIME ( #183, #194 ) ;
#131 = AXIS2_PLACEMENT_3D ( 'NONE', #88, #59, #122 ) ;
#132 = CC_DESIGN_SECURITY_CLASSIFICATION ( #75, ( #242 ) ) ;
#133 = CONTEXT_DEPENDENT_SHAPE_REPRESENTATION ( #119, #314 ) ;
#134 = COORDINATED_UNIVERSAL_TIME_OFFSET ( 10, 0, .AHEAD. ) ;
#135 = PERSON_AND_ORGANIZATION ( #18446744073709551615, #18446744073709551615 ) ;
#136 = PERSON_AND_ORGANIZATION ( #18446744073709551615, #18446744073709551615 ) ;
#137 = CC_DESIGN_SECURITY_CLASSIFICATION ( #323, ( #390 ) ) ;
#138 = APPROVAL ( #63, 'UNKNOWN' ) ;
#139 = SHAPE_DEFINITION_REPRESENTATION ( #345, #143 ) ;
#140 = EXTERNAL_SOURCE (IDENTIFIER('') ) ;
#141 = PERSON_AND_ORGANIZATION_ROLE ( 'creator' ) ;
#142 = PERSON_AND_ORGANIZATION_ROLE ( 'creator' ) ;
#143 = SHAPE_REPRESENTATION ( '6461083056.step', ( #11 ), #65 ) ;
#144 = COORDINATED_UNIVERSAL_TIME_OFFSET ( 10, 0, .AHEAD. ) ;
#145 = LOCAL_TIME ( 18, 50, 0.000000000000000000, #14 ) ;
#146 = APPROVAL_ROLE ( '' ) ;
#147 = UNCERTAINTY_MEASURE_WITH_UNIT (LENGTH_MEASURE( 1.000000000000000082E-05 ), #328, 'distance_accuracy_value', 'NONE');
#148 = DATE_TIME_ROLE ( 'classification_date' ) ;
#149 = PRODUCT_DEFINITION_FORMATION_WITH_SPECIFIED_SOURCE ( 'Symmetric', '', #51, .NOT_KNOWN. ) ;
#150 = CC_DESIGN_APPROVAL ( #138, ( #5 ) ) ;
#151 = PROPERTY_DEFINITION_REPRESENTATION ( #246, #95 ) ;
#152 = CALENDAR_DATE ( 2026, 22, 6 ) ;
#153 = PERSON_AND_ORGANIZATION_ROLE ( 'design_owner' ) ;
#154 = APPROVAL_PERSON_ORGANIZATION ( #338, #19, #67 ) ;
#155 = APPROVAL_PERSON_ORGANIZATION ( #197, #253, #258 ) ;
#156 = DATE_AND_TIME ( #332, #192 ) ;
#157 = APPROVAL_ROLE ( '' ) ;
#158 = IDENTIFICATION_ROLE ( 'external document id and location', $) ;
#159 = COORDINATED_UNIVERSAL_TIME_OFFSET ( 10, 0, .AHEAD. ) ;
#160 = LOCAL_TIME ( 18, 50, 0.000000000000000000, #235 ) ;
#161 = PERSON_AND_ORGANIZATION ( #18446744073709551615, #18446744073709551615 ) ;
#162 = DATE_AND_TIME ( #351, #12 ) ;
#163 = CC_DESIGN_DATE_AND_TIME_ASSIGNMENT ( #37, #128, ( #355 ) ) ;
#164 = COORDINATED_UNIVERSAL_TIME_OFFSET ( 10, 0, .AHEAD. ) ;
#165 = PRODUCT ( '6461082896.step', '6461082896.step', '', ( #377 ) ) ;
#166 = LOCAL_TIME ( 18, 50, 0.000000000000000000, #373 ) ;
#167 = APPROVAL_PERSON_ORGANIZATION ( #161, #50, #193 ) ;
#168 = CALENDAR_DATE ( 2026, 22, 6 ) ;
#169 = UNCERTAINTY_MEASURE_WITH_UNIT (LENGTH_MEASURE( 1.000000000000000082E-05 ), #299, 'distance_accuracy_value', 'NONE');
#170 = CALENDAR_DATE ( 2026, 22, 6 ) ;
#171 = CC_DESIGN_PERSON_AND_ORGANIZATION_ASSIGNMENT ( #136, #262, ( #257 ) ) ;
#172 = APPROVAL_DATE_TIME ( #381, #138 ) ;
#173 = AXIS2_PLACEMENT_3D ( 'NONE', #362, #62, #64 ) ;
#174 = CC_DESIGN_SECURITY_CLASSIFICATION ( #257, ( #310 ) ) ;
#175 = DATE_AND_TIME ( #58, #71 ) ;
#176 = CONTEXT_DEPENDENT_SHAPE_REPRESENTATION ( #281, #79 ) ;
#177 = CARTESIAN_POINT ( 'NONE',  ( 0.000000000000000000, 0.000000000000000000, 0.000000000000000000 ) ) ;
#178 = APPLIED_DOCUMENT_REFERENCE ( #336,'',( #25) ) ;
#179 = APPLICATION_CONTEXT ( 'configuration controlled 3d designs of mechanical parts and assemblies' ) ;
#180 = PERSON_AND_ORGANIZATION_ROLE ( 'classification_officer' ) ;
#181 =( NAMED_UNIT ( * ) SI_UNIT ( $, .STERADIAN. ) SOLID_ANGLE_UNIT ( ) );
#182 = APPROVAL_STATUS ( 'not_yet_approved' ) ;
#183 = DATE_AND_TIME ( #331, #340 ) ;
#184 = CC_DESIGN_APPROVAL ( #204, ( #114 ) ) ;
#185 = CC_DESIGN_PERSON_AND_ORGANIZATION_ASSIGNMENT ( #243, #273, ( #215 ) ) ;
#186 = APPLIED_DOCUMENT_REFERENCE ( #121,'',( #215) ) ;
#187 = APPROVAL ( #349, 'Coincident' ) ;
#188 = CC_DESIGN_PERSON_AND_ORGANIZATION_ASSIGNMENT ( #284, #339, ( #242 ) ) ;
#189 = COORDINATED_UNIVERSAL_TIME_OFFSET ( 10, 0, .AHEAD. ) ;
#190 = PERSON_AND_ORGANIZATION ( #18446744073709551615, #18446744073709551615 ) ;
#191 = APPROVAL_ROLE ( '' ) ;
#192 = LOCAL_TIME ( 18, 50, 0.000000000000000000, #303 ) ;
#193 = APPROVAL_ROLE ( '' ) ;
#194 = APPROVAL ( #41, 'Coincident' ) ;
#195 = PRODUCT_DEFINITION_SHAPE ( 'NONE', 'NONE',  #388 ) ;
#196 = CALENDAR_DATE ( 2026, 22, 6 ) ;
#197 = PERSON_AND_ORGANIZATION ( #18446744073709551615, #18446744073709551615 ) ;
#198 = CC_DESIGN_APPROVAL ( #19, ( #149 ) ) ;
#199 = DOCUMENT_TYPE ( 'geometry' ) ;
#200 = APPLIED_EXTERNAL_IDENTIFICATION_ASSIGNMENT ( '6461082896.step.STEP' , #81, #360,( #327) ) ;
#201 = COORDINATED_UNIVERSAL_TIME_OFFSET ( 10, 0, .AHEAD. ) ;
#202 = COORDINATED_UNIVERSAL_TIME_OFFSET ( 10, 0, .AHEAD. ) ;
#203 = CALENDAR_DATE ( 2026, 22, 6 ) ;
#204 = APPROVAL ( #298, 'UNKNOWN' ) ;
#205 = LOCAL_TIME ( 18, 50, 0.000000000000000000, #134 ) ;
#206 = SECURITY_CLASSIFICATION_LEVEL ( 'unclassified' ) ;
#207 = APPLIED_EXTERNAL_IDENTIFICATION_ASSIGNMENT ( '6461082896.step.STEP' , #18, #102,( #336) ) ;
#208 = CC_DESIGN_PERSON_AND_ORGANIZATION_ASSIGNMENT ( #306, #153, ( #256 ) ) ;
#209 = COORDINATED_UNIVERSAL_TIME_OFFSET ( 10, 0, .AHEAD. ) ;
#210 = MECHANICAL_CONTEXT ( 'NONE', #219, 'mechanical' ) ;
#211 = CC_DESIGN_APPROVAL ( #344, ( #30 ) ) ;
#212 = CARTESIAN_POINT ( 'NONE',  ( 11.19999795529300357, 21.44999340820300660, -2.058321952820000078 ) ) ;
#213 = PERSON_AND_ORGANIZATION_ROLE ( 'design_owner' ) ;
#214 = CALENDAR_DATE ( 2026, 22, 6 ) ;
#215 = PRODUCT_DEFINITION ( 'General', '', #242, #124 ) ;
#216 = DIRECTION ( 'NONE',  ( 0.000000000000000000, 0.000000000000000000, 1.000000000000000000 ) ) ;
#217 = AXIS2_PLACEMENT_3D ( 'NONE', #212, #385, #239 ) ;
#218 = CC_DESIGN_APPROVAL ( #50, ( #242 ) ) ;
#219 = APPLICATION_CONTEXT ( 'configuration controlled 3d designs of mechanical parts and assemblies' ) ;
#220 = CALENDAR_DATE ( 2026, 22, 6 ) ;
#221 = SECURITY_CLASSIFICATION_LEVEL ( 'unclassified' ) ;
#222 = DATE_AND_TIME ( #196, #94 ) ;
#223 = LOCAL_TIME ( 18, 50, 0.000000000000000000, #91 ) ;
#224 = APPLICATION_PROTOCOL_DEFINITION ( 'international standard', 'config_control_design', 1994, #296 ) ;
#225 = PRODUCT_DEFINITION_SHAPE ( 'NONE', 'NONE',  #355 ) ;
#226 = APPLICATION_PROTOCOL_DEFINITION ( 'international standard', 'config_control_design', 1994, #179 ) ;
#227 = DATE_AND_TIME ( #168, #236 ) ;
#228 = CC_DESIGN_APPROVAL ( #105, ( #257 ) ) ;
#229 = DATE_AND_TIME ( #21, #263 ) ;
#230 = APPROVAL_ROLE ( '' ) ;
#231 = CC_DESIGN_PERSON_AND_ORGANIZATION_ASSIGNMENT ( #254, #45, ( #165 ) ) ;
#232 = CC_DESIGN_PERSON_AND_ORGANIZATION_ASSIGNMENT ( #125, #249, ( #355 ) ) ;
#233 = COORDINATED_UNIVERSAL_TIME_OFFSET ( 10, 0, .AHEAD. ) ;
#234 =( NAMED_UNIT ( * ) SI_UNIT ( $, .STERADIAN. ) SOLID_ANGLE_UNIT ( ) );
#235 = COORDINATED_UNIVERSAL_TIME_OFFSET ( 10, 0, .AHEAD. ) ;
#236 = LOCAL_TIME ( 18, 50, 0.000000000000000000, #52 ) ;
#237 = PROPERTY_DEFINITION_REPRESENTATION ( #17, #95 ) ;
#238 = APPLICATION_CONTEXT ( 'configuration controlled 3d designs of mechanical parts and assemblies' ) ;
#239 = DIRECTION ( 'NONE',  ( 1.000000000000000222, -1.092455418989176591E-28, 4.890937612370273194E-29 ) ) ;
#240 = APPROVAL_DATE_TIME ( #272, #204 ) ;
#241 = CC_DESIGN_DATE_AND_TIME_ASSIGNMENT ( #162, #285, ( #257 ) ) ;
#242 = PRODUCT_DEFINITION_FORMATION_WITH_SPECIFIED_SOURCE ( 'Symmetric', '', #256, .NOT_KNOWN. ) ;
#243 = PERSON_AND_ORGANIZATION ( #18446744073709551615, #18446744073709551615 ) ;
#244 = UNCERTAINTY_MEASURE_WITH_UNIT (LENGTH_MEASURE( 1.000000000000000082E-05 ), #268, 'distance_accuracy_value', 'NONE');
#245 = APPROVAL_DATE_TIME ( #10, #19 ) ;
#246 = PROPERTY_DEFINITION ('external definition','', #336 ) ;
#247 = DIRECTION ( 'NONE',  ( 1.000000000000000000, 0.000000000000000000, 0.000000000000000000 ) ) ;
#248 = ROLE_ASSOCIATION ( #291, #186 ) ;
#249 = PERSON_AND_ORGANIZATION_ROLE ( 'creator' ) ;
#250 = AXIS2_PLACEMENT_3D ( 'NONE', #86, #216, #247 ) ;
#251 = CC_DESIGN_APPROVAL ( #36, ( #323 ) ) ;
#252 = COORDINATED_UNIVERSAL_TIME_OFFSET ( 10, 0, .AHEAD. ) ;
#253 = APPROVAL ( #374, 'Coincident' ) ;
#254 = PERSON_AND_ORGANIZATION ( #18446744073709551615, #18446744073709551615 ) ;
#255 = COORDINATED_UNIVERSAL_TIME_OFFSET ( 10, 0, .AHEAD. ) ;
#256 = PRODUCT ( '6461083056.step', '6461083056.step', '', ( #72 ) ) ;
#257 = SECURITY_CLASSIFICATION ( '', '', #49 ) ;
#258 = APPROVAL_ROLE ( '' ) ;
#259 = CC_DESIGN_DATE_AND_TIME_ASSIGNMENT ( #227, #54, ( #25 ) ) ;
#260 = PERSON_AND_ORGANIZATION ( #18446744073709551615, #18446744073709551615 ) ;
#261 = APPLICATION_CONTEXT ( 'configuration controlled 3d designs of mechanical parts and assemblies' ) ;
#262 = PERSON_AND_ORGANIZATION_ROLE ( 'classification_officer' ) ;
#263 = LOCAL_TIME ( 18, 50, 0.000000000000000000, #202 ) ;
#264 = COORDINATED_UNIVERSAL_TIME_OFFSET ( 10, 0, .AHEAD. ) ;
#265 = CALENDAR_DATE ( 2026, 22, 6 ) ;
#266 = APPLICATION_PROTOCOL_DEFINITION ( 'international standard', 'config_control_design', 1994, #219 ) ;
#267 = APPROVAL_DATE_TIME ( #175, #36 ) ;
#268 =( LENGTH_UNIT ( ) NAMED_UNIT ( * ) SI_UNIT ( .MILLI., .METRE. ) );
#269 = DATE_AND_TIME ( #22, #223 ) ;
#270 = LOCAL_TIME ( 18, 50, 0.000000000000000000, #201 ) ;
#271 = CARTESIAN_POINT ( 'NONE',  ( 11.69999795529300535, 21.44999340820300660, -2.058321952819998302 ) ) ;
#272 = DATE_AND_TIME ( #203, #276 ) ;
#273 = PERSON_AND_ORGANIZATION_ROLE ( 'creator' ) ;
#274 = CC_DESIGN_PERSON_AND_ORGANIZATION_ASSIGNMENT ( #115, #55, ( #5 ) ) ;
#275 = PERSON ( 'NAUO-PER289', 'UNSPECIFIED', 'UNSPECIFIED', ('UNSPECIFIED'), ('UNSPECIFIED'), ('UNSPECIFIED') ) ;
#276 = LOCAL_TIME ( 18, 50, 0.000000000000000000, #90 ) ;
#277 = CALENDAR_DATE ( 2026, 22, 6 ) ;
#278 = PRODUCT_RELATED_PRODUCT_CATEGORY ( 'detail', '', ( #51 ) ) ;
#279 = DATE_TIME_ROLE ( 'classification_date' ) ;
#280 = APPLICATION_PROTOCOL_DEFINITION ( 'international standard', 'config_control_design', 1994, #261 ) ;
#281 =( REPRESENTATION_RELATIONSHIP ('NONE','NONE', #383, #95 ) REPRESENTATION_RELATIONSHIP_WITH_TRANSFORMATION ( #85 )SHAPE_REPRESENTATION_RELATIONSHIP( ) );
#282 = APPROVAL_DATE_TIME ( #8, #344 ) ;
#283 = ORGANIZATION ( 'NAUO-ORG290', 'UNSPECIFIED', 'UNSPECIFIED' ) ;
#284 = PERSON_AND_ORGANIZATION ( #18446744073709551615, #18446744073709551615 ) ;
#285 = DATE_TIME_ROLE ( 'classification_date' ) ;
#286 = CC_DESIGN_DATE_AND_TIME_ASSIGNMENT ( #156, #279, ( #30 ) ) ;
#287 = PERSON_AND_ORGANIZATION ( #18446744073709551615, #18446744073709551615 ) ;
#288 = APPROVAL_STATUS ( 'not_yet_approved' ) ;
#289 = PERSON_AND_ORGANIZATION ( #18446744073709551615, #18446744073709551615 ) ;
#290 = CALENDAR_DATE ( 2026, 22, 6 ) ;
#291 = OBJECT_ROLE ('mandatory',$ ) ;
#292 = APPROVAL_PERSON_ORGANIZATION ( #76, #187, #82 ) ;
#293 = DATE_TIME_ROLE ( 'classification_date' ) ;
#294 = ITEM_DEFINED_TRANSFORMATION ( 'NONE', 'NONE', #217,  #11 ) ;
#295 = ROLE_ASSOCIATION ( #368, #92 ) ;
#296 = APPLICATION_CONTEXT ( 'configuration controlled 3d designs of mechanical parts and assemblies' ) ;
#297 = CC_DESIGN_DATE_AND_TIME_ASSIGNMENT ( #229, #80, ( #75 ) ) ;
#298 = APPROVAL_STATUS ( 'not_yet_approved' ) ;
#299 =( LENGTH_UNIT ( ) NAMED_UNIT ( * ) SI_UNIT ( .MILLI., .METRE. ) );
#300 =( NAMED_UNIT ( * ) PLANE_ANGLE_UNIT ( ) SI_UNIT ( $, .RADIAN. ) );
#301 = PERSON_AND_ORGANIZATION ( #382, #283 ) ;
#302 = PRODUCT_RELATED_PRODUCT_CATEGORY ( 'detail', '', ( #256 ) ) ;
#303 = COORDINATED_UNIVERSAL_TIME_OFFSET ( 10, 0, .AHEAD. ) ;
#304 = CC_DESIGN_APPROVAL ( #97, ( #25 ) ) ;
#305 = PERSON_AND_ORGANIZATION ( #18446744073709551615, #18446744073709551615 ) ;
#306 = PERSON_AND_ORGANIZATION ( #18446744073709551615, #18446744073709551615 ) ;
#307 = DATE_AND_TIME ( #277, #316 ) ;
#308 = CC_DESIGN_PERSON_AND_ORGANIZATION_ASSIGNMENT ( #47, #313, ( #310 ) ) ;
#309 = SHAPE_DEFINITION_REPRESENTATION ( #225, #383 ) ;
#310 = PRODUCT_DEFINITION_FORMATION_WITH_SPECIFIED_SOURCE ( 'Symmetric', '', #165, .NOT_KNOWN. ) ;
#311 = APPROVAL_DATE_TIME ( #318, #187 ) ;
#312 = CC_DESIGN_PERSON_AND_ORGANIZATION_ASSIGNMENT ( #320, #361, ( #114 ) ) ;
#313 = PERSON_AND_ORGANIZATION_ROLE ( 'design_supplier' ) ;
#314 = PRODUCT_DEFINITION_SHAPE ( 'NONE', 'NONE',  #390 ) ;
#315 = APPROVAL_DATE_TIME ( #222, #97 ) ;
#316 = LOCAL_TIME ( 18, 50, 0.000000000000000000, #189 ) ;
#317 = APPLICATION_CONTEXT ( 'configuration controlled 3d designs of mechanical parts and assemblies' ) ;
#318 = DATE_AND_TIME ( #170, #270 ) ;
#319 = PROPERTY_DEFINITION_REPRESENTATION ( #342, #95 ) ;
#320 = PERSON_AND_ORGANIZATION ( #275, #66 ) ;
#321 = DIRECTION ( 'NONE',  ( 0.000000000000000000, 0.000000000000000000, 1.000000000000000000 ) ) ;
#322 = CC_DESIGN_APPROVAL ( #194, ( #355 ) ) ;
#323 = SECURITY_CLASSIFICATION ( '', '', #384 ) ;
#324 = CALENDAR_DATE ( 2026, 22, 6 ) ;
#325 =( NAMED_UNIT ( * ) SI_UNIT ( $, .STERADIAN. ) SOLID_ANGLE_UNIT ( ) );
#326 = DESIGN_CONTEXT ( 'detailed design', #238, 'design' ) ;
#327 = DOCUMENT_FILE ( '6461082896.step.STEP' , '', '', #346, '' ,$ ) ;
#328 =( LENGTH_UNIT ( ) NAMED_UNIT ( * ) SI_UNIT ( .MILLI., .METRE. ) );
#329 = APPROVAL_STATUS ( 'not_yet_approved' ) ;
#330 = APPROVAL_PERSON_ORGANIZATION ( #301, #36, #191 ) ;
#331 = CALENDAR_DATE ( 2026, 22, 6 ) ;
#332 = CALENDAR_DATE ( 2026, 22, 6 ) ;
#333 = APPROVAL_PERSON_ORGANIZATION ( #99, #194, #334 ) ;
#334 = APPROVAL_ROLE ( '' ) ;
#335 = CC_DESIGN_PERSON_AND_ORGANIZATION_ASSIGNMENT ( #135, #141, ( #242 ) ) ;
#336 = DOCUMENT_FILE ( '6461082896.step.STEP' , '', '', #40, '' ,$ ) ;
#337 =( REPRESENTATION_RELATIONSHIP ('NONE','NONE', #383, #95 ) REPRESENTATION_RELATIONSHIP_WITH_TRANSFORMATION ( #60 )SHAPE_REPRESENTATION_RELATIONSHIP( ) );
#338 = PERSON_AND_ORGANIZATION ( #18446744073709551615, #18446744073709551615 ) ;
#339 = PERSON_AND_ORGANIZATION_ROLE ( 'design_supplier' ) ;
#340 = LOCAL_TIME ( 18, 50, 0.000000000000000000, #159 ) ;
#341 = LOCAL_TIME ( 18, 50, 0.000000000000000000, #255 ) ;
#342 = PROPERTY_DEFINITION ('document property','', #327 ) ;
#343 = APPROVAL_DATE_TIME ( #108, #253 ) ;
#344 = APPROVAL ( #43, 'Coincident' ) ;
#345 = PRODUCT_DEFINITION_SHAPE ( 'NONE', 'NONE',  #215 ) ;
#346 = DOCUMENT_TYPE ( 'geometry' ) ;
#347 = APPROVAL_DATE_TIME ( #113, #50 ) ;
#348 = PROPERTY_DEFINITION ('document property','', #121 ) ;
#349 = APPROVAL_STATUS ( 'not_yet_approved' ) ;
#350 = ORGANIZATION ( 'NAUO-ORG288', 'UNSPECIFIED', 'UNSPECIFIED' ) ;
#351 = CALENDAR_DATE ( 2026, 22, 6 ) ;
#352 = CC_DESIGN_DATE_AND_TIME_ASSIGNMENT ( #116, #129, ( #323 ) ) ;
#353 = PROPERTY_DEFINITION_REPRESENTATION ( #365, #95 ) ;
#354 = CALENDAR_DATE ( 2026, 22, 6 ) ;
#355 = PRODUCT_DEFINITION ( 'General', '', #149, #326 ) ;
#356 = PERSON_AND_ORGANIZATION ( #18446744073709551615, #18446744073709551615 ) ;
#357 = APPROVAL_PERSON_ORGANIZATION ( #15, #105, #3 ) ;
#358 = DATE_AND_TIME ( #324, #57 ) ;
#359 = DIRECTION ( 'NONE',  ( 1.000000000000000000, 0.000000000000000000, 0.000000000000000000 ) ) ;
#360 = EXTERNAL_SOURCE (IDENTIFIER('') ) ;
#361 = PERSON_AND_ORGANIZATION_ROLE ( 'classification_officer' ) ;
#362 = CARTESIAN_POINT ( 'NONE',  ( 10.70000176999000274, 21.44999340820300660, -2.058321952820000078 ) ) ;
#363 = CC_DESIGN_APPROVAL ( #187, ( #310 ) ) ;
#364 = PERSON_AND_ORGANIZATION_ROLE ( 'classification_officer' ) ;
#365 = PROPERTY_DEFINITION ('document property','', #336 ) ;
#366 = PERSON_AND_ORGANIZATION_ROLE ( 'design_supplier' ) ;
#367 = CALENDAR_DATE ( 2026, 22, 6 ) ;
#368 = OBJECT_ROLE ('mandatory',$ ) ;
#369 = APPROVAL_PERSON_ORGANIZATION ( #20, #97, #106 ) ;
#370 = APPROVAL_PERSON_ORGANIZATION ( #115, #138, #230 ) ;
#371 = PERSON_AND_ORGANIZATION ( #18446744073709551615, #18446744073709551615 ) ;
#372 = CC_DESIGN_PERSON_AND_ORGANIZATION_ASSIGNMENT ( #287, #375, ( #75 ) ) ;
#373 = COORDINATED_UNIVERSAL_TIME_OFFSET ( 10, 0, .AHEAD. ) ;
#374 = APPROVAL_STATUS ( 'not_yet_approved' ) ;
#375 = PERSON_AND_ORGANIZATION_ROLE ( 'classification_officer' ) ;
#376 = CC_DESIGN_APPROVAL ( #253, ( #75 ) ) ;
#377 = MECHANICAL_CONTEXT ( 'NONE', #296, 'mechanical' ) ;
#378 = PERSON_AND_ORGANIZATION_ROLE ( 'creator' ) ;
#379 = CALENDAR_DATE ( 2026, 22, 6 ) ;
#380 = APPROVAL_PERSON_ORGANIZATION ( #371, #344, #101 ) ;
#381 = DATE_AND_TIME ( #265, #387 ) ;
#382 = PERSON ( 'NAUO-PER290', 'UNSPECIFIED', 'UNSPECIFIED', ('UNSPECIFIED'), ('UNSPECIFIED'), ('UNSPECIFIED') ) ;
#383 = SHAPE_REPRESENTATION ( 'C1.step', ( #250, #173, #93, #217 ), #126 ) ;
#384 = SECURITY_CLASSIFICATION_LEVEL ( 'unclassified' ) ;
#385 = DIRECTION ( 'NONE',  ( 4.890937612370273194E-29, -3.155443620884047222E-30, 0.9999999999999997780 ) ) ;
#386 = CC_DESIGN_PERSON_AND_ORGANIZATION_ASSIGNMENT ( #301, #180, ( #323 ) ) ;
#387 = LOCAL_TIME ( 18, 50, 0.000000000000000000, #264 ) ;
#388 = NEXT_ASSEMBLY_USAGE_OCCURRENCE ( 'NAUO288', ' ', ' ', #355, #25, $ ) ;
#389 = NEXT_ASSEMBLY_USAGE_OCCURRENCE ( 'NAUO289', ' ', ' ', #355, #25, $ ) ;
#390 = NEXT_ASSEMBLY_USAGE_OCCURRENCE ( 'NAUO290', ' ', ' ', #355, #215, $ ) ;
ENDSEC;
END-ISO-10303-21;
