ISO-10303-21;
HEADER;
FILE_DESCRIPTION (( 'STEP AP203' ),
    '1' );
FILE_NAME ('C11.step.STEP',
    '2026-06-22T08:50:00',
    ( 'localuser' ),
    ( '' ),
    'SwSTEP 2.0',
    'SolidWorks 2025',
    '' );
FILE_SCHEMA (( 'CONFIG_CONTROL_DESIGN' ));
ENDSEC;

DATA;
#1 = COORDINATED_UNIVERSAL_TIME_OFFSET ( 10, 0, .AHEAD. ) ;
#2 = CC_DESIGN_DATE_AND_TIME_ASSIGNMENT ( #189, #215, ( #89 ) ) ;
#3 = APPROVAL_DATE_TIME ( #34, #133 ) ;
#4 = COORDINATED_UNIVERSAL_TIME_OFFSET ( 10, 0, .AHEAD. ) ;
#5 = CC_DESIGN_SECURITY_CLASSIFICATION ( #18, ( #66 ) ) ;
#6 = DATE_AND_TIME ( #161, #296 ) ;
#7 = PERSON_AND_ORGANIZATION ( #18446744073709551615, #18446744073709551615 ) ;
#8 = COORDINATED_UNIVERSAL_TIME_OFFSET ( 10, 0, .AHEAD. ) ;
#9 = AXIS2_PLACEMENT_3D ( 'NONE', #118, #351, #234 ) ;
#10 = CC_DESIGN_SECURITY_CLASSIFICATION ( #295, ( #371 ) ) ;
#11 = SECURITY_CLASSIFICATION_LEVEL ( 'unclassified' ) ;
#12 = PRODUCT_RELATED_PRODUCT_CATEGORY ( 'detail', '', ( #347 ) ) ;
#13 = APPROVAL_STATUS ( 'not_yet_approved' ) ;
#14 = PROPERTY_DEFINITION ('external definition','', #49 ) ;
#15 = APPROVAL_DATE_TIME ( #233, #170 ) ;
#16 =( LENGTH_UNIT ( ) NAMED_UNIT ( * ) SI_UNIT ( .MILLI., .METRE. ) );
#17 = COORDINATED_UNIVERSAL_TIME_OFFSET ( 10, 0, .AHEAD. ) ;
#18 = SECURITY_CLASSIFICATION ( '', '', #70 ) ;
#19 =( NAMED_UNIT ( * ) SI_UNIT ( $, .STERADIAN. ) SOLID_ANGLE_UNIT ( ) );
#20 = PROPERTY_DEFINITION ('external definition','', #22 ) ;
#21 = EXTERNAL_SOURCE (IDENTIFIER('') ) ;
#22 = DOCUMENT_FILE ( '6461083056.step.STEP' , '', '', #147, '' ,$ ) ;
#23 = CALENDAR_DATE ( 2026, 22, 6 ) ;
#24 = DIRECTION ( 'NONE',  ( 4.890937612370273194E-29, -3.155443620884047222E-30, 0.9999999999999997780 ) ) ;
#25 = ORGANIZATION ( 'NAUO-ORG274', 'UNSPECIFIED', 'UNSPECIFIED' ) ;
#26 = SECURITY_CLASSIFICATION_LEVEL ( 'unclassified' ) ;
#27 = CC_DESIGN_DATE_AND_TIME_ASSIGNMENT ( #355, #360, ( #295 ) ) ;
#28 = APPROVAL ( #208, 'UNKNOWN' ) ;
#29 = DIRECTION ( 'NONE',  ( 1.000000000000000000, 0.000000000000000000, 0.000000000000000000 ) ) ;
#30 = APPLICATION_PROTOCOL_DEFINITION ( 'international standard', 'config_control_design', 1994, #53 ) ;
#31 = AXIS2_PLACEMENT_3D ( 'NONE', #178, #24, #303 ) ;
#32 = PRODUCT_DEFINITION_FORMATION_WITH_SPECIFIED_SOURCE ( 'Symmetric', '', #347, .NOT_KNOWN. ) ;
#33 = APPLIED_EXTERNAL_IDENTIFICATION_ASSIGNMENT ( '6461082896.step.STEP' , #165, #132,( #49) ) ;
#34 = DATE_AND_TIME ( #154, #44 ) ;
#35 = CC_DESIGN_PERSON_AND_ORGANIZATION_ASSIGNMENT ( #286, #221, ( #32 ) ) ;
#36 = PERSON_AND_ORGANIZATION_ROLE ( 'design_supplier' ) ;
#37 = CC_DESIGN_PERSON_AND_ORGANIZATION_ASSIGNMENT ( #40, #226, ( #18 ) ) ;
#38 = APPROVAL_DATE_TIME ( #258, #90 ) ;
#39 = DESIGN_CONTEXT ( 'detailed design', #348, 'design' ) ;
#40 = PERSON_AND_ORGANIZATION ( #18446744073709551615, #18446744073709551615 ) ;
#41 = DOCUMENT_TYPE ( 'geometry' ) ;
#42 = APPROVAL_DATE_TIME ( #164, #287 ) ;
#43 = COORDINATED_UNIVERSAL_TIME_OFFSET ( 10, 0, .AHEAD. ) ;
#44 = LOCAL_TIME ( 18, 50, 0.000000000000000000, #135 ) ;
#45 = COORDINATED_UNIVERSAL_TIME_OFFSET ( 10, 0, .AHEAD. ) ;
#46 = CC_DESIGN_PERSON_AND_ORGANIZATION_ASSIGNMENT ( #203, #116, ( #72 ) ) ;
#47 = CALENDAR_DATE ( 2026, 22, 6 ) ;
#48 = PRODUCT_DEFINITION_SHAPE ( 'NONE', 'NONE',  #390 ) ;
#49 = DOCUMENT_FILE ( '6461082896.step.STEP' , '', '', #186, '' ,$ ) ;
#50 =( NAMED_UNIT ( * ) PLANE_ANGLE_UNIT ( ) SI_UNIT ( $, .RADIAN. ) );
#51 = PRODUCT ( '6461082896.step', '6461082896.step', '', ( #255 ) ) ;
#52 = CALENDAR_DATE ( 2026, 22, 6 ) ;
#53 = APPLICATION_CONTEXT ( 'configuration controlled 3d designs of mechanical parts and assemblies' ) ;
#54 = CARTESIAN_POINT ( 'NONE',  ( 0.000000000000000000, 0.000000000000000000, 0.000000000000000000 ) ) ;
#55 = ITEM_DEFINED_TRANSFORMATION ( 'NONE', 'NONE', #31,  #65 ) ;
#56 = PERSON_AND_ORGANIZATION ( #18446744073709551615, #18446744073709551615 ) ;
#57 = CC_DESIGN_PERSON_AND_ORGANIZATION_ASSIGNMENT ( #73, #225, ( #51 ) ) ;
#58 = APPLIED_EXTERNAL_IDENTIFICATION_ASSIGNMENT ( '6461083056.step.STEP' , #61, #21,( #22) ) ;
#59 = PERSON_AND_ORGANIZATION_ROLE ( 'classification_officer' ) ;
#60 = APPROVAL_DATE_TIME ( #97, #184 ) ;
#61 = IDENTIFICATION_ROLE ( 'external document id and location', $) ;
#62 = PERSON_AND_ORGANIZATION_ROLE ( 'creator' ) ;
#63 = DESIGN_CONTEXT ( 'detailed design', #109, 'design' ) ;
#64 = PERSON_AND_ORGANIZATION ( #18446744073709551615, #18446744073709551615 ) ;
#65 = AXIS2_PLACEMENT_3D ( 'NONE', #126, #83, #180 ) ;
#66 = PRODUCT_DEFINITION_FORMATION_WITH_SPECIFIED_SOURCE ( 'Symmetric', '', #51, .NOT_KNOWN. ) ;
#67 = CALENDAR_DATE ( 2026, 22, 6 ) ;
#68 = CALENDAR_DATE ( 2026, 22, 6 ) ;
#69 = CC_DESIGN_PERSON_AND_ORGANIZATION_ASSIGNMENT ( #292, #316, ( #66 ) ) ;
#70 = SECURITY_CLASSIFICATION_LEVEL ( 'unclassified' ) ;
#71 = CC_DESIGN_DATE_AND_TIME_ASSIGNMENT ( #191, #140, ( #254 ) ) ;
#72 = SECURITY_CLASSIFICATION ( '', '', #268 ) ;
#73 = PERSON_AND_ORGANIZATION ( #18446744073709551615, #18446744073709551615 ) ;
#74 = PERSON_AND_ORGANIZATION ( #18446744073709551615, #18446744073709551615 ) ;
#75 = CC_DESIGN_PERSON_AND_ORGANIZATION_ASSIGNMENT ( #159, #210, ( #89 ) ) ;
#76 = PERSON_AND_ORGANIZATION ( #18446744073709551615, #18446744073709551615 ) ;
#77 = APPROVAL_PERSON_ORGANIZATION ( #136, #90, #196 ) ;
#78 = DATE_TIME_ROLE ( 'classification_date' ) ;
#79 = APPLIED_DOCUMENT_REFERENCE ( #307,'',( #242) ) ;
#80 = CC_DESIGN_DATE_AND_TIME_ASSIGNMENT ( #324, #82, ( #72 ) ) ;
#81 =( LENGTH_UNIT ( ) NAMED_UNIT ( * ) SI_UNIT ( .MILLI., .METRE. ) );
#82 = DATE_TIME_ROLE ( 'classification_date' ) ;
#83 = DIRECTION ( 'NONE',  ( 0.000000000000000000, 0.000000000000000000, 1.000000000000000000 ) ) ;
#84 =( REPRESENTATION_RELATIONSHIP ('NONE','NONE', #235, #102 ) REPRESENTATION_RELATIONSHIP_WITH_TRANSFORMATION ( #55 )SHAPE_REPRESENTATION_RELATIONSHIP( ) );
#85 =( GEOMETRIC_REPRESENTATION_CONTEXT ( 3 ) GLOBAL_UNCERTAINTY_ASSIGNED_CONTEXT ( ( #359 ) ) GLOBAL_UNIT_ASSIGNED_CONTEXT ( ( #16, #50, #328 ) ) REPRESENTATION_CONTEXT ( 'NONE', 'WORKASPACE' ) );
#86 = DATE_AND_TIME ( #52, #101 ) ;
#87 = CC_DESIGN_APPROVAL ( #133, ( #195 ) ) ;
#88 = DIRECTION ( 'NONE',  ( 0.000000000000000000, 0.000000000000000000, 1.000000000000000000 ) ) ;
#89 = PRODUCT_DEFINITION ( 'General', '', #371, #273 ) ;
#90 = APPROVAL ( #372, 'Coincident' ) ;
#91 = DATE_AND_TIME ( #380, #321 ) ;
#92 =( NAMED_UNIT ( * ) PLANE_ANGLE_UNIT ( ) SI_UNIT ( $, .RADIAN. ) );
#93 = LOCAL_TIME ( 18, 50, 0.000000000000000000, #356 ) ;
#94 = PERSON_AND_ORGANIZATION ( #18446744073709551615, #18446744073709551615 ) ;
#95 = APPROVAL_STATUS ( 'not_yet_approved' ) ;
#96 = ROLE_ASSOCIATION ( #304, #282 ) ;
#97 = DATE_AND_TIME ( #130, #181 ) ;
#98 = PROPERTY_DEFINITION_REPRESENTATION ( #204, #102 ) ;
#99 = APPLICATION_PROTOCOL_DEFINITION ( 'international standard', 'config_control_design', 1994, #109 ) ;
#100 = APPROVAL_DATE_TIME ( #311, #263 ) ;
#101 = LOCAL_TIME ( 18, 50, 0.000000000000000000, #45 ) ;
#102 = SHAPE_REPRESENTATION ( '6461082896.step', ( #65 ), #129 ) ;
#103 = APPROVAL ( #313, 'Coincident' ) ;
#104 = DATE_TIME_ROLE ( 'creation_date' ) ;
#105 = CC_DESIGN_PERSON_AND_ORGANIZATION_ASSIGNMENT ( #213, #248, ( #295 ) ) ;
#106 = CC_DESIGN_PERSON_AND_ORGANIZATION_ASSIGNMENT ( #278, #59, ( #289 ) ) ;
#107 = PERSON_AND_ORGANIZATION_ROLE ( 'classification_officer' ) ;
#108 = APPLICATION_PROTOCOL_DEFINITION ( 'international standard', 'config_control_design', 1994, #293 ) ;
#109 = APPLICATION_CONTEXT ( 'configuration controlled 3d designs of mechanical parts and assemblies' ) ;
#110 = CC_DESIGN_SECURITY_CLASSIFICATION ( #199, ( #389 ) ) ;
#111 = COORDINATED_UNIVERSAL_TIME_OFFSET ( 10, 0, .AHEAD. ) ;
#112 = APPROVAL_ROLE ( '' ) ;
#113 = CC_DESIGN_PERSON_AND_ORGANIZATION_ASSIGNMENT ( #362, #217, ( #195 ) ) ;
#114 = PROPERTY_DEFINITION_REPRESENTATION ( #117, #229 ) ;
#115 = LOCAL_TIME ( 18, 50, 0.000000000000000000, #240 ) ;
#116 = PERSON_AND_ORGANIZATION_ROLE ( 'classification_officer' ) ;
#117 = PROPERTY_DEFINITION ('document property','', #22 ) ;
#118 = CARTESIAN_POINT ( 'NONE',  ( 12.19999795529300179, 13.74999645996100561, -2.058321952820000078 ) ) ;
#119 = PRODUCT_RELATED_PRODUCT_CATEGORY ( 'detail', '', ( #236 ) ) ;
#120 = APPROVAL_ROLE ( '' ) ;
#121 = PRODUCT_DEFINITION_SHAPE ( 'NONE', 'NONE',  #195 ) ;
#122 = ROLE_ASSOCIATION ( #342, #298 ) ;
#123 = CC_DESIGN_APPROVAL ( #263, ( #371 ) ) ;
#124 = ROLE_ASSOCIATION ( #272, #79 ) ;
#125 = CC_DESIGN_APPROVAL ( #264, ( #18 ) ) ;
#126 = CARTESIAN_POINT ( 'NONE',  ( 0.000000000000000000, 0.000000000000000000, 0.000000000000000000 ) ) ;
#127 = PERSON_AND_ORGANIZATION ( #18446744073709551615, #18446744073709551615 ) ;
#128 = DATE_AND_TIME ( #243, #339 ) ;
#129 =( GEOMETRIC_REPRESENTATION_CONTEXT ( 3 ) GLOBAL_UNCERTAINTY_ASSIGNED_CONTEXT ( ( #176 ) ) GLOBAL_UNIT_ASSIGNED_CONTEXT ( ( #275, #230, #19 ) ) REPRESENTATION_CONTEXT ( 'NONE', 'WORKASPACE' ) );
#130 = CALENDAR_DATE ( 2026, 22, 6 ) ;
#131 = APPROVAL_PERSON_ORGANIZATION ( #369, #103, #112 ) ;
#132 = EXTERNAL_SOURCE (IDENTIFIER('') ) ;
#133 = APPROVAL ( #188, 'Coincident' ) ;
#134 = MECHANICAL_CONTEXT ( 'NONE', #249, 'mechanical' ) ;
#135 = COORDINATED_UNIVERSAL_TIME_OFFSET ( 10, 0, .AHEAD. ) ;
#136 = PERSON_AND_ORGANIZATION ( #18446744073709551615, #18446744073709551615 ) ;
#137 = CC_DESIGN_SECURITY_CLASSIFICATION ( #72, ( #388 ) ) ;
#138 = PERSON_AND_ORGANIZATION ( #18446744073709551615, #18446744073709551615 ) ;
#139 = APPROVAL_DATE_TIME ( #320, #179 ) ;
#140 = DATE_TIME_ROLE ( 'classification_date' ) ;
#141 = APPROVAL_PERSON_ORGANIZATION ( #337, #287, #368 ) ;
#142 = SHAPE_DEFINITION_REPRESENTATION ( #121, #229 ) ;
#143 = APPROVAL_STATUS ( 'not_yet_approved' ) ;
#144 = CC_DESIGN_APPROVAL ( #220, ( #72 ) ) ;
#145 = CC_DESIGN_PERSON_AND_ORGANIZATION_ASSIGNMENT ( #160, #107, ( #254 ) ) ;
#146 = APPROVAL_DATE_TIME ( #350, #264 ) ;
#147 = DOCUMENT_TYPE ( 'geometry' ) ;
#148 = COORDINATED_UNIVERSAL_TIME_OFFSET ( 10, 0, .AHEAD. ) ;
#149 = APPLICATION_PROTOCOL_DEFINITION ( 'international standard', 'config_control_design', 1994, #224 ) ;
#150 = LOCAL_TIME ( 18, 50, 0.000000000000000000, #43 ) ;
#151 =( NAMED_UNIT ( * ) SI_UNIT ( $, .STERADIAN. ) SOLID_ANGLE_UNIT ( ) );
#152 = PERSON_AND_ORGANIZATION ( #18446744073709551615, #18446744073709551615 ) ;
#153 = CALENDAR_DATE ( 2026, 22, 6 ) ;
#154 = CALENDAR_DATE ( 2026, 22, 6 ) ;
#155 =( GEOMETRIC_REPRESENTATION_CONTEXT ( 3 ) GLOBAL_UNCERTAINTY_ASSIGNED_CONTEXT ( ( #363 ) ) GLOBAL_UNIT_ASSIGNED_CONTEXT ( ( #81, #92, #151 ) ) REPRESENTATION_CONTEXT ( 'NONE', 'WORKASPACE' ) );
#156 = PERSON_AND_ORGANIZATION ( #18446744073709551615, #18446744073709551615 ) ;
#157 = ORGANIZATION ( 'NAUO-ORG275', 'UNSPECIFIED', 'UNSPECIFIED' ) ;
#158 = CC_DESIGN_PERSON_AND_ORGANIZATION_ASSIGNMENT ( #56, #183, ( #236 ) ) ;
#159 = PERSON_AND_ORGANIZATION ( #18446744073709551615, #18446744073709551615 ) ;
#160 = PERSON_AND_ORGANIZATION ( #18446744073709551615, #18446744073709551615 ) ;
#161 = CALENDAR_DATE ( 2026, 22, 6 ) ;
#162 = APPROVAL_PERSON_ORGANIZATION ( #278, #170, #346 ) ;
#163 = CALENDAR_DATE ( 2026, 22, 6 ) ;
#164 = DATE_AND_TIME ( #219, #305 ) ;
#165 = IDENTIFICATION_ROLE ( 'external document id and location', $) ;
#166 = COORDINATED_UNIVERSAL_TIME_OFFSET ( 10, 0, .AHEAD. ) ;
#167 = PROPERTY_DEFINITION_REPRESENTATION ( #367, #102 ) ;
#168 = CC_DESIGN_DATE_AND_TIME_ASSIGNMENT ( #190, #373, ( #242 ) ) ;
#169 = COORDINATED_UNIVERSAL_TIME_OFFSET ( 10, 0, .AHEAD. ) ;
#170 = APPROVAL ( #200, 'UNKNOWN' ) ;
#171 = PERSON_AND_ORGANIZATION_ROLE ( 'classification_officer' ) ;
#172 = PRODUCT_DEFINITION_SHAPE ( 'NONE', 'NONE',  #89 ) ;
#173 = AXIS2_PLACEMENT_3D ( 'NONE', #54, #88, #241 ) ;
#174 = CC_DESIGN_SECURITY_CLASSIFICATION ( #254, ( #32 ) ) ;
#175 = SECURITY_CLASSIFICATION_LEVEL ( 'unclassified' ) ;
#176 = UNCERTAINTY_MEASURE_WITH_UNIT (LENGTH_MEASURE( 1.000000000000000082E-05 ), #275, 'distance_accuracy_value', 'NONE');
#177 = COORDINATED_UNIVERSAL_TIME_OFFSET ( 10, 0, .AHEAD. ) ;
#178 = CARTESIAN_POINT ( 'NONE',  ( 12.69999795529300535, 13.74999645996100561, -2.058321952820000078 ) ) ;
#179 = APPROVAL ( #317, 'Coincident' ) ;
#180 = DIRECTION ( 'NONE',  ( 1.000000000000000000, 0.000000000000000000, 0.000000000000000000 ) ) ;
#181 = LOCAL_TIME ( 18, 50, 0.000000000000000000, #358 ) ;
#182 = APPROVAL_ROLE ( '' ) ;
#183 = PERSON_AND_ORGANIZATION_ROLE ( 'design_owner' ) ;
#184 = APPROVAL ( #306, 'Coincident' ) ;
#185 = APPROVAL_DATE_TIME ( #332, #335 ) ;
#186 = DOCUMENT_TYPE ( 'geometry' ) ;
#187 = CC_DESIGN_APPROVAL ( #287, ( #242 ) ) ;
#188 = APPROVAL_STATUS ( 'not_yet_approved' ) ;
#189 = DATE_AND_TIME ( #67, #222 ) ;
#190 = DATE_AND_TIME ( #68, #150 ) ;
#191 = DATE_AND_TIME ( #218, #239 ) ;
#192 = LOCAL_TIME ( 18, 50, 0.000000000000000000, #17 ) ;
#193 = CC_DESIGN_PERSON_AND_ORGANIZATION_ASSIGNMENT ( #274, #171, ( #199 ) ) ;
#194 = COORDINATED_UNIVERSAL_TIME_OFFSET ( 10, 0, .AHEAD. ) ;
#195 = PRODUCT_DEFINITION ( 'General', '', #32, #63 ) ;
#196 = APPROVAL_ROLE ( '' ) ;
#197 = DATE_TIME_ROLE ( 'classification_date' ) ;
#198 = AXIS2_PLACEMENT_3D ( 'NONE', #375, #271, #382 ) ;
#199 = SECURITY_CLASSIFICATION ( '', '', #175 ) ;
#200 = APPROVAL_STATUS ( 'not_yet_approved' ) ;
#201 = PRODUCT_RELATED_PRODUCT_CATEGORY ( 'detail', '', ( #51 ) ) ;
#202 = PRODUCT_DEFINITION_SHAPE ( 'NONE', 'NONE',  #388 ) ;
#203 = PERSON_AND_ORGANIZATION ( #384, #277 ) ;
#204 = PROPERTY_DEFINITION ('document property','', #49 ) ;
#205 = ITEM_DEFINED_TRANSFORMATION ( 'NONE', 'NONE', #198,  #65 ) ;
#206 = LOCAL_TIME ( 18, 50, 0.000000000000000000, #385 ) ;
#207 = CC_DESIGN_APPROVAL ( #184, ( #295 ) ) ;
#208 = APPROVAL_STATUS ( 'not_yet_approved' ) ;
#209 = CC_DESIGN_PERSON_AND_ORGANIZATION_ASSIGNMENT ( #74, #338, ( #242 ) ) ;
#210 = PERSON_AND_ORGANIZATION_ROLE ( 'creator' ) ;
#211 = APPROVAL_PERSON_ORGANIZATION ( #156, #335, #331 ) ;
#212 = LOCAL_TIME ( 18, 50, 0.000000000000000000, #228 ) ;
#213 = PERSON_AND_ORGANIZATION ( #18446744073709551615, #18446744073709551615 ) ;
#214 = CALENDAR_DATE ( 2026, 22, 6 ) ;
#215 = DATE_TIME_ROLE ( 'creation_date' ) ;
#216 = CC_DESIGN_APPROVAL ( #90, ( #254 ) ) ;
#217 = PERSON_AND_ORGANIZATION_ROLE ( 'creator' ) ;
#218 = CALENDAR_DATE ( 2026, 22, 6 ) ;
#219 = CALENDAR_DATE ( 2026, 22, 6 ) ;
#220 = APPROVAL ( #143, 'UNKNOWN' ) ;
#221 = PERSON_AND_ORGANIZATION_ROLE ( 'creator' ) ;
#222 = LOCAL_TIME ( 18, 50, 0.000000000000000000, #1 ) ;
#223 = APPROVAL_PERSON_ORGANIZATION ( #203, #220, #270 ) ;
#224 = APPLICATION_CONTEXT ( 'configuration controlled 3d designs of mechanical parts and assemblies' ) ;
#225 = PERSON_AND_ORGANIZATION_ROLE ( 'design_owner' ) ;
#226 = PERSON_AND_ORGANIZATION_ROLE ( 'classification_officer' ) ;
#227 = PERSON ( 'NAUO-PER274', 'UNSPECIFIED', 'UNSPECIFIED', ('UNSPECIFIED'), ('UNSPECIFIED'), ('UNSPECIFIED') ) ;
#228 = COORDINATED_UNIVERSAL_TIME_OFFSET ( 10, 0, .AHEAD. ) ;
#229 = SHAPE_REPRESENTATION ( '6461083056.step', ( #173 ), #85 ) ;
#230 =( NAMED_UNIT ( * ) PLANE_ANGLE_UNIT ( ) SI_UNIT ( $, .RADIAN. ) );
#231 = APPROVAL_PERSON_ORGANIZATION ( #274, #28, #120 ) ;
#232 = PRODUCT_DEFINITION_SHAPE ( 'NONE', 'NONE',  #389 ) ;
#233 = DATE_AND_TIME ( #47, #212 ) ;
#234 = DIRECTION ( 'NONE',  ( 1.000000000000000222, -1.092455418989176591E-28, 4.890937612370273194E-29 ) ) ;
#235 = SHAPE_REPRESENTATION ( 'C11.step', ( #364, #198, #9, #31 ), #155 ) ;
#236 = PRODUCT ( 'C11.step', 'C11.step', '', ( #379 ) ) ;
#237 = APPROVAL_DATE_TIME ( #86, #220 ) ;
#238 = PROPERTY_DEFINITION_REPRESENTATION ( #20, #229 ) ;
#239 = LOCAL_TIME ( 18, 50, 0.000000000000000000, #166 ) ;
#240 = COORDINATED_UNIVERSAL_TIME_OFFSET ( 10, 0, .AHEAD. ) ;
#241 = DIRECTION ( 'NONE',  ( 1.000000000000000000, 0.000000000000000000, 0.000000000000000000 ) ) ;
#242 = PRODUCT_DEFINITION ( 'General', '', #66, #39 ) ;
#243 = CALENDAR_DATE ( 2026, 22, 6 ) ;
#244 = CC_DESIGN_PERSON_AND_ORGANIZATION_ASSIGNMENT ( #94, #36, ( #371 ) ) ;
#245 = CC_DESIGN_DATE_AND_TIME_ASSIGNMENT ( #374, #386, ( #289 ) ) ;
#246 = PERSON_AND_ORGANIZATION ( #18446744073709551615, #18446744073709551615 ) ;
#247 = APPROVAL_PERSON_ORGANIZATION ( #76, #179, #318 ) ;
#248 = PERSON_AND_ORGANIZATION_ROLE ( 'classification_officer' ) ;
#249 = APPLICATION_CONTEXT ( 'configuration controlled 3d designs of mechanical parts and assemblies' ) ;
#250 = PERSON_AND_ORGANIZATION_ROLE ( 'design_owner' ) ;
#251 = PROPERTY_DEFINITION_REPRESENTATION ( #14, #102 ) ;
#252 = APPROVAL_STATUS ( 'not_yet_approved' ) ;
#253 = CC_DESIGN_DATE_AND_TIME_ASSIGNMENT ( #128, #104, ( #195 ) ) ;
#254 = SECURITY_CLASSIFICATION ( '', '', #11 ) ;
#255 = MECHANICAL_CONTEXT ( 'NONE', #293, 'mechanical' ) ;
#256 = PERSON_AND_ORGANIZATION_ROLE ( 'design_supplier' ) ;
#257 = PROPERTY_DEFINITION ('external definition','', #307 ) ;
#258 = DATE_AND_TIME ( #294, #283 ) ;
#259 = PERSON_AND_ORGANIZATION ( #18446744073709551615, #18446744073709551615 ) ;
#260 = APPROVAL_PERSON_ORGANIZATION ( #281, #263, #182 ) ;
#261 = CC_DESIGN_APPROVAL ( #28, ( #199 ) ) ;
#262 = COORDINATED_UNIVERSAL_TIME_OFFSET ( 10, 0, .AHEAD. ) ;
#263 = APPROVAL ( #95, 'Coincident' ) ;
#264 = APPROVAL ( #13, 'Coincident' ) ;
#265 = PROPERTY_DEFINITION_REPRESENTATION ( #257, #102 ) ;
#266 = PRODUCT_DEFINITION_SHAPE ( 'NONE', 'NONE',  #242 ) ;
#267 = CC_DESIGN_APPROVAL ( #179, ( #32 ) ) ;
#268 = SECURITY_CLASSIFICATION_LEVEL ( 'unclassified' ) ;
#269 = CC_DESIGN_PERSON_AND_ORGANIZATION_ASSIGNMENT ( #152, #250, ( #347 ) ) ;
#270 = APPROVAL_ROLE ( '' ) ;
#271 = DIRECTION ( 'NONE',  ( 4.890937612370273194E-29, -3.155443620884047222E-30, 0.9999999999999997780 ) ) ;
#272 = OBJECT_ROLE ('mandatory',$ ) ;
#273 = DESIGN_CONTEXT ( 'detailed design', #53, 'design' ) ;
#274 = PERSON_AND_ORGANIZATION ( #227, #25 ) ;
#275 =( LENGTH_UNIT ( ) NAMED_UNIT ( * ) SI_UNIT ( .MILLI., .METRE. ) );
#276 = APPROVAL_PERSON_ORGANIZATION ( #64, #133, #280 ) ;
#277 = ORGANIZATION ( 'NAUO-ORG273', 'UNSPECIFIED', 'UNSPECIFIED' ) ;
#278 = PERSON_AND_ORGANIZATION ( #288, #157 ) ;
#279 = COORDINATED_UNIVERSAL_TIME_OFFSET ( 10, 0, .AHEAD. ) ;
#280 = APPROVAL_ROLE ( '' ) ;
#281 = PERSON_AND_ORGANIZATION ( #18446744073709551615, #18446744073709551615 ) ;
#282 = APPLIED_DOCUMENT_REFERENCE ( #49,'',( #242) ) ;
#283 = LOCAL_TIME ( 18, 50, 0.000000000000000000, #111 ) ;
#284 = COORDINATED_UNIVERSAL_TIME_OFFSET ( 10, 0, .AHEAD. ) ;
#285 = CALENDAR_DATE ( 2026, 22, 6 ) ;
#286 = PERSON_AND_ORGANIZATION ( #18446744073709551615, #18446744073709551615 ) ;
#287 = APPROVAL ( #341, 'Coincident' ) ;
#288 = PERSON ( 'NAUO-PER275', 'UNSPECIFIED', 'UNSPECIFIED', ('UNSPECIFIED'), ('UNSPECIFIED'), ('UNSPECIFIED') ) ;
#289 = SECURITY_CLASSIFICATION ( '', '', #376 ) ;
#290 = APPROVAL_DATE_TIME ( #6, #103 ) ;
#291 = DATE_AND_TIME ( #163, #330 ) ;
#292 = PERSON_AND_ORGANIZATION ( #18446744073709551615, #18446744073709551615 ) ;
#293 = APPLICATION_CONTEXT ( 'configuration controlled 3d designs of mechanical parts and assemblies' ) ;
#294 = CALENDAR_DATE ( 2026, 22, 6 ) ;
#295 = SECURITY_CLASSIFICATION ( '', '', #26 ) ;
#296 = LOCAL_TIME ( 18, 50, 0.000000000000000000, #4 ) ;
#297 = CALENDAR_DATE ( 2026, 22, 6 ) ;
#298 = APPLIED_DOCUMENT_REFERENCE ( #22,'',( #195) ) ;
#299 = LOCAL_TIME ( 18, 50, 0.000000000000000000, #284 ) ;
#300 = CONTEXT_DEPENDENT_SHAPE_REPRESENTATION ( #308, #202 ) ;
#301 = CARTESIAN_POINT ( 'NONE',  ( 0.000000000000000000, 0.000000000000000000, 0.000000000000000000 ) ) ;
#302 = CALENDAR_DATE ( 2026, 22, 6 ) ;
#303 = DIRECTION ( 'NONE',  ( 1.000000000000000222, -1.092455418989176591E-28, 4.890937612370273194E-29 ) ) ;
#304 = OBJECT_ROLE ('mandatory',$ ) ;
#305 = LOCAL_TIME ( 18, 50, 0.000000000000000000, #262 ) ;
#306 = APPROVAL_STATUS ( 'not_yet_approved' ) ;
#307 = DOCUMENT_FILE ( '6461082896.step.STEP' , '', '', #41, '' ,$ ) ;
#308 =( REPRESENTATION_RELATIONSHIP ('NONE','NONE', #235, #102 ) REPRESENTATION_RELATIONSHIP_WITH_TRANSFORMATION ( #205 )SHAPE_REPRESENTATION_RELATIONSHIP( ) );
#309 = CC_DESIGN_APPROVAL ( #170, ( #289 ) ) ;
#310 = APPLICATION_PROTOCOL_DEFINITION ( 'international standard', 'config_control_design', 1994, #249 ) ;
#311 = DATE_AND_TIME ( #285, #206 ) ;
#312 = CC_DESIGN_PERSON_AND_ORGANIZATION_ASSIGNMENT ( #246, #62, ( #371 ) ) ;
#313 = APPROVAL_STATUS ( 'not_yet_approved' ) ;
#314 = CC_DESIGN_DATE_AND_TIME_ASSIGNMENT ( #91, #78, ( #199 ) ) ;
#315 = CC_DESIGN_APPROVAL ( #103, ( #66 ) ) ;
#316 = PERSON_AND_ORGANIZATION_ROLE ( 'creator' ) ;
#317 = APPROVAL_STATUS ( 'not_yet_approved' ) ;
#318 = APPROVAL_ROLE ( '' ) ;
#319 = CC_DESIGN_PERSON_AND_ORGANIZATION_ASSIGNMENT ( #259, #366, ( #32 ) ) ;
#320 = DATE_AND_TIME ( #340, #352 ) ;
#321 = LOCAL_TIME ( 18, 50, 0.000000000000000000, #177 ) ;
#322 = APPROVAL_ROLE ( '' ) ;
#323 = CC_DESIGN_PERSON_AND_ORGANIZATION_ASSIGNMENT ( #138, #256, ( #66 ) ) ;
#324 = DATE_AND_TIME ( #302, #387 ) ;
#325 = LOCAL_TIME ( 18, 50, 0.000000000000000000, #169 ) ;
#326 =( REPRESENTATION_RELATIONSHIP ('NONE','NONE', #235, #229 ) REPRESENTATION_RELATIONSHIP_WITH_TRANSFORMATION ( #344 )SHAPE_REPRESENTATION_RELATIONSHIP( ) );
#327 = APPROVAL_DATE_TIME ( #349, #28 ) ;
#328 =( NAMED_UNIT ( * ) SI_UNIT ( $, .STERADIAN. ) SOLID_ANGLE_UNIT ( ) );
#329 = SHAPE_DEFINITION_REPRESENTATION ( #172, #235 ) ;
#330 = LOCAL_TIME ( 18, 50, 0.000000000000000000, #8 ) ;
#331 = APPROVAL_ROLE ( '' ) ;
#332 = DATE_AND_TIME ( #153, #93 ) ;
#333 = CONTEXT_DEPENDENT_SHAPE_REPRESENTATION ( #84, #48 ) ;
#334 = APPROVAL_ROLE ( '' ) ;
#335 = APPROVAL ( #252, 'Coincident' ) ;
#336 = DIRECTION ( 'NONE',  ( 0.000000000000000000, 0.000000000000000000, 1.000000000000000000 ) ) ;
#337 = PERSON_AND_ORGANIZATION ( #18446744073709551615, #18446744073709551615 ) ;
#338 = PERSON_AND_ORGANIZATION_ROLE ( 'creator' ) ;
#339 = LOCAL_TIME ( 18, 50, 0.000000000000000000, #279 ) ;
#340 = CALENDAR_DATE ( 2026, 22, 6 ) ;
#341 = APPROVAL_STATUS ( 'not_yet_approved' ) ;
#342 = OBJECT_ROLE ('mandatory',$ ) ;
#343 = APPLICATION_PROTOCOL_DEFINITION ( 'international standard', 'config_control_design', 1994, #348 ) ;
#344 = ITEM_DEFINED_TRANSFORMATION ( 'NONE', 'NONE', #9,  #173 ) ;
#345 = APPROVAL_PERSON_ORGANIZATION ( #127, #184, #334 ) ;
#346 = APPROVAL_ROLE ( '' ) ;
#347 = PRODUCT ( '6461083056.step', '6461083056.step', '', ( #134 ) ) ;
#348 = APPLICATION_CONTEXT ( 'configuration controlled 3d designs of mechanical parts and assemblies' ) ;
#349 = DATE_AND_TIME ( #23, #115 ) ;
#350 = DATE_AND_TIME ( #381, #192 ) ;
#351 = DIRECTION ( 'NONE',  ( 4.890937612370273194E-29, -3.155443620884047222E-30, 0.9999999999999997780 ) ) ;
#352 = LOCAL_TIME ( 18, 50, 0.000000000000000000, #194 ) ;
#353 = SHAPE_DEFINITION_REPRESENTATION ( #266, #102 ) ;
#354 = CC_DESIGN_DATE_AND_TIME_ASSIGNMENT ( #291, #197, ( #18 ) ) ;
#355 = DATE_AND_TIME ( #214, #299 ) ;
#356 = COORDINATED_UNIVERSAL_TIME_OFFSET ( 10, 0, .AHEAD. ) ;
#357 = APPROVAL_PERSON_ORGANIZATION ( #7, #264, #322 ) ;
#358 = COORDINATED_UNIVERSAL_TIME_OFFSET ( 10, 0, .AHEAD. ) ;
#359 = UNCERTAINTY_MEASURE_WITH_UNIT (LENGTH_MEASURE( 1.000000000000000082E-05 ), #16, 'distance_accuracy_value', 'NONE');
#360 = DATE_TIME_ROLE ( 'classification_date' ) ;
#361 = EXTERNAL_SOURCE (IDENTIFIER('') ) ;
#362 = PERSON_AND_ORGANIZATION ( #18446744073709551615, #18446744073709551615 ) ;
#363 = UNCERTAINTY_MEASURE_WITH_UNIT (LENGTH_MEASURE( 1.000000000000000082E-05 ), #81, 'distance_accuracy_value', 'NONE');
#364 = AXIS2_PLACEMENT_3D ( 'NONE', #301, #336, #29 ) ;
#365 = APPLIED_EXTERNAL_IDENTIFICATION_ASSIGNMENT ( '6461082896.step.STEP' , #370, #361,( #307) ) ;
#366 = PERSON_AND_ORGANIZATION_ROLE ( 'design_supplier' ) ;
#367 = PROPERTY_DEFINITION ('document property','', #307 ) ;
#368 = APPROVAL_ROLE ( '' ) ;
#369 = PERSON_AND_ORGANIZATION ( #18446744073709551615, #18446744073709551615 ) ;
#370 = IDENTIFICATION_ROLE ( 'external document id and location', $) ;
#371 = PRODUCT_DEFINITION_FORMATION_WITH_SPECIFIED_SOURCE ( 'Symmetric', '', #236, .NOT_KNOWN. ) ;
#372 = APPROVAL_STATUS ( 'not_yet_approved' ) ;
#373 = DATE_TIME_ROLE ( 'creation_date' ) ;
#374 = DATE_AND_TIME ( #297, #325 ) ;
#375 = CARTESIAN_POINT ( 'NONE',  ( 11.70000176999000452, 13.74999645996100739, -2.058321952820000078 ) ) ;
#376 = SECURITY_CLASSIFICATION_LEVEL ( 'unclassified' ) ;
#377 = CC_DESIGN_APPROVAL ( #335, ( #89 ) ) ;
#378 = CC_DESIGN_SECURITY_CLASSIFICATION ( #289, ( #390 ) ) ;
#379 = MECHANICAL_CONTEXT ( 'NONE', #224, 'mechanical' ) ;
#380 = CALENDAR_DATE ( 2026, 22, 6 ) ;
#381 = CALENDAR_DATE ( 2026, 22, 6 ) ;
#382 = DIRECTION ( 'NONE',  ( 1.000000000000000222, -1.092455418989176591E-28, 4.890937612370273194E-29 ) ) ;
#383 = CONTEXT_DEPENDENT_SHAPE_REPRESENTATION ( #326, #232 ) ;
#384 = PERSON ( 'NAUO-PER273', 'UNSPECIFIED', 'UNSPECIFIED', ('UNSPECIFIED'), ('UNSPECIFIED'), ('UNSPECIFIED') ) ;
#385 = COORDINATED_UNIVERSAL_TIME_OFFSET ( 10, 0, .AHEAD. ) ;
#386 = DATE_TIME_ROLE ( 'classification_date' ) ;
#387 = LOCAL_TIME ( 18, 50, 0.000000000000000000, #148 ) ;
#388 = NEXT_ASSEMBLY_USAGE_OCCURRENCE ( 'NAUO273', ' ', ' ', #89, #242, $ ) ;
#389 = NEXT_ASSEMBLY_USAGE_OCCURRENCE ( 'NAUO274', ' ', ' ', #89, #195, $ ) ;
#390 = NEXT_ASSEMBLY_USAGE_OCCURRENCE ( 'NAUO275', ' ', ' ', #89, #242, $ ) ;
ENDSEC;
END-ISO-10303-21;
