ISO-10303-21;
HEADER;
FILE_DESCRIPTION (( 'STEP AP203' ),
    '1' );
FILE_NAME ('C12.step.STEP',
    '2026-06-22T08:49:59',
    ( 'localuser' ),
    ( '' ),
    'SwSTEP 2.0',
    'SolidWorks 2025',
    '' );
FILE_SCHEMA (( 'CONFIG_CONTROL_DESIGN' ));
ENDSEC;

DATA;
#1 = PERSON_AND_ORGANIZATION_ROLE ( 'classification_officer' ) ;
#2 = CC_DESIGN_DATE_AND_TIME_ASSIGNMENT ( #182, #27, ( #74 ) ) ;
#3 = PERSON_AND_ORGANIZATION ( #18446744073709551615, #18446744073709551615 ) ;
#4 = APPLIED_DOCUMENT_REFERENCE ( #307,'',( #107) ) ;
#5 = DIRECTION ( 'NONE',  ( 0.000000000000000000, 0.000000000000000000, 1.000000000000000000 ) ) ;
#6 = LOCAL_TIME ( 18, 49, 59.00000000000000000, #329 ) ;
#7 = PERSON_AND_ORGANIZATION ( #220, #50 ) ;
#8 = CALENDAR_DATE ( 2026, 22, 6 ) ;
#9 = DATE_AND_TIME ( #8, #372 ) ;
#10 = CC_DESIGN_PERSON_AND_ORGANIZATION_ASSIGNMENT ( #222, #15, ( #213 ) ) ;
#11 = DIRECTION ( 'NONE',  ( 4.890937612370273194E-29, -3.155443620884047222E-30, 0.9999999999999997780 ) ) ;
#12 = AXIS2_PLACEMENT_3D ( 'NONE', #185, #364, #361 ) ;
#13 = CC_DESIGN_SECURITY_CLASSIFICATION ( #83, ( #213 ) ) ;
#14 = CC_DESIGN_PERSON_AND_ORGANIZATION_ASSIGNMENT ( #221, #164, ( #108 ) ) ;
#15 = PERSON_AND_ORGANIZATION_ROLE ( 'design_supplier' ) ;
#16 = MECHANICAL_CONTEXT ( 'NONE', #125, 'mechanical' ) ;
#17 = CC_DESIGN_SECURITY_CLASSIFICATION ( #90, ( #388 ) ) ;
#18 = MECHANICAL_CONTEXT ( 'NONE', #305, 'mechanical' ) ;
#19 = PERSON_AND_ORGANIZATION ( #18446744073709551615, #18446744073709551615 ) ;
#20 = PERSON_AND_ORGANIZATION ( #18446744073709551615, #18446744073709551615 ) ;
#21 = CALENDAR_DATE ( 2026, 22, 6 ) ;
#22 = LOCAL_TIME ( 18, 49, 59.00000000000000000, #181 ) ;
#23 = APPLIED_DOCUMENT_REFERENCE ( #101,'',( #74) ) ;
#24 = CC_DESIGN_PERSON_AND_ORGANIZATION_ASSIGNMENT ( #129, #150, ( #380 ) ) ;
#25 = DATE_AND_TIME ( #59, #133 ) ;
#26 = CC_DESIGN_DATE_AND_TIME_ASSIGNMENT ( #344, #36, ( #244 ) ) ;
#27 = DATE_TIME_ROLE ( 'creation_date' ) ;
#28 = CC_DESIGN_APPROVAL ( #186, ( #213 ) ) ;
#29 = SECURITY_CLASSIFICATION ( '', '', #32 ) ;
#30 = LOCAL_TIME ( 18, 49, 59.00000000000000000, #88 ) ;
#31 = CC_DESIGN_DATE_AND_TIME_ASSIGNMENT ( #216, #120, ( #90 ) ) ;
#32 = SECURITY_CLASSIFICATION_LEVEL ( 'unclassified' ) ;
#33 =( LENGTH_UNIT ( ) NAMED_UNIT ( * ) SI_UNIT ( .MILLI., .METRE. ) );
#34 = APPROVAL_DATE_TIME ( #131, #69 ) ;
#35 = CC_DESIGN_PERSON_AND_ORGANIZATION_ASSIGNMENT ( #51, #180, ( #373 ) ) ;
#36 = DATE_TIME_ROLE ( 'creation_date' ) ;
#37 = APPROVAL_PERSON_ORGANIZATION ( #38, #375, #265 ) ;
#38 = PERSON_AND_ORGANIZATION ( #18446744073709551615, #18446744073709551615 ) ;
#39 = DOCUMENT_TYPE ( 'geometry' ) ;
#40 = COORDINATED_UNIVERSAL_TIME_OFFSET ( 10, 0, .AHEAD. ) ;
#41 = DATE_AND_TIME ( #376, #339 ) ;
#42 = CC_DESIGN_PERSON_AND_ORGANIZATION_ASSIGNMENT ( #52, #178, ( #107 ) ) ;
#43 =( NAMED_UNIT ( * ) SI_UNIT ( $, .STERADIAN. ) SOLID_ANGLE_UNIT ( ) );
#44 = ORGANIZATION ( 'NAUO-ORG255', 'UNSPECIFIED', 'UNSPECIFIED' ) ;
#45 = PERSON_AND_ORGANIZATION_ROLE ( 'creator' ) ;
#46 = COORDINATED_UNIVERSAL_TIME_OFFSET ( 10, 0, .AHEAD. ) ;
#47 = PROPERTY_DEFINITION ('document property','', #309 ) ;
#48 = DATE_AND_TIME ( #145, #354 ) ;
#49 = PRODUCT_DEFINITION_SHAPE ( 'NONE', 'NONE',  #388 ) ;
#50 = ORGANIZATION ( 'NAUO-ORG256', 'UNSPECIFIED', 'UNSPECIFIED' ) ;
#51 = PERSON_AND_ORGANIZATION ( #18446744073709551615, #18446744073709551615 ) ;
#52 = PERSON_AND_ORGANIZATION ( #18446744073709551615, #18446744073709551615 ) ;
#53 = CALENDAR_DATE ( 2026, 22, 6 ) ;
#54 = CALENDAR_DATE ( 2026, 22, 6 ) ;
#55 = LOCAL_TIME ( 18, 49, 59.00000000000000000, #99 ) ;
#56 = CALENDAR_DATE ( 2026, 22, 6 ) ;
#57 = APPLICATION_CONTEXT ( 'configuration controlled 3d designs of mechanical parts and assemblies' ) ;
#58 = APPROVAL_STATUS ( 'not_yet_approved' ) ;
#59 = CALENDAR_DATE ( 2026, 22, 6 ) ;
#60 = AXIS2_PLACEMENT_3D ( 'NONE', #229, #11, #256 ) ;
#61 = LOCAL_TIME ( 18, 49, 59.00000000000000000, #242 ) ;
#62 = PROPERTY_DEFINITION_REPRESENTATION ( #368, #78 ) ;
#63 = CARTESIAN_POINT ( 'NONE',  ( 0.000000000000000000, 0.000000000000000000, 0.000000000000000000 ) ) ;
#64 = PROPERTY_DEFINITION_REPRESENTATION ( #47, #78 ) ;
#65 = OBJECT_ROLE ('mandatory',$ ) ;
#66 = PERSON_AND_ORGANIZATION ( #18446744073709551615, #18446744073709551615 ) ;
#67 = APPLIED_DOCUMENT_REFERENCE ( #309,'',( #74) ) ;
#68 = DATE_TIME_ROLE ( 'classification_date' ) ;
#69 = APPROVAL ( #158, 'UNKNOWN' ) ;
#70 = APPLIED_EXTERNAL_IDENTIFICATION_ASSIGNMENT ( '6534431024.step.STEP' , #362, #371,( #307) ) ;
#71 = PERSON_AND_ORGANIZATION_ROLE ( 'classification_officer' ) ;
#72 = PERSON_AND_ORGANIZATION ( #18446744073709551615, #18446744073709551615 ) ;
#73 = PERSON_AND_ORGANIZATION ( #18446744073709551615, #18446744073709551615 ) ;
#74 = PRODUCT_DEFINITION ( 'General', '', #380, #134 ) ;
#75 = ROLE_ASSOCIATION ( #351, #4 ) ;
#76 = CC_DESIGN_APPROVAL ( #85, ( #208 ) ) ;
#77 = CALENDAR_DATE ( 2026, 22, 6 ) ;
#78 = SHAPE_REPRESENTATION ( '6461079856.step', ( #12 ), #132 ) ;
#79 = COORDINATED_UNIVERSAL_TIME_OFFSET ( 10, 0, .AHEAD. ) ;
#80 = PROPERTY_DEFINITION ('document property','', #307 ) ;
#81 = APPLICATION_PROTOCOL_DEFINITION ( 'international standard', 'config_control_design', 1994, #207 ) ;
#82 = APPLICATION_CONTEXT ( 'configuration controlled 3d designs of mechanical parts and assemblies' ) ;
#83 = SECURITY_CLASSIFICATION ( '', '', #138 ) ;
#84 = COORDINATED_UNIVERSAL_TIME_OFFSET ( 10, 0, .AHEAD. ) ;
#85 = APPROVAL ( #176, 'Coincident' ) ;
#86 = CC_DESIGN_DATE_AND_TIME_ASSIGNMENT ( #374, #336, ( #108 ) ) ;
#87 = APPROVAL_ROLE ( '' ) ;
#88 = COORDINATED_UNIVERSAL_TIME_OFFSET ( 10, 0, .AHEAD. ) ;
#89 = CALENDAR_DATE ( 2026, 22, 6 ) ;
#90 = SECURITY_CLASSIFICATION ( '', '', #121 ) ;
#91 = CALENDAR_DATE ( 2026, 22, 6 ) ;
#92 = PERSON_AND_ORGANIZATION ( #18446744073709551615, #18446744073709551615 ) ;
#93 = PERSON_AND_ORGANIZATION ( #18446744073709551615, #18446744073709551615 ) ;
#94 = CARTESIAN_POINT ( 'NONE',  ( 0.000000000000000000, 0.000000000000000000, 0.000000000000000000 ) ) ;
#95 = CC_DESIGN_SECURITY_CLASSIFICATION ( #29, ( #389 ) ) ;
#96 = PROPERTY_DEFINITION_REPRESENTATION ( #80, #298 ) ;
#97 = CC_DESIGN_PERSON_AND_ORGANIZATION_ASSIGNMENT ( #92, #326, ( #380 ) ) ;
#98 = ROLE_ASSOCIATION ( #65, #67 ) ;
#99 = COORDINATED_UNIVERSAL_TIME_OFFSET ( 10, 0, .AHEAD. ) ;
#100 = CC_DESIGN_PERSON_AND_ORGANIZATION_ASSIGNMENT ( #73, #103, ( #244 ) ) ;
#101 = DOCUMENT_FILE ( '6461079856.step.STEP' , '', '', #102, '' ,$ ) ;
#102 = DOCUMENT_TYPE ( 'geometry' ) ;
#103 = PERSON_AND_ORGANIZATION_ROLE ( 'creator' ) ;
#104 = APPROVAL_ROLE ( '' ) ;
#105 = CC_DESIGN_DATE_AND_TIME_ASSIGNMENT ( #215, #282, ( #29 ) ) ;
#106 = DATE_AND_TIME ( #21, #118 ) ;
#107 = PRODUCT_DEFINITION ( 'General', '', #373, #330 ) ;
#108 = SECURITY_CLASSIFICATION ( '', '', #224 ) ;
#109 = PROPERTY_DEFINITION ('external definition','', #309 ) ;
#110 = APPROVAL_STATUS ( 'not_yet_approved' ) ;
#111 = CC_DESIGN_PERSON_AND_ORGANIZATION_ASSIGNMENT ( #3, #272, ( #140 ) ) ;
#112 = CC_DESIGN_PERSON_AND_ORGANIZATION_ASSIGNMENT ( #312, #45, ( #213 ) ) ;
#113 = PRODUCT_DEFINITION_SHAPE ( 'NONE', 'NONE',  #74 ) ;
#114 = APPROVAL_ROLE ( '' ) ;
#115 = APPROVAL ( #349, 'Coincident' ) ;
#116 = PERSON_AND_ORGANIZATION ( #18446744073709551615, #18446744073709551615 ) ;
#117 = IDENTIFICATION_ROLE ( 'external document id and location', $) ;
#118 = LOCAL_TIME ( 18, 49, 59.00000000000000000, #296 ) ;
#119 = SHAPE_DEFINITION_REPRESENTATION ( #204, #298 ) ;
#120 = DATE_TIME_ROLE ( 'classification_date' ) ;
#121 = SECURITY_CLASSIFICATION_LEVEL ( 'unclassified' ) ;
#122 = APPROVAL_PERSON_ORGANIZATION ( #19, #115, #87 ) ;
#123 = CALENDAR_DATE ( 2026, 22, 6 ) ;
#124 = LOCAL_TIME ( 18, 49, 59.00000000000000000, #167 ) ;
#125 = APPLICATION_CONTEXT ( 'configuration controlled 3d designs of mechanical parts and assemblies' ) ;
#126 = PRODUCT_RELATED_PRODUCT_CATEGORY ( 'detail', '', ( #235 ) ) ;
#127 = APPROVAL ( #369, 'Coincident' ) ;
#128 = CONTEXT_DEPENDENT_SHAPE_REPRESENTATION ( #343, #49 ) ;
#129 = PERSON_AND_ORGANIZATION ( #18446744073709551615, #18446744073709551615 ) ;
#130 = APPLICATION_PROTOCOL_DEFINITION ( 'international standard', 'config_control_design', 1994, #82 ) ;
#131 = DATE_AND_TIME ( #337, #124 ) ;
#132 =( GEOMETRIC_REPRESENTATION_CONTEXT ( 3 ) GLOBAL_UNCERTAINTY_ASSIGNED_CONTEXT ( ( #304 ) ) GLOBAL_UNIT_ASSIGNED_CONTEXT ( ( #302, #151, #192 ) ) REPRESENTATION_CONTEXT ( 'NONE', 'WORKASPACE' ) );
#133 = LOCAL_TIME ( 18, 49, 59.00000000000000000, #359 ) ;
#134 = DESIGN_CONTEXT ( 'detailed design', #57, 'design' ) ;
#135 = DIRECTION ( 'NONE',  ( 1.000000000000000222, -1.092455418989176591E-28, 4.890937612370273194E-29 ) ) ;
#136 = CC_DESIGN_APPROVAL ( #179, ( #29 ) ) ;
#137 = PERSON_AND_ORGANIZATION ( #18446744073709551615, #18446744073709551615 ) ;
#138 = SECURITY_CLASSIFICATION_LEVEL ( 'unclassified' ) ;
#139 = APPLICATION_PROTOCOL_DEFINITION ( 'international standard', 'config_control_design', 1994, #57 ) ;
#140 = SECURITY_CLASSIFICATION ( '', '', #187 ) ;
#141 = CC_DESIGN_PERSON_AND_ORGANIZATION_ASSIGNMENT ( #7, #71, ( #29 ) ) ;
#142 = PRODUCT_DEFINITION_SHAPE ( 'NONE', 'NONE',  #390 ) ;
#143 = APPROVAL_DATE_TIME ( #381, #85 ) ;
#144 = APPLICATION_CONTEXT ( 'configuration controlled 3d designs of mechanical parts and assemblies' ) ;
#145 = CALENDAR_DATE ( 2026, 22, 6 ) ;
#146 = CALENDAR_DATE ( 2026, 22, 6 ) ;
#147 = LOCAL_TIME ( 18, 49, 59.00000000000000000, #384 ) ;
#148 = CALENDAR_DATE ( 2026, 22, 6 ) ;
#149 = APPROVAL_ROLE ( '' ) ;
#150 = PERSON_AND_ORGANIZATION_ROLE ( 'design_supplier' ) ;
#151 =( NAMED_UNIT ( * ) PLANE_ANGLE_UNIT ( ) SI_UNIT ( $, .RADIAN. ) );
#152 = APPROVAL_PERSON_ORGANIZATION ( #137, #186, #104 ) ;
#153 =( GEOMETRIC_REPRESENTATION_CONTEXT ( 3 ) GLOBAL_UNCERTAINTY_ASSIGNED_CONTEXT ( ( #177 ) ) GLOBAL_UNIT_ASSIGNED_CONTEXT ( ( #33, #277, #43 ) ) REPRESENTATION_CONTEXT ( 'NONE', 'WORKASPACE' ) );
#154 = APPROVAL_DATE_TIME ( #363, #199 ) ;
#155 = CC_DESIGN_APPROVAL ( #257, ( #380 ) ) ;
#156 = CC_DESIGN_PERSON_AND_ORGANIZATION_ASSIGNMENT ( #291, #210, ( #208 ) ) ;
#157 = APPROVAL_ROLE ( '' ) ;
#158 = APPROVAL_STATUS ( 'not_yet_approved' ) ;
#159 = APPROVAL_PERSON_ORGANIZATION ( #355, #184, #325 ) ;
#160 = SHAPE_REPRESENTATION ( 'C12.step', ( #278, #60, #254, #232 ), #285 ) ;
#161 = CC_DESIGN_SECURITY_CLASSIFICATION ( #208, ( #373 ) ) ;
#162 = DESIGN_CONTEXT ( 'detailed design', #144, 'design' ) ;
#163 = APPROVAL_DATE_TIME ( #41, #127 ) ;
#164 = PERSON_AND_ORGANIZATION_ROLE ( 'classification_officer' ) ;
#165 =( REPRESENTATION_RELATIONSHIP ('NONE','NONE', #160, #298 ) REPRESENTATION_RELATIONSHIP_WITH_TRANSFORMATION ( #356 )SHAPE_REPRESENTATION_RELATIONSHIP( ) );
#166 = PERSON_AND_ORGANIZATION_ROLE ( 'design_owner' ) ;
#167 = COORDINATED_UNIVERSAL_TIME_OFFSET ( 10, 0, .AHEAD. ) ;
#168 = CARTESIAN_POINT ( 'NONE',  ( 16.64999871823200550, 11.14999035644500402, -2.058321952819998302 ) ) ;
#169 = COORDINATED_UNIVERSAL_TIME_OFFSET ( 10, 0, .AHEAD. ) ;
#170 = PERSON_AND_ORGANIZATION ( #18446744073709551615, #18446744073709551615 ) ;
#171 = DATE_TIME_ROLE ( 'creation_date' ) ;
#172 = PRODUCT ( 'C12.step', 'C12.step', '', ( #367 ) ) ;
#173 = CC_DESIGN_PERSON_AND_ORGANIZATION_ASSIGNMENT ( #331, #166, ( #172 ) ) ;
#174 = LOCAL_TIME ( 18, 49, 59.00000000000000000, #195 ) ;
#175 = LOCAL_TIME ( 18, 49, 59.00000000000000000, #211 ) ;
#176 = APPROVAL_STATUS ( 'not_yet_approved' ) ;
#177 = UNCERTAINTY_MEASURE_WITH_UNIT (LENGTH_MEASURE( 1.000000000000000082E-05 ), #33, 'distance_accuracy_value', 'NONE');
#178 = PERSON_AND_ORGANIZATION_ROLE ( 'creator' ) ;
#179 = APPROVAL ( #233, 'UNKNOWN' ) ;
#180 = PERSON_AND_ORGANIZATION_ROLE ( 'creator' ) ;
#181 = COORDINATED_UNIVERSAL_TIME_OFFSET ( 10, 0, .AHEAD. ) ;
#182 = DATE_AND_TIME ( #217, #30 ) ;
#183 = DATE_AND_TIME ( #56, #6 ) ;
#184 = APPROVAL ( #110, 'Coincident' ) ;
#185 = CARTESIAN_POINT ( 'NONE',  ( 0.000000000000000000, 0.000000000000000000, 0.000000000000000000 ) ) ;
#186 = APPROVAL ( #377, 'Coincident' ) ;
#187 = SECURITY_CLASSIFICATION_LEVEL ( 'unclassified' ) ;
#188 = IDENTIFICATION_ROLE ( 'external document id and location', $) ;
#189 = CC_DESIGN_PERSON_AND_ORGANIZATION_ASSIGNMENT ( #293, #320, ( #350 ) ) ;
#190 = APPROVAL_PERSON_ORGANIZATION ( #299, #316, #157 ) ;
#191 = CALENDAR_DATE ( 2026, 22, 6 ) ;
#192 =( NAMED_UNIT ( * ) SI_UNIT ( $, .STERADIAN. ) SOLID_ANGLE_UNIT ( ) );
#193 = DIRECTION ( 'NONE',  ( 1.000000000000000000, 0.000000000000000000, 0.000000000000000000 ) ) ;
#194 = DIRECTION ( 'NONE',  ( 1.000000000000000222, -1.092455418989176591E-28, 4.890937612370273194E-29 ) ) ;
#195 = COORDINATED_UNIVERSAL_TIME_OFFSET ( 10, 0, .AHEAD. ) ;
#196 = CC_DESIGN_APPROVAL ( #184, ( #74 ) ) ;
#197 = CALENDAR_DATE ( 2026, 22, 6 ) ;
#198 = DIRECTION ( 'NONE',  ( 4.890937612370273194E-29, -3.155443620884047222E-30, 0.9999999999999997780 ) ) ;
#199 = APPROVAL ( #248, 'Coincident' ) ;
#200 = CC_DESIGN_DATE_AND_TIME_ASSIGNMENT ( #338, #68, ( #83 ) ) ;
#201 = CARTESIAN_POINT ( 'NONE',  ( 16.64999871823200550, 10.64999035644500402, -2.058321952820000078 ) ) ;
#202 = LOCAL_TIME ( 18, 49, 59.00000000000000000, #382 ) ;
#203 = APPROVAL_DATE_TIME ( #324, #375 ) ;
#204 = PRODUCT_DEFINITION_SHAPE ( 'NONE', 'NONE',  #107 ) ;
#205 = APPROVAL_STATUS ( 'not_yet_approved' ) ;
#206 = CALENDAR_DATE ( 2026, 22, 6 ) ;
#207 = APPLICATION_CONTEXT ( 'configuration controlled 3d designs of mechanical parts and assemblies' ) ;
#208 = SECURITY_CLASSIFICATION ( '', '', #262 ) ;
#209 = LOCAL_TIME ( 18, 49, 59.00000000000000000, #303 ) ;
#210 = PERSON_AND_ORGANIZATION_ROLE ( 'classification_officer' ) ;
#211 = COORDINATED_UNIVERSAL_TIME_OFFSET ( 10, 0, .AHEAD. ) ;
#212 = PERSON_AND_ORGANIZATION ( #18446744073709551615, #18446744073709551615 ) ;
#213 = PRODUCT_DEFINITION_FORMATION_WITH_SPECIFIED_SOURCE ( 'Symmetric', '', #172, .NOT_KNOWN. ) ;
#214 = CC_DESIGN_SECURITY_CLASSIFICATION ( #140, ( #380 ) ) ;
#215 = DATE_AND_TIME ( #89, #61 ) ;
#216 = DATE_AND_TIME ( #91, #268 ) ;
#217 = CALENDAR_DATE ( 2026, 22, 6 ) ;
#218 = APPROVAL_PERSON_ORGANIZATION ( #93, #199, #149 ) ;
#219 = PROPERTY_DEFINITION_REPRESENTATION ( #252, #78 ) ;
#220 = PERSON ( 'NAUO-PER256', 'UNSPECIFIED', 'UNSPECIFIED', ('UNSPECIFIED'), ('UNSPECIFIED'), ('UNSPECIFIED') ) ;
#221 = PERSON_AND_ORGANIZATION ( #345, #340 ) ;
#222 = PERSON_AND_ORGANIZATION ( #18446744073709551615, #18446744073709551615 ) ;
#223 = CALENDAR_DATE ( 2026, 22, 6 ) ;
#224 = SECURITY_CLASSIFICATION_LEVEL ( 'unclassified' ) ;
#225 = AXIS2_PLACEMENT_3D ( 'NONE', #63, #271, #193 ) ;
#226 =( NAMED_UNIT ( * ) PLANE_ANGLE_UNIT ( ) SI_UNIT ( $, .RADIAN. ) );
#227 = APPROVAL_PERSON_ORGANIZATION ( #221, #69, #370 ) ;
#228 = OBJECT_ROLE ('mandatory',$ ) ;
#229 = CARTESIAN_POINT ( 'NONE',  ( 16.64999871823200550, 10.15000561523400080, -2.058321952820000078 ) ) ;
#230 =( LENGTH_UNIT ( ) NAMED_UNIT ( * ) SI_UNIT ( .MILLI., .METRE. ) );
#231 = APPROVAL_DATE_TIME ( #106, #184 ) ;
#232 = AXIS2_PLACEMENT_3D ( 'NONE', #168, #198, #135 ) ;
#233 = APPROVAL_STATUS ( 'not_yet_approved' ) ;
#234 = PERSON_AND_ORGANIZATION ( #18446744073709551615, #18446744073709551615 ) ;
#235 = PRODUCT ( '6461079856.step', '6461079856.step', '', ( #16 ) ) ;
#236 = PERSON_AND_ORGANIZATION ( #18446744073709551615, #18446744073709551615 ) ;
#237 = APPROVAL_STATUS ( 'not_yet_approved' ) ;
#238 = LOCAL_TIME ( 18, 49, 59.00000000000000000, #269 ) ;
#239 = PERSON_AND_ORGANIZATION_ROLE ( 'design_owner' ) ;
#240 = DATE_AND_TIME ( #191, #209 ) ;
#241 = CC_DESIGN_PERSON_AND_ORGANIZATION_ASSIGNMENT ( #234, #275, ( #74 ) ) ;
#242 = COORDINATED_UNIVERSAL_TIME_OFFSET ( 10, 0, .AHEAD. ) ;
#243 = APPLIED_EXTERNAL_IDENTIFICATION_ASSIGNMENT ( '6461079856.step.STEP' , #188, #323,( #101) ) ;
#244 = PRODUCT_DEFINITION ( 'General', '', #213, #162 ) ;
#245 = APPROVAL_ROLE ( '' ) ;
#246 = EXTERNAL_SOURCE (IDENTIFIER('') ) ;
#247 = DATE_TIME_ROLE ( 'classification_date' ) ;
#248 = APPROVAL_STATUS ( 'not_yet_approved' ) ;
#249 = CC_DESIGN_PERSON_AND_ORGANIZATION_ASSIGNMENT ( #299, #1, ( #90 ) ) ;
#250 = CC_DESIGN_APPROVAL ( #199, ( #140 ) ) ;
#251 = APPROVAL_DATE_TIME ( #183, #179 ) ;
#252 = PROPERTY_DEFINITION ('external definition','', #101 ) ;
#253 = PROPERTY_DEFINITION_REPRESENTATION ( #109, #78 ) ;
#254 = AXIS2_PLACEMENT_3D ( 'NONE', #201, #346, #194 ) ;
#255 = CC_DESIGN_SECURITY_CLASSIFICATION ( #108, ( #390 ) ) ;
#256 = DIRECTION ( 'NONE',  ( 1.000000000000000222, -1.092455418989176591E-28, 4.890937612370273194E-29 ) ) ;
#257 = APPROVAL ( #58, 'Coincident' ) ;
#258 = PRODUCT_DEFINITION_SHAPE ( 'NONE', 'NONE',  #244 ) ;
#259 = DATE_AND_TIME ( #77, #202 ) ;
#260 = APPROVAL_PERSON_ORGANIZATION ( #212, #257, #245 ) ;
#261 = PROPERTY_DEFINITION ('external definition','', #307 ) ;
#262 = SECURITY_CLASSIFICATION_LEVEL ( 'unclassified' ) ;
#263 = CC_DESIGN_DATE_AND_TIME_ASSIGNMENT ( #240, #247, ( #140 ) ) ;
#264 = CC_DESIGN_PERSON_AND_ORGANIZATION_ASSIGNMENT ( #66, #281, ( #83 ) ) ;
#265 = APPROVAL_ROLE ( '' ) ;
#266 =( REPRESENTATION_RELATIONSHIP ('NONE','NONE', #160, #78 ) REPRESENTATION_RELATIONSHIP_WITH_TRANSFORMATION ( #341 )SHAPE_REPRESENTATION_RELATIONSHIP( ) );
#267 = SHAPE_DEFINITION_REPRESENTATION ( #258, #160 ) ;
#268 = LOCAL_TIME ( 18, 49, 59.00000000000000000, #358 ) ;
#269 = COORDINATED_UNIVERSAL_TIME_OFFSET ( 10, 0, .AHEAD. ) ;
#270 = ROLE_ASSOCIATION ( #228, #23 ) ;
#271 = DIRECTION ( 'NONE',  ( 0.000000000000000000, 0.000000000000000000, 1.000000000000000000 ) ) ;
#272 = PERSON_AND_ORGANIZATION_ROLE ( 'classification_officer' ) ;
#273 = APPLIED_EXTERNAL_IDENTIFICATION_ASSIGNMENT ( '6461079856.step.STEP' , #117, #246,( #309) ) ;
#274 = ITEM_DEFINED_TRANSFORMATION ( 'NONE', 'NONE', #60,  #12 ) ;
#275 = PERSON_AND_ORGANIZATION_ROLE ( 'creator' ) ;
#276 = APPROVAL_ROLE ( '' ) ;
#277 =( NAMED_UNIT ( * ) PLANE_ANGLE_UNIT ( ) SI_UNIT ( $, .RADIAN. ) );
#278 = AXIS2_PLACEMENT_3D ( 'NONE', #94, #5, #280 ) ;
#279 = LOCAL_TIME ( 18, 49, 59.00000000000000000, #46 ) ;
#280 = DIRECTION ( 'NONE',  ( 1.000000000000000000, 0.000000000000000000, 0.000000000000000000 ) ) ;
#281 = PERSON_AND_ORGANIZATION_ROLE ( 'classification_officer' ) ;
#282 = DATE_TIME_ROLE ( 'classification_date' ) ;
#283 = CALENDAR_DATE ( 2026, 22, 6 ) ;
#284 = DOCUMENT_TYPE ( 'geometry' ) ;
#285 =( GEOMETRIC_REPRESENTATION_CONTEXT ( 3 ) GLOBAL_UNCERTAINTY_ASSIGNED_CONTEXT ( ( #300 ) ) GLOBAL_UNIT_ASSIGNED_CONTEXT ( ( #230, #226, #315 ) ) REPRESENTATION_CONTEXT ( 'NONE', 'WORKASPACE' ) );
#286 = APPROVAL_PERSON_ORGANIZATION ( #7, #179, #276 ) ;
#287 = APPLICATION_PROTOCOL_DEFINITION ( 'international standard', 'config_control_design', 1994, #144 ) ;
#288 = PRODUCT_DEFINITION_SHAPE ( 'NONE', 'NONE',  #389 ) ;
#289 = APPLICATION_PROTOCOL_DEFINITION ( 'international standard', 'config_control_design', 1994, #125 ) ;
#290 = CC_DESIGN_DATE_AND_TIME_ASSIGNMENT ( #259, #321, ( #208 ) ) ;
#291 = PERSON_AND_ORGANIZATION ( #18446744073709551615, #18446744073709551615 ) ;
#292 = LOCAL_TIME ( 18, 49, 59.00000000000000000, #40 ) ;
#293 = PERSON_AND_ORGANIZATION ( #18446744073709551615, #18446744073709551615 ) ;
#294 = APPROVAL ( #237, 'Coincident' ) ;
#295 = APPROVAL_ROLE ( '' ) ;
#296 = COORDINATED_UNIVERSAL_TIME_OFFSET ( 10, 0, .AHEAD. ) ;
#297 = CC_DESIGN_APPROVAL ( #115, ( #107 ) ) ;
#298 = SHAPE_REPRESENTATION ( '6534431024.step', ( #225 ), #153 ) ;
#299 = PERSON_AND_ORGANIZATION ( #385, #44 ) ;
#300 = UNCERTAINTY_MEASURE_WITH_UNIT (LENGTH_MEASURE( 1.000000000000000082E-05 ), #230, 'distance_accuracy_value', 'NONE');
#301 = SHAPE_DEFINITION_REPRESENTATION ( #113, #78 ) ;
#302 =( LENGTH_UNIT ( ) NAMED_UNIT ( * ) SI_UNIT ( .MILLI., .METRE. ) );
#303 = COORDINATED_UNIVERSAL_TIME_OFFSET ( 10, 0, .AHEAD. ) ;
#304 = UNCERTAINTY_MEASURE_WITH_UNIT (LENGTH_MEASURE( 1.000000000000000082E-05 ), #302, 'distance_accuracy_value', 'NONE');
#305 = APPLICATION_CONTEXT ( 'configuration controlled 3d designs of mechanical parts and assemblies' ) ;
#306 = PRODUCT_RELATED_PRODUCT_CATEGORY ( 'detail', '', ( #172 ) ) ;
#307 = DOCUMENT_FILE ( '6534431024.step.STEP' , '', '', #39, '' ,$ ) ;
#308 = CC_DESIGN_PERSON_AND_ORGANIZATION_ASSIGNMENT ( #236, #239, ( #235 ) ) ;
#309 = DOCUMENT_FILE ( '6461079856.step.STEP' , '', '', #284, '' ,$ ) ;
#310 = CC_DESIGN_APPROVAL ( #294, ( #373 ) ) ;
#311 = CONTEXT_DEPENDENT_SHAPE_REPRESENTATION ( #266, #142 ) ;
#312 = PERSON_AND_ORGANIZATION ( #18446744073709551615, #18446744073709551615 ) ;
#313 = COORDINATED_UNIVERSAL_TIME_OFFSET ( 10, 0, .AHEAD. ) ;
#314 = PROPERTY_DEFINITION_REPRESENTATION ( #261, #298 ) ;
#315 =( NAMED_UNIT ( * ) SI_UNIT ( $, .STERADIAN. ) SOLID_ANGLE_UNIT ( ) );
#316 = APPROVAL ( #335, 'UNKNOWN' ) ;
#317 = APPROVAL_DATE_TIME ( #9, #186 ) ;
#318 = CC_DESIGN_PERSON_AND_ORGANIZATION_ASSIGNMENT ( #170, #378, ( #373 ) ) ;
#319 = DATE_AND_TIME ( #206, #147 ) ;
#320 = PERSON_AND_ORGANIZATION_ROLE ( 'design_owner' ) ;
#321 = DATE_TIME_ROLE ( 'classification_date' ) ;
#322 = LOCAL_TIME ( 18, 49, 59.00000000000000000, #84 ) ;
#323 = EXTERNAL_SOURCE (IDENTIFIER('') ) ;
#324 = DATE_AND_TIME ( #53, #322 ) ;
#325 = APPROVAL_ROLE ( '' ) ;
#326 = PERSON_AND_ORGANIZATION_ROLE ( 'creator' ) ;
#327 = APPROVAL_PERSON_ORGANIZATION ( #72, #127, #342 ) ;
#328 = APPROVAL_PERSON_ORGANIZATION ( #116, #294, #295 ) ;
#329 = COORDINATED_UNIVERSAL_TIME_OFFSET ( 10, 0, .AHEAD. ) ;
#330 = DESIGN_CONTEXT ( 'detailed design', #207, 'design' ) ;
#331 = PERSON_AND_ORGANIZATION ( #18446744073709551615, #18446744073709551615 ) ;
#332 = APPROVAL_DATE_TIME ( #25, #257 ) ;
#333 = APPROVAL_DATE_TIME ( #386, #316 ) ;
#334 = PRODUCT_RELATED_PRODUCT_CATEGORY ( 'detail', '', ( #350 ) ) ;
#335 = APPROVAL_STATUS ( 'not_yet_approved' ) ;
#336 = DATE_TIME_ROLE ( 'classification_date' ) ;
#337 = CALENDAR_DATE ( 2026, 22, 6 ) ;
#338 = DATE_AND_TIME ( #223, #55 ) ;
#339 = LOCAL_TIME ( 18, 49, 59.00000000000000000, #313 ) ;
#340 = ORGANIZATION ( 'NAUO-ORG257', 'UNSPECIFIED', 'UNSPECIFIED' ) ;
#341 = ITEM_DEFINED_TRANSFORMATION ( 'NONE', 'NONE', #232,  #12 ) ;
#342 = APPROVAL_ROLE ( '' ) ;
#343 =( REPRESENTATION_RELATIONSHIP ('NONE','NONE', #160, #78 ) REPRESENTATION_RELATIONSHIP_WITH_TRANSFORMATION ( #274 )SHAPE_REPRESENTATION_RELATIONSHIP( ) );
#344 = DATE_AND_TIME ( #283, #174 ) ;
#345 = PERSON ( 'NAUO-PER257', 'UNSPECIFIED', 'UNSPECIFIED', ('UNSPECIFIED'), ('UNSPECIFIED'), ('UNSPECIFIED') ) ;
#346 = DIRECTION ( 'NONE',  ( 4.890937612370273194E-29, -3.155443620884047222E-30, 0.9999999999999997780 ) ) ;
#347 = CC_DESIGN_APPROVAL ( #316, ( #90 ) ) ;
#348 = APPROVAL_DATE_TIME ( #48, #115 ) ;
#349 = APPROVAL_STATUS ( 'not_yet_approved' ) ;
#350 = PRODUCT ( '6534431024.step', '6534431024.step', '', ( #18 ) ) ;
#351 = OBJECT_ROLE ('mandatory',$ ) ;
#352 = DATE_AND_TIME ( #148, #279 ) ;
#353 = APPROVAL_DATE_TIME ( #352, #294 ) ;
#354 = LOCAL_TIME ( 18, 49, 59.00000000000000000, #79 ) ;
#355 = PERSON_AND_ORGANIZATION ( #18446744073709551615, #18446744073709551615 ) ;
#356 = ITEM_DEFINED_TRANSFORMATION ( 'NONE', 'NONE', #254,  #225 ) ;
#357 = APPROVAL_PERSON_ORGANIZATION ( #20, #85, #114 ) ;
#358 = COORDINATED_UNIVERSAL_TIME_OFFSET ( 10, 0, .AHEAD. ) ;
#359 = COORDINATED_UNIVERSAL_TIME_OFFSET ( 10, 0, .AHEAD. ) ;
#360 = CC_DESIGN_DATE_AND_TIME_ASSIGNMENT ( #319, #171, ( #107 ) ) ;
#361 = DIRECTION ( 'NONE',  ( 1.000000000000000000, 0.000000000000000000, 0.000000000000000000 ) ) ;
#362 = IDENTIFICATION_ROLE ( 'external document id and location', $) ;
#363 = DATE_AND_TIME ( #123, #22 ) ;
#364 = DIRECTION ( 'NONE',  ( 0.000000000000000000, 0.000000000000000000, 1.000000000000000000 ) ) ;
#365 = CC_DESIGN_APPROVAL ( #375, ( #83 ) ) ;
#366 = CONTEXT_DEPENDENT_SHAPE_REPRESENTATION ( #165, #288 ) ;
#367 = MECHANICAL_CONTEXT ( 'NONE', #82, 'mechanical' ) ;
#368 = PROPERTY_DEFINITION ('document property','', #101 ) ;
#369 = APPROVAL_STATUS ( 'not_yet_approved' ) ;
#370 = APPROVAL_ROLE ( '' ) ;
#371 = EXTERNAL_SOURCE (IDENTIFIER('') ) ;
#372 = LOCAL_TIME ( 18, 49, 59.00000000000000000, #169 ) ;
#373 = PRODUCT_DEFINITION_FORMATION_WITH_SPECIFIED_SOURCE ( 'Symmetric', '', #350, .NOT_KNOWN. ) ;
#374 = DATE_AND_TIME ( #197, #292 ) ;
#375 = APPROVAL ( #205, 'Coincident' ) ;
#376 = CALENDAR_DATE ( 2026, 22, 6 ) ;
#377 = APPROVAL_STATUS ( 'not_yet_approved' ) ;
#378 = PERSON_AND_ORGANIZATION_ROLE ( 'design_supplier' ) ;
#379 = CC_DESIGN_APPROVAL ( #127, ( #244 ) ) ;
#380 = PRODUCT_DEFINITION_FORMATION_WITH_SPECIFIED_SOURCE ( 'Symmetric', '', #235, .NOT_KNOWN. ) ;
#381 = DATE_AND_TIME ( #146, #175 ) ;
#382 = COORDINATED_UNIVERSAL_TIME_OFFSET ( 10, 0, .AHEAD. ) ;
#383 = APPLICATION_PROTOCOL_DEFINITION ( 'international standard', 'config_control_design', 1994, #305 ) ;
#384 = COORDINATED_UNIVERSAL_TIME_OFFSET ( 10, 0, .AHEAD. ) ;
#385 = PERSON ( 'NAUO-PER255', 'UNSPECIFIED', 'UNSPECIFIED', ('UNSPECIFIED'), ('UNSPECIFIED'), ('UNSPECIFIED') ) ;
#386 = DATE_AND_TIME ( #54, #238 ) ;
#387 = CC_DESIGN_APPROVAL ( #69, ( #108 ) ) ;
#388 = NEXT_ASSEMBLY_USAGE_OCCURRENCE ( 'NAUO255', ' ', ' ', #244, #74, $ ) ;
#389 = NEXT_ASSEMBLY_USAGE_OCCURRENCE ( 'NAUO256', ' ', ' ', #244, #107, $ ) ;
#390 = NEXT_ASSEMBLY_USAGE_OCCURRENCE ( 'NAUO257', ' ', ' ', #244, #74, $ ) ;
ENDSEC;
END-ISO-10303-21;
