ISO-10303-21;
HEADER;
FILE_DESCRIPTION (( 'STEP AP203' ),
    '1' );
FILE_NAME ('C13.step.STEP',
    '2026-06-22T08:49:59',
    ( 'localuser' ),
    ( '' ),
    'SwSTEP 2.0',
    'SolidWorks 2025',
    '' );
FILE_SCHEMA (( 'CONFIG_CONTROL_DESIGN' ));
ENDSEC;

DATA;
#1 = PERSON_AND_ORGANIZATION ( #18446744073709551615, #18446744073709551615 ) ;
#2 = APPROVAL ( #363, 'Coincident' ) ;
#3 = APPLICATION_PROTOCOL_DEFINITION ( 'international standard', 'config_control_design', 1994, #365 ) ;
#4 = DATE_AND_TIME ( #312, #232 ) ;
#5 = CC_DESIGN_SECURITY_CLASSIFICATION ( #173, ( #344 ) ) ;
#6 = APPROVAL_ROLE ( '' ) ;
#7 =( NAMED_UNIT ( * ) PLANE_ANGLE_UNIT ( ) SI_UNIT ( $, .RADIAN. ) );
#8 = CONTEXT_DEPENDENT_SHAPE_REPRESENTATION ( #178, #51 ) ;
#9 = PERSON_AND_ORGANIZATION ( #18446744073709551615, #18446744073709551615 ) ;
#10 = CC_DESIGN_APPROVAL ( #2, ( #379 ) ) ;
#11 = CALENDAR_DATE ( 2026, 22, 6 ) ;
#12 = CC_DESIGN_DATE_AND_TIME_ASSIGNMENT ( #165, #119, ( #170 ) ) ;
#13 = APPROVAL_ROLE ( '' ) ;
#14 =( LENGTH_UNIT ( ) NAMED_UNIT ( * ) SI_UNIT ( .MILLI., .METRE. ) );
#15 = CC_DESIGN_APPROVAL ( #358, ( #214 ) ) ;
#16 = DOCUMENT_TYPE ( 'geometry' ) ;
#17 = PERSON_AND_ORGANIZATION_ROLE ( 'classification_officer' ) ;
#18 = PERSON_AND_ORGANIZATION_ROLE ( 'design_owner' ) ;
#19 = CALENDAR_DATE ( 2026, 22, 6 ) ;
#20 = PERSON ( 'NAUO-PER269', 'UNSPECIFIED', 'UNSPECIFIED', ('UNSPECIFIED'), ('UNSPECIFIED'), ('UNSPECIFIED') ) ;
#21 = APPROVAL_STATUS ( 'not_yet_approved' ) ;
#22 = COORDINATED_UNIVERSAL_TIME_OFFSET ( 10, 0, .AHEAD. ) ;
#23 = LOCAL_TIME ( 18, 49, 59.00000000000000000, #208 ) ;
#24 = PERSON_AND_ORGANIZATION_ROLE ( 'creator' ) ;
#25 = CC_DESIGN_PERSON_AND_ORGANIZATION_ASSIGNMENT ( #243, #60, ( #236 ) ) ;
#26 = APPROVAL_ROLE ( '' ) ;
#27 = DATE_AND_TIME ( #120, #23 ) ;
#28 = LOCAL_TIME ( 18, 49, 59.00000000000000000, #115 ) ;
#29 = CC_DESIGN_SECURITY_CLASSIFICATION ( #214, ( #390 ) ) ;
#30 = APPROVAL_PERSON_ORGANIZATION ( #90, #86, #368 ) ;
#31 = MECHANICAL_CONTEXT ( 'NONE', #89, 'mechanical' ) ;
#32 = UNCERTAINTY_MEASURE_WITH_UNIT (LENGTH_MEASURE( 1.000000000000000082E-05 ), #220, 'distance_accuracy_value', 'NONE');
#33 = CC_DESIGN_DATE_AND_TIME_ASSIGNMENT ( #241, #144, ( #245 ) ) ;
#34 = DATE_AND_TIME ( #304, #316 ) ;
#35 = CC_DESIGN_PERSON_AND_ORGANIZATION_ASSIGNMENT ( #337, #280, ( #354 ) ) ;
#36 = COORDINATED_UNIVERSAL_TIME_OFFSET ( 10, 0, .AHEAD. ) ;
#37 = PRODUCT_DEFINITION ( 'General', '', #209, #167 ) ;
#38 = CARTESIAN_POINT ( 'NONE',  ( 0.000000000000000000, 0.000000000000000000, 0.000000000000000000 ) ) ;
#39 = CC_DESIGN_APPROVAL ( #133, ( #170 ) ) ;
#40 = DATE_AND_TIME ( #11, #132 ) ;
#41 = APPLICATION_CONTEXT ( 'configuration controlled 3d designs of mechanical parts and assemblies' ) ;
#42 = PROPERTY_DEFINITION_REPRESENTATION ( #249, #97 ) ;
#43 = PERSON_AND_ORGANIZATION ( #18446744073709551615, #18446744073709551615 ) ;
#44 = CC_DESIGN_PERSON_AND_ORGANIZATION_ASSIGNMENT ( #55, #266, ( #37 ) ) ;
#45 = DATE_AND_TIME ( #218, #65 ) ;
#46 = AXIS2_PLACEMENT_3D ( 'NONE', #38, #190, #151 ) ;
#47 = LOCAL_TIME ( 18, 49, 59.00000000000000000, #168 ) ;
#48 = CC_DESIGN_PERSON_AND_ORGANIZATION_ASSIGNMENT ( #52, #17, ( #214 ) ) ;
#49 = CARTESIAN_POINT ( 'NONE',  ( 0.000000000000000000, 0.000000000000000000, 0.000000000000000000 ) ) ;
#50 = DIRECTION ( 'NONE',  ( 1.000000000000000222, -1.092455418989176591E-28, 4.890937612370273194E-29 ) ) ;
#51 = PRODUCT_DEFINITION_SHAPE ( 'NONE', 'NONE',  #388 ) ;
#52 = PERSON_AND_ORGANIZATION ( #20, #71 ) ;
#53 = PERSON_AND_ORGANIZATION ( #18446744073709551615, #18446744073709551615 ) ;
#54 = COORDINATED_UNIVERSAL_TIME_OFFSET ( 10, 0, .AHEAD. ) ;
#55 = PERSON_AND_ORGANIZATION ( #18446744073709551615, #18446744073709551615 ) ;
#56 = CC_DESIGN_PERSON_AND_ORGANIZATION_ASSIGNMENT ( #73, #185, ( #344 ) ) ;
#57 = COORDINATED_UNIVERSAL_TIME_OFFSET ( 10, 0, .AHEAD. ) ;
#58 = COORDINATED_UNIVERSAL_TIME_OFFSET ( 10, 0, .AHEAD. ) ;
#59 = LOCAL_TIME ( 18, 49, 59.00000000000000000, #300 ) ;
#60 = PERSON_AND_ORGANIZATION_ROLE ( 'creator' ) ;
#61 = OBJECT_ROLE ('mandatory',$ ) ;
#62 = APPLICATION_PROTOCOL_DEFINITION ( 'international standard', 'config_control_design', 1994, #302 ) ;
#63 = UNCERTAINTY_MEASURE_WITH_UNIT (LENGTH_MEASURE( 1.000000000000000082E-05 ), #14, 'distance_accuracy_value', 'NONE');
#64 = PERSON_AND_ORGANIZATION ( #18446744073709551615, #18446744073709551615 ) ;
#65 = LOCAL_TIME ( 18, 49, 59.00000000000000000, #36 ) ;
#66 = APPROVAL_DATE_TIME ( #27, #2 ) ;
#67 = DATE_AND_TIME ( #131, #116 ) ;
#68 = APPROVAL ( #281, 'UNKNOWN' ) ;
#69 = SECURITY_CLASSIFICATION_LEVEL ( 'unclassified' ) ;
#70 = CC_DESIGN_PERSON_AND_ORGANIZATION_ASSIGNMENT ( #357, #24, ( #170 ) ) ;
#71 = ORGANIZATION ( 'NAUO-ORG269', 'UNSPECIFIED', 'UNSPECIFIED' ) ;
#72 = PERSON_AND_ORGANIZATION_ROLE ( 'classification_officer' ) ;
#73 = PERSON_AND_ORGANIZATION ( #18446744073709551615, #18446744073709551615 ) ;
#74 = CC_DESIGN_PERSON_AND_ORGANIZATION_ASSIGNMENT ( #174, #211, ( #196 ) ) ;
#75 = PERSON_AND_ORGANIZATION ( #157, #259 ) ;
#76 = LOCAL_TIME ( 18, 49, 59.00000000000000000, #212 ) ;
#77 = APPROVAL_DATE_TIME ( #107, #262 ) ;
#78 = ROLE_ASSOCIATION ( #297, #383 ) ;
#79 = CALENDAR_DATE ( 2026, 22, 6 ) ;
#80 = DIRECTION ( 'NONE',  ( 1.000000000000000000, 0.000000000000000000, 0.000000000000000000 ) ) ;
#81 = EXTERNAL_SOURCE (IDENTIFIER('') ) ;
#82 = SECURITY_CLASSIFICATION ( '', '', #230 ) ;
#83 = CC_DESIGN_APPROVAL ( #276, ( #173 ) ) ;
#84 = DIRECTION ( 'NONE',  ( 4.890937612370273194E-29, -3.155443620884047222E-30, 0.9999999999999997780 ) ) ;
#85 = CC_DESIGN_PERSON_AND_ORGANIZATION_ASSIGNMENT ( #53, #138, ( #209 ) ) ;
#86 = APPROVAL ( #99, 'Coincident' ) ;
#87 = PERSON_AND_ORGANIZATION ( #18446744073709551615, #18446744073709551615 ) ;
#88 = SHAPE_DEFINITION_REPRESENTATION ( #348, #109 ) ;
#89 = APPLICATION_CONTEXT ( 'configuration controlled 3d designs of mechanical parts and assemblies' ) ;
#90 = PERSON_AND_ORGANIZATION ( #18446744073709551615, #18446744073709551615 ) ;
#91 = APPROVAL_PERSON_ORGANIZATION ( #75, #356, #342 ) ;
#92 = PERSON_AND_ORGANIZATION ( #18446744073709551615, #18446744073709551615 ) ;
#93 = MECHANICAL_CONTEXT ( 'NONE', #302, 'mechanical' ) ;
#94 = PERSON ( 'NAUO-PER267', 'UNSPECIFIED', 'UNSPECIFIED', ('UNSPECIFIED'), ('UNSPECIFIED'), ('UNSPECIFIED') ) ;
#95 = PERSON_AND_ORGANIZATION_ROLE ( 'design_supplier' ) ;
#96 = LOCAL_TIME ( 18, 49, 59.00000000000000000, #22 ) ;
#97 = SHAPE_REPRESENTATION ( '6461079856.step', ( #46 ), #327 ) ;
#98 = CC_DESIGN_DATE_AND_TIME_ASSIGNMENT ( #40, #275, ( #173 ) ) ;
#99 = APPROVAL_STATUS ( 'not_yet_approved' ) ;
#100 = APPROVAL ( #271, 'Coincident' ) ;
#101 = APPROVAL_DATE_TIME ( #67, #276 ) ;
#102 = SECURITY_CLASSIFICATION_LEVEL ( 'unclassified' ) ;
#103 = IDENTIFICATION_ROLE ( 'external document id and location', $) ;
#104 = COORDINATED_UNIVERSAL_TIME_OFFSET ( 10, 0, .AHEAD. ) ;
#105 = APPROVAL_DATE_TIME ( #375, #356 ) ;
#106 = PRODUCT_RELATED_PRODUCT_CATEGORY ( 'detail', '', ( #196 ) ) ;
#107 = DATE_AND_TIME ( #353, #96 ) ;
#108 = APPROVAL_PERSON_ORGANIZATION ( #359, #244, #330 ) ;
#109 = SHAPE_REPRESENTATION ( 'C13.step', ( #225, #219, #284, #191 ), #150 ) ;
#110 = CC_DESIGN_PERSON_AND_ORGANIZATION_ASSIGNMENT ( #239, #269, ( #379 ) ) ;
#111 = PRODUCT_DEFINITION_SHAPE ( 'NONE', 'NONE',  #170 ) ;
#112 = CALENDAR_DATE ( 2026, 22, 6 ) ;
#113 = ITEM_DEFINED_TRANSFORMATION ( 'NONE', 'NONE', #191,  #378 ) ;
#114 = CC_DESIGN_PERSON_AND_ORGANIZATION_ASSIGNMENT ( #43, #18, ( #257 ) ) ;
#115 = COORDINATED_UNIVERSAL_TIME_OFFSET ( 10, 0, .AHEAD. ) ;
#116 = LOCAL_TIME ( 18, 49, 59.00000000000000000, #283 ) ;
#117 = DATE_AND_TIME ( #258, #267 ) ;
#118 = APPLICATION_PROTOCOL_DEFINITION ( 'international standard', 'config_control_design', 1994, #41 ) ;
#119 = DATE_TIME_ROLE ( 'creation_date' ) ;
#120 = CALENDAR_DATE ( 2026, 22, 6 ) ;
#121 = DOCUMENT_TYPE ( 'geometry' ) ;
#122 = CC_DESIGN_PERSON_AND_ORGANIZATION_ASSIGNMENT ( #92, #124, ( #245 ) ) ;
#123 = PERSON_AND_ORGANIZATION ( #18446744073709551615, #18446744073709551615 ) ;
#124 = PERSON_AND_ORGANIZATION_ROLE ( 'classification_officer' ) ;
#125 = DATE_AND_TIME ( #153, #226 ) ;
#126 = LOCAL_TIME ( 18, 49, 59.00000000000000000, #141 ) ;
#127 = CONTEXT_DEPENDENT_SHAPE_REPRESENTATION ( #240, #287 ) ;
#128 = DOCUMENT_FILE ( '6461079856.step.STEP' , '', '', #121, '' ,$ ) ;
#129 = SHAPE_DEFINITION_REPRESENTATION ( #111, #97 ) ;
#130 = CC_DESIGN_APPROVAL ( #244, ( #245 ) ) ;
#131 = CALENDAR_DATE ( 2026, 22, 6 ) ;
#132 = LOCAL_TIME ( 18, 49, 59.00000000000000000, #251 ) ;
#133 = APPROVAL ( #180, 'Coincident' ) ;
#134 = APPROVAL_ROLE ( '' ) ;
#135 = OBJECT_ROLE ('mandatory',$ ) ;
#136 = DOCUMENT_FILE ( '6534431024.step.STEP' , '', '', #282, '' ,$ ) ;
#137 = CALENDAR_DATE ( 2026, 22, 6 ) ;
#138 = PERSON_AND_ORGANIZATION_ROLE ( 'design_supplier' ) ;
#139 = APPROVAL_PERSON_ORGANIZATION ( #345, #262, #384 ) ;
#140 =( LENGTH_UNIT ( ) NAMED_UNIT ( * ) SI_UNIT ( .MILLI., .METRE. ) );
#141 = COORDINATED_UNIVERSAL_TIME_OFFSET ( 10, 0, .AHEAD. ) ;
#142 = DATE_AND_TIME ( #177, #59 ) ;
#143 = CC_DESIGN_APPROVAL ( #288, ( #37 ) ) ;
#144 = DATE_TIME_ROLE ( 'classification_date' ) ;
#145 = CC_DESIGN_SECURITY_CLASSIFICATION ( #203, ( #389 ) ) ;
#146 = CC_DESIGN_PERSON_AND_ORGANIZATION_ASSIGNMENT ( #160, #325, ( #209 ) ) ;
#147 = APPROVAL_DATE_TIME ( #175, #244 ) ;
#148 = APPROVAL_DATE_TIME ( #4, #86 ) ;
#149 = PERSON_AND_ORGANIZATION_ROLE ( 'classification_officer' ) ;
#150 =( GEOMETRIC_REPRESENTATION_CONTEXT ( 3 ) GLOBAL_UNCERTAINTY_ASSIGNED_CONTEXT ( ( #242 ) ) GLOBAL_UNIT_ASSIGNED_CONTEXT ( ( #140, #206, #205 ) ) REPRESENTATION_CONTEXT ( 'NONE', 'WORKASPACE' ) );
#151 = DIRECTION ( 'NONE',  ( 1.000000000000000000, 0.000000000000000000, 0.000000000000000000 ) ) ;
#152 = LOCAL_TIME ( 18, 49, 59.00000000000000000, #58 ) ;
#153 = CALENDAR_DATE ( 2026, 22, 6 ) ;
#154 = COORDINATED_UNIVERSAL_TIME_OFFSET ( 10, 0, .AHEAD. ) ;
#155 = APPROVAL_STATUS ( 'not_yet_approved' ) ;
#156 = DATE_TIME_ROLE ( 'creation_date' ) ;
#157 = PERSON ( 'NAUO-PER268', 'UNSPECIFIED', 'UNSPECIFIED', ('UNSPECIFIED'), ('UNSPECIFIED'), ('UNSPECIFIED') ) ;
#158 = CC_DESIGN_PERSON_AND_ORGANIZATION_ASSIGNMENT ( #216, #72, ( #173 ) ) ;
#159 = DIRECTION ( 'NONE',  ( 0.000000000000000000, 0.000000000000000000, 1.000000000000000000 ) ) ;
#160 = PERSON_AND_ORGANIZATION ( #18446744073709551615, #18446744073709551615 ) ;
#161 = PRODUCT_DEFINITION_SHAPE ( 'NONE', 'NONE',  #390 ) ;
#162 = DIRECTION ( 'NONE',  ( 1.000000000000000222, -1.092455418989176591E-28, 4.890937612370273194E-29 ) ) ;
#163 = PRODUCT ( '6461079856.step', '6461079856.step', '', ( #31 ) ) ;
#164 = APPROVAL_PERSON_ORGANIZATION ( #237, #100, #26 ) ;
#165 = DATE_AND_TIME ( #270, #126 ) ;
#166 = DATE_AND_TIME ( #79, #372 ) ;
#167 = DESIGN_CONTEXT ( 'detailed design', #341, 'design' ) ;
#168 = COORDINATED_UNIVERSAL_TIME_OFFSET ( 10, 0, .AHEAD. ) ;
#169 = COORDINATED_UNIVERSAL_TIME_OFFSET ( 10, 0, .AHEAD. ) ;
#170 = PRODUCT_DEFINITION ( 'General', '', #344, #172 ) ;
#171 = PERSON_AND_ORGANIZATION_ROLE ( 'classification_officer' ) ;
#172 = DESIGN_CONTEXT ( 'detailed design', #41, 'design' ) ;
#173 = SECURITY_CLASSIFICATION ( '', '', #247 ) ;
#174 = PERSON_AND_ORGANIZATION ( #18446744073709551615, #18446744073709551615 ) ;
#175 = DATE_AND_TIME ( #299, #76 ) ;
#176 = PRODUCT_RELATED_PRODUCT_CATEGORY ( 'detail', '', ( #257 ) ) ;
#177 = CALENDAR_DATE ( 2026, 22, 6 ) ;
#178 =( REPRESENTATION_RELATIONSHIP ('NONE','NONE', #109, #97 ) REPRESENTATION_RELATIONSHIP_WITH_TRANSFORMATION ( #370 )SHAPE_REPRESENTATION_RELATIONSHIP( ) );
#179 = CC_DESIGN_APPROVAL ( #356, ( #203 ) ) ;
#180 = APPROVAL_STATUS ( 'not_yet_approved' ) ;
#181 = SHAPE_DEFINITION_REPRESENTATION ( #228, #305 ) ;
#182 = APPROVAL_DATE_TIME ( #125, #68 ) ;
#183 =( NAMED_UNIT ( * ) PLANE_ANGLE_UNIT ( ) SI_UNIT ( $, .RADIAN. ) );
#184 = CC_DESIGN_APPROVAL ( #68, ( #354 ) ) ;
#185 = PERSON_AND_ORGANIZATION_ROLE ( 'creator' ) ;
#186 = APPLICATION_PROTOCOL_DEFINITION ( 'international standard', 'config_control_design', 1994, #371 ) ;
#187 = CC_DESIGN_PERSON_AND_ORGANIZATION_ASSIGNMENT ( #213, #95, ( #379 ) ) ;
#188 = ROLE_ASSOCIATION ( #61, #279 ) ;
#189 = DATE_TIME_ROLE ( 'classification_date' ) ;
#190 = DIRECTION ( 'NONE',  ( 0.000000000000000000, 0.000000000000000000, 1.000000000000000000 ) ) ;
#191 = AXIS2_PLACEMENT_3D ( 'NONE', #264, #289, #195 ) ;
#192 = LOCAL_TIME ( 18, 49, 59.00000000000000000, #301 ) ;
#193 = DATE_AND_TIME ( #286, #238 ) ;
#194 = CC_DESIGN_DATE_AND_TIME_ASSIGNMENT ( #45, #189, ( #203 ) ) ;
#195 = DIRECTION ( 'NONE',  ( 1.000000000000000222, -1.092455418989176591E-28, 4.890937612370273194E-29 ) ) ;
#196 = PRODUCT ( '6534431024.step', '6534431024.step', '', ( #93 ) ) ;
#197 = PROPERTY_DEFINITION_REPRESENTATION ( #199, #305 ) ;
#198 = CARTESIAN_POINT ( 'NONE',  ( 13.30000024411100590, 12.39999035644500402, -2.058321952820000078 ) ) ;
#199 = PROPERTY_DEFINITION ('external definition','', #136 ) ;
#200 = DATE_TIME_ROLE ( 'classification_date' ) ;
#201 = APPROVAL_PERSON_ORGANIZATION ( #87, #293, #134 ) ;
#202 =( REPRESENTATION_RELATIONSHIP ('NONE','NONE', #109, #305 ) REPRESENTATION_RELATIONSHIP_WITH_TRANSFORMATION ( #113 )SHAPE_REPRESENTATION_RELATIONSHIP( ) );
#203 = SECURITY_CLASSIFICATION ( '', '', #102 ) ;
#204 = CC_DESIGN_SECURITY_CLASSIFICATION ( #354, ( #388 ) ) ;
#205 =( NAMED_UNIT ( * ) SI_UNIT ( $, .STERADIAN. ) SOLID_ANGLE_UNIT ( ) );
#206 =( NAMED_UNIT ( * ) PLANE_ANGLE_UNIT ( ) SI_UNIT ( $, .RADIAN. ) );
#207 = PRODUCT_RELATED_PRODUCT_CATEGORY ( 'detail', '', ( #163 ) ) ;
#208 = COORDINATED_UNIVERSAL_TIME_OFFSET ( 10, 0, .AHEAD. ) ;
#209 = PRODUCT_DEFINITION_FORMATION_WITH_SPECIFIED_SOURCE ( 'Symmetric', '', #257, .NOT_KNOWN. ) ;
#210 = CC_DESIGN_SECURITY_CLASSIFICATION ( #245, ( #379 ) ) ;
#211 = PERSON_AND_ORGANIZATION_ROLE ( 'design_owner' ) ;
#212 = COORDINATED_UNIVERSAL_TIME_OFFSET ( 10, 0, .AHEAD. ) ;
#213 = PERSON_AND_ORGANIZATION ( #18446744073709551615, #18446744073709551615 ) ;
#214 = SECURITY_CLASSIFICATION ( '', '', #350 ) ;
#215 = APPLICATION_PROTOCOL_DEFINITION ( 'international standard', 'config_control_design', 1994, #89 ) ;
#216 = PERSON_AND_ORGANIZATION ( #18446744073709551615, #18446744073709551615 ) ;
#217 = COORDINATED_UNIVERSAL_TIME_OFFSET ( 10, 0, .AHEAD. ) ;
#218 = CALENDAR_DATE ( 2026, 22, 6 ) ;
#219 = AXIS2_PLACEMENT_3D ( 'NONE', #198, #233, #50 ) ;
#220 =( LENGTH_UNIT ( ) NAMED_UNIT ( * ) SI_UNIT ( .MILLI., .METRE. ) );
#221 = APPROVAL_PERSON_ORGANIZATION ( #52, #358, #13 ) ;
#222 = EXTERNAL_SOURCE (IDENTIFIER('') ) ;
#223 = PERSON_AND_ORGANIZATION_ROLE ( 'design_supplier' ) ;
#224 = CARTESIAN_POINT ( 'NONE',  ( 13.30000024411100590, 11.40000561523400435, -2.058321952820000078 ) ) ;
#225 = AXIS2_PLACEMENT_3D ( 'NONE', #255, #351, #80 ) ;
#226 = LOCAL_TIME ( 18, 49, 59.00000000000000000, #217 ) ;
#227 = DATE_TIME_ROLE ( 'classification_date' ) ;
#228 = PRODUCT_DEFINITION_SHAPE ( 'NONE', 'NONE',  #236 ) ;
#229 = PROPERTY_DEFINITION_REPRESENTATION ( #260, #97 ) ;
#230 = SECURITY_CLASSIFICATION_LEVEL ( 'unclassified' ) ;
#231 = APPROVAL_DATE_TIME ( #355, #293 ) ;
#232 = LOCAL_TIME ( 18, 49, 59.00000000000000000, #104 ) ;
#233 = DIRECTION ( 'NONE',  ( 4.890937612370273194E-29, -3.155443620884047222E-30, 0.9999999999999997780 ) ) ;
#234 = CC_DESIGN_PERSON_AND_ORGANIZATION_ASSIGNMENT ( #9, #223, ( #344 ) ) ;
#235 = APPROVAL_DATE_TIME ( #34, #133 ) ;
#236 = PRODUCT_DEFINITION ( 'General', '', #379, #362 ) ;
#237 = PERSON_AND_ORGANIZATION ( #18446744073709551615, #18446744073709551615 ) ;
#238 = LOCAL_TIME ( 18, 49, 59.00000000000000000, #54 ) ;
#239 = PERSON_AND_ORGANIZATION ( #18446744073709551615, #18446744073709551615 ) ;
#240 =( REPRESENTATION_RELATIONSHIP ('NONE','NONE', #109, #97 ) REPRESENTATION_RELATIONSHIP_WITH_TRANSFORMATION ( #315 )SHAPE_REPRESENTATION_RELATIONSHIP( ) );
#241 = DATE_AND_TIME ( #386, #152 ) ;
#242 = UNCERTAINTY_MEASURE_WITH_UNIT (LENGTH_MEASURE( 1.000000000000000082E-05 ), #140, 'distance_accuracy_value', 'NONE');
#243 = PERSON_AND_ORGANIZATION ( #18446744073709551615, #18446744073709551615 ) ;
#244 = APPROVAL ( #331, 'Coincident' ) ;
#245 = SECURITY_CLASSIFICATION ( '', '', #361 ) ;
#246 = APPROVAL_ROLE ( '' ) ;
#247 = SECURITY_CLASSIFICATION_LEVEL ( 'unclassified' ) ;
#248 =( NAMED_UNIT ( * ) SI_UNIT ( $, .STERADIAN. ) SOLID_ANGLE_UNIT ( ) );
#249 = PROPERTY_DEFINITION ('external definition','', #347 ) ;
#250 = PROPERTY_DEFINITION_REPRESENTATION ( #369, #97 ) ;
#251 = COORDINATED_UNIVERSAL_TIME_OFFSET ( 10, 0, .AHEAD. ) ;
#252 = CC_DESIGN_APPROVAL ( #293, ( #209 ) ) ;
#253 = CALENDAR_DATE ( 2026, 22, 6 ) ;
#254 = CC_DESIGN_DATE_AND_TIME_ASSIGNMENT ( #142, #156, ( #236 ) ) ;
#255 = CARTESIAN_POINT ( 'NONE',  ( 0.000000000000000000, 0.000000000000000000, 0.000000000000000000 ) ) ;
#256 = CC_DESIGN_PERSON_AND_ORGANIZATION_ASSIGNMENT ( #75, #149, ( #203 ) ) ;
#257 = PRODUCT ( 'C13.step', 'C13.step', '', ( #340 ) ) ;
#258 = CALENDAR_DATE ( 2026, 22, 6 ) ;
#259 = ORGANIZATION ( 'NAUO-ORG268', 'UNSPECIFIED', 'UNSPECIFIED' ) ;
#260 = PROPERTY_DEFINITION ('external definition','', #128 ) ;
#261 = APPLICATION_PROTOCOL_DEFINITION ( 'international standard', 'config_control_design', 1994, #341 ) ;
#262 = APPROVAL ( #320, 'Coincident' ) ;
#263 = PROPERTY_DEFINITION_REPRESENTATION ( #346, #305 ) ;
#264 = CARTESIAN_POINT ( 'NONE',  ( 13.30000024411100590, 11.89999035644500402, -2.058321952819998302 ) ) ;
#265 = IDENTIFICATION_ROLE ( 'external document id and location', $) ;
#266 = PERSON_AND_ORGANIZATION_ROLE ( 'creator' ) ;
#267 = LOCAL_TIME ( 18, 49, 59.00000000000000000, #381 ) ;
#268 = LOCAL_TIME ( 18, 49, 59.00000000000000000, #57 ) ;
#269 = PERSON_AND_ORGANIZATION_ROLE ( 'creator' ) ;
#270 = CALENDAR_DATE ( 2026, 22, 6 ) ;
#271 = APPROVAL_STATUS ( 'not_yet_approved' ) ;
#272 = APPLIED_EXTERNAL_IDENTIFICATION_ASSIGNMENT ( '6461079856.step.STEP' , #322, #349,( #347) ) ;
#273 = DATE_AND_TIME ( #329, #192 ) ;
#274 = APPROVAL_ROLE ( '' ) ;
#275 = DATE_TIME_ROLE ( 'classification_date' ) ;
#276 = APPROVAL ( #155, 'Coincident' ) ;
#277 =( GEOMETRIC_REPRESENTATION_CONTEXT ( 3 ) GLOBAL_UNCERTAINTY_ASSIGNED_CONTEXT ( ( #63 ) ) GLOBAL_UNIT_ASSIGNED_CONTEXT ( ( #14, #183, #336 ) ) REPRESENTATION_CONTEXT ( 'NONE', 'WORKASPACE' ) );
#278 = LOCAL_TIME ( 18, 49, 59.00000000000000000, #154 ) ;
#279 = APPLIED_DOCUMENT_REFERENCE ( #347,'',( #170) ) ;
#280 = PERSON_AND_ORGANIZATION_ROLE ( 'classification_officer' ) ;
#281 = APPROVAL_STATUS ( 'not_yet_approved' ) ;
#282 = DOCUMENT_TYPE ( 'geometry' ) ;
#283 = COORDINATED_UNIVERSAL_TIME_OFFSET ( 10, 0, .AHEAD. ) ;
#284 = AXIS2_PLACEMENT_3D ( 'NONE', #224, #84, #162 ) ;
#285 = APPROVAL_PERSON_ORGANIZATION ( #374, #276, #6 ) ;
#286 = CALENDAR_DATE ( 2026, 22, 6 ) ;
#287 = PRODUCT_DEFINITION_SHAPE ( 'NONE', 'NONE',  #389 ) ;
#288 = APPROVAL ( #295, 'Coincident' ) ;
#289 = DIRECTION ( 'NONE',  ( 4.890937612370273194E-29, -3.155443620884047222E-30, 0.9999999999999997780 ) ) ;
#290 = APPLIED_EXTERNAL_IDENTIFICATION_ASSIGNMENT ( '6534431024.step.STEP' , #265, #222,( #136) ) ;
#291 = PROPERTY_DEFINITION ('document property','', #128 ) ;
#292 = PROPERTY_DEFINITION_REPRESENTATION ( #291, #97 ) ;
#293 = APPROVAL ( #21, 'Coincident' ) ;
#294 = APPROVAL_STATUS ( 'not_yet_approved' ) ;
#295 = APPROVAL_STATUS ( 'not_yet_approved' ) ;
#296 = DATE_AND_TIME ( #112, #268 ) ;
#297 = OBJECT_ROLE ('mandatory',$ ) ;
#298 = CC_DESIGN_SECURITY_CLASSIFICATION ( #82, ( #209 ) ) ;
#299 = CALENDAR_DATE ( 2026, 22, 6 ) ;
#300 = COORDINATED_UNIVERSAL_TIME_OFFSET ( 10, 0, .AHEAD. ) ;
#301 = COORDINATED_UNIVERSAL_TIME_OFFSET ( 10, 0, .AHEAD. ) ;
#302 = APPLICATION_CONTEXT ( 'configuration controlled 3d designs of mechanical parts and assemblies' ) ;
#303 = PERSON_AND_ORGANIZATION_ROLE ( 'design_owner' ) ;
#304 = CALENDAR_DATE ( 2026, 22, 6 ) ;
#305 = SHAPE_REPRESENTATION ( '6534431024.step', ( #378 ), #277 ) ;
#306 = CC_DESIGN_DATE_AND_TIME_ASSIGNMENT ( #296, #200, ( #82 ) ) ;
#307 = DATE_TIME_ROLE ( 'classification_date' ) ;
#308 = CC_DESIGN_DATE_AND_TIME_ASSIGNMENT ( #193, #227, ( #214 ) ) ;
#309 = DIRECTION ( 'NONE',  ( 1.000000000000000000, 0.000000000000000000, 0.000000000000000000 ) ) ;
#310 = APPLIED_EXTERNAL_IDENTIFICATION_ASSIGNMENT ( '6461079856.step.STEP' , #103, #81,( #128) ) ;
#311 = DATE_AND_TIME ( #335, #321 ) ;
#312 = CALENDAR_DATE ( 2026, 22, 6 ) ;
#313 = APPROVAL_STATUS ( 'not_yet_approved' ) ;
#314 = CC_DESIGN_PERSON_AND_ORGANIZATION_ASSIGNMENT ( #123, #303, ( #163 ) ) ;
#315 = ITEM_DEFINED_TRANSFORMATION ( 'NONE', 'NONE', #284,  #46 ) ;
#316 = LOCAL_TIME ( 18, 49, 59.00000000000000000, #366 ) ;
#317 = CC_DESIGN_DATE_AND_TIME_ASSIGNMENT ( #311, #307, ( #354 ) ) ;
#318 = DATE_TIME_ROLE ( 'creation_date' ) ;
#319 = APPLIED_DOCUMENT_REFERENCE ( #128,'',( #170) ) ;
#320 = APPROVAL_STATUS ( 'not_yet_approved' ) ;
#321 = LOCAL_TIME ( 18, 49, 59.00000000000000000, #339 ) ;
#322 = IDENTIFICATION_ROLE ( 'external document id and location', $) ;
#323 = CONTEXT_DEPENDENT_SHAPE_REPRESENTATION ( #202, #161 ) ;
#324 = APPROVAL_ROLE ( '' ) ;
#325 = PERSON_AND_ORGANIZATION_ROLE ( 'creator' ) ;
#326 = APPROVAL_DATE_TIME ( #273, #100 ) ;
#327 =( GEOMETRIC_REPRESENTATION_CONTEXT ( 3 ) GLOBAL_UNCERTAINTY_ASSIGNED_CONTEXT ( ( #32 ) ) GLOBAL_UNIT_ASSIGNED_CONTEXT ( ( #220, #7, #248 ) ) REPRESENTATION_CONTEXT ( 'NONE', 'WORKASPACE' ) );
#328 = CC_DESIGN_APPROVAL ( #100, ( #236 ) ) ;
#329 = CALENDAR_DATE ( 2026, 22, 6 ) ;
#330 = APPROVAL_ROLE ( '' ) ;
#331 = APPROVAL_STATUS ( 'not_yet_approved' ) ;
#332 = CC_DESIGN_PERSON_AND_ORGANIZATION_ASSIGNMENT ( #376, #171, ( #82 ) ) ;
#333 = ORGANIZATION ( 'NAUO-ORG267', 'UNSPECIFIED', 'UNSPECIFIED' ) ;
#334 = APPROVAL_ROLE ( '' ) ;
#335 = CALENDAR_DATE ( 2026, 22, 6 ) ;
#336 =( NAMED_UNIT ( * ) SI_UNIT ( $, .STERADIAN. ) SOLID_ANGLE_UNIT ( ) );
#337 = PERSON_AND_ORGANIZATION ( #94, #333 ) ;
#338 = APPROVAL_PERSON_ORGANIZATION ( #64, #133, #274 ) ;
#339 = COORDINATED_UNIVERSAL_TIME_OFFSET ( 10, 0, .AHEAD. ) ;
#340 = MECHANICAL_CONTEXT ( 'NONE', #371, 'mechanical' ) ;
#341 = APPLICATION_CONTEXT ( 'configuration controlled 3d designs of mechanical parts and assemblies' ) ;
#342 = APPROVAL_ROLE ( '' ) ;
#343 = DATE_AND_TIME ( #19, #47 ) ;
#344 = PRODUCT_DEFINITION_FORMATION_WITH_SPECIFIED_SOURCE ( 'Symmetric', '', #163, .NOT_KNOWN. ) ;
#345 = PERSON_AND_ORGANIZATION ( #18446744073709551615, #18446744073709551615 ) ;
#346 = PROPERTY_DEFINITION ('document property','', #136 ) ;
#347 = DOCUMENT_FILE ( '6461079856.step.STEP' , '', '', #16, '' ,$ ) ;
#348 = PRODUCT_DEFINITION_SHAPE ( 'NONE', 'NONE',  #37 ) ;
#349 = EXTERNAL_SOURCE (IDENTIFIER('') ) ;
#350 = SECURITY_CLASSIFICATION_LEVEL ( 'unclassified' ) ;
#351 = DIRECTION ( 'NONE',  ( 0.000000000000000000, 0.000000000000000000, 1.000000000000000000 ) ) ;
#352 = ROLE_ASSOCIATION ( #135, #319 ) ;
#353 = CALENDAR_DATE ( 2026, 22, 6 ) ;
#354 = SECURITY_CLASSIFICATION ( '', '', #69 ) ;
#355 = DATE_AND_TIME ( #137, #28 ) ;
#356 = APPROVAL ( #313, 'UNKNOWN' ) ;
#357 = PERSON_AND_ORGANIZATION ( #18446744073709551615, #18446744073709551615 ) ;
#358 = APPROVAL ( #294, 'UNKNOWN' ) ;
#359 = PERSON_AND_ORGANIZATION ( #18446744073709551615, #18446744073709551615 ) ;
#360 = APPROVAL_PERSON_ORGANIZATION ( #1, #2, #334 ) ;
#361 = SECURITY_CLASSIFICATION_LEVEL ( 'unclassified' ) ;
#362 = DESIGN_CONTEXT ( 'detailed design', #365, 'design' ) ;
#363 = APPROVAL_STATUS ( 'not_yet_approved' ) ;
#364 = CC_DESIGN_DATE_AND_TIME_ASSIGNMENT ( #166, #318, ( #37 ) ) ;
#365 = APPLICATION_CONTEXT ( 'configuration controlled 3d designs of mechanical parts and assemblies' ) ;
#366 = COORDINATED_UNIVERSAL_TIME_OFFSET ( 10, 0, .AHEAD. ) ;
#367 = CC_DESIGN_APPROVAL ( #262, ( #82 ) ) ;
#368 = APPROVAL_ROLE ( '' ) ;
#369 = PROPERTY_DEFINITION ('document property','', #347 ) ;
#370 = ITEM_DEFINED_TRANSFORMATION ( 'NONE', 'NONE', #219,  #46 ) ;
#371 = APPLICATION_CONTEXT ( 'configuration controlled 3d designs of mechanical parts and assemblies' ) ;
#372 = LOCAL_TIME ( 18, 49, 59.00000000000000000, #169 ) ;
#373 = CC_DESIGN_APPROVAL ( #86, ( #344 ) ) ;
#374 = PERSON_AND_ORGANIZATION ( #18446744073709551615, #18446744073709551615 ) ;
#375 = DATE_AND_TIME ( #253, #278 ) ;
#376 = PERSON_AND_ORGANIZATION ( #18446744073709551615, #18446744073709551615 ) ;
#377 = APPROVAL_DATE_TIME ( #343, #358 ) ;
#378 = AXIS2_PLACEMENT_3D ( 'NONE', #49, #159, #309 ) ;
#379 = PRODUCT_DEFINITION_FORMATION_WITH_SPECIFIED_SOURCE ( 'Symmetric', '', #196, .NOT_KNOWN. ) ;
#380 = APPROVAL_DATE_TIME ( #117, #288 ) ;
#381 = COORDINATED_UNIVERSAL_TIME_OFFSET ( 10, 0, .AHEAD. ) ;
#382 = PERSON_AND_ORGANIZATION ( #18446744073709551615, #18446744073709551615 ) ;
#383 = APPLIED_DOCUMENT_REFERENCE ( #136,'',( #236) ) ;
#384 = APPROVAL_ROLE ( '' ) ;
#385 = APPROVAL_PERSON_ORGANIZATION ( #337, #68, #246 ) ;
#386 = CALENDAR_DATE ( 2026, 22, 6 ) ;
#387 = APPROVAL_PERSON_ORGANIZATION ( #382, #288, #324 ) ;
#388 = NEXT_ASSEMBLY_USAGE_OCCURRENCE ( 'NAUO267', ' ', ' ', #37, #170, $ ) ;
#389 = NEXT_ASSEMBLY_USAGE_OCCURRENCE ( 'NAUO268', ' ', ' ', #37, #170, $ ) ;
#390 = NEXT_ASSEMBLY_USAGE_OCCURRENCE ( 'NAUO269', ' ', ' ', #37, #236, $ ) ;
ENDSEC;
END-ISO-10303-21;
