ISO-10303-21;
HEADER;
FILE_DESCRIPTION (( 'STEP AP203' ),
    '1' );
FILE_NAME ('C14.step.STEP',
    '2026-06-22T08:49:59',
    ( 'localuser' ),
    ( '' ),
    'SwSTEP 2.0',
    'SolidWorks 2025',
    '' );
FILE_SCHEMA (( 'CONFIG_CONTROL_DESIGN' ));
ENDSEC;

DATA;
#1 = APPROVAL_ROLE ( '' ) ;
#2 = APPROVAL_DATE_TIME ( #31, #20 ) ;
#3 =( NAMED_UNIT ( * ) SI_UNIT ( $, .STERADIAN. ) SOLID_ANGLE_UNIT ( ) );
#4 =( NAMED_UNIT ( * ) PLANE_ANGLE_UNIT ( ) SI_UNIT ( $, .RADIAN. ) );
#5 = PERSON_AND_ORGANIZATION ( #18446744073709551615, #18446744073709551615 ) ;
#6 = CC_DESIGN_PERSON_AND_ORGANIZATION_ASSIGNMENT ( #133, #193, ( #18 ) ) ;
#7 = APPROVAL_DATE_TIME ( #225, #25 ) ;
#8 = CC_DESIGN_DATE_AND_TIME_ASSIGNMENT ( #348, #104, ( #338 ) ) ;
#9 = PERSON_AND_ORGANIZATION_ROLE ( 'classification_officer' ) ;
#10 = LOCAL_TIME ( 18, 49, 59.00000000000000000, #309 ) ;
#11 = CC_DESIGN_APPROVAL ( #212, ( #354 ) ) ;
#12 = DOCUMENT_FILE ( '6534431024.step.STEP' , '', '', #282, '' ,$ ) ;
#13 = PERSON_AND_ORGANIZATION_ROLE ( 'creator' ) ;
#14 = APPROVAL_STATUS ( 'not_yet_approved' ) ;
#15 = CC_DESIGN_SECURITY_CLASSIFICATION ( #295, ( #68 ) ) ;
#16 = CALENDAR_DATE ( 2026, 22, 6 ) ;
#17 = EXTERNAL_SOURCE (IDENTIFIER('') ) ;
#18 = PRODUCT_DEFINITION ( 'General', '', #82, #300 ) ;
#19 = COORDINATED_UNIVERSAL_TIME_OFFSET ( 10, 0, .AHEAD. ) ;
#20 = APPROVAL ( #303, 'UNKNOWN' ) ;
#21 = COORDINATED_UNIVERSAL_TIME_OFFSET ( 10, 0, .AHEAD. ) ;
#22 = PERSON_AND_ORGANIZATION ( #18446744073709551615, #18446744073709551615 ) ;
#23 = CC_DESIGN_APPROVAL ( #25, ( #340 ) ) ;
#24 = CALENDAR_DATE ( 2026, 22, 6 ) ;
#25 = APPROVAL ( #253, 'Coincident' ) ;
#26 = DATE_AND_TIME ( #299, #37 ) ;
#27 = APPROVAL ( #213, 'Coincident' ) ;
#28 = PROPERTY_DEFINITION_REPRESENTATION ( #249, #187 ) ;
#29 = APPROVAL_PERSON_ORGANIZATION ( #147, #20, #124 ) ;
#30 = ORGANIZATION ( 'NAUO-ORG245', 'UNSPECIFIED', 'UNSPECIFIED' ) ;
#31 = DATE_AND_TIME ( #302, #370 ) ;
#32 = UNCERTAINTY_MEASURE_WITH_UNIT (LENGTH_MEASURE( 1.000000000000000082E-05 ), #179, 'distance_accuracy_value', 'NONE');
#33 = CARTESIAN_POINT ( 'NONE',  ( 0.000000000000000000, 0.000000000000000000, 0.000000000000000000 ) ) ;
#34 = COORDINATED_UNIVERSAL_TIME_OFFSET ( 10, 0, .AHEAD. ) ;
#35 = DESIGN_CONTEXT ( 'detailed design', #159, 'design' ) ;
#36 = PERSON_AND_ORGANIZATION_ROLE ( 'design_owner' ) ;
#37 = LOCAL_TIME ( 18, 49, 59.00000000000000000, #119 ) ;
#38 = SECURITY_CLASSIFICATION_LEVEL ( 'unclassified' ) ;
#39 = IDENTIFICATION_ROLE ( 'external document id and location', $) ;
#40 = CALENDAR_DATE ( 2026, 22, 6 ) ;
#41 = APPLICATION_PROTOCOL_DEFINITION ( 'international standard', 'config_control_design', 1994, #80 ) ;
#42 = CC_DESIGN_APPROVAL ( #255, ( #82 ) ) ;
#43 =( GEOMETRIC_REPRESENTATION_CONTEXT ( 3 ) GLOBAL_UNCERTAINTY_ASSIGNED_CONTEXT ( ( #353 ) ) GLOBAL_UNIT_ASSIGNED_CONTEXT ( ( #116, #62, #65 ) ) REPRESENTATION_CONTEXT ( 'NONE', 'WORKASPACE' ) );
#44 = CC_DESIGN_PERSON_AND_ORGANIZATION_ASSIGNMENT ( #281, #13, ( #82 ) ) ;
#45 = APPROVAL_ROLE ( '' ) ;
#46 = DATE_AND_TIME ( #344, #322 ) ;
#47 = PRODUCT_DEFINITION_SHAPE ( 'NONE', 'NONE',  #389 ) ;
#48 = APPROVAL_STATUS ( 'not_yet_approved' ) ;
#49 = PRODUCT_RELATED_PRODUCT_CATEGORY ( 'detail', '', ( #200 ) ) ;
#50 = PRODUCT_DEFINITION_SHAPE ( 'NONE', 'NONE',  #388 ) ;
#51 = LOCAL_TIME ( 18, 49, 59.00000000000000000, #308 ) ;
#52 = APPROVAL_STATUS ( 'not_yet_approved' ) ;
#53 = PERSON_AND_ORGANIZATION_ROLE ( 'design_supplier' ) ;
#54 = DATE_TIME_ROLE ( 'classification_date' ) ;
#55 = SECURITY_CLASSIFICATION_LEVEL ( 'unclassified' ) ;
#56 = CC_DESIGN_APPROVAL ( #117, ( #143 ) ) ;
#57 = CARTESIAN_POINT ( 'NONE',  ( 12.15000253293000299, 11.24999645996100561, -2.058321952820000078 ) ) ;
#58 = DATE_AND_TIME ( #269, #387 ) ;
#59 = DOCUMENT_TYPE ( 'geometry' ) ;
#60 = APPROVAL_DATE_TIME ( #325, #194 ) ;
#61 = COORDINATED_UNIVERSAL_TIME_OFFSET ( 10, 0, .AHEAD. ) ;
#62 =( NAMED_UNIT ( * ) PLANE_ANGLE_UNIT ( ) SI_UNIT ( $, .RADIAN. ) );
#63 = LOCAL_TIME ( 18, 49, 59.00000000000000000, #61 ) ;
#64 = CONTEXT_DEPENDENT_SHAPE_REPRESENTATION ( #318, #47 ) ;
#65 =( NAMED_UNIT ( * ) SI_UNIT ( $, .STERADIAN. ) SOLID_ANGLE_UNIT ( ) );
#66 = OBJECT_ROLE ('mandatory',$ ) ;
#67 = DIRECTION ( 'NONE',  ( 1.000000000000000000, 0.000000000000000000, 0.000000000000000000 ) ) ;
#68 = PRODUCT_DEFINITION_FORMATION_WITH_SPECIFIED_SOURCE ( 'Symmetric', '', #169, .NOT_KNOWN. ) ;
#69 = APPLIED_DOCUMENT_REFERENCE ( #216,'',( #354) ) ;
#70 = PERSON_AND_ORGANIZATION ( #18446744073709551615, #18446744073709551615 ) ;
#71 = CONTEXT_DEPENDENT_SHAPE_REPRESENTATION ( #215, #314 ) ;
#72 = SHAPE_DEFINITION_REPRESENTATION ( #345, #346 ) ;
#73 = DATE_AND_TIME ( #365, #204 ) ;
#74 = APPROVAL_PERSON_ORGANIZATION ( #383, #146, #79 ) ;
#75 = PERSON_AND_ORGANIZATION ( #18446744073709551615, #18446744073709551615 ) ;
#76 = CC_DESIGN_PERSON_AND_ORGANIZATION_ASSIGNMENT ( #22, #258, ( #245 ) ) ;
#77 = APPLICATION_PROTOCOL_DEFINITION ( 'international standard', 'config_control_design', 1994, #159 ) ;
#78 = PROPERTY_DEFINITION ('external definition','', #216 ) ;
#79 = APPROVAL_ROLE ( '' ) ;
#80 = APPLICATION_CONTEXT ( 'configuration controlled 3d designs of mechanical parts and assemblies' ) ;
#81 = CC_DESIGN_PERSON_AND_ORGANIZATION_ASSIGNMENT ( #93, #186, ( #377 ) ) ;
#82 = PRODUCT_DEFINITION_FORMATION_WITH_SPECIFIED_SOURCE ( 'Symmetric', '', #230, .NOT_KNOWN. ) ;
#83 = PERSON_AND_ORGANIZATION_ROLE ( 'design_supplier' ) ;
#84 = COORDINATED_UNIVERSAL_TIME_OFFSET ( 10, 0, .AHEAD. ) ;
#85 = UNCERTAINTY_MEASURE_WITH_UNIT (LENGTH_MEASURE( 1.000000000000000082E-05 ), #274, 'distance_accuracy_value', 'NONE');
#86 = ITEM_DEFINED_TRANSFORMATION ( 'NONE', 'NONE', #276,  #171 ) ;
#87 = CC_DESIGN_PERSON_AND_ORGANIZATION_ASSIGNMENT ( #75, #110, ( #68 ) ) ;
#88 = DATE_AND_TIME ( #323, #183 ) ;
#89 = DIRECTION ( 'NONE',  ( 1.000000000000000222, -1.092455418989176591E-28, 4.890937612370273194E-29 ) ) ;
#90 = APPLIED_DOCUMENT_REFERENCE ( #329,'',( #354) ) ;
#91 = DIRECTION ( 'NONE',  ( 0.000000000000000000, 0.000000000000000000, 1.000000000000000000 ) ) ;
#92 = COORDINATED_UNIVERSAL_TIME_OFFSET ( 10, 0, .AHEAD. ) ;
#93 = PERSON_AND_ORGANIZATION ( #217, #120 ) ;
#94 = APPROVAL_PERSON_ORGANIZATION ( #366, #194, #181 ) ;
#95 = COORDINATED_UNIVERSAL_TIME_OFFSET ( 10, 0, .AHEAD. ) ;
#96 = CC_DESIGN_DATE_AND_TIME_ASSIGNMENT ( #160, #135, ( #340 ) ) ;
#97 = APPROVAL_DATE_TIME ( #73, #375 ) ;
#98 = APPROVAL ( #52, 'Coincident' ) ;
#99 = APPROVAL_STATUS ( 'not_yet_approved' ) ;
#100 = APPLICATION_CONTEXT ( 'configuration controlled 3d designs of mechanical parts and assemblies' ) ;
#101 = ORGANIZATION ( 'NAUO-ORG244', 'UNSPECIFIED', 'UNSPECIFIED' ) ;
#102 = APPROVAL_ROLE ( '' ) ;
#103 = PERSON_AND_ORGANIZATION ( #18446744073709551615, #18446744073709551615 ) ;
#104 = DATE_TIME_ROLE ( 'creation_date' ) ;
#105 = CC_DESIGN_SECURITY_CLASSIFICATION ( #143, ( #245 ) ) ;
#106 = PERSON_AND_ORGANIZATION ( #18446744073709551615, #18446744073709551615 ) ;
#107 = APPROVAL ( #298, 'UNKNOWN' ) ;
#108 = PRODUCT_DEFINITION_SHAPE ( 'NONE', 'NONE',  #338 ) ;
#109 = CALENDAR_DATE ( 2026, 22, 6 ) ;
#110 = PERSON_AND_ORGANIZATION_ROLE ( 'creator' ) ;
#111 = APPROVAL_PERSON_ORGANIZATION ( #254, #255, #278 ) ;
#112 = LOCAL_TIME ( 18, 49, 59.00000000000000000, #188 ) ;
#113 = SECURITY_CLASSIFICATION_LEVEL ( 'unclassified' ) ;
#114 = DATE_AND_TIME ( #358, #63 ) ;
#115 = CALENDAR_DATE ( 2026, 22, 6 ) ;
#116 =( LENGTH_UNIT ( ) NAMED_UNIT ( * ) SI_UNIT ( .MILLI., .METRE. ) );
#117 = APPROVAL ( #14, 'Coincident' ) ;
#118 = AXIS2_PLACEMENT_3D ( 'NONE', #33, #91, #148 ) ;
#119 = COORDINATED_UNIVERSAL_TIME_OFFSET ( 10, 0, .AHEAD. ) ;
#120 = ORGANIZATION ( 'NAUO-ORG243', 'UNSPECIFIED', 'UNSPECIFIED' ) ;
#121 = APPLICATION_CONTEXT ( 'configuration controlled 3d designs of mechanical parts and assemblies' ) ;
#122 = CC_DESIGN_DATE_AND_TIME_ASSIGNMENT ( #267, #219, ( #152 ) ) ;
#123 = ROLE_ASSOCIATION ( #301, #273 ) ;
#124 = APPROVAL_ROLE ( '' ) ;
#125 = LOCAL_TIME ( 18, 49, 59.00000000000000000, #95 ) ;
#126 = APPLIED_EXTERNAL_IDENTIFICATION_ASSIGNMENT ( '6534431024.step.STEP' , #262, #243,( #12) ) ;
#127 = APPROVAL_ROLE ( '' ) ;
#128 = PERSON_AND_ORGANIZATION_ROLE ( 'design_owner' ) ;
#129 = CC_DESIGN_PERSON_AND_ORGANIZATION_ASSIGNMENT ( #378, #229, ( #169 ) ) ;
#130 = APPLICATION_PROTOCOL_DEFINITION ( 'international standard', 'config_control_design', 1994, #121 ) ;
#131 = APPROVAL_PERSON_ORGANIZATION ( #5, #212, #127 ) ;
#132 = LOCAL_TIME ( 18, 49, 59.00000000000000000, #248 ) ;
#133 = PERSON_AND_ORGANIZATION ( #18446744073709551615, #18446744073709551615 ) ;
#134 = SHAPE_REPRESENTATION ( '6461079856.step', ( #171 ), #43 ) ;
#135 = DATE_TIME_ROLE ( 'classification_date' ) ;
#136 = MECHANICAL_CONTEXT ( 'NONE', #224, 'mechanical' ) ;
#137 = LOCAL_TIME ( 18, 49, 59.00000000000000000, #84 ) ;
#138 = APPROVAL_DATE_TIME ( #174, #117 ) ;
#139 = APPLICATION_CONTEXT ( 'configuration controlled 3d designs of mechanical parts and assemblies' ) ;
#140 = PERSON_AND_ORGANIZATION ( #18446744073709551615, #18446744073709551615 ) ;
#141 = PERSON_AND_ORGANIZATION ( #18446744073709551615, #18446744073709551615 ) ;
#142 = DESIGN_CONTEXT ( 'detailed design', #139, 'design' ) ;
#143 = SECURITY_CLASSIFICATION ( '', '', #113 ) ;
#144 = APPROVAL_ROLE ( '' ) ;
#145 = SHAPE_DEFINITION_REPRESENTATION ( #108, #187 ) ;
#146 = APPROVAL ( #48, 'Coincident' ) ;
#147 = PERSON_AND_ORGANIZATION ( #381, #101 ) ;
#148 = DIRECTION ( 'NONE',  ( 1.000000000000000000, 0.000000000000000000, 0.000000000000000000 ) ) ;
#149 = CC_DESIGN_DATE_AND_TIME_ASSIGNMENT ( #114, #356, ( #223 ) ) ;
#150 = AXIS2_PLACEMENT_3D ( 'NONE', #247, #185, #321 ) ;
#151 = APPROVAL_DATE_TIME ( #88, #107 ) ;
#152 = SECURITY_CLASSIFICATION ( '', '', #55 ) ;
#153 = DATE_TIME_ROLE ( 'classification_date' ) ;
#154 = MECHANICAL_CONTEXT ( 'NONE', #100, 'mechanical' ) ;
#155 =( GEOMETRIC_REPRESENTATION_CONTEXT ( 3 ) GLOBAL_UNCERTAINTY_ASSIGNED_CONTEXT ( ( #32 ) ) GLOBAL_UNIT_ASSIGNED_CONTEXT ( ( #179, #270, #242 ) ) REPRESENTATION_CONTEXT ( 'NONE', 'WORKASPACE' ) );
#156 = PERSON_AND_ORGANIZATION ( #18446744073709551615, #18446744073709551615 ) ;
#157 = LOCAL_TIME ( 18, 49, 59.00000000000000000, #287 ) ;
#158 = CALENDAR_DATE ( 2026, 22, 6 ) ;
#159 = APPLICATION_CONTEXT ( 'configuration controlled 3d designs of mechanical parts and assemblies' ) ;
#160 = DATE_AND_TIME ( #40, #112 ) ;
#161 = PROPERTY_DEFINITION_REPRESENTATION ( #202, #134 ) ;
#162 = MECHANICAL_CONTEXT ( 'NONE', #80, 'mechanical' ) ;
#163 = CC_DESIGN_APPROVAL ( #27, ( #295 ) ) ;
#164 = CALENDAR_DATE ( 2026, 22, 6 ) ;
#165 = PERSON_AND_ORGANIZATION_ROLE ( 'classification_officer' ) ;
#166 = CC_DESIGN_PERSON_AND_ORGANIZATION_ASSIGNMENT ( #103, #9, ( #340 ) ) ;
#167 = PROPERTY_DEFINITION ('document property','', #329 ) ;
#168 = APPROVAL_ROLE ( '' ) ;
#169 = PRODUCT ( '6534431024.step', '6534431024.step', '', ( #136 ) ) ;
#170 = CC_DESIGN_DATE_AND_TIME_ASSIGNMENT ( #320, #54, ( #295 ) ) ;
#171 = AXIS2_PLACEMENT_3D ( 'NONE', #275, #362, #357 ) ;
#172 = APPROVAL_PERSON_ORGANIZATION ( #339, #25, #45 ) ;
#173 = COORDINATED_UNIVERSAL_TIME_OFFSET ( 10, 0, .AHEAD. ) ;
#174 = DATE_AND_TIME ( #109, #307 ) ;
#175 = PERSON_AND_ORGANIZATION ( #18446744073709551615, #18446744073709551615 ) ;
#176 = APPLIED_EXTERNAL_IDENTIFICATION_ASSIGNMENT ( '6461079856.step.STEP' , #39, #17,( #216) ) ;
#177 = APPROVAL_STATUS ( 'not_yet_approved' ) ;
#178 = DIRECTION ( 'NONE',  ( 4.890937612370273194E-29, -3.155443620884047222E-30, 0.9999999999999997780 ) ) ;
#179 =( LENGTH_UNIT ( ) NAMED_UNIT ( * ) SI_UNIT ( .MILLI., .METRE. ) );
#180 = PRODUCT_RELATED_PRODUCT_CATEGORY ( 'detail', '', ( #169 ) ) ;
#181 = APPROVAL_ROLE ( '' ) ;
#182 =( REPRESENTATION_RELATIONSHIP ('NONE','NONE', #346, #187 ) REPRESENTATION_RELATIONSHIP_WITH_TRANSFORMATION ( #237 )SHAPE_REPRESENTATION_RELATIONSHIP( ) );
#183 = LOCAL_TIME ( 18, 49, 59.00000000000000000, #34 ) ;
#184 = APPROVAL_ROLE ( '' ) ;
#185 = DIRECTION ( 'NONE',  ( 4.890937612370273194E-29, -3.155443620884047222E-30, 0.9999999999999997780 ) ) ;
#186 = PERSON_AND_ORGANIZATION_ROLE ( 'classification_officer' ) ;
#187 = SHAPE_REPRESENTATION ( '6534431024.step', ( #118 ), #264 ) ;
#188 = COORDINATED_UNIVERSAL_TIME_OFFSET ( 10, 0, .AHEAD. ) ;
#189 = CALENDAR_DATE ( 2026, 22, 6 ) ;
#190 = CC_DESIGN_APPROVAL ( #98, ( #68 ) ) ;
#191 = CC_DESIGN_DATE_AND_TIME_ASSIGNMENT ( #374, #294, ( #143 ) ) ;
#192 = ROLE_ASSOCIATION ( #66, #69 ) ;
#193 = PERSON_AND_ORGANIZATION_ROLE ( 'creator' ) ;
#194 = APPROVAL ( #177, 'UNKNOWN' ) ;
#195 = DATE_AND_TIME ( #337, #125 ) ;
#196 = DATE_AND_TIME ( #164, #132 ) ;
#197 = LOCAL_TIME ( 18, 49, 59.00000000000000000, #376 ) ;
#198 = CC_DESIGN_PERSON_AND_ORGANIZATION_ASSIGNMENT ( #268, #36, ( #230 ) ) ;
#199 = DATE_AND_TIME ( #292, #350 ) ;
#200 = PRODUCT ( '6461079856.step', '6461079856.step', '', ( #162 ) ) ;
#201 = APPROVAL_STATUS ( 'not_yet_approved' ) ;
#202 = PROPERTY_DEFINITION ('document property','', #216 ) ;
#203 = PERSON_AND_ORGANIZATION ( #18446744073709551615, #18446744073709551615 ) ;
#204 = LOCAL_TIME ( 18, 49, 59.00000000000000000, #334 ) ;
#205 = CC_DESIGN_SECURITY_CLASSIFICATION ( #377, ( #388 ) ) ;
#206 = CC_DESIGN_SECURITY_CLASSIFICATION ( #152, ( #390 ) ) ;
#207 = SECURITY_CLASSIFICATION_LEVEL ( 'unclassified' ) ;
#208 = CALENDAR_DATE ( 2026, 22, 6 ) ;
#209 = PROPERTY_DEFINITION_REPRESENTATION ( #364, #187 ) ;
#210 = APPROVAL_PERSON_ORGANIZATION ( #156, #375, #102 ) ;
#211 = LOCAL_TIME ( 18, 49, 59.00000000000000000, #21 ) ;
#212 = APPROVAL ( #285, 'Coincident' ) ;
#213 = APPROVAL_STATUS ( 'not_yet_approved' ) ;
#214 = ROLE_ASSOCIATION ( #347, #90 ) ;
#215 =( REPRESENTATION_RELATIONSHIP ('NONE','NONE', #346, #134 ) REPRESENTATION_RELATIONSHIP_WITH_TRANSFORMATION ( #86 )SHAPE_REPRESENTATION_RELATIONSHIP( ) );
#216 = DOCUMENT_FILE ( '6461079856.step.STEP' , '', '', #59, '' ,$ ) ;
#217 = PERSON ( 'NAUO-PER243', 'UNSPECIFIED', 'UNSPECIFIED', ('UNSPECIFIED'), ('UNSPECIFIED'), ('UNSPECIFIED') ) ;
#218 = APPROVAL_DATE_TIME ( #196, #212 ) ;
#219 = DATE_TIME_ROLE ( 'classification_date' ) ;
#220 = CC_DESIGN_DATE_AND_TIME_ASSIGNMENT ( #221, #313, ( #354 ) ) ;
#221 = DATE_AND_TIME ( #368, #51 ) ;
#222 = APPROVAL_DATE_TIME ( #195, #255 ) ;
#223 = SECURITY_CLASSIFICATION ( '', '', #327 ) ;
#224 = APPLICATION_CONTEXT ( 'configuration controlled 3d designs of mechanical parts and assemblies' ) ;
#225 = DATE_AND_TIME ( #189, #328 ) ;
#226 = CALENDAR_DATE ( 2026, 22, 6 ) ;
#227 = AXIS2_PLACEMENT_3D ( 'NONE', #57, #178, #326 ) ;
#228 = CC_DESIGN_PERSON_AND_ORGANIZATION_ASSIGNMENT ( #231, #261, ( #338 ) ) ;
#229 = PERSON_AND_ORGANIZATION_ROLE ( 'design_owner' ) ;
#230 = PRODUCT ( 'C14.step', 'C14.step', '', ( #154 ) ) ;
#231 = PERSON_AND_ORGANIZATION ( #18446744073709551615, #18446744073709551615 ) ;
#232 = COORDINATED_UNIVERSAL_TIME_OFFSET ( 10, 0, .AHEAD. ) ;
#233 = CC_DESIGN_APPROVAL ( #20, ( #223 ) ) ;
#234 = APPLICATION_PROTOCOL_DEFINITION ( 'international standard', 'config_control_design', 1994, #224 ) ;
#235 = APPROVAL_DATE_TIME ( #58, #27 ) ;
#236 = CC_DESIGN_PERSON_AND_ORGANIZATION_ASSIGNMENT ( #70, #310, ( #82 ) ) ;
#237 = ITEM_DEFINED_TRANSFORMATION ( 'NONE', 'NONE', #150,  #118 ) ;
#238 = DIRECTION ( 'NONE',  ( 4.890937612370273194E-29, -3.155443620884047222E-30, 0.9999999999999997780 ) ) ;
#239 = LOCAL_TIME ( 18, 49, 59.00000000000000000, #289 ) ;
#240 = CC_DESIGN_PERSON_AND_ORGANIZATION_ASSIGNMENT ( #141, #263, ( #295 ) ) ;
#241 = ITEM_DEFINED_TRANSFORMATION ( 'NONE', 'NONE', #227,  #171 ) ;
#242 =( NAMED_UNIT ( * ) SI_UNIT ( $, .STERADIAN. ) SOLID_ANGLE_UNIT ( ) );
#243 = EXTERNAL_SOURCE (IDENTIFIER('') ) ;
#244 = PERSON_AND_ORGANIZATION_ROLE ( 'classification_officer' ) ;
#245 = PRODUCT_DEFINITION_FORMATION_WITH_SPECIFIED_SOURCE ( 'Symmetric', '', #200, .NOT_KNOWN. ) ;
#246 = PROPERTY_DEFINITION_REPRESENTATION ( #78, #134 ) ;
#247 = CARTESIAN_POINT ( 'NONE',  ( 12.15000253293000654, 11.74999645996100561, -2.058321952820000078 ) ) ;
#248 = COORDINATED_UNIVERSAL_TIME_OFFSET ( 10, 0, .AHEAD. ) ;
#249 = PROPERTY_DEFINITION ('external definition','', #12 ) ;
#250 = APPROVAL ( #201, 'Coincident' ) ;
#251 = APPLICATION_PROTOCOL_DEFINITION ( 'international standard', 'config_control_design', 1994, #139 ) ;
#252 = CC_DESIGN_APPROVAL ( #375, ( #18 ) ) ;
#253 = APPROVAL_STATUS ( 'not_yet_approved' ) ;
#254 = PERSON_AND_ORGANIZATION ( #18446744073709551615, #18446744073709551615 ) ;
#255 = APPROVAL ( #373, 'Coincident' ) ;
#256 = DATE_TIME_ROLE ( 'creation_date' ) ;
#257 = PRODUCT_DEFINITION_SHAPE ( 'NONE', 'NONE',  #354 ) ;
#258 = PERSON_AND_ORGANIZATION_ROLE ( 'creator' ) ;
#259 = APPROVAL_DATE_TIME ( #293, #250 ) ;
#260 = CC_DESIGN_PERSON_AND_ORGANIZATION_ASSIGNMENT ( #147, #244, ( #223 ) ) ;
#261 = PERSON_AND_ORGANIZATION_ROLE ( 'creator' ) ;
#262 = IDENTIFICATION_ROLE ( 'external document id and location', $) ;
#263 = PERSON_AND_ORGANIZATION_ROLE ( 'classification_officer' ) ;
#264 =( GEOMETRIC_REPRESENTATION_CONTEXT ( 3 ) GLOBAL_UNCERTAINTY_ASSIGNED_CONTEXT ( ( #85 ) ) GLOBAL_UNIT_ASSIGNED_CONTEXT ( ( #274, #4, #3 ) ) REPRESENTATION_CONTEXT ( 'NONE', 'WORKASPACE' ) );
#265 = LOCAL_TIME ( 18, 49, 59.00000000000000000, #296 ) ;
#266 = COORDINATED_UNIVERSAL_TIME_OFFSET ( 10, 0, .AHEAD. ) ;
#267 = DATE_AND_TIME ( #24, #265 ) ;
#268 = PERSON_AND_ORGANIZATION ( #18446744073709551615, #18446744073709551615 ) ;
#269 = CALENDAR_DATE ( 2026, 22, 6 ) ;
#270 =( NAMED_UNIT ( * ) PLANE_ANGLE_UNIT ( ) SI_UNIT ( $, .RADIAN. ) );
#271 = CC_DESIGN_SECURITY_CLASSIFICATION ( #223, ( #389 ) ) ;
#272 = SECURITY_CLASSIFICATION_LEVEL ( 'unclassified' ) ;
#273 = APPLIED_DOCUMENT_REFERENCE ( #12,'',( #338) ) ;
#274 =( LENGTH_UNIT ( ) NAMED_UNIT ( * ) SI_UNIT ( .MILLI., .METRE. ) );
#275 = CARTESIAN_POINT ( 'NONE',  ( 0.000000000000000000, 0.000000000000000000, 0.000000000000000000 ) ) ;
#276 = AXIS2_PLACEMENT_3D ( 'NONE', #297, #238, #89 ) ;
#277 = APPROVAL_PERSON_ORGANIZATION ( #175, #27, #184 ) ;
#278 = APPROVAL_ROLE ( '' ) ;
#279 = CC_DESIGN_PERSON_AND_ORGANIZATION_ASSIGNMENT ( #280, #128, ( #200 ) ) ;
#280 = PERSON_AND_ORGANIZATION ( #18446744073709551615, #18446744073709551615 ) ;
#281 = PERSON_AND_ORGANIZATION ( #18446744073709551615, #18446744073709551615 ) ;
#282 = DOCUMENT_TYPE ( 'geometry' ) ;
#283 = AXIS2_PLACEMENT_3D ( 'NONE', #304, #286, #67 ) ;
#284 = CC_DESIGN_APPROVAL ( #194, ( #152 ) ) ;
#285 = APPROVAL_STATUS ( 'not_yet_approved' ) ;
#286 = DIRECTION ( 'NONE',  ( 0.000000000000000000, 0.000000000000000000, 1.000000000000000000 ) ) ;
#287 = COORDINATED_UNIVERSAL_TIME_OFFSET ( 10, 0, .AHEAD. ) ;
#288 = CC_DESIGN_PERSON_AND_ORGANIZATION_ASSIGNMENT ( #330, #332, ( #354 ) ) ;
#289 = COORDINATED_UNIVERSAL_TIME_OFFSET ( 10, 0, .AHEAD. ) ;
#290 = CC_DESIGN_APPROVAL ( #107, ( #377 ) ) ;
#291 = CC_DESIGN_DATE_AND_TIME_ASSIGNMENT ( #26, #153, ( #377 ) ) ;
#292 = CALENDAR_DATE ( 2026, 22, 6 ) ;
#293 = DATE_AND_TIME ( #16, #239 ) ;
#294 = DATE_TIME_ROLE ( 'classification_date' ) ;
#295 = SECURITY_CLASSIFICATION ( '', '', #207 ) ;
#296 = COORDINATED_UNIVERSAL_TIME_OFFSET ( 10, 0, .AHEAD. ) ;
#297 = CARTESIAN_POINT ( 'NONE',  ( 12.15000253293000299, 12.24999645996100739, -2.058321952820000078 ) ) ;
#298 = APPROVAL_STATUS ( 'not_yet_approved' ) ;
#299 = CALENDAR_DATE ( 2026, 22, 6 ) ;
#300 = DESIGN_CONTEXT ( 'detailed design', #121, 'design' ) ;
#301 = OBJECT_ROLE ('mandatory',$ ) ;
#302 = CALENDAR_DATE ( 2026, 22, 6 ) ;
#303 = APPROVAL_STATUS ( 'not_yet_approved' ) ;
#304 = CARTESIAN_POINT ( 'NONE',  ( 0.000000000000000000, 0.000000000000000000, 0.000000000000000000 ) ) ;
#305 = CC_DESIGN_DATE_AND_TIME_ASSIGNMENT ( #306, #256, ( #18 ) ) ;
#306 = DATE_AND_TIME ( #158, #10 ) ;
#307 = LOCAL_TIME ( 18, 49, 59.00000000000000000, #232 ) ;
#308 = COORDINATED_UNIVERSAL_TIME_OFFSET ( 10, 0, .AHEAD. ) ;
#309 = COORDINATED_UNIVERSAL_TIME_OFFSET ( 10, 0, .AHEAD. ) ;
#310 = PERSON_AND_ORGANIZATION_ROLE ( 'design_supplier' ) ;
#311 = PERSON_AND_ORGANIZATION_ROLE ( 'classification_officer' ) ;
#312 = CC_DESIGN_SECURITY_CLASSIFICATION ( #340, ( #82 ) ) ;
#313 = DATE_TIME_ROLE ( 'creation_date' ) ;
#314 = PRODUCT_DEFINITION_SHAPE ( 'NONE', 'NONE',  #390 ) ;
#315 = SHAPE_DEFINITION_REPRESENTATION ( #257, #134 ) ;
#316 = PERSON_AND_ORGANIZATION ( #18446744073709551615, #18446744073709551615 ) ;
#317 = APPLIED_EXTERNAL_IDENTIFICATION_ASSIGNMENT ( '6461079856.step.STEP' , #367, #336,( #329) ) ;
#318 =( REPRESENTATION_RELATIONSHIP ('NONE','NONE', #346, #134 ) REPRESENTATION_RELATIONSHIP_WITH_TRANSFORMATION ( #241 )SHAPE_REPRESENTATION_RELATIONSHIP( ) );
#319 = PERSON_AND_ORGANIZATION ( #18446744073709551615, #18446744073709551615 ) ;
#320 = DATE_AND_TIME ( #208, #137 ) ;
#321 = DIRECTION ( 'NONE',  ( 1.000000000000000222, -1.092455418989176591E-28, 4.890937612370273194E-29 ) ) ;
#322 = LOCAL_TIME ( 18, 49, 59.00000000000000000, #19 ) ;
#323 = CALENDAR_DATE ( 2026, 22, 6 ) ;
#324 = CC_DESIGN_PERSON_AND_ORGANIZATION_ASSIGNMENT ( #319, #53, ( #245 ) ) ;
#325 = DATE_AND_TIME ( #115, #197 ) ;
#326 = DIRECTION ( 'NONE',  ( 1.000000000000000222, -1.092455418989176591E-28, 4.890937612370273194E-29 ) ) ;
#327 = SECURITY_CLASSIFICATION_LEVEL ( 'unclassified' ) ;
#328 = LOCAL_TIME ( 18, 49, 59.00000000000000000, #372 ) ;
#329 = DOCUMENT_FILE ( '6461079856.step.STEP' , '', '', #360, '' ,$ ) ;
#330 = PERSON_AND_ORGANIZATION ( #18446744073709551615, #18446744073709551615 ) ;
#331 = CC_DESIGN_PERSON_AND_ORGANIZATION_ASSIGNMENT ( #349, #83, ( #68 ) ) ;
#332 = PERSON_AND_ORGANIZATION_ROLE ( 'creator' ) ;
#333 = CC_DESIGN_APPROVAL ( #250, ( #338 ) ) ;
#334 = COORDINATED_UNIVERSAL_TIME_OFFSET ( 10, 0, .AHEAD. ) ;
#335 = CC_DESIGN_PERSON_AND_ORGANIZATION_ASSIGNMENT ( #203, #165, ( #143 ) ) ;
#336 = EXTERNAL_SOURCE (IDENTIFIER('') ) ;
#337 = CALENDAR_DATE ( 2026, 22, 6 ) ;
#338 = PRODUCT_DEFINITION ( 'General', '', #68, #35 ) ;
#339 = PERSON_AND_ORGANIZATION ( #18446744073709551615, #18446744073709551615 ) ;
#340 = SECURITY_CLASSIFICATION ( '', '', #38 ) ;
#341 = APPROVAL_PERSON_ORGANIZATION ( #140, #117, #144 ) ;
#342 = APPROVAL_DATE_TIME ( #199, #98 ) ;
#343 = PRODUCT_RELATED_PRODUCT_CATEGORY ( 'detail', '', ( #230 ) ) ;
#344 = CALENDAR_DATE ( 2026, 22, 6 ) ;
#345 = PRODUCT_DEFINITION_SHAPE ( 'NONE', 'NONE',  #18 ) ;
#346 = SHAPE_REPRESENTATION ( 'C14.step', ( #283, #150, #227, #276 ), #155 ) ;
#347 = OBJECT_ROLE ('mandatory',$ ) ;
#348 = DATE_AND_TIME ( #382, #211 ) ;
#349 = PERSON_AND_ORGANIZATION ( #18446744073709551615, #18446744073709551615 ) ;
#350 = LOCAL_TIME ( 18, 49, 59.00000000000000000, #173 ) ;
#351 = APPROVAL_ROLE ( '' ) ;
#352 = PROPERTY_DEFINITION_REPRESENTATION ( #167, #134 ) ;
#353 = UNCERTAINTY_MEASURE_WITH_UNIT (LENGTH_MEASURE( 1.000000000000000082E-05 ), #116, 'distance_accuracy_value', 'NONE');
#354 = PRODUCT_DEFINITION ( 'General', '', #245, #142 ) ;
#355 = CC_DESIGN_APPROVAL ( #146, ( #245 ) ) ;
#356 = DATE_TIME_ROLE ( 'classification_date' ) ;
#357 = DIRECTION ( 'NONE',  ( 1.000000000000000000, 0.000000000000000000, 0.000000000000000000 ) ) ;
#358 = CALENDAR_DATE ( 2026, 22, 6 ) ;
#359 = APPLICATION_PROTOCOL_DEFINITION ( 'international standard', 'config_control_design', 1994, #100 ) ;
#360 = DOCUMENT_TYPE ( 'geometry' ) ;
#361 = CONTEXT_DEPENDENT_SHAPE_REPRESENTATION ( #182, #50 ) ;
#362 = DIRECTION ( 'NONE',  ( 0.000000000000000000, 0.000000000000000000, 1.000000000000000000 ) ) ;
#363 = APPROVAL_PERSON_ORGANIZATION ( #316, #98, #351 ) ;
#364 = PROPERTY_DEFINITION ('document property','', #12 ) ;
#365 = CALENDAR_DATE ( 2026, 22, 6 ) ;
#366 = PERSON_AND_ORGANIZATION ( #385, #30 ) ;
#367 = IDENTIFICATION_ROLE ( 'external document id and location', $) ;
#368 = CALENDAR_DATE ( 2026, 22, 6 ) ;
#369 = APPROVAL_PERSON_ORGANIZATION ( #106, #250, #168 ) ;
#370 = LOCAL_TIME ( 18, 49, 59.00000000000000000, #266 ) ;
#371 = CC_DESIGN_PERSON_AND_ORGANIZATION_ASSIGNMENT ( #366, #311, ( #152 ) ) ;
#372 = COORDINATED_UNIVERSAL_TIME_OFFSET ( 10, 0, .AHEAD. ) ;
#373 = APPROVAL_STATUS ( 'not_yet_approved' ) ;
#374 = DATE_AND_TIME ( #226, #157 ) ;
#375 = APPROVAL ( #99, 'Coincident' ) ;
#376 = COORDINATED_UNIVERSAL_TIME_OFFSET ( 10, 0, .AHEAD. ) ;
#377 = SECURITY_CLASSIFICATION ( '', '', #272 ) ;
#378 = PERSON_AND_ORGANIZATION ( #18446744073709551615, #18446744073709551615 ) ;
#379 = PROPERTY_DEFINITION ('external definition','', #329 ) ;
#380 = APPROVAL_DATE_TIME ( #46, #146 ) ;
#381 = PERSON ( 'NAUO-PER244', 'UNSPECIFIED', 'UNSPECIFIED', ('UNSPECIFIED'), ('UNSPECIFIED'), ('UNSPECIFIED') ) ;
#382 = CALENDAR_DATE ( 2026, 22, 6 ) ;
#383 = PERSON_AND_ORGANIZATION ( #18446744073709551615, #18446744073709551615 ) ;
#384 = APPROVAL_PERSON_ORGANIZATION ( #93, #107, #1 ) ;
#385 = PERSON ( 'NAUO-PER245', 'UNSPECIFIED', 'UNSPECIFIED', ('UNSPECIFIED'), ('UNSPECIFIED'), ('UNSPECIFIED') ) ;
#386 = PROPERTY_DEFINITION_REPRESENTATION ( #379, #134 ) ;
#387 = LOCAL_TIME ( 18, 49, 59.00000000000000000, #92 ) ;
#388 = NEXT_ASSEMBLY_USAGE_OCCURRENCE ( 'NAUO243', ' ', ' ', #18, #338, $ ) ;
#389 = NEXT_ASSEMBLY_USAGE_OCCURRENCE ( 'NAUO244', ' ', ' ', #18, #354, $ ) ;
#390 = NEXT_ASSEMBLY_USAGE_OCCURRENCE ( 'NAUO245', ' ', ' ', #18, #354, $ ) ;
ENDSEC;
END-ISO-10303-21;
