ISO-10303-21;
HEADER;
FILE_DESCRIPTION (( 'STEP AP203' ),
    '1' );
FILE_NAME ('C17.step.STEP',
    '2026-06-22T08:49:59',
    ( 'localuser' ),
    ( '' ),
    'SwSTEP 2.0',
    'SolidWorks 2025',
    '' );
FILE_SCHEMA (( 'CONFIG_CONTROL_DESIGN' ));
ENDSEC;

DATA;
#1 = ROLE_ASSOCIATION ( #322, #275 ) ;
#2 = DESIGN_CONTEXT ( 'detailed design', #178, 'design' ) ;
#3 = DIRECTION ( 'NONE',  ( 0.000000000000000000, 0.000000000000000000, 1.000000000000000000 ) ) ;
#4 = CC_DESIGN_APPROVAL ( #267, ( #209 ) ) ;
#5 = COORDINATED_UNIVERSAL_TIME_OFFSET ( 10, 0, .AHEAD. ) ;
#6 = CC_DESIGN_PERSON_AND_ORGANIZATION_ASSIGNMENT ( #139, #268, ( #237 ) ) ;
#7 = CC_DESIGN_PERSON_AND_ORGANIZATION_ASSIGNMENT ( #26, #183, ( #44 ) ) ;
#8 = APPROVAL_PERSON_ORGANIZATION ( #46, #195, #157 ) ;
#9 = APPROVAL_PERSON_ORGANIZATION ( #262, #349, #227 ) ;
#10 = CONTEXT_DEPENDENT_SHAPE_REPRESENTATION ( #342, #162 ) ;
#11 = PERSON_AND_ORGANIZATION_ROLE ( 'classification_officer' ) ;
#12 = APPLICATION_PROTOCOL_DEFINITION ( 'international standard', 'config_control_design', 1994, #269 ) ;
#13 = PERSON_AND_ORGANIZATION ( #18446744073709551615, #18446744073709551615 ) ;
#14 = LOCAL_TIME ( 18, 49, 59.00000000000000000, #244 ) ;
#15 = APPROVAL_STATUS ( 'not_yet_approved' ) ;
#16 = APPLICATION_CONTEXT ( 'configuration controlled 3d designs of mechanical parts and assemblies' ) ;
#17 = CC_DESIGN_PERSON_AND_ORGANIZATION_ASSIGNMENT ( #62, #371, ( #263 ) ) ;
#18 = PERSON_AND_ORGANIZATION ( #18446744073709551615, #18446744073709551615 ) ;
#19 = PRODUCT_DEFINITION ( 'General', '', #248, #93 ) ;
#20 = PERSON ( 'NAUO-PER247', 'UNSPECIFIED', 'UNSPECIFIED', ('UNSPECIFIED'), ('UNSPECIFIED'), ('UNSPECIFIED') ) ;
#21 = APPLICATION_PROTOCOL_DEFINITION ( 'international standard', 'config_control_design', 1994, #16 ) ;
#22 = PERSON_AND_ORGANIZATION ( #18446744073709551615, #18446744073709551615 ) ;
#23 = SECURITY_CLASSIFICATION ( '', '', #168 ) ;
#24 = PERSON_AND_ORGANIZATION ( #18446744073709551615, #18446744073709551615 ) ;
#25 = PRODUCT_DEFINITION ( 'General', '', #286, #2 ) ;
#26 = PERSON_AND_ORGANIZATION ( #383, #135 ) ;
#27 = CC_DESIGN_PERSON_AND_ORGANIZATION_ASSIGNMENT ( #22, #364, ( #367 ) ) ;
#28 = AXIS2_PLACEMENT_3D ( 'NONE', #361, #280, #338 ) ;
#29 =( LENGTH_UNIT ( ) NAMED_UNIT ( * ) SI_UNIT ( .MILLI., .METRE. ) );
#30 = CC_DESIGN_APPROVAL ( #349, ( #113 ) ) ;
#31 = LOCAL_TIME ( 18, 49, 59.00000000000000000, #196 ) ;
#32 = APPROVAL_ROLE ( '' ) ;
#33 = DIRECTION ( 'NONE',  ( 1.000000000000000000, 0.000000000000000000, 0.000000000000000000 ) ) ;
#34 = DATE_AND_TIME ( #172, #72 ) ;
#35 = APPROVAL_DATE_TIME ( #259, #306 ) ;
#36 = CALENDAR_DATE ( 2026, 22, 6 ) ;
#37 = CC_DESIGN_SECURITY_CLASSIFICATION ( #209, ( #389 ) ) ;
#38 = SHAPE_DEFINITION_REPRESENTATION ( #234, #321 ) ;
#39 = EXTERNAL_SOURCE (IDENTIFIER('') ) ;
#40 = APPLIED_DOCUMENT_REFERENCE ( #276,'',( #19) ) ;
#41 = PERSON_AND_ORGANIZATION_ROLE ( 'design_supplier' ) ;
#42 = APPLICATION_PROTOCOL_DEFINITION ( 'international standard', 'config_control_design', 1994, #178 ) ;
#43 = CC_DESIGN_APPROVAL ( #341, ( #286 ) ) ;
#44 = SECURITY_CLASSIFICATION ( '', '', #303 ) ;
#45 = CC_DESIGN_PERSON_AND_ORGANIZATION_ASSIGNMENT ( #345, #41, ( #286 ) ) ;
#46 = PERSON_AND_ORGANIZATION ( #18446744073709551615, #18446744073709551615 ) ;
#47 = CALENDAR_DATE ( 2026, 22, 6 ) ;
#48 = APPROVAL_DATE_TIME ( #185, #291 ) ;
#49 = CC_DESIGN_DATE_AND_TIME_ASSIGNMENT ( #80, #204, ( #23 ) ) ;
#50 = PRODUCT_DEFINITION_SHAPE ( 'NONE', 'NONE',  #388 ) ;
#51 = APPLIED_EXTERNAL_IDENTIFICATION_ASSIGNMENT ( '6461082896.step.STEP' , #59, #352,( #276) ) ;
#52 = PERSON_AND_ORGANIZATION ( #18446744073709551615, #18446744073709551615 ) ;
#53 = APPROVAL_ROLE ( '' ) ;
#54 = PERSON_AND_ORGANIZATION_ROLE ( 'classification_officer' ) ;
#55 = COORDINATED_UNIVERSAL_TIME_OFFSET ( 10, 0, .AHEAD. ) ;
#56 = CC_DESIGN_APPROVAL ( #232, ( #23 ) ) ;
#57 = DIRECTION ( 'NONE',  ( 4.890937612370273194E-29, -3.155443620884047222E-30, 0.9999999999999997780 ) ) ;
#58 = DATE_AND_TIME ( #277, #372 ) ;
#59 = IDENTIFICATION_ROLE ( 'external document id and location', $) ;
#60 = PERSON_AND_ORGANIZATION ( #20, #242 ) ;
#61 = CC_DESIGN_APPROVAL ( #195, ( #25 ) ) ;
#62 = PERSON_AND_ORGANIZATION ( #18446744073709551615, #18446744073709551615 ) ;
#63 = LOCAL_TIME ( 18, 49, 59.00000000000000000, #101 ) ;
#64 = APPROVAL_STATUS ( 'not_yet_approved' ) ;
#65 = OBJECT_ROLE ('mandatory',$ ) ;
#66 = CALENDAR_DATE ( 2026, 22, 6 ) ;
#67 = COORDINATED_UNIVERSAL_TIME_OFFSET ( 10, 0, .AHEAD. ) ;
#68 = AXIS2_PLACEMENT_3D ( 'NONE', #171, #182, #33 ) ;
#69 = CALENDAR_DATE ( 2026, 22, 6 ) ;
#70 = PERSON_AND_ORGANIZATION ( #18446744073709551615, #18446744073709551615 ) ;
#71 = DATE_TIME_ROLE ( 'creation_date' ) ;
#72 = LOCAL_TIME ( 18, 49, 59.00000000000000000, #386 ) ;
#73 = CALENDAR_DATE ( 2026, 22, 6 ) ;
#74 = APPROVAL ( #381, 'Coincident' ) ;
#75 = PERSON_AND_ORGANIZATION ( #18446744073709551615, #18446744073709551615 ) ;
#76 = SHAPE_REPRESENTATION ( '6461082896.step', ( #68 ), #146 ) ;
#77 = APPROVAL_DATE_TIME ( #264, #232 ) ;
#78 = IDENTIFICATION_ROLE ( 'external document id and location', $) ;
#79 = CC_DESIGN_DATE_AND_TIME_ASSIGNMENT ( #363, #333, ( #44 ) ) ;
#80 = DATE_AND_TIME ( #235, #31 ) ;
#81 = APPROVAL_STATUS ( 'not_yet_approved' ) ;
#82 = APPROVAL_STATUS ( 'not_yet_approved' ) ;
#83 = CC_DESIGN_PERSON_AND_ORGANIZATION_ASSIGNMENT ( #13, #238, ( #197 ) ) ;
#84 = DATE_TIME_ROLE ( 'classification_date' ) ;
#85 = CC_DESIGN_SECURITY_CLASSIFICATION ( #23, ( #237 ) ) ;
#86 =( NAMED_UNIT ( * ) SI_UNIT ( $, .STERADIAN. ) SOLID_ANGLE_UNIT ( ) );
#87 = APPROVAL_DATE_TIME ( #58, #108 ) ;
#88 = APPROVAL_DATE_TIME ( #385, #175 ) ;
#89 = COORDINATED_UNIVERSAL_TIME_OFFSET ( 10, 0, .AHEAD. ) ;
#90 = AXIS2_PLACEMENT_3D ( 'NONE', #149, #302, #207 ) ;
#91 =( NAMED_UNIT ( * ) PLANE_ANGLE_UNIT ( ) SI_UNIT ( $, .RADIAN. ) );
#92 = APPROVAL_PERSON_ORGANIZATION ( #60, #267, #239 ) ;
#93 = DESIGN_CONTEXT ( 'detailed design', #16, 'design' ) ;
#94 = MECHANICAL_CONTEXT ( 'NONE', #269, 'mechanical' ) ;
#95 = CC_DESIGN_DATE_AND_TIME_ASSIGNMENT ( #151, #312, ( #113 ) ) ;
#96 = PERSON_AND_ORGANIZATION_ROLE ( 'classification_officer' ) ;
#97 = APPROVAL_STATUS ( 'not_yet_approved' ) ;
#98 = CC_DESIGN_PERSON_AND_ORGANIZATION_ASSIGNMENT ( #233, #198, ( #248 ) ) ;
#99 = APPROVAL_DATE_TIME ( #251, #195 ) ;
#100 = EXTERNAL_SOURCE (IDENTIFIER('') ) ;
#101 = COORDINATED_UNIVERSAL_TIME_OFFSET ( 10, 0, .AHEAD. ) ;
#102 = COORDINATED_UNIVERSAL_TIME_OFFSET ( 10, 0, .AHEAD. ) ;
#103 = MECHANICAL_CONTEXT ( 'NONE', #138, 'mechanical' ) ;
#104 = LOCAL_TIME ( 18, 49, 59.00000000000000000, #318 ) ;
#105 = SHAPE_REPRESENTATION ( '6461083056.step', ( #366 ), #201 ) ;
#106 = PROPERTY_DEFINITION ('external definition','', #276 ) ;
#107 = COORDINATED_UNIVERSAL_TIME_OFFSET ( 10, 0, .AHEAD. ) ;
#108 = APPROVAL ( #325, 'UNKNOWN' ) ;
#109 = PRODUCT_DEFINITION_SHAPE ( 'NONE', 'NONE',  #19 ) ;
#110 = DATE_TIME_ROLE ( 'creation_date' ) ;
#111 = CC_DESIGN_PERSON_AND_ORGANIZATION_ASSIGNMENT ( #254, #96, ( #120 ) ) ;
#112 = APPROVAL_ROLE ( '' ) ;
#113 = SECURITY_CLASSIFICATION ( '', '', #335 ) ;
#114 = LOCAL_TIME ( 18, 49, 59.00000000000000000, #107 ) ;
#115 = PERSON_AND_ORGANIZATION_ROLE ( 'creator' ) ;
#116 = DATE_AND_TIME ( #360, #188 ) ;
#117 = CALENDAR_DATE ( 2026, 22, 6 ) ;
#118 = CC_DESIGN_PERSON_AND_ORGANIZATION_ASSIGNMENT ( #52, #54, ( #23 ) ) ;
#119 = COORDINATED_UNIVERSAL_TIME_OFFSET ( 10, 0, .AHEAD. ) ;
#120 = SECURITY_CLASSIFICATION ( '', '', #358 ) ;
#121 = DOCUMENT_TYPE ( 'geometry' ) ;
#122 = CC_DESIGN_DATE_AND_TIME_ASSIGNMENT ( #116, #84, ( #209 ) ) ;
#123 = ITEM_DEFINED_TRANSFORMATION ( 'NONE', 'NONE', #346,  #68 ) ;
#124 = CARTESIAN_POINT ( 'NONE',  ( 0.000000000000000000, 0.000000000000000000, 0.000000000000000000 ) ) ;
#125 = DATE_AND_TIME ( #148, #14 ) ;
#126 = UNCERTAINTY_MEASURE_WITH_UNIT (LENGTH_MEASURE( 1.000000000000000082E-05 ), #174, 'distance_accuracy_value', 'NONE');
#127 = APPLICATION_PROTOCOL_DEFINITION ( 'international standard', 'config_control_design', 1994, #225 ) ;
#128 = LOCAL_TIME ( 18, 49, 59.00000000000000000, #102 ) ;
#129 = UNCERTAINTY_MEASURE_WITH_UNIT (LENGTH_MEASURE( 1.000000000000000082E-05 ), #177, 'distance_accuracy_value', 'NONE');
#130 = PERSON_AND_ORGANIZATION_ROLE ( 'creator' ) ;
#131 = DATE_AND_TIME ( #223, #208 ) ;
#132 = LOCAL_TIME ( 18, 49, 59.00000000000000000, #292 ) ;
#133 = PERSON_AND_ORGANIZATION ( #18446744073709551615, #18446744073709551615 ) ;
#134 = DATE_TIME_ROLE ( 'creation_date' ) ;
#135 = ORGANIZATION ( 'NAUO-ORG246', 'UNSPECIFIED', 'UNSPECIFIED' ) ;
#136 = PROPERTY_DEFINITION ('document property','', #276 ) ;
#137 = COORDINATED_UNIVERSAL_TIME_OFFSET ( 10, 0, .AHEAD. ) ;
#138 = APPLICATION_CONTEXT ( 'configuration controlled 3d designs of mechanical parts and assemblies' ) ;
#139 = PERSON_AND_ORGANIZATION ( #18446744073709551615, #18446744073709551615 ) ;
#140 = DATE_AND_TIME ( #47, #180 ) ;
#141 = LOCAL_TIME ( 18, 49, 59.00000000000000000, #379 ) ;
#142 = CALENDAR_DATE ( 2026, 22, 6 ) ;
#143 = COORDINATED_UNIVERSAL_TIME_OFFSET ( 10, 0, .AHEAD. ) ;
#144 =( NAMED_UNIT ( * ) SI_UNIT ( $, .STERADIAN. ) SOLID_ANGLE_UNIT ( ) );
#145 = PRODUCT_RELATED_PRODUCT_CATEGORY ( 'detail', '', ( #197 ) ) ;
#146 =( GEOMETRIC_REPRESENTATION_CONTEXT ( 3 ) GLOBAL_UNCERTAINTY_ASSIGNED_CONTEXT ( ( #129 ) ) GLOBAL_UNIT_ASSIGNED_CONTEXT ( ( #177, #215, #144 ) ) REPRESENTATION_CONTEXT ( 'NONE', 'WORKASPACE' ) );
#147 = ROLE_ASSOCIATION ( #245, #384 ) ;
#148 = CALENDAR_DATE ( 2026, 22, 6 ) ;
#149 = CARTESIAN_POINT ( 'NONE',  ( 17.24999719235400519, 6.299999511719001077, -2.058321952820000078 ) ) ;
#150 = LOCAL_TIME ( 18, 49, 59.00000000000000000, #314 ) ;
#151 = DATE_AND_TIME ( #155, #313 ) ;
#152 = CC_DESIGN_APPROVAL ( #74, ( #237 ) ) ;
#153 = APPROVAL_STATUS ( 'not_yet_approved' ) ;
#154 =( REPRESENTATION_RELATIONSHIP ('NONE','NONE', #321, #105 ) REPRESENTATION_RELATIONSHIP_WITH_TRANSFORMATION ( #301 )SHAPE_REPRESENTATION_RELATIONSHIP( ) );
#155 = CALENDAR_DATE ( 2026, 22, 6 ) ;
#156 = COORDINATED_UNIVERSAL_TIME_OFFSET ( 10, 0, .AHEAD. ) ;
#157 = APPROVAL_ROLE ( '' ) ;
#158 = CC_DESIGN_SECURITY_CLASSIFICATION ( #113, ( #286 ) ) ;
#159 = DATE_AND_TIME ( #36, #63 ) ;
#160 = DATE_AND_TIME ( #229, #293 ) ;
#161 = CC_DESIGN_PERSON_AND_ORGANIZATION_ASSIGNMENT ( #192, #11, ( #113 ) ) ;
#162 = PRODUCT_DEFINITION_SHAPE ( 'NONE', 'NONE',  #390 ) ;
#163 = CALENDAR_DATE ( 2026, 22, 6 ) ;
#164 = PRODUCT ( '6461083056.step', '6461083056.step', '', ( #94 ) ) ;
#165 = CC_DESIGN_PERSON_AND_ORGANIZATION_ASSIGNMENT ( #357, #355, ( #248 ) ) ;
#166 = CC_DESIGN_APPROVAL ( #306, ( #120 ) ) ;
#167 = PERSON_AND_ORGANIZATION ( #18446744073709551615, #18446744073709551615 ) ;
#168 = SECURITY_CLASSIFICATION_LEVEL ( 'unclassified' ) ;
#169 = SECURITY_CLASSIFICATION_LEVEL ( 'unclassified' ) ;
#170 = DOCUMENT_TYPE ( 'geometry' ) ;
#171 = CARTESIAN_POINT ( 'NONE',  ( 0.000000000000000000, 0.000000000000000000, 0.000000000000000000 ) ) ;
#172 = CALENDAR_DATE ( 2026, 22, 6 ) ;
#173 = PERSON_AND_ORGANIZATION_ROLE ( 'classification_officer' ) ;
#174 =( LENGTH_UNIT ( ) NAMED_UNIT ( * ) SI_UNIT ( .MILLI., .METRE. ) );
#175 = APPROVAL ( #82, 'Coincident' ) ;
#176 = PROPERTY_DEFINITION_REPRESENTATION ( #353, #105 ) ;
#177 =( LENGTH_UNIT ( ) NAMED_UNIT ( * ) SI_UNIT ( .MILLI., .METRE. ) );
#178 = APPLICATION_CONTEXT ( 'configuration controlled 3d designs of mechanical parts and assemblies' ) ;
#179 = CC_DESIGN_DATE_AND_TIME_ASSIGNMENT ( #310, #186, ( #120 ) ) ;
#180 = LOCAL_TIME ( 18, 49, 59.00000000000000000, #137 ) ;
#181 = SHAPE_DEFINITION_REPRESENTATION ( #109, #76 ) ;
#182 = DIRECTION ( 'NONE',  ( 0.000000000000000000, 0.000000000000000000, 1.000000000000000000 ) ) ;
#183 = PERSON_AND_ORGANIZATION_ROLE ( 'classification_officer' ) ;
#184 = DIRECTION ( 'NONE',  ( 4.890937612370273194E-29, -3.155443620884047222E-30, 0.9999999999999997780 ) ) ;
#185 = DATE_AND_TIME ( #66, #128 ) ;
#186 = DATE_TIME_ROLE ( 'classification_date' ) ;
#187 = CALENDAR_DATE ( 2026, 22, 6 ) ;
#188 = LOCAL_TIME ( 18, 49, 59.00000000000000000, #119 ) ;
#189 = CC_DESIGN_DATE_AND_TIME_ASSIGNMENT ( #348, #110, ( #359 ) ) ;
#190 = DATE_AND_TIME ( #69, #150 ) ;
#191 = CC_DESIGN_DATE_AND_TIME_ASSIGNMENT ( #160, #134, ( #19 ) ) ;
#192 = PERSON_AND_ORGANIZATION ( #18446744073709551615, #18446744073709551615 ) ;
#193 = PERSON_AND_ORGANIZATION ( #18446744073709551615, #18446744073709551615 ) ;
#194 = CC_DESIGN_APPROVAL ( #344, ( #19 ) ) ;
#195 = APPROVAL ( #220, 'Coincident' ) ;
#196 = COORDINATED_UNIVERSAL_TIME_OFFSET ( 10, 0, .AHEAD. ) ;
#197 = PRODUCT ( '6461082896.step', '6461082896.step', '', ( #103 ) ) ;
#198 = PERSON_AND_ORGANIZATION_ROLE ( 'design_supplier' ) ;
#199 = PROPERTY_DEFINITION ('external definition','', #211 ) ;
#200 = APPROVAL_ROLE ( '' ) ;
#201 =( GEOMETRIC_REPRESENTATION_CONTEXT ( 3 ) GLOBAL_UNCERTAINTY_ASSIGNED_CONTEXT ( ( #249 ) ) GLOBAL_UNIT_ASSIGNED_CONTEXT ( ( #29, #91, #86 ) ) REPRESENTATION_CONTEXT ( 'NONE', 'WORKASPACE' ) );
#202 = APPLICATION_CONTEXT ( 'configuration controlled 3d designs of mechanical parts and assemblies' ) ;
#203 = CC_DESIGN_SECURITY_CLASSIFICATION ( #120, ( #390 ) ) ;
#204 = DATE_TIME_ROLE ( 'classification_date' ) ;
#205 = COORDINATED_UNIVERSAL_TIME_OFFSET ( 10, 0, .AHEAD. ) ;
#206 = ITEM_DEFINED_TRANSFORMATION ( 'NONE', 'NONE', #271,  #68 ) ;
#207 = DIRECTION ( 'NONE',  ( 1.000000000000000222, -1.092455418989176591E-28, 4.890937612370273194E-29 ) ) ;
#208 = LOCAL_TIME ( 18, 49, 59.00000000000000000, #5 ) ;
#209 = SECURITY_CLASSIFICATION ( '', '', #241 ) ;
#210 = CC_DESIGN_PERSON_AND_ORGANIZATION_ASSIGNMENT ( #226, #343, ( #164 ) ) ;
#211 = DOCUMENT_FILE ( '6461083056.step.STEP' , '', '', #121, '' ,$ ) ;
#212 = DIRECTION ( 'NONE',  ( 1.000000000000000222, -1.092455418989176591E-28, 4.890937612370273194E-29 ) ) ;
#213 = APPROVAL_DATE_TIME ( #125, #267 ) ;
#214 = COORDINATED_UNIVERSAL_TIME_OFFSET ( 10, 0, .AHEAD. ) ;
#215 =( NAMED_UNIT ( * ) PLANE_ANGLE_UNIT ( ) SI_UNIT ( $, .RADIAN. ) );
#216 = CC_DESIGN_APPROVAL ( #175, ( #367 ) ) ;
#217 = CALENDAR_DATE ( 2026, 22, 6 ) ;
#218 = APPLICATION_PROTOCOL_DEFINITION ( 'international standard', 'config_control_design', 1994, #202 ) ;
#219 = CC_DESIGN_PERSON_AND_ORGANIZATION_ASSIGNMENT ( #18, #350, ( #359 ) ) ;
#220 = APPROVAL_STATUS ( 'not_yet_approved' ) ;
#221 = PROPERTY_DEFINITION_REPRESENTATION ( #136, #76 ) ;
#222 =( GEOMETRIC_REPRESENTATION_CONTEXT ( 3 ) GLOBAL_UNCERTAINTY_ASSIGNED_CONTEXT ( ( #126 ) ) GLOBAL_UNIT_ASSIGNED_CONTEXT ( ( #174, #283, #255 ) ) REPRESENTATION_CONTEXT ( 'NONE', 'WORKASPACE' ) );
#223 = CALENDAR_DATE ( 2026, 22, 6 ) ;
#224 = APPROVAL_PERSON_ORGANIZATION ( #254, #306, #375 ) ;
#225 = APPLICATION_CONTEXT ( 'configuration controlled 3d designs of mechanical parts and assemblies' ) ;
#226 = PERSON_AND_ORGANIZATION ( #18446744073709551615, #18446744073709551615 ) ;
#227 = APPROVAL_ROLE ( '' ) ;
#228 = PERSON ( 'NAUO-PER248', 'UNSPECIFIED', 'UNSPECIFIED', ('UNSPECIFIED'), ('UNSPECIFIED'), ('UNSPECIFIED') ) ;
#229 = CALENDAR_DATE ( 2026, 22, 6 ) ;
#230 = APPROVAL_PERSON_ORGANIZATION ( #324, #344, #112 ) ;
#231 = LOCAL_TIME ( 18, 49, 59.00000000000000000, #89 ) ;
#232 = APPROVAL ( #296, 'Coincident' ) ;
#233 = PERSON_AND_ORGANIZATION ( #18446744073709551615, #18446744073709551615 ) ;
#234 = PRODUCT_DEFINITION_SHAPE ( 'NONE', 'NONE',  #25 ) ;
#235 = CALENDAR_DATE ( 2026, 22, 6 ) ;
#236 = PERSON_AND_ORGANIZATION ( #18446744073709551615, #18446744073709551615 ) ;
#237 = PRODUCT_DEFINITION_FORMATION_WITH_SPECIFIED_SOURCE ( 'Symmetric', '', #164, .NOT_KNOWN. ) ;
#238 = PERSON_AND_ORGANIZATION_ROLE ( 'design_owner' ) ;
#239 = APPROVAL_ROLE ( '' ) ;
#240 = CC_DESIGN_PERSON_AND_ORGANIZATION_ASSIGNMENT ( #193, #369, ( #25 ) ) ;
#241 = SECURITY_CLASSIFICATION_LEVEL ( 'unclassified' ) ;
#242 = ORGANIZATION ( 'NAUO-ORG247', 'UNSPECIFIED', 'UNSPECIFIED' ) ;
#243 = PRODUCT_RELATED_PRODUCT_CATEGORY ( 'detail', '', ( #164 ) ) ;
#244 = COORDINATED_UNIVERSAL_TIME_OFFSET ( 10, 0, .AHEAD. ) ;
#245 = OBJECT_ROLE ('mandatory',$ ) ;
#246 = CONTEXT_DEPENDENT_SHAPE_REPRESENTATION ( #154, #289 ) ;
#247 = DIRECTION ( 'NONE',  ( 1.000000000000000000, 0.000000000000000000, 0.000000000000000000 ) ) ;
#248 = PRODUCT_DEFINITION_FORMATION_WITH_SPECIFIED_SOURCE ( 'Symmetric', '', #197, .NOT_KNOWN. ) ;
#249 = UNCERTAINTY_MEASURE_WITH_UNIT (LENGTH_MEASURE( 1.000000000000000082E-05 ), #29, 'distance_accuracy_value', 'NONE');
#250 = PROPERTY_DEFINITION_REPRESENTATION ( #106, #76 ) ;
#251 = DATE_AND_TIME ( #187, #278 ) ;
#252 = PROPERTY_DEFINITION ('external definition','', #317 ) ;
#253 = CC_DESIGN_DATE_AND_TIME_ASSIGNMENT ( #34, #299, ( #367 ) ) ;
#254 = PERSON_AND_ORGANIZATION ( #228, #387 ) ;
#255 =( NAMED_UNIT ( * ) SI_UNIT ( $, .STERADIAN. ) SOLID_ANGLE_UNIT ( ) );
#256 = APPROVAL_PERSON_ORGANIZATION ( #70, #291, #288 ) ;
#257 = APPROVAL_PERSON_ORGANIZATION ( #24, #175, #32 ) ;
#258 = APPROVAL_STATUS ( 'not_yet_approved' ) ;
#259 = DATE_AND_TIME ( #285, #265 ) ;
#260 = APPROVAL_DATE_TIME ( #159, #349 ) ;
#261 = CC_DESIGN_DATE_AND_TIME_ASSIGNMENT ( #131, #71, ( #25 ) ) ;
#262 = PERSON_AND_ORGANIZATION ( #18446744073709551615, #18446744073709551615 ) ;
#263 = PRODUCT ( 'C17.step', 'C17.step', '', ( #304 ) ) ;
#264 = DATE_AND_TIME ( #73, #141 ) ;
#265 = LOCAL_TIME ( 18, 49, 59.00000000000000000, #156 ) ;
#266 = DATE_AND_TIME ( #295, #114 ) ;
#267 = APPROVAL ( #64, 'UNKNOWN' ) ;
#268 = PERSON_AND_ORGANIZATION_ROLE ( 'creator' ) ;
#269 = APPLICATION_CONTEXT ( 'configuration controlled 3d designs of mechanical parts and assemblies' ) ;
#270 = APPROVAL_DATE_TIME ( #266, #336 ) ;
#271 = AXIS2_PLACEMENT_3D ( 'NONE', #334, #184, #309 ) ;
#272 = CC_DESIGN_SECURITY_CLASSIFICATION ( #44, ( #388 ) ) ;
#273 = CONTEXT_DEPENDENT_SHAPE_REPRESENTATION ( #305, #50 ) ;
#274 = APPROVAL_ROLE ( '' ) ;
#275 = APPLIED_DOCUMENT_REFERENCE ( #211,'',( #359) ) ;
#276 = DOCUMENT_FILE ( '6461082896.step.STEP' , '', '', #370, '' ,$ ) ;
#277 = CALENDAR_DATE ( 2026, 22, 6 ) ;
#278 = LOCAL_TIME ( 18, 49, 59.00000000000000000, #67 ) ;
#279 = APPROVAL_PERSON_ORGANIZATION ( #26, #108, #274 ) ;
#280 = DIRECTION ( 'NONE',  ( 0.000000000000000000, 0.000000000000000000, 1.000000000000000000 ) ) ;
#281 = PRODUCT_RELATED_PRODUCT_CATEGORY ( 'detail', '', ( #263 ) ) ;
#282 = PERSON_AND_ORGANIZATION ( #18446744073709551615, #18446744073709551615 ) ;
#283 =( NAMED_UNIT ( * ) PLANE_ANGLE_UNIT ( ) SI_UNIT ( $, .RADIAN. ) );
#284 = IDENTIFICATION_ROLE ( 'external document id and location', $) ;
#285 = CALENDAR_DATE ( 2026, 22, 6 ) ;
#286 = PRODUCT_DEFINITION_FORMATION_WITH_SPECIFIED_SOURCE ( 'Symmetric', '', #263, .NOT_KNOWN. ) ;
#287 = APPROVAL_PERSON_ORGANIZATION ( #75, #336, #378 ) ;
#288 = APPROVAL_ROLE ( '' ) ;
#289 = PRODUCT_DEFINITION_SHAPE ( 'NONE', 'NONE',  #389 ) ;
#290 = APPROVAL_DATE_TIME ( #323, #74 ) ;
#291 = APPROVAL ( #153, 'Coincident' ) ;
#292 = COORDINATED_UNIVERSAL_TIME_OFFSET ( 10, 0, .AHEAD. ) ;
#293 = LOCAL_TIME ( 18, 49, 59.00000000000000000, #205 ) ;
#294 = CC_DESIGN_PERSON_AND_ORGANIZATION_ASSIGNMENT ( #236, #115, ( #19 ) ) ;
#295 = CALENDAR_DATE ( 2026, 22, 6 ) ;
#296 = APPROVAL_STATUS ( 'not_yet_approved' ) ;
#297 = PERSON_AND_ORGANIZATION ( #18446744073709551615, #18446744073709551615 ) ;
#298 = CC_DESIGN_SECURITY_CLASSIFICATION ( #367, ( #248 ) ) ;
#299 = DATE_TIME_ROLE ( 'classification_date' ) ;
#300 = DESIGN_CONTEXT ( 'detailed design', #202, 'design' ) ;
#301 = ITEM_DEFINED_TRANSFORMATION ( 'NONE', 'NONE', #90,  #366 ) ;
#302 = DIRECTION ( 'NONE',  ( 4.890937612370273194E-29, -3.155443620884047222E-30, 0.9999999999999997780 ) ) ;
#303 = SECURITY_CLASSIFICATION_LEVEL ( 'unclassified' ) ;
#304 = MECHANICAL_CONTEXT ( 'NONE', #225, 'mechanical' ) ;
#305 =( REPRESENTATION_RELATIONSHIP ('NONE','NONE', #321, #76 ) REPRESENTATION_RELATIONSHIP_WITH_TRANSFORMATION ( #206 )SHAPE_REPRESENTATION_RELATIONSHIP( ) );
#306 = APPROVAL ( #365, 'UNKNOWN' ) ;
#307 = CALENDAR_DATE ( 2026, 22, 6 ) ;
#308 = PROPERTY_DEFINITION_REPRESENTATION ( #199, #105 ) ;
#309 = DIRECTION ( 'NONE',  ( 1.000000000000000222, -1.092455418989176591E-28, 4.890937612370273194E-29 ) ) ;
#310 = DATE_AND_TIME ( #217, #231 ) ;
#311 = CC_DESIGN_PERSON_AND_ORGANIZATION_ASSIGNMENT ( #282, #130, ( #286 ) ) ;
#312 = DATE_TIME_ROLE ( 'classification_date' ) ;
#313 = LOCAL_TIME ( 18, 49, 59.00000000000000000, #374 ) ;
#314 = COORDINATED_UNIVERSAL_TIME_OFFSET ( 10, 0, .AHEAD. ) ;
#315 = APPROVAL_DATE_TIME ( #190, #341 ) ;
#316 = APPLIED_EXTERNAL_IDENTIFICATION_ASSIGNMENT ( '6461083056.step.STEP' , #284, #39,( #211) ) ;
#317 = DOCUMENT_FILE ( '6461082896.step.STEP' , '', '', #170, '' ,$ ) ;
#318 = COORDINATED_UNIVERSAL_TIME_OFFSET ( 10, 0, .AHEAD. ) ;
#319 = APPLICATION_PROTOCOL_DEFINITION ( 'international standard', 'config_control_design', 1994, #138 ) ;
#320 = APPROVAL_DATE_TIME ( #140, #344 ) ;
#321 = SHAPE_REPRESENTATION ( 'C17.step', ( #28, #271, #90, #346 ), #222 ) ;
#322 = OBJECT_ROLE ('mandatory',$ ) ;
#323 = DATE_AND_TIME ( #142, #132 ) ;
#324 = PERSON_AND_ORGANIZATION ( #18446744073709551615, #18446744073709551615 ) ;
#325 = APPROVAL_STATUS ( 'not_yet_approved' ) ;
#326 = CARTESIAN_POINT ( 'NONE',  ( 16.75000100705100081, 6.299999511719001077, -2.058321952820000078 ) ) ;
#327 = APPROVAL_PERSON_ORGANIZATION ( #133, #341, #340 ) ;
#328 = APPLIED_EXTERNAL_IDENTIFICATION_ASSIGNMENT ( '6461082896.step.STEP' , #78, #100,( #317) ) ;
#329 = PROPERTY_DEFINITION_REPRESENTATION ( #252, #76 ) ;
#330 = CC_DESIGN_PERSON_AND_ORGANIZATION_ASSIGNMENT ( #167, #376, ( #237 ) ) ;
#331 = PROPERTY_DEFINITION_REPRESENTATION ( #368, #76 ) ;
#332 = CC_DESIGN_APPROVAL ( #336, ( #248 ) ) ;
#333 = DATE_TIME_ROLE ( 'classification_date' ) ;
#334 = CARTESIAN_POINT ( 'NONE',  ( 17.74999719235400164, 6.299999511719001077, -2.058321952820000078 ) ) ;
#335 = SECURITY_CLASSIFICATION_LEVEL ( 'unclassified' ) ;
#336 = APPROVAL ( #81, 'Coincident' ) ;
#337 = ROLE_ASSOCIATION ( #65, #40 ) ;
#338 = DIRECTION ( 'NONE',  ( 1.000000000000000000, 0.000000000000000000, 0.000000000000000000 ) ) ;
#339 = APPROVAL_PERSON_ORGANIZATION ( #380, #232, #53 ) ;
#340 = APPROVAL_ROLE ( '' ) ;
#341 = APPROVAL ( #258, 'Coincident' ) ;
#342 =( REPRESENTATION_RELATIONSHIP ('NONE','NONE', #321, #76 ) REPRESENTATION_RELATIONSHIP_WITH_TRANSFORMATION ( #123 )SHAPE_REPRESENTATION_RELATIONSHIP( ) );
#343 = PERSON_AND_ORGANIZATION_ROLE ( 'design_owner' ) ;
#344 = APPROVAL ( #15, 'Coincident' ) ;
#345 = PERSON_AND_ORGANIZATION ( #18446744073709551615, #18446744073709551615 ) ;
#346 = AXIS2_PLACEMENT_3D ( 'NONE', #326, #57, #212 ) ;
#347 = CC_DESIGN_APPROVAL ( #108, ( #44 ) ) ;
#348 = DATE_AND_TIME ( #163, #104 ) ;
#349 = APPROVAL ( #97, 'Coincident' ) ;
#350 = PERSON_AND_ORGANIZATION_ROLE ( 'creator' ) ;
#351 = PRODUCT_DEFINITION_SHAPE ( 'NONE', 'NONE',  #359 ) ;
#352 = EXTERNAL_SOURCE (IDENTIFIER('') ) ;
#353 = PROPERTY_DEFINITION ('document property','', #211 ) ;
#354 = SHAPE_DEFINITION_REPRESENTATION ( #351, #105 ) ;
#355 = PERSON_AND_ORGANIZATION_ROLE ( 'creator' ) ;
#356 = APPROVAL_PERSON_ORGANIZATION ( #297, #74, #200 ) ;
#357 = PERSON_AND_ORGANIZATION ( #18446744073709551615, #18446744073709551615 ) ;
#358 = SECURITY_CLASSIFICATION_LEVEL ( 'unclassified' ) ;
#359 = PRODUCT_DEFINITION ( 'General', '', #237, #300 ) ;
#360 = CALENDAR_DATE ( 2026, 22, 6 ) ;
#361 = CARTESIAN_POINT ( 'NONE',  ( 0.000000000000000000, 0.000000000000000000, 0.000000000000000000 ) ) ;
#362 = LOCAL_TIME ( 18, 49, 59.00000000000000000, #214 ) ;
#363 = DATE_AND_TIME ( #307, #362 ) ;
#364 = PERSON_AND_ORGANIZATION_ROLE ( 'classification_officer' ) ;
#365 = APPROVAL_STATUS ( 'not_yet_approved' ) ;
#366 = AXIS2_PLACEMENT_3D ( 'NONE', #124, #3, #247 ) ;
#367 = SECURITY_CLASSIFICATION ( '', '', #169 ) ;
#368 = PROPERTY_DEFINITION ('document property','', #317 ) ;
#369 = PERSON_AND_ORGANIZATION_ROLE ( 'creator' ) ;
#370 = DOCUMENT_TYPE ( 'geometry' ) ;
#371 = PERSON_AND_ORGANIZATION_ROLE ( 'design_owner' ) ;
#372 = LOCAL_TIME ( 18, 49, 59.00000000000000000, #143 ) ;
#373 = CC_DESIGN_PERSON_AND_ORGANIZATION_ASSIGNMENT ( #60, #173, ( #209 ) ) ;
#374 = COORDINATED_UNIVERSAL_TIME_OFFSET ( 10, 0, .AHEAD. ) ;
#375 = APPROVAL_ROLE ( '' ) ;
#376 = PERSON_AND_ORGANIZATION_ROLE ( 'design_supplier' ) ;
#377 = CC_DESIGN_APPROVAL ( #291, ( #359 ) ) ;
#378 = APPROVAL_ROLE ( '' ) ;
#379 = COORDINATED_UNIVERSAL_TIME_OFFSET ( 10, 0, .AHEAD. ) ;
#380 = PERSON_AND_ORGANIZATION ( #18446744073709551615, #18446744073709551615 ) ;
#381 = APPROVAL_STATUS ( 'not_yet_approved' ) ;
#382 = LOCAL_TIME ( 18, 49, 59.00000000000000000, #55 ) ;
#383 = PERSON ( 'NAUO-PER246', 'UNSPECIFIED', 'UNSPECIFIED', ('UNSPECIFIED'), ('UNSPECIFIED'), ('UNSPECIFIED') ) ;
#384 = APPLIED_DOCUMENT_REFERENCE ( #317,'',( #19) ) ;
#385 = DATE_AND_TIME ( #117, #382 ) ;
#386 = COORDINATED_UNIVERSAL_TIME_OFFSET ( 10, 0, .AHEAD. ) ;
#387 = ORGANIZATION ( 'NAUO-ORG248', 'UNSPECIFIED', 'UNSPECIFIED' ) ;
#388 = NEXT_ASSEMBLY_USAGE_OCCURRENCE ( 'NAUO246', ' ', ' ', #25, #19, $ ) ;
#389 = NEXT_ASSEMBLY_USAGE_OCCURRENCE ( 'NAUO247', ' ', ' ', #25, #359, $ ) ;
#390 = NEXT_ASSEMBLY_USAGE_OCCURRENCE ( 'NAUO248', ' ', ' ', #25, #19, $ ) ;
ENDSEC;
END-ISO-10303-21;
