ISO-10303-21;
HEADER;
FILE_DESCRIPTION (( 'STEP AP203' ),
    '1' );
FILE_NAME ('C18.step.STEP',
    '2026-06-22T08:49:59',
    ( 'localuser' ),
    ( '' ),
    'SwSTEP 2.0',
    'SolidWorks 2025',
    '' );
FILE_SCHEMA (( 'CONFIG_CONTROL_DESIGN' ));
ENDSEC;

DATA;
#1 = PERSON_AND_ORGANIZATION ( #18446744073709551615, #18446744073709551615 ) ;
#2 = UNCERTAINTY_MEASURE_WITH_UNIT (LENGTH_MEASURE( 1.000000000000000082E-05 ), #18, 'distance_accuracy_value', 'NONE');
#3 = PRODUCT_DEFINITION ( 'General', '', #194, #128 ) ;
#4 = CALENDAR_DATE ( 2026, 22, 6 ) ;
#5 = APPROVAL_ROLE ( '' ) ;
#6 = CALENDAR_DATE ( 2026, 22, 6 ) ;
#7 = DIRECTION ( 'NONE',  ( 0.000000000000000000, 0.000000000000000000, 1.000000000000000000 ) ) ;
#8 = APPROVAL_STATUS ( 'not_yet_approved' ) ;
#9 = CALENDAR_DATE ( 2026, 22, 6 ) ;
#10 = CC_DESIGN_SECURITY_CLASSIFICATION ( #101, ( #390 ) ) ;
#11 = PERSON_AND_ORGANIZATION ( #18446744073709551615, #18446744073709551615 ) ;
#12 = APPROVAL ( #33, 'Coincident' ) ;
#13 = DIRECTION ( 'NONE',  ( 1.000000000000000000, 0.000000000000000000, 0.000000000000000000 ) ) ;
#14 = APPROVAL_STATUS ( 'not_yet_approved' ) ;
#15 = APPROVAL_DATE_TIME ( #345, #294 ) ;
#16 = COORDINATED_UNIVERSAL_TIME_OFFSET ( 10, 0, .AHEAD. ) ;
#17 = LOCAL_TIME ( 18, 49, 59.00000000000000000, #207 ) ;
#18 =( LENGTH_UNIT ( ) NAMED_UNIT ( * ) SI_UNIT ( .MILLI., .METRE. ) );
#19 =( REPRESENTATION_RELATIONSHIP ('NONE','NONE', #308, #299 ) REPRESENTATION_RELATIONSHIP_WITH_TRANSFORMATION ( #162 )SHAPE_REPRESENTATION_RELATIONSHIP( ) );
#20 = APPROVAL ( #282, 'UNKNOWN' ) ;
#21 = APPLICATION_PROTOCOL_DEFINITION ( 'international standard', 'config_control_design', 1994, #342 ) ;
#22 = APPROVAL_DATE_TIME ( #246, #20 ) ;
#23 = DOCUMENT_FILE ( '6534431024.step.STEP' , '', '', #304, '' ,$ ) ;
#24 = PRODUCT_DEFINITION_FORMATION_WITH_SPECIFIED_SOURCE ( 'Symmetric', '', #50, .NOT_KNOWN. ) ;
#25 = CALENDAR_DATE ( 2026, 22, 6 ) ;
#26 = APPROVAL ( #270, 'Coincident' ) ;
#27 = CC_DESIGN_PERSON_AND_ORGANIZATION_ASSIGNMENT ( #320, #378, ( #101 ) ) ;
#28 = APPROVAL_DATE_TIME ( #302, #125 ) ;
#29 = APPROVAL_ROLE ( '' ) ;
#30 = SECURITY_CLASSIFICATION ( '', '', #268 ) ;
#31 = APPROVAL_PERSON_ORGANIZATION ( #221, #318, #5 ) ;
#32 = LOCAL_TIME ( 18, 49, 59.00000000000000000, #48 ) ;
#33 = APPROVAL_STATUS ( 'not_yet_approved' ) ;
#34 = CC_DESIGN_PERSON_AND_ORGANIZATION_ASSIGNMENT ( #156, #84, ( #194 ) ) ;
#35 = APPLICATION_PROTOCOL_DEFINITION ( 'international standard', 'config_control_design', 1994, #351 ) ;
#36 = APPROVAL ( #8, 'UNKNOWN' ) ;
#37 = SHAPE_REPRESENTATION ( '6534431024.step', ( #327 ), #178 ) ;
#38 = APPROVAL_ROLE ( '' ) ;
#39 = PRODUCT_DEFINITION ( 'General', '', #114, #336 ) ;
#40 = CC_DESIGN_APPROVAL ( #318, ( #116 ) ) ;
#41 = APPROVAL_DATE_TIME ( #341, #166 ) ;
#42 = EXTERNAL_SOURCE (IDENTIFIER('') ) ;
#43 = CALENDAR_DATE ( 2026, 22, 6 ) ;
#44 = PROPERTY_DEFINITION_REPRESENTATION ( #249, #37 ) ;
#45 = CC_DESIGN_DATE_AND_TIME_ASSIGNMENT ( #103, #74, ( #51 ) ) ;
#46 = MECHANICAL_CONTEXT ( 'NONE', #365, 'mechanical' ) ;
#47 = DIRECTION ( 'NONE',  ( 1.000000000000000222, -1.092455418989176591E-28, 4.890937612370273194E-29 ) ) ;
#48 = COORDINATED_UNIVERSAL_TIME_OFFSET ( 10, 0, .AHEAD. ) ;
#49 =( NAMED_UNIT ( * ) SI_UNIT ( $, .STERADIAN. ) SOLID_ANGLE_UNIT ( ) );
#50 = PRODUCT ( '6534431024.step', '6534431024.step', '', ( #211 ) ) ;
#51 = SECURITY_CLASSIFICATION ( '', '', #135 ) ;
#52 = PERSON_AND_ORGANIZATION_ROLE ( 'creator' ) ;
#53 = APPROVAL_DATE_TIME ( #113, #332 ) ;
#54 = CC_DESIGN_PERSON_AND_ORGANIZATION_ASSIGNMENT ( #237, #187, ( #82 ) ) ;
#55 = CALENDAR_DATE ( 2026, 22, 6 ) ;
#56 = APPLIED_EXTERNAL_IDENTIFICATION_ASSIGNMENT ( '6461079856.step.STEP' , #240, #100,( #231) ) ;
#57 = PERSON_AND_ORGANIZATION_ROLE ( 'creator' ) ;
#58 = IDENTIFICATION_ROLE ( 'external document id and location', $) ;
#59 = MECHANICAL_CONTEXT ( 'NONE', #184, 'mechanical' ) ;
#60 = PERSON_AND_ORGANIZATION ( #18446744073709551615, #18446744073709551615 ) ;
#61 = LOCAL_TIME ( 18, 49, 59.00000000000000000, #335 ) ;
#62 = PERSON_AND_ORGANIZATION_ROLE ( 'classification_officer' ) ;
#63 = PERSON_AND_ORGANIZATION ( #18446744073709551615, #18446744073709551615 ) ;
#64 = CC_DESIGN_DATE_AND_TIME_ASSIGNMENT ( #338, #369, ( #116 ) ) ;
#65 = PERSON_AND_ORGANIZATION_ROLE ( 'classification_officer' ) ;
#66 = CC_DESIGN_PERSON_AND_ORGANIZATION_ASSIGNMENT ( #60, #185, ( #50 ) ) ;
#67 = LOCAL_TIME ( 18, 49, 59.00000000000000000, #354 ) ;
#68 = SHAPE_DEFINITION_REPRESENTATION ( #171, #37 ) ;
#69 = APPROVAL_DATE_TIME ( #315, #318 ) ;
#70 = CC_DESIGN_DATE_AND_TIME_ASSIGNMENT ( #296, #149, ( #30 ) ) ;
#71 = COORDINATED_UNIVERSAL_TIME_OFFSET ( 10, 0, .AHEAD. ) ;
#72 = CC_DESIGN_SECURITY_CLASSIFICATION ( #51, ( #389 ) ) ;
#73 = CALENDAR_DATE ( 2026, 22, 6 ) ;
#74 = DATE_TIME_ROLE ( 'classification_date' ) ;
#75 = APPROVAL ( #14, 'UNKNOWN' ) ;
#76 = DIRECTION ( 'NONE',  ( 4.890937612370273194E-29, -3.155443620884047222E-30, 0.9999999999999997780 ) ) ;
#77 = DOCUMENT_TYPE ( 'geometry' ) ;
#78 = APPROVAL_PERSON_ORGANIZATION ( #272, #26, #153 ) ;
#79 = APPROVAL_PERSON_ORGANIZATION ( #319, #332, #295 ) ;
#80 = DIRECTION ( 'NONE',  ( 1.000000000000000222, -1.092455418989176591E-28, 4.890937612370273194E-29 ) ) ;
#81 = CC_DESIGN_DATE_AND_TIME_ASSIGNMENT ( #324, #205, ( #39 ) ) ;
#82 = PRODUCT_DEFINITION ( 'General', '', #24, #301 ) ;
#83 = COORDINATED_UNIVERSAL_TIME_OFFSET ( 10, 0, .AHEAD. ) ;
#84 = PERSON_AND_ORGANIZATION_ROLE ( 'design_supplier' ) ;
#85 = LOCAL_TIME ( 18, 49, 59.00000000000000000, #83 ) ;
#86 = DATE_TIME_ROLE ( 'classification_date' ) ;
#87 = SECURITY_CLASSIFICATION ( '', '', #157 ) ;
#88 = SHAPE_DEFINITION_REPRESENTATION ( #197, #299 ) ;
#89 = SECURITY_CLASSIFICATION_LEVEL ( 'unclassified' ) ;
#90 = CALENDAR_DATE ( 2026, 22, 6 ) ;
#91 = APPROVAL_PERSON_ORGANIZATION ( #306, #12, #300 ) ;
#92 = CC_DESIGN_PERSON_AND_ORGANIZATION_ASSIGNMENT ( #161, #190, ( #24 ) ) ;
#93 = APPROVAL_STATUS ( 'not_yet_approved' ) ;
#94 =( LENGTH_UNIT ( ) NAMED_UNIT ( * ) SI_UNIT ( .MILLI., .METRE. ) );
#95 = CC_DESIGN_PERSON_AND_ORGANIZATION_ASSIGNMENT ( #330, #360, ( #259 ) ) ;
#96 = COORDINATED_UNIVERSAL_TIME_OFFSET ( 10, 0, .AHEAD. ) ;
#97 =( NAMED_UNIT ( * ) PLANE_ANGLE_UNIT ( ) SI_UNIT ( $, .RADIAN. ) );
#98 = CALENDAR_DATE ( 2026, 22, 6 ) ;
#99 = CARTESIAN_POINT ( 'NONE',  ( 0.000000000000000000, 0.000000000000000000, 0.000000000000000000 ) ) ;
#100 = EXTERNAL_SOURCE (IDENTIFIER('') ) ;
#101 = SECURITY_CLASSIFICATION ( '', '', #229 ) ;
#102 = PERSON_AND_ORGANIZATION ( #18446744073709551615, #18446744073709551615 ) ;
#103 = DATE_AND_TIME ( #9, #317 ) ;
#104 = CC_DESIGN_PERSON_AND_ORGANIZATION_ASSIGNMENT ( #334, #62, ( #312 ) ) ;
#105 = APPROVAL_PERSON_ORGANIZATION ( #63, #166, #38 ) ;
#106 = PROPERTY_DEFINITION_REPRESENTATION ( #107, #299 ) ;
#107 = PROPERTY_DEFINITION ('document property','', #231 ) ;
#108 = PERSON_AND_ORGANIZATION_ROLE ( 'design_supplier' ) ;
#109 = APPROVAL ( #150, 'Coincident' ) ;
#110 = APPLIED_DOCUMENT_REFERENCE ( #340,'',( #3) ) ;
#111 = PRODUCT_DEFINITION_SHAPE ( 'NONE', 'NONE',  #39 ) ;
#112 = DIRECTION ( 'NONE',  ( 4.890937612370273194E-29, -3.155443620884047222E-30, 0.9999999999999997780 ) ) ;
#113 = DATE_AND_TIME ( #291, #217 ) ;
#114 = PRODUCT_DEFINITION_FORMATION_WITH_SPECIFIED_SOURCE ( 'Symmetric', '', #350, .NOT_KNOWN. ) ;
#115 = PERSON_AND_ORGANIZATION_ROLE ( 'classification_officer' ) ;
#116 = SECURITY_CLASSIFICATION ( '', '', #281 ) ;
#117 = CARTESIAN_POINT ( 'NONE',  ( 15.25000100705100436, 12.64999035644500580, -2.058321952820000078 ) ) ;
#118 = APPLICATION_PROTOCOL_DEFINITION ( 'international standard', 'config_control_design', 1994, #124 ) ;
#119 = PERSON ( 'NAUO-PER271', 'UNSPECIFIED', 'UNSPECIFIED', ('UNSPECIFIED'), ('UNSPECIFIED'), ('UNSPECIFIED') ) ;
#120 = APPROVAL_DATE_TIME ( #273, #26 ) ;
#121 =( GEOMETRIC_REPRESENTATION_CONTEXT ( 3 ) GLOBAL_UNCERTAINTY_ASSIGNED_CONTEXT ( ( #132 ) ) GLOBAL_UNIT_ASSIGNED_CONTEXT ( ( #248, #97, #265 ) ) REPRESENTATION_CONTEXT ( 'NONE', 'WORKASPACE' ) );
#122 = COORDINATED_UNIVERSAL_TIME_OFFSET ( 10, 0, .AHEAD. ) ;
#123 = CC_DESIGN_SECURITY_CLASSIFICATION ( #87, ( #388 ) ) ;
#124 = APPLICATION_CONTEXT ( 'configuration controlled 3d designs of mechanical parts and assemblies' ) ;
#125 = APPROVAL ( #274, 'Coincident' ) ;
#126 = PERSON_AND_ORGANIZATION_ROLE ( 'creator' ) ;
#127 = DATE_AND_TIME ( #90, #361 ) ;
#128 = DESIGN_CONTEXT ( 'detailed design', #145, 'design' ) ;
#129 = COORDINATED_UNIVERSAL_TIME_OFFSET ( 10, 0, .AHEAD. ) ;
#130 = APPROVAL_PERSON_ORGANIZATION ( #257, #20, #226 ) ;
#131 = APPROVAL_ROLE ( '' ) ;
#132 = UNCERTAINTY_MEASURE_WITH_UNIT (LENGTH_MEASURE( 1.000000000000000082E-05 ), #248, 'distance_accuracy_value', 'NONE');
#133 = DIRECTION ( 'NONE',  ( 1.000000000000000000, 0.000000000000000000, 0.000000000000000000 ) ) ;
#134 = PERSON_AND_ORGANIZATION_ROLE ( 'classification_officer' ) ;
#135 = SECURITY_CLASSIFICATION_LEVEL ( 'unclassified' ) ;
#136 = AXIS2_PLACEMENT_3D ( 'NONE', #196, #112, #288 ) ;
#137 = CC_DESIGN_APPROVAL ( #75, ( #101 ) ) ;
#138 = APPLIED_DOCUMENT_REFERENCE ( #23,'',( #82) ) ;
#139 = APPLICATION_PROTOCOL_DEFINITION ( 'international standard', 'config_control_design', 1994, #365 ) ;
#140 = CALENDAR_DATE ( 2026, 22, 6 ) ;
#141 = CALENDAR_DATE ( 2026, 22, 6 ) ;
#142 = LOCAL_TIME ( 18, 49, 59.00000000000000000, #303 ) ;
#143 = PRODUCT_RELATED_PRODUCT_CATEGORY ( 'detail', '', ( #259 ) ) ;
#144 = CONTEXT_DEPENDENT_SHAPE_REPRESENTATION ( #266, #261 ) ;
#145 = APPLICATION_CONTEXT ( 'configuration controlled 3d designs of mechanical parts and assemblies' ) ;
#146 = PROPERTY_DEFINITION_REPRESENTATION ( #346, #299 ) ;
#147 = PERSON_AND_ORGANIZATION_ROLE ( 'classification_officer' ) ;
#148 = PERSON_AND_ORGANIZATION ( #18446744073709551615, #18446744073709551615 ) ;
#149 = DATE_TIME_ROLE ( 'classification_date' ) ;
#150 = APPROVAL_STATUS ( 'not_yet_approved' ) ;
#151 = CALENDAR_DATE ( 2026, 22, 6 ) ;
#152 = CC_DESIGN_APPROVAL ( #332, ( #114 ) ) ;
#153 = APPROVAL_ROLE ( '' ) ;
#154 = APPROVAL_PERSON_ORGANIZATION ( #358, #316, #366 ) ;
#155 = CC_DESIGN_PERSON_AND_ORGANIZATION_ASSIGNMENT ( #199, #382, ( #39 ) ) ;
#156 = PERSON_AND_ORGANIZATION ( #18446744073709551615, #18446744073709551615 ) ;
#157 = SECURITY_CLASSIFICATION_LEVEL ( 'unclassified' ) ;
#158 = APPROVAL_STATUS ( 'not_yet_approved' ) ;
#159 = AXIS2_PLACEMENT_3D ( 'NONE', #280, #7, #133 ) ;
#160 = LOCAL_TIME ( 18, 49, 59.00000000000000000, #71 ) ;
#161 = PERSON_AND_ORGANIZATION ( #18446744073709551615, #18446744073709551615 ) ;
#162 = ITEM_DEFINED_TRANSFORMATION ( 'NONE', 'NONE', #379,  #159 ) ;
#163 =( REPRESENTATION_RELATIONSHIP ('NONE','NONE', #308, #37 ) REPRESENTATION_RELATIONSHIP_WITH_TRANSFORMATION ( #373 )SHAPE_REPRESENTATION_RELATIONSHIP( ) );
#164 = CALENDAR_DATE ( 2026, 22, 6 ) ;
#165 = LOCAL_TIME ( 18, 49, 59.00000000000000000, #214 ) ;
#166 = APPROVAL ( #93, 'Coincident' ) ;
#167 = PERSON_AND_ORGANIZATION ( #18446744073709551615, #18446744073709551615 ) ;
#168 = CARTESIAN_POINT ( 'NONE',  ( 15.25000100705100436, 11.65000561523400435, -2.058321952819998302 ) ) ;
#169 = PRODUCT_DEFINITION_SHAPE ( 'NONE', 'NONE',  #389 ) ;
#170 = DATE_AND_TIME ( #140, #384 ) ;
#171 = PRODUCT_DEFINITION_SHAPE ( 'NONE', 'NONE',  #82 ) ;
#172 =( GEOMETRIC_REPRESENTATION_CONTEXT ( 3 ) GLOBAL_UNCERTAINTY_ASSIGNED_CONTEXT ( ( #2 ) ) GLOBAL_UNIT_ASSIGNED_CONTEXT ( ( #18, #293, #49 ) ) REPRESENTATION_CONTEXT ( 'NONE', 'WORKASPACE' ) );
#173 = LOCAL_TIME ( 18, 49, 59.00000000000000000, #250 ) ;
#174 = DATE_AND_TIME ( #267, #32 ) ;
#175 = CALENDAR_DATE ( 2026, 22, 6 ) ;
#176 = CC_DESIGN_DATE_AND_TIME_ASSIGNMENT ( #362, #86, ( #312 ) ) ;
#177 = PERSON_AND_ORGANIZATION ( #18446744073709551615, #18446744073709551615 ) ;
#178 =( GEOMETRIC_REPRESENTATION_CONTEXT ( 3 ) GLOBAL_UNCERTAINTY_ASSIGNED_CONTEXT ( ( #242 ) ) GLOBAL_UNIT_ASSIGNED_CONTEXT ( ( #94, #337, #311 ) ) REPRESENTATION_CONTEXT ( 'NONE', 'WORKASPACE' ) );
#179 = ORGANIZATION ( 'NAUO-ORG272', 'UNSPECIFIED', 'UNSPECIFIED' ) ;
#180 = PERSON_AND_ORGANIZATION ( #18446744073709551615, #18446744073709551615 ) ;
#181 = PERSON_AND_ORGANIZATION ( #18446744073709551615, #18446744073709551615 ) ;
#182 = CC_DESIGN_PERSON_AND_ORGANIZATION_ASSIGNMENT ( #177, #108, ( #114 ) ) ;
#183 = SHAPE_DEFINITION_REPRESENTATION ( #111, #308 ) ;
#184 = APPLICATION_CONTEXT ( 'configuration controlled 3d designs of mechanical parts and assemblies' ) ;
#185 = PERSON_AND_ORGANIZATION_ROLE ( 'design_owner' ) ;
#186 = CALENDAR_DATE ( 2026, 22, 6 ) ;
#187 = PERSON_AND_ORGANIZATION_ROLE ( 'creator' ) ;
#188 = DATE_TIME_ROLE ( 'classification_date' ) ;
#189 = LOCAL_TIME ( 18, 49, 59.00000000000000000, #129 ) ;
#190 = PERSON_AND_ORGANIZATION_ROLE ( 'creator' ) ;
#191 = CC_DESIGN_DATE_AND_TIME_ASSIGNMENT ( #127, #239, ( #3 ) ) ;
#192 = DATE_AND_TIME ( #98, #189 ) ;
#193 = CALENDAR_DATE ( 2026, 22, 6 ) ;
#194 = PRODUCT_DEFINITION_FORMATION_WITH_SPECIFIED_SOURCE ( 'Symmetric', '', #259, .NOT_KNOWN. ) ;
#195 = CC_DESIGN_DATE_AND_TIME_ASSIGNMENT ( #174, #376, ( #101 ) ) ;
#196 = CARTESIAN_POINT ( 'NONE',  ( 15.25000100705100081, 12.15000561523400258, -2.058321952820000078 ) ) ;
#197 = PRODUCT_DEFINITION_SHAPE ( 'NONE', 'NONE',  #3 ) ;
#198 = APPROVAL_ROLE ( '' ) ;
#199 = PERSON_AND_ORGANIZATION ( #18446744073709551615, #18446744073709551615 ) ;
#200 = EXTERNAL_SOURCE (IDENTIFIER('') ) ;
#201 = OBJECT_ROLE ('mandatory',$ ) ;
#202 = APPROVAL_PERSON_ORGANIZATION ( #181, #125, #29 ) ;
#203 = ORGANIZATION ( 'NAUO-ORG271', 'UNSPECIFIED', 'UNSPECIFIED' ) ;
#204 = APPROVAL_ROLE ( '' ) ;
#205 = DATE_TIME_ROLE ( 'creation_date' ) ;
#206 = CC_DESIGN_PERSON_AND_ORGANIZATION_ASSIGNMENT ( #102, #134, ( #116 ) ) ;
#207 = COORDINATED_UNIVERSAL_TIME_OFFSET ( 10, 0, .AHEAD. ) ;
#208 = CC_DESIGN_APPROVAL ( #294, ( #39 ) ) ;
#209 = LOCAL_TIME ( 18, 49, 59.00000000000000000, #241 ) ;
#210 = APPROVAL_ROLE ( '' ) ;
#211 = MECHANICAL_CONTEXT ( 'NONE', #351, 'mechanical' ) ;
#212 = COORDINATED_UNIVERSAL_TIME_OFFSET ( 10, 0, .AHEAD. ) ;
#213 = CC_DESIGN_APPROVAL ( #316, ( #312 ) ) ;
#214 = COORDINATED_UNIVERSAL_TIME_OFFSET ( 10, 0, .AHEAD. ) ;
#215 = CALENDAR_DATE ( 2026, 22, 6 ) ;
#216 = APPROVAL_DATE_TIME ( #284, #36 ) ;
#217 = LOCAL_TIME ( 18, 49, 59.00000000000000000, #325 ) ;
#218 = DIRECTION ( 'NONE',  ( 0.000000000000000000, 0.000000000000000000, 1.000000000000000000 ) ) ;
#219 = APPLIED_EXTERNAL_IDENTIFICATION_ASSIGNMENT ( '6534431024.step.STEP' , #370, #200,( #23) ) ;
#220 = OBJECT_ROLE ('mandatory',$ ) ;
#221 = PERSON_AND_ORGANIZATION ( #18446744073709551615, #18446744073709551615 ) ;
#222 = DIRECTION ( 'NONE',  ( 0.000000000000000000, 0.000000000000000000, 1.000000000000000000 ) ) ;
#223 = CONTEXT_DEPENDENT_SHAPE_REPRESENTATION ( #163, #228 ) ;
#224 = LOCAL_TIME ( 18, 49, 59.00000000000000000, #356 ) ;
#225 = PROPERTY_DEFINITION ('external definition','', #231 ) ;
#226 = APPROVAL_ROLE ( '' ) ;
#227 = DIRECTION ( 'NONE',  ( 4.890937612370273194E-29, -3.155443620884047222E-30, 0.9999999999999997780 ) ) ;
#228 = PRODUCT_DEFINITION_SHAPE ( 'NONE', 'NONE',  #388 ) ;
#229 = SECURITY_CLASSIFICATION_LEVEL ( 'unclassified' ) ;
#230 = PERSON_AND_ORGANIZATION ( #18446744073709551615, #18446744073709551615 ) ;
#231 = DOCUMENT_FILE ( '6461079856.step.STEP' , '', '', #283, '' ,$ ) ;
#232 = PERSON_AND_ORGANIZATION_ROLE ( 'design_owner' ) ;
#233 = CC_DESIGN_APPROVAL ( #12, ( #82 ) ) ;
#234 = CC_DESIGN_DATE_AND_TIME_ASSIGNMENT ( #279, #251, ( #82 ) ) ;
#235 = COORDINATED_UNIVERSAL_TIME_OFFSET ( 10, 0, .AHEAD. ) ;
#236 = PRODUCT_RELATED_PRODUCT_CATEGORY ( 'detail', '', ( #350 ) ) ;
#237 = PERSON_AND_ORGANIZATION ( #18446744073709551615, #18446744073709551615 ) ;
#238 = APPROVAL_PERSON_ORGANIZATION ( #377, #109, #210 ) ;
#239 = DATE_TIME_ROLE ( 'creation_date' ) ;
#240 = IDENTIFICATION_ROLE ( 'external document id and location', $) ;
#241 = COORDINATED_UNIVERSAL_TIME_OFFSET ( 10, 0, .AHEAD. ) ;
#242 = UNCERTAINTY_MEASURE_WITH_UNIT (LENGTH_MEASURE( 1.000000000000000082E-05 ), #94, 'distance_accuracy_value', 'NONE');
#243 = CALENDAR_DATE ( 2026, 22, 6 ) ;
#244 = CC_DESIGN_PERSON_AND_ORGANIZATION_ASSIGNMENT ( #1, #126, ( #194 ) ) ;
#245 = APPROVAL_PERSON_ORGANIZATION ( #314, #36, #131 ) ;
#246 = DATE_AND_TIME ( #193, #253 ) ;
#247 = PERSON_AND_ORGANIZATION_ROLE ( 'design_supplier' ) ;
#248 =( LENGTH_UNIT ( ) NAMED_UNIT ( * ) SI_UNIT ( .MILLI., .METRE. ) );
#249 = PROPERTY_DEFINITION ('external definition','', #23 ) ;
#250 = COORDINATED_UNIVERSAL_TIME_OFFSET ( 10, 0, .AHEAD. ) ;
#251 = DATE_TIME_ROLE ( 'creation_date' ) ;
#252 = AXIS2_PLACEMENT_3D ( 'NONE', #99, #218, #353 ) ;
#253 = LOCAL_TIME ( 18, 49, 59.00000000000000000, #343 ) ;
#254 = PROPERTY_DEFINITION_REPRESENTATION ( #368, #37 ) ;
#255 = CC_DESIGN_PERSON_AND_ORGANIZATION_ASSIGNMENT ( #230, #52, ( #114 ) ) ;
#256 = CC_DESIGN_PERSON_AND_ORGANIZATION_ASSIGNMENT ( #314, #65, ( #87 ) ) ;
#257 = PERSON_AND_ORGANIZATION ( #119, #203 ) ;
#258 = ROLE_ASSOCIATION ( #220, #110 ) ;
#259 = PRODUCT ( '6461079856.step', '6461079856.step', '', ( #59 ) ) ;
#260 = CC_DESIGN_APPROVAL ( #125, ( #194 ) ) ;
#261 = PRODUCT_DEFINITION_SHAPE ( 'NONE', 'NONE',  #390 ) ;
#262 = ROLE_ASSOCIATION ( #297, #352 ) ;
#263 = CC_DESIGN_PERSON_AND_ORGANIZATION_ASSIGNMENT ( #180, #57, ( #3 ) ) ;
#264 = CONTEXT_DEPENDENT_SHAPE_REPRESENTATION ( #19, #169 ) ;
#265 =( NAMED_UNIT ( * ) SI_UNIT ( $, .STERADIAN. ) SOLID_ANGLE_UNIT ( ) );
#266 =( REPRESENTATION_RELATIONSHIP ('NONE','NONE', #308, #299 ) REPRESENTATION_RELATIONSHIP_WITH_TRANSFORMATION ( #383 )SHAPE_REPRESENTATION_RELATIONSHIP( ) );
#267 = CALENDAR_DATE ( 2026, 22, 6 ) ;
#268 = SECURITY_CLASSIFICATION_LEVEL ( 'unclassified' ) ;
#269 = CC_DESIGN_SECURITY_CLASSIFICATION ( #312, ( #194 ) ) ;
#270 = APPROVAL_STATUS ( 'not_yet_approved' ) ;
#271 = DATE_AND_TIME ( #25, #298 ) ;
#272 = PERSON_AND_ORGANIZATION ( #18446744073709551615, #18446744073709551615 ) ;
#273 = DATE_AND_TIME ( #4, #142 ) ;
#274 = APPROVAL_STATUS ( 'not_yet_approved' ) ;
#275 = DATE_AND_TIME ( #151, #17 ) ;
#276 = ROLE_ASSOCIATION ( #201, #138 ) ;
#277 = CC_DESIGN_PERSON_AND_ORGANIZATION_ASSIGNMENT ( #11, #247, ( #24 ) ) ;
#278 = PERSON ( 'NAUO-PER270', 'UNSPECIFIED', 'UNSPECIFIED', ('UNSPECIFIED'), ('UNSPECIFIED'), ('UNSPECIFIED') ) ;
#279 = DATE_AND_TIME ( #6, #61 ) ;
#280 = CARTESIAN_POINT ( 'NONE',  ( 0.000000000000000000, 0.000000000000000000, 0.000000000000000000 ) ) ;
#281 = SECURITY_CLASSIFICATION_LEVEL ( 'unclassified' ) ;
#282 = APPROVAL_STATUS ( 'not_yet_approved' ) ;
#283 = DOCUMENT_TYPE ( 'geometry' ) ;
#284 = DATE_AND_TIME ( #374, #173 ) ;
#285 = APPROVAL_PERSON_ORGANIZATION ( #148, #294, #204 ) ;
#286 = CC_DESIGN_APPROVAL ( #26, ( #3 ) ) ;
#287 = PROPERTY_DEFINITION ('document property','', #340 ) ;
#288 = DIRECTION ( 'NONE',  ( 1.000000000000000222, -1.092455418989176591E-28, 4.890937612370273194E-29 ) ) ;
#289 = CC_DESIGN_DATE_AND_TIME_ASSIGNMENT ( #192, #188, ( #87 ) ) ;
#290 = PROPERTY_DEFINITION_REPRESENTATION ( #287, #299 ) ;
#291 = CALENDAR_DATE ( 2026, 22, 6 ) ;
#292 = LOCAL_TIME ( 18, 49, 59.00000000000000000, #96 ) ;
#293 =( NAMED_UNIT ( * ) PLANE_ANGLE_UNIT ( ) SI_UNIT ( $, .RADIAN. ) );
#294 = APPROVAL ( #321, 'Coincident' ) ;
#295 = APPROVAL_ROLE ( '' ) ;
#296 = DATE_AND_TIME ( #175, #67 ) ;
#297 = OBJECT_ROLE ('mandatory',$ ) ;
#298 = LOCAL_TIME ( 18, 49, 59.00000000000000000, #235 ) ;
#299 = SHAPE_REPRESENTATION ( '6461079856.step', ( #159 ), #121 ) ;
#300 = APPROVAL_ROLE ( '' ) ;
#301 = DESIGN_CONTEXT ( 'detailed design', #124, 'design' ) ;
#302 = DATE_AND_TIME ( #243, #209 ) ;
#303 = COORDINATED_UNIVERSAL_TIME_OFFSET ( 10, 0, .AHEAD. ) ;
#304 = DOCUMENT_TYPE ( 'geometry' ) ;
#305 = APPLIED_EXTERNAL_IDENTIFICATION_ASSIGNMENT ( '6461079856.step.STEP' , #58, #42,( #340) ) ;
#306 = PERSON_AND_ORGANIZATION ( #18446744073709551615, #18446744073709551615 ) ;
#307 = APPROVAL_DATE_TIME ( #331, #316 ) ;
#308 = SHAPE_REPRESENTATION ( 'C18.step', ( #252, #136, #379, #371 ), #172 ) ;
#309 = CC_DESIGN_PERSON_AND_ORGANIZATION_ASSIGNMENT ( #349, #147, ( #30 ) ) ;
#310 = COORDINATED_UNIVERSAL_TIME_OFFSET ( 10, 0, .AHEAD. ) ;
#311 =( NAMED_UNIT ( * ) SI_UNIT ( $, .STERADIAN. ) SOLID_ANGLE_UNIT ( ) );
#312 = SECURITY_CLASSIFICATION ( '', '', #89 ) ;
#313 = COORDINATED_UNIVERSAL_TIME_OFFSET ( 10, 0, .AHEAD. ) ;
#314 = PERSON_AND_ORGANIZATION ( #278, #387 ) ;
#315 = DATE_AND_TIME ( #43, #160 ) ;
#316 = APPROVAL ( #385, 'Coincident' ) ;
#317 = LOCAL_TIME ( 18, 49, 59.00000000000000000, #313 ) ;
#318 = APPROVAL ( #158, 'Coincident' ) ;
#319 = PERSON_AND_ORGANIZATION ( #18446744073709551615, #18446744073709551615 ) ;
#320 = PERSON_AND_ORGANIZATION ( #347, #179 ) ;
#321 = APPROVAL_STATUS ( 'not_yet_approved' ) ;
#322 = LOCAL_TIME ( 18, 49, 59.00000000000000000, #212 ) ;
#323 = PROPERTY_DEFINITION_REPRESENTATION ( #225, #299 ) ;
#324 = DATE_AND_TIME ( #141, #85 ) ;
#325 = COORDINATED_UNIVERSAL_TIME_OFFSET ( 10, 0, .AHEAD. ) ;
#326 = APPLICATION_PROTOCOL_DEFINITION ( 'international standard', 'config_control_design', 1994, #184 ) ;
#327 = AXIS2_PLACEMENT_3D ( 'NONE', #375, #222, #13 ) ;
#328 = CC_DESIGN_SECURITY_CLASSIFICATION ( #30, ( #114 ) ) ;
#329 = APPROVAL_DATE_TIME ( #275, #109 ) ;
#330 = PERSON_AND_ORGANIZATION ( #18446744073709551615, #18446744073709551615 ) ;
#331 = DATE_AND_TIME ( #186, #165 ) ;
#332 = APPROVAL ( #381, 'Coincident' ) ;
#333 = CC_DESIGN_APPROVAL ( #36, ( #87 ) ) ;
#334 = PERSON_AND_ORGANIZATION ( #18446744073709551615, #18446744073709551615 ) ;
#335 = COORDINATED_UNIVERSAL_TIME_OFFSET ( 10, 0, .AHEAD. ) ;
#336 = DESIGN_CONTEXT ( 'detailed design', #342, 'design' ) ;
#337 =( NAMED_UNIT ( * ) PLANE_ANGLE_UNIT ( ) SI_UNIT ( $, .RADIAN. ) );
#338 = DATE_AND_TIME ( #164, #372 ) ;
#339 = CC_DESIGN_APPROVAL ( #166, ( #24 ) ) ;
#340 = DOCUMENT_FILE ( '6461079856.step.STEP' , '', '', #77, '' ,$ ) ;
#341 = DATE_AND_TIME ( #215, #292 ) ;
#342 = APPLICATION_CONTEXT ( 'configuration controlled 3d designs of mechanical parts and assemblies' ) ;
#343 = COORDINATED_UNIVERSAL_TIME_OFFSET ( 10, 0, .AHEAD. ) ;
#344 = CC_DESIGN_SECURITY_CLASSIFICATION ( #116, ( #24 ) ) ;
#345 = DATE_AND_TIME ( #73, #224 ) ;
#346 = PROPERTY_DEFINITION ('external definition','', #340 ) ;
#347 = PERSON ( 'NAUO-PER272', 'UNSPECIFIED', 'UNSPECIFIED', ('UNSPECIFIED'), ('UNSPECIFIED'), ('UNSPECIFIED') ) ;
#348 = APPROVAL_DATE_TIME ( #170, #75 ) ;
#349 = PERSON_AND_ORGANIZATION ( #18446744073709551615, #18446744073709551615 ) ;
#350 = PRODUCT ( 'C18.step', 'C18.step', '', ( #46 ) ) ;
#351 = APPLICATION_CONTEXT ( 'configuration controlled 3d designs of mechanical parts and assemblies' ) ;
#352 = APPLIED_DOCUMENT_REFERENCE ( #231,'',( #3) ) ;
#353 = DIRECTION ( 'NONE',  ( 1.000000000000000000, 0.000000000000000000, 0.000000000000000000 ) ) ;
#354 = COORDINATED_UNIVERSAL_TIME_OFFSET ( 10, 0, .AHEAD. ) ;
#355 = APPROVAL_PERSON_ORGANIZATION ( #320, #75, #198 ) ;
#356 = COORDINATED_UNIVERSAL_TIME_OFFSET ( 10, 0, .AHEAD. ) ;
#357 = PRODUCT_RELATED_PRODUCT_CATEGORY ( 'detail', '', ( #50 ) ) ;
#358 = PERSON_AND_ORGANIZATION ( #18446744073709551615, #18446744073709551615 ) ;
#359 = CC_DESIGN_PERSON_AND_ORGANIZATION_ASSIGNMENT ( #257, #115, ( #51 ) ) ;
#360 = PERSON_AND_ORGANIZATION_ROLE ( 'design_owner' ) ;
#361 = LOCAL_TIME ( 18, 49, 59.00000000000000000, #122 ) ;
#362 = DATE_AND_TIME ( #55, #322 ) ;
#363 = APPLICATION_PROTOCOL_DEFINITION ( 'international standard', 'config_control_design', 1994, #145 ) ;
#364 = CC_DESIGN_PERSON_AND_ORGANIZATION_ASSIGNMENT ( #167, #232, ( #350 ) ) ;
#365 = APPLICATION_CONTEXT ( 'configuration controlled 3d designs of mechanical parts and assemblies' ) ;
#366 = APPROVAL_ROLE ( '' ) ;
#367 = CC_DESIGN_APPROVAL ( #20, ( #51 ) ) ;
#368 = PROPERTY_DEFINITION ('document property','', #23 ) ;
#369 = DATE_TIME_ROLE ( 'classification_date' ) ;
#370 = IDENTIFICATION_ROLE ( 'external document id and location', $) ;
#371 = AXIS2_PLACEMENT_3D ( 'NONE', #168, #227, #80 ) ;
#372 = LOCAL_TIME ( 18, 49, 59.00000000000000000, #310 ) ;
#373 = ITEM_DEFINED_TRANSFORMATION ( 'NONE', 'NONE', #136,  #327 ) ;
#374 = CALENDAR_DATE ( 2026, 22, 6 ) ;
#375 = CARTESIAN_POINT ( 'NONE',  ( 0.000000000000000000, 0.000000000000000000, 0.000000000000000000 ) ) ;
#376 = DATE_TIME_ROLE ( 'classification_date' ) ;
#377 = PERSON_AND_ORGANIZATION ( #18446744073709551615, #18446744073709551615 ) ;
#378 = PERSON_AND_ORGANIZATION_ROLE ( 'classification_officer' ) ;
#379 = AXIS2_PLACEMENT_3D ( 'NONE', #117, #76, #47 ) ;
#380 = CC_DESIGN_APPROVAL ( #109, ( #30 ) ) ;
#381 = APPROVAL_STATUS ( 'not_yet_approved' ) ;
#382 = PERSON_AND_ORGANIZATION_ROLE ( 'creator' ) ;
#383 = ITEM_DEFINED_TRANSFORMATION ( 'NONE', 'NONE', #371,  #159 ) ;
#384 = LOCAL_TIME ( 18, 49, 59.00000000000000000, #16 ) ;
#385 = APPROVAL_STATUS ( 'not_yet_approved' ) ;
#386 = APPROVAL_DATE_TIME ( #271, #12 ) ;
#387 = ORGANIZATION ( 'NAUO-ORG270', 'UNSPECIFIED', 'UNSPECIFIED' ) ;
#388 = NEXT_ASSEMBLY_USAGE_OCCURRENCE ( 'NAUO270', ' ', ' ', #39, #82, $ ) ;
#389 = NEXT_ASSEMBLY_USAGE_OCCURRENCE ( 'NAUO271', ' ', ' ', #39, #3, $ ) ;
#390 = NEXT_ASSEMBLY_USAGE_OCCURRENCE ( 'NAUO272', ' ', ' ', #39, #3, $ ) ;
ENDSEC;
END-ISO-10303-21;
