ISO-10303-21;
HEADER;
FILE_DESCRIPTION (( 'STEP AP203' ),
    '1' );
FILE_NAME ('C19.step.STEP',
    '2026-06-22T08:49:59',
    ( 'localuser' ),
    ( '' ),
    'SwSTEP 2.0',
    'SolidWorks 2025',
    '' );
FILE_SCHEMA (( 'CONFIG_CONTROL_DESIGN' ));
ENDSEC;

DATA;
#1 = DATE_AND_TIME ( #181, #344 ) ;
#2 = UNCERTAINTY_MEASURE_WITH_UNIT (LENGTH_MEASURE( 1.000000000000000082E-05 ), #273, 'distance_accuracy_value', 'NONE');
#3 = DOCUMENT_FILE ( '6461079856.step.STEP' , '', '', #55, '' ,$ ) ;
#4 =( NAMED_UNIT ( * ) SI_UNIT ( $, .STERADIAN. ) SOLID_ANGLE_UNIT ( ) );
#5 = LOCAL_TIME ( 18, 49, 59.00000000000000000, #118 ) ;
#6 = DATE_AND_TIME ( #249, #77 ) ;
#7 = PRODUCT_RELATED_PRODUCT_CATEGORY ( 'detail', '', ( #349 ) ) ;
#8 = PERSON_AND_ORGANIZATION_ROLE ( 'design_supplier' ) ;
#9 = CC_DESIGN_DATE_AND_TIME_ASSIGNMENT ( #1, #150, ( #312 ) ) ;
#10 = COORDINATED_UNIVERSAL_TIME_OFFSET ( 10, 0, .AHEAD. ) ;
#11 = LOCAL_TIME ( 18, 49, 59.00000000000000000, #361 ) ;
#12 = APPROVAL_ROLE ( '' ) ;
#13 = DATE_TIME_ROLE ( 'classification_date' ) ;
#14 = PERSON_AND_ORGANIZATION ( #18446744073709551615, #18446744073709551615 ) ;
#15 = LOCAL_TIME ( 18, 49, 59.00000000000000000, #136 ) ;
#16 = CALENDAR_DATE ( 2026, 22, 6 ) ;
#17 = OBJECT_ROLE ('mandatory',$ ) ;
#18 = CC_DESIGN_PERSON_AND_ORGANIZATION_ASSIGNMENT ( #310, #276, ( #264 ) ) ;
#19 = PERSON_AND_ORGANIZATION ( #18446744073709551615, #18446744073709551615 ) ;
#20 = PRODUCT_RELATED_PRODUCT_CATEGORY ( 'detail', '', ( #166 ) ) ;
#21 = COORDINATED_UNIVERSAL_TIME_OFFSET ( 10, 0, .AHEAD. ) ;
#22 = APPROVAL_STATUS ( 'not_yet_approved' ) ;
#23 = CC_DESIGN_APPROVAL ( #113, ( #187 ) ) ;
#24 = CC_DESIGN_PERSON_AND_ORGANIZATION_ASSIGNMENT ( #189, #161, ( #349 ) ) ;
#25 = PERSON_AND_ORGANIZATION ( #289, #275 ) ;
#26 = APPROVAL ( #229, 'Coincident' ) ;
#27 = LOCAL_TIME ( 18, 49, 59.00000000000000000, #126 ) ;
#28 = DIRECTION ( 'NONE',  ( 0.000000000000000000, 0.000000000000000000, 1.000000000000000000 ) ) ;
#29 = CC_DESIGN_SECURITY_CLASSIFICATION ( #115, ( #389 ) ) ;
#30 = PROPERTY_DEFINITION_REPRESENTATION ( #164, #59 ) ;
#31 = CALENDAR_DATE ( 2026, 22, 6 ) ;
#32 = DOCUMENT_FILE ( '6534431024.step.STEP' , '', '', #135, '' ,$ ) ;
#33 = DATE_TIME_ROLE ( 'creation_date' ) ;
#34 = CC_DESIGN_DATE_AND_TIME_ASSIGNMENT ( #6, #33, ( #102 ) ) ;
#35 = PRODUCT_DEFINITION_FORMATION_WITH_SPECIFIED_SOURCE ( 'Symmetric', '', #166, .NOT_KNOWN. ) ;
#36 = PERSON_AND_ORGANIZATION ( #18446744073709551615, #18446744073709551615 ) ;
#37 = IDENTIFICATION_ROLE ( 'external document id and location', $) ;
#38 = COORDINATED_UNIVERSAL_TIME_OFFSET ( 10, 0, .AHEAD. ) ;
#39 = PERSON_AND_ORGANIZATION ( #18446744073709551615, #18446744073709551615 ) ;
#40 = APPROVAL_PERSON_ORGANIZATION ( #140, #95, #207 ) ;
#41 = CC_DESIGN_PERSON_AND_ORGANIZATION_ASSIGNMENT ( #299, #334, ( #102 ) ) ;
#42 = PERSON_AND_ORGANIZATION ( #18446744073709551615, #18446744073709551615 ) ;
#43 = APPROVAL_ROLE ( '' ) ;
#44 = CARTESIAN_POINT ( 'NONE',  ( 0.000000000000000000, 0.000000000000000000, 0.000000000000000000 ) ) ;
#45 = CALENDAR_DATE ( 2026, 22, 6 ) ;
#46 = CC_DESIGN_PERSON_AND_ORGANIZATION_ASSIGNMENT ( #257, #290, ( #187 ) ) ;
#47 = PRODUCT_DEFINITION_SHAPE ( 'NONE', 'NONE',  #156 ) ;
#48 = CC_DESIGN_SECURITY_CLASSIFICATION ( #312, ( #390 ) ) ;
#49 = DATE_AND_TIME ( #316, #132 ) ;
#50 = SHAPE_DEFINITION_REPRESENTATION ( #47, #59 ) ;
#51 = APPROVAL_DATE_TIME ( #320, #238 ) ;
#52 = CC_DESIGN_APPROVAL ( #338, ( #264 ) ) ;
#53 = ROLE_ASSOCIATION ( #301, #183 ) ;
#54 = COORDINATED_UNIVERSAL_TIME_OFFSET ( 10, 0, .AHEAD. ) ;
#55 = DOCUMENT_TYPE ( 'geometry' ) ;
#56 = DIRECTION ( 'NONE',  ( 1.000000000000000000, 0.000000000000000000, 0.000000000000000000 ) ) ;
#57 = PROPERTY_DEFINITION_REPRESENTATION ( #225, #59 ) ;
#58 = APPLIED_EXTERNAL_IDENTIFICATION_ASSIGNMENT ( '6534431024.step.STEP' , #241, #262,( #32) ) ;
#59 = SHAPE_REPRESENTATION ( '6461079856.step', ( #364 ), #281 ) ;
#60 = ROLE_ASSOCIATION ( #62, #88 ) ;
#61 =( LENGTH_UNIT ( ) NAMED_UNIT ( * ) SI_UNIT ( .MILLI., .METRE. ) );
#62 = OBJECT_ROLE ('mandatory',$ ) ;
#63 = DATE_AND_TIME ( #213, #352 ) ;
#64 = CALENDAR_DATE ( 2026, 22, 6 ) ;
#65 = CC_DESIGN_SECURITY_CLASSIFICATION ( #258, ( #35 ) ) ;
#66 = SHAPE_DEFINITION_REPRESENTATION ( #256, #91 ) ;
#67 = PERSON_AND_ORGANIZATION ( #18446744073709551615, #18446744073709551615 ) ;
#68 = CALENDAR_DATE ( 2026, 22, 6 ) ;
#69 = CC_DESIGN_APPROVAL ( #75, ( #312 ) ) ;
#70 = APPROVAL ( #200, 'Coincident' ) ;
#71 = DATE_AND_TIME ( #134, #205 ) ;
#72 = PRODUCT_DEFINITION_SHAPE ( 'NONE', 'NONE',  #389 ) ;
#73 = DATE_TIME_ROLE ( 'creation_date' ) ;
#74 = APPLICATION_CONTEXT ( 'configuration controlled 3d designs of mechanical parts and assemblies' ) ;
#75 = APPROVAL ( #272, 'UNKNOWN' ) ;
#76 = LOCAL_TIME ( 18, 49, 59.00000000000000000, #54 ) ;
#77 = LOCAL_TIME ( 18, 49, 59.00000000000000000, #185 ) ;
#78 = DATE_AND_TIME ( #131, #251 ) ;
#79 = APPROVAL_DATE_TIME ( #71, #113 ) ;
#80 = DOCUMENT_FILE ( '6461079856.step.STEP' , '', '', #339, '' ,$ ) ;
#81 = CARTESIAN_POINT ( 'NONE',  ( 0.000000000000000000, 0.000000000000000000, 0.000000000000000000 ) ) ;
#82 = CC_DESIGN_PERSON_AND_ORGANIZATION_ASSIGNMENT ( #382, #286, ( #35 ) ) ;
#83 = CC_DESIGN_APPROVAL ( #341, ( #110 ) ) ;
#84 = PROPERTY_DEFINITION_REPRESENTATION ( #133, #59 ) ;
#85 = DIRECTION ( 'NONE',  ( 1.000000000000000222, -1.092455418989176591E-28, 4.890937612370273194E-29 ) ) ;
#86 = DATE_AND_TIME ( #355, #15 ) ;
#87 = DIRECTION ( 'NONE',  ( 4.890937612370273194E-29, -3.155443620884047222E-30, 0.9999999999999997780 ) ) ;
#88 = APPLIED_DOCUMENT_REFERENCE ( #3,'',( #156) ) ;
#89 = APPLICATION_PROTOCOL_DEFINITION ( 'international standard', 'config_control_design', 1994, #74 ) ;
#90 = APPROVAL_PERSON_ORGANIZATION ( #25, #341, #328 ) ;
#91 = SHAPE_REPRESENTATION ( 'C19.step', ( #196, #274, #323, #335 ), #370 ) ;
#92 = DATE_AND_TIME ( #332, #154 ) ;
#93 = CC_DESIGN_PERSON_AND_ORGANIZATION_ASSIGNMENT ( #309, #98, ( #156 ) ) ;
#94 = APPROVAL_ROLE ( '' ) ;
#95 = APPROVAL ( #268, 'UNKNOWN' ) ;
#96 = APPROVAL_DATE_TIME ( #153, #191 ) ;
#97 = APPROVAL_PERSON_ORGANIZATION ( #36, #338, #94 ) ;
#98 = PERSON_AND_ORGANIZATION_ROLE ( 'creator' ) ;
#99 = PERSON_AND_ORGANIZATION ( #18446744073709551615, #18446744073709551615 ) ;
#100 = APPLICATION_PROTOCOL_DEFINITION ( 'international standard', 'config_control_design', 1994, #280 ) ;
#101 = CC_DESIGN_SECURITY_CLASSIFICATION ( #264, ( #376 ) ) ;
#102 = PRODUCT_DEFINITION ( 'General', '', #376, #138 ) ;
#103 = PROPERTY_DEFINITION ('document property','', #3 ) ;
#104 = APPROVAL_STATUS ( 'not_yet_approved' ) ;
#105 = CC_DESIGN_DATE_AND_TIME_ASSIGNMENT ( #114, #239, ( #115 ) ) ;
#106 = PRODUCT_DEFINITION_SHAPE ( 'NONE', 'NONE',  #388 ) ;
#107 = DATE_TIME_ROLE ( 'classification_date' ) ;
#108 = DATE_AND_TIME ( #45, #336 ) ;
#109 = CC_DESIGN_APPROVAL ( #375, ( #102 ) ) ;
#110 = SECURITY_CLASSIFICATION ( '', '', #192 ) ;
#111 = PERSON_AND_ORGANIZATION_ROLE ( 'design_supplier' ) ;
#112 = APPROVAL_ROLE ( '' ) ;
#113 = APPROVAL ( #104, 'Coincident' ) ;
#114 = DATE_AND_TIME ( #31, #11 ) ;
#115 = SECURITY_CLASSIFICATION ( '', '', #300 ) ;
#116 = DIRECTION ( 'NONE',  ( 1.000000000000000000, 0.000000000000000000, 0.000000000000000000 ) ) ;
#117 = APPLICATION_CONTEXT ( 'configuration controlled 3d designs of mechanical parts and assemblies' ) ;
#118 = COORDINATED_UNIVERSAL_TIME_OFFSET ( 10, 0, .AHEAD. ) ;
#119 = MECHANICAL_CONTEXT ( 'NONE', #74, 'mechanical' ) ;
#120 = CALENDAR_DATE ( 2026, 22, 6 ) ;
#121 =( NAMED_UNIT ( * ) SI_UNIT ( $, .STERADIAN. ) SOLID_ANGLE_UNIT ( ) );
#122 = LOCAL_TIME ( 18, 49, 59.00000000000000000, #222 ) ;
#123 = COORDINATED_UNIVERSAL_TIME_OFFSET ( 10, 0, .AHEAD. ) ;
#124 = SECURITY_CLASSIFICATION_LEVEL ( 'unclassified' ) ;
#125 = APPROVAL ( #283, 'Coincident' ) ;
#126 = COORDINATED_UNIVERSAL_TIME_OFFSET ( 10, 0, .AHEAD. ) ;
#127 =( GEOMETRIC_REPRESENTATION_CONTEXT ( 3 ) GLOBAL_UNCERTAINTY_ASSIGNED_CONTEXT ( ( #359 ) ) GLOBAL_UNIT_ASSIGNED_CONTEXT ( ( #232, #212, #4 ) ) REPRESENTATION_CONTEXT ( 'NONE', 'WORKASPACE' ) );
#128 = APPROVAL_PERSON_ORGANIZATION ( #261, #70, #43 ) ;
#129 = PERSON_AND_ORGANIZATION ( #18446744073709551615, #18446744073709551615 ) ;
#130 = PERSON_AND_ORGANIZATION ( #18446744073709551615, #18446744073709551615 ) ;
#131 = CALENDAR_DATE ( 2026, 22, 6 ) ;
#132 = LOCAL_TIME ( 18, 49, 59.00000000000000000, #162 ) ;
#133 = PROPERTY_DEFINITION ('external definition','', #3 ) ;
#134 = CALENDAR_DATE ( 2026, 22, 6 ) ;
#135 = DOCUMENT_TYPE ( 'geometry' ) ;
#136 = COORDINATED_UNIVERSAL_TIME_OFFSET ( 10, 0, .AHEAD. ) ;
#137 = DATE_AND_TIME ( #351, #186 ) ;
#138 = DESIGN_CONTEXT ( 'detailed design', #117, 'design' ) ;
#139 = APPROVAL_DATE_TIME ( #284, #70 ) ;
#140 = PERSON_AND_ORGANIZATION ( #380, #269 ) ;
#141 = DESIGN_CONTEXT ( 'detailed design', #363, 'design' ) ;
#142 = DIRECTION ( 'NONE',  ( 4.890937612370273194E-29, -3.155443620884047222E-30, 0.9999999999999997780 ) ) ;
#143 = CC_DESIGN_DATE_AND_TIME_ASSIGNMENT ( #78, #291, ( #265 ) ) ;
#144 = PERSON_AND_ORGANIZATION_ROLE ( 'classification_officer' ) ;
#145 = CARTESIAN_POINT ( 'NONE',  ( 10.74999719235400519, 11.69999340820300304, -2.058321952820000078 ) ) ;
#146 = CC_DESIGN_PERSON_AND_ORGANIZATION_ASSIGNMENT ( #374, #111, ( #35 ) ) ;
#147 = CONTEXT_DEPENDENT_SHAPE_REPRESENTATION ( #350, #72 ) ;
#148 = CC_DESIGN_APPROVAL ( #95, ( #115 ) ) ;
#149 = CARTESIAN_POINT ( 'NONE',  ( 10.74999719235400164, 11.19999340820300304, -2.058321952820000078 ) ) ;
#150 = DATE_TIME_ROLE ( 'classification_date' ) ;
#151 = PERSON_AND_ORGANIZATION_ROLE ( 'design_owner' ) ;
#152 = IDENTIFICATION_ROLE ( 'external document id and location', $) ;
#153 = DATE_AND_TIME ( #64, #27 ) ;
#154 = LOCAL_TIME ( 18, 49, 59.00000000000000000, #123 ) ;
#155 = APPROVAL_STATUS ( 'not_yet_approved' ) ;
#156 = PRODUCT_DEFINITION ( 'General', '', #324, #141 ) ;
#157 =( REPRESENTATION_RELATIONSHIP ('NONE','NONE', #91, #240 ) REPRESENTATION_RELATIONSHIP_WITH_TRANSFORMATION ( #345 )SHAPE_REPRESENTATION_RELATIONSHIP( ) );
#158 = APPROVAL_ROLE ( '' ) ;
#159 = PERSON_AND_ORGANIZATION_ROLE ( 'design_supplier' ) ;
#160 = CC_DESIGN_APPROVAL ( #125, ( #156 ) ) ;
#161 = PERSON_AND_ORGANIZATION_ROLE ( 'design_owner' ) ;
#162 = COORDINATED_UNIVERSAL_TIME_OFFSET ( 10, 0, .AHEAD. ) ;
#163 = CC_DESIGN_DATE_AND_TIME_ASSIGNMENT ( #92, #13, ( #264 ) ) ;
#164 = PROPERTY_DEFINITION ('document property','', #80 ) ;
#165 = MECHANICAL_CONTEXT ( 'NONE', #197, 'mechanical' ) ;
#166 = PRODUCT ( '6534431024.step', '6534431024.step', '', ( #165 ) ) ;
#167 = CC_DESIGN_PERSON_AND_ORGANIZATION_ASSIGNMENT ( #25, #144, ( #110 ) ) ;
#168 = LOCAL_TIME ( 18, 49, 59.00000000000000000, #330 ) ;
#169 = PERSON_AND_ORGANIZATION ( #18446744073709551615, #18446744073709551615 ) ;
#170 = APPLICATION_PROTOCOL_DEFINITION ( 'international standard', 'config_control_design', 1994, #197 ) ;
#171 = SHAPE_DEFINITION_REPRESENTATION ( #228, #240 ) ;
#172 = APPROVAL_PERSON_ORGANIZATION ( #356, #375, #386 ) ;
#173 = CC_DESIGN_SECURITY_CLASSIFICATION ( #265, ( #324 ) ) ;
#174 = ITEM_DEFINED_TRANSFORMATION ( 'NONE', 'NONE', #323,  #364 ) ;
#175 = DATE_AND_TIME ( #322, #76 ) ;
#176 = PROPERTY_DEFINITION_REPRESENTATION ( #247, #240 ) ;
#177 = DIRECTION ( 'NONE',  ( 1.000000000000000222, -1.092455418989176591E-28, 4.890937612370273194E-29 ) ) ;
#178 = CC_DESIGN_DATE_AND_TIME_ASSIGNMENT ( #49, #303, ( #110 ) ) ;
#179 = EXTERNAL_SOURCE (IDENTIFIER('') ) ;
#180 = APPROVAL_PERSON_ORGANIZATION ( #169, #238, #353 ) ;
#181 = CALENDAR_DATE ( 2026, 22, 6 ) ;
#182 =( NAMED_UNIT ( * ) PLANE_ANGLE_UNIT ( ) SI_UNIT ( $, .RADIAN. ) );
#183 = APPLIED_DOCUMENT_REFERENCE ( #32,'',( #187) ) ;
#184 = APPROVAL_DATE_TIME ( #63, #277 ) ;
#185 = COORDINATED_UNIVERSAL_TIME_OFFSET ( 10, 0, .AHEAD. ) ;
#186 = LOCAL_TIME ( 18, 49, 59.00000000000000000, #194 ) ;
#187 = PRODUCT_DEFINITION ( 'General', '', #35, #292 ) ;
#188 = APPROVAL_ROLE ( '' ) ;
#189 = PERSON_AND_ORGANIZATION ( #18446744073709551615, #18446744073709551615 ) ;
#190 = DATE_AND_TIME ( #68, #224 ) ;
#191 = APPROVAL ( #155, 'Coincident' ) ;
#192 = SECURITY_CLASSIFICATION_LEVEL ( 'unclassified' ) ;
#193 = PRODUCT ( 'C19.step', 'C19.step', '', ( #119 ) ) ;
#194 = COORDINATED_UNIVERSAL_TIME_OFFSET ( 10, 0, .AHEAD. ) ;
#195 = CALENDAR_DATE ( 2026, 22, 6 ) ;
#196 = AXIS2_PLACEMENT_3D ( 'NONE', #383, #327, #116 ) ;
#197 = APPLICATION_CONTEXT ( 'configuration controlled 3d designs of mechanical parts and assemblies' ) ;
#198 = ORGANIZATION ( 'NAUO-ORG242', 'UNSPECIFIED', 'UNSPECIFIED' ) ;
#199 = APPLIED_EXTERNAL_IDENTIFICATION_ASSIGNMENT ( '6461079856.step.STEP' , #152, #318,( #3) ) ;
#200 = APPROVAL_STATUS ( 'not_yet_approved' ) ;
#201 = CALENDAR_DATE ( 2026, 22, 6 ) ;
#202 = DIRECTION ( 'NONE',  ( 0.000000000000000000, 0.000000000000000000, 1.000000000000000000 ) ) ;
#203 = COORDINATED_UNIVERSAL_TIME_OFFSET ( 10, 0, .AHEAD. ) ;
#204 = APPROVAL_PERSON_ORGANIZATION ( #99, #191, #188 ) ;
#205 = LOCAL_TIME ( 18, 49, 59.00000000000000000, #21 ) ;
#206 = PRODUCT_RELATED_PRODUCT_CATEGORY ( 'detail', '', ( #193 ) ) ;
#207 = APPROVAL_ROLE ( '' ) ;
#208 = DIRECTION ( 'NONE',  ( 1.000000000000000222, -1.092455418989176591E-28, 4.890937612370273194E-29 ) ) ;
#209 = PROPERTY_DEFINITION_REPRESENTATION ( #366, #240 ) ;
#210 = CARTESIAN_POINT ( 'NONE',  ( 10.74999719235400164, 12.19999340820300304, -2.058321952820000078 ) ) ;
#211 = CC_DESIGN_SECURITY_CLASSIFICATION ( #110, ( #388 ) ) ;
#212 =( NAMED_UNIT ( * ) PLANE_ANGLE_UNIT ( ) SI_UNIT ( $, .RADIAN. ) );
#213 = CALENDAR_DATE ( 2026, 22, 6 ) ;
#214 = CC_DESIGN_PERSON_AND_ORGANIZATION_ASSIGNMENT ( #67, #253, ( #265 ) ) ;
#215 = DATE_TIME_ROLE ( 'creation_date' ) ;
#216 = APPROVAL_PERSON_ORGANIZATION ( #227, #113, #348 ) ;
#217 = CALENDAR_DATE ( 2026, 22, 6 ) ;
#218 = APPROVAL_PERSON_ORGANIZATION ( #19, #26, #378 ) ;
#219 = APPLICATION_CONTEXT ( 'configuration controlled 3d designs of mechanical parts and assemblies' ) ;
#220 = APPROVAL_STATUS ( 'not_yet_approved' ) ;
#221 = SECURITY_CLASSIFICATION_LEVEL ( 'unclassified' ) ;
#222 = COORDINATED_UNIVERSAL_TIME_OFFSET ( 10, 0, .AHEAD. ) ;
#223 = AXIS2_PLACEMENT_3D ( 'NONE', #81, #202, #230 ) ;
#224 = LOCAL_TIME ( 18, 49, 59.00000000000000000, #342 ) ;
#225 = PROPERTY_DEFINITION ('external definition','', #80 ) ;
#226 = CC_DESIGN_DATE_AND_TIME_ASSIGNMENT ( #108, #73, ( #187 ) ) ;
#227 = PERSON_AND_ORGANIZATION ( #18446744073709551615, #18446744073709551615 ) ;
#228 = PRODUCT_DEFINITION_SHAPE ( 'NONE', 'NONE',  #187 ) ;
#229 = APPROVAL_STATUS ( 'not_yet_approved' ) ;
#230 = DIRECTION ( 'NONE',  ( 1.000000000000000000, 0.000000000000000000, 0.000000000000000000 ) ) ;
#231 = PERSON_AND_ORGANIZATION ( #18446744073709551615, #18446744073709551615 ) ;
#232 =( LENGTH_UNIT ( ) NAMED_UNIT ( * ) SI_UNIT ( .MILLI., .METRE. ) );
#233 = CC_DESIGN_APPROVAL ( #70, ( #265 ) ) ;
#234 = DATE_AND_TIME ( #195, #317 ) ;
#235 = PROPERTY_DEFINITION_REPRESENTATION ( #103, #59 ) ;
#236 = CC_DESIGN_PERSON_AND_ORGANIZATION_ASSIGNMENT ( #39, #159, ( #376 ) ) ;
#237 = CC_DESIGN_APPROVAL ( #26, ( #35 ) ) ;
#238 = APPROVAL ( #22, 'Coincident' ) ;
#239 = DATE_TIME_ROLE ( 'classification_date' ) ;
#240 = SHAPE_REPRESENTATION ( '6534431024.step', ( #223 ), #127 ) ;
#241 = IDENTIFICATION_ROLE ( 'external document id and location', $) ;
#242 = PERSON_AND_ORGANIZATION ( #271, #198 ) ;
#243 = APPROVAL_DATE_TIME ( #385, #75 ) ;
#244 = CC_DESIGN_APPROVAL ( #238, ( #258 ) ) ;
#245 = APPLICATION_PROTOCOL_DEFINITION ( 'international standard', 'config_control_design', 1994, #117 ) ;
#246 = APPLICATION_PROTOCOL_DEFINITION ( 'international standard', 'config_control_design', 1994, #363 ) ;
#247 = PROPERTY_DEFINITION ('external definition','', #32 ) ;
#248 = CC_DESIGN_PERSON_AND_ORGANIZATION_ASSIGNMENT ( #231, #315, ( #258 ) ) ;
#249 = CALENDAR_DATE ( 2026, 22, 6 ) ;
#250 = CC_DESIGN_APPROVAL ( #191, ( #376 ) ) ;
#251 = LOCAL_TIME ( 18, 49, 59.00000000000000000, #373 ) ;
#252 = APPLICATION_PROTOCOL_DEFINITION ( 'international standard', 'config_control_design', 1994, #219 ) ;
#253 = PERSON_AND_ORGANIZATION_ROLE ( 'classification_officer' ) ;
#254 = CC_DESIGN_PERSON_AND_ORGANIZATION_ASSIGNMENT ( #360, #151, ( #193 ) ) ;
#255 = DATE_AND_TIME ( #372, #357 ) ;
#256 = PRODUCT_DEFINITION_SHAPE ( 'NONE', 'NONE',  #102 ) ;
#257 = PERSON_AND_ORGANIZATION ( #18446744073709551615, #18446744073709551615 ) ;
#258 = SECURITY_CLASSIFICATION ( '', '', #293 ) ;
#259 = COORDINATED_UNIVERSAL_TIME_OFFSET ( 10, 0, .AHEAD. ) ;
#260 = CC_DESIGN_PERSON_AND_ORGANIZATION_ASSIGNMENT ( #242, #321, ( #312 ) ) ;
#261 = PERSON_AND_ORGANIZATION ( #18446744073709551615, #18446744073709551615 ) ;
#262 = EXTERNAL_SOURCE (IDENTIFIER('') ) ;
#263 = APPROVAL_DATE_TIME ( #137, #26 ) ;
#264 = SECURITY_CLASSIFICATION ( '', '', #221 ) ;
#265 = SECURITY_CLASSIFICATION ( '', '', #124 ) ;
#266 = APPROVAL_DATE_TIME ( #287, #95 ) ;
#267 = SECURITY_CLASSIFICATION_LEVEL ( 'unclassified' ) ;
#268 = APPROVAL_STATUS ( 'not_yet_approved' ) ;
#269 = ORGANIZATION ( 'NAUO-ORG241', 'UNSPECIFIED', 'UNSPECIFIED' ) ;
#270 = ITEM_DEFINED_TRANSFORMATION ( 'NONE', 'NONE', #335,  #364 ) ;
#271 = PERSON ( 'NAUO-PER242', 'UNSPECIFIED', 'UNSPECIFIED', ('UNSPECIFIED'), ('UNSPECIFIED'), ('UNSPECIFIED') ) ;
#272 = APPROVAL_STATUS ( 'not_yet_approved' ) ;
#273 =( LENGTH_UNIT ( ) NAMED_UNIT ( * ) SI_UNIT ( .MILLI., .METRE. ) );
#274 = AXIS2_PLACEMENT_3D ( 'NONE', #145, #142, #85 ) ;
#275 = ORGANIZATION ( 'NAUO-ORG240', 'UNSPECIFIED', 'UNSPECIFIED' ) ;
#276 = PERSON_AND_ORGANIZATION_ROLE ( 'classification_officer' ) ;
#277 = APPROVAL ( #220, 'Coincident' ) ;
#278 = PERSON_AND_ORGANIZATION ( #18446744073709551615, #18446744073709551615 ) ;
#279 = APPROVAL_STATUS ( 'not_yet_approved' ) ;
#280 = APPLICATION_CONTEXT ( 'configuration controlled 3d designs of mechanical parts and assemblies' ) ;
#281 =( GEOMETRIC_REPRESENTATION_CONTEXT ( 3 ) GLOBAL_UNCERTAINTY_ASSIGNED_CONTEXT ( ( #296 ) ) GLOBAL_UNIT_ASSIGNED_CONTEXT ( ( #61, #329, #304 ) ) REPRESENTATION_CONTEXT ( 'NONE', 'WORKASPACE' ) );
#282 = DATE_AND_TIME ( #217, #308 ) ;
#283 = APPROVAL_STATUS ( 'not_yet_approved' ) ;
#284 = DATE_AND_TIME ( #16, #294 ) ;
#285 = CC_DESIGN_PERSON_AND_ORGANIZATION_ASSIGNMENT ( #307, #8, ( #324 ) ) ;
#286 = PERSON_AND_ORGANIZATION_ROLE ( 'creator' ) ;
#287 = DATE_AND_TIME ( #120, #168 ) ;
#288 = CC_DESIGN_PERSON_AND_ORGANIZATION_ASSIGNMENT ( #140, #358, ( #115 ) ) ;
#289 = PERSON ( 'NAUO-PER240', 'UNSPECIFIED', 'UNSPECIFIED', ('UNSPECIFIED'), ('UNSPECIFIED'), ('UNSPECIFIED') ) ;
#290 = PERSON_AND_ORGANIZATION_ROLE ( 'creator' ) ;
#291 = DATE_TIME_ROLE ( 'classification_date' ) ;
#292 = DESIGN_CONTEXT ( 'detailed design', #280, 'design' ) ;
#293 = SECURITY_CLASSIFICATION_LEVEL ( 'unclassified' ) ;
#294 = LOCAL_TIME ( 18, 49, 59.00000000000000000, #319 ) ;
#295 = ROLE_ASSOCIATION ( #17, #384 ) ;
#296 = UNCERTAINTY_MEASURE_WITH_UNIT (LENGTH_MEASURE( 1.000000000000000082E-05 ), #61, 'distance_accuracy_value', 'NONE');
#297 = APPROVAL_DATE_TIME ( #175, #375 ) ;
#298 = APPROVAL_DATE_TIME ( #86, #341 ) ;
#299 = PERSON_AND_ORGANIZATION ( #18446744073709551615, #18446744073709551615 ) ;
#300 = SECURITY_CLASSIFICATION_LEVEL ( 'unclassified' ) ;
#301 = OBJECT_ROLE ('mandatory',$ ) ;
#302 = APPROVAL_PERSON_ORGANIZATION ( #42, #277, #158 ) ;
#303 = DATE_TIME_ROLE ( 'classification_date' ) ;
#304 =( NAMED_UNIT ( * ) SI_UNIT ( $, .STERADIAN. ) SOLID_ANGLE_UNIT ( ) );
#305 = CALENDAR_DATE ( 2026, 22, 6 ) ;
#306 = CC_DESIGN_PERSON_AND_ORGANIZATION_ASSIGNMENT ( #130, #367, ( #376 ) ) ;
#307 = PERSON_AND_ORGANIZATION ( #18446744073709551615, #18446744073709551615 ) ;
#308 = LOCAL_TIME ( 18, 49, 59.00000000000000000, #38 ) ;
#309 = PERSON_AND_ORGANIZATION ( #18446744073709551615, #18446744073709551615 ) ;
#310 = PERSON_AND_ORGANIZATION ( #18446744073709551615, #18446744073709551615 ) ;
#311 = COORDINATED_UNIVERSAL_TIME_OFFSET ( 10, 0, .AHEAD. ) ;
#312 = SECURITY_CLASSIFICATION ( '', '', #267 ) ;
#313 = APPROVAL_DATE_TIME ( #255, #125 ) ;
#314 = APPROVAL_STATUS ( 'not_yet_approved' ) ;
#315 = PERSON_AND_ORGANIZATION_ROLE ( 'classification_officer' ) ;
#316 = CALENDAR_DATE ( 2026, 22, 6 ) ;
#317 = LOCAL_TIME ( 18, 49, 59.00000000000000000, #379 ) ;
#318 = EXTERNAL_SOURCE (IDENTIFIER('') ) ;
#319 = COORDINATED_UNIVERSAL_TIME_OFFSET ( 10, 0, .AHEAD. ) ;
#320 = DATE_AND_TIME ( #201, #122 ) ;
#321 = PERSON_AND_ORGANIZATION_ROLE ( 'classification_officer' ) ;
#322 = CALENDAR_DATE ( 2026, 22, 6 ) ;
#323 = AXIS2_PLACEMENT_3D ( 'NONE', #149, #362, #177 ) ;
#324 = PRODUCT_DEFINITION_FORMATION_WITH_SPECIFIED_SOURCE ( 'Symmetric', '', #349, .NOT_KNOWN. ) ;
#325 = CONTEXT_DEPENDENT_SHAPE_REPRESENTATION ( #157, #106 ) ;
#326 = CC_DESIGN_PERSON_AND_ORGANIZATION_ASSIGNMENT ( #14, #381, ( #166 ) ) ;
#327 = DIRECTION ( 'NONE',  ( 0.000000000000000000, 0.000000000000000000, 1.000000000000000000 ) ) ;
#328 = APPROVAL_ROLE ( '' ) ;
#329 =( NAMED_UNIT ( * ) PLANE_ANGLE_UNIT ( ) SI_UNIT ( $, .RADIAN. ) );
#330 = COORDINATED_UNIVERSAL_TIME_OFFSET ( 10, 0, .AHEAD. ) ;
#331 = CONTEXT_DEPENDENT_SHAPE_REPRESENTATION ( #368, #346 ) ;
#332 = CALENDAR_DATE ( 2026, 22, 6 ) ;
#333 = CC_DESIGN_DATE_AND_TIME_ASSIGNMENT ( #234, #107, ( #258 ) ) ;
#334 = PERSON_AND_ORGANIZATION_ROLE ( 'creator' ) ;
#335 = AXIS2_PLACEMENT_3D ( 'NONE', #210, #87, #208 ) ;
#336 = LOCAL_TIME ( 18, 49, 59.00000000000000000, #259 ) ;
#337 = MECHANICAL_CONTEXT ( 'NONE', #219, 'mechanical' ) ;
#338 = APPROVAL ( #279, 'Coincident' ) ;
#339 = DOCUMENT_TYPE ( 'geometry' ) ;
#340 = PERSON_AND_ORGANIZATION_ROLE ( 'creator' ) ;
#341 = APPROVAL ( #314, 'UNKNOWN' ) ;
#342 = COORDINATED_UNIVERSAL_TIME_OFFSET ( 10, 0, .AHEAD. ) ;
#343 = APPROVAL_PERSON_ORGANIZATION ( #129, #125, #12 ) ;
#344 = LOCAL_TIME ( 18, 49, 59.00000000000000000, #203 ) ;
#345 = ITEM_DEFINED_TRANSFORMATION ( 'NONE', 'NONE', #274,  #223 ) ;
#346 = PRODUCT_DEFINITION_SHAPE ( 'NONE', 'NONE',  #390 ) ;
#347 = CC_DESIGN_DATE_AND_TIME_ASSIGNMENT ( #190, #215, ( #156 ) ) ;
#348 = APPROVAL_ROLE ( '' ) ;
#349 = PRODUCT ( '6461079856.step', '6461079856.step', '', ( #337 ) ) ;
#350 =( REPRESENTATION_RELATIONSHIP ('NONE','NONE', #91, #59 ) REPRESENTATION_RELATIONSHIP_WITH_TRANSFORMATION ( #174 )SHAPE_REPRESENTATION_RELATIONSHIP( ) );
#351 = CALENDAR_DATE ( 2026, 22, 6 ) ;
#352 = LOCAL_TIME ( 18, 49, 59.00000000000000000, #311 ) ;
#353 = APPROVAL_ROLE ( '' ) ;
#354 = CC_DESIGN_PERSON_AND_ORGANIZATION_ASSIGNMENT ( #278, #340, ( #324 ) ) ;
#355 = CALENDAR_DATE ( 2026, 22, 6 ) ;
#356 = PERSON_AND_ORGANIZATION ( #18446744073709551615, #18446744073709551615 ) ;
#357 = LOCAL_TIME ( 18, 49, 59.00000000000000000, #10 ) ;
#358 = PERSON_AND_ORGANIZATION_ROLE ( 'classification_officer' ) ;
#359 = UNCERTAINTY_MEASURE_WITH_UNIT (LENGTH_MEASURE( 1.000000000000000082E-05 ), #232, 'distance_accuracy_value', 'NONE');
#360 = PERSON_AND_ORGANIZATION ( #18446744073709551615, #18446744073709551615 ) ;
#361 = COORDINATED_UNIVERSAL_TIME_OFFSET ( 10, 0, .AHEAD. ) ;
#362 = DIRECTION ( 'NONE',  ( 4.890937612370273194E-29, -3.155443620884047222E-30, 0.9999999999999997780 ) ) ;
#363 = APPLICATION_CONTEXT ( 'configuration controlled 3d designs of mechanical parts and assemblies' ) ;
#364 = AXIS2_PLACEMENT_3D ( 'NONE', #44, #28, #56 ) ;
#365 = APPROVAL_STATUS ( 'not_yet_approved' ) ;
#366 = PROPERTY_DEFINITION ('document property','', #32 ) ;
#367 = PERSON_AND_ORGANIZATION_ROLE ( 'creator' ) ;
#368 =( REPRESENTATION_RELATIONSHIP ('NONE','NONE', #91, #59 ) REPRESENTATION_RELATIONSHIP_WITH_TRANSFORMATION ( #270 )SHAPE_REPRESENTATION_RELATIONSHIP( ) );
#369 = APPROVAL_DATE_TIME ( #282, #338 ) ;
#370 =( GEOMETRIC_REPRESENTATION_CONTEXT ( 3 ) GLOBAL_UNCERTAINTY_ASSIGNED_CONTEXT ( ( #2 ) ) GLOBAL_UNIT_ASSIGNED_CONTEXT ( ( #273, #182, #121 ) ) REPRESENTATION_CONTEXT ( 'NONE', 'WORKASPACE' ) );
#371 = APPROVAL_PERSON_ORGANIZATION ( #242, #75, #112 ) ;
#372 = CALENDAR_DATE ( 2026, 22, 6 ) ;
#373 = COORDINATED_UNIVERSAL_TIME_OFFSET ( 10, 0, .AHEAD. ) ;
#374 = PERSON_AND_ORGANIZATION ( #18446744073709551615, #18446744073709551615 ) ;
#375 = APPROVAL ( #365, 'Coincident' ) ;
#376 = PRODUCT_DEFINITION_FORMATION_WITH_SPECIFIED_SOURCE ( 'Symmetric', '', #193, .NOT_KNOWN. ) ;
#377 = CC_DESIGN_APPROVAL ( #277, ( #324 ) ) ;
#378 = APPROVAL_ROLE ( '' ) ;
#379 = COORDINATED_UNIVERSAL_TIME_OFFSET ( 10, 0, .AHEAD. ) ;
#380 = PERSON ( 'NAUO-PER241', 'UNSPECIFIED', 'UNSPECIFIED', ('UNSPECIFIED'), ('UNSPECIFIED'), ('UNSPECIFIED') ) ;
#381 = PERSON_AND_ORGANIZATION_ROLE ( 'design_owner' ) ;
#382 = PERSON_AND_ORGANIZATION ( #18446744073709551615, #18446744073709551615 ) ;
#383 = CARTESIAN_POINT ( 'NONE',  ( 0.000000000000000000, 0.000000000000000000, 0.000000000000000000 ) ) ;
#384 = APPLIED_DOCUMENT_REFERENCE ( #80,'',( #156) ) ;
#385 = DATE_AND_TIME ( #305, #5 ) ;
#386 = APPROVAL_ROLE ( '' ) ;
#387 = APPLIED_EXTERNAL_IDENTIFICATION_ASSIGNMENT ( '6461079856.step.STEP' , #37, #179,( #80) ) ;
#388 = NEXT_ASSEMBLY_USAGE_OCCURRENCE ( 'NAUO240', ' ', ' ', #102, #187, $ ) ;
#389 = NEXT_ASSEMBLY_USAGE_OCCURRENCE ( 'NAUO241', ' ', ' ', #102, #156, $ ) ;
#390 = NEXT_ASSEMBLY_USAGE_OCCURRENCE ( 'NAUO242', ' ', ' ', #102, #156, $ ) ;
ENDSEC;
END-ISO-10303-21;
