ISO-10303-21;
HEADER;
FILE_DESCRIPTION (( 'STEP AP203' ),
    '1' );
FILE_NAME ('C2.step.STEP',
    '2026-06-22T08:50:00',
    ( 'localuser' ),
    ( '' ),
    'SwSTEP 2.0',
    'SolidWorks 2025',
    '' );
FILE_SCHEMA (( 'CONFIG_CONTROL_DESIGN' ));
ENDSEC;

DATA;
#1 = DATE_TIME_ROLE ( 'classification_date' ) ;
#2 = APPLICATION_CONTEXT ( 'configuration controlled 3d designs of mechanical parts and assemblies' ) ;
#3 = PERSON_AND_ORGANIZATION ( #18446744073709551615, #18446744073709551615 ) ;
#4 = APPROVAL_PERSON_ORGANIZATION ( #163, #20, #330 ) ;
#5 = PRODUCT_DEFINITION_SHAPE ( 'NONE', 'NONE',  #246 ) ;
#6 = CALENDAR_DATE ( 2026, 22, 6 ) ;
#7 = SECURITY_CLASSIFICATION_LEVEL ( 'unclassified' ) ;
#8 = APPLICATION_CONTEXT ( 'configuration controlled 3d designs of mechanical parts and assemblies' ) ;
#9 = APPROVAL_DATE_TIME ( #101, #229 ) ;
#10 = SECURITY_CLASSIFICATION ( '', '', #54 ) ;
#11 = PERSON_AND_ORGANIZATION_ROLE ( 'design_owner' ) ;
#12 = COORDINATED_UNIVERSAL_TIME_OFFSET ( 10, 0, .AHEAD. ) ;
#13 =( NAMED_UNIT ( * ) SI_UNIT ( $, .STERADIAN. ) SOLID_ANGLE_UNIT ( ) );
#14 = EXTERNAL_SOURCE (IDENTIFIER('') ) ;
#15 = LOCAL_TIME ( 18, 50, 0.000000000000000000, #157 ) ;
#16 = CC_DESIGN_SECURITY_CLASSIFICATION ( #26, ( #389 ) ) ;
#17 = SHAPE_REPRESENTATION ( '6325040752.step', ( #273 ), #183 ) ;
#18 = DIRECTION ( 'NONE',  ( 4.890937612370273194E-29, -3.155443620884047222E-30, 0.9999999999999997780 ) ) ;
#19 = ROLE_ASSOCIATION ( #263, #285 ) ;
#20 = APPROVAL ( #100, 'Coincident' ) ;
#21 = CONTEXT_DEPENDENT_SHAPE_REPRESENTATION ( #136, #331 ) ;
#22 = APPROVAL ( #206, 'Coincident' ) ;
#23 = LOCAL_TIME ( 18, 50, 0.000000000000000000, #252 ) ;
#24 = DIRECTION ( 'NONE',  ( 0.000000000000000000, 0.000000000000000000, 1.000000000000000000 ) ) ;
#25 =( REPRESENTATION_RELATIONSHIP ('NONE','NONE', #379, #310 ) REPRESENTATION_RELATIONSHIP_WITH_TRANSFORMATION ( #386 )SHAPE_REPRESENTATION_RELATIONSHIP( ) );
#26 = SECURITY_CLASSIFICATION ( '', '', #106 ) ;
#27 = DATE_AND_TIME ( #238, #336 ) ;
#28 = CALENDAR_DATE ( 2026, 22, 6 ) ;
#29 = PROPERTY_DEFINITION_REPRESENTATION ( #149, #310 ) ;
#30 = APPROVAL_DATE_TIME ( #362, #158 ) ;
#31 = CC_DESIGN_PERSON_AND_ORGANIZATION_ASSIGNMENT ( #235, #36, ( #384 ) ) ;
#32 = DOCUMENT_TYPE ( 'geometry' ) ;
#33 = PERSON_AND_ORGANIZATION_ROLE ( 'classification_officer' ) ;
#34 = CC_DESIGN_APPROVAL ( #180, ( #94 ) ) ;
#35 = CC_DESIGN_DATE_AND_TIME_ASSIGNMENT ( #112, #289, ( #26 ) ) ;
#36 = PERSON_AND_ORGANIZATION_ROLE ( 'design_owner' ) ;
#37 = PERSON_AND_ORGANIZATION_ROLE ( 'classification_officer' ) ;
#38 =( NAMED_UNIT ( * ) PLANE_ANGLE_UNIT ( ) SI_UNIT ( $, .RADIAN. ) );
#39 = DATE_AND_TIME ( #6, #174 ) ;
#40 = CC_DESIGN_APPROVAL ( #139, ( #269 ) ) ;
#41 = LOCAL_TIME ( 18, 50, 0.000000000000000000, #350 ) ;
#42 = CALENDAR_DATE ( 2026, 22, 6 ) ;
#43 = APPROVAL ( #134, 'Coincident' ) ;
#44 = APPROVAL_DATE_TIME ( #74, #43 ) ;
#45 = PERSON_AND_ORGANIZATION ( #18446744073709551615, #18446744073709551615 ) ;
#46 = LOCAL_TIME ( 18, 50, 0.000000000000000000, #122 ) ;
#47 = ORGANIZATION ( 'NAUO-ORG296', 'UNSPECIFIED', 'UNSPECIFIED' ) ;
#48 = COORDINATED_UNIVERSAL_TIME_OFFSET ( 10, 0, .AHEAD. ) ;
#49 = IDENTIFICATION_ROLE ( 'external document id and location', $) ;
#50 =( LENGTH_UNIT ( ) NAMED_UNIT ( * ) SI_UNIT ( .MILLI., .METRE. ) );
#51 = DIRECTION ( 'NONE',  ( 1.000000000000000000, 0.000000000000000000, 0.000000000000000000 ) ) ;
#52 = LOCAL_TIME ( 18, 50, 0.000000000000000000, #75 ) ;
#53 = CC_DESIGN_APPROVAL ( #176, ( #10 ) ) ;
#54 = SECURITY_CLASSIFICATION_LEVEL ( 'unclassified' ) ;
#55 = APPROVAL_ROLE ( '' ) ;
#56 = DOCUMENT_FILE ( '6325040752.step.STEP' , '', '', #32, '' ,$ ) ;
#57 = DATE_AND_TIME ( #236, #270 ) ;
#58 = IDENTIFICATION_ROLE ( 'external document id and location', $) ;
#59 = CC_DESIGN_PERSON_AND_ORGANIZATION_ASSIGNMENT ( #87, #116, ( #261 ) ) ;
#60 = DATE_AND_TIME ( #316, #374 ) ;
#61 = SECURITY_CLASSIFICATION_LEVEL ( 'unclassified' ) ;
#62 = AXIS2_PLACEMENT_3D ( 'NONE', #346, #182, #179 ) ;
#63 = PROPERTY_DEFINITION ('external definition','', #115 ) ;
#64 = CC_DESIGN_PERSON_AND_ORGANIZATION_ASSIGNMENT ( #141, #344, ( #269 ) ) ;
#65 = APPLIED_DOCUMENT_REFERENCE ( #115,'',( #260) ) ;
#66 = APPLICATION_PROTOCOL_DEFINITION ( 'international standard', 'config_control_design', 1994, #259 ) ;
#67 = DOCUMENT_TYPE ( 'geometry' ) ;
#68 = CALENDAR_DATE ( 2026, 22, 6 ) ;
#69 = APPROVAL_ROLE ( '' ) ;
#70 = APPROVAL_PERSON_ORGANIZATION ( #159, #229, #306 ) ;
#71 = LOCAL_TIME ( 18, 50, 0.000000000000000000, #296 ) ;
#72 = PERSON_AND_ORGANIZATION_ROLE ( 'creator' ) ;
#73 = CC_DESIGN_DATE_AND_TIME_ASSIGNMENT ( #92, #299, ( #95 ) ) ;
#74 = DATE_AND_TIME ( #68, #15 ) ;
#75 = COORDINATED_UNIVERSAL_TIME_OFFSET ( 10, 0, .AHEAD. ) ;
#76 = LOCAL_TIME ( 18, 50, 0.000000000000000000, #213 ) ;
#77 =( GEOMETRIC_REPRESENTATION_CONTEXT ( 3 ) GLOBAL_UNCERTAINTY_ASSIGNED_CONTEXT ( ( #317 ) ) GLOBAL_UNIT_ASSIGNED_CONTEXT ( ( #237, #38, #128 ) ) REPRESENTATION_CONTEXT ( 'NONE', 'WORKASPACE' ) );
#78 = PRODUCT_DEFINITION ( 'General', '', #261, #248 ) ;
#79 = APPROVAL_STATUS ( 'not_yet_approved' ) ;
#80 = CC_DESIGN_APPROVAL ( #158, ( #78 ) ) ;
#81 = CC_DESIGN_APPROVAL ( #295, ( #335 ) ) ;
#82 = PERSON_AND_ORGANIZATION ( #18446744073709551615, #18446744073709551615 ) ;
#83 = APPROVAL_STATUS ( 'not_yet_approved' ) ;
#84 = PERSON_AND_ORGANIZATION_ROLE ( 'classification_officer' ) ;
#85 = APPROVAL_PERSON_ORGANIZATION ( #156, #180, #90 ) ;
#86 = CALENDAR_DATE ( 2026, 22, 6 ) ;
#87 = PERSON_AND_ORGANIZATION ( #18446744073709551615, #18446744073709551615 ) ;
#88 = EXTERNAL_SOURCE (IDENTIFIER('') ) ;
#89 = PROPERTY_DEFINITION_REPRESENTATION ( #63, #310 ) ;
#90 = APPROVAL_ROLE ( '' ) ;
#91 = CC_DESIGN_PERSON_AND_ORGANIZATION_ASSIGNMENT ( #45, #11, ( #208 ) ) ;
#92 = DATE_AND_TIME ( #212, #71 ) ;
#93 = MECHANICAL_CONTEXT ( 'NONE', #2, 'mechanical' ) ;
#94 = SECURITY_CLASSIFICATION ( '', '', #61 ) ;
#95 = SECURITY_CLASSIFICATION ( '', '', #218 ) ;
#96 = PERSON_AND_ORGANIZATION ( #18446744073709551615, #18446744073709551615 ) ;
#97 = APPROVAL_ROLE ( '' ) ;
#98 = PROPERTY_DEFINITION ('external definition','', #56 ) ;
#99 = DESIGN_CONTEXT ( 'detailed design', #259, 'design' ) ;
#100 = APPROVAL_STATUS ( 'not_yet_approved' ) ;
#101 = DATE_AND_TIME ( #365, #366 ) ;
#102 = SECURITY_CLASSIFICATION ( '', '', #382 ) ;
#103 = CC_DESIGN_SECURITY_CLASSIFICATION ( #95, ( #390 ) ) ;
#104 = CALENDAR_DATE ( 2026, 22, 6 ) ;
#105 = APPROVAL_DATE_TIME ( #256, #20 ) ;
#106 = SECURITY_CLASSIFICATION_LEVEL ( 'unclassified' ) ;
#107 = AXIS2_PLACEMENT_3D ( 'NONE', #343, #168, #51 ) ;
#108 =( NAMED_UNIT ( * ) PLANE_ANGLE_UNIT ( ) SI_UNIT ( $, .RADIAN. ) );
#109 = CC_DESIGN_PERSON_AND_ORGANIZATION_ASSIGNMENT ( #215, #329, ( #264 ) ) ;
#110 = APPROVAL ( #83, 'UNKNOWN' ) ;
#111 = DIRECTION ( 'NONE',  ( 1.000000000000000222, -1.092455418989176591E-28, 4.890937612370273194E-29 ) ) ;
#112 = DATE_AND_TIME ( #323, #138 ) ;
#113 = PRODUCT_DEFINITION_SHAPE ( 'NONE', 'NONE',  #390 ) ;
#114 = DATE_AND_TIME ( #348, #41 ) ;
#115 = DOCUMENT_FILE ( '6325040992.step.STEP' , '', '', #67, '' ,$ ) ;
#116 = PERSON_AND_ORGANIZATION_ROLE ( 'creator' ) ;
#117 = IDENTIFICATION_ROLE ( 'external document id and location', $) ;
#118 = CC_DESIGN_PERSON_AND_ORGANIZATION_ASSIGNMENT ( #334, #37, ( #95 ) ) ;
#119 = PERSON_AND_ORGANIZATION_ROLE ( 'classification_officer' ) ;
#120 = CC_DESIGN_APPROVAL ( #229, ( #239 ) ) ;
#121 = LOCAL_TIME ( 18, 50, 0.000000000000000000, #250 ) ;
#122 = COORDINATED_UNIVERSAL_TIME_OFFSET ( 10, 0, .AHEAD. ) ;
#123 = PERSON ( 'NAUO-PER297', 'UNSPECIFIED', 'UNSPECIFIED', ('UNSPECIFIED'), ('UNSPECIFIED'), ('UNSPECIFIED') ) ;
#124 = CC_DESIGN_PERSON_AND_ORGANIZATION_ASSIGNMENT ( #278, #165, ( #335 ) ) ;
#125 = COORDINATED_UNIVERSAL_TIME_OFFSET ( 10, 0, .AHEAD. ) ;
#126 = PRODUCT_DEFINITION_SHAPE ( 'NONE', 'NONE',  #260 ) ;
#127 = SHAPE_DEFINITION_REPRESENTATION ( #318, #379 ) ;
#128 =( NAMED_UNIT ( * ) SI_UNIT ( $, .STERADIAN. ) SOLID_ANGLE_UNIT ( ) );
#129 = LOCAL_TIME ( 18, 50, 0.000000000000000000, #125 ) ;
#130 = APPLIED_EXTERNAL_IDENTIFICATION_ASSIGNMENT ( '6325040752.step.STEP' , #49, #14,( #56) ) ;
#131 = DATE_AND_TIME ( #328, #121 ) ;
#132 = CALENDAR_DATE ( 2026, 22, 6 ) ;
#133 = CC_DESIGN_PERSON_AND_ORGANIZATION_ASSIGNMENT ( #3, #205, ( #78 ) ) ;
#134 = APPROVAL_STATUS ( 'not_yet_approved' ) ;
#135 = CC_DESIGN_DATE_AND_TIME_ASSIGNMENT ( #313, #201, ( #102 ) ) ;
#136 =( REPRESENTATION_RELATIONSHIP ('NONE','NONE', #379, #17 ) REPRESENTATION_RELATIONSHIP_WITH_TRANSFORMATION ( #372 )SHAPE_REPRESENTATION_RELATIONSHIP( ) );
#137 = CALENDAR_DATE ( 2026, 22, 6 ) ;
#138 = LOCAL_TIME ( 18, 50, 0.000000000000000000, #378 ) ;
#139 = APPROVAL ( #275, 'Coincident' ) ;
#140 = APPROVAL_ROLE ( '' ) ;
#141 = PERSON_AND_ORGANIZATION ( #18446744073709551615, #18446744073709551615 ) ;
#142 = CC_DESIGN_APPROVAL ( #281, ( #261 ) ) ;
#143 = CC_DESIGN_SECURITY_CLASSIFICATION ( #10, ( #388 ) ) ;
#144 = PROPERTY_DEFINITION_REPRESENTATION ( #219, #17 ) ;
#145 = PERSON_AND_ORGANIZATION ( #18446744073709551615, #18446744073709551615 ) ;
#146 =( NAMED_UNIT ( * ) SI_UNIT ( $, .STERADIAN. ) SOLID_ANGLE_UNIT ( ) );
#147 = CONTEXT_DEPENDENT_SHAPE_REPRESENTATION ( #276, #324 ) ;
#148 = APPROVAL_ROLE ( '' ) ;
#149 = PROPERTY_DEFINITION ('document property','', #169 ) ;
#150 = APPROVAL_DATE_TIME ( #60, #110 ) ;
#151 = CC_DESIGN_PERSON_AND_ORGANIZATION_ASSIGNMENT ( #224, #194, ( #239 ) ) ;
#152 = COORDINATED_UNIVERSAL_TIME_OFFSET ( 10, 0, .AHEAD. ) ;
#153 = APPROVAL_PERSON_ORGANIZATION ( #96, #139, #308 ) ;
#154 = DIRECTION ( 'NONE',  ( 4.890937612370273194E-29, -3.155443620884047222E-30, 0.9999999999999997780 ) ) ;
#155 = APPLICATION_PROTOCOL_DEFINITION ( 'international standard', 'config_control_design', 1994, #241 ) ;
#156 = PERSON_AND_ORGANIZATION ( #18446744073709551615, #18446744073709551615 ) ;
#157 = COORDINATED_UNIVERSAL_TIME_OFFSET ( 10, 0, .AHEAD. ) ;
#158 = APPROVAL ( #242, 'Coincident' ) ;
#159 = PERSON_AND_ORGANIZATION ( #18446744073709551615, #18446744073709551615 ) ;
#160 = CC_DESIGN_PERSON_AND_ORGANIZATION_ASSIGNMENT ( #173, #266, ( #26 ) ) ;
#161 = COORDINATED_UNIVERSAL_TIME_OFFSET ( 10, 0, .AHEAD. ) ;
#162 = PRODUCT_RELATED_PRODUCT_CATEGORY ( 'detail', '', ( #264 ) ) ;
#163 = PERSON_AND_ORGANIZATION ( #18446744073709551615, #18446744073709551615 ) ;
#164 = LOCAL_TIME ( 18, 50, 0.000000000000000000, #245 ) ;
#165 = PERSON_AND_ORGANIZATION_ROLE ( 'classification_officer' ) ;
#166 = LOCAL_TIME ( 18, 50, 0.000000000000000000, #249 ) ;
#167 = ORGANIZATION ( 'NAUO-ORG298', 'UNSPECIFIED', 'UNSPECIFIED' ) ;
#168 = DIRECTION ( 'NONE',  ( 0.000000000000000000, 0.000000000000000000, 1.000000000000000000 ) ) ;
#169 = DOCUMENT_FILE ( '6325040992.step.STEP' , '', '', #320, '' ,$ ) ;
#170 = PERSON_AND_ORGANIZATION ( #371, #47 ) ;
#171 = CC_DESIGN_DATE_AND_TIME_ASSIGNMENT ( #358, #1, ( #94 ) ) ;
#172 =( LENGTH_UNIT ( ) NAMED_UNIT ( * ) SI_UNIT ( .MILLI., .METRE. ) );
#173 = PERSON_AND_ORGANIZATION ( #123, #240 ) ;
#174 = LOCAL_TIME ( 18, 50, 0.000000000000000000, #222 ) ;
#175 = CC_DESIGN_APPROVAL ( #22, ( #102 ) ) ;
#176 = APPROVAL ( #79, 'UNKNOWN' ) ;
#177 = APPROVAL_STATUS ( 'not_yet_approved' ) ;
#178 = ROLE_ASSOCIATION ( #292, #290 ) ;
#179 = DIRECTION ( 'NONE',  ( 1.000000000000000000, 0.000000000000000000, 0.000000000000000000 ) ) ;
#180 = APPROVAL ( #184, 'Coincident' ) ;
#181 = COORDINATED_UNIVERSAL_TIME_OFFSET ( 10, 0, .AHEAD. ) ;
#182 = DIRECTION ( 'NONE',  ( 0.000000000000000000, 0.000000000000000000, 1.000000000000000000 ) ) ;
#183 =( GEOMETRIC_REPRESENTATION_CONTEXT ( 3 ) GLOBAL_UNCERTAINTY_ASSIGNED_CONTEXT ( ( #353 ) ) GLOBAL_UNIT_ASSIGNED_CONTEXT ( ( #50, #108, #146 ) ) REPRESENTATION_CONTEXT ( 'NONE', 'WORKASPACE' ) );
#184 = APPROVAL_STATUS ( 'not_yet_approved' ) ;
#185 = APPROVAL_STATUS ( 'not_yet_approved' ) ;
#186 = DATE_AND_TIME ( #327, #76 ) ;
#187 = DATE_TIME_ROLE ( 'creation_date' ) ;
#188 = DESIGN_CONTEXT ( 'detailed design', #8, 'design' ) ;
#189 = CALENDAR_DATE ( 2026, 22, 6 ) ;
#190 = CC_DESIGN_SECURITY_CLASSIFICATION ( #102, ( #269 ) ) ;
#191 = PERSON_AND_ORGANIZATION ( #18446744073709551615, #18446744073709551615 ) ;
#192 = CC_DESIGN_PERSON_AND_ORGANIZATION_ASSIGNMENT ( #225, #72, ( #260 ) ) ;
#193 = PERSON ( 'NAUO-PER298', 'UNSPECIFIED', 'UNSPECIFIED', ('UNSPECIFIED'), ('UNSPECIFIED'), ('UNSPECIFIED') ) ;
#194 = PERSON_AND_ORGANIZATION_ROLE ( 'design_supplier' ) ;
#195 = DATE_TIME_ROLE ( 'creation_date' ) ;
#196 = LOCAL_TIME ( 18, 50, 0.000000000000000000, #387 ) ;
#197 =( GEOMETRIC_REPRESENTATION_CONTEXT ( 3 ) GLOBAL_UNCERTAINTY_ASSIGNED_CONTEXT ( ( #332 ) ) GLOBAL_UNIT_ASSIGNED_CONTEXT ( ( #172, #286, #13 ) ) REPRESENTATION_CONTEXT ( 'NONE', 'WORKASPACE' ) );
#198 = APPROVAL_PERSON_ORGANIZATION ( #82, #22, #55 ) ;
#199 = APPROVAL_ROLE ( '' ) ;
#200 = CC_DESIGN_DATE_AND_TIME_ASSIGNMENT ( #357, #267, ( #78 ) ) ;
#201 = DATE_TIME_ROLE ( 'classification_date' ) ;
#202 = PROPERTY_DEFINITION ('document property','', #115 ) ;
#203 = APPLICATION_PROTOCOL_DEFINITION ( 'international standard', 'config_control_design', 1994, #349 ) ;
#204 = COORDINATED_UNIVERSAL_TIME_OFFSET ( 10, 0, .AHEAD. ) ;
#205 = PERSON_AND_ORGANIZATION_ROLE ( 'creator' ) ;
#206 = APPROVAL_STATUS ( 'not_yet_approved' ) ;
#207 = LOCAL_TIME ( 18, 50, 0.000000000000000000, #48 ) ;
#208 = PRODUCT ( '6325040752.step', '6325040752.step', '', ( #369 ) ) ;
#209 = APPROVAL_DATE_TIME ( #214, #281 ) ;
#210 = PERSON_AND_ORGANIZATION_ROLE ( 'design_supplier' ) ;
#211 = PERSON_AND_ORGANIZATION ( #18446744073709551615, #18446744073709551615 ) ;
#212 = CALENDAR_DATE ( 2026, 22, 6 ) ;
#213 = COORDINATED_UNIVERSAL_TIME_OFFSET ( 10, 0, .AHEAD. ) ;
#214 = DATE_AND_TIME ( #86, #164 ) ;
#215 = PERSON_AND_ORGANIZATION ( #18446744073709551615, #18446744073709551615 ) ;
#216 = CONTEXT_DEPENDENT_SHAPE_REPRESENTATION ( #25, #113 ) ;
#217 = DATE_TIME_ROLE ( 'classification_date' ) ;
#218 = SECURITY_CLASSIFICATION_LEVEL ( 'unclassified' ) ;
#219 = PROPERTY_DEFINITION ('document property','', #56 ) ;
#220 = DATE_AND_TIME ( #42, #52 ) ;
#221 = CC_DESIGN_PERSON_AND_ORGANIZATION_ASSIGNMENT ( #370, #301, ( #239 ) ) ;
#222 = COORDINATED_UNIVERSAL_TIME_OFFSET ( 10, 0, .AHEAD. ) ;
#223 = CC_DESIGN_APPROVAL ( #110, ( #26 ) ) ;
#224 = PERSON_AND_ORGANIZATION ( #18446744073709551615, #18446744073709551615 ) ;
#225 = PERSON_AND_ORGANIZATION ( #18446744073709551615, #18446744073709551615 ) ;
#226 = CC_DESIGN_APPROVAL ( #20, ( #246 ) ) ;
#227 = CARTESIAN_POINT ( 'NONE',  ( 11.39999871823200017, 18.99999645996100739, -2.458323717116999596 ) ) ;
#228 = APPROVAL_ROLE ( '' ) ;
#229 = APPROVAL ( #338, 'Coincident' ) ;
#230 = CARTESIAN_POINT ( 'NONE',  ( 12.12500100705100259, 18.99999645996100739, -2.458323717116999596 ) ) ;
#231 = PROPERTY_DEFINITION ('external definition','', #169 ) ;
#232 = AXIS2_PLACEMENT_3D ( 'NONE', #227, #18, #311 ) ;
#233 = APPROVAL_DATE_TIME ( #27, #176 ) ;
#234 = APPROVAL_DATE_TIME ( #57, #22 ) ;
#235 = PERSON_AND_ORGANIZATION ( #18446744073709551615, #18446744073709551615 ) ;
#236 = CALENDAR_DATE ( 2026, 22, 6 ) ;
#237 =( LENGTH_UNIT ( ) NAMED_UNIT ( * ) SI_UNIT ( .MILLI., .METRE. ) );
#238 = CALENDAR_DATE ( 2026, 22, 6 ) ;
#239 = PRODUCT_DEFINITION_FORMATION_WITH_SPECIFIED_SOURCE ( 'Symmetric', '', #264, .NOT_KNOWN. ) ;
#240 = ORGANIZATION ( 'NAUO-ORG297', 'UNSPECIFIED', 'UNSPECIFIED' ) ;
#241 = APPLICATION_CONTEXT ( 'configuration controlled 3d designs of mechanical parts and assemblies' ) ;
#242 = APPROVAL_STATUS ( 'not_yet_approved' ) ;
#243 = CC_DESIGN_DATE_AND_TIME_ASSIGNMENT ( #114, #383, ( #10 ) ) ;
#244 = CALENDAR_DATE ( 2026, 22, 6 ) ;
#245 = COORDINATED_UNIVERSAL_TIME_OFFSET ( 10, 0, .AHEAD. ) ;
#246 = PRODUCT_DEFINITION ( 'General', '', #269, #188 ) ;
#247 = APPROVAL_PERSON_ORGANIZATION ( #253, #295, #140 ) ;
#248 = DESIGN_CONTEXT ( 'detailed design', #241, 'design' ) ;
#249 = COORDINATED_UNIVERSAL_TIME_OFFSET ( 10, 0, .AHEAD. ) ;
#250 = COORDINATED_UNIVERSAL_TIME_OFFSET ( 10, 0, .AHEAD. ) ;
#251 = CC_DESIGN_PERSON_AND_ORGANIZATION_ASSIGNMENT ( #211, #294, ( #261 ) ) ;
#252 = COORDINATED_UNIVERSAL_TIME_OFFSET ( 10, 0, .AHEAD. ) ;
#253 = PERSON_AND_ORGANIZATION ( #18446744073709551615, #18446744073709551615 ) ;
#254 = LOCAL_TIME ( 18, 50, 0.000000000000000000, #12 ) ;
#255 = EXTERNAL_SOURCE (IDENTIFIER('') ) ;
#256 = DATE_AND_TIME ( #104, #254 ) ;
#257 = APPROVAL_DATE_TIME ( #304, #295 ) ;
#258 = PRODUCT_RELATED_PRODUCT_CATEGORY ( 'detail', '', ( #384 ) ) ;
#259 = APPLICATION_CONTEXT ( 'configuration controlled 3d designs of mechanical parts and assemblies' ) ;
#260 = PRODUCT_DEFINITION ( 'General', '', #239, #99 ) ;
#261 = PRODUCT_DEFINITION_FORMATION_WITH_SPECIFIED_SOURCE ( 'Symmetric', '', #384, .NOT_KNOWN. ) ;
#262 = SHAPE_DEFINITION_REPRESENTATION ( #5, #17 ) ;
#263 = OBJECT_ROLE ('mandatory',$ ) ;
#264 = PRODUCT ( '6325040992.step', '6325040992.step', '', ( #93 ) ) ;
#265 = PERSON_AND_ORGANIZATION ( #18446744073709551615, #18446744073709551615 ) ;
#266 = PERSON_AND_ORGANIZATION_ROLE ( 'classification_officer' ) ;
#267 = DATE_TIME_ROLE ( 'creation_date' ) ;
#268 = APPROVAL ( #185, 'UNKNOWN' ) ;
#269 = PRODUCT_DEFINITION_FORMATION_WITH_SPECIFIED_SOURCE ( 'Symmetric', '', #208, .NOT_KNOWN. ) ;
#270 = LOCAL_TIME ( 18, 50, 0.000000000000000000, #152 ) ;
#271 = CC_DESIGN_DATE_AND_TIME_ASSIGNMENT ( #220, #195, ( #246 ) ) ;
#272 = DIRECTION ( 'NONE',  ( 1.000000000000000222, -1.092455418989176591E-28, 4.890937612370273194E-29 ) ) ;
#273 = AXIS2_PLACEMENT_3D ( 'NONE', #351, #24, #375 ) ;
#274 = APPROVAL_STATUS ( 'not_yet_approved' ) ;
#275 = APPROVAL_STATUS ( 'not_yet_approved' ) ;
#276 =( REPRESENTATION_RELATIONSHIP ('NONE','NONE', #379, #310 ) REPRESENTATION_RELATIONSHIP_WITH_TRANSFORMATION ( #293 )SHAPE_REPRESENTATION_RELATIONSHIP( ) );
#277 = CC_DESIGN_PERSON_AND_ORGANIZATION_ASSIGNMENT ( #322, #33, ( #94 ) ) ;
#278 = PERSON_AND_ORGANIZATION ( #18446744073709551615, #18446744073709551615 ) ;
#279 = APPLICATION_PROTOCOL_DEFINITION ( 'international standard', 'config_control_design', 1994, #8 ) ;
#280 = APPROVAL_PERSON_ORGANIZATION ( #325, #281, #148 ) ;
#281 = APPROVAL ( #177, 'Coincident' ) ;
#282 = APPROVAL_DATE_TIME ( #305, #139 ) ;
#283 = APPLICATION_CONTEXT ( 'configuration controlled 3d designs of mechanical parts and assemblies' ) ;
#284 = APPROVAL_PERSON_ORGANIZATION ( #173, #110, #228 ) ;
#285 = APPLIED_DOCUMENT_REFERENCE ( #56,'',( #246) ) ;
#286 =( NAMED_UNIT ( * ) PLANE_ANGLE_UNIT ( ) SI_UNIT ( $, .RADIAN. ) );
#287 = COORDINATED_UNIVERSAL_TIME_OFFSET ( 10, 0, .AHEAD. ) ;
#288 = CC_DESIGN_SECURITY_CLASSIFICATION ( #335, ( #239 ) ) ;
#289 = DATE_TIME_ROLE ( 'classification_date' ) ;
#290 = APPLIED_DOCUMENT_REFERENCE ( #169,'',( #260) ) ;
#291 = APPROVAL_ROLE ( '' ) ;
#292 = OBJECT_ROLE ('mandatory',$ ) ;
#293 = ITEM_DEFINED_TRANSFORMATION ( 'NONE', 'NONE', #354,  #107 ) ;
#294 = PERSON_AND_ORGANIZATION_ROLE ( 'design_supplier' ) ;
#295 = APPROVAL ( #274, 'Coincident' ) ;
#296 = COORDINATED_UNIVERSAL_TIME_OFFSET ( 10, 0, .AHEAD. ) ;
#297 = APPROVAL_PERSON_ORGANIZATION ( #170, #176, #199 ) ;
#298 = APPROVAL_DATE_TIME ( #186, #180 ) ;
#299 = DATE_TIME_ROLE ( 'classification_date' ) ;
#300 = PERSON_AND_ORGANIZATION ( #18446744073709551615, #18446744073709551615 ) ;
#301 = PERSON_AND_ORGANIZATION_ROLE ( 'creator' ) ;
#302 = OBJECT_ROLE ('mandatory',$ ) ;
#303 = CC_DESIGN_APPROVAL ( #268, ( #95 ) ) ;
#304 = DATE_AND_TIME ( #132, #166 ) ;
#305 = DATE_AND_TIME ( #189, #207 ) ;
#306 = APPROVAL_ROLE ( '' ) ;
#307 = CC_DESIGN_PERSON_AND_ORGANIZATION_ASSIGNMENT ( #145, #119, ( #102 ) ) ;
#308 = APPROVAL_ROLE ( '' ) ;
#309 = CC_DESIGN_SECURITY_CLASSIFICATION ( #94, ( #261 ) ) ;
#310 = SHAPE_REPRESENTATION ( '6325040992.step', ( #107 ), #197 ) ;
#311 = DIRECTION ( 'NONE',  ( 1.000000000000000222, -1.092455418989176591E-28, 4.890937612370273194E-29 ) ) ;
#312 = LOCAL_TIME ( 18, 50, 0.000000000000000000, #181 ) ;
#313 = DATE_AND_TIME ( #314, #312 ) ;
#314 = CALENDAR_DATE ( 2026, 22, 6 ) ;
#315 = MECHANICAL_CONTEXT ( 'NONE', #349, 'mechanical' ) ;
#316 = CALENDAR_DATE ( 2026, 22, 6 ) ;
#317 = UNCERTAINTY_MEASURE_WITH_UNIT (LENGTH_MEASURE( 1.000000000000000082E-05 ), #237, 'distance_accuracy_value', 'NONE');
#318 = PRODUCT_DEFINITION_SHAPE ( 'NONE', 'NONE',  #78 ) ;
#319 = APPROVAL_PERSON_ORGANIZATION ( #334, #268, #97 ) ;
#320 = DOCUMENT_TYPE ( 'geometry' ) ;
#321 = PERSON_AND_ORGANIZATION ( #18446744073709551615, #18446744073709551615 ) ;
#322 = PERSON_AND_ORGANIZATION ( #18446744073709551615, #18446744073709551615 ) ;
#323 = CALENDAR_DATE ( 2026, 22, 6 ) ;
#324 = PRODUCT_DEFINITION_SHAPE ( 'NONE', 'NONE',  #389 ) ;
#325 = PERSON_AND_ORGANIZATION ( #18446744073709551615, #18446744073709551615 ) ;
#326 = ROLE_ASSOCIATION ( #302, #65 ) ;
#327 = CALENDAR_DATE ( 2026, 22, 6 ) ;
#328 = CALENDAR_DATE ( 2026, 22, 6 ) ;
#329 = PERSON_AND_ORGANIZATION_ROLE ( 'design_owner' ) ;
#330 = APPROVAL_ROLE ( '' ) ;
#331 = PRODUCT_DEFINITION_SHAPE ( 'NONE', 'NONE',  #388 ) ;
#332 = UNCERTAINTY_MEASURE_WITH_UNIT (LENGTH_MEASURE( 1.000000000000000082E-05 ), #172, 'distance_accuracy_value', 'NONE');
#333 = DATE_AND_TIME ( #137, #23 ) ;
#334 = PERSON_AND_ORGANIZATION ( #193, #167 ) ;
#335 = SECURITY_CLASSIFICATION ( '', '', #7 ) ;
#336 = LOCAL_TIME ( 18, 50, 0.000000000000000000, #287 ) ;
#337 = SHAPE_DEFINITION_REPRESENTATION ( #126, #310 ) ;
#338 = APPROVAL_STATUS ( 'not_yet_approved' ) ;
#339 = CC_DESIGN_PERSON_AND_ORGANIZATION_ASSIGNMENT ( #191, #340, ( #246 ) ) ;
#340 = PERSON_AND_ORGANIZATION_ROLE ( 'creator' ) ;
#341 = CC_DESIGN_PERSON_AND_ORGANIZATION_ASSIGNMENT ( #170, #84, ( #10 ) ) ;
#342 = APPROVAL_PERSON_ORGANIZATION ( #300, #43, #69 ) ;
#343 = CARTESIAN_POINT ( 'NONE',  ( 0.000000000000000000, 0.000000000000000000, 0.000000000000000000 ) ) ;
#344 = PERSON_AND_ORGANIZATION_ROLE ( 'creator' ) ;
#345 = PRODUCT_RELATED_PRODUCT_CATEGORY ( 'detail', '', ( #208 ) ) ;
#346 = CARTESIAN_POINT ( 'NONE',  ( 0.000000000000000000, 0.000000000000000000, 0.000000000000000000 ) ) ;
#347 = APPLIED_EXTERNAL_IDENTIFICATION_ASSIGNMENT ( '6325040992.step.STEP' , #58, #255,( #169) ) ;
#348 = CALENDAR_DATE ( 2026, 22, 6 ) ;
#349 = APPLICATION_CONTEXT ( 'configuration controlled 3d designs of mechanical parts and assemblies' ) ;
#350 = COORDINATED_UNIVERSAL_TIME_OFFSET ( 10, 0, .AHEAD. ) ;
#351 = CARTESIAN_POINT ( 'NONE',  ( 0.000000000000000000, 0.000000000000000000, 0.000000000000000000 ) ) ;
#352 = PROPERTY_DEFINITION_REPRESENTATION ( #231, #310 ) ;
#353 = UNCERTAINTY_MEASURE_WITH_UNIT (LENGTH_MEASURE( 1.000000000000000082E-05 ), #50, 'distance_accuracy_value', 'NONE');
#354 = AXIS2_PLACEMENT_3D ( 'NONE', #377, #376, #111 ) ;
#355 = PROPERTY_DEFINITION_REPRESENTATION ( #98, #17 ) ;
#356 = CC_DESIGN_DATE_AND_TIME_ASSIGNMENT ( #333, #187, ( #260 ) ) ;
#357 = DATE_AND_TIME ( #385, #196 ) ;
#358 = DATE_AND_TIME ( #244, #129 ) ;
#359 = APPROVAL_DATE_TIME ( #131, #268 ) ;
#360 = APPLICATION_PROTOCOL_DEFINITION ( 'international standard', 'config_control_design', 1994, #2 ) ;
#361 = CC_DESIGN_APPROVAL ( #43, ( #260 ) ) ;
#362 = DATE_AND_TIME ( #28, #46 ) ;
#363 = PROPERTY_DEFINITION_REPRESENTATION ( #202, #310 ) ;
#364 = APPLICATION_PROTOCOL_DEFINITION ( 'international standard', 'config_control_design', 1994, #283 ) ;
#365 = CALENDAR_DATE ( 2026, 22, 6 ) ;
#366 = LOCAL_TIME ( 18, 50, 0.000000000000000000, #161 ) ;
#367 = APPLIED_EXTERNAL_IDENTIFICATION_ASSIGNMENT ( '6325040992.step.STEP' , #117, #88,( #115) ) ;
#368 = CC_DESIGN_DATE_AND_TIME_ASSIGNMENT ( #39, #217, ( #335 ) ) ;
#369 = MECHANICAL_CONTEXT ( 'NONE', #283, 'mechanical' ) ;
#370 = PERSON_AND_ORGANIZATION ( #18446744073709551615, #18446744073709551615 ) ;
#371 = PERSON ( 'NAUO-PER296', 'UNSPECIFIED', 'UNSPECIFIED', ('UNSPECIFIED'), ('UNSPECIFIED'), ('UNSPECIFIED') ) ;
#372 = ITEM_DEFINED_TRANSFORMATION ( 'NONE', 'NONE', #232,  #273 ) ;
#373 = APPROVAL_PERSON_ORGANIZATION ( #265, #158, #291 ) ;
#374 = LOCAL_TIME ( 18, 50, 0.000000000000000000, #204 ) ;
#375 = DIRECTION ( 'NONE',  ( 1.000000000000000000, 0.000000000000000000, 0.000000000000000000 ) ) ;
#376 = DIRECTION ( 'NONE',  ( 4.890937612370273194E-29, -3.155443620884047222E-30, 0.9999999999999997780 ) ) ;
#377 = CARTESIAN_POINT ( 'NONE',  ( 10.67499642941400317, 18.99999645996100739, -2.458323717116999596 ) ) ;
#378 = COORDINATED_UNIVERSAL_TIME_OFFSET ( 10, 0, .AHEAD. ) ;
#379 = SHAPE_REPRESENTATION ( 'C2.step', ( #62, #232, #354, #381 ), #77 ) ;
#380 = CC_DESIGN_PERSON_AND_ORGANIZATION_ASSIGNMENT ( #321, #210, ( #269 ) ) ;
#381 = AXIS2_PLACEMENT_3D ( 'NONE', #230, #154, #272 ) ;
#382 = SECURITY_CLASSIFICATION_LEVEL ( 'unclassified' ) ;
#383 = DATE_TIME_ROLE ( 'classification_date' ) ;
#384 = PRODUCT ( 'C2.step', 'C2.step', '', ( #315 ) ) ;
#385 = CALENDAR_DATE ( 2026, 22, 6 ) ;
#386 = ITEM_DEFINED_TRANSFORMATION ( 'NONE', 'NONE', #381,  #107 ) ;
#387 = COORDINATED_UNIVERSAL_TIME_OFFSET ( 10, 0, .AHEAD. ) ;
#388 = NEXT_ASSEMBLY_USAGE_OCCURRENCE ( 'NAUO296', ' ', ' ', #78, #246, $ ) ;
#389 = NEXT_ASSEMBLY_USAGE_OCCURRENCE ( 'NAUO297', ' ', ' ', #78, #260, $ ) ;
#390 = NEXT_ASSEMBLY_USAGE_OCCURRENCE ( 'NAUO298', ' ', ' ', #78, #260, $ ) ;
ENDSEC;
END-ISO-10303-21;
