ISO-10303-21;
HEADER;
FILE_DESCRIPTION (( 'STEP AP203' ),
    '1' );
FILE_NAME ('C20.step.STEP',
    '2026-06-22T08:49:59',
    ( 'localuser' ),
    ( '' ),
    'SwSTEP 2.0',
    'SolidWorks 2025',
    '' );
FILE_SCHEMA (( 'CONFIG_CONTROL_DESIGN' ));
ENDSEC;

DATA;
#1 = PERSON_AND_ORGANIZATION_ROLE ( 'classification_officer' ) ;
#2 = DESIGN_CONTEXT ( 'detailed design', #244, 'design' ) ;
#3 = APPLIED_EXTERNAL_IDENTIFICATION_ASSIGNMENT ( '7087915136.step.STEP' , #61, #41,( #211) ) ;
#4 = DATE_TIME_ROLE ( 'classification_date' ) ;
#5 = PRODUCT_DEFINITION ( 'General', '', #150, #88 ) ;
#6 = APPROVAL_STATUS ( 'not_yet_approved' ) ;
#7 = CC_DESIGN_PERSON_AND_ORGANIZATION_ASSIGNMENT ( #116, #1, ( #65 ) ) ;
#8 = SECURITY_CLASSIFICATION_LEVEL ( 'unclassified' ) ;
#9 = AXIS2_PLACEMENT_3D ( 'NONE', #91, #185, #187 ) ;
#10 = APPLIED_EXTERNAL_IDENTIFICATION_ASSIGNMENT ( '7087914976.step.STEP' , #78, #221,( #247) ) ;
#11 = APPLICATION_PROTOCOL_DEFINITION ( 'international standard', 'config_control_design', 1994, #244 ) ;
#12 = CALENDAR_DATE ( 2026, 22, 6 ) ;
#13 = PROPERTY_DEFINITION ('document property','', #211 ) ;
#14 = SHAPE_DEFINITION_REPRESENTATION ( #231, #144 ) ;
#15 = SECURITY_CLASSIFICATION ( '', '', #236 ) ;
#16 = APPROVAL_DATE_TIME ( #288, #219 ) ;
#17 = DOCUMENT_TYPE ( 'geometry' ) ;
#18 = APPROVAL ( #6, 'Coincident' ) ;
#19 = APPROVAL_ROLE ( '' ) ;
#20 = APPROVAL ( #293, 'UNKNOWN' ) ;
#21 = DATE_TIME_ROLE ( 'creation_date' ) ;
#22 = COORDINATED_UNIVERSAL_TIME_OFFSET ( 10, 0, .AHEAD. ) ;
#23 = APPROVAL_PERSON_ORGANIZATION ( #136, #75, #19 ) ;
#24 = APPROVAL_DATE_TIME ( #213, #180 ) ;
#25 = DIRECTION ( 'NONE',  ( 4.890937612370273194E-29, -3.155443620884047222E-30, 0.9999999999999997780 ) ) ;
#26 = CC_DESIGN_PERSON_AND_ORGANIZATION_ASSIGNMENT ( #217, #304, ( #5 ) ) ;
#27 = SECURITY_CLASSIFICATION_LEVEL ( 'unclassified' ) ;
#28 = DIRECTION ( 'NONE',  ( 1.000000000000000222, -1.092455418989176591E-28, 4.890937612370273194E-29 ) ) ;
#29 = APPROVAL ( #184, 'UNKNOWN' ) ;
#30 = APPROVAL_DATE_TIME ( #270, #29 ) ;
#31 =( GEOMETRIC_REPRESENTATION_CONTEXT ( 3 ) GLOBAL_UNCERTAINTY_ASSIGNED_CONTEXT ( ( #124 ) ) GLOBAL_UNIT_ASSIGNED_CONTEXT ( ( #175, #49, #167 ) ) REPRESENTATION_CONTEXT ( 'NONE', 'WORKASPACE' ) );
#32 = APPROVAL_PERSON_ORGANIZATION ( #69, #331, #40 ) ;
#33 = CC_DESIGN_APPROVAL ( #18, ( #375 ) ) ;
#34 = CC_DESIGN_DATE_AND_TIME_ASSIGNMENT ( #254, #334, ( #79 ) ) ;
#35 = CONTEXT_DEPENDENT_SHAPE_REPRESENTATION ( #339, #314 ) ;
#36 = CALENDAR_DATE ( 2026, 22, 6 ) ;
#37 = DIRECTION ( 'NONE',  ( 1.000000000000000000, 0.000000000000000000, 0.000000000000000000 ) ) ;
#38 = PERSON_AND_ORGANIZATION ( #18446744073709551615, #18446744073709551615 ) ;
#39 = CC_DESIGN_PERSON_AND_ORGANIZATION_ASSIGNMENT ( #201, #81, ( #52 ) ) ;
#40 = APPROVAL_ROLE ( '' ) ;
#41 = EXTERNAL_SOURCE (IDENTIFIER('') ) ;
#42 = PERSON_AND_ORGANIZATION_ROLE ( 'creator' ) ;
#43 = APPROVAL_DATE_TIME ( #276, #331 ) ;
#44 = AXIS2_PLACEMENT_3D ( 'NONE', #83, #137, #205 ) ;
#45 = APPROVAL_PERSON_ORGANIZATION ( #194, #18, #340 ) ;
#46 = CC_DESIGN_PERSON_AND_ORGANIZATION_ASSIGNMENT ( #130, #256, ( #79 ) ) ;
#47 = SHAPE_DEFINITION_REPRESENTATION ( #348, #255 ) ;
#48 = CALENDAR_DATE ( 2026, 22, 6 ) ;
#49 =( NAMED_UNIT ( * ) PLANE_ANGLE_UNIT ( ) SI_UNIT ( $, .RADIAN. ) );
#50 = COORDINATED_UNIVERSAL_TIME_OFFSET ( 10, 0, .AHEAD. ) ;
#51 = CC_DESIGN_PERSON_AND_ORGANIZATION_ASSIGNMENT ( #218, #332, ( #375 ) ) ;
#52 = PRODUCT ( '7087914976.step', '7087914976.step', '', ( #262 ) ) ;
#53 =( GEOMETRIC_REPRESENTATION_CONTEXT ( 3 ) GLOBAL_UNCERTAINTY_ASSIGNED_CONTEXT ( ( #153 ) ) GLOBAL_UNIT_ASSIGNED_CONTEXT ( ( #273, #386, #365 ) ) REPRESENTATION_CONTEXT ( 'NONE', 'WORKASPACE' ) );
#54 = DATE_TIME_ROLE ( 'classification_date' ) ;
#55 = PERSON_AND_ORGANIZATION_ROLE ( 'classification_officer' ) ;
#56 = COORDINATED_UNIVERSAL_TIME_OFFSET ( 10, 0, .AHEAD. ) ;
#57 = CALENDAR_DATE ( 2026, 22, 6 ) ;
#58 = LOCAL_TIME ( 18, 49, 59.00000000000000000, #192 ) ;
#59 = PROPERTY_DEFINITION_REPRESENTATION ( #290, #243 ) ;
#60 = APPROVAL_ROLE ( '' ) ;
#61 = IDENTIFICATION_ROLE ( 'external document id and location', $) ;
#62 = ROLE_ASSOCIATION ( #294, #327 ) ;
#63 = CC_DESIGN_DATE_AND_TIME_ASSIGNMENT ( #296, #212, ( #5 ) ) ;
#64 = DATE_TIME_ROLE ( 'classification_date' ) ;
#65 = SECURITY_CLASSIFICATION ( '', '', #27 ) ;
#66 = APPROVAL_ROLE ( '' ) ;
#67 = DATE_AND_TIME ( #12, #252 ) ;
#68 = CC_DESIGN_SECURITY_CLASSIFICATION ( #15, ( #390 ) ) ;
#69 = PERSON_AND_ORGANIZATION ( #18446744073709551615, #18446744073709551615 ) ;
#70 = CALENDAR_DATE ( 2026, 22, 6 ) ;
#71 = DATE_AND_TIME ( #368, #364 ) ;
#72 = PERSON ( 'NAUO-PER238', 'UNSPECIFIED', 'UNSPECIFIED', ('UNSPECIFIED'), ('UNSPECIFIED'), ('UNSPECIFIED') ) ;
#73 = PRODUCT_DEFINITION_FORMATION_WITH_SPECIFIED_SOURCE ( 'Symmetric', '', #52, .NOT_KNOWN. ) ;
#74 = COORDINATED_UNIVERSAL_TIME_OFFSET ( 10, 0, .AHEAD. ) ;
#75 = APPROVAL ( #377, 'Coincident' ) ;
#76 = PERSON_AND_ORGANIZATION_ROLE ( 'classification_officer' ) ;
#77 = DATE_AND_TIME ( #313, #357 ) ;
#78 = IDENTIFICATION_ROLE ( 'external document id and location', $) ;
#79 = SECURITY_CLASSIFICATION ( '', '', #8 ) ;
#80 = LOCAL_TIME ( 18, 49, 59.00000000000000000, #261 ) ;
#81 = PERSON_AND_ORGANIZATION_ROLE ( 'design_owner' ) ;
#82 = ITEM_DEFINED_TRANSFORMATION ( 'NONE', 'NONE', #9,  #44 ) ;
#83 = CARTESIAN_POINT ( 'NONE',  ( 0.000000000000000000, 0.000000000000000000, 0.000000000000000000 ) ) ;
#84 = ROLE_ASSOCIATION ( #101, #358 ) ;
#85 = CC_DESIGN_PERSON_AND_ORGANIZATION_ASSIGNMENT ( #199, #55, ( #95 ) ) ;
#86 = ITEM_DEFINED_TRANSFORMATION ( 'NONE', 'NONE', #274,  #343 ) ;
#87 = CC_DESIGN_APPROVAL ( #338, ( #305 ) ) ;
#88 = DESIGN_CONTEXT ( 'detailed design', #280, 'design' ) ;
#89 = DOCUMENT_FILE ( '7087914976.step.STEP' , '', '', #223, '' ,$ ) ;
#90 = PERSON_AND_ORGANIZATION_ROLE ( 'design_owner' ) ;
#91 = CARTESIAN_POINT ( 'NONE',  ( 11.62928872677700198, 1.179287231444999584, -2.058321952820000078 ) ) ;
#92 = PROPERTY_DEFINITION_REPRESENTATION ( #285, #243 ) ;
#93 = CC_DESIGN_APPROVAL ( #257, ( #5 ) ) ;
#94 = COORDINATED_UNIVERSAL_TIME_OFFSET ( 10, 0, .AHEAD. ) ;
#95 = SECURITY_CLASSIFICATION ( '', '', #197 ) ;
#96 = CALENDAR_DATE ( 2026, 22, 6 ) ;
#97 = CC_DESIGN_PERSON_AND_ORGANIZATION_ASSIGNMENT ( #308, #224, ( #375 ) ) ;
#98 = COORDINATED_UNIVERSAL_TIME_OFFSET ( 10, 0, .AHEAD. ) ;
#99 = CC_DESIGN_PERSON_AND_ORGANIZATION_ASSIGNMENT ( #286, #76, ( #106 ) ) ;
#100 = APPROVAL_STATUS ( 'not_yet_approved' ) ;
#101 = OBJECT_ROLE ('mandatory',$ ) ;
#102 = LOCAL_TIME ( 18, 49, 59.00000000000000000, #22 ) ;
#103 = DATE_AND_TIME ( #157, #195 ) ;
#104 = PERSON_AND_ORGANIZATION ( #18446744073709551615, #18446744073709551615 ) ;
#105 = COORDINATED_UNIVERSAL_TIME_OFFSET ( 10, 0, .AHEAD. ) ;
#106 = SECURITY_CLASSIFICATION ( '', '', #174 ) ;
#107 = PRODUCT_RELATED_PRODUCT_CATEGORY ( 'detail', '', ( #166 ) ) ;
#108 = CALENDAR_DATE ( 2026, 22, 6 ) ;
#109 = CC_DESIGN_DATE_AND_TIME_ASSIGNMENT ( #177, #64, ( #15 ) ) ;
#110 = PRODUCT ( '7087915136.step', '7087915136.step', '', ( #251 ) ) ;
#111 = PERSON_AND_ORGANIZATION ( #18446744073709551615, #18446744073709551615 ) ;
#112 = DATE_AND_TIME ( #48, #209 ) ;
#113 = APPROVAL_PERSON_ORGANIZATION ( #267, #346, #60 ) ;
#114 = APPROVAL_PERSON_ORGANIZATION ( #116, #29, #120 ) ;
#115 = APPROVAL_DATE_TIME ( #354, #168 ) ;
#116 = PERSON_AND_ORGANIZATION ( #72, #190 ) ;
#117 = PROPERTY_DEFINITION_REPRESENTATION ( #366, #243 ) ;
#118 = APPROVAL_STATUS ( 'not_yet_approved' ) ;
#119 = CC_DESIGN_PERSON_AND_ORGANIZATION_ASSIGNMENT ( #165, #345, ( #287 ) ) ;
#120 = APPROVAL_ROLE ( '' ) ;
#121 = APPLICATION_PROTOCOL_DEFINITION ( 'international standard', 'config_control_design', 1994, #182 ) ;
#122 = DOCUMENT_TYPE ( 'geometry' ) ;
#123 = COORDINATED_UNIVERSAL_TIME_OFFSET ( 10, 0, .AHEAD. ) ;
#124 = UNCERTAINTY_MEASURE_WITH_UNIT (LENGTH_MEASURE( 1.000000000000000082E-05 ), #175, 'distance_accuracy_value', 'NONE');
#125 =( GEOMETRIC_REPRESENTATION_CONTEXT ( 3 ) GLOBAL_UNCERTAINTY_ASSIGNED_CONTEXT ( ( #172 ) ) GLOBAL_UNIT_ASSIGNED_CONTEXT ( ( #207, #329, #359 ) ) REPRESENTATION_CONTEXT ( 'NONE', 'WORKASPACE' ) );
#126 = CC_DESIGN_SECURITY_CLASSIFICATION ( #228, ( #375 ) ) ;
#127 = PERSON_AND_ORGANIZATION ( #18446744073709551615, #18446744073709551615 ) ;
#128 = APPROVAL_STATUS ( 'not_yet_approved' ) ;
#129 = CC_DESIGN_PERSON_AND_ORGANIZATION_ASSIGNMENT ( #149, #90, ( #166 ) ) ;
#130 = PERSON_AND_ORGANIZATION ( #18446744073709551615, #18446744073709551615 ) ;
#131 = CC_DESIGN_APPROVAL ( #20, ( #106 ) ) ;
#132 = DATE_AND_TIME ( #96, #58 ) ;
#133 = CALENDAR_DATE ( 2026, 22, 6 ) ;
#134 = APPROVAL_ROLE ( '' ) ;
#135 = LOCAL_TIME ( 18, 49, 59.00000000000000000, #105 ) ;
#136 = PERSON_AND_ORGANIZATION ( #18446744073709551615, #18446744073709551615 ) ;
#137 = DIRECTION ( 'NONE',  ( 0.000000000000000000, 0.000000000000000000, 1.000000000000000000 ) ) ;
#138 = IDENTIFICATION_ROLE ( 'external document id and location', $) ;
#139 = APPLICATION_PROTOCOL_DEFINITION ( 'international standard', 'config_control_design', 1994, #360 ) ;
#140 = APPROVAL_STATUS ( 'not_yet_approved' ) ;
#141 = APPROVAL_PERSON_ORGANIZATION ( #303, #180, #320 ) ;
#142 = PERSON_AND_ORGANIZATION ( #18446744073709551615, #18446744073709551615 ) ;
#143 = APPROVAL_DATE_TIME ( #178, #257 ) ;
#144 = SHAPE_REPRESENTATION ( '7087915136.step', ( #343 ), #125 ) ;
#145 = CC_DESIGN_DATE_AND_TIME_ASSIGNMENT ( #316, #21, ( #287 ) ) ;
#146 = COORDINATED_UNIVERSAL_TIME_OFFSET ( 10, 0, .AHEAD. ) ;
#147 = CALENDAR_DATE ( 2026, 22, 6 ) ;
#148 = DIRECTION ( 'NONE',  ( 1.000000000000000000, 0.000000000000000000, 0.000000000000000000 ) ) ;
#149 = PERSON_AND_ORGANIZATION ( #18446744073709551615, #18446744073709551615 ) ;
#150 = PRODUCT_DEFINITION_FORMATION_WITH_SPECIFIED_SOURCE ( 'Symmetric', '', #166, .NOT_KNOWN. ) ;
#151 = PERSON_AND_ORGANIZATION_ROLE ( 'classification_officer' ) ;
#152 = LOCAL_TIME ( 18, 49, 59.00000000000000000, #146 ) ;
#153 = UNCERTAINTY_MEASURE_WITH_UNIT (LENGTH_MEASURE( 1.000000000000000082E-05 ), #273, 'distance_accuracy_value', 'NONE');
#154 = COORDINATED_UNIVERSAL_TIME_OFFSET ( 10, 0, .AHEAD. ) ;
#155 = CC_DESIGN_PERSON_AND_ORGANIZATION_ASSIGNMENT ( #310, #189, ( #150 ) ) ;
#156 = APPLICATION_CONTEXT ( 'configuration controlled 3d designs of mechanical parts and assemblies' ) ;
#157 = CALENDAR_DATE ( 2026, 22, 6 ) ;
#158 = PERSON_AND_ORGANIZATION ( #18446744073709551615, #18446744073709551615 ) ;
#159 = CC_DESIGN_APPROVAL ( #180, ( #15 ) ) ;
#160 = PERSON ( 'NAUO-PER237', 'UNSPECIFIED', 'UNSPECIFIED', ('UNSPECIFIED'), ('UNSPECIFIED'), ('UNSPECIFIED') ) ;
#161 = COORDINATED_UNIVERSAL_TIME_OFFSET ( 10, 0, .AHEAD. ) ;
#162 = DATE_AND_TIME ( #347, #369 ) ;
#163 = CC_DESIGN_DATE_AND_TIME_ASSIGNMENT ( #71, #370, ( #305 ) ) ;
#164 = PRODUCT_DEFINITION_SHAPE ( 'NONE', 'NONE',  #389 ) ;
#165 = PERSON_AND_ORGANIZATION ( #18446744073709551615, #18446744073709551615 ) ;
#166 = PRODUCT ( 'C20.step', 'C20.step', '', ( #362 ) ) ;
#167 =( NAMED_UNIT ( * ) SI_UNIT ( $, .STERADIAN. ) SOLID_ANGLE_UNIT ( ) );
#168 = APPROVAL ( #140, 'Coincident' ) ;
#169 = APPROVAL_PERSON_ORGANIZATION ( #342, #338, #66 ) ;
#170 = LOCAL_TIME ( 18, 49, 59.00000000000000000, #284 ) ;
#171 = PERSON_AND_ORGANIZATION ( #18446744073709551615, #18446744073709551615 ) ;
#172 = UNCERTAINTY_MEASURE_WITH_UNIT (LENGTH_MEASURE( 1.000000000000000082E-05 ), #207, 'distance_accuracy_value', 'NONE');
#173 = COORDINATED_UNIVERSAL_TIME_OFFSET ( 10, 0, .AHEAD. ) ;
#174 = SECURITY_CLASSIFICATION_LEVEL ( 'unclassified' ) ;
#175 =( LENGTH_UNIT ( ) NAMED_UNIT ( * ) SI_UNIT ( .MILLI., .METRE. ) );
#176 = APPLIED_EXTERNAL_IDENTIFICATION_ASSIGNMENT ( '7087914976.step.STEP' , #138, #202,( #89) ) ;
#177 = DATE_AND_TIME ( #36, #381 ) ;
#178 = DATE_AND_TIME ( #147, #322 ) ;
#179 = APPROVAL_STATUS ( 'not_yet_approved' ) ;
#180 = APPROVAL ( #179, 'UNKNOWN' ) ;
#181 = APPLICATION_PROTOCOL_DEFINITION ( 'international standard', 'config_control_design', 1994, #280 ) ;
#182 = APPLICATION_CONTEXT ( 'configuration controlled 3d designs of mechanical parts and assemblies' ) ;
#183 = APPROVAL_PERSON_ORGANIZATION ( #286, #20, #134 ) ;
#184 = APPROVAL_STATUS ( 'not_yet_approved' ) ;
#185 = DIRECTION ( 'NONE',  ( 4.890937612370273194E-29, -3.155443620884047222E-30, 0.9999999999999997780 ) ) ;
#186 = DATE_TIME_ROLE ( 'classification_date' ) ;
#187 = DIRECTION ( 'NONE',  ( 1.000000000000000222, -1.092455418989176591E-28, 4.890937612370273194E-29 ) ) ;
#188 = APPROVAL_DATE_TIME ( #132, #338 ) ;
#189 = PERSON_AND_ORGANIZATION_ROLE ( 'design_supplier' ) ;
#190 = ORGANIZATION ( 'NAUO-ORG238', 'UNSPECIFIED', 'UNSPECIFIED' ) ;
#191 = CC_DESIGN_PERSON_AND_ORGANIZATION_ASSIGNMENT ( #38, #151, ( #228 ) ) ;
#192 = COORDINATED_UNIVERSAL_TIME_OFFSET ( 10, 0, .AHEAD. ) ;
#193 = DATE_AND_TIME ( #70, #234 ) ;
#194 = PERSON_AND_ORGANIZATION ( #18446744073709551615, #18446744073709551615 ) ;
#195 = LOCAL_TIME ( 18, 49, 59.00000000000000000, #161 ) ;
#196 = CC_DESIGN_PERSON_AND_ORGANIZATION_ASSIGNMENT ( #258, #337, ( #110 ) ) ;
#197 = SECURITY_CLASSIFICATION_LEVEL ( 'unclassified' ) ;
#198 = PRODUCT_DEFINITION_SHAPE ( 'NONE', 'NONE',  #388 ) ;
#199 = PERSON_AND_ORGANIZATION ( #18446744073709551615, #18446744073709551615 ) ;
#200 = PROPERTY_DEFINITION ('external definition','', #211 ) ;
#201 = PERSON_AND_ORGANIZATION ( #18446744073709551615, #18446744073709551615 ) ;
#202 = EXTERNAL_SOURCE (IDENTIFIER('') ) ;
#203 = LOCAL_TIME ( 18, 49, 59.00000000000000000, #225 ) ;
#204 = APPROVAL_ROLE ( '' ) ;
#205 = DIRECTION ( 'NONE',  ( 1.000000000000000000, 0.000000000000000000, 0.000000000000000000 ) ) ;
#206 = COORDINATED_UNIVERSAL_TIME_OFFSET ( 10, 0, .AHEAD. ) ;
#207 =( LENGTH_UNIT ( ) NAMED_UNIT ( * ) SI_UNIT ( .MILLI., .METRE. ) );
#208 = AXIS2_PLACEMENT_3D ( 'NONE', #298, #242, #215 ) ;
#209 = LOCAL_TIME ( 18, 49, 59.00000000000000000, #50 ) ;
#210 = PRODUCT_RELATED_PRODUCT_CATEGORY ( 'detail', '', ( #110 ) ) ;
#211 = DOCUMENT_FILE ( '7087915136.step.STEP' , '', '', #122, '' ,$ ) ;
#212 = DATE_TIME_ROLE ( 'creation_date' ) ;
#213 = DATE_AND_TIME ( #57, #387 ) ;
#214 = CALENDAR_DATE ( 2026, 22, 6 ) ;
#215 = DIRECTION ( 'NONE',  ( 1.000000000000000222, -1.092455418989176591E-28, 4.890937612370273194E-29 ) ) ;
#216 = ORGANIZATION ( 'NAUO-ORG239', 'UNSPECIFIED', 'UNSPECIFIED' ) ;
#217 = PERSON_AND_ORGANIZATION ( #18446744073709551615, #18446744073709551615 ) ;
#218 = PERSON_AND_ORGANIZATION ( #18446744073709551615, #18446744073709551615 ) ;
#219 = APPROVAL ( #248, 'Coincident' ) ;
#220 = CALENDAR_DATE ( 2026, 22, 6 ) ;
#221 = EXTERNAL_SOURCE (IDENTIFIER('') ) ;
#222 = COORDINATED_UNIVERSAL_TIME_OFFSET ( 10, 0, .AHEAD. ) ;
#223 = DOCUMENT_TYPE ( 'geometry' ) ;
#224 = PERSON_AND_ORGANIZATION_ROLE ( 'design_supplier' ) ;
#225 = COORDINATED_UNIVERSAL_TIME_OFFSET ( 10, 0, .AHEAD. ) ;
#226 = DATE_AND_TIME ( #108, #102 ) ;
#227 = APPROVAL_PERSON_ORGANIZATION ( #142, #355, #204 ) ;
#228 = SECURITY_CLASSIFICATION ( '', '', #306 ) ;
#229 = CC_DESIGN_PERSON_AND_ORGANIZATION_ASSIGNMENT ( #319, #351, ( #73 ) ) ;
#230 = APPROVAL_DATE_TIME ( #162, #20 ) ;
#231 = PRODUCT_DEFINITION_SHAPE ( 'NONE', 'NONE',  #305 ) ;
#232 = APPROVAL_STATUS ( 'not_yet_approved' ) ;
#233 = PERSON_AND_ORGANIZATION_ROLE ( 'creator' ) ;
#234 = LOCAL_TIME ( 18, 49, 59.00000000000000000, #154 ) ;
#235 = SHAPE_DEFINITION_REPRESENTATION ( #259, #243 ) ;
#236 = SECURITY_CLASSIFICATION_LEVEL ( 'unclassified' ) ;
#237 = CC_DESIGN_PERSON_AND_ORGANIZATION_ASSIGNMENT ( #158, #312, ( #305 ) ) ;
#238 = DIRECTION ( 'NONE',  ( 0.000000000000000000, 0.000000000000000000, 1.000000000000000000 ) ) ;
#239 = APPROVAL_PERSON_ORGANIZATION ( #171, #168, #264 ) ;
#240 = PRODUCT_RELATED_PRODUCT_CATEGORY ( 'detail', '', ( #52 ) ) ;
#241 = APPLIED_DOCUMENT_REFERENCE ( #89,'',( #287) ) ;
#242 = DIRECTION ( 'NONE',  ( 4.890937612370273194E-29, -3.155443620884047222E-30, 0.9999999999999997780 ) ) ;
#243 = SHAPE_REPRESENTATION ( '7087914976.step', ( #44 ), #31 ) ;
#244 = APPLICATION_CONTEXT ( 'configuration controlled 3d designs of mechanical parts and assemblies' ) ;
#245 = CALENDAR_DATE ( 2026, 22, 6 ) ;
#246 = CC_DESIGN_SECURITY_CLASSIFICATION ( #95, ( #73 ) ) ;
#247 = DOCUMENT_FILE ( '7087914976.step.STEP' , '', '', #17, '' ,$ ) ;
#248 = APPROVAL_STATUS ( 'not_yet_approved' ) ;
#249 = PROPERTY_DEFINITION ('external definition','', #247 ) ;
#250 = CC_DESIGN_DATE_AND_TIME_ASSIGNMENT ( #356, #186, ( #65 ) ) ;
#251 = MECHANICAL_CONTEXT ( 'NONE', #156, 'mechanical' ) ;
#252 = LOCAL_TIME ( 18, 49, 59.00000000000000000, #371 ) ;
#253 = APPROVAL_PERSON_ORGANIZATION ( #127, #219, #367 ) ;
#254 = DATE_AND_TIME ( #133, #203 ) ;
#255 = SHAPE_REPRESENTATION ( 'C20.step', ( #335, #9, #208, #274 ), #53 ) ;
#256 = PERSON_AND_ORGANIZATION_ROLE ( 'classification_officer' ) ;
#257 = APPROVAL ( #118, 'Coincident' ) ;
#258 = PERSON_AND_ORGANIZATION ( #18446744073709551615, #18446744073709551615 ) ;
#259 = PRODUCT_DEFINITION_SHAPE ( 'NONE', 'NONE',  #287 ) ;
#260 = DATE_TIME_ROLE ( 'classification_date' ) ;
#261 = COORDINATED_UNIVERSAL_TIME_OFFSET ( 10, 0, .AHEAD. ) ;
#262 = MECHANICAL_CONTEXT ( 'NONE', #360, 'mechanical' ) ;
#263 =( REPRESENTATION_RELATIONSHIP ('NONE','NONE', #255, #243 ) REPRESENTATION_RELATIONSHIP_WITH_TRANSFORMATION ( #385 )SHAPE_REPRESENTATION_RELATIONSHIP( ) );
#264 = APPROVAL_ROLE ( '' ) ;
#265 = CC_DESIGN_APPROVAL ( #219, ( #228 ) ) ;
#266 = ROLE_ASSOCIATION ( #318, #241 ) ;
#267 = PERSON_AND_ORGANIZATION ( #18446744073709551615, #18446744073709551615 ) ;
#268 = PROPERTY_DEFINITION_REPRESENTATION ( #200, #144 ) ;
#269 = CC_DESIGN_APPROVAL ( #331, ( #79 ) ) ;
#270 = DATE_AND_TIME ( #214, #344 ) ;
#271 = COORDINATED_UNIVERSAL_TIME_OFFSET ( 10, 0, .AHEAD. ) ;
#272 = PERSON_AND_ORGANIZATION_ROLE ( 'classification_officer' ) ;
#273 =( LENGTH_UNIT ( ) NAMED_UNIT ( * ) SI_UNIT ( .MILLI., .METRE. ) );
#274 = AXIS2_PLACEMENT_3D ( 'NONE', #300, #25, #28 ) ;
#275 = CC_DESIGN_APPROVAL ( #355, ( #287 ) ) ;
#276 = DATE_AND_TIME ( #278, #170 ) ;
#277 = CC_DESIGN_DATE_AND_TIME_ASSIGNMENT ( #193, #4, ( #228 ) ) ;
#278 = CALENDAR_DATE ( 2026, 22, 6 ) ;
#279 = APPROVAL_DATE_TIME ( #67, #346 ) ;
#280 = APPLICATION_CONTEXT ( 'configuration controlled 3d designs of mechanical parts and assemblies' ) ;
#281 = APPROVAL_PERSON_ORGANIZATION ( #321, #257, #330 ) ;
#282 = CC_DESIGN_SECURITY_CLASSIFICATION ( #65, ( #389 ) ) ;
#283 = APPLICATION_PROTOCOL_DEFINITION ( 'international standard', 'config_control_design', 1994, #156 ) ;
#284 = COORDINATED_UNIVERSAL_TIME_OFFSET ( 10, 0, .AHEAD. ) ;
#285 = PROPERTY_DEFINITION ('document property','', #89 ) ;
#286 = PERSON_AND_ORGANIZATION ( #160, #353 ) ;
#287 = PRODUCT_DEFINITION ( 'General', '', #73, #361 ) ;
#288 = DATE_AND_TIME ( #220, #323 ) ;
#289 = CC_DESIGN_PERSON_AND_ORGANIZATION_ASSIGNMENT ( #303, #272, ( #15 ) ) ;
#290 = PROPERTY_DEFINITION ('external definition','', #89 ) ;
#291 = APPLICATION_PROTOCOL_DEFINITION ( 'international standard', 'config_control_design', 1994, #350 ) ;
#292 = APPROVAL_DATE_TIME ( #378, #355 ) ;
#293 = APPROVAL_STATUS ( 'not_yet_approved' ) ;
#294 = OBJECT_ROLE ('mandatory',$ ) ;
#295 = CC_DESIGN_SECURITY_CLASSIFICATION ( #79, ( #150 ) ) ;
#296 = DATE_AND_TIME ( #245, #363 ) ;
#297 = COORDINATED_UNIVERSAL_TIME_OFFSET ( 10, 0, .AHEAD. ) ;
#298 = CARTESIAN_POINT ( 'NONE',  ( 12.33639245602500445, 1.886394775391000866, -2.058321952819998302 ) ) ;
#299 = CALENDAR_DATE ( 2026, 22, 6 ) ;
#300 = CARTESIAN_POINT ( 'NONE',  ( 11.98284249875000285, 1.532841003418002002, -2.058321952820000078 ) ) ;
#301 =( REPRESENTATION_RELATIONSHIP ('NONE','NONE', #255, #243 ) REPRESENTATION_RELATIONSHIP_WITH_TRANSFORMATION ( #82 )SHAPE_REPRESENTATION_RELATIONSHIP( ) );
#302 = LOCAL_TIME ( 18, 49, 59.00000000000000000, #173 ) ;
#303 = PERSON_AND_ORGANIZATION ( #383, #216 ) ;
#304 = PERSON_AND_ORGANIZATION_ROLE ( 'creator' ) ;
#305 = PRODUCT_DEFINITION ( 'General', '', #375, #2 ) ;
#306 = SECURITY_CLASSIFICATION_LEVEL ( 'unclassified' ) ;
#307 = CC_DESIGN_APPROVAL ( #75, ( #73 ) ) ;
#308 = PERSON_AND_ORGANIZATION ( #18446744073709551615, #18446744073709551615 ) ;
#309 = APPROVAL_DATE_TIME ( #103, #18 ) ;
#310 = PERSON_AND_ORGANIZATION ( #18446744073709551615, #18446744073709551615 ) ;
#311 = CC_DESIGN_APPROVAL ( #168, ( #95 ) ) ;
#312 = PERSON_AND_ORGANIZATION_ROLE ( 'creator' ) ;
#313 = CALENDAR_DATE ( 2026, 22, 6 ) ;
#314 = PRODUCT_DEFINITION_SHAPE ( 'NONE', 'NONE',  #390 ) ;
#315 = CALENDAR_DATE ( 2026, 22, 6 ) ;
#316 = DATE_AND_TIME ( #352, #302 ) ;
#317 = CC_DESIGN_SECURITY_CLASSIFICATION ( #106, ( #388 ) ) ;
#318 = OBJECT_ROLE ('mandatory',$ ) ;
#319 = PERSON_AND_ORGANIZATION ( #18446744073709551615, #18446744073709551615 ) ;
#320 = APPROVAL_ROLE ( '' ) ;
#321 = PERSON_AND_ORGANIZATION ( #18446744073709551615, #18446744073709551615 ) ;
#322 = LOCAL_TIME ( 18, 49, 59.00000000000000000, #94 ) ;
#323 = LOCAL_TIME ( 18, 49, 59.00000000000000000, #98 ) ;
#324 = PROPERTY_DEFINITION_REPRESENTATION ( #13, #144 ) ;
#325 = CC_DESIGN_PERSON_AND_ORGANIZATION_ASSIGNMENT ( #111, #233, ( #73 ) ) ;
#326 = APPROVAL_STATUS ( 'not_yet_approved' ) ;
#327 = APPLIED_DOCUMENT_REFERENCE ( #211,'',( #305) ) ;
#328 = CONTEXT_DEPENDENT_SHAPE_REPRESENTATION ( #263, #164 ) ;
#329 =( NAMED_UNIT ( * ) PLANE_ANGLE_UNIT ( ) SI_UNIT ( $, .RADIAN. ) );
#330 = APPROVAL_ROLE ( '' ) ;
#331 = APPROVAL ( #128, 'Coincident' ) ;
#332 = PERSON_AND_ORGANIZATION_ROLE ( 'creator' ) ;
#333 = CC_DESIGN_DATE_AND_TIME_ASSIGNMENT ( #77, #54, ( #95 ) ) ;
#334 = DATE_TIME_ROLE ( 'classification_date' ) ;
#335 = AXIS2_PLACEMENT_3D ( 'NONE', #379, #238, #37 ) ;
#336 = CC_DESIGN_APPROVAL ( #29, ( #65 ) ) ;
#337 = PERSON_AND_ORGANIZATION_ROLE ( 'design_owner' ) ;
#338 = APPROVAL ( #100, 'Coincident' ) ;
#339 =( REPRESENTATION_RELATIONSHIP ('NONE','NONE', #255, #144 ) REPRESENTATION_RELATIONSHIP_WITH_TRANSFORMATION ( #86 )SHAPE_REPRESENTATION_RELATIONSHIP( ) );
#340 = APPROVAL_ROLE ( '' ) ;
#341 = CC_DESIGN_DATE_AND_TIME_ASSIGNMENT ( #226, #260, ( #106 ) ) ;
#342 = PERSON_AND_ORGANIZATION ( #18446744073709551615, #18446744073709551615 ) ;
#343 = AXIS2_PLACEMENT_3D ( 'NONE', #349, #382, #148 ) ;
#344 = LOCAL_TIME ( 18, 49, 59.00000000000000000, #206 ) ;
#345 = PERSON_AND_ORGANIZATION_ROLE ( 'creator' ) ;
#346 = APPROVAL ( #326, 'Coincident' ) ;
#347 = CALENDAR_DATE ( 2026, 22, 6 ) ;
#348 = PRODUCT_DEFINITION_SHAPE ( 'NONE', 'NONE',  #5 ) ;
#349 = CARTESIAN_POINT ( 'NONE',  ( 0.000000000000000000, 0.000000000000000000, 0.000000000000000000 ) ) ;
#350 = APPLICATION_CONTEXT ( 'configuration controlled 3d designs of mechanical parts and assemblies' ) ;
#351 = PERSON_AND_ORGANIZATION_ROLE ( 'design_supplier' ) ;
#352 = CALENDAR_DATE ( 2026, 22, 6 ) ;
#353 = ORGANIZATION ( 'NAUO-ORG237', 'UNSPECIFIED', 'UNSPECIFIED' ) ;
#354 = DATE_AND_TIME ( #380, #135 ) ;
#355 = APPROVAL ( #232, 'Coincident' ) ;
#356 = DATE_AND_TIME ( #299, #152 ) ;
#357 = LOCAL_TIME ( 18, 49, 59.00000000000000000, #56 ) ;
#358 = APPLIED_DOCUMENT_REFERENCE ( #247,'',( #287) ) ;
#359 =( NAMED_UNIT ( * ) SI_UNIT ( $, .STERADIAN. ) SOLID_ANGLE_UNIT ( ) );
#360 = APPLICATION_CONTEXT ( 'configuration controlled 3d designs of mechanical parts and assemblies' ) ;
#361 = DESIGN_CONTEXT ( 'detailed design', #350, 'design' ) ;
#362 = MECHANICAL_CONTEXT ( 'NONE', #182, 'mechanical' ) ;
#363 = LOCAL_TIME ( 18, 49, 59.00000000000000000, #271 ) ;
#364 = LOCAL_TIME ( 18, 49, 59.00000000000000000, #222 ) ;
#365 =( NAMED_UNIT ( * ) SI_UNIT ( $, .STERADIAN. ) SOLID_ANGLE_UNIT ( ) );
#366 = PROPERTY_DEFINITION ('document property','', #247 ) ;
#367 = APPROVAL_ROLE ( '' ) ;
#368 = CALENDAR_DATE ( 2026, 22, 6 ) ;
#369 = LOCAL_TIME ( 18, 49, 59.00000000000000000, #74 ) ;
#370 = DATE_TIME_ROLE ( 'creation_date' ) ;
#371 = COORDINATED_UNIVERSAL_TIME_OFFSET ( 10, 0, .AHEAD. ) ;
#372 = APPROVAL_DATE_TIME ( #112, #75 ) ;
#373 = CC_DESIGN_PERSON_AND_ORGANIZATION_ASSIGNMENT ( #104, #42, ( #150 ) ) ;
#374 = CC_DESIGN_APPROVAL ( #346, ( #150 ) ) ;
#375 = PRODUCT_DEFINITION_FORMATION_WITH_SPECIFIED_SOURCE ( 'Symmetric', '', #110, .NOT_KNOWN. ) ;
#376 = CONTEXT_DEPENDENT_SHAPE_REPRESENTATION ( #301, #198 ) ;
#377 = APPROVAL_STATUS ( 'not_yet_approved' ) ;
#378 = DATE_AND_TIME ( #315, #80 ) ;
#379 = CARTESIAN_POINT ( 'NONE',  ( 0.000000000000000000, 0.000000000000000000, 0.000000000000000000 ) ) ;
#380 = CALENDAR_DATE ( 2026, 22, 6 ) ;
#381 = LOCAL_TIME ( 18, 49, 59.00000000000000000, #297 ) ;
#382 = DIRECTION ( 'NONE',  ( 0.000000000000000000, 0.000000000000000000, 1.000000000000000000 ) ) ;
#383 = PERSON ( 'NAUO-PER239', 'UNSPECIFIED', 'UNSPECIFIED', ('UNSPECIFIED'), ('UNSPECIFIED'), ('UNSPECIFIED') ) ;
#384 = PROPERTY_DEFINITION_REPRESENTATION ( #249, #243 ) ;
#385 = ITEM_DEFINED_TRANSFORMATION ( 'NONE', 'NONE', #208,  #44 ) ;
#386 =( NAMED_UNIT ( * ) PLANE_ANGLE_UNIT ( ) SI_UNIT ( $, .RADIAN. ) );
#387 = LOCAL_TIME ( 18, 49, 59.00000000000000000, #123 ) ;
#388 = NEXT_ASSEMBLY_USAGE_OCCURRENCE ( 'NAUO237', ' ', ' ', #5, #287, $ ) ;
#389 = NEXT_ASSEMBLY_USAGE_OCCURRENCE ( 'NAUO238', ' ', ' ', #5, #287, $ ) ;
#390 = NEXT_ASSEMBLY_USAGE_OCCURRENCE ( 'NAUO239', ' ', ' ', #5, #305, $ ) ;
ENDSEC;
END-ISO-10303-21;
