ISO-10303-21;
HEADER;
FILE_DESCRIPTION (( 'STEP AP203' ),
    '1' );
FILE_NAME ('C21.step.STEP',
    '2026-06-22T08:49:58',
    ( 'localuser' ),
    ( '' ),
    'SwSTEP 2.0',
    'SolidWorks 2025',
    '' );
FILE_SCHEMA (( 'CONFIG_CONTROL_DESIGN' ));
ENDSEC;

DATA;
#1 = PERSON_AND_ORGANIZATION ( #18446744073709551615, #18446744073709551615 ) ;
#2 = CC_DESIGN_PERSON_AND_ORGANIZATION_ASSIGNMENT ( #329, #181, ( #307 ) ) ;
#3 = CONTEXT_DEPENDENT_SHAPE_REPRESENTATION ( #158, #106 ) ;
#4 = PERSON_AND_ORGANIZATION_ROLE ( 'creator' ) ;
#5 = ORGANIZATION ( 'NAUO-ORG206', 'UNSPECIFIED', 'UNSPECIFIED' ) ;
#6 = APPROVAL_DATE_TIME ( #343, #73 ) ;
#7 = DIRECTION ( 'NONE',  ( 4.890937612370273194E-29, -3.155443620884047222E-30, 0.9999999999999997780 ) ) ;
#8 = APPROVAL ( #171, 'Coincident' ) ;
#9 = DIRECTION ( 'NONE',  ( 0.000000000000000000, 0.000000000000000000, 1.000000000000000000 ) ) ;
#10 = APPROVAL_PERSON_ORGANIZATION ( #345, #59, #107 ) ;
#11 = COORDINATED_UNIVERSAL_TIME_OFFSET ( 10, 0, .AHEAD. ) ;
#12 = SECURITY_CLASSIFICATION_LEVEL ( 'unclassified' ) ;
#13 = APPROVAL_STATUS ( 'not_yet_approved' ) ;
#14 = DATE_TIME_ROLE ( 'creation_date' ) ;
#15 = APPROVAL_PERSON_ORGANIZATION ( #325, #323, #362 ) ;
#16 = CALENDAR_DATE ( 2026, 22, 6 ) ;
#17 = APPLICATION_CONTEXT ( 'configuration controlled 3d designs of mechanical parts and assemblies' ) ;
#18 = CALENDAR_DATE ( 2026, 22, 6 ) ;
#19 = PERSON_AND_ORGANIZATION_ROLE ( 'classification_officer' ) ;
#20 = CC_DESIGN_APPROVAL ( #73, ( #341 ) ) ;
#21 = APPROVAL_ROLE ( '' ) ;
#22 = SHAPE_REPRESENTATION ( 'C21.step', ( #368, #147, #337, #169 ), #284 ) ;
#23 = PRODUCT_RELATED_PRODUCT_CATEGORY ( 'detail', '', ( #228 ) ) ;
#24 = PERSON_AND_ORGANIZATION_ROLE ( 'classification_officer' ) ;
#25 = SECURITY_CLASSIFICATION_LEVEL ( 'unclassified' ) ;
#26 = LOCAL_TIME ( 18, 49, 58.00000000000000000, #39 ) ;
#27 = LOCAL_TIME ( 18, 49, 58.00000000000000000, #198 ) ;
#28 = LOCAL_TIME ( 18, 49, 58.00000000000000000, #87 ) ;
#29 = CC_DESIGN_PERSON_AND_ORGANIZATION_ASSIGNMENT ( #46, #70, ( #228 ) ) ;
#30 = ITEM_DEFINED_TRANSFORMATION ( 'NONE', 'NONE', #337,  #154 ) ;
#31 = CC_DESIGN_DATE_AND_TIME_ASSIGNMENT ( #369, #191, ( #170 ) ) ;
#32 = APPROVAL_STATUS ( 'not_yet_approved' ) ;
#33 = CC_DESIGN_DATE_AND_TIME_ASSIGNMENT ( #42, #340, ( #102 ) ) ;
#34 = PERSON_AND_ORGANIZATION_ROLE ( 'creator' ) ;
#35 = CC_DESIGN_APPROVAL ( #130, ( #76 ) ) ;
#36 = PERSON_AND_ORGANIZATION ( #18446744073709551615, #18446744073709551615 ) ;
#37 =( REPRESENTATION_RELATIONSHIP ('NONE','NONE', #22, #85 ) REPRESENTATION_RELATIONSHIP_WITH_TRANSFORMATION ( #30 )SHAPE_REPRESENTATION_RELATIONSHIP( ) );
#38 = PERSON_AND_ORGANIZATION ( #385, #320 ) ;
#39 = COORDINATED_UNIVERSAL_TIME_OFFSET ( 10, 0, .AHEAD. ) ;
#40 = CC_DESIGN_PERSON_AND_ORGANIZATION_ASSIGNMENT ( #282, #128, ( #127 ) ) ;
#41 = CALENDAR_DATE ( 2026, 22, 6 ) ;
#42 = DATE_AND_TIME ( #367, #71 ) ;
#43 = APPROVAL_PERSON_ORGANIZATION ( #322, #64, #289 ) ;
#44 = CC_DESIGN_SECURITY_CLASSIFICATION ( #307, ( #388 ) ) ;
#45 = DATE_AND_TIME ( #319, #237 ) ;
#46 = PERSON_AND_ORGANIZATION ( #18446744073709551615, #18446744073709551615 ) ;
#47 = PRODUCT ( 'C21.step', 'C21.step', '', ( #306 ) ) ;
#48 = CC_DESIGN_APPROVAL ( #173, ( #170 ) ) ;
#49 = APPROVAL_DATE_TIME ( #45, #64 ) ;
#50 = COORDINATED_UNIVERSAL_TIME_OFFSET ( 10, 0, .AHEAD. ) ;
#51 = COORDINATED_UNIVERSAL_TIME_OFFSET ( 10, 0, .AHEAD. ) ;
#52 = LOCAL_TIME ( 18, 49, 58.00000000000000000, #271 ) ;
#53 = SECURITY_CLASSIFICATION_LEVEL ( 'unclassified' ) ;
#54 = SHAPE_DEFINITION_REPRESENTATION ( #167, #270 ) ;
#55 = APPLICATION_CONTEXT ( 'configuration controlled 3d designs of mechanical parts and assemblies' ) ;
#56 = COORDINATED_UNIVERSAL_TIME_OFFSET ( 10, 0, .AHEAD. ) ;
#57 = PROPERTY_DEFINITION_REPRESENTATION ( #363, #270 ) ;
#58 = PRODUCT_DEFINITION_FORMATION_WITH_SPECIFIED_SOURCE ( 'Symmetric', '', #228, .NOT_KNOWN. ) ;
#59 = APPROVAL ( #197, 'Coincident' ) ;
#60 = ROLE_ASSOCIATION ( #281, #304 ) ;
#61 = PROPERTY_DEFINITION_REPRESENTATION ( #376, #85 ) ;
#62 = COORDINATED_UNIVERSAL_TIME_OFFSET ( 10, 0, .AHEAD. ) ;
#63 = CC_DESIGN_APPROVAL ( #251, ( #326 ) ) ;
#64 = APPROVAL ( #72, 'Coincident' ) ;
#65 = APPROVAL_ROLE ( '' ) ;
#66 = DIRECTION ( 'NONE',  ( 1.000000000000000222, -1.092455418989176591E-28, 4.890937612370273194E-29 ) ) ;
#67 = APPLICATION_PROTOCOL_DEFINITION ( 'international standard', 'config_control_design', 1994, #55 ) ;
#68 = APPLICATION_PROTOCOL_DEFINITION ( 'international standard', 'config_control_design', 1994, #94 ) ;
#69 = DOCUMENT_TYPE ( 'geometry' ) ;
#70 = PERSON_AND_ORGANIZATION_ROLE ( 'design_owner' ) ;
#71 = LOCAL_TIME ( 18, 49, 58.00000000000000000, #309 ) ;
#72 = APPROVAL_STATUS ( 'not_yet_approved' ) ;
#73 = APPROVAL ( #13, 'Coincident' ) ;
#74 = UNCERTAINTY_MEASURE_WITH_UNIT (LENGTH_MEASURE( 1.000000000000000082E-05 ), #208, 'distance_accuracy_value', 'NONE');
#75 = PERSON_AND_ORGANIZATION_ROLE ( 'creator' ) ;
#76 = PRODUCT_DEFINITION ( 'General', '', #125, #80 ) ;
#77 = DATE_AND_TIME ( #380, #243 ) ;
#78 = APPROVAL_PERSON_ORGANIZATION ( #95, #183, #250 ) ;
#79 = SECURITY_CLASSIFICATION ( '', '', #53 ) ;
#80 = DESIGN_CONTEXT ( 'detailed design', #94, 'design' ) ;
#81 = PERSON_AND_ORGANIZATION_ROLE ( 'design_supplier' ) ;
#82 = DIRECTION ( 'NONE',  ( 0.000000000000000000, 0.000000000000000000, 1.000000000000000000 ) ) ;
#83 = DATE_AND_TIME ( #299, #231 ) ;
#84 = APPROVAL_DATE_TIME ( #83, #251 ) ;
#85 = SHAPE_REPRESENTATION ( '6461079856.step', ( #154 ), #207 ) ;
#86 = LOCAL_TIME ( 18, 49, 58.00000000000000000, #62 ) ;
#87 = COORDINATED_UNIVERSAL_TIME_OFFSET ( 10, 0, .AHEAD. ) ;
#88 = APPROVAL_PERSON_ORGANIZATION ( #329, #213, #149 ) ;
#89 = APPROVAL_ROLE ( '' ) ;
#90 = DIRECTION ( 'NONE',  ( 1.000000000000000000, 0.000000000000000000, 0.000000000000000000 ) ) ;
#91 = CC_DESIGN_PERSON_AND_ORGANIZATION_ASSIGNMENT ( #180, #145, ( #326 ) ) ;
#92 = APPLICATION_PROTOCOL_DEFINITION ( 'international standard', 'config_control_design', 1994, #118 ) ;
#93 = CONTEXT_DEPENDENT_SHAPE_REPRESENTATION ( #339, #136 ) ;
#94 = APPLICATION_CONTEXT ( 'configuration controlled 3d designs of mechanical parts and assemblies' ) ;
#95 = PERSON_AND_ORGANIZATION ( #18446744073709551615, #18446744073709551615 ) ;
#96 = LOCAL_TIME ( 18, 49, 58.00000000000000000, #132 ) ;
#97 =( NAMED_UNIT ( * ) SI_UNIT ( $, .STERADIAN. ) SOLID_ANGLE_UNIT ( ) );
#98 = PROPERTY_DEFINITION_REPRESENTATION ( #196, #85 ) ;
#99 = CC_DESIGN_PERSON_AND_ORGANIZATION_ASSIGNMENT ( #325, #24, ( #79 ) ) ;
#100 = DATE_AND_TIME ( #364, #214 ) ;
#101 = DIRECTION ( 'NONE',  ( 1.000000000000000222, -1.092455418989176591E-28, 4.890937612370273194E-29 ) ) ;
#102 = PRODUCT_DEFINITION ( 'General', '', #127, #298 ) ;
#103 = APPROVAL_PERSON_ORGANIZATION ( #172, #119, #134 ) ;
#104 = PERSON_AND_ORGANIZATION ( #18446744073709551615, #18446744073709551615 ) ;
#105 = CC_DESIGN_PERSON_AND_ORGANIZATION_ASSIGNMENT ( #233, #19, ( #176 ) ) ;
#106 = PRODUCT_DEFINITION_SHAPE ( 'NONE', 'NONE',  #388 ) ;
#107 = APPROVAL_ROLE ( '' ) ;
#108 = CC_DESIGN_PERSON_AND_ORGANIZATION_ASSIGNMENT ( #350, #254, ( #47 ) ) ;
#109 = DATE_TIME_ROLE ( 'classification_date' ) ;
#110 = APPROVAL_PERSON_ORGANIZATION ( #156, #288, #65 ) ;
#111 = DIRECTION ( 'NONE',  ( 1.000000000000000000, 0.000000000000000000, 0.000000000000000000 ) ) ;
#112 = CC_DESIGN_APPROVAL ( #119, ( #58 ) ) ;
#113 = COORDINATED_UNIVERSAL_TIME_OFFSET ( 10, 0, .AHEAD. ) ;
#114 = PERSON_AND_ORGANIZATION ( #18446744073709551615, #18446744073709551615 ) ;
#115 = DATE_TIME_ROLE ( 'classification_date' ) ;
#116 = DOCUMENT_TYPE ( 'geometry' ) ;
#117 = DATE_AND_TIME ( #199, #52 ) ;
#118 = APPLICATION_CONTEXT ( 'configuration controlled 3d designs of mechanical parts and assemblies' ) ;
#119 = APPROVAL ( #294, 'Coincident' ) ;
#120 = DOCUMENT_FILE ( '6461079856.step.STEP' , '', '', #69, '' ,$ ) ;
#121 = PERSON_AND_ORGANIZATION ( #18446744073709551615, #18446744073709551615 ) ;
#122 = CC_DESIGN_APPROVAL ( #288, ( #127 ) ) ;
#123 = COORDINATED_UNIVERSAL_TIME_OFFSET ( 10, 0, .AHEAD. ) ;
#124 = CC_DESIGN_DATE_AND_TIME_ASSIGNMENT ( #349, #290, ( #76 ) ) ;
#125 = PRODUCT_DEFINITION_FORMATION_WITH_SPECIFIED_SOURCE ( 'Symmetric', '', #195, .NOT_KNOWN. ) ;
#126 = SHAPE_DEFINITION_REPRESENTATION ( #255, #22 ) ;
#127 = PRODUCT_DEFINITION_FORMATION_WITH_SPECIFIED_SOURCE ( 'Symmetric', '', #47, .NOT_KNOWN. ) ;
#128 = PERSON_AND_ORGANIZATION_ROLE ( 'creator' ) ;
#129 = APPROVAL_PERSON_ORGANIZATION ( #38, #173, #89 ) ;
#130 = APPROVAL ( #262, 'Coincident' ) ;
#131 = APPROVAL_DATE_TIME ( #157, #288 ) ;
#132 = COORDINATED_UNIVERSAL_TIME_OFFSET ( 10, 0, .AHEAD. ) ;
#133 = COORDINATED_UNIVERSAL_TIME_OFFSET ( 10, 0, .AHEAD. ) ;
#134 = APPROVAL_ROLE ( '' ) ;
#135 = LOCAL_TIME ( 18, 49, 58.00000000000000000, #267 ) ;
#136 = PRODUCT_DEFINITION_SHAPE ( 'NONE', 'NONE',  #390 ) ;
#137 = CALENDAR_DATE ( 2026, 22, 6 ) ;
#138 = APPLICATION_CONTEXT ( 'configuration controlled 3d designs of mechanical parts and assemblies' ) ;
#139 = DATE_AND_TIME ( #18, #225 ) ;
#140 = CC_DESIGN_DATE_AND_TIME_ASSIGNMENT ( #338, #115, ( #307 ) ) ;
#141 = COORDINATED_UNIVERSAL_TIME_OFFSET ( 10, 0, .AHEAD. ) ;
#142 = CARTESIAN_POINT ( 'NONE',  ( 0.000000000000000000, 0.000000000000000000, 0.000000000000000000 ) ) ;
#143 = PERSON_AND_ORGANIZATION_ROLE ( 'design_owner' ) ;
#144 =( LENGTH_UNIT ( ) NAMED_UNIT ( * ) SI_UNIT ( .MILLI., .METRE. ) );
#145 = PERSON_AND_ORGANIZATION_ROLE ( 'classification_officer' ) ;
#146 = COORDINATED_UNIVERSAL_TIME_OFFSET ( 10, 0, .AHEAD. ) ;
#147 = AXIS2_PLACEMENT_3D ( 'NONE', #175, #268, #66 ) ;
#148 = APPLIED_EXTERNAL_IDENTIFICATION_ASSIGNMENT ( '6461079856.step.STEP' , #365, #346,( #220) ) ;
#149 = APPROVAL_ROLE ( '' ) ;
#150 = CC_DESIGN_DATE_AND_TIME_ASSIGNMENT ( #100, #223, ( #341 ) ) ;
#151 = DATE_AND_TIME ( #185, #28 ) ;
#152 = CC_DESIGN_PERSON_AND_ORGANIZATION_ASSIGNMENT ( #386, #143, ( #195 ) ) ;
#153 = ITEM_DEFINED_TRANSFORMATION ( 'NONE', 'NONE', #147,  #277 ) ;
#154 = AXIS2_PLACEMENT_3D ( 'NONE', #272, #266, #90 ) ;
#155 = APPLIED_EXTERNAL_IDENTIFICATION_ASSIGNMENT ( '6534431024.step.STEP' , #261, #182,( #216) ) ;
#156 = PERSON_AND_ORGANIZATION ( #18446744073709551615, #18446744073709551615 ) ;
#157 = DATE_AND_TIME ( #218, #86 ) ;
#158 =( REPRESENTATION_RELATIONSHIP ('NONE','NONE', #22, #270 ) REPRESENTATION_RELATIONSHIP_WITH_TRANSFORMATION ( #153 )SHAPE_REPRESENTATION_RELATIONSHIP( ) );
#159 = APPROVAL_STATUS ( 'not_yet_approved' ) ;
#160 = ROLE_ASSOCIATION ( #296, #334 ) ;
#161 = SECURITY_CLASSIFICATION_LEVEL ( 'unclassified' ) ;
#162 = CC_DESIGN_SECURITY_CLASSIFICATION ( #176, ( #125 ) ) ;
#163 = PROPERTY_DEFINITION_REPRESENTATION ( #258, #85 ) ;
#164 = PERSON_AND_ORGANIZATION ( #18446744073709551615, #18446744073709551615 ) ;
#165 = CC_DESIGN_PERSON_AND_ORGANIZATION_ASSIGNMENT ( #274, #81, ( #58 ) ) ;
#166 = PERSON_AND_ORGANIZATION_ROLE ( 'creator' ) ;
#167 = PRODUCT_DEFINITION_SHAPE ( 'NONE', 'NONE',  #305 ) ;
#168 = DATE_AND_TIME ( #16, #135 ) ;
#169 = AXIS2_PLACEMENT_3D ( 'NONE', #252, #7, #280 ) ;
#170 = SECURITY_CLASSIFICATION ( '', '', #12 ) ;
#171 = APPROVAL_STATUS ( 'not_yet_approved' ) ;
#172 = PERSON_AND_ORGANIZATION ( #18446744073709551615, #18446744073709551615 ) ;
#173 = APPROVAL ( #335, 'UNKNOWN' ) ;
#174 = APPROVAL_DATE_TIME ( #318, #59 ) ;
#175 = CARTESIAN_POINT ( 'NONE',  ( 8.349999481172002191, 20.85000256347700898, -2.058321952820000078 ) ) ;
#176 = SECURITY_CLASSIFICATION ( '', '', #377 ) ;
#177 = DATE_TIME_ROLE ( 'classification_date' ) ;
#178 =( NAMED_UNIT ( * ) PLANE_ANGLE_UNIT ( ) SI_UNIT ( $, .RADIAN. ) );
#179 = CC_DESIGN_PERSON_AND_ORGANIZATION_ASSIGNMENT ( #230, #75, ( #76 ) ) ;
#180 = PERSON_AND_ORGANIZATION ( #18446744073709551615, #18446744073709551615 ) ;
#181 = PERSON_AND_ORGANIZATION_ROLE ( 'classification_officer' ) ;
#182 = EXTERNAL_SOURCE (IDENTIFIER('') ) ;
#183 = APPROVAL ( #308, 'Coincident' ) ;
#184 = LOCAL_TIME ( 18, 49, 58.00000000000000000, #332 ) ;
#185 = CALENDAR_DATE ( 2026, 22, 6 ) ;
#186 = DATE_AND_TIME ( #210, #202 ) ;
#187 = ORGANIZATION ( 'NAUO-ORG207', 'UNSPECIFIED', 'UNSPECIFIED' ) ;
#188 = ITEM_DEFINED_TRANSFORMATION ( 'NONE', 'NONE', #169,  #154 ) ;
#189 = CC_DESIGN_DATE_AND_TIME_ASSIGNMENT ( #139, #14, ( #305 ) ) ;
#190 = CALENDAR_DATE ( 2026, 22, 6 ) ;
#191 = DATE_TIME_ROLE ( 'classification_date' ) ;
#192 = PERSON_AND_ORGANIZATION_ROLE ( 'design_supplier' ) ;
#193 =( GEOMETRIC_REPRESENTATION_CONTEXT ( 3 ) GLOBAL_UNCERTAINTY_ASSIGNED_CONTEXT ( ( #239 ) ) GLOBAL_UNIT_ASSIGNED_CONTEXT ( ( #144, #178, #384 ) ) REPRESENTATION_CONTEXT ( 'NONE', 'WORKASPACE' ) );
#194 = CARTESIAN_POINT ( 'NONE',  ( 8.349999481172002191, 20.35000256347700542, -2.058321952820000078 ) ) ;
#195 = PRODUCT ( '6461079856.step', '6461079856.step', '', ( #351 ) ) ;
#196 = PROPERTY_DEFINITION ('document property','', #120 ) ;
#197 = APPROVAL_STATUS ( 'not_yet_approved' ) ;
#198 = COORDINATED_UNIVERSAL_TIME_OFFSET ( 10, 0, .AHEAD. ) ;
#199 = CALENDAR_DATE ( 2026, 22, 6 ) ;
#200 = APPLICATION_CONTEXT ( 'configuration controlled 3d designs of mechanical parts and assemblies' ) ;
#201 = LOCAL_TIME ( 18, 49, 58.00000000000000000, #51 ) ;
#202 = LOCAL_TIME ( 18, 49, 58.00000000000000000, #56 ) ;
#203 = DATE_AND_TIME ( #379, #27 ) ;
#204 = SHAPE_DEFINITION_REPRESENTATION ( #344, #85 ) ;
#205 = CARTESIAN_POINT ( 'NONE',  ( 0.000000000000000000, 0.000000000000000000, 0.000000000000000000 ) ) ;
#206 = DATE_AND_TIME ( #276, #184 ) ;
#207 =( GEOMETRIC_REPRESENTATION_CONTEXT ( 3 ) GLOBAL_UNCERTAINTY_ASSIGNED_CONTEXT ( ( #74 ) ) GLOBAL_UNIT_ASSIGNED_CONTEXT ( ( #208, #235, #246 ) ) REPRESENTATION_CONTEXT ( 'NONE', 'WORKASPACE' ) );
#208 =( LENGTH_UNIT ( ) NAMED_UNIT ( * ) SI_UNIT ( .MILLI., .METRE. ) );
#209 = LOCAL_TIME ( 18, 49, 58.00000000000000000, #253 ) ;
#210 = CALENDAR_DATE ( 2026, 22, 6 ) ;
#211 = APPROVAL_STATUS ( 'not_yet_approved' ) ;
#212 = APPROVAL_DATE_TIME ( #117, #213 ) ;
#213 = APPROVAL ( #211, 'UNKNOWN' ) ;
#214 = LOCAL_TIME ( 18, 49, 58.00000000000000000, #11 ) ;
#215 = CALENDAR_DATE ( 2026, 22, 6 ) ;
#216 = DOCUMENT_FILE ( '6534431024.step.STEP' , '', '', #359, '' ,$ ) ;
#217 = CC_DESIGN_SECURITY_CLASSIFICATION ( #170, ( #390 ) ) ;
#218 = CALENDAR_DATE ( 2026, 22, 6 ) ;
#219 = EXTERNAL_SOURCE (IDENTIFIER('') ) ;
#220 = DOCUMENT_FILE ( '6461079856.step.STEP' , '', '', #116, '' ,$ ) ;
#221 = DATE_AND_TIME ( #190, #26 ) ;
#222 = PERSON_AND_ORGANIZATION_ROLE ( 'classification_officer' ) ;
#223 = DATE_TIME_ROLE ( 'classification_date' ) ;
#224 = APPROVAL_DATE_TIME ( #221, #183 ) ;
#225 = LOCAL_TIME ( 18, 49, 58.00000000000000000, #50 ) ;
#226 = PROPERTY_DEFINITION ('document property','', #220 ) ;
#227 = APPROVAL_DATE_TIME ( #168, #130 ) ;
#228 = PRODUCT ( '6534431024.step', '6534431024.step', '', ( #347 ) ) ;
#229 = APPLICATION_PROTOCOL_DEFINITION ( 'international standard', 'config_control_design', 1994, #200 ) ;
#230 = PERSON_AND_ORGANIZATION ( #18446744073709551615, #18446744073709551615 ) ;
#231 = LOCAL_TIME ( 18, 49, 58.00000000000000000, #146 ) ;
#232 = APPROVAL_DATE_TIME ( #203, #8 ) ;
#233 = PERSON_AND_ORGANIZATION ( #18446744073709551615, #18446744073709551615 ) ;
#234 = CC_DESIGN_PERSON_AND_ORGANIZATION_ASSIGNMENT ( #1, #4, ( #58 ) ) ;
#235 =( NAMED_UNIT ( * ) PLANE_ANGLE_UNIT ( ) SI_UNIT ( $, .RADIAN. ) );
#236 = APPLIED_DOCUMENT_REFERENCE ( #120,'',( #76) ) ;
#237 = LOCAL_TIME ( 18, 49, 58.00000000000000000, #383 ) ;
#238 = CALENDAR_DATE ( 2026, 22, 6 ) ;
#239 = UNCERTAINTY_MEASURE_WITH_UNIT (LENGTH_MEASURE( 1.000000000000000082E-05 ), #144, 'distance_accuracy_value', 'NONE');
#240 = SECURITY_CLASSIFICATION_LEVEL ( 'unclassified' ) ;
#241 = CC_DESIGN_DATE_AND_TIME_ASSIGNMENT ( #151, #177, ( #79 ) ) ;
#242 = COORDINATED_UNIVERSAL_TIME_OFFSET ( 10, 0, .AHEAD. ) ;
#243 = LOCAL_TIME ( 18, 49, 58.00000000000000000, #113 ) ;
#244 = UNCERTAINTY_MEASURE_WITH_UNIT (LENGTH_MEASURE( 1.000000000000000082E-05 ), #370, 'distance_accuracy_value', 'NONE');
#245 = APPROVAL_DATE_TIME ( #206, #323 ) ;
#246 =( NAMED_UNIT ( * ) SI_UNIT ( $, .STERADIAN. ) SOLID_ANGLE_UNIT ( ) );
#247 = PERSON_AND_ORGANIZATION ( #18446744073709551615, #18446744073709551615 ) ;
#248 = PROPERTY_DEFINITION ('external definition','', #216 ) ;
#249 = CC_DESIGN_APPROVAL ( #183, ( #102 ) ) ;
#250 = APPROVAL_ROLE ( '' ) ;
#251 = APPROVAL ( #301, 'Coincident' ) ;
#252 = CARTESIAN_POINT ( 'NONE',  ( 8.349999481172002191, 21.35000256347700898, -2.058321952820000078 ) ) ;
#253 = COORDINATED_UNIVERSAL_TIME_OFFSET ( 10, 0, .AHEAD. ) ;
#254 = PERSON_AND_ORGANIZATION_ROLE ( 'design_owner' ) ;
#255 = PRODUCT_DEFINITION_SHAPE ( 'NONE', 'NONE',  #102 ) ;
#256 = PERSON_AND_ORGANIZATION ( #18446744073709551615, #18446744073709551615 ) ;
#257 = APPROVAL_PERSON_ORGANIZATION ( #121, #251, #356 ) ;
#258 = PROPERTY_DEFINITION ('external definition','', #120 ) ;
#259 = PERSON_AND_ORGANIZATION_ROLE ( 'design_supplier' ) ;
#260 = PRODUCT_RELATED_PRODUCT_CATEGORY ( 'detail', '', ( #195 ) ) ;
#261 = IDENTIFICATION_ROLE ( 'external document id and location', $) ;
#262 = APPROVAL_STATUS ( 'not_yet_approved' ) ;
#263 = APPROVAL_ROLE ( '' ) ;
#264 = APPROVAL_PERSON_ORGANIZATION ( #324, #130, #21 ) ;
#265 = CC_DESIGN_APPROVAL ( #213, ( #307 ) ) ;
#266 = DIRECTION ( 'NONE',  ( 0.000000000000000000, 0.000000000000000000, 1.000000000000000000 ) ) ;
#267 = COORDINATED_UNIVERSAL_TIME_OFFSET ( 10, 0, .AHEAD. ) ;
#268 = DIRECTION ( 'NONE',  ( 4.890937612370273194E-29, -3.155443620884047222E-30, 0.9999999999999997780 ) ) ;
#269 = CONTEXT_DEPENDENT_SHAPE_REPRESENTATION ( #37, #317 ) ;
#270 = SHAPE_REPRESENTATION ( '6534431024.step', ( #277 ), #193 ) ;
#271 = COORDINATED_UNIVERSAL_TIME_OFFSET ( 10, 0, .AHEAD. ) ;
#272 = CARTESIAN_POINT ( 'NONE',  ( 0.000000000000000000, 0.000000000000000000, 0.000000000000000000 ) ) ;
#273 = LOCAL_TIME ( 18, 49, 58.00000000000000000, #141 ) ;
#274 = PERSON_AND_ORGANIZATION ( #18446744073709551615, #18446744073709551615 ) ;
#275 = CALENDAR_DATE ( 2026, 22, 6 ) ;
#276 = CALENDAR_DATE ( 2026, 22, 6 ) ;
#277 = AXIS2_PLACEMENT_3D ( 'NONE', #205, #82, #111 ) ;
#278 = PERSON ( 'NAUO-PER207', 'UNSPECIFIED', 'UNSPECIFIED', ('UNSPECIFIED'), ('UNSPECIFIED'), ('UNSPECIFIED') ) ;
#279 = CC_DESIGN_APPROVAL ( #8, ( #176 ) ) ;
#280 = DIRECTION ( 'NONE',  ( 1.000000000000000222, -1.092455418989176591E-28, 4.890937612370273194E-29 ) ) ;
#281 = OBJECT_ROLE ('mandatory',$ ) ;
#282 = PERSON_AND_ORGANIZATION ( #18446744073709551615, #18446744073709551615 ) ;
#283 = CC_DESIGN_DATE_AND_TIME_ASSIGNMENT ( #186, #328, ( #326 ) ) ;
#284 =( GEOMETRIC_REPRESENTATION_CONTEXT ( 3 ) GLOBAL_UNCERTAINTY_ASSIGNED_CONTEXT ( ( #244 ) ) GLOBAL_UNIT_ASSIGNED_CONTEXT ( ( #370, #336, #97 ) ) REPRESENTATION_CONTEXT ( 'NONE', 'WORKASPACE' ) );
#285 = LOCAL_TIME ( 18, 49, 58.00000000000000000, #242 ) ;
#286 = PERSON_AND_ORGANIZATION_ROLE ( 'classification_officer' ) ;
#287 = APPROVAL_ROLE ( '' ) ;
#288 = APPROVAL ( #159, 'Coincident' ) ;
#289 = APPROVAL_ROLE ( '' ) ;
#290 = DATE_TIME_ROLE ( 'creation_date' ) ;
#291 = APPLIED_EXTERNAL_IDENTIFICATION_ASSIGNMENT ( '6461079856.step.STEP' , #321, #219,( #120) ) ;
#292 = PERSON_AND_ORGANIZATION_ROLE ( 'creator' ) ;
#293 = CC_DESIGN_PERSON_AND_ORGANIZATION_ASSIGNMENT ( #36, #286, ( #341 ) ) ;
#294 = APPROVAL_STATUS ( 'not_yet_approved' ) ;
#295 = APPLICATION_PROTOCOL_DEFINITION ( 'international standard', 'config_control_design', 1994, #17 ) ;
#296 = OBJECT_ROLE ('mandatory',$ ) ;
#297 = CC_DESIGN_APPROVAL ( #59, ( #125 ) ) ;
#298 = DESIGN_CONTEXT ( 'detailed design', #55, 'design' ) ;
#299 = CALENDAR_DATE ( 2026, 22, 6 ) ;
#300 = DATE_AND_TIME ( #238, #285 ) ;
#301 = APPROVAL_STATUS ( 'not_yet_approved' ) ;
#302 = OBJECT_ROLE ('mandatory',$ ) ;
#303 = CC_DESIGN_SECURITY_CLASSIFICATION ( #341, ( #127 ) ) ;
#304 = APPLIED_DOCUMENT_REFERENCE ( #216,'',( #305) ) ;
#305 = PRODUCT_DEFINITION ( 'General', '', #58, #327 ) ;
#306 = MECHANICAL_CONTEXT ( 'NONE', #138, 'mechanical' ) ;
#307 = SECURITY_CLASSIFICATION ( '', '', #25 ) ;
#308 = APPROVAL_STATUS ( 'not_yet_approved' ) ;
#309 = COORDINATED_UNIVERSAL_TIME_OFFSET ( 10, 0, .AHEAD. ) ;
#310 = APPROVAL_DATE_TIME ( #371, #173 ) ;
#311 = DIRECTION ( 'NONE',  ( 1.000000000000000000, 0.000000000000000000, 0.000000000000000000 ) ) ;
#312 = CC_DESIGN_PERSON_AND_ORGANIZATION_ASSIGNMENT ( #38, #222, ( #170 ) ) ;
#313 = CC_DESIGN_APPROVAL ( #323, ( #79 ) ) ;
#314 = PERSON_AND_ORGANIZATION ( #18446744073709551615, #18446744073709551615 ) ;
#315 = CC_DESIGN_PERSON_AND_ORGANIZATION_ASSIGNMENT ( #247, #34, ( #102 ) ) ;
#316 = PERSON_AND_ORGANIZATION ( #18446744073709551615, #18446744073709551615 ) ;
#317 = PRODUCT_DEFINITION_SHAPE ( 'NONE', 'NONE',  #389 ) ;
#318 = DATE_AND_TIME ( #137, #273 ) ;
#319 = CALENDAR_DATE ( 2026, 22, 6 ) ;
#320 = ORGANIZATION ( 'NAUO-ORG208', 'UNSPECIFIED', 'UNSPECIFIED' ) ;
#321 = IDENTIFICATION_ROLE ( 'external document id and location', $) ;
#322 = PERSON_AND_ORGANIZATION ( #18446744073709551615, #18446744073709551615 ) ;
#323 = APPROVAL ( #32, 'UNKNOWN' ) ;
#324 = PERSON_AND_ORGANIZATION ( #18446744073709551615, #18446744073709551615 ) ;
#325 = PERSON_AND_ORGANIZATION ( #278, #187 ) ;
#326 = SECURITY_CLASSIFICATION ( '', '', #240 ) ;
#327 = DESIGN_CONTEXT ( 'detailed design', #17, 'design' ) ;
#328 = DATE_TIME_ROLE ( 'classification_date' ) ;
#329 = PERSON_AND_ORGANIZATION ( #378, #5 ) ;
#330 = PRODUCT_RELATED_PRODUCT_CATEGORY ( 'detail', '', ( #47 ) ) ;
#331 = LOCAL_TIME ( 18, 49, 58.00000000000000000, #123 ) ;
#332 = COORDINATED_UNIVERSAL_TIME_OFFSET ( 10, 0, .AHEAD. ) ;
#333 = CC_DESIGN_PERSON_AND_ORGANIZATION_ASSIGNMENT ( #256, #166, ( #125 ) ) ;
#334 = APPLIED_DOCUMENT_REFERENCE ( #220,'',( #76) ) ;
#335 = APPROVAL_STATUS ( 'not_yet_approved' ) ;
#336 =( NAMED_UNIT ( * ) PLANE_ANGLE_UNIT ( ) SI_UNIT ( $, .RADIAN. ) );
#337 = AXIS2_PLACEMENT_3D ( 'NONE', #194, #372, #101 ) ;
#338 = DATE_AND_TIME ( #275, #331 ) ;
#339 =( REPRESENTATION_RELATIONSHIP ('NONE','NONE', #22, #85 ) REPRESENTATION_RELATIONSHIP_WITH_TRANSFORMATION ( #188 )SHAPE_REPRESENTATION_RELATIONSHIP( ) );
#340 = DATE_TIME_ROLE ( 'creation_date' ) ;
#341 = SECURITY_CLASSIFICATION ( '', '', #161 ) ;
#342 = APPROVAL_PERSON_ORGANIZATION ( #164, #73, #287 ) ;
#343 = DATE_AND_TIME ( #374, #354 ) ;
#344 = PRODUCT_DEFINITION_SHAPE ( 'NONE', 'NONE',  #76 ) ;
#345 = PERSON_AND_ORGANIZATION ( #18446744073709551615, #18446744073709551615 ) ;
#346 = EXTERNAL_SOURCE (IDENTIFIER('') ) ;
#347 = MECHANICAL_CONTEXT ( 'NONE', #200, 'mechanical' ) ;
#348 = CC_DESIGN_PERSON_AND_ORGANIZATION_ASSIGNMENT ( #104, #292, ( #305 ) ) ;
#349 = DATE_AND_TIME ( #352, #201 ) ;
#350 = PERSON_AND_ORGANIZATION ( #18446744073709551615, #18446744073709551615 ) ;
#351 = MECHANICAL_CONTEXT ( 'NONE', #118, 'mechanical' ) ;
#352 = CALENDAR_DATE ( 2026, 22, 6 ) ;
#353 = ROLE_ASSOCIATION ( #302, #236 ) ;
#354 = LOCAL_TIME ( 18, 49, 58.00000000000000000, #133 ) ;
#355 = APPLICATION_PROTOCOL_DEFINITION ( 'international standard', 'config_control_design', 1994, #138 ) ;
#356 = APPROVAL_ROLE ( '' ) ;
#357 = CC_DESIGN_PERSON_AND_ORGANIZATION_ASSIGNMENT ( #314, #192, ( #127 ) ) ;
#358 = PROPERTY_DEFINITION_REPRESENTATION ( #248, #270 ) ;
#359 = DOCUMENT_TYPE ( 'geometry' ) ;
#360 = APPROVAL_DATE_TIME ( #300, #119 ) ;
#361 = CC_DESIGN_APPROVAL ( #64, ( #305 ) ) ;
#362 = APPROVAL_ROLE ( '' ) ;
#363 = PROPERTY_DEFINITION ('document property','', #216 ) ;
#364 = CALENDAR_DATE ( 2026, 22, 6 ) ;
#365 = IDENTIFICATION_ROLE ( 'external document id and location', $) ;
#366 = PROPERTY_DEFINITION_REPRESENTATION ( #226, #85 ) ;
#367 = CALENDAR_DATE ( 2026, 22, 6 ) ;
#368 = AXIS2_PLACEMENT_3D ( 'NONE', #142, #9, #311 ) ;
#369 = DATE_AND_TIME ( #41, #209 ) ;
#370 =( LENGTH_UNIT ( ) NAMED_UNIT ( * ) SI_UNIT ( .MILLI., .METRE. ) );
#371 = DATE_AND_TIME ( #215, #96 ) ;
#372 = DIRECTION ( 'NONE',  ( 4.890937612370273194E-29, -3.155443620884047222E-30, 0.9999999999999997780 ) ) ;
#373 = CC_DESIGN_PERSON_AND_ORGANIZATION_ASSIGNMENT ( #114, #259, ( #125 ) ) ;
#374 = CALENDAR_DATE ( 2026, 22, 6 ) ;
#375 = CC_DESIGN_SECURITY_CLASSIFICATION ( #79, ( #389 ) ) ;
#376 = PROPERTY_DEFINITION ('external definition','', #220 ) ;
#377 = SECURITY_CLASSIFICATION_LEVEL ( 'unclassified' ) ;
#378 = PERSON ( 'NAUO-PER206', 'UNSPECIFIED', 'UNSPECIFIED', ('UNSPECIFIED'), ('UNSPECIFIED'), ('UNSPECIFIED') ) ;
#379 = CALENDAR_DATE ( 2026, 22, 6 ) ;
#380 = CALENDAR_DATE ( 2026, 22, 6 ) ;
#381 = CC_DESIGN_DATE_AND_TIME_ASSIGNMENT ( #77, #109, ( #176 ) ) ;
#382 = CC_DESIGN_SECURITY_CLASSIFICATION ( #326, ( #58 ) ) ;
#383 = COORDINATED_UNIVERSAL_TIME_OFFSET ( 10, 0, .AHEAD. ) ;
#384 =( NAMED_UNIT ( * ) SI_UNIT ( $, .STERADIAN. ) SOLID_ANGLE_UNIT ( ) );
#385 = PERSON ( 'NAUO-PER208', 'UNSPECIFIED', 'UNSPECIFIED', ('UNSPECIFIED'), ('UNSPECIFIED'), ('UNSPECIFIED') ) ;
#386 = PERSON_AND_ORGANIZATION ( #18446744073709551615, #18446744073709551615 ) ;
#387 = APPROVAL_PERSON_ORGANIZATION ( #316, #8, #263 ) ;
#388 = NEXT_ASSEMBLY_USAGE_OCCURRENCE ( 'NAUO206', ' ', ' ', #102, #305, $ ) ;
#389 = NEXT_ASSEMBLY_USAGE_OCCURRENCE ( 'NAUO207', ' ', ' ', #102, #76, $ ) ;
#390 = NEXT_ASSEMBLY_USAGE_OCCURRENCE ( 'NAUO208', ' ', ' ', #102, #76, $ ) ;
ENDSEC;
END-ISO-10303-21;
