ISO-10303-21;
HEADER;
FILE_DESCRIPTION (( 'STEP AP203' ),
    '1' );
FILE_NAME ('C22.step.STEP',
    '2026-06-22T08:49:59',
    ( 'localuser' ),
    ( '' ),
    'SwSTEP 2.0',
    'SolidWorks 2025',
    '' );
FILE_SCHEMA (( 'CONFIG_CONTROL_DESIGN' ));
ENDSEC;

DATA;
#1 = DOCUMENT_FILE ( '6461079856.step.STEP' , '', '', #244, '' ,$ ) ;
#2 = PERSON_AND_ORGANIZATION ( #18446744073709551615, #18446744073709551615 ) ;
#3 = COORDINATED_UNIVERSAL_TIME_OFFSET ( 10, 0, .AHEAD. ) ;
#4 = CC_DESIGN_APPROVAL ( #306, ( #241 ) ) ;
#5 = PERSON_AND_ORGANIZATION_ROLE ( 'classification_officer' ) ;
#6 = CC_DESIGN_DATE_AND_TIME_ASSIGNMENT ( #136, #164, ( #241 ) ) ;
#7 = APPROVAL_ROLE ( '' ) ;
#8 = APPROVAL ( #79, 'UNKNOWN' ) ;
#9 = APPROVAL_ROLE ( '' ) ;
#10 = CC_DESIGN_SECURITY_CLASSIFICATION ( #144, ( #389 ) ) ;
#11 = PERSON_AND_ORGANIZATION_ROLE ( 'creator' ) ;
#12 = PERSON_AND_ORGANIZATION ( #18446744073709551615, #18446744073709551615 ) ;
#13 = PERSON_AND_ORGANIZATION ( #206, #122 ) ;
#14 = DIRECTION ( 'NONE',  ( 4.890937612370273194E-29, -3.155443620884047222E-30, 0.9999999999999997780 ) ) ;
#15 = LOCAL_TIME ( 18, 49, 59.00000000000000000, #263 ) ;
#16 = DOCUMENT_TYPE ( 'geometry' ) ;
#17 = CC_DESIGN_PERSON_AND_ORGANIZATION_ASSIGNMENT ( #370, #77, ( #59 ) ) ;
#18 = COORDINATED_UNIVERSAL_TIME_OFFSET ( 10, 0, .AHEAD. ) ;
#19 = CONTEXT_DEPENDENT_SHAPE_REPRESENTATION ( #102, #198 ) ;
#20 = DIRECTION ( 'NONE',  ( 1.000000000000000000, 0.000000000000000000, 0.000000000000000000 ) ) ;
#21 = ITEM_DEFINED_TRANSFORMATION ( 'NONE', 'NONE', #127,  #134 ) ;
#22 = LOCAL_TIME ( 18, 49, 59.00000000000000000, #187 ) ;
#23 = APPLIED_DOCUMENT_REFERENCE ( #261,'',( #140) ) ;
#24 = DATE_AND_TIME ( #247, #319 ) ;
#25 = CC_DESIGN_PERSON_AND_ORGANIZATION_ASSIGNMENT ( #130, #257, ( #140 ) ) ;
#26 = PERSON_AND_ORGANIZATION_ROLE ( 'classification_officer' ) ;
#27 = PERSON_AND_ORGANIZATION_ROLE ( 'classification_officer' ) ;
#28 = APPROVAL_PERSON_ORGANIZATION ( #120, #132, #364 ) ;
#29 = APPROVAL_STATUS ( 'not_yet_approved' ) ;
#30 = APPROVAL_PERSON_ORGANIZATION ( #12, #306, #100 ) ;
#31 = LOCAL_TIME ( 18, 49, 59.00000000000000000, #366 ) ;
#32 = CC_DESIGN_PERSON_AND_ORGANIZATION_ASSIGNMENT ( #274, #126, ( #43 ) ) ;
#33 = APPLICATION_PROTOCOL_DEFINITION ( 'international standard', 'config_control_design', 1994, #320 ) ;
#34 = MECHANICAL_CONTEXT ( 'NONE', #142, 'mechanical' ) ;
#35 = DATE_TIME_ROLE ( 'creation_date' ) ;
#36 = CC_DESIGN_PERSON_AND_ORGANIZATION_ASSIGNMENT ( #330, #123, ( #162 ) ) ;
#37 =( GEOMETRIC_REPRESENTATION_CONTEXT ( 3 ) GLOBAL_UNCERTAINTY_ASSIGNED_CONTEXT ( ( #147 ) ) GLOBAL_UNIT_ASSIGNED_CONTEXT ( ( #383, #381, #238 ) ) REPRESENTATION_CONTEXT ( 'NONE', 'WORKASPACE' ) );
#38 = COORDINATED_UNIVERSAL_TIME_OFFSET ( 10, 0, .AHEAD. ) ;
#39 = APPLICATION_CONTEXT ( 'configuration controlled 3d designs of mechanical parts and assemblies' ) ;
#40 = PERSON_AND_ORGANIZATION_ROLE ( 'classification_officer' ) ;
#41 = PERSON ( 'NAUO-PER233', 'UNSPECIFIED', 'UNSPECIFIED', ('UNSPECIFIED'), ('UNSPECIFIED'), ('UNSPECIFIED') ) ;
#42 = SECURITY_CLASSIFICATION_LEVEL ( 'unclassified' ) ;
#43 = PRODUCT_DEFINITION_FORMATION_WITH_SPECIFIED_SOURCE ( 'Symmetric', '', #350, .NOT_KNOWN. ) ;
#44 = CC_DESIGN_SECURITY_CLASSIFICATION ( #228, ( #390 ) ) ;
#45 = APPROVAL ( #60, 'Coincident' ) ;
#46 = APPROVAL_DATE_TIME ( #221, #306 ) ;
#47 = CALENDAR_DATE ( 2026, 22, 6 ) ;
#48 = PROPERTY_DEFINITION ('document property','', #261 ) ;
#49 = APPROVAL_STATUS ( 'not_yet_approved' ) ;
#50 = DIRECTION ( 'NONE',  ( 1.000000000000000222, -1.092455418989176591E-28, 4.890937612370273194E-29 ) ) ;
#51 = CC_DESIGN_DATE_AND_TIME_ASSIGNMENT ( #301, #161, ( #58 ) ) ;
#52 = PRODUCT ( '6461079856.step', '6461079856.step', '', ( #193 ) ) ;
#53 = PERSON_AND_ORGANIZATION ( #41, #217 ) ;
#54 = DIRECTION ( 'NONE',  ( 0.000000000000000000, 0.000000000000000000, 1.000000000000000000 ) ) ;
#55 = COORDINATED_UNIVERSAL_TIME_OFFSET ( 10, 0, .AHEAD. ) ;
#56 = COORDINATED_UNIVERSAL_TIME_OFFSET ( 10, 0, .AHEAD. ) ;
#57 =( LENGTH_UNIT ( ) NAMED_UNIT ( * ) SI_UNIT ( .MILLI., .METRE. ) );
#58 = PRODUCT_DEFINITION ( 'General', '', #59, #361 ) ;
#59 = PRODUCT_DEFINITION_FORMATION_WITH_SPECIFIED_SOURCE ( 'Symmetric', '', #111, .NOT_KNOWN. ) ;
#60 = APPROVAL_STATUS ( 'not_yet_approved' ) ;
#61 = PROPERTY_DEFINITION_REPRESENTATION ( #108, #71 ) ;
#62 = COORDINATED_UNIVERSAL_TIME_OFFSET ( 10, 0, .AHEAD. ) ;
#63 =( REPRESENTATION_RELATIONSHIP ('NONE','NONE', #82, #71 ) REPRESENTATION_RELATIONSHIP_WITH_TRANSFORMATION ( #346 )SHAPE_REPRESENTATION_RELATIONSHIP( ) );
#64 = PERSON ( 'NAUO-PER234', 'UNSPECIFIED', 'UNSPECIFIED', ('UNSPECIFIED'), ('UNSPECIFIED'), ('UNSPECIFIED') ) ;
#65 = DATE_TIME_ROLE ( 'classification_date' ) ;
#66 = CC_DESIGN_PERSON_AND_ORGANIZATION_ASSIGNMENT ( #191, #5, ( #241 ) ) ;
#67 = AXIS2_PLACEMENT_3D ( 'NONE', #269, #125, #246 ) ;
#68 = CALENDAR_DATE ( 2026, 22, 6 ) ;
#69 = CC_DESIGN_APPROVAL ( #341, ( #367 ) ) ;
#70 = APPROVAL_DATE_TIME ( #333, #196 ) ;
#71 = SHAPE_REPRESENTATION ( '6461079856.step', ( #134 ), #338 ) ;
#72 = PERSON_AND_ORGANIZATION ( #18446744073709551615, #18446744073709551615 ) ;
#73 = PERSON_AND_ORGANIZATION_ROLE ( 'creator' ) ;
#74 = SECURITY_CLASSIFICATION ( '', '', #137 ) ;
#75 = APPROVAL_DATE_TIME ( #277, #99 ) ;
#76 = DATE_AND_TIME ( #343, #312 ) ;
#77 = PERSON_AND_ORGANIZATION_ROLE ( 'design_supplier' ) ;
#78 = APPROVAL_PERSON_ORGANIZATION ( #72, #149, #83 ) ;
#79 = APPROVAL_STATUS ( 'not_yet_approved' ) ;
#80 = PRODUCT_RELATED_PRODUCT_CATEGORY ( 'detail', '', ( #52 ) ) ;
#81 = PERSON_AND_ORGANIZATION_ROLE ( 'classification_officer' ) ;
#82 = SHAPE_REPRESENTATION ( 'C22.step', ( #67, #127, #325, #158 ), #211 ) ;
#83 = APPROVAL_ROLE ( '' ) ;
#84 = EXTERNAL_SOURCE (IDENTIFIER('') ) ;
#85 = LOCAL_TIME ( 18, 49, 59.00000000000000000, #3 ) ;
#86 = APPLICATION_CONTEXT ( 'configuration controlled 3d designs of mechanical parts and assemblies' ) ;
#87 = ROLE_ASSOCIATION ( #371, #317 ) ;
#88 = COORDINATED_UNIVERSAL_TIME_OFFSET ( 10, 0, .AHEAD. ) ;
#89 = CC_DESIGN_DATE_AND_TIME_ASSIGNMENT ( #227, #109, ( #345 ) ) ;
#90 = LOCAL_TIME ( 18, 49, 59.00000000000000000, #88 ) ;
#91 = APPROVAL_DATE_TIME ( #152, #45 ) ;
#92 = PERSON_AND_ORGANIZATION_ROLE ( 'design_owner' ) ;
#93 = COORDINATED_UNIVERSAL_TIME_OFFSET ( 10, 0, .AHEAD. ) ;
#94 = CC_DESIGN_APPROVAL ( #278, ( #43 ) ) ;
#95 = APPROVAL_ROLE ( '' ) ;
#96 = LOCAL_TIME ( 18, 49, 59.00000000000000000, #148 ) ;
#97 = SHAPE_REPRESENTATION ( '6534431024.step', ( #172 ), #37 ) ;
#98 = CALENDAR_DATE ( 2026, 22, 6 ) ;
#99 = APPROVAL ( #337, 'Coincident' ) ;
#100 = APPROVAL_ROLE ( '' ) ;
#101 = CALENDAR_DATE ( 2026, 22, 6 ) ;
#102 =( REPRESENTATION_RELATIONSHIP ('NONE','NONE', #82, #71 ) REPRESENTATION_RELATIONSHIP_WITH_TRANSFORMATION ( #21 )SHAPE_REPRESENTATION_RELATIONSHIP( ) );
#103 = CALENDAR_DATE ( 2026, 22, 6 ) ;
#104 = APPLICATION_PROTOCOL_DEFINITION ( 'international standard', 'config_control_design', 1994, #86 ) ;
#105 = PROPERTY_DEFINITION_REPRESENTATION ( #251, #71 ) ;
#106 = LOCAL_TIME ( 18, 49, 59.00000000000000000, #382 ) ;
#107 = CC_DESIGN_DATE_AND_TIME_ASSIGNMENT ( #76, #35, ( #140 ) ) ;
#108 = PROPERTY_DEFINITION ('external definition','', #261 ) ;
#109 = DATE_TIME_ROLE ( 'classification_date' ) ;
#110 =( NAMED_UNIT ( * ) PLANE_ANGLE_UNIT ( ) SI_UNIT ( $, .RADIAN. ) );
#111 = PRODUCT ( '6534431024.step', '6534431024.step', '', ( #34 ) ) ;
#112 = SECURITY_CLASSIFICATION_LEVEL ( 'unclassified' ) ;
#113 =( LENGTH_UNIT ( ) NAMED_UNIT ( * ) SI_UNIT ( .MILLI., .METRE. ) );
#114 = CONTEXT_DEPENDENT_SHAPE_REPRESENTATION ( #342, #168 ) ;
#115 = DIRECTION ( 'NONE',  ( 1.000000000000000222, -1.092455418989176591E-28, 4.890937612370273194E-29 ) ) ;
#116 = APPROVAL_PERSON_ORGANIZATION ( #2, #278, #95 ) ;
#117 = CC_DESIGN_APPROVAL ( #328, ( #345 ) ) ;
#118 = ROLE_ASSOCIATION ( #302, #287 ) ;
#119 = CC_DESIGN_PERSON_AND_ORGANIZATION_ASSIGNMENT ( #362, #272, ( #43 ) ) ;
#120 = PERSON_AND_ORGANIZATION ( #18446744073709551615, #18446744073709551615 ) ;
#121 = PRODUCT_RELATED_PRODUCT_CATEGORY ( 'detail', '', ( #350 ) ) ;
#122 = ORGANIZATION ( 'NAUO-ORG232', 'UNSPECIFIED', 'UNSPECIFIED' ) ;
#123 = PERSON_AND_ORGANIZATION_ROLE ( 'creator' ) ;
#124 = EXTERNAL_SOURCE (IDENTIFIER('') ) ;
#125 = DIRECTION ( 'NONE',  ( 0.000000000000000000, 0.000000000000000000, 1.000000000000000000 ) ) ;
#126 = PERSON_AND_ORGANIZATION_ROLE ( 'design_supplier' ) ;
#127 = AXIS2_PLACEMENT_3D ( 'NONE', #316, #146, #50 ) ;
#128 = APPROVAL_ROLE ( '' ) ;
#129 = CC_DESIGN_SECURITY_CLASSIFICATION ( #74, ( #367 ) ) ;
#130 = PERSON_AND_ORGANIZATION ( #18446744073709551615, #18446744073709551615 ) ;
#131 = CALENDAR_DATE ( 2026, 22, 6 ) ;
#132 = APPROVAL ( #331, 'Coincident' ) ;
#133 = PERSON_AND_ORGANIZATION_ROLE ( 'design_owner' ) ;
#134 = AXIS2_PLACEMENT_3D ( 'NONE', #139, #54, #231 ) ;
#135 = APPROVAL_PERSON_ORGANIZATION ( #375, #341, #159 ) ;
#136 = DATE_AND_TIME ( #103, #22 ) ;
#137 = SECURITY_CLASSIFICATION_LEVEL ( 'unclassified' ) ;
#138 = COORDINATED_UNIVERSAL_TIME_OFFSET ( 10, 0, .AHEAD. ) ;
#139 = CARTESIAN_POINT ( 'NONE',  ( 0.000000000000000000, 0.000000000000000000, 0.000000000000000000 ) ) ;
#140 = PRODUCT_DEFINITION ( 'General', '', #367, #175 ) ;
#141 = CC_DESIGN_SECURITY_CLASSIFICATION ( #194, ( #43 ) ) ;
#142 = APPLICATION_CONTEXT ( 'configuration controlled 3d designs of mechanical parts and assemblies' ) ;
#143 = CALENDAR_DATE ( 2026, 22, 6 ) ;
#144 = SECURITY_CLASSIFICATION ( '', '', #177 ) ;
#145 = APPROVAL_DATE_TIME ( #297, #8 ) ;
#146 = DIRECTION ( 'NONE',  ( 4.890937612370273194E-29, -3.155443620884047222E-30, 0.9999999999999997780 ) ) ;
#147 = UNCERTAINTY_MEASURE_WITH_UNIT (LENGTH_MEASURE( 1.000000000000000082E-05 ), #383, 'distance_accuracy_value', 'NONE');
#148 = COORDINATED_UNIVERSAL_TIME_OFFSET ( 10, 0, .AHEAD. ) ;
#149 = APPROVAL ( #49, 'Coincident' ) ;
#150 = PERSON_AND_ORGANIZATION ( #18446744073709551615, #18446744073709551615 ) ;
#151 = CC_DESIGN_PERSON_AND_ORGANIZATION_ASSIGNMENT ( #53, #174, ( #144 ) ) ;
#152 = DATE_AND_TIME ( #359, #96 ) ;
#153 = PERSON_AND_ORGANIZATION ( #64, #332 ) ;
#154 = CC_DESIGN_APPROVAL ( #196, ( #194 ) ) ;
#155 = CALENDAR_DATE ( 2026, 22, 6 ) ;
#156 = APPROVAL_DATE_TIME ( #271, #278 ) ;
#157 = PERSON_AND_ORGANIZATION ( #18446744073709551615, #18446744073709551615 ) ;
#158 = AXIS2_PLACEMENT_3D ( 'NONE', #288, #14, #115 ) ;
#159 = APPROVAL_ROLE ( '' ) ;
#160 = APPROVAL_PERSON_ORGANIZATION ( #53, #230, #201 ) ;
#161 = DATE_TIME_ROLE ( 'creation_date' ) ;
#162 = PRODUCT_DEFINITION ( 'General', '', #43, #356 ) ;
#163 = COORDINATED_UNIVERSAL_TIME_OFFSET ( 10, 0, .AHEAD. ) ;
#164 = DATE_TIME_ROLE ( 'classification_date' ) ;
#165 = PERSON_AND_ORGANIZATION ( #18446744073709551615, #18446744073709551615 ) ;
#166 = APPROVAL_STATUS ( 'not_yet_approved' ) ;
#167 = CC_DESIGN_PERSON_AND_ORGANIZATION_ASSIGNMENT ( #253, #133, ( #52 ) ) ;
#168 = PRODUCT_DEFINITION_SHAPE ( 'NONE', 'NONE',  #389 ) ;
#169 = DIRECTION ( 'NONE',  ( 1.000000000000000222, -1.092455418989176591E-28, 4.890937612370273194E-29 ) ) ;
#170 = DATE_AND_TIME ( #295, #189 ) ;
#171 = PRODUCT_DEFINITION_SHAPE ( 'NONE', 'NONE',  #162 ) ;
#172 = AXIS2_PLACEMENT_3D ( 'NONE', #296, #234, #20 ) ;
#173 = LOCAL_TIME ( 18, 49, 59.00000000000000000, #55 ) ;
#174 = PERSON_AND_ORGANIZATION_ROLE ( 'classification_officer' ) ;
#175 = DESIGN_CONTEXT ( 'detailed design', #86, 'design' ) ;
#176 = CALENDAR_DATE ( 2026, 22, 6 ) ;
#177 = SECURITY_CLASSIFICATION_LEVEL ( 'unclassified' ) ;
#178 = LOCAL_TIME ( 18, 49, 59.00000000000000000, #56 ) ;
#179 = CC_DESIGN_PERSON_AND_ORGANIZATION_ASSIGNMENT ( #214, #329, ( #58 ) ) ;
#180 = CALENDAR_DATE ( 2026, 22, 6 ) ;
#181 = CALENDAR_DATE ( 2026, 22, 6 ) ;
#182 = PERSON_AND_ORGANIZATION ( #18446744073709551615, #18446744073709551615 ) ;
#183 = IDENTIFICATION_ROLE ( 'external document id and location', $) ;
#184 = ROLE_ASSOCIATION ( #298, #23 ) ;
#185 = DATE_AND_TIME ( #180, #85 ) ;
#186 = SHAPE_DEFINITION_REPRESENTATION ( #171, #82 ) ;
#187 = COORDINATED_UNIVERSAL_TIME_OFFSET ( 10, 0, .AHEAD. ) ;
#188 = PERSON_AND_ORGANIZATION ( #18446744073709551615, #18446744073709551615 ) ;
#189 = LOCAL_TIME ( 18, 49, 59.00000000000000000, #138 ) ;
#190 = CC_DESIGN_PERSON_AND_ORGANIZATION_ASSIGNMENT ( #323, #92, ( #350 ) ) ;
#191 = PERSON_AND_ORGANIZATION ( #18446744073709551615, #18446744073709551615 ) ;
#192 = DATE_AND_TIME ( #340, #205 ) ;
#193 = MECHANICAL_CONTEXT ( 'NONE', #224, 'mechanical' ) ;
#194 = SECURITY_CLASSIFICATION ( '', '', #368 ) ;
#195 = APPROVAL_PERSON_ORGANIZATION ( #182, #196, #128 ) ;
#196 = APPROVAL ( #29, 'Coincident' ) ;
#197 = APPROVAL_ROLE ( '' ) ;
#198 = PRODUCT_DEFINITION_SHAPE ( 'NONE', 'NONE',  #388 ) ;
#199 = PROPERTY_DEFINITION_REPRESENTATION ( #369, #71 ) ;
#200 = APPLICATION_PROTOCOL_DEFINITION ( 'international standard', 'config_control_design', 1994, #204 ) ;
#201 = APPROVAL_ROLE ( '' ) ;
#202 = APPROVAL_PERSON_ORGANIZATION ( #225, #99, #7 ) ;
#203 = CC_DESIGN_DATE_AND_TIME_ASSIGNMENT ( #24, #65, ( #194 ) ) ;
#204 = APPLICATION_CONTEXT ( 'configuration controlled 3d designs of mechanical parts and assemblies' ) ;
#205 = LOCAL_TIME ( 18, 49, 59.00000000000000000, #307 ) ;
#206 = PERSON ( 'NAUO-PER232', 'UNSPECIFIED', 'UNSPECIFIED', ('UNSPECIFIED'), ('UNSPECIFIED'), ('UNSPECIFIED') ) ;
#207 = LOCAL_TIME ( 18, 49, 59.00000000000000000, #62 ) ;
#208 = APPROVAL_DATE_TIME ( #265, #230 ) ;
#209 = CALENDAR_DATE ( 2026, 22, 6 ) ;
#210 = APPLICATION_PROTOCOL_DEFINITION ( 'international standard', 'config_control_design', 1994, #39 ) ;
#211 =( GEOMETRIC_REPRESENTATION_CONTEXT ( 3 ) GLOBAL_UNCERTAINTY_ASSIGNED_CONTEXT ( ( #245 ) ) GLOBAL_UNIT_ASSIGNED_CONTEXT ( ( #113, #318, #267 ) ) REPRESENTATION_CONTEXT ( 'NONE', 'WORKASPACE' ) );
#212 = CC_DESIGN_APPROVAL ( #230, ( #144 ) ) ;
#213 = APPROVAL ( #280, 'Coincident' ) ;
#214 = PERSON_AND_ORGANIZATION ( #18446744073709551615, #18446744073709551615 ) ;
#215 = DATE_TIME_ROLE ( 'classification_date' ) ;
#216 = APPROVAL_STATUS ( 'not_yet_approved' ) ;
#217 = ORGANIZATION ( 'NAUO-ORG233', 'UNSPECIFIED', 'UNSPECIFIED' ) ;
#218 = CALENDAR_DATE ( 2026, 22, 6 ) ;
#219 = DATE_AND_TIME ( #98, #292 ) ;
#220 = CC_DESIGN_DATE_AND_TIME_ASSIGNMENT ( #219, #335, ( #74 ) ) ;
#221 = DATE_AND_TIME ( #279, #276 ) ;
#222 = COORDINATED_UNIVERSAL_TIME_OFFSET ( 10, 0, .AHEAD. ) ;
#223 = APPROVAL_PERSON_ORGANIZATION ( #153, #8, #197 ) ;
#224 = APPLICATION_CONTEXT ( 'configuration controlled 3d designs of mechanical parts and assemblies' ) ;
#225 = PERSON_AND_ORGANIZATION ( #18446744073709551615, #18446744073709551615 ) ;
#226 = APPLICATION_PROTOCOL_DEFINITION ( 'international standard', 'config_control_design', 1994, #224 ) ;
#227 = DATE_AND_TIME ( #47, #106 ) ;
#228 = SECURITY_CLASSIFICATION ( '', '', #237 ) ;
#229 = PRODUCT_DEFINITION_SHAPE ( 'NONE', 'NONE',  #390 ) ;
#230 = APPROVAL ( #379, 'UNKNOWN' ) ;
#231 = DIRECTION ( 'NONE',  ( 1.000000000000000000, 0.000000000000000000, 0.000000000000000000 ) ) ;
#232 = PRODUCT_DEFINITION_SHAPE ( 'NONE', 'NONE',  #58 ) ;
#233 = DATE_AND_TIME ( #143, #15 ) ;
#234 = DIRECTION ( 'NONE',  ( 0.000000000000000000, 0.000000000000000000, 1.000000000000000000 ) ) ;
#235 = PROPERTY_DEFINITION_REPRESENTATION ( #286, #97 ) ;
#236 = CC_DESIGN_APPROVAL ( #99, ( #140 ) ) ;
#237 = SECURITY_CLASSIFICATION_LEVEL ( 'unclassified' ) ;
#238 =( NAMED_UNIT ( * ) SI_UNIT ( $, .STERADIAN. ) SOLID_ANGLE_UNIT ( ) );
#239 = PRODUCT_RELATED_PRODUCT_CATEGORY ( 'detail', '', ( #111 ) ) ;
#240 = APPROVAL_ROLE ( '' ) ;
#241 = SECURITY_CLASSIFICATION ( '', '', #42 ) ;
#242 = CC_DESIGN_DATE_AND_TIME_ASSIGNMENT ( #233, #268, ( #144 ) ) ;
#243 = COORDINATED_UNIVERSAL_TIME_OFFSET ( 10, 0, .AHEAD. ) ;
#244 = DOCUMENT_TYPE ( 'geometry' ) ;
#245 = UNCERTAINTY_MEASURE_WITH_UNIT (LENGTH_MEASURE( 1.000000000000000082E-05 ), #113, 'distance_accuracy_value', 'NONE');
#246 = DIRECTION ( 'NONE',  ( 1.000000000000000000, 0.000000000000000000, 0.000000000000000000 ) ) ;
#247 = CALENDAR_DATE ( 2026, 22, 6 ) ;
#248 = CC_DESIGN_SECURITY_CLASSIFICATION ( #241, ( #59 ) ) ;
#249 = PERSON_AND_ORGANIZATION_ROLE ( 'design_owner' ) ;
#250 = DATE_AND_TIME ( #131, #299 ) ;
#251 = PROPERTY_DEFINITION ('external definition','', #1 ) ;
#252 = CC_DESIGN_DATE_AND_TIME_ASSIGNMENT ( #354, #215, ( #228 ) ) ;
#253 = PERSON_AND_ORGANIZATION ( #18446744073709551615, #18446744073709551615 ) ;
#254 = LOCAL_TIME ( 18, 49, 59.00000000000000000, #93 ) ;
#255 = LOCAL_TIME ( 18, 49, 59.00000000000000000, #313 ) ;
#256 = APPROVAL_STATUS ( 'not_yet_approved' ) ;
#257 = PERSON_AND_ORGANIZATION_ROLE ( 'creator' ) ;
#258 = CC_DESIGN_PERSON_AND_ORGANIZATION_ASSIGNMENT ( #157, #249, ( #111 ) ) ;
#259 = APPROVAL_DATE_TIME ( #250, #341 ) ;
#260 = PRODUCT_DEFINITION_SHAPE ( 'NONE', 'NONE',  #140 ) ;
#261 = DOCUMENT_FILE ( '6461079856.step.STEP' , '', '', #351, '' ,$ ) ;
#262 = CC_DESIGN_APPROVAL ( #8, ( #228 ) ) ;
#263 = COORDINATED_UNIVERSAL_TIME_OFFSET ( 10, 0, .AHEAD. ) ;
#264 = CC_DESIGN_PERSON_AND_ORGANIZATION_ASSIGNMENT ( #153, #27, ( #228 ) ) ;
#265 = DATE_AND_TIME ( #352, #178 ) ;
#266 = EXTERNAL_SOURCE (IDENTIFIER('') ) ;
#267 =( NAMED_UNIT ( * ) SI_UNIT ( $, .STERADIAN. ) SOLID_ANGLE_UNIT ( ) );
#268 = DATE_TIME_ROLE ( 'classification_date' ) ;
#269 = CARTESIAN_POINT ( 'NONE',  ( 0.000000000000000000, 0.000000000000000000, 0.000000000000000000 ) ) ;
#270 = LOCAL_TIME ( 18, 49, 59.00000000000000000, #243 ) ;
#271 = DATE_AND_TIME ( #68, #270 ) ;
#272 = PERSON_AND_ORGANIZATION_ROLE ( 'creator' ) ;
#273 = DATE_TIME_ROLE ( 'creation_date' ) ;
#274 = PERSON_AND_ORGANIZATION ( #18446744073709551615, #18446744073709551615 ) ;
#275 = COORDINATED_UNIVERSAL_TIME_OFFSET ( 10, 0, .AHEAD. ) ;
#276 = LOCAL_TIME ( 18, 49, 59.00000000000000000, #38 ) ;
#277 = DATE_AND_TIME ( #101, #255 ) ;
#278 = APPROVAL ( #216, 'Coincident' ) ;
#279 = CALENDAR_DATE ( 2026, 22, 6 ) ;
#280 = APPROVAL_STATUS ( 'not_yet_approved' ) ;
#281 = IDENTIFICATION_ROLE ( 'external document id and location', $) ;
#282 = CC_DESIGN_APPROVAL ( #132, ( #162 ) ) ;
#283 = CC_DESIGN_SECURITY_CLASSIFICATION ( #345, ( #388 ) ) ;
#284 = SHAPE_DEFINITION_REPRESENTATION ( #232, #97 ) ;
#285 = COORDINATED_UNIVERSAL_TIME_OFFSET ( 10, 0, .AHEAD. ) ;
#286 = PROPERTY_DEFINITION ('external definition','', #293 ) ;
#287 = APPLIED_DOCUMENT_REFERENCE ( #293,'',( #58) ) ;
#288 = CARTESIAN_POINT ( 'NONE',  ( 20.59999948117200219, 2.850002563477001871, -2.058321952819998302 ) ) ;
#289 = CC_DESIGN_PERSON_AND_ORGANIZATION_ASSIGNMENT ( #310, #73, ( #367 ) ) ;
#290 = ITEM_DEFINED_TRANSFORMATION ( 'NONE', 'NONE', #325,  #172 ) ;
#291 = DIRECTION ( 'NONE',  ( 4.890937612370273194E-29, -3.155443620884047222E-30, 0.9999999999999997780 ) ) ;
#292 = LOCAL_TIME ( 18, 49, 59.00000000000000000, #163 ) ;
#293 = DOCUMENT_FILE ( '6534431024.step.STEP' , '', '', #16, '' ,$ ) ;
#294 = MECHANICAL_CONTEXT ( 'NONE', #204, 'mechanical' ) ;
#295 = CALENDAR_DATE ( 2026, 22, 6 ) ;
#296 = CARTESIAN_POINT ( 'NONE',  ( 0.000000000000000000, 0.000000000000000000, 0.000000000000000000 ) ) ;
#297 = DATE_AND_TIME ( #209, #90 ) ;
#298 = OBJECT_ROLE ('mandatory',$ ) ;
#299 = LOCAL_TIME ( 18, 49, 59.00000000000000000, #285 ) ;
#300 = DATE_AND_TIME ( #155, #254 ) ;
#301 = DATE_AND_TIME ( #181, #207 ) ;
#302 = OBJECT_ROLE ('mandatory',$ ) ;
#303 = APPLIED_EXTERNAL_IDENTIFICATION_ASSIGNMENT ( '6534431024.step.STEP' , #281, #266,( #293) ) ;
#304 = APPROVAL_DATE_TIME ( #300, #132 ) ;
#305 = APPLICATION_PROTOCOL_DEFINITION ( 'international standard', 'config_control_design', 1994, #142 ) ;
#306 = APPROVAL ( #256, 'Coincident' ) ;
#307 = COORDINATED_UNIVERSAL_TIME_OFFSET ( 10, 0, .AHEAD. ) ;
#308 = APPROVAL_PERSON_ORGANIZATION ( #165, #213, #9 ) ;
#309 = PERSON_AND_ORGANIZATION_ROLE ( 'design_supplier' ) ;
#310 = PERSON_AND_ORGANIZATION ( #18446744073709551615, #18446744073709551615 ) ;
#311 = APPROVAL_DATE_TIME ( #192, #213 ) ;
#312 = LOCAL_TIME ( 18, 49, 59.00000000000000000, #222 ) ;
#313 = COORDINATED_UNIVERSAL_TIME_OFFSET ( 10, 0, .AHEAD. ) ;
#314 = DATE_AND_TIME ( #349, #326 ) ;
#315 = APPROVAL_ROLE ( '' ) ;
#316 = CARTESIAN_POINT ( 'NONE',  ( 20.59999948117200574, 3.850002563476999207, -2.058321952820000078 ) ) ;
#317 = APPLIED_DOCUMENT_REFERENCE ( #1,'',( #140) ) ;
#318 =( NAMED_UNIT ( * ) PLANE_ANGLE_UNIT ( ) SI_UNIT ( $, .RADIAN. ) );
#319 = LOCAL_TIME ( 18, 49, 59.00000000000000000, #275 ) ;
#320 = APPLICATION_CONTEXT ( 'configuration controlled 3d designs of mechanical parts and assemblies' ) ;
#321 = CC_DESIGN_PERSON_AND_ORGANIZATION_ASSIGNMENT ( #150, #26, ( #194 ) ) ;
#322 = APPROVAL_DATE_TIME ( #170, #328 ) ;
#323 = PERSON_AND_ORGANIZATION ( #18446744073709551615, #18446744073709551615 ) ;
#324 = PERSON_AND_ORGANIZATION ( #18446744073709551615, #18446744073709551615 ) ;
#325 = AXIS2_PLACEMENT_3D ( 'NONE', #357, #291, #169 ) ;
#326 = LOCAL_TIME ( 18, 49, 59.00000000000000000, #18 ) ;
#327 = CONTEXT_DEPENDENT_SHAPE_REPRESENTATION ( #63, #229 ) ;
#328 = APPROVAL ( #166, 'UNKNOWN' ) ;
#329 = PERSON_AND_ORGANIZATION_ROLE ( 'creator' ) ;
#330 = PERSON_AND_ORGANIZATION ( #18446744073709551615, #18446744073709551615 ) ;
#331 = APPROVAL_STATUS ( 'not_yet_approved' ) ;
#332 = ORGANIZATION ( 'NAUO-ORG234', 'UNSPECIFIED', 'UNSPECIFIED' ) ;
#333 = DATE_AND_TIME ( #218, #31 ) ;
#334 = CC_DESIGN_DATE_AND_TIME_ASSIGNMENT ( #185, #273, ( #162 ) ) ;
#335 = DATE_TIME_ROLE ( 'classification_date' ) ;
#336 = CC_DESIGN_PERSON_AND_ORGANIZATION_ASSIGNMENT ( #13, #81, ( #345 ) ) ;
#337 = APPROVAL_STATUS ( 'not_yet_approved' ) ;
#338 =( GEOMETRIC_REPRESENTATION_CONTEXT ( 3 ) GLOBAL_UNCERTAINTY_ASSIGNED_CONTEXT ( ( #386 ) ) GLOBAL_UNIT_ASSIGNED_CONTEXT ( ( #57, #110, #355 ) ) REPRESENTATION_CONTEXT ( 'NONE', 'WORKASPACE' ) );
#339 = APPLIED_EXTERNAL_IDENTIFICATION_ASSIGNMENT ( '6461079856.step.STEP' , #183, #124,( #1) ) ;
#340 = CALENDAR_DATE ( 2026, 22, 6 ) ;
#341 = APPROVAL ( #344, 'Coincident' ) ;
#342 =( REPRESENTATION_RELATIONSHIP ('NONE','NONE', #82, #97 ) REPRESENTATION_RELATIONSHIP_WITH_TRANSFORMATION ( #290 )SHAPE_REPRESENTATION_RELATIONSHIP( ) );
#343 = CALENDAR_DATE ( 2026, 22, 6 ) ;
#344 = APPROVAL_STATUS ( 'not_yet_approved' ) ;
#345 = SECURITY_CLASSIFICATION ( '', '', #112 ) ;
#346 = ITEM_DEFINED_TRANSFORMATION ( 'NONE', 'NONE', #158,  #134 ) ;
#347 = PROPERTY_DEFINITION ('document property','', #293 ) ;
#348 = CC_DESIGN_PERSON_AND_ORGANIZATION_ASSIGNMENT ( #188, #309, ( #367 ) ) ;
#349 = CALENDAR_DATE ( 2026, 22, 6 ) ;
#350 = PRODUCT ( 'C22.step', 'C22.step', '', ( #294 ) ) ;
#351 = DOCUMENT_TYPE ( 'geometry' ) ;
#352 = CALENDAR_DATE ( 2026, 22, 6 ) ;
#353 = APPLIED_EXTERNAL_IDENTIFICATION_ASSIGNMENT ( '6461079856.step.STEP' , #365, #84,( #261) ) ;
#354 = DATE_AND_TIME ( #176, #173 ) ;
#355 =( NAMED_UNIT ( * ) SI_UNIT ( $, .STERADIAN. ) SOLID_ANGLE_UNIT ( ) );
#356 = DESIGN_CONTEXT ( 'detailed design', #320, 'design' ) ;
#357 = CARTESIAN_POINT ( 'NONE',  ( 20.59999948117199864, 3.350002563477002315, -2.058321952820000078 ) ) ;
#358 = CC_DESIGN_PERSON_AND_ORGANIZATION_ASSIGNMENT ( #372, #40, ( #74 ) ) ;
#359 = CALENDAR_DATE ( 2026, 22, 6 ) ;
#360 = CC_DESIGN_APPROVAL ( #149, ( #74 ) ) ;
#361 = DESIGN_CONTEXT ( 'detailed design', #39, 'design' ) ;
#362 = PERSON_AND_ORGANIZATION ( #18446744073709551615, #18446744073709551615 ) ;
#363 = PROPERTY_DEFINITION_REPRESENTATION ( #48, #71 ) ;
#364 = APPROVAL_ROLE ( '' ) ;
#365 = IDENTIFICATION_ROLE ( 'external document id and location', $) ;
#366 = COORDINATED_UNIVERSAL_TIME_OFFSET ( 10, 0, .AHEAD. ) ;
#367 = PRODUCT_DEFINITION_FORMATION_WITH_SPECIFIED_SOURCE ( 'Symmetric', '', #52, .NOT_KNOWN. ) ;
#368 = SECURITY_CLASSIFICATION_LEVEL ( 'unclassified' ) ;
#369 = PROPERTY_DEFINITION ('document property','', #1 ) ;
#370 = PERSON_AND_ORGANIZATION ( #18446744073709551615, #18446744073709551615 ) ;
#371 = OBJECT_ROLE ('mandatory',$ ) ;
#372 = PERSON_AND_ORGANIZATION ( #18446744073709551615, #18446744073709551615 ) ;
#373 = APPROVAL_PERSON_ORGANIZATION ( #324, #45, #240 ) ;
#374 = PERSON_AND_ORGANIZATION ( #18446744073709551615, #18446744073709551615 ) ;
#375 = PERSON_AND_ORGANIZATION ( #18446744073709551615, #18446744073709551615 ) ;
#376 = SHAPE_DEFINITION_REPRESENTATION ( #260, #71 ) ;
#377 = CC_DESIGN_PERSON_AND_ORGANIZATION_ASSIGNMENT ( #374, #11, ( #59 ) ) ;
#378 = CC_DESIGN_APPROVAL ( #45, ( #58 ) ) ;
#379 = APPROVAL_STATUS ( 'not_yet_approved' ) ;
#380 = APPROVAL_DATE_TIME ( #314, #149 ) ;
#381 =( NAMED_UNIT ( * ) PLANE_ANGLE_UNIT ( ) SI_UNIT ( $, .RADIAN. ) );
#382 = COORDINATED_UNIVERSAL_TIME_OFFSET ( 10, 0, .AHEAD. ) ;
#383 =( LENGTH_UNIT ( ) NAMED_UNIT ( * ) SI_UNIT ( .MILLI., .METRE. ) );
#384 = PROPERTY_DEFINITION_REPRESENTATION ( #347, #97 ) ;
#385 = APPROVAL_PERSON_ORGANIZATION ( #13, #328, #315 ) ;
#386 = UNCERTAINTY_MEASURE_WITH_UNIT (LENGTH_MEASURE( 1.000000000000000082E-05 ), #57, 'distance_accuracy_value', 'NONE');
#387 = CC_DESIGN_APPROVAL ( #213, ( #59 ) ) ;
#388 = NEXT_ASSEMBLY_USAGE_OCCURRENCE ( 'NAUO232', ' ', ' ', #162, #140, $ ) ;
#389 = NEXT_ASSEMBLY_USAGE_OCCURRENCE ( 'NAUO233', ' ', ' ', #162, #58, $ ) ;
#390 = NEXT_ASSEMBLY_USAGE_OCCURRENCE ( 'NAUO234', ' ', ' ', #162, #140, $ ) ;
ENDSEC;
END-ISO-10303-21;
