ISO-10303-21;
HEADER;
FILE_DESCRIPTION (( 'STEP AP203' ),
    '1' );
FILE_NAME ('C23.step.STEP',
    '2026-06-22T08:49:58',
    ( 'localuser' ),
    ( '' ),
    'SwSTEP 2.0',
    'SolidWorks 2025',
    '' );
FILE_SCHEMA (( 'CONFIG_CONTROL_DESIGN' ));
ENDSEC;

DATA;
#1 = DESIGN_CONTEXT ( 'detailed design', #242, 'design' ) ;
#2 = PERSON_AND_ORGANIZATION_ROLE ( 'classification_officer' ) ;
#3 = COORDINATED_UNIVERSAL_TIME_OFFSET ( 10, 0, .AHEAD. ) ;
#4 = DATE_AND_TIME ( #32, #301 ) ;
#5 = APPLIED_EXTERNAL_IDENTIFICATION_ASSIGNMENT ( '6461083056.step.STEP' , #305, #206,( #318) ) ;
#6 = APPROVAL_DATE_TIME ( #278, #52 ) ;
#7 = APPROVAL ( #151, 'Coincident' ) ;
#8 = DATE_AND_TIME ( #251, #207 ) ;
#9 = CARTESIAN_POINT ( 'NONE',  ( 0.000000000000000000, 0.000000000000000000, 0.000000000000000000 ) ) ;
#10 = PROPERTY_DEFINITION_REPRESENTATION ( #367, #241 ) ;
#11 = LOCAL_TIME ( 18, 49, 58.00000000000000000, #297 ) ;
#12 = PRODUCT_DEFINITION_FORMATION_WITH_SPECIFIED_SOURCE ( 'Symmetric', '', #231, .NOT_KNOWN. ) ;
#13 = PERSON_AND_ORGANIZATION_ROLE ( 'design_supplier' ) ;
#14 = SHAPE_DEFINITION_REPRESENTATION ( #175, #241 ) ;
#15 = PERSON_AND_ORGANIZATION_ROLE ( 'creator' ) ;
#16 = SECURITY_CLASSIFICATION ( '', '', #38 ) ;
#17 = PERSON_AND_ORGANIZATION_ROLE ( 'classification_officer' ) ;
#18 = CALENDAR_DATE ( 2026, 22, 6 ) ;
#19 = APPLICATION_CONTEXT ( 'configuration controlled 3d designs of mechanical parts and assemblies' ) ;
#20 = APPROVAL ( #123, 'Coincident' ) ;
#21 = PROPERTY_DEFINITION_REPRESENTATION ( #50, #105 ) ;
#22 = PERSON ( 'NAUO-PER231', 'UNSPECIFIED', 'UNSPECIFIED', ('UNSPECIFIED'), ('UNSPECIFIED'), ('UNSPECIFIED') ) ;
#23 = COORDINATED_UNIVERSAL_TIME_OFFSET ( 10, 0, .AHEAD. ) ;
#24 = PERSON_AND_ORGANIZATION ( #18446744073709551615, #18446744073709551615 ) ;
#25 = DATE_TIME_ROLE ( 'classification_date' ) ;
#26 = PRODUCT_DEFINITION_FORMATION_WITH_SPECIFIED_SOURCE ( 'Symmetric', '', #259, .NOT_KNOWN. ) ;
#27 = PERSON_AND_ORGANIZATION ( #18446744073709551615, #18446744073709551615 ) ;
#28 = MECHANICAL_CONTEXT ( 'NONE', #165, 'mechanical' ) ;
#29 = CC_DESIGN_DATE_AND_TIME_ASSIGNMENT ( #191, #328, ( #97 ) ) ;
#30 = APPLICATION_PROTOCOL_DEFINITION ( 'international standard', 'config_control_design', 1994, #19 ) ;
#31 = AXIS2_PLACEMENT_3D ( 'NONE', #299, #354, #267 ) ;
#32 = CALENDAR_DATE ( 2026, 22, 6 ) ;
#33 = EXTERNAL_SOURCE (IDENTIFIER('') ) ;
#34 = LOCAL_TIME ( 18, 49, 58.00000000000000000, #188 ) ;
#35 = CC_DESIGN_PERSON_AND_ORGANIZATION_ASSIGNMENT ( #187, #149, ( #97 ) ) ;
#36 = CALENDAR_DATE ( 2026, 22, 6 ) ;
#37 = COORDINATED_UNIVERSAL_TIME_OFFSET ( 10, 0, .AHEAD. ) ;
#38 = SECURITY_CLASSIFICATION_LEVEL ( 'unclassified' ) ;
#39 = CC_DESIGN_DATE_AND_TIME_ASSIGNMENT ( #186, #197, ( #272 ) ) ;
#40 =( NAMED_UNIT ( * ) SI_UNIT ( $, .STERADIAN. ) SOLID_ANGLE_UNIT ( ) );
#41 = ORGANIZATION ( 'NAUO-ORG230', 'UNSPECIFIED', 'UNSPECIFIED' ) ;
#42 = PROPERTY_DEFINITION_REPRESENTATION ( #250, #241 ) ;
#43 = APPLICATION_CONTEXT ( 'configuration controlled 3d designs of mechanical parts and assemblies' ) ;
#44 = PERSON_AND_ORGANIZATION ( #276, #41 ) ;
#45 = DIRECTION ( 'NONE',  ( 1.000000000000000000, 0.000000000000000000, 0.000000000000000000 ) ) ;
#46 = CALENDAR_DATE ( 2026, 22, 6 ) ;
#47 = CC_DESIGN_DATE_AND_TIME_ASSIGNMENT ( #274, #70, ( #61 ) ) ;
#48 = SECURITY_CLASSIFICATION_LEVEL ( 'unclassified' ) ;
#49 = DATE_AND_TIME ( #174, #376 ) ;
#50 = PROPERTY_DEFINITION ('document property','', #280 ) ;
#51 = APPROVAL_ROLE ( '' ) ;
#52 = APPROVAL ( #71, 'UNKNOWN' ) ;
#53 = PRODUCT_DEFINITION_SHAPE ( 'NONE', 'NONE',  #388 ) ;
#54 = LOCAL_TIME ( 18, 49, 58.00000000000000000, #357 ) ;
#55 = APPROVAL_ROLE ( '' ) ;
#56 = DESIGN_CONTEXT ( 'detailed design', #19, 'design' ) ;
#57 =( NAMED_UNIT ( * ) PLANE_ANGLE_UNIT ( ) SI_UNIT ( $, .RADIAN. ) );
#58 = PROPERTY_DEFINITION_REPRESENTATION ( #262, #105 ) ;
#59 = CALENDAR_DATE ( 2026, 22, 6 ) ;
#60 = CC_DESIGN_PERSON_AND_ORGANIZATION_ASSIGNMENT ( #85, #210, ( #285 ) ) ;
#61 = SECURITY_CLASSIFICATION ( '', '', #360 ) ;
#62 = CALENDAR_DATE ( 2026, 22, 6 ) ;
#63 = PERSON_AND_ORGANIZATION_ROLE ( 'design_owner' ) ;
#64 =( REPRESENTATION_RELATIONSHIP ('NONE','NONE', #159, #105 ) REPRESENTATION_RELATIONSHIP_WITH_TRANSFORMATION ( #373 )SHAPE_REPRESENTATION_RELATIONSHIP( ) );
#65 = SHAPE_DEFINITION_REPRESENTATION ( #110, #159 ) ;
#66 = CC_DESIGN_PERSON_AND_ORGANIZATION_ASSIGNMENT ( #172, #143, ( #349 ) ) ;
#67 = CC_DESIGN_APPROVAL ( #308, ( #103 ) ) ;
#68 = COORDINATED_UNIVERSAL_TIME_OFFSET ( 10, 0, .AHEAD. ) ;
#69 = CC_DESIGN_APPROVAL ( #150, ( #16 ) ) ;
#70 = DATE_TIME_ROLE ( 'classification_date' ) ;
#71 = APPROVAL_STATUS ( 'not_yet_approved' ) ;
#72 = CALENDAR_DATE ( 2026, 22, 6 ) ;
#73 = LOCAL_TIME ( 18, 49, 58.00000000000000000, #68 ) ;
#74 = COORDINATED_UNIVERSAL_TIME_OFFSET ( 10, 0, .AHEAD. ) ;
#75 = CALENDAR_DATE ( 2026, 22, 6 ) ;
#76 = ROLE_ASSOCIATION ( #320, #287 ) ;
#77 = APPROVAL_PERSON_ORGANIZATION ( #330, #7, #302 ) ;
#78 = PRODUCT_RELATED_PRODUCT_CATEGORY ( 'detail', '', ( #231 ) ) ;
#79 = DATE_AND_TIME ( #264, #383 ) ;
#80 = PROPERTY_DEFINITION_REPRESENTATION ( #108, #105 ) ;
#81 = EXTERNAL_SOURCE (IDENTIFIER('') ) ;
#82 = APPLIED_EXTERNAL_IDENTIFICATION_ASSIGNMENT ( '6461082896.step.STEP' , #100, #33,( #83) ) ;
#83 = DOCUMENT_FILE ( '6461082896.step.STEP' , '', '', #122, '' ,$ ) ;
#84 = COORDINATED_UNIVERSAL_TIME_OFFSET ( 10, 0, .AHEAD. ) ;
#85 = PERSON_AND_ORGANIZATION ( #18446744073709551615, #18446744073709551615 ) ;
#86 = DATE_TIME_ROLE ( 'creation_date' ) ;
#87 = CC_DESIGN_PERSON_AND_ORGANIZATION_ASSIGNMENT ( #44, #17, ( #222 ) ) ;
#88 =( GEOMETRIC_REPRESENTATION_CONTEXT ( 3 ) GLOBAL_UNCERTAINTY_ASSIGNED_CONTEXT ( ( #179 ) ) GLOBAL_UNIT_ASSIGNED_CONTEXT ( ( #163, #223, #167 ) ) REPRESENTATION_CONTEXT ( 'NONE', 'WORKASPACE' ) );
#89 = LOCAL_TIME ( 18, 49, 58.00000000000000000, #137 ) ;
#90 = PERSON_AND_ORGANIZATION ( #18446744073709551615, #18446744073709551615 ) ;
#91 = PERSON_AND_ORGANIZATION ( #18446744073709551615, #18446744073709551615 ) ;
#92 = APPROVAL_DATE_TIME ( #153, #20 ) ;
#93 = LOCAL_TIME ( 18, 49, 58.00000000000000000, #84 ) ;
#94 = APPROVAL_STATUS ( 'not_yet_approved' ) ;
#95 = LOCAL_TIME ( 18, 49, 58.00000000000000000, #96 ) ;
#96 = COORDINATED_UNIVERSAL_TIME_OFFSET ( 10, 0, .AHEAD. ) ;
#97 = PRODUCT_DEFINITION ( 'General', '', #26, #56 ) ;
#98 = APPROVAL_STATUS ( 'not_yet_approved' ) ;
#99 = DATE_TIME_ROLE ( 'classification_date' ) ;
#100 = IDENTIFICATION_ROLE ( 'external document id and location', $) ;
#101 = CC_DESIGN_SECURITY_CLASSIFICATION ( #170, ( #390 ) ) ;
#102 = CALENDAR_DATE ( 2026, 22, 6 ) ;
#103 = PRODUCT_DEFINITION ( 'General', '', #285, #1 ) ;
#104 = PERSON_AND_ORGANIZATION_ROLE ( 'classification_officer' ) ;
#105 = SHAPE_REPRESENTATION ( '6461082896.step', ( #371 ), #88 ) ;
#106 = ORGANIZATION ( 'NAUO-ORG231', 'UNSPECIFIED', 'UNSPECIFIED' ) ;
#107 = CC_DESIGN_PERSON_AND_ORGANIZATION_ASSIGNMENT ( #247, #211, ( #272 ) ) ;
#108 = PROPERTY_DEFINITION ('external definition','', #280 ) ;
#109 = APPROVAL_STATUS ( 'not_yet_approved' ) ;
#110 = PRODUCT_DEFINITION_SHAPE ( 'NONE', 'NONE',  #103 ) ;
#111 = CONTEXT_DEPENDENT_SHAPE_REPRESENTATION ( #369, #378 ) ;
#112 = CARTESIAN_POINT ( 'NONE',  ( 6.399998718232001949, 4.600002563477003648, -2.058321952820000078 ) ) ;
#113 = APPROVAL_PERSON_ORGANIZATION ( #268, #333, #55 ) ;
#114 = LOCAL_TIME ( 18, 49, 58.00000000000000000, #225 ) ;
#115 = DIRECTION ( 'NONE',  ( 4.890937612370273194E-29, -3.155443620884047222E-30, 0.9999999999999997780 ) ) ;
#116 = CC_DESIGN_PERSON_AND_ORGANIZATION_ASSIGNMENT ( #121, #156, ( #26 ) ) ;
#117 = PERSON_AND_ORGANIZATION ( #18446744073709551615, #18446744073709551615 ) ;
#118 = DATE_AND_TIME ( #155, #73 ) ;
#119 = CC_DESIGN_PERSON_AND_ORGANIZATION_ASSIGNMENT ( #258, #162, ( #139 ) ) ;
#120 = CC_DESIGN_APPROVAL ( #347, ( #61 ) ) ;
#121 = PERSON_AND_ORGANIZATION ( #18446744073709551615, #18446744073709551615 ) ;
#122 = DOCUMENT_TYPE ( 'geometry' ) ;
#123 = APPROVAL_STATUS ( 'not_yet_approved' ) ;
#124 = APPROVAL_ROLE ( '' ) ;
#125 = APPROVAL_PERSON_ORGANIZATION ( #253, #185, #304 ) ;
#126 = APPROVAL_DATE_TIME ( #4, #185 ) ;
#127 = LOCAL_TIME ( 18, 49, 58.00000000000000000, #366 ) ;
#128 = APPROVAL_STATUS ( 'not_yet_approved' ) ;
#129 = PERSON_AND_ORGANIZATION_ROLE ( 'creator' ) ;
#130 = CC_DESIGN_PERSON_AND_ORGANIZATION_ASSIGNMENT ( #230, #15, ( #103 ) ) ;
#131 = COORDINATED_UNIVERSAL_TIME_OFFSET ( 10, 0, .AHEAD. ) ;
#132 =( GEOMETRIC_REPRESENTATION_CONTEXT ( 3 ) GLOBAL_UNCERTAINTY_ASSIGNED_CONTEXT ( ( #359 ) ) GLOBAL_UNIT_ASSIGNED_CONTEXT ( ( #289, #135, #40 ) ) REPRESENTATION_CONTEXT ( 'NONE', 'WORKASPACE' ) );
#133 = DATE_AND_TIME ( #46, #238 ) ;
#134 = PERSON_AND_ORGANIZATION ( #18446744073709551615, #18446744073709551615 ) ;
#135 =( NAMED_UNIT ( * ) PLANE_ANGLE_UNIT ( ) SI_UNIT ( $, .RADIAN. ) );
#136 = APPROVAL_ROLE ( '' ) ;
#137 = COORDINATED_UNIVERSAL_TIME_OFFSET ( 10, 0, .AHEAD. ) ;
#138 = PRODUCT_RELATED_PRODUCT_CATEGORY ( 'detail', '', ( #259 ) ) ;
#139 = SECURITY_CLASSIFICATION ( '', '', #48 ) ;
#140 = COORDINATED_UNIVERSAL_TIME_OFFSET ( 10, 0, .AHEAD. ) ;
#141 = OBJECT_ROLE ('mandatory',$ ) ;
#142 = PERSON_AND_ORGANIZATION ( #22, #106 ) ;
#143 = PERSON_AND_ORGANIZATION_ROLE ( 'design_owner' ) ;
#144 = APPROVAL_DATE_TIME ( #79, #152 ) ;
#145 = PERSON_AND_ORGANIZATION_ROLE ( 'creator' ) ;
#146 = LOCAL_TIME ( 18, 49, 58.00000000000000000, #325 ) ;
#147 = CONTEXT_DEPENDENT_SHAPE_REPRESENTATION ( #64, #316 ) ;
#148 = DATE_TIME_ROLE ( 'classification_date' ) ;
#149 = PERSON_AND_ORGANIZATION_ROLE ( 'creator' ) ;
#150 = APPROVAL ( #98, 'Coincident' ) ;
#151 = APPROVAL_STATUS ( 'not_yet_approved' ) ;
#152 = APPROVAL ( #298, 'UNKNOWN' ) ;
#153 = DATE_AND_TIME ( #216, #245 ) ;
#154 = APPROVAL_DATE_TIME ( #307, #347 ) ;
#155 = CALENDAR_DATE ( 2026, 22, 6 ) ;
#156 = PERSON_AND_ORGANIZATION_ROLE ( 'design_supplier' ) ;
#157 = APPROVAL_PERSON_ORGANIZATION ( #90, #20, #124 ) ;
#158 = DATE_AND_TIME ( #72, #326 ) ;
#159 = SHAPE_REPRESENTATION ( 'C23.step', ( #177, #31, #204, #364 ), #337 ) ;
#160 = APPROVAL_PERSON_ORGANIZATION ( #142, #152, #136 ) ;
#161 = UNCERTAINTY_MEASURE_WITH_UNIT (LENGTH_MEASURE( 1.000000000000000082E-05 ), #232, 'distance_accuracy_value', 'NONE');
#162 = PERSON_AND_ORGANIZATION_ROLE ( 'classification_officer' ) ;
#163 =( LENGTH_UNIT ( ) NAMED_UNIT ( * ) SI_UNIT ( .MILLI., .METRE. ) );
#164 = PRODUCT_RELATED_PRODUCT_CATEGORY ( 'detail', '', ( #349 ) ) ;
#165 = APPLICATION_CONTEXT ( 'configuration controlled 3d designs of mechanical parts and assemblies' ) ;
#166 = DATE_TIME_ROLE ( 'classification_date' ) ;
#167 =( NAMED_UNIT ( * ) SI_UNIT ( $, .STERADIAN. ) SOLID_ANGLE_UNIT ( ) );
#168 = APPROVAL_ROLE ( '' ) ;
#169 = MECHANICAL_CONTEXT ( 'NONE', #265, 'mechanical' ) ;
#170 = SECURITY_CLASSIFICATION ( '', '', #260 ) ;
#171 = APPROVAL_STATUS ( 'not_yet_approved' ) ;
#172 = PERSON_AND_ORGANIZATION ( #18446744073709551615, #18446744073709551615 ) ;
#173 = APPROVAL ( #109, 'Coincident' ) ;
#174 = CALENDAR_DATE ( 2026, 22, 6 ) ;
#175 = PRODUCT_DEFINITION_SHAPE ( 'NONE', 'NONE',  #272 ) ;
#176 = COORDINATED_UNIVERSAL_TIME_OFFSET ( 10, 0, .AHEAD. ) ;
#177 = AXIS2_PLACEMENT_3D ( 'NONE', #249, #284, #203 ) ;
#178 = LOCAL_TIME ( 18, 49, 58.00000000000000000, #312 ) ;
#179 = UNCERTAINTY_MEASURE_WITH_UNIT (LENGTH_MEASURE( 1.000000000000000082E-05 ), #163, 'distance_accuracy_value', 'NONE');
#180 = APPLIED_DOCUMENT_REFERENCE ( #280,'',( #97) ) ;
#181 = DATE_AND_TIME ( #386, #93 ) ;
#182 = DATE_AND_TIME ( #59, #89 ) ;
#183 = SECURITY_CLASSIFICATION ( '', '', #324 ) ;
#184 = CC_DESIGN_APPROVAL ( #20, ( #97 ) ) ;
#185 = APPROVAL ( #94, 'Coincident' ) ;
#186 = DATE_AND_TIME ( #62, #146 ) ;
#187 = PERSON_AND_ORGANIZATION ( #18446744073709551615, #18446744073709551615 ) ;
#188 = COORDINATED_UNIVERSAL_TIME_OFFSET ( 10, 0, .AHEAD. ) ;
#189 = CC_DESIGN_APPROVAL ( #173, ( #183 ) ) ;
#190 = PERSON_AND_ORGANIZATION ( #18446744073709551615, #18446744073709551615 ) ;
#191 = DATE_AND_TIME ( #213, #34 ) ;
#192 = PERSON_AND_ORGANIZATION ( #18446744073709551615, #18446744073709551615 ) ;
#193 = APPROVAL_ROLE ( '' ) ;
#194 = APPROVAL_PERSON_ORGANIZATION ( #244, #347, #332 ) ;
#195 = CC_DESIGN_PERSON_AND_ORGANIZATION_ASSIGNMENT ( #192, #13, ( #12 ) ) ;
#196 = PERSON_AND_ORGANIZATION ( #18446744073709551615, #18446744073709551615 ) ;
#197 = DATE_TIME_ROLE ( 'creation_date' ) ;
#198 = CC_DESIGN_PERSON_AND_ORGANIZATION_ASSIGNMENT ( #24, #145, ( #285 ) ) ;
#199 = DIRECTION ( 'NONE',  ( 1.000000000000000000, 0.000000000000000000, 0.000000000000000000 ) ) ;
#200 = PRODUCT_DEFINITION_SHAPE ( 'NONE', 'NONE',  #97 ) ;
#201 = PROPERTY_DEFINITION_REPRESENTATION ( #290, #105 ) ;
#202 = APPROVAL_STATUS ( 'not_yet_approved' ) ;
#203 = DIRECTION ( 'NONE',  ( 1.000000000000000000, 0.000000000000000000, 0.000000000000000000 ) ) ;
#204 = AXIS2_PLACEMENT_3D ( 'NONE', #112, #115, #235 ) ;
#205 = CC_DESIGN_PERSON_AND_ORGANIZATION_ASSIGNMENT ( #368, #129, ( #12 ) ) ;
#206 = EXTERNAL_SOURCE (IDENTIFIER('') ) ;
#207 = LOCAL_TIME ( 18, 49, 58.00000000000000000, #309 ) ;
#208 = LOCAL_TIME ( 18, 49, 58.00000000000000000, #176 ) ;
#209 =( NAMED_UNIT ( * ) SI_UNIT ( $, .STERADIAN. ) SOLID_ANGLE_UNIT ( ) );
#210 = PERSON_AND_ORGANIZATION_ROLE ( 'design_supplier' ) ;
#211 = PERSON_AND_ORGANIZATION_ROLE ( 'creator' ) ;
#212 = CC_DESIGN_PERSON_AND_ORGANIZATION_ASSIGNMENT ( #190, #303, ( #26 ) ) ;
#213 = CALENDAR_DATE ( 2026, 22, 6 ) ;
#214 = PERSON_AND_ORGANIZATION_ROLE ( 'design_owner' ) ;
#215 = APPROVAL_DATE_TIME ( #270, #173 ) ;
#216 = CALENDAR_DATE ( 2026, 22, 6 ) ;
#217 = COORDINATED_UNIVERSAL_TIME_OFFSET ( 10, 0, .AHEAD. ) ;
#218 = CC_DESIGN_DATE_AND_TIME_ASSIGNMENT ( #158, #99, ( #16 ) ) ;
#219 = APPROVAL_DATE_TIME ( #336, #292 ) ;
#220 = APPROVAL_PERSON_ORGANIZATION ( #355, #308, #317 ) ;
#221 = DATE_AND_TIME ( #343, #178 ) ;
#222 = SECURITY_CLASSIFICATION ( '', '', #288 ) ;
#223 =( NAMED_UNIT ( * ) PLANE_ANGLE_UNIT ( ) SI_UNIT ( $, .RADIAN. ) );
#224 = IDENTIFICATION_ROLE ( 'external document id and location', $) ;
#225 = COORDINATED_UNIVERSAL_TIME_OFFSET ( 10, 0, .AHEAD. ) ;
#226 = AXIS2_PLACEMENT_3D ( 'NONE', #346, #374, #199 ) ;
#227 = CC_DESIGN_SECURITY_CLASSIFICATION ( #61, ( #26 ) ) ;
#228 = CC_DESIGN_DATE_AND_TIME_ASSIGNMENT ( #296, #25, ( #170 ) ) ;
#229 = CALENDAR_DATE ( 2026, 22, 6 ) ;
#230 = PERSON_AND_ORGANIZATION ( #18446744073709551615, #18446744073709551615 ) ;
#231 = PRODUCT ( '6461083056.step', '6461083056.step', '', ( #269 ) ) ;
#232 =( LENGTH_UNIT ( ) NAMED_UNIT ( * ) SI_UNIT ( .MILLI., .METRE. ) );
#233 = LOCAL_TIME ( 18, 49, 58.00000000000000000, #217 ) ;
#234 = DATE_AND_TIME ( #384, #11 ) ;
#235 = DIRECTION ( 'NONE',  ( 1.000000000000000222, -1.092455418989176591E-28, 4.890937612370273194E-29 ) ) ;
#236 = CC_DESIGN_PERSON_AND_ORGANIZATION_ASSIGNMENT ( #27, #294, ( #183 ) ) ;
#237 = APPLICATION_PROTOCOL_DEFINITION ( 'international standard', 'config_control_design', 1994, #165 ) ;
#238 = LOCAL_TIME ( 18, 49, 58.00000000000000000, #74 ) ;
#239 = CC_DESIGN_DATE_AND_TIME_ASSIGNMENT ( #8, #166, ( #222 ) ) ;
#240 = CALENDAR_DATE ( 2026, 22, 6 ) ;
#241 = SHAPE_REPRESENTATION ( '6461083056.step', ( #226 ), #132 ) ;
#242 = APPLICATION_CONTEXT ( 'configuration controlled 3d designs of mechanical parts and assemblies' ) ;
#243 = APPROVAL_STATUS ( 'not_yet_approved' ) ;
#244 = PERSON_AND_ORGANIZATION ( #18446744073709551615, #18446744073709551615 ) ;
#245 = LOCAL_TIME ( 18, 49, 58.00000000000000000, #3 ) ;
#246 = DESIGN_CONTEXT ( 'detailed design', #43, 'design' ) ;
#247 = PERSON_AND_ORGANIZATION ( #18446744073709551615, #18446744073709551615 ) ;
#248 = CALENDAR_DATE ( 2026, 22, 6 ) ;
#249 = CARTESIAN_POINT ( 'NONE',  ( 0.000000000000000000, 0.000000000000000000, 0.000000000000000000 ) ) ;
#250 = PROPERTY_DEFINITION ('external definition','', #318 ) ;
#251 = CALENDAR_DATE ( 2026, 22, 6 ) ;
#252 = APPLICATION_PROTOCOL_DEFINITION ( 'international standard', 'config_control_design', 1994, #265 ) ;
#253 = PERSON_AND_ORGANIZATION ( #18446744073709551615, #18446744073709551615 ) ;
#254 = CC_DESIGN_APPROVAL ( #7, ( #26 ) ) ;
#255 = ITEM_DEFINED_TRANSFORMATION ( 'NONE', 'NONE', #31,  #226 ) ;
#256 = DATE_AND_TIME ( #102, #95 ) ;
#257 = CC_DESIGN_PERSON_AND_ORGANIZATION_ASSIGNMENT ( #306, #63, ( #259 ) ) ;
#258 = PERSON_AND_ORGANIZATION ( #385, #313 ) ;
#259 = PRODUCT ( '6461082896.step', '6461082896.step', '', ( #28 ) ) ;
#260 = SECURITY_CLASSIFICATION_LEVEL ( 'unclassified' ) ;
#261 = CC_DESIGN_APPROVAL ( #152, ( #170 ) ) ;
#262 = PROPERTY_DEFINITION ('external definition','', #83 ) ;
#263 = CC_DESIGN_DATE_AND_TIME_ASSIGNMENT ( #221, #334, ( #139 ) ) ;
#264 = CALENDAR_DATE ( 2026, 22, 6 ) ;
#265 = APPLICATION_CONTEXT ( 'configuration controlled 3d designs of mechanical parts and assemblies' ) ;
#266 = APPROVAL_DATE_TIME ( #234, #308 ) ;
#267 = DIRECTION ( 'NONE',  ( 1.000000000000000222, -1.092455418989176591E-28, 4.890937612370273194E-29 ) ) ;
#268 = PERSON_AND_ORGANIZATION ( #18446744073709551615, #18446744073709551615 ) ;
#269 = MECHANICAL_CONTEXT ( 'NONE', #283, 'mechanical' ) ;
#270 = DATE_AND_TIME ( #18, #208 ) ;
#271 = APPROVAL_PERSON_ORGANIZATION ( #44, #52, #339 ) ;
#272 = PRODUCT_DEFINITION ( 'General', '', #12, #246 ) ;
#273 = APPLICATION_PROTOCOL_DEFINITION ( 'international standard', 'config_control_design', 1994, #283 ) ;
#274 = DATE_AND_TIME ( #36, #127 ) ;
#275 = PERSON_AND_ORGANIZATION ( #18446744073709551615, #18446744073709551615 ) ;
#276 = PERSON ( 'NAUO-PER230', 'UNSPECIFIED', 'UNSPECIFIED', ('UNSPECIFIED'), ('UNSPECIFIED'), ('UNSPECIFIED') ) ;
#277 = CC_DESIGN_SECURITY_CLASSIFICATION ( #222, ( #389 ) ) ;
#278 = DATE_AND_TIME ( #75, #114 ) ;
#279 = CC_DESIGN_PERSON_AND_ORGANIZATION_ASSIGNMENT ( #275, #2, ( #61 ) ) ;
#280 = DOCUMENT_FILE ( '6461082896.step.STEP' , '', '', #341, '' ,$ ) ;
#281 = DIRECTION ( 'NONE',  ( 0.000000000000000000, 0.000000000000000000, 1.000000000000000000 ) ) ;
#282 = APPROVAL_DATE_TIME ( #256, #327 ) ;
#283 = APPLICATION_CONTEXT ( 'configuration controlled 3d designs of mechanical parts and assemblies' ) ;
#284 = DIRECTION ( 'NONE',  ( 0.000000000000000000, 0.000000000000000000, 1.000000000000000000 ) ) ;
#285 = PRODUCT_DEFINITION_FORMATION_WITH_SPECIFIED_SOURCE ( 'Symmetric', '', #349, .NOT_KNOWN. ) ;
#286 = CC_DESIGN_SECURITY_CLASSIFICATION ( #16, ( #12 ) ) ;
#287 = APPLIED_DOCUMENT_REFERENCE ( #318,'',( #272) ) ;
#288 = SECURITY_CLASSIFICATION_LEVEL ( 'unclassified' ) ;
#289 =( LENGTH_UNIT ( ) NAMED_UNIT ( * ) SI_UNIT ( .MILLI., .METRE. ) );
#290 = PROPERTY_DEFINITION ('document property','', #83 ) ;
#291 = APPROVAL_DATE_TIME ( #181, #333 ) ;
#292 = APPROVAL ( #128, 'Coincident' ) ;
#293 = ROLE_ASSOCIATION ( #300, #321 ) ;
#294 = PERSON_AND_ORGANIZATION_ROLE ( 'classification_officer' ) ;
#295 = APPROVAL_PERSON_ORGANIZATION ( #196, #292, #314 ) ;
#296 = DATE_AND_TIME ( #229, #319 ) ;
#297 = COORDINATED_UNIVERSAL_TIME_OFFSET ( 10, 0, .AHEAD. ) ;
#298 = APPROVAL_STATUS ( 'not_yet_approved' ) ;
#299 = CARTESIAN_POINT ( 'NONE',  ( 5.900002532930001209, 4.600002563477003648, -2.058321952820000078 ) ) ;
#300 = OBJECT_ROLE ('mandatory',$ ) ;
#301 = LOCAL_TIME ( 18, 49, 58.00000000000000000, #37 ) ;
#302 = APPROVAL_ROLE ( '' ) ;
#303 = PERSON_AND_ORGANIZATION_ROLE ( 'creator' ) ;
#304 = APPROVAL_ROLE ( '' ) ;
#305 = IDENTIFICATION_ROLE ( 'external document id and location', $) ;
#306 = PERSON_AND_ORGANIZATION ( #18446744073709551615, #18446744073709551615 ) ;
#307 = DATE_AND_TIME ( #240, #54 ) ;
#308 = APPROVAL ( #202, 'Coincident' ) ;
#309 = COORDINATED_UNIVERSAL_TIME_OFFSET ( 10, 0, .AHEAD. ) ;
#310 = CC_DESIGN_APPROVAL ( #292, ( #12 ) ) ;
#311 = APPROVAL_DATE_TIME ( #133, #150 ) ;
#312 = COORDINATED_UNIVERSAL_TIME_OFFSET ( 10, 0, .AHEAD. ) ;
#313 = ORGANIZATION ( 'NAUO-ORG229', 'UNSPECIFIED', 'UNSPECIFIED' ) ;
#314 = APPROVAL_ROLE ( '' ) ;
#315 = DIRECTION ( 'NONE',  ( 1.000000000000000222, -1.092455418989176591E-28, 4.890937612370273194E-29 ) ) ;
#316 = PRODUCT_DEFINITION_SHAPE ( 'NONE', 'NONE',  #389 ) ;
#317 = APPROVAL_ROLE ( '' ) ;
#318 = DOCUMENT_FILE ( '6461083056.step.STEP' , '', '', #351, '' ,$ ) ;
#319 = LOCAL_TIME ( 18, 49, 58.00000000000000000, #140 ) ;
#320 = OBJECT_ROLE ('mandatory',$ ) ;
#321 = APPLIED_DOCUMENT_REFERENCE ( #83,'',( #97) ) ;
#322 = APPLICATION_PROTOCOL_DEFINITION ( 'international standard', 'config_control_design', 1994, #242 ) ;
#323 = CC_DESIGN_DATE_AND_TIME_ASSIGNMENT ( #49, #86, ( #103 ) ) ;
#324 = SECURITY_CLASSIFICATION_LEVEL ( 'unclassified' ) ;
#325 = COORDINATED_UNIVERSAL_TIME_OFFSET ( 10, 0, .AHEAD. ) ;
#326 = LOCAL_TIME ( 18, 49, 58.00000000000000000, #131 ) ;
#327 = APPROVAL ( #171, 'UNKNOWN' ) ;
#328 = DATE_TIME_ROLE ( 'creation_date' ) ;
#329 = APPLICATION_PROTOCOL_DEFINITION ( 'international standard', 'config_control_design', 1994, #43 ) ;
#330 = PERSON_AND_ORGANIZATION ( #18446744073709551615, #18446744073709551615 ) ;
#331 = APPLIED_EXTERNAL_IDENTIFICATION_ASSIGNMENT ( '6461082896.step.STEP' , #224, #81,( #280) ) ;
#332 = APPROVAL_ROLE ( '' ) ;
#333 = APPROVAL ( #381, 'Coincident' ) ;
#334 = DATE_TIME_ROLE ( 'classification_date' ) ;
#335 = CC_DESIGN_PERSON_AND_ORGANIZATION_ASSIGNMENT ( #142, #353, ( #170 ) ) ;
#336 = DATE_AND_TIME ( #248, #233 ) ;
#337 =( GEOMETRIC_REPRESENTATION_CONTEXT ( 3 ) GLOBAL_UNCERTAINTY_ASSIGNED_CONTEXT ( ( #161 ) ) GLOBAL_UNIT_ASSIGNED_CONTEXT ( ( #232, #57, #209 ) ) REPRESENTATION_CONTEXT ( 'NONE', 'WORKASPACE' ) );
#338 = CC_DESIGN_APPROVAL ( #327, ( #139 ) ) ;
#339 = APPROVAL_ROLE ( '' ) ;
#340 = CC_DESIGN_PERSON_AND_ORGANIZATION_ASSIGNMENT ( #91, #214, ( #231 ) ) ;
#341 = DOCUMENT_TYPE ( 'geometry' ) ;
#342 = CONTEXT_DEPENDENT_SHAPE_REPRESENTATION ( #362, #53 ) ;
#343 = CALENDAR_DATE ( 2026, 22, 6 ) ;
#344 = CC_DESIGN_APPROVAL ( #333, ( #285 ) ) ;
#345 = CC_DESIGN_SECURITY_CLASSIFICATION ( #139, ( #388 ) ) ;
#346 = CARTESIAN_POINT ( 'NONE',  ( 0.000000000000000000, 0.000000000000000000, 0.000000000000000000 ) ) ;
#347 = APPROVAL ( #243, 'Coincident' ) ;
#348 = ITEM_DEFINED_TRANSFORMATION ( 'NONE', 'NONE', #364,  #371 ) ;
#349 = PRODUCT ( 'C23.step', 'C23.step', '', ( #169 ) ) ;
#350 = COORDINATED_UNIVERSAL_TIME_OFFSET ( 10, 0, .AHEAD. ) ;
#351 = DOCUMENT_TYPE ( 'geometry' ) ;
#352 = CC_DESIGN_APPROVAL ( #185, ( #272 ) ) ;
#353 = PERSON_AND_ORGANIZATION_ROLE ( 'classification_officer' ) ;
#354 = DIRECTION ( 'NONE',  ( 4.890937612370273194E-29, -3.155443620884047222E-30, 0.9999999999999997780 ) ) ;
#355 = PERSON_AND_ORGANIZATION ( #18446744073709551615, #18446744073709551615 ) ;
#356 = CC_DESIGN_PERSON_AND_ORGANIZATION_ASSIGNMENT ( #370, #104, ( #16 ) ) ;
#357 = COORDINATED_UNIVERSAL_TIME_OFFSET ( 10, 0, .AHEAD. ) ;
#358 = APPROVAL_PERSON_ORGANIZATION ( #134, #150, #193 ) ;
#359 = UNCERTAINTY_MEASURE_WITH_UNIT (LENGTH_MEASURE( 1.000000000000000082E-05 ), #289, 'distance_accuracy_value', 'NONE');
#360 = SECURITY_CLASSIFICATION_LEVEL ( 'unclassified' ) ;
#361 = APPROVAL_DATE_TIME ( #118, #7 ) ;
#362 =( REPRESENTATION_RELATIONSHIP ('NONE','NONE', #159, #241 ) REPRESENTATION_RELATIONSHIP_WITH_TRANSFORMATION ( #255 )SHAPE_REPRESENTATION_RELATIONSHIP( ) );
#363 = SHAPE_DEFINITION_REPRESENTATION ( #200, #105 ) ;
#364 = AXIS2_PLACEMENT_3D ( 'NONE', #380, #379, #315 ) ;
#365 = CC_DESIGN_APPROVAL ( #52, ( #222 ) ) ;
#366 = COORDINATED_UNIVERSAL_TIME_OFFSET ( 10, 0, .AHEAD. ) ;
#367 = PROPERTY_DEFINITION ('document property','', #318 ) ;
#368 = PERSON_AND_ORGANIZATION ( #18446744073709551615, #18446744073709551615 ) ;
#369 =( REPRESENTATION_RELATIONSHIP ('NONE','NONE', #159, #105 ) REPRESENTATION_RELATIONSHIP_WITH_TRANSFORMATION ( #348 )SHAPE_REPRESENTATION_RELATIONSHIP( ) );
#370 = PERSON_AND_ORGANIZATION ( #18446744073709551615, #18446744073709551615 ) ;
#371 = AXIS2_PLACEMENT_3D ( 'NONE', #9, #281, #45 ) ;
#372 = APPROVAL_PERSON_ORGANIZATION ( #117, #173, #51 ) ;
#373 = ITEM_DEFINED_TRANSFORMATION ( 'NONE', 'NONE', #204,  #371 ) ;
#374 = DIRECTION ( 'NONE',  ( 0.000000000000000000, 0.000000000000000000, 1.000000000000000000 ) ) ;
#375 = CC_DESIGN_DATE_AND_TIME_ASSIGNMENT ( #182, #148, ( #183 ) ) ;
#376 = LOCAL_TIME ( 18, 49, 58.00000000000000000, #350 ) ;
#377 = CC_DESIGN_SECURITY_CLASSIFICATION ( #183, ( #285 ) ) ;
#378 = PRODUCT_DEFINITION_SHAPE ( 'NONE', 'NONE',  #390 ) ;
#379 = DIRECTION ( 'NONE',  ( 4.890937612370273194E-29, -3.155443620884047222E-30, 0.9999999999999997780 ) ) ;
#380 = CARTESIAN_POINT ( 'NONE',  ( 5.400002532930001209, 4.600002563477000095, -2.058321952819998302 ) ) ;
#381 = APPROVAL_STATUS ( 'not_yet_approved' ) ;
#382 = ROLE_ASSOCIATION ( #141, #180 ) ;
#383 = LOCAL_TIME ( 18, 49, 58.00000000000000000, #23 ) ;
#384 = CALENDAR_DATE ( 2026, 22, 6 ) ;
#385 = PERSON ( 'NAUO-PER229', 'UNSPECIFIED', 'UNSPECIFIED', ('UNSPECIFIED'), ('UNSPECIFIED'), ('UNSPECIFIED') ) ;
#386 = CALENDAR_DATE ( 2026, 22, 6 ) ;
#387 = APPROVAL_PERSON_ORGANIZATION ( #258, #327, #168 ) ;
#388 = NEXT_ASSEMBLY_USAGE_OCCURRENCE ( 'NAUO229', ' ', ' ', #103, #272, $ ) ;
#389 = NEXT_ASSEMBLY_USAGE_OCCURRENCE ( 'NAUO230', ' ', ' ', #103, #97, $ ) ;
#390 = NEXT_ASSEMBLY_USAGE_OCCURRENCE ( 'NAUO231', ' ', ' ', #103, #97, $ ) ;
ENDSEC;
END-ISO-10303-21;
