ISO-10303-21;
HEADER;
FILE_DESCRIPTION (( 'STEP AP203' ),
    '1' );
FILE_NAME ('C24.step.STEP',
    '2026-06-22T08:49:58',
    ( 'localuser' ),
    ( '' ),
    'SwSTEP 2.0',
    'SolidWorks 2025',
    '' );
FILE_SCHEMA (( 'CONFIG_CONTROL_DESIGN' ));
ENDSEC;

DATA;
#1 = CC_DESIGN_PERSON_AND_ORGANIZATION_ASSIGNMENT ( #151, #7, ( #81 ) ) ;
#2 = UNCERTAINTY_MEASURE_WITH_UNIT (LENGTH_MEASURE( 1.000000000000000082E-05 ), #75, 'distance_accuracy_value', 'NONE');
#3 = APPROVAL_DATE_TIME ( #276, #186 ) ;
#4 = CC_DESIGN_PERSON_AND_ORGANIZATION_ASSIGNMENT ( #298, #383, ( #110 ) ) ;
#5 = CC_DESIGN_DATE_AND_TIME_ASSIGNMENT ( #102, #375, ( #189 ) ) ;
#6 = COORDINATED_UNIVERSAL_TIME_OFFSET ( 10, 0, .AHEAD. ) ;
#7 = PERSON_AND_ORGANIZATION_ROLE ( 'creator' ) ;
#8 = CC_DESIGN_APPROVAL ( #190, ( #189 ) ) ;
#9 =( NAMED_UNIT ( * ) PLANE_ANGLE_UNIT ( ) SI_UNIT ( $, .RADIAN. ) );
#10 = COORDINATED_UNIVERSAL_TIME_OFFSET ( 10, 0, .AHEAD. ) ;
#11 = PRODUCT_DEFINITION ( 'General', '', #147, #176 ) ;
#12 = APPROVAL_DATE_TIME ( #17, #320 ) ;
#13 = CARTESIAN_POINT ( 'NONE',  ( 18.84999948117200930, 6.900005615234003464, -2.058321952819998302 ) ) ;
#14 = CC_DESIGN_DATE_AND_TIME_ASSIGNMENT ( #210, #179, ( #81 ) ) ;
#15 = ROLE_ASSOCIATION ( #268, #67 ) ;
#16 = DIRECTION ( 'NONE',  ( 1.000000000000000000, 0.000000000000000000, 0.000000000000000000 ) ) ;
#17 = DATE_AND_TIME ( #287, #327 ) ;
#18 = PROPERTY_DEFINITION_REPRESENTATION ( #294, #215 ) ;
#19 = APPROVAL_DATE_TIME ( #139, #193 ) ;
#20 = CC_DESIGN_SECURITY_CLASSIFICATION ( #189, ( #389 ) ) ;
#21 = COORDINATED_UNIVERSAL_TIME_OFFSET ( 10, 0, .AHEAD. ) ;
#22 = APPLICATION_CONTEXT ( 'configuration controlled 3d designs of mechanical parts and assemblies' ) ;
#23 = PERSON_AND_ORGANIZATION_ROLE ( 'design_owner' ) ;
#24 = COORDINATED_UNIVERSAL_TIME_OFFSET ( 10, 0, .AHEAD. ) ;
#25 = CC_DESIGN_APPROVAL ( #186, ( #263 ) ) ;
#26 = APPROVAL_STATUS ( 'not_yet_approved' ) ;
#27 = CC_DESIGN_PERSON_AND_ORGANIZATION_ASSIGNMENT ( #83, #167, ( #255 ) ) ;
#28 = PERSON_AND_ORGANIZATION_ROLE ( 'creator' ) ;
#29 = PERSON_AND_ORGANIZATION ( #18446744073709551615, #18446744073709551615 ) ;
#30 = CC_DESIGN_APPROVAL ( #237, ( #147 ) ) ;
#31 = PERSON_AND_ORGANIZATION ( #18446744073709551615, #18446744073709551615 ) ;
#32 = CALENDAR_DATE ( 2026, 22, 6 ) ;
#33 = CC_DESIGN_PERSON_AND_ORGANIZATION_ASSIGNMENT ( #185, #123, ( #245 ) ) ;
#34 = CC_DESIGN_DATE_AND_TIME_ASSIGNMENT ( #220, #196, ( #318 ) ) ;
#35 = PERSON_AND_ORGANIZATION_ROLE ( 'classification_officer' ) ;
#36 = CALENDAR_DATE ( 2026, 22, 6 ) ;
#37 = LOCAL_TIME ( 18, 49, 58.00000000000000000, #87 ) ;
#38 = APPLICATION_CONTEXT ( 'configuration controlled 3d designs of mechanical parts and assemblies' ) ;
#39 = ROLE_ASSOCIATION ( #158, #103 ) ;
#40 = APPROVAL_DATE_TIME ( #98, #92 ) ;
#41 = CARTESIAN_POINT ( 'NONE',  ( 0.000000000000000000, 0.000000000000000000, 0.000000000000000000 ) ) ;
#42 = LOCAL_TIME ( 18, 49, 58.00000000000000000, #353 ) ;
#43 = CONTEXT_DEPENDENT_SHAPE_REPRESENTATION ( #57, #199 ) ;
#44 = DATE_TIME_ROLE ( 'classification_date' ) ;
#45 = PROPERTY_DEFINITION ('external definition','', #293 ) ;
#46 = PERSON_AND_ORGANIZATION_ROLE ( 'design_supplier' ) ;
#47 = PRODUCT ( 'C24.step', 'C24.step', '', ( #377 ) ) ;
#48 = APPROVAL_PERSON_ORGANIZATION ( #359, #175, #341 ) ;
#49 = APPROVAL_DATE_TIME ( #231, #109 ) ;
#50 = SHAPE_REPRESENTATION ( '6461082896.step', ( #270 ), #343 ) ;
#51 = SHAPE_DEFINITION_REPRESENTATION ( #230, #310 ) ;
#52 = CC_DESIGN_PERSON_AND_ORGANIZATION_ASSIGNMENT ( #88, #339, ( #263 ) ) ;
#53 = APPROVAL_ROLE ( '' ) ;
#54 = LOCAL_TIME ( 18, 49, 58.00000000000000000, #192 ) ;
#55 = COORDINATED_UNIVERSAL_TIME_OFFSET ( 10, 0, .AHEAD. ) ;
#56 = APPROVAL_DATE_TIME ( #304, #175 ) ;
#57 =( REPRESENTATION_RELATIONSHIP ('NONE','NONE', #310, #50 ) REPRESENTATION_RELATIONSHIP_WITH_TRANSFORMATION ( #223 )SHAPE_REPRESENTATION_RELATIONSHIP( ) );
#58 = DATE_AND_TIME ( #238, #302 ) ;
#59 = PERSON_AND_ORGANIZATION ( #18446744073709551615, #18446744073709551615 ) ;
#60 = LOCAL_TIME ( 18, 49, 58.00000000000000000, #118 ) ;
#61 = PERSON_AND_ORGANIZATION_ROLE ( 'design_supplier' ) ;
#62 = PRODUCT_RELATED_PRODUCT_CATEGORY ( 'detail', '', ( #261 ) ) ;
#63 = DATE_AND_TIME ( #346, #170 ) ;
#64 = COORDINATED_UNIVERSAL_TIME_OFFSET ( 10, 0, .AHEAD. ) ;
#65 = APPROVAL ( #338, 'Coincident' ) ;
#66 = APPLIED_EXTERNAL_IDENTIFICATION_ASSIGNMENT ( '6461082896.step.STEP' , #140, #121,( #293) ) ;
#67 = APPLIED_DOCUMENT_REFERENCE ( #385,'',( #81) ) ;
#68 = CALENDAR_DATE ( 2026, 22, 6 ) ;
#69 = PRODUCT_RELATED_PRODUCT_CATEGORY ( 'detail', '', ( #47 ) ) ;
#70 = DIRECTION ( 'NONE',  ( 0.000000000000000000, 0.000000000000000000, 1.000000000000000000 ) ) ;
#71 = PERSON_AND_ORGANIZATION_ROLE ( 'classification_officer' ) ;
#72 = PERSON ( 'NAUO-PER219', 'UNSPECIFIED', 'UNSPECIFIED', ('UNSPECIFIED'), ('UNSPECIFIED'), ('UNSPECIFIED') ) ;
#73 = LOCAL_TIME ( 18, 49, 58.00000000000000000, #24 ) ;
#74 = PERSON_AND_ORGANIZATION ( #187, #221 ) ;
#75 =( LENGTH_UNIT ( ) NAMED_UNIT ( * ) SI_UNIT ( .MILLI., .METRE. ) );
#76 = APPROVAL_ROLE ( '' ) ;
#77 = IDENTIFICATION_ROLE ( 'external document id and location', $) ;
#78 = PERSON_AND_ORGANIZATION_ROLE ( 'creator' ) ;
#79 =( GEOMETRIC_REPRESENTATION_CONTEXT ( 3 ) GLOBAL_UNCERTAINTY_ASSIGNED_CONTEXT ( ( #2 ) ) GLOBAL_UNIT_ASSIGNED_CONTEXT ( ( #75, #9, #97 ) ) REPRESENTATION_CONTEXT ( 'NONE', 'WORKASPACE' ) );
#80 = DATE_TIME_ROLE ( 'creation_date' ) ;
#81 = PRODUCT_DEFINITION ( 'General', '', #263, #172 ) ;
#82 = CALENDAR_DATE ( 2026, 22, 6 ) ;
#83 = PERSON_AND_ORGANIZATION ( #18446744073709551615, #18446744073709551615 ) ;
#84 = APPROVAL_PERSON_ORGANIZATION ( #324, #237, #116 ) ;
#85 = CC_DESIGN_APPROVAL ( #92, ( #340 ) ) ;
#86 = COORDINATED_UNIVERSAL_TIME_OFFSET ( 10, 0, .AHEAD. ) ;
#87 = COORDINATED_UNIVERSAL_TIME_OFFSET ( 10, 0, .AHEAD. ) ;
#88 = PERSON_AND_ORGANIZATION ( #18446744073709551615, #18446744073709551615 ) ;
#89 = APPROVAL_PERSON_ORGANIZATION ( #174, #94, #386 ) ;
#90 = CALENDAR_DATE ( 2026, 22, 6 ) ;
#91 = CC_DESIGN_SECURITY_CLASSIFICATION ( #289, ( #147 ) ) ;
#92 = APPROVAL ( #374, 'Coincident' ) ;
#93 = SECURITY_CLASSIFICATION_LEVEL ( 'unclassified' ) ;
#94 = APPROVAL ( #26, 'Coincident' ) ;
#95 = PROPERTY_DEFINITION_REPRESENTATION ( #380, #50 ) ;
#96 = PERSON ( 'NAUO-PER218', 'UNSPECIFIED', 'UNSPECIFIED', ('UNSPECIFIED'), ('UNSPECIFIED'), ('UNSPECIFIED') ) ;
#97 =( NAMED_UNIT ( * ) SI_UNIT ( $, .STERADIAN. ) SOLID_ANGLE_UNIT ( ) );
#98 = DATE_AND_TIME ( #36, #213 ) ;
#99 = DOCUMENT_TYPE ( 'geometry' ) ;
#100 =( LENGTH_UNIT ( ) NAMED_UNIT ( * ) SI_UNIT ( .MILLI., .METRE. ) );
#101 = APPROVAL_PERSON_ORGANIZATION ( #277, #186, #305 ) ;
#102 = DATE_AND_TIME ( #165, #54 ) ;
#103 = APPLIED_DOCUMENT_REFERENCE ( #293,'',( #81) ) ;
#104 = CC_DESIGN_DATE_AND_TIME_ASSIGNMENT ( #351, #337, ( #255 ) ) ;
#105 = PERSON_AND_ORGANIZATION ( #18446744073709551615, #18446744073709551615 ) ;
#106 = CARTESIAN_POINT ( 'NONE',  ( 0.000000000000000000, 0.000000000000000000, 0.000000000000000000 ) ) ;
#107 = APPROVAL_PERSON_ORGANIZATION ( #309, #65, #212 ) ;
#108 = PERSON_AND_ORGANIZATION ( #18446744073709551615, #18446744073709551615 ) ;
#109 = APPROVAL ( #111, 'Coincident' ) ;
#110 = PRODUCT ( '6461083056.step', '6461083056.step', '', ( #299 ) ) ;
#111 = APPROVAL_STATUS ( 'not_yet_approved' ) ;
#112 = PERSON_AND_ORGANIZATION_ROLE ( 'classification_officer' ) ;
#113 = APPROVAL_PERSON_ORGANIZATION ( #146, #211, #274 ) ;
#114 = CC_DESIGN_APPROVAL ( #211, ( #81 ) ) ;
#115 = PROPERTY_DEFINITION_REPRESENTATION ( #322, #215 ) ;
#116 = APPROVAL_ROLE ( '' ) ;
#117 = DATE_AND_TIME ( #272, #313 ) ;
#118 = COORDINATED_UNIVERSAL_TIME_OFFSET ( 10, 0, .AHEAD. ) ;
#119 = SECURITY_CLASSIFICATION ( '', '', #342 ) ;
#120 = SECURITY_CLASSIFICATION_LEVEL ( 'unclassified' ) ;
#121 = EXTERNAL_SOURCE (IDENTIFIER('') ) ;
#122 = CC_DESIGN_PERSON_AND_ORGANIZATION_ASSIGNMENT ( #108, #46, ( #147 ) ) ;
#123 = PERSON_AND_ORGANIZATION_ROLE ( 'creator' ) ;
#124 = APPROVAL_DATE_TIME ( #308, #65 ) ;
#125 =( GEOMETRIC_REPRESENTATION_CONTEXT ( 3 ) GLOBAL_UNCERTAINTY_ASSIGNED_CONTEXT ( ( #246 ) ) GLOBAL_UNIT_ASSIGNED_CONTEXT ( ( #286, #191, #194 ) ) REPRESENTATION_CONTEXT ( 'NONE', 'WORKASPACE' ) );
#126 = CALENDAR_DATE ( 2026, 22, 6 ) ;
#127 = LOCAL_TIME ( 18, 49, 58.00000000000000000, #195 ) ;
#128 = UNCERTAINTY_MEASURE_WITH_UNIT (LENGTH_MEASURE( 1.000000000000000082E-05 ), #100, 'distance_accuracy_value', 'NONE');
#129 = PROPERTY_DEFINITION_REPRESENTATION ( #250, #50 ) ;
#130 = APPROVAL_ROLE ( '' ) ;
#131 = COORDINATED_UNIVERSAL_TIME_OFFSET ( 10, 0, .AHEAD. ) ;
#132 = AXIS2_PLACEMENT_3D ( 'NONE', #13, #225, #260 ) ;
#133 = ORGANIZATION ( 'NAUO-ORG219', 'UNSPECIFIED', 'UNSPECIFIED' ) ;
#134 = CALENDAR_DATE ( 2026, 22, 6 ) ;
#135 = COORDINATED_UNIVERSAL_TIME_OFFSET ( 10, 0, .AHEAD. ) ;
#136 = PERSON_AND_ORGANIZATION ( #18446744073709551615, #18446744073709551615 ) ;
#137 = CC_DESIGN_SECURITY_CLASSIFICATION ( #318, ( #388 ) ) ;
#138 = CC_DESIGN_DATE_AND_TIME_ASSIGNMENT ( #280, #297, ( #366 ) ) ;
#139 = DATE_AND_TIME ( #200, #219 ) ;
#140 = IDENTIFICATION_ROLE ( 'external document id and location', $) ;
#141 = DATE_AND_TIME ( #82, #202 ) ;
#142 = PERSON_AND_ORGANIZATION ( #18446744073709551615, #18446744073709551615 ) ;
#143 = CC_DESIGN_APPROVAL ( #65, ( #366 ) ) ;
#144 = COORDINATED_UNIVERSAL_TIME_OFFSET ( 10, 0, .AHEAD. ) ;
#145 = PERSON_AND_ORGANIZATION ( #18446744073709551615, #18446744073709551615 ) ;
#146 = PERSON_AND_ORGANIZATION ( #18446744073709551615, #18446744073709551615 ) ;
#147 = PRODUCT_DEFINITION_FORMATION_WITH_SPECIFIED_SOURCE ( 'Symmetric', '', #47, .NOT_KNOWN. ) ;
#148 = CC_DESIGN_APPROVAL ( #193, ( #11 ) ) ;
#149 = APPROVAL_PERSON_ORGANIZATION ( #74, #358, #130 ) ;
#150 = SHAPE_DEFINITION_REPRESENTATION ( #168, #215 ) ;
#151 = PERSON_AND_ORGANIZATION ( #18446744073709551615, #18446744073709551615 ) ;
#152 = APPLICATION_PROTOCOL_DEFINITION ( 'international standard', 'config_control_design', 1994, #306 ) ;
#153 = APPROVAL_PERSON_ORGANIZATION ( #296, #193, #76 ) ;
#154 = DOCUMENT_FILE ( '6461083056.step.STEP' , '', '', #352, '' ,$ ) ;
#155 = ORGANIZATION ( 'NAUO-ORG218', 'UNSPECIFIED', 'UNSPECIFIED' ) ;
#156 = PROPERTY_DEFINITION_REPRESENTATION ( #368, #50 ) ;
#157 = DIRECTION ( 'NONE',  ( 0.000000000000000000, 0.000000000000000000, 1.000000000000000000 ) ) ;
#158 = OBJECT_ROLE ('mandatory',$ ) ;
#159 = COORDINATED_UNIVERSAL_TIME_OFFSET ( 10, 0, .AHEAD. ) ;
#160 = APPLICATION_PROTOCOL_DEFINITION ( 'international standard', 'config_control_design', 1994, #22 ) ;
#161 = PERSON_AND_ORGANIZATION ( #96, #155 ) ;
#162 =( NAMED_UNIT ( * ) PLANE_ANGLE_UNIT ( ) SI_UNIT ( $, .RADIAN. ) );
#163 = LOCAL_TIME ( 18, 49, 58.00000000000000000, #364 ) ;
#164 = CC_DESIGN_DATE_AND_TIME_ASSIGNMENT ( #367, #334, ( #340 ) ) ;
#165 = CALENDAR_DATE ( 2026, 22, 6 ) ;
#166 = CC_DESIGN_PERSON_AND_ORGANIZATION_ASSIGNMENT ( #382, #112, ( #289 ) ) ;
#167 = PERSON_AND_ORGANIZATION_ROLE ( 'creator' ) ;
#168 = PRODUCT_DEFINITION_SHAPE ( 'NONE', 'NONE',  #255 ) ;
#169 = APPLICATION_PROTOCOL_DEFINITION ( 'international standard', 'config_control_design', 1994, #38 ) ;
#170 = LOCAL_TIME ( 18, 49, 58.00000000000000000, #64 ) ;
#171 = APPLIED_DOCUMENT_REFERENCE ( #154,'',( #255) ) ;
#172 = DESIGN_CONTEXT ( 'detailed design', #329, 'design' ) ;
#173 = DIRECTION ( 'NONE',  ( 1.000000000000000000, 0.000000000000000000, 0.000000000000000000 ) ) ;
#174 = PERSON_AND_ORGANIZATION ( #18446744073709551615, #18446744073709551615 ) ;
#175 = APPROVAL ( #214, 'Coincident' ) ;
#176 = DESIGN_CONTEXT ( 'detailed design', #38, 'design' ) ;
#177 = CALENDAR_DATE ( 2026, 22, 6 ) ;
#178 = APPROVAL_PERSON_ORGANIZATION ( #256, #190, #315 ) ;
#179 = DATE_TIME_ROLE ( 'creation_date' ) ;
#180 = CC_DESIGN_PERSON_AND_ORGANIZATION_ASSIGNMENT ( #136, #78, ( #147 ) ) ;
#181 = MECHANICAL_CONTEXT ( 'NONE', #306, 'mechanical' ) ;
#182 = APPROVAL_STATUS ( 'not_yet_approved' ) ;
#183 =( REPRESENTATION_RELATIONSHIP ('NONE','NONE', #310, #215 ) REPRESENTATION_RELATIONSHIP_WITH_TRANSFORMATION ( #216 )SHAPE_REPRESENTATION_RELATIONSHIP( ) );
#184 = PERSON_AND_ORGANIZATION_ROLE ( 'classification_officer' ) ;
#185 = PERSON_AND_ORGANIZATION ( #18446744073709551615, #18446744073709551615 ) ;
#186 = APPROVAL ( #182, 'Coincident' ) ;
#187 = PERSON ( 'NAUO-PER220', 'UNSPECIFIED', 'UNSPECIFIED', ('UNSPECIFIED'), ('UNSPECIFIED'), ('UNSPECIFIED') ) ;
#188 = DATE_AND_TIME ( #68, #387 ) ;
#189 = SECURITY_CLASSIFICATION ( '', '', #93 ) ;
#190 = APPROVAL ( #253, 'UNKNOWN' ) ;
#191 =( NAMED_UNIT ( * ) PLANE_ANGLE_UNIT ( ) SI_UNIT ( $, .RADIAN. ) );
#192 = COORDINATED_UNIVERSAL_TIME_OFFSET ( 10, 0, .AHEAD. ) ;
#193 = APPROVAL ( #232, 'Coincident' ) ;
#194 =( NAMED_UNIT ( * ) SI_UNIT ( $, .STERADIAN. ) SOLID_ANGLE_UNIT ( ) );
#195 = COORDINATED_UNIVERSAL_TIME_OFFSET ( 10, 0, .AHEAD. ) ;
#196 = DATE_TIME_ROLE ( 'classification_date' ) ;
#197 = DIRECTION ( 'NONE',  ( 1.000000000000000222, -1.092455418989176591E-28, 4.890937612370273194E-29 ) ) ;
#198 = CC_DESIGN_APPROVAL ( #320, ( #318 ) ) ;
#199 = PRODUCT_DEFINITION_SHAPE ( 'NONE', 'NONE',  #388 ) ;
#200 = CALENDAR_DATE ( 2026, 22, 6 ) ;
#201 = CALENDAR_DATE ( 2026, 22, 6 ) ;
#202 = LOCAL_TIME ( 18, 49, 58.00000000000000000, #355 ) ;
#203 = APPLICATION_CONTEXT ( 'configuration controlled 3d designs of mechanical parts and assemblies' ) ;
#204 = COORDINATED_UNIVERSAL_TIME_OFFSET ( 10, 0, .AHEAD. ) ;
#205 = CALENDAR_DATE ( 2026, 22, 6 ) ;
#206 = CC_DESIGN_PERSON_AND_ORGANIZATION_ASSIGNMENT ( #31, #28, ( #263 ) ) ;
#207 = APPLICATION_PROTOCOL_DEFINITION ( 'international standard', 'config_control_design', 1994, #329 ) ;
#208 = CC_DESIGN_SECURITY_CLASSIFICATION ( #366, ( #245 ) ) ;
#209 = CALENDAR_DATE ( 2026, 22, 6 ) ;
#210 = DATE_AND_TIME ( #362, #37 ) ;
#211 = APPROVAL ( #240, 'Coincident' ) ;
#212 = APPROVAL_ROLE ( '' ) ;
#213 = LOCAL_TIME ( 18, 49, 58.00000000000000000, #131 ) ;
#214 = APPROVAL_STATUS ( 'not_yet_approved' ) ;
#215 = SHAPE_REPRESENTATION ( '6461083056.step', ( #335 ), #125 ) ;
#216 = ITEM_DEFINED_TRANSFORMATION ( 'NONE', 'NONE', #372,  #335 ) ;
#217 = APPROVAL_STATUS ( 'not_yet_approved' ) ;
#218 = CARTESIAN_POINT ( 'NONE',  ( 19.34999566647500302, 6.900005615234003464, -2.058321952820000078 ) ) ;
#219 = LOCAL_TIME ( 18, 49, 58.00000000000000000, #21 ) ;
#220 = DATE_AND_TIME ( #291, #127 ) ;
#221 = ORGANIZATION ( 'NAUO-ORG220', 'UNSPECIFIED', 'UNSPECIFIED' ) ;
#222 =( REPRESENTATION_RELATIONSHIP ('NONE','NONE', #310, #50 ) REPRESENTATION_RELATIONSHIP_WITH_TRANSFORMATION ( #248 )SHAPE_REPRESENTATION_RELATIONSHIP( ) );
#223 = ITEM_DEFINED_TRANSFORMATION ( 'NONE', 'NONE', #132,  #270 ) ;
#224 = PERSON_AND_ORGANIZATION_ROLE ( 'classification_officer' ) ;
#225 = DIRECTION ( 'NONE',  ( 4.890937612370273194E-29, -3.155443620884047222E-30, 0.9999999999999997780 ) ) ;
#226 = CARTESIAN_POINT ( 'NONE',  ( 19.84999566647500302, 6.900005615233999912, -2.058321952820000078 ) ) ;
#227 = CC_DESIGN_SECURITY_CLASSIFICATION ( #119, ( #390 ) ) ;
#228 = PRODUCT_DEFINITION_SHAPE ( 'NONE', 'NONE',  #390 ) ;
#229 = APPROVAL_DATE_TIME ( #141, #237 ) ;
#230 = PRODUCT_DEFINITION_SHAPE ( 'NONE', 'NONE',  #11 ) ;
#231 = DATE_AND_TIME ( #177, #42 ) ;
#232 = APPROVAL_STATUS ( 'not_yet_approved' ) ;
#233 = CC_DESIGN_APPROVAL ( #175, ( #245 ) ) ;
#234 = PERSON_AND_ORGANIZATION ( #18446744073709551615, #18446744073709551615 ) ;
#235 = CC_DESIGN_PERSON_AND_ORGANIZATION_ASSIGNMENT ( #59, #184, ( #340 ) ) ;
#236 = APPROVAL_DATE_TIME ( #117, #94 ) ;
#237 = APPROVAL ( #300, 'Coincident' ) ;
#238 = CALENDAR_DATE ( 2026, 22, 6 ) ;
#239 = LOCAL_TIME ( 18, 49, 58.00000000000000000, #135 ) ;
#240 = APPROVAL_STATUS ( 'not_yet_approved' ) ;
#241 = DOCUMENT_TYPE ( 'geometry' ) ;
#242 = PERSON_AND_ORGANIZATION ( #18446744073709551615, #18446744073709551615 ) ;
#243 = CC_DESIGN_PERSON_AND_ORGANIZATION_ASSIGNMENT ( #29, #35, ( #366 ) ) ;
#244 = SECURITY_CLASSIFICATION_LEVEL ( 'unclassified' ) ;
#245 = PRODUCT_DEFINITION_FORMATION_WITH_SPECIFIED_SOURCE ( 'Symmetric', '', #110, .NOT_KNOWN. ) ;
#246 = UNCERTAINTY_MEASURE_WITH_UNIT (LENGTH_MEASURE( 1.000000000000000082E-05 ), #286, 'distance_accuracy_value', 'NONE');
#247 = CALENDAR_DATE ( 2026, 22, 6 ) ;
#248 = ITEM_DEFINED_TRANSFORMATION ( 'NONE', 'NONE', #365,  #270 ) ;
#249 = DIRECTION ( 'NONE',  ( 1.000000000000000222, -1.092455418989176591E-28, 4.890937612370273194E-29 ) ) ;
#250 = PROPERTY_DEFINITION ('external definition','', #385 ) ;
#251 = SHAPE_DEFINITION_REPRESENTATION ( #350, #50 ) ;
#252 = LOCAL_TIME ( 18, 49, 58.00000000000000000, #273 ) ;
#253 = APPROVAL_STATUS ( 'not_yet_approved' ) ;
#254 = DIRECTION ( 'NONE',  ( 4.890937612370273194E-29, -3.155443620884047222E-30, 0.9999999999999997780 ) ) ;
#255 = PRODUCT_DEFINITION ( 'General', '', #245, #357 ) ;
#256 = PERSON_AND_ORGANIZATION ( #72, #133 ) ;
#257 = CC_DESIGN_PERSON_AND_ORGANIZATION_ASSIGNMENT ( #74, #330, ( #119 ) ) ;
#258 = DIRECTION ( 'NONE',  ( 1.000000000000000000, 0.000000000000000000, 0.000000000000000000 ) ) ;
#259 = APPROVAL_DATE_TIME ( #312, #190 ) ;
#260 = DIRECTION ( 'NONE',  ( 1.000000000000000222, -1.092455418989176591E-28, 4.890937612370273194E-29 ) ) ;
#261 = PRODUCT ( '6461082896.step', '6461082896.step', '', ( #181 ) ) ;
#262 = PERSON_AND_ORGANIZATION_ROLE ( 'creator' ) ;
#263 = PRODUCT_DEFINITION_FORMATION_WITH_SPECIFIED_SOURCE ( 'Symmetric', '', #261, .NOT_KNOWN. ) ;
#264 = PRODUCT_DEFINITION_SHAPE ( 'NONE', 'NONE',  #389 ) ;
#265 = SECURITY_CLASSIFICATION_LEVEL ( 'unclassified' ) ;
#266 = CC_DESIGN_PERSON_AND_ORGANIZATION_ASSIGNMENT ( #234, #262, ( #11 ) ) ;
#267 = DATE_TIME_ROLE ( 'classification_date' ) ;
#268 = OBJECT_ROLE ('mandatory',$ ) ;
#269 = APPLICATION_PROTOCOL_DEFINITION ( 'international standard', 'config_control_design', 1994, #370 ) ;
#270 = AXIS2_PLACEMENT_3D ( 'NONE', #41, #70, #16 ) ;
#271 = CC_DESIGN_SECURITY_CLASSIFICATION ( #340, ( #263 ) ) ;
#272 = CALENDAR_DATE ( 2026, 22, 6 ) ;
#273 = COORDINATED_UNIVERSAL_TIME_OFFSET ( 10, 0, .AHEAD. ) ;
#274 = APPROVAL_ROLE ( '' ) ;
#275 = LOCAL_TIME ( 18, 49, 58.00000000000000000, #86 ) ;
#276 = DATE_AND_TIME ( #126, #281 ) ;
#277 = PERSON_AND_ORGANIZATION ( #18446744073709551615, #18446744073709551615 ) ;
#278 = PERSON_AND_ORGANIZATION_ROLE ( 'design_owner' ) ;
#279 = PRODUCT_RELATED_PRODUCT_CATEGORY ( 'detail', '', ( #110 ) ) ;
#280 = DATE_AND_TIME ( #90, #60 ) ;
#281 = LOCAL_TIME ( 18, 49, 58.00000000000000000, #6 ) ;
#282 = PROPERTY_DEFINITION_REPRESENTATION ( #45, #50 ) ;
#283 = CARTESIAN_POINT ( 'NONE',  ( 0.000000000000000000, 0.000000000000000000, 0.000000000000000000 ) ) ;
#284 = CC_DESIGN_PERSON_AND_ORGANIZATION_ASSIGNMENT ( #256, #224, ( #189 ) ) ;
#285 = CONTEXT_DEPENDENT_SHAPE_REPRESENTATION ( #222, #264 ) ;
#286 =( LENGTH_UNIT ( ) NAMED_UNIT ( * ) SI_UNIT ( .MILLI., .METRE. ) );
#287 = CALENDAR_DATE ( 2026, 22, 6 ) ;
#288 = EXTERNAL_SOURCE (IDENTIFIER('') ) ;
#289 = SECURITY_CLASSIFICATION ( '', '', #265 ) ;
#290 = APPROVAL_PERSON_ORGANIZATION ( #142, #109, #53 ) ;
#291 = CALENDAR_DATE ( 2026, 22, 6 ) ;
#292 =( NAMED_UNIT ( * ) SI_UNIT ( $, .STERADIAN. ) SOLID_ANGLE_UNIT ( ) );
#293 = DOCUMENT_FILE ( '6461082896.step.STEP' , '', '', #241, '' ,$ ) ;
#294 = PROPERTY_DEFINITION ('document property','', #154 ) ;
#295 = COORDINATED_UNIVERSAL_TIME_OFFSET ( 10, 0, .AHEAD. ) ;
#296 = PERSON_AND_ORGANIZATION ( #18446744073709551615, #18446744073709551615 ) ;
#297 = DATE_TIME_ROLE ( 'classification_date' ) ;
#298 = PERSON_AND_ORGANIZATION ( #18446744073709551615, #18446744073709551615 ) ;
#299 = MECHANICAL_CONTEXT ( 'NONE', #203, 'mechanical' ) ;
#300 = APPROVAL_STATUS ( 'not_yet_approved' ) ;
#301 = OBJECT_ROLE ('mandatory',$ ) ;
#302 = LOCAL_TIME ( 18, 49, 58.00000000000000000, #55 ) ;
#303 = PERSON_AND_ORGANIZATION ( #18446744073709551615, #18446744073709551615 ) ;
#304 = DATE_AND_TIME ( #32, #275 ) ;
#305 = APPROVAL_ROLE ( '' ) ;
#306 = APPLICATION_CONTEXT ( 'configuration controlled 3d designs of mechanical parts and assemblies' ) ;
#307 = CC_DESIGN_APPROVAL ( #109, ( #289 ) ) ;
#308 = DATE_AND_TIME ( #209, #252 ) ;
#309 = PERSON_AND_ORGANIZATION ( #18446744073709551615, #18446744073709551615 ) ;
#310 = SHAPE_REPRESENTATION ( 'C24.step', ( #348, #132, #365, #372 ), #79 ) ;
#311 = CC_DESIGN_DATE_AND_TIME_ASSIGNMENT ( #354, #80, ( #11 ) ) ;
#312 = DATE_AND_TIME ( #134, #239 ) ;
#313 = LOCAL_TIME ( 18, 49, 58.00000000000000000, #144 ) ;
#314 = APPROVAL_DATE_TIME ( #188, #358 ) ;
#315 = APPROVAL_ROLE ( '' ) ;
#316 = APPROVAL_ROLE ( '' ) ;
#317 = CC_DESIGN_PERSON_AND_ORGANIZATION_ASSIGNMENT ( #145, #61, ( #245 ) ) ;
#318 = SECURITY_CLASSIFICATION ( '', '', #319 ) ;
#319 = SECURITY_CLASSIFICATION_LEVEL ( 'unclassified' ) ;
#320 = APPROVAL ( #369, 'UNKNOWN' ) ;
#321 = APPLICATION_PROTOCOL_DEFINITION ( 'international standard', 'config_control_design', 1994, #203 ) ;
#322 = PROPERTY_DEFINITION ('external definition','', #154 ) ;
#323 = CONTEXT_DEPENDENT_SHAPE_REPRESENTATION ( #183, #228 ) ;
#324 = PERSON_AND_ORGANIZATION ( #18446744073709551615, #18446744073709551615 ) ;
#325 = ROLE_ASSOCIATION ( #301, #171 ) ;
#326 = DIRECTION ( 'NONE',  ( 0.000000000000000000, 0.000000000000000000, 1.000000000000000000 ) ) ;
#327 = LOCAL_TIME ( 18, 49, 58.00000000000000000, #159 ) ;
#328 = CC_DESIGN_PERSON_AND_ORGANIZATION_ASSIGNMENT ( #242, #278, ( #261 ) ) ;
#329 = APPLICATION_CONTEXT ( 'configuration controlled 3d designs of mechanical parts and assemblies' ) ;
#330 = PERSON_AND_ORGANIZATION_ROLE ( 'classification_officer' ) ;
#331 = CC_DESIGN_DATE_AND_TIME_ASSIGNMENT ( #333, #44, ( #289 ) ) ;
#332 = CC_DESIGN_DATE_AND_TIME_ASSIGNMENT ( #63, #267, ( #119 ) ) ;
#333 = DATE_AND_TIME ( #205, #73 ) ;
#334 = DATE_TIME_ROLE ( 'classification_date' ) ;
#335 = AXIS2_PLACEMENT_3D ( 'NONE', #106, #157, #258 ) ;
#336 = APPROVAL_PERSON_ORGANIZATION ( #303, #92, #371 ) ;
#337 = DATE_TIME_ROLE ( 'creation_date' ) ;
#338 = APPROVAL_STATUS ( 'not_yet_approved' ) ;
#339 = PERSON_AND_ORGANIZATION_ROLE ( 'design_supplier' ) ;
#340 = SECURITY_CLASSIFICATION ( '', '', #244 ) ;
#341 = APPROVAL_ROLE ( '' ) ;
#342 = SECURITY_CLASSIFICATION_LEVEL ( 'unclassified' ) ;
#343 =( GEOMETRIC_REPRESENTATION_CONTEXT ( 3 ) GLOBAL_UNCERTAINTY_ASSIGNED_CONTEXT ( ( #128 ) ) GLOBAL_UNIT_ASSIGNED_CONTEXT ( ( #100, #162, #292 ) ) REPRESENTATION_CONTEXT ( 'NONE', 'WORKASPACE' ) );
#344 = CC_DESIGN_APPROVAL ( #358, ( #119 ) ) ;
#345 = IDENTIFICATION_ROLE ( 'external document id and location', $) ;
#346 = CALENDAR_DATE ( 2026, 22, 6 ) ;
#347 = DIRECTION ( 'NONE',  ( 4.890937612370273194E-29, -3.155443620884047222E-30, 0.9999999999999997780 ) ) ;
#348 = AXIS2_PLACEMENT_3D ( 'NONE', #283, #326, #173 ) ;
#349 = APPROVAL_PERSON_ORGANIZATION ( #161, #320, #316 ) ;
#350 = PRODUCT_DEFINITION_SHAPE ( 'NONE', 'NONE',  #81 ) ;
#351 = DATE_AND_TIME ( #381, #379 ) ;
#352 = DOCUMENT_TYPE ( 'geometry' ) ;
#353 = COORDINATED_UNIVERSAL_TIME_OFFSET ( 10, 0, .AHEAD. ) ;
#354 = DATE_AND_TIME ( #201, #378 ) ;
#355 = COORDINATED_UNIVERSAL_TIME_OFFSET ( 10, 0, .AHEAD. ) ;
#356 = CC_DESIGN_PERSON_AND_ORGANIZATION_ASSIGNMENT ( #161, #71, ( #318 ) ) ;
#357 = DESIGN_CONTEXT ( 'detailed design', #370, 'design' ) ;
#358 = APPROVAL ( #217, 'UNKNOWN' ) ;
#359 = PERSON_AND_ORGANIZATION ( #18446744073709551615, #18446744073709551615 ) ;
#360 = APPLIED_EXTERNAL_IDENTIFICATION_ASSIGNMENT ( '6461082896.step.STEP' , #77, #363,( #385) ) ;
#361 = APPROVAL_DATE_TIME ( #58, #211 ) ;
#362 = CALENDAR_DATE ( 2026, 22, 6 ) ;
#363 = EXTERNAL_SOURCE (IDENTIFIER('') ) ;
#364 = COORDINATED_UNIVERSAL_TIME_OFFSET ( 10, 0, .AHEAD. ) ;
#365 = AXIS2_PLACEMENT_3D ( 'NONE', #226, #254, #249 ) ;
#366 = SECURITY_CLASSIFICATION ( '', '', #120 ) ;
#367 = DATE_AND_TIME ( #247, #163 ) ;
#368 = PROPERTY_DEFINITION ('document property','', #385 ) ;
#369 = APPROVAL_STATUS ( 'not_yet_approved' ) ;
#370 = APPLICATION_CONTEXT ( 'configuration controlled 3d designs of mechanical parts and assemblies' ) ;
#371 = APPROVAL_ROLE ( '' ) ;
#372 = AXIS2_PLACEMENT_3D ( 'NONE', #218, #347, #197 ) ;
#373 = APPLIED_EXTERNAL_IDENTIFICATION_ASSIGNMENT ( '6461083056.step.STEP' , #345, #288,( #154) ) ;
#374 = APPROVAL_STATUS ( 'not_yet_approved' ) ;
#375 = DATE_TIME_ROLE ( 'classification_date' ) ;
#376 = CC_DESIGN_PERSON_AND_ORGANIZATION_ASSIGNMENT ( #105, #23, ( #47 ) ) ;
#377 = MECHANICAL_CONTEXT ( 'NONE', #22, 'mechanical' ) ;
#378 = LOCAL_TIME ( 18, 49, 58.00000000000000000, #204 ) ;
#379 = LOCAL_TIME ( 18, 49, 58.00000000000000000, #295 ) ;
#380 = PROPERTY_DEFINITION ('document property','', #293 ) ;
#381 = CALENDAR_DATE ( 2026, 22, 6 ) ;
#382 = PERSON_AND_ORGANIZATION ( #18446744073709551615, #18446744073709551615 ) ;
#383 = PERSON_AND_ORGANIZATION_ROLE ( 'design_owner' ) ;
#384 = CC_DESIGN_APPROVAL ( #94, ( #255 ) ) ;
#385 = DOCUMENT_FILE ( '6461082896.step.STEP' , '', '', #99, '' ,$ ) ;
#386 = APPROVAL_ROLE ( '' ) ;
#387 = LOCAL_TIME ( 18, 49, 58.00000000000000000, #10 ) ;
#388 = NEXT_ASSEMBLY_USAGE_OCCURRENCE ( 'NAUO218', ' ', ' ', #11, #81, $ ) ;
#389 = NEXT_ASSEMBLY_USAGE_OCCURRENCE ( 'NAUO219', ' ', ' ', #11, #81, $ ) ;
#390 = NEXT_ASSEMBLY_USAGE_OCCURRENCE ( 'NAUO220', ' ', ' ', #11, #255, $ ) ;
ENDSEC;
END-ISO-10303-21;
