ISO-10303-21;
HEADER;
FILE_DESCRIPTION (( 'STEP AP203' ),
    '1' );
FILE_NAME ('C26.step.STEP',
    '2026-06-22T08:49:53',
    ( 'localuser' ),
    ( '' ),
    'SwSTEP 2.0',
    'SolidWorks 2025',
    '' );
FILE_SCHEMA (( 'CONFIG_CONTROL_DESIGN' ));
ENDSEC;

DATA;
#1 = APPROVAL_STATUS ( 'not_yet_approved' ) ;
#2 = PERSON_AND_ORGANIZATION ( #18446744073709551615, #18446744073709551615 ) ;
#3 = UNCERTAINTY_MEASURE_WITH_UNIT (LENGTH_MEASURE( 1.000000000000000082E-05 ), #151, 'distance_accuracy_value', 'NONE');
#4 = COORDINATED_UNIVERSAL_TIME_OFFSET ( 10, 0, .AHEAD. ) ;
#5 = APPROVAL_STATUS ( 'not_yet_approved' ) ;
#6 =( NAMED_UNIT ( * ) PLANE_ANGLE_UNIT ( ) SI_UNIT ( $, .RADIAN. ) );
#7 = PRODUCT_DEFINITION ( 'General', '', #326, #300 ) ;
#8 = ORGANIZATION ( 'NAUO-ORG36', 'UNSPECIFIED', 'UNSPECIFIED' ) ;
#9 = CARTESIAN_POINT ( 'NONE',  ( 2.800000244111000125, 6.350002563477001871, -2.058321952820000078 ) ) ;
#10 = PERSON_AND_ORGANIZATION_ROLE ( 'design_supplier' ) ;
#11 = CONTEXT_DEPENDENT_SHAPE_REPRESENTATION ( #341, #46 ) ;
#12 = COORDINATED_UNIVERSAL_TIME_OFFSET ( 10, 0, .AHEAD. ) ;
#13 = DATE_AND_TIME ( #256, #116 ) ;
#14 = PRODUCT ( 'C26.step', 'C26.step', '', ( #214 ) ) ;
#15 = APPLIED_EXTERNAL_IDENTIFICATION_ASSIGNMENT ( '6461082896.step.STEP' , #107, #143,( #32) ) ;
#16 =( REPRESENTATION_RELATIONSHIP ('NONE','NONE', #232, #144 ) REPRESENTATION_RELATIONSHIP_WITH_TRANSFORMATION ( #158 )SHAPE_REPRESENTATION_RELATIONSHIP( ) );
#17 = DATE_AND_TIME ( #284, #301 ) ;
#18 = PERSON_AND_ORGANIZATION ( #197, #8 ) ;
#19 = APPROVAL ( #385, 'Coincident' ) ;
#20 = PERSON ( 'NAUO-PER37', 'UNSPECIFIED', 'UNSPECIFIED', ('UNSPECIFIED'), ('UNSPECIFIED'), ('UNSPECIFIED') ) ;
#21 = PERSON_AND_ORGANIZATION ( #378, #270 ) ;
#22 = SECURITY_CLASSIFICATION_LEVEL ( 'unclassified' ) ;
#23 = CC_DESIGN_SECURITY_CLASSIFICATION ( #285, ( #388 ) ) ;
#24 = DATE_AND_TIME ( #117, #313 ) ;
#25 = APPLICATION_PROTOCOL_DEFINITION ( 'international standard', 'config_control_design', 1994, #346 ) ;
#26 = DATE_TIME_ROLE ( 'classification_date' ) ;
#27 = PERSON_AND_ORGANIZATION ( #18446744073709551615, #18446744073709551615 ) ;
#28 = CC_DESIGN_PERSON_AND_ORGANIZATION_ASSIGNMENT ( #239, #360, ( #96 ) ) ;
#29 = CALENDAR_DATE ( 2026, 22, 6 ) ;
#30 = PERSON_AND_ORGANIZATION ( #18446744073709551615, #18446744073709551615 ) ;
#31 = DIRECTION ( 'NONE',  ( 4.890937612370273194E-29, -3.155443620884047222E-30, 0.9999999999999997780 ) ) ;
#32 = DOCUMENT_FILE ( '6461082896.step.STEP' , '', '', #283, '' ,$ ) ;
#33 = DIRECTION ( 'NONE',  ( 1.000000000000000000, 0.000000000000000000, 0.000000000000000000 ) ) ;
#34 = CALENDAR_DATE ( 2026, 22, 6 ) ;
#35 = LOCAL_TIME ( 18, 49, 52.00000000000000000, #315 ) ;
#36 = PERSON_AND_ORGANIZATION ( #18446744073709551615, #18446744073709551615 ) ;
#37 = CC_DESIGN_PERSON_AND_ORGANIZATION_ASSIGNMENT ( #166, #387, ( #201 ) ) ;
#38 = CC_DESIGN_APPROVAL ( #141, ( #171 ) ) ;
#39 = PROPERTY_DEFINITION_REPRESENTATION ( #44, #293 ) ;
#40 = PROPERTY_DEFINITION ('external definition','', #32 ) ;
#41 = CC_DESIGN_DATE_AND_TIME_ASSIGNMENT ( #188, #258, ( #285 ) ) ;
#42 = APPROVAL_ROLE ( '' ) ;
#43 = DATE_TIME_ROLE ( 'classification_date' ) ;
#44 = PROPERTY_DEFINITION ('document property','', #135 ) ;
#45 = CALENDAR_DATE ( 2026, 22, 6 ) ;
#46 = PRODUCT_DEFINITION_SHAPE ( 'NONE', 'NONE',  #388 ) ;
#47 = LOCAL_TIME ( 18, 49, 52.00000000000000000, #386 ) ;
#48 = CC_DESIGN_PERSON_AND_ORGANIZATION_ASSIGNMENT ( #262, #172, ( #201 ) ) ;
#49 = OBJECT_ROLE ('mandatory',$ ) ;
#50 = CALENDAR_DATE ( 2026, 22, 6 ) ;
#51 = APPROVAL_STATUS ( 'not_yet_approved' ) ;
#52 = PERSON_AND_ORGANIZATION_ROLE ( 'creator' ) ;
#53 = CC_DESIGN_APPROVAL ( #19, ( #7 ) ) ;
#54 = DATE_AND_TIME ( #145, #127 ) ;
#55 = CC_DESIGN_PERSON_AND_ORGANIZATION_ASSIGNMENT ( #233, #297, ( #209 ) ) ;
#56 = APPLICATION_CONTEXT ( 'configuration controlled 3d designs of mechanical parts and assemblies' ) ;
#57 = PERSON_AND_ORGANIZATION_ROLE ( 'design_owner' ) ;
#58 = COORDINATED_UNIVERSAL_TIME_OFFSET ( 10, 0, .AHEAD. ) ;
#59 = CC_DESIGN_APPROVAL ( #257, ( #201 ) ) ;
#60 = APPLIED_EXTERNAL_IDENTIFICATION_ASSIGNMENT ( '6461082896.step.STEP' , #273, #183,( #135) ) ;
#61 = CC_DESIGN_PERSON_AND_ORGANIZATION_ASSIGNMENT ( #119, #336, ( #14 ) ) ;
#62 = DIRECTION ( 'NONE',  ( 4.890937612370273194E-29, -3.155443620884047222E-30, 0.9999999999999997780 ) ) ;
#63 = PERSON_AND_ORGANIZATION ( #18446744073709551615, #18446744073709551615 ) ;
#64 = PERSON_AND_ORGANIZATION_ROLE ( 'creator' ) ;
#65 = PERSON_AND_ORGANIZATION ( #18446744073709551615, #18446744073709551615 ) ;
#66 = CC_DESIGN_DATE_AND_TIME_ASSIGNMENT ( #24, #298, ( #96 ) ) ;
#67 = LOCAL_TIME ( 18, 49, 52.00000000000000000, #206 ) ;
#68 = ROLE_ASSOCIATION ( #371, #248 ) ;
#69 = APPROVAL_DATE_TIME ( #280, #167 ) ;
#70 = CC_DESIGN_APPROVAL ( #111, ( #285 ) ) ;
#71 = CC_DESIGN_PERSON_AND_ORGANIZATION_ASSIGNMENT ( #63, #64, ( #171 ) ) ;
#72 = PERSON_AND_ORGANIZATION_ROLE ( 'classification_officer' ) ;
#73 = APPROVAL_DATE_TIME ( #100, #369 ) ;
#74 =( REPRESENTATION_RELATIONSHIP ('NONE','NONE', #232, #293 ) REPRESENTATION_RELATIONSHIP_WITH_TRANSFORMATION ( #219 )SHAPE_REPRESENTATION_RELATIONSHIP( ) );
#75 = COORDINATED_UNIVERSAL_TIME_OFFSET ( 10, 0, .AHEAD. ) ;
#76 = CC_DESIGN_PERSON_AND_ORGANIZATION_ASSIGNMENT ( #18, #339, ( #285 ) ) ;
#77 = APPROVAL_PERSON_ORGANIZATION ( #30, #257, #237 ) ;
#78 = LOCAL_TIME ( 18, 49, 52.00000000000000000, #274 ) ;
#79 = PROPERTY_DEFINITION_REPRESENTATION ( #347, #144 ) ;
#80 = APPROVAL_DATE_TIME ( #177, #235 ) ;
#81 = APPROVAL_ROLE ( '' ) ;
#82 = APPROVAL_DATE_TIME ( #110, #141 ) ;
#83 = DATE_AND_TIME ( #353, #217 ) ;
#84 = PRODUCT_RELATED_PRODUCT_CATEGORY ( 'detail', '', ( #14 ) ) ;
#85 = AXIS2_PLACEMENT_3D ( 'NONE', #9, #62, #307 ) ;
#86 = CC_DESIGN_SECURITY_CLASSIFICATION ( #209, ( #326 ) ) ;
#87 = APPROVAL_DATE_TIME ( #113, #182 ) ;
#88 = PERSON_AND_ORGANIZATION ( #18446744073709551615, #18446744073709551615 ) ;
#89 = DATE_AND_TIME ( #330, #234 ) ;
#90 =( NAMED_UNIT ( * ) SI_UNIT ( $, .STERADIAN. ) SOLID_ANGLE_UNIT ( ) );
#91 = CC_DESIGN_DATE_AND_TIME_ASSIGNMENT ( #89, #118, ( #278 ) ) ;
#92 = CALENDAR_DATE ( 2026, 22, 6 ) ;
#93 = APPROVAL_PERSON_ORGANIZATION ( #176, #182, #265 ) ;
#94 = APPROVAL_PERSON_ORGANIZATION ( #18, #111, #157 ) ;
#95 = DIRECTION ( 'NONE',  ( 1.000000000000000000, 0.000000000000000000, 0.000000000000000000 ) ) ;
#96 = PRODUCT_DEFINITION ( 'General', '', #171, #259 ) ;
#97 = APPROVAL_PERSON_ORGANIZATION ( #21, #175, #104 ) ;
#98 = CC_DESIGN_APPROVAL ( #369, ( #338 ) ) ;
#99 = EXTERNAL_SOURCE (IDENTIFIER('') ) ;
#100 = DATE_AND_TIME ( #194, #381 ) ;
#101 = SECURITY_CLASSIFICATION_LEVEL ( 'unclassified' ) ;
#102 = CC_DESIGN_DATE_AND_TIME_ASSIGNMENT ( #351, #112, ( #295 ) ) ;
#103 = PRODUCT ( '6461082896.step', '6461082896.step', '', ( #208 ) ) ;
#104 = APPROVAL_ROLE ( '' ) ;
#105 = DATE_AND_TIME ( #379, #362 ) ;
#106 = DIRECTION ( 'NONE',  ( 0.000000000000000000, 0.000000000000000000, 1.000000000000000000 ) ) ;
#107 = IDENTIFICATION_ROLE ( 'external document id and location', $) ;
#108 = DIRECTION ( 'NONE',  ( 1.000000000000000000, 0.000000000000000000, 0.000000000000000000 ) ) ;
#109 = PERSON_AND_ORGANIZATION ( #18446744073709551615, #18446744073709551615 ) ;
#110 = DATE_AND_TIME ( #92, #67 ) ;
#111 = APPROVAL ( #370, 'UNKNOWN' ) ;
#112 = DATE_TIME_ROLE ( 'creation_date' ) ;
#113 = DATE_AND_TIME ( #296, #47 ) ;
#114 = APPROVAL_STATUS ( 'not_yet_approved' ) ;
#115 = DIRECTION ( 'NONE',  ( 0.000000000000000000, 0.000000000000000000, 1.000000000000000000 ) ) ;
#116 = LOCAL_TIME ( 18, 49, 52.00000000000000000, #288 ) ;
#117 = CALENDAR_DATE ( 2026, 22, 6 ) ;
#118 = DATE_TIME_ROLE ( 'classification_date' ) ;
#119 = PERSON_AND_ORGANIZATION ( #18446744073709551615, #18446744073709551615 ) ;
#120 = APPROVAL_DATE_TIME ( #247, #163 ) ;
#121 = COORDINATED_UNIVERSAL_TIME_OFFSET ( 10, 0, .AHEAD. ) ;
#122 =( NAMED_UNIT ( * ) PLANE_ANGLE_UNIT ( ) SI_UNIT ( $, .RADIAN. ) );
#123 = DIRECTION ( 'NONE',  ( 1.000000000000000222, -1.092455418989176591E-28, 4.890937612370273194E-29 ) ) ;
#124 = SECURITY_CLASSIFICATION ( '', '', #101 ) ;
#125 = APPLICATION_PROTOCOL_DEFINITION ( 'international standard', 'config_control_design', 1994, #129 ) ;
#126 = CALENDAR_DATE ( 2026, 22, 6 ) ;
#127 = LOCAL_TIME ( 18, 49, 52.00000000000000000, #272 ) ;
#128 = LOCAL_TIME ( 18, 49, 52.00000000000000000, #137 ) ;
#129 = APPLICATION_CONTEXT ( 'configuration controlled 3d designs of mechanical parts and assemblies' ) ;
#130 = CC_DESIGN_PERSON_AND_ORGANIZATION_ASSIGNMENT ( #168, #263, ( #103 ) ) ;
#131 = APPROVAL_DATE_TIME ( #13, #175 ) ;
#132 = LOCAL_TIME ( 18, 49, 52.00000000000000000, #380 ) ;
#133 = APPLIED_DOCUMENT_REFERENCE ( #135,'',( #96) ) ;
#134 = CONTEXT_DEPENDENT_SHAPE_REPRESENTATION ( #74, #243 ) ;
#135 = DOCUMENT_FILE ( '6461082896.step.STEP' , '', '', #289, '' ,$ ) ;
#136 = UNCERTAINTY_MEASURE_WITH_UNIT (LENGTH_MEASURE( 1.000000000000000082E-05 ), #242, 'distance_accuracy_value', 'NONE');
#137 = COORDINATED_UNIVERSAL_TIME_OFFSET ( 10, 0, .AHEAD. ) ;
#138 =( GEOMETRIC_REPRESENTATION_CONTEXT ( 3 ) GLOBAL_UNCERTAINTY_ASSIGNED_CONTEXT ( ( #3 ) ) GLOBAL_UNIT_ASSIGNED_CONTEXT ( ( #151, #6, #306 ) ) REPRESENTATION_CONTEXT ( 'NONE', 'WORKASPACE' ) );
#139 = OBJECT_ROLE ('mandatory',$ ) ;
#140 =( NAMED_UNIT ( * ) PLANE_ANGLE_UNIT ( ) SI_UNIT ( $, .RADIAN. ) );
#141 = APPROVAL ( #268, 'Coincident' ) ;
#142 = APPROVAL_ROLE ( '' ) ;
#143 = EXTERNAL_SOURCE (IDENTIFIER('') ) ;
#144 = SHAPE_REPRESENTATION ( '6461083056.step', ( #361 ), #138 ) ;
#145 = CALENDAR_DATE ( 2026, 22, 6 ) ;
#146 = COORDINATED_UNIVERSAL_TIME_OFFSET ( 10, 0, .AHEAD. ) ;
#147 = AXIS2_PLACEMENT_3D ( 'NONE', #271, #321, #33 ) ;
#148 = AXIS2_PLACEMENT_3D ( 'NONE', #178, #106, #108 ) ;
#149 = DATE_TIME_ROLE ( 'creation_date' ) ;
#150 = CALENDAR_DATE ( 2026, 22, 6 ) ;
#151 =( LENGTH_UNIT ( ) NAMED_UNIT ( * ) SI_UNIT ( .MILLI., .METRE. ) );
#152 =( GEOMETRIC_REPRESENTATION_CONTEXT ( 3 ) GLOBAL_UNCERTAINTY_ASSIGNED_CONTEXT ( ( #136 ) ) GLOBAL_UNIT_ASSIGNED_CONTEXT ( ( #242, #122, #90 ) ) REPRESENTATION_CONTEXT ( 'NONE', 'WORKASPACE' ) );
#153 = CC_DESIGN_APPROVAL ( #163, ( #209 ) ) ;
#154 = PERSON_AND_ORGANIZATION ( #18446744073709551615, #18446744073709551615 ) ;
#155 = PRODUCT_RELATED_PRODUCT_CATEGORY ( 'detail', '', ( #227 ) ) ;
#156 = CC_DESIGN_APPROVAL ( #348, ( #278 ) ) ;
#157 = APPROVAL_ROLE ( '' ) ;
#158 = ITEM_DEFINED_TRANSFORMATION ( 'NONE', 'NONE', #215,  #361 ) ;
#159 = COORDINATED_UNIVERSAL_TIME_OFFSET ( 10, 0, .AHEAD. ) ;
#160 = DATE_TIME_ROLE ( 'classification_date' ) ;
#161 = PROPERTY_DEFINITION ('external definition','', #249 ) ;
#162 = PRODUCT_DEFINITION_SHAPE ( 'NONE', 'NONE',  #7 ) ;
#163 = APPROVAL ( #185, 'Coincident' ) ;
#164 = APPROVAL_PERSON_ORGANIZATION ( #109, #348, #331 ) ;
#165 =( NAMED_UNIT ( * ) SI_UNIT ( $, .STERADIAN. ) SOLID_ANGLE_UNIT ( ) );
#166 = PERSON_AND_ORGANIZATION ( #18446744073709551615, #18446744073709551615 ) ;
#167 = APPROVAL ( #5, 'UNKNOWN' ) ;
#168 = PERSON_AND_ORGANIZATION ( #18446744073709551615, #18446744073709551615 ) ;
#169 = APPROVAL_PERSON_ORGANIZATION ( #231, #19, #81 ) ;
#170 = PERSON_AND_ORGANIZATION ( #18446744073709551615, #18446744073709551615 ) ;
#171 = PRODUCT_DEFINITION_FORMATION_WITH_SPECIFIED_SOURCE ( 'Symmetric', '', #103, .NOT_KNOWN. ) ;
#172 = PERSON_AND_ORGANIZATION_ROLE ( 'design_supplier' ) ;
#173 =( LENGTH_UNIT ( ) NAMED_UNIT ( * ) SI_UNIT ( .MILLI., .METRE. ) );
#174 = UNCERTAINTY_MEASURE_WITH_UNIT (LENGTH_MEASURE( 1.000000000000000082E-05 ), #173, 'distance_accuracy_value', 'NONE');
#175 = APPROVAL ( #282, 'UNKNOWN' ) ;
#176 = PERSON_AND_ORGANIZATION ( #18446744073709551615, #18446744073709551615 ) ;
#177 = DATE_AND_TIME ( #264, #223 ) ;
#178 = CARTESIAN_POINT ( 'NONE',  ( 0.000000000000000000, 0.000000000000000000, 0.000000000000000000 ) ) ;
#179 = APPROVAL_STATUS ( 'not_yet_approved' ) ;
#180 = COORDINATED_UNIVERSAL_TIME_OFFSET ( 10, 0, .AHEAD. ) ;
#181 = DIRECTION ( 'NONE',  ( 4.890937612370273194E-29, -3.155443620884047222E-30, 0.9999999999999997780 ) ) ;
#182 = APPROVAL ( #51, 'Coincident' ) ;
#183 = EXTERNAL_SOURCE (IDENTIFIER('') ) ;
#184 = LOCAL_TIME ( 18, 49, 52.00000000000000000, #146 ) ;
#185 = APPROVAL_STATUS ( 'not_yet_approved' ) ;
#186 = APPLICATION_CONTEXT ( 'configuration controlled 3d designs of mechanical parts and assemblies' ) ;
#187 = APPROVAL_PERSON_ORGANIZATION ( #192, #167, #319 ) ;
#188 = DATE_AND_TIME ( #287, #198 ) ;
#189 = ROLE_ASSOCIATION ( #139, #133 ) ;
#190 = PROPERTY_DEFINITION ('document property','', #32 ) ;
#191 = DATE_AND_TIME ( #281, #246 ) ;
#192 = PERSON_AND_ORGANIZATION ( #20, #292 ) ;
#193 = IDENTIFICATION_ROLE ( 'external document id and location', $) ;
#194 = CALENDAR_DATE ( 2026, 22, 6 ) ;
#195 = CC_DESIGN_APPROVAL ( #224, ( #295 ) ) ;
#196 = CC_DESIGN_APPROVAL ( #182, ( #96 ) ) ;
#197 = PERSON ( 'NAUO-PER36', 'UNSPECIFIED', 'UNSPECIFIED', ('UNSPECIFIED'), ('UNSPECIFIED'), ('UNSPECIFIED') ) ;
#198 = LOCAL_TIME ( 18, 49, 52.00000000000000000, #12 ) ;
#199 = APPROVAL_DATE_TIME ( #83, #19 ) ;
#200 = COORDINATED_UNIVERSAL_TIME_OFFSET ( 10, 0, .AHEAD. ) ;
#201 = PRODUCT_DEFINITION_FORMATION_WITH_SPECIFIED_SOURCE ( 'Symmetric', '', #14, .NOT_KNOWN. ) ;
#202 = PERSON_AND_ORGANIZATION ( #18446744073709551615, #18446744073709551615 ) ;
#203 = CC_DESIGN_APPROVAL ( #175, ( #124 ) ) ;
#204 = SHAPE_DEFINITION_REPRESENTATION ( #162, #144 ) ;
#205 = SHAPE_DEFINITION_REPRESENTATION ( #252, #232 ) ;
#206 = COORDINATED_UNIVERSAL_TIME_OFFSET ( 10, 0, .AHEAD. ) ;
#207 = PERSON_AND_ORGANIZATION_ROLE ( 'classification_officer' ) ;
#208 = MECHANICAL_CONTEXT ( 'NONE', #310, 'mechanical' ) ;
#209 = SECURITY_CLASSIFICATION ( '', '', #22 ) ;
#210 = SECURITY_CLASSIFICATION_LEVEL ( 'unclassified' ) ;
#211 = DATE_AND_TIME ( #126, #374 ) ;
#212 = CC_DESIGN_DATE_AND_TIME_ASSIGNMENT ( #327, #26, ( #209 ) ) ;
#213 = CARTESIAN_POINT ( 'NONE',  ( 2.300000244111000125, 6.350002563477001871, -2.058321952819998302 ) ) ;
#214 = MECHANICAL_CONTEXT ( 'NONE', #129, 'mechanical' ) ;
#215 = AXIS2_PLACEMENT_3D ( 'NONE', #213, #181, #123 ) ;
#216 = CC_DESIGN_PERSON_AND_ORGANIZATION_ASSIGNMENT ( #21, #349, ( #124 ) ) ;
#217 = LOCAL_TIME ( 18, 49, 52.00000000000000000, #4 ) ;
#218 = DOCUMENT_TYPE ( 'geometry' ) ;
#219 = ITEM_DEFINED_TRANSFORMATION ( 'NONE', 'NONE', #85,  #148 ) ;
#220 = APPROVAL_DATE_TIME ( #191, #111 ) ;
#221 = PERSON_AND_ORGANIZATION ( #18446744073709551615, #18446744073709551615 ) ;
#222 = CONTEXT_DEPENDENT_SHAPE_REPRESENTATION ( #16, #316 ) ;
#223 = LOCAL_TIME ( 18, 49, 52.00000000000000000, #121 ) ;
#224 = APPROVAL ( #332, 'Coincident' ) ;
#225 = PERSON_AND_ORGANIZATION_ROLE ( 'classification_officer' ) ;
#226 = APPLIED_DOCUMENT_REFERENCE ( #249,'',( #7) ) ;
#227 = PRODUCT ( '6461083056.step', '6461083056.step', '', ( #356 ) ) ;
#228 = DATE_AND_TIME ( #45, #35 ) ;
#229 = APPROVAL_PERSON_ORGANIZATION ( #65, #163, #240 ) ;
#230 = DATE_AND_TIME ( #294, #368 ) ;
#231 = PERSON_AND_ORGANIZATION ( #18446744073709551615, #18446744073709551615 ) ;
#232 = SHAPE_REPRESENTATION ( 'C26.step', ( #147, #325, #85, #215 ), #152 ) ;
#233 = PERSON_AND_ORGANIZATION ( #18446744073709551615, #18446744073709551615 ) ;
#234 = LOCAL_TIME ( 18, 49, 52.00000000000000000, #200 ) ;
#235 = APPROVAL ( #1, 'Coincident' ) ;
#236 = APPLICATION_PROTOCOL_DEFINITION ( 'international standard', 'config_control_design', 1994, #186 ) ;
#237 = APPROVAL_ROLE ( '' ) ;
#238 = PERSON_AND_ORGANIZATION_ROLE ( 'creator' ) ;
#239 = PERSON_AND_ORGANIZATION ( #18446744073709551615, #18446744073709551615 ) ;
#240 = APPROVAL_ROLE ( '' ) ;
#241 = APPROVAL_PERSON_ORGANIZATION ( #221, #369, #42 ) ;
#242 =( LENGTH_UNIT ( ) NAMED_UNIT ( * ) SI_UNIT ( .MILLI., .METRE. ) );
#243 = PRODUCT_DEFINITION_SHAPE ( 'NONE', 'NONE',  #389 ) ;
#244 = PRODUCT_RELATED_PRODUCT_CATEGORY ( 'detail', '', ( #103 ) ) ;
#245 = LOCAL_TIME ( 18, 49, 52.00000000000000000, #359 ) ;
#246 = LOCAL_TIME ( 18, 49, 52.00000000000000000, #159 ) ;
#247 = DATE_AND_TIME ( #34, #78 ) ;
#248 = APPLIED_DOCUMENT_REFERENCE ( #32,'',( #96) ) ;
#249 = DOCUMENT_FILE ( '6461083056.step.STEP' , '', '', #218, '' ,$ ) ;
#250 = CC_DESIGN_PERSON_AND_ORGANIZATION_ASSIGNMENT ( #323, #52, ( #7 ) ) ;
#251 = COORDINATED_UNIVERSAL_TIME_OFFSET ( 10, 0, .AHEAD. ) ;
#252 = PRODUCT_DEFINITION_SHAPE ( 'NONE', 'NONE',  #295 ) ;
#253 = ITEM_DEFINED_TRANSFORMATION ( 'NONE', 'NONE', #325,  #148 ) ;
#254 = APPROVAL_PERSON_ORGANIZATION ( #170, #235, #142 ) ;
#255 = COORDINATED_UNIVERSAL_TIME_OFFSET ( 10, 0, .AHEAD. ) ;
#256 = CALENDAR_DATE ( 2026, 22, 6 ) ;
#257 = APPROVAL ( #179, 'Coincident' ) ;
#258 = DATE_TIME_ROLE ( 'classification_date' ) ;
#259 = DESIGN_CONTEXT ( 'detailed design', #186, 'design' ) ;
#260 = PROPERTY_DEFINITION_REPRESENTATION ( #161, #144 ) ;
#261 = CC_DESIGN_SECURITY_CLASSIFICATION ( #338, ( #171 ) ) ;
#262 = PERSON_AND_ORGANIZATION ( #18446744073709551615, #18446744073709551615 ) ;
#263 = PERSON_AND_ORGANIZATION_ROLE ( 'design_owner' ) ;
#264 = CALENDAR_DATE ( 2026, 22, 6 ) ;
#265 = APPROVAL_ROLE ( '' ) ;
#266 = CC_DESIGN_DATE_AND_TIME_ASSIGNMENT ( #269, #149, ( #7 ) ) ;
#267 = APPROVAL_DATE_TIME ( #230, #348 ) ;
#268 = APPROVAL_STATUS ( 'not_yet_approved' ) ;
#269 = DATE_AND_TIME ( #50, #184 ) ;
#270 = ORGANIZATION ( 'NAUO-ORG38', 'UNSPECIFIED', 'UNSPECIFIED' ) ;
#271 = CARTESIAN_POINT ( 'NONE',  ( 0.000000000000000000, 0.000000000000000000, 0.000000000000000000 ) ) ;
#272 = COORDINATED_UNIVERSAL_TIME_OFFSET ( 10, 0, .AHEAD. ) ;
#273 = IDENTIFICATION_ROLE ( 'external document id and location', $) ;
#274 = COORDINATED_UNIVERSAL_TIME_OFFSET ( 10, 0, .AHEAD. ) ;
#275 = CC_DESIGN_APPROVAL ( #235, ( #326 ) ) ;
#276 = PROPERTY_DEFINITION_REPRESENTATION ( #190, #293 ) ;
#277 = APPROVAL_ROLE ( '' ) ;
#278 = SECURITY_CLASSIFICATION ( '', '', #383 ) ;
#279 = PERSON_AND_ORGANIZATION ( #18446744073709551615, #18446744073709551615 ) ;
#280 = DATE_AND_TIME ( #305, #132 ) ;
#281 = CALENDAR_DATE ( 2026, 22, 6 ) ;
#282 = APPROVAL_STATUS ( 'not_yet_approved' ) ;
#283 = DOCUMENT_TYPE ( 'geometry' ) ;
#284 = CALENDAR_DATE ( 2026, 22, 6 ) ;
#285 = SECURITY_CLASSIFICATION ( '', '', #318 ) ;
#286 = CC_DESIGN_DATE_AND_TIME_ASSIGNMENT ( #17, #314, ( #338 ) ) ;
#287 = CALENDAR_DATE ( 2026, 22, 6 ) ;
#288 = COORDINATED_UNIVERSAL_TIME_OFFSET ( 10, 0, .AHEAD. ) ;
#289 = DOCUMENT_TYPE ( 'geometry' ) ;
#290 = PERSON_AND_ORGANIZATION_ROLE ( 'design_supplier' ) ;
#291 = COORDINATED_UNIVERSAL_TIME_OFFSET ( 10, 0, .AHEAD. ) ;
#292 = ORGANIZATION ( 'NAUO-ORG37', 'UNSPECIFIED', 'UNSPECIFIED' ) ;
#293 = SHAPE_REPRESENTATION ( '6461082896.step', ( #148 ), #337 ) ;
#294 = CALENDAR_DATE ( 2026, 22, 6 ) ;
#295 = PRODUCT_DEFINITION ( 'General', '', #201, #328 ) ;
#296 = CALENDAR_DATE ( 2026, 22, 6 ) ;
#297 = PERSON_AND_ORGANIZATION_ROLE ( 'classification_officer' ) ;
#298 = DATE_TIME_ROLE ( 'creation_date' ) ;
#299 = PERSON_AND_ORGANIZATION_ROLE ( 'creator' ) ;
#300 = DESIGN_CONTEXT ( 'detailed design', #366, 'design' ) ;
#301 = LOCAL_TIME ( 18, 49, 52.00000000000000000, #75 ) ;
#302 = CC_DESIGN_DATE_AND_TIME_ASSIGNMENT ( #105, #160, ( #308 ) ) ;
#303 = APPLICATION_PROTOCOL_DEFINITION ( 'international standard', 'config_control_design', 1994, #366 ) ;
#304 = APPROVAL_DATE_TIME ( #211, #224 ) ;
#305 = CALENDAR_DATE ( 2026, 22, 6 ) ;
#306 =( NAMED_UNIT ( * ) SI_UNIT ( $, .STERADIAN. ) SOLID_ANGLE_UNIT ( ) );
#307 = DIRECTION ( 'NONE',  ( 1.000000000000000222, -1.092455418989176591E-28, 4.890937612370273194E-29 ) ) ;
#308 = SECURITY_CLASSIFICATION ( '', '', #210 ) ;
#309 = APPLICATION_PROTOCOL_DEFINITION ( 'international standard', 'config_control_design', 1994, #56 ) ;
#310 = APPLICATION_CONTEXT ( 'configuration controlled 3d designs of mechanical parts and assemblies' ) ;
#311 = SECURITY_CLASSIFICATION_LEVEL ( 'unclassified' ) ;
#312 = CC_DESIGN_PERSON_AND_ORGANIZATION_ASSIGNMENT ( #279, #225, ( #338 ) ) ;
#313 = LOCAL_TIME ( 18, 49, 52.00000000000000000, #291 ) ;
#314 = DATE_TIME_ROLE ( 'classification_date' ) ;
#315 = COORDINATED_UNIVERSAL_TIME_OFFSET ( 10, 0, .AHEAD. ) ;
#316 = PRODUCT_DEFINITION_SHAPE ( 'NONE', 'NONE',  #390 ) ;
#317 = CC_DESIGN_PERSON_AND_ORGANIZATION_ASSIGNMENT ( #36, #10, ( #171 ) ) ;
#318 = SECURITY_CLASSIFICATION_LEVEL ( 'unclassified' ) ;
#319 = APPROVAL_ROLE ( '' ) ;
#320 = APPLIED_EXTERNAL_IDENTIFICATION_ASSIGNMENT ( '6461083056.step.STEP' , #193, #99,( #249) ) ;
#321 = DIRECTION ( 'NONE',  ( 0.000000000000000000, 0.000000000000000000, 1.000000000000000000 ) ) ;
#322 = PERSON_AND_ORGANIZATION ( #18446744073709551615, #18446744073709551615 ) ;
#323 = PERSON_AND_ORGANIZATION ( #18446744073709551615, #18446744073709551615 ) ;
#324 = CC_DESIGN_PERSON_AND_ORGANIZATION_ASSIGNMENT ( #2, #238, ( #295 ) ) ;
#325 = AXIS2_PLACEMENT_3D ( 'NONE', #334, #31, #363 ) ;
#326 = PRODUCT_DEFINITION_FORMATION_WITH_SPECIFIED_SOURCE ( 'Symmetric', '', #227, .NOT_KNOWN. ) ;
#327 = DATE_AND_TIME ( #29, #128 ) ;
#328 = DESIGN_CONTEXT ( 'detailed design', #56, 'design' ) ;
#329 = APPLICATION_PROTOCOL_DEFINITION ( 'international standard', 'config_control_design', 1994, #310 ) ;
#330 = CALENDAR_DATE ( 2026, 22, 6 ) ;
#331 = APPROVAL_ROLE ( '' ) ;
#332 = APPROVAL_STATUS ( 'not_yet_approved' ) ;
#333 = CC_DESIGN_APPROVAL ( #167, ( #308 ) ) ;
#334 = CARTESIAN_POINT ( 'NONE',  ( 1.800000244110999903, 6.350002563477001871, -2.058321952820000078 ) ) ;
#335 = CC_DESIGN_PERSON_AND_ORGANIZATION_ASSIGNMENT ( #352, #57, ( #227 ) ) ;
#336 = PERSON_AND_ORGANIZATION_ROLE ( 'design_owner' ) ;
#337 =( GEOMETRIC_REPRESENTATION_CONTEXT ( 3 ) GLOBAL_UNCERTAINTY_ASSIGNED_CONTEXT ( ( #174 ) ) GLOBAL_UNIT_ASSIGNED_CONTEXT ( ( #173, #140, #165 ) ) REPRESENTATION_CONTEXT ( 'NONE', 'WORKASPACE' ) );
#338 = SECURITY_CLASSIFICATION ( '', '', #311 ) ;
#339 = PERSON_AND_ORGANIZATION_ROLE ( 'classification_officer' ) ;
#340 = CC_DESIGN_PERSON_AND_ORGANIZATION_ASSIGNMENT ( #202, #299, ( #326 ) ) ;
#341 =( REPRESENTATION_RELATIONSHIP ('NONE','NONE', #232, #293 ) REPRESENTATION_RELATIONSHIP_WITH_TRANSFORMATION ( #253 )SHAPE_REPRESENTATION_RELATIONSHIP( ) );
#342 = CC_DESIGN_SECURITY_CLASSIFICATION ( #278, ( #201 ) ) ;
#343 = APPROVAL_STATUS ( 'not_yet_approved' ) ;
#344 = SHAPE_DEFINITION_REPRESENTATION ( #345, #293 ) ;
#345 = PRODUCT_DEFINITION_SHAPE ( 'NONE', 'NONE',  #96 ) ;
#346 = APPLICATION_CONTEXT ( 'configuration controlled 3d designs of mechanical parts and assemblies' ) ;
#347 = PROPERTY_DEFINITION ('document property','', #249 ) ;
#348 = APPROVAL ( #114, 'Coincident' ) ;
#349 = PERSON_AND_ORGANIZATION_ROLE ( 'classification_officer' ) ;
#350 = APPROVAL_PERSON_ORGANIZATION ( #27, #141, #384 ) ;
#351 = DATE_AND_TIME ( #150, #245 ) ;
#352 = PERSON_AND_ORGANIZATION ( #18446744073709551615, #18446744073709551615 ) ;
#353 = CALENDAR_DATE ( 2026, 22, 6 ) ;
#354 = CARTESIAN_POINT ( 'NONE',  ( 0.000000000000000000, 0.000000000000000000, 0.000000000000000000 ) ) ;
#355 = CC_DESIGN_SECURITY_CLASSIFICATION ( #124, ( #390 ) ) ;
#356 = MECHANICAL_CONTEXT ( 'NONE', #346, 'mechanical' ) ;
#357 = CC_DESIGN_DATE_AND_TIME_ASSIGNMENT ( #228, #43, ( #124 ) ) ;
#358 = APPROVAL_DATE_TIME ( #54, #257 ) ;
#359 = COORDINATED_UNIVERSAL_TIME_OFFSET ( 10, 0, .AHEAD. ) ;
#360 = PERSON_AND_ORGANIZATION_ROLE ( 'creator' ) ;
#361 = AXIS2_PLACEMENT_3D ( 'NONE', #354, #115, #95 ) ;
#362 = LOCAL_TIME ( 18, 49, 52.00000000000000000, #251 ) ;
#363 = DIRECTION ( 'NONE',  ( 1.000000000000000222, -1.092455418989176591E-28, 4.890937612370273194E-29 ) ) ;
#364 = CC_DESIGN_PERSON_AND_ORGANIZATION_ASSIGNMENT ( #192, #72, ( #308 ) ) ;
#365 = PROPERTY_DEFINITION ('external definition','', #135 ) ;
#366 = APPLICATION_CONTEXT ( 'configuration controlled 3d designs of mechanical parts and assemblies' ) ;
#367 = APPROVAL_PERSON_ORGANIZATION ( #154, #224, #277 ) ;
#368 = LOCAL_TIME ( 18, 49, 52.00000000000000000, #58 ) ;
#369 = APPROVAL ( #343, 'Coincident' ) ;
#370 = APPROVAL_STATUS ( 'not_yet_approved' ) ;
#371 = OBJECT_ROLE ('mandatory',$ ) ;
#372 = PROPERTY_DEFINITION_REPRESENTATION ( #40, #293 ) ;
#373 = ROLE_ASSOCIATION ( #49, #226 ) ;
#374 = LOCAL_TIME ( 18, 49, 52.00000000000000000, #180 ) ;
#375 = CC_DESIGN_SECURITY_CLASSIFICATION ( #308, ( #389 ) ) ;
#376 = CC_DESIGN_PERSON_AND_ORGANIZATION_ASSIGNMENT ( #88, #290, ( #326 ) ) ;
#377 = PROPERTY_DEFINITION_REPRESENTATION ( #365, #293 ) ;
#378 = PERSON ( 'NAUO-PER38', 'UNSPECIFIED', 'UNSPECIFIED', ('UNSPECIFIED'), ('UNSPECIFIED'), ('UNSPECIFIED') ) ;
#379 = CALENDAR_DATE ( 2026, 22, 6 ) ;
#380 = COORDINATED_UNIVERSAL_TIME_OFFSET ( 10, 0, .AHEAD. ) ;
#381 = LOCAL_TIME ( 18, 49, 52.00000000000000000, #255 ) ;
#382 = CC_DESIGN_PERSON_AND_ORGANIZATION_ASSIGNMENT ( #322, #207, ( #278 ) ) ;
#383 = SECURITY_CLASSIFICATION_LEVEL ( 'unclassified' ) ;
#384 = APPROVAL_ROLE ( '' ) ;
#385 = APPROVAL_STATUS ( 'not_yet_approved' ) ;
#386 = COORDINATED_UNIVERSAL_TIME_OFFSET ( 10, 0, .AHEAD. ) ;
#387 = PERSON_AND_ORGANIZATION_ROLE ( 'creator' ) ;
#388 = NEXT_ASSEMBLY_USAGE_OCCURRENCE ( 'NAUO36', ' ', ' ', #295, #96, $ ) ;
#389 = NEXT_ASSEMBLY_USAGE_OCCURRENCE ( 'NAUO37', ' ', ' ', #295, #96, $ ) ;
#390 = NEXT_ASSEMBLY_USAGE_OCCURRENCE ( 'NAUO38', ' ', ' ', #295, #7, $ ) ;
ENDSEC;
END-ISO-10303-21;
