ISO-10303-21;
HEADER;
FILE_DESCRIPTION (( 'STEP AP203' ),
    '1' );
FILE_NAME ('C27.step.STEP',
    '2026-06-22T08:49:58',
    ( 'localuser' ),
    ( '' ),
    'SwSTEP 2.0',
    'SolidWorks 2025',
    '' );
FILE_SCHEMA (( 'CONFIG_CONTROL_DESIGN' ));
ENDSEC;

DATA;
#1 = DIRECTION ( 'NONE',  ( 1.000000000000000000, 0.000000000000000000, 0.000000000000000000 ) ) ;
#2 = APPROVAL ( #333, 'UNKNOWN' ) ;
#3 = CONTEXT_DEPENDENT_SHAPE_REPRESENTATION ( #165, #53 ) ;
#4 = APPROVAL ( #175, 'Coincident' ) ;
#5 = DOCUMENT_FILE ( '6461079856.step.STEP' , '', '', #325, '' ,$ ) ;
#6 = APPROVAL_STATUS ( 'not_yet_approved' ) ;
#7 = LOCAL_TIME ( 18, 49, 58.00000000000000000, #134 ) ;
#8 = COORDINATED_UNIVERSAL_TIME_OFFSET ( 10, 0, .AHEAD. ) ;
#9 = COORDINATED_UNIVERSAL_TIME_OFFSET ( 10, 0, .AHEAD. ) ;
#10 = CONTEXT_DEPENDENT_SHAPE_REPRESENTATION ( #341, #111 ) ;
#11 = CC_DESIGN_PERSON_AND_ORGANIZATION_ASSIGNMENT ( #170, #136, ( #185 ) ) ;
#12 = ROLE_ASSOCIATION ( #42, #16 ) ;
#13 = DATE_TIME_ROLE ( 'classification_date' ) ;
#14 = CC_DESIGN_APPROVAL ( #2, ( #255 ) ) ;
#15 = APPROVAL ( #6, 'UNKNOWN' ) ;
#16 = APPLIED_DOCUMENT_REFERENCE ( #5,'',( #180) ) ;
#17 = PERSON_AND_ORGANIZATION ( #18446744073709551615, #18446744073709551615 ) ;
#18 = DIRECTION ( 'NONE',  ( 1.000000000000000222, -1.092455418989176591E-28, 4.890937612370273194E-29 ) ) ;
#19 = CALENDAR_DATE ( 2026, 22, 6 ) ;
#20 = CC_DESIGN_APPROVAL ( #95, ( #39 ) ) ;
#21 = MECHANICAL_CONTEXT ( 'NONE', #101, 'mechanical' ) ;
#22 = DOCUMENT_TYPE ( 'geometry' ) ;
#23 = APPROVAL_STATUS ( 'not_yet_approved' ) ;
#24 = COORDINATED_UNIVERSAL_TIME_OFFSET ( 10, 0, .AHEAD. ) ;
#25 = LOCAL_TIME ( 18, 49, 58.00000000000000000, #142 ) ;
#26 = DATE_AND_TIME ( #82, #323 ) ;
#27 = CC_DESIGN_PERSON_AND_ORGANIZATION_ASSIGNMENT ( #354, #296, ( #174 ) ) ;
#28 = DATE_AND_TIME ( #159, #143 ) ;
#29 = CC_DESIGN_APPROVAL ( #272, ( #372 ) ) ;
#30 = DATE_TIME_ROLE ( 'classification_date' ) ;
#31 = APPROVAL_PERSON_ORGANIZATION ( #258, #95, #68 ) ;
#32 = LOCAL_TIME ( 18, 49, 58.00000000000000000, #131 ) ;
#33 = CC_DESIGN_DATE_AND_TIME_ASSIGNMENT ( #235, #137, ( #185 ) ) ;
#34 = DESIGN_CONTEXT ( 'detailed design', #147, 'design' ) ;
#35 = APPROVAL_ROLE ( '' ) ;
#36 = CC_DESIGN_PERSON_AND_ORGANIZATION_ASSIGNMENT ( #87, #377, ( #180 ) ) ;
#37 = PERSON_AND_ORGANIZATION ( #18446744073709551615, #18446744073709551615 ) ;
#38 = PROPERTY_DEFINITION_REPRESENTATION ( #172, #250 ) ;
#39 = SECURITY_CLASSIFICATION ( '', '', #100 ) ;
#40 = DATE_AND_TIME ( #232, #133 ) ;
#41 = APPROVAL_STATUS ( 'not_yet_approved' ) ;
#42 = OBJECT_ROLE ('mandatory',$ ) ;
#43 = DOCUMENT_FILE ( '6534431024.step.STEP' , '', '', #176, '' ,$ ) ;
#44 =( NAMED_UNIT ( * ) PLANE_ANGLE_UNIT ( ) SI_UNIT ( $, .RADIAN. ) );
#45 = CARTESIAN_POINT ( 'NONE',  ( 7.399998718232001060, 3.250004089354996406, -2.058321952820000078 ) ) ;
#46 = AXIS2_PLACEMENT_3D ( 'NONE', #279, #182, #1 ) ;
#47 = CC_DESIGN_SECURITY_CLASSIFICATION ( #263, ( #372 ) ) ;
#48 = DATE_TIME_ROLE ( 'classification_date' ) ;
#49 = DIRECTION ( 'NONE',  ( 1.000000000000000222, -1.092455418989176591E-28, 4.890937612370273194E-29 ) ) ;
#50 = DATE_TIME_ROLE ( 'creation_date' ) ;
#51 = PROPERTY_DEFINITION ('external definition','', #43 ) ;
#52 = CALENDAR_DATE ( 2026, 22, 6 ) ;
#53 = PRODUCT_DEFINITION_SHAPE ( 'NONE', 'NONE',  #388 ) ;
#54 = LOCAL_TIME ( 18, 49, 58.00000000000000000, #314 ) ;
#55 = PERSON_AND_ORGANIZATION ( #18446744073709551615, #18446744073709551615 ) ;
#56 = PERSON_AND_ORGANIZATION_ROLE ( 'design_supplier' ) ;
#57 = PRODUCT_RELATED_PRODUCT_CATEGORY ( 'detail', '', ( #174 ) ) ;
#58 = DATE_AND_TIME ( #52, #229 ) ;
#59 = APPLIED_EXTERNAL_IDENTIFICATION_ASSIGNMENT ( '6534431024.step.STEP' , #371, #350,( #43) ) ;
#60 = DATE_AND_TIME ( #330, #194 ) ;
#61 = CALENDAR_DATE ( 2026, 22, 6 ) ;
#62 = PERSON_AND_ORGANIZATION ( #18446744073709551615, #18446744073709551615 ) ;
#63 = ROLE_ASSOCIATION ( #251, #221 ) ;
#64 = CC_DESIGN_APPROVAL ( #381, ( #185 ) ) ;
#65 = PROPERTY_DEFINITION_REPRESENTATION ( #368, #250 ) ;
#66 = SHAPE_REPRESENTATION ( 'C27.step', ( #130, #81, #92, #199 ), #338 ) ;
#67 = CC_DESIGN_PERSON_AND_ORGANIZATION_ASSIGNMENT ( #258, #342, ( #39 ) ) ;
#68 = APPROVAL_ROLE ( '' ) ;
#69 = CC_DESIGN_PERSON_AND_ORGANIZATION_ASSIGNMENT ( #122, #334, ( #155 ) ) ;
#70 = MECHANICAL_CONTEXT ( 'NONE', #307, 'mechanical' ) ;
#71 = APPROVAL_ROLE ( '' ) ;
#72 = CC_DESIGN_PERSON_AND_ORGANIZATION_ASSIGNMENT ( #277, #275, ( #113 ) ) ;
#73 = DIRECTION ( 'NONE',  ( 4.890937612370273194E-29, -3.155443620884047222E-30, 0.9999999999999997780 ) ) ;
#74 = APPROVAL_STATUS ( 'not_yet_approved' ) ;
#75 = CC_DESIGN_APPROVAL ( #15, ( #339 ) ) ;
#76 = PERSON_AND_ORGANIZATION ( #18446744073709551615, #18446744073709551615 ) ;
#77 = DATE_AND_TIME ( #85, #276 ) ;
#78 = PRODUCT_DEFINITION_SHAPE ( 'NONE', 'NONE',  #389 ) ;
#79 = EXTERNAL_SOURCE (IDENTIFIER('') ) ;
#80 = DATE_AND_TIME ( #271, #103 ) ;
#81 = AXIS2_PLACEMENT_3D ( 'NONE', #202, #140, #295 ) ;
#82 = CALENDAR_DATE ( 2026, 22, 6 ) ;
#83 = CC_DESIGN_PERSON_AND_ORGANIZATION_ASSIGNMENT ( #306, #281, ( #255 ) ) ;
#84 = UNCERTAINTY_MEASURE_WITH_UNIT (LENGTH_MEASURE( 1.000000000000000082E-05 ), #216, 'distance_accuracy_value', 'NONE');
#85 = CALENDAR_DATE ( 2026, 22, 6 ) ;
#86 = CC_DESIGN_PERSON_AND_ORGANIZATION_ASSIGNMENT ( #204, #119, ( #168 ) ) ;
#87 = PERSON_AND_ORGANIZATION ( #18446744073709551615, #18446744073709551615 ) ;
#88 = DESIGN_CONTEXT ( 'detailed design', #125, 'design' ) ;
#89 = PERSON_AND_ORGANIZATION_ROLE ( 'creator' ) ;
#90 = CALENDAR_DATE ( 2026, 22, 6 ) ;
#91 = SHAPE_DEFINITION_REPRESENTATION ( #114, #250 ) ;
#92 = AXIS2_PLACEMENT_3D ( 'NONE', #316, #267, #18 ) ;
#93 = APPROVAL_ROLE ( '' ) ;
#94 = APPLIED_EXTERNAL_IDENTIFICATION_ASSIGNMENT ( '6461079856.step.STEP' , #363, #231,( #230) ) ;
#95 = APPROVAL ( #74, 'UNKNOWN' ) ;
#96 = ROLE_ASSOCIATION ( #302, #193 ) ;
#97 = DIRECTION ( 'NONE',  ( 1.000000000000000000, 0.000000000000000000, 0.000000000000000000 ) ) ;
#98 = PRODUCT_RELATED_PRODUCT_CATEGORY ( 'detail', '', ( #269 ) ) ;
#99 = CALENDAR_DATE ( 2026, 22, 6 ) ;
#100 = SECURITY_CLASSIFICATION_LEVEL ( 'unclassified' ) ;
#101 = APPLICATION_CONTEXT ( 'configuration controlled 3d designs of mechanical parts and assemblies' ) ;
#102 = APPLICATION_PROTOCOL_DEFINITION ( 'international standard', 'config_control_design', 1994, #189 ) ;
#103 = LOCAL_TIME ( 18, 49, 58.00000000000000000, #351 ) ;
#104 = DATE_AND_TIME ( #261, #7 ) ;
#105 = PERSON_AND_ORGANIZATION_ROLE ( 'design_owner' ) ;
#106 = PROPERTY_DEFINITION_REPRESENTATION ( #145, #250 ) ;
#107 = APPROVAL ( #120, 'Coincident' ) ;
#108 = APPLICATION_PROTOCOL_DEFINITION ( 'international standard', 'config_control_design', 1994, #307 ) ;
#109 = COORDINATED_UNIVERSAL_TIME_OFFSET ( 10, 0, .AHEAD. ) ;
#110 = CC_DESIGN_SECURITY_CLASSIFICATION ( #236, ( #155 ) ) ;
#111 = PRODUCT_DEFINITION_SHAPE ( 'NONE', 'NONE',  #390 ) ;
#112 = SHAPE_DEFINITION_REPRESENTATION ( #238, #66 ) ;
#113 = PRODUCT_DEFINITION ( 'General', '', #168, #34 ) ;
#114 = PRODUCT_DEFINITION_SHAPE ( 'NONE', 'NONE',  #180 ) ;
#115 = PERSON_AND_ORGANIZATION_ROLE ( 'design_owner' ) ;
#116 = APPROVAL_ROLE ( '' ) ;
#117 = LOCAL_TIME ( 18, 49, 58.00000000000000000, #294 ) ;
#118 = CC_DESIGN_APPROVAL ( #253, ( #155 ) ) ;
#119 = PERSON_AND_ORGANIZATION_ROLE ( 'creator' ) ;
#120 = APPROVAL_STATUS ( 'not_yet_approved' ) ;
#121 = PERSON ( 'NAUO-PER210', 'UNSPECIFIED', 'UNSPECIFIED', ('UNSPECIFIED'), ('UNSPECIFIED'), ('UNSPECIFIED') ) ;
#122 = PERSON_AND_ORGANIZATION ( #18446744073709551615, #18446744073709551615 ) ;
#123 =( GEOMETRIC_REPRESENTATION_CONTEXT ( 3 ) GLOBAL_UNCERTAINTY_ASSIGNED_CONTEXT ( ( #328 ) ) GLOBAL_UNIT_ASSIGNED_CONTEXT ( ( #126, #357, #225 ) ) REPRESENTATION_CONTEXT ( 'NONE', 'WORKASPACE' ) );
#124 = CALENDAR_DATE ( 2026, 22, 6 ) ;
#125 = APPLICATION_CONTEXT ( 'configuration controlled 3d designs of mechanical parts and assemblies' ) ;
#126 =( LENGTH_UNIT ( ) NAMED_UNIT ( * ) SI_UNIT ( .MILLI., .METRE. ) );
#127 = CC_DESIGN_PERSON_AND_ORGANIZATION_ASSIGNMENT ( #259, #233, ( #372 ) ) ;
#128 = DATE_AND_TIME ( #90, #217 ) ;
#129 = ITEM_DEFINED_TRANSFORMATION ( 'NONE', 'NONE', #92,  #160 ) ;
#130 = AXIS2_PLACEMENT_3D ( 'NONE', #242, #262, #344 ) ;
#131 = COORDINATED_UNIVERSAL_TIME_OFFSET ( 10, 0, .AHEAD. ) ;
#132 = CC_DESIGN_PERSON_AND_ORGANIZATION_ASSIGNMENT ( #178, #243, ( #190 ) ) ;
#133 = LOCAL_TIME ( 18, 49, 58.00000000000000000, #8 ) ;
#134 = COORDINATED_UNIVERSAL_TIME_OFFSET ( 10, 0, .AHEAD. ) ;
#135 = CALENDAR_DATE ( 2026, 22, 6 ) ;
#136 = PERSON_AND_ORGANIZATION_ROLE ( 'creator' ) ;
#137 = DATE_TIME_ROLE ( 'creation_date' ) ;
#138 = CC_DESIGN_APPROVAL ( #4, ( #168 ) ) ;
#139 = APPROVAL_DATE_TIME ( #104, #95 ) ;
#140 = DIRECTION ( 'NONE',  ( 4.890937612370273194E-29, -3.155443620884047222E-30, 0.9999999999999997780 ) ) ;
#141 = SHAPE_REPRESENTATION ( '6534431024.step', ( #46 ), #123 ) ;
#142 = COORDINATED_UNIVERSAL_TIME_OFFSET ( 10, 0, .AHEAD. ) ;
#143 = LOCAL_TIME ( 18, 49, 58.00000000000000000, #303 ) ;
#144 = CC_DESIGN_PERSON_AND_ORGANIZATION_ASSIGNMENT ( #310, #89, ( #155 ) ) ;
#145 = PROPERTY_DEFINITION ('document property','', #5 ) ;
#146 = APPROVAL_DATE_TIME ( #77, #4 ) ;
#147 = APPLICATION_CONTEXT ( 'configuration controlled 3d designs of mechanical parts and assemblies' ) ;
#148 = APPROVAL_ROLE ( '' ) ;
#149 = APPROVAL ( #41, 'Coincident' ) ;
#150 = APPROVAL_ROLE ( '' ) ;
#151 = APPROVAL_PERSON_ORGANIZATION ( #62, #220, #93 ) ;
#152 = MECHANICAL_CONTEXT ( 'NONE', #207, 'mechanical' ) ;
#153 = APPROVAL_ROLE ( '' ) ;
#154 = COORDINATED_UNIVERSAL_TIME_OFFSET ( 10, 0, .AHEAD. ) ;
#155 = PRODUCT_DEFINITION_FORMATION_WITH_SPECIFIED_SOURCE ( 'Symmetric', '', #174, .NOT_KNOWN. ) ;
#156 = SECURITY_CLASSIFICATION_LEVEL ( 'unclassified' ) ;
#157 = ITEM_DEFINED_TRANSFORMATION ( 'NONE', 'NONE', #81,  #160 ) ;
#158 = APPROVAL ( #173, 'Coincident' ) ;
#159 = CALENDAR_DATE ( 2026, 22, 6 ) ;
#160 = AXIS2_PLACEMENT_3D ( 'NONE', #360, #211, #97 ) ;
#161 = CC_DESIGN_SECURITY_CLASSIFICATION ( #39, ( #390 ) ) ;
#162 = DATE_AND_TIME ( #374, #117 ) ;
#163 = PERSON_AND_ORGANIZATION ( #121, #208 ) ;
#164 = CALENDAR_DATE ( 2026, 22, 6 ) ;
#165 =( REPRESENTATION_RELATIONSHIP ('NONE','NONE', #66, #250 ) REPRESENTATION_RELATIONSHIP_WITH_TRANSFORMATION ( #157 )SHAPE_REPRESENTATION_RELATIONSHIP( ) );
#166 = PROPERTY_DEFINITION_REPRESENTATION ( #51, #141 ) ;
#167 = PERSON_AND_ORGANIZATION ( #18446744073709551615, #18446744073709551615 ) ;
#168 = PRODUCT_DEFINITION_FORMATION_WITH_SPECIFIED_SOURCE ( 'Symmetric', '', #203, .NOT_KNOWN. ) ;
#169 = CC_DESIGN_PERSON_AND_ORGANIZATION_ASSIGNMENT ( #163, #198, ( #339 ) ) ;
#170 = PERSON_AND_ORGANIZATION ( #18446744073709551615, #18446744073709551615 ) ;
#171 = CC_DESIGN_DATE_AND_TIME_ASSIGNMENT ( #326, #50, ( #113 ) ) ;
#172 = PROPERTY_DEFINITION ('external definition','', #5 ) ;
#173 = APPROVAL_STATUS ( 'not_yet_approved' ) ;
#174 = PRODUCT ( '6461079856.step', '6461079856.step', '', ( #152 ) ) ;
#175 = APPROVAL_STATUS ( 'not_yet_approved' ) ;
#176 = DOCUMENT_TYPE ( 'geometry' ) ;
#177 = UNCERTAINTY_MEASURE_WITH_UNIT (LENGTH_MEASURE( 1.000000000000000082E-05 ), #268, 'distance_accuracy_value', 'NONE');
#178 = PERSON_AND_ORGANIZATION ( #18446744073709551615, #18446744073709551615 ) ;
#179 = CALENDAR_DATE ( 2026, 22, 6 ) ;
#180 = PRODUCT_DEFINITION ( 'General', '', #155, #88 ) ;
#181 = DATE_AND_TIME ( #179, #25 ) ;
#182 = DIRECTION ( 'NONE',  ( 0.000000000000000000, 0.000000000000000000, 1.000000000000000000 ) ) ;
#183 = CC_DESIGN_SECURITY_CLASSIFICATION ( #255, ( #388 ) ) ;
#184 = APPROVAL_DATE_TIME ( #60, #15 ) ;
#185 = PRODUCT_DEFINITION ( 'General', '', #372, #256 ) ;
#186 = COORDINATED_UNIVERSAL_TIME_OFFSET ( 10, 0, .AHEAD. ) ;
#187 =( NAMED_UNIT ( * ) SI_UNIT ( $, .STERADIAN. ) SOLID_ANGLE_UNIT ( ) );
#188 = APPROVAL_ROLE ( '' ) ;
#189 = APPLICATION_CONTEXT ( 'configuration controlled 3d designs of mechanical parts and assemblies' ) ;
#190 = SECURITY_CLASSIFICATION ( '', '', #297 ) ;
#191 = PROPERTY_DEFINITION_REPRESENTATION ( #260, #250 ) ;
#192 = CC_DESIGN_PERSON_AND_ORGANIZATION_ASSIGNMENT ( #304, #309, ( #236 ) ) ;
#193 = APPLIED_DOCUMENT_REFERENCE ( #43,'',( #113) ) ;
#194 = LOCAL_TIME ( 18, 49, 58.00000000000000000, #214 ) ;
#195 = PERSON_AND_ORGANIZATION_ROLE ( 'classification_officer' ) ;
#196 = CC_DESIGN_PERSON_AND_ORGANIZATION_ASSIGNMENT ( #17, #105, ( #269 ) ) ;
#197 = DATE_AND_TIME ( #99, #54 ) ;
#198 = PERSON_AND_ORGANIZATION_ROLE ( 'classification_officer' ) ;
#199 = AXIS2_PLACEMENT_3D ( 'NONE', #45, #73, #49 ) ;
#200 = APPROVAL_DATE_TIME ( #162, #381 ) ;
#201 = LOCAL_TIME ( 18, 49, 58.00000000000000000, #154 ) ;
#202 = CARTESIAN_POINT ( 'NONE',  ( 7.399998718232001060, 2.750004089354999515, -2.058321952820000078 ) ) ;
#203 = PRODUCT ( '6534431024.step', '6534431024.step', '', ( #21 ) ) ;
#204 = PERSON_AND_ORGANIZATION ( #18446744073709551615, #18446744073709551615 ) ;
#205 = COORDINATED_UNIVERSAL_TIME_OFFSET ( 10, 0, .AHEAD. ) ;
#206 = LOCAL_TIME ( 18, 49, 58.00000000000000000, #9 ) ;
#207 = APPLICATION_CONTEXT ( 'configuration controlled 3d designs of mechanical parts and assemblies' ) ;
#208 = ORGANIZATION ( 'NAUO-ORG210', 'UNSPECIFIED', 'UNSPECIFIED' ) ;
#209 = APPROVAL_PERSON_ORGANIZATION ( #306, #2, #188 ) ;
#210 = APPROVAL_DATE_TIME ( #80, #158 ) ;
#211 = DIRECTION ( 'NONE',  ( 0.000000000000000000, 0.000000000000000000, 1.000000000000000000 ) ) ;
#212 = PERSON_AND_ORGANIZATION ( #18446744073709551615, #18446744073709551615 ) ;
#213 = CC_DESIGN_DATE_AND_TIME_ASSIGNMENT ( #40, #228, ( #39 ) ) ;
#214 = COORDINATED_UNIVERSAL_TIME_OFFSET ( 10, 0, .AHEAD. ) ;
#215 =( GEOMETRIC_REPRESENTATION_CONTEXT ( 3 ) GLOBAL_UNCERTAINTY_ASSIGNED_CONTEXT ( ( #84 ) ) GLOBAL_UNIT_ASSIGNED_CONTEXT ( ( #216, #386, #187 ) ) REPRESENTATION_CONTEXT ( 'NONE', 'WORKASPACE' ) );
#216 =( LENGTH_UNIT ( ) NAMED_UNIT ( * ) SI_UNIT ( .MILLI., .METRE. ) );
#217 = LOCAL_TIME ( 18, 49, 58.00000000000000000, #349 ) ;
#218 = APPROVAL_DATE_TIME ( #28, #220 ) ;
#219 = APPROVAL_DATE_TIME ( #358, #253 ) ;
#220 = APPROVAL ( #247, 'Coincident' ) ;
#221 = APPLIED_DOCUMENT_REFERENCE ( #230,'',( #180) ) ;
#222 = CC_DESIGN_PERSON_AND_ORGANIZATION_ASSIGNMENT ( #167, #195, ( #263 ) ) ;
#223 = LOCAL_TIME ( 18, 49, 58.00000000000000000, #282 ) ;
#224 = DATE_AND_TIME ( #362, #223 ) ;
#225 =( NAMED_UNIT ( * ) SI_UNIT ( $, .STERADIAN. ) SOLID_ANGLE_UNIT ( ) );
#226 = PERSON_AND_ORGANIZATION ( #18446744073709551615, #18446744073709551615 ) ;
#227 = APPROVAL_PERSON_ORGANIZATION ( #300, #107, #116 ) ;
#228 = DATE_TIME_ROLE ( 'classification_date' ) ;
#229 = LOCAL_TIME ( 18, 49, 58.00000000000000000, #321 ) ;
#230 = DOCUMENT_FILE ( '6461079856.step.STEP' , '', '', #22, '' ,$ ) ;
#231 = EXTERNAL_SOURCE (IDENTIFIER('') ) ;
#232 = CALENDAR_DATE ( 2026, 22, 6 ) ;
#233 = PERSON_AND_ORGANIZATION_ROLE ( 'creator' ) ;
#234 =( NAMED_UNIT ( * ) SI_UNIT ( $, .STERADIAN. ) SOLID_ANGLE_UNIT ( ) );
#235 = DATE_AND_TIME ( #164, #285 ) ;
#236 = SECURITY_CLASSIFICATION ( '', '', #364 ) ;
#237 = PERSON_AND_ORGANIZATION ( #18446744073709551615, #18446744073709551615 ) ;
#238 = PRODUCT_DEFINITION_SHAPE ( 'NONE', 'NONE',  #185 ) ;
#239 = APPLICATION_PROTOCOL_DEFINITION ( 'international standard', 'config_control_design', 1994, #101 ) ;
#240 = COORDINATED_UNIVERSAL_TIME_OFFSET ( 10, 0, .AHEAD. ) ;
#241 = APPROVAL_PERSON_ORGANIZATION ( #237, #311, #148 ) ;
#242 = CARTESIAN_POINT ( 'NONE',  ( 0.000000000000000000, 0.000000000000000000, 0.000000000000000000 ) ) ;
#243 = PERSON_AND_ORGANIZATION_ROLE ( 'classification_officer' ) ;
#244 = CC_DESIGN_DATE_AND_TIME_ASSIGNMENT ( #367, #48, ( #339 ) ) ;
#245 = APPROVAL_DATE_TIME ( #26, #107 ) ;
#246 = PRODUCT_RELATED_PRODUCT_CATEGORY ( 'detail', '', ( #203 ) ) ;
#247 = APPROVAL_STATUS ( 'not_yet_approved' ) ;
#248 = ORGANIZATION ( 'NAUO-ORG211', 'UNSPECIFIED', 'UNSPECIFIED' ) ;
#249 = DATE_AND_TIME ( #124, #382 ) ;
#250 = SHAPE_REPRESENTATION ( '6461079856.step', ( #160 ), #215 ) ;
#251 = OBJECT_ROLE ('mandatory',$ ) ;
#252 = COORDINATED_UNIVERSAL_TIME_OFFSET ( 10, 0, .AHEAD. ) ;
#253 = APPROVAL ( #332, 'Coincident' ) ;
#254 = DATE_TIME_ROLE ( 'creation_date' ) ;
#255 = SECURITY_CLASSIFICATION ( '', '', #156 ) ;
#256 = DESIGN_CONTEXT ( 'detailed design', #189, 'design' ) ;
#257 = CALENDAR_DATE ( 2026, 22, 6 ) ;
#258 = PERSON_AND_ORGANIZATION ( #384, #248 ) ;
#259 = PERSON_AND_ORGANIZATION ( #18446744073709551615, #18446744073709551615 ) ;
#260 = PROPERTY_DEFINITION ('external definition','', #230 ) ;
#261 = CALENDAR_DATE ( 2026, 22, 6 ) ;
#262 = DIRECTION ( 'NONE',  ( 0.000000000000000000, 0.000000000000000000, 1.000000000000000000 ) ) ;
#263 = SECURITY_CLASSIFICATION ( '', '', #340 ) ;
#264 = CC_DESIGN_SECURITY_CLASSIFICATION ( #190, ( #168 ) ) ;
#265 = APPROVAL_ROLE ( '' ) ;
#266 = CC_DESIGN_DATE_AND_TIME_ASSIGNMENT ( #197, #13, ( #263 ) ) ;
#267 = DIRECTION ( 'NONE',  ( 4.890937612370273194E-29, -3.155443620884047222E-30, 0.9999999999999997780 ) ) ;
#268 =( LENGTH_UNIT ( ) NAMED_UNIT ( * ) SI_UNIT ( .MILLI., .METRE. ) );
#269 = PRODUCT ( 'C27.step', 'C27.step', '', ( #70 ) ) ;
#270 = PERSON_AND_ORGANIZATION ( #18446744073709551615, #18446744073709551615 ) ;
#271 = CALENDAR_DATE ( 2026, 22, 6 ) ;
#272 = APPROVAL ( #287, 'Coincident' ) ;
#273 =( REPRESENTATION_RELATIONSHIP ('NONE','NONE', #66, #250 ) REPRESENTATION_RELATIONSHIP_WITH_TRANSFORMATION ( #129 )SHAPE_REPRESENTATION_RELATIONSHIP( ) );
#274 = APPROVAL_DATE_TIME ( #181, #311 ) ;
#275 = PERSON_AND_ORGANIZATION_ROLE ( 'creator' ) ;
#276 = LOCAL_TIME ( 18, 49, 58.00000000000000000, #322 ) ;
#277 = PERSON_AND_ORGANIZATION ( #18446744073709551615, #18446744073709551615 ) ;
#278 = CALENDAR_DATE ( 2026, 22, 6 ) ;
#279 = CARTESIAN_POINT ( 'NONE',  ( 0.000000000000000000, 0.000000000000000000, 0.000000000000000000 ) ) ;
#280 = CC_DESIGN_APPROVAL ( #311, ( #190 ) ) ;
#281 = PERSON_AND_ORGANIZATION_ROLE ( 'classification_officer' ) ;
#282 = COORDINATED_UNIVERSAL_TIME_OFFSET ( 10, 0, .AHEAD. ) ;
#283 = SECURITY_CLASSIFICATION_LEVEL ( 'unclassified' ) ;
#284 = CC_DESIGN_DATE_AND_TIME_ASSIGNMENT ( #249, #305, ( #236 ) ) ;
#285 = LOCAL_TIME ( 18, 49, 58.00000000000000000, #109 ) ;
#286 = LOCAL_TIME ( 18, 49, 58.00000000000000000, #186 ) ;
#287 = APPROVAL_STATUS ( 'not_yet_approved' ) ;
#288 = ITEM_DEFINED_TRANSFORMATION ( 'NONE', 'NONE', #199,  #46 ) ;
#289 = PERSON_AND_ORGANIZATION ( #18446744073709551615, #18446744073709551615 ) ;
#290 = IDENTIFICATION_ROLE ( 'external document id and location', $) ;
#291 = APPROVAL_ROLE ( '' ) ;
#292 = APPROVAL_PERSON_ORGANIZATION ( #270, #158, #150 ) ;
#293 = APPROVAL_PERSON_ORGANIZATION ( #383, #4, #355 ) ;
#294 = COORDINATED_UNIVERSAL_TIME_OFFSET ( 10, 0, .AHEAD. ) ;
#295 = DIRECTION ( 'NONE',  ( 1.000000000000000222, -1.092455418989176591E-28, 4.890937612370273194E-29 ) ) ;
#296 = PERSON_AND_ORGANIZATION_ROLE ( 'design_owner' ) ;
#297 = SECURITY_CLASSIFICATION_LEVEL ( 'unclassified' ) ;
#298 = PROPERTY_DEFINITION ('document property','', #43 ) ;
#299 = DATE_TIME_ROLE ( 'classification_date' ) ;
#300 = PERSON_AND_ORGANIZATION ( #18446744073709551615, #18446744073709551615 ) ;
#301 = APPLICATION_PROTOCOL_DEFINITION ( 'international standard', 'config_control_design', 1994, #125 ) ;
#302 = OBJECT_ROLE ('mandatory',$ ) ;
#303 = COORDINATED_UNIVERSAL_TIME_OFFSET ( 10, 0, .AHEAD. ) ;
#304 = PERSON_AND_ORGANIZATION ( #18446744073709551615, #18446744073709551615 ) ;
#305 = DATE_TIME_ROLE ( 'classification_date' ) ;
#306 = PERSON_AND_ORGANIZATION ( #378, #359 ) ;
#307 = APPLICATION_CONTEXT ( 'configuration controlled 3d designs of mechanical parts and assemblies' ) ;
#308 = APPROVAL_PERSON_ORGANIZATION ( #226, #149, #265 ) ;
#309 = PERSON_AND_ORGANIZATION_ROLE ( 'classification_officer' ) ;
#310 = PERSON_AND_ORGANIZATION ( #18446744073709551615, #18446744073709551615 ) ;
#311 = APPROVAL ( #23, 'Coincident' ) ;
#312 = CONTEXT_DEPENDENT_SHAPE_REPRESENTATION ( #273, #78 ) ;
#313 = CC_DESIGN_APPROVAL ( #158, ( #113 ) ) ;
#314 = COORDINATED_UNIVERSAL_TIME_OFFSET ( 10, 0, .AHEAD. ) ;
#315 = DATE_AND_TIME ( #135, #206 ) ;
#316 = CARTESIAN_POINT ( 'NONE',  ( 7.399998718232001060, 3.749996459961005169, -2.058321952820000078 ) ) ;
#317 = CC_DESIGN_DATE_AND_TIME_ASSIGNMENT ( #128, #254, ( #180 ) ) ;
#318 = CC_DESIGN_SECURITY_CLASSIFICATION ( #339, ( #389 ) ) ;
#319 = APPROVAL_STATUS ( 'not_yet_approved' ) ;
#320 = DATE_AND_TIME ( #329, #353 ) ;
#321 = COORDINATED_UNIVERSAL_TIME_OFFSET ( 10, 0, .AHEAD. ) ;
#322 = COORDINATED_UNIVERSAL_TIME_OFFSET ( 10, 0, .AHEAD. ) ;
#323 = LOCAL_TIME ( 18, 49, 58.00000000000000000, #240 ) ;
#324 = CC_DESIGN_DATE_AND_TIME_ASSIGNMENT ( #224, #30, ( #255 ) ) ;
#325 = DOCUMENT_TYPE ( 'geometry' ) ;
#326 = DATE_AND_TIME ( #19, #346 ) ;
#327 = CC_DESIGN_PERSON_AND_ORGANIZATION_ASSIGNMENT ( #212, #115, ( #203 ) ) ;
#328 = UNCERTAINTY_MEASURE_WITH_UNIT (LENGTH_MEASURE( 1.000000000000000082E-05 ), #126, 'distance_accuracy_value', 'NONE');
#329 = CALENDAR_DATE ( 2026, 22, 6 ) ;
#330 = CALENDAR_DATE ( 2026, 22, 6 ) ;
#331 = CC_DESIGN_APPROVAL ( #149, ( #263 ) ) ;
#332 = APPROVAL_STATUS ( 'not_yet_approved' ) ;
#333 = APPROVAL_STATUS ( 'not_yet_approved' ) ;
#334 = PERSON_AND_ORGANIZATION_ROLE ( 'design_supplier' ) ;
#335 = APPROVAL_PERSON_ORGANIZATION ( #163, #15, #153 ) ;
#336 = DATE_AND_TIME ( #278, #201 ) ;
#337 = CC_DESIGN_PERSON_AND_ORGANIZATION_ASSIGNMENT ( #55, #56, ( #168 ) ) ;
#338 =( GEOMETRIC_REPRESENTATION_CONTEXT ( 3 ) GLOBAL_UNCERTAINTY_ASSIGNED_CONTEXT ( ( #177 ) ) GLOBAL_UNIT_ASSIGNED_CONTEXT ( ( #268, #44, #234 ) ) REPRESENTATION_CONTEXT ( 'NONE', 'WORKASPACE' ) );
#339 = SECURITY_CLASSIFICATION ( '', '', #283 ) ;
#340 = SECURITY_CLASSIFICATION_LEVEL ( 'unclassified' ) ;
#341 =( REPRESENTATION_RELATIONSHIP ('NONE','NONE', #66, #141 ) REPRESENTATION_RELATIONSHIP_WITH_TRANSFORMATION ( #288 )SHAPE_REPRESENTATION_RELATIONSHIP( ) );
#342 = PERSON_AND_ORGANIZATION_ROLE ( 'classification_officer' ) ;
#343 = APPROVAL_DATE_TIME ( #315, #272 ) ;
#344 = DIRECTION ( 'NONE',  ( 1.000000000000000000, 0.000000000000000000, 0.000000000000000000 ) ) ;
#345 = APPROVAL_PERSON_ORGANIZATION ( #76, #272, #291 ) ;
#346 = LOCAL_TIME ( 18, 49, 58.00000000000000000, #205 ) ;
#347 = PERSON_AND_ORGANIZATION ( #18446744073709551615, #18446744073709551615 ) ;
#348 = PRODUCT_DEFINITION_SHAPE ( 'NONE', 'NONE',  #113 ) ;
#349 = COORDINATED_UNIVERSAL_TIME_OFFSET ( 10, 0, .AHEAD. ) ;
#350 = EXTERNAL_SOURCE (IDENTIFIER('') ) ;
#351 = COORDINATED_UNIVERSAL_TIME_OFFSET ( 10, 0, .AHEAD. ) ;
#352 = CC_DESIGN_PERSON_AND_ORGANIZATION_ASSIGNMENT ( #289, #370, ( #372 ) ) ;
#353 = LOCAL_TIME ( 18, 49, 58.00000000000000000, #24 ) ;
#354 = PERSON_AND_ORGANIZATION ( #18446744073709551615, #18446744073709551615 ) ;
#355 = APPROVAL_ROLE ( '' ) ;
#356 = APPROVAL_DATE_TIME ( #320, #149 ) ;
#357 =( NAMED_UNIT ( * ) PLANE_ANGLE_UNIT ( ) SI_UNIT ( $, .RADIAN. ) );
#358 = DATE_AND_TIME ( #61, #286 ) ;
#359 = ORGANIZATION ( 'NAUO-ORG209', 'UNSPECIFIED', 'UNSPECIFIED' ) ;
#360 = CARTESIAN_POINT ( 'NONE',  ( 0.000000000000000000, 0.000000000000000000, 0.000000000000000000 ) ) ;
#361 = APPROVAL_DATE_TIME ( #336, #2 ) ;
#362 = CALENDAR_DATE ( 2026, 22, 6 ) ;
#363 = IDENTIFICATION_ROLE ( 'external document id and location', $) ;
#364 = SECURITY_CLASSIFICATION_LEVEL ( 'unclassified' ) ;
#365 = APPROVAL_PERSON_ORGANIZATION ( #347, #381, #71 ) ;
#366 = APPLIED_EXTERNAL_IDENTIFICATION_ASSIGNMENT ( '6461079856.step.STEP' , #290, #79,( #5) ) ;
#367 = DATE_AND_TIME ( #257, #32 ) ;
#368 = PROPERTY_DEFINITION ('document property','', #230 ) ;
#369 = PROPERTY_DEFINITION_REPRESENTATION ( #298, #141 ) ;
#370 = PERSON_AND_ORGANIZATION_ROLE ( 'design_supplier' ) ;
#371 = IDENTIFICATION_ROLE ( 'external document id and location', $) ;
#372 = PRODUCT_DEFINITION_FORMATION_WITH_SPECIFIED_SOURCE ( 'Symmetric', '', #269, .NOT_KNOWN. ) ;
#373 = APPROVAL_PERSON_ORGANIZATION ( #37, #253, #35 ) ;
#374 = CALENDAR_DATE ( 2026, 22, 6 ) ;
#375 = CC_DESIGN_DATE_AND_TIME_ASSIGNMENT ( #58, #299, ( #190 ) ) ;
#376 = CC_DESIGN_APPROVAL ( #107, ( #180 ) ) ;
#377 = PERSON_AND_ORGANIZATION_ROLE ( 'creator' ) ;
#378 = PERSON ( 'NAUO-PER209', 'UNSPECIFIED', 'UNSPECIFIED', ('UNSPECIFIED'), ('UNSPECIFIED'), ('UNSPECIFIED') ) ;
#379 = APPLICATION_PROTOCOL_DEFINITION ( 'international standard', 'config_control_design', 1994, #147 ) ;
#380 = SHAPE_DEFINITION_REPRESENTATION ( #348, #141 ) ;
#381 = APPROVAL ( #319, 'Coincident' ) ;
#382 = LOCAL_TIME ( 18, 49, 58.00000000000000000, #252 ) ;
#383 = PERSON_AND_ORGANIZATION ( #18446744073709551615, #18446744073709551615 ) ;
#384 = PERSON ( 'NAUO-PER211', 'UNSPECIFIED', 'UNSPECIFIED', ('UNSPECIFIED'), ('UNSPECIFIED'), ('UNSPECIFIED') ) ;
#385 = APPLICATION_PROTOCOL_DEFINITION ( 'international standard', 'config_control_design', 1994, #207 ) ;
#386 =( NAMED_UNIT ( * ) PLANE_ANGLE_UNIT ( ) SI_UNIT ( $, .RADIAN. ) );
#387 = CC_DESIGN_APPROVAL ( #220, ( #236 ) ) ;
#388 = NEXT_ASSEMBLY_USAGE_OCCURRENCE ( 'NAUO209', ' ', ' ', #185, #180, $ ) ;
#389 = NEXT_ASSEMBLY_USAGE_OCCURRENCE ( 'NAUO210', ' ', ' ', #185, #180, $ ) ;
#390 = NEXT_ASSEMBLY_USAGE_OCCURRENCE ( 'NAUO211', ' ', ' ', #185, #113, $ ) ;
ENDSEC;
END-ISO-10303-21;
