ISO-10303-21;
HEADER;
FILE_DESCRIPTION (( 'STEP AP203' ),
    '1' );
FILE_NAME ('C28.step.STEP',
    '2026-06-22T08:49:58',
    ( 'localuser' ),
    ( '' ),
    'SwSTEP 2.0',
    'SolidWorks 2025',
    '' );
FILE_SCHEMA (( 'CONFIG_CONTROL_DESIGN' ));
ENDSEC;

DATA;
#1 = DIRECTION ( 'NONE',  ( 0.000000000000000000, 0.000000000000000000, 1.000000000000000000 ) ) ;
#2 = CC_DESIGN_PERSON_AND_ORGANIZATION_ASSIGNMENT ( #273, #56, ( #104 ) ) ;
#3 = APPROVAL_DATE_TIME ( #182, #245 ) ;
#4 = CC_DESIGN_DATE_AND_TIME_ASSIGNMENT ( #24, #134, ( #227 ) ) ;
#5 = APPROVAL_ROLE ( '' ) ;
#6 = DOCUMENT_FILE ( '6461079856.step.STEP' , '', '', #39, '' ,$ ) ;
#7 = APPLIED_EXTERNAL_IDENTIFICATION_ASSIGNMENT ( '6534431024.step.STEP' , #342, #243,( #340) ) ;
#8 = CONTEXT_DEPENDENT_SHAPE_REPRESENTATION ( #118, #166 ) ;
#9 = DIRECTION ( 'NONE',  ( 0.000000000000000000, 0.000000000000000000, 1.000000000000000000 ) ) ;
#10 = CC_DESIGN_DATE_AND_TIME_ASSIGNMENT ( #258, #254, ( #353 ) ) ;
#11 = PERSON_AND_ORGANIZATION ( #42, #234 ) ;
#12 = PERSON_AND_ORGANIZATION ( #18446744073709551615, #18446744073709551615 ) ;
#13 = APPROVAL_PERSON_ORGANIZATION ( #323, #245, #169 ) ;
#14 = CC_DESIGN_SECURITY_CLASSIFICATION ( #104, ( #312 ) ) ;
#15 = APPROVAL ( #304, 'UNKNOWN' ) ;
#16 = DATE_AND_TIME ( #339, #148 ) ;
#17 =( NAMED_UNIT ( * ) SI_UNIT ( $, .STERADIAN. ) SOLID_ANGLE_UNIT ( ) );
#18 = MECHANICAL_CONTEXT ( 'NONE', #327, 'mechanical' ) ;
#19 = COORDINATED_UNIVERSAL_TIME_OFFSET ( 10, 0, .AHEAD. ) ;
#20 = CC_DESIGN_SECURITY_CLASSIFICATION ( #360, ( #383 ) ) ;
#21 = COORDINATED_UNIVERSAL_TIME_OFFSET ( 10, 0, .AHEAD. ) ;
#22 = OBJECT_ROLE ('mandatory',$ ) ;
#23 = PERSON_AND_ORGANIZATION ( #18446744073709551615, #18446744073709551615 ) ;
#24 = DATE_AND_TIME ( #233, #373 ) ;
#25 = APPROVAL_PERSON_ORGANIZATION ( #174, #316, #230 ) ;
#26 = APPROVAL_DATE_TIME ( #264, #309 ) ;
#27 = CC_DESIGN_DATE_AND_TIME_ASSIGNMENT ( #385, #114, ( #360 ) ) ;
#28 = COORDINATED_UNIVERSAL_TIME_OFFSET ( 10, 0, .AHEAD. ) ;
#29 = DATE_AND_TIME ( #117, #200 ) ;
#30 = PRODUCT_DEFINITION_FORMATION_WITH_SPECIFIED_SOURCE ( 'Symmetric', '', #168, .NOT_KNOWN. ) ;
#31 = PROPERTY_DEFINITION_REPRESENTATION ( #252, #188 ) ;
#32 = CC_DESIGN_PERSON_AND_ORGANIZATION_ASSIGNMENT ( #159, #376, ( #168 ) ) ;
#33 = COORDINATED_UNIVERSAL_TIME_OFFSET ( 10, 0, .AHEAD. ) ;
#34 = PRODUCT_DEFINITION ( 'General', '', #312, #172 ) ;
#35 = APPROVAL ( #336, 'Coincident' ) ;
#36 = APPROVAL_DATE_TIME ( #29, #35 ) ;
#37 = APPROVAL_PERSON_ORGANIZATION ( #86, #15, #5 ) ;
#38 = DIRECTION ( 'NONE',  ( 1.000000000000000222, -1.092455418989176591E-28, 4.890937612370273194E-29 ) ) ;
#39 = DOCUMENT_TYPE ( 'geometry' ) ;
#40 = PERSON_AND_ORGANIZATION_ROLE ( 'classification_officer' ) ;
#41 = CARTESIAN_POINT ( 'NONE',  ( 18.05000024411100057, 21.85000256347700898, -2.058321952820000078 ) ) ;
#42 = PERSON ( 'NAUO-PER213', 'UNSPECIFIED', 'UNSPECIFIED', ('UNSPECIFIED'), ('UNSPECIFIED'), ('UNSPECIFIED') ) ;
#43 = CALENDAR_DATE ( 2026, 22, 6 ) ;
#44 = CALENDAR_DATE ( 2026, 22, 6 ) ;
#45 = APPROVAL_PERSON_ORGANIZATION ( #79, #309, #352 ) ;
#46 = PERSON_AND_ORGANIZATION_ROLE ( 'design_owner' ) ;
#47 = APPROVAL_STATUS ( 'not_yet_approved' ) ;
#48 = PRODUCT_DEFINITION_SHAPE ( 'NONE', 'NONE',  #388 ) ;
#49 = APPROVAL_PERSON_ORGANIZATION ( #11, #53, #318 ) ;
#50 = DATE_AND_TIME ( #321, #212 ) ;
#51 = UNCERTAINTY_MEASURE_WITH_UNIT (LENGTH_MEASURE( 1.000000000000000082E-05 ), #211, 'distance_accuracy_value', 'NONE');
#52 = PERSON_AND_ORGANIZATION_ROLE ( 'classification_officer' ) ;
#53 = APPROVAL ( #179, 'UNKNOWN' ) ;
#54 = SHAPE_DEFINITION_REPRESENTATION ( #263, #226 ) ;
#55 = APPROVAL_PERSON_ORGANIZATION ( #150, #162, #278 ) ;
#56 = PERSON_AND_ORGANIZATION_ROLE ( 'classification_officer' ) ;
#57 = CALENDAR_DATE ( 2026, 22, 6 ) ;
#58 = APPLICATION_CONTEXT ( 'configuration controlled 3d designs of mechanical parts and assemblies' ) ;
#59 = UNCERTAINTY_MEASURE_WITH_UNIT (LENGTH_MEASURE( 1.000000000000000082E-05 ), #311, 'distance_accuracy_value', 'NONE');
#60 = CALENDAR_DATE ( 2026, 22, 6 ) ;
#61 = AXIS2_PLACEMENT_3D ( 'NONE', #74, #225, #38 ) ;
#62 = DATE_AND_TIME ( #302, #345 ) ;
#63 = CC_DESIGN_APPROVAL ( #329, ( #227 ) ) ;
#64 = ITEM_DEFINED_TRANSFORMATION ( 'NONE', 'NONE', #84,  #221 ) ;
#65 = CC_DESIGN_PERSON_AND_ORGANIZATION_ASSIGNMENT ( #95, #69, ( #306 ) ) ;
#66 = OBJECT_ROLE ('mandatory',$ ) ;
#67 = CC_DESIGN_DATE_AND_TIME_ASSIGNMENT ( #115, #334, ( #34 ) ) ;
#68 = LOCAL_TIME ( 18, 49, 58.00000000000000000, #299 ) ;
#69 = PERSON_AND_ORGANIZATION_ROLE ( 'classification_officer' ) ;
#70 =( NAMED_UNIT ( * ) PLANE_ANGLE_UNIT ( ) SI_UNIT ( $, .RADIAN. ) );
#71 = CC_DESIGN_PERSON_AND_ORGANIZATION_ASSIGNMENT ( #291, #368, ( #30 ) ) ;
#72 = DOCUMENT_FILE ( '6461079856.step.STEP' , '', '', #350, '' ,$ ) ;
#73 = APPROVAL_PERSON_ORGANIZATION ( #288, #106, #96 ) ;
#74 = CARTESIAN_POINT ( 'NONE',  ( 18.05000024411100057, 22.85000256347700542, -2.058321952820000078 ) ) ;
#75 = PERSON_AND_ORGANIZATION ( #18446744073709551615, #18446744073709551615 ) ;
#76 = APPLICATION_CONTEXT ( 'configuration controlled 3d designs of mechanical parts and assemblies' ) ;
#77 = APPROVAL_STATUS ( 'not_yet_approved' ) ;
#78 = LOCAL_TIME ( 18, 49, 58.00000000000000000, #198 ) ;
#79 = PERSON_AND_ORGANIZATION ( #18446744073709551615, #18446744073709551615 ) ;
#80 = PRODUCT_RELATED_PRODUCT_CATEGORY ( 'detail', '', ( #202 ) ) ;
#81 = APPROVAL_STATUS ( 'not_yet_approved' ) ;
#82 = PRODUCT_DEFINITION ( 'General', '', #383, #298 ) ;
#83 = MECHANICAL_CONTEXT ( 'NONE', #76, 'mechanical' ) ;
#84 = AXIS2_PLACEMENT_3D ( 'NONE', #41, #196, #103 ) ;
#85 = APPLIED_EXTERNAL_IDENTIFICATION_ASSIGNMENT ( '6461079856.step.STEP' , #205, #224,( #72) ) ;
#86 = PERSON_AND_ORGANIZATION ( #88, #142 ) ;
#87 = DATE_AND_TIME ( #242, #91 ) ;
#88 = PERSON ( 'NAUO-PER212', 'UNSPECIFIED', 'UNSPECIFIED', ('UNSPECIFIED'), ('UNSPECIFIED'), ('UNSPECIFIED') ) ;
#89 = CC_DESIGN_APPROVAL ( #106, ( #353 ) ) ;
#90 = PERSON_AND_ORGANIZATION_ROLE ( 'classification_officer' ) ;
#91 = LOCAL_TIME ( 18, 49, 58.00000000000000000, #280 ) ;
#92 = CC_DESIGN_DATE_AND_TIME_ASSIGNMENT ( #16, #130, ( #265 ) ) ;
#93 =( NAMED_UNIT ( * ) PLANE_ANGLE_UNIT ( ) SI_UNIT ( $, .RADIAN. ) );
#94 = CC_DESIGN_PERSON_AND_ORGANIZATION_ASSIGNMENT ( #328, #52, ( #360 ) ) ;
#95 = PERSON_AND_ORGANIZATION ( #282, #99 ) ;
#96 = APPROVAL_ROLE ( '' ) ;
#97 = DATE_AND_TIME ( #250, #387 ) ;
#98 = APPLICATION_CONTEXT ( 'configuration controlled 3d designs of mechanical parts and assemblies' ) ;
#99 = ORGANIZATION ( 'NAUO-ORG214', 'UNSPECIFIED', 'UNSPECIFIED' ) ;
#100 = ROLE_ASSOCIATION ( #66, #286 ) ;
#101 = PERSON_AND_ORGANIZATION_ROLE ( 'creator' ) ;
#102 = CC_DESIGN_PERSON_AND_ORGANIZATION_ASSIGNMENT ( #382, #46, ( #202 ) ) ;
#103 = DIRECTION ( 'NONE',  ( 1.000000000000000222, -1.092455418989176591E-28, 4.890937612370273194E-29 ) ) ;
#104 = SECURITY_CLASSIFICATION ( '', '', #216 ) ;
#105 = PERSON_AND_ORGANIZATION ( #18446744073709551615, #18446744073709551615 ) ;
#106 = APPROVAL ( #223, 'Coincident' ) ;
#107 = PRODUCT_DEFINITION_SHAPE ( 'NONE', 'NONE',  #34 ) ;
#108 = APPROVAL_ROLE ( '' ) ;
#109 = PERSON_AND_ORGANIZATION ( #18446744073709551615, #18446744073709551615 ) ;
#110 = APPROVAL_PERSON_ORGANIZATION ( #75, #337, #108 ) ;
#111 = DIRECTION ( 'NONE',  ( 0.000000000000000000, 0.000000000000000000, 1.000000000000000000 ) ) ;
#112 = CC_DESIGN_APPROVAL ( #309, ( #383 ) ) ;
#113 = APPROVAL_STATUS ( 'not_yet_approved' ) ;
#114 = DATE_TIME_ROLE ( 'classification_date' ) ;
#115 = DATE_AND_TIME ( #57, #271 ) ;
#116 = LOCAL_TIME ( 18, 49, 58.00000000000000000, #261 ) ;
#117 = CALENDAR_DATE ( 2026, 22, 6 ) ;
#118 =( REPRESENTATION_RELATIONSHIP ('NONE','NONE', #226, #188 ) REPRESENTATION_RELATIONSHIP_WITH_TRANSFORMATION ( #64 )SHAPE_REPRESENTATION_RELATIONSHIP( ) );
#119 = DIRECTION ( 'NONE',  ( 1.000000000000000000, 0.000000000000000000, 0.000000000000000000 ) ) ;
#120 = PRODUCT_RELATED_PRODUCT_CATEGORY ( 'detail', '', ( #168 ) ) ;
#121 = APPROVAL_STATUS ( 'not_yet_approved' ) ;
#122 = UNCERTAINTY_MEASURE_WITH_UNIT (LENGTH_MEASURE( 1.000000000000000082E-05 ), #371, 'distance_accuracy_value', 'NONE');
#123 = SECURITY_CLASSIFICATION_LEVEL ( 'unclassified' ) ;
#124 = AXIS2_PLACEMENT_3D ( 'NONE', #235, #111, #358 ) ;
#125 = CALENDAR_DATE ( 2026, 22, 6 ) ;
#126 = CC_DESIGN_PERSON_AND_ORGANIZATION_ASSIGNMENT ( #109, #300, ( #82 ) ) ;
#127 = CC_DESIGN_APPROVAL ( #53, ( #265 ) ) ;
#128 = PROPERTY_DEFINITION_REPRESENTATION ( #351, #188 ) ;
#129 = APPLICATION_PROTOCOL_DEFINITION ( 'international standard', 'config_control_design', 1994, #327 ) ;
#130 = DATE_TIME_ROLE ( 'classification_date' ) ;
#131 = APPROVAL_ROLE ( '' ) ;
#132 = CARTESIAN_POINT ( 'NONE',  ( 18.05000024411100057, 22.35000256347700542, -2.058321952819998302 ) ) ;
#133 =( NAMED_UNIT ( * ) PLANE_ANGLE_UNIT ( ) SI_UNIT ( $, .RADIAN. ) );
#134 = DATE_TIME_ROLE ( 'classification_date' ) ;
#135 = LOCAL_TIME ( 18, 49, 58.00000000000000000, #21 ) ;
#136 = CC_DESIGN_PERSON_AND_ORGANIZATION_ASSIGNMENT ( #218, #149, ( #34 ) ) ;
#137 = CALENDAR_DATE ( 2026, 22, 6 ) ;
#138 = OBJECT_ROLE ('mandatory',$ ) ;
#139 = CALENDAR_DATE ( 2026, 22, 6 ) ;
#140 = APPROVAL ( #343, 'Coincident' ) ;
#141 = CALENDAR_DATE ( 2026, 22, 6 ) ;
#142 = ORGANIZATION ( 'NAUO-ORG212', 'UNSPECIFIED', 'UNSPECIFIED' ) ;
#143 = APPLICATION_PROTOCOL_DEFINITION ( 'international standard', 'config_control_design', 1994, #58 ) ;
#144 = PERSON_AND_ORGANIZATION ( #18446744073709551615, #18446744073709551615 ) ;
#145 = PERSON_AND_ORGANIZATION_ROLE ( 'design_supplier' ) ;
#146 =( GEOMETRIC_REPRESENTATION_CONTEXT ( 3 ) GLOBAL_UNCERTAINTY_ASSIGNED_CONTEXT ( ( #51 ) ) GLOBAL_UNIT_ASSIGNED_CONTEXT ( ( #211, #70, #314 ) ) REPRESENTATION_CONTEXT ( 'NONE', 'WORKASPACE' ) );
#147 =( GEOMETRIC_REPRESENTATION_CONTEXT ( 3 ) GLOBAL_UNCERTAINTY_ASSIGNED_CONTEXT ( ( #59 ) ) GLOBAL_UNIT_ASSIGNED_CONTEXT ( ( #311, #93, #386 ) ) REPRESENTATION_CONTEXT ( 'NONE', 'WORKASPACE' ) );
#148 = LOCAL_TIME ( 18, 49, 58.00000000000000000, #28 ) ;
#149 = PERSON_AND_ORGANIZATION_ROLE ( 'creator' ) ;
#150 = PERSON_AND_ORGANIZATION ( #18446744073709551615, #18446744073709551615 ) ;
#151 = PERSON_AND_ORGANIZATION ( #18446744073709551615, #18446744073709551615 ) ;
#152 = AXIS2_PLACEMENT_3D ( 'NONE', #132, #201, #260 ) ;
#153 = ITEM_DEFINED_TRANSFORMATION ( 'NONE', 'NONE', #152,  #124 ) ;
#154 = LOCAL_TIME ( 18, 49, 58.00000000000000000, #186 ) ;
#155 = COORDINATED_UNIVERSAL_TIME_OFFSET ( 10, 0, .AHEAD. ) ;
#156 = COORDINATED_UNIVERSAL_TIME_OFFSET ( 10, 0, .AHEAD. ) ;
#157 =( REPRESENTATION_RELATIONSHIP ('NONE','NONE', #226, #274 ) REPRESENTATION_RELATIONSHIP_WITH_TRANSFORMATION ( #153 )SHAPE_REPRESENTATION_RELATIONSHIP( ) );
#158 = APPROVAL_STATUS ( 'not_yet_approved' ) ;
#159 = PERSON_AND_ORGANIZATION ( #18446744073709551615, #18446744073709551615 ) ;
#160 = APPROVAL_DATE_TIME ( #251, #140 ) ;
#161 = CC_DESIGN_APPROVAL ( #316, ( #360 ) ) ;
#162 = APPROVAL ( #121, 'Coincident' ) ;
#163 = APPROVAL_DATE_TIME ( #374, #53 ) ;
#164 = COORDINATED_UNIVERSAL_TIME_OFFSET ( 10, 0, .AHEAD. ) ;
#165 = CC_DESIGN_PERSON_AND_ORGANIZATION_ASSIGNMENT ( #23, #324, ( #383 ) ) ;
#166 = PRODUCT_DEFINITION_SHAPE ( 'NONE', 'NONE',  #389 ) ;
#167 = MECHANICAL_CONTEXT ( 'NONE', #58, 'mechanical' ) ;
#168 = PRODUCT ( 'C28.step', 'C28.step', '', ( #18 ) ) ;
#169 = APPROVAL_ROLE ( '' ) ;
#170 =( GEOMETRIC_REPRESENTATION_CONTEXT ( 3 ) GLOBAL_UNCERTAINTY_ASSIGNED_CONTEXT ( ( #122 ) ) GLOBAL_UNIT_ASSIGNED_CONTEXT ( ( #371, #133, #17 ) ) REPRESENTATION_CONTEXT ( 'NONE', 'WORKASPACE' ) );
#171 = CC_DESIGN_SECURITY_CLASSIFICATION ( #306, ( #390 ) ) ;
#172 = DESIGN_CONTEXT ( 'detailed design', #98, 'design' ) ;
#173 = DATE_TIME_ROLE ( 'creation_date' ) ;
#174 = PERSON_AND_ORGANIZATION ( #18446744073709551615, #18446744073709551615 ) ;
#175 = PRODUCT_RELATED_PRODUCT_CATEGORY ( 'detail', '', ( #231 ) ) ;
#176 = PERSON_AND_ORGANIZATION ( #18446744073709551615, #18446744073709551615 ) ;
#177 = LOCAL_TIME ( 18, 49, 58.00000000000000000, #164 ) ;
#178 = CC_DESIGN_APPROVAL ( #281, ( #306 ) ) ;
#179 = APPROVAL_STATUS ( 'not_yet_approved' ) ;
#180 = CARTESIAN_POINT ( 'NONE',  ( 0.000000000000000000, 0.000000000000000000, 0.000000000000000000 ) ) ;
#181 = CC_DESIGN_PERSON_AND_ORGANIZATION_ASSIGNMENT ( #12, #101, ( #353 ) ) ;
#182 = DATE_AND_TIME ( #125, #135 ) ;
#183 = APPROVAL_DATE_TIME ( #279, #15 ) ;
#184 = APPLICATION_CONTEXT ( 'configuration controlled 3d designs of mechanical parts and assemblies' ) ;
#185 = CC_DESIGN_APPROVAL ( #337, ( #82 ) ) ;
#186 = COORDINATED_UNIVERSAL_TIME_OFFSET ( 10, 0, .AHEAD. ) ;
#187 = DATE_TIME_ROLE ( 'classification_date' ) ;
#188 = SHAPE_REPRESENTATION ( '6461079856.step', ( #221 ), #147 ) ;
#189 = CC_DESIGN_DATE_AND_TIME_ASSIGNMENT ( #365, #187, ( #241 ) ) ;
#190 = APPROVAL_DATE_TIME ( #313, #281 ) ;
#191 = COORDINATED_UNIVERSAL_TIME_OFFSET ( 10, 0, .AHEAD. ) ;
#192 = LOCAL_TIME ( 18, 49, 58.00000000000000000, #203 ) ;
#193 = SECURITY_CLASSIFICATION_LEVEL ( 'unclassified' ) ;
#194 = PROPERTY_DEFINITION_REPRESENTATION ( #346, #274 ) ;
#195 = CC_DESIGN_PERSON_AND_ORGANIZATION_ASSIGNMENT ( #292, #378, ( #227 ) ) ;
#196 = DIRECTION ( 'NONE',  ( 4.890937612370273194E-29, -3.155443620884047222E-30, 0.9999999999999997780 ) ) ;
#197 = APPLIED_DOCUMENT_REFERENCE ( #6,'',( #34) ) ;
#198 = COORDINATED_UNIVERSAL_TIME_OFFSET ( 10, 0, .AHEAD. ) ;
#199 = CALENDAR_DATE ( 2026, 22, 6 ) ;
#200 = LOCAL_TIME ( 18, 49, 58.00000000000000000, #303 ) ;
#201 = DIRECTION ( 'NONE',  ( 4.890937612370273194E-29, -3.155443620884047222E-30, 0.9999999999999997780 ) ) ;
#202 = PRODUCT ( '6461079856.step', '6461079856.step', '', ( #83 ) ) ;
#203 = COORDINATED_UNIVERSAL_TIME_OFFSET ( 10, 0, .AHEAD. ) ;
#204 = APPROVAL_STATUS ( 'not_yet_approved' ) ;
#205 = IDENTIFICATION_ROLE ( 'external document id and location', $) ;
#206 = APPLICATION_CONTEXT ( 'configuration controlled 3d designs of mechanical parts and assemblies' ) ;
#207 = CALENDAR_DATE ( 2026, 22, 6 ) ;
#208 = COORDINATED_UNIVERSAL_TIME_OFFSET ( 10, 0, .AHEAD. ) ;
#209 = CC_DESIGN_DATE_AND_TIME_ASSIGNMENT ( #97, #219, ( #306 ) ) ;
#210 = APPROVAL_DATE_TIME ( #62, #162 ) ;
#211 =( LENGTH_UNIT ( ) NAMED_UNIT ( * ) SI_UNIT ( .MILLI., .METRE. ) );
#212 = LOCAL_TIME ( 18, 49, 58.00000000000000000, #19 ) ;
#213 = COORDINATED_UNIVERSAL_TIME_OFFSET ( 10, 0, .AHEAD. ) ;
#214 = CONTEXT_DEPENDENT_SHAPE_REPRESENTATION ( #369, #48 ) ;
#215 = CC_DESIGN_PERSON_AND_ORGANIZATION_ASSIGNMENT ( #151, #145, ( #312 ) ) ;
#216 = SECURITY_CLASSIFICATION_LEVEL ( 'unclassified' ) ;
#217 = CC_DESIGN_APPROVAL ( #245, ( #34 ) ) ;
#218 = PERSON_AND_ORGANIZATION ( #18446744073709551615, #18446744073709551615 ) ;
#219 = DATE_TIME_ROLE ( 'classification_date' ) ;
#220 = PERSON_AND_ORGANIZATION ( #18446744073709551615, #18446744073709551615 ) ;
#221 = AXIS2_PLACEMENT_3D ( 'NONE', #276, #1, #119 ) ;
#222 = LOCAL_TIME ( 18, 49, 58.00000000000000000, #213 ) ;
#223 = APPROVAL_STATUS ( 'not_yet_approved' ) ;
#224 = EXTERNAL_SOURCE (IDENTIFIER('') ) ;
#225 = DIRECTION ( 'NONE',  ( 4.890937612370273194E-29, -3.155443620884047222E-30, 0.9999999999999997780 ) ) ;
#226 = SHAPE_REPRESENTATION ( 'C28.step', ( #344, #61, #84, #152 ), #170 ) ;
#227 = SECURITY_CLASSIFICATION ( '', '', #193 ) ;
#228 = CALENDAR_DATE ( 2026, 22, 6 ) ;
#229 = CC_DESIGN_SECURITY_CLASSIFICATION ( #227, ( #30 ) ) ;
#230 = APPROVAL_ROLE ( '' ) ;
#231 = PRODUCT ( '6534431024.step', '6534431024.step', '', ( #167 ) ) ;
#232 = APPROVAL_DATE_TIME ( #355, #337 ) ;
#233 = CALENDAR_DATE ( 2026, 22, 6 ) ;
#234 = ORGANIZATION ( 'NAUO-ORG213', 'UNSPECIFIED', 'UNSPECIFIED' ) ;
#235 = CARTESIAN_POINT ( 'NONE',  ( 0.000000000000000000, 0.000000000000000000, 0.000000000000000000 ) ) ;
#236 = COORDINATED_UNIVERSAL_TIME_OFFSET ( 10, 0, .AHEAD. ) ;
#237 = CC_DESIGN_PERSON_AND_ORGANIZATION_ASSIGNMENT ( #240, #359, ( #312 ) ) ;
#238 = DATE_AND_TIME ( #294, #68 ) ;
#239 = CC_DESIGN_PERSON_AND_ORGANIZATION_ASSIGNMENT ( #380, #272, ( #383 ) ) ;
#240 = PERSON_AND_ORGANIZATION ( #18446744073709551615, #18446744073709551615 ) ;
#241 = SECURITY_CLASSIFICATION ( '', '', #123 ) ;
#242 = CALENDAR_DATE ( 2026, 22, 6 ) ;
#243 = EXTERNAL_SOURCE (IDENTIFIER('') ) ;
#244 = PROPERTY_DEFINITION_REPRESENTATION ( #366, #188 ) ;
#245 = APPROVAL ( #47, 'Coincident' ) ;
#246 = APPLIED_DOCUMENT_REFERENCE ( #72,'',( #34) ) ;
#247 = CC_DESIGN_SECURITY_CLASSIFICATION ( #241, ( #388 ) ) ;
#248 = DESIGN_CONTEXT ( 'detailed design', #184, 'design' ) ;
#249 = APPROVAL_ROLE ( '' ) ;
#250 = CALENDAR_DATE ( 2026, 22, 6 ) ;
#251 = DATE_AND_TIME ( #199, #78 ) ;
#252 = PROPERTY_DEFINITION ('external definition','', #72 ) ;
#253 = PROPERTY_DEFINITION_REPRESENTATION ( #266, #188 ) ;
#254 = DATE_TIME_ROLE ( 'creation_date' ) ;
#255 = APPROVAL_PERSON_ORGANIZATION ( #375, #140, #285 ) ;
#256 = CC_DESIGN_APPROVAL ( #35, ( #312 ) ) ;
#257 = COORDINATED_UNIVERSAL_TIME_OFFSET ( 10, 0, .AHEAD. ) ;
#258 = DATE_AND_TIME ( #228, #177 ) ;
#259 = CC_DESIGN_PERSON_AND_ORGANIZATION_ASSIGNMENT ( #105, #270, ( #231 ) ) ;
#260 = DIRECTION ( 'NONE',  ( 1.000000000000000222, -1.092455418989176591E-28, 4.890937612370273194E-29 ) ) ;
#261 = COORDINATED_UNIVERSAL_TIME_OFFSET ( 10, 0, .AHEAD. ) ;
#262 = DATE_AND_TIME ( #44, #372 ) ;
#263 = PRODUCT_DEFINITION_SHAPE ( 'NONE', 'NONE',  #353 ) ;
#264 = DATE_AND_TIME ( #137, #290 ) ;
#265 = SECURITY_CLASSIFICATION ( '', '', #308 ) ;
#266 = PROPERTY_DEFINITION ('document property','', #6 ) ;
#267 = APPROVAL_ROLE ( '' ) ;
#268 = CC_DESIGN_PERSON_AND_ORGANIZATION_ASSIGNMENT ( #220, #319, ( #30 ) ) ;
#269 = SHAPE_DEFINITION_REPRESENTATION ( #348, #274 ) ;
#270 = PERSON_AND_ORGANIZATION_ROLE ( 'design_owner' ) ;
#271 = LOCAL_TIME ( 18, 49, 58.00000000000000000, #33 ) ;
#272 = PERSON_AND_ORGANIZATION_ROLE ( 'creator' ) ;
#273 = PERSON_AND_ORGANIZATION ( #18446744073709551615, #18446744073709551615 ) ;
#274 = SHAPE_REPRESENTATION ( '6534431024.step', ( #124 ), #146 ) ;
#275 = SHAPE_DEFINITION_REPRESENTATION ( #107, #188 ) ;
#276 = CARTESIAN_POINT ( 'NONE',  ( 0.000000000000000000, 0.000000000000000000, 0.000000000000000000 ) ) ;
#277 = LOCAL_TIME ( 18, 49, 58.00000000000000000, #191 ) ;
#278 = APPROVAL_ROLE ( '' ) ;
#279 = DATE_AND_TIME ( #332, #222 ) ;
#280 = COORDINATED_UNIVERSAL_TIME_OFFSET ( 10, 0, .AHEAD. ) ;
#281 = APPROVAL ( #158, 'UNKNOWN' ) ;
#282 = PERSON ( 'NAUO-PER214', 'UNSPECIFIED', 'UNSPECIFIED', ('UNSPECIFIED'), ('UNSPECIFIED'), ('UNSPECIFIED') ) ;
#283 = LOCAL_TIME ( 18, 49, 58.00000000000000000, #236 ) ;
#284 = ROLE_ASSOCIATION ( #138, #197 ) ;
#285 = APPROVAL_ROLE ( '' ) ;
#286 = APPLIED_DOCUMENT_REFERENCE ( #340,'',( #82) ) ;
#287 = EXTERNAL_SOURCE (IDENTIFIER('') ) ;
#288 = PERSON_AND_ORGANIZATION ( #18446744073709551615, #18446744073709551615 ) ;
#289 = CC_DESIGN_APPROVAL ( #140, ( #30 ) ) ;
#290 = LOCAL_TIME ( 18, 49, 58.00000000000000000, #208 ) ;
#291 = PERSON_AND_ORGANIZATION ( #18446744073709551615, #18446744073709551615 ) ;
#292 = PERSON_AND_ORGANIZATION ( #18446744073709551615, #18446744073709551615 ) ;
#293 = APPLICATION_PROTOCOL_DEFINITION ( 'international standard', 'config_control_design', 1994, #98 ) ;
#294 = CALENDAR_DATE ( 2026, 22, 6 ) ;
#295 = CC_DESIGN_SECURITY_CLASSIFICATION ( #265, ( #389 ) ) ;
#296 = PROPERTY_DEFINITION ('external definition','', #340 ) ;
#297 = SECURITY_CLASSIFICATION_LEVEL ( 'unclassified' ) ;
#298 = DESIGN_CONTEXT ( 'detailed design', #206, 'design' ) ;
#299 = COORDINATED_UNIVERSAL_TIME_OFFSET ( 10, 0, .AHEAD. ) ;
#300 = PERSON_AND_ORGANIZATION_ROLE ( 'creator' ) ;
#301 = CC_DESIGN_APPROVAL ( #162, ( #104 ) ) ;
#302 = CALENDAR_DATE ( 2026, 22, 6 ) ;
#303 = COORDINATED_UNIVERSAL_TIME_OFFSET ( 10, 0, .AHEAD. ) ;
#304 = APPROVAL_STATUS ( 'not_yet_approved' ) ;
#305 = IDENTIFICATION_ROLE ( 'external document id and location', $) ;
#306 = SECURITY_CLASSIFICATION ( '', '', #370 ) ;
#307 = DATE_TIME_ROLE ( 'classification_date' ) ;
#308 = SECURITY_CLASSIFICATION_LEVEL ( 'unclassified' ) ;
#309 = APPROVAL ( #81, 'Coincident' ) ;
#310 = CONTEXT_DEPENDENT_SHAPE_REPRESENTATION ( #157, #322 ) ;
#311 =( LENGTH_UNIT ( ) NAMED_UNIT ( * ) SI_UNIT ( .MILLI., .METRE. ) );
#312 = PRODUCT_DEFINITION_FORMATION_WITH_SPECIFIED_SOURCE ( 'Symmetric', '', #202, .NOT_KNOWN. ) ;
#313 = DATE_AND_TIME ( #367, #277 ) ;
#314 =( NAMED_UNIT ( * ) SI_UNIT ( $, .STERADIAN. ) SOLID_ANGLE_UNIT ( ) );
#315 = PROPERTY_DEFINITION_REPRESENTATION ( #296, #274 ) ;
#316 = APPROVAL ( #77, 'Coincident' ) ;
#317 = CC_DESIGN_APPROVAL ( #15, ( #241 ) ) ;
#318 = APPROVAL_ROLE ( '' ) ;
#319 = PERSON_AND_ORGANIZATION_ROLE ( 'design_supplier' ) ;
#320 = CC_DESIGN_PERSON_AND_ORGANIZATION_ASSIGNMENT ( #11, #40, ( #265 ) ) ;
#321 = CALENDAR_DATE ( 2026, 22, 6 ) ;
#322 = PRODUCT_DEFINITION_SHAPE ( 'NONE', 'NONE',  #390 ) ;
#323 = PERSON_AND_ORGANIZATION ( #18446744073709551615, #18446744073709551615 ) ;
#324 = PERSON_AND_ORGANIZATION_ROLE ( 'design_supplier' ) ;
#325 = APPROVAL_PERSON_ORGANIZATION ( #95, #281, #131 ) ;
#326 = CC_DESIGN_DATE_AND_TIME_ASSIGNMENT ( #87, #307, ( #104 ) ) ;
#327 = APPLICATION_CONTEXT ( 'configuration controlled 3d designs of mechanical parts and assemblies' ) ;
#328 = PERSON_AND_ORGANIZATION ( #18446744073709551615, #18446744073709551615 ) ;
#329 = APPROVAL ( #204, 'Coincident' ) ;
#330 = DATE_AND_TIME ( #141, #283 ) ;
#331 = APPROVAL_PERSON_ORGANIZATION ( #144, #35, #249 ) ;
#332 = CALENDAR_DATE ( 2026, 22, 6 ) ;
#333 = ROLE_ASSOCIATION ( #22, #246 ) ;
#334 = DATE_TIME_ROLE ( 'creation_date' ) ;
#335 = APPLIED_EXTERNAL_IDENTIFICATION_ASSIGNMENT ( '6461079856.step.STEP' , #305, #287,( #6) ) ;
#336 = APPROVAL_STATUS ( 'not_yet_approved' ) ;
#337 = APPROVAL ( #113, 'Coincident' ) ;
#338 = DIRECTION ( 'NONE',  ( 1.000000000000000000, 0.000000000000000000, 0.000000000000000000 ) ) ;
#339 = CALENDAR_DATE ( 2026, 22, 6 ) ;
#340 = DOCUMENT_FILE ( '6534431024.step.STEP' , '', '', #362, '' ,$ ) ;
#341 = APPROVAL_DATE_TIME ( #262, #106 ) ;
#342 = IDENTIFICATION_ROLE ( 'external document id and location', $) ;
#343 = APPROVAL_STATUS ( 'not_yet_approved' ) ;
#344 = AXIS2_PLACEMENT_3D ( 'NONE', #180, #9, #338 ) ;
#345 = LOCAL_TIME ( 18, 49, 58.00000000000000000, #361 ) ;
#346 = PROPERTY_DEFINITION ('document property','', #340 ) ;
#347 = APPLICATION_PROTOCOL_DEFINITION ( 'international standard', 'config_control_design', 1994, #184 ) ;
#348 = PRODUCT_DEFINITION_SHAPE ( 'NONE', 'NONE',  #82 ) ;
#349 = APPROVAL_DATE_TIME ( #238, #316 ) ;
#350 = DOCUMENT_TYPE ( 'geometry' ) ;
#351 = PROPERTY_DEFINITION ('external definition','', #6 ) ;
#352 = APPROVAL_ROLE ( '' ) ;
#353 = PRODUCT_DEFINITION ( 'General', '', #30, #248 ) ;
#354 = APPLICATION_PROTOCOL_DEFINITION ( 'international standard', 'config_control_design', 1994, #206 ) ;
#355 = DATE_AND_TIME ( #207, #364 ) ;
#356 = CC_DESIGN_PERSON_AND_ORGANIZATION_ASSIGNMENT ( #86, #90, ( #241 ) ) ;
#357 = APPLICATION_PROTOCOL_DEFINITION ( 'international standard', 'config_control_design', 1994, #76 ) ;
#358 = DIRECTION ( 'NONE',  ( 1.000000000000000000, 0.000000000000000000, 0.000000000000000000 ) ) ;
#359 = PERSON_AND_ORGANIZATION_ROLE ( 'creator' ) ;
#360 = SECURITY_CLASSIFICATION ( '', '', #297 ) ;
#361 = COORDINATED_UNIVERSAL_TIME_OFFSET ( 10, 0, .AHEAD. ) ;
#362 = DOCUMENT_TYPE ( 'geometry' ) ;
#363 = ITEM_DEFINED_TRANSFORMATION ( 'NONE', 'NONE', #61,  #221 ) ;
#364 = LOCAL_TIME ( 18, 49, 58.00000000000000000, #381 ) ;
#365 = DATE_AND_TIME ( #60, #154 ) ;
#366 = PROPERTY_DEFINITION ('document property','', #72 ) ;
#367 = CALENDAR_DATE ( 2026, 22, 6 ) ;
#368 = PERSON_AND_ORGANIZATION_ROLE ( 'creator' ) ;
#369 =( REPRESENTATION_RELATIONSHIP ('NONE','NONE', #226, #188 ) REPRESENTATION_RELATIONSHIP_WITH_TRANSFORMATION ( #363 )SHAPE_REPRESENTATION_RELATIONSHIP( ) );
#370 = SECURITY_CLASSIFICATION_LEVEL ( 'unclassified' ) ;
#371 =( LENGTH_UNIT ( ) NAMED_UNIT ( * ) SI_UNIT ( .MILLI., .METRE. ) );
#372 = LOCAL_TIME ( 18, 49, 58.00000000000000000, #155 ) ;
#373 = LOCAL_TIME ( 18, 49, 58.00000000000000000, #156 ) ;
#374 = DATE_AND_TIME ( #43, #116 ) ;
#375 = PERSON_AND_ORGANIZATION ( #18446744073709551615, #18446744073709551615 ) ;
#376 = PERSON_AND_ORGANIZATION_ROLE ( 'design_owner' ) ;
#377 = CC_DESIGN_DATE_AND_TIME_ASSIGNMENT ( #50, #173, ( #82 ) ) ;
#378 = PERSON_AND_ORGANIZATION_ROLE ( 'classification_officer' ) ;
#379 = APPROVAL_PERSON_ORGANIZATION ( #176, #329, #267 ) ;
#380 = PERSON_AND_ORGANIZATION ( #18446744073709551615, #18446744073709551615 ) ;
#381 = COORDINATED_UNIVERSAL_TIME_OFFSET ( 10, 0, .AHEAD. ) ;
#382 = PERSON_AND_ORGANIZATION ( #18446744073709551615, #18446744073709551615 ) ;
#383 = PRODUCT_DEFINITION_FORMATION_WITH_SPECIFIED_SOURCE ( 'Symmetric', '', #231, .NOT_KNOWN. ) ;
#384 = APPROVAL_DATE_TIME ( #330, #329 ) ;
#385 = DATE_AND_TIME ( #139, #192 ) ;
#386 =( NAMED_UNIT ( * ) SI_UNIT ( $, .STERADIAN. ) SOLID_ANGLE_UNIT ( ) );
#387 = LOCAL_TIME ( 18, 49, 58.00000000000000000, #257 ) ;
#388 = NEXT_ASSEMBLY_USAGE_OCCURRENCE ( 'NAUO212', ' ', ' ', #353, #34, $ ) ;
#389 = NEXT_ASSEMBLY_USAGE_OCCURRENCE ( 'NAUO213', ' ', ' ', #353, #34, $ ) ;
#390 = NEXT_ASSEMBLY_USAGE_OCCURRENCE ( 'NAUO214', ' ', ' ', #353, #82, $ ) ;
ENDSEC;
END-ISO-10303-21;
