ISO-10303-21;
HEADER;
FILE_DESCRIPTION (( 'STEP AP203' ),
    '1' );
FILE_NAME ('C29.step.STEP',
    '2026-06-22T08:49:58',
    ( 'localuser' ),
    ( '' ),
    'SwSTEP 2.0',
    'SolidWorks 2025',
    '' );
FILE_SCHEMA (( 'CONFIG_CONTROL_DESIGN' ));
ENDSEC;

DATA;
#1 = CC_DESIGN_PERSON_AND_ORGANIZATION_ASSIGNMENT ( #338, #5, ( #273 ) ) ;
#2 = DATE_AND_TIME ( #61, #173 ) ;
#3 = PRODUCT_RELATED_PRODUCT_CATEGORY ( 'detail', '', ( #170 ) ) ;
#4 = DATE_TIME_ROLE ( 'creation_date' ) ;
#5 = PERSON_AND_ORGANIZATION_ROLE ( 'classification_officer' ) ;
#6 = LOCAL_TIME ( 18, 49, 58.00000000000000000, #156 ) ;
#7 = DOCUMENT_FILE ( '6461079856.step.STEP' , '', '', #21, '' ,$ ) ;
#8 = DIRECTION ( 'NONE',  ( 4.890937612370273194E-29, -3.155443620884047222E-30, 0.9999999999999997780 ) ) ;
#9 = APPROVAL_ROLE ( '' ) ;
#10 = APPROVAL_STATUS ( 'not_yet_approved' ) ;
#11 = CARTESIAN_POINT ( 'NONE',  ( 6.649998718232001060, 1.149997985840003123, -2.058321952820000078 ) ) ;
#12 = LOCAL_TIME ( 18, 49, 58.00000000000000000, #359 ) ;
#13 = IDENTIFICATION_ROLE ( 'external document id and location', $) ;
#14 = CC_DESIGN_DATE_AND_TIME_ASSIGNMENT ( #239, #272, ( #273 ) ) ;
#15 = DATE_TIME_ROLE ( 'classification_date' ) ;
#16 = CALENDAR_DATE ( 2026, 22, 6 ) ;
#17 = APPLICATION_PROTOCOL_DEFINITION ( 'international standard', 'config_control_design', 1994, #62 ) ;
#18 = APPROVAL_ROLE ( '' ) ;
#19 = CC_DESIGN_APPROVAL ( #207, ( #84 ) ) ;
#20 = PERSON_AND_ORGANIZATION ( #18446744073709551615, #18446744073709551615 ) ;
#21 = DOCUMENT_TYPE ( 'geometry' ) ;
#22 = CC_DESIGN_DATE_AND_TIME_ASSIGNMENT ( #39, #15, ( #53 ) ) ;
#23 = DATE_AND_TIME ( #383, #291 ) ;
#24 = PERSON_AND_ORGANIZATION ( #18446744073709551615, #18446744073709551615 ) ;
#25 = DIRECTION ( 'NONE',  ( 0.000000000000000000, 0.000000000000000000, 1.000000000000000000 ) ) ;
#26 = CC_DESIGN_SECURITY_CLASSIFICATION ( #273, ( #139 ) ) ;
#27 = PERSON_AND_ORGANIZATION ( #18446744073709551615, #18446744073709551615 ) ;
#28 = CC_DESIGN_PERSON_AND_ORGANIZATION_ASSIGNMENT ( #363, #149, ( #100 ) ) ;
#29 = COORDINATED_UNIVERSAL_TIME_OFFSET ( 10, 0, .AHEAD. ) ;
#30 = PERSON_AND_ORGANIZATION_ROLE ( 'design_supplier' ) ;
#31 = LOCAL_TIME ( 18, 49, 58.00000000000000000, #230 ) ;
#32 = APPROVAL_ROLE ( '' ) ;
#33 = LOCAL_TIME ( 18, 49, 58.00000000000000000, #92 ) ;
#34 = LOCAL_TIME ( 18, 49, 58.00000000000000000, #228 ) ;
#35 = APPROVAL_ROLE ( '' ) ;
#36 = PRODUCT_DEFINITION ( 'General', '', #139, #90 ) ;
#37 = CC_DESIGN_PERSON_AND_ORGANIZATION_ASSIGNMENT ( #313, #135, ( #269 ) ) ;
#38 = CALENDAR_DATE ( 2026, 22, 6 ) ;
#39 = DATE_AND_TIME ( #287, #303 ) ;
#40 = ORGANIZATION ( 'NAUO-ORG222', 'UNSPECIFIED', 'UNSPECIFIED' ) ;
#41 = DATE_TIME_ROLE ( 'classification_date' ) ;
#42 =( REPRESENTATION_RELATIONSHIP ('NONE','NONE', #215, #378 ) REPRESENTATION_RELATIONSHIP_WITH_TRANSFORMATION ( #141 )SHAPE_REPRESENTATION_RELATIONSHIP( ) );
#43 = SECURITY_CLASSIFICATION_LEVEL ( 'unclassified' ) ;
#44 =( LENGTH_UNIT ( ) NAMED_UNIT ( * ) SI_UNIT ( .MILLI., .METRE. ) );
#45 = APPROVAL_ROLE ( '' ) ;
#46 = AXIS2_PLACEMENT_3D ( 'NONE', #317, #25, #382 ) ;
#47 = LOCAL_TIME ( 18, 49, 58.00000000000000000, #65 ) ;
#48 = DOCUMENT_FILE ( '6534431024.step.STEP' , '', '', #326, '' ,$ ) ;
#49 = PERSON_AND_ORGANIZATION_ROLE ( 'design_supplier' ) ;
#50 = APPLIED_DOCUMENT_REFERENCE ( #7,'',( #213) ) ;
#51 = APPLICATION_PROTOCOL_DEFINITION ( 'international standard', 'config_control_design', 1994, #161 ) ;
#52 = PRODUCT_DEFINITION_SHAPE ( 'NONE', 'NONE',  #388 ) ;
#53 = SECURITY_CLASSIFICATION ( '', '', #43 ) ;
#54 = CALENDAR_DATE ( 2026, 22, 6 ) ;
#55 = PERSON_AND_ORGANIZATION_ROLE ( 'classification_officer' ) ;
#56 = APPROVAL_ROLE ( '' ) ;
#57 = PRODUCT_RELATED_PRODUCT_CATEGORY ( 'detail', '', ( #353 ) ) ;
#58 = SHAPE_DEFINITION_REPRESENTATION ( #260, #215 ) ;
#59 = CC_DESIGN_PERSON_AND_ORGANIZATION_ASSIGNMENT ( #294, #55, ( #238 ) ) ;
#60 = APPROVAL_DATE_TIME ( #367, #242 ) ;
#61 = CALENDAR_DATE ( 2026, 22, 6 ) ;
#62 = APPLICATION_CONTEXT ( 'configuration controlled 3d designs of mechanical parts and assemblies' ) ;
#63 = APPROVAL_STATUS ( 'not_yet_approved' ) ;
#64 = AXIS2_PLACEMENT_3D ( 'NONE', #78, #346, #311 ) ;
#65 = COORDINATED_UNIVERSAL_TIME_OFFSET ( 10, 0, .AHEAD. ) ;
#66 = ORGANIZATION ( 'NAUO-ORG224', 'UNSPECIFIED', 'UNSPECIFIED' ) ;
#67 = MECHANICAL_CONTEXT ( 'NONE', #221, 'mechanical' ) ;
#68 = CC_DESIGN_PERSON_AND_ORGANIZATION_ASSIGNMENT ( #181, #241, ( #84 ) ) ;
#69 = COORDINATED_UNIVERSAL_TIME_OFFSET ( 10, 0, .AHEAD. ) ;
#70 = CC_DESIGN_PERSON_AND_ORGANIZATION_ASSIGNMENT ( #237, #306, ( #139 ) ) ;
#71 = SECURITY_CLASSIFICATION ( '', '', #376 ) ;
#72 = ROLE_ASSOCIATION ( #124, #133 ) ;
#73 = CC_DESIGN_PERSON_AND_ORGANIZATION_ASSIGNMENT ( #229, #49, ( #137 ) ) ;
#74 = DIRECTION ( 'NONE',  ( 4.890937612370273194E-29, -3.155443620884047222E-30, 0.9999999999999997780 ) ) ;
#75 = PERSON ( 'NAUO-PER223', 'UNSPECIFIED', 'UNSPECIFIED', ('UNSPECIFIED'), ('UNSPECIFIED'), ('UNSPECIFIED') ) ;
#76 =( LENGTH_UNIT ( ) NAMED_UNIT ( * ) SI_UNIT ( .MILLI., .METRE. ) );
#77 = CC_DESIGN_APPROVAL ( #186, ( #269 ) ) ;
#78 = CARTESIAN_POINT ( 'NONE',  ( 0.000000000000000000, 0.000000000000000000, 0.000000000000000000 ) ) ;
#79 = CC_DESIGN_DATE_AND_TIME_ASSIGNMENT ( #159, #219, ( #71 ) ) ;
#80 = DATE_AND_TIME ( #171, #209 ) ;
#81 = PRODUCT_DEFINITION_SHAPE ( 'NONE', 'NONE',  #390 ) ;
#82 = APPLICATION_CONTEXT ( 'configuration controlled 3d designs of mechanical parts and assemblies' ) ;
#83 = CC_DESIGN_APPROVAL ( #235, ( #100 ) ) ;
#84 = PRODUCT_DEFINITION_FORMATION_WITH_SPECIFIED_SOURCE ( 'Symmetric', '', #113, .NOT_KNOWN. ) ;
#85 =( LENGTH_UNIT ( ) NAMED_UNIT ( * ) SI_UNIT ( .MILLI., .METRE. ) );
#86 = CC_DESIGN_PERSON_AND_ORGANIZATION_ASSIGNMENT ( #179, #299, ( #139 ) ) ;
#87 = DATE_AND_TIME ( #328, #12 ) ;
#88 = PERSON_AND_ORGANIZATION_ROLE ( 'creator' ) ;
#89 = CC_DESIGN_APPROVAL ( #106, ( #238 ) ) ;
#90 = DESIGN_CONTEXT ( 'detailed design', #161, 'design' ) ;
#91 = PERSON_AND_ORGANIZATION ( #18446744073709551615, #18446744073709551615 ) ;
#92 = COORDINATED_UNIVERSAL_TIME_OFFSET ( 10, 0, .AHEAD. ) ;
#93 = DATE_AND_TIME ( #151, #33 ) ;
#94 = SECURITY_CLASSIFICATION ( '', '', #226 ) ;
#95 = PERSON_AND_ORGANIZATION ( #18446744073709551615, #18446744073709551615 ) ;
#96 = APPROVAL_PERSON_ORGANIZATION ( #384, #125, #168 ) ;
#97 = APPROVAL ( #214, 'Coincident' ) ;
#98 = UNCERTAINTY_MEASURE_WITH_UNIT (LENGTH_MEASURE( 1.000000000000000082E-05 ), #76, 'distance_accuracy_value', 'NONE');
#99 = CALENDAR_DATE ( 2026, 22, 6 ) ;
#100 = PRODUCT_DEFINITION ( 'General', '', #137, #369 ) ;
#101 = PROPERTY_DEFINITION_REPRESENTATION ( #320, #324 ) ;
#102 = PERSON_AND_ORGANIZATION ( #75, #203 ) ;
#103 = EXTERNAL_SOURCE (IDENTIFIER('') ) ;
#104 = CC_DESIGN_APPROVAL ( #257, ( #71 ) ) ;
#105 = PROPERTY_DEFINITION_REPRESENTATION ( #249, #378 ) ;
#106 = APPROVAL ( #157, 'UNKNOWN' ) ;
#107 = COORDINATED_UNIVERSAL_TIME_OFFSET ( 10, 0, .AHEAD. ) ;
#108 = CC_DESIGN_PERSON_AND_ORGANIZATION_ASSIGNMENT ( #91, #246, ( #36 ) ) ;
#109 =( NAMED_UNIT ( * ) SI_UNIT ( $, .STERADIAN. ) SOLID_ANGLE_UNIT ( ) );
#110 = LOCAL_TIME ( 18, 49, 58.00000000000000000, #29 ) ;
#111 = APPROVAL_DATE_TIME ( #148, #125 ) ;
#112 = CC_DESIGN_PERSON_AND_ORGANIZATION_ASSIGNMENT ( #319, #88, ( #137 ) ) ;
#113 = PRODUCT ( '6461079856.step', '6461079856.step', '', ( #67 ) ) ;
#114 = PERSON_AND_ORGANIZATION_ROLE ( 'design_owner' ) ;
#115 = MECHANICAL_CONTEXT ( 'NONE', #201, 'mechanical' ) ;
#116 = AXIS2_PLACEMENT_3D ( 'NONE', #11, #74, #224 ) ;
#117 = APPROVAL_PERSON_ORGANIZATION ( #339, #119, #9 ) ;
#118 = CALENDAR_DATE ( 2026, 22, 6 ) ;
#119 = APPROVAL ( #188, 'UNKNOWN' ) ;
#120 = CALENDAR_DATE ( 2026, 22, 6 ) ;
#121 = DATE_TIME_ROLE ( 'creation_date' ) ;
#122 = LOCAL_TIME ( 18, 49, 58.00000000000000000, #130 ) ;
#123 = APPROVAL_DATE_TIME ( #2, #207 ) ;
#124 = OBJECT_ROLE ('mandatory',$ ) ;
#125 = APPROVAL ( #361, 'Coincident' ) ;
#126 = DATE_AND_TIME ( #150, #110 ) ;
#127 = UNCERTAINTY_MEASURE_WITH_UNIT (LENGTH_MEASURE( 1.000000000000000082E-05 ), #85, 'distance_accuracy_value', 'NONE');
#128 = APPROVAL_DATE_TIME ( #93, #145 ) ;
#129 = AXIS2_PLACEMENT_3D ( 'NONE', #160, #165, #282 ) ;
#130 = COORDINATED_UNIVERSAL_TIME_OFFSET ( 10, 0, .AHEAD. ) ;
#131 = LOCAL_TIME ( 18, 49, 58.00000000000000000, #247 ) ;
#132 = DESIGN_CONTEXT ( 'detailed design', #82, 'design' ) ;
#133 = APPLIED_DOCUMENT_REFERENCE ( #48,'',( #36) ) ;
#134 = DIRECTION ( 'NONE',  ( 1.000000000000000222, -1.092455418989176591E-28, 4.890937612370273194E-29 ) ) ;
#135 = PERSON_AND_ORGANIZATION_ROLE ( 'classification_officer' ) ;
#136 = COORDINATED_UNIVERSAL_TIME_OFFSET ( 10, 0, .AHEAD. ) ;
#137 = PRODUCT_DEFINITION_FORMATION_WITH_SPECIFIED_SOURCE ( 'Symmetric', '', #170, .NOT_KNOWN. ) ;
#138 = MECHANICAL_CONTEXT ( 'NONE', #62, 'mechanical' ) ;
#139 = PRODUCT_DEFINITION_FORMATION_WITH_SPECIFIED_SOURCE ( 'Symmetric', '', #353, .NOT_KNOWN. ) ;
#140 = CONTEXT_DEPENDENT_SHAPE_REPRESENTATION ( #42, #52 ) ;
#141 = ITEM_DEFINED_TRANSFORMATION ( 'NONE', 'NONE', #285,  #64 ) ;
#142 = PROPERTY_DEFINITION_REPRESENTATION ( #351, #378 ) ;
#143 = COORDINATED_UNIVERSAL_TIME_OFFSET ( 10, 0, .AHEAD. ) ;
#144 = APPROVAL_PERSON_ORGANIZATION ( #294, #106, #327 ) ;
#145 = APPROVAL ( #63, 'Coincident' ) ;
#146 = APPROVAL_STATUS ( 'not_yet_approved' ) ;
#147 =( REPRESENTATION_RELATIONSHIP ('NONE','NONE', #215, #378 ) REPRESENTATION_RELATIONSHIP_WITH_TRANSFORMATION ( #312 )SHAPE_REPRESENTATION_RELATIONSHIP( ) );
#148 = DATE_AND_TIME ( #118, #380 ) ;
#149 = PERSON_AND_ORGANIZATION_ROLE ( 'creator' ) ;
#150 = CALENDAR_DATE ( 2026, 22, 6 ) ;
#151 = CALENDAR_DATE ( 2026, 22, 6 ) ;
#152 =( GEOMETRIC_REPRESENTATION_CONTEXT ( 3 ) GLOBAL_UNCERTAINTY_ASSIGNED_CONTEXT ( ( #127 ) ) GLOBAL_UNIT_ASSIGNED_CONTEXT ( ( #85, #270, #385 ) ) REPRESENTATION_CONTEXT ( 'NONE', 'WORKASPACE' ) );
#153 = CC_DESIGN_SECURITY_CLASSIFICATION ( #71, ( #389 ) ) ;
#154 = APPROVAL_STATUS ( 'not_yet_approved' ) ;
#155 = SECURITY_CLASSIFICATION_LEVEL ( 'unclassified' ) ;
#156 = COORDINATED_UNIVERSAL_TIME_OFFSET ( 10, 0, .AHEAD. ) ;
#157 = APPROVAL_STATUS ( 'not_yet_approved' ) ;
#158 = LOCAL_TIME ( 18, 49, 58.00000000000000000, #217 ) ;
#159 = DATE_AND_TIME ( #222, #216 ) ;
#160 = CARTESIAN_POINT ( 'NONE',  ( 0.000000000000000000, 0.000000000000000000, 0.000000000000000000 ) ) ;
#161 = APPLICATION_CONTEXT ( 'configuration controlled 3d designs of mechanical parts and assemblies' ) ;
#162 = COORDINATED_UNIVERSAL_TIME_OFFSET ( 10, 0, .AHEAD. ) ;
#163 =( NAMED_UNIT ( * ) SI_UNIT ( $, .STERADIAN. ) SOLID_ANGLE_UNIT ( ) );
#164 = SHAPE_DEFINITION_REPRESENTATION ( #227, #378 ) ;
#165 = DIRECTION ( 'NONE',  ( 0.000000000000000000, 0.000000000000000000, 1.000000000000000000 ) ) ;
#166 = APPROVAL ( #182, 'Coincident' ) ;
#167 = APPROVAL_STATUS ( 'not_yet_approved' ) ;
#168 = APPROVAL_ROLE ( '' ) ;
#169 = PROPERTY_DEFINITION_REPRESENTATION ( #198, #378 ) ;
#170 = PRODUCT ( 'C29.step', 'C29.step', '', ( #138 ) ) ;
#171 = CALENDAR_DATE ( 2026, 22, 6 ) ;
#172 =( GEOMETRIC_REPRESENTATION_CONTEXT ( 3 ) GLOBAL_UNCERTAINTY_ASSIGNED_CONTEXT ( ( #245 ) ) GLOBAL_UNIT_ASSIGNED_CONTEXT ( ( #44, #258, #163 ) ) REPRESENTATION_CONTEXT ( 'NONE', 'WORKASPACE' ) );
#173 = LOCAL_TIME ( 18, 49, 58.00000000000000000, #334 ) ;
#174 = DATE_AND_TIME ( #54, #387 ) ;
#175 = DATE_TIME_ROLE ( 'classification_date' ) ;
#176 = CC_DESIGN_DATE_AND_TIME_ASSIGNMENT ( #212, #4, ( #36 ) ) ;
#177 = APPROVAL_PERSON_ORGANIZATION ( #20, #255, #56 ) ;
#178 = LOCAL_TIME ( 18, 49, 58.00000000000000000, #342 ) ;
#179 = PERSON_AND_ORGANIZATION ( #18446744073709551615, #18446744073709551615 ) ;
#180 = CC_DESIGN_DATE_AND_TIME_ASSIGNMENT ( #80, #199, ( #100 ) ) ;
#181 = PERSON_AND_ORGANIZATION ( #18446744073709551615, #18446744073709551615 ) ;
#182 = APPROVAL_STATUS ( 'not_yet_approved' ) ;
#183 = APPLIED_EXTERNAL_IDENTIFICATION_ASSIGNMENT ( '6534431024.step.STEP' , #13, #103,( #48) ) ;
#184 = PERSON_AND_ORGANIZATION ( #18446744073709551615, #18446744073709551615 ) ;
#185 = PERSON_AND_ORGANIZATION_ROLE ( 'creator' ) ;
#186 = APPROVAL ( #167, 'Coincident' ) ;
#187 = PERSON_AND_ORGANIZATION_ROLE ( 'classification_officer' ) ;
#188 = APPROVAL_STATUS ( 'not_yet_approved' ) ;
#189 = APPROVAL_PERSON_ORGANIZATION ( #364, #207, #32 ) ;
#190 = PROPERTY_DEFINITION_REPRESENTATION ( #225, #324 ) ;
#191 = CC_DESIGN_DATE_AND_TIME_ASSIGNMENT ( #174, #175, ( #94 ) ) ;
#192 = PERSON_AND_ORGANIZATION ( #18446744073709551615, #18446744073709551615 ) ;
#193 = SECURITY_CLASSIFICATION_LEVEL ( 'unclassified' ) ;
#194 = APPROVAL_PERSON_ORGANIZATION ( #27, #242, #18 ) ;
#195 = CC_DESIGN_SECURITY_CLASSIFICATION ( #269, ( #84 ) ) ;
#196 = CC_DESIGN_PERSON_AND_ORGANIZATION_ASSIGNMENT ( #102, #187, ( #71 ) ) ;
#197 = PRODUCT_DEFINITION_SHAPE ( 'NONE', 'NONE',  #36 ) ;
#198 = PROPERTY_DEFINITION ('document property','', #7 ) ;
#199 = DATE_TIME_ROLE ( 'creation_date' ) ;
#200 = APPROVAL_PERSON_ORGANIZATION ( #243, #166, #301 ) ;
#201 = APPLICATION_CONTEXT ( 'configuration controlled 3d designs of mechanical parts and assemblies' ) ;
#202 = CC_DESIGN_APPROVAL ( #242, ( #36 ) ) ;
#203 = ORGANIZATION ( 'NAUO-ORG223', 'UNSPECIFIED', 'UNSPECIFIED' ) ;
#204 = DATE_TIME_ROLE ( 'classification_date' ) ;
#205 = APPROVAL_ROLE ( '' ) ;
#206 = PERSON_AND_ORGANIZATION ( #18446744073709551615, #18446744073709551615 ) ;
#207 = APPROVAL ( #154, 'Coincident' ) ;
#208 = CALENDAR_DATE ( 2026, 22, 6 ) ;
#209 = LOCAL_TIME ( 18, 49, 58.00000000000000000, #290 ) ;
#210 = CC_DESIGN_APPROVAL ( #119, ( #53 ) ) ;
#211 = APPLICATION_PROTOCOL_DEFINITION ( 'international standard', 'config_control_design', 1994, #82 ) ;
#212 = DATE_AND_TIME ( #304, #6 ) ;
#213 = PRODUCT_DEFINITION ( 'General', '', #84, #132 ) ;
#214 = APPROVAL_STATUS ( 'not_yet_approved' ) ;
#215 = SHAPE_REPRESENTATION ( 'C29.step', ( #46, #285, #116, #252 ), #152 ) ;
#216 = LOCAL_TIME ( 18, 49, 58.00000000000000000, #69 ) ;
#217 = COORDINATED_UNIVERSAL_TIME_OFFSET ( 10, 0, .AHEAD. ) ;
#218 = COORDINATED_UNIVERSAL_TIME_OFFSET ( 10, 0, .AHEAD. ) ;
#219 = DATE_TIME_ROLE ( 'classification_date' ) ;
#220 = APPROVAL_PERSON_ORGANIZATION ( #372, #145, #35 ) ;
#221 = APPLICATION_CONTEXT ( 'configuration controlled 3d designs of mechanical parts and assemblies' ) ;
#222 = CALENDAR_DATE ( 2026, 22, 6 ) ;
#223 = DATE_AND_TIME ( #374, #131 ) ;
#224 = DIRECTION ( 'NONE',  ( 1.000000000000000222, -1.092455418989176591E-28, 4.890937612370273194E-29 ) ) ;
#225 = PROPERTY_DEFINITION ('external definition','', #48 ) ;
#226 = SECURITY_CLASSIFICATION_LEVEL ( 'unclassified' ) ;
#227 = PRODUCT_DEFINITION_SHAPE ( 'NONE', 'NONE',  #213 ) ;
#228 = COORDINATED_UNIVERSAL_TIME_OFFSET ( 10, 0, .AHEAD. ) ;
#229 = PERSON_AND_ORGANIZATION ( #18446744073709551615, #18446744073709551615 ) ;
#230 = COORDINATED_UNIVERSAL_TIME_OFFSET ( 10, 0, .AHEAD. ) ;
#231 = CC_DESIGN_SECURITY_CLASSIFICATION ( #238, ( #390 ) ) ;
#232 = APPROVAL_DATE_TIME ( #357, #235 ) ;
#233 = CC_DESIGN_PERSON_AND_ORGANIZATION_ASSIGNMENT ( #386, #331, ( #113 ) ) ;
#234 = APPROVAL_STATUS ( 'not_yet_approved' ) ;
#235 = APPROVAL ( #234, 'Coincident' ) ;
#236 = CC_DESIGN_DATE_AND_TIME_ASSIGNMENT ( #23, #204, ( #238 ) ) ;
#237 = PERSON_AND_ORGANIZATION ( #18446744073709551615, #18446744073709551615 ) ;
#238 = SECURITY_CLASSIFICATION ( '', '', #193 ) ;
#239 = DATE_AND_TIME ( #208, #122 ) ;
#240 = EXTERNAL_SOURCE (IDENTIFIER('') ) ;
#241 = PERSON_AND_ORGANIZATION_ROLE ( 'creator' ) ;
#242 = APPROVAL ( #289, 'Coincident' ) ;
#243 = PERSON_AND_ORGANIZATION ( #18446744073709551615, #18446744073709551615 ) ;
#244 = LOCAL_TIME ( 18, 49, 58.00000000000000000, #136 ) ;
#245 = UNCERTAINTY_MEASURE_WITH_UNIT (LENGTH_MEASURE( 1.000000000000000082E-05 ), #44, 'distance_accuracy_value', 'NONE');
#246 = PERSON_AND_ORGANIZATION_ROLE ( 'creator' ) ;
#247 = COORDINATED_UNIVERSAL_TIME_OFFSET ( 10, 0, .AHEAD. ) ;
#248 = PERSON_AND_ORGANIZATION ( #18446744073709551615, #18446744073709551615 ) ;
#249 = PROPERTY_DEFINITION ('external definition','', #330 ) ;
#250 = APPLIED_DOCUMENT_REFERENCE ( #330,'',( #213) ) ;
#251 = CARTESIAN_POINT ( 'NONE',  ( 6.649998718232001060, 0.6500056152340012439, -2.058321952819998302 ) ) ;
#252 = AXIS2_PLACEMENT_3D ( 'NONE', #352, #8, #134 ) ;
#253 = LOCAL_TIME ( 18, 49, 58.00000000000000000, #107 ) ;
#254 = DATE_AND_TIME ( #99, #253 ) ;
#255 = APPROVAL ( #146, 'Coincident' ) ;
#256 = PROPERTY_DEFINITION_REPRESENTATION ( #373, #378 ) ;
#257 = APPROVAL ( #10, 'UNKNOWN' ) ;
#258 =( NAMED_UNIT ( * ) PLANE_ANGLE_UNIT ( ) SI_UNIT ( $, .RADIAN. ) );
#259 = CALENDAR_DATE ( 2026, 22, 6 ) ;
#260 = PRODUCT_DEFINITION_SHAPE ( 'NONE', 'NONE',  #100 ) ;
#261 = CALENDAR_DATE ( 2026, 22, 6 ) ;
#262 = CALENDAR_DATE ( 2026, 22, 6 ) ;
#263 = APPLIED_EXTERNAL_IDENTIFICATION_ASSIGNMENT ( '6461079856.step.STEP' , #265, #240,( #330) ) ;
#264 = CC_DESIGN_PERSON_AND_ORGANIZATION_ASSIGNMENT ( #206, #323, ( #94 ) ) ;
#265 = IDENTIFICATION_ROLE ( 'external document id and location', $) ;
#266 = APPROVAL_DATE_TIME ( #87, #255 ) ;
#267 = APPLICATION_PROTOCOL_DEFINITION ( 'international standard', 'config_control_design', 1994, #368 ) ;
#268 = CC_DESIGN_APPROVAL ( #255, ( #137 ) ) ;
#269 = SECURITY_CLASSIFICATION ( '', '', #336 ) ;
#270 =( NAMED_UNIT ( * ) PLANE_ANGLE_UNIT ( ) SI_UNIT ( $, .RADIAN. ) );
#271 = DATE_AND_TIME ( #38, #158 ) ;
#272 = DATE_TIME_ROLE ( 'classification_date' ) ;
#273 = SECURITY_CLASSIFICATION ( '', '', #155 ) ;
#274 = APPROVAL_DATE_TIME ( #366, #97 ) ;
#275 = PERSON ( 'NAUO-PER224', 'UNSPECIFIED', 'UNSPECIFIED', ('UNSPECIFIED'), ('UNSPECIFIED'), ('UNSPECIFIED') ) ;
#276 = CALENDAR_DATE ( 2026, 22, 6 ) ;
#277 = SHAPE_DEFINITION_REPRESENTATION ( #197, #324 ) ;
#278 = CC_DESIGN_DATE_AND_TIME_ASSIGNMENT ( #271, #121, ( #213 ) ) ;
#279 = CC_DESIGN_APPROVAL ( #145, ( #139 ) ) ;
#280 = ROLE_ASSOCIATION ( #355, #250 ) ;
#281 = PERSON_AND_ORGANIZATION_ROLE ( 'classification_officer' ) ;
#282 = DIRECTION ( 'NONE',  ( 1.000000000000000000, 0.000000000000000000, 0.000000000000000000 ) ) ;
#283 = DOCUMENT_TYPE ( 'geometry' ) ;
#284 = DIRECTION ( 'NONE',  ( 1.000000000000000222, -1.092455418989176591E-28, 4.890937612370273194E-29 ) ) ;
#285 = AXIS2_PLACEMENT_3D ( 'NONE', #251, #377, #284 ) ;
#286 = CC_DESIGN_SECURITY_CLASSIFICATION ( #53, ( #388 ) ) ;
#287 = CALENDAR_DATE ( 2026, 22, 6 ) ;
#288 = ITEM_DEFINED_TRANSFORMATION ( 'NONE', 'NONE', #116,  #129 ) ;
#289 = APPROVAL_STATUS ( 'not_yet_approved' ) ;
#290 = COORDINATED_UNIVERSAL_TIME_OFFSET ( 10, 0, .AHEAD. ) ;
#291 = LOCAL_TIME ( 18, 49, 58.00000000000000000, #218 ) ;
#292 = ROLE_ASSOCIATION ( #297, #50 ) ;
#293 = COORDINATED_UNIVERSAL_TIME_OFFSET ( 10, 0, .AHEAD. ) ;
#294 = PERSON_AND_ORGANIZATION ( #275, #66 ) ;
#295 = APPLICATION_PROTOCOL_DEFINITION ( 'international standard', 'config_control_design', 1994, #201 ) ;
#296 = PERSON_AND_ORGANIZATION_ROLE ( 'design_owner' ) ;
#297 = OBJECT_ROLE ('mandatory',$ ) ;
#298 = CC_DESIGN_APPROVAL ( #125, ( #94 ) ) ;
#299 = PERSON_AND_ORGANIZATION_ROLE ( 'design_supplier' ) ;
#300 = PERSON_AND_ORGANIZATION ( #18446744073709551615, #18446744073709551615 ) ;
#301 = APPROVAL_ROLE ( '' ) ;
#302 =( REPRESENTATION_RELATIONSHIP ('NONE','NONE', #215, #324 ) REPRESENTATION_RELATIONSHIP_WITH_TRANSFORMATION ( #288 )SHAPE_REPRESENTATION_RELATIONSHIP( ) );
#303 = LOCAL_TIME ( 18, 49, 58.00000000000000000, #162 ) ;
#304 = CALENDAR_DATE ( 2026, 22, 6 ) ;
#305 = PERSON ( 'NAUO-PER222', 'UNSPECIFIED', 'UNSPECIFIED', ('UNSPECIFIED'), ('UNSPECIFIED'), ('UNSPECIFIED') ) ;
#306 = PERSON_AND_ORGANIZATION_ROLE ( 'creator' ) ;
#307 = CC_DESIGN_PERSON_AND_ORGANIZATION_ASSIGNMENT ( #248, #114, ( #170 ) ) ;
#308 = DATE_AND_TIME ( #259, #244 ) ;
#309 = APPROVAL_PERSON_ORGANIZATION ( #192, #186, #45 ) ;
#310 = APPROVAL_DATE_TIME ( #254, #119 ) ;
#311 = DIRECTION ( 'NONE',  ( 1.000000000000000000, 0.000000000000000000, 0.000000000000000000 ) ) ;
#312 = ITEM_DEFINED_TRANSFORMATION ( 'NONE', 'NONE', #252,  #64 ) ;
#313 = PERSON_AND_ORGANIZATION ( #18446744073709551615, #18446744073709551615 ) ;
#314 = CC_DESIGN_PERSON_AND_ORGANIZATION_ASSIGNMENT ( #321, #296, ( #353 ) ) ;
#315 = APPROVAL_PERSON_ORGANIZATION ( #184, #97, #337 ) ;
#316 = CONTEXT_DEPENDENT_SHAPE_REPRESENTATION ( #302, #356 ) ;
#317 = CARTESIAN_POINT ( 'NONE',  ( 0.000000000000000000, 0.000000000000000000, 0.000000000000000000 ) ) ;
#318 = CC_DESIGN_PERSON_AND_ORGANIZATION_ASSIGNMENT ( #300, #30, ( #84 ) ) ;
#319 = PERSON_AND_ORGANIZATION ( #18446744073709551615, #18446744073709551615 ) ;
#320 = PROPERTY_DEFINITION ('document property','', #48 ) ;
#321 = PERSON_AND_ORGANIZATION ( #18446744073709551615, #18446744073709551615 ) ;
#322 = CONTEXT_DEPENDENT_SHAPE_REPRESENTATION ( #147, #81 ) ;
#323 = PERSON_AND_ORGANIZATION_ROLE ( 'classification_officer' ) ;
#324 = SHAPE_REPRESENTATION ( '6534431024.step', ( #129 ), #332 ) ;
#325 = CC_DESIGN_PERSON_AND_ORGANIZATION_ASSIGNMENT ( #95, #185, ( #213 ) ) ;
#326 = DOCUMENT_TYPE ( 'geometry' ) ;
#327 = APPROVAL_ROLE ( '' ) ;
#328 = CALENDAR_DATE ( 2026, 22, 6 ) ;
#329 = PRODUCT_RELATED_PRODUCT_CATEGORY ( 'detail', '', ( #113 ) ) ;
#330 = DOCUMENT_FILE ( '6461079856.step.STEP' , '', '', #283, '' ,$ ) ;
#331 = PERSON_AND_ORGANIZATION_ROLE ( 'design_owner' ) ;
#332 =( GEOMETRIC_REPRESENTATION_CONTEXT ( 3 ) GLOBAL_UNCERTAINTY_ASSIGNED_CONTEXT ( ( #98 ) ) GLOBAL_UNIT_ASSIGNED_CONTEXT ( ( #76, #348, #109 ) ) REPRESENTATION_CONTEXT ( 'NONE', 'WORKASPACE' ) );
#333 = CC_DESIGN_APPROVAL ( #97, ( #273 ) ) ;
#334 = COORDINATED_UNIVERSAL_TIME_OFFSET ( 10, 0, .AHEAD. ) ;
#335 = APPLICATION_PROTOCOL_DEFINITION ( 'international standard', 'config_control_design', 1994, #221 ) ;
#336 = SECURITY_CLASSIFICATION_LEVEL ( 'unclassified' ) ;
#337 = APPROVAL_ROLE ( '' ) ;
#338 = PERSON_AND_ORGANIZATION ( #18446744073709551615, #18446744073709551615 ) ;
#339 = PERSON_AND_ORGANIZATION ( #305, #40 ) ;
#340 = DATE_AND_TIME ( #16, #178 ) ;
#341 = CC_DESIGN_SECURITY_CLASSIFICATION ( #94, ( #137 ) ) ;
#342 = COORDINATED_UNIVERSAL_TIME_OFFSET ( 10, 0, .AHEAD. ) ;
#343 = CC_DESIGN_PERSON_AND_ORGANIZATION_ASSIGNMENT ( #339, #281, ( #53 ) ) ;
#344 = EXTERNAL_SOURCE (IDENTIFIER('') ) ;
#345 = APPROVAL_DATE_TIME ( #223, #257 ) ;
#346 = DIRECTION ( 'NONE',  ( 0.000000000000000000, 0.000000000000000000, 1.000000000000000000 ) ) ;
#347 = APPROVAL_ROLE ( '' ) ;
#348 =( NAMED_UNIT ( * ) PLANE_ANGLE_UNIT ( ) SI_UNIT ( $, .RADIAN. ) );
#349 = APPROVAL_PERSON_ORGANIZATION ( #24, #235, #205 ) ;
#350 = APPLIED_EXTERNAL_IDENTIFICATION_ASSIGNMENT ( '6461079856.step.STEP' , #375, #344,( #7) ) ;
#351 = PROPERTY_DEFINITION ('external definition','', #7 ) ;
#352 = CARTESIAN_POINT ( 'NONE',  ( 6.649998718232001060, 1.649997985840000236, -2.058321952820000078 ) ) ;
#353 = PRODUCT ( '6534431024.step', '6534431024.step', '', ( #115 ) ) ;
#354 = COORDINATED_UNIVERSAL_TIME_OFFSET ( 10, 0, .AHEAD. ) ;
#355 = OBJECT_ROLE ('mandatory',$ ) ;
#356 = PRODUCT_DEFINITION_SHAPE ( 'NONE', 'NONE',  #389 ) ;
#357 = DATE_AND_TIME ( #120, #31 ) ;
#358 = CC_DESIGN_APPROVAL ( #166, ( #213 ) ) ;
#359 = COORDINATED_UNIVERSAL_TIME_OFFSET ( 10, 0, .AHEAD. ) ;
#360 = DATE_AND_TIME ( #261, #34 ) ;
#361 = APPROVAL_STATUS ( 'not_yet_approved' ) ;
#362 = CC_DESIGN_DATE_AND_TIME_ASSIGNMENT ( #308, #41, ( #269 ) ) ;
#363 = PERSON_AND_ORGANIZATION ( #18446744073709551615, #18446744073709551615 ) ;
#364 = PERSON_AND_ORGANIZATION ( #18446744073709551615, #18446744073709551615 ) ;
#365 = LOCAL_TIME ( 18, 49, 58.00000000000000000, #143 ) ;
#366 = DATE_AND_TIME ( #276, #47 ) ;
#367 = DATE_AND_TIME ( #262, #365 ) ;
#368 = APPLICATION_CONTEXT ( 'configuration controlled 3d designs of mechanical parts and assemblies' ) ;
#369 = DESIGN_CONTEXT ( 'detailed design', #368, 'design' ) ;
#370 = APPROVAL_DATE_TIME ( #126, #166 ) ;
#371 = APPROVAL_PERSON_ORGANIZATION ( #102, #257, #347 ) ;
#372 = PERSON_AND_ORGANIZATION ( #18446744073709551615, #18446744073709551615 ) ;
#373 = PROPERTY_DEFINITION ('document property','', #330 ) ;
#374 = CALENDAR_DATE ( 2026, 22, 6 ) ;
#375 = IDENTIFICATION_ROLE ( 'external document id and location', $) ;
#376 = SECURITY_CLASSIFICATION_LEVEL ( 'unclassified' ) ;
#377 = DIRECTION ( 'NONE',  ( 4.890937612370273194E-29, -3.155443620884047222E-30, 0.9999999999999997780 ) ) ;
#378 = SHAPE_REPRESENTATION ( '6461079856.step', ( #64 ), #172 ) ;
#379 = APPROVAL_DATE_TIME ( #340, #186 ) ;
#380 = LOCAL_TIME ( 18, 49, 58.00000000000000000, #293 ) ;
#381 = APPROVAL_DATE_TIME ( #360, #106 ) ;
#382 = DIRECTION ( 'NONE',  ( 1.000000000000000000, 0.000000000000000000, 0.000000000000000000 ) ) ;
#383 = CALENDAR_DATE ( 2026, 22, 6 ) ;
#384 = PERSON_AND_ORGANIZATION ( #18446744073709551615, #18446744073709551615 ) ;
#385 =( NAMED_UNIT ( * ) SI_UNIT ( $, .STERADIAN. ) SOLID_ANGLE_UNIT ( ) );
#386 = PERSON_AND_ORGANIZATION ( #18446744073709551615, #18446744073709551615 ) ;
#387 = LOCAL_TIME ( 18, 49, 58.00000000000000000, #354 ) ;
#388 = NEXT_ASSEMBLY_USAGE_OCCURRENCE ( 'NAUO222', ' ', ' ', #100, #213, $ ) ;
#389 = NEXT_ASSEMBLY_USAGE_OCCURRENCE ( 'NAUO223', ' ', ' ', #100, #36, $ ) ;
#390 = NEXT_ASSEMBLY_USAGE_OCCURRENCE ( 'NAUO224', ' ', ' ', #100, #213, $ ) ;
ENDSEC;
END-ISO-10303-21;
