ISO-10303-21;
HEADER;
FILE_DESCRIPTION (( 'STEP AP203' ),
    '1' );
FILE_NAME ('C3.step.STEP',
    '2026-06-22T08:50:00',
    ( 'localuser' ),
    ( '' ),
    'SwSTEP 2.0',
    'SolidWorks 2025',
    '' );
FILE_SCHEMA (( 'CONFIG_CONTROL_DESIGN' ));
ENDSEC;

DATA;
#1 = APPROVAL_DATE_TIME ( #332, #258 ) ;
#2 = DOCUMENT_TYPE ( 'geometry' ) ;
#3 = PERSON_AND_ORGANIZATION ( #18446744073709551615, #18446744073709551615 ) ;
#4 = LOCAL_TIME ( 18, 50, 0.000000000000000000, #268 ) ;
#5 = PRODUCT ( '6461081856.step', '6461081856.step', '', ( #120 ) ) ;
#6 = DATE_AND_TIME ( #217, #272 ) ;
#7 = PERSON_AND_ORGANIZATION ( #66, #181 ) ;
#8 = PERSON_AND_ORGANIZATION_ROLE ( 'creator' ) ;
#9 = APPLICATION_CONTEXT ( 'configuration controlled 3d designs of mechanical parts and assemblies' ) ;
#10 = CALENDAR_DATE ( 2026, 22, 6 ) ;
#11 = SECURITY_CLASSIFICATION ( '', '', #276 ) ;
#12 = LOCAL_TIME ( 18, 50, 0.000000000000000000, #347 ) ;
#13 = PERSON_AND_ORGANIZATION_ROLE ( 'design_owner' ) ;
#14 = COORDINATED_UNIVERSAL_TIME_OFFSET ( 10, 0, .AHEAD. ) ;
#15 = OBJECT_ROLE ('mandatory',$ ) ;
#16 = SHAPE_REPRESENTATION ( 'C3.step', ( #240, #288, #76, #61 ), #104 ) ;
#17 = APPROVAL_PERSON_ORGANIZATION ( #147, #323, #301 ) ;
#18 = APPROVAL_PERSON_ORGANIZATION ( #7, #242, #361 ) ;
#19 = MECHANICAL_CONTEXT ( 'NONE', #9, 'mechanical' ) ;
#20 = CALENDAR_DATE ( 2026, 22, 6 ) ;
#21 = CC_DESIGN_DATE_AND_TIME_ASSIGNMENT ( #65, #387, ( #28 ) ) ;
#22 = APPROVAL_ROLE ( '' ) ;
#23 = CC_DESIGN_DATE_AND_TIME_ASSIGNMENT ( #168, #113, ( #313 ) ) ;
#24 = DOCUMENT_FILE ( '6461081856.step.STEP' , '', '', #90, '' ,$ ) ;
#25 = PERSON_AND_ORGANIZATION_ROLE ( 'classification_officer' ) ;
#26 = DATE_AND_TIME ( #322, #12 ) ;
#27 = APPROVAL_ROLE ( '' ) ;
#28 = PRODUCT_DEFINITION ( 'General', '', #180, #293 ) ;
#29 = SECURITY_CLASSIFICATION_LEVEL ( 'unclassified' ) ;
#30 = EXTERNAL_SOURCE (IDENTIFIER('') ) ;
#31 = APPROVAL_STATUS ( 'not_yet_approved' ) ;
#32 = CC_DESIGN_APPROVAL ( #201, ( #264 ) ) ;
#33 = CALENDAR_DATE ( 2026, 22, 6 ) ;
#34 = PROPERTY_DEFINITION_REPRESENTATION ( #111, #297 ) ;
#35 = PERSON_AND_ORGANIZATION ( #18446744073709551615, #18446744073709551615 ) ;
#36 = MECHANICAL_CONTEXT ( 'NONE', #255, 'mechanical' ) ;
#37 = CC_DESIGN_APPROVAL ( #281, ( #254 ) ) ;
#38 = CALENDAR_DATE ( 2026, 22, 6 ) ;
#39 = CC_DESIGN_PERSON_AND_ORGANIZATION_ASSIGNMENT ( #57, #270, ( #5 ) ) ;
#40 = APPROVAL_STATUS ( 'not_yet_approved' ) ;
#41 = SHAPE_DEFINITION_REPRESENTATION ( #218, #297 ) ;
#42 = OBJECT_ROLE ('mandatory',$ ) ;
#43 = APPROVAL_PERSON_ORGANIZATION ( #211, #274, #298 ) ;
#44 = CC_DESIGN_APPROVAL ( #379, ( #80 ) ) ;
#45 = PERSON_AND_ORGANIZATION_ROLE ( 'classification_officer' ) ;
#46 =( NAMED_UNIT ( * ) SI_UNIT ( $, .STERADIAN. ) SOLID_ANGLE_UNIT ( ) );
#47 = DIRECTION ( 'NONE',  ( 1.000000000000000222, -1.092455418989176591E-28, 4.890937612370273194E-29 ) ) ;
#48 = CC_DESIGN_SECURITY_CLASSIFICATION ( #11, ( #180 ) ) ;
#49 = LOCAL_TIME ( 18, 50, 0.000000000000000000, #92 ) ;
#50 =( LENGTH_UNIT ( ) NAMED_UNIT ( * ) SI_UNIT ( .MILLI., .METRE. ) );
#51 = UNCERTAINTY_MEASURE_WITH_UNIT (LENGTH_MEASURE( 1.000000000000000082E-05 ), #81, 'distance_accuracy_value', 'NONE');
#52 = PROPERTY_DEFINITION_REPRESENTATION ( #232, #194 ) ;
#53 = SECURITY_CLASSIFICATION ( '', '', #88 ) ;
#54 = CALENDAR_DATE ( 2026, 22, 6 ) ;
#55 = CONTEXT_DEPENDENT_SHAPE_REPRESENTATION ( #342, #97 ) ;
#56 = APPROVAL ( #355, 'Coincident' ) ;
#57 = PERSON_AND_ORGANIZATION ( #18446744073709551615, #18446744073709551615 ) ;
#58 = ITEM_DEFINED_TRANSFORMATION ( 'NONE', 'NONE', #288,  #221 ) ;
#59 = APPROVAL_DATE_TIME ( #152, #56 ) ;
#60 = CALENDAR_DATE ( 2026, 22, 6 ) ;
#61 = AXIS2_PLACEMENT_3D ( 'NONE', #262, #377, #47 ) ;
#62 = PROPERTY_DEFINITION ('external definition','', #151 ) ;
#63 = APPROVAL_PERSON_ORGANIZATION ( #383, #114, #327 ) ;
#64 = CC_DESIGN_DATE_AND_TIME_ASSIGNMENT ( #320, #319, ( #80 ) ) ;
#65 = DATE_AND_TIME ( #60, #123 ) ;
#66 = PERSON ( 'NAUO-PER295', 'UNSPECIFIED', 'UNSPECIFIED', ('UNSPECIFIED'), ('UNSPECIFIED'), ('UNSPECIFIED') ) ;
#67 = ROLE_ASSOCIATION ( #15, #183 ) ;
#68 = COORDINATED_UNIVERSAL_TIME_OFFSET ( 10, 0, .AHEAD. ) ;
#69 = CALENDAR_DATE ( 2026, 22, 6 ) ;
#70 = ORGANIZATION ( 'NAUO-ORG294', 'UNSPECIFIED', 'UNSPECIFIED' ) ;
#71 = PERSON ( 'NAUO-PER294', 'UNSPECIFIED', 'UNSPECIFIED', ('UNSPECIFIED'), ('UNSPECIFIED'), ('UNSPECIFIED') ) ;
#72 = PERSON_AND_ORGANIZATION ( #18446744073709551615, #18446744073709551615 ) ;
#73 = APPLICATION_PROTOCOL_DEFINITION ( 'international standard', 'config_control_design', 1994, #259 ) ;
#74 = PERSON_AND_ORGANIZATION ( #18446744073709551615, #18446744073709551615 ) ;
#75 = LOCAL_TIME ( 18, 50, 0.000000000000000000, #303 ) ;
#76 = AXIS2_PLACEMENT_3D ( 'NONE', #237, #381, #84 ) ;
#77 = LOCAL_TIME ( 18, 50, 0.000000000000000000, #200 ) ;
#78 = CC_DESIGN_DATE_AND_TIME_ASSIGNMENT ( #252, #369, ( #191 ) ) ;
#79 = CALENDAR_DATE ( 2026, 22, 6 ) ;
#80 = SECURITY_CLASSIFICATION ( '', '', #193 ) ;
#81 =( LENGTH_UNIT ( ) NAMED_UNIT ( * ) SI_UNIT ( .MILLI., .METRE. ) );
#82 = APPROVAL_STATUS ( 'not_yet_approved' ) ;
#83 = ROLE_ASSOCIATION ( #42, #143 ) ;
#84 = DIRECTION ( 'NONE',  ( 1.000000000000000222, -1.092455418989176591E-28, 4.890937612370273194E-29 ) ) ;
#85 = SECURITY_CLASSIFICATION_LEVEL ( 'unclassified' ) ;
#86 = APPROVAL_PERSON_ORGANIZATION ( #72, #371, #253 ) ;
#87 = APPROVAL_ROLE ( '' ) ;
#88 = SECURITY_CLASSIFICATION_LEVEL ( 'unclassified' ) ;
#89 = CALENDAR_DATE ( 2026, 22, 6 ) ;
#90 = DOCUMENT_TYPE ( 'geometry' ) ;
#91 = CC_DESIGN_PERSON_AND_ORGANIZATION_ASSIGNMENT ( #359, #184, ( #180 ) ) ;
#92 = COORDINATED_UNIVERSAL_TIME_OFFSET ( 10, 0, .AHEAD. ) ;
#93 = DATE_AND_TIME ( #243, #134 ) ;
#94 = APPROVAL_PERSON_ORGANIZATION ( #307, #201, #344 ) ;
#95 = ORGANIZATION ( 'NAUO-ORG293', 'UNSPECIFIED', 'UNSPECIFIED' ) ;
#96 = PERSON_AND_ORGANIZATION_ROLE ( 'creator' ) ;
#97 = PRODUCT_DEFINITION_SHAPE ( 'NONE', 'NONE',  #389 ) ;
#98 = APPROVAL_DATE_TIME ( #368, #201 ) ;
#99 = CALENDAR_DATE ( 2026, 22, 6 ) ;
#100 = CC_DESIGN_SECURITY_CLASSIFICATION ( #284, ( #254 ) ) ;
#101 = DATE_AND_TIME ( #372, #370 ) ;
#102 = APPROVAL_DATE_TIME ( #101, #371 ) ;
#103 = DATE_AND_TIME ( #79, #156 ) ;
#104 =( GEOMETRIC_REPRESENTATION_CONTEXT ( 3 ) GLOBAL_UNCERTAINTY_ASSIGNED_CONTEXT ( ( #51 ) ) GLOBAL_UNIT_ASSIGNED_CONTEXT ( ( #81, #291, #122 ) ) REPRESENTATION_CONTEXT ( 'NONE', 'WORKASPACE' ) );
#105 = APPLIED_EXTERNAL_IDENTIFICATION_ASSIGNMENT ( '6461081856.step.STEP' , #349, #30,( #24) ) ;
#106 = CARTESIAN_POINT ( 'NONE',  ( 0.000000000000000000, 0.000000000000000000, 0.000000000000000000 ) ) ;
#107 = CC_DESIGN_DATE_AND_TIME_ASSIGNMENT ( #157, #154, ( #251 ) ) ;
#108 = CC_DESIGN_PERSON_AND_ORGANIZATION_ASSIGNMENT ( #383, #353, ( #313 ) ) ;
#109 =( NAMED_UNIT ( * ) PLANE_ANGLE_UNIT ( ) SI_UNIT ( $, .RADIAN. ) );
#110 = DATE_AND_TIME ( #378, #77 ) ;
#111 = PROPERTY_DEFINITION ('external definition','', #24 ) ;
#112 = CALENDAR_DATE ( 2026, 22, 6 ) ;
#113 = DATE_TIME_ROLE ( 'classification_date' ) ;
#114 = APPROVAL ( #292, 'UNKNOWN' ) ;
#115 = CC_DESIGN_APPROVAL ( #244, ( #130 ) ) ;
#116 = APPROVAL_STATUS ( 'not_yet_approved' ) ;
#117 = CC_DESIGN_PERSON_AND_ORGANIZATION_ASSIGNMENT ( #250, #338, ( #284 ) ) ;
#118 = APPLICATION_PROTOCOL_DEFINITION ( 'international standard', 'config_control_design', 1994, #128 ) ;
#119 = PRODUCT ( '6461081616.step', '6461081616.step', '', ( #36 ) ) ;
#120 = MECHANICAL_CONTEXT ( 'NONE', #128, 'mechanical' ) ;
#121 = UNCERTAINTY_MEASURE_WITH_UNIT (LENGTH_MEASURE( 1.000000000000000082E-05 ), #50, 'distance_accuracy_value', 'NONE');
#122 =( NAMED_UNIT ( * ) SI_UNIT ( $, .STERADIAN. ) SOLID_ANGLE_UNIT ( ) );
#123 = LOCAL_TIME ( 18, 50, 0.000000000000000000, #365 ) ;
#124 = CC_DESIGN_SECURITY_CLASSIFICATION ( #53, ( #390 ) ) ;
#125 = DATE_AND_TIME ( #69, #188 ) ;
#126 = CC_DESIGN_PERSON_AND_ORGANIZATION_ASSIGNMENT ( #257, #190, ( #251 ) ) ;
#127 = COORDINATED_UNIVERSAL_TIME_OFFSET ( 10, 0, .AHEAD. ) ;
#128 = APPLICATION_CONTEXT ( 'configuration controlled 3d designs of mechanical parts and assemblies' ) ;
#129 = COORDINATED_UNIVERSAL_TIME_OFFSET ( 10, 0, .AHEAD. ) ;
#130 = SECURITY_CLASSIFICATION ( '', '', #29 ) ;
#131 = CC_DESIGN_PERSON_AND_ORGANIZATION_ASSIGNMENT ( #311, #45, ( #80 ) ) ;
#132 = SECURITY_CLASSIFICATION_LEVEL ( 'unclassified' ) ;
#133 = PERSON_AND_ORGANIZATION ( #18446744073709551615, #18446744073709551615 ) ;
#134 = LOCAL_TIME ( 18, 50, 0.000000000000000000, #182 ) ;
#135 = CC_DESIGN_PERSON_AND_ORGANIZATION_ASSIGNMENT ( #373, #343, ( #254 ) ) ;
#136 = PERSON_AND_ORGANIZATION ( #18446744073709551615, #18446744073709551615 ) ;
#137 = CONTEXT_DEPENDENT_SHAPE_REPRESENTATION ( #305, #337 ) ;
#138 = CALENDAR_DATE ( 2026, 22, 6 ) ;
#139 = PRODUCT_DEFINITION_SHAPE ( 'NONE', 'NONE',  #28 ) ;
#140 = LOCAL_TIME ( 18, 50, 0.000000000000000000, #210 ) ;
#141 = DIRECTION ( 'NONE',  ( 4.890937612370273194E-29, -3.155443620884047222E-30, 0.9999999999999997780 ) ) ;
#142 = OBJECT_ROLE ('mandatory',$ ) ;
#143 = APPLIED_DOCUMENT_REFERENCE ( #151,'',( #251) ) ;
#144 = DATE_TIME_ROLE ( 'classification_date' ) ;
#145 = PRODUCT_DEFINITION_SHAPE ( 'NONE', 'NONE',  #251 ) ;
#146 = PROPERTY_DEFINITION_REPRESENTATION ( #267, #297 ) ;
#147 = PERSON_AND_ORGANIZATION ( #18446744073709551615, #18446744073709551615 ) ;
#148 = CC_DESIGN_PERSON_AND_ORGANIZATION_ASSIGNMENT ( #219, #8, ( #264 ) ) ;
#149 = PERSON_AND_ORGANIZATION ( #212, #95 ) ;
#150 = CC_DESIGN_APPROVAL ( #258, ( #11 ) ) ;
#151 = DOCUMENT_FILE ( '6461081616.step.STEP' , '', '', #280, '' ,$ ) ;
#152 = DATE_AND_TIME ( #54, #246 ) ;
#153 = PROPERTY_DEFINITION_REPRESENTATION ( #384, #297 ) ;
#154 = DATE_TIME_ROLE ( 'creation_date' ) ;
#155 = PRODUCT_RELATED_PRODUCT_CATEGORY ( 'detail', '', ( #172 ) ) ;
#156 = LOCAL_TIME ( 18, 50, 0.000000000000000000, #374 ) ;
#157 = DATE_AND_TIME ( #38, #199 ) ;
#158 = PERSON_AND_ORGANIZATION ( #18446744073709551615, #18446744073709551615 ) ;
#159 = PRODUCT_RELATED_PRODUCT_CATEGORY ( 'detail', '', ( #5 ) ) ;
#160 = APPROVAL_ROLE ( '' ) ;
#161 = CC_DESIGN_APPROVAL ( #56, ( #180 ) ) ;
#162 = APPROVAL_ROLE ( '' ) ;
#163 = APPLICATION_PROTOCOL_DEFINITION ( 'international standard', 'config_control_design', 1994, #9 ) ;
#164 = APPROVAL_PERSON_ORGANIZATION ( #3, #258, #87 ) ;
#165 = CC_DESIGN_SECURITY_CLASSIFICATION ( #313, ( #389 ) ) ;
#166 = IDENTIFICATION_ROLE ( 'external document id and location', $) ;
#167 = DATE_AND_TIME ( #138, #341 ) ;
#168 = DATE_AND_TIME ( #263, #173 ) ;
#169 = CC_DESIGN_PERSON_AND_ORGANIZATION_ASSIGNMENT ( #273, #275, ( #180 ) ) ;
#170 =( NAMED_UNIT ( * ) SI_UNIT ( $, .STERADIAN. ) SOLID_ANGLE_UNIT ( ) );
#171 = SHAPE_DEFINITION_REPRESENTATION ( #145, #194 ) ;
#172 = PRODUCT ( 'C3.step', 'C3.step', '', ( #19 ) ) ;
#173 = LOCAL_TIME ( 18, 50, 0.000000000000000000, #350 ) ;
#174 = PERSON_AND_ORGANIZATION ( #18446744073709551615, #18446744073709551615 ) ;
#175 = ROLE_ASSOCIATION ( #142, #228 ) ;
#176 = CC_DESIGN_DATE_AND_TIME_ASSIGNMENT ( #6, #185, ( #284 ) ) ;
#177 = APPROVAL_STATUS ( 'not_yet_approved' ) ;
#178 = APPROVAL_STATUS ( 'not_yet_approved' ) ;
#179 = APPROVAL_DATE_TIME ( #271, #242 ) ;
#180 = PRODUCT_DEFINITION_FORMATION_WITH_SPECIFIED_SOURCE ( 'Symmetric', '', #172, .NOT_KNOWN. ) ;
#181 = ORGANIZATION ( 'NAUO-ORG295', 'UNSPECIFIED', 'UNSPECIFIED' ) ;
#182 = COORDINATED_UNIVERSAL_TIME_OFFSET ( 10, 0, .AHEAD. ) ;
#183 = APPLIED_DOCUMENT_REFERENCE ( #24,'',( #191) ) ;
#184 = PERSON_AND_ORGANIZATION_ROLE ( 'creator' ) ;
#185 = DATE_TIME_ROLE ( 'classification_date' ) ;
#186 = CC_DESIGN_DATE_AND_TIME_ASSIGNMENT ( #110, #245, ( #53 ) ) ;
#187 = APPLICATION_PROTOCOL_DEFINITION ( 'international standard', 'config_control_design', 1994, #255 ) ;
#188 = LOCAL_TIME ( 18, 50, 0.000000000000000000, #309 ) ;
#189 = LOCAL_TIME ( 18, 50, 0.000000000000000000, #382 ) ;
#190 = PERSON_AND_ORGANIZATION_ROLE ( 'creator' ) ;
#191 = PRODUCT_DEFINITION ( 'General', '', #254, #363 ) ;
#192 = APPROVAL_STATUS ( 'not_yet_approved' ) ;
#193 = SECURITY_CLASSIFICATION_LEVEL ( 'unclassified' ) ;
#194 = SHAPE_REPRESENTATION ( '6461081616.step', ( #221 ), #375 ) ;
#195 = AXIS2_PLACEMENT_3D ( 'NONE', #235, #318, #231 ) ;
#196 = APPLIED_EXTERNAL_IDENTIFICATION_ASSIGNMENT ( '6461081856.step.STEP' , #360, #229,( #234) ) ;
#197 = CC_DESIGN_PERSON_AND_ORGANIZATION_ASSIGNMENT ( #283, #13, ( #119 ) ) ;
#198 = CC_DESIGN_PERSON_AND_ORGANIZATION_ASSIGNMENT ( #149, #351, ( #130 ) ) ;
#199 = LOCAL_TIME ( 18, 50, 0.000000000000000000, #68 ) ;
#200 = COORDINATED_UNIVERSAL_TIME_OFFSET ( 10, 0, .AHEAD. ) ;
#201 = APPROVAL ( #278, 'Coincident' ) ;
#202 = ITEM_DEFINED_TRANSFORMATION ( 'NONE', 'NONE', #76,  #195 ) ;
#203 = PROPERTY_DEFINITION ('external definition','', #234 ) ;
#204 = DIRECTION ( 'NONE',  ( 0.000000000000000000, 0.000000000000000000, 1.000000000000000000 ) ) ;
#205 = PROPERTY_DEFINITION_REPRESENTATION ( #62, #194 ) ;
#206 = COORDINATED_UNIVERSAL_TIME_OFFSET ( 10, 0, .AHEAD. ) ;
#207 = APPROVAL_DATE_TIME ( #103, #244 ) ;
#208 = CC_DESIGN_APPROVAL ( #274, ( #191 ) ) ;
#209 = COORDINATED_UNIVERSAL_TIME_OFFSET ( 10, 0, .AHEAD. ) ;
#210 = COORDINATED_UNIVERSAL_TIME_OFFSET ( 10, 0, .AHEAD. ) ;
#211 = PERSON_AND_ORGANIZATION ( #18446744073709551615, #18446744073709551615 ) ;
#212 = PERSON ( 'NAUO-PER293', 'UNSPECIFIED', 'UNSPECIFIED', ('UNSPECIFIED'), ('UNSPECIFIED'), ('UNSPECIFIED') ) ;
#213 = DIRECTION ( 'NONE',  ( 1.000000000000000000, 0.000000000000000000, 0.000000000000000000 ) ) ;
#214 = CONTEXT_DEPENDENT_SHAPE_REPRESENTATION ( #220, #330 ) ;
#215 = CC_DESIGN_APPROVAL ( #371, ( #251 ) ) ;
#216 = APPROVAL_DATE_TIME ( #93, #274 ) ;
#217 = CALENDAR_DATE ( 2026, 22, 6 ) ;
#218 = PRODUCT_DEFINITION_SHAPE ( 'NONE', 'NONE',  #191 ) ;
#219 = PERSON_AND_ORGANIZATION ( #18446744073709551615, #18446744073709551615 ) ;
#220 =( REPRESENTATION_RELATIONSHIP ('NONE','NONE', #16, #297 ) REPRESENTATION_RELATIONSHIP_WITH_TRANSFORMATION ( #376 )SHAPE_REPRESENTATION_RELATIONSHIP( ) );
#221 = AXIS2_PLACEMENT_3D ( 'NONE', #106, #204, #352 ) ;
#222 = CC_DESIGN_DATE_AND_TIME_ASSIGNMENT ( #239, #144, ( #11 ) ) ;
#223 = PERSON_AND_ORGANIZATION ( #18446744073709551615, #18446744073709551615 ) ;
#224 = APPROVAL_PERSON_ORGANIZATION ( #35, #56, #27 ) ;
#225 = PERSON_AND_ORGANIZATION ( #18446744073709551615, #18446744073709551615 ) ;
#226 = CALENDAR_DATE ( 2026, 22, 6 ) ;
#227 = CC_DESIGN_APPROVAL ( #358, ( #284 ) ) ;
#228 = APPLIED_DOCUMENT_REFERENCE ( #234,'',( #191) ) ;
#229 = EXTERNAL_SOURCE (IDENTIFIER('') ) ;
#230 = CC_DESIGN_PERSON_AND_ORGANIZATION_ASSIGNMENT ( #158, #346, ( #264 ) ) ;
#231 = DIRECTION ( 'NONE',  ( 1.000000000000000000, 0.000000000000000000, 0.000000000000000000 ) ) ;
#232 = PROPERTY_DEFINITION ('document property','', #151 ) ;
#233 = APPROVAL_PERSON_ORGANIZATION ( #225, #281, #162 ) ;
#234 = DOCUMENT_FILE ( '6461081856.step.STEP' , '', '', #2, '' ,$ ) ;
#235 = CARTESIAN_POINT ( 'NONE',  ( 0.000000000000000000, 0.000000000000000000, 0.000000000000000000 ) ) ;
#236 = DATE_AND_TIME ( #112, #189 ) ;
#237 = CARTESIAN_POINT ( 'NONE',  ( 8.130864196748001760, 13.46871594238300318, -2.458323717116999596 ) ) ;
#238 = PERSON_AND_ORGANIZATION ( #18446744073709551615, #18446744073709551615 ) ;
#239 = DATE_AND_TIME ( #364, #75 ) ;
#240 = AXIS2_PLACEMENT_3D ( 'NONE', #314, #248, #213 ) ;
#241 = APPROVAL_DATE_TIME ( #331, #323 ) ;
#242 = APPROVAL ( #329, 'UNKNOWN' ) ;
#243 = CALENDAR_DATE ( 2026, 22, 6 ) ;
#244 = APPROVAL ( #177, 'UNKNOWN' ) ;
#245 = DATE_TIME_ROLE ( 'classification_date' ) ;
#246 = LOCAL_TIME ( 18, 50, 0.000000000000000000, #206 ) ;
#247 = APPROVAL_PERSON_ORGANIZATION ( #149, #244, #269 ) ;
#248 = DIRECTION ( 'NONE',  ( 0.000000000000000000, 0.000000000000000000, 1.000000000000000000 ) ) ;
#249 = DESIGN_CONTEXT ( 'detailed design', #259, 'design' ) ;
#250 = PERSON_AND_ORGANIZATION ( #18446744073709551615, #18446744073709551615 ) ;
#251 = PRODUCT_DEFINITION ( 'General', '', #264, #249 ) ;
#252 = DATE_AND_TIME ( #10, #317 ) ;
#253 = APPROVAL_ROLE ( '' ) ;
#254 = PRODUCT_DEFINITION_FORMATION_WITH_SPECIFIED_SOURCE ( 'Symmetric', '', #5, .NOT_KNOWN. ) ;
#255 = APPLICATION_CONTEXT ( 'configuration controlled 3d designs of mechanical parts and assemblies' ) ;
#256 = APPROVAL_STATUS ( 'not_yet_approved' ) ;
#257 = PERSON_AND_ORGANIZATION ( #18446744073709551615, #18446744073709551615 ) ;
#258 = APPROVAL ( #31, 'Coincident' ) ;
#259 = APPLICATION_CONTEXT ( 'configuration controlled 3d designs of mechanical parts and assemblies' ) ;
#260 =( LENGTH_UNIT ( ) NAMED_UNIT ( * ) SI_UNIT ( .MILLI., .METRE. ) );
#261 = CC_DESIGN_PERSON_AND_ORGANIZATION_ASSIGNMENT ( #223, #96, ( #254 ) ) ;
#262 = CARTESIAN_POINT ( 'NONE',  ( 8.130864196748001760, 12.01870373535200365, -2.458323717116999596 ) ) ;
#263 = CALENDAR_DATE ( 2026, 22, 6 ) ;
#264 = PRODUCT_DEFINITION_FORMATION_WITH_SPECIFIED_SOURCE ( 'Symmetric', '', #119, .NOT_KNOWN. ) ;
#265 = DIRECTION ( 'NONE',  ( 1.000000000000000222, -1.092455418989176591E-28, 4.890937612370273194E-29 ) ) ;
#266 = APPROVAL_DATE_TIME ( #26, #114 ) ;
#267 = PROPERTY_DEFINITION ('document property','', #234 ) ;
#268 = COORDINATED_UNIVERSAL_TIME_OFFSET ( 10, 0, .AHEAD. ) ;
#269 = APPROVAL_ROLE ( '' ) ;
#270 = PERSON_AND_ORGANIZATION_ROLE ( 'design_owner' ) ;
#271 = DATE_AND_TIME ( #302, #49 ) ;
#272 = LOCAL_TIME ( 18, 50, 0.000000000000000000, #14 ) ;
#273 = PERSON_AND_ORGANIZATION ( #18446744073709551615, #18446744073709551615 ) ;
#274 = APPROVAL ( #178, 'Coincident' ) ;
#275 = PERSON_AND_ORGANIZATION_ROLE ( 'design_supplier' ) ;
#276 = SECURITY_CLASSIFICATION_LEVEL ( 'unclassified' ) ;
#277 = APPLIED_EXTERNAL_IDENTIFICATION_ASSIGNMENT ( '6461081616.step.STEP' , #166, #316,( #151) ) ;
#278 = APPROVAL_STATUS ( 'not_yet_approved' ) ;
#279 = PERSON_AND_ORGANIZATION_ROLE ( 'creator' ) ;
#280 = DOCUMENT_TYPE ( 'geometry' ) ;
#281 = APPROVAL ( #192, 'Coincident' ) ;
#282 = DATE_AND_TIME ( #99, #340 ) ;
#283 = PERSON_AND_ORGANIZATION ( #18446744073709551615, #18446744073709551615 ) ;
#284 = SECURITY_CLASSIFICATION ( '', '', #132 ) ;
#285 = CC_DESIGN_APPROVAL ( #242, ( #53 ) ) ;
#286 = CC_DESIGN_PERSON_AND_ORGANIZATION_ASSIGNMENT ( #335, #385, ( #28 ) ) ;
#287 = APPROVAL_DATE_TIME ( #282, #281 ) ;
#288 = AXIS2_PLACEMENT_3D ( 'NONE', #315, #141, #265 ) ;
#289 = APPROVAL_DATE_TIME ( #167, #379 ) ;
#290 = COORDINATED_UNIVERSAL_TIME_OFFSET ( 10, 0, .AHEAD. ) ;
#291 =( NAMED_UNIT ( * ) PLANE_ANGLE_UNIT ( ) SI_UNIT ( $, .RADIAN. ) );
#292 = APPROVAL_STATUS ( 'not_yet_approved' ) ;
#293 = DESIGN_CONTEXT ( 'detailed design', #295, 'design' ) ;
#294 = APPLICATION_PROTOCOL_DEFINITION ( 'international standard', 'config_control_design', 1994, #308 ) ;
#295 = APPLICATION_CONTEXT ( 'configuration controlled 3d designs of mechanical parts and assemblies' ) ;
#296 = DATE_TIME_ROLE ( 'classification_date' ) ;
#297 = SHAPE_REPRESENTATION ( '6461081856.step', ( #195 ), #334 ) ;
#298 = APPROVAL_ROLE ( '' ) ;
#299 = CC_DESIGN_PERSON_AND_ORGANIZATION_ASSIGNMENT ( #174, #25, ( #11 ) ) ;
#300 = CC_DESIGN_SECURITY_CLASSIFICATION ( #80, ( #264 ) ) ;
#301 = APPROVAL_ROLE ( '' ) ;
#302 = CALENDAR_DATE ( 2026, 22, 6 ) ;
#303 = COORDINATED_UNIVERSAL_TIME_OFFSET ( 10, 0, .AHEAD. ) ;
#304 = COORDINATED_UNIVERSAL_TIME_OFFSET ( 10, 0, .AHEAD. ) ;
#305 =( REPRESENTATION_RELATIONSHIP ('NONE','NONE', #16, #194 ) REPRESENTATION_RELATIONSHIP_WITH_TRANSFORMATION ( #58 )SHAPE_REPRESENTATION_RELATIONSHIP( ) );
#306 = APPROVAL_DATE_TIME ( #125, #358 ) ;
#307 = PERSON_AND_ORGANIZATION ( #18446744073709551615, #18446744073709551615 ) ;
#308 = APPLICATION_CONTEXT ( 'configuration controlled 3d designs of mechanical parts and assemblies' ) ;
#309 = COORDINATED_UNIVERSAL_TIME_OFFSET ( 10, 0, .AHEAD. ) ;
#310 = PRODUCT_RELATED_PRODUCT_CATEGORY ( 'detail', '', ( #119 ) ) ;
#311 = PERSON_AND_ORGANIZATION ( #18446744073709551615, #18446744073709551615 ) ;
#312 = LOCAL_TIME ( 18, 50, 0.000000000000000000, #129 ) ;
#313 = SECURITY_CLASSIFICATION ( '', '', #85 ) ;
#314 = CARTESIAN_POINT ( 'NONE',  ( 0.000000000000000000, 0.000000000000000000, 0.000000000000000000 ) ) ;
#315 = CARTESIAN_POINT ( 'NONE',  ( 8.130864196748001760, 12.74370983886700337, -2.458323717116999596 ) ) ;
#316 = EXTERNAL_SOURCE (IDENTIFIER('') ) ;
#317 = LOCAL_TIME ( 18, 50, 0.000000000000000000, #127 ) ;
#318 = DIRECTION ( 'NONE',  ( 0.000000000000000000, 0.000000000000000000, 1.000000000000000000 ) ) ;
#319 = DATE_TIME_ROLE ( 'classification_date' ) ;
#320 = DATE_AND_TIME ( #20, #140 ) ;
#321 =( NAMED_UNIT ( * ) PLANE_ANGLE_UNIT ( ) SI_UNIT ( $, .RADIAN. ) );
#322 = CALENDAR_DATE ( 2026, 22, 6 ) ;
#323 = APPROVAL ( #116, 'Coincident' ) ;
#324 = APPLICATION_PROTOCOL_DEFINITION ( 'international standard', 'config_control_design', 1994, #295 ) ;
#325 = CC_DESIGN_APPROVAL ( #323, ( #28 ) ) ;
#326 = CC_DESIGN_APPROVAL ( #114, ( #313 ) ) ;
#327 = APPROVAL_ROLE ( '' ) ;
#328 = SHAPE_DEFINITION_REPRESENTATION ( #139, #16 ) ;
#329 = APPROVAL_STATUS ( 'not_yet_approved' ) ;
#330 = PRODUCT_DEFINITION_SHAPE ( 'NONE', 'NONE',  #390 ) ;
#331 = DATE_AND_TIME ( #33, #4 ) ;
#332 = DATE_AND_TIME ( #89, #356 ) ;
#333 = CC_DESIGN_DATE_AND_TIME_ASSIGNMENT ( #236, #296, ( #130 ) ) ;
#334 =( GEOMETRIC_REPRESENTATION_CONTEXT ( 3 ) GLOBAL_UNCERTAINTY_ASSIGNED_CONTEXT ( ( #354 ) ) GLOBAL_UNIT_ASSIGNED_CONTEXT ( ( #260, #321, #170 ) ) REPRESENTATION_CONTEXT ( 'NONE', 'WORKASPACE' ) );
#335 = PERSON_AND_ORGANIZATION ( #18446744073709551615, #18446744073709551615 ) ;
#336 = COORDINATED_UNIVERSAL_TIME_OFFSET ( 10, 0, .AHEAD. ) ;
#337 = PRODUCT_DEFINITION_SHAPE ( 'NONE', 'NONE',  #388 ) ;
#338 = PERSON_AND_ORGANIZATION_ROLE ( 'classification_officer' ) ;
#339 = PERSON_AND_ORGANIZATION_ROLE ( 'classification_officer' ) ;
#340 = LOCAL_TIME ( 18, 50, 0.000000000000000000, #304 ) ;
#341 = LOCAL_TIME ( 18, 50, 0.000000000000000000, #290 ) ;
#342 =( REPRESENTATION_RELATIONSHIP ('NONE','NONE', #16, #297 ) REPRESENTATION_RELATIONSHIP_WITH_TRANSFORMATION ( #202 )SHAPE_REPRESENTATION_RELATIONSHIP( ) );
#343 = PERSON_AND_ORGANIZATION_ROLE ( 'design_supplier' ) ;
#344 = APPROVAL_ROLE ( '' ) ;
#345 = CC_DESIGN_PERSON_AND_ORGANIZATION_ASSIGNMENT ( #74, #279, ( #191 ) ) ;
#346 = PERSON_AND_ORGANIZATION_ROLE ( 'design_supplier' ) ;
#347 = COORDINATED_UNIVERSAL_TIME_OFFSET ( 10, 0, .AHEAD. ) ;
#348 = CC_DESIGN_SECURITY_CLASSIFICATION ( #130, ( #388 ) ) ;
#349 = IDENTIFICATION_ROLE ( 'external document id and location', $) ;
#350 = COORDINATED_UNIVERSAL_TIME_OFFSET ( 10, 0, .AHEAD. ) ;
#351 = PERSON_AND_ORGANIZATION_ROLE ( 'classification_officer' ) ;
#352 = DIRECTION ( 'NONE',  ( 1.000000000000000000, 0.000000000000000000, 0.000000000000000000 ) ) ;
#353 = PERSON_AND_ORGANIZATION_ROLE ( 'classification_officer' ) ;
#354 = UNCERTAINTY_MEASURE_WITH_UNIT (LENGTH_MEASURE( 1.000000000000000082E-05 ), #260, 'distance_accuracy_value', 'NONE');
#355 = APPROVAL_STATUS ( 'not_yet_approved' ) ;
#356 = LOCAL_TIME ( 18, 50, 0.000000000000000000, #209 ) ;
#357 = PROPERTY_DEFINITION_REPRESENTATION ( #203, #297 ) ;
#358 = APPROVAL ( #40, 'Coincident' ) ;
#359 = PERSON_AND_ORGANIZATION ( #18446744073709551615, #18446744073709551615 ) ;
#360 = IDENTIFICATION_ROLE ( 'external document id and location', $) ;
#361 = APPROVAL_ROLE ( '' ) ;
#362 = CC_DESIGN_PERSON_AND_ORGANIZATION_ASSIGNMENT ( #7, #339, ( #53 ) ) ;
#363 = DESIGN_CONTEXT ( 'detailed design', #308, 'design' ) ;
#364 = CALENDAR_DATE ( 2026, 22, 6 ) ;
#365 = COORDINATED_UNIVERSAL_TIME_OFFSET ( 10, 0, .AHEAD. ) ;
#366 = APPROVAL_PERSON_ORGANIZATION ( #238, #379, #22 ) ;
#367 = PERSON_AND_ORGANIZATION_ROLE ( 'design_owner' ) ;
#368 = DATE_AND_TIME ( #226, #312 ) ;
#369 = DATE_TIME_ROLE ( 'creation_date' ) ;
#370 = LOCAL_TIME ( 18, 50, 0.000000000000000000, #336 ) ;
#371 = APPROVAL ( #256, 'Coincident' ) ;
#372 = CALENDAR_DATE ( 2026, 22, 6 ) ;
#373 = PERSON_AND_ORGANIZATION ( #18446744073709551615, #18446744073709551615 ) ;
#374 = COORDINATED_UNIVERSAL_TIME_OFFSET ( 10, 0, .AHEAD. ) ;
#375 =( GEOMETRIC_REPRESENTATION_CONTEXT ( 3 ) GLOBAL_UNCERTAINTY_ASSIGNED_CONTEXT ( ( #121 ) ) GLOBAL_UNIT_ASSIGNED_CONTEXT ( ( #50, #109, #46 ) ) REPRESENTATION_CONTEXT ( 'NONE', 'WORKASPACE' ) );
#376 = ITEM_DEFINED_TRANSFORMATION ( 'NONE', 'NONE', #61,  #195 ) ;
#377 = DIRECTION ( 'NONE',  ( 4.890937612370273194E-29, -3.155443620884047222E-30, 0.9999999999999997780 ) ) ;
#378 = CALENDAR_DATE ( 2026, 22, 6 ) ;
#379 = APPROVAL ( #82, 'Coincident' ) ;
#380 = APPROVAL_PERSON_ORGANIZATION ( #133, #358, #160 ) ;
#381 = DIRECTION ( 'NONE',  ( 4.890937612370273194E-29, -3.155443620884047222E-30, 0.9999999999999997780 ) ) ;
#382 = COORDINATED_UNIVERSAL_TIME_OFFSET ( 10, 0, .AHEAD. ) ;
#383 = PERSON_AND_ORGANIZATION ( #71, #70 ) ;
#384 = PROPERTY_DEFINITION ('document property','', #24 ) ;
#385 = PERSON_AND_ORGANIZATION_ROLE ( 'creator' ) ;
#386 = CC_DESIGN_PERSON_AND_ORGANIZATION_ASSIGNMENT ( #136, #367, ( #172 ) ) ;
#387 = DATE_TIME_ROLE ( 'creation_date' ) ;
#388 = NEXT_ASSEMBLY_USAGE_OCCURRENCE ( 'NAUO293', ' ', ' ', #28, #251, $ ) ;
#389 = NEXT_ASSEMBLY_USAGE_OCCURRENCE ( 'NAUO294', ' ', ' ', #28, #191, $ ) ;
#390 = NEXT_ASSEMBLY_USAGE_OCCURRENCE ( 'NAUO295', ' ', ' ', #28, #191, $ ) ;
ENDSEC;
END-ISO-10303-21;
