ISO-10303-21;
HEADER;
FILE_DESCRIPTION (( 'STEP AP203' ),
    '1' );
FILE_NAME ('C30.step.STEP',
    '2026-06-22T08:49:58',
    ( 'localuser' ),
    ( '' ),
    'SwSTEP 2.0',
    'SolidWorks 2025',
    '' );
FILE_SCHEMA (( 'CONFIG_CONTROL_DESIGN' ));
ENDSEC;

DATA;
#1 = DATE_AND_TIME ( #244, #364 ) ;
#2 = CC_DESIGN_PERSON_AND_ORGANIZATION_ASSIGNMENT ( #357, #220, ( #35 ) ) ;
#3 = PERSON_AND_ORGANIZATION_ROLE ( 'design_supplier' ) ;
#4 = APPROVAL_ROLE ( '' ) ;
#5 = ORGANIZATION ( 'NAUO-ORG226', 'UNSPECIFIED', 'UNSPECIFIED' ) ;
#6 = CALENDAR_DATE ( 2026, 22, 6 ) ;
#7 = CALENDAR_DATE ( 2026, 22, 6 ) ;
#8 = PERSON_AND_ORGANIZATION ( #18446744073709551615, #18446744073709551615 ) ;
#9 =( NAMED_UNIT ( * ) SI_UNIT ( $, .STERADIAN. ) SOLID_ANGLE_UNIT ( ) );
#10 = LOCAL_TIME ( 18, 49, 58.00000000000000000, #354 ) ;
#11 = CC_DESIGN_APPROVAL ( #38, ( #224 ) ) ;
#12 = CC_DESIGN_PERSON_AND_ORGANIZATION_ASSIGNMENT ( #288, #200, ( #234 ) ) ;
#13 = CALENDAR_DATE ( 2026, 22, 6 ) ;
#14 =( NAMED_UNIT ( * ) SI_UNIT ( $, .STERADIAN. ) SOLID_ANGLE_UNIT ( ) );
#15 = APPROVAL_DATE_TIME ( #309, #331 ) ;
#16 = APPROVAL ( #151, 'Coincident' ) ;
#17 = CARTESIAN_POINT ( 'NONE',  ( 0.000000000000000000, 0.000000000000000000, 0.000000000000000000 ) ) ;
#18 = APPROVAL_STATUS ( 'not_yet_approved' ) ;
#19 = CC_DESIGN_APPROVAL ( #68, ( #296 ) ) ;
#20 = APPROVAL_STATUS ( 'not_yet_approved' ) ;
#21 = MECHANICAL_CONTEXT ( 'NONE', #318, 'mechanical' ) ;
#22 = APPLICATION_CONTEXT ( 'configuration controlled 3d designs of mechanical parts and assemblies' ) ;
#23 = CC_DESIGN_PERSON_AND_ORGANIZATION_ASSIGNMENT ( #249, #217, ( #259 ) ) ;
#24 = DATE_AND_TIME ( #376, #147 ) ;
#25 = DIRECTION ( 'NONE',  ( 4.890937612370273194E-29, -3.155443620884047222E-30, 0.9999999999999997780 ) ) ;
#26 = PERSON_AND_ORGANIZATION_ROLE ( 'classification_officer' ) ;
#27 = SECURITY_CLASSIFICATION ( '', '', #228 ) ;
#28 = PERSON_AND_ORGANIZATION_ROLE ( 'creator' ) ;
#29 = COORDINATED_UNIVERSAL_TIME_OFFSET ( 10, 0, .AHEAD. ) ;
#30 = CC_DESIGN_DATE_AND_TIME_ASSIGNMENT ( #298, #386, ( #273 ) ) ;
#31 = SHAPE_DEFINITION_REPRESENTATION ( #117, #101 ) ;
#32 = AXIS2_PLACEMENT_3D ( 'NONE', #119, #237, #141 ) ;
#33 = APPROVAL_DATE_TIME ( #247, #16 ) ;
#34 = CC_DESIGN_APPROVAL ( #134, ( #113 ) ) ;
#35 = PRODUCT_DEFINITION_FORMATION_WITH_SPECIFIED_SOURCE ( 'Symmetric', '', #171, .NOT_KNOWN. ) ;
#36 = CC_DESIGN_PERSON_AND_ORGANIZATION_ASSIGNMENT ( #163, #165, ( #296 ) ) ;
#37 = APPROVAL_STATUS ( 'not_yet_approved' ) ;
#38 = APPROVAL ( #201, 'Coincident' ) ;
#39 = DATE_AND_TIME ( #150, #71 ) ;
#40 = DATE_AND_TIME ( #13, #195 ) ;
#41 = CC_DESIGN_PERSON_AND_ORGANIZATION_ASSIGNMENT ( #340, #252, ( #358 ) ) ;
#42 = DIRECTION ( 'NONE',  ( 0.000000000000000000, 0.000000000000000000, 1.000000000000000000 ) ) ;
#43 = LOCAL_TIME ( 18, 49, 58.00000000000000000, #67 ) ;
#44 = COORDINATED_UNIVERSAL_TIME_OFFSET ( 10, 0, .AHEAD. ) ;
#45 = SHAPE_REPRESENTATION ( '6534431024.step', ( #69 ), #369 ) ;
#46 = DOCUMENT_TYPE ( 'geometry' ) ;
#47 = APPROVAL_DATE_TIME ( #341, #68 ) ;
#48 = DIRECTION ( 'NONE',  ( 4.890937612370273194E-29, -3.155443620884047222E-30, 0.9999999999999997780 ) ) ;
#49 = CC_DESIGN_APPROVAL ( #114, ( #27 ) ) ;
#50 = CC_DESIGN_PERSON_AND_ORGANIZATION_ASSIGNMENT ( #99, #323, ( #273 ) ) ;
#51 = ROLE_ASSOCIATION ( #85, #138 ) ;
#52 = DATE_AND_TIME ( #93, #137 ) ;
#53 = PROPERTY_DEFINITION ('document property','', #258 ) ;
#54 = COORDINATED_UNIVERSAL_TIME_OFFSET ( 10, 0, .AHEAD. ) ;
#55 = PRODUCT_DEFINITION_SHAPE ( 'NONE', 'NONE',  #388 ) ;
#56 = CALENDAR_DATE ( 2026, 22, 6 ) ;
#57 = COORDINATED_UNIVERSAL_TIME_OFFSET ( 10, 0, .AHEAD. ) ;
#58 = CALENDAR_DATE ( 2026, 22, 6 ) ;
#59 = APPROVAL ( #18, 'Coincident' ) ;
#60 = CALENDAR_DATE ( 2026, 22, 6 ) ;
#61 = CC_DESIGN_PERSON_AND_ORGANIZATION_ASSIGNMENT ( #368, #250, ( #243 ) ) ;
#62 = LOCAL_TIME ( 18, 49, 58.00000000000000000, #77 ) ;
#63 = COORDINATED_UNIVERSAL_TIME_OFFSET ( 10, 0, .AHEAD. ) ;
#64 = CALENDAR_DATE ( 2026, 22, 6 ) ;
#65 = DOCUMENT_TYPE ( 'geometry' ) ;
#66 = UNCERTAINTY_MEASURE_WITH_UNIT (LENGTH_MEASURE( 1.000000000000000082E-05 ), #178, 'distance_accuracy_value', 'NONE');
#67 = COORDINATED_UNIVERSAL_TIME_OFFSET ( 10, 0, .AHEAD. ) ;
#68 = APPROVAL ( #306, 'UNKNOWN' ) ;
#69 = AXIS2_PLACEMENT_3D ( 'NONE', #112, #139, #230 ) ;
#70 = PERSON_AND_ORGANIZATION ( #18446744073709551615, #18446744073709551615 ) ;
#71 = LOCAL_TIME ( 18, 49, 58.00000000000000000, #300 ) ;
#72 = MECHANICAL_CONTEXT ( 'NONE', #266, 'mechanical' ) ;
#73 = CC_DESIGN_PERSON_AND_ORGANIZATION_ASSIGNMENT ( #269, #118, ( #224 ) ) ;
#74 = ROLE_ASSOCIATION ( #162, #221 ) ;
#75 = PROPERTY_DEFINITION_REPRESENTATION ( #375, #101 ) ;
#76 = APPROVAL_PERSON_ORGANIZATION ( #163, #68, #254 ) ;
#77 = COORDINATED_UNIVERSAL_TIME_OFFSET ( 10, 0, .AHEAD. ) ;
#78 = PROPERTY_DEFINITION_REPRESENTATION ( #251, #45 ) ;
#79 = PERSON_AND_ORGANIZATION_ROLE ( 'classification_officer' ) ;
#80 =( NAMED_UNIT ( * ) PLANE_ANGLE_UNIT ( ) SI_UNIT ( $, .RADIAN. ) );
#81 = APPROVAL_PERSON_ORGANIZATION ( #340, #169, #307 ) ;
#82 = CC_DESIGN_DATE_AND_TIME_ASSIGNMENT ( #1, #276, ( #123 ) ) ;
#83 = PROPERTY_DEFINITION_REPRESENTATION ( #199, #101 ) ;
#84 = SECURITY_CLASSIFICATION_LEVEL ( 'unclassified' ) ;
#85 = OBJECT_ROLE ('mandatory',$ ) ;
#86 = APPLICATION_PROTOCOL_DEFINITION ( 'international standard', 'config_control_design', 1994, #22 ) ;
#87 = CC_DESIGN_APPROVAL ( #59, ( #90 ) ) ;
#88 = PERSON_AND_ORGANIZATION ( #345, #387 ) ;
#89 = DIRECTION ( 'NONE',  ( 1.000000000000000000, 0.000000000000000000, 0.000000000000000000 ) ) ;
#90 = PRODUCT_DEFINITION ( 'General', '', #120, #327 ) ;
#91 = DATE_AND_TIME ( #316, #94 ) ;
#92 = CC_DESIGN_PERSON_AND_ORGANIZATION_ASSIGNMENT ( #98, #328, ( #123 ) ) ;
#93 = CALENDAR_DATE ( 2026, 22, 6 ) ;
#94 = LOCAL_TIME ( 18, 49, 58.00000000000000000, #146 ) ;
#95 = APPLIED_EXTERNAL_IDENTIFICATION_ASSIGNMENT ( '6461079856.step.STEP' , #301, #145,( #332) ) ;
#96 = APPROVAL_ROLE ( '' ) ;
#97 = SECURITY_CLASSIFICATION_LEVEL ( 'unclassified' ) ;
#98 = PERSON_AND_ORGANIZATION ( #18446744073709551615, #18446744073709551615 ) ;
#99 = PERSON_AND_ORGANIZATION ( #18446744073709551615, #18446744073709551615 ) ;
#100 = CC_DESIGN_SECURITY_CLASSIFICATION ( #358, ( #388 ) ) ;
#101 = SHAPE_REPRESENTATION ( '6461079856.step', ( #267 ), #156 ) ;
#102 = APPROVAL ( #172, 'Coincident' ) ;
#103 = DATE_AND_TIME ( #111, #285 ) ;
#104 = CC_DESIGN_DATE_AND_TIME_ASSIGNMENT ( #270, #326, ( #113 ) ) ;
#105 = DATE_TIME_ROLE ( 'classification_date' ) ;
#106 = APPROVAL_ROLE ( '' ) ;
#107 = EXTERNAL_SOURCE (IDENTIFIER('') ) ;
#108 = APPLICATION_PROTOCOL_DEFINITION ( 'international standard', 'config_control_design', 1994, #204 ) ;
#109 = CONTEXT_DEPENDENT_SHAPE_REPRESENTATION ( #362, #55 ) ;
#110 = CC_DESIGN_DATE_AND_TIME_ASSIGNMENT ( #256, #282, ( #296 ) ) ;
#111 = CALENDAR_DATE ( 2026, 22, 6 ) ;
#112 = CARTESIAN_POINT ( 'NONE',  ( 0.000000000000000000, 0.000000000000000000, 0.000000000000000000 ) ) ;
#113 = SECURITY_CLASSIFICATION ( '', '', #97 ) ;
#114 = APPROVAL ( #311, 'Coincident' ) ;
#115 = COORDINATED_UNIVERSAL_TIME_OFFSET ( 10, 0, .AHEAD. ) ;
#116 = DATE_AND_TIME ( #56, #231 ) ;
#117 = PRODUCT_DEFINITION_SHAPE ( 'NONE', 'NONE',  #123 ) ;
#118 = PERSON_AND_ORGANIZATION_ROLE ( 'classification_officer' ) ;
#119 = CARTESIAN_POINT ( 'NONE',  ( 18.75000100705100436, 23.70000866699200870, -2.058321952820000078 ) ) ;
#120 = PRODUCT_DEFINITION_FORMATION_WITH_SPECIFIED_SOURCE ( 'Symmetric', '', #234, .NOT_KNOWN. ) ;
#121 = APPROVAL_PERSON_ORGANIZATION ( #189, #114, #106 ) ;
#122 = DIRECTION ( 'NONE',  ( 1.000000000000000222, -1.092455418989176591E-28, 4.890937612370273194E-29 ) ) ;
#123 = PRODUCT_DEFINITION ( 'General', '', #35, #297 ) ;
#124 = PERSON_AND_ORGANIZATION ( #18446744073709551615, #18446744073709551615 ) ;
#125 = LOCAL_TIME ( 18, 49, 58.00000000000000000, #325 ) ;
#126 = CALENDAR_DATE ( 2026, 22, 6 ) ;
#127 = SHAPE_REPRESENTATION ( 'C30.step', ( #253, #202, #284, #32 ), #136 ) ;
#128 = IDENTIFICATION_ROLE ( 'external document id and location', $) ;
#129 = PERSON_AND_ORGANIZATION ( #18446744073709551615, #18446744073709551615 ) ;
#130 = PERSON_AND_ORGANIZATION_ROLE ( 'classification_officer' ) ;
#131 = DATE_AND_TIME ( #275, #125 ) ;
#132 = LOCAL_TIME ( 18, 49, 58.00000000000000000, #186 ) ;
#133 = APPROVAL_STATUS ( 'not_yet_approved' ) ;
#134 = APPROVAL ( #361, 'Coincident' ) ;
#135 = COORDINATED_UNIVERSAL_TIME_OFFSET ( 10, 0, .AHEAD. ) ;
#136 =( GEOMETRIC_REPRESENTATION_CONTEXT ( 3 ) GLOBAL_UNCERTAINTY_ASSIGNED_CONTEXT ( ( #66 ) ) GLOBAL_UNIT_ASSIGNED_CONTEXT ( ( #178, #322, #210 ) ) REPRESENTATION_CONTEXT ( 'NONE', 'WORKASPACE' ) );
#137 = LOCAL_TIME ( 18, 49, 58.00000000000000000, #54 ) ;
#138 = APPLIED_DOCUMENT_REFERENCE ( #208,'',( #273) ) ;
#139 = DIRECTION ( 'NONE',  ( 0.000000000000000000, 0.000000000000000000, 1.000000000000000000 ) ) ;
#140 = DATE_TIME_ROLE ( 'classification_date' ) ;
#141 = DIRECTION ( 'NONE',  ( 1.000000000000000222, -1.092455418989176591E-28, 4.890937612370273194E-29 ) ) ;
#142 = CC_DESIGN_PERSON_AND_ORGANIZATION_ASSIGNMENT ( #88, #26, ( #324 ) ) ;
#143 = LOCAL_TIME ( 18, 49, 58.00000000000000000, #218 ) ;
#144 = PERSON_AND_ORGANIZATION ( #18446744073709551615, #18446744073709551615 ) ;
#145 = EXTERNAL_SOURCE (IDENTIFIER('') ) ;
#146 = COORDINATED_UNIVERSAL_TIME_OFFSET ( 10, 0, .AHEAD. ) ;
#147 = LOCAL_TIME ( 18, 49, 58.00000000000000000, #385 ) ;
#148 = COORDINATED_UNIVERSAL_TIME_OFFSET ( 10, 0, .AHEAD. ) ;
#149 = DESIGN_CONTEXT ( 'detailed design', #227, 'design' ) ;
#150 = CALENDAR_DATE ( 2026, 22, 6 ) ;
#151 = APPROVAL_STATUS ( 'not_yet_approved' ) ;
#152 = APPROVAL_PERSON_ORGANIZATION ( #233, #59, #320 ) ;
#153 = PERSON_AND_ORGANIZATION ( #18446744073709551615, #18446744073709551615 ) ;
#154 = APPROVAL_STATUS ( 'not_yet_approved' ) ;
#155 = APPLICATION_PROTOCOL_DEFINITION ( 'international standard', 'config_control_design', 1994, #266 ) ;
#156 =( GEOMETRIC_REPRESENTATION_CONTEXT ( 3 ) GLOBAL_UNCERTAINTY_ASSIGNED_CONTEXT ( ( #359 ) ) GLOBAL_UNIT_ASSIGNED_CONTEXT ( ( #308, #223, #9 ) ) REPRESENTATION_CONTEXT ( 'NONE', 'WORKASPACE' ) );
#157 = PROPERTY_DEFINITION_REPRESENTATION ( #366, #45 ) ;
#158 = CC_DESIGN_SECURITY_CLASSIFICATION ( #324, ( #390 ) ) ;
#159 = DIRECTION ( 'NONE',  ( 1.000000000000000000, 0.000000000000000000, 0.000000000000000000 ) ) ;
#160 = DATE_AND_TIME ( #229, #248 ) ;
#161 = CC_DESIGN_PERSON_AND_ORGANIZATION_ASSIGNMENT ( #303, #3, ( #35 ) ) ;
#162 = OBJECT_ROLE ('mandatory',$ ) ;
#163 = PERSON_AND_ORGANIZATION ( #384, #206 ) ;
#164 = DIRECTION ( 'NONE',  ( 1.000000000000000222, -1.092455418989176591E-28, 4.890937612370273194E-29 ) ) ;
#165 = PERSON_AND_ORGANIZATION_ROLE ( 'classification_officer' ) ;
#166 =( LENGTH_UNIT ( ) NAMED_UNIT ( * ) SI_UNIT ( .MILLI., .METRE. ) );
#167 = CC_DESIGN_SECURITY_CLASSIFICATION ( #113, ( #35 ) ) ;
#168 = CC_DESIGN_DATE_AND_TIME_ASSIGNMENT ( #91, #177, ( #90 ) ) ;
#169 = APPROVAL ( #133, 'UNKNOWN' ) ;
#170 = DATE_AND_TIME ( #58, #10 ) ;
#171 = PRODUCT ( '6461079856.step', '6461079856.step', '', ( #21 ) ) ;
#172 = APPROVAL_STATUS ( 'not_yet_approved' ) ;
#173 = IDENTIFICATION_ROLE ( 'external document id and location', $) ;
#174 = APPROVAL_ROLE ( '' ) ;
#175 = APPROVAL_DATE_TIME ( #116, #102 ) ;
#176 = PROPERTY_DEFINITION_REPRESENTATION ( #344, #101 ) ;
#177 = DATE_TIME_ROLE ( 'creation_date' ) ;
#178 =( LENGTH_UNIT ( ) NAMED_UNIT ( * ) SI_UNIT ( .MILLI., .METRE. ) );
#179 = APPLICATION_PROTOCOL_DEFINITION ( 'international standard', 'config_control_design', 1994, #339 ) ;
#180 = APPROVAL_PERSON_ORGANIZATION ( #380, #38, #315 ) ;
#181 = CALENDAR_DATE ( 2026, 22, 6 ) ;
#182 = APPROVAL_DATE_TIME ( #131, #321 ) ;
#183 = APPROVAL_ROLE ( '' ) ;
#184 = EXTERNAL_SOURCE (IDENTIFIER('') ) ;
#185 = LOCAL_TIME ( 18, 49, 58.00000000000000000, #63 ) ;
#186 = COORDINATED_UNIVERSAL_TIME_OFFSET ( 10, 0, .AHEAD. ) ;
#187 = PERSON_AND_ORGANIZATION ( #18446744073709551615, #18446744073709551615 ) ;
#188 = CALENDAR_DATE ( 2026, 22, 6 ) ;
#189 = PERSON_AND_ORGANIZATION ( #18446744073709551615, #18446744073709551615 ) ;
#190 = APPLIED_EXTERNAL_IDENTIFICATION_ASSIGNMENT ( '6534431024.step.STEP' , #173, #184,( #208) ) ;
#191 = ITEM_DEFINED_TRANSFORMATION ( 'NONE', 'NONE', #202,  #69 ) ;
#192 = COORDINATED_UNIVERSAL_TIME_OFFSET ( 10, 0, .AHEAD. ) ;
#193 = PERSON_AND_ORGANIZATION_ROLE ( 'design_supplier' ) ;
#194 = CARTESIAN_POINT ( 'NONE',  ( 0.000000000000000000, 0.000000000000000000, 0.000000000000000000 ) ) ;
#195 = LOCAL_TIME ( 18, 49, 58.00000000000000000, #135 ) ;
#196 = CC_DESIGN_PERSON_AND_ORGANIZATION_ASSIGNMENT ( #367, #193, ( #243 ) ) ;
#197 = PROPERTY_DEFINITION_REPRESENTATION ( #53, #101 ) ;
#198 = PRODUCT_DEFINITION_SHAPE ( 'NONE', 'NONE',  #273 ) ;
#199 = PROPERTY_DEFINITION ('external definition','', #332 ) ;
#200 = PERSON_AND_ORGANIZATION_ROLE ( 'design_owner' ) ;
#201 = APPROVAL_STATUS ( 'not_yet_approved' ) ;
#202 = AXIS2_PLACEMENT_3D ( 'NONE', #338, #48, #164 ) ;
#203 = APPROVAL ( #37, 'Coincident' ) ;
#204 = APPLICATION_CONTEXT ( 'configuration controlled 3d designs of mechanical parts and assemblies' ) ;
#205 = CC_DESIGN_APPROVAL ( #16, ( #273 ) ) ;
#206 = ORGANIZATION ( 'NAUO-ORG227', 'UNSPECIFIED', 'UNSPECIFIED' ) ;
#207 = CALENDAR_DATE ( 2026, 22, 6 ) ;
#208 = DOCUMENT_FILE ( '6534431024.step.STEP' , '', '', #46, '' ,$ ) ;
#209 = DATE_AND_TIME ( #60, #214 ) ;
#210 =( NAMED_UNIT ( * ) SI_UNIT ( $, .STERADIAN. ) SOLID_ANGLE_UNIT ( ) );
#211 = CC_DESIGN_PERSON_AND_ORGANIZATION_ASSIGNMENT ( #292, #378, ( #120 ) ) ;
#212 = APPLICATION_PROTOCOL_DEFINITION ( 'international standard', 'config_control_design', 1994, #227 ) ;
#213 = CC_DESIGN_APPROVAL ( #102, ( #120 ) ) ;
#214 = LOCAL_TIME ( 18, 49, 58.00000000000000000, #57 ) ;
#215 = CC_DESIGN_DATE_AND_TIME_ASSIGNMENT ( #209, #381, ( #324 ) ) ;
#216 = COORDINATED_UNIVERSAL_TIME_OFFSET ( 10, 0, .AHEAD. ) ;
#217 = PERSON_AND_ORGANIZATION_ROLE ( 'design_owner' ) ;
#218 = COORDINATED_UNIVERSAL_TIME_OFFSET ( 10, 0, .AHEAD. ) ;
#219 = CC_DESIGN_APPROVAL ( #331, ( #243 ) ) ;
#220 = PERSON_AND_ORGANIZATION_ROLE ( 'creator' ) ;
#221 = APPLIED_DOCUMENT_REFERENCE ( #258,'',( #123) ) ;
#222 = SECURITY_CLASSIFICATION_LEVEL ( 'unclassified' ) ;
#223 =( NAMED_UNIT ( * ) PLANE_ANGLE_UNIT ( ) SI_UNIT ( $, .RADIAN. ) );
#224 = SECURITY_CLASSIFICATION ( '', '', #84 ) ;
#225 = ITEM_DEFINED_TRANSFORMATION ( 'NONE', 'NONE', #284,  #267 ) ;
#226 = MECHANICAL_CONTEXT ( 'NONE', #204, 'mechanical' ) ;
#227 = APPLICATION_CONTEXT ( 'configuration controlled 3d designs of mechanical parts and assemblies' ) ;
#228 = SECURITY_CLASSIFICATION_LEVEL ( 'unclassified' ) ;
#229 = CALENDAR_DATE ( 2026, 22, 6 ) ;
#230 = DIRECTION ( 'NONE',  ( 1.000000000000000000, 0.000000000000000000, 0.000000000000000000 ) ) ;
#231 = LOCAL_TIME ( 18, 49, 58.00000000000000000, #148 ) ;
#232 = LOCAL_TIME ( 18, 49, 58.00000000000000000, #44 ) ;
#233 = PERSON_AND_ORGANIZATION ( #18446744073709551615, #18446744073709551615 ) ;
#234 = PRODUCT ( 'C30.step', 'C30.step', '', ( #226 ) ) ;
#235 = CONTEXT_DEPENDENT_SHAPE_REPRESENTATION ( #283, #351 ) ;
#236 = DIRECTION ( 'NONE',  ( 0.000000000000000000, 0.000000000000000000, 1.000000000000000000 ) ) ;
#237 = DIRECTION ( 'NONE',  ( 4.890937612370273194E-29, -3.155443620884047222E-30, 0.9999999999999997780 ) ) ;
#238 = APPROVAL_PERSON_ORGANIZATION ( #153, #134, #330 ) ;
#239 = CC_DESIGN_PERSON_AND_ORGANIZATION_ASSIGNMENT ( #356, #265, ( #90 ) ) ;
#240 = DATE_TIME_ROLE ( 'classification_date' ) ;
#241 = PRODUCT_RELATED_PRODUCT_CATEGORY ( 'detail', '', ( #259 ) ) ;
#242 = APPROVAL_STATUS ( 'not_yet_approved' ) ;
#243 = PRODUCT_DEFINITION_FORMATION_WITH_SPECIFIED_SOURCE ( 'Symmetric', '', #259, .NOT_KNOWN. ) ;
#244 = CALENDAR_DATE ( 2026, 22, 6 ) ;
#245 =( REPRESENTATION_RELATIONSHIP ('NONE','NONE', #127, #101 ) REPRESENTATION_RELATIONSHIP_WITH_TRANSFORMATION ( #225 )SHAPE_REPRESENTATION_RELATIONSHIP( ) );
#246 = CALENDAR_DATE ( 2026, 22, 6 ) ;
#247 = DATE_AND_TIME ( #302, #132 ) ;
#248 = LOCAL_TIME ( 18, 49, 58.00000000000000000, #286 ) ;
#249 = PERSON_AND_ORGANIZATION ( #18446744073709551615, #18446744073709551615 ) ;
#250 = PERSON_AND_ORGANIZATION_ROLE ( 'creator' ) ;
#251 = PROPERTY_DEFINITION ('external definition','', #208 ) ;
#252 = PERSON_AND_ORGANIZATION_ROLE ( 'classification_officer' ) ;
#253 = AXIS2_PLACEMENT_3D ( 'NONE', #194, #236, #89 ) ;
#254 = APPROVAL_ROLE ( '' ) ;
#255 = CARTESIAN_POINT ( 'NONE',  ( 18.75000100705100792, 24.70000866699200870, -2.058321952820000078 ) ) ;
#256 = DATE_AND_TIME ( #7, #232 ) ;
#257 = CC_DESIGN_PERSON_AND_ORGANIZATION_ASSIGNMENT ( #144, #271, ( #171 ) ) ;
#258 = DOCUMENT_FILE ( '6461079856.step.STEP' , '', '', #65, '' ,$ ) ;
#259 = PRODUCT ( '6534431024.step', '6534431024.step', '', ( #72 ) ) ;
#260 = SHAPE_DEFINITION_REPRESENTATION ( #348, #127 ) ;
#261 = APPROVAL_PERSON_ORGANIZATION ( #88, #280, #174 ) ;
#262 = PRODUCT_DEFINITION_SHAPE ( 'NONE', 'NONE',  #389 ) ;
#263 = PRODUCT_RELATED_PRODUCT_CATEGORY ( 'detail', '', ( #171 ) ) ;
#264 = ROLE_ASSOCIATION ( #295, #379 ) ;
#265 = PERSON_AND_ORGANIZATION_ROLE ( 'creator' ) ;
#266 = APPLICATION_CONTEXT ( 'configuration controlled 3d designs of mechanical parts and assemblies' ) ;
#267 = AXIS2_PLACEMENT_3D ( 'NONE', #17, #42, #159 ) ;
#268 = CC_DESIGN_SECURITY_CLASSIFICATION ( #27, ( #243 ) ) ;
#269 = PERSON_AND_ORGANIZATION ( #18446744073709551615, #18446744073709551615 ) ;
#270 = DATE_AND_TIME ( #126, #143 ) ;
#271 = PERSON_AND_ORGANIZATION_ROLE ( 'design_owner' ) ;
#272 = APPROVAL_PERSON_ORGANIZATION ( #129, #321, #4 ) ;
#273 = PRODUCT_DEFINITION ( 'General', '', #243, #149 ) ;
#274 = APPROVAL_ROLE ( '' ) ;
#275 = CALENDAR_DATE ( 2026, 22, 6 ) ;
#276 = DATE_TIME_ROLE ( 'creation_date' ) ;
#277 = CC_DESIGN_PERSON_AND_ORGANIZATION_ASSIGNMENT ( #349, #28, ( #120 ) ) ;
#278 = CC_DESIGN_APPROVAL ( #321, ( #35 ) ) ;
#279 = SHAPE_DEFINITION_REPRESENTATION ( #198, #45 ) ;
#280 = APPROVAL ( #20, 'UNKNOWN' ) ;
#281 = APPROVAL_DATE_TIME ( #371, #114 ) ;
#282 = DATE_TIME_ROLE ( 'classification_date' ) ;
#283 =( REPRESENTATION_RELATIONSHIP ('NONE','NONE', #127, #101 ) REPRESENTATION_RELATIONSHIP_WITH_TRANSFORMATION ( #314 )SHAPE_REPRESENTATION_RELATIONSHIP( ) );
#284 = AXIS2_PLACEMENT_3D ( 'NONE', #255, #25, #122 ) ;
#285 = LOCAL_TIME ( 18, 49, 58.00000000000000000, #192 ) ;
#286 = COORDINATED_UNIVERSAL_TIME_OFFSET ( 10, 0, .AHEAD. ) ;
#287 = CONTEXT_DEPENDENT_SHAPE_REPRESENTATION ( #245, #262 ) ;
#288 = PERSON_AND_ORGANIZATION ( #18446744073709551615, #18446744073709551615 ) ;
#289 = APPROVAL_DATE_TIME ( #52, #38 ) ;
#290 = APPLICATION_PROTOCOL_DEFINITION ( 'international standard', 'config_control_design', 1994, #318 ) ;
#291 = APPLIED_EXTERNAL_IDENTIFICATION_ASSIGNMENT ( '6461079856.step.STEP' , #128, #107,( #258) ) ;
#292 = PERSON_AND_ORGANIZATION ( #18446744073709551615, #18446744073709551615 ) ;
#293 = PERSON_AND_ORGANIZATION ( #18446744073709551615, #18446744073709551615 ) ;
#294 = DATE_AND_TIME ( #207, #335 ) ;
#295 = OBJECT_ROLE ('mandatory',$ ) ;
#296 = SECURITY_CLASSIFICATION ( '', '', #222 ) ;
#297 = DESIGN_CONTEXT ( 'detailed design', #339, 'design' ) ;
#298 = DATE_AND_TIME ( #181, #185 ) ;
#299 = PERSON_AND_ORGANIZATION ( #18446744073709551615, #18446744073709551615 ) ;
#300 = COORDINATED_UNIVERSAL_TIME_OFFSET ( 10, 0, .AHEAD. ) ;
#301 = IDENTIFICATION_ROLE ( 'external document id and location', $) ;
#302 = CALENDAR_DATE ( 2026, 22, 6 ) ;
#303 = PERSON_AND_ORGANIZATION ( #18446744073709551615, #18446744073709551615 ) ;
#304 = CC_DESIGN_DATE_AND_TIME_ASSIGNMENT ( #103, #140, ( #27 ) ) ;
#305 = CC_DESIGN_SECURITY_CLASSIFICATION ( #224, ( #120 ) ) ;
#306 = APPROVAL_STATUS ( 'not_yet_approved' ) ;
#307 = APPROVAL_ROLE ( '' ) ;
#308 =( LENGTH_UNIT ( ) NAMED_UNIT ( * ) SI_UNIT ( .MILLI., .METRE. ) );
#309 = DATE_AND_TIME ( #64, #382 ) ;
#310 = CC_DESIGN_APPROVAL ( #169, ( #358 ) ) ;
#311 = APPROVAL_STATUS ( 'not_yet_approved' ) ;
#312 = CC_DESIGN_DATE_AND_TIME_ASSIGNMENT ( #24, #240, ( #224 ) ) ;
#313 = APPROVAL_DATE_TIME ( #170, #59 ) ;
#314 = ITEM_DEFINED_TRANSFORMATION ( 'NONE', 'NONE', #32,  #267 ) ;
#315 = APPROVAL_ROLE ( '' ) ;
#316 = CALENDAR_DATE ( 2026, 22, 6 ) ;
#317 = APPROVAL_PERSON_ORGANIZATION ( #124, #331, #96 ) ;
#318 = APPLICATION_CONTEXT ( 'configuration controlled 3d designs of mechanical parts and assemblies' ) ;
#319 = SECURITY_CLASSIFICATION_LEVEL ( 'unclassified' ) ;
#320 = APPROVAL_ROLE ( '' ) ;
#321 = APPROVAL ( #154, 'Coincident' ) ;
#322 =( NAMED_UNIT ( * ) PLANE_ANGLE_UNIT ( ) SI_UNIT ( $, .RADIAN. ) );
#323 = PERSON_AND_ORGANIZATION_ROLE ( 'creator' ) ;
#324 = SECURITY_CLASSIFICATION ( '', '', #319 ) ;
#325 = COORDINATED_UNIVERSAL_TIME_OFFSET ( 10, 0, .AHEAD. ) ;
#326 = DATE_TIME_ROLE ( 'classification_date' ) ;
#327 = DESIGN_CONTEXT ( 'detailed design', #22, 'design' ) ;
#328 = PERSON_AND_ORGANIZATION_ROLE ( 'creator' ) ;
#329 = LOCAL_TIME ( 18, 49, 58.00000000000000000, #336 ) ;
#330 = APPROVAL_ROLE ( '' ) ;
#331 = APPROVAL ( #242, 'Coincident' ) ;
#332 = DOCUMENT_FILE ( '6461079856.step.STEP' , '', '', #350, '' ,$ ) ;
#333 = SECURITY_CLASSIFICATION_LEVEL ( 'unclassified' ) ;
#334 = APPROVAL_PERSON_ORGANIZATION ( #70, #16, #183 ) ;
#335 = LOCAL_TIME ( 18, 49, 58.00000000000000000, #115 ) ;
#336 = COORDINATED_UNIVERSAL_TIME_OFFSET ( 10, 0, .AHEAD. ) ;
#337 = CC_DESIGN_PERSON_AND_ORGANIZATION_ASSIGNMENT ( #187, #130, ( #113 ) ) ;
#338 = CARTESIAN_POINT ( 'NONE',  ( 18.75000100705100436, 24.20000866699200515, -2.058321952820000078 ) ) ;
#339 = APPLICATION_CONTEXT ( 'configuration controlled 3d designs of mechanical parts and assemblies' ) ;
#340 = PERSON_AND_ORGANIZATION ( #377, #5 ) ;
#341 = DATE_AND_TIME ( #188, #62 ) ;
#342 = APPROVAL_PERSON_ORGANIZATION ( #293, #102, #352 ) ;
#343 = CC_DESIGN_SECURITY_CLASSIFICATION ( #296, ( #389 ) ) ;
#344 = PROPERTY_DEFINITION ('document property','', #332 ) ;
#345 = PERSON ( 'NAUO-PER228', 'UNSPECIFIED', 'UNSPECIFIED', ('UNSPECIFIED'), ('UNSPECIFIED'), ('UNSPECIFIED') ) ;
#346 = CC_DESIGN_DATE_AND_TIME_ASSIGNMENT ( #40, #105, ( #358 ) ) ;
#347 = APPROVAL_DATE_TIME ( #294, #280 ) ;
#348 = PRODUCT_DEFINITION_SHAPE ( 'NONE', 'NONE',  #90 ) ;
#349 = PERSON_AND_ORGANIZATION ( #18446744073709551615, #18446744073709551615 ) ;
#350 = DOCUMENT_TYPE ( 'geometry' ) ;
#351 = PRODUCT_DEFINITION_SHAPE ( 'NONE', 'NONE',  #390 ) ;
#352 = APPROVAL_ROLE ( '' ) ;
#353 = CC_DESIGN_APPROVAL ( #203, ( #123 ) ) ;
#354 = COORDINATED_UNIVERSAL_TIME_OFFSET ( 10, 0, .AHEAD. ) ;
#355 = PRODUCT_RELATED_PRODUCT_CATEGORY ( 'detail', '', ( #234 ) ) ;
#356 = PERSON_AND_ORGANIZATION ( #18446744073709551615, #18446744073709551615 ) ;
#357 = PERSON_AND_ORGANIZATION ( #18446744073709551615, #18446744073709551615 ) ;
#358 = SECURITY_CLASSIFICATION ( '', '', #333 ) ;
#359 = UNCERTAINTY_MEASURE_WITH_UNIT (LENGTH_MEASURE( 1.000000000000000082E-05 ), #308, 'distance_accuracy_value', 'NONE');
#360 = DATE_AND_TIME ( #246, #43 ) ;
#361 = APPROVAL_STATUS ( 'not_yet_approved' ) ;
#362 =( REPRESENTATION_RELATIONSHIP ('NONE','NONE', #127, #45 ) REPRESENTATION_RELATIONSHIP_WITH_TRANSFORMATION ( #191 )SHAPE_REPRESENTATION_RELATIONSHIP( ) );
#363 = APPROVAL_DATE_TIME ( #39, #134 ) ;
#364 = LOCAL_TIME ( 18, 49, 58.00000000000000000, #29 ) ;
#365 = APPROVAL_DATE_TIME ( #360, #203 ) ;
#366 = PROPERTY_DEFINITION ('document property','', #208 ) ;
#367 = PERSON_AND_ORGANIZATION ( #18446744073709551615, #18446744073709551615 ) ;
#368 = PERSON_AND_ORGANIZATION ( #18446744073709551615, #18446744073709551615 ) ;
#369 =( GEOMETRIC_REPRESENTATION_CONTEXT ( 3 ) GLOBAL_UNCERTAINTY_ASSIGNED_CONTEXT ( ( #383 ) ) GLOBAL_UNIT_ASSIGNED_CONTEXT ( ( #166, #80, #14 ) ) REPRESENTATION_CONTEXT ( 'NONE', 'WORKASPACE' ) );
#370 = APPROVAL_DATE_TIME ( #160, #169 ) ;
#371 = DATE_AND_TIME ( #6, #329 ) ;
#372 = CC_DESIGN_PERSON_AND_ORGANIZATION_ASSIGNMENT ( #8, #79, ( #27 ) ) ;
#373 = APPROVAL_PERSON_ORGANIZATION ( #299, #203, #274 ) ;
#374 = CC_DESIGN_APPROVAL ( #280, ( #324 ) ) ;
#375 = PROPERTY_DEFINITION ('external definition','', #258 ) ;
#376 = CALENDAR_DATE ( 2026, 22, 6 ) ;
#377 = PERSON ( 'NAUO-PER226', 'UNSPECIFIED', 'UNSPECIFIED', ('UNSPECIFIED'), ('UNSPECIFIED'), ('UNSPECIFIED') ) ;
#378 = PERSON_AND_ORGANIZATION_ROLE ( 'design_supplier' ) ;
#379 = APPLIED_DOCUMENT_REFERENCE ( #332,'',( #123) ) ;
#380 = PERSON_AND_ORGANIZATION ( #18446744073709551615, #18446744073709551615 ) ;
#381 = DATE_TIME_ROLE ( 'classification_date' ) ;
#382 = LOCAL_TIME ( 18, 49, 58.00000000000000000, #216 ) ;
#383 = UNCERTAINTY_MEASURE_WITH_UNIT (LENGTH_MEASURE( 1.000000000000000082E-05 ), #166, 'distance_accuracy_value', 'NONE');
#384 = PERSON ( 'NAUO-PER227', 'UNSPECIFIED', 'UNSPECIFIED', ('UNSPECIFIED'), ('UNSPECIFIED'), ('UNSPECIFIED') ) ;
#385 = COORDINATED_UNIVERSAL_TIME_OFFSET ( 10, 0, .AHEAD. ) ;
#386 = DATE_TIME_ROLE ( 'creation_date' ) ;
#387 = ORGANIZATION ( 'NAUO-ORG228', 'UNSPECIFIED', 'UNSPECIFIED' ) ;
#388 = NEXT_ASSEMBLY_USAGE_OCCURRENCE ( 'NAUO226', ' ', ' ', #90, #273, $ ) ;
#389 = NEXT_ASSEMBLY_USAGE_OCCURRENCE ( 'NAUO227', ' ', ' ', #90, #123, $ ) ;
#390 = NEXT_ASSEMBLY_USAGE_OCCURRENCE ( 'NAUO228', ' ', ' ', #90, #123, $ ) ;
ENDSEC;
END-ISO-10303-21;
