ISO-10303-21;
HEADER;
FILE_DESCRIPTION (( 'STEP AP203' ),
    '1' );
FILE_NAME ('C31.step.STEP',
    '2026-06-22T08:49:55',
    ( 'localuser' ),
    ( '' ),
    'SwSTEP 2.0',
    'SolidWorks 2025',
    '' );
FILE_SCHEMA (( 'CONFIG_CONTROL_DESIGN' ));
ENDSEC;

DATA;
#1 = PERSON_AND_ORGANIZATION_ROLE ( 'creator' ) ;
#2 = DESIGN_CONTEXT ( 'detailed design', #221, 'design' ) ;
#3 = PERSON_AND_ORGANIZATION ( #18446744073709551615, #18446744073709551615 ) ;
#4 = CC_DESIGN_PERSON_AND_ORGANIZATION_ASSIGNMENT ( #29, #23, ( #286 ) ) ;
#5 = EXTERNAL_SOURCE (IDENTIFIER('') ) ;
#6 = COORDINATED_UNIVERSAL_TIME_OFFSET ( 10, 0, .AHEAD. ) ;
#7 = CC_DESIGN_APPROVAL ( #274, ( #341 ) ) ;
#8 = PERSON_AND_ORGANIZATION ( #18446744073709551615, #18446744073709551615 ) ;
#9 = SHAPE_DEFINITION_REPRESENTATION ( #238, #322 ) ;
#10 = CC_DESIGN_PERSON_AND_ORGANIZATION_ASSIGNMENT ( #47, #199, ( #172 ) ) ;
#11 = APPROVAL_DATE_TIME ( #231, #232 ) ;
#12 = AXIS2_PLACEMENT_3D ( 'NONE', #239, #348, #181 ) ;
#13 = COORDINATED_UNIVERSAL_TIME_OFFSET ( 10, 0, .AHEAD. ) ;
#14 = LOCAL_TIME ( 18, 49, 55.00000000000000000, #60 ) ;
#15 = PERSON_AND_ORGANIZATION ( #18446744073709551615, #18446744073709551615 ) ;
#16 = PERSON_AND_ORGANIZATION ( #18446744073709551615, #18446744073709551615 ) ;
#17 = PROPERTY_DEFINITION_REPRESENTATION ( #81, #322 ) ;
#18 = DIRECTION ( 'NONE',  ( 0.000000000000000000, 0.000000000000000000, 1.000000000000000000 ) ) ;
#19 = LOCAL_TIME ( 18, 49, 55.00000000000000000, #224 ) ;
#20 = APPLICATION_CONTEXT ( 'configuration controlled 3d designs of mechanical parts and assemblies' ) ;
#21 = PROPERTY_DEFINITION ('document property','', #203 ) ;
#22 = APPROVAL_ROLE ( '' ) ;
#23 = PERSON_AND_ORGANIZATION_ROLE ( 'classification_officer' ) ;
#24 =( NAMED_UNIT ( * ) SI_UNIT ( $, .STERADIAN. ) SOLID_ANGLE_UNIT ( ) );
#25 = PERSON ( 'NAUO-PER97', 'UNSPECIFIED', 'UNSPECIFIED', ('UNSPECIFIED'), ('UNSPECIFIED'), ('UNSPECIFIED') ) ;
#26 = COORDINATED_UNIVERSAL_TIME_OFFSET ( 10, 0, .AHEAD. ) ;
#27 = OBJECT_ROLE ('mandatory',$ ) ;
#28 = LOCAL_TIME ( 18, 49, 55.00000000000000000, #6 ) ;
#29 = PERSON_AND_ORGANIZATION ( #234, #371 ) ;
#30 =( NAMED_UNIT ( * ) SI_UNIT ( $, .STERADIAN. ) SOLID_ANGLE_UNIT ( ) );
#31 = CC_DESIGN_DATE_AND_TIME_ASSIGNMENT ( #314, #372, ( #223 ) ) ;
#32 = APPLICATION_PROTOCOL_DEFINITION ( 'international standard', 'config_control_design', 1994, #126 ) ;
#33 = APPROVAL_DATE_TIME ( #258, #375 ) ;
#34 = LOCAL_TIME ( 18, 49, 55.00000000000000000, #188 ) ;
#35 = LOCAL_TIME ( 18, 49, 55.00000000000000000, #336 ) ;
#36 = APPROVAL_PERSON_ORGANIZATION ( #290, #48, #22 ) ;
#37 = PRODUCT_DEFINITION ( 'General', '', #382, #92 ) ;
#38 = PERSON_AND_ORGANIZATION ( #18446744073709551615, #18446744073709551615 ) ;
#39 = DATE_TIME_ROLE ( 'creation_date' ) ;
#40 = ROLE_ASSOCIATION ( #275, #217 ) ;
#41 = PERSON_AND_ORGANIZATION_ROLE ( 'creator' ) ;
#42 = CC_DESIGN_APPROVAL ( #123, ( #286 ) ) ;
#43 = APPROVAL_STATUS ( 'not_yet_approved' ) ;
#44 = OBJECT_ROLE ('mandatory',$ ) ;
#45 = COORDINATED_UNIVERSAL_TIME_OFFSET ( 10, 0, .AHEAD. ) ;
#46 = DATE_AND_TIME ( #289, #328 ) ;
#47 = PERSON_AND_ORGANIZATION ( #18446744073709551615, #18446744073709551615 ) ;
#48 = APPROVAL ( #326, 'Coincident' ) ;
#49 = CC_DESIGN_SECURITY_CLASSIFICATION ( #197, ( #132 ) ) ;
#50 = CALENDAR_DATE ( 2026, 22, 6 ) ;
#51 = COORDINATED_UNIVERSAL_TIME_OFFSET ( 10, 0, .AHEAD. ) ;
#52 = APPROVAL_ROLE ( '' ) ;
#53 = PRODUCT_DEFINITION_SHAPE ( 'NONE', 'NONE',  #388 ) ;
#54 =( LENGTH_UNIT ( ) NAMED_UNIT ( * ) SI_UNIT ( .MILLI., .METRE. ) );
#55 = SECURITY_CLASSIFICATION ( '', '', #180 ) ;
#56 = APPROVAL ( #43, 'Coincident' ) ;
#57 = PROPERTY_DEFINITION_REPRESENTATION ( #261, #252 ) ;
#58 = DOCUMENT_TYPE ( 'geometry' ) ;
#59 = PROPERTY_DEFINITION_REPRESENTATION ( #367, #252 ) ;
#60 = COORDINATED_UNIVERSAL_TIME_OFFSET ( 10, 0, .AHEAD. ) ;
#61 = APPROVAL ( #271, 'UNKNOWN' ) ;
#62 = CC_DESIGN_APPROVAL ( #48, ( #229 ) ) ;
#63 = DATE_AND_TIME ( #70, #19 ) ;
#64 = PERSON_AND_ORGANIZATION ( #18446744073709551615, #18446744073709551615 ) ;
#65 = LOCAL_TIME ( 18, 49, 55.00000000000000000, #196 ) ;
#66 = CC_DESIGN_PERSON_AND_ORGANIZATION_ASSIGNMENT ( #311, #163, ( #167 ) ) ;
#67 = APPROVAL_ROLE ( '' ) ;
#68 =( REPRESENTATION_RELATIONSHIP ('NONE','NONE', #344, #252 ) REPRESENTATION_RELATIONSHIP_WITH_TRANSFORMATION ( #379 )SHAPE_REPRESENTATION_RELATIONSHIP( ) );
#69 = PERSON_AND_ORGANIZATION_ROLE ( 'creator' ) ;
#70 = CALENDAR_DATE ( 2026, 22, 6 ) ;
#71 = APPROVAL ( #98, 'Coincident' ) ;
#72 = APPROVAL_PERSON_ORGANIZATION ( #313, #232, #104 ) ;
#73 = COORDINATED_UNIVERSAL_TIME_OFFSET ( 10, 0, .AHEAD. ) ;
#74 = PERSON_AND_ORGANIZATION ( #18446744073709551615, #18446744073709551615 ) ;
#75 = EXTERNAL_SOURCE (IDENTIFIER('') ) ;
#76 = PRODUCT_RELATED_PRODUCT_CATEGORY ( 'detail', '', ( #342 ) ) ;
#77 = DATE_TIME_ROLE ( 'creation_date' ) ;
#78 = PERSON_AND_ORGANIZATION ( #18446744073709551615, #18446744073709551615 ) ;
#79 = CONTEXT_DEPENDENT_SHAPE_REPRESENTATION ( #68, #53 ) ;
#80 = DATE_AND_TIME ( #345, #205 ) ;
#81 = PROPERTY_DEFINITION ('external definition','', #203 ) ;
#82 = DIRECTION ( 'NONE',  ( 1.000000000000000222, -1.092455418989176591E-28, 4.890937612370273194E-29 ) ) ;
#83 = CC_DESIGN_PERSON_AND_ORGANIZATION_ASSIGNMENT ( #241, #366, ( #269 ) ) ;
#84 = APPROVAL_DATE_TIME ( #347, #48 ) ;
#85 = APPROVAL_PERSON_ORGANIZATION ( #64, #375, #67 ) ;
#86 = CC_DESIGN_APPROVAL ( #113, ( #37 ) ) ;
#87 = PERSON_AND_ORGANIZATION ( #384, #157 ) ;
#88 = IDENTIFICATION_ROLE ( 'external document id and location', $) ;
#89 = APPROVAL ( #146, 'UNKNOWN' ) ;
#90 = PERSON_AND_ORGANIZATION_ROLE ( 'classification_officer' ) ;
#91 = CC_DESIGN_SECURITY_CLASSIFICATION ( #55, ( #390 ) ) ;
#92 = DESIGN_CONTEXT ( 'detailed design', #359, 'design' ) ;
#93 = DATE_TIME_ROLE ( 'classification_date' ) ;
#94 = DATE_AND_TIME ( #356, #101 ) ;
#95 = DATE_AND_TIME ( #151, #34 ) ;
#96 = PERSON_AND_ORGANIZATION ( #18446744073709551615, #18446744073709551615 ) ;
#97 = CC_DESIGN_APPROVAL ( #220, ( #223 ) ) ;
#98 = APPROVAL_STATUS ( 'not_yet_approved' ) ;
#99 = CALENDAR_DATE ( 2026, 22, 6 ) ;
#100 = DATE_AND_TIME ( #50, #264 ) ;
#101 = LOCAL_TIME ( 18, 49, 55.00000000000000000, #377 ) ;
#102 = PERSON_AND_ORGANIZATION_ROLE ( 'creator' ) ;
#103 = CC_DESIGN_PERSON_AND_ORGANIZATION_ASSIGNMENT ( #360, #41, ( #132 ) ) ;
#104 = APPROVAL_ROLE ( '' ) ;
#105 = DATE_AND_TIME ( #368, #35 ) ;
#106 = DATE_AND_TIME ( #268, #162 ) ;
#107 = COORDINATED_UNIVERSAL_TIME_OFFSET ( 10, 0, .AHEAD. ) ;
#108 = CC_DESIGN_PERSON_AND_ORGANIZATION_ASSIGNMENT ( #15, #262, ( #382 ) ) ;
#109 = CARTESIAN_POINT ( 'NONE',  ( 0.000000000000000000, 0.000000000000000000, 0.000000000000000000 ) ) ;
#110 = PRODUCT_DEFINITION_SHAPE ( 'NONE', 'NONE',  #341 ) ;
#111 = CALENDAR_DATE ( 2026, 22, 6 ) ;
#112 = LOCAL_TIME ( 18, 49, 55.00000000000000000, #330 ) ;
#113 = APPROVAL ( #303, 'Coincident' ) ;
#114 = APPROVAL_DATE_TIME ( #296, #123 ) ;
#115 = CARTESIAN_POINT ( 'NONE',  ( 8.300011688202999949, 24.12501171875000239, 0.000000000000000000 ) ) ;
#116 = CALENDAR_DATE ( 2026, 22, 6 ) ;
#117 = APPLICATION_PROTOCOL_DEFINITION ( 'international standard', 'config_control_design', 1994, #350 ) ;
#118 = APPLICATION_PROTOCOL_DEFINITION ( 'international standard', 'config_control_design', 1994, #189 ) ;
#119 = AXIS2_PLACEMENT_3D ( 'NONE', #300, #179, #82 ) ;
#120 = LOCAL_TIME ( 18, 49, 55.00000000000000000, #13 ) ;
#121 = PROPERTY_DEFINITION_REPRESENTATION ( #319, #252 ) ;
#122 = COORDINATED_UNIVERSAL_TIME_OFFSET ( 10, 0, .AHEAD. ) ;
#123 = APPROVAL ( #323, 'UNKNOWN' ) ;
#124 = PERSON_AND_ORGANIZATION ( #18446744073709551615, #18446744073709551615 ) ;
#125 = CALENDAR_DATE ( 2026, 22, 6 ) ;
#126 = APPLICATION_CONTEXT ( 'configuration controlled 3d designs of mechanical parts and assemblies' ) ;
#127 = AXIS2_PLACEMENT_3D ( 'NONE', #109, #18, #144 ) ;
#128 = CC_DESIGN_DATE_AND_TIME_ASSIGNMENT ( #95, #39, ( #145 ) ) ;
#129 = LOCAL_TIME ( 18, 49, 55.00000000000000000, #107 ) ;
#130 = PERSON_AND_ORGANIZATION ( #18446744073709551615, #18446744073709551615 ) ;
#131 = APPROVAL_DATE_TIME ( #105, #274 ) ;
#132 = PRODUCT_DEFINITION_FORMATION_WITH_SPECIFIED_SOURCE ( 'Symmetric', '', #269, .NOT_KNOWN. ) ;
#133 = LOCAL_TIME ( 18, 49, 55.00000000000000000, #26 ) ;
#134 = DATE_AND_TIME ( #260, #278 ) ;
#135 =( REPRESENTATION_RELATIONSHIP ('NONE','NONE', #344, #252 ) REPRESENTATION_RELATIONSHIP_WITH_TRANSFORMATION ( #212 )SHAPE_REPRESENTATION_RELATIONSHIP( ) );
#136 = CC_DESIGN_DATE_AND_TIME_ASSIGNMENT ( #318, #244, ( #321 ) ) ;
#137 = APPROVAL_STATUS ( 'not_yet_approved' ) ;
#138 = APPROVAL_ROLE ( '' ) ;
#139 = APPLIED_EXTERNAL_IDENTIFICATION_ASSIGNMENT ( '6461075776.step.STEP' , #88, #148,( #203) ) ;
#140 =( NAMED_UNIT ( * ) SI_UNIT ( $, .STERADIAN. ) SOLID_ANGLE_UNIT ( ) );
#141 = PRODUCT_DEFINITION_SHAPE ( 'NONE', 'NONE',  #390 ) ;
#142 = DOCUMENT_TYPE ( 'geometry' ) ;
#143 = ROLE_ASSOCIATION ( #27, #273 ) ;
#144 = DIRECTION ( 'NONE',  ( 1.000000000000000000, 0.000000000000000000, 0.000000000000000000 ) ) ;
#145 = PRODUCT_DEFINITION ( 'General', '', #132, #150 ) ;
#146 = APPROVAL_STATUS ( 'not_yet_approved' ) ;
#147 = CC_DESIGN_SECURITY_CLASSIFICATION ( #286, ( #388 ) ) ;
#148 = EXTERNAL_SOURCE (IDENTIFIER('') ) ;
#149 = CONTEXT_DEPENDENT_SHAPE_REPRESENTATION ( #216, #202 ) ;
#150 = DESIGN_CONTEXT ( 'detailed design', #189, 'design' ) ;
#151 = CALENDAR_DATE ( 2026, 22, 6 ) ;
#152 = CC_DESIGN_PERSON_AND_ORGANIZATION_ASSIGNMENT ( #168, #376, ( #382 ) ) ;
#153 = PERSON_AND_ORGANIZATION ( #25, #335 ) ;
#154 = DATE_AND_TIME ( #254, #339 ) ;
#155 = APPROVAL_PERSON_ORGANIZATION ( #8, #113, #284 ) ;
#156 = AXIS2_PLACEMENT_3D ( 'NONE', #115, #178, #247 ) ;
#157 = ORGANIZATION ( 'NAUO-ORG96', 'UNSPECIFIED', 'UNSPECIFIED' ) ;
#158 = DATE_AND_TIME ( #365, #112 ) ;
#159 = DATE_TIME_ROLE ( 'classification_date' ) ;
#160 = CC_DESIGN_DATE_AND_TIME_ASSIGNMENT ( #100, #295, ( #341 ) ) ;
#161 =( GEOMETRIC_REPRESENTATION_CONTEXT ( 3 ) GLOBAL_UNCERTAINTY_ASSIGNED_CONTEXT ( ( #357 ) ) GLOBAL_UNIT_ASSIGNED_CONTEXT ( ( #214, #245, #140 ) ) REPRESENTATION_CONTEXT ( 'NONE', 'WORKASPACE' ) );
#162 = LOCAL_TIME ( 18, 49, 55.00000000000000000, #73 ) ;
#163 = PERSON_AND_ORGANIZATION_ROLE ( 'design_supplier' ) ;
#164 = APPROVAL_ROLE ( '' ) ;
#165 = CC_DESIGN_DATE_AND_TIME_ASSIGNMENT ( #280, #93, ( #55 ) ) ;
#166 = PERSON_AND_ORGANIZATION_ROLE ( 'creator' ) ;
#167 = PRODUCT_DEFINITION_FORMATION_WITH_SPECIFIED_SOURCE ( 'Symmetric', '', #172, .NOT_KNOWN. ) ;
#168 = PERSON_AND_ORGANIZATION ( #18446744073709551615, #18446744073709551615 ) ;
#169 = PERSON_AND_ORGANIZATION ( #18446744073709551615, #18446744073709551615 ) ;
#170 = CC_DESIGN_PERSON_AND_ORGANIZATION_ASSIGNMENT ( #153, #308, ( #55 ) ) ;
#171 = COORDINATED_UNIVERSAL_TIME_OFFSET ( 10, 0, .AHEAD. ) ;
#172 = PRODUCT ( '6461076016.step', '6461076016.step', '', ( #233 ) ) ;
#173 =( GEOMETRIC_REPRESENTATION_CONTEXT ( 3 ) GLOBAL_UNCERTAINTY_ASSIGNED_CONTEXT ( ( #257 ) ) GLOBAL_UNIT_ASSIGNED_CONTEXT ( ( #277, #208, #24 ) ) REPRESENTATION_CONTEXT ( 'NONE', 'WORKASPACE' ) );
#174 = APPROVAL_ROLE ( '' ) ;
#175 = LOCAL_TIME ( 18, 49, 55.00000000000000000, #51 ) ;
#176 =( NAMED_UNIT ( * ) PLANE_ANGLE_UNIT ( ) SI_UNIT ( $, .RADIAN. ) );
#177 = APPROVAL_DATE_TIME ( #206, #89 ) ;
#178 = DIRECTION ( 'NONE',  ( 4.890937612370273194E-29, -3.155443620884047222E-30, 0.9999999999999997780 ) ) ;
#179 = DIRECTION ( 'NONE',  ( 4.890937612370273194E-29, -3.155443620884047222E-30, 0.9999999999999997780 ) ) ;
#180 = SECURITY_CLASSIFICATION_LEVEL ( 'unclassified' ) ;
#181 = DIRECTION ( 'NONE',  ( 1.000000000000000000, 0.000000000000000000, 0.000000000000000000 ) ) ;
#182 = CC_DESIGN_SECURITY_CLASSIFICATION ( #229, ( #167 ) ) ;
#183 = CC_DESIGN_PERSON_AND_ORGANIZATION_ASSIGNMENT ( #124, #190, ( #342 ) ) ;
#184 = DIRECTION ( 'NONE',  ( 1.000000000000000000, 0.000000000000000000, 0.000000000000000000 ) ) ;
#185 = APPROVAL_STATUS ( 'not_yet_approved' ) ;
#186 = APPROVAL_PERSON_ORGANIZATION ( #153, #61, #174 ) ;
#187 = APPROVAL ( #185, 'Coincident' ) ;
#188 = COORDINATED_UNIVERSAL_TIME_OFFSET ( 10, 0, .AHEAD. ) ;
#189 = APPLICATION_CONTEXT ( 'configuration controlled 3d designs of mechanical parts and assemblies' ) ;
#190 = PERSON_AND_ORGANIZATION_ROLE ( 'design_owner' ) ;
#191 = CALENDAR_DATE ( 2026, 22, 6 ) ;
#192 = CC_DESIGN_APPROVAL ( #61, ( #55 ) ) ;
#193 = PERSON_AND_ORGANIZATION ( #18446744073709551615, #18446744073709551615 ) ;
#194 = CC_DESIGN_PERSON_AND_ORGANIZATION_ASSIGNMENT ( #193, #334, ( #229 ) ) ;
#195 = DATE_TIME_ROLE ( 'classification_date' ) ;
#196 = COORDINATED_UNIVERSAL_TIME_OFFSET ( 10, 0, .AHEAD. ) ;
#197 = SECURITY_CLASSIFICATION ( '', '', #309 ) ;
#198 = APPLIED_EXTERNAL_IDENTIFICATION_ASSIGNMENT ( '6461076016.step.STEP' , #373, #75,( #222) ) ;
#199 = PERSON_AND_ORGANIZATION_ROLE ( 'design_owner' ) ;
#200 = CC_DESIGN_PERSON_AND_ORGANIZATION_ASSIGNMENT ( #307, #253, ( #197 ) ) ;
#201 = PRODUCT_DEFINITION_SHAPE ( 'NONE', 'NONE',  #145 ) ;
#202 = PRODUCT_DEFINITION_SHAPE ( 'NONE', 'NONE',  #389 ) ;
#203 = DOCUMENT_FILE ( '6461075776.step.STEP' , '', '', #352, '' ,$ ) ;
#204 = CC_DESIGN_APPROVAL ( #375, ( #145 ) ) ;
#205 = LOCAL_TIME ( 18, 49, 55.00000000000000000, #237 ) ;
#206 = DATE_AND_TIME ( #240, #387 ) ;
#207 = APPROVAL_PERSON_ORGANIZATION ( #87, #89, #299 ) ;
#208 =( NAMED_UNIT ( * ) PLANE_ANGLE_UNIT ( ) SI_UNIT ( $, .RADIAN. ) );
#209 = CC_DESIGN_PERSON_AND_ORGANIZATION_ASSIGNMENT ( #96, #69, ( #145 ) ) ;
#210 = ITEM_DEFINED_TRANSFORMATION ( 'NONE', 'NONE', #119,  #12 ) ;
#211 = CARTESIAN_POINT ( 'NONE',  ( 8.300011688203001725, 22.32500866699200515, -1.734723475976807094E-15 ) ) ;
#212 = ITEM_DEFINED_TRANSFORMATION ( 'NONE', 'NONE', #263,  #127 ) ;
#213 = CARTESIAN_POINT ( 'NONE',  ( 0.000000000000000000, 0.000000000000000000, 0.000000000000000000 ) ) ;
#214 =( LENGTH_UNIT ( ) NAMED_UNIT ( * ) SI_UNIT ( .MILLI., .METRE. ) );
#215 = CC_DESIGN_APPROVAL ( #187, ( #197 ) ) ;
#216 =( REPRESENTATION_RELATIONSHIP ('NONE','NONE', #344, #322 ) REPRESENTATION_RELATIONSHIP_WITH_TRANSFORMATION ( #210 )SHAPE_REPRESENTATION_RELATIONSHIP( ) );
#217 = APPLIED_DOCUMENT_REFERENCE ( #353,'',( #341) ) ;
#218 = DIRECTION ( 'NONE',  ( 0.000000000000000000, 0.000000000000000000, 1.000000000000000000 ) ) ;
#219 = APPROVAL_DATE_TIME ( #63, #187 ) ;
#220 = APPROVAL ( #137, 'Coincident' ) ;
#221 = APPLICATION_CONTEXT ( 'configuration controlled 3d designs of mechanical parts and assemblies' ) ;
#222 = DOCUMENT_FILE ( '6461076016.step.STEP' , '', '', #58, '' ,$ ) ;
#223 = SECURITY_CLASSIFICATION ( '', '', #337 ) ;
#224 = COORDINATED_UNIVERSAL_TIME_OFFSET ( 10, 0, .AHEAD. ) ;
#225 = PERSON_AND_ORGANIZATION ( #18446744073709551615, #18446744073709551615 ) ;
#226 = SECURITY_CLASSIFICATION_LEVEL ( 'unclassified' ) ;
#227 = CC_DESIGN_PERSON_AND_ORGANIZATION_ASSIGNMENT ( #38, #1, ( #37 ) ) ;
#228 = APPROVAL_PERSON_ORGANIZATION ( #74, #274, #164 ) ;
#229 = SECURITY_CLASSIFICATION ( '', '', #226 ) ;
#230 = PERSON_AND_ORGANIZATION_ROLE ( 'classification_officer' ) ;
#231 = DATE_AND_TIME ( #288, #65 ) ;
#232 = APPROVAL ( #294, 'Coincident' ) ;
#233 = MECHANICAL_CONTEXT ( 'NONE', #20, 'mechanical' ) ;
#234 = PERSON ( 'NAUO-PER95', 'UNSPECIFIED', 'UNSPECIFIED', ('UNSPECIFIED'), ('UNSPECIFIED'), ('UNSPECIFIED') ) ;
#235 = CC_DESIGN_APPROVAL ( #232, ( #382 ) ) ;
#236 = APPROVAL_DATE_TIME ( #106, #56 ) ;
#237 = COORDINATED_UNIVERSAL_TIME_OFFSET ( 10, 0, .AHEAD. ) ;
#238 = PRODUCT_DEFINITION_SHAPE ( 'NONE', 'NONE',  #37 ) ;
#239 = CARTESIAN_POINT ( 'NONE',  ( 0.000000000000000000, 0.000000000000000000, 0.000000000000000000 ) ) ;
#240 = CALENDAR_DATE ( 2026, 22, 6 ) ;
#241 = PERSON_AND_ORGANIZATION ( #18446744073709551615, #18446744073709551615 ) ;
#242 = CC_DESIGN_PERSON_AND_ORGANIZATION_ASSIGNMENT ( #87, #90, ( #321 ) ) ;
#243 = APPLIED_EXTERNAL_IDENTIFICATION_ASSIGNMENT ( '6461076016.step.STEP' , #343, #5,( #353) ) ;
#244 = DATE_TIME_ROLE ( 'classification_date' ) ;
#245 =( NAMED_UNIT ( * ) PLANE_ANGLE_UNIT ( ) SI_UNIT ( $, .RADIAN. ) );
#246 = PROPERTY_DEFINITION_REPRESENTATION ( #21, #322 ) ;
#247 = DIRECTION ( 'NONE',  ( 1.000000000000000222, -1.092455418989176591E-28, 4.890937612370273194E-29 ) ) ;
#248 = CC_DESIGN_DATE_AND_TIME_ASSIGNMENT ( #381, #276, ( #286 ) ) ;
#249 = CALENDAR_DATE ( 2026, 22, 6 ) ;
#250 = MECHANICAL_CONTEXT ( 'NONE', #350, 'mechanical' ) ;
#251 = APPROVAL_ROLE ( '' ) ;
#252 = SHAPE_REPRESENTATION ( '6461076016.step', ( #127 ), #327 ) ;
#253 = PERSON_AND_ORGANIZATION_ROLE ( 'classification_officer' ) ;
#254 = CALENDAR_DATE ( 2026, 22, 6 ) ;
#255 = APPROVAL_STATUS ( 'not_yet_approved' ) ;
#256 = AXIS2_PLACEMENT_3D ( 'NONE', #213, #218, #184 ) ;
#257 = UNCERTAINTY_MEASURE_WITH_UNIT (LENGTH_MEASURE( 1.000000000000000082E-05 ), #277, 'distance_accuracy_value', 'NONE');
#258 = DATE_AND_TIME ( #99, #369 ) ;
#259 = CC_DESIGN_PERSON_AND_ORGANIZATION_ASSIGNMENT ( #3, #332, ( #132 ) ) ;
#260 = CALENDAR_DATE ( 2026, 22, 6 ) ;
#261 = PROPERTY_DEFINITION ('external definition','', #222 ) ;
#262 = PERSON_AND_ORGANIZATION_ROLE ( 'design_supplier' ) ;
#263 = AXIS2_PLACEMENT_3D ( 'NONE', #211, #355, #272 ) ;
#264 = LOCAL_TIME ( 18, 49, 55.00000000000000000, #317 ) ;
#265 = APPROVAL_DATE_TIME ( #134, #220 ) ;
#266 = CC_DESIGN_PERSON_AND_ORGANIZATION_ASSIGNMENT ( #78, #166, ( #341 ) ) ;
#267 = APPROVAL_ROLE ( '' ) ;
#268 = CALENDAR_DATE ( 2026, 22, 6 ) ;
#269 = PRODUCT ( 'C31.step', 'C31.step', '', ( #250 ) ) ;
#270 = CC_DESIGN_SECURITY_CLASSIFICATION ( #223, ( #382 ) ) ;
#271 = APPROVAL_STATUS ( 'not_yet_approved' ) ;
#272 = DIRECTION ( 'NONE',  ( 1.000000000000000222, -1.092455418989176591E-28, 4.890937612370273194E-29 ) ) ;
#273 = APPLIED_DOCUMENT_REFERENCE ( #222,'',( #341) ) ;
#274 = APPROVAL ( #374, 'Coincident' ) ;
#275 = OBJECT_ROLE ('mandatory',$ ) ;
#276 = DATE_TIME_ROLE ( 'classification_date' ) ;
#277 =( LENGTH_UNIT ( ) NAMED_UNIT ( * ) SI_UNIT ( .MILLI., .METRE. ) );
#278 = LOCAL_TIME ( 18, 49, 55.00000000000000000, #338 ) ;
#279 = SECURITY_CLASSIFICATION_LEVEL ( 'unclassified' ) ;
#280 = DATE_AND_TIME ( #302, #129 ) ;
#281 = SHAPE_DEFINITION_REPRESENTATION ( #201, #344 ) ;
#282 = APPLICATION_PROTOCOL_DEFINITION ( 'international standard', 'config_control_design', 1994, #359 ) ;
#283 = MECHANICAL_CONTEXT ( 'NONE', #126, 'mechanical' ) ;
#284 = APPROVAL_ROLE ( '' ) ;
#285 = APPROVAL_ROLE ( '' ) ;
#286 = SECURITY_CLASSIFICATION ( '', '', #351 ) ;
#287 = CC_DESIGN_PERSON_AND_ORGANIZATION_ASSIGNMENT ( #340, #102, ( #167 ) ) ;
#288 = CALENDAR_DATE ( 2026, 22, 6 ) ;
#289 = CALENDAR_DATE ( 2026, 22, 6 ) ;
#290 = PERSON_AND_ORGANIZATION ( #18446744073709551615, #18446744073709551615 ) ;
#291 = CC_DESIGN_PERSON_AND_ORGANIZATION_ASSIGNMENT ( #130, #230, ( #223 ) ) ;
#292 = APPROVAL_PERSON_ORGANIZATION ( #225, #71, #251 ) ;
#293 = CC_DESIGN_SECURITY_CLASSIFICATION ( #321, ( #389 ) ) ;
#294 = APPROVAL_STATUS ( 'not_yet_approved' ) ;
#295 = DATE_TIME_ROLE ( 'creation_date' ) ;
#296 = DATE_AND_TIME ( #116, #364 ) ;
#297 = CC_DESIGN_DATE_AND_TIME_ASSIGNMENT ( #154, #159, ( #197 ) ) ;
#298 = SHAPE_DEFINITION_REPRESENTATION ( #110, #252 ) ;
#299 = APPROVAL_ROLE ( '' ) ;
#300 = CARTESIAN_POINT ( 'NONE',  ( 8.300011688203001725, 23.22501782226600398, 0.000000000000000000 ) ) ;
#301 = CC_DESIGN_APPROVAL ( #89, ( #321 ) ) ;
#302 = CALENDAR_DATE ( 2026, 22, 6 ) ;
#303 = APPROVAL_STATUS ( 'not_yet_approved' ) ;
#304 = APPROVAL_DATE_TIME ( #94, #113 ) ;
#305 = APPROVAL_PERSON_ORGANIZATION ( #169, #220, #267 ) ;
#306 = DATE_AND_TIME ( #125, #28 ) ;
#307 = PERSON_AND_ORGANIZATION ( #18446744073709551615, #18446744073709551615 ) ;
#308 = PERSON_AND_ORGANIZATION_ROLE ( 'classification_officer' ) ;
#309 = SECURITY_CLASSIFICATION_LEVEL ( 'unclassified' ) ;
#310 = PRODUCT_RELATED_PRODUCT_CATEGORY ( 'detail', '', ( #172 ) ) ;
#311 = PERSON_AND_ORGANIZATION ( #18446744073709551615, #18446744073709551615 ) ;
#312 = APPROVAL_PERSON_ORGANIZATION ( #29, #123, #52 ) ;
#313 = PERSON_AND_ORGANIZATION ( #18446744073709551615, #18446744073709551615 ) ;
#314 = DATE_AND_TIME ( #191, #120 ) ;
#315 = APPLICATION_PROTOCOL_DEFINITION ( 'international standard', 'config_control_design', 1994, #20 ) ;
#316 = CC_DESIGN_APPROVAL ( #56, ( #167 ) ) ;
#317 = COORDINATED_UNIVERSAL_TIME_OFFSET ( 10, 0, .AHEAD. ) ;
#318 = DATE_AND_TIME ( #380, #14 ) ;
#319 = PROPERTY_DEFINITION ('document property','', #353 ) ;
#320 = APPROVAL_DATE_TIME ( #80, #61 ) ;
#321 = SECURITY_CLASSIFICATION ( '', '', #279 ) ;
#322 = SHAPE_REPRESENTATION ( '6461075776.step', ( #12 ), #161 ) ;
#323 = APPROVAL_STATUS ( 'not_yet_approved' ) ;
#324 = CC_DESIGN_DATE_AND_TIME_ASSIGNMENT ( #46, #195, ( #229 ) ) ;
#325 = COORDINATED_UNIVERSAL_TIME_OFFSET ( 10, 0, .AHEAD. ) ;
#326 = APPROVAL_STATUS ( 'not_yet_approved' ) ;
#327 =( GEOMETRIC_REPRESENTATION_CONTEXT ( 3 ) GLOBAL_UNCERTAINTY_ASSIGNED_CONTEXT ( ( #361 ) ) GLOBAL_UNIT_ASSIGNED_CONTEXT ( ( #54, #176, #30 ) ) REPRESENTATION_CONTEXT ( 'NONE', 'WORKASPACE' ) );
#328 = LOCAL_TIME ( 18, 49, 55.00000000000000000, #45 ) ;
#329 = PERSON_AND_ORGANIZATION ( #18446744073709551615, #18446744073709551615 ) ;
#330 = COORDINATED_UNIVERSAL_TIME_OFFSET ( 10, 0, .AHEAD. ) ;
#331 = APPROVAL_PERSON_ORGANIZATION ( #329, #187, #285 ) ;
#332 = PERSON_AND_ORGANIZATION_ROLE ( 'design_supplier' ) ;
#333 = APPROVAL_DATE_TIME ( #158, #71 ) ;
#334 = PERSON_AND_ORGANIZATION_ROLE ( 'classification_officer' ) ;
#335 = ORGANIZATION ( 'NAUO-ORG97', 'UNSPECIFIED', 'UNSPECIFIED' ) ;
#336 = COORDINATED_UNIVERSAL_TIME_OFFSET ( 10, 0, .AHEAD. ) ;
#337 = SECURITY_CLASSIFICATION_LEVEL ( 'unclassified' ) ;
#338 = COORDINATED_UNIVERSAL_TIME_OFFSET ( 10, 0, .AHEAD. ) ;
#339 = LOCAL_TIME ( 18, 49, 55.00000000000000000, #358 ) ;
#340 = PERSON_AND_ORGANIZATION ( #18446744073709551615, #18446744073709551615 ) ;
#341 = PRODUCT_DEFINITION ( 'General', '', #167, #2 ) ;
#342 = PRODUCT ( '6461075776.step', '6461075776.step', '', ( #283 ) ) ;
#343 = IDENTIFICATION_ROLE ( 'external document id and location', $) ;
#344 = SHAPE_REPRESENTATION ( 'C31.step', ( #256, #156, #119, #263 ), #173 ) ;
#345 = CALENDAR_DATE ( 2026, 22, 6 ) ;
#346 = PROPERTY_DEFINITION ('external definition','', #353 ) ;
#347 = DATE_AND_TIME ( #111, #175 ) ;
#348 = DIRECTION ( 'NONE',  ( 0.000000000000000000, 0.000000000000000000, 1.000000000000000000 ) ) ;
#349 = CC_DESIGN_DATE_AND_TIME_ASSIGNMENT ( #306, #77, ( #37 ) ) ;
#350 = APPLICATION_CONTEXT ( 'configuration controlled 3d designs of mechanical parts and assemblies' ) ;
#351 = SECURITY_CLASSIFICATION_LEVEL ( 'unclassified' ) ;
#352 = DOCUMENT_TYPE ( 'geometry' ) ;
#353 = DOCUMENT_FILE ( '6461076016.step.STEP' , '', '', #142, '' ,$ ) ;
#354 = CONTEXT_DEPENDENT_SHAPE_REPRESENTATION ( #135, #141 ) ;
#355 = DIRECTION ( 'NONE',  ( 4.890937612370273194E-29, -3.155443620884047222E-30, 0.9999999999999997780 ) ) ;
#356 = CALENDAR_DATE ( 2026, 22, 6 ) ;
#357 = UNCERTAINTY_MEASURE_WITH_UNIT (LENGTH_MEASURE( 1.000000000000000082E-05 ), #214, 'distance_accuracy_value', 'NONE');
#358 = COORDINATED_UNIVERSAL_TIME_OFFSET ( 10, 0, .AHEAD. ) ;
#359 = APPLICATION_CONTEXT ( 'configuration controlled 3d designs of mechanical parts and assemblies' ) ;
#360 = PERSON_AND_ORGANIZATION ( #18446744073709551615, #18446744073709551615 ) ;
#361 = UNCERTAINTY_MEASURE_WITH_UNIT (LENGTH_MEASURE( 1.000000000000000082E-05 ), #54, 'distance_accuracy_value', 'NONE');
#362 = PROPERTY_DEFINITION_REPRESENTATION ( #346, #252 ) ;
#363 = CC_DESIGN_APPROVAL ( #71, ( #132 ) ) ;
#364 = LOCAL_TIME ( 18, 49, 55.00000000000000000, #325 ) ;
#365 = CALENDAR_DATE ( 2026, 22, 6 ) ;
#366 = PERSON_AND_ORGANIZATION_ROLE ( 'design_owner' ) ;
#367 = PROPERTY_DEFINITION ('document property','', #222 ) ;
#368 = CALENDAR_DATE ( 2026, 22, 6 ) ;
#369 = LOCAL_TIME ( 18, 49, 55.00000000000000000, #122 ) ;
#370 = APPLICATION_PROTOCOL_DEFINITION ( 'international standard', 'config_control_design', 1994, #221 ) ;
#371 = ORGANIZATION ( 'NAUO-ORG95', 'UNSPECIFIED', 'UNSPECIFIED' ) ;
#372 = DATE_TIME_ROLE ( 'classification_date' ) ;
#373 = IDENTIFICATION_ROLE ( 'external document id and location', $) ;
#374 = APPROVAL_STATUS ( 'not_yet_approved' ) ;
#375 = APPROVAL ( #255, 'Coincident' ) ;
#376 = PERSON_AND_ORGANIZATION_ROLE ( 'creator' ) ;
#377 = COORDINATED_UNIVERSAL_TIME_OFFSET ( 10, 0, .AHEAD. ) ;
#378 = APPROVAL_PERSON_ORGANIZATION ( #16, #56, #138 ) ;
#379 = ITEM_DEFINED_TRANSFORMATION ( 'NONE', 'NONE', #156,  #127 ) ;
#380 = CALENDAR_DATE ( 2026, 22, 6 ) ;
#381 = DATE_AND_TIME ( #249, #133 ) ;
#382 = PRODUCT_DEFINITION_FORMATION_WITH_SPECIFIED_SOURCE ( 'Symmetric', '', #342, .NOT_KNOWN. ) ;
#383 = ROLE_ASSOCIATION ( #44, #385 ) ;
#384 = PERSON ( 'NAUO-PER96', 'UNSPECIFIED', 'UNSPECIFIED', ('UNSPECIFIED'), ('UNSPECIFIED'), ('UNSPECIFIED') ) ;
#385 = APPLIED_DOCUMENT_REFERENCE ( #203,'',( #37) ) ;
#386 = PRODUCT_RELATED_PRODUCT_CATEGORY ( 'detail', '', ( #269 ) ) ;
#387 = LOCAL_TIME ( 18, 49, 55.00000000000000000, #171 ) ;
#388 = NEXT_ASSEMBLY_USAGE_OCCURRENCE ( 'NAUO95', ' ', ' ', #145, #341, $ ) ;
#389 = NEXT_ASSEMBLY_USAGE_OCCURRENCE ( 'NAUO96', ' ', ' ', #145, #37, $ ) ;
#390 = NEXT_ASSEMBLY_USAGE_OCCURRENCE ( 'NAUO97', ' ', ' ', #145, #341, $ ) ;
ENDSEC;
END-ISO-10303-21;
