ISO-10303-21;
HEADER;
FILE_DESCRIPTION (( 'STEP AP203' ),
    '1' );
FILE_NAME ('C32.step.STEP',
    '2026-06-22T08:49:54',
    ( 'localuser' ),
    ( '' ),
    'SwSTEP 2.0',
    'SolidWorks 2025',
    '' );
FILE_SCHEMA (( 'CONFIG_CONTROL_DESIGN' ));
ENDSEC;

DATA;
#1 = PERSON_AND_ORGANIZATION_ROLE ( 'creator' ) ;
#2 = CALENDAR_DATE ( 2026, 22, 6 ) ;
#3 = MECHANICAL_CONTEXT ( 'NONE', #75, 'mechanical' ) ;
#4 = LOCAL_TIME ( 18, 49, 54.00000000000000000, #308 ) ;
#5 = DATE_TIME_ROLE ( 'classification_date' ) ;
#6 = CALENDAR_DATE ( 2026, 22, 6 ) ;
#7 = PERSON ( 'NAUO-PER89', 'UNSPECIFIED', 'UNSPECIFIED', ('UNSPECIFIED'), ('UNSPECIFIED'), ('UNSPECIFIED') ) ;
#8 = DIRECTION ( 'NONE',  ( 4.890937612370273194E-29, -3.155443620884047222E-30, 0.9999999999999997780 ) ) ;
#9 = PRODUCT_DEFINITION ( 'General', '', #278, #326 ) ;
#10 = APPROVAL_STATUS ( 'not_yet_approved' ) ;
#11 =( LENGTH_UNIT ( ) NAMED_UNIT ( * ) SI_UNIT ( .MILLI., .METRE. ) );
#12 = EXTERNAL_SOURCE (IDENTIFIER('') ) ;
#13 = PERSON_AND_ORGANIZATION ( #378, #296 ) ;
#14 = CONTEXT_DEPENDENT_SHAPE_REPRESENTATION ( #315, #165 ) ;
#15 = DATE_AND_TIME ( #157, #266 ) ;
#16 = CALENDAR_DATE ( 2026, 22, 6 ) ;
#17 = APPLIED_EXTERNAL_IDENTIFICATION_ASSIGNMENT ( '6461083056.step.STEP' , #133, #228,( #318) ) ;
#18 = IDENTIFICATION_ROLE ( 'external document id and location', $) ;
#19 = MECHANICAL_CONTEXT ( 'NONE', #181, 'mechanical' ) ;
#20 = DATE_AND_TIME ( #292, #190 ) ;
#21 = CONTEXT_DEPENDENT_SHAPE_REPRESENTATION ( #138, #44 ) ;
#22 = PERSON_AND_ORGANIZATION_ROLE ( 'creator' ) ;
#23 = LOCAL_TIME ( 18, 49, 54.00000000000000000, #31 ) ;
#24 = PERSON_AND_ORGANIZATION_ROLE ( 'classification_officer' ) ;
#25 = APPROVAL_STATUS ( 'not_yet_approved' ) ;
#26 = CALENDAR_DATE ( 2026, 22, 6 ) ;
#27 = AXIS2_PLACEMENT_3D ( 'NONE', #97, #222, #284 ) ;
#28 = ORGANIZATION ( 'NAUO-ORG89', 'UNSPECIFIED', 'UNSPECIFIED' ) ;
#29 = APPROVAL ( #10, 'UNKNOWN' ) ;
#30 = PERSON_AND_ORGANIZATION_ROLE ( 'classification_officer' ) ;
#31 = COORDINATED_UNIVERSAL_TIME_OFFSET ( 10, 0, .AHEAD. ) ;
#32 = PERSON_AND_ORGANIZATION ( #18446744073709551615, #18446744073709551615 ) ;
#33 = CALENDAR_DATE ( 2026, 22, 6 ) ;
#34 = CARTESIAN_POINT ( 'NONE',  ( 0.000000000000000000, 0.000000000000000000, 0.000000000000000000 ) ) ;
#35 = CC_DESIGN_APPROVAL ( #295, ( #206 ) ) ;
#36 = DIRECTION ( 'NONE',  ( 1.000000000000000222, -1.092455418989176591E-28, 4.890937612370273194E-29 ) ) ;
#37 = CC_DESIGN_PERSON_AND_ORGANIZATION_ASSIGNMENT ( #51, #230, ( #66 ) ) ;
#38 = IDENTIFICATION_ROLE ( 'external document id and location', $) ;
#39 = SECURITY_CLASSIFICATION_LEVEL ( 'unclassified' ) ;
#40 = APPLIED_DOCUMENT_REFERENCE ( #318,'',( #9) ) ;
#41 =( GEOMETRIC_REPRESENTATION_CONTEXT ( 3 ) GLOBAL_UNCERTAINTY_ASSIGNED_CONTEXT ( ( #50 ) ) GLOBAL_UNIT_ASSIGNED_CONTEXT ( ( #213, #332, #184 ) ) REPRESENTATION_CONTEXT ( 'NONE', 'WORKASPACE' ) );
#42 = APPROVAL_PERSON_ORGANIZATION ( #313, #356, #80 ) ;
#43 = PROPERTY_DEFINITION_REPRESENTATION ( #73, #143 ) ;
#44 = PRODUCT_DEFINITION_SHAPE ( 'NONE', 'NONE',  #390 ) ;
#45 = PRODUCT_DEFINITION_SHAPE ( 'NONE', 'NONE',  #388 ) ;
#46 = CALENDAR_DATE ( 2026, 22, 6 ) ;
#47 = CC_DESIGN_APPROVAL ( #164, ( #278 ) ) ;
#48 = CC_DESIGN_DATE_AND_TIME_ASSIGNMENT ( #270, #88, ( #321 ) ) ;
#49 = APPROVAL_ROLE ( '' ) ;
#50 = UNCERTAINTY_MEASURE_WITH_UNIT (LENGTH_MEASURE( 1.000000000000000082E-05 ), #213, 'distance_accuracy_value', 'NONE');
#51 = PERSON_AND_ORGANIZATION ( #18446744073709551615, #18446744073709551615 ) ;
#52 = PERSON_AND_ORGANIZATION ( #18446744073709551615, #18446744073709551615 ) ;
#53 = PRODUCT_RELATED_PRODUCT_CATEGORY ( 'detail', '', ( #229 ) ) ;
#54 = SECURITY_CLASSIFICATION ( '', '', #371 ) ;
#55 = DATE_AND_TIME ( #16, #376 ) ;
#56 = APPROVAL_DATE_TIME ( #85, #324 ) ;
#57 = SECURITY_CLASSIFICATION_LEVEL ( 'unclassified' ) ;
#58 = APPROVAL_PERSON_ORGANIZATION ( #268, #329, #49 ) ;
#59 = CC_DESIGN_APPROVAL ( #356, ( #89 ) ) ;
#60 = CC_DESIGN_PERSON_AND_ORGANIZATION_ASSIGNMENT ( #302, #30, ( #167 ) ) ;
#61 = COORDINATED_UNIVERSAL_TIME_OFFSET ( 10, 0, .AHEAD. ) ;
#62 = SHAPE_REPRESENTATION ( 'C32.step', ( #283, #27, #77, #367 ), #196 ) ;
#63 = SECURITY_CLASSIFICATION_LEVEL ( 'unclassified' ) ;
#64 =( LENGTH_UNIT ( ) NAMED_UNIT ( * ) SI_UNIT ( .MILLI., .METRE. ) );
#65 = PERSON_AND_ORGANIZATION ( #18446744073709551615, #18446744073709551615 ) ;
#66 = PRODUCT_DEFINITION ( 'General', '', #340, #352 ) ;
#67 = APPLIED_EXTERNAL_IDENTIFICATION_ASSIGNMENT ( '6461082896.step.STEP' , #38, #12,( #310) ) ;
#68 = COORDINATED_UNIVERSAL_TIME_OFFSET ( 10, 0, .AHEAD. ) ;
#69 = COORDINATED_UNIVERSAL_TIME_OFFSET ( 10, 0, .AHEAD. ) ;
#70 = ITEM_DEFINED_TRANSFORMATION ( 'NONE', 'NONE', #27,  #320 ) ;
#71 = APPROVAL_DATE_TIME ( #339, #273 ) ;
#72 = APPROVAL_PERSON_ORGANIZATION ( #93, #164, #214 ) ;
#73 = PROPERTY_DEFINITION ('document property','', #310 ) ;
#74 = APPROVAL_DATE_TIME ( #347, #192 ) ;
#75 = APPLICATION_CONTEXT ( 'configuration controlled 3d designs of mechanical parts and assemblies' ) ;
#76 = APPROVAL ( #211, 'Coincident' ) ;
#77 = AXIS2_PLACEMENT_3D ( 'NONE', #309, #158, #36 ) ;
#78 = PERSON_AND_ORGANIZATION_ROLE ( 'design_owner' ) ;
#79 = LOCAL_TIME ( 18, 49, 54.00000000000000000, #68 ) ;
#80 = APPROVAL_ROLE ( '' ) ;
#81 = OBJECT_ROLE ('mandatory',$ ) ;
#82 = SHAPE_DEFINITION_REPRESENTATION ( #257, #62 ) ;
#83 = SECURITY_CLASSIFICATION_LEVEL ( 'unclassified' ) ;
#84 = LOCAL_TIME ( 18, 49, 54.00000000000000000, #276 ) ;
#85 = DATE_AND_TIME ( #86, #258 ) ;
#86 = CALENDAR_DATE ( 2026, 22, 6 ) ;
#87 = APPLICATION_CONTEXT ( 'configuration controlled 3d designs of mechanical parts and assemblies' ) ;
#88 = DATE_TIME_ROLE ( 'classification_date' ) ;
#89 = SECURITY_CLASSIFICATION ( '', '', #83 ) ;
#90 = CARTESIAN_POINT ( 'NONE',  ( 0.000000000000000000, 0.000000000000000000, 0.000000000000000000 ) ) ;
#91 = CC_DESIGN_APPROVAL ( #76, ( #321 ) ) ;
#92 = SHAPE_REPRESENTATION ( '6461083056.step', ( #320 ), #41 ) ;
#93 = PERSON_AND_ORGANIZATION ( #18446744073709551615, #18446744073709551615 ) ;
#94 = DIRECTION ( 'NONE',  ( 1.000000000000000000, 0.000000000000000000, 0.000000000000000000 ) ) ;
#95 = CC_DESIGN_PERSON_AND_ORGANIZATION_ASSIGNMENT ( #223, #162, ( #54 ) ) ;
#96 = COORDINATED_UNIVERSAL_TIME_OFFSET ( 10, 0, .AHEAD. ) ;
#97 = CARTESIAN_POINT ( 'NONE',  ( 10.39999871823200195, 22.44999340820300304, -2.058321952819998302 ) ) ;
#98 = PROPERTY_DEFINITION_REPRESENTATION ( #287, #143 ) ;
#99 = OBJECT_ROLE ('mandatory',$ ) ;
#100 = CC_DESIGN_SECURITY_CLASSIFICATION ( #89, ( #340 ) ) ;
#101 = COORDINATED_UNIVERSAL_TIME_OFFSET ( 10, 0, .AHEAD. ) ;
#102 = CC_DESIGN_DATE_AND_TIME_ASSIGNMENT ( #15, #253, ( #307 ) ) ;
#103 = MECHANICAL_CONTEXT ( 'NONE', #207, 'mechanical' ) ;
#104 = APPROVAL_DATE_TIME ( #285, #300 ) ;
#105 = PERSON_AND_ORGANIZATION_ROLE ( 'classification_officer' ) ;
#106 = APPROVAL_STATUS ( 'not_yet_approved' ) ;
#107 = APPROVAL_PERSON_ORGANIZATION ( #223, #300, #312 ) ;
#108 = CC_DESIGN_PERSON_AND_ORGANIZATION_ASSIGNMENT ( #262, #78, ( #166 ) ) ;
#109 = APPROVAL_ROLE ( '' ) ;
#110 = PRODUCT_DEFINITION_SHAPE ( 'NONE', 'NONE',  #9 ) ;
#111 = DIRECTION ( 'NONE',  ( 1.000000000000000000, 0.000000000000000000, 0.000000000000000000 ) ) ;
#112 = APPROVAL_STATUS ( 'not_yet_approved' ) ;
#113 = CC_DESIGN_APPROVAL ( #273, ( #167 ) ) ;
#114 = COORDINATED_UNIVERSAL_TIME_OFFSET ( 10, 0, .AHEAD. ) ;
#115 = COORDINATED_UNIVERSAL_TIME_OFFSET ( 10, 0, .AHEAD. ) ;
#116 = PERSON ( 'NAUO-PER88', 'UNSPECIFIED', 'UNSPECIFIED', ('UNSPECIFIED'), ('UNSPECIFIED'), ('UNSPECIFIED') ) ;
#117 = PERSON_AND_ORGANIZATION_ROLE ( 'creator' ) ;
#118 = CC_DESIGN_APPROVAL ( #300, ( #54 ) ) ;
#119 = CALENDAR_DATE ( 2026, 22, 6 ) ;
#120 = CC_DESIGN_PERSON_AND_ORGANIZATION_ASSIGNMENT ( #171, #175, ( #340 ) ) ;
#121 = DATE_AND_TIME ( #2, #327 ) ;
#122 = PERSON_AND_ORGANIZATION_ROLE ( 'creator' ) ;
#123 = APPROVAL_PERSON_ORGANIZATION ( #384, #192, #140 ) ;
#124 = CC_DESIGN_PERSON_AND_ORGANIZATION_ASSIGNMENT ( #290, #345, ( #340 ) ) ;
#125 = LOCAL_TIME ( 18, 49, 54.00000000000000000, #201 ) ;
#126 = COORDINATED_UNIVERSAL_TIME_OFFSET ( 10, 0, .AHEAD. ) ;
#127 = DIRECTION ( 'NONE',  ( 0.000000000000000000, 0.000000000000000000, 1.000000000000000000 ) ) ;
#128 = APPLIED_DOCUMENT_REFERENCE ( #310,'',( #386) ) ;
#129 = COORDINATED_UNIVERSAL_TIME_OFFSET ( 10, 0, .AHEAD. ) ;
#130 =( NAMED_UNIT ( * ) PLANE_ANGLE_UNIT ( ) SI_UNIT ( $, .RADIAN. ) );
#131 = CC_DESIGN_APPROVAL ( #359, ( #340 ) ) ;
#132 = DATE_TIME_ROLE ( 'classification_date' ) ;
#133 = IDENTIFICATION_ROLE ( 'external document id and location', $) ;
#134 = APPROVAL_STATUS ( 'not_yet_approved' ) ;
#135 = CALENDAR_DATE ( 2026, 22, 6 ) ;
#136 = LOCAL_TIME ( 18, 49, 54.00000000000000000, #182 ) ;
#137 = DATE_AND_TIME ( #353, #219 ) ;
#138 =( REPRESENTATION_RELATIONSHIP ('NONE','NONE', #62, #143 ) REPRESENTATION_RELATIONSHIP_WITH_TRANSFORMATION ( #163 )SHAPE_REPRESENTATION_RELATIONSHIP( ) );
#139 = PROPERTY_DEFINITION_REPRESENTATION ( #346, #143 ) ;
#140 = APPROVAL_ROLE ( '' ) ;
#141 = APPROVAL_PERSON_ORGANIZATION ( #357, #76, #144 ) ;
#142 = COORDINATED_UNIVERSAL_TIME_OFFSET ( 10, 0, .AHEAD. ) ;
#143 = SHAPE_REPRESENTATION ( '6461082896.step', ( #172 ), #360 ) ;
#144 = APPROVAL_ROLE ( '' ) ;
#145 = CC_DESIGN_PERSON_AND_ORGANIZATION_ASSIGNMENT ( #32, #297, ( #229 ) ) ;
#146 = APPROVAL_DATE_TIME ( #209, #164 ) ;
#147 = CC_DESIGN_APPROVAL ( #192, ( #66 ) ) ;
#148 = PERSON_AND_ORGANIZATION ( #18446744073709551615, #18446744073709551615 ) ;
#149 = DATE_AND_TIME ( #33, #23 ) ;
#150 = CC_DESIGN_DATE_AND_TIME_ASSIGNMENT ( #362, #177, ( #9 ) ) ;
#151 = DIRECTION ( 'NONE',  ( 1.000000000000000222, -1.092455418989176591E-28, 4.890937612370273194E-29 ) ) ;
#152 = CALENDAR_DATE ( 2026, 22, 6 ) ;
#153 = APPROVAL_PERSON_ORGANIZATION ( #52, #359, #109 ) ;
#154 = APPROVAL_PERSON_ORGANIZATION ( #241, #273, #217 ) ;
#155 = DATE_AND_TIME ( #368, #79 ) ;
#156 = DIRECTION ( 'NONE',  ( 0.000000000000000000, 0.000000000000000000, 1.000000000000000000 ) ) ;
#157 = CALENDAR_DATE ( 2026, 22, 6 ) ;
#158 = DIRECTION ( 'NONE',  ( 4.890937612370273194E-29, -3.155443620884047222E-30, 0.9999999999999997780 ) ) ;
#159 = CC_DESIGN_PERSON_AND_ORGANIZATION_ASSIGNMENT ( #350, #22, ( #386 ) ) ;
#160 = APPROVAL_ROLE ( '' ) ;
#161 = LOCAL_TIME ( 18, 49, 54.00000000000000000, #126 ) ;
#162 = PERSON_AND_ORGANIZATION_ROLE ( 'classification_officer' ) ;
#163 = ITEM_DEFINED_TRANSFORMATION ( 'NONE', 'NONE', #367,  #172 ) ;
#164 = APPROVAL ( #299, 'Coincident' ) ;
#165 = PRODUCT_DEFINITION_SHAPE ( 'NONE', 'NONE',  #389 ) ;
#166 = PRODUCT ( '6461082896.step', '6461082896.step', '', ( #19 ) ) ;
#167 = SECURITY_CLASSIFICATION ( '', '', #63 ) ;
#168 = APPLICATION_PROTOCOL_DEFINITION ( 'international standard', 'config_control_design', 1994, #181 ) ;
#169 = APPROVAL_STATUS ( 'not_yet_approved' ) ;
#170 = PROPERTY_DEFINITION_REPRESENTATION ( #259, #143 ) ;
#171 = PERSON_AND_ORGANIZATION ( #18446744073709551615, #18446744073709551615 ) ;
#172 = AXIS2_PLACEMENT_3D ( 'NONE', #34, #127, #180 ) ;
#173 = COORDINATED_UNIVERSAL_TIME_OFFSET ( 10, 0, .AHEAD. ) ;
#174 = APPROVAL_PERSON_ORGANIZATION ( #364, #295, #304 ) ;
#175 = PERSON_AND_ORGANIZATION_ROLE ( 'creator' ) ;
#176 = APPROVAL ( #333, 'UNKNOWN' ) ;
#177 = DATE_TIME_ROLE ( 'creation_date' ) ;
#178 = PERSON_AND_ORGANIZATION ( #18446744073709551615, #18446744073709551615 ) ;
#179 = DATE_AND_TIME ( #119, #341 ) ;
#180 = DIRECTION ( 'NONE',  ( 1.000000000000000000, 0.000000000000000000, 0.000000000000000000 ) ) ;
#181 = APPLICATION_CONTEXT ( 'configuration controlled 3d designs of mechanical parts and assemblies' ) ;
#182 = COORDINATED_UNIVERSAL_TIME_OFFSET ( 10, 0, .AHEAD. ) ;
#183 = APPROVAL_PERSON_ORGANIZATION ( #13, #176, #282 ) ;
#184 =( NAMED_UNIT ( * ) SI_UNIT ( $, .STERADIAN. ) SOLID_ANGLE_UNIT ( ) );
#185 = CC_DESIGN_PERSON_AND_ORGANIZATION_ASSIGNMENT ( #13, #105, ( #307 ) ) ;
#186 = APPROVAL_DATE_TIME ( #286, #29 ) ;
#187 =( NAMED_UNIT ( * ) SI_UNIT ( $, .STERADIAN. ) SOLID_ANGLE_UNIT ( ) );
#188 = DOCUMENT_TYPE ( 'geometry' ) ;
#189 = APPROVAL_DATE_TIME ( #250, #176 ) ;
#190 = LOCAL_TIME ( 18, 49, 54.00000000000000000, #115 ) ;
#191 = CONTEXT_DEPENDENT_SHAPE_REPRESENTATION ( #263, #45 ) ;
#192 = APPROVAL ( #260, 'Coincident' ) ;
#193 = PERSON_AND_ORGANIZATION ( #7, #28 ) ;
#194 = PRODUCT_DEFINITION_SHAPE ( 'NONE', 'NONE',  #386 ) ;
#195 = COORDINATED_UNIVERSAL_TIME_OFFSET ( 10, 0, .AHEAD. ) ;
#196 =( GEOMETRIC_REPRESENTATION_CONTEXT ( 3 ) GLOBAL_UNCERTAINTY_ASSIGNED_CONTEXT ( ( #244 ) ) GLOBAL_UNIT_ASSIGNED_CONTEXT ( ( #11, #275, #363 ) ) REPRESENTATION_CONTEXT ( 'NONE', 'WORKASPACE' ) );
#197 = APPLIED_EXTERNAL_IDENTIFICATION_ASSIGNMENT ( '6461082896.step.STEP' , #18, #380,( #338) ) ;
#198 = LOCAL_TIME ( 18, 49, 54.00000000000000000, #69 ) ;
#199 = APPROVAL_STATUS ( 'not_yet_approved' ) ;
#200 = CC_DESIGN_DATE_AND_TIME_ASSIGNMENT ( #155, #132, ( #54 ) ) ;
#201 = COORDINATED_UNIVERSAL_TIME_OFFSET ( 10, 0, .AHEAD. ) ;
#202 = APPLICATION_CONTEXT ( 'configuration controlled 3d designs of mechanical parts and assemblies' ) ;
#203 = LOCAL_TIME ( 18, 49, 54.00000000000000000, #142 ) ;
#204 = APPROVAL_DATE_TIME ( #351, #356 ) ;
#205 = CC_DESIGN_PERSON_AND_ORGANIZATION_ASSIGNMENT ( #294, #24, ( #89 ) ) ;
#206 = PRODUCT_DEFINITION_FORMATION_WITH_SPECIFIED_SOURCE ( 'Symmetric', '', #166, .NOT_KNOWN. ) ;
#207 = APPLICATION_CONTEXT ( 'configuration controlled 3d designs of mechanical parts and assemblies' ) ;
#208 = DATE_TIME_ROLE ( 'creation_date' ) ;
#209 = DATE_AND_TIME ( #26, #84 ) ;
#210 = CC_DESIGN_PERSON_AND_ORGANIZATION_ASSIGNMENT ( #178, #122, ( #9 ) ) ;
#211 = APPROVAL_STATUS ( 'not_yet_approved' ) ;
#212 = CC_DESIGN_SECURITY_CLASSIFICATION ( #307, ( #388 ) ) ;
#213 =( LENGTH_UNIT ( ) NAMED_UNIT ( * ) SI_UNIT ( .MILLI., .METRE. ) );
#214 = APPROVAL_ROLE ( '' ) ;
#215 = CALENDAR_DATE ( 2026, 22, 6 ) ;
#216 = CARTESIAN_POINT ( 'NONE',  ( 0.000000000000000000, 0.000000000000000000, 0.000000000000000000 ) ) ;
#217 = APPROVAL_ROLE ( '' ) ;
#218 = CC_DESIGN_DATE_AND_TIME_ASSIGNMENT ( #322, #208, ( #386 ) ) ;
#219 = LOCAL_TIME ( 18, 49, 54.00000000000000000, #265 ) ;
#220 = CC_DESIGN_SECURITY_CLASSIFICATION ( #334, ( #390 ) ) ;
#221 = CALENDAR_DATE ( 2026, 22, 6 ) ;
#222 = DIRECTION ( 'NONE',  ( 4.890937612370273194E-29, -3.155443620884047222E-30, 0.9999999999999997780 ) ) ;
#223 = PERSON_AND_ORGANIZATION ( #116, #238 ) ;
#224 = CC_DESIGN_PERSON_AND_ORGANIZATION_ASSIGNMENT ( #65, #328, ( #344 ) ) ;
#225 = CALENDAR_DATE ( 2026, 22, 6 ) ;
#226 = CC_DESIGN_APPROVAL ( #176, ( #307 ) ) ;
#227 = ITEM_DEFINED_TRANSFORMATION ( 'NONE', 'NONE', #77,  #172 ) ;
#228 = EXTERNAL_SOURCE (IDENTIFIER('') ) ;
#229 = PRODUCT ( 'C32.step', 'C32.step', '', ( #103 ) ) ;
#230 = PERSON_AND_ORGANIZATION_ROLE ( 'creator' ) ;
#231 = CALENDAR_DATE ( 2026, 22, 6 ) ;
#232 = APPROVAL_DATE_TIME ( #20, #329 ) ;
#233 = OBJECT_ROLE ('mandatory',$ ) ;
#234 = DATE_TIME_ROLE ( 'classification_date' ) ;
#235 = PRODUCT_RELATED_PRODUCT_CATEGORY ( 'detail', '', ( #166 ) ) ;
#236 = CALENDAR_DATE ( 2026, 22, 6 ) ;
#237 = PERSON_AND_ORGANIZATION_ROLE ( 'design_supplier' ) ;
#238 = ORGANIZATION ( 'NAUO-ORG88', 'UNSPECIFIED', 'UNSPECIFIED' ) ;
#239 = PERSON_AND_ORGANIZATION_ROLE ( 'classification_officer' ) ;
#240 = UNCERTAINTY_MEASURE_WITH_UNIT (LENGTH_MEASURE( 1.000000000000000082E-05 ), #64, 'distance_accuracy_value', 'NONE');
#241 = PERSON_AND_ORGANIZATION ( #18446744073709551615, #18446744073709551615 ) ;
#242 = PERSON_AND_ORGANIZATION ( #18446744073709551615, #18446744073709551615 ) ;
#243 = CC_DESIGN_APPROVAL ( #324, ( #9 ) ) ;
#244 = UNCERTAINTY_MEASURE_WITH_UNIT (LENGTH_MEASURE( 1.000000000000000082E-05 ), #11, 'distance_accuracy_value', 'NONE');
#245 = SHAPE_DEFINITION_REPRESENTATION ( #194, #143 ) ;
#246 = CC_DESIGN_DATE_AND_TIME_ASSIGNMENT ( #121, #5, ( #167 ) ) ;
#247 = CALENDAR_DATE ( 2026, 22, 6 ) ;
#248 = PROPERTY_DEFINITION ('external definition','', #318 ) ;
#249 = APPLICATION_PROTOCOL_DEFINITION ( 'international standard', 'config_control_design', 1994, #207 ) ;
#250 = DATE_AND_TIME ( #247, #354 ) ;
#251 = LOCAL_TIME ( 18, 49, 54.00000000000000000, #114 ) ;
#252 = CC_DESIGN_APPROVAL ( #329, ( #386 ) ) ;
#253 = DATE_TIME_ROLE ( 'classification_date' ) ;
#254 = CC_DESIGN_PERSON_AND_ORGANIZATION_ASSIGNMENT ( #193, #291, ( #334 ) ) ;
#255 = SECURITY_CLASSIFICATION_LEVEL ( 'unclassified' ) ;
#256 = COORDINATED_UNIVERSAL_TIME_OFFSET ( 10, 0, .AHEAD. ) ;
#257 = PRODUCT_DEFINITION_SHAPE ( 'NONE', 'NONE',  #66 ) ;
#258 = LOCAL_TIME ( 18, 49, 54.00000000000000000, #61 ) ;
#259 = PROPERTY_DEFINITION ('external definition','', #338 ) ;
#260 = APPROVAL_STATUS ( 'not_yet_approved' ) ;
#261 = CC_DESIGN_PERSON_AND_ORGANIZATION_ASSIGNMENT ( #330, #1, ( #278 ) ) ;
#262 = PERSON_AND_ORGANIZATION ( #18446744073709551615, #18446744073709551615 ) ;
#263 =( REPRESENTATION_RELATIONSHIP ('NONE','NONE', #62, #92 ) REPRESENTATION_RELATIONSHIP_WITH_TRANSFORMATION ( #70 )SHAPE_REPRESENTATION_RELATIONSHIP( ) );
#264 = DATE_TIME_ROLE ( 'classification_date' ) ;
#265 = COORDINATED_UNIVERSAL_TIME_OFFSET ( 10, 0, .AHEAD. ) ;
#266 = LOCAL_TIME ( 18, 49, 54.00000000000000000, #256 ) ;
#267 = DIRECTION ( 'NONE',  ( 0.000000000000000000, 0.000000000000000000, 1.000000000000000000 ) ) ;
#268 = PERSON_AND_ORGANIZATION ( #18446744073709551615, #18446744073709551615 ) ;
#269 = APPROVAL_DATE_TIME ( #149, #76 ) ;
#270 = DATE_AND_TIME ( #215, #136 ) ;
#271 = CC_DESIGN_APPROVAL ( #29, ( #334 ) ) ;
#272 = COORDINATED_UNIVERSAL_TIME_OFFSET ( 10, 0, .AHEAD. ) ;
#273 = APPROVAL ( #134, 'Coincident' ) ;
#274 = APPLICATION_PROTOCOL_DEFINITION ( 'international standard', 'config_control_design', 1994, #87 ) ;
#275 =( NAMED_UNIT ( * ) PLANE_ANGLE_UNIT ( ) SI_UNIT ( $, .RADIAN. ) );
#276 = COORDINATED_UNIVERSAL_TIME_OFFSET ( 10, 0, .AHEAD. ) ;
#277 = DOCUMENT_TYPE ( 'geometry' ) ;
#278 = PRODUCT_DEFINITION_FORMATION_WITH_SPECIFIED_SOURCE ( 'Symmetric', '', #344, .NOT_KNOWN. ) ;
#279 = SHAPE_DEFINITION_REPRESENTATION ( #110, #92 ) ;
#280 = CARTESIAN_POINT ( 'NONE',  ( 9.899998718232001949, 22.44999340820300660, -2.058321952820000078 ) ) ;
#281 = APPLICATION_CONTEXT ( 'configuration controlled 3d designs of mechanical parts and assemblies' ) ;
#282 = APPROVAL_ROLE ( '' ) ;
#283 = AXIS2_PLACEMENT_3D ( 'NONE', #90, #267, #111 ) ;
#284 = DIRECTION ( 'NONE',  ( 1.000000000000000222, -1.092455418989176591E-28, 4.890937612370273194E-29 ) ) ;
#285 = DATE_AND_TIME ( #6, #4 ) ;
#286 = DATE_AND_TIME ( #225, #198 ) ;
#287 = PROPERTY_DEFINITION ('external definition','', #310 ) ;
#288 = CC_DESIGN_PERSON_AND_ORGANIZATION_ASSIGNMENT ( #387, #239, ( #321 ) ) ;
#289 = LOCAL_TIME ( 18, 49, 54.00000000000000000, #342 ) ;
#290 = PERSON_AND_ORGANIZATION ( #18446744073709551615, #18446744073709551615 ) ;
#291 = PERSON_AND_ORGANIZATION_ROLE ( 'classification_officer' ) ;
#292 = CALENDAR_DATE ( 2026, 22, 6 ) ;
#293 = DESIGN_CONTEXT ( 'detailed design', #281, 'design' ) ;
#294 = PERSON_AND_ORGANIZATION ( #18446744073709551615, #18446744073709551615 ) ;
#295 = APPROVAL ( #358, 'Coincident' ) ;
#296 = ORGANIZATION ( 'NAUO-ORG87', 'UNSPECIFIED', 'UNSPECIFIED' ) ;
#297 = PERSON_AND_ORGANIZATION_ROLE ( 'design_owner' ) ;
#298 = PERSON_AND_ORGANIZATION ( #18446744073709551615, #18446744073709551615 ) ;
#299 = APPROVAL_STATUS ( 'not_yet_approved' ) ;
#300 = APPROVAL ( #106, 'UNKNOWN' ) ;
#301 = APPROVAL_PERSON_ORGANIZATION ( #193, #29, #160 ) ;
#302 = PERSON_AND_ORGANIZATION ( #18446744073709551615, #18446744073709551615 ) ;
#303 = APPROVAL_DATE_TIME ( #179, #295 ) ;
#304 = APPROVAL_ROLE ( '' ) ;
#305 = CC_DESIGN_PERSON_AND_ORGANIZATION_ASSIGNMENT ( #331, #237, ( #206 ) ) ;
#306 = PROPERTY_DEFINITION_REPRESENTATION ( #365, #92 ) ;
#307 = SECURITY_CLASSIFICATION ( '', '', #39 ) ;
#308 = COORDINATED_UNIVERSAL_TIME_OFFSET ( 10, 0, .AHEAD. ) ;
#309 = CARTESIAN_POINT ( 'NONE',  ( 10.89999490353500278, 22.44999340820300304, -2.058321952820000078 ) ) ;
#310 = DOCUMENT_FILE ( '6461082896.step.STEP' , '', '', #277, '' ,$ ) ;
#311 = CC_DESIGN_SECURITY_CLASSIFICATION ( #54, ( #389 ) ) ;
#312 = APPROVAL_ROLE ( '' ) ;
#313 = PERSON_AND_ORGANIZATION ( #18446744073709551615, #18446744073709551615 ) ;
#314 = CC_DESIGN_SECURITY_CLASSIFICATION ( #321, ( #206 ) ) ;
#315 =( REPRESENTATION_RELATIONSHIP ('NONE','NONE', #62, #143 ) REPRESENTATION_RELATIONSHIP_WITH_TRANSFORMATION ( #227 )SHAPE_REPRESENTATION_RELATIONSHIP( ) );
#316 = APPLIED_DOCUMENT_REFERENCE ( #338,'',( #386) ) ;
#317 = APPROVAL_DATE_TIME ( #319, #359 ) ;
#318 = DOCUMENT_FILE ( '6461083056.step.STEP' , '', '', #188, '' ,$ ) ;
#319 = DATE_AND_TIME ( #231, #251 ) ;
#320 = AXIS2_PLACEMENT_3D ( 'NONE', #216, #156, #94 ) ;
#321 = SECURITY_CLASSIFICATION ( '', '', #57 ) ;
#322 = DATE_AND_TIME ( #236, #125 ) ;
#323 = APPLICATION_PROTOCOL_DEFINITION ( 'international standard', 'config_control_design', 1994, #75 ) ;
#324 = APPROVAL ( #25, 'Coincident' ) ;
#325 = PERSON_AND_ORGANIZATION_ROLE ( 'design_supplier' ) ;
#326 = DESIGN_CONTEXT ( 'detailed design', #87, 'design' ) ;
#327 = LOCAL_TIME ( 18, 49, 54.00000000000000000, #272 ) ;
#328 = PERSON_AND_ORGANIZATION_ROLE ( 'design_owner' ) ;
#329 = APPROVAL ( #199, 'Coincident' ) ;
#330 = PERSON_AND_ORGANIZATION ( #18446744073709551615, #18446744073709551615 ) ;
#331 = PERSON_AND_ORGANIZATION ( #18446744073709551615, #18446744073709551615 ) ;
#332 =( NAMED_UNIT ( * ) PLANE_ANGLE_UNIT ( ) SI_UNIT ( $, .RADIAN. ) );
#333 = APPROVAL_STATUS ( 'not_yet_approved' ) ;
#334 = SECURITY_CLASSIFICATION ( '', '', #255 ) ;
#335 = PROPERTY_DEFINITION_REPRESENTATION ( #248, #92 ) ;
#336 = DOCUMENT_TYPE ( 'geometry' ) ;
#337 = CC_DESIGN_PERSON_AND_ORGANIZATION_ASSIGNMENT ( #148, #325, ( #278 ) ) ;
#338 = DOCUMENT_FILE ( '6461082896.step.STEP' , '', '', #336, '' ,$ ) ;
#339 = DATE_AND_TIME ( #135, #289 ) ;
#340 = PRODUCT_DEFINITION_FORMATION_WITH_SPECIFIED_SOURCE ( 'Symmetric', '', #229, .NOT_KNOWN. ) ;
#341 = LOCAL_TIME ( 18, 49, 54.00000000000000000, #96 ) ;
#342 = COORDINATED_UNIVERSAL_TIME_OFFSET ( 10, 0, .AHEAD. ) ;
#343 = CC_DESIGN_DATE_AND_TIME_ASSIGNMENT ( #55, #234, ( #89 ) ) ;
#344 = PRODUCT ( '6461083056.step', '6461083056.step', '', ( #3 ) ) ;
#345 = PERSON_AND_ORGANIZATION_ROLE ( 'design_supplier' ) ;
#346 = PROPERTY_DEFINITION ('document property','', #338 ) ;
#347 = DATE_AND_TIME ( #377, #203 ) ;
#348 = CC_DESIGN_DATE_AND_TIME_ASSIGNMENT ( #372, #264, ( #334 ) ) ;
#349 = ROLE_ASSOCIATION ( #99, #316 ) ;
#350 = PERSON_AND_ORGANIZATION ( #18446744073709551615, #18446744073709551615 ) ;
#351 = DATE_AND_TIME ( #46, #361 ) ;
#352 = DESIGN_CONTEXT ( 'detailed design', #202, 'design' ) ;
#353 = CALENDAR_DATE ( 2026, 22, 6 ) ;
#354 = LOCAL_TIME ( 18, 49, 54.00000000000000000, #101 ) ;
#355 = APPROVAL_ROLE ( '' ) ;
#356 = APPROVAL ( #112, 'Coincident' ) ;
#357 = PERSON_AND_ORGANIZATION ( #18446744073709551615, #18446744073709551615 ) ;
#358 = APPROVAL_STATUS ( 'not_yet_approved' ) ;
#359 = APPROVAL ( #169, 'Coincident' ) ;
#360 =( GEOMETRIC_REPRESENTATION_CONTEXT ( 3 ) GLOBAL_UNCERTAINTY_ASSIGNED_CONTEXT ( ( #240 ) ) GLOBAL_UNIT_ASSIGNED_CONTEXT ( ( #64, #130, #187 ) ) REPRESENTATION_CONTEXT ( 'NONE', 'WORKASPACE' ) );
#361 = LOCAL_TIME ( 18, 49, 54.00000000000000000, #173 ) ;
#362 = DATE_AND_TIME ( #152, #161 ) ;
#363 =( NAMED_UNIT ( * ) SI_UNIT ( $, .STERADIAN. ) SOLID_ANGLE_UNIT ( ) );
#364 = PERSON_AND_ORGANIZATION ( #18446744073709551615, #18446744073709551615 ) ;
#365 = PROPERTY_DEFINITION ('document property','', #318 ) ;
#366 = ROLE_ASSOCIATION ( #233, #128 ) ;
#367 = AXIS2_PLACEMENT_3D ( 'NONE', #280, #8, #151 ) ;
#368 = CALENDAR_DATE ( 2026, 22, 6 ) ;
#369 = PRODUCT_RELATED_PRODUCT_CATEGORY ( 'detail', '', ( #344 ) ) ;
#370 = LOCAL_TIME ( 18, 49, 54.00000000000000000, #129 ) ;
#371 = SECURITY_CLASSIFICATION_LEVEL ( 'unclassified' ) ;
#372 = DATE_AND_TIME ( #221, #370 ) ;
#373 = CC_DESIGN_DATE_AND_TIME_ASSIGNMENT ( #137, #381, ( #66 ) ) ;
#374 = ROLE_ASSOCIATION ( #81, #40 ) ;
#375 = APPROVAL_PERSON_ORGANIZATION ( #298, #324, #355 ) ;
#376 = LOCAL_TIME ( 18, 49, 54.00000000000000000, #195 ) ;
#377 = CALENDAR_DATE ( 2026, 22, 6 ) ;
#378 = PERSON ( 'NAUO-PER87', 'UNSPECIFIED', 'UNSPECIFIED', ('UNSPECIFIED'), ('UNSPECIFIED'), ('UNSPECIFIED') ) ;
#379 = APPLICATION_PROTOCOL_DEFINITION ( 'international standard', 'config_control_design', 1994, #281 ) ;
#380 = EXTERNAL_SOURCE (IDENTIFIER('') ) ;
#381 = DATE_TIME_ROLE ( 'creation_date' ) ;
#382 = CC_DESIGN_PERSON_AND_ORGANIZATION_ASSIGNMENT ( #242, #117, ( #206 ) ) ;
#383 = CC_DESIGN_SECURITY_CLASSIFICATION ( #167, ( #278 ) ) ;
#384 = PERSON_AND_ORGANIZATION ( #18446744073709551615, #18446744073709551615 ) ;
#385 = APPLICATION_PROTOCOL_DEFINITION ( 'international standard', 'config_control_design', 1994, #202 ) ;
#386 = PRODUCT_DEFINITION ( 'General', '', #206, #293 ) ;
#387 = PERSON_AND_ORGANIZATION ( #18446744073709551615, #18446744073709551615 ) ;
#388 = NEXT_ASSEMBLY_USAGE_OCCURRENCE ( 'NAUO87', ' ', ' ', #66, #9, $ ) ;
#389 = NEXT_ASSEMBLY_USAGE_OCCURRENCE ( 'NAUO88', ' ', ' ', #66, #386, $ ) ;
#390 = NEXT_ASSEMBLY_USAGE_OCCURRENCE ( 'NAUO89', ' ', ' ', #66, #386, $ ) ;
ENDSEC;
END-ISO-10303-21;
