ISO-10303-21;
HEADER;
FILE_DESCRIPTION (( 'STEP AP203' ),
    '1' );
FILE_NAME ('C33.step.STEP',
    '2026-06-22T08:49:54',
    ( 'localuser' ),
    ( '' ),
    'SwSTEP 2.0',
    'SolidWorks 2025',
    '' );
FILE_SCHEMA (( 'CONFIG_CONTROL_DESIGN' ));
ENDSEC;

DATA;
#1 = COORDINATED_UNIVERSAL_TIME_OFFSET ( 10, 0, .AHEAD. ) ;
#2 = DATE_AND_TIME ( #332, #323 ) ;
#3 = APPROVAL ( #152, 'UNKNOWN' ) ;
#4 = DIRECTION ( 'NONE',  ( 0.000000000000000000, 0.000000000000000000, 1.000000000000000000 ) ) ;
#5 = DOCUMENT_TYPE ( 'geometry' ) ;
#6 = APPROVAL_STATUS ( 'not_yet_approved' ) ;
#7 = CALENDAR_DATE ( 2026, 22, 6 ) ;
#8 = COORDINATED_UNIVERSAL_TIME_OFFSET ( 10, 0, .AHEAD. ) ;
#9 =( NAMED_UNIT ( * ) PLANE_ANGLE_UNIT ( ) SI_UNIT ( $, .RADIAN. ) );
#10 = APPLICATION_PROTOCOL_DEFINITION ( 'international standard', 'config_control_design', 1994, #164 ) ;
#11 =( GEOMETRIC_REPRESENTATION_CONTEXT ( 3 ) GLOBAL_UNCERTAINTY_ASSIGNED_CONTEXT ( ( #358 ) ) GLOBAL_UNIT_ASSIGNED_CONTEXT ( ( #113, #139, #327 ) ) REPRESENTATION_CONTEXT ( 'NONE', 'WORKASPACE' ) );
#12 = ROLE_ASSOCIATION ( #360, #121 ) ;
#13 = LOCAL_TIME ( 18, 49, 54.00000000000000000, #1 ) ;
#14 = CC_DESIGN_PERSON_AND_ORGANIZATION_ASSIGNMENT ( #156, #66, ( #48 ) ) ;
#15 = CALENDAR_DATE ( 2026, 22, 6 ) ;
#16 = SECURITY_CLASSIFICATION_LEVEL ( 'unclassified' ) ;
#17 = SECURITY_CLASSIFICATION ( '', '', #49 ) ;
#18 = PERSON_AND_ORGANIZATION_ROLE ( 'design_owner' ) ;
#19 = APPROVAL_ROLE ( '' ) ;
#20 = MECHANICAL_CONTEXT ( 'NONE', #318, 'mechanical' ) ;
#21 = CC_DESIGN_PERSON_AND_ORGANIZATION_ASSIGNMENT ( #89, #350, ( #365 ) ) ;
#22 = LOCAL_TIME ( 18, 49, 54.00000000000000000, #235 ) ;
#23 = CALENDAR_DATE ( 2026, 22, 6 ) ;
#24 = CC_DESIGN_DATE_AND_TIME_ASSIGNMENT ( #144, #83, ( #45 ) ) ;
#25 = PERSON ( 'NAUO-PER83', 'UNSPECIFIED', 'UNSPECIFIED', ('UNSPECIFIED'), ('UNSPECIFIED'), ('UNSPECIFIED') ) ;
#26 = APPLIED_DOCUMENT_REFERENCE ( #85,'',( #145) ) ;
#27 = PERSON_AND_ORGANIZATION ( #18446744073709551615, #18446744073709551615 ) ;
#28 =( GEOMETRIC_REPRESENTATION_CONTEXT ( 3 ) GLOBAL_UNCERTAINTY_ASSIGNED_CONTEXT ( ( #172 ) ) GLOBAL_UNIT_ASSIGNED_CONTEXT ( ( #37, #363, #371 ) ) REPRESENTATION_CONTEXT ( 'NONE', 'WORKASPACE' ) );
#29 = APPROVAL_PERSON_ORGANIZATION ( #156, #357, #187 ) ;
#30 = CC_DESIGN_SECURITY_CLASSIFICATION ( #97, ( #388 ) ) ;
#31 = CC_DESIGN_PERSON_AND_ORGANIZATION_ASSIGNMENT ( #232, #326, ( #45 ) ) ;
#32 = PERSON_AND_ORGANIZATION ( #18446744073709551615, #18446744073709551615 ) ;
#33 = SECURITY_CLASSIFICATION_LEVEL ( 'unclassified' ) ;
#34 = DIRECTION ( 'NONE',  ( 4.890937612370273194E-29, -3.155443620884047222E-30, 0.9999999999999997780 ) ) ;
#35 = COORDINATED_UNIVERSAL_TIME_OFFSET ( 10, 0, .AHEAD. ) ;
#36 = CC_DESIGN_PERSON_AND_ORGANIZATION_ASSIGNMENT ( #32, #240, ( #145 ) ) ;
#37 =( LENGTH_UNIT ( ) NAMED_UNIT ( * ) SI_UNIT ( .MILLI., .METRE. ) );
#38 = CC_DESIGN_SECURITY_CLASSIFICATION ( #137, ( #389 ) ) ;
#39 = CARTESIAN_POINT ( 'NONE',  ( 10.67499642941399962, 20.35000256347700542, -2.458323717116999596 ) ) ;
#40 = CC_DESIGN_PERSON_AND_ORGANIZATION_ASSIGNMENT ( #380, #324, ( #212 ) ) ;
#41 = APPROVAL_ROLE ( '' ) ;
#42 = APPROVAL_DATE_TIME ( #249, #317 ) ;
#43 = SECURITY_CLASSIFICATION_LEVEL ( 'unclassified' ) ;
#44 = PRODUCT_RELATED_PRODUCT_CATEGORY ( 'detail', '', ( #162 ) ) ;
#45 = SECURITY_CLASSIFICATION ( '', '', #33 ) ;
#46 = PRODUCT_DEFINITION_SHAPE ( 'NONE', 'NONE',  #388 ) ;
#47 = DATE_AND_TIME ( #315, #192 ) ;
#48 = SECURITY_CLASSIFICATION ( '', '', #123 ) ;
#49 = SECURITY_CLASSIFICATION_LEVEL ( 'unclassified' ) ;
#50 = APPLICATION_PROTOCOL_DEFINITION ( 'international standard', 'config_control_design', 1994, #200 ) ;
#51 = DATE_TIME_ROLE ( 'classification_date' ) ;
#52 = CC_DESIGN_APPROVAL ( #256, ( #342 ) ) ;
#53 = APPROVAL_STATUS ( 'not_yet_approved' ) ;
#54 = APPROVAL_DATE_TIME ( #201, #364 ) ;
#55 = ROLE_ASSOCIATION ( #242, #26 ) ;
#56 = CC_DESIGN_APPROVAL ( #317, ( #365 ) ) ;
#57 = LOCAL_TIME ( 18, 49, 54.00000000000000000, #302 ) ;
#58 = APPROVAL_ROLE ( '' ) ;
#59 = SHAPE_REPRESENTATION ( 'C33.step', ( #84, #197, #283, #78 ), #28 ) ;
#60 = COORDINATED_UNIVERSAL_TIME_OFFSET ( 10, 0, .AHEAD. ) ;
#61 = CC_DESIGN_PERSON_AND_ORGANIZATION_ASSIGNMENT ( #170, #18, ( #162 ) ) ;
#62 = CONTEXT_DEPENDENT_SHAPE_REPRESENTATION ( #272, #46 ) ;
#63 = PERSON_AND_ORGANIZATION ( #18446744073709551615, #18446744073709551615 ) ;
#64 = APPROVAL_PERSON_ORGANIZATION ( #27, #217, #203 ) ;
#65 = APPROVAL ( #153, 'Coincident' ) ;
#66 = PERSON_AND_ORGANIZATION_ROLE ( 'classification_officer' ) ;
#67 =( LENGTH_UNIT ( ) NAMED_UNIT ( * ) SI_UNIT ( .MILLI., .METRE. ) );
#68 = PERSON_AND_ORGANIZATION_ROLE ( 'classification_officer' ) ;
#69 = APPROVAL_DATE_TIME ( #167, #195 ) ;
#70 = LOCAL_TIME ( 18, 49, 54.00000000000000000, #236 ) ;
#71 = CALENDAR_DATE ( 2026, 22, 6 ) ;
#72 = CC_DESIGN_APPROVAL ( #261, ( #145 ) ) ;
#73 = CC_DESIGN_PERSON_AND_ORGANIZATION_ASSIGNMENT ( #239, #157, ( #254 ) ) ;
#74 = PERSON_AND_ORGANIZATION_ROLE ( 'classification_officer' ) ;
#75 = CC_DESIGN_PERSON_AND_ORGANIZATION_ASSIGNMENT ( #340, #68, ( #137 ) ) ;
#76 = APPROVAL_DATE_TIME ( #229, #268 ) ;
#77 = APPROVAL_DATE_TIME ( #293, #256 ) ;
#78 = AXIS2_PLACEMENT_3D ( 'NONE', #241, #34, #148 ) ;
#79 = LOCAL_TIME ( 18, 49, 54.00000000000000000, #8 ) ;
#80 = DESIGN_CONTEXT ( 'detailed design', #213, 'design' ) ;
#81 = CALENDAR_DATE ( 2026, 22, 6 ) ;
#82 = ITEM_DEFINED_TRANSFORMATION ( 'NONE', 'NONE', #197,  #336 ) ;
#83 = DATE_TIME_ROLE ( 'classification_date' ) ;
#84 = AXIS2_PLACEMENT_3D ( 'NONE', #266, #174, #303 ) ;
#85 = DOCUMENT_FILE ( '6325040992.step.STEP' , '', '', #228, '' ,$ ) ;
#86 = APPLIED_EXTERNAL_IDENTIFICATION_ASSIGNMENT ( '6325040992.step.STEP' , #251, #120,( #141) ) ;
#87 = APPROVAL_ROLE ( '' ) ;
#88 = PERSON_AND_ORGANIZATION ( #18446744073709551615, #18446744073709551615 ) ;
#89 = PERSON_AND_ORGANIZATION ( #18446744073709551615, #18446744073709551615 ) ;
#90 = LOCAL_TIME ( 18, 49, 54.00000000000000000, #60 ) ;
#91 = PROPERTY_DEFINITION_REPRESENTATION ( #379, #231 ) ;
#92 = CC_DESIGN_DATE_AND_TIME_ASSIGNMENT ( #210, #179, ( #145 ) ) ;
#93 = CONTEXT_DEPENDENT_SHAPE_REPRESENTATION ( #351, #161 ) ;
#94 = APPLICATION_CONTEXT ( 'configuration controlled 3d designs of mechanical parts and assemblies' ) ;
#95 = CC_DESIGN_PERSON_AND_ORGANIZATION_ASSIGNMENT ( #138, #230, ( #212 ) ) ;
#96 = ITEM_DEFINED_TRANSFORMATION ( 'NONE', 'NONE', #78,  #149 ) ;
#97 = SECURITY_CLASSIFICATION ( '', '', #116 ) ;
#98 = SHAPE_REPRESENTATION ( '6325040992.step', ( #336 ), #11 ) ;
#99 = PROPERTY_DEFINITION ('document property','', #141 ) ;
#100 = APPLICATION_PROTOCOL_DEFINITION ( 'international standard', 'config_control_design', 1994, #318 ) ;
#101 = PRODUCT_DEFINITION_SHAPE ( 'NONE', 'NONE',  #145 ) ;
#102 = PERSON_AND_ORGANIZATION_ROLE ( 'design_owner' ) ;
#103 = CC_DESIGN_DATE_AND_TIME_ASSIGNMENT ( #227, #297, ( #385 ) ) ;
#104 = APPROVAL_PERSON_ORGANIZATION ( #237, #261, #58 ) ;
#105 = DATE_AND_TIME ( #260, #355 ) ;
#106 = APPROVAL_PERSON_ORGANIZATION ( #208, #364, #119 ) ;
#107 = CALENDAR_DATE ( 2026, 22, 6 ) ;
#108 = APPROVAL_ROLE ( '' ) ;
#109 = CARTESIAN_POINT ( 'NONE',  ( 0.000000000000000000, 0.000000000000000000, 0.000000000000000000 ) ) ;
#110 = CALENDAR_DATE ( 2026, 22, 6 ) ;
#111 = CC_DESIGN_APPROVAL ( #268, ( #212 ) ) ;
#112 = APPROVAL_DATE_TIME ( #329, #217 ) ;
#113 =( LENGTH_UNIT ( ) NAMED_UNIT ( * ) SI_UNIT ( .MILLI., .METRE. ) );
#114 = COORDINATED_UNIVERSAL_TIME_OFFSET ( 10, 0, .AHEAD. ) ;
#115 = PERSON_AND_ORGANIZATION ( #18446744073709551615, #18446744073709551615 ) ;
#116 = SECURITY_CLASSIFICATION_LEVEL ( 'unclassified' ) ;
#117 = CC_DESIGN_APPROVAL ( #65, ( #175 ) ) ;
#118 = LOCAL_TIME ( 18, 49, 54.00000000000000000, #252 ) ;
#119 = APPROVAL_ROLE ( '' ) ;
#120 = EXTERNAL_SOURCE (IDENTIFIER('') ) ;
#121 = APPLIED_DOCUMENT_REFERENCE ( #141,'',( #145) ) ;
#122 = CALENDAR_DATE ( 2026, 22, 6 ) ;
#123 = SECURITY_CLASSIFICATION_LEVEL ( 'unclassified' ) ;
#124 = CC_DESIGN_PERSON_AND_ORGANIZATION_ASSIGNMENT ( #333, #373, ( #365 ) ) ;
#125 = APPROVAL_STATUS ( 'not_yet_approved' ) ;
#126 =( GEOMETRIC_REPRESENTATION_CONTEXT ( 3 ) GLOBAL_UNCERTAINTY_ASSIGNED_CONTEXT ( ( #353 ) ) GLOBAL_UNIT_ASSIGNED_CONTEXT ( ( #67, #9, #150 ) ) REPRESENTATION_CONTEXT ( 'NONE', 'WORKASPACE' ) );
#127 = CC_DESIGN_SECURITY_CLASSIFICATION ( #45, ( #383 ) ) ;
#128 = PROPERTY_DEFINITION_REPRESENTATION ( #257, #98 ) ;
#129 = APPLICATION_CONTEXT ( 'configuration controlled 3d designs of mechanical parts and assemblies' ) ;
#130 = CC_DESIGN_DATE_AND_TIME_ASSIGNMENT ( #281, #244, ( #175 ) ) ;
#131 = DATE_AND_TIME ( #15, #118 ) ;
#132 = LOCAL_TIME ( 18, 49, 54.00000000000000000, #198 ) ;
#133 = APPROVAL_STATUS ( 'not_yet_approved' ) ;
#134 = COORDINATED_UNIVERSAL_TIME_OFFSET ( 10, 0, .AHEAD. ) ;
#135 = PERSON_AND_ORGANIZATION ( #18446744073709551615, #18446744073709551615 ) ;
#136 = PERSON_AND_ORGANIZATION ( #18446744073709551615, #18446744073709551615 ) ;
#137 = SECURITY_CLASSIFICATION ( '', '', #43 ) ;
#138 = PERSON_AND_ORGANIZATION ( #18446744073709551615, #18446744073709551615 ) ;
#139 =( NAMED_UNIT ( * ) PLANE_ANGLE_UNIT ( ) SI_UNIT ( $, .RADIAN. ) );
#140 = DESIGN_CONTEXT ( 'detailed design', #200, 'design' ) ;
#141 = DOCUMENT_FILE ( '6325040992.step.STEP' , '', '', #330, '' ,$ ) ;
#142 = PROPERTY_DEFINITION_REPRESENTATION ( #370, #98 ) ;
#143 = CC_DESIGN_APPROVAL ( #357, ( #48 ) ) ;
#144 = DATE_AND_TIME ( #299, #337 ) ;
#145 = PRODUCT_DEFINITION ( 'General', '', #383, #80 ) ;
#146 = DATE_AND_TIME ( #81, #263 ) ;
#147 = CC_DESIGN_PERSON_AND_ORGANIZATION_ASSIGNMENT ( #88, #269, ( #383 ) ) ;
#148 = DIRECTION ( 'NONE',  ( 1.000000000000000222, -1.092455418989176591E-28, 4.890937612370273194E-29 ) ) ;
#149 = AXIS2_PLACEMENT_3D ( 'NONE', #109, #4, #321 ) ;
#150 =( NAMED_UNIT ( * ) SI_UNIT ( $, .STERADIAN. ) SOLID_ANGLE_UNIT ( ) );
#151 = LOCAL_TIME ( 18, 49, 54.00000000000000000, #285 ) ;
#152 = APPROVAL_STATUS ( 'not_yet_approved' ) ;
#153 = APPROVAL_STATUS ( 'not_yet_approved' ) ;
#154 = EXTERNAL_SOURCE (IDENTIFIER('') ) ;
#155 = APPROVAL_DATE_TIME ( #211, #65 ) ;
#156 = PERSON_AND_ORGANIZATION ( #25, #177 ) ;
#157 = PERSON_AND_ORGANIZATION_ROLE ( 'design_owner' ) ;
#158 = PERSON ( 'NAUO-PER82', 'UNSPECIFIED', 'UNSPECIFIED', ('UNSPECIFIED'), ('UNSPECIFIED'), ('UNSPECIFIED') ) ;
#159 = CALENDAR_DATE ( 2026, 22, 6 ) ;
#160 = CC_DESIGN_DATE_AND_TIME_ASSIGNMENT ( #2, #267, ( #97 ) ) ;
#161 = PRODUCT_DEFINITION_SHAPE ( 'NONE', 'NONE',  #389 ) ;
#162 = PRODUCT ( '6325040992.step', '6325040992.step', '', ( #386 ) ) ;
#163 = LOCAL_TIME ( 18, 49, 54.00000000000000000, #368 ) ;
#164 = APPLICATION_CONTEXT ( 'configuration controlled 3d designs of mechanical parts and assemblies' ) ;
#165 = APPROVAL_DATE_TIME ( #105, #291 ) ;
#166 = PERSON_AND_ORGANIZATION ( #18446744073709551615, #18446744073709551615 ) ;
#167 = DATE_AND_TIME ( #319, #270 ) ;
#168 = PERSON_AND_ORGANIZATION ( #18446744073709551615, #18446744073709551615 ) ;
#169 = CC_DESIGN_PERSON_AND_ORGANIZATION_ASSIGNMENT ( #166, #382, ( #17 ) ) ;
#170 = PERSON_AND_ORGANIZATION ( #18446744073709551615, #18446744073709551615 ) ;
#171 = CC_DESIGN_PERSON_AND_ORGANIZATION_ASSIGNMENT ( #356, #359, ( #383 ) ) ;
#172 = UNCERTAINTY_MEASURE_WITH_UNIT (LENGTH_MEASURE( 1.000000000000000082E-05 ), #37, 'distance_accuracy_value', 'NONE');
#173 = APPROVAL_DATE_TIME ( #304, #261 ) ;
#174 = DIRECTION ( 'NONE',  ( 0.000000000000000000, 0.000000000000000000, 1.000000000000000000 ) ) ;
#175 = PRODUCT_DEFINITION ( 'General', '', #365, #298 ) ;
#176 = ITEM_DEFINED_TRANSFORMATION ( 'NONE', 'NONE', #283,  #336 ) ;
#177 = ORGANIZATION ( 'NAUO-ORG83', 'UNSPECIFIED', 'UNSPECIFIED' ) ;
#178 = CARTESIAN_POINT ( 'NONE',  ( 0.000000000000000000, 0.000000000000000000, 0.000000000000000000 ) ) ;
#179 = DATE_TIME_ROLE ( 'creation_date' ) ;
#180 = OBJECT_ROLE ('mandatory',$ ) ;
#181 = CALENDAR_DATE ( 2026, 22, 6 ) ;
#182 = CARTESIAN_POINT ( 'NONE',  ( 12.12500100705100259, 20.35000256347700542, -2.458323717116999596 ) ) ;
#183 = ORGANIZATION ( 'NAUO-ORG82', 'UNSPECIFIED', 'UNSPECIFIED' ) ;
#184 = DATE_AND_TIME ( #159, #284 ) ;
#185 = MECHANICAL_CONTEXT ( 'NONE', #164, 'mechanical' ) ;
#186 = DIRECTION ( 'NONE',  ( 4.890937612370273194E-29, -3.155443620884047222E-30, 0.9999999999999997780 ) ) ;
#187 = APPROVAL_ROLE ( '' ) ;
#188 = PRODUCT_DEFINITION_SHAPE ( 'NONE', 'NONE',  #175 ) ;
#189 = APPROVAL_ROLE ( '' ) ;
#190 = IDENTIFICATION_ROLE ( 'external document id and location', $) ;
#191 = APPROVAL_PERSON_ORGANIZATION ( #340, #3, #41 ) ;
#192 = LOCAL_TIME ( 18, 49, 54.00000000000000000, #322 ) ;
#193 = COORDINATED_UNIVERSAL_TIME_OFFSET ( 10, 0, .AHEAD. ) ;
#194 = APPROVAL_STATUS ( 'not_yet_approved' ) ;
#195 = APPROVAL ( #264, 'Coincident' ) ;
#196 = PERSON_AND_ORGANIZATION ( #18446744073709551615, #18446744073709551615 ) ;
#197 = AXIS2_PLACEMENT_3D ( 'NONE', #182, #331, #277 ) ;
#198 = COORDINATED_UNIVERSAL_TIME_OFFSET ( 10, 0, .AHEAD. ) ;
#199 = APPROVAL_PERSON_ORGANIZATION ( #168, #291, #19 ) ;
#200 = APPLICATION_CONTEXT ( 'configuration controlled 3d designs of mechanical parts and assemblies' ) ;
#201 = DATE_AND_TIME ( #7, #13 ) ;
#202 = DIRECTION ( 'NONE',  ( 0.000000000000000000, 0.000000000000000000, 1.000000000000000000 ) ) ;
#203 = APPROVAL_ROLE ( '' ) ;
#204 = APPROVAL_PERSON_ORGANIZATION ( #225, #256, #108 ) ;
#205 = APPLICATION_PROTOCOL_DEFINITION ( 'international standard', 'config_control_design', 1994, #129 ) ;
#206 = COORDINATED_UNIVERSAL_TIME_OFFSET ( 10, 0, .AHEAD. ) ;
#207 = APPROVAL_ROLE ( '' ) ;
#208 = PERSON_AND_ORGANIZATION ( #275, #248 ) ;
#209 = CALENDAR_DATE ( 2026, 22, 6 ) ;
#210 = DATE_AND_TIME ( #271, #22 ) ;
#211 = DATE_AND_TIME ( #209, #163 ) ;
#212 = PRODUCT_DEFINITION_FORMATION_WITH_SPECIFIED_SOURCE ( 'Symmetric', '', #343, .NOT_KNOWN. ) ;
#213 = APPLICATION_CONTEXT ( 'configuration controlled 3d designs of mechanical parts and assemblies' ) ;
#214 = CALENDAR_DATE ( 2026, 22, 6 ) ;
#215 = PRODUCT_RELATED_PRODUCT_CATEGORY ( 'detail', '', ( #343 ) ) ;
#216 = DOCUMENT_FILE ( '6325040752.step.STEP' , '', '', #5, '' ,$ ) ;
#217 = APPROVAL ( #6, 'Coincident' ) ;
#218 = APPROVAL_PERSON_ORGANIZATION ( #339, #65, #309 ) ;
#219 = CC_DESIGN_APPROVAL ( #217, ( #383 ) ) ;
#220 = APPLIED_DOCUMENT_REFERENCE ( #216,'',( #385) ) ;
#221 = IDENTIFICATION_ROLE ( 'external document id and location', $) ;
#222 = PRODUCT_DEFINITION_SHAPE ( 'NONE', 'NONE',  #385 ) ;
#223 = SHAPE_DEFINITION_REPRESENTATION ( #188, #59 ) ;
#224 = CC_DESIGN_PERSON_AND_ORGANIZATION_ASSIGNMENT ( #381, #102, ( #343 ) ) ;
#225 = PERSON_AND_ORGANIZATION ( #18446744073709551615, #18446744073709551615 ) ;
#226 = APPLIED_EXTERNAL_IDENTIFICATION_ASSIGNMENT ( '6325040752.step.STEP' , #190, #280,( #216) ) ;
#227 = DATE_AND_TIME ( #71, #276 ) ;
#228 = DOCUMENT_TYPE ( 'geometry' ) ;
#229 = DATE_AND_TIME ( #107, #349 ) ;
#230 = PERSON_AND_ORGANIZATION_ROLE ( 'design_supplier' ) ;
#231 = SHAPE_REPRESENTATION ( '6325040752.step', ( #149 ), #126 ) ;
#232 = PERSON_AND_ORGANIZATION ( #18446744073709551615, #18446744073709551615 ) ;
#233 = CC_DESIGN_APPROVAL ( #364, ( #97 ) ) ;
#234 = SHAPE_DEFINITION_REPRESENTATION ( #101, #98 ) ;
#235 = COORDINATED_UNIVERSAL_TIME_OFFSET ( 10, 0, .AHEAD. ) ;
#236 = COORDINATED_UNIVERSAL_TIME_OFFSET ( 10, 0, .AHEAD. ) ;
#237 = PERSON_AND_ORGANIZATION ( #18446744073709551615, #18446744073709551615 ) ;
#238 = APPLIED_EXTERNAL_IDENTIFICATION_ASSIGNMENT ( '6325040992.step.STEP' , #221, #154,( #85) ) ;
#239 = PERSON_AND_ORGANIZATION ( #18446744073709551615, #18446744073709551615 ) ;
#240 = PERSON_AND_ORGANIZATION_ROLE ( 'creator' ) ;
#241 = CARTESIAN_POINT ( 'NONE',  ( 11.39999871823200017, 20.35000256347700542, -2.458323717117001372 ) ) ;
#242 = OBJECT_ROLE ('mandatory',$ ) ;
#243 = PROPERTY_DEFINITION ('external definition','', #85 ) ;
#244 = DATE_TIME_ROLE ( 'creation_date' ) ;
#245 = APPROVAL_DATE_TIME ( #335, #357 ) ;
#246 = CC_DESIGN_PERSON_AND_ORGANIZATION_ASSIGNMENT ( #135, #74, ( #342 ) ) ;
#247 = APPROVAL_PERSON_ORGANIZATION ( #115, #317, #207 ) ;
#248 = ORGANIZATION ( 'NAUO-ORG81', 'UNSPECIFIED', 'UNSPECIFIED' ) ;
#249 = DATE_AND_TIME ( #310, #70 ) ;
#250 = APPROVAL_STATUS ( 'not_yet_approved' ) ;
#251 = IDENTIFICATION_ROLE ( 'external document id and location', $) ;
#252 = COORDINATED_UNIVERSAL_TIME_OFFSET ( 10, 0, .AHEAD. ) ;
#253 = CALENDAR_DATE ( 2026, 22, 6 ) ;
#254 = PRODUCT ( 'C33.step', 'C33.step', '', ( #185 ) ) ;
#255 = CC_DESIGN_APPROVAL ( #3, ( #137 ) ) ;
#256 = APPROVAL ( #194, 'Coincident' ) ;
#257 = PROPERTY_DEFINITION ('external definition','', #141 ) ;
#258 = SHAPE_DEFINITION_REPRESENTATION ( #222, #231 ) ;
#259 = CALENDAR_DATE ( 2026, 22, 6 ) ;
#260 = CALENDAR_DATE ( 2026, 22, 6 ) ;
#261 = APPROVAL ( #369, 'Coincident' ) ;
#262 = APPROVAL_PERSON_ORGANIZATION ( #196, #195, #354 ) ;
#263 = LOCAL_TIME ( 18, 49, 54.00000000000000000, #35 ) ;
#264 = APPROVAL_STATUS ( 'not_yet_approved' ) ;
#265 = COORDINATED_UNIVERSAL_TIME_OFFSET ( 10, 0, .AHEAD. ) ;
#266 = CARTESIAN_POINT ( 'NONE',  ( 0.000000000000000000, 0.000000000000000000, 0.000000000000000000 ) ) ;
#267 = DATE_TIME_ROLE ( 'classification_date' ) ;
#268 = APPROVAL ( #133, 'Coincident' ) ;
#269 = PERSON_AND_ORGANIZATION_ROLE ( 'creator' ) ;
#270 = LOCAL_TIME ( 18, 49, 54.00000000000000000, #347 ) ;
#271 = CALENDAR_DATE ( 2026, 22, 6 ) ;
#272 =( REPRESENTATION_RELATIONSHIP ('NONE','NONE', #59, #98 ) REPRESENTATION_RELATIONSHIP_WITH_TRANSFORMATION ( #82 )SHAPE_REPRESENTATION_RELATIONSHIP( ) );
#273 = APPROVAL_DATE_TIME ( #146, #348 ) ;
#274 = PERSON_AND_ORGANIZATION ( #18446744073709551615, #18446744073709551615 ) ;
#275 = PERSON ( 'NAUO-PER81', 'UNSPECIFIED', 'UNSPECIFIED', ('UNSPECIFIED'), ('UNSPECIFIED'), ('UNSPECIFIED') ) ;
#276 = LOCAL_TIME ( 18, 49, 54.00000000000000000, #345 ) ;
#277 = DIRECTION ( 'NONE',  ( 1.000000000000000222, -1.092455418989176591E-28, 4.890937612370273194E-29 ) ) ;
#278 = PROPERTY_DEFINITION_REPRESENTATION ( #99, #98 ) ;
#279 = PERSON_AND_ORGANIZATION_ROLE ( 'creator' ) ;
#280 = EXTERNAL_SOURCE (IDENTIFIER('') ) ;
#281 = DATE_AND_TIME ( #122, #151 ) ;
#282 = CC_DESIGN_DATE_AND_TIME_ASSIGNMENT ( #184, #374, ( #48 ) ) ;
#283 = AXIS2_PLACEMENT_3D ( 'NONE', #39, #186, #305 ) ;
#284 = LOCAL_TIME ( 18, 49, 54.00000000000000000, #338 ) ;
#285 = COORDINATED_UNIVERSAL_TIME_OFFSET ( 10, 0, .AHEAD. ) ;
#286 = DATE_AND_TIME ( #214, #79 ) ;
#287 = CONTEXT_DEPENDENT_SHAPE_REPRESENTATION ( #344, #346 ) ;
#288 = CC_DESIGN_DATE_AND_TIME_ASSIGNMENT ( #320, #51, ( #342 ) ) ;
#289 = APPROVAL_PERSON_ORGANIZATION ( #352, #268, #189 ) ;
#290 = APPLICATION_PROTOCOL_DEFINITION ( 'international standard', 'config_control_design', 1994, #94 ) ;
#291 = APPROVAL ( #53, 'Coincident' ) ;
#292 = DATE_TIME_ROLE ( 'classification_date' ) ;
#293 = DATE_AND_TIME ( #23, #132 ) ;
#294 = CC_DESIGN_DATE_AND_TIME_ASSIGNMENT ( #286, #341, ( #137 ) ) ;
#295 = DIRECTION ( 'NONE',  ( 1.000000000000000000, 0.000000000000000000, 0.000000000000000000 ) ) ;
#296 = CC_DESIGN_APPROVAL ( #291, ( #17 ) ) ;
#297 = DATE_TIME_ROLE ( 'creation_date' ) ;
#298 = DESIGN_CONTEXT ( 'detailed design', #129, 'design' ) ;
#299 = CALENDAR_DATE ( 2026, 22, 6 ) ;
#300 = PROPERTY_DEFINITION_REPRESENTATION ( #243, #98 ) ;
#301 = APPROVAL_PERSON_ORGANIZATION ( #274, #348, #87 ) ;
#302 = COORDINATED_UNIVERSAL_TIME_OFFSET ( 10, 0, .AHEAD. ) ;
#303 = DIRECTION ( 'NONE',  ( 1.000000000000000000, 0.000000000000000000, 0.000000000000000000 ) ) ;
#304 = DATE_AND_TIME ( #181, #90 ) ;
#305 = DIRECTION ( 'NONE',  ( 1.000000000000000222, -1.092455418989176591E-28, 4.890937612370273194E-29 ) ) ;
#306 = APPROVAL_DATE_TIME ( #131, #3 ) ;
#307 = LOCAL_TIME ( 18, 49, 54.00000000000000000, #134 ) ;
#308 = PROPERTY_DEFINITION_REPRESENTATION ( #314, #231 ) ;
#309 = APPROVAL_ROLE ( '' ) ;
#310 = CALENDAR_DATE ( 2026, 22, 6 ) ;
#311 = ROLE_ASSOCIATION ( #180, #220 ) ;
#312 = CC_DESIGN_APPROVAL ( #195, ( #385 ) ) ;
#313 = CC_DESIGN_PERSON_AND_ORGANIZATION_ASSIGNMENT ( #63, #279, ( #175 ) ) ;
#314 = PROPERTY_DEFINITION ('document property','', #216 ) ;
#315 = CALENDAR_DATE ( 2026, 22, 6 ) ;
#316 = CC_DESIGN_SECURITY_CLASSIFICATION ( #342, ( #365 ) ) ;
#317 = APPROVAL ( #125, 'Coincident' ) ;
#318 = APPLICATION_CONTEXT ( 'configuration controlled 3d designs of mechanical parts and assemblies' ) ;
#319 = CALENDAR_DATE ( 2026, 22, 6 ) ;
#320 = DATE_AND_TIME ( #259, #307 ) ;
#321 = DIRECTION ( 'NONE',  ( 1.000000000000000000, 0.000000000000000000, 0.000000000000000000 ) ) ;
#322 = COORDINATED_UNIVERSAL_TIME_OFFSET ( 10, 0, .AHEAD. ) ;
#323 = LOCAL_TIME ( 18, 49, 54.00000000000000000, #206 ) ;
#324 = PERSON_AND_ORGANIZATION_ROLE ( 'creator' ) ;
#325 = APPROVAL_STATUS ( 'not_yet_approved' ) ;
#326 = PERSON_AND_ORGANIZATION_ROLE ( 'classification_officer' ) ;
#327 =( NAMED_UNIT ( * ) SI_UNIT ( $, .STERADIAN. ) SOLID_ANGLE_UNIT ( ) );
#328 = CC_DESIGN_PERSON_AND_ORGANIZATION_ASSIGNMENT ( #136, #384, ( #385 ) ) ;
#329 = DATE_AND_TIME ( #110, #57 ) ;
#330 = DOCUMENT_TYPE ( 'geometry' ) ;
#331 = DIRECTION ( 'NONE',  ( 4.890937612370273194E-29, -3.155443620884047222E-30, 0.9999999999999997780 ) ) ;
#332 = CALENDAR_DATE ( 2026, 22, 6 ) ;
#333 = PERSON_AND_ORGANIZATION ( #18446744073709551615, #18446744073709551615 ) ;
#334 = PERSON_AND_ORGANIZATION_ROLE ( 'classification_officer' ) ;
#335 = DATE_AND_TIME ( #253, #376 ) ;
#336 = AXIS2_PLACEMENT_3D ( 'NONE', #178, #202, #295 ) ;
#337 = LOCAL_TIME ( 18, 49, 54.00000000000000000, #114 ) ;
#338 = COORDINATED_UNIVERSAL_TIME_OFFSET ( 10, 0, .AHEAD. ) ;
#339 = PERSON_AND_ORGANIZATION ( #18446744073709551615, #18446744073709551615 ) ;
#340 = PERSON_AND_ORGANIZATION ( #158, #183 ) ;
#341 = DATE_TIME_ROLE ( 'classification_date' ) ;
#342 = SECURITY_CLASSIFICATION ( '', '', #16 ) ;
#343 = PRODUCT ( '6325040752.step', '6325040752.step', '', ( #20 ) ) ;
#344 =( REPRESENTATION_RELATIONSHIP ('NONE','NONE', #59, #231 ) REPRESENTATION_RELATIONSHIP_WITH_TRANSFORMATION ( #96 )SHAPE_REPRESENTATION_RELATIONSHIP( ) );
#345 = COORDINATED_UNIVERSAL_TIME_OFFSET ( 10, 0, .AHEAD. ) ;
#346 = PRODUCT_DEFINITION_SHAPE ( 'NONE', 'NONE',  #390 ) ;
#347 = COORDINATED_UNIVERSAL_TIME_OFFSET ( 10, 0, .AHEAD. ) ;
#348 = APPROVAL ( #367, 'Coincident' ) ;
#349 = LOCAL_TIME ( 18, 49, 54.00000000000000000, #193 ) ;
#350 = PERSON_AND_ORGANIZATION_ROLE ( 'design_supplier' ) ;
#351 =( REPRESENTATION_RELATIONSHIP ('NONE','NONE', #59, #98 ) REPRESENTATION_RELATIONSHIP_WITH_TRANSFORMATION ( #176 )SHAPE_REPRESENTATION_RELATIONSHIP( ) );
#352 = PERSON_AND_ORGANIZATION ( #18446744073709551615, #18446744073709551615 ) ;
#353 = UNCERTAINTY_MEASURE_WITH_UNIT (LENGTH_MEASURE( 1.000000000000000082E-05 ), #67, 'distance_accuracy_value', 'NONE');
#354 = APPROVAL_ROLE ( '' ) ;
#355 = LOCAL_TIME ( 18, 49, 54.00000000000000000, #265 ) ;
#356 = PERSON_AND_ORGANIZATION ( #18446744073709551615, #18446744073709551615 ) ;
#357 = APPROVAL ( #250, 'UNKNOWN' ) ;
#358 = UNCERTAINTY_MEASURE_WITH_UNIT (LENGTH_MEASURE( 1.000000000000000082E-05 ), #113, 'distance_accuracy_value', 'NONE');
#359 = PERSON_AND_ORGANIZATION_ROLE ( 'design_supplier' ) ;
#360 = OBJECT_ROLE ('mandatory',$ ) ;
#361 = CC_DESIGN_DATE_AND_TIME_ASSIGNMENT ( #47, #292, ( #17 ) ) ;
#362 = APPLICATION_PROTOCOL_DEFINITION ( 'international standard', 'config_control_design', 1994, #213 ) ;
#363 =( NAMED_UNIT ( * ) PLANE_ANGLE_UNIT ( ) SI_UNIT ( $, .RADIAN. ) );
#364 = APPROVAL ( #325, 'UNKNOWN' ) ;
#365 = PRODUCT_DEFINITION_FORMATION_WITH_SPECIFIED_SOURCE ( 'Symmetric', '', #254, .NOT_KNOWN. ) ;
#366 = CC_DESIGN_SECURITY_CLASSIFICATION ( #48, ( #390 ) ) ;
#367 = APPROVAL_STATUS ( 'not_yet_approved' ) ;
#368 = COORDINATED_UNIVERSAL_TIME_OFFSET ( 10, 0, .AHEAD. ) ;
#369 = APPROVAL_STATUS ( 'not_yet_approved' ) ;
#370 = PROPERTY_DEFINITION ('document property','', #85 ) ;
#371 =( NAMED_UNIT ( * ) SI_UNIT ( $, .STERADIAN. ) SOLID_ANGLE_UNIT ( ) );
#372 = PRODUCT_RELATED_PRODUCT_CATEGORY ( 'detail', '', ( #254 ) ) ;
#373 = PERSON_AND_ORGANIZATION_ROLE ( 'creator' ) ;
#374 = DATE_TIME_ROLE ( 'classification_date' ) ;
#375 = CC_DESIGN_PERSON_AND_ORGANIZATION_ASSIGNMENT ( #208, #334, ( #97 ) ) ;
#376 = LOCAL_TIME ( 18, 49, 54.00000000000000000, #377 ) ;
#377 = COORDINATED_UNIVERSAL_TIME_OFFSET ( 10, 0, .AHEAD. ) ;
#378 = CC_DESIGN_APPROVAL ( #348, ( #45 ) ) ;
#379 = PROPERTY_DEFINITION ('external definition','', #216 ) ;
#380 = PERSON_AND_ORGANIZATION ( #18446744073709551615, #18446744073709551615 ) ;
#381 = PERSON_AND_ORGANIZATION ( #18446744073709551615, #18446744073709551615 ) ;
#382 = PERSON_AND_ORGANIZATION_ROLE ( 'classification_officer' ) ;
#383 = PRODUCT_DEFINITION_FORMATION_WITH_SPECIFIED_SOURCE ( 'Symmetric', '', #162, .NOT_KNOWN. ) ;
#384 = PERSON_AND_ORGANIZATION_ROLE ( 'creator' ) ;
#385 = PRODUCT_DEFINITION ( 'General', '', #212, #140 ) ;
#386 = MECHANICAL_CONTEXT ( 'NONE', #94, 'mechanical' ) ;
#387 = CC_DESIGN_SECURITY_CLASSIFICATION ( #17, ( #212 ) ) ;
#388 = NEXT_ASSEMBLY_USAGE_OCCURRENCE ( 'NAUO81', ' ', ' ', #175, #145, $ ) ;
#389 = NEXT_ASSEMBLY_USAGE_OCCURRENCE ( 'NAUO82', ' ', ' ', #175, #145, $ ) ;
#390 = NEXT_ASSEMBLY_USAGE_OCCURRENCE ( 'NAUO83', ' ', ' ', #175, #385, $ ) ;
ENDSEC;
END-ISO-10303-21;
