ISO-10303-21;
HEADER;
FILE_DESCRIPTION (( 'STEP AP203' ),
    '1' );
FILE_NAME ('C34.step.STEP',
    '2026-06-22T08:49:54',
    ( 'localuser' ),
    ( '' ),
    'SwSTEP 2.0',
    'SolidWorks 2025',
    '' );
FILE_SCHEMA (( 'CONFIG_CONTROL_DESIGN' ));
ENDSEC;

DATA;
#1 = APPROVAL_ROLE ( '' ) ;
#2 = APPROVAL_STATUS ( 'not_yet_approved' ) ;
#3 = CARTESIAN_POINT ( 'NONE',  ( 0.000000000000000000, 0.000000000000000000, 0.000000000000000000 ) ) ;
#4 = PERSON_AND_ORGANIZATION ( #18446744073709551615, #18446744073709551615 ) ;
#5 =( NAMED_UNIT ( * ) PLANE_ANGLE_UNIT ( ) SI_UNIT ( $, .RADIAN. ) );
#6 = ORGANIZATION ( 'NAUO-ORG84', 'UNSPECIFIED', 'UNSPECIFIED' ) ;
#7 = APPROVAL_ROLE ( '' ) ;
#8 = MECHANICAL_CONTEXT ( 'NONE', #135, 'mechanical' ) ;
#9 = CC_DESIGN_DATE_AND_TIME_ASSIGNMENT ( #326, #330, ( #74 ) ) ;
#10 = APPROVAL_STATUS ( 'not_yet_approved' ) ;
#11 = APPROVAL_PERSON_ORGANIZATION ( #279, #325, #130 ) ;
#12 = APPROVAL_DATE_TIME ( #66, #325 ) ;
#13 = COORDINATED_UNIVERSAL_TIME_OFFSET ( 10, 0, .AHEAD. ) ;
#14 = CALENDAR_DATE ( 2026, 22, 6 ) ;
#15 = SECURITY_CLASSIFICATION ( '', '', #90 ) ;
#16 = APPROVAL_ROLE ( '' ) ;
#17 = CC_DESIGN_PERSON_AND_ORGANIZATION_ASSIGNMENT ( #354, #353, ( #74 ) ) ;
#18 = CALENDAR_DATE ( 2026, 22, 6 ) ;
#19 = DATE_AND_TIME ( #348, #127 ) ;
#20 = PRODUCT_DEFINITION_FORMATION_WITH_SPECIFIED_SOURCE ( 'Symmetric', '', #44, .NOT_KNOWN. ) ;
#21 = APPROVAL_ROLE ( '' ) ;
#22 = SHAPE_REPRESENTATION ( '6461083056.step', ( #80 ), #220 ) ;
#23 = PERSON_AND_ORGANIZATION ( #18446744073709551615, #18446744073709551615 ) ;
#24 = DATE_AND_TIME ( #122, #195 ) ;
#25 = LOCAL_TIME ( 18, 49, 54.00000000000000000, #88 ) ;
#26 = APPLIED_EXTERNAL_IDENTIFICATION_ASSIGNMENT ( '6461082896.step.STEP' , #297, #251,( #362) ) ;
#27 = LOCAL_TIME ( 18, 49, 54.00000000000000000, #295 ) ;
#28 = COORDINATED_UNIVERSAL_TIME_OFFSET ( 10, 0, .AHEAD. ) ;
#29 = COORDINATED_UNIVERSAL_TIME_OFFSET ( 10, 0, .AHEAD. ) ;
#30 = MECHANICAL_CONTEXT ( 'NONE', #200, 'mechanical' ) ;
#31 = APPROVAL ( #319, 'Coincident' ) ;
#32 = CONTEXT_DEPENDENT_SHAPE_REPRESENTATION ( #329, #343 ) ;
#33 =( NAMED_UNIT ( * ) SI_UNIT ( $, .STERADIAN. ) SOLID_ANGLE_UNIT ( ) );
#34 = SECURITY_CLASSIFICATION_LEVEL ( 'unclassified' ) ;
#35 = APPLICATION_PROTOCOL_DEFINITION ( 'international standard', 'config_control_design', 1994, #119 ) ;
#36 = CC_DESIGN_PERSON_AND_ORGANIZATION_ASSIGNMENT ( #78, #196, ( #316 ) ) ;
#37 = APPLIED_DOCUMENT_REFERENCE ( #362,'',( #252) ) ;
#38 = APPROVAL_STATUS ( 'not_yet_approved' ) ;
#39 = PERSON_AND_ORGANIZATION ( #218, #360 ) ;
#40 = LOCAL_TIME ( 18, 49, 54.00000000000000000, #173 ) ;
#41 = EXTERNAL_SOURCE (IDENTIFIER('') ) ;
#42 = PROPERTY_DEFINITION_REPRESENTATION ( #190, #58 ) ;
#43 = PROPERTY_DEFINITION ('external definition','', #96 ) ;
#44 = PRODUCT ( '6461082896.step', '6461082896.step', '', ( #30 ) ) ;
#45 = SHAPE_DEFINITION_REPRESENTATION ( #255, #219 ) ;
#46 = SECURITY_CLASSIFICATION ( '', '', #34 ) ;
#47 = COORDINATED_UNIVERSAL_TIME_OFFSET ( 10, 0, .AHEAD. ) ;
#48 = APPLICATION_PROTOCOL_DEFINITION ( 'international standard', 'config_control_design', 1994, #77 ) ;
#49 = DATE_TIME_ROLE ( 'classification_date' ) ;
#50 = CC_DESIGN_DATE_AND_TIME_ASSIGNMENT ( #53, #175, ( #121 ) ) ;
#51 = LOCAL_TIME ( 18, 49, 54.00000000000000000, #288 ) ;
#52 = DATE_AND_TIME ( #14, #162 ) ;
#53 = DATE_AND_TIME ( #324, #277 ) ;
#54 = APPROVAL_STATUS ( 'not_yet_approved' ) ;
#55 = LOCAL_TIME ( 18, 49, 54.00000000000000000, #385 ) ;
#56 = SHAPE_DEFINITION_REPRESENTATION ( #101, #58 ) ;
#57 = DIRECTION ( 'NONE',  ( 0.000000000000000000, 0.000000000000000000, 1.000000000000000000 ) ) ;
#58 = SHAPE_REPRESENTATION ( '6461082896.step', ( #359 ), #185 ) ;
#59 = PERSON_AND_ORGANIZATION ( #18446744073709551615, #18446744073709551615 ) ;
#60 = CC_DESIGN_PERSON_AND_ORGANIZATION_ASSIGNMENT ( #138, #377, ( #248 ) ) ;
#61 = DIRECTION ( 'NONE',  ( 1.000000000000000222, -1.092455418989176591E-28, 4.890937612370273194E-29 ) ) ;
#62 = DATE_TIME_ROLE ( 'creation_date' ) ;
#63 = CALENDAR_DATE ( 2026, 22, 6 ) ;
#64 = CC_DESIGN_APPROVAL ( #374, ( #74 ) ) ;
#65 = PERSON_AND_ORGANIZATION ( #18446744073709551615, #18446744073709551615 ) ;
#66 = DATE_AND_TIME ( #157, #204 ) ;
#67 = PERSON_AND_ORGANIZATION ( #18446744073709551615, #18446744073709551615 ) ;
#68 = ITEM_DEFINED_TRANSFORMATION ( 'NONE', 'NONE', #167,  #359 ) ;
#69 = DOCUMENT_FILE ( '6461082896.step.STEP' , '', '', #271, '' ,$ ) ;
#70 = PRODUCT_DEFINITION_FORMATION_WITH_SPECIFIED_SOURCE ( 'Symmetric', '', #161, .NOT_KNOWN. ) ;
#71 = DATE_AND_TIME ( #231, #304 ) ;
#72 = APPROVAL_PERSON_ORGANIZATION ( #150, #227, #351 ) ;
#73 = APPROVAL_ROLE ( '' ) ;
#74 = SECURITY_CLASSIFICATION ( '', '', #272 ) ;
#75 = APPROVAL ( #344, 'Coincident' ) ;
#76 = COORDINATED_UNIVERSAL_TIME_OFFSET ( 10, 0, .AHEAD. ) ;
#77 = APPLICATION_CONTEXT ( 'configuration controlled 3d designs of mechanical parts and assemblies' ) ;
#78 = PERSON_AND_ORGANIZATION ( #18446744073709551615, #18446744073709551615 ) ;
#79 = PERSON_AND_ORGANIZATION ( #18446744073709551615, #18446744073709551615 ) ;
#80 = AXIS2_PLACEMENT_3D ( 'NONE', #3, #309, #125 ) ;
#81 = APPROVAL_DATE_TIME ( #274, #303 ) ;
#82 = APPROVAL ( #118, 'Coincident' ) ;
#83 = APPROVAL_DATE_TIME ( #268, #215 ) ;
#84 = CC_DESIGN_SECURITY_CLASSIFICATION ( #316, ( #70 ) ) ;
#85 = PERSON_AND_ORGANIZATION ( #18446744073709551615, #18446744073709551615 ) ;
#86 = DIRECTION ( 'NONE',  ( 4.890937612370273194E-29, -3.155443620884047222E-30, 0.9999999999999997780 ) ) ;
#87 = COORDINATED_UNIVERSAL_TIME_OFFSET ( 10, 0, .AHEAD. ) ;
#88 = COORDINATED_UNIVERSAL_TIME_OFFSET ( 10, 0, .AHEAD. ) ;
#89 = CC_DESIGN_SECURITY_CLASSIFICATION ( #121, ( #388 ) ) ;
#90 = SECURITY_CLASSIFICATION_LEVEL ( 'unclassified' ) ;
#91 = APPLICATION_PROTOCOL_DEFINITION ( 'international standard', 'config_control_design', 1994, #135 ) ;
#92 = DATE_AND_TIME ( #128, #214 ) ;
#93 = CONTEXT_DEPENDENT_SHAPE_REPRESENTATION ( #265, #223 ) ;
#94 = DOCUMENT_TYPE ( 'geometry' ) ;
#95 = CC_DESIGN_DATE_AND_TIME_ASSIGNMENT ( #230, #100, ( #103 ) ) ;
#96 = DOCUMENT_FILE ( '6461083056.step.STEP' , '', '', #184, '' ,$ ) ;
#97 = APPLIED_EXTERNAL_IDENTIFICATION_ASSIGNMENT ( '6461083056.step.STEP' , #259, #126,( #96) ) ;
#98 = PROPERTY_DEFINITION ('document property','', #69 ) ;
#99 = CC_DESIGN_PERSON_AND_ORGANIZATION_ASSIGNMENT ( #39, #153, ( #15 ) ) ;
#100 = DATE_TIME_ROLE ( 'creation_date' ) ;
#101 = PRODUCT_DEFINITION_SHAPE ( 'NONE', 'NONE',  #252 ) ;
#102 = DATE_AND_TIME ( #137, #133 ) ;
#103 = PRODUCT_DEFINITION ( 'General', '', #70, #320 ) ;
#104 = SECURITY_CLASSIFICATION ( '', '', #107 ) ;
#105 = PERSON_AND_ORGANIZATION ( #18446744073709551615, #18446744073709551615 ) ;
#106 = CC_DESIGN_APPROVAL ( #115, ( #15 ) ) ;
#107 = SECURITY_CLASSIFICATION_LEVEL ( 'unclassified' ) ;
#108 =( LENGTH_UNIT ( ) NAMED_UNIT ( * ) SI_UNIT ( .MILLI., .METRE. ) );
#109 = APPLICATION_PROTOCOL_DEFINITION ( 'international standard', 'config_control_design', 1994, #305 ) ;
#110 =( NAMED_UNIT ( * ) SI_UNIT ( $, .STERADIAN. ) SOLID_ANGLE_UNIT ( ) );
#111 = DATE_AND_TIME ( #361, #370 ) ;
#112 = APPROVAL_PERSON_ORGANIZATION ( #321, #287, #73 ) ;
#113 = OBJECT_ROLE ('mandatory',$ ) ;
#114 = PERSON_AND_ORGANIZATION_ROLE ( 'creator' ) ;
#115 = APPROVAL ( #340, 'UNKNOWN' ) ;
#116 = APPROVAL_DATE_TIME ( #302, #374 ) ;
#117 = DATE_AND_TIME ( #371, #368 ) ;
#118 = APPROVAL_STATUS ( 'not_yet_approved' ) ;
#119 = APPLICATION_CONTEXT ( 'configuration controlled 3d designs of mechanical parts and assemblies' ) ;
#120 = PRODUCT_RELATED_PRODUCT_CATEGORY ( 'detail', '', ( #44 ) ) ;
#121 = SECURITY_CLASSIFICATION ( '', '', #205 ) ;
#122 = CALENDAR_DATE ( 2026, 22, 6 ) ;
#123 = APPROVAL_ROLE ( '' ) ;
#124 = PRODUCT_DEFINITION ( 'General', '', #248, #166 ) ;
#125 = DIRECTION ( 'NONE',  ( 1.000000000000000000, 0.000000000000000000, 0.000000000000000000 ) ) ;
#126 = EXTERNAL_SOURCE (IDENTIFIER('') ) ;
#127 = LOCAL_TIME ( 18, 49, 54.00000000000000000, #164 ) ;
#128 = CALENDAR_DATE ( 2026, 22, 6 ) ;
#129 = CC_DESIGN_PERSON_AND_ORGANIZATION_ASSIGNMENT ( #279, #373, ( #46 ) ) ;
#130 = APPROVAL_ROLE ( '' ) ;
#131 = CC_DESIGN_DATE_AND_TIME_ASSIGNMENT ( #358, #301, ( #124 ) ) ;
#132 = CALENDAR_DATE ( 2026, 22, 6 ) ;
#133 = LOCAL_TIME ( 18, 49, 54.00000000000000000, #165 ) ;
#134 = DATE_AND_TIME ( #318, #51 ) ;
#135 = APPLICATION_CONTEXT ( 'configuration controlled 3d designs of mechanical parts and assemblies' ) ;
#136 = SECURITY_CLASSIFICATION_LEVEL ( 'unclassified' ) ;
#137 = CALENDAR_DATE ( 2026, 22, 6 ) ;
#138 = PERSON_AND_ORGANIZATION ( #18446744073709551615, #18446744073709551615 ) ;
#139 = APPROVAL_PERSON_ORGANIZATION ( #206, #303, #7 ) ;
#140 = COORDINATED_UNIVERSAL_TIME_OFFSET ( 10, 0, .AHEAD. ) ;
#141 = CARTESIAN_POINT ( 'NONE',  ( 0.000000000000000000, 0.000000000000000000, 0.000000000000000000 ) ) ;
#142 = PERSON_AND_ORGANIZATION_ROLE ( 'design_supplier' ) ;
#143 = CALENDAR_DATE ( 2026, 22, 6 ) ;
#144 = APPROVAL_PERSON_ORGANIZATION ( #212, #198, #123 ) ;
#145 = CC_DESIGN_APPROVAL ( #31, ( #70 ) ) ;
#146 = PERSON_AND_ORGANIZATION ( #18446744073709551615, #18446744073709551615 ) ;
#147 = PRODUCT_RELATED_PRODUCT_CATEGORY ( 'detail', '', ( #161 ) ) ;
#148 = DIRECTION ( 'NONE',  ( 0.000000000000000000, 0.000000000000000000, 1.000000000000000000 ) ) ;
#149 = PERSON_AND_ORGANIZATION ( #18446744073709551615, #18446744073709551615 ) ;
#150 = PERSON_AND_ORGANIZATION ( #18446744073709551615, #18446744073709551615 ) ;
#151 =( GEOMETRIC_REPRESENTATION_CONTEXT ( 3 ) GLOBAL_UNCERTAINTY_ASSIGNED_CONTEXT ( ( #237 ) ) GLOBAL_UNIT_ASSIGNED_CONTEXT ( ( #333, #5, #210 ) ) REPRESENTATION_CONTEXT ( 'NONE', 'WORKASPACE' ) );
#152 = DIRECTION ( 'NONE',  ( 1.000000000000000222, -1.092455418989176591E-28, 4.890937612370273194E-29 ) ) ;
#153 = PERSON_AND_ORGANIZATION_ROLE ( 'classification_officer' ) ;
#154 = COORDINATED_UNIVERSAL_TIME_OFFSET ( 10, 0, .AHEAD. ) ;
#155 = APPROVAL_ROLE ( '' ) ;
#156 = APPROVAL_PERSON_ORGANIZATION ( #168, #215, #21 ) ;
#157 = CALENDAR_DATE ( 2026, 22, 6 ) ;
#158 = PROPERTY_DEFINITION_REPRESENTATION ( #98, #58 ) ;
#159 = CC_DESIGN_DATE_AND_TIME_ASSIGNMENT ( #283, #254, ( #15 ) ) ;
#160 = PRODUCT_DEFINITION_SHAPE ( 'NONE', 'NONE',  #389 ) ;
#161 = PRODUCT ( '6461083056.step', '6461083056.step', '', ( #228 ) ) ;
#162 = LOCAL_TIME ( 18, 49, 54.00000000000000000, #76 ) ;
#163 = COORDINATED_UNIVERSAL_TIME_OFFSET ( 10, 0, .AHEAD. ) ;
#164 = COORDINATED_UNIVERSAL_TIME_OFFSET ( 10, 0, .AHEAD. ) ;
#165 = COORDINATED_UNIVERSAL_TIME_OFFSET ( 10, 0, .AHEAD. ) ;
#166 = DESIGN_CONTEXT ( 'detailed design', #119, 'design' ) ;
#167 = AXIS2_PLACEMENT_3D ( 'NONE', #336, #86, #152 ) ;
#168 = PERSON_AND_ORGANIZATION ( #18446744073709551615, #18446744073709551615 ) ;
#169 = CC_DESIGN_APPROVAL ( #75, ( #104 ) ) ;
#170 = CC_DESIGN_PERSON_AND_ORGANIZATION_ASSIGNMENT ( #79, #199, ( #248 ) ) ;
#171 = DATE_TIME_ROLE ( 'classification_date' ) ;
#172 = CC_DESIGN_PERSON_AND_ORGANIZATION_ASSIGNMENT ( #146, #114, ( #252 ) ) ;
#173 = COORDINATED_UNIVERSAL_TIME_OFFSET ( 10, 0, .AHEAD. ) ;
#174 = CC_DESIGN_PERSON_AND_ORGANIZATION_ASSIGNMENT ( #258, #382, ( #161 ) ) ;
#175 = DATE_TIME_ROLE ( 'classification_date' ) ;
#176 = LOCAL_TIME ( 18, 49, 54.00000000000000000, #207 ) ;
#177 = CARTESIAN_POINT ( 'NONE',  ( 0.000000000000000000, 0.000000000000000000, 0.000000000000000000 ) ) ;
#178 = CALENDAR_DATE ( 2026, 22, 6 ) ;
#179 = DIRECTION ( 'NONE',  ( 1.000000000000000000, 0.000000000000000000, 0.000000000000000000 ) ) ;
#180 = APPROVAL_DATE_TIME ( #24, #314 ) ;
#181 = DIRECTION ( 'NONE',  ( 1.000000000000000222, -1.092455418989176591E-28, 4.890937612370273194E-29 ) ) ;
#182 = CC_DESIGN_APPROVAL ( #314, ( #20 ) ) ;
#183 = PERSON_AND_ORGANIZATION_ROLE ( 'design_owner' ) ;
#184 = DOCUMENT_TYPE ( 'geometry' ) ;
#185 =( GEOMETRIC_REPRESENTATION_CONTEXT ( 3 ) GLOBAL_UNCERTAINTY_ASSIGNED_CONTEXT ( ( #350 ) ) GLOBAL_UNIT_ASSIGNED_CONTEXT ( ( #108, #293, #110 ) ) REPRESENTATION_CONTEXT ( 'NONE', 'WORKASPACE' ) );
#186 = APPROVAL_PERSON_ORGANIZATION ( #39, #115, #155 ) ;
#187 = APPLIED_DOCUMENT_REFERENCE ( #96,'',( #103) ) ;
#188 = CC_DESIGN_PERSON_AND_ORGANIZATION_ASSIGNMENT ( #149, #142, ( #20 ) ) ;
#189 = PRODUCT_DEFINITION_SHAPE ( 'NONE', 'NONE',  #103 ) ;
#190 = PROPERTY_DEFINITION ('external definition','', #69 ) ;
#191 = APPROVAL_DATE_TIME ( #102, #287 ) ;
#192 = OBJECT_ROLE ('mandatory',$ ) ;
#193 = CC_DESIGN_APPROVAL ( #198, ( #124 ) ) ;
#194 = CC_DESIGN_SECURITY_CLASSIFICATION ( #15, ( #389 ) ) ;
#195 = LOCAL_TIME ( 18, 49, 54.00000000000000000, #29 ) ;
#196 = PERSON_AND_ORGANIZATION_ROLE ( 'classification_officer' ) ;
#197 = CALENDAR_DATE ( 2026, 22, 6 ) ;
#198 = APPROVAL ( #38, 'Coincident' ) ;
#199 = PERSON_AND_ORGANIZATION_ROLE ( 'design_supplier' ) ;
#200 = APPLICATION_CONTEXT ( 'configuration controlled 3d designs of mechanical parts and assemblies' ) ;
#201 = AXIS2_PLACEMENT_3D ( 'NONE', #141, #57, #179 ) ;
#202 = APPROVAL_STATUS ( 'not_yet_approved' ) ;
#203 = CC_DESIGN_DATE_AND_TIME_ASSIGNMENT ( #245, #253, ( #46 ) ) ;
#204 = LOCAL_TIME ( 18, 49, 54.00000000000000000, #369 ) ;
#205 = SECURITY_CLASSIFICATION_LEVEL ( 'unclassified' ) ;
#206 = PERSON_AND_ORGANIZATION ( #383, #6 ) ;
#207 = COORDINATED_UNIVERSAL_TIME_OFFSET ( 10, 0, .AHEAD. ) ;
#208 = CC_DESIGN_SECURITY_CLASSIFICATION ( #74, ( #20 ) ) ;
#209 = CALENDAR_DATE ( 2026, 22, 6 ) ;
#210 =( NAMED_UNIT ( * ) SI_UNIT ( $, .STERADIAN. ) SOLID_ANGLE_UNIT ( ) );
#211 = CALENDAR_DATE ( 2026, 22, 6 ) ;
#212 = PERSON_AND_ORGANIZATION ( #18446744073709551615, #18446744073709551615 ) ;
#213 = DIRECTION ( 'NONE',  ( 4.890937612370273194E-29, -3.155443620884047222E-30, 0.9999999999999997780 ) ) ;
#214 = LOCAL_TIME ( 18, 49, 54.00000000000000000, #372 ) ;
#215 = APPROVAL ( #292, 'Coincident' ) ;
#216 = CONTEXT_DEPENDENT_SHAPE_REPRESENTATION ( #224, #160 ) ;
#217 = ITEM_DEFINED_TRANSFORMATION ( 'NONE', 'NONE', #341,  #80 ) ;
#218 = PERSON ( 'NAUO-PER85', 'UNSPECIFIED', 'UNSPECIFIED', ('UNSPECIFIED'), ('UNSPECIFIED'), ('UNSPECIFIED') ) ;
#219 = SHAPE_REPRESENTATION ( 'C34.step', ( #201, #275, #341, #167 ), #151 ) ;
#220 =( GEOMETRIC_REPRESENTATION_CONTEXT ( 3 ) GLOBAL_UNCERTAINTY_ASSIGNED_CONTEXT ( ( #347 ) ) GLOBAL_UNIT_ASSIGNED_CONTEXT ( ( #242, #367, #33 ) ) REPRESENTATION_CONTEXT ( 'NONE', 'WORKASPACE' ) );
#221 = CC_DESIGN_APPROVAL ( #325, ( #46 ) ) ;
#222 = PROPERTY_DEFINITION_REPRESENTATION ( #246, #58 ) ;
#223 = PRODUCT_DEFINITION_SHAPE ( 'NONE', 'NONE',  #390 ) ;
#224 =( REPRESENTATION_RELATIONSHIP ('NONE','NONE', #219, #22 ) REPRESENTATION_RELATIONSHIP_WITH_TRANSFORMATION ( #217 )SHAPE_REPRESENTATION_RELATIONSHIP( ) );
#225 = PRODUCT ( 'C34.step', 'C34.step', '', ( #8 ) ) ;
#226 = PERSON_AND_ORGANIZATION ( #18446744073709551615, #18446744073709551615 ) ;
#227 = APPROVAL ( #273, 'Coincident' ) ;
#228 = MECHANICAL_CONTEXT ( 'NONE', #77, 'mechanical' ) ;
#229 = APPLIED_EXTERNAL_IDENTIFICATION_ASSIGNMENT ( '6461082896.step.STEP' , #365, #41,( #69) ) ;
#230 = DATE_AND_TIME ( #18, #241 ) ;
#231 = CALENDAR_DATE ( 2026, 22, 6 ) ;
#232 = CC_DESIGN_PERSON_AND_ORGANIZATION_ASSIGNMENT ( #206, #299, ( #121 ) ) ;
#233 = PERSON_AND_ORGANIZATION_ROLE ( 'classification_officer' ) ;
#234 = ITEM_DEFINED_TRANSFORMATION ( 'NONE', 'NONE', #275,  #359 ) ;
#235 = APPROVAL_ROLE ( '' ) ;
#236 = SHAPE_DEFINITION_REPRESENTATION ( #189, #22 ) ;
#237 = UNCERTAINTY_MEASURE_WITH_UNIT (LENGTH_MEASURE( 1.000000000000000082E-05 ), #333, 'distance_accuracy_value', 'NONE');
#238 = PERSON_AND_ORGANIZATION_ROLE ( 'design_owner' ) ;
#239 = APPROVAL_DATE_TIME ( #117, #198 ) ;
#240 = COORDINATED_UNIVERSAL_TIME_OFFSET ( 10, 0, .AHEAD. ) ;
#241 = LOCAL_TIME ( 18, 49, 54.00000000000000000, #47 ) ;
#242 =( LENGTH_UNIT ( ) NAMED_UNIT ( * ) SI_UNIT ( .MILLI., .METRE. ) );
#243 = PERSON_AND_ORGANIZATION_ROLE ( 'creator' ) ;
#244 = PERSON_AND_ORGANIZATION_ROLE ( 'creator' ) ;
#245 = DATE_AND_TIME ( #310, #322 ) ;
#246 = PROPERTY_DEFINITION ('external definition','', #362 ) ;
#247 = CC_DESIGN_PERSON_AND_ORGANIZATION_ASSIGNMENT ( #260, #233, ( #104 ) ) ;
#248 = PRODUCT_DEFINITION_FORMATION_WITH_SPECIFIED_SOURCE ( 'Symmetric', '', #225, .NOT_KNOWN. ) ;
#249 = ORGANIZATION ( 'NAUO-ORG86', 'UNSPECIFIED', 'UNSPECIFIED' ) ;
#250 = ROLE_ASSOCIATION ( #192, #37 ) ;
#251 = EXTERNAL_SOURCE (IDENTIFIER('') ) ;
#252 = PRODUCT_DEFINITION ( 'General', '', #20, #294 ) ;
#253 = DATE_TIME_ROLE ( 'classification_date' ) ;
#254 = DATE_TIME_ROLE ( 'classification_date' ) ;
#255 = PRODUCT_DEFINITION_SHAPE ( 'NONE', 'NONE',  #124 ) ;
#256 = PROPERTY_DEFINITION ('document property','', #96 ) ;
#257 = APPROVAL_DATE_TIME ( #263, #227 ) ;
#258 = PERSON_AND_ORGANIZATION ( #18446744073709551615, #18446744073709551615 ) ;
#259 = IDENTIFICATION_ROLE ( 'external document id and location', $) ;
#260 = PERSON_AND_ORGANIZATION ( #18446744073709551615, #18446744073709551615 ) ;
#261 = CC_DESIGN_PERSON_AND_ORGANIZATION_ASSIGNMENT ( #270, #238, ( #44 ) ) ;
#262 = APPROVAL_PERSON_ORGANIZATION ( #226, #31, #16 ) ;
#263 = DATE_AND_TIME ( #197, #55 ) ;
#264 = APPROVAL_ROLE ( '' ) ;
#265 =( REPRESENTATION_RELATIONSHIP ('NONE','NONE', #219, #58 ) REPRESENTATION_RELATIONSHIP_WITH_TRANSFORMATION ( #68 )SHAPE_REPRESENTATION_RELATIONSHIP( ) );
#266 = APPLICATION_PROTOCOL_DEFINITION ( 'international standard', 'config_control_design', 1994, #200 ) ;
#267 = CC_DESIGN_PERSON_AND_ORGANIZATION_ASSIGNMENT ( #65, #183, ( #225 ) ) ;
#268 = DATE_AND_TIME ( #211, #352 ) ;
#269 = APPROVAL_PERSON_ORGANIZATION ( #105, #75, #264 ) ;
#270 = PERSON_AND_ORGANIZATION ( #18446744073709551615, #18446744073709551615 ) ;
#271 = DOCUMENT_TYPE ( 'geometry' ) ;
#272 = SECURITY_CLASSIFICATION_LEVEL ( 'unclassified' ) ;
#273 = APPROVAL_STATUS ( 'not_yet_approved' ) ;
#274 = DATE_AND_TIME ( #143, #40 ) ;
#275 = AXIS2_PLACEMENT_3D ( 'NONE', #331, #307, #61 ) ;
#276 = PERSON ( 'NAUO-PER86', 'UNSPECIFIED', 'UNSPECIFIED', ('UNSPECIFIED'), ('UNSPECIFIED'), ('UNSPECIFIED') ) ;
#277 = LOCAL_TIME ( 18, 49, 54.00000000000000000, #28 ) ;
#278 = PROPERTY_DEFINITION_REPRESENTATION ( #43, #22 ) ;
#279 = PERSON_AND_ORGANIZATION ( #276, #249 ) ;
#280 = APPLICATION_CONTEXT ( 'configuration controlled 3d designs of mechanical parts and assemblies' ) ;
#281 = PROPERTY_DEFINITION_REPRESENTATION ( #364, #58 ) ;
#282 = CC_DESIGN_APPROVAL ( #227, ( #248 ) ) ;
#283 = DATE_AND_TIME ( #132, #342 ) ;
#284 = CC_DESIGN_PERSON_AND_ORGANIZATION_ASSIGNMENT ( #379, #345, ( #70 ) ) ;
#285 = CC_DESIGN_APPROVAL ( #215, ( #316 ) ) ;
#286 = PERSON_AND_ORGANIZATION ( #18446744073709551615, #18446744073709551615 ) ;
#287 = APPROVAL ( #202, 'Coincident' ) ;
#288 = COORDINATED_UNIVERSAL_TIME_OFFSET ( 10, 0, .AHEAD. ) ;
#289 = PERSON_AND_ORGANIZATION_ROLE ( 'creator' ) ;
#290 = DIRECTION ( 'NONE',  ( 1.000000000000000000, 0.000000000000000000, 0.000000000000000000 ) ) ;
#291 = CC_DESIGN_APPROVAL ( #287, ( #103 ) ) ;
#292 = APPROVAL_STATUS ( 'not_yet_approved' ) ;
#293 =( NAMED_UNIT ( * ) PLANE_ANGLE_UNIT ( ) SI_UNIT ( $, .RADIAN. ) );
#294 = DESIGN_CONTEXT ( 'detailed design', #280, 'design' ) ;
#295 = COORDINATED_UNIVERSAL_TIME_OFFSET ( 10, 0, .AHEAD. ) ;
#296 = APPLICATION_PROTOCOL_DEFINITION ( 'international standard', 'config_control_design', 1994, #280 ) ;
#297 = IDENTIFICATION_ROLE ( 'external document id and location', $) ;
#298 = CC_DESIGN_APPROVAL ( #303, ( #121 ) ) ;
#299 = PERSON_AND_ORGANIZATION_ROLE ( 'classification_officer' ) ;
#300 = APPROVAL_STATUS ( 'not_yet_approved' ) ;
#301 = DATE_TIME_ROLE ( 'creation_date' ) ;
#302 = DATE_AND_TIME ( #332, #27 ) ;
#303 = APPROVAL ( #300, 'UNKNOWN' ) ;
#304 = LOCAL_TIME ( 18, 49, 54.00000000000000000, #163 ) ;
#305 = APPLICATION_CONTEXT ( 'configuration controlled 3d designs of mechanical parts and assemblies' ) ;
#306 = COORDINATED_UNIVERSAL_TIME_OFFSET ( 10, 0, .AHEAD. ) ;
#307 = DIRECTION ( 'NONE',  ( 4.890937612370273194E-29, -3.155443620884047222E-30, 0.9999999999999997780 ) ) ;
#308 = PROPERTY_DEFINITION_REPRESENTATION ( #256, #22 ) ;
#309 = DIRECTION ( 'NONE',  ( 0.000000000000000000, 0.000000000000000000, 1.000000000000000000 ) ) ;
#310 = CALENDAR_DATE ( 2026, 22, 6 ) ;
#311 = APPROVAL_PERSON_ORGANIZATION ( #85, #314, #235 ) ;
#312 = ROLE_ASSOCIATION ( #113, #334 ) ;
#313 = PRODUCT_RELATED_PRODUCT_CATEGORY ( 'detail', '', ( #225 ) ) ;
#314 = APPROVAL ( #54, 'Coincident' ) ;
#315 = PERSON_AND_ORGANIZATION_ROLE ( 'creator' ) ;
#316 = SECURITY_CLASSIFICATION ( '', '', #136 ) ;
#317 = CC_DESIGN_PERSON_AND_ORGANIZATION_ASSIGNMENT ( #67, #244, ( #124 ) ) ;
#318 = CALENDAR_DATE ( 2026, 22, 6 ) ;
#319 = APPROVAL_STATUS ( 'not_yet_approved' ) ;
#320 = DESIGN_CONTEXT ( 'detailed design', #305, 'design' ) ;
#321 = PERSON_AND_ORGANIZATION ( #18446744073709551615, #18446744073709551615 ) ;
#322 = LOCAL_TIME ( 18, 49, 54.00000000000000000, #13 ) ;
#323 = PERSON_AND_ORGANIZATION ( #18446744073709551615, #18446744073709551615 ) ;
#324 = CALENDAR_DATE ( 2026, 22, 6 ) ;
#325 = APPROVAL ( #10, 'UNKNOWN' ) ;
#326 = DATE_AND_TIME ( #209, #176 ) ;
#327 = CC_DESIGN_PERSON_AND_ORGANIZATION_ASSIGNMENT ( #286, #289, ( #70 ) ) ;
#328 = APPROVAL_ROLE ( '' ) ;
#329 =( REPRESENTATION_RELATIONSHIP ('NONE','NONE', #219, #58 ) REPRESENTATION_RELATIONSHIP_WITH_TRANSFORMATION ( #234 )SHAPE_REPRESENTATION_RELATIONSHIP( ) );
#330 = DATE_TIME_ROLE ( 'classification_date' ) ;
#331 = CARTESIAN_POINT ( 'NONE',  ( 12.59999948117200219, 23.19999340820300660, -2.058321952819998302 ) ) ;
#332 = CALENDAR_DATE ( 2026, 22, 6 ) ;
#333 =( LENGTH_UNIT ( ) NAMED_UNIT ( * ) SI_UNIT ( .MILLI., .METRE. ) );
#334 = APPLIED_DOCUMENT_REFERENCE ( #69,'',( #252) ) ;
#335 = LOCAL_TIME ( 18, 49, 54.00000000000000000, #240 ) ;
#336 = CARTESIAN_POINT ( 'NONE',  ( 13.59999948117200574, 23.19999340820300304, -2.058321952820000078 ) ) ;
#337 = APPROVAL_DATE_TIME ( #92, #115 ) ;
#338 = CARTESIAN_POINT ( 'NONE',  ( 13.09999948117200219, 23.19999340820300660, -2.058321952820000078 ) ) ;
#339 = ROLE_ASSOCIATION ( #355, #187 ) ;
#340 = APPROVAL_STATUS ( 'not_yet_approved' ) ;
#341 = AXIS2_PLACEMENT_3D ( 'NONE', #338, #213, #181 ) ;
#342 = LOCAL_TIME ( 18, 49, 54.00000000000000000, #306 ) ;
#343 = PRODUCT_DEFINITION_SHAPE ( 'NONE', 'NONE',  #388 ) ;
#344 = APPROVAL_STATUS ( 'not_yet_approved' ) ;
#345 = PERSON_AND_ORGANIZATION_ROLE ( 'design_supplier' ) ;
#346 = CC_DESIGN_SECURITY_CLASSIFICATION ( #104, ( #248 ) ) ;
#347 = UNCERTAINTY_MEASURE_WITH_UNIT (LENGTH_MEASURE( 1.000000000000000082E-05 ), #242, 'distance_accuracy_value', 'NONE');
#348 = CALENDAR_DATE ( 2026, 22, 6 ) ;
#349 = APPROVAL_DATE_TIME ( #134, #75 ) ;
#350 = UNCERTAINTY_MEASURE_WITH_UNIT (LENGTH_MEASURE( 1.000000000000000082E-05 ), #108, 'distance_accuracy_value', 'NONE');
#351 = APPROVAL_ROLE ( '' ) ;
#352 = LOCAL_TIME ( 18, 49, 54.00000000000000000, #140 ) ;
#353 = PERSON_AND_ORGANIZATION_ROLE ( 'classification_officer' ) ;
#354 = PERSON_AND_ORGANIZATION ( #18446744073709551615, #18446744073709551615 ) ;
#355 = OBJECT_ROLE ('mandatory',$ ) ;
#356 = CC_DESIGN_DATE_AND_TIME_ASSIGNMENT ( #19, #49, ( #316 ) ) ;
#357 = APPROVAL_DATE_TIME ( #363, #82 ) ;
#358 = DATE_AND_TIME ( #63, #25 ) ;
#359 = AXIS2_PLACEMENT_3D ( 'NONE', #177, #148, #290 ) ;
#360 = ORGANIZATION ( 'NAUO-ORG85', 'UNSPECIFIED', 'UNSPECIFIED' ) ;
#361 = CALENDAR_DATE ( 2026, 22, 6 ) ;
#362 = DOCUMENT_FILE ( '6461082896.step.STEP' , '', '', #94, '' ,$ ) ;
#363 = DATE_AND_TIME ( #178, #335 ) ;
#364 = PROPERTY_DEFINITION ('document property','', #362 ) ;
#365 = IDENTIFICATION_ROLE ( 'external document id and location', $) ;
#366 = CC_DESIGN_DATE_AND_TIME_ASSIGNMENT ( #52, #171, ( #104 ) ) ;
#367 =( NAMED_UNIT ( * ) PLANE_ANGLE_UNIT ( ) SI_UNIT ( $, .RADIAN. ) );
#368 = LOCAL_TIME ( 18, 49, 54.00000000000000000, #154 ) ;
#369 = COORDINATED_UNIVERSAL_TIME_OFFSET ( 10, 0, .AHEAD. ) ;
#370 = LOCAL_TIME ( 18, 49, 54.00000000000000000, #87 ) ;
#371 = CALENDAR_DATE ( 2026, 22, 6 ) ;
#372 = COORDINATED_UNIVERSAL_TIME_OFFSET ( 10, 0, .AHEAD. ) ;
#373 = PERSON_AND_ORGANIZATION_ROLE ( 'classification_officer' ) ;
#374 = APPROVAL ( #2, 'Coincident' ) ;
#375 = APPROVAL_PERSON_ORGANIZATION ( #4, #82, #1 ) ;
#376 = CC_DESIGN_SECURITY_CLASSIFICATION ( #46, ( #390 ) ) ;
#377 = PERSON_AND_ORGANIZATION_ROLE ( 'creator' ) ;
#378 = APPROVAL_DATE_TIME ( #71, #31 ) ;
#379 = PERSON_AND_ORGANIZATION ( #18446744073709551615, #18446744073709551615 ) ;
#380 = CC_DESIGN_PERSON_AND_ORGANIZATION_ASSIGNMENT ( #59, #243, ( #20 ) ) ;
#381 = CC_DESIGN_APPROVAL ( #82, ( #252 ) ) ;
#382 = PERSON_AND_ORGANIZATION_ROLE ( 'design_owner' ) ;
#383 = PERSON ( 'NAUO-PER84', 'UNSPECIFIED', 'UNSPECIFIED', ('UNSPECIFIED'), ('UNSPECIFIED'), ('UNSPECIFIED') ) ;
#384 = CC_DESIGN_PERSON_AND_ORGANIZATION_ASSIGNMENT ( #323, #315, ( #103 ) ) ;
#385 = COORDINATED_UNIVERSAL_TIME_OFFSET ( 10, 0, .AHEAD. ) ;
#386 = CC_DESIGN_DATE_AND_TIME_ASSIGNMENT ( #111, #62, ( #252 ) ) ;
#387 = APPROVAL_PERSON_ORGANIZATION ( #23, #374, #328 ) ;
#388 = NEXT_ASSEMBLY_USAGE_OCCURRENCE ( 'NAUO84', ' ', ' ', #124, #252, $ ) ;
#389 = NEXT_ASSEMBLY_USAGE_OCCURRENCE ( 'NAUO85', ' ', ' ', #124, #103, $ ) ;
#390 = NEXT_ASSEMBLY_USAGE_OCCURRENCE ( 'NAUO86', ' ', ' ', #124, #252, $ ) ;
ENDSEC;
END-ISO-10303-21;
