ISO-10303-21;
HEADER;
FILE_DESCRIPTION (( 'STEP AP203' ),
    '1' );
FILE_NAME ('C35.step.STEP',
    '2026-06-22T08:49:53',
    ( 'localuser' ),
    ( '' ),
    'SwSTEP 2.0',
    'SolidWorks 2025',
    '' );
FILE_SCHEMA (( 'CONFIG_CONTROL_DESIGN' ));
ENDSEC;

DATA;
#1 = CC_DESIGN_PERSON_AND_ORGANIZATION_ASSIGNMENT ( #64, #279, ( #242 ) ) ;
#2 = DATE_AND_TIME ( #147, #324 ) ;
#3 = DESIGN_CONTEXT ( 'detailed design', #115, 'design' ) ;
#4 = APPROVAL_STATUS ( 'not_yet_approved' ) ;
#5 = COORDINATED_UNIVERSAL_TIME_OFFSET ( 10, 0, .AHEAD. ) ;
#6 = SECURITY_CLASSIFICATION ( '', '', #218 ) ;
#7 = PROPERTY_DEFINITION_REPRESENTATION ( #19, #212 ) ;
#8 = CC_DESIGN_PERSON_AND_ORGANIZATION_ASSIGNMENT ( #108, #350, ( #377 ) ) ;
#9 =( LENGTH_UNIT ( ) NAMED_UNIT ( * ) SI_UNIT ( .MILLI., .METRE. ) );
#10 = PERSON_AND_ORGANIZATION_ROLE ( 'classification_officer' ) ;
#11 = OBJECT_ROLE ('mandatory',$ ) ;
#12 = ORGANIZATION ( 'NAUO-ORG61', 'UNSPECIFIED', 'UNSPECIFIED' ) ;
#13 = CC_DESIGN_DATE_AND_TIME_ASSIGNMENT ( #176, #367, ( #65 ) ) ;
#14 = COORDINATED_UNIVERSAL_TIME_OFFSET ( 10, 0, .AHEAD. ) ;
#15 = APPROVAL_STATUS ( 'not_yet_approved' ) ;
#16 = APPROVAL_DATE_TIME ( #156, #193 ) ;
#17 = COORDINATED_UNIVERSAL_TIME_OFFSET ( 10, 0, .AHEAD. ) ;
#18 = PERSON_AND_ORGANIZATION ( #18446744073709551615, #18446744073709551615 ) ;
#19 = PROPERTY_DEFINITION ('document property','', #168 ) ;
#20 = CC_DESIGN_PERSON_AND_ORGANIZATION_ASSIGNMENT ( #344, #214, ( #86 ) ) ;
#21 = DATE_AND_TIME ( #155, #151 ) ;
#22 = MECHANICAL_CONTEXT ( 'NONE', #379, 'mechanical' ) ;
#23 = APPROVAL_ROLE ( '' ) ;
#24 = OBJECT_ROLE ('mandatory',$ ) ;
#25 = DIRECTION ( 'NONE',  ( 0.000000000000000000, 0.000000000000000000, 1.000000000000000000 ) ) ;
#26 = CC_DESIGN_APPROVAL ( #113, ( #166 ) ) ;
#27 = APPROVAL_STATUS ( 'not_yet_approved' ) ;
#28 = SHAPE_REPRESENTATION ( 'C35.step', ( #32, #368, #63, #347 ), #196 ) ;
#29 = DATE_AND_TIME ( #201, #95 ) ;
#30 = CALENDAR_DATE ( 2026, 22, 6 ) ;
#31 = DIRECTION ( 'NONE',  ( 4.890937612370273194E-29, -3.155443620884047222E-30, 0.9999999999999997780 ) ) ;
#32 = AXIS2_PLACEMENT_3D ( 'NONE', #180, #25, #345 ) ;
#33 = CALENDAR_DATE ( 2026, 22, 6 ) ;
#34 = CC_DESIGN_APPROVAL ( #171, ( #65 ) ) ;
#35 = APPLIED_EXTERNAL_IDENTIFICATION_ASSIGNMENT ( '6461075776.step.STEP' , #222, #102,( #327) ) ;
#36 = DOCUMENT_TYPE ( 'geometry' ) ;
#37 = SECURITY_CLASSIFICATION_LEVEL ( 'unclassified' ) ;
#38 = CC_DESIGN_APPROVAL ( #56, ( #277 ) ) ;
#39 = ROLE_ASSOCIATION ( #217, #343 ) ;
#40 =( NAMED_UNIT ( * ) PLANE_ANGLE_UNIT ( ) SI_UNIT ( $, .RADIAN. ) );
#41 = CC_DESIGN_PERSON_AND_ORGANIZATION_ASSIGNMENT ( #229, #195, ( #296 ) ) ;
#42 = APPROVAL_DATE_TIME ( #2, #171 ) ;
#43 = LOCAL_TIME ( 18, 49, 53.00000000000000000, #149 ) ;
#44 = COORDINATED_UNIVERSAL_TIME_OFFSET ( 10, 0, .AHEAD. ) ;
#45 = PERSON_AND_ORGANIZATION_ROLE ( 'design_owner' ) ;
#46 = PERSON_AND_ORGANIZATION_ROLE ( 'design_owner' ) ;
#47 = PRODUCT_DEFINITION_SHAPE ( 'NONE', 'NONE',  #389 ) ;
#48 = APPROVAL ( #316, 'Coincident' ) ;
#49 = PERSON_AND_ORGANIZATION ( #18446744073709551615, #18446744073709551615 ) ;
#50 = PRODUCT_DEFINITION_SHAPE ( 'NONE', 'NONE',  #388 ) ;
#51 = CC_DESIGN_SECURITY_CLASSIFICATION ( #277, ( #388 ) ) ;
#52 = PERSON_AND_ORGANIZATION ( #18446744073709551615, #18446744073709551615 ) ;
#53 =( REPRESENTATION_RELATIONSHIP ('NONE','NONE', #28, #212 ) REPRESENTATION_RELATIONSHIP_WITH_TRANSFORMATION ( #334 )SHAPE_REPRESENTATION_RELATIONSHIP( ) );
#54 = SHAPE_REPRESENTATION ( '6461075776.step', ( #281 ), #340 ) ;
#55 = APPROVAL_ROLE ( '' ) ;
#56 = APPROVAL ( #27, 'UNKNOWN' ) ;
#57 = CALENDAR_DATE ( 2026, 22, 6 ) ;
#58 = CC_DESIGN_APPROVAL ( #123, ( #6 ) ) ;
#59 = PERSON_AND_ORGANIZATION_ROLE ( 'classification_officer' ) ;
#60 = APPROVAL_ROLE ( '' ) ;
#61 = EXTERNAL_SOURCE (IDENTIFIER('') ) ;
#62 = COORDINATED_UNIVERSAL_TIME_OFFSET ( 10, 0, .AHEAD. ) ;
#63 = AXIS2_PLACEMENT_3D ( 'NONE', #270, #272, #275 ) ;
#64 = PERSON_AND_ORGANIZATION ( #18446744073709551615, #18446744073709551615 ) ;
#65 = SECURITY_CLASSIFICATION ( '', '', #234 ) ;
#66 = APPROVAL_ROLE ( '' ) ;
#67 = APPLICATION_PROTOCOL_DEFINITION ( 'international standard', 'config_control_design', 1994, #174 ) ;
#68 = PERSON_AND_ORGANIZATION ( #308, #105 ) ;
#69 = CC_DESIGN_PERSON_AND_ORGANIZATION_ASSIGNMENT ( #298, #301, ( #197 ) ) ;
#70 = PROPERTY_DEFINITION_REPRESENTATION ( #353, #212 ) ;
#71 = PERSON ( 'NAUO-PER61', 'UNSPECIFIED', 'UNSPECIFIED', ('UNSPECIFIED'), ('UNSPECIFIED'), ('UNSPECIFIED') ) ;
#72 = PERSON_AND_ORGANIZATION ( #18446744073709551615, #18446744073709551615 ) ;
#73 = PERSON_AND_ORGANIZATION ( #18446744073709551615, #18446744073709551615 ) ;
#74 = APPROVAL_PERSON_ORGANIZATION ( #92, #56, #203 ) ;
#75 = SECURITY_CLASSIFICATION_LEVEL ( 'unclassified' ) ;
#76 = APPROVAL_STATUS ( 'not_yet_approved' ) ;
#77 = DATE_AND_TIME ( #346, #374 ) ;
#78 = COORDINATED_UNIVERSAL_TIME_OFFSET ( 10, 0, .AHEAD. ) ;
#79 = APPROVAL_PERSON_ORGANIZATION ( #111, #302, #297 ) ;
#80 = CC_DESIGN_APPROVAL ( #148, ( #197 ) ) ;
#81 = PERSON_AND_ORGANIZATION_ROLE ( 'creator' ) ;
#82 = CC_DESIGN_PERSON_AND_ORGANIZATION_ASSIGNMENT ( #92, #59, ( #277 ) ) ;
#83 = CONTEXT_DEPENDENT_SHAPE_REPRESENTATION ( #192, #50 ) ;
#84 = APPLICATION_CONTEXT ( 'configuration controlled 3d designs of mechanical parts and assemblies' ) ;
#85 = COORDINATED_UNIVERSAL_TIME_OFFSET ( 10, 0, .AHEAD. ) ;
#86 = SECURITY_CLASSIFICATION ( '', '', #220 ) ;
#87 = LOCAL_TIME ( 18, 49, 53.00000000000000000, #376 ) ;
#88 = SHAPE_DEFINITION_REPRESENTATION ( #110, #54 ) ;
#89 =( NAMED_UNIT ( * ) SI_UNIT ( $, .STERADIAN. ) SOLID_ANGLE_UNIT ( ) );
#90 =( NAMED_UNIT ( * ) PLANE_ANGLE_UNIT ( ) SI_UNIT ( $, .RADIAN. ) );
#91 = APPROVAL_DATE_TIME ( #359, #56 ) ;
#92 = PERSON_AND_ORGANIZATION ( #384, #304 ) ;
#93 = APPROVAL_PERSON_ORGANIZATION ( #225, #215, #190 ) ;
#94 = PROPERTY_DEFINITION_REPRESENTATION ( #159, #212 ) ;
#95 = LOCAL_TIME ( 18, 49, 53.00000000000000000, #239 ) ;
#96 = CC_DESIGN_PERSON_AND_ORGANIZATION_ASSIGNMENT ( #194, #45, ( #351 ) ) ;
#97 = COORDINATED_UNIVERSAL_TIME_OFFSET ( 10, 0, .AHEAD. ) ;
#98 = DOCUMENT_FILE ( '6461076016.step.STEP' , '', '', #36, '' ,$ ) ;
#99 = PERSON_AND_ORGANIZATION_ROLE ( 'classification_officer' ) ;
#100 = LOCAL_TIME ( 18, 49, 53.00000000000000000, #62 ) ;
#101 = APPROVAL_ROLE ( '' ) ;
#102 = EXTERNAL_SOURCE (IDENTIFIER('') ) ;
#103 = APPLICATION_PROTOCOL_DEFINITION ( 'international standard', 'config_control_design', 1994, #84 ) ;
#104 = CC_DESIGN_PERSON_AND_ORGANIZATION_ASSIGNMENT ( #49, #161, ( #382 ) ) ;
#105 = ORGANIZATION ( 'NAUO-ORG62', 'UNSPECIFIED', 'UNSPECIFIED' ) ;
#106 = APPLICATION_CONTEXT ( 'configuration controlled 3d designs of mechanical parts and assemblies' ) ;
#107 = PRODUCT_DEFINITION_SHAPE ( 'NONE', 'NONE',  #390 ) ;
#108 = PERSON_AND_ORGANIZATION ( #18446744073709551615, #18446744073709551615 ) ;
#109 = COORDINATED_UNIVERSAL_TIME_OFFSET ( 10, 0, .AHEAD. ) ;
#110 = PRODUCT_DEFINITION_SHAPE ( 'NONE', 'NONE',  #166 ) ;
#111 = PERSON_AND_ORGANIZATION ( #18446744073709551615, #18446744073709551615 ) ;
#112 = DATE_AND_TIME ( #378, #363 ) ;
#113 = APPROVAL ( #135, 'Coincident' ) ;
#114 = SHAPE_DEFINITION_REPRESENTATION ( #254, #28 ) ;
#115 = APPLICATION_CONTEXT ( 'configuration controlled 3d designs of mechanical parts and assemblies' ) ;
#116 = CC_DESIGN_APPROVAL ( #48, ( #377 ) ) ;
#117 = LOCAL_TIME ( 18, 49, 53.00000000000000000, #230 ) ;
#118 = APPROVAL_STATUS ( 'not_yet_approved' ) ;
#119 = CALENDAR_DATE ( 2026, 22, 6 ) ;
#120 = CARTESIAN_POINT ( 'NONE',  ( 6.699997955293000018, 23.22500256347700542, 0.000000000000000000 ) ) ;
#121 = ITEM_DEFINED_TRANSFORMATION ( 'NONE', 'NONE', #368,  #281 ) ;
#122 = DATE_TIME_ROLE ( 'creation_date' ) ;
#123 = APPROVAL ( #338, 'UNKNOWN' ) ;
#124 = APPLICATION_CONTEXT ( 'configuration controlled 3d designs of mechanical parts and assemblies' ) ;
#125 = DIRECTION ( 'NONE',  ( 0.000000000000000000, 0.000000000000000000, 1.000000000000000000 ) ) ;
#126 = PERSON_AND_ORGANIZATION ( #18446744073709551615, #18446744073709551615 ) ;
#127 =( REPRESENTATION_RELATIONSHIP ('NONE','NONE', #28, #212 ) REPRESENTATION_RELATIONSHIP_WITH_TRANSFORMATION ( #128 )SHAPE_REPRESENTATION_RELATIONSHIP( ) );
#128 = ITEM_DEFINED_TRANSFORMATION ( 'NONE', 'NONE', #347,  #162 ) ;
#129 = UNCERTAINTY_MEASURE_WITH_UNIT (LENGTH_MEASURE( 1.000000000000000082E-05 ), #241, 'distance_accuracy_value', 'NONE');
#130 = PRODUCT_RELATED_PRODUCT_CATEGORY ( 'detail', '', ( #189 ) ) ;
#131 = COORDINATED_UNIVERSAL_TIME_OFFSET ( 10, 0, .AHEAD. ) ;
#132 = CC_DESIGN_SECURITY_CLASSIFICATION ( #355, ( #382 ) ) ;
#133 = CALENDAR_DATE ( 2026, 22, 6 ) ;
#134 = DATE_AND_TIME ( #317, #117 ) ;
#135 = APPROVAL_STATUS ( 'not_yet_approved' ) ;
#136 = CC_DESIGN_DATE_AND_TIME_ASSIGNMENT ( #333, #122, ( #166 ) ) ;
#137 = CALENDAR_DATE ( 2026, 22, 6 ) ;
#138 = PERSON_AND_ORGANIZATION ( #18446744073709551615, #18446744073709551615 ) ;
#139 = CC_DESIGN_SECURITY_CLASSIFICATION ( #6, ( #390 ) ) ;
#140 = DATE_AND_TIME ( #259, #169 ) ;
#141 = DATE_AND_TIME ( #303, #146 ) ;
#142 = PERSON_AND_ORGANIZATION ( #18446744073709551615, #18446744073709551615 ) ;
#143 = EXTERNAL_SOURCE (IDENTIFIER('') ) ;
#144 = PERSON_AND_ORGANIZATION_ROLE ( 'creator' ) ;
#145 =( GEOMETRIC_REPRESENTATION_CONTEXT ( 3 ) GLOBAL_UNCERTAINTY_ASSIGNED_CONTEXT ( ( #129 ) ) GLOBAL_UNIT_ASSIGNED_CONTEXT ( ( #241, #240, #89 ) ) REPRESENTATION_CONTEXT ( 'NONE', 'WORKASPACE' ) );
#146 = LOCAL_TIME ( 18, 49, 53.00000000000000000, #278 ) ;
#147 = CALENDAR_DATE ( 2026, 22, 6 ) ;
#148 = APPROVAL ( #329, 'Coincident' ) ;
#149 = COORDINATED_UNIVERSAL_TIME_OFFSET ( 10, 0, .AHEAD. ) ;
#150 = PERSON_AND_ORGANIZATION ( #18446744073709551615, #18446744073709551615 ) ;
#151 = LOCAL_TIME ( 18, 49, 53.00000000000000000, #294 ) ;
#152 = APPLIED_EXTERNAL_IDENTIFICATION_ASSIGNMENT ( '6461076016.step.STEP' , #261, #143,( #98) ) ;
#153 = CC_DESIGN_DATE_AND_TIME_ASSIGNMENT ( #289, #255, ( #377 ) ) ;
#154 = CC_DESIGN_APPROVAL ( #302, ( #296 ) ) ;
#155 = CALENDAR_DATE ( 2026, 22, 6 ) ;
#156 = DATE_AND_TIME ( #133, #231 ) ;
#157 = APPROVAL_DATE_TIME ( #21, #48 ) ;
#158 = APPLICATION_PROTOCOL_DEFINITION ( 'international standard', 'config_control_design', 1994, #124 ) ;
#159 = PROPERTY_DEFINITION ('external definition','', #168 ) ;
#160 = PRODUCT ( '6461075776.step', '6461075776.step', '', ( #188 ) ) ;
#161 = PERSON_AND_ORGANIZATION_ROLE ( 'design_supplier' ) ;
#162 = AXIS2_PLACEMENT_3D ( 'NONE', #182, #233, #328 ) ;
#163 = LOCAL_TIME ( 18, 49, 53.00000000000000000, #109 ) ;
#164 = DATE_AND_TIME ( #323, #250 ) ;
#165 = DESIGN_CONTEXT ( 'detailed design', #106, 'design' ) ;
#166 = PRODUCT_DEFINITION ( 'General', '', #197, #244 ) ;
#167 = COORDINATED_UNIVERSAL_TIME_OFFSET ( 10, 0, .AHEAD. ) ;
#168 = DOCUMENT_FILE ( '6461076016.step.STEP' , '', '', #291, '' ,$ ) ;
#169 = LOCAL_TIME ( 18, 49, 53.00000000000000000, #17 ) ;
#170 = LOCAL_TIME ( 18, 49, 53.00000000000000000, #236 ) ;
#171 = APPROVAL ( #357, 'UNKNOWN' ) ;
#172 = APPLIED_DOCUMENT_REFERENCE ( #327,'',( #166) ) ;
#173 = COORDINATED_UNIVERSAL_TIME_OFFSET ( 10, 0, .AHEAD. ) ;
#174 = APPLICATION_CONTEXT ( 'configuration controlled 3d designs of mechanical parts and assemblies' ) ;
#175 = APPROVAL_DATE_TIME ( #140, #215 ) ;
#176 = DATE_AND_TIME ( #33, #100 ) ;
#177 = CC_DESIGN_PERSON_AND_ORGANIZATION_ASSIGNMENT ( #150, #245, ( #373 ) ) ;
#178 = LOCAL_TIME ( 18, 49, 53.00000000000000000, #348 ) ;
#179 = APPROVAL_ROLE ( '' ) ;
#180 = CARTESIAN_POINT ( 'NONE',  ( 0.000000000000000000, 0.000000000000000000, 0.000000000000000000 ) ) ;
#181 = PROPERTY_DEFINITION_REPRESENTATION ( #320, #212 ) ;
#182 = CARTESIAN_POINT ( 'NONE',  ( 0.000000000000000000, 0.000000000000000000, 0.000000000000000000 ) ) ;
#183 = DATE_AND_TIME ( #185, #257 ) ;
#184 = PERSON_AND_ORGANIZATION_ROLE ( 'design_supplier' ) ;
#185 = CALENDAR_DATE ( 2026, 22, 6 ) ;
#186 = DATE_AND_TIME ( #354, #87 ) ;
#187 = APPROVAL_PERSON_ORGANIZATION ( #381, #288, #23 ) ;
#188 = MECHANICAL_CONTEXT ( 'NONE', #84, 'mechanical' ) ;
#189 = PRODUCT ( '6461076016.step', '6461076016.step', '', ( #22 ) ) ;
#190 = APPROVAL_ROLE ( '' ) ;
#191 = DATE_TIME_ROLE ( 'creation_date' ) ;
#192 =( REPRESENTATION_RELATIONSHIP ('NONE','NONE', #28, #54 ) REPRESENTATION_RELATIONSHIP_WITH_TRANSFORMATION ( #121 )SHAPE_REPRESENTATION_RELATIONSHIP( ) );
#193 = APPROVAL ( #383, 'Coincident' ) ;
#194 = PERSON_AND_ORGANIZATION ( #18446744073709551615, #18446744073709551615 ) ;
#195 = PERSON_AND_ORGANIZATION_ROLE ( 'creator' ) ;
#196 =( GEOMETRIC_REPRESENTATION_CONTEXT ( 3 ) GLOBAL_UNCERTAINTY_ASSIGNED_CONTEXT ( ( #360 ) ) GLOBAL_UNIT_ASSIGNED_CONTEXT ( ( #209, #40, #251 ) ) REPRESENTATION_CONTEXT ( 'NONE', 'WORKASPACE' ) );
#197 = PRODUCT_DEFINITION_FORMATION_WITH_SPECIFIED_SOURCE ( 'Symmetric', '', #160, .NOT_KNOWN. ) ;
#198 = APPROVAL_PERSON_ORGANIZATION ( #138, #193, #55 ) ;
#199 = APPLICATION_PROTOCOL_DEFINITION ( 'international standard', 'config_control_design', 1994, #379 ) ;
#200 =( NAMED_UNIT ( * ) SI_UNIT ( $, .STERADIAN. ) SOLID_ANGLE_UNIT ( ) );
#201 = CALENDAR_DATE ( 2026, 22, 6 ) ;
#202 = PRODUCT_RELATED_PRODUCT_CATEGORY ( 'detail', '', ( #160 ) ) ;
#203 = APPROVAL_ROLE ( '' ) ;
#204 = CC_DESIGN_APPROVAL ( #215, ( #373 ) ) ;
#205 = CC_DESIGN_SECURITY_CLASSIFICATION ( #242, ( #197 ) ) ;
#206 = PROPERTY_DEFINITION_REPRESENTATION ( #247, #54 ) ;
#207 = CARTESIAN_POINT ( 'NONE',  ( 6.699997955293000018, 22.32499340820300304, 0.000000000000000000 ) ) ;
#208 = ROLE_ASSOCIATION ( #11, #172 ) ;
#209 =( LENGTH_UNIT ( ) NAMED_UNIT ( * ) SI_UNIT ( .MILLI., .METRE. ) );
#210 = DIRECTION ( 'NONE',  ( 1.000000000000000222, -1.092455418989176591E-28, 4.890937612370273194E-29 ) ) ;
#211 = DOCUMENT_TYPE ( 'geometry' ) ;
#212 = SHAPE_REPRESENTATION ( '6461076016.step', ( #162 ), #145 ) ;
#213 = CC_DESIGN_APPROVAL ( #193, ( #382 ) ) ;
#214 = PERSON_AND_ORGANIZATION_ROLE ( 'classification_officer' ) ;
#215 = APPROVAL ( #76, 'Coincident' ) ;
#216 = CC_DESIGN_APPROVAL ( #288, ( #86 ) ) ;
#217 = OBJECT_ROLE ('mandatory',$ ) ;
#218 = SECURITY_CLASSIFICATION_LEVEL ( 'unclassified' ) ;
#219 = APPROVAL ( #15, 'Coincident' ) ;
#220 = SECURITY_CLASSIFICATION_LEVEL ( 'unclassified' ) ;
#221 = MECHANICAL_CONTEXT ( 'NONE', #174, 'mechanical' ) ;
#222 = IDENTIFICATION_ROLE ( 'external document id and location', $) ;
#223 = DATE_AND_TIME ( #326, #369 ) ;
#224 = CC_DESIGN_APPROVAL ( #219, ( #355 ) ) ;
#225 = PERSON_AND_ORGANIZATION ( #18446744073709551615, #18446744073709551615 ) ;
#226 = APPROVAL_DATE_TIME ( #223, #288 ) ;
#227 = PRODUCT_DEFINITION_SHAPE ( 'NONE', 'NONE',  #296 ) ;
#228 = APPROVAL ( #4, 'Coincident' ) ;
#229 = PERSON_AND_ORGANIZATION ( #18446744073709551615, #18446744073709551615 ) ;
#230 = COORDINATED_UNIVERSAL_TIME_OFFSET ( 10, 0, .AHEAD. ) ;
#231 = LOCAL_TIME ( 18, 49, 53.00000000000000000, #256 ) ;
#232 = APPROVAL_DATE_TIME ( #29, #228 ) ;
#233 = DIRECTION ( 'NONE',  ( 0.000000000000000000, 0.000000000000000000, 1.000000000000000000 ) ) ;
#234 = SECURITY_CLASSIFICATION_LEVEL ( 'unclassified' ) ;
#235 = CALENDAR_DATE ( 2026, 22, 6 ) ;
#236 = COORDINATED_UNIVERSAL_TIME_OFFSET ( 10, 0, .AHEAD. ) ;
#237 = DIRECTION ( 'NONE',  ( 1.000000000000000222, -1.092455418989176591E-28, 4.890937612370273194E-29 ) ) ;
#238 = CC_DESIGN_DATE_AND_TIME_ASSIGNMENT ( #112, #253, ( #86 ) ) ;
#239 = COORDINATED_UNIVERSAL_TIME_OFFSET ( 10, 0, .AHEAD. ) ;
#240 =( NAMED_UNIT ( * ) PLANE_ANGLE_UNIT ( ) SI_UNIT ( $, .RADIAN. ) );
#241 =( LENGTH_UNIT ( ) NAMED_UNIT ( * ) SI_UNIT ( .MILLI., .METRE. ) );
#242 = SECURITY_CLASSIFICATION ( '', '', #305 ) ;
#243 = PERSON_AND_ORGANIZATION ( #71, #12 ) ;
#244 = DESIGN_CONTEXT ( 'detailed design', #124, 'design' ) ;
#245 = PERSON_AND_ORGANIZATION_ROLE ( 'creator' ) ;
#246 = CONTEXT_DEPENDENT_SHAPE_REPRESENTATION ( #53, #47 ) ;
#247 = PROPERTY_DEFINITION ('external definition','', #327 ) ;
#248 = CC_DESIGN_PERSON_AND_ORGANIZATION_ASSIGNMENT ( #321, #375, ( #382 ) ) ;
#249 = APPROVAL_PERSON_ORGANIZATION ( #290, #113, #260 ) ;
#250 = LOCAL_TIME ( 18, 49, 53.00000000000000000, #78 ) ;
#251 =( NAMED_UNIT ( * ) SI_UNIT ( $, .STERADIAN. ) SOLID_ANGLE_UNIT ( ) );
#252 = APPROVAL_ROLE ( '' ) ;
#253 = DATE_TIME_ROLE ( 'classification_date' ) ;
#254 = PRODUCT_DEFINITION_SHAPE ( 'NONE', 'NONE',  #377 ) ;
#255 = DATE_TIME_ROLE ( 'creation_date' ) ;
#256 = COORDINATED_UNIVERSAL_TIME_OFFSET ( 10, 0, .AHEAD. ) ;
#257 = LOCAL_TIME ( 18, 49, 53.00000000000000000, #131 ) ;
#258 = CC_DESIGN_DATE_AND_TIME_ASSIGNMENT ( #183, #285, ( #6 ) ) ;
#259 = CALENDAR_DATE ( 2026, 22, 6 ) ;
#260 = APPROVAL_ROLE ( '' ) ;
#261 = IDENTIFICATION_ROLE ( 'external document id and location', $) ;
#262 = APPLICATION_PROTOCOL_DEFINITION ( 'international standard', 'config_control_design', 1994, #115 ) ;
#263 = APPROVAL_DATE_TIME ( #164, #113 ) ;
#264 = UNCERTAINTY_MEASURE_WITH_UNIT (LENGTH_MEASURE( 1.000000000000000082E-05 ), #9, 'distance_accuracy_value', 'NONE');
#265 = CC_DESIGN_PERSON_AND_ORGANIZATION_ASSIGNMENT ( #283, #184, ( #373 ) ) ;
#266 = APPROVAL_DATE_TIME ( #134, #302 ) ;
#267 = LOCAL_TIME ( 18, 49, 53.00000000000000000, #14 ) ;
#268 = APPROVAL_PERSON_ORGANIZATION ( #274, #148, #60 ) ;
#269 = PROPERTY_DEFINITION_REPRESENTATION ( #364, #54 ) ;
#270 = CARTESIAN_POINT ( 'NONE',  ( 6.699997955293000906, 24.12499645996100384, 0.000000000000000000 ) ) ;
#271 = DATE_TIME_ROLE ( 'classification_date' ) ;
#272 = DIRECTION ( 'NONE',  ( 4.890937612370273194E-29, -3.155443620884047222E-30, 0.9999999999999997780 ) ) ;
#273 = IDENTIFICATION_ROLE ( 'external document id and location', $) ;
#274 = PERSON_AND_ORGANIZATION ( #18446744073709551615, #18446744073709551615 ) ;
#275 = DIRECTION ( 'NONE',  ( 1.000000000000000222, -1.092455418989176591E-28, 4.890937612370273194E-29 ) ) ;
#276 = CC_DESIGN_DATE_AND_TIME_ASSIGNMENT ( #186, #287, ( #355 ) ) ;
#277 = SECURITY_CLASSIFICATION ( '', '', #37 ) ;
#278 = COORDINATED_UNIVERSAL_TIME_OFFSET ( 10, 0, .AHEAD. ) ;
#279 = PERSON_AND_ORGANIZATION_ROLE ( 'classification_officer' ) ;
#280 = CC_DESIGN_PERSON_AND_ORGANIZATION_ASSIGNMENT ( #18, #46, ( #160 ) ) ;
#281 = AXIS2_PLACEMENT_3D ( 'NONE', #365, #125, #311 ) ;
#282 = LOCAL_TIME ( 18, 49, 53.00000000000000000, #97 ) ;
#283 = PERSON_AND_ORGANIZATION ( #18446744073709551615, #18446744073709551615 ) ;
#284 = CC_DESIGN_PERSON_AND_ORGANIZATION_ASSIGNMENT ( #380, #81, ( #166 ) ) ;
#285 = DATE_TIME_ROLE ( 'classification_date' ) ;
#286 = APPLIED_EXTERNAL_IDENTIFICATION_ASSIGNMENT ( '6461076016.step.STEP' , #273, #61,( #168) ) ;
#287 = DATE_TIME_ROLE ( 'classification_date' ) ;
#288 = APPROVAL ( #307, 'Coincident' ) ;
#289 = DATE_AND_TIME ( #371, #267 ) ;
#290 = PERSON_AND_ORGANIZATION ( #18446744073709551615, #18446744073709551615 ) ;
#291 = DOCUMENT_TYPE ( 'geometry' ) ;
#292 = SHAPE_DEFINITION_REPRESENTATION ( #227, #212 ) ;
#293 = APPROVAL_PERSON_ORGANIZATION ( #126, #228, #179 ) ;
#294 = COORDINATED_UNIVERSAL_TIME_OFFSET ( 10, 0, .AHEAD. ) ;
#295 = APPLICATION_PROTOCOL_DEFINITION ( 'international standard', 'config_control_design', 1994, #106 ) ;
#296 = PRODUCT_DEFINITION ( 'General', '', #382, #165 ) ;
#297 = APPROVAL_ROLE ( '' ) ;
#298 = PERSON_AND_ORGANIZATION ( #18446744073709551615, #18446744073709551615 ) ;
#299 = CC_DESIGN_SECURITY_CLASSIFICATION ( #86, ( #373 ) ) ;
#300 = DATE_AND_TIME ( #119, #178 ) ;
#301 = PERSON_AND_ORGANIZATION_ROLE ( 'design_supplier' ) ;
#302 = APPROVAL ( #118, 'Coincident' ) ;
#303 = CALENDAR_DATE ( 2026, 22, 6 ) ;
#304 = ORGANIZATION ( 'NAUO-ORG60', 'UNSPECIFIED', 'UNSPECIFIED' ) ;
#305 = SECURITY_CLASSIFICATION_LEVEL ( 'unclassified' ) ;
#306 = CC_DESIGN_PERSON_AND_ORGANIZATION_ASSIGNMENT ( #68, #99, ( #6 ) ) ;
#307 = APPROVAL_STATUS ( 'not_yet_approved' ) ;
#308 = PERSON ( 'NAUO-PER62', 'UNSPECIFIED', 'UNSPECIFIED', ('UNSPECIFIED'), ('UNSPECIFIED'), ('UNSPECIFIED') ) ;
#309 = ROLE_ASSOCIATION ( #24, #312 ) ;
#310 = APPROVAL_PERSON_ORGANIZATION ( #243, #171, #101 ) ;
#311 = DIRECTION ( 'NONE',  ( 1.000000000000000000, 0.000000000000000000, 0.000000000000000000 ) ) ;
#312 = APPLIED_DOCUMENT_REFERENCE ( #168,'',( #296) ) ;
#313 = CONTEXT_DEPENDENT_SHAPE_REPRESENTATION ( #127, #107 ) ;
#314 = DATE_AND_TIME ( #339, #282 ) ;
#315 = CC_DESIGN_APPROVAL ( #228, ( #242 ) ) ;
#316 = APPROVAL_STATUS ( 'not_yet_approved' ) ;
#317 = CALENDAR_DATE ( 2026, 22, 6 ) ;
#318 = CC_DESIGN_DATE_AND_TIME_ASSIGNMENT ( #77, #191, ( #296 ) ) ;
#319 = DATE_AND_TIME ( #137, #163 ) ;
#320 = PROPERTY_DEFINITION ('external definition','', #98 ) ;
#321 = PERSON_AND_ORGANIZATION ( #18446744073709551615, #18446744073709551615 ) ;
#322 = APPROVAL_ROLE ( '' ) ;
#323 = CALENDAR_DATE ( 2026, 22, 6 ) ;
#324 = LOCAL_TIME ( 18, 49, 53.00000000000000000, #85 ) ;
#325 = CC_DESIGN_DATE_AND_TIME_ASSIGNMENT ( #358, #271, ( #242 ) ) ;
#326 = CALENDAR_DATE ( 2026, 22, 6 ) ;
#327 = DOCUMENT_FILE ( '6461075776.step.STEP' , '', '', #211, '' ,$ ) ;
#328 = DIRECTION ( 'NONE',  ( 1.000000000000000000, 0.000000000000000000, 0.000000000000000000 ) ) ;
#329 = APPROVAL_STATUS ( 'not_yet_approved' ) ;
#330 = APPROVAL_PERSON_ORGANIZATION ( #72, #48, #322 ) ;
#331 = APPROVAL_PERSON_ORGANIZATION ( #68, #123, #66 ) ;
#332 = CC_DESIGN_PERSON_AND_ORGANIZATION_ASSIGNMENT ( #73, #356, ( #355 ) ) ;
#333 = DATE_AND_TIME ( #30, #43 ) ;
#334 = ITEM_DEFINED_TRANSFORMATION ( 'NONE', 'NONE', #63,  #162 ) ;
#335 = DATE_TIME_ROLE ( 'classification_date' ) ;
#336 = CC_DESIGN_PERSON_AND_ORGANIZATION_ASSIGNMENT ( #243, #10, ( #65 ) ) ;
#337 = LOCAL_TIME ( 18, 49, 53.00000000000000000, #173 ) ;
#338 = APPROVAL_STATUS ( 'not_yet_approved' ) ;
#339 = CALENDAR_DATE ( 2026, 22, 6 ) ;
#340 =( GEOMETRIC_REPRESENTATION_CONTEXT ( 3 ) GLOBAL_UNCERTAINTY_ASSIGNED_CONTEXT ( ( #264 ) ) GLOBAL_UNIT_ASSIGNED_CONTEXT ( ( #9, #90, #200 ) ) REPRESENTATION_CONTEXT ( 'NONE', 'WORKASPACE' ) );
#341 = APPROVAL_PERSON_ORGANIZATION ( #52, #219, #252 ) ;
#342 = CC_DESIGN_PERSON_AND_ORGANIZATION_ASSIGNMENT ( #349, #352, ( #189 ) ) ;
#343 = APPLIED_DOCUMENT_REFERENCE ( #98,'',( #296) ) ;
#344 = PERSON_AND_ORGANIZATION ( #18446744073709551615, #18446744073709551615 ) ;
#345 = DIRECTION ( 'NONE',  ( 1.000000000000000000, 0.000000000000000000, 0.000000000000000000 ) ) ;
#346 = CALENDAR_DATE ( 2026, 22, 6 ) ;
#347 = AXIS2_PLACEMENT_3D ( 'NONE', #207, #386, #237 ) ;
#348 = COORDINATED_UNIVERSAL_TIME_OFFSET ( 10, 0, .AHEAD. ) ;
#349 = PERSON_AND_ORGANIZATION ( #18446744073709551615, #18446744073709551615 ) ;
#350 = PERSON_AND_ORGANIZATION_ROLE ( 'creator' ) ;
#351 = PRODUCT ( 'C35.step', 'C35.step', '', ( #221 ) ) ;
#352 = PERSON_AND_ORGANIZATION_ROLE ( 'design_owner' ) ;
#353 = PROPERTY_DEFINITION ('document property','', #98 ) ;
#354 = CALENDAR_DATE ( 2026, 22, 6 ) ;
#355 = SECURITY_CLASSIFICATION ( '', '', #75 ) ;
#356 = PERSON_AND_ORGANIZATION_ROLE ( 'classification_officer' ) ;
#357 = APPROVAL_STATUS ( 'not_yet_approved' ) ;
#358 = DATE_AND_TIME ( #57, #337 ) ;
#359 = DATE_AND_TIME ( #235, #170 ) ;
#360 = UNCERTAINTY_MEASURE_WITH_UNIT (LENGTH_MEASURE( 1.000000000000000082E-05 ), #209, 'distance_accuracy_value', 'NONE');
#361 = PRODUCT_RELATED_PRODUCT_CATEGORY ( 'detail', '', ( #351 ) ) ;
#362 = APPROVAL_DATE_TIME ( #141, #148 ) ;
#363 = LOCAL_TIME ( 18, 49, 53.00000000000000000, #5 ) ;
#364 = PROPERTY_DEFINITION ('document property','', #327 ) ;
#365 = CARTESIAN_POINT ( 'NONE',  ( 0.000000000000000000, 0.000000000000000000, 0.000000000000000000 ) ) ;
#366 = APPROVAL_DATE_TIME ( #314, #123 ) ;
#367 = DATE_TIME_ROLE ( 'classification_date' ) ;
#368 = AXIS2_PLACEMENT_3D ( 'NONE', #120, #31, #210 ) ;
#369 = LOCAL_TIME ( 18, 49, 53.00000000000000000, #167 ) ;
#370 = CC_DESIGN_PERSON_AND_ORGANIZATION_ASSIGNMENT ( #142, #144, ( #197 ) ) ;
#371 = CALENDAR_DATE ( 2026, 22, 6 ) ;
#372 = APPROVAL_DATE_TIME ( #319, #219 ) ;
#373 = PRODUCT_DEFINITION_FORMATION_WITH_SPECIFIED_SOURCE ( 'Symmetric', '', #351, .NOT_KNOWN. ) ;
#374 = LOCAL_TIME ( 18, 49, 53.00000000000000000, #44 ) ;
#375 = PERSON_AND_ORGANIZATION_ROLE ( 'creator' ) ;
#376 = COORDINATED_UNIVERSAL_TIME_OFFSET ( 10, 0, .AHEAD. ) ;
#377 = PRODUCT_DEFINITION ( 'General', '', #373, #3 ) ;
#378 = CALENDAR_DATE ( 2026, 22, 6 ) ;
#379 = APPLICATION_CONTEXT ( 'configuration controlled 3d designs of mechanical parts and assemblies' ) ;
#380 = PERSON_AND_ORGANIZATION ( #18446744073709551615, #18446744073709551615 ) ;
#381 = PERSON_AND_ORGANIZATION ( #18446744073709551615, #18446744073709551615 ) ;
#382 = PRODUCT_DEFINITION_FORMATION_WITH_SPECIFIED_SOURCE ( 'Symmetric', '', #189, .NOT_KNOWN. ) ;
#383 = APPROVAL_STATUS ( 'not_yet_approved' ) ;
#384 = PERSON ( 'NAUO-PER60', 'UNSPECIFIED', 'UNSPECIFIED', ('UNSPECIFIED'), ('UNSPECIFIED'), ('UNSPECIFIED') ) ;
#385 = CC_DESIGN_DATE_AND_TIME_ASSIGNMENT ( #300, #335, ( #277 ) ) ;
#386 = DIRECTION ( 'NONE',  ( 4.890937612370273194E-29, -3.155443620884047222E-30, 0.9999999999999997780 ) ) ;
#387 = CC_DESIGN_SECURITY_CLASSIFICATION ( #65, ( #389 ) ) ;
#388 = NEXT_ASSEMBLY_USAGE_OCCURRENCE ( 'NAUO60', ' ', ' ', #377, #166, $ ) ;
#389 = NEXT_ASSEMBLY_USAGE_OCCURRENCE ( 'NAUO61', ' ', ' ', #377, #296, $ ) ;
#390 = NEXT_ASSEMBLY_USAGE_OCCURRENCE ( 'NAUO62', ' ', ' ', #377, #296, $ ) ;
ENDSEC;
END-ISO-10303-21;
