ISO-10303-21;
HEADER;
FILE_DESCRIPTION (( 'STEP AP203' ),
    '1' );
FILE_NAME ('C36.step.STEP',
    '2026-06-22T08:49:53',
    ( 'localuser' ),
    ( '' ),
    'SwSTEP 2.0',
    'SolidWorks 2025',
    '' );
FILE_SCHEMA (( 'CONFIG_CONTROL_DESIGN' ));
ENDSEC;

DATA;
#1 = CC_DESIGN_PERSON_AND_ORGANIZATION_ASSIGNMENT ( #363, #206, ( #46 ) ) ;
#2 = SHAPE_DEFINITION_REPRESENTATION ( #253, #332 ) ;
#3 = COORDINATED_UNIVERSAL_TIME_OFFSET ( 10, 0, .AHEAD. ) ;
#4 = APPROVAL_ROLE ( '' ) ;
#5 = DATE_TIME_ROLE ( 'classification_date' ) ;
#6 = LOCAL_TIME ( 18, 49, 53.00000000000000000, #58 ) ;
#7 = CALENDAR_DATE ( 2026, 22, 6 ) ;
#8 = CC_DESIGN_PERSON_AND_ORGANIZATION_ASSIGNMENT ( #126, #232, ( #215 ) ) ;
#9 = DIRECTION ( 'NONE',  ( 4.890937612370273194E-29, -3.155443620884047222E-30, 0.9999999999999997780 ) ) ;
#10 = DATE_AND_TIME ( #125, #230 ) ;
#11 = PERSON_AND_ORGANIZATION_ROLE ( 'classification_officer' ) ;
#12 = CONTEXT_DEPENDENT_SHAPE_REPRESENTATION ( #22, #342 ) ;
#13 =( GEOMETRIC_REPRESENTATION_CONTEXT ( 3 ) GLOBAL_UNCERTAINTY_ASSIGNED_CONTEXT ( ( #164 ) ) GLOBAL_UNIT_ASSIGNED_CONTEXT ( ( #344, #287, #20 ) ) REPRESENTATION_CONTEXT ( 'NONE', 'WORKASPACE' ) );
#14 = LOCAL_TIME ( 18, 49, 53.00000000000000000, #369 ) ;
#15 = CC_DESIGN_PERSON_AND_ORGANIZATION_ASSIGNMENT ( #71, #304, ( #112 ) ) ;
#16 = CARTESIAN_POINT ( 'NONE',  ( 0.000000000000000000, 0.000000000000000000, 0.000000000000000000 ) ) ;
#17 = LOCAL_TIME ( 18, 49, 53.00000000000000000, #145 ) ;
#18 = DOCUMENT_TYPE ( 'geometry' ) ;
#19 = CC_DESIGN_PERSON_AND_ORGANIZATION_ASSIGNMENT ( #255, #37, ( #345 ) ) ;
#20 =( NAMED_UNIT ( * ) SI_UNIT ( $, .STERADIAN. ) SOLID_ANGLE_UNIT ( ) );
#21 = PERSON_AND_ORGANIZATION_ROLE ( 'classification_officer' ) ;
#22 =( REPRESENTATION_RELATIONSHIP ('NONE','NONE', #218, #332 ) REPRESENTATION_RELATIONSHIP_WITH_TRANSFORMATION ( #173 )SHAPE_REPRESENTATION_RELATIONSHIP( ) );
#23 = CC_DESIGN_PERSON_AND_ORGANIZATION_ASSIGNMENT ( #94, #97, ( #46 ) ) ;
#24 = PERSON_AND_ORGANIZATION ( #18446744073709551615, #18446744073709551615 ) ;
#25 = PERSON_AND_ORGANIZATION ( #18446744073709551615, #18446744073709551615 ) ;
#26 = DOCUMENT_FILE ( '6461082896.step.STEP' , '', '', #185, '' ,$ ) ;
#27 = CALENDAR_DATE ( 2026, 22, 6 ) ;
#28 = APPROVAL_DATE_TIME ( #193, #311 ) ;
#29 = APPROVAL_ROLE ( '' ) ;
#30 = PERSON_AND_ORGANIZATION_ROLE ( 'creator' ) ;
#31 = CC_DESIGN_SECURITY_CLASSIFICATION ( #329, ( #46 ) ) ;
#32 = APPROVAL_PERSON_ORGANIZATION ( #80, #52, #379 ) ;
#33 = EXTERNAL_SOURCE (IDENTIFIER('') ) ;
#34 = SECURITY_CLASSIFICATION_LEVEL ( 'unclassified' ) ;
#35 = COORDINATED_UNIVERSAL_TIME_OFFSET ( 10, 0, .AHEAD. ) ;
#36 = SECURITY_CLASSIFICATION_LEVEL ( 'unclassified' ) ;
#37 = PERSON_AND_ORGANIZATION_ROLE ( 'design_owner' ) ;
#38 = APPROVAL_ROLE ( '' ) ;
#39 = DOCUMENT_FILE ( '6461082896.step.STEP' , '', '', #18, '' ,$ ) ;
#40 = SECURITY_CLASSIFICATION_LEVEL ( 'unclassified' ) ;
#41 = OBJECT_ROLE ('mandatory',$ ) ;
#42 = DATE_TIME_ROLE ( 'classification_date' ) ;
#43 = CC_DESIGN_PERSON_AND_ORGANIZATION_ASSIGNMENT ( #265, #322, ( #300 ) ) ;
#44 = CALENDAR_DATE ( 2026, 22, 6 ) ;
#45 = AXIS2_PLACEMENT_3D ( 'NONE', #47, #74, #187 ) ;
#46 = PRODUCT_DEFINITION_FORMATION_WITH_SPECIFIED_SOURCE ( 'Symmetric', '', #101, .NOT_KNOWN. ) ;
#47 = CARTESIAN_POINT ( 'NONE',  ( 0.000000000000000000, 0.000000000000000000, 0.000000000000000000 ) ) ;
#48 = PRODUCT_DEFINITION_SHAPE ( 'NONE', 'NONE',  #390 ) ;
#49 = PRODUCT_DEFINITION_SHAPE ( 'NONE', 'NONE',  #328 ) ;
#50 = CC_DESIGN_APPROVAL ( #117, ( #329 ) ) ;
#51 = COORDINATED_UNIVERSAL_TIME_OFFSET ( 10, 0, .AHEAD. ) ;
#52 = APPROVAL ( #73, 'UNKNOWN' ) ;
#53 = SECURITY_CLASSIFICATION_LEVEL ( 'unclassified' ) ;
#54 = APPLICATION_PROTOCOL_DEFINITION ( 'international standard', 'config_control_design', 1994, #141 ) ;
#55 =( REPRESENTATION_RELATIONSHIP ('NONE','NONE', #218, #385 ) REPRESENTATION_RELATIONSHIP_WITH_TRANSFORMATION ( #95 )SHAPE_REPRESENTATION_RELATIONSHIP( ) );
#56 = PERSON_AND_ORGANIZATION ( #18446744073709551615, #18446744073709551615 ) ;
#57 = CALENDAR_DATE ( 2026, 22, 6 ) ;
#58 = COORDINATED_UNIVERSAL_TIME_OFFSET ( 10, 0, .AHEAD. ) ;
#59 = DESIGN_CONTEXT ( 'detailed design', #257, 'design' ) ;
#60 = APPROVAL_PERSON_ORGANIZATION ( #24, #124, #383 ) ;
#61 = APPROVAL_ROLE ( '' ) ;
#62 = CALENDAR_DATE ( 2026, 22, 6 ) ;
#63 = PERSON_AND_ORGANIZATION ( #18446744073709551615, #18446744073709551615 ) ;
#64 = CALENDAR_DATE ( 2026, 22, 6 ) ;
#65 = PERSON_AND_ORGANIZATION_ROLE ( 'design_supplier' ) ;
#66 = DIRECTION ( 'NONE',  ( 1.000000000000000000, 0.000000000000000000, 0.000000000000000000 ) ) ;
#67 = APPROVAL_DATE_TIME ( #211, #140 ) ;
#68 = LOCAL_TIME ( 18, 49, 53.00000000000000000, #205 ) ;
#69 = APPROVAL_DATE_TIME ( #150, #117 ) ;
#70 = CC_DESIGN_PERSON_AND_ORGANIZATION_ASSIGNMENT ( #134, #86, ( #174 ) ) ;
#71 = PERSON_AND_ORGANIZATION ( #274, #216 ) ;
#72 = LOCAL_TIME ( 18, 49, 53.00000000000000000, #51 ) ;
#73 = APPROVAL_STATUS ( 'not_yet_approved' ) ;
#74 = DIRECTION ( 'NONE',  ( 0.000000000000000000, 0.000000000000000000, 1.000000000000000000 ) ) ;
#75 = APPROVAL_PERSON_ORGANIZATION ( #236, #314, #110 ) ;
#76 = CC_DESIGN_PERSON_AND_ORGANIZATION_ASSIGNMENT ( #25, #108, ( #233 ) ) ;
#77 = APPLICATION_PROTOCOL_DEFINITION ( 'international standard', 'config_control_design', 1994, #217 ) ;
#78 = MECHANICAL_CONTEXT ( 'NONE', #165, 'mechanical' ) ;
#79 = DATE_TIME_ROLE ( 'creation_date' ) ;
#80 = PERSON_AND_ORGANIZATION ( #343, #180 ) ;
#81 = APPROVAL_PERSON_ORGANIZATION ( #262, #288, #38 ) ;
#82 = COORDINATED_UNIVERSAL_TIME_OFFSET ( 10, 0, .AHEAD. ) ;
#83 = CALENDAR_DATE ( 2026, 22, 6 ) ;
#84 =( LENGTH_UNIT ( ) NAMED_UNIT ( * ) SI_UNIT ( .MILLI., .METRE. ) );
#85 = APPROVAL_STATUS ( 'not_yet_approved' ) ;
#86 = PERSON_AND_ORGANIZATION_ROLE ( 'classification_officer' ) ;
#87 = APPROVAL_DATE_TIME ( #235, #314 ) ;
#88 =( GEOMETRIC_REPRESENTATION_CONTEXT ( 3 ) GLOBAL_UNCERTAINTY_ASSIGNED_CONTEXT ( ( #241 ) ) GLOBAL_UNIT_ASSIGNED_CONTEXT ( ( #84, #291, #226 ) ) REPRESENTATION_CONTEXT ( 'NONE', 'WORKASPACE' ) );
#89 = APPROVAL_DATE_TIME ( #283, #212 ) ;
#90 = APPROVAL_PERSON_ORGANIZATION ( #244, #258, #309 ) ;
#91 = CC_DESIGN_DATE_AND_TIME_ASSIGNMENT ( #270, #223, ( #174 ) ) ;
#92 = DIRECTION ( 'NONE',  ( 1.000000000000000222, -1.092455418989176591E-28, 4.890937612370273194E-29 ) ) ;
#93 = ROLE_ASSOCIATION ( #378, #120 ) ;
#94 = PERSON_AND_ORGANIZATION ( #18446744073709551615, #18446744073709551615 ) ;
#95 = ITEM_DEFINED_TRANSFORMATION ( 'NONE', 'NONE', #367,  #45 ) ;
#96 = CC_DESIGN_SECURITY_CLASSIFICATION ( #112, ( #388 ) ) ;
#97 = PERSON_AND_ORGANIZATION_ROLE ( 'design_supplier' ) ;
#98 = LOCAL_TIME ( 18, 49, 53.00000000000000000, #136 ) ;
#99 = PROPERTY_DEFINITION ('document property','', #39 ) ;
#100 = ITEM_DEFINED_TRANSFORMATION ( 'NONE', 'NONE', #119,  #282 ) ;
#101 = PRODUCT ( '6461083056.step', '6461083056.step', '', ( #299 ) ) ;
#102 = DATE_AND_TIME ( #377, #294 ) ;
#103 = CC_DESIGN_PERSON_AND_ORGANIZATION_ASSIGNMENT ( #333, #123, ( #329 ) ) ;
#104 = APPROVAL_PERSON_ORGANIZATION ( #320, #267, #231 ) ;
#105 = COORDINATED_UNIVERSAL_TIME_OFFSET ( 10, 0, .AHEAD. ) ;
#106 = CC_DESIGN_APPROVAL ( #258, ( #352 ) ) ;
#107 = PERSON_AND_ORGANIZATION ( #18446744073709551615, #18446744073709551615 ) ;
#108 = PERSON_AND_ORGANIZATION_ROLE ( 'creator' ) ;
#109 = APPLICATION_PROTOCOL_DEFINITION ( 'international standard', 'config_control_design', 1994, #165 ) ;
#110 = APPROVAL_ROLE ( '' ) ;
#111 = CC_DESIGN_PERSON_AND_ORGANIZATION_ASSIGNMENT ( #386, #191, ( #101 ) ) ;
#112 = SECURITY_CLASSIFICATION ( '', '', #308 ) ;
#113 = APPLICATION_PROTOCOL_DEFINITION ( 'international standard', 'config_control_design', 1994, #170 ) ;
#114 = DATE_AND_TIME ( #83, #373 ) ;
#115 = DIRECTION ( 'NONE',  ( 1.000000000000000222, -1.092455418989176591E-28, 4.890937612370273194E-29 ) ) ;
#116 = COORDINATED_UNIVERSAL_TIME_OFFSET ( 10, 0, .AHEAD. ) ;
#117 = APPROVAL ( #334, 'Coincident' ) ;
#118 = DOCUMENT_TYPE ( 'geometry' ) ;
#119 = AXIS2_PLACEMENT_3D ( 'NONE', #278, #9, #115 ) ;
#120 = APPLIED_DOCUMENT_REFERENCE ( #272,'',( #328) ) ;
#121 = SECURITY_CLASSIFICATION ( '', '', #40 ) ;
#122 = DATE_AND_TIME ( #7, #254 ) ;
#123 = PERSON_AND_ORGANIZATION_ROLE ( 'classification_officer' ) ;
#124 = APPROVAL ( #260, 'Coincident' ) ;
#125 = CALENDAR_DATE ( 2026, 22, 6 ) ;
#126 = PERSON_AND_ORGANIZATION ( #18446744073709551615, #18446744073709551615 ) ;
#127 = LOCAL_TIME ( 18, 49, 53.00000000000000000, #269 ) ;
#128 = LOCAL_TIME ( 18, 49, 53.00000000000000000, #116 ) ;
#129 = CONTEXT_DEPENDENT_SHAPE_REPRESENTATION ( #271, #48 ) ;
#130 = PROPERTY_DEFINITION ('document property','', #26 ) ;
#131 = IDENTIFICATION_ROLE ( 'external document id and location', $) ;
#132 = CC_DESIGN_PERSON_AND_ORGANIZATION_ASSIGNMENT ( #229, #351, ( #153 ) ) ;
#133 = CC_DESIGN_APPROVAL ( #52, ( #146 ) ) ;
#134 = PERSON_AND_ORGANIZATION ( #18446744073709551615, #18446744073709551615 ) ;
#135 = ROLE_ASSOCIATION ( #157, #158 ) ;
#136 = COORDINATED_UNIVERSAL_TIME_OFFSET ( 10, 0, .AHEAD. ) ;
#137 = PERSON_AND_ORGANIZATION ( #18446744073709551615, #18446744073709551615 ) ;
#138 = CC_DESIGN_APPROVAL ( #288, ( #174 ) ) ;
#139 = APPROVAL_STATUS ( 'not_yet_approved' ) ;
#140 = APPROVAL ( #330, 'UNKNOWN' ) ;
#141 = APPLICATION_CONTEXT ( 'configuration controlled 3d designs of mechanical parts and assemblies' ) ;
#142 = CALENDAR_DATE ( 2026, 22, 6 ) ;
#143 = CONTEXT_DEPENDENT_SHAPE_REPRESENTATION ( #55, #181 ) ;
#144 =( NAMED_UNIT ( * ) PLANE_ANGLE_UNIT ( ) SI_UNIT ( $, .RADIAN. ) );
#145 = COORDINATED_UNIVERSAL_TIME_OFFSET ( 10, 0, .AHEAD. ) ;
#146 = SECURITY_CLASSIFICATION ( '', '', #53 ) ;
#147 = APPROVAL_DATE_TIME ( #122, #258 ) ;
#148 = CC_DESIGN_PERSON_AND_ORGANIZATION_ASSIGNMENT ( #199, #65, ( #215 ) ) ;
#149 = PERSON_AND_ORGANIZATION_ROLE ( 'classification_officer' ) ;
#150 = DATE_AND_TIME ( #44, #305 ) ;
#151 = LOCAL_TIME ( 18, 49, 53.00000000000000000, #297 ) ;
#152 = PRODUCT_RELATED_PRODUCT_CATEGORY ( 'detail', '', ( #101 ) ) ;
#153 = PRODUCT ( '6461082896.step', '6461082896.step', '', ( #78 ) ) ;
#154 = CC_DESIGN_SECURITY_CLASSIFICATION ( #121, ( #215 ) ) ;
#155 = DESIGN_CONTEXT ( 'detailed design', #170, 'design' ) ;
#156 = CC_DESIGN_DATE_AND_TIME_ASSIGNMENT ( #277, #213, ( #121 ) ) ;
#157 = OBJECT_ROLE ('mandatory',$ ) ;
#158 = APPLIED_DOCUMENT_REFERENCE ( #39,'',( #247) ) ;
#159 = CALENDAR_DATE ( 2026, 22, 6 ) ;
#160 = LOCAL_TIME ( 18, 49, 53.00000000000000000, #263 ) ;
#161 = CC_DESIGN_APPROVAL ( #311, ( #300 ) ) ;
#162 = DATE_TIME_ROLE ( 'creation_date' ) ;
#163 = APPROVAL_STATUS ( 'not_yet_approved' ) ;
#164 = UNCERTAINTY_MEASURE_WITH_UNIT (LENGTH_MEASURE( 1.000000000000000082E-05 ), #344, 'distance_accuracy_value', 'NONE');
#165 = APPLICATION_CONTEXT ( 'configuration controlled 3d designs of mechanical parts and assemblies' ) ;
#166 = APPROVAL_DATE_TIME ( #196, #124 ) ;
#167 = CC_DESIGN_PERSON_AND_ORGANIZATION_ASSIGNMENT ( #137, #292, ( #300 ) ) ;
#168 = DATE_AND_TIME ( #200, #6 ) ;
#169 = APPROVAL_ROLE ( '' ) ;
#170 = APPLICATION_CONTEXT ( 'configuration controlled 3d designs of mechanical parts and assemblies' ) ;
#171 = DIRECTION ( 'NONE',  ( 1.000000000000000222, -1.092455418989176591E-28, 4.890937612370273194E-29 ) ) ;
#172 = SHAPE_DEFINITION_REPRESENTATION ( #49, #385 ) ;
#173 = ITEM_DEFINED_TRANSFORMATION ( 'NONE', 'NONE', #188,  #282 ) ;
#174 = SECURITY_CLASSIFICATION ( '', '', #34 ) ;
#175 = CALENDAR_DATE ( 2026, 22, 6 ) ;
#176 = APPLICATION_PROTOCOL_DEFINITION ( 'international standard', 'config_control_design', 1994, #257 ) ;
#177 = DATE_AND_TIME ( #237, #68 ) ;
#178 = DATE_TIME_ROLE ( 'classification_date' ) ;
#179 = CC_DESIGN_APPROVAL ( #314, ( #233 ) ) ;
#180 = ORGANIZATION ( 'NAUO-ORG59', 'UNSPECIFIED', 'UNSPECIFIED' ) ;
#181 = PRODUCT_DEFINITION_SHAPE ( 'NONE', 'NONE',  #388 ) ;
#182 =( LENGTH_UNIT ( ) NAMED_UNIT ( * ) SI_UNIT ( .MILLI., .METRE. ) );
#183 = PROPERTY_DEFINITION ('external definition','', #39 ) ;
#184 = ROLE_ASSOCIATION ( #41, #321 ) ;
#185 = DOCUMENT_TYPE ( 'geometry' ) ;
#186 = CC_DESIGN_DATE_AND_TIME_ASSIGNMENT ( #347, #356, ( #247 ) ) ;
#187 = DIRECTION ( 'NONE',  ( 1.000000000000000000, 0.000000000000000000, 0.000000000000000000 ) ) ;
#188 = AXIS2_PLACEMENT_3D ( 'NONE', #306, #331, #171 ) ;
#189 = LOCAL_TIME ( 18, 49, 53.00000000000000000, #105 ) ;
#190 = APPLIED_EXTERNAL_IDENTIFICATION_ASSIGNMENT ( '6461082896.step.STEP' , #210, #318,( #39) ) ;
#191 = PERSON_AND_ORGANIZATION_ROLE ( 'design_owner' ) ;
#192 = APPROVAL ( #203, 'Coincident' ) ;
#193 = DATE_AND_TIME ( #142, #128 ) ;
#194 = CC_DESIGN_APPROVAL ( #298, ( #215 ) ) ;
#195 = APPROVAL_PERSON_ORGANIZATION ( #312, #117, #246 ) ;
#196 = DATE_AND_TIME ( #57, #259 ) ;
#197 = APPROVAL_DATE_TIME ( #114, #298 ) ;
#198 = APPROVAL_STATUS ( 'not_yet_approved' ) ;
#199 = PERSON_AND_ORGANIZATION ( #18446744073709551615, #18446744073709551615 ) ;
#200 = CALENDAR_DATE ( 2026, 22, 6 ) ;
#201 = APPROVAL_STATUS ( 'not_yet_approved' ) ;
#202 = CC_DESIGN_APPROVAL ( #124, ( #328 ) ) ;
#203 = APPROVAL_STATUS ( 'not_yet_approved' ) ;
#204 = COORDINATED_UNIVERSAL_TIME_OFFSET ( 10, 0, .AHEAD. ) ;
#205 = COORDINATED_UNIVERSAL_TIME_OFFSET ( 10, 0, .AHEAD. ) ;
#206 = PERSON_AND_ORGANIZATION_ROLE ( 'creator' ) ;
#207 =( GEOMETRIC_REPRESENTATION_CONTEXT ( 3 ) GLOBAL_UNCERTAINTY_ASSIGNED_CONTEXT ( ( #354 ) ) GLOBAL_UNIT_ASSIGNED_CONTEXT ( ( #182, #144, #243 ) ) REPRESENTATION_CONTEXT ( 'NONE', 'WORKASPACE' ) );
#208 = CALENDAR_DATE ( 2026, 22, 6 ) ;
#209 = CC_DESIGN_APPROVAL ( #192, ( #121 ) ) ;
#210 = IDENTIFICATION_ROLE ( 'external document id and location', $) ;
#211 = DATE_AND_TIME ( #62, #268 ) ;
#212 = APPROVAL ( #163, 'Coincident' ) ;
#213 = DATE_TIME_ROLE ( 'classification_date' ) ;
#214 = DIRECTION ( 'NONE',  ( 0.000000000000000000, 0.000000000000000000, 1.000000000000000000 ) ) ;
#215 = PRODUCT_DEFINITION_FORMATION_WITH_SPECIFIED_SOURCE ( 'Symmetric', '', #345, .NOT_KNOWN. ) ;
#216 = ORGANIZATION ( 'NAUO-ORG57', 'UNSPECIFIED', 'UNSPECIFIED' ) ;
#217 = APPLICATION_CONTEXT ( 'configuration controlled 3d designs of mechanical parts and assemblies' ) ;
#218 = SHAPE_REPRESENTATION ( 'C36.step', ( #248, #367, #188, #119 ), #88 ) ;
#219 = PRODUCT_DEFINITION_SHAPE ( 'NONE', 'NONE',  #233 ) ;
#220 = CC_DESIGN_PERSON_AND_ORGANIZATION_ASSIGNMENT ( #107, #30, ( #328 ) ) ;
#221 = CALENDAR_DATE ( 2026, 22, 6 ) ;
#222 = ORGANIZATION ( 'NAUO-ORG58', 'UNSPECIFIED', 'UNSPECIFIED' ) ;
#223 = DATE_TIME_ROLE ( 'classification_date' ) ;
#224 = CC_DESIGN_DATE_AND_TIME_ASSIGNMENT ( #276, #42, ( #352 ) ) ;
#225 = PROPERTY_DEFINITION_REPRESENTATION ( #130, #332 ) ;
#226 =( NAMED_UNIT ( * ) SI_UNIT ( $, .STERADIAN. ) SOLID_ANGLE_UNIT ( ) );
#227 = CALENDAR_DATE ( 2026, 22, 6 ) ;
#228 = PROPERTY_DEFINITION_REPRESENTATION ( #315, #332 ) ;
#229 = PERSON_AND_ORGANIZATION ( #18446744073709551615, #18446744073709551615 ) ;
#230 = LOCAL_TIME ( 18, 49, 53.00000000000000000, #204 ) ;
#231 = APPROVAL_ROLE ( '' ) ;
#232 = PERSON_AND_ORGANIZATION_ROLE ( 'creator' ) ;
#233 = PRODUCT_DEFINITION ( 'General', '', #215, #59 ) ;
#234 = CALENDAR_DATE ( 2026, 22, 6 ) ;
#235 = DATE_AND_TIME ( #357, #360 ) ;
#236 = PERSON_AND_ORGANIZATION ( #18446744073709551615, #18446744073709551615 ) ;
#237 = CALENDAR_DATE ( 2026, 22, 6 ) ;
#238 = APPLIED_EXTERNAL_IDENTIFICATION_ASSIGNMENT ( '6461083056.step.STEP' , #131, #33,( #272) ) ;
#239 = CARTESIAN_POINT ( 'NONE',  ( 8.250001007051002588, 10.11054638671900463, -2.058321952820000078 ) ) ;
#240 = PROPERTY_DEFINITION_REPRESENTATION ( #245, #385 ) ;
#241 = UNCERTAINTY_MEASURE_WITH_UNIT (LENGTH_MEASURE( 1.000000000000000082E-05 ), #84, 'distance_accuracy_value', 'NONE');
#242 = CC_DESIGN_DATE_AND_TIME_ASSIGNMENT ( #10, #178, ( #329 ) ) ;
#243 =( NAMED_UNIT ( * ) SI_UNIT ( $, .STERADIAN. ) SOLID_ANGLE_UNIT ( ) );
#244 = PERSON_AND_ORGANIZATION ( #382, #222 ) ;
#245 = PROPERTY_DEFINITION ('external definition','', #272 ) ;
#246 = APPROVAL_ROLE ( '' ) ;
#247 = PRODUCT_DEFINITION ( 'General', '', #300, #155 ) ;
#248 = AXIS2_PLACEMENT_3D ( 'NONE', #338, #214, #66 ) ;
#249 = APPLIED_EXTERNAL_IDENTIFICATION_ASSIGNMENT ( '6461082896.step.STEP' , #264, #307,( #26) ) ;
#250 = APPROVAL_STATUS ( 'not_yet_approved' ) ;
#251 = MECHANICAL_CONTEXT ( 'NONE', #371, 'mechanical' ) ;
#252 = COORDINATED_UNIVERSAL_TIME_OFFSET ( 10, 0, .AHEAD. ) ;
#253 = PRODUCT_DEFINITION_SHAPE ( 'NONE', 'NONE',  #247 ) ;
#254 = LOCAL_TIME ( 18, 49, 53.00000000000000000, #337 ) ;
#255 = PERSON_AND_ORGANIZATION ( #18446744073709551615, #18446744073709551615 ) ;
#256 = DATE_AND_TIME ( #289, #72 ) ;
#257 = APPLICATION_CONTEXT ( 'configuration controlled 3d designs of mechanical parts and assemblies' ) ;
#258 = APPROVAL ( #281, 'UNKNOWN' ) ;
#259 = LOCAL_TIME ( 18, 49, 53.00000000000000000, #82 ) ;
#260 = APPROVAL_STATUS ( 'not_yet_approved' ) ;
#261 = CALENDAR_DATE ( 2026, 22, 6 ) ;
#262 = PERSON_AND_ORGANIZATION ( #18446744073709551615, #18446744073709551615 ) ;
#263 = COORDINATED_UNIVERSAL_TIME_OFFSET ( 10, 0, .AHEAD. ) ;
#264 = IDENTIFICATION_ROLE ( 'external document id and location', $) ;
#265 = PERSON_AND_ORGANIZATION ( #18446744073709551615, #18446744073709551615 ) ;
#266 = COORDINATED_UNIVERSAL_TIME_OFFSET ( 10, 0, .AHEAD. ) ;
#267 = APPROVAL ( #139, 'Coincident' ) ;
#268 = LOCAL_TIME ( 18, 49, 53.00000000000000000, #35 ) ;
#269 = COORDINATED_UNIVERSAL_TIME_OFFSET ( 10, 0, .AHEAD. ) ;
#270 = DATE_AND_TIME ( #27, #98 ) ;
#271 =( REPRESENTATION_RELATIONSHIP ('NONE','NONE', #218, #332 ) REPRESENTATION_RELATIONSHIP_WITH_TRANSFORMATION ( #100 )SHAPE_REPRESENTATION_RELATIONSHIP( ) );
#272 = DOCUMENT_FILE ( '6461083056.step.STEP' , '', '', #118, '' ,$ ) ;
#273 = APPROVAL_PERSON_ORGANIZATION ( #384, #298, #29 ) ;
#274 = PERSON ( 'NAUO-PER57', 'UNSPECIFIED', 'UNSPECIFIED', ('UNSPECIFIED'), ('UNSPECIFIED'), ('UNSPECIFIED') ) ;
#275 = APPROVAL_PERSON_ORGANIZATION ( #295, #212, #169 ) ;
#276 = DATE_AND_TIME ( #208, #17 ) ;
#277 = DATE_AND_TIME ( #175, #335 ) ;
#278 = CARTESIAN_POINT ( 'NONE',  ( 7.750001007051002588, 10.11054638671900463, -2.058321952819998302 ) ) ;
#279 = PROPERTY_DEFINITION_REPRESENTATION ( #364, #385 ) ;
#280 = CC_DESIGN_DATE_AND_TIME_ASSIGNMENT ( #348, #162, ( #328 ) ) ;
#281 = APPROVAL_STATUS ( 'not_yet_approved' ) ;
#282 = AXIS2_PLACEMENT_3D ( 'NONE', #16, #372, #341 ) ;
#283 = DATE_AND_TIME ( #64, #14 ) ;
#284 = CC_DESIGN_PERSON_AND_ORGANIZATION_ASSIGNMENT ( #244, #149, ( #352 ) ) ;
#285 = APPLICATION_PROTOCOL_DEFINITION ( 'international standard', 'config_control_design', 1994, #371 ) ;
#286 = CC_DESIGN_SECURITY_CLASSIFICATION ( #174, ( #300 ) ) ;
#287 =( NAMED_UNIT ( * ) PLANE_ANGLE_UNIT ( ) SI_UNIT ( $, .RADIAN. ) );
#288 = APPROVAL ( #198, 'Coincident' ) ;
#289 = CALENDAR_DATE ( 2026, 22, 6 ) ;
#290 = PROPERTY_DEFINITION_REPRESENTATION ( #99, #332 ) ;
#291 =( NAMED_UNIT ( * ) PLANE_ANGLE_UNIT ( ) SI_UNIT ( $, .RADIAN. ) );
#292 = PERSON_AND_ORGANIZATION_ROLE ( 'creator' ) ;
#293 = COORDINATED_UNIVERSAL_TIME_OFFSET ( 10, 0, .AHEAD. ) ;
#294 = LOCAL_TIME ( 18, 49, 53.00000000000000000, #252 ) ;
#295 = PERSON_AND_ORGANIZATION ( #18446744073709551615, #18446744073709551615 ) ;
#296 = DATE_AND_TIME ( #261, #160 ) ;
#297 = COORDINATED_UNIVERSAL_TIME_OFFSET ( 10, 0, .AHEAD. ) ;
#298 = APPROVAL ( #201, 'Coincident' ) ;
#299 = MECHANICAL_CONTEXT ( 'NONE', #217, 'mechanical' ) ;
#300 = PRODUCT_DEFINITION_FORMATION_WITH_SPECIFIED_SOURCE ( 'Symmetric', '', #153, .NOT_KNOWN. ) ;
#301 = APPROVAL_DATE_TIME ( #325, #267 ) ;
#302 = CC_DESIGN_DATE_AND_TIME_ASSIGNMENT ( #177, #5, ( #112 ) ) ;
#303 = SHAPE_DEFINITION_REPRESENTATION ( #219, #218 ) ;
#304 = PERSON_AND_ORGANIZATION_ROLE ( 'classification_officer' ) ;
#305 = LOCAL_TIME ( 18, 49, 53.00000000000000000, #366 ) ;
#306 = CARTESIAN_POINT ( 'NONE',  ( 8.750001007051002588, 10.11054638671900641, -2.058321952820000078 ) ) ;
#307 = EXTERNAL_SOURCE (IDENTIFIER('') ) ;
#308 = SECURITY_CLASSIFICATION_LEVEL ( 'unclassified' ) ;
#309 = APPROVAL_ROLE ( '' ) ;
#310 = COORDINATED_UNIVERSAL_TIME_OFFSET ( 10, 0, .AHEAD. ) ;
#311 = APPROVAL ( #85, 'Coincident' ) ;
#312 = PERSON_AND_ORGANIZATION ( #18446744073709551615, #18446744073709551615 ) ;
#313 = CC_DESIGN_SECURITY_CLASSIFICATION ( #146, ( #390 ) ) ;
#314 = APPROVAL ( #250, 'Coincident' ) ;
#315 = PROPERTY_DEFINITION ('external definition','', #26 ) ;
#316 = CC_DESIGN_SECURITY_CLASSIFICATION ( #352, ( #389 ) ) ;
#317 = CC_DESIGN_PERSON_AND_ORGANIZATION_ASSIGNMENT ( #63, #11, ( #121 ) ) ;
#318 = EXTERNAL_SOURCE (IDENTIFIER('') ) ;
#319 = APPROVAL_DATE_TIME ( #350, #52 ) ;
#320 = PERSON_AND_ORGANIZATION ( #18446744073709551615, #18446744073709551615 ) ;
#321 = APPLIED_DOCUMENT_REFERENCE ( #26,'',( #247) ) ;
#322 = PERSON_AND_ORGANIZATION_ROLE ( 'design_supplier' ) ;
#323 = CC_DESIGN_APPROVAL ( #140, ( #112 ) ) ;
#324 = CC_DESIGN_DATE_AND_TIME_ASSIGNMENT ( #256, #346, ( #146 ) ) ;
#325 = DATE_AND_TIME ( #234, #151 ) ;
#326 = PERSON_AND_ORGANIZATION_ROLE ( 'creator' ) ;
#327 = APPROVAL_DATE_TIME ( #168, #288 ) ;
#328 = PRODUCT_DEFINITION ( 'General', '', #46, #359 ) ;
#329 = SECURITY_CLASSIFICATION ( '', '', #365 ) ;
#330 = APPROVAL_STATUS ( 'not_yet_approved' ) ;
#331 = DIRECTION ( 'NONE',  ( 4.890937612370273194E-29, -3.155443620884047222E-30, 0.9999999999999997780 ) ) ;
#332 = SHAPE_REPRESENTATION ( '6461082896.step', ( #282 ), #207 ) ;
#333 = PERSON_AND_ORGANIZATION ( #18446744073709551615, #18446744073709551615 ) ;
#334 = APPROVAL_STATUS ( 'not_yet_approved' ) ;
#335 = LOCAL_TIME ( 18, 49, 53.00000000000000000, #310 ) ;
#336 = PRODUCT_RELATED_PRODUCT_CATEGORY ( 'detail', '', ( #345 ) ) ;
#337 = COORDINATED_UNIVERSAL_TIME_OFFSET ( 10, 0, .AHEAD. ) ;
#338 = CARTESIAN_POINT ( 'NONE',  ( 0.000000000000000000, 0.000000000000000000, 0.000000000000000000 ) ) ;
#339 = PERSON_AND_ORGANIZATION ( #18446744073709551615, #18446744073709551615 ) ;
#340 = CC_DESIGN_APPROVAL ( #267, ( #247 ) ) ;
#341 = DIRECTION ( 'NONE',  ( 1.000000000000000000, 0.000000000000000000, 0.000000000000000000 ) ) ;
#342 = PRODUCT_DEFINITION_SHAPE ( 'NONE', 'NONE',  #389 ) ;
#343 = PERSON ( 'NAUO-PER59', 'UNSPECIFIED', 'UNSPECIFIED', ('UNSPECIFIED'), ('UNSPECIFIED'), ('UNSPECIFIED') ) ;
#344 =( LENGTH_UNIT ( ) NAMED_UNIT ( * ) SI_UNIT ( .MILLI., .METRE. ) );
#345 = PRODUCT ( 'C36.step', 'C36.step', '', ( #251 ) ) ;
#346 = DATE_TIME_ROLE ( 'classification_date' ) ;
#347 = DATE_AND_TIME ( #159, #361 ) ;
#348 = DATE_AND_TIME ( #227, #127 ) ;
#349 = CC_DESIGN_DATE_AND_TIME_ASSIGNMENT ( #296, #79, ( #233 ) ) ;
#350 = DATE_AND_TIME ( #221, #189 ) ;
#351 = PERSON_AND_ORGANIZATION_ROLE ( 'design_owner' ) ;
#352 = SECURITY_CLASSIFICATION ( '', '', #36 ) ;
#353 = PERSON_AND_ORGANIZATION ( #18446744073709551615, #18446744073709551615 ) ;
#354 = UNCERTAINTY_MEASURE_WITH_UNIT (LENGTH_MEASURE( 1.000000000000000082E-05 ), #182, 'distance_accuracy_value', 'NONE');
#355 = PRODUCT_RELATED_PRODUCT_CATEGORY ( 'detail', '', ( #153 ) ) ;
#356 = DATE_TIME_ROLE ( 'creation_date' ) ;
#357 = CALENDAR_DATE ( 2026, 22, 6 ) ;
#358 = APPROVAL_ROLE ( '' ) ;
#359 = DESIGN_CONTEXT ( 'detailed design', #141, 'design' ) ;
#360 = LOCAL_TIME ( 18, 49, 53.00000000000000000, #293 ) ;
#361 = LOCAL_TIME ( 18, 49, 53.00000000000000000, #3 ) ;
#362 = DIRECTION ( 'NONE',  ( 4.890937612370273194E-29, -3.155443620884047222E-30, 0.9999999999999997780 ) ) ;
#363 = PERSON_AND_ORGANIZATION ( #18446744073709551615, #18446744073709551615 ) ;
#364 = PROPERTY_DEFINITION ('document property','', #272 ) ;
#365 = SECURITY_CLASSIFICATION_LEVEL ( 'unclassified' ) ;
#366 = COORDINATED_UNIVERSAL_TIME_OFFSET ( 10, 0, .AHEAD. ) ;
#367 = AXIS2_PLACEMENT_3D ( 'NONE', #239, #362, #92 ) ;
#368 = APPROVAL_PERSON_ORGANIZATION ( #71, #140, #358 ) ;
#369 = COORDINATED_UNIVERSAL_TIME_OFFSET ( 10, 0, .AHEAD. ) ;
#370 = CC_DESIGN_PERSON_AND_ORGANIZATION_ASSIGNMENT ( #80, #21, ( #146 ) ) ;
#371 = APPLICATION_CONTEXT ( 'configuration controlled 3d designs of mechanical parts and assemblies' ) ;
#372 = DIRECTION ( 'NONE',  ( 0.000000000000000000, 0.000000000000000000, 1.000000000000000000 ) ) ;
#373 = LOCAL_TIME ( 18, 49, 53.00000000000000000, #266 ) ;
#374 = APPROVAL_PERSON_ORGANIZATION ( #339, #192, #4 ) ;
#375 = PROPERTY_DEFINITION_REPRESENTATION ( #183, #332 ) ;
#376 = CC_DESIGN_PERSON_AND_ORGANIZATION_ASSIGNMENT ( #353, #326, ( #247 ) ) ;
#377 = CALENDAR_DATE ( 2026, 22, 6 ) ;
#378 = OBJECT_ROLE ('mandatory',$ ) ;
#379 = APPROVAL_ROLE ( '' ) ;
#380 = APPROVAL_DATE_TIME ( #102, #192 ) ;
#381 = APPROVAL_PERSON_ORGANIZATION ( #56, #311, #61 ) ;
#382 = PERSON ( 'NAUO-PER58', 'UNSPECIFIED', 'UNSPECIFIED', ('UNSPECIFIED'), ('UNSPECIFIED'), ('UNSPECIFIED') ) ;
#383 = APPROVAL_ROLE ( '' ) ;
#384 = PERSON_AND_ORGANIZATION ( #18446744073709551615, #18446744073709551615 ) ;
#385 = SHAPE_REPRESENTATION ( '6461083056.step', ( #45 ), #13 ) ;
#386 = PERSON_AND_ORGANIZATION ( #18446744073709551615, #18446744073709551615 ) ;
#387 = CC_DESIGN_APPROVAL ( #212, ( #46 ) ) ;
#388 = NEXT_ASSEMBLY_USAGE_OCCURRENCE ( 'NAUO57', ' ', ' ', #233, #328, $ ) ;
#389 = NEXT_ASSEMBLY_USAGE_OCCURRENCE ( 'NAUO58', ' ', ' ', #233, #247, $ ) ;
#390 = NEXT_ASSEMBLY_USAGE_OCCURRENCE ( 'NAUO59', ' ', ' ', #233, #247, $ ) ;
ENDSEC;
END-ISO-10303-21;
