ISO-10303-21;
HEADER;
FILE_DESCRIPTION (( 'STEP AP203' ),
    '1' );
FILE_NAME ('C37.step.STEP',
    '2026-06-22T08:49:53',
    ( 'localuser' ),
    ( '' ),
    'SwSTEP 2.0',
    'SolidWorks 2025',
    '' );
FILE_SCHEMA (( 'CONFIG_CONTROL_DESIGN' ));
ENDSEC;

DATA;
#1 = DOCUMENT_FILE ( '6461082896.step.STEP' , '', '', #126, '' ,$ ) ;
#2 = COORDINATED_UNIVERSAL_TIME_OFFSET ( 10, 0, .AHEAD. ) ;
#3 = CC_DESIGN_DATE_AND_TIME_ASSIGNMENT ( #91, #157, ( #93 ) ) ;
#4 = PRODUCT_DEFINITION_FORMATION_WITH_SPECIFIED_SOURCE ( 'Symmetric', '', #213, .NOT_KNOWN. ) ;
#5 = DATE_AND_TIME ( #262, #210 ) ;
#6 = CC_DESIGN_PERSON_AND_ORGANIZATION_ASSIGNMENT ( #227, #361, ( #93 ) ) ;
#7 = PRODUCT_DEFINITION_FORMATION_WITH_SPECIFIED_SOURCE ( 'Symmetric', '', #243, .NOT_KNOWN. ) ;
#8 = CC_DESIGN_APPROVAL ( #260, ( #4 ) ) ;
#9 = DATE_TIME_ROLE ( 'classification_date' ) ;
#10 = PERSON_AND_ORGANIZATION_ROLE ( 'classification_officer' ) ;
#11 = PRODUCT_DEFINITION_SHAPE ( 'NONE', 'NONE',  #389 ) ;
#12 = PERSON_AND_ORGANIZATION ( #18446744073709551615, #18446744073709551615 ) ;
#13 = CC_DESIGN_SECURITY_CLASSIFICATION ( #93, ( #7 ) ) ;
#14 = OBJECT_ROLE ('mandatory',$ ) ;
#15 = SHAPE_DEFINITION_REPRESENTATION ( #344, #287 ) ;
#16 = PERSON_AND_ORGANIZATION_ROLE ( 'classification_officer' ) ;
#17 = SECURITY_CLASSIFICATION_LEVEL ( 'unclassified' ) ;
#18 = DATE_AND_TIME ( #284, #216 ) ;
#19 = CC_DESIGN_PERSON_AND_ORGANIZATION_ASSIGNMENT ( #337, #202, ( #90 ) ) ;
#20 = APPROVAL_ROLE ( '' ) ;
#21 = CARTESIAN_POINT ( 'NONE',  ( 7.750001007051003477, 10.99999645996100384, -2.058321952819998302 ) ) ;
#22 = APPROVAL_PERSON_ORGANIZATION ( #383, #83, #52 ) ;
#23 = APPROVAL_ROLE ( '' ) ;
#24 = APPROVAL_DATE_TIME ( #246, #260 ) ;
#25 = SHAPE_REPRESENTATION ( '6461083056.step', ( #41 ), #340 ) ;
#26 =( NAMED_UNIT ( * ) SI_UNIT ( $, .STERADIAN. ) SOLID_ANGLE_UNIT ( ) );
#27 = COORDINATED_UNIVERSAL_TIME_OFFSET ( 10, 0, .AHEAD. ) ;
#28 = CC_DESIGN_DATE_AND_TIME_ASSIGNMENT ( #250, #9, ( #357 ) ) ;
#29 = COORDINATED_UNIVERSAL_TIME_OFFSET ( 10, 0, .AHEAD. ) ;
#30 = LOCAL_TIME ( 18, 49, 53.00000000000000000, #297 ) ;
#31 = LOCAL_TIME ( 18, 49, 53.00000000000000000, #29 ) ;
#32 = SECURITY_CLASSIFICATION ( '', '', #128 ) ;
#33 = OBJECT_ROLE ('mandatory',$ ) ;
#34 =( LENGTH_UNIT ( ) NAMED_UNIT ( * ) SI_UNIT ( .MILLI., .METRE. ) );
#35 = PROPERTY_DEFINITION_REPRESENTATION ( #179, #287 ) ;
#36 = APPROVAL_DATE_TIME ( #270, #147 ) ;
#37 = SECURITY_CLASSIFICATION ( '', '', #288 ) ;
#38 = COORDINATED_UNIVERSAL_TIME_OFFSET ( 10, 0, .AHEAD. ) ;
#39 = APPLICATION_CONTEXT ( 'configuration controlled 3d designs of mechanical parts and assemblies' ) ;
#40 = APPROVAL ( #278, 'Coincident' ) ;
#41 = AXIS2_PLACEMENT_3D ( 'NONE', #232, #367, #300 ) ;
#42 = CC_DESIGN_APPROVAL ( #40, ( #341 ) ) ;
#43 = CC_DESIGN_PERSON_AND_ORGANIZATION_ASSIGNMENT ( #107, #286, ( #4 ) ) ;
#44 = APPROVAL_DATE_TIME ( #239, #40 ) ;
#45 = PRODUCT_DEFINITION_SHAPE ( 'NONE', 'NONE',  #388 ) ;
#46 = COORDINATED_UNIVERSAL_TIME_OFFSET ( 10, 0, .AHEAD. ) ;
#47 = ORGANIZATION ( 'NAUO-ORG42', 'UNSPECIFIED', 'UNSPECIFIED' ) ;
#48 = APPROVAL_STATUS ( 'not_yet_approved' ) ;
#49 = CALENDAR_DATE ( 2026, 22, 6 ) ;
#50 =( NAMED_UNIT ( * ) SI_UNIT ( $, .STERADIAN. ) SOLID_ANGLE_UNIT ( ) );
#51 = PERSON_AND_ORGANIZATION_ROLE ( 'design_supplier' ) ;
#52 = APPROVAL_ROLE ( '' ) ;
#53 = ORGANIZATION ( 'NAUO-ORG40', 'UNSPECIFIED', 'UNSPECIFIED' ) ;
#54 = CONTEXT_DEPENDENT_SHAPE_REPRESENTATION ( #268, #11 ) ;
#55 = CALENDAR_DATE ( 2026, 22, 6 ) ;
#56 = CC_DESIGN_PERSON_AND_ORGANIZATION_ASSIGNMENT ( #254, #130, ( #4 ) ) ;
#57 = APPLIED_DOCUMENT_REFERENCE ( #1,'',( #135) ) ;
#58 = APPROVAL_ROLE ( '' ) ;
#59 = DIRECTION ( 'NONE',  ( 4.890937612370273194E-29, -3.155443620884047222E-30, 0.9999999999999997780 ) ) ;
#60 = APPROVAL_PERSON_ORGANIZATION ( #295, #147, #58 ) ;
#61 = CC_DESIGN_APPROVAL ( #282, ( #224 ) ) ;
#62 = CC_DESIGN_PERSON_AND_ORGANIZATION_ASSIGNMENT ( #64, #63, ( #135 ) ) ;
#63 = PERSON_AND_ORGANIZATION_ROLE ( 'creator' ) ;
#64 = PERSON_AND_ORGANIZATION ( #18446744073709551615, #18446744073709551615 ) ;
#65 = COORDINATED_UNIVERSAL_TIME_OFFSET ( 10, 0, .AHEAD. ) ;
#66 = APPROVAL ( #240, 'Coincident' ) ;
#67 = SECURITY_CLASSIFICATION ( '', '', #230 ) ;
#68 = COORDINATED_UNIVERSAL_TIME_OFFSET ( 10, 0, .AHEAD. ) ;
#69 = CC_DESIGN_PERSON_AND_ORGANIZATION_ASSIGNMENT ( #163, #51, ( #7 ) ) ;
#70 = PERSON_AND_ORGANIZATION_ROLE ( 'design_owner' ) ;
#71 =( REPRESENTATION_RELATIONSHIP ('NONE','NONE', #200, #287 ) REPRESENTATION_RELATIONSHIP_WITH_TRANSFORMATION ( #362 )SHAPE_REPRESENTATION_RELATIONSHIP( ) );
#72 = DATE_TIME_ROLE ( 'creation_date' ) ;
#73 = CC_DESIGN_DATE_AND_TIME_ASSIGNMENT ( #18, #158, ( #32 ) ) ;
#74 = LOCAL_TIME ( 18, 49, 53.00000000000000000, #323 ) ;
#75 = COORDINATED_UNIVERSAL_TIME_OFFSET ( 10, 0, .AHEAD. ) ;
#76 = LOCAL_TIME ( 18, 49, 53.00000000000000000, #317 ) ;
#77 = APPROVAL_ROLE ( '' ) ;
#78 = APPROVAL_STATUS ( 'not_yet_approved' ) ;
#79 = SECURITY_CLASSIFICATION_LEVEL ( 'unclassified' ) ;
#80 = COORDINATED_UNIVERSAL_TIME_OFFSET ( 10, 0, .AHEAD. ) ;
#81 = DATE_AND_TIME ( #379, #76 ) ;
#82 = CARTESIAN_POINT ( 'NONE',  ( 8.250001007051002588, 10.99999645996100384, -2.058321952820000078 ) ) ;
#83 = APPROVAL ( #48, 'Coincident' ) ;
#84 = APPROVAL_PERSON_ORGANIZATION ( #261, #338, #258 ) ;
#85 = APPROVAL_PERSON_ORGANIZATION ( #214, #282, #151 ) ;
#86 = UNCERTAINTY_MEASURE_WITH_UNIT (LENGTH_MEASURE( 1.000000000000000082E-05 ), #34, 'distance_accuracy_value', 'NONE');
#87 = PERSON_AND_ORGANIZATION_ROLE ( 'design_owner' ) ;
#88 = ROLE_ASSOCIATION ( #14, #263 ) ;
#89 = DIRECTION ( 'NONE',  ( 1.000000000000000222, -1.092455418989176591E-28, 4.890937612370273194E-29 ) ) ;
#90 = PRODUCT_DEFINITION ( 'General', '', #4, #324 ) ;
#91 = DATE_AND_TIME ( #116, #183 ) ;
#92 = COORDINATED_UNIVERSAL_TIME_OFFSET ( 10, 0, .AHEAD. ) ;
#93 = SECURITY_CLASSIFICATION ( '', '', #118 ) ;
#94 = AXIS2_PLACEMENT_3D ( 'NONE', #21, #59, #89 ) ;
#95 = APPROVAL_STATUS ( 'not_yet_approved' ) ;
#96 = PROPERTY_DEFINITION_REPRESENTATION ( #283, #287 ) ;
#97 = CC_DESIGN_PERSON_AND_ORGANIZATION_ASSIGNMENT ( #316, #164, ( #334 ) ) ;
#98 = APPROVAL_PERSON_ORGANIZATION ( #267, #365, #168 ) ;
#99 = EXTERNAL_SOURCE (IDENTIFIER('') ) ;
#100 = CC_DESIGN_APPROVAL ( #174, ( #135 ) ) ;
#101 = APPROVAL_ROLE ( '' ) ;
#102 = CONTEXT_DEPENDENT_SHAPE_REPRESENTATION ( #152, #45 ) ;
#103 = CC_DESIGN_DATE_AND_TIME_ASSIGNMENT ( #196, #161, ( #334 ) ) ;
#104 = PRODUCT_DEFINITION_SHAPE ( 'NONE', 'NONE',  #90 ) ;
#105 = DATE_TIME_ROLE ( 'creation_date' ) ;
#106 = LOCAL_TIME ( 18, 49, 53.00000000000000000, #65 ) ;
#107 = PERSON_AND_ORGANIZATION ( #18446744073709551615, #18446744073709551615 ) ;
#108 = DIRECTION ( 'NONE',  ( 4.890937612370273194E-29, -3.155443620884047222E-30, 0.9999999999999997780 ) ) ;
#109 = CALENDAR_DATE ( 2026, 22, 6 ) ;
#110 = CC_DESIGN_DATE_AND_TIME_ASSIGNMENT ( #339, #72, ( #135 ) ) ;
#111 = DOCUMENT_FILE ( '6461083056.step.STEP' , '', '', #352, '' ,$ ) ;
#112 = PERSON ( 'NAUO-PER42', 'UNSPECIFIED', 'UNSPECIFIED', ('UNSPECIFIED'), ('UNSPECIFIED'), ('UNSPECIFIED') ) ;
#113 = MECHANICAL_CONTEXT ( 'NONE', #276, 'mechanical' ) ;
#114 = DIRECTION ( 'NONE',  ( 1.000000000000000222, -1.092455418989176591E-28, 4.890937612370273194E-29 ) ) ;
#115 = CC_DESIGN_APPROVAL ( #66, ( #357 ) ) ;
#116 = CALENDAR_DATE ( 2026, 22, 6 ) ;
#117 = CC_DESIGN_PERSON_AND_ORGANIZATION_ASSIGNMENT ( #212, #247, ( #341 ) ) ;
#118 = SECURITY_CLASSIFICATION_LEVEL ( 'unclassified' ) ;
#119 = MECHANICAL_CONTEXT ( 'NONE', #238, 'mechanical' ) ;
#120 = DESIGN_CONTEXT ( 'detailed design', #360, 'design' ) ;
#121 = APPROVAL_DATE_TIME ( #195, #365 ) ;
#122 = CARTESIAN_POINT ( 'NONE',  ( 0.000000000000000000, 0.000000000000000000, 0.000000000000000000 ) ) ;
#123 = LOCAL_TIME ( 18, 49, 53.00000000000000000, #311 ) ;
#124 = APPROVAL_DATE_TIME ( #186, #282 ) ;
#125 = PRODUCT_DEFINITION_SHAPE ( 'NONE', 'NONE',  #390 ) ;
#126 = DOCUMENT_TYPE ( 'geometry' ) ;
#127 = DATE_AND_TIME ( #49, #193 ) ;
#128 = SECURITY_CLASSIFICATION_LEVEL ( 'unclassified' ) ;
#129 = UNCERTAINTY_MEASURE_WITH_UNIT (LENGTH_MEASURE( 1.000000000000000082E-05 ), #222, 'distance_accuracy_value', 'NONE');
#130 = PERSON_AND_ORGANIZATION_ROLE ( 'design_supplier' ) ;
#131 = DIRECTION ( 'NONE',  ( 1.000000000000000000, 0.000000000000000000, 0.000000000000000000 ) ) ;
#132 = CC_DESIGN_PERSON_AND_ORGANIZATION_ASSIGNMENT ( #351, #220, ( #243 ) ) ;
#133 = CALENDAR_DATE ( 2026, 22, 6 ) ;
#134 = PROPERTY_DEFINITION_REPRESENTATION ( #374, #287 ) ;
#135 = PRODUCT_DEFINITION ( 'General', '', #341, #231 ) ;
#136 = CALENDAR_DATE ( 2026, 22, 6 ) ;
#137 = APPROVAL_PERSON_ORGANIZATION ( #208, #66, #280 ) ;
#138 = COORDINATED_UNIVERSAL_TIME_OFFSET ( 10, 0, .AHEAD. ) ;
#139 = AXIS2_PLACEMENT_3D ( 'NONE', #170, #192, #154 ) ;
#140 = LOCAL_TIME ( 18, 49, 53.00000000000000000, #68 ) ;
#141 = CC_DESIGN_PERSON_AND_ORGANIZATION_ASSIGNMENT ( #279, #70, ( #213 ) ) ;
#142 = CC_DESIGN_APPROVAL ( #299, ( #93 ) ) ;
#143 = PERSON_AND_ORGANIZATION ( #18446744073709551615, #18446744073709551615 ) ;
#144 = MECHANICAL_CONTEXT ( 'NONE', #378, 'mechanical' ) ;
#145 = PROPERTY_DEFINITION ('external definition','', #385 ) ;
#146 = PRODUCT ( '6461082896.step', '6461082896.step', '', ( #113 ) ) ;
#147 = APPROVAL ( #327, 'Coincident' ) ;
#148 = AXIS2_PLACEMENT_3D ( 'NONE', #122, #318, #131 ) ;
#149 = CC_DESIGN_SECURITY_CLASSIFICATION ( #67, ( #390 ) ) ;
#150 = DATE_AND_TIME ( #376, #245 ) ;
#151 = APPROVAL_ROLE ( '' ) ;
#152 =( REPRESENTATION_RELATIONSHIP ('NONE','NONE', #200, #25 ) REPRESENTATION_RELATIONSHIP_WITH_TRANSFORMATION ( #215 )SHAPE_REPRESENTATION_RELATIONSHIP( ) );
#153 = PERSON_AND_ORGANIZATION_ROLE ( 'classification_officer' ) ;
#154 = DIRECTION ( 'NONE',  ( 1.000000000000000000, 0.000000000000000000, 0.000000000000000000 ) ) ;
#155 = PRODUCT_RELATED_PRODUCT_CATEGORY ( 'detail', '', ( #213 ) ) ;
#156 = UNCERTAINTY_MEASURE_WITH_UNIT (LENGTH_MEASURE( 1.000000000000000082E-05 ), #198, 'distance_accuracy_value', 'NONE');
#157 = DATE_TIME_ROLE ( 'classification_date' ) ;
#158 = DATE_TIME_ROLE ( 'classification_date' ) ;
#159 = LOCAL_TIME ( 18, 49, 53.00000000000000000, #343 ) ;
#160 = CALENDAR_DATE ( 2026, 22, 6 ) ;
#161 = DATE_TIME_ROLE ( 'creation_date' ) ;
#162 = CC_DESIGN_DATE_AND_TIME_ASSIGNMENT ( #377, #105, ( #90 ) ) ;
#163 = PERSON_AND_ORGANIZATION ( #18446744073709551615, #18446744073709551615 ) ;
#164 = PERSON_AND_ORGANIZATION_ROLE ( 'creator' ) ;
#165 = APPROVAL_STATUS ( 'not_yet_approved' ) ;
#166 =( NAMED_UNIT ( * ) PLANE_ANGLE_UNIT ( ) SI_UNIT ( $, .RADIAN. ) );
#167 = LOCAL_TIME ( 18, 49, 53.00000000000000000, #138 ) ;
#168 = APPROVAL_ROLE ( '' ) ;
#169 = CC_DESIGN_PERSON_AND_ORGANIZATION_ASSIGNMENT ( #353, #322, ( #32 ) ) ;
#170 = CARTESIAN_POINT ( 'NONE',  ( 0.000000000000000000, 0.000000000000000000, 0.000000000000000000 ) ) ;
#171 = APPLIED_EXTERNAL_IDENTIFICATION_ASSIGNMENT ( '6461082896.step.STEP' , #370, #325,( #385) ) ;
#172 = DATE_AND_TIME ( #207, #167 ) ;
#173 = PERSON_AND_ORGANIZATION ( #18446744073709551615, #18446744073709551615 ) ;
#174 = APPROVAL ( #296, 'Coincident' ) ;
#175 = ORGANIZATION ( 'NAUO-ORG41', 'UNSPECIFIED', 'UNSPECIFIED' ) ;
#176 = APPLICATION_PROTOCOL_DEFINITION ( 'international standard', 'config_control_design', 1994, #378 ) ;
#177 = PRODUCT_DEFINITION_SHAPE ( 'NONE', 'NONE',  #334 ) ;
#178 = APPLICATION_PROTOCOL_DEFINITION ( 'international standard', 'config_control_design', 1994, #290 ) ;
#179 = PROPERTY_DEFINITION ('external definition','', #1 ) ;
#180 = CALENDAR_DATE ( 2026, 22, 6 ) ;
#181 = PERSON_AND_ORGANIZATION_ROLE ( 'creator' ) ;
#182 =( GEOMETRIC_REPRESENTATION_CONTEXT ( 3 ) GLOBAL_UNCERTAINTY_ASSIGNED_CONTEXT ( ( #156 ) ) GLOBAL_UNIT_ASSIGNED_CONTEXT ( ( #198, #166, #26 ) ) REPRESENTATION_CONTEXT ( 'NONE', 'WORKASPACE' ) );
#183 = LOCAL_TIME ( 18, 49, 53.00000000000000000, #80 ) ;
#184 = APPLIED_EXTERNAL_IDENTIFICATION_ASSIGNMENT ( '6461083056.step.STEP' , #331, #188,( #111) ) ;
#185 = PROPERTY_DEFINITION_REPRESENTATION ( #233, #25 ) ;
#186 = DATE_AND_TIME ( #133, #123 ) ;
#187 = COORDINATED_UNIVERSAL_TIME_OFFSET ( 10, 0, .AHEAD. ) ;
#188 = EXTERNAL_SOURCE (IDENTIFIER('') ) ;
#189 =( NAMED_UNIT ( * ) PLANE_ANGLE_UNIT ( ) SI_UNIT ( $, .RADIAN. ) );
#190 = APPROVAL_PERSON_ORGANIZATION ( #309, #306, #332 ) ;
#191 = APPROVAL_STATUS ( 'not_yet_approved' ) ;
#192 = DIRECTION ( 'NONE',  ( 0.000000000000000000, 0.000000000000000000, 1.000000000000000000 ) ) ;
#193 = LOCAL_TIME ( 18, 49, 53.00000000000000000, #75 ) ;
#194 = APPLICATION_PROTOCOL_DEFINITION ( 'international standard', 'config_control_design', 1994, #39 ) ;
#195 = DATE_AND_TIME ( #229, #31 ) ;
#196 = DATE_AND_TIME ( #55, #74 ) ;
#197 = APPROVAL_ROLE ( '' ) ;
#198 =( LENGTH_UNIT ( ) NAMED_UNIT ( * ) SI_UNIT ( .MILLI., .METRE. ) );
#199 = PERSON_AND_ORGANIZATION ( #18446744073709551615, #18446744073709551615 ) ;
#200 = SHAPE_REPRESENTATION ( 'C37.step', ( #139, #320, #94, #204 ), #182 ) ;
#201 = LOCAL_TIME ( 18, 49, 53.00000000000000000, #219 ) ;
#202 = PERSON_AND_ORGANIZATION_ROLE ( 'creator' ) ;
#203 = DATE_AND_TIME ( #136, #387 ) ;
#204 = AXIS2_PLACEMENT_3D ( 'NONE', #264, #108, #359 ) ;
#205 = CC_DESIGN_DATE_AND_TIME_ASSIGNMENT ( #350, #346, ( #224 ) ) ;
#206 = CC_DESIGN_SECURITY_CLASSIFICATION ( #32, ( #389 ) ) ;
#207 = CALENDAR_DATE ( 2026, 22, 6 ) ;
#208 = PERSON_AND_ORGANIZATION ( #18446744073709551615, #18446744073709551615 ) ;
#209 = DATE_AND_TIME ( #371, #140 ) ;
#210 = LOCAL_TIME ( 18, 49, 53.00000000000000000, #27 ) ;
#211 = CC_DESIGN_PERSON_AND_ORGANIZATION_ASSIGNMENT ( #12, #16, ( #37 ) ) ;
#212 = PERSON_AND_ORGANIZATION ( #18446744073709551615, #18446744073709551615 ) ;
#213 = PRODUCT ( '6461083056.step', '6461083056.step', '', ( #144 ) ) ;
#214 = PERSON_AND_ORGANIZATION ( #266, #53 ) ;
#215 = ITEM_DEFINED_TRANSFORMATION ( 'NONE', 'NONE', #320,  #41 ) ;
#216 = LOCAL_TIME ( 18, 49, 53.00000000000000000, #46 ) ;
#217 = ITEM_DEFINED_TRANSFORMATION ( 'NONE', 'NONE', #94,  #148 ) ;
#218 = IDENTIFICATION_ROLE ( 'external document id and location', $) ;
#219 = COORDINATED_UNIVERSAL_TIME_OFFSET ( 10, 0, .AHEAD. ) ;
#220 = PERSON_AND_ORGANIZATION_ROLE ( 'design_owner' ) ;
#221 = APPROVAL_STATUS ( 'not_yet_approved' ) ;
#222 =( LENGTH_UNIT ( ) NAMED_UNIT ( * ) SI_UNIT ( .MILLI., .METRE. ) );
#223 = CALENDAR_DATE ( 2026, 22, 6 ) ;
#224 = SECURITY_CLASSIFICATION ( '', '', #79 ) ;
#225 = CC_DESIGN_PERSON_AND_ORGANIZATION_ASSIGNMENT ( #173, #237, ( #7 ) ) ;
#226 = PERSON_AND_ORGANIZATION ( #18446744073709551615, #18446744073709551615 ) ;
#227 = PERSON_AND_ORGANIZATION ( #18446744073709551615, #18446744073709551615 ) ;
#228 = CALENDAR_DATE ( 2026, 22, 6 ) ;
#229 = CALENDAR_DATE ( 2026, 22, 6 ) ;
#230 = SECURITY_CLASSIFICATION_LEVEL ( 'unclassified' ) ;
#231 = DESIGN_CONTEXT ( 'detailed design', #39, 'design' ) ;
#232 = CARTESIAN_POINT ( 'NONE',  ( 0.000000000000000000, 0.000000000000000000, 0.000000000000000000 ) ) ;
#233 = PROPERTY_DEFINITION ('external definition','', #111 ) ;
#234 = CC_DESIGN_PERSON_AND_ORGANIZATION_ASSIGNMENT ( #369, #181, ( #341 ) ) ;
#235 = CC_DESIGN_APPROVAL ( #338, ( #334 ) ) ;
#236 = LOCAL_TIME ( 18, 49, 53.00000000000000000, #2 ) ;
#237 = PERSON_AND_ORGANIZATION_ROLE ( 'creator' ) ;
#238 = APPLICATION_CONTEXT ( 'configuration controlled 3d designs of mechanical parts and assemblies' ) ;
#239 = DATE_AND_TIME ( #308, #321 ) ;
#240 = APPROVAL_STATUS ( 'not_yet_approved' ) ;
#241 = CC_DESIGN_PERSON_AND_ORGANIZATION_ASSIGNMENT ( #143, #10, ( #357 ) ) ;
#242 = CALENDAR_DATE ( 2026, 22, 6 ) ;
#243 = PRODUCT ( 'C37.step', 'C37.step', '', ( #119 ) ) ;
#244 = PERSON_AND_ORGANIZATION ( #18446744073709551615, #18446744073709551615 ) ;
#245 = LOCAL_TIME ( 18, 49, 53.00000000000000000, #257 ) ;
#246 = DATE_AND_TIME ( #180, #201 ) ;
#247 = PERSON_AND_ORGANIZATION_ROLE ( 'design_supplier' ) ;
#248 = SHAPE_DEFINITION_REPRESENTATION ( #104, #25 ) ;
#249 = CC_DESIGN_PERSON_AND_ORGANIZATION_ASSIGNMENT ( #267, #330, ( #67 ) ) ;
#250 = DATE_AND_TIME ( #312, #159 ) ;
#251 = APPROVAL_DATE_TIME ( #81, #375 ) ;
#252 = CC_DESIGN_APPROVAL ( #147, ( #7 ) ) ;
#253 = LOCAL_TIME ( 18, 49, 53.00000000000000000, #256 ) ;
#254 = PERSON_AND_ORGANIZATION ( #18446744073709551615, #18446744073709551615 ) ;
#255 = APPLICATION_PROTOCOL_DEFINITION ( 'international standard', 'config_control_design', 1994, #238 ) ;
#256 = COORDINATED_UNIVERSAL_TIME_OFFSET ( 10, 0, .AHEAD. ) ;
#257 = COORDINATED_UNIVERSAL_TIME_OFFSET ( 10, 0, .AHEAD. ) ;
#258 = APPROVAL_ROLE ( '' ) ;
#259 = APPROVAL_DATE_TIME ( #384, #299 ) ;
#260 = APPROVAL ( #301, 'Coincident' ) ;
#261 = PERSON_AND_ORGANIZATION ( #18446744073709551615, #18446744073709551615 ) ;
#262 = CALENDAR_DATE ( 2026, 22, 6 ) ;
#263 = APPLIED_DOCUMENT_REFERENCE ( #385,'',( #135) ) ;
#264 = CARTESIAN_POINT ( 'NONE',  ( 8.750001007051002588, 10.99999645996100384, -2.058321952820000078 ) ) ;
#265 = CC_DESIGN_APPROVAL ( #375, ( #32 ) ) ;
#266 = PERSON ( 'NAUO-PER40', 'UNSPECIFIED', 'UNSPECIFIED', ('UNSPECIFIED'), ('UNSPECIFIED'), ('UNSPECIFIED') ) ;
#267 = PERSON_AND_ORGANIZATION ( #112, #47 ) ;
#268 =( REPRESENTATION_RELATIONSHIP ('NONE','NONE', #200, #287 ) REPRESENTATION_RELATIONSHIP_WITH_TRANSFORMATION ( #217 )SHAPE_REPRESENTATION_RELATIONSHIP( ) );
#269 = ROLE_ASSOCIATION ( #33, #57 ) ;
#270 = DATE_AND_TIME ( #228, #106 ) ;
#271 = PROPERTY_DEFINITION_REPRESENTATION ( #145, #287 ) ;
#272 =( GEOMETRIC_REPRESENTATION_CONTEXT ( 3 ) GLOBAL_UNCERTAINTY_ASSIGNED_CONTEXT ( ( #129 ) ) GLOBAL_UNIT_ASSIGNED_CONTEXT ( ( #222, #189, #50 ) ) REPRESENTATION_CONTEXT ( 'NONE', 'WORKASPACE' ) );
#273 = PERSON ( 'NAUO-PER41', 'UNSPECIFIED', 'UNSPECIFIED', ('UNSPECIFIED'), ('UNSPECIFIED'), ('UNSPECIFIED') ) ;
#274 = APPROVAL_PERSON_ORGANIZATION ( #199, #299, #23 ) ;
#275 = APPROVAL_DATE_TIME ( #172, #306 ) ;
#276 = APPLICATION_CONTEXT ( 'configuration controlled 3d designs of mechanical parts and assemblies' ) ;
#277 = APPROVAL_PERSON_ORGANIZATION ( #380, #260, #20 ) ;
#278 = APPROVAL_STATUS ( 'not_yet_approved' ) ;
#279 = PERSON_AND_ORGANIZATION ( #18446744073709551615, #18446744073709551615 ) ;
#280 = APPROVAL_ROLE ( '' ) ;
#281 = CC_DESIGN_APPROVAL ( #306, ( #90 ) ) ;
#282 = APPROVAL ( #191, 'UNKNOWN' ) ;
#283 = PROPERTY_DEFINITION ('document property','', #1 ) ;
#284 = CALENDAR_DATE ( 2026, 22, 6 ) ;
#285 = CALENDAR_DATE ( 2026, 22, 6 ) ;
#286 = PERSON_AND_ORGANIZATION_ROLE ( 'creator' ) ;
#287 = SHAPE_REPRESENTATION ( '6461082896.step', ( #148 ), #272 ) ;
#288 = SECURITY_CLASSIFICATION_LEVEL ( 'unclassified' ) ;
#289 = APPROVAL_STATUS ( 'not_yet_approved' ) ;
#290 = APPLICATION_CONTEXT ( 'configuration controlled 3d designs of mechanical parts and assemblies' ) ;
#291 = APPROVAL_DATE_TIME ( #150, #83 ) ;
#292 = DIRECTION ( 'NONE',  ( 4.890937612370273194E-29, -3.155443620884047222E-30, 0.9999999999999997780 ) ) ;
#293 = CC_DESIGN_PERSON_AND_ORGANIZATION_ASSIGNMENT ( #226, #87, ( #146 ) ) ;
#294 = SHAPE_DEFINITION_REPRESENTATION ( #177, #200 ) ;
#295 = PERSON_AND_ORGANIZATION ( #18446744073709551615, #18446744073709551615 ) ;
#296 = APPROVAL_STATUS ( 'not_yet_approved' ) ;
#297 = COORDINATED_UNIVERSAL_TIME_OFFSET ( 10, 0, .AHEAD. ) ;
#298 = APPLIED_EXTERNAL_IDENTIFICATION_ASSIGNMENT ( '6461082896.step.STEP' , #218, #99,( #1) ) ;
#299 = APPROVAL ( #289, 'Coincident' ) ;
#300 = DIRECTION ( 'NONE',  ( 1.000000000000000000, 0.000000000000000000, 0.000000000000000000 ) ) ;
#301 = APPROVAL_STATUS ( 'not_yet_approved' ) ;
#302 = APPROVAL_PERSON_ORGANIZATION ( #353, #375, #77 ) ;
#303 =( NAMED_UNIT ( * ) SI_UNIT ( $, .STERADIAN. ) SOLID_ANGLE_UNIT ( ) );
#304 = APPROVAL_DATE_TIME ( #5, #174 ) ;
#305 = DOCUMENT_TYPE ( 'geometry' ) ;
#306 = APPROVAL ( #165, 'Coincident' ) ;
#307 = CC_DESIGN_APPROVAL ( #365, ( #67 ) ) ;
#308 = CALENDAR_DATE ( 2026, 22, 6 ) ;
#309 = PERSON_AND_ORGANIZATION ( #18446744073709551615, #18446744073709551615 ) ;
#310 = CC_DESIGN_PERSON_AND_ORGANIZATION_ASSIGNMENT ( #214, #153, ( #224 ) ) ;
#311 = COORDINATED_UNIVERSAL_TIME_OFFSET ( 10, 0, .AHEAD. ) ;
#312 = CALENDAR_DATE ( 2026, 22, 6 ) ;
#313 = LOCAL_TIME ( 18, 49, 53.00000000000000000, #38 ) ;
#314 = PROPERTY_DEFINITION_REPRESENTATION ( #366, #25 ) ;
#315 = ROLE_ASSOCIATION ( #345, #348 ) ;
#316 = PERSON_AND_ORGANIZATION ( #18446744073709551615, #18446744073709551615 ) ;
#317 = COORDINATED_UNIVERSAL_TIME_OFFSET ( 10, 0, .AHEAD. ) ;
#318 = DIRECTION ( 'NONE',  ( 0.000000000000000000, 0.000000000000000000, 1.000000000000000000 ) ) ;
#319 = PRODUCT_RELATED_PRODUCT_CATEGORY ( 'detail', '', ( #243 ) ) ;
#320 = AXIS2_PLACEMENT_3D ( 'NONE', #82, #292, #114 ) ;
#321 = LOCAL_TIME ( 18, 49, 53.00000000000000000, #336 ) ;
#322 = PERSON_AND_ORGANIZATION_ROLE ( 'classification_officer' ) ;
#323 = COORDINATED_UNIVERSAL_TIME_OFFSET ( 10, 0, .AHEAD. ) ;
#324 = DESIGN_CONTEXT ( 'detailed design', #290, 'design' ) ;
#325 = EXTERNAL_SOURCE (IDENTIFIER('') ) ;
#326 = PERSON_AND_ORGANIZATION ( #18446744073709551615, #18446744073709551615 ) ;
#327 = APPROVAL_STATUS ( 'not_yet_approved' ) ;
#328 = CC_DESIGN_DATE_AND_TIME_ASSIGNMENT ( #203, #358, ( #67 ) ) ;
#329 = LOCAL_TIME ( 18, 49, 53.00000000000000000, #187 ) ;
#330 = PERSON_AND_ORGANIZATION_ROLE ( 'classification_officer' ) ;
#331 = IDENTIFICATION_ROLE ( 'external document id and location', $) ;
#332 = APPROVAL_ROLE ( '' ) ;
#333 =( NAMED_UNIT ( * ) PLANE_ANGLE_UNIT ( ) SI_UNIT ( $, .RADIAN. ) );
#334 = PRODUCT_DEFINITION ( 'General', '', #7, #120 ) ;
#335 = CC_DESIGN_APPROVAL ( #83, ( #37 ) ) ;
#336 = COORDINATED_UNIVERSAL_TIME_OFFSET ( 10, 0, .AHEAD. ) ;
#337 = PERSON_AND_ORGANIZATION ( #18446744073709551615, #18446744073709551615 ) ;
#338 = APPROVAL ( #78, 'Coincident' ) ;
#339 = DATE_AND_TIME ( #285, #313 ) ;
#340 =( GEOMETRIC_REPRESENTATION_CONTEXT ( 3 ) GLOBAL_UNCERTAINTY_ASSIGNED_CONTEXT ( ( #86 ) ) GLOBAL_UNIT_ASSIGNED_CONTEXT ( ( #34, #333, #303 ) ) REPRESENTATION_CONTEXT ( 'NONE', 'WORKASPACE' ) );
#341 = PRODUCT_DEFINITION_FORMATION_WITH_SPECIFIED_SOURCE ( 'Symmetric', '', #146, .NOT_KNOWN. ) ;
#342 = APPROVAL_DATE_TIME ( #209, #66 ) ;
#343 = COORDINATED_UNIVERSAL_TIME_OFFSET ( 10, 0, .AHEAD. ) ;
#344 = PRODUCT_DEFINITION_SHAPE ( 'NONE', 'NONE',  #135 ) ;
#345 = OBJECT_ROLE ('mandatory',$ ) ;
#346 = DATE_TIME_ROLE ( 'classification_date' ) ;
#347 = CC_DESIGN_DATE_AND_TIME_ASSIGNMENT ( #127, #355, ( #37 ) ) ;
#348 = APPLIED_DOCUMENT_REFERENCE ( #111,'',( #90) ) ;
#349 = APPROVAL_PERSON_ORGANIZATION ( #244, #40, #101 ) ;
#350 = DATE_AND_TIME ( #160, #329 ) ;
#351 = PERSON_AND_ORGANIZATION ( #18446744073709551615, #18446744073709551615 ) ;
#352 = DOCUMENT_TYPE ( 'geometry' ) ;
#353 = PERSON_AND_ORGANIZATION ( #273, #175 ) ;
#354 = APPLICATION_PROTOCOL_DEFINITION ( 'international standard', 'config_control_design', 1994, #360 ) ;
#355 = DATE_TIME_ROLE ( 'classification_date' ) ;
#356 = APPROVAL_DATE_TIME ( #386, #338 ) ;
#357 = SECURITY_CLASSIFICATION ( '', '', #17 ) ;
#358 = DATE_TIME_ROLE ( 'classification_date' ) ;
#359 = DIRECTION ( 'NONE',  ( 1.000000000000000222, -1.092455418989176591E-28, 4.890937612370273194E-29 ) ) ;
#360 = APPLICATION_CONTEXT ( 'configuration controlled 3d designs of mechanical parts and assemblies' ) ;
#361 = PERSON_AND_ORGANIZATION_ROLE ( 'classification_officer' ) ;
#362 = ITEM_DEFINED_TRANSFORMATION ( 'NONE', 'NONE', #204,  #148 ) ;
#363 = APPROVAL_PERSON_ORGANIZATION ( #326, #174, #197 ) ;
#364 = CONTEXT_DEPENDENT_SHAPE_REPRESENTATION ( #71, #125 ) ;
#365 = APPROVAL ( #95, 'UNKNOWN' ) ;
#366 = PROPERTY_DEFINITION ('document property','', #111 ) ;
#367 = DIRECTION ( 'NONE',  ( 0.000000000000000000, 0.000000000000000000, 1.000000000000000000 ) ) ;
#368 = CC_DESIGN_SECURITY_CLASSIFICATION ( #224, ( #388 ) ) ;
#369 = PERSON_AND_ORGANIZATION ( #18446744073709551615, #18446744073709551615 ) ;
#370 = IDENTIFICATION_ROLE ( 'external document id and location', $) ;
#371 = CALENDAR_DATE ( 2026, 22, 6 ) ;
#372 = APPLICATION_PROTOCOL_DEFINITION ( 'international standard', 'config_control_design', 1994, #276 ) ;
#373 = CC_DESIGN_SECURITY_CLASSIFICATION ( #357, ( #341 ) ) ;
#374 = PROPERTY_DEFINITION ('document property','', #385 ) ;
#375 = APPROVAL ( #221, 'UNKNOWN' ) ;
#376 = CALENDAR_DATE ( 2026, 22, 6 ) ;
#377 = DATE_AND_TIME ( #242, #236 ) ;
#378 = APPLICATION_CONTEXT ( 'configuration controlled 3d designs of mechanical parts and assemblies' ) ;
#379 = CALENDAR_DATE ( 2026, 22, 6 ) ;
#380 = PERSON_AND_ORGANIZATION ( #18446744073709551615, #18446744073709551615 ) ;
#381 = CC_DESIGN_SECURITY_CLASSIFICATION ( #37, ( #4 ) ) ;
#382 = PRODUCT_RELATED_PRODUCT_CATEGORY ( 'detail', '', ( #146 ) ) ;
#383 = PERSON_AND_ORGANIZATION ( #18446744073709551615, #18446744073709551615 ) ;
#384 = DATE_AND_TIME ( #109, #253 ) ;
#385 = DOCUMENT_FILE ( '6461082896.step.STEP' , '', '', #305, '' ,$ ) ;
#386 = DATE_AND_TIME ( #223, #30 ) ;
#387 = LOCAL_TIME ( 18, 49, 53.00000000000000000, #92 ) ;
#388 = NEXT_ASSEMBLY_USAGE_OCCURRENCE ( 'NAUO40', ' ', ' ', #334, #90, $ ) ;
#389 = NEXT_ASSEMBLY_USAGE_OCCURRENCE ( 'NAUO41', ' ', ' ', #334, #135, $ ) ;
#390 = NEXT_ASSEMBLY_USAGE_OCCURRENCE ( 'NAUO42', ' ', ' ', #334, #135, $ ) ;
ENDSEC;
END-ISO-10303-21;
