ISO-10303-21;
HEADER;
FILE_DESCRIPTION (( 'STEP AP203' ),
    '1' );
FILE_NAME ('C38.step.STEP',
    '2026-06-22T08:49:53',
    ( 'localuser' ),
    ( '' ),
    'SwSTEP 2.0',
    'SolidWorks 2025',
    '' );
FILE_SCHEMA (( 'CONFIG_CONTROL_DESIGN' ));
ENDSEC;

DATA;
#1 = CC_DESIGN_PERSON_AND_ORGANIZATION_ASSIGNMENT ( #90, #328, ( #225 ) ) ;
#2 = APPROVAL_STATUS ( 'not_yet_approved' ) ;
#3 = APPROVAL_STATUS ( 'not_yet_approved' ) ;
#4 = APPROVAL_DATE_TIME ( #174, #270 ) ;
#5 = EXTERNAL_SOURCE (IDENTIFIER('') ) ;
#6 = APPLICATION_PROTOCOL_DEFINITION ( 'international standard', 'config_control_design', 1994, #205 ) ;
#7 = PERSON_AND_ORGANIZATION_ROLE ( 'classification_officer' ) ;
#8 = APPLIED_EXTERNAL_IDENTIFICATION_ASSIGNMENT ( '6461082896.step.STEP' , #220, #317,( #275) ) ;
#9 = APPROVAL_ROLE ( '' ) ;
#10 = CC_DESIGN_DATE_AND_TIME_ASSIGNMENT ( #136, #271, ( #282 ) ) ;
#11 = PERSON_AND_ORGANIZATION ( #18446744073709551615, #18446744073709551615 ) ;
#12 = PERSON_AND_ORGANIZATION ( #18446744073709551615, #18446744073709551615 ) ;
#13 = DIRECTION ( 'NONE',  ( 0.000000000000000000, 0.000000000000000000, 1.000000000000000000 ) ) ;
#14 = DOCUMENT_FILE ( '6461082896.step.STEP' , '', '', #211, '' ,$ ) ;
#15 = OBJECT_ROLE ('mandatory',$ ) ;
#16 = LOCAL_TIME ( 18, 49, 53.00000000000000000, #292 ) ;
#17 = CC_DESIGN_PERSON_AND_ORGANIZATION_ASSIGNMENT ( #353, #152, ( #385 ) ) ;
#18 = DIRECTION ( 'NONE',  ( 4.890937612370273194E-29, -3.155443620884047222E-30, 0.9999999999999997780 ) ) ;
#19 = PROPERTY_DEFINITION ('document property','', #275 ) ;
#20 = SECURITY_CLASSIFICATION ( '', '', #56 ) ;
#21 = OBJECT_ROLE ('mandatory',$ ) ;
#22 =( NAMED_UNIT ( * ) PLANE_ANGLE_UNIT ( ) SI_UNIT ( $, .RADIAN. ) );
#23 = PRODUCT_DEFINITION ( 'General', '', #82, #336 ) ;
#24 = COORDINATED_UNIVERSAL_TIME_OFFSET ( 10, 0, .AHEAD. ) ;
#25 =( REPRESENTATION_RELATIONSHIP ('NONE','NONE', #101, #347 ) REPRESENTATION_RELATIONSHIP_WITH_TRANSFORMATION ( #278 )SHAPE_REPRESENTATION_RELATIONSHIP( ) );
#26 = PERSON_AND_ORGANIZATION ( #18446744073709551615, #18446744073709551615 ) ;
#27 = APPROVAL ( #178, 'Coincident' ) ;
#28 = SECURITY_CLASSIFICATION ( '', '', #107 ) ;
#29 = APPROVAL_STATUS ( 'not_yet_approved' ) ;
#30 = DATE_AND_TIME ( #268, #40 ) ;
#31 = COORDINATED_UNIVERSAL_TIME_OFFSET ( 10, 0, .AHEAD. ) ;
#32 = APPROVAL_ROLE ( '' ) ;
#33 = APPLIED_EXTERNAL_IDENTIFICATION_ASSIGNMENT ( '6461082896.step.STEP' , #344, #86,( #14) ) ;
#34 = DATE_AND_TIME ( #200, #16 ) ;
#35 = APPROVAL_STATUS ( 'not_yet_approved' ) ;
#36 = PERSON_AND_ORGANIZATION_ROLE ( 'creator' ) ;
#37 = CC_DESIGN_PERSON_AND_ORGANIZATION_ASSIGNMENT ( #288, #145, ( #82 ) ) ;
#38 = COORDINATED_UNIVERSAL_TIME_OFFSET ( 10, 0, .AHEAD. ) ;
#39 = DATE_AND_TIME ( #272, #316 ) ;
#40 = LOCAL_TIME ( 18, 49, 53.00000000000000000, #153 ) ;
#41 = APPLIED_DOCUMENT_REFERENCE ( #14,'',( #173) ) ;
#42 = DIRECTION ( 'NONE',  ( 1.000000000000000000, 0.000000000000000000, 0.000000000000000000 ) ) ;
#43 = OBJECT_ROLE ('mandatory',$ ) ;
#44 = ROLE_ASSOCIATION ( #15, #41 ) ;
#45 = APPROVAL ( #3, 'Coincident' ) ;
#46 = COORDINATED_UNIVERSAL_TIME_OFFSET ( 10, 0, .AHEAD. ) ;
#47 =( GEOMETRIC_REPRESENTATION_CONTEXT ( 3 ) GLOBAL_UNCERTAINTY_ASSIGNED_CONTEXT ( ( #62 ) ) GLOBAL_UNIT_ASSIGNED_CONTEXT ( ( #287, #22, #250 ) ) REPRESENTATION_CONTEXT ( 'NONE', 'WORKASPACE' ) );
#48 = APPROVAL_PERSON_ORGANIZATION ( #242, #352, #9 ) ;
#49 = DIRECTION ( 'NONE',  ( 1.000000000000000222, -1.092455418989176591E-28, 4.890937612370273194E-29 ) ) ;
#50 = CC_DESIGN_DATE_AND_TIME_ASSIGNMENT ( #198, #117, ( #20 ) ) ;
#51 = PRODUCT_DEFINITION_SHAPE ( 'NONE', 'NONE',  #388 ) ;
#52 = PROPERTY_DEFINITION_REPRESENTATION ( #19, #215 ) ;
#53 = LOCAL_TIME ( 18, 49, 53.00000000000000000, #340 ) ;
#54 =( REPRESENTATION_RELATIONSHIP ('NONE','NONE', #101, #215 ) REPRESENTATION_RELATIONSHIP_WITH_TRANSFORMATION ( #76 )SHAPE_REPRESENTATION_RELATIONSHIP( ) );
#55 = PERSON_AND_ORGANIZATION_ROLE ( 'classification_officer' ) ;
#56 = SECURITY_CLASSIFICATION_LEVEL ( 'unclassified' ) ;
#57 = CC_DESIGN_APPROVAL ( #326, ( #375 ) ) ;
#58 = APPLICATION_PROTOCOL_DEFINITION ( 'international standard', 'config_control_design', 1994, #269 ) ;
#59 = PERSON_AND_ORGANIZATION_ROLE ( 'classification_officer' ) ;
#60 = PERSON_AND_ORGANIZATION ( #18446744073709551615, #18446744073709551615 ) ;
#61 = PERSON_AND_ORGANIZATION ( #18446744073709551615, #18446744073709551615 ) ;
#62 = UNCERTAINTY_MEASURE_WITH_UNIT (LENGTH_MEASURE( 1.000000000000000082E-05 ), #287, 'distance_accuracy_value', 'NONE');
#63 = CC_DESIGN_PERSON_AND_ORGANIZATION_ASSIGNMENT ( #156, #241, ( #252 ) ) ;
#64 =( GEOMETRIC_REPRESENTATION_CONTEXT ( 3 ) GLOBAL_UNCERTAINTY_ASSIGNED_CONTEXT ( ( #166 ) ) GLOBAL_UNIT_ASSIGNED_CONTEXT ( ( #345, #285, #253 ) ) REPRESENTATION_CONTEXT ( 'NONE', 'WORKASPACE' ) );
#65 = DATE_TIME_ROLE ( 'classification_date' ) ;
#66 = CC_DESIGN_SECURITY_CLASSIFICATION ( #219, ( #89 ) ) ;
#67 = COORDINATED_UNIVERSAL_TIME_OFFSET ( 10, 0, .AHEAD. ) ;
#68 = DIRECTION ( 'NONE',  ( 0.000000000000000000, 0.000000000000000000, 1.000000000000000000 ) ) ;
#69 = CC_DESIGN_PERSON_AND_ORGANIZATION_ASSIGNMENT ( #12, #128, ( #158 ) ) ;
#70 = PERSON_AND_ORGANIZATION ( #267, #140 ) ;
#71 = PERSON_AND_ORGANIZATION_ROLE ( 'classification_officer' ) ;
#72 = DOCUMENT_FILE ( '6461083056.step.STEP' , '', '', #372, '' ,$ ) ;
#73 = APPLIED_EXTERNAL_IDENTIFICATION_ASSIGNMENT ( '6461083056.step.STEP' , #176, #5,( #72) ) ;
#74 = SECURITY_CLASSIFICATION_LEVEL ( 'unclassified' ) ;
#75 = DOCUMENT_TYPE ( 'geometry' ) ;
#76 = ITEM_DEFINED_TRANSFORMATION ( 'NONE', 'NONE', #97,  #195 ) ;
#77 = PERSON ( 'NAUO-PER56', 'UNSPECIFIED', 'UNSPECIFIED', ('UNSPECIFIED'), ('UNSPECIFIED'), ('UNSPECIFIED') ) ;
#78 = LOCAL_TIME ( 18, 49, 53.00000000000000000, #67 ) ;
#79 = DIRECTION ( 'NONE',  ( 4.890937612370273194E-29, -3.155443620884047222E-30, 0.9999999999999997780 ) ) ;
#80 = PROPERTY_DEFINITION ('external definition','', #14 ) ;
#81 = COORDINATED_UNIVERSAL_TIME_OFFSET ( 10, 0, .AHEAD. ) ;
#82 = PRODUCT_DEFINITION_FORMATION_WITH_SPECIFIED_SOURCE ( 'Symmetric', '', #252, .NOT_KNOWN. ) ;
#83 = CC_DESIGN_APPROVAL ( #270, ( #173 ) ) ;
#84 = CC_DESIGN_DATE_AND_TIME_ASSIGNMENT ( #300, #65, ( #219 ) ) ;
#85 = PERSON_AND_ORGANIZATION ( #18446744073709551615, #18446744073709551615 ) ;
#86 = EXTERNAL_SOURCE (IDENTIFIER('') ) ;
#87 = DATE_AND_TIME ( #295, #369 ) ;
#88 = CC_DESIGN_APPROVAL ( #45, ( #82 ) ) ;
#89 = PRODUCT_DEFINITION_FORMATION_WITH_SPECIFIED_SOURCE ( 'Symmetric', '', #346, .NOT_KNOWN. ) ;
#90 = PERSON_AND_ORGANIZATION ( #18446744073709551615, #18446744073709551615 ) ;
#91 = DIRECTION ( 'NONE',  ( 1.000000000000000000, 0.000000000000000000, 0.000000000000000000 ) ) ;
#92 = APPROVAL_DATE_TIME ( #294, #45 ) ;
#93 = CALENDAR_DATE ( 2026, 22, 6 ) ;
#94 = APPLICATION_PROTOCOL_DEFINITION ( 'international standard', 'config_control_design', 1994, #224 ) ;
#95 = SECURITY_CLASSIFICATION_LEVEL ( 'unclassified' ) ;
#96 = CARTESIAN_POINT ( 'NONE',  ( 0.000000000000000000, 0.000000000000000000, 0.000000000000000000 ) ) ;
#97 = AXIS2_PLACEMENT_3D ( 'NONE', #110, #79, #341 ) ;
#98 = ITEM_DEFINED_TRANSFORMATION ( 'NONE', 'NONE', #323,  #195 ) ;
#99 = MECHANICAL_CONTEXT ( 'NONE', #138, 'mechanical' ) ;
#100 = CC_DESIGN_PERSON_AND_ORGANIZATION_ASSIGNMENT ( #381, #379, ( #346 ) ) ;
#101 = SHAPE_REPRESENTATION ( 'C38.step', ( #374, #258, #323, #97 ), #64 ) ;
#102 = CALENDAR_DATE ( 2026, 22, 6 ) ;
#103 = APPROVAL_STATUS ( 'not_yet_approved' ) ;
#104 = APPROVAL_ROLE ( '' ) ;
#105 = SHAPE_DEFINITION_REPRESENTATION ( #164, #347 ) ;
#106 = APPROVAL_PERSON_ORGANIZATION ( #202, #139, #127 ) ;
#107 = SECURITY_CLASSIFICATION_LEVEL ( 'unclassified' ) ;
#108 = CC_DESIGN_PERSON_AND_ORGANIZATION_ASSIGNMENT ( #232, #266, ( #173 ) ) ;
#109 = LOCAL_TIME ( 18, 49, 53.00000000000000000, #81 ) ;
#110 = CARTESIAN_POINT ( 'NONE',  ( 17.05000024411100767, 2.549999511719001077, -2.058321952820000078 ) ) ;
#111 = PRODUCT_DEFINITION_SHAPE ( 'NONE', 'NONE',  #23 ) ;
#112 = APPLICATION_PROTOCOL_DEFINITION ( 'international standard', 'config_control_design', 1994, #125 ) ;
#113 = CC_DESIGN_DATE_AND_TIME_ASSIGNMENT ( #304, #155, ( #28 ) ) ;
#114 = AXIS2_PLACEMENT_3D ( 'NONE', #96, #210, #91 ) ;
#115 = APPROVAL_ROLE ( '' ) ;
#116 = LOCAL_TIME ( 18, 49, 53.00000000000000000, #216 ) ;
#117 = DATE_TIME_ROLE ( 'classification_date' ) ;
#118 = APPROVAL_ROLE ( '' ) ;
#119 =( NAMED_UNIT ( * ) PLANE_ANGLE_UNIT ( ) SI_UNIT ( $, .RADIAN. ) );
#120 = DATE_AND_TIME ( #209, #165 ) ;
#121 =( NAMED_UNIT ( * ) SI_UNIT ( $, .STERADIAN. ) SOLID_ANGLE_UNIT ( ) );
#122 = CC_DESIGN_PERSON_AND_ORGANIZATION_ASSIGNMENT ( #70, #310, ( #375 ) ) ;
#123 = APPROVAL_PERSON_ORGANIZATION ( #227, #135, #350 ) ;
#124 = COORDINATED_UNIVERSAL_TIME_OFFSET ( 10, 0, .AHEAD. ) ;
#125 = APPLICATION_CONTEXT ( 'configuration controlled 3d designs of mechanical parts and assemblies' ) ;
#126 = PERSON_AND_ORGANIZATION ( #18446744073709551615, #18446744073709551615 ) ;
#127 = APPROVAL_ROLE ( '' ) ;
#128 = PERSON_AND_ORGANIZATION_ROLE ( 'design_supplier' ) ;
#129 = APPLICATION_CONTEXT ( 'configuration controlled 3d designs of mechanical parts and assemblies' ) ;
#130 =( GEOMETRIC_REPRESENTATION_CONTEXT ( 3 ) GLOBAL_UNCERTAINTY_ASSIGNED_CONTEXT ( ( #355 ) ) GLOBAL_UNIT_ASSIGNED_CONTEXT ( ( #262, #119, #121 ) ) REPRESENTATION_CONTEXT ( 'NONE', 'WORKASPACE' ) );
#131 = CALENDAR_DATE ( 2026, 22, 6 ) ;
#132 = LOCAL_TIME ( 18, 49, 53.00000000000000000, #303 ) ;
#133 = CALENDAR_DATE ( 2026, 22, 6 ) ;
#134 = PERSON_AND_ORGANIZATION ( #18446744073709551615, #18446744073709551615 ) ;
#135 = APPROVAL ( #2, 'Coincident' ) ;
#136 = DATE_AND_TIME ( #358, #116 ) ;
#137 = LOCAL_TIME ( 18, 49, 53.00000000000000000, #261 ) ;
#138 = APPLICATION_CONTEXT ( 'configuration controlled 3d designs of mechanical parts and assemblies' ) ;
#139 = APPROVAL ( #150, 'Coincident' ) ;
#140 = ORGANIZATION ( 'NAUO-ORG55', 'UNSPECIFIED', 'UNSPECIFIED' ) ;
#141 = CC_DESIGN_DATE_AND_TIME_ASSIGNMENT ( #120, #230, ( #173 ) ) ;
#142 = CONTEXT_DEPENDENT_SHAPE_REPRESENTATION ( #54, #376 ) ;
#143 = DESIGN_CONTEXT ( 'detailed design', #269, 'design' ) ;
#144 = PROPERTY_DEFINITION_REPRESENTATION ( #286, #215 ) ;
#145 = PERSON_AND_ORGANIZATION_ROLE ( 'design_supplier' ) ;
#146 = CC_DESIGN_APPROVAL ( #301, ( #20 ) ) ;
#147 = APPROVAL_ROLE ( '' ) ;
#148 = DATE_TIME_ROLE ( 'creation_date' ) ;
#149 = APPROVAL ( #180, 'Coincident' ) ;
#150 = APPROVAL_STATUS ( 'not_yet_approved' ) ;
#151 = SECURITY_CLASSIFICATION ( '', '', #228 ) ;
#152 = PERSON_AND_ORGANIZATION_ROLE ( 'creator' ) ;
#153 = COORDINATED_UNIVERSAL_TIME_OFFSET ( 10, 0, .AHEAD. ) ;
#154 = CALENDAR_DATE ( 2026, 22, 6 ) ;
#155 = DATE_TIME_ROLE ( 'classification_date' ) ;
#156 = PERSON_AND_ORGANIZATION ( #18446744073709551615, #18446744073709551615 ) ;
#157 = APPROVAL_DATE_TIME ( #333, #326 ) ;
#158 = PRODUCT_DEFINITION_FORMATION_WITH_SPECIFIED_SOURCE ( 'Symmetric', '', #225, .NOT_KNOWN. ) ;
#159 = APPLIED_DOCUMENT_REFERENCE ( #72,'',( #385) ) ;
#160 = PROPERTY_DEFINITION_REPRESENTATION ( #80, #215 ) ;
#161 = CALENDAR_DATE ( 2026, 22, 6 ) ;
#162 = APPROVAL_PERSON_ORGANIZATION ( #249, #371, #234 ) ;
#163 = APPROVAL ( #35, 'Coincident' ) ;
#164 = PRODUCT_DEFINITION_SHAPE ( 'NONE', 'NONE',  #385 ) ;
#165 = LOCAL_TIME ( 18, 49, 53.00000000000000000, #351 ) ;
#166 = UNCERTAINTY_MEASURE_WITH_UNIT (LENGTH_MEASURE( 1.000000000000000082E-05 ), #345, 'distance_accuracy_value', 'NONE');
#167 = CC_DESIGN_PERSON_AND_ORGANIZATION_ASSIGNMENT ( #321, #71, ( #151 ) ) ;
#168 = APPROVAL_DATE_TIME ( #383, #301 ) ;
#169 = PERSON_AND_ORGANIZATION_ROLE ( 'creator' ) ;
#170 = DATE_AND_TIME ( #289, #274 ) ;
#171 = LOCAL_TIME ( 18, 49, 53.00000000000000000, #199 ) ;
#172 = CC_DESIGN_APPROVAL ( #27, ( #89 ) ) ;
#173 = PRODUCT_DEFINITION ( 'General', '', #89, #233 ) ;
#174 = DATE_AND_TIME ( #260, #387 ) ;
#175 = DATE_AND_TIME ( #386, #137 ) ;
#176 = IDENTIFICATION_ROLE ( 'external document id and location', $) ;
#177 = DIRECTION ( 'NONE',  ( 1.000000000000000000, 0.000000000000000000, 0.000000000000000000 ) ) ;
#178 = APPROVAL_STATUS ( 'not_yet_approved' ) ;
#179 = CC_DESIGN_SECURITY_CLASSIFICATION ( #28, ( #158 ) ) ;
#180 = APPROVAL_STATUS ( 'not_yet_approved' ) ;
#181 = DATE_AND_TIME ( #102, #203 ) ;
#182 = CALENDAR_DATE ( 2026, 22, 6 ) ;
#183 = DATE_AND_TIME ( #154, #246 ) ;
#184 = PRODUCT_RELATED_PRODUCT_CATEGORY ( 'detail', '', ( #346 ) ) ;
#185 = PERSON_AND_ORGANIZATION ( #18446744073709551615, #18446744073709551615 ) ;
#186 = APPROVAL_PERSON_ORGANIZATION ( #322, #27, #32 ) ;
#187 = CALENDAR_DATE ( 2026, 22, 6 ) ;
#188 = COORDINATED_UNIVERSAL_TIME_OFFSET ( 10, 0, .AHEAD. ) ;
#189 = APPROVAL_STATUS ( 'not_yet_approved' ) ;
#190 = APPROVAL_PERSON_ORGANIZATION ( #299, #163, #363 ) ;
#191 = APPROVAL_PERSON_ORGANIZATION ( #134, #255, #104 ) ;
#192 = PRODUCT_DEFINITION_SHAPE ( 'NONE', 'NONE',  #173 ) ;
#193 = APPLIED_DOCUMENT_REFERENCE ( #275,'',( #173) ) ;
#194 = CC_DESIGN_DATE_AND_TIME_ASSIGNMENT ( #236, #308, ( #375 ) ) ;
#195 = AXIS2_PLACEMENT_3D ( 'NONE', #357, #13, #42 ) ;
#196 = CC_DESIGN_SECURITY_CLASSIFICATION ( #375, ( #389 ) ) ;
#197 = LOCAL_TIME ( 18, 49, 53.00000000000000000, #46 ) ;
#198 = DATE_AND_TIME ( #377, #109 ) ;
#199 = COORDINATED_UNIVERSAL_TIME_OFFSET ( 10, 0, .AHEAD. ) ;
#200 = CALENDAR_DATE ( 2026, 22, 6 ) ;
#201 = CC_DESIGN_PERSON_AND_ORGANIZATION_ASSIGNMENT ( #85, #55, ( #219 ) ) ;
#202 = PERSON_AND_ORGANIZATION ( #18446744073709551615, #18446744073709551615 ) ;
#203 = LOCAL_TIME ( 18, 49, 53.00000000000000000, #360 ) ;
#204 = ORGANIZATION ( 'NAUO-ORG54', 'UNSPECIFIED', 'UNSPECIFIED' ) ;
#205 = APPLICATION_CONTEXT ( 'configuration controlled 3d designs of mechanical parts and assemblies' ) ;
#206 = COORDINATED_UNIVERSAL_TIME_OFFSET ( 10, 0, .AHEAD. ) ;
#207 = CC_DESIGN_PERSON_AND_ORGANIZATION_ASSIGNMENT ( #242, #7, ( #282 ) ) ;
#208 = APPROVAL_DATE_TIME ( #175, #135 ) ;
#209 = CALENDAR_DATE ( 2026, 22, 6 ) ;
#210 = DIRECTION ( 'NONE',  ( 0.000000000000000000, 0.000000000000000000, 1.000000000000000000 ) ) ;
#211 = DOCUMENT_TYPE ( 'geometry' ) ;
#212 = LOCAL_TIME ( 18, 49, 53.00000000000000000, #24 ) ;
#213 = SHAPE_DEFINITION_REPRESENTATION ( #111, #101 ) ;
#214 = SECURITY_CLASSIFICATION_LEVEL ( 'unclassified' ) ;
#215 = SHAPE_REPRESENTATION ( '6461082896.step', ( #195 ), #47 ) ;
#216 = COORDINATED_UNIVERSAL_TIME_OFFSET ( 10, 0, .AHEAD. ) ;
#217 = CC_DESIGN_PERSON_AND_ORGANIZATION_ASSIGNMENT ( #231, #354, ( #89 ) ) ;
#218 = APPROVAL_DATE_TIME ( #244, #255 ) ;
#219 = SECURITY_CLASSIFICATION ( '', '', #95 ) ;
#220 = IDENTIFICATION_ROLE ( 'external document id and location', $) ;
#221 = CALENDAR_DATE ( 2026, 22, 6 ) ;
#222 = DATE_AND_TIME ( #187, #254 ) ;
#223 = DIRECTION ( 'NONE',  ( 1.000000000000000222, -1.092455418989176591E-28, 4.890937612370273194E-29 ) ) ;
#224 = APPLICATION_CONTEXT ( 'configuration controlled 3d designs of mechanical parts and assemblies' ) ;
#225 = PRODUCT ( '6461083056.step', '6461083056.step', '', ( #99 ) ) ;
#226 = CC_DESIGN_APPROVAL ( #371, ( #151 ) ) ;
#227 = PERSON_AND_ORGANIZATION ( #18446744073709551615, #18446744073709551615 ) ;
#228 = SECURITY_CLASSIFICATION_LEVEL ( 'unclassified' ) ;
#229 = APPROVAL_DATE_TIME ( #34, #149 ) ;
#230 = DATE_TIME_ROLE ( 'creation_date' ) ;
#231 = PERSON_AND_ORGANIZATION ( #18446744073709551615, #18446744073709551615 ) ;
#232 = PERSON_AND_ORGANIZATION ( #18446744073709551615, #18446744073709551615 ) ;
#233 = DESIGN_CONTEXT ( 'detailed design', #125, 'design' ) ;
#234 = APPROVAL_ROLE ( '' ) ;
#235 = DATE_TIME_ROLE ( 'classification_date' ) ;
#236 = DATE_AND_TIME ( #221, #197 ) ;
#237 = CC_DESIGN_APPROVAL ( #149, ( #385 ) ) ;
#238 = PERSON_AND_ORGANIZATION_ROLE ( 'creator' ) ;
#239 = APPROVAL_ROLE ( '' ) ;
#240 = CC_DESIGN_PERSON_AND_ORGANIZATION_ASSIGNMENT ( #11, #238, ( #23 ) ) ;
#241 = PERSON_AND_ORGANIZATION_ROLE ( 'design_owner' ) ;
#242 = PERSON_AND_ORGANIZATION ( #248, #204 ) ;
#243 = PROPERTY_DEFINITION ('external definition','', #72 ) ;
#244 = DATE_AND_TIME ( #182, #78 ) ;
#245 = CC_DESIGN_DATE_AND_TIME_ASSIGNMENT ( #181, #306, ( #23 ) ) ;
#246 = LOCAL_TIME ( 18, 49, 53.00000000000000000, #334 ) ;
#247 = PROPERTY_DEFINITION_REPRESENTATION ( #243, #347 ) ;
#248 = PERSON ( 'NAUO-PER54', 'UNSPECIFIED', 'UNSPECIFIED', ('UNSPECIFIED'), ('UNSPECIFIED'), ('UNSPECIFIED') ) ;
#249 = PERSON_AND_ORGANIZATION ( #18446744073709551615, #18446744073709551615 ) ;
#250 =( NAMED_UNIT ( * ) SI_UNIT ( $, .STERADIAN. ) SOLID_ANGLE_UNIT ( ) );
#251 = MECHANICAL_CONTEXT ( 'NONE', #205, 'mechanical' ) ;
#252 = PRODUCT ( 'C38.step', 'C38.step', '', ( #332 ) ) ;
#253 =( NAMED_UNIT ( * ) SI_UNIT ( $, .STERADIAN. ) SOLID_ANGLE_UNIT ( ) );
#254 = LOCAL_TIME ( 18, 49, 53.00000000000000000, #276 ) ;
#255 = APPROVAL ( #189, 'Coincident' ) ;
#256 = PRODUCT_DEFINITION_SHAPE ( 'NONE', 'NONE',  #389 ) ;
#257 = CARTESIAN_POINT ( 'NONE',  ( 16.05000024411100412, 2.549999511719001077, -2.058321952820000078 ) ) ;
#258 = AXIS2_PLACEMENT_3D ( 'NONE', #312, #18, #223 ) ;
#259 = LOCAL_TIME ( 18, 49, 53.00000000000000000, #320 ) ;
#260 = CALENDAR_DATE ( 2026, 22, 6 ) ;
#261 = COORDINATED_UNIVERSAL_TIME_OFFSET ( 10, 0, .AHEAD. ) ;
#262 =( LENGTH_UNIT ( ) NAMED_UNIT ( * ) SI_UNIT ( .MILLI., .METRE. ) );
#263 = APPROVAL_DATE_TIME ( #170, #139 ) ;
#264 = CC_DESIGN_PERSON_AND_ORGANIZATION_ASSIGNMENT ( #185, #307, ( #28 ) ) ;
#265 = CC_DESIGN_APPROVAL ( #352, ( #282 ) ) ;
#266 = PERSON_AND_ORGANIZATION_ROLE ( 'creator' ) ;
#267 = PERSON ( 'NAUO-PER55', 'UNSPECIFIED', 'UNSPECIFIED', ('UNSPECIFIED'), ('UNSPECIFIED'), ('UNSPECIFIED') ) ;
#268 = CALENDAR_DATE ( 2026, 22, 6 ) ;
#269 = APPLICATION_CONTEXT ( 'configuration controlled 3d designs of mechanical parts and assemblies' ) ;
#270 = APPROVAL ( #29, 'Coincident' ) ;
#271 = DATE_TIME_ROLE ( 'classification_date' ) ;
#272 = CALENDAR_DATE ( 2026, 22, 6 ) ;
#273 = APPROVAL_PERSON_ORGANIZATION ( #302, #270, #147 ) ;
#274 = LOCAL_TIME ( 18, 49, 53.00000000000000000, #206 ) ;
#275 = DOCUMENT_FILE ( '6461082896.step.STEP' , '', '', #75, '' ,$ ) ;
#276 = COORDINATED_UNIVERSAL_TIME_OFFSET ( 10, 0, .AHEAD. ) ;
#277 = APPROVAL_DATE_TIME ( #183, #163 ) ;
#278 = ITEM_DEFINED_TRANSFORMATION ( 'NONE', 'NONE', #258,  #114 ) ;
#279 = CC_DESIGN_PERSON_AND_ORGANIZATION_ASSIGNMENT ( #297, #329, ( #89 ) ) ;
#280 = PROPERTY_DEFINITION_REPRESENTATION ( #314, #215 ) ;
#281 = APPROVAL_PERSON_ORGANIZATION ( #126, #45, #349 ) ;
#282 = SECURITY_CLASSIFICATION ( '', '', #214 ) ;
#283 = APPROVAL_STATUS ( 'not_yet_approved' ) ;
#284 = PRODUCT_RELATED_PRODUCT_CATEGORY ( 'detail', '', ( #225 ) ) ;
#285 =( NAMED_UNIT ( * ) PLANE_ANGLE_UNIT ( ) SI_UNIT ( $, .RADIAN. ) );
#286 = PROPERTY_DEFINITION ('external definition','', #275 ) ;
#287 =( LENGTH_UNIT ( ) NAMED_UNIT ( * ) SI_UNIT ( .MILLI., .METRE. ) );
#288 = PERSON_AND_ORGANIZATION ( #18446744073709551615, #18446744073709551615 ) ;
#289 = CALENDAR_DATE ( 2026, 22, 6 ) ;
#290 = CARTESIAN_POINT ( 'NONE',  ( 0.000000000000000000, 0.000000000000000000, 0.000000000000000000 ) ) ;
#291 = CC_DESIGN_APPROVAL ( #255, ( #28 ) ) ;
#292 = COORDINATED_UNIVERSAL_TIME_OFFSET ( 10, 0, .AHEAD. ) ;
#293 = APPROVAL_STATUS ( 'not_yet_approved' ) ;
#294 = DATE_AND_TIME ( #319, #171 ) ;
#295 = CALENDAR_DATE ( 2026, 22, 6 ) ;
#296 = CC_DESIGN_DATE_AND_TIME_ASSIGNMENT ( #39, #235, ( #151 ) ) ;
#297 = PERSON_AND_ORGANIZATION ( #18446744073709551615, #18446744073709551615 ) ;
#298 = CC_DESIGN_SECURITY_CLASSIFICATION ( #151, ( #82 ) ) ;
#299 = PERSON_AND_ORGANIZATION ( #18446744073709551615, #18446744073709551615 ) ;
#300 = DATE_AND_TIME ( #93, #259 ) ;
#301 = APPROVAL ( #380, 'UNKNOWN' ) ;
#302 = PERSON_AND_ORGANIZATION ( #18446744073709551615, #18446744073709551615 ) ;
#303 = COORDINATED_UNIVERSAL_TIME_OFFSET ( 10, 0, .AHEAD. ) ;
#304 = DATE_AND_TIME ( #161, #53 ) ;
#305 = CC_DESIGN_APPROVAL ( #135, ( #158 ) ) ;
#306 = DATE_TIME_ROLE ( 'creation_date' ) ;
#307 = PERSON_AND_ORGANIZATION_ROLE ( 'classification_officer' ) ;
#308 = DATE_TIME_ROLE ( 'classification_date' ) ;
#309 = APPLICATION_PROTOCOL_DEFINITION ( 'international standard', 'config_control_design', 1994, #129 ) ;
#310 = PERSON_AND_ORGANIZATION_ROLE ( 'classification_officer' ) ;
#311 = ORGANIZATION ( 'NAUO-ORG56', 'UNSPECIFIED', 'UNSPECIFIED' ) ;
#312 = CARTESIAN_POINT ( 'NONE',  ( 16.55000024411100767, 2.549999511718997525, -2.058321952820000078 ) ) ;
#313 = PRODUCT_RELATED_PRODUCT_CATEGORY ( 'detail', '', ( #252 ) ) ;
#314 = PROPERTY_DEFINITION ('document property','', #14 ) ;
#315 = ROLE_ASSOCIATION ( #21, #193 ) ;
#316 = LOCAL_TIME ( 18, 49, 53.00000000000000000, #188 ) ;
#317 = EXTERNAL_SOURCE (IDENTIFIER('') ) ;
#318 = CALENDAR_DATE ( 2026, 22, 6 ) ;
#319 = CALENDAR_DATE ( 2026, 22, 6 ) ;
#320 = COORDINATED_UNIVERSAL_TIME_OFFSET ( 10, 0, .AHEAD. ) ;
#321 = PERSON_AND_ORGANIZATION ( #18446744073709551615, #18446744073709551615 ) ;
#322 = PERSON_AND_ORGANIZATION ( #18446744073709551615, #18446744073709551615 ) ;
#323 = AXIS2_PLACEMENT_3D ( 'NONE', #257, #373, #49 ) ;
#324 = APPROVAL_PERSON_ORGANIZATION ( #70, #326, #239 ) ;
#325 = PERSON_AND_ORGANIZATION ( #77, #311 ) ;
#326 = APPROVAL ( #283, 'UNKNOWN' ) ;
#327 = SHAPE_DEFINITION_REPRESENTATION ( #192, #215 ) ;
#328 = PERSON_AND_ORGANIZATION_ROLE ( 'design_owner' ) ;
#329 = PERSON_AND_ORGANIZATION_ROLE ( 'design_supplier' ) ;
#330 = CC_DESIGN_PERSON_AND_ORGANIZATION_ASSIGNMENT ( #26, #169, ( #82 ) ) ;
#331 = LOCAL_TIME ( 18, 49, 53.00000000000000000, #38 ) ;
#332 = MECHANICAL_CONTEXT ( 'NONE', #129, 'mechanical' ) ;
#333 = DATE_AND_TIME ( #131, #331 ) ;
#334 = COORDINATED_UNIVERSAL_TIME_OFFSET ( 10, 0, .AHEAD. ) ;
#335 = DATE_AND_TIME ( #133, #132 ) ;
#336 = DESIGN_CONTEXT ( 'detailed design', #224, 'design' ) ;
#337 = APPROVAL_DATE_TIME ( #335, #352 ) ;
#338 = CC_DESIGN_SECURITY_CLASSIFICATION ( #282, ( #388 ) ) ;
#339 = CC_DESIGN_PERSON_AND_ORGANIZATION_ASSIGNMENT ( #61, #36, ( #158 ) ) ;
#340 = COORDINATED_UNIVERSAL_TIME_OFFSET ( 10, 0, .AHEAD. ) ;
#341 = DIRECTION ( 'NONE',  ( 1.000000000000000222, -1.092455418989176591E-28, 4.890937612370273194E-29 ) ) ;
#342 = APPROVAL_DATE_TIME ( #222, #371 ) ;
#343 = APPROVAL_PERSON_ORGANIZATION ( #60, #149, #118 ) ;
#344 = IDENTIFICATION_ROLE ( 'external document id and location', $) ;
#345 =( LENGTH_UNIT ( ) NAMED_UNIT ( * ) SI_UNIT ( .MILLI., .METRE. ) );
#346 = PRODUCT ( '6461082896.step', '6461082896.step', '', ( #251 ) ) ;
#347 = SHAPE_REPRESENTATION ( '6461083056.step', ( #114 ), #130 ) ;
#348 = CC_DESIGN_APPROVAL ( #139, ( #219 ) ) ;
#349 = APPROVAL_ROLE ( '' ) ;
#350 = APPROVAL_ROLE ( '' ) ;
#351 = COORDINATED_UNIVERSAL_TIME_OFFSET ( 10, 0, .AHEAD. ) ;
#352 = APPROVAL ( #103, 'UNKNOWN' ) ;
#353 = PERSON_AND_ORGANIZATION ( #18446744073709551615, #18446744073709551615 ) ;
#354 = PERSON_AND_ORGANIZATION_ROLE ( 'creator' ) ;
#355 = UNCERTAINTY_MEASURE_WITH_UNIT (LENGTH_MEASURE( 1.000000000000000082E-05 ), #262, 'distance_accuracy_value', 'NONE');
#356 = APPROVAL_DATE_TIME ( #87, #27 ) ;
#357 = CARTESIAN_POINT ( 'NONE',  ( 0.000000000000000000, 0.000000000000000000, 0.000000000000000000 ) ) ;
#358 = CALENDAR_DATE ( 2026, 22, 6 ) ;
#359 = APPROVAL_PERSON_ORGANIZATION ( #325, #301, #115 ) ;
#360 = COORDINATED_UNIVERSAL_TIME_OFFSET ( 10, 0, .AHEAD. ) ;
#361 = ROLE_ASSOCIATION ( #43, #159 ) ;
#362 = PROPERTY_DEFINITION ('document property','', #72 ) ;
#363 = APPROVAL_ROLE ( '' ) ;
#364 = CONTEXT_DEPENDENT_SHAPE_REPRESENTATION ( #25, #51 ) ;
#365 =( REPRESENTATION_RELATIONSHIP ('NONE','NONE', #101, #215 ) REPRESENTATION_RELATIONSHIP_WITH_TRANSFORMATION ( #98 )SHAPE_REPRESENTATION_RELATIONSHIP( ) );
#366 = CC_DESIGN_PERSON_AND_ORGANIZATION_ASSIGNMENT ( #325, #59, ( #20 ) ) ;
#367 = PROPERTY_DEFINITION_REPRESENTATION ( #362, #347 ) ;
#368 = CC_DESIGN_APPROVAL ( #163, ( #23 ) ) ;
#369 = LOCAL_TIME ( 18, 49, 53.00000000000000000, #124 ) ;
#370 = CONTEXT_DEPENDENT_SHAPE_REPRESENTATION ( #365, #256 ) ;
#371 = APPROVAL ( #293, 'Coincident' ) ;
#372 = DOCUMENT_TYPE ( 'geometry' ) ;
#373 = DIRECTION ( 'NONE',  ( 4.890937612370273194E-29, -3.155443620884047222E-30, 0.9999999999999997780 ) ) ;
#374 = AXIS2_PLACEMENT_3D ( 'NONE', #290, #68, #177 ) ;
#375 = SECURITY_CLASSIFICATION ( '', '', #74 ) ;
#376 = PRODUCT_DEFINITION_SHAPE ( 'NONE', 'NONE',  #390 ) ;
#377 = CALENDAR_DATE ( 2026, 22, 6 ) ;
#378 = CC_DESIGN_DATE_AND_TIME_ASSIGNMENT ( #30, #148, ( #385 ) ) ;
#379 = PERSON_AND_ORGANIZATION_ROLE ( 'design_owner' ) ;
#380 = APPROVAL_STATUS ( 'not_yet_approved' ) ;
#381 = PERSON_AND_ORGANIZATION ( #18446744073709551615, #18446744073709551615 ) ;
#382 = CC_DESIGN_SECURITY_CLASSIFICATION ( #20, ( #390 ) ) ;
#383 = DATE_AND_TIME ( #318, #212 ) ;
#384 = APPLICATION_PROTOCOL_DEFINITION ( 'international standard', 'config_control_design', 1994, #138 ) ;
#385 = PRODUCT_DEFINITION ( 'General', '', #158, #143 ) ;
#386 = CALENDAR_DATE ( 2026, 22, 6 ) ;
#387 = LOCAL_TIME ( 18, 49, 53.00000000000000000, #31 ) ;
#388 = NEXT_ASSEMBLY_USAGE_OCCURRENCE ( 'NAUO54', ' ', ' ', #23, #385, $ ) ;
#389 = NEXT_ASSEMBLY_USAGE_OCCURRENCE ( 'NAUO55', ' ', ' ', #23, #173, $ ) ;
#390 = NEXT_ASSEMBLY_USAGE_OCCURRENCE ( 'NAUO56', ' ', ' ', #23, #173, $ ) ;
ENDSEC;
END-ISO-10303-21;
