ISO-10303-21;
HEADER;
FILE_DESCRIPTION (( 'STEP AP203' ),
    '1' );
FILE_NAME ('C4.step.STEP',
    '2026-06-22T08:50:00',
    ( 'localuser' ),
    ( '' ),
    'SwSTEP 2.0',
    'SolidWorks 2025',
    '' );
FILE_SCHEMA (( 'CONFIG_CONTROL_DESIGN' ));
ENDSEC;

DATA;
#1 = COORDINATED_UNIVERSAL_TIME_OFFSET ( 10, 0, .AHEAD. ) ;
#2 = CARTESIAN_POINT ( 'NONE',  ( 17.79999642941400140, 7.100002563477005424, -2.058321952819998302 ) ) ;
#3 = CC_DESIGN_DATE_AND_TIME_ASSIGNMENT ( #105, #76, ( #245 ) ) ;
#4 = PERSON_AND_ORGANIZATION_ROLE ( 'creator' ) ;
#5 = CALENDAR_DATE ( 2026, 22, 6 ) ;
#6 = APPROVAL_PERSON_ORGANIZATION ( #51, #234, #321 ) ;
#7 = APPROVAL_ROLE ( '' ) ;
#8 = CC_DESIGN_PERSON_AND_ORGANIZATION_ASSIGNMENT ( #315, #98, ( #104 ) ) ;
#9 = PERSON_AND_ORGANIZATION_ROLE ( 'creator' ) ;
#10 = APPLICATION_PROTOCOL_DEFINITION ( 'international standard', 'config_control_design', 1994, #121 ) ;
#11 = AXIS2_PLACEMENT_3D ( 'NONE', #353, #91, #62 ) ;
#12 = CC_DESIGN_APPROVAL ( #234, ( #383 ) ) ;
#13 = PERSON_AND_ORGANIZATION ( #18446744073709551615, #18446744073709551615 ) ;
#14 = APPROVAL_STATUS ( 'not_yet_approved' ) ;
#15 = COORDINATED_UNIVERSAL_TIME_OFFSET ( 10, 0, .AHEAD. ) ;
#16 = SECURITY_CLASSIFICATION_LEVEL ( 'unclassified' ) ;
#17 = LOCAL_TIME ( 18, 50, 0.000000000000000000, #176 ) ;
#18 =( LENGTH_UNIT ( ) NAMED_UNIT ( * ) SI_UNIT ( .MILLI., .METRE. ) );
#19 = DOCUMENT_TYPE ( 'geometry' ) ;
#20 = CC_DESIGN_PERSON_AND_ORGANIZATION_ASSIGNMENT ( #268, #385, ( #167 ) ) ;
#21 = COORDINATED_UNIVERSAL_TIME_OFFSET ( 10, 0, .AHEAD. ) ;
#22 = DATE_TIME_ROLE ( 'classification_date' ) ;
#23 = PROPERTY_DEFINITION_REPRESENTATION ( #79, #180 ) ;
#24 = PRODUCT_DEFINITION_FORMATION_WITH_SPECIFIED_SOURCE ( 'Symmetric', '', #108, .NOT_KNOWN. ) ;
#25 = APPROVAL_STATUS ( 'not_yet_approved' ) ;
#26 = APPROVAL ( #14, 'UNKNOWN' ) ;
#27 = CC_DESIGN_PERSON_AND_ORGANIZATION_ASSIGNMENT ( #273, #4, ( #111 ) ) ;
#28 = ITEM_DEFINED_TRANSFORMATION ( 'NONE', 'NONE', #205,  #119 ) ;
#29 = DIRECTION ( 'NONE',  ( 1.000000000000000222, -1.092455418989176591E-28, 4.890937612370273194E-29 ) ) ;
#30 = APPLIED_DOCUMENT_REFERENCE ( #350,'',( #192) ) ;
#31 = PERSON_AND_ORGANIZATION ( #18446744073709551615, #18446744073709551615 ) ;
#32 = APPROVAL_PERSON_ORGANIZATION ( #307, #67, #211 ) ;
#33 = APPLIED_EXTERNAL_IDENTIFICATION_ASSIGNMENT ( '6461082896.step.STEP' , #368, #361,( #300) ) ;
#34 = DATE_AND_TIME ( #386, #17 ) ;
#35 = DATE_AND_TIME ( #178, #92 ) ;
#36 = DESIGN_CONTEXT ( 'detailed design', #81, 'design' ) ;
#37 = SECURITY_CLASSIFICATION_LEVEL ( 'unclassified' ) ;
#38 = CC_DESIGN_DATE_AND_TIME_ASSIGNMENT ( #61, #242, ( #202 ) ) ;
#39 = APPLICATION_PROTOCOL_DEFINITION ( 'international standard', 'config_control_design', 1994, #154 ) ;
#40 = UNCERTAINTY_MEASURE_WITH_UNIT (LENGTH_MEASURE( 1.000000000000000082E-05 ), #170, 'distance_accuracy_value', 'NONE');
#41 = SECURITY_CLASSIFICATION ( '', '', #196 ) ;
#42 = COORDINATED_UNIVERSAL_TIME_OFFSET ( 10, 0, .AHEAD. ) ;
#43 = DOCUMENT_TYPE ( 'geometry' ) ;
#44 = DATE_AND_TIME ( #150, #323 ) ;
#45 = CALENDAR_DATE ( 2026, 22, 6 ) ;
#46 =( GEOMETRIC_REPRESENTATION_CONTEXT ( 3 ) GLOBAL_UNCERTAINTY_ASSIGNED_CONTEXT ( ( #354 ) ) GLOBAL_UNIT_ASSIGNED_CONTEXT ( ( #110, #140, #351 ) ) REPRESENTATION_CONTEXT ( 'NONE', 'WORKASPACE' ) );
#47 = CC_DESIGN_SECURITY_CLASSIFICATION ( #183, ( #390 ) ) ;
#48 = CALENDAR_DATE ( 2026, 22, 6 ) ;
#49 = APPROVAL ( #215, 'Coincident' ) ;
#50 = PERSON_AND_ORGANIZATION_ROLE ( 'classification_officer' ) ;
#51 = PERSON_AND_ORGANIZATION ( #221, #232 ) ;
#52 = CC_DESIGN_PERSON_AND_ORGANIZATION_ASSIGNMENT ( #246, #125, ( #184 ) ) ;
#53 = PRODUCT_DEFINITION_SHAPE ( 'NONE', 'NONE',  #184 ) ;
#54 = COORDINATED_UNIVERSAL_TIME_OFFSET ( 10, 0, .AHEAD. ) ;
#55 = APPROVAL_PERSON_ORGANIZATION ( #155, #311, #7 ) ;
#56 = CONTEXT_DEPENDENT_SHAPE_REPRESENTATION ( #264, #195 ) ;
#57 = PERSON_AND_ORGANIZATION_ROLE ( 'design_owner' ) ;
#58 = APPLIED_EXTERNAL_IDENTIFICATION_ASSIGNMENT ( '6461082896.step.STEP' , #210, #99,( #85) ) ;
#59 = DATE_TIME_ROLE ( 'classification_date' ) ;
#60 = DOCUMENT_TYPE ( 'geometry' ) ;
#61 = DATE_AND_TIME ( #209, #251 ) ;
#62 = DIRECTION ( 'NONE',  ( 1.000000000000000222, -1.092455418989176591E-28, 4.890937612370273194E-29 ) ) ;
#63 = AXIS2_PLACEMENT_3D ( 'NONE', #257, #83, #243 ) ;
#64 = CC_DESIGN_APPROVAL ( #311, ( #135 ) ) ;
#65 = PERSON_AND_ORGANIZATION ( #18446744073709551615, #18446744073709551615 ) ;
#66 = DATE_AND_TIME ( #338, #277 ) ;
#67 = APPROVAL ( #270, 'Coincident' ) ;
#68 = OBJECT_ROLE ('mandatory',$ ) ;
#69 = APPROVAL_ROLE ( '' ) ;
#70 = ORGANIZATION ( 'NAUO-ORG284', 'UNSPECIFIED', 'UNSPECIFIED' ) ;
#71 = MECHANICAL_CONTEXT ( 'NONE', #346, 'mechanical' ) ;
#72 = COORDINATED_UNIVERSAL_TIME_OFFSET ( 10, 0, .AHEAD. ) ;
#73 = CC_DESIGN_PERSON_AND_ORGANIZATION_ASSIGNMENT ( #290, #375, ( #245 ) ) ;
#74 = PERSON_AND_ORGANIZATION ( #18446744073709551615, #18446744073709551615 ) ;
#75 = LOCAL_TIME ( 18, 50, 0.000000000000000000, #157 ) ;
#76 = DATE_TIME_ROLE ( 'classification_date' ) ;
#77 = COORDINATED_UNIVERSAL_TIME_OFFSET ( 10, 0, .AHEAD. ) ;
#78 = CC_DESIGN_PERSON_AND_ORGANIZATION_ASSIGNMENT ( #74, #9, ( #135 ) ) ;
#79 = PROPERTY_DEFINITION ('external definition','', #300 ) ;
#80 = PERSON_AND_ORGANIZATION ( #18446744073709551615, #18446744073709551615 ) ;
#81 = APPLICATION_CONTEXT ( 'configuration controlled 3d designs of mechanical parts and assemblies' ) ;
#82 = PERSON_AND_ORGANIZATION ( #384, #225 ) ;
#83 = DIRECTION ( 'NONE',  ( 0.000000000000000000, 0.000000000000000000, 1.000000000000000000 ) ) ;
#84 = CALENDAR_DATE ( 2026, 22, 6 ) ;
#85 = DOCUMENT_FILE ( '6461082896.step.STEP' , '', '', #43, '' ,$ ) ;
#86 = APPROVAL_STATUS ( 'not_yet_approved' ) ;
#87 = APPROVAL_PERSON_ORGANIZATION ( #182, #49, #313 ) ;
#88 = DATE_TIME_ROLE ( 'classification_date' ) ;
#89 = CC_DESIGN_APPROVAL ( #122, ( #183 ) ) ;
#90 = PERSON_AND_ORGANIZATION ( #18446744073709551615, #18446744073709551615 ) ;
#91 = DIRECTION ( 'NONE',  ( 4.890937612370273194E-29, -3.155443620884047222E-30, 0.9999999999999997780 ) ) ;
#92 = LOCAL_TIME ( 18, 50, 0.000000000000000000, #360 ) ;
#93 = CC_DESIGN_APPROVAL ( #279, ( #104 ) ) ;
#94 = DATE_TIME_ROLE ( 'creation_date' ) ;
#95 = CC_DESIGN_PERSON_AND_ORGANIZATION_ASSIGNMENT ( #51, #50, ( #383 ) ) ;
#96 = CC_DESIGN_DATE_AND_TIME_ASSIGNMENT ( #181, #334, ( #104 ) ) ;
#97 = COORDINATED_UNIVERSAL_TIME_OFFSET ( 10, 0, .AHEAD. ) ;
#98 = PERSON_AND_ORGANIZATION_ROLE ( 'classification_officer' ) ;
#99 = EXTERNAL_SOURCE (IDENTIFIER('') ) ;
#100 = APPROVAL_PERSON_ORGANIZATION ( #278, #372, #191 ) ;
#101 = PERSON_AND_ORGANIZATION_ROLE ( 'design_owner' ) ;
#102 = DATE_AND_TIME ( #188, #271 ) ;
#103 = DATE_TIME_ROLE ( 'classification_date' ) ;
#104 = SECURITY_CLASSIFICATION ( '', '', #132 ) ;
#105 = DATE_AND_TIME ( #265, #358 ) ;
#106 = CC_DESIGN_PERSON_AND_ORGANIZATION_ASSIGNMENT ( #82, #325, ( #41 ) ) ;
#107 = ROLE_ASSOCIATION ( #175, #379 ) ;
#108 = PRODUCT ( '6461082896.step', '6461082896.step', '', ( #71 ) ) ;
#109 = DATE_AND_TIME ( #139, #317 ) ;
#110 =( LENGTH_UNIT ( ) NAMED_UNIT ( * ) SI_UNIT ( .MILLI., .METRE. ) );
#111 = PRODUCT_DEFINITION_FORMATION_WITH_SPECIFIED_SOURCE ( 'Symmetric', '', #229, .NOT_KNOWN. ) ;
#112 = DATE_AND_TIME ( #84, #169 ) ;
#113 = LOCAL_TIME ( 18, 50, 0.000000000000000000, #54 ) ;
#114 = PROPERTY_DEFINITION_REPRESENTATION ( #259, #142 ) ;
#115 = COORDINATED_UNIVERSAL_TIME_OFFSET ( 10, 0, .AHEAD. ) ;
#116 = DATE_AND_TIME ( #236, #239 ) ;
#117 = CALENDAR_DATE ( 2026, 22, 6 ) ;
#118 = APPROVAL ( #219, 'Coincident' ) ;
#119 = AXIS2_PLACEMENT_3D ( 'NONE', #294, #288, #382 ) ;
#120 = DATE_AND_TIME ( #237, #284 ) ;
#121 = APPLICATION_CONTEXT ( 'configuration controlled 3d designs of mechanical parts and assemblies' ) ;
#122 = APPROVAL ( #86, 'UNKNOWN' ) ;
#123 = PERSON_AND_ORGANIZATION_ROLE ( 'creator' ) ;
#124 = DESIGN_CONTEXT ( 'detailed design', #282, 'design' ) ;
#125 = PERSON_AND_ORGANIZATION_ROLE ( 'creator' ) ;
#126 = CC_DESIGN_APPROVAL ( #67, ( #202 ) ) ;
#127 = CC_DESIGN_APPROVAL ( #26, ( #41 ) ) ;
#128 = MECHANICAL_CONTEXT ( 'NONE', #154, 'mechanical' ) ;
#129 = SHAPE_DEFINITION_REPRESENTATION ( #256, #223 ) ;
#130 = APPLICATION_PROTOCOL_DEFINITION ( 'international standard', 'config_control_design', 1994, #282 ) ;
#131 = LOCAL_TIME ( 18, 50, 0.000000000000000000, #97 ) ;
#132 = SECURITY_CLASSIFICATION_LEVEL ( 'unclassified' ) ;
#133 = PERSON_AND_ORGANIZATION ( #18446744073709551615, #18446744073709551615 ) ;
#134 = APPROVAL_STATUS ( 'not_yet_approved' ) ;
#135 = PRODUCT_DEFINITION_FORMATION_WITH_SPECIFIED_SOURCE ( 'Symmetric', '', #160, .NOT_KNOWN. ) ;
#136 = SHAPE_DEFINITION_REPRESENTATION ( #53, #180 ) ;
#137 = PROPERTY_DEFINITION ('document property','', #300 ) ;
#138 = PERSON_AND_ORGANIZATION_ROLE ( 'creator' ) ;
#139 = CALENDAR_DATE ( 2026, 22, 6 ) ;
#140 =( NAMED_UNIT ( * ) PLANE_ANGLE_UNIT ( ) SI_UNIT ( $, .RADIAN. ) );
#141 = LOCAL_TIME ( 18, 50, 0.000000000000000000, #252 ) ;
#142 = SHAPE_REPRESENTATION ( '6461083056.step', ( #369 ), #46 ) ;
#143 = APPROVAL_ROLE ( '' ) ;
#144 = APPROVAL_ROLE ( '' ) ;
#145 =( GEOMETRIC_REPRESENTATION_CONTEXT ( 3 ) GLOBAL_UNCERTAINTY_ASSIGNED_CONTEXT ( ( #362 ) ) GLOBAL_UNIT_ASSIGNED_CONTEXT ( ( #18, #295, #163 ) ) REPRESENTATION_CONTEXT ( 'NONE', 'WORKASPACE' ) );
#146 = COORDINATED_UNIVERSAL_TIME_OFFSET ( 10, 0, .AHEAD. ) ;
#147 = APPROVAL_PERSON_ORGANIZATION ( #249, #279, #149 ) ;
#148 = APPROVAL_STATUS ( 'not_yet_approved' ) ;
#149 = APPROVAL_ROLE ( '' ) ;
#150 = CALENDAR_DATE ( 2026, 22, 6 ) ;
#151 = APPROVAL_PERSON_ORGANIZATION ( #80, #253, #260 ) ;
#152 = DATE_TIME_ROLE ( 'creation_date' ) ;
#153 = PERSON_AND_ORGANIZATION ( #18446744073709551615, #18446744073709551615 ) ;
#154 = APPLICATION_CONTEXT ( 'configuration controlled 3d designs of mechanical parts and assemblies' ) ;
#155 = PERSON_AND_ORGANIZATION ( #18446744073709551615, #18446744073709551615 ) ;
#156 = APPLIED_EXTERNAL_IDENTIFICATION_ASSIGNMENT ( '6461083056.step.STEP' , #324, #218,( #350) ) ;
#157 = COORDINATED_UNIVERSAL_TIME_OFFSET ( 10, 0, .AHEAD. ) ;
#158 = SECURITY_CLASSIFICATION_LEVEL ( 'unclassified' ) ;
#159 = APPROVAL ( #25, 'Coincident' ) ;
#160 = PRODUCT ( '6461083056.step', '6461083056.step', '', ( #128 ) ) ;
#161 = LOCAL_TIME ( 18, 50, 0.000000000000000000, #115 ) ;
#162 = DATE_AND_TIME ( #262, #113 ) ;
#163 =( NAMED_UNIT ( * ) SI_UNIT ( $, .STERADIAN. ) SOLID_ANGLE_UNIT ( ) );
#164 = ITEM_DEFINED_TRANSFORMATION ( 'NONE', 'NONE', #11,  #369 ) ;
#165 = CC_DESIGN_PERSON_AND_ORGANIZATION_ASSIGNMENT ( #297, #204, ( #183 ) ) ;
#166 = APPLICATION_PROTOCOL_DEFINITION ( 'international standard', 'config_control_design', 1994, #241 ) ;
#167 = SECURITY_CLASSIFICATION ( '', '', #37 ) ;
#168 = SECURITY_CLASSIFICATION_LEVEL ( 'unclassified' ) ;
#169 = LOCAL_TIME ( 18, 50, 0.000000000000000000, #255 ) ;
#170 =( LENGTH_UNIT ( ) NAMED_UNIT ( * ) SI_UNIT ( .MILLI., .METRE. ) );
#171 = APPROVAL_DATE_TIME ( #120, #67 ) ;
#172 = CC_DESIGN_PERSON_AND_ORGANIZATION_ASSIGNMENT ( #286, #339, ( #24 ) ) ;
#173 = CONTEXT_DEPENDENT_SHAPE_REPRESENTATION ( #337, #226 ) ;
#174 = DIRECTION ( 'NONE',  ( 4.890937612370273194E-29, -3.155443620884047222E-30, 0.9999999999999997780 ) ) ;
#175 = OBJECT_ROLE ('mandatory',$ ) ;
#176 = COORDINATED_UNIVERSAL_TIME_OFFSET ( 10, 0, .AHEAD. ) ;
#177 = CC_DESIGN_SECURITY_CLASSIFICATION ( #245, ( #24 ) ) ;
#178 = CALENDAR_DATE ( 2026, 22, 6 ) ;
#179 = PERSON_AND_ORGANIZATION_ROLE ( 'design_supplier' ) ;
#180 = SHAPE_REPRESENTATION ( '6461082896.step', ( #119 ), #145 ) ;
#181 = DATE_AND_TIME ( #5, #131 ) ;
#182 = PERSON_AND_ORGANIZATION ( #18446744073709551615, #18446744073709551615 ) ;
#183 = SECURITY_CLASSIFICATION ( '', '', #168 ) ;
#184 = PRODUCT_DEFINITION ( 'General', '', #24, #124 ) ;
#185 = PERSON_AND_ORGANIZATION ( #18446744073709551615, #18446744073709551615 ) ;
#186 = CC_DESIGN_DATE_AND_TIME_ASSIGNMENT ( #162, #22, ( #41 ) ) ;
#187 = CC_DESIGN_DATE_AND_TIME_ASSIGNMENT ( #102, #94, ( #184 ) ) ;
#188 = CALENDAR_DATE ( 2026, 22, 6 ) ;
#189 = APPROVAL_DATE_TIME ( #364, #49 ) ;
#190 = CC_DESIGN_APPROVAL ( #118, ( #184 ) ) ;
#191 = APPROVAL_ROLE ( '' ) ;
#192 = PRODUCT_DEFINITION ( 'General', '', #135, #299 ) ;
#193 = PRODUCT_DEFINITION_SHAPE ( 'NONE', 'NONE',  #192 ) ;
#194 = CALENDAR_DATE ( 2026, 22, 6 ) ;
#195 = PRODUCT_DEFINITION_SHAPE ( 'NONE', 'NONE',  #389 ) ;
#196 = SECURITY_CLASSIFICATION_LEVEL ( 'unclassified' ) ;
#197 = APPROVAL_PERSON_ORGANIZATION ( #316, #118, #69 ) ;
#198 = OBJECT_ROLE ('mandatory',$ ) ;
#199 = APPROVAL_PERSON_ORGANIZATION ( #297, #122, #144 ) ;
#200 = CONTEXT_DEPENDENT_SHAPE_REPRESENTATION ( #303, #345 ) ;
#201 = PROPERTY_DEFINITION_REPRESENTATION ( #365, #180 ) ;
#202 = PRODUCT_DEFINITION ( 'General', '', #111, #36 ) ;
#203 = APPLICATION_PROTOCOL_DEFINITION ( 'international standard', 'config_control_design', 1994, #81 ) ;
#204 = PERSON_AND_ORGANIZATION_ROLE ( 'classification_officer' ) ;
#205 = AXIS2_PLACEMENT_3D ( 'NONE', #2, #174, #272 ) ;
#206 = PRODUCT_RELATED_PRODUCT_CATEGORY ( 'detail', '', ( #160 ) ) ;
#207 = COORDINATED_UNIVERSAL_TIME_OFFSET ( 10, 0, .AHEAD. ) ;
#208 = APPROVAL_DATE_TIME ( #116, #122 ) ;
#209 = CALENDAR_DATE ( 2026, 22, 6 ) ;
#210 = IDENTIFICATION_ROLE ( 'external document id and location', $) ;
#211 = APPROVAL_ROLE ( '' ) ;
#212 = PERSON_AND_ORGANIZATION_ROLE ( 'design_owner' ) ;
#213 = SHAPE_DEFINITION_REPRESENTATION ( #193, #142 ) ;
#214 = PRODUCT_RELATED_PRODUCT_CATEGORY ( 'detail', '', ( #229 ) ) ;
#215 = APPROVAL_STATUS ( 'not_yet_approved' ) ;
#216 =( GEOMETRIC_REPRESENTATION_CONTEXT ( 3 ) GLOBAL_UNCERTAINTY_ASSIGNED_CONTEXT ( ( #40 ) ) GLOBAL_UNIT_ASSIGNED_CONTEXT ( ( #170, #329, #302 ) ) REPRESENTATION_CONTEXT ( 'NONE', 'WORKASPACE' ) );
#217 = CC_DESIGN_APPROVAL ( #159, ( #167 ) ) ;
#218 = EXTERNAL_SOURCE (IDENTIFIER('') ) ;
#219 = APPROVAL_STATUS ( 'not_yet_approved' ) ;
#220 = PERSON_AND_ORGANIZATION_ROLE ( 'creator' ) ;
#221 = PERSON ( 'NAUO-PER282', 'UNSPECIFIED', 'UNSPECIFIED', ('UNSPECIFIED'), ('UNSPECIFIED'), ('UNSPECIFIED') ) ;
#222 = COORDINATED_UNIVERSAL_TIME_OFFSET ( 10, 0, .AHEAD. ) ;
#223 = SHAPE_REPRESENTATION ( 'C4.step', ( #63, #224, #11, #205 ), #216 ) ;
#224 = AXIS2_PLACEMENT_3D ( 'NONE', #228, #301, #29 ) ;
#225 = ORGANIZATION ( 'NAUO-ORG283', 'UNSPECIFIED', 'UNSPECIFIED' ) ;
#226 = PRODUCT_DEFINITION_SHAPE ( 'NONE', 'NONE',  #390 ) ;
#227 = DATE_AND_TIME ( #381, #75 ) ;
#228 = CARTESIAN_POINT ( 'NONE',  ( 16.80000024411100057, 7.100002563477001871, -2.058321952820000078 ) ) ;
#229 = PRODUCT ( 'C4.step', 'C4.step', '', ( #342 ) ) ;
#230 = PROPERTY_DEFINITION_REPRESENTATION ( #248, #180 ) ;
#231 = DATE_AND_TIME ( #48, #330 ) ;
#232 = ORGANIZATION ( 'NAUO-ORG282', 'UNSPECIFIED', 'UNSPECIFIED' ) ;
#233 = PROPERTY_DEFINITION_REPRESENTATION ( #287, #142 ) ;
#234 = APPROVAL ( #134, 'UNKNOWN' ) ;
#235 = CC_DESIGN_PERSON_AND_ORGANIZATION_ASSIGNMENT ( #13, #366, ( #135 ) ) ;
#236 = CALENDAR_DATE ( 2026, 22, 6 ) ;
#237 = CALENDAR_DATE ( 2026, 22, 6 ) ;
#238 = APPLIED_DOCUMENT_REFERENCE ( #300,'',( #184) ) ;
#239 = LOCAL_TIME ( 18, 50, 0.000000000000000000, #1 ) ;
#240 = COORDINATED_UNIVERSAL_TIME_OFFSET ( 10, 0, .AHEAD. ) ;
#241 = APPLICATION_CONTEXT ( 'configuration controlled 3d designs of mechanical parts and assemblies' ) ;
#242 = DATE_TIME_ROLE ( 'creation_date' ) ;
#243 = DIRECTION ( 'NONE',  ( 1.000000000000000000, 0.000000000000000000, 0.000000000000000000 ) ) ;
#244 = CC_DESIGN_DATE_AND_TIME_ASSIGNMENT ( #34, #59, ( #183 ) ) ;
#245 = SECURITY_CLASSIFICATION ( '', '', #16 ) ;
#246 = PERSON_AND_ORGANIZATION ( #18446744073709551615, #18446744073709551615 ) ;
#247 = APPROVAL_DATE_TIME ( #283, #311 ) ;
#248 = PROPERTY_DEFINITION ('external definition','', #85 ) ;
#249 = PERSON_AND_ORGANIZATION ( #18446744073709551615, #18446744073709551615 ) ;
#250 = PERSON_AND_ORGANIZATION ( #18446744073709551615, #18446744073709551615 ) ;
#251 = LOCAL_TIME ( 18, 50, 0.000000000000000000, #146 ) ;
#252 = COORDINATED_UNIVERSAL_TIME_OFFSET ( 10, 0, .AHEAD. ) ;
#253 = APPROVAL ( #374, 'Coincident' ) ;
#254 = CC_DESIGN_PERSON_AND_ORGANIZATION_ASSIGNMENT ( #153, #212, ( #160 ) ) ;
#255 = COORDINATED_UNIVERSAL_TIME_OFFSET ( 10, 0, .AHEAD. ) ;
#256 = PRODUCT_DEFINITION_SHAPE ( 'NONE', 'NONE',  #202 ) ;
#257 = CARTESIAN_POINT ( 'NONE',  ( 0.000000000000000000, 0.000000000000000000, 0.000000000000000000 ) ) ;
#258 = APPROVAL_PERSON_ORGANIZATION ( #82, #26, #293 ) ;
#259 = PROPERTY_DEFINITION ('document property','', #350 ) ;
#260 = APPROVAL_ROLE ( '' ) ;
#261 = CC_DESIGN_DATE_AND_TIME_ASSIGNMENT ( #109, #103, ( #383 ) ) ;
#262 = CALENDAR_DATE ( 2026, 22, 6 ) ;
#263 = DIRECTION ( 'NONE',  ( 0.000000000000000000, 0.000000000000000000, 1.000000000000000000 ) ) ;
#264 =( REPRESENTATION_RELATIONSHIP ('NONE','NONE', #223, #142 ) REPRESENTATION_RELATIONSHIP_WITH_TRANSFORMATION ( #164 )SHAPE_REPRESENTATION_RELATIONSHIP( ) );
#265 = CALENDAR_DATE ( 2026, 22, 6 ) ;
#266 = APPROVAL_PERSON_ORGANIZATION ( #31, #352, #308 ) ;
#267 = CC_DESIGN_APPROVAL ( #49, ( #192 ) ) ;
#268 = PERSON_AND_ORGANIZATION ( #18446744073709551615, #18446744073709551615 ) ;
#269 = CALENDAR_DATE ( 2026, 22, 6 ) ;
#270 = APPROVAL_STATUS ( 'not_yet_approved' ) ;
#271 = LOCAL_TIME ( 18, 50, 0.000000000000000000, #72 ) ;
#272 = DIRECTION ( 'NONE',  ( 1.000000000000000222, -1.092455418989176591E-28, 4.890937612370273194E-29 ) ) ;
#273 = PERSON_AND_ORGANIZATION ( #18446744073709551615, #18446744073709551615 ) ;
#274 = APPLICATION_PROTOCOL_DEFINITION ( 'international standard', 'config_control_design', 1994, #346 ) ;
#275 = CC_DESIGN_PERSON_AND_ORGANIZATION_ASSIGNMENT ( #320, #57, ( #229 ) ) ;
#276 = DATE_AND_TIME ( #269, #341 ) ;
#277 = LOCAL_TIME ( 18, 50, 0.000000000000000000, #42 ) ;
#278 = PERSON_AND_ORGANIZATION ( #18446744073709551615, #18446744073709551615 ) ;
#279 = APPROVAL ( #367, 'Coincident' ) ;
#280 = CALENDAR_DATE ( 2026, 22, 6 ) ;
#281 = COORDINATED_UNIVERSAL_TIME_OFFSET ( 10, 0, .AHEAD. ) ;
#282 = APPLICATION_CONTEXT ( 'configuration controlled 3d designs of mechanical parts and assemblies' ) ;
#283 = DATE_AND_TIME ( #280, #312 ) ;
#284 = LOCAL_TIME ( 18, 50, 0.000000000000000000, #240 ) ;
#285 = CC_DESIGN_SECURITY_CLASSIFICATION ( #41, ( #389 ) ) ;
#286 = PERSON_AND_ORGANIZATION ( #18446744073709551615, #18446744073709551615 ) ;
#287 = PROPERTY_DEFINITION ('external definition','', #350 ) ;
#288 = DIRECTION ( 'NONE',  ( 0.000000000000000000, 0.000000000000000000, 1.000000000000000000 ) ) ;
#289 = CC_DESIGN_DATE_AND_TIME_ASSIGNMENT ( #298, #88, ( #167 ) ) ;
#290 = PERSON_AND_ORGANIZATION ( #18446744073709551615, #18446744073709551615 ) ;
#291 = APPROVAL_STATUS ( 'not_yet_approved' ) ;
#292 = CARTESIAN_POINT ( 'NONE',  ( 0.000000000000000000, 0.000000000000000000, 0.000000000000000000 ) ) ;
#293 = APPROVAL_ROLE ( '' ) ;
#294 = CARTESIAN_POINT ( 'NONE',  ( 0.000000000000000000, 0.000000000000000000, 0.000000000000000000 ) ) ;
#295 =( NAMED_UNIT ( * ) PLANE_ANGLE_UNIT ( ) SI_UNIT ( $, .RADIAN. ) );
#296 = LOCAL_TIME ( 18, 50, 0.000000000000000000, #15 ) ;
#297 = PERSON_AND_ORGANIZATION ( #378, #70 ) ;
#298 = DATE_AND_TIME ( #117, #161 ) ;
#299 = DESIGN_CONTEXT ( 'detailed design', #121, 'design' ) ;
#300 = DOCUMENT_FILE ( '6461082896.step.STEP' , '', '', #60, '' ,$ ) ;
#301 = DIRECTION ( 'NONE',  ( 4.890937612370273194E-29, -3.155443620884047222E-30, 0.9999999999999997780 ) ) ;
#302 =( NAMED_UNIT ( * ) SI_UNIT ( $, .STERADIAN. ) SOLID_ANGLE_UNIT ( ) );
#303 =( REPRESENTATION_RELATIONSHIP ('NONE','NONE', #223, #180 ) REPRESENTATION_RELATIONSHIP_WITH_TRANSFORMATION ( #318 )SHAPE_REPRESENTATION_RELATIONSHIP( ) );
#304 = CC_DESIGN_SECURITY_CLASSIFICATION ( #167, ( #111 ) ) ;
#305 = CC_DESIGN_PERSON_AND_ORGANIZATION_ASSIGNMENT ( #133, #138, ( #24 ) ) ;
#306 = PROPERTY_DEFINITION_REPRESENTATION ( #137, #180 ) ;
#307 = PERSON_AND_ORGANIZATION ( #18446744073709551615, #18446744073709551615 ) ;
#308 = APPROVAL_ROLE ( '' ) ;
#309 = PRODUCT_RELATED_PRODUCT_CATEGORY ( 'detail', '', ( #108 ) ) ;
#310 = CALENDAR_DATE ( 2026, 22, 6 ) ;
#311 = APPROVAL ( #336, 'Coincident' ) ;
#312 = LOCAL_TIME ( 18, 50, 0.000000000000000000, #281 ) ;
#313 = APPROVAL_ROLE ( '' ) ;
#314 = COORDINATED_UNIVERSAL_TIME_OFFSET ( 10, 0, .AHEAD. ) ;
#315 = PERSON_AND_ORGANIZATION ( #18446744073709551615, #18446744073709551615 ) ;
#316 = PERSON_AND_ORGANIZATION ( #18446744073709551615, #18446744073709551615 ) ;
#317 = LOCAL_TIME ( 18, 50, 0.000000000000000000, #77 ) ;
#318 = ITEM_DEFINED_TRANSFORMATION ( 'NONE', 'NONE', #224,  #119 ) ;
#319 = CC_DESIGN_PERSON_AND_ORGANIZATION_ASSIGNMENT ( #90, #123, ( #202 ) ) ;
#320 = PERSON_AND_ORGANIZATION ( #18446744073709551615, #18446744073709551615 ) ;
#321 = APPROVAL_ROLE ( '' ) ;
#322 = DATE_AND_TIME ( #194, #296 ) ;
#323 = LOCAL_TIME ( 18, 50, 0.000000000000000000, #314 ) ;
#324 = IDENTIFICATION_ROLE ( 'external document id and location', $) ;
#325 = PERSON_AND_ORGANIZATION_ROLE ( 'classification_officer' ) ;
#326 = PERSON_AND_ORGANIZATION ( #18446744073709551615, #18446744073709551615 ) ;
#327 = CC_DESIGN_SECURITY_CLASSIFICATION ( #383, ( #388 ) ) ;
#328 = CC_DESIGN_PERSON_AND_ORGANIZATION_ASSIGNMENT ( #185, #101, ( #108 ) ) ;
#329 =( NAMED_UNIT ( * ) PLANE_ANGLE_UNIT ( ) SI_UNIT ( $, .RADIAN. ) );
#330 = LOCAL_TIME ( 18, 50, 0.000000000000000000, #21 ) ;
#331 = APPROVAL_DATE_TIME ( #35, #352 ) ;
#332 = COORDINATED_UNIVERSAL_TIME_OFFSET ( 10, 0, .AHEAD. ) ;
#333 = APPROVAL_DATE_TIME ( #44, #118 ) ;
#334 = DATE_TIME_ROLE ( 'classification_date' ) ;
#335 = CC_DESIGN_DATE_AND_TIME_ASSIGNMENT ( #66, #152, ( #192 ) ) ;
#336 = APPROVAL_STATUS ( 'not_yet_approved' ) ;
#337 =( REPRESENTATION_RELATIONSHIP ('NONE','NONE', #223, #180 ) REPRESENTATION_RELATIONSHIP_WITH_TRANSFORMATION ( #28 )SHAPE_REPRESENTATION_RELATIONSHIP( ) );
#338 = CALENDAR_DATE ( 2026, 22, 6 ) ;
#339 = PERSON_AND_ORGANIZATION_ROLE ( 'design_supplier' ) ;
#340 = CC_DESIGN_APPROVAL ( #352, ( #111 ) ) ;
#341 = LOCAL_TIME ( 18, 50, 0.000000000000000000, #207 ) ;
#342 = MECHANICAL_CONTEXT ( 'NONE', #241, 'mechanical' ) ;
#343 = APPROVAL_DATE_TIME ( #227, #253 ) ;
#344 = CC_DESIGN_PERSON_AND_ORGANIZATION_ASSIGNMENT ( #250, #220, ( #192 ) ) ;
#345 = PRODUCT_DEFINITION_SHAPE ( 'NONE', 'NONE',  #388 ) ;
#346 = APPLICATION_CONTEXT ( 'configuration controlled 3d designs of mechanical parts and assemblies' ) ;
#347 = APPROVAL_DATE_TIME ( #112, #372 ) ;
#348 = APPROVAL_DATE_TIME ( #231, #26 ) ;
#349 = CC_DESIGN_SECURITY_CLASSIFICATION ( #104, ( #135 ) ) ;
#350 = DOCUMENT_FILE ( '6461083056.step.STEP' , '', '', #19, '' ,$ ) ;
#351 =( NAMED_UNIT ( * ) SI_UNIT ( $, .STERADIAN. ) SOLID_ANGLE_UNIT ( ) );
#352 = APPROVAL ( #148, 'Coincident' ) ;
#353 = CARTESIAN_POINT ( 'NONE',  ( 17.30000024411100057, 7.100002563477001871, -2.058321952820000078 ) ) ;
#354 = UNCERTAINTY_MEASURE_WITH_UNIT (LENGTH_MEASURE( 1.000000000000000082E-05 ), #110, 'distance_accuracy_value', 'NONE');
#355 = ROLE_ASSOCIATION ( #198, #30 ) ;
#356 = CC_DESIGN_PERSON_AND_ORGANIZATION_ASSIGNMENT ( #65, #179, ( #111 ) ) ;
#357 = APPROVAL_DATE_TIME ( #276, #159 ) ;
#358 = LOCAL_TIME ( 18, 50, 0.000000000000000000, #222 ) ;
#359 = ROLE_ASSOCIATION ( #68, #238 ) ;
#360 = COORDINATED_UNIVERSAL_TIME_OFFSET ( 10, 0, .AHEAD. ) ;
#361 = EXTERNAL_SOURCE (IDENTIFIER('') ) ;
#362 = UNCERTAINTY_MEASURE_WITH_UNIT (LENGTH_MEASURE( 1.000000000000000082E-05 ), #18, 'distance_accuracy_value', 'NONE');
#363 = LOCAL_TIME ( 18, 50, 0.000000000000000000, #332 ) ;
#364 = DATE_AND_TIME ( #45, #363 ) ;
#365 = PROPERTY_DEFINITION ('document property','', #85 ) ;
#366 = PERSON_AND_ORGANIZATION_ROLE ( 'design_supplier' ) ;
#367 = APPROVAL_STATUS ( 'not_yet_approved' ) ;
#368 = IDENTIFICATION_ROLE ( 'external document id and location', $) ;
#369 = AXIS2_PLACEMENT_3D ( 'NONE', #292, #263, #380 ) ;
#370 = CC_DESIGN_APPROVAL ( #372, ( #24 ) ) ;
#371 = DATE_AND_TIME ( #310, #141 ) ;
#372 = APPROVAL ( #291, 'Coincident' ) ;
#373 = APPROVAL_DATE_TIME ( #371, #279 ) ;
#374 = APPROVAL_STATUS ( 'not_yet_approved' ) ;
#375 = PERSON_AND_ORGANIZATION_ROLE ( 'classification_officer' ) ;
#376 = CC_DESIGN_APPROVAL ( #253, ( #245 ) ) ;
#377 = APPROVAL_DATE_TIME ( #322, #234 ) ;
#378 = PERSON ( 'NAUO-PER284', 'UNSPECIFIED', 'UNSPECIFIED', ('UNSPECIFIED'), ('UNSPECIFIED'), ('UNSPECIFIED') ) ;
#379 = APPLIED_DOCUMENT_REFERENCE ( #85,'',( #184) ) ;
#380 = DIRECTION ( 'NONE',  ( 1.000000000000000000, 0.000000000000000000, 0.000000000000000000 ) ) ;
#381 = CALENDAR_DATE ( 2026, 22, 6 ) ;
#382 = DIRECTION ( 'NONE',  ( 1.000000000000000000, 0.000000000000000000, 0.000000000000000000 ) ) ;
#383 = SECURITY_CLASSIFICATION ( '', '', #158 ) ;
#384 = PERSON ( 'NAUO-PER283', 'UNSPECIFIED', 'UNSPECIFIED', ('UNSPECIFIED'), ('UNSPECIFIED'), ('UNSPECIFIED') ) ;
#385 = PERSON_AND_ORGANIZATION_ROLE ( 'classification_officer' ) ;
#386 = CALENDAR_DATE ( 2026, 22, 6 ) ;
#387 = APPROVAL_PERSON_ORGANIZATION ( #326, #159, #143 ) ;
#388 = NEXT_ASSEMBLY_USAGE_OCCURRENCE ( 'NAUO282', ' ', ' ', #202, #184, $ ) ;
#389 = NEXT_ASSEMBLY_USAGE_OCCURRENCE ( 'NAUO283', ' ', ' ', #202, #192, $ ) ;
#390 = NEXT_ASSEMBLY_USAGE_OCCURRENCE ( 'NAUO284', ' ', ' ', #202, #184, $ ) ;
ENDSEC;
END-ISO-10303-21;
