ISO-10303-21;
HEADER;
FILE_DESCRIPTION (( 'STEP AP203' ),
    '1' );
FILE_NAME ('C5.step.STEP',
    '2026-06-22T08:50:00',
    ( 'localuser' ),
    ( '' ),
    'SwSTEP 2.0',
    'SolidWorks 2025',
    '' );
FILE_SCHEMA (( 'CONFIG_CONTROL_DESIGN' ));
ENDSEC;

DATA;
#1 = PERSON_AND_ORGANIZATION ( #18446744073709551615, #18446744073709551615 ) ;
#2 = DIRECTION ( 'NONE',  ( 4.890937612370273194E-29, -3.155443620884047222E-30, 0.9999999999999997780 ) ) ;
#3 = APPROVAL_ROLE ( '' ) ;
#4 = LOCAL_TIME ( 18, 50, 0.000000000000000000, #188 ) ;
#5 = APPLICATION_PROTOCOL_DEFINITION ( 'international standard', 'config_control_design', 1994, #75 ) ;
#6 = CC_DESIGN_PERSON_AND_ORGANIZATION_ASSIGNMENT ( #135, #347, ( #240 ) ) ;
#7 = DATE_AND_TIME ( #280, #81 ) ;
#8 = APPROVAL_STATUS ( 'not_yet_approved' ) ;
#9 = APPROVAL_PERSON_ORGANIZATION ( #148, #130, #246 ) ;
#10 = APPROVAL_PERSON_ORGANIZATION ( #254, #176, #43 ) ;
#11 = DATE_AND_TIME ( #241, #194 ) ;
#12 = APPROVAL_STATUS ( 'not_yet_approved' ) ;
#13 = PRODUCT_DEFINITION_SHAPE ( 'NONE', 'NONE',  #390 ) ;
#14 = SHAPE_DEFINITION_REPRESENTATION ( #157, #251 ) ;
#15 = PROPERTY_DEFINITION_REPRESENTATION ( #244, #251 ) ;
#16 = APPROVAL_PERSON_ORGANIZATION ( #109, #203, #299 ) ;
#17 = DIRECTION ( 'NONE',  ( 0.000000000000000000, 0.000000000000000000, 1.000000000000000000 ) ) ;
#18 = EXTERNAL_SOURCE (IDENTIFIER('') ) ;
#19 = APPROVAL ( #122, 'Coincident' ) ;
#20 = COORDINATED_UNIVERSAL_TIME_OFFSET ( 10, 0, .AHEAD. ) ;
#21 =( NAMED_UNIT ( * ) PLANE_ANGLE_UNIT ( ) SI_UNIT ( $, .RADIAN. ) );
#22 = PERSON_AND_ORGANIZATION_ROLE ( 'creator' ) ;
#23 = CONTEXT_DEPENDENT_SHAPE_REPRESENTATION ( #93, #13 ) ;
#24 = APPROVAL_PERSON_ORGANIZATION ( #91, #199, #3 ) ;
#25 = APPROVAL_STATUS ( 'not_yet_approved' ) ;
#26 = CC_DESIGN_PERSON_AND_ORGANIZATION_ASSIGNMENT ( #238, #363, ( #200 ) ) ;
#27 = CC_DESIGN_DATE_AND_TIME_ASSIGNMENT ( #50, #190, ( #387 ) ) ;
#28 = APPROVAL_ROLE ( '' ) ;
#29 = PERSON_AND_ORGANIZATION ( #18446744073709551615, #18446744073709551615 ) ;
#30 = AXIS2_PLACEMENT_3D ( 'NONE', #105, #17, #118 ) ;
#31 = CC_DESIGN_APPROVAL ( #252, ( #53 ) ) ;
#32 = CARTESIAN_POINT ( 'NONE',  ( 8.749997192354003417, 9.249996459961003836, -2.058321952820000078 ) ) ;
#33 = CC_DESIGN_PERSON_AND_ORGANIZATION_ASSIGNMENT ( #216, #174, ( #187 ) ) ;
#34 = CC_DESIGN_PERSON_AND_ORGANIZATION_ASSIGNMENT ( #180, #123, ( #53 ) ) ;
#35 = SHAPE_DEFINITION_REPRESENTATION ( #103, #322 ) ;
#36 = ORGANIZATION ( 'NAUO-ORG287', 'UNSPECIFIED', 'UNSPECIFIED' ) ;
#37 = PERSON_AND_ORGANIZATION_ROLE ( 'creator' ) ;
#38 = EXTERNAL_SOURCE (IDENTIFIER('') ) ;
#39 = APPROVAL_ROLE ( '' ) ;
#40 = CALENDAR_DATE ( 2026, 22, 6 ) ;
#41 =( GEOMETRIC_REPRESENTATION_CONTEXT ( 3 ) GLOBAL_UNCERTAINTY_ASSIGNED_CONTEXT ( ( #295 ) ) GLOBAL_UNIT_ASSIGNED_CONTEXT ( ( #134, #21, #186 ) ) REPRESENTATION_CONTEXT ( 'NONE', 'WORKASPACE' ) );
#42 = CC_DESIGN_SECURITY_CLASSIFICATION ( #387, ( #388 ) ) ;
#43 = APPROVAL_ROLE ( '' ) ;
#44 = PRODUCT_DEFINITION ( 'General', '', #240, #119 ) ;
#45 = APPROVAL_DATE_TIME ( #318, #176 ) ;
#46 = APPLIED_DOCUMENT_REFERENCE ( #300,'',( #44) ) ;
#47 = CC_DESIGN_DATE_AND_TIME_ASSIGNMENT ( #141, #362, ( #165 ) ) ;
#48 = PRODUCT_DEFINITION_SHAPE ( 'NONE', 'NONE',  #388 ) ;
#49 = APPROVAL_PERSON_ORGANIZATION ( #92, #252, #333 ) ;
#50 = DATE_AND_TIME ( #351, #285 ) ;
#51 = APPROVAL_STATUS ( 'not_yet_approved' ) ;
#52 = DIRECTION ( 'NONE',  ( 4.890937612370273194E-29, -3.155443620884047222E-30, 0.9999999999999997780 ) ) ;
#53 = SECURITY_CLASSIFICATION ( '', '', #62 ) ;
#54 = CARTESIAN_POINT ( 'NONE',  ( 7.750001007051001700, 9.249996459961003836, -2.058321952820000078 ) ) ;
#55 = DOCUMENT_TYPE ( 'geometry' ) ;
#56 = PERSON_AND_ORGANIZATION ( #18446744073709551615, #18446744073709551615 ) ;
#57 = PERSON_AND_ORGANIZATION ( #18446744073709551615, #18446744073709551615 ) ;
#58 = LOCAL_TIME ( 18, 50, 0.000000000000000000, #117 ) ;
#59 = PRODUCT_DEFINITION_FORMATION_WITH_SPECIFIED_SOURCE ( 'Symmetric', '', #187, .NOT_KNOWN. ) ;
#60 = DATE_AND_TIME ( #332, #183 ) ;
#61 = SHAPE_REPRESENTATION ( 'C5.step', ( #30, #80, #192, #213 ), #182 ) ;
#62 = SECURITY_CLASSIFICATION_LEVEL ( 'unclassified' ) ;
#63 = CC_DESIGN_PERSON_AND_ORGANIZATION_ASSIGNMENT ( #67, #126, ( #59 ) ) ;
#64 = DATE_AND_TIME ( #88, #359 ) ;
#65 = CC_DESIGN_PERSON_AND_ORGANIZATION_ASSIGNMENT ( #367, #37, ( #313 ) ) ;
#66 = APPLIED_EXTERNAL_IDENTIFICATION_ASSIGNMENT ( '6461082896.step.STEP' , #338, #149,( #198) ) ;
#67 = PERSON_AND_ORGANIZATION ( #18446744073709551615, #18446744073709551615 ) ;
#68 = PERSON_AND_ORGANIZATION ( #18446744073709551615, #18446744073709551615 ) ;
#69 = COORDINATED_UNIVERSAL_TIME_OFFSET ( 10, 0, .AHEAD. ) ;
#70 = CC_DESIGN_SECURITY_CLASSIFICATION ( #137, ( #240 ) ) ;
#71 = APPROVAL_ROLE ( '' ) ;
#72 = CC_DESIGN_PERSON_AND_ORGANIZATION_ASSIGNMENT ( #144, #278, ( #222 ) ) ;
#73 = PROPERTY_DEFINITION ('document property','', #377 ) ;
#74 = DATE_AND_TIME ( #287, #175 ) ;
#75 = APPLICATION_CONTEXT ( 'configuration controlled 3d designs of mechanical parts and assemblies' ) ;
#76 = APPROVAL_DATE_TIME ( #74, #327 ) ;
#77 = APPLIED_EXTERNAL_IDENTIFICATION_ASSIGNMENT ( '6461082896.step.STEP' , #323, #18,( #300) ) ;
#78 = CARTESIAN_POINT ( 'NONE',  ( 0.000000000000000000, 0.000000000000000000, 0.000000000000000000 ) ) ;
#79 = DIRECTION ( 'NONE',  ( 4.890937612370273194E-29, -3.155443620884047222E-30, 0.9999999999999997780 ) ) ;
#80 = AXIS2_PLACEMENT_3D ( 'NONE', #54, #79, #326 ) ;
#81 = LOCAL_TIME ( 18, 50, 0.000000000000000000, #147 ) ;
#82 = APPROVAL_DATE_TIME ( #304, #306 ) ;
#83 = PROPERTY_DEFINITION_REPRESENTATION ( #258, #322 ) ;
#84 = PERSON_AND_ORGANIZATION_ROLE ( 'creator' ) ;
#85 = APPROVAL_DATE_TIME ( #106, #113 ) ;
#86 = LOCAL_TIME ( 18, 50, 0.000000000000000000, #268 ) ;
#87 = CC_DESIGN_APPROVAL ( #19, ( #44 ) ) ;
#88 = CALENDAR_DATE ( 2026, 22, 6 ) ;
#89 = CC_DESIGN_PERSON_AND_ORGANIZATION_ASSIGNMENT ( #57, #171, ( #145 ) ) ;
#90 = CC_DESIGN_PERSON_AND_ORGANIZATION_ASSIGNMENT ( #152, #221, ( #240 ) ) ;
#91 = PERSON_AND_ORGANIZATION ( #18446744073709551615, #18446744073709551615 ) ;
#92 = PERSON_AND_ORGANIZATION ( #18446744073709551615, #18446744073709551615 ) ;
#93 =( REPRESENTATION_RELATIONSHIP ('NONE','NONE', #61, #251 ) REPRESENTATION_RELATIONSHIP_WITH_TRANSFORMATION ( #112 )SHAPE_REPRESENTATION_RELATIONSHIP( ) );
#94 = CC_DESIGN_APPROVAL ( #113, ( #107 ) ) ;
#95 = APPROVAL_DATE_TIME ( #339, #162 ) ;
#96 = MECHANICAL_CONTEXT ( 'NONE', #262, 'mechanical' ) ;
#97 = PRODUCT_RELATED_PRODUCT_CATEGORY ( 'detail', '', ( #345 ) ) ;
#98 = PERSON_AND_ORGANIZATION ( #18446744073709551615, #18446744073709551615 ) ;
#99 = LOCAL_TIME ( 18, 50, 0.000000000000000000, #329 ) ;
#100 = APPROVAL_STATUS ( 'not_yet_approved' ) ;
#101 = APPROVAL ( #25, 'Coincident' ) ;
#102 = ITEM_DEFINED_TRANSFORMATION ( 'NONE', 'NONE', #192,  #341 ) ;
#103 = PRODUCT_DEFINITION_SHAPE ( 'NONE', 'NONE',  #313 ) ;
#104 = COORDINATED_UNIVERSAL_TIME_OFFSET ( 10, 0, .AHEAD. ) ;
#105 = CARTESIAN_POINT ( 'NONE',  ( 0.000000000000000000, 0.000000000000000000, 0.000000000000000000 ) ) ;
#106 = DATE_AND_TIME ( #380, #121 ) ;
#107 = SECURITY_CLASSIFICATION ( '', '', #223 ) ;
#108 = DIRECTION ( 'NONE',  ( 0.000000000000000000, 0.000000000000000000, 1.000000000000000000 ) ) ;
#109 = PERSON_AND_ORGANIZATION ( #276, #36 ) ;
#110 = PERSON_AND_ORGANIZATION_ROLE ( 'classification_officer' ) ;
#111 = DIRECTION ( 'NONE',  ( 1.000000000000000222, -1.092455418989176591E-28, 4.890937612370273194E-29 ) ) ;
#112 = ITEM_DEFINED_TRANSFORMATION ( 'NONE', 'NONE', #213,  #164 ) ;
#113 = APPROVAL ( #159, 'UNKNOWN' ) ;
#114 = CALENDAR_DATE ( 2026, 22, 6 ) ;
#115 = DOCUMENT_TYPE ( 'geometry' ) ;
#116 = CC_DESIGN_DATE_AND_TIME_ASSIGNMENT ( #358, #204, ( #178 ) ) ;
#117 = COORDINATED_UNIVERSAL_TIME_OFFSET ( 10, 0, .AHEAD. ) ;
#118 = DIRECTION ( 'NONE',  ( 1.000000000000000000, 0.000000000000000000, 0.000000000000000000 ) ) ;
#119 = DESIGN_CONTEXT ( 'detailed design', #75, 'design' ) ;
#120 = COORDINATED_UNIVERSAL_TIME_OFFSET ( 10, 0, .AHEAD. ) ;
#121 = LOCAL_TIME ( 18, 50, 0.000000000000000000, #324 ) ;
#122 = APPROVAL_STATUS ( 'not_yet_approved' ) ;
#123 = PERSON_AND_ORGANIZATION_ROLE ( 'classification_officer' ) ;
#124 = DATE_TIME_ROLE ( 'classification_date' ) ;
#125 = CC_DESIGN_APPROVAL ( #162, ( #200 ) ) ;
#126 = PERSON_AND_ORGANIZATION_ROLE ( 'creator' ) ;
#127 = DATE_TIME_ROLE ( 'creation_date' ) ;
#128 = PERSON_AND_ORGANIZATION_ROLE ( 'classification_officer' ) ;
#129 = LOCAL_TIME ( 18, 50, 0.000000000000000000, #273 ) ;
#130 = APPROVAL ( #8, 'Coincident' ) ;
#131 = COORDINATED_UNIVERSAL_TIME_OFFSET ( 10, 0, .AHEAD. ) ;
#132 =( REPRESENTATION_RELATIONSHIP ('NONE','NONE', #61, #251 ) REPRESENTATION_RELATIONSHIP_WITH_TRANSFORMATION ( #343 )SHAPE_REPRESENTATION_RELATIONSHIP( ) );
#133 = COORDINATED_UNIVERSAL_TIME_OFFSET ( 10, 0, .AHEAD. ) ;
#134 =( LENGTH_UNIT ( ) NAMED_UNIT ( * ) SI_UNIT ( .MILLI., .METRE. ) );
#135 = PERSON_AND_ORGANIZATION ( #18446744073709551615, #18446744073709551615 ) ;
#136 = PROPERTY_DEFINITION_REPRESENTATION ( #319, #251 ) ;
#137 = SECURITY_CLASSIFICATION ( '', '', #261 ) ;
#138 = APPROVAL_ROLE ( '' ) ;
#139 = PROPERTY_DEFINITION_REPRESENTATION ( #348, #251 ) ;
#140 = CALENDAR_DATE ( 2026, 22, 6 ) ;
#141 = DATE_AND_TIME ( #231, #232 ) ;
#142 =( LENGTH_UNIT ( ) NAMED_UNIT ( * ) SI_UNIT ( .MILLI., .METRE. ) );
#143 = MECHANICAL_CONTEXT ( 'NONE', #151, 'mechanical' ) ;
#144 = PERSON_AND_ORGANIZATION ( #18446744073709551615, #18446744073709551615 ) ;
#145 = PRODUCT_DEFINITION_FORMATION_WITH_SPECIFIED_SOURCE ( 'Symmetric', '', #345, .NOT_KNOWN. ) ;
#146 = APPLIED_EXTERNAL_IDENTIFICATION_ASSIGNMENT ( '6461083056.step.STEP' , #361, #38,( #377) ) ;
#147 = COORDINATED_UNIVERSAL_TIME_OFFSET ( 10, 0, .AHEAD. ) ;
#148 = PERSON_AND_ORGANIZATION ( #18446744073709551615, #18446744073709551615 ) ;
#149 = EXTERNAL_SOURCE (IDENTIFIER('') ) ;
#150 = APPROVAL_DATE_TIME ( #368, #252 ) ;
#151 = APPLICATION_CONTEXT ( 'configuration controlled 3d designs of mechanical parts and assemblies' ) ;
#152 = PERSON_AND_ORGANIZATION ( #18446744073709551615, #18446744073709551615 ) ;
#153 = COORDINATED_UNIVERSAL_TIME_OFFSET ( 10, 0, .AHEAD. ) ;
#154 = DIRECTION ( 'NONE',  ( 0.000000000000000000, 0.000000000000000000, 1.000000000000000000 ) ) ;
#155 = PRODUCT_RELATED_PRODUCT_CATEGORY ( 'detail', '', ( #222 ) ) ;
#156 = PROPERTY_DEFINITION_REPRESENTATION ( #366, #251 ) ;
#157 = PRODUCT_DEFINITION_SHAPE ( 'NONE', 'NONE',  #44 ) ;
#158 = APPROVAL_PERSON_ORGANIZATION ( #289, #211, #226 ) ;
#159 = APPROVAL_STATUS ( 'not_yet_approved' ) ;
#160 = DESIGN_CONTEXT ( 'detailed design', #282, 'design' ) ;
#161 = DATE_AND_TIME ( #320, #225 ) ;
#162 = APPROVAL ( #181, 'Coincident' ) ;
#163 = DATE_TIME_ROLE ( 'classification_date' ) ;
#164 = AXIS2_PLACEMENT_3D ( 'NONE', #78, #154, #292 ) ;
#165 = SECURITY_CLASSIFICATION ( '', '', #386 ) ;
#166 = CARTESIAN_POINT ( 'NONE',  ( 8.249997192354003417, 9.249996459961003836, -2.058321952820000078 ) ) ;
#167 = APPROVAL_STATUS ( 'not_yet_approved' ) ;
#168 = OBJECT_ROLE ('mandatory',$ ) ;
#169 = PERSON_AND_ORGANIZATION_ROLE ( 'classification_officer' ) ;
#170 = LOCAL_TIME ( 18, 50, 0.000000000000000000, #133 ) ;
#171 = PERSON_AND_ORGANIZATION_ROLE ( 'design_supplier' ) ;
#172 = DATE_TIME_ROLE ( 'classification_date' ) ;
#173 = CALENDAR_DATE ( 2026, 22, 6 ) ;
#174 = PERSON_AND_ORGANIZATION_ROLE ( 'design_owner' ) ;
#175 = LOCAL_TIME ( 18, 50, 0.000000000000000000, #153 ) ;
#176 = APPROVAL ( #184, 'UNKNOWN' ) ;
#177 = APPLICATION_PROTOCOL_DEFINITION ( 'international standard', 'config_control_design', 1994, #151 ) ;
#178 = PRODUCT_DEFINITION ( 'General', '', #145, #242 ) ;
#179 = CC_DESIGN_PERSON_AND_ORGANIZATION_ASSIGNMENT ( #109, #110, ( #165 ) ) ;
#180 = PERSON_AND_ORGANIZATION ( #18446744073709551615, #18446744073709551615 ) ;
#181 = APPROVAL_STATUS ( 'not_yet_approved' ) ;
#182 =( GEOMETRIC_REPRESENTATION_CONTEXT ( 3 ) GLOBAL_UNCERTAINTY_ASSIGNED_CONTEXT ( ( #355 ) ) GLOBAL_UNIT_ASSIGNED_CONTEXT ( ( #142, #384, #302 ) ) REPRESENTATION_CONTEXT ( 'NONE', 'WORKASPACE' ) );
#183 = LOCAL_TIME ( 18, 50, 0.000000000000000000, #208 ) ;
#184 = APPROVAL_STATUS ( 'not_yet_approved' ) ;
#185 = CC_DESIGN_PERSON_AND_ORGANIZATION_ASSIGNMENT ( #335, #22, ( #44 ) ) ;
#186 =( NAMED_UNIT ( * ) SI_UNIT ( $, .STERADIAN. ) SOLID_ANGLE_UNIT ( ) );
#187 = PRODUCT ( '6461083056.step', '6461083056.step', '', ( #143 ) ) ;
#188 = COORDINATED_UNIVERSAL_TIME_OFFSET ( 10, 0, .AHEAD. ) ;
#189 = PERSON_AND_ORGANIZATION ( #18446744073709551615, #18446744073709551615 ) ;
#190 = DATE_TIME_ROLE ( 'classification_date' ) ;
#191 = MECHANICAL_CONTEXT ( 'NONE', #235, 'mechanical' ) ;
#192 = AXIS2_PLACEMENT_3D ( 'NONE', #166, #2, #360 ) ;
#193 = APPLICATION_CONTEXT ( 'configuration controlled 3d designs of mechanical parts and assemblies' ) ;
#194 = LOCAL_TIME ( 18, 50, 0.000000000000000000, #210 ) ;
#195 = PERSON_AND_ORGANIZATION ( #18446744073709551615, #18446744073709551615 ) ;
#196 = COORDINATED_UNIVERSAL_TIME_OFFSET ( 10, 0, .AHEAD. ) ;
#197 =( NAMED_UNIT ( * ) PLANE_ANGLE_UNIT ( ) SI_UNIT ( $, .RADIAN. ) );
#198 = DOCUMENT_FILE ( '6461082896.step.STEP' , '', '', #115, '' ,$ ) ;
#199 = APPROVAL ( #314, 'Coincident' ) ;
#200 = SECURITY_CLASSIFICATION ( '', '', #272 ) ;
#201 = CONTEXT_DEPENDENT_SHAPE_REPRESENTATION ( #215, #290 ) ;
#202 = CC_DESIGN_APPROVAL ( #327, ( #137 ) ) ;
#203 = APPROVAL ( #51, 'UNKNOWN' ) ;
#204 = DATE_TIME_ROLE ( 'creation_date' ) ;
#205 = COORDINATED_UNIVERSAL_TIME_OFFSET ( 10, 0, .AHEAD. ) ;
#206 = COORDINATED_UNIVERSAL_TIME_OFFSET ( 10, 0, .AHEAD. ) ;
#207 = CC_DESIGN_SECURITY_CLASSIFICATION ( #165, ( #390 ) ) ;
#208 = COORDINATED_UNIVERSAL_TIME_OFFSET ( 10, 0, .AHEAD. ) ;
#209 = PERSON_AND_ORGANIZATION_ROLE ( 'design_supplier' ) ;
#210 = COORDINATED_UNIVERSAL_TIME_OFFSET ( 10, 0, .AHEAD. ) ;
#211 = APPROVAL ( #100, 'Coincident' ) ;
#212 = APPROVAL_DATE_TIME ( #7, #19 ) ;
#213 = AXIS2_PLACEMENT_3D ( 'NONE', #32, #52, #111 ) ;
#214 = CC_DESIGN_APPROVAL ( #203, ( #165 ) ) ;
#215 =( REPRESENTATION_RELATIONSHIP ('NONE','NONE', #61, #322 ) REPRESENTATION_RELATIONSHIP_WITH_TRANSFORMATION ( #102 )SHAPE_REPRESENTATION_RELATIONSHIP( ) );
#216 = PERSON_AND_ORGANIZATION ( #18446744073709551615, #18446744073709551615 ) ;
#217 = CALENDAR_DATE ( 2026, 22, 6 ) ;
#218 = DATE_AND_TIME ( #259, #303 ) ;
#219 = APPROVAL_PERSON_ORGANIZATION ( #29, #101, #138 ) ;
#220 = CC_DESIGN_APPROVAL ( #211, ( #240 ) ) ;
#221 = PERSON_AND_ORGANIZATION_ROLE ( 'design_supplier' ) ;
#222 = PRODUCT ( '6461082896.step', '6461082896.step', '', ( #96 ) ) ;
#223 = SECURITY_CLASSIFICATION_LEVEL ( 'unclassified' ) ;
#224 = DATE_AND_TIME ( #291, #298 ) ;
#225 = LOCAL_TIME ( 18, 50, 0.000000000000000000, #196 ) ;
#226 = APPROVAL_ROLE ( '' ) ;
#227 =( LENGTH_UNIT ( ) NAMED_UNIT ( * ) SI_UNIT ( .MILLI., .METRE. ) );
#228 = APPROVAL_ROLE ( '' ) ;
#229 = CC_DESIGN_PERSON_AND_ORGANIZATION_ASSIGNMENT ( #56, #330, ( #145 ) ) ;
#230 = CC_DESIGN_DATE_AND_TIME_ASSIGNMENT ( #161, #340, ( #137 ) ) ;
#231 = CALENDAR_DATE ( 2026, 22, 6 ) ;
#232 = LOCAL_TIME ( 18, 50, 0.000000000000000000, #205 ) ;
#233 =( NAMED_UNIT ( * ) SI_UNIT ( $, .STERADIAN. ) SOLID_ANGLE_UNIT ( ) );
#234 = ROLE_ASSOCIATION ( #297, #269 ) ;
#235 = APPLICATION_CONTEXT ( 'configuration controlled 3d designs of mechanical parts and assemblies' ) ;
#236 = PERSON_AND_ORGANIZATION ( #18446744073709551615, #18446744073709551615 ) ;
#237 = ROLE_ASSOCIATION ( #346, #296 ) ;
#238 = PERSON_AND_ORGANIZATION ( #18446744073709551615, #18446744073709551615 ) ;
#239 = CC_DESIGN_DATE_AND_TIME_ASSIGNMENT ( #60, #172, ( #200 ) ) ;
#240 = PRODUCT_DEFINITION_FORMATION_WITH_SPECIFIED_SOURCE ( 'Symmetric', '', #222, .NOT_KNOWN. ) ;
#241 = CALENDAR_DATE ( 2026, 22, 6 ) ;
#242 = DESIGN_CONTEXT ( 'detailed design', #193, 'design' ) ;
#243 = APPROVAL_ROLE ( '' ) ;
#244 = PROPERTY_DEFINITION ('external definition','', #300 ) ;
#245 = DATE_TIME_ROLE ( 'creation_date' ) ;
#246 = APPROVAL_ROLE ( '' ) ;
#247 = APPROVAL_PERSON_ORGANIZATION ( #334, #19, #243 ) ;
#248 = ORGANIZATION ( 'NAUO-ORG285', 'UNSPECIFIED', 'UNSPECIFIED' ) ;
#249 = APPLICATION_PROTOCOL_DEFINITION ( 'international standard', 'config_control_design', 1994, #262 ) ;
#250 = CC_DESIGN_PERSON_AND_ORGANIZATION_ASSIGNMENT ( #1, #84, ( #178 ) ) ;
#251 = SHAPE_REPRESENTATION ( '6461082896.step', ( #164 ), #41 ) ;
#252 = APPROVAL ( #312, 'Coincident' ) ;
#253 = PERSON_AND_ORGANIZATION_ROLE ( 'classification_officer' ) ;
#254 = PERSON_AND_ORGANIZATION ( #378, #248 ) ;
#255 = PRODUCT_DEFINITION_SHAPE ( 'NONE', 'NONE',  #178 ) ;
#256 = APPLICATION_PROTOCOL_DEFINITION ( 'international standard', 'config_control_design', 1994, #235 ) ;
#257 = LOCAL_TIME ( 18, 50, 0.000000000000000000, #120 ) ;
#258 = PROPERTY_DEFINITION ('external definition','', #377 ) ;
#259 = CALENDAR_DATE ( 2026, 22, 6 ) ;
#260 = CC_DESIGN_PERSON_AND_ORGANIZATION_ASSIGNMENT ( #189, #354, ( #345 ) ) ;
#261 = SECURITY_CLASSIFICATION_LEVEL ( 'unclassified' ) ;
#262 = APPLICATION_CONTEXT ( 'configuration controlled 3d designs of mechanical parts and assemblies' ) ;
#263 = UNCERTAINTY_MEASURE_WITH_UNIT (LENGTH_MEASURE( 1.000000000000000082E-05 ), #227, 'distance_accuracy_value', 'NONE');
#264 = APPROVAL_PERSON_ORGANIZATION ( #236, #306, #28 ) ;
#265 = CC_DESIGN_APPROVAL ( #199, ( #59 ) ) ;
#266 = PROPERTY_DEFINITION_REPRESENTATION ( #73, #322 ) ;
#267 = DATE_AND_TIME ( #114, #58 ) ;
#268 = COORDINATED_UNIVERSAL_TIME_OFFSET ( 10, 0, .AHEAD. ) ;
#269 = APPLIED_DOCUMENT_REFERENCE ( #198,'',( #44) ) ;
#270 = CC_DESIGN_SECURITY_CLASSIFICATION ( #107, ( #389 ) ) ;
#271 = APPLICATION_PROTOCOL_DEFINITION ( 'international standard', 'config_control_design', 1994, #193 ) ;
#272 = SECURITY_CLASSIFICATION_LEVEL ( 'unclassified' ) ;
#273 = COORDINATED_UNIVERSAL_TIME_OFFSET ( 10, 0, .AHEAD. ) ;
#274 = CC_DESIGN_DATE_AND_TIME_ASSIGNMENT ( #337, #245, ( #313 ) ) ;
#275 = CC_DESIGN_APPROVAL ( #101, ( #178 ) ) ;
#276 = PERSON ( 'NAUO-PER287', 'UNSPECIFIED', 'UNSPECIFIED', ('UNSPECIFIED'), ('UNSPECIFIED'), ('UNSPECIFIED') ) ;
#277 = CC_DESIGN_APPROVAL ( #130, ( #313 ) ) ;
#278 = PERSON_AND_ORGANIZATION_ROLE ( 'design_owner' ) ;
#279 = CC_DESIGN_PERSON_AND_ORGANIZATION_ASSIGNMENT ( #353, #169, ( #107 ) ) ;
#280 = CALENDAR_DATE ( 2026, 22, 6 ) ;
#281 = COORDINATED_UNIVERSAL_TIME_OFFSET ( 10, 0, .AHEAD. ) ;
#282 = APPLICATION_CONTEXT ( 'configuration controlled 3d designs of mechanical parts and assemblies' ) ;
#283 = APPROVAL_DATE_TIME ( #307, #199 ) ;
#284 = LOCAL_TIME ( 18, 50, 0.000000000000000000, #206 ) ;
#285 = LOCAL_TIME ( 18, 50, 0.000000000000000000, #131 ) ;
#286 = APPROVAL_DATE_TIME ( #218, #211 ) ;
#287 = CALENDAR_DATE ( 2026, 22, 6 ) ;
#288 = PRODUCT_RELATED_PRODUCT_CATEGORY ( 'detail', '', ( #187 ) ) ;
#289 = PERSON_AND_ORGANIZATION ( #18446744073709551615, #18446744073709551615 ) ;
#290 = PRODUCT_DEFINITION_SHAPE ( 'NONE', 'NONE',  #389 ) ;
#291 = CALENDAR_DATE ( 2026, 22, 6 ) ;
#292 = DIRECTION ( 'NONE',  ( 1.000000000000000000, 0.000000000000000000, 0.000000000000000000 ) ) ;
#293 = CALENDAR_DATE ( 2026, 22, 6 ) ;
#294 = DIRECTION ( 'NONE',  ( 1.000000000000000000, 0.000000000000000000, 0.000000000000000000 ) ) ;
#295 = UNCERTAINTY_MEASURE_WITH_UNIT (LENGTH_MEASURE( 1.000000000000000082E-05 ), #134, 'distance_accuracy_value', 'NONE');
#296 = APPLIED_DOCUMENT_REFERENCE ( #377,'',( #313) ) ;
#297 = OBJECT_ROLE ('mandatory',$ ) ;
#298 = LOCAL_TIME ( 18, 50, 0.000000000000000000, #104 ) ;
#299 = APPROVAL_ROLE ( '' ) ;
#300 = DOCUMENT_FILE ( '6461082896.step.STEP' , '', '', #369, '' ,$ ) ;
#301 = APPROVAL_DATE_TIME ( #356, #203 ) ;
#302 =( NAMED_UNIT ( * ) SI_UNIT ( $, .STERADIAN. ) SOLID_ANGLE_UNIT ( ) );
#303 = LOCAL_TIME ( 18, 50, 0.000000000000000000, #20 ) ;
#304 = DATE_AND_TIME ( #328, #86 ) ;
#305 = PERSON_AND_ORGANIZATION ( #18446744073709551615, #18446744073709551615 ) ;
#306 = APPROVAL ( #167, 'Coincident' ) ;
#307 = DATE_AND_TIME ( #371, #257 ) ;
#308 = CC_DESIGN_PERSON_AND_ORGANIZATION_ASSIGNMENT ( #98, #253, ( #137 ) ) ;
#309 = LOCAL_TIME ( 18, 50, 0.000000000000000000, #281 ) ;
#310 = APPROVAL_DATE_TIME ( #64, #130 ) ;
#311 = COORDINATED_UNIVERSAL_TIME_OFFSET ( 10, 0, .AHEAD. ) ;
#312 = APPROVAL_STATUS ( 'not_yet_approved' ) ;
#313 = PRODUCT_DEFINITION ( 'General', '', #59, #160 ) ;
#314 = APPROVAL_STATUS ( 'not_yet_approved' ) ;
#315 = ORGANIZATION ( 'NAUO-ORG286', 'UNSPECIFIED', 'UNSPECIFIED' ) ;
#316 = CALENDAR_DATE ( 2026, 22, 6 ) ;
#317 = CC_DESIGN_PERSON_AND_ORGANIZATION_ASSIGNMENT ( #68, #209, ( #59 ) ) ;
#318 = DATE_AND_TIME ( #316, #4 ) ;
#319 = PROPERTY_DEFINITION ('external definition','', #198 ) ;
#320 = CALENDAR_DATE ( 2026, 22, 6 ) ;
#321 = CC_DESIGN_SECURITY_CLASSIFICATION ( #200, ( #145 ) ) ;
#322 = SHAPE_REPRESENTATION ( '6461083056.step', ( #341 ), #325 ) ;
#323 = IDENTIFICATION_ROLE ( 'external document id and location', $) ;
#324 = COORDINATED_UNIVERSAL_TIME_OFFSET ( 10, 0, .AHEAD. ) ;
#325 =( GEOMETRIC_REPRESENTATION_CONTEXT ( 3 ) GLOBAL_UNCERTAINTY_ASSIGNED_CONTEXT ( ( #263 ) ) GLOBAL_UNIT_ASSIGNED_CONTEXT ( ( #227, #197, #233 ) ) REPRESENTATION_CONTEXT ( 'NONE', 'WORKASPACE' ) );
#326 = DIRECTION ( 'NONE',  ( 1.000000000000000222, -1.092455418989176591E-28, 4.890937612370273194E-29 ) ) ;
#327 = APPROVAL ( #12, 'Coincident' ) ;
#328 = CALENDAR_DATE ( 2026, 22, 6 ) ;
#329 = COORDINATED_UNIVERSAL_TIME_OFFSET ( 10, 0, .AHEAD. ) ;
#330 = PERSON_AND_ORGANIZATION_ROLE ( 'creator' ) ;
#331 = APPROVAL_PERSON_ORGANIZATION ( #353, #113, #228 ) ;
#332 = CALENDAR_DATE ( 2026, 22, 6 ) ;
#333 = APPROVAL_ROLE ( '' ) ;
#334 = PERSON_AND_ORGANIZATION ( #18446744073709551615, #18446744073709551615 ) ;
#335 = PERSON_AND_ORGANIZATION ( #18446744073709551615, #18446744073709551615 ) ;
#336 = CC_DESIGN_DATE_AND_TIME_ASSIGNMENT ( #224, #163, ( #107 ) ) ;
#337 = DATE_AND_TIME ( #40, #129 ) ;
#338 = IDENTIFICATION_ROLE ( 'external document id and location', $) ;
#339 = DATE_AND_TIME ( #217, #309 ) ;
#340 = DATE_TIME_ROLE ( 'classification_date' ) ;
#341 = AXIS2_PLACEMENT_3D ( 'NONE', #376, #108, #294 ) ;
#342 = CC_DESIGN_APPROVAL ( #176, ( #387 ) ) ;
#343 = ITEM_DEFINED_TRANSFORMATION ( 'NONE', 'NONE', #80,  #164 ) ;
#344 = CC_DESIGN_PERSON_AND_ORGANIZATION_ASSIGNMENT ( #254, #128, ( #387 ) ) ;
#345 = PRODUCT ( 'C5.step', 'C5.step', '', ( #191 ) ) ;
#346 = OBJECT_ROLE ('mandatory',$ ) ;
#347 = PERSON_AND_ORGANIZATION_ROLE ( 'creator' ) ;
#348 = PROPERTY_DEFINITION ('document property','', #198 ) ;
#349 = CONTEXT_DEPENDENT_SHAPE_REPRESENTATION ( #132, #48 ) ;
#350 = LOCAL_TIME ( 18, 50, 0.000000000000000000, #311 ) ;
#351 = CALENDAR_DATE ( 2026, 22, 6 ) ;
#352 = CC_DESIGN_DATE_AND_TIME_ASSIGNMENT ( #11, #124, ( #53 ) ) ;
#353 = PERSON_AND_ORGANIZATION ( #383, #315 ) ;
#354 = PERSON_AND_ORGANIZATION_ROLE ( 'design_owner' ) ;
#355 = UNCERTAINTY_MEASURE_WITH_UNIT (LENGTH_MEASURE( 1.000000000000000082E-05 ), #142, 'distance_accuracy_value', 'NONE');
#356 = DATE_AND_TIME ( #382, #99 ) ;
#357 = CC_DESIGN_DATE_AND_TIME_ASSIGNMENT ( #373, #127, ( #44 ) ) ;
#358 = DATE_AND_TIME ( #140, #284 ) ;
#359 = LOCAL_TIME ( 18, 50, 0.000000000000000000, #69 ) ;
#360 = DIRECTION ( 'NONE',  ( 1.000000000000000222, -1.092455418989176591E-28, 4.890937612370273194E-29 ) ) ;
#361 = IDENTIFICATION_ROLE ( 'external document id and location', $) ;
#362 = DATE_TIME_ROLE ( 'classification_date' ) ;
#363 = PERSON_AND_ORGANIZATION_ROLE ( 'classification_officer' ) ;
#364 = CC_DESIGN_SECURITY_CLASSIFICATION ( #53, ( #59 ) ) ;
#365 = APPLICATION_PROTOCOL_DEFINITION ( 'international standard', 'config_control_design', 1994, #282 ) ;
#366 = PROPERTY_DEFINITION ('document property','', #300 ) ;
#367 = PERSON_AND_ORGANIZATION ( #18446744073709551615, #18446744073709551615 ) ;
#368 = DATE_AND_TIME ( #173, #350 ) ;
#369 = DOCUMENT_TYPE ( 'geometry' ) ;
#370 = SHAPE_DEFINITION_REPRESENTATION ( #255, #61 ) ;
#371 = CALENDAR_DATE ( 2026, 22, 6 ) ;
#372 = SECURITY_CLASSIFICATION_LEVEL ( 'unclassified' ) ;
#373 = DATE_AND_TIME ( #293, #170 ) ;
#374 = CC_DESIGN_APPROVAL ( #306, ( #145 ) ) ;
#375 = APPROVAL_PERSON_ORGANIZATION ( #305, #162, #39 ) ;
#376 = CARTESIAN_POINT ( 'NONE',  ( 0.000000000000000000, 0.000000000000000000, 0.000000000000000000 ) ) ;
#377 = DOCUMENT_FILE ( '6461083056.step.STEP' , '', '', #55, '' ,$ ) ;
#378 = PERSON ( 'NAUO-PER285', 'UNSPECIFIED', 'UNSPECIFIED', ('UNSPECIFIED'), ('UNSPECIFIED'), ('UNSPECIFIED') ) ;
#379 = ROLE_ASSOCIATION ( #168, #46 ) ;
#380 = CALENDAR_DATE ( 2026, 22, 6 ) ;
#381 = APPROVAL_PERSON_ORGANIZATION ( #195, #327, #71 ) ;
#382 = CALENDAR_DATE ( 2026, 22, 6 ) ;
#383 = PERSON ( 'NAUO-PER286', 'UNSPECIFIED', 'UNSPECIFIED', ('UNSPECIFIED'), ('UNSPECIFIED'), ('UNSPECIFIED') ) ;
#384 =( NAMED_UNIT ( * ) PLANE_ANGLE_UNIT ( ) SI_UNIT ( $, .RADIAN. ) );
#385 = APPROVAL_DATE_TIME ( #267, #101 ) ;
#386 = SECURITY_CLASSIFICATION_LEVEL ( 'unclassified' ) ;
#387 = SECURITY_CLASSIFICATION ( '', '', #372 ) ;
#388 = NEXT_ASSEMBLY_USAGE_OCCURRENCE ( 'NAUO285', ' ', ' ', #178, #44, $ ) ;
#389 = NEXT_ASSEMBLY_USAGE_OCCURRENCE ( 'NAUO286', ' ', ' ', #178, #313, $ ) ;
#390 = NEXT_ASSEMBLY_USAGE_OCCURRENCE ( 'NAUO287', ' ', ' ', #178, #44, $ ) ;
ENDSEC;
END-ISO-10303-21;
