ISO-10303-21;
HEADER;
FILE_DESCRIPTION (( 'STEP AP203' ),
    '1' );
FILE_NAME ('C6.step.STEP',
    '2026-06-22T08:49:59',
    ( 'localuser' ),
    ( '' ),
    'SwSTEP 2.0',
    'SolidWorks 2025',
    '' );
FILE_SCHEMA (( 'CONFIG_CONTROL_DESIGN' ));
ENDSEC;

DATA;
#1 = APPROVAL_ROLE ( '' ) ;
#2 =( LENGTH_UNIT ( ) NAMED_UNIT ( * ) SI_UNIT ( .MILLI., .METRE. ) );
#3 = CC_DESIGN_DATE_AND_TIME_ASSIGNMENT ( #205, #328, ( #345 ) ) ;
#4 = PROPERTY_DEFINITION_REPRESENTATION ( #160, #60 ) ;
#5 =( LENGTH_UNIT ( ) NAMED_UNIT ( * ) SI_UNIT ( .MILLI., .METRE. ) );
#6 = PROPERTY_DEFINITION_REPRESENTATION ( #288, #237 ) ;
#7 = COORDINATED_UNIVERSAL_TIME_OFFSET ( 10, 0, .AHEAD. ) ;
#8 = APPROVAL_ROLE ( '' ) ;
#9 = CALENDAR_DATE ( 2026, 22, 6 ) ;
#10 = APPROVAL ( #280, 'Coincident' ) ;
#11 = PERSON_AND_ORGANIZATION_ROLE ( 'creator' ) ;
#12 = CC_DESIGN_APPROVAL ( #190, ( #263 ) ) ;
#13 = DIRECTION ( 'NONE',  ( 0.000000000000000000, 0.000000000000000000, 1.000000000000000000 ) ) ;
#14 = CALENDAR_DATE ( 2026, 22, 6 ) ;
#15 = CALENDAR_DATE ( 2026, 22, 6 ) ;
#16 = LOCAL_TIME ( 18, 49, 59.00000000000000000, #287 ) ;
#17 = APPROVAL_DATE_TIME ( #323, #305 ) ;
#18 = APPLICATION_CONTEXT ( 'configuration controlled 3d designs of mechanical parts and assemblies' ) ;
#19 = CALENDAR_DATE ( 2026, 22, 6 ) ;
#20 = COORDINATED_UNIVERSAL_TIME_OFFSET ( 10, 0, .AHEAD. ) ;
#21 = PERSON_AND_ORGANIZATION_ROLE ( 'creator' ) ;
#22 = APPLIED_EXTERNAL_IDENTIFICATION_ASSIGNMENT ( '7087914976.step.STEP' , #363, #152,( #123) ) ;
#23 = DATE_AND_TIME ( #364, #221 ) ;
#24 = CC_DESIGN_DATE_AND_TIME_ASSIGNMENT ( #23, #385, ( #372 ) ) ;
#25 = PROPERTY_DEFINITION_REPRESENTATION ( #248, #237 ) ;
#26 = CC_DESIGN_PERSON_AND_ORGANIZATION_ASSIGNMENT ( #69, #217, ( #267 ) ) ;
#27 = PERSON_AND_ORGANIZATION ( #18446744073709551615, #18446744073709551615 ) ;
#28 = LOCAL_TIME ( 18, 49, 59.00000000000000000, #233 ) ;
#29 = LOCAL_TIME ( 18, 49, 59.00000000000000000, #289 ) ;
#30 = APPLIED_DOCUMENT_REFERENCE ( #281,'',( #295) ) ;
#31 = DESIGN_CONTEXT ( 'detailed design', #96, 'design' ) ;
#32 = ITEM_DEFINED_TRANSFORMATION ( 'NONE', 'NONE', #130,  #124 ) ;
#33 = CC_DESIGN_DATE_AND_TIME_ASSIGNMENT ( #320, #376, ( #295 ) ) ;
#34 = PERSON_AND_ORGANIZATION ( #18446744073709551615, #18446744073709551615 ) ;
#35 = PRODUCT_DEFINITION_FORMATION_WITH_SPECIFIED_SOURCE ( 'Symmetric', '', #46, .NOT_KNOWN. ) ;
#36 = APPLICATION_PROTOCOL_DEFINITION ( 'international standard', 'config_control_design', 1994, #179 ) ;
#37 = EXTERNAL_SOURCE (IDENTIFIER('') ) ;
#38 = PERSON_AND_ORGANIZATION_ROLE ( 'classification_officer' ) ;
#39 = CC_DESIGN_PERSON_AND_ORGANIZATION_ASSIGNMENT ( #231, #353, ( #46 ) ) ;
#40 = COORDINATED_UNIVERSAL_TIME_OFFSET ( 10, 0, .AHEAD. ) ;
#41 = AXIS2_PLACEMENT_3D ( 'NONE', #374, #282, #99 ) ;
#42 = ORGANIZATION ( 'NAUO-ORG250', 'UNSPECIFIED', 'UNSPECIFIED' ) ;
#43 = APPROVAL_DATE_TIME ( #316, #10 ) ;
#44 = PERSON_AND_ORGANIZATION ( #18446744073709551615, #18446744073709551615 ) ;
#45 = DATE_AND_TIME ( #381, #244 ) ;
#46 = PRODUCT ( '7087914976.step', '7087914976.step', '', ( #50 ) ) ;
#47 = APPLIED_EXTERNAL_IDENTIFICATION_ASSIGNMENT ( '7087915136.step.STEP' , #135, #37,( #384) ) ;
#48 = COORDINATED_UNIVERSAL_TIME_OFFSET ( 10, 0, .AHEAD. ) ;
#49 = DATE_AND_TIME ( #19, #28 ) ;
#50 = MECHANICAL_CONTEXT ( 'NONE', #369, 'mechanical' ) ;
#51 = CONTEXT_DEPENDENT_SHAPE_REPRESENTATION ( #240, #197 ) ;
#52 = APPROVAL_PERSON_ORGANIZATION ( #128, #10, #153 ) ;
#53 = APPLICATION_PROTOCOL_DEFINITION ( 'international standard', 'config_control_design', 1994, #148 ) ;
#54 = ROLE_ASSOCIATION ( #322, #356 ) ;
#55 = EXTERNAL_SOURCE (IDENTIFIER('') ) ;
#56 = COORDINATED_UNIVERSAL_TIME_OFFSET ( 10, 0, .AHEAD. ) ;
#57 = PERSON_AND_ORGANIZATION_ROLE ( 'classification_officer' ) ;
#58 =( GEOMETRIC_REPRESENTATION_CONTEXT ( 3 ) GLOBAL_UNCERTAINTY_ASSIGNED_CONTEXT ( ( #302 ) ) GLOBAL_UNIT_ASSIGNED_CONTEXT ( ( #188, #95, #220 ) ) REPRESENTATION_CONTEXT ( 'NONE', 'WORKASPACE' ) );
#59 = SECURITY_CLASSIFICATION ( '', '', #101 ) ;
#60 = SHAPE_REPRESENTATION ( '7087915136.step', ( #164 ), #111 ) ;
#61 = PROPERTY_DEFINITION_REPRESENTATION ( #367, #237 ) ;
#62 = DIRECTION ( 'NONE',  ( 0.000000000000000000, 0.000000000000000000, 1.000000000000000000 ) ) ;
#63 = CONTEXT_DEPENDENT_SHAPE_REPRESENTATION ( #303, #351 ) ;
#64 = OBJECT_ROLE ('mandatory',$ ) ;
#65 = CALENDAR_DATE ( 2026, 22, 6 ) ;
#66 = CC_DESIGN_APPROVAL ( #10, ( #365 ) ) ;
#67 = APPROVAL_STATUS ( 'not_yet_approved' ) ;
#68 = SHAPE_DEFINITION_REPRESENTATION ( #229, #386 ) ;
#69 = PERSON_AND_ORGANIZATION ( #18446744073709551615, #18446744073709551615 ) ;
#70 = CC_DESIGN_PERSON_AND_ORGANIZATION_ASSIGNMENT ( #116, #209, ( #35 ) ) ;
#71 = APPROVAL_PERSON_ORGANIZATION ( #270, #105, #1 ) ;
#72 = APPROVAL_DATE_TIME ( #318, #290 ) ;
#73 = DATE_AND_TIME ( #261, #208 ) ;
#74 = PROPERTY_DEFINITION ('external definition','', #384 ) ;
#75 = PERSON_AND_ORGANIZATION_ROLE ( 'design_supplier' ) ;
#76 = IDENTIFICATION_ROLE ( 'external document id and location', $) ;
#77 = CC_DESIGN_PERSON_AND_ORGANIZATION_ASSIGNMENT ( #247, #219, ( #162 ) ) ;
#78 = AXIS2_PLACEMENT_3D ( 'NONE', #238, #329, #175 ) ;
#79 = CC_DESIGN_APPROVAL ( #290, ( #35 ) ) ;
#80 = APPROVAL_STATUS ( 'not_yet_approved' ) ;
#81 = CC_DESIGN_PERSON_AND_ORGANIZATION_ASSIGNMENT ( #378, #228, ( #59 ) ) ;
#82 = DATE_TIME_ROLE ( 'classification_date' ) ;
#83 = SHAPE_DEFINITION_REPRESENTATION ( #258, #237 ) ;
#84 = CC_DESIGN_DATE_AND_TIME_ASSIGNMENT ( #375, #224, ( #293 ) ) ;
#85 = CALENDAR_DATE ( 2026, 22, 6 ) ;
#86 = CARTESIAN_POINT ( 'NONE',  ( 8.796444946260001174, 3.396450317383004069, -2.058321952820000078 ) ) ;
#87 = DATE_TIME_ROLE ( 'classification_date' ) ;
#88 = COORDINATED_UNIVERSAL_TIME_OFFSET ( 10, 0, .AHEAD. ) ;
#89 =( GEOMETRIC_REPRESENTATION_CONTEXT ( 3 ) GLOBAL_UNCERTAINTY_ASSIGNED_CONTEXT ( ( #360 ) ) GLOBAL_UNIT_ASSIGNED_CONTEXT ( ( #2, #122, #362 ) ) REPRESENTATION_CONTEXT ( 'NONE', 'WORKASPACE' ) );
#90 = MECHANICAL_CONTEXT ( 'NONE', #148, 'mechanical' ) ;
#91 = LOCAL_TIME ( 18, 49, 59.00000000000000000, #154 ) ;
#92 = CC_DESIGN_DATE_AND_TIME_ASSIGNMENT ( #306, #87, ( #103 ) ) ;
#93 = DATE_TIME_ROLE ( 'classification_date' ) ;
#94 = APPROVAL ( #257, 'Coincident' ) ;
#95 =( NAMED_UNIT ( * ) PLANE_ANGLE_UNIT ( ) SI_UNIT ( $, .RADIAN. ) );
#96 = APPLICATION_CONTEXT ( 'configuration controlled 3d designs of mechanical parts and assemblies' ) ;
#97 = APPROVAL_PERSON_ORGANIZATION ( #132, #305, #291 ) ;
#98 = DATE_AND_TIME ( #253, #194 ) ;
#99 = DIRECTION ( 'NONE',  ( 1.000000000000000222, -1.092455418989176591E-28, 4.890937612370273194E-29 ) ) ;
#100 = CC_DESIGN_PERSON_AND_ORGANIZATION_ASSIGNMENT ( #337, #38, ( #268 ) ) ;
#101 = SECURITY_CLASSIFICATION_LEVEL ( 'unclassified' ) ;
#102 = APPROVAL ( #294, 'Coincident' ) ;
#103 = SECURITY_CLASSIFICATION ( '', '', #274 ) ;
#104 = PERSON_AND_ORGANIZATION ( #18446744073709551615, #18446744073709551615 ) ;
#105 = APPROVAL ( #307, 'UNKNOWN' ) ;
#106 = CC_DESIGN_DATE_AND_TIME_ASSIGNMENT ( #314, #193, ( #365 ) ) ;
#107 = PRODUCT_DEFINITION_SHAPE ( 'NONE', 'NONE',  #263 ) ;
#108 = APPROVAL_ROLE ( '' ) ;
#109 = PRODUCT_RELATED_PRODUCT_CATEGORY ( 'detail', '', ( #162 ) ) ;
#110 = APPROVAL_DATE_TIME ( #45, #102 ) ;
#111 =( GEOMETRIC_REPRESENTATION_CONTEXT ( 3 ) GLOBAL_UNCERTAINTY_ASSIGNED_CONTEXT ( ( #332 ) ) GLOBAL_UNIT_ASSIGNED_CONTEXT ( ( #5, #184, #277 ) ) REPRESENTATION_CONTEXT ( 'NONE', 'WORKASPACE' ) );
#112 = APPROVAL_PERSON_ORGANIZATION ( #215, #174, #156 ) ;
#113 = APPROVAL_DATE_TIME ( #264, #190 ) ;
#114 = APPROVAL_STATUS ( 'not_yet_approved' ) ;
#115 = DATE_AND_TIME ( #357, #358 ) ;
#116 = PERSON_AND_ORGANIZATION ( #18446744073709551615, #18446744073709551615 ) ;
#117 = LOCAL_TIME ( 18, 49, 59.00000000000000000, #144 ) ;
#118 = APPLICATION_CONTEXT ( 'configuration controlled 3d designs of mechanical parts and assemblies' ) ;
#119 = CC_DESIGN_PERSON_AND_ORGANIZATION_ASSIGNMENT ( #270, #177, ( #372 ) ) ;
#120 = CC_DESIGN_PERSON_AND_ORGANIZATION_ASSIGNMENT ( #204, #137, ( #263 ) ) ;
#121 = PROPERTY_DEFINITION_REPRESENTATION ( #74, #60 ) ;
#122 =( NAMED_UNIT ( * ) PLANE_ANGLE_UNIT ( ) SI_UNIT ( $, .RADIAN. ) );
#123 = DOCUMENT_FILE ( '7087914976.step.STEP' , '', '', #350, '' ,$ ) ;
#124 = AXIS2_PLACEMENT_3D ( 'NONE', #276, #62, #206 ) ;
#125 = DESIGN_CONTEXT ( 'detailed design', #118, 'design' ) ;
#126 = CALENDAR_DATE ( 2026, 22, 6 ) ;
#127 = APPROVAL_ROLE ( '' ) ;
#128 = PERSON_AND_ORGANIZATION ( #18446744073709551615, #18446744073709551615 ) ;
#129 = CC_DESIGN_APPROVAL ( #163, ( #293 ) ) ;
#130 = AXIS2_PLACEMENT_3D ( 'NONE', #86, #299, #271 ) ;
#131 = MECHANICAL_CONTEXT ( 'NONE', #18, 'mechanical' ) ;
#132 = PERSON_AND_ORGANIZATION ( #18446744073709551615, #18446744073709551615 ) ;
#133 = CC_DESIGN_SECURITY_CLASSIFICATION ( #103, ( #388 ) ) ;
#134 = PERSON_AND_ORGANIZATION ( #18446744073709551615, #18446744073709551615 ) ;
#135 = IDENTIFICATION_ROLE ( 'external document id and location', $) ;
#136 = APPROVAL_STATUS ( 'not_yet_approved' ) ;
#137 = PERSON_AND_ORGANIZATION_ROLE ( 'creator' ) ;
#138 = LOCAL_TIME ( 18, 49, 59.00000000000000000, #275 ) ;
#139 = CALENDAR_DATE ( 2026, 22, 6 ) ;
#140 = DATE_AND_TIME ( #359, #387 ) ;
#141 = PRODUCT_RELATED_PRODUCT_CATEGORY ( 'detail', '', ( #349 ) ) ;
#142 = APPROVAL_PERSON_ORGANIZATION ( #309, #94, #8 ) ;
#143 = LOCAL_TIME ( 18, 49, 59.00000000000000000, #40 ) ;
#144 = COORDINATED_UNIVERSAL_TIME_OFFSET ( 10, 0, .AHEAD. ) ;
#145 = CC_DESIGN_APPROVAL ( #174, ( #103 ) ) ;
#146 = APPROVAL ( #230, 'Coincident' ) ;
#147 = SECURITY_CLASSIFICATION_LEVEL ( 'unclassified' ) ;
#148 = APPLICATION_CONTEXT ( 'configuration controlled 3d designs of mechanical parts and assemblies' ) ;
#149 = PERSON_AND_ORGANIZATION ( #18446744073709551615, #18446744073709551615 ) ;
#150 = APPROVAL_PERSON_ORGANIZATION ( #27, #255, #183 ) ;
#151 = APPROVAL_ROLE ( '' ) ;
#152 = EXTERNAL_SOURCE (IDENTIFIER('') ) ;
#153 = APPROVAL_ROLE ( '' ) ;
#154 = COORDINATED_UNIVERSAL_TIME_OFFSET ( 10, 0, .AHEAD. ) ;
#155 = CALENDAR_DATE ( 2026, 22, 6 ) ;
#156 = APPROVAL_ROLE ( '' ) ;
#157 = PERSON ( 'NAUO-PER249', 'UNSPECIFIED', 'UNSPECIFIED', ('UNSPECIFIED'), ('UNSPECIFIED'), ('UNSPECIFIED') ) ;
#158 = APPLICATION_PROTOCOL_DEFINITION ( 'international standard', 'config_control_design', 1994, #18 ) ;
#159 = PERSON_AND_ORGANIZATION ( #18446744073709551615, #18446744073709551615 ) ;
#160 = PROPERTY_DEFINITION ('document property','', #384 ) ;
#161 = COORDINATED_UNIVERSAL_TIME_OFFSET ( 10, 0, .AHEAD. ) ;
#162 = PRODUCT ( '7087915136.step', '7087915136.step', '', ( #131 ) ) ;
#163 = APPROVAL ( #370, 'Coincident' ) ;
#164 = AXIS2_PLACEMENT_3D ( 'NONE', #216, #178, #210 ) ;
#165 = CC_DESIGN_SECURITY_CLASSIFICATION ( #365, ( #267 ) ) ;
#166 = APPLICATION_PROTOCOL_DEFINITION ( 'international standard', 'config_control_design', 1994, #118 ) ;
#167 = COORDINATED_UNIVERSAL_TIME_OFFSET ( 10, 0, .AHEAD. ) ;
#168 = APPROVAL ( #67, 'UNKNOWN' ) ;
#169 = APPROVAL_ROLE ( '' ) ;
#170 = CC_DESIGN_APPROVAL ( #102, ( #59 ) ) ;
#171 = ITEM_DEFINED_TRANSFORMATION ( 'NONE', 'NONE', #78,  #164 ) ;
#172 = PERSON_AND_ORGANIZATION ( #18446744073709551615, #18446744073709551615 ) ;
#173 = PERSON_AND_ORGANIZATION ( #18446744073709551615, #18446744073709551615 ) ;
#174 = APPROVAL ( #234, 'UNKNOWN' ) ;
#175 = DIRECTION ( 'NONE',  ( 1.000000000000000222, -1.092455418989176591E-28, 4.890937612370273194E-29 ) ) ;
#176 = CC_DESIGN_PERSON_AND_ORGANIZATION_ASSIGNMENT ( #149, #185, ( #365 ) ) ;
#177 = PERSON_AND_ORGANIZATION_ROLE ( 'classification_officer' ) ;
#178 = DIRECTION ( 'NONE',  ( 0.000000000000000000, 0.000000000000000000, 1.000000000000000000 ) ) ;
#179 = APPLICATION_CONTEXT ( 'configuration controlled 3d designs of mechanical parts and assemblies' ) ;
#180 = CC_DESIGN_PERSON_AND_ORGANIZATION_ASSIGNMENT ( #134, #259, ( #252 ) ) ;
#181 = CC_DESIGN_APPROVAL ( #305, ( #252 ) ) ;
#182 = CALENDAR_DATE ( 2026, 22, 6 ) ;
#183 = APPROVAL_ROLE ( '' ) ;
#184 =( NAMED_UNIT ( * ) PLANE_ANGLE_UNIT ( ) SI_UNIT ( $, .RADIAN. ) );
#185 = PERSON_AND_ORGANIZATION_ROLE ( 'classification_officer' ) ;
#186 = PERSON_AND_ORGANIZATION_ROLE ( 'design_owner' ) ;
#187 = DATE_AND_TIME ( #192, #91 ) ;
#188 =( LENGTH_UNIT ( ) NAMED_UNIT ( * ) SI_UNIT ( .MILLI., .METRE. ) );
#189 = CC_DESIGN_PERSON_AND_ORGANIZATION_ASSIGNMENT ( #215, #330, ( #103 ) ) ;
#190 = APPROVAL ( #196, 'Coincident' ) ;
#191 = SECURITY_CLASSIFICATION_LEVEL ( 'unclassified' ) ;
#192 = CALENDAR_DATE ( 2026, 22, 6 ) ;
#193 = DATE_TIME_ROLE ( 'classification_date' ) ;
#194 = LOCAL_TIME ( 18, 49, 59.00000000000000000, #313 ) ;
#195 = LOCAL_TIME ( 18, 49, 59.00000000000000000, #7 ) ;
#196 = APPROVAL_STATUS ( 'not_yet_approved' ) ;
#197 = PRODUCT_DEFINITION_SHAPE ( 'NONE', 'NONE',  #388 ) ;
#198 = DATE_TIME_ROLE ( 'creation_date' ) ;
#199 = PERSON_AND_ORGANIZATION ( #18446744073709551615, #18446744073709551615 ) ;
#200 = CC_DESIGN_APPROVAL ( #94, ( #267 ) ) ;
#201 = LOCAL_TIME ( 18, 49, 59.00000000000000000, #340 ) ;
#202 = APPROVAL_PERSON_ORGANIZATION ( #337, #168, #127 ) ;
#203 = CALENDAR_DATE ( 2026, 22, 6 ) ;
#204 = PERSON_AND_ORGANIZATION ( #18446744073709551615, #18446744073709551615 ) ;
#205 = DATE_AND_TIME ( #85, #138 ) ;
#206 = DIRECTION ( 'NONE',  ( 1.000000000000000000, 0.000000000000000000, 0.000000000000000000 ) ) ;
#207 = APPROVAL_PERSON_ORGANIZATION ( #256, #163, #151 ) ;
#208 = LOCAL_TIME ( 18, 49, 59.00000000000000000, #20 ) ;
#209 = PERSON_AND_ORGANIZATION_ROLE ( 'design_supplier' ) ;
#210 = DIRECTION ( 'NONE',  ( 1.000000000000000000, 0.000000000000000000, 0.000000000000000000 ) ) ;
#211 = COORDINATED_UNIVERSAL_TIME_OFFSET ( 10, 0, .AHEAD. ) ;
#212 = SECURITY_CLASSIFICATION_LEVEL ( 'unclassified' ) ;
#213 = CARTESIAN_POINT ( 'NONE',  ( 0.000000000000000000, 0.000000000000000000, 0.000000000000000000 ) ) ;
#214 = CC_DESIGN_SECURITY_CLASSIFICATION ( #59, ( #252 ) ) ;
#215 = PERSON_AND_ORGANIZATION ( #157, #327 ) ;
#216 = CARTESIAN_POINT ( 'NONE',  ( 0.000000000000000000, 0.000000000000000000, 0.000000000000000000 ) ) ;
#217 = PERSON_AND_ORGANIZATION_ROLE ( 'creator' ) ;
#218 = PROPERTY_DEFINITION_REPRESENTATION ( #227, #237 ) ;
#219 = PERSON_AND_ORGANIZATION_ROLE ( 'design_owner' ) ;
#220 =( NAMED_UNIT ( * ) SI_UNIT ( $, .STERADIAN. ) SOLID_ANGLE_UNIT ( ) );
#221 = LOCAL_TIME ( 18, 49, 59.00000000000000000, #56 ) ;
#222 = DOCUMENT_TYPE ( 'geometry' ) ;
#223 = DATE_AND_TIME ( #14, #371 ) ;
#224 = DATE_TIME_ROLE ( 'creation_date' ) ;
#225 = APPROVAL_ROLE ( '' ) ;
#226 = CC_DESIGN_APPROVAL ( #168, ( #268 ) ) ;
#227 = PROPERTY_DEFINITION ('document property','', #123 ) ;
#228 = PERSON_AND_ORGANIZATION_ROLE ( 'classification_officer' ) ;
#229 = PRODUCT_DEFINITION_SHAPE ( 'NONE', 'NONE',  #293 ) ;
#230 = APPROVAL_STATUS ( 'not_yet_approved' ) ;
#231 = PERSON_AND_ORGANIZATION ( #18446744073709551615, #18446744073709551615 ) ;
#232 = LOCAL_TIME ( 18, 49, 59.00000000000000000, #161 ) ;
#233 = COORDINATED_UNIVERSAL_TIME_OFFSET ( 10, 0, .AHEAD. ) ;
#234 = APPROVAL_STATUS ( 'not_yet_approved' ) ;
#235 = PRODUCT_RELATED_PRODUCT_CATEGORY ( 'detail', '', ( #46 ) ) ;
#236 = APPROVAL_DATE_TIME ( #140, #174 ) ;
#237 = SHAPE_REPRESENTATION ( '7087914976.step', ( #124 ), #89 ) ;
#238 = CARTESIAN_POINT ( 'NONE',  ( 9.149998718232001949, 3.749996459961005169, -2.058321952820000078 ) ) ;
#239 = CC_DESIGN_PERSON_AND_ORGANIZATION_ASSIGNMENT ( #172, #186, ( #349 ) ) ;
#240 =( REPRESENTATION_RELATIONSHIP ('NONE','NONE', #386, #237 ) REPRESENTATION_RELATIONSHIP_WITH_TRANSFORMATION ( #32 )SHAPE_REPRESENTATION_RELATIONSHIP( ) );
#241 = CONTEXT_DEPENDENT_SHAPE_REPRESENTATION ( #283, #347 ) ;
#242 = ITEM_DEFINED_TRANSFORMATION ( 'NONE', 'NONE', #41,  #124 ) ;
#243 = CC_DESIGN_DATE_AND_TIME_ASSIGNMENT ( #187, #93, ( #268 ) ) ;
#244 = LOCAL_TIME ( 18, 49, 59.00000000000000000, #167 ) ;
#245 = DESIGN_CONTEXT ( 'detailed design', #179, 'design' ) ;
#246 = DATE_AND_TIME ( #65, #195 ) ;
#247 = PERSON_AND_ORGANIZATION ( #18446744073709551615, #18446744073709551615 ) ;
#248 = PROPERTY_DEFINITION ('external definition','', #281 ) ;
#249 = CC_DESIGN_PERSON_AND_ORGANIZATION_ASSIGNMENT ( #344, #251, ( #267 ) ) ;
#250 = APPROVAL_DATE_TIME ( #246, #168 ) ;
#251 = PERSON_AND_ORGANIZATION_ROLE ( 'design_supplier' ) ;
#252 = PRODUCT_DEFINITION_FORMATION_WITH_SPECIFIED_SOURCE ( 'Symmetric', '', #162, .NOT_KNOWN. ) ;
#253 = CALENDAR_DATE ( 2026, 22, 6 ) ;
#254 = SECURITY_CLASSIFICATION_LEVEL ( 'unclassified' ) ;
#255 = APPROVAL ( #114, 'Coincident' ) ;
#256 = PERSON_AND_ORGANIZATION ( #18446744073709551615, #18446744073709551615 ) ;
#257 = APPROVAL_STATUS ( 'not_yet_approved' ) ;
#258 = PRODUCT_DEFINITION_SHAPE ( 'NONE', 'NONE',  #295 ) ;
#259 = PERSON_AND_ORGANIZATION_ROLE ( 'creator' ) ;
#260 = APPLIED_EXTERNAL_IDENTIFICATION_ASSIGNMENT ( '7087914976.step.STEP' , #76, #55,( #281) ) ;
#261 = CALENDAR_DATE ( 2026, 22, 6 ) ;
#262 = CC_DESIGN_PERSON_AND_ORGANIZATION_ASSIGNMENT ( #331, #57, ( #345 ) ) ;
#263 = PRODUCT_DEFINITION ( 'General', '', #252, #31 ) ;
#264 = DATE_AND_TIME ( #15, #29 ) ;
#265 = DOCUMENT_TYPE ( 'geometry' ) ;
#266 = APPLICATION_PROTOCOL_DEFINITION ( 'international standard', 'config_control_design', 1994, #369 ) ;
#267 = PRODUCT_DEFINITION_FORMATION_WITH_SPECIFIED_SOURCE ( 'Symmetric', '', #349, .NOT_KNOWN. ) ;
#268 = SECURITY_CLASSIFICATION ( '', '', #254 ) ;
#269 = COORDINATED_UNIVERSAL_TIME_OFFSET ( 10, 0, .AHEAD. ) ;
#270 = PERSON_AND_ORGANIZATION ( #383, #42 ) ;
#271 = DIRECTION ( 'NONE',  ( 1.000000000000000222, -1.092455418989176591E-28, 4.890937612370273194E-29 ) ) ;
#272 = CALENDAR_DATE ( 2026, 22, 6 ) ;
#273 = CC_DESIGN_SECURITY_CLASSIFICATION ( #372, ( #389 ) ) ;
#274 = SECURITY_CLASSIFICATION_LEVEL ( 'unclassified' ) ;
#275 = COORDINATED_UNIVERSAL_TIME_OFFSET ( 10, 0, .AHEAD. ) ;
#276 = CARTESIAN_POINT ( 'NONE',  ( 0.000000000000000000, 0.000000000000000000, 0.000000000000000000 ) ) ;
#277 =( NAMED_UNIT ( * ) SI_UNIT ( $, .STERADIAN. ) SOLID_ANGLE_UNIT ( ) );
#278 = PERSON ( 'NAUO-PER251', 'UNSPECIFIED', 'UNSPECIFIED', ('UNSPECIFIED'), ('UNSPECIFIED'), ('UNSPECIFIED') ) ;
#279 = CC_DESIGN_APPROVAL ( #255, ( #345 ) ) ;
#280 = APPROVAL_STATUS ( 'not_yet_approved' ) ;
#281 = DOCUMENT_FILE ( '7087914976.step.STEP' , '', '', #222, '' ,$ ) ;
#282 = DIRECTION ( 'NONE',  ( 4.890937612370273194E-29, -3.155443620884047222E-30, 0.9999999999999997780 ) ) ;
#283 =( REPRESENTATION_RELATIONSHIP ('NONE','NONE', #386, #60 ) REPRESENTATION_RELATIONSHIP_WITH_TRANSFORMATION ( #171 )SHAPE_REPRESENTATION_RELATIONSHIP( ) );
#284 = AXIS2_PLACEMENT_3D ( 'NONE', #213, #13, #286 ) ;
#285 = LOCAL_TIME ( 18, 49, 59.00000000000000000, #352 ) ;
#286 = DIRECTION ( 'NONE',  ( 1.000000000000000000, 0.000000000000000000, 0.000000000000000000 ) ) ;
#287 = COORDINATED_UNIVERSAL_TIME_OFFSET ( 10, 0, .AHEAD. ) ;
#288 = PROPERTY_DEFINITION ('external definition','', #123 ) ;
#289 = COORDINATED_UNIVERSAL_TIME_OFFSET ( 10, 0, .AHEAD. ) ;
#290 = APPROVAL ( #136, 'Coincident' ) ;
#291 = APPROVAL_ROLE ( '' ) ;
#292 = APPROVAL_PERSON_ORGANIZATION ( #199, #290, #225 ) ;
#293 = PRODUCT_DEFINITION ( 'General', '', #267, #245 ) ;
#294 = APPROVAL_STATUS ( 'not_yet_approved' ) ;
#295 = PRODUCT_DEFINITION ( 'General', '', #35, #125 ) ;
#296 = APPROVAL_ROLE ( '' ) ;
#297 = PERSON_AND_ORGANIZATION ( #18446744073709551615, #18446744073709551615 ) ;
#298 = APPROVAL_DATE_TIME ( #115, #105 ) ;
#299 = DIRECTION ( 'NONE',  ( 4.890937612370273194E-29, -3.155443620884047222E-30, 0.9999999999999997780 ) ) ;
#300 = PERSON_AND_ORGANIZATION_ROLE ( 'creator' ) ;
#301 = DATE_AND_TIME ( #182, #117 ) ;
#302 = UNCERTAINTY_MEASURE_WITH_UNIT (LENGTH_MEASURE( 1.000000000000000082E-05 ), #188, 'distance_accuracy_value', 'NONE');
#303 =( REPRESENTATION_RELATIONSHIP ('NONE','NONE', #386, #237 ) REPRESENTATION_RELATIONSHIP_WITH_TRANSFORMATION ( #242 )SHAPE_REPRESENTATION_RELATIONSHIP( ) );
#304 = LOCAL_TIME ( 18, 49, 59.00000000000000000, #48 ) ;
#305 = APPROVAL ( #80, 'Coincident' ) ;
#306 = DATE_AND_TIME ( #272, #339 ) ;
#307 = APPROVAL_STATUS ( 'not_yet_approved' ) ;
#308 = CC_DESIGN_PERSON_AND_ORGANIZATION_ASSIGNMENT ( #173, #300, ( #35 ) ) ;
#309 = PERSON_AND_ORGANIZATION ( #18446744073709551615, #18446744073709551615 ) ;
#310 = CC_DESIGN_SECURITY_CLASSIFICATION ( #345, ( #35 ) ) ;
#311 = ROLE_ASSOCIATION ( #64, #368 ) ;
#312 = APPROVAL_DATE_TIME ( #98, #163 ) ;
#313 = COORDINATED_UNIVERSAL_TIME_OFFSET ( 10, 0, .AHEAD. ) ;
#314 = DATE_AND_TIME ( #9, #201 ) ;
#315 = ORGANIZATION ( 'NAUO-ORG251', 'UNSPECIFIED', 'UNSPECIFIED' ) ;
#316 = DATE_AND_TIME ( #126, #16 ) ;
#317 = CC_DESIGN_DATE_AND_TIME_ASSIGNMENT ( #73, #82, ( #59 ) ) ;
#318 = DATE_AND_TIME ( #346, #304 ) ;
#319 = COORDINATED_UNIVERSAL_TIME_OFFSET ( 10, 0, .AHEAD. ) ;
#320 = DATE_AND_TIME ( #139, #285 ) ;
#321 = CC_DESIGN_APPROVAL ( #146, ( #295 ) ) ;
#322 = OBJECT_ROLE ('mandatory',$ ) ;
#323 = DATE_AND_TIME ( #380, #366 ) ;
#324 = DATE_AND_TIME ( #203, #232 ) ;
#325 = APPROVAL_DATE_TIME ( #301, #255 ) ;
#326 = APPROVAL_PERSON_ORGANIZATION ( #44, #190, #108 ) ;
#327 = ORGANIZATION ( 'NAUO-ORG249', 'UNSPECIFIED', 'UNSPECIFIED' ) ;
#328 = DATE_TIME_ROLE ( 'classification_date' ) ;
#329 = DIRECTION ( 'NONE',  ( 4.890937612370273194E-29, -3.155443620884047222E-30, 0.9999999999999997780 ) ) ;
#330 = PERSON_AND_ORGANIZATION_ROLE ( 'classification_officer' ) ;
#331 = PERSON_AND_ORGANIZATION ( #18446744073709551615, #18446744073709551615 ) ;
#332 = UNCERTAINTY_MEASURE_WITH_UNIT (LENGTH_MEASURE( 1.000000000000000082E-05 ), #5, 'distance_accuracy_value', 'NONE');
#333 = CC_DESIGN_PERSON_AND_ORGANIZATION_ASSIGNMENT ( #297, #21, ( #295 ) ) ;
#334 = CC_DESIGN_APPROVAL ( #105, ( #372 ) ) ;
#335 = ROLE_ASSOCIATION ( #341, #30 ) ;
#336 = COORDINATED_UNIVERSAL_TIME_OFFSET ( 10, 0, .AHEAD. ) ;
#337 = PERSON_AND_ORGANIZATION ( #278, #315 ) ;
#338 = APPLICATION_PROTOCOL_DEFINITION ( 'international standard', 'config_control_design', 1994, #96 ) ;
#339 = LOCAL_TIME ( 18, 49, 59.00000000000000000, #211 ) ;
#340 = COORDINATED_UNIVERSAL_TIME_OFFSET ( 10, 0, .AHEAD. ) ;
#341 = OBJECT_ROLE ('mandatory',$ ) ;
#342 = APPROVAL_DATE_TIME ( #223, #94 ) ;
#343 = CC_DESIGN_PERSON_AND_ORGANIZATION_ASSIGNMENT ( #34, #11, ( #293 ) ) ;
#344 = PERSON_AND_ORGANIZATION ( #18446744073709551615, #18446744073709551615 ) ;
#345 = SECURITY_CLASSIFICATION ( '', '', #212 ) ;
#346 = CALENDAR_DATE ( 2026, 22, 6 ) ;
#347 = PRODUCT_DEFINITION_SHAPE ( 'NONE', 'NONE',  #389 ) ;
#348 = SHAPE_DEFINITION_REPRESENTATION ( #107, #60 ) ;
#349 = PRODUCT ( 'C6.step', 'C6.step', '', ( #90 ) ) ;
#350 = DOCUMENT_TYPE ( 'geometry' ) ;
#351 = PRODUCT_DEFINITION_SHAPE ( 'NONE', 'NONE',  #390 ) ;
#352 = COORDINATED_UNIVERSAL_TIME_OFFSET ( 10, 0, .AHEAD. ) ;
#353 = PERSON_AND_ORGANIZATION_ROLE ( 'design_owner' ) ;
#354 = APPROVAL_PERSON_ORGANIZATION ( #104, #102, #296 ) ;
#355 = APPROVAL_DATE_TIME ( #49, #146 ) ;
#356 = APPLIED_DOCUMENT_REFERENCE ( #384,'',( #263) ) ;
#357 = CALENDAR_DATE ( 2026, 22, 6 ) ;
#358 = LOCAL_TIME ( 18, 49, 59.00000000000000000, #269 ) ;
#359 = CALENDAR_DATE ( 2026, 22, 6 ) ;
#360 = UNCERTAINTY_MEASURE_WITH_UNIT (LENGTH_MEASURE( 1.000000000000000082E-05 ), #2, 'distance_accuracy_value', 'NONE');
#361 = CC_DESIGN_PERSON_AND_ORGANIZATION_ASSIGNMENT ( #159, #75, ( #252 ) ) ;
#362 =( NAMED_UNIT ( * ) SI_UNIT ( $, .STERADIAN. ) SOLID_ANGLE_UNIT ( ) );
#363 = IDENTIFICATION_ROLE ( 'external document id and location', $) ;
#364 = CALENDAR_DATE ( 2026, 22, 6 ) ;
#365 = SECURITY_CLASSIFICATION ( '', '', #191 ) ;
#366 = LOCAL_TIME ( 18, 49, 59.00000000000000000, #319 ) ;
#367 = PROPERTY_DEFINITION ('document property','', #281 ) ;
#368 = APPLIED_DOCUMENT_REFERENCE ( #123,'',( #295) ) ;
#369 = APPLICATION_CONTEXT ( 'configuration controlled 3d designs of mechanical parts and assemblies' ) ;
#370 = APPROVAL_STATUS ( 'not_yet_approved' ) ;
#371 = LOCAL_TIME ( 18, 49, 59.00000000000000000, #336 ) ;
#372 = SECURITY_CLASSIFICATION ( '', '', #147 ) ;
#373 = CC_DESIGN_DATE_AND_TIME_ASSIGNMENT ( #324, #198, ( #263 ) ) ;
#374 = CARTESIAN_POINT ( 'NONE',  ( 9.503552490205002812, 4.103550231933997594, -2.058321952820000078 ) ) ;
#375 = DATE_AND_TIME ( #155, #143 ) ;
#376 = DATE_TIME_ROLE ( 'creation_date' ) ;
#377 = APPROVAL_PERSON_ORGANIZATION ( #379, #146, #169 ) ;
#378 = PERSON_AND_ORGANIZATION ( #18446744073709551615, #18446744073709551615 ) ;
#379 = PERSON_AND_ORGANIZATION ( #18446744073709551615, #18446744073709551615 ) ;
#380 = CALENDAR_DATE ( 2026, 22, 6 ) ;
#381 = CALENDAR_DATE ( 2026, 22, 6 ) ;
#382 = CC_DESIGN_SECURITY_CLASSIFICATION ( #268, ( #390 ) ) ;
#383 = PERSON ( 'NAUO-PER250', 'UNSPECIFIED', 'UNSPECIFIED', ('UNSPECIFIED'), ('UNSPECIFIED'), ('UNSPECIFIED') ) ;
#384 = DOCUMENT_FILE ( '7087915136.step.STEP' , '', '', #265, '' ,$ ) ;
#385 = DATE_TIME_ROLE ( 'classification_date' ) ;
#386 = SHAPE_REPRESENTATION ( 'C6.step', ( #284, #130, #78, #41 ), #58 ) ;
#387 = LOCAL_TIME ( 18, 49, 59.00000000000000000, #88 ) ;
#388 = NEXT_ASSEMBLY_USAGE_OCCURRENCE ( 'NAUO249', ' ', ' ', #293, #295, $ ) ;
#389 = NEXT_ASSEMBLY_USAGE_OCCURRENCE ( 'NAUO250', ' ', ' ', #293, #263, $ ) ;
#390 = NEXT_ASSEMBLY_USAGE_OCCURRENCE ( 'NAUO251', ' ', ' ', #293, #295, $ ) ;
ENDSEC;
END-ISO-10303-21;
