ISO-10303-21;
HEADER;
FILE_DESCRIPTION (( 'STEP AP203' ),
    '1' );
FILE_NAME ('C7.step.STEP',
    '2026-06-22T08:50:00',
    ( 'localuser' ),
    ( '' ),
    'SwSTEP 2.0',
    'SolidWorks 2025',
    '' );
FILE_SCHEMA (( 'CONFIG_CONTROL_DESIGN' ));
ENDSEC;

DATA;
#1 = PERSON_AND_ORGANIZATION ( #18446744073709551615, #18446744073709551615 ) ;
#2 = APPROVAL ( #149, 'Coincident' ) ;
#3 = COORDINATED_UNIVERSAL_TIME_OFFSET ( 10, 0, .AHEAD. ) ;
#4 = APPLIED_EXTERNAL_IDENTIFICATION_ASSIGNMENT ( '6461082896.step.STEP' , #224, #19,( #328) ) ;
#5 = APPROVAL_STATUS ( 'not_yet_approved' ) ;
#6 = PRODUCT_RELATED_PRODUCT_CATEGORY ( 'detail', '', ( #347 ) ) ;
#7 = PERSON ( 'NAUO-PER281', 'UNSPECIFIED', 'UNSPECIFIED', ('UNSPECIFIED'), ('UNSPECIFIED'), ('UNSPECIFIED') ) ;
#8 = CALENDAR_DATE ( 2026, 22, 6 ) ;
#9 = PERSON_AND_ORGANIZATION_ROLE ( 'creator' ) ;
#10 = AXIS2_PLACEMENT_3D ( 'NONE', #325, #378, #174 ) ;
#11 = LOCAL_TIME ( 18, 50, 0.000000000000000000, #364 ) ;
#12 = PERSON_AND_ORGANIZATION_ROLE ( 'design_owner' ) ;
#13 = APPROVAL_ROLE ( '' ) ;
#14 = PROPERTY_DEFINITION ('external definition','', #75 ) ;
#15 = PERSON_AND_ORGANIZATION_ROLE ( 'design_supplier' ) ;
#16 =( NAMED_UNIT ( * ) SI_UNIT ( $, .STERADIAN. ) SOLID_ANGLE_UNIT ( ) );
#17 = COORDINATED_UNIVERSAL_TIME_OFFSET ( 10, 0, .AHEAD. ) ;
#18 = PRODUCT_DEFINITION_FORMATION_WITH_SPECIFIED_SOURCE ( 'Symmetric', '', #168, .NOT_KNOWN. ) ;
#19 = EXTERNAL_SOURCE (IDENTIFIER('') ) ;
#20 = CC_DESIGN_DATE_AND_TIME_ASSIGNMENT ( #205, #46, ( #57 ) ) ;
#21 = APPLIED_DOCUMENT_REFERENCE ( #75,'',( #318) ) ;
#22 =( NAMED_UNIT ( * ) SI_UNIT ( $, .STERADIAN. ) SOLID_ANGLE_UNIT ( ) );
#23 = DATE_TIME_ROLE ( 'classification_date' ) ;
#24 = LOCAL_TIME ( 18, 50, 0.000000000000000000, #97 ) ;
#25 = CALENDAR_DATE ( 2026, 22, 6 ) ;
#26 = CC_DESIGN_DATE_AND_TIME_ASSIGNMENT ( #301, #30, ( #209 ) ) ;
#27 = APPROVAL ( #76, 'UNKNOWN' ) ;
#28 = PERSON_AND_ORGANIZATION_ROLE ( 'classification_officer' ) ;
#29 = COORDINATED_UNIVERSAL_TIME_OFFSET ( 10, 0, .AHEAD. ) ;
#30 = DATE_TIME_ROLE ( 'classification_date' ) ;
#31 = LOCAL_TIME ( 18, 50, 0.000000000000000000, #148 ) ;
#32 = CC_DESIGN_APPROVAL ( #77, ( #193 ) ) ;
#33 = CC_DESIGN_APPROVAL ( #141, ( #18 ) ) ;
#34 = DATE_AND_TIME ( #25, #88 ) ;
#35 = UNCERTAINTY_MEASURE_WITH_UNIT (LENGTH_MEASURE( 1.000000000000000082E-05 ), #199, 'distance_accuracy_value', 'NONE');
#36 = CC_DESIGN_DATE_AND_TIME_ASSIGNMENT ( #100, #41, ( #173 ) ) ;
#37 = PERSON_AND_ORGANIZATION ( #18446744073709551615, #18446744073709551615 ) ;
#38 = APPROVAL ( #218, 'Coincident' ) ;
#39 = CALENDAR_DATE ( 2026, 22, 6 ) ;
#40 = LOCAL_TIME ( 18, 50, 0.000000000000000000, #48 ) ;
#41 = DATE_TIME_ROLE ( 'creation_date' ) ;
#42 = APPLICATION_CONTEXT ( 'configuration controlled 3d designs of mechanical parts and assemblies' ) ;
#43 = APPROVAL_DATE_TIME ( #368, #247 ) ;
#44 = COORDINATED_UNIVERSAL_TIME_OFFSET ( 10, 0, .AHEAD. ) ;
#45 = CC_DESIGN_APPROVAL ( #38, ( #318 ) ) ;
#46 = DATE_TIME_ROLE ( 'classification_date' ) ;
#47 = CC_DESIGN_DATE_AND_TIME_ASSIGNMENT ( #190, #136, ( #318 ) ) ;
#48 = COORDINATED_UNIVERSAL_TIME_OFFSET ( 10, 0, .AHEAD. ) ;
#49 = PRODUCT_DEFINITION_SHAPE ( 'NONE', 'NONE',  #390 ) ;
#50 = PERSON_AND_ORGANIZATION_ROLE ( 'classification_officer' ) ;
#51 = PRODUCT_DEFINITION_SHAPE ( 'NONE', 'NONE',  #318 ) ;
#52 = CC_DESIGN_APPROVAL ( #111, ( #209 ) ) ;
#53 = ITEM_DEFINED_TRANSFORMATION ( 'NONE', 'NONE', #151,  #122 ) ;
#54 = UNCERTAINTY_MEASURE_WITH_UNIT (LENGTH_MEASURE( 1.000000000000000082E-05 ), #324, 'distance_accuracy_value', 'NONE');
#55 = DIRECTION ( 'NONE',  ( 1.000000000000000000, 0.000000000000000000, 0.000000000000000000 ) ) ;
#56 = CARTESIAN_POINT ( 'NONE',  ( 10.02499490353499922, 14.54999951171900108, 0.000000000000000000 ) ) ;
#57 = SECURITY_CLASSIFICATION ( '', '', #107 ) ;
#58 = COORDINATED_UNIVERSAL_TIME_OFFSET ( 10, 0, .AHEAD. ) ;
#59 = APPLICATION_CONTEXT ( 'configuration controlled 3d designs of mechanical parts and assemblies' ) ;
#60 = PERSON_AND_ORGANIZATION_ROLE ( 'classification_officer' ) ;
#61 = DATE_TIME_ROLE ( 'classification_date' ) ;
#62 = DATE_AND_TIME ( #332, #69 ) ;
#63 = LOCAL_TIME ( 18, 50, 0.000000000000000000, #3 ) ;
#64 = PERSON_AND_ORGANIZATION ( #18446744073709551615, #18446744073709551615 ) ;
#65 = COORDINATED_UNIVERSAL_TIME_OFFSET ( 10, 0, .AHEAD. ) ;
#66 = APPROVAL ( #155, 'Coincident' ) ;
#67 = DATE_AND_TIME ( #372, #140 ) ;
#68 = CC_DESIGN_PERSON_AND_ORGANIZATION_ASSIGNMENT ( #277, #9, ( #18 ) ) ;
#69 = LOCAL_TIME ( 18, 50, 0.000000000000000000, #215 ) ;
#70 = PERSON_AND_ORGANIZATION ( #18446744073709551615, #18446744073709551615 ) ;
#71 = APPROVAL_DATE_TIME ( #101, #38 ) ;
#72 = CC_DESIGN_PERSON_AND_ORGANIZATION_ASSIGNMENT ( #139, #241, ( #261 ) ) ;
#73 = APPROVAL_STATUS ( 'not_yet_approved' ) ;
#74 = APPROVAL_PERSON_ORGANIZATION ( #138, #290, #13 ) ;
#75 = DOCUMENT_FILE ( '6461082896.step.STEP' , '', '', #302, '' ,$ ) ;
#76 = APPROVAL_STATUS ( 'not_yet_approved' ) ;
#77 = APPROVAL ( #73, 'Coincident' ) ;
#78 = CONTEXT_DEPENDENT_SHAPE_REPRESENTATION ( #201, #196 ) ;
#79 =( REPRESENTATION_RELATIONSHIP ('NONE','NONE', #306, #385 ) REPRESENTATION_RELATIONSHIP_WITH_TRANSFORMATION ( #265 )SHAPE_REPRESENTATION_RELATIONSHIP( ) );
#80 = APPROVAL_PERSON_ORGANIZATION ( #334, #2, #126 ) ;
#81 = PROPERTY_DEFINITION_REPRESENTATION ( #14, #385 ) ;
#82 = ORGANIZATION ( 'NAUO-ORG280', 'UNSPECIFIED', 'UNSPECIFIED' ) ;
#83 = DIRECTION ( 'NONE',  ( 0.000000000000000000, 0.000000000000000000, 1.000000000000000000 ) ) ;
#84 = CALENDAR_DATE ( 2026, 22, 6 ) ;
#85 = CARTESIAN_POINT ( 'NONE',  ( 0.000000000000000000, 0.000000000000000000, 0.000000000000000000 ) ) ;
#86 = APPROVAL_DATE_TIME ( #34, #281 ) ;
#87 = APPLICATION_PROTOCOL_DEFINITION ( 'international standard', 'config_control_design', 1994, #42 ) ;
#88 = LOCAL_TIME ( 18, 50, 0.000000000000000000, #330 ) ;
#89 = DESIGN_CONTEXT ( 'detailed design', #124, 'design' ) ;
#90 = PERSON_AND_ORGANIZATION ( #18446744073709551615, #18446744073709551615 ) ;
#91 = APPROVAL_ROLE ( '' ) ;
#92 = SECURITY_CLASSIFICATION_LEVEL ( 'unclassified' ) ;
#93 = COORDINATED_UNIVERSAL_TIME_OFFSET ( 10, 0, .AHEAD. ) ;
#94 = CC_DESIGN_SECURITY_CLASSIFICATION ( #248, ( #193 ) ) ;
#95 = SHAPE_REPRESENTATION ( '6461083056.step', ( #122 ), #134 ) ;
#96 = PRODUCT_RELATED_PRODUCT_CATEGORY ( 'detail', '', ( #168 ) ) ;
#97 = COORDINATED_UNIVERSAL_TIME_OFFSET ( 10, 0, .AHEAD. ) ;
#98 = CC_DESIGN_PERSON_AND_ORGANIZATION_ASSIGNMENT ( #90, #60, ( #209 ) ) ;
#99 = CC_DESIGN_PERSON_AND_ORGANIZATION_ASSIGNMENT ( #138, #232, ( #103 ) ) ;
#100 = DATE_AND_TIME ( #185, #234 ) ;
#101 = DATE_AND_TIME ( #8, #223 ) ;
#102 = APPLICATION_CONTEXT ( 'configuration controlled 3d designs of mechanical parts and assemblies' ) ;
#103 = SECURITY_CLASSIFICATION ( '', '', #352 ) ;
#104 = PERSON_AND_ORGANIZATION_ROLE ( 'creator' ) ;
#105 = APPROVAL_ROLE ( '' ) ;
#106 = CC_DESIGN_PERSON_AND_ORGANIZATION_ASSIGNMENT ( #37, #272, ( #168 ) ) ;
#107 = SECURITY_CLASSIFICATION_LEVEL ( 'unclassified' ) ;
#108 = CC_DESIGN_SECURITY_CLASSIFICATION ( #228, ( #18 ) ) ;
#109 = PROPERTY_DEFINITION ('document property','', #75 ) ;
#110 = DIRECTION ( 'NONE',  ( 4.890937612370273194E-29, -3.155443620884047222E-30, 0.9999999999999997780 ) ) ;
#111 = APPROVAL ( #245, 'Coincident' ) ;
#112 = CALENDAR_DATE ( 2026, 22, 6 ) ;
#113 = PRODUCT_DEFINITION_SHAPE ( 'NONE', 'NONE',  #173 ) ;
#114 = DOCUMENT_FILE ( '6461083056.step.STEP' , '', '', #348, '' ,$ ) ;
#115 = CARTESIAN_POINT ( 'NONE',  ( 0.000000000000000000, 0.000000000000000000, 0.000000000000000000 ) ) ;
#116 = LOCAL_TIME ( 18, 50, 0.000000000000000000, #58 ) ;
#117 = SECURITY_CLASSIFICATION_LEVEL ( 'unclassified' ) ;
#118 = LOCAL_TIME ( 18, 50, 0.000000000000000000, #380 ) ;
#119 = ROLE_ASSOCIATION ( #297, #210 ) ;
#120 = CALENDAR_DATE ( 2026, 22, 6 ) ;
#121 = DIRECTION ( 'NONE',  ( 0.000000000000000000, 0.000000000000000000, 1.000000000000000000 ) ) ;
#122 = AXIS2_PLACEMENT_3D ( 'NONE', #115, #351, #293 ) ;
#123 = PERSON_AND_ORGANIZATION ( #18446744073709551615, #18446744073709551615 ) ;
#124 = APPLICATION_CONTEXT ( 'configuration controlled 3d designs of mechanical parts and assemblies' ) ;
#125 = PRODUCT_RELATED_PRODUCT_CATEGORY ( 'detail', '', ( #261 ) ) ;
#126 = APPROVAL_ROLE ( '' ) ;
#127 = APPROVAL_STATUS ( 'not_yet_approved' ) ;
#128 = UNCERTAINTY_MEASURE_WITH_UNIT (LENGTH_MEASURE( 1.000000000000000082E-05 ), #362, 'distance_accuracy_value', 'NONE');
#129 = APPROVAL_ROLE ( '' ) ;
#130 = CC_DESIGN_APPROVAL ( #27, ( #57 ) ) ;
#131 = CALENDAR_DATE ( 2026, 22, 6 ) ;
#132 = PERSON_AND_ORGANIZATION ( #18446744073709551615, #18446744073709551615 ) ;
#133 = PERSON_AND_ORGANIZATION ( #18446744073709551615, #18446744073709551615 ) ;
#134 =( GEOMETRIC_REPRESENTATION_CONTEXT ( 3 ) GLOBAL_UNCERTAINTY_ASSIGNED_CONTEXT ( ( #54 ) ) GLOBAL_UNIT_ASSIGNED_CONTEXT ( ( #324, #295, #16 ) ) REPRESENTATION_CONTEXT ( 'NONE', 'WORKASPACE' ) );
#135 = LOCAL_TIME ( 18, 50, 0.000000000000000000, #44 ) ;
#136 = DATE_TIME_ROLE ( 'creation_date' ) ;
#137 = CONTEXT_DEPENDENT_SHAPE_REPRESENTATION ( #79, #350 ) ;
#138 = PERSON_AND_ORGANIZATION ( #384, #365 ) ;
#139 = PERSON_AND_ORGANIZATION ( #18446744073709551615, #18446744073709551615 ) ;
#140 = LOCAL_TIME ( 18, 50, 0.000000000000000000, #65 ) ;
#141 = APPROVAL ( #5, 'Coincident' ) ;
#142 = PERSON_AND_ORGANIZATION ( #18446744073709551615, #18446744073709551615 ) ;
#143 = DOCUMENT_TYPE ( 'geometry' ) ;
#144 = PERSON_AND_ORGANIZATION ( #18446744073709551615, #18446744073709551615 ) ;
#145 = CALENDAR_DATE ( 2026, 22, 6 ) ;
#146 = APPROVAL_STATUS ( 'not_yet_approved' ) ;
#147 = APPROVAL_PERSON_ORGANIZATION ( #336, #66, #285 ) ;
#148 = COORDINATED_UNIVERSAL_TIME_OFFSET ( 10, 0, .AHEAD. ) ;
#149 = APPROVAL_STATUS ( 'not_yet_approved' ) ;
#150 = CONTEXT_DEPENDENT_SHAPE_REPRESENTATION ( #327, #49 ) ;
#151 = AXIS2_PLACEMENT_3D ( 'NONE', #56, #300, #153 ) ;
#152 =( GEOMETRIC_REPRESENTATION_CONTEXT ( 3 ) GLOBAL_UNCERTAINTY_ASSIGNED_CONTEXT ( ( #35 ) ) GLOBAL_UNIT_ASSIGNED_CONTEXT ( ( #199, #374, #22 ) ) REPRESENTATION_CONTEXT ( 'NONE', 'WORKASPACE' ) );
#153 = DIRECTION ( 'NONE',  ( 1.000000000000000222, -1.092455418989176591E-28, 4.890937612370273194E-29 ) ) ;
#154 = PERSON_AND_ORGANIZATION ( #18446744073709551615, #18446744073709551615 ) ;
#155 = APPROVAL_STATUS ( 'not_yet_approved' ) ;
#156 = DATE_AND_TIME ( #39, #24 ) ;
#157 = LOCAL_TIME ( 18, 50, 0.000000000000000000, #93 ) ;
#158 = CC_DESIGN_SECURITY_CLASSIFICATION ( #57, ( #389 ) ) ;
#159 = COORDINATED_UNIVERSAL_TIME_OFFSET ( 10, 0, .AHEAD. ) ;
#160 = SHAPE_DEFINITION_REPRESENTATION ( #113, #95 ) ;
#161 = APPLICATION_PROTOCOL_DEFINITION ( 'international standard', 'config_control_design', 1994, #244 ) ;
#162 = CC_DESIGN_APPROVAL ( #281, ( #262 ) ) ;
#163 = PERSON_AND_ORGANIZATION ( #18446744073709551615, #18446744073709551615 ) ;
#164 = CC_DESIGN_DATE_AND_TIME_ASSIGNMENT ( #225, #369, ( #228 ) ) ;
#165 = DATE_AND_TIME ( #84, #40 ) ;
#166 = CC_DESIGN_PERSON_AND_ORGANIZATION_ASSIGNMENT ( #163, #292, ( #248 ) ) ;
#167 = ITEM_DEFINED_TRANSFORMATION ( 'NONE', 'NONE', #10,  #326 ) ;
#168 = PRODUCT ( '6461083056.step', '6461083056.step', '', ( #183 ) ) ;
#169 = LOCAL_TIME ( 18, 50, 0.000000000000000000, #159 ) ;
#170 = APPROVAL_DATE_TIME ( #165, #27 ) ;
#171 = DESIGN_CONTEXT ( 'detailed design', #42, 'design' ) ;
#172 = PERSON_AND_ORGANIZATION ( #18446744073709551615, #18446744073709551615 ) ;
#173 = PRODUCT_DEFINITION ( 'General', '', #18, #89 ) ;
#174 = DIRECTION ( 'NONE',  ( 1.000000000000000222, -1.092455418989176591E-28, 4.890937612370273194E-29 ) ) ;
#175 = APPROVAL_PERSON_ORGANIZATION ( #64, #239, #386 ) ;
#176 = CC_DESIGN_APPROVAL ( #309, ( #248 ) ) ;
#177 =( NAMED_UNIT ( * ) PLANE_ANGLE_UNIT ( ) SI_UNIT ( $, .RADIAN. ) );
#178 = CALENDAR_DATE ( 2026, 22, 6 ) ;
#179 = CC_DESIGN_PERSON_AND_ORGANIZATION_ASSIGNMENT ( #123, #360, ( #342 ) ) ;
#180 = CALENDAR_DATE ( 2026, 22, 6 ) ;
#181 = APPLICATION_CONTEXT ( 'configuration controlled 3d designs of mechanical parts and assemblies' ) ;
#182 = APPROVAL_DATE_TIME ( #62, #111 ) ;
#183 = MECHANICAL_CONTEXT ( 'NONE', #102, 'mechanical' ) ;
#184 = DATE_AND_TIME ( #131, #169 ) ;
#185 = CALENDAR_DATE ( 2026, 22, 6 ) ;
#186 = APPLIED_EXTERNAL_IDENTIFICATION_ASSIGNMENT ( '6461083056.step.STEP' , #363, #339,( #114) ) ;
#187 = CC_DESIGN_PERSON_AND_ORGANIZATION_ASSIGNMENT ( #357, #28, ( #262 ) ) ;
#188 = PERSON_AND_ORGANIZATION ( #18446744073709551615, #18446744073709551615 ) ;
#189 = CC_DESIGN_PERSON_AND_ORGANIZATION_ASSIGNMENT ( #238, #274, ( #342 ) ) ;
#190 = DATE_AND_TIME ( #312, #203 ) ;
#191 = CALENDAR_DATE ( 2026, 22, 6 ) ;
#192 = APPROVAL_PERSON_ORGANIZATION ( #133, #38, #129 ) ;
#193 = PRODUCT_DEFINITION_FORMATION_WITH_SPECIFIED_SOURCE ( 'Symmetric', '', #347, .NOT_KNOWN. ) ;
#194 = PROPERTY_DEFINITION_REPRESENTATION ( #367, #385 ) ;
#195 = CC_DESIGN_DATE_AND_TIME_ASSIGNMENT ( #227, #345, ( #103 ) ) ;
#196 = PRODUCT_DEFINITION_SHAPE ( 'NONE', 'NONE',  #388 ) ;
#197 = APPROVAL_ROLE ( '' ) ;
#198 = APPLIED_DOCUMENT_REFERENCE ( #328,'',( #318) ) ;
#199 =( LENGTH_UNIT ( ) NAMED_UNIT ( * ) SI_UNIT ( .MILLI., .METRE. ) );
#200 =( GEOMETRIC_REPRESENTATION_CONTEXT ( 3 ) GLOBAL_UNCERTAINTY_ASSIGNED_CONTEXT ( ( #128 ) ) GLOBAL_UNIT_ASSIGNED_CONTEXT ( ( #362, #177, #299 ) ) REPRESENTATION_CONTEXT ( 'NONE', 'WORKASPACE' ) );
#201 =( REPRESENTATION_RELATIONSHIP ('NONE','NONE', #306, #385 ) REPRESENTATION_RELATIONSHIP_WITH_TRANSFORMATION ( #167 )SHAPE_REPRESENTATION_RELATIONSHIP( ) );
#202 = LOCAL_TIME ( 18, 50, 0.000000000000000000, #17 ) ;
#203 = LOCAL_TIME ( 18, 50, 0.000000000000000000, #366 ) ;
#204 = APPROVAL_DATE_TIME ( #268, #290 ) ;
#205 = DATE_AND_TIME ( #317, #343 ) ;
#206 = MECHANICAL_CONTEXT ( 'NONE', #59, 'mechanical' ) ;
#207 = CC_DESIGN_PERSON_AND_ORGANIZATION_ASSIGNMENT ( #132, #315, ( #18 ) ) ;
#208 = SECURITY_CLASSIFICATION_LEVEL ( 'unclassified' ) ;
#209 = SECURITY_CLASSIFICATION ( '', '', #208 ) ;
#210 = APPLIED_DOCUMENT_REFERENCE ( #114,'',( #173) ) ;
#211 = LOCAL_TIME ( 18, 50, 0.000000000000000000, #341 ) ;
#212 = CALENDAR_DATE ( 2026, 22, 6 ) ;
#213 = PROPERTY_DEFINITION_REPRESENTATION ( #344, #95 ) ;
#214 = PERSON_AND_ORGANIZATION_ROLE ( 'creator' ) ;
#215 = COORDINATED_UNIVERSAL_TIME_OFFSET ( 10, 0, .AHEAD. ) ;
#216 = LOCAL_TIME ( 18, 50, 0.000000000000000000, #29 ) ;
#217 = APPLICATION_PROTOCOL_DEFINITION ( 'international standard', 'config_control_design', 1994, #102 ) ;
#218 = APPROVAL_STATUS ( 'not_yet_approved' ) ;
#219 = APPROVAL_DATE_TIME ( #184, #141 ) ;
#220 = CC_DESIGN_DATE_AND_TIME_ASSIGNMENT ( #361, #61, ( #262 ) ) ;
#221 = CALENDAR_DATE ( 2026, 22, 6 ) ;
#222 = AXIS2_PLACEMENT_3D ( 'NONE', #296, #110, #230 ) ;
#223 = LOCAL_TIME ( 18, 50, 0.000000000000000000, #338 ) ;
#224 = IDENTIFICATION_ROLE ( 'external document id and location', $) ;
#225 = DATE_AND_TIME ( #221, #63 ) ;
#226 = PERSON_AND_ORGANIZATION ( #18446744073709551615, #18446744073709551615 ) ;
#227 = DATE_AND_TIME ( #145, #211 ) ;
#228 = SECURITY_CLASSIFICATION ( '', '', #313 ) ;
#229 = APPROVAL_STATUS ( 'not_yet_approved' ) ;
#230 = DIRECTION ( 'NONE',  ( 1.000000000000000222, -1.092455418989176591E-28, 4.890937612370273194E-29 ) ) ;
#231 = PRODUCT_DEFINITION_SHAPE ( 'NONE', 'NONE',  #307 ) ;
#232 = PERSON_AND_ORGANIZATION_ROLE ( 'classification_officer' ) ;
#233 = ROLE_ASSOCIATION ( #322, #21 ) ;
#234 = LOCAL_TIME ( 18, 50, 0.000000000000000000, #340 ) ;
#235 = CALENDAR_DATE ( 2026, 22, 6 ) ;
#236 = CC_DESIGN_PERSON_AND_ORGANIZATION_ASSIGNMENT ( #249, #253, ( #228 ) ) ;
#237 = APPROVAL_ROLE ( '' ) ;
#238 = PERSON_AND_ORGANIZATION ( #18446744073709551615, #18446744073709551615 ) ;
#239 = APPROVAL ( #127, 'Coincident' ) ;
#240 = CC_DESIGN_PERSON_AND_ORGANIZATION_ASSIGNMENT ( #142, #289, ( #193 ) ) ;
#241 = PERSON_AND_ORGANIZATION_ROLE ( 'design_owner' ) ;
#242 = CALENDAR_DATE ( 2026, 22, 6 ) ;
#243 = DATE_AND_TIME ( #212, #31 ) ;
#244 = APPLICATION_CONTEXT ( 'configuration controlled 3d designs of mechanical parts and assemblies' ) ;
#245 = APPROVAL_STATUS ( 'not_yet_approved' ) ;
#246 = DATE_AND_TIME ( #178, #157 ) ;
#247 = APPROVAL ( #311, 'Coincident' ) ;
#248 = SECURITY_CLASSIFICATION ( '', '', #117 ) ;
#249 = PERSON_AND_ORGANIZATION ( #18446744073709551615, #18446744073709551615 ) ;
#250 = APPLICATION_PROTOCOL_DEFINITION ( 'international standard', 'config_control_design', 1994, #181 ) ;
#251 = PROPERTY_DEFINITION ('external definition','', #328 ) ;
#252 = PERSON_AND_ORGANIZATION ( #18446744073709551615, #18446744073709551615 ) ;
#253 = PERSON_AND_ORGANIZATION_ROLE ( 'classification_officer' ) ;
#254 = APPROVAL_PERSON_ORGANIZATION ( #70, #247, #335 ) ;
#255 = CC_DESIGN_SECURITY_CLASSIFICATION ( #209, ( #342 ) ) ;
#256 = PERSON ( 'NAUO-PER280', 'UNSPECIFIED', 'UNSPECIFIED', ('UNSPECIFIED'), ('UNSPECIFIED'), ('UNSPECIFIED') ) ;
#257 = PERSON_AND_ORGANIZATION ( #18446744073709551615, #18446744073709551615 ) ;
#258 = CC_DESIGN_PERSON_AND_ORGANIZATION_ASSIGNMENT ( #154, #214, ( #307 ) ) ;
#259 = CC_DESIGN_DATE_AND_TIME_ASSIGNMENT ( #349, #23, ( #248 ) ) ;
#260 = CALENDAR_DATE ( 2026, 22, 6 ) ;
#261 = PRODUCT ( 'C7.step', 'C7.step', '', ( #206 ) ) ;
#262 = SECURITY_CLASSIFICATION ( '', '', #92 ) ;
#263 = APPROVAL_DATE_TIME ( #381, #309 ) ;
#264 = CC_DESIGN_DATE_AND_TIME_ASSIGNMENT ( #273, #331, ( #307 ) ) ;
#265 = ITEM_DEFINED_TRANSFORMATION ( 'NONE', 'NONE', #222,  #326 ) ;
#266 = CARTESIAN_POINT ( 'NONE',  ( 0.000000000000000000, 0.000000000000000000, 0.000000000000000000 ) ) ;
#267 = OBJECT_ROLE ('mandatory',$ ) ;
#268 = DATE_AND_TIME ( #260, #118 ) ;
#269 = AXIS2_PLACEMENT_3D ( 'NONE', #85, #121, #304 ) ;
#270 = APPROVAL_PERSON_ORGANIZATION ( #257, #77, #105 ) ;
#271 = PROPERTY_DEFINITION_REPRESENTATION ( #379, #95 ) ;
#272 = PERSON_AND_ORGANIZATION_ROLE ( 'design_owner' ) ;
#273 = DATE_AND_TIME ( #120, #116 ) ;
#274 = PERSON_AND_ORGANIZATION_ROLE ( 'creator' ) ;
#275 = CC_DESIGN_SECURITY_CLASSIFICATION ( #262, ( #390 ) ) ;
#276 = SHAPE_DEFINITION_REPRESENTATION ( #231, #306 ) ;
#277 = PERSON_AND_ORGANIZATION ( #18446744073709551615, #18446744073709551615 ) ;
#278 = CC_DESIGN_PERSON_AND_ORGANIZATION_ASSIGNMENT ( #371, #12, ( #347 ) ) ;
#279 = APPROVAL_PERSON_ORGANIZATION ( #319, #27, #197 ) ;
#280 = APPROVAL_DATE_TIME ( #156, #77 ) ;
#281 = APPROVAL ( #146, 'UNKNOWN' ) ;
#282 = MECHANICAL_CONTEXT ( 'NONE', #181, 'mechanical' ) ;
#283 = APPROVAL_ROLE ( '' ) ;
#284 = EXTERNAL_SOURCE (IDENTIFIER('') ) ;
#285 = APPROVAL_ROLE ( '' ) ;
#286 = CC_DESIGN_APPROVAL ( #2, ( #307 ) ) ;
#287 = LOCAL_TIME ( 18, 50, 0.000000000000000000, #288 ) ;
#288 = COORDINATED_UNIVERSAL_TIME_OFFSET ( 10, 0, .AHEAD. ) ;
#289 = PERSON_AND_ORGANIZATION_ROLE ( 'creator' ) ;
#290 = APPROVAL ( #229, 'UNKNOWN' ) ;
#291 = ROLE_ASSOCIATION ( #267, #198 ) ;
#292 = PERSON_AND_ORGANIZATION_ROLE ( 'classification_officer' ) ;
#293 = DIRECTION ( 'NONE',  ( 1.000000000000000000, 0.000000000000000000, 0.000000000000000000 ) ) ;
#294 = SHAPE_DEFINITION_REPRESENTATION ( #51, #385 ) ;
#295 =( NAMED_UNIT ( * ) PLANE_ANGLE_UNIT ( ) SI_UNIT ( $, .RADIAN. ) );
#296 = CARTESIAN_POINT ( 'NONE',  ( 9.524998718232001949, 14.54999951171900108, 0.000000000000000000 ) ) ;
#297 = OBJECT_ROLE ('mandatory',$ ) ;
#298 = CC_DESIGN_APPROVAL ( #290, ( #103 ) ) ;
#299 =( NAMED_UNIT ( * ) SI_UNIT ( $, .STERADIAN. ) SOLID_ANGLE_UNIT ( ) );
#300 = DIRECTION ( 'NONE',  ( 4.890937612370273194E-29, -3.155443620884047222E-30, 0.9999999999999997780 ) ) ;
#301 = DATE_AND_TIME ( #180, #11 ) ;
#302 = DOCUMENT_TYPE ( 'geometry' ) ;
#303 = APPROVAL_PERSON_ORGANIZATION ( #144, #309, #375 ) ;
#304 = DIRECTION ( 'NONE',  ( 1.000000000000000000, 0.000000000000000000, 0.000000000000000000 ) ) ;
#305 = APPROVAL_DATE_TIME ( #243, #2 ) ;
#306 = SHAPE_REPRESENTATION ( 'C7.step', ( #269, #10, #222, #151 ), #200 ) ;
#307 = PRODUCT_DEFINITION ( 'General', '', #342, #171 ) ;
#308 = APPROVAL_DATE_TIME ( #67, #66 ) ;
#309 = APPROVAL ( #373, 'Coincident' ) ;
#310 = APPROVAL_PERSON_ORGANIZATION ( #252, #141, #283 ) ;
#311 = APPROVAL_STATUS ( 'not_yet_approved' ) ;
#312 = CALENDAR_DATE ( 2026, 22, 6 ) ;
#313 = SECURITY_CLASSIFICATION_LEVEL ( 'unclassified' ) ;
#314 = CC_DESIGN_PERSON_AND_ORGANIZATION_ASSIGNMENT ( #226, #104, ( #173 ) ) ;
#315 = PERSON_AND_ORGANIZATION_ROLE ( 'design_supplier' ) ;
#316 = CC_DESIGN_SECURITY_CLASSIFICATION ( #103, ( #388 ) ) ;
#317 = CALENDAR_DATE ( 2026, 22, 6 ) ;
#318 = PRODUCT_DEFINITION ( 'General', '', #193, #383 ) ;
#319 = PERSON_AND_ORGANIZATION ( #256, #82 ) ;
#320 = COORDINATED_UNIVERSAL_TIME_OFFSET ( 10, 0, .AHEAD. ) ;
#321 = ORGANIZATION ( 'NAUO-ORG281', 'UNSPECIFIED', 'UNSPECIFIED' ) ;
#322 = OBJECT_ROLE ('mandatory',$ ) ;
#323 = PROPERTY_DEFINITION_REPRESENTATION ( #109, #385 ) ;
#324 =( LENGTH_UNIT ( ) NAMED_UNIT ( * ) SI_UNIT ( .MILLI., .METRE. ) );
#325 = CARTESIAN_POINT ( 'NONE',  ( 10.52499490353499922, 14.54999951171900108, -1.734723475976807094E-15 ) ) ;
#326 = AXIS2_PLACEMENT_3D ( 'NONE', #266, #83, #55 ) ;
#327 =( REPRESENTATION_RELATIONSHIP ('NONE','NONE', #306, #95 ) REPRESENTATION_RELATIONSHIP_WITH_TRANSFORMATION ( #53 )SHAPE_REPRESENTATION_RELATIONSHIP( ) );
#328 = DOCUMENT_FILE ( '6461082896.step.STEP' , '', '', #143, '' ,$ ) ;
#329 = CC_DESIGN_PERSON_AND_ORGANIZATION_ASSIGNMENT ( #172, #15, ( #193 ) ) ;
#330 = COORDINATED_UNIVERSAL_TIME_OFFSET ( 10, 0, .AHEAD. ) ;
#331 = DATE_TIME_ROLE ( 'creation_date' ) ;
#332 = CALENDAR_DATE ( 2026, 22, 6 ) ;
#333 = APPROVAL_DATE_TIME ( #246, #239 ) ;
#334 = PERSON_AND_ORGANIZATION ( #18446744073709551615, #18446744073709551615 ) ;
#335 = APPROVAL_ROLE ( '' ) ;
#336 = PERSON_AND_ORGANIZATION ( #18446744073709551615, #18446744073709551615 ) ;
#337 = PERSON_AND_ORGANIZATION_ROLE ( 'creator' ) ;
#338 = COORDINATED_UNIVERSAL_TIME_OFFSET ( 10, 0, .AHEAD. ) ;
#339 = EXTERNAL_SOURCE (IDENTIFIER('') ) ;
#340 = COORDINATED_UNIVERSAL_TIME_OFFSET ( 10, 0, .AHEAD. ) ;
#341 = COORDINATED_UNIVERSAL_TIME_OFFSET ( 10, 0, .AHEAD. ) ;
#342 = PRODUCT_DEFINITION_FORMATION_WITH_SPECIFIED_SOURCE ( 'Symmetric', '', #261, .NOT_KNOWN. ) ;
#343 = LOCAL_TIME ( 18, 50, 0.000000000000000000, #320 ) ;
#344 = PROPERTY_DEFINITION ('document property','', #114 ) ;
#345 = DATE_TIME_ROLE ( 'classification_date' ) ;
#346 = CC_DESIGN_PERSON_AND_ORGANIZATION_ASSIGNMENT ( #319, #50, ( #57 ) ) ;
#347 = PRODUCT ( '6461082896.step', '6461082896.step', '', ( #282 ) ) ;
#348 = DOCUMENT_TYPE ( 'geometry' ) ;
#349 = DATE_AND_TIME ( #235, #202 ) ;
#350 = PRODUCT_DEFINITION_SHAPE ( 'NONE', 'NONE',  #389 ) ;
#351 = DIRECTION ( 'NONE',  ( 0.000000000000000000, 0.000000000000000000, 1.000000000000000000 ) ) ;
#352 = SECURITY_CLASSIFICATION_LEVEL ( 'unclassified' ) ;
#353 = APPLIED_EXTERNAL_IDENTIFICATION_ASSIGNMENT ( '6461082896.step.STEP' , #370, #284,( #75) ) ;
#354 = PROPERTY_DEFINITION_REPRESENTATION ( #251, #385 ) ;
#355 = APPLICATION_PROTOCOL_DEFINITION ( 'international standard', 'config_control_design', 1994, #59 ) ;
#356 = CC_DESIGN_PERSON_AND_ORGANIZATION_ASSIGNMENT ( #188, #337, ( #318 ) ) ;
#357 = PERSON_AND_ORGANIZATION ( #7, #321 ) ;
#358 = APPLICATION_PROTOCOL_DEFINITION ( 'international standard', 'config_control_design', 1994, #124 ) ;
#359 = APPROVAL_PERSON_ORGANIZATION ( #357, #281, #237 ) ;
#360 = PERSON_AND_ORGANIZATION_ROLE ( 'design_supplier' ) ;
#361 = DATE_AND_TIME ( #242, #216 ) ;
#362 =( LENGTH_UNIT ( ) NAMED_UNIT ( * ) SI_UNIT ( .MILLI., .METRE. ) );
#363 = IDENTIFICATION_ROLE ( 'external document id and location', $) ;
#364 = COORDINATED_UNIVERSAL_TIME_OFFSET ( 10, 0, .AHEAD. ) ;
#365 = ORGANIZATION ( 'NAUO-ORG279', 'UNSPECIFIED', 'UNSPECIFIED' ) ;
#366 = COORDINATED_UNIVERSAL_TIME_OFFSET ( 10, 0, .AHEAD. ) ;
#367 = PROPERTY_DEFINITION ('document property','', #328 ) ;
#368 = DATE_AND_TIME ( #191, #135 ) ;
#369 = DATE_TIME_ROLE ( 'classification_date' ) ;
#370 = IDENTIFICATION_ROLE ( 'external document id and location', $) ;
#371 = PERSON_AND_ORGANIZATION ( #18446744073709551615, #18446744073709551615 ) ;
#372 = CALENDAR_DATE ( 2026, 22, 6 ) ;
#373 = APPROVAL_STATUS ( 'not_yet_approved' ) ;
#374 =( NAMED_UNIT ( * ) PLANE_ANGLE_UNIT ( ) SI_UNIT ( $, .RADIAN. ) );
#375 = APPROVAL_ROLE ( '' ) ;
#376 = CC_DESIGN_APPROVAL ( #239, ( #342 ) ) ;
#377 = CC_DESIGN_APPROVAL ( #247, ( #173 ) ) ;
#378 = DIRECTION ( 'NONE',  ( 4.890937612370273194E-29, -3.155443620884047222E-30, 0.9999999999999997780 ) ) ;
#379 = PROPERTY_DEFINITION ('external definition','', #114 ) ;
#380 = COORDINATED_UNIVERSAL_TIME_OFFSET ( 10, 0, .AHEAD. ) ;
#381 = DATE_AND_TIME ( #112, #287 ) ;
#382 = APPROVAL_PERSON_ORGANIZATION ( #1, #111, #91 ) ;
#383 = DESIGN_CONTEXT ( 'detailed design', #244, 'design' ) ;
#384 = PERSON ( 'NAUO-PER279', 'UNSPECIFIED', 'UNSPECIFIED', ('UNSPECIFIED'), ('UNSPECIFIED'), ('UNSPECIFIED') ) ;
#385 = SHAPE_REPRESENTATION ( '6461082896.step', ( #326 ), #152 ) ;
#386 = APPROVAL_ROLE ( '' ) ;
#387 = CC_DESIGN_APPROVAL ( #66, ( #228 ) ) ;
#388 = NEXT_ASSEMBLY_USAGE_OCCURRENCE ( 'NAUO279', ' ', ' ', #307, #318, $ ) ;
#389 = NEXT_ASSEMBLY_USAGE_OCCURRENCE ( 'NAUO280', ' ', ' ', #307, #318, $ ) ;
#390 = NEXT_ASSEMBLY_USAGE_OCCURRENCE ( 'NAUO281', ' ', ' ', #307, #173, $ ) ;
ENDSEC;
END-ISO-10303-21;
