ISO-10303-21;
HEADER;
FILE_DESCRIPTION (( 'STEP AP203' ),
    '1' );
FILE_NAME ('C8.step.STEP',
    '2026-06-22T08:49:59',
    ( 'localuser' ),
    ( '' ),
    'SwSTEP 2.0',
    'SolidWorks 2025',
    '' );
FILE_SCHEMA (( 'CONFIG_CONTROL_DESIGN' ));
ENDSEC;

DATA;
#1 = COORDINATED_UNIVERSAL_TIME_OFFSET ( 10, 0, .AHEAD. ) ;
#2 = PRODUCT_RELATED_PRODUCT_CATEGORY ( 'detail', '', ( #197 ) ) ;
#3 = PERSON_AND_ORGANIZATION ( #18446744073709551615, #18446744073709551615 ) ;
#4 = PERSON_AND_ORGANIZATION_ROLE ( 'classification_officer' ) ;
#5 = CALENDAR_DATE ( 2026, 22, 6 ) ;
#6 = MECHANICAL_CONTEXT ( 'NONE', #279, 'mechanical' ) ;
#7 = ROLE_ASSOCIATION ( #340, #63 ) ;
#8 = CC_DESIGN_DATE_AND_TIME_ASSIGNMENT ( #196, #287, ( #24 ) ) ;
#9 = ITEM_DEFINED_TRANSFORMATION ( 'NONE', 'NONE', #345,  #124 ) ;
#10 =( NAMED_UNIT ( * ) SI_UNIT ( $, .STERADIAN. ) SOLID_ANGLE_UNIT ( ) );
#11 = APPROVAL_PERSON_ORGANIZATION ( #166, #178, #70 ) ;
#12 = DATE_AND_TIME ( #88, #359 ) ;
#13 = CC_DESIGN_DATE_AND_TIME_ASSIGNMENT ( #337, #132, ( #269 ) ) ;
#14 = APPROVAL_STATUS ( 'not_yet_approved' ) ;
#15 = CC_DESIGN_APPROVAL ( #28, ( #181 ) ) ;
#16 = DOCUMENT_TYPE ( 'geometry' ) ;
#17 = APPROVAL_DATE_TIME ( #292, #101 ) ;
#18 = APPROVAL_DATE_TIME ( #229, #286 ) ;
#19 = PERSON_AND_ORGANIZATION ( #18446744073709551615, #18446744073709551615 ) ;
#20 = LOCAL_TIME ( 18, 49, 59.00000000000000000, #179 ) ;
#21 = APPROVAL_STATUS ( 'not_yet_approved' ) ;
#22 = CC_DESIGN_PERSON_AND_ORGANIZATION_ASSIGNMENT ( #303, #356, ( #135 ) ) ;
#23 = CALENDAR_DATE ( 2026, 22, 6 ) ;
#24 = PRODUCT_DEFINITION ( 'General', '', #205, #243 ) ;
#25 = APPROVAL_ROLE ( '' ) ;
#26 = LOCAL_TIME ( 18, 49, 59.00000000000000000, #59 ) ;
#27 = PERSON_AND_ORGANIZATION_ROLE ( 'design_supplier' ) ;
#28 = APPROVAL ( #60, 'UNKNOWN' ) ;
#29 = CALENDAR_DATE ( 2026, 22, 6 ) ;
#30 = APPROVAL ( #370, 'UNKNOWN' ) ;
#31 = PERSON_AND_ORGANIZATION ( #384, #230 ) ;
#32 = PRODUCT_RELATED_PRODUCT_CATEGORY ( 'detail', '', ( #256 ) ) ;
#33 = LOCAL_TIME ( 18, 49, 59.00000000000000000, #327 ) ;
#34 = PERSON_AND_ORGANIZATION_ROLE ( 'classification_officer' ) ;
#35 = CARTESIAN_POINT ( 'NONE',  ( 0.000000000000000000, 0.000000000000000000, 0.000000000000000000 ) ) ;
#36 = SHAPE_REPRESENTATION ( '6534431024.step', ( #335 ), #173 ) ;
#37 = APPLICATION_CONTEXT ( 'configuration controlled 3d designs of mechanical parts and assemblies' ) ;
#38 = DATE_AND_TIME ( #184, #26 ) ;
#39 = CC_DESIGN_PERSON_AND_ORGANIZATION_ASSIGNMENT ( #319, #199, ( #197 ) ) ;
#40 = AXIS2_PLACEMENT_3D ( 'NONE', #185, #126, #254 ) ;
#41 = SECURITY_CLASSIFICATION ( '', '', #369 ) ;
#42 = DATE_AND_TIME ( #76, #301 ) ;
#43 = APPROVAL_STATUS ( 'not_yet_approved' ) ;
#44 = PRODUCT_DEFINITION_SHAPE ( 'NONE', 'NONE',  #388 ) ;
#45 = LOCAL_TIME ( 18, 49, 59.00000000000000000, #358 ) ;
#46 = PERSON_AND_ORGANIZATION ( #18446744073709551615, #18446744073709551615 ) ;
#47 = APPROVAL_STATUS ( 'not_yet_approved' ) ;
#48 = CC_DESIGN_DATE_AND_TIME_ASSIGNMENT ( #93, #247, ( #41 ) ) ;
#49 = COORDINATED_UNIVERSAL_TIME_OFFSET ( 10, 0, .AHEAD. ) ;
#50 = DATE_TIME_ROLE ( 'classification_date' ) ;
#51 = LOCAL_TIME ( 18, 49, 59.00000000000000000, #377 ) ;
#52 = PERSON_AND_ORGANIZATION ( #18446744073709551615, #18446744073709551615 ) ;
#53 = IDENTIFICATION_ROLE ( 'external document id and location', $) ;
#54 = DATE_TIME_ROLE ( 'creation_date' ) ;
#55 = APPROVAL_DATE_TIME ( #207, #191 ) ;
#56 = CC_DESIGN_APPROVAL ( #178, ( #24 ) ) ;
#57 = EXTERNAL_SOURCE (IDENTIFIER('') ) ;
#58 = APPROVAL_STATUS ( 'not_yet_approved' ) ;
#59 = COORDINATED_UNIVERSAL_TIME_OFFSET ( 10, 0, .AHEAD. ) ;
#60 = APPROVAL_STATUS ( 'not_yet_approved' ) ;
#61 = APPROVAL ( #252, 'UNKNOWN' ) ;
#62 = LOCAL_TIME ( 18, 49, 59.00000000000000000, #367 ) ;
#63 = APPLIED_DOCUMENT_REFERENCE ( #97,'',( #180) ) ;
#64 = APPROVAL_DATE_TIME ( #339, #30 ) ;
#65 = DIRECTION ( 'NONE',  ( 4.890937612370273194E-29, -3.155443620884047222E-30, 0.9999999999999997780 ) ) ;
#66 = CC_DESIGN_DATE_AND_TIME_ASSIGNMENT ( #296, #50, ( #162 ) ) ;
#67 = DATE_AND_TIME ( #5, #288 ) ;
#68 = PROPERTY_DEFINITION_REPRESENTATION ( #71, #267 ) ;
#69 = APPROVAL_ROLE ( '' ) ;
#70 = APPROVAL_ROLE ( '' ) ;
#71 = PROPERTY_DEFINITION ('document property','', #190 ) ;
#72 = APPROVAL_ROLE ( '' ) ;
#73 =( REPRESENTATION_RELATIONSHIP ('NONE','NONE', #186, #267 ) REPRESENTATION_RELATIONSHIP_WITH_TRANSFORMATION ( #333 )SHAPE_REPRESENTATION_RELATIONSHIP( ) );
#74 = LOCAL_TIME ( 18, 49, 59.00000000000000000, #263 ) ;
#75 = APPLIED_EXTERNAL_IDENTIFICATION_ASSIGNMENT ( '6461079856.step.STEP' , #53, #57,( #190) ) ;
#76 = CALENDAR_DATE ( 2026, 22, 6 ) ;
#77 = CC_DESIGN_PERSON_AND_ORGANIZATION_ASSIGNMENT ( #204, #85, ( #239 ) ) ;
#78 = CC_DESIGN_PERSON_AND_ORGANIZATION_ASSIGNMENT ( #277, #34, ( #41 ) ) ;
#79 = PERSON_AND_ORGANIZATION_ROLE ( 'design_supplier' ) ;
#80 = DATE_AND_TIME ( #325, #142 ) ;
#81 = APPROVAL_ROLE ( '' ) ;
#82 = LOCAL_TIME ( 18, 49, 59.00000000000000000, #83 ) ;
#83 = COORDINATED_UNIVERSAL_TIME_OFFSET ( 10, 0, .AHEAD. ) ;
#84 = APPROVAL_DATE_TIME ( #80, #290 ) ;
#85 = PERSON_AND_ORGANIZATION_ROLE ( 'design_supplier' ) ;
#86 =( GEOMETRIC_REPRESENTATION_CONTEXT ( 3 ) GLOBAL_UNCERTAINTY_ASSIGNED_CONTEXT ( ( #361 ) ) GLOBAL_UNIT_ASSIGNED_CONTEXT ( ( #278, #160, #94 ) ) REPRESENTATION_CONTEXT ( 'NONE', 'WORKASPACE' ) );
#87 = CC_DESIGN_APPROVAL ( #191, ( #135 ) ) ;
#88 = CALENDAR_DATE ( 2026, 22, 6 ) ;
#89 = DIRECTION ( 'NONE',  ( 1.000000000000000000, 0.000000000000000000, 0.000000000000000000 ) ) ;
#90 = CC_DESIGN_DATE_AND_TIME_ASSIGNMENT ( #386, #54, ( #236 ) ) ;
#91 = APPROVAL_DATE_TIME ( #12, #171 ) ;
#92 = CC_DESIGN_PERSON_AND_ORGANIZATION_ASSIGNMENT ( #188, #114, ( #256 ) ) ;
#93 = DATE_AND_TIME ( #161, #155 ) ;
#94 =( NAMED_UNIT ( * ) SI_UNIT ( $, .STERADIAN. ) SOLID_ANGLE_UNIT ( ) );
#95 = IDENTIFICATION_ROLE ( 'external document id and location', $) ;
#96 = LOCAL_TIME ( 18, 49, 59.00000000000000000, #123 ) ;
#97 = DOCUMENT_FILE ( '6534431024.step.STEP' , '', '', #159, '' ,$ ) ;
#98 = ITEM_DEFINED_TRANSFORMATION ( 'NONE', 'NONE', #40,  #335 ) ;
#99 = PRODUCT_RELATED_PRODUCT_CATEGORY ( 'detail', '', ( #227 ) ) ;
#100 = APPROVAL_ROLE ( '' ) ;
#101 = APPROVAL ( #47, 'Coincident' ) ;
#102 = APPROVAL_PERSON_ORGANIZATION ( #31, #28, #306 ) ;
#103 = DATE_AND_TIME ( #203, #74 ) ;
#104 = CC_DESIGN_PERSON_AND_ORGANIZATION_ASSIGNMENT ( #304, #27, ( #135 ) ) ;
#105 = CC_DESIGN_PERSON_AND_ORGANIZATION_ASSIGNMENT ( #19, #198, ( #24 ) ) ;
#106 = PRODUCT_DEFINITION_SHAPE ( 'NONE', 'NONE',  #24 ) ;
#107 = PERSON_AND_ORGANIZATION_ROLE ( 'classification_officer' ) ;
#108 = PROPERTY_DEFINITION_REPRESENTATION ( #378, #267 ) ;
#109 = CC_DESIGN_PERSON_AND_ORGANIZATION_ASSIGNMENT ( #222, #172, ( #180 ) ) ;
#110 = PERSON_AND_ORGANIZATION ( #18446744073709551615, #18446744073709551615 ) ;
#111 = DESIGN_CONTEXT ( 'detailed design', #322, 'design' ) ;
#112 = SECURITY_CLASSIFICATION ( '', '', #349 ) ;
#113 = CC_DESIGN_APPROVAL ( #61, ( #41 ) ) ;
#114 = PERSON_AND_ORGANIZATION_ROLE ( 'design_owner' ) ;
#115 = PERSON_AND_ORGANIZATION ( #18446744073709551615, #18446744073709551615 ) ;
#116 = SECURITY_CLASSIFICATION_LEVEL ( 'unclassified' ) ;
#117 = MECHANICAL_CONTEXT ( 'NONE', #262, 'mechanical' ) ;
#118 = APPROVAL_PERSON_ORGANIZATION ( #277, #61, #125 ) ;
#119 = DOCUMENT_TYPE ( 'geometry' ) ;
#120 = CC_DESIGN_PERSON_AND_ORGANIZATION_ASSIGNMENT ( #3, #122, ( #383 ) ) ;
#121 = PERSON_AND_ORGANIZATION_ROLE ( 'creator' ) ;
#122 = PERSON_AND_ORGANIZATION_ROLE ( 'classification_officer' ) ;
#123 = COORDINATED_UNIVERSAL_TIME_OFFSET ( 10, 0, .AHEAD. ) ;
#124 = AXIS2_PLACEMENT_3D ( 'NONE', #312, #343, #89 ) ;
#125 = APPROVAL_ROLE ( '' ) ;
#126 = DIRECTION ( 'NONE',  ( 4.890937612370273194E-29, -3.155443620884047222E-30, 0.9999999999999997780 ) ) ;
#127 = PROPERTY_DEFINITION_REPRESENTATION ( #348, #36 ) ;
#128 = DIRECTION ( 'NONE',  ( 0.000000000000000000, 0.000000000000000000, 1.000000000000000000 ) ) ;
#129 = DATE_TIME_ROLE ( 'creation_date' ) ;
#130 = CC_DESIGN_APPROVAL ( #171, ( #383 ) ) ;
#131 = APPROVAL_STATUS ( 'not_yet_approved' ) ;
#132 = DATE_TIME_ROLE ( 'classification_date' ) ;
#133 = DIRECTION ( 'NONE',  ( 1.000000000000000222, -1.092455418989176591E-28, 4.890937612370273194E-29 ) ) ;
#134 = PERSON_AND_ORGANIZATION_ROLE ( 'creator' ) ;
#135 = PRODUCT_DEFINITION_FORMATION_WITH_SPECIFIED_SOURCE ( 'Symmetric', '', #227, .NOT_KNOWN. ) ;
#136 = CC_DESIGN_PERSON_AND_ORGANIZATION_ASSIGNMENT ( #31, #4, ( #181 ) ) ;
#137 = PRODUCT_DEFINITION_SHAPE ( 'NONE', 'NONE',  #390 ) ;
#138 = COORDINATED_UNIVERSAL_TIME_OFFSET ( 10, 0, .AHEAD. ) ;
#139 = OBJECT_ROLE ('mandatory',$ ) ;
#140 = APPLICATION_PROTOCOL_DEFINITION ( 'international standard', 'config_control_design', 1994, #322 ) ;
#141 = CALENDAR_DATE ( 2026, 22, 6 ) ;
#142 = LOCAL_TIME ( 18, 49, 59.00000000000000000, #362 ) ;
#143 = CALENDAR_DATE ( 2026, 22, 6 ) ;
#144 = APPLICATION_PROTOCOL_DEFINITION ( 'international standard', 'config_control_design', 1994, #201 ) ;
#145 = APPROVAL_ROLE ( '' ) ;
#146 = LOCAL_TIME ( 18, 49, 59.00000000000000000, #49 ) ;
#147 = PERSON_AND_ORGANIZATION_ROLE ( 'creator' ) ;
#148 = CC_DESIGN_SECURITY_CLASSIFICATION ( #269, ( #390 ) ) ;
#149 = CC_DESIGN_PERSON_AND_ORGANIZATION_ASSIGNMENT ( #175, #147, ( #239 ) ) ;
#150 = SECURITY_CLASSIFICATION_LEVEL ( 'unclassified' ) ;
#151 = ROLE_ASSOCIATION ( #139, #309 ) ;
#152 = DATE_TIME_ROLE ( 'classification_date' ) ;
#153 = APPROVAL_PERSON_ORGANIZATION ( #164, #286, #69 ) ;
#154 =( NAMED_UNIT ( * ) PLANE_ANGLE_UNIT ( ) SI_UNIT ( $, .RADIAN. ) );
#155 = LOCAL_TIME ( 18, 49, 59.00000000000000000, #342 ) ;
#156 = CONTEXT_DEPENDENT_SHAPE_REPRESENTATION ( #300, #225 ) ;
#157 = DIRECTION ( 'NONE',  ( 4.890937612370273194E-29, -3.155443620884047222E-30, 0.9999999999999997780 ) ) ;
#158 = SECURITY_CLASSIFICATION_LEVEL ( 'unclassified' ) ;
#159 = DOCUMENT_TYPE ( 'geometry' ) ;
#160 =( NAMED_UNIT ( * ) PLANE_ANGLE_UNIT ( ) SI_UNIT ( $, .RADIAN. ) );
#161 = CALENDAR_DATE ( 2026, 22, 6 ) ;
#162 = SECURITY_CLASSIFICATION ( '', '', #116 ) ;
#163 = DIRECTION ( 'NONE',  ( 1.000000000000000000, 0.000000000000000000, 0.000000000000000000 ) ) ;
#164 = PERSON_AND_ORGANIZATION ( #18446744073709551615, #18446744073709551615 ) ;
#165 = APPLIED_DOCUMENT_REFERENCE ( #190,'',( #236) ) ;
#166 = PERSON_AND_ORGANIZATION ( #18446744073709551615, #18446744073709551615 ) ;
#167 = PRODUCT_DEFINITION_SHAPE ( 'NONE', 'NONE',  #236 ) ;
#168 = APPLIED_EXTERNAL_IDENTIFICATION_ASSIGNMENT ( '6534431024.step.STEP' , #95, #241,( #97) ) ;
#169 = DIRECTION ( 'NONE',  ( 1.000000000000000000, 0.000000000000000000, 0.000000000000000000 ) ) ;
#170 = CALENDAR_DATE ( 2026, 22, 6 ) ;
#171 = APPROVAL ( #131, 'Coincident' ) ;
#172 = PERSON_AND_ORGANIZATION_ROLE ( 'creator' ) ;
#173 =( GEOMETRIC_REPRESENTATION_CONTEXT ( 3 ) GLOBAL_UNCERTAINTY_ASSIGNED_CONTEXT ( ( #233 ) ) GLOBAL_UNIT_ASSIGNED_CONTEXT ( ( #338, #284, #10 ) ) REPRESENTATION_CONTEXT ( 'NONE', 'WORKASPACE' ) );
#174 = CC_DESIGN_APPROVAL ( #286, ( #180 ) ) ;
#175 = PERSON_AND_ORGANIZATION ( #18446744073709551615, #18446744073709551615 ) ;
#176 = APPROVAL_ROLE ( '' ) ;
#177 = CC_DESIGN_PERSON_AND_ORGANIZATION_ASSIGNMENT ( #235, #242, ( #227 ) ) ;
#178 = APPROVAL ( #43, 'Coincident' ) ;
#179 = COORDINATED_UNIVERSAL_TIME_OFFSET ( 10, 0, .AHEAD. ) ;
#180 = PRODUCT_DEFINITION ( 'General', '', #239, #111 ) ;
#181 = SECURITY_CLASSIFICATION ( '', '', #158 ) ;
#182 = PERSON_AND_ORGANIZATION ( #18446744073709551615, #18446744073709551615 ) ;
#183 = CALENDAR_DATE ( 2026, 22, 6 ) ;
#184 = CALENDAR_DATE ( 2026, 22, 6 ) ;
#185 = CARTESIAN_POINT ( 'NONE',  ( 15.00000100705100081, 2.999996459961001172, -2.058321952820000078 ) ) ;
#186 = SHAPE_REPRESENTATION ( 'C8.step', ( #223, #216, #40, #345 ), #200 ) ;
#187 = DATE_AND_TIME ( #276, #62 ) ;
#188 = PERSON_AND_ORGANIZATION ( #18446744073709551615, #18446744073709551615 ) ;
#189 = CC_DESIGN_SECURITY_CLASSIFICATION ( #383, ( #135 ) ) ;
#190 = DOCUMENT_FILE ( '6461079856.step.STEP' , '', '', #16, '' ,$ ) ;
#191 = APPROVAL ( #58, 'Coincident' ) ;
#192 = CC_DESIGN_PERSON_AND_ORGANIZATION_ASSIGNMENT ( #226, #134, ( #205 ) ) ;
#193 = APPROVAL_ROLE ( '' ) ;
#194 = PROPERTY_DEFINITION_REPRESENTATION ( #285, #36 ) ;
#195 = APPROVAL_PERSON_ORGANIZATION ( #291, #30, #193 ) ;
#196 = DATE_AND_TIME ( #323, #146 ) ;
#197 = PRODUCT ( '6534431024.step', '6534431024.step', '', ( #257 ) ) ;
#198 = PERSON_AND_ORGANIZATION_ROLE ( 'creator' ) ;
#199 = PERSON_AND_ORGANIZATION_ROLE ( 'design_owner' ) ;
#200 =( GEOMETRIC_REPRESENTATION_CONTEXT ( 3 ) GLOBAL_UNCERTAINTY_ASSIGNED_CONTEXT ( ( #297 ) ) GLOBAL_UNIT_ASSIGNED_CONTEXT ( ( #255, #154, #214 ) ) REPRESENTATION_CONTEXT ( 'NONE', 'WORKASPACE' ) );
#201 = APPLICATION_CONTEXT ( 'configuration controlled 3d designs of mechanical parts and assemblies' ) ;
#202 = SHAPE_DEFINITION_REPRESENTATION ( #106, #186 ) ;
#203 = CALENDAR_DATE ( 2026, 22, 6 ) ;
#204 = PERSON_AND_ORGANIZATION ( #18446744073709551615, #18446744073709551615 ) ;
#205 = PRODUCT_DEFINITION_FORMATION_WITH_SPECIFIED_SOURCE ( 'Symmetric', '', #256, .NOT_KNOWN. ) ;
#206 = APPROVAL_PERSON_ORGANIZATION ( #52, #290, #176 ) ;
#207 = DATE_AND_TIME ( #183, #275 ) ;
#208 = PERSON_AND_ORGANIZATION ( #18446744073709551615, #18446744073709551615 ) ;
#209 = PERSON_AND_ORGANIZATION ( #18446744073709551615, #18446744073709551615 ) ;
#210 = ORGANIZATION ( 'NAUO-ORG260', 'UNSPECIFIED', 'UNSPECIFIED' ) ;
#211 = APPROVAL_STATUS ( 'not_yet_approved' ) ;
#212 = COORDINATED_UNIVERSAL_TIME_OFFSET ( 10, 0, .AHEAD. ) ;
#213 = APPROVAL_DATE_TIME ( #67, #61 ) ;
#214 =( NAMED_UNIT ( * ) SI_UNIT ( $, .STERADIAN. ) SOLID_ANGLE_UNIT ( ) );
#215 = CALENDAR_DATE ( 2026, 22, 6 ) ;
#216 = AXIS2_PLACEMENT_3D ( 'NONE', #341, #65, #283 ) ;
#217 = ORGANIZATION ( 'NAUO-ORG259', 'UNSPECIFIED', 'UNSPECIFIED' ) ;
#218 = EXTERNAL_SOURCE (IDENTIFIER('') ) ;
#219 = COORDINATED_UNIVERSAL_TIME_OFFSET ( 10, 0, .AHEAD. ) ;
#220 = APPLICATION_PROTOCOL_DEFINITION ( 'international standard', 'config_control_design', 1994, #279 ) ;
#221 = PROPERTY_DEFINITION_REPRESENTATION ( #368, #267 ) ;
#222 = PERSON_AND_ORGANIZATION ( #18446744073709551615, #18446744073709551615 ) ;
#223 = AXIS2_PLACEMENT_3D ( 'NONE', #35, #381, #169 ) ;
#224 = APPROVAL_PERSON_ORGANIZATION ( #115, #171, #311 ) ;
#225 = PRODUCT_DEFINITION_SHAPE ( 'NONE', 'NONE',  #389 ) ;
#226 = PERSON_AND_ORGANIZATION ( #18446744073709551615, #18446744073709551615 ) ;
#227 = PRODUCT ( '6461079856.step', '6461079856.step', '', ( #117 ) ) ;
#228 = COORDINATED_UNIVERSAL_TIME_OFFSET ( 10, 0, .AHEAD. ) ;
#229 = DATE_AND_TIME ( #170, #51 ) ;
#230 = ORGANIZATION ( 'NAUO-ORG258', 'UNSPECIFIED', 'UNSPECIFIED' ) ;
#231 = CONTEXT_DEPENDENT_SHAPE_REPRESENTATION ( #371, #137 ) ;
#232 = PERSON_AND_ORGANIZATION ( #18446744073709551615, #18446744073709551615 ) ;
#233 = UNCERTAINTY_MEASURE_WITH_UNIT (LENGTH_MEASURE( 1.000000000000000082E-05 ), #338, 'distance_accuracy_value', 'NONE');
#234 = CC_DESIGN_PERSON_AND_ORGANIZATION_ASSIGNMENT ( #291, #344, ( #269 ) ) ;
#235 = PERSON_AND_ORGANIZATION ( #18446744073709551615, #18446744073709551615 ) ;
#236 = PRODUCT_DEFINITION ( 'General', '', #135, #357 ) ;
#237 = PERSON_AND_ORGANIZATION_ROLE ( 'classification_officer' ) ;
#238 = PERSON ( 'NAUO-PER259', 'UNSPECIFIED', 'UNSPECIFIED', ('UNSPECIFIED'), ('UNSPECIFIED'), ('UNSPECIFIED') ) ;
#239 = PRODUCT_DEFINITION_FORMATION_WITH_SPECIFIED_SOURCE ( 'Symmetric', '', #197, .NOT_KNOWN. ) ;
#240 = APPROVAL_STATUS ( 'not_yet_approved' ) ;
#241 = EXTERNAL_SOURCE (IDENTIFIER('') ) ;
#242 = PERSON_AND_ORGANIZATION_ROLE ( 'design_owner' ) ;
#243 = DESIGN_CONTEXT ( 'detailed design', #351, 'design' ) ;
#244 = DATE_AND_TIME ( #29, #282 ) ;
#245 = CC_DESIGN_DATE_AND_TIME_ASSIGNMENT ( #244, #385, ( #383 ) ) ;
#246 = COORDINATED_UNIVERSAL_TIME_OFFSET ( 10, 0, .AHEAD. ) ;
#247 = DATE_TIME_ROLE ( 'classification_date' ) ;
#248 = PROPERTY_DEFINITION ('external definition','', #318 ) ;
#249 = SECURITY_CLASSIFICATION_LEVEL ( 'unclassified' ) ;
#250 = APPROVAL_PERSON_ORGANIZATION ( #374, #261, #100 ) ;
#251 = CC_DESIGN_SECURITY_CLASSIFICATION ( #181, ( #388 ) ) ;
#252 = APPROVAL_STATUS ( 'not_yet_approved' ) ;
#253 = APPROVAL ( #240, 'Coincident' ) ;
#254 = DIRECTION ( 'NONE',  ( 1.000000000000000222, -1.092455418989176591E-28, 4.890937612370273194E-29 ) ) ;
#255 =( LENGTH_UNIT ( ) NAMED_UNIT ( * ) SI_UNIT ( .MILLI., .METRE. ) );
#256 = PRODUCT ( 'C8.step', 'C8.step', '', ( #6 ) ) ;
#257 = MECHANICAL_CONTEXT ( 'NONE', #37, 'mechanical' ) ;
#258 = CC_DESIGN_SECURITY_CLASSIFICATION ( #112, ( #205 ) ) ;
#259 = DATE_AND_TIME ( #289, #375 ) ;
#260 = APPROVAL ( #21, 'Coincident' ) ;
#261 = APPROVAL ( #14, 'Coincident' ) ;
#262 = APPLICATION_CONTEXT ( 'configuration controlled 3d designs of mechanical parts and assemblies' ) ;
#263 = COORDINATED_UNIVERSAL_TIME_OFFSET ( 10, 0, .AHEAD. ) ;
#264 = LOCAL_TIME ( 18, 49, 59.00000000000000000, #293 ) ;
#265 = APPROVAL_DATE_TIME ( #270, #253 ) ;
#266 = CALENDAR_DATE ( 2026, 22, 6 ) ;
#267 = SHAPE_REPRESENTATION ( '6461079856.step', ( #124 ), #86 ) ;
#268 = DATE_AND_TIME ( #360, #33 ) ;
#269 = SECURITY_CLASSIFICATION ( '', '', #249 ) ;
#270 = DATE_AND_TIME ( #266, #82 ) ;
#271 = APPLICATION_PROTOCOL_DEFINITION ( 'international standard', 'config_control_design', 1994, #262 ) ;
#272 = PROPERTY_DEFINITION_REPRESENTATION ( #248, #267 ) ;
#273 = APPROVAL_PERSON_ORGANIZATION ( #298, #253, #25 ) ;
#274 = PERSON ( 'NAUO-PER260', 'UNSPECIFIED', 'UNSPECIFIED', ('UNSPECIFIED'), ('UNSPECIFIED'), ('UNSPECIFIED') ) ;
#275 = LOCAL_TIME ( 18, 49, 59.00000000000000000, #1 ) ;
#276 = CALENDAR_DATE ( 2026, 22, 6 ) ;
#277 = PERSON_AND_ORGANIZATION ( #238, #217 ) ;
#278 =( LENGTH_UNIT ( ) NAMED_UNIT ( * ) SI_UNIT ( .MILLI., .METRE. ) );
#279 = APPLICATION_CONTEXT ( 'configuration controlled 3d designs of mechanical parts and assemblies' ) ;
#280 = APPROVAL_DATE_TIME ( #38, #28 ) ;
#281 = CC_DESIGN_APPROVAL ( #261, ( #205 ) ) ;
#282 = LOCAL_TIME ( 18, 49, 59.00000000000000000, #365 ) ;
#283 = DIRECTION ( 'NONE',  ( 1.000000000000000222, -1.092455418989176591E-28, 4.890937612370273194E-29 ) ) ;
#284 =( NAMED_UNIT ( * ) PLANE_ANGLE_UNIT ( ) SI_UNIT ( $, .RADIAN. ) );
#285 = PROPERTY_DEFINITION ('external definition','', #97 ) ;
#286 = APPROVAL ( #324, 'Coincident' ) ;
#287 = DATE_TIME_ROLE ( 'creation_date' ) ;
#288 = LOCAL_TIME ( 18, 49, 59.00000000000000000, #212 ) ;
#289 = CALENDAR_DATE ( 2026, 22, 6 ) ;
#290 = APPROVAL ( #211, 'Coincident' ) ;
#291 = PERSON_AND_ORGANIZATION ( #274, #210 ) ;
#292 = DATE_AND_TIME ( #141, #376 ) ;
#293 = COORDINATED_UNIVERSAL_TIME_OFFSET ( 10, 0, .AHEAD. ) ;
#294 = OBJECT_ROLE ('mandatory',$ ) ;
#295 = CC_DESIGN_APPROVAL ( #290, ( #239 ) ) ;
#296 = DATE_AND_TIME ( #23, #45 ) ;
#297 = UNCERTAINTY_MEASURE_WITH_UNIT (LENGTH_MEASURE( 1.000000000000000082E-05 ), #255, 'distance_accuracy_value', 'NONE');
#298 = PERSON_AND_ORGANIZATION ( #18446744073709551615, #18446744073709551615 ) ;
#299 = APPROVAL_DATE_TIME ( #268, #260 ) ;
#300 =( REPRESENTATION_RELATIONSHIP ('NONE','NONE', #186, #36 ) REPRESENTATION_RELATIONSHIP_WITH_TRANSFORMATION ( #98 )SHAPE_REPRESENTATION_RELATIONSHIP( ) );
#301 = LOCAL_TIME ( 18, 49, 59.00000000000000000, #320 ) ;
#302 = CC_DESIGN_PERSON_AND_ORGANIZATION_ASSIGNMENT ( #110, #107, ( #112 ) ) ;
#303 = PERSON_AND_ORGANIZATION ( #18446744073709551615, #18446744073709551615 ) ;
#304 = PERSON_AND_ORGANIZATION ( #18446744073709551615, #18446744073709551615 ) ;
#305 = CC_DESIGN_PERSON_AND_ORGANIZATION_ASSIGNMENT ( #208, #121, ( #236 ) ) ;
#306 = APPROVAL_ROLE ( '' ) ;
#307 = CARTESIAN_POINT ( 'NONE',  ( 0.000000000000000000, 0.000000000000000000, 0.000000000000000000 ) ) ;
#308 = CC_DESIGN_APPROVAL ( #253, ( #236 ) ) ;
#309 = APPLIED_DOCUMENT_REFERENCE ( #318,'',( #236) ) ;
#310 = CALENDAR_DATE ( 2026, 22, 6 ) ;
#311 = APPROVAL_ROLE ( '' ) ;
#312 = CARTESIAN_POINT ( 'NONE',  ( 0.000000000000000000, 0.000000000000000000, 0.000000000000000000 ) ) ;
#313 = CC_DESIGN_DATE_AND_TIME_ASSIGNMENT ( #187, #152, ( #181 ) ) ;
#314 = CONTEXT_DEPENDENT_SHAPE_REPRESENTATION ( #73, #44 ) ;
#315 = APPLIED_EXTERNAL_IDENTIFICATION_ASSIGNMENT ( '6461079856.step.STEP' , #364, #218,( #318) ) ;
#316 = CARTESIAN_POINT ( 'NONE',  ( 15.00000100705100436, 2.499996459961000728, -2.058321952820000078 ) ) ;
#317 = CC_DESIGN_DATE_AND_TIME_ASSIGNMENT ( #42, #355, ( #112 ) ) ;
#318 = DOCUMENT_FILE ( '6461079856.step.STEP' , '', '', #119, '' ,$ ) ;
#319 = PERSON_AND_ORGANIZATION ( #18446744073709551615, #18446744073709551615 ) ;
#320 = COORDINATED_UNIVERSAL_TIME_OFFSET ( 10, 0, .AHEAD. ) ;
#321 = CC_DESIGN_SECURITY_CLASSIFICATION ( #41, ( #389 ) ) ;
#322 = APPLICATION_CONTEXT ( 'configuration controlled 3d designs of mechanical parts and assemblies' ) ;
#323 = CALENDAR_DATE ( 2026, 22, 6 ) ;
#324 = APPROVAL_STATUS ( 'not_yet_approved' ) ;
#325 = CALENDAR_DATE ( 2026, 22, 6 ) ;
#326 = CC_DESIGN_APPROVAL ( #260, ( #162 ) ) ;
#327 = COORDINATED_UNIVERSAL_TIME_OFFSET ( 10, 0, .AHEAD. ) ;
#328 = CALENDAR_DATE ( 2026, 22, 6 ) ;
#329 = SHAPE_DEFINITION_REPRESENTATION ( #350, #36 ) ;
#330 = CC_DESIGN_PERSON_AND_ORGANIZATION_ASSIGNMENT ( #209, #237, ( #162 ) ) ;
#331 = CC_DESIGN_APPROVAL ( #30, ( #269 ) ) ;
#332 = PERSON_AND_ORGANIZATION ( #18446744073709551615, #18446744073709551615 ) ;
#333 = ITEM_DEFINED_TRANSFORMATION ( 'NONE', 'NONE', #216,  #124 ) ;
#334 = SHAPE_DEFINITION_REPRESENTATION ( #167, #267 ) ;
#335 = AXIS2_PLACEMENT_3D ( 'NONE', #307, #128, #163 ) ;
#336 = APPROVAL_PERSON_ORGANIZATION ( #182, #260, #145 ) ;
#337 = DATE_AND_TIME ( #215, #96 ) ;
#338 =( LENGTH_UNIT ( ) NAMED_UNIT ( * ) SI_UNIT ( .MILLI., .METRE. ) );
#339 = DATE_AND_TIME ( #310, #372 ) ;
#340 = OBJECT_ROLE ('mandatory',$ ) ;
#341 = CARTESIAN_POINT ( 'NONE',  ( 15.00000100705100436, 3.499996459960998063, -2.058321952819998302 ) ) ;
#342 = COORDINATED_UNIVERSAL_TIME_OFFSET ( 10, 0, .AHEAD. ) ;
#343 = DIRECTION ( 'NONE',  ( 0.000000000000000000, 0.000000000000000000, 1.000000000000000000 ) ) ;
#344 = PERSON_AND_ORGANIZATION_ROLE ( 'classification_officer' ) ;
#345 = AXIS2_PLACEMENT_3D ( 'NONE', #316, #157, #133 ) ;
#346 = APPROVAL_PERSON_ORGANIZATION ( #46, #101, #72 ) ;
#347 = DATE_AND_TIME ( #143, #264 ) ;
#348 = PROPERTY_DEFINITION ('document property','', #97 ) ;
#349 = SECURITY_CLASSIFICATION_LEVEL ( 'unclassified' ) ;
#350 = PRODUCT_DEFINITION_SHAPE ( 'NONE', 'NONE',  #180 ) ;
#351 = APPLICATION_CONTEXT ( 'configuration controlled 3d designs of mechanical parts and assemblies' ) ;
#352 = APPLICATION_PROTOCOL_DEFINITION ( 'international standard', 'config_control_design', 1994, #37 ) ;
#353 = APPLICATION_PROTOCOL_DEFINITION ( 'international standard', 'config_control_design', 1994, #351 ) ;
#354 = CC_DESIGN_APPROVAL ( #101, ( #112 ) ) ;
#355 = DATE_TIME_ROLE ( 'classification_date' ) ;
#356 = PERSON_AND_ORGANIZATION_ROLE ( 'creator' ) ;
#357 = DESIGN_CONTEXT ( 'detailed design', #201, 'design' ) ;
#358 = COORDINATED_UNIVERSAL_TIME_OFFSET ( 10, 0, .AHEAD. ) ;
#359 = LOCAL_TIME ( 18, 49, 59.00000000000000000, #246 ) ;
#360 = CALENDAR_DATE ( 2026, 22, 6 ) ;
#361 = UNCERTAINTY_MEASURE_WITH_UNIT (LENGTH_MEASURE( 1.000000000000000082E-05 ), #278, 'distance_accuracy_value', 'NONE');
#362 = COORDINATED_UNIVERSAL_TIME_OFFSET ( 10, 0, .AHEAD. ) ;
#363 = CC_DESIGN_DATE_AND_TIME_ASSIGNMENT ( #347, #129, ( #180 ) ) ;
#364 = IDENTIFICATION_ROLE ( 'external document id and location', $) ;
#365 = COORDINATED_UNIVERSAL_TIME_OFFSET ( 10, 0, .AHEAD. ) ;
#366 = APPROVAL_PERSON_ORGANIZATION ( #332, #191, #81 ) ;
#367 = COORDINATED_UNIVERSAL_TIME_OFFSET ( 10, 0, .AHEAD. ) ;
#368 = PROPERTY_DEFINITION ('document property','', #318 ) ;
#369 = SECURITY_CLASSIFICATION_LEVEL ( 'unclassified' ) ;
#370 = APPROVAL_STATUS ( 'not_yet_approved' ) ;
#371 =( REPRESENTATION_RELATIONSHIP ('NONE','NONE', #186, #267 ) REPRESENTATION_RELATIONSHIP_WITH_TRANSFORMATION ( #9 )SHAPE_REPRESENTATION_RELATIONSHIP( ) );
#372 = LOCAL_TIME ( 18, 49, 59.00000000000000000, #219 ) ;
#373 = CC_DESIGN_PERSON_AND_ORGANIZATION_ASSIGNMENT ( #232, #79, ( #205 ) ) ;
#374 = PERSON_AND_ORGANIZATION ( #18446744073709551615, #18446744073709551615 ) ;
#375 = LOCAL_TIME ( 18, 49, 59.00000000000000000, #138 ) ;
#376 = LOCAL_TIME ( 18, 49, 59.00000000000000000, #228 ) ;
#377 = COORDINATED_UNIVERSAL_TIME_OFFSET ( 10, 0, .AHEAD. ) ;
#378 = PROPERTY_DEFINITION ('external definition','', #190 ) ;
#379 = APPROVAL_DATE_TIME ( #259, #178 ) ;
#380 = ROLE_ASSOCIATION ( #294, #165 ) ;
#381 = DIRECTION ( 'NONE',  ( 0.000000000000000000, 0.000000000000000000, 1.000000000000000000 ) ) ;
#382 = APPROVAL_DATE_TIME ( #103, #261 ) ;
#383 = SECURITY_CLASSIFICATION ( '', '', #150 ) ;
#384 = PERSON ( 'NAUO-PER258', 'UNSPECIFIED', 'UNSPECIFIED', ('UNSPECIFIED'), ('UNSPECIFIED'), ('UNSPECIFIED') ) ;
#385 = DATE_TIME_ROLE ( 'classification_date' ) ;
#386 = DATE_AND_TIME ( #328, #20 ) ;
#387 = CC_DESIGN_SECURITY_CLASSIFICATION ( #162, ( #239 ) ) ;
#388 = NEXT_ASSEMBLY_USAGE_OCCURRENCE ( 'NAUO258', ' ', ' ', #24, #236, $ ) ;
#389 = NEXT_ASSEMBLY_USAGE_OCCURRENCE ( 'NAUO259', ' ', ' ', #24, #180, $ ) ;
#390 = NEXT_ASSEMBLY_USAGE_OCCURRENCE ( 'NAUO260', ' ', ' ', #24, #236, $ ) ;
ENDSEC;
END-ISO-10303-21;
