ISO-10303-21;
HEADER;
FILE_DESCRIPTION (( 'STEP AP203' ),
    '1' );
FILE_NAME ('C9.step.STEP',
    '2026-06-22T08:50:00',
    ( 'localuser' ),
    ( '' ),
    'SwSTEP 2.0',
    'SolidWorks 2025',
    '' );
FILE_SCHEMA (( 'CONFIG_CONTROL_DESIGN' ));
ENDSEC;

DATA;
#1 = PROPERTY_DEFINITION_REPRESENTATION ( #261, #254 ) ;
#2 = MECHANICAL_CONTEXT ( 'NONE', #301, 'mechanical' ) ;
#3 = CALENDAR_DATE ( 2026, 22, 6 ) ;
#4 = APPROVAL_ROLE ( '' ) ;
#5 = APPLIED_EXTERNAL_IDENTIFICATION_ASSIGNMENT ( '6461079856.step.STEP' , #341, #265,( #19) ) ;
#6 = APPROVAL_ROLE ( '' ) ;
#7 = CC_DESIGN_PERSON_AND_ORGANIZATION_ASSIGNMENT ( #215, #367, ( #387 ) ) ;
#8 = DATE_TIME_ROLE ( 'classification_date' ) ;
#9 = PERSON_AND_ORGANIZATION ( #18446744073709551615, #18446744073709551615 ) ;
#10 = AXIS2_PLACEMENT_3D ( 'NONE', #114, #325, #295 ) ;
#11 = CC_DESIGN_APPROVAL ( #208, ( #281 ) ) ;
#12 = CALENDAR_DATE ( 2026, 22, 6 ) ;
#13 = COORDINATED_UNIVERSAL_TIME_OFFSET ( 10, 0, .AHEAD. ) ;
#14 = PROPERTY_DEFINITION_REPRESENTATION ( #247, #42 ) ;
#15 = PERSON_AND_ORGANIZATION_ROLE ( 'classification_officer' ) ;
#16 = LOCAL_TIME ( 18, 50, 0.000000000000000000, #45 ) ;
#17 =( REPRESENTATION_RELATIONSHIP ('NONE','NONE', #108, #42 ) REPRESENTATION_RELATIONSHIP_WITH_TRANSFORMATION ( #169 )SHAPE_REPRESENTATION_RELATIONSHIP( ) );
#18 = APPROVAL ( #178, 'Coincident' ) ;
#19 = DOCUMENT_FILE ( '6461079856.step.STEP' , '', '', #349, '' ,$ ) ;
#20 = DIRECTION ( 'NONE',  ( 4.890937612370273194E-29, -3.155443620884047222E-30, 0.9999999999999997780 ) ) ;
#21 = COORDINATED_UNIVERSAL_TIME_OFFSET ( 10, 0, .AHEAD. ) ;
#22 = PERSON ( 'NAUO-PER277', 'UNSPECIFIED', 'UNSPECIFIED', ('UNSPECIFIED'), ('UNSPECIFIED'), ('UNSPECIFIED') ) ;
#23 = DATE_AND_TIME ( #271, #315 ) ;
#24 = LOCAL_TIME ( 18, 50, 0.000000000000000000, #35 ) ;
#25 = PERSON_AND_ORGANIZATION_ROLE ( 'classification_officer' ) ;
#26 =( NAMED_UNIT ( * ) SI_UNIT ( $, .STERADIAN. ) SOLID_ANGLE_UNIT ( ) );
#27 = APPROVAL ( #133, 'UNKNOWN' ) ;
#28 = CC_DESIGN_PERSON_AND_ORGANIZATION_ASSIGNMENT ( #184, #338, ( #77 ) ) ;
#29 = PERSON_AND_ORGANIZATION_ROLE ( 'creator' ) ;
#30 = DATE_AND_TIME ( #106, #225 ) ;
#31 = APPLICATION_PROTOCOL_DEFINITION ( 'international standard', 'config_control_design', 1994, #301 ) ;
#32 = LOCAL_TIME ( 18, 50, 0.000000000000000000, #328 ) ;
#33 = CC_DESIGN_APPROVAL ( #238, ( #260 ) ) ;
#34 = LOCAL_TIME ( 18, 50, 0.000000000000000000, #369 ) ;
#35 = COORDINATED_UNIVERSAL_TIME_OFFSET ( 10, 0, .AHEAD. ) ;
#36 = DESIGN_CONTEXT ( 'detailed design', #364, 'design' ) ;
#37 = DATE_AND_TIME ( #182, #378 ) ;
#38 = CC_DESIGN_PERSON_AND_ORGANIZATION_ASSIGNMENT ( #143, #276, ( #87 ) ) ;
#39 = COORDINATED_UNIVERSAL_TIME_OFFSET ( 10, 0, .AHEAD. ) ;
#40 = APPROVAL_PERSON_ORGANIZATION ( #62, #18, #365 ) ;
#41 = APPROVAL_STATUS ( 'not_yet_approved' ) ;
#42 = SHAPE_REPRESENTATION ( '6534431024.step', ( #120 ), #173 ) ;
#43 = EXTERNAL_SOURCE (IDENTIFIER('') ) ;
#44 = DATE_AND_TIME ( #312, #366 ) ;
#45 = COORDINATED_UNIVERSAL_TIME_OFFSET ( 10, 0, .AHEAD. ) ;
#46 = LOCAL_TIME ( 18, 50, 0.000000000000000000, #21 ) ;
#47 = SECURITY_CLASSIFICATION_LEVEL ( 'unclassified' ) ;
#48 = CC_DESIGN_DATE_AND_TIME_ASSIGNMENT ( #282, #8, ( #387 ) ) ;
#49 = DATE_AND_TIME ( #381, #83 ) ;
#50 =( NAMED_UNIT ( * ) PLANE_ANGLE_UNIT ( ) SI_UNIT ( $, .RADIAN. ) );
#51 = SECURITY_CLASSIFICATION_LEVEL ( 'unclassified' ) ;
#52 = CC_DESIGN_PERSON_AND_ORGANIZATION_ASSIGNMENT ( #189, #313, ( #201 ) ) ;
#53 = PRODUCT_DEFINITION_SHAPE ( 'NONE', 'NONE',  #388 ) ;
#54 = PROPERTY_DEFINITION_REPRESENTATION ( #368, #42 ) ;
#55 = CC_DESIGN_APPROVAL ( #333, ( #386 ) ) ;
#56 = APPROVAL_DATE_TIME ( #319, #333 ) ;
#57 = DIRECTION ( 'NONE',  ( 1.000000000000000000, 0.000000000000000000, 0.000000000000000000 ) ) ;
#58 = COORDINATED_UNIVERSAL_TIME_OFFSET ( 10, 0, .AHEAD. ) ;
#59 = APPLIED_DOCUMENT_REFERENCE ( #19,'',( #77) ) ;
#60 = OBJECT_ROLE ('mandatory',$ ) ;
#61 = APPROVAL_STATUS ( 'not_yet_approved' ) ;
#62 = PERSON_AND_ORGANIZATION ( #18446744073709551615, #18446744073709551615 ) ;
#63 = APPROVAL_PERSON_ORGANIZATION ( #181, #95, #277 ) ;
#64 = APPROVAL_PERSON_ORGANIZATION ( #249, #238, #6 ) ;
#65 = COORDINATED_UNIVERSAL_TIME_OFFSET ( 10, 0, .AHEAD. ) ;
#66 = DATE_AND_TIME ( #147, #73 ) ;
#67 = APPROVAL ( #91, 'Coincident' ) ;
#68 = DATE_AND_TIME ( #370, #219 ) ;
#69 = PERSON_AND_ORGANIZATION_ROLE ( 'design_supplier' ) ;
#70 = APPROVAL_DATE_TIME ( #340, #119 ) ;
#71 = CC_DESIGN_PERSON_AND_ORGANIZATION_ASSIGNMENT ( #324, #204, ( #144 ) ) ;
#72 = APPROVAL_ROLE ( '' ) ;
#73 = LOCAL_TIME ( 18, 50, 0.000000000000000000, #311 ) ;
#74 = SECURITY_CLASSIFICATION_LEVEL ( 'unclassified' ) ;
#75 = CARTESIAN_POINT ( 'NONE',  ( 10.55000024411100590, 3.700001037597998810, -2.058321952820000078 ) ) ;
#76 = APPROVAL_ROLE ( '' ) ;
#77 = PRODUCT_DEFINITION ( 'General', '', #260, #89 ) ;
#78 = PROPERTY_DEFINITION ('document property','', #19 ) ;
#79 = CALENDAR_DATE ( 2026, 22, 6 ) ;
#80 = IDENTIFICATION_ROLE ( 'external document id and location', $) ;
#81 = SECURITY_CLASSIFICATION ( '', '', #331 ) ;
#82 = APPROVAL_STATUS ( 'not_yet_approved' ) ;
#83 = LOCAL_TIME ( 18, 50, 0.000000000000000000, #291 ) ;
#84 = PRODUCT_RELATED_PRODUCT_CATEGORY ( 'detail', '', ( #196 ) ) ;
#85 = DIRECTION ( 'NONE',  ( 1.000000000000000222, -1.092455418989176591E-28, 4.890937612370273194E-29 ) ) ;
#86 = DIRECTION ( 'NONE',  ( 1.000000000000000000, 0.000000000000000000, 0.000000000000000000 ) ) ;
#87 = PRODUCT_DEFINITION_FORMATION_WITH_SPECIFIED_SOURCE ( 'Symmetric', '', #228, .NOT_KNOWN. ) ;
#88 = APPROVAL_PERSON_ORGANIZATION ( #221, #119, #4 ) ;
#89 = DESIGN_CONTEXT ( 'detailed design', #179, 'design' ) ;
#90 = COORDINATED_UNIVERSAL_TIME_OFFSET ( 10, 0, .AHEAD. ) ;
#91 = APPROVAL_STATUS ( 'not_yet_approved' ) ;
#92 = PERSON_AND_ORGANIZATION ( #18446744073709551615, #18446744073709551615 ) ;
#93 = APPROVAL_DATE_TIME ( #118, #18 ) ;
#94 = APPROVAL_PERSON_ORGANIZATION ( #337, #161, #375 ) ;
#95 = APPROVAL ( #61, 'Coincident' ) ;
#96 = SECURITY_CLASSIFICATION_LEVEL ( 'unclassified' ) ;
#97 = CC_DESIGN_DATE_AND_TIME_ASSIGNMENT ( #30, #131, ( #297 ) ) ;
#98 = PRODUCT_RELATED_PRODUCT_CATEGORY ( 'detail', '', ( #165 ) ) ;
#99 = PERSON_AND_ORGANIZATION_ROLE ( 'creator' ) ;
#100 = PERSON ( 'NAUO-PER278', 'UNSPECIFIED', 'UNSPECIFIED', ('UNSPECIFIED'), ('UNSPECIFIED'), ('UNSPECIFIED') ) ;
#101 = APPLICATION_PROTOCOL_DEFINITION ( 'international standard', 'config_control_design', 1994, #364 ) ;
#102 = EXTERNAL_SOURCE (IDENTIFIER('') ) ;
#103 = CC_DESIGN_APPROVAL ( #145, ( #344 ) ) ;
#104 = APPROVAL_STATUS ( 'not_yet_approved' ) ;
#105 = COORDINATED_UNIVERSAL_TIME_OFFSET ( 10, 0, .AHEAD. ) ;
#106 = CALENDAR_DATE ( 2026, 22, 6 ) ;
#107 = CC_DESIGN_APPROVAL ( #161, ( #387 ) ) ;
#108 = SHAPE_REPRESENTATION ( 'C9.step', ( #326, #267, #224, #10 ), #343 ) ;
#109 = APPROVAL_STATUS ( 'not_yet_approved' ) ;
#110 =( LENGTH_UNIT ( ) NAMED_UNIT ( * ) SI_UNIT ( .MILLI., .METRE. ) );
#111 = APPROVAL_ROLE ( '' ) ;
#112 = PRODUCT_DEFINITION_SHAPE ( 'NONE', 'NONE',  #281 ) ;
#113 = ITEM_DEFINED_TRANSFORMATION ( 'NONE', 'NONE', #10,  #218 ) ;
#114 = CARTESIAN_POINT ( 'NONE',  ( 10.55000024411100590, 2.700001037598001474, -2.058321952820000078 ) ) ;
#115 = LOCAL_TIME ( 18, 50, 0.000000000000000000, #240 ) ;
#116 = LOCAL_TIME ( 18, 50, 0.000000000000000000, #288 ) ;
#117 =( NAMED_UNIT ( * ) SI_UNIT ( $, .STERADIAN. ) SOLID_ANGLE_UNIT ( ) );
#118 = DATE_AND_TIME ( #3, #24 ) ;
#119 = APPROVAL ( #314, 'Coincident' ) ;
#120 = AXIS2_PLACEMENT_3D ( 'NONE', #318, #382, #57 ) ;
#121 = PERSON_AND_ORGANIZATION_ROLE ( 'classification_officer' ) ;
#122 = APPLICATION_CONTEXT ( 'configuration controlled 3d designs of mechanical parts and assemblies' ) ;
#123 = PERSON_AND_ORGANIZATION_ROLE ( 'design_owner' ) ;
#124 =( NAMED_UNIT ( * ) PLANE_ANGLE_UNIT ( ) SI_UNIT ( $, .RADIAN. ) );
#125 = PERSON_AND_ORGANIZATION ( #18446744073709551615, #18446744073709551615 ) ;
#126 =( GEOMETRIC_REPRESENTATION_CONTEXT ( 3 ) GLOBAL_UNCERTAINTY_ASSIGNED_CONTEXT ( ( #332 ) ) GLOBAL_UNIT_ASSIGNED_CONTEXT ( ( #293, #50, #233 ) ) REPRESENTATION_CONTEXT ( 'NONE', 'WORKASPACE' ) );
#127 = APPROVAL_PERSON_ORGANIZATION ( #304, #27, #235 ) ;
#128 = DATE_AND_TIME ( #130, #16 ) ;
#129 = COORDINATED_UNIVERSAL_TIME_OFFSET ( 10, 0, .AHEAD. ) ;
#130 = CALENDAR_DATE ( 2026, 22, 6 ) ;
#131 = DATE_TIME_ROLE ( 'classification_date' ) ;
#132 = PERSON_AND_ORGANIZATION ( #18446744073709551615, #18446744073709551615 ) ;
#133 = APPROVAL_STATUS ( 'not_yet_approved' ) ;
#134 = CC_DESIGN_SECURITY_CLASSIFICATION ( #344, ( #201 ) ) ;
#135 = PROPERTY_DEFINITION ('external definition','', #229 ) ;
#136 = APPLICATION_CONTEXT ( 'configuration controlled 3d designs of mechanical parts and assemblies' ) ;
#137 = CALENDAR_DATE ( 2026, 22, 6 ) ;
#138 = CARTESIAN_POINT ( 'NONE',  ( 0.000000000000000000, 0.000000000000000000, 0.000000000000000000 ) ) ;
#139 = CONTEXT_DEPENDENT_SHAPE_REPRESENTATION ( #323, #162 ) ;
#140 = ORGANIZATION ( 'NAUO-ORG278', 'UNSPECIFIED', 'UNSPECIFIED' ) ;
#141 = DATE_AND_TIME ( #330, #192 ) ;
#142 = PERSON_AND_ORGANIZATION ( #18446744073709551615, #18446744073709551615 ) ;
#143 = PERSON_AND_ORGANIZATION ( #18446744073709551615, #18446744073709551615 ) ;
#144 = SECURITY_CLASSIFICATION ( '', '', #51 ) ;
#145 = APPROVAL ( #109, 'Coincident' ) ;
#146 = APPLICATION_PROTOCOL_DEFINITION ( 'international standard', 'config_control_design', 1994, #179 ) ;
#147 = CALENDAR_DATE ( 2026, 22, 6 ) ;
#148 = SECURITY_CLASSIFICATION_LEVEL ( 'unclassified' ) ;
#149 = APPROVAL_PERSON_ORGANIZATION ( #283, #208, #72 ) ;
#150 = ORGANIZATION ( 'NAUO-ORG277', 'UNSPECIFIED', 'UNSPECIFIED' ) ;
#151 = APPROVAL_DATE_TIME ( #342, #238 ) ;
#152 = UNCERTAINTY_MEASURE_WITH_UNIT (LENGTH_MEASURE( 1.000000000000000082E-05 ), #110, 'distance_accuracy_value', 'NONE');
#153 = APPROVAL_DATE_TIME ( #68, #161 ) ;
#154 =( REPRESENTATION_RELATIONSHIP ('NONE','NONE', #108, #254 ) REPRESENTATION_RELATIONSHIP_WITH_TRANSFORMATION ( #197 )SHAPE_REPRESENTATION_RELATIONSHIP( ) );
#155 = PERSON_AND_ORGANIZATION_ROLE ( 'design_supplier' ) ;
#156 = CC_DESIGN_SECURITY_CLASSIFICATION ( #386, ( #388 ) ) ;
#157 = ROLE_ASSOCIATION ( #241, #292 ) ;
#158 = PRODUCT_DEFINITION ( 'General', '', #87, #298 ) ;
#159 = DATE_TIME_ROLE ( 'classification_date' ) ;
#160 = DIRECTION ( 'NONE',  ( 0.000000000000000000, 0.000000000000000000, 1.000000000000000000 ) ) ;
#161 = APPROVAL ( #336, 'Coincident' ) ;
#162 = PRODUCT_DEFINITION_SHAPE ( 'NONE', 'NONE',  #390 ) ;
#163 = PERSON_AND_ORGANIZATION ( #18446744073709551615, #18446744073709551615 ) ;
#164 = PERSON_AND_ORGANIZATION ( #18446744073709551615, #18446744073709551615 ) ;
#165 = PRODUCT ( '6461079856.step', '6461079856.step', '', ( #2 ) ) ;
#166 = LOCAL_TIME ( 18, 50, 0.000000000000000000, #232 ) ;
#167 = APPROVAL_STATUS ( 'not_yet_approved' ) ;
#168 = UNCERTAINTY_MEASURE_WITH_UNIT (LENGTH_MEASURE( 1.000000000000000082E-05 ), #351, 'distance_accuracy_value', 'NONE');
#169 = ITEM_DEFINED_TRANSFORMATION ( 'NONE', 'NONE', #267,  #120 ) ;
#170 =( NAMED_UNIT ( * ) PLANE_ANGLE_UNIT ( ) SI_UNIT ( $, .RADIAN. ) );
#171 = APPROVAL_DATE_TIME ( #23, #27 ) ;
#172 = MECHANICAL_CONTEXT ( 'NONE', #136, 'mechanical' ) ;
#173 =( GEOMETRIC_REPRESENTATION_CONTEXT ( 3 ) GLOBAL_UNCERTAINTY_ASSIGNED_CONTEXT ( ( #168 ) ) GLOBAL_UNIT_ASSIGNED_CONTEXT ( ( #351, #170, #117 ) ) REPRESENTATION_CONTEXT ( 'NONE', 'WORKASPACE' ) );
#174 = LOCAL_TIME ( 18, 50, 0.000000000000000000, #129 ) ;
#175 = PERSON_AND_ORGANIZATION ( #18446744073709551615, #18446744073709551615 ) ;
#176 = DATE_TIME_ROLE ( 'creation_date' ) ;
#177 = CC_DESIGN_PERSON_AND_ORGANIZATION_ASSIGNMENT ( #304, #25, ( #297 ) ) ;
#178 = APPROVAL_STATUS ( 'not_yet_approved' ) ;
#179 = APPLICATION_CONTEXT ( 'configuration controlled 3d designs of mechanical parts and assemblies' ) ;
#180 = LOCAL_TIME ( 18, 50, 0.000000000000000000, #203 ) ;
#181 = PERSON_AND_ORGANIZATION ( #18446744073709551615, #18446744073709551615 ) ;
#182 = CALENDAR_DATE ( 2026, 22, 6 ) ;
#183 = COORDINATED_UNIVERSAL_TIME_OFFSET ( 10, 0, .AHEAD. ) ;
#184 = PERSON_AND_ORGANIZATION ( #18446744073709551615, #18446744073709551615 ) ;
#185 = CC_DESIGN_SECURITY_CLASSIFICATION ( #144, ( #389 ) ) ;
#186 = CC_DESIGN_DATE_AND_TIME_ASSIGNMENT ( #128, #252, ( #281 ) ) ;
#187 = PERSON_AND_ORGANIZATION_ROLE ( 'design_owner' ) ;
#188 = CC_DESIGN_PERSON_AND_ORGANIZATION_ASSIGNMENT ( #125, #155, ( #201 ) ) ;
#189 = PERSON_AND_ORGANIZATION ( #18446744073709551615, #18446744073709551615 ) ;
#190 = APPROVAL_DATE_TIME ( #44, #208 ) ;
#191 = APPROVAL_PERSON_ORGANIZATION ( #213, #290, #306 ) ;
#192 = LOCAL_TIME ( 18, 50, 0.000000000000000000, #90 ) ;
#193 = PERSON_AND_ORGANIZATION ( #345, #361 ) ;
#194 = CC_DESIGN_PERSON_AND_ORGANIZATION_ASSIGNMENT ( #132, #69, ( #260 ) ) ;
#195 = CARTESIAN_POINT ( 'NONE',  ( 0.000000000000000000, 0.000000000000000000, 0.000000000000000000 ) ) ;
#196 = PRODUCT ( '6534431024.step', '6534431024.step', '', ( #308 ) ) ;
#197 = ITEM_DEFINED_TRANSFORMATION ( 'NONE', 'NONE', #224,  #218 ) ;
#198 = DATE_AND_TIME ( #376, #46 ) ;
#199 = APPROVAL_PERSON_ORGANIZATION ( #358, #67, #243 ) ;
#200 = APPLICATION_CONTEXT ( 'configuration controlled 3d designs of mechanical parts and assemblies' ) ;
#201 = PRODUCT_DEFINITION_FORMATION_WITH_SPECIFIED_SOURCE ( 'Symmetric', '', #196, .NOT_KNOWN. ) ;
#202 = CC_DESIGN_APPROVAL ( #119, ( #201 ) ) ;
#203 = COORDINATED_UNIVERSAL_TIME_OFFSET ( 10, 0, .AHEAD. ) ;
#204 = PERSON_AND_ORGANIZATION_ROLE ( 'classification_officer' ) ;
#205 = CC_DESIGN_DATE_AND_TIME_ASSIGNMENT ( #273, #176, ( #158 ) ) ;
#206 = LOCAL_TIME ( 18, 50, 0.000000000000000000, #58 ) ;
#207 = APPROVAL_PERSON_ORGANIZATION ( #324, #237, #111 ) ;
#208 = APPROVAL ( #104, 'Coincident' ) ;
#209 = CALENDAR_DATE ( 2026, 22, 6 ) ;
#210 = PERSON_AND_ORGANIZATION ( #18446744073709551615, #18446744073709551615 ) ;
#211 = DATE_AND_TIME ( #209, #32 ) ;
#212 = CC_DESIGN_APPROVAL ( #27, ( #297 ) ) ;
#213 = PERSON_AND_ORGANIZATION ( #18446744073709551615, #18446744073709551615 ) ;
#214 = SHAPE_DEFINITION_REPRESENTATION ( #348, #254 ) ;
#215 = PERSON_AND_ORGANIZATION ( #18446744073709551615, #18446744073709551615 ) ;
#216 = CC_DESIGN_DATE_AND_TIME_ASSIGNMENT ( #66, #245, ( #77 ) ) ;
#217 = PERSON_AND_ORGANIZATION ( #18446744073709551615, #18446744073709551615 ) ;
#218 = AXIS2_PLACEMENT_3D ( 'NONE', #138, #160, #227 ) ;
#219 = LOCAL_TIME ( 18, 50, 0.000000000000000000, #183 ) ;
#220 = DOCUMENT_TYPE ( 'geometry' ) ;
#221 = PERSON_AND_ORGANIZATION ( #18446744073709551615, #18446744073709551615 ) ;
#222 = APPROVAL_DATE_TIME ( #37, #290 ) ;
#223 = DATE_AND_TIME ( #226, #166 ) ;
#224 = AXIS2_PLACEMENT_3D ( 'NONE', #75, #379, #384 ) ;
#225 = LOCAL_TIME ( 18, 50, 0.000000000000000000, #256 ) ;
#226 = CALENDAR_DATE ( 2026, 22, 6 ) ;
#227 = DIRECTION ( 'NONE',  ( 1.000000000000000000, 0.000000000000000000, 0.000000000000000000 ) ) ;
#228 = PRODUCT ( 'C9.step', 'C9.step', '', ( #172 ) ) ;
#229 = DOCUMENT_FILE ( '6461079856.step.STEP' , '', '', #220, '' ,$ ) ;
#230 = CALENDAR_DATE ( 2026, 22, 6 ) ;
#231 = CC_DESIGN_SECURITY_CLASSIFICATION ( #297, ( #390 ) ) ;
#232 = COORDINATED_UNIVERSAL_TIME_OFFSET ( 10, 0, .AHEAD. ) ;
#233 =( NAMED_UNIT ( * ) SI_UNIT ( $, .STERADIAN. ) SOLID_ANGLE_UNIT ( ) );
#234 = CC_DESIGN_PERSON_AND_ORGANIZATION_ASSIGNMENT ( #164, #363, ( #228 ) ) ;
#235 = APPROVAL_ROLE ( '' ) ;
#236 = APPROVAL_DATE_TIME ( #239, #95 ) ;
#237 = APPROVAL ( #167, 'UNKNOWN' ) ;
#238 = APPROVAL ( #41, 'Coincident' ) ;
#239 = DATE_AND_TIME ( #242, #206 ) ;
#240 = COORDINATED_UNIVERSAL_TIME_OFFSET ( 10, 0, .AHEAD. ) ;
#241 = OBJECT_ROLE ('mandatory',$ ) ;
#242 = CALENDAR_DATE ( 2026, 22, 6 ) ;
#243 = APPROVAL_ROLE ( '' ) ;
#244 = CC_DESIGN_SECURITY_CLASSIFICATION ( #81, ( #87 ) ) ;
#245 = DATE_TIME_ROLE ( 'creation_date' ) ;
#246 = CALENDAR_DATE ( 2026, 22, 6 ) ;
#247 = PROPERTY_DEFINITION ('external definition','', #270 ) ;
#248 = CALENDAR_DATE ( 2026, 22, 6 ) ;
#249 = PERSON_AND_ORGANIZATION ( #18446744073709551615, #18446744073709551615 ) ;
#250 = CC_DESIGN_APPROVAL ( #67, ( #87 ) ) ;
#251 = APPLIED_EXTERNAL_IDENTIFICATION_ASSIGNMENT ( '6534431024.step.STEP' , #371, #43,( #270) ) ;
#252 = DATE_TIME_ROLE ( 'creation_date' ) ;
#253 = CC_DESIGN_PERSON_AND_ORGANIZATION_ASSIGNMENT ( #193, #262, ( #386 ) ) ;
#254 = SHAPE_REPRESENTATION ( '6461079856.step', ( #218 ), #126 ) ;
#255 = CC_DESIGN_PERSON_AND_ORGANIZATION_ASSIGNMENT ( #285, #99, ( #260 ) ) ;
#256 = COORDINATED_UNIVERSAL_TIME_OFFSET ( 10, 0, .AHEAD. ) ;
#257 = CONTEXT_DEPENDENT_SHAPE_REPRESENTATION ( #154, #320 ) ;
#258 = PRODUCT_DEFINITION_SHAPE ( 'NONE', 'NONE',  #158 ) ;
#259 = CARTESIAN_POINT ( 'NONE',  ( 10.55000024411100590, 3.200001037598001918, -2.058321952820000078 ) ) ;
#260 = PRODUCT_DEFINITION_FORMATION_WITH_SPECIFIED_SOURCE ( 'Symmetric', '', #165, .NOT_KNOWN. ) ;
#261 = PROPERTY_DEFINITION ('external definition','', #19 ) ;
#262 = PERSON_AND_ORGANIZATION_ROLE ( 'classification_officer' ) ;
#263 = CC_DESIGN_DATE_AND_TIME_ASSIGNMENT ( #198, #159, ( #144 ) ) ;
#264 = DATE_TIME_ROLE ( 'classification_date' ) ;
#265 = EXTERNAL_SOURCE (IDENTIFIER('') ) ;
#266 = PROPERTY_DEFINITION_REPRESENTATION ( #135, #254 ) ;
#267 = AXIS2_PLACEMENT_3D ( 'NONE', #259, #20, #85 ) ;
#268 = CC_DESIGN_APPROVAL ( #18, ( #81 ) ) ;
#269 = COORDINATED_UNIVERSAL_TIME_OFFSET ( 10, 0, .AHEAD. ) ;
#270 = DOCUMENT_FILE ( '6534431024.step.STEP' , '', '', #284, '' ,$ ) ;
#271 = CALENDAR_DATE ( 2026, 22, 6 ) ;
#272 = DATE_TIME_ROLE ( 'classification_date' ) ;
#273 = DATE_AND_TIME ( #360, #115 ) ;
#274 = ROLE_ASSOCIATION ( #296, #59 ) ;
#275 = APPLICATION_PROTOCOL_DEFINITION ( 'international standard', 'config_control_design', 1994, #122 ) ;
#276 = PERSON_AND_ORGANIZATION_ROLE ( 'design_supplier' ) ;
#277 = APPROVAL_ROLE ( '' ) ;
#278 = PERSON_AND_ORGANIZATION_ROLE ( 'creator' ) ;
#279 = CC_DESIGN_PERSON_AND_ORGANIZATION_ASSIGNMENT ( #210, #305, ( #158 ) ) ;
#280 = PERSON_AND_ORGANIZATION ( #18446744073709551615, #18446744073709551615 ) ;
#281 = PRODUCT_DEFINITION ( 'General', '', #201, #36 ) ;
#282 = DATE_AND_TIME ( #248, #174 ) ;
#283 = PERSON_AND_ORGANIZATION ( #18446744073709551615, #18446744073709551615 ) ;
#284 = DOCUMENT_TYPE ( 'geometry' ) ;
#285 = PERSON_AND_ORGANIZATION ( #18446744073709551615, #18446744073709551615 ) ;
#286 = CC_DESIGN_APPROVAL ( #95, ( #158 ) ) ;
#287 = LOCAL_TIME ( 18, 50, 0.000000000000000000, #105 ) ;
#288 = COORDINATED_UNIVERSAL_TIME_OFFSET ( 10, 0, .AHEAD. ) ;
#289 = ROLE_ASSOCIATION ( #60, #316 ) ;
#290 = APPROVAL ( #335, 'Coincident' ) ;
#291 = COORDINATED_UNIVERSAL_TIME_OFFSET ( 10, 0, .AHEAD. ) ;
#292 = APPLIED_DOCUMENT_REFERENCE ( #229,'',( #77) ) ;
#293 =( LENGTH_UNIT ( ) NAMED_UNIT ( * ) SI_UNIT ( .MILLI., .METRE. ) );
#294 = DATE_TIME_ROLE ( 'classification_date' ) ;
#295 = DIRECTION ( 'NONE',  ( 1.000000000000000222, -1.092455418989176591E-28, 4.890937612370273194E-29 ) ) ;
#296 = OBJECT_ROLE ('mandatory',$ ) ;
#297 = SECURITY_CLASSIFICATION ( '', '', #47 ) ;
#298 = DESIGN_CONTEXT ( 'detailed design', #122, 'design' ) ;
#299 = APPROVAL_DATE_TIME ( #211, #67 ) ;
#300 = SHAPE_DEFINITION_REPRESENTATION ( #258, #108 ) ;
#301 = APPLICATION_CONTEXT ( 'configuration controlled 3d designs of mechanical parts and assemblies' ) ;
#302 = APPLIED_EXTERNAL_IDENTIFICATION_ASSIGNMENT ( '6461079856.step.STEP' , #80, #102,( #229) ) ;
#303 = CC_DESIGN_DATE_AND_TIME_ASSIGNMENT ( #223, #264, ( #344 ) ) ;
#304 = PERSON_AND_ORGANIZATION ( #100, #140 ) ;
#305 = PERSON_AND_ORGANIZATION_ROLE ( 'creator' ) ;
#306 = APPROVAL_ROLE ( '' ) ;
#307 = CC_DESIGN_DATE_AND_TIME_ASSIGNMENT ( #377, #294, ( #386 ) ) ;
#308 = MECHANICAL_CONTEXT ( 'NONE', #200, 'mechanical' ) ;
#309 = PRODUCT_RELATED_PRODUCT_CATEGORY ( 'detail', '', ( #228 ) ) ;
#310 = CC_DESIGN_SECURITY_CLASSIFICATION ( #387, ( #260 ) ) ;
#311 = COORDINATED_UNIVERSAL_TIME_OFFSET ( 10, 0, .AHEAD. ) ;
#312 = CALENDAR_DATE ( 2026, 22, 6 ) ;
#313 = PERSON_AND_ORGANIZATION_ROLE ( 'creator' ) ;
#314 = APPROVAL_STATUS ( 'not_yet_approved' ) ;
#315 = LOCAL_TIME ( 18, 50, 0.000000000000000000, #269 ) ;
#316 = APPLIED_DOCUMENT_REFERENCE ( #270,'',( #281) ) ;
#317 = CC_DESIGN_PERSON_AND_ORGANIZATION_ASSIGNMENT ( #175, #29, ( #87 ) ) ;
#318 = CARTESIAN_POINT ( 'NONE',  ( 0.000000000000000000, 0.000000000000000000, 0.000000000000000000 ) ) ;
#319 = DATE_AND_TIME ( #230, #180 ) ;
#320 = PRODUCT_DEFINITION_SHAPE ( 'NONE', 'NONE',  #389 ) ;
#321 = SHAPE_DEFINITION_REPRESENTATION ( #112, #42 ) ;
#322 = CC_DESIGN_APPROVAL ( #290, ( #77 ) ) ;
#323 =( REPRESENTATION_RELATIONSHIP ('NONE','NONE', #108, #254 ) REPRESENTATION_RELATIONSHIP_WITH_TRANSFORMATION ( #113 )SHAPE_REPRESENTATION_RELATIONSHIP( ) );
#324 = PERSON_AND_ORGANIZATION ( #22, #150 ) ;
#325 = DIRECTION ( 'NONE',  ( 4.890937612370273194E-29, -3.155443620884047222E-30, 0.9999999999999997780 ) ) ;
#326 = AXIS2_PLACEMENT_3D ( 'NONE', #195, #362, #86 ) ;
#327 = CC_DESIGN_APPROVAL ( #237, ( #144 ) ) ;
#328 = COORDINATED_UNIVERSAL_TIME_OFFSET ( 10, 0, .AHEAD. ) ;
#329 = CC_DESIGN_PERSON_AND_ORGANIZATION_ASSIGNMENT ( #9, #278, ( #281 ) ) ;
#330 = CALENDAR_DATE ( 2026, 22, 6 ) ;
#331 = SECURITY_CLASSIFICATION_LEVEL ( 'unclassified' ) ;
#332 = UNCERTAINTY_MEASURE_WITH_UNIT (LENGTH_MEASURE( 1.000000000000000082E-05 ), #293, 'distance_accuracy_value', 'NONE');
#333 = APPROVAL ( #82, 'UNKNOWN' ) ;
#334 = LOCAL_TIME ( 18, 50, 0.000000000000000000, #13 ) ;
#335 = APPROVAL_STATUS ( 'not_yet_approved' ) ;
#336 = APPROVAL_STATUS ( 'not_yet_approved' ) ;
#337 = PERSON_AND_ORGANIZATION ( #18446744073709551615, #18446744073709551615 ) ;
#338 = PERSON_AND_ORGANIZATION_ROLE ( 'creator' ) ;
#339 = CC_DESIGN_PERSON_AND_ORGANIZATION_ASSIGNMENT ( #92, #123, ( #165 ) ) ;
#340 = DATE_AND_TIME ( #12, #287 ) ;
#341 = IDENTIFICATION_ROLE ( 'external document id and location', $) ;
#342 = DATE_AND_TIME ( #246, #34 ) ;
#343 =( GEOMETRIC_REPRESENTATION_CONTEXT ( 3 ) GLOBAL_UNCERTAINTY_ASSIGNED_CONTEXT ( ( #152 ) ) GLOBAL_UNIT_ASSIGNED_CONTEXT ( ( #110, #124, #26 ) ) REPRESENTATION_CONTEXT ( 'NONE', 'WORKASPACE' ) );
#344 = SECURITY_CLASSIFICATION ( '', '', #148 ) ;
#345 = PERSON ( 'NAUO-PER276', 'UNSPECIFIED', 'UNSPECIFIED', ('UNSPECIFIED'), ('UNSPECIFIED'), ('UNSPECIFIED') ) ;
#346 = APPROVAL_DATE_TIME ( #352, #145 ) ;
#347 = CC_DESIGN_PERSON_AND_ORGANIZATION_ASSIGNMENT ( #217, #187, ( #196 ) ) ;
#348 = PRODUCT_DEFINITION_SHAPE ( 'NONE', 'NONE',  #77 ) ;
#349 = DOCUMENT_TYPE ( 'geometry' ) ;
#350 = APPROVAL_ROLE ( '' ) ;
#351 =( LENGTH_UNIT ( ) NAMED_UNIT ( * ) SI_UNIT ( .MILLI., .METRE. ) );
#352 = DATE_AND_TIME ( #137, #116 ) ;
#353 = APPROVAL_PERSON_ORGANIZATION ( #163, #145, #350 ) ;
#354 = CONTEXT_DEPENDENT_SHAPE_REPRESENTATION ( #17, #53 ) ;
#355 = APPLICATION_PROTOCOL_DEFINITION ( 'international standard', 'config_control_design', 1994, #136 ) ;
#356 = CC_DESIGN_PERSON_AND_ORGANIZATION_ASSIGNMENT ( #142, #121, ( #81 ) ) ;
#357 = PROPERTY_DEFINITION_REPRESENTATION ( #78, #254 ) ;
#358 = PERSON_AND_ORGANIZATION ( #18446744073709551615, #18446744073709551615 ) ;
#359 = CC_DESIGN_DATE_AND_TIME_ASSIGNMENT ( #141, #272, ( #81 ) ) ;
#360 = CALENDAR_DATE ( 2026, 22, 6 ) ;
#361 = ORGANIZATION ( 'NAUO-ORG276', 'UNSPECIFIED', 'UNSPECIFIED' ) ;
#362 = DIRECTION ( 'NONE',  ( 0.000000000000000000, 0.000000000000000000, 1.000000000000000000 ) ) ;
#363 = PERSON_AND_ORGANIZATION_ROLE ( 'design_owner' ) ;
#364 = APPLICATION_CONTEXT ( 'configuration controlled 3d designs of mechanical parts and assemblies' ) ;
#365 = APPROVAL_ROLE ( '' ) ;
#366 = LOCAL_TIME ( 18, 50, 0.000000000000000000, #39 ) ;
#367 = PERSON_AND_ORGANIZATION_ROLE ( 'classification_officer' ) ;
#368 = PROPERTY_DEFINITION ('document property','', #270 ) ;
#369 = COORDINATED_UNIVERSAL_TIME_OFFSET ( 10, 0, .AHEAD. ) ;
#370 = CALENDAR_DATE ( 2026, 22, 6 ) ;
#371 = IDENTIFICATION_ROLE ( 'external document id and location', $) ;
#372 = APPROVAL_PERSON_ORGANIZATION ( #193, #333, #76 ) ;
#373 = APPLICATION_PROTOCOL_DEFINITION ( 'international standard', 'config_control_design', 1994, #200 ) ;
#374 = CC_DESIGN_PERSON_AND_ORGANIZATION_ASSIGNMENT ( #280, #15, ( #344 ) ) ;
#375 = APPROVAL_ROLE ( '' ) ;
#376 = CALENDAR_DATE ( 2026, 22, 6 ) ;
#377 = DATE_AND_TIME ( #79, #334 ) ;
#378 = LOCAL_TIME ( 18, 50, 0.000000000000000000, #65 ) ;
#379 = DIRECTION ( 'NONE',  ( 4.890937612370273194E-29, -3.155443620884047222E-30, 0.9999999999999997780 ) ) ;
#380 = PROPERTY_DEFINITION ('document property','', #229 ) ;
#381 = CALENDAR_DATE ( 2026, 22, 6 ) ;
#382 = DIRECTION ( 'NONE',  ( 0.000000000000000000, 0.000000000000000000, 1.000000000000000000 ) ) ;
#383 = APPROVAL_DATE_TIME ( #49, #237 ) ;
#384 = DIRECTION ( 'NONE',  ( 1.000000000000000222, -1.092455418989176591E-28, 4.890937612370273194E-29 ) ) ;
#385 = PROPERTY_DEFINITION_REPRESENTATION ( #380, #254 ) ;
#386 = SECURITY_CLASSIFICATION ( '', '', #74 ) ;
#387 = SECURITY_CLASSIFICATION ( '', '', #96 ) ;
#388 = NEXT_ASSEMBLY_USAGE_OCCURRENCE ( 'NAUO276', ' ', ' ', #158, #281, $ ) ;
#389 = NEXT_ASSEMBLY_USAGE_OCCURRENCE ( 'NAUO277', ' ', ' ', #158, #77, $ ) ;
#390 = NEXT_ASSEMBLY_USAGE_OCCURRENCE ( 'NAUO278', ' ', ' ', #158, #77, $ ) ;
ENDSEC;
END-ISO-10303-21;
