ISO-10303-21;
HEADER;
FILE_DESCRIPTION (( 'STEP AP203' ),
    '1' );
FILE_NAME ('Camera_assembly.STEP',
    '2026-06-22T08:50:19',
    ( 'localuser' ),
    ( '' ),
    'SwSTEP 2.0',
    'SolidWorks 2025',
    '' );
FILE_SCHEMA (( 'CONFIG_CONTROL_DESIGN' ));
ENDSEC;

DATA;
#1 =( NAMED_UNIT ( * ) PLANE_ANGLE_UNIT ( ) SI_UNIT ( $, .RADIAN. ) );
#2 = COORDINATED_UNIVERSAL_TIME_OFFSET ( 10, 0, .AHEAD. ) ;
#3 = PERSON_AND_ORGANIZATION ( #18446744073709551615, #18446744073709551615 ) ;
#4 = CC_DESIGN_APPROVAL ( #74, ( #268 ) ) ;
#5 = DIRECTION ( 'NONE',  ( 0.9999999999999998890, -1.084202172485504434E-19, 1.983491782544420497E-19 ) ) ;
#6 = PERSON ( 'NAUO-PER397', 'UNSPECIFIED', 'UNSPECIFIED', ('UNSPECIFIED'), ('UNSPECIFIED'), ('UNSPECIFIED') ) ;
#7 = PERSON_AND_ORGANIZATION_ROLE ( 'design_supplier' ) ;
#8 = APPROVAL ( #273, 'Coincident' ) ;
#9 = CARTESIAN_POINT ( 'NONE',  ( 0.000000000000000000, 0.000000000000000000, 0.000000000000000000 ) ) ;
#10 = DATE_AND_TIME ( #191, #315 ) ;
#11 = COORDINATED_UNIVERSAL_TIME_OFFSET ( 10, 0, .AHEAD. ) ;
#12 = COORDINATED_UNIVERSAL_TIME_OFFSET ( 10, 0, .AHEAD. ) ;
#13 = COORDINATED_UNIVERSAL_TIME_OFFSET ( 10, 0, .AHEAD. ) ;
#14 = LOCAL_TIME ( 18, 50, 19.00000000000000000, #326 ) ;
#15 = CC_DESIGN_PERSON_AND_ORGANIZATION_ASSIGNMENT ( #42, #19, ( #190 ) ) ;
#16 = APPROVAL_ROLE ( '' ) ;
#17 = COORDINATED_UNIVERSAL_TIME_OFFSET ( 10, 0, .AHEAD. ) ;
#18 = COORDINATED_UNIVERSAL_TIME_OFFSET ( 10, 0, .AHEAD. ) ;
#19 = PERSON_AND_ORGANIZATION_ROLE ( 'classification_officer' ) ;
#20 = PROPERTY_DEFINITION_REPRESENTATION ( #125, #23 ) ;
#21 = PRODUCT_DEFINITION_FORMATION_WITH_SPECIFIED_SOURCE ( 'Symmetric', '', #192, .NOT_KNOWN. ) ;
#22 = APPROVAL_PERSON_ORGANIZATION ( #314, #175, #330 ) ;
#23 = SHAPE_REPRESENTATION ( 'z-1camera', ( #197 ), #83 ) ;
#24 = APPROVAL_PERSON_ORGANIZATION ( #209, #290, #100 ) ;
#25 = ORGANIZATION ( 'NAUO-ORG397', 'UNSPECIFIED', 'UNSPECIFIED' ) ;
#26 = LOCAL_TIME ( 18, 50, 19.00000000000000000, #247 ) ;
#27 = APPLIED_EXTERNAL_IDENTIFICATION_ASSIGNMENT ( 'Z-1_Mini_3D.STEP' , #296, #195,( #205) ) ;
#28 = CC_DESIGN_PERSON_AND_ORGANIZATION_ASSIGNMENT ( #31, #91, ( #192 ) ) ;
#29 = DIRECTION ( 'NONE',  ( 1.000000000000000000, 0.000000000000000000, 0.000000000000000000 ) ) ;
#30 = PERSON_AND_ORGANIZATION ( #18446744073709551615, #18446744073709551615 ) ;
#31 = PERSON_AND_ORGANIZATION ( #18446744073709551615, #18446744073709551615 ) ;
#32 = PERSON_AND_ORGANIZATION ( #18446744073709551615, #18446744073709551615 ) ;
#33 =( NAMED_UNIT ( * ) SI_UNIT ( $, .STERADIAN. ) SOLID_ANGLE_UNIT ( ) );
#34 = UNCERTAINTY_MEASURE_WITH_UNIT (LENGTH_MEASURE( 1.000000000000000082E-05 ), #72, 'distance_accuracy_value', 'NONE');
#35 = CC_DESIGN_PERSON_AND_ORGANIZATION_ASSIGNMENT ( #30, #7, ( #185 ) ) ;
#36 = PERSON_AND_ORGANIZATION ( #18446744073709551615, #18446744073709551615 ) ;
#37 = CC_DESIGN_APPROVAL ( #8, ( #298 ) ) ;
#38 =( NAMED_UNIT ( * ) SI_UNIT ( $, .STERADIAN. ) SOLID_ANGLE_UNIT ( ) );
#39 = PERSON_AND_ORGANIZATION_ROLE ( 'creator' ) ;
#40 = CALENDAR_DATE ( 2026, 22, 6 ) ;
#41 = CC_DESIGN_DATE_AND_TIME_ASSIGNMENT ( #302, #165, ( #159 ) ) ;
#42 = PERSON_AND_ORGANIZATION ( #18446744073709551615, #18446744073709551615 ) ;
#43 = CALENDAR_DATE ( 2026, 22, 6 ) ;
#44 = APPROVAL_DATE_TIME ( #73, #290 ) ;
#45 = CC_DESIGN_APPROVAL ( #263, ( #159 ) ) ;
#46 = DATE_AND_TIME ( #239, #291 ) ;
#47 = APPROVAL_ROLE ( '' ) ;
#48 = PERSON_AND_ORGANIZATION ( #18446744073709551615, #18446744073709551615 ) ;
#49 = APPLICATION_PROTOCOL_DEFINITION ( 'international standard', 'config_control_design', 1994, #244 ) ;
#50 = CC_DESIGN_PERSON_AND_ORGANIZATION_ASSIGNMENT ( #314, #150, ( #186 ) ) ;
#51 = PERSON_AND_ORGANIZATION ( #252, #132 ) ;
#52 = PRODUCT_DEFINITION_SHAPE ( 'NONE', 'NONE',  #345 ) ;
#53 = LOCAL_TIME ( 18, 50, 19.00000000000000000, #288 ) ;
#54 = CC_DESIGN_PERSON_AND_ORGANIZATION_ASSIGNMENT ( #3, #166, ( #78 ) ) ;
#55 = CALENDAR_DATE ( 2026, 22, 6 ) ;
#56 =( GEOMETRIC_REPRESENTATION_CONTEXT ( 3 ) GLOBAL_UNCERTAINTY_ASSIGNED_CONTEXT ( ( #318 ) ) GLOBAL_UNIT_ASSIGNED_CONTEXT ( ( #321, #84, #33 ) ) REPRESENTATION_CONTEXT ( 'NONE', 'WORKASPACE' ) );
#57 = CARTESIAN_POINT ( 'NONE',  ( 0.000000000000000000, 0.000000000000000000, 0.000000000000000000 ) ) ;
#58 = PERSON_AND_ORGANIZATION_ROLE ( 'creator' ) ;
#59 = PRODUCT_DEFINITION_SHAPE ( 'NONE', 'NONE',  #344 ) ;
#60 = CC_DESIGN_PERSON_AND_ORGANIZATION_ASSIGNMENT ( #36, #139, ( #63 ) ) ;
#61 = APPROVAL_STATUS ( 'not_yet_approved' ) ;
#62 = PERSON_AND_ORGANIZATION ( #18446744073709551615, #18446744073709551615 ) ;
#63 = SECURITY_CLASSIFICATION ( '', '', #189 ) ;
#64 = CARTESIAN_POINT ( 'NONE',  ( 0.000000000000000000, 0.000000000000000000, 0.000000000000000000 ) ) ;
#65 = APPROVAL ( #69, 'Coincident' ) ;
#66 = APPLICATION_PROTOCOL_DEFINITION ( 'international standard', 'config_control_design', 1994, #87 ) ;
#67 = CALENDAR_DATE ( 2026, 22, 6 ) ;
#68 = APPROVAL_STATUS ( 'not_yet_approved' ) ;
#69 = APPROVAL_STATUS ( 'not_yet_approved' ) ;
#70 = COORDINATED_UNIVERSAL_TIME_OFFSET ( 10, 0, .AHEAD. ) ;
#71 = PERSON_AND_ORGANIZATION ( #18446744073709551615, #18446744073709551615 ) ;
#72 =( LENGTH_UNIT ( ) NAMED_UNIT ( * ) SI_UNIT ( .MILLI., .METRE. ) );
#73 = DATE_AND_TIME ( #313, #311 ) ;
#74 = APPROVAL ( #193, 'Coincident' ) ;
#75 = APPROVAL_STATUS ( 'not_yet_approved' ) ;
#76 = CC_DESIGN_SECURITY_CLASSIFICATION ( #190, ( #21 ) ) ;
#77 = CC_DESIGN_PERSON_AND_ORGANIZATION_ASSIGNMENT ( #216, #39, ( #298 ) ) ;
#78 = PRODUCT_DEFINITION_FORMATION_WITH_SPECIFIED_SOURCE ( 'Symmetric', '', #120, .NOT_KNOWN. ) ;
#79 = CC_DESIGN_PERSON_AND_ORGANIZATION_ASSIGNMENT ( #71, #97, ( #295 ) ) ;
#80 = MECHANICAL_CONTEXT ( 'NONE', #293, 'mechanical' ) ;
#81 = PERSON_AND_ORGANIZATION ( #18446744073709551615, #18446744073709551615 ) ;
#82 = COORDINATED_UNIVERSAL_TIME_OFFSET ( 10, 0, .AHEAD. ) ;
#83 =( GEOMETRIC_REPRESENTATION_CONTEXT ( 3 ) GLOBAL_UNCERTAINTY_ASSIGNED_CONTEXT ( ( #300 ) ) GLOBAL_UNIT_ASSIGNED_CONTEXT ( ( #188, #140, #277 ) ) REPRESENTATION_CONTEXT ( 'NONE', 'WORKASPACE' ) );
#84 =( NAMED_UNIT ( * ) PLANE_ANGLE_UNIT ( ) SI_UNIT ( $, .RADIAN. ) );
#85 = COORDINATED_UNIVERSAL_TIME_OFFSET ( 10, 0, .AHEAD. ) ;
#86 = PRODUCT ( 'Z-1_Mini_3D', 'Z-1_Mini_3D', '', ( #181 ) ) ;
#87 = APPLICATION_CONTEXT ( 'configuration controlled 3d designs of mechanical parts and assemblies' ) ;
#88 = DATE_TIME_ROLE ( 'classification_date' ) ;
#89 = COORDINATED_UNIVERSAL_TIME_OFFSET ( 10, 0, .AHEAD. ) ;
#90 = AXIS2_PLACEMENT_3D ( 'NONE', #9, #136, #5 ) ;
#91 = PERSON_AND_ORGANIZATION_ROLE ( 'design_owner' ) ;
#92 = SECURITY_CLASSIFICATION ( '', '', #147 ) ;
#93 = CC_DESIGN_DATE_AND_TIME_ASSIGNMENT ( #199, #88, ( #268 ) ) ;
#94 = SECURITY_CLASSIFICATION_LEVEL ( 'unclassified' ) ;
#95 = CALENDAR_DATE ( 2026, 22, 6 ) ;
#96 = DATE_AND_TIME ( #228, #53 ) ;
#97 = PERSON_AND_ORGANIZATION_ROLE ( 'creator' ) ;
#98 = DATE_TIME_ROLE ( 'classification_date' ) ;
#99 = CC_DESIGN_PERSON_AND_ORGANIZATION_ASSIGNMENT ( #222, #324, ( #185 ) ) ;
#100 = APPROVAL_ROLE ( '' ) ;
#101 = LOCAL_TIME ( 18, 50, 19.00000000000000000, #301 ) ;
#102 = CC_DESIGN_APPROVAL ( #133, ( #63 ) ) ;
#103 = CONTEXT_DEPENDENT_SHAPE_REPRESENTATION ( #279, #52 ) ;
#104 = APPLIED_DOCUMENT_REFERENCE ( #274,'',( #298) ) ;
#105 = CC_DESIGN_PERSON_AND_ORGANIZATION_ASSIGNMENT ( #32, #114, ( #159 ) ) ;
#106 = CC_DESIGN_DATE_AND_TIME_ASSIGNMENT ( #262, #206, ( #295 ) ) ;
#107 = CC_DESIGN_APPROVAL ( #290, ( #190 ) ) ;
#108 = APPLICATION_PROTOCOL_DEFINITION ( 'international standard', 'config_control_design', 1994, #293 ) ;
#109 = SECURITY_CLASSIFICATION_LEVEL ( 'unclassified' ) ;
#110 = DIRECTION ( 'NONE',  ( 1.000000000000000000, 0.000000000000000000, 0.000000000000000000 ) ) ;
#111 = CC_DESIGN_PERSON_AND_ORGANIZATION_ASSIGNMENT ( #81, #58, ( #78 ) ) ;
#112 = DATE_AND_TIME ( #172, #158 ) ;
#113 = APPROVAL_PERSON_ORGANIZATION ( #62, #8, #169 ) ;
#114 = PERSON_AND_ORGANIZATION_ROLE ( 'creator' ) ;
#115 = DIRECTION ( 'NONE',  ( 0.7808639779614584553, 8.252946936959659752E-16, -0.6247010868585128884 ) ) ;
#116 = PERSON_AND_ORGANIZATION_ROLE ( 'classification_officer' ) ;
#117 = DATE_AND_TIME ( #220, #327 ) ;
#118 = PERSON_AND_ORGANIZATION ( #18446744073709551615, #18446744073709551615 ) ;
#119 = CC_DESIGN_PERSON_AND_ORGANIZATION_ASSIGNMENT ( #51, #283, ( #92 ) ) ;
#120 = PRODUCT ( 'z-1camera', 'z-1camera', '', ( #249 ) ) ;
#121 = DATE_AND_TIME ( #155, #154 ) ;
#122 = CALENDAR_DATE ( 2026, 22, 6 ) ;
#123 = ROLE_ASSOCIATION ( #171, #104 ) ;
#124 = DATE_TIME_ROLE ( 'classification_date' ) ;
#125 = PROPERTY_DEFINITION ('external definition','', #274 ) ;
#126 = APPROVAL_STATUS ( 'not_yet_approved' ) ;
#127 = OBJECT_ROLE ('mandatory',$ ) ;
#128 = COORDINATED_UNIVERSAL_TIME_OFFSET ( 10, 0, .AHEAD. ) ;
#129 = APPROVAL_PERSON_ORGANIZATION ( #251, #242, #137 ) ;
#130 = APPROVAL_ROLE ( '' ) ;
#131 =( GEOMETRIC_REPRESENTATION_CONTEXT ( 3 ) GLOBAL_UNCERTAINTY_ASSIGNED_CONTEXT ( ( #34 ) ) GLOBAL_UNIT_ASSIGNED_CONTEXT ( ( #72, #1, #38 ) ) REPRESENTATION_CONTEXT ( 'NONE', 'WORKASPACE' ) );
#132 = ORGANIZATION ( 'NAUO-ORG396', 'UNSPECIFIED', 'UNSPECIFIED' ) ;
#133 = APPROVAL ( #236, 'Coincident' ) ;
#134 = CC_DESIGN_PERSON_AND_ORGANIZATION_ASSIGNMENT ( #305, #116, ( #268 ) ) ;
#135 = PERSON_AND_ORGANIZATION ( #18446744073709551615, #18446744073709551615 ) ;
#136 = DIRECTION ( 'NONE',  ( 1.983491782544420497E-19, -1.557885114119336048E-23, 0.9999999999999998890 ) ) ;
#137 = APPROVAL_ROLE ( '' ) ;
#138 = PROPERTY_DEFINITION ('external definition','', #205 ) ;
#139 = PERSON_AND_ORGANIZATION_ROLE ( 'classification_officer' ) ;
#140 =( NAMED_UNIT ( * ) PLANE_ANGLE_UNIT ( ) SI_UNIT ( $, .RADIAN. ) );
#141 = SHAPE_DEFINITION_REPRESENTATION ( #248, #226 ) ;
#142 = CC_DESIGN_PERSON_AND_ORGANIZATION_ASSIGNMENT ( #135, #297, ( #120 ) ) ;
#143 = CALENDAR_DATE ( 2026, 22, 6 ) ;
#144 = APPROVAL_ROLE ( '' ) ;
#145 = APPROVAL_ROLE ( '' ) ;
#146 = EXTERNAL_SOURCE (IDENTIFIER('') ) ;
#147 = SECURITY_CLASSIFICATION_LEVEL ( 'unclassified' ) ;
#148 = APPROVAL_PERSON_ORGANIZATION ( #204, #65, #145 ) ;
#149 = APPLICATION_PROTOCOL_DEFINITION ( 'international standard', 'config_control_design', 1994, #261 ) ;
#150 = PERSON_AND_ORGANIZATION_ROLE ( 'classification_officer' ) ;
#151 = DATE_AND_TIME ( #230, #289 ) ;
#152 = APPLICATION_PROTOCOL_DEFINITION ( 'international standard', 'config_control_design', 1994, #187 ) ;
#153 = COORDINATED_UNIVERSAL_TIME_OFFSET ( 10, 0, .AHEAD. ) ;
#154 = LOCAL_TIME ( 18, 50, 19.00000000000000000, #70 ) ;
#155 = CALENDAR_DATE ( 2026, 22, 6 ) ;
#156 = PRODUCT_RELATED_PRODUCT_CATEGORY ( 'detail', '', ( #86 ) ) ;
#157 = SHAPE_REPRESENTATION ( 'Camera_assembly', ( #178, #304, #90 ), #56 ) ;
#158 = LOCAL_TIME ( 18, 50, 19.00000000000000000, #85 ) ;
#159 = PRODUCT_DEFINITION ( 'General', '', #185, #337 ) ;
#160 = DIRECTION ( 'NONE',  ( 1.000000000000000000, 0.000000000000000000, 0.000000000000000000 ) ) ;
#161 = CC_DESIGN_SECURITY_CLASSIFICATION ( #268, ( #185 ) ) ;
#162 = CC_DESIGN_APPROVAL ( #175, ( #186 ) ) ;
#163 = IDENTIFICATION_ROLE ( 'external document id and location', $) ;
#164 = COORDINATED_UNIVERSAL_TIME_OFFSET ( 10, 0, .AHEAD. ) ;
#165 = DATE_TIME_ROLE ( 'creation_date' ) ;
#166 = PERSON_AND_ORGANIZATION_ROLE ( 'design_supplier' ) ;
#167 = PRODUCT_RELATED_PRODUCT_CATEGORY ( 'detail', '', ( #120 ) ) ;
#168 = CC_DESIGN_APPROVAL ( #65, ( #21 ) ) ;
#169 = APPROVAL_ROLE ( '' ) ;
#170 = DIRECTION ( 'NONE',  ( 0.000000000000000000, 0.000000000000000000, 1.000000000000000000 ) ) ;
#171 = OBJECT_ROLE ('mandatory',$ ) ;
#172 = CALENDAR_DATE ( 2026, 22, 6 ) ;
#173 = DATE_AND_TIME ( #67, #282 ) ;
#174 = DATE_AND_TIME ( #336, #180 ) ;
#175 = APPROVAL ( #75, 'UNKNOWN' ) ;
#176 = PERSON_AND_ORGANIZATION ( #18446744073709551615, #18446744073709551615 ) ;
#177 = CONTEXT_DEPENDENT_SHAPE_REPRESENTATION ( #272, #59 ) ;
#178 = AXIS2_PLACEMENT_3D ( 'NONE', #64, #170, #160 ) ;
#179 = COORDINATED_UNIVERSAL_TIME_OFFSET ( 10, 0, .AHEAD. ) ;
#180 = LOCAL_TIME ( 18, 50, 19.00000000000000000, #12 ) ;
#181 = MECHANICAL_CONTEXT ( 'NONE', #261, 'mechanical' ) ;
#182 = CALENDAR_DATE ( 2026, 22, 6 ) ;
#183 = PROPERTY_DEFINITION_REPRESENTATION ( #138, #226 ) ;
#184 = LOCAL_TIME ( 18, 50, 19.00000000000000000, #17 ) ;
#185 = PRODUCT_DEFINITION_FORMATION_WITH_SPECIFIED_SOURCE ( 'Symmetric', '', #86, .NOT_KNOWN. ) ;
#186 = SECURITY_CLASSIFICATION ( '', '', #94 ) ;
#187 = APPLICATION_CONTEXT ( 'configuration controlled 3d designs of mechanical parts and assemblies' ) ;
#188 =( LENGTH_UNIT ( ) NAMED_UNIT ( * ) SI_UNIT ( .MILLI., .METRE. ) );
#189 = SECURITY_CLASSIFICATION_LEVEL ( 'unclassified' ) ;
#190 = SECURITY_CLASSIFICATION ( '', '', #281 ) ;
#191 = CALENDAR_DATE ( 2026, 22, 6 ) ;
#192 = PRODUCT ( 'Camera_assembly', 'Camera_assembly', '', ( #80 ) ) ;
#193 = APPROVAL_STATUS ( 'not_yet_approved' ) ;
#194 = APPROVAL ( #270, 'Coincident' ) ;
#195 = EXTERNAL_SOURCE (IDENTIFIER('') ) ;
#196 = APPROVAL_DATE_TIME ( #323, #74 ) ;
#197 = AXIS2_PLACEMENT_3D ( 'NONE', #57, #246, #110 ) ;
#198 = AXIS2_PLACEMENT_3D ( 'NONE', #250, #269, #29 ) ;
#199 = DATE_AND_TIME ( #40, #26 ) ;
#200 = CC_DESIGN_SECURITY_CLASSIFICATION ( #63, ( #78 ) ) ;
#201 = PERSON_AND_ORGANIZATION ( #18446744073709551615, #18446744073709551615 ) ;
#202 = CC_DESIGN_PERSON_AND_ORGANIZATION_ASSIGNMENT ( #253, #287, ( #86 ) ) ;
#203 = APPROVAL_DATE_TIME ( #46, #175 ) ;
#204 = PERSON_AND_ORGANIZATION ( #18446744073709551615, #18446744073709551615 ) ;
#205 = DOCUMENT_FILE ( 'Z-1_Mini_3D.STEP' , '', '', #319, '' ,$ ) ;
#206 = DATE_TIME_ROLE ( 'creation_date' ) ;
#207 = DATE_TIME_ROLE ( 'classification_date' ) ;
#208 = LOCAL_TIME ( 18, 50, 19.00000000000000000, #89 ) ;
#209 = PERSON_AND_ORGANIZATION ( #18446744073709551615, #18446744073709551615 ) ;
#210 = ROLE_ASSOCIATION ( #127, #338 ) ;
#211 = APPROVAL_PERSON_ORGANIZATION ( #48, #133, #130 ) ;
#212 = CC_DESIGN_DATE_AND_TIME_ASSIGNMENT ( #231, #98, ( #186 ) ) ;
#213 = CC_DESIGN_APPROVAL ( #242, ( #78 ) ) ;
#214 = DIRECTION ( 'NONE',  ( 0.6247010868585129995, 2.482280873905562402E-16, 0.7808639779614582332 ) ) ;
#215 = APPROVAL ( #307, 'Coincident' ) ;
#216 = PERSON_AND_ORGANIZATION ( #18446744073709551615, #18446744073709551615 ) ;
#217 = APPROVAL_DATE_TIME ( #117, #194 ) ;
#218 = APPROVAL_PERSON_ORGANIZATION ( #271, #194, #144 ) ;
#219 = LOCAL_TIME ( 18, 50, 19.00000000000000000, #18 ) ;
#220 = CALENDAR_DATE ( 2026, 22, 6 ) ;
#221 = CC_DESIGN_DATE_AND_TIME_ASSIGNMENT ( #121, #264, ( #63 ) ) ;
#222 = PERSON_AND_ORGANIZATION ( #18446744073709551615, #18446744073709551615 ) ;
#223 = CALENDAR_DATE ( 2026, 22, 6 ) ;
#224 = APPROVAL_STATUS ( 'not_yet_approved' ) ;
#225 = PRODUCT_RELATED_PRODUCT_CATEGORY ( 'detail', '', ( #192 ) ) ;
#226 = SHAPE_REPRESENTATION ( 'Z-1_Mini_3D', ( #198 ), #131 ) ;
#227 = CC_DESIGN_APPROVAL ( #215, ( #295 ) ) ;
#228 = CALENDAR_DATE ( 2026, 22, 6 ) ;
#229 = CC_DESIGN_SECURITY_CLASSIFICATION ( #92, ( #344 ) ) ;
#230 = CALENDAR_DATE ( 2026, 22, 6 ) ;
#231 = DATE_AND_TIME ( #43, #237 ) ;
#232 = DATE_AND_TIME ( #122, #14 ) ;
#233 = DATE_AND_TIME ( #182, #219 ) ;
#234 = PERSON_AND_ORGANIZATION_ROLE ( 'creator' ) ;
#235 = DESIGN_CONTEXT ( 'detailed design', #187, 'design' ) ;
#236 = APPROVAL_STATUS ( 'not_yet_approved' ) ;
#237 = LOCAL_TIME ( 18, 50, 19.00000000000000000, #153 ) ;
#238 = CC_DESIGN_DATE_AND_TIME_ASSIGNMENT ( #317, #278, ( #298 ) ) ;
#239 = CALENDAR_DATE ( 2026, 22, 6 ) ;
#240 = CC_DESIGN_DATE_AND_TIME_ASSIGNMENT ( #174, #207, ( #92 ) ) ;
#241 = CC_DESIGN_APPROVAL ( #194, ( #185 ) ) ;
#242 = APPROVAL ( #61, 'Coincident' ) ;
#243 = APPROVAL_PERSON_ORGANIZATION ( #254, #74, #245 ) ;
#244 = APPLICATION_CONTEXT ( 'configuration controlled 3d designs of mechanical parts and assemblies' ) ;
#245 = APPROVAL_ROLE ( '' ) ;
#246 = DIRECTION ( 'NONE',  ( 0.000000000000000000, 0.000000000000000000, 1.000000000000000000 ) ) ;
#247 = COORDINATED_UNIVERSAL_TIME_OFFSET ( 10, 0, .AHEAD. ) ;
#248 = PRODUCT_DEFINITION_SHAPE ( 'NONE', 'NONE',  #159 ) ;
#249 = MECHANICAL_CONTEXT ( 'NONE', #341, 'mechanical' ) ;
#250 = CARTESIAN_POINT ( 'NONE',  ( 0.000000000000000000, 0.000000000000000000, 0.000000000000000000 ) ) ;
#251 = PERSON_AND_ORGANIZATION ( #18446744073709551615, #18446744073709551615 ) ;
#252 = PERSON ( 'NAUO-PER396', 'UNSPECIFIED', 'UNSPECIFIED', ('UNSPECIFIED'), ('UNSPECIFIED'), ('UNSPECIFIED') ) ;
#253 = PERSON_AND_ORGANIZATION ( #18446744073709551615, #18446744073709551615 ) ;
#254 = PERSON_AND_ORGANIZATION ( #18446744073709551615, #18446744073709551615 ) ;
#255 = SHAPE_DEFINITION_REPRESENTATION ( #256, #157 ) ;
#256 = PRODUCT_DEFINITION_SHAPE ( 'NONE', 'NONE',  #295 ) ;
#257 = SHAPE_DEFINITION_REPRESENTATION ( #265, #23 ) ;
#258 = CC_DESIGN_APPROVAL ( #285, ( #92 ) ) ;
#259 = DOCUMENT_TYPE ( 'geometry' ) ;
#260 = APPROVAL_ROLE ( '' ) ;
#261 = APPLICATION_CONTEXT ( 'configuration controlled 3d designs of mechanical parts and assemblies' ) ;
#262 = DATE_AND_TIME ( #95, #184 ) ;
#263 = APPROVAL ( #224, 'Coincident' ) ;
#264 = DATE_TIME_ROLE ( 'classification_date' ) ;
#265 = PRODUCT_DEFINITION_SHAPE ( 'NONE', 'NONE',  #298 ) ;
#266 = ITEM_DEFINED_TRANSFORMATION ( 'NONE', 'NONE', #90,  #198 ) ;
#267 = CC_DESIGN_DATE_AND_TIME_ASSIGNMENT ( #151, #124, ( #190 ) ) ;
#268 = SECURITY_CLASSIFICATION ( '', '', #109 ) ;
#269 = DIRECTION ( 'NONE',  ( 0.000000000000000000, 0.000000000000000000, 1.000000000000000000 ) ) ;
#270 = APPROVAL_STATUS ( 'not_yet_approved' ) ;
#271 = PERSON_AND_ORGANIZATION ( #18446744073709551615, #18446744073709551615 ) ;
#272 =( REPRESENTATION_RELATIONSHIP ('NONE','NONE', #157, #23 ) REPRESENTATION_RELATIONSHIP_WITH_TRANSFORMATION ( #312 )SHAPE_REPRESENTATION_RELATIONSHIP( ) );
#273 = APPROVAL_STATUS ( 'not_yet_approved' ) ;
#274 = DOCUMENT_FILE ( 'z-1camera.STEP' , '', '', #259, '' ,$ ) ;
#275 = CC_DESIGN_SECURITY_CLASSIFICATION ( #186, ( #345 ) ) ;
#276 = APPROVAL_DATE_TIME ( #112, #8 ) ;
#277 =( NAMED_UNIT ( * ) SI_UNIT ( $, .STERADIAN. ) SOLID_ANGLE_UNIT ( ) );
#278 = DATE_TIME_ROLE ( 'creation_date' ) ;
#279 =( REPRESENTATION_RELATIONSHIP ('NONE','NONE', #157, #226 ) REPRESENTATION_RELATIONSHIP_WITH_TRANSFORMATION ( #266 )SHAPE_REPRESENTATION_RELATIONSHIP( ) );
#280 = PERSON_AND_ORGANIZATION ( #18446744073709551615, #18446744073709551615 ) ;
#281 = SECURITY_CLASSIFICATION_LEVEL ( 'unclassified' ) ;
#282 = LOCAL_TIME ( 18, 50, 19.00000000000000000, #13 ) ;
#283 = PERSON_AND_ORGANIZATION_ROLE ( 'classification_officer' ) ;
#284 = APPROVAL_DATE_TIME ( #173, #65 ) ;
#285 = APPROVAL ( #68, 'UNKNOWN' ) ;
#286 = APPROVAL_DATE_TIME ( #96, #133 ) ;
#287 = PERSON_AND_ORGANIZATION_ROLE ( 'design_owner' ) ;
#288 = COORDINATED_UNIVERSAL_TIME_OFFSET ( 10, 0, .AHEAD. ) ;
#289 = LOCAL_TIME ( 18, 50, 19.00000000000000000, #309 ) ;
#290 = APPROVAL ( #126, 'Coincident' ) ;
#291 = LOCAL_TIME ( 18, 50, 19.00000000000000000, #128 ) ;
#292 = DESIGN_CONTEXT ( 'detailed design', #87, 'design' ) ;
#293 = APPLICATION_CONTEXT ( 'configuration controlled 3d designs of mechanical parts and assemblies' ) ;
#294 = LOCAL_TIME ( 18, 50, 19.00000000000000000, #2 ) ;
#295 = PRODUCT_DEFINITION ( 'General', '', #21, #235 ) ;
#296 = IDENTIFICATION_ROLE ( 'external document id and location', $) ;
#297 = PERSON_AND_ORGANIZATION_ROLE ( 'design_owner' ) ;
#298 = PRODUCT_DEFINITION ( 'General', '', #78, #292 ) ;
#299 = APPROVAL_DATE_TIME ( #10, #242 ) ;
#300 = UNCERTAINTY_MEASURE_WITH_UNIT (LENGTH_MEASURE( 1.000000000000000082E-05 ), #188, 'distance_accuracy_value', 'NONE');
#301 = COORDINATED_UNIVERSAL_TIME_OFFSET ( 10, 0, .AHEAD. ) ;
#302 = DATE_AND_TIME ( #55, #208 ) ;
#303 = CARTESIAN_POINT ( 'NONE',  ( -12.39449221724081873, 0.3000000000000138112, -5.550321466008006688 ) ) ;
#304 = AXIS2_PLACEMENT_3D ( 'NONE', #303, #214, #115 ) ;
#305 = PERSON_AND_ORGANIZATION ( #18446744073709551615, #18446744073709551615 ) ;
#306 = APPROVAL_DATE_TIME ( #333, #215 ) ;
#307 = APPROVAL_STATUS ( 'not_yet_approved' ) ;
#308 = PROPERTY_DEFINITION_REPRESENTATION ( #339, #226 ) ;
#309 = COORDINATED_UNIVERSAL_TIME_OFFSET ( 10, 0, .AHEAD. ) ;
#310 = PROPERTY_DEFINITION ('document property','', #274 ) ;
#311 = LOCAL_TIME ( 18, 50, 19.00000000000000000, #179 ) ;
#312 = ITEM_DEFINED_TRANSFORMATION ( 'NONE', 'NONE', #304,  #197 ) ;
#313 = CALENDAR_DATE ( 2026, 22, 6 ) ;
#314 = PERSON_AND_ORGANIZATION ( #6, #25 ) ;
#315 = LOCAL_TIME ( 18, 50, 19.00000000000000000, #82 ) ;
#316 = CC_DESIGN_PERSON_AND_ORGANIZATION_ASSIGNMENT ( #176, #234, ( #21 ) ) ;
#317 = DATE_AND_TIME ( #320, #101 ) ;
#318 = UNCERTAINTY_MEASURE_WITH_UNIT (LENGTH_MEASURE( 1.000000000000000082E-05 ), #321, 'distance_accuracy_value', 'NONE');
#319 = DOCUMENT_TYPE ( 'geometry' ) ;
#320 = CALENDAR_DATE ( 2026, 22, 6 ) ;
#321 =( LENGTH_UNIT ( ) NAMED_UNIT ( * ) SI_UNIT ( .MILLI., .METRE. ) );
#322 = APPROVAL_PERSON_ORGANIZATION ( #51, #285, #16 ) ;
#323 = DATE_AND_TIME ( #223, #294 ) ;
#324 = PERSON_AND_ORGANIZATION_ROLE ( 'creator' ) ;
#325 = APPLICATION_PROTOCOL_DEFINITION ( 'international standard', 'config_control_design', 1994, #341 ) ;
#326 = COORDINATED_UNIVERSAL_TIME_OFFSET ( 10, 0, .AHEAD. ) ;
#327 = LOCAL_TIME ( 18, 50, 19.00000000000000000, #164 ) ;
#328 = APPROVAL_DATE_TIME ( #233, #285 ) ;
#329 = APPROVAL_DATE_TIME ( #232, #263 ) ;
#330 = APPROVAL_ROLE ( '' ) ;
#331 = PERSON_AND_ORGANIZATION_ROLE ( 'design_supplier' ) ;
#332 = PROPERTY_DEFINITION_REPRESENTATION ( #310, #23 ) ;
#333 = DATE_AND_TIME ( #143, #334 ) ;
#334 = LOCAL_TIME ( 18, 50, 19.00000000000000000, #11 ) ;
#335 = APPLIED_EXTERNAL_IDENTIFICATION_ASSIGNMENT ( 'z-1camera.STEP' , #163, #146,( #274) ) ;
#336 = CALENDAR_DATE ( 2026, 22, 6 ) ;
#337 = DESIGN_CONTEXT ( 'detailed design', #244, 'design' ) ;
#338 = APPLIED_DOCUMENT_REFERENCE ( #205,'',( #159) ) ;
#339 = PROPERTY_DEFINITION ('document property','', #205 ) ;
#340 = APPROVAL_PERSON_ORGANIZATION ( #118, #263, #260 ) ;
#341 = APPLICATION_CONTEXT ( 'configuration controlled 3d designs of mechanical parts and assemblies' ) ;
#342 = APPROVAL_PERSON_ORGANIZATION ( #201, #215, #47 ) ;
#343 = CC_DESIGN_PERSON_AND_ORGANIZATION_ASSIGNMENT ( #280, #331, ( #21 ) ) ;
#344 = NEXT_ASSEMBLY_USAGE_OCCURRENCE ( 'NAUO396', ' ', ' ', #295, #298, $ ) ;
#345 = NEXT_ASSEMBLY_USAGE_OCCURRENCE ( 'NAUO397', ' ', ' ', #295, #159, $ ) ;
ENDSEC;
END-ISO-10303-21;
