ISO-10303-21;
HEADER;
FILE_DESCRIPTION (( 'STEP AP203' ),
    '1' );
FILE_NAME ('Component1.step.STEP',
    '2026-06-22T08:50:28',
    ( 'localuser' ),
    ( '' ),
    'SwSTEP 2.0',
    'SolidWorks 2025',
    '' );
FILE_SCHEMA (( 'CONFIG_CONTROL_DESIGN' ));
ENDSEC;

DATA;
#1 = CC_DESIGN_APPROVAL ( #95, ( #53 ) ) ;
#2 = APPLICATION_PROTOCOL_DEFINITION ( 'international standard', 'config_control_design', 1994, #587 ) ;
#3 = PERSON_AND_ORGANIZATION_ROLE ( 'classification_officer' ) ;
#4 = LOCAL_TIME ( 18, 50, 28.00000000000000000, #384 ) ;
#5 = APPROVAL_ROLE ( '' ) ;
#6 = CC_DESIGN_DATE_AND_TIME_ASSIGNMENT ( #228, #512, ( #363 ) ) ;
#7 = APPLICATION_PROTOCOL_DEFINITION ( 'international standard', 'config_control_design', 1994, #739 ) ;
#8 = ROLE_ASSOCIATION ( #656, #338 ) ;
#9 = PERSON_AND_ORGANIZATION_ROLE ( 'creator' ) ;
#10 = PERSON ( 'NAUO-PER435', 'UNSPECIFIED', 'UNSPECIFIED', ('UNSPECIFIED'), ('UNSPECIFIED'), ('UNSPECIFIED') ) ;
#11 = APPROVAL ( #464, 'Coincident' ) ;
#12 = CARTESIAN_POINT ( 'NONE',  ( 0.000000000000000000, 0.000000000000000000, 0.000000000000000000 ) ) ;
#13 = CC_DESIGN_SECURITY_CLASSIFICATION ( #380, ( #210 ) ) ;
#14 = APPROVAL_STATUS ( 'not_yet_approved' ) ;
#15 = APPROVAL_PERSON_ORGANIZATION ( #526, #184, #379 ) ;
#16 = DIRECTION ( 'NONE',  ( 1.000000000000000444, -8.259373677663993603E-27, 4.999999999999999205E-15 ) ) ;
#17 = CC_DESIGN_APPROVAL ( #516, ( #295 ) ) ;
#18 = ORGANIZATION ( 'NAUO-ORG431', 'UNSPECIFIED', 'UNSPECIFIED' ) ;
#19 =( REPRESENTATION_RELATIONSHIP ('NONE','NONE', #574, #336 ) REPRESENTATION_RELATIONSHIP_WITH_TRANSFORMATION ( #187 )SHAPE_REPRESENTATION_RELATIONSHIP( ) );
#20 = PERSON_AND_ORGANIZATION ( #18446744073709551615, #18446744073709551615 ) ;
#21 = APPROVAL_DATE_TIME ( #147, #257 ) ;
#22 = DATE_TIME_ROLE ( 'classification_date' ) ;
#23 = ITEM_DEFINED_TRANSFORMATION ( 'NONE', 'NONE', #553,  #54 ) ;
#24 = DIRECTION ( 'NONE',  ( 0.000000000000000000, 0.000000000000000000, 1.000000000000000000 ) ) ;
#25 = LOCAL_TIME ( 18, 50, 28.00000000000000000, #110 ) ;
#26 = LOCAL_TIME ( 18, 50, 28.00000000000000000, #382 ) ;
#27 = CC_DESIGN_PERSON_AND_ORGANIZATION_ASSIGNMENT ( #159, #34, ( #393 ) ) ;
#28 = DATE_AND_TIME ( #624, #667 ) ;
#29 = APPROVAL_DATE_TIME ( #90, #438 ) ;
#30 = PROPERTY_DEFINITION ('document property','', #852 ) ;
#31 = PERSON_AND_ORGANIZATION ( #18446744073709551615, #18446744073709551615 ) ;
#32 =( REPRESENTATION_RELATIONSHIP ('NONE','NONE', #574, #102 ) REPRESENTATION_RELATIONSHIP_WITH_TRANSFORMATION ( #484 )SHAPE_REPRESENTATION_RELATIONSHIP( ) );
#33 = SECURITY_CLASSIFICATION_LEVEL ( 'unclassified' ) ;
#34 = PERSON_AND_ORGANIZATION_ROLE ( 'classification_officer' ) ;
#35 = PERSON_AND_ORGANIZATION_ROLE ( 'design_owner' ) ;
#36 = PROPERTY_DEFINITION ('document property','', #137 ) ;
#37 = ROLE_ASSOCIATION ( #753, #766 ) ;
#38 = APPROVAL_STATUS ( 'not_yet_approved' ) ;
#39 = DATE_TIME_ROLE ( 'creation_date' ) ;
#40 = LOCAL_TIME ( 18, 50, 28.00000000000000000, #600 ) ;
#41 = APPLIED_EXTERNAL_IDENTIFICATION_ASSIGNMENT ( '94459A130_Heat-Set Inserts for Plastic.step.STEP' , #101, #848,( #137) ) ;
#42 = COORDINATED_UNIVERSAL_TIME_OFFSET ( 10, 0, .AHEAD. ) ;
#43 = CC_DESIGN_APPROVAL ( #769, ( #793 ) ) ;
#44 = LOCAL_TIME ( 18, 50, 28.00000000000000000, #662 ) ;
#45 = COORDINATED_UNIVERSAL_TIME_OFFSET ( 10, 0, .AHEAD. ) ;
#46 = DATE_AND_TIME ( #635, #699 ) ;
#47 = EXTERNAL_SOURCE (IDENTIFIER('') ) ;
#48 = PROPERTY_DEFINITION ('document property','', #741 ) ;
#49 = APPROVAL_ROLE ( '' ) ;
#50 = CALENDAR_DATE ( 2026, 22, 6 ) ;
#51 = CC_DESIGN_PERSON_AND_ORGANIZATION_ASSIGNMENT ( #291, #439, ( #295 ) ) ;
#52 = CALENDAR_DATE ( 2026, 22, 6 ) ;
#53 = SECURITY_CLASSIFICATION ( '', '', #436 ) ;
#54 = AXIS2_PLACEMENT_3D ( 'NONE', #191, #326, #127 ) ;
#55 = PROPERTY_DEFINITION_REPRESENTATION ( #300, #336 ) ;
#56 = AXIS2_PLACEMENT_3D ( 'NONE', #605, #616, #825 ) ;
#57 = CALENDAR_DATE ( 2026, 22, 6 ) ;
#58 = APPROVAL_PERSON_ORGANIZATION ( #595, #11, #797 ) ;
#59 = APPROVAL_STATUS ( 'not_yet_approved' ) ;
#60 =( NAMED_UNIT ( * ) PLANE_ANGLE_UNIT ( ) SI_UNIT ( $, .RADIAN. ) );
#61 = PROPERTY_DEFINITION ('external definition','', #270 ) ;
#62 = IDENTIFICATION_ROLE ( 'external document id and location', $) ;
#63 = PERSON_AND_ORGANIZATION ( #18446744073709551615, #18446744073709551615 ) ;
#64 = DATE_AND_TIME ( #661, #569 ) ;
#65 =( NAMED_UNIT ( * ) SI_UNIT ( $, .STERADIAN. ) SOLID_ANGLE_UNIT ( ) );
#66 = COORDINATED_UNIVERSAL_TIME_OFFSET ( 10, 0, .AHEAD. ) ;
#67 = ORGANIZATION ( 'NAUO-ORG435', 'UNSPECIFIED', 'UNSPECIFIED' ) ;
#68 = CALENDAR_DATE ( 2026, 22, 6 ) ;
#69 =( LENGTH_UNIT ( ) NAMED_UNIT ( * ) SI_UNIT ( $, .METRE. ) );
#70 = PERSON_AND_ORGANIZATION ( #18446744073709551615, #18446744073709551615 ) ;
#71 = DIRECTION ( 'NONE',  ( 1.000000000000000000, 0.000000000000000000, 0.000000000000000000 ) ) ;
#72 = UNCERTAINTY_MEASURE_WITH_UNIT (LENGTH_MEASURE( 1.000000000000000082E-05 ), #69, 'distance_accuracy_value', 'NONE');
#73 = OBJECT_ROLE ('mandatory',$ ) ;
#74 = APPROVAL ( #570, 'Coincident' ) ;
#75 = PERSON_AND_ORGANIZATION ( #18446744073709551615, #18446744073709551615 ) ;
#76 = APPROVAL_PERSON_ORGANIZATION ( #606, #545, #278 ) ;
#77 = APPROVAL_ROLE ( '' ) ;
#78 = LOCAL_TIME ( 18, 50, 28.00000000000000000, #684 ) ;
#79 = CARTESIAN_POINT ( 'NONE',  ( 0.007500000000000003192, 0.003199999999999998852, -0.03869000000000001604 ) ) ;
#80 = AXIS2_PLACEMENT_3D ( 'NONE', #351, #750, #16 ) ;
#81 = LOCAL_TIME ( 18, 50, 28.00000000000000000, #403 ) ;
#82 = PERSON_AND_ORGANIZATION ( #18446744073709551615, #18446744073709551615 ) ;
#83 = CARTESIAN_POINT ( 'NONE',  ( 0.03124408753848501724, 0.03524999999999998967, 0.01803878235092901128 ) ) ;
#84 = IDENTIFICATION_ROLE ( 'external document id and location', $) ;
#85 = CC_DESIGN_PERSON_AND_ORGANIZATION_ASSIGNMENT ( #269, #400, ( #210 ) ) ;
#86 = PROPERTY_DEFINITION_REPRESENTATION ( #705, #580 ) ;
#87 = ITEM_DEFINED_TRANSFORMATION ( 'NONE', 'NONE', #56,  #54 ) ;
#88 = CC_DESIGN_DATE_AND_TIME_ASSIGNMENT ( #838, #290, ( #150 ) ) ;
#89 = CALENDAR_DATE ( 2026, 22, 6 ) ;
#90 = DATE_AND_TIME ( #376, #732 ) ;
#91 = PERSON_AND_ORGANIZATION_ROLE ( 'creator' ) ;
#92 = LOCAL_TIME ( 18, 50, 28.00000000000000000, #619 ) ;
#93 = LOCAL_TIME ( 18, 50, 28.00000000000000000, #335 ) ;
#94 = APPLIED_EXTERNAL_IDENTIFICATION_ASSIGNMENT ( '90380A323_Phillips Rounded Head Thread-Forming Screws.step.STEP' , #62, #47,( #500) ) ;
#95 = APPROVAL ( #710, 'UNKNOWN' ) ;
#96 = CC_DESIGN_PERSON_AND_ORGANIZATION_ASSIGNMENT ( #20, #273, ( #192 ) ) ;
#97 = CONTEXT_DEPENDENT_SHAPE_REPRESENTATION ( #610, #802 ) ;
#98 = APPROVAL_ROLE ( '' ) ;
#99 = APPROVAL_ROLE ( '' ) ;
#100 = PERSON_AND_ORGANIZATION_ROLE ( 'creator' ) ;
#101 = IDENTIFICATION_ROLE ( 'external document id and location', $) ;
#102 = SHAPE_REPRESENTATION ( '90380A323_Phillips Rounded Head Thread-Forming Screws.step', ( #482 ), #305 ) ;
#103 = PROPERTY_DEFINITION ('external definition','', #852 ) ;
#104 = COORDINATED_UNIVERSAL_TIME_OFFSET ( 10, 0, .AHEAD. ) ;
#105 = PERSON_AND_ORGANIZATION ( #18446744073709551615, #18446744073709551615 ) ;
#106 = DATE_AND_TIME ( #704, #141 ) ;
#107 = CC_DESIGN_SECURITY_CLASSIFICATION ( #480, ( #875 ) ) ;
#108 = APPROVAL_PERSON_ORGANIZATION ( #367, #781, #99 ) ;
#109 = AXIS2_PLACEMENT_3D ( 'NONE', #758, #744, #142 ) ;
#110 = COORDINATED_UNIVERSAL_TIME_OFFSET ( 10, 0, .AHEAD. ) ;
#111 = PERSON_AND_ORGANIZATION_ROLE ( 'design_supplier' ) ;
#112 = APPROVAL_ROLE ( '' ) ;
#113 = PROPERTY_DEFINITION ('document property','', #500 ) ;
#114 = CC_DESIGN_DATE_AND_TIME_ASSIGNMENT ( #641, #842, ( #793 ) ) ;
#115 = DATE_TIME_ROLE ( 'classification_date' ) ;
#116 = APPROVAL_DATE_TIME ( #458, #197 ) ;
#117 = PROPERTY_DEFINITION ('external definition','', #208 ) ;
#118 = APPROVAL_DATE_TIME ( #254, #387 ) ;
#119 = CALENDAR_DATE ( 2026, 22, 6 ) ;
#120 = CARTESIAN_POINT ( 'NONE',  ( 0.000000000000000000, 0.000000000000000000, 0.000000000000000000 ) ) ;
#121 = CC_DESIGN_SECURITY_CLASSIFICATION ( #150, ( #866 ) ) ;
#122 = CC_DESIGN_SECURITY_CLASSIFICATION ( #638, ( #872 ) ) ;
#123 = CC_DESIGN_SECURITY_CLASSIFICATION ( #793, ( #542 ) ) ;
#124 = LOCAL_TIME ( 18, 50, 28.00000000000000000, #761 ) ;
#125 = PRODUCT_RELATED_PRODUCT_CATEGORY ( 'detail', '', ( #572 ) ) ;
#126 = SECURITY_CLASSIFICATION_LEVEL ( 'unclassified' ) ;
#127 = DIRECTION ( 'NONE',  ( 1.000000000000000000, 0.000000000000000000, 0.000000000000000000 ) ) ;
#128 = PERSON_AND_ORGANIZATION ( #358, #528 ) ;
#129 = DATE_AND_TIME ( #653, #239 ) ;
#130 = APPROVAL ( #826, 'Coincident' ) ;
#131 = DIRECTION ( 'NONE',  ( 0.000000000000000000, 0.000000000000000000, 1.000000000000000000 ) ) ;
#132 = DOCUMENT_TYPE ( 'geometry' ) ;
#133 = APPROVAL_ROLE ( '' ) ;
#134 = CONTEXT_DEPENDENT_SHAPE_REPRESENTATION ( #399, #386 ) ;
#135 = CC_DESIGN_PERSON_AND_ORGANIZATION_ASSIGNMENT ( #445, #315, ( #480 ) ) ;
#136 =( NAMED_UNIT ( * ) SI_UNIT ( $, .STERADIAN. ) SOLID_ANGLE_UNIT ( ) );
#137 = DOCUMENT_FILE ( '94459A130_Heat-Set Inserts for Plastic.step.STEP' , '', '', #193, '' ,$ ) ;
#138 = CONTEXT_DEPENDENT_SHAPE_REPRESENTATION ( #19, #311 ) ;
#139 = LOCAL_TIME ( 18, 50, 28.00000000000000000, #195 ) ;
#140 = COORDINATED_UNIVERSAL_TIME_OFFSET ( 10, 0, .AHEAD. ) ;
#141 = LOCAL_TIME ( 18, 50, 28.00000000000000000, #511 ) ;
#142 = DIRECTION ( 'NONE',  ( 0.5000000000000001110, -5.883239434160542175E-23, 0.8660254037844391517 ) ) ;
#143 = COORDINATED_UNIVERSAL_TIME_OFFSET ( 10, 0, .AHEAD. ) ;
#144 = CC_DESIGN_PERSON_AND_ORGANIZATION_ASSIGNMENT ( #709, #100, ( #612 ) ) ;
#145 = CALENDAR_DATE ( 2026, 22, 6 ) ;
#146 = CARTESIAN_POINT ( 'NONE',  ( 0.000000000000000000, 0.000000000000000000, 0.000000000000000000 ) ) ;
#147 = DATE_AND_TIME ( #68, #609 ) ;
#148 = MECHANICAL_CONTEXT ( 'NONE', #149, 'mechanical' ) ;
#149 = APPLICATION_CONTEXT ( 'configuration controlled 3d designs of mechanical parts and assemblies' ) ;
#150 = SECURITY_CLASSIFICATION ( '', '', #779 ) ;
#151 = PERSON_AND_ORGANIZATION ( #18446744073709551615, #18446744073709551615 ) ;
#152 = PRODUCT_DEFINITION ( 'General', '', #210, #419 ) ;
#153 = CC_DESIGN_DATE_AND_TIME_ASSIGNMENT ( #199, #115, ( #253 ) ) ;
#154 = CARTESIAN_POINT ( 'NONE',  ( 0.01140000000000000388, 0.04189999999999999281, 0.000000000000000000 ) ) ;
#155 = PERSON_AND_ORGANIZATION ( #755, #18 ) ;
#156 = APPLICATION_PROTOCOL_DEFINITION ( 'international standard', 'config_control_design', 1994, #786 ) ;
#157 = CC_DESIGN_DATE_AND_TIME_ASSIGNMENT ( #365, #692, ( #393 ) ) ;
#158 = ROLE_ASSOCIATION ( #674, #783 ) ;
#159 = PERSON_AND_ORGANIZATION ( #287, #265 ) ;
#160 = DESIGN_CONTEXT ( 'detailed design', #739, 'design' ) ;
#161 = COORDINATED_UNIVERSAL_TIME_OFFSET ( 10, 0, .AHEAD. ) ;
#162 = CC_DESIGN_PERSON_AND_ORGANIZATION_ASSIGNMENT ( #491, #220, ( #638 ) ) ;
#163 = CC_DESIGN_DATE_AND_TIME_ASSIGNMENT ( #519, #805, ( #380 ) ) ;
#164 = DATE_AND_TIME ( #243, #307 ) ;
#165 = APPROVAL_STATUS ( 'not_yet_approved' ) ;
#166 = APPLICATION_CONTEXT ( 'configuration controlled 3d designs of mechanical parts and assemblies' ) ;
#167 = AXIS2_PLACEMENT_3D ( 'NONE', #146, #817, #487 ) ;
#168 = CC_DESIGN_APPROVAL ( #545, ( #682 ) ) ;
#169 = PROPERTY_DEFINITION_REPRESENTATION ( #30, #102 ) ;
#170 = SECURITY_CLASSIFICATION_LEVEL ( 'unclassified' ) ;
#171 = PRODUCT_DEFINITION_SHAPE ( 'NONE', 'NONE',  #680 ) ;
#172 = COORDINATED_UNIVERSAL_TIME_OFFSET ( 10, 0, .AHEAD. ) ;
#173 = COORDINATED_UNIVERSAL_TIME_OFFSET ( 10, 0, .AHEAD. ) ;
#174 = APPROVAL_ROLE ( '' ) ;
#175 = APPROVAL_DATE_TIME ( #247, #769 ) ;
#176 = PROPERTY_DEFINITION ('external definition','', #741 ) ;
#177 = OBJECT_ROLE ('mandatory',$ ) ;
#178 = DATE_TIME_ROLE ( 'classification_date' ) ;
#179 = PROPERTY_DEFINITION_REPRESENTATION ( #859, #490 ) ;
#180 = PERSON_AND_ORGANIZATION ( #18446744073709551615, #18446744073709551615 ) ;
#181 = CC_DESIGN_PERSON_AND_ORGANIZATION_ASSIGNMENT ( #339, #9, ( #192 ) ) ;
#182 = AXIS2_PLACEMENT_3D ( 'NONE', #833, #475, #343 ) ;
#183 = CONTEXT_DEPENDENT_SHAPE_REPRESENTATION ( #283, #657 ) ;
#184 = APPROVAL ( #264, 'UNKNOWN' ) ;
#185 = ITEM_DEFINED_TRANSFORMATION ( 'NONE', 'NONE', #182,  #482 ) ;
#186 = COORDINATED_UNIVERSAL_TIME_OFFSET ( 10, 0, .AHEAD. ) ;
#187 = ITEM_DEFINED_TRANSFORMATION ( 'NONE', 'NONE', #670,  #566 ) ;
#188 = CC_DESIGN_DATE_AND_TIME_ASSIGNMENT ( #602, #539, ( #53 ) ) ;
#189 = PRODUCT_DEFINITION_SHAPE ( 'NONE', 'NONE',  #874 ) ;
#190 = PERSON_AND_ORGANIZATION_ROLE ( 'classification_officer' ) ;
#191 = CARTESIAN_POINT ( 'NONE',  ( 0.000000000000000000, 0.000000000000000000, 0.000000000000000000 ) ) ;
#192 = PRODUCT_DEFINITION_FORMATION_WITH_SPECIFIED_SOURCE ( 'Symmetric', '', #244, .NOT_KNOWN. ) ;
#193 = DOCUMENT_TYPE ( 'geometry' ) ;
#194 = LOCAL_TIME ( 18, 50, 28.00000000000000000, #104 ) ;
#195 = COORDINATED_UNIVERSAL_TIME_OFFSET ( 10, 0, .AHEAD. ) ;
#196 = APPROVAL_PERSON_ORGANIZATION ( #860, #281, #332 ) ;
#197 = APPROVAL ( #255, 'UNKNOWN' ) ;
#198 = CC_DESIGN_APPROVAL ( #644, ( #810 ) ) ;
#199 = DATE_AND_TIME ( #729, #747 ) ;
#200 = CALENDAR_DATE ( 2026, 22, 6 ) ;
#201 = CALENDAR_DATE ( 2026, 22, 6 ) ;
#202 =( NAMED_UNIT ( * ) PLANE_ANGLE_UNIT ( ) SI_UNIT ( $, .RADIAN. ) );
#203 = PROPERTY_DEFINITION_REPRESENTATION ( #327, #490 ) ;
#204 = APPROVAL_DATE_TIME ( #536, #130 ) ;
#205 = DESIGN_CONTEXT ( 'detailed design', #297, 'design' ) ;
#206 = DIRECTION ( 'NONE',  ( 1.000000000000000444, -8.259373677663993603E-27, -1.469163872402557893E-30 ) ) ;
#207 = CC_DESIGN_PERSON_AND_ORGANIZATION_ASSIGNMENT ( #299, #839, ( #680 ) ) ;
#208 = DOCUMENT_FILE ( 'Component1-0.step.STEP' , '', '', #577, '' ,$ ) ;
#209 = LOCAL_TIME ( 18, 50, 28.00000000000000000, #357 ) ;
#210 = PRODUCT_DEFINITION_FORMATION_WITH_SPECIFIED_SOURCE ( 'Symmetric', '', #518, .NOT_KNOWN. ) ;
#211 = APPROVAL_STATUS ( 'not_yet_approved' ) ;
#212 = CC_DESIGN_SECURITY_CLASSIFICATION ( #363, ( #868 ) ) ;
#213 = DIRECTION ( 'NONE',  ( -8.259373677663993603E-27, 1.000000000000000000, -1.000000067929029169E-15 ) ) ;
#214 = CC_DESIGN_PERSON_AND_ORGANIZATION_ASSIGNMENT ( #225, #629, ( #319 ) ) ;
#215 = PERSON_AND_ORGANIZATION_ROLE ( 'creator' ) ;
#216 = DIRECTION ( 'NONE',  ( 1.000000000000000444, -8.259373677663993603E-27, 4.999999999999999205E-15 ) ) ;
#217 = APPROVAL_ROLE ( '' ) ;
#218 = DIRECTION ( 'NONE',  ( 1.000000000000000444, -8.259373677663993603E-27, 4.999999999999999205E-15 ) ) ;
#219 = LOCAL_TIME ( 18, 50, 28.00000000000000000, #645 ) ;
#220 = PERSON_AND_ORGANIZATION_ROLE ( 'classification_officer' ) ;
#221 = CALENDAR_DATE ( 2026, 22, 6 ) ;
#222 = EXTERNAL_SOURCE (IDENTIFIER('') ) ;
#223 = DIRECTION ( 'NONE',  ( 8.259373677663993603E-27, -1.000000000000000000, 6.792903027419116756E-23 ) ) ;
#224 = AXIS2_PLACEMENT_3D ( 'NONE', #677, #764, #206 ) ;
#225 = PERSON_AND_ORGANIZATION ( #474, #356 ) ;
#226 = PERSON_AND_ORGANIZATION ( #18446744073709551615, #18446744073709551615 ) ;
#227 = CALENDAR_DATE ( 2026, 22, 6 ) ;
#228 = DATE_AND_TIME ( #598, #457 ) ;
#229 = CONTEXT_DEPENDENT_SHAPE_REPRESENTATION ( #32, #582 ) ;
#230 = DATE_AND_TIME ( #773, #655 ) ;
#231 = APPLICATION_PROTOCOL_DEFINITION ( 'international standard', 'config_control_design', 1994, #411 ) ;
#232 = PRODUCT_RELATED_PRODUCT_CATEGORY ( 'detail', '', ( #649 ) ) ;
#233 = DATE_TIME_ROLE ( 'classification_date' ) ;
#234 = APPLIED_DOCUMENT_REFERENCE ( #703,'',( #349) ) ;
#235 = LOCAL_TIME ( 18, 50, 28.00000000000000000, #414 ) ;
#236 = CALENDAR_DATE ( 2026, 22, 6 ) ;
#237 = CC_DESIGN_SECURITY_CLASSIFICATION ( #266, ( #873 ) ) ;
#238 = LOCAL_TIME ( 18, 50, 28.00000000000000000, #452 ) ;
#239 = LOCAL_TIME ( 18, 50, 28.00000000000000000, #186 ) ;
#240 = APPROVAL ( #513, 'UNKNOWN' ) ;
#241 = OBJECT_ROLE ('mandatory',$ ) ;
#242 = PROPERTY_DEFINITION_REPRESENTATION ( #451, #102 ) ;
#243 = CALENDAR_DATE ( 2026, 22, 6 ) ;
#244 = PRODUCT ( '90380A323_Phillips Rounded Head Thread-Forming Screws.step', '90380A323_Phillips Rounded Head Thread-Forming Screws.step', '', ( #794 ) ) ;
#245 = PERSON_AND_ORGANIZATION ( #18446744073709551615, #18446744073709551615 ) ;
#246 = APPROVAL_DATE_TIME ( #552, #240 ) ;
#247 = DATE_AND_TIME ( #785, #26 ) ;
#248 = SECURITY_CLASSIFICATION_LEVEL ( 'unclassified' ) ;
#249 = CC_DESIGN_PERSON_AND_ORGANIZATION_ASSIGNMENT ( #226, #634, ( #682 ) ) ;
#250 = SHAPE_DEFINITION_REPRESENTATION ( #843, #336 ) ;
#251 = PERSON ( 'NAUO-PER438', 'UNSPECIFIED', 'UNSPECIFIED', ('UNSPECIFIED'), ('UNSPECIFIED'), ('UNSPECIFIED') ) ;
#252 = APPROVAL_PERSON_ORGANIZATION ( #811, #782, #394 ) ;
#253 = SECURITY_CLASSIFICATION ( '', '', #126 ) ;
#254 = DATE_AND_TIME ( #648, #238 ) ;
#255 = APPROVAL_STATUS ( 'not_yet_approved' ) ;
#256 =( LENGTH_UNIT ( ) NAMED_UNIT ( * ) SI_UNIT ( $, .METRE. ) );
#257 = APPROVAL ( #286, 'Coincident' ) ;
#258 = PRODUCT_DEFINITION_SHAPE ( 'NONE', 'NONE',  #349 ) ;
#259 =( REPRESENTATION_RELATIONSHIP ('NONE','NONE', #574, #102 ) REPRESENTATION_RELATIONSHIP_WITH_TRANSFORMATION ( #185 )SHAPE_REPRESENTATION_RELATIONSHIP( ) );
#260 = CALENDAR_DATE ( 2026, 22, 6 ) ;
#261 = PERSON_AND_ORGANIZATION ( #18446744073709551615, #18446744073709551615 ) ;
#262 = CC_DESIGN_DATE_AND_TIME_ASSIGNMENT ( #673, #340, ( #349 ) ) ;
#263 = MECHANICAL_CONTEXT ( 'NONE', #313, 'mechanical' ) ;
#264 = APPROVAL_STATUS ( 'not_yet_approved' ) ;
#265 = ORGANIZATION ( 'NAUO-ORG430', 'UNSPECIFIED', 'UNSPECIFIED' ) ;
#266 = SECURITY_CLASSIFICATION ( '', '', #33 ) ;
#267 = LOCAL_TIME ( 18, 50, 28.00000000000000000, #768 ) ;
#268 = CC_DESIGN_APPROVAL ( #631, ( #150 ) ) ;
#269 = PERSON_AND_ORGANIZATION ( #18446744073709551615, #18446744073709551615 ) ;
#270 = DOCUMENT_FILE ( '94459A130_Heat-Set Inserts for Plastic.step.STEP' , '', '', #132, '' ,$ ) ;
#271 = APPLICATION_CONTEXT ( 'configuration controlled 3d designs of mechanical parts and assemblies' ) ;
#272 = DIRECTION ( 'NONE',  ( 1.000000000000000000, 0.000000000000000000, 0.000000000000000000 ) ) ;
#273 = PERSON_AND_ORGANIZATION_ROLE ( 'design_supplier' ) ;
#274 = PROPERTY_DEFINITION_REPRESENTATION ( #731, #490 ) ;
#275 = COORDINATED_UNIVERSAL_TIME_OFFSET ( 10, 0, .AHEAD. ) ;
#276 = LOCAL_TIME ( 18, 50, 28.00000000000000000, #549 ) ;
#277 = APPROVAL_PERSON_ORGANIZATION ( #858, #769, #501 ) ;
#278 = APPROVAL_ROLE ( '' ) ;
#279 = APPROVAL_PERSON_ORGANIZATION ( #151, #257, #618 ) ;
#280 =( NAMED_UNIT ( * ) PLANE_ANGLE_UNIT ( ) SI_UNIT ( $, .RADIAN. ) );
#281 = APPROVAL ( #738, 'Coincident' ) ;
#282 = APPROVAL_DATE_TIME ( #752, #644 ) ;
#283 =( REPRESENTATION_RELATIONSHIP ('NONE','NONE', #574, #336 ) REPRESENTATION_RELATIONSHIP_WITH_TRANSFORMATION ( #383 )SHAPE_REPRESENTATION_RELATIONSHIP( ) );
#284 =( LENGTH_UNIT ( ) NAMED_UNIT ( * ) SI_UNIT ( $, .METRE. ) );
#285 = PRODUCT_RELATED_PRODUCT_CATEGORY ( 'detail', '', ( #770 ) ) ;
#286 = APPROVAL_STATUS ( 'not_yet_approved' ) ;
#287 = PERSON ( 'NAUO-PER430', 'UNSPECIFIED', 'UNSPECIFIED', ('UNSPECIFIED'), ('UNSPECIFIED'), ('UNSPECIFIED') ) ;
#288 = CC_DESIGN_SECURITY_CLASSIFICATION ( #53, ( #874 ) ) ;
#289 = PROPERTY_DEFINITION_REPRESENTATION ( #103, #102 ) ;
#290 = DATE_TIME_ROLE ( 'classification_date' ) ;
#291 = PERSON_AND_ORGANIZATION ( #18446744073709551615, #18446744073709551615 ) ;
#292 = LOCAL_TIME ( 18, 50, 28.00000000000000000, #296 ) ;
#293 = PROPERTY_DEFINITION_REPRESENTATION ( #117, #580 ) ;
#294 = CONTEXT_DEPENDENT_SHAPE_REPRESENTATION ( #821, #721 ) ;
#295 = PRODUCT_DEFINITION ( 'General', '', #612, #718 ) ;
#296 = COORDINATED_UNIVERSAL_TIME_OFFSET ( 10, 0, .AHEAD. ) ;
#297 = APPLICATION_CONTEXT ( 'configuration controlled 3d designs of mechanical parts and assemblies' ) ;
#298 = APPROVAL_DATE_TIME ( #28, #781 ) ;
#299 = PERSON_AND_ORGANIZATION ( #18446744073709551615, #18446744073709551615 ) ;
#300 = PROPERTY_DEFINITION ('external definition','', #672 ) ;
#301 = SECURITY_CLASSIFICATION_LEVEL ( 'unclassified' ) ;
#302 = APPROVAL_DATE_TIME ( #368, #545 ) ;
#303 = SECURITY_CLASSIFICATION ( '', '', #557 ) ;
#304 = APPROVAL_ROLE ( '' ) ;
#305 =( GEOMETRIC_REPRESENTATION_CONTEXT ( 3 ) GLOBAL_UNCERTAINTY_ASSIGNED_CONTEXT ( ( #72 ) ) GLOBAL_UNIT_ASSIGNED_CONTEXT ( ( #69, #664, #65 ) ) REPRESENTATION_CONTEXT ( 'NONE', 'WORKASPACE' ) );
#306 = AXIS2_PLACEMENT_3D ( 'NONE', #12, #24, #71 ) ;
#307 = LOCAL_TIME ( 18, 50, 28.00000000000000000, #492 ) ;
#308 = CC_DESIGN_DATE_AND_TIME_ASSIGNMENT ( #717, #378, ( #295 ) ) ;
#309 = APPROVAL_STATUS ( 'not_yet_approved' ) ;
#310 = PERSON ( 'NAUO-PER429', 'UNSPECIFIED', 'UNSPECIFIED', ('UNSPECIFIED'), ('UNSPECIFIED'), ('UNSPECIFIED') ) ;
#311 = PRODUCT_DEFINITION_SHAPE ( 'NONE', 'NONE',  #870 ) ;
#312 = DATE_AND_TIME ( #789, #292 ) ;
#313 = APPLICATION_CONTEXT ( 'configuration controlled 3d designs of mechanical parts and assemblies' ) ;
#314 = CC_DESIGN_PERSON_AND_ORGANIZATION_ASSIGNMENT ( #696, #573, ( #682 ) ) ;
#315 = PERSON_AND_ORGANIZATION_ROLE ( 'classification_officer' ) ;
#316 = DATE_AND_TIME ( #50, #93 ) ;
#317 = CC_DESIGN_PERSON_AND_ORGANIZATION_ASSIGNMENT ( #585, #581, ( #210 ) ) ;
#318 = DATE_AND_TIME ( #201, #685 ) ;
#319 = SECURITY_CLASSIFICATION ( '', '', #301 ) ;
#320 =( GEOMETRIC_REPRESENTATION_CONTEXT ( 3 ) GLOBAL_UNCERTAINTY_ASSIGNED_CONTEXT ( ( #560 ) ) GLOBAL_UNIT_ASSIGNED_CONTEXT ( ( #798, #60, #827 ) ) REPRESENTATION_CONTEXT ( 'NONE', 'WORKASPACE' ) );
#321 = CC_DESIGN_SECURITY_CLASSIFICATION ( #701, ( #869 ) ) ;
#322 = PROPERTY_DEFINITION_REPRESENTATION ( #446, #336 ) ;
#323 = PERSON_AND_ORGANIZATION ( #18446744073709551615, #18446744073709551615 ) ;
#324 = APPROVAL_DATE_TIME ( #450, #184 ) ;
#325 = APPROVAL ( #665, 'UNKNOWN' ) ;
#326 = DIRECTION ( 'NONE',  ( 0.000000000000000000, 0.000000000000000000, 1.000000000000000000 ) ) ;
#327 = PROPERTY_DEFINITION ('external definition','', #137 ) ;
#328 = PERSON_AND_ORGANIZATION ( #18446744073709551615, #18446744073709551615 ) ;
#329 = IDENTIFICATION_ROLE ( 'external document id and location', $) ;
#330 = PROPERTY_DEFINITION_REPRESENTATION ( #431, #490 ) ;
#331 = PROPERTY_DEFINITION ('external definition','', #703 ) ;
#332 = APPROVAL_ROLE ( '' ) ;
#333 = DIRECTION ( 'NONE',  ( 1.000000000000000000, 0.000000000000000000, 0.000000000000000000 ) ) ;
#334 = CC_DESIGN_PERSON_AND_ORGANIZATION_ASSIGNMENT ( #82, #215, ( #810 ) ) ;
#335 = COORDINATED_UNIVERSAL_TIME_OFFSET ( 10, 0, .AHEAD. ) ;
#336 = SHAPE_REPRESENTATION ( '91292A113_18-8 Stainless Steel Socket Head Screw.step', ( #566 ), #745 ) ;
#337 = PERSON_AND_ORGANIZATION ( #18446744073709551615, #18446744073709551615 ) ;
#338 = APPLIED_DOCUMENT_REFERENCE ( #270,'',( #349) ) ;
#339 = PERSON_AND_ORGANIZATION ( #18446744073709551615, #18446744073709551615 ) ;
#340 = DATE_TIME_ROLE ( 'creation_date' ) ;
#341 = EXTERNAL_SOURCE (IDENTIFIER('') ) ;
#342 = PRODUCT_RELATED_PRODUCT_CATEGORY ( 'detail', '', ( #244 ) ) ;
#343 = DIRECTION ( 'NONE',  ( 1.000000000000000444, -8.259373677663993603E-27, -1.469163872402557893E-30 ) ) ;
#344 = CC_DESIGN_APPROVAL ( #130, ( #349 ) ) ;
#345 = SECURITY_CLASSIFICATION ( '', '', #586 ) ;
#346 = CC_DESIGN_APPROVAL ( #603, ( #612 ) ) ;
#347 = CALENDAR_DATE ( 2026, 22, 6 ) ;
#348 = APPLIED_EXTERNAL_IDENTIFICATION_ASSIGNMENT ( '94459A130_Heat-Set Inserts for Plastic.step.STEP' , #390, #720,( #703) ) ;
#349 = PRODUCT_DEFINITION ( 'General', '', #682, #160 ) ;
#350 = SHAPE_DEFINITION_REPRESENTATION ( #628, #102 ) ;
#351 = CARTESIAN_POINT ( 'NONE',  ( 0.007500000000000003192, 0.03319999999999999341, -0.03869999999999999829 ) ) ;
#352 = ROLE_ASSOCIATION ( #706, #790 ) ;
#353 = APPROVAL_ROLE ( '' ) ;
#354 = APPROVAL_ROLE ( '' ) ;
#355 =( NAMED_UNIT ( * ) SI_UNIT ( $, .STERADIAN. ) SOLID_ANGLE_UNIT ( ) );
#356 = ORGANIZATION ( 'NAUO-ORG434', 'UNSPECIFIED', 'UNSPECIFIED' ) ;
#357 = COORDINATED_UNIVERSAL_TIME_OFFSET ( 10, 0, .AHEAD. ) ;
#358 = PERSON ( 'NAUO-PER433', 'UNSPECIFIED', 'UNSPECIFIED', ('UNSPECIFIED'), ('UNSPECIFIED'), ('UNSPECIFIED') ) ;
#359 = DATE_TIME_ROLE ( 'classification_date' ) ;
#360 = CC_DESIGN_APPROVAL ( #782, ( #253 ) ) ;
#361 = PERSON ( 'NAUO-PER436', 'UNSPECIFIED', 'UNSPECIFIED', ('UNSPECIFIED'), ('UNSPECIFIED'), ('UNSPECIFIED') ) ;
#362 = APPROVAL_DATE_TIME ( #312, #74 ) ;
#363 = SECURITY_CLASSIFICATION ( '', '', #398 ) ;
#364 = APPROVAL ( #374, 'UNKNOWN' ) ;
#365 = DATE_AND_TIME ( #506, #636 ) ;
#366 = APPROVAL_STATUS ( 'not_yet_approved' ) ;
#367 = PERSON_AND_ORGANIZATION ( #361, #611 ) ;
#368 = DATE_AND_TIME ( #824, #851 ) ;
#369 = APPROVAL ( #778, 'UNKNOWN' ) ;
#370 = PERSON_AND_ORGANIZATION ( #18446744073709551615, #18446744073709551615 ) ;
#371 = CC_DESIGN_PERSON_AND_ORGANIZATION_ASSIGNMENT ( #323, #396, ( #253 ) ) ;
#372 = PROPERTY_DEFINITION ('external definition','', #500 ) ;
#373 = DOCUMENT_TYPE ( 'geometry' ) ;
#374 = APPROVAL_STATUS ( 'not_yet_approved' ) ;
#375 = ITEM_DEFINED_TRANSFORMATION ( 'NONE', 'NONE', #716,  #54 ) ;
#376 = CALENDAR_DATE ( 2026, 22, 6 ) ;
#377 = APPROVAL_PERSON_ORGANIZATION ( #625, #631, #354 ) ;
#378 = DATE_TIME_ROLE ( 'creation_date' ) ;
#379 = APPROVAL_ROLE ( '' ) ;
#380 = SECURITY_CLASSIFICATION ( '', '', #658 ) ;
#381 = PERSON_AND_ORGANIZATION ( #443, #804 ) ;
#382 = COORDINATED_UNIVERSAL_TIME_OFFSET ( 10, 0, .AHEAD. ) ;
#383 = ITEM_DEFINED_TRANSFORMATION ( 'NONE', 'NONE', #224,  #566 ) ;
#384 = COORDINATED_UNIVERSAL_TIME_OFFSET ( 10, 0, .AHEAD. ) ;
#385 =( NAMED_UNIT ( * ) PLANE_ANGLE_UNIT ( ) SI_UNIT ( $, .RADIAN. ) );
#386 = PRODUCT_DEFINITION_SHAPE ( 'NONE', 'NONE',  #869 ) ;
#387 = APPROVAL ( #59, 'Coincident' ) ;
#388 = APPROVAL_STATUS ( 'not_yet_approved' ) ;
#389 = CC_DESIGN_SECURITY_CLASSIFICATION ( #393, ( #867 ) ) ;
#390 = IDENTIFICATION_ROLE ( 'external document id and location', $) ;
#391 = CC_DESIGN_APPROVAL ( #781, ( #266 ) ) ;
#392 = AXIS2_PLACEMENT_3D ( 'NONE', #83, #406, #478 ) ;
#393 = SECURITY_CLASSIFICATION ( '', '', #170 ) ;
#394 = APPROVAL_ROLE ( '' ) ;
#395 = DATE_TIME_ROLE ( 'classification_date' ) ;
#396 = PERSON_AND_ORGANIZATION_ROLE ( 'classification_officer' ) ;
#397 = CC_DESIGN_PERSON_AND_ORGANIZATION_ASSIGNMENT ( #589, #462, ( #612 ) ) ;
#398 = SECURITY_CLASSIFICATION_LEVEL ( 'unclassified' ) ;
#399 =( REPRESENTATION_RELATIONSHIP ('NONE','NONE', #574, #490 ) REPRESENTATION_RELATIONSHIP_WITH_TRANSFORMATION ( #659 )SHAPE_REPRESENTATION_RELATIONSHIP( ) );
#400 = PERSON_AND_ORGANIZATION_ROLE ( 'creator' ) ;
#401 = COORDINATED_UNIVERSAL_TIME_OFFSET ( 10, 0, .AHEAD. ) ;
#402 = ROLE_ASSOCIATION ( #637, #715 ) ;
#403 = COORDINATED_UNIVERSAL_TIME_OFFSET ( 10, 0, .AHEAD. ) ;
#404 = CC_DESIGN_DATE_AND_TIME_ASSIGNMENT ( #405, #604, ( #810 ) ) ;
#405 = DATE_AND_TIME ( #479, #686 ) ;
#406 = DIRECTION ( 'NONE',  ( 0.8660254037844388186, -3.397166695006231747E-23, 0.5000000000000004441 ) ) ;
#407 = CC_DESIGN_PERSON_AND_ORGANIZATION_ASSIGNMENT ( #749, #468, ( #349 ) ) ;
#408 = PERSON_AND_ORGANIZATION_ROLE ( 'classification_officer' ) ;
#409 = PERSON_AND_ORGANIZATION ( #18446744073709551615, #18446744073709551615 ) ;
#410 = CC_DESIGN_SECURITY_CLASSIFICATION ( #303, ( #682 ) ) ;
#411 = APPLICATION_CONTEXT ( 'configuration controlled 3d designs of mechanical parts and assemblies' ) ;
#412 = APPROVAL_PERSON_ORGANIZATION ( #491, #369, #353 ) ;
#413 = CC_DESIGN_APPROVAL ( #523, ( #680 ) ) ;
#414 = COORDINATED_UNIVERSAL_TIME_OFFSET ( 10, 0, .AHEAD. ) ;
#415 = APPLIED_EXTERNAL_IDENTIFICATION_ASSIGNMENT ( '94459A130_Heat-Set Inserts for Plastic.step.STEP' , #765, #620,( #561) ) ;
#416 = PERSON_AND_ORGANIZATION ( #18446744073709551615, #18446744073709551615 ) ;
#417 = CONTEXT_DEPENDENT_SHAPE_REPRESENTATION ( #534, #588 ) ;
#418 = APPROVAL_ROLE ( '' ) ;
#419 = DESIGN_CONTEXT ( 'detailed design', #587, 'design' ) ;
#420 = DATE_AND_TIME ( #538, #78 ) ;
#421 = DATE_AND_TIME ( #425, #194 ) ;
#422 = CONTEXT_DEPENDENT_SHAPE_REPRESENTATION ( #814, #855 ) ;
#423 = PERSON_AND_ORGANIZATION_ROLE ( 'classification_officer' ) ;
#424 = SHAPE_DEFINITION_REPRESENTATION ( #504, #580 ) ;
#425 = CALENDAR_DATE ( 2026, 22, 6 ) ;
#426 = PROPERTY_DEFINITION_REPRESENTATION ( #594, #490 ) ;
#427 = AXIS2_PLACEMENT_3D ( 'NONE', #455, #465, #448 ) ;
#428 = APPROVAL_DATE_TIME ( #632, #523 ) ;
#429 = LOCAL_TIME ( 18, 50, 28.00000000000000000, #140 ) ;
#430 = DOCUMENT_TYPE ( 'geometry' ) ;
#431 = PROPERTY_DEFINITION ('external definition','', #561 ) ;
#432 = CC_DESIGN_DATE_AND_TIME_ASSIGNMENT ( #316, #723, ( #152 ) ) ;
#433 = APPLIED_DOCUMENT_REFERENCE ( #852,'',( #810) ) ;
#434 = APPROVAL_STATUS ( 'not_yet_approved' ) ;
#435 = APPROVAL_DATE_TIME ( #493, #603 ) ;
#436 = SECURITY_CLASSIFICATION_LEVEL ( 'unclassified' ) ;
#437 = PERSON_AND_ORGANIZATION ( #18446744073709551615, #18446744073709551615 ) ;
#438 = APPROVAL ( #38, 'Coincident' ) ;
#439 = PERSON_AND_ORGANIZATION_ROLE ( 'creator' ) ;
#440 = APPLIED_EXTERNAL_IDENTIFICATION_ASSIGNMENT ( 'Component1-0.step.STEP' , #627, #222,( #208) ) ;
#441 = APPLICATION_PROTOCOL_DEFINITION ( 'international standard', 'config_control_design', 1994, #271 ) ;
#442 = EXTERNAL_SOURCE (IDENTIFIER('') ) ;
#443 = PERSON ( 'NAUO-PER437', 'UNSPECIFIED', 'UNSPECIFIED', ('UNSPECIFIED'), ('UNSPECIFIED'), ('UNSPECIFIED') ) ;
#444 = APPROVAL_PERSON_ORGANIZATION ( #370, #603, #646 ) ;
#445 = PERSON_AND_ORGANIZATION ( #251, #791 ) ;
#446 = PROPERTY_DEFINITION ('document property','', #672 ) ;
#447 = PERSON_AND_ORGANIZATION ( #18446744073709551615, #18446744073709551615 ) ;
#448 = DIRECTION ( 'NONE',  ( 1.000000000000000000, 0.000000000000000000, 0.000000000000000000 ) ) ;
#449 = APPROVAL_DATE_TIME ( #129, #11 ) ;
#450 = DATE_AND_TIME ( #590, #775 ) ;
#451 = PROPERTY_DEFINITION ('document property','', #494 ) ;
#452 = COORDINATED_UNIVERSAL_TIME_OFFSET ( 10, 0, .AHEAD. ) ;
#453 = CC_DESIGN_APPROVAL ( #816, ( #393 ) ) ;
#454 = LOCAL_TIME ( 18, 50, 28.00000000000000000, #42 ) ;
#455 = CARTESIAN_POINT ( 'NONE',  ( 0.000000000000000000, 0.000000000000000000, 0.000000000000000000 ) ) ;
#456 = LOCAL_TIME ( 18, 50, 28.00000000000000000, #562 ) ;
#457 = LOCAL_TIME ( 18, 50, 28.00000000000000000, #66 ) ;
#458 = DATE_AND_TIME ( #531, #139 ) ;
#459 = ROLE_ASSOCIATION ( #73, #711 ) ;
#460 = OBJECT_ROLE ('mandatory',$ ) ;
#461 = CC_DESIGN_PERSON_AND_ORGANIZATION_ASSIGNMENT ( #854, #91, ( #542 ) ) ;
#462 = PERSON_AND_ORGANIZATION_ROLE ( 'design_supplier' ) ;
#463 =( LENGTH_UNIT ( ) NAMED_UNIT ( * ) SI_UNIT ( $, .METRE. ) );
#464 = APPROVAL_STATUS ( 'not_yet_approved' ) ;
#465 = DIRECTION ( 'NONE',  ( 0.000000000000000000, 0.000000000000000000, 1.000000000000000000 ) ) ;
#466 = PROPERTY_DEFINITION_REPRESENTATION ( #36, #490 ) ;
#467 = APPROVAL_ROLE ( '' ) ;
#468 = PERSON_AND_ORGANIZATION_ROLE ( 'creator' ) ;
#469 = CC_DESIGN_APPROVAL ( #369, ( #638 ) ) ;
#470 = DATE_AND_TIME ( #57, #651 ) ;
#471 = APPROVAL_PERSON_ORGANIZATION ( #328, #387, #133 ) ;
#472 = CC_DESIGN_SECURITY_CLASSIFICATION ( #530, ( #192 ) ) ;
#473 = PERSON_AND_ORGANIZATION_ROLE ( 'design_owner' ) ;
#474 = PERSON ( 'NAUO-PER434', 'UNSPECIFIED', 'UNSPECIFIED', ('UNSPECIFIED'), ('UNSPECIFIED'), ('UNSPECIFIED') ) ;
#475 = DIRECTION ( 'NONE',  ( 1.469163872402557893E-30, 6.792903027419116756E-23, -1.000000000000000444 ) ) ;
#476 = OBJECT_ROLE ('mandatory',$ ) ;
#477 = APPROVAL_DATE_TIME ( #820, #497 ) ;
#478 = DIRECTION ( 'NONE',  ( 0.5000000000000004441, 5.882413654564956820E-23, -0.8660254037844388186 ) ) ;
#479 = CALENDAR_DATE ( 2026, 22, 6 ) ;
#480 = SECURITY_CLASSIFICATION ( '', '', #248 ) ;
#481 = APPROVAL_PERSON_ORGANIZATION ( #381, #95, #49 ) ;
#482 = AXIS2_PLACEMENT_3D ( 'NONE', #120, #131, #272 ) ;
#483 = APPROVAL_PERSON_ORGANIZATION ( #31, #74, #304 ) ;
#484 = ITEM_DEFINED_TRANSFORMATION ( 'NONE', 'NONE', #109,  #482 ) ;
#485 = DATE_TIME_ROLE ( 'classification_date' ) ;
#486 = CC_DESIGN_PERSON_AND_ORGANIZATION_ASSIGNMENT ( #63, #190, ( #380 ) ) ;
#487 = DIRECTION ( 'NONE',  ( 1.000000000000000444, -8.259373677663993603E-27, -1.469163872402557893E-30 ) ) ;
#488 = IDENTIFICATION_ROLE ( 'external document id and location', $) ;
#489 = PERSON_AND_ORGANIZATION_ROLE ( 'classification_officer' ) ;
#490 = SHAPE_REPRESENTATION ( '94459A130_Heat-Set Inserts for Plastic.step', ( #54 ), #669 ) ;
#491 = PERSON_AND_ORGANIZATION ( #10, #67 ) ;
#492 = COORDINATED_UNIVERSAL_TIME_OFFSET ( 10, 0, .AHEAD. ) ;
#493 = DATE_AND_TIME ( #227, #623 ) ;
#494 = DOCUMENT_FILE ( '90380A323_Phillips Rounded Head Thread-Forming Screws.step.STEP' , '', '', #373, '' ,$ ) ;
#495 = PERSON_AND_ORGANIZATION_ROLE ( 'classification_officer' ) ;
#496 = SHAPE_DEFINITION_REPRESENTATION ( #171, #574 ) ;
#497 = APPROVAL ( #211, 'Coincident' ) ;
#498 = CC_DESIGN_APPROVAL ( #497, ( #530 ) ) ;
#499 = ITEM_DEFINED_TRANSFORMATION ( 'NONE', 'NONE', #392,  #482 ) ;
#500 = DOCUMENT_FILE ( '90380A323_Phillips Rounded Head Thread-Forming Screws.step.STEP' , '', '', #861, '' ,$ ) ;
#501 = APPROVAL_ROLE ( '' ) ;
#502 = APPROVAL_PERSON_ORGANIZATION ( #155, #325, #112 ) ;
#503 = CC_DESIGN_DATE_AND_TIME_ASSIGNMENT ( #524, #395, ( #345 ) ) ;
#504 = PRODUCT_DEFINITION_SHAPE ( 'NONE', 'NONE',  #295 ) ;
#505 = APPROVAL_STATUS ( 'not_yet_approved' ) ;
#506 = CALENDAR_DATE ( 2026, 22, 6 ) ;
#507 = SECURITY_CLASSIFICATION_LEVEL ( 'unclassified' ) ;
#508 = IDENTIFICATION_ROLE ( 'external document id and location', $) ;
#509 = UNCERTAINTY_MEASURE_WITH_UNIT (LENGTH_MEASURE( 1.000000000000000082E-05 ), #463, 'distance_accuracy_value', 'NONE');
#510 = COORDINATED_UNIVERSAL_TIME_OFFSET ( 10, 0, .AHEAD. ) ;
#511 = COORDINATED_UNIVERSAL_TIME_OFFSET ( 10, 0, .AHEAD. ) ;
#512 = DATE_TIME_ROLE ( 'classification_date' ) ;
#513 = APPROVAL_STATUS ( 'not_yet_approved' ) ;
#514 = CC_DESIGN_SECURITY_CLASSIFICATION ( #345, ( #870 ) ) ;
#515 = APPLICATION_PROTOCOL_DEFINITION ( 'international standard', 'config_control_design', 1994, #166 ) ;
#516 = APPROVAL ( #165, 'Coincident' ) ;
#517 = LOCAL_TIME ( 18, 50, 28.00000000000000000, #697 ) ;
#518 = PRODUCT ( '91292A113_18-8 Stainless Steel Socket Head Screw.step', '91292A113_18-8 Stainless Steel Socket Head Screw.step', '', ( #263 ) ) ;
#519 = DATE_AND_TIME ( #52, #4 ) ;
#520 = CC_DESIGN_DATE_AND_TIME_ASSIGNMENT ( #601, #806, ( #701 ) ) ;
#521 = EXTERNAL_SOURCE (IDENTIFIER('') ) ;
#522 = PERSON_AND_ORGANIZATION_ROLE ( 'creator' ) ;
#523 = APPROVAL ( #688, 'Coincident' ) ;
#524 = DATE_AND_TIME ( #119, #622 ) ;
#525 = COORDINATED_UNIVERSAL_TIME_OFFSET ( 10, 0, .AHEAD. ) ;
#526 = PERSON_AND_ORGANIZATION ( #675, #642 ) ;
#527 = LOCAL_TIME ( 18, 50, 28.00000000000000000, #630 ) ;
#528 = ORGANIZATION ( 'NAUO-ORG433', 'UNSPECIFIED', 'UNSPECIFIED' ) ;
#529 = DATE_AND_TIME ( #725, #454 ) ;
#530 = SECURITY_CLASSIFICATION ( '', '', #757 ) ;
#531 = CALENDAR_DATE ( 2026, 22, 6 ) ;
#532 = APPROVAL_DATE_TIME ( #64, #782 ) ;
#533 = PROPERTY_DEFINITION_REPRESENTATION ( #61, #490 ) ;
#534 =( REPRESENTATION_RELATIONSHIP ('NONE','NONE', #574, #580 ) REPRESENTATION_RELATIONSHIP_WITH_TRANSFORMATION ( #695 )SHAPE_REPRESENTATION_RELATIONSHIP( ) );
#535 = PERSON_AND_ORGANIZATION_ROLE ( 'classification_officer' ) ;
#536 = DATE_AND_TIME ( #347, #40 ) ;
#537 = DIRECTION ( 'NONE',  ( -8.259373677663993603E-27, 1.000000000000000000, -1.000000067929029169E-15 ) ) ;
#538 = CALENDAR_DATE ( 2026, 22, 6 ) ;
#539 = DATE_TIME_ROLE ( 'classification_date' ) ;
#540 = PERSON_AND_ORGANIZATION ( #18446744073709551615, #18446744073709551615 ) ;
#541 = APPLIED_EXTERNAL_IDENTIFICATION_ASSIGNMENT ( '90380A323_Phillips Rounded Head Thread-Forming Screws.step.STEP' , #563, #521,( #494) ) ;
#542 = PRODUCT_DEFINITION_FORMATION_WITH_SPECIFIED_SOURCE ( 'Symmetric', '', #649, .NOT_KNOWN. ) ;
#543 = LOCAL_TIME ( 18, 50, 28.00000000000000000, #763 ) ;
#544 = COORDINATED_UNIVERSAL_TIME_OFFSET ( 10, 0, .AHEAD. ) ;
#545 = APPROVAL ( #14, 'Coincident' ) ;
#546 = APPROVAL_ROLE ( '' ) ;
#547 = APPLICATION_PROTOCOL_DEFINITION ( 'international standard', 'config_control_design', 1994, #668 ) ;
#548 = EXTERNAL_SOURCE (IDENTIFIER('') ) ;
#549 = COORDINATED_UNIVERSAL_TIME_OFFSET ( 10, 0, .AHEAD. ) ;
#550 = PERSON_AND_ORGANIZATION_ROLE ( 'design_owner' ) ;
#551 = CARTESIAN_POINT ( 'NONE',  ( -0.007500000000000004927, 0.03319999999999999341, -0.03869000000000000217 ) ) ;
#552 = DATE_AND_TIME ( #260, #219 ) ;
#553 = AXIS2_PLACEMENT_3D ( 'NONE', #551, #213, #216 ) ;
#554 = ROLE_ASSOCIATION ( #476, #433 ) ;
#555 = APPROVAL_DATE_TIME ( #230, #631 ) ;
#556 = APPROVAL_ROLE ( '' ) ;
#557 = SECURITY_CLASSIFICATION_LEVEL ( 'unclassified' ) ;
#558 = CALENDAR_DATE ( 2026, 22, 6 ) ;
#559 = CC_DESIGN_PERSON_AND_ORGANIZATION_ASSIGNMENT ( #734, #550, ( #244 ) ) ;
#560 = UNCERTAINTY_MEASURE_WITH_UNIT (LENGTH_MEASURE( 1.000000000000000082E-05 ), #798, 'distance_accuracy_value', 'NONE');
#561 = DOCUMENT_FILE ( '94459A130_Heat-Set Inserts for Plastic.step.STEP' , '', '', #829, '' ,$ ) ;
#562 = COORDINATED_UNIVERSAL_TIME_OFFSET ( 10, 0, .AHEAD. ) ;
#563 = IDENTIFICATION_ROLE ( 'external document id and location', $) ;
#564 = APPROVAL_PERSON_ORGANIZATION ( #105, #438, #174 ) ;
#565 = CC_DESIGN_SECURITY_CLASSIFICATION ( #319, ( #871 ) ) ;
#566 = AXIS2_PLACEMENT_3D ( 'NONE', #737, #795, #333 ) ;
#567 = PROPERTY_DEFINITION_REPRESENTATION ( #788, #102 ) ;
#568 = SHAPE_DEFINITION_REPRESENTATION ( #258, #490 ) ;
#569 = LOCAL_TIME ( 18, 50, 28.00000000000000000, #525 ) ;
#570 = APPROVAL_STATUS ( 'not_yet_approved' ) ;
#571 = CC_DESIGN_APPROVAL ( #11, ( #380 ) ) ;
#572 = PRODUCT ( 'Component1-0.step', 'Component1-0.step', '', ( #712 ) ) ;
#573 = PERSON_AND_ORGANIZATION_ROLE ( 'creator' ) ;
#574 = SHAPE_REPRESENTATION ( 'Component1.step', ( #306, #553, #56, #182, #80, #670, #167, #392, #109, #716, #224 ), #597 ) ;
#575 = PERSON_AND_ORGANIZATION ( #18446744073709551615, #18446744073709551615 ) ;
#576 = APPROVAL_DATE_TIME ( #621, #325 ) ;
#577 = DOCUMENT_TYPE ( 'geometry' ) ;
#578 = CC_DESIGN_PERSON_AND_ORGANIZATION_ASSIGNMENT ( #409, #681, ( #649 ) ) ;
#579 = ROLE_ASSOCIATION ( #460, #671 ) ;
#580 = SHAPE_REPRESENTATION ( 'Component1-0.step', ( #427 ), #320 ) ;
#581 = PERSON_AND_ORGANIZATION_ROLE ( 'design_supplier' ) ;
#582 = PRODUCT_DEFINITION_SHAPE ( 'NONE', 'NONE',  #873 ) ;
#583 = DATE_AND_TIME ( #792, #25 ) ;
#584 = APPLIED_EXTERNAL_IDENTIFICATION_ASSIGNMENT ( '90380A323_Phillips Rounded Head Thread-Forming Screws.step.STEP' , #508, #726,( #852) ) ;
#585 = PERSON_AND_ORGANIZATION ( #18446744073709551615, #18446744073709551615 ) ;
#586 = SECURITY_CLASSIFICATION_LEVEL ( 'unclassified' ) ;
#587 = APPLICATION_CONTEXT ( 'configuration controlled 3d designs of mechanical parts and assemblies' ) ;
#588 = PRODUCT_DEFINITION_SHAPE ( 'NONE', 'NONE',  #871 ) ;
#589 = PERSON_AND_ORGANIZATION ( #18446744073709551615, #18446744073709551615 ) ;
#590 = CALENDAR_DATE ( 2026, 22, 6 ) ;
#591 = CC_DESIGN_PERSON_AND_ORGANIZATION_ASSIGNMENT ( #245, #111, ( #542 ) ) ;
#592 = COORDINATED_UNIVERSAL_TIME_OFFSET ( 10, 0, .AHEAD. ) ;
#593 = DOCUMENT_TYPE ( 'geometry' ) ;
#594 = PROPERTY_DEFINITION ('document property','', #703 ) ;
#595 = PERSON_AND_ORGANIZATION ( #18446744073709551615, #18446744073709551615 ) ;
#596 = CC_DESIGN_APPROVAL ( #240, ( #480 ) ) ;
#597 =( GEOMETRIC_REPRESENTATION_CONTEXT ( 3 ) GLOBAL_UNCERTAINTY_ASSIGNED_CONTEXT ( ( #812 ) ) GLOBAL_UNIT_ASSIGNED_CONTEXT ( ( #284, #280, #355 ) ) REPRESENTATION_CONTEXT ( 'NONE', 'WORKASPACE' ) );
#598 = CALENDAR_DATE ( 2026, 22, 6 ) ;
#599 = CC_DESIGN_DATE_AND_TIME_ASSIGNMENT ( #583, #178, ( #480 ) ) ;
#600 = COORDINATED_UNIVERSAL_TIME_OFFSET ( 10, 0, .AHEAD. ) ;
#601 = DATE_AND_TIME ( #200, #44 ) ;
#602 = DATE_AND_TIME ( #830, #276 ) ;
#603 = APPROVAL ( #780, 'Coincident' ) ;
#604 = DATE_TIME_ROLE ( 'creation_date' ) ;
#605 = CARTESIAN_POINT ( 'NONE',  ( -0.007500000000000004927, 0.003199999999999998852, -0.03869000000000000217 ) ) ;
#606 = PERSON_AND_ORGANIZATION ( #18446744073709551615, #18446744073709551615 ) ;
#607 = CC_DESIGN_DATE_AND_TIME_ASSIGNMENT ( #529, #233, ( #319 ) ) ;
#608 = APPLICATION_PROTOCOL_DEFINITION ( 'international standard', 'config_control_design', 1994, #313 ) ;
#609 = LOCAL_TIME ( 18, 50, 28.00000000000000000, #275 ) ;
#610 =( REPRESENTATION_RELATIONSHIP ('NONE','NONE', #574, #102 ) REPRESENTATION_RELATIONSHIP_WITH_TRANSFORMATION ( #499 )SHAPE_REPRESENTATION_RELATIONSHIP( ) );
#611 = ORGANIZATION ( 'NAUO-ORG436', 'UNSPECIFIED', 'UNSPECIFIED' ) ;
#612 = PRODUCT_DEFINITION_FORMATION_WITH_SPECIFIED_SOURCE ( 'Symmetric', '', #572, .NOT_KNOWN. ) ;
#613 = CC_DESIGN_APPROVAL ( #184, ( #701 ) ) ;
#614 = CALENDAR_DATE ( 2026, 22, 6 ) ;
#615 = CC_DESIGN_DATE_AND_TIME_ASSIGNMENT ( #837, #633, ( #266 ) ) ;
#616 = DIRECTION ( 'NONE',  ( -8.259373677663993603E-27, 1.000000000000000000, -1.000000067929029169E-15 ) ) ;
#617 = CC_DESIGN_DATE_AND_TIME_ASSIGNMENT ( #46, #39, ( #680 ) ) ;
#618 = APPROVAL_ROLE ( '' ) ;
#619 = COORDINATED_UNIVERSAL_TIME_OFFSET ( 10, 0, .AHEAD. ) ;
#620 = EXTERNAL_SOURCE (IDENTIFIER('') ) ;
#621 = DATE_AND_TIME ( #643, #124 ) ;
#622 = LOCAL_TIME ( 18, 50, 28.00000000000000000, #730 ) ;
#623 = LOCAL_TIME ( 18, 50, 28.00000000000000000, #172 ) ;
#624 = CALENDAR_DATE ( 2026, 22, 6 ) ;
#625 = PERSON_AND_ORGANIZATION ( #310, #777 ) ;
#626 = CALENDAR_DATE ( 2026, 22, 6 ) ;
#627 = IDENTIFICATION_ROLE ( 'external document id and location', $) ;
#628 = PRODUCT_DEFINITION_SHAPE ( 'NONE', 'NONE',  #810 ) ;
#629 = PERSON_AND_ORGANIZATION_ROLE ( 'classification_officer' ) ;
#630 = COORDINATED_UNIVERSAL_TIME_OFFSET ( 10, 0, .AHEAD. ) ;
#631 = APPROVAL ( #309, 'UNKNOWN' ) ;
#632 = DATE_AND_TIME ( #626, #517 ) ;
#633 = DATE_TIME_ROLE ( 'classification_date' ) ;
#634 = PERSON_AND_ORGANIZATION_ROLE ( 'design_supplier' ) ;
#635 = CALENDAR_DATE ( 2026, 22, 6 ) ;
#636 = LOCAL_TIME ( 18, 50, 28.00000000000000000, #510 ) ;
#637 = OBJECT_ROLE ('mandatory',$ ) ;
#638 = SECURITY_CLASSIFICATION ( '', '', #691 ) ;
#639 = ROLE_ASSOCIATION ( #241, #234 ) ;
#640 = APPROVAL_PERSON_ORGANIZATION ( #774, #516, #556 ) ;
#641 = DATE_AND_TIME ( #558, #456 ) ;
#642 = ORGANIZATION ( 'NAUO-ORG432', 'UNSPECIFIED', 'UNSPECIFIED' ) ;
#643 = CALENDAR_DATE ( 2026, 22, 6 ) ;
#644 = APPROVAL ( #831, 'Coincident' ) ;
#645 = COORDINATED_UNIVERSAL_TIME_OFFSET ( 10, 0, .AHEAD. ) ;
#646 = APPROVAL_ROLE ( '' ) ;
#647 = CC_DESIGN_PERSON_AND_ORGANIZATION_ASSIGNMENT ( #155, #489, ( #363 ) ) ;
#648 = CALENDAR_DATE ( 2026, 22, 6 ) ;
#649 = PRODUCT ( 'Component1.step', 'Component1.step', '', ( #148 ) ) ;
#650 = ROLE_ASSOCIATION ( #177, #819 ) ;
#651 = LOCAL_TIME ( 18, 50, 28.00000000000000000, #143 ) ;
#652 = CC_DESIGN_DATE_AND_TIME_ASSIGNMENT ( #679, #485, ( #530 ) ) ;
#653 = CALENDAR_DATE ( 2026, 22, 6 ) ;
#654 = CC_DESIGN_APPROVAL ( #74, ( #542 ) ) ;
#655 = LOCAL_TIME ( 18, 50, 28.00000000000000000, #857 ) ;
#656 = OBJECT_ROLE ('mandatory',$ ) ;
#657 = PRODUCT_DEFINITION_SHAPE ( 'NONE', 'NONE',  #875 ) ;
#658 = SECURITY_CLASSIFICATION_LEVEL ( 'unclassified' ) ;
#659 = ITEM_DEFINED_TRANSFORMATION ( 'NONE', 'NONE', #80,  #54 ) ;
#660 = CC_DESIGN_PERSON_AND_ORGANIZATION_ASSIGNMENT ( #526, #3, ( #701 ) ) ;
#661 = CALENDAR_DATE ( 2026, 22, 6 ) ;
#662 = COORDINATED_UNIVERSAL_TIME_OFFSET ( 10, 0, .AHEAD. ) ;
#663 = CC_DESIGN_PERSON_AND_ORGANIZATION_ASSIGNMENT ( #367, #840, ( #266 ) ) ;
#664 =( NAMED_UNIT ( * ) PLANE_ANGLE_UNIT ( ) SI_UNIT ( $, .RADIAN. ) );
#665 = APPROVAL_STATUS ( 'not_yet_approved' ) ;
#666 = MECHANICAL_CONTEXT ( 'NONE', #786, 'mechanical' ) ;
#667 = LOCAL_TIME ( 18, 50, 28.00000000000000000, #173 ) ;
#668 = APPLICATION_CONTEXT ( 'configuration controlled 3d designs of mechanical parts and assemblies' ) ;
#669 =( GEOMETRIC_REPRESENTATION_CONTEXT ( 3 ) GLOBAL_UNCERTAINTY_ASSIGNED_CONTEXT ( ( #509 ) ) GLOBAL_UNIT_ASSIGNED_CONTEXT ( ( #463, #385, #809 ) ) REPRESENTATION_CONTEXT ( 'NONE', 'WORKASPACE' ) );
#670 = AXIS2_PLACEMENT_3D ( 'NONE', #154, #223, #693 ) ;
#671 = APPLIED_DOCUMENT_REFERENCE ( #137,'',( #349) ) ;
#672 = DOCUMENT_FILE ( '91292A113_18-8 Stainless Steel Socket Head Screw.step.STEP' , '', '', #430, '' ,$ ) ;
#673 = DATE_AND_TIME ( #676, #81 ) ;
#674 = OBJECT_ROLE ('mandatory',$ ) ;
#675 = PERSON ( 'NAUO-PER432', 'UNSPECIFIED', 'UNSPECIFIED', ('UNSPECIFIED'), ('UNSPECIFIED'), ('UNSPECIFIED') ) ;
#676 = CALENDAR_DATE ( 2026, 22, 6 ) ;
#677 = CARTESIAN_POINT ( 'NONE',  ( -0.01140000000000000561, 0.04189999999999999281, 0.000000000000000000 ) ) ;
#678 = CC_DESIGN_PERSON_AND_ORGANIZATION_ASSIGNMENT ( #381, #722, ( #53 ) ) ;
#679 = DATE_AND_TIME ( #221, #235 ) ;
#680 = PRODUCT_DEFINITION ( 'General', '', #542, #846 ) ;
#681 = PERSON_AND_ORGANIZATION_ROLE ( 'design_owner' ) ;
#682 = PRODUCT_DEFINITION_FORMATION_WITH_SPECIFIED_SOURCE ( 'Symmetric', '', #770, .NOT_KNOWN. ) ;
#683 = APPROVAL_PERSON_ORGANIZATION ( #225, #364, #467 ) ;
#684 = COORDINATED_UNIVERSAL_TIME_OFFSET ( 10, 0, .AHEAD. ) ;
#685 = LOCAL_TIME ( 18, 50, 28.00000000000000000, #592 ) ;
#686 = LOCAL_TIME ( 18, 50, 28.00000000000000000, #742 ) ;
#687 = APPLICATION_PROTOCOL_DEFINITION ( 'international standard', 'config_control_design', 1994, #297 ) ;
#688 = APPROVAL_STATUS ( 'not_yet_approved' ) ;
#689 = CC_DESIGN_PERSON_AND_ORGANIZATION_ASSIGNMENT ( #625, #495, ( #150 ) ) ;
#690 = CONTEXT_DEPENDENT_SHAPE_REPRESENTATION ( #259, #796 ) ;
#691 = SECURITY_CLASSIFICATION_LEVEL ( 'unclassified' ) ;
#692 = DATE_TIME_ROLE ( 'classification_date' ) ;
#693 = DIRECTION ( 'NONE',  ( 1.000000000000000444, -8.259373677663993603E-27, -1.469163872402557893E-30 ) ) ;
#694 = PROPERTY_DEFINITION_REPRESENTATION ( #113, #102 ) ;
#695 = ITEM_DEFINED_TRANSFORMATION ( 'NONE', 'NONE', #167,  #427 ) ;
#696 = PERSON_AND_ORGANIZATION ( #18446744073709551615, #18446744073709551615 ) ;
#697 = COORDINATED_UNIVERSAL_TIME_OFFSET ( 10, 0, .AHEAD. ) ;
#698 = APPLIED_EXTERNAL_IDENTIFICATION_ASSIGNMENT ( '94459A130_Heat-Set Inserts for Plastic.step.STEP' , #84, #341,( #270) ) ;
#699 = LOCAL_TIME ( 18, 50, 28.00000000000000000, #161 ) ;
#700 = CC_DESIGN_PERSON_AND_ORGANIZATION_ASSIGNMENT ( #447, #740, ( #518 ) ) ;
#701 = SECURITY_CLASSIFICATION ( '', '', #724 ) ;
#702 = DATE_AND_TIME ( #89, #92 ) ;
#703 = DOCUMENT_FILE ( '94459A130_Heat-Set Inserts for Plastic.step.STEP' , '', '', #865, '' ,$ ) ;
#704 = CALENDAR_DATE ( 2026, 22, 6 ) ;
#705 = PROPERTY_DEFINITION ('document property','', #208 ) ;
#706 = OBJECT_ROLE ('mandatory',$ ) ;
#707 = CALENDAR_DATE ( 2026, 22, 6 ) ;
#708 = PROPERTY_DEFINITION_REPRESENTATION ( #331, #490 ) ;
#709 = PERSON_AND_ORGANIZATION ( #18446744073709551615, #18446744073709551615 ) ;
#710 = APPROVAL_STATUS ( 'not_yet_approved' ) ;
#711 = APPLIED_DOCUMENT_REFERENCE ( #561,'',( #349) ) ;
#712 = MECHANICAL_CONTEXT ( 'NONE', #411, 'mechanical' ) ;
#713 = CC_DESIGN_PERSON_AND_ORGANIZATION_ASSIGNMENT ( #261, #522, ( #152 ) ) ;
#714 = APPROVAL_PERSON_ORGANIZATION ( #445, #240, #856 ) ;
#715 = APPLIED_DOCUMENT_REFERENCE ( #741,'',( #152) ) ;
#716 = AXIS2_PLACEMENT_3D ( 'NONE', #79, #537, #218 ) ;
#717 = DATE_AND_TIME ( #236, #267 ) ;
#718 = DESIGN_CONTEXT ( 'detailed design', #271, 'design' ) ;
#719 = CC_DESIGN_PERSON_AND_ORGANIZATION_ASSIGNMENT ( #128, #535, ( #345 ) ) ;
#720 = EXTERNAL_SOURCE (IDENTIFIER('') ) ;
#721 = PRODUCT_DEFINITION_SHAPE ( 'NONE', 'NONE',  #866 ) ;
#722 = PERSON_AND_ORGANIZATION_ROLE ( 'classification_officer' ) ;
#723 = DATE_TIME_ROLE ( 'creation_date' ) ;
#724 = SECURITY_CLASSIFICATION_LEVEL ( 'unclassified' ) ;
#725 = CALENDAR_DATE ( 2026, 22, 6 ) ;
#726 = EXTERNAL_SOURCE (IDENTIFIER('') ) ;
#727 = PRODUCT_RELATED_PRODUCT_CATEGORY ( 'detail', '', ( #518 ) ) ;
#728 = PROPERTY_DEFINITION_REPRESENTATION ( #48, #336 ) ;
#729 = CALENDAR_DATE ( 2026, 22, 6 ) ;
#730 = COORDINATED_UNIVERSAL_TIME_OFFSET ( 10, 0, .AHEAD. ) ;
#731 = PROPERTY_DEFINITION ('document property','', #270 ) ;
#732 = LOCAL_TIME ( 18, 50, 28.00000000000000000, #45 ) ;
#733 = CC_DESIGN_APPROVAL ( #197, ( #345 ) ) ;
#734 = PERSON_AND_ORGANIZATION ( #18446744073709551615, #18446744073709551615 ) ;
#735 = APPROVAL_PERSON_ORGANIZATION ( #70, #644, #217 ) ;
#736 = LOCAL_TIME ( 18, 50, 28.00000000000000000, #841 ) ;
#737 = CARTESIAN_POINT ( 'NONE',  ( 0.000000000000000000, 0.000000000000000000, 0.000000000000000000 ) ) ;
#738 = APPROVAL_STATUS ( 'not_yet_approved' ) ;
#739 = APPLICATION_CONTEXT ( 'configuration controlled 3d designs of mechanical parts and assemblies' ) ;
#740 = PERSON_AND_ORGANIZATION_ROLE ( 'design_owner' ) ;
#741 = DOCUMENT_FILE ( '91292A113_18-8 Stainless Steel Socket Head Screw.step.STEP' , '', '', #593, '' ,$ ) ;
#742 = COORDINATED_UNIVERSAL_TIME_OFFSET ( 10, 0, .AHEAD. ) ;
#743 = APPROVAL_PERSON_ORGANIZATION ( #128, #197, #5 ) ;
#744 = DIRECTION ( 'NONE',  ( -0.8660254037844391517, -3.395736332412885009E-23, 0.5000000000000001110 ) ) ;
#745 =( GEOMETRIC_REPRESENTATION_CONTEXT ( 3 ) GLOBAL_UNCERTAINTY_ASSIGNED_CONTEXT ( ( #746 ) ) GLOBAL_UNIT_ASSIGNED_CONTEXT ( ( #256, #202, #136 ) ) REPRESENTATION_CONTEXT ( 'NONE', 'WORKASPACE' ) );
#746 = UNCERTAINTY_MEASURE_WITH_UNIT (LENGTH_MEASURE( 1.000000000000000082E-05 ), #256, 'distance_accuracy_value', 'NONE');
#747 = LOCAL_TIME ( 18, 50, 28.00000000000000000, #862 ) ;
#748 = PROPERTY_DEFINITION_REPRESENTATION ( #176, #336 ) ;
#749 = PERSON_AND_ORGANIZATION ( #18446744073709551615, #18446744073709551615 ) ;
#750 = DIRECTION ( 'NONE',  ( -8.259373677663993603E-27, 1.000000000000000000, -1.000000067929029169E-15 ) ) ;
#751 = CC_DESIGN_PERSON_AND_ORGANIZATION_ASSIGNMENT ( #337, #473, ( #770 ) ) ;
#752 = DATE_AND_TIME ( #614, #429 ) ;
#753 = OBJECT_ROLE ('mandatory',$ ) ;
#754 = APPLICATION_PROTOCOL_DEFINITION ( 'international standard', 'config_control_design', 1994, #149 ) ;
#755 = PERSON ( 'NAUO-PER431', 'UNSPECIFIED', 'UNSPECIFIED', ('UNSPECIFIED'), ('UNSPECIFIED'), ('UNSPECIFIED') ) ;
#756 = CC_DESIGN_PERSON_AND_ORGANIZATION_ASSIGNMENT ( #437, #844, ( #303 ) ) ;
#757 = SECURITY_CLASSIFICATION_LEVEL ( 'unclassified' ) ;
#758 = CARTESIAN_POINT ( 'NONE',  ( -0.03122021580642900945, 0.03524999999999998967, 0.01802500000000001323 ) ) ;
#759 = CC_DESIGN_PERSON_AND_ORGANIZATION_ASSIGNMENT ( #575, #423, ( #793 ) ) ;
#760 = APPLIED_EXTERNAL_IDENTIFICATION_ASSIGNMENT ( '91292A113_18-8 Stainless Steel Socket Head Screw.step.STEP' , #488, #442,( #672) ) ;
#761 = COORDINATED_UNIVERSAL_TIME_OFFSET ( 10, 0, .AHEAD. ) ;
#762 = CC_DESIGN_APPROVAL ( #281, ( #210 ) ) ;
#763 = COORDINATED_UNIVERSAL_TIME_OFFSET ( 10, 0, .AHEAD. ) ;
#764 = DIRECTION ( 'NONE',  ( 8.259373677663993603E-27, -1.000000000000000000, 6.792903027419116756E-23 ) ) ;
#765 = IDENTIFICATION_ROLE ( 'external document id and location', $) ;
#766 = APPLIED_DOCUMENT_REFERENCE ( #494,'',( #810) ) ;
#767 = APPROVAL_DATE_TIME ( #787, #816 ) ;
#768 = COORDINATED_UNIVERSAL_TIME_OFFSET ( 10, 0, .AHEAD. ) ;
#769 = APPROVAL ( #366, 'Coincident' ) ;
#770 = PRODUCT ( '94459A130_Heat-Set Inserts for Plastic.step', '94459A130_Heat-Set Inserts for Plastic.step', '', ( #666 ) ) ;
#771 = DOCUMENT_TYPE ( 'geometry' ) ;
#772 = APPROVAL_DATE_TIME ( #702, #369 ) ;
#773 = CALENDAR_DATE ( 2026, 22, 6 ) ;
#774 = PERSON_AND_ORGANIZATION ( #18446744073709551615, #18446744073709551615 ) ;
#775 = LOCAL_TIME ( 18, 50, 28.00000000000000000, #401 ) ;
#776 = APPROVAL_PERSON_ORGANIZATION ( #75, #130, #77 ) ;
#777 = ORGANIZATION ( 'NAUO-ORG429', 'UNSPECIFIED', 'UNSPECIFIED' ) ;
#778 = APPROVAL_STATUS ( 'not_yet_approved' ) ;
#779 = SECURITY_CLASSIFICATION_LEVEL ( 'unclassified' ) ;
#780 = APPROVAL_STATUS ( 'not_yet_approved' ) ;
#781 = APPROVAL ( #505, 'UNKNOWN' ) ;
#782 = APPROVAL ( #388, 'Coincident' ) ;
#783 = APPLIED_DOCUMENT_REFERENCE ( #208,'',( #295) ) ;
#784 = CALENDAR_DATE ( 2026, 22, 6 ) ;
#785 = CALENDAR_DATE ( 2026, 22, 6 ) ;
#786 = APPLICATION_CONTEXT ( 'configuration controlled 3d designs of mechanical parts and assemblies' ) ;
#787 = DATE_AND_TIME ( #784, #527 ) ;
#788 = PROPERTY_DEFINITION ('external definition','', #494 ) ;
#789 = CALENDAR_DATE ( 2026, 22, 6 ) ;
#790 = APPLIED_DOCUMENT_REFERENCE ( #500,'',( #810) ) ;
#791 = ORGANIZATION ( 'NAUO-ORG438', 'UNSPECIFIED', 'UNSPECIFIED' ) ;
#792 = CALENDAR_DATE ( 2026, 22, 6 ) ;
#793 = SECURITY_CLASSIFICATION ( '', '', #507 ) ;
#794 = MECHANICAL_CONTEXT ( 'NONE', #166, 'mechanical' ) ;
#795 = DIRECTION ( 'NONE',  ( 0.000000000000000000, 0.000000000000000000, 1.000000000000000000 ) ) ;
#796 = PRODUCT_DEFINITION_SHAPE ( 'NONE', 'NONE',  #868 ) ;
#797 = APPROVAL_ROLE ( '' ) ;
#798 =( LENGTH_UNIT ( ) NAMED_UNIT ( * ) SI_UNIT ( $, .METRE. ) );
#799 = CC_DESIGN_DATE_AND_TIME_ASSIGNMENT ( #164, #359, ( #303 ) ) ;
#800 = APPROVAL_DATE_TIME ( #318, #281 ) ;
#801 =( REPRESENTATION_RELATIONSHIP ('NONE','NONE', #574, #490 ) REPRESENTATION_RELATIONSHIP_WITH_TRANSFORMATION ( #375 )SHAPE_REPRESENTATION_RELATIONSHIP( ) );
#802 = PRODUCT_DEFINITION_SHAPE ( 'NONE', 'NONE',  #872 ) ;
#803 = CC_DESIGN_APPROVAL ( #257, ( #192 ) ) ;
#804 = ORGANIZATION ( 'NAUO-ORG437', 'UNSPECIFIED', 'UNSPECIFIED' ) ;
#805 = DATE_TIME_ROLE ( 'classification_date' ) ;
#806 = DATE_TIME_ROLE ( 'classification_date' ) ;
#807 = CC_DESIGN_APPROVAL ( #387, ( #152 ) ) ;
#808 = APPROVAL_PERSON_ORGANIZATION ( #159, #816, #418 ) ;
#809 =( NAMED_UNIT ( * ) SI_UNIT ( $, .STERADIAN. ) SOLID_ANGLE_UNIT ( ) );
#810 = PRODUCT_DEFINITION ( 'General', '', #192, #205 ) ;
#811 = PERSON_AND_ORGANIZATION ( #18446744073709551615, #18446744073709551615 ) ;
#812 = UNCERTAINTY_MEASURE_WITH_UNIT (LENGTH_MEASURE( 1.000000000000000082E-05 ), #284, 'distance_accuracy_value', 'NONE');
#813 = APPROVAL_DATE_TIME ( #470, #95 ) ;
#814 =( REPRESENTATION_RELATIONSHIP ('NONE','NONE', #574, #490 ) REPRESENTATION_RELATIONSHIP_WITH_TRANSFORMATION ( #87 )SHAPE_REPRESENTATION_RELATIONSHIP( ) );
#815 = PERSON_AND_ORGANIZATION ( #18446744073709551615, #18446744073709551615 ) ;
#816 = APPROVAL ( #434, 'UNKNOWN' ) ;
#817 = DIRECTION ( 'NONE',  ( -1.469163872402557893E-30, -6.792903027419116756E-23, 1.000000000000000444 ) ) ;
#818 = CONTEXT_DEPENDENT_SHAPE_REPRESENTATION ( #801, #189 ) ;
#819 = APPLIED_DOCUMENT_REFERENCE ( #672,'',( #152) ) ;
#820 = DATE_AND_TIME ( #145, #543 ) ;
#821 =( REPRESENTATION_RELATIONSHIP ('NONE','NONE', #574, #490 ) REPRESENTATION_RELATIONSHIP_WITH_TRANSFORMATION ( #23 )SHAPE_REPRESENTATION_RELATIONSHIP( ) );
#822 = APPROVAL_PERSON_ORGANIZATION ( #540, #497, #546 ) ;
#823 = CC_DESIGN_PERSON_AND_ORGANIZATION_ASSIGNMENT ( #815, #408, ( #530 ) ) ;
#824 = CALENDAR_DATE ( 2026, 22, 6 ) ;
#825 = DIRECTION ( 'NONE',  ( 1.000000000000000444, -8.259373677663993603E-27, 3.000000000000001101E-14 ) ) ;
#826 = APPROVAL_STATUS ( 'not_yet_approved' ) ;
#827 =( NAMED_UNIT ( * ) SI_UNIT ( $, .STERADIAN. ) SOLID_ANGLE_UNIT ( ) );
#828 = CC_DESIGN_DATE_AND_TIME_ASSIGNMENT ( #421, #22, ( #638 ) ) ;
#829 = DOCUMENT_TYPE ( 'geometry' ) ;
#830 = CALENDAR_DATE ( 2026, 22, 6 ) ;
#831 = APPROVAL_STATUS ( 'not_yet_approved' ) ;
#832 = APPROVAL_DATE_TIME ( #420, #364 ) ;
#833 = CARTESIAN_POINT ( 'NONE',  ( 1.084202172485504434E-19, 0.03524999999999998967, -0.03605000000000001259 ) ) ;
#834 = APPLIED_EXTERNAL_IDENTIFICATION_ASSIGNMENT ( '91292A113_18-8 Stainless Steel Socket Head Screw.step.STEP' , #329, #548,( #741) ) ;
#835 = PROPERTY_DEFINITION_REPRESENTATION ( #372, #102 ) ;
#836 = APPROVAL_PERSON_ORGANIZATION ( #416, #523, #98 ) ;
#837 = DATE_AND_TIME ( #707, #209 ) ;
#838 = DATE_AND_TIME ( #853, #736 ) ;
#839 = PERSON_AND_ORGANIZATION_ROLE ( 'creator' ) ;
#840 = PERSON_AND_ORGANIZATION_ROLE ( 'classification_officer' ) ;
#841 = COORDINATED_UNIVERSAL_TIME_OFFSET ( 10, 0, .AHEAD. ) ;
#842 = DATE_TIME_ROLE ( 'classification_date' ) ;
#843 = PRODUCT_DEFINITION_SHAPE ( 'NONE', 'NONE',  #152 ) ;
#844 = PERSON_AND_ORGANIZATION_ROLE ( 'classification_officer' ) ;
#845 = APPROVAL_DATE_TIME ( #106, #516 ) ;
#846 = DESIGN_CONTEXT ( 'detailed design', #668, 'design' ) ;
#847 = CC_DESIGN_APPROVAL ( #438, ( #303 ) ) ;
#848 = EXTERNAL_SOURCE (IDENTIFIER('') ) ;
#849 = CC_DESIGN_APPROVAL ( #364, ( #319 ) ) ;
#850 = CC_DESIGN_PERSON_AND_ORGANIZATION_ASSIGNMENT ( #180, #35, ( #572 ) ) ;
#851 = LOCAL_TIME ( 18, 50, 28.00000000000000000, #544 ) ;
#852 = DOCUMENT_FILE ( '90380A323_Phillips Rounded Head Thread-Forming Screws.step.STEP' , '', '', #771, '' ,$ ) ;
#853 = CALENDAR_DATE ( 2026, 22, 6 ) ;
#854 = PERSON_AND_ORGANIZATION ( #18446744073709551615, #18446744073709551615 ) ;
#855 = PRODUCT_DEFINITION_SHAPE ( 'NONE', 'NONE',  #867 ) ;
#856 = APPROVAL_ROLE ( '' ) ;
#857 = COORDINATED_UNIVERSAL_TIME_OFFSET ( 10, 0, .AHEAD. ) ;
#858 = PERSON_AND_ORGANIZATION ( #18446744073709551615, #18446744073709551615 ) ;
#859 = PROPERTY_DEFINITION ('document property','', #561 ) ;
#860 = PERSON_AND_ORGANIZATION ( #18446744073709551615, #18446744073709551615 ) ;
#861 = DOCUMENT_TYPE ( 'geometry' ) ;
#862 = COORDINATED_UNIVERSAL_TIME_OFFSET ( 10, 0, .AHEAD. ) ;
#863 = CC_DESIGN_SECURITY_CLASSIFICATION ( #253, ( #612 ) ) ;
#864 = CC_DESIGN_APPROVAL ( #325, ( #363 ) ) ;
#865 = DOCUMENT_TYPE ( 'geometry' ) ;
#866 = NEXT_ASSEMBLY_USAGE_OCCURRENCE ( 'NAUO429', ' ', ' ', #680, #349, $ ) ;
#867 = NEXT_ASSEMBLY_USAGE_OCCURRENCE ( 'NAUO430', ' ', ' ', #680, #349, $ ) ;
#868 = NEXT_ASSEMBLY_USAGE_OCCURRENCE ( 'NAUO431', ' ', ' ', #680, #810, $ ) ;
#869 = NEXT_ASSEMBLY_USAGE_OCCURRENCE ( 'NAUO432', ' ', ' ', #680, #349, $ ) ;
#870 = NEXT_ASSEMBLY_USAGE_OCCURRENCE ( 'NAUO433', ' ', ' ', #680, #152, $ ) ;
#871 = NEXT_ASSEMBLY_USAGE_OCCURRENCE ( 'NAUO434', ' ', ' ', #680, #295, $ ) ;
#872 = NEXT_ASSEMBLY_USAGE_OCCURRENCE ( 'NAUO435', ' ', ' ', #680, #810, $ ) ;
#873 = NEXT_ASSEMBLY_USAGE_OCCURRENCE ( 'NAUO436', ' ', ' ', #680, #810, $ ) ;
#874 = NEXT_ASSEMBLY_USAGE_OCCURRENCE ( 'NAUO437', ' ', ' ', #680, #349, $ ) ;
#875 = NEXT_ASSEMBLY_USAGE_OCCURRENCE ( 'NAUO438', ' ', ' ', #680, #152, $ ) ;
ENDSEC;
END-ISO-10303-21;
