ISO-10303-21;
HEADER;
FILE_DESCRIPTION (( 'STEP AP203' ),
    '1' );
FILE_NAME ('D1.step.STEP',
    '2026-06-22T08:49:55',
    ( 'localuser' ),
    ( '' ),
    'SwSTEP 2.0',
    'SolidWorks 2025',
    '' );
FILE_SCHEMA (( 'CONFIG_CONTROL_DESIGN' ));
ENDSEC;

DATA;
#1 = COORDINATED_UNIVERSAL_TIME_OFFSET ( 10, 0, .AHEAD. ) ;
#2 = CC_DESIGN_DATE_AND_TIME_ASSIGNMENT ( #379, #15, ( #103 ) ) ;
#3 = APPROVAL_ROLE ( '' ) ;
#4 = DATE_AND_TIME ( #280, #22 ) ;
#5 = CC_DESIGN_APPROVAL ( #241, ( #242 ) ) ;
#6 = APPROVAL_DATE_TIME ( #342, #212 ) ;
#7 = APPROVAL_DATE_TIME ( #245, #266 ) ;
#8 = PERSON_AND_ORGANIZATION_ROLE ( 'design_owner' ) ;
#9 = CC_DESIGN_DATE_AND_TIME_ASSIGNMENT ( #152, #216, ( #262 ) ) ;
#10 =( NAMED_UNIT ( * ) SI_UNIT ( $, .STERADIAN. ) SOLID_ANGLE_UNIT ( ) );
#11 = SECURITY_CLASSIFICATION ( '', '', #310 ) ;
#12 = ORGANIZATION ( 'NAUO-ORG112', 'UNSPECIFIED', 'UNSPECIFIED' ) ;
#13 = COORDINATED_UNIVERSAL_TIME_OFFSET ( 10, 0, .AHEAD. ) ;
#14 = DATE_TIME_ROLE ( 'classification_date' ) ;
#15 = DATE_TIME_ROLE ( 'creation_date' ) ;
#16 = LOCAL_TIME ( 18, 49, 55.00000000000000000, #235 ) ;
#17 = PERSON_AND_ORGANIZATION ( #18446744073709551615, #18446744073709551615 ) ;
#18 = EXTERNAL_SOURCE (IDENTIFIER('') ) ;
#19 = DATE_AND_TIME ( #197, #193 ) ;
#20 = PERSON_AND_ORGANIZATION ( #18446744073709551615, #18446744073709551615 ) ;
#21 = APPROVAL_DATE_TIME ( #119, #241 ) ;
#22 = LOCAL_TIME ( 18, 49, 55.00000000000000000, #95 ) ;
#23 = DIRECTION ( 'NONE',  ( 4.890937612370273194E-29, -3.155443620884047222E-30, 0.9999999999999997780 ) ) ;
#24 = CALENDAR_DATE ( 2026, 22, 6 ) ;
#25 = CC_DESIGN_DATE_AND_TIME_ASSIGNMENT ( #273, #178, ( #172 ) ) ;
#26 = COORDINATED_UNIVERSAL_TIME_OFFSET ( 10, 0, .AHEAD. ) ;
#27 = APPROVAL_PERSON_ORGANIZATION ( #133, #68, #34 ) ;
#28 = LOCAL_TIME ( 18, 49, 55.00000000000000000, #151 ) ;
#29 = SECURITY_CLASSIFICATION ( '', '', #261 ) ;
#30 = CC_DESIGN_PERSON_AND_ORGANIZATION_ASSIGNMENT ( #290, #378, ( #382 ) ) ;
#31 = CONTEXT_DEPENDENT_SHAPE_REPRESENTATION ( #199, #314 ) ;
#32 = UNCERTAINTY_MEASURE_WITH_UNIT (LENGTH_MEASURE( 1.000000000000000082E-05 ), #177, 'distance_accuracy_value', 'NONE');
#33 = CC_DESIGN_PERSON_AND_ORGANIZATION_ASSIGNMENT ( #358, #146, ( #242 ) ) ;
#34 = APPROVAL_ROLE ( '' ) ;
#35 = COORDINATED_UNIVERSAL_TIME_OFFSET ( 10, 0, .AHEAD. ) ;
#36 = COORDINATED_UNIVERSAL_TIME_OFFSET ( 10, 0, .AHEAD. ) ;
#37 = LOCAL_TIME ( 18, 49, 55.00000000000000000, #26 ) ;
#38 = DATE_TIME_ROLE ( 'classification_date' ) ;
#39 = SHAPE_REPRESENTATION ( 'D1.step', ( #387, #324, #192, #88 ), #337 ) ;
#40 = IDENTIFICATION_ROLE ( 'external document id and location', $) ;
#41 = PERSON_AND_ORGANIZATION_ROLE ( 'creator' ) ;
#42 = APPROVAL_STATUS ( 'not_yet_approved' ) ;
#43 = APPROVAL_PERSON_ORGANIZATION ( #204, #99, #3 ) ;
#44 = APPROVAL_STATUS ( 'not_yet_approved' ) ;
#45 = APPROVAL_DATE_TIME ( #128, #68 ) ;
#46 = PROPERTY_DEFINITION ('external definition','', #321 ) ;
#47 = SECURITY_CLASSIFICATION_LEVEL ( 'unclassified' ) ;
#48 = PRODUCT_DEFINITION_SHAPE ( 'NONE', 'NONE',  #262 ) ;
#49 = APPROVAL_PERSON_ORGANIZATION ( #376, #373, #354 ) ;
#50 = APPROVAL_DATE_TIME ( #315, #206 ) ;
#51 = SHAPE_REPRESENTATION ( '6325040192.step', ( #107 ), #114 ) ;
#52 = CALENDAR_DATE ( 2026, 22, 6 ) ;
#53 = APPLIED_DOCUMENT_REFERENCE ( #321,'',( #332) ) ;
#54 = APPROVAL_ROLE ( '' ) ;
#55 = CC_DESIGN_SECURITY_CLASSIFICATION ( #90, ( #389 ) ) ;
#56 = DATE_AND_TIME ( #292, #268 ) ;
#57 =( NAMED_UNIT ( * ) PLANE_ANGLE_UNIT ( ) SI_UNIT ( $, .RADIAN. ) );
#58 = EXTERNAL_SOURCE (IDENTIFIER('') ) ;
#59 = ITEM_DEFINED_TRANSFORMATION ( 'NONE', 'NONE', #192,  #107 ) ;
#60 = APPROVAL ( #244, 'Coincident' ) ;
#61 = PERSON_AND_ORGANIZATION ( #185, #12 ) ;
#62 = DIRECTION ( 'NONE',  ( 0.000000000000000000, 0.000000000000000000, 1.000000000000000000 ) ) ;
#63 = CALENDAR_DATE ( 2026, 22, 6 ) ;
#64 = DATE_AND_TIME ( #336, #171 ) ;
#65 = CC_DESIGN_DATE_AND_TIME_ASSIGNMENT ( #274, #232, ( #90 ) ) ;
#66 = LOCAL_TIME ( 18, 49, 55.00000000000000000, #105 ) ;
#67 = PERSON_AND_ORGANIZATION ( #18446744073709551615, #18446744073709551615 ) ;
#68 = APPROVAL ( #281, 'Coincident' ) ;
#69 = PERSON_AND_ORGANIZATION ( #18446744073709551615, #18446744073709551615 ) ;
#70 = CC_DESIGN_SECURITY_CLASSIFICATION ( #242, ( #388 ) ) ;
#71 = DATE_AND_TIME ( #102, #180 ) ;
#72 = APPROVAL_STATUS ( 'not_yet_approved' ) ;
#73 = SHAPE_REPRESENTATION ( '11552553264.step', ( #165 ), #123 ) ;
#74 = CALENDAR_DATE ( 2026, 22, 6 ) ;
#75 = EXTERNAL_SOURCE (IDENTIFIER('') ) ;
#76 = PRODUCT_DEFINITION_FORMATION_WITH_SPECIFIED_SOURCE ( 'Symmetric', '', #104, .NOT_KNOWN. ) ;
#77 = CC_DESIGN_APPROVAL ( #137, ( #90 ) ) ;
#78 = CALENDAR_DATE ( 2026, 22, 6 ) ;
#79 = APPROVAL_STATUS ( 'not_yet_approved' ) ;
#80 = CC_DESIGN_PERSON_AND_ORGANIZATION_ASSIGNMENT ( #316, #140, ( #196 ) ) ;
#81 = LOCAL_TIME ( 18, 49, 55.00000000000000000, #13 ) ;
#82 = CALENDAR_DATE ( 2026, 22, 6 ) ;
#83 = APPLIED_EXTERNAL_IDENTIFICATION_ASSIGNMENT ( '6325040192.step.STEP' , #360, #18,( #368) ) ;
#84 = CARTESIAN_POINT ( 'NONE',  ( 0.000000000000000000, 0.000000000000000000, 0.000000000000000000 ) ) ;
#85 = CONTEXT_DEPENDENT_SHAPE_REPRESENTATION ( #238, #164 ) ;
#86 = ITEM_DEFINED_TRANSFORMATION ( 'NONE', 'NONE', #324,  #107 ) ;
#87 =( LENGTH_UNIT ( ) NAMED_UNIT ( * ) SI_UNIT ( .MILLI., .METRE. ) );
#88 = AXIS2_PLACEMENT_3D ( 'NONE', #323, #174, #272 ) ;
#89 = MECHANICAL_CONTEXT ( 'NONE', #139, 'mechanical' ) ;
#90 = SECURITY_CLASSIFICATION ( '', '', #173 ) ;
#91 = DESIGN_CONTEXT ( 'detailed design', #96, 'design' ) ;
#92 = CALENDAR_DATE ( 2026, 22, 6 ) ;
#93 = CC_DESIGN_PERSON_AND_ORGANIZATION_ASSIGNMENT ( #17, #313, ( #158 ) ) ;
#94 = PERSON_AND_ORGANIZATION_ROLE ( 'design_supplier' ) ;
#95 = COORDINATED_UNIVERSAL_TIME_OFFSET ( 10, 0, .AHEAD. ) ;
#96 = APPLICATION_CONTEXT ( 'configuration controlled 3d designs of mechanical parts and assemblies' ) ;
#97 = CC_DESIGN_PERSON_AND_ORGANIZATION_ASSIGNMENT ( #319, #191, ( #103 ) ) ;
#98 = APPROVAL_STATUS ( 'not_yet_approved' ) ;
#99 = APPROVAL ( #359, 'Coincident' ) ;
#100 = PERSON_AND_ORGANIZATION ( #18446744073709551615, #18446744073709551615 ) ;
#101 = APPROVAL_PERSON_ORGANIZATION ( #269, #137, #240 ) ;
#102 = CALENDAR_DATE ( 2026, 22, 6 ) ;
#103 = PRODUCT_DEFINITION ( 'General', '', #382, #334 ) ;
#104 = PRODUCT ( 'D1.step', 'D1.step', '', ( #89 ) ) ;
#105 = COORDINATED_UNIVERSAL_TIME_OFFSET ( 10, 0, .AHEAD. ) ;
#106 = PERSON_AND_ORGANIZATION ( #18446744073709551615, #18446744073709551615 ) ;
#107 = AXIS2_PLACEMENT_3D ( 'NONE', #302, #182, #329 ) ;
#108 = CC_DESIGN_SECURITY_CLASSIFICATION ( #172, ( #158 ) ) ;
#109 = APPROVAL_ROLE ( '' ) ;
#110 = PRODUCT_RELATED_PRODUCT_CATEGORY ( 'detail', '', ( #257 ) ) ;
#111 = ITEM_DEFINED_TRANSFORMATION ( 'NONE', 'NONE', #88,  #165 ) ;
#112 = APPROVAL_STATUS ( 'not_yet_approved' ) ;
#113 =( NAMED_UNIT ( * ) PLANE_ANGLE_UNIT ( ) SI_UNIT ( $, .RADIAN. ) );
#114 =( GEOMETRIC_REPRESENTATION_CONTEXT ( 3 ) GLOBAL_UNCERTAINTY_ASSIGNED_CONTEXT ( ( #32 ) ) GLOBAL_UNIT_ASSIGNED_CONTEXT ( ( #177, #113, #179 ) ) REPRESENTATION_CONTEXT ( 'NONE', 'WORKASPACE' ) );
#115 = SECURITY_CLASSIFICATION_LEVEL ( 'unclassified' ) ;
#116 = SECURITY_CLASSIFICATION ( '', '', #144 ) ;
#117 = APPLICATION_CONTEXT ( 'configuration controlled 3d designs of mechanical parts and assemblies' ) ;
#118 = PRODUCT_RELATED_PRODUCT_CATEGORY ( 'detail', '', ( #104 ) ) ;
#119 = DATE_AND_TIME ( #210, #294 ) ;
#120 = DIRECTION ( 'NONE',  ( 0.000000000000000000, 0.000000000000000000, 1.000000000000000000 ) ) ;
#121 = COORDINATED_UNIVERSAL_TIME_OFFSET ( 10, 0, .AHEAD. ) ;
#122 = CARTESIAN_POINT ( 'NONE',  ( 0.000000000000000000, 0.000000000000000000, 0.000000000000000000 ) ) ;
#123 =( GEOMETRIC_REPRESENTATION_CONTEXT ( 3 ) GLOBAL_UNCERTAINTY_ASSIGNED_CONTEXT ( ( #243 ) ) GLOBAL_UNIT_ASSIGNED_CONTEXT ( ( #87, #57, #211 ) ) REPRESENTATION_CONTEXT ( 'NONE', 'WORKASPACE' ) );
#124 = MECHANICAL_CONTEXT ( 'NONE', #318, 'mechanical' ) ;
#125 = CC_DESIGN_PERSON_AND_ORGANIZATION_ASSIGNMENT ( #20, #142, ( #332 ) ) ;
#126 = LOCAL_TIME ( 18, 49, 55.00000000000000000, #271 ) ;
#127 = APPROVAL_ROLE ( '' ) ;
#128 = DATE_AND_TIME ( #275, #28 ) ;
#129 = DIRECTION ( 'NONE',  ( 1.000000000000000000, 0.000000000000000000, 0.000000000000000000 ) ) ;
#130 = APPROVAL_PERSON_ORGANIZATION ( #341, #60, #304 ) ;
#131 =( REPRESENTATION_RELATIONSHIP ('NONE','NONE', #39, #73 ) REPRESENTATION_RELATIONSHIP_WITH_TRANSFORMATION ( #111 )SHAPE_REPRESENTATION_RELATIONSHIP( ) );
#132 = CC_DESIGN_PERSON_AND_ORGANIZATION_ASSIGNMENT ( #233, #8, ( #104 ) ) ;
#133 = PERSON_AND_ORGANIZATION ( #18446744073709551615, #18446744073709551615 ) ;
#134 = DATE_AND_TIME ( #312, #369 ) ;
#135 = COORDINATED_UNIVERSAL_TIME_OFFSET ( 10, 0, .AHEAD. ) ;
#136 = CC_DESIGN_SECURITY_CLASSIFICATION ( #116, ( #390 ) ) ;
#137 = APPROVAL ( #298, 'UNKNOWN' ) ;
#138 = CALENDAR_DATE ( 2026, 22, 6 ) ;
#139 = APPLICATION_CONTEXT ( 'configuration controlled 3d designs of mechanical parts and assemblies' ) ;
#140 = PERSON_AND_ORGANIZATION_ROLE ( 'design_owner' ) ;
#141 = CC_DESIGN_PERSON_AND_ORGANIZATION_ASSIGNMENT ( #67, #94, ( #76 ) ) ;
#142 = PERSON_AND_ORGANIZATION_ROLE ( 'creator' ) ;
#143 = DATE_AND_TIME ( #24, #126 ) ;
#144 = SECURITY_CLASSIFICATION_LEVEL ( 'unclassified' ) ;
#145 = DIRECTION ( 'NONE',  ( 1.000000000000000000, 0.000000000000000000, 0.000000000000000000 ) ) ;
#146 = PERSON_AND_ORGANIZATION_ROLE ( 'classification_officer' ) ;
#147 = PROPERTY_DEFINITION_REPRESENTATION ( #364, #51 ) ;
#148 = LOCAL_TIME ( 18, 49, 55.00000000000000000, #309 ) ;
#149 = COORDINATED_UNIVERSAL_TIME_OFFSET ( 10, 0, .AHEAD. ) ;
#150 = CC_DESIGN_PERSON_AND_ORGANIZATION_ASSIGNMENT ( #372, #223, ( #29 ) ) ;
#151 = COORDINATED_UNIVERSAL_TIME_OFFSET ( 10, 0, .AHEAD. ) ;
#152 = DATE_AND_TIME ( #246, #81 ) ;
#153 = APPLIED_EXTERNAL_IDENTIFICATION_ASSIGNMENT ( '6325040192.step.STEP' , #220, #58,( #321) ) ;
#154 = CC_DESIGN_PERSON_AND_ORGANIZATION_ASSIGNMENT ( #269, #203, ( #90 ) ) ;
#155 = APPLICATION_CONTEXT ( 'configuration controlled 3d designs of mechanical parts and assemblies' ) ;
#156 = APPROVAL_DATE_TIME ( #4, #176 ) ;
#157 = APPROVAL_ROLE ( '' ) ;
#158 = PRODUCT_DEFINITION_FORMATION_WITH_SPECIFIED_SOURCE ( 'Symmetric', '', #196, .NOT_KNOWN. ) ;
#159 = APPROVAL_ROLE ( '' ) ;
#160 = CC_DESIGN_PERSON_AND_ORGANIZATION_ASSIGNMENT ( #350, #322, ( #172 ) ) ;
#161 = COORDINATED_UNIVERSAL_TIME_OFFSET ( 10, 0, .AHEAD. ) ;
#162 = PROPERTY_DEFINITION ('external definition','', #295 ) ;
#163 = PERSON_AND_ORGANIZATION ( #18446744073709551615, #18446744073709551615 ) ;
#164 = PRODUCT_DEFINITION_SHAPE ( 'NONE', 'NONE',  #388 ) ;
#165 = AXIS2_PLACEMENT_3D ( 'NONE', #84, #120, #145 ) ;
#166 = APPLIED_EXTERNAL_IDENTIFICATION_ASSIGNMENT ( '11552553264.step.STEP' , #40, #75,( #295) ) ;
#167 = PERSON_AND_ORGANIZATION ( #18446744073709551615, #18446744073709551615 ) ;
#168 = DESIGN_CONTEXT ( 'detailed design', #155, 'design' ) ;
#169 = SHAPE_DEFINITION_REPRESENTATION ( #348, #73 ) ;
#170 = CC_DESIGN_DATE_AND_TIME_ASSIGNMENT ( #56, #208, ( #242 ) ) ;
#171 = LOCAL_TIME ( 18, 49, 55.00000000000000000, #339 ) ;
#172 = SECURITY_CLASSIFICATION ( '', '', #47 ) ;
#173 = SECURITY_CLASSIFICATION_LEVEL ( 'unclassified' ) ;
#174 = DIRECTION ( 'NONE',  ( 4.890937612370273194E-29, -3.155443620884047222E-30, 0.9999999999999997780 ) ) ;
#175 = APPROVAL_DATE_TIME ( #326, #137 ) ;
#176 = APPROVAL ( #42, 'Coincident' ) ;
#177 =( LENGTH_UNIT ( ) NAMED_UNIT ( * ) SI_UNIT ( .MILLI., .METRE. ) );
#178 = DATE_TIME_ROLE ( 'classification_date' ) ;
#179 =( NAMED_UNIT ( * ) SI_UNIT ( $, .STERADIAN. ) SOLID_ANGLE_UNIT ( ) );
#180 = LOCAL_TIME ( 18, 49, 55.00000000000000000, #135 ) ;
#181 = CALENDAR_DATE ( 2026, 22, 6 ) ;
#182 = DIRECTION ( 'NONE',  ( 0.000000000000000000, 0.000000000000000000, 1.000000000000000000 ) ) ;
#183 = DATE_TIME_ROLE ( 'classification_date' ) ;
#184 = PERSON_AND_ORGANIZATION_ROLE ( 'creator' ) ;
#185 = PERSON ( 'NAUO-PER112', 'UNSPECIFIED', 'UNSPECIFIED', ('UNSPECIFIED'), ('UNSPECIFIED'), ('UNSPECIFIED') ) ;
#186 = PERSON_AND_ORGANIZATION_ROLE ( 'classification_officer' ) ;
#187 = LOCAL_TIME ( 18, 49, 55.00000000000000000, #121 ) ;
#188 = DATE_AND_TIME ( #82, #16 ) ;
#189 =( NAMED_UNIT ( * ) PLANE_ANGLE_UNIT ( ) SI_UNIT ( $, .RADIAN. ) );
#190 = CC_DESIGN_DATE_AND_TIME_ASSIGNMENT ( #249, #38, ( #11 ) ) ;
#191 = PERSON_AND_ORGANIZATION_ROLE ( 'creator' ) ;
#192 = AXIS2_PLACEMENT_3D ( 'NONE', #356, #297, #205 ) ;
#193 = LOCAL_TIME ( 18, 49, 55.00000000000000000, #263 ) ;
#194 = APPROVAL ( #72, 'Coincident' ) ;
#195 = APPROVAL_STATUS ( 'not_yet_approved' ) ;
#196 = PRODUCT ( '6325040192.step', '6325040192.step', '', ( #265 ) ) ;
#197 = CALENDAR_DATE ( 2026, 22, 6 ) ;
#198 = APPLICATION_PROTOCOL_DEFINITION ( 'international standard', 'config_control_design', 1994, #340 ) ;
#199 =( REPRESENTATION_RELATIONSHIP ('NONE','NONE', #39, #51 ) REPRESENTATION_RELATIONSHIP_WITH_TRANSFORMATION ( #59 )SHAPE_REPRESENTATION_RELATIONSHIP( ) );
#200 = CC_DESIGN_APPROVAL ( #176, ( #11 ) ) ;
#201 = CC_DESIGN_SECURITY_CLASSIFICATION ( #11, ( #76 ) ) ;
#202 = APPROVAL_STATUS ( 'not_yet_approved' ) ;
#203 = PERSON_AND_ORGANIZATION_ROLE ( 'classification_officer' ) ;
#204 = PERSON_AND_ORGANIZATION ( #18446744073709551615, #18446744073709551615 ) ;
#205 = DIRECTION ( 'NONE',  ( 1.000000000000000222, -1.092455418989176591E-28, 4.890937612370273194E-29 ) ) ;
#206 = APPROVAL ( #44, 'Coincident' ) ;
#207 = APPROVAL_PERSON_ORGANIZATION ( #100, #206, #159 ) ;
#208 = DATE_TIME_ROLE ( 'classification_date' ) ;
#209 = ROLE_ASSOCIATION ( #264, #330 ) ;
#210 = CALENDAR_DATE ( 2026, 22, 6 ) ;
#211 =( NAMED_UNIT ( * ) SI_UNIT ( $, .STERADIAN. ) SOLID_ANGLE_UNIT ( ) );
#212 = APPROVAL ( #98, 'Coincident' ) ;
#213 = LOCAL_TIME ( 18, 49, 55.00000000000000000, #270 ) ;
#214 = PROPERTY_DEFINITION_REPRESENTATION ( #162, #73 ) ;
#215 = CARTESIAN_POINT ( 'NONE',  ( 9.950001769990002742, 4.952595031738004749, 0.000000000000000000 ) ) ;
#216 = DATE_TIME_ROLE ( 'creation_date' ) ;
#217 = PERSON_AND_ORGANIZATION ( #18446744073709551615, #18446744073709551615 ) ;
#218 = APPROVAL_PERSON_ORGANIZATION ( #370, #212, #222 ) ;
#219 = APPLICATION_PROTOCOL_DEFINITION ( 'international standard', 'config_control_design', 1994, #117 ) ;
#220 = IDENTIFICATION_ROLE ( 'external document id and location', $) ;
#221 = CALENDAR_DATE ( 2026, 22, 6 ) ;
#222 = APPROVAL_ROLE ( '' ) ;
#223 = PERSON_AND_ORGANIZATION_ROLE ( 'classification_officer' ) ;
#224 = APPROVAL_PERSON_ORGANIZATION ( #254, #176, #157 ) ;
#225 = PRODUCT_DEFINITION_SHAPE ( 'NONE', 'NONE',  #390 ) ;
#226 = PERSON_AND_ORGANIZATION ( #18446744073709551615, #18446744073709551615 ) ;
#227 = PRODUCT_DEFINITION_SHAPE ( 'NONE', 'NONE',  #332 ) ;
#228 = DATE_TIME_ROLE ( 'creation_date' ) ;
#229 = COORDINATED_UNIVERSAL_TIME_OFFSET ( 10, 0, .AHEAD. ) ;
#230 = APPROVAL_PERSON_ORGANIZATION ( #61, #266, #127 ) ;
#231 = APPROVAL_DATE_TIME ( #291, #194 ) ;
#232 = DATE_TIME_ROLE ( 'classification_date' ) ;
#233 = PERSON_AND_ORGANIZATION ( #18446744073709551615, #18446744073709551615 ) ;
#234 = CC_DESIGN_PERSON_AND_ORGANIZATION_ASSIGNMENT ( #226, #347, ( #158 ) ) ;
#235 = COORDINATED_UNIVERSAL_TIME_OFFSET ( 10, 0, .AHEAD. ) ;
#236 = LOCAL_TIME ( 18, 49, 55.00000000000000000, #35 ) ;
#237 = ROLE_ASSOCIATION ( #299, #53 ) ;
#238 =( REPRESENTATION_RELATIONSHIP ('NONE','NONE', #39, #51 ) REPRESENTATION_RELATIONSHIP_WITH_TRANSFORMATION ( #86 )SHAPE_REPRESENTATION_RELATIONSHIP( ) );
#239 = CALENDAR_DATE ( 2026, 22, 6 ) ;
#240 = APPROVAL_ROLE ( '' ) ;
#241 = APPROVAL ( #79, 'UNKNOWN' ) ;
#242 = SECURITY_CLASSIFICATION ( '', '', #115 ) ;
#243 = UNCERTAINTY_MEASURE_WITH_UNIT (LENGTH_MEASURE( 1.000000000000000082E-05 ), #87, 'distance_accuracy_value', 'NONE');
#244 = APPROVAL_STATUS ( 'not_yet_approved' ) ;
#245 = DATE_AND_TIME ( #63, #236 ) ;
#246 = CALENDAR_DATE ( 2026, 22, 6 ) ;
#247 = PROPERTY_DEFINITION ('external definition','', #368 ) ;
#248 = CONTEXT_DEPENDENT_SHAPE_REPRESENTATION ( #131, #225 ) ;
#249 = DATE_AND_TIME ( #92, #148 ) ;
#250 = APPLIED_DOCUMENT_REFERENCE ( #295,'',( #103) ) ;
#251 = LOCAL_TIME ( 18, 49, 55.00000000000000000, #36 ) ;
#252 = APPROVAL_PERSON_ORGANIZATION ( #358, #241, #54 ) ;
#253 = CC_DESIGN_PERSON_AND_ORGANIZATION_ASSIGNMENT ( #363, #186, ( #11 ) ) ;
#254 = PERSON_AND_ORGANIZATION ( #18446744073709551615, #18446744073709551615 ) ;
#255 = APPROVAL_DATE_TIME ( #134, #373 ) ;
#256 = CC_DESIGN_DATE_AND_TIME_ASSIGNMENT ( #188, #183, ( #116 ) ) ;
#257 = PRODUCT ( '11552553264.step', '11552553264.step', '', ( #124 ) ) ;
#258 = APPROVAL_DATE_TIME ( #19, #320 ) ;
#259 = APPROVAL_PERSON_ORGANIZATION ( #167, #320, #109 ) ;
#260 = PROPERTY_DEFINITION ('document property','', #321 ) ;
#261 = SECURITY_CLASSIFICATION_LEVEL ( 'unclassified' ) ;
#262 = PRODUCT_DEFINITION ( 'General', '', #76, #91 ) ;
#263 = COORDINATED_UNIVERSAL_TIME_OFFSET ( 10, 0, .AHEAD. ) ;
#264 = OBJECT_ROLE ('mandatory',$ ) ;
#265 = MECHANICAL_CONTEXT ( 'NONE', #340, 'mechanical' ) ;
#266 = APPROVAL ( #112, 'UNKNOWN' ) ;
#267 =( LENGTH_UNIT ( ) NAMED_UNIT ( * ) SI_UNIT ( .MILLI., .METRE. ) );
#268 = LOCAL_TIME ( 18, 49, 55.00000000000000000, #1 ) ;
#269 = PERSON_AND_ORGANIZATION ( #346, #277 ) ;
#270 = COORDINATED_UNIVERSAL_TIME_OFFSET ( 10, 0, .AHEAD. ) ;
#271 = COORDINATED_UNIVERSAL_TIME_OFFSET ( 10, 0, .AHEAD. ) ;
#272 = DIRECTION ( 'NONE',  ( 1.000000000000000222, -1.092455418989176591E-28, 4.890937612370273194E-29 ) ) ;
#273 = DATE_AND_TIME ( #239, #213 ) ;
#274 = DATE_AND_TIME ( #181, #37 ) ;
#275 = CALENDAR_DATE ( 2026, 22, 6 ) ;
#276 = CC_DESIGN_APPROVAL ( #212, ( #262 ) ) ;
#277 = ORGANIZATION ( 'NAUO-ORG111', 'UNSPECIFIED', 'UNSPECIFIED' ) ;
#278 = APPLICATION_PROTOCOL_DEFINITION ( 'international standard', 'config_control_design', 1994, #96 ) ;
#279 = CC_DESIGN_PERSON_AND_ORGANIZATION_ASSIGNMENT ( #69, #41, ( #76 ) ) ;
#280 = CALENDAR_DATE ( 2026, 22, 6 ) ;
#281 = APPROVAL_STATUS ( 'not_yet_approved' ) ;
#282 = DOCUMENT_TYPE ( 'geometry' ) ;
#283 = CC_DESIGN_DATE_AND_TIME_ASSIGNMENT ( #345, #14, ( #29 ) ) ;
#284 = CC_DESIGN_APPROVAL ( #99, ( #172 ) ) ;
#285 = PERSON_AND_ORGANIZATION ( #18446744073709551615, #18446744073709551615 ) ;
#286 = PERSON_AND_ORGANIZATION_ROLE ( 'design_supplier' ) ;
#287 = COORDINATED_UNIVERSAL_TIME_OFFSET ( 10, 0, .AHEAD. ) ;
#288 = APPLICATION_PROTOCOL_DEFINITION ( 'international standard', 'config_control_design', 1994, #155 ) ;
#289 = LOCAL_TIME ( 18, 49, 55.00000000000000000, #161 ) ;
#290 = PERSON_AND_ORGANIZATION ( #18446744073709551615, #18446744073709551615 ) ;
#291 = DATE_AND_TIME ( #78, #289 ) ;
#292 = CALENDAR_DATE ( 2026, 22, 6 ) ;
#293 = OBJECT_ROLE ('mandatory',$ ) ;
#294 = LOCAL_TIME ( 18, 49, 55.00000000000000000, #149 ) ;
#295 = DOCUMENT_FILE ( '11552553264.step.STEP' , '', '', #349, '' ,$ ) ;
#296 = PROPERTY_DEFINITION_REPRESENTATION ( #260, #51 ) ;
#297 = DIRECTION ( 'NONE',  ( 4.890937612370273194E-29, -3.155443620884047222E-30, 0.9999999999999997780 ) ) ;
#298 = APPROVAL_STATUS ( 'not_yet_approved' ) ;
#299 = OBJECT_ROLE ('mandatory',$ ) ;
#300 = CC_DESIGN_APPROVAL ( #194, ( #332 ) ) ;
#301 = CALENDAR_DATE ( 2026, 22, 6 ) ;
#302 = CARTESIAN_POINT ( 'NONE',  ( 0.000000000000000000, 0.000000000000000000, 0.000000000000000000 ) ) ;
#303 = ROLE_ASSOCIATION ( #293, #250 ) ;
#304 = APPROVAL_ROLE ( '' ) ;
#305 = CC_DESIGN_DATE_AND_TIME_ASSIGNMENT ( #71, #228, ( #332 ) ) ;
#306 = APPLICATION_PROTOCOL_DEFINITION ( 'international standard', 'config_control_design', 1994, #318 ) ;
#307 = SHAPE_DEFINITION_REPRESENTATION ( #227, #51 ) ;
#308 = PERSON_AND_ORGANIZATION_ROLE ( 'design_owner' ) ;
#309 = COORDINATED_UNIVERSAL_TIME_OFFSET ( 10, 0, .AHEAD. ) ;
#310 = SECURITY_CLASSIFICATION_LEVEL ( 'unclassified' ) ;
#311 = PRODUCT_RELATED_PRODUCT_CATEGORY ( 'detail', '', ( #196 ) ) ;
#312 = CALENDAR_DATE ( 2026, 22, 6 ) ;
#313 = PERSON_AND_ORGANIZATION_ROLE ( 'creator' ) ;
#314 = PRODUCT_DEFINITION_SHAPE ( 'NONE', 'NONE',  #389 ) ;
#315 = DATE_AND_TIME ( #138, #353 ) ;
#316 = PERSON_AND_ORGANIZATION ( #18446744073709551615, #18446744073709551615 ) ;
#317 = CC_DESIGN_APPROVAL ( #373, ( #158 ) ) ;
#318 = APPLICATION_CONTEXT ( 'configuration controlled 3d designs of mechanical parts and assemblies' ) ;
#319 = PERSON_AND_ORGANIZATION ( #18446744073709551615, #18446744073709551615 ) ;
#320 = APPROVAL ( #202, 'Coincident' ) ;
#321 = DOCUMENT_FILE ( '6325040192.step.STEP' , '', '', #282, '' ,$ ) ;
#322 = PERSON_AND_ORGANIZATION_ROLE ( 'classification_officer' ) ;
#323 = CARTESIAN_POINT ( 'NONE',  ( 9.950001769990000966, 5.627605712891000422, 0.000000000000000000 ) ) ;
#324 = AXIS2_PLACEMENT_3D ( 'NONE', #215, #23, #384 ) ;
#325 = CC_DESIGN_SECURITY_CLASSIFICATION ( #29, ( #382 ) ) ;
#326 = DATE_AND_TIME ( #301, #187 ) ;
#327 = PERSON ( 'NAUO-PER110', 'UNSPECIFIED', 'UNSPECIFIED', ('UNSPECIFIED'), ('UNSPECIFIED'), ('UNSPECIFIED') ) ;
#328 = PROPERTY_DEFINITION_REPRESENTATION ( #247, #51 ) ;
#329 = DIRECTION ( 'NONE',  ( 1.000000000000000000, 0.000000000000000000, 0.000000000000000000 ) ) ;
#330 = APPLIED_DOCUMENT_REFERENCE ( #368,'',( #332) ) ;
#331 = CC_DESIGN_APPROVAL ( #206, ( #382 ) ) ;
#332 = PRODUCT_DEFINITION ( 'General', '', #158, #168 ) ;
#333 = PERSON_AND_ORGANIZATION_ROLE ( 'classification_officer' ) ;
#334 = DESIGN_CONTEXT ( 'detailed design', #117, 'design' ) ;
#335 = SHAPE_DEFINITION_REPRESENTATION ( #48, #39 ) ;
#336 = CALENDAR_DATE ( 2026, 22, 6 ) ;
#337 =( GEOMETRIC_REPRESENTATION_CONTEXT ( 3 ) GLOBAL_UNCERTAINTY_ASSIGNED_CONTEXT ( ( #355 ) ) GLOBAL_UNIT_ASSIGNED_CONTEXT ( ( #267, #189, #10 ) ) REPRESENTATION_CONTEXT ( 'NONE', 'WORKASPACE' ) );
#338 = CC_DESIGN_APPROVAL ( #266, ( #116 ) ) ;
#339 = COORDINATED_UNIVERSAL_TIME_OFFSET ( 10, 0, .AHEAD. ) ;
#340 = APPLICATION_CONTEXT ( 'configuration controlled 3d designs of mechanical parts and assemblies' ) ;
#341 = PERSON_AND_ORGANIZATION ( #18446744073709551615, #18446744073709551615 ) ;
#342 = DATE_AND_TIME ( #221, #251 ) ;
#343 = APPROVAL_PERSON_ORGANIZATION ( #106, #194, #351 ) ;
#344 = ORGANIZATION ( 'NAUO-ORG110', 'UNSPECIFIED', 'UNSPECIFIED' ) ;
#345 = DATE_AND_TIME ( #74, #66 ) ;
#346 = PERSON ( 'NAUO-PER111', 'UNSPECIFIED', 'UNSPECIFIED', ('UNSPECIFIED'), ('UNSPECIFIED'), ('UNSPECIFIED') ) ;
#347 = PERSON_AND_ORGANIZATION_ROLE ( 'design_supplier' ) ;
#348 = PRODUCT_DEFINITION_SHAPE ( 'NONE', 'NONE',  #103 ) ;
#349 = DOCUMENT_TYPE ( 'geometry' ) ;
#350 = PERSON_AND_ORGANIZATION ( #18446744073709551615, #18446744073709551615 ) ;
#351 = APPROVAL_ROLE ( '' ) ;
#352 = CC_DESIGN_PERSON_AND_ORGANIZATION_ASSIGNMENT ( #163, #286, ( #382 ) ) ;
#353 = LOCAL_TIME ( 18, 49, 55.00000000000000000, #381 ) ;
#354 = APPROVAL_ROLE ( '' ) ;
#355 = UNCERTAINTY_MEASURE_WITH_UNIT (LENGTH_MEASURE( 1.000000000000000082E-05 ), #267, 'distance_accuracy_value', 'NONE');
#356 = CARTESIAN_POINT ( 'NONE',  ( 9.950001769990002742, 6.302593505858999023, 0.000000000000000000 ) ) ;
#357 = LOCAL_TIME ( 18, 49, 55.00000000000000000, #229 ) ;
#358 = PERSON_AND_ORGANIZATION ( #327, #344 ) ;
#359 = APPROVAL_STATUS ( 'not_yet_approved' ) ;
#360 = IDENTIFICATION_ROLE ( 'external document id and location', $) ;
#361 = APPLICATION_PROTOCOL_DEFINITION ( 'international standard', 'config_control_design', 1994, #139 ) ;
#362 = CC_DESIGN_APPROVAL ( #68, ( #103 ) ) ;
#363 = PERSON_AND_ORGANIZATION ( #18446744073709551615, #18446744073709551615 ) ;
#364 = PROPERTY_DEFINITION ('document property','', #368 ) ;
#365 = APPROVAL_DATE_TIME ( #64, #60 ) ;
#366 = PROPERTY_DEFINITION_REPRESENTATION ( #377, #73 ) ;
#367 = DOCUMENT_TYPE ( 'geometry' ) ;
#368 = DOCUMENT_FILE ( '6325040192.step.STEP' , '', '', #367, '' ,$ ) ;
#369 = LOCAL_TIME ( 18, 49, 55.00000000000000000, #287 ) ;
#370 = PERSON_AND_ORGANIZATION ( #18446744073709551615, #18446744073709551615 ) ;
#371 = CC_DESIGN_PERSON_AND_ORGANIZATION_ASSIGNMENT ( #61, #333, ( #116 ) ) ;
#372 = PERSON_AND_ORGANIZATION ( #18446744073709551615, #18446744073709551615 ) ;
#373 = APPROVAL ( #195, 'Coincident' ) ;
#374 = CC_DESIGN_APPROVAL ( #60, ( #76 ) ) ;
#375 = CC_DESIGN_APPROVAL ( #320, ( #29 ) ) ;
#376 = PERSON_AND_ORGANIZATION ( #18446744073709551615, #18446744073709551615 ) ;
#377 = PROPERTY_DEFINITION ('document property','', #295 ) ;
#378 = PERSON_AND_ORGANIZATION_ROLE ( 'creator' ) ;
#379 = DATE_AND_TIME ( #52, #357 ) ;
#380 = CC_DESIGN_PERSON_AND_ORGANIZATION_ASSIGNMENT ( #285, #308, ( #257 ) ) ;
#381 = COORDINATED_UNIVERSAL_TIME_OFFSET ( 10, 0, .AHEAD. ) ;
#382 = PRODUCT_DEFINITION_FORMATION_WITH_SPECIFIED_SOURCE ( 'Symmetric', '', #257, .NOT_KNOWN. ) ;
#383 = PROPERTY_DEFINITION_REPRESENTATION ( #46, #51 ) ;
#384 = DIRECTION ( 'NONE',  ( 1.000000000000000222, -1.092455418989176591E-28, 4.890937612370273194E-29 ) ) ;
#385 = APPROVAL_DATE_TIME ( #143, #99 ) ;
#386 = CC_DESIGN_PERSON_AND_ORGANIZATION_ASSIGNMENT ( #217, #184, ( #262 ) ) ;
#387 = AXIS2_PLACEMENT_3D ( 'NONE', #122, #62, #129 ) ;
#388 = NEXT_ASSEMBLY_USAGE_OCCURRENCE ( 'NAUO110', ' ', ' ', #262, #332, $ ) ;
#389 = NEXT_ASSEMBLY_USAGE_OCCURRENCE ( 'NAUO111', ' ', ' ', #262, #332, $ ) ;
#390 = NEXT_ASSEMBLY_USAGE_OCCURRENCE ( 'NAUO112', ' ', ' ', #262, #103, $ ) ;
ENDSEC;
END-ISO-10303-21;
