ISO-10303-21;
HEADER;
FILE_DESCRIPTION (( 'STEP AP203' ),
    '1' );
FILE_NAME ('D2.step.STEP',
    '2026-06-22T08:49:56',
    ( 'localuser' ),
    ( '' ),
    'SwSTEP 2.0',
    'SolidWorks 2025',
    '' );
FILE_SCHEMA (( 'CONFIG_CONTROL_DESIGN' ));
ENDSEC;

DATA;
#1 = PERSON_AND_ORGANIZATION ( #18446744073709551615, #18446744073709551615 ) ;
#2 = CC_DESIGN_PERSON_AND_ORGANIZATION_ASSIGNMENT ( #365, #275, ( #21 ) ) ;
#3 = APPROVAL_DATE_TIME ( #294, #64 ) ;
#4 = CALENDAR_DATE ( 2026, 22, 6 ) ;
#5 = CC_DESIGN_SECURITY_CLASSIFICATION ( #99, ( #389 ) ) ;
#6 = PROPERTY_DEFINITION_REPRESENTATION ( #161, #72 ) ;
#7 = DIRECTION ( 'NONE',  ( 0.000000000000000000, 0.000000000000000000, 1.000000000000000000 ) ) ;
#8 = COORDINATED_UNIVERSAL_TIME_OFFSET ( 10, 0, .AHEAD. ) ;
#9 = ITEM_DEFINED_TRANSFORMATION ( 'NONE', 'NONE', #204,  #59 ) ;
#10 = LOCAL_TIME ( 18, 49, 56.00000000000000000, #303 ) ;
#11 = CARTESIAN_POINT ( 'NONE',  ( 0.000000000000000000, 0.000000000000000000, 0.000000000000000000 ) ) ;
#12 = APPROVAL ( #81, 'Coincident' ) ;
#13 = APPROVAL_DATE_TIME ( #162, #146 ) ;
#14 = PROPERTY_DEFINITION ('external definition','', #308 ) ;
#15 = PERSON_AND_ORGANIZATION_ROLE ( 'creator' ) ;
#16 = CC_DESIGN_PERSON_AND_ORGANIZATION_ASSIGNMENT ( #1, #20, ( #199 ) ) ;
#17 = COORDINATED_UNIVERSAL_TIME_OFFSET ( 10, 0, .AHEAD. ) ;
#18 = SECURITY_CLASSIFICATION_LEVEL ( 'unclassified' ) ;
#19 = APPROVAL_ROLE ( '' ) ;
#20 = PERSON_AND_ORGANIZATION_ROLE ( 'creator' ) ;
#21 = SECURITY_CLASSIFICATION ( '', '', #273 ) ;
#22 = CC_DESIGN_PERSON_AND_ORGANIZATION_ASSIGNMENT ( #109, #229, ( #125 ) ) ;
#23 = PERSON_AND_ORGANIZATION ( #18446744073709551615, #18446744073709551615 ) ;
#24 = COORDINATED_UNIVERSAL_TIME_OFFSET ( 10, 0, .AHEAD. ) ;
#25 = COORDINATED_UNIVERSAL_TIME_OFFSET ( 10, 0, .AHEAD. ) ;
#26 = APPROVAL_PERSON_ORGANIZATION ( #23, #334, #201 ) ;
#27 = LOCAL_TIME ( 18, 49, 56.00000000000000000, #97 ) ;
#28 = CALENDAR_DATE ( 2026, 22, 6 ) ;
#29 = APPROVAL_STATUS ( 'not_yet_approved' ) ;
#30 = CC_DESIGN_PERSON_AND_ORGANIZATION_ASSIGNMENT ( #140, #177, ( #125 ) ) ;
#31 = ROLE_ASSOCIATION ( #347, #89 ) ;
#32 = CC_DESIGN_SECURITY_CLASSIFICATION ( #205, ( #390 ) ) ;
#33 = CALENDAR_DATE ( 2026, 22, 6 ) ;
#34 =( NAMED_UNIT ( * ) PLANE_ANGLE_UNIT ( ) SI_UNIT ( $, .RADIAN. ) );
#35 = DOCUMENT_TYPE ( 'geometry' ) ;
#36 = ROLE_ASSOCIATION ( #277, #123 ) ;
#37 = PERSON ( 'NAUO-PER122', 'UNSPECIFIED', 'UNSPECIFIED', ('UNSPECIFIED'), ('UNSPECIFIED'), ('UNSPECIFIED') ) ;
#38 = PRODUCT_RELATED_PRODUCT_CATEGORY ( 'detail', '', ( #191 ) ) ;
#39 = SHAPE_DEFINITION_REPRESENTATION ( #250, #72 ) ;
#40 = AXIS2_PLACEMENT_3D ( 'NONE', #304, #307, #338 ) ;
#41 = LOCAL_TIME ( 18, 49, 56.00000000000000000, #208 ) ;
#42 = PROPERTY_DEFINITION_REPRESENTATION ( #195, #62 ) ;
#43 = PERSON_AND_ORGANIZATION_ROLE ( 'design_owner' ) ;
#44 = APPROVAL_DATE_TIME ( #221, #287 ) ;
#45 = CC_DESIGN_PERSON_AND_ORGANIZATION_ASSIGNMENT ( #79, #196, ( #371 ) ) ;
#46 = COORDINATED_UNIVERSAL_TIME_OFFSET ( 10, 0, .AHEAD. ) ;
#47 = PRODUCT_DEFINITION_SHAPE ( 'NONE', 'NONE',  #388 ) ;
#48 = APPROVAL_PERSON_ORGANIZATION ( #319, #328, #88 ) ;
#49 = APPLICATION_PROTOCOL_DEFINITION ( 'international standard', 'config_control_design', 1994, #113 ) ;
#50 = MECHANICAL_CONTEXT ( 'NONE', #56, 'mechanical' ) ;
#51 = PERSON_AND_ORGANIZATION ( #18446744073709551615, #18446744073709551615 ) ;
#52 = PERSON_AND_ORGANIZATION ( #18446744073709551615, #18446744073709551615 ) ;
#53 = LOCAL_TIME ( 18, 49, 56.00000000000000000, #267 ) ;
#54 = DATE_AND_TIME ( #230, #222 ) ;
#55 = CC_DESIGN_PERSON_AND_ORGANIZATION_ASSIGNMENT ( #268, #337, ( #99 ) ) ;
#56 = APPLICATION_CONTEXT ( 'configuration controlled 3d designs of mechanical parts and assemblies' ) ;
#57 = PERSON_AND_ORGANIZATION ( #18446744073709551615, #18446744073709551615 ) ;
#58 = PERSON_AND_ORGANIZATION_ROLE ( 'design_owner' ) ;
#59 = AXIS2_PLACEMENT_3D ( 'NONE', #11, #7, #212 ) ;
#60 = CC_DESIGN_SECURITY_CLASSIFICATION ( #327, ( #199 ) ) ;
#61 = SECURITY_CLASSIFICATION_LEVEL ( 'unclassified' ) ;
#62 = SHAPE_REPRESENTATION ( '11552553264.step', ( #40 ), #279 ) ;
#63 = APPROVAL_STATUS ( 'not_yet_approved' ) ;
#64 = APPROVAL ( #173, 'Coincident' ) ;
#65 = DATE_TIME_ROLE ( 'classification_date' ) ;
#66 = APPROVAL_PERSON_ORGANIZATION ( #237, #12, #172 ) ;
#67 = APPLICATION_PROTOCOL_DEFINITION ( 'international standard', 'config_control_design', 1994, #257 ) ;
#68 = CC_DESIGN_DATE_AND_TIME_ASSIGNMENT ( #157, #213, ( #21 ) ) ;
#69 = CONTEXT_DEPENDENT_SHAPE_REPRESENTATION ( #216, #253 ) ;
#70 = CC_DESIGN_APPROVAL ( #342, ( #21 ) ) ;
#71 = DATE_AND_TIME ( #159, #280 ) ;
#72 = SHAPE_REPRESENTATION ( '6325040192.step', ( #59 ), #197 ) ;
#73 = DOCUMENT_FILE ( '6325040192.step.STEP' , '', '', #96, '' ,$ ) ;
#74 = PROPERTY_DEFINITION ('external definition','', #183 ) ;
#75 = DATE_TIME_ROLE ( 'creation_date' ) ;
#76 = APPLICATION_CONTEXT ( 'configuration controlled 3d designs of mechanical parts and assemblies' ) ;
#77 = LOCAL_TIME ( 18, 49, 56.00000000000000000, #225 ) ;
#78 = ORGANIZATION ( 'NAUO-ORG122', 'UNSPECIFIED', 'UNSPECIFIED' ) ;
#79 = PERSON_AND_ORGANIZATION ( #18446744073709551615, #18446744073709551615 ) ;
#80 = CC_DESIGN_PERSON_AND_ORGANIZATION_ASSIGNMENT ( #223, #193, ( #124 ) ) ;
#81 = APPROVAL_STATUS ( 'not_yet_approved' ) ;
#82 = PERSON_AND_ORGANIZATION_ROLE ( 'creator' ) ;
#83 = APPLICATION_PROTOCOL_DEFINITION ( 'international standard', 'config_control_design', 1994, #295 ) ;
#84 = PRODUCT_DEFINITION ( 'General', '', #371, #355 ) ;
#85 = CC_DESIGN_APPROVAL ( #185, ( #205 ) ) ;
#86 = UNCERTAINTY_MEASURE_WITH_UNIT (LENGTH_MEASURE( 1.000000000000000082E-05 ), #374, 'distance_accuracy_value', 'NONE');
#87 = PERSON_AND_ORGANIZATION_ROLE ( 'design_supplier' ) ;
#88 = APPROVAL_ROLE ( '' ) ;
#89 = APPLIED_DOCUMENT_REFERENCE ( #183,'',( #311) ) ;
#90 = APPROVAL_PERSON_ORGANIZATION ( #344, #264, #19 ) ;
#91 = CC_DESIGN_SECURITY_CLASSIFICATION ( #124, ( #371 ) ) ;
#92 = COORDINATED_UNIVERSAL_TIME_OFFSET ( 10, 0, .AHEAD. ) ;
#93 = CALENDAR_DATE ( 2026, 22, 6 ) ;
#94 = DATE_AND_TIME ( #362, #27 ) ;
#95 = CC_DESIGN_DATE_AND_TIME_ASSIGNMENT ( #160, #127, ( #124 ) ) ;
#96 = DOCUMENT_TYPE ( 'geometry' ) ;
#97 = COORDINATED_UNIVERSAL_TIME_OFFSET ( 10, 0, .AHEAD. ) ;
#98 = CALENDAR_DATE ( 2026, 22, 6 ) ;
#99 = SECURITY_CLASSIFICATION ( '', '', #217 ) ;
#100 = PROPERTY_DEFINITION_REPRESENTATION ( #14, #62 ) ;
#101 = DATE_AND_TIME ( #377, #350 ) ;
#102 = PRODUCT_DEFINITION_SHAPE ( 'NONE', 'NONE',  #361 ) ;
#103 = CALENDAR_DATE ( 2026, 22, 6 ) ;
#104 = SHAPE_DEFINITION_REPRESENTATION ( #346, #329 ) ;
#105 = CC_DESIGN_DATE_AND_TIME_ASSIGNMENT ( #54, #168, ( #327 ) ) ;
#106 = CC_DESIGN_APPROVAL ( #287, ( #371 ) ) ;
#107 = LOCAL_TIME ( 18, 49, 56.00000000000000000, #92 ) ;
#108 = PERSON_AND_ORGANIZATION ( #18446744073709551615, #18446744073709551615 ) ;
#109 = PERSON_AND_ORGANIZATION ( #18446744073709551615, #18446744073709551615 ) ;
#110 = CC_DESIGN_DATE_AND_TIME_ASSIGNMENT ( #226, #75, ( #84 ) ) ;
#111 = DATE_AND_TIME ( #356, #53 ) ;
#112 = APPLICATION_PROTOCOL_DEFINITION ( 'international standard', 'config_control_design', 1994, #174 ) ;
#113 = APPLICATION_CONTEXT ( 'configuration controlled 3d designs of mechanical parts and assemblies' ) ;
#114 = PERSON_AND_ORGANIZATION ( #18446744073709551615, #18446744073709551615 ) ;
#115 = DATE_TIME_ROLE ( 'creation_date' ) ;
#116 = CC_DESIGN_PERSON_AND_ORGANIZATION_ASSIGNMENT ( #254, #375, ( #205 ) ) ;
#117 = DATE_AND_TIME ( #4, #302 ) ;
#118 = CARTESIAN_POINT ( 'NONE',  ( 9.700001769990002742, 11.24999645996100206, 0.000000000000000000 ) ) ;
#119 = APPLIED_EXTERNAL_IDENTIFICATION_ASSIGNMENT ( '6325040192.step.STEP' , #198, #134,( #73) ) ;
#120 = CC_DESIGN_PERSON_AND_ORGANIZATION_ASSIGNMENT ( #207, #335, ( #232 ) ) ;
#121 = APPROVAL_STATUS ( 'not_yet_approved' ) ;
#122 = CARTESIAN_POINT ( 'NONE',  ( 9.700001769990002742, 11.92499951171900108, 0.000000000000000000 ) ) ;
#123 = APPLIED_DOCUMENT_REFERENCE ( #73,'',( #311) ) ;
#124 = SECURITY_CLASSIFICATION ( '', '', #18 ) ;
#125 = PRODUCT_DEFINITION_FORMATION_WITH_SPECIFIED_SOURCE ( 'Symmetric', '', #191, .NOT_KNOWN. ) ;
#126 = APPROVAL_ROLE ( '' ) ;
#127 = DATE_TIME_ROLE ( 'classification_date' ) ;
#128 = CC_DESIGN_PERSON_AND_ORGANIZATION_ASSIGNMENT ( #51, #87, ( #199 ) ) ;
#129 = APPLIED_DOCUMENT_REFERENCE ( #308,'',( #361) ) ;
#130 = COORDINATED_UNIVERSAL_TIME_OFFSET ( 10, 0, .AHEAD. ) ;
#131 = LOCAL_TIME ( 18, 49, 56.00000000000000000, #368 ) ;
#132 = ROLE_ASSOCIATION ( #290, #129 ) ;
#133 = COORDINATED_UNIVERSAL_TIME_OFFSET ( 10, 0, .AHEAD. ) ;
#134 = EXTERNAL_SOURCE (IDENTIFIER('') ) ;
#135 = CALENDAR_DATE ( 2026, 22, 6 ) ;
#136 = APPROVAL_STATUS ( 'not_yet_approved' ) ;
#137 = LOCAL_TIME ( 18, 49, 56.00000000000000000, #17 ) ;
#138 = APPROVAL_ROLE ( '' ) ;
#139 = APPROVAL_STATUS ( 'not_yet_approved' ) ;
#140 = PERSON_AND_ORGANIZATION ( #18446744073709551615, #18446744073709551615 ) ;
#141 = CC_DESIGN_APPROVAL ( #146, ( #84 ) ) ;
#142 = LOCAL_TIME ( 18, 49, 56.00000000000000000, #133 ) ;
#143 = CALENDAR_DATE ( 2026, 22, 6 ) ;
#144 = APPROVAL_PERSON_ORGANIZATION ( #254, #185, #180 ) ;
#145 = SECURITY_CLASSIFICATION_LEVEL ( 'unclassified' ) ;
#146 = APPROVAL ( #136, 'Coincident' ) ;
#147 = COORDINATED_UNIVERSAL_TIME_OFFSET ( 10, 0, .AHEAD. ) ;
#148 = PERSON_AND_ORGANIZATION ( #18446744073709551615, #18446744073709551615 ) ;
#149 = APPROVAL_DATE_TIME ( #240, #353 ) ;
#150 = CC_DESIGN_APPROVAL ( #259, ( #99 ) ) ;
#151 = APPROVAL ( #187, 'Coincident' ) ;
#152 = APPROVAL_ROLE ( '' ) ;
#153 =( NAMED_UNIT ( * ) SI_UNIT ( $, .STERADIAN. ) SOLID_ANGLE_UNIT ( ) );
#154 = COORDINATED_UNIVERSAL_TIME_OFFSET ( 10, 0, .AHEAD. ) ;
#155 =( REPRESENTATION_RELATIONSHIP ('NONE','NONE', #329, #72 ) REPRESENTATION_RELATIONSHIP_WITH_TRANSFORMATION ( #306 )SHAPE_REPRESENTATION_RELATIONSHIP( ) );
#156 =( NAMED_UNIT ( * ) SI_UNIT ( $, .STERADIAN. ) SOLID_ANGLE_UNIT ( ) );
#157 = DATE_AND_TIME ( #33, #291 ) ;
#158 = LOCAL_TIME ( 18, 49, 56.00000000000000000, #297 ) ;
#159 = CALENDAR_DATE ( 2026, 22, 6 ) ;
#160 = DATE_AND_TIME ( #314, #322 ) ;
#161 = PROPERTY_DEFINITION ('document property','', #183 ) ;
#162 = DATE_AND_TIME ( #345, #142 ) ;
#163 = PRODUCT ( '11552553264.step', '11552553264.step', '', ( #50 ) ) ;
#164 =( GEOMETRIC_REPRESENTATION_CONTEXT ( 3 ) GLOBAL_UNCERTAINTY_ASSIGNED_CONTEXT ( ( #326 ) ) GLOBAL_UNIT_ASSIGNED_CONTEXT ( ( #301, #34, #153 ) ) REPRESENTATION_CONTEXT ( 'NONE', 'WORKASPACE' ) );
#165 = PERSON_AND_ORGANIZATION ( #18446744073709551615, #18446744073709551615 ) ;
#166 = UNCERTAINTY_MEASURE_WITH_UNIT (LENGTH_MEASURE( 1.000000000000000082E-05 ), #281, 'distance_accuracy_value', 'NONE');
#167 = APPROVAL_ROLE ( '' ) ;
#168 = DATE_TIME_ROLE ( 'classification_date' ) ;
#169 = AXIS2_PLACEMENT_3D ( 'NONE', #118, #184, #331 ) ;
#170 = AXIS2_PLACEMENT_3D ( 'NONE', #341, #349, #282 ) ;
#171 = MECHANICAL_CONTEXT ( 'NONE', #174, 'mechanical' ) ;
#172 = APPROVAL_ROLE ( '' ) ;
#173 = APPROVAL_STATUS ( 'not_yet_approved' ) ;
#174 = APPLICATION_CONTEXT ( 'configuration controlled 3d designs of mechanical parts and assemblies' ) ;
#175 = CC_DESIGN_PERSON_AND_ORGANIZATION_ASSIGNMENT ( #358, #82, ( #311 ) ) ;
#176 = APPROVAL_PERSON_ORGANIZATION ( #365, #342, #126 ) ;
#177 = PERSON_AND_ORGANIZATION_ROLE ( 'creator' ) ;
#178 = APPROVAL_DATE_TIME ( #182, #342 ) ;
#179 = APPROVAL_STATUS ( 'not_yet_approved' ) ;
#180 = APPROVAL_ROLE ( '' ) ;
#181 = APPLIED_EXTERNAL_IDENTIFICATION_ASSIGNMENT ( '11552553264.step.STEP' , #271, #369,( #308) ) ;
#182 = DATE_AND_TIME ( #242, #372 ) ;
#183 = DOCUMENT_FILE ( '6325040192.step.STEP' , '', '', #360, '' ,$ ) ;
#184 = DIRECTION ( 'NONE',  ( 4.890937612370273194E-29, -3.155443620884047222E-30, 0.9999999999999997780 ) ) ;
#185 = APPROVAL ( #29, 'UNKNOWN' ) ;
#186 = DATE_TIME_ROLE ( 'classification_date' ) ;
#187 = APPROVAL_STATUS ( 'not_yet_approved' ) ;
#188 = AXIS2_PLACEMENT_3D ( 'NONE', #333, #276, #269 ) ;
#189 = LOCAL_TIME ( 18, 49, 56.00000000000000000, #384 ) ;
#190 = PERSON_AND_ORGANIZATION ( #18446744073709551615, #18446744073709551615 ) ;
#191 = PRODUCT ( '6325040192.step', '6325040192.step', '', ( #171 ) ) ;
#192 = CONTEXT_DEPENDENT_SHAPE_REPRESENTATION ( #235, #312 ) ;
#193 = PERSON_AND_ORGANIZATION_ROLE ( 'classification_officer' ) ;
#194 = CC_DESIGN_PERSON_AND_ORGANIZATION_ASSIGNMENT ( #354, #58, ( #191 ) ) ;
#195 = PROPERTY_DEFINITION ('document property','', #308 ) ;
#196 = PERSON_AND_ORGANIZATION_ROLE ( 'creator' ) ;
#197 =( GEOMETRIC_REPRESENTATION_CONTEXT ( 3 ) GLOBAL_UNCERTAINTY_ASSIGNED_CONTEXT ( ( #166 ) ) GLOBAL_UNIT_ASSIGNED_CONTEXT ( ( #281, #299, #370 ) ) REPRESENTATION_CONTEXT ( 'NONE', 'WORKASPACE' ) );
#198 = IDENTIFICATION_ROLE ( 'external document id and location', $) ;
#199 = PRODUCT_DEFINITION_FORMATION_WITH_SPECIFIED_SOURCE ( 'Symmetric', '', #163, .NOT_KNOWN. ) ;
#200 = APPROVAL_DATE_TIME ( #251, #151 ) ;
#201 = APPROVAL_ROLE ( '' ) ;
#202 = CC_DESIGN_PERSON_AND_ORGANIZATION_ASSIGNMENT ( #108, #248, ( #163 ) ) ;
#203 = APPROVAL_DATE_TIME ( #262, #334 ) ;
#204 = AXIS2_PLACEMENT_3D ( 'NONE', #122, #246, #218 ) ;
#205 = SECURITY_CLASSIFICATION ( '', '', #61 ) ;
#206 = PERSON_AND_ORGANIZATION_ROLE ( 'classification_officer' ) ;
#207 = PERSON_AND_ORGANIZATION ( #18446744073709551615, #18446744073709551615 ) ;
#208 = COORDINATED_UNIVERSAL_TIME_OFFSET ( 10, 0, .AHEAD. ) ;
#209 = CC_DESIGN_APPROVAL ( #64, ( #327 ) ) ;
#210 = PROPERTY_DEFINITION_REPRESENTATION ( #74, #72 ) ;
#211 = CALENDAR_DATE ( 2026, 22, 6 ) ;
#212 = DIRECTION ( 'NONE',  ( 1.000000000000000000, 0.000000000000000000, 0.000000000000000000 ) ) ;
#213 = DATE_TIME_ROLE ( 'classification_date' ) ;
#214 = APPROVAL_PERSON_ORGANIZATION ( #313, #146, #379 ) ;
#215 = LOCAL_TIME ( 18, 49, 56.00000000000000000, #25 ) ;
#216 =( REPRESENTATION_RELATIONSHIP ('NONE','NONE', #329, #72 ) REPRESENTATION_RELATIONSHIP_WITH_TRANSFORMATION ( #9 )SHAPE_REPRESENTATION_RELATIONSHIP( ) );
#217 = SECURITY_CLASSIFICATION_LEVEL ( 'unclassified' ) ;
#218 = DIRECTION ( 'NONE',  ( 1.000000000000000222, -1.092455418989176591E-28, 4.890937612370273194E-29 ) ) ;
#219 = CC_DESIGN_PERSON_AND_ORGANIZATION_ASSIGNMENT ( #348, #380, ( #371 ) ) ;
#220 =( NAMED_UNIT ( * ) PLANE_ANGLE_UNIT ( ) SI_UNIT ( $, .RADIAN. ) );
#221 = DATE_AND_TIME ( #98, #77 ) ;
#222 = LOCAL_TIME ( 18, 49, 56.00000000000000000, #24 ) ;
#223 = PERSON_AND_ORGANIZATION ( #18446744073709551615, #18446744073709551615 ) ;
#224 = PRODUCT ( 'D2.step', 'D2.step', '', ( #366 ) ) ;
#225 = COORDINATED_UNIVERSAL_TIME_OFFSET ( 10, 0, .AHEAD. ) ;
#226 = DATE_AND_TIME ( #103, #260 ) ;
#227 = APPLIED_EXTERNAL_IDENTIFICATION_ASSIGNMENT ( '6325040192.step.STEP' , #340, #317,( #183) ) ;
#228 = PRODUCT_RELATED_PRODUCT_CATEGORY ( 'detail', '', ( #224 ) ) ;
#229 = PERSON_AND_ORGANIZATION_ROLE ( 'design_supplier' ) ;
#230 = CALENDAR_DATE ( 2026, 22, 6 ) ;
#231 = PERSON ( 'NAUO-PER123', 'UNSPECIFIED', 'UNSPECIFIED', ('UNSPECIFIED'), ('UNSPECIFIED'), ('UNSPECIFIED') ) ;
#232 = SECURITY_CLASSIFICATION ( '', '', #145 ) ;
#233 = DATE_TIME_ROLE ( 'classification_date' ) ;
#234 = CC_DESIGN_DATE_AND_TIME_ASSIGNMENT ( #111, #233, ( #232 ) ) ;
#235 =( REPRESENTATION_RELATIONSHIP ('NONE','NONE', #329, #62 ) REPRESENTATION_RELATIONSHIP_WITH_TRANSFORMATION ( #330 )SHAPE_REPRESENTATION_RELATIONSHIP( ) );
#236 = DATE_TIME_ROLE ( 'creation_date' ) ;
#237 = PERSON_AND_ORGANIZATION ( #18446744073709551615, #18446744073709551615 ) ;
#238 = CC_DESIGN_SECURITY_CLASSIFICATION ( #21, ( #388 ) ) ;
#239 = APPROVAL_DATE_TIME ( #332, #185 ) ;
#240 = DATE_AND_TIME ( #211, #107 ) ;
#241 = PROPERTY_DEFINITION ('external definition','', #73 ) ;
#242 = CALENDAR_DATE ( 2026, 22, 6 ) ;
#243 = PROPERTY_DEFINITION_REPRESENTATION ( #367, #72 ) ;
#244 = APPROVAL_PERSON_ORGANIZATION ( #165, #287, #256 ) ;
#245 = APPROVAL_PERSON_ORGANIZATION ( #268, #259, #272 ) ;
#246 = DIRECTION ( 'NONE',  ( 4.890937612370273194E-29, -3.155443620884047222E-30, 0.9999999999999997780 ) ) ;
#247 = CC_DESIGN_DATE_AND_TIME_ASSIGNMENT ( #101, #115, ( #361 ) ) ;
#248 = PERSON_AND_ORGANIZATION_ROLE ( 'design_owner' ) ;
#249 = CC_DESIGN_PERSON_AND_ORGANIZATION_ASSIGNMENT ( #255, #352, ( #84 ) ) ;
#250 = PRODUCT_DEFINITION_SHAPE ( 'NONE', 'NONE',  #311 ) ;
#251 = DATE_AND_TIME ( #135, #137 ) ;
#252 = CC_DESIGN_APPROVAL ( #334, ( #311 ) ) ;
#253 = PRODUCT_DEFINITION_SHAPE ( 'NONE', 'NONE',  #389 ) ;
#254 = PERSON_AND_ORGANIZATION ( #383, #357 ) ;
#255 = PERSON_AND_ORGANIZATION ( #18446744073709551615, #18446744073709551615 ) ;
#256 = APPROVAL_ROLE ( '' ) ;
#257 = APPLICATION_CONTEXT ( 'configuration controlled 3d designs of mechanical parts and assemblies' ) ;
#258 = COORDINATED_UNIVERSAL_TIME_OFFSET ( 10, 0, .AHEAD. ) ;
#259 = APPROVAL ( #63, 'UNKNOWN' ) ;
#260 = LOCAL_TIME ( 18, 49, 56.00000000000000000, #286 ) ;
#261 = CC_DESIGN_APPROVAL ( #328, ( #125 ) ) ;
#262 = DATE_AND_TIME ( #28, #41 ) ;
#263 = COORDINATED_UNIVERSAL_TIME_OFFSET ( 10, 0, .AHEAD. ) ;
#264 = APPROVAL ( #310, 'Coincident' ) ;
#265 = APPROVAL_DATE_TIME ( #386, #328 ) ;
#266 = CALENDAR_DATE ( 2026, 22, 6 ) ;
#267 = COORDINATED_UNIVERSAL_TIME_OFFSET ( 10, 0, .AHEAD. ) ;
#268 = PERSON_AND_ORGANIZATION ( #231, #285 ) ;
#269 = DIRECTION ( 'NONE',  ( 1.000000000000000222, -1.092455418989176591E-28, 4.890937612370273194E-29 ) ) ;
#270 = CC_DESIGN_PERSON_AND_ORGANIZATION_ASSIGNMENT ( #52, #206, ( #327 ) ) ;
#271 = IDENTIFICATION_ROLE ( 'external document id and location', $) ;
#272 = APPROVAL_ROLE ( '' ) ;
#273 = SECURITY_CLASSIFICATION_LEVEL ( 'unclassified' ) ;
#274 = CC_DESIGN_PERSON_AND_ORGANIZATION_ASSIGNMENT ( #148, #43, ( #224 ) ) ;
#275 = PERSON_AND_ORGANIZATION_ROLE ( 'classification_officer' ) ;
#276 = DIRECTION ( 'NONE',  ( 4.890937612370273194E-29, -3.155443620884047222E-30, 0.9999999999999997780 ) ) ;
#277 = OBJECT_ROLE ('mandatory',$ ) ;
#278 = PROPERTY_DEFINITION_REPRESENTATION ( #241, #72 ) ;
#279 =( GEOMETRIC_REPRESENTATION_CONTEXT ( 3 ) GLOBAL_UNCERTAINTY_ASSIGNED_CONTEXT ( ( #86 ) ) GLOBAL_UNIT_ASSIGNED_CONTEXT ( ( #374, #220, #156 ) ) REPRESENTATION_CONTEXT ( 'NONE', 'WORKASPACE' ) );
#280 = LOCAL_TIME ( 18, 49, 56.00000000000000000, #258 ) ;
#281 =( LENGTH_UNIT ( ) NAMED_UNIT ( * ) SI_UNIT ( .MILLI., .METRE. ) );
#282 = DIRECTION ( 'NONE',  ( 1.000000000000000000, 0.000000000000000000, 0.000000000000000000 ) ) ;
#283 = APPROVAL_DATE_TIME ( #71, #264 ) ;
#284 = PERSON_AND_ORGANIZATION ( #18446744073709551615, #18446744073709551615 ) ;
#285 = ORGANIZATION ( 'NAUO-ORG123', 'UNSPECIFIED', 'UNSPECIFIED' ) ;
#286 = COORDINATED_UNIVERSAL_TIME_OFFSET ( 10, 0, .AHEAD. ) ;
#287 = APPROVAL ( #381, 'Coincident' ) ;
#288 = APPLICATION_PROTOCOL_DEFINITION ( 'international standard', 'config_control_design', 1994, #76 ) ;
#289 = APPROVAL_DATE_TIME ( #292, #12 ) ;
#290 = OBJECT_ROLE ('mandatory',$ ) ;
#291 = LOCAL_TIME ( 18, 49, 56.00000000000000000, #154 ) ;
#292 = DATE_AND_TIME ( #266, #215 ) ;
#293 = APPROVAL_STATUS ( 'not_yet_approved' ) ;
#294 = DATE_AND_TIME ( #359, #158 ) ;
#295 = APPLICATION_CONTEXT ( 'configuration controlled 3d designs of mechanical parts and assemblies' ) ;
#296 = APPROVAL_PERSON_ORGANIZATION ( #57, #353, #152 ) ;
#297 = COORDINATED_UNIVERSAL_TIME_OFFSET ( 10, 0, .AHEAD. ) ;
#298 = DATE_AND_TIME ( #373, #10 ) ;
#299 =( NAMED_UNIT ( * ) PLANE_ANGLE_UNIT ( ) SI_UNIT ( $, .RADIAN. ) );
#300 = APPROVAL_DATE_TIME ( #94, #259 ) ;
#301 =( LENGTH_UNIT ( ) NAMED_UNIT ( * ) SI_UNIT ( .MILLI., .METRE. ) );
#302 = LOCAL_TIME ( 18, 49, 56.00000000000000000, #147 ) ;
#303 = COORDINATED_UNIVERSAL_TIME_OFFSET ( 10, 0, .AHEAD. ) ;
#304 = CARTESIAN_POINT ( 'NONE',  ( 0.000000000000000000, 0.000000000000000000, 0.000000000000000000 ) ) ;
#305 = CC_DESIGN_DATE_AND_TIME_ASSIGNMENT ( #323, #236, ( #311 ) ) ;
#306 = ITEM_DEFINED_TRANSFORMATION ( 'NONE', 'NONE', #188,  #59 ) ;
#307 = DIRECTION ( 'NONE',  ( 0.000000000000000000, 0.000000000000000000, 1.000000000000000000 ) ) ;
#308 = DOCUMENT_FILE ( '11552553264.step.STEP' , '', '', #35, '' ,$ ) ;
#309 = APPROVAL_PERSON_ORGANIZATION ( #284, #151, #167 ) ;
#310 = APPROVAL_STATUS ( 'not_yet_approved' ) ;
#311 = PRODUCT_DEFINITION ( 'General', '', #125, #363 ) ;
#312 = PRODUCT_DEFINITION_SHAPE ( 'NONE', 'NONE',  #390 ) ;
#313 = PERSON_AND_ORGANIZATION ( #18446744073709551615, #18446744073709551615 ) ;
#314 = CALENDAR_DATE ( 2026, 22, 6 ) ;
#315 = APPROVAL_PERSON_ORGANIZATION ( #114, #64, #138 ) ;
#316 = CC_DESIGN_PERSON_AND_ORGANIZATION_ASSIGNMENT ( #190, #15, ( #361 ) ) ;
#317 = EXTERNAL_SOURCE (IDENTIFIER('') ) ;
#318 = APPLICATION_PROTOCOL_DEFINITION ( 'international standard', 'config_control_design', 1994, #56 ) ;
#319 = PERSON_AND_ORGANIZATION ( #18446744073709551615, #18446744073709551615 ) ;
#320 = SHAPE_DEFINITION_REPRESENTATION ( #102, #62 ) ;
#321 = CC_DESIGN_DATE_AND_TIME_ASSIGNMENT ( #298, #65, ( #99 ) ) ;
#322 = LOCAL_TIME ( 18, 49, 56.00000000000000000, #46 ) ;
#323 = DATE_AND_TIME ( #143, #364 ) ;
#324 = SECURITY_CLASSIFICATION_LEVEL ( 'unclassified' ) ;
#325 = CALENDAR_DATE ( 2026, 22, 6 ) ;
#326 = UNCERTAINTY_MEASURE_WITH_UNIT (LENGTH_MEASURE( 1.000000000000000082E-05 ), #301, 'distance_accuracy_value', 'NONE');
#327 = SECURITY_CLASSIFICATION ( '', '', #324 ) ;
#328 = APPROVAL ( #293, 'Coincident' ) ;
#329 = SHAPE_REPRESENTATION ( 'D2.step', ( #170, #188, #204, #169 ), #164 ) ;
#330 = ITEM_DEFINED_TRANSFORMATION ( 'NONE', 'NONE', #169,  #40 ) ;
#331 = DIRECTION ( 'NONE',  ( 1.000000000000000222, -1.092455418989176591E-28, 4.890937612370273194E-29 ) ) ;
#332 = DATE_AND_TIME ( #93, #131 ) ;
#333 = CARTESIAN_POINT ( 'NONE',  ( 9.700001769990002742, 10.57499340820300304, 0.000000000000000000 ) ) ;
#334 = APPROVAL ( #139, 'Coincident' ) ;
#335 = PERSON_AND_ORGANIZATION_ROLE ( 'classification_officer' ) ;
#336 = CC_DESIGN_SECURITY_CLASSIFICATION ( #232, ( #125 ) ) ;
#337 = PERSON_AND_ORGANIZATION_ROLE ( 'classification_officer' ) ;
#338 = DIRECTION ( 'NONE',  ( 1.000000000000000000, 0.000000000000000000, 0.000000000000000000 ) ) ;
#339 = CONTEXT_DEPENDENT_SHAPE_REPRESENTATION ( #155, #47 ) ;
#340 = IDENTIFICATION_ROLE ( 'external document id and location', $) ;
#341 = CARTESIAN_POINT ( 'NONE',  ( 0.000000000000000000, 0.000000000000000000, 0.000000000000000000 ) ) ;
#342 = APPROVAL ( #121, 'UNKNOWN' ) ;
#343 = CC_DESIGN_APPROVAL ( #12, ( #199 ) ) ;
#344 = PERSON_AND_ORGANIZATION ( #18446744073709551615, #18446744073709551615 ) ;
#345 = CALENDAR_DATE ( 2026, 22, 6 ) ;
#346 = PRODUCT_DEFINITION_SHAPE ( 'NONE', 'NONE',  #84 ) ;
#347 = OBJECT_ROLE ('mandatory',$ ) ;
#348 = PERSON_AND_ORGANIZATION ( #18446744073709551615, #18446744073709551615 ) ;
#349 = DIRECTION ( 'NONE',  ( 0.000000000000000000, 0.000000000000000000, 1.000000000000000000 ) ) ;
#350 = LOCAL_TIME ( 18, 49, 56.00000000000000000, #130 ) ;
#351 = DESIGN_CONTEXT ( 'detailed design', #76, 'design' ) ;
#352 = PERSON_AND_ORGANIZATION_ROLE ( 'creator' ) ;
#353 = APPROVAL ( #179, 'Coincident' ) ;
#354 = PERSON_AND_ORGANIZATION ( #18446744073709551615, #18446744073709551615 ) ;
#355 = DESIGN_CONTEXT ( 'detailed design', #113, 'design' ) ;
#356 = CALENDAR_DATE ( 2026, 22, 6 ) ;
#357 = ORGANIZATION ( 'NAUO-ORG124', 'UNSPECIFIED', 'UNSPECIFIED' ) ;
#358 = PERSON_AND_ORGANIZATION ( #18446744073709551615, #18446744073709551615 ) ;
#359 = CALENDAR_DATE ( 2026, 22, 6 ) ;
#360 = DOCUMENT_TYPE ( 'geometry' ) ;
#361 = PRODUCT_DEFINITION ( 'General', '', #199, #351 ) ;
#362 = CALENDAR_DATE ( 2026, 22, 6 ) ;
#363 = DESIGN_CONTEXT ( 'detailed design', #295, 'design' ) ;
#364 = LOCAL_TIME ( 18, 49, 56.00000000000000000, #263 ) ;
#365 = PERSON_AND_ORGANIZATION ( #37, #78 ) ;
#366 = MECHANICAL_CONTEXT ( 'NONE', #257, 'mechanical' ) ;
#367 = PROPERTY_DEFINITION ('document property','', #73 ) ;
#368 = COORDINATED_UNIVERSAL_TIME_OFFSET ( 10, 0, .AHEAD. ) ;
#369 = EXTERNAL_SOURCE (IDENTIFIER('') ) ;
#370 =( NAMED_UNIT ( * ) SI_UNIT ( $, .STERADIAN. ) SOLID_ANGLE_UNIT ( ) );
#371 = PRODUCT_DEFINITION_FORMATION_WITH_SPECIFIED_SOURCE ( 'Symmetric', '', #224, .NOT_KNOWN. ) ;
#372 = LOCAL_TIME ( 18, 49, 56.00000000000000000, #8 ) ;
#373 = CALENDAR_DATE ( 2026, 22, 6 ) ;
#374 =( LENGTH_UNIT ( ) NAMED_UNIT ( * ) SI_UNIT ( .MILLI., .METRE. ) );
#375 = PERSON_AND_ORGANIZATION_ROLE ( 'classification_officer' ) ;
#376 = CC_DESIGN_APPROVAL ( #353, ( #232 ) ) ;
#377 = CALENDAR_DATE ( 2026, 22, 6 ) ;
#378 = CC_DESIGN_DATE_AND_TIME_ASSIGNMENT ( #117, #186, ( #205 ) ) ;
#379 = APPROVAL_ROLE ( '' ) ;
#380 = PERSON_AND_ORGANIZATION_ROLE ( 'design_supplier' ) ;
#381 = APPROVAL_STATUS ( 'not_yet_approved' ) ;
#382 = CC_DESIGN_APPROVAL ( #264, ( #361 ) ) ;
#383 = PERSON ( 'NAUO-PER124', 'UNSPECIFIED', 'UNSPECIFIED', ('UNSPECIFIED'), ('UNSPECIFIED'), ('UNSPECIFIED') ) ;
#384 = COORDINATED_UNIVERSAL_TIME_OFFSET ( 10, 0, .AHEAD. ) ;
#385 = PRODUCT_RELATED_PRODUCT_CATEGORY ( 'detail', '', ( #163 ) ) ;
#386 = DATE_AND_TIME ( #325, #189 ) ;
#387 = CC_DESIGN_APPROVAL ( #151, ( #124 ) ) ;
#388 = NEXT_ASSEMBLY_USAGE_OCCURRENCE ( 'NAUO122', ' ', ' ', #84, #311, $ ) ;
#389 = NEXT_ASSEMBLY_USAGE_OCCURRENCE ( 'NAUO123', ' ', ' ', #84, #311, $ ) ;
#390 = NEXT_ASSEMBLY_USAGE_OCCURRENCE ( 'NAUO124', ' ', ' ', #84, #361, $ ) ;
ENDSEC;
END-ISO-10303-21;
