ISO-10303-21;
HEADER;
FILE_DESCRIPTION (( 'STEP AP203' ),
    '1' );
FILE_NAME ('D3.step.STEP',
    '2026-06-22T08:49:55',
    ( 'localuser' ),
    ( '' ),
    'SwSTEP 2.0',
    'SolidWorks 2025',
    '' );
FILE_SCHEMA (( 'CONFIG_CONTROL_DESIGN' ));
ENDSEC;

DATA;
#1 = PERSON_AND_ORGANIZATION ( #163, #209 ) ;
#2 = DIRECTION ( 'NONE',  ( 1.000000000000000222, -1.092455418989176591E-28, 4.890937612370273194E-29 ) ) ;
#3 = APPROVAL ( #47, 'Coincident' ) ;
#4 = DOCUMENT_FILE ( '6325040192.step.STEP' , '', '', #89, '' ,$ ) ;
#5 = CARTESIAN_POINT ( 'NONE',  ( 15.74999719235400164, 5.427593505859001688, -1.734723475976807094E-15 ) ) ;
#6 = PERSON_AND_ORGANIZATION ( #18446744073709551615, #18446744073709551615 ) ;
#7 = APPLIED_EXTERNAL_IDENTIFICATION_ASSIGNMENT ( '6325040192.step.STEP' , #367, #349,( #4) ) ;
#8 = APPLICATION_PROTOCOL_DEFINITION ( 'international standard', 'config_control_design', 1994, #17 ) ;
#9 = SHAPE_DEFINITION_REPRESENTATION ( #196, #104 ) ;
#10 = PRODUCT_DEFINITION ( 'General', '', #281, #302 ) ;
#11 = DIRECTION ( 'NONE',  ( 1.000000000000000000, 0.000000000000000000, 0.000000000000000000 ) ) ;
#12 = DATE_TIME_ROLE ( 'creation_date' ) ;
#13 = COORDINATED_UNIVERSAL_TIME_OFFSET ( 10, 0, .AHEAD. ) ;
#14 = DATE_AND_TIME ( #166, #93 ) ;
#15 = LOCAL_TIME ( 18, 49, 55.00000000000000000, #351 ) ;
#16 = SECURITY_CLASSIFICATION_LEVEL ( 'unclassified' ) ;
#17 = APPLICATION_CONTEXT ( 'configuration controlled 3d designs of mechanical parts and assemblies' ) ;
#18 = DATE_AND_TIME ( #379, #74 ) ;
#19 = DATE_TIME_ROLE ( 'creation_date' ) ;
#20 = CALENDAR_DATE ( 2026, 22, 6 ) ;
#21 = SHAPE_DEFINITION_REPRESENTATION ( #109, #270 ) ;
#22 = PRODUCT_RELATED_PRODUCT_CATEGORY ( 'detail', '', ( #168 ) ) ;
#23 =( NAMED_UNIT ( * ) SI_UNIT ( $, .STERADIAN. ) SOLID_ANGLE_UNIT ( ) );
#24 = PERSON_AND_ORGANIZATION ( #239, #119 ) ;
#25 = CALENDAR_DATE ( 2026, 22, 6 ) ;
#26 = CC_DESIGN_APPROVAL ( #121, ( #10 ) ) ;
#27 =( NAMED_UNIT ( * ) SI_UNIT ( $, .STERADIAN. ) SOLID_ANGLE_UNIT ( ) );
#28 = APPLIED_EXTERNAL_IDENTIFICATION_ASSIGNMENT ( '11552553264.step.STEP' , #287, #181,( #53) ) ;
#29 = LOCAL_TIME ( 18, 49, 55.00000000000000000, #13 ) ;
#30 = CC_DESIGN_PERSON_AND_ORGANIZATION_ASSIGNMENT ( #373, #318, ( #203 ) ) ;
#31 = ITEM_DEFINED_TRANSFORMATION ( 'NONE', 'NONE', #60,  #131 ) ;
#32 = CARTESIAN_POINT ( 'NONE',  ( 15.74999719235400164, 6.102596557617003370, 0.000000000000000000 ) ) ;
#33 = CC_DESIGN_PERSON_AND_ORGANIZATION_ASSIGNMENT ( #1, #122, ( #341 ) ) ;
#34 = CALENDAR_DATE ( 2026, 22, 6 ) ;
#35 = APPROVAL_DATE_TIME ( #134, #121 ) ;
#36 = APPROVAL_PERSON_ORGANIZATION ( #75, #126, #111 ) ;
#37 = APPROVAL_ROLE ( '' ) ;
#38 = APPROVAL_DATE_TIME ( #314, #380 ) ;
#39 = AXIS2_PLACEMENT_3D ( 'NONE', #32, #279, #235 ) ;
#40 = CC_DESIGN_APPROVAL ( #184, ( #236 ) ) ;
#41 = APPROVAL_ROLE ( '' ) ;
#42 = PERSON_AND_ORGANIZATION ( #18446744073709551615, #18446744073709551615 ) ;
#43 = PROPERTY_DEFINITION ('external definition','', #4 ) ;
#44 = DATE_TIME_ROLE ( 'classification_date' ) ;
#45 = PRODUCT_DEFINITION_SHAPE ( 'NONE', 'NONE',  #388 ) ;
#46 = LOCAL_TIME ( 18, 49, 55.00000000000000000, #301 ) ;
#47 = APPROVAL_STATUS ( 'not_yet_approved' ) ;
#48 = DATE_AND_TIME ( #167, #29 ) ;
#49 = APPLIED_DOCUMENT_REFERENCE ( #371,'',( #236) ) ;
#50 = CC_DESIGN_PERSON_AND_ORGANIZATION_ASSIGNMENT ( #153, #280, ( #61 ) ) ;
#51 = CONTEXT_DEPENDENT_SHAPE_REPRESENTATION ( #243, #45 ) ;
#52 = PRODUCT_DEFINITION_FORMATION_WITH_SPECIFIED_SOURCE ( 'Symmetric', '', #168, .NOT_KNOWN. ) ;
#53 = DOCUMENT_FILE ( '11552553264.step.STEP' , '', '', #303, '' ,$ ) ;
#54 = CARTESIAN_POINT ( 'NONE',  ( 15.74999719235400164, 4.752598083496001991, 0.000000000000000000 ) ) ;
#55 = APPLICATION_CONTEXT ( 'configuration controlled 3d designs of mechanical parts and assemblies' ) ;
#56 = PROPERTY_DEFINITION_REPRESENTATION ( #198, #78 ) ;
#57 = UNCERTAINTY_MEASURE_WITH_UNIT (LENGTH_MEASURE( 1.000000000000000082E-05 ), #58, 'distance_accuracy_value', 'NONE');
#58 =( LENGTH_UNIT ( ) NAMED_UNIT ( * ) SI_UNIT ( .MILLI., .METRE. ) );
#59 = DATE_TIME_ROLE ( 'classification_date' ) ;
#60 = AXIS2_PLACEMENT_3D ( 'NONE', #54, #124, #247 ) ;
#61 = PRODUCT_DEFINITION ( 'General', '', #203, #174 ) ;
#62 = DIRECTION ( 'NONE',  ( 4.890937612370273194E-29, -3.155443620884047222E-30, 0.9999999999999997780 ) ) ;
#63 = CONTEXT_DEPENDENT_SHAPE_REPRESENTATION ( #343, #139 ) ;
#64 = DATE_AND_TIME ( #223, #82 ) ;
#65 = CALENDAR_DATE ( 2026, 22, 6 ) ;
#66 = CC_DESIGN_DATE_AND_TIME_ASSIGNMENT ( #123, #338, ( #275 ) ) ;
#67 = CC_DESIGN_SECURITY_CLASSIFICATION ( #221, ( #52 ) ) ;
#68 = PROPERTY_DEFINITION_REPRESENTATION ( #43, #270 ) ;
#69 = PERSON_AND_ORGANIZATION ( #18446744073709551615, #18446744073709551615 ) ;
#70 = PERSON_AND_ORGANIZATION ( #18446744073709551615, #18446744073709551615 ) ;
#71 = CC_DESIGN_DATE_AND_TIME_ASSIGNMENT ( #324, #19, ( #236 ) ) ;
#72 = APPROVAL_STATUS ( 'not_yet_approved' ) ;
#73 = PERSON ( 'NAUO-PER109', 'UNSPECIFIED', 'UNSPECIFIED', ('UNSPECIFIED'), ('UNSPECIFIED'), ('UNSPECIFIED') ) ;
#74 = LOCAL_TIME ( 18, 49, 55.00000000000000000, #294 ) ;
#75 = PERSON_AND_ORGANIZATION ( #18446744073709551615, #18446744073709551615 ) ;
#76 = PERSON_AND_ORGANIZATION ( #18446744073709551615, #18446744073709551615 ) ;
#77 = PROPERTY_DEFINITION ('document property','', #4 ) ;
#78 = SHAPE_REPRESENTATION ( '11552553264.step', ( #169 ), #175 ) ;
#79 = CC_DESIGN_PERSON_AND_ORGANIZATION_ASSIGNMENT ( #274, #372, ( #259 ) ) ;
#80 = SECURITY_CLASSIFICATION_LEVEL ( 'unclassified' ) ;
#81 = APPLICATION_CONTEXT ( 'configuration controlled 3d designs of mechanical parts and assemblies' ) ;
#82 = LOCAL_TIME ( 18, 49, 55.00000000000000000, #220 ) ;
#83 = LOCAL_TIME ( 18, 49, 55.00000000000000000, #244 ) ;
#84 = APPLICATION_PROTOCOL_DEFINITION ( 'international standard', 'config_control_design', 1994, #98 ) ;
#85 = DATE_AND_TIME ( #245, #304 ) ;
#86 = CC_DESIGN_PERSON_AND_ORGANIZATION_ASSIGNMENT ( #291, #354, ( #203 ) ) ;
#87 = ROLE_ASSOCIATION ( #201, #49 ) ;
#88 = PERSON_AND_ORGANIZATION_ROLE ( 'classification_officer' ) ;
#89 = DOCUMENT_TYPE ( 'geometry' ) ;
#90 = DATE_AND_TIME ( #149, #370 ) ;
#91 =( LENGTH_UNIT ( ) NAMED_UNIT ( * ) SI_UNIT ( .MILLI., .METRE. ) );
#92 = LOCAL_TIME ( 18, 49, 55.00000000000000000, #130 ) ;
#93 = LOCAL_TIME ( 18, 49, 55.00000000000000000, #267 ) ;
#94 = PERSON_AND_ORGANIZATION_ROLE ( 'classification_officer' ) ;
#95 = APPROVAL ( #357, 'Coincident' ) ;
#96 = PERSON_AND_ORGANIZATION ( #18446744073709551615, #18446744073709551615 ) ;
#97 = PERSON_AND_ORGANIZATION ( #18446744073709551615, #18446744073709551615 ) ;
#98 = APPLICATION_CONTEXT ( 'configuration controlled 3d designs of mechanical parts and assemblies' ) ;
#99 = CC_DESIGN_SECURITY_CLASSIFICATION ( #275, ( #390 ) ) ;
#100 = CC_DESIGN_PERSON_AND_ORGANIZATION_ASSIGNMENT ( #6, #160, ( #348 ) ) ;
#101 = APPROVAL_ROLE ( '' ) ;
#102 = COORDINATED_UNIVERSAL_TIME_OFFSET ( 10, 0, .AHEAD. ) ;
#103 = APPROVAL ( #182, 'UNKNOWN' ) ;
#104 = SHAPE_REPRESENTATION ( 'D3.step', ( #200, #39, #112, #60 ), #219 ) ;
#105 = PERSON_AND_ORGANIZATION ( #18446744073709551615, #18446744073709551615 ) ;
#106 = LOCAL_TIME ( 18, 49, 55.00000000000000000, #125 ) ;
#107 = PERSON_AND_ORGANIZATION ( #18446744073709551615, #18446744073709551615 ) ;
#108 = CC_DESIGN_PERSON_AND_ORGANIZATION_ASSIGNMENT ( #69, #308, ( #281 ) ) ;
#109 = PRODUCT_DEFINITION_SHAPE ( 'NONE', 'NONE',  #236 ) ;
#110 = APPROVAL_STATUS ( 'not_yet_approved' ) ;
#111 = APPROVAL_ROLE ( '' ) ;
#112 = AXIS2_PLACEMENT_3D ( 'NONE', #5, #62, #2 ) ;
#113 = SECURITY_CLASSIFICATION ( '', '', #80 ) ;
#114 = SHAPE_DEFINITION_REPRESENTATION ( #230, #78 ) ;
#115 = CC_DESIGN_DATE_AND_TIME_ASSIGNMENT ( #135, #258, ( #221 ) ) ;
#116 = COORDINATED_UNIVERSAL_TIME_OFFSET ( 10, 0, .AHEAD. ) ;
#117 = DIRECTION ( 'NONE',  ( 1.000000000000000000, 0.000000000000000000, 0.000000000000000000 ) ) ;
#118 = SECURITY_CLASSIFICATION_LEVEL ( 'unclassified' ) ;
#119 = ORGANIZATION ( 'NAUO-ORG107', 'UNSPECIFIED', 'UNSPECIFIED' ) ;
#120 = IDENTIFICATION_ROLE ( 'external document id and location', $) ;
#121 = APPROVAL ( #283, 'Coincident' ) ;
#122 = PERSON_AND_ORGANIZATION_ROLE ( 'classification_officer' ) ;
#123 = DATE_AND_TIME ( #361, #83 ) ;
#124 = DIRECTION ( 'NONE',  ( 4.890937612370273194E-29, -3.155443620884047222E-30, 0.9999999999999997780 ) ) ;
#125 = COORDINATED_UNIVERSAL_TIME_OFFSET ( 10, 0, .AHEAD. ) ;
#126 = APPROVAL ( #172, 'Coincident' ) ;
#127 = LOCAL_TIME ( 18, 49, 55.00000000000000000, #313 ) ;
#128 = DIRECTION ( 'NONE',  ( 0.000000000000000000, 0.000000000000000000, 1.000000000000000000 ) ) ;
#129 = APPLICATION_PROTOCOL_DEFINITION ( 'international standard', 'config_control_design', 1994, #81 ) ;
#130 = COORDINATED_UNIVERSAL_TIME_OFFSET ( 10, 0, .AHEAD. ) ;
#131 = AXIS2_PLACEMENT_3D ( 'NONE', #386, #271, #384 ) ;
#132 = CC_DESIGN_APPROVAL ( #208, ( #298 ) ) ;
#133 = PRODUCT_RELATED_PRODUCT_CATEGORY ( 'detail', '', ( #259 ) ) ;
#134 = DATE_AND_TIME ( #224, #254 ) ;
#135 = DATE_AND_TIME ( #347, #227 ) ;
#136 = PERSON_AND_ORGANIZATION_ROLE ( 'creator' ) ;
#137 = CC_DESIGN_APPROVAL ( #126, ( #203 ) ) ;
#138 = APPROVAL ( #278, 'UNKNOWN' ) ;
#139 = PRODUCT_DEFINITION_SHAPE ( 'NONE', 'NONE',  #390 ) ;
#140 = PERSON_AND_ORGANIZATION ( #18446744073709551615, #18446744073709551615 ) ;
#141 = APPLICATION_CONTEXT ( 'configuration controlled 3d designs of mechanical parts and assemblies' ) ;
#142 = CALENDAR_DATE ( 2026, 22, 6 ) ;
#143 = CC_DESIGN_PERSON_AND_ORGANIZATION_ASSIGNMENT ( #105, #136, ( #236 ) ) ;
#144 = PERSON_AND_ORGANIZATION_ROLE ( 'creator' ) ;
#145 = APPROVAL_PERSON_ORGANIZATION ( #1, #103, #151 ) ;
#146 = APPROVAL_ROLE ( '' ) ;
#147 = PROPERTY_DEFINITION_REPRESENTATION ( #252, #270 ) ;
#148 = ROLE_ASSOCIATION ( #323, #241 ) ;
#149 = CALENDAR_DATE ( 2026, 22, 6 ) ;
#150 = CC_DESIGN_SECURITY_CLASSIFICATION ( #375, ( #281 ) ) ;
#151 = APPROVAL_ROLE ( '' ) ;
#152 = CC_DESIGN_DATE_AND_TIME_ASSIGNMENT ( #339, #231, ( #61 ) ) ;
#153 = PERSON_AND_ORGANIZATION ( #18446744073709551615, #18446744073709551615 ) ;
#154 = CC_DESIGN_APPROVAL ( #330, ( #281 ) ) ;
#155 = CALENDAR_DATE ( 2026, 22, 6 ) ;
#156 = CC_DESIGN_SECURITY_CLASSIFICATION ( #341, ( #389 ) ) ;
#157 = PERSON_AND_ORGANIZATION_ROLE ( 'creator' ) ;
#158 = PERSON_AND_ORGANIZATION_ROLE ( 'classification_officer' ) ;
#159 = DOCUMENT_TYPE ( 'geometry' ) ;
#160 = PERSON_AND_ORGANIZATION_ROLE ( 'design_owner' ) ;
#161 = PERSON_AND_ORGANIZATION ( #18446744073709551615, #18446744073709551615 ) ;
#162 = LOCAL_TIME ( 18, 49, 55.00000000000000000, #197 ) ;
#163 = PERSON ( 'NAUO-PER108', 'UNSPECIFIED', 'UNSPECIFIED', ('UNSPECIFIED'), ('UNSPECIFIED'), ('UNSPECIFIED') ) ;
#164 = PERSON_AND_ORGANIZATION_ROLE ( 'design_supplier' ) ;
#165 = CC_DESIGN_PERSON_AND_ORGANIZATION_ASSIGNMENT ( #107, #144, ( #52 ) ) ;
#166 = CALENDAR_DATE ( 2026, 22, 6 ) ;
#167 = CALENDAR_DATE ( 2026, 22, 6 ) ;
#168 = PRODUCT ( '6325040192.step', '6325040192.step', '', ( #260 ) ) ;
#169 = AXIS2_PLACEMENT_3D ( 'NONE', #358, #277, #117 ) ;
#170 = LOCAL_TIME ( 18, 49, 55.00000000000000000, #116 ) ;
#171 = APPROVAL_ROLE ( '' ) ;
#172 = APPROVAL_STATUS ( 'not_yet_approved' ) ;
#173 = CC_DESIGN_DATE_AND_TIME_ASSIGNMENT ( #385, #59, ( #298 ) ) ;
#174 = DESIGN_CONTEXT ( 'detailed design', #17, 'design' ) ;
#175 =( GEOMETRIC_REPRESENTATION_CONTEXT ( 3 ) GLOBAL_UNCERTAINTY_ASSIGNED_CONTEXT ( ( #249 ) ) GLOBAL_UNIT_ASSIGNED_CONTEXT ( ( #91, #211, #213 ) ) REPRESENTATION_CONTEXT ( 'NONE', 'WORKASPACE' ) );
#176 = LOCAL_TIME ( 18, 49, 55.00000000000000000, #250 ) ;
#177 = COORDINATED_UNIVERSAL_TIME_OFFSET ( 10, 0, .AHEAD. ) ;
#178 = CC_DESIGN_PERSON_AND_ORGANIZATION_ASSIGNMENT ( #70, #251, ( #281 ) ) ;
#179 = APPROVAL_DATE_TIME ( #383, #95 ) ;
#180 =( NAMED_UNIT ( * ) PLANE_ANGLE_UNIT ( ) SI_UNIT ( $, .RADIAN. ) );
#181 = EXTERNAL_SOURCE (IDENTIFIER('') ) ;
#182 = APPROVAL_STATUS ( 'not_yet_approved' ) ;
#183 = MECHANICAL_CONTEXT ( 'NONE', #55, 'mechanical' ) ;
#184 = APPROVAL ( #378, 'Coincident' ) ;
#185 = ROLE_ASSOCIATION ( #297, #218 ) ;
#186 = DATE_AND_TIME ( #253, #248 ) ;
#187 = APPLICATION_PROTOCOL_DEFINITION ( 'international standard', 'config_control_design', 1994, #222 ) ;
#188 = APPROVAL_PERSON_ORGANIZATION ( #233, #3, #171 ) ;
#189 = DATE_TIME_ROLE ( 'classification_date' ) ;
#190 = CC_DESIGN_DATE_AND_TIME_ASSIGNMENT ( #186, #189, ( #375 ) ) ;
#191 = APPROVAL_ROLE ( '' ) ;
#192 = APPROVAL_DATE_TIME ( #14, #184 ) ;
#193 = APPROVAL_PERSON_ORGANIZATION ( #42, #184, #41 ) ;
#194 = CC_DESIGN_PERSON_AND_ORGANIZATION_ASSIGNMENT ( #161, #94, ( #375 ) ) ;
#195 = PERSON_AND_ORGANIZATION ( #18446744073709551615, #18446744073709551615 ) ;
#196 = PRODUCT_DEFINITION_SHAPE ( 'NONE', 'NONE',  #10 ) ;
#197 = COORDINATED_UNIVERSAL_TIME_OFFSET ( 10, 0, .AHEAD. ) ;
#198 = PROPERTY_DEFINITION ('external definition','', #53 ) ;
#199 = COORDINATED_UNIVERSAL_TIME_OFFSET ( 10, 0, .AHEAD. ) ;
#200 = AXIS2_PLACEMENT_3D ( 'NONE', #238, #128, #11 ) ;
#201 = OBJECT_ROLE ('mandatory',$ ) ;
#202 = CC_DESIGN_APPROVAL ( #138, ( #275 ) ) ;
#203 = PRODUCT_DEFINITION_FORMATION_WITH_SPECIFIED_SOURCE ( 'Symmetric', '', #348, .NOT_KNOWN. ) ;
#204 = PERSON_AND_ORGANIZATION_ROLE ( 'classification_officer' ) ;
#205 = APPROVAL_ROLE ( '' ) ;
#206 = PROPERTY_DEFINITION_REPRESENTATION ( #319, #78 ) ;
#207 =( GEOMETRIC_REPRESENTATION_CONTEXT ( 3 ) GLOBAL_UNCERTAINTY_ASSIGNED_CONTEXT ( ( #57 ) ) GLOBAL_UNIT_ASSIGNED_CONTEXT ( ( #58, #180, #27 ) ) REPRESENTATION_CONTEXT ( 'NONE', 'WORKASPACE' ) );
#208 = APPROVAL ( #273, 'UNKNOWN' ) ;
#209 = ORGANIZATION ( 'NAUO-ORG108', 'UNSPECIFIED', 'UNSPECIFIED' ) ;
#210 = CONTEXT_DEPENDENT_SHAPE_REPRESENTATION ( #362, #262 ) ;
#211 =( NAMED_UNIT ( * ) PLANE_ANGLE_UNIT ( ) SI_UNIT ( $, .RADIAN. ) );
#212 = COORDINATED_UNIVERSAL_TIME_OFFSET ( 10, 0, .AHEAD. ) ;
#213 =( NAMED_UNIT ( * ) SI_UNIT ( $, .STERADIAN. ) SOLID_ANGLE_UNIT ( ) );
#214 = CC_DESIGN_PERSON_AND_ORGANIZATION_ASSIGNMENT ( #320, #232, ( #168 ) ) ;
#215 = APPROVAL_PERSON_ORGANIZATION ( #76, #288, #377 ) ;
#216 = APPROVAL_DATE_TIME ( #366, #307 ) ;
#217 = PERSON_AND_ORGANIZATION ( #18446744073709551615, #18446744073709551615 ) ;
#218 = APPLIED_DOCUMENT_REFERENCE ( #4,'',( #236) ) ;
#219 =( GEOMETRIC_REPRESENTATION_CONTEXT ( 3 ) GLOBAL_UNCERTAINTY_ASSIGNED_CONTEXT ( ( #356 ) ) GLOBAL_UNIT_ASSIGNED_CONTEXT ( ( #242, #328, #23 ) ) REPRESENTATION_CONTEXT ( 'NONE', 'WORKASPACE' ) );
#220 = COORDINATED_UNIVERSAL_TIME_OFFSET ( 10, 0, .AHEAD. ) ;
#221 = SECURITY_CLASSIFICATION ( '', '', #16 ) ;
#222 = APPLICATION_CONTEXT ( 'configuration controlled 3d designs of mechanical parts and assemblies' ) ;
#223 = CALENDAR_DATE ( 2026, 22, 6 ) ;
#224 = CALENDAR_DATE ( 2026, 22, 6 ) ;
#225 = DATE_AND_TIME ( #263, #162 ) ;
#226 = APPROVAL_PERSON_ORGANIZATION ( #217, #380, #191 ) ;
#227 = LOCAL_TIME ( 18, 49, 55.00000000000000000, #292 ) ;
#228 = CC_DESIGN_PERSON_AND_ORGANIZATION_ASSIGNMENT ( #312, #158, ( #275 ) ) ;
#229 = PERSON_AND_ORGANIZATION_ROLE ( 'classification_officer' ) ;
#230 = PRODUCT_DEFINITION_SHAPE ( 'NONE', 'NONE',  #61 ) ;
#231 = DATE_TIME_ROLE ( 'creation_date' ) ;
#232 = PERSON_AND_ORGANIZATION_ROLE ( 'design_owner' ) ;
#233 = PERSON_AND_ORGANIZATION ( #18446744073709551615, #18446744073709551615 ) ;
#234 = SECURITY_CLASSIFICATION_LEVEL ( 'unclassified' ) ;
#235 = DIRECTION ( 'NONE',  ( 1.000000000000000222, -1.092455418989176591E-28, 4.890937612370273194E-29 ) ) ;
#236 = PRODUCT_DEFINITION ( 'General', '', #52, #335 ) ;
#237 = DATE_TIME_ROLE ( 'classification_date' ) ;
#238 = CARTESIAN_POINT ( 'NONE',  ( 0.000000000000000000, 0.000000000000000000, 0.000000000000000000 ) ) ;
#239 = PERSON ( 'NAUO-PER107', 'UNSPECIFIED', 'UNSPECIFIED', ('UNSPECIFIED'), ('UNSPECIFIED'), ('UNSPECIFIED') ) ;
#240 = CC_DESIGN_APPROVAL ( #95, ( #221 ) ) ;
#241 = APPLIED_DOCUMENT_REFERENCE ( #53,'',( #61) ) ;
#242 =( LENGTH_UNIT ( ) NAMED_UNIT ( * ) SI_UNIT ( .MILLI., .METRE. ) );
#243 =( REPRESENTATION_RELATIONSHIP ('NONE','NONE', #104, #270 ) REPRESENTATION_RELATIONSHIP_WITH_TRANSFORMATION ( #360 )SHAPE_REPRESENTATION_RELATIONSHIP( ) );
#244 = COORDINATED_UNIVERSAL_TIME_OFFSET ( 10, 0, .AHEAD. ) ;
#245 = CALENDAR_DATE ( 2026, 22, 6 ) ;
#246 = CC_DESIGN_DATE_AND_TIME_ASSIGNMENT ( #305, #237, ( #341 ) ) ;
#247 = DIRECTION ( 'NONE',  ( 1.000000000000000222, -1.092455418989176591E-28, 4.890937612370273194E-29 ) ) ;
#248 = LOCAL_TIME ( 18, 49, 55.00000000000000000, #340 ) ;
#249 = UNCERTAINTY_MEASURE_WITH_UNIT (LENGTH_MEASURE( 1.000000000000000082E-05 ), #91, 'distance_accuracy_value', 'NONE');
#250 = COORDINATED_UNIVERSAL_TIME_OFFSET ( 10, 0, .AHEAD. ) ;
#251 = PERSON_AND_ORGANIZATION_ROLE ( 'creator' ) ;
#252 = PROPERTY_DEFINITION ('external definition','', #371 ) ;
#253 = CALENDAR_DATE ( 2026, 22, 6 ) ;
#254 = LOCAL_TIME ( 18, 49, 55.00000000000000000, #102 ) ;
#255 = APPROVAL_PERSON_ORGANIZATION ( #311, #307, #37 ) ;
#256 = CC_DESIGN_PERSON_AND_ORGANIZATION_ASSIGNMENT ( #346, #229, ( #221 ) ) ;
#257 = MECHANICAL_CONTEXT ( 'NONE', #81, 'mechanical' ) ;
#258 = DATE_TIME_ROLE ( 'classification_date' ) ;
#259 = PRODUCT ( 'D3.step', 'D3.step', '', ( #183 ) ) ;
#260 = MECHANICAL_CONTEXT ( 'NONE', #141, 'mechanical' ) ;
#261 = CC_DESIGN_APPROVAL ( #380, ( #61 ) ) ;
#262 = PRODUCT_DEFINITION_SHAPE ( 'NONE', 'NONE',  #389 ) ;
#263 = CALENDAR_DATE ( 2026, 22, 6 ) ;
#264 = CC_DESIGN_DATE_AND_TIME_ASSIGNMENT ( #64, #12, ( #10 ) ) ;
#265 = APPLICATION_PROTOCOL_DEFINITION ( 'international standard', 'config_control_design', 1994, #141 ) ;
#266 = EXTERNAL_SOURCE (IDENTIFIER('') ) ;
#267 = COORDINATED_UNIVERSAL_TIME_OFFSET ( 10, 0, .AHEAD. ) ;
#268 = CALENDAR_DATE ( 2026, 22, 6 ) ;
#269 = APPLIED_EXTERNAL_IDENTIFICATION_ASSIGNMENT ( '6325040192.step.STEP' , #120, #266,( #371) ) ;
#270 = SHAPE_REPRESENTATION ( '6325040192.step', ( #131 ), #207 ) ;
#271 = DIRECTION ( 'NONE',  ( 0.000000000000000000, 0.000000000000000000, 1.000000000000000000 ) ) ;
#272 = SECURITY_CLASSIFICATION_LEVEL ( 'unclassified' ) ;
#273 = APPROVAL_STATUS ( 'not_yet_approved' ) ;
#274 = PERSON_AND_ORGANIZATION ( #18446744073709551615, #18446744073709551615 ) ;
#275 = SECURITY_CLASSIFICATION ( '', '', #118 ) ;
#276 = COORDINATED_UNIVERSAL_TIME_OFFSET ( 10, 0, .AHEAD. ) ;
#277 = DIRECTION ( 'NONE',  ( 0.000000000000000000, 0.000000000000000000, 1.000000000000000000 ) ) ;
#278 = APPROVAL_STATUS ( 'not_yet_approved' ) ;
#279 = DIRECTION ( 'NONE',  ( 4.890937612370273194E-29, -3.155443620884047222E-30, 0.9999999999999997780 ) ) ;
#280 = PERSON_AND_ORGANIZATION_ROLE ( 'creator' ) ;
#281 = PRODUCT_DEFINITION_FORMATION_WITH_SPECIFIED_SOURCE ( 'Symmetric', '', #259, .NOT_KNOWN. ) ;
#282 = APPROVAL_PERSON_ORGANIZATION ( #140, #95, #326 ) ;
#283 = APPROVAL_STATUS ( 'not_yet_approved' ) ;
#284 = CC_DESIGN_DATE_AND_TIME_ASSIGNMENT ( #18, #44, ( #113 ) ) ;
#285 = DATE_AND_TIME ( #34, #92 ) ;
#286 = APPROVAL_STATUS ( 'not_yet_approved' ) ;
#287 = IDENTIFICATION_ROLE ( 'external document id and location', $) ;
#288 = APPROVAL ( #110, 'Coincident' ) ;
#289 = APPROVAL_STATUS ( 'not_yet_approved' ) ;
#290 = APPROVAL_DATE_TIME ( #381, #288 ) ;
#291 = PERSON_AND_ORGANIZATION ( #18446744073709551615, #18446744073709551615 ) ;
#292 = COORDINATED_UNIVERSAL_TIME_OFFSET ( 10, 0, .AHEAD. ) ;
#293 = CC_DESIGN_SECURITY_CLASSIFICATION ( #298, ( #388 ) ) ;
#294 = COORDINATED_UNIVERSAL_TIME_OFFSET ( 10, 0, .AHEAD. ) ;
#295 = APPROVAL_DATE_TIME ( #48, #3 ) ;
#296 = APPROVAL_DATE_TIME ( #85, #138 ) ;
#297 = OBJECT_ROLE ('mandatory',$ ) ;
#298 = SECURITY_CLASSIFICATION ( '', '', #272 ) ;
#299 = CALENDAR_DATE ( 2026, 22, 6 ) ;
#300 = PROPERTY_DEFINITION_REPRESENTATION ( #365, #270 ) ;
#301 = COORDINATED_UNIVERSAL_TIME_OFFSET ( 10, 0, .AHEAD. ) ;
#302 = DESIGN_CONTEXT ( 'detailed design', #222, 'design' ) ;
#303 = DOCUMENT_TYPE ( 'geometry' ) ;
#304 = LOCAL_TIME ( 18, 49, 55.00000000000000000, #212 ) ;
#305 = DATE_AND_TIME ( #25, #170 ) ;
#306 = APPROVAL_ROLE ( '' ) ;
#307 = APPROVAL ( #289, 'Coincident' ) ;
#308 = PERSON_AND_ORGANIZATION_ROLE ( 'design_supplier' ) ;
#309 = CC_DESIGN_APPROVAL ( #307, ( #375 ) ) ;
#310 = PROPERTY_DEFINITION_REPRESENTATION ( #77, #270 ) ;
#311 = PERSON_AND_ORGANIZATION ( #18446744073709551615, #18446744073709551615 ) ;
#312 = PERSON_AND_ORGANIZATION ( #73, #353 ) ;
#313 = COORDINATED_UNIVERSAL_TIME_OFFSET ( 10, 0, .AHEAD. ) ;
#314 = DATE_AND_TIME ( #65, #106 ) ;
#315 = CC_DESIGN_PERSON_AND_ORGANIZATION_ASSIGNMENT ( #24, #88, ( #298 ) ) ;
#316 = LOCAL_TIME ( 18, 49, 55.00000000000000000, #276 ) ;
#317 = APPROVAL_DATE_TIME ( #225, #126 ) ;
#318 = PERSON_AND_ORGANIZATION_ROLE ( 'design_supplier' ) ;
#319 = PROPERTY_DEFINITION ('document property','', #53 ) ;
#320 = PERSON_AND_ORGANIZATION ( #18446744073709551615, #18446744073709551615 ) ;
#321 = CALENDAR_DATE ( 2026, 22, 6 ) ;
#322 = CC_DESIGN_APPROVAL ( #288, ( #113 ) ) ;
#323 = OBJECT_ROLE ('mandatory',$ ) ;
#324 = DATE_AND_TIME ( #321, #336 ) ;
#325 = CC_DESIGN_PERSON_AND_ORGANIZATION_ASSIGNMENT ( #195, #164, ( #52 ) ) ;
#326 = APPROVAL_ROLE ( '' ) ;
#327 = DATE_AND_TIME ( #268, #316 ) ;
#328 =( NAMED_UNIT ( * ) PLANE_ANGLE_UNIT ( ) SI_UNIT ( $, .RADIAN. ) );
#329 = APPROVAL_PERSON_ORGANIZATION ( #368, #330, #306 ) ;
#330 = APPROVAL ( #72, 'Coincident' ) ;
#331 = COORDINATED_UNIVERSAL_TIME_OFFSET ( 10, 0, .AHEAD. ) ;
#332 = APPLICATION_PROTOCOL_DEFINITION ( 'international standard', 'config_control_design', 1994, #55 ) ;
#333 = APPROVAL_DATE_TIME ( #90, #103 ) ;
#334 = ITEM_DEFINED_TRANSFORMATION ( 'NONE', 'NONE', #112,  #169 ) ;
#335 = DESIGN_CONTEXT ( 'detailed design', #98, 'design' ) ;
#336 = LOCAL_TIME ( 18, 49, 55.00000000000000000, #199 ) ;
#337 = CC_DESIGN_PERSON_AND_ORGANIZATION_ASSIGNMENT ( #97, #157, ( #10 ) ) ;
#338 = DATE_TIME_ROLE ( 'classification_date' ) ;
#339 = DATE_AND_TIME ( #364, #176 ) ;
#340 = COORDINATED_UNIVERSAL_TIME_OFFSET ( 10, 0, .AHEAD. ) ;
#341 = SECURITY_CLASSIFICATION ( '', '', #234 ) ;
#342 = SECURITY_CLASSIFICATION_LEVEL ( 'unclassified' ) ;
#343 =( REPRESENTATION_RELATIONSHIP ('NONE','NONE', #104, #270 ) REPRESENTATION_RELATIONSHIP_WITH_TRANSFORMATION ( #31 )SHAPE_REPRESENTATION_RELATIONSHIP( ) );
#344 = APPROVAL_DATE_TIME ( #285, #330 ) ;
#345 = APPROVAL_PERSON_ORGANIZATION ( #24, #208, #205 ) ;
#346 = PERSON_AND_ORGANIZATION ( #18446744073709551615, #18446744073709551615 ) ;
#347 = CALENDAR_DATE ( 2026, 22, 6 ) ;
#348 = PRODUCT ( '11552553264.step', '11552553264.step', '', ( #257 ) ) ;
#349 = EXTERNAL_SOURCE (IDENTIFIER('') ) ;
#350 = PERSON_AND_ORGANIZATION ( #18446744073709551615, #18446744073709551615 ) ;
#351 = COORDINATED_UNIVERSAL_TIME_OFFSET ( 10, 0, .AHEAD. ) ;
#352 = CC_DESIGN_PERSON_AND_ORGANIZATION_ASSIGNMENT ( #350, #204, ( #113 ) ) ;
#353 = ORGANIZATION ( 'NAUO-ORG109', 'UNSPECIFIED', 'UNSPECIFIED' ) ;
#354 = PERSON_AND_ORGANIZATION_ROLE ( 'creator' ) ;
#355 = APPROVAL_DATE_TIME ( #327, #208 ) ;
#356 = UNCERTAINTY_MEASURE_WITH_UNIT (LENGTH_MEASURE( 1.000000000000000082E-05 ), #242, 'distance_accuracy_value', 'NONE');
#357 = APPROVAL_STATUS ( 'not_yet_approved' ) ;
#358 = CARTESIAN_POINT ( 'NONE',  ( 0.000000000000000000, 0.000000000000000000, 0.000000000000000000 ) ) ;
#359 = CC_DESIGN_SECURITY_CLASSIFICATION ( #113, ( #203 ) ) ;
#360 = ITEM_DEFINED_TRANSFORMATION ( 'NONE', 'NONE', #39,  #131 ) ;
#361 = CALENDAR_DATE ( 2026, 22, 6 ) ;
#362 =( REPRESENTATION_RELATIONSHIP ('NONE','NONE', #104, #78 ) REPRESENTATION_RELATIONSHIP_WITH_TRANSFORMATION ( #334 )SHAPE_REPRESENTATION_RELATIONSHIP( ) );
#363 = APPROVAL_PERSON_ORGANIZATION ( #312, #138, #146 ) ;
#364 = CALENDAR_DATE ( 2026, 22, 6 ) ;
#365 = PROPERTY_DEFINITION ('document property','', #371 ) ;
#366 = DATE_AND_TIME ( #155, #127 ) ;
#367 = IDENTIFICATION_ROLE ( 'external document id and location', $) ;
#368 = PERSON_AND_ORGANIZATION ( #18446744073709551615, #18446744073709551615 ) ;
#369 = APPROVAL_PERSON_ORGANIZATION ( #96, #121, #101 ) ;
#370 = LOCAL_TIME ( 18, 49, 55.00000000000000000, #177 ) ;
#371 = DOCUMENT_FILE ( '6325040192.step.STEP' , '', '', #159, '' ,$ ) ;
#372 = PERSON_AND_ORGANIZATION_ROLE ( 'design_owner' ) ;
#373 = PERSON_AND_ORGANIZATION ( #18446744073709551615, #18446744073709551615 ) ;
#374 = PRODUCT_RELATED_PRODUCT_CATEGORY ( 'detail', '', ( #348 ) ) ;
#375 = SECURITY_CLASSIFICATION ( '', '', #342 ) ;
#376 = CC_DESIGN_APPROVAL ( #103, ( #341 ) ) ;
#377 = APPROVAL_ROLE ( '' ) ;
#378 = APPROVAL_STATUS ( 'not_yet_approved' ) ;
#379 = CALENDAR_DATE ( 2026, 22, 6 ) ;
#380 = APPROVAL ( #286, 'Coincident' ) ;
#381 = DATE_AND_TIME ( #142, #15 ) ;
#382 = LOCAL_TIME ( 18, 49, 55.00000000000000000, #331 ) ;
#383 = DATE_AND_TIME ( #299, #382 ) ;
#384 = DIRECTION ( 'NONE',  ( 1.000000000000000000, 0.000000000000000000, 0.000000000000000000 ) ) ;
#385 = DATE_AND_TIME ( #20, #46 ) ;
#386 = CARTESIAN_POINT ( 'NONE',  ( 0.000000000000000000, 0.000000000000000000, 0.000000000000000000 ) ) ;
#387 = CC_DESIGN_APPROVAL ( #3, ( #52 ) ) ;
#388 = NEXT_ASSEMBLY_USAGE_OCCURRENCE ( 'NAUO107', ' ', ' ', #10, #236, $ ) ;
#389 = NEXT_ASSEMBLY_USAGE_OCCURRENCE ( 'NAUO108', ' ', ' ', #10, #61, $ ) ;
#390 = NEXT_ASSEMBLY_USAGE_OCCURRENCE ( 'NAUO109', ' ', ' ', #10, #236, $ ) ;
ENDSEC;
END-ISO-10303-21;
