ISO-10303-21;
HEADER;
FILE_DESCRIPTION (( 'STEP AP203' ),
    '1' );
FILE_NAME ('D4.step.STEP',
    '2026-06-22T08:49:56',
    ( 'localuser' ),
    ( '' ),
    'SwSTEP 2.0',
    'SolidWorks 2025',
    '' );
FILE_SCHEMA (( 'CONFIG_CONTROL_DESIGN' ));
ENDSEC;

DATA;
#1 = DATE_AND_TIME ( #22, #218 ) ;
#2 = CC_DESIGN_PERSON_AND_ORGANIZATION_ASSIGNMENT ( #110, #287, ( #348 ) ) ;
#3 = PERSON_AND_ORGANIZATION ( #18446744073709551615, #18446744073709551615 ) ;
#4 = DATE_AND_TIME ( #249, #73 ) ;
#5 = APPROVAL ( #382, 'Coincident' ) ;
#6 = APPROVAL_DATE_TIME ( #232, #231 ) ;
#7 = DIRECTION ( 'NONE',  ( 1.000000000000000222, -1.092455418989176591E-28, 4.890937612370273194E-29 ) ) ;
#8 = ROLE_ASSOCIATION ( #294, #275 ) ;
#9 = APPLIED_EXTERNAL_IDENTIFICATION_ASSIGNMENT ( '6325040192.step.STEP' , #16, #52,( #152) ) ;
#10 = PERSON_AND_ORGANIZATION_ROLE ( 'creator' ) ;
#11 = COORDINATED_UNIVERSAL_TIME_OFFSET ( 10, 0, .AHEAD. ) ;
#12 = CALENDAR_DATE ( 2026, 22, 6 ) ;
#13 = APPROVAL ( #136, 'Coincident' ) ;
#14 = APPROVAL_PERSON_ORGANIZATION ( #141, #135, #82 ) ;
#15 = APPROVAL_ROLE ( '' ) ;
#16 = IDENTIFICATION_ROLE ( 'external document id and location', $) ;
#17 = APPLICATION_PROTOCOL_DEFINITION ( 'international standard', 'config_control_design', 1994, #159 ) ;
#18 = MECHANICAL_CONTEXT ( 'NONE', #176, 'mechanical' ) ;
#19 = DATE_AND_TIME ( #334, #132 ) ;
#20 = LOCAL_TIME ( 18, 49, 56.00000000000000000, #322 ) ;
#21 =( LENGTH_UNIT ( ) NAMED_UNIT ( * ) SI_UNIT ( .MILLI., .METRE. ) );
#22 = CALENDAR_DATE ( 2026, 22, 6 ) ;
#23 = SHAPE_DEFINITION_REPRESENTATION ( #105, #90 ) ;
#24 = CC_DESIGN_DATE_AND_TIME_ASSIGNMENT ( #1, #203, ( #221 ) ) ;
#25 = PERSON_AND_ORGANIZATION_ROLE ( 'creator' ) ;
#26 = PRODUCT_DEFINITION_FORMATION_WITH_SPECIFIED_SOURCE ( 'Symmetric', '', #256, .NOT_KNOWN. ) ;
#27 = SECURITY_CLASSIFICATION ( '', '', #307 ) ;
#28 = APPLIED_EXTERNAL_IDENTIFICATION_ASSIGNMENT ( '6325040192.step.STEP' , #361, #342,( #115) ) ;
#29 = COORDINATED_UNIVERSAL_TIME_OFFSET ( 10, 0, .AHEAD. ) ;
#30 =( NAMED_UNIT ( * ) PLANE_ANGLE_UNIT ( ) SI_UNIT ( $, .RADIAN. ) );
#31 = PRODUCT_RELATED_PRODUCT_CATEGORY ( 'detail', '', ( #256 ) ) ;
#32 = PERSON_AND_ORGANIZATION ( #65, #207 ) ;
#33 = PERSON_AND_ORGANIZATION ( #18446744073709551615, #18446744073709551615 ) ;
#34 = LOCAL_TIME ( 18, 49, 56.00000000000000000, #85 ) ;
#35 = DIRECTION ( 'NONE',  ( 4.890937612370273194E-29, -3.155443620884047222E-30, 0.9999999999999997780 ) ) ;
#36 = DOCUMENT_TYPE ( 'geometry' ) ;
#37 = PERSON_AND_ORGANIZATION_ROLE ( 'design_owner' ) ;
#38 = CC_DESIGN_PERSON_AND_ORGANIZATION_ASSIGNMENT ( #263, #184, ( #165 ) ) ;
#39 = PERSON_AND_ORGANIZATION ( #18446744073709551615, #18446744073709551615 ) ;
#40 = APPROVAL_ROLE ( '' ) ;
#41 = PRODUCT_DEFINITION ( 'General', '', #387, #169 ) ;
#42 = COORDINATED_UNIVERSAL_TIME_OFFSET ( 10, 0, .AHEAD. ) ;
#43 = PRODUCT_DEFINITION_SHAPE ( 'NONE', 'NONE',  #388 ) ;
#44 = ORGANIZATION ( 'NAUO-ORG119', 'UNSPECIFIED', 'UNSPECIFIED' ) ;
#45 = COORDINATED_UNIVERSAL_TIME_OFFSET ( 10, 0, .AHEAD. ) ;
#46 = SECURITY_CLASSIFICATION_LEVEL ( 'unclassified' ) ;
#47 = APPROVAL_DATE_TIME ( #145, #135 ) ;
#48 = COORDINATED_UNIVERSAL_TIME_OFFSET ( 10, 0, .AHEAD. ) ;
#49 = SECURITY_CLASSIFICATION ( '', '', #46 ) ;
#50 = CALENDAR_DATE ( 2026, 22, 6 ) ;
#51 = CC_DESIGN_PERSON_AND_ORGANIZATION_ASSIGNMENT ( #374, #61, ( #26 ) ) ;
#52 = EXTERNAL_SOURCE (IDENTIFIER('') ) ;
#53 = APPLIED_DOCUMENT_REFERENCE ( #154,'',( #221) ) ;
#54 = CC_DESIGN_APPROVAL ( #312, ( #26 ) ) ;
#55 =( NAMED_UNIT ( * ) PLANE_ANGLE_UNIT ( ) SI_UNIT ( $, .RADIAN. ) );
#56 = APPROVAL_PERSON_ORGANIZATION ( #70, #119, #168 ) ;
#57 = CONTEXT_DEPENDENT_SHAPE_REPRESENTATION ( #98, #103 ) ;
#58 = DATE_AND_TIME ( #124, #353 ) ;
#59 = PRODUCT_DEFINITION ( 'General', '', #26, #360 ) ;
#60 = DIRECTION ( 'NONE',  ( 1.000000000000000000, 0.000000000000000000, 0.000000000000000000 ) ) ;
#61 = PERSON_AND_ORGANIZATION_ROLE ( 'creator' ) ;
#62 = ORGANIZATION ( 'NAUO-ORG120', 'UNSPECIFIED', 'UNSPECIFIED' ) ;
#63 = ITEM_DEFINED_TRANSFORMATION ( 'NONE', 'NONE', #114,  #329 ) ;
#64 = COORDINATED_UNIVERSAL_TIME_OFFSET ( 10, 0, .AHEAD. ) ;
#65 = PERSON ( 'NAUO-PER121', 'UNSPECIFIED', 'UNSPECIFIED', ('UNSPECIFIED'), ('UNSPECIFIED'), ('UNSPECIFIED') ) ;
#66 = LOCAL_TIME ( 18, 49, 56.00000000000000000, #304 ) ;
#67 = APPROVAL ( #131, 'Coincident' ) ;
#68 = APPROVAL_DATE_TIME ( #345, #337 ) ;
#69 = SHAPE_REPRESENTATION ( 'D4.step', ( #166, #172, #185, #114 ), #343 ) ;
#70 = PERSON_AND_ORGANIZATION ( #18446744073709551615, #18446744073709551615 ) ;
#71 = APPROVAL_STATUS ( 'not_yet_approved' ) ;
#72 = IDENTIFICATION_ROLE ( 'external document id and location', $) ;
#73 = LOCAL_TIME ( 18, 49, 56.00000000000000000, #64 ) ;
#74 = CC_DESIGN_SECURITY_CLASSIFICATION ( #27, ( #390 ) ) ;
#75 = SHAPE_DEFINITION_REPRESENTATION ( #226, #139 ) ;
#76 = CC_DESIGN_PERSON_AND_ORGANIZATION_ASSIGNMENT ( #33, #10, ( #59 ) ) ;
#77 = APPROVAL_DATE_TIME ( #241, #291 ) ;
#78 = UNCERTAINTY_MEASURE_WITH_UNIT (LENGTH_MEASURE( 1.000000000000000082E-05 ), #297, 'distance_accuracy_value', 'NONE');
#79 = PERSON_AND_ORGANIZATION ( #18446744073709551615, #18446744073709551615 ) ;
#80 = PERSON_AND_ORGANIZATION ( #18446744073709551615, #18446744073709551615 ) ;
#81 = LOCAL_TIME ( 18, 49, 56.00000000000000000, #95 ) ;
#82 = APPROVAL_ROLE ( '' ) ;
#83 = CC_DESIGN_DATE_AND_TIME_ASSIGNMENT ( #58, #208, ( #27 ) ) ;
#84 = CC_DESIGN_SECURITY_CLASSIFICATION ( #49, ( #387 ) ) ;
#85 = COORDINATED_UNIVERSAL_TIME_OFFSET ( 10, 0, .AHEAD. ) ;
#86 = CALENDAR_DATE ( 2026, 22, 6 ) ;
#87 = DIRECTION ( 'NONE',  ( 0.000000000000000000, 0.000000000000000000, 1.000000000000000000 ) ) ;
#88 = DATE_TIME_ROLE ( 'classification_date' ) ;
#89 = PRODUCT_DEFINITION_FORMATION_WITH_SPECIFIED_SOURCE ( 'Symmetric', '', #165, .NOT_KNOWN. ) ;
#90 = SHAPE_REPRESENTATION ( '11552553264.step', ( #200 ), #265 ) ;
#91 = PROPERTY_DEFINITION_REPRESENTATION ( #286, #139 ) ;
#92 = DESIGN_CONTEXT ( 'detailed design', #280, 'design' ) ;
#93 = DATE_AND_TIME ( #366, #116 ) ;
#94 = ROLE_ASSOCIATION ( #349, #363 ) ;
#95 = COORDINATED_UNIVERSAL_TIME_OFFSET ( 10, 0, .AHEAD. ) ;
#96 = PERSON_AND_ORGANIZATION ( #18446744073709551615, #18446744073709551615 ) ;
#97 = CC_DESIGN_PERSON_AND_ORGANIZATION_ASSIGNMENT ( #187, #378, ( #387 ) ) ;
#98 =( REPRESENTATION_RELATIONSHIP ('NONE','NONE', #69, #139 ) REPRESENTATION_RELATIONSHIP_WITH_TRANSFORMATION ( #171 )SHAPE_REPRESENTATION_RELATIONSHIP( ) );
#99 =( REPRESENTATION_RELATIONSHIP ('NONE','NONE', #69, #139 ) REPRESENTATION_RELATIONSHIP_WITH_TRANSFORMATION ( #63 )SHAPE_REPRESENTATION_RELATIONSHIP( ) );
#100 =( NAMED_UNIT ( * ) SI_UNIT ( $, .STERADIAN. ) SOLID_ANGLE_UNIT ( ) );
#101 = DATE_TIME_ROLE ( 'classification_date' ) ;
#102 = LOCAL_TIME ( 18, 49, 56.00000000000000000, #284 ) ;
#103 = PRODUCT_DEFINITION_SHAPE ( 'NONE', 'NONE',  #389 ) ;
#104 = COORDINATED_UNIVERSAL_TIME_OFFSET ( 10, 0, .AHEAD. ) ;
#105 = PRODUCT_DEFINITION_SHAPE ( 'NONE', 'NONE',  #221 ) ;
#106 = CALENDAR_DATE ( 2026, 22, 6 ) ;
#107 = PERSON_AND_ORGANIZATION ( #18446744073709551615, #18446744073709551615 ) ;
#108 = CC_DESIGN_PERSON_AND_ORGANIZATION_ASSIGNMENT ( #80, #37, ( #256 ) ) ;
#109 = APPROVAL_PERSON_ORGANIZATION ( #211, #231, #179 ) ;
#110 = PERSON_AND_ORGANIZATION ( #18446744073709551615, #18446744073709551615 ) ;
#111 = PERSON_AND_ORGANIZATION_ROLE ( 'classification_officer' ) ;
#112 = CC_DESIGN_DATE_AND_TIME_ASSIGNMENT ( #354, #101, ( #49 ) ) ;
#113 = CALENDAR_DATE ( 2026, 22, 6 ) ;
#114 = AXIS2_PLACEMENT_3D ( 'NONE', #276, #35, #314 ) ;
#115 = DOCUMENT_FILE ( '6325040192.step.STEP' , '', '', #371, '' ,$ ) ;
#116 = LOCAL_TIME ( 18, 49, 56.00000000000000000, #277 ) ;
#117 = APPROVAL_ROLE ( '' ) ;
#118 = COORDINATED_UNIVERSAL_TIME_OFFSET ( 10, 0, .AHEAD. ) ;
#119 = APPROVAL ( #71, 'Coincident' ) ;
#120 = PERSON_AND_ORGANIZATION_ROLE ( 'design_supplier' ) ;
#121 = LOCAL_TIME ( 18, 49, 56.00000000000000000, #42 ) ;
#122 = UNCERTAINTY_MEASURE_WITH_UNIT (LENGTH_MEASURE( 1.000000000000000082E-05 ), #21, 'distance_accuracy_value', 'NONE');
#123 =( NAMED_UNIT ( * ) SI_UNIT ( $, .STERADIAN. ) SOLID_ANGLE_UNIT ( ) );
#124 = CALENDAR_DATE ( 2026, 22, 6 ) ;
#125 = DATE_TIME_ROLE ( 'classification_date' ) ;
#126 = APPROVAL_DATE_TIME ( #161, #237 ) ;
#127 = CC_DESIGN_APPROVAL ( #379, ( #27 ) ) ;
#128 = PERSON_AND_ORGANIZATION ( #18446744073709551615, #18446744073709551615 ) ;
#129 = PERSON_AND_ORGANIZATION ( #18446744073709551615, #18446744073709551615 ) ;
#130 = CC_DESIGN_DATE_AND_TIME_ASSIGNMENT ( #205, #88, ( #182 ) ) ;
#131 = APPROVAL_STATUS ( 'not_yet_approved' ) ;
#132 = LOCAL_TIME ( 18, 49, 56.00000000000000000, #300 ) ;
#133 = APPROVAL_ROLE ( '' ) ;
#134 = APPLICATION_CONTEXT ( 'configuration controlled 3d designs of mechanical parts and assemblies' ) ;
#135 = APPROVAL ( #198, 'Coincident' ) ;
#136 = APPROVAL_STATUS ( 'not_yet_approved' ) ;
#137 = APPROVAL_DATE_TIME ( #321, #5 ) ;
#138 = UNCERTAINTY_MEASURE_WITH_UNIT (LENGTH_MEASURE( 1.000000000000000082E-05 ), #283, 'distance_accuracy_value', 'NONE');
#139 = SHAPE_REPRESENTATION ( '6325040192.step', ( #329 ), #153 ) ;
#140 = COORDINATED_UNIVERSAL_TIME_OFFSET ( 10, 0, .AHEAD. ) ;
#141 = PERSON_AND_ORGANIZATION ( #18446744073709551615, #18446744073709551615 ) ;
#142 = ROLE_ASSOCIATION ( #324, #53 ) ;
#143 = APPROVAL_PERSON_ORGANIZATION ( #246, #237, #217 ) ;
#144 = APPROVAL_PERSON_ORGANIZATION ( #292, #13, #40 ) ;
#145 = DATE_AND_TIME ( #113, #186 ) ;
#146 = CC_DESIGN_SECURITY_CLASSIFICATION ( #182, ( #389 ) ) ;
#147 = SECURITY_CLASSIFICATION_LEVEL ( 'unclassified' ) ;
#148 = CC_DESIGN_PERSON_AND_ORGANIZATION_ASSIGNMENT ( #3, #195, ( #274 ) ) ;
#149 = MECHANICAL_CONTEXT ( 'NONE', #134, 'mechanical' ) ;
#150 = PROPERTY_DEFINITION_REPRESENTATION ( #320, #139 ) ;
#151 = COORDINATED_UNIVERSAL_TIME_OFFSET ( 10, 0, .AHEAD. ) ;
#152 = DOCUMENT_FILE ( '6325040192.step.STEP' , '', '', #36, '' ,$ ) ;
#153 =( GEOMETRIC_REPRESENTATION_CONTEXT ( 3 ) GLOBAL_UNCERTAINTY_ASSIGNED_CONTEXT ( ( #78 ) ) GLOBAL_UNIT_ASSIGNED_CONTEXT ( ( #297, #234, #100 ) ) REPRESENTATION_CONTEXT ( 'NONE', 'WORKASPACE' ) );
#154 = DOCUMENT_FILE ( '11552553264.step.STEP' , '', '', #219, '' ,$ ) ;
#155 = SECURITY_CLASSIFICATION ( '', '', #233 ) ;
#156 = CC_DESIGN_PERSON_AND_ORGANIZATION_ASSIGNMENT ( #174, #111, ( #155 ) ) ;
#157 = APPLICATION_PROTOCOL_DEFINITION ( 'international standard', 'config_control_design', 1994, #262 ) ;
#158 = PERSON_AND_ORGANIZATION_ROLE ( 'classification_officer' ) ;
#159 = APPLICATION_CONTEXT ( 'configuration controlled 3d designs of mechanical parts and assemblies' ) ;
#160 = APPROVAL_STATUS ( 'not_yet_approved' ) ;
#161 = DATE_AND_TIME ( #183, #81 ) ;
#162 = APPROVAL_STATUS ( 'not_yet_approved' ) ;
#163 = CALENDAR_DATE ( 2026, 22, 6 ) ;
#164 = APPROVAL_ROLE ( '' ) ;
#165 = PRODUCT ( '11552553264.step', '11552553264.step', '', ( #18 ) ) ;
#166 = AXIS2_PLACEMENT_3D ( 'NONE', #364, #242, #60 ) ;
#167 = APPROVAL_PERSON_ORGANIZATION ( #327, #319, #296 ) ;
#168 = APPROVAL_ROLE ( '' ) ;
#169 = DESIGN_CONTEXT ( 'detailed design', #159, 'design' ) ;
#170 = DATE_AND_TIME ( #106, #20 ) ;
#171 = ITEM_DEFINED_TRANSFORMATION ( 'NONE', 'NONE', #185,  #329 ) ;
#172 = AXIS2_PLACEMENT_3D ( 'NONE', #220, #315, #222 ) ;
#173 = APPROVAL_STATUS ( 'not_yet_approved' ) ;
#174 = PERSON_AND_ORGANIZATION ( #332, #44 ) ;
#175 = PERSON_AND_ORGANIZATION_ROLE ( 'design_supplier' ) ;
#176 = APPLICATION_CONTEXT ( 'configuration controlled 3d designs of mechanical parts and assemblies' ) ;
#177 = APPROVAL_PERSON_ORGANIZATION ( #32, #379, #213 ) ;
#178 = PROPERTY_DEFINITION_REPRESENTATION ( #259, #139 ) ;
#179 = APPROVAL_ROLE ( '' ) ;
#180 = CC_DESIGN_DATE_AND_TIME_ASSIGNMENT ( #93, #125, ( #281 ) ) ;
#181 = PERSON ( 'NAUO-PER120', 'UNSPECIFIED', 'UNSPECIFIED', ('UNSPECIFIED'), ('UNSPECIFIED'), ('UNSPECIFIED') ) ;
#182 = SECURITY_CLASSIFICATION ( '', '', #303 ) ;
#183 = CALENDAR_DATE ( 2026, 22, 6 ) ;
#184 = PERSON_AND_ORGANIZATION_ROLE ( 'design_owner' ) ;
#185 = AXIS2_PLACEMENT_3D ( 'NONE', #311, #369, #7 ) ;
#186 = LOCAL_TIME ( 18, 49, 56.00000000000000000, #272 ) ;
#187 = PERSON_AND_ORGANIZATION ( #18446744073709551615, #18446744073709551615 ) ;
#188 = PRODUCT_DEFINITION_SHAPE ( 'NONE', 'NONE',  #59 ) ;
#189 = CALENDAR_DATE ( 2026, 22, 6 ) ;
#190 = PRODUCT_RELATED_PRODUCT_CATEGORY ( 'detail', '', ( #348 ) ) ;
#191 = PROPERTY_DEFINITION ('document property','', #152 ) ;
#192 = PERSON_AND_ORGANIZATION ( #18446744073709551615, #18446744073709551615 ) ;
#193 = LOCAL_TIME ( 18, 49, 56.00000000000000000, #151 ) ;
#194 =( REPRESENTATION_RELATIONSHIP ('NONE','NONE', #69, #90 ) REPRESENTATION_RELATIONSHIP_WITH_TRANSFORMATION ( #357 )SHAPE_REPRESENTATION_RELATIONSHIP( ) );
#195 = PERSON_AND_ORGANIZATION_ROLE ( 'classification_officer' ) ;
#196 = LOCAL_TIME ( 18, 49, 56.00000000000000000, #140 ) ;
#197 = PERSON_AND_ORGANIZATION_ROLE ( 'creator' ) ;
#198 = APPROVAL_STATUS ( 'not_yet_approved' ) ;
#199 = DATE_AND_TIME ( #266, #270 ) ;
#200 = AXIS2_PLACEMENT_3D ( 'NONE', #238, #87, #206 ) ;
#201 = APPROVAL_PERSON_ORGANIZATION ( #174, #291, #117 ) ;
#202 = DIRECTION ( 'NONE',  ( 1.000000000000000000, 0.000000000000000000, 0.000000000000000000 ) ) ;
#203 = DATE_TIME_ROLE ( 'creation_date' ) ;
#204 = CC_DESIGN_PERSON_AND_ORGANIZATION_ASSIGNMENT ( #267, #175, ( #89 ) ) ;
#205 = DATE_AND_TIME ( #86, #196 ) ;
#206 = DIRECTION ( 'NONE',  ( 1.000000000000000000, 0.000000000000000000, 0.000000000000000000 ) ) ;
#207 = ORGANIZATION ( 'NAUO-ORG121', 'UNSPECIFIED', 'UNSPECIFIED' ) ;
#208 = DATE_TIME_ROLE ( 'classification_date' ) ;
#209 = CARTESIAN_POINT ( 'NONE',  ( 0.000000000000000000, 0.000000000000000000, 0.000000000000000000 ) ) ;
#210 = CC_DESIGN_PERSON_AND_ORGANIZATION_ASSIGNMENT ( #211, #368, ( #182 ) ) ;
#211 = PERSON_AND_ORGANIZATION ( #181, #62 ) ;
#212 = PERSON_AND_ORGANIZATION ( #18446744073709551615, #18446744073709551615 ) ;
#213 = APPROVAL_ROLE ( '' ) ;
#214 = DATE_TIME_ROLE ( 'creation_date' ) ;
#215 = APPROVAL_STATUS ( 'not_yet_approved' ) ;
#216 = APPROVAL_PERSON_ORGANIZATION ( #39, #337, #15 ) ;
#217 = APPROVAL_ROLE ( '' ) ;
#218 = LOCAL_TIME ( 18, 49, 56.00000000000000000, #356 ) ;
#219 = DOCUMENT_TYPE ( 'geometry' ) ;
#220 = CARTESIAN_POINT ( 'NONE',  ( 15.80000024411100767, 11.19999340820300304, 0.000000000000000000 ) ) ;
#221 = PRODUCT_DEFINITION ( 'General', '', #89, #92 ) ;
#222 = DIRECTION ( 'NONE',  ( 1.000000000000000222, -1.092455418989176591E-28, 4.890937612370273194E-29 ) ) ;
#223 = CALENDAR_DATE ( 2026, 22, 6 ) ;
#224 = CC_DESIGN_SECURITY_CLASSIFICATION ( #281, ( #26 ) ) ;
#225 = COORDINATED_UNIVERSAL_TIME_OFFSET ( 10, 0, .AHEAD. ) ;
#226 = PRODUCT_DEFINITION_SHAPE ( 'NONE', 'NONE',  #41 ) ;
#227 = APPROVAL_DATE_TIME ( #170, #13 ) ;
#228 = CALENDAR_DATE ( 2026, 22, 6 ) ;
#229 = CC_DESIGN_APPROVAL ( #67, ( #387 ) ) ;
#230 = PERSON_AND_ORGANIZATION_ROLE ( 'creator' ) ;
#231 = APPROVAL ( #293, 'UNKNOWN' ) ;
#232 = DATE_AND_TIME ( #383, #235 ) ;
#233 = SECURITY_CLASSIFICATION_LEVEL ( 'unclassified' ) ;
#234 =( NAMED_UNIT ( * ) PLANE_ANGLE_UNIT ( ) SI_UNIT ( $, .RADIAN. ) );
#235 = LOCAL_TIME ( 18, 49, 56.00000000000000000, #29 ) ;
#236 = PERSON_AND_ORGANIZATION_ROLE ( 'creator' ) ;
#237 = APPROVAL ( #160, 'Coincident' ) ;
#238 = CARTESIAN_POINT ( 'NONE',  ( 0.000000000000000000, 0.000000000000000000, 0.000000000000000000 ) ) ;
#239 = EXTERNAL_SOURCE (IDENTIFIER('') ) ;
#240 = PROPERTY_DEFINITION_REPRESENTATION ( #247, #90 ) ;
#241 = DATE_AND_TIME ( #271, #34 ) ;
#242 = DIRECTION ( 'NONE',  ( 0.000000000000000000, 0.000000000000000000, 1.000000000000000000 ) ) ;
#243 = APPLIED_EXTERNAL_IDENTIFICATION_ASSIGNMENT ( '11552553264.step.STEP' , #72, #239,( #154) ) ;
#244 = PERSON_AND_ORGANIZATION_ROLE ( 'classification_officer' ) ;
#245 = COORDINATED_UNIVERSAL_TIME_OFFSET ( 10, 0, .AHEAD. ) ;
#246 = PERSON_AND_ORGANIZATION ( #18446744073709551615, #18446744073709551615 ) ;
#247 = PROPERTY_DEFINITION ('external definition','', #154 ) ;
#248 = APPROVAL_DATE_TIME ( #370, #379 ) ;
#249 = CALENDAR_DATE ( 2026, 22, 6 ) ;
#250 = APPROVAL_PERSON_ORGANIZATION ( #212, #312, #341 ) ;
#251 = CC_DESIGN_APPROVAL ( #319, ( #89 ) ) ;
#252 = APPROVAL_DATE_TIME ( #4, #312 ) ;
#253 = CC_DESIGN_PERSON_AND_ORGANIZATION_ASSIGNMENT ( #32, #158, ( #27 ) ) ;
#254 = SECURITY_CLASSIFICATION_LEVEL ( 'unclassified' ) ;
#255 = DATE_AND_TIME ( #228, #340 ) ;
#256 = PRODUCT ( 'D4.step', 'D4.step', '', ( #149 ) ) ;
#257 = APPROVAL_DATE_TIME ( #255, #67 ) ;
#258 = CC_DESIGN_APPROVAL ( #119, ( #49 ) ) ;
#259 = PROPERTY_DEFINITION ('external definition','', #152 ) ;
#260 = DATE_AND_TIME ( #12, #365 ) ;
#261 = DATE_AND_TIME ( #189, #102 ) ;
#262 = APPLICATION_CONTEXT ( 'configuration controlled 3d designs of mechanical parts and assemblies' ) ;
#263 = PERSON_AND_ORGANIZATION ( #18446744073709551615, #18446744073709551615 ) ;
#264 = CC_DESIGN_DATE_AND_TIME_ASSIGNMENT ( #19, #386, ( #274 ) ) ;
#265 =( GEOMETRIC_REPRESENTATION_CONTEXT ( 3 ) GLOBAL_UNCERTAINTY_ASSIGNED_CONTEXT ( ( #122 ) ) GLOBAL_UNIT_ASSIGNED_CONTEXT ( ( #21, #55, #273 ) ) REPRESENTATION_CONTEXT ( 'NONE', 'WORKASPACE' ) );
#266 = CALENDAR_DATE ( 2026, 22, 6 ) ;
#267 = PERSON_AND_ORGANIZATION ( #18446744073709551615, #18446744073709551615 ) ;
#268 = CC_DESIGN_DATE_AND_TIME_ASSIGNMENT ( #359, #326, ( #155 ) ) ;
#269 = PROPERTY_DEFINITION_REPRESENTATION ( #367, #90 ) ;
#270 = LOCAL_TIME ( 18, 49, 56.00000000000000000, #48 ) ;
#271 = CALENDAR_DATE ( 2026, 22, 6 ) ;
#272 = COORDINATED_UNIVERSAL_TIME_OFFSET ( 10, 0, .AHEAD. ) ;
#273 =( NAMED_UNIT ( * ) SI_UNIT ( $, .STERADIAN. ) SOLID_ANGLE_UNIT ( ) );
#274 = SECURITY_CLASSIFICATION ( '', '', #147 ) ;
#275 = APPLIED_DOCUMENT_REFERENCE ( #152,'',( #41) ) ;
#276 = CARTESIAN_POINT ( 'NONE',  ( 15.80000024411100412, 10.52500561523400258, 0.000000000000000000 ) ) ;
#277 = COORDINATED_UNIVERSAL_TIME_OFFSET ( 10, 0, .AHEAD. ) ;
#278 = CC_DESIGN_PERSON_AND_ORGANIZATION_ASSIGNMENT ( #380, #347, ( #49 ) ) ;
#279 = APPROVAL_STATUS ( 'not_yet_approved' ) ;
#280 = APPLICATION_CONTEXT ( 'configuration controlled 3d designs of mechanical parts and assemblies' ) ;
#281 = SECURITY_CLASSIFICATION ( '', '', #254 ) ;
#282 = CC_DESIGN_APPROVAL ( #135, ( #274 ) ) ;
#283 =( LENGTH_UNIT ( ) NAMED_UNIT ( * ) SI_UNIT ( .MILLI., .METRE. ) );
#284 = COORDINATED_UNIVERSAL_TIME_OFFSET ( 10, 0, .AHEAD. ) ;
#285 = CC_DESIGN_DATE_AND_TIME_ASSIGNMENT ( #260, #325, ( #41 ) ) ;
#286 = PROPERTY_DEFINITION ('document property','', #115 ) ;
#287 = PERSON_AND_ORGANIZATION_ROLE ( 'design_owner' ) ;
#288 = APPLICATION_PROTOCOL_DEFINITION ( 'international standard', 'config_control_design', 1994, #176 ) ;
#289 = CC_DESIGN_APPROVAL ( #13, ( #41 ) ) ;
#290 = MECHANICAL_CONTEXT ( 'NONE', #301, 'mechanical' ) ;
#291 = APPROVAL ( #331, 'UNKNOWN' ) ;
#292 = PERSON_AND_ORGANIZATION ( #18446744073709551615, #18446744073709551615 ) ;
#293 = APPROVAL_STATUS ( 'not_yet_approved' ) ;
#294 = OBJECT_ROLE ('mandatory',$ ) ;
#295 = APPROVAL_PERSON_ORGANIZATION ( #96, #5, #133 ) ;
#296 = APPROVAL_ROLE ( '' ) ;
#297 =( LENGTH_UNIT ( ) NAMED_UNIT ( * ) SI_UNIT ( .MILLI., .METRE. ) );
#298 = PRODUCT_RELATED_PRODUCT_CATEGORY ( 'detail', '', ( #165 ) ) ;
#299 = CONTEXT_DEPENDENT_SHAPE_REPRESENTATION ( #194, #43 ) ;
#300 = COORDINATED_UNIVERSAL_TIME_OFFSET ( 10, 0, .AHEAD. ) ;
#301 = APPLICATION_CONTEXT ( 'configuration controlled 3d designs of mechanical parts and assemblies' ) ;
#302 = CC_DESIGN_SECURITY_CLASSIFICATION ( #155, ( #388 ) ) ;
#303 = SECURITY_CLASSIFICATION_LEVEL ( 'unclassified' ) ;
#304 = COORDINATED_UNIVERSAL_TIME_OFFSET ( 10, 0, .AHEAD. ) ;
#305 = CC_DESIGN_PERSON_AND_ORGANIZATION_ASSIGNMENT ( #79, #236, ( #89 ) ) ;
#306 = DATE_AND_TIME ( #308, #193 ) ;
#307 = SECURITY_CLASSIFICATION_LEVEL ( 'unclassified' ) ;
#308 = CALENDAR_DATE ( 2026, 22, 6 ) ;
#309 = CC_DESIGN_APPROVAL ( #5, ( #281 ) ) ;
#310 = PROPERTY_DEFINITION_REPRESENTATION ( #191, #139 ) ;
#311 = CARTESIAN_POINT ( 'NONE',  ( 15.80000024411100412, 11.87499645996100206, 0.000000000000000000 ) ) ;
#312 = APPROVAL ( #279, 'Coincident' ) ;
#313 = CALENDAR_DATE ( 2026, 22, 6 ) ;
#314 = DIRECTION ( 'NONE',  ( 1.000000000000000222, -1.092455418989176591E-28, 4.890937612370273194E-29 ) ) ;
#315 = DIRECTION ( 'NONE',  ( 4.890937612370273194E-29, -3.155443620884047222E-30, 0.9999999999999997780 ) ) ;
#316 = LOCAL_TIME ( 18, 49, 56.00000000000000000, #11 ) ;
#317 = APPLICATION_PROTOCOL_DEFINITION ( 'international standard', 'config_control_design', 1994, #280 ) ;
#318 = PERSON_AND_ORGANIZATION ( #18446744073709551615, #18446744073709551615 ) ;
#319 = APPROVAL ( #173, 'Coincident' ) ;
#320 = PROPERTY_DEFINITION ('external definition','', #115 ) ;
#321 = DATE_AND_TIME ( #163, #336 ) ;
#322 = COORDINATED_UNIVERSAL_TIME_OFFSET ( 10, 0, .AHEAD. ) ;
#323 = APPROVAL_PERSON_ORGANIZATION ( #107, #67, #164 ) ;
#324 = OBJECT_ROLE ('mandatory',$ ) ;
#325 = DATE_TIME_ROLE ( 'creation_date' ) ;
#326 = DATE_TIME_ROLE ( 'classification_date' ) ;
#327 = PERSON_AND_ORGANIZATION ( #18446744073709551615, #18446744073709551615 ) ;
#328 = CC_DESIGN_PERSON_AND_ORGANIZATION_ASSIGNMENT ( #192, #230, ( #387 ) ) ;
#329 = AXIS2_PLACEMENT_3D ( 'NONE', #209, #384, #202 ) ;
#330 = CC_DESIGN_APPROVAL ( #337, ( #221 ) ) ;
#331 = APPROVAL_STATUS ( 'not_yet_approved' ) ;
#332 = PERSON ( 'NAUO-PER119', 'UNSPECIFIED', 'UNSPECIFIED', ('UNSPECIFIED'), ('UNSPECIFIED'), ('UNSPECIFIED') ) ;
#333 = APPROVAL_DATE_TIME ( #199, #319 ) ;
#334 = CALENDAR_DATE ( 2026, 22, 6 ) ;
#335 = APPLICATION_PROTOCOL_DEFINITION ( 'international standard', 'config_control_design', 1994, #134 ) ;
#336 = LOCAL_TIME ( 18, 49, 56.00000000000000000, #45 ) ;
#337 = APPROVAL ( #162, 'Coincident' ) ;
#338 = CONTEXT_DEPENDENT_SHAPE_REPRESENTATION ( #99, #346 ) ;
#339 = CC_DESIGN_PERSON_AND_ORGANIZATION_ASSIGNMENT ( #375, #244, ( #281 ) ) ;
#340 = LOCAL_TIME ( 18, 49, 56.00000000000000000, #225 ) ;
#341 = APPROVAL_ROLE ( '' ) ;
#342 = EXTERNAL_SOURCE (IDENTIFIER('') ) ;
#343 =( GEOMETRIC_REPRESENTATION_CONTEXT ( 3 ) GLOBAL_UNCERTAINTY_ASSIGNED_CONTEXT ( ( #138 ) ) GLOBAL_UNIT_ASSIGNED_CONTEXT ( ( #283, #30, #123 ) ) REPRESENTATION_CONTEXT ( 'NONE', 'WORKASPACE' ) );
#344 = LOCAL_TIME ( 18, 49, 56.00000000000000000, #118 ) ;
#345 = DATE_AND_TIME ( #223, #316 ) ;
#346 = PRODUCT_DEFINITION_SHAPE ( 'NONE', 'NONE',  #390 ) ;
#347 = PERSON_AND_ORGANIZATION_ROLE ( 'classification_officer' ) ;
#348 = PRODUCT ( '6325040192.step', '6325040192.step', '', ( #290 ) ) ;
#349 = OBJECT_ROLE ('mandatory',$ ) ;
#350 = CALENDAR_DATE ( 2026, 22, 6 ) ;
#351 = CC_DESIGN_DATE_AND_TIME_ASSIGNMENT ( #306, #214, ( #59 ) ) ;
#352 = APPROVAL_DATE_TIME ( #261, #119 ) ;
#353 = LOCAL_TIME ( 18, 49, 56.00000000000000000, #245 ) ;
#354 = DATE_AND_TIME ( #350, #121 ) ;
#355 = CC_DESIGN_PERSON_AND_ORGANIZATION_ASSIGNMENT ( #129, #197, ( #41 ) ) ;
#356 = COORDINATED_UNIVERSAL_TIME_OFFSET ( 10, 0, .AHEAD. ) ;
#357 = ITEM_DEFINED_TRANSFORMATION ( 'NONE', 'NONE', #172,  #200 ) ;
#358 = CC_DESIGN_SECURITY_CLASSIFICATION ( #274, ( #89 ) ) ;
#359 = DATE_AND_TIME ( #50, #344 ) ;
#360 = DESIGN_CONTEXT ( 'detailed design', #262, 'design' ) ;
#361 = IDENTIFICATION_ROLE ( 'external document id and location', $) ;
#362 = CC_DESIGN_PERSON_AND_ORGANIZATION_ASSIGNMENT ( #318, #25, ( #221 ) ) ;
#363 = APPLIED_DOCUMENT_REFERENCE ( #115,'',( #41) ) ;
#364 = CARTESIAN_POINT ( 'NONE',  ( 0.000000000000000000, 0.000000000000000000, 0.000000000000000000 ) ) ;
#365 = LOCAL_TIME ( 18, 49, 56.00000000000000000, #104 ) ;
#366 = CALENDAR_DATE ( 2026, 22, 6 ) ;
#367 = PROPERTY_DEFINITION ('document property','', #154 ) ;
#368 = PERSON_AND_ORGANIZATION_ROLE ( 'classification_officer' ) ;
#369 = DIRECTION ( 'NONE',  ( 4.890937612370273194E-29, -3.155443620884047222E-30, 0.9999999999999997780 ) ) ;
#370 = DATE_AND_TIME ( #313, #66 ) ;
#371 = DOCUMENT_TYPE ( 'geometry' ) ;
#372 = CC_DESIGN_APPROVAL ( #237, ( #59 ) ) ;
#373 = CC_DESIGN_APPROVAL ( #231, ( #182 ) ) ;
#374 = PERSON_AND_ORGANIZATION ( #18446744073709551615, #18446744073709551615 ) ;
#375 = PERSON_AND_ORGANIZATION ( #18446744073709551615, #18446744073709551615 ) ;
#376 = SHAPE_DEFINITION_REPRESENTATION ( #188, #69 ) ;
#377 = CC_DESIGN_APPROVAL ( #291, ( #155 ) ) ;
#378 = PERSON_AND_ORGANIZATION_ROLE ( 'design_supplier' ) ;
#379 = APPROVAL ( #215, 'UNKNOWN' ) ;
#380 = PERSON_AND_ORGANIZATION ( #18446744073709551615, #18446744073709551615 ) ;
#381 = APPLICATION_PROTOCOL_DEFINITION ( 'international standard', 'config_control_design', 1994, #301 ) ;
#382 = APPROVAL_STATUS ( 'not_yet_approved' ) ;
#383 = CALENDAR_DATE ( 2026, 22, 6 ) ;
#384 = DIRECTION ( 'NONE',  ( 0.000000000000000000, 0.000000000000000000, 1.000000000000000000 ) ) ;
#385 = CC_DESIGN_PERSON_AND_ORGANIZATION_ASSIGNMENT ( #128, #120, ( #26 ) ) ;
#386 = DATE_TIME_ROLE ( 'classification_date' ) ;
#387 = PRODUCT_DEFINITION_FORMATION_WITH_SPECIFIED_SOURCE ( 'Symmetric', '', #348, .NOT_KNOWN. ) ;
#388 = NEXT_ASSEMBLY_USAGE_OCCURRENCE ( 'NAUO119', ' ', ' ', #59, #221, $ ) ;
#389 = NEXT_ASSEMBLY_USAGE_OCCURRENCE ( 'NAUO120', ' ', ' ', #59, #41, $ ) ;
#390 = NEXT_ASSEMBLY_USAGE_OCCURRENCE ( 'NAUO121', ' ', ' ', #59, #41, $ ) ;
ENDSEC;
END-ISO-10303-21;
