ISO-10303-21;
HEADER;
FILE_DESCRIPTION (( 'STEP AP203' ),
    '1' );
FILE_NAME ('D5.step.STEP',
    '2026-06-22T08:49:54',
    ( 'localuser' ),
    ( '' ),
    'SwSTEP 2.0',
    'SolidWorks 2025',
    '' );
FILE_SCHEMA (( 'CONFIG_CONTROL_DESIGN' ));
ENDSEC;

DATA;
#1 = APPROVAL_STATUS ( 'not_yet_approved' ) ;
#2 = APPROVAL_DATE_TIME ( #303, #330 ) ;
#3 =( REPRESENTATION_RELATIONSHIP ('NONE','NONE', #61, #93 ) REPRESENTATION_RELATIONSHIP_WITH_TRANSFORMATION ( #19 )SHAPE_REPRESENTATION_RELATIONSHIP( ) );
#4 = DATE_AND_TIME ( #271, #377 ) ;
#5 = CARTESIAN_POINT ( 'NONE',  ( 0.000000000000000000, 0.000000000000000000, 0.000000000000000000 ) ) ;
#6 = ORGANIZATION ( 'NAUO-ORG70', 'UNSPECIFIED', 'UNSPECIFIED' ) ;
#7 = APPROVAL_STATUS ( 'not_yet_approved' ) ;
#8 = CC_DESIGN_PERSON_AND_ORGANIZATION_ASSIGNMENT ( #147, #268, ( #274 ) ) ;
#9 = COORDINATED_UNIVERSAL_TIME_OFFSET ( 10, 0, .AHEAD. ) ;
#10 = MECHANICAL_CONTEXT ( 'NONE', #278, 'mechanical' ) ;
#11 = APPLICATION_CONTEXT ( 'configuration controlled 3d designs of mechanical parts and assemblies' ) ;
#12 = PERSON_AND_ORGANIZATION_ROLE ( 'classification_officer' ) ;
#13 = APPROVAL_PERSON_ORGANIZATION ( #333, #218, #130 ) ;
#14 = APPROVAL_ROLE ( '' ) ;
#15 = CALENDAR_DATE ( 2026, 22, 6 ) ;
#16 = CALENDAR_DATE ( 2026, 22, 6 ) ;
#17 = CALENDAR_DATE ( 2026, 22, 6 ) ;
#18 = PROPERTY_DEFINITION ('document property','', #251 ) ;
#19 = ITEM_DEFINED_TRANSFORMATION ( 'NONE', 'NONE', #84,  #127 ) ;
#20 = PERSON_AND_ORGANIZATION ( #210, #203 ) ;
#21 = DATE_TIME_ROLE ( 'creation_date' ) ;
#22 = CC_DESIGN_PERSON_AND_ORGANIZATION_ASSIGNMENT ( #273, #302, ( #40 ) ) ;
#23 = SECURITY_CLASSIFICATION ( '', '', #279 ) ;
#24 = CALENDAR_DATE ( 2026, 22, 6 ) ;
#25 = CARTESIAN_POINT ( 'NONE',  ( 15.74999719235399986, 17.55260876464800290, 0.000000000000000000 ) ) ;
#26 = APPROVAL_STATUS ( 'not_yet_approved' ) ;
#27 = APPROVAL_DATE_TIME ( #211, #126 ) ;
#28 =( GEOMETRIC_REPRESENTATION_CONTEXT ( 3 ) GLOBAL_UNCERTAINTY_ASSIGNED_CONTEXT ( ( #299 ) ) GLOBAL_UNIT_ASSIGNED_CONTEXT ( ( #108, #199, #228 ) ) REPRESENTATION_CONTEXT ( 'NONE', 'WORKASPACE' ) );
#29 = APPROVAL_PERSON_ORGANIZATION ( #39, #267, #66 ) ;
#30 = LOCAL_TIME ( 18, 49, 54.00000000000000000, #9 ) ;
#31 = OBJECT_ROLE ('mandatory',$ ) ;
#32 = PERSON_AND_ORGANIZATION ( #18446744073709551615, #18446744073709551615 ) ;
#33 = PERSON_AND_ORGANIZATION ( #18446744073709551615, #18446744073709551615 ) ;
#34 = APPROVAL_ROLE ( '' ) ;
#35 = CC_DESIGN_PERSON_AND_ORGANIZATION_ASSIGNMENT ( #277, #12, ( #23 ) ) ;
#36 = APPROVAL_PERSON_ORGANIZATION ( #20, #290, #193 ) ;
#37 = COORDINATED_UNIVERSAL_TIME_OFFSET ( 10, 0, .AHEAD. ) ;
#38 = DOCUMENT_TYPE ( 'geometry' ) ;
#39 = PERSON_AND_ORGANIZATION ( #346, #6 ) ;
#40 = PRODUCT_DEFINITION ( 'General', '', #54, #334 ) ;
#41 = SHAPE_DEFINITION_REPRESENTATION ( #191, #295 ) ;
#42 = AXIS2_PLACEMENT_3D ( 'NONE', #141, #234, #296 ) ;
#43 = DATE_AND_TIME ( #99, #30 ) ;
#44 = CC_DESIGN_DATE_AND_TIME_ASSIGNMENT ( #265, #105, ( #85 ) ) ;
#45 = CC_DESIGN_APPROVAL ( #290, ( #222 ) ) ;
#46 = PERSON_AND_ORGANIZATION_ROLE ( 'design_supplier' ) ;
#47 = CC_DESIGN_PERSON_AND_ORGANIZATION_ASSIGNMENT ( #115, #240, ( #54 ) ) ;
#48 = PERSON_AND_ORGANIZATION_ROLE ( 'classification_officer' ) ;
#49 = PRODUCT_DEFINITION_SHAPE ( 'NONE', 'NONE',  #388 ) ;
#50 = CC_DESIGN_APPROVAL ( #218, ( #311 ) ) ;
#51 = APPLICATION_CONTEXT ( 'configuration controlled 3d designs of mechanical parts and assemblies' ) ;
#52 = APPROVAL_ROLE ( '' ) ;
#53 = CC_DESIGN_PERSON_AND_ORGANIZATION_ASSIGNMENT ( #200, #48, ( #85 ) ) ;
#54 = PRODUCT_DEFINITION_FORMATION_WITH_SPECIFIED_SOURCE ( 'Symmetric', '', #256, .NOT_KNOWN. ) ;
#55 = OBJECT_ROLE ('mandatory',$ ) ;
#56 = MECHANICAL_CONTEXT ( 'NONE', #286, 'mechanical' ) ;
#57 = APPLICATION_PROTOCOL_DEFINITION ( 'international standard', 'config_control_design', 1994, #286 ) ;
#58 = LOCAL_TIME ( 18, 49, 54.00000000000000000, #383 ) ;
#59 = APPROVAL_PERSON_ORGANIZATION ( #200, #371, #322 ) ;
#60 = PERSON_AND_ORGANIZATION_ROLE ( 'design_owner' ) ;
#61 = SHAPE_REPRESENTATION ( 'D5.step', ( #280, #148, #84, #250 ), #28 ) ;
#62 = APPROVAL_STATUS ( 'not_yet_approved' ) ;
#63 = CC_DESIGN_PERSON_AND_ORGANIZATION_ASSIGNMENT ( #340, #253, ( #212 ) ) ;
#64 = PERSON_AND_ORGANIZATION ( #18446744073709551615, #18446744073709551615 ) ;
#65 =( NAMED_UNIT ( * ) SI_UNIT ( $, .STERADIAN. ) SOLID_ANGLE_UNIT ( ) );
#66 = APPROVAL_ROLE ( '' ) ;
#67 = APPROVAL ( #26, 'Coincident' ) ;
#68 = DATE_AND_TIME ( #187, #188 ) ;
#69 = DOCUMENT_TYPE ( 'geometry' ) ;
#70 = PERSON_AND_ORGANIZATION_ROLE ( 'design_owner' ) ;
#71 = DATE_TIME_ROLE ( 'creation_date' ) ;
#72 = LOCAL_TIME ( 18, 49, 54.00000000000000000, #178 ) ;
#73 = COORDINATED_UNIVERSAL_TIME_OFFSET ( 10, 0, .AHEAD. ) ;
#74 = PROPERTY_DEFINITION_REPRESENTATION ( #136, #295 ) ;
#75 = DATE_AND_TIME ( #24, #325 ) ;
#76 = APPROVAL_PERSON_ORGANIZATION ( #226, #163, #52 ) ;
#77 = CC_DESIGN_SECURITY_CLASSIFICATION ( #85, ( #390 ) ) ;
#78 = CC_DESIGN_DATE_AND_TIME_ASSIGNMENT ( #96, #387, ( #40 ) ) ;
#79 = COORDINATED_UNIVERSAL_TIME_OFFSET ( 10, 0, .AHEAD. ) ;
#80 = DIRECTION ( 'NONE',  ( 1.000000000000000222, -1.092455418989176591E-28, 4.890937612370273194E-29 ) ) ;
#81 = APPLIED_DOCUMENT_REFERENCE ( #251,'',( #212) ) ;
#82 = PERSON_AND_ORGANIZATION ( #18446744073709551615, #18446744073709551615 ) ;
#83 = DIRECTION ( 'NONE',  ( 0.000000000000000000, 0.000000000000000000, 1.000000000000000000 ) ) ;
#84 = AXIS2_PLACEMENT_3D ( 'NONE', #260, #233, #144 ) ;
#85 = SECURITY_CLASSIFICATION ( '', '', #316 ) ;
#86 = SECURITY_CLASSIFICATION_LEVEL ( 'unclassified' ) ;
#87 = CALENDAR_DATE ( 2026, 22, 6 ) ;
#88 = DOCUMENT_TYPE ( 'geometry' ) ;
#89 = SHAPE_DEFINITION_REPRESENTATION ( #225, #61 ) ;
#90 = APPROVAL_PERSON_ORGANIZATION ( #64, #126, #181 ) ;
#91 = LOCAL_TIME ( 18, 49, 54.00000000000000000, #298 ) ;
#92 = CC_DESIGN_DATE_AND_TIME_ASSIGNMENT ( #170, #21, ( #243 ) ) ;
#93 = SHAPE_REPRESENTATION ( '6325040192.step', ( #127 ), #337 ) ;
#94 = CALENDAR_DATE ( 2026, 22, 6 ) ;
#95 = UNCERTAINTY_MEASURE_WITH_UNIT (LENGTH_MEASURE( 1.000000000000000082E-05 ), #381, 'distance_accuracy_value', 'NONE');
#96 = DATE_AND_TIME ( #329, #91 ) ;
#97 = DATE_AND_TIME ( #157, #269 ) ;
#98 = COORDINATED_UNIVERSAL_TIME_OFFSET ( 10, 0, .AHEAD. ) ;
#99 = CALENDAR_DATE ( 2026, 22, 6 ) ;
#100 = PERSON_AND_ORGANIZATION_ROLE ( 'creator' ) ;
#101 = CC_DESIGN_PERSON_AND_ORGANIZATION_ASSIGNMENT ( #375, #100, ( #372 ) ) ;
#102 = APPROVAL_STATUS ( 'not_yet_approved' ) ;
#103 = CC_DESIGN_SECURITY_CLASSIFICATION ( #222, ( #389 ) ) ;
#104 =( REPRESENTATION_RELATIONSHIP ('NONE','NONE', #61, #93 ) REPRESENTATION_RELATIONSHIP_WITH_TRANSFORMATION ( #341 )SHAPE_REPRESENTATION_RELATIONSHIP( ) );
#105 = DATE_TIME_ROLE ( 'classification_date' ) ;
#106 = PRODUCT ( 'D5.step', 'D5.step', '', ( #356 ) ) ;
#107 = PROPERTY_DEFINITION_REPRESENTATION ( #315, #93 ) ;
#108 =( LENGTH_UNIT ( ) NAMED_UNIT ( * ) SI_UNIT ( .MILLI., .METRE. ) );
#109 = CC_DESIGN_DATE_AND_TIME_ASSIGNMENT ( #205, #328, ( #274 ) ) ;
#110 = DATE_TIME_ROLE ( 'classification_date' ) ;
#111 = LOCAL_TIME ( 18, 49, 54.00000000000000000, #353 ) ;
#112 = APPROVAL_PERSON_ORGANIZATION ( #246, #262, #14 ) ;
#113 = COORDINATED_UNIVERSAL_TIME_OFFSET ( 10, 0, .AHEAD. ) ;
#114 = APPLICATION_PROTOCOL_DEFINITION ( 'international standard', 'config_control_design', 1994, #11 ) ;
#115 = PERSON_AND_ORGANIZATION ( #18446744073709551615, #18446744073709551615 ) ;
#116 = IDENTIFICATION_ROLE ( 'external document id and location', $) ;
#117 = CALENDAR_DATE ( 2026, 22, 6 ) ;
#118 = DATE_AND_TIME ( #117, #72 ) ;
#119 = APPROVAL_DATE_TIME ( #4, #131 ) ;
#120 =( GEOMETRIC_REPRESENTATION_CONTEXT ( 3 ) GLOBAL_UNCERTAINTY_ASSIGNED_CONTEXT ( ( #123 ) ) GLOBAL_UNIT_ASSIGNED_CONTEXT ( ( #201, #386, #291 ) ) REPRESENTATION_CONTEXT ( 'NONE', 'WORKASPACE' ) );
#121 = APPROVAL_PERSON_ORGANIZATION ( #32, #131, #266 ) ;
#122 = COORDINATED_UNIVERSAL_TIME_OFFSET ( 10, 0, .AHEAD. ) ;
#123 = UNCERTAINTY_MEASURE_WITH_UNIT (LENGTH_MEASURE( 1.000000000000000082E-05 ), #201, 'distance_accuracy_value', 'NONE');
#124 = DATE_TIME_ROLE ( 'classification_date' ) ;
#125 = APPLICATION_PROTOCOL_DEFINITION ( 'international standard', 'config_control_design', 1994, #300 ) ;
#126 = APPROVAL ( #62, 'Coincident' ) ;
#127 = AXIS2_PLACEMENT_3D ( 'NONE', #5, #276, #185 ) ;
#128 = CC_DESIGN_APPROVAL ( #371, ( #85 ) ) ;
#129 = DATE_AND_TIME ( #370, #331 ) ;
#130 = APPROVAL_ROLE ( '' ) ;
#131 = APPROVAL ( #305, 'Coincident' ) ;
#132 = APPROVAL_DATE_TIME ( #283, #249 ) ;
#133 = PROPERTY_DEFINITION_REPRESENTATION ( #247, #93 ) ;
#134 = APPLIED_EXTERNAL_IDENTIFICATION_ASSIGNMENT ( '6325040192.step.STEP' , #116, #327,( #167) ) ;
#135 = DIRECTION ( 'NONE',  ( 1.000000000000000222, -1.092455418989176591E-28, 4.890937612370273194E-29 ) ) ;
#136 = PROPERTY_DEFINITION ('document property','', #224 ) ;
#137 = CC_DESIGN_PERSON_AND_ORGANIZATION_ASSIGNMENT ( #189, #70, ( #166 ) ) ;
#138 = APPROVAL_DATE_TIME ( #143, #290 ) ;
#139 = DIRECTION ( 'NONE',  ( 4.890937612370273194E-29, -3.155443620884047222E-30, 0.9999999999999997780 ) ) ;
#140 = DATE_TIME_ROLE ( 'classification_date' ) ;
#141 = CARTESIAN_POINT ( 'NONE',  ( 0.000000000000000000, 0.000000000000000000, 0.000000000000000000 ) ) ;
#142 = CC_DESIGN_SECURITY_CLASSIFICATION ( #23, ( #372 ) ) ;
#143 = DATE_AND_TIME ( #352, #338 ) ;
#144 = DIRECTION ( 'NONE',  ( 1.000000000000000222, -1.092455418989176591E-28, 4.890937612370273194E-29 ) ) ;
#145 = APPROVAL_DATE_TIME ( #118, #67 ) ;
#146 = CC_DESIGN_PERSON_AND_ORGANIZATION_ASSIGNMENT ( #20, #288, ( #222 ) ) ;
#147 = PERSON_AND_ORGANIZATION ( #18446744073709551615, #18446744073709551615 ) ;
#148 = AXIS2_PLACEMENT_3D ( 'NONE', #25, #380, #135 ) ;
#149 = LOCAL_TIME ( 18, 49, 54.00000000000000000, #162 ) ;
#150 = COORDINATED_UNIVERSAL_TIME_OFFSET ( 10, 0, .AHEAD. ) ;
#151 = CC_DESIGN_DATE_AND_TIME_ASSIGNMENT ( #75, #110, ( #222 ) ) ;
#152 = OBJECT_ROLE ('mandatory',$ ) ;
#153 = PERSON_AND_ORGANIZATION ( #18446744073709551615, #18446744073709551615 ) ;
#154 = DATE_AND_TIME ( #94, #208 ) ;
#155 = PRODUCT_DEFINITION_FORMATION_WITH_SPECIFIED_SOURCE ( 'Symmetric', '', #106, .NOT_KNOWN. ) ;
#156 = LOCAL_TIME ( 18, 49, 54.00000000000000000, #213 ) ;
#157 = CALENDAR_DATE ( 2026, 22, 6 ) ;
#158 = CC_DESIGN_DATE_AND_TIME_ASSIGNMENT ( #308, #71, ( #212 ) ) ;
#159 = DATE_AND_TIME ( #306, #174 ) ;
#160 = APPROVAL_DATE_TIME ( #217, #262 ) ;
#161 = CC_DESIGN_SECURITY_CLASSIFICATION ( #384, ( #388 ) ) ;
#162 = COORDINATED_UNIVERSAL_TIME_OFFSET ( 10, 0, .AHEAD. ) ;
#163 = APPROVAL ( #324, 'Coincident' ) ;
#164 = APPROVAL_ROLE ( '' ) ;
#165 = COORDINATED_UNIVERSAL_TIME_OFFSET ( 10, 0, .AHEAD. ) ;
#166 = PRODUCT ( '6325040192.step', '6325040192.step', '', ( #10 ) ) ;
#167 = DOCUMENT_FILE ( '6325040192.step.STEP' , '', '', #69, '' ,$ ) ;
#168 = DIRECTION ( 'NONE',  ( 1.000000000000000000, 0.000000000000000000, 0.000000000000000000 ) ) ;
#169 = CALENDAR_DATE ( 2026, 22, 6 ) ;
#170 = DATE_AND_TIME ( #323, #111 ) ;
#171 = CONTEXT_DEPENDENT_SHAPE_REPRESENTATION ( #368, #349 ) ;
#172 = LOCAL_TIME ( 18, 49, 54.00000000000000000, #176 ) ;
#173 = PERSON_AND_ORGANIZATION ( #18446744073709551615, #18446744073709551615 ) ;
#174 = LOCAL_TIME ( 18, 49, 54.00000000000000000, #182 ) ;
#175 = CC_DESIGN_PERSON_AND_ORGANIZATION_ASSIGNMENT ( #173, #289, ( #243 ) ) ;
#176 = COORDINATED_UNIVERSAL_TIME_OFFSET ( 10, 0, .AHEAD. ) ;
#177 = PRODUCT_RELATED_PRODUCT_CATEGORY ( 'detail', '', ( #166 ) ) ;
#178 = COORDINATED_UNIVERSAL_TIME_OFFSET ( 10, 0, .AHEAD. ) ;
#179 = LOCAL_TIME ( 18, 49, 54.00000000000000000, #332 ) ;
#180 = PERSON_AND_ORGANIZATION ( #18446744073709551615, #18446744073709551615 ) ;
#181 = APPROVAL_ROLE ( '' ) ;
#182 = COORDINATED_UNIVERSAL_TIME_OFFSET ( 10, 0, .AHEAD. ) ;
#183 = CC_DESIGN_PERSON_AND_ORGANIZATION_ASSIGNMENT ( #33, #60, ( #256 ) ) ;
#184 = ORGANIZATION ( 'NAUO-ORG72', 'UNSPECIFIED', 'UNSPECIFIED' ) ;
#185 = DIRECTION ( 'NONE',  ( 1.000000000000000000, 0.000000000000000000, 0.000000000000000000 ) ) ;
#186 = APPLICATION_PROTOCOL_DEFINITION ( 'international standard', 'config_control_design', 1994, #278 ) ;
#187 = CALENDAR_DATE ( 2026, 22, 6 ) ;
#188 = LOCAL_TIME ( 18, 49, 54.00000000000000000, #220 ) ;
#189 = PERSON_AND_ORGANIZATION ( #18446744073709551615, #18446744073709551615 ) ;
#190 = DATE_AND_TIME ( #16, #357 ) ;
#191 = PRODUCT_DEFINITION_SHAPE ( 'NONE', 'NONE',  #40 ) ;
#192 = PROPERTY_DEFINITION ('external definition','', #224 ) ;
#193 = APPROVAL_ROLE ( '' ) ;
#194 = PERSON_AND_ORGANIZATION_ROLE ( 'design_owner' ) ;
#195 = CC_DESIGN_PERSON_AND_ORGANIZATION_ASSIGNMENT ( #364, #239, ( #311 ) ) ;
#196 = APPROVAL_PERSON_ORGANIZATION ( #252, #249, #164 ) ;
#197 = APPLIED_DOCUMENT_REFERENCE ( #167,'',( #212) ) ;
#198 = CC_DESIGN_APPROVAL ( #319, ( #212 ) ) ;
#199 =( NAMED_UNIT ( * ) PLANE_ANGLE_UNIT ( ) SI_UNIT ( $, .RADIAN. ) );
#200 = PERSON_AND_ORGANIZATION ( #343, #184 ) ;
#201 =( LENGTH_UNIT ( ) NAMED_UNIT ( * ) SI_UNIT ( .MILLI., .METRE. ) );
#202 = CC_DESIGN_PERSON_AND_ORGANIZATION_ASSIGNMENT ( #270, #235, ( #54 ) ) ;
#203 = ORGANIZATION ( 'NAUO-ORG71', 'UNSPECIFIED', 'UNSPECIFIED' ) ;
#204 = PERSON_AND_ORGANIZATION_ROLE ( 'creator' ) ;
#205 = DATE_AND_TIME ( #335, #215 ) ;
#206 = IDENTIFICATION_ROLE ( 'external document id and location', $) ;
#207 = APPLICATION_PROTOCOL_DEFINITION ( 'international standard', 'config_control_design', 1994, #245 ) ;
#208 = LOCAL_TIME ( 18, 49, 54.00000000000000000, #361 ) ;
#209 = DATE_TIME_ROLE ( 'classification_date' ) ;
#210 = PERSON ( 'NAUO-PER71', 'UNSPECIFIED', 'UNSPECIFIED', ('UNSPECIFIED'), ('UNSPECIFIED'), ('UNSPECIFIED') ) ;
#211 = DATE_AND_TIME ( #87, #172 ) ;
#212 = PRODUCT_DEFINITION ( 'General', '', #372, #238 ) ;
#213 = COORDINATED_UNIVERSAL_TIME_OFFSET ( 10, 0, .AHEAD. ) ;
#214 = APPROVAL_PERSON_ORGANIZATION ( #310, #319, #254 ) ;
#215 = LOCAL_TIME ( 18, 49, 54.00000000000000000, #122 ) ;
#216 = EXTERNAL_SOURCE (IDENTIFIER('') ) ;
#217 = DATE_AND_TIME ( #342, #229 ) ;
#218 = APPROVAL ( #7, 'Coincident' ) ;
#219 = SHAPE_DEFINITION_REPRESENTATION ( #347, #93 ) ;
#220 = COORDINATED_UNIVERSAL_TIME_OFFSET ( 10, 0, .AHEAD. ) ;
#221 = CC_DESIGN_APPROVAL ( #126, ( #155 ) ) ;
#222 = SECURITY_CLASSIFICATION ( '', '', #261 ) ;
#223 = APPROVAL_STATUS ( 'not_yet_approved' ) ;
#224 = DOCUMENT_FILE ( '11552553264.step.STEP' , '', '', #88, '' ,$ ) ;
#225 = PRODUCT_DEFINITION_SHAPE ( 'NONE', 'NONE',  #243 ) ;
#226 = PERSON_AND_ORGANIZATION ( #18446744073709551615, #18446744073709551615 ) ;
#227 = PRODUCT_RELATED_PRODUCT_CATEGORY ( 'detail', '', ( #256 ) ) ;
#228 =( NAMED_UNIT ( * ) SI_UNIT ( $, .STERADIAN. ) SOLID_ANGLE_UNIT ( ) );
#229 = LOCAL_TIME ( 18, 49, 54.00000000000000000, #374 ) ;
#230 = APPROVAL_DATE_TIME ( #190, #371 ) ;
#231 = APPROVAL_DATE_TIME ( #317, #163 ) ;
#232 = PERSON_AND_ORGANIZATION_ROLE ( 'classification_officer' ) ;
#233 = DIRECTION ( 'NONE',  ( 4.890937612370273194E-29, -3.155443620884047222E-30, 0.9999999999999997780 ) ) ;
#234 = DIRECTION ( 'NONE',  ( 0.000000000000000000, 0.000000000000000000, 1.000000000000000000 ) ) ;
#235 = PERSON_AND_ORGANIZATION_ROLE ( 'design_supplier' ) ;
#236 = IDENTIFICATION_ROLE ( 'external document id and location', $) ;
#237 = PERSON_AND_ORGANIZATION ( #18446744073709551615, #18446744073709551615 ) ;
#238 = DESIGN_CONTEXT ( 'detailed design', #300, 'design' ) ;
#239 = PERSON_AND_ORGANIZATION_ROLE ( 'classification_officer' ) ;
#240 = PERSON_AND_ORGANIZATION_ROLE ( 'creator' ) ;
#241 = CC_DESIGN_APPROVAL ( #330, ( #274 ) ) ;
#242 = DESIGN_CONTEXT ( 'detailed design', #51, 'design' ) ;
#243 = PRODUCT_DEFINITION ( 'General', '', #155, #242 ) ;
#244 = PERSON_AND_ORGANIZATION ( #18446744073709551615, #18446744073709551615 ) ;
#245 = APPLICATION_CONTEXT ( 'configuration controlled 3d designs of mechanical parts and assemblies' ) ;
#246 = PERSON_AND_ORGANIZATION ( #18446744073709551615, #18446744073709551615 ) ;
#247 = PROPERTY_DEFINITION ('external definition','', #167 ) ;
#248 = APPROVAL_DATE_TIME ( #43, #319 ) ;
#249 = APPROVAL ( #373, 'Coincident' ) ;
#250 = AXIS2_PLACEMENT_3D ( 'NONE', #292, #139, #80 ) ;
#251 = DOCUMENT_FILE ( '6325040192.step.STEP' , '', '', #38, '' ,$ ) ;
#252 = PERSON_AND_ORGANIZATION ( #18446744073709551615, #18446744073709551615 ) ;
#253 = PERSON_AND_ORGANIZATION_ROLE ( 'creator' ) ;
#254 = APPROVAL_ROLE ( '' ) ;
#255 =( NAMED_UNIT ( * ) PLANE_ANGLE_UNIT ( ) SI_UNIT ( $, .RADIAN. ) );
#256 = PRODUCT ( '11552553264.step', '11552553264.step', '', ( #56 ) ) ;
#257 = APPLIED_EXTERNAL_IDENTIFICATION_ASSIGNMENT ( '6325040192.step.STEP' , #206, #354,( #251) ) ;
#258 = PRODUCT_RELATED_PRODUCT_CATEGORY ( 'detail', '', ( #106 ) ) ;
#259 = ROLE_ASSOCIATION ( #55, #197 ) ;
#260 = CARTESIAN_POINT ( 'NONE',  ( 15.74999719235400164, 16.20260266113300673, 0.000000000000000000 ) ) ;
#261 = SECURITY_CLASSIFICATION_LEVEL ( 'unclassified' ) ;
#262 = APPROVAL ( #223, 'Coincident' ) ;
#263 = CC_DESIGN_APPROVAL ( #67, ( #40 ) ) ;
#264 = APPLIED_DOCUMENT_REFERENCE ( #224,'',( #40) ) ;
#265 = DATE_AND_TIME ( #169, #307 ) ;
#266 = APPROVAL_ROLE ( '' ) ;
#267 = APPROVAL ( #102, 'UNKNOWN' ) ;
#268 = PERSON_AND_ORGANIZATION_ROLE ( 'classification_officer' ) ;
#269 = LOCAL_TIME ( 18, 49, 54.00000000000000000, #37 ) ;
#270 = PERSON_AND_ORGANIZATION ( #18446744073709551615, #18446744073709551615 ) ;
#271 = CALENDAR_DATE ( 2026, 22, 6 ) ;
#272 = CC_DESIGN_PERSON_AND_ORGANIZATION_ASSIGNMENT ( #180, #297, ( #155 ) ) ;
#273 = PERSON_AND_ORGANIZATION ( #18446744073709551615, #18446744073709551615 ) ;
#274 = SECURITY_CLASSIFICATION ( '', '', #86 ) ;
#275 = CC_DESIGN_SECURITY_CLASSIFICATION ( #311, ( #54 ) ) ;
#276 = DIRECTION ( 'NONE',  ( 0.000000000000000000, 0.000000000000000000, 1.000000000000000000 ) ) ;
#277 = PERSON_AND_ORGANIZATION ( #18446744073709551615, #18446744073709551615 ) ;
#278 = APPLICATION_CONTEXT ( 'configuration controlled 3d designs of mechanical parts and assemblies' ) ;
#279 = SECURITY_CLASSIFICATION_LEVEL ( 'unclassified' ) ;
#280 = AXIS2_PLACEMENT_3D ( 'NONE', #321, #83, #168 ) ;
#281 = APPLIED_EXTERNAL_IDENTIFICATION_ASSIGNMENT ( '11552553264.step.STEP' , #236, #216,( #224) ) ;
#282 = APPROVAL_STATUS ( 'not_yet_approved' ) ;
#283 = DATE_AND_TIME ( #345, #156 ) ;
#284 = CC_DESIGN_DATE_AND_TIME_ASSIGNMENT ( #154, #209, ( #311 ) ) ;
#285 = ROLE_ASSOCIATION ( #152, #81 ) ;
#286 = APPLICATION_CONTEXT ( 'configuration controlled 3d designs of mechanical parts and assemblies' ) ;
#287 = CC_DESIGN_APPROVAL ( #249, ( #23 ) ) ;
#288 = PERSON_AND_ORGANIZATION_ROLE ( 'classification_officer' ) ;
#289 = PERSON_AND_ORGANIZATION_ROLE ( 'creator' ) ;
#290 = APPROVAL ( #350, 'UNKNOWN' ) ;
#291 =( NAMED_UNIT ( * ) SI_UNIT ( $, .STERADIAN. ) SOLID_ANGLE_UNIT ( ) );
#292 = CARTESIAN_POINT ( 'NONE',  ( 15.74999719235400164, 16.87760571289100398, 0.000000000000000000 ) ) ;
#293 = CC_DESIGN_APPROVAL ( #262, ( #372 ) ) ;
#294 = CONTEXT_DEPENDENT_SHAPE_REPRESENTATION ( #104, #49 ) ;
#295 = SHAPE_REPRESENTATION ( '11552553264.step', ( #42 ), #120 ) ;
#296 = DIRECTION ( 'NONE',  ( 1.000000000000000000, 0.000000000000000000, 0.000000000000000000 ) ) ;
#297 = PERSON_AND_ORGANIZATION_ROLE ( 'design_supplier' ) ;
#298 = COORDINATED_UNIVERSAL_TIME_OFFSET ( 10, 0, .AHEAD. ) ;
#299 = UNCERTAINTY_MEASURE_WITH_UNIT (LENGTH_MEASURE( 1.000000000000000082E-05 ), #108, 'distance_accuracy_value', 'NONE');
#300 = APPLICATION_CONTEXT ( 'configuration controlled 3d designs of mechanical parts and assemblies' ) ;
#301 = CC_DESIGN_PERSON_AND_ORGANIZATION_ASSIGNMENT ( #312, #46, ( #372 ) ) ;
#302 = PERSON_AND_ORGANIZATION_ROLE ( 'creator' ) ;
#303 = DATE_AND_TIME ( #359, #179 ) ;
#304 = CC_DESIGN_DATE_AND_TIME_ASSIGNMENT ( #129, #124, ( #23 ) ) ;
#305 = APPROVAL_STATUS ( 'not_yet_approved' ) ;
#306 = CALENDAR_DATE ( 2026, 22, 6 ) ;
#307 = LOCAL_TIME ( 18, 49, 54.00000000000000000, #79 ) ;
#308 = DATE_AND_TIME ( #15, #149 ) ;
#309 = APPROVAL_DATE_TIME ( #68, #218 ) ;
#310 = PERSON_AND_ORGANIZATION ( #18446744073709551615, #18446744073709551615 ) ;
#311 = SECURITY_CLASSIFICATION ( '', '', #358 ) ;
#312 = PERSON_AND_ORGANIZATION ( #18446744073709551615, #18446744073709551615 ) ;
#313 = CC_DESIGN_PERSON_AND_ORGANIZATION_ASSIGNMENT ( #39, #232, ( #384 ) ) ;
#314 = ITEM_DEFINED_TRANSFORMATION ( 'NONE', 'NONE', #250,  #42 ) ;
#315 = PROPERTY_DEFINITION ('external definition','', #251 ) ;
#316 = SECURITY_CLASSIFICATION_LEVEL ( 'unclassified' ) ;
#317 = DATE_AND_TIME ( #17, #58 ) ;
#318 = CC_DESIGN_APPROVAL ( #131, ( #54 ) ) ;
#319 = APPROVAL ( #282, 'Coincident' ) ;
#320 = PROPERTY_DEFINITION_REPRESENTATION ( #18, #93 ) ;
#321 = CARTESIAN_POINT ( 'NONE',  ( 0.000000000000000000, 0.000000000000000000, 0.000000000000000000 ) ) ;
#322 = APPROVAL_ROLE ( '' ) ;
#323 = CALENDAR_DATE ( 2026, 22, 6 ) ;
#324 = APPROVAL_STATUS ( 'not_yet_approved' ) ;
#325 = LOCAL_TIME ( 18, 49, 54.00000000000000000, #165 ) ;
#326 = APPLICATION_PROTOCOL_DEFINITION ( 'international standard', 'config_control_design', 1994, #51 ) ;
#327 = EXTERNAL_SOURCE (IDENTIFIER('') ) ;
#328 = DATE_TIME_ROLE ( 'classification_date' ) ;
#329 = CALENDAR_DATE ( 2026, 22, 6 ) ;
#330 = APPROVAL ( #1, 'Coincident' ) ;
#331 = LOCAL_TIME ( 18, 49, 54.00000000000000000, #98 ) ;
#332 = COORDINATED_UNIVERSAL_TIME_OFFSET ( 10, 0, .AHEAD. ) ;
#333 = PERSON_AND_ORGANIZATION ( #18446744073709551615, #18446744073709551615 ) ;
#334 = DESIGN_CONTEXT ( 'detailed design', #245, 'design' ) ;
#335 = CALENDAR_DATE ( 2026, 22, 6 ) ;
#336 = APPROVAL_DATE_TIME ( #97, #267 ) ;
#337 =( GEOMETRIC_REPRESENTATION_CONTEXT ( 3 ) GLOBAL_UNCERTAINTY_ASSIGNED_CONTEXT ( ( #95 ) ) GLOBAL_UNIT_ASSIGNED_CONTEXT ( ( #381, #255, #65 ) ) REPRESENTATION_CONTEXT ( 'NONE', 'WORKASPACE' ) );
#338 = LOCAL_TIME ( 18, 49, 54.00000000000000000, #113 ) ;
#339 = CC_DESIGN_PERSON_AND_ORGANIZATION_ASSIGNMENT ( #153, #204, ( #155 ) ) ;
#340 = PERSON_AND_ORGANIZATION ( #18446744073709551615, #18446744073709551615 ) ;
#341 = ITEM_DEFINED_TRANSFORMATION ( 'NONE', 'NONE', #148,  #127 ) ;
#342 = CALENDAR_DATE ( 2026, 22, 6 ) ;
#343 = PERSON ( 'NAUO-PER72', 'UNSPECIFIED', 'UNSPECIFIED', ('UNSPECIFIED'), ('UNSPECIFIED'), ('UNSPECIFIED') ) ;
#344 = CC_DESIGN_APPROVAL ( #267, ( #384 ) ) ;
#345 = CALENDAR_DATE ( 2026, 22, 6 ) ;
#346 = PERSON ( 'NAUO-PER70', 'UNSPECIFIED', 'UNSPECIFIED', ('UNSPECIFIED'), ('UNSPECIFIED'), ('UNSPECIFIED') ) ;
#347 = PRODUCT_DEFINITION_SHAPE ( 'NONE', 'NONE',  #212 ) ;
#348 = ROLE_ASSOCIATION ( #31, #264 ) ;
#349 = PRODUCT_DEFINITION_SHAPE ( 'NONE', 'NONE',  #390 ) ;
#350 = APPROVAL_STATUS ( 'not_yet_approved' ) ;
#351 = CC_DESIGN_SECURITY_CLASSIFICATION ( #274, ( #155 ) ) ;
#352 = CALENDAR_DATE ( 2026, 22, 6 ) ;
#353 = COORDINATED_UNIVERSAL_TIME_OFFSET ( 10, 0, .AHEAD. ) ;
#354 = EXTERNAL_SOURCE (IDENTIFIER('') ) ;
#355 = CONTEXT_DEPENDENT_SHAPE_REPRESENTATION ( #3, #378 ) ;
#356 = MECHANICAL_CONTEXT ( 'NONE', #11, 'mechanical' ) ;
#357 = LOCAL_TIME ( 18, 49, 54.00000000000000000, #73 ) ;
#358 = SECURITY_CLASSIFICATION_LEVEL ( 'unclassified' ) ;
#359 = CALENDAR_DATE ( 2026, 22, 6 ) ;
#360 = CC_DESIGN_DATE_AND_TIME_ASSIGNMENT ( #159, #140, ( #384 ) ) ;
#361 = COORDINATED_UNIVERSAL_TIME_OFFSET ( 10, 0, .AHEAD. ) ;
#362 = CC_DESIGN_APPROVAL ( #163, ( #243 ) ) ;
#363 = APPROVAL_PERSON_ORGANIZATION ( #244, #330, #365 ) ;
#364 = PERSON_AND_ORGANIZATION ( #18446744073709551615, #18446744073709551615 ) ;
#365 = APPROVAL_ROLE ( '' ) ;
#366 = PROPERTY_DEFINITION ('document property','', #167 ) ;
#367 = SECURITY_CLASSIFICATION_LEVEL ( 'unclassified' ) ;
#368 =( REPRESENTATION_RELATIONSHIP ('NONE','NONE', #61, #295 ) REPRESENTATION_RELATIONSHIP_WITH_TRANSFORMATION ( #314 )SHAPE_REPRESENTATION_RELATIONSHIP( ) );
#369 = CC_DESIGN_PERSON_AND_ORGANIZATION_ASSIGNMENT ( #82, #194, ( #106 ) ) ;
#370 = CALENDAR_DATE ( 2026, 22, 6 ) ;
#371 = APPROVAL ( #382, 'UNKNOWN' ) ;
#372 = PRODUCT_DEFINITION_FORMATION_WITH_SPECIFIED_SOURCE ( 'Symmetric', '', #166, .NOT_KNOWN. ) ;
#373 = APPROVAL_STATUS ( 'not_yet_approved' ) ;
#374 = COORDINATED_UNIVERSAL_TIME_OFFSET ( 10, 0, .AHEAD. ) ;
#375 = PERSON_AND_ORGANIZATION ( #18446744073709551615, #18446744073709551615 ) ;
#376 = APPROVAL_PERSON_ORGANIZATION ( #237, #67, #34 ) ;
#377 = LOCAL_TIME ( 18, 49, 54.00000000000000000, #150 ) ;
#378 = PRODUCT_DEFINITION_SHAPE ( 'NONE', 'NONE',  #389 ) ;
#379 = PROPERTY_DEFINITION_REPRESENTATION ( #366, #93 ) ;
#380 = DIRECTION ( 'NONE',  ( 4.890937612370273194E-29, -3.155443620884047222E-30, 0.9999999999999997780 ) ) ;
#381 =( LENGTH_UNIT ( ) NAMED_UNIT ( * ) SI_UNIT ( .MILLI., .METRE. ) );
#382 = APPROVAL_STATUS ( 'not_yet_approved' ) ;
#383 = COORDINATED_UNIVERSAL_TIME_OFFSET ( 10, 0, .AHEAD. ) ;
#384 = SECURITY_CLASSIFICATION ( '', '', #367 ) ;
#385 = PROPERTY_DEFINITION_REPRESENTATION ( #192, #295 ) ;
#386 =( NAMED_UNIT ( * ) PLANE_ANGLE_UNIT ( ) SI_UNIT ( $, .RADIAN. ) );
#387 = DATE_TIME_ROLE ( 'creation_date' ) ;
#388 = NEXT_ASSEMBLY_USAGE_OCCURRENCE ( 'NAUO70', ' ', ' ', #243, #212, $ ) ;
#389 = NEXT_ASSEMBLY_USAGE_OCCURRENCE ( 'NAUO71', ' ', ' ', #243, #212, $ ) ;
#390 = NEXT_ASSEMBLY_USAGE_OCCURRENCE ( 'NAUO72', ' ', ' ', #243, #40, $ ) ;
ENDSEC;
END-ISO-10303-21;
