ISO-10303-21;
HEADER;
FILE_DESCRIPTION (( 'STEP AP203' ),
    '1' );
FILE_NAME ('D6.step.STEP',
    '2026-06-22T08:49:55',
    ( 'localuser' ),
    ( '' ),
    'SwSTEP 2.0',
    'SolidWorks 2025',
    '' );
FILE_SCHEMA (( 'CONFIG_CONTROL_DESIGN' ));
ENDSEC;

DATA;
#1 = DIRECTION ( 'NONE',  ( 1.000000000000000222, -1.092455418989176591E-28, 4.890937612370273194E-29 ) ) ;
#2 = APPROVAL ( #215, 'Coincident' ) ;
#3 = COORDINATED_UNIVERSAL_TIME_OFFSET ( 10, 0, .AHEAD. ) ;
#4 = PROPERTY_DEFINITION_REPRESENTATION ( #16, #385 ) ;
#5 = CC_DESIGN_APPROVAL ( #114, ( #286 ) ) ;
#6 = PERSON_AND_ORGANIZATION_ROLE ( 'design_supplier' ) ;
#7 = DATE_AND_TIME ( #156, #196 ) ;
#8 = APPROVAL ( #316, 'Coincident' ) ;
#9 = APPROVAL_STATUS ( 'not_yet_approved' ) ;
#10 = DOCUMENT_TYPE ( 'geometry' ) ;
#11 = AXIS2_PLACEMENT_3D ( 'NONE', #361, #153, #362 ) ;
#12 = PERSON_AND_ORGANIZATION_ROLE ( 'creator' ) ;
#13 = PRODUCT_DEFINITION_FORMATION_WITH_SPECIFIED_SOURCE ( 'Symmetric', '', #200, .NOT_KNOWN. ) ;
#14 = CALENDAR_DATE ( 2026, 22, 6 ) ;
#15 = SHAPE_DEFINITION_REPRESENTATION ( #233, #94 ) ;
#16 = PROPERTY_DEFINITION ('document property','', #25 ) ;
#17 = APPROVAL_DATE_TIME ( #118, #376 ) ;
#18 = APPROVAL_PERSON_ORGANIZATION ( #201, #285, #357 ) ;
#19 = APPLICATION_CONTEXT ( 'configuration controlled 3d designs of mechanical parts and assemblies' ) ;
#20 = ITEM_DEFINED_TRANSFORMATION ( 'NONE', 'NONE', #91,  #253 ) ;
#21 = APPLIED_DOCUMENT_REFERENCE ( #276,'',( #109) ) ;
#22 =( NAMED_UNIT ( * ) PLANE_ANGLE_UNIT ( ) SI_UNIT ( $, .RADIAN. ) );
#23 = CARTESIAN_POINT ( 'NONE',  ( 0.000000000000000000, 0.000000000000000000, 0.000000000000000000 ) ) ;
#24 = LOCAL_TIME ( 18, 49, 55.00000000000000000, #235 ) ;
#25 = DOCUMENT_FILE ( '11552553264.step.STEP' , '', '', #283, '' ,$ ) ;
#26 = APPROVAL ( #377, 'Coincident' ) ;
#27 = PERSON_AND_ORGANIZATION ( #384, #58 ) ;
#28 = PERSON_AND_ORGANIZATION ( #18446744073709551615, #18446744073709551615 ) ;
#29 = COORDINATED_UNIVERSAL_TIME_OFFSET ( 10, 0, .AHEAD. ) ;
#30 = APPROVAL_PERSON_ORGANIZATION ( #302, #158, #186 ) ;
#31 = APPROVAL_ROLE ( '' ) ;
#32 = APPROVAL ( #381, 'Coincident' ) ;
#33 = APPLICATION_PROTOCOL_DEFINITION ( 'international standard', 'config_control_design', 1994, #220 ) ;
#34 = APPROVAL_DATE_TIME ( #271, #2 ) ;
#35 = LOCAL_TIME ( 18, 49, 55.00000000000000000, #131 ) ;
#36 = APPROVAL_ROLE ( '' ) ;
#37 = PERSON_AND_ORGANIZATION ( #18446744073709551615, #18446744073709551615 ) ;
#38 = APPLICATION_PROTOCOL_DEFINITION ( 'international standard', 'config_control_design', 1994, #291 ) ;
#39 = LOCAL_TIME ( 18, 49, 55.00000000000000000, #332 ) ;
#40 = APPROVAL_ROLE ( '' ) ;
#41 = CC_DESIGN_DATE_AND_TIME_ASSIGNMENT ( #75, #222, ( #272 ) ) ;
#42 = PERSON_AND_ORGANIZATION ( #18446744073709551615, #18446744073709551615 ) ;
#43 = CALENDAR_DATE ( 2026, 22, 6 ) ;
#44 = PROPERTY_DEFINITION ('external definition','', #25 ) ;
#45 = PROPERTY_DEFINITION_REPRESENTATION ( #251, #245 ) ;
#46 = PRODUCT_DEFINITION_SHAPE ( 'NONE', 'NONE',  #177 ) ;
#47 = PROPERTY_DEFINITION_REPRESENTATION ( #369, #245 ) ;
#48 =( REPRESENTATION_RELATIONSHIP ('NONE','NONE', #94, #245 ) REPRESENTATION_RELATIONSHIP_WITH_TRANSFORMATION ( #89 )SHAPE_REPRESENTATION_RELATIONSHIP( ) );
#49 = PERSON_AND_ORGANIZATION ( #18446744073709551615, #18446744073709551615 ) ;
#50 = PERSON_AND_ORGANIZATION ( #18446744073709551615, #18446744073709551615 ) ;
#51 = COORDINATED_UNIVERSAL_TIME_OFFSET ( 10, 0, .AHEAD. ) ;
#52 = CC_DESIGN_PERSON_AND_ORGANIZATION_ASSIGNMENT ( #49, #78, ( #13 ) ) ;
#53 = CC_DESIGN_SECURITY_CLASSIFICATION ( #322, ( #388 ) ) ;
#54 = DOCUMENT_FILE ( '6325040192.step.STEP' , '', '', #112, '' ,$ ) ;
#55 = CALENDAR_DATE ( 2026, 22, 6 ) ;
#56 = UNCERTAINTY_MEASURE_WITH_UNIT (LENGTH_MEASURE( 1.000000000000000082E-05 ), #359, 'distance_accuracy_value', 'NONE');
#57 = CC_DESIGN_APPROVAL ( #158, ( #203 ) ) ;
#58 = ORGANIZATION ( 'NAUO-ORG101', 'UNSPECIFIED', 'UNSPECIFIED' ) ;
#59 = CC_DESIGN_DATE_AND_TIME_ASSIGNMENT ( #197, #317, ( #125 ) ) ;
#60 = CALENDAR_DATE ( 2026, 22, 6 ) ;
#61 = DATE_TIME_ROLE ( 'creation_date' ) ;
#62 = PERSON_AND_ORGANIZATION ( #18446744073709551615, #18446744073709551615 ) ;
#63 = CALENDAR_DATE ( 2026, 22, 6 ) ;
#64 = CC_DESIGN_DATE_AND_TIME_ASSIGNMENT ( #179, #148, ( #286 ) ) ;
#65 = LOCAL_TIME ( 18, 49, 55.00000000000000000, #270 ) ;
#66 = MECHANICAL_CONTEXT ( 'NONE', #291, 'mechanical' ) ;
#67 = APPLICATION_PROTOCOL_DEFINITION ( 'international standard', 'config_control_design', 1994, #193 ) ;
#68 = PRODUCT_RELATED_PRODUCT_CATEGORY ( 'detail', '', ( #260 ) ) ;
#69 = APPROVAL_STATUS ( 'not_yet_approved' ) ;
#70 = APPLICATION_PROTOCOL_DEFINITION ( 'international standard', 'config_control_design', 1994, #145 ) ;
#71 = CC_DESIGN_APPROVAL ( #32, ( #314 ) ) ;
#72 = DATE_AND_TIME ( #290, #65 ) ;
#73 = PERSON_AND_ORGANIZATION_ROLE ( 'classification_officer' ) ;
#74 = PRODUCT_RELATED_PRODUCT_CATEGORY ( 'detail', '', ( #350 ) ) ;
#75 = DATE_AND_TIME ( #167, #24 ) ;
#76 = LOCAL_TIME ( 18, 49, 55.00000000000000000, #3 ) ;
#77 = CC_DESIGN_APPROVAL ( #163, ( #298 ) ) ;
#78 = PERSON_AND_ORGANIZATION_ROLE ( 'design_supplier' ) ;
#79 = CC_DESIGN_DATE_AND_TIME_ASSIGNMENT ( #296, #323, ( #314 ) ) ;
#80 = DATE_AND_TIME ( #237, #115 ) ;
#81 =( LENGTH_UNIT ( ) NAMED_UNIT ( * ) SI_UNIT ( .MILLI., .METRE. ) );
#82 =( GEOMETRIC_REPRESENTATION_CONTEXT ( 3 ) GLOBAL_UNCERTAINTY_ASSIGNED_CONTEXT ( ( #304 ) ) GLOBAL_UNIT_ASSIGNED_CONTEXT ( ( #87, #217, #367 ) ) REPRESENTATION_CONTEXT ( 'NONE', 'WORKASPACE' ) );
#83 = CC_DESIGN_SECURITY_CLASSIFICATION ( #125, ( #298 ) ) ;
#84 = DATE_AND_TIME ( #277, #230 ) ;
#85 = DIRECTION ( 'NONE',  ( 1.000000000000000000, 0.000000000000000000, 0.000000000000000000 ) ) ;
#86 = COORDINATED_UNIVERSAL_TIME_OFFSET ( 10, 0, .AHEAD. ) ;
#87 =( LENGTH_UNIT ( ) NAMED_UNIT ( * ) SI_UNIT ( .MILLI., .METRE. ) );
#88 = APPROVAL ( #69, 'Coincident' ) ;
#89 = ITEM_DEFINED_TRANSFORMATION ( 'NONE', 'NONE', #340,  #253 ) ;
#90 = PERSON_AND_ORGANIZATION ( #18446744073709551615, #18446744073709551615 ) ;
#91 = AXIS2_PLACEMENT_3D ( 'NONE', #309, #246, #1 ) ;
#92 = APPROVAL_PERSON_ORGANIZATION ( #135, #32, #262 ) ;
#93 = PROPERTY_DEFINITION_REPRESENTATION ( #44, #385 ) ;
#94 = SHAPE_REPRESENTATION ( 'D6.step', ( #154, #91, #11, #340 ), #82 ) ;
#95 = PERSON_AND_ORGANIZATION_ROLE ( 'design_owner' ) ;
#96 = DESIGN_CONTEXT ( 'detailed design', #145, 'design' ) ;
#97 = CC_DESIGN_DATE_AND_TIME_ASSIGNMENT ( #120, #61, ( #325 ) ) ;
#98 = PERSON ( 'NAUO-PER102', 'UNSPECIFIED', 'UNSPECIFIED', ('UNSPECIFIED'), ('UNSPECIFIED'), ('UNSPECIFIED') ) ;
#99 = APPROVAL_ROLE ( '' ) ;
#100 = APPLIED_EXTERNAL_IDENTIFICATION_ASSIGNMENT ( '11552553264.step.STEP' , #275, #202,( #25) ) ;
#101 = PERSON_AND_ORGANIZATION_ROLE ( 'design_supplier' ) ;
#102 = CC_DESIGN_PERSON_AND_ORGANIZATION_ASSIGNMENT ( #172, #73, ( #314 ) ) ;
#103 = PERSON_AND_ORGANIZATION ( #18446744073709551615, #18446744073709551615 ) ;
#104 = COORDINATED_UNIVERSAL_TIME_OFFSET ( 10, 0, .AHEAD. ) ;
#105 = DATE_AND_TIME ( #258, #261 ) ;
#106 = APPROVAL_STATUS ( 'not_yet_approved' ) ;
#107 = PROPERTY_DEFINITION ('document property','', #54 ) ;
#108 = DATE_TIME_ROLE ( 'classification_date' ) ;
#109 = PRODUCT_DEFINITION ( 'General', '', #13, #301 ) ;
#110 = PRODUCT_DEFINITION_SHAPE ( 'NONE', 'NONE',  #388 ) ;
#111 = DATE_AND_TIME ( #210, #307 ) ;
#112 = DOCUMENT_TYPE ( 'geometry' ) ;
#113 = CALENDAR_DATE ( 2026, 22, 6 ) ;
#114 = APPROVAL ( #9, 'Coincident' ) ;
#115 = LOCAL_TIME ( 18, 49, 55.00000000000000000, #355 ) ;
#116 = APPROVAL ( #232, 'UNKNOWN' ) ;
#117 = PERSON_AND_ORGANIZATION ( #273, #341 ) ;
#118 = DATE_AND_TIME ( #264, #292 ) ;
#119 = PROPERTY_DEFINITION_REPRESENTATION ( #347, #245 ) ;
#120 = DATE_AND_TIME ( #335, #371 ) ;
#121 = LOCAL_TIME ( 18, 49, 55.00000000000000000, #29 ) ;
#122 = CC_DESIGN_DATE_AND_TIME_ASSIGNMENT ( #141, #165, ( #109 ) ) ;
#123 =( NAMED_UNIT ( * ) SI_UNIT ( $, .STERADIAN. ) SOLID_ANGLE_UNIT ( ) );
#124 = CC_DESIGN_PERSON_AND_ORGANIZATION_ASSIGNMENT ( #293, #269, ( #13 ) ) ;
#125 = SECURITY_CLASSIFICATION ( '', '', #228 ) ;
#126 = SECURITY_CLASSIFICATION_LEVEL ( 'unclassified' ) ;
#127 = IDENTIFICATION_ROLE ( 'external document id and location', $) ;
#128 = PERSON_AND_ORGANIZATION ( #18446744073709551615, #18446744073709551615 ) ;
#129 = COORDINATED_UNIVERSAL_TIME_OFFSET ( 10, 0, .AHEAD. ) ;
#130 = CC_DESIGN_SECURITY_CLASSIFICATION ( #314, ( #13 ) ) ;
#131 = COORDINATED_UNIVERSAL_TIME_OFFSET ( 10, 0, .AHEAD. ) ;
#132 = CC_DESIGN_PERSON_AND_ORGANIZATION_ASSIGNMENT ( #103, #101, ( #298 ) ) ;
#133 = COORDINATED_UNIVERSAL_TIME_OFFSET ( 10, 0, .AHEAD. ) ;
#134 = APPROVAL_ROLE ( '' ) ;
#135 = PERSON_AND_ORGANIZATION ( #18446744073709551615, #18446744073709551615 ) ;
#136 = LOCAL_TIME ( 18, 49, 55.00000000000000000, #137 ) ;
#137 = COORDINATED_UNIVERSAL_TIME_OFFSET ( 10, 0, .AHEAD. ) ;
#138 = CALENDAR_DATE ( 2026, 22, 6 ) ;
#139 = CARTESIAN_POINT ( 'NONE',  ( 0.000000000000000000, 0.000000000000000000, 0.000000000000000000 ) ) ;
#140 = CC_DESIGN_PERSON_AND_ORGANIZATION_ASSIGNMENT ( #42, #182, ( #325 ) ) ;
#141 = DATE_AND_TIME ( #199, #189 ) ;
#142 = LOCAL_TIME ( 18, 49, 55.00000000000000000, #129 ) ;
#143 = APPROVAL_STATUS ( 'not_yet_approved' ) ;
#144 = CARTESIAN_POINT ( 'NONE',  ( 0.000000000000000000, 0.000000000000000000, 0.000000000000000000 ) ) ;
#145 = APPLICATION_CONTEXT ( 'configuration controlled 3d designs of mechanical parts and assemblies' ) ;
#146 = DIRECTION ( 'NONE',  ( 1.000000000000000222, -1.092455418989176591E-28, 4.890937612370273194E-29 ) ) ;
#147 = CC_DESIGN_PERSON_AND_ORGANIZATION_ASSIGNMENT ( #28, #6, ( #203 ) ) ;
#148 = DATE_TIME_ROLE ( 'classification_date' ) ;
#149 = APPROVAL_PERSON_ORGANIZATION ( #90, #2, #221 ) ;
#150 = LOCAL_TIME ( 18, 49, 55.00000000000000000, #157 ) ;
#151 = DATE_AND_TIME ( #60, #206 ) ;
#152 = DATE_TIME_ROLE ( 'classification_date' ) ;
#153 = DIRECTION ( 'NONE',  ( 4.890937612370273194E-29, -3.155443620884047222E-30, 0.9999999999999997780 ) ) ;
#154 = AXIS2_PLACEMENT_3D ( 'NONE', #144, #169, #85 ) ;
#155 = CC_DESIGN_APPROVAL ( #285, ( #13 ) ) ;
#156 = CALENDAR_DATE ( 2026, 22, 6 ) ;
#157 = COORDINATED_UNIVERSAL_TIME_OFFSET ( 10, 0, .AHEAD. ) ;
#158 = APPROVAL ( #223, 'Coincident' ) ;
#159 = APPROVAL_DATE_TIME ( #7, #8 ) ;
#160 = SECURITY_CLASSIFICATION ( '', '', #331 ) ;
#161 = PERSON_AND_ORGANIZATION ( #18446744073709551615, #18446744073709551615 ) ;
#162 = PERSON_AND_ORGANIZATION ( #18446744073709551615, #18446744073709551615 ) ;
#163 = APPROVAL ( #370, 'Coincident' ) ;
#164 = OBJECT_ROLE ('mandatory',$ ) ;
#165 = DATE_TIME_ROLE ( 'creation_date' ) ;
#166 = PRODUCT_DEFINITION_SHAPE ( 'NONE', 'NONE',  #109 ) ;
#167 = CALENDAR_DATE ( 2026, 22, 6 ) ;
#168 = CC_DESIGN_APPROVAL ( #116, ( #272 ) ) ;
#169 = DIRECTION ( 'NONE',  ( 0.000000000000000000, 0.000000000000000000, 1.000000000000000000 ) ) ;
#170 = COORDINATED_UNIVERSAL_TIME_OFFSET ( 10, 0, .AHEAD. ) ;
#171 = DIRECTION ( 'NONE',  ( 1.000000000000000000, 0.000000000000000000, 0.000000000000000000 ) ) ;
#172 = PERSON_AND_ORGANIZATION ( #18446744073709551615, #18446744073709551615 ) ;
#173 = ITEM_DEFINED_TRANSFORMATION ( 'NONE', 'NONE', #11,  #365 ) ;
#174 = CC_DESIGN_SECURITY_CLASSIFICATION ( #160, ( #390 ) ) ;
#175 = CONTEXT_DEPENDENT_SHAPE_REPRESENTATION ( #256, #294 ) ;
#176 =( NAMED_UNIT ( * ) PLANE_ANGLE_UNIT ( ) SI_UNIT ( $, .RADIAN. ) );
#177 = PRODUCT_DEFINITION ( 'General', '', #298, #96 ) ;
#178 = PERSON_AND_ORGANIZATION ( #98, #287 ) ;
#179 = DATE_AND_TIME ( #55, #121 ) ;
#180 = EXTERNAL_SOURCE (IDENTIFIER('') ) ;
#181 = CONTEXT_DEPENDENT_SHAPE_REPRESENTATION ( #48, #352 ) ;
#182 = PERSON_AND_ORGANIZATION_ROLE ( 'creator' ) ;
#183 = APPROVAL_PERSON_ORGANIZATION ( #282, #163, #99 ) ;
#184 = PROPERTY_DEFINITION_REPRESENTATION ( #107, #245 ) ;
#185 = CC_DESIGN_PERSON_AND_ORGANIZATION_ASSIGNMENT ( #117, #351, ( #322 ) ) ;
#186 = APPROVAL_ROLE ( '' ) ;
#187 = PERSON_AND_ORGANIZATION_ROLE ( 'creator' ) ;
#188 = APPLICATION_PROTOCOL_DEFINITION ( 'international standard', 'config_control_design', 1994, #244 ) ;
#189 = LOCAL_TIME ( 18, 49, 55.00000000000000000, #51 ) ;
#190 = PERSON_AND_ORGANIZATION ( #18446744073709551615, #18446744073709551615 ) ;
#191 = CC_DESIGN_DATE_AND_TIME_ASSIGNMENT ( #315, #229, ( #177 ) ) ;
#192 = PERSON_AND_ORGANIZATION ( #18446744073709551615, #18446744073709551615 ) ;
#193 = APPLICATION_CONTEXT ( 'configuration controlled 3d designs of mechanical parts and assemblies' ) ;
#194 = PERSON_AND_ORGANIZATION_ROLE ( 'creator' ) ;
#195 = CC_DESIGN_APPROVAL ( #2, ( #325 ) ) ;
#196 = LOCAL_TIME ( 18, 49, 55.00000000000000000, #339 ) ;
#197 = DATE_AND_TIME ( #14, #150 ) ;
#198 = CC_DESIGN_PERSON_AND_ORGANIZATION_ASSIGNMENT ( #161, #194, ( #177 ) ) ;
#199 = CALENDAR_DATE ( 2026, 22, 6 ) ;
#200 = PRODUCT ( '6325040192.step', '6325040192.step', '', ( #344 ) ) ;
#201 = PERSON_AND_ORGANIZATION ( #18446744073709551615, #18446744073709551615 ) ;
#202 = EXTERNAL_SOURCE (IDENTIFIER('') ) ;
#203 = PRODUCT_DEFINITION_FORMATION_WITH_SPECIFIED_SOURCE ( 'Symmetric', '', #350, .NOT_KNOWN. ) ;
#204 = APPLIED_EXTERNAL_IDENTIFICATION_ASSIGNMENT ( '6325040192.step.STEP' , #305, #226,( #54) ) ;
#205 = PERSON_AND_ORGANIZATION ( #18446744073709551615, #18446744073709551615 ) ;
#206 = LOCAL_TIME ( 18, 49, 55.00000000000000000, #86 ) ;
#207 = CC_DESIGN_PERSON_AND_ORGANIZATION_ASSIGNMENT ( #62, #187, ( #203 ) ) ;
#208 = COORDINATED_UNIVERSAL_TIME_OFFSET ( 10, 0, .AHEAD. ) ;
#209 = DIRECTION ( 'NONE',  ( 0.000000000000000000, 0.000000000000000000, 1.000000000000000000 ) ) ;
#210 = CALENDAR_DATE ( 2026, 22, 6 ) ;
#211 =( GEOMETRIC_REPRESENTATION_CONTEXT ( 3 ) GLOBAL_UNCERTAINTY_ASSIGNED_CONTEXT ( ( #56 ) ) GLOBAL_UNIT_ASSIGNED_CONTEXT ( ( #359, #176, #123 ) ) REPRESENTATION_CONTEXT ( 'NONE', 'WORKASPACE' ) );
#212 = CC_DESIGN_PERSON_AND_ORGANIZATION_ASSIGNMENT ( #178, #336, ( #160 ) ) ;
#213 = APPROVAL_PERSON_ORGANIZATION ( #284, #26, #342 ) ;
#214 = APPROVAL_DATE_TIME ( #306, #116 ) ;
#215 = APPROVAL_STATUS ( 'not_yet_approved' ) ;
#216 = ROLE_ASSOCIATION ( #164, #310 ) ;
#217 =( NAMED_UNIT ( * ) PLANE_ANGLE_UNIT ( ) SI_UNIT ( $, .RADIAN. ) );
#218 = CC_DESIGN_DATE_AND_TIME_ASSIGNMENT ( #72, #108, ( #322 ) ) ;
#219 = APPROVAL_ROLE ( '' ) ;
#220 = APPLICATION_CONTEXT ( 'configuration controlled 3d designs of mechanical parts and assemblies' ) ;
#221 = APPROVAL_ROLE ( '' ) ;
#222 = DATE_TIME_ROLE ( 'classification_date' ) ;
#223 = APPROVAL_STATUS ( 'not_yet_approved' ) ;
#224 = CALENDAR_DATE ( 2026, 22, 6 ) ;
#225 = APPROVAL_PERSON_ORGANIZATION ( #178, #363, #31 ) ;
#226 = EXTERNAL_SOURCE (IDENTIFIER('') ) ;
#227 = PERSON_AND_ORGANIZATION_ROLE ( 'classification_officer' ) ;
#228 = SECURITY_CLASSIFICATION_LEVEL ( 'unclassified' ) ;
#229 = DATE_TIME_ROLE ( 'creation_date' ) ;
#230 = LOCAL_TIME ( 18, 49, 55.00000000000000000, #330 ) ;
#231 = APPROVAL_DATE_TIME ( #105, #26 ) ;
#232 = APPROVAL_STATUS ( 'not_yet_approved' ) ;
#233 = PRODUCT_DEFINITION_SHAPE ( 'NONE', 'NONE',  #325 ) ;
#234 =( NAMED_UNIT ( * ) SI_UNIT ( $, .STERADIAN. ) SOLID_ANGLE_UNIT ( ) );
#235 = COORDINATED_UNIVERSAL_TIME_OFFSET ( 10, 0, .AHEAD. ) ;
#236 = CC_DESIGN_SECURITY_CLASSIFICATION ( #272, ( #389 ) ) ;
#237 = CALENDAR_DATE ( 2026, 22, 6 ) ;
#238 =( REPRESENTATION_RELATIONSHIP ('NONE','NONE', #94, #245 ) REPRESENTATION_RELATIONSHIP_WITH_TRANSFORMATION ( #20 )SHAPE_REPRESENTATION_RELATIONSHIP( ) );
#239 = DIRECTION ( 'NONE',  ( 1.000000000000000000, 0.000000000000000000, 0.000000000000000000 ) ) ;
#240 = CC_DESIGN_PERSON_AND_ORGANIZATION_ASSIGNMENT ( #27, #303, ( #272 ) ) ;
#241 = COORDINATED_UNIVERSAL_TIME_OFFSET ( 10, 0, .AHEAD. ) ;
#242 = PERSON_AND_ORGANIZATION_ROLE ( 'classification_officer' ) ;
#243 = CC_DESIGN_APPROVAL ( #376, ( #322 ) ) ;
#244 = APPLICATION_CONTEXT ( 'configuration controlled 3d designs of mechanical parts and assemblies' ) ;
#245 = SHAPE_REPRESENTATION ( '6325040192.step', ( #253 ), #345 ) ;
#246 = DIRECTION ( 'NONE',  ( 4.890937612370273194E-29, -3.155443620884047222E-30, 0.9999999999999997780 ) ) ;
#247 = LOCAL_TIME ( 18, 49, 55.00000000000000000, #170 ) ;
#248 = UNCERTAINTY_MEASURE_WITH_UNIT (LENGTH_MEASURE( 1.000000000000000082E-05 ), #81, 'distance_accuracy_value', 'NONE');
#249 = PERSON_AND_ORGANIZATION ( #18446744073709551615, #18446744073709551615 ) ;
#250 = APPROVAL_DATE_TIME ( #343, #114 ) ;
#251 = PROPERTY_DEFINITION ('document property','', #276 ) ;
#252 = DATE_AND_TIME ( #43, #142 ) ;
#253 = AXIS2_PLACEMENT_3D ( 'NONE', #23, #209, #239 ) ;
#254 = APPROVAL_PERSON_ORGANIZATION ( #162, #114, #40 ) ;
#255 = PERSON_AND_ORGANIZATION_ROLE ( 'design_owner' ) ;
#256 =( REPRESENTATION_RELATIONSHIP ('NONE','NONE', #94, #385 ) REPRESENTATION_RELATIONSHIP_WITH_TRANSFORMATION ( #173 )SHAPE_REPRESENTATION_RELATIONSHIP( ) );
#257 = CC_DESIGN_PERSON_AND_ORGANIZATION_ASSIGNMENT ( #37, #227, ( #125 ) ) ;
#258 = CALENDAR_DATE ( 2026, 22, 6 ) ;
#259 = CALENDAR_DATE ( 2026, 22, 6 ) ;
#260 = PRODUCT ( '11552553264.step', '11552553264.step', '', ( #66 ) ) ;
#261 = LOCAL_TIME ( 18, 49, 55.00000000000000000, #133 ) ;
#262 = APPROVAL_ROLE ( '' ) ;
#263 = APPLICATION_PROTOCOL_DEFINITION ( 'international standard', 'config_control_design', 1994, #19 ) ;
#264 = CALENDAR_DATE ( 2026, 22, 6 ) ;
#265 = CC_DESIGN_PERSON_AND_ORGANIZATION_ASSIGNMENT ( #50, #95, ( #350 ) ) ;
#266 = OBJECT_ROLE ('mandatory',$ ) ;
#267 = PERSON_AND_ORGANIZATION_ROLE ( 'creator' ) ;
#268 = CC_DESIGN_APPROVAL ( #8, ( #109 ) ) ;
#269 = PERSON_AND_ORGANIZATION_ROLE ( 'creator' ) ;
#270 = COORDINATED_UNIVERSAL_TIME_OFFSET ( 10, 0, .AHEAD. ) ;
#271 = DATE_AND_TIME ( #63, #39 ) ;
#272 = SECURITY_CLASSIFICATION ( '', '', #386 ) ;
#273 = PERSON ( 'NAUO-PER100', 'UNSPECIFIED', 'UNSPECIFIED', ('UNSPECIFIED'), ('UNSPECIFIED'), ('UNSPECIFIED') ) ;
#274 = ROLE_ASSOCIATION ( #266, #333 ) ;
#275 = IDENTIFICATION_ROLE ( 'external document id and location', $) ;
#276 = DOCUMENT_FILE ( '6325040192.step.STEP' , '', '', #10, '' ,$ ) ;
#277 = CALENDAR_DATE ( 2026, 22, 6 ) ;
#278 = COORDINATED_UNIVERSAL_TIME_OFFSET ( 10, 0, .AHEAD. ) ;
#279 = APPROVAL_PERSON_ORGANIZATION ( #27, #116, #219 ) ;
#280 = CC_DESIGN_PERSON_AND_ORGANIZATION_ASSIGNMENT ( #128, #255, ( #260 ) ) ;
#281 = SHAPE_DEFINITION_REPRESENTATION ( #46, #385 ) ;
#282 = PERSON_AND_ORGANIZATION ( #18446744073709551615, #18446744073709551615 ) ;
#283 = DOCUMENT_TYPE ( 'geometry' ) ;
#284 = PERSON_AND_ORGANIZATION ( #18446744073709551615, #18446744073709551615 ) ;
#285 = APPROVAL ( #326, 'Coincident' ) ;
#286 = SECURITY_CLASSIFICATION ( '', '', #126 ) ;
#287 = ORGANIZATION ( 'NAUO-ORG102', 'UNSPECIFIED', 'UNSPECIFIED' ) ;
#288 = CALENDAR_DATE ( 2026, 22, 6 ) ;
#289 = PERSON_AND_ORGANIZATION_ROLE ( 'design_owner' ) ;
#290 = CALENDAR_DATE ( 2026, 22, 6 ) ;
#291 = APPLICATION_CONTEXT ( 'configuration controlled 3d designs of mechanical parts and assemblies' ) ;
#292 = LOCAL_TIME ( 18, 49, 55.00000000000000000, #208 ) ;
#293 = PERSON_AND_ORGANIZATION ( #18446744073709551615, #18446744073709551615 ) ;
#294 = PRODUCT_DEFINITION_SHAPE ( 'NONE', 'NONE',  #389 ) ;
#295 = CONTEXT_DEPENDENT_SHAPE_REPRESENTATION ( #238, #110 ) ;
#296 = DATE_AND_TIME ( #113, #136 ) ;
#297 = CC_DESIGN_DATE_AND_TIME_ASSIGNMENT ( #84, #152, ( #160 ) ) ;
#298 = PRODUCT_DEFINITION_FORMATION_WITH_SPECIFIED_SOURCE ( 'Symmetric', '', #260, .NOT_KNOWN. ) ;
#299 = APPROVAL_DATE_TIME ( #80, #285 ) ;
#300 = DIRECTION ( 'NONE',  ( 0.000000000000000000, 0.000000000000000000, 1.000000000000000000 ) ) ;
#301 = DESIGN_CONTEXT ( 'detailed design', #244, 'design' ) ;
#302 = PERSON_AND_ORGANIZATION ( #18446744073709551615, #18446744073709551615 ) ;
#303 = PERSON_AND_ORGANIZATION_ROLE ( 'classification_officer' ) ;
#304 = UNCERTAINTY_MEASURE_WITH_UNIT (LENGTH_MEASURE( 1.000000000000000082E-05 ), #87, 'distance_accuracy_value', 'NONE');
#305 = IDENTIFICATION_ROLE ( 'external document id and location', $) ;
#306 = DATE_AND_TIME ( #138, #247 ) ;
#307 = LOCAL_TIME ( 18, 49, 55.00000000000000000, #241 ) ;
#308 = DIRECTION ( 'NONE',  ( 4.890937612370273194E-29, -3.155443620884047222E-30, 0.9999999999999997780 ) ) ;
#309 = CARTESIAN_POINT ( 'NONE',  ( 1.399998718232000394, 14.57499340820300482, -2.058321952819998302 ) ) ;
#310 = APPLIED_DOCUMENT_REFERENCE ( #25,'',( #177) ) ;
#311 = CALENDAR_DATE ( 2026, 22, 6 ) ;
#312 = PRODUCT_RELATED_PRODUCT_CATEGORY ( 'detail', '', ( #200 ) ) ;
#313 = PERSON_AND_ORGANIZATION ( #18446744073709551615, #18446744073709551615 ) ;
#314 = SECURITY_CLASSIFICATION ( '', '', #383 ) ;
#315 = DATE_AND_TIME ( #288, #379 ) ;
#316 = APPROVAL_STATUS ( 'not_yet_approved' ) ;
#317 = DATE_TIME_ROLE ( 'classification_date' ) ;
#318 = CC_DESIGN_APPROVAL ( #88, ( #177 ) ) ;
#319 = PERSON_AND_ORGANIZATION ( #18446744073709551615, #18446744073709551615 ) ;
#320 = ROLE_ASSOCIATION ( #356, #21 ) ;
#321 = SHAPE_DEFINITION_REPRESENTATION ( #166, #245 ) ;
#322 = SECURITY_CLASSIFICATION ( '', '', #327 ) ;
#323 = DATE_TIME_ROLE ( 'classification_date' ) ;
#324 = MECHANICAL_CONTEXT ( 'NONE', #19, 'mechanical' ) ;
#325 = PRODUCT_DEFINITION ( 'General', '', #203, #358 ) ;
#326 = APPROVAL_STATUS ( 'not_yet_approved' ) ;
#327 = SECURITY_CLASSIFICATION_LEVEL ( 'unclassified' ) ;
#328 = APPROVAL_PERSON_ORGANIZATION ( #190, #88, #134 ) ;
#329 = CC_DESIGN_SECURITY_CLASSIFICATION ( #286, ( #203 ) ) ;
#330 = COORDINATED_UNIVERSAL_TIME_OFFSET ( 10, 0, .AHEAD. ) ;
#331 = SECURITY_CLASSIFICATION_LEVEL ( 'unclassified' ) ;
#332 = COORDINATED_UNIVERSAL_TIME_OFFSET ( 10, 0, .AHEAD. ) ;
#333 = APPLIED_DOCUMENT_REFERENCE ( #54,'',( #109) ) ;
#334 = CARTESIAN_POINT ( 'NONE',  ( 1.399998718231999950, 13.22500256347700542, -2.058321952820000078 ) ) ;
#335 = CALENDAR_DATE ( 2026, 22, 6 ) ;
#336 = PERSON_AND_ORGANIZATION_ROLE ( 'classification_officer' ) ;
#337 = CC_DESIGN_PERSON_AND_ORGANIZATION_ASSIGNMENT ( #249, #242, ( #286 ) ) ;
#338 = DATE_AND_TIME ( #311, #76 ) ;
#339 = COORDINATED_UNIVERSAL_TIME_OFFSET ( 10, 0, .AHEAD. ) ;
#340 = AXIS2_PLACEMENT_3D ( 'NONE', #334, #308, #146 ) ;
#341 = ORGANIZATION ( 'NAUO-ORG100', 'UNSPECIFIED', 'UNSPECIFIED' ) ;
#342 = APPROVAL_ROLE ( '' ) ;
#343 = DATE_AND_TIME ( #259, #35 ) ;
#344 = MECHANICAL_CONTEXT ( 'NONE', #193, 'mechanical' ) ;
#345 =( GEOMETRIC_REPRESENTATION_CONTEXT ( 3 ) GLOBAL_UNCERTAINTY_ASSIGNED_CONTEXT ( ( #248 ) ) GLOBAL_UNIT_ASSIGNED_CONTEXT ( ( #81, #22, #234 ) ) REPRESENTATION_CONTEXT ( 'NONE', 'WORKASPACE' ) );
#346 = APPROVAL_PERSON_ORGANIZATION ( #117, #376, #380 ) ;
#347 = PROPERTY_DEFINITION ('external definition','', #54 ) ;
#348 = APPROVAL_DATE_TIME ( #372, #163 ) ;
#349 = CC_DESIGN_PERSON_AND_ORGANIZATION_ASSIGNMENT ( #205, #267, ( #109 ) ) ;
#350 = PRODUCT ( 'D6.step', 'D6.step', '', ( #324 ) ) ;
#351 = PERSON_AND_ORGANIZATION_ROLE ( 'classification_officer' ) ;
#352 = PRODUCT_DEFINITION_SHAPE ( 'NONE', 'NONE',  #390 ) ;
#353 = APPROVAL_DATE_TIME ( #111, #32 ) ;
#354 = CC_DESIGN_PERSON_AND_ORGANIZATION_ASSIGNMENT ( #192, #12, ( #298 ) ) ;
#355 = COORDINATED_UNIVERSAL_TIME_OFFSET ( 10, 0, .AHEAD. ) ;
#356 = OBJECT_ROLE ('mandatory',$ ) ;
#357 = APPROVAL_ROLE ( '' ) ;
#358 = DESIGN_CONTEXT ( 'detailed design', #220, 'design' ) ;
#359 =( LENGTH_UNIT ( ) NAMED_UNIT ( * ) SI_UNIT ( .MILLI., .METRE. ) );
#360 = CC_DESIGN_APPROVAL ( #26, ( #125 ) ) ;
#361 = CARTESIAN_POINT ( 'NONE',  ( 1.399998718231999950, 13.89999035644500225, -2.058321952820000078 ) ) ;
#362 = DIRECTION ( 'NONE',  ( 1.000000000000000222, -1.092455418989176591E-28, 4.890937612370273194E-29 ) ) ;
#363 = APPROVAL ( #106, 'UNKNOWN' ) ;
#364 = APPROVAL_DATE_TIME ( #151, #363 ) ;
#365 = AXIS2_PLACEMENT_3D ( 'NONE', #139, #300, #171 ) ;
#366 = APPLIED_EXTERNAL_IDENTIFICATION_ASSIGNMENT ( '6325040192.step.STEP' , #127, #180,( #276) ) ;
#367 =( NAMED_UNIT ( * ) SI_UNIT ( $, .STERADIAN. ) SOLID_ANGLE_UNIT ( ) );
#368 = APPROVAL_DATE_TIME ( #338, #158 ) ;
#369 = PROPERTY_DEFINITION ('external definition','', #276 ) ;
#370 = APPROVAL_STATUS ( 'not_yet_approved' ) ;
#371 = LOCAL_TIME ( 18, 49, 55.00000000000000000, #278 ) ;
#372 = DATE_AND_TIME ( #224, #387 ) ;
#373 = CC_DESIGN_APPROVAL ( #363, ( #160 ) ) ;
#374 = COORDINATED_UNIVERSAL_TIME_OFFSET ( 10, 0, .AHEAD. ) ;
#375 = APPROVAL_DATE_TIME ( #252, #88 ) ;
#376 = APPROVAL ( #143, 'UNKNOWN' ) ;
#377 = APPROVAL_STATUS ( 'not_yet_approved' ) ;
#378 = APPROVAL_PERSON_ORGANIZATION ( #313, #8, #36 ) ;
#379 = LOCAL_TIME ( 18, 49, 55.00000000000000000, #104 ) ;
#380 = APPROVAL_ROLE ( '' ) ;
#381 = APPROVAL_STATUS ( 'not_yet_approved' ) ;
#382 = CC_DESIGN_PERSON_AND_ORGANIZATION_ASSIGNMENT ( #319, #289, ( #200 ) ) ;
#383 = SECURITY_CLASSIFICATION_LEVEL ( 'unclassified' ) ;
#384 = PERSON ( 'NAUO-PER101', 'UNSPECIFIED', 'UNSPECIFIED', ('UNSPECIFIED'), ('UNSPECIFIED'), ('UNSPECIFIED') ) ;
#385 = SHAPE_REPRESENTATION ( '11552553264.step', ( #365 ), #211 ) ;
#386 = SECURITY_CLASSIFICATION_LEVEL ( 'unclassified' ) ;
#387 = LOCAL_TIME ( 18, 49, 55.00000000000000000, #374 ) ;
#388 = NEXT_ASSEMBLY_USAGE_OCCURRENCE ( 'NAUO100', ' ', ' ', #325, #109, $ ) ;
#389 = NEXT_ASSEMBLY_USAGE_OCCURRENCE ( 'NAUO101', ' ', ' ', #325, #177, $ ) ;
#390 = NEXT_ASSEMBLY_USAGE_OCCURRENCE ( 'NAUO102', ' ', ' ', #325, #109, $ ) ;
ENDSEC;
END-ISO-10303-21;
