ISO-10303-21;
HEADER;
FILE_DESCRIPTION (( 'STEP AP203' ),
    '1' );
FILE_NAME ('D7.step.STEP',
    '2026-06-22T08:49:52',
    ( 'localuser' ),
    ( '' ),
    'SwSTEP 2.0',
    'SolidWorks 2025',
    '' );
FILE_SCHEMA (( 'CONFIG_CONTROL_DESIGN' ));
ENDSEC;

DATA;
#1 = APPROVAL_STATUS ( 'not_yet_approved' ) ;
#2 = APPROVAL_STATUS ( 'not_yet_approved' ) ;
#3 = PERSON_AND_ORGANIZATION_ROLE ( 'design_owner' ) ;
#4 = SECURITY_CLASSIFICATION_LEVEL ( 'unclassified' ) ;
#5 = CC_DESIGN_DATE_AND_TIME_ASSIGNMENT ( #93, #11, ( #100 ) ) ;
#6 = PERSON_AND_ORGANIZATION_ROLE ( 'design_supplier' ) ;
#7 = PERSON_AND_ORGANIZATION ( #18446744073709551615, #18446744073709551615 ) ;
#8 =( GEOMETRIC_REPRESENTATION_CONTEXT ( 3 ) GLOBAL_UNCERTAINTY_ASSIGNED_CONTEXT ( ( #164 ) ) GLOBAL_UNIT_ASSIGNED_CONTEXT ( ( #60, #56, #109 ) ) REPRESENTATION_CONTEXT ( 'NONE', 'WORKASPACE' ) );
#9 = PROPERTY_DEFINITION ('external definition','', #166 ) ;
#10 = PRODUCT_DEFINITION_FORMATION_WITH_SPECIFIED_SOURCE ( 'Symmetric', '', #141, .NOT_KNOWN. ) ;
#11 = DATE_TIME_ROLE ( 'creation_date' ) ;
#12 = COORDINATED_UNIVERSAL_TIME_OFFSET ( 10, 0, .AHEAD. ) ;
#13 = APPROVAL_ROLE ( '' ) ;
#14 = DIRECTION ( 'NONE',  ( 0.000000000000000000, 0.000000000000000000, 1.000000000000000000 ) ) ;
#15 = COORDINATED_UNIVERSAL_TIME_OFFSET ( 10, 0, .AHEAD. ) ;
#16 = DIRECTION ( 'NONE',  ( 1.000000000000000000, 0.000000000000000000, 0.000000000000000000 ) ) ;
#17 = CC_DESIGN_APPROVAL ( #121, ( #208 ) ) ;
#18 = CONTEXT_DEPENDENT_SHAPE_REPRESENTATION ( #122, #125 ) ;
#19 = APPROVAL_STATUS ( 'not_yet_approved' ) ;
#20 = PERSON_AND_ORGANIZATION ( #18446744073709551615, #18446744073709551615 ) ;
#21 = PERSON_AND_ORGANIZATION ( #18446744073709551615, #18446744073709551615 ) ;
#22 = ORGANIZATION ( 'NAUO-ORG33', 'UNSPECIFIED', 'UNSPECIFIED' ) ;
#23 = DATE_TIME_ROLE ( 'creation_date' ) ;
#24 = EXTERNAL_SOURCE (IDENTIFIER('') ) ;
#25 = PRODUCT_DEFINITION_SHAPE ( 'NONE', 'NONE',  #100 ) ;
#26 = CC_DESIGN_PERSON_AND_ORGANIZATION_ASSIGNMENT ( #198, #193, ( #100 ) ) ;
#27 = APPROVAL_ROLE ( '' ) ;
#28 = APPROVAL_STATUS ( 'not_yet_approved' ) ;
#29 = CALENDAR_DATE ( 2026, 22, 6 ) ;
#30 = CARTESIAN_POINT ( 'NONE',  ( 3.800000244111000569, 19.29999951171900108, -1.558323025702999187 ) ) ;
#31 = DATE_TIME_ROLE ( 'classification_date' ) ;
#32 = DIRECTION ( 'NONE',  ( -3.572580617806335645E-16, 8.742277700000043652E-08, -0.9999999999999961142 ) ) ;
#33 = PERSON_AND_ORGANIZATION_ROLE ( 'creator' ) ;
#34 = CC_DESIGN_PERSON_AND_ORGANIZATION_ASSIGNMENT ( #134, #115, ( #10 ) ) ;
#35 = APPROVAL_DATE_TIME ( #207, #121 ) ;
#36 = PERSON_AND_ORGANIZATION ( #18446744073709551615, #18446744073709551615 ) ;
#37 = APPLICATION_PROTOCOL_DEFINITION ( 'international standard', 'config_control_design', 1994, #64 ) ;
#38 = LOCAL_TIME ( 18, 49, 52.00000000000000000, #82 ) ;
#39 = APPROVAL ( #28, 'Coincident' ) ;
#40 = APPROVAL ( #1, 'Coincident' ) ;
#41 = COORDINATED_UNIVERSAL_TIME_OFFSET ( 10, 0, .AHEAD. ) ;
#42 = DATE_TIME_ROLE ( 'classification_date' ) ;
#43 = CC_DESIGN_PERSON_AND_ORGANIZATION_ASSIGNMENT ( #182, #167, ( #173 ) ) ;
#44 = CC_DESIGN_APPROVAL ( #39, ( #66 ) ) ;
#45 = APPROVAL_STATUS ( 'not_yet_approved' ) ;
#46 =( NAMED_UNIT ( * ) PLANE_ANGLE_UNIT ( ) SI_UNIT ( $, .RADIAN. ) );
#47 = COORDINATED_UNIVERSAL_TIME_OFFSET ( 10, 0, .AHEAD. ) ;
#48 = PRODUCT_RELATED_PRODUCT_CATEGORY ( 'detail', '', ( #191 ) ) ;
#49 = DATE_AND_TIME ( #62, #204 ) ;
#50 = AXIS2_PLACEMENT_3D ( 'NONE', #30, #32, #148 ) ;
#51 = PERSON_AND_ORGANIZATION ( #18446744073709551615, #18446744073709551615 ) ;
#52 = DESIGN_CONTEXT ( 'detailed design', #89, 'design' ) ;
#53 = APPLICATION_PROTOCOL_DEFINITION ( 'international standard', 'config_control_design', 1994, #54 ) ;
#54 = APPLICATION_CONTEXT ( 'configuration controlled 3d designs of mechanical parts and assemblies' ) ;
#55 = PRODUCT_DEFINITION_SHAPE ( 'NONE', 'NONE',  #178 ) ;
#56 =( NAMED_UNIT ( * ) PLANE_ANGLE_UNIT ( ) SI_UNIT ( $, .RADIAN. ) );
#57 = PERSON ( 'NAUO-PER33', 'UNSPECIFIED', 'UNSPECIFIED', ('UNSPECIFIED'), ('UNSPECIFIED'), ('UNSPECIFIED') ) ;
#58 = MECHANICAL_CONTEXT ( 'NONE', #174, 'mechanical' ) ;
#59 = DIRECTION ( 'NONE',  ( 1.000000000000000000, 0.000000000000000000, 0.000000000000000000 ) ) ;
#60 =( LENGTH_UNIT ( ) NAMED_UNIT ( * ) SI_UNIT ( .MILLI., .METRE. ) );
#61 = CC_DESIGN_APPROVAL ( #196, ( #173 ) ) ;
#62 = CALENDAR_DATE ( 2026, 22, 6 ) ;
#63 = APPROVAL_STATUS ( 'not_yet_approved' ) ;
#64 = APPLICATION_CONTEXT ( 'configuration controlled 3d designs of mechanical parts and assemblies' ) ;
#65 = SECURITY_CLASSIFICATION_LEVEL ( 'unclassified' ) ;
#66 = PRODUCT_DEFINITION_FORMATION_WITH_SPECIFIED_SOURCE ( 'Symmetric', '', #191, .NOT_KNOWN. ) ;
#67 = LOCAL_TIME ( 18, 49, 52.00000000000000000, #15 ) ;
#68 = CALENDAR_DATE ( 2026, 22, 6 ) ;
#69 = CC_DESIGN_PERSON_AND_ORGANIZATION_ASSIGNMENT ( #51, #187, ( #128 ) ) ;
#70 = PERSON_AND_ORGANIZATION ( #18446744073709551615, #18446744073709551615 ) ;
#71 = CC_DESIGN_APPROVAL ( #190, ( #100 ) ) ;
#72 = LOCAL_TIME ( 18, 49, 52.00000000000000000, #12 ) ;
#73 = CC_DESIGN_PERSON_AND_ORGANIZATION_ASSIGNMENT ( #188, #33, ( #66 ) ) ;
#74 = OBJECT_ROLE ('mandatory',$ ) ;
#75 = APPROVAL_ROLE ( '' ) ;
#76 = CC_DESIGN_PERSON_AND_ORGANIZATION_ASSIGNMENT ( #170, #84, ( #10 ) ) ;
#77 = ROLE_ASSOCIATION ( #74, #112 ) ;
#78 = DATE_AND_TIME ( #146, #38 ) ;
#79 = APPROVAL_STATUS ( 'not_yet_approved' ) ;
#80 = AXIS2_PLACEMENT_3D ( 'NONE', #183, #123, #16 ) ;
#81 = APPLICATION_PROTOCOL_DEFINITION ( 'international standard', 'config_control_design', 1994, #174 ) ;
#82 = COORDINATED_UNIVERSAL_TIME_OFFSET ( 10, 0, .AHEAD. ) ;
#83 = COORDINATED_UNIVERSAL_TIME_OFFSET ( 10, 0, .AHEAD. ) ;
#84 = PERSON_AND_ORGANIZATION_ROLE ( 'design_supplier' ) ;
#85 = CALENDAR_DATE ( 2026, 22, 6 ) ;
#86 = APPROVAL_PERSON_ORGANIZATION ( #182, #196, #13 ) ;
#87 = DATE_AND_TIME ( #68, #214 ) ;
#88 = CC_DESIGN_PERSON_AND_ORGANIZATION_ASSIGNMENT ( #150, #126, ( #191 ) ) ;
#89 = APPLICATION_CONTEXT ( 'configuration controlled 3d designs of mechanical parts and assemblies' ) ;
#90 = CC_DESIGN_DATE_AND_TIME_ASSIGNMENT ( #161, #31, ( #173 ) ) ;
#91 = LOCAL_TIME ( 18, 49, 52.00000000000000000, #129 ) ;
#92 = SHAPE_REPRESENTATION ( 'D7.step', ( #179, #50 ), #203 ) ;
#93 = DATE_AND_TIME ( #176, #145 ) ;
#94 = APPROVAL_ROLE ( '' ) ;
#95 = APPROVAL_PERSON_ORGANIZATION ( #159, #39, #75 ) ;
#96 = DATE_AND_TIME ( #197, #67 ) ;
#97 = APPLIED_EXTERNAL_IDENTIFICATION_ASSIGNMENT ( 'TPSMA6L48A.step.STEP' , #124, #24,( #166) ) ;
#98 = APPROVAL_DATE_TIME ( #212, #196 ) ;
#99 = CALENDAR_DATE ( 2026, 22, 6 ) ;
#100 = PRODUCT_DEFINITION ( 'General', '', #66, #52 ) ;
#101 = COORDINATED_UNIVERSAL_TIME_OFFSET ( 10, 0, .AHEAD. ) ;
#102 = PERSON_AND_ORGANIZATION ( #18446744073709551615, #18446744073709551615 ) ;
#103 = CALENDAR_DATE ( 2026, 22, 6 ) ;
#104 = APPROVAL_ROLE ( '' ) ;
#105 = CC_DESIGN_DATE_AND_TIME_ASSIGNMENT ( #96, #42, ( #128 ) ) ;
#106 = LOCAL_TIME ( 18, 49, 52.00000000000000000, #181 ) ;
#107 = PROPERTY_DEFINITION ('document property','', #166 ) ;
#108 = LOCAL_TIME ( 18, 49, 52.00000000000000000, #101 ) ;
#109 =( NAMED_UNIT ( * ) SI_UNIT ( $, .STERADIAN. ) SOLID_ANGLE_UNIT ( ) );
#110 = APPROVAL_DATE_TIME ( #133, #190 ) ;
#111 = LOCAL_TIME ( 18, 49, 52.00000000000000000, #171 ) ;
#112 = APPLIED_DOCUMENT_REFERENCE ( #166,'',( #178) ) ;
#113 = APPROVAL_PERSON_ORGANIZATION ( #70, #40, #116 ) ;
#114 =( NAMED_UNIT ( * ) SI_UNIT ( $, .STERADIAN. ) SOLID_ANGLE_UNIT ( ) );
#115 = PERSON_AND_ORGANIZATION_ROLE ( 'creator' ) ;
#116 = APPROVAL_ROLE ( '' ) ;
#117 = CC_DESIGN_PERSON_AND_ORGANIZATION_ASSIGNMENT ( #7, #3, ( #141 ) ) ;
#118 = COORDINATED_UNIVERSAL_TIME_OFFSET ( 10, 0, .AHEAD. ) ;
#119 = CALENDAR_DATE ( 2026, 22, 6 ) ;
#120 = APPROVAL_PERSON_ORGANIZATION ( #21, #121, #205 ) ;
#121 = APPROVAL ( #19, 'Coincident' ) ;
#122 =( REPRESENTATION_RELATIONSHIP ('NONE','NONE', #92, #175 ) REPRESENTATION_RELATIONSHIP_WITH_TRANSFORMATION ( #194 )SHAPE_REPRESENTATION_RELATIONSHIP( ) );
#123 = DIRECTION ( 'NONE',  ( 0.000000000000000000, 0.000000000000000000, 1.000000000000000000 ) ) ;
#124 = IDENTIFICATION_ROLE ( 'external document id and location', $) ;
#125 = PRODUCT_DEFINITION_SHAPE ( 'NONE', 'NONE',  #215 ) ;
#126 = PERSON_AND_ORGANIZATION_ROLE ( 'design_owner' ) ;
#127 = CC_DESIGN_DATE_AND_TIME_ASSIGNMENT ( #87, #168, ( #208 ) ) ;
#128 = SECURITY_CLASSIFICATION ( '', '', #4 ) ;
#129 = COORDINATED_UNIVERSAL_TIME_OFFSET ( 10, 0, .AHEAD. ) ;
#130 =( LENGTH_UNIT ( ) NAMED_UNIT ( * ) SI_UNIT ( .MILLI., .METRE. ) );
#131 = PROPERTY_DEFINITION_REPRESENTATION ( #107, #175 ) ;
#132 = APPROVAL_PERSON_ORGANIZATION ( #199, #163, #27 ) ;
#133 = DATE_AND_TIME ( #99, #106 ) ;
#134 = PERSON_AND_ORGANIZATION ( #18446744073709551615, #18446744073709551615 ) ;
#135 = DATE_AND_TIME ( #85, #158 ) ;
#136 = DATE_AND_TIME ( #103, #111 ) ;
#137 = UNCERTAINTY_MEASURE_WITH_UNIT (LENGTH_MEASURE( 1.000000000000000082E-05 ), #130, 'distance_accuracy_value', 'NONE');
#138 = CALENDAR_DATE ( 2026, 22, 6 ) ;
#139 = CC_DESIGN_SECURITY_CLASSIFICATION ( #208, ( #66 ) ) ;
#140 = CC_DESIGN_DATE_AND_TIME_ASSIGNMENT ( #136, #23, ( #178 ) ) ;
#141 = PRODUCT ( 'TPSMA6L48A.step', 'TPSMA6L48A.step', '', ( #157 ) ) ;
#142 = CC_DESIGN_PERSON_AND_ORGANIZATION_ASSIGNMENT ( #102, #6, ( #66 ) ) ;
#143 = DESIGN_CONTEXT ( 'detailed design', #54, 'design' ) ;
#144 = CARTESIAN_POINT ( 'NONE',  ( 0.000000000000000000, 0.000000000000000000, 0.000000000000000000 ) ) ;
#145 = LOCAL_TIME ( 18, 49, 52.00000000000000000, #177 ) ;
#146 = CALENDAR_DATE ( 2026, 22, 6 ) ;
#147 = SHAPE_DEFINITION_REPRESENTATION ( #55, #175 ) ;
#148 = DIRECTION ( 'NONE',  ( -0.9999999999999964473, 8.742277700368727977E-08, 7.999999999999950135E-15 ) ) ;
#149 = CC_DESIGN_SECURITY_CLASSIFICATION ( #173, ( #215 ) ) ;
#150 = PERSON_AND_ORGANIZATION ( #18446744073709551615, #18446744073709551615 ) ;
#151 = APPROVAL_DATE_TIME ( #78, #163 ) ;
#152 = PERSON_AND_ORGANIZATION_ROLE ( 'classification_officer' ) ;
#153 = PERSON_AND_ORGANIZATION ( #18446744073709551615, #18446744073709551615 ) ;
#154 = CC_DESIGN_APPROVAL ( #206, ( #178 ) ) ;
#155 = CC_DESIGN_APPROVAL ( #40, ( #10 ) ) ;
#156 = APPROVAL_DATE_TIME ( #201, #39 ) ;
#157 = MECHANICAL_CONTEXT ( 'NONE', #64, 'mechanical' ) ;
#158 = LOCAL_TIME ( 18, 49, 52.00000000000000000, #47 ) ;
#159 = PERSON_AND_ORGANIZATION ( #18446744073709551615, #18446744073709551615 ) ;
#160 = DOCUMENT_TYPE ( 'geometry' ) ;
#161 = DATE_AND_TIME ( #213, #72 ) ;
#162 = SECURITY_CLASSIFICATION_LEVEL ( 'unclassified' ) ;
#163 = APPROVAL ( #79, 'Coincident' ) ;
#164 = UNCERTAINTY_MEASURE_WITH_UNIT (LENGTH_MEASURE( 1.000000000000000082E-05 ), #60, 'distance_accuracy_value', 'NONE');
#165 = PROPERTY_DEFINITION_REPRESENTATION ( #9, #175 ) ;
#166 = DOCUMENT_FILE ( 'TPSMA6L48A.step.STEP' , '', '', #160, '' ,$ ) ;
#167 = PERSON_AND_ORGANIZATION_ROLE ( 'classification_officer' ) ;
#168 = DATE_TIME_ROLE ( 'classification_date' ) ;
#169 = SHAPE_DEFINITION_REPRESENTATION ( #25, #92 ) ;
#170 = PERSON_AND_ORGANIZATION ( #18446744073709551615, #18446744073709551615 ) ;
#171 = COORDINATED_UNIVERSAL_TIME_OFFSET ( 10, 0, .AHEAD. ) ;
#172 = CC_DESIGN_PERSON_AND_ORGANIZATION_ASSIGNMENT ( #20, #202, ( #178 ) ) ;
#173 = SECURITY_CLASSIFICATION ( '', '', #162 ) ;
#174 = APPLICATION_CONTEXT ( 'configuration controlled 3d designs of mechanical parts and assemblies' ) ;
#175 = SHAPE_REPRESENTATION ( 'TPSMA6L48A.step', ( #80 ), #8 ) ;
#176 = CALENDAR_DATE ( 2026, 22, 6 ) ;
#177 = COORDINATED_UNIVERSAL_TIME_OFFSET ( 10, 0, .AHEAD. ) ;
#178 = PRODUCT_DEFINITION ( 'General', '', #10, #143 ) ;
#179 = AXIS2_PLACEMENT_3D ( 'NONE', #144, #14, #59 ) ;
#180 = LOCAL_TIME ( 18, 49, 52.00000000000000000, #41 ) ;
#181 = COORDINATED_UNIVERSAL_TIME_OFFSET ( 10, 0, .AHEAD. ) ;
#182 = PERSON_AND_ORGANIZATION ( #57, #22 ) ;
#183 = CARTESIAN_POINT ( 'NONE',  ( 0.000000000000000000, 0.000000000000000000, 0.000000000000000000 ) ) ;
#184 = APPROVAL_DATE_TIME ( #135, #206 ) ;
#185 = CC_DESIGN_SECURITY_CLASSIFICATION ( #128, ( #10 ) ) ;
#186 = APPROVAL_DATE_TIME ( #49, #40 ) ;
#187 = PERSON_AND_ORGANIZATION_ROLE ( 'classification_officer' ) ;
#188 = PERSON_AND_ORGANIZATION ( #18446744073709551615, #18446744073709551615 ) ;
#189 = APPROVAL_PERSON_ORGANIZATION ( #153, #206, #104 ) ;
#190 = APPROVAL ( #45, 'Coincident' ) ;
#191 = PRODUCT ( 'D7.step', 'D7.step', '', ( #58 ) ) ;
#192 = PRODUCT_RELATED_PRODUCT_CATEGORY ( 'detail', '', ( #141 ) ) ;
#193 = PERSON_AND_ORGANIZATION_ROLE ( 'creator' ) ;
#194 = ITEM_DEFINED_TRANSFORMATION ( 'NONE', 'NONE', #50,  #80 ) ;
#195 = PERSON_AND_ORGANIZATION ( #18446744073709551615, #18446744073709551615 ) ;
#196 = APPROVAL ( #2, 'UNKNOWN' ) ;
#197 = CALENDAR_DATE ( 2026, 22, 6 ) ;
#198 = PERSON_AND_ORGANIZATION ( #18446744073709551615, #18446744073709551615 ) ;
#199 = PERSON_AND_ORGANIZATION ( #18446744073709551615, #18446744073709551615 ) ;
#200 = APPLICATION_PROTOCOL_DEFINITION ( 'international standard', 'config_control_design', 1994, #89 ) ;
#201 = DATE_AND_TIME ( #119, #91 ) ;
#202 = PERSON_AND_ORGANIZATION_ROLE ( 'creator' ) ;
#203 =( GEOMETRIC_REPRESENTATION_CONTEXT ( 3 ) GLOBAL_UNCERTAINTY_ASSIGNED_CONTEXT ( ( #137 ) ) GLOBAL_UNIT_ASSIGNED_CONTEXT ( ( #130, #46, #114 ) ) REPRESENTATION_CONTEXT ( 'NONE', 'WORKASPACE' ) );
#204 = LOCAL_TIME ( 18, 49, 52.00000000000000000, #118 ) ;
#205 = APPROVAL_ROLE ( '' ) ;
#206 = APPROVAL ( #63, 'Coincident' ) ;
#207 = DATE_AND_TIME ( #138, #108 ) ;
#208 = SECURITY_CLASSIFICATION ( '', '', #65 ) ;
#209 = CC_DESIGN_PERSON_AND_ORGANIZATION_ASSIGNMENT ( #36, #152, ( #208 ) ) ;
#210 = APPROVAL_PERSON_ORGANIZATION ( #195, #190, #94 ) ;
#211 = CC_DESIGN_APPROVAL ( #163, ( #128 ) ) ;
#212 = DATE_AND_TIME ( #29, #180 ) ;
#213 = CALENDAR_DATE ( 2026, 22, 6 ) ;
#214 = LOCAL_TIME ( 18, 49, 52.00000000000000000, #83 ) ;
#215 = NEXT_ASSEMBLY_USAGE_OCCURRENCE ( 'NAUO33', ' ', ' ', #100, #178, $ ) ;
ENDSEC;
END-ISO-10303-21;
