ISO-10303-21;
HEADER;
FILE_DESCRIPTION (( 'STEP AP203' ),
    '1' );
FILE_NAME ('Endcap.STEP',
    '2026-06-22T08:49:27',
    ( 'localuser' ),
    ( '' ),
    'SwSTEP 2.0',
    'SolidWorks 2025',
    '' );
FILE_SCHEMA (( 'CONFIG_CONTROL_DESIGN' ));
ENDSEC;

DATA;
#1 = APPROVAL_PERSON_ORGANIZATION ( #402, #455, #664 ) ;
#2 = COORDINATED_UNIVERSAL_TIME_OFFSET ( 10, 0, .AHEAD. ) ;
#3 = CC_DESIGN_APPROVAL ( #757, ( #494 ) ) ;
#4 = APPROVAL_ROLE ( '' ) ;
#5 =( GEOMETRIC_REPRESENTATION_CONTEXT ( 3 ) GLOBAL_UNCERTAINTY_ASSIGNED_CONTEXT ( ( #203 ) ) GLOBAL_UNIT_ASSIGNED_CONTEXT ( ( #205, #463, #143 ) ) REPRESENTATION_CONTEXT ( 'NONE', 'WORKASPACE' ) );
#6 = DIRECTION ( 'NONE',  ( -0.9999966502311107286, -0.002588344366109781181, 7.178352710852256022E-15 ) ) ;
#7 = APPLIED_DOCUMENT_REFERENCE ( #58,'',( #146) ) ;
#8 = PERSON_AND_ORGANIZATION_ROLE ( 'design_supplier' ) ;
#9 = CC_DESIGN_PERSON_AND_ORGANIZATION_ASSIGNMENT ( #165, #733, ( #452 ) ) ;
#10 = CALENDAR_DATE ( 2026, 22, 6 ) ;
#11 = PERSON_AND_ORGANIZATION ( #18446744073709551615, #18446744073709551615 ) ;
#12 = PRODUCT_DEFINITION_SHAPE ( 'NONE', 'NONE',  #823 ) ;
#13 = CARTESIAN_POINT ( 'NONE',  ( -0.1295425617912936422, 21.07988140725985104, -13.00000000000001066 ) ) ;
#14 = APPROVAL_ROLE ( '' ) ;
#15 = SECURITY_CLASSIFICATION_LEVEL ( 'unclassified' ) ;
#16 = LOCAL_TIME ( 18, 49, 27.00000000000000000, #245 ) ;
#17 = EXTERNAL_SOURCE (IDENTIFIER('') ) ;
#18 = ORGANIZATION ( 'NAUO-ORG7', 'UNSPECIFIED', 'UNSPECIFIED' ) ;
#19 = DIRECTION ( 'NONE',  ( 0.002588344366109781615, -0.9999966502311107286, -1.807546337044817224E-17 ) ) ;
#20 =( GEOMETRIC_REPRESENTATION_CONTEXT ( 3 ) GLOBAL_UNCERTAINTY_ASSIGNED_CONTEXT ( ( #259 ) ) GLOBAL_UNIT_ASSIGNED_CONTEXT ( ( #442, #754, #809 ) ) REPRESENTATION_CONTEXT ( 'NONE', 'WORKASPACE' ) );
#21 = SECURITY_CLASSIFICATION_LEVEL ( 'unclassified' ) ;
#22 = CALENDAR_DATE ( 2026, 22, 6 ) ;
#23 = PROPERTY_DEFINITION_REPRESENTATION ( #753, #704 ) ;
#24 = APPROVAL_STATUS ( 'not_yet_approved' ) ;
#25 = CC_DESIGN_DATE_AND_TIME_ASSIGNMENT ( #702, #249, ( #413 ) ) ;
#26 = CALENDAR_DATE ( 2026, 22, 6 ) ;
#27 = OBJECT_ROLE ('mandatory',$ ) ;
#28 = APPROVAL_PERSON_ORGANIZATION ( #639, #368, #772 ) ;
#29 = COORDINATED_UNIVERSAL_TIME_OFFSET ( 10, 0, .AHEAD. ) ;
#30 = ORGANIZATION ( 'NAUO-ORG11', 'UNSPECIFIED', 'UNSPECIFIED' ) ;
#31 = LOCAL_TIME ( 18, 49, 27.00000000000000000, #294 ) ;
#32 = DOCUMENT_FILE ( 'WLP-M10-7.5MM-PUBLIC.STEP' , '', '', #272, '' ,$ ) ;
#33 = PERSON_AND_ORGANIZATION ( #18446744073709551615, #18446744073709551615 ) ;
#34 = CC_DESIGN_DATE_AND_TIME_ASSIGNMENT ( #468, #91, ( #749 ) ) ;
#35 = COORDINATED_UNIVERSAL_TIME_OFFSET ( 10, 0, .AHEAD. ) ;
#36 = PERSON_AND_ORGANIZATION ( #18446744073709551615, #18446744073709551615 ) ;
#37 = APPLIED_DOCUMENT_REFERENCE ( #739,'',( #146) ) ;
#38 = DATE_AND_TIME ( #561, #16 ) ;
#39 = CC_DESIGN_APPROVAL ( #390, ( #405 ) ) ;
#40 = APPLICATION_CONTEXT ( 'configuration controlled 3d designs of mechanical parts and assemblies' ) ;
#41 = CALENDAR_DATE ( 2026, 22, 6 ) ;
#42 = PERSON_AND_ORGANIZATION ( #18446744073709551615, #18446744073709551615 ) ;
#43 = CC_DESIGN_PERSON_AND_ORGANIZATION_ASSIGNMENT ( #706, #138, ( #344 ) ) ;
#44 = DATE_AND_TIME ( #41, #631 ) ;
#45 = PERSON_AND_ORGANIZATION ( #18446744073709551615, #18446744073709551615 ) ;
#46 = CARTESIAN_POINT ( 'NONE',  ( 0.000000000000000000, 0.000000000000000000, 0.000000000000000000 ) ) ;
#47 = PRODUCT_DEFINITION_SHAPE ( 'NONE', 'NONE',  #826 ) ;
#48 = COORDINATED_UNIVERSAL_TIME_OFFSET ( 10, 0, .AHEAD. ) ;
#49 = DATE_AND_TIME ( #817, #395 ) ;
#50 = DIRECTION ( 'NONE',  ( 0.000000000000000000, 0.000000000000000000, 1.000000000000000000 ) ) ;
#51 = CC_DESIGN_SECURITY_CLASSIFICATION ( #309, ( #822 ) ) ;
#52 = APPLICATION_CONTEXT ( 'configuration controlled 3d designs of mechanical parts and assemblies' ) ;
#53 = DATE_AND_TIME ( #179, #79 ) ;
#54 = CC_DESIGN_APPROVAL ( #501, ( #312 ) ) ;
#55 = SHAPE_DEFINITION_REPRESENTATION ( #56, #598 ) ;
#56 = PRODUCT_DEFINITION_SHAPE ( 'NONE', 'NONE',  #94 ) ;
#57 = CARTESIAN_POINT ( 'NONE',  ( 0.000000000000000000, 0.000000000000000000, 0.000000000000000000 ) ) ;
#58 = DOCUMENT_FILE ( 'WLP-M10-7.5MM-PUBLIC.STEP' , '', '', #108, '' ,$ ) ;
#59 = CC_DESIGN_PERSON_AND_ORGANIZATION_ASSIGNMENT ( #807, #620, ( #94 ) ) ;
#60 = PERSON_AND_ORGANIZATION ( #18446744073709551615, #18446744073709551615 ) ;
#61 = PERSON_AND_ORGANIZATION_ROLE ( 'creator' ) ;
#62 = APPROVAL ( #213, 'UNKNOWN' ) ;
#63 = LOCAL_TIME ( 18, 49, 27.00000000000000000, #353 ) ;
#64 = DATE_TIME_ROLE ( 'classification_date' ) ;
#65 = SECURITY_CLASSIFICATION ( '', '', #453 ) ;
#66 = EXTERNAL_SOURCE (IDENTIFIER('') ) ;
#67 = CC_DESIGN_SECURITY_CLASSIFICATION ( #709, ( #830 ) ) ;
#68 = APPROVAL_PERSON_ORGANIZATION ( #478, #501, #221 ) ;
#69 = CALENDAR_DATE ( 2026, 22, 6 ) ;
#70 = LOCAL_TIME ( 18, 49, 27.00000000000000000, #734 ) ;
#71 = CARTESIAN_POINT ( 'NONE',  ( 0.000000000000000000, 0.000000000000000000, 0.000000000000000000 ) ) ;
#72 = PRODUCT_DEFINITION_SHAPE ( 'NONE', 'NONE',  #829 ) ;
#73 = PERSON_AND_ORGANIZATION ( #18446744073709551615, #18446744073709551615 ) ;
#74 = DIRECTION ( 'NONE',  ( -6.983129352544526518E-15, 7.888609052210118054E-30, -1.000000000000000000 ) ) ;
#75 = CC_DESIGN_DATE_AND_TIME_ASSIGNMENT ( #475, #348, ( #482 ) ) ;
#76 = PERSON_AND_ORGANIZATION ( #18446744073709551615, #18446744073709551615 ) ;
#77 = PRODUCT_DEFINITION_SHAPE ( 'NONE', 'NONE',  #687 ) ;
#78 = ORGANIZATION ( 'NAUO-ORG9', 'UNSPECIFIED', 'UNSPECIFIED' ) ;
#79 = LOCAL_TIME ( 18, 49, 27.00000000000000000, #548 ) ;
#80 = PERSON_AND_ORGANIZATION_ROLE ( 'design_supplier' ) ;
#81 =( GEOMETRIC_REPRESENTATION_CONTEXT ( 3 ) GLOBAL_UNCERTAINTY_ASSIGNED_CONTEXT ( ( #510 ) ) GLOBAL_UNIT_ASSIGNED_CONTEXT ( ( #557, #746, #364 ) ) REPRESENTATION_CONTEXT ( 'NONE', 'WORKASPACE' ) );
#82 = EXTERNAL_SOURCE (IDENTIFIER('') ) ;
#83 = PROPERTY_DEFINITION_REPRESENTATION ( #387, #421 ) ;
#84 = CC_DESIGN_PERSON_AND_ORGANIZATION_ASSIGNMENT ( #269, #61, ( #480 ) ) ;
#85 = APPROVAL_ROLE ( '' ) ;
#86 = SHAPE_DEFINITION_REPRESENTATION ( #257, #421 ) ;
#87 = CC_DESIGN_PERSON_AND_ORGANIZATION_ASSIGNMENT ( #579, #125, ( #137 ) ) ;
#88 = PERSON_AND_ORGANIZATION_ROLE ( 'creator' ) ;
#89 = APPROVAL_STATUS ( 'not_yet_approved' ) ;
#90 = SECURITY_CLASSIFICATION ( '', '', #488 ) ;
#91 = DATE_TIME_ROLE ( 'classification_date' ) ;
#92 = LOCAL_TIME ( 18, 49, 27.00000000000000000, #738 ) ;
#93 = APPROVAL_PERSON_ORGANIZATION ( #231, #215, #553 ) ;
#94 = PRODUCT_DEFINITION ( 'General', '', #497, #127 ) ;
#95 = DATE_AND_TIME ( #796, #794 ) ;
#96 = PERSON ( 'NAUO-PER10', 'UNSPECIFIED', 'UNSPECIFIED', ('UNSPECIFIED'), ('UNSPECIFIED'), ('UNSPECIFIED') ) ;
#97 = PERSON_AND_ORGANIZATION ( #18446744073709551615, #18446744073709551615 ) ;
#98 = OBJECT_ROLE ('mandatory',$ ) ;
#99 = CC_DESIGN_DATE_AND_TIME_ASSIGNMENT ( #721, #414, ( #309 ) ) ;
#100 = COORDINATED_UNIVERSAL_TIME_OFFSET ( 10, 0, .AHEAD. ) ;
#101 = APPROVAL_ROLE ( '' ) ;
#102 = APPLICATION_PROTOCOL_DEFINITION ( 'international standard', 'config_control_design', 1994, #787 ) ;
#103 = CC_DESIGN_APPROVAL ( #232, ( #94 ) ) ;
#104 = DIRECTION ( 'NONE',  ( 1.000000000000000000, 0.000000000000000000, 0.000000000000000000 ) ) ;
#105 = LOCAL_TIME ( 18, 49, 27.00000000000000000, #48 ) ;
#106 = APPLIED_DOCUMENT_REFERENCE ( #145,'',( #146) ) ;
#107 = CALENDAR_DATE ( 2026, 22, 6 ) ;
#108 = DOCUMENT_TYPE ( 'geometry' ) ;
#109 = DIRECTION ( 'NONE',  ( 1.000000000000000000, 0.000000000000000000, 0.000000000000000000 ) ) ;
#110 = SECURITY_CLASSIFICATION_LEVEL ( 'unclassified' ) ;
#111 = PERSON_AND_ORGANIZATION ( #18446744073709551615, #18446744073709551615 ) ;
#112 = PROPERTY_DEFINITION ('document property','', #224 ) ;
#113 = APPROVAL_DATE_TIME ( #295, #732 ) ;
#114 = CALENDAR_DATE ( 2026, 22, 6 ) ;
#115 =( LENGTH_UNIT ( ) NAMED_UNIT ( * ) SI_UNIT ( .MILLI., .METRE. ) );
#116 = LOCAL_TIME ( 18, 49, 27.00000000000000000, #357 ) ;
#117 = CC_DESIGN_DATE_AND_TIME_ASSIGNMENT ( #567, #238, ( #94 ) ) ;
#118 = CC_DESIGN_SECURITY_CLASSIFICATION ( #296, ( #824 ) ) ;
#119 = COORDINATED_UNIVERSAL_TIME_OFFSET ( 10, 0, .AHEAD. ) ;
#120 = CC_DESIGN_APPROVAL ( #781, ( #749 ) ) ;
#121 = APPROVAL_ROLE ( '' ) ;
#122 = PRODUCT_DEFINITION_SHAPE ( 'NONE', 'NONE',  #828 ) ;
#123 = CARTESIAN_POINT ( 'NONE',  ( 0.000000000000000000, 0.000000000000000000, 0.000000000000000000 ) ) ;
#124 = CC_DESIGN_PERSON_AND_ORGANIZATION_ASSIGNMENT ( #148, #465, ( #482 ) ) ;
#125 = PERSON_AND_ORGANIZATION_ROLE ( 'classification_officer' ) ;
#126 = APPLICATION_CONTEXT ( 'configuration controlled 3d designs of mechanical parts and assemblies' ) ;
#127 = DESIGN_CONTEXT ( 'detailed design', #696, 'design' ) ;
#128 = COORDINATED_UNIVERSAL_TIME_OFFSET ( 10, 0, .AHEAD. ) ;
#129 = COORDINATED_UNIVERSAL_TIME_OFFSET ( 10, 0, .AHEAD. ) ;
#130 = PRODUCT_DEFINITION_SHAPE ( 'NONE', 'NONE',  #822 ) ;
#131 = CONTEXT_DEPENDENT_SHAPE_REPRESENTATION ( #671, #564 ) ;
#132 = COORDINATED_UNIVERSAL_TIME_OFFSET ( 10, 0, .AHEAD. ) ;
#133 = PRODUCT_RELATED_PRODUCT_CATEGORY ( 'detail', '', ( #695 ) ) ;
#134 = APPROVAL_DATE_TIME ( #703, #243 ) ;
#135 = LOCAL_TIME ( 18, 49, 27.00000000000000000, #410 ) ;
#136 = CONTEXT_DEPENDENT_SHAPE_REPRESENTATION ( #194, #72 ) ;
#137 = SECURITY_CLASSIFICATION ( '', '', #697 ) ;
#138 = PERSON_AND_ORGANIZATION_ROLE ( 'creator' ) ;
#139 = PERSON_AND_ORGANIZATION_ROLE ( 'creator' ) ;
#140 = PRODUCT ( 'flange3-BR-100416_RevC.step', 'flange3-BR-100416_RevC.step', '', ( #637 ) ) ;
#141 = DATE_TIME_ROLE ( 'classification_date' ) ;
#142 = PERSON_AND_ORGANIZATION_ROLE ( 'classification_officer' ) ;
#143 =( NAMED_UNIT ( * ) SI_UNIT ( $, .STERADIAN. ) SOLID_ANGLE_UNIT ( ) );
#144 = EXTERNAL_SOURCE (IDENTIFIER('') ) ;
#145 = DOCUMENT_FILE ( 'WLP-M10-7.5MM-PUBLIC.STEP' , '', '', #800, '' ,$ ) ;
#146 = PRODUCT_DEFINITION ( 'General', '', #480, #816 ) ;
#147 = CC_DESIGN_APPROVAL ( #368, ( #480 ) ) ;
#148 = PERSON_AND_ORGANIZATION ( #369, #18 ) ;
#149 = APPROVAL_PERSON_ORGANIZATION ( #552, #390, #313 ) ;
#150 = ORGANIZATION ( 'NAUO-ORG14', 'UNSPECIFIED', 'UNSPECIFIED' ) ;
#151 = CALENDAR_DATE ( 2026, 22, 6 ) ;
#152 = CC_DESIGN_DATE_AND_TIME_ASSIGNMENT ( #527, #170, ( #709 ) ) ;
#153 = APPROVAL_DATE_TIME ( #411, #455 ) ;
#154 = SHAPE_DEFINITION_REPRESENTATION ( #77, #365 ) ;
#155 = DOCUMENT_TYPE ( 'geometry' ) ;
#156 = APPROVAL_DATE_TIME ( #545, #690 ) ;
#157 = APPROVAL_DATE_TIME ( #541, #663 ) ;
#158 = OBJECT_ROLE ('mandatory',$ ) ;
#159 = CONTEXT_DEPENDENT_SHAPE_REPRESENTATION ( #403, #12 ) ;
#160 = LOCAL_TIME ( 18, 49, 27.00000000000000000, #128 ) ;
#161 = PERSON_AND_ORGANIZATION ( #18446744073709551615, #18446744073709551615 ) ;
#162 = APPROVAL_PERSON_ORGANIZATION ( #315, #212, #258 ) ;
#163 = LOCAL_TIME ( 18, 49, 27.00000000000000000, #476 ) ;
#164 = ITEM_DEFINED_TRANSFORMATION ( 'NONE', 'NONE', #525,  #783 ) ;
#165 = PERSON_AND_ORGANIZATION ( #18446744073709551615, #18446744073709551615 ) ;
#166 = APPROVAL_DATE_TIME ( #558, #757 ) ;
#167 = MECHANICAL_CONTEXT ( 'NONE', #168, 'mechanical' ) ;
#168 = APPLICATION_CONTEXT ( 'configuration controlled 3d designs of mechanical parts and assemblies' ) ;
#169 = CARTESIAN_POINT ( 'NONE',  ( 0.000000000000000000, 0.000000000000000000, 0.000000000000000000 ) ) ;
#170 = DATE_TIME_ROLE ( 'classification_date' ) ;
#171 = CC_DESIGN_PERSON_AND_ORGANIZATION_ASSIGNMENT ( #11, #142, ( #413 ) ) ;
#172 = COORDINATED_UNIVERSAL_TIME_OFFSET ( 10, 0, .AHEAD. ) ;
#173 = MECHANICAL_CONTEXT ( 'NONE', #787, 'mechanical' ) ;
#174 = LOCAL_TIME ( 18, 49, 27.00000000000000000, #297 ) ;
#175 = CC_DESIGN_SECURITY_CLASSIFICATION ( #65, ( #829 ) ) ;
#176 = PROPERTY_DEFINITION ('document property','', #32 ) ;
#177 = DATE_TIME_ROLE ( 'classification_date' ) ;
#178 = DATE_TIME_ROLE ( 'classification_date' ) ;
#179 = CALENDAR_DATE ( 2026, 22, 6 ) ;
#180 = PERSON_AND_ORGANIZATION ( #18446744073709551615, #18446744073709551615 ) ;
#181 = CC_DESIGN_PERSON_AND_ORGANIZATION_ASSIGNMENT ( #223, #797, ( #312 ) ) ;
#182 = IDENTIFICATION_ROLE ( 'external document id and location', $) ;
#183 = APPLICATION_PROTOCOL_DEFINITION ( 'international standard', 'config_control_design', 1994, #200 ) ;
#184 = CC_DESIGN_DATE_AND_TIME_ASSIGNMENT ( #815, #177, ( #494 ) ) ;
#185 = CC_DESIGN_APPROVAL ( #359, ( #137 ) ) ;
#186 = APPROVAL_DATE_TIME ( #763, #359 ) ;
#187 = PERSON_AND_ORGANIZATION ( #18446744073709551615, #18446744073709551615 ) ;
#188 = PROPERTY_DEFINITION ('external definition','', #739 ) ;
#189 = DIRECTION ( 'NONE',  ( -0.9999966502311106176, -0.002588344366109480640, 6.984063681542851260E-15 ) ) ;
#190 = APPROVAL ( #526, 'Coincident' ) ;
#191 = DATE_AND_TIME ( #642, #645 ) ;
#192 = PERSON_AND_ORGANIZATION_ROLE ( 'design_owner' ) ;
#193 = APPLICATION_PROTOCOL_DEFINITION ( 'international standard', 'config_control_design', 1994, #332 ) ;
#194 =( REPRESENTATION_RELATIONSHIP ('NONE','NONE', #365, #625 ) REPRESENTATION_RELATIONSHIP_WITH_TRANSFORMATION ( #573 )SHAPE_REPRESENTATION_RELATIONSHIP( ) );
#195 = PRODUCT ( 'WLP-M10-7.5MM-PUBLIC', 'WLP-M10-7.5MM-PUBLIC', '', ( #167 ) ) ;
#196 = DATE_AND_TIME ( #700, #92 ) ;
#197 = DATE_AND_TIME ( #450, #160 ) ;
#198 = PERSON_AND_ORGANIZATION_ROLE ( 'design_owner' ) ;
#199 = PROPERTY_DEFINITION_REPRESENTATION ( #622, #625 ) ;
#200 = APPLICATION_CONTEXT ( 'configuration controlled 3d designs of mechanical parts and assemblies' ) ;
#201 = CC_DESIGN_SECURITY_CLASSIFICATION ( #405, ( #826 ) ) ;
#202 = LOCAL_TIME ( 18, 49, 27.00000000000000000, #726 ) ;
#203 = UNCERTAINTY_MEASURE_WITH_UNIT (LENGTH_MEASURE( 1.000000000000000082E-05 ), #205, 'distance_accuracy_value', 'NONE');
#204 = CALENDAR_DATE ( 2026, 22, 6 ) ;
#205 =( LENGTH_UNIT ( ) NAMED_UNIT ( * ) SI_UNIT ( .MILLI., .METRE. ) );
#206 = ROLE_ASSOCIATION ( #27, #529 ) ;
#207 = DOCUMENT_FILE ( 'flange3-BR-100416_RevC.step.STEP' , '', '', #641, '' ,$ ) ;
#208 = CC_DESIGN_PERSON_AND_ORGANIZATION_ASSIGNMENT ( #805, #437, ( #497 ) ) ;
#209 = APPROVAL_STATUS ( 'not_yet_approved' ) ;
#210 = PERSON_AND_ORGANIZATION ( #18446744073709551615, #18446744073709551615 ) ;
#211 =( REPRESENTATION_RELATIONSHIP ('NONE','NONE', #365, #704 ) REPRESENTATION_RELATIONSHIP_WITH_TRANSFORMATION ( #655 )SHAPE_REPRESENTATION_RELATIONSHIP( ) );
#212 = APPROVAL ( #379, 'UNKNOWN' ) ;
#213 = APPROVAL_STATUS ( 'not_yet_approved' ) ;
#214 = COORDINATED_UNIVERSAL_TIME_OFFSET ( 10, 0, .AHEAD. ) ;
#215 = APPROVAL ( #742, 'Coincident' ) ;
#216 = PERSON_AND_ORGANIZATION_ROLE ( 'classification_officer' ) ;
#217 = APPROVAL_PERSON_ORGANIZATION ( #766, #190, #4 ) ;
#218 = PERSON ( 'NAUO-PER13', 'UNSPECIFIED', 'UNSPECIFIED', ('UNSPECIFIED'), ('UNSPECIFIED'), ('UNSPECIFIED') ) ;
#219 = CC_DESIGN_PERSON_AND_ORGANIZATION_ASSIGNMENT ( #60, #316, ( #493 ) ) ;
#220 = COORDINATED_UNIVERSAL_TIME_OFFSET ( 10, 0, .AHEAD. ) ;
#221 = APPROVAL_ROLE ( '' ) ;
#222 = SECURITY_CLASSIFICATION_LEVEL ( 'unclassified' ) ;
#223 = PERSON_AND_ORGANIZATION ( #18446744073709551615, #18446744073709551615 ) ;
#224 = DOCUMENT_FILE ( 'WTE3-M-END-CAP-7-HOLE-R1.STEP' , '', '', #462, '' ,$ ) ;
#225 = LOCAL_TIME ( 18, 49, 27.00000000000000000, #643 ) ;
#226 = DATE_AND_TIME ( #407, #538 ) ;
#227 =( REPRESENTATION_RELATIONSHIP ('NONE','NONE', #365, #421 ) REPRESENTATION_RELATIONSHIP_WITH_TRANSFORMATION ( #798 )SHAPE_REPRESENTATION_RELATIONSHIP( ) );
#228 = APPROVAL_PERSON_ORGANIZATION ( #422, #757, #371 ) ;
#229 = APPROVAL_PERSON_ORGANIZATION ( #210, #479, #723 ) ;
#230 = ITEM_DEFINED_TRANSFORMATION ( 'NONE', 'NONE', #351,  #783 ) ;
#231 = PERSON_AND_ORGANIZATION ( #18446744073709551615, #18446744073709551615 ) ;
#232 = APPROVAL ( #362, 'Coincident' ) ;
#233 = APPLIED_DOCUMENT_REFERENCE ( #224,'',( #94) ) ;
#234 = CALENDAR_DATE ( 2026, 22, 6 ) ;
#235 = CC_DESIGN_DATE_AND_TIME_ASSIGNMENT ( #53, #801, ( #405 ) ) ;
#236 = EXTERNAL_SOURCE (IDENTIFIER('') ) ;
#237 = ROLE_ASSOCIATION ( #355, #233 ) ;
#238 = DATE_TIME_ROLE ( 'creation_date' ) ;
#239 = LOCAL_TIME ( 18, 49, 27.00000000000000000, #35 ) ;
#240 = AXIS2_PLACEMENT_3D ( 'NONE', #57, #563, #677 ) ;
#241 = PROPERTY_DEFINITION ('document property','', #366 ) ;
#242 = SECURITY_CLASSIFICATION_LEVEL ( 'unclassified' ) ;
#243 = APPROVAL ( #317, 'Coincident' ) ;
#244 =( REPRESENTATION_RELATIONSHIP ('NONE','NONE', #365, #704 ) REPRESENTATION_RELATIONSHIP_WITH_TRANSFORMATION ( #230 )SHAPE_REPRESENTATION_RELATIONSHIP( ) );
#245 = COORDINATED_UNIVERSAL_TIME_OFFSET ( 10, 0, .AHEAD. ) ;
#246 = ITEM_DEFINED_TRANSFORMATION ( 'NONE', 'NONE', #634,  #783 ) ;
#247 = APPROVAL_ROLE ( '' ) ;
#248 = APPROVAL_ROLE ( '' ) ;
#249 = DATE_TIME_ROLE ( 'classification_date' ) ;
#250 = DIRECTION ( 'NONE',  ( -0.9999966502311107286, -0.002588344366109781181, 7.178352710852256022E-15 ) ) ;
#251 = LOCAL_TIME ( 18, 49, 27.00000000000000000, #446 ) ;
#252 = LOCAL_TIME ( 18, 49, 27.00000000000000000, #350 ) ;
#253 = APPLICATION_CONTEXT ( 'configuration controlled 3d designs of mechanical parts and assemblies' ) ;
#254 = LOCAL_TIME ( 18, 49, 27.00000000000000000, #594 ) ;
#255 = AXIS2_PLACEMENT_3D ( 'NONE', #505, #774, #386 ) ;
#256 = CALENDAR_DATE ( 2026, 22, 6 ) ;
#257 = PRODUCT_DEFINITION_SHAPE ( 'NONE', 'NONE',  #344 ) ;
#258 = APPROVAL_ROLE ( '' ) ;
#259 = UNCERTAINTY_MEASURE_WITH_UNIT (LENGTH_MEASURE( 1.000000000000000082E-05 ), #442, 'distance_accuracy_value', 'NONE');
#260 = COORDINATED_UNIVERSAL_TIME_OFFSET ( 10, 0, .AHEAD. ) ;
#261 = DIRECTION ( 'NONE',  ( 0.002588344366109781615, -0.9999966502311107286, -1.807546337044817224E-17 ) ) ;
#262 = PROPERTY_DEFINITION ('document property','', #207 ) ;
#263 = PERSON_AND_ORGANIZATION_ROLE ( 'classification_officer' ) ;
#264 = APPROVAL_STATUS ( 'not_yet_approved' ) ;
#265 = DIRECTION ( 'NONE',  ( -0.9999966502311107286, -0.002588344366109781181, 7.178352710852256022E-15 ) ) ;
#266 = APPROVAL_PERSON_ORGANIZATION ( #111, #617, #101 ) ;
#267 = APPROVAL_PERSON_ORGANIZATION ( #148, #690, #595 ) ;
#268 = AXIS2_PLACEMENT_3D ( 'NONE', #512, #19, #6 ) ;
#269 = PERSON_AND_ORGANIZATION ( #18446744073709551615, #18446744073709551615 ) ;
#270 = CC_DESIGN_DATE_AND_TIME_ASSIGNMENT ( #608, #346, ( #715 ) ) ;
#271 = DIRECTION ( 'NONE',  ( 0.002588344366109781615, -0.9999966502311107286, -1.807546337044817224E-17 ) ) ;
#272 = DOCUMENT_TYPE ( 'geometry' ) ;
#273 = DATE_AND_TIME ( #795, #202 ) ;
#274 = CONTEXT_DEPENDENT_SHAPE_REPRESENTATION ( #227, #130 ) ;
#275 = CC_DESIGN_DATE_AND_TIME_ASSIGNMENT ( #532, #681, ( #296 ) ) ;
#276 = APPLICATION_PROTOCOL_DEFINITION ( 'international standard', 'config_control_design', 1994, #680 ) ;
#277 = CONTEXT_DEPENDENT_SHAPE_REPRESENTATION ( #292, #585 ) ;
#278 = CALENDAR_DATE ( 2026, 22, 6 ) ;
#279 = CALENDAR_DATE ( 2026, 22, 6 ) ;
#280 = CC_DESIGN_DATE_AND_TIME_ASSIGNMENT ( #583, #698, ( #344 ) ) ;
#281 = PERSON_AND_ORGANIZATION ( #293, #150 ) ;
#282 = SECURITY_CLASSIFICATION ( '', '', #661 ) ;
#283 = PERSON_AND_ORGANIZATION ( #310, #433 ) ;
#284 = PERSON_AND_ORGANIZATION ( #18446744073709551615, #18446744073709551615 ) ;
#285 = OBJECT_ROLE ('mandatory',$ ) ;
#286 = APPLIED_EXTERNAL_IDENTIFICATION_ASSIGNMENT ( 'WLP-M10-7.5MM-PUBLIC.STEP' , #182, #144,( #399) ) ;
#287 = AXIS2_PLACEMENT_3D ( 'NONE', #699, #647, #397 ) ;
#288 = PERSON_AND_ORGANIZATION ( #18446744073709551615, #18446744073709551615 ) ;
#289 = CC_DESIGN_SECURITY_CLASSIFICATION ( #413, ( #480 ) ) ;
#290 = APPLIED_DOCUMENT_REFERENCE ( #32,'',( #146) ) ;
#291 = APPROVAL_STATUS ( 'not_yet_approved' ) ;
#292 =( REPRESENTATION_RELATIONSHIP ('NONE','NONE', #365, #704 ) REPRESENTATION_RELATIONSHIP_WITH_TRANSFORMATION ( #246 )SHAPE_REPRESENTATION_RELATIONSHIP( ) );
#293 = PERSON ( 'NAUO-PER14', 'UNSPECIFIED', 'UNSPECIFIED', ('UNSPECIFIED'), ('UNSPECIFIED'), ('UNSPECIFIED') ) ;
#294 = COORDINATED_UNIVERSAL_TIME_OFFSET ( 10, 0, .AHEAD. ) ;
#295 = DATE_AND_TIME ( #555, #737 ) ;
#296 = SECURITY_CLASSIFICATION ( '', '', #21 ) ;
#297 = COORDINATED_UNIVERSAL_TIME_OFFSET ( 10, 0, .AHEAD. ) ;
#298 = CC_DESIGN_DATE_AND_TIME_ASSIGNMENT ( #689, #178, ( #90 ) ) ;
#299 = EXTERNAL_SOURCE (IDENTIFIER('') ) ;
#300 = APPROVAL_DATE_TIME ( #44, #390 ) ;
#301 = CALENDAR_DATE ( 2026, 22, 6 ) ;
#302 = CC_DESIGN_PERSON_AND_ORGANIZATION_ASSIGNMENT ( #315, #569, ( #65 ) ) ;
#303 = PROPERTY_DEFINITION_REPRESENTATION ( #112, #598 ) ;
#304 = APPROVAL_ROLE ( '' ) ;
#305 = PRODUCT_DEFINITION_SHAPE ( 'NONE', 'NONE',  #146 ) ;
#306 = PRODUCT_RELATED_PRODUCT_CATEGORY ( 'detail', '', ( #140 ) ) ;
#307 = ROLE_ASSOCIATION ( #425, #106 ) ;
#308 = APPROVAL_STATUS ( 'not_yet_approved' ) ;
#309 = SECURITY_CLASSIFICATION ( '', '', #222 ) ;
#310 = PERSON ( 'NAUO-PER6', 'UNSPECIFIED', 'UNSPECIFIED', ('UNSPECIFIED'), ('UNSPECIFIED'), ('UNSPECIFIED') ) ;
#311 = APPLIED_EXTERNAL_IDENTIFICATION_ASSIGNMENT ( 'WLP-M10-7.5MM-PUBLIC.STEP' , #716, #773,( #366) ) ;
#312 = PRODUCT_DEFINITION_FORMATION_WITH_SPECIFIED_SOURCE ( 'Symmetric', '', #373, .NOT_KNOWN. ) ;
#313 = APPROVAL_ROLE ( '' ) ;
#314 = APPLICATION_PROTOCOL_DEFINITION ( 'international standard', 'config_control_design', 1994, #696 ) ;
#315 = PERSON_AND_ORGANIZATION ( #218, #782 ) ;
#316 = PERSON_AND_ORGANIZATION_ROLE ( 'design_supplier' ) ;
#317 = APPROVAL_STATUS ( 'not_yet_approved' ) ;
#318 = COORDINATED_UNIVERSAL_TIME_OFFSET ( 10, 0, .AHEAD. ) ;
#319 = APPROVAL_STATUS ( 'not_yet_approved' ) ;
#320 = CC_DESIGN_PERSON_AND_ORGANIZATION_ASSIGNMENT ( #391, #139, ( #687 ) ) ;
#321 = CALENDAR_DATE ( 2026, 22, 6 ) ;
#322 = CC_DESIGN_APPROVAL ( #663, ( #347 ) ) ;
#323 = APPROVAL_PERSON_ORGANIZATION ( #579, #359, #459 ) ;
#324 = CALENDAR_DATE ( 2026, 22, 6 ) ;
#325 = APPROVAL_PERSON_ORGANIZATION ( #180, #232, #247 ) ;
#326 = PERSON_AND_ORGANIZATION_ROLE ( 'creator' ) ;
#327 = PROPERTY_DEFINITION ('external definition','', #582 ) ;
#328 = IDENTIFICATION_ROLE ( 'external document id and location', $) ;
#329 = APPROVAL_DATE_TIME ( #196, #212 ) ;
#330 = APPLICATION_PROTOCOL_DEFINITION ( 'international standard', 'config_control_design', 1994, #40 ) ;
#331 =( NAMED_UNIT ( * ) SI_UNIT ( $, .STERADIAN. ) SOLID_ANGLE_UNIT ( ) );
#332 = APPLICATION_CONTEXT ( 'configuration controlled 3d designs of mechanical parts and assemblies' ) ;
#333 = CC_DESIGN_PERSON_AND_ORGANIZATION_ASSIGNMENT ( #161, #216, ( #749 ) ) ;
#334 = CALENDAR_DATE ( 2026, 22, 6 ) ;
#335 = DIRECTION ( 'NONE',  ( -0.002588344366109481074, 0.9999966502311106176, 1.807546337044974997E-17 ) ) ;
#336 = CC_DESIGN_APPROVAL ( #428, ( #90 ) ) ;
#337 = APPLIED_EXTERNAL_IDENTIFICATION_ASSIGNMENT ( 'WLP-M10-7.5MM-PUBLIC.STEP' , #729, #299,( #32) ) ;
#338 = APPROVAL_DATE_TIME ( #95, #808 ) ;
#339 = PERSON_AND_ORGANIZATION_ROLE ( 'creator' ) ;
#340 = PROPERTY_DEFINITION_REPRESENTATION ( #813, #704 ) ;
#341 = COORDINATED_UNIVERSAL_TIME_OFFSET ( 10, 0, .AHEAD. ) ;
#342 = EXTERNAL_SOURCE (IDENTIFIER('') ) ;
#343 = PERSON_AND_ORGANIZATION_ROLE ( 'classification_officer' ) ;
#344 = PRODUCT_DEFINITION ( 'General', '', #493, #400 ) ;
#345 = PROPERTY_DEFINITION_REPRESENTATION ( #571, #704 ) ;
#346 = DATE_TIME_ROLE ( 'creation_date' ) ;
#347 = PRODUCT_DEFINITION_FORMATION_WITH_SPECIFIED_SOURCE ( 'Symmetric', '', #452, .NOT_KNOWN. ) ;
#348 = DATE_TIME_ROLE ( 'classification_date' ) ;
#349 = ORGANIZATION ( 'NAUO-ORG12', 'UNSPECIFIED', 'UNSPECIFIED' ) ;
#350 = COORDINATED_UNIVERSAL_TIME_OFFSET ( 10, 0, .AHEAD. ) ;
#351 = AXIS2_PLACEMENT_3D ( 'NONE', #584, #271, #714 ) ;
#352 = CALENDAR_DATE ( 2026, 22, 6 ) ;
#353 = COORDINATED_UNIVERSAL_TIME_OFFSET ( 10, 0, .AHEAD. ) ;
#354 = APPROVAL ( #308, 'Coincident' ) ;
#355 = OBJECT_ROLE ('mandatory',$ ) ;
#356 = PERSON_AND_ORGANIZATION ( #419, #679 ) ;
#357 = COORDINATED_UNIVERSAL_TIME_OFFSET ( 10, 0, .AHEAD. ) ;
#358 = COORDINATED_UNIVERSAL_TIME_OFFSET ( 10, 0, .AHEAD. ) ;
#359 = APPROVAL ( #382, 'UNKNOWN' ) ;
#360 = LOCAL_TIME ( 18, 49, 27.00000000000000000, #132 ) ;
#361 = LOCAL_TIME ( 18, 49, 27.00000000000000000, #119 ) ;
#362 = APPROVAL_STATUS ( 'not_yet_approved' ) ;
#363 = APPROVAL_PERSON_ORGANIZATION ( #281, #62, #14 ) ;
#364 =( NAMED_UNIT ( * ) SI_UNIT ( $, .STERADIAN. ) SOLID_ANGLE_UNIT ( ) );
#365 = SHAPE_REPRESENTATION ( 'Endcap', ( #590, #682, #268, #287, #351, #255, #525, #416, #725, #634 ), #5 ) ;
#366 = DOCUMENT_FILE ( 'WLP-M10-7.5MM-PUBLIC.STEP' , '', '', #509, '' ,$ ) ;
#367 = SHAPE_DEFINITION_REPRESENTATION ( #635, #625 ) ;
#368 = APPROVAL ( #580, 'Coincident' ) ;
#369 = PERSON ( 'NAUO-PER7', 'UNSPECIFIED', 'UNSPECIFIED', ('UNSPECIFIED'), ('UNSPECIFIED'), ('UNSPECIFIED') ) ;
#370 = DOCUMENT_TYPE ( 'geometry' ) ;
#371 = APPROVAL_ROLE ( '' ) ;
#372 = APPROVAL_ROLE ( '' ) ;
#373 = PRODUCT ( 'Endcap', 'Endcap', '', ( #466 ) ) ;
#374 = PROPERTY_DEFINITION_REPRESENTATION ( #507, #704 ) ;
#375 = PERSON_AND_ORGANIZATION ( #18446744073709551615, #18446744073709551615 ) ;
#376 = CC_DESIGN_SECURITY_CLASSIFICATION ( #282, ( #347 ) ) ;
#377 = LOCAL_TIME ( 18, 49, 27.00000000000000000, #100 ) ;
#378 = APPROVAL_PERSON_ORGANIZATION ( #533, #781, #85 ) ;
#379 = APPROVAL_STATUS ( 'not_yet_approved' ) ;
#380 = PERSON_AND_ORGANIZATION ( #18446744073709551615, #18446744073709551615 ) ;
#381 =( NAMED_UNIT ( * ) PLANE_ANGLE_UNIT ( ) SI_UNIT ( $, .RADIAN. ) );
#382 = APPROVAL_STATUS ( 'not_yet_approved' ) ;
#383 = CC_DESIGN_PERSON_AND_ORGANIZATION_ASSIGNMENT ( #76, #8, ( #480 ) ) ;
#384 = DATE_TIME_ROLE ( 'creation_date' ) ;
#385 = IDENTIFICATION_ROLE ( 'external document id and location', $) ;
#386 = DIRECTION ( 'NONE',  ( -0.9999966502311107286, -0.002588344366109531381, 6.983196319804862857E-15 ) ) ;
#387 = PROPERTY_DEFINITION ('external definition','', #207 ) ;
#388 = PROPERTY_DEFINITION_REPRESENTATION ( #504, #704 ) ;
#389 = DATE_AND_TIME ( #204, #360 ) ;
#390 = APPROVAL ( #755, 'UNKNOWN' ) ;
#391 = PERSON_AND_ORGANIZATION ( #18446744073709551615, #18446744073709551615 ) ;
#392 = LOCAL_TIME ( 18, 49, 27.00000000000000000, #435 ) ;
#393 = APPLIED_EXTERNAL_IDENTIFICATION_ASSIGNMENT ( 'WLP-M10-7.5MM-PUBLIC.STEP' , #385, #658,( #739) ) ;
#394 = APPLIED_DOCUMENT_REFERENCE ( #366,'',( #146) ) ;
#395 = LOCAL_TIME ( 18, 49, 27.00000000000000000, #676 ) ;
#396 = CALENDAR_DATE ( 2026, 22, 6 ) ;
#397 = DIRECTION ( 'NONE',  ( -0.9999966502311107286, -0.002588344366109781181, 7.178352710852256022E-15 ) ) ;
#398 = CC_DESIGN_PERSON_AND_ORGANIZATION_ASSIGNMENT ( #423, #500, ( #195 ) ) ;
#399 = DOCUMENT_FILE ( 'WLP-M10-7.5MM-PUBLIC.STEP' , '', '', #586, '' ,$ ) ;
#400 = DESIGN_CONTEXT ( 'detailed design', #40, 'design' ) ;
#401 = PERSON_AND_ORGANIZATION ( #18446744073709551615, #18446744073709551615 ) ;
#402 = PERSON_AND_ORGANIZATION ( #18446744073709551615, #18446744073709551615 ) ;
#403 =( REPRESENTATION_RELATIONSHIP ('NONE','NONE', #365, #704 ) REPRESENTATION_RELATIONSHIP_WITH_TRANSFORMATION ( #408 )SHAPE_REPRESENTATION_RELATIONSHIP( ) );
#404 = DIRECTION ( 'NONE',  ( 1.000000000000000000, 0.000000000000000000, 0.000000000000000000 ) ) ;
#405 = SECURITY_CLASSIFICATION ( '', '', #242 ) ;
#406 = PROPERTY_DEFINITION_REPRESENTATION ( #176, #704 ) ;
#407 = CALENDAR_DATE ( 2026, 22, 6 ) ;
#408 = ITEM_DEFINED_TRANSFORMATION ( 'NONE', 'NONE', #268,  #783 ) ;
#409 = PRODUCT_RELATED_PRODUCT_CATEGORY ( 'detail', '', ( #195 ) ) ;
#410 = COORDINATED_UNIVERSAL_TIME_OFFSET ( 10, 0, .AHEAD. ) ;
#411 = DATE_AND_TIME ( #728, #601 ) ;
#412 = PERSON_AND_ORGANIZATION_ROLE ( 'creator' ) ;
#413 = SECURITY_CLASSIFICATION ( '', '', #15 ) ;
#414 = DATE_TIME_ROLE ( 'classification_date' ) ;
#415 = CC_DESIGN_SECURITY_CLASSIFICATION ( #482, ( #823 ) ) ;
#416 = AXIS2_PLACEMENT_3D ( 'NONE', #785, #261, #456 ) ;
#417 = COORDINATED_UNIVERSAL_TIME_OFFSET ( 10, 0, .AHEAD. ) ;
#418 = PRODUCT_RELATED_PRODUCT_CATEGORY ( 'detail', '', ( #452 ) ) ;
#419 = PERSON ( 'NAUO-PER8', 'UNSPECIFIED', 'UNSPECIFIED', ('UNSPECIFIED'), ('UNSPECIFIED'), ('UNSPECIFIED') ) ;
#420 = DATE_TIME_ROLE ( 'classification_date' ) ;
#421 = SHAPE_REPRESENTATION ( 'flange3-BR-100416_RevC.step', ( #240 ), #496 ) ;
#422 = PERSON_AND_ORGANIZATION ( #626, #78 ) ;
#423 = PERSON_AND_ORGANIZATION ( #18446744073709551615, #18446744073709551615 ) ;
#424 =( LENGTH_UNIT ( ) NAMED_UNIT ( * ) SI_UNIT ( .MILLI., .METRE. ) );
#425 = OBJECT_ROLE ('mandatory',$ ) ;
#426 = CALENDAR_DATE ( 2026, 22, 6 ) ;
#427 = APPROVAL_PERSON_ORGANIZATION ( #756, #428, #372 ) ;
#428 = APPROVAL ( #430, 'Coincident' ) ;
#429 = APPROVAL_PERSON_ORGANIZATION ( #283, #808, #660 ) ;
#430 = APPROVAL_STATUS ( 'not_yet_approved' ) ;
#431 = LOCAL_TIME ( 18, 49, 27.00000000000000000, #651 ) ;
#432 = CARTESIAN_POINT ( 'NONE',  ( 0.000000000000000000, 0.000000000000000000, 0.000000000000000000 ) ) ;
#433 = ORGANIZATION ( 'NAUO-ORG6', 'UNSPECIFIED', 'UNSPECIFIED' ) ;
#434 = PROPERTY_DEFINITION_REPRESENTATION ( #188, #704 ) ;
#435 = COORDINATED_UNIVERSAL_TIME_OFFSET ( 10, 0, .AHEAD. ) ;
#436 = ITEM_DEFINED_TRANSFORMATION ( 'NONE', 'NONE', #255,  #606 ) ;
#437 = PERSON_AND_ORGANIZATION_ROLE ( 'creator' ) ;
#438 = SECURITY_CLASSIFICATION_LEVEL ( 'unclassified' ) ;
#439 = COORDINATED_UNIVERSAL_TIME_OFFSET ( 10, 0, .AHEAD. ) ;
#440 = CC_DESIGN_APPROVAL ( #808, ( #309 ) ) ;
#441 = OBJECT_ROLE ('mandatory',$ ) ;
#442 =( LENGTH_UNIT ( ) NAMED_UNIT ( * ) SI_UNIT ( .MILLI., .METRE. ) );
#443 = LOCAL_TIME ( 18, 49, 27.00000000000000000, #172 ) ;
#444 = CC_DESIGN_PERSON_AND_ORGANIZATION_ASSIGNMENT ( #42, #752, ( #90 ) ) ;
#445 = CALENDAR_DATE ( 2026, 22, 6 ) ;
#446 = COORDINATED_UNIVERSAL_TIME_OFFSET ( 10, 0, .AHEAD. ) ;
#447 = PERSON ( 'NAUO-PER11', 'UNSPECIFIED', 'UNSPECIFIED', ('UNSPECIFIED'), ('UNSPECIFIED'), ('UNSPECIFIED') ) ;
#448 = CC_DESIGN_PERSON_AND_ORGANIZATION_ASSIGNMENT ( #356, #487, ( #296 ) ) ;
#449 = DATE_AND_TIME ( #10, #252 ) ;
#450 = CALENDAR_DATE ( 2026, 22, 6 ) ;
#451 = PERSON_AND_ORGANIZATION ( #18446744073709551615, #18446744073709551615 ) ;
#452 = PRODUCT ( 'SWITCH-M10-5A-R1-RP.STEP', 'SWITCH-M10-5A-R1-RP.STEP', '', ( #530 ) ) ;
#453 = SECURITY_CLASSIFICATION_LEVEL ( 'unclassified' ) ;
#454 = SHAPE_DEFINITION_REPRESENTATION ( #305, #704 ) ;
#455 = APPROVAL ( #209, 'Coincident' ) ;
#456 = DIRECTION ( 'NONE',  ( -0.9999966502311107286, -0.002588344366109781181, 7.178352710852256022E-15 ) ) ;
#457 = CC_DESIGN_APPROVAL ( #455, ( #644 ) ) ;
#458 = CC_DESIGN_APPROVAL ( #212, ( #65 ) ) ;
#459 = APPROVAL_ROLE ( '' ) ;
#460 = APPROVAL_DATE_TIME ( #389, #727 ) ;
#461 = PRODUCT_DEFINITION_SHAPE ( 'NONE', 'NONE',  #824 ) ;
#462 = DOCUMENT_TYPE ( 'geometry' ) ;
#463 =( NAMED_UNIT ( * ) PLANE_ANGLE_UNIT ( ) SI_UNIT ( $, .RADIAN. ) );
#464 = APPLIED_DOCUMENT_REFERENCE ( #399,'',( #146) ) ;
#465 = PERSON_AND_ORGANIZATION_ROLE ( 'classification_officer' ) ;
#466 = MECHANICAL_CONTEXT ( 'NONE', #332, 'mechanical' ) ;
#467 = CALENDAR_DATE ( 2026, 22, 6 ) ;
#468 = DATE_AND_TIME ( #279, #163 ) ;
#469 = CC_DESIGN_APPROVAL ( #617, ( #282 ) ) ;
#470 = LOCAL_TIME ( 18, 49, 27.00000000000000000, #341 ) ;
#471 = CC_DESIGN_PERSON_AND_ORGANIZATION_ASSIGNMENT ( #33, #339, ( #312 ) ) ;
#472 = OBJECT_ROLE ('mandatory',$ ) ;
#473 = APPROVAL_STATUS ( 'not_yet_approved' ) ;
#474 = APPROVAL_DATE_TIME ( #670, #781 ) ;
#475 = DATE_AND_TIME ( #540, #657 ) ;
#476 = COORDINATED_UNIVERSAL_TIME_OFFSET ( 10, 0, .AHEAD. ) ;
#477 = DATE_AND_TIME ( #467, #804 ) ;
#478 = PERSON_AND_ORGANIZATION ( #18446744073709551615, #18446744073709551615 ) ;
#479 = APPROVAL ( #802, 'Coincident' ) ;
#480 = PRODUCT_DEFINITION_FORMATION_WITH_SPECIFIED_SOURCE ( 'Symmetric', '', #195, .NOT_KNOWN. ) ;
#481 = PROPERTY_DEFINITION_REPRESENTATION ( #792, #704 ) ;
#482 = SECURITY_CLASSIFICATION ( '', '', #607 ) ;
#483 = LOCAL_TIME ( 18, 49, 27.00000000000000000, #29 ) ;
#484 = CALENDAR_DATE ( 2026, 22, 6 ) ;
#485 = APPROVAL ( #672, 'UNKNOWN' ) ;
#486 =( REPRESENTATION_RELATIONSHIP ('NONE','NONE', #365, #598 ) REPRESENTATION_RELATIONSHIP_WITH_TRANSFORMATION ( #436 )SHAPE_REPRESENTATION_RELATIONSHIP( ) );
#487 = PERSON_AND_ORGANIZATION_ROLE ( 'classification_officer' ) ;
#488 = SECURITY_CLASSIFICATION_LEVEL ( 'unclassified' ) ;
#489 = DIRECTION ( 'NONE',  ( 0.000000000000000000, 0.000000000000000000, 1.000000000000000000 ) ) ;
#490 = CC_DESIGN_PERSON_AND_ORGANIZATION_ASSIGNMENT ( #187, #192, ( #140 ) ) ;
#491 = SECURITY_CLASSIFICATION_LEVEL ( 'unclassified' ) ;
#492 = DATE_AND_TIME ( #234, #678 ) ;
#493 = PRODUCT_DEFINITION_FORMATION_WITH_SPECIFIED_SOURCE ( 'Symmetric', '', #140, .NOT_KNOWN. ) ;
#494 = SECURITY_CLASSIFICATION ( '', '', #110 ) ;
#495 = APPROVAL_DATE_TIME ( #549, #354 ) ;
#496 =( GEOMETRIC_REPRESENTATION_CONTEXT ( 3 ) GLOBAL_UNCERTAINTY_ASSIGNED_CONTEXT ( ( #632 ) ) GLOBAL_UNIT_ASSIGNED_CONTEXT ( ( #424, #381, #568 ) ) REPRESENTATION_CONTEXT ( 'NONE', 'WORKASPACE' ) );
#497 = PRODUCT_DEFINITION_FORMATION_WITH_SPECIFIED_SOURCE ( 'Symmetric', '', #695, .NOT_KNOWN. ) ;
#498 = CONTEXT_DEPENDENT_SHAPE_REPRESENTATION ( #244, #578 ) ;
#499 = APPROVAL_DATE_TIME ( #49, #617 ) ;
#500 = PERSON_AND_ORGANIZATION_ROLE ( 'design_owner' ) ;
#501 = APPROVAL ( #24, 'Coincident' ) ;
#502 = CALENDAR_DATE ( 2026, 22, 6 ) ;
#503 = PERSON_AND_ORGANIZATION_ROLE ( 'classification_officer' ) ;
#504 = PROPERTY_DEFINITION ('document property','', #58 ) ;
#505 = CARTESIAN_POINT ( 'NONE',  ( -0.07518733010313140286, 0.07995175240652313553, -33.00000000000000000 ) ) ;
#506 = CC_DESIGN_PERSON_AND_ORGANIZATION_ASSIGNMENT ( #776, #263, ( #667 ) ) ;
#507 = PROPERTY_DEFINITION ('external definition','', #145 ) ;
#508 = ROLE_ASSOCIATION ( #759, #761 ) ;
#509 = DOCUMENT_TYPE ( 'geometry' ) ;
#510 = UNCERTAINTY_MEASURE_WITH_UNIT (LENGTH_MEASURE( 1.000000000000000082E-05 ), #557, 'distance_accuracy_value', 'NONE');
#511 = APPROVAL_ROLE ( '' ) ;
#512 = CARTESIAN_POINT ( 'NONE',  ( -18.28883750473629632, 10.53284356836252478, -12.99999999999990052 ) ) ;
#513 = CC_DESIGN_PERSON_AND_ORGANIZATION_ASSIGNMENT ( #401, #653, ( #493 ) ) ;
#514 = DATE_TIME_ROLE ( 'classification_date' ) ;
#515 = COORDINATED_UNIVERSAL_TIME_OFFSET ( 10, 0, .AHEAD. ) ;
#516 = DIRECTION ( 'NONE',  ( 0.002588344366109781615, -0.9999966502311107286, -1.807546337044817224E-17 ) ) ;
#517 = PROPERTY_DEFINITION_REPRESENTATION ( #684, #704 ) ;
#518 = CC_DESIGN_DATE_AND_TIME_ASSIGNMENT ( #191, #514, ( #65 ) ) ;
#519 = UNCERTAINTY_MEASURE_WITH_UNIT (LENGTH_MEASURE( 1.000000000000000082E-05 ), #115, 'distance_accuracy_value', 'NONE');
#520 = DATE_AND_TIME ( #69, #225 ) ;
#521 = CARTESIAN_POINT ( 'NONE',  ( -18.23448227304799119, -10.46708608649080041, -12.99999999999988631 ) ) ;
#522 = LOCAL_TIME ( 18, 49, 27.00000000000000000, #439 ) ;
#523 = LOCAL_TIME ( 18, 49, 27.00000000000000000, #318 ) ;
#524 = APPLIED_EXTERNAL_IDENTIFICATION_ASSIGNMENT ( 'SWITCH-M10-5A-R1-RP.STEP.STEP' , #328, #236,( #582) ) ;
#525 = AXIS2_PLACEMENT_3D ( 'NONE', #521, #516, #250 ) ;
#526 = APPROVAL_STATUS ( 'not_yet_approved' ) ;
#527 = DATE_AND_TIME ( #26, #254 ) ;
#528 = IDENTIFICATION_ROLE ( 'external document id and location', $) ;
#529 = APPLIED_DOCUMENT_REFERENCE ( #207,'',( #344) ) ;
#530 = MECHANICAL_CONTEXT ( 'NONE', #680, 'mechanical' ) ;
#531 = CC_DESIGN_DATE_AND_TIME_ASSIGNMENT ( #520, #384, ( #146 ) ) ;
#532 = DATE_AND_TIME ( #278, #470 ) ;
#533 = PERSON_AND_ORGANIZATION ( #18446744073709551615, #18446744073709551615 ) ;
#534 = CC_DESIGN_PERSON_AND_ORGANIZATION_ASSIGNMENT ( #422, #744, ( #494 ) ) ;
#535 = LOCAL_TIME ( 18, 49, 27.00000000000000000, #612 ) ;
#536 = CC_DESIGN_APPROVAL ( #732, ( #296 ) ) ;
#537 = ROLE_ASSOCIATION ( #158, #464 ) ;
#538 = LOCAL_TIME ( 18, 49, 27.00000000000000000, #417 ) ;
#539 = LOCAL_TIME ( 18, 49, 27.00000000000000000, #260 ) ;
#540 = CALENDAR_DATE ( 2026, 22, 6 ) ;
#541 = DATE_AND_TIME ( #610, #31 ) ;
#542 = PERSON_AND_ORGANIZATION_ROLE ( 'classification_officer' ) ;
#543 = COORDINATED_UNIVERSAL_TIME_OFFSET ( 10, 0, .AHEAD. ) ;
#544 = DATE_AND_TIME ( #352, #135 ) ;
#545 = DATE_AND_TIME ( #731, #239 ) ;
#546 = DATE_AND_TIME ( #484, #751 ) ;
#547 = CC_DESIGN_SECURITY_CLASSIFICATION ( #667, ( #827 ) ) ;
#548 = COORDINATED_UNIVERSAL_TIME_OFFSET ( 10, 0, .AHEAD. ) ;
#549 = DATE_AND_TIME ( #107, #174 ) ;
#550 = AXIS2_PLACEMENT_3D ( 'NONE', #169, #618, #109 ) ;
#551 = PERSON_AND_ORGANIZATION ( #18446744073709551615, #18446744073709551615 ) ;
#552 = PERSON_AND_ORGANIZATION ( #96, #724 ) ;
#553 = APPROVAL_ROLE ( '' ) ;
#554 =( REPRESENTATION_RELATIONSHIP ('NONE','NONE', #365, #704 ) REPRESENTATION_RELATIONSHIP_WITH_TRANSFORMATION ( #711 )SHAPE_REPRESENTATION_RELATIONSHIP( ) );
#555 = CALENDAR_DATE ( 2026, 22, 6 ) ;
#556 = PERSON_AND_ORGANIZATION_ROLE ( 'design_supplier' ) ;
#557 =( LENGTH_UNIT ( ) NAMED_UNIT ( * ) SI_UNIT ( .MILLI., .METRE. ) );
#558 = DATE_AND_TIME ( #426, #443 ) ;
#559 = CC_DESIGN_SECURITY_CLASSIFICATION ( #90, ( #497 ) ) ;
#560 = APPLIED_EXTERNAL_IDENTIFICATION_ASSIGNMENT ( 'WLP-M10-7.5MM-PUBLIC.STEP' , #630, #342,( #145) ) ;
#561 = CALENDAR_DATE ( 2026, 22, 6 ) ;
#562 = APPROVAL_PERSON_ORGANIZATION ( #656, #243, #572 ) ;
#563 = DIRECTION ( 'NONE',  ( 0.000000000000000000, 0.000000000000000000, 1.000000000000000000 ) ) ;
#564 = PRODUCT_DEFINITION_SHAPE ( 'NONE', 'NONE',  #827 ) ;
#565 = ROLE_ASSOCIATION ( #98, #394 ) ;
#566 = CC_DESIGN_DATE_AND_TIME_ASSIGNMENT ( #546, #420, ( #282 ) ) ;
#567 = DATE_AND_TIME ( #683, #535 ) ;
#568 =( NAMED_UNIT ( * ) SI_UNIT ( $, .STERADIAN. ) SOLID_ANGLE_UNIT ( ) );
#569 = PERSON_AND_ORGANIZATION_ROLE ( 'classification_officer' ) ;
#570 = SECURITY_CLASSIFICATION_LEVEL ( 'unclassified' ) ;
#571 = PROPERTY_DEFINITION ('external definition','', #399 ) ;
#572 = APPROVAL_ROLE ( '' ) ;
#573 = ITEM_DEFINED_TRANSFORMATION ( 'NONE', 'NONE', #725,  #550 ) ;
#574 = APPLICATION_PROTOCOL_DEFINITION ( 'international standard', 'config_control_design', 1994, #52 ) ;
#575 = CC_DESIGN_SECURITY_CLASSIFICATION ( #137, ( #828 ) ) ;
#576 = DIRECTION ( 'NONE',  ( -1.000000000000000000, -4.733165431326070832E-29, 6.983129352544747399E-15 ) ) ;
#577 = CC_DESIGN_PERSON_AND_ORGANIZATION_ASSIGNMENT ( #36, #412, ( #347 ) ) ;
#578 = PRODUCT_DEFINITION_SHAPE ( 'NONE', 'NONE',  #825 ) ;
#579 = PERSON_AND_ORGANIZATION ( #718, #349 ) ;
#580 = APPROVAL_STATUS ( 'not_yet_approved' ) ;
#581 = DIRECTION ( 'NONE',  ( 0.002588344366109781615, -0.9999966502311107286, -1.807546337044817224E-17 ) ) ;
#582 = DOCUMENT_FILE ( 'SWITCH-M10-5A-R1-RP.STEP.STEP' , '', '', #370, '' ,$ ) ;
#583 = DATE_AND_TIME ( #256, #522 ) ;
#584 = CARTESIAN_POINT ( 'NONE',  ( -0.07518733010298823960, 0.07995175240652313553, -13.00000000000002487 ) ) ;
#585 = PRODUCT_DEFINITION_SHAPE ( 'NONE', 'NONE',  #830 ) ;
#586 = DOCUMENT_TYPE ( 'geometry' ) ;
#587 = APPROVAL_DATE_TIME ( #197, #701 ) ;
#588 = LOCAL_TIME ( 18, 49, 27.00000000000000000, #515 ) ;
#589 = APPROVAL_PERSON_ORGANIZATION ( #356, #732, #615 ) ;
#590 = AXIS2_PLACEMENT_3D ( 'NONE', #432, #489, #404 ) ;
#591 = PROPERTY_DEFINITION_REPRESENTATION ( #262, #421 ) ;
#592 = CC_DESIGN_PERSON_AND_ORGANIZATION_ASSIGNMENT ( #799, #80, ( #347 ) ) ;
#593 = PERSON_AND_ORGANIZATION ( #18446744073709551615, #18446744073709551615 ) ;
#594 = COORDINATED_UNIVERSAL_TIME_OFFSET ( 10, 0, .AHEAD. ) ;
#595 = APPROVAL_ROLE ( '' ) ;
#596 = DATE_AND_TIME ( #821, #431 ) ;
#597 = IDENTIFICATION_ROLE ( 'external document id and location', $) ;
#598 = SHAPE_REPRESENTATION ( 'WTE3-M-END-CAP-7-HOLE-R1', ( #606 ), #20 ) ;
#599 = PERSON_AND_ORGANIZATION_ROLE ( 'classification_officer' ) ;
#600 = DATE_TIME_ROLE ( 'creation_date' ) ;
#601 = LOCAL_TIME ( 18, 49, 27.00000000000000000, #214 ) ;
#602 = CC_DESIGN_DATE_AND_TIME_ASSIGNMENT ( #477, #609, ( #644 ) ) ;
#603 = CC_DESIGN_SECURITY_CLASSIFICATION ( #494, ( #825 ) ) ;
#604 = APPROVAL_DATE_TIME ( #273, #62 ) ;
#605 = CC_DESIGN_APPROVAL ( #62, ( #709 ) ) ;
#606 = AXIS2_PLACEMENT_3D ( 'NONE', #46, #50, #758 ) ;
#607 = SECURITY_CLASSIFICATION_LEVEL ( 'unclassified' ) ;
#608 = DATE_AND_TIME ( #151, #63 ) ;
#609 = DATE_TIME_ROLE ( 'classification_date' ) ;
#610 = CALENDAR_DATE ( 2026, 22, 6 ) ;
#611 = CALENDAR_DATE ( 2026, 22, 6 ) ;
#612 = COORDINATED_UNIVERSAL_TIME_OFFSET ( 10, 0, .AHEAD. ) ;
#613 = CC_DESIGN_APPROVAL ( #701, ( #413 ) ) ;
#614 = APPLIED_EXTERNAL_IDENTIFICATION_ASSIGNMENT ( 'WTE3-M-END-CAP-7-HOLE-R1.STEP' , #528, #17,( #224) ) ;
#615 = APPROVAL_ROLE ( '' ) ;
#616 = APPROVAL_DATE_TIME ( #38, #232 ) ;
#617 = APPROVAL ( #762, 'Coincident' ) ;
#618 = DIRECTION ( 'NONE',  ( 0.000000000000000000, 0.000000000000000000, 1.000000000000000000 ) ) ;
#619 = CONTEXT_DEPENDENT_SHAPE_REPRESENTATION ( #486, #47 ) ;
#620 = PERSON_AND_ORGANIZATION_ROLE ( 'creator' ) ;
#621 =( NAMED_UNIT ( * ) PLANE_ANGLE_UNIT ( ) SI_UNIT ( $, .RADIAN. ) );
#622 = PROPERTY_DEFINITION ('document property','', #582 ) ;
#623 = PROPERTY_DEFINITION_REPRESENTATION ( #769, #598 ) ;
#624 = APPLICATION_PROTOCOL_DEFINITION ( 'international standard', 'config_control_design', 1994, #168 ) ;
#625 = SHAPE_REPRESENTATION ( 'SWITCH-M10-5A-R1-RP.STEP', ( #550 ), #767 ) ;
#626 = PERSON ( 'NAUO-PER9', 'UNSPECIFIED', 'UNSPECIFIED', ('UNSPECIFIED'), ('UNSPECIFIED'), ('UNSPECIFIED') ) ;
#627 = CC_DESIGN_PERSON_AND_ORGANIZATION_ASSIGNMENT ( #451, #198, ( #373 ) ) ;
#628 = PROPERTY_DEFINITION_REPRESENTATION ( #760, #704 ) ;
#629 = APPROVAL_PERSON_ORGANIZATION ( #288, #663, #740 ) ;
#630 = IDENTIFICATION_ROLE ( 'external document id and location', $) ;
#631 = LOCAL_TIME ( 18, 49, 27.00000000000000000, #358 ) ;
#632 = UNCERTAINTY_MEASURE_WITH_UNIT (LENGTH_MEASURE( 1.000000000000000082E-05 ), #424, 'distance_accuracy_value', 'NONE');
#633 = APPROVAL_DATE_TIME ( #686, #428 ) ;
#634 = AXIS2_PLACEMENT_3D ( 'NONE', #768, #581, #265 ) ;
#635 = PRODUCT_DEFINITION_SHAPE ( 'NONE', 'NONE',  #715 ) ;
#636 = PROPERTY_DEFINITION_REPRESENTATION ( #241, #704 ) ;
#637 = MECHANICAL_CONTEXT ( 'NONE', #52, 'mechanical' ) ;
#638 = ROLE_ASSOCIATION ( #285, #7 ) ;
#639 = PERSON_AND_ORGANIZATION ( #18446744073709551615, #18446744073709551615 ) ;
#640 = CC_DESIGN_DATE_AND_TIME_ASSIGNMENT ( #596, #600, ( #687 ) ) ;
#641 = DOCUMENT_TYPE ( 'geometry' ) ;
#642 = CALENDAR_DATE ( 2026, 22, 6 ) ;
#643 = COORDINATED_UNIVERSAL_TIME_OFFSET ( 10, 0, .AHEAD. ) ;
#644 = SECURITY_CLASSIFICATION ( '', '', #570 ) ;
#645 = LOCAL_TIME ( 18, 49, 27.00000000000000000, #2 ) ;
#646 = CC_DESIGN_PERSON_AND_ORGANIZATION_ASSIGNMENT ( #283, #599, ( #309 ) ) ;
#647 = DIRECTION ( 'NONE',  ( 0.002588344366109781615, -0.9999966502311107286, -1.807546337044817224E-17 ) ) ;
#648 = CC_DESIGN_APPROVAL ( #727, ( #493 ) ) ;
#649 = APPROVAL_DATE_TIME ( #449, #485 ) ;
#650 = CALENDAR_DATE ( 2026, 22, 6 ) ;
#651 = COORDINATED_UNIVERSAL_TIME_OFFSET ( 10, 0, .AHEAD. ) ;
#652 = DATE_AND_TIME ( #502, #361 ) ;
#653 = PERSON_AND_ORGANIZATION_ROLE ( 'creator' ) ;
#654 = CC_DESIGN_PERSON_AND_ORGANIZATION_ASSIGNMENT ( #375, #673, ( #695 ) ) ;
#655 = ITEM_DEFINED_TRANSFORMATION ( 'NONE', 'NONE', #287,  #783 ) ;
#656 = PERSON_AND_ORGANIZATION ( #18446744073709551615, #18446744073709551615 ) ;
#657 = LOCAL_TIME ( 18, 49, 27.00000000000000000, #220 ) ;
#658 = EXTERNAL_SOURCE (IDENTIFIER('') ) ;
#659 = CC_DESIGN_DATE_AND_TIME_ASSIGNMENT ( #771, #64, ( #667 ) ) ;
#660 = APPROVAL_ROLE ( '' ) ;
#661 = SECURITY_CLASSIFICATION_LEVEL ( 'unclassified' ) ;
#662 = APPROVAL_DATE_TIME ( #544, #479 ) ;
#663 = APPROVAL ( #291, 'Coincident' ) ;
#664 = APPROVAL_ROLE ( '' ) ;
#665 = COORDINATED_UNIVERSAL_TIME_OFFSET ( 10, 0, .AHEAD. ) ;
#666 = CC_DESIGN_SECURITY_CLASSIFICATION ( #644, ( #493 ) ) ;
#667 = SECURITY_CLASSIFICATION ( '', '', #491 ) ;
#668 = LOCAL_TIME ( 18, 49, 27.00000000000000000, #129 ) ;
#669 = CALENDAR_DATE ( 2026, 22, 6 ) ;
#670 = DATE_AND_TIME ( #22, #483 ) ;
#671 =( REPRESENTATION_RELATIONSHIP ('NONE','NONE', #365, #704 ) REPRESENTATION_RELATIONSHIP_WITH_TRANSFORMATION ( #164 )SHAPE_REPRESENTATION_RELATIONSHIP( ) );
#672 = APPROVAL_STATUS ( 'not_yet_approved' ) ;
#673 = PERSON_AND_ORGANIZATION_ROLE ( 'design_owner' ) ;
#674 = CC_DESIGN_PERSON_AND_ORGANIZATION_ASSIGNMENT ( #713, #326, ( #146 ) ) ;
#675 = ROLE_ASSOCIATION ( #472, #37 ) ;
#676 = COORDINATED_UNIVERSAL_TIME_OFFSET ( 10, 0, .AHEAD. ) ;
#677 = DIRECTION ( 'NONE',  ( 1.000000000000000000, 0.000000000000000000, 0.000000000000000000 ) ) ;
#678 = LOCAL_TIME ( 18, 49, 27.00000000000000000, #811 ) ;
#679 = ORGANIZATION ( 'NAUO-ORG8', 'UNSPECIFIED', 'UNSPECIFIED' ) ;
#680 = APPLICATION_CONTEXT ( 'configuration controlled 3d designs of mechanical parts and assemblies' ) ;
#681 = DATE_TIME_ROLE ( 'classification_date' ) ;
#682 = AXIS2_PLACEMENT_3D ( 'NONE', #71, #74, #576 ) ;
#683 = CALENDAR_DATE ( 2026, 22, 6 ) ;
#684 = PROPERTY_DEFINITION ('external definition','', #366 ) ;
#685 = COORDINATED_UNIVERSAL_TIME_OFFSET ( 10, 0, .AHEAD. ) ;
#686 = DATE_AND_TIME ( #114, #392 ) ;
#687 = PRODUCT_DEFINITION ( 'General', '', #312, #712 ) ;
#688 = APPROVAL_STATUS ( 'not_yet_approved' ) ;
#689 = DATE_AND_TIME ( #301, #116 ) ;
#690 = APPROVAL ( #89, 'UNKNOWN' ) ;
#691 = PROPERTY_DEFINITION_REPRESENTATION ( #710, #704 ) ;
#692 = APPROVAL_PERSON_ORGANIZATION ( #73, #701, #121 ) ;
#693 = APPROVAL_PERSON_ORGANIZATION ( #776, #485, #248 ) ;
#694 = DATE_AND_TIME ( #396, #251 ) ;
#695 = PRODUCT ( 'WTE3-M-END-CAP-7-HOLE-R1', 'WTE3-M-END-CAP-7-HOLE-R1', '', ( #173 ) ) ;
#696 = APPLICATION_CONTEXT ( 'configuration controlled 3d designs of mechanical parts and assemblies' ) ;
#697 = SECURITY_CLASSIFICATION_LEVEL ( 'unclassified' ) ;
#698 = DATE_TIME_ROLE ( 'creation_date' ) ;
#699 = CARTESIAN_POINT ( 'NONE',  ( 18.13846284453032709, -10.37294006354946774, -13.00000000000013678 ) ) ;
#700 = CALENDAR_DATE ( 2026, 22, 6 ) ;
#701 = APPROVAL ( #319, 'Coincident' ) ;
#702 = DATE_AND_TIME ( #334, #539 ) ;
#703 = DATE_AND_TIME ( #321, #668 ) ;
#704 = SHAPE_REPRESENTATION ( 'WLP-M10-7.5MM-PUBLIC', ( #783 ), #81 ) ;
#705 = CONTEXT_DEPENDENT_SHAPE_REPRESENTATION ( #554, #122 ) ;
#706 = PERSON_AND_ORGANIZATION ( #18446744073709551615, #18446744073709551615 ) ;
#707 = CC_DESIGN_SECURITY_CLASSIFICATION ( #749, ( #312 ) ) ;
#708 = CC_DESIGN_APPROVAL ( #485, ( #667 ) ) ;
#709 = SECURITY_CLASSIFICATION ( '', '', #438 ) ;
#710 = PROPERTY_DEFINITION ('external definition','', #58 ) ;
#711 = ITEM_DEFINED_TRANSFORMATION ( 'NONE', 'NONE', #416,  #783 ) ;
#712 = DESIGN_CONTEXT ( 'detailed design', #253, 'design' ) ;
#713 = PERSON_AND_ORGANIZATION ( #18446744073709551615, #18446744073709551615 ) ;
#714 = DIRECTION ( 'NONE',  ( -0.9999966502311107286, -0.002588344366109781181, 7.178352710852256022E-15 ) ) ;
#715 = PRODUCT_DEFINITION ( 'General', '', #347, #765 ) ;
#716 = IDENTIFICATION_ROLE ( 'external document id and location', $) ;
#717 = ROLE_ASSOCIATION ( #441, #290 ) ;
#718 = PERSON ( 'NAUO-PER12', 'UNSPECIFIED', 'UNSPECIFIED', ('UNSPECIFIED'), ('UNSPECIFIED'), ('UNSPECIFIED') ) ;
#719 = APPLICATION_PROTOCOL_DEFINITION ( 'international standard', 'config_control_design', 1994, #253 ) ;
#720 = CC_DESIGN_PERSON_AND_ORGANIZATION_ASSIGNMENT ( #552, #810, ( #405 ) ) ;
#721 = DATE_AND_TIME ( #669, #70 ) ;
#722 = CC_DESIGN_APPROVAL ( #190, ( #344 ) ) ;
#723 = APPROVAL_ROLE ( '' ) ;
#724 = ORGANIZATION ( 'NAUO-ORG10', 'UNSPECIFIED', 'UNSPECIFIED' ) ;
#725 = AXIS2_PLACEMENT_3D ( 'NONE', #13, #335, #189 ) ;
#726 = COORDINATED_UNIVERSAL_TIME_OFFSET ( 10, 0, .AHEAD. ) ;
#727 = APPROVAL ( #264, 'Coincident' ) ;
#728 = CALENDAR_DATE ( 2026, 22, 6 ) ;
#729 = IDENTIFICATION_ROLE ( 'external document id and location', $) ;
#730 = APPROVAL_DATE_TIME ( #226, #501 ) ;
#731 = CALENDAR_DATE ( 2026, 22, 6 ) ;
#732 = APPROVAL ( #786, 'UNKNOWN' ) ;
#733 = PERSON_AND_ORGANIZATION_ROLE ( 'design_owner' ) ;
#734 = COORDINATED_UNIVERSAL_TIME_OFFSET ( 10, 0, .AHEAD. ) ;
#735 = APPROVAL_STATUS ( 'not_yet_approved' ) ;
#736 = CC_DESIGN_APPROVAL ( #479, ( #715 ) ) ;
#737 = LOCAL_TIME ( 18, 49, 27.00000000000000000, #685 ) ;
#738 = COORDINATED_UNIVERSAL_TIME_OFFSET ( 10, 0, .AHEAD. ) ;
#739 = DOCUMENT_FILE ( 'WLP-M10-7.5MM-PUBLIC.STEP' , '', '', #155, '' ,$ ) ;
#740 = APPROVAL_ROLE ( '' ) ;
#741 = CC_DESIGN_PERSON_AND_ORGANIZATION_ASSIGNMENT ( #551, #556, ( #497 ) ) ;
#742 = APPROVAL_STATUS ( 'not_yet_approved' ) ;
#743 = DIRECTION ( 'NONE',  ( 0.000000000000000000, 0.000000000000000000, 1.000000000000000000 ) ) ;
#744 = PERSON_AND_ORGANIZATION_ROLE ( 'classification_officer' ) ;
#745 = APPROVAL_DATE_TIME ( #492, #215 ) ;
#746 =( NAMED_UNIT ( * ) PLANE_ANGLE_UNIT ( ) SI_UNIT ( $, .RADIAN. ) );
#747 = CC_DESIGN_APPROVAL ( #354, ( #497 ) ) ;
#748 = CC_DESIGN_APPROVAL ( #690, ( #482 ) ) ;
#749 = SECURITY_CLASSIFICATION ( '', '', #791 ) ;
#750 = CC_DESIGN_PERSON_AND_ORGANIZATION_ASSIGNMENT ( #284, #503, ( #644 ) ) ;
#751 = LOCAL_TIME ( 18, 49, 27.00000000000000000, #665 ) ;
#752 = PERSON_AND_ORGANIZATION_ROLE ( 'classification_officer' ) ;
#753 = PROPERTY_DEFINITION ('external definition','', #32 ) ;
#754 =( NAMED_UNIT ( * ) PLANE_ANGLE_UNIT ( ) SI_UNIT ( $, .RADIAN. ) );
#755 = APPROVAL_STATUS ( 'not_yet_approved' ) ;
#756 = PERSON_AND_ORGANIZATION ( #18446744073709551615, #18446744073709551615 ) ;
#757 = APPROVAL ( #688, 'UNKNOWN' ) ;
#758 = DIRECTION ( 'NONE',  ( 1.000000000000000000, 0.000000000000000000, 0.000000000000000000 ) ) ;
#759 = OBJECT_ROLE ('mandatory',$ ) ;
#760 = PROPERTY_DEFINITION ('document property','', #145 ) ;
#761 = APPLIED_DOCUMENT_REFERENCE ( #582,'',( #715) ) ;
#762 = APPROVAL_STATUS ( 'not_yet_approved' ) ;
#763 = DATE_AND_TIME ( #324, #523 ) ;
#764 = APPLIED_EXTERNAL_IDENTIFICATION_ASSIGNMENT ( 'WLP-M10-7.5MM-PUBLIC.STEP' , #597, #66,( #58) ) ;
#765 = DESIGN_CONTEXT ( 'detailed design', #126, 'design' ) ;
#766 = PERSON_AND_ORGANIZATION ( #18446744073709551615, #18446744073709551615 ) ;
#767 =( GEOMETRIC_REPRESENTATION_CONTEXT ( 3 ) GLOBAL_UNCERTAINTY_ASSIGNED_CONTEXT ( ( #519 ) ) GLOBAL_UNIT_ASSIGNED_CONTEXT ( ( #115, #621, #331 ) ) REPRESENTATION_CONTEXT ( 'NONE', 'WORKASPACE' ) );
#768 = CARTESIAN_POINT ( 'NONE',  ( -0.02083209841468762133, -20.91997790244680289, -13.00000000000001066 ) ) ;
#769 = PROPERTY_DEFINITION ('external definition','', #224 ) ;
#770 = CC_DESIGN_PERSON_AND_ORGANIZATION_ASSIGNMENT ( #593, #343, ( #282 ) ) ;
#771 = DATE_AND_TIME ( #445, #377 ) ;
#772 = APPROVAL_ROLE ( '' ) ;
#773 = EXTERNAL_SOURCE (IDENTIFIER('') ) ;
#774 = DIRECTION ( 'NONE',  ( 6.983129352544526518E-15, 0.000000000000000000, 1.000000000000000000 ) ) ;
#775 = CC_DESIGN_PERSON_AND_ORGANIZATION_ASSIGNMENT ( #281, #542, ( #709 ) ) ;
#776 = PERSON_AND_ORGANIZATION ( #447, #30 ) ;
#777 = APPROVAL_DATE_TIME ( #779, #368 ) ;
#778 = PROPERTY_DEFINITION_REPRESENTATION ( #327, #625 ) ;
#779 = DATE_AND_TIME ( #650, #588 ) ;
#780 = APPROVAL_PERSON_ORGANIZATION ( #380, #727, #511 ) ;
#781 = APPROVAL ( #735, 'Coincident' ) ;
#782 = ORGANIZATION ( 'NAUO-ORG13', 'UNSPECIFIED', 'UNSPECIFIED' ) ;
#783 = AXIS2_PLACEMENT_3D ( 'NONE', #123, #743, #104 ) ;
#784 = APPROVAL_DATE_TIME ( #694, #190 ) ;
#785 = CARTESIAN_POINT ( 'NONE',  ( 18.08410761284201129, 10.62698959130385212, -13.00000000000015099 ) ) ;
#786 = APPROVAL_STATUS ( 'not_yet_approved' ) ;
#787 = APPLICATION_CONTEXT ( 'configuration controlled 3d designs of mechanical parts and assemblies' ) ;
#788 = APPLICATION_PROTOCOL_DEFINITION ( 'international standard', 'config_control_design', 1994, #126 ) ;
#789 = COORDINATED_UNIVERSAL_TIME_OFFSET ( 10, 0, .AHEAD. ) ;
#790 = CC_DESIGN_APPROVAL ( #215, ( #146 ) ) ;
#791 = SECURITY_CLASSIFICATION_LEVEL ( 'unclassified' ) ;
#792 = PROPERTY_DEFINITION ('document property','', #739 ) ;
#793 = CC_DESIGN_APPROVAL ( #243, ( #687 ) ) ;
#794 = LOCAL_TIME ( 18, 49, 27.00000000000000000, #543 ) ;
#795 = CALENDAR_DATE ( 2026, 22, 6 ) ;
#796 = CALENDAR_DATE ( 2026, 22, 6 ) ;
#797 = PERSON_AND_ORGANIZATION_ROLE ( 'design_supplier' ) ;
#798 = ITEM_DEFINED_TRANSFORMATION ( 'NONE', 'NONE', #682,  #240 ) ;
#799 = PERSON_AND_ORGANIZATION ( #18446744073709551615, #18446744073709551615 ) ;
#800 = DOCUMENT_TYPE ( 'geometry' ) ;
#801 = DATE_TIME_ROLE ( 'classification_date' ) ;
#802 = APPROVAL_STATUS ( 'not_yet_approved' ) ;
#803 = CC_DESIGN_PERSON_AND_ORGANIZATION_ASSIGNMENT ( #97, #88, ( #715 ) ) ;
#804 = LOCAL_TIME ( 18, 49, 27.00000000000000000, #789 ) ;
#805 = PERSON_AND_ORGANIZATION ( #18446744073709551615, #18446744073709551615 ) ;
#806 = CONTEXT_DEPENDENT_SHAPE_REPRESENTATION ( #211, #461 ) ;
#807 = PERSON_AND_ORGANIZATION ( #18446744073709551615, #18446744073709551615 ) ;
#808 = APPROVAL ( #473, 'UNKNOWN' ) ;
#809 =( NAMED_UNIT ( * ) SI_UNIT ( $, .STERADIAN. ) SOLID_ANGLE_UNIT ( ) );
#810 = PERSON_AND_ORGANIZATION_ROLE ( 'classification_officer' ) ;
#811 = COORDINATED_UNIVERSAL_TIME_OFFSET ( 10, 0, .AHEAD. ) ;
#812 = IDENTIFICATION_ROLE ( 'external document id and location', $) ;
#813 = PROPERTY_DEFINITION ('document property','', #399 ) ;
#814 = PRODUCT_RELATED_PRODUCT_CATEGORY ( 'detail', '', ( #373 ) ) ;
#815 = DATE_AND_TIME ( #611, #105 ) ;
#816 = DESIGN_CONTEXT ( 'detailed design', #200, 'design' ) ;
#817 = CALENDAR_DATE ( 2026, 22, 6 ) ;
#818 = APPROVAL_PERSON_ORGANIZATION ( #45, #354, #304 ) ;
#819 = APPLIED_EXTERNAL_IDENTIFICATION_ASSIGNMENT ( 'flange3-BR-100416_RevC.step.STEP' , #812, #82,( #207) ) ;
#820 = CC_DESIGN_DATE_AND_TIME_ASSIGNMENT ( #652, #141, ( #137 ) ) ;
#821 = CALENDAR_DATE ( 2026, 22, 6 ) ;
#822 = NEXT_ASSEMBLY_USAGE_OCCURRENCE ( 'NAUO6', ' ', ' ', #687, #344, $ ) ;
#823 = NEXT_ASSEMBLY_USAGE_OCCURRENCE ( 'NAUO7', ' ', ' ', #687, #146, $ ) ;
#824 = NEXT_ASSEMBLY_USAGE_OCCURRENCE ( 'NAUO8', ' ', ' ', #687, #146, $ ) ;
#825 = NEXT_ASSEMBLY_USAGE_OCCURRENCE ( 'NAUO9', ' ', ' ', #687, #146, $ ) ;
#826 = NEXT_ASSEMBLY_USAGE_OCCURRENCE ( 'NAUO10', ' ', ' ', #687, #94, $ ) ;
#827 = NEXT_ASSEMBLY_USAGE_OCCURRENCE ( 'NAUO11', ' ', ' ', #687, #146, $ ) ;
#828 = NEXT_ASSEMBLY_USAGE_OCCURRENCE ( 'NAUO12', ' ', ' ', #687, #146, $ ) ;
#829 = NEXT_ASSEMBLY_USAGE_OCCURRENCE ( 'NAUO13', ' ', ' ', #687, #715, $ ) ;
#830 = NEXT_ASSEMBLY_USAGE_OCCURRENCE ( 'NAUO14', ' ', ' ', #687, #146, $ ) ;
ENDSEC;
END-ISO-10303-21;
