ISO-10303-21;
HEADER;
FILE_DESCRIPTION (( 'STEP AP203' ),
    '1' );
FILE_NAME ('eth-38658-2.1.STEP',
    '2026-06-22T08:50:01',
    ( 'localuser' ),
    ( '' ),
    'SwSTEP 2.0',
    'SolidWorks 2025',
    '' );
FILE_SCHEMA (( 'CONFIG_CONTROL_DESIGN' ));
ENDSEC;

DATA;
#1 = CALENDAR_DATE ( 2026, 22, 6 ) ;
#2 = APPLICATION_CONTEXT ( 'configuration controlled 3d designs of mechanical parts and assemblies' ) ;
#3 = APPROVAL_DATE_TIME ( #40, #14 ) ;
#4 = SECURITY_CLASSIFICATION ( '', '', #80 ) ;
#5 = PERSON_AND_ORGANIZATION ( #18446744073709551615, #18446744073709551615 ) ;
#6 = CC_DESIGN_PERSON_AND_ORGANIZATION_ASSIGNMENT ( #5, #66, ( #32 ) ) ;
#7 = PROPERTY_DEFINITION_REPRESENTATION ( #207, #29 ) ;
#8 = APPROVAL_STATUS ( 'not_yet_approved' ) ;
#9 = LOCAL_TIME ( 18, 50, 1.000000000000000000, #109 ) ;
#10 = APPROVAL ( #92, 'Coincident' ) ;
#11 = CALENDAR_DATE ( 2026, 22, 6 ) ;
#12 = PERSON_AND_ORGANIZATION_ROLE ( 'classification_officer' ) ;
#13 = CC_DESIGN_APPROVAL ( #206, ( #4 ) ) ;
#14 = APPROVAL ( #37, 'Coincident' ) ;
#15 = DOCUMENT_FILE ( '38658-2.1.step.STEP' , '', '', #167, '' ,$ ) ;
#16 = CALENDAR_DATE ( 2026, 22, 6 ) ;
#17 = PRODUCT_RELATED_PRODUCT_CATEGORY ( 'detail', '', ( #177 ) ) ;
#18 = CC_DESIGN_APPROVAL ( #124, ( #90 ) ) ;
#19 = DIRECTION ( 'NONE',  ( 1.000000000000000000, 0.000000000000000000, 0.000000000000000000 ) ) ;
#20 = COORDINATED_UNIVERSAL_TIME_OFFSET ( 10, 0, .AHEAD. ) ;
#21 = PRODUCT_DEFINITION_SHAPE ( 'NONE', 'NONE',  #31 ) ;
#22 = APPROVAL_STATUS ( 'not_yet_approved' ) ;
#23 = APPROVAL_ROLE ( '' ) ;
#24 = APPROVAL_DATE_TIME ( #68, #206 ) ;
#25 = PERSON_AND_ORGANIZATION ( #18446744073709551615, #18446744073709551615 ) ;
#26 = APPROVAL ( #22, 'Coincident' ) ;
#27 = APPROVAL_PERSON_ORGANIZATION ( #97, #206, #23 ) ;
#28 = APPROVAL_DATE_TIME ( #184, #193 ) ;
#29 = SHAPE_REPRESENTATION ( '38658-2.1.step', ( #188 ), #75 ) ;
#30 = LOCAL_TIME ( 18, 50, 1.000000000000000000, #100 ) ;
#31 = PRODUCT_DEFINITION ( 'General', '', #203, #181 ) ;
#32 = PRODUCT_DEFINITION_FORMATION_WITH_SPECIFIED_SOURCE ( 'Symmetric', '', #63, .NOT_KNOWN. ) ;
#33 = PROPERTY_DEFINITION ('external definition','', #15 ) ;
#34 =( NAMED_UNIT ( * ) PLANE_ANGLE_UNIT ( ) SI_UNIT ( $, .RADIAN. ) );
#35 = CC_DESIGN_DATE_AND_TIME_ASSIGNMENT ( #67, #42, ( #90 ) ) ;
#36 = APPLICATION_PROTOCOL_DEFINITION ( 'international standard', 'config_control_design', 1994, #202 ) ;
#37 = APPROVAL_STATUS ( 'not_yet_approved' ) ;
#38 = COORDINATED_UNIVERSAL_TIME_OFFSET ( 10, 0, .AHEAD. ) ;
#39 = COORDINATED_UNIVERSAL_TIME_OFFSET ( 10, 0, .AHEAD. ) ;
#40 = DATE_AND_TIME ( #65, #189 ) ;
#41 = APPROVAL_STATUS ( 'not_yet_approved' ) ;
#42 = DATE_TIME_ROLE ( 'classification_date' ) ;
#43 = CC_DESIGN_SECURITY_CLASSIFICATION ( #105, ( #215 ) ) ;
#44 = APPLIED_DOCUMENT_REFERENCE ( #15,'',( #31) ) ;
#45 = CC_DESIGN_DATE_AND_TIME_ASSIGNMENT ( #145, #176, ( #4 ) ) ;
#46 = APPLIED_EXTERNAL_IDENTIFICATION_ASSIGNMENT ( '38658-2.1.step.STEP' , #134, #94,( #15) ) ;
#47 = PERSON_AND_ORGANIZATION ( #18446744073709551615, #18446744073709551615 ) ;
#48 = CC_DESIGN_DATE_AND_TIME_ASSIGNMENT ( #143, #210, ( #164 ) ) ;
#49 = PERSON_AND_ORGANIZATION_ROLE ( 'design_owner' ) ;
#50 = APPROVAL_ROLE ( '' ) ;
#51 = DIRECTION ( 'NONE',  ( 0.000000000000000000, 0.000000000000000000, 1.000000000000000000 ) ) ;
#52 = DATE_AND_TIME ( #99, #30 ) ;
#53 = PERSON_AND_ORGANIZATION ( #18446744073709551615, #18446744073709551615 ) ;
#54 = PERSON_AND_ORGANIZATION_ROLE ( 'design_supplier' ) ;
#55 = APPROVAL_PERSON_ORGANIZATION ( #81, #26, #70 ) ;
#56 = PRODUCT_RELATED_PRODUCT_CATEGORY ( 'detail', '', ( #63 ) ) ;
#57 = PERSON_AND_ORGANIZATION ( #18446744073709551615, #18446744073709551615 ) ;
#58 = DESIGN_CONTEXT ( 'detailed design', #202, 'design' ) ;
#59 = CALENDAR_DATE ( 2026, 22, 6 ) ;
#60 = CC_DESIGN_SECURITY_CLASSIFICATION ( #90, ( #32 ) ) ;
#61 = DATE_AND_TIME ( #16, #9 ) ;
#62 =( LENGTH_UNIT ( ) NAMED_UNIT ( * ) SI_UNIT ( .MILLI., .METRE. ) );
#63 = PRODUCT ( 'eth-38658-2.1', 'eth-38658-2.1', '', ( #144 ) ) ;
#64 = PERSON_AND_ORGANIZATION ( #18446744073709551615, #18446744073709551615 ) ;
#65 = CALENDAR_DATE ( 2026, 22, 6 ) ;
#66 = PERSON_AND_ORGANIZATION_ROLE ( 'creator' ) ;
#67 = DATE_AND_TIME ( #175, #103 ) ;
#68 = DATE_AND_TIME ( #1, #121 ) ;
#69 = PERSON_AND_ORGANIZATION_ROLE ( 'creator' ) ;
#70 = APPROVAL_ROLE ( '' ) ;
#71 = ROLE_ASSOCIATION ( #173, #44 ) ;
#72 = CALENDAR_DATE ( 2026, 22, 6 ) ;
#73 = CC_DESIGN_PERSON_AND_ORGANIZATION_ASSIGNMENT ( #162, #54, ( #32 ) ) ;
#74 = ITEM_DEFINED_TRANSFORMATION ( 'NONE', 'NONE', #185,  #188 ) ;
#75 =( GEOMETRIC_REPRESENTATION_CONTEXT ( 3 ) GLOBAL_UNCERTAINTY_ASSIGNED_CONTEXT ( ( #123 ) ) GLOBAL_UNIT_ASSIGNED_CONTEXT ( ( #62, #34, #140 ) ) REPRESENTATION_CONTEXT ( 'NONE', 'WORKASPACE' ) );
#76 =( REPRESENTATION_RELATIONSHIP ('NONE','NONE', #132, #29 ) REPRESENTATION_RELATIONSHIP_WITH_TRANSFORMATION ( #74 )SHAPE_REPRESENTATION_RELATIONSHIP( ) );
#77 =( NAMED_UNIT ( * ) PLANE_ANGLE_UNIT ( ) SI_UNIT ( $, .RADIAN. ) );
#78 = CALENDAR_DATE ( 2026, 22, 6 ) ;
#79 = CC_DESIGN_SECURITY_CLASSIFICATION ( #4, ( #203 ) ) ;
#80 = SECURITY_CLASSIFICATION_LEVEL ( 'unclassified' ) ;
#81 = PERSON_AND_ORGANIZATION ( #18446744073709551615, #18446744073709551615 ) ;
#82 = CC_DESIGN_APPROVAL ( #193, ( #105 ) ) ;
#83 = PERSON_AND_ORGANIZATION ( #18446744073709551615, #18446744073709551615 ) ;
#84 = CC_DESIGN_PERSON_AND_ORGANIZATION_ASSIGNMENT ( #194, #174, ( #164 ) ) ;
#85 = APPROVAL_ROLE ( '' ) ;
#86 = PERSON_AND_ORGANIZATION ( #18446744073709551615, #18446744073709551615 ) ;
#87 = APPROVAL_PERSON_ORGANIZATION ( #106, #10, #158 ) ;
#88 = CC_DESIGN_PERSON_AND_ORGANIZATION_ASSIGNMENT ( #53, #113, ( #4 ) ) ;
#89 = PERSON_AND_ORGANIZATION ( #183, #119 ) ;
#90 = SECURITY_CLASSIFICATION ( '', '', #198 ) ;
#91 = APPLICATION_CONTEXT ( 'configuration controlled 3d designs of mechanical parts and assemblies' ) ;
#92 = APPROVAL_STATUS ( 'not_yet_approved' ) ;
#93 = CC_DESIGN_APPROVAL ( #14, ( #32 ) ) ;
#94 = EXTERNAL_SOURCE (IDENTIFIER('') ) ;
#95 = DATE_AND_TIME ( #163, #98 ) ;
#96 = CC_DESIGN_DATE_AND_TIME_ASSIGNMENT ( #151, #135, ( #105 ) ) ;
#97 = PERSON_AND_ORGANIZATION ( #18446744073709551615, #18446744073709551615 ) ;
#98 = LOCAL_TIME ( 18, 50, 1.000000000000000000, #165 ) ;
#99 = CALENDAR_DATE ( 2026, 22, 6 ) ;
#100 = COORDINATED_UNIVERSAL_TIME_OFFSET ( 10, 0, .AHEAD. ) ;
#101 = APPLICATION_CONTEXT ( 'configuration controlled 3d designs of mechanical parts and assemblies' ) ;
#102 = SECURITY_CLASSIFICATION_LEVEL ( 'unclassified' ) ;
#103 = LOCAL_TIME ( 18, 50, 1.000000000000000000, #38 ) ;
#104 = CC_DESIGN_PERSON_AND_ORGANIZATION_ASSIGNMENT ( #64, #49, ( #63 ) ) ;
#105 = SECURITY_CLASSIFICATION ( '', '', #102 ) ;
#106 = PERSON_AND_ORGANIZATION ( #18446744073709551615, #18446744073709551615 ) ;
#107 = PRODUCT_DEFINITION_SHAPE ( 'NONE', 'NONE',  #164 ) ;
#108 = CARTESIAN_POINT ( 'NONE',  ( 0.000000000000000000, 0.000000000000000000, 0.000000000000000000 ) ) ;
#109 = COORDINATED_UNIVERSAL_TIME_OFFSET ( 10, 0, .AHEAD. ) ;
#110 = CC_DESIGN_APPROVAL ( #26, ( #203 ) ) ;
#111 = CARTESIAN_POINT ( 'NONE',  ( 0.000000000000000000, 0.000000000000000000, 0.000000000000000000 ) ) ;
#112 = APPROVAL_ROLE ( '' ) ;
#113 = PERSON_AND_ORGANIZATION_ROLE ( 'classification_officer' ) ;
#114 = DATE_TIME_ROLE ( 'creation_date' ) ;
#115 = LOCAL_TIME ( 18, 50, 1.000000000000000000, #139 ) ;
#116 = APPROVAL_STATUS ( 'not_yet_approved' ) ;
#117 = APPLICATION_PROTOCOL_DEFINITION ( 'international standard', 'config_control_design', 1994, #2 ) ;
#118 = APPROVAL_ROLE ( '' ) ;
#119 = ORGANIZATION ( 'NAUO-ORG395', 'UNSPECIFIED', 'UNSPECIFIED' ) ;
#120 = PROPERTY_DEFINITION_REPRESENTATION ( #33, #29 ) ;
#121 = LOCAL_TIME ( 18, 50, 1.000000000000000000, #147 ) ;
#122 = DIRECTION ( 'NONE',  ( 1.000000000000000000, 0.000000000000000000, 0.000000000000000000 ) ) ;
#123 = UNCERTAINTY_MEASURE_WITH_UNIT (LENGTH_MEASURE( 1.000000000000000082E-05 ), #62, 'distance_accuracy_value', 'NONE');
#124 = APPROVAL ( #41, 'Coincident' ) ;
#125 = COORDINATED_UNIVERSAL_TIME_OFFSET ( 10, 0, .AHEAD. ) ;
#126 =( GEOMETRIC_REPRESENTATION_CONTEXT ( 3 ) GLOBAL_UNCERTAINTY_ASSIGNED_CONTEXT ( ( #214 ) ) GLOBAL_UNIT_ASSIGNED_CONTEXT ( ( #204, #77, #157 ) ) REPRESENTATION_CONTEXT ( 'NONE', 'WORKASPACE' ) );
#127 = PERSON_AND_ORGANIZATION ( #18446744073709551615, #18446744073709551615 ) ;
#128 = PERSON_AND_ORGANIZATION_ROLE ( 'creator' ) ;
#129 = PERSON_AND_ORGANIZATION_ROLE ( 'classification_officer' ) ;
#130 = APPROVAL_DATE_TIME ( #95, #124 ) ;
#131 = APPROVAL_PERSON_ORGANIZATION ( #57, #169, #112 ) ;
#132 = SHAPE_REPRESENTATION ( 'eth-38658-2.1', ( #142, #185 ), #126 ) ;
#133 = APPROVAL_DATE_TIME ( #150, #26 ) ;
#134 = IDENTIFICATION_ROLE ( 'external document id and location', $) ;
#135 = DATE_TIME_ROLE ( 'classification_date' ) ;
#136 = CC_DESIGN_PERSON_AND_ORGANIZATION_ASSIGNMENT ( #182, #129, ( #90 ) ) ;
#137 = LOCAL_TIME ( 18, 50, 1.000000000000000000, #146 ) ;
#138 = SHAPE_DEFINITION_REPRESENTATION ( #21, #29 ) ;
#139 = COORDINATED_UNIVERSAL_TIME_OFFSET ( 10, 0, .AHEAD. ) ;
#140 =( NAMED_UNIT ( * ) SI_UNIT ( $, .STERADIAN. ) SOLID_ANGLE_UNIT ( ) );
#141 = CC_DESIGN_PERSON_AND_ORGANIZATION_ASSIGNMENT ( #89, #12, ( #105 ) ) ;
#142 = AXIS2_PLACEMENT_3D ( 'NONE', #205, #51, #19 ) ;
#143 = DATE_AND_TIME ( #78, #178 ) ;
#144 = MECHANICAL_CONTEXT ( 'NONE', #91, 'mechanical' ) ;
#145 = DATE_AND_TIME ( #180, #168 ) ;
#146 = COORDINATED_UNIVERSAL_TIME_OFFSET ( 10, 0, .AHEAD. ) ;
#147 = COORDINATED_UNIVERSAL_TIME_OFFSET ( 10, 0, .AHEAD. ) ;
#148 = PERSON_AND_ORGANIZATION_ROLE ( 'design_owner' ) ;
#149 = CC_DESIGN_PERSON_AND_ORGANIZATION_ASSIGNMENT ( #86, #69, ( #31 ) ) ;
#150 = DATE_AND_TIME ( #59, #137 ) ;
#151 = DATE_AND_TIME ( #72, #159 ) ;
#152 = APPROVAL_PERSON_ORGANIZATION ( #89, #193, #118 ) ;
#153 = CC_DESIGN_PERSON_AND_ORGANIZATION_ASSIGNMENT ( #47, #128, ( #203 ) ) ;
#154 = PRODUCT_DEFINITION_SHAPE ( 'NONE', 'NONE',  #215 ) ;
#155 = DIRECTION ( 'NONE',  ( 1.000000000000000222, -1.092455418989176591E-28, 4.890937612370273194E-29 ) ) ;
#156 = CC_DESIGN_PERSON_AND_ORGANIZATION_ASSIGNMENT ( #83, #197, ( #203 ) ) ;
#157 =( NAMED_UNIT ( * ) SI_UNIT ( $, .STERADIAN. ) SOLID_ANGLE_UNIT ( ) );
#158 = APPROVAL_ROLE ( '' ) ;
#159 = LOCAL_TIME ( 18, 50, 1.000000000000000000, #166 ) ;
#160 = SHAPE_DEFINITION_REPRESENTATION ( #107, #132 ) ;
#161 = APPROVAL_DATE_TIME ( #179, #169 ) ;
#162 = PERSON_AND_ORGANIZATION ( #18446744073709551615, #18446744073709551615 ) ;
#163 = CALENDAR_DATE ( 2026, 22, 6 ) ;
#164 = PRODUCT_DEFINITION ( 'General', '', #32, #58 ) ;
#165 = COORDINATED_UNIVERSAL_TIME_OFFSET ( 10, 0, .AHEAD. ) ;
#166 = COORDINATED_UNIVERSAL_TIME_OFFSET ( 10, 0, .AHEAD. ) ;
#167 = DOCUMENT_TYPE ( 'geometry' ) ;
#168 = LOCAL_TIME ( 18, 50, 1.000000000000000000, #39 ) ;
#169 = APPROVAL ( #116, 'Coincident' ) ;
#170 = DIRECTION ( 'NONE',  ( 4.890937612370273194E-29, -3.155443620884047222E-30, 0.9999999999999997780 ) ) ;
#171 = COORDINATED_UNIVERSAL_TIME_OFFSET ( 10, 0, .AHEAD. ) ;
#172 = LOCAL_TIME ( 18, 50, 1.000000000000000000, #20 ) ;
#173 = OBJECT_ROLE ('mandatory',$ ) ;
#174 = PERSON_AND_ORGANIZATION_ROLE ( 'creator' ) ;
#175 = CALENDAR_DATE ( 2026, 22, 6 ) ;
#176 = DATE_TIME_ROLE ( 'classification_date' ) ;
#177 = PRODUCT ( '38658-2.1.step', '38658-2.1.step', '', ( #196 ) ) ;
#178 = LOCAL_TIME ( 18, 50, 1.000000000000000000, #125 ) ;
#179 = DATE_AND_TIME ( #201, #172 ) ;
#180 = CALENDAR_DATE ( 2026, 22, 6 ) ;
#181 = DESIGN_CONTEXT ( 'detailed design', #101, 'design' ) ;
#182 = PERSON_AND_ORGANIZATION ( #18446744073709551615, #18446744073709551615 ) ;
#183 = PERSON ( 'NAUO-PER395', 'UNSPECIFIED', 'UNSPECIFIED', ('UNSPECIFIED'), ('UNSPECIFIED'), ('UNSPECIFIED') ) ;
#184 = DATE_AND_TIME ( #11, #115 ) ;
#185 = AXIS2_PLACEMENT_3D ( 'NONE', #108, #170, #155 ) ;
#186 = CONTEXT_DEPENDENT_SHAPE_REPRESENTATION ( #76, #154 ) ;
#187 = CC_DESIGN_PERSON_AND_ORGANIZATION_ASSIGNMENT ( #25, #148, ( #177 ) ) ;
#188 = AXIS2_PLACEMENT_3D ( 'NONE', #111, #190, #122 ) ;
#189 = LOCAL_TIME ( 18, 50, 1.000000000000000000, #171 ) ;
#190 = DIRECTION ( 'NONE',  ( 0.000000000000000000, 0.000000000000000000, 1.000000000000000000 ) ) ;
#191 = CC_DESIGN_DATE_AND_TIME_ASSIGNMENT ( #52, #114, ( #31 ) ) ;
#192 = PERSON_AND_ORGANIZATION ( #18446744073709551615, #18446744073709551615 ) ;
#193 = APPROVAL ( #8, 'UNKNOWN' ) ;
#194 = PERSON_AND_ORGANIZATION ( #18446744073709551615, #18446744073709551615 ) ;
#195 = CC_DESIGN_APPROVAL ( #10, ( #164 ) ) ;
#196 = MECHANICAL_CONTEXT ( 'NONE', #2, 'mechanical' ) ;
#197 = PERSON_AND_ORGANIZATION_ROLE ( 'design_supplier' ) ;
#198 = SECURITY_CLASSIFICATION_LEVEL ( 'unclassified' ) ;
#199 = APPROVAL_PERSON_ORGANIZATION ( #192, #14, #50 ) ;
#200 = APPLICATION_PROTOCOL_DEFINITION ( 'international standard', 'config_control_design', 1994, #101 ) ;
#201 = CALENDAR_DATE ( 2026, 22, 6 ) ;
#202 = APPLICATION_CONTEXT ( 'configuration controlled 3d designs of mechanical parts and assemblies' ) ;
#203 = PRODUCT_DEFINITION_FORMATION_WITH_SPECIFIED_SOURCE ( 'Symmetric', '', #177, .NOT_KNOWN. ) ;
#204 =( LENGTH_UNIT ( ) NAMED_UNIT ( * ) SI_UNIT ( .MILLI., .METRE. ) );
#205 = CARTESIAN_POINT ( 'NONE',  ( 0.000000000000000000, 0.000000000000000000, 0.000000000000000000 ) ) ;
#206 = APPROVAL ( #212, 'Coincident' ) ;
#207 = PROPERTY_DEFINITION ('document property','', #15 ) ;
#208 = APPLICATION_PROTOCOL_DEFINITION ( 'international standard', 'config_control_design', 1994, #91 ) ;
#209 = CC_DESIGN_APPROVAL ( #169, ( #31 ) ) ;
#210 = DATE_TIME_ROLE ( 'creation_date' ) ;
#211 = APPROVAL_DATE_TIME ( #61, #10 ) ;
#212 = APPROVAL_STATUS ( 'not_yet_approved' ) ;
#213 = APPROVAL_PERSON_ORGANIZATION ( #127, #124, #85 ) ;
#214 = UNCERTAINTY_MEASURE_WITH_UNIT (LENGTH_MEASURE( 1.000000000000000082E-05 ), #204, 'distance_accuracy_value', 'NONE');
#215 = NEXT_ASSEMBLY_USAGE_OCCURRENCE ( 'NAUO395', ' ', ' ', #164, #31, $ ) ;
ENDSEC;
END-ISO-10303-21;
