ISO-10303-21;
HEADER;
FILE_DESCRIPTION (( 'STEP AP203' ),
    '1' );
FILE_NAME ('EVAFOAM.STEP',
    '2026-06-22T08:50:25',
    ( 'localuser' ),
    ( '' ),
    'SwSTEP 2.0',
    'SolidWorks 2025',
    '' );
FILE_SCHEMA (( 'CONFIG_CONTROL_DESIGN' ));
ENDSEC;

DATA;
#1 = LINE ( 'NONE', #77, #41 ) ;
#2 = EDGE_CURVE ( 'NONE', #211, #32, #122, .T. ) ;
#3 = CARTESIAN_POINT ( 'NONE',  ( -100.3346569289670356, 60.00000000000000000, -24.05140056914266822 ) ) ;
#4 = APPROVAL_DATE_TIME ( #112, #47 ) ;
#5 = CARTESIAN_POINT ( 'NONE',  ( 149.6653430710329644, 60.00000000000000000, -24.05140056914270019 ) ) ;
#6 = PLANE ( 'NONE',  #8 ) ;
#7 = LINE ( 'NONE', #78, #181 ) ;
#8 = AXIS2_PLACEMENT_3D ( 'NONE', #82, #80, #159 ) ;
#9 = ADVANCED_FACE ( 'NONE', ( #45 ), #6, .T. ) ;
#10 = PERSON_AND_ORGANIZATION_ROLE ( 'creator' ) ;
#11 = CARTESIAN_POINT ( 'NONE',  ( 0.000000000000000000, 0.000000000000000000, 0.000000000000000000 ) ) ;
#12 = CARTESIAN_POINT ( 'NONE',  ( 149.6653430710329644, 0.000000000000000000, -24.05140056914270019 ) ) ;
#13 = AXIS2_PLACEMENT_3D ( 'NONE', #223, #62, #140 ) ;
#14 = DIRECTION ( 'NONE',  ( 1.000000000000000000, 0.000000000000000000, 0.000000000000000000 ) ) ;
#15 = EDGE_LOOP ( 'NONE', ( #132, #195, #117, #213 ) ) ;
#16 = APPROVAL ( #104, 'Coincident' ) ;
#17 = APPROVAL_ROLE ( '' ) ;
#18 = AXIS2_PLACEMENT_3D ( 'NONE', #11, #231, #14 ) ;
#19 = DIRECTION ( 'NONE',  ( 0.000000000000000000, 0.000000000000000000, -1.000000000000000000 ) ) ;
#20 = DESIGN_CONTEXT ( 'detailed design', #40, 'design' ) ;
#21 = CARTESIAN_POINT ( 'NONE',  ( 149.6653430710329644, 60.00000000000000000, 0.000000000000000000 ) ) ;
#22 = LINE ( 'NONE', #189, #91 ) ;
#23 = LOCAL_TIME ( 18, 50, 25.00000000000000000, #218 ) ;
#24 = LINE ( 'NONE', #99, #54 ) ;
#25 = DIRECTION ( 'NONE',  ( 1.000000000000000000, -0.000000000000000000, 0.000000000000000000 ) ) ;
#26 = EDGE_CURVE ( 'NONE', #211, #182, #22, .T. ) ;
#27 = APPLICATION_CONTEXT ( 'configuration controlled 3d designs of mechanical parts and assemblies' ) ;
#28 = DIRECTION ( 'NONE',  ( -1.000000000000000000, 0.000000000000000000, 1.301042606982605321E-16 ) ) ;
#29 = COORDINATED_UNIVERSAL_TIME_OFFSET ( 10, 0, .AHEAD. ) ;
#30 = ORIENTED_EDGE ( 'NONE', *, *, #52, .T. ) ;
#31 = DATE_AND_TIME ( #191, #44 ) ;
#32 = VERTEX_POINT ( 'NONE', #185 ) ;
#33 = EDGE_CURVE ( 'NONE', #199, #123, #7, .T. ) ;
#34 = DATE_AND_TIME ( #136, #23 ) ;
#35 = CARTESIAN_POINT ( 'NONE',  ( -100.3346569289670356, 60.00000000000000000, -74.05140056914270019 ) ) ;
#36 = PRODUCT_DEFINITION_SHAPE ( 'NONE', 'NONE',  #61 ) ;
#37 = PERSON_AND_ORGANIZATION ( #18446744073709551615, #18446744073709551615 ) ;
#38 = DIRECTION ( 'NONE',  ( -0.000000000000000000, -1.000000000000000000, -0.000000000000000000 ) ) ;
#39 = LINE ( 'NONE', #21, #141 ) ;
#40 = APPLICATION_CONTEXT ( 'configuration controlled 3d designs of mechanical parts and assemblies' ) ;
#41 = VECTOR ( 'NONE', #225, 1000.000000000000000 ) ;
#42 = ADVANCED_FACE ( 'NONE', ( #83 ), #173, .T. ) ;
#43 = DIRECTION ( 'NONE',  ( 0.000000000000000000, 0.000000000000000000, -1.000000000000000000 ) ) ;
#44 = LOCAL_TIME ( 18, 50, 25.00000000000000000, #107 ) ;
#45 = FACE_OUTER_BOUND ( 'NONE', #152, .T. ) ;
#46 = VECTOR ( 'NONE', #43, 1000.000000000000000 ) ;
#47 = APPROVAL ( #147, 'Coincident' ) ;
#48 = CC_DESIGN_APPROVAL ( #47, ( #111 ) ) ;
#49 = APPLICATION_PROTOCOL_DEFINITION ( 'international standard', 'config_control_design', 1994, #27 ) ;
#50 = ORIENTED_EDGE ( 'NONE', *, *, #26, .F. ) ;
#51 = DIRECTION ( 'NONE',  ( -0.000000000000000000, -1.000000000000000000, -0.000000000000000000 ) ) ;
#52 = EDGE_CURVE ( 'NONE', #211, #121, #1, .T. ) ;
#53 = LINE ( 'NONE', #196, #198 ) ;
#54 = VECTOR ( 'NONE', #175, 1000.000000000000000 ) ;
#55 = SECURITY_CLASSIFICATION_LEVEL ( 'unclassified' ) ;
#56 = CARTESIAN_POINT ( 'NONE',  ( 0.000000000000000000, 60.00000000000000000, -74.05140056914270019 ) ) ;
#57 = ADVANCED_FACE ( 'NONE', ( #155 ), #221, .T. ) ;
#58 = APPROVAL_DATE_TIME ( #203, #86 ) ;
#59 = LINE ( 'NONE', #138, #87 ) ;
#60 = DIRECTION ( 'NONE',  ( -0.000000000000000000, -1.000000000000000000, -0.000000000000000000 ) ) ;
#61 = PRODUCT_DEFINITION ( 'General', '', #111, #20 ) ;
#62 = DIRECTION ( 'NONE',  ( 0.000000000000000000, 1.000000000000000000, -0.000000000000000000 ) ) ;
#63 = ORIENTED_EDGE ( 'NONE', *, *, #81, .F. ) ;
#64 = VECTOR ( 'NONE', #168, 1000.000000000000000 ) ;
#65 = EDGE_CURVE ( 'NONE', #182, #199, #201, .T. ) ;
#66 = CC_DESIGN_APPROVAL ( #16, ( #61 ) ) ;
#67 =( LENGTH_UNIT ( ) NAMED_UNIT ( * ) SI_UNIT ( .MILLI., .METRE. ) );
#68 = DATE_TIME_ROLE ( 'creation_date' ) ;
#69 = PERSON_AND_ORGANIZATION ( #18446744073709551615, #18446744073709551615 ) ;
#70 = ORIENTED_EDGE ( 'NONE', *, *, #33, .F. ) ;
#71 = ADVANCED_FACE ( 'NONE', ( #156 ), #160, .F. ) ;
#72 = CARTESIAN_POINT ( 'NONE',  ( 149.6653430710329644, 60.00000000000000000, -74.05140056914270019 ) ) ;
#73 = CALENDAR_DATE ( 2026, 22, 6 ) ;
#74 = ORIENTED_EDGE ( 'NONE', *, *, #119, .T. ) ;
#75 = PERSON_AND_ORGANIZATION ( #18446744073709551615, #18446744073709551615 ) ;
#76 = PRODUCT_RELATED_PRODUCT_CATEGORY ( 'detail', '', ( #134 ) ) ;
#77 = CARTESIAN_POINT ( 'NONE',  ( -3.129189689806031260E-15, 60.00000000000000000, -24.05140056914268243 ) ) ;
#78 = CARTESIAN_POINT ( 'NONE',  ( 0.000000000000000000, 0.000000000000000000, -74.05140056914270019 ) ) ;
#79 = APPROVAL_PERSON_ORGANIZATION ( #88, #47, #146 ) ;
#80 = DIRECTION ( 'NONE',  ( 0.000000000000000000, 1.000000000000000000, -0.000000000000000000 ) ) ;
#81 = EDGE_CURVE ( 'NONE', #32, #199, #222, .T. ) ;
#82 = CARTESIAN_POINT ( 'NONE',  ( 0.000000000000000000, 60.00000000000000000, 0.000000000000000000 ) ) ;
#83 = FACE_OUTER_BOUND ( 'NONE', #15, .T. ) ;
#84 = DIRECTION ( 'NONE',  ( 0.000000000000000000, 0.000000000000000000, 1.000000000000000000 ) ) ;
#85 = LOCAL_TIME ( 18, 50, 25.00000000000000000, #29 ) ;
#86 = APPROVAL ( #118, 'Coincident' ) ;
#87 = VECTOR ( 'NONE', #204, 1000.000000000000000 ) ;
#88 = PERSON_AND_ORGANIZATION ( #18446744073709551615, #18446744073709551615 ) ;
#89 = PLANE ( 'NONE',  #216 ) ;
#90 = CARTESIAN_POINT ( 'NONE',  ( -3.129189689806031260E-15, 60.00000000000000000, -24.05140056914268243 ) ) ;
#91 = VECTOR ( 'NONE', #19, 1000.000000000000000 ) ;
#92 = PLANE ( 'NONE',  #161 ) ;
#93 = SHAPE_DEFINITION_REPRESENTATION ( #36, #131 ) ;
#94 = ORIENTED_EDGE ( 'NONE', *, *, #103, .F. ) ;
#95 = PERSON_AND_ORGANIZATION_ROLE ( 'design_supplier' ) ;
#96 = MANIFOLD_SOLID_BREP ( 'Boss-Extrude1', #133 ) ;
#97 = COORDINATED_UNIVERSAL_TIME_OFFSET ( 10, 0, .AHEAD. ) ;
#98 = ORIENTED_EDGE ( 'NONE', *, *, #190, .F. ) ;
#99 = CARTESIAN_POINT ( 'NONE',  ( 149.6653430710329644, 0.000000000000000000, -0.000000000000000000 ) ) ;
#100 = ORIENTED_EDGE ( 'NONE', *, *, #227, .F. ) ;
#101 = FACE_OUTER_BOUND ( 'NONE', #234, .T. ) ;
#102 = LOCAL_TIME ( 18, 50, 25.00000000000000000, #97 ) ;
#103 = EDGE_CURVE ( 'NONE', #150, #121, #39, .T. ) ;
#104 = APPROVAL_STATUS ( 'not_yet_approved' ) ;
#105 = APPROVAL_PERSON_ORGANIZATION ( #75, #86, #17 ) ;
#106 = CARTESIAN_POINT ( 'NONE',  ( -100.3346569289670356, 60.00000000000000000, -74.05140056914270019 ) ) ;
#107 = COORDINATED_UNIVERSAL_TIME_OFFSET ( 10, 0, .AHEAD. ) ;
#108 = ORIENTED_EDGE ( 'NONE', *, *, #65, .F. ) ;
#109 = LINE ( 'NONE', #179, #64 ) ;
#110 = CC_DESIGN_PERSON_AND_ORGANIZATION_ASSIGNMENT ( #172, #183, ( #210 ) ) ;
#111 = PRODUCT_DEFINITION_FORMATION_WITH_SPECIFIED_SOURCE ( 'Symmetric', '', #134, .NOT_KNOWN. ) ;
#112 = DATE_AND_TIME ( #73, #85 ) ;
#113 = EDGE_LOOP ( 'NONE', ( #70, #108, #208, #206 ) ) ;
#114 = PERSON_AND_ORGANIZATION_ROLE ( 'creator' ) ;
#115 = EDGE_CURVE ( 'NONE', #32, #174, #59, .T. ) ;
#116 = CALENDAR_DATE ( 2026, 22, 6 ) ;
#117 = ORIENTED_EDGE ( 'NONE', *, *, #103, .T. ) ;
#118 = APPROVAL_STATUS ( 'not_yet_approved' ) ;
#119 = EDGE_CURVE ( 'NONE', #123, #174, #24, .T. ) ;
#120 = ORIENTED_EDGE ( 'NONE', *, *, #33, .T. ) ;
#121 = VERTEX_POINT ( 'NONE', #5 ) ;
#122 = LINE ( 'NONE', #3, #184 ) ;
#123 = VERTEX_POINT ( 'NONE', #139 ) ;
#124 = AXIS2_PLACEMENT_3D ( 'NONE', #224, #178, #158 ) ;
#125 = APPLICATION_PROTOCOL_DEFINITION ( 'international standard', 'config_control_design', 1994, #40 ) ;
#126 =( NAMED_UNIT ( * ) PLANE_ANGLE_UNIT ( ) SI_UNIT ( $, .RADIAN. ) );
#127 = FACE_OUTER_BOUND ( 'NONE', #177, .T. ) ;
#128 = ORIENTED_EDGE ( 'NONE', *, *, #115, .F. ) ;
#129 = CARTESIAN_POINT ( 'NONE',  ( -100.3346569289670356, 0.000000000000000000, -74.05140056914270019 ) ) ;
#130 = ORIENTED_EDGE ( 'NONE', *, *, #52, .F. ) ;
#131 = ADVANCED_BREP_SHAPE_REPRESENTATION ( 'EVAFOAM', ( #96, #18 ), #226 ) ;
#132 = ORIENTED_EDGE ( 'NONE', *, *, #119, .F. ) ;
#133 = CLOSED_SHELL ( 'NONE', ( #153, #42, #57, #157, #9, #71 ) ) ;
#134 = PRODUCT ( 'EVAFOAM', 'EVAFOAM', '', ( #212 ) ) ;
#135 = ORIENTED_EDGE ( 'NONE', *, *, #115, .T. ) ;
#136 = CALENDAR_DATE ( 2026, 22, 6 ) ;
#137 = DIRECTION ( 'NONE',  ( -1.000000000000000000, 0.000000000000000000, -0.000000000000000000 ) ) ;
#138 = CARTESIAN_POINT ( 'NONE',  ( -3.129189689806031260E-15, 0.000000000000000000, -24.05140056914268243 ) ) ;
#139 = CARTESIAN_POINT ( 'NONE',  ( 149.6653430710329644, 0.000000000000000000, -74.05140056914270019 ) ) ;
#140 = DIRECTION ( 'NONE',  ( 0.000000000000000000, 0.000000000000000000, 1.000000000000000000 ) ) ;
#141 = VECTOR ( 'NONE', #188, 1000.000000000000000 ) ;
#142 = CC_DESIGN_DATE_AND_TIME_ASSIGNMENT ( #34, #200, ( #210 ) ) ;
#143 = ORIENTED_EDGE ( 'NONE', *, *, #2, .F. ) ;
#144 = LINE ( 'NONE', #72, #176 ) ;
#145 = CC_DESIGN_PERSON_AND_ORGANIZATION_ASSIGNMENT ( #169, #228, ( #134 ) ) ;
#146 = APPROVAL_ROLE ( '' ) ;
#147 = APPROVAL_STATUS ( 'not_yet_approved' ) ;
#148 = APPROVAL_PERSON_ORGANIZATION ( #235, #16, #166 ) ;
#149 = DIRECTION ( 'NONE',  ( -1.000000000000000000, 0.000000000000000000, 0.000000000000000000 ) ) ;
#150 = VERTEX_POINT ( 'NONE', #205 ) ;
#151 = DIRECTION ( 'NONE',  ( -1.301042606982605321E-16, 0.000000000000000000, -1.000000000000000000 ) ) ;
#152 = EDGE_LOOP ( 'NONE', ( #30, #94, #100, #50 ) ) ;
#153 = ADVANCED_FACE ( 'NONE', ( #101 ), #89, .F. ) ;
#154 = ORIENTED_EDGE ( 'NONE', *, *, #26, .T. ) ;
#155 = FACE_OUTER_BOUND ( 'NONE', #113, .T. ) ;
#156 = FACE_OUTER_BOUND ( 'NONE', #197, .T. ) ;
#157 = ADVANCED_FACE ( 'NONE', ( #127 ), #92, .T. ) ;
#158 = DIRECTION ( 'NONE',  ( 0.000000000000000000, 0.000000000000000000, -1.000000000000000000 ) ) ;
#159 = DIRECTION ( 'NONE',  ( 0.000000000000000000, 0.000000000000000000, 1.000000000000000000 ) ) ;
#160 = PLANE ( 'NONE',  #13 ) ;
#161 = AXIS2_PLACEMENT_3D ( 'NONE', #180, #149, #84 ) ;
#162 = CC_DESIGN_APPROVAL ( #86, ( #210 ) ) ;
#163 = DIRECTION ( 'NONE',  ( 1.000000000000000000, -0.000000000000000000, 0.000000000000000000 ) ) ;
#164 = EDGE_CURVE ( 'NONE', #150, #123, #144, .T. ) ;
#165 = VECTOR ( 'NONE', #38, 1000.000000000000000 ) ;
#166 = APPROVAL_ROLE ( '' ) ;
#167 = CALENDAR_DATE ( 2026, 22, 6 ) ;
#168 = DIRECTION ( 'NONE',  ( -0.000000000000000000, -1.000000000000000000, -0.000000000000000000 ) ) ;
#169 = PERSON_AND_ORGANIZATION ( #18446744073709551615, #18446744073709551615 ) ;
#170 = ORIENTED_EDGE ( 'NONE', *, *, #2, .T. ) ;
#171 = AXIS2_PLACEMENT_3D ( 'NONE', #56, #187, #137 ) ;
#172 = PERSON_AND_ORGANIZATION ( #18446744073709551615, #18446744073709551615 ) ;
#173 = PLANE ( 'NONE',  #124 ) ;
#174 = VERTEX_POINT ( 'NONE', #12 ) ;
#175 = DIRECTION ( 'NONE',  ( 0.000000000000000000, 0.000000000000000000, 1.000000000000000000 ) ) ;
#176 = VECTOR ( 'NONE', #51, 1000.000000000000000 ) ;
#177 = EDGE_LOOP ( 'NONE', ( #63, #143, #154, #215 ) ) ;
#178 = DIRECTION ( 'NONE',  ( 1.000000000000000000, 0.000000000000000000, 0.000000000000000000 ) ) ;
#179 = CARTESIAN_POINT ( 'NONE',  ( 149.6653430710329644, 60.00000000000000000, -24.05140056914270019 ) ) ;
#180 = CARTESIAN_POINT ( 'NONE',  ( -100.3346569289670356, 60.00000000000000000, 0.000000000000000000 ) ) ;
#181 = VECTOR ( 'NONE', #25, 1000.000000000000000 ) ;
#182 = VERTEX_POINT ( 'NONE', #106 ) ;
#183 = PERSON_AND_ORGANIZATION_ROLE ( 'classification_officer' ) ;
#184 = VECTOR ( 'NONE', #60, 1000.000000000000000 ) ;
#185 = CARTESIAN_POINT ( 'NONE',  ( -100.3346569289670356, 0.000000000000000000, -24.05140056914266822 ) ) ;
#186 = CARTESIAN_POINT ( 'NONE',  ( -100.3346569289670356, 0.000000000000000000, -0.000000000000000000 ) ) ;
#187 = DIRECTION ( 'NONE',  ( 0.000000000000000000, 0.000000000000000000, -1.000000000000000000 ) ) ;
#188 = DIRECTION ( 'NONE',  ( 0.000000000000000000, 0.000000000000000000, 1.000000000000000000 ) ) ;
#189 = CARTESIAN_POINT ( 'NONE',  ( -100.3346569289670356, 60.00000000000000000, 0.000000000000000000 ) ) ;
#190 = EDGE_CURVE ( 'NONE', #121, #174, #109, .T. ) ;
#191 = CALENDAR_DATE ( 2026, 22, 6 ) ;
#192 = CC_DESIGN_PERSON_AND_ORGANIZATION_ASSIGNMENT ( #69, #10, ( #61 ) ) ;
#193 = APPROVAL_DATE_TIME ( #31, #16 ) ;
#194 = COORDINATED_UNIVERSAL_TIME_OFFSET ( 10, 0, .AHEAD. ) ;
#195 = ORIENTED_EDGE ( 'NONE', *, *, #164, .F. ) ;
#196 = CARTESIAN_POINT ( 'NONE',  ( 0.000000000000000000, 60.00000000000000000, -74.05140056914270019 ) ) ;
#197 = EDGE_LOOP ( 'NONE', ( #128, #217, #120, #74 ) ) ;
#198 = VECTOR ( 'NONE', #163, 1000.000000000000000 ) ;
#199 = VERTEX_POINT ( 'NONE', #129 ) ;
#200 = DATE_TIME_ROLE ( 'classification_date' ) ;
#201 = LINE ( 'NONE', #35, #165 ) ;
#202 = UNCERTAINTY_MEASURE_WITH_UNIT (LENGTH_MEASURE( 1.000000000000000082E-05 ), #67, 'distance_accuracy_value', 'NONE');
#203 = DATE_AND_TIME ( #116, #102 ) ;
#204 = DIRECTION ( 'NONE',  ( 1.000000000000000000, 0.000000000000000000, -1.301042606982605321E-16 ) ) ;
#205 = CARTESIAN_POINT ( 'NONE',  ( 149.6653430710329644, 60.00000000000000000, -74.05140056914270019 ) ) ;
#206 = ORIENTED_EDGE ( 'NONE', *, *, #164, .T. ) ;
#207 = CC_DESIGN_SECURITY_CLASSIFICATION ( #210, ( #111 ) ) ;
#208 = ORIENTED_EDGE ( 'NONE', *, *, #227, .T. ) ;
#209 = CC_DESIGN_DATE_AND_TIME_ASSIGNMENT ( #232, #68, ( #61 ) ) ;
#210 = SECURITY_CLASSIFICATION ( '', '', #55 ) ;
#211 = VERTEX_POINT ( 'NONE', #214 ) ;
#212 = MECHANICAL_CONTEXT ( 'NONE', #27, 'mechanical' ) ;
#213 = ORIENTED_EDGE ( 'NONE', *, *, #190, .T. ) ;
#214 = CARTESIAN_POINT ( 'NONE',  ( -100.3346569289670356, 60.00000000000000000, -24.05140056914266822 ) ) ;
#215 = ORIENTED_EDGE ( 'NONE', *, *, #65, .T. ) ;
#216 = AXIS2_PLACEMENT_3D ( 'NONE', #90, #151, #28 ) ;
#217 = ORIENTED_EDGE ( 'NONE', *, *, #81, .T. ) ;
#218 = COORDINATED_UNIVERSAL_TIME_OFFSET ( 10, 0, .AHEAD. ) ;
#219 = CC_DESIGN_PERSON_AND_ORGANIZATION_ASSIGNMENT ( #220, #95, ( #111 ) ) ;
#220 = PERSON_AND_ORGANIZATION ( #18446744073709551615, #18446744073709551615 ) ;
#221 = PLANE ( 'NONE',  #171 ) ;
#222 = LINE ( 'NONE', #186, #46 ) ;
#223 = CARTESIAN_POINT ( 'NONE',  ( 0.000000000000000000, 0.000000000000000000, 0.000000000000000000 ) ) ;
#224 = CARTESIAN_POINT ( 'NONE',  ( 149.6653430710329644, 60.00000000000000000, 0.000000000000000000 ) ) ;
#225 = DIRECTION ( 'NONE',  ( 1.000000000000000000, 0.000000000000000000, -1.301042606982605321E-16 ) ) ;
#226 =( GEOMETRIC_REPRESENTATION_CONTEXT ( 3 ) GLOBAL_UNCERTAINTY_ASSIGNED_CONTEXT ( ( #202 ) ) GLOBAL_UNIT_ASSIGNED_CONTEXT ( ( #67, #126, #233 ) ) REPRESENTATION_CONTEXT ( 'NONE', 'WORKASPACE' ) );
#227 = EDGE_CURVE ( 'NONE', #182, #150, #53, .T. ) ;
#228 = PERSON_AND_ORGANIZATION_ROLE ( 'design_owner' ) ;
#229 = CC_DESIGN_PERSON_AND_ORGANIZATION_ASSIGNMENT ( #37, #114, ( #111 ) ) ;
#230 = LOCAL_TIME ( 18, 50, 25.00000000000000000, #194 ) ;
#231 = DIRECTION ( 'NONE',  ( 0.000000000000000000, 0.000000000000000000, 1.000000000000000000 ) ) ;
#232 = DATE_AND_TIME ( #167, #230 ) ;
#233 =( NAMED_UNIT ( * ) SI_UNIT ( $, .STERADIAN. ) SOLID_ANGLE_UNIT ( ) );
#234 = EDGE_LOOP ( 'NONE', ( #135, #98, #130, #170 ) ) ;
#235 = PERSON_AND_ORGANIZATION ( #18446744073709551615, #18446744073709551615 ) ;
ENDSEC;
END-ISO-10303-21;
