ISO-10303-21;
HEADER;
FILE_DESCRIPTION (( 'STEP AP203' ),
    '1' );
FILE_NAME ('Extruded-2.step.STEP',
    '2026-06-22T08:49:53',
    ( 'localuser' ),
    ( '' ),
    'SwSTEP 2.0',
    'SolidWorks 2025',
    '' );
FILE_SCHEMA (( 'CONFIG_CONTROL_DESIGN' ));
ENDSEC;

DATA;
#1 = SECURITY_CLASSIFICATION_LEVEL ( 'unclassified' ) ;
#2 = COORDINATED_UNIVERSAL_TIME_OFFSET ( 10, 0, .AHEAD. ) ;
#3 = DIRECTION ( 'NONE',  ( -1.000000000000000000, 0.000000000000000000, 0.000000000000000000 ) ) ;
#4 = DIRECTION ( 'NONE',  ( 0.000000000000000000, 1.000000000000000000, 0.000000000000000000 ) ) ;
#5 = ORIENTED_EDGE ( 'NONE', *, *, #30, .T. ) ;
#6 = CC_DESIGN_DATE_AND_TIME_ASSIGNMENT ( #22, #41, ( #8 ) ) ;
#7 = CLOSED_SHELL ( 'NONE', ( #21, #190, #132, #173, #218, #61 ) ) ;
#8 = SECURITY_CLASSIFICATION ( '', '', #1 ) ;
#9 = ORIENTED_EDGE ( 'NONE', *, *, #57, .T. ) ;
#10 = ORIENTED_EDGE ( 'NONE', *, *, #160, .F. ) ;
#11 = CARTESIAN_POINT ( 'NONE',  ( -0.6500012400000000357, -0.1249984800000000090, 0.000000000000000000 ) ) ;
#12 = CARTESIAN_POINT ( 'NONE',  ( 0.6500012400000000357, -0.1249984800000000090, 0.4999989999999999712 ) ) ;
#13 =( NAMED_UNIT ( * ) PLANE_ANGLE_UNIT ( ) SI_UNIT ( $, .RADIAN. ) );
#14 = ORIENTED_EDGE ( 'NONE', *, *, #75, .F. ) ;
#15 = PLANE ( 'NONE',  #97 ) ;
#16 = FACE_OUTER_BOUND ( 'NONE', #158, .T. ) ;
#17 = EDGE_LOOP ( 'NONE', ( #9, #27, #189, #191 ) ) ;
#18 = DIRECTION ( 'NONE',  ( 0.000000000000000000, 0.000000000000000000, 1.000000000000000000 ) ) ;
#19 = APPROVAL_DATE_TIME ( #24, #220 ) ;
#20 = EDGE_LOOP ( 'NONE', ( #232, #175, #156, #40 ) ) ;
#21 = ADVANCED_FACE ( 'NONE', ( #221 ), #154, .T. ) ;
#22 = DATE_AND_TIME ( #142, #143 ) ;
#23 = VECTOR ( 'NONE', #229, 1000.000000000000000 ) ;
#24 = DATE_AND_TIME ( #36, #88 ) ;
#25 = DIRECTION ( 'NONE',  ( -1.000000000000000000, 0.000000000000000000, 0.000000000000000000 ) ) ;
#26 = PERSON_AND_ORGANIZATION_ROLE ( 'classification_officer' ) ;
#27 = ORIENTED_EDGE ( 'NONE', *, *, #160, .T. ) ;
#28 = CC_DESIGN_PERSON_AND_ORGANIZATION_ASSIGNMENT ( #35, #103, ( #111 ) ) ;
#29 = CC_DESIGN_APPROVAL ( #147, ( #111 ) ) ;
#30 = EDGE_CURVE ( 'NONE', #129, #47, #210, .T. ) ;
#31 = ORIENTED_EDGE ( 'NONE', *, *, #71, .T. ) ;
#32 = LINE ( 'NONE', #34, #196 ) ;
#33 = CALENDAR_DATE ( 2026, 22, 6 ) ;
#34 = CARTESIAN_POINT ( 'NONE',  ( -0.6500012400000000357, -0.1249984800000000090, 0.4999989999999999712 ) ) ;
#35 = PERSON_AND_ORGANIZATION ( #18446744073709551615, #18446744073709551615 ) ;
#36 = CALENDAR_DATE ( 2026, 22, 6 ) ;
#37 = VECTOR ( 'NONE', #25, 1000.000000000000000 ) ;
#38 = CC_DESIGN_PERSON_AND_ORGANIZATION_ASSIGNMENT ( #195, #63, ( #146 ) ) ;
#39 = DATE_AND_TIME ( #199, #102 ) ;
#40 = ORIENTED_EDGE ( 'NONE', *, *, #54, .T. ) ;
#41 = DATE_TIME_ROLE ( 'classification_date' ) ;
#42 = VERTEX_POINT ( 'NONE', #130 ) ;
#43 = APPROVAL_STATUS ( 'not_yet_approved' ) ;
#44 = MANIFOLD_SOLID_BREP ( 'Extruded[1]', #7 ) ;
#45 = DIRECTION ( 'NONE',  ( 0.000000000000000000, 0.000000000000000000, 1.000000000000000000 ) ) ;
#46 = LINE ( 'NONE', #114, #157 ) ;
#47 = VERTEX_POINT ( 'NONE', #12 ) ;
#48 = CC_DESIGN_PERSON_AND_ORGANIZATION_ASSIGNMENT ( #84, #26, ( #8 ) ) ;
#49 = VECTOR ( 'NONE', #233, 1000.000000000000000 ) ;
#50 =( LENGTH_UNIT ( ) NAMED_UNIT ( * ) SI_UNIT ( .MILLI., .METRE. ) );
#51 = CARTESIAN_POINT ( 'NONE',  ( -0.6500012400000000357, 0.1250010199999999905, 0.000000000000000000 ) ) ;
#52 = VERTEX_POINT ( 'NONE', #209 ) ;
#53 = DIRECTION ( 'NONE',  ( 1.000000000000000000, 0.000000000000000000, 0.000000000000000000 ) ) ;
#54 = EDGE_CURVE ( 'NONE', #47, #171, #46, .T. ) ;
#55 = VECTOR ( 'NONE', #18, 1000.000000000000000 ) ;
#56 = CARTESIAN_POINT ( 'NONE',  ( -0.6500012400000000357, -0.1249984800000000090, 0.000000000000000000 ) ) ;
#57 = EDGE_CURVE ( 'NONE', #187, #42, #82, .T. ) ;
#58 = VECTOR ( 'NONE', #121, 1000.000000000000000 ) ;
#59 = COORDINATED_UNIVERSAL_TIME_OFFSET ( 10, 0, .AHEAD. ) ;
#60 = FACE_OUTER_BOUND ( 'NONE', #17, .T. ) ;
#61 = ADVANCED_FACE ( 'NONE', ( #60 ), #92, .F. ) ;
#62 = ORIENTED_EDGE ( 'NONE', *, *, #155, .F. ) ;
#63 = PERSON_AND_ORGANIZATION_ROLE ( 'design_owner' ) ;
#64 = CC_DESIGN_PERSON_AND_ORGANIZATION_ASSIGNMENT ( #184, #198, ( #79 ) ) ;
#65 = LINE ( 'NONE', #151, #23 ) ;
#66 = LOCAL_TIME ( 18, 49, 53.00000000000000000, #193 ) ;
#67 = PLANE ( 'NONE',  #148 ) ;
#68 = CC_DESIGN_SECURITY_CLASSIFICATION ( #8, ( #79 ) ) ;
#69 = CARTESIAN_POINT ( 'NONE',  ( -7.100046240970999971E-15, 1.269999984287000026E-06, 0.000000000000000000 ) ) ;
#70 = ORIENTED_EDGE ( 'NONE', *, *, #54, .F. ) ;
#71 = EDGE_CURVE ( 'NONE', #129, #187, #109, .T. ) ;
#72 = APPROVAL_ROLE ( '' ) ;
#73 = EDGE_LOOP ( 'NONE', ( #152, #5, #170, #161 ) ) ;
#74 = APPLICATION_CONTEXT ( 'configuration controlled 3d designs of mechanical parts and assemblies' ) ;
#75 = EDGE_CURVE ( 'NONE', #234, #52, #144, .T. ) ;
#76 = LINE ( 'NONE', #56, #167 ) ;
#77 = COORDINATED_UNIVERSAL_TIME_OFFSET ( 10, 0, .AHEAD. ) ;
#78 = CARTESIAN_POINT ( 'NONE',  ( 0.6500012400000000357, -0.1249984800000000090, 0.000000000000000000 ) ) ;
#79 = PRODUCT_DEFINITION_FORMATION_WITH_SPECIFIED_SOURCE ( 'Symmetric', '', #146, .NOT_KNOWN. ) ;
#80 = DIRECTION ( 'NONE',  ( 1.000000000000000000, 0.000000000000000000, 0.000000000000000000 ) ) ;
#81 = APPROVAL_DATE_TIME ( #176, #147 ) ;
#82 = LINE ( 'NONE', #200, #37 ) ;
#83 = PLANE ( 'NONE',  #164 ) ;
#84 = PERSON_AND_ORGANIZATION ( #18446744073709551615, #18446744073709551615 ) ;
#85 = CC_DESIGN_PERSON_AND_ORGANIZATION_ASSIGNMENT ( #141, #163, ( #79 ) ) ;
#86 = VECTOR ( 'NONE', #201, 1000.000000000000000 ) ;
#87 = VECTOR ( 'NONE', #4, 1000.000000000000000 ) ;
#88 = LOCAL_TIME ( 18, 49, 53.00000000000000000, #59 ) ;
#89 = APPROVAL_DATE_TIME ( #180, #105 ) ;
#90 = DIRECTION ( 'NONE',  ( 0.000000000000000000, -1.000000000000000000, 0.000000000000000000 ) ) ;
#91 = SHAPE_DEFINITION_REPRESENTATION ( #169, #125 ) ;
#92 = PLANE ( 'NONE',  #204 ) ;
#93 = PRODUCT_RELATED_PRODUCT_CATEGORY ( 'detail', '', ( #146 ) ) ;
#94 = DIRECTION ( 'NONE',  ( 1.000000000000000000, 0.000000000000000000, 0.000000000000000000 ) ) ;
#95 = ORIENTED_EDGE ( 'NONE', *, *, #71, .F. ) ;
#96 = EDGE_CURVE ( 'NONE', #171, #234, #181, .T. ) ;
#97 = AXIS2_PLACEMENT_3D ( 'NONE', #51, #225, #153 ) ;
#98 =( NAMED_UNIT ( * ) SI_UNIT ( $, .STERADIAN. ) SOLID_ANGLE_UNIT ( ) );
#99 = UNCERTAINTY_MEASURE_WITH_UNIT (LENGTH_MEASURE( 1.000000000000000082E-05 ), #50, 'distance_accuracy_value', 'NONE');
#100 = CARTESIAN_POINT ( 'NONE',  ( 0.000000000000000000, 0.000000000000000000, 0.000000000000000000 ) ) ;
#101 = EDGE_CURVE ( 'NONE', #123, #129, #76, .T. ) ;
#102 = LOCAL_TIME ( 18, 49, 53.00000000000000000, #2 ) ;
#103 = PERSON_AND_ORGANIZATION_ROLE ( 'creator' ) ;
#104 = LINE ( 'NONE', #212, #55 ) ;
#105 = APPROVAL ( #107, 'Coincident' ) ;
#106 = DIRECTION ( 'NONE',  ( 0.000000000000000000, 1.000000000000000000, 0.000000000000000000 ) ) ;
#107 = APPROVAL_STATUS ( 'not_yet_approved' ) ;
#108 = DIRECTION ( 'NONE',  ( 0.000000000000000000, 0.000000000000000000, -1.000000000000000000 ) ) ;
#109 = LINE ( 'NONE', #78, #87 ) ;
#110 = CARTESIAN_POINT ( 'NONE',  ( -0.6500012400000000357, -0.1249984800000000090, 0.000000000000000000 ) ) ;
#111 = PRODUCT_DEFINITION ( 'General', '', #79, #202 ) ;
#112 = AXIS2_PLACEMENT_3D ( 'NONE', #124, #3, #226 ) ;
#113 = ORIENTED_EDGE ( 'NONE', *, *, #101, .F. ) ;
#114 = CARTESIAN_POINT ( 'NONE',  ( 0.6500012400000000357, -0.1249984800000000090, 0.4999989999999999712 ) ) ;
#115 = LINE ( 'NONE', #211, #49 ) ;
#116 = ORIENTED_EDGE ( 'NONE', *, *, #155, .T. ) ;
#117 = APPROVAL_PERSON_ORGANIZATION ( #137, #147, #72 ) ;
#118 = APPROVAL_PERSON_ORGANIZATION ( #179, #220, #122 ) ;
#119 = MECHANICAL_CONTEXT ( 'NONE', #74, 'mechanical' ) ;
#120 = CARTESIAN_POINT ( 'NONE',  ( -0.6500012400000000357, 0.1250010199999999905, 0.4999989999999999712 ) ) ;
#121 = DIRECTION ( 'NONE',  ( 0.000000000000000000, -1.000000000000000000, 0.000000000000000000 ) ) ;
#122 = APPROVAL_ROLE ( '' ) ;
#123 = VERTEX_POINT ( 'NONE', #110 ) ;
#124 = CARTESIAN_POINT ( 'NONE',  ( 0.6500012400000000357, -0.1249984800000000090, 0.000000000000000000 ) ) ;
#125 = ADVANCED_BREP_SHAPE_REPRESENTATION ( 'Extruded-2.step', ( #44, #208 ), #126 ) ;
#126 =( GEOMETRIC_REPRESENTATION_CONTEXT ( 3 ) GLOBAL_UNCERTAINTY_ASSIGNED_CONTEXT ( ( #99 ) ) GLOBAL_UNIT_ASSIGNED_CONTEXT ( ( #50, #13, #98 ) ) REPRESENTATION_CONTEXT ( 'NONE', 'WORKASPACE' ) );
#127 = CC_DESIGN_DATE_AND_TIME_ASSIGNMENT ( #39, #162, ( #111 ) ) ;
#128 = CARTESIAN_POINT ( 'NONE',  ( 0.6500012400000000357, -0.1249984800000000090, 0.000000000000000000 ) ) ;
#129 = VERTEX_POINT ( 'NONE', #128 ) ;
#130 = CARTESIAN_POINT ( 'NONE',  ( -0.6500012400000000357, 0.1250010199999999905, 0.000000000000000000 ) ) ;
#131 = AXIS2_PLACEMENT_3D ( 'NONE', #188, #45, #94 ) ;
#132 = ADVANCED_FACE ( 'NONE', ( #206 ), #165, .F. ) ;
#133 = ORIENTED_EDGE ( 'NONE', *, *, #230, .T. ) ;
#134 = DIRECTION ( 'NONE',  ( -0.000000000000000000, 1.000000000000000000, 0.000000000000000000 ) ) ;
#135 = DIRECTION ( 'NONE',  ( 0.000000000000000000, 0.000000000000000000, 1.000000000000000000 ) ) ;
#136 = CARTESIAN_POINT ( 'NONE',  ( 0.6500012400000000357, 0.1250010199999999905, 0.000000000000000000 ) ) ;
#137 = PERSON_AND_ORGANIZATION ( #18446744073709551615, #18446744073709551615 ) ;
#138 = COORDINATED_UNIVERSAL_TIME_OFFSET ( 10, 0, .AHEAD. ) ;
#139 = EDGE_CURVE ( 'NONE', #187, #171, #65, .T. ) ;
#140 = ORIENTED_EDGE ( 'NONE', *, *, #57, .F. ) ;
#141 = PERSON_AND_ORGANIZATION ( #18446744073709551615, #18446744073709551615 ) ;
#142 = CALENDAR_DATE ( 2026, 22, 6 ) ;
#143 = LOCAL_TIME ( 18, 49, 53.00000000000000000, #77 ) ;
#144 = LINE ( 'NONE', #217, #86 ) ;
#145 = CARTESIAN_POINT ( 'NONE',  ( 0.6500012400000000357, 0.1250010199999999905, 0.4999989999999999712 ) ) ;
#146 = PRODUCT ( 'Extruded-2.step', 'Extruded-2.step', '', ( #119 ) ) ;
#147 = APPROVAL ( #174, 'Coincident' ) ;
#148 = AXIS2_PLACEMENT_3D ( 'NONE', #69, #228, #177 ) ;
#149 = EDGE_LOOP ( 'NONE', ( #31, #207, #70, #205 ) ) ;
#150 = CARTESIAN_POINT ( 'NONE',  ( 0.6500012400000000357, -0.1249984800000000090, 0.000000000000000000 ) ) ;
#151 = CARTESIAN_POINT ( 'NONE',  ( 0.6500012400000000357, 0.1250010199999999905, 0.000000000000000000 ) ) ;
#152 = ORIENTED_EDGE ( 'NONE', *, *, #101, .T. ) ;
#153 = DIRECTION ( 'NONE',  ( 0.000000000000000000, 1.000000000000000000, 0.000000000000000000 ) ) ;
#154 = PLANE ( 'NONE',  #131 ) ;
#155 = EDGE_CURVE ( 'NONE', #42, #123, #183, .T. ) ;
#156 = ORIENTED_EDGE ( 'NONE', *, *, #203, .T. ) ;
#157 = VECTOR ( 'NONE', #106, 1000.000000000000000 ) ;
#158 = EDGE_LOOP ( 'NONE', ( #116, #133, #14, #10 ) ) ;
#159 = FACE_OUTER_BOUND ( 'NONE', #168, .T. ) ;
#160 = EDGE_CURVE ( 'NONE', #42, #234, #104, .T. ) ;
#161 = ORIENTED_EDGE ( 'NONE', *, *, #230, .F. ) ;
#162 = DATE_TIME_ROLE ( 'creation_date' ) ;
#163 = PERSON_AND_ORGANIZATION_ROLE ( 'design_supplier' ) ;
#164 = AXIS2_PLACEMENT_3D ( 'NONE', #11, #134, #213 ) ;
#165 = PLANE ( 'NONE',  #112 ) ;
#166 = CARTESIAN_POINT ( 'NONE',  ( 0.6500012400000000357, 0.1250010199999999905, 0.000000000000000000 ) ) ;
#167 = VECTOR ( 'NONE', #186, 1000.000000000000000 ) ;
#168 = EDGE_LOOP ( 'NONE', ( #95, #113, #62, #140 ) ) ;
#169 = PRODUCT_DEFINITION_SHAPE ( 'NONE', 'NONE',  #111 ) ;
#170 = ORIENTED_EDGE ( 'NONE', *, *, #203, .F. ) ;
#171 = VERTEX_POINT ( 'NONE', #231 ) ;
#172 = CC_DESIGN_APPROVAL ( #220, ( #8 ) ) ;
#173 = ADVANCED_FACE ( 'NONE', ( #214 ), #83, .F. ) ;
#174 = APPROVAL_STATUS ( 'not_yet_approved' ) ;
#175 = ORIENTED_EDGE ( 'NONE', *, *, #75, .T. ) ;
#176 = DATE_AND_TIME ( #33, #66 ) ;
#177 = DIRECTION ( 'NONE',  ( 1.000000000000000000, 0.000000000000000000, 0.000000000000000000 ) ) ;
#178 = CARTESIAN_POINT ( 'NONE',  ( -0.6500012400000000357, 0.1250010199999999905, 0.000000000000000000 ) ) ;
#179 = PERSON_AND_ORGANIZATION ( #18446744073709551615, #18446744073709551615 ) ;
#180 = DATE_AND_TIME ( #216, #235 ) ;
#181 = LINE ( 'NONE', #145, #215 ) ;
#182 = APPROVAL_ROLE ( '' ) ;
#183 = LINE ( 'NONE', #178, #58 ) ;
#184 = PERSON_AND_ORGANIZATION ( #18446744073709551615, #18446744073709551615 ) ;
#185 = CC_DESIGN_APPROVAL ( #105, ( #79 ) ) ;
#186 = DIRECTION ( 'NONE',  ( 1.000000000000000000, 0.000000000000000000, 0.000000000000000000 ) ) ;
#187 = VERTEX_POINT ( 'NONE', #136 ) ;
#188 = CARTESIAN_POINT ( 'NONE',  ( -7.100046240970999971E-15, 1.269999984287000026E-06, 0.4999989999999999712 ) ) ;
#189 = ORIENTED_EDGE ( 'NONE', *, *, #96, .F. ) ;
#190 = ADVANCED_FACE ( 'NONE', ( #159 ), #67, .F. ) ;
#191 = ORIENTED_EDGE ( 'NONE', *, *, #139, .F. ) ;
#192 = APPROVAL_PERSON_ORGANIZATION ( #197, #105, #182 ) ;
#193 = COORDINATED_UNIVERSAL_TIME_OFFSET ( 10, 0, .AHEAD. ) ;
#194 = APPLICATION_PROTOCOL_DEFINITION ( 'international standard', 'config_control_design', 1994, #227 ) ;
#195 = PERSON_AND_ORGANIZATION ( #18446744073709551615, #18446744073709551615 ) ;
#196 = VECTOR ( 'NONE', #53, 1000.000000000000000 ) ;
#197 = PERSON_AND_ORGANIZATION ( #18446744073709551615, #18446744073709551615 ) ;
#198 = PERSON_AND_ORGANIZATION_ROLE ( 'creator' ) ;
#199 = CALENDAR_DATE ( 2026, 22, 6 ) ;
#200 = CARTESIAN_POINT ( 'NONE',  ( 0.6500012400000000357, 0.1250010199999999905, 0.000000000000000000 ) ) ;
#201 = DIRECTION ( 'NONE',  ( 0.000000000000000000, -1.000000000000000000, 0.000000000000000000 ) ) ;
#202 = DESIGN_CONTEXT ( 'detailed design', #227, 'design' ) ;
#203 = EDGE_CURVE ( 'NONE', #52, #47, #32, .T. ) ;
#204 = AXIS2_PLACEMENT_3D ( 'NONE', #166, #90, #108 ) ;
#205 = ORIENTED_EDGE ( 'NONE', *, *, #30, .F. ) ;
#206 = FACE_OUTER_BOUND ( 'NONE', #149, .T. ) ;
#207 = ORIENTED_EDGE ( 'NONE', *, *, #139, .T. ) ;
#208 = AXIS2_PLACEMENT_3D ( 'NONE', #100, #135, #80 ) ;
#209 = CARTESIAN_POINT ( 'NONE',  ( -0.6500012400000000357, -0.1249984800000000090, 0.4999989999999999712 ) ) ;
#210 = LINE ( 'NONE', #150, #223 ) ;
#211 = CARTESIAN_POINT ( 'NONE',  ( -0.6500012400000000357, -0.1249984800000000090, 0.000000000000000000 ) ) ;
#212 = CARTESIAN_POINT ( 'NONE',  ( -0.6500012400000000357, 0.1250010199999999905, 0.000000000000000000 ) ) ;
#213 = DIRECTION ( 'NONE',  ( 1.000000000000000000, 0.000000000000000000, 0.000000000000000000 ) ) ;
#214 = FACE_OUTER_BOUND ( 'NONE', #73, .T. ) ;
#215 = VECTOR ( 'NONE', #219, 1000.000000000000000 ) ;
#216 = CALENDAR_DATE ( 2026, 22, 6 ) ;
#217 = CARTESIAN_POINT ( 'NONE',  ( -0.6500012400000000357, 0.1250010199999999905, 0.4999989999999999712 ) ) ;
#218 = ADVANCED_FACE ( 'NONE', ( #16 ), #15, .F. ) ;
#219 = DIRECTION ( 'NONE',  ( -1.000000000000000000, 0.000000000000000000, 0.000000000000000000 ) ) ;
#220 = APPROVAL ( #43, 'Coincident' ) ;
#221 = FACE_OUTER_BOUND ( 'NONE', #20, .T. ) ;
#222 = DIRECTION ( 'NONE',  ( 0.000000000000000000, 0.000000000000000000, 1.000000000000000000 ) ) ;
#223 = VECTOR ( 'NONE', #222, 1000.000000000000000 ) ;
#224 = APPLICATION_PROTOCOL_DEFINITION ( 'international standard', 'config_control_design', 1994, #74 ) ;
#225 = DIRECTION ( 'NONE',  ( 1.000000000000000000, 0.000000000000000000, 0.000000000000000000 ) ) ;
#226 = DIRECTION ( 'NONE',  ( 0.000000000000000000, 0.000000000000000000, 1.000000000000000000 ) ) ;
#227 = APPLICATION_CONTEXT ( 'configuration controlled 3d designs of mechanical parts and assemblies' ) ;
#228 = DIRECTION ( 'NONE',  ( 0.000000000000000000, 0.000000000000000000, 1.000000000000000000 ) ) ;
#229 = DIRECTION ( 'NONE',  ( 0.000000000000000000, 0.000000000000000000, 1.000000000000000000 ) ) ;
#230 = EDGE_CURVE ( 'NONE', #123, #52, #115, .T. ) ;
#231 = CARTESIAN_POINT ( 'NONE',  ( 0.6500012400000000357, 0.1250010199999999905, 0.4999989999999999712 ) ) ;
#232 = ORIENTED_EDGE ( 'NONE', *, *, #96, .T. ) ;
#233 = DIRECTION ( 'NONE',  ( 0.000000000000000000, 0.000000000000000000, 1.000000000000000000 ) ) ;
#234 = VERTEX_POINT ( 'NONE', #120 ) ;
#235 = LOCAL_TIME ( 18, 49, 53.00000000000000000, #138 ) ;
ENDSEC;
END-ISO-10303-21;
