ISO-10303-21;
HEADER;
FILE_DESCRIPTION (( 'STEP AP203' ),
    '1' );
FILE_NAME ('Extruded-12.step.STEP',
    '2026-06-22T08:49:56',
    ( 'localuser' ),
    ( '' ),
    'SwSTEP 2.0',
    'SolidWorks 2025',
    '' );
FILE_SCHEMA (( 'CONFIG_CONTROL_DESIGN' ));
ENDSEC;

DATA;
#1 = CARTESIAN_POINT ( 'NONE',  ( 1.599999339999999881, -1.250000039999999979, 0.000000000000000000 ) ) ;
#2 = EDGE_CURVE ( 'NONE', #58, #178, #219, .T. ) ;
#3 = ORIENTED_EDGE ( 'NONE', *, *, #29, .F. ) ;
#4 = APPLICATION_PROTOCOL_DEFINITION ( 'international standard', 'config_control_design', 1994, #15 ) ;
#5 = MANIFOLD_SOLID_BREP ( 'Extruded[1]', #62 ) ;
#6 = PERSON_AND_ORGANIZATION ( #18446744073709551615, #18446744073709551615 ) ;
#7 =( LENGTH_UNIT ( ) NAMED_UNIT ( * ) SI_UNIT ( .MILLI., .METRE. ) );
#8 = MECHANICAL_CONTEXT ( 'NONE', #50, 'mechanical' ) ;
#9 = VECTOR ( 'NONE', #78, 1000.000000000000000 ) ;
#10 = CALENDAR_DATE ( 2026, 22, 6 ) ;
#11 = EDGE_CURVE ( 'NONE', #75, #18, #167, .T. ) ;
#12 = EDGE_LOOP ( 'NONE', ( #214, #74, #230, #161 ) ) ;
#13 = ORIENTED_EDGE ( 'NONE', *, *, #56, .F. ) ;
#14 = ADVANCED_FACE ( 'NONE', ( #201 ), #156, .T. ) ;
#15 = APPLICATION_CONTEXT ( 'configuration controlled 3d designs of mechanical parts and assemblies' ) ;
#16 = ORIENTED_EDGE ( 'NONE', *, *, #221, .T. ) ;
#17 = ORIENTED_EDGE ( 'NONE', *, *, #138, .T. ) ;
#18 = VERTEX_POINT ( 'NONE', #63 ) ;
#19 = CARTESIAN_POINT ( 'NONE',  ( -7.089846822415000240E-15, 7.050891620093998477E-15, 0.000000000000000000 ) ) ;
#20 = CARTESIAN_POINT ( 'NONE',  ( -1.599999339999999881, -1.250000039999999979, 0.4999989999999999712 ) ) ;
#21 = DIRECTION ( 'NONE',  ( 0.000000000000000000, 0.000000000000000000, -1.000000000000000000 ) ) ;
#22 = CC_DESIGN_PERSON_AND_ORGANIZATION_ASSIGNMENT ( #205, #91, ( #159 ) ) ;
#23 = LINE ( 'NONE', #105, #211 ) ;
#24 = VECTOR ( 'NONE', #102, 1000.000000000000000 ) ;
#25 = DIRECTION ( 'NONE',  ( 1.000000000000000000, 0.000000000000000000, 0.000000000000000000 ) ) ;
#26 = APPROVAL_DATE_TIME ( #226, #90 ) ;
#27 = DIRECTION ( 'NONE',  ( 0.000000000000000000, 0.000000000000000000, 1.000000000000000000 ) ) ;
#28 = CARTESIAN_POINT ( 'NONE',  ( 1.599999339999999881, -1.250000039999999979, 0.000000000000000000 ) ) ;
#29 = EDGE_CURVE ( 'NONE', #213, #178, #64, .T. ) ;
#30 = DIRECTION ( 'NONE',  ( 0.000000000000000000, -1.000000000000000000, 0.000000000000000000 ) ) ;
#31 = AXIS2_PLACEMENT_3D ( 'NONE', #173, #225, #191 ) ;
#32 = PERSON_AND_ORGANIZATION ( #18446744073709551615, #18446744073709551615 ) ;
#33 = ORIENTED_EDGE ( 'NONE', *, *, #2, .T. ) ;
#34 = CC_DESIGN_PERSON_AND_ORGANIZATION_ASSIGNMENT ( #108, #170, ( #132 ) ) ;
#35 = VERTEX_POINT ( 'NONE', #40 ) ;
#36 = CALENDAR_DATE ( 2026, 22, 6 ) ;
#37 = ORIENTED_EDGE ( 'NONE', *, *, #11, .T. ) ;
#38 = PRODUCT_RELATED_PRODUCT_CATEGORY ( 'detail', '', ( #159 ) ) ;
#39 = FACE_OUTER_BOUND ( 'NONE', #118, .T. ) ;
#40 = CARTESIAN_POINT ( 'NONE',  ( 1.599999339999999881, -1.250000039999999979, 0.000000000000000000 ) ) ;
#41 = PLANE ( 'NONE',  #227 ) ;
#42 = CC_DESIGN_DATE_AND_TIME_ASSIGNMENT ( #114, #176, ( #179 ) ) ;
#43 = DIRECTION ( 'NONE',  ( 0.000000000000000000, -1.000000000000000000, 0.000000000000000000 ) ) ;
#44 = ADVANCED_BREP_SHAPE_REPRESENTATION ( 'Extruded-12.step', ( #5, #31 ), #146 ) ;
#45 = CARTESIAN_POINT ( 'NONE',  ( 1.599999339999999881, 1.250000039999999979, 0.000000000000000000 ) ) ;
#46 = AXIS2_PLACEMENT_3D ( 'NONE', #202, #151, #25 ) ;
#47 = PERSON_AND_ORGANIZATION ( #18446744073709551615, #18446744073709551615 ) ;
#48 = SECURITY_CLASSIFICATION_LEVEL ( 'unclassified' ) ;
#49 = EDGE_CURVE ( 'NONE', #18, #160, #186, .T. ) ;
#50 = APPLICATION_CONTEXT ( 'configuration controlled 3d designs of mechanical parts and assemblies' ) ;
#51 = PERSON_AND_ORGANIZATION_ROLE ( 'classification_officer' ) ;
#52 =( NAMED_UNIT ( * ) PLANE_ANGLE_UNIT ( ) SI_UNIT ( $, .RADIAN. ) );
#53 = APPROVAL_ROLE ( '' ) ;
#54 = APPROVAL_DATE_TIME ( #55, #128 ) ;
#55 = DATE_AND_TIME ( #36, #235 ) ;
#56 = EDGE_CURVE ( 'NONE', #213, #75, #23, .T. ) ;
#57 = LOCAL_TIME ( 18, 49, 56.00000000000000000, #228 ) ;
#58 = VERTEX_POINT ( 'NONE', #140 ) ;
#59 = ADVANCED_FACE ( 'NONE', ( #125 ), #41, .T. ) ;
#60 = CARTESIAN_POINT ( 'NONE',  ( -1.599999339999999881, 1.250000039999999979, 0.4999989999999999712 ) ) ;
#61 = LINE ( 'NONE', #80, #24 ) ;
#62 = CLOSED_SHELL ( 'NONE', ( #76, #148, #14, #59, #68, #133 ) ) ;
#63 = CARTESIAN_POINT ( 'NONE',  ( 1.599999339999999881, 1.250000039999999979, 0.000000000000000000 ) ) ;
#64 = LINE ( 'NONE', #141, #104 ) ;
#65 = CARTESIAN_POINT ( 'NONE',  ( -1.599999339999999881, 1.250000039999999979, 0.000000000000000000 ) ) ;
#66 = COORDINATED_UNIVERSAL_TIME_OFFSET ( 10, 0, .AHEAD. ) ;
#67 = LOCAL_TIME ( 18, 49, 56.00000000000000000, #66 ) ;
#68 = ADVANCED_FACE ( 'NONE', ( #234 ), #183, .T. ) ;
#69 = PERSON_AND_ORGANIZATION ( #18446744073709551615, #18446744073709551615 ) ;
#70 = APPLICATION_PROTOCOL_DEFINITION ( 'international standard', 'config_control_design', 1994, #50 ) ;
#71 = CALENDAR_DATE ( 2026, 22, 6 ) ;
#72 = CALENDAR_DATE ( 2026, 22, 6 ) ;
#73 = APPROVAL_STATUS ( 'not_yet_approved' ) ;
#74 = ORIENTED_EDGE ( 'NONE', *, *, #166, .T. ) ;
#75 = VERTEX_POINT ( 'NONE', #84 ) ;
#76 = ADVANCED_FACE ( 'NONE', ( #122 ), #196, .F. ) ;
#77 = APPROVAL_PERSON_ORGANIZATION ( #6, #232, #92 ) ;
#78 = DIRECTION ( 'NONE',  ( -1.000000000000000000, 0.000000000000000000, 0.000000000000000000 ) ) ;
#79 = EDGE_CURVE ( 'NONE', #35, #213, #123, .T. ) ;
#80 = CARTESIAN_POINT ( 'NONE',  ( -1.599999339999999881, 1.250000039999999979, 0.4999989999999999712 ) ) ;
#81 = VECTOR ( 'NONE', #165, 1000.000000000000000 ) ;
#82 = CARTESIAN_POINT ( 'NONE',  ( 1.599999339999999881, 1.250000039999999979, 0.000000000000000000 ) ) ;
#83 = APPROVAL_PERSON_ORGANIZATION ( #32, #128, #112 ) ;
#84 = CARTESIAN_POINT ( 'NONE',  ( -1.599999339999999881, 1.250000039999999979, 0.000000000000000000 ) ) ;
#85 = DIRECTION ( 'NONE',  ( 0.000000000000000000, 1.000000000000000000, 0.000000000000000000 ) ) ;
#86 = CC_DESIGN_PERSON_AND_ORGANIZATION_ASSIGNMENT ( #69, #51, ( #179 ) ) ;
#87 = PERSON_AND_ORGANIZATION_ROLE ( 'design_supplier' ) ;
#88 = AXIS2_PLACEMENT_3D ( 'NONE', #124, #203, #233 ) ;
#89 = APPROVAL_DATE_TIME ( #207, #232 ) ;
#90 = APPROVAL ( #192, 'Coincident' ) ;
#91 = PERSON_AND_ORGANIZATION_ROLE ( 'design_owner' ) ;
#92 = APPROVAL_ROLE ( '' ) ;
#93 = CC_DESIGN_APPROVAL ( #232, ( #154 ) ) ;
#94 = PERSON_AND_ORGANIZATION ( #18446744073709551615, #18446744073709551615 ) ;
#95 = SHAPE_DEFINITION_REPRESENTATION ( #150, #44 ) ;
#96 = EDGE_LOOP ( 'NONE', ( #16, #33, #3, #115 ) ) ;
#97 = VERTEX_POINT ( 'NONE', #60 ) ;
#98 = APPROVAL_PERSON_ORGANIZATION ( #47, #90, #53 ) ;
#99 = ORIENTED_EDGE ( 'NONE', *, *, #166, .F. ) ;
#100 = ORIENTED_EDGE ( 'NONE', *, *, #189, .T. ) ;
#101 = DIRECTION ( 'NONE',  ( 0.000000000000000000, 0.000000000000000000, -1.000000000000000000 ) ) ;
#102 = DIRECTION ( 'NONE',  ( 1.000000000000000000, 0.000000000000000000, 0.000000000000000000 ) ) ;
#103 = CARTESIAN_POINT ( 'NONE',  ( 1.599999339999999881, -1.250000039999999979, 0.000000000000000000 ) ) ;
#104 = VECTOR ( 'NONE', #106, 1000.000000000000000 ) ;
#105 = CARTESIAN_POINT ( 'NONE',  ( -1.599999339999999881, -1.250000039999999979, 0.000000000000000000 ) ) ;
#106 = DIRECTION ( 'NONE',  ( 0.000000000000000000, 0.000000000000000000, 1.000000000000000000 ) ) ;
#107 = EDGE_CURVE ( 'NONE', #18, #35, #185, .T. ) ;
#108 = PERSON_AND_ORGANIZATION ( #18446744073709551615, #18446744073709551615 ) ;
#109 = VECTOR ( 'NONE', #30, 1000.000000000000000 ) ;
#110 = CARTESIAN_POINT ( 'NONE',  ( -1.599999339999999881, -1.250000039999999979, 0.000000000000000000 ) ) ;
#111 = LINE ( 'NONE', #127, #109 ) ;
#112 = APPROVAL_ROLE ( '' ) ;
#113 = ORIENTED_EDGE ( 'NONE', *, *, #2, .F. ) ;
#114 = DATE_AND_TIME ( #72, #200 ) ;
#115 = ORIENTED_EDGE ( 'NONE', *, *, #79, .F. ) ;
#116 = ORIENTED_EDGE ( 'NONE', *, *, #107, .T. ) ;
#117 = AXIS2_PLACEMENT_3D ( 'NONE', #19, #101, #43 ) ;
#118 = EDGE_LOOP ( 'NONE', ( #37, #116, #180, #175 ) ) ;
#119 = ORIENTED_EDGE ( 'NONE', *, *, #221, .F. ) ;
#120 = PLANE ( 'NONE',  #117 ) ;
#121 = VECTOR ( 'NONE', #152, 1000.000000000000000 ) ;
#122 = FACE_OUTER_BOUND ( 'NONE', #177, .T. ) ;
#123 = LINE ( 'NONE', #103, #9 ) ;
#124 = CARTESIAN_POINT ( 'NONE',  ( -1.599999339999999881, -1.250000039999999979, 0.000000000000000000 ) ) ;
#125 = FACE_OUTER_BOUND ( 'NONE', #96, .T. ) ;
#126 = COORDINATED_UNIVERSAL_TIME_OFFSET ( 10, 0, .AHEAD. ) ;
#127 = CARTESIAN_POINT ( 'NONE',  ( 1.599999339999999881, 1.250000039999999979, 0.4999989999999999712 ) ) ;
#128 = APPROVAL ( #73, 'Coincident' ) ;
#129 = COORDINATED_UNIVERSAL_TIME_OFFSET ( 10, 0, .AHEAD. ) ;
#130 = CC_DESIGN_PERSON_AND_ORGANIZATION_ASSIGNMENT ( #206, #87, ( #132 ) ) ;
#131 = ORIENTED_EDGE ( 'NONE', *, *, #107, .F. ) ;
#132 = PRODUCT_DEFINITION_FORMATION_WITH_SPECIFIED_SOURCE ( 'Symmetric', '', #159, .NOT_KNOWN. ) ;
#133 = ADVANCED_FACE ( 'NONE', ( #187 ), #153, .T. ) ;
#134 = COORDINATED_UNIVERSAL_TIME_OFFSET ( 10, 0, .AHEAD. ) ;
#135 = AXIS2_PLACEMENT_3D ( 'NONE', #82, #139, #197 ) ;
#136 = ORIENTED_EDGE ( 'NONE', *, *, #49, .T. ) ;
#137 = LINE ( 'NONE', #20, #208 ) ;
#138 = EDGE_CURVE ( 'NONE', #178, #97, #137, .T. ) ;
#139 = DIRECTION ( 'NONE',  ( 1.000000000000000000, 0.000000000000000000, 0.000000000000000000 ) ) ;
#140 = CARTESIAN_POINT ( 'NONE',  ( 1.599999339999999881, -1.250000039999999979, 0.4999989999999999712 ) ) ;
#141 = CARTESIAN_POINT ( 'NONE',  ( -1.599999339999999881, -1.250000039999999979, 0.000000000000000000 ) ) ;
#142 = DIRECTION ( 'NONE',  ( 0.000000000000000000, -1.000000000000000000, 0.000000000000000000 ) ) ;
#143 = LOCAL_TIME ( 18, 49, 56.00000000000000000, #126 ) ;
#144 = LINE ( 'NONE', #28, #174 ) ;
#145 = CARTESIAN_POINT ( 'NONE',  ( -1.599999339999999881, -1.250000039999999979, 0.4999989999999999712 ) ) ;
#146 =( GEOMETRIC_REPRESENTATION_CONTEXT ( 3 ) GLOBAL_UNCERTAINTY_ASSIGNED_CONTEXT ( ( #217 ) ) GLOBAL_UNIT_ASSIGNED_CONTEXT ( ( #7, #52, #172 ) ) REPRESENTATION_CONTEXT ( 'NONE', 'WORKASPACE' ) );
#147 = DATE_TIME_ROLE ( 'creation_date' ) ;
#148 = ADVANCED_FACE ( 'NONE', ( #39 ), #120, .T. ) ;
#149 = ORIENTED_EDGE ( 'NONE', *, *, #138, .F. ) ;
#150 = PRODUCT_DEFINITION_SHAPE ( 'NONE', 'NONE',  #154 ) ;
#151 = DIRECTION ( 'NONE',  ( -0.000000000000000000, 1.000000000000000000, 0.000000000000000000 ) ) ;
#152 = DIRECTION ( 'NONE',  ( 1.000000000000000000, 0.000000000000000000, 0.000000000000000000 ) ) ;
#153 = PLANE ( 'NONE',  #46 ) ;
#154 = PRODUCT_DEFINITION ( 'General', '', #132, #184 ) ;
#155 = CARTESIAN_POINT ( 'NONE',  ( 1.599999339999999881, 1.250000039999999979, 0.000000000000000000 ) ) ;
#156 = PLANE ( 'NONE',  #88 ) ;
#157 = LINE ( 'NONE', #210, #229 ) ;
#158 = DATE_AND_TIME ( #71, #67 ) ;
#159 = PRODUCT ( 'Extruded-12.step', 'Extruded-12.step', '', ( #8 ) ) ;
#160 = VERTEX_POINT ( 'NONE', #216 ) ;
#161 = ORIENTED_EDGE ( 'NONE', *, *, #11, .F. ) ;
#162 = CC_DESIGN_DATE_AND_TIME_ASSIGNMENT ( #158, #147, ( #154 ) ) ;
#163 = CC_DESIGN_SECURITY_CLASSIFICATION ( #179, ( #132 ) ) ;
#164 = CARTESIAN_POINT ( 'NONE',  ( -7.089846822415000240E-15, 7.050891620093998477E-15, 0.4999989999999999712 ) ) ;
#165 = DIRECTION ( 'NONE',  ( -1.000000000000000000, 0.000000000000000000, 0.000000000000000000 ) ) ;
#166 = EDGE_CURVE ( 'NONE', #97, #160, #61, .T. ) ;
#167 = LINE ( 'NONE', #65, #121 ) ;
#168 = DIRECTION ( 'NONE',  ( 0.000000000000000000, 0.000000000000000000, 1.000000000000000000 ) ) ;
#169 = DIRECTION ( 'NONE',  ( 0.000000000000000000, -1.000000000000000000, 0.000000000000000000 ) ) ;
#170 = PERSON_AND_ORGANIZATION_ROLE ( 'creator' ) ;
#171 = AXIS2_PLACEMENT_3D ( 'NONE', #164, #231, #220 ) ;
#172 =( NAMED_UNIT ( * ) SI_UNIT ( $, .STERADIAN. ) SOLID_ANGLE_UNIT ( ) );
#173 = CARTESIAN_POINT ( 'NONE',  ( 0.000000000000000000, 0.000000000000000000, 0.000000000000000000 ) ) ;
#174 = VECTOR ( 'NONE', #190, 1000.000000000000000 ) ;
#175 = ORIENTED_EDGE ( 'NONE', *, *, #56, .T. ) ;
#176 = DATE_TIME_ROLE ( 'classification_date' ) ;
#177 = EDGE_LOOP ( 'NONE', ( #149, #113, #194, #99 ) ) ;
#178 = VERTEX_POINT ( 'NONE', #145 ) ;
#179 = SECURITY_CLASSIFICATION ( '', '', #48 ) ;
#180 = ORIENTED_EDGE ( 'NONE', *, *, #79, .T. ) ;
#181 = EDGE_LOOP ( 'NONE', ( #195, #17, #193, #13 ) ) ;
#182 = DIRECTION ( 'NONE',  ( 0.000000000000000000, 1.000000000000000000, 0.000000000000000000 ) ) ;
#183 = PLANE ( 'NONE',  #135 ) ;
#184 = DESIGN_CONTEXT ( 'detailed design', #15, 'design' ) ;
#185 = LINE ( 'NONE', #155, #199 ) ;
#186 = LINE ( 'NONE', #45, #223 ) ;
#187 = FACE_OUTER_BOUND ( 'NONE', #12, .T. ) ;
#188 = CALENDAR_DATE ( 2026, 22, 6 ) ;
#189 = EDGE_CURVE ( 'NONE', #160, #58, #111, .T. ) ;
#190 = DIRECTION ( 'NONE',  ( 0.000000000000000000, 0.000000000000000000, 1.000000000000000000 ) ) ;
#191 = DIRECTION ( 'NONE',  ( 1.000000000000000000, 0.000000000000000000, 0.000000000000000000 ) ) ;
#192 = APPROVAL_STATUS ( 'not_yet_approved' ) ;
#193 = ORIENTED_EDGE ( 'NONE', *, *, #198, .F. ) ;
#194 = ORIENTED_EDGE ( 'NONE', *, *, #189, .F. ) ;
#195 = ORIENTED_EDGE ( 'NONE', *, *, #29, .T. ) ;
#196 = PLANE ( 'NONE',  #171 ) ;
#197 = DIRECTION ( 'NONE',  ( 0.000000000000000000, 1.000000000000000000, 0.000000000000000000 ) ) ;
#198 = EDGE_CURVE ( 'NONE', #75, #97, #157, .T. ) ;
#199 = VECTOR ( 'NONE', #169, 1000.000000000000000 ) ;
#200 = LOCAL_TIME ( 18, 49, 56.00000000000000000, #129 ) ;
#201 = FACE_OUTER_BOUND ( 'NONE', #181, .T. ) ;
#202 = CARTESIAN_POINT ( 'NONE',  ( -1.599999339999999881, 1.250000039999999979, 0.000000000000000000 ) ) ;
#203 = DIRECTION ( 'NONE',  ( -1.000000000000000000, 0.000000000000000000, 0.000000000000000000 ) ) ;
#204 = CC_DESIGN_PERSON_AND_ORGANIZATION_ASSIGNMENT ( #94, #222, ( #154 ) ) ;
#205 = PERSON_AND_ORGANIZATION ( #18446744073709551615, #18446744073709551615 ) ;
#206 = PERSON_AND_ORGANIZATION ( #18446744073709551615, #18446744073709551615 ) ;
#207 = DATE_AND_TIME ( #10, #57 ) ;
#208 = VECTOR ( 'NONE', #182, 1000.000000000000000 ) ;
#209 = APPROVAL_STATUS ( 'not_yet_approved' ) ;
#210 = CARTESIAN_POINT ( 'NONE',  ( -1.599999339999999881, 1.250000039999999979, 0.000000000000000000 ) ) ;
#211 = VECTOR ( 'NONE', #85, 1000.000000000000000 ) ;
#212 = CC_DESIGN_APPROVAL ( #128, ( #179 ) ) ;
#213 = VERTEX_POINT ( 'NONE', #110 ) ;
#214 = ORIENTED_EDGE ( 'NONE', *, *, #198, .T. ) ;
#215 = EDGE_LOOP ( 'NONE', ( #136, #100, #119, #131 ) ) ;
#216 = CARTESIAN_POINT ( 'NONE',  ( 1.599999339999999881, 1.250000039999999979, 0.4999989999999999712 ) ) ;
#217 = UNCERTAINTY_MEASURE_WITH_UNIT (LENGTH_MEASURE( 1.000000000000000082E-05 ), #7, 'distance_accuracy_value', 'NONE');
#218 = CARTESIAN_POINT ( 'NONE',  ( 1.599999339999999881, -1.250000039999999979, 0.4999989999999999712 ) ) ;
#219 = LINE ( 'NONE', #218, #81 ) ;
#220 = DIRECTION ( 'NONE',  ( 0.000000000000000000, -1.000000000000000000, 0.000000000000000000 ) ) ;
#221 = EDGE_CURVE ( 'NONE', #35, #58, #144, .T. ) ;
#222 = PERSON_AND_ORGANIZATION_ROLE ( 'creator' ) ;
#223 = VECTOR ( 'NONE', #168, 1000.000000000000000 ) ;
#224 = CC_DESIGN_APPROVAL ( #90, ( #132 ) ) ;
#225 = DIRECTION ( 'NONE',  ( 0.000000000000000000, 0.000000000000000000, 1.000000000000000000 ) ) ;
#226 = DATE_AND_TIME ( #188, #143 ) ;
#227 = AXIS2_PLACEMENT_3D ( 'NONE', #1, #142, #21 ) ;
#228 = COORDINATED_UNIVERSAL_TIME_OFFSET ( 10, 0, .AHEAD. ) ;
#229 = VECTOR ( 'NONE', #27, 1000.000000000000000 ) ;
#230 = ORIENTED_EDGE ( 'NONE', *, *, #49, .F. ) ;
#231 = DIRECTION ( 'NONE',  ( 0.000000000000000000, 0.000000000000000000, -1.000000000000000000 ) ) ;
#232 = APPROVAL ( #209, 'Coincident' ) ;
#233 = DIRECTION ( 'NONE',  ( 0.000000000000000000, 0.000000000000000000, 1.000000000000000000 ) ) ;
#234 = FACE_OUTER_BOUND ( 'NONE', #215, .T. ) ;
#235 = LOCAL_TIME ( 18, 49, 56.00000000000000000, #134 ) ;
ENDSEC;
END-ISO-10303-21;
