ISO-10303-21;
HEADER;
FILE_DESCRIPTION (( 'STEP AP203' ),
    '1' );
FILE_NAME ('Extruded-16.step.STEP',
    '2026-06-22T08:50:00',
    ( 'localuser' ),
    ( '' ),
    'SwSTEP 2.0',
    'SolidWorks 2025',
    '' );
FILE_SCHEMA (( 'CONFIG_CONTROL_DESIGN' ));
ENDSEC;

DATA;
#1 = DATE_AND_TIME ( #15, #114 ) ;
#2 = DATE_AND_TIME ( #196, #209 ) ;
#3 = EDGE_LOOP ( 'NONE', ( #94, #165, #97, #198 ) ) ;
#4 = APPROVAL ( #195, 'Coincident' ) ;
#5 = ORIENTED_EDGE ( 'NONE', *, *, #43, .F. ) ;
#6 = VECTOR ( 'NONE', #208, 1000.000000000000000 ) ;
#7 = ORIENTED_EDGE ( 'NONE', *, *, #187, .F. ) ;
#8 = DIRECTION ( 'NONE',  ( -1.000000000000000000, 0.000000000000000000, 0.000000000000000000 ) ) ;
#9 = CARTESIAN_POINT ( 'NONE',  ( -0.3999991999999999992, -0.07500111999998000656, 0.000000000000000000 ) ) ;
#10 = DIRECTION ( 'NONE',  ( 0.000000000000000000, -1.000000000000000000, 0.000000000000000000 ) ) ;
#11 = CC_DESIGN_DATE_AND_TIME_ASSIGNMENT ( #71, #164, ( #211 ) ) ;
#12 = DIRECTION ( 'NONE',  ( 0.000000000000000000, 1.000000000000000000, 0.000000000000000000 ) ) ;
#13 = DIRECTION ( 'NONE',  ( 0.000000000000000000, 1.000000000000000000, 0.000000000000000000 ) ) ;
#14 = PERSON_AND_ORGANIZATION ( #18446744073709551615, #18446744073709551615 ) ;
#15 = CALENDAR_DATE ( 2026, 22, 6 ) ;
#16 = EDGE_CURVE ( 'NONE', #167, #44, #202, .T. ) ;
#17 =( NAMED_UNIT ( * ) SI_UNIT ( $, .STERADIAN. ) SOLID_ANGLE_UNIT ( ) );
#18 = PERSON_AND_ORGANIZATION_ROLE ( 'design_owner' ) ;
#19 = VECTOR ( 'NONE', #174, 1000.000000000000000 ) ;
#20 = APPLICATION_CONTEXT ( 'configuration controlled 3d designs of mechanical parts and assemblies' ) ;
#21 = SECURITY_CLASSIFICATION ( '', '', #37 ) ;
#22 = COORDINATED_UNIVERSAL_TIME_OFFSET ( 10, 0, .AHEAD. ) ;
#23 = ADVANCED_FACE ( 'NONE', ( #186 ), #79, .T. ) ;
#24 = CC_DESIGN_PERSON_AND_ORGANIZATION_ASSIGNMENT ( #14, #18, ( #150 ) ) ;
#25 = ORIENTED_EDGE ( 'NONE', *, *, #128, .T. ) ;
#26 = ORIENTED_EDGE ( 'NONE', *, *, #145, .F. ) ;
#27 = EDGE_LOOP ( 'NONE', ( #25, #203, #7, #5 ) ) ;
#28 = EDGE_LOOP ( 'NONE', ( #82, #46, #95, #220 ) ) ;
#29 = AXIS2_PLACEMENT_3D ( 'NONE', #224, #65, #175 ) ;
#30 = LINE ( 'NONE', #86, #135 ) ;
#31 = APPROVAL ( #111, 'Coincident' ) ;
#32 = CARTESIAN_POINT ( 'NONE',  ( -0.3999991999999999992, -0.07500111999998000656, 0.9000007399999999658 ) ) ;
#33 = DIRECTION ( 'NONE',  ( -0.000000000000000000, 1.000000000000000000, 0.000000000000000000 ) ) ;
#34 = LINE ( 'NONE', #51, #50 ) ;
#35 = LINE ( 'NONE', #229, #19 ) ;
#36 = CALENDAR_DATE ( 2026, 22, 6 ) ;
#37 = SECURITY_CLASSIFICATION_LEVEL ( 'unclassified' ) ;
#38 = COORDINATED_UNIVERSAL_TIME_OFFSET ( 10, 0, .AHEAD. ) ;
#39 = DIRECTION ( 'NONE',  ( 1.000000000000000000, 0.000000000000000000, 0.000000000000000000 ) ) ;
#40 = ORIENTED_EDGE ( 'NONE', *, *, #63, .T. ) ;
#41 = ADVANCED_FACE ( 'NONE', ( #170 ), #118, .F. ) ;
#42 = APPLICATION_CONTEXT ( 'configuration controlled 3d designs of mechanical parts and assemblies' ) ;
#43 = EDGE_CURVE ( 'NONE', #131, #115, #207, .T. ) ;
#44 = VERTEX_POINT ( 'NONE', #225 ) ;
#45 = CARTESIAN_POINT ( 'NONE',  ( 0.3999991999999999992, 0.07500112000001001034, 0.000000000000000000 ) ) ;
#46 = ORIENTED_EDGE ( 'NONE', *, *, #145, .T. ) ;
#47 = CARTESIAN_POINT ( 'NONE',  ( 0.3999991999999999992, 0.07500112000001001034, 0.9000007399999999658 ) ) ;
#48 = DIRECTION ( 'NONE',  ( 0.000000000000000000, 0.000000000000000000, -1.000000000000000000 ) ) ;
#49 = CARTESIAN_POINT ( 'NONE',  ( 0.3999991999999999992, -0.07500111999998000656, 0.000000000000000000 ) ) ;
#50 = VECTOR ( 'NONE', #10, 1000.000000000000000 ) ;
#51 = CARTESIAN_POINT ( 'NONE',  ( 0.3999991999999999992, 0.07500112000001001034, 0.000000000000000000 ) ) ;
#52 = CARTESIAN_POINT ( 'NONE',  ( 0.3999991999999999992, -0.07500111999998000656, 0.9000007399999999658 ) ) ;
#53 = APPROVAL_DATE_TIME ( #112, #4 ) ;
#54 = DIRECTION ( 'NONE',  ( 0.000000000000000000, 0.000000000000000000, 1.000000000000000000 ) ) ;
#55 = PRODUCT_DEFINITION_FORMATION_WITH_SPECIFIED_SOURCE ( 'Symmetric', '', #150, .NOT_KNOWN. ) ;
#56 = APPROVAL_STATUS ( 'not_yet_approved' ) ;
#57 = APPROVAL_ROLE ( '' ) ;
#58 = AXIS2_PLACEMENT_3D ( 'NONE', #139, #84, #190 ) ;
#59 = ADVANCED_FACE ( 'NONE', ( #103 ), #177, .T. ) ;
#60 = CC_DESIGN_DATE_AND_TIME_ASSIGNMENT ( #1, #74, ( #21 ) ) ;
#61 = VERTEX_POINT ( 'NONE', #52 ) ;
#62 = ORIENTED_EDGE ( 'NONE', *, *, #108, .F. ) ;
#63 = EDGE_CURVE ( 'NONE', #167, #61, #143, .T. ) ;
#64 = DIRECTION ( 'NONE',  ( 0.000000000000000000, 0.000000000000000000, 1.000000000000000000 ) ) ;
#65 = DIRECTION ( 'NONE',  ( -1.000000000000000000, 0.000000000000000000, 0.000000000000000000 ) ) ;
#66 = EDGE_CURVE ( 'NONE', #44, #131, #123, .T. ) ;
#67 = DIRECTION ( 'NONE',  ( 0.000000000000000000, -1.000000000000000000, 0.000000000000000000 ) ) ;
#68 = LINE ( 'NONE', #141, #6 ) ;
#69 = AXIS2_PLACEMENT_3D ( 'NONE', #180, #54, #39 ) ;
#70 = DIRECTION ( 'NONE',  ( 0.000000000000000000, -1.000000000000000000, 0.000000000000000000 ) ) ;
#71 = DATE_AND_TIME ( #36, #129 ) ;
#72 = AXIS2_PLACEMENT_3D ( 'NONE', #45, #222, #99 ) ;
#73 = ADVANCED_FACE ( 'NONE', ( #192 ), #107, .T. ) ;
#74 = DATE_TIME_ROLE ( 'classification_date' ) ;
#75 = COORDINATED_UNIVERSAL_TIME_OFFSET ( 10, 0, .AHEAD. ) ;
#76 = ORIENTED_EDGE ( 'NONE', *, *, #189, .F. ) ;
#77 = AXIS2_PLACEMENT_3D ( 'NONE', #188, #33, #122 ) ;
#78 = VERTEX_POINT ( 'NONE', #155 ) ;
#79 = PLANE ( 'NONE',  #72 ) ;
#80 = VECTOR ( 'NONE', #12, 1000.000000000000000 ) ;
#81 = CC_DESIGN_APPROVAL ( #4, ( #55 ) ) ;
#82 = ORIENTED_EDGE ( 'NONE', *, *, #187, .T. ) ;
#83 = CARTESIAN_POINT ( 'NONE',  ( 0.3999991999999999992, -0.07500111999998000656, 0.000000000000000000 ) ) ;
#84 = DIRECTION ( 'NONE',  ( 0.000000000000000000, 0.000000000000000000, -1.000000000000000000 ) ) ;
#85 = ADVANCED_FACE ( 'NONE', ( #137 ), #89, .T. ) ;
#86 = CARTESIAN_POINT ( 'NONE',  ( -0.3999991999999999992, 0.07500112000001001034, 0.000000000000000000 ) ) ;
#87 = PRODUCT_DEFINITION_SHAPE ( 'NONE', 'NONE',  #211 ) ;
#88 = DIRECTION ( 'NONE',  ( 1.000000000000000000, 0.000000000000000000, 0.000000000000000000 ) ) ;
#89 = PLANE ( 'NONE',  #58 ) ;
#90 = APPLICATION_PROTOCOL_DEFINITION ( 'international standard', 'config_control_design', 1994, #42 ) ;
#91 = PERSON_AND_ORGANIZATION ( #18446744073709551615, #18446744073709551615 ) ;
#92 = PERSON_AND_ORGANIZATION_ROLE ( 'classification_officer' ) ;
#93 = APPROVAL_ROLE ( '' ) ;
#94 = ORIENTED_EDGE ( 'NONE', *, *, #108, .T. ) ;
#95 = ORIENTED_EDGE ( 'NONE', *, *, #63, .F. ) ;
#96 = LOCAL_TIME ( 18, 50, 0.000000000000000000, #75 ) ;
#97 = ORIENTED_EDGE ( 'NONE', *, *, #128, .F. ) ;
#98 = CARTESIAN_POINT ( 'NONE',  ( 0.3999991999999999992, -0.07500111999998000656, 0.000000000000000000 ) ) ;
#99 = DIRECTION ( 'NONE',  ( 0.000000000000000000, 1.000000000000000000, 0.000000000000000000 ) ) ;
#100 = CARTESIAN_POINT ( 'NONE',  ( 0.3999991999999999992, -0.07500111999998000656, 0.000000000000000000 ) ) ;
#101 = LINE ( 'NONE', #230, #138 ) ;
#102 = CC_DESIGN_PERSON_AND_ORGANIZATION_ASSIGNMENT ( #193, #92, ( #21 ) ) ;
#103 = FACE_OUTER_BOUND ( 'NONE', #3, .T. ) ;
#104 = VECTOR ( 'NONE', #191, 1000.000000000000000 ) ;
#105 = LOCAL_TIME ( 18, 50, 0.000000000000000000, #38 ) ;
#106 = PLANE ( 'NONE',  #124 ) ;
#107 = PLANE ( 'NONE',  #77 ) ;
#108 = EDGE_CURVE ( 'NONE', #44, #134, #126, .T. ) ;
#109 = CLOSED_SHELL ( 'NONE', ( #41, #85, #73, #59, #149, #23 ) ) ;
#110 = SHAPE_DEFINITION_REPRESENTATION ( #87, #228 ) ;
#111 = APPROVAL_STATUS ( 'not_yet_approved' ) ;
#112 = DATE_AND_TIME ( #212, #105 ) ;
#113 =( LENGTH_UNIT ( ) NAMED_UNIT ( * ) SI_UNIT ( .MILLI., .METRE. ) );
#114 = LOCAL_TIME ( 18, 50, 0.000000000000000000, #22 ) ;
#115 = VERTEX_POINT ( 'NONE', #206 ) ;
#116 = EDGE_CURVE ( 'NONE', #115, #167, #34, .T. ) ;
#117 = ORIENTED_EDGE ( 'NONE', *, *, #66, .T. ) ;
#118 = PLANE ( 'NONE',  #199 ) ;
#119 = APPROVAL_PERSON_ORGANIZATION ( #91, #31, #161 ) ;
#120 = DIRECTION ( 'NONE',  ( 0.000000000000000000, 0.000000000000000000, -1.000000000000000000 ) ) ;
#121 = CC_DESIGN_PERSON_AND_ORGANIZATION_ASSIGNMENT ( #182, #217, ( #55 ) ) ;
#122 = DIRECTION ( 'NONE',  ( 1.000000000000000000, 0.000000000000000000, 0.000000000000000000 ) ) ;
#123 = LINE ( 'NONE', #9, #234 ) ;
#124 = AXIS2_PLACEMENT_3D ( 'NONE', #100, #176, #120 ) ;
#125 = CARTESIAN_POINT ( 'NONE',  ( -0.3999991999999999992, 0.07500112000001001034, 0.000000000000000000 ) ) ;
#126 = LINE ( 'NONE', #210, #104 ) ;
#127 = PERSON_AND_ORGANIZATION ( #18446744073709551615, #18446744073709551615 ) ;
#128 = EDGE_CURVE ( 'NONE', #131, #184, #30, .T. ) ;
#129 = LOCAL_TIME ( 18, 50, 0.000000000000000000, #233 ) ;
#130 = COORDINATED_UNIVERSAL_TIME_OFFSET ( 10, 0, .AHEAD. ) ;
#131 = VERTEX_POINT ( 'NONE', #227 ) ;
#132 = ORIENTED_EDGE ( 'NONE', *, *, #16, .T. ) ;
#133 = APPROVAL ( #56, 'Coincident' ) ;
#134 = VERTEX_POINT ( 'NONE', #159 ) ;
#135 = VECTOR ( 'NONE', #156, 1000.000000000000000 ) ;
#136 = EDGE_LOOP ( 'NONE', ( #40, #183, #62, #219 ) ) ;
#137 = FACE_OUTER_BOUND ( 'NONE', #151, .T. ) ;
#138 = VECTOR ( 'NONE', #8, 1000.000000000000000 ) ;
#139 = CARTESIAN_POINT ( 'NONE',  ( 7.114187483501000393E-15, 1.420646268522000110E-14, 0.000000000000000000 ) ) ;
#140 = FACE_OUTER_BOUND ( 'NONE', #136, .T. ) ;
#141 = CARTESIAN_POINT ( 'NONE',  ( -0.3999991999999999992, 0.07500112000001001034, 0.9000007399999999658 ) ) ;
#142 = APPROVAL_PERSON_ORGANIZATION ( #215, #4, #57 ) ;
#143 = LINE ( 'NONE', #49, #221 ) ;
#144 = PERSON_AND_ORGANIZATION_ROLE ( 'creator' ) ;
#145 = EDGE_CURVE ( 'NONE', #78, #61, #204, .T. ) ;
#146 = CC_DESIGN_PERSON_AND_ORGANIZATION_ASSIGNMENT ( #148, #144, ( #211 ) ) ;
#147 = PERSON_AND_ORGANIZATION ( #18446744073709551615, #18446744073709551615 ) ;
#148 = PERSON_AND_ORGANIZATION ( #18446744073709551615, #18446744073709551615 ) ;
#149 = ADVANCED_FACE ( 'NONE', ( #140 ), #106, .T. ) ;
#150 = PRODUCT ( 'Extruded-16.step', 'Extruded-16.step', '', ( #181 ) ) ;
#151 = EDGE_LOOP ( 'NONE', ( #185, #132, #117, #223 ) ) ;
#152 = VECTOR ( 'NONE', #88, 1000.000000000000000 ) ;
#153 = ORIENTED_EDGE ( 'NONE', *, *, #166, .F. ) ;
#154 = CARTESIAN_POINT ( 'NONE',  ( 7.114187483501000393E-15, 1.420646268522000110E-14, 0.9000007399999999658 ) ) ;
#155 = CARTESIAN_POINT ( 'NONE',  ( 0.3999991999999999992, 0.07500112000001001034, 0.9000007399999999658 ) ) ;
#156 = DIRECTION ( 'NONE',  ( 0.000000000000000000, 0.000000000000000000, 1.000000000000000000 ) ) ;
#157 = EDGE_CURVE ( 'NONE', #134, #184, #173, .T. ) ;
#158 = CARTESIAN_POINT ( 'NONE',  ( -0.3999991999999999992, 0.07500112000001001034, 0.9000007399999999658 ) ) ;
#159 = CARTESIAN_POINT ( 'NONE',  ( -0.3999991999999999992, -0.07500111999998000656, 0.9000007399999999658 ) ) ;
#160 = VECTOR ( 'NONE', #169, 1000.000000000000000 ) ;
#161 = APPROVAL_ROLE ( '' ) ;
#162 = APPROVAL_DATE_TIME ( #218, #31 ) ;
#163 = APPLICATION_PROTOCOL_DEFINITION ( 'international standard', 'config_control_design', 1994, #20 ) ;
#164 = DATE_TIME_ROLE ( 'creation_date' ) ;
#165 = ORIENTED_EDGE ( 'NONE', *, *, #157, .T. ) ;
#166 = EDGE_CURVE ( 'NONE', #61, #134, #101, .T. ) ;
#167 = VERTEX_POINT ( 'NONE', #83 ) ;
#168 = PRODUCT_RELATED_PRODUCT_CATEGORY ( 'detail', '', ( #150 ) ) ;
#169 = DIRECTION ( 'NONE',  ( -1.000000000000000000, 0.000000000000000000, 0.000000000000000000 ) ) ;
#170 = FACE_OUTER_BOUND ( 'NONE', #197, .T. ) ;
#171 =( GEOMETRIC_REPRESENTATION_CONTEXT ( 3 ) GLOBAL_UNCERTAINTY_ASSIGNED_CONTEXT ( ( #213 ) ) GLOBAL_UNIT_ASSIGNED_CONTEXT ( ( #113, #232, #17 ) ) REPRESENTATION_CONTEXT ( 'NONE', 'WORKASPACE' ) );
#172 = MANIFOLD_SOLID_BREP ( 'Extruded[1]', #109 ) ;
#173 = LINE ( 'NONE', #32, #80 ) ;
#174 = DIRECTION ( 'NONE',  ( 0.000000000000000000, 0.000000000000000000, 1.000000000000000000 ) ) ;
#175 = DIRECTION ( 'NONE',  ( 0.000000000000000000, 0.000000000000000000, 1.000000000000000000 ) ) ;
#176 = DIRECTION ( 'NONE',  ( 0.000000000000000000, -1.000000000000000000, 0.000000000000000000 ) ) ;
#177 = PLANE ( 'NONE',  #29 ) ;
#178 = APPROVAL_DATE_TIME ( #2, #133 ) ;
#179 = CC_DESIGN_APPROVAL ( #133, ( #21 ) ) ;
#180 = CARTESIAN_POINT ( 'NONE',  ( 0.000000000000000000, 0.000000000000000000, 0.000000000000000000 ) ) ;
#181 = MECHANICAL_CONTEXT ( 'NONE', #42, 'mechanical' ) ;
#182 = PERSON_AND_ORGANIZATION ( #18446744073709551615, #18446744073709551615 ) ;
#183 = ORIENTED_EDGE ( 'NONE', *, *, #166, .T. ) ;
#184 = VERTEX_POINT ( 'NONE', #158 ) ;
#185 = ORIENTED_EDGE ( 'NONE', *, *, #116, .T. ) ;
#186 = FACE_OUTER_BOUND ( 'NONE', #28, .T. ) ;
#187 = EDGE_CURVE ( 'NONE', #115, #78, #35, .T. ) ;
#188 = CARTESIAN_POINT ( 'NONE',  ( -0.3999991999999999992, 0.07500112000001001034, 0.000000000000000000 ) ) ;
#189 = EDGE_CURVE ( 'NONE', #184, #78, #68, .T. ) ;
#190 = DIRECTION ( 'NONE',  ( 0.000000000000000000, -1.000000000000000000, 0.000000000000000000 ) ) ;
#191 = DIRECTION ( 'NONE',  ( 0.000000000000000000, 0.000000000000000000, 1.000000000000000000 ) ) ;
#192 = FACE_OUTER_BOUND ( 'NONE', #27, .T. ) ;
#193 = PERSON_AND_ORGANIZATION ( #18446744073709551615, #18446744073709551615 ) ;
#194 = PERSON_AND_ORGANIZATION_ROLE ( 'creator' ) ;
#195 = APPROVAL_STATUS ( 'not_yet_approved' ) ;
#196 = CALENDAR_DATE ( 2026, 22, 6 ) ;
#197 = EDGE_LOOP ( 'NONE', ( #76, #200, #153, #26 ) ) ;
#198 = ORIENTED_EDGE ( 'NONE', *, *, #66, .F. ) ;
#199 = AXIS2_PLACEMENT_3D ( 'NONE', #154, #48, #70 ) ;
#200 = ORIENTED_EDGE ( 'NONE', *, *, #157, .F. ) ;
#201 = CC_DESIGN_PERSON_AND_ORGANIZATION_ASSIGNMENT ( #127, #194, ( #55 ) ) ;
#202 = LINE ( 'NONE', #98, #160 ) ;
#203 = ORIENTED_EDGE ( 'NONE', *, *, #189, .T. ) ;
#204 = LINE ( 'NONE', #47, #205 ) ;
#205 = VECTOR ( 'NONE', #67, 1000.000000000000000 ) ;
#206 = CARTESIAN_POINT ( 'NONE',  ( 0.3999991999999999992, 0.07500112000001001034, 0.000000000000000000 ) ) ;
#207 = LINE ( 'NONE', #125, #152 ) ;
#208 = DIRECTION ( 'NONE',  ( 1.000000000000000000, 0.000000000000000000, 0.000000000000000000 ) ) ;
#209 = LOCAL_TIME ( 18, 50, 0.000000000000000000, #130 ) ;
#210 = CARTESIAN_POINT ( 'NONE',  ( -0.3999991999999999992, -0.07500111999998000656, 0.000000000000000000 ) ) ;
#211 = PRODUCT_DEFINITION ( 'General', '', #55, #216 ) ;
#212 = CALENDAR_DATE ( 2026, 22, 6 ) ;
#213 = UNCERTAINTY_MEASURE_WITH_UNIT (LENGTH_MEASURE( 1.000000000000000082E-05 ), #113, 'distance_accuracy_value', 'NONE');
#214 = CC_DESIGN_SECURITY_CLASSIFICATION ( #21, ( #55 ) ) ;
#215 = PERSON_AND_ORGANIZATION ( #18446744073709551615, #18446744073709551615 ) ;
#216 = DESIGN_CONTEXT ( 'detailed design', #20, 'design' ) ;
#217 = PERSON_AND_ORGANIZATION_ROLE ( 'design_supplier' ) ;
#218 = DATE_AND_TIME ( #231, #96 ) ;
#219 = ORIENTED_EDGE ( 'NONE', *, *, #16, .F. ) ;
#220 = ORIENTED_EDGE ( 'NONE', *, *, #116, .F. ) ;
#221 = VECTOR ( 'NONE', #64, 1000.000000000000000 ) ;
#222 = DIRECTION ( 'NONE',  ( 1.000000000000000000, 0.000000000000000000, 0.000000000000000000 ) ) ;
#223 = ORIENTED_EDGE ( 'NONE', *, *, #43, .T. ) ;
#224 = CARTESIAN_POINT ( 'NONE',  ( -0.3999991999999999992, -0.07500111999998000656, 0.000000000000000000 ) ) ;
#225 = CARTESIAN_POINT ( 'NONE',  ( -0.3999991999999999992, -0.07500111999998000656, 0.000000000000000000 ) ) ;
#226 = CC_DESIGN_APPROVAL ( #31, ( #211 ) ) ;
#227 = CARTESIAN_POINT ( 'NONE',  ( -0.3999991999999999992, 0.07500112000001001034, 0.000000000000000000 ) ) ;
#228 = ADVANCED_BREP_SHAPE_REPRESENTATION ( 'Extruded-16.step', ( #172, #69 ), #171 ) ;
#229 = CARTESIAN_POINT ( 'NONE',  ( 0.3999991999999999992, 0.07500112000001001034, 0.000000000000000000 ) ) ;
#230 = CARTESIAN_POINT ( 'NONE',  ( 0.3999991999999999992, -0.07500111999998000656, 0.9000007399999999658 ) ) ;
#231 = CALENDAR_DATE ( 2026, 22, 6 ) ;
#232 =( NAMED_UNIT ( * ) PLANE_ANGLE_UNIT ( ) SI_UNIT ( $, .RADIAN. ) );
#233 = COORDINATED_UNIVERSAL_TIME_OFFSET ( 10, 0, .AHEAD. ) ;
#234 = VECTOR ( 'NONE', #13, 1000.000000000000000 ) ;
#235 = APPROVAL_PERSON_ORGANIZATION ( #147, #133, #93 ) ;
ENDSEC;
END-ISO-10303-21;
