ISO-10303-21;
HEADER;
FILE_DESCRIPTION (( 'STEP AP203' ),
    '1' );
FILE_NAME ('Extruded-8.step.STEP',
    '2026-06-22T08:49:55',
    ( 'localuser' ),
    ( '' ),
    'SwSTEP 2.0',
    'SolidWorks 2025',
    '' );
FILE_SCHEMA (( 'CONFIG_CONTROL_DESIGN' ));
ENDSEC;

DATA;
#1 = ORIENTED_EDGE ( 'NONE', *, *, #158, .F. ) ;
#2 = DIRECTION ( 'NONE',  ( 1.000000000000000000, 0.000000000000000000, 0.000000000000000000 ) ) ;
#3 = ORIENTED_EDGE ( 'NONE', *, *, #125, .T. ) ;
#4 = CARTESIAN_POINT ( 'NONE',  ( -2.999999079999999818, -2.999999079999999818, 0.000000000000000000 ) ) ;
#5 = DIRECTION ( 'NONE',  ( 0.000000000000000000, 0.000000000000000000, -1.000000000000000000 ) ) ;
#6 = CC_DESIGN_DATE_AND_TIME_ASSIGNMENT ( #106, #12, ( #44 ) ) ;
#7 = DIRECTION ( 'NONE',  ( 0.000000000000000000, -1.000000000000000000, 0.000000000000000000 ) ) ;
#8 = AXIS2_PLACEMENT_3D ( 'NONE', #22, #174, #58 ) ;
#9 = DIRECTION ( 'NONE',  ( 0.000000000000000000, -1.000000000000000000, 0.000000000000000000 ) ) ;
#10 = CARTESIAN_POINT ( 'NONE',  ( 3.000001619999999924, 3.000001619999999924, 0.000000000000000000 ) ) ;
#11 = CARTESIAN_POINT ( 'NONE',  ( 3.000001619999999924, 3.000001619999999924, 0.000000000000000000 ) ) ;
#12 = DATE_TIME_ROLE ( 'creation_date' ) ;
#13 = SECURITY_CLASSIFICATION ( '', '', #43 ) ;
#14 = DATE_AND_TIME ( #140, #165 ) ;
#15 = PERSON_AND_ORGANIZATION ( #18446744073709551615, #18446744073709551615 ) ;
#16 = PERSON_AND_ORGANIZATION ( #18446744073709551615, #18446744073709551615 ) ;
#17 = CARTESIAN_POINT ( 'NONE',  ( 3.000001619999999924, -2.999999079999999818, 0.000000000000000000 ) ) ;
#18 = EDGE_LOOP ( 'NONE', ( #144, #111, #219, #167 ) ) ;
#19 = ORIENTED_EDGE ( 'NONE', *, *, #90, .F. ) ;
#20 = LINE ( 'NONE', #131, #25 ) ;
#21 = DIRECTION ( 'NONE',  ( 0.000000000000000000, 0.000000000000000000, 1.000000000000000000 ) ) ;
#22 = CARTESIAN_POINT ( 'NONE',  ( 3.000001619999999924, -2.999999079999999818, 0.000000000000000000 ) ) ;
#23 = ADVANCED_BREP_SHAPE_REPRESENTATION ( 'Extruded-8.step', ( #201, #209 ), #74 ) ;
#24 = LINE ( 'NONE', #39, #69 ) ;
#25 = VECTOR ( 'NONE', #21, 1000.000000000000000 ) ;
#26 =( NAMED_UNIT ( * ) PLANE_ANGLE_UNIT ( ) SI_UNIT ( $, .RADIAN. ) );
#27 = CC_DESIGN_PERSON_AND_ORGANIZATION_ASSIGNMENT ( #227, #192, ( #44 ) ) ;
#28 = APPROVAL_STATUS ( 'not_yet_approved' ) ;
#29 = CC_DESIGN_PERSON_AND_ORGANIZATION_ASSIGNMENT ( #231, #229, ( #234 ) ) ;
#30 = DIRECTION ( 'NONE',  ( 1.000000000000000000, 0.000000000000000000, 0.000000000000000000 ) ) ;
#31 = PERSON_AND_ORGANIZATION ( #18446744073709551615, #18446744073709551615 ) ;
#32 = CARTESIAN_POINT ( 'NONE',  ( 3.000001619999999924, 3.000001619999999924, 0.000000000000000000 ) ) ;
#33 = ORIENTED_EDGE ( 'NONE', *, *, #232, .T. ) ;
#34 = VECTOR ( 'NONE', #169, 1000.000000000000000 ) ;
#35 = FACE_OUTER_BOUND ( 'NONE', #214, .T. ) ;
#36 = PLANE ( 'NONE',  #98 ) ;
#37 = DIRECTION ( 'NONE',  ( 0.000000000000000000, 0.000000000000000000, 1.000000000000000000 ) ) ;
#38 = EDGE_CURVE ( 'NONE', #89, #70, #20, .T. ) ;
#39 = CARTESIAN_POINT ( 'NONE',  ( 3.000001619999999924, -2.999999079999999818, 0.9900005599999999184 ) ) ;
#40 = DIRECTION ( 'NONE',  ( 0.000000000000000000, 0.000000000000000000, -1.000000000000000000 ) ) ;
#41 = APPROVAL ( #28, 'Coincident' ) ;
#42 = FACE_OUTER_BOUND ( 'NONE', #200, .T. ) ;
#43 = SECURITY_CLASSIFICATION_LEVEL ( 'unclassified' ) ;
#44 = PRODUCT_DEFINITION ( 'General', '', #234, #49 ) ;
#45 = VECTOR ( 'NONE', #151, 1000.000000000000000 ) ;
#46 = SHAPE_DEFINITION_REPRESENTATION ( #211, #23 ) ;
#47 = PERSON_AND_ORGANIZATION ( #18446744073709551615, #18446744073709551615 ) ;
#48 = AXIS2_PLACEMENT_3D ( 'NONE', #204, #130, #2 ) ;
#49 = DESIGN_CONTEXT ( 'detailed design', #116, 'design' ) ;
#50 = DIRECTION ( 'NONE',  ( 0.000000000000000000, 0.000000000000000000, 1.000000000000000000 ) ) ;
#51 = EDGE_LOOP ( 'NONE', ( #166, #56, #110, #95 ) ) ;
#52 = APPROVAL ( #138, 'Coincident' ) ;
#53 = CARTESIAN_POINT ( 'NONE',  ( 3.000001619999999924, -2.999999079999999818, 0.9900005599999999184 ) ) ;
#54 = AXIS2_PLACEMENT_3D ( 'NONE', #103, #40, #153 ) ;
#55 = LINE ( 'NONE', #185, #93 ) ;
#56 = ORIENTED_EDGE ( 'NONE', *, *, #90, .T. ) ;
#57 = LINE ( 'NONE', #150, #105 ) ;
#58 = DIRECTION ( 'NONE',  ( 0.000000000000000000, 0.000000000000000000, -1.000000000000000000 ) ) ;
#59 = DIRECTION ( 'NONE',  ( 1.000000000000000000, 0.000000000000000000, 0.000000000000000000 ) ) ;
#60 = CARTESIAN_POINT ( 'NONE',  ( -2.999999079999999818, 3.000001619999999924, 0.000000000000000000 ) ) ;
#61 = LOCAL_TIME ( 18, 49, 55.00000000000000000, #143 ) ;
#62 = MECHANICAL_CONTEXT ( 'NONE', #189, 'mechanical' ) ;
#63 = ADVANCED_FACE ( 'NONE', ( #35 ), #203, .T. ) ;
#64 = APPROVAL_ROLE ( '' ) ;
#65 = PERSON_AND_ORGANIZATION ( #18446744073709551615, #18446744073709551615 ) ;
#66 = CC_DESIGN_PERSON_AND_ORGANIZATION_ASSIGNMENT ( #230, #88, ( #13 ) ) ;
#67 = DATE_TIME_ROLE ( 'classification_date' ) ;
#68 = EDGE_LOOP ( 'NONE', ( #146, #186, #127, #19 ) ) ;
#69 = VECTOR ( 'NONE', #187, 1000.000000000000000 ) ;
#70 = VERTEX_POINT ( 'NONE', #233 ) ;
#71 = APPROVAL ( #161, 'Coincident' ) ;
#72 = CARTESIAN_POINT ( 'NONE',  ( -2.999999079999999818, -2.999999079999999818, 0.000000000000000000 ) ) ;
#73 = VERTEX_POINT ( 'NONE', #53 ) ;
#74 =( GEOMETRIC_REPRESENTATION_CONTEXT ( 3 ) GLOBAL_UNCERTAINTY_ASSIGNED_CONTEXT ( ( #199 ) ) GLOBAL_UNIT_ASSIGNED_CONTEXT ( ( #81, #26, #226 ) ) REPRESENTATION_CONTEXT ( 'NONE', 'WORKASPACE' ) );
#75 = DIRECTION ( 'NONE',  ( -1.000000000000000000, 0.000000000000000000, 0.000000000000000000 ) ) ;
#76 = LINE ( 'NONE', #223, #159 ) ;
#77 = APPROVAL_PERSON_ORGANIZATION ( #65, #41, #64 ) ;
#78 = PLANE ( 'NONE',  #54 ) ;
#79 = PRODUCT_RELATED_PRODUCT_CATEGORY ( 'detail', '', ( #220 ) ) ;
#80 = LINE ( 'NONE', #206, #152 ) ;
#81 =( LENGTH_UNIT ( ) NAMED_UNIT ( * ) SI_UNIT ( .MILLI., .METRE. ) );
#82 = CC_DESIGN_APPROVAL ( #52, ( #13 ) ) ;
#83 = VERTEX_POINT ( 'NONE', #17 ) ;
#84 = DATE_AND_TIME ( #194, #61 ) ;
#85 = PERSON_AND_ORGANIZATION_ROLE ( 'creator' ) ;
#86 = CC_DESIGN_DATE_AND_TIME_ASSIGNMENT ( #84, #67, ( #13 ) ) ;
#87 = COORDINATED_UNIVERSAL_TIME_OFFSET ( 10, 0, .AHEAD. ) ;
#88 = PERSON_AND_ORGANIZATION_ROLE ( 'classification_officer' ) ;
#89 = VERTEX_POINT ( 'NONE', #72 ) ;
#90 = EDGE_CURVE ( 'NONE', #83, #89, #55, .T. ) ;
#91 = FACE_OUTER_BOUND ( 'NONE', #51, .T. ) ;
#92 = VECTOR ( 'NONE', #50, 1000.000000000000000 ) ;
#93 = VECTOR ( 'NONE', #184, 1000.000000000000000 ) ;
#94 = ORIENTED_EDGE ( 'NONE', *, *, #125, .F. ) ;
#95 = ORIENTED_EDGE ( 'NONE', *, *, #158, .T. ) ;
#96 = CC_DESIGN_PERSON_AND_ORGANIZATION_ASSIGNMENT ( #15, #85, ( #234 ) ) ;
#97 = PLANE ( 'NONE',  #48 ) ;
#98 = AXIS2_PLACEMENT_3D ( 'NONE', #4, #75, #37 ) ;
#99 = APPROVAL_PERSON_ORGANIZATION ( #47, #71, #210 ) ;
#100 = ADVANCED_FACE ( 'NONE', ( #182 ), #97, .T. ) ;
#101 = LINE ( 'NONE', #11, #121 ) ;
#102 = CARTESIAN_POINT ( 'NONE',  ( -2.999999079999999818, -2.999999079999999818, 0.000000000000000000 ) ) ;
#103 = CARTESIAN_POINT ( 'NONE',  ( 1.269999991108000073E-06, 1.269999984298999942E-06, 0.000000000000000000 ) ) ;
#104 = COORDINATED_UNIVERSAL_TIME_OFFSET ( 10, 0, .AHEAD. ) ;
#105 = VECTOR ( 'NONE', #132, 1000.000000000000000 ) ;
#106 = DATE_AND_TIME ( #141, #108 ) ;
#107 = APPLICATION_PROTOCOL_DEFINITION ( 'international standard', 'config_control_design', 1994, #116 ) ;
#108 = LOCAL_TIME ( 18, 49, 55.00000000000000000, #87 ) ;
#109 = ADVANCED_FACE ( 'NONE', ( #168 ), #36, .T. ) ;
#110 = ORIENTED_EDGE ( 'NONE', *, *, #193, .T. ) ;
#111 = ORIENTED_EDGE ( 'NONE', *, *, #202, .T. ) ;
#112 = EDGE_LOOP ( 'NONE', ( #197, #33, #126, #1 ) ) ;
#113 = ORIENTED_EDGE ( 'NONE', *, *, #232, .F. ) ;
#114 = EDGE_CURVE ( 'NONE', #183, #156, #148, .T. ) ;
#115 = CARTESIAN_POINT ( 'NONE',  ( -2.999999079999999818, 3.000001619999999924, 0.9900005599999999184 ) ) ;
#116 = APPLICATION_CONTEXT ( 'configuration controlled 3d designs of mechanical parts and assemblies' ) ;
#117 = CARTESIAN_POINT ( 'NONE',  ( -2.999999079999999818, 3.000001619999999924, 0.9900005599999999184 ) ) ;
#118 = LINE ( 'NONE', #102, #124 ) ;
#119 = ADVANCED_FACE ( 'NONE', ( #91 ), #78, .T. ) ;
#120 = DATE_AND_TIME ( #181, #191 ) ;
#121 = VECTOR ( 'NONE', #9, 1000.000000000000000 ) ;
#122 = COORDINATED_UNIVERSAL_TIME_OFFSET ( 10, 0, .AHEAD. ) ;
#123 = COORDINATED_UNIVERSAL_TIME_OFFSET ( 10, 0, .AHEAD. ) ;
#124 = VECTOR ( 'NONE', #154, 1000.000000000000000 ) ;
#125 = EDGE_CURVE ( 'NONE', #156, #73, #80, .T. ) ;
#126 = ORIENTED_EDGE ( 'NONE', *, *, #114, .F. ) ;
#127 = ORIENTED_EDGE ( 'NONE', *, *, #38, .F. ) ;
#128 = ADVANCED_FACE ( 'NONE', ( #190 ), #221, .T. ) ;
#129 = DIRECTION ( 'NONE',  ( 1.000000000000000000, 0.000000000000000000, 0.000000000000000000 ) ) ;
#130 = DIRECTION ( 'NONE',  ( -0.000000000000000000, 1.000000000000000000, 0.000000000000000000 ) ) ;
#131 = CARTESIAN_POINT ( 'NONE',  ( -2.999999079999999818, -2.999999079999999818, 0.000000000000000000 ) ) ;
#132 = DIRECTION ( 'NONE',  ( 0.000000000000000000, 1.000000000000000000, 0.000000000000000000 ) ) ;
#133 = CC_DESIGN_PERSON_AND_ORGANIZATION_ASSIGNMENT ( #31, #162, ( #220 ) ) ;
#134 = DIRECTION ( 'NONE',  ( 0.000000000000000000, -1.000000000000000000, 0.000000000000000000 ) ) ;
#135 = PLANE ( 'NONE',  #222 ) ;
#136 = CARTESIAN_POINT ( 'NONE',  ( 3.000001619999999924, -2.999999079999999818, 0.000000000000000000 ) ) ;
#137 = LOCAL_TIME ( 18, 49, 55.00000000000000000, #104 ) ;
#138 = APPROVAL_STATUS ( 'not_yet_approved' ) ;
#139 = EDGE_CURVE ( 'NONE', #73, #70, #24, .T. ) ;
#140 = CALENDAR_DATE ( 2026, 22, 6 ) ;
#141 = CALENDAR_DATE ( 2026, 22, 6 ) ;
#142 = ADVANCED_FACE ( 'NONE', ( #42 ), #135, .F. ) ;
#143 = COORDINATED_UNIVERSAL_TIME_OFFSET ( 10, 0, .AHEAD. ) ;
#144 = ORIENTED_EDGE ( 'NONE', *, *, #38, .T. ) ;
#145 = ORIENTED_EDGE ( 'NONE', *, *, #114, .T. ) ;
#146 = ORIENTED_EDGE ( 'NONE', *, *, #149, .T. ) ;
#147 = VERTEX_POINT ( 'NONE', #60 ) ;
#148 = LINE ( 'NONE', #163, #92 ) ;
#149 = EDGE_CURVE ( 'NONE', #83, #73, #207, .T. ) ;
#150 = CARTESIAN_POINT ( 'NONE',  ( -2.999999079999999818, -2.999999079999999818, 0.9900005599999999184 ) ) ;
#151 = DIRECTION ( 'NONE',  ( 1.000000000000000000, 0.000000000000000000, 0.000000000000000000 ) ) ;
#152 = VECTOR ( 'NONE', #7, 1000.000000000000000 ) ;
#153 = DIRECTION ( 'NONE',  ( 0.000000000000000000, -1.000000000000000000, 0.000000000000000000 ) ) ;
#154 = DIRECTION ( 'NONE',  ( 0.000000000000000000, 1.000000000000000000, 0.000000000000000000 ) ) ;
#155 = LINE ( 'NONE', #224, #205 ) ;
#156 = VERTEX_POINT ( 'NONE', #175 ) ;
#157 = APPROVAL_DATE_TIME ( #14, #71 ) ;
#158 = EDGE_CURVE ( 'NONE', #147, #183, #76, .T. ) ;
#159 = VECTOR ( 'NONE', #59, 1000.000000000000000 ) ;
#160 = APPROVAL_PERSON_ORGANIZATION ( #16, #52, #176 ) ;
#161 = APPROVAL_STATUS ( 'not_yet_approved' ) ;
#162 = PERSON_AND_ORGANIZATION_ROLE ( 'design_owner' ) ;
#163 = CARTESIAN_POINT ( 'NONE',  ( 3.000001619999999924, 3.000001619999999924, 0.000000000000000000 ) ) ;
#164 = ORIENTED_EDGE ( 'NONE', *, *, #202, .F. ) ;
#165 = LOCAL_TIME ( 18, 49, 55.00000000000000000, #123 ) ;
#166 = ORIENTED_EDGE ( 'NONE', *, *, #177, .T. ) ;
#167 = ORIENTED_EDGE ( 'NONE', *, *, #193, .F. ) ;
#168 = FACE_OUTER_BOUND ( 'NONE', #18, .T. ) ;
#169 = DIRECTION ( 'NONE',  ( 0.000000000000000000, 0.000000000000000000, 1.000000000000000000 ) ) ;
#170 = DIRECTION ( 'NONE',  ( 0.000000000000000000, 0.000000000000000000, 1.000000000000000000 ) ) ;
#171 = DIRECTION ( 'NONE',  ( 0.000000000000000000, 0.000000000000000000, 1.000000000000000000 ) ) ;
#172 = EDGE_CURVE ( 'NONE', #147, #228, #155, .T. ) ;
#173 = CC_DESIGN_APPROVAL ( #41, ( #44 ) ) ;
#174 = DIRECTION ( 'NONE',  ( 0.000000000000000000, -1.000000000000000000, 0.000000000000000000 ) ) ;
#175 = CARTESIAN_POINT ( 'NONE',  ( 3.000001619999999924, 3.000001619999999924, 0.9900005599999999184 ) ) ;
#176 = APPROVAL_ROLE ( '' ) ;
#177 = EDGE_CURVE ( 'NONE', #183, #83, #101, .T. ) ;
#178 = CC_DESIGN_SECURITY_CLASSIFICATION ( #13, ( #234 ) ) ;
#179 = CALENDAR_DATE ( 2026, 22, 6 ) ;
#180 = DATE_AND_TIME ( #179, #137 ) ;
#181 = CALENDAR_DATE ( 2026, 22, 6 ) ;
#182 = FACE_OUTER_BOUND ( 'NONE', #112, .T. ) ;
#183 = VERTEX_POINT ( 'NONE', #10 ) ;
#184 = DIRECTION ( 'NONE',  ( -1.000000000000000000, 0.000000000000000000, 0.000000000000000000 ) ) ;
#185 = CARTESIAN_POINT ( 'NONE',  ( 3.000001619999999924, -2.999999079999999818, 0.000000000000000000 ) ) ;
#186 = ORIENTED_EDGE ( 'NONE', *, *, #139, .T. ) ;
#187 = DIRECTION ( 'NONE',  ( -1.000000000000000000, 0.000000000000000000, 0.000000000000000000 ) ) ;
#188 = CARTESIAN_POINT ( 'NONE',  ( 0.000000000000000000, 0.000000000000000000, 0.000000000000000000 ) ) ;
#189 = APPLICATION_CONTEXT ( 'configuration controlled 3d designs of mechanical parts and assemblies' ) ;
#190 = FACE_OUTER_BOUND ( 'NONE', #68, .T. ) ;
#191 = LOCAL_TIME ( 18, 49, 55.00000000000000000, #122 ) ;
#192 = PERSON_AND_ORGANIZATION_ROLE ( 'creator' ) ;
#193 = EDGE_CURVE ( 'NONE', #89, #147, #118, .T. ) ;
#194 = CALENDAR_DATE ( 2026, 22, 6 ) ;
#195 = APPROVAL_DATE_TIME ( #120, #52 ) ;
#196 = AXIS2_PLACEMENT_3D ( 'NONE', #32, #129, #216 ) ;
#197 = ORIENTED_EDGE ( 'NONE', *, *, #172, .T. ) ;
#198 = ORIENTED_EDGE ( 'NONE', *, *, #139, .F. ) ;
#199 = UNCERTAINTY_MEASURE_WITH_UNIT (LENGTH_MEASURE( 1.000000000000000082E-05 ), #81, 'distance_accuracy_value', 'NONE');
#200 = EDGE_LOOP ( 'NONE', ( #113, #164, #198, #94 ) ) ;
#201 = MANIFOLD_SOLID_BREP ( 'Extruded[1]', #217 ) ;
#202 = EDGE_CURVE ( 'NONE', #70, #228, #57, .T. ) ;
#203 = PLANE ( 'NONE',  #196 ) ;
#204 = CARTESIAN_POINT ( 'NONE',  ( -2.999999079999999818, 3.000001619999999924, 0.000000000000000000 ) ) ;
#205 = VECTOR ( 'NONE', #171, 1000.000000000000000 ) ;
#206 = CARTESIAN_POINT ( 'NONE',  ( 3.000001619999999924, 3.000001619999999924, 0.9900005599999999184 ) ) ;
#207 = LINE ( 'NONE', #136, #34 ) ;
#208 = LINE ( 'NONE', #115, #45 ) ;
#209 = AXIS2_PLACEMENT_3D ( 'NONE', #188, #170, #30 ) ;
#210 = APPROVAL_ROLE ( '' ) ;
#211 = PRODUCT_DEFINITION_SHAPE ( 'NONE', 'NONE',  #44 ) ;
#212 = APPLICATION_PROTOCOL_DEFINITION ( 'international standard', 'config_control_design', 1994, #189 ) ;
#213 = APPROVAL_DATE_TIME ( #180, #41 ) ;
#214 = EDGE_LOOP ( 'NONE', ( #145, #3, #218, #215 ) ) ;
#215 = ORIENTED_EDGE ( 'NONE', *, *, #177, .F. ) ;
#216 = DIRECTION ( 'NONE',  ( 0.000000000000000000, 1.000000000000000000, 0.000000000000000000 ) ) ;
#217 = CLOSED_SHELL ( 'NONE', ( #142, #119, #100, #109, #128, #63 ) ) ;
#218 = ORIENTED_EDGE ( 'NONE', *, *, #149, .F. ) ;
#219 = ORIENTED_EDGE ( 'NONE', *, *, #172, .F. ) ;
#220 = PRODUCT ( 'Extruded-8.step', 'Extruded-8.step', '', ( #62 ) ) ;
#221 = PLANE ( 'NONE',  #8 ) ;
#222 = AXIS2_PLACEMENT_3D ( 'NONE', #225, #5, #134 ) ;
#223 = CARTESIAN_POINT ( 'NONE',  ( -2.999999079999999818, 3.000001619999999924, 0.000000000000000000 ) ) ;
#224 = CARTESIAN_POINT ( 'NONE',  ( -2.999999079999999818, 3.000001619999999924, 0.000000000000000000 ) ) ;
#225 = CARTESIAN_POINT ( 'NONE',  ( 1.269999991108000073E-06, 1.269999984298999942E-06, 0.9900005599999999184 ) ) ;
#226 =( NAMED_UNIT ( * ) SI_UNIT ( $, .STERADIAN. ) SOLID_ANGLE_UNIT ( ) );
#227 = PERSON_AND_ORGANIZATION ( #18446744073709551615, #18446744073709551615 ) ;
#228 = VERTEX_POINT ( 'NONE', #117 ) ;
#229 = PERSON_AND_ORGANIZATION_ROLE ( 'design_supplier' ) ;
#230 = PERSON_AND_ORGANIZATION ( #18446744073709551615, #18446744073709551615 ) ;
#231 = PERSON_AND_ORGANIZATION ( #18446744073709551615, #18446744073709551615 ) ;
#232 = EDGE_CURVE ( 'NONE', #228, #156, #208, .T. ) ;
#233 = CARTESIAN_POINT ( 'NONE',  ( -2.999999079999999818, -2.999999079999999818, 0.9900005599999999184 ) ) ;
#234 = PRODUCT_DEFINITION_FORMATION_WITH_SPECIFIED_SOURCE ( 'Symmetric', '', #220, .NOT_KNOWN. ) ;
#235 = CC_DESIGN_APPROVAL ( #71, ( #234 ) ) ;
ENDSEC;
END-ISO-10303-21;
