ISO-10303-21;
HEADER;
FILE_DESCRIPTION (( 'STEP AP203' ),
    '1' );
FILE_NAME ('Extruded-4.step.STEP',
    '2026-06-22T08:49:53',
    ( 'localuser' ),
    ( '' ),
    'SwSTEP 2.0',
    'SolidWorks 2025',
    '' );
FILE_SCHEMA (( 'CONFIG_CONTROL_DESIGN' ));
ENDSEC;

DATA;
#1 = DATE_AND_TIME ( #30, #47 ) ;
#2 = ORIENTED_EDGE ( 'NONE', *, *, #104, .T. ) ;
#3 = PERSON_AND_ORGANIZATION ( #18446744073709551615, #18446744073709551615 ) ;
#4 = ORIENTED_EDGE ( 'NONE', *, *, #173, .T. ) ;
#5 = CARTESIAN_POINT ( 'NONE',  ( 0.000000000000000000, 0.000000000000000000, 0.000000000000000000 ) ) ;
#6 = EDGE_LOOP ( 'NONE', ( #90, #232, #125, #222 ) ) ;
#7 = VECTOR ( 'NONE', #81, 1000.000000000000000 ) ;
#8 = DIRECTION ( 'NONE',  ( -1.000000000000000000, 0.000000000000000000, 0.000000000000000000 ) ) ;
#9 = CARTESIAN_POINT ( 'NONE',  ( 0.2499994999999999856, 0.4499990999999999852, 0.4999989999999999712 ) ) ;
#10 = FACE_OUTER_BOUND ( 'NONE', #6, .T. ) ;
#11 = DIRECTION ( 'NONE',  ( 0.000000000000000000, -1.000000000000000000, 0.000000000000000000 ) ) ;
#12 = EDGE_LOOP ( 'NONE', ( #189, #171, #49, #133 ) ) ;
#13 = FACE_OUTER_BOUND ( 'NONE', #141, .T. ) ;
#14 = PERSON_AND_ORGANIZATION ( #18446744073709551615, #18446744073709551615 ) ;
#15 = VECTOR ( 'NONE', #148, 1000.000000000000000 ) ;
#16 = CARTESIAN_POINT ( 'NONE',  ( -0.2499994999999999856, 0.4499990999999999852, 0.000000000000000000 ) ) ;
#17 = PERSON_AND_ORGANIZATION ( #18446744073709551615, #18446744073709551615 ) ;
#18 = ORIENTED_EDGE ( 'NONE', *, *, #69, .T. ) ;
#19 = COORDINATED_UNIVERSAL_TIME_OFFSET ( 10, 0, .AHEAD. ) ;
#20 = CC_DESIGN_PERSON_AND_ORGANIZATION_ASSIGNMENT ( #3, #70, ( #121 ) ) ;
#21 = ORIENTED_EDGE ( 'NONE', *, *, #229, .T. ) ;
#22 = CC_DESIGN_PERSON_AND_ORGANIZATION_ASSIGNMENT ( #185, #89, ( #217 ) ) ;
#23 = VECTOR ( 'NONE', #215, 1000.000000000000000 ) ;
#24 = EDGE_CURVE ( 'NONE', #37, #181, #155, .T. ) ;
#25 = LINE ( 'NONE', #156, #7 ) ;
#26 = DIRECTION ( 'NONE',  ( 0.000000000000000000, 0.000000000000000000, 1.000000000000000000 ) ) ;
#27 = FACE_OUTER_BOUND ( 'NONE', #12, .T. ) ;
#28 = CARTESIAN_POINT ( 'NONE',  ( 0.2499994999999999856, -0.4499965600000000454, 0.000000000000000000 ) ) ;
#29 = LINE ( 'NONE', #28, #134 ) ;
#30 = CALENDAR_DATE ( 2026, 22, 6 ) ;
#31 = UNCERTAINTY_MEASURE_WITH_UNIT (LENGTH_MEASURE( 1.000000000000000082E-05 ), #48, 'distance_accuracy_value', 'NONE');
#32 = COORDINATED_UNIVERSAL_TIME_OFFSET ( 10, 0, .AHEAD. ) ;
#33 = APPROVAL_PERSON_ORGANIZATION ( #34, #182, #150 ) ;
#34 = PERSON_AND_ORGANIZATION ( #18446744073709551615, #18446744073709551615 ) ;
#35 = PERSON_AND_ORGANIZATION_ROLE ( 'classification_officer' ) ;
#36 = APPROVAL_STATUS ( 'not_yet_approved' ) ;
#37 = VERTEX_POINT ( 'NONE', #187 ) ;
#38 = MANIFOLD_SOLID_BREP ( 'Extruded[1]', #72 ) ;
#39 = EDGE_CURVE ( 'NONE', #184, #111, #64, .T. ) ;
#40 = CARTESIAN_POINT ( 'NONE',  ( -0.2499994999999999856, -0.4499965600000000454, 0.000000000000000000 ) ) ;
#41 =( GEOMETRIC_REPRESENTATION_CONTEXT ( 3 ) GLOBAL_UNCERTAINTY_ASSIGNED_CONTEXT ( ( #31 ) ) GLOBAL_UNIT_ASSIGNED_CONTEXT ( ( #48, #86, #168 ) ) REPRESENTATION_CONTEXT ( 'NONE', 'WORKASPACE' ) );
#42 = PLANE ( 'NONE',  #115 ) ;
#43 = CARTESIAN_POINT ( 'NONE',  ( 0.2499994999999999856, -0.4499965600000000454, 0.000000000000000000 ) ) ;
#44 = CARTESIAN_POINT ( 'NONE',  ( -0.2499994999999999856, 0.4499990999999999852, 0.000000000000000000 ) ) ;
#45 = DIRECTION ( 'NONE',  ( 0.000000000000000000, -1.000000000000000000, 0.000000000000000000 ) ) ;
#46 = AXIS2_PLACEMENT_3D ( 'NONE', #40, #113, #26 ) ;
#47 = LOCAL_TIME ( 18, 49, 53.00000000000000000, #19 ) ;
#48 =( LENGTH_UNIT ( ) NAMED_UNIT ( * ) SI_UNIT ( .MILLI., .METRE. ) );
#49 = ORIENTED_EDGE ( 'NONE', *, *, #104, .F. ) ;
#50 = DATE_AND_TIME ( #162, #62 ) ;
#51 = VERTEX_POINT ( 'NONE', #43 ) ;
#52 = VECTOR ( 'NONE', #191, 1000.000000000000000 ) ;
#53 = APPROVAL_ROLE ( '' ) ;
#54 = ADVANCED_BREP_SHAPE_REPRESENTATION ( 'Extruded-4.step', ( #38, #112 ), #41 ) ;
#55 = SHAPE_DEFINITION_REPRESENTATION ( #95, #54 ) ;
#56 = CC_DESIGN_DATE_AND_TIME_ASSIGNMENT ( #218, #124, ( #217 ) ) ;
#57 = APPLICATION_CONTEXT ( 'configuration controlled 3d designs of mechanical parts and assemblies' ) ;
#58 = LINE ( 'NONE', #9, #96 ) ;
#59 = CARTESIAN_POINT ( 'NONE',  ( 0.2499994999999999856, 0.4499990999999999852, 0.4999989999999999712 ) ) ;
#60 = DIRECTION ( 'NONE',  ( 1.000000000000000000, 0.000000000000000000, 0.000000000000000000 ) ) ;
#61 = EDGE_CURVE ( 'NONE', #212, #169, #208, .T. ) ;
#62 = LOCAL_TIME ( 18, 49, 53.00000000000000000, #107 ) ;
#63 = DIRECTION ( 'NONE',  ( 0.000000000000000000, 0.000000000000000000, 1.000000000000000000 ) ) ;
#64 = LINE ( 'NONE', #44, #129 ) ;
#65 = LINE ( 'NONE', #105, #75 ) ;
#66 = COORDINATED_UNIVERSAL_TIME_OFFSET ( 10, 0, .AHEAD. ) ;
#67 = DATE_TIME_ROLE ( 'classification_date' ) ;
#68 = DIRECTION ( 'NONE',  ( 1.000000000000000000, 0.000000000000000000, 0.000000000000000000 ) ) ;
#69 = EDGE_CURVE ( 'NONE', #181, #151, #58, .T. ) ;
#70 = PERSON_AND_ORGANIZATION_ROLE ( 'design_supplier' ) ;
#71 = ORIENTED_EDGE ( 'NONE', *, *, #166, .F. ) ;
#72 = CLOSED_SHELL ( 'NONE', ( #186, #145, #190, #149, #79, #153 ) ) ;
#73 = APPLICATION_PROTOCOL_DEFINITION ( 'international standard', 'config_control_design', 1994, #130 ) ;
#74 = DESIGN_CONTEXT ( 'detailed design', #57, 'design' ) ;
#75 = VECTOR ( 'NONE', #78, 1000.000000000000000 ) ;
#76 = CC_DESIGN_SECURITY_CLASSIFICATION ( #210, ( #121 ) ) ;
#77 = EDGE_CURVE ( 'NONE', #111, #51, #142, .T. ) ;
#78 = DIRECTION ( 'NONE',  ( -1.000000000000000000, 0.000000000000000000, 0.000000000000000000 ) ) ;
#79 = ADVANCED_FACE ( 'NONE', ( #122 ), #120, .T. ) ;
#80 = DIRECTION ( 'NONE',  ( 0.000000000000000000, 0.000000000000000000, 1.000000000000000000 ) ) ;
#81 = DIRECTION ( 'NONE',  ( 0.000000000000000000, 1.000000000000000000, 0.000000000000000000 ) ) ;
#82 = DIRECTION ( 'NONE',  ( 1.000000000000000000, 0.000000000000000000, 0.000000000000000000 ) ) ;
#83 = ORIENTED_EDGE ( 'NONE', *, *, #106, .T. ) ;
#84 = DIRECTION ( 'NONE',  ( 0.000000000000000000, 0.000000000000000000, -1.000000000000000000 ) ) ;
#85 = APPROVAL_STATUS ( 'not_yet_approved' ) ;
#86 =( NAMED_UNIT ( * ) PLANE_ANGLE_UNIT ( ) SI_UNIT ( $, .RADIAN. ) );
#87 = AXIS2_PLACEMENT_3D ( 'NONE', #98, #11, #140 ) ;
#88 = VECTOR ( 'NONE', #60, 1000.000000000000000 ) ;
#89 = PERSON_AND_ORGANIZATION_ROLE ( 'creator' ) ;
#90 = ORIENTED_EDGE ( 'NONE', *, *, #61, .T. ) ;
#91 = CC_DESIGN_APPROVAL ( #182, ( #217 ) ) ;
#92 = PRODUCT_RELATED_PRODUCT_CATEGORY ( 'detail', '', ( #221 ) ) ;
#93 = DATE_AND_TIME ( #225, #97 ) ;
#94 = CC_DESIGN_APPROVAL ( #114, ( #121 ) ) ;
#95 = PRODUCT_DEFINITION_SHAPE ( 'NONE', 'NONE',  #217 ) ;
#96 = VECTOR ( 'NONE', #45, 1000.000000000000000 ) ;
#97 = LOCAL_TIME ( 18, 49, 53.00000000000000000, #131 ) ;
#98 = CARTESIAN_POINT ( 'NONE',  ( 0.2499994999999999856, -0.4499965600000000454, 0.000000000000000000 ) ) ;
#99 = CARTESIAN_POINT ( 'NONE',  ( -0.2499994999999999856, -0.4499965600000000454, 0.000000000000000000 ) ) ;
#100 = PLANE ( 'NONE',  #224 ) ;
#101 = ORIENTED_EDGE ( 'NONE', *, *, #106, .F. ) ;
#102 = AXIS2_PLACEMENT_3D ( 'NONE', #228, #82, #177 ) ;
#103 = CARTESIAN_POINT ( 'NONE',  ( 0.000000000000000000, 1.269999998511000058E-06, 0.000000000000000000 ) ) ;
#104 = EDGE_CURVE ( 'NONE', #151, #169, #65, .T. ) ;
#105 = CARTESIAN_POINT ( 'NONE',  ( 0.2499994999999999856, -0.4499965600000000454, 0.4999989999999999712 ) ) ;
#106 = EDGE_CURVE ( 'NONE', #51, #151, #174, .T. ) ;
#107 = COORDINATED_UNIVERSAL_TIME_OFFSET ( 10, 0, .AHEAD. ) ;
#108 = EDGE_LOOP ( 'NONE', ( #83, #2, #119, #167 ) ) ;
#109 = EDGE_LOOP ( 'NONE', ( #206, #197, #71, #154 ) ) ;
#110 = ORIENTED_EDGE ( 'NONE', *, *, #39, .T. ) ;
#111 = VERTEX_POINT ( 'NONE', #213 ) ;
#112 = AXIS2_PLACEMENT_3D ( 'NONE', #5, #183, #68 ) ;
#113 = DIRECTION ( 'NONE',  ( -1.000000000000000000, 0.000000000000000000, 0.000000000000000000 ) ) ;
#114 = APPROVAL ( #85, 'Coincident' ) ;
#115 = AXIS2_PLACEMENT_3D ( 'NONE', #211, #117, #233 ) ;
#116 = APPROVAL_PERSON_ORGANIZATION ( #220, #114, #53 ) ;
#117 = DIRECTION ( 'NONE',  ( -0.000000000000000000, 1.000000000000000000, 0.000000000000000000 ) ) ;
#118 = PLANE ( 'NONE',  #102 ) ;
#119 = ORIENTED_EDGE ( 'NONE', *, *, #61, .F. ) ;
#120 = PLANE ( 'NONE',  #87 ) ;
#121 = PRODUCT_DEFINITION_FORMATION_WITH_SPECIFIED_SOURCE ( 'Symmetric', '', #221, .NOT_KNOWN. ) ;
#122 = FACE_OUTER_BOUND ( 'NONE', #108, .T. ) ;
#123 = CALENDAR_DATE ( 2026, 22, 6 ) ;
#124 = DATE_TIME_ROLE ( 'creation_date' ) ;
#125 = ORIENTED_EDGE ( 'NONE', *, *, #192, .F. ) ;
#126 = MECHANICAL_CONTEXT ( 'NONE', #130, 'mechanical' ) ;
#127 = APPROVAL_DATE_TIME ( #50, #182 ) ;
#128 = CC_DESIGN_PERSON_AND_ORGANIZATION_ASSIGNMENT ( #200, #35, ( #210 ) ) ;
#129 = VECTOR ( 'NONE', #214, 1000.000000000000000 ) ;
#130 = APPLICATION_CONTEXT ( 'configuration controlled 3d designs of mechanical parts and assemblies' ) ;
#131 = COORDINATED_UNIVERSAL_TIME_OFFSET ( 10, 0, .AHEAD. ) ;
#132 = APPROVAL ( #170, 'Coincident' ) ;
#133 = ORIENTED_EDGE ( 'NONE', *, *, #69, .F. ) ;
#134 = VECTOR ( 'NONE', #8, 1000.000000000000000 ) ;
#135 = CC_DESIGN_APPROVAL ( #132, ( #210 ) ) ;
#136 = FACE_OUTER_BOUND ( 'NONE', #219, .T. ) ;
#137 = DIRECTION ( 'NONE',  ( 0.000000000000000000, 0.000000000000000000, 1.000000000000000000 ) ) ;
#138 = LOCAL_TIME ( 18, 49, 53.00000000000000000, #32 ) ;
#139 = CARTESIAN_POINT ( 'NONE',  ( 0.000000000000000000, 1.269999998511000058E-06, 0.4999989999999999712 ) ) ;
#140 = DIRECTION ( 'NONE',  ( 0.000000000000000000, 0.000000000000000000, -1.000000000000000000 ) ) ;
#141 = EDGE_LOOP ( 'NONE', ( #146, #18, #101, #195 ) ) ;
#142 = LINE ( 'NONE', #234, #52 ) ;
#143 = DATE_AND_TIME ( #123, #138 ) ;
#144 = PERSON_AND_ORGANIZATION ( #18446744073709551615, #18446744073709551615 ) ;
#145 = ADVANCED_FACE ( 'NONE', ( #136 ), #100, .T. ) ;
#146 = ORIENTED_EDGE ( 'NONE', *, *, #166, .T. ) ;
#147 = PERSON_AND_ORGANIZATION_ROLE ( 'design_owner' ) ;
#148 = DIRECTION ( 'NONE',  ( 0.000000000000000000, 0.000000000000000000, 1.000000000000000000 ) ) ;
#149 = ADVANCED_FACE ( 'NONE', ( #10 ), #158, .T. ) ;
#150 = APPROVAL_ROLE ( '' ) ;
#151 = VERTEX_POINT ( 'NONE', #196 ) ;
#152 = APPROVAL_DATE_TIME ( #93, #132 ) ;
#153 = ADVANCED_FACE ( 'NONE', ( #13 ), #118, .T. ) ;
#154 = ORIENTED_EDGE ( 'NONE', *, *, #39, .F. ) ;
#155 = LINE ( 'NONE', #230, #88 ) ;
#156 = CARTESIAN_POINT ( 'NONE',  ( -0.2499994999999999856, -0.4499965600000000454, 0.4999989999999999712 ) ) ;
#157 = DIRECTION ( 'NONE',  ( 0.000000000000000000, -1.000000000000000000, 0.000000000000000000 ) ) ;
#158 = PLANE ( 'NONE',  #46 ) ;
#159 = EDGE_CURVE ( 'NONE', #169, #37, #25, .T. ) ;
#160 = FACE_OUTER_BOUND ( 'NONE', #109, .T. ) ;
#161 = PLANE ( 'NONE',  #235 ) ;
#162 = CALENDAR_DATE ( 2026, 22, 6 ) ;
#163 = CC_DESIGN_DATE_AND_TIME_ASSIGNMENT ( #1, #67, ( #210 ) ) ;
#164 = SECURITY_CLASSIFICATION_LEVEL ( 'unclassified' ) ;
#165 = PERSON_AND_ORGANIZATION_ROLE ( 'creator' ) ;
#166 = EDGE_CURVE ( 'NONE', #111, #181, #227, .T. ) ;
#167 = ORIENTED_EDGE ( 'NONE', *, *, #173, .F. ) ;
#168 =( NAMED_UNIT ( * ) SI_UNIT ( $, .STERADIAN. ) SOLID_ANGLE_UNIT ( ) );
#169 = VERTEX_POINT ( 'NONE', #199 ) ;
#170 = APPROVAL_STATUS ( 'not_yet_approved' ) ;
#171 = ORIENTED_EDGE ( 'NONE', *, *, #159, .F. ) ;
#172 = VECTOR ( 'NONE', #137, 1000.000000000000000 ) ;
#173 = EDGE_CURVE ( 'NONE', #51, #212, #29, .T. ) ;
#174 = LINE ( 'NONE', #176, #207 ) ;
#175 = CC_DESIGN_PERSON_AND_ORGANIZATION_ASSIGNMENT ( #17, #165, ( #121 ) ) ;
#176 = CARTESIAN_POINT ( 'NONE',  ( 0.2499994999999999856, -0.4499965600000000454, 0.000000000000000000 ) ) ;
#177 = DIRECTION ( 'NONE',  ( 0.000000000000000000, 1.000000000000000000, 0.000000000000000000 ) ) ;
#178 = ORIENTED_EDGE ( 'NONE', *, *, #77, .T. ) ;
#179 = DIRECTION ( 'NONE',  ( 0.000000000000000000, 0.000000000000000000, -1.000000000000000000 ) ) ;
#180 = CALENDAR_DATE ( 2026, 22, 6 ) ;
#181 = VERTEX_POINT ( 'NONE', #59 ) ;
#182 = APPROVAL ( #36, 'Coincident' ) ;
#183 = DIRECTION ( 'NONE',  ( 0.000000000000000000, 0.000000000000000000, 1.000000000000000000 ) ) ;
#184 = VERTEX_POINT ( 'NONE', #231 ) ;
#185 = PERSON_AND_ORGANIZATION ( #18446744073709551615, #18446744073709551615 ) ;
#186 = ADVANCED_FACE ( 'NONE', ( #27 ), #161, .F. ) ;
#187 = CARTESIAN_POINT ( 'NONE',  ( -0.2499994999999999856, 0.4499990999999999852, 0.4999989999999999712 ) ) ;
#188 = CARTESIAN_POINT ( 'NONE',  ( -0.2499994999999999856, -0.4499965600000000454, 0.000000000000000000 ) ) ;
#189 = ORIENTED_EDGE ( 'NONE', *, *, #24, .F. ) ;
#190 = ADVANCED_FACE ( 'NONE', ( #160 ), #42, .T. ) ;
#191 = DIRECTION ( 'NONE',  ( 0.000000000000000000, -1.000000000000000000, 0.000000000000000000 ) ) ;
#192 = EDGE_CURVE ( 'NONE', #184, #37, #193, .T. ) ;
#193 = LINE ( 'NONE', #16, #15 ) ;
#194 = CARTESIAN_POINT ( 'NONE',  ( 0.2499994999999999856, 0.4499990999999999852, 0.000000000000000000 ) ) ;
#195 = ORIENTED_EDGE ( 'NONE', *, *, #77, .F. ) ;
#196 = CARTESIAN_POINT ( 'NONE',  ( 0.2499994999999999856, -0.4499965600000000454, 0.4999989999999999712 ) ) ;
#197 = ORIENTED_EDGE ( 'NONE', *, *, #24, .T. ) ;
#198 = VECTOR ( 'NONE', #63, 1000.000000000000000 ) ;
#199 = CARTESIAN_POINT ( 'NONE',  ( -0.2499994999999999856, -0.4499965600000000454, 0.4999989999999999712 ) ) ;
#200 = PERSON_AND_ORGANIZATION ( #18446744073709551615, #18446744073709551615 ) ;
#201 = LINE ( 'NONE', #188, #23 ) ;
#202 = APPROVAL_DATE_TIME ( #143, #114 ) ;
#203 = APPLICATION_PROTOCOL_DEFINITION ( 'international standard', 'config_control_design', 1994, #57 ) ;
#204 = APPROVAL_PERSON_ORGANIZATION ( #144, #132, #223 ) ;
#205 = CC_DESIGN_PERSON_AND_ORGANIZATION_ASSIGNMENT ( #14, #147, ( #221 ) ) ;
#206 = ORIENTED_EDGE ( 'NONE', *, *, #192, .T. ) ;
#207 = VECTOR ( 'NONE', #80, 1000.000000000000000 ) ;
#208 = LINE ( 'NONE', #99, #198 ) ;
#209 = DIRECTION ( 'NONE',  ( 0.000000000000000000, -1.000000000000000000, 0.000000000000000000 ) ) ;
#210 = SECURITY_CLASSIFICATION ( '', '', #164 ) ;
#211 = CARTESIAN_POINT ( 'NONE',  ( -0.2499994999999999856, 0.4499990999999999852, 0.000000000000000000 ) ) ;
#212 = VERTEX_POINT ( 'NONE', #216 ) ;
#213 = CARTESIAN_POINT ( 'NONE',  ( 0.2499994999999999856, 0.4499990999999999852, 0.000000000000000000 ) ) ;
#214 = DIRECTION ( 'NONE',  ( 1.000000000000000000, 0.000000000000000000, 0.000000000000000000 ) ) ;
#215 = DIRECTION ( 'NONE',  ( 0.000000000000000000, 1.000000000000000000, 0.000000000000000000 ) ) ;
#216 = CARTESIAN_POINT ( 'NONE',  ( -0.2499994999999999856, -0.4499965600000000454, 0.000000000000000000 ) ) ;
#217 = PRODUCT_DEFINITION ( 'General', '', #121, #74 ) ;
#218 = DATE_AND_TIME ( #180, #226 ) ;
#219 = EDGE_LOOP ( 'NONE', ( #178, #4, #21, #110 ) ) ;
#220 = PERSON_AND_ORGANIZATION ( #18446744073709551615, #18446744073709551615 ) ;
#221 = PRODUCT ( 'Extruded-4.step', 'Extruded-4.step', '', ( #126 ) ) ;
#222 = ORIENTED_EDGE ( 'NONE', *, *, #229, .F. ) ;
#223 = APPROVAL_ROLE ( '' ) ;
#224 = AXIS2_PLACEMENT_3D ( 'NONE', #103, #179, #157 ) ;
#225 = CALENDAR_DATE ( 2026, 22, 6 ) ;
#226 = LOCAL_TIME ( 18, 49, 53.00000000000000000, #66 ) ;
#227 = LINE ( 'NONE', #194, #172 ) ;
#228 = CARTESIAN_POINT ( 'NONE',  ( 0.2499994999999999856, 0.4499990999999999852, 0.000000000000000000 ) ) ;
#229 = EDGE_CURVE ( 'NONE', #212, #184, #201, .T. ) ;
#230 = CARTESIAN_POINT ( 'NONE',  ( -0.2499994999999999856, 0.4499990999999999852, 0.4999989999999999712 ) ) ;
#231 = CARTESIAN_POINT ( 'NONE',  ( -0.2499994999999999856, 0.4499990999999999852, 0.000000000000000000 ) ) ;
#232 = ORIENTED_EDGE ( 'NONE', *, *, #159, .T. ) ;
#233 = DIRECTION ( 'NONE',  ( 1.000000000000000000, 0.000000000000000000, 0.000000000000000000 ) ) ;
#234 = CARTESIAN_POINT ( 'NONE',  ( 0.2499994999999999856, 0.4499990999999999852, 0.000000000000000000 ) ) ;
#235 = AXIS2_PLACEMENT_3D ( 'NONE', #139, #84, #209 ) ;
ENDSEC;
END-ISO-10303-21;
