ISO-10303-21;
HEADER;
FILE_DESCRIPTION (( 'STEP AP203' ),
    '1' );
FILE_NAME ('Extruded-5.step.STEP',
    '2026-06-22T08:49:53',
    ( 'localuser' ),
    ( '' ),
    'SwSTEP 2.0',
    'SolidWorks 2025',
    '' );
FILE_SCHEMA (( 'CONFIG_CONTROL_DESIGN' ));
ENDSEC;

DATA;
#1 = DIRECTION ( 'NONE',  ( 0.000000000000000000, -1.000000000000000000, 0.000000000000000000 ) ) ;
#2 = PLANE ( 'NONE',  #110 ) ;
#3 = ORIENTED_EDGE ( 'NONE', *, *, #191, .F. ) ;
#4 = APPROVAL_STATUS ( 'not_yet_approved' ) ;
#5 = ADVANCED_FACE ( 'NONE', ( #15 ), #192, .T. ) ;
#6 = COORDINATED_UNIVERSAL_TIME_OFFSET ( 10, 0, .AHEAD. ) ;
#7 = PERSON_AND_ORGANIZATION_ROLE ( 'creator' ) ;
#8 = AXIS2_PLACEMENT_3D ( 'NONE', #56, #135, #194 ) ;
#9 = PLANE ( 'NONE',  #202 ) ;
#10 = EDGE_CURVE ( 'NONE', #179, #30, #76, .T. ) ;
#11 = CARTESIAN_POINT ( 'NONE',  ( 0.2499994999999999856, -0.04999989999996999612, 0.000000000000000000 ) ) ;
#12 = CARTESIAN_POINT ( 'NONE',  ( 0.2499994999999999856, 0.05000243999999999522, 0.4999989999999999712 ) ) ;
#13 = CARTESIAN_POINT ( 'NONE',  ( -0.2499994999999999856, 0.05000243999999999522, 0.4999989999999999712 ) ) ;
#14 = LOCAL_TIME ( 18, 49, 53.00000000000000000, #6 ) ;
#15 = FACE_OUTER_BOUND ( 'NONE', #152, .T. ) ;
#16 = CARTESIAN_POINT ( 'NONE',  ( 0.2499994999999999856, 0.05000243999999999522, 0.000000000000000000 ) ) ;
#17 =( NAMED_UNIT ( * ) SI_UNIT ( $, .STERADIAN. ) SOLID_ANGLE_UNIT ( ) );
#18 = APPROVAL_STATUS ( 'not_yet_approved' ) ;
#19 = COORDINATED_UNIVERSAL_TIME_OFFSET ( 10, 0, .AHEAD. ) ;
#20 = DATE_TIME_ROLE ( 'creation_date' ) ;
#21 = EDGE_LOOP ( 'NONE', ( #105, #3, #42, #57 ) ) ;
#22 = LOCAL_TIME ( 18, 49, 53.00000000000000000, #41 ) ;
#23 = VECTOR ( 'NONE', #73, 1000.000000000000000 ) ;
#24 = APPROVAL_ROLE ( '' ) ;
#25 = CC_DESIGN_PERSON_AND_ORGANIZATION_ASSIGNMENT ( #67, #170, ( #117 ) ) ;
#26 = PLANE ( 'NONE',  #8 ) ;
#27 = DIRECTION ( 'NONE',  ( 0.000000000000000000, -1.000000000000000000, 0.000000000000000000 ) ) ;
#28 = EDGE_LOOP ( 'NONE', ( #178, #229, #44, #193 ) ) ;
#29 = LINE ( 'NONE', #233, #91 ) ;
#30 = VERTEX_POINT ( 'NONE', #77 ) ;
#31 = CARTESIAN_POINT ( 'NONE',  ( 0.2499994999999999856, 0.05000243999999999522, 0.000000000000000000 ) ) ;
#32 = MANIFOLD_SOLID_BREP ( 'Extruded[1]', #33 ) ;
#33 = CLOSED_SHELL ( 'NONE', ( #143, #228, #5, #93, #115, #221 ) ) ;
#34 = APPLICATION_CONTEXT ( 'configuration controlled 3d designs of mechanical parts and assemblies' ) ;
#35 = DATE_AND_TIME ( #201, #85 ) ;
#36 = APPROVAL ( #4, 'Coincident' ) ;
#37 = FACE_OUTER_BOUND ( 'NONE', #231, .T. ) ;
#38 = ORIENTED_EDGE ( 'NONE', *, *, #175, .F. ) ;
#39 = APPROVAL ( #190, 'Coincident' ) ;
#40 = APPROVAL_DATE_TIME ( #90, #36 ) ;
#41 = COORDINATED_UNIVERSAL_TIME_OFFSET ( 10, 0, .AHEAD. ) ;
#42 = ORIENTED_EDGE ( 'NONE', *, *, #223, .F. ) ;
#43 = ORIENTED_EDGE ( 'NONE', *, *, #10, .T. ) ;
#44 = ORIENTED_EDGE ( 'NONE', *, *, #203, .F. ) ;
#45 = CARTESIAN_POINT ( 'NONE',  ( 0.2499994999999999856, -0.04999989999996999612, 0.000000000000000000 ) ) ;
#46 = FACE_OUTER_BOUND ( 'NONE', #28, .T. ) ;
#47 = FACE_OUTER_BOUND ( 'NONE', #21, .T. ) ;
#48 = CC_DESIGN_APPROVAL ( #54, ( #89 ) ) ;
#49 = VERTEX_POINT ( 'NONE', #157 ) ;
#50 = CARTESIAN_POINT ( 'NONE',  ( -0.2499994999999999856, 0.05000243999999999522, 0.000000000000000000 ) ) ;
#51 = DATE_AND_TIME ( #214, #96 ) ;
#52 = VERTEX_POINT ( 'NONE', #230 ) ;
#53 = AXIS2_PLACEMENT_3D ( 'NONE', #183, #159, #122 ) ;
#54 = APPROVAL ( #18, 'Coincident' ) ;
#55 = CARTESIAN_POINT ( 'NONE',  ( -0.2499994999999999856, -0.04999989999996999612, 0.000000000000000000 ) ) ;
#56 = CARTESIAN_POINT ( 'NONE',  ( 0.2499994999999999856, -0.04999989999996999612, 0.000000000000000000 ) ) ;
#57 = ORIENTED_EDGE ( 'NONE', *, *, #10, .F. ) ;
#58 = AXIS2_PLACEMENT_3D ( 'NONE', #16, #84, #62 ) ;
#59 = DIRECTION ( 'NONE',  ( 0.000000000000000000, 0.000000000000000000, 1.000000000000000000 ) ) ;
#60 = CARTESIAN_POINT ( 'NONE',  ( 0.2499994999999999856, 0.05000243999999999522, 0.4999989999999999712 ) ) ;
#61 = CARTESIAN_POINT ( 'NONE',  ( -0.2499994999999999856, 0.05000243999999999522, 0.000000000000000000 ) ) ;
#62 = DIRECTION ( 'NONE',  ( 0.000000000000000000, 1.000000000000000000, 0.000000000000000000 ) ) ;
#63 = ORIENTED_EDGE ( 'NONE', *, *, #71, .F. ) ;
#64 = CARTESIAN_POINT ( 'NONE',  ( -0.2499994999999999856, -0.04999989999996999612, 0.4999989999999999712 ) ) ;
#65 = COORDINATED_UNIVERSAL_TIME_OFFSET ( 10, 0, .AHEAD. ) ;
#66 = VECTOR ( 'NONE', #209, 1000.000000000000000 ) ;
#67 = PERSON_AND_ORGANIZATION ( #18446744073709551615, #18446744073709551615 ) ;
#68 = CC_DESIGN_PERSON_AND_ORGANIZATION_ASSIGNMENT ( #164, #189, ( #89 ) ) ;
#69 = VECTOR ( 'NONE', #131, 1000.000000000000000 ) ;
#70 = CALENDAR_DATE ( 2026, 22, 6 ) ;
#71 = EDGE_CURVE ( 'NONE', #49, #52, #133, .T. ) ;
#72 = COORDINATED_UNIVERSAL_TIME_OFFSET ( 10, 0, .AHEAD. ) ;
#73 = DIRECTION ( 'NONE',  ( -1.000000000000000000, 0.000000000000000000, 0.000000000000000000 ) ) ;
#74 = CARTESIAN_POINT ( 'NONE',  ( 0.2499994999999999856, 0.05000243999999999522, 0.000000000000000000 ) ) ;
#75 = LINE ( 'NONE', #61, #173 ) ;
#76 = LINE ( 'NONE', #60, #81 ) ;
#77 = CARTESIAN_POINT ( 'NONE',  ( 0.2499994999999999856, -0.04999989999996999612, 0.4999989999999999712 ) ) ;
#78 = PERSON_AND_ORGANIZATION ( #18446744073709551615, #18446744073709551615 ) ;
#79 = CARTESIAN_POINT ( 'NONE',  ( 0.2499994999999999856, -0.04999989999996999612, 0.4999989999999999712 ) ) ;
#80 = VECTOR ( 'NONE', #100, 1000.000000000000000 ) ;
#81 = VECTOR ( 'NONE', #210, 1000.000000000000000 ) ;
#82 = CARTESIAN_POINT ( 'NONE',  ( -5.782398672566000931E-18, 1.270000012707000144E-06, 0.000000000000000000 ) ) ;
#83 = LINE ( 'NONE', #119, #206 ) ;
#84 = DIRECTION ( 'NONE',  ( 1.000000000000000000, 0.000000000000000000, 0.000000000000000000 ) ) ;
#85 = LOCAL_TIME ( 18, 49, 53.00000000000000000, #65 ) ;
#86 = CC_DESIGN_DATE_AND_TIME_ASSIGNMENT ( #35, #20, ( #89 ) ) ;
#87 = CALENDAR_DATE ( 2026, 22, 6 ) ;
#88 = SECURITY_CLASSIFICATION ( '', '', #149 ) ;
#89 = PRODUCT_DEFINITION ( 'General', '', #117, #113 ) ;
#90 = DATE_AND_TIME ( #87, #217 ) ;
#91 = VECTOR ( 'NONE', #59, 1000.000000000000000 ) ;
#92 = LINE ( 'NONE', #45, #127 ) ;
#93 = ADVANCED_FACE ( 'NONE', ( #112 ), #94, .T. ) ;
#94 = PLANE ( 'NONE',  #168 ) ;
#95 = DIRECTION ( 'NONE',  ( 0.000000000000000000, 0.000000000000000000, -1.000000000000000000 ) ) ;
#96 = LOCAL_TIME ( 18, 49, 53.00000000000000000, #19 ) ;
#97 = ORIENTED_EDGE ( 'NONE', *, *, #71, .T. ) ;
#98 = LINE ( 'NONE', #13, #69 ) ;
#99 = LINE ( 'NONE', #79, #222 ) ;
#100 = DIRECTION ( 'NONE',  ( 0.000000000000000000, 1.000000000000000000, 0.000000000000000000 ) ) ;
#101 = APPROVAL_DATE_TIME ( #51, #54 ) ;
#102 = APPROVAL_ROLE ( '' ) ;
#103 = CC_DESIGN_DATE_AND_TIME_ASSIGNMENT ( #151, #225, ( #88 ) ) ;
#104 = ORIENTED_EDGE ( 'NONE', *, *, #215, .F. ) ;
#105 = ORIENTED_EDGE ( 'NONE', *, *, #140, .F. ) ;
#106 = PERSON_AND_ORGANIZATION ( #18446744073709551615, #18446744073709551615 ) ;
#107 = APPROVAL_PERSON_ORGANIZATION ( #124, #54, #213 ) ;
#108 = PERSON_AND_ORGANIZATION ( #18446744073709551615, #18446744073709551615 ) ;
#109 = ORIENTED_EDGE ( 'NONE', *, *, #165, .F. ) ;
#110 = AXIS2_PLACEMENT_3D ( 'NONE', #82, #144, #1 ) ;
#111 = ADVANCED_BREP_SHAPE_REPRESENTATION ( 'Extruded-5.step', ( #32, #53 ), #147 ) ;
#112 = FACE_OUTER_BOUND ( 'NONE', #166, .T. ) ;
#113 = DESIGN_CONTEXT ( 'detailed design', #34, 'design' ) ;
#114 = LINE ( 'NONE', #74, #196 ) ;
#115 = ADVANCED_FACE ( 'NONE', ( #46 ), #26, .T. ) ;
#116 = CARTESIAN_POINT ( 'NONE',  ( -0.2499994999999999856, -0.04999989999996999612, 0.000000000000000000 ) ) ;
#117 = PRODUCT_DEFINITION_FORMATION_WITH_SPECIFIED_SOURCE ( 'Symmetric', '', #219, .NOT_KNOWN. ) ;
#118 = CARTESIAN_POINT ( 'NONE',  ( -5.782398672566000931E-18, 1.270000012707000144E-06, 0.4999989999999999712 ) ) ;
#119 = CARTESIAN_POINT ( 'NONE',  ( -0.2499994999999999856, -0.04999989999996999612, 0.000000000000000000 ) ) ;
#120 = PLANE ( 'NONE',  #58 ) ;
#121 = ORIENTED_EDGE ( 'NONE', *, *, #140, .T. ) ;
#122 = DIRECTION ( 'NONE',  ( 1.000000000000000000, 0.000000000000000000, 0.000000000000000000 ) ) ;
#123 = ORIENTED_EDGE ( 'NONE', *, *, #191, .T. ) ;
#124 = PERSON_AND_ORGANIZATION ( #18446744073709551615, #18446744073709551615 ) ;
#125 = MECHANICAL_CONTEXT ( 'NONE', #224, 'mechanical' ) ;
#126 = CC_DESIGN_PERSON_AND_ORGANIZATION_ASSIGNMENT ( #106, #7, ( #117 ) ) ;
#127 = VECTOR ( 'NONE', #195, 1000.000000000000000 ) ;
#128 = VERTEX_POINT ( 'NONE', #197 ) ;
#129 = APPROVAL_DATE_TIME ( #204, #39 ) ;
#130 = AXIS2_PLACEMENT_3D ( 'NONE', #158, #208, #226 ) ;
#131 = DIRECTION ( 'NONE',  ( 1.000000000000000000, 0.000000000000000000, 0.000000000000000000 ) ) ;
#132 = EDGE_CURVE ( 'NONE', #154, #30, #92, .T. ) ;
#133 = LINE ( 'NONE', #116, #66 ) ;
#134 = LINE ( 'NONE', #64, #80 ) ;
#135 = DIRECTION ( 'NONE',  ( 0.000000000000000000, -1.000000000000000000, 0.000000000000000000 ) ) ;
#136 = ORIENTED_EDGE ( 'NONE', *, *, #187, .F. ) ;
#137 = DIRECTION ( 'NONE',  ( 0.000000000000000000, 0.000000000000000000, 1.000000000000000000 ) ) ;
#138 =( LENGTH_UNIT ( ) NAMED_UNIT ( * ) SI_UNIT ( .MILLI., .METRE. ) );
#139 = DIRECTION ( 'NONE',  ( -1.000000000000000000, 0.000000000000000000, 0.000000000000000000 ) ) ;
#140 = EDGE_CURVE ( 'NONE', #128, #179, #98, .T. ) ;
#141 = ORIENTED_EDGE ( 'NONE', *, *, #132, .F. ) ;
#142 = CC_DESIGN_APPROVAL ( #36, ( #117 ) ) ;
#143 = ADVANCED_FACE ( 'NONE', ( #47 ), #9, .F. ) ;
#144 = DIRECTION ( 'NONE',  ( 0.000000000000000000, 0.000000000000000000, -1.000000000000000000 ) ) ;
#145 = PERSON_AND_ORGANIZATION ( #18446744073709551615, #18446744073709551615 ) ;
#146 = EDGE_CURVE ( 'NONE', #154, #49, #177, .T. ) ;
#147 =( GEOMETRIC_REPRESENTATION_CONTEXT ( 3 ) GLOBAL_UNCERTAINTY_ASSIGNED_CONTEXT ( ( #211 ) ) GLOBAL_UNIT_ASSIGNED_CONTEXT ( ( #138, #185, #17 ) ) REPRESENTATION_CONTEXT ( 'NONE', 'WORKASPACE' ) );
#148 = APPROVAL_PERSON_ORGANIZATION ( #145, #39, #24 ) ;
#149 = SECURITY_CLASSIFICATION_LEVEL ( 'unclassified' ) ;
#150 = EDGE_LOOP ( 'NONE', ( #227, #212, #97, #188 ) ) ;
#151 = DATE_AND_TIME ( #174, #22 ) ;
#152 = EDGE_LOOP ( 'NONE', ( #180, #121, #38, #104 ) ) ;
#153 = CARTESIAN_POINT ( 'NONE',  ( 0.2499994999999999856, -0.04999989999996999612, 0.000000000000000000 ) ) ;
#154 = VERTEX_POINT ( 'NONE', #153 ) ;
#155 = DIRECTION ( 'NONE',  ( 0.000000000000000000, 0.000000000000000000, 1.000000000000000000 ) ) ;
#156 = APPROVAL_PERSON_ORGANIZATION ( #167, #36, #102 ) ;
#157 = CARTESIAN_POINT ( 'NONE',  ( -0.2499994999999999856, -0.04999989999996999612, 0.000000000000000000 ) ) ;
#158 = CARTESIAN_POINT ( 'NONE',  ( -0.2499994999999999856, 0.05000243999999999522, 0.000000000000000000 ) ) ;
#159 = DIRECTION ( 'NONE',  ( 0.000000000000000000, 0.000000000000000000, 1.000000000000000000 ) ) ;
#160 = CC_DESIGN_PERSON_AND_ORGANIZATION_ASSIGNMENT ( #78, #218, ( #219 ) ) ;
#161 = LINE ( 'NONE', #50, #235 ) ;
#162 = CC_DESIGN_SECURITY_CLASSIFICATION ( #88, ( #117 ) ) ;
#163 = DIRECTION ( 'NONE',  ( 0.000000000000000000, 0.000000000000000000, 1.000000000000000000 ) ) ;
#164 = PERSON_AND_ORGANIZATION ( #18446744073709551615, #18446744073709551615 ) ;
#165 = EDGE_CURVE ( 'NONE', #216, #154, #114, .T. ) ;
#166 = EDGE_LOOP ( 'NONE', ( #207, #123, #136, #63 ) ) ;
#167 = PERSON_AND_ORGANIZATION ( #18446744073709551615, #18446744073709551615 ) ;
#168 = AXIS2_PLACEMENT_3D ( 'NONE', #55, #232, #137 ) ;
#169 = ORIENTED_EDGE ( 'NONE', *, *, #175, .T. ) ;
#170 = PERSON_AND_ORGANIZATION_ROLE ( 'design_supplier' ) ;
#171 = CC_DESIGN_PERSON_AND_ORGANIZATION_ASSIGNMENT ( #108, #172, ( #88 ) ) ;
#172 = PERSON_AND_ORGANIZATION_ROLE ( 'classification_officer' ) ;
#173 = VECTOR ( 'NONE', #155, 1000.000000000000000 ) ;
#174 = CALENDAR_DATE ( 2026, 22, 6 ) ;
#175 = EDGE_CURVE ( 'NONE', #216, #179, #29, .T. ) ;
#176 = PRODUCT_DEFINITION_SHAPE ( 'NONE', 'NONE',  #89 ) ;
#177 = LINE ( 'NONE', #11, #23 ) ;
#178 = ORIENTED_EDGE ( 'NONE', *, *, #132, .T. ) ;
#179 = VERTEX_POINT ( 'NONE', #12 ) ;
#180 = ORIENTED_EDGE ( 'NONE', *, *, #187, .T. ) ;
#181 = DIRECTION ( 'NONE',  ( 0.000000000000000000, -1.000000000000000000, 0.000000000000000000 ) ) ;
#182 = FACE_OUTER_BOUND ( 'NONE', #150, .T. ) ;
#183 = CARTESIAN_POINT ( 'NONE',  ( 0.000000000000000000, 0.000000000000000000, 0.000000000000000000 ) ) ;
#184 = CC_DESIGN_APPROVAL ( #39, ( #88 ) ) ;
#185 =( NAMED_UNIT ( * ) PLANE_ANGLE_UNIT ( ) SI_UNIT ( $, .RADIAN. ) );
#186 = APPLICATION_PROTOCOL_DEFINITION ( 'international standard', 'config_control_design', 1994, #224 ) ;
#187 = EDGE_CURVE ( 'NONE', #52, #128, #75, .T. ) ;
#188 = ORIENTED_EDGE ( 'NONE', *, *, #215, .T. ) ;
#189 = PERSON_AND_ORGANIZATION_ROLE ( 'creator' ) ;
#190 = APPROVAL_STATUS ( 'not_yet_approved' ) ;
#191 = EDGE_CURVE ( 'NONE', #205, #128, #134, .T. ) ;
#192 = PLANE ( 'NONE',  #130 ) ;
#193 = ORIENTED_EDGE ( 'NONE', *, *, #146, .F. ) ;
#194 = DIRECTION ( 'NONE',  ( 0.000000000000000000, 0.000000000000000000, -1.000000000000000000 ) ) ;
#195 = DIRECTION ( 'NONE',  ( 0.000000000000000000, 0.000000000000000000, 1.000000000000000000 ) ) ;
#196 = VECTOR ( 'NONE', #27, 1000.000000000000000 ) ;
#197 = CARTESIAN_POINT ( 'NONE',  ( -0.2499994999999999856, 0.05000243999999999522, 0.4999989999999999712 ) ) ;
#198 = DIRECTION ( 'NONE',  ( 1.000000000000000000, 0.000000000000000000, 0.000000000000000000 ) ) ;
#199 = PRODUCT_RELATED_PRODUCT_CATEGORY ( 'detail', '', ( #219 ) ) ;
#200 = CARTESIAN_POINT ( 'NONE',  ( -0.2499994999999999856, -0.04999989999996999612, 0.4999989999999999712 ) ) ;
#201 = CALENDAR_DATE ( 2026, 22, 6 ) ;
#202 = AXIS2_PLACEMENT_3D ( 'NONE', #118, #95, #181 ) ;
#203 = EDGE_CURVE ( 'NONE', #49, #205, #83, .T. ) ;
#204 = DATE_AND_TIME ( #70, #14 ) ;
#205 = VERTEX_POINT ( 'NONE', #200 ) ;
#206 = VECTOR ( 'NONE', #163, 1000.000000000000000 ) ;
#207 = ORIENTED_EDGE ( 'NONE', *, *, #203, .T. ) ;
#208 = DIRECTION ( 'NONE',  ( -0.000000000000000000, 1.000000000000000000, 0.000000000000000000 ) ) ;
#209 = DIRECTION ( 'NONE',  ( 0.000000000000000000, 1.000000000000000000, 0.000000000000000000 ) ) ;
#210 = DIRECTION ( 'NONE',  ( 0.000000000000000000, -1.000000000000000000, 0.000000000000000000 ) ) ;
#211 = UNCERTAINTY_MEASURE_WITH_UNIT (LENGTH_MEASURE( 1.000000000000000082E-05 ), #138, 'distance_accuracy_value', 'NONE');
#212 = ORIENTED_EDGE ( 'NONE', *, *, #146, .T. ) ;
#213 = APPROVAL_ROLE ( '' ) ;
#214 = CALENDAR_DATE ( 2026, 22, 6 ) ;
#215 = EDGE_CURVE ( 'NONE', #52, #216, #161, .T. ) ;
#216 = VERTEX_POINT ( 'NONE', #31 ) ;
#217 = LOCAL_TIME ( 18, 49, 53.00000000000000000, #72 ) ;
#218 = PERSON_AND_ORGANIZATION_ROLE ( 'design_owner' ) ;
#219 = PRODUCT ( 'Extruded-5.step', 'Extruded-5.step', '', ( #125 ) ) ;
#220 = SHAPE_DEFINITION_REPRESENTATION ( #176, #111 ) ;
#221 = ADVANCED_FACE ( 'NONE', ( #37 ), #120, .T. ) ;
#222 = VECTOR ( 'NONE', #139, 1000.000000000000000 ) ;
#223 = EDGE_CURVE ( 'NONE', #30, #205, #99, .T. ) ;
#224 = APPLICATION_CONTEXT ( 'configuration controlled 3d designs of mechanical parts and assemblies' ) ;
#225 = DATE_TIME_ROLE ( 'classification_date' ) ;
#226 = DIRECTION ( 'NONE',  ( 1.000000000000000000, 0.000000000000000000, 0.000000000000000000 ) ) ;
#227 = ORIENTED_EDGE ( 'NONE', *, *, #165, .T. ) ;
#228 = ADVANCED_FACE ( 'NONE', ( #182 ), #2, .T. ) ;
#229 = ORIENTED_EDGE ( 'NONE', *, *, #223, .T. ) ;
#230 = CARTESIAN_POINT ( 'NONE',  ( -0.2499994999999999856, 0.05000243999999999522, 0.000000000000000000 ) ) ;
#231 = EDGE_LOOP ( 'NONE', ( #169, #43, #141, #109 ) ) ;
#232 = DIRECTION ( 'NONE',  ( -1.000000000000000000, 0.000000000000000000, 0.000000000000000000 ) ) ;
#233 = CARTESIAN_POINT ( 'NONE',  ( 0.2499994999999999856, 0.05000243999999999522, 0.000000000000000000 ) ) ;
#234 = APPLICATION_PROTOCOL_DEFINITION ( 'international standard', 'config_control_design', 1994, #34 ) ;
#235 = VECTOR ( 'NONE', #198, 1000.000000000000000 ) ;
ENDSEC;
END-ISO-10303-21;
