ISO-10303-21;
HEADER;
FILE_DESCRIPTION (( 'STEP AP203' ),
    '1' );
FILE_NAME ('Extruded-11.step.STEP',
    '2026-06-22T08:49:56',
    ( 'localuser' ),
    ( '' ),
    'SwSTEP 2.0',
    'SolidWorks 2025',
    '' );
FILE_SCHEMA (( 'CONFIG_CONTROL_DESIGN' ));
ENDSEC;

DATA;
#1 = CARTESIAN_POINT ( 'NONE',  ( 1.499999539999999909, 1.150000240000000007, 0.000000000000000000 ) ) ;
#2 = EDGE_CURVE ( 'NONE', #62, #196, #178, .T. ) ;
#3 = DIRECTION ( 'NONE',  ( 0.000000000000000000, -1.000000000000000000, 0.000000000000000000 ) ) ;
#4 = DATE_AND_TIME ( #59, #171 ) ;
#5 = COORDINATED_UNIVERSAL_TIME_OFFSET ( 10, 0, .AHEAD. ) ;
#6 = MANIFOLD_SOLID_BREP ( 'Extruded[1]', #165 ) ;
#7 =( NAMED_UNIT ( * ) PLANE_ANGLE_UNIT ( ) SI_UNIT ( $, .RADIAN. ) );
#8 = CC_DESIGN_APPROVAL ( #66, ( #132 ) ) ;
#9 = DATE_AND_TIME ( #170, #187 ) ;
#10 = EDGE_CURVE ( 'NONE', #62, #155, #115, .T. ) ;
#11 = PRODUCT_DEFINITION_SHAPE ( 'NONE', 'NONE',  #132 ) ;
#12 = EDGE_CURVE ( 'NONE', #210, #30, #82, .T. ) ;
#13 = ORIENTED_EDGE ( 'NONE', *, *, #156, .F. ) ;
#14 = ORIENTED_EDGE ( 'NONE', *, *, #198, .F. ) ;
#15 = EDGE_LOOP ( 'NONE', ( #152, #151, #47, #230 ) ) ;
#16 = LINE ( 'NONE', #33, #21 ) ;
#17 = LOCAL_TIME ( 18, 49, 56.00000000000000000, #189 ) ;
#18 = DIRECTION ( 'NONE',  ( 0.000000000000000000, 0.000000000000000000, 1.000000000000000000 ) ) ;
#19 = EDGE_CURVE ( 'NONE', #30, #98, #194, .T. ) ;
#20 = CARTESIAN_POINT ( 'NONE',  ( -1.499999539999999909, -1.150000240000000007, 0.000000000000000000 ) ) ;
#21 = VECTOR ( 'NONE', #102, 1000.000000000000000 ) ;
#22 = CARTESIAN_POINT ( 'NONE',  ( -1.499999539999999909, -1.150000240000000007, 0.000000000000000000 ) ) ;
#23 = CC_DESIGN_PERSON_AND_ORGANIZATION_ASSIGNMENT ( #223, #94, ( #222 ) ) ;
#24 = CARTESIAN_POINT ( 'NONE',  ( 0.000000000000000000, 0.000000000000000000, 0.000000000000000000 ) ) ;
#25 = APPROVAL_ROLE ( '' ) ;
#26 = DATE_AND_TIME ( #93, #130 ) ;
#27 = ADVANCED_BREP_SHAPE_REPRESENTATION ( 'Extruded-11.step', ( #6, #227 ), #235 ) ;
#28 =( NAMED_UNIT ( * ) SI_UNIT ( $, .STERADIAN. ) SOLID_ANGLE_UNIT ( ) );
#29 = AXIS2_PLACEMENT_3D ( 'NONE', #107, #85, #74 ) ;
#30 = VERTEX_POINT ( 'NONE', #209 ) ;
#31 = LINE ( 'NONE', #136, #220 ) ;
#32 = DIRECTION ( 'NONE',  ( 0.000000000000000000, 1.000000000000000000, 0.000000000000000000 ) ) ;
#33 = CARTESIAN_POINT ( 'NONE',  ( -1.499999539999999909, -1.150000240000000007, 0.7000011400000000217 ) ) ;
#34 = CARTESIAN_POINT ( 'NONE',  ( 1.499999539999999909, -1.150000240000000007, 0.7000011400000000217 ) ) ;
#35 = LINE ( 'NONE', #20, #208 ) ;
#36 = PRODUCT_RELATED_PRODUCT_CATEGORY ( 'detail', '', ( #222 ) ) ;
#37 = LINE ( 'NONE', #164, #71 ) ;
#38 = UNCERTAINTY_MEASURE_WITH_UNIT (LENGTH_MEASURE( 1.000000000000000082E-05 ), #215, 'distance_accuracy_value', 'NONE');
#39 = CARTESIAN_POINT ( 'NONE',  ( -1.499999539999999909, -1.150000240000000007, 0.7000011400000000217 ) ) ;
#40 = APPROVAL_PERSON_ORGANIZATION ( #131, #66, #25 ) ;
#41 = PERSON_AND_ORGANIZATION ( #18446744073709551615, #18446744073709551615 ) ;
#42 = SHAPE_DEFINITION_REPRESENTATION ( #11, #27 ) ;
#43 = APPROVAL_ROLE ( '' ) ;
#44 = PERSON_AND_ORGANIZATION ( #18446744073709551615, #18446744073709551615 ) ;
#45 = EDGE_LOOP ( 'NONE', ( #117, #101, #100, #84 ) ) ;
#46 = CARTESIAN_POINT ( 'NONE',  ( 1.499999539999999909, -1.150000240000000007, 0.000000000000000000 ) ) ;
#47 = ORIENTED_EDGE ( 'NONE', *, *, #10, .T. ) ;
#48 = VECTOR ( 'NONE', #232, 1000.000000000000000 ) ;
#49 = ORIENTED_EDGE ( 'NONE', *, *, #192, .T. ) ;
#50 = CC_DESIGN_PERSON_AND_ORGANIZATION_ASSIGNMENT ( #186, #225, ( #162 ) ) ;
#51 = FACE_OUTER_BOUND ( 'NONE', #15, .T. ) ;
#52 = APPLICATION_CONTEXT ( 'configuration controlled 3d designs of mechanical parts and assemblies' ) ;
#53 = AXIS2_PLACEMENT_3D ( 'NONE', #159, #202, #105 ) ;
#54 = CARTESIAN_POINT ( 'NONE',  ( -1.499999539999999909, -1.150000240000000007, 0.000000000000000000 ) ) ;
#55 = LINE ( 'NONE', #123, #205 ) ;
#56 = DIRECTION ( 'NONE',  ( 0.000000000000000000, 0.000000000000000000, -1.000000000000000000 ) ) ;
#57 = DATE_AND_TIME ( #219, #17 ) ;
#58 = AXIS2_PLACEMENT_3D ( 'NONE', #22, #234, #145 ) ;
#59 = CALENDAR_DATE ( 2026, 22, 6 ) ;
#60 = COORDINATED_UNIVERSAL_TIME_OFFSET ( 10, 0, .AHEAD. ) ;
#61 = EDGE_CURVE ( 'NONE', #155, #210, #31, .T. ) ;
#62 = VERTEX_POINT ( 'NONE', #161 ) ;
#63 = ORIENTED_EDGE ( 'NONE', *, *, #185, .F. ) ;
#64 = EDGE_LOOP ( 'NONE', ( #14, #83, #174, #135 ) ) ;
#65 = DIRECTION ( 'NONE',  ( 0.000000000000000000, 0.000000000000000000, 1.000000000000000000 ) ) ;
#66 = APPROVAL ( #169, 'Coincident' ) ;
#67 = PRODUCT_DEFINITION_FORMATION_WITH_SPECIFIED_SOURCE ( 'Symmetric', '', #222, .NOT_KNOWN. ) ;
#68 = EDGE_LOOP ( 'NONE', ( #49, #80, #134, #112 ) ) ;
#69 = FACE_OUTER_BOUND ( 'NONE', #68, .T. ) ;
#70 = DIRECTION ( 'NONE',  ( -1.000000000000000000, 0.000000000000000000, 0.000000000000000000 ) ) ;
#71 = VECTOR ( 'NONE', #70, 1000.000000000000000 ) ;
#72 = CARTESIAN_POINT ( 'NONE',  ( -1.499999539999999909, 1.150000240000000007, 0.000000000000000000 ) ) ;
#73 = FACE_OUTER_BOUND ( 'NONE', #226, .T. ) ;
#74 = DIRECTION ( 'NONE',  ( 0.000000000000000000, 0.000000000000000000, -1.000000000000000000 ) ) ;
#75 = CALENDAR_DATE ( 2026, 22, 6 ) ;
#76 = EDGE_CURVE ( 'NONE', #196, #120, #37, .T. ) ;
#77 = PERSON_AND_ORGANIZATION_ROLE ( 'creator' ) ;
#78 = PERSON_AND_ORGANIZATION_ROLE ( 'creator' ) ;
#79 = SECURITY_CLASSIFICATION_LEVEL ( 'unclassified' ) ;
#80 = ORIENTED_EDGE ( 'NONE', *, *, #198, .T. ) ;
#81 = CC_DESIGN_APPROVAL ( #160, ( #67 ) ) ;
#82 = LINE ( 'NONE', #173, #88 ) ;
#83 = ORIENTED_EDGE ( 'NONE', *, *, #76, .F. ) ;
#84 = ORIENTED_EDGE ( 'NONE', *, *, #139, .F. ) ;
#85 = DIRECTION ( 'NONE',  ( 0.000000000000000000, -1.000000000000000000, 0.000000000000000000 ) ) ;
#86 = PLANE ( 'NONE',  #53 ) ;
#87 = CARTESIAN_POINT ( 'NONE',  ( -1.072517426035999817E-14, -7.059343214336000254E-15, 0.7000011400000000217 ) ) ;
#88 = VECTOR ( 'NONE', #229, 1000.000000000000000 ) ;
#89 = AXIS2_PLACEMENT_3D ( 'NONE', #87, #56, #91 ) ;
#90 = DIRECTION ( 'NONE',  ( 0.000000000000000000, 0.000000000000000000, 1.000000000000000000 ) ) ;
#91 = DIRECTION ( 'NONE',  ( 0.000000000000000000, -1.000000000000000000, 0.000000000000000000 ) ) ;
#92 = DATE_TIME_ROLE ( 'classification_date' ) ;
#93 = CALENDAR_DATE ( 2026, 22, 6 ) ;
#94 = PERSON_AND_ORGANIZATION_ROLE ( 'design_owner' ) ;
#95 = PERSON_AND_ORGANIZATION ( #18446744073709551615, #18446744073709551615 ) ;
#96 = DIRECTION ( 'NONE',  ( -1.000000000000000000, 0.000000000000000000, 0.000000000000000000 ) ) ;
#97 = CC_DESIGN_DATE_AND_TIME_ASSIGNMENT ( #207, #92, ( #162 ) ) ;
#98 = VERTEX_POINT ( 'NONE', #201 ) ;
#99 = AXIS2_PLACEMENT_3D ( 'NONE', #197, #218, #104 ) ;
#100 = ORIENTED_EDGE ( 'NONE', *, *, #2, .F. ) ;
#101 = ORIENTED_EDGE ( 'NONE', *, *, #211, .T. ) ;
#102 = DIRECTION ( 'NONE',  ( 0.000000000000000000, 1.000000000000000000, 0.000000000000000000 ) ) ;
#103 = FACE_OUTER_BOUND ( 'NONE', #212, .T. ) ;
#104 = DIRECTION ( 'NONE',  ( 1.000000000000000000, 0.000000000000000000, 0.000000000000000000 ) ) ;
#105 = DIRECTION ( 'NONE',  ( 0.000000000000000000, -1.000000000000000000, 0.000000000000000000 ) ) ;
#106 = ADVANCED_FACE ( 'NONE', ( #51 ), #86, .T. ) ;
#107 = CARTESIAN_POINT ( 'NONE',  ( 1.499999539999999909, -1.150000240000000007, 0.000000000000000000 ) ) ;
#108 = PERSON_AND_ORGANIZATION ( #18446744073709551615, #18446744073709551615 ) ;
#109 = COORDINATED_UNIVERSAL_TIME_OFFSET ( 10, 0, .AHEAD. ) ;
#110 = APPROVAL_STATUS ( 'not_yet_approved' ) ;
#111 = CC_DESIGN_PERSON_AND_ORGANIZATION_ASSIGNMENT ( #108, #148, ( #67 ) ) ;
#112 = ORIENTED_EDGE ( 'NONE', *, *, #61, .F. ) ;
#113 = VECTOR ( 'NONE', #96, 1000.000000000000000 ) ;
#114 = ORIENTED_EDGE ( 'NONE', *, *, #192, .F. ) ;
#115 = LINE ( 'NONE', #231, #113 ) ;
#116 = APPROVAL ( #110, 'Coincident' ) ;
#117 = ORIENTED_EDGE ( 'NONE', *, *, #156, .T. ) ;
#118 = AXIS2_PLACEMENT_3D ( 'NONE', #216, #182, #140 ) ;
#119 = LOCAL_TIME ( 18, 49, 56.00000000000000000, #5 ) ;
#120 = VERTEX_POINT ( 'NONE', #39 ) ;
#121 = DIRECTION ( 'NONE',  ( 1.000000000000000000, 0.000000000000000000, 0.000000000000000000 ) ) ;
#122 = CARTESIAN_POINT ( 'NONE',  ( 1.499999539999999909, 1.150000240000000007, 0.000000000000000000 ) ) ;
#123 = CARTESIAN_POINT ( 'NONE',  ( 1.499999539999999909, 1.150000240000000007, 0.000000000000000000 ) ) ;
#124 = CC_DESIGN_PERSON_AND_ORGANIZATION_ASSIGNMENT ( #41, #78, ( #67 ) ) ;
#125 = PLANE ( 'NONE',  #29 ) ;
#126 = PERSON_AND_ORGANIZATION ( #18446744073709551615, #18446744073709551615 ) ;
#127 = ADVANCED_FACE ( 'NONE', ( #233 ), #217, .F. ) ;
#128 = APPROVAL_STATUS ( 'not_yet_approved' ) ;
#129 = DIRECTION ( 'NONE',  ( 1.000000000000000000, 0.000000000000000000, 0.000000000000000000 ) ) ;
#130 = LOCAL_TIME ( 18, 49, 56.00000000000000000, #147 ) ;
#131 = PERSON_AND_ORGANIZATION ( #18446744073709551615, #18446744073709551615 ) ;
#132 = PRODUCT_DEFINITION ( 'General', '', #67, #214 ) ;
#133 = ORIENTED_EDGE ( 'NONE', *, *, #19, .T. ) ;
#134 = ORIENTED_EDGE ( 'NONE', *, *, #12, .F. ) ;
#135 = ORIENTED_EDGE ( 'NONE', *, *, #19, .F. ) ;
#136 = CARTESIAN_POINT ( 'NONE',  ( -1.499999539999999909, -1.150000240000000007, 0.000000000000000000 ) ) ;
#137 = APPROVAL_PERSON_ORGANIZATION ( #44, #116, #146 ) ;
#138 = ORIENTED_EDGE ( 'NONE', *, *, #12, .T. ) ;
#139 = EDGE_CURVE ( 'NONE', #193, #62, #55, .T. ) ;
#140 = DIRECTION ( 'NONE',  ( 0.000000000000000000, 1.000000000000000000, 0.000000000000000000 ) ) ;
#141 = FACE_OUTER_BOUND ( 'NONE', #45, .T. ) ;
#142 = PLANE ( 'NONE',  #58 ) ;
#143 = CC_DESIGN_DATE_AND_TIME_ASSIGNMENT ( #4, #204, ( #132 ) ) ;
#144 = PLANE ( 'NONE',  #99 ) ;
#145 = DIRECTION ( 'NONE',  ( 0.000000000000000000, 0.000000000000000000, 1.000000000000000000 ) ) ;
#146 = APPROVAL_ROLE ( '' ) ;
#147 = COORDINATED_UNIVERSAL_TIME_OFFSET ( 10, 0, .AHEAD. ) ;
#148 = PERSON_AND_ORGANIZATION_ROLE ( 'design_supplier' ) ;
#149 = VECTOR ( 'NONE', #191, 1000.000000000000000 ) ;
#150 = ADVANCED_FACE ( 'NONE', ( #103 ), #125, .T. ) ;
#151 = ORIENTED_EDGE ( 'NONE', *, *, #139, .T. ) ;
#152 = ORIENTED_EDGE ( 'NONE', *, *, #185, .T. ) ;
#153 = ORIENTED_EDGE ( 'NONE', *, *, #10, .F. ) ;
#154 = ORIENTED_EDGE ( 'NONE', *, *, #2, .T. ) ;
#155 = VERTEX_POINT ( 'NONE', #54 ) ;
#156 = EDGE_CURVE ( 'NONE', #193, #98, #183, .T. ) ;
#157 = VECTOR ( 'NONE', #65, 1000.000000000000000 ) ;
#158 = CARTESIAN_POINT ( 'NONE',  ( 1.499999539999999909, 1.150000240000000007, 0.7000011400000000217 ) ) ;
#159 = CARTESIAN_POINT ( 'NONE',  ( -1.072517426035999817E-14, -7.059343214336000254E-15, 0.000000000000000000 ) ) ;
#160 = APPROVAL ( #128, 'Coincident' ) ;
#161 = CARTESIAN_POINT ( 'NONE',  ( 1.499999539999999909, -1.150000240000000007, 0.000000000000000000 ) ) ;
#162 = SECURITY_CLASSIFICATION ( '', '', #79 ) ;
#163 = PLANE ( 'NONE',  #118 ) ;
#164 = CARTESIAN_POINT ( 'NONE',  ( 1.499999539999999909, -1.150000240000000007, 0.7000011400000000217 ) ) ;
#165 = CLOSED_SHELL ( 'NONE', ( #127, #106, #177, #150, #172, #195 ) ) ;
#166 = MECHANICAL_CONTEXT ( 'NONE', #180, 'mechanical' ) ;
#167 = APPROVAL_DATE_TIME ( #26, #66 ) ;
#168 = CC_DESIGN_PERSON_AND_ORGANIZATION_ASSIGNMENT ( #126, #77, ( #132 ) ) ;
#169 = APPROVAL_STATUS ( 'not_yet_approved' ) ;
#170 = CALENDAR_DATE ( 2026, 22, 6 ) ;
#171 = LOCAL_TIME ( 18, 49, 56.00000000000000000, #60 ) ;
#172 = ADVANCED_FACE ( 'NONE', ( #141 ), #163, .T. ) ;
#173 = CARTESIAN_POINT ( 'NONE',  ( -1.499999539999999909, 1.150000240000000007, 0.000000000000000000 ) ) ;
#174 = ORIENTED_EDGE ( 'NONE', *, *, #211, .F. ) ;
#175 = CC_DESIGN_APPROVAL ( #116, ( #162 ) ) ;
#176 = ORIENTED_EDGE ( 'NONE', *, *, #76, .T. ) ;
#177 = ADVANCED_FACE ( 'NONE', ( #69 ), #142, .T. ) ;
#178 = LINE ( 'NONE', #46, #157 ) ;
#179 = LINE ( 'NONE', #158, #48 ) ;
#180 = APPLICATION_CONTEXT ( 'configuration controlled 3d designs of mechanical parts and assemblies' ) ;
#181 = CARTESIAN_POINT ( 'NONE',  ( -1.499999539999999909, 1.150000240000000007, 0.000000000000000000 ) ) ;
#182 = DIRECTION ( 'NONE',  ( 1.000000000000000000, 0.000000000000000000, 0.000000000000000000 ) ) ;
#183 = LINE ( 'NONE', #122, #224 ) ;
#184 = APPLICATION_PROTOCOL_DEFINITION ( 'international standard', 'config_control_design', 1994, #180 ) ;
#185 = EDGE_CURVE ( 'NONE', #210, #193, #200, .T. ) ;
#186 = PERSON_AND_ORGANIZATION ( #18446744073709551615, #18446744073709551615 ) ;
#187 = LOCAL_TIME ( 18, 49, 56.00000000000000000, #109 ) ;
#188 = APPROVAL_DATE_TIME ( #9, #160 ) ;
#189 = COORDINATED_UNIVERSAL_TIME_OFFSET ( 10, 0, .AHEAD. ) ;
#190 = CARTESIAN_POINT ( 'NONE',  ( -1.499999539999999909, 1.150000240000000007, 0.7000011400000000217 ) ) ;
#191 = DIRECTION ( 'NONE',  ( 1.000000000000000000, 0.000000000000000000, 0.000000000000000000 ) ) ;
#192 = EDGE_CURVE ( 'NONE', #155, #120, #35, .T. ) ;
#193 = VERTEX_POINT ( 'NONE', #1 ) ;
#194 = LINE ( 'NONE', #190, #149 ) ;
#195 = ADVANCED_FACE ( 'NONE', ( #73 ), #144, .T. ) ;
#196 = VERTEX_POINT ( 'NONE', #34 ) ;
#197 = CARTESIAN_POINT ( 'NONE',  ( -1.499999539999999909, 1.150000240000000007, 0.000000000000000000 ) ) ;
#198 = EDGE_CURVE ( 'NONE', #120, #30, #16, .T. ) ;
#199 = VECTOR ( 'NONE', #121, 1000.000000000000000 ) ;
#200 = LINE ( 'NONE', #72, #199 ) ;
#201 = CARTESIAN_POINT ( 'NONE',  ( 1.499999539999999909, 1.150000240000000007, 0.7000011400000000217 ) ) ;
#202 = DIRECTION ( 'NONE',  ( 0.000000000000000000, 0.000000000000000000, -1.000000000000000000 ) ) ;
#203 = APPROVAL_DATE_TIME ( #57, #116 ) ;
#204 = DATE_TIME_ROLE ( 'creation_date' ) ;
#205 = VECTOR ( 'NONE', #3, 1000.000000000000000 ) ;
#206 = DIRECTION ( 'NONE',  ( 0.000000000000000000, 0.000000000000000000, 1.000000000000000000 ) ) ;
#207 = DATE_AND_TIME ( #75, #119 ) ;
#208 = VECTOR ( 'NONE', #90, 1000.000000000000000 ) ;
#209 = CARTESIAN_POINT ( 'NONE',  ( -1.499999539999999909, 1.150000240000000007, 0.7000011400000000217 ) ) ;
#210 = VERTEX_POINT ( 'NONE', #181 ) ;
#211 = EDGE_CURVE ( 'NONE', #98, #196, #179, .T. ) ;
#212 = EDGE_LOOP ( 'NONE', ( #154, #176, #114, #153 ) ) ;
#213 = CC_DESIGN_SECURITY_CLASSIFICATION ( #162, ( #67 ) ) ;
#214 = DESIGN_CONTEXT ( 'detailed design', #52, 'design' ) ;
#215 =( LENGTH_UNIT ( ) NAMED_UNIT ( * ) SI_UNIT ( .MILLI., .METRE. ) );
#216 = CARTESIAN_POINT ( 'NONE',  ( 1.499999539999999909, 1.150000240000000007, 0.000000000000000000 ) ) ;
#217 = PLANE ( 'NONE',  #89 ) ;
#218 = DIRECTION ( 'NONE',  ( -0.000000000000000000, 1.000000000000000000, 0.000000000000000000 ) ) ;
#219 = CALENDAR_DATE ( 2026, 22, 6 ) ;
#220 = VECTOR ( 'NONE', #32, 1000.000000000000000 ) ;
#221 = APPLICATION_PROTOCOL_DEFINITION ( 'international standard', 'config_control_design', 1994, #52 ) ;
#222 = PRODUCT ( 'Extruded-11.step', 'Extruded-11.step', '', ( #166 ) ) ;
#223 = PERSON_AND_ORGANIZATION ( #18446744073709551615, #18446744073709551615 ) ;
#224 = VECTOR ( 'NONE', #18, 1000.000000000000000 ) ;
#225 = PERSON_AND_ORGANIZATION_ROLE ( 'classification_officer' ) ;
#226 = EDGE_LOOP ( 'NONE', ( #138, #133, #13, #63 ) ) ;
#227 = AXIS2_PLACEMENT_3D ( 'NONE', #24, #206, #129 ) ;
#228 = APPROVAL_PERSON_ORGANIZATION ( #95, #160, #43 ) ;
#229 = DIRECTION ( 'NONE',  ( 0.000000000000000000, 0.000000000000000000, 1.000000000000000000 ) ) ;
#230 = ORIENTED_EDGE ( 'NONE', *, *, #61, .T. ) ;
#231 = CARTESIAN_POINT ( 'NONE',  ( 1.499999539999999909, -1.150000240000000007, 0.000000000000000000 ) ) ;
#232 = DIRECTION ( 'NONE',  ( 0.000000000000000000, -1.000000000000000000, 0.000000000000000000 ) ) ;
#233 = FACE_OUTER_BOUND ( 'NONE', #64, .T. ) ;
#234 = DIRECTION ( 'NONE',  ( -1.000000000000000000, 0.000000000000000000, 0.000000000000000000 ) ) ;
#235 =( GEOMETRIC_REPRESENTATION_CONTEXT ( 3 ) GLOBAL_UNCERTAINTY_ASSIGNED_CONTEXT ( ( #38 ) ) GLOBAL_UNIT_ASSIGNED_CONTEXT ( ( #215, #7, #28 ) ) REPRESENTATION_CONTEXT ( 'NONE', 'WORKASPACE' ) );
ENDSEC;
END-ISO-10303-21;
