ISO-10303-21;
HEADER;
FILE_DESCRIPTION (( 'STEP AP203' ),
    '1' );
FILE_NAME ('Extruded-10.step.STEP',
    '2026-06-22T08:49:54',
    ( 'localuser' ),
    ( '' ),
    'SwSTEP 2.0',
    'SolidWorks 2025',
    '' );
FILE_SCHEMA (( 'CONFIG_CONTROL_DESIGN' ));
ENDSEC;

DATA;
#1 = CC_DESIGN_DATE_AND_TIME_ASSIGNMENT ( #46, #110, ( #60 ) ) ;
#2 = DIRECTION ( 'NONE',  ( 0.000000000000000000, 0.000000000000000000, 1.000000000000000000 ) ) ;
#3 = CARTESIAN_POINT ( 'NONE',  ( -0.3999991999999999992, 0.6000013400000000496, 0.000000000000000000 ) ) ;
#4 = APPROVAL_ROLE ( '' ) ;
#5 = PERSON_AND_ORGANIZATION_ROLE ( 'design_owner' ) ;
#6 = ADVANCED_FACE ( 'NONE', ( #133 ), #117, .F. ) ;
#7 =( LENGTH_UNIT ( ) NAMED_UNIT ( * ) SI_UNIT ( .MILLI., .METRE. ) );
#8 = CALENDAR_DATE ( 2026, 22, 6 ) ;
#9 = VECTOR ( 'NONE', #191, 1000.000000000000000 ) ;
#10 = CC_DESIGN_SECURITY_CLASSIFICATION ( #60, ( #113 ) ) ;
#11 = EDGE_CURVE ( 'NONE', #151, #188, #153, .T. ) ;
#12 = EDGE_LOOP ( 'NONE', ( #207, #227, #210, #169 ) ) ;
#13 = VERTEX_POINT ( 'NONE', #14 ) ;
#14 = CARTESIAN_POINT ( 'NONE',  ( 0.3999991999999999992, -0.5999987999999999433, 0.000000000000000000 ) ) ;
#15 = EDGE_LOOP ( 'NONE', ( #96, #116, #119, #49 ) ) ;
#16 = CC_DESIGN_PERSON_AND_ORGANIZATION_ASSIGNMENT ( #220, #127, ( #23 ) ) ;
#17 = CARTESIAN_POINT ( 'NONE',  ( 0.3999991999999999992, -0.5999987999999999433, 0.000000000000000000 ) ) ;
#18 = CARTESIAN_POINT ( 'NONE',  ( 0.3999991999999999992, -0.5999987999999999433, 0.4999989999999999712 ) ) ;
#19 = PLANE ( 'NONE',  #99 ) ;
#20 = VECTOR ( 'NONE', #104, 1000.000000000000000 ) ;
#21 = LINE ( 'NONE', #88, #40 ) ;
#22 = DIRECTION ( 'NONE',  ( -0.000000000000000000, 1.000000000000000000, 0.000000000000000000 ) ) ;
#23 = PRODUCT_DEFINITION ( 'General', '', #113, #142 ) ;
#24 = PERSON_AND_ORGANIZATION ( #18446744073709551615, #18446744073709551615 ) ;
#25 = APPROVAL_STATUS ( 'not_yet_approved' ) ;
#26 = ADVANCED_BREP_SHAPE_REPRESENTATION ( 'Extruded-10.step', ( #111, #52 ), #59 ) ;
#27 = EDGE_CURVE ( 'NONE', #188, #189, #67, .T. ) ;
#28 = PERSON_AND_ORGANIZATION ( #18446744073709551615, #18446744073709551615 ) ;
#29 = VECTOR ( 'NONE', #34, 1000.000000000000000 ) ;
#30 = VERTEX_POINT ( 'NONE', #120 ) ;
#31 = ORIENTED_EDGE ( 'NONE', *, *, #47, .T. ) ;
#32 = EDGE_CURVE ( 'NONE', #51, #135, #161, .T. ) ;
#33 = ORIENTED_EDGE ( 'NONE', *, *, #134, .T. ) ;
#34 = DIRECTION ( 'NONE',  ( 0.000000000000000000, -1.000000000000000000, 0.000000000000000000 ) ) ;
#35 = EDGE_LOOP ( 'NONE', ( #66, #171, #69, #115 ) ) ;
#36 = DIRECTION ( 'NONE',  ( 1.000000000000000000, 0.000000000000000000, 0.000000000000000000 ) ) ;
#37 = CARTESIAN_POINT ( 'NONE',  ( -0.3999991999999999992, 0.6000013400000000496, 0.4999989999999999712 ) ) ;
#38 = LINE ( 'NONE', #70, #20 ) ;
#39 = PLANE ( 'NONE',  #193 ) ;
#40 = VECTOR ( 'NONE', #175, 1000.000000000000000 ) ;
#41 = CARTESIAN_POINT ( 'NONE',  ( 0.3999991999999999992, 0.6000013400000000496, 0.4999989999999999712 ) ) ;
#42 = PERSON_AND_ORGANIZATION ( #18446744073709551615, #18446744073709551615 ) ;
#43 = CC_DESIGN_PERSON_AND_ORGANIZATION_ASSIGNMENT ( #42, #107, ( #60 ) ) ;
#44 = PERSON_AND_ORGANIZATION_ROLE ( 'creator' ) ;
#45 = DATE_AND_TIME ( #201, #68 ) ;
#46 = DATE_AND_TIME ( #166, #194 ) ;
#47 = EDGE_CURVE ( 'NONE', #135, #132, #122, .T. ) ;
#48 = DIRECTION ( 'NONE',  ( 0.000000000000000000, 0.000000000000000000, 1.000000000000000000 ) ) ;
#49 = ORIENTED_EDGE ( 'NONE', *, *, #65, .F. ) ;
#50 = DIRECTION ( 'NONE',  ( 1.000000000000000000, 0.000000000000000000, 0.000000000000000000 ) ) ;
#51 = VERTEX_POINT ( 'NONE', #192 ) ;
#52 = AXIS2_PLACEMENT_3D ( 'NONE', #143, #48, #63 ) ;
#53 = CARTESIAN_POINT ( 'NONE',  ( -0.3999991999999999992, -0.5999987999999999433, 0.000000000000000000 ) ) ;
#54 = DIRECTION ( 'NONE',  ( 0.000000000000000000, 0.000000000000000000, 1.000000000000000000 ) ) ;
#55 = CARTESIAN_POINT ( 'NONE',  ( 0.000000000000000000, 1.269999998479000000E-06, 0.4999989999999999712 ) ) ;
#56 = CARTESIAN_POINT ( 'NONE',  ( -0.3999991999999999992, 0.6000013400000000496, 0.000000000000000000 ) ) ;
#57 = CARTESIAN_POINT ( 'NONE',  ( -0.3999991999999999992, -0.5999987999999999433, 0.000000000000000000 ) ) ;
#58 = DIRECTION ( 'NONE',  ( 0.000000000000000000, 0.000000000000000000, 1.000000000000000000 ) ) ;
#59 =( GEOMETRIC_REPRESENTATION_CONTEXT ( 3 ) GLOBAL_UNCERTAINTY_ASSIGNED_CONTEXT ( ( #178 ) ) GLOBAL_UNIT_ASSIGNED_CONTEXT ( ( #7, #76, #219 ) ) REPRESENTATION_CONTEXT ( 'NONE', 'WORKASPACE' ) );
#60 = SECURITY_CLASSIFICATION ( '', '', #129 ) ;
#61 = EDGE_CURVE ( 'NONE', #189, #51, #21, .T. ) ;
#62 = MECHANICAL_CONTEXT ( 'NONE', #162, 'mechanical' ) ;
#63 = DIRECTION ( 'NONE',  ( 1.000000000000000000, 0.000000000000000000, 0.000000000000000000 ) ) ;
#64 = DATE_TIME_ROLE ( 'creation_date' ) ;
#65 = EDGE_CURVE ( 'NONE', #30, #135, #74, .T. ) ;
#66 = ORIENTED_EDGE ( 'NONE', *, *, #152, .T. ) ;
#67 = LINE ( 'NONE', #53, #87 ) ;
#68 = LOCAL_TIME ( 18, 49, 54.00000000000000000, #200 ) ;
#69 = ORIENTED_EDGE ( 'NONE', *, *, #32, .F. ) ;
#70 = CARTESIAN_POINT ( 'NONE',  ( 0.3999991999999999992, 0.6000013400000000496, 0.000000000000000000 ) ) ;
#71 = CARTESIAN_POINT ( 'NONE',  ( 0.3999991999999999992, 0.6000013400000000496, 0.000000000000000000 ) ) ;
#72 = AXIS2_PLACEMENT_3D ( 'NONE', #57, #22, #106 ) ;
#73 = APPROVAL_PERSON_ORGANIZATION ( #182, #185, #93 ) ;
#74 = LINE ( 'NONE', #214, #223 ) ;
#75 = CARTESIAN_POINT ( 'NONE',  ( 0.3999991999999999992, 0.6000013400000000496, 0.4999989999999999712 ) ) ;
#76 =( NAMED_UNIT ( * ) PLANE_ANGLE_UNIT ( ) SI_UNIT ( $, .RADIAN. ) );
#77 = CLOSED_SHELL ( 'NONE', ( #232, #173, #140, #163, #108, #6 ) ) ;
#78 = COORDINATED_UNIVERSAL_TIME_OFFSET ( 10, 0, .AHEAD. ) ;
#79 = APPLICATION_PROTOCOL_DEFINITION ( 'international standard', 'config_control_design', 1994, #208 ) ;
#80 = DATE_AND_TIME ( #8, #123 ) ;
#81 = LOCAL_TIME ( 18, 49, 54.00000000000000000, #78 ) ;
#82 = ORIENTED_EDGE ( 'NONE', *, *, #152, .F. ) ;
#83 = CARTESIAN_POINT ( 'NONE',  ( -0.3999991999999999992, 0.6000013400000000496, 0.000000000000000000 ) ) ;
#84 = EDGE_CURVE ( 'NONE', #151, #132, #234, .T. ) ;
#85 = CARTESIAN_POINT ( 'NONE',  ( 0.3999991999999999992, -0.5999987999999999433, 0.000000000000000000 ) ) ;
#86 = DIRECTION ( 'NONE',  ( 0.000000000000000000, -1.000000000000000000, 0.000000000000000000 ) ) ;
#87 = VECTOR ( 'NONE', #196, 1000.000000000000000 ) ;
#88 = CARTESIAN_POINT ( 'NONE',  ( -0.3999991999999999992, -0.5999987999999999433, 0.4999989999999999712 ) ) ;
#89 = CARTESIAN_POINT ( 'NONE',  ( -0.3999991999999999992, 0.6000013400000000496, 0.4999989999999999712 ) ) ;
#90 = AXIS2_PLACEMENT_3D ( 'NONE', #55, #103, #176 ) ;
#91 = APPLICATION_PROTOCOL_DEFINITION ( 'international standard', 'config_control_design', 1994, #162 ) ;
#92 = COORDINATED_UNIVERSAL_TIME_OFFSET ( 10, 0, .AHEAD. ) ;
#93 = APPROVAL_ROLE ( '' ) ;
#94 = CC_DESIGN_APPROVAL ( #198, ( #113 ) ) ;
#95 = EDGE_CURVE ( 'NONE', #13, #51, #213, .T. ) ;
#96 = ORIENTED_EDGE ( 'NONE', *, *, #204, .T. ) ;
#97 = ORIENTED_EDGE ( 'NONE', *, *, #27, .T. ) ;
#98 = DIRECTION ( 'NONE',  ( 0.000000000000000000, 1.000000000000000000, 0.000000000000000000 ) ) ;
#99 = AXIS2_PLACEMENT_3D ( 'NONE', #17, #211, #216 ) ;
#100 = ORIENTED_EDGE ( 'NONE', *, *, #180, .F. ) ;
#101 = CARTESIAN_POINT ( 'NONE',  ( -0.3999991999999999992, -0.5999987999999999433, 0.000000000000000000 ) ) ;
#102 = APPROVAL_PERSON_ORGANIZATION ( #205, #154, #4 ) ;
#103 = DIRECTION ( 'NONE',  ( 0.000000000000000000, 0.000000000000000000, 1.000000000000000000 ) ) ;
#104 = DIRECTION ( 'NONE',  ( -1.000000000000000000, 0.000000000000000000, 0.000000000000000000 ) ) ;
#105 = DIRECTION ( 'NONE',  ( 0.000000000000000000, 0.000000000000000000, -1.000000000000000000 ) ) ;
#106 = DIRECTION ( 'NONE',  ( 1.000000000000000000, 0.000000000000000000, 0.000000000000000000 ) ) ;
#107 = PERSON_AND_ORGANIZATION_ROLE ( 'classification_officer' ) ;
#108 = ADVANCED_FACE ( 'NONE', ( #233 ), #126, .F. ) ;
#109 = APPROVAL_DATE_TIME ( #183, #198 ) ;
#110 = DATE_TIME_ROLE ( 'classification_date' ) ;
#111 = MANIFOLD_SOLID_BREP ( 'Extruded[1]', #77 ) ;
#112 = PERSON_AND_ORGANIZATION ( #18446744073709551615, #18446744073709551615 ) ;
#113 = PRODUCT_DEFINITION_FORMATION_WITH_SPECIFIED_SOURCE ( 'Symmetric', '', #148, .NOT_KNOWN. ) ;
#114 = ORIENTED_EDGE ( 'NONE', *, *, #11, .T. ) ;
#115 = ORIENTED_EDGE ( 'NONE', *, *, #95, .F. ) ;
#116 = ORIENTED_EDGE ( 'NONE', *, *, #84, .T. ) ;
#117 = PLANE ( 'NONE',  #226 ) ;
#118 = VECTOR ( 'NONE', #2, 1000.000000000000000 ) ;
#119 = ORIENTED_EDGE ( 'NONE', *, *, #47, .F. ) ;
#120 = CARTESIAN_POINT ( 'NONE',  ( 0.3999991999999999992, 0.6000013400000000496, 0.000000000000000000 ) ) ;
#121 = CC_DESIGN_DATE_AND_TIME_ASSIGNMENT ( #45, #64, ( #23 ) ) ;
#122 = LINE ( 'NONE', #41, #165 ) ;
#123 = LOCAL_TIME ( 18, 49, 54.00000000000000000, #167 ) ;
#124 = FACE_OUTER_BOUND ( 'NONE', #155, .T. ) ;
#125 = DIRECTION ( 'NONE',  ( 0.000000000000000000, 1.000000000000000000, 0.000000000000000000 ) ) ;
#126 = PLANE ( 'NONE',  #72 ) ;
#127 = PERSON_AND_ORGANIZATION_ROLE ( 'creator' ) ;
#128 = AXIS2_PLACEMENT_3D ( 'NONE', #71, #86, #105 ) ;
#129 = SECURITY_CLASSIFICATION_LEVEL ( 'unclassified' ) ;
#130 = SHAPE_DEFINITION_REPRESENTATION ( #187, #26 ) ;
#131 = VECTOR ( 'NONE', #58, 1000.000000000000000 ) ;
#132 = VERTEX_POINT ( 'NONE', #37 ) ;
#133 = FACE_OUTER_BOUND ( 'NONE', #186, .T. ) ;
#134 = EDGE_CURVE ( 'NONE', #132, #189, #139, .T. ) ;
#135 = VERTEX_POINT ( 'NONE', #75 ) ;
#136 = FACE_OUTER_BOUND ( 'NONE', #15, .T. ) ;
#137 = FACE_OUTER_BOUND ( 'NONE', #190, .T. ) ;
#138 = LINE ( 'NONE', #195, #235 ) ;
#139 = LINE ( 'NONE', #89, #202 ) ;
#140 = ADVANCED_FACE ( 'NONE', ( #136 ), #197, .F. ) ;
#141 = CARTESIAN_POINT ( 'NONE',  ( 0.000000000000000000, 1.269999998479000000E-06, 0.000000000000000000 ) ) ;
#142 = DESIGN_CONTEXT ( 'detailed design', #208, 'design' ) ;
#143 = CARTESIAN_POINT ( 'NONE',  ( 0.000000000000000000, 0.000000000000000000, 0.000000000000000000 ) ) ;
#144 = APPROVAL_PERSON_ORGANIZATION ( #112, #198, #206 ) ;
#145 = APPROVAL_DATE_TIME ( #224, #154 ) ;
#146 = PRODUCT_RELATED_PRODUCT_CATEGORY ( 'detail', '', ( #148 ) ) ;
#147 = APPROVAL_STATUS ( 'not_yet_approved' ) ;
#148 = PRODUCT ( 'Extruded-10.step', 'Extruded-10.step', '', ( #62 ) ) ;
#149 = APPROVAL_DATE_TIME ( #80, #185 ) ;
#150 = ORIENTED_EDGE ( 'NONE', *, *, #61, .T. ) ;
#151 = VERTEX_POINT ( 'NONE', #56 ) ;
#152 = EDGE_CURVE ( 'NONE', #13, #30, #158, .T. ) ;
#153 = LINE ( 'NONE', #209, #29 ) ;
#154 = APPROVAL ( #147, 'Coincident' ) ;
#155 = EDGE_LOOP ( 'NONE', ( #184, #82, #100, #230 ) ) ;
#156 = VECTOR ( 'NONE', #125, 1000.000000000000000 ) ;
#157 = DIRECTION ( 'NONE',  ( 1.000000000000000000, 0.000000000000000000, 0.000000000000000000 ) ) ;
#158 = LINE ( 'NONE', #159, #156 ) ;
#159 = CARTESIAN_POINT ( 'NONE',  ( 0.3999991999999999992, -0.5999987999999999433, 0.000000000000000000 ) ) ;
#160 = FACE_OUTER_BOUND ( 'NONE', #35, .T. ) ;
#161 = LINE ( 'NONE', #18, #9 ) ;
#162 = APPLICATION_CONTEXT ( 'configuration controlled 3d designs of mechanical parts and assemblies' ) ;
#163 = ADVANCED_FACE ( 'NONE', ( #160 ), #19, .F. ) ;
#164 = PERSON_AND_ORGANIZATION ( #18446744073709551615, #18446744073709551615 ) ;
#165 = VECTOR ( 'NONE', #174, 1000.000000000000000 ) ;
#166 = CALENDAR_DATE ( 2026, 22, 6 ) ;
#167 = COORDINATED_UNIVERSAL_TIME_OFFSET ( 10, 0, .AHEAD. ) ;
#168 = COORDINATED_UNIVERSAL_TIME_OFFSET ( 10, 0, .AHEAD. ) ;
#169 = ORIENTED_EDGE ( 'NONE', *, *, #27, .F. ) ;
#170 = CC_DESIGN_PERSON_AND_ORGANIZATION_ASSIGNMENT ( #24, #44, ( #113 ) ) ;
#171 = ORIENTED_EDGE ( 'NONE', *, *, #65, .T. ) ;
#172 = ORIENTED_EDGE ( 'NONE', *, *, #32, .T. ) ;
#173 = ADVANCED_FACE ( 'NONE', ( #124 ), #39, .F. ) ;
#174 = DIRECTION ( 'NONE',  ( -1.000000000000000000, 0.000000000000000000, 0.000000000000000000 ) ) ;
#175 = DIRECTION ( 'NONE',  ( 1.000000000000000000, 0.000000000000000000, 0.000000000000000000 ) ) ;
#176 = DIRECTION ( 'NONE',  ( 1.000000000000000000, 0.000000000000000000, 0.000000000000000000 ) ) ;
#177 = DIRECTION ( 'NONE',  ( 0.000000000000000000, -1.000000000000000000, 0.000000000000000000 ) ) ;
#178 = UNCERTAINTY_MEASURE_WITH_UNIT (LENGTH_MEASURE( 1.000000000000000082E-05 ), #7, 'distance_accuracy_value', 'NONE');
#179 = DIRECTION ( 'NONE',  ( 0.000000000000000000, 0.000000000000000000, 1.000000000000000000 ) ) ;
#180 = EDGE_CURVE ( 'NONE', #188, #13, #138, .T. ) ;
#181 = CALENDAR_DATE ( 2026, 22, 6 ) ;
#182 = PERSON_AND_ORGANIZATION ( #18446744073709551615, #18446744073709551615 ) ;
#183 = DATE_AND_TIME ( #222, #203 ) ;
#184 = ORIENTED_EDGE ( 'NONE', *, *, #204, .F. ) ;
#185 = APPROVAL ( #25, 'Coincident' ) ;
#186 = EDGE_LOOP ( 'NONE', ( #114, #97, #225, #228 ) ) ;
#187 = PRODUCT_DEFINITION_SHAPE ( 'NONE', 'NONE',  #23 ) ;
#188 = VERTEX_POINT ( 'NONE', #101 ) ;
#189 = VERTEX_POINT ( 'NONE', #231 ) ;
#190 = EDGE_LOOP ( 'NONE', ( #33, #150, #172, #31 ) ) ;
#191 = DIRECTION ( 'NONE',  ( 0.000000000000000000, 1.000000000000000000, 0.000000000000000000 ) ) ;
#192 = CARTESIAN_POINT ( 'NONE',  ( 0.3999991999999999992, -0.5999987999999999433, 0.4999989999999999712 ) ) ;
#193 = AXIS2_PLACEMENT_3D ( 'NONE', #141, #54, #36 ) ;
#194 = LOCAL_TIME ( 18, 49, 54.00000000000000000, #92 ) ;
#195 = CARTESIAN_POINT ( 'NONE',  ( -0.3999991999999999992, -0.5999987999999999433, 0.000000000000000000 ) ) ;
#196 = DIRECTION ( 'NONE',  ( 0.000000000000000000, 0.000000000000000000, 1.000000000000000000 ) ) ;
#197 = PLANE ( 'NONE',  #128 ) ;
#198 = APPROVAL ( #199, 'Coincident' ) ;
#199 = APPROVAL_STATUS ( 'not_yet_approved' ) ;
#200 = COORDINATED_UNIVERSAL_TIME_OFFSET ( 10, 0, .AHEAD. ) ;
#201 = CALENDAR_DATE ( 2026, 22, 6 ) ;
#202 = VECTOR ( 'NONE', #177, 1000.000000000000000 ) ;
#203 = LOCAL_TIME ( 18, 49, 54.00000000000000000, #168 ) ;
#204 = EDGE_CURVE ( 'NONE', #30, #151, #38, .T. ) ;
#205 = PERSON_AND_ORGANIZATION ( #18446744073709551615, #18446744073709551615 ) ;
#206 = APPROVAL_ROLE ( '' ) ;
#207 = ORIENTED_EDGE ( 'NONE', *, *, #180, .T. ) ;
#208 = APPLICATION_CONTEXT ( 'configuration controlled 3d designs of mechanical parts and assemblies' ) ;
#209 = CARTESIAN_POINT ( 'NONE',  ( -0.3999991999999999992, 0.6000013400000000496, 0.000000000000000000 ) ) ;
#210 = ORIENTED_EDGE ( 'NONE', *, *, #61, .F. ) ;
#211 = DIRECTION ( 'NONE',  ( -1.000000000000000000, 0.000000000000000000, 0.000000000000000000 ) ) ;
#212 = PLANE ( 'NONE',  #90 ) ;
#213 = LINE ( 'NONE', #85, #131 ) ;
#214 = CARTESIAN_POINT ( 'NONE',  ( 0.3999991999999999992, 0.6000013400000000496, 0.000000000000000000 ) ) ;
#215 = CC_DESIGN_PERSON_AND_ORGANIZATION_ASSIGNMENT ( #164, #5, ( #148 ) ) ;
#216 = DIRECTION ( 'NONE',  ( 0.000000000000000000, 0.000000000000000000, 1.000000000000000000 ) ) ;
#217 = PERSON_AND_ORGANIZATION_ROLE ( 'design_supplier' ) ;
#218 = CC_DESIGN_APPROVAL ( #154, ( #23 ) ) ;
#219 =( NAMED_UNIT ( * ) SI_UNIT ( $, .STERADIAN. ) SOLID_ANGLE_UNIT ( ) );
#220 = PERSON_AND_ORGANIZATION ( #18446744073709551615, #18446744073709551615 ) ;
#221 = CC_DESIGN_PERSON_AND_ORGANIZATION_ASSIGNMENT ( #28, #217, ( #113 ) ) ;
#222 = CALENDAR_DATE ( 2026, 22, 6 ) ;
#223 = VECTOR ( 'NONE', #179, 1000.000000000000000 ) ;
#224 = DATE_AND_TIME ( #181, #81 ) ;
#225 = ORIENTED_EDGE ( 'NONE', *, *, #134, .F. ) ;
#226 = AXIS2_PLACEMENT_3D ( 'NONE', #83, #50, #98 ) ;
#227 = ORIENTED_EDGE ( 'NONE', *, *, #95, .T. ) ;
#228 = ORIENTED_EDGE ( 'NONE', *, *, #84, .F. ) ;
#229 = CC_DESIGN_APPROVAL ( #185, ( #60 ) ) ;
#230 = ORIENTED_EDGE ( 'NONE', *, *, #11, .F. ) ;
#231 = CARTESIAN_POINT ( 'NONE',  ( -0.3999991999999999992, -0.5999987999999999433, 0.4999989999999999712 ) ) ;
#232 = ADVANCED_FACE ( 'NONE', ( #137 ), #212, .T. ) ;
#233 = FACE_OUTER_BOUND ( 'NONE', #12, .T. ) ;
#234 = LINE ( 'NONE', #3, #118 ) ;
#235 = VECTOR ( 'NONE', #157, 1000.000000000000000 ) ;
ENDSEC;
END-ISO-10303-21;
