ISO-10303-21;
HEADER;
FILE_DESCRIPTION (( 'STEP AP203' ),
    '1' );
FILE_NAME ('Extruded-1.step.STEP',
    '2026-06-22T08:49:53',
    ( 'localuser' ),
    ( '' ),
    'SwSTEP 2.0',
    'SolidWorks 2025',
    '' );
FILE_SCHEMA (( 'CONFIG_CONTROL_DESIGN' ));
ENDSEC;

DATA;
#1 = LINE ( 'NONE', #148, #221 ) ;
#2 = CARTESIAN_POINT ( 'NONE',  ( -0.6500012400000000357, 0.7749997200000000586, 0.000000000000000000 ) ) ;
#3 = ORIENTED_EDGE ( 'NONE', *, *, #135, .T. ) ;
#4 = PLANE ( 'NONE',  #112 ) ;
#5 = DIRECTION ( 'NONE',  ( 0.000000000000000000, 0.000000000000000000, -1.000000000000000000 ) ) ;
#6 = LINE ( 'NONE', #171, #142 ) ;
#7 = MECHANICAL_CONTEXT ( 'NONE', #130, 'mechanical' ) ;
#8 = CC_DESIGN_SECURITY_CLASSIFICATION ( #235, ( #116 ) ) ;
#9 = ORIENTED_EDGE ( 'NONE', *, *, #123, .F. ) ;
#10 = CARTESIAN_POINT ( 'NONE',  ( 0.6500012400000000357, 0.7749997200000000586, 0.000000000000000000 ) ) ;
#11 = CARTESIAN_POINT ( 'NONE',  ( -0.6500012400000000357, -0.7749997200000000586, 0.000000000000000000 ) ) ;
#12 = CC_DESIGN_PERSON_AND_ORGANIZATION_ASSIGNMENT ( #13, #91, ( #116 ) ) ;
#13 = PERSON_AND_ORGANIZATION ( #18446744073709551615, #18446744073709551615 ) ;
#14 = ORIENTED_EDGE ( 'NONE', *, *, #16, .T. ) ;
#15 = VERTEX_POINT ( 'NONE', #205 ) ;
#16 = EDGE_CURVE ( 'NONE', #158, #15, #149, .T. ) ;
#17 = VECTOR ( 'NONE', #180, 1000.000000000000000 ) ;
#18 = CC_DESIGN_APPROVAL ( #65, ( #116 ) ) ;
#19 = CARTESIAN_POINT ( 'NONE',  ( 0.6500012400000000357, -0.7749997200000000586, 0.000000000000000000 ) ) ;
#20 = VERTEX_POINT ( 'NONE', #110 ) ;
#21 = CC_DESIGN_PERSON_AND_ORGANIZATION_ASSIGNMENT ( #23, #98, ( #235 ) ) ;
#22 = VECTOR ( 'NONE', #102, 1000.000000000000000 ) ;
#23 = PERSON_AND_ORGANIZATION ( #18446744073709551615, #18446744073709551615 ) ;
#24 = ORIENTED_EDGE ( 'NONE', *, *, #192, .T. ) ;
#25 = CARTESIAN_POINT ( 'NONE',  ( -7.050885336145998479E-15, 1.421863617510000088E-14, 0.000000000000000000 ) ) ;
#26 = PLANE ( 'NONE',  #193 ) ;
#27 = CALENDAR_DATE ( 2026, 22, 6 ) ;
#28 = ORIENTED_EDGE ( 'NONE', *, *, #147, .T. ) ;
#29 = APPROVAL_PERSON_ORGANIZATION ( #119, #231, #43 ) ;
#30 = CALENDAR_DATE ( 2026, 22, 6 ) ;
#31 = CC_DESIGN_PERSON_AND_ORGANIZATION_ASSIGNMENT ( #128, #76, ( #153 ) ) ;
#32 = VERTEX_POINT ( 'NONE', #208 ) ;
#33 = ORIENTED_EDGE ( 'NONE', *, *, #129, .F. ) ;
#34 = DIRECTION ( 'NONE',  ( 0.000000000000000000, 0.000000000000000000, 1.000000000000000000 ) ) ;
#35 = SECURITY_CLASSIFICATION_LEVEL ( 'unclassified' ) ;
#36 = LINE ( 'NONE', #190, #74 ) ;
#37 = CARTESIAN_POINT ( 'NONE',  ( 0.6500012400000000357, 0.7749997200000000586, 0.000000000000000000 ) ) ;
#38 =( NAMED_UNIT ( * ) SI_UNIT ( $, .STERADIAN. ) SOLID_ANGLE_UNIT ( ) );
#39 = ORIENTED_EDGE ( 'NONE', *, *, #200, .T. ) ;
#40 = PRODUCT_RELATED_PRODUCT_CATEGORY ( 'detail', '', ( #219 ) ) ;
#41 = DATE_AND_TIME ( #27, #113 ) ;
#42 = VECTOR ( 'NONE', #82, 1000.000000000000000 ) ;
#43 = APPROVAL_ROLE ( '' ) ;
#44 = APPROVAL_DATE_TIME ( #214, #231 ) ;
#45 = ORIENTED_EDGE ( 'NONE', *, *, #147, .F. ) ;
#46 = EDGE_CURVE ( 'NONE', #173, #194, #144, .T. ) ;
#47 = CC_DESIGN_APPROVAL ( #231, ( #235 ) ) ;
#48 = COORDINATED_UNIVERSAL_TIME_OFFSET ( 10, 0, .AHEAD. ) ;
#49 = ORIENTED_EDGE ( 'NONE', *, *, #46, .F. ) ;
#50 = CARTESIAN_POINT ( 'NONE',  ( -0.6500012400000000357, 0.7749997200000000586, 0.000000000000000000 ) ) ;
#51 = EDGE_CURVE ( 'NONE', #120, #20, #224, .T. ) ;
#52 = EDGE_LOOP ( 'NONE', ( #117, #24, #64, #33 ) ) ;
#53 = LOCAL_TIME ( 18, 49, 53.00000000000000000, #155 ) ;
#54 = LINE ( 'NONE', #71, #42 ) ;
#55 = CC_DESIGN_PERSON_AND_ORGANIZATION_ASSIGNMENT ( #169, #167, ( #219 ) ) ;
#56 = CALENDAR_DATE ( 2026, 22, 6 ) ;
#57 = FACE_OUTER_BOUND ( 'NONE', #52, .T. ) ;
#58 = APPLICATION_PROTOCOL_DEFINITION ( 'international standard', 'config_control_design', 1994, #130 ) ;
#59 = CC_DESIGN_PERSON_AND_ORGANIZATION_ASSIGNMENT ( #152, #191, ( #116 ) ) ;
#60 = APPROVAL_STATUS ( 'not_yet_approved' ) ;
#61 = CARTESIAN_POINT ( 'NONE',  ( -0.6500012400000000357, -0.7749997200000000586, 0.000000000000000000 ) ) ;
#62 =( GEOMETRIC_REPRESENTATION_CONTEXT ( 3 ) GLOBAL_UNCERTAINTY_ASSIGNED_CONTEXT ( ( #139 ) ) GLOBAL_UNIT_ASSIGNED_CONTEXT ( ( #185, #209, #38 ) ) REPRESENTATION_CONTEXT ( 'NONE', 'WORKASPACE' ) );
#63 = DIRECTION ( 'NONE',  ( 1.000000000000000000, 0.000000000000000000, 0.000000000000000000 ) ) ;
#64 = ORIENTED_EDGE ( 'NONE', *, *, #187, .F. ) ;
#65 = APPROVAL ( #132, 'Coincident' ) ;
#66 = COORDINATED_UNIVERSAL_TIME_OFFSET ( 10, 0, .AHEAD. ) ;
#67 = ORIENTED_EDGE ( 'NONE', *, *, #135, .F. ) ;
#68 = SHAPE_DEFINITION_REPRESENTATION ( #90, #162 ) ;
#69 = VERTEX_POINT ( 'NONE', #170 ) ;
#70 = ADVANCED_FACE ( 'NONE', ( #57 ), #151, .F. ) ;
#71 = CARTESIAN_POINT ( 'NONE',  ( 0.6500012400000000357, -0.7749997200000000586, 0.4999989999999999712 ) ) ;
#72 = ORIENTED_EDGE ( 'NONE', *, *, #200, .F. ) ;
#73 = DIRECTION ( 'NONE',  ( 0.000000000000000000, 0.000000000000000000, 1.000000000000000000 ) ) ;
#74 = VECTOR ( 'NONE', #211, 1000.000000000000000 ) ;
#75 = CALENDAR_DATE ( 2026, 22, 6 ) ;
#76 = PERSON_AND_ORGANIZATION_ROLE ( 'creator' ) ;
#77 = COORDINATED_UNIVERSAL_TIME_OFFSET ( 10, 0, .AHEAD. ) ;
#78 = DIRECTION ( 'NONE',  ( 1.000000000000000000, 0.000000000000000000, 0.000000000000000000 ) ) ;
#79 = DIRECTION ( 'NONE',  ( 1.000000000000000000, 0.000000000000000000, 0.000000000000000000 ) ) ;
#80 = AXIS2_PLACEMENT_3D ( 'NONE', #104, #204, #121 ) ;
#81 = VECTOR ( 'NONE', #73, 1000.000000000000000 ) ;
#82 = DIRECTION ( 'NONE',  ( 0.000000000000000000, 1.000000000000000000, 0.000000000000000000 ) ) ;
#83 = FACE_OUTER_BOUND ( 'NONE', #157, .T. ) ;
#84 = AXIS2_PLACEMENT_3D ( 'NONE', #206, #188, #63 ) ;
#85 = APPLICATION_CONTEXT ( 'configuration controlled 3d designs of mechanical parts and assemblies' ) ;
#86 = ADVANCED_FACE ( 'NONE', ( #189 ), #4, .F. ) ;
#87 = DIRECTION ( 'NONE',  ( -1.000000000000000000, 0.000000000000000000, 0.000000000000000000 ) ) ;
#88 = APPROVAL_ROLE ( '' ) ;
#89 = DIRECTION ( 'NONE',  ( 0.000000000000000000, 1.000000000000000000, 0.000000000000000000 ) ) ;
#90 = PRODUCT_DEFINITION_SHAPE ( 'NONE', 'NONE',  #153 ) ;
#91 = PERSON_AND_ORGANIZATION_ROLE ( 'creator' ) ;
#92 = EDGE_CURVE ( 'NONE', #69, #158, #210, .T. ) ;
#93 = VECTOR ( 'NONE', #168, 1000.000000000000000 ) ;
#94 = LOCAL_TIME ( 18, 49, 53.00000000000000000, #66 ) ;
#95 = PERSON_AND_ORGANIZATION ( #18446744073709551615, #18446744073709551615 ) ;
#96 = EDGE_LOOP ( 'NONE', ( #67, #99, #49, #45 ) ) ;
#97 = AXIS2_PLACEMENT_3D ( 'NONE', #166, #203, #89 ) ;
#98 = PERSON_AND_ORGANIZATION_ROLE ( 'classification_officer' ) ;
#99 = ORIENTED_EDGE ( 'NONE', *, *, #218, .F. ) ;
#100 = CARTESIAN_POINT ( 'NONE',  ( -0.6500012400000000357, -0.7749997200000000586, 0.4999989999999999712 ) ) ;
#101 = ADVANCED_FACE ( 'NONE', ( #186 ), #154, .T. ) ;
#102 = DIRECTION ( 'NONE',  ( -1.000000000000000000, 0.000000000000000000, 0.000000000000000000 ) ) ;
#103 = PLANE ( 'NONE',  #106 ) ;
#104 = CARTESIAN_POINT ( 'NONE',  ( -0.6500012400000000357, -0.7749997200000000586, 0.000000000000000000 ) ) ;
#105 = CC_DESIGN_DATE_AND_TIME_ASSIGNMENT ( #177, #115, ( #235 ) ) ;
#106 = AXIS2_PLACEMENT_3D ( 'NONE', #220, #181, #179 ) ;
#107 = DATE_AND_TIME ( #75, #53 ) ;
#108 = CARTESIAN_POINT ( 'NONE',  ( -0.6500012400000000357, -0.7749997200000000586, 0.4999989999999999712 ) ) ;
#109 = DIRECTION ( 'NONE',  ( 0.000000000000000000, 0.000000000000000000, 1.000000000000000000 ) ) ;
#110 = CARTESIAN_POINT ( 'NONE',  ( 0.6500012400000000357, -0.7749997200000000586, 0.4999989999999999712 ) ) ;
#111 = DIRECTION ( 'NONE',  ( 0.000000000000000000, 0.000000000000000000, 1.000000000000000000 ) ) ;
#112 = AXIS2_PLACEMENT_3D ( 'NONE', #10, #131, #5 ) ;
#113 = LOCAL_TIME ( 18, 49, 53.00000000000000000, #150 ) ;
#114 = DATE_TIME_ROLE ( 'creation_date' ) ;
#115 = DATE_TIME_ROLE ( 'classification_date' ) ;
#116 = PRODUCT_DEFINITION_FORMATION_WITH_SPECIFIED_SOURCE ( 'Symmetric', '', #219, .NOT_KNOWN. ) ;
#117 = ORIENTED_EDGE ( 'NONE', *, *, #46, .T. ) ;
#118 = EDGE_LOOP ( 'NONE', ( #14, #136, #143, #126 ) ) ;
#119 = PERSON_AND_ORGANIZATION ( #18446744073709551615, #18446744073709551615 ) ;
#120 = VERTEX_POINT ( 'NONE', #100 ) ;
#121 = DIRECTION ( 'NONE',  ( 1.000000000000000000, 0.000000000000000000, 0.000000000000000000 ) ) ;
#122 = AXIS2_PLACEMENT_3D ( 'NONE', #223, #34, #79 ) ;
#123 = EDGE_CURVE ( 'NONE', #20, #158, #54, .T. ) ;
#124 = FACE_OUTER_BOUND ( 'NONE', #137, .T. ) ;
#125 = DIRECTION ( 'NONE',  ( 0.000000000000000000, -1.000000000000000000, 0.000000000000000000 ) ) ;
#126 = ORIENTED_EDGE ( 'NONE', *, *, #123, .T. ) ;
#127 = APPROVAL_PERSON_ORGANIZATION ( #95, #141, #88 ) ;
#128 = PERSON_AND_ORGANIZATION ( #18446744073709551615, #18446744073709551615 ) ;
#129 = EDGE_CURVE ( 'NONE', #173, #15, #197, .T. ) ;
#130 = APPLICATION_CONTEXT ( 'configuration controlled 3d designs of mechanical parts and assemblies' ) ;
#131 = DIRECTION ( 'NONE',  ( 0.000000000000000000, -1.000000000000000000, 0.000000000000000000 ) ) ;
#132 = APPROVAL_STATUS ( 'not_yet_approved' ) ;
#133 = PERSON_AND_ORGANIZATION ( #18446744073709551615, #18446744073709551615 ) ;
#134 = APPROVAL_STATUS ( 'not_yet_approved' ) ;
#135 = EDGE_CURVE ( 'NONE', #32, #69, #140, .T. ) ;
#136 = ORIENTED_EDGE ( 'NONE', *, *, #187, .T. ) ;
#137 = EDGE_LOOP ( 'NONE', ( #232, #39, #178, #175 ) ) ;
#138 = DIRECTION ( 'NONE',  ( 0.000000000000000000, 1.000000000000000000, 0.000000000000000000 ) ) ;
#139 = UNCERTAINTY_MEASURE_WITH_UNIT (LENGTH_MEASURE( 1.000000000000000082E-05 ), #185, 'distance_accuracy_value', 'NONE');
#140 = LINE ( 'NONE', #19, #165 ) ;
#141 = APPROVAL ( #60, 'Coincident' ) ;
#142 = VECTOR ( 'NONE', #111, 1000.000000000000000 ) ;
#143 = ORIENTED_EDGE ( 'NONE', *, *, #51, .T. ) ;
#144 = LINE ( 'NONE', #145, #201 ) ;
#145 = CARTESIAN_POINT ( 'NONE',  ( -0.6500012400000000357, 0.7749997200000000586, 0.000000000000000000 ) ) ;
#146 = DATE_AND_TIME ( #56, #156 ) ;
#147 = EDGE_CURVE ( 'NONE', #69, #173, #198, .T. ) ;
#148 = CARTESIAN_POINT ( 'NONE',  ( -0.6500012400000000357, 0.7749997200000000586, 0.4999989999999999712 ) ) ;
#149 = LINE ( 'NONE', #184, #207 ) ;
#150 = COORDINATED_UNIVERSAL_TIME_OFFSET ( 10, 0, .AHEAD. ) ;
#151 = PLANE ( 'NONE',  #97 ) ;
#152 = PERSON_AND_ORGANIZATION ( #18446744073709551615, #18446744073709551615 ) ;
#153 = PRODUCT_DEFINITION ( 'General', '', #116, #199 ) ;
#154 = PLANE ( 'NONE',  #122 ) ;
#155 = COORDINATED_UNIVERSAL_TIME_OFFSET ( 10, 0, .AHEAD. ) ;
#156 = LOCAL_TIME ( 18, 49, 53.00000000000000000, #77 ) ;
#157 = EDGE_LOOP ( 'NONE', ( #3, #176, #9, #72 ) ) ;
#158 = VERTEX_POINT ( 'NONE', #164 ) ;
#159 = ADVANCED_FACE ( 'NONE', ( #83 ), #103, .F. ) ;
#160 = EDGE_LOOP ( 'NONE', ( #28, #182, #215, #233 ) ) ;
#161 = CALENDAR_DATE ( 2026, 22, 6 ) ;
#162 = ADVANCED_BREP_SHAPE_REPRESENTATION ( 'Extruded-1.step', ( #195, #84 ), #62 ) ;
#163 = PLANE ( 'NONE',  #80 ) ;
#164 = CARTESIAN_POINT ( 'NONE',  ( 0.6500012400000000357, 0.7749997200000000586, 0.4999989999999999712 ) ) ;
#165 = VECTOR ( 'NONE', #138, 1000.000000000000000 ) ;
#166 = CARTESIAN_POINT ( 'NONE',  ( -0.6500012400000000357, 0.7749997200000000586, 0.000000000000000000 ) ) ;
#167 = PERSON_AND_ORGANIZATION_ROLE ( 'design_owner' ) ;
#168 = DIRECTION ( 'NONE',  ( 1.000000000000000000, 0.000000000000000000, 0.000000000000000000 ) ) ;
#169 = PERSON_AND_ORGANIZATION ( #18446744073709551615, #18446744073709551615 ) ;
#170 = CARTESIAN_POINT ( 'NONE',  ( 0.6500012400000000357, 0.7749997200000000586, 0.000000000000000000 ) ) ;
#171 = CARTESIAN_POINT ( 'NONE',  ( 0.6500012400000000357, -0.7749997200000000586, 0.000000000000000000 ) ) ;
#172 = CC_DESIGN_DATE_AND_TIME_ASSIGNMENT ( #107, #114, ( #153 ) ) ;
#173 = VERTEX_POINT ( 'NONE', #2 ) ;
#174 = DIRECTION ( 'NONE',  ( 0.000000000000000000, 0.000000000000000000, 1.000000000000000000 ) ) ;
#175 = ORIENTED_EDGE ( 'NONE', *, *, #192, .F. ) ;
#176 = ORIENTED_EDGE ( 'NONE', *, *, #92, .T. ) ;
#177 = DATE_AND_TIME ( #161, #94 ) ;
#178 = ORIENTED_EDGE ( 'NONE', *, *, #51, .F. ) ;
#179 = DIRECTION ( 'NONE',  ( 0.000000000000000000, 0.000000000000000000, 1.000000000000000000 ) ) ;
#180 = DIRECTION ( 'NONE',  ( 0.000000000000000000, 0.000000000000000000, 1.000000000000000000 ) ) ;
#181 = DIRECTION ( 'NONE',  ( -1.000000000000000000, 0.000000000000000000, 0.000000000000000000 ) ) ;
#182 = ORIENTED_EDGE ( 'NONE', *, *, #129, .T. ) ;
#183 = ADVANCED_FACE ( 'NONE', ( #124 ), #163, .F. ) ;
#184 = CARTESIAN_POINT ( 'NONE',  ( 0.6500012400000000357, 0.7749997200000000586, 0.4999989999999999712 ) ) ;
#185 =( LENGTH_UNIT ( ) NAMED_UNIT ( * ) SI_UNIT ( .MILLI., .METRE. ) );
#186 = FACE_OUTER_BOUND ( 'NONE', #118, .T. ) ;
#187 = EDGE_CURVE ( 'NONE', #15, #120, #1, .T. ) ;
#188 = DIRECTION ( 'NONE',  ( 0.000000000000000000, 0.000000000000000000, 1.000000000000000000 ) ) ;
#189 = FACE_OUTER_BOUND ( 'NONE', #160, .T. ) ;
#190 = CARTESIAN_POINT ( 'NONE',  ( -0.6500012400000000357, -0.7749997200000000586, 0.000000000000000000 ) ) ;
#191 = PERSON_AND_ORGANIZATION_ROLE ( 'design_supplier' ) ;
#192 = EDGE_CURVE ( 'NONE', #194, #120, #230, .T. ) ;
#193 = AXIS2_PLACEMENT_3D ( 'NONE', #25, #174, #78 ) ;
#194 = VERTEX_POINT ( 'NONE', #11 ) ;
#195 = MANIFOLD_SOLID_BREP ( 'Extruded[1]', #216 ) ;
#196 = LOCAL_TIME ( 18, 49, 53.00000000000000000, #48 ) ;
#197 = LINE ( 'NONE', #50, #81 ) ;
#198 = LINE ( 'NONE', #217, #22 ) ;
#199 = DESIGN_CONTEXT ( 'detailed design', #85, 'design' ) ;
#200 = EDGE_CURVE ( 'NONE', #32, #20, #6, .T. ) ;
#201 = VECTOR ( 'NONE', #125, 1000.000000000000000 ) ;
#202 = APPROVAL_PERSON_ORGANIZATION ( #133, #65, #212 ) ;
#203 = DIRECTION ( 'NONE',  ( 1.000000000000000000, 0.000000000000000000, 0.000000000000000000 ) ) ;
#204 = DIRECTION ( 'NONE',  ( -0.000000000000000000, 1.000000000000000000, 0.000000000000000000 ) ) ;
#205 = CARTESIAN_POINT ( 'NONE',  ( -0.6500012400000000357, 0.7749997200000000586, 0.4999989999999999712 ) ) ;
#206 = CARTESIAN_POINT ( 'NONE',  ( 0.000000000000000000, 0.000000000000000000, 0.000000000000000000 ) ) ;
#207 = VECTOR ( 'NONE', #87, 1000.000000000000000 ) ;
#208 = CARTESIAN_POINT ( 'NONE',  ( 0.6500012400000000357, -0.7749997200000000586, 0.000000000000000000 ) ) ;
#209 =( NAMED_UNIT ( * ) PLANE_ANGLE_UNIT ( ) SI_UNIT ( $, .RADIAN. ) );
#210 = LINE ( 'NONE', #37, #234 ) ;
#211 = DIRECTION ( 'NONE',  ( 1.000000000000000000, 0.000000000000000000, 0.000000000000000000 ) ) ;
#212 = APPROVAL_ROLE ( '' ) ;
#213 = APPROVAL_DATE_TIME ( #146, #141 ) ;
#214 = DATE_AND_TIME ( #30, #196 ) ;
#215 = ORIENTED_EDGE ( 'NONE', *, *, #16, .F. ) ;
#216 = CLOSED_SHELL ( 'NONE', ( #101, #222, #159, #183, #70, #86 ) ) ;
#217 = CARTESIAN_POINT ( 'NONE',  ( 0.6500012400000000357, 0.7749997200000000586, 0.000000000000000000 ) ) ;
#218 = EDGE_CURVE ( 'NONE', #194, #32, #36, .T. ) ;
#219 = PRODUCT ( 'Extruded-1.step', 'Extruded-1.step', '', ( #7 ) ) ;
#220 = CARTESIAN_POINT ( 'NONE',  ( 0.6500012400000000357, -0.7749997200000000586, 0.000000000000000000 ) ) ;
#221 = VECTOR ( 'NONE', #228, 1000.000000000000000 ) ;
#222 = ADVANCED_FACE ( 'NONE', ( #227 ), #26, .F. ) ;
#223 = CARTESIAN_POINT ( 'NONE',  ( -7.050885336145998479E-15, 1.421863617510000088E-14, 0.4999989999999999712 ) ) ;
#224 = LINE ( 'NONE', #108, #93 ) ;
#225 = CC_DESIGN_APPROVAL ( #141, ( #153 ) ) ;
#226 = APPLICATION_PROTOCOL_DEFINITION ( 'international standard', 'config_control_design', 1994, #85 ) ;
#227 = FACE_OUTER_BOUND ( 'NONE', #96, .T. ) ;
#228 = DIRECTION ( 'NONE',  ( 0.000000000000000000, -1.000000000000000000, 0.000000000000000000 ) ) ;
#229 = APPROVAL_DATE_TIME ( #41, #65 ) ;
#230 = LINE ( 'NONE', #61, #17 ) ;
#231 = APPROVAL ( #134, 'Coincident' ) ;
#232 = ORIENTED_EDGE ( 'NONE', *, *, #218, .T. ) ;
#233 = ORIENTED_EDGE ( 'NONE', *, *, #92, .F. ) ;
#234 = VECTOR ( 'NONE', #109, 1000.000000000000000 ) ;
#235 = SECURITY_CLASSIFICATION ( '', '', #35 ) ;
ENDSEC;
END-ISO-10303-21;
