ISO-10303-21;
HEADER;
FILE_DESCRIPTION (( 'STEP AP203' ),
    '1' );
FILE_NAME ('Extruded-3.step.STEP',
    '2026-06-22T08:49:54',
    ( 'localuser' ),
    ( '' ),
    'SwSTEP 2.0',
    'SolidWorks 2025',
    '' );
FILE_SCHEMA (( 'CONFIG_CONTROL_DESIGN' ));
ENDSEC;

DATA;
#1 = CARTESIAN_POINT ( 'NONE',  ( 1.750001579999999946, -2.250000580000000028, 2.100000879999999626 ) ) ;
#2 = DESIGN_CONTEXT ( 'detailed design', #205, 'design' ) ;
#3 = DIRECTION ( 'NONE',  ( 1.000000000000000000, 0.000000000000000000, 0.000000000000000000 ) ) ;
#4 =( NAMED_UNIT ( * ) SI_UNIT ( $, .STERADIAN. ) SOLID_ANGLE_UNIT ( ) );
#5 = CARTESIAN_POINT ( 'NONE',  ( 1.750001579999999946, -2.250000580000000028, 0.000000000000000000 ) ) ;
#6 = APPLICATION_PROTOCOL_DEFINITION ( 'international standard', 'config_control_design', 1994, #57 ) ;
#7 = DATE_AND_TIME ( #25, #39 ) ;
#8 = VECTOR ( 'NONE', #159, 1000.000000000000000 ) ;
#9 = DATE_TIME_ROLE ( 'creation_date' ) ;
#10 = ADVANCED_FACE ( 'NONE', ( #52 ), #158, .T. ) ;
#11 = CARTESIAN_POINT ( 'NONE',  ( 1.750001579999999946, -2.250000580000000028, 0.000000000000000000 ) ) ;
#12 = ORIENTED_EDGE ( 'NONE', *, *, #42, .T. ) ;
#13 = CARTESIAN_POINT ( 'NONE',  ( -1.705000400000000083, 2.250000580000000028, 2.100000879999999626 ) ) ;
#14 = LINE ( 'NONE', #11, #8 ) ;
#15 = CARTESIAN_POINT ( 'NONE',  ( 1.750001579999999946, 2.250000580000000028, 0.000000000000000000 ) ) ;
#16 = FACE_OUTER_BOUND ( 'NONE', #167, .T. ) ;
#17 = VECTOR ( 'NONE', #89, 1000.000000000000000 ) ;
#18 = CC_DESIGN_APPROVAL ( #60, ( #192 ) ) ;
#19 = LINE ( 'NONE', #1, #76 ) ;
#20 = CARTESIAN_POINT ( 'NONE',  ( -1.705000400000000083, 2.250000580000000028, 0.000000000000000000 ) ) ;
#21 = ORIENTED_EDGE ( 'NONE', *, *, #200, .T. ) ;
#22 = LINE ( 'NONE', #20, #161 ) ;
#23 = DATE_TIME_ROLE ( 'classification_date' ) ;
#24 = EDGE_CURVE ( 'NONE', #108, #212, #105, .T. ) ;
#25 = CALENDAR_DATE ( 2026, 22, 6 ) ;
#26 = PERSON_AND_ORGANIZATION ( #18446744073709551615, #18446744073709551615 ) ;
#27 = AXIS2_PLACEMENT_3D ( 'NONE', #75, #179, #132 ) ;
#28 = PERSON_AND_ORGANIZATION ( #18446744073709551615, #18446744073709551615 ) ;
#29 = CC_DESIGN_SECURITY_CLASSIFICATION ( #192, ( #127 ) ) ;
#30 = APPROVAL_STATUS ( 'not_yet_approved' ) ;
#31 = ORIENTED_EDGE ( 'NONE', *, *, #56, .T. ) ;
#32 = CC_DESIGN_PERSON_AND_ORGANIZATION_ASSIGNMENT ( #83, #206, ( #116 ) ) ;
#33 = ORIENTED_EDGE ( 'NONE', *, *, #188, .F. ) ;
#34 = VERTEX_POINT ( 'NONE', #175 ) ;
#35 = CARTESIAN_POINT ( 'NONE',  ( 1.750001579999999946, 2.250000580000000028, 2.100000879999999626 ) ) ;
#36 = EDGE_LOOP ( 'NONE', ( #125, #31, #50, #67 ) ) ;
#37 = PLANE ( 'NONE',  #220 ) ;
#38 = CLOSED_SHELL ( 'NONE', ( #77, #118, #10, #166, #66, #51 ) ) ;
#39 = LOCAL_TIME ( 18, 49, 54.00000000000000000, #219 ) ;
#40 = DIRECTION ( 'NONE',  ( 0.000000000000000000, -1.000000000000000000, 0.000000000000000000 ) ) ;
#41 = LINE ( 'NONE', #168, #141 ) ;
#42 = EDGE_CURVE ( 'NONE', #162, #108, #227, .T. ) ;
#43 = CALENDAR_DATE ( 2026, 22, 6 ) ;
#44 = EDGE_CURVE ( 'NONE', #210, #231, #14, .T. ) ;
#45 = PERSON_AND_ORGANIZATION ( #18446744073709551615, #18446744073709551615 ) ;
#46 = PRODUCT_DEFINITION_SHAPE ( 'NONE', 'NONE',  #116 ) ;
#47 = CARTESIAN_POINT ( 'NONE',  ( -1.749999040000000061, -2.250000580000000028, 0.000000000000000000 ) ) ;
#48 = EDGE_CURVE ( 'NONE', #212, #209, #88, .T. ) ;
#49 = EDGE_LOOP ( 'NONE', ( #119, #53, #142, #106 ) ) ;
#50 = ORIENTED_EDGE ( 'NONE', *, *, #44, .T. ) ;
#51 = ADVANCED_FACE ( 'NONE', ( #68 ), #190, .T. ) ;
#52 = FACE_OUTER_BOUND ( 'NONE', #96, .T. ) ;
#53 = ORIENTED_EDGE ( 'NONE', *, *, #87, .F. ) ;
#54 = VECTOR ( 'NONE', #216, 1000.000000000000114 ) ;
#55 = LINE ( 'NONE', #5, #120 ) ;
#56 = EDGE_CURVE ( 'NONE', #176, #210, #144, .T. ) ;
#57 = APPLICATION_CONTEXT ( 'configuration controlled 3d designs of mechanical parts and assemblies' ) ;
#58 = PLANE ( 'NONE',  #27 ) ;
#59 = AXIS2_PLACEMENT_3D ( 'NONE', #134, #201, #173 ) ;
#60 = APPROVAL ( #99, 'Coincident' ) ;
#61 =( NAMED_UNIT ( * ) PLANE_ANGLE_UNIT ( ) SI_UNIT ( $, .RADIAN. ) );
#62 = COORDINATED_UNIVERSAL_TIME_OFFSET ( 10, 0, .AHEAD. ) ;
#63 = SECURITY_CLASSIFICATION_LEVEL ( 'unclassified' ) ;
#64 = SHAPE_DEFINITION_REPRESENTATION ( #46, #194 ) ;
#65 = COORDINATED_UNIVERSAL_TIME_OFFSET ( 10, 0, .AHEAD. ) ;
#66 = ADVANCED_FACE ( 'NONE', ( #71 ), #146, .T. ) ;
#67 = ORIENTED_EDGE ( 'NONE', *, *, #224, .T. ) ;
#68 = FACE_OUTER_BOUND ( 'NONE', #122, .T. ) ;
#69 = DIRECTION ( 'NONE',  ( 1.000000000000000000, 0.000000000000000000, 0.000000000000000000 ) ) ;
#70 = ORIENTED_EDGE ( 'NONE', *, *, #152, .T. ) ;
#71 = FACE_OUTER_BOUND ( 'NONE', #232, .T. ) ;
#72 = PLANE ( 'NONE',  #117 ) ;
#73 = AXIS2_PLACEMENT_3D ( 'NONE', #47, #228, #211 ) ;
#74 = CARTESIAN_POINT ( 'NONE',  ( 1.750001579999999946, 2.250000580000000028, 0.000000000000000000 ) ) ;
#75 = CARTESIAN_POINT ( 'NONE',  ( 0.01119468482044999949, -0.006345691458488000695, 2.100000879999999626 ) ) ;
#76 = VECTOR ( 'NONE', #129, 1000.000000000000000 ) ;
#77 = ADVANCED_FACE ( 'NONE', ( #181 ), #58, .F. ) ;
#78 = LOCAL_TIME ( 18, 49, 54.00000000000000000, #62 ) ;
#79 = CALENDAR_DATE ( 2026, 22, 6 ) ;
#80 = PERSON_AND_ORGANIZATION_ROLE ( 'design_supplier' ) ;
#81 =( GEOMETRIC_REPRESENTATION_CONTEXT ( 3 ) GLOBAL_UNCERTAINTY_ASSIGNED_CONTEXT ( ( #195 ) ) GLOBAL_UNIT_ASSIGNED_CONTEXT ( ( #114, #61, #4 ) ) REPRESENTATION_CONTEXT ( 'NONE', 'WORKASPACE' ) );
#82 = DATE_AND_TIME ( #115, #191 ) ;
#83 = PERSON_AND_ORGANIZATION ( #18446744073709551615, #18446744073709551615 ) ;
#84 = ORIENTED_EDGE ( 'NONE', *, *, #24, .T. ) ;
#85 = ORIENTED_EDGE ( 'NONE', *, *, #152, .F. ) ;
#86 = ORIENTED_EDGE ( 'NONE', *, *, #233, .T. ) ;
#87 = EDGE_CURVE ( 'NONE', #209, #162, #19, .T. ) ;
#88 = LINE ( 'NONE', #35, #203 ) ;
#89 = DIRECTION ( 'NONE',  ( 1.000000000000000000, 0.000000000000000000, 0.000000000000000000 ) ) ;
#90 = CARTESIAN_POINT ( 'NONE',  ( 1.750001579999999946, -2.250000580000000028, 0.000000000000000000 ) ) ;
#91 = CC_DESIGN_PERSON_AND_ORGANIZATION_ASSIGNMENT ( #135, #170, ( #127 ) ) ;
#92 = CARTESIAN_POINT ( 'NONE',  ( -1.749999040000000061, -2.250000580000000028, 0.000000000000000000 ) ) ;
#93 = AXIS2_PLACEMENT_3D ( 'NONE', #213, #3, #199 ) ;
#94 = LINE ( 'NONE', #217, #172 ) ;
#95 = DIRECTION ( 'NONE',  ( 0.000000000000000000, 0.000000000000000000, 1.000000000000000000 ) ) ;
#96 = EDGE_LOOP ( 'NONE', ( #70, #12, #109, #145 ) ) ;
#97 = LINE ( 'NONE', #198, #207 ) ;
#98 = CC_DESIGN_APPROVAL ( #174, ( #116 ) ) ;
#99 = APPROVAL_STATUS ( 'not_yet_approved' ) ;
#100 = PERSON_AND_ORGANIZATION ( #18446744073709551615, #18446744073709551615 ) ;
#101 = APPROVAL_STATUS ( 'not_yet_approved' ) ;
#102 = DATE_AND_TIME ( #43, #78 ) ;
#103 = APPROVAL ( #101, 'Coincident' ) ;
#104 = AXIS2_PLACEMENT_3D ( 'NONE', #178, #229, #69 ) ;
#105 = LINE ( 'NONE', #13, #17 ) ;
#106 = ORIENTED_EDGE ( 'NONE', *, *, #24, .F. ) ;
#107 = ORIENTED_EDGE ( 'NONE', *, *, #110, .T. ) ;
#108 = VERTEX_POINT ( 'NONE', #202 ) ;
#109 = ORIENTED_EDGE ( 'NONE', *, *, #110, .F. ) ;
#110 = EDGE_CURVE ( 'NONE', #34, #108, #22, .T. ) ;
#111 = LINE ( 'NONE', #92, #54 ) ;
#112 = FACE_OUTER_BOUND ( 'NONE', #36, .T. ) ;
#113 = DIRECTION ( 'NONE',  ( 1.000000000000000000, 0.000000000000000000, 0.000000000000000000 ) ) ;
#114 =( LENGTH_UNIT ( ) NAMED_UNIT ( * ) SI_UNIT ( .MILLI., .METRE. ) );
#115 = CALENDAR_DATE ( 2026, 22, 6 ) ;
#116 = PRODUCT_DEFINITION ( 'General', '', #127, #2 ) ;
#117 = AXIS2_PLACEMENT_3D ( 'NONE', #147, #150, #40 ) ;
#118 = ADVANCED_FACE ( 'NONE', ( #112 ), #72, .T. ) ;
#119 = ORIENTED_EDGE ( 'NONE', *, *, #42, .F. ) ;
#120 = VECTOR ( 'NONE', #130, 1000.000000000000000 ) ;
#121 = APPROVAL_PERSON_ORGANIZATION ( #182, #103, #155 ) ;
#122 = EDGE_LOOP ( 'NONE', ( #107, #84, #128, #33 ) ) ;
#123 = CC_DESIGN_PERSON_AND_ORGANIZATION_ASSIGNMENT ( #28, #80, ( #127 ) ) ;
#124 = MANIFOLD_SOLID_BREP ( 'Extruded[1]', #38 ) ;
#125 = ORIENTED_EDGE ( 'NONE', *, *, #188, .T. ) ;
#126 = DIRECTION ( 'NONE',  ( 0.000000000000000000, -1.000000000000000000, 0.000000000000000000 ) ) ;
#127 = PRODUCT_DEFINITION_FORMATION_WITH_SPECIFIED_SOURCE ( 'Symmetric', '', #218, .NOT_KNOWN. ) ;
#128 = ORIENTED_EDGE ( 'NONE', *, *, #200, .F. ) ;
#129 = DIRECTION ( 'NONE',  ( -1.000000000000000000, 0.000000000000000000, 0.000000000000000000 ) ) ;
#130 = DIRECTION ( 'NONE',  ( 0.000000000000000000, 0.000000000000000000, 1.000000000000000000 ) ) ;
#131 = CC_DESIGN_DATE_AND_TIME_ASSIGNMENT ( #138, #23, ( #192 ) ) ;
#132 = DIRECTION ( 'NONE',  ( 0.000000000000000000, -1.000000000000000000, 0.000000000000000000 ) ) ;
#133 = LOCAL_TIME ( 18, 49, 54.00000000000000000, #139 ) ;
#134 = CARTESIAN_POINT ( 'NONE',  ( 0.000000000000000000, 0.000000000000000000, 0.000000000000000000 ) ) ;
#135 = PERSON_AND_ORGANIZATION ( #18446744073709551615, #18446744073709551615 ) ;
#136 = CC_DESIGN_DATE_AND_TIME_ASSIGNMENT ( #225, #9, ( #116 ) ) ;
#137 = VECTOR ( 'NONE', #163, 1000.000000000000000 ) ;
#138 = DATE_AND_TIME ( #79, #133 ) ;
#139 = COORDINATED_UNIVERSAL_TIME_OFFSET ( 10, 0, .AHEAD. ) ;
#140 = APPLICATION_PROTOCOL_DEFINITION ( 'international standard', 'config_control_design', 1994, #205 ) ;
#141 = VECTOR ( 'NONE', #95, 1000.000000000000000 ) ;
#142 = ORIENTED_EDGE ( 'NONE', *, *, #48, .F. ) ;
#143 = ORIENTED_EDGE ( 'NONE', *, *, #56, .F. ) ;
#144 = LINE ( 'NONE', #15, #137 ) ;
#145 = ORIENTED_EDGE ( 'NONE', *, *, #224, .F. ) ;
#146 = PLANE ( 'NONE',  #93 ) ;
#147 = CARTESIAN_POINT ( 'NONE',  ( 0.01119468482044999949, -0.006345691458488000695, 0.000000000000000000 ) ) ;
#148 = CARTESIAN_POINT ( 'NONE',  ( 1.750001579999999946, -2.250000580000000028, 2.100000879999999626 ) ) ;
#149 = CARTESIAN_POINT ( 'NONE',  ( -1.749999040000000061, -2.250000580000000028, 2.100000879999999626 ) ) ;
#150 = DIRECTION ( 'NONE',  ( 0.000000000000000000, 0.000000000000000000, -1.000000000000000000 ) ) ;
#151 = CARTESIAN_POINT ( 'NONE',  ( 1.750001579999999946, 2.250000580000000028, 2.100000879999999626 ) ) ;
#152 = EDGE_CURVE ( 'NONE', #231, #162, #94, .T. ) ;
#153 = PERSON_AND_ORGANIZATION ( #18446744073709551615, #18446744073709551615 ) ;
#154 = PERSON_AND_ORGANIZATION_ROLE ( 'classification_officer' ) ;
#155 = APPROVAL_ROLE ( '' ) ;
#156 = APPROVAL_DATE_TIME ( #7, #103 ) ;
#157 = APPROVAL_DATE_TIME ( #82, #174 ) ;
#158 = PLANE ( 'NONE',  #73 ) ;
#159 = DIRECTION ( 'NONE',  ( -1.000000000000000000, 0.000000000000000000, 0.000000000000000000 ) ) ;
#160 = CARTESIAN_POINT ( 'NONE',  ( -1.749999040000000061, -2.250000580000000028, 2.100000879999999626 ) ) ;
#161 = VECTOR ( 'NONE', #214, 1000.000000000000000 ) ;
#162 = VERTEX_POINT ( 'NONE', #149 ) ;
#163 = DIRECTION ( 'NONE',  ( 0.000000000000000000, -1.000000000000000000, 0.000000000000000000 ) ) ;
#164 = CARTESIAN_POINT ( 'NONE',  ( 1.750001579999999946, -2.250000580000000028, 0.000000000000000000 ) ) ;
#165 = DIRECTION ( 'NONE',  ( 0.000000000000000000, 0.000000000000000000, -1.000000000000000000 ) ) ;
#166 = ADVANCED_FACE ( 'NONE', ( #16 ), #37, .T. ) ;
#167 = EDGE_LOOP ( 'NONE', ( #86, #193, #85, #189 ) ) ;
#168 = CARTESIAN_POINT ( 'NONE',  ( 1.750001579999999946, 2.250000580000000028, 0.000000000000000000 ) ) ;
#169 = APPROVAL_PERSON_ORGANIZATION ( #100, #174, #171 ) ;
#170 = PERSON_AND_ORGANIZATION_ROLE ( 'creator' ) ;
#171 = APPROVAL_ROLE ( '' ) ;
#172 = VECTOR ( 'NONE', #196, 1000.000000000000000 ) ;
#173 = DIRECTION ( 'NONE',  ( 1.000000000000000000, 0.000000000000000000, 0.000000000000000000 ) ) ;
#174 = APPROVAL ( #30, 'Coincident' ) ;
#175 = CARTESIAN_POINT ( 'NONE',  ( -1.705000400000000083, 2.250000580000000028, 0.000000000000000000 ) ) ;
#176 = VERTEX_POINT ( 'NONE', #74 ) ;
#177 = DIRECTION ( 'NONE',  ( 0.009999195283290830683, 0.9999500067971830441, 0.000000000000000000 ) ) ;
#178 = CARTESIAN_POINT ( 'NONE',  ( -1.705000400000000083, 2.250000580000000028, 0.000000000000000000 ) ) ;
#179 = DIRECTION ( 'NONE',  ( 0.000000000000000000, 0.000000000000000000, -1.000000000000000000 ) ) ;
#180 = CARTESIAN_POINT ( 'NONE',  ( -1.749999040000000061, -2.250000580000000028, 0.000000000000000000 ) ) ;
#181 = FACE_OUTER_BOUND ( 'NONE', #49, .T. ) ;
#182 = PERSON_AND_ORGANIZATION ( #18446744073709551615, #18446744073709551615 ) ;
#183 = COORDINATED_UNIVERSAL_TIME_OFFSET ( 10, 0, .AHEAD. ) ;
#184 = CALENDAR_DATE ( 2026, 22, 6 ) ;
#185 = MECHANICAL_CONTEXT ( 'NONE', #57, 'mechanical' ) ;
#186 = ORIENTED_EDGE ( 'NONE', *, *, #48, .T. ) ;
#187 = ORIENTED_EDGE ( 'NONE', *, *, #233, .F. ) ;
#188 = EDGE_CURVE ( 'NONE', #34, #176, #97, .T. ) ;
#189 = ORIENTED_EDGE ( 'NONE', *, *, #44, .F. ) ;
#190 = PLANE ( 'NONE',  #104 ) ;
#191 = LOCAL_TIME ( 18, 49, 54.00000000000000000, #183 ) ;
#192 = SECURITY_CLASSIFICATION ( '', '', #63 ) ;
#193 = ORIENTED_EDGE ( 'NONE', *, *, #87, .T. ) ;
#194 = ADVANCED_BREP_SHAPE_REPRESENTATION ( 'Extruded-3.step', ( #124, #59 ), #81 ) ;
#195 = UNCERTAINTY_MEASURE_WITH_UNIT (LENGTH_MEASURE( 1.000000000000000082E-05 ), #114, 'distance_accuracy_value', 'NONE');
#196 = DIRECTION ( 'NONE',  ( 0.000000000000000000, 0.000000000000000000, 1.000000000000000000 ) ) ;
#197 = CC_DESIGN_PERSON_AND_ORGANIZATION_ASSIGNMENT ( #153, #154, ( #192 ) ) ;
#198 = CARTESIAN_POINT ( 'NONE',  ( -1.705000400000000083, 2.250000580000000028, 0.000000000000000000 ) ) ;
#199 = DIRECTION ( 'NONE',  ( 0.000000000000000000, 1.000000000000000000, 0.000000000000000000 ) ) ;
#200 = EDGE_CURVE ( 'NONE', #176, #212, #41, .T. ) ;
#201 = DIRECTION ( 'NONE',  ( 0.000000000000000000, 0.000000000000000000, 1.000000000000000000 ) ) ;
#202 = CARTESIAN_POINT ( 'NONE',  ( -1.705000400000000083, 2.250000580000000028, 2.100000879999999626 ) ) ;
#203 = VECTOR ( 'NONE', #126, 1000.000000000000000 ) ;
#204 = PERSON_AND_ORGANIZATION_ROLE ( 'design_owner' ) ;
#205 = APPLICATION_CONTEXT ( 'configuration controlled 3d designs of mechanical parts and assemblies' ) ;
#206 = PERSON_AND_ORGANIZATION_ROLE ( 'creator' ) ;
#207 = VECTOR ( 'NONE', #113, 1000.000000000000000 ) ;
#208 = APPROVAL_PERSON_ORGANIZATION ( #45, #60, #222 ) ;
#209 = VERTEX_POINT ( 'NONE', #148 ) ;
#210 = VERTEX_POINT ( 'NONE', #164 ) ;
#211 = DIRECTION ( 'NONE',  ( 0.000000000000000000, 0.000000000000000000, 1.000000000000000000 ) ) ;
#212 = VERTEX_POINT ( 'NONE', #151 ) ;
#213 = CARTESIAN_POINT ( 'NONE',  ( 1.750001579999999946, 2.250000580000000028, 0.000000000000000000 ) ) ;
#214 = DIRECTION ( 'NONE',  ( 0.000000000000000000, 0.000000000000000000, 1.000000000000000000 ) ) ;
#215 = CC_DESIGN_PERSON_AND_ORGANIZATION_ASSIGNMENT ( #26, #204, ( #218 ) ) ;
#216 = DIRECTION ( 'NONE',  ( 0.009999195283290830683, 0.9999500067971830441, 0.000000000000000000 ) ) ;
#217 = CARTESIAN_POINT ( 'NONE',  ( -1.749999040000000061, -2.250000580000000028, 0.000000000000000000 ) ) ;
#218 = PRODUCT ( 'Extruded-3.step', 'Extruded-3.step', '', ( #185 ) ) ;
#219 = COORDINATED_UNIVERSAL_TIME_OFFSET ( 10, 0, .AHEAD. ) ;
#220 = AXIS2_PLACEMENT_3D ( 'NONE', #90, #234, #165 ) ;
#221 = PRODUCT_RELATED_PRODUCT_CATEGORY ( 'detail', '', ( #218 ) ) ;
#222 = APPROVAL_ROLE ( '' ) ;
#223 = APPROVAL_DATE_TIME ( #102, #60 ) ;
#224 = EDGE_CURVE ( 'NONE', #231, #34, #111, .T. ) ;
#225 = DATE_AND_TIME ( #184, #226 ) ;
#226 = LOCAL_TIME ( 18, 49, 54.00000000000000000, #65 ) ;
#227 = LINE ( 'NONE', #160, #235 ) ;
#228 = DIRECTION ( 'NONE',  ( -0.9999500067971831552, 0.009999195283290832417, 0.000000000000000000 ) ) ;
#229 = DIRECTION ( 'NONE',  ( -0.000000000000000000, 1.000000000000000000, 0.000000000000000000 ) ) ;
#230 = CC_DESIGN_APPROVAL ( #103, ( #127 ) ) ;
#231 = VERTEX_POINT ( 'NONE', #180 ) ;
#232 = EDGE_LOOP ( 'NONE', ( #21, #186, #187, #143 ) ) ;
#233 = EDGE_CURVE ( 'NONE', #210, #209, #55, .T. ) ;
#234 = DIRECTION ( 'NONE',  ( 0.000000000000000000, -1.000000000000000000, 0.000000000000000000 ) ) ;
#235 = VECTOR ( 'NONE', #177, 1000.000000000000114 ) ;
ENDSEC;
END-ISO-10303-21;
