ISO-10303-21;
HEADER;
FILE_DESCRIPTION (( 'STEP AP203' ),
    '1' );
FILE_NAME ('Extruded-9.step.STEP',
    '2026-06-22T08:49:54',
    ( 'localuser' ),
    ( '' ),
    'SwSTEP 2.0',
    'SolidWorks 2025',
    '' );
FILE_SCHEMA (( 'CONFIG_CONTROL_DESIGN' ));
ENDSEC;

DATA;
#1 = EDGE_CURVE ( 'NONE', #208, #137, #95, .T. ) ;
#2 = CARTESIAN_POINT ( 'NONE',  ( -0.3999991999999999992, 0.07500111999998000656, 0.000000000000000000 ) ) ;
#3 = APPROVAL_ROLE ( '' ) ;
#4 = PERSON_AND_ORGANIZATION ( #18446744073709551615, #18446744073709551615 ) ;
#5 = VECTOR ( 'NONE', #17, 1000.000000000000000 ) ;
#6 = LOCAL_TIME ( 18, 49, 54.00000000000000000, #180 ) ;
#7 = CC_DESIGN_PERSON_AND_ORGANIZATION_ASSIGNMENT ( #4, #110, ( #164 ) ) ;
#8 = DIRECTION ( 'NONE',  ( 0.000000000000000000, 0.000000000000000000, -1.000000000000000000 ) ) ;
#9 = ORIENTED_EDGE ( 'NONE', *, *, #105, .F. ) ;
#10 = VERTEX_POINT ( 'NONE', #100 ) ;
#11 = ORIENTED_EDGE ( 'NONE', *, *, #145, .T. ) ;
#12 = DIRECTION ( 'NONE',  ( 1.000000000000000000, 0.000000000000000000, 0.000000000000000000 ) ) ;
#13 = CC_DESIGN_DATE_AND_TIME_ASSIGNMENT ( #163, #74, ( #123 ) ) ;
#14 = CC_DESIGN_APPROVAL ( #88, ( #164 ) ) ;
#15 = CARTESIAN_POINT ( 'NONE',  ( 0.3999991999999999992, 0.07500111999998000656, 0.000000000000000000 ) ) ;
#16 = CARTESIAN_POINT ( 'NONE',  ( 0.3999991999999999992, -0.07500112000001001034, 0.000000000000000000 ) ) ;
#17 = DIRECTION ( 'NONE',  ( -1.000000000000000000, 0.000000000000000000, 0.000000000000000000 ) ) ;
#18 = DIRECTION ( 'NONE',  ( -1.000000000000000000, 0.000000000000000000, 0.000000000000000000 ) ) ;
#19 = LINE ( 'NONE', #101, #69 ) ;
#20 = PERSON_AND_ORGANIZATION ( #18446744073709551615, #18446744073709551615 ) ;
#21 = EDGE_CURVE ( 'NONE', #82, #148, #167, .T. ) ;
#22 = PERSON_AND_ORGANIZATION ( #18446744073709551615, #18446744073709551615 ) ;
#23 = UNCERTAINTY_MEASURE_WITH_UNIT (LENGTH_MEASURE( 1.000000000000000082E-05 ), #233, 'distance_accuracy_value', 'NONE');
#24 = APPROVAL_ROLE ( '' ) ;
#25 = CALENDAR_DATE ( 2026, 22, 6 ) ;
#26 = COORDINATED_UNIVERSAL_TIME_OFFSET ( 10, 0, .AHEAD. ) ;
#27 = VECTOR ( 'NONE', #12, 1000.000000000000000 ) ;
#28 = CARTESIAN_POINT ( 'NONE',  ( -7.114187483501000393E-15, -1.420646268522000110E-14, 0.000000000000000000 ) ) ;
#29 = ORIENTED_EDGE ( 'NONE', *, *, #1, .T. ) ;
#30 = CC_DESIGN_PERSON_AND_ORGANIZATION_ASSIGNMENT ( #39, #128, ( #75 ) ) ;
#31 = EDGE_LOOP ( 'NONE', ( #78, #135, #166, #183 ) ) ;
#32 = CARTESIAN_POINT ( 'NONE',  ( -0.3999991999999999992, 0.07500111999998000656, 0.000000000000000000 ) ) ;
#33 = FACE_OUTER_BOUND ( 'NONE', #31, .T. ) ;
#34 = DIRECTION ( 'NONE',  ( 0.000000000000000000, 0.000000000000000000, 1.000000000000000000 ) ) ;
#35 = LINE ( 'NONE', #141, #234 ) ;
#36 = CARTESIAN_POINT ( 'NONE',  ( 0.3999991999999999992, -0.07500112000001001034, 0.4999989999999999712 ) ) ;
#37 = LINE ( 'NONE', #36, #5 ) ;
#38 = CARTESIAN_POINT ( 'NONE',  ( -0.3999991999999999992, 0.07500111999998000656, 0.4999989999999999712 ) ) ;
#39 = PERSON_AND_ORGANIZATION ( #18446744073709551615, #18446744073709551615 ) ;
#40 = PRODUCT_RELATED_PRODUCT_CATEGORY ( 'detail', '', ( #219 ) ) ;
#41 = PERSON_AND_ORGANIZATION ( #18446744073709551615, #18446744073709551615 ) ;
#42 = PERSON_AND_ORGANIZATION ( #18446744073709551615, #18446744073709551615 ) ;
#43 = ADVANCED_FACE ( 'NONE', ( #149 ), #48, .T. ) ;
#44 = ADVANCED_BREP_SHAPE_REPRESENTATION ( 'Extruded-9.step', ( #192, #117 ), #112 ) ;
#45 = DIRECTION ( 'NONE',  ( 1.000000000000000000, 0.000000000000000000, 0.000000000000000000 ) ) ;
#46 = EDGE_LOOP ( 'NONE', ( #136, #116, #80, #168 ) ) ;
#47 = VERTEX_POINT ( 'NONE', #169 ) ;
#48 = PLANE ( 'NONE',  #155 ) ;
#49 = LOCAL_TIME ( 18, 49, 54.00000000000000000, #217 ) ;
#50 = PLANE ( 'NONE',  #91 ) ;
#51 = PLANE ( 'NONE',  #102 ) ;
#52 = CARTESIAN_POINT ( 'NONE',  ( 0.3999991999999999992, -0.07500112000001001034, 0.000000000000000000 ) ) ;
#53 = VECTOR ( 'NONE', #34, 1000.000000000000000 ) ;
#54 = CARTESIAN_POINT ( 'NONE',  ( 0.3999991999999999992, 0.07500111999998000656, 0.000000000000000000 ) ) ;
#55 = ADVANCED_FACE ( 'NONE', ( #152 ), #65, .F. ) ;
#56 = DIRECTION ( 'NONE',  ( 1.000000000000000000, 0.000000000000000000, 0.000000000000000000 ) ) ;
#57 = APPROVAL_STATUS ( 'not_yet_approved' ) ;
#58 = CC_DESIGN_APPROVAL ( #77, ( #123 ) ) ;
#59 = APPROVAL_ROLE ( '' ) ;
#60 = ORIENTED_EDGE ( 'NONE', *, *, #170, .F. ) ;
#61 = ADVANCED_FACE ( 'NONE', ( #188 ), #50, .T. ) ;
#62 = CARTESIAN_POINT ( 'NONE',  ( -0.3999991999999999992, 0.07500111999998000656, 0.4999989999999999712 ) ) ;
#63 = VERTEX_POINT ( 'NONE', #113 ) ;
#64 = ADVANCED_FACE ( 'NONE', ( #33 ), #182, .T. ) ;
#65 = PLANE ( 'NONE',  #204 ) ;
#66 = LOCAL_TIME ( 18, 49, 54.00000000000000000, #109 ) ;
#67 = EDGE_LOOP ( 'NONE', ( #11, #229, #230, #115 ) ) ;
#68 = DIRECTION ( 'NONE',  ( 0.000000000000000000, 0.000000000000000000, 1.000000000000000000 ) ) ;
#69 = VECTOR ( 'NONE', #142, 1000.000000000000000 ) ;
#70 =( NAMED_UNIT ( * ) SI_UNIT ( $, .STERADIAN. ) SOLID_ANGLE_UNIT ( ) );
#71 = DIRECTION ( 'NONE',  ( 0.000000000000000000, 0.000000000000000000, -1.000000000000000000 ) ) ;
#72 = APPLICATION_PROTOCOL_DEFINITION ( 'international standard', 'config_control_design', 1994, #187 ) ;
#73 = DATE_AND_TIME ( #220, #49 ) ;
#74 = DATE_TIME_ROLE ( 'classification_date' ) ;
#75 = PRODUCT_DEFINITION ( 'General', '', #164, #213 ) ;
#76 = CC_DESIGN_APPROVAL ( #158, ( #75 ) ) ;
#77 = APPROVAL ( #222, 'Coincident' ) ;
#78 = ORIENTED_EDGE ( 'NONE', *, *, #223, .T. ) ;
#79 = ORIENTED_EDGE ( 'NONE', *, *, #81, .T. ) ;
#80 = ORIENTED_EDGE ( 'NONE', *, *, #145, .F. ) ;
#81 = EDGE_CURVE ( 'NONE', #148, #137, #104, .T. ) ;
#82 = VERTEX_POINT ( 'NONE', #2 ) ;
#83 = DIRECTION ( 'NONE',  ( 0.000000000000000000, 0.000000000000000000, -1.000000000000000000 ) ) ;
#84 = LINE ( 'NONE', #16, #162 ) ;
#85 = VECTOR ( 'NONE', #190, 1000.000000000000000 ) ;
#86 = VECTOR ( 'NONE', #174, 1000.000000000000000 ) ;
#87 = LINE ( 'NONE', #216, #86 ) ;
#88 = APPROVAL ( #196, 'Coincident' ) ;
#89 = CARTESIAN_POINT ( 'NONE',  ( -0.3999991999999999992, -0.07500112000001001034, 0.000000000000000000 ) ) ;
#90 = PERSON_AND_ORGANIZATION_ROLE ( 'classification_officer' ) ;
#91 = AXIS2_PLACEMENT_3D ( 'NONE', #154, #45, #119 ) ;
#92 = DATE_AND_TIME ( #107, #118 ) ;
#93 = CALENDAR_DATE ( 2026, 22, 6 ) ;
#94 = EDGE_CURVE ( 'NONE', #10, #208, #19, .T. ) ;
#95 = LINE ( 'NONE', #62, #218 ) ;
#96 = ORIENTED_EDGE ( 'NONE', *, *, #170, .T. ) ;
#97 = ORIENTED_EDGE ( 'NONE', *, *, #21, .F. ) ;
#98 = VECTOR ( 'NONE', #122, 1000.000000000000000 ) ;
#99 = DIRECTION ( 'NONE',  ( 1.000000000000000000, 0.000000000000000000, 0.000000000000000000 ) ) ;
#100 = CARTESIAN_POINT ( 'NONE',  ( -0.3999991999999999992, -0.07500112000001001034, 0.4999989999999999712 ) ) ;
#101 = CARTESIAN_POINT ( 'NONE',  ( -0.3999991999999999992, -0.07500112000001001034, 0.4999989999999999712 ) ) ;
#102 = AXIS2_PLACEMENT_3D ( 'NONE', #140, #18, #231 ) ;
#103 = DIRECTION ( 'NONE',  ( 0.000000000000000000, -1.000000000000000000, 0.000000000000000000 ) ) ;
#104 = LINE ( 'NONE', #54, #53 ) ;
#105 = EDGE_CURVE ( 'NONE', #148, #63, #172, .T. ) ;
#106 = FACE_OUTER_BOUND ( 'NONE', #67, .T. ) ;
#107 = CALENDAR_DATE ( 2026, 22, 6 ) ;
#108 = COORDINATED_UNIVERSAL_TIME_OFFSET ( 10, 0, .AHEAD. ) ;
#109 = COORDINATED_UNIVERSAL_TIME_OFFSET ( 10, 0, .AHEAD. ) ;
#110 = PERSON_AND_ORGANIZATION_ROLE ( 'design_supplier' ) ;
#111 = DATE_TIME_ROLE ( 'creation_date' ) ;
#112 =( GEOMETRIC_REPRESENTATION_CONTEXT ( 3 ) GLOBAL_UNCERTAINTY_ASSIGNED_CONTEXT ( ( #23 ) ) GLOBAL_UNIT_ASSIGNED_CONTEXT ( ( #233, #126, #70 ) ) REPRESENTATION_CONTEXT ( 'NONE', 'WORKASPACE' ) );
#113 = CARTESIAN_POINT ( 'NONE',  ( 0.3999991999999999992, -0.07500112000001001034, 0.000000000000000000 ) ) ;
#114 = VERTEX_POINT ( 'NONE', #89 ) ;
#115 = ORIENTED_EDGE ( 'NONE', *, *, #223, .F. ) ;
#116 = ORIENTED_EDGE ( 'NONE', *, *, #200, .T. ) ;
#117 = AXIS2_PLACEMENT_3D ( 'NONE', #194, #201, #56 ) ;
#118 = LOCAL_TIME ( 18, 49, 54.00000000000000000, #108 ) ;
#119 = DIRECTION ( 'NONE',  ( 0.000000000000000000, 1.000000000000000000, 0.000000000000000000 ) ) ;
#120 = CARTESIAN_POINT ( 'NONE',  ( 0.3999991999999999992, -0.07500112000001001034, 0.000000000000000000 ) ) ;
#121 = CC_DESIGN_DATE_AND_TIME_ASSIGNMENT ( #131, #111, ( #75 ) ) ;
#122 = DIRECTION ( 'NONE',  ( -1.000000000000000000, 0.000000000000000000, 0.000000000000000000 ) ) ;
#123 = SECURITY_CLASSIFICATION ( '', '', #221 ) ;
#124 = LINE ( 'NONE', #193, #191 ) ;
#125 = CARTESIAN_POINT ( 'NONE',  ( -0.3999991999999999992, -0.07500112000001001034, 0.000000000000000000 ) ) ;
#126 =( NAMED_UNIT ( * ) PLANE_ANGLE_UNIT ( ) SI_UNIT ( $, .RADIAN. ) );
#127 = APPLICATION_CONTEXT ( 'configuration controlled 3d designs of mechanical parts and assemblies' ) ;
#128 = PERSON_AND_ORGANIZATION_ROLE ( 'creator' ) ;
#129 = MECHANICAL_CONTEXT ( 'NONE', #127, 'mechanical' ) ;
#130 = CC_DESIGN_PERSON_AND_ORGANIZATION_ASSIGNMENT ( #20, #178, ( #164 ) ) ;
#131 = DATE_AND_TIME ( #147, #66 ) ;
#132 = CLOSED_SHELL ( 'NONE', ( #55, #64, #186, #61, #43, #160 ) ) ;
#133 = CC_DESIGN_PERSON_AND_ORGANIZATION_ASSIGNMENT ( #41, #165, ( #219 ) ) ;
#134 = AXIS2_PLACEMENT_3D ( 'NONE', #28, #8, #212 ) ;
#135 = ORIENTED_EDGE ( 'NONE', *, *, #21, .T. ) ;
#136 = ORIENTED_EDGE ( 'NONE', *, *, #195, .T. ) ;
#137 = VERTEX_POINT ( 'NONE', #214 ) ;
#138 = EDGE_LOOP ( 'NONE', ( #79, #96, #203, #9 ) ) ;
#139 = CARTESIAN_POINT ( 'NONE',  ( 0.3999991999999999992, 0.07500111999998000656, 0.000000000000000000 ) ) ;
#140 = CARTESIAN_POINT ( 'NONE',  ( -0.3999991999999999992, -0.07500112000001001034, 0.000000000000000000 ) ) ;
#141 = CARTESIAN_POINT ( 'NONE',  ( -0.3999991999999999992, 0.07500111999998000656, 0.000000000000000000 ) ) ;
#142 = DIRECTION ( 'NONE',  ( 0.000000000000000000, 1.000000000000000000, 0.000000000000000000 ) ) ;
#143 = SHAPE_DEFINITION_REPRESENTATION ( #207, #44 ) ;
#144 = APPLICATION_PROTOCOL_DEFINITION ( 'international standard', 'config_control_design', 1994, #127 ) ;
#145 = EDGE_CURVE ( 'NONE', #114, #10, #124, .T. ) ;
#146 = APPROVAL_PERSON_ORGANIZATION ( #22, #158, #3 ) ;
#147 = CALENDAR_DATE ( 2026, 22, 6 ) ;
#148 = VERTEX_POINT ( 'NONE', #15 ) ;
#149 = FACE_OUTER_BOUND ( 'NONE', #185, .T. ) ;
#150 = APPROVAL_PERSON_ORGANIZATION ( #42, #88, #24 ) ;
#151 = ORIENTED_EDGE ( 'NONE', *, *, #200, .F. ) ;
#152 = FACE_OUTER_BOUND ( 'NONE', #184, .T. ) ;
#153 = CC_DESIGN_PERSON_AND_ORGANIZATION_ASSIGNMENT ( #181, #90, ( #123 ) ) ;
#154 = CARTESIAN_POINT ( 'NONE',  ( 0.3999991999999999992, 0.07500111999998000656, 0.000000000000000000 ) ) ;
#155 = AXIS2_PLACEMENT_3D ( 'NONE', #32, #226, #99 ) ;
#156 = PLANE ( 'NONE',  #225 ) ;
#157 = LINE ( 'NONE', #125, #85 ) ;
#158 = APPROVAL ( #57, 'Coincident' ) ;
#159 = FACE_OUTER_BOUND ( 'NONE', #46, .T. ) ;
#160 = ADVANCED_FACE ( 'NONE', ( #106 ), #51, .T. ) ;
#161 = PERSON_AND_ORGANIZATION ( #18446744073709551615, #18446744073709551615 ) ;
#162 = VECTOR ( 'NONE', #68, 1000.000000000000000 ) ;
#163 = DATE_AND_TIME ( #93, #6 ) ;
#164 = PRODUCT_DEFINITION_FORMATION_WITH_SPECIFIED_SOURCE ( 'Symmetric', '', #219, .NOT_KNOWN. ) ;
#165 = PERSON_AND_ORGANIZATION_ROLE ( 'design_owner' ) ;
#166 = ORIENTED_EDGE ( 'NONE', *, *, #105, .T. ) ;
#167 = LINE ( 'NONE', #171, #27 ) ;
#168 = ORIENTED_EDGE ( 'NONE', *, *, #215, .F. ) ;
#169 = CARTESIAN_POINT ( 'NONE',  ( 0.3999991999999999992, -0.07500112000001001034, 0.4999989999999999712 ) ) ;
#170 = EDGE_CURVE ( 'NONE', #137, #47, #87, .T. ) ;
#171 = CARTESIAN_POINT ( 'NONE',  ( -0.3999991999999999992, 0.07500111999998000656, 0.000000000000000000 ) ) ;
#172 = LINE ( 'NONE', #139, #199 ) ;
#173 = DIRECTION ( 'NONE',  ( 0.000000000000000000, 0.000000000000000000, 1.000000000000000000 ) ) ;
#174 = DIRECTION ( 'NONE',  ( 0.000000000000000000, -1.000000000000000000, 0.000000000000000000 ) ) ;
#175 = DIRECTION ( 'NONE',  ( 0.000000000000000000, -1.000000000000000000, 0.000000000000000000 ) ) ;
#176 = ORIENTED_EDGE ( 'NONE', *, *, #1, .F. ) ;
#177 = APPROVAL_DATE_TIME ( #92, #88 ) ;
#178 = PERSON_AND_ORGANIZATION_ROLE ( 'creator' ) ;
#179 = LOCAL_TIME ( 18, 49, 54.00000000000000000, #26 ) ;
#180 = COORDINATED_UNIVERSAL_TIME_OFFSET ( 10, 0, .AHEAD. ) ;
#181 = PERSON_AND_ORGANIZATION ( #18446744073709551615, #18446744073709551615 ) ;
#182 = PLANE ( 'NONE',  #134 ) ;
#183 = ORIENTED_EDGE ( 'NONE', *, *, #215, .T. ) ;
#184 = EDGE_LOOP ( 'NONE', ( #151, #60, #176, #228 ) ) ;
#185 = EDGE_LOOP ( 'NONE', ( #227, #29, #224, #97 ) ) ;
#186 = ADVANCED_FACE ( 'NONE', ( #159 ), #156, .T. ) ;
#187 = APPLICATION_CONTEXT ( 'configuration controlled 3d designs of mechanical parts and assemblies' ) ;
#188 = FACE_OUTER_BOUND ( 'NONE', #138, .T. ) ;
#189 = LINE ( 'NONE', #52, #98 ) ;
#190 = DIRECTION ( 'NONE',  ( 0.000000000000000000, 1.000000000000000000, 0.000000000000000000 ) ) ;
#191 = VECTOR ( 'NONE', #211, 1000.000000000000000 ) ;
#192 = MANIFOLD_SOLID_BREP ( 'Extruded[1]', #132 ) ;
#193 = CARTESIAN_POINT ( 'NONE',  ( -0.3999991999999999992, -0.07500112000001001034, 0.000000000000000000 ) ) ;
#194 = CARTESIAN_POINT ( 'NONE',  ( 0.000000000000000000, 0.000000000000000000, 0.000000000000000000 ) ) ;
#195 = EDGE_CURVE ( 'NONE', #63, #47, #84, .T. ) ;
#196 = APPROVAL_STATUS ( 'not_yet_approved' ) ;
#197 = APPROVAL_DATE_TIME ( #73, #158 ) ;
#198 = DATE_AND_TIME ( #25, #179 ) ;
#199 = VECTOR ( 'NONE', #103, 1000.000000000000000 ) ;
#200 = EDGE_CURVE ( 'NONE', #47, #10, #37, .T. ) ;
#201 = DIRECTION ( 'NONE',  ( 0.000000000000000000, 0.000000000000000000, 1.000000000000000000 ) ) ;
#202 = APPROVAL_DATE_TIME ( #198, #77 ) ;
#203 = ORIENTED_EDGE ( 'NONE', *, *, #195, .F. ) ;
#204 = AXIS2_PLACEMENT_3D ( 'NONE', #210, #83, #206 ) ;
#205 = APPROVAL_PERSON_ORGANIZATION ( #161, #77, #59 ) ;
#206 = DIRECTION ( 'NONE',  ( 0.000000000000000000, -1.000000000000000000, 0.000000000000000000 ) ) ;
#207 = PRODUCT_DEFINITION_SHAPE ( 'NONE', 'NONE',  #75 ) ;
#208 = VERTEX_POINT ( 'NONE', #38 ) ;
#209 = DIRECTION ( 'NONE',  ( 1.000000000000000000, 0.000000000000000000, 0.000000000000000000 ) ) ;
#210 = CARTESIAN_POINT ( 'NONE',  ( -7.114187483501000393E-15, -1.420646268522000110E-14, 0.4999989999999999712 ) ) ;
#211 = DIRECTION ( 'NONE',  ( 0.000000000000000000, 0.000000000000000000, 1.000000000000000000 ) ) ;
#212 = DIRECTION ( 'NONE',  ( 0.000000000000000000, -1.000000000000000000, 0.000000000000000000 ) ) ;
#213 = DESIGN_CONTEXT ( 'detailed design', #187, 'design' ) ;
#214 = CARTESIAN_POINT ( 'NONE',  ( 0.3999991999999999992, 0.07500111999998000656, 0.4999989999999999712 ) ) ;
#215 = EDGE_CURVE ( 'NONE', #63, #114, #189, .T. ) ;
#216 = CARTESIAN_POINT ( 'NONE',  ( 0.3999991999999999992, 0.07500111999998000656, 0.4999989999999999712 ) ) ;
#217 = COORDINATED_UNIVERSAL_TIME_OFFSET ( 10, 0, .AHEAD. ) ;
#218 = VECTOR ( 'NONE', #209, 1000.000000000000000 ) ;
#219 = PRODUCT ( 'Extruded-9.step', 'Extruded-9.step', '', ( #129 ) ) ;
#220 = CALENDAR_DATE ( 2026, 22, 6 ) ;
#221 = SECURITY_CLASSIFICATION_LEVEL ( 'unclassified' ) ;
#222 = APPROVAL_STATUS ( 'not_yet_approved' ) ;
#223 = EDGE_CURVE ( 'NONE', #114, #82, #157, .T. ) ;
#224 = ORIENTED_EDGE ( 'NONE', *, *, #81, .F. ) ;
#225 = AXIS2_PLACEMENT_3D ( 'NONE', #120, #175, #71 ) ;
#226 = DIRECTION ( 'NONE',  ( -0.000000000000000000, 1.000000000000000000, 0.000000000000000000 ) ) ;
#227 = ORIENTED_EDGE ( 'NONE', *, *, #232, .T. ) ;
#228 = ORIENTED_EDGE ( 'NONE', *, *, #94, .F. ) ;
#229 = ORIENTED_EDGE ( 'NONE', *, *, #94, .T. ) ;
#230 = ORIENTED_EDGE ( 'NONE', *, *, #232, .F. ) ;
#231 = DIRECTION ( 'NONE',  ( 0.000000000000000000, 0.000000000000000000, 1.000000000000000000 ) ) ;
#232 = EDGE_CURVE ( 'NONE', #82, #208, #35, .T. ) ;
#233 =( LENGTH_UNIT ( ) NAMED_UNIT ( * ) SI_UNIT ( .MILLI., .METRE. ) );
#234 = VECTOR ( 'NONE', #173, 1000.000000000000000 ) ;
#235 = CC_DESIGN_SECURITY_CLASSIFICATION ( #123, ( #164 ) ) ;
ENDSEC;
END-ISO-10303-21;
