ISO-10303-21;
HEADER;
FILE_DESCRIPTION (( 'STEP AP203' ),
    '1' );
FILE_NAME ('Extruded-13.step.STEP',
    '2026-06-22T08:49:57',
    ( 'localuser' ),
    ( '' ),
    'SwSTEP 2.0',
    'SolidWorks 2025',
    '' );
FILE_SCHEMA (( 'CONFIG_CONTROL_DESIGN' ));
ENDSEC;

DATA;
#1 = EDGE_LOOP ( 'NONE', ( #181, #96, #30, #53 ) ) ;
#2 = ADVANCED_FACE ( 'NONE', ( #74 ), #213, .F. ) ;
#3 = APPLICATION_PROTOCOL_DEFINITION ( 'international standard', 'config_control_design', 1994, #126 ) ;
#4 = CARTESIAN_POINT ( 'NONE',  ( -7.147063669188000176E-15, 7.112369185356999979E-15, 0.000000000000000000 ) ) ;
#5 = CC_DESIGN_PERSON_AND_ORGANIZATION_ASSIGNMENT ( #228, #232, ( #171 ) ) ;
#6 = LOCAL_TIME ( 18, 49, 57.00000000000000000, #162 ) ;
#7 =( NAMED_UNIT ( * ) SI_UNIT ( $, .STERADIAN. ) SOLID_ANGLE_UNIT ( ) );
#8 = DIRECTION ( 'NONE',  ( 1.000000000000000000, 0.000000000000000000, 0.000000000000000000 ) ) ;
#9 = PERSON_AND_ORGANIZATION ( #18446744073709551615, #18446744073709551615 ) ;
#10 = APPROVAL_ROLE ( '' ) ;
#11 = ORIENTED_EDGE ( 'NONE', *, *, #131, .F. ) ;
#12 = APPROVAL ( #141, 'Coincident' ) ;
#13 = PERSON_AND_ORGANIZATION_ROLE ( 'classification_officer' ) ;
#14 = ORIENTED_EDGE ( 'NONE', *, *, #116, .T. ) ;
#15 = CARTESIAN_POINT ( 'NONE',  ( -1.599999339999999881, 1.599999339999999881, 0.000000000000000000 ) ) ;
#16 = VERTEX_POINT ( 'NONE', #93 ) ;
#17 = EDGE_CURVE ( 'NONE', #127, #129, #57, .T. ) ;
#18 = ORIENTED_EDGE ( 'NONE', *, *, #116, .F. ) ;
#19 = APPROVAL_PERSON_ORGANIZATION ( #160, #66, #10 ) ;
#20 = SECURITY_CLASSIFICATION ( '', '', #85 ) ;
#21 = CARTESIAN_POINT ( 'NONE',  ( 1.599999339999999881, 1.599999339999999881, 0.000000000000000000 ) ) ;
#22 = APPROVAL_PERSON_ORGANIZATION ( #142, #12, #230 ) ;
#23 = PERSON_AND_ORGANIZATION_ROLE ( 'design_owner' ) ;
#24 = CC_DESIGN_PERSON_AND_ORGANIZATION_ASSIGNMENT ( #210, #120, ( #112 ) ) ;
#25 =( LENGTH_UNIT ( ) NAMED_UNIT ( * ) SI_UNIT ( .MILLI., .METRE. ) );
#26 = DIRECTION ( 'NONE',  ( 0.000000000000000000, 1.000000000000000000, 0.000000000000000000 ) ) ;
#27 = AXIS2_PLACEMENT_3D ( 'NONE', #4, #172, #43 ) ;
#28 = DIRECTION ( 'NONE',  ( 1.000000000000000000, 0.000000000000000000, 0.000000000000000000 ) ) ;
#29 = EDGE_CURVE ( 'NONE', #40, #16, #182, .T. ) ;
#30 = ORIENTED_EDGE ( 'NONE', *, *, #137, .F. ) ;
#31 = APPROVAL_ROLE ( '' ) ;
#32 = APPROVAL_DATE_TIME ( #51, #12 ) ;
#33 = DIRECTION ( 'NONE',  ( 1.000000000000000000, 0.000000000000000000, 0.000000000000000000 ) ) ;
#34 = CARTESIAN_POINT ( 'NONE',  ( -1.599999339999999881, -1.599999339999999881, 2.899999280000000290 ) ) ;
#35 = ORIENTED_EDGE ( 'NONE', *, *, #77, .T. ) ;
#36 = VERTEX_POINT ( 'NONE', #34 ) ;
#37 = UNCERTAINTY_MEASURE_WITH_UNIT (LENGTH_MEASURE( 1.000000000000000082E-05 ), #25, 'distance_accuracy_value', 'NONE');
#38 = VECTOR ( 'NONE', #28, 1000.000000000000000 ) ;
#39 = APPLICATION_CONTEXT ( 'configuration controlled 3d designs of mechanical parts and assemblies' ) ;
#40 = VERTEX_POINT ( 'NONE', #76 ) ;
#41 = CARTESIAN_POINT ( 'NONE',  ( -1.599999339999999881, -1.599999339999999881, 0.000000000000000000 ) ) ;
#42 = DIRECTION ( 'NONE',  ( -0.000000000000000000, 1.000000000000000000, 0.000000000000000000 ) ) ;
#43 = DIRECTION ( 'NONE',  ( 1.000000000000000000, 0.000000000000000000, 0.000000000000000000 ) ) ;
#44 = EDGE_LOOP ( 'NONE', ( #14, #166, #11, #164 ) ) ;
#45 = CARTESIAN_POINT ( 'NONE',  ( -1.599999339999999881, 1.599999339999999881, 0.000000000000000000 ) ) ;
#46 = ORIENTED_EDGE ( 'NONE', *, *, #148, .F. ) ;
#47 = EDGE_CURVE ( 'NONE', #65, #36, #184, .T. ) ;
#48 = VECTOR ( 'NONE', #70, 1000.000000000000000 ) ;
#49 = CALENDAR_DATE ( 2026, 22, 6 ) ;
#50 = ORIENTED_EDGE ( 'NONE', *, *, #187, .F. ) ;
#51 = DATE_AND_TIME ( #49, #56 ) ;
#52 = DIRECTION ( 'NONE',  ( 0.000000000000000000, 0.000000000000000000, 1.000000000000000000 ) ) ;
#53 = ORIENTED_EDGE ( 'NONE', *, *, #17, .F. ) ;
#54 = ADVANCED_FACE ( 'NONE', ( #192 ), #60, .F. ) ;
#55 = VECTOR ( 'NONE', #80, 1000.000000000000000 ) ;
#56 = LOCAL_TIME ( 18, 49, 57.00000000000000000, #174 ) ;
#57 = LINE ( 'NONE', #128, #78 ) ;
#58 = EDGE_CURVE ( 'NONE', #111, #36, #161, .T. ) ;
#59 = VECTOR ( 'NONE', #61, 1000.000000000000000 ) ;
#60 = PLANE ( 'NONE',  #98 ) ;
#61 = DIRECTION ( 'NONE',  ( 0.000000000000000000, 1.000000000000000000, 0.000000000000000000 ) ) ;
#62 = CARTESIAN_POINT ( 'NONE',  ( 1.599999339999999881, 1.599999339999999881, 2.899999280000000290 ) ) ;
#63 = PLANE ( 'NONE',  #97 ) ;
#64 = DIRECTION ( 'NONE',  ( 1.000000000000000000, 0.000000000000000000, 0.000000000000000000 ) ) ;
#65 = VERTEX_POINT ( 'NONE', #207 ) ;
#66 = APPROVAL ( #227, 'Coincident' ) ;
#67 = PERSON_AND_ORGANIZATION_ROLE ( 'creator' ) ;
#68 = DATE_AND_TIME ( #208, #225 ) ;
#69 = VECTOR ( 'NONE', #110, 1000.000000000000000 ) ;
#70 = DIRECTION ( 'NONE',  ( 0.000000000000000000, 0.000000000000000000, 1.000000000000000000 ) ) ;
#71 = CALENDAR_DATE ( 2026, 22, 6 ) ;
#72 = DIRECTION ( 'NONE',  ( 1.000000000000000000, 0.000000000000000000, 0.000000000000000000 ) ) ;
#73 = CARTESIAN_POINT ( 'NONE',  ( -1.599999339999999881, -1.599999339999999881, 2.899999280000000290 ) ) ;
#74 = FACE_OUTER_BOUND ( 'NONE', #214, .T. ) ;
#75 = LOCAL_TIME ( 18, 49, 57.00000000000000000, #104 ) ;
#76 = CARTESIAN_POINT ( 'NONE',  ( 1.599999339999999881, -1.599999339999999881, 0.000000000000000000 ) ) ;
#77 = EDGE_CURVE ( 'NONE', #36, #16, #191, .T. ) ;
#78 = VECTOR ( 'NONE', #195, 1000.000000000000000 ) ;
#79 = PLANE ( 'NONE',  #163 ) ;
#80 = DIRECTION ( 'NONE',  ( 0.000000000000000000, -1.000000000000000000, 0.000000000000000000 ) ) ;
#81 = CC_DESIGN_APPROVAL ( #66, ( #112 ) ) ;
#82 = CARTESIAN_POINT ( 'NONE',  ( 1.599999339999999881, 1.599999339999999881, 2.899999280000000290 ) ) ;
#83 = LINE ( 'NONE', #133, #125 ) ;
#84 = PERSON_AND_ORGANIZATION ( #18446744073709551615, #18446744073709551615 ) ;
#85 = SECURITY_CLASSIFICATION_LEVEL ( 'unclassified' ) ;
#86 = MANIFOLD_SOLID_BREP ( 'Extruded[1]', #121 ) ;
#87 = PERSON_AND_ORGANIZATION ( #18446744073709551615, #18446744073709551615 ) ;
#88 = DATE_AND_TIME ( #144, #6 ) ;
#89 = CARTESIAN_POINT ( 'NONE',  ( 1.599999339999999881, -1.599999339999999881, 0.000000000000000000 ) ) ;
#90 = DATE_TIME_ROLE ( 'classification_date' ) ;
#91 = ORIENTED_EDGE ( 'NONE', *, *, #58, .F. ) ;
#92 = APPROVAL_STATUS ( 'not_yet_approved' ) ;
#93 = CARTESIAN_POINT ( 'NONE',  ( 1.599999339999999881, -1.599999339999999881, 2.899999280000000290 ) ) ;
#94 = ORIENTED_EDGE ( 'NONE', *, *, #105, .F. ) ;
#95 = CC_DESIGN_PERSON_AND_ORGANIZATION_ASSIGNMENT ( #87, #67, ( #171 ) ) ;
#96 = ORIENTED_EDGE ( 'NONE', *, *, #187, .T. ) ;
#97 = AXIS2_PLACEMENT_3D ( 'NONE', #41, #42, #64 ) ;
#98 = AXIS2_PLACEMENT_3D ( 'NONE', #89, #143, #123 ) ;
#99 = VECTOR ( 'NONE', #33, 1000.000000000000000 ) ;
#100 = CC_DESIGN_APPROVAL ( #176, ( #171 ) ) ;
#101 = FACE_OUTER_BOUND ( 'NONE', #147, .T. ) ;
#102 = FACE_OUTER_BOUND ( 'NONE', #178, .T. ) ;
#103 = DIRECTION ( 'NONE',  ( 0.000000000000000000, -1.000000000000000000, 0.000000000000000000 ) ) ;
#104 = COORDINATED_UNIVERSAL_TIME_OFFSET ( 10, 0, .AHEAD. ) ;
#105 = EDGE_CURVE ( 'NONE', #127, #113, #124, .T. ) ;
#106 = DESIGN_CONTEXT ( 'detailed design', #126, 'design' ) ;
#107 = PERSON_AND_ORGANIZATION ( #18446744073709551615, #18446744073709551615 ) ;
#108 = CARTESIAN_POINT ( 'NONE',  ( 1.599999339999999881, 1.599999339999999881, 0.000000000000000000 ) ) ;
#109 = VECTOR ( 'NONE', #26, 1000.000000000000000 ) ;
#110 = DIRECTION ( 'NONE',  ( -1.000000000000000000, 0.000000000000000000, 0.000000000000000000 ) ) ;
#111 = VERTEX_POINT ( 'NONE', #179 ) ;
#112 = PRODUCT_DEFINITION ( 'General', '', #171, #106 ) ;
#113 = VERTEX_POINT ( 'NONE', #15 ) ;
#114 = ORIENTED_EDGE ( 'NONE', *, *, #148, .T. ) ;
#115 = CARTESIAN_POINT ( 'NONE',  ( -1.599999339999999881, -1.599999339999999881, 0.000000000000000000 ) ) ;
#116 = EDGE_CURVE ( 'NONE', #40, #127, #211, .T. ) ;
#117 =( NAMED_UNIT ( * ) PLANE_ANGLE_UNIT ( ) SI_UNIT ( $, .RADIAN. ) );
#118 = VECTOR ( 'NONE', #52, 1000.000000000000000 ) ;
#119 = APPLICATION_PROTOCOL_DEFINITION ( 'international standard', 'config_control_design', 1994, #39 ) ;
#120 = PERSON_AND_ORGANIZATION_ROLE ( 'creator' ) ;
#121 = CLOSED_SHELL ( 'NONE', ( #197, #180, #54, #226, #2, #151 ) ) ;
#122 = DATE_AND_TIME ( #71, #75 ) ;
#123 = DIRECTION ( 'NONE',  ( 0.000000000000000000, 0.000000000000000000, 1.000000000000000000 ) ) ;
#124 = LINE ( 'NONE', #108, #69 ) ;
#125 = VECTOR ( 'NONE', #223, 1000.000000000000000 ) ;
#126 = APPLICATION_CONTEXT ( 'configuration controlled 3d designs of mechanical parts and assemblies' ) ;
#127 = VERTEX_POINT ( 'NONE', #150 ) ;
#128 = CARTESIAN_POINT ( 'NONE',  ( 1.599999339999999881, 1.599999339999999881, 0.000000000000000000 ) ) ;
#129 = VERTEX_POINT ( 'NONE', #82 ) ;
#130 = FACE_OUTER_BOUND ( 'NONE', #1, .T. ) ;
#131 = EDGE_CURVE ( 'NONE', #16, #129, #218, .T. ) ;
#132 = ADVANCED_BREP_SHAPE_REPRESENTATION ( 'Extruded-13.step', ( #86, #235 ), #219 ) ;
#133 = CARTESIAN_POINT ( 'NONE',  ( -1.599999339999999881, 1.599999339999999881, 0.000000000000000000 ) ) ;
#134 = LINE ( 'NONE', #62, #224 ) ;
#135 = ORIENTED_EDGE ( 'NONE', *, *, #47, .T. ) ;
#136 = AXIS2_PLACEMENT_3D ( 'NONE', #21, #103, #200 ) ;
#137 = EDGE_CURVE ( 'NONE', #129, #111, #134, .T. ) ;
#138 = ORIENTED_EDGE ( 'NONE', *, *, #215, .F. ) ;
#139 = DATE_TIME_ROLE ( 'creation_date' ) ;
#140 = PRODUCT_RELATED_PRODUCT_CATEGORY ( 'detail', '', ( #216 ) ) ;
#141 = APPROVAL_STATUS ( 'not_yet_approved' ) ;
#142 = PERSON_AND_ORGANIZATION ( #18446744073709551615, #18446744073709551615 ) ;
#143 = DIRECTION ( 'NONE',  ( -1.000000000000000000, 0.000000000000000000, 0.000000000000000000 ) ) ;
#144 = CALENDAR_DATE ( 2026, 22, 6 ) ;
#145 = DIRECTION ( 'NONE',  ( 0.000000000000000000, 1.000000000000000000, 0.000000000000000000 ) ) ;
#146 = DIRECTION ( 'NONE',  ( 0.000000000000000000, -1.000000000000000000, 0.000000000000000000 ) ) ;
#147 = EDGE_LOOP ( 'NONE', ( #177, #196, #35, #231 ) ) ;
#148 = EDGE_CURVE ( 'NONE', #65, #40, #170, .T. ) ;
#149 = CARTESIAN_POINT ( 'NONE',  ( -1.599999339999999881, -1.599999339999999881, 0.000000000000000000 ) ) ;
#150 = CARTESIAN_POINT ( 'NONE',  ( 1.599999339999999881, 1.599999339999999881, 0.000000000000000000 ) ) ;
#151 = ADVANCED_FACE ( 'NONE', ( #130 ), #173, .F. ) ;
#152 = FACE_OUTER_BOUND ( 'NONE', #194, .T. ) ;
#153 = LOCAL_TIME ( 18, 49, 57.00000000000000000, #206 ) ;
#154 = PLANE ( 'NONE',  #27 ) ;
#155 = DIRECTION ( 'NONE',  ( 0.000000000000000000, 0.000000000000000000, 1.000000000000000000 ) ) ;
#156 = DATE_AND_TIME ( #175, #153 ) ;
#157 = APPROVAL_PERSON_ORGANIZATION ( #9, #176, #31 ) ;
#158 = COORDINATED_UNIVERSAL_TIME_OFFSET ( 10, 0, .AHEAD. ) ;
#159 = CC_DESIGN_PERSON_AND_ORGANIZATION_ASSIGNMENT ( #107, #13, ( #20 ) ) ;
#160 = PERSON_AND_ORGANIZATION ( #18446744073709551615, #18446744073709551615 ) ;
#161 = LINE ( 'NONE', #229, #203 ) ;
#162 = COORDINATED_UNIVERSAL_TIME_OFFSET ( 10, 0, .AHEAD. ) ;
#163 = AXIS2_PLACEMENT_3D ( 'NONE', #217, #199, #8 ) ;
#164 = ORIENTED_EDGE ( 'NONE', *, *, #29, .F. ) ;
#165 = ORIENTED_EDGE ( 'NONE', *, *, #29, .T. ) ;
#166 = ORIENTED_EDGE ( 'NONE', *, *, #17, .T. ) ;
#167 = ORIENTED_EDGE ( 'NONE', *, *, #215, .T. ) ;
#168 = CC_DESIGN_SECURITY_CLASSIFICATION ( #20, ( #171 ) ) ;
#169 = DIRECTION ( 'NONE',  ( 1.000000000000000000, 0.000000000000000000, 0.000000000000000000 ) ) ;
#170 = LINE ( 'NONE', #115, #38 ) ;
#171 = PRODUCT_DEFINITION_FORMATION_WITH_SPECIFIED_SOURCE ( 'Symmetric', '', #216, .NOT_KNOWN. ) ;
#172 = DIRECTION ( 'NONE',  ( 0.000000000000000000, 0.000000000000000000, 1.000000000000000000 ) ) ;
#173 = PLANE ( 'NONE',  #136 ) ;
#174 = COORDINATED_UNIVERSAL_TIME_OFFSET ( 10, 0, .AHEAD. ) ;
#175 = CALENDAR_DATE ( 2026, 22, 6 ) ;
#176 = APPROVAL ( #92, 'Coincident' ) ;
#177 = ORIENTED_EDGE ( 'NONE', *, *, #137, .T. ) ;
#178 = EDGE_LOOP ( 'NONE', ( #18, #46, #138, #94 ) ) ;
#179 = CARTESIAN_POINT ( 'NONE',  ( -1.599999339999999881, 1.599999339999999881, 2.899999280000000290 ) ) ;
#180 = ADVANCED_FACE ( 'NONE', ( #102 ), #154, .F. ) ;
#181 = ORIENTED_EDGE ( 'NONE', *, *, #105, .T. ) ;
#182 = LINE ( 'NONE', #209, #118 ) ;
#183 = CC_DESIGN_DATE_AND_TIME_ASSIGNMENT ( #68, #90, ( #20 ) ) ;
#184 = LINE ( 'NONE', #149, #48 ) ;
#185 = CARTESIAN_POINT ( 'NONE',  ( 1.599999339999999881, -1.599999339999999881, 0.000000000000000000 ) ) ;
#186 = MECHANICAL_CONTEXT ( 'NONE', #39, 'mechanical' ) ;
#187 = EDGE_CURVE ( 'NONE', #113, #111, #83, .T. ) ;
#188 = APPROVAL_DATE_TIME ( #122, #176 ) ;
#189 = APPROVAL_DATE_TIME ( #156, #66 ) ;
#190 = SHAPE_DEFINITION_REPRESENTATION ( #204, #132 ) ;
#191 = LINE ( 'NONE', #73, #99 ) ;
#192 = FACE_OUTER_BOUND ( 'NONE', #44, .T. ) ;
#193 = AXIS2_PLACEMENT_3D ( 'NONE', #233, #72, #145 ) ;
#194 = EDGE_LOOP ( 'NONE', ( #114, #165, #234, #202 ) ) ;
#195 = DIRECTION ( 'NONE',  ( 0.000000000000000000, 0.000000000000000000, 1.000000000000000000 ) ) ;
#196 = ORIENTED_EDGE ( 'NONE', *, *, #58, .T. ) ;
#197 = ADVANCED_FACE ( 'NONE', ( #101 ), #79, .T. ) ;
#198 = CARTESIAN_POINT ( 'NONE',  ( 1.599999339999999881, -1.599999339999999881, 2.899999280000000290 ) ) ;
#199 = DIRECTION ( 'NONE',  ( 0.000000000000000000, 0.000000000000000000, 1.000000000000000000 ) ) ;
#200 = DIRECTION ( 'NONE',  ( 0.000000000000000000, 0.000000000000000000, -1.000000000000000000 ) ) ;
#201 = CC_DESIGN_DATE_AND_TIME_ASSIGNMENT ( #88, #139, ( #112 ) ) ;
#202 = ORIENTED_EDGE ( 'NONE', *, *, #47, .F. ) ;
#203 = VECTOR ( 'NONE', #146, 1000.000000000000000 ) ;
#204 = PRODUCT_DEFINITION_SHAPE ( 'NONE', 'NONE',  #112 ) ;
#205 = DIRECTION ( 'NONE',  ( -1.000000000000000000, 0.000000000000000000, 0.000000000000000000 ) ) ;
#206 = COORDINATED_UNIVERSAL_TIME_OFFSET ( 10, 0, .AHEAD. ) ;
#207 = CARTESIAN_POINT ( 'NONE',  ( -1.599999339999999881, -1.599999339999999881, 0.000000000000000000 ) ) ;
#208 = CALENDAR_DATE ( 2026, 22, 6 ) ;
#209 = CARTESIAN_POINT ( 'NONE',  ( 1.599999339999999881, -1.599999339999999881, 0.000000000000000000 ) ) ;
#210 = PERSON_AND_ORGANIZATION ( #18446744073709551615, #18446744073709551615 ) ;
#211 = LINE ( 'NONE', #185, #59 ) ;
#212 = CC_DESIGN_APPROVAL ( #12, ( #20 ) ) ;
#213 = PLANE ( 'NONE',  #193 ) ;
#214 = EDGE_LOOP ( 'NONE', ( #167, #135, #91, #50 ) ) ;
#215 = EDGE_CURVE ( 'NONE', #113, #65, #222, .T. ) ;
#216 = PRODUCT ( 'Extruded-13.step', 'Extruded-13.step', '', ( #186 ) ) ;
#217 = CARTESIAN_POINT ( 'NONE',  ( -7.147063669188000176E-15, 7.112369185356999979E-15, 2.899999280000000290 ) ) ;
#218 = LINE ( 'NONE', #198, #109 ) ;
#219 =( GEOMETRIC_REPRESENTATION_CONTEXT ( 3 ) GLOBAL_UNCERTAINTY_ASSIGNED_CONTEXT ( ( #37 ) ) GLOBAL_UNIT_ASSIGNED_CONTEXT ( ( #25, #117, #7 ) ) REPRESENTATION_CONTEXT ( 'NONE', 'WORKASPACE' ) );
#220 = CC_DESIGN_PERSON_AND_ORGANIZATION_ASSIGNMENT ( #84, #23, ( #216 ) ) ;
#221 = CARTESIAN_POINT ( 'NONE',  ( 0.000000000000000000, 0.000000000000000000, 0.000000000000000000 ) ) ;
#222 = LINE ( 'NONE', #45, #55 ) ;
#223 = DIRECTION ( 'NONE',  ( 0.000000000000000000, 0.000000000000000000, 1.000000000000000000 ) ) ;
#224 = VECTOR ( 'NONE', #205, 1000.000000000000000 ) ;
#225 = LOCAL_TIME ( 18, 49, 57.00000000000000000, #158 ) ;
#226 = ADVANCED_FACE ( 'NONE', ( #152 ), #63, .F. ) ;
#227 = APPROVAL_STATUS ( 'not_yet_approved' ) ;
#228 = PERSON_AND_ORGANIZATION ( #18446744073709551615, #18446744073709551615 ) ;
#229 = CARTESIAN_POINT ( 'NONE',  ( -1.599999339999999881, 1.599999339999999881, 2.899999280000000290 ) ) ;
#230 = APPROVAL_ROLE ( '' ) ;
#231 = ORIENTED_EDGE ( 'NONE', *, *, #131, .T. ) ;
#232 = PERSON_AND_ORGANIZATION_ROLE ( 'design_supplier' ) ;
#233 = CARTESIAN_POINT ( 'NONE',  ( -1.599999339999999881, 1.599999339999999881, 0.000000000000000000 ) ) ;
#234 = ORIENTED_EDGE ( 'NONE', *, *, #77, .F. ) ;
#235 = AXIS2_PLACEMENT_3D ( 'NONE', #221, #155, #169 ) ;
ENDSEC;
END-ISO-10303-21;
