ISO-10303-21;
HEADER;
FILE_DESCRIPTION (( 'STEP AP203' ),
    '1' );
FILE_NAME ('Extruded-7.step.STEP',
    '2026-06-22T08:49:54',
    ( 'localuser' ),
    ( '' ),
    'SwSTEP 2.0',
    'SolidWorks 2025',
    '' );
FILE_SCHEMA (( 'CONFIG_CONTROL_DESIGN' ));
ENDSEC;

DATA;
#1 = EDGE_LOOP ( 'NONE', ( #5, #59, #61, #24 ) ) ;
#2 = APPROVAL_ROLE ( '' ) ;
#3 = LINE ( 'NONE', #174, #69 ) ;
#4 = DIRECTION ( 'NONE',  ( 1.000000000000000000, 0.000000000000000000, 0.000000000000000000 ) ) ;
#5 = ORIENTED_EDGE ( 'NONE', *, *, #19, .T. ) ;
#6 = AXIS2_PLACEMENT_3D ( 'NONE', #230, #151, #201 ) ;
#7 = APPROVAL ( #175, 'Coincident' ) ;
#8 = DIRECTION ( 'NONE',  ( -1.000000000000000000, 0.000000000000000000, 0.000000000000000000 ) ) ;
#9 =( NAMED_UNIT ( * ) PLANE_ANGLE_UNIT ( ) SI_UNIT ( $, .RADIAN. ) );
#10 = CARTESIAN_POINT ( 'NONE',  ( 1.270000012719000060E-06, 0.000000000000000000, 0.9000007399999999658 ) ) ;
#11 = PLANE ( 'NONE',  #52 ) ;
#12 = CARTESIAN_POINT ( 'NONE',  ( -0.6499986999999999293, -0.3999991999999999992, 0.000000000000000000 ) ) ;
#13 = PERSON_AND_ORGANIZATION_ROLE ( 'classification_officer' ) ;
#14 = COORDINATED_UNIVERSAL_TIME_OFFSET ( 10, 0, .AHEAD. ) ;
#15 = AXIS2_PLACEMENT_3D ( 'NONE', #193, #116, #191 ) ;
#16 = CC_DESIGN_SECURITY_CLASSIFICATION ( #134, ( #46 ) ) ;
#17 = CARTESIAN_POINT ( 'NONE',  ( 0.000000000000000000, 0.000000000000000000, 0.000000000000000000 ) ) ;
#18 = DATE_AND_TIME ( #192, #110 ) ;
#19 = EDGE_CURVE ( 'NONE', #177, #141, #3, .T. ) ;
#20 = LINE ( 'NONE', #100, #212 ) ;
#21 = EDGE_LOOP ( 'NONE', ( #156, #221, #207, #118 ) ) ;
#22 = ORIENTED_EDGE ( 'NONE', *, *, #140, .T. ) ;
#23 = CC_DESIGN_PERSON_AND_ORGANIZATION_ASSIGNMENT ( #204, #35, ( #102 ) ) ;
#24 = ORIENTED_EDGE ( 'NONE', *, *, #86, .F. ) ;
#25 = AXIS2_PLACEMENT_3D ( 'NONE', #128, #182, #200 ) ;
#26 = EDGE_CURVE ( 'NONE', #119, #209, #114, .T. ) ;
#27 = CARTESIAN_POINT ( 'NONE',  ( 0.6500012400000000357, -0.3999991999999999992, 0.9000007399999999658 ) ) ;
#28 = DIRECTION ( 'NONE',  ( 0.000000000000000000, 0.000000000000000000, 1.000000000000000000 ) ) ;
#29 = LINE ( 'NONE', #45, #202 ) ;
#30 = DIRECTION ( 'NONE',  ( 0.000000000000000000, -1.000000000000000000, 0.000000000000000000 ) ) ;
#31 = CARTESIAN_POINT ( 'NONE',  ( -0.6499986999999999293, -0.3999991999999999992, 0.9000007399999999658 ) ) ;
#32 = PERSON_AND_ORGANIZATION ( #18446744073709551615, #18446744073709551615 ) ;
#33 = AXIS2_PLACEMENT_3D ( 'NONE', #229, #203, #89 ) ;
#34 = CC_DESIGN_APPROVAL ( #183, ( #46 ) ) ;
#35 = PERSON_AND_ORGANIZATION_ROLE ( 'creator' ) ;
#36 = DIRECTION ( 'NONE',  ( 0.000000000000000000, 0.000000000000000000, 1.000000000000000000 ) ) ;
#37 = APPROVAL_STATUS ( 'not_yet_approved' ) ;
#38 = ADVANCED_FACE ( 'NONE', ( #161 ), #80, .T. ) ;
#39 = DIRECTION ( 'NONE',  ( 0.000000000000000000, -1.000000000000000000, 0.000000000000000000 ) ) ;
#40 = DATE_AND_TIME ( #173, #186 ) ;
#41 = DIRECTION ( 'NONE',  ( 0.000000000000000000, 0.000000000000000000, 1.000000000000000000 ) ) ;
#42 = EDGE_CURVE ( 'NONE', #223, #104, #20, .T. ) ;
#43 = ORIENTED_EDGE ( 'NONE', *, *, #19, .F. ) ;
#44 = PRODUCT_RELATED_PRODUCT_CATEGORY ( 'detail', '', ( #160 ) ) ;
#45 = CARTESIAN_POINT ( 'NONE',  ( -0.6499986999999999293, 0.3999991999999999992, 0.000000000000000000 ) ) ;
#46 = PRODUCT_DEFINITION_FORMATION_WITH_SPECIFIED_SOURCE ( 'Symmetric', '', #160, .NOT_KNOWN. ) ;
#47 = CARTESIAN_POINT ( 'NONE',  ( 0.6500012400000000357, 0.3999991999999999992, 0.9000007399999999658 ) ) ;
#48 = EDGE_CURVE ( 'NONE', #141, #119, #84, .T. ) ;
#49 = LINE ( 'NONE', #67, #228 ) ;
#50 = PLANE ( 'NONE',  #25 ) ;
#51 = DIRECTION ( 'NONE',  ( 0.000000000000000000, 0.000000000000000000, 1.000000000000000000 ) ) ;
#52 = AXIS2_PLACEMENT_3D ( 'NONE', #10, #214, #105 ) ;
#53 = APPROVAL_DATE_TIME ( #40, #183 ) ;
#54 = DATE_AND_TIME ( #170, #120 ) ;
#55 = DATE_AND_TIME ( #159, #122 ) ;
#56 = APPROVAL_PERSON_ORGANIZATION ( #155, #64, #220 ) ;
#57 = ORIENTED_EDGE ( 'NONE', *, *, #42, .F. ) ;
#58 = PERSON_AND_ORGANIZATION ( #18446744073709551615, #18446744073709551615 ) ;
#59 = ORIENTED_EDGE ( 'NONE', *, *, #48, .T. ) ;
#60 = MECHANICAL_CONTEXT ( 'NONE', #91, 'mechanical' ) ;
#61 = ORIENTED_EDGE ( 'NONE', *, *, #127, .F. ) ;
#62 = ORIENTED_EDGE ( 'NONE', *, *, #111, .F. ) ;
#63 = ORIENTED_EDGE ( 'NONE', *, *, #26, .T. ) ;
#64 = APPROVAL ( #37, 'Coincident' ) ;
#65 = APPLICATION_CONTEXT ( 'configuration controlled 3d designs of mechanical parts and assemblies' ) ;
#66 = CARTESIAN_POINT ( 'NONE',  ( -0.6499986999999999293, -0.3999991999999999992, 0.000000000000000000 ) ) ;
#67 = CARTESIAN_POINT ( 'NONE',  ( 0.6500012400000000357, -0.3999991999999999992, 0.000000000000000000 ) ) ;
#68 = CC_DESIGN_PERSON_AND_ORGANIZATION_ASSIGNMENT ( #76, #82, ( #160 ) ) ;
#69 = VECTOR ( 'NONE', #36, 1000.000000000000000 ) ;
#70 = DIRECTION ( 'NONE',  ( 1.000000000000000000, 0.000000000000000000, 0.000000000000000000 ) ) ;
#71 = LINE ( 'NONE', #130, #210 ) ;
#72 = CALENDAR_DATE ( 2026, 22, 6 ) ;
#73 = VECTOR ( 'NONE', #28, 1000.000000000000000 ) ;
#74 = APPROVAL_PERSON_ORGANIZATION ( #234, #7, #2 ) ;
#75 = PERSON_AND_ORGANIZATION_ROLE ( 'design_supplier' ) ;
#76 = PERSON_AND_ORGANIZATION ( #18446744073709551615, #18446744073709551615 ) ;
#77 = VERTEX_POINT ( 'NONE', #211 ) ;
#78 = PERSON_AND_ORGANIZATION_ROLE ( 'creator' ) ;
#79 = CLOSED_SHELL ( 'NONE', ( #226, #171, #219, #232, #85, #38 ) ) ;
#80 = PLANE ( 'NONE',  #15 ) ;
#81 = LOCAL_TIME ( 18, 49, 54.00000000000000000, #92 ) ;
#82 = PERSON_AND_ORGANIZATION_ROLE ( 'design_owner' ) ;
#83 = CARTESIAN_POINT ( 'NONE',  ( 0.6500012400000000357, 0.3999991999999999992, 0.9000007399999999658 ) ) ;
#84 = LINE ( 'NONE', #178, #109 ) ;
#85 = ADVANCED_FACE ( 'NONE', ( #149 ), #187, .T. ) ;
#86 = EDGE_CURVE ( 'NONE', #177, #194, #29, .T. ) ;
#87 = LINE ( 'NONE', #165, #99 ) ;
#88 = FACE_OUTER_BOUND ( 'NONE', #158, .T. ) ;
#89 = DIRECTION ( 'NONE',  ( 0.000000000000000000, 1.000000000000000000, 0.000000000000000000 ) ) ;
#90 = DIRECTION ( 'NONE',  ( -1.000000000000000000, 0.000000000000000000, 0.000000000000000000 ) ) ;
#91 = APPLICATION_CONTEXT ( 'configuration controlled 3d designs of mechanical parts and assemblies' ) ;
#92 = COORDINATED_UNIVERSAL_TIME_OFFSET ( 10, 0, .AHEAD. ) ;
#93 = PERSON_AND_ORGANIZATION ( #18446744073709551615, #18446744073709551615 ) ;
#94 = VECTOR ( 'NONE', #108, 1000.000000000000000 ) ;
#95 = CC_DESIGN_PERSON_AND_ORGANIZATION_ASSIGNMENT ( #172, #13, ( #134 ) ) ;
#96 = COORDINATED_UNIVERSAL_TIME_OFFSET ( 10, 0, .AHEAD. ) ;
#97 = ORIENTED_EDGE ( 'NONE', *, *, #42, .T. ) ;
#98 = DATE_TIME_ROLE ( 'classification_date' ) ;
#99 = VECTOR ( 'NONE', #30, 1000.000000000000000 ) ;
#100 = CARTESIAN_POINT ( 'NONE',  ( -0.6499986999999999293, -0.3999991999999999992, 0.000000000000000000 ) ) ;
#101 = EDGE_LOOP ( 'NONE', ( #117, #63, #62, #180 ) ) ;
#102 = PRODUCT_DEFINITION ( 'General', '', #46, #106 ) ;
#103 = ORIENTED_EDGE ( 'NONE', *, *, #199, .F. ) ;
#104 = VERTEX_POINT ( 'NONE', #31 ) ;
#105 = DIRECTION ( 'NONE',  ( 0.000000000000000000, -1.000000000000000000, 0.000000000000000000 ) ) ;
#106 = DESIGN_CONTEXT ( 'detailed design', #65, 'design' ) ;
#107 = PLANE ( 'NONE',  #129 ) ;
#108 = DIRECTION ( 'NONE',  ( 0.000000000000000000, 1.000000000000000000, 0.000000000000000000 ) ) ;
#109 = VECTOR ( 'NONE', #4, 1000.000000000000000 ) ;
#110 = LOCAL_TIME ( 18, 49, 54.00000000000000000, #137 ) ;
#111 = EDGE_CURVE ( 'NONE', #77, #209, #215, .T. ) ;
#112 = CARTESIAN_POINT ( 'NONE',  ( 0.6500012400000000357, -0.3999991999999999992, 0.000000000000000000 ) ) ;
#113 = APPROVAL_STATUS ( 'not_yet_approved' ) ;
#114 = LINE ( 'NONE', #83, #163 ) ;
#115 = COORDINATED_UNIVERSAL_TIME_OFFSET ( 10, 0, .AHEAD. ) ;
#116 = DIRECTION ( 'NONE',  ( -0.000000000000000000, 1.000000000000000000, 0.000000000000000000 ) ) ;
#117 = ORIENTED_EDGE ( 'NONE', *, *, #127, .T. ) ;
#118 = ORIENTED_EDGE ( 'NONE', *, *, #48, .F. ) ;
#119 = VERTEX_POINT ( 'NONE', #47 ) ;
#120 = LOCAL_TIME ( 18, 49, 54.00000000000000000, #115 ) ;
#121 = CARTESIAN_POINT ( 'NONE',  ( 0.6500012400000000357, 0.3999991999999999992, 0.000000000000000000 ) ) ;
#122 = LOCAL_TIME ( 18, 49, 54.00000000000000000, #14 ) ;
#123 = APPROVAL_PERSON_ORGANIZATION ( #32, #183, #190 ) ;
#124 = LINE ( 'NONE', #121, #176 ) ;
#125 = UNCERTAINTY_MEASURE_WITH_UNIT (LENGTH_MEASURE( 1.000000000000000082E-05 ), #150, 'distance_accuracy_value', 'NONE');
#126 = DIRECTION ( 'NONE',  ( -1.000000000000000000, 0.000000000000000000, 0.000000000000000000 ) ) ;
#127 = EDGE_CURVE ( 'NONE', #194, #119, #124, .T. ) ;
#128 = CARTESIAN_POINT ( 'NONE',  ( 0.6500012400000000357, -0.3999991999999999992, 0.000000000000000000 ) ) ;
#129 = AXIS2_PLACEMENT_3D ( 'NONE', #66, #90, #152 ) ;
#130 = CARTESIAN_POINT ( 'NONE',  ( -0.6499986999999999293, -0.3999991999999999992, 0.9000007399999999658 ) ) ;
#131 = APPROVAL_DATE_TIME ( #153, #7 ) ;
#132 = SHAPE_DEFINITION_REPRESENTATION ( #197, #154 ) ;
#133 = APPROVAL_DATE_TIME ( #55, #64 ) ;
#134 = SECURITY_CLASSIFICATION ( '', '', #188 ) ;
#135 = ORIENTED_EDGE ( 'NONE', *, *, #162, .T. ) ;
#136 = MANIFOLD_SOLID_BREP ( 'Extruded[1]', #79 ) ;
#137 = COORDINATED_UNIVERSAL_TIME_OFFSET ( 10, 0, .AHEAD. ) ;
#138 = ORIENTED_EDGE ( 'NONE', *, *, #111, .T. ) ;
#139 = DATE_TIME_ROLE ( 'creation_date' ) ;
#140 = EDGE_CURVE ( 'NONE', #209, #104, #166, .T. ) ;
#141 = VERTEX_POINT ( 'NONE', #216 ) ;
#142 = AXIS2_PLACEMENT_3D ( 'NONE', #17, #224, #157 ) ;
#143 = ORIENTED_EDGE ( 'NONE', *, *, #199, .T. ) ;
#144 = EDGE_LOOP ( 'NONE', ( #138, #22, #57, #164 ) ) ;
#145 = CC_DESIGN_PERSON_AND_ORGANIZATION_ASSIGNMENT ( #93, #78, ( #46 ) ) ;
#146 = VECTOR ( 'NONE', #8, 1000.000000000000000 ) ;
#147 = DIRECTION ( 'NONE',  ( 0.000000000000000000, 1.000000000000000000, 0.000000000000000000 ) ) ;
#148 = EDGE_CURVE ( 'NONE', #104, #141, #71, .T. ) ;
#149 = FACE_OUTER_BOUND ( 'NONE', #101, .T. ) ;
#150 =( LENGTH_UNIT ( ) NAMED_UNIT ( * ) SI_UNIT ( .MILLI., .METRE. ) );
#151 = DIRECTION ( 'NONE',  ( 0.000000000000000000, 0.000000000000000000, -1.000000000000000000 ) ) ;
#152 = DIRECTION ( 'NONE',  ( 0.000000000000000000, 0.000000000000000000, 1.000000000000000000 ) ) ;
#153 = DATE_AND_TIME ( #72, #81 ) ;
#154 = ADVANCED_BREP_SHAPE_REPRESENTATION ( 'Extruded-7.step', ( #136, #142 ), #235 ) ;
#155 = PERSON_AND_ORGANIZATION ( #18446744073709551615, #18446744073709551615 ) ;
#156 = ORIENTED_EDGE ( 'NONE', *, *, #148, .F. ) ;
#157 = DIRECTION ( 'NONE',  ( 1.000000000000000000, 0.000000000000000000, 0.000000000000000000 ) ) ;
#158 = EDGE_LOOP ( 'NONE', ( #97, #179, #43, #103 ) ) ;
#159 = CALENDAR_DATE ( 2026, 22, 6 ) ;
#160 = PRODUCT ( 'Extruded-7.step', 'Extruded-7.step', '', ( #60 ) ) ;
#161 = FACE_OUTER_BOUND ( 'NONE', #1, .T. ) ;
#162 = EDGE_CURVE ( 'NONE', #194, #77, #87, .T. ) ;
#163 = VECTOR ( 'NONE', #39, 1000.000000000000000 ) ;
#164 = ORIENTED_EDGE ( 'NONE', *, *, #196, .F. ) ;
#165 = CARTESIAN_POINT ( 'NONE',  ( 0.6500012400000000357, 0.3999991999999999992, 0.000000000000000000 ) ) ;
#166 = LINE ( 'NONE', #169, #146 ) ;
#167 = FACE_OUTER_BOUND ( 'NONE', #225, .T. ) ;
#168 = CC_DESIGN_DATE_AND_TIME_ASSIGNMENT ( #18, #98, ( #134 ) ) ;
#169 = CARTESIAN_POINT ( 'NONE',  ( 0.6500012400000000357, -0.3999991999999999992, 0.9000007399999999658 ) ) ;
#170 = CALENDAR_DATE ( 2026, 22, 6 ) ;
#171 = ADVANCED_FACE ( 'NONE', ( #167 ), #198, .T. ) ;
#172 = PERSON_AND_ORGANIZATION ( #18446744073709551615, #18446744073709551615 ) ;
#173 = CALENDAR_DATE ( 2026, 22, 6 ) ;
#174 = CARTESIAN_POINT ( 'NONE',  ( -0.6499986999999999293, 0.3999991999999999992, 0.000000000000000000 ) ) ;
#175 = APPROVAL_STATUS ( 'not_yet_approved' ) ;
#176 = VECTOR ( 'NONE', #51, 1000.000000000000000 ) ;
#177 = VERTEX_POINT ( 'NONE', #184 ) ;
#178 = CARTESIAN_POINT ( 'NONE',  ( -0.6499986999999999293, 0.3999991999999999992, 0.9000007399999999658 ) ) ;
#179 = ORIENTED_EDGE ( 'NONE', *, *, #148, .T. ) ;
#180 = ORIENTED_EDGE ( 'NONE', *, *, #162, .F. ) ;
#181 = CC_DESIGN_PERSON_AND_ORGANIZATION_ASSIGNMENT ( #58, #75, ( #46 ) ) ;
#182 = DIRECTION ( 'NONE',  ( 0.000000000000000000, -1.000000000000000000, 0.000000000000000000 ) ) ;
#183 = APPROVAL ( #113, 'Coincident' ) ;
#184 = CARTESIAN_POINT ( 'NONE',  ( -0.6499986999999999293, 0.3999991999999999992, 0.000000000000000000 ) ) ;
#185 = CARTESIAN_POINT ( 'NONE',  ( -0.6499986999999999293, -0.3999991999999999992, 0.000000000000000000 ) ) ;
#186 = LOCAL_TIME ( 18, 49, 54.00000000000000000, #96 ) ;
#187 = PLANE ( 'NONE',  #33 ) ;
#188 = SECURITY_CLASSIFICATION_LEVEL ( 'unclassified' ) ;
#189 =( NAMED_UNIT ( * ) SI_UNIT ( $, .STERADIAN. ) SOLID_ANGLE_UNIT ( ) );
#190 = APPROVAL_ROLE ( '' ) ;
#191 = DIRECTION ( 'NONE',  ( 1.000000000000000000, 0.000000000000000000, 0.000000000000000000 ) ) ;
#192 = CALENDAR_DATE ( 2026, 22, 6 ) ;
#193 = CARTESIAN_POINT ( 'NONE',  ( -0.6499986999999999293, 0.3999991999999999992, 0.000000000000000000 ) ) ;
#194 = VERTEX_POINT ( 'NONE', #233 ) ;
#195 = ORIENTED_EDGE ( 'NONE', *, *, #86, .T. ) ;
#196 = EDGE_CURVE ( 'NONE', #77, #223, #49, .T. ) ;
#197 = PRODUCT_DEFINITION_SHAPE ( 'NONE', 'NONE',  #102 ) ;
#198 = PLANE ( 'NONE',  #6 ) ;
#199 = EDGE_CURVE ( 'NONE', #223, #177, #217, .T. ) ;
#200 = DIRECTION ( 'NONE',  ( 0.000000000000000000, 0.000000000000000000, -1.000000000000000000 ) ) ;
#201 = DIRECTION ( 'NONE',  ( 0.000000000000000000, -1.000000000000000000, 0.000000000000000000 ) ) ;
#202 = VECTOR ( 'NONE', #70, 1000.000000000000000 ) ;
#203 = DIRECTION ( 'NONE',  ( 1.000000000000000000, 0.000000000000000000, 0.000000000000000000 ) ) ;
#204 = PERSON_AND_ORGANIZATION ( #18446744073709551615, #18446744073709551615 ) ;
#205 = CC_DESIGN_DATE_AND_TIME_ASSIGNMENT ( #54, #139, ( #102 ) ) ;
#206 = APPLICATION_PROTOCOL_DEFINITION ( 'international standard', 'config_control_design', 1994, #91 ) ;
#207 = ORIENTED_EDGE ( 'NONE', *, *, #26, .F. ) ;
#208 = APPLICATION_PROTOCOL_DEFINITION ( 'international standard', 'config_control_design', 1994, #65 ) ;
#209 = VERTEX_POINT ( 'NONE', #27 ) ;
#210 = VECTOR ( 'NONE', #147, 1000.000000000000000 ) ;
#211 = CARTESIAN_POINT ( 'NONE',  ( 0.6500012400000000357, -0.3999991999999999992, 0.000000000000000000 ) ) ;
#212 = VECTOR ( 'NONE', #41, 1000.000000000000000 ) ;
#213 = CC_DESIGN_APPROVAL ( #7, ( #134 ) ) ;
#214 = DIRECTION ( 'NONE',  ( 0.000000000000000000, 0.000000000000000000, -1.000000000000000000 ) ) ;
#215 = LINE ( 'NONE', #112, #73 ) ;
#216 = CARTESIAN_POINT ( 'NONE',  ( -0.6499986999999999293, 0.3999991999999999992, 0.9000007399999999658 ) ) ;
#217 = LINE ( 'NONE', #12, #94 ) ;
#218 = FACE_OUTER_BOUND ( 'NONE', #144, .T. ) ;
#219 = ADVANCED_FACE ( 'NONE', ( #88 ), #107, .T. ) ;
#220 = APPROVAL_ROLE ( '' ) ;
#221 = ORIENTED_EDGE ( 'NONE', *, *, #140, .F. ) ;
#222 = CC_DESIGN_APPROVAL ( #64, ( #102 ) ) ;
#223 = VERTEX_POINT ( 'NONE', #185 ) ;
#224 = DIRECTION ( 'NONE',  ( 0.000000000000000000, 0.000000000000000000, 1.000000000000000000 ) ) ;
#225 = EDGE_LOOP ( 'NONE', ( #195, #135, #227, #143 ) ) ;
#226 = ADVANCED_FACE ( 'NONE', ( #231 ), #11, .F. ) ;
#227 = ORIENTED_EDGE ( 'NONE', *, *, #196, .T. ) ;
#228 = VECTOR ( 'NONE', #126, 1000.000000000000000 ) ;
#229 = CARTESIAN_POINT ( 'NONE',  ( 0.6500012400000000357, 0.3999991999999999992, 0.000000000000000000 ) ) ;
#230 = CARTESIAN_POINT ( 'NONE',  ( 1.270000012719000060E-06, 0.000000000000000000, 0.000000000000000000 ) ) ;
#231 = FACE_OUTER_BOUND ( 'NONE', #21, .T. ) ;
#232 = ADVANCED_FACE ( 'NONE', ( #218 ), #50, .T. ) ;
#233 = CARTESIAN_POINT ( 'NONE',  ( 0.6500012400000000357, 0.3999991999999999992, 0.000000000000000000 ) ) ;
#234 = PERSON_AND_ORGANIZATION ( #18446744073709551615, #18446744073709551615 ) ;
#235 =( GEOMETRIC_REPRESENTATION_CONTEXT ( 3 ) GLOBAL_UNCERTAINTY_ASSIGNED_CONTEXT ( ( #125 ) ) GLOBAL_UNIT_ASSIGNED_CONTEXT ( ( #150, #9, #189 ) ) REPRESENTATION_CONTEXT ( 'NONE', 'WORKASPACE' ) );
ENDSEC;
END-ISO-10303-21;
