ISO-10303-21;
HEADER;
FILE_DESCRIPTION (( 'STEP AP203' ),
    '1' );
FILE_NAME ('Extruded-14.step.STEP',
    '2026-06-22T08:49:59',
    ( 'localuser' ),
    ( '' ),
    'SwSTEP 2.0',
    'SolidWorks 2025',
    '' );
FILE_SCHEMA (( 'CONFIG_CONTROL_DESIGN' ));
ENDSEC;

DATA;
#1 = FACE_OUTER_BOUND ( 'NONE', #73, .T. ) ;
#2 = ORIENTED_EDGE ( 'NONE', *, *, #127, .F. ) ;
#3 = LINE ( 'NONE', #8, #220 ) ;
#4 = FACE_OUTER_BOUND ( 'NONE', #151, .T. ) ;
#5 = FACE_OUTER_BOUND ( 'NONE', #96, .T. ) ;
#6 = PRODUCT_DEFINITION_FORMATION_WITH_SPECIFIED_SOURCE ( 'Symmetric', '', #154, .NOT_KNOWN. ) ;
#7 = DIRECTION ( 'NONE',  ( 0.000000000000000000, 0.000000000000000000, 1.000000000000000000 ) ) ;
#8 = CARTESIAN_POINT ( 'NONE',  ( 0.1414221199999999845, 0.4949748799999999505, 0.000000000000000000 ) ) ;
#9 = DATE_AND_TIME ( #193, #235 ) ;
#10 = PERSON_AND_ORGANIZATION ( #18446744073709551615, #18446744073709551615 ) ;
#11 = EDGE_CURVE ( 'NONE', #78, #152, #134, .T. ) ;
#12 = APPROVAL_DATE_TIME ( #145, #147 ) ;
#13 = PERSON_AND_ORGANIZATION ( #18446744073709551615, #18446744073709551615 ) ;
#14 = MANIFOLD_SOLID_BREP ( 'Extruded[1]', #205 ) ;
#15 = ORIENTED_EDGE ( 'NONE', *, *, #159, .T. ) ;
#16 = CC_DESIGN_DATE_AND_TIME_ASSIGNMENT ( #213, #71, ( #186 ) ) ;
#17 = EDGE_LOOP ( 'NONE', ( #111, #166, #185, #221 ) ) ;
#18 = APPROVAL_PERSON_ORGANIZATION ( #164, #147, #67 ) ;
#19 = CARTESIAN_POINT ( 'NONE',  ( -0.1414195800000000169, -0.4949723400000000662, 0.000000000000000000 ) ) ;
#20 = EDGE_CURVE ( 'NONE', #130, #57, #133, .T. ) ;
#21 = ORIENTED_EDGE ( 'NONE', *, *, #117, .F. ) ;
#22 = DIRECTION ( 'NONE',  ( 0.000000000000000000, 0.000000000000000000, 1.000000000000000000 ) ) ;
#23 = DIRECTION ( 'NONE',  ( 0.000000000000000000, 0.000000000000000000, -1.000000000000000000 ) ) ;
#24 = CARTESIAN_POINT ( 'NONE',  ( -0.4949723400000000662, -0.1414195800000000169, 0.000000000000000000 ) ) ;
#25 = ADVANCED_BREP_SHAPE_REPRESENTATION ( 'Extruded-14.step', ( #14, #131 ), #126 ) ;
#26 = LINE ( 'NONE', #190, #209 ) ;
#27 = VECTOR ( 'NONE', #98, 1000.000000000000114 ) ;
#28 = ADVANCED_FACE ( 'NONE', ( #1 ), #184, .T. ) ;
#29 = DIRECTION ( 'NONE',  ( 0.000000000000000000, 0.000000000000000000, 1.000000000000000000 ) ) ;
#30 = PERSON_AND_ORGANIZATION ( #18446744073709551615, #18446744073709551615 ) ;
#31 = COORDINATED_UNIVERSAL_TIME_OFFSET ( 10, 0, .AHEAD. ) ;
#32 = DIRECTION ( 'NONE',  ( 1.000000000000000000, 0.000000000000000000, 0.000000000000000000 ) ) ;
#33 = CALENDAR_DATE ( 2026, 22, 6 ) ;
#34 = PERSON_AND_ORGANIZATION ( #18446744073709551615, #18446744073709551615 ) ;
#35 = LOCAL_TIME ( 18, 49, 59.00000000000000000, #214 ) ;
#36 = DIRECTION ( 'NONE',  ( 0.000000000000000000, 0.000000000000000000, 1.000000000000000000 ) ) ;
#37 = CC_DESIGN_PERSON_AND_ORGANIZATION_ASSIGNMENT ( #13, #86, ( #154 ) ) ;
#38 = ORIENTED_EDGE ( 'NONE', *, *, #117, .T. ) ;
#39 = ORIENTED_EDGE ( 'NONE', *, *, #202, .F. ) ;
#40 = APPLICATION_CONTEXT ( 'configuration controlled 3d designs of mechanical parts and assemblies' ) ;
#41 = LINE ( 'NONE', #44, #108 ) ;
#42 = FACE_OUTER_BOUND ( 'NONE', #201, .T. ) ;
#43 = DIRECTION ( 'NONE',  ( -0.7071067811865474617, 0.7071067811865474617, 0.000000000000000000 ) ) ;
#44 = CARTESIAN_POINT ( 'NONE',  ( -0.4949723400000000662, -0.1414195800000000169, 0.000000000000000000 ) ) ;
#45 = CARTESIAN_POINT ( 'NONE',  ( 0.4949748799999999505, 0.1414221199999999845, 0.000000000000000000 ) ) ;
#46 = CALENDAR_DATE ( 2026, 22, 6 ) ;
#47 = CALENDAR_DATE ( 2026, 22, 6 ) ;
#48 = VECTOR ( 'NONE', #100, 1000.000000000000000 ) ;
#49 = CARTESIAN_POINT ( 'NONE',  ( 0.000000000000000000, 0.000000000000000000, 0.000000000000000000 ) ) ;
#50 = COORDINATED_UNIVERSAL_TIME_OFFSET ( 10, 0, .AHEAD. ) ;
#51 = VECTOR ( 'NONE', #7, 1000.000000000000000 ) ;
#52 = CC_DESIGN_APPROVAL ( #199, ( #224 ) ) ;
#53 = UNCERTAINTY_MEASURE_WITH_UNIT (LENGTH_MEASURE( 1.000000000000000082E-05 ), #227, 'distance_accuracy_value', 'NONE');
#54 = DIRECTION ( 'NONE',  ( 0.7071067811865474617, 0.7071067811865474617, 0.000000000000000000 ) ) ;
#55 = ORIENTED_EDGE ( 'NONE', *, *, #91, .T. ) ;
#56 = VECTOR ( 'NONE', #36, 1000.000000000000000 ) ;
#57 = VERTEX_POINT ( 'NONE', #158 ) ;
#58 = PLANE ( 'NONE',  #94 ) ;
#59 = CC_DESIGN_PERSON_AND_ORGANIZATION_ASSIGNMENT ( #194, #231, ( #186 ) ) ;
#60 = CARTESIAN_POINT ( 'NONE',  ( 0.4949748799999999505, 0.1414221199999999845, 0.000000000000000000 ) ) ;
#61 = DIRECTION ( 'NONE',  ( 0.7071067811865474617, -0.7071067811865474617, 0.000000000000000000 ) ) ;
#62 = DIRECTION ( 'NONE',  ( 0.7071067811865474617, -0.7071067811865474617, 0.000000000000000000 ) ) ;
#63 = CARTESIAN_POINT ( 'NONE',  ( -0.4949723400000000662, -0.1414195800000000169, 0.4999989999999999712 ) ) ;
#64 = MECHANICAL_CONTEXT ( 'NONE', #40, 'mechanical' ) ;
#65 = ADVANCED_FACE ( 'NONE', ( #188 ), #58, .F. ) ;
#66 = CALENDAR_DATE ( 2026, 22, 6 ) ;
#67 = APPROVAL_ROLE ( '' ) ;
#68 = DATE_TIME_ROLE ( 'classification_date' ) ;
#69 = LOCAL_TIME ( 18, 49, 59.00000000000000000, #50 ) ;
#70 = APPROVAL_PERSON_ORGANIZATION ( #34, #199, #230 ) ;
#71 = DATE_TIME_ROLE ( 'creation_date' ) ;
#72 = EDGE_CURVE ( 'NONE', #76, #78, #41, .T. ) ;
#73 = EDGE_LOOP ( 'NONE', ( #38, #92, #181, #232 ) ) ;
#74 = PRODUCT_RELATED_PRODUCT_CATEGORY ( 'detail', '', ( #154 ) ) ;
#75 = DIRECTION ( 'NONE',  ( 0.000000000000000000, 0.000000000000000000, 1.000000000000000000 ) ) ;
#76 = VERTEX_POINT ( 'NONE', #24 ) ;
#77 = AXIS2_PLACEMENT_3D ( 'NONE', #95, #75, #203 ) ;
#78 = VERTEX_POINT ( 'NONE', #82 ) ;
#79 = PLANE ( 'NONE',  #234 ) ;
#80 = PLANE ( 'NONE',  #198 ) ;
#81 = ADVANCED_FACE ( 'NONE', ( #4 ), #187, .F. ) ;
#82 = CARTESIAN_POINT ( 'NONE',  ( -0.1414195800000000169, -0.4949723400000000662, 0.000000000000000000 ) ) ;
#83 = CC_DESIGN_APPROVAL ( #147, ( #186 ) ) ;
#84 = CARTESIAN_POINT ( 'NONE',  ( 0.1414221199999999845, 0.4949748799999999505, 0.000000000000000000 ) ) ;
#85 = CARTESIAN_POINT ( 'NONE',  ( -0.4949723400000000662, -0.1414195800000000169, 0.4999989999999999712 ) ) ;
#86 = PERSON_AND_ORGANIZATION_ROLE ( 'design_owner' ) ;
#87 = SECURITY_CLASSIFICATION_LEVEL ( 'unclassified' ) ;
#88 = APPLICATION_PROTOCOL_DEFINITION ( 'international standard', 'config_control_design', 1994, #40 ) ;
#89 = APPROVAL_ROLE ( '' ) ;
#90 = VERTEX_POINT ( 'NONE', #63 ) ;
#91 = EDGE_CURVE ( 'NONE', #130, #76, #3, .T. ) ;
#92 = ORIENTED_EDGE ( 'NONE', *, *, #122, .T. ) ;
#93 = VECTOR ( 'NONE', #43, 1000.000000000000114 ) ;
#94 = AXIS2_PLACEMENT_3D ( 'NONE', #157, #222, #23 ) ;
#95 = CARTESIAN_POINT ( 'NONE',  ( 1.269999994053000011E-06, 1.270000011932999860E-06, 0.4999989999999999712 ) ) ;
#96 = EDGE_LOOP ( 'NONE', ( #113, #219, #135, #197 ) ) ;
#97 = VECTOR ( 'NONE', #171, 1000.000000000000000 ) ;
#98 = DIRECTION ( 'NONE',  ( 0.7071067811865474617, 0.7071067811865474617, 0.000000000000000000 ) ) ;
#99 = LOCAL_TIME ( 18, 49, 59.00000000000000000, #175 ) ;
#100 = DIRECTION ( 'NONE',  ( 0.000000000000000000, 0.000000000000000000, 1.000000000000000000 ) ) ;
#101 = EDGE_CURVE ( 'NONE', #90, #233, #142, .T. ) ;
#102 = LINE ( 'NONE', #45, #109 ) ;
#103 = CARTESIAN_POINT ( 'NONE',  ( 0.4949748799999999505, 0.1414221199999999845, 0.4999989999999999712 ) ) ;
#104 = DIRECTION ( 'NONE',  ( 1.000000000000000000, 0.000000000000000000, 0.000000000000000000 ) ) ;
#105 = APPROVAL_DATE_TIME ( #123, #176 ) ;
#106 = EDGE_CURVE ( 'NONE', #152, #148, #225, .T. ) ;
#107 =( NAMED_UNIT ( * ) PLANE_ANGLE_UNIT ( ) SI_UNIT ( $, .RADIAN. ) );
#108 = VECTOR ( 'NONE', #61, 1000.000000000000114 ) ;
#109 = VECTOR ( 'NONE', #172, 1000.000000000000114 ) ;
#110 = ADVANCED_FACE ( 'NONE', ( #42 ), #79, .F. ) ;
#111 = ORIENTED_EDGE ( 'NONE', *, *, #72, .T. ) ;
#112 = ORIENTED_EDGE ( 'NONE', *, *, #20, .F. ) ;
#113 = ORIENTED_EDGE ( 'NONE', *, *, #72, .F. ) ;
#114 = CARTESIAN_POINT ( 'NONE',  ( -0.1414195800000000169, -0.4949723400000000662, 0.000000000000000000 ) ) ;
#115 = FACE_OUTER_BOUND ( 'NONE', #150, .T. ) ;
#116 = CC_DESIGN_SECURITY_CLASSIFICATION ( #224, ( #6 ) ) ;
#117 = EDGE_CURVE ( 'NONE', #233, #148, #223, .T. ) ;
#118 = CARTESIAN_POINT ( 'NONE',  ( 0.1414221199999999845, 0.4949748799999999505, 0.000000000000000000 ) ) ;
#119 = CARTESIAN_POINT ( 'NONE',  ( 0.4949748799999999505, 0.1414221199999999845, 0.4999989999999999712 ) ) ;
#120 = PLANE ( 'NONE',  #143 ) ;
#121 = VECTOR ( 'NONE', #62, 1000.000000000000114 ) ;
#122 = EDGE_CURVE ( 'NONE', #148, #57, #206, .T. ) ;
#123 = DATE_AND_TIME ( #46, #99 ) ;
#124 = SHAPE_DEFINITION_REPRESENTATION ( #162, #25 ) ;
#125 = PERSON_AND_ORGANIZATION_ROLE ( 'design_supplier' ) ;
#126 =( GEOMETRIC_REPRESENTATION_CONTEXT ( 3 ) GLOBAL_UNCERTAINTY_ASSIGNED_CONTEXT ( ( #53 ) ) GLOBAL_UNIT_ASSIGNED_CONTEXT ( ( #227, #107, #210 ) ) REPRESENTATION_CONTEXT ( 'NONE', 'WORKASPACE' ) );
#127 = EDGE_CURVE ( 'NONE', #57, #90, #26, .T. ) ;
#128 = PERSON_AND_ORGANIZATION ( #18446744073709551615, #18446744073709551615 ) ;
#129 = PERSON_AND_ORGANIZATION_ROLE ( 'classification_officer' ) ;
#130 = VERTEX_POINT ( 'NONE', #118 ) ;
#131 = AXIS2_PLACEMENT_3D ( 'NONE', #49, #179, #32 ) ;
#132 = CC_DESIGN_DATE_AND_TIME_ASSIGNMENT ( #9, #68, ( #224 ) ) ;
#133 = LINE ( 'NONE', #167, #56 ) ;
#134 = LINE ( 'NONE', #19, #165 ) ;
#135 = ORIENTED_EDGE ( 'NONE', *, *, #215, .F. ) ;
#136 = LINE ( 'NONE', #114, #97 ) ;
#137 = CC_DESIGN_PERSON_AND_ORGANIZATION_ASSIGNMENT ( #163, #129, ( #224 ) ) ;
#138 = DIRECTION ( 'NONE',  ( 0.7071067811865475727, -0.7071067811865475727, 0.000000000000000000 ) ) ;
#139 = AXIS2_PLACEMENT_3D ( 'NONE', #226, #169, #204 ) ;
#140 = CARTESIAN_POINT ( 'NONE',  ( -0.1414195800000000169, -0.4949723400000000662, 0.000000000000000000 ) ) ;
#141 = DIRECTION ( 'NONE',  ( -0.7071067811865475727, 0.7071067811865475727, 0.000000000000000000 ) ) ;
#142 = LINE ( 'NONE', #85, #121 ) ;
#143 = AXIS2_PLACEMENT_3D ( 'NONE', #191, #29, #104 ) ;
#144 = DATE_AND_TIME ( #66, #35 ) ;
#145 = DATE_AND_TIME ( #47, #156 ) ;
#146 = APPROVAL_STATUS ( 'not_yet_approved' ) ;
#147 = APPROVAL ( #192, 'Coincident' ) ;
#148 = VERTEX_POINT ( 'NONE', #103 ) ;
#149 = ORIENTED_EDGE ( 'NONE', *, *, #122, .F. ) ;
#150 = EDGE_LOOP ( 'NONE', ( #55, #15, #2, #112 ) ) ;
#151 = EDGE_LOOP ( 'NONE', ( #216, #168, #149, #182 ) ) ;
#152 = VERTEX_POINT ( 'NONE', #60 ) ;
#153 = LINE ( 'NONE', #173, #51 ) ;
#154 = PRODUCT ( 'Extruded-14.step', 'Extruded-14.step', '', ( #64 ) ) ;
#155 = CARTESIAN_POINT ( 'NONE',  ( 0.4949748799999999505, 0.1414221199999999845, 0.000000000000000000 ) ) ;
#156 = LOCAL_TIME ( 18, 49, 59.00000000000000000, #31 ) ;
#157 = CARTESIAN_POINT ( 'NONE',  ( -0.4949723400000000662, -0.1414195800000000169, 0.000000000000000000 ) ) ;
#158 = CARTESIAN_POINT ( 'NONE',  ( 0.1414221199999999845, 0.4949748799999999505, 0.4999989999999999712 ) ) ;
#159 = EDGE_CURVE ( 'NONE', #76, #90, #153, .T. ) ;
#160 = DIRECTION ( 'NONE',  ( -0.7071067811865474617, -0.7071067811865474617, 0.000000000000000000 ) ) ;
#161 = APPLICATION_PROTOCOL_DEFINITION ( 'international standard', 'config_control_design', 1994, #180 ) ;
#162 = PRODUCT_DEFINITION_SHAPE ( 'NONE', 'NONE',  #186 ) ;
#163 = PERSON_AND_ORGANIZATION ( #18446744073709551615, #18446744073709551615 ) ;
#164 = PERSON_AND_ORGANIZATION ( #18446744073709551615, #18446744073709551615 ) ;
#165 = VECTOR ( 'NONE', #54, 1000.000000000000114 ) ;
#166 = ORIENTED_EDGE ( 'NONE', *, *, #202, .T. ) ;
#167 = CARTESIAN_POINT ( 'NONE',  ( 0.1414221199999999845, 0.4949748799999999505, 0.000000000000000000 ) ) ;
#168 = ORIENTED_EDGE ( 'NONE', *, *, #20, .T. ) ;
#169 = DIRECTION ( 'NONE',  ( -0.7071067811865475727, -0.7071067811865475727, 0.000000000000000000 ) ) ;
#170 = CC_DESIGN_PERSON_AND_ORGANIZATION_ASSIGNMENT ( #128, #125, ( #6 ) ) ;
#171 = DIRECTION ( 'NONE',  ( 0.000000000000000000, 0.000000000000000000, 1.000000000000000000 ) ) ;
#172 = DIRECTION ( 'NONE',  ( -0.7071067811865474617, 0.7071067811865474617, 0.000000000000000000 ) ) ;
#173 = CARTESIAN_POINT ( 'NONE',  ( -0.4949723400000000662, -0.1414195800000000169, 0.000000000000000000 ) ) ;
#174 = CARTESIAN_POINT ( 'NONE',  ( -0.1414195800000000169, -0.4949723400000000662, 0.4999989999999999712 ) ) ;
#175 = COORDINATED_UNIVERSAL_TIME_OFFSET ( 10, 0, .AHEAD. ) ;
#176 = APPROVAL ( #177, 'Coincident' ) ;
#177 = APPROVAL_STATUS ( 'not_yet_approved' ) ;
#178 = PERSON_AND_ORGANIZATION_ROLE ( 'creator' ) ;
#179 = DIRECTION ( 'NONE',  ( 0.000000000000000000, 0.000000000000000000, 1.000000000000000000 ) ) ;
#180 = APPLICATION_CONTEXT ( 'configuration controlled 3d designs of mechanical parts and assemblies' ) ;
#181 = ORIENTED_EDGE ( 'NONE', *, *, #127, .T. ) ;
#182 = ORIENTED_EDGE ( 'NONE', *, *, #106, .F. ) ;
#183 = DESIGN_CONTEXT ( 'detailed design', #180, 'design' ) ;
#184 = PLANE ( 'NONE',  #77 ) ;
#185 = ORIENTED_EDGE ( 'NONE', *, *, #101, .F. ) ;
#186 = PRODUCT_DEFINITION ( 'General', '', #6, #183 ) ;
#187 = PLANE ( 'NONE',  #139 ) ;
#188 = FACE_OUTER_BOUND ( 'NONE', #17, .T. ) ;
#189 = DIRECTION ( 'NONE',  ( -0.7071067811865474617, -0.7071067811865474617, 0.000000000000000000 ) ) ;
#190 = CARTESIAN_POINT ( 'NONE',  ( 0.1414221199999999845, 0.4949748799999999505, 0.4999989999999999712 ) ) ;
#191 = CARTESIAN_POINT ( 'NONE',  ( 1.269999994053000011E-06, 1.270000011932999860E-06, 0.000000000000000000 ) ) ;
#192 = APPROVAL_STATUS ( 'not_yet_approved' ) ;
#193 = CALENDAR_DATE ( 2026, 22, 6 ) ;
#194 = PERSON_AND_ORGANIZATION ( #18446744073709551615, #18446744073709551615 ) ;
#195 = ADVANCED_FACE ( 'NONE', ( #115 ), #80, .F. ) ;
#196 = COORDINATED_UNIVERSAL_TIME_OFFSET ( 10, 0, .AHEAD. ) ;
#197 = ORIENTED_EDGE ( 'NONE', *, *, #11, .F. ) ;
#198 = AXIS2_PLACEMENT_3D ( 'NONE', #84, #138, #208 ) ;
#199 = APPROVAL ( #146, 'Coincident' ) ;
#200 = ORIENTED_EDGE ( 'NONE', *, *, #11, .T. ) ;
#201 = EDGE_LOOP ( 'NONE', ( #200, #218, #21, #39 ) ) ;
#202 = EDGE_CURVE ( 'NONE', #78, #233, #136, .T. ) ;
#203 = DIRECTION ( 'NONE',  ( 1.000000000000000000, 0.000000000000000000, 0.000000000000000000 ) ) ;
#204 = DIRECTION ( 'NONE',  ( -0.7071067811865475727, 0.7071067811865475727, 0.000000000000000000 ) ) ;
#205 = CLOSED_SHELL ( 'NONE', ( #28, #228, #65, #195, #81, #110 ) ) ;
#206 = LINE ( 'NONE', #119, #93 ) ;
#207 = CARTESIAN_POINT ( 'NONE',  ( -0.1414195800000000169, -0.4949723400000000662, 0.4999989999999999712 ) ) ;
#208 = DIRECTION ( 'NONE',  ( 0.000000000000000000, 0.000000000000000000, -1.000000000000000000 ) ) ;
#209 = VECTOR ( 'NONE', #160, 1000.000000000000114 ) ;
#210 =( NAMED_UNIT ( * ) SI_UNIT ( $, .STERADIAN. ) SOLID_ANGLE_UNIT ( ) );
#211 = CC_DESIGN_PERSON_AND_ORGANIZATION_ASSIGNMENT ( #10, #178, ( #6 ) ) ;
#212 = APPROVAL_DATE_TIME ( #144, #199 ) ;
#213 = DATE_AND_TIME ( #33, #69 ) ;
#214 = COORDINATED_UNIVERSAL_TIME_OFFSET ( 10, 0, .AHEAD. ) ;
#215 = EDGE_CURVE ( 'NONE', #152, #130, #102, .T. ) ;
#216 = ORIENTED_EDGE ( 'NONE', *, *, #215, .T. ) ;
#217 = APPROVAL_PERSON_ORGANIZATION ( #30, #176, #89 ) ;
#218 = ORIENTED_EDGE ( 'NONE', *, *, #106, .T. ) ;
#219 = ORIENTED_EDGE ( 'NONE', *, *, #91, .F. ) ;
#220 = VECTOR ( 'NONE', #189, 1000.000000000000114 ) ;
#221 = ORIENTED_EDGE ( 'NONE', *, *, #159, .F. ) ;
#222 = DIRECTION ( 'NONE',  ( 0.7071067811865475727, 0.7071067811865475727, 0.000000000000000000 ) ) ;
#223 = LINE ( 'NONE', #207, #27 ) ;
#224 = SECURITY_CLASSIFICATION ( '', '', #87 ) ;
#225 = LINE ( 'NONE', #155, #48 ) ;
#226 = CARTESIAN_POINT ( 'NONE',  ( 0.4949748799999999505, 0.1414221199999999845, 0.000000000000000000 ) ) ;
#227 =( LENGTH_UNIT ( ) NAMED_UNIT ( * ) SI_UNIT ( .MILLI., .METRE. ) );
#228 = ADVANCED_FACE ( 'NONE', ( #5 ), #120, .F. ) ;
#229 = CC_DESIGN_APPROVAL ( #176, ( #6 ) ) ;
#230 = APPROVAL_ROLE ( '' ) ;
#231 = PERSON_AND_ORGANIZATION_ROLE ( 'creator' ) ;
#232 = ORIENTED_EDGE ( 'NONE', *, *, #101, .T. ) ;
#233 = VERTEX_POINT ( 'NONE', #174 ) ;
#234 = AXIS2_PLACEMENT_3D ( 'NONE', #140, #141, #22 ) ;
#235 = LOCAL_TIME ( 18, 49, 59.00000000000000000, #196 ) ;
ENDSEC;
END-ISO-10303-21;
