ISO-10303-21;
HEADER;
FILE_DESCRIPTION (( 'STEP AP203' ),
    '1' );
FILE_NAME ('Extruded.step.STEP',
    '2026-06-22T08:49:52',
    ( 'localuser' ),
    ( '' ),
    'SwSTEP 2.0',
    'SolidWorks 2025',
    '' );
FILE_SCHEMA (( 'CONFIG_CONTROL_DESIGN' ));
ENDSEC;

DATA;
#1 = DIRECTION ( 'NONE',  ( 0.000000000000000000, 0.000000000000000000, -1.000000000000000000 ) ) ;
#2 = EDGE_LOOP ( 'NONE', ( #6, #186, #115, #78 ) ) ;
#3 = CARTESIAN_POINT ( 'NONE',  ( 0.4499990999999999852, -0.2499994999999999856, 0.000000000000000000 ) ) ;
#4 = LINE ( 'NONE', #77, #118 ) ;
#5 = EDGE_CURVE ( 'NONE', #61, #202, #4, .T. ) ;
#6 = ORIENTED_EDGE ( 'NONE', *, *, #200, .T. ) ;
#7 = EDGE_LOOP ( 'NONE', ( #188, #113, #203, #95 ) ) ;
#8 = APPROVAL_DATE_TIME ( #41, #114 ) ;
#9 = PERSON_AND_ORGANIZATION_ROLE ( 'design_supplier' ) ;
#10 = PERSON_AND_ORGANIZATION ( #18446744073709551615, #18446744073709551615 ) ;
#11 = PERSON_AND_ORGANIZATION ( #18446744073709551615, #18446744073709551615 ) ;
#12 = APPROVAL_ROLE ( '' ) ;
#13 = DIRECTION ( 'NONE',  ( 0.000000000000000000, 0.000000000000000000, 1.000000000000000000 ) ) ;
#14 = CARTESIAN_POINT ( 'NONE',  ( -0.4499965600000000454, -0.2499994999999999856, 0.000000000000000000 ) ) ;
#15 = LINE ( 'NONE', #218, #224 ) ;
#16 = APPROVAL_ROLE ( '' ) ;
#17 = CARTESIAN_POINT ( 'NONE',  ( 1.270000012716000081E-06, 0.000000000000000000, 0.4999989999999999712 ) ) ;
#18 = DIRECTION ( 'NONE',  ( 0.000000000000000000, 0.000000000000000000, 1.000000000000000000 ) ) ;
#19 = ORIENTED_EDGE ( 'NONE', *, *, #108, .T. ) ;
#20 = ORIENTED_EDGE ( 'NONE', *, *, #108, .F. ) ;
#21 = VERTEX_POINT ( 'NONE', #151 ) ;
#22 = LINE ( 'NONE', #117, #174 ) ;
#23 = CALENDAR_DATE ( 2026, 22, 6 ) ;
#24 = APPROVAL ( #141, 'Coincident' ) ;
#25 = ADVANCED_BREP_SHAPE_REPRESENTATION ( 'Extruded.step', ( #120, #96 ), #136 ) ;
#26 = VECTOR ( 'NONE', #35, 1000.000000000000000 ) ;
#27 = PRODUCT ( 'Extruded.step', 'Extruded.step', '', ( #71 ) ) ;
#28 = CC_DESIGN_PERSON_AND_ORGANIZATION_ASSIGNMENT ( #99, #226, ( #82 ) ) ;
#29 = DATE_AND_TIME ( #66, #132 ) ;
#30 = EDGE_CURVE ( 'NONE', #57, #21, #221, .T. ) ;
#31 = FACE_OUTER_BOUND ( 'NONE', #2, .T. ) ;
#32 = DIRECTION ( 'NONE',  ( 1.000000000000000000, 0.000000000000000000, 0.000000000000000000 ) ) ;
#33 = PLANE ( 'NONE',  #210 ) ;
#34 = APPLICATION_CONTEXT ( 'configuration controlled 3d designs of mechanical parts and assemblies' ) ;
#35 = DIRECTION ( 'NONE',  ( -1.000000000000000000, 0.000000000000000000, 0.000000000000000000 ) ) ;
#36 = DIRECTION ( 'NONE',  ( 0.000000000000000000, 1.000000000000000000, 0.000000000000000000 ) ) ;
#37 = VECTOR ( 'NONE', #144, 1000.000000000000000 ) ;
#38 = EDGE_LOOP ( 'NONE', ( #219, #135, #112, #81 ) ) ;
#39 = PERSON_AND_ORGANIZATION ( #18446744073709551615, #18446744073709551615 ) ;
#40 = ORIENTED_EDGE ( 'NONE', *, *, #222, .T. ) ;
#41 = DATE_AND_TIME ( #23, #126 ) ;
#42 = DIRECTION ( 'NONE',  ( -1.000000000000000000, 0.000000000000000000, 0.000000000000000000 ) ) ;
#43 = ORIENTED_EDGE ( 'NONE', *, *, #191, .F. ) ;
#44 = DATE_AND_TIME ( #209, #47 ) ;
#45 = EDGE_CURVE ( 'NONE', #57, #205, #106, .T. ) ;
#46 = DATE_TIME_ROLE ( 'classification_date' ) ;
#47 = LOCAL_TIME ( 18, 49, 52.00000000000000000, #138 ) ;
#48 = CC_DESIGN_SECURITY_CLASSIFICATION ( #162, ( #82 ) ) ;
#49 = CARTESIAN_POINT ( 'NONE',  ( 0.4499990999999999852, -0.2499994999999999856, 0.4999989999999999712 ) ) ;
#50 = DIRECTION ( 'NONE',  ( 0.000000000000000000, 1.000000000000000000, 0.000000000000000000 ) ) ;
#51 = PLANE ( 'NONE',  #105 ) ;
#52 = PRODUCT_DEFINITION ( 'General', '', #82, #153 ) ;
#53 = AXIS2_PLACEMENT_3D ( 'NONE', #147, #213, #102 ) ;
#54 = PERSON_AND_ORGANIZATION_ROLE ( 'design_owner' ) ;
#55 = LINE ( 'NONE', #128, #26 ) ;
#56 = PLANE ( 'NONE',  #123 ) ;
#57 = VERTEX_POINT ( 'NONE', #70 ) ;
#58 = CC_DESIGN_PERSON_AND_ORGANIZATION_ASSIGNMENT ( #109, #54, ( #27 ) ) ;
#59 = APPLICATION_PROTOCOL_DEFINITION ( 'international standard', 'config_control_design', 1994, #177 ) ;
#60 = AXIS2_PLACEMENT_3D ( 'NONE', #231, #88, #18 ) ;
#61 = VERTEX_POINT ( 'NONE', #194 ) ;
#62 = ORIENTED_EDGE ( 'NONE', *, *, #45, .F. ) ;
#63 = CC_DESIGN_DATE_AND_TIME_ASSIGNMENT ( #29, #46, ( #162 ) ) ;
#64 = CC_DESIGN_APPROVAL ( #214, ( #82 ) ) ;
#65 = ADVANCED_FACE ( 'NONE', ( #86 ), #165, .T. ) ;
#66 = CALENDAR_DATE ( 2026, 22, 6 ) ;
#67 = DIRECTION ( 'NONE',  ( 0.000000000000000000, 0.000000000000000000, -1.000000000000000000 ) ) ;
#68 = APPLICATION_PROTOCOL_DEFINITION ( 'international standard', 'config_control_design', 1994, #34 ) ;
#69 = ADVANCED_FACE ( 'NONE', ( #129 ), #163, .T. ) ;
#70 = CARTESIAN_POINT ( 'NONE',  ( -0.4499965600000000454, -0.2499994999999999856, 0.000000000000000000 ) ) ;
#71 = MECHANICAL_CONTEXT ( 'NONE', #34, 'mechanical' ) ;
#72 = DIRECTION ( 'NONE',  ( 0.000000000000000000, 0.000000000000000000, -1.000000000000000000 ) ) ;
#73 = CLOSED_SHELL ( 'NONE', ( #195, #158, #133, #69, #65, #100 ) ) ;
#74 = FACE_OUTER_BOUND ( 'NONE', #152, .T. ) ;
#75 = EDGE_LOOP ( 'NONE', ( #19, #189, #173, #134 ) ) ;
#76 = CARTESIAN_POINT ( 'NONE',  ( -0.4499965600000000454, 0.2499994999999999856, 0.000000000000000000 ) ) ;
#77 = CARTESIAN_POINT ( 'NONE',  ( 0.4499990999999999852, 0.2499994999999999856, 0.000000000000000000 ) ) ;
#78 = ORIENTED_EDGE ( 'NONE', *, *, #5, .F. ) ;
#79 = VECTOR ( 'NONE', #50, 1000.000000000000000 ) ;
#80 = ORIENTED_EDGE ( 'NONE', *, *, #97, .T. ) ;
#81 = ORIENTED_EDGE ( 'NONE', *, *, #222, .F. ) ;
#82 = PRODUCT_DEFINITION_FORMATION_WITH_SPECIFIED_SOURCE ( 'Symmetric', '', #27, .NOT_KNOWN. ) ;
#83 = CC_DESIGN_PERSON_AND_ORGANIZATION_ASSIGNMENT ( #39, #139, ( #52 ) ) ;
#84 = LINE ( 'NONE', #124, #37 ) ;
#85 = EDGE_CURVE ( 'NONE', #205, #61, #180, .T. ) ;
#86 = FACE_OUTER_BOUND ( 'NONE', #187, .T. ) ;
#87 = DIRECTION ( 'NONE',  ( 0.000000000000000000, 0.000000000000000000, 1.000000000000000000 ) ) ;
#88 = DIRECTION ( 'NONE',  ( -1.000000000000000000, 0.000000000000000000, 0.000000000000000000 ) ) ;
#89 = VECTOR ( 'NONE', #234, 1000.000000000000000 ) ;
#90 = VECTOR ( 'NONE', #183, 1000.000000000000000 ) ;
#91 = CC_DESIGN_APPROVAL ( #24, ( #162 ) ) ;
#92 = DIRECTION ( 'NONE',  ( 0.000000000000000000, -1.000000000000000000, 0.000000000000000000 ) ) ;
#93 = ORIENTED_EDGE ( 'NONE', *, *, #30, .F. ) ;
#94 = DIRECTION ( 'NONE',  ( 0.000000000000000000, -1.000000000000000000, 0.000000000000000000 ) ) ;
#95 = ORIENTED_EDGE ( 'NONE', *, *, #5, .T. ) ;
#96 = AXIS2_PLACEMENT_3D ( 'NONE', #232, #149, #220 ) ;
#97 = EDGE_CURVE ( 'NONE', #21, #223, #193, .T. ) ;
#98 = SECURITY_CLASSIFICATION_LEVEL ( 'unclassified' ) ;
#99 = PERSON_AND_ORGANIZATION ( #18446744073709551615, #18446744073709551615 ) ;
#100 = ADVANCED_FACE ( 'NONE', ( #74 ), #33, .T. ) ;
#101 = VECTOR ( 'NONE', #168, 1000.000000000000000 ) ;
#102 = DIRECTION ( 'NONE',  ( 1.000000000000000000, 0.000000000000000000, 0.000000000000000000 ) ) ;
#103 = EDGE_CURVE ( 'NONE', #223, #170, #84, .T. ) ;
#104 = UNCERTAINTY_MEASURE_WITH_UNIT (LENGTH_MEASURE( 1.000000000000000082E-05 ), #167, 'distance_accuracy_value', 'NONE');
#105 = AXIS2_PLACEMENT_3D ( 'NONE', #127, #197, #36 ) ;
#106 = LINE ( 'NONE', #14, #79 ) ;
#107 = DIRECTION ( 'NONE',  ( 0.000000000000000000, -1.000000000000000000, 0.000000000000000000 ) ) ;
#108 = EDGE_CURVE ( 'NONE', #205, #223, #216, .T. ) ;
#109 = PERSON_AND_ORGANIZATION ( #18446744073709551615, #18446744073709551615 ) ;
#110 = FACE_OUTER_BOUND ( 'NONE', #38, .T. ) ;
#111 = CARTESIAN_POINT ( 'NONE',  ( 0.4499990999999999852, -0.2499994999999999856, 0.4999989999999999712 ) ) ;
#112 = ORIENTED_EDGE ( 'NONE', *, *, #97, .F. ) ;
#113 = ORIENTED_EDGE ( 'NONE', *, *, #45, .T. ) ;
#114 = APPROVAL ( #131, 'Coincident' ) ;
#115 = ORIENTED_EDGE ( 'NONE', *, *, #146, .F. ) ;
#116 = ORIENTED_EDGE ( 'NONE', *, *, #146, .T. ) ;
#117 = CARTESIAN_POINT ( 'NONE',  ( 0.4499990999999999852, 0.2499994999999999856, 0.4999989999999999712 ) ) ;
#118 = VECTOR ( 'NONE', #94, 1000.000000000000000 ) ;
#119 = SHAPE_DEFINITION_REPRESENTATION ( #154, #25 ) ;
#120 = MANIFOLD_SOLID_BREP ( 'Extruded[1]', #73 ) ;
#121 = DATE_TIME_ROLE ( 'creation_date' ) ;
#122 = APPROVAL_DATE_TIME ( #211, #24 ) ;
#123 = AXIS2_PLACEMENT_3D ( 'NONE', #145, #67, #179 ) ;
#124 = CARTESIAN_POINT ( 'NONE',  ( -0.4499965600000000454, 0.2499994999999999856, 0.4999989999999999712 ) ) ;
#125 = CARTESIAN_POINT ( 'NONE',  ( -0.4499965600000000454, 0.2499994999999999856, 0.000000000000000000 ) ) ;
#126 = LOCAL_TIME ( 18, 49, 52.00000000000000000, #190 ) ;
#127 = CARTESIAN_POINT ( 'NONE',  ( 0.4499990999999999852, 0.2499994999999999856, 0.000000000000000000 ) ) ;
#128 = CARTESIAN_POINT ( 'NONE',  ( 0.4499990999999999852, -0.2499994999999999856, 0.000000000000000000 ) ) ;
#129 = FACE_OUTER_BOUND ( 'NONE', #75, .T. ) ;
#130 = ORIENTED_EDGE ( 'NONE', *, *, #30, .T. ) ;
#131 = APPROVAL_STATUS ( 'not_yet_approved' ) ;
#132 = LOCAL_TIME ( 18, 49, 52.00000000000000000, #161 ) ;
#133 = ADVANCED_FACE ( 'NONE', ( #31 ), #51, .T. ) ;
#134 = ORIENTED_EDGE ( 'NONE', *, *, #85, .F. ) ;
#135 = ORIENTED_EDGE ( 'NONE', *, *, #103, .F. ) ;
#136 =( GEOMETRIC_REPRESENTATION_CONTEXT ( 3 ) GLOBAL_UNCERTAINTY_ASSIGNED_CONTEXT ( ( #104 ) ) GLOBAL_UNIT_ASSIGNED_CONTEXT ( ( #167, #164, #182 ) ) REPRESENTATION_CONTEXT ( 'NONE', 'WORKASPACE' ) );
#137 = LOCAL_TIME ( 18, 49, 52.00000000000000000, #175 ) ;
#138 = COORDINATED_UNIVERSAL_TIME_OFFSET ( 10, 0, .AHEAD. ) ;
#139 = PERSON_AND_ORGANIZATION_ROLE ( 'creator' ) ;
#140 = VECTOR ( 'NONE', #13, 1000.000000000000000 ) ;
#141 = APPROVAL_STATUS ( 'not_yet_approved' ) ;
#142 = LOCAL_TIME ( 18, 49, 52.00000000000000000, #157 ) ;
#143 = CARTESIAN_POINT ( 'NONE',  ( 0.4499990999999999852, 0.2499994999999999856, 0.000000000000000000 ) ) ;
#144 = DIRECTION ( 'NONE',  ( 1.000000000000000000, 0.000000000000000000, 0.000000000000000000 ) ) ;
#145 = CARTESIAN_POINT ( 'NONE',  ( 1.270000012716000081E-06, 0.000000000000000000, 0.000000000000000000 ) ) ;
#146 = EDGE_CURVE ( 'NONE', #202, #148, #15, .T. ) ;
#147 = CARTESIAN_POINT ( 'NONE',  ( -0.4499965600000000454, 0.2499994999999999856, 0.000000000000000000 ) ) ;
#148 = VERTEX_POINT ( 'NONE', #111 ) ;
#149 = DIRECTION ( 'NONE',  ( 0.000000000000000000, 0.000000000000000000, 1.000000000000000000 ) ) ;
#150 = DIRECTION ( 'NONE',  ( 0.000000000000000000, -1.000000000000000000, 0.000000000000000000 ) ) ;
#151 = CARTESIAN_POINT ( 'NONE',  ( -0.4499965600000000454, -0.2499994999999999856, 0.4999989999999999712 ) ) ;
#152 = EDGE_LOOP ( 'NONE', ( #116, #40, #93, #43 ) ) ;
#153 = DESIGN_CONTEXT ( 'detailed design', #177, 'design' ) ;
#154 = PRODUCT_DEFINITION_SHAPE ( 'NONE', 'NONE',  #52 ) ;
#155 = CC_DESIGN_APPROVAL ( #114, ( #52 ) ) ;
#156 = APPROVAL_STATUS ( 'not_yet_approved' ) ;
#157 = COORDINATED_UNIVERSAL_TIME_OFFSET ( 10, 0, .AHEAD. ) ;
#158 = ADVANCED_FACE ( 'NONE', ( #166 ), #56, .T. ) ;
#159 = CALENDAR_DATE ( 2026, 22, 6 ) ;
#160 = APPROVAL_DATE_TIME ( #192, #214 ) ;
#161 = COORDINATED_UNIVERSAL_TIME_OFFSET ( 10, 0, .AHEAD. ) ;
#162 = SECURITY_CLASSIFICATION ( '', '', #98 ) ;
#163 = PLANE ( 'NONE',  #53 ) ;
#164 =( NAMED_UNIT ( * ) PLANE_ANGLE_UNIT ( ) SI_UNIT ( $, .RADIAN. ) );
#165 = PLANE ( 'NONE',  #60 ) ;
#166 = FACE_OUTER_BOUND ( 'NONE', #7, .T. ) ;
#167 =( LENGTH_UNIT ( ) NAMED_UNIT ( * ) SI_UNIT ( .MILLI., .METRE. ) );
#168 = DIRECTION ( 'NONE',  ( 0.000000000000000000, 0.000000000000000000, 1.000000000000000000 ) ) ;
#169 = LINE ( 'NONE', #143, #140 ) ;
#170 = VERTEX_POINT ( 'NONE', #217 ) ;
#171 = CARTESIAN_POINT ( 'NONE',  ( -0.4499965600000000454, 0.2499994999999999856, 0.4999989999999999712 ) ) ;
#172 = VECTOR ( 'NONE', #42, 1000.000000000000000 ) ;
#173 = ORIENTED_EDGE ( 'NONE', *, *, #200, .F. ) ;
#174 = VECTOR ( 'NONE', #150, 1000.000000000000000 ) ;
#175 = COORDINATED_UNIVERSAL_TIME_OFFSET ( 10, 0, .AHEAD. ) ;
#176 = CALENDAR_DATE ( 2026, 22, 6 ) ;
#177 = APPLICATION_CONTEXT ( 'configuration controlled 3d designs of mechanical parts and assemblies' ) ;
#178 = PERSON_AND_ORGANIZATION_ROLE ( 'classification_officer' ) ;
#179 = DIRECTION ( 'NONE',  ( 0.000000000000000000, -1.000000000000000000, 0.000000000000000000 ) ) ;
#180 = LINE ( 'NONE', #125, #206 ) ;
#181 = CARTESIAN_POINT ( 'NONE',  ( -0.4499965600000000454, 0.2499994999999999856, 0.000000000000000000 ) ) ;
#182 =( NAMED_UNIT ( * ) SI_UNIT ( $, .STERADIAN. ) SOLID_ANGLE_UNIT ( ) );
#183 = DIRECTION ( 'NONE',  ( 0.000000000000000000, 0.000000000000000000, 1.000000000000000000 ) ) ;
#184 = CC_DESIGN_DATE_AND_TIME_ASSIGNMENT ( #44, #121, ( #52 ) ) ;
#185 = PLANE ( 'NONE',  #235 ) ;
#186 = ORIENTED_EDGE ( 'NONE', *, *, #225, .T. ) ;
#187 = EDGE_LOOP ( 'NONE', ( #130, #80, #20, #62 ) ) ;
#188 = ORIENTED_EDGE ( 'NONE', *, *, #191, .T. ) ;
#189 = ORIENTED_EDGE ( 'NONE', *, *, #103, .T. ) ;
#190 = COORDINATED_UNIVERSAL_TIME_OFFSET ( 10, 0, .AHEAD. ) ;
#191 = EDGE_CURVE ( 'NONE', #202, #57, #55, .T. ) ;
#192 = DATE_AND_TIME ( #159, #137 ) ;
#193 = LINE ( 'NONE', #201, #89 ) ;
#194 = CARTESIAN_POINT ( 'NONE',  ( 0.4499990999999999852, 0.2499994999999999856, 0.000000000000000000 ) ) ;
#195 = ADVANCED_FACE ( 'NONE', ( #110 ), #185, .F. ) ;
#196 = APPROVAL_PERSON_ORGANIZATION ( #10, #24, #207 ) ;
#197 = DIRECTION ( 'NONE',  ( 1.000000000000000000, 0.000000000000000000, 0.000000000000000000 ) ) ;
#198 = PERSON_AND_ORGANIZATION ( #18446744073709551615, #18446744073709551615 ) ;
#199 = CARTESIAN_POINT ( 'NONE',  ( -0.4499965600000000454, -0.2499994999999999856, 0.000000000000000000 ) ) ;
#200 = EDGE_CURVE ( 'NONE', #61, #170, #169, .T. ) ;
#201 = CARTESIAN_POINT ( 'NONE',  ( -0.4499965600000000454, -0.2499994999999999856, 0.4999989999999999712 ) ) ;
#202 = VERTEX_POINT ( 'NONE', #3 ) ;
#203 = ORIENTED_EDGE ( 'NONE', *, *, #85, .T. ) ;
#204 = PRODUCT_RELATED_PRODUCT_CATEGORY ( 'detail', '', ( #27 ) ) ;
#205 = VERTEX_POINT ( 'NONE', #76 ) ;
#206 = VECTOR ( 'NONE', #32, 1000.000000000000000 ) ;
#207 = APPROVAL_ROLE ( '' ) ;
#208 = CC_DESIGN_PERSON_AND_ORGANIZATION_ASSIGNMENT ( #227, #9, ( #82 ) ) ;
#209 = CALENDAR_DATE ( 2026, 22, 6 ) ;
#210 = AXIS2_PLACEMENT_3D ( 'NONE', #233, #107, #72 ) ;
#211 = DATE_AND_TIME ( #176, #142 ) ;
#212 = PERSON_AND_ORGANIZATION ( #18446744073709551615, #18446744073709551615 ) ;
#213 = DIRECTION ( 'NONE',  ( -0.000000000000000000, 1.000000000000000000, 0.000000000000000000 ) ) ;
#214 = APPROVAL ( #156, 'Coincident' ) ;
#215 = LINE ( 'NONE', #49, #172 ) ;
#216 = LINE ( 'NONE', #181, #101 ) ;
#217 = CARTESIAN_POINT ( 'NONE',  ( 0.4499990999999999852, 0.2499994999999999856, 0.4999989999999999712 ) ) ;
#218 = CARTESIAN_POINT ( 'NONE',  ( 0.4499990999999999852, -0.2499994999999999856, 0.000000000000000000 ) ) ;
#219 = ORIENTED_EDGE ( 'NONE', *, *, #225, .F. ) ;
#220 = DIRECTION ( 'NONE',  ( 1.000000000000000000, 0.000000000000000000, 0.000000000000000000 ) ) ;
#221 = LINE ( 'NONE', #199, #90 ) ;
#222 = EDGE_CURVE ( 'NONE', #148, #21, #215, .T. ) ;
#223 = VERTEX_POINT ( 'NONE', #171 ) ;
#224 = VECTOR ( 'NONE', #87, 1000.000000000000000 ) ;
#225 = EDGE_CURVE ( 'NONE', #170, #148, #22, .T. ) ;
#226 = PERSON_AND_ORGANIZATION_ROLE ( 'creator' ) ;
#227 = PERSON_AND_ORGANIZATION ( #18446744073709551615, #18446744073709551615 ) ;
#228 = APPROVAL_PERSON_ORGANIZATION ( #198, #114, #16 ) ;
#229 = CC_DESIGN_PERSON_AND_ORGANIZATION_ASSIGNMENT ( #212, #178, ( #162 ) ) ;
#230 = APPROVAL_PERSON_ORGANIZATION ( #11, #214, #12 ) ;
#231 = CARTESIAN_POINT ( 'NONE',  ( -0.4499965600000000454, -0.2499994999999999856, 0.000000000000000000 ) ) ;
#232 = CARTESIAN_POINT ( 'NONE',  ( 0.000000000000000000, 0.000000000000000000, 0.000000000000000000 ) ) ;
#233 = CARTESIAN_POINT ( 'NONE',  ( 0.4499990999999999852, -0.2499994999999999856, 0.000000000000000000 ) ) ;
#234 = DIRECTION ( 'NONE',  ( 0.000000000000000000, 1.000000000000000000, 0.000000000000000000 ) ) ;
#235 = AXIS2_PLACEMENT_3D ( 'NONE', #17, #1, #92 ) ;
ENDSEC;
END-ISO-10303-21;
