ISO-10303-21;
HEADER;
FILE_DESCRIPTION (( 'STEP AP203' ),
    '1' );
FILE_NAME ('Extruded-0.step.STEP',
    '2026-06-22T08:49:52',
    ( 'localuser' ),
    ( '' ),
    'SwSTEP 2.0',
    'SolidWorks 2025',
    '' );
FILE_SCHEMA (( 'CONFIG_CONTROL_DESIGN' ));
ENDSEC;

DATA;
#1 = LINE ( 'NONE', #178, #139 ) ;
#2 = ORIENTED_EDGE ( 'NONE', *, *, #188, .F. ) ;
#3 = LINE ( 'NONE', #51, #175 ) ;
#4 = ORIENTED_EDGE ( 'NONE', *, *, #63, .F. ) ;
#5 = DIRECTION ( 'NONE',  ( 0.000000000000000000, 0.000000000000000000, 1.000000000000000000 ) ) ;
#6 = PRODUCT_DEFINITION ( 'General', '', #129, #126 ) ;
#7 = ORIENTED_EDGE ( 'NONE', *, *, #229, .T. ) ;
#8 = ADVANCED_BREP_SHAPE_REPRESENTATION ( 'Extruded-0.step', ( #121, #60 ), #67 ) ;
#9 = ORIENTED_EDGE ( 'NONE', *, *, #28, .F. ) ;
#10 = PERSON_AND_ORGANIZATION_ROLE ( 'design_supplier' ) ;
#11 = APPROVAL_DATE_TIME ( #141, #85 ) ;
#12 = LOCAL_TIME ( 18, 49, 52.00000000000000000, #65 ) ;
#13 = DATE_TIME_ROLE ( 'classification_date' ) ;
#14 = DIRECTION ( 'NONE',  ( 0.000000000000000000, 1.000000000000000000, 0.000000000000000000 ) ) ;
#15 = PERSON_AND_ORGANIZATION ( #18446744073709551615, #18446744073709551615 ) ;
#16 = DIRECTION ( 'NONE',  ( 0.000000000000000000, 0.000000000000000000, 1.000000000000000000 ) ) ;
#17 = FACE_OUTER_BOUND ( 'NONE', #118, .T. ) ;
#18 = DATE_TIME_ROLE ( 'creation_date' ) ;
#19 = VECTOR ( 'NONE', #98, 1000.000000000000000 ) ;
#20 = DIRECTION ( 'NONE',  ( 0.000000000000000000, 0.000000000000000000, 1.000000000000000000 ) ) ;
#21 = DIRECTION ( 'NONE',  ( -1.000000000000000000, 0.000000000000000000, 0.000000000000000000 ) ) ;
#22 = LINE ( 'NONE', #220, #96 ) ;
#23 = ORIENTED_EDGE ( 'NONE', *, *, #87, .T. ) ;
#24 = CARTESIAN_POINT ( 'NONE',  ( 0.000000000000000000, 0.000000000000000000, 0.000000000000000000 ) ) ;
#25 = APPROVAL_PERSON_ORGANIZATION ( #176, #85, #210 ) ;
#26 = PLANE ( 'NONE',  #228 ) ;
#27 = PERSON_AND_ORGANIZATION ( #18446744073709551615, #18446744073709551615 ) ;
#28 = EDGE_CURVE ( 'NONE', #214, #186, #78, .T. ) ;
#29 = AXIS2_PLACEMENT_3D ( 'NONE', #36, #21, #5 ) ;
#30 = PRODUCT ( 'Extruded-0.step', 'Extruded-0.step', '', ( #177 ) ) ;
#31 = PLANE ( 'NONE',  #124 ) ;
#32 = DIRECTION ( 'NONE',  ( 1.000000000000000000, 0.000000000000000000, 0.000000000000000000 ) ) ;
#33 = DIRECTION ( 'NONE',  ( 0.000000000000000000, 1.000000000000000000, 0.000000000000000000 ) ) ;
#34 = CARTESIAN_POINT ( 'NONE',  ( 0.04999990000001999779, 0.2499994999999999856, 0.000000000000000000 ) ) ;
#35 = DIRECTION ( 'NONE',  ( 0.000000000000000000, -1.000000000000000000, 0.000000000000000000 ) ) ;
#36 = CARTESIAN_POINT ( 'NONE',  ( -0.04999989999999000095, -0.2499994999999999856, 0.000000000000000000 ) ) ;
#37 = AXIS2_PLACEMENT_3D ( 'NONE', #89, #234, #212 ) ;
#38 = EDGE_CURVE ( 'NONE', #62, #90, #202, .T. ) ;
#39 = DIRECTION ( 'NONE',  ( -1.000000000000000000, 0.000000000000000000, 0.000000000000000000 ) ) ;
#40 = PERSON_AND_ORGANIZATION_ROLE ( 'creator' ) ;
#41 = CARTESIAN_POINT ( 'NONE',  ( 0.04999990000001999779, -0.2499994999999999856, 0.000000000000000000 ) ) ;
#42 = PERSON_AND_ORGANIZATION ( #18446744073709551615, #18446744073709551615 ) ;
#43 = FACE_OUTER_BOUND ( 'NONE', #173, .T. ) ;
#44 = APPLICATION_CONTEXT ( 'configuration controlled 3d designs of mechanical parts and assemblies' ) ;
#45 = ADVANCED_FACE ( 'NONE', ( #43 ), #26, .F. ) ;
#46 =( NAMED_UNIT ( * ) SI_UNIT ( $, .STERADIAN. ) SOLID_ANGLE_UNIT ( ) );
#47 = UNCERTAINTY_MEASURE_WITH_UNIT (LENGTH_MEASURE( 1.000000000000000082E-05 ), #80, 'distance_accuracy_value', 'NONE');
#48 = FACE_OUTER_BOUND ( 'NONE', #104, .T. ) ;
#49 = ORIENTED_EDGE ( 'NONE', *, *, #28, .T. ) ;
#50 = COORDINATED_UNIVERSAL_TIME_OFFSET ( 10, 0, .AHEAD. ) ;
#51 = CARTESIAN_POINT ( 'NONE',  ( -0.04999989999999000095, 0.2499994999999999856, 0.000000000000000000 ) ) ;
#52 = VECTOR ( 'NONE', #33, 1000.000000000000000 ) ;
#53 = PERSON_AND_ORGANIZATION ( #18446744073709551615, #18446744073709551615 ) ;
#54 = CARTESIAN_POINT ( 'NONE',  ( 0.04999990000001999779, -0.2499994999999999856, 0.000000000000000000 ) ) ;
#55 = DIRECTION ( 'NONE',  ( 0.000000000000000000, 1.000000000000000000, 0.000000000000000000 ) ) ;
#56 = PLANE ( 'NONE',  #29 ) ;
#57 = CC_DESIGN_PERSON_AND_ORGANIZATION_ASSIGNMENT ( #143, #160, ( #189 ) ) ;
#58 = DATE_AND_TIME ( #221, #162 ) ;
#59 = EDGE_LOOP ( 'NONE', ( #153, #205, #174, #99 ) ) ;
#60 = AXIS2_PLACEMENT_3D ( 'NONE', #24, #69, #32 ) ;
#61 = ORIENTED_EDGE ( 'NONE', *, *, #229, .F. ) ;
#62 = VERTEX_POINT ( 'NONE', #41 ) ;
#63 = EDGE_CURVE ( 'NONE', #117, #214, #22, .T. ) ;
#64 = CC_DESIGN_PERSON_AND_ORGANIZATION_ASSIGNMENT ( #15, #165, ( #30 ) ) ;
#65 = COORDINATED_UNIVERSAL_TIME_OFFSET ( 10, 0, .AHEAD. ) ;
#66 = ADVANCED_FACE ( 'NONE', ( #225 ), #56, .T. ) ;
#67 =( GEOMETRIC_REPRESENTATION_CONTEXT ( 3 ) GLOBAL_UNCERTAINTY_ASSIGNED_CONTEXT ( ( #47 ) ) GLOBAL_UNIT_ASSIGNED_CONTEXT ( ( #80, #198, #46 ) ) REPRESENTATION_CONTEXT ( 'NONE', 'WORKASPACE' ) );
#68 = DIRECTION ( 'NONE',  ( 0.000000000000000000, 0.000000000000000000, -1.000000000000000000 ) ) ;
#69 = DIRECTION ( 'NONE',  ( 0.000000000000000000, 0.000000000000000000, 1.000000000000000000 ) ) ;
#70 = EDGE_CURVE ( 'NONE', #222, #117, #82, .T. ) ;
#71 = DIRECTION ( 'NONE',  ( 1.000000000000000000, 0.000000000000000000, 0.000000000000000000 ) ) ;
#72 = ORIENTED_EDGE ( 'NONE', *, *, #109, .F. ) ;
#73 = CALENDAR_DATE ( 2026, 22, 6 ) ;
#74 = CARTESIAN_POINT ( 'NONE',  ( 1.421319610622999962E-14, 5.782423151436000645E-18, 0.000000000000000000 ) ) ;
#75 = VECTOR ( 'NONE', #39, 1000.000000000000000 ) ;
#76 = APPROVAL_STATUS ( 'not_yet_approved' ) ;
#77 = LINE ( 'NONE', #164, #235 ) ;
#78 = LINE ( 'NONE', #149, #97 ) ;
#79 = APPROVAL_ROLE ( '' ) ;
#80 =( LENGTH_UNIT ( ) NAMED_UNIT ( * ) SI_UNIT ( .MILLI., .METRE. ) );
#81 = ORIENTED_EDGE ( 'NONE', *, *, #207, .F. ) ;
#82 = LINE ( 'NONE', #119, #107 ) ;
#83 = AXIS2_PLACEMENT_3D ( 'NONE', #148, #196, #14 ) ;
#84 = ORIENTED_EDGE ( 'NONE', *, *, #218, .F. ) ;
#85 = APPROVAL ( #227, 'Coincident' ) ;
#86 = ORIENTED_EDGE ( 'NONE', *, *, #63, .T. ) ;
#87 = EDGE_CURVE ( 'NONE', #171, #222, #92, .T. ) ;
#88 = APPLICATION_CONTEXT ( 'configuration controlled 3d designs of mechanical parts and assemblies' ) ;
#89 = CARTESIAN_POINT ( 'NONE',  ( -0.04999989999999000095, 0.2499994999999999856, 0.000000000000000000 ) ) ;
#90 = VERTEX_POINT ( 'NONE', #213 ) ;
#91 = ADVANCED_FACE ( 'NONE', ( #48 ), #93, .T. ) ;
#92 = LINE ( 'NONE', #230, #206 ) ;
#93 = PLANE ( 'NONE',  #83 ) ;
#94 = CC_DESIGN_DATE_AND_TIME_ASSIGNMENT ( #181, #18, ( #6 ) ) ;
#95 = DIRECTION ( 'NONE',  ( 0.000000000000000000, 0.000000000000000000, 1.000000000000000000 ) ) ;
#96 = VECTOR ( 'NONE', #100, 1000.000000000000000 ) ;
#97 = VECTOR ( 'NONE', #184, 1000.000000000000000 ) ;
#98 = DIRECTION ( 'NONE',  ( 0.000000000000000000, -1.000000000000000000, 0.000000000000000000 ) ) ;
#99 = ORIENTED_EDGE ( 'NONE', *, *, #140, .F. ) ;
#100 = DIRECTION ( 'NONE',  ( 0.000000000000000000, -1.000000000000000000, 0.000000000000000000 ) ) ;
#101 = DIRECTION ( 'NONE',  ( 0.000000000000000000, -1.000000000000000000, 0.000000000000000000 ) ) ;
#102 = VECTOR ( 'NONE', #113, 1000.000000000000000 ) ;
#103 = CC_DESIGN_DATE_AND_TIME_ASSIGNMENT ( #190, #13, ( #189 ) ) ;
#104 = EDGE_LOOP ( 'NONE', ( #133, #86, #72, #84 ) ) ;
#105 = CC_DESIGN_APPROVAL ( #166, ( #129 ) ) ;
#106 = ADVANCED_FACE ( 'NONE', ( #169 ), #146, .T. ) ;
#107 = VECTOR ( 'NONE', #71, 1000.000000000000000 ) ;
#108 = DIRECTION ( 'NONE',  ( 1.000000000000000000, 0.000000000000000000, 0.000000000000000000 ) ) ;
#109 = EDGE_CURVE ( 'NONE', #62, #214, #77, .T. ) ;
#110 = APPLICATION_PROTOCOL_DEFINITION ( 'international standard', 'config_control_design', 1994, #88 ) ;
#111 = LOCAL_TIME ( 18, 49, 52.00000000000000000, #197 ) ;
#112 = LINE ( 'NONE', #192, #52 ) ;
#113 = DIRECTION ( 'NONE',  ( 0.000000000000000000, 0.000000000000000000, 1.000000000000000000 ) ) ;
#114 = ADVANCED_FACE ( 'NONE', ( #17 ), #219, .T. ) ;
#115 = CALENDAR_DATE ( 2026, 22, 6 ) ;
#116 = CARTESIAN_POINT ( 'NONE',  ( 0.04999990000001999779, -0.2499994999999999856, 0.4999989999999999712 ) ) ;
#117 = VERTEX_POINT ( 'NONE', #128 ) ;
#118 = EDGE_LOOP ( 'NONE', ( #7, #216, #138, #137 ) ) ;
#119 = CARTESIAN_POINT ( 'NONE',  ( -0.04999989999999000095, 0.2499994999999999856, 0.4999989999999999712 ) ) ;
#120 = DIRECTION ( 'NONE',  ( 0.000000000000000000, 0.000000000000000000, -1.000000000000000000 ) ) ;
#121 = MANIFOLD_SOLID_BREP ( 'Extruded[1]', #172 ) ;
#122 = LOCAL_TIME ( 18, 49, 52.00000000000000000, #50 ) ;
#123 = LOCAL_TIME ( 18, 49, 52.00000000000000000, #142 ) ;
#124 = AXIS2_PLACEMENT_3D ( 'NONE', #54, #35, #232 ) ;
#125 = CC_DESIGN_APPROVAL ( #85, ( #189 ) ) ;
#126 = DESIGN_CONTEXT ( 'detailed design', #44, 'design' ) ;
#127 = DIRECTION ( 'NONE',  ( 0.000000000000000000, -1.000000000000000000, 0.000000000000000000 ) ) ;
#128 = CARTESIAN_POINT ( 'NONE',  ( 0.04999990000001999779, 0.2499994999999999856, 0.4999989999999999712 ) ) ;
#129 = PRODUCT_DEFINITION_FORMATION_WITH_SPECIFIED_SOURCE ( 'Symmetric', '', #30, .NOT_KNOWN. ) ;
#130 = PERSON_AND_ORGANIZATION_ROLE ( 'creator' ) ;
#131 = PERSON_AND_ORGANIZATION ( #18446744073709551615, #18446744073709551615 ) ;
#132 = CARTESIAN_POINT ( 'NONE',  ( -0.04999989999999000095, -0.2499994999999999856, 0.000000000000000000 ) ) ;
#133 = ORIENTED_EDGE ( 'NONE', *, *, #207, .T. ) ;
#134 = APPROVAL_DATE_TIME ( #58, #166 ) ;
#135 = ORIENTED_EDGE ( 'NONE', *, *, #38, .F. ) ;
#136 = EDGE_CURVE ( 'NONE', #186, #222, #112, .T. ) ;
#137 = ORIENTED_EDGE ( 'NONE', *, *, #140, .T. ) ;
#138 = ORIENTED_EDGE ( 'NONE', *, *, #38, .T. ) ;
#139 = VECTOR ( 'NONE', #55, 1000.000000000000000 ) ;
#140 = EDGE_CURVE ( 'NONE', #90, #171, #1, .T. ) ;
#141 = DATE_AND_TIME ( #158, #123 ) ;
#142 = COORDINATED_UNIVERSAL_TIME_OFFSET ( 10, 0, .AHEAD. ) ;
#143 = PERSON_AND_ORGANIZATION ( #18446744073709551615, #18446744073709551615 ) ;
#144 = LINE ( 'NONE', #132, #102 ) ;
#145 = LINE ( 'NONE', #191, #208 ) ;
#146 = PLANE ( 'NONE',  #37 ) ;
#147 = APPROVAL_ROLE ( '' ) ;
#148 = CARTESIAN_POINT ( 'NONE',  ( 0.04999990000001999779, 0.2499994999999999856, 0.000000000000000000 ) ) ;
#149 = CARTESIAN_POINT ( 'NONE',  ( 0.04999990000001999779, -0.2499994999999999856, 0.4999989999999999712 ) ) ;
#150 = COORDINATED_UNIVERSAL_TIME_OFFSET ( 10, 0, .AHEAD. ) ;
#151 = ORIENTED_EDGE ( 'NONE', *, *, #136, .F. ) ;
#152 = APPROVAL_PERSON_ORGANIZATION ( #168, #166, #147 ) ;
#153 = ORIENTED_EDGE ( 'NONE', *, *, #188, .T. ) ;
#154 = ORIENTED_EDGE ( 'NONE', *, *, #109, .T. ) ;
#155 = PRODUCT_DEFINITION_SHAPE ( 'NONE', 'NONE',  #6 ) ;
#156 = CC_DESIGN_SECURITY_CLASSIFICATION ( #189, ( #129 ) ) ;
#157 = CALENDAR_DATE ( 2026, 22, 6 ) ;
#158 = CALENDAR_DATE ( 2026, 22, 6 ) ;
#159 = CC_DESIGN_PERSON_AND_ORGANIZATION_ASSIGNMENT ( #27, #40, ( #129 ) ) ;
#160 = PERSON_AND_ORGANIZATION_ROLE ( 'classification_officer' ) ;
#161 = PRODUCT_RELATED_PRODUCT_CATEGORY ( 'detail', '', ( #30 ) ) ;
#162 = LOCAL_TIME ( 18, 49, 52.00000000000000000, #150 ) ;
#163 = APPLICATION_PROTOCOL_DEFINITION ( 'international standard', 'config_control_design', 1994, #44 ) ;
#164 = CARTESIAN_POINT ( 'NONE',  ( 0.04999990000001999779, -0.2499994999999999856, 0.000000000000000000 ) ) ;
#165 = PERSON_AND_ORGANIZATION_ROLE ( 'design_owner' ) ;
#166 = APPROVAL ( #76, 'Coincident' ) ;
#167 = FACE_OUTER_BOUND ( 'NONE', #194, .T. ) ;
#168 = PERSON_AND_ORGANIZATION ( #18446744073709551615, #18446744073709551615 ) ;
#169 = FACE_OUTER_BOUND ( 'NONE', #183, .T. ) ;
#170 = ORIENTED_EDGE ( 'NONE', *, *, #70, .T. ) ;
#171 = VERTEX_POINT ( 'NONE', #200 ) ;
#172 = CLOSED_SHELL ( 'NONE', ( #45, #114, #66, #211, #91, #106 ) ) ;
#173 = EDGE_LOOP ( 'NONE', ( #151, #9, #4, #203 ) ) ;
#174 = ORIENTED_EDGE ( 'NONE', *, *, #87, .F. ) ;
#175 = VECTOR ( 'NONE', #108, 1000.000000000000000 ) ;
#176 = PERSON_AND_ORGANIZATION ( #18446744073709551615, #18446744073709551615 ) ;
#177 = MECHANICAL_CONTEXT ( 'NONE', #88, 'mechanical' ) ;
#178 = CARTESIAN_POINT ( 'NONE',  ( -0.04999989999999000095, -0.2499994999999999856, 0.000000000000000000 ) ) ;
#179 = APPROVAL_DATE_TIME ( #231, #193 ) ;
#180 = CARTESIAN_POINT ( 'NONE',  ( -0.04999989999999000095, 0.2499994999999999856, 0.4999989999999999712 ) ) ;
#181 = DATE_AND_TIME ( #115, #111 ) ;
#182 = CARTESIAN_POINT ( 'NONE',  ( 0.04999990000001999779, 0.2499994999999999856, 0.000000000000000000 ) ) ;
#183 = EDGE_LOOP ( 'NONE', ( #23, #170, #81, #61 ) ) ;
#184 = DIRECTION ( 'NONE',  ( -1.000000000000000000, 0.000000000000000000, 0.000000000000000000 ) ) ;
#185 = VERTEX_POINT ( 'NONE', #34 ) ;
#186 = VERTEX_POINT ( 'NONE', #217 ) ;
#187 = SECURITY_CLASSIFICATION_LEVEL ( 'unclassified' ) ;
#188 = EDGE_CURVE ( 'NONE', #90, #186, #144, .T. ) ;
#189 = SECURITY_CLASSIFICATION ( '', '', #187 ) ;
#190 = DATE_AND_TIME ( #157, #12 ) ;
#191 = CARTESIAN_POINT ( 'NONE',  ( 0.04999990000001999779, 0.2499994999999999856, 0.000000000000000000 ) ) ;
#192 = CARTESIAN_POINT ( 'NONE',  ( -0.04999989999999000095, -0.2499994999999999856, 0.4999989999999999712 ) ) ;
#193 = APPROVAL ( #233, 'Coincident' ) ;
#194 = EDGE_LOOP ( 'NONE', ( #154, #49, #2, #135 ) ) ;
#195 = CC_DESIGN_APPROVAL ( #193, ( #6 ) ) ;
#196 = DIRECTION ( 'NONE',  ( 1.000000000000000000, 0.000000000000000000, 0.000000000000000000 ) ) ;
#197 = COORDINATED_UNIVERSAL_TIME_OFFSET ( 10, 0, .AHEAD. ) ;
#198 =( NAMED_UNIT ( * ) PLANE_ANGLE_UNIT ( ) SI_UNIT ( $, .RADIAN. ) );
#199 = CC_DESIGN_PERSON_AND_ORGANIZATION_ASSIGNMENT ( #42, #10, ( #129 ) ) ;
#200 = CARTESIAN_POINT ( 'NONE',  ( -0.04999989999999000095, 0.2499994999999999856, 0.000000000000000000 ) ) ;
#201 = CARTESIAN_POINT ( 'NONE',  ( 1.421319610622999962E-14, 5.782423151436000645E-18, 0.4999989999999999712 ) ) ;
#202 = LINE ( 'NONE', #224, #75 ) ;
#203 = ORIENTED_EDGE ( 'NONE', *, *, #70, .F. ) ;
#204 = CC_DESIGN_PERSON_AND_ORGANIZATION_ASSIGNMENT ( #53, #130, ( #6 ) ) ;
#205 = ORIENTED_EDGE ( 'NONE', *, *, #136, .T. ) ;
#206 = VECTOR ( 'NONE', #95, 1000.000000000000000 ) ;
#207 = EDGE_CURVE ( 'NONE', #185, #117, #145, .T. ) ;
#208 = VECTOR ( 'NONE', #16, 1000.000000000000000 ) ;
#209 = SHAPE_DEFINITION_REPRESENTATION ( #155, #8 ) ;
#210 = APPROVAL_ROLE ( '' ) ;
#211 = ADVANCED_FACE ( 'NONE', ( #167 ), #31, .T. ) ;
#212 = DIRECTION ( 'NONE',  ( 1.000000000000000000, 0.000000000000000000, 0.000000000000000000 ) ) ;
#213 = CARTESIAN_POINT ( 'NONE',  ( -0.04999989999999000095, -0.2499994999999999856, 0.000000000000000000 ) ) ;
#214 = VERTEX_POINT ( 'NONE', #116 ) ;
#215 = LINE ( 'NONE', #182, #19 ) ;
#216 = ORIENTED_EDGE ( 'NONE', *, *, #218, .T. ) ;
#217 = CARTESIAN_POINT ( 'NONE',  ( -0.04999989999999000095, -0.2499994999999999856, 0.4999989999999999712 ) ) ;
#218 = EDGE_CURVE ( 'NONE', #185, #62, #215, .T. ) ;
#219 = PLANE ( 'NONE',  #226 ) ;
#220 = CARTESIAN_POINT ( 'NONE',  ( 0.04999990000001999779, 0.2499994999999999856, 0.4999989999999999712 ) ) ;
#221 = CALENDAR_DATE ( 2026, 22, 6 ) ;
#222 = VERTEX_POINT ( 'NONE', #180 ) ;
#223 = APPROVAL_PERSON_ORGANIZATION ( #131, #193, #79 ) ;
#224 = CARTESIAN_POINT ( 'NONE',  ( 0.04999990000001999779, -0.2499994999999999856, 0.000000000000000000 ) ) ;
#225 = FACE_OUTER_BOUND ( 'NONE', #59, .T. ) ;
#226 = AXIS2_PLACEMENT_3D ( 'NONE', #74, #68, #127 ) ;
#227 = APPROVAL_STATUS ( 'not_yet_approved' ) ;
#228 = AXIS2_PLACEMENT_3D ( 'NONE', #201, #120, #101 ) ;
#229 = EDGE_CURVE ( 'NONE', #171, #185, #3, .T. ) ;
#230 = CARTESIAN_POINT ( 'NONE',  ( -0.04999989999999000095, 0.2499994999999999856, 0.000000000000000000 ) ) ;
#231 = DATE_AND_TIME ( #73, #122 ) ;
#232 = DIRECTION ( 'NONE',  ( 0.000000000000000000, 0.000000000000000000, -1.000000000000000000 ) ) ;
#233 = APPROVAL_STATUS ( 'not_yet_approved' ) ;
#234 = DIRECTION ( 'NONE',  ( -0.000000000000000000, 1.000000000000000000, 0.000000000000000000 ) ) ;
#235 = VECTOR ( 'NONE', #20, 1000.000000000000000 ) ;
ENDSEC;
END-ISO-10303-21;
