ISO-10303-21;
HEADER;
FILE_DESCRIPTION (( 'STEP AP203' ),
    '1' );
FILE_NAME ('Extruded-15.step.STEP',
    '2026-06-22T08:49:59',
    ( 'localuser' ),
    ( '' ),
    'SwSTEP 2.0',
    'SolidWorks 2025',
    '' );
FILE_SCHEMA (( 'CONFIG_CONTROL_DESIGN' ));
ENDSEC;

DATA;
#1 = ORIENTED_EDGE ( 'NONE', *, *, #127, .T. ) ;
#2 = EDGE_LOOP ( 'NONE', ( #93, #73, #18, #133 ) ) ;
#3 = CARTESIAN_POINT ( 'NONE',  ( 0.2121306400000000092, -0.1414221199999999845, 0.000000000000000000 ) ) ;
#4 = CARTESIAN_POINT ( 'NONE',  ( -0.2121306400000000092, 0.1414221199999999845, 0.000000000000000000 ) ) ;
#5 = DIRECTION ( 'NONE',  ( -0.7071067811865475727, -0.7071067811865475727, 0.000000000000000000 ) ) ;
#6 = FACE_OUTER_BOUND ( 'NONE', #132, .T. ) ;
#7 = LINE ( 'NONE', #119, #218 ) ;
#8 = LINE ( 'NONE', #61, #67 ) ;
#9 = CALENDAR_DATE ( 2026, 22, 6 ) ;
#10 = LOCAL_TIME ( 18, 49, 59.00000000000000000, #191 ) ;
#11 = APPROVAL_STATUS ( 'not_yet_approved' ) ;
#12 = EDGE_CURVE ( 'NONE', #32, #184, #151, .T. ) ;
#13 = PERSON_AND_ORGANIZATION ( #18446744073709551615, #18446744073709551615 ) ;
#14 = PERSON_AND_ORGANIZATION_ROLE ( 'design_supplier' ) ;
#15 = DIRECTION ( 'NONE',  ( 0.000000000000000000, 0.000000000000000000, 1.000000000000000000 ) ) ;
#16 = CARTESIAN_POINT ( 'NONE',  ( -0.2121306400000000092, 0.1414221199999999845, 0.4999989999999999712 ) ) ;
#17 = ADVANCED_FACE ( 'NONE', ( #195 ), #56, .F. ) ;
#18 = ORIENTED_EDGE ( 'NONE', *, *, #177, .F. ) ;
#19 = AXIS2_PLACEMENT_3D ( 'NONE', #154, #206, #28 ) ;
#20 = DIRECTION ( 'NONE',  ( 0.000000000000000000, 0.000000000000000000, -1.000000000000000000 ) ) ;
#21 = EDGE_CURVE ( 'NONE', #22, #215, #41, .T. ) ;
#22 = VERTEX_POINT ( 'NONE', #16 ) ;
#23 = CARTESIAN_POINT ( 'NONE',  ( -0.1414221199999999845, 0.2121306400000000092, 0.000000000000000000 ) ) ;
#24 = DIRECTION ( 'NONE',  ( 0.000000000000000000, 0.000000000000000000, 1.000000000000000000 ) ) ;
#25 = PRODUCT_RELATED_PRODUCT_CATEGORY ( 'detail', '', ( #220 ) ) ;
#26 = DIRECTION ( 'NONE',  ( -0.7071067811860475283, 0.7071067811870476172, 0.000000000000000000 ) ) ;
#27 =( NAMED_UNIT ( * ) PLANE_ANGLE_UNIT ( ) SI_UNIT ( $, .RADIAN. ) );
#28 = DIRECTION ( 'NONE',  ( 0.000000000000000000, 0.000000000000000000, -1.000000000000000000 ) ) ;
#29 = VECTOR ( 'NONE', #190, 1000.000000000000114 ) ;
#30 = ADVANCED_FACE ( 'NONE', ( #113 ), #201, .T. ) ;
#31 = SHAPE_DEFINITION_REPRESENTATION ( #64, #136 ) ;
#32 = VERTEX_POINT ( 'NONE', #23 ) ;
#33 = PERSON_AND_ORGANIZATION_ROLE ( 'creator' ) ;
#34 = CC_DESIGN_PERSON_AND_ORGANIZATION_ASSIGNMENT ( #123, #86, ( #163 ) ) ;
#35 = CALENDAR_DATE ( 2026, 22, 6 ) ;
#36 = CARTESIAN_POINT ( 'NONE',  ( 0.2121306400000000092, -0.1414221199999999845, 0.000000000000000000 ) ) ;
#37 = ORIENTED_EDGE ( 'NONE', *, *, #205, .T. ) ;
#38 = DIRECTION ( 'NONE',  ( 0.7071067811865475727, 0.7071067811865475727, 0.000000000000000000 ) ) ;
#39 = CC_DESIGN_DATE_AND_TIME_ASSIGNMENT ( #84, #194, ( #208 ) ) ;
#40 = DIRECTION ( 'NONE',  ( 0.7071067811865474617, -0.7071067811865474617, 0.000000000000000000 ) ) ;
#41 = LINE ( 'NONE', #166, #96 ) ;
#42 = CARTESIAN_POINT ( 'NONE',  ( 0.000000000000000000, 0.000000000000000000, 0.000000000000000000 ) ) ;
#43 = FACE_OUTER_BOUND ( 'NONE', #2, .T. ) ;
#44 = LINE ( 'NONE', #99, #49 ) ;
#45 = PERSON_AND_ORGANIZATION ( #18446744073709551615, #18446744073709551615 ) ;
#46 = EDGE_CURVE ( 'NONE', #53, #32, #88, .T. ) ;
#47 = SECURITY_CLASSIFICATION_LEVEL ( 'unclassified' ) ;
#48 = DATE_AND_TIME ( #9, #105 ) ;
#49 = VECTOR ( 'NONE', #188, 1000.000000000000114 ) ;
#50 = PERSON_AND_ORGANIZATION_ROLE ( 'design_owner' ) ;
#51 = LOCAL_TIME ( 18, 49, 59.00000000000000000, #82 ) ;
#52 = ORIENTED_EDGE ( 'NONE', *, *, #187, .T. ) ;
#53 = VERTEX_POINT ( 'NONE', #36 ) ;
#54 = ORIENTED_EDGE ( 'NONE', *, *, #12, .F. ) ;
#55 = AXIS2_PLACEMENT_3D ( 'NONE', #42, #15, #144 ) ;
#56 = PLANE ( 'NONE',  #92 ) ;
#57 = PLANE ( 'NONE',  #126 ) ;
#58 = ADVANCED_FACE ( 'NONE', ( #109 ), #164, .F. ) ;
#59 = LINE ( 'NONE', #81, #143 ) ;
#60 = CARTESIAN_POINT ( 'NONE',  ( 0.2121306400000000092, -0.1414221199999999845, 0.000000000000000000 ) ) ;
#61 = CARTESIAN_POINT ( 'NONE',  ( -0.1414221199999999845, 0.2121306400000000092, 0.000000000000000000 ) ) ;
#62 =( LENGTH_UNIT ( ) NAMED_UNIT ( * ) SI_UNIT ( .MILLI., .METRE. ) );
#63 = APPROVAL ( #124, 'Coincident' ) ;
#64 = PRODUCT_DEFINITION_SHAPE ( 'NONE', 'NONE',  #208 ) ;
#65 = PERSON_AND_ORGANIZATION_ROLE ( 'creator' ) ;
#66 = PERSON_AND_ORGANIZATION ( #18446744073709551615, #18446744073709551615 ) ;
#67 = VECTOR ( 'NONE', #158, 1000.000000000000114 ) ;
#68 = DIRECTION ( 'NONE',  ( 0.000000000000000000, 0.000000000000000000, 1.000000000000000000 ) ) ;
#69 = CC_DESIGN_PERSON_AND_ORGANIZATION_ASSIGNMENT ( #179, #14, ( #130 ) ) ;
#70 = CLOSED_SHELL ( 'NONE', ( #30, #58, #98, #102, #17, #147 ) ) ;
#71 = ORIENTED_EDGE ( 'NONE', *, *, #212, .F. ) ;
#72 = VERTEX_POINT ( 'NONE', #100 ) ;
#73 = ORIENTED_EDGE ( 'NONE', *, *, #12, .T. ) ;
#74 = DIRECTION ( 'NONE',  ( -0.7071067811865474617, 0.7071067811865474617, 0.000000000000000000 ) ) ;
#75 = UNCERTAINTY_MEASURE_WITH_UNIT (LENGTH_MEASURE( 1.000000000000000082E-05 ), #62, 'distance_accuracy_value', 'NONE');
#76 = CARTESIAN_POINT ( 'NONE',  ( 0.1414221199999999845, -0.2121306400000000092, 0.000000000000000000 ) ) ;
#77 = EDGE_CURVE ( 'NONE', #53, #72, #80, .T. ) ;
#78 = CARTESIAN_POINT ( 'NONE',  ( 0.2121306400000000092, -0.1414221199999999845, 0.000000000000000000 ) ) ;
#79 = CC_DESIGN_APPROVAL ( #197, ( #130 ) ) ;
#80 = LINE ( 'NONE', #60, #223 ) ;
#81 = CARTESIAN_POINT ( 'NONE',  ( -0.2121306400000000092, 0.1414221199999999845, 0.000000000000000000 ) ) ;
#82 = COORDINATED_UNIVERSAL_TIME_OFFSET ( 10, 0, .AHEAD. ) ;
#83 = CC_DESIGN_PERSON_AND_ORGANIZATION_ASSIGNMENT ( #229, #65, ( #130 ) ) ;
#84 = DATE_AND_TIME ( #180, #51 ) ;
#85 = APPROVAL_DATE_TIME ( #226, #63 ) ;
#86 = PERSON_AND_ORGANIZATION_ROLE ( 'classification_officer' ) ;
#87 = APPROVAL_ROLE ( '' ) ;
#88 = LINE ( 'NONE', #3, #91 ) ;
#89 = CC_DESIGN_PERSON_AND_ORGANIZATION_ASSIGNMENT ( #45, #50, ( #220 ) ) ;
#90 = ORIENTED_EDGE ( 'NONE', *, *, #177, .T. ) ;
#91 = VECTOR ( 'NONE', #74, 1000.000000000000114 ) ;
#92 = AXIS2_PLACEMENT_3D ( 'NONE', #199, #38, #20 ) ;
#93 = ORIENTED_EDGE ( 'NONE', *, *, #46, .T. ) ;
#94 = ORIENTED_EDGE ( 'NONE', *, *, #21, .F. ) ;
#95 = ORIENTED_EDGE ( 'NONE', *, *, #187, .F. ) ;
#96 = VECTOR ( 'NONE', #40, 1000.000000000000114 ) ;
#97 = DIRECTION ( 'NONE',  ( 0.000000000000000000, 0.000000000000000000, 1.000000000000000000 ) ) ;
#98 = ADVANCED_FACE ( 'NONE', ( #43 ), #57, .F. ) ;
#99 = CARTESIAN_POINT ( 'NONE',  ( 0.1414221199999999845, -0.2121306400000000092, 0.4999989999999999712 ) ) ;
#100 = CARTESIAN_POINT ( 'NONE',  ( 0.2121306400000000092, -0.1414221199999999845, 0.4999989999999999712 ) ) ;
#101 = DATE_AND_TIME ( #103, #107 ) ;
#102 = ADVANCED_FACE ( 'NONE', ( #139 ), #115, .F. ) ;
#103 = CALENDAR_DATE ( 2026, 22, 6 ) ;
#104 = AXIS2_PLACEMENT_3D ( 'NONE', #233, #68, #148 ) ;
#105 = LOCAL_TIME ( 18, 49, 59.00000000000000000, #161 ) ;
#106 = COORDINATED_UNIVERSAL_TIME_OFFSET ( 10, 0, .AHEAD. ) ;
#107 = LOCAL_TIME ( 18, 49, 59.00000000000000000, #106 ) ;
#108 = CC_DESIGN_DATE_AND_TIME_ASSIGNMENT ( #232, #125, ( #163 ) ) ;
#109 = FACE_OUTER_BOUND ( 'NONE', #129, .T. ) ;
#110 = EDGE_LOOP ( 'NONE', ( #1, #183, #182, #213 ) ) ;
#111 = APPLICATION_CONTEXT ( 'configuration controlled 3d designs of mechanical parts and assemblies' ) ;
#112 = ORIENTED_EDGE ( 'NONE', *, *, #118, .F. ) ;
#113 = FACE_OUTER_BOUND ( 'NONE', #135, .T. ) ;
#114 = DIRECTION ( 'NONE',  ( 0.000000000000000000, 0.000000000000000000, 1.000000000000000000 ) ) ;
#115 = PLANE ( 'NONE',  #235 ) ;
#116 = DIRECTION ( 'NONE',  ( -0.7071067811865475727, 0.7071067811865475727, 0.000000000000000000 ) ) ;
#117 = CC_DESIGN_SECURITY_CLASSIFICATION ( #163, ( #130 ) ) ;
#118 = EDGE_CURVE ( 'NONE', #234, #22, #59, .T. ) ;
#119 = CARTESIAN_POINT ( 'NONE',  ( -0.1414221199999999845, 0.2121306400000000092, 0.4999989999999999712 ) ) ;
#120 = CARTESIAN_POINT ( 'NONE',  ( 0.1414221199999999845, -0.2121306400000000092, 0.000000000000000000 ) ) ;
#121 = CARTESIAN_POINT ( 'NONE',  ( -0.2121306400000000092, 0.1414221199999999845, 0.000000000000000000 ) ) ;
#122 = VECTOR ( 'NONE', #156, 1000.000000000000114 ) ;
#123 = PERSON_AND_ORGANIZATION ( #18446744073709551615, #18446744073709551615 ) ;
#124 = APPROVAL_STATUS ( 'not_yet_approved' ) ;
#125 = DATE_TIME_ROLE ( 'classification_date' ) ;
#126 = AXIS2_PLACEMENT_3D ( 'NONE', #78, #5, #116 ) ;
#127 = EDGE_CURVE ( 'NONE', #217, #53, #173, .T. ) ;
#128 = APPROVAL_DATE_TIME ( #101, #172 ) ;
#129 = EDGE_LOOP ( 'NONE', ( #150, #165, #95, #71 ) ) ;
#130 = PRODUCT_DEFINITION_FORMATION_WITH_SPECIFIED_SOURCE ( 'Symmetric', '', #220, .NOT_KNOWN. ) ;
#131 = CC_DESIGN_PERSON_AND_ORGANIZATION_ASSIGNMENT ( #66, #33, ( #208 ) ) ;
#132 = EDGE_LOOP ( 'NONE', ( #149, #167, #185, #54 ) ) ;
#133 = ORIENTED_EDGE ( 'NONE', *, *, #77, .F. ) ;
#134 = ORIENTED_EDGE ( 'NONE', *, *, #137, .T. ) ;
#135 = EDGE_LOOP ( 'NONE', ( #134, #198, #168, #90 ) ) ;
#136 = ADVANCED_BREP_SHAPE_REPRESENTATION ( 'Extruded-15.step', ( #170, #55 ), #162 ) ;
#137 = EDGE_CURVE ( 'NONE', #184, #22, #7, .T. ) ;
#138 = LINE ( 'NONE', #120, #169 ) ;
#139 = FACE_OUTER_BOUND ( 'NONE', #110, .T. ) ;
#140 = CC_DESIGN_APPROVAL ( #63, ( #163 ) ) ;
#141 = DIRECTION ( 'NONE',  ( -0.7071067811870476172, -0.7071067811860475283, 0.000000000000000000 ) ) ;
#142 = DIRECTION ( 'NONE',  ( 0.000000000000000000, 0.000000000000000000, 1.000000000000000000 ) ) ;
#143 = VECTOR ( 'NONE', #97, 1000.000000000000000 ) ;
#144 = DIRECTION ( 'NONE',  ( 1.000000000000000000, 0.000000000000000000, 0.000000000000000000 ) ) ;
#145 = PERSON_AND_ORGANIZATION ( #18446744073709551615, #18446744073709551615 ) ;
#146 = APPROVAL_PERSON_ORGANIZATION ( #145, #197, #87 ) ;
#147 = ADVANCED_FACE ( 'NONE', ( #6 ), #224, .F. ) ;
#148 = DIRECTION ( 'NONE',  ( 1.000000000000000000, 0.000000000000000000, 0.000000000000000000 ) ) ;
#149 = ORIENTED_EDGE ( 'NONE', *, *, #212, .T. ) ;
#150 = ORIENTED_EDGE ( 'NONE', *, *, #46, .F. ) ;
#151 = LINE ( 'NONE', #200, #203 ) ;
#152 = DIRECTION ( 'NONE',  ( 0.000000000000000000, 0.000000000000000000, 1.000000000000000000 ) ) ;
#153 = CARTESIAN_POINT ( 'NONE',  ( -0.1414221199999999845, 0.2121306400000000092, 0.4999989999999999712 ) ) ;
#154 = CARTESIAN_POINT ( 'NONE',  ( -0.1414221199999999845, 0.2121306400000000092, 0.000000000000000000 ) ) ;
#155 = VECTOR ( 'NONE', #189, 1000.000000000000114 ) ;
#156 = DIRECTION ( 'NONE',  ( 0.7071067811865474617, -0.7071067811865474617, 0.000000000000000000 ) ) ;
#157 = DIRECTION ( 'NONE',  ( 0.000000000000000000, 0.000000000000000000, 1.000000000000000000 ) ) ;
#158 = DIRECTION ( 'NONE',  ( -0.7071067811870476172, -0.7071067811860475283, 0.000000000000000000 ) ) ;
#159 = APPROVAL_DATE_TIME ( #48, #197 ) ;
#160 = APPROVAL_STATUS ( 'not_yet_approved' ) ;
#161 = COORDINATED_UNIVERSAL_TIME_OFFSET ( 10, 0, .AHEAD. ) ;
#162 =( GEOMETRIC_REPRESENTATION_CONTEXT ( 3 ) GLOBAL_UNCERTAINTY_ASSIGNED_CONTEXT ( ( #75 ) ) GLOBAL_UNIT_ASSIGNED_CONTEXT ( ( #62, #27, #174 ) ) REPRESENTATION_CONTEXT ( 'NONE', 'WORKASPACE' ) );
#163 = SECURITY_CLASSIFICATION ( '', '', #47 ) ;
#164 = PLANE ( 'NONE',  #104 ) ;
#165 = ORIENTED_EDGE ( 'NONE', *, *, #127, .F. ) ;
#166 = CARTESIAN_POINT ( 'NONE',  ( -0.2121306400000000092, 0.1414221199999999845, 0.4999989999999999712 ) ) ;
#167 = ORIENTED_EDGE ( 'NONE', *, *, #118, .T. ) ;
#168 = ORIENTED_EDGE ( 'NONE', *, *, #227, .T. ) ;
#169 = VECTOR ( 'NONE', #157, 1000.000000000000000 ) ;
#170 = MANIFOLD_SOLID_BREP ( 'Extruded[1]', #70 ) ;
#171 = CARTESIAN_POINT ( 'NONE',  ( 0.2121306400000000092, -0.1414221199999999845, 0.4999989999999999712 ) ) ;
#172 = APPROVAL ( #11, 'Coincident' ) ;
#173 = LINE ( 'NONE', #76, #29 ) ;
#174 =( NAMED_UNIT ( * ) SI_UNIT ( $, .STERADIAN. ) SOLID_ANGLE_UNIT ( ) );
#175 = AXIS2_PLACEMENT_3D ( 'NONE', #219, #114, #186 ) ;
#176 = MECHANICAL_CONTEXT ( 'NONE', #181, 'mechanical' ) ;
#177 = EDGE_CURVE ( 'NONE', #72, #184, #222, .T. ) ;
#178 = APPLICATION_PROTOCOL_DEFINITION ( 'international standard', 'config_control_design', 1994, #111 ) ;
#179 = PERSON_AND_ORGANIZATION ( #18446744073709551615, #18446744073709551615 ) ;
#180 = CALENDAR_DATE ( 2026, 22, 6 ) ;
#181 = APPLICATION_CONTEXT ( 'configuration controlled 3d designs of mechanical parts and assemblies' ) ;
#182 = ORIENTED_EDGE ( 'NONE', *, *, #227, .F. ) ;
#183 = ORIENTED_EDGE ( 'NONE', *, *, #77, .T. ) ;
#184 = VERTEX_POINT ( 'NONE', #153 ) ;
#185 = ORIENTED_EDGE ( 'NONE', *, *, #137, .F. ) ;
#186 = DIRECTION ( 'NONE',  ( 1.000000000000000000, 0.000000000000000000, 0.000000000000000000 ) ) ;
#187 = EDGE_CURVE ( 'NONE', #234, #217, #202, .T. ) ;
#188 = DIRECTION ( 'NONE',  ( 0.7071067811870476172, 0.7071067811860475283, 0.000000000000000000 ) ) ;
#189 = DIRECTION ( 'NONE',  ( -0.7071067811865474617, 0.7071067811865474617, 0.000000000000000000 ) ) ;
#190 = DIRECTION ( 'NONE',  ( 0.7071067811870476172, 0.7071067811860475283, 0.000000000000000000 ) ) ;
#191 = COORDINATED_UNIVERSAL_TIME_OFFSET ( 10, 0, .AHEAD. ) ;
#192 = APPROVAL_ROLE ( '' ) ;
#193 = APPROVAL_ROLE ( '' ) ;
#194 = DATE_TIME_ROLE ( 'creation_date' ) ;
#195 = FACE_OUTER_BOUND ( 'NONE', #216, .T. ) ;
#196 = LOCAL_TIME ( 18, 49, 59.00000000000000000, #231 ) ;
#197 = APPROVAL ( #160, 'Coincident' ) ;
#198 = ORIENTED_EDGE ( 'NONE', *, *, #21, .T. ) ;
#199 = CARTESIAN_POINT ( 'NONE',  ( -0.2121306400000000092, 0.1414221199999999845, 0.000000000000000000 ) ) ;
#200 = CARTESIAN_POINT ( 'NONE',  ( -0.1414221199999999845, 0.2121306400000000092, 0.000000000000000000 ) ) ;
#201 = PLANE ( 'NONE',  #175 ) ;
#202 = LINE ( 'NONE', #4, #122 ) ;
#203 = VECTOR ( 'NONE', #152, 1000.000000000000000 ) ;
#204 = CARTESIAN_POINT ( 'NONE',  ( 0.1414221199999999845, -0.2121306400000000092, 0.000000000000000000 ) ) ;
#205 = EDGE_CURVE ( 'NONE', #217, #215, #138, .T. ) ;
#206 = DIRECTION ( 'NONE',  ( 0.7071067811860475283, -0.7071067811870476172, 0.000000000000000000 ) ) ;
#207 = APPROVAL_PERSON_ORGANIZATION ( #210, #172, #192 ) ;
#208 = PRODUCT_DEFINITION ( 'General', '', #130, #211 ) ;
#209 = APPLICATION_PROTOCOL_DEFINITION ( 'international standard', 'config_control_design', 1994, #181 ) ;
#210 = PERSON_AND_ORGANIZATION ( #18446744073709551615, #18446744073709551615 ) ;
#211 = DESIGN_CONTEXT ( 'detailed design', #111, 'design' ) ;
#212 = EDGE_CURVE ( 'NONE', #32, #234, #8, .T. ) ;
#213 = ORIENTED_EDGE ( 'NONE', *, *, #205, .F. ) ;
#214 = APPROVAL_PERSON_ORGANIZATION ( #13, #63, #193 ) ;
#215 = VERTEX_POINT ( 'NONE', #225 ) ;
#216 = EDGE_LOOP ( 'NONE', ( #52, #37, #94, #112 ) ) ;
#217 = VERTEX_POINT ( 'NONE', #204 ) ;
#218 = VECTOR ( 'NONE', #141, 1000.000000000000114 ) ;
#219 = CARTESIAN_POINT ( 'NONE',  ( 3.550424051306000126E-15, 0.000000000000000000, 0.4999989999999999712 ) ) ;
#220 = PRODUCT ( 'Extruded-15.step', 'Extruded-15.step', '', ( #176 ) ) ;
#221 = CARTESIAN_POINT ( 'NONE',  ( 0.1414221199999999845, -0.2121306400000000092, 0.000000000000000000 ) ) ;
#222 = LINE ( 'NONE', #171, #155 ) ;
#223 = VECTOR ( 'NONE', #142, 1000.000000000000000 ) ;
#224 = PLANE ( 'NONE',  #19 ) ;
#225 = CARTESIAN_POINT ( 'NONE',  ( 0.1414221199999999845, -0.2121306400000000092, 0.4999989999999999712 ) ) ;
#226 = DATE_AND_TIME ( #35, #196 ) ;
#227 = EDGE_CURVE ( 'NONE', #215, #72, #44, .T. ) ;
#228 = CC_DESIGN_APPROVAL ( #172, ( #208 ) ) ;
#229 = PERSON_AND_ORGANIZATION ( #18446744073709551615, #18446744073709551615 ) ;
#230 = CALENDAR_DATE ( 2026, 22, 6 ) ;
#231 = COORDINATED_UNIVERSAL_TIME_OFFSET ( 10, 0, .AHEAD. ) ;
#232 = DATE_AND_TIME ( #230, #10 ) ;
#233 = CARTESIAN_POINT ( 'NONE',  ( 3.550424051306000126E-15, 0.000000000000000000, 0.000000000000000000 ) ) ;
#234 = VERTEX_POINT ( 'NONE', #121 ) ;
#235 = AXIS2_PLACEMENT_3D ( 'NONE', #221, #26, #24 ) ;
ENDSEC;
END-ISO-10303-21;
