ISO-10303-21;
HEADER;
FILE_DESCRIPTION (( 'STEP AP203' ),
    '1' );
FILE_NAME ('Extruded-17.step.STEP',
    '2026-06-22T08:50:00',
    ( 'localuser' ),
    ( '' ),
    'SwSTEP 2.0',
    'SolidWorks 2025',
    '' );
FILE_SCHEMA (( 'CONFIG_CONTROL_DESIGN' ));
ENDSEC;

DATA;
#1 = PERSON_AND_ORGANIZATION ( #18446744073709551615, #18446744073709551615 ) ;
#2 = PERSON_AND_ORGANIZATION ( #18446744073709551615, #18446744073709551615 ) ;
#3 = EDGE_LOOP ( 'NONE', ( #189, #72, #146, #68 ) ) ;
#4 = PLANE ( 'NONE',  #32 ) ;
#5 = DIRECTION ( 'NONE',  ( 1.000000000000000000, 0.000000000000000000, 0.000000000000000000 ) ) ;
#6 = EDGE_CURVE ( 'NONE', #22, #186, #168, .T. ) ;
#7 = CARTESIAN_POINT ( 'NONE',  ( 7.143762132805998312E-15, 1.270000005556000085E-06, 0.9000007399999999658 ) ) ;
#8 = VECTOR ( 'NONE', #93, 1000.000000000000000 ) ;
#9 = CARTESIAN_POINT ( 'NONE',  ( 0.3999991999999999992, 0.6500012400000000357, 0.000000000000000000 ) ) ;
#10 = CARTESIAN_POINT ( 'NONE',  ( -0.3999991999999999992, 0.6500012400000000357, 0.000000000000000000 ) ) ;
#11 = EDGE_CURVE ( 'NONE', #105, #90, #71, .T. ) ;
#12 = FACE_OUTER_BOUND ( 'NONE', #3, .T. ) ;
#13 = ADVANCED_FACE ( 'NONE', ( #70 ), #145, .T. ) ;
#14 = DIRECTION ( 'NONE',  ( 0.000000000000000000, 0.000000000000000000, -1.000000000000000000 ) ) ;
#15 = CARTESIAN_POINT ( 'NONE',  ( 0.3999991999999999992, -0.6499986999999999293, 0.000000000000000000 ) ) ;
#16 = CC_DESIGN_APPROVAL ( #107, ( #47 ) ) ;
#17 = COORDINATED_UNIVERSAL_TIME_OFFSET ( 10, 0, .AHEAD. ) ;
#18 = DIRECTION ( 'NONE',  ( 1.000000000000000000, 0.000000000000000000, 0.000000000000000000 ) ) ;
#19 = VECTOR ( 'NONE', #28, 1000.000000000000000 ) ;
#20 = DIRECTION ( 'NONE',  ( 0.000000000000000000, 0.000000000000000000, 1.000000000000000000 ) ) ;
#21 = ORIENTED_EDGE ( 'NONE', *, *, #102, .F. ) ;
#22 = VERTEX_POINT ( 'NONE', #222 ) ;
#23 = VERTEX_POINT ( 'NONE', #55 ) ;
#24 = ORIENTED_EDGE ( 'NONE', *, *, #6, .F. ) ;
#25 = DIRECTION ( 'NONE',  ( 0.000000000000000000, 1.000000000000000000, 0.000000000000000000 ) ) ;
#26 = DIRECTION ( 'NONE',  ( -0.000000000000000000, 1.000000000000000000, 0.000000000000000000 ) ) ;
#27 = CARTESIAN_POINT ( 'NONE',  ( 0.3999991999999999992, -0.6499986999999999293, 0.9000007399999999658 ) ) ;
#28 = DIRECTION ( 'NONE',  ( 0.000000000000000000, 0.000000000000000000, 1.000000000000000000 ) ) ;
#29 = APPROVAL_ROLE ( '' ) ;
#30 = DATE_TIME_ROLE ( 'classification_date' ) ;
#31 = DESIGN_CONTEXT ( 'detailed design', #125, 'design' ) ;
#32 = AXIS2_PLACEMENT_3D ( 'NONE', #7, #54, #129 ) ;
#33 = ORIENTED_EDGE ( 'NONE', *, *, #128, .T. ) ;
#34 = APPLICATION_CONTEXT ( 'configuration controlled 3d designs of mechanical parts and assemblies' ) ;
#35 = ORIENTED_EDGE ( 'NONE', *, *, #11, .T. ) ;
#36 = ORIENTED_EDGE ( 'NONE', *, *, #141, .F. ) ;
#37 = CARTESIAN_POINT ( 'NONE',  ( 0.3999991999999999992, 0.6500012400000000357, 0.000000000000000000 ) ) ;
#38 = ORIENTED_EDGE ( 'NONE', *, *, #11, .F. ) ;
#39 = CC_DESIGN_APPROVAL ( #52, ( #112 ) ) ;
#40 = DIRECTION ( 'NONE',  ( 1.000000000000000000, 0.000000000000000000, 0.000000000000000000 ) ) ;
#41 = DIRECTION ( 'NONE',  ( -1.000000000000000000, 0.000000000000000000, 0.000000000000000000 ) ) ;
#42 = APPROVAL_PERSON_ORGANIZATION ( #121, #225, #29 ) ;
#43 = CARTESIAN_POINT ( 'NONE',  ( -0.3999991999999999992, -0.6499986999999999293, 0.000000000000000000 ) ) ;
#44 = CARTESIAN_POINT ( 'NONE',  ( 0.3999991999999999992, 0.6500012400000000357, 0.9000007399999999658 ) ) ;
#45 = SHAPE_DEFINITION_REPRESENTATION ( #79, #163 ) ;
#46 = MECHANICAL_CONTEXT ( 'NONE', #34, 'mechanical' ) ;
#47 = PRODUCT_DEFINITION_FORMATION_WITH_SPECIFIED_SOURCE ( 'Symmetric', '', #220, .NOT_KNOWN. ) ;
#48 = DATE_AND_TIME ( #211, #193 ) ;
#49 = ADVANCED_FACE ( 'NONE', ( #130 ), #4, .F. ) ;
#50 = VECTOR ( 'NONE', #25, 1000.000000000000000 ) ;
#51 = ORIENTED_EDGE ( 'NONE', *, *, #6, .T. ) ;
#52 = APPROVAL ( #140, 'Coincident' ) ;
#53 = ORIENTED_EDGE ( 'NONE', *, *, #150, .T. ) ;
#54 = DIRECTION ( 'NONE',  ( 0.000000000000000000, 0.000000000000000000, -1.000000000000000000 ) ) ;
#55 = CARTESIAN_POINT ( 'NONE',  ( 0.3999991999999999992, -0.6499986999999999293, 0.9000007399999999658 ) ) ;
#56 = CARTESIAN_POINT ( 'NONE',  ( -0.3999991999999999992, -0.6499986999999999293, 0.9000007399999999658 ) ) ;
#57 = DIRECTION ( 'NONE',  ( 0.000000000000000000, 0.000000000000000000, 1.000000000000000000 ) ) ;
#58 = CC_DESIGN_DATE_AND_TIME_ASSIGNMENT ( #63, #30, ( #112 ) ) ;
#59 = DIRECTION ( 'NONE',  ( 0.000000000000000000, -1.000000000000000000, 0.000000000000000000 ) ) ;
#60 = VECTOR ( 'NONE', #177, 1000.000000000000000 ) ;
#61 = LOCAL_TIME ( 18, 50, 0.000000000000000000, #17 ) ;
#62 = CALENDAR_DATE ( 2026, 22, 6 ) ;
#63 = DATE_AND_TIME ( #216, #74 ) ;
#64 = APPROVAL_ROLE ( '' ) ;
#65 = VECTOR ( 'NONE', #41, 1000.000000000000000 ) ;
#66 = PRODUCT_RELATED_PRODUCT_CATEGORY ( 'detail', '', ( #220 ) ) ;
#67 = SECURITY_CLASSIFICATION_LEVEL ( 'unclassified' ) ;
#68 = ORIENTED_EDGE ( 'NONE', *, *, #175, .F. ) ;
#69 = AXIS2_PLACEMENT_3D ( 'NONE', #190, #26, #115 ) ;
#70 = FACE_OUTER_BOUND ( 'NONE', #221, .T. ) ;
#71 = LINE ( 'NONE', #167, #8 ) ;
#72 = ORIENTED_EDGE ( 'NONE', *, *, #160, .T. ) ;
#73 = VECTOR ( 'NONE', #109, 1000.000000000000000 ) ;
#74 = LOCAL_TIME ( 18, 50, 0.000000000000000000, #123 ) ;
#75 = DIRECTION ( 'NONE',  ( 0.000000000000000000, -1.000000000000000000, 0.000000000000000000 ) ) ;
#76 = CARTESIAN_POINT ( 'NONE',  ( -0.3999991999999999992, 0.6500012400000000357, 0.000000000000000000 ) ) ;
#77 = PLANE ( 'NONE',  #223 ) ;
#78 = CARTESIAN_POINT ( 'NONE',  ( 0.3999991999999999992, -0.6499986999999999293, 0.000000000000000000 ) ) ;
#79 = PRODUCT_DEFINITION_SHAPE ( 'NONE', 'NONE',  #108 ) ;
#80 = CC_DESIGN_PERSON_AND_ORGANIZATION_ASSIGNMENT ( #161, #159, ( #220 ) ) ;
#81 = CARTESIAN_POINT ( 'NONE',  ( 0.3999991999999999992, 0.6500012400000000357, 0.9000007399999999658 ) ) ;
#82 = CARTESIAN_POINT ( 'NONE',  ( 0.3999991999999999992, -0.6499986999999999293, 0.000000000000000000 ) ) ;
#83 = COORDINATED_UNIVERSAL_TIME_OFFSET ( 10, 0, .AHEAD. ) ;
#84 = CALENDAR_DATE ( 2026, 22, 6 ) ;
#85 = DATE_AND_TIME ( #179, #61 ) ;
#86 = COORDINATED_UNIVERSAL_TIME_OFFSET ( 10, 0, .AHEAD. ) ;
#87 = VECTOR ( 'NONE', #5, 1000.000000000000000 ) ;
#88 = APPROVAL_ROLE ( '' ) ;
#89 = EDGE_LOOP ( 'NONE', ( #94, #131, #35, #147 ) ) ;
#90 = VERTEX_POINT ( 'NONE', #187 ) ;
#91 =( GEOMETRIC_REPRESENTATION_CONTEXT ( 3 ) GLOBAL_UNCERTAINTY_ASSIGNED_CONTEXT ( ( #144 ) ) GLOBAL_UNIT_ASSIGNED_CONTEXT ( ( #153, #207, #173 ) ) REPRESENTATION_CONTEXT ( 'NONE', 'WORKASPACE' ) );
#92 = ORIENTED_EDGE ( 'NONE', *, *, #217, .T. ) ;
#93 = DIRECTION ( 'NONE',  ( 0.000000000000000000, 1.000000000000000000, 0.000000000000000000 ) ) ;
#94 = ORIENTED_EDGE ( 'NONE', *, *, #102, .T. ) ;
#95 = AXIS2_PLACEMENT_3D ( 'NONE', #133, #14, #231 ) ;
#96 = APPROVAL_PERSON_ORGANIZATION ( #215, #107, #88 ) ;
#97 = CARTESIAN_POINT ( 'NONE',  ( 0.3999991999999999992, -0.6499986999999999293, 0.000000000000000000 ) ) ;
#98 = PLANE ( 'NONE',  #69 ) ;
#99 = DATE_TIME_ROLE ( 'creation_date' ) ;
#100 = EDGE_CURVE ( 'NONE', #205, #186, #204, .T. ) ;
#101 = APPROVAL_DATE_TIME ( #48, #52 ) ;
#102 = EDGE_CURVE ( 'NONE', #205, #148, #188, .T. ) ;
#103 = ORIENTED_EDGE ( 'NONE', *, *, #155, .T. ) ;
#104 = EDGE_LOOP ( 'NONE', ( #53, #51, #165, #36 ) ) ;
#105 = VERTEX_POINT ( 'NONE', #226 ) ;
#106 = ORIENTED_EDGE ( 'NONE', *, *, #128, .F. ) ;
#107 = APPROVAL ( #180, 'Coincident' ) ;
#108 = PRODUCT_DEFINITION ( 'General', '', #47, #31 ) ;
#109 = DIRECTION ( 'NONE',  ( 0.000000000000000000, 0.000000000000000000, 1.000000000000000000 ) ) ;
#110 = VERTEX_POINT ( 'NONE', #56 ) ;
#111 = AXIS2_PLACEMENT_3D ( 'NONE', #15, #59, #210 ) ;
#112 = SECURITY_CLASSIFICATION ( '', '', #67 ) ;
#113 = ADVANCED_FACE ( 'NONE', ( #118 ), #98, .T. ) ;
#114 = DIRECTION ( 'NONE',  ( 0.000000000000000000, 1.000000000000000000, 0.000000000000000000 ) ) ;
#115 = DIRECTION ( 'NONE',  ( 1.000000000000000000, 0.000000000000000000, 0.000000000000000000 ) ) ;
#116 = LINE ( 'NONE', #27, #65 ) ;
#117 = VECTOR ( 'NONE', #40, 1000.000000000000000 ) ;
#118 = FACE_OUTER_BOUND ( 'NONE', #104, .T. ) ;
#119 = PLANE ( 'NONE',  #111 ) ;
#120 = LOCAL_TIME ( 18, 50, 0.000000000000000000, #86 ) ;
#121 = PERSON_AND_ORGANIZATION ( #18446744073709551615, #18446744073709551615 ) ;
#122 = DATE_AND_TIME ( #84, #132 ) ;
#123 = COORDINATED_UNIVERSAL_TIME_OFFSET ( 10, 0, .AHEAD. ) ;
#124 = ADVANCED_FACE ( 'NONE', ( #156 ), #77, .T. ) ;
#125 = APPLICATION_CONTEXT ( 'configuration controlled 3d designs of mechanical parts and assemblies' ) ;
#126 = ORIENTED_EDGE ( 'NONE', *, *, #150, .F. ) ;
#127 = ORIENTED_EDGE ( 'NONE', *, *, #195, .F. ) ;
#128 = EDGE_CURVE ( 'NONE', #186, #23, #192, .T. ) ;
#129 = DIRECTION ( 'NONE',  ( 0.000000000000000000, -1.000000000000000000, 0.000000000000000000 ) ) ;
#130 = FACE_OUTER_BOUND ( 'NONE', #201, .T. ) ;
#131 = ORIENTED_EDGE ( 'NONE', *, *, #175, .T. ) ;
#132 = LOCAL_TIME ( 18, 50, 0.000000000000000000, #83 ) ;
#133 = CARTESIAN_POINT ( 'NONE',  ( 7.143762132805998312E-15, 1.270000005556000085E-06, 0.000000000000000000 ) ) ;
#134 = CARTESIAN_POINT ( 'NONE',  ( 0.3999991999999999992, 0.6500012400000000357, 0.000000000000000000 ) ) ;
#135 = DIRECTION ( 'NONE',  ( -1.000000000000000000, 0.000000000000000000, 0.000000000000000000 ) ) ;
#136 = DATE_AND_TIME ( #62, #120 ) ;
#137 = CC_DESIGN_PERSON_AND_ORGANIZATION_ASSIGNMENT ( #234, #139, ( #112 ) ) ;
#138 = APPLICATION_PROTOCOL_DEFINITION ( 'international standard', 'config_control_design', 1994, #34 ) ;
#139 = PERSON_AND_ORGANIZATION_ROLE ( 'classification_officer' ) ;
#140 = APPROVAL_STATUS ( 'not_yet_approved' ) ;
#141 = EDGE_CURVE ( 'NONE', #90, #205, #174, .T. ) ;
#142 = APPROVAL_PERSON_ORGANIZATION ( #2, #52, #64 ) ;
#143 = CARTESIAN_POINT ( 'NONE',  ( -0.3999991999999999992, 0.6500012400000000357, 0.9000007399999999658 ) ) ;
#144 = UNCERTAINTY_MEASURE_WITH_UNIT (LENGTH_MEASURE( 1.000000000000000082E-05 ), #153, 'distance_accuracy_value', 'NONE');
#145 = PLANE ( 'NONE',  #158 ) ;
#146 = ORIENTED_EDGE ( 'NONE', *, *, #217, .F. ) ;
#147 = ORIENTED_EDGE ( 'NONE', *, *, #141, .T. ) ;
#148 = VERTEX_POINT ( 'NONE', #97 ) ;
#149 = CC_DESIGN_PERSON_AND_ORGANIZATION_ASSIGNMENT ( #178, #164, ( #47 ) ) ;
#150 = EDGE_CURVE ( 'NONE', #90, #22, #230, .T. ) ;
#151 = DIRECTION ( 'NONE',  ( 0.000000000000000000, -1.000000000000000000, 0.000000000000000000 ) ) ;
#152 = PLANE ( 'NONE',  #95 ) ;
#153 =( LENGTH_UNIT ( ) NAMED_UNIT ( * ) SI_UNIT ( .MILLI., .METRE. ) );
#154 = CC_DESIGN_DATE_AND_TIME_ASSIGNMENT ( #136, #99, ( #108 ) ) ;
#155 = EDGE_CURVE ( 'NONE', #110, #22, #157, .T. ) ;
#156 = FACE_OUTER_BOUND ( 'NONE', #203, .T. ) ;
#157 = LINE ( 'NONE', #194, #50 ) ;
#158 = AXIS2_PLACEMENT_3D ( 'NONE', #200, #224, #219 ) ;
#159 = PERSON_AND_ORGANIZATION_ROLE ( 'design_owner' ) ;
#160 = EDGE_CURVE ( 'NONE', #23, #110, #116, .T. ) ;
#161 = PERSON_AND_ORGANIZATION ( #18446744073709551615, #18446744073709551615 ) ;
#162 = APPROVAL_DATE_TIME ( #85, #107 ) ;
#163 = ADVANCED_BREP_SHAPE_REPRESENTATION ( 'Extruded-17.step', ( #172, #235 ), #91 ) ;
#164 = PERSON_AND_ORGANIZATION_ROLE ( 'creator' ) ;
#165 = ORIENTED_EDGE ( 'NONE', *, *, #100, .F. ) ;
#166 = CLOSED_SHELL ( 'NONE', ( #49, #199, #113, #13, #214, #124 ) ) ;
#167 = CARTESIAN_POINT ( 'NONE',  ( -0.3999991999999999992, -0.6499986999999999293, 0.000000000000000000 ) ) ;
#168 = LINE ( 'NONE', #143, #87 ) ;
#169 = ORIENTED_EDGE ( 'NONE', *, *, #100, .T. ) ;
#170 = ORIENTED_EDGE ( 'NONE', *, *, #160, .F. ) ;
#171 = VECTOR ( 'NONE', #151, 1000.000000000000000 ) ;
#172 = MANIFOLD_SOLID_BREP ( 'Extruded[1]', #166 ) ;
#173 =( NAMED_UNIT ( * ) SI_UNIT ( $, .STERADIAN. ) SOLID_ANGLE_UNIT ( ) );
#174 = LINE ( 'NONE', #10, #117 ) ;
#175 = EDGE_CURVE ( 'NONE', #148, #105, #227, .T. ) ;
#176 = DIRECTION ( 'NONE',  ( 1.000000000000000000, 0.000000000000000000, 0.000000000000000000 ) ) ;
#177 = DIRECTION ( 'NONE',  ( 0.000000000000000000, 0.000000000000000000, 1.000000000000000000 ) ) ;
#178 = PERSON_AND_ORGANIZATION ( #18446744073709551615, #18446744073709551615 ) ;
#179 = CALENDAR_DATE ( 2026, 22, 6 ) ;
#180 = APPROVAL_STATUS ( 'not_yet_approved' ) ;
#181 = CC_DESIGN_SECURITY_CLASSIFICATION ( #112, ( #47 ) ) ;
#182 = CC_DESIGN_PERSON_AND_ORGANIZATION_ASSIGNMENT ( #1, #232, ( #108 ) ) ;
#183 = PERSON_AND_ORGANIZATION_ROLE ( 'design_supplier' ) ;
#184 = CC_DESIGN_PERSON_AND_ORGANIZATION_ASSIGNMENT ( #233, #183, ( #47 ) ) ;
#185 = ORIENTED_EDGE ( 'NONE', *, *, #155, .F. ) ;
#186 = VERTEX_POINT ( 'NONE', #44 ) ;
#187 = CARTESIAN_POINT ( 'NONE',  ( -0.3999991999999999992, 0.6500012400000000357, 0.000000000000000000 ) ) ;
#188 = LINE ( 'NONE', #9, #196 ) ;
#189 = ORIENTED_EDGE ( 'NONE', *, *, #195, .T. ) ;
#190 = CARTESIAN_POINT ( 'NONE',  ( -0.3999991999999999992, 0.6500012400000000357, 0.000000000000000000 ) ) ;
#191 = CARTESIAN_POINT ( 'NONE',  ( 0.3999991999999999992, 0.6500012400000000357, 0.000000000000000000 ) ) ;
#192 = LINE ( 'NONE', #81, #171 ) ;
#193 = LOCAL_TIME ( 18, 50, 0.000000000000000000, #213 ) ;
#194 = CARTESIAN_POINT ( 'NONE',  ( -0.3999991999999999992, -0.6499986999999999293, 0.9000007399999999658 ) ) ;
#195 = EDGE_CURVE ( 'NONE', #148, #23, #209, .T. ) ;
#196 = VECTOR ( 'NONE', #75, 1000.000000000000000 ) ;
#197 = APPROVAL_STATUS ( 'not_yet_approved' ) ;
#198 = APPROVAL_DATE_TIME ( #122, #225 ) ;
#199 = ADVANCED_FACE ( 'NONE', ( #208 ), #152, .T. ) ;
#200 = CARTESIAN_POINT ( 'NONE',  ( -0.3999991999999999992, -0.6499986999999999293, 0.000000000000000000 ) ) ;
#201 = EDGE_LOOP ( 'NONE', ( #24, #185, #170, #106 ) ) ;
#202 = VECTOR ( 'NONE', #57, 1000.000000000000000 ) ;
#203 = EDGE_LOOP ( 'NONE', ( #169, #33, #127, #21 ) ) ;
#204 = LINE ( 'NONE', #37, #73 ) ;
#205 = VERTEX_POINT ( 'NONE', #134 ) ;
#206 = CARTESIAN_POINT ( 'NONE',  ( 0.000000000000000000, 0.000000000000000000, 0.000000000000000000 ) ) ;
#207 =( NAMED_UNIT ( * ) PLANE_ANGLE_UNIT ( ) SI_UNIT ( $, .RADIAN. ) );
#208 = FACE_OUTER_BOUND ( 'NONE', #89, .T. ) ;
#209 = LINE ( 'NONE', #78, #19 ) ;
#210 = DIRECTION ( 'NONE',  ( 0.000000000000000000, 0.000000000000000000, -1.000000000000000000 ) ) ;
#211 = CALENDAR_DATE ( 2026, 22, 6 ) ;
#212 = APPLICATION_PROTOCOL_DEFINITION ( 'international standard', 'config_control_design', 1994, #125 ) ;
#213 = COORDINATED_UNIVERSAL_TIME_OFFSET ( 10, 0, .AHEAD. ) ;
#214 = ADVANCED_FACE ( 'NONE', ( #12 ), #119, .T. ) ;
#215 = PERSON_AND_ORGANIZATION ( #18446744073709551615, #18446744073709551615 ) ;
#216 = CALENDAR_DATE ( 2026, 22, 6 ) ;
#217 = EDGE_CURVE ( 'NONE', #105, #110, #228, .T. ) ;
#218 = VECTOR ( 'NONE', #135, 1000.000000000000000 ) ;
#219 = DIRECTION ( 'NONE',  ( 0.000000000000000000, 0.000000000000000000, 1.000000000000000000 ) ) ;
#220 = PRODUCT ( 'Extruded-17.step', 'Extruded-17.step', '', ( #46 ) ) ;
#221 = EDGE_LOOP ( 'NONE', ( #92, #103, #126, #38 ) ) ;
#222 = CARTESIAN_POINT ( 'NONE',  ( -0.3999991999999999992, 0.6500012400000000357, 0.9000007399999999658 ) ) ;
#223 = AXIS2_PLACEMENT_3D ( 'NONE', #191, #176, #114 ) ;
#224 = DIRECTION ( 'NONE',  ( -1.000000000000000000, 0.000000000000000000, 0.000000000000000000 ) ) ;
#225 = APPROVAL ( #197, 'Coincident' ) ;
#226 = CARTESIAN_POINT ( 'NONE',  ( -0.3999991999999999992, -0.6499986999999999293, 0.000000000000000000 ) ) ;
#227 = LINE ( 'NONE', #82, #218 ) ;
#228 = LINE ( 'NONE', #43, #202 ) ;
#229 = CC_DESIGN_APPROVAL ( #225, ( #108 ) ) ;
#230 = LINE ( 'NONE', #76, #60 ) ;
#231 = DIRECTION ( 'NONE',  ( 0.000000000000000000, -1.000000000000000000, 0.000000000000000000 ) ) ;
#232 = PERSON_AND_ORGANIZATION_ROLE ( 'creator' ) ;
#233 = PERSON_AND_ORGANIZATION ( #18446744073709551615, #18446744073709551615 ) ;
#234 = PERSON_AND_ORGANIZATION ( #18446744073709551615, #18446744073709551615 ) ;
#235 = AXIS2_PLACEMENT_3D ( 'NONE', #206, #20, #18 ) ;
ENDSEC;
END-ISO-10303-21;
