ISO-10303-21;
HEADER;
FILE_DESCRIPTION (( 'STEP AP203' ),
    '1' );
FILE_NAME ('Extruded-6.step.STEP',
    '2026-06-22T08:49:54',
    ( 'localuser' ),
    ( '' ),
    'SwSTEP 2.0',
    'SolidWorks 2025',
    '' );
FILE_SCHEMA (( 'CONFIG_CONTROL_DESIGN' ));
ENDSEC;

DATA;
#1 = PERSON_AND_ORGANIZATION_ROLE ( 'design_supplier' ) ;
#2 = PERSON_AND_ORGANIZATION_ROLE ( 'classification_officer' ) ;
#3 = CALENDAR_DATE ( 2026, 22, 6 ) ;
#4 = LINE ( 'NONE', #75, #194 ) ;
#5 = DIRECTION ( 'NONE',  ( 0.000000000000000000, 0.000000000000000000, 1.000000000000000000 ) ) ;
#6 = DIRECTION ( 'NONE',  ( 0.000000000000000000, -1.000000000000000000, 0.000000000000000000 ) ) ;
#7 = VERTEX_POINT ( 'NONE', #181 ) ;
#8 = LOCAL_TIME ( 18, 49, 54.00000000000000000, #177 ) ;
#9 = CARTESIAN_POINT ( 'NONE',  ( 0.07500112000001001034, -0.3999991999999999992, 0.000000000000000000 ) ) ;
#10 = PERSON_AND_ORGANIZATION ( #18446744073709551615, #18446744073709551615 ) ;
#11 = DIRECTION ( 'NONE',  ( 0.000000000000000000, 0.000000000000000000, -1.000000000000000000 ) ) ;
#12 = CARTESIAN_POINT ( 'NONE',  ( 0.07500112000001001034, 0.3999991999999999992, 0.000000000000000000 ) ) ;
#13 = EDGE_CURVE ( 'NONE', #51, #62, #184, .T. ) ;
#14 = CARTESIAN_POINT ( 'NONE',  ( 7.103231342612000311E-15, 0.000000000000000000, 0.000000000000000000 ) ) ;
#15 = APPROVAL ( #20, 'Coincident' ) ;
#16 = CALENDAR_DATE ( 2026, 22, 6 ) ;
#17 = SHAPE_DEFINITION_REPRESENTATION ( #155, #196 ) ;
#18 = VECTOR ( 'NONE', #79, 1000.000000000000000 ) ;
#19 = COORDINATED_UNIVERSAL_TIME_OFFSET ( 10, 0, .AHEAD. ) ;
#20 = APPROVAL_STATUS ( 'not_yet_approved' ) ;
#21 = DIRECTION ( 'NONE',  ( 1.000000000000000000, 0.000000000000000000, 0.000000000000000000 ) ) ;
#22 = EDGE_CURVE ( 'NONE', #220, #7, #132, .T. ) ;
#23 = DIRECTION ( 'NONE',  ( -1.000000000000000000, 0.000000000000000000, 0.000000000000000000 ) ) ;
#24 = CARTESIAN_POINT ( 'NONE',  ( 0.07500112000001001034, -0.3999991999999999992, 0.000000000000000000 ) ) ;
#25 = ORIENTED_EDGE ( 'NONE', *, *, #26, .F. ) ;
#26 = EDGE_CURVE ( 'NONE', #51, #152, #214, .T. ) ;
#27 = LINE ( 'NONE', #24, #116 ) ;
#28 = CLOSED_SHELL ( 'NONE', ( #212, #112, #58, #188, #81, #174 ) ) ;
#29 = APPROVAL ( #48, 'Coincident' ) ;
#30 = LINE ( 'NONE', #157, #235 ) ;
#31 = PLANE ( 'NONE',  #225 ) ;
#32 = DIRECTION ( 'NONE',  ( 0.000000000000000000, 1.000000000000000000, 0.000000000000000000 ) ) ;
#33 = PLANE ( 'NONE',  #98 ) ;
#34 = ORIENTED_EDGE ( 'NONE', *, *, #190, .F. ) ;
#35 = CC_DESIGN_APPROVAL ( #29, ( #49 ) ) ;
#36 = APPROVAL_PERSON_ORGANIZATION ( #87, #107, #54 ) ;
#37 = APPROVAL_DATE_TIME ( #197, #29 ) ;
#38 = FACE_OUTER_BOUND ( 'NONE', #92, .T. ) ;
#39 = EDGE_CURVE ( 'NONE', #152, #78, #206, .T. ) ;
#40 = CARTESIAN_POINT ( 'NONE',  ( -0.07500112000000000445, 0.3999991999999999992, 0.000000000000000000 ) ) ;
#41 = DIRECTION ( 'NONE',  ( 0.000000000000000000, 0.000000000000000000, 1.000000000000000000 ) ) ;
#42 = CC_DESIGN_APPROVAL ( #107, ( #65 ) ) ;
#43 = CARTESIAN_POINT ( 'NONE',  ( -0.07500112000000000445, 0.3999991999999999992, 0.9000007399999999658 ) ) ;
#44 = CC_DESIGN_PERSON_AND_ORGANIZATION_ASSIGNMENT ( #118, #189, ( #219 ) ) ;
#45 = CARTESIAN_POINT ( 'NONE',  ( 0.07500112000001001034, -0.3999991999999999992, 0.9000007399999999658 ) ) ;
#46 = CARTESIAN_POINT ( 'NONE',  ( 0.07500112000001001034, -0.3999991999999999992, 0.000000000000000000 ) ) ;
#47 = APPROVAL_PERSON_ORGANIZATION ( #10, #29, #120 ) ;
#48 = APPROVAL_STATUS ( 'not_yet_approved' ) ;
#49 = PRODUCT_DEFINITION ( 'General', '', #65, #121 ) ;
#50 = DIRECTION ( 'NONE',  ( -1.000000000000000000, 0.000000000000000000, 0.000000000000000000 ) ) ;
#51 = VERTEX_POINT ( 'NONE', #40 ) ;
#52 = DIRECTION ( 'NONE',  ( 0.000000000000000000, 0.000000000000000000, -1.000000000000000000 ) ) ;
#53 = AXIS2_PLACEMENT_3D ( 'NONE', #183, #77, #115 ) ;
#54 = APPROVAL_ROLE ( '' ) ;
#55 = DATE_AND_TIME ( #3, #170 ) ;
#56 = AXIS2_PLACEMENT_3D ( 'NONE', #89, #23, #5 ) ;
#57 = CARTESIAN_POINT ( 'NONE',  ( 0.07500112000001001034, -0.3999991999999999992, 0.000000000000000000 ) ) ;
#58 = ADVANCED_FACE ( 'NONE', ( #38 ), #114, .T. ) ;
#59 = EDGE_LOOP ( 'NONE', ( #128, #147, #109, #171 ) ) ;
#60 = ORIENTED_EDGE ( 'NONE', *, *, #103, .T. ) ;
#61 = ORIENTED_EDGE ( 'NONE', *, *, #159, .T. ) ;
#62 = VERTEX_POINT ( 'NONE', #165 ) ;
#63 = EDGE_CURVE ( 'NONE', #62, #78, #207, .T. ) ;
#64 = CC_DESIGN_PERSON_AND_ORGANIZATION_ASSIGNMENT ( #108, #2, ( #187 ) ) ;
#65 = PRODUCT_DEFINITION_FORMATION_WITH_SPECIFIED_SOURCE ( 'Symmetric', '', #219, .NOT_KNOWN. ) ;
#66 = DIRECTION ( 'NONE',  ( 1.000000000000000000, 0.000000000000000000, 0.000000000000000000 ) ) ;
#67 = DIRECTION ( 'NONE',  ( 0.000000000000000000, -1.000000000000000000, 0.000000000000000000 ) ) ;
#68 = EDGE_LOOP ( 'NONE', ( #222, #60, #130, #34 ) ) ;
#69 = AXIS2_PLACEMENT_3D ( 'NONE', #14, #52, #82 ) ;
#70 = VERTEX_POINT ( 'NONE', #45 ) ;
#71 = APPLICATION_CONTEXT ( 'configuration controlled 3d designs of mechanical parts and assemblies' ) ;
#72 = PERSON_AND_ORGANIZATION_ROLE ( 'creator' ) ;
#73 = ORIENTED_EDGE ( 'NONE', *, *, #97, .T. ) ;
#74 = CALENDAR_DATE ( 2026, 22, 6 ) ;
#75 = CARTESIAN_POINT ( 'NONE',  ( 0.07500112000001001034, 0.3999991999999999992, 0.9000007399999999658 ) ) ;
#76 = APPROVAL_PERSON_ORGANIZATION ( #164, #15, #126 ) ;
#77 = DIRECTION ( 'NONE',  ( 1.000000000000000000, 0.000000000000000000, 0.000000000000000000 ) ) ;
#78 = VERTEX_POINT ( 'NONE', #186 ) ;
#79 = DIRECTION ( 'NONE',  ( 1.000000000000000000, 0.000000000000000000, 0.000000000000000000 ) ) ;
#80 = VECTOR ( 'NONE', #134, 1000.000000000000000 ) ;
#81 = ADVANCED_FACE ( 'NONE', ( #154 ), #149, .T. ) ;
#82 = DIRECTION ( 'NONE',  ( 0.000000000000000000, -1.000000000000000000, 0.000000000000000000 ) ) ;
#83 = FACE_OUTER_BOUND ( 'NONE', #224, .T. ) ;
#84 = LINE ( 'NONE', #12, #123 ) ;
#85 = DATE_AND_TIME ( #148, #133 ) ;
#86 = COORDINATED_UNIVERSAL_TIME_OFFSET ( 10, 0, .AHEAD. ) ;
#87 = PERSON_AND_ORGANIZATION ( #18446744073709551615, #18446744073709551615 ) ;
#88 = CC_DESIGN_DATE_AND_TIME_ASSIGNMENT ( #234, #180, ( #187 ) ) ;
#89 = CARTESIAN_POINT ( 'NONE',  ( -0.07500112000000000445, -0.3999991999999999992, 0.000000000000000000 ) ) ;
#90 = VECTOR ( 'NONE', #191, 1000.000000000000000 ) ;
#91 = ORIENTED_EDGE ( 'NONE', *, *, #190, .T. ) ;
#92 = EDGE_LOOP ( 'NONE', ( #61, #142, #25, #113 ) ) ;
#93 = CC_DESIGN_PERSON_AND_ORGANIZATION_ASSIGNMENT ( #150, #1, ( #65 ) ) ;
#94 = ORIENTED_EDGE ( 'NONE', *, *, #22, .T. ) ;
#95 = ORIENTED_EDGE ( 'NONE', *, *, #22, .F. ) ;
#96 = LOCAL_TIME ( 18, 49, 54.00000000000000000, #86 ) ;
#97 = EDGE_CURVE ( 'NONE', #220, #70, #27, .T. ) ;
#98 = AXIS2_PLACEMENT_3D ( 'NONE', #101, #229, #67 ) ;
#99 = CARTESIAN_POINT ( 'NONE',  ( -0.07500112000000000445, -0.3999991999999999992, 0.000000000000000000 ) ) ;
#100 = APPLICATION_PROTOCOL_DEFINITION ( 'international standard', 'config_control_design', 1994, #139 ) ;
#101 = CARTESIAN_POINT ( 'NONE',  ( 7.103231342612000311E-15, 0.000000000000000000, 0.9000007399999999658 ) ) ;
#102 =( GEOMETRIC_REPRESENTATION_CONTEXT ( 3 ) GLOBAL_UNCERTAINTY_ASSIGNED_CONTEXT ( ( #140 ) ) GLOBAL_UNIT_ASSIGNED_CONTEXT ( ( #141, #209, #138 ) ) REPRESENTATION_CONTEXT ( 'NONE', 'WORKASPACE' ) );
#103 = EDGE_CURVE ( 'NONE', #78, #70, #4, .T. ) ;
#104 = FACE_OUTER_BOUND ( 'NONE', #146, .T. ) ;
#105 = PERSON_AND_ORGANIZATION_ROLE ( 'creator' ) ;
#106 = VERTEX_POINT ( 'NONE', #217 ) ;
#107 = APPROVAL ( #213, 'Coincident' ) ;
#108 = PERSON_AND_ORGANIZATION ( #18446744073709551615, #18446744073709551615 ) ;
#109 = ORIENTED_EDGE ( 'NONE', *, *, #63, .F. ) ;
#110 = PERSON_AND_ORGANIZATION ( #18446744073709551615, #18446744073709551615 ) ;
#111 = CARTESIAN_POINT ( 'NONE',  ( 0.07500112000001001034, 0.3999991999999999992, 0.000000000000000000 ) ) ;
#112 = ADVANCED_FACE ( 'NONE', ( #129 ), #124, .T. ) ;
#113 = ORIENTED_EDGE ( 'NONE', *, *, #199, .F. ) ;
#114 = PLANE ( 'NONE',  #56 ) ;
#115 = DIRECTION ( 'NONE',  ( 0.000000000000000000, 1.000000000000000000, 0.000000000000000000 ) ) ;
#116 = VECTOR ( 'NONE', #168, 1000.000000000000000 ) ;
#117 = LOCAL_TIME ( 18, 49, 54.00000000000000000, #145 ) ;
#118 = PERSON_AND_ORGANIZATION ( #18446744073709551615, #18446744073709551615 ) ;
#119 = VECTOR ( 'NONE', #50, 1000.000000000000000 ) ;
#120 = APPROVAL_ROLE ( '' ) ;
#121 = DESIGN_CONTEXT ( 'detailed design', #71, 'design' ) ;
#122 = CARTESIAN_POINT ( 'NONE',  ( -0.07500112000000000445, 0.3999991999999999992, 0.9000007399999999658 ) ) ;
#123 = VECTOR ( 'NONE', #226, 1000.000000000000000 ) ;
#124 = PLANE ( 'NONE',  #69 ) ;
#125 = PRODUCT_RELATED_PRODUCT_CATEGORY ( 'detail', '', ( #219 ) ) ;
#126 = APPROVAL_ROLE ( '' ) ;
#127 = APPROVAL_DATE_TIME ( #163, #107 ) ;
#128 = ORIENTED_EDGE ( 'NONE', *, *, #26, .T. ) ;
#129 = FACE_OUTER_BOUND ( 'NONE', #167, .T. ) ;
#130 = ORIENTED_EDGE ( 'NONE', *, *, #97, .F. ) ;
#131 = AXIS2_PLACEMENT_3D ( 'NONE', #210, #228, #192 ) ;
#132 = LINE ( 'NONE', #57, #80 ) ;
#133 = LOCAL_TIME ( 18, 49, 54.00000000000000000, #178 ) ;
#134 = DIRECTION ( 'NONE',  ( -1.000000000000000000, 0.000000000000000000, 0.000000000000000000 ) ) ;
#135 = CC_DESIGN_SECURITY_CLASSIFICATION ( #187, ( #65 ) ) ;
#136 = DIRECTION ( 'NONE',  ( 0.000000000000000000, 0.000000000000000000, 1.000000000000000000 ) ) ;
#137 = CC_DESIGN_PERSON_AND_ORGANIZATION_ASSIGNMENT ( #200, #72, ( #65 ) ) ;
#138 =( NAMED_UNIT ( * ) SI_UNIT ( $, .STERADIAN. ) SOLID_ANGLE_UNIT ( ) );
#139 = APPLICATION_CONTEXT ( 'configuration controlled 3d designs of mechanical parts and assemblies' ) ;
#140 = UNCERTAINTY_MEASURE_WITH_UNIT (LENGTH_MEASURE( 1.000000000000000082E-05 ), #141, 'distance_accuracy_value', 'NONE');
#141 =( LENGTH_UNIT ( ) NAMED_UNIT ( * ) SI_UNIT ( .MILLI., .METRE. ) );
#142 = ORIENTED_EDGE ( 'NONE', *, *, #231, .T. ) ;
#143 = CARTESIAN_POINT ( 'NONE',  ( -0.07500112000000000445, -0.3999991999999999992, 0.000000000000000000 ) ) ;
#144 = ORIENTED_EDGE ( 'NONE', *, *, #172, .F. ) ;
#145 = COORDINATED_UNIVERSAL_TIME_OFFSET ( 10, 0, .AHEAD. ) ;
#146 = EDGE_LOOP ( 'NONE', ( #73, #185, #169, #95 ) ) ;
#147 = ORIENTED_EDGE ( 'NONE', *, *, #39, .T. ) ;
#148 = CALENDAR_DATE ( 2026, 22, 6 ) ;
#149 = PLANE ( 'NONE',  #53 ) ;
#150 = PERSON_AND_ORGANIZATION ( #18446744073709551615, #18446744073709551615 ) ;
#151 = CARTESIAN_POINT ( 'NONE',  ( -0.07500112000000000445, 0.3999991999999999992, 0.000000000000000000 ) ) ;
#152 = VERTEX_POINT ( 'NONE', #122 ) ;
#153 = CC_DESIGN_PERSON_AND_ORGANIZATION_ASSIGNMENT ( #110, #105, ( #49 ) ) ;
#154 = FACE_OUTER_BOUND ( 'NONE', #68, .T. ) ;
#155 = PRODUCT_DEFINITION_SHAPE ( 'NONE', 'NONE',  #49 ) ;
#156 = CARTESIAN_POINT ( 'NONE',  ( 0.000000000000000000, 0.000000000000000000, 0.000000000000000000 ) ) ;
#157 = CARTESIAN_POINT ( 'NONE',  ( -0.07500112000000000445, -0.3999991999999999992, 0.9000007399999999658 ) ) ;
#158 = PLANE ( 'NONE',  #131 ) ;
#159 = EDGE_CURVE ( 'NONE', #7, #106, #162, .T. ) ;
#160 = VECTOR ( 'NONE', #21, 1000.000000000000000 ) ;
#161 = FACE_OUTER_BOUND ( 'NONE', #59, .T. ) ;
#162 = LINE ( 'NONE', #143, #90 ) ;
#163 = DATE_AND_TIME ( #74, #96 ) ;
#164 = PERSON_AND_ORGANIZATION ( #18446744073709551615, #18446744073709551615 ) ;
#165 = CARTESIAN_POINT ( 'NONE',  ( 0.07500112000001001034, 0.3999991999999999992, 0.000000000000000000 ) ) ;
#166 = VECTOR ( 'NONE', #201, 1000.000000000000000 ) ;
#167 = EDGE_LOOP ( 'NONE', ( #193, #91, #94, #198 ) ) ;
#168 = DIRECTION ( 'NONE',  ( 0.000000000000000000, 0.000000000000000000, 1.000000000000000000 ) ) ;
#169 = ORIENTED_EDGE ( 'NONE', *, *, #159, .F. ) ;
#170 = LOCAL_TIME ( 18, 49, 54.00000000000000000, #19 ) ;
#171 = ORIENTED_EDGE ( 'NONE', *, *, #13, .F. ) ;
#172 = EDGE_CURVE ( 'NONE', #70, #106, #232, .T. ) ;
#173 = APPLICATION_PROTOCOL_DEFINITION ( 'international standard', 'config_control_design', 1994, #71 ) ;
#174 = ADVANCED_FACE ( 'NONE', ( #161 ), #158, .T. ) ;
#175 = CARTESIAN_POINT ( 'NONE',  ( 0.07500112000001001034, -0.3999991999999999992, 0.9000007399999999658 ) ) ;
#176 = DIRECTION ( 'NONE',  ( 0.000000000000000000, -1.000000000000000000, 0.000000000000000000 ) ) ;
#177 = COORDINATED_UNIVERSAL_TIME_OFFSET ( 10, 0, .AHEAD. ) ;
#178 = COORDINATED_UNIVERSAL_TIME_OFFSET ( 10, 0, .AHEAD. ) ;
#179 = CC_DESIGN_APPROVAL ( #15, ( #187 ) ) ;
#180 = DATE_TIME_ROLE ( 'classification_date' ) ;
#181 = CARTESIAN_POINT ( 'NONE',  ( -0.07500112000000000445, -0.3999991999999999992, 0.000000000000000000 ) ) ;
#182 = DATE_TIME_ROLE ( 'creation_date' ) ;
#183 = CARTESIAN_POINT ( 'NONE',  ( 0.07500112000001001034, 0.3999991999999999992, 0.000000000000000000 ) ) ;
#184 = LINE ( 'NONE', #204, #160 ) ;
#185 = ORIENTED_EDGE ( 'NONE', *, *, #172, .T. ) ;
#186 = CARTESIAN_POINT ( 'NONE',  ( 0.07500112000001001034, 0.3999991999999999992, 0.9000007399999999658 ) ) ;
#187 = SECURITY_CLASSIFICATION ( '', '', #211 ) ;
#188 = ADVANCED_FACE ( 'NONE', ( #104 ), #31, .T. ) ;
#189 = PERSON_AND_ORGANIZATION_ROLE ( 'design_owner' ) ;
#190 = EDGE_CURVE ( 'NONE', #62, #220, #84, .T. ) ;
#191 = DIRECTION ( 'NONE',  ( 0.000000000000000000, 0.000000000000000000, 1.000000000000000000 ) ) ;
#192 = DIRECTION ( 'NONE',  ( 1.000000000000000000, 0.000000000000000000, 0.000000000000000000 ) ) ;
#193 = ORIENTED_EDGE ( 'NONE', *, *, #13, .T. ) ;
#194 = VECTOR ( 'NONE', #6, 1000.000000000000000 ) ;
#195 = LINE ( 'NONE', #99, #205 ) ;
#196 = ADVANCED_BREP_SHAPE_REPRESENTATION ( 'Extruded-6.step', ( #203, #223 ), #102 ) ;
#197 = DATE_AND_TIME ( #218, #8 ) ;
#198 = ORIENTED_EDGE ( 'NONE', *, *, #199, .T. ) ;
#199 = EDGE_CURVE ( 'NONE', #7, #51, #195, .T. ) ;
#200 = PERSON_AND_ORGANIZATION ( #18446744073709551615, #18446744073709551615 ) ;
#201 = DIRECTION ( 'NONE',  ( 0.000000000000000000, 0.000000000000000000, 1.000000000000000000 ) ) ;
#202 = ORIENTED_EDGE ( 'NONE', *, *, #103, .F. ) ;
#203 = MANIFOLD_SOLID_BREP ( 'Extruded[1]', #28 ) ;
#204 = CARTESIAN_POINT ( 'NONE',  ( -0.07500112000000000445, 0.3999991999999999992, 0.000000000000000000 ) ) ;
#205 = VECTOR ( 'NONE', #32, 1000.000000000000000 ) ;
#206 = LINE ( 'NONE', #43, #18 ) ;
#207 = LINE ( 'NONE', #111, #215 ) ;
#208 = MECHANICAL_CONTEXT ( 'NONE', #139, 'mechanical' ) ;
#209 =( NAMED_UNIT ( * ) PLANE_ANGLE_UNIT ( ) SI_UNIT ( $, .RADIAN. ) );
#210 = CARTESIAN_POINT ( 'NONE',  ( -0.07500112000000000445, 0.3999991999999999992, 0.000000000000000000 ) ) ;
#211 = SECURITY_CLASSIFICATION_LEVEL ( 'unclassified' ) ;
#212 = ADVANCED_FACE ( 'NONE', ( #83 ), #33, .F. ) ;
#213 = APPROVAL_STATUS ( 'not_yet_approved' ) ;
#214 = LINE ( 'NONE', #151, #166 ) ;
#215 = VECTOR ( 'NONE', #41, 1000.000000000000000 ) ;
#216 = APPROVAL_DATE_TIME ( #85, #15 ) ;
#217 = CARTESIAN_POINT ( 'NONE',  ( -0.07500112000000000445, -0.3999991999999999992, 0.9000007399999999658 ) ) ;
#218 = CALENDAR_DATE ( 2026, 22, 6 ) ;
#219 = PRODUCT ( 'Extruded-6.step', 'Extruded-6.step', '', ( #208 ) ) ;
#220 = VERTEX_POINT ( 'NONE', #9 ) ;
#221 = CC_DESIGN_DATE_AND_TIME_ASSIGNMENT ( #55, #182, ( #49 ) ) ;
#222 = ORIENTED_EDGE ( 'NONE', *, *, #63, .T. ) ;
#223 = AXIS2_PLACEMENT_3D ( 'NONE', #156, #136, #66 ) ;
#224 = EDGE_LOOP ( 'NONE', ( #233, #144, #202, #230 ) ) ;
#225 = AXIS2_PLACEMENT_3D ( 'NONE', #46, #176, #11 ) ;
#226 = DIRECTION ( 'NONE',  ( 0.000000000000000000, -1.000000000000000000, 0.000000000000000000 ) ) ;
#227 = DIRECTION ( 'NONE',  ( 0.000000000000000000, 1.000000000000000000, 0.000000000000000000 ) ) ;
#228 = DIRECTION ( 'NONE',  ( -0.000000000000000000, 1.000000000000000000, 0.000000000000000000 ) ) ;
#229 = DIRECTION ( 'NONE',  ( 0.000000000000000000, 0.000000000000000000, -1.000000000000000000 ) ) ;
#230 = ORIENTED_EDGE ( 'NONE', *, *, #39, .F. ) ;
#231 = EDGE_CURVE ( 'NONE', #106, #152, #30, .T. ) ;
#232 = LINE ( 'NONE', #175, #119 ) ;
#233 = ORIENTED_EDGE ( 'NONE', *, *, #231, .F. ) ;
#234 = DATE_AND_TIME ( #16, #117 ) ;
#235 = VECTOR ( 'NONE', #227, 1000.000000000000000 ) ;
ENDSEC;
END-ISO-10303-21;
