ISO-10303-21;
HEADER;
FILE_DESCRIPTION (( 'STEP AP203' ),
    '1' );
FILE_NAME ('Final.STEP',
    '2026-06-22T08:50:34',
    ( 'localuser' ),
    ( '' ),
    'SwSTEP 2.0',
    'SolidWorks 2025',
    '' );
FILE_SCHEMA (( 'CONFIG_CONTROL_DESIGN' ));
ENDSEC;

DATA;
#1 = PERSON_AND_ORGANIZATION ( #18446744073709551615, #18446744073709551615 ) ;
#2 = APPROVAL_DATE_TIME ( #42, #218 ) ;
#3 = APPROVAL_DATE_TIME ( #250, #308 ) ;
#4 = APPROVAL_ROLE ( '' ) ;
#5 = APPROVAL_PERSON_ORGANIZATION ( #12, #104, #375 ) ;
#6 = DIRECTION ( 'NONE',  ( 0.000000000000000000, 0.000000000000000000, 1.000000000000000000 ) ) ;
#7 = CC_DESIGN_APPROVAL ( #118, ( #159 ) ) ;
#8 = PROPERTY_DEFINITION_REPRESENTATION ( #279, #105 ) ;
#9 = CC_DESIGN_PERSON_AND_ORGANIZATION_ASSIGNMENT ( #385, #458, ( #240 ) ) ;
#10 = PERSON_AND_ORGANIZATION_ROLE ( 'design_supplier' ) ;
#11 = DATE_TIME_ROLE ( 'classification_date' ) ;
#12 = PERSON_AND_ORGANIZATION ( #18446744073709551615, #18446744073709551615 ) ;
#13 = PROPERTY_DEFINITION ('external definition','', #311 ) ;
#14 = DIRECTION ( 'NONE',  ( -0.005086201059429861469, -0.9999870651957369905, -1.626476731075854016E-14 ) ) ;
#15 = DATE_AND_TIME ( #256, #456 ) ;
#16 = APPROVAL_DATE_TIME ( #464, #195 ) ;
#17 = CC_DESIGN_DATE_AND_TIME_ASSIGNMENT ( #108, #27, ( #30 ) ) ;
#18 = ITEM_DEFINED_TRANSFORMATION ( 'NONE', 'NONE', #158,  #481 ) ;
#19 = PERSON_AND_ORGANIZATION_ROLE ( 'creator' ) ;
#20 = DIRECTION ( 'NONE',  ( 1.000000000000000000, 0.000000000000000000, 0.000000000000000000 ) ) ;
#21 = CALENDAR_DATE ( 2026, 22, 6 ) ;
#22 = PERSON_AND_ORGANIZATION ( #316, #263 ) ;
#23 = LOCAL_TIME ( 18, 50, 34.00000000000000000, #207 ) ;
#24 = CC_DESIGN_PERSON_AND_ORGANIZATION_ASSIGNMENT ( #248, #37, ( #159 ) ) ;
#25 = LOCAL_TIME ( 18, 50, 34.00000000000000000, #47 ) ;
#26 = OBJECT_ROLE ('mandatory',$ ) ;
#27 = DATE_TIME_ROLE ( 'classification_date' ) ;
#28 = APPROVAL_STATUS ( 'not_yet_approved' ) ;
#29 = CC_DESIGN_DATE_AND_TIME_ASSIGNMENT ( #84, #327, ( #94 ) ) ;
#30 = SECURITY_CLASSIFICATION ( '', '', #500 ) ;
#31 = MECHANICAL_CONTEXT ( 'NONE', #504, 'mechanical' ) ;
#32 = LOCAL_TIME ( 18, 50, 34.00000000000000000, #209 ) ;
#33 = DIRECTION ( 'NONE',  ( 0.005086201059429244775, 0.9999870651957368795, 1.593170040337099636E-14 ) ) ;
#34 = PRODUCT_RELATED_PRODUCT_CATEGORY ( 'detail', '', ( #314 ) ) ;
#35 = APPROVAL_DATE_TIME ( #163, #156 ) ;
#36 = LOCAL_TIME ( 18, 50, 34.00000000000000000, #211 ) ;
#37 = PERSON_AND_ORGANIZATION_ROLE ( 'classification_officer' ) ;
#38 = PERSON_AND_ORGANIZATION ( #18446744073709551615, #18446744073709551615 ) ;
#39 = SHAPE_REPRESENTATION ( 'Hull_v5', ( #445 ), #435 ) ;
#40 = COORDINATED_UNIVERSAL_TIME_OFFSET ( 10, 0, .AHEAD. ) ;
#41 = CC_DESIGN_DATE_AND_TIME_ASSIGNMENT ( #255, #56, ( #427 ) ) ;
#42 = DATE_AND_TIME ( #129, #284 ) ;
#43 = APPLICATION_PROTOCOL_DEFINITION ( 'international standard', 'config_control_design', 1994, #343 ) ;
#44 = LOCAL_TIME ( 18, 50, 34.00000000000000000, #286 ) ;
#45 =( NAMED_UNIT ( * ) PLANE_ANGLE_UNIT ( ) SI_UNIT ( $, .RADIAN. ) );
#46 = PROPERTY_DEFINITION ('external definition','', #359 ) ;
#47 = COORDINATED_UNIVERSAL_TIME_OFFSET ( 10, 0, .AHEAD. ) ;
#48 = PERSON_AND_ORGANIZATION ( #18446744073709551615, #18446744073709551615 ) ;
#49 =( NAMED_UNIT ( * ) PLANE_ANGLE_UNIT ( ) SI_UNIT ( $, .RADIAN. ) );
#50 = PROPERTY_DEFINITION_REPRESENTATION ( #59, #269 ) ;
#51 = CC_DESIGN_PERSON_AND_ORGANIZATION_ASSIGNMENT ( #140, #135, ( #427 ) ) ;
#52 = CALENDAR_DATE ( 2026, 22, 6 ) ;
#53 = EXTERNAL_SOURCE (IDENTIFIER('') ) ;
#54 = DIRECTION ( 'NONE',  ( 0.000000000000000000, 0.000000000000000000, 1.000000000000000000 ) ) ;
#55 = APPROVAL_DATE_TIME ( #15, #229 ) ;
#56 = DATE_TIME_ROLE ( 'creation_date' ) ;
#57 = APPROVAL_PERSON_ORGANIZATION ( #485, #195, #161 ) ;
#58 = SECURITY_CLASSIFICATION_LEVEL ( 'unclassified' ) ;
#59 = PROPERTY_DEFINITION ('document property','', #311 ) ;
#60 = PERSON_AND_ORGANIZATION_ROLE ( 'classification_officer' ) ;
#61 = DATE_AND_TIME ( #457, #412 ) ;
#62 = CC_DESIGN_PERSON_AND_ORGANIZATION_ASSIGNMENT ( #38, #10, ( #277 ) ) ;
#63 = PROPERTY_DEFINITION_REPRESENTATION ( #490, #39 ) ;
#64 = DESIGN_CONTEXT ( 'detailed design', #484, 'design' ) ;
#65 = CC_DESIGN_SECURITY_CLASSIFICATION ( #503, ( #240 ) ) ;
#66 = COORDINATED_UNIVERSAL_TIME_OFFSET ( 10, 0, .AHEAD. ) ;
#67 = PRODUCT_RELATED_PRODUCT_CATEGORY ( 'detail', '', ( #401 ) ) ;
#68 = PERSON_AND_ORGANIZATION ( #18446744073709551615, #18446744073709551615 ) ;
#69 = APPROVAL_STATUS ( 'not_yet_approved' ) ;
#70 = EXTERNAL_SOURCE (IDENTIFIER('') ) ;
#71 = APPROVAL_PERSON_ORGANIZATION ( #348, #247, #272 ) ;
#72 = PROPERTY_DEFINITION ('external definition','', #242 ) ;
#73 = CALENDAR_DATE ( 2026, 22, 6 ) ;
#74 = APPLIED_EXTERNAL_IDENTIFICATION_ASSIGNMENT ( 'BuoyancyHandle-cover.STEP' , #355, #265,( #359) ) ;
#75 = APPROVAL ( #179, 'Coincident' ) ;
#76 = PRODUCT_DEFINITION_SHAPE ( 'NONE', 'NONE',  #517 ) ;
#77 = PERSON_AND_ORGANIZATION ( #18446744073709551615, #18446744073709551615 ) ;
#78 = APPROVAL_ROLE ( '' ) ;
#79 = COORDINATED_UNIVERSAL_TIME_OFFSET ( 10, 0, .AHEAD. ) ;
#80 = LOCAL_TIME ( 18, 50, 34.00000000000000000, #154 ) ;
#81 = CC_DESIGN_APPROVAL ( #75, ( #240 ) ) ;
#82 = PROPERTY_DEFINITION ('external definition','', #339 ) ;
#83 = APPLIED_DOCUMENT_REFERENCE ( #359,'',( #94) ) ;
#84 = DATE_AND_TIME ( #354, #152 ) ;
#85 = CC_DESIGN_PERSON_AND_ORGANIZATION_ASSIGNMENT ( #48, #447, ( #94 ) ) ;
#86 = DIRECTION ( 'NONE',  ( 1.000000000000000000, 0.000000000000000000, 0.000000000000000000 ) ) ;
#87 = DATE_AND_TIME ( #455, #426 ) ;
#88 = PERSON_AND_ORGANIZATION ( #18446744073709551615, #18446744073709551615 ) ;
#89 = CARTESIAN_POINT ( 'NONE',  ( 0.000000000000000000, 0.000000000000000000, 0.000000000000000000 ) ) ;
#90 = CALENDAR_DATE ( 2026, 22, 6 ) ;
#91 = DATE_AND_TIME ( #515, #475 ) ;
#92 = AXIS2_PLACEMENT_3D ( 'NONE', #378, #177, #495 ) ;
#93 = APPLIED_EXTERNAL_IDENTIFICATION_ASSIGNMENT ( 'BuoyancyHandle-cover.STEP' , #388, #53,( #339) ) ;
#94 = PRODUCT_DEFINITION ( 'General', '', #468, #511 ) ;
#95 = APPROVAL_DATE_TIME ( #87, #389 ) ;
#96 = APPROVAL_ROLE ( '' ) ;
#97 = SECURITY_CLASSIFICATION_LEVEL ( 'unclassified' ) ;
#98 = PROPERTY_DEFINITION_REPRESENTATION ( #82, #105 ) ;
#99 = PERSON_AND_ORGANIZATION ( #18446744073709551615, #18446744073709551615 ) ;
#100 =( GEOMETRIC_REPRESENTATION_CONTEXT ( 3 ) GLOBAL_UNCERTAINTY_ASSIGNED_CONTEXT ( ( #438 ) ) GLOBAL_UNIT_ASSIGNED_CONTEXT ( ( #392, #157, #234 ) ) REPRESENTATION_CONTEXT ( 'NONE', 'WORKASPACE' ) );
#101 = ORGANIZATION ( 'NAUO-ORG546', 'UNSPECIFIED', 'UNSPECIFIED' ) ;
#102 = IDENTIFICATION_ROLE ( 'external document id and location', $) ;
#103 = SECURITY_CLASSIFICATION_LEVEL ( 'unclassified' ) ;
#104 = APPROVAL ( #421, 'Coincident' ) ;
#105 = SHAPE_REPRESENTATION ( 'BuoyancyHandle-cover', ( #481 ), #147 ) ;
#106 = UNCERTAINTY_MEASURE_WITH_UNIT (LENGTH_MEASURE( 1.000000000000000082E-05 ), #215, 'distance_accuracy_value', 'NONE');
#107 = CALENDAR_DATE ( 2026, 22, 6 ) ;
#108 = DATE_AND_TIME ( #395, #80 ) ;
#109 = CC_DESIGN_PERSON_AND_ORGANIZATION_ASSIGNMENT ( #446, #205, ( #138 ) ) ;
#110 = SECURITY_CLASSIFICATION ( '', '', #122 ) ;
#111 = LOCAL_TIME ( 18, 50, 34.00000000000000000, #40 ) ;
#112 = CARTESIAN_POINT ( 'NONE',  ( 0.000000000000000000, 0.000000000000000000, 0.000000000000000000 ) ) ;
#113 = APPROVAL_DATE_TIME ( #434, #436 ) ;
#114 = APPROVAL_ROLE ( '' ) ;
#115 = AXIS2_PLACEMENT_3D ( 'NONE', #128, #212, #14 ) ;
#116 = APPROVAL_PERSON_ORGANIZATION ( #139, #229, #148 ) ;
#117 = PERSON_AND_ORGANIZATION ( #18446744073709551615, #18446744073709551615 ) ;
#118 = APPROVAL ( #416, 'UNKNOWN' ) ;
#119 =( REPRESENTATION_RELATIONSHIP ('NONE','NONE', #366, #269 ) REPRESENTATION_RELATIONSHIP_WITH_TRANSFORMATION ( #174 )SHAPE_REPRESENTATION_RELATIONSHIP( ) );
#120 = PERSON_AND_ORGANIZATION_ROLE ( 'creator' ) ;
#121 = APPROVAL_STATUS ( 'not_yet_approved' ) ;
#122 = SECURITY_CLASSIFICATION_LEVEL ( 'unclassified' ) ;
#123 = CONTEXT_DEPENDENT_SHAPE_REPRESENTATION ( #347, #155 ) ;
#124 = APPROVAL ( #190, 'Coincident' ) ;
#125 = APPROVAL_STATUS ( 'not_yet_approved' ) ;
#126 = LOCAL_TIME ( 18, 50, 34.00000000000000000, #79 ) ;
#127 = PRODUCT ( 'Hull_v5', 'Hull_v5', '', ( #31 ) ) ;
#128 = CARTESIAN_POINT ( 'NONE',  ( -71.59075889116428471, 0.03834172479324354788, -50.28060197648242280 ) ) ;
#129 = CALENDAR_DATE ( 2026, 22, 6 ) ;
#130 = APPROVAL_STATUS ( 'not_yet_approved' ) ;
#131 = PERSON_AND_ORGANIZATION ( #18446744073709551615, #18446744073709551615 ) ;
#132 = CALENDAR_DATE ( 2026, 22, 6 ) ;
#133 = PERSON_AND_ORGANIZATION ( #18446744073709551615, #18446744073709551615 ) ;
#134 = SECURITY_CLASSIFICATION_LEVEL ( 'unclassified' ) ;
#135 = PERSON_AND_ORGANIZATION_ROLE ( 'creator' ) ;
#136 = AXIS2_PLACEMENT_3D ( 'NONE', #253, #415, #422 ) ;
#137 = CC_DESIGN_DATE_AND_TIME_ASSIGNMENT ( #189, #386, ( #482 ) ) ;
#138 = SECURITY_CLASSIFICATION ( '', '', #134 ) ;
#139 = PERSON_AND_ORGANIZATION ( #143, #278 ) ;
#140 = PERSON_AND_ORGANIZATION ( #18446744073709551615, #18446744073709551615 ) ;
#141 = APPROVAL_DATE_TIME ( #296, #164 ) ;
#142 = APPROVAL_DATE_TIME ( #61, #430 ) ;
#143 = PERSON ( 'NAUO-PER547', 'UNSPECIFIED', 'UNSPECIFIED', ('UNSPECIFIED'), ('UNSPECIFIED'), ('UNSPECIFIED') ) ;
#144 = PERSON_AND_ORGANIZATION ( #18446744073709551615, #18446744073709551615 ) ;
#145 = CC_DESIGN_DATE_AND_TIME_ASSIGNMENT ( #171, #423, ( #382 ) ) ;
#146 = PERSON_AND_ORGANIZATION ( #18446744073709551615, #18446744073709551615 ) ;
#147 =( GEOMETRIC_REPRESENTATION_CONTEXT ( 3 ) GLOBAL_UNCERTAINTY_ASSIGNED_CONTEXT ( ( #273 ) ) GLOBAL_UNIT_ASSIGNED_CONTEXT ( ( #328, #49, #244 ) ) REPRESENTATION_CONTEXT ( 'NONE', 'WORKASPACE' ) );
#148 = APPROVAL_ROLE ( '' ) ;
#149 = APPROVAL_PERSON_ORGANIZATION ( #22, #164, #178 ) ;
#150 = PRODUCT_RELATED_PRODUCT_CATEGORY ( 'detail', '', ( #127 ) ) ;
#151 = CALENDAR_DATE ( 2026, 22, 6 ) ;
#152 = LOCAL_TIME ( 18, 50, 34.00000000000000000, #290 ) ;
#153 = CC_DESIGN_APPROVAL ( #218, ( #503 ) ) ;
#154 = COORDINATED_UNIVERSAL_TIME_OFFSET ( 10, 0, .AHEAD. ) ;
#155 = PRODUCT_DEFINITION_SHAPE ( 'NONE', 'NONE',  #518 ) ;
#156 = APPROVAL ( #409, 'Coincident' ) ;
#157 =( NAMED_UNIT ( * ) PLANE_ANGLE_UNIT ( ) SI_UNIT ( $, .RADIAN. ) );
#158 = AXIS2_PLACEMENT_3D ( 'NONE', #309, #513, #33 ) ;
#159 = SECURITY_CLASSIFICATION ( '', '', #254 ) ;
#160 = PROPERTY_DEFINITION ('document property','', #339 ) ;
#161 = APPROVAL_ROLE ( '' ) ;
#162 = COORDINATED_UNIVERSAL_TIME_OFFSET ( 10, 0, .AHEAD. ) ;
#163 = DATE_AND_TIME ( #361, #111 ) ;
#164 = APPROVAL ( #216, 'UNKNOWN' ) ;
#165 = DATE_AND_TIME ( #318, #180 ) ;
#166 = APPROVAL_DATE_TIME ( #358, #274 ) ;
#167 = COORDINATED_UNIVERSAL_TIME_OFFSET ( 10, 0, .AHEAD. ) ;
#168 = APPROVAL_STATUS ( 'not_yet_approved' ) ;
#169 = LOCAL_TIME ( 18, 50, 34.00000000000000000, #420 ) ;
#170 =( NAMED_UNIT ( * ) SI_UNIT ( $, .STERADIAN. ) SOLID_ANGLE_UNIT ( ) );
#171 = DATE_AND_TIME ( #245, #25 ) ;
#172 = APPROVAL_STATUS ( 'not_yet_approved' ) ;
#173 = CARTESIAN_POINT ( 'NONE',  ( 0.000000000000000000, 0.000000000000000000, 0.000000000000000000 ) ) ;
#174 = ITEM_DEFINED_TRANSFORMATION ( 'NONE', 'NONE', #136,  #270 ) ;
#175 = PERSON_AND_ORGANIZATION ( #18446744073709551615, #18446744073709551615 ) ;
#176 = CC_DESIGN_PERSON_AND_ORGANIZATION_ASSIGNMENT ( #322, #330, ( #401 ) ) ;
#177 = DIRECTION ( 'NONE',  ( 1.000000000000000000, 1.047444401652925334E-14, 1.047444401652940007E-14 ) ) ;
#178 = APPROVAL_ROLE ( '' ) ;
#179 = APPROVAL_STATUS ( 'not_yet_approved' ) ;
#180 = LOCAL_TIME ( 18, 50, 34.00000000000000000, #162 ) ;
#181 = PERSON_AND_ORGANIZATION_ROLE ( 'classification_officer' ) ;
#182 = APPROVAL_DATE_TIME ( #381, #104 ) ;
#183 = CC_DESIGN_DATE_AND_TIME_ASSIGNMENT ( #341, #419, ( #223 ) ) ;
#184 = CONTEXT_DEPENDENT_SHAPE_REPRESENTATION ( #439, #288 ) ;
#185 = COORDINATED_UNIVERSAL_TIME_OFFSET ( 10, 0, .AHEAD. ) ;
#186 = OBJECT_ROLE ('mandatory',$ ) ;
#187 = LOCAL_TIME ( 18, 50, 34.00000000000000000, #196 ) ;
#188 = LOCAL_TIME ( 18, 50, 34.00000000000000000, #185 ) ;
#189 = DATE_AND_TIME ( #383, #307 ) ;
#190 = APPROVAL_STATUS ( 'not_yet_approved' ) ;
#191 = DATE_TIME_ROLE ( 'creation_date' ) ;
#192 = CC_DESIGN_APPROVAL ( #195, ( #468 ) ) ;
#193 = CC_DESIGN_APPROVAL ( #430, ( #223 ) ) ;
#194 = PERSON_AND_ORGANIZATION ( #18446744073709551615, #18446744073709551615 ) ;
#195 = APPROVAL ( #130, 'Coincident' ) ;
#196 = COORDINATED_UNIVERSAL_TIME_OFFSET ( 10, 0, .AHEAD. ) ;
#197 = PERSON_AND_ORGANIZATION ( #18446744073709551615, #18446744073709551615 ) ;
#198 = CC_DESIGN_APPROVAL ( #389, ( #138 ) ) ;
#199 = PERSON_AND_ORGANIZATION ( #18446744073709551615, #18446744073709551615 ) ;
#200 = CC_DESIGN_PERSON_AND_ORGANIZATION_ASSIGNMENT ( #194, #351, ( #127 ) ) ;
#201 = COORDINATED_UNIVERSAL_TIME_OFFSET ( 10, 0, .AHEAD. ) ;
#202 = DATE_AND_TIME ( #243, #44 ) ;
#203 = DATE_AND_TIME ( #321, #32 ) ;
#204 = COORDINATED_UNIVERSAL_TIME_OFFSET ( 10, 0, .AHEAD. ) ;
#205 = PERSON_AND_ORGANIZATION_ROLE ( 'classification_officer' ) ;
#206 = APPROVAL_PERSON_ORGANIZATION ( #431, #436, #472 ) ;
#207 = COORDINATED_UNIVERSAL_TIME_OFFSET ( 10, 0, .AHEAD. ) ;
#208 = APPROVAL_PERSON_ORGANIZATION ( #214, #75, #499 ) ;
#209 = COORDINATED_UNIVERSAL_TIME_OFFSET ( 10, 0, .AHEAD. ) ;
#210 = CC_DESIGN_DATE_AND_TIME_ASSIGNMENT ( #213, #364, ( #503 ) ) ;
#211 = COORDINATED_UNIVERSAL_TIME_OFFSET ( 10, 0, .AHEAD. ) ;
#212 = DIRECTION ( 'NONE',  ( 1.132358860081726002E-14, 1.620738290174596588E-14, -1.000000000000000000 ) ) ;
#213 = DATE_AND_TIME ( #329, #251 ) ;
#214 = PERSON_AND_ORGANIZATION ( #18446744073709551615, #18446744073709551615 ) ;
#215 =( LENGTH_UNIT ( ) NAMED_UNIT ( * ) SI_UNIT ( .MILLI., .METRE. ) );
#216 = APPROVAL_STATUS ( 'not_yet_approved' ) ;
#217 = PERSON_AND_ORGANIZATION ( #18446744073709551615, #18446744073709551615 ) ;
#218 = APPROVAL ( #121, 'Coincident' ) ;
#219 = DIRECTION ( 'NONE',  ( 1.000000000000000000, 0.000000000000000000, 0.000000000000000000 ) ) ;
#220 = DATE_AND_TIME ( #497, #357 ) ;
#221 = PERSON_AND_ORGANIZATION_ROLE ( 'design_owner' ) ;
#222 = CC_DESIGN_APPROVAL ( #124, ( #30 ) ) ;
#223 = SECURITY_CLASSIFICATION ( '', '', #103 ) ;
#224 = PROPERTY_DEFINITION_REPRESENTATION ( #160, #105 ) ;
#225 = CC_DESIGN_PERSON_AND_ORGANIZATION_ASSIGNMENT ( #68, #467, ( #30 ) ) ;
#226 = CALENDAR_DATE ( 2026, 22, 6 ) ;
#227 = APPROVAL_DATE_TIME ( #474, #124 ) ;
#228 = COORDINATED_UNIVERSAL_TIME_OFFSET ( 10, 0, .AHEAD. ) ;
#229 = APPROVAL ( #483, 'UNKNOWN' ) ;
#230 = LOCAL_TIME ( 18, 50, 34.00000000000000000, #66 ) ;
#231 = PRODUCT_DEFINITION_SHAPE ( 'NONE', 'NONE',  #427 ) ;
#232 = CC_DESIGN_SECURITY_CLASSIFICATION ( #138, ( #517 ) ) ;
#233 = PERSON_AND_ORGANIZATION_ROLE ( 'creator' ) ;
#234 =( NAMED_UNIT ( * ) SI_UNIT ( $, .STERADIAN. ) SOLID_ANGLE_UNIT ( ) );
#235 = PRODUCT_DEFINITION_SHAPE ( 'NONE', 'NONE',  #353 ) ;
#236 = CC_DESIGN_PERSON_AND_ORGANIZATION_ASSIGNMENT ( #199, #120, ( #277 ) ) ;
#237 = PERSON_AND_ORGANIZATION ( #18446744073709551615, #18446744073709551615 ) ;
#238 = DATE_TIME_ROLE ( 'classification_date' ) ;
#239 = CC_DESIGN_APPROVAL ( #436, ( #353 ) ) ;
#240 = PRODUCT_DEFINITION_FORMATION_WITH_SPECIFIED_SOURCE ( 'Symmetric', '', #331, .NOT_KNOWN. ) ;
#241 = DATE_TIME_ROLE ( 'classification_date' ) ;
#242 = DOCUMENT_FILE ( 'Hull_v5.STEP' , '', '', #298, '' ,$ ) ;
#243 = CALENDAR_DATE ( 2026, 22, 6 ) ;
#244 =( NAMED_UNIT ( * ) SI_UNIT ( $, .STERADIAN. ) SOLID_ANGLE_UNIT ( ) );
#245 = CALENDAR_DATE ( 2026, 22, 6 ) ;
#246 = PERSON_AND_ORGANIZATION ( #18446744073709551615, #18446744073709551615 ) ;
#247 = APPROVAL ( #69, 'Coincident' ) ;
#248 = PERSON_AND_ORGANIZATION ( #360, #101 ) ;
#249 = LOCAL_TIME ( 18, 50, 34.00000000000000000, #452 ) ;
#250 = DATE_AND_TIME ( #281, #249 ) ;
#251 = LOCAL_TIME ( 18, 50, 34.00000000000000000, #408 ) ;
#252 = OBJECT_ROLE ('mandatory',$ ) ;
#253 = CARTESIAN_POINT ( 'NONE',  ( -67.09081709778338620, 0.01545382002485413443, 1.719398023517705543 ) ) ;
#254 = SECURITY_CLASSIFICATION_LEVEL ( 'unclassified' ) ;
#255 = DATE_AND_TIME ( #52, #188 ) ;
#256 = CALENDAR_DATE ( 2026, 22, 6 ) ;
#257 = PRODUCT_RELATED_PRODUCT_CATEGORY ( 'detail', '', ( #331 ) ) ;
#258 = PERSON_AND_ORGANIZATION_ROLE ( 'classification_officer' ) ;
#259 = PERSON ( 'NAUO-PER545', 'UNSPECIFIED', 'UNSPECIFIED', ('UNSPECIFIED'), ('UNSPECIFIED'), ('UNSPECIFIED') ) ;
#260 =( LENGTH_UNIT ( ) NAMED_UNIT ( * ) SI_UNIT ( .MILLI., .METRE. ) );
#261 = APPLICATION_PROTOCOL_DEFINITION ( 'international standard', 'config_control_design', 1994, #512 ) ;
#262 = CC_DESIGN_APPROVAL ( #156, ( #498 ) ) ;
#263 = ORGANIZATION ( 'NAUO-ORG548', 'UNSPECIFIED', 'UNSPECIFIED' ) ;
#264 = PERSON_AND_ORGANIZATION ( #18446744073709551615, #18446744073709551615 ) ;
#265 = EXTERNAL_SOURCE (IDENTIFIER('') ) ;
#266 = APPLIED_DOCUMENT_REFERENCE ( #242,'',( #498) ) ;
#267 = CC_DESIGN_PERSON_AND_ORGANIZATION_ASSIGNMENT ( #117, #233, ( #353 ) ) ;
#268 = APPLIED_DOCUMENT_REFERENCE ( #339,'',( #94) ) ;
#269 = SHAPE_REPRESENTATION ( 'Wte_v5', ( #270 ), #301 ) ;
#270 = AXIS2_PLACEMENT_3D ( 'NONE', #450, #6, #20 ) ;
#271 = APPROVAL_PERSON_ORGANIZATION ( #217, #430, #96 ) ;
#272 = APPROVAL_ROLE ( '' ) ;
#273 = UNCERTAINTY_MEASURE_WITH_UNIT (LENGTH_MEASURE( 1.000000000000000082E-05 ), #328, 'distance_accuracy_value', 'NONE');
#274 = APPROVAL ( #168, 'Coincident' ) ;
#275 = COORDINATED_UNIVERSAL_TIME_OFFSET ( 10, 0, .AHEAD. ) ;
#276 = PERSON_AND_ORGANIZATION_ROLE ( 'design_owner' ) ;
#277 = PRODUCT_DEFINITION_FORMATION_WITH_SPECIFIED_SOURCE ( 'Symmetric', '', #127, .NOT_KNOWN. ) ;
#278 = ORGANIZATION ( 'NAUO-ORG547', 'UNSPECIFIED', 'UNSPECIFIED' ) ;
#279 = PROPERTY_DEFINITION ('document property','', #359 ) ;
#280 = APPLICATION_PROTOCOL_DEFINITION ( 'international standard', 'config_control_design', 1994, #516 ) ;
#281 = CALENDAR_DATE ( 2026, 22, 6 ) ;
#282 = CALENDAR_DATE ( 2026, 22, 6 ) ;
#283 = APPROVAL_PERSON_ORGANIZATION ( #319, #308, #398 ) ;
#284 = LOCAL_TIME ( 18, 50, 34.00000000000000000, #201 ) ;
#285 = DATE_AND_TIME ( #282, #23 ) ;
#286 = COORDINATED_UNIVERSAL_TIME_OFFSET ( 10, 0, .AHEAD. ) ;
#287 = CC_DESIGN_DATE_AND_TIME_ASSIGNMENT ( #203, #11, ( #138 ) ) ;
#288 = PRODUCT_DEFINITION_SHAPE ( 'NONE', 'NONE',  #520 ) ;
#289 = PROPERTY_DEFINITION_REPRESENTATION ( #13, #269 ) ;
#290 = COORDINATED_UNIVERSAL_TIME_OFFSET ( 10, 0, .AHEAD. ) ;
#291 = DESIGN_CONTEXT ( 'detailed design', #516, 'design' ) ;
#292 =( NAMED_UNIT ( * ) SI_UNIT ( $, .STERADIAN. ) SOLID_ANGLE_UNIT ( ) );
#293 = APPROVAL_STATUS ( 'not_yet_approved' ) ;
#294 = COORDINATED_UNIVERSAL_TIME_OFFSET ( 10, 0, .AHEAD. ) ;
#295 = CC_DESIGN_PERSON_AND_ORGANIZATION_ASSIGNMENT ( #88, #365, ( #110 ) ) ;
#296 = DATE_AND_TIME ( #107, #169 ) ;
#297 = CALENDAR_DATE ( 2026, 22, 6 ) ;
#298 = DOCUMENT_TYPE ( 'geometry' ) ;
#299 = COORDINATED_UNIVERSAL_TIME_OFFSET ( 10, 0, .AHEAD. ) ;
#300 = PERSON_AND_ORGANIZATION_ROLE ( 'design_supplier' ) ;
#301 =( GEOMETRIC_REPRESENTATION_CONTEXT ( 3 ) GLOBAL_UNCERTAINTY_ASSIGNED_CONTEXT ( ( #489 ) ) GLOBAL_UNIT_ASSIGNED_CONTEXT ( ( #260, #459, #292 ) ) REPRESENTATION_CONTEXT ( 'NONE', 'WORKASPACE' ) );
#302 = APPROVAL_PERSON_ORGANIZATION ( #248, #118, #78 ) ;
#303 = CC_DESIGN_PERSON_AND_ORGANIZATION_ASSIGNMENT ( #340, #221, ( #331 ) ) ;
#304 = APPLICATION_CONTEXT ( 'configuration controlled 3d designs of mechanical parts and assemblies' ) ;
#305 = DATE_AND_TIME ( #352, #312 ) ;
#306 = CC_DESIGN_APPROVAL ( #247, ( #454 ) ) ;
#307 = LOCAL_TIME ( 18, 50, 34.00000000000000000, #463 ) ;
#308 = APPROVAL ( #172, 'Coincident' ) ;
#309 = CARTESIAN_POINT ( 'NONE',  ( 31.40790882399739559, -0.4855369843280721298, -50.28060197648138541 ) ) ;
#310 =( REPRESENTATION_RELATIONSHIP ('NONE','NONE', #366, #39 ) REPRESENTATION_RELATIONSHIP_WITH_TRANSFORMATION ( #411 )SHAPE_REPRESENTATION_RELATIONSHIP( ) );
#311 = DOCUMENT_FILE ( 'Wte_v5.STEP' , '', '', #494, '' ,$ ) ;
#312 = LOCAL_TIME ( 18, 50, 34.00000000000000000, #228 ) ;
#313 = ORGANIZATION ( 'NAUO-ORG545', 'UNSPECIFIED', 'UNSPECIFIED' ) ;
#314 = PRODUCT ( 'Final', 'Final', '', ( #373 ) ) ;
#315 = COORDINATED_UNIVERSAL_TIME_OFFSET ( 10, 0, .AHEAD. ) ;
#316 = PERSON ( 'NAUO-PER548', 'UNSPECIFIED', 'UNSPECIFIED', ('UNSPECIFIED'), ('UNSPECIFIED'), ('UNSPECIFIED') ) ;
#317 = CC_DESIGN_PERSON_AND_ORGANIZATION_ASSIGNMENT ( #133, #276, ( #314 ) ) ;
#318 = CALENDAR_DATE ( 2026, 22, 6 ) ;
#319 = PERSON_AND_ORGANIZATION ( #18446744073709551615, #18446744073709551615 ) ;
#320 = PRODUCT_DEFINITION_SHAPE ( 'NONE', 'NONE',  #498 ) ;
#321 = CALENDAR_DATE ( 2026, 22, 6 ) ;
#322 = PERSON_AND_ORGANIZATION ( #18446744073709551615, #18446744073709551615 ) ;
#323 = SECURITY_CLASSIFICATION_LEVEL ( 'unclassified' ) ;
#324 = CC_DESIGN_DATE_AND_TIME_ASSIGNMENT ( #165, #238, ( #159 ) ) ;
#325 = CC_DESIGN_SECURITY_CLASSIFICATION ( #110, ( #277 ) ) ;
#326 = CC_DESIGN_SECURITY_CLASSIFICATION ( #223, ( #468 ) ) ;
#327 = DATE_TIME_ROLE ( 'creation_date' ) ;
#328 =( LENGTH_UNIT ( ) NAMED_UNIT ( * ) SI_UNIT ( .MILLI., .METRE. ) );
#329 = CALENDAR_DATE ( 2026, 22, 6 ) ;
#330 = PERSON_AND_ORGANIZATION_ROLE ( 'design_owner' ) ;
#331 = PRODUCT ( 'Wte_v5', 'Wte_v5', '', ( #493 ) ) ;
#332 = CONTEXT_DEPENDENT_SHAPE_REPRESENTATION ( #119, #76 ) ;
#333 = APPLICATION_PROTOCOL_DEFINITION ( 'international standard', 'config_control_design', 1994, #418 ) ;
#334 = CC_DESIGN_DATE_AND_TIME_ASSIGNMENT ( #390, #191, ( #353 ) ) ;
#335 = AXIS2_PLACEMENT_3D ( 'NONE', #112, #470, #469 ) ;
#336 = COORDINATED_UNIVERSAL_TIME_OFFSET ( 10, 0, .AHEAD. ) ;
#337 = APPLIED_EXTERNAL_IDENTIFICATION_ASSIGNMENT ( 'Wte_v5.STEP' , #384, #70,( #311) ) ;
#338 = DIRECTION ( 'NONE',  ( 0.000000000000000000, 0.000000000000000000, 1.000000000000000000 ) ) ;
#339 = DOCUMENT_FILE ( 'BuoyancyHandle-cover.STEP' , '', '', #506, '' ,$ ) ;
#340 = PERSON_AND_ORGANIZATION ( #18446744073709551615, #18446744073709551615 ) ;
#341 = DATE_AND_TIME ( #21, #465 ) ;
#342 = CC_DESIGN_PERSON_AND_ORGANIZATION_ASSIGNMENT ( #246, #444, ( #498 ) ) ;
#343 = APPLICATION_CONTEXT ( 'configuration controlled 3d designs of mechanical parts and assemblies' ) ;
#344 = CC_DESIGN_APPROVAL ( #308, ( #110 ) ) ;
#345 = APPROVAL_DATE_TIME ( #305, #247 ) ;
#346 = CC_DESIGN_PERSON_AND_ORGANIZATION_ASSIGNMENT ( #144, #397, ( #454 ) ) ;
#347 =( REPRESENTATION_RELATIONSHIP ('NONE','NONE', #366, #105 ) REPRESENTATION_RELATIONSHIP_WITH_TRANSFORMATION ( #451 )SHAPE_REPRESENTATION_RELATIONSHIP( ) );
#348 = PERSON_AND_ORGANIZATION ( #18446744073709551615, #18446744073709551615 ) ;
#349 = CC_DESIGN_APPROVAL ( #363, ( #94 ) ) ;
#350 = CC_DESIGN_SECURITY_CLASSIFICATION ( #382, ( #519 ) ) ;
#351 = PERSON_AND_ORGANIZATION_ROLE ( 'design_owner' ) ;
#352 = CALENDAR_DATE ( 2026, 22, 6 ) ;
#353 = PRODUCT_DEFINITION ( 'General', '', #454, #291 ) ;
#354 = CALENDAR_DATE ( 2026, 22, 6 ) ;
#355 = IDENTIFICATION_ROLE ( 'external document id and location', $) ;
#356 = APPROVAL_PERSON_ORGANIZATION ( #77, #274, #403 ) ;
#357 = LOCAL_TIME ( 18, 50, 34.00000000000000000, #336 ) ;
#358 = DATE_AND_TIME ( #132, #126 ) ;
#359 = DOCUMENT_FILE ( 'BuoyancyHandle-cover.STEP' , '', '', #407, '' ,$ ) ;
#360 = PERSON ( 'NAUO-PER546', 'UNSPECIFIED', 'UNSPECIFIED', ('UNSPECIFIED'), ('UNSPECIFIED'), ('UNSPECIFIED') ) ;
#361 = CALENDAR_DATE ( 2026, 22, 6 ) ;
#362 = PRODUCT_DEFINITION_SHAPE ( 'NONE', 'NONE',  #94 ) ;
#363 = APPROVAL ( #125, 'Coincident' ) ;
#364 = DATE_TIME_ROLE ( 'classification_date' ) ;
#365 = PERSON_AND_ORGANIZATION_ROLE ( 'classification_officer' ) ;
#366 = SHAPE_REPRESENTATION ( 'Final', ( #335, #136, #115, #92, #158 ), #100 ) ;
#367 = APPROVAL_PERSON_ORGANIZATION ( #237, #156, #406 ) ;
#368 = APPLIED_DOCUMENT_REFERENCE ( #311,'',( #427) ) ;
#369 = APPROVAL_PERSON_ORGANIZATION ( #131, #218, #402 ) ;
#370 = CC_DESIGN_SECURITY_CLASSIFICATION ( #482, ( #520 ) ) ;
#371 = APPROVAL_DATE_TIME ( #285, #363 ) ;
#372 = APPLICATION_CONTEXT ( 'configuration controlled 3d designs of mechanical parts and assemblies' ) ;
#373 = MECHANICAL_CONTEXT ( 'NONE', #304, 'mechanical' ) ;
#374 = COORDINATED_UNIVERSAL_TIME_OFFSET ( 10, 0, .AHEAD. ) ;
#375 = APPROVAL_ROLE ( '' ) ;
#376 = APPROVAL_ROLE ( '' ) ;
#377 = PERSON_AND_ORGANIZATION_ROLE ( 'creator' ) ;
#378 = CARTESIAN_POINT ( 'NONE',  ( -113.6178040213630709, 55.63606486731814016, 55.75671748660550975 ) ) ;
#379 = CONTEXT_DEPENDENT_SHAPE_REPRESENTATION ( #310, #440 ) ;
#380 = APPROVAL_PERSON_ORGANIZATION ( #514, #124, #114 ) ;
#381 = DATE_AND_TIME ( #297, #36 ) ;
#382 = SECURITY_CLASSIFICATION ( '', '', #323 ) ;
#383 = CALENDAR_DATE ( 2026, 22, 6 ) ;
#384 = IDENTIFICATION_ROLE ( 'external document id and location', $) ;
#385 = PERSON_AND_ORGANIZATION ( #18446744073709551615, #18446744073709551615 ) ;
#386 = DATE_TIME_ROLE ( 'classification_date' ) ;
#387 = CC_DESIGN_APPROVAL ( #164, ( #482 ) ) ;
#388 = IDENTIFICATION_ROLE ( 'external document id and location', $) ;
#389 = APPROVAL ( #293, 'UNKNOWN' ) ;
#390 = DATE_AND_TIME ( #73, #502 ) ;
#391 = SHAPE_DEFINITION_REPRESENTATION ( #235, #366 ) ;
#392 =( LENGTH_UNIT ( ) NAMED_UNIT ( * ) SI_UNIT ( .MILLI., .METRE. ) );
#393 = APPROVAL_PERSON_ORGANIZATION ( #1, #363, #4 ) ;
#394 = APPLIED_EXTERNAL_IDENTIFICATION_ASSIGNMENT ( 'Hull_v5.STEP' , #102, #462,( #242) ) ;
#395 = CALENDAR_DATE ( 2026, 22, 6 ) ;
#396 = CC_DESIGN_PERSON_AND_ORGANIZATION_ASSIGNMENT ( #146, #300, ( #468 ) ) ;
#397 = PERSON_AND_ORGANIZATION_ROLE ( 'creator' ) ;
#398 = APPROVAL_ROLE ( '' ) ;
#399 = CC_DESIGN_PERSON_AND_ORGANIZATION_ASSIGNMENT ( #264, #258, ( #223 ) ) ;
#400 = CC_DESIGN_SECURITY_CLASSIFICATION ( #159, ( #518 ) ) ;
#401 = PRODUCT ( 'BuoyancyHandle-cover', 'BuoyancyHandle-cover', '', ( #441 ) ) ;
#402 = APPROVAL_ROLE ( '' ) ;
#403 = APPROVAL_ROLE ( '' ) ;
#404 = CC_DESIGN_DATE_AND_TIME_ASSIGNMENT ( #202, #241, ( #110 ) ) ;
#405 = PROPERTY_DEFINITION_REPRESENTATION ( #46, #105 ) ;
#406 = APPROVAL_ROLE ( '' ) ;
#407 = DOCUMENT_TYPE ( 'geometry' ) ;
#408 = COORDINATED_UNIVERSAL_TIME_OFFSET ( 10, 0, .AHEAD. ) ;
#409 = APPROVAL_STATUS ( 'not_yet_approved' ) ;
#410 = CC_DESIGN_APPROVAL ( #274, ( #277 ) ) ;
#411 = ITEM_DEFINED_TRANSFORMATION ( 'NONE', 'NONE', #92,  #445 ) ;
#412 = LOCAL_TIME ( 18, 50, 34.00000000000000000, #294 ) ;
#413 = DATE_TIME_ROLE ( 'creation_date' ) ;
#414 = DESIGN_CONTEXT ( 'detailed design', #512, 'design' ) ;
#415 = DIRECTION ( 'NONE',  ( 0.9999870651957369905, -0.005086201059423008444, 1.041406293949671199E-14 ) ) ;
#416 = APPROVAL_STATUS ( 'not_yet_approved' ) ;
#417 = CC_DESIGN_DATE_AND_TIME_ASSIGNMENT ( #91, #413, ( #498 ) ) ;
#418 = APPLICATION_CONTEXT ( 'configuration controlled 3d designs of mechanical parts and assemblies' ) ;
#419 = DATE_TIME_ROLE ( 'classification_date' ) ;
#420 = COORDINATED_UNIVERSAL_TIME_OFFSET ( 10, 0, .AHEAD. ) ;
#421 = APPROVAL_STATUS ( 'not_yet_approved' ) ;
#422 = DIRECTION ( 'NONE',  ( -0.005086201059423008444, -0.9999870651957369905, -1.059538134483095930E-14 ) ) ;
#423 = DATE_TIME_ROLE ( 'classification_date' ) ;
#424 = LOCAL_TIME ( 18, 50, 34.00000000000000000, #315 ) ;
#425 = PERSON_AND_ORGANIZATION ( #18446744073709551615, #18446744073709551615 ) ;
#426 = LOCAL_TIME ( 18, 50, 34.00000000000000000, #374 ) ;
#427 = PRODUCT_DEFINITION ( 'General', '', #240, #414 ) ;
#428 = APPROVAL_STATUS ( 'not_yet_approved' ) ;
#429 = ROLE_ASSOCIATION ( #26, #268 ) ;
#430 = APPROVAL ( #428, 'Coincident' ) ;
#431 = PERSON_AND_ORGANIZATION ( #18446744073709551615, #18446744073709551615 ) ;
#432 = LOCAL_TIME ( 18, 50, 34.00000000000000000, #167 ) ;
#433 = PERSON_AND_ORGANIZATION_ROLE ( 'design_supplier' ) ;
#434 = DATE_AND_TIME ( #226, #230 ) ;
#435 =( GEOMETRIC_REPRESENTATION_CONTEXT ( 3 ) GLOBAL_UNCERTAINTY_ASSIGNED_CONTEXT ( ( #106 ) ) GLOBAL_UNIT_ASSIGNED_CONTEXT ( ( #215, #45, #170 ) ) REPRESENTATION_CONTEXT ( 'NONE', 'WORKASPACE' ) );
#436 = APPROVAL ( #28, 'Coincident' ) ;
#437 = CC_DESIGN_APPROVAL ( #229, ( #382 ) ) ;
#438 = UNCERTAINTY_MEASURE_WITH_UNIT (LENGTH_MEASURE( 1.000000000000000082E-05 ), #392, 'distance_accuracy_value', 'NONE');
#439 =( REPRESENTATION_RELATIONSHIP ('NONE','NONE', #366, #105 ) REPRESENTATION_RELATIONSHIP_WITH_TRANSFORMATION ( #18 )SHAPE_REPRESENTATION_RELATIONSHIP( ) );
#440 = PRODUCT_DEFINITION_SHAPE ( 'NONE', 'NONE',  #519 ) ;
#441 = MECHANICAL_CONTEXT ( 'NONE', #343, 'mechanical' ) ;
#442 = APPROVAL_DATE_TIME ( #479, #118 ) ;
#443 = CC_DESIGN_PERSON_AND_ORGANIZATION_ASSIGNMENT ( #197, #433, ( #454 ) ) ;
#444 = PERSON_AND_ORGANIZATION_ROLE ( 'creator' ) ;
#445 = AXIS2_PLACEMENT_3D ( 'NONE', #173, #54, #86 ) ;
#446 = PERSON_AND_ORGANIZATION ( #259, #313 ) ;
#447 = PERSON_AND_ORGANIZATION_ROLE ( 'creator' ) ;
#448 = SHAPE_DEFINITION_REPRESENTATION ( #231, #269 ) ;
#449 = APPLICATION_PROTOCOL_DEFINITION ( 'international standard', 'config_control_design', 1994, #484 ) ;
#450 = CARTESIAN_POINT ( 'NONE',  ( 0.000000000000000000, 0.000000000000000000, 0.000000000000000000 ) ) ;
#451 = ITEM_DEFINED_TRANSFORMATION ( 'NONE', 'NONE', #115,  #481 ) ;
#452 = COORDINATED_UNIVERSAL_TIME_OFFSET ( 10, 0, .AHEAD. ) ;
#453 = CC_DESIGN_PERSON_AND_ORGANIZATION_ASSIGNMENT ( #22, #181, ( #482 ) ) ;
#454 = PRODUCT_DEFINITION_FORMATION_WITH_SPECIFIED_SOURCE ( 'Symmetric', '', #314, .NOT_KNOWN. ) ;
#455 = CALENDAR_DATE ( 2026, 22, 6 ) ;
#456 = LOCAL_TIME ( 18, 50, 34.00000000000000000, #496 ) ;
#457 = CALENDAR_DATE ( 2026, 22, 6 ) ;
#458 = PERSON_AND_ORGANIZATION_ROLE ( 'design_supplier' ) ;
#459 =( NAMED_UNIT ( * ) PLANE_ANGLE_UNIT ( ) SI_UNIT ( $, .RADIAN. ) );
#460 = PROPERTY_DEFINITION_REPRESENTATION ( #72, #39 ) ;
#461 = SHAPE_DEFINITION_REPRESENTATION ( #362, #105 ) ;
#462 = EXTERNAL_SOURCE (IDENTIFIER('') ) ;
#463 = COORDINATED_UNIVERSAL_TIME_OFFSET ( 10, 0, .AHEAD. ) ;
#464 = DATE_AND_TIME ( #477, #424 ) ;
#465 = LOCAL_TIME ( 18, 50, 34.00000000000000000, #299 ) ;
#466 = ROLE_ASSOCIATION ( #473, #266 ) ;
#467 = PERSON_AND_ORGANIZATION_ROLE ( 'classification_officer' ) ;
#468 = PRODUCT_DEFINITION_FORMATION_WITH_SPECIFIED_SOURCE ( 'Symmetric', '', #401, .NOT_KNOWN. ) ;
#469 = DIRECTION ( 'NONE',  ( 1.000000000000000000, 0.000000000000000000, 0.000000000000000000 ) ) ;
#470 = DIRECTION ( 'NONE',  ( 0.000000000000000000, 0.000000000000000000, 1.000000000000000000 ) ) ;
#471 = CC_DESIGN_PERSON_AND_ORGANIZATION_ASSIGNMENT ( #139, #505, ( #382 ) ) ;
#472 = APPROVAL_ROLE ( '' ) ;
#473 = OBJECT_ROLE ('mandatory',$ ) ;
#474 = DATE_AND_TIME ( #151, #187 ) ;
#475 = LOCAL_TIME ( 18, 50, 34.00000000000000000, #204 ) ;
#476 = APPROVAL_PERSON_ORGANIZATION ( #446, #389, #376 ) ;
#477 = CALENDAR_DATE ( 2026, 22, 6 ) ;
#478 = CC_DESIGN_PERSON_AND_ORGANIZATION_ASSIGNMENT ( #425, #60, ( #503 ) ) ;
#479 = DATE_AND_TIME ( #90, #432 ) ;
#480 = SHAPE_DEFINITION_REPRESENTATION ( #320, #39 ) ;
#481 = AXIS2_PLACEMENT_3D ( 'NONE', #89, #338, #219 ) ;
#482 = SECURITY_CLASSIFICATION ( '', '', #58 ) ;
#483 = APPROVAL_STATUS ( 'not_yet_approved' ) ;
#484 = APPLICATION_CONTEXT ( 'configuration controlled 3d designs of mechanical parts and assemblies' ) ;
#485 = PERSON_AND_ORGANIZATION ( #18446744073709551615, #18446744073709551615 ) ;
#486 = ROLE_ASSOCIATION ( #186, #368 ) ;
#487 = APPLICATION_PROTOCOL_DEFINITION ( 'international standard', 'config_control_design', 1994, #372 ) ;
#488 = CC_DESIGN_PERSON_AND_ORGANIZATION_ASSIGNMENT ( #99, #19, ( #240 ) ) ;
#489 = UNCERTAINTY_MEASURE_WITH_UNIT (LENGTH_MEASURE( 1.000000000000000082E-05 ), #260, 'distance_accuracy_value', 'NONE');
#490 = PROPERTY_DEFINITION ('document property','', #242 ) ;
#491 = APPLICATION_PROTOCOL_DEFINITION ( 'international standard', 'config_control_design', 1994, #304 ) ;
#492 = ROLE_ASSOCIATION ( #252, #83 ) ;
#493 = MECHANICAL_CONTEXT ( 'NONE', #418, 'mechanical' ) ;
#494 = DOCUMENT_TYPE ( 'geometry' ) ;
#495 = DIRECTION ( 'NONE',  ( 1.047444401652940007E-14, -1.000000000000000000, -1.396592535537253342E-14 ) ) ;
#496 = COORDINATED_UNIVERSAL_TIME_OFFSET ( 10, 0, .AHEAD. ) ;
#497 = CALENDAR_DATE ( 2026, 22, 6 ) ;
#498 = PRODUCT_DEFINITION ( 'General', '', #277, #64 ) ;
#499 = APPROVAL_ROLE ( '' ) ;
#500 = SECURITY_CLASSIFICATION_LEVEL ( 'unclassified' ) ;
#501 = APPROVAL_DATE_TIME ( #220, #75 ) ;
#502 = LOCAL_TIME ( 18, 50, 34.00000000000000000, #275 ) ;
#503 = SECURITY_CLASSIFICATION ( '', '', #97 ) ;
#504 = APPLICATION_CONTEXT ( 'configuration controlled 3d designs of mechanical parts and assemblies' ) ;
#505 = PERSON_AND_ORGANIZATION_ROLE ( 'classification_officer' ) ;
#506 = DOCUMENT_TYPE ( 'geometry' ) ;
#507 = CC_DESIGN_SECURITY_CLASSIFICATION ( #30, ( #454 ) ) ;
#508 = APPLICATION_PROTOCOL_DEFINITION ( 'international standard', 'config_control_design', 1994, #504 ) ;
#509 = CC_DESIGN_APPROVAL ( #104, ( #427 ) ) ;
#510 = CC_DESIGN_PERSON_AND_ORGANIZATION_ASSIGNMENT ( #175, #377, ( #468 ) ) ;
#511 = DESIGN_CONTEXT ( 'detailed design', #372, 'design' ) ;
#512 = APPLICATION_CONTEXT ( 'configuration controlled 3d designs of mechanical parts and assemblies' ) ;
#513 = DIRECTION ( 'NONE',  ( 8.659739592076221015E-15, 1.591782261556318190E-14, -1.000000000000000222 ) ) ;
#514 = PERSON_AND_ORGANIZATION ( #18446744073709551615, #18446744073709551615 ) ;
#515 = CALENDAR_DATE ( 2026, 22, 6 ) ;
#516 = APPLICATION_CONTEXT ( 'configuration controlled 3d designs of mechanical parts and assemblies' ) ;
#517 = NEXT_ASSEMBLY_USAGE_OCCURRENCE ( 'NAUO545', ' ', ' ', #353, #427, $ ) ;
#518 = NEXT_ASSEMBLY_USAGE_OCCURRENCE ( 'NAUO546', ' ', ' ', #353, #94, $ ) ;
#519 = NEXT_ASSEMBLY_USAGE_OCCURRENCE ( 'NAUO547', ' ', ' ', #353, #498, $ ) ;
#520 = NEXT_ASSEMBLY_USAGE_OCCURRENCE ( 'NAUO548', ' ', ' ', #353, #94, $ ) ;
ENDSEC;
END-ISO-10303-21;
