ISO-10303-21;
HEADER;
FILE_DESCRIPTION (( 'STEP AP203' ),
    '1' );
FILE_NAME ('hex screw_am.STEP',
    '2026-06-22T08:50:25',
    ( 'localuser' ),
    ( '' ),
    'SwSTEP 2.0',
    'SolidWorks 2025',
    '' );
FILE_SCHEMA (( 'CONFIG_CONTROL_DESIGN' ));
ENDSEC;

DATA;
#1 = VECTOR ( 'NONE', #197, 1000.000000000000227 ) ;
#2 = CARTESIAN_POINT ( 'NONE',  ( 0.3126074013661362394, 4.041451901988221351, -2.275773995989590083E-17 ) ) ;
#3 = ORIENTED_EDGE ( 'NONE', *, *, #236, .F. ) ;
#4 = CC_DESIGN_PERSON_AND_ORGANIZATION_ASSIGNMENT ( #415, #424, ( #308 ) ) ;
#5 = DIRECTION ( 'NONE',  ( 0.000000000000000000, 0.000000000000000000, 1.000000000000000000 ) ) ;
#6 = CARTESIAN_POINT ( 'NONE',  ( 3.000000000000000000, -2.020725950993872200, -3.499999999999999556 ) ) ;
#7 = ADVANCED_FACE ( 'NONE', ( #147 ), #93, .T. ) ;
#8 = ORIENTED_EDGE ( 'NONE', *, *, #104, .T. ) ;
#9 = CARTESIAN_POINT ( 'NONE',  ( 3.811648262644351526E-18, 0.3416723659039280214, 3.499999999999999556 ) ) ;
#10 = ORIENTED_EDGE ( 'NONE', *, *, #227, .T. ) ;
#11 = LOCAL_TIME ( 18, 50, 25.00000000000000000, #473 ) ;
#12 = ORIENTED_EDGE ( 'NONE', *, *, #174, .T. ) ;
#13 = VECTOR ( 'NONE', #455, 1000.000000000000000 ) ;
#14 = FACE_OUTER_BOUND ( 'NONE', #282, .T. ) ;
#15 = DIRECTION ( 'NONE',  ( 1.000000000000000000, 0.000000000000000000, 0.000000000000000000 ) ) ;
#16 = ORIENTED_EDGE ( 'NONE', *, *, #520, .F. ) ;
#17 = B_SPLINE_CURVE_WITH_KNOTS ( 'NONE', 3,
 ( #509, #25, #234, #30, #83, #371 ),
 .UNSPECIFIED., .F., .F.,
 ( 4, 2, 4 ),
 ( 0.002044882238258326733, 0.003063384245690010162, 0.004081886253121693592 ),
 .UNSPECIFIED. ) ;
#18 = PLANE ( 'NONE',  #307 ) ;
#19 = FACE_OUTER_BOUND ( 'NONE', #195, .T. ) ;
#20 = CARTESIAN_POINT ( 'NONE',  ( 0.000000000000000000, 0.000000000000000000, 0.000000000000000000 ) ) ;
#21 = CARTESIAN_POINT ( 'NONE',  ( 0.3750000000000000000, 0.000000000000000000, 3.062500000000000000 ) ) ;
#22 = VERTEX_POINT ( 'NONE', #293 ) ;
#23 = CIRCLE ( 'NONE', #123, 3.062500000000000000 ) ;
#24 = VECTOR ( 'NONE', #335, 1000.000000000000000 ) ;
#25 = CARTESIAN_POINT ( 'NONE',  ( 6.676650927532496145E-09, 2.859595684199049526, -2.047035007506663895 ) ) ;
#26 = APPROVAL_DATE_TIME ( #529, #555 ) ;
#27 = CARTESIAN_POINT ( 'NONE',  ( 0.02993401664518756389, -2.688325918283034355, 2.343682942576860384 ) ) ;
#28 = ADVANCED_FACE ( 'NONE', ( #395 ), #248, .F. ) ;
#29 =( NAMED_UNIT ( * ) SI_UNIT ( $, .STERADIAN. ) SOLID_ANGLE_UNIT ( ) );
#30 = CARTESIAN_POINT ( 'NONE',  ( 0.1388410658598247527, 2.351840052279581261, -2.926493555977261796 ) ) ;
#31 = B_SPLINE_CURVE_WITH_KNOTS ( 'NONE', 3,
 ( #418, #518, #39, #627, #228, #231 ),
 .UNSPECIFIED., .F., .F.,
 ( 4, 2, 4 ),
 ( 0.003605251175148424265, 0.004627378915845585701, 0.005649506656542747571 ),
 .UNSPECIFIED. ) ;
#32 = PERSON_AND_ORGANIZATION ( #18446744073709551615, #18446744073709551615 ) ;
#33 = CARTESIAN_POINT ( 'NONE',  ( 0.02993401747234368179, -3.373851926083048181, -1.156317072346066510 ) ) ;
#34 = VECTOR ( 'NONE', #353, 1000.000000000000000 ) ;
#35 = ORIENTED_EDGE ( 'NONE', *, *, #134, .F. ) ;
#36 = DIRECTION ( 'NONE',  ( 0.000000000000000000, -0.8660254028383240765, 0.5000000016387184942 ) ) ;
#37 = EDGE_LOOP ( 'NONE', ( #276, #12, #301, #97 ) ) ;
#38 = MECHANICAL_CONTEXT ( 'NONE', #639, 'mechanical' ) ;
#39 = CARTESIAN_POINT ( 'NONE',  ( 0.1381584183287274947, -1.355464328889009806, 3.500000000000000000 ) ) ;
#40 = EDGE_LOOP ( 'NONE', ( #354, #393 ) ) ;
#41 = EDGE_CURVE ( 'NONE', #578, #116, #587, .T. ) ;
#42 = DIRECTION ( 'NONE',  ( -1.000000000000000000, -0.000000000000000000, -0.000000000000000000 ) ) ;
#43 = ORIENTED_EDGE ( 'NONE', *, *, #619, .T. ) ;
#44 = AXIS2_PLACEMENT_3D ( 'NONE', #625, #36, #476 ) ;
#45 = DIRECTION ( 'NONE',  ( 0.000000000000000000, 0.000000000000000000, 1.000000000000000000 ) ) ;
#46 = CARTESIAN_POINT ( 'NONE',  ( 0.1397344976201186084, 1.362959805011087155, -3.500000000000000000 ) ) ;
#47 = B_SPLINE_CURVE_WITH_KNOTS ( 'NONE', 3,
 ( #2, #537, #150, #595 ),
 .UNSPECIFIED., .F., .F.,
 ( 4, 4 ),
 ( 2.380739285448137044E-07, 0.002044882238258326733 ),
 .UNSPECIFIED. ) ;
#48 = EDGE_CURVE ( 'NONE', #623, #613, #156, .T. ) ;
#49 = DIRECTION ( 'NONE',  ( -1.000000000000000000, -0.000000000000000000, -0.000000000000000000 ) ) ;
#50 = ORIENTED_EDGE ( 'NONE', *, *, #59, .F. ) ;
#51 = DIRECTION ( 'NONE',  ( 1.000000000000000000, 0.000000000000000000, -0.000000000000000000 ) ) ;
#52 = EDGE_LOOP ( 'NONE', ( #534, #142, #290, #458, #387 ) ) ;
#53 = VECTOR ( 'NONE', #484, 999.9999999999998863 ) ;
#54 = CYLINDRICAL_SURFACE ( 'NONE', #420, 3.062500000000000000 ) ;
#55 = DIRECTION ( 'NONE',  ( 0.000000000000000000, -0.8660254028383240765, -0.5000000016387184942 ) ) ;
#56 = ORIENTED_EDGE ( 'NONE', *, *, #48, .T. ) ;
#57 = DIRECTION ( 'NONE',  ( 0.000000000000000000, 0.000000000000000000, -1.000000000000000000 ) ) ;
#58 = CARTESIAN_POINT ( 'NONE',  ( 3.000000000000000000, -4.041451901987964668, 0.000000000000000000 ) ) ;
#59 = EDGE_CURVE ( 'NONE', #133, #527, #23, .T. ) ;
#60 = VERTEX_POINT ( 'NONE', #58 ) ;
#61 = CARTESIAN_POINT ( 'NONE',  ( 3.000000000000000000, 4.041451901988220463, 0.000000000000000000 ) ) ;
#62 = CARTESIAN_POINT ( 'NONE',  ( 3.000000000000002665, 0.000000000000000000, 2.000000000000000000 ) ) ;
#63 = AXIS2_PLACEMENT_3D ( 'NONE', #246, #539, #57 ) ;
#64 = LINE ( 'NONE', #405, #34 ) ;
#65 = CARTESIAN_POINT ( 'NONE',  ( 0.000000000000000000, 0.000000000000000000, -3.499999999999999556 ) ) ;
#66 = ORIENTED_EDGE ( 'NONE', *, *, #591, .T. ) ;
#67 = EDGE_CURVE ( 'NONE', #477, #116, #185, .T. ) ;
#68 = CARTESIAN_POINT ( 'NONE',  ( -25.39999999999996305, 2.449293598294706414E-16, -2.000000000000000000 ) ) ;
#69 = CARTESIAN_POINT ( 'NONE',  ( 0.000000000000000000, 0.000000000000000000, 0.000000000000000000 ) ) ;
#70 = B_SPLINE_CURVE_WITH_KNOTS ( 'NONE', 3,
 ( #359, #9, #497, #607, #219, #560 ),
 .UNSPECIFIED., .F., .F.,
 ( 4, 2, 4 ),
 ( 0.005649506656542747571, 0.006672241690960297421, 0.007694976725377847271 ),
 .UNSPECIFIED. ) ;
#71 = CARTESIAN_POINT ( 'NONE',  ( 0.3126074013659880801, -4.041451901987964668, 0.000000000000000000 ) ) ;
#72 = AXIS2_PLACEMENT_3D ( 'NONE', #20, #367, #259 ) ;
#73 = LINE ( 'NONE', #508, #599 ) ;
#74 = CARTESIAN_POINT ( 'NONE',  ( 0.1217565383447311161, -3.710888510568589815, 0.5725525865586285068 ) ) ;
#75 = EDGE_CURVE ( 'NONE', #597, #507, #478, .T. ) ;
#76 = COORDINATED_UNIVERSAL_TIME_OFFSET ( 10, 0, .AHEAD. ) ;
#77 = B_SPLINE_CURVE_WITH_KNOTS ( 'NONE', 3,
 ( #71, #74, #173, #360 ),
 .UNSPECIFIED., .F., .F.,
 ( 4, 4 ),
 ( 2.380739285447937462E-07, 0.002044882238258179715 ),
 .UNSPECIFIED. ) ;
#78 = FACE_BOUND ( 'NONE', #108, .T. ) ;
#79 = APPROVAL_STATUS ( 'not_yet_approved' ) ;
#80 = DIRECTION ( 'NONE',  ( -1.000000000000000000, 0.000000000000000000, -0.000000000000000000 ) ) ;
#81 = ORIENTED_EDGE ( 'NONE', *, *, #144, .T. ) ;
#82 = CALENDAR_DATE ( 2026, 22, 6 ) ;
#83 = CARTESIAN_POINT ( 'NONE',  ( 0.2174200687205467553, 2.185595235747753051, -3.214438023447063753 ) ) ;
#84 = AXIS2_PLACEMENT_3D ( 'NONE', #196, #96, #5 ) ;
#85 = ORIENTED_EDGE ( 'NONE', *, *, #630, .T. ) ;
#86 = EDGE_CURVE ( 'NONE', #442, #623, #365, .T. ) ;
#87 = CARTESIAN_POINT ( 'NONE',  ( 0.02993401747247529179, 3.373851926083268005, 1.156317072346129571 ) ) ;
#88 = ORIENTED_EDGE ( 'NONE', *, *, #201, .F. ) ;
#89 = DATE_AND_TIME ( #82, #565 ) ;
#90 = DIRECTION ( 'NONE',  ( -1.000000000000000000, -0.000000000000000000, -0.000000000000000000 ) ) ;
#91 = ORIENTED_EDGE ( 'NONE', *, *, #247, .F. ) ;
#92 = DIRECTION ( 'NONE',  ( 0.000000000000000000, -0.5000000016387186053, 0.8660254028383240765 ) ) ;
#93 = PLANE ( 'NONE',  #419 ) ;
#94 = CONICAL_SURFACE ( 'NONE', #267, 3.499999999999999556, 1.047197551196595855 ) ;
#95 = EDGE_CURVE ( 'NONE', #442, #603, #176, .T. ) ;
#96 = DIRECTION ( 'NONE',  ( -1.000000000000000000, -0.000000000000000000, -0.000000000000000000 ) ) ;
#97 = ORIENTED_EDGE ( 'NONE', *, *, #104, .F. ) ;
#98 = DIRECTION ( 'NONE',  ( 0.000000000000000000, 0.000000000000000000, 1.000000000000000000 ) ) ;
#99 = ORIENTED_EDGE ( 'NONE', *, *, #221, .T. ) ;
#100 = CARTESIAN_POINT ( 'NONE',  ( 3.000000000000000000, -4.041451901987964668, 0.000000000000000000 ) ) ;
#101 = ORIENTED_EDGE ( 'NONE', *, *, #121, .T. ) ;
#102 = AXIS2_PLACEMENT_3D ( 'NONE', #324, #239, #127 ) ;
#103 = FACE_OUTER_BOUND ( 'NONE', #467, .T. ) ;
#104 = EDGE_CURVE ( 'NONE', #133, #597, #316, .T. ) ;
#105 = ORIENTED_EDGE ( 'NONE', *, *, #600, .F. ) ;
#106 = CARTESIAN_POINT ( 'NONE',  ( 0.02935131191710061566, -0.6807266294575072818, -3.500000000000000000 ) ) ;
#107 = CARTESIAN_POINT ( 'NONE',  ( 0.3126073937186985563, -2.020725950993872200, 3.499999999999999556 ) ) ;
#108 = EDGE_LOOP ( 'NONE', ( #186, #10 ) ) ;
#109 = CARTESIAN_POINT ( 'NONE',  ( 0.000000000000000000, 0.000000000000000000, 0.000000000000000000 ) ) ;
#110 = AXIS2_PLACEMENT_3D ( 'NONE', #203, #160, #397 ) ;
#111 = ADVANCED_FACE ( 'NONE', ( #498 ), #189, .T. ) ;
#112 = VECTOR ( 'NONE', #614, 1000.000000000000000 ) ;
#113 = LINE ( 'NONE', #172, #503 ) ;
#114 = B_SPLINE_CURVE_WITH_KNOTS ( 'NONE', 3,
 ( #465, #376, #33, #132, #522, #155 ),
 .UNSPECIFIED., .F., .F.,
 ( 4, 2, 4 ),
 ( 0.002044882210875858045, 0.003063384231942599401, 0.004081886253009340756 ),
 .UNSPECIFIED. ) ;
#115 = DIRECTION ( 'NONE',  ( 0.000000000000000000, 0.000000000000000000, -1.000000000000000000 ) ) ;
#116 = VERTEX_POINT ( 'NONE', #511 ) ;
#117 = CC_DESIGN_PERSON_AND_ORGANIZATION_ASSIGNMENT ( #222, #369, ( #308 ) ) ;
#118 = CARTESIAN_POINT ( 'NONE',  ( 3.000000000000000000, -2.020725950993872200, -3.499999999999999556 ) ) ;
#119 = CARTESIAN_POINT ( 'NONE',  ( 0.000000000000000000, -3.031088919868172304, -1.750000011470933314 ) ) ;
#120 = PLANE ( 'NONE',  #168 ) ;
#121 = EDGE_CURVE ( 'NONE', #208, #130, #77, .T. ) ;
#122 = CARTESIAN_POINT ( 'NONE',  ( 3.000000000000000000, 2.020725950994127995, 3.499999999999999556 ) ) ;
#123 = AXIS2_PLACEMENT_3D ( 'NONE', #352, #299, #495 ) ;
#124 = CIRCLE ( 'NONE', #238, 3.499999999999999556 ) ;
#125 = COORDINATED_UNIVERSAL_TIME_OFFSET ( 10, 0, .AHEAD. ) ;
#126 = CC_DESIGN_SECURITY_CLASSIFICATION ( #268, ( #308 ) ) ;
#127 = DIRECTION ( 'NONE',  ( -0.000000000000000000, 0.000000000000000000, 1.000000000000000000 ) ) ;
#128 = APPROVAL_ROLE ( '' ) ;
#129 = CARTESIAN_POINT ( 'NONE',  ( 0.000000000000000000, 0.000000000000000000, 0.000000000000000000 ) ) ;
#130 = VERTEX_POINT ( 'NONE', #263 ) ;
#131 = SHAPE_DEFINITION_REPRESENTATION ( #343, #576 ) ;
#132 = CARTESIAN_POINT ( 'NONE',  ( 0.1388410694581988514, -3.710337796500965180, -0.5735064513000296404 ) ) ;
#133 = VERTEX_POINT ( 'NONE', #211 ) ;
#134 = EDGE_CURVE ( 'NONE', #181, #151, #468, .T. ) ;
#135 = APPROVAL_ROLE ( '' ) ;
#136 = FACE_OUTER_BOUND ( 'NONE', #52, .T. ) ;
#137 = CONICAL_SURFACE ( 'NONE', #579, 3.499999999999999556, 1.047197551196595855 ) ;
#138 = ORIENTED_EDGE ( 'NONE', *, *, #41, .T. ) ;
#139 = APPROVAL_DATE_TIME ( #375, #504 ) ;
#140 = B_SPLINE_CURVE_WITH_KNOTS ( 'NONE', 3,
 ( #413, #406, #220, #119 ),
 .UNSPECIFIED., .F., .F.,
 ( 4, 4 ),
 ( 2.380739283418014269E-07, 0.002044882210875858045 ),
 .UNSPECIFIED. ) ;
#141 = PLANE ( 'NONE',  #44 ) ;
#142 = ORIENTED_EDGE ( 'NONE', *, *, #86, .T. ) ;
#143 = CARTESIAN_POINT ( 'NONE',  ( 0.000000000000000000, 0.000000000000000000, 0.000000000000000000 ) ) ;
#144 = EDGE_CURVE ( 'NONE', #637, #22, #140, .T. ) ;
#145 = VERTEX_POINT ( 'NONE', #357 ) ;
#146 = CARTESIAN_POINT ( 'NONE',  ( 3.000000000000000000, -2.020725950993872200, -3.499999999999999556 ) ) ;
#147 = FACE_OUTER_BOUND ( 'NONE', #349, .T. ) ;
#148 = AXIS2_PLACEMENT_3D ( 'NONE', #490, #152, #51 ) ;
#149 = PRODUCT ( 'hex screw_am_B18.6.7M - M4 x 0.7 x 8 Indented HHMS --8N', 'hex screw_am_B18.6.7M - M4 x 0.7 x 8 Indented HHMS --8N', '', ( #38 ) ) ;
#150 = CARTESIAN_POINT ( 'NONE',  ( 6.514748024735684629E-09, 3.375361822147892710, -1.153701855659479136 ) ) ;
#151 = VERTEX_POINT ( 'NONE', #223 ) ;
#152 = DIRECTION ( 'NONE',  ( 0.000000000000000000, -0.000000000000000000, 1.000000000000000000 ) ) ;
#153 = DIRECTION ( 'NONE',  ( 0.000000000000000000, 0.000000000000000000, 1.000000000000000000 ) ) ;
#154 = EDGE_CURVE ( 'NONE', #130, #145, #274, .T. ) ;
#155 = CARTESIAN_POINT ( 'NONE',  ( 0.3126074013659880801, -4.041451901987964668, 0.000000000000000000 ) ) ;
#156 = LINE ( 'NONE', #342, #1 ) ;
#157 = CIRCLE ( 'NONE', #187, 3.062500000000000000 ) ;
#158 = ORIENTED_EDGE ( 'NONE', *, *, #636, .F. ) ;
#159 =( LENGTH_UNIT ( ) NAMED_UNIT ( * ) SI_UNIT ( .MILLI., .METRE. ) );
#160 = DIRECTION ( 'NONE',  ( -1.000000000000000000, -0.000000000000000000, -0.000000000000000000 ) ) ;
#161 = ORIENTED_EDGE ( 'NONE', *, *, #209, .F. ) ;
#162 = CARTESIAN_POINT ( 'NONE',  ( 0.000000000000000000, 0.000000000000000000, 3.499999999999999556 ) ) ;
#163 = CARTESIAN_POINT ( 'NONE',  ( 3.000000000000002665, 0.000000000000000000, 0.000000000000000000 ) ) ;
#164 = ADVANCED_FACE ( 'NONE', ( #502 ), #177, .T. ) ;
#165 = ORIENTED_EDGE ( 'NONE', *, *, #389, .T. ) ;
#166 = CARTESIAN_POINT ( 'NONE',  ( 3.000000000000000000, -2.020725950993872200, -3.499999999999999556 ) ) ;
#167 = CARTESIAN_POINT ( 'NONE',  ( 0.000000000000000000, 0.000000000000000000, 0.000000000000000000 ) ) ;
#168 = AXIS2_PLACEMENT_3D ( 'NONE', #454, #450, #557 ) ;
#169 = DIRECTION ( 'NONE',  ( 0.000000000000000000, 0.000000000000000000, -1.000000000000000000 ) ) ;
#170 = DIRECTION ( 'NONE',  ( -1.000000000000000000, 0.000000000000000000, 0.000000000000000000 ) ) ;
#171 = ORIENTED_EDGE ( 'NONE', *, *, #48, .F. ) ;
#172 = CARTESIAN_POINT ( 'NONE',  ( 3.000000000000000000, -2.020725950993872200, 3.499999999999999556 ) ) ;
#173 = CARTESIAN_POINT ( 'NONE',  ( 6.514621769159574380E-09, -3.375361822147683988, 1.153701855659396314 ) ) ;
#174 = EDGE_CURVE ( 'NONE', #527, #507, #615, .T. ) ;
#175 = COORDINATED_UNIVERSAL_TIME_OFFSET ( 10, 0, .AHEAD. ) ;
#176 = LINE ( 'NONE', #122, #488 ) ;
#177 = CONICAL_SURFACE ( 'NONE', #330, 3.499999999999999556, 1.047197551196595855 ) ;
#178 = DATE_TIME_ROLE ( 'creation_date' ) ;
#179 = PLANE ( 'NONE',  #102 ) ;
#180 = FACE_OUTER_BOUND ( 'NONE', #426, .T. ) ;
#181 = VERTEX_POINT ( 'NONE', #62 ) ;
#182 = EDGE_CURVE ( 'NONE', #613, #477, #265, .T. ) ;
#183 = SECURITY_CLASSIFICATION_LEVEL ( 'unclassified' ) ;
#184 = CARTESIAN_POINT ( 'NONE',  ( 3.000000000000000000, -4.041451901987964668, 0.000000000000000000 ) ) ;
#185 = B_SPLINE_CURVE_WITH_KNOTS ( 'NONE', 3,
 ( #288, #482, #46, #243, #404, #65 ),
 .UNSPECIFIED., .F., .F.,
 ( 4, 2, 4 ),
 ( 0.001481233478716626004, 0.002501353794822987371, 0.003521474110929349172 ),
 .UNSPECIFIED. ) ;
#186 = ORIENTED_EDGE ( 'NONE', *, *, #134, .T. ) ;
#187 = AXIS2_PLACEMENT_3D ( 'NONE', #167, #310, #314 ) ;
#188 = CARTESIAN_POINT ( 'NONE',  ( 3.000000000000000000, 2.020725950994127995, -3.499999999999999556 ) ) ;
#189 = CONICAL_SURFACE ( 'NONE', #451, 3.499999999999999556, 1.047197551196595855 ) ;
#190 = ORIENTED_EDGE ( 'NONE', *, *, #236, .T. ) ;
#191 = ADVANCED_FACE ( 'NONE', ( #19 ), #137, .T. ) ;
#192 = LINE ( 'NONE', #396, #225 ) ;
#193 = ORIENTED_EDGE ( 'NONE', *, *, #453, .F. ) ;
#194 = DIRECTION ( 'NONE',  ( 0.000000000000000000, 0.000000000000000000, 1.000000000000000000 ) ) ;
#195 = EDGE_LOOP ( 'NONE', ( #3, #447, #85 ) ) ;
#196 = CARTESIAN_POINT ( 'NONE',  ( -25.39999999999996305, 0.000000000000000000, 0.000000000000000000 ) ) ;
#197 = DIRECTION ( 'NONE',  ( 0.000000000000000000, -0.5000000016387186053, -0.8660254028383240765 ) ) ;
#198 = AXIS2_PLACEMENT_3D ( 'NONE', #429, #425, #279 ) ;
#199 = FACE_OUTER_BOUND ( 'NONE', #217, .T. ) ;
#200 = ORIENTED_EDGE ( 'NONE', *, *, #381, .F. ) ;
#201 = EDGE_CURVE ( 'NONE', #116, #22, #124, .T. ) ;
#202 = DIRECTION ( 'NONE',  ( 0.000000000000000000, 0.000000000000000000, 1.000000000000000000 ) ) ;
#203 = CARTESIAN_POINT ( 'NONE',  ( 0.000000000000000000, 0.000000000000000000, 0.000000000000000000 ) ) ;
#204 = CARTESIAN_POINT ( 'NONE',  ( 0.3126073937186985563, -2.020725950993872200, -3.499999999999999556 ) ) ;
#205 = ORIENTED_EDGE ( 'NONE', *, *, #591, .F. ) ;
#206 = VECTOR ( 'NONE', #92, 999.9999999999998863 ) ;
#207 = CC_DESIGN_APPROVAL ( #402, ( #268 ) ) ;
#208 = VERTEX_POINT ( 'NONE', #608 ) ;
#209 = EDGE_CURVE ( 'NONE', #507, #597, #157, .T. ) ;
#210 = CARTESIAN_POINT ( 'NONE',  ( 3.000000000000000000, 2.020725950994127995, -3.499999999999999556 ) ) ;
#211 = CARTESIAN_POINT ( 'NONE',  ( 0.3750000000000000000, 0.000000000000000000, 3.062500000000000000 ) ) ;
#212 = CARTESIAN_POINT ( 'NONE',  ( 0.2177329433491060062, -1.692071215310428922, -3.499999999999999112 ) ) ;
#213 = CC_DESIGN_DATE_AND_TIME_ASSIGNMENT ( #463, #569, ( #268 ) ) ;
#214 = DIRECTION ( 'NONE',  ( 0.000000000000000000, 0.000000000000000000, 1.000000000000000000 ) ) ;
#215 = CARTESIAN_POINT ( 'NONE',  ( 0.3126073937187726082, 2.020725950994127995, 3.499999999999999556 ) ) ;
#216 = CARTESIAN_POINT ( 'NONE',  ( 0.000000000000000000, 0.000000000000000000, 0.000000000000000000 ) ) ;
#217 = EDGE_LOOP ( 'NONE', ( #165, #556, #35, #205 ) ) ;
#218 = VECTOR ( 'NONE', #328, 1000.000000000000000 ) ;
#219 = CARTESIAN_POINT ( 'NONE',  ( 0.2182856434185673766, 1.693985824507443283, 3.499999999999999556 ) ) ;
#220 = CARTESIAN_POINT ( 'NONE',  ( 6.514621770656025171E-09, -2.686816022362501499, -2.346298159013934459 ) ) ;
#221 = EDGE_CURVE ( 'NONE', #578, #477, #17, .T. ) ;
#222 = PERSON_AND_ORGANIZATION ( #18446744073709551615, #18446744073709551615 ) ;
#223 = CARTESIAN_POINT ( 'NONE',  ( 3.000000000000002665, 2.449293598294706414E-16, -2.000000000000000000 ) ) ;
#224 = CARTESIAN_POINT ( 'NONE',  ( 11.00000000000000355, 0.000000000000000000, 2.000000000000000000 ) ) ;
#225 = VECTOR ( 'NONE', #250, 1000.000000000000000 ) ;
#226 = PERSON_AND_ORGANIZATION ( #18446744073709551615, #18446744073709551615 ) ;
#227 = EDGE_CURVE ( 'NONE', #151, #181, #568, .T. ) ;
#228 = CARTESIAN_POINT ( 'NONE',  ( -5.929230630780098522E-18, -0.3414694829721216518, 3.499999999999999556 ) ) ;
#229 = EDGE_LOOP ( 'NONE', ( #200, #43, #475, #105, #91 ) ) ;
#230 = APPLICATION_PROTOCOL_DEFINITION ( 'international standard', 'config_control_design', 1994, #306 ) ;
#231 = CARTESIAN_POINT ( 'NONE',  ( 0.000000000000000000, 0.000000000000000000, 3.499999999999999556 ) ) ;
#232 = CC_DESIGN_PERSON_AND_ORGANIZATION_ASSIGNMENT ( #323, #517, ( #448 ) ) ;
#233 = ORIENTED_EDGE ( 'NONE', *, *, #427, .F. ) ;
#234 = CARTESIAN_POINT ( 'NONE',  ( 0.02993401664531114559, 2.688325918283243521, -2.343682942576940764 ) ) ;
#235 = ORIENTED_EDGE ( 'NONE', *, *, #612, .F. ) ;
#236 = EDGE_CURVE ( 'NONE', #532, #398, #391, .T. ) ;
#237 = VECTOR ( 'NONE', #170, 1000.000000000000000 ) ;
#238 = AXIS2_PLACEMENT_3D ( 'NONE', #216, #256, #214 ) ;
#239 = DIRECTION ( 'NONE',  ( -1.000000000000000000, 0.000000000000000000, -0.000000000000000000 ) ) ;
#240 = CC_DESIGN_APPROVAL ( #555, ( #308 ) ) ;
#241 = ORIENTED_EDGE ( 'NONE', *, *, #513, .F. ) ;
#242 = PLANE ( 'NONE',  #296 ) ;
#243 = CARTESIAN_POINT ( 'NONE',  ( 0.03016325070096878905, 0.6879905077037599126, -3.499999999999999556 ) ) ;
#244 = DIRECTION ( 'NONE',  ( -1.000000000000000000, 0.000000000000000000, 0.000000000000000000 ) ) ;
#245 = VERTEX_POINT ( 'NONE', #224 ) ;
#246 = CARTESIAN_POINT ( 'NONE',  ( 0.000000000000000000, 0.000000000000000000, 0.000000000000000000 ) ) ;
#247 = EDGE_CURVE ( 'NONE', #145, #532, #31, .T. ) ;
#248 = CYLINDRICAL_SURFACE ( 'NONE', #317, 3.062500000000000000 ) ;
#249 = CONICAL_SURFACE ( 'NONE', #63, 3.499999999999999556, 1.047197551196595855 ) ;
#250 = DIRECTION ( 'NONE',  ( -1.000000000000000000, 0.000000000000000000, 0.000000000000000000 ) ) ;
#251 = CARTESIAN_POINT ( 'NONE',  ( 0.3750000000000000000, 0.000000000000000000, 0.000000000000000000 ) ) ;
#252 = CARTESIAN_POINT ( 'NONE',  ( 11.00000000000000355, 2.449293598294706414E-16, -2.000000000000000000 ) ) ;
#253 = VERTEX_POINT ( 'NONE', #471 ) ;
#254 = EDGE_CURVE ( 'NONE', #613, #632, #567, .T. ) ;
#255 = CARTESIAN_POINT ( 'NONE',  ( 0.1217565349674731151, 2.351289338267926965, 2.927447420621720475 ) ) ;
#256 = DIRECTION ( 'NONE',  ( -1.000000000000000000, -0.000000000000000000, -0.000000000000000000 ) ) ;
#257 = AXIS2_PLACEMENT_3D ( 'NONE', #163, #550, #270 ) ;
#258 = LOCAL_TIME ( 18, 50, 25.00000000000000000, #175 ) ;
#259 = DIRECTION ( 'NONE',  ( 0.000000000000000000, 0.000000000000000000, 1.000000000000000000 ) ) ;
#260 = DIRECTION ( 'NONE',  ( 1.000000000000000000, 0.000000000000000000, 0.000000000000000000 ) ) ;
#261 = ORIENTED_EDGE ( 'NONE', *, *, #363, .T. ) ;
#262 = CARTESIAN_POINT ( 'NONE',  ( 0.000000000000000000, 3.031088919868363707, -1.750000011471045225 ) ) ;
#263 = CARTESIAN_POINT ( 'NONE',  ( 0.000000000000000000, -3.031088919868170972, 1.750000011470934647 ) ) ;
#264 = ORIENTED_EDGE ( 'NONE', *, *, #254, .T. ) ;
#265 = LINE ( 'NONE', #559, #13 ) ;
#266 = EDGE_CURVE ( 'NONE', #527, #133, #480, .T. ) ;
#267 = AXIS2_PLACEMENT_3D ( 'NONE', #533, #394, #388 ) ;
#268 = SECURITY_CLASSIFICATION ( '', '', #183 ) ;
#269 = DIRECTION ( 'NONE',  ( -0.000000000000000000, 0.000000000000000000, -1.000000000000000000 ) ) ;
#270 = DIRECTION ( 'NONE',  ( 0.000000000000000000, 0.000000000000000000, 1.000000000000000000 ) ) ;
#271 = CARTESIAN_POINT ( 'NONE',  ( 0.2174200742323285362, 3.876582615156708655, 0.2855619801519447276 ) ) ;
#272 = ADVANCED_FACE ( 'NONE', ( #78, #577 ), #179, .F. ) ;
#273 = COORDINATED_UNIVERSAL_TIME_OFFSET ( 10, 0, .AHEAD. ) ;
#274 = B_SPLINE_CURVE_WITH_KNOTS ( 'NONE', 3,
 ( #416, #462, #27, #561, #554, #107 ),
 .UNSPECIFIED., .F., .F.,
 ( 4, 2, 4 ),
 ( 0.002044882238258179715, 0.003063384245689942074, 0.004081886253121704000 ),
 .UNSPECIFIED. ) ;
#275 = DIRECTION ( 'NONE',  ( -0.000000000000000000, 0.000000000000000000, 1.000000000000000000 ) ) ;
#276 = ORIENTED_EDGE ( 'NONE', *, *, #59, .T. ) ;
#277 = LOCAL_TIME ( 18, 50, 25.00000000000000000, #76 ) ;
#278 = APPROVAL_DATE_TIME ( #327, #402 ) ;
#279 = DIRECTION ( 'NONE',  ( 0.000000000000000000, 0.000000000000000000, 1.000000000000000000 ) ) ;
#280 = EDGE_LOOP ( 'NONE', ( #158, #56, #581, #472, #193 ) ) ;
#281 = FACE_OUTER_BOUND ( 'NONE', #602, .T. ) ;
#282 = EDGE_LOOP ( 'NONE', ( #390, #401 ) ) ;
#283 = CARTESIAN_POINT ( 'NONE',  ( 0.3126074013661362394, 4.041451901988221351, -2.275773995989590083E-17 ) ) ;
#284 = MANIFOLD_SOLID_BREP ( 'Indent', #439 ) ;
#285 = EDGE_LOOP ( 'NONE', ( #444, #233, #348, #438, #171, #325 ) ) ;
#286 = ADVANCED_FACE ( 'NONE', ( #281 ), #141, .T. ) ;
#287 = CARTESIAN_POINT ( 'NONE',  ( -25.39999999999996305, 0.000000000000000000, 0.000000000000000000 ) ) ;
#288 = CARTESIAN_POINT ( 'NONE',  ( 0.3126073937187726082, 2.020725950994127995, -3.499999999999999556 ) ) ;
#289 = CARTESIAN_POINT ( 'NONE',  ( 0.3750000000000000000, 0.000000000000000000, 0.000000000000000000 ) ) ;
#290 = ORIENTED_EDGE ( 'NONE', *, *, #636, .T. ) ;
#291 = EDGE_CURVE ( 'NONE', #60, #208, #530, .T. ) ;
#292 = DIRECTION ( 'NONE',  ( 1.000000000000000000, 0.000000000000000000, 0.000000000000000000 ) ) ;
#293 = CARTESIAN_POINT ( 'NONE',  ( 0.000000000000000000, -3.031088919868172304, -1.750000011470933314 ) ) ;
#294 = DIRECTION ( 'NONE',  ( -1.000000000000000000, -0.000000000000000000, -0.000000000000000000 ) ) ;
#295 = ORIENTED_EDGE ( 'NONE', *, *, #612, .T. ) ;
#296 = AXIS2_PLACEMENT_3D ( 'NONE', #392, #585, #589 ) ;
#297 = VERTEX_POINT ( 'NONE', #283 ) ;
#298 = CARTESIAN_POINT ( 'NONE',  ( 11.00000000000000355, 0.000000000000000000, 0.000000000000000000 ) ) ;
#299 = DIRECTION ( 'NONE',  ( 1.000000000000000000, 0.000000000000000000, 0.000000000000000000 ) ) ;
#300 = ADVANCED_FACE ( 'NONE', ( #136 ), #332, .T. ) ;
#301 = ORIENTED_EDGE ( 'NONE', *, *, #75, .F. ) ;
#302 = CARTESIAN_POINT ( 'NONE',  ( 3.000000000000000000, 2.020725950994127995, -3.499999999999999556 ) ) ;
#303 = CARTESIAN_POINT ( 'NONE',  ( 0.000000000000000000, 0.000000000000000000, 0.000000000000000000 ) ) ;
#304 = DIRECTION ( 'NONE',  ( 0.000000000000000000, 0.000000000000000000, 1.000000000000000000 ) ) ;
#305 = DIRECTION ( 'NONE',  ( 1.000000000000000000, 0.000000000000000000, 0.000000000000000000 ) ) ;
#306 = APPLICATION_CONTEXT ( 'configuration controlled 3d designs of mechanical parts and assemblies' ) ;
#307 = AXIS2_PLACEMENT_3D ( 'NONE', #315, #356, #169 ) ;
#308 = PRODUCT_DEFINITION_FORMATION_WITH_SPECIFIED_SOURCE ( 'Symmetric', '', #149, .NOT_KNOWN. ) ;
#309 = CARTESIAN_POINT ( 'NONE',  ( 0.3126073937186985563, -2.020725950993872200, -3.499999999999999556 ) ) ;
#310 = DIRECTION ( 'NONE',  ( 1.000000000000000000, 0.000000000000000000, 0.000000000000000000 ) ) ;
#311 = B_SPLINE_CURVE_WITH_KNOTS ( 'NONE', 3,
 ( #364, #500, #106, #601, #212, #309 ),
 .UNSPECIFIED., .F., .F.,
 ( 4, 2, 4 ),
 ( 0.003521474110929349172, 0.004540988685918840098, 0.005560503260908330157 ),
 .UNSPECIFIED. ) ;
#312 = EDGE_CURVE ( 'NONE', #487, #245, #610, .T. ) ;
#313 = CARTESIAN_POINT ( 'NONE',  ( 0.000000000000000000, 3.031088919868363263, 1.750000011471045669 ) ) ;
#314 = DIRECTION ( 'NONE',  ( 0.000000000000000000, 0.000000000000000000, -1.000000000000000000 ) ) ;
#315 = CARTESIAN_POINT ( 'NONE',  ( 11.00000000000000355, 2.000000000000000000, 0.000000000000000000 ) ) ;
#316 = LINE ( 'NONE', #21, #237 ) ;
#317 = AXIS2_PLACEMENT_3D ( 'NONE', #251, #346, #153 ) ;
#318 = VECTOR ( 'NONE', #459, 1000.000000000000000 ) ;
#319 = CC_DESIGN_APPROVAL ( #504, ( #448 ) ) ;
#320 = PERSON_AND_ORGANIZATION_ROLE ( 'design_owner' ) ;
#321 = DIRECTION ( 'NONE',  ( 0.000000000000000000, 0.8660254028383240765, 0.5000000016387186053 ) ) ;
#322 = EDGE_CURVE ( 'NONE', #398, #297, #449, .T. ) ;
#323 = PERSON_AND_ORGANIZATION ( #18446744073709551615, #18446744073709551615 ) ;
#324 = CARTESIAN_POINT ( 'NONE',  ( 3.000000000000000888, 2.000000000000000000, 0.000000000000000000 ) ) ;
#325 = ORIENTED_EDGE ( 'NONE', *, *, #86, .F. ) ;
#326 = CC_DESIGN_PERSON_AND_ORGANIZATION_ASSIGNMENT ( #226, #320, ( #149 ) ) ;
#327 = DATE_AND_TIME ( #621, #277 ) ;
#328 = DIRECTION ( 'NONE',  ( -1.000000000000000000, 0.000000000000000000, 0.000000000000000000 ) ) ;
#329 = ORIENTED_EDGE ( 'NONE', *, *, #541, .F. ) ;
#330 = AXIS2_PLACEMENT_3D ( 'NONE', #303, #260, #617 ) ;
#331 = DIRECTION ( 'NONE',  ( 1.000000000000000000, 0.000000000000000000, 0.000000000000000000 ) ) ;
#332 = PLANE ( 'NONE',  #545 ) ;
#333 = ORIENTED_EDGE ( 'NONE', *, *, #399, .T. ) ;
#334 = CALENDAR_DATE ( 2026, 22, 6 ) ;
#335 = DIRECTION ( 'NONE',  ( 0.000000000000000000, -1.000000000000000000, 0.000000000000000000 ) ) ;
#336 = ORIENTED_EDGE ( 'NONE', *, *, #312, .T. ) ;
#337 = LINE ( 'NONE', #100, #53 ) ;
#338 = ORIENTED_EDGE ( 'NONE', *, *, #182, .F. ) ;
#339 = APPROVAL_PERSON_ORGANIZATION ( #525, #504, #128 ) ;
#340 = AXIS2_PLACEMENT_3D ( 'NONE', #129, #80, #275 ) ;
#341 = CYLINDRICAL_SURFACE ( 'NONE', #372, 2.000000000000000000 ) ;
#342 = CARTESIAN_POINT ( 'NONE',  ( 3.000000000000000000, 4.041451901988221351, 0.000000000000000000 ) ) ;
#343 = PRODUCT_DEFINITION_SHAPE ( 'NONE', 'NONE',  #448 ) ;
#344 = ADVANCED_FACE ( 'NONE', ( #474, #180 ), #570, .T. ) ;
#345 = FACE_OUTER_BOUND ( 'NONE', #229, .T. ) ;
#346 = DIRECTION ( 'NONE',  ( -1.000000000000000000, 0.000000000000000000, 0.000000000000000000 ) ) ;
#347 = FACE_OUTER_BOUND ( 'NONE', #37, .T. ) ;
#348 = ORIENTED_EDGE ( 'NONE', *, *, #399, .F. ) ;
#349 = EDGE_LOOP ( 'NONE', ( #235, #333, #380, #485, #366 ) ) ;
#350 = CARTESIAN_POINT ( 'NONE',  ( 0.000000000000000000, 3.031088919868363263, 1.750000011471045669 ) ) ;
#351 = AXIS2_PLACEMENT_3D ( 'NONE', #542, #294, #304 ) ;
#352 = CARTESIAN_POINT ( 'NONE',  ( 0.3750000000000000000, 0.000000000000000000, 0.000000000000000000 ) ) ;
#353 = DIRECTION ( 'NONE',  ( -1.000000000000000000, -0.000000000000000000, -0.000000000000000000 ) ) ;
#354 = ORIENTED_EDGE ( 'NONE', *, *, #75, .T. ) ;
#355 = EDGE_LOOP ( 'NONE', ( #626, #261, #101 ) ) ;
#356 = DIRECTION ( 'NONE',  ( 1.000000000000000000, 0.000000000000000000, 0.000000000000000000 ) ) ;
#357 = CARTESIAN_POINT ( 'NONE',  ( 0.3126073937186985563, -2.020725950993872200, 3.499999999999999556 ) ) ;
#358 = EDGE_LOOP ( 'NONE', ( #378, #81, #88 ) ) ;
#359 = CARTESIAN_POINT ( 'NONE',  ( 0.000000000000000000, 0.000000000000000000, 3.499999999999999556 ) ) ;
#360 = CARTESIAN_POINT ( 'NONE',  ( 0.000000000000000000, -3.031088919868170972, 1.750000011470934647 ) ) ;
#361 = AXIS2_PLACEMENT_3D ( 'NONE', #109, #15, #564 ) ;
#362 = VECTOR ( 'NONE', #457, 1000.000000000000000 ) ;
#363 = EDGE_CURVE ( 'NONE', #22, #208, #114, .T. ) ;
#364 = CARTESIAN_POINT ( 'NONE',  ( 0.000000000000000000, 0.000000000000000000, -3.499999999999999556 ) ) ;
#365 = LINE ( 'NONE', #605, #410 ) ;
#366 = ORIENTED_EDGE ( 'NONE', *, *, #144, .F. ) ;
#367 = DIRECTION ( 'NONE',  ( -1.000000000000000000, -0.000000000000000000, -0.000000000000000000 ) ) ;
#368 = CARTESIAN_POINT ( 'NONE',  ( 0.3750000000000000000, 3.750480822388769336E-16, -3.062500000000000000 ) ) ;
#369 = PERSON_AND_ORGANIZATION_ROLE ( 'creator' ) ;
#370 = ADVANCED_FACE ( 'NONE', ( #103 ), #446, .T. ) ;
#371 = CARTESIAN_POINT ( 'NONE',  ( 0.3126073937187726082, 2.020725950994127995, -3.499999999999999556 ) ) ;
#372 = AXIS2_PLACEMENT_3D ( 'NONE', #287, #583, #202 ) ;
#373 = APPROVAL_ROLE ( '' ) ;
#374 = CARTESIAN_POINT ( 'NONE',  ( 6.676650874169420467E-09, 3.202582157752183800, 1.452965011599789857 ) ) ;
#375 = DATE_AND_TIME ( #624, #11 ) ;
#376 = CARTESIAN_POINT ( 'NONE',  ( 6.676521757690315275E-09, -3.202582157751975966, -1.452965011599707923 ) ) ;
#377 = DESIGN_CONTEXT ( 'detailed design', #306, 'design' ) ;
#378 = ORIENTED_EDGE ( 'NONE', *, *, #572, .T. ) ;
#379 = CARTESIAN_POINT ( 'NONE',  ( 3.000000000000002665, 0.000000000000000000, 0.000000000000000000 ) ) ;
#380 = ORIENTED_EDGE ( 'NONE', *, *, #291, .T. ) ;
#381 = EDGE_CURVE ( 'NONE', #253, #145, #192, .T. ) ;
#382 = AXIS2_PLACEMENT_3D ( 'NONE', #379, #90, #622 ) ;
#383 = DIRECTION ( 'NONE',  ( 1.000000000000000000, 0.000000000000000000, 0.000000000000000000 ) ) ;
#384 = ORIENTED_EDGE ( 'NONE', *, *, #247, .T. ) ;
#385 = CC_DESIGN_DATE_AND_TIME_ASSIGNMENT ( #89, #178, ( #448 ) ) ;
#386 = LINE ( 'NONE', #146, #206 ) ;
#387 = ORIENTED_EDGE ( 'NONE', *, *, #630, .F. ) ;
#388 = DIRECTION ( 'NONE',  ( 0.000000000000000000, 0.000000000000000000, -1.000000000000000000 ) ) ;
#389 = EDGE_CURVE ( 'NONE', #245, #487, #524, .T. ) ;
#390 = ORIENTED_EDGE ( 'NONE', *, *, #389, .F. ) ;
#391 = CIRCLE ( 'NONE', #198, 3.499999999999999556 ) ;
#392 = CARTESIAN_POINT ( 'NONE',  ( 0.3750000000000000000, 0.000000000000000000, 0.000000000000000000 ) ) ;
#393 = ORIENTED_EDGE ( 'NONE', *, *, #209, .T. ) ;
#394 = DIRECTION ( 'NONE',  ( 1.000000000000000000, 0.000000000000000000, 0.000000000000000000 ) ) ;
#395 = FACE_OUTER_BOUND ( 'NONE', #519, .T. ) ;
#396 = CARTESIAN_POINT ( 'NONE',  ( 3.000000000000000000, -2.020725950993872200, 3.499999999999999556 ) ) ;
#397 = DIRECTION ( 'NONE',  ( 0.000000000000000000, 0.000000000000000000, 1.000000000000000000 ) ) ;
#398 = VERTEX_POINT ( 'NONE', #350 ) ;
#399 = EDGE_CURVE ( 'NONE', #632, #60, #386, .T. ) ;
#400 = LINE ( 'NONE', #68, #318 ) ;
#401 = ORIENTED_EDGE ( 'NONE', *, *, #312, .F. ) ;
#402 = APPROVAL ( #421, 'Coincident' ) ;
#403 = CARTESIAN_POINT ( 'NONE',  ( 6.514747941568026722E-09, 2.686816022362723544, 2.346298159013993079 ) ) ;
#404 = CARTESIAN_POINT ( 'NONE',  ( 2.541098841762899091E-18, 0.3416723659039279659, -3.499999999999999556 ) ) ;
#405 = CARTESIAN_POINT ( 'NONE',  ( -25.39999999999996305, 0.000000000000000000, 2.000000000000000000 ) ) ;
#406 = CARTESIAN_POINT ( 'NONE',  ( 0.1217565349673713909, -2.351289338267686713, -2.927447420621692054 ) ) ;
#407 = ADVANCED_FACE ( 'NONE', ( #199 ), #341, .T. ) ;
#408 = DIRECTION ( 'NONE',  ( 0.000000000000000000, 1.000000000000000000, 0.000000000000000000 ) ) ;
#409 = CARTESIAN_POINT ( 'NONE',  ( 0.000000000000000000, 0.000000000000000000, 0.000000000000000000 ) ) ;
#410 = VECTOR ( 'NONE', #506, 1000.000000000000227 ) ;
#411 = ORIENTED_EDGE ( 'NONE', *, *, #291, .F. ) ;
#412 = DIRECTION ( 'NONE',  ( -1.000000000000000000, 0.000000000000000000, 0.000000000000000000 ) ) ;
#413 = CARTESIAN_POINT ( 'NONE',  ( 0.3126073937186985563, -2.020725950993872200, -3.499999999999999556 ) ) ;
#414 = ADVANCED_FACE ( 'NONE', ( #547 ), #489, .T. ) ;
#415 = PERSON_AND_ORGANIZATION ( #18446744073709551615, #18446744073709551615 ) ;
#416 = CARTESIAN_POINT ( 'NONE',  ( 0.000000000000000000, -3.031088919868170972, 1.750000011470934647 ) ) ;
#417 = APPROVAL_STATUS ( 'not_yet_approved' ) ;
#418 = CARTESIAN_POINT ( 'NONE',  ( 0.3126073937186985563, -2.020725950993872200, 3.499999999999999556 ) ) ;
#419 = AXIS2_PLACEMENT_3D ( 'NONE', #6, #55, #634 ) ;
#420 = AXIS2_PLACEMENT_3D ( 'NONE', #289, #244, #45 ) ;
#421 = APPROVAL_STATUS ( 'not_yet_approved' ) ;
#422 = CARTESIAN_POINT ( 'NONE',  ( 3.000000000000000000, 2.020725950994127995, 3.499999999999999556 ) ) ;
#423 = ORIENTED_EDGE ( 'NONE', *, *, #427, .T. ) ;
#424 = PERSON_AND_ORGANIZATION_ROLE ( 'design_supplier' ) ;
#425 = DIRECTION ( 'NONE',  ( -1.000000000000000000, -0.000000000000000000, -0.000000000000000000 ) ) ;
#426 = EDGE_LOOP ( 'NONE', ( #190, #548, #138, #584, #552, #496 ) ) ;
#427 = EDGE_CURVE ( 'NONE', #60, #253, #337, .T. ) ;
#428 = DIRECTION ( 'NONE',  ( 0.000000000000000000, 0.000000000000000000, 1.000000000000000000 ) ) ;
#429 = CARTESIAN_POINT ( 'NONE',  ( 0.000000000000000000, 0.000000000000000000, 0.000000000000000000 ) ) ;
#430 = ORIENTED_EDGE ( 'NONE', *, *, #266, .F. ) ;
#431 = AXIS2_PLACEMENT_3D ( 'NONE', #464, #383, #580 ) ;
#432 = DIRECTION ( 'NONE',  ( 0.000000000000000000, 0.000000000000000000, 1.000000000000000000 ) ) ;
#433 = ORIENTED_EDGE ( 'NONE', *, *, #41, .F. ) ;
#434 = EDGE_CURVE ( 'NONE', #22, #130, #535, .T. ) ;
#435 = DIRECTION ( 'NONE',  ( -1.000000000000000000, -0.000000000000000000, -0.000000000000000000 ) ) ;
#436 = EDGE_LOOP ( 'NONE', ( #99, #628, #433 ) ) ;
#437 = CARTESIAN_POINT ( 'NONE',  ( 0.3126073937187726082, 2.020725950994127995, -3.499999999999999556 ) ) ;
#438 = ORIENTED_EDGE ( 'NONE', *, *, #254, .F. ) ;
#439 = CLOSED_SHELL ( 'NONE', ( #470, #407, #272, #370, #562, #499, #286, #7, #551, #531, #300, #414, #111, #164, #445, #191, #344, #479, #28, #491 ) ) ;
#440 = AXIS2_PLACEMENT_3D ( 'NONE', #481, #435, #98 ) ;
#441 = CARTESIAN_POINT ( 'NONE',  ( 0.000000000000000000, 3.750480822388769336E-16, -3.062500000000000000 ) ) ;
#442 = VERTEX_POINT ( 'NONE', #635 ) ;
#443 = DIRECTION ( 'NONE',  ( 0.000000000000000000, 0.000000000000000000, -1.000000000000000000 ) ) ;
#444 = ORIENTED_EDGE ( 'NONE', *, *, #619, .F. ) ;
#445 = ADVANCED_FACE ( 'NONE', ( #494 ), #94, .T. ) ;
#446 = CYLINDRICAL_SURFACE ( 'NONE', #84, 2.000000000000000000 ) ;
#447 = ORIENTED_EDGE ( 'NONE', *, *, #600, .T. ) ;
#448 = PRODUCT_DEFINITION ( 'General', '', #308, #377 ) ;
#449 = B_SPLINE_CURVE_WITH_KNOTS ( 'NONE', 3,
 ( #631, #374, #87, #516, #271, #574 ),
 .UNSPECIFIED., .F., .F.,
 ( 4, 2, 4 ),
 ( 0.002044882210875739650, 0.003063384231942535216, 0.004081886253009330348 ),
 .UNSPECIFIED. ) ;
#450 = DIRECTION ( 'NONE',  ( 0.000000000000000000, 0.8660254028383240765, -0.5000000016387186053 ) ) ;
#451 = AXIS2_PLACEMENT_3D ( 'NONE', #409, #305, #115 ) ;
#452 = DIRECTION ( 'NONE',  ( -1.000000000000000000, 0.000000000000000000, 0.000000000000000000 ) ) ;
#453 = EDGE_CURVE ( 'NONE', #297, #578, #47, .T. ) ;
#454 = CARTESIAN_POINT ( 'NONE',  ( 3.000000000000000000, 4.041451901988221351, 0.000000000000000000 ) ) ;
#455 = DIRECTION ( 'NONE',  ( -1.000000000000000000, 0.000000000000000000, 0.000000000000000000 ) ) ;
#456 = PLANE ( 'NONE',  #588 ) ;
#457 = DIRECTION ( 'NONE',  ( -1.000000000000000000, 0.000000000000000000, 0.000000000000000000 ) ) ;
#458 = ORIENTED_EDGE ( 'NONE', *, *, #322, .F. ) ;
#459 = DIRECTION ( 'NONE',  ( -1.000000000000000000, -0.000000000000000000, -0.000000000000000000 ) ) ;
#460 = DIRECTION ( 'NONE',  ( 1.000000000000000000, 0.000000000000000000, 0.000000000000000000 ) ) ;
#461 = PERSON_AND_ORGANIZATION ( #18446744073709551615, #18446744073709551615 ) ;
#462 = CARTESIAN_POINT ( 'NONE',  ( 6.676521758396171653E-09, -2.859595684198853238, 2.047035007506559534 ) ) ;
#463 = DATE_AND_TIME ( #515, #258 ) ;
#464 = CARTESIAN_POINT ( 'NONE',  ( 0.3750000000000000000, 0.000000000000000000, 0.000000000000000000 ) ) ;
#465 = CARTESIAN_POINT ( 'NONE',  ( 0.000000000000000000, -3.031088919868172304, -1.750000011470933314 ) ) ;
#466 = APPROVAL_PERSON_ORGANIZATION ( #573, #402, #135 ) ;
#467 = EDGE_LOOP ( 'NONE', ( #329, #336, #66, #593 ) ) ;
#468 = CIRCLE ( 'NONE', #257, 2.000000000000000000 ) ;
#469 = APPLICATION_PROTOCOL_DEFINITION ( 'international standard', 'config_control_design', 1994, #639 ) ;
#470 = ADVANCED_FACE ( 'NONE', ( #347 ), #54, .F. ) ;
#471 = CARTESIAN_POINT ( 'NONE',  ( 3.000000000000000000, -2.020725950993872200, 3.499999999999999556 ) ) ;
#472 = ORIENTED_EDGE ( 'NONE', *, *, #221, .F. ) ;
#473 = COORDINATED_UNIVERSAL_TIME_OFFSET ( 10, 0, .AHEAD. ) ;
#474 = FACE_BOUND ( 'NONE', #40, .T. ) ;
#475 = ORIENTED_EDGE ( 'NONE', *, *, #95, .T. ) ;
#476 = DIRECTION ( 'NONE',  ( 0.000000000000000000, -0.5000000016387184942, -0.8660254028383240765 ) ) ;
#477 = VERTEX_POINT ( 'NONE', #437 ) ;
#478 = CIRCLE ( 'NONE', #361, 3.062500000000000000 ) ;
#479 = ADVANCED_FACE ( 'NONE', ( #633 ), #249, .T. ) ;
#480 = CIRCLE ( 'NONE', #431, 3.062500000000000000 ) ;
#481 = CARTESIAN_POINT ( 'NONE',  ( 0.000000000000000000, 0.000000000000000000, 0.000000000000000000 ) ) ;
#482 = CARTESIAN_POINT ( 'NONE',  ( 0.2182856434185674321, 1.693985824507443505, -3.499999999999999112 ) ) ;
#483 = PRODUCT_RELATED_PRODUCT_CATEGORY ( 'detail', '', ( #149 ) ) ;
#484 = DIRECTION ( 'NONE',  ( 0.000000000000000000, 0.5000000016387186053, 0.8660254028383240765 ) ) ;
#485 = ORIENTED_EDGE ( 'NONE', *, *, #363, .F. ) ;
#486 = PLANE ( 'NONE',  #148 ) ;
#487 = VERTEX_POINT ( 'NONE', #252 ) ;
#488 = VECTOR ( 'NONE', #452, 1000.000000000000000 ) ;
#489 = CONICAL_SURFACE ( 'NONE', #629, 3.499999999999999556, 1.047197551196595855 ) ;
#490 = CARTESIAN_POINT ( 'NONE',  ( 3.000000000000000000, -2.020725950993872200, 3.499999999999999556 ) ) ;
#491 = ADVANCED_FACE ( 'NONE', ( #592 ), #242, .F. ) ;
#492 = ORIENTED_EDGE ( 'NONE', *, *, #67, .F. ) ;
#493 = ORIENTED_EDGE ( 'NONE', *, *, #381, .T. ) ;
#494 = FACE_OUTER_BOUND ( 'NONE', #436, .T. ) ;
#495 = DIRECTION ( 'NONE',  ( 0.000000000000000000, 0.000000000000000000, -1.000000000000000000 ) ) ;
#496 = ORIENTED_EDGE ( 'NONE', *, *, #513, .T. ) ;
#497 = CARTESIAN_POINT ( 'NONE',  ( 0.03016325070096853578, 0.6879905077037600236, 3.500000000000000444 ) ) ;
#498 = FACE_OUTER_BOUND ( 'NONE', #355, .T. ) ;
#499 = ADVANCED_FACE ( 'NONE', ( #345 ), #486, .T. ) ;
#500 = CARTESIAN_POINT ( 'NONE',  ( -4.517509052022936426E-18, -0.3414694829721217073, -3.500000000000000444 ) ) ;
#501 = CIRCLE ( 'NONE', #72, 3.499999999999999556 ) ;
#502 = FACE_OUTER_BOUND ( 'NONE', #358, .T. ) ;
#503 = VECTOR ( 'NONE', #408, 1000.000000000000000 ) ;
#504 = APPROVAL ( #79, 'Coincident' ) ;
#505 = FACE_OUTER_BOUND ( 'NONE', #280, .T. ) ;
#506 = DIRECTION ( 'NONE',  ( 0.000000000000000000, 0.5000000016387186053, -0.8660254028383240765 ) ) ;
#507 = VERTEX_POINT ( 'NONE', #441 ) ;
#508 = CARTESIAN_POINT ( 'NONE',  ( 3.000000000000000000, 4.041451901988221351, 0.000000000000000000 ) ) ;
#509 = CARTESIAN_POINT ( 'NONE',  ( 0.000000000000000000, 3.031088919868363707, -1.750000011471045225 ) ) ;
#510 = CARTESIAN_POINT ( 'NONE',  ( 0.3126073937187726082, 2.020725950994127995, 3.499999999999999556 ) ) ;
#511 = CARTESIAN_POINT ( 'NONE',  ( 0.000000000000000000, 0.000000000000000000, -3.499999999999999556 ) ) ;
#512 = AXIS2_PLACEMENT_3D ( 'NONE', #298, #49, #194 ) ;
#513 = EDGE_CURVE ( 'NONE', #130, #532, #598, .T. ) ;
#514 = APPROVAL_PERSON_ORGANIZATION ( #461, #555, #373 ) ;
#515 = CALENDAR_DATE ( 2026, 22, 6 ) ;
#516 = CARTESIAN_POINT ( 'NONE',  ( 0.1388410694583374350, 3.710337796501202767, 0.5735064513000605046 ) ) ;
#517 = PERSON_AND_ORGANIZATION_ROLE ( 'creator' ) ;
#518 = CARTESIAN_POINT ( 'NONE',  ( 0.2177329433491055899, -1.692071215310428700, 3.499999999999999112 ) ) ;
#519 = EDGE_LOOP ( 'NONE', ( #538, #594, #8, #161 ) ) ;
#520 = EDGE_CURVE ( 'NONE', #398, #578, #501, .T. ) ;
#521 =( NAMED_UNIT ( * ) PLANE_ANGLE_UNIT ( ) SI_UNIT ( $, .RADIAN. ) );
#522 = CARTESIAN_POINT ( 'NONE',  ( 0.2174200742321852065, -3.876582615156460854, -0.2855619801519294065 ) ) ;
#523 = ORIENTED_EDGE ( 'NONE', *, *, #453, .T. ) ;
#524 = CIRCLE ( 'NONE', #512, 2.000000000000000000 ) ;
#525 = PERSON_AND_ORGANIZATION ( #18446744073709551615, #18446744073709551615 ) ;
#526 = CARTESIAN_POINT ( 'NONE',  ( 11.00000000000000355, 0.000000000000000000, 0.000000000000000000 ) ) ;
#527 = VERTEX_POINT ( 'NONE', #549 ) ;
#528 = B_SPLINE_CURVE_WITH_KNOTS ( 'NONE', 3,
 ( #215, #255, #403, #313 ),
 .UNSPECIFIED., .F., .F.,
 ( 4, 4 ),
 ( 2.380739283418014269E-07, 0.002044882210875739650 ),
 .UNSPECIFIED. ) ;
#529 = DATE_AND_TIME ( #334, #638 ) ;
#530 = LINE ( 'NONE', #184, #218 ) ;
#531 = ADVANCED_FACE ( 'NONE', ( #505 ), #120, .T. ) ;
#532 = VERTEX_POINT ( 'NONE', #162 ) ;
#533 = CARTESIAN_POINT ( 'NONE',  ( 0.000000000000000000, 0.000000000000000000, 0.000000000000000000 ) ) ;
#534 = ORIENTED_EDGE ( 'NONE', *, *, #95, .F. ) ;
#535 = CIRCLE ( 'NONE', #440, 3.499999999999999556 ) ;
#536 =( GEOMETRIC_REPRESENTATION_CONTEXT ( 3 ) GLOBAL_UNCERTAINTY_ASSIGNED_CONTEXT ( ( #546 ) ) GLOBAL_UNIT_ASSIGNED_CONTEXT ( ( #159, #521, #29 ) ) REPRESENTATION_CONTEXT ( 'NONE', 'WORKASPACE' ) );
#537 = CARTESIAN_POINT ( 'NONE',  ( 0.1217565383448655641, 3.710888510568822962, -0.5725525865586696961 ) ) ;
#538 = ORIENTED_EDGE ( 'NONE', *, *, #174, .F. ) ;
#539 = DIRECTION ( 'NONE',  ( 1.000000000000000000, 0.000000000000000000, 0.000000000000000000 ) ) ;
#540 = ORIENTED_EDGE ( 'NONE', *, *, #572, .F. ) ;
#541 = EDGE_CURVE ( 'NONE', #487, #151, #400, .T. ) ;
#542 = CARTESIAN_POINT ( 'NONE',  ( 0.000000000000000000, 0.000000000000000000, 0.000000000000000000 ) ) ;
#543 = ORIENTED_EDGE ( 'NONE', *, *, #154, .F. ) ;
#544 = EDGE_LOOP ( 'NONE', ( #241, #571, #384 ) ) ;
#545 = AXIS2_PLACEMENT_3D ( 'NONE', #422, #321, #620 ) ;
#546 = UNCERTAINTY_MEASURE_WITH_UNIT (LENGTH_MEASURE( 1.000000000000000082E-05 ), #159, 'distance_accuracy_value', 'NONE');
#547 = FACE_OUTER_BOUND ( 'NONE', #544, .T. ) ;
#548 = ORIENTED_EDGE ( 'NONE', *, *, #520, .T. ) ;
#549 = CARTESIAN_POINT ( 'NONE',  ( 0.3750000000000000000, 3.750480822388769336E-16, -3.062500000000000000 ) ) ;
#550 = DIRECTION ( 'NONE',  ( -1.000000000000000000, -0.000000000000000000, -0.000000000000000000 ) ) ;
#551 = ADVANCED_FACE ( 'NONE', ( #609 ), #456, .T. ) ;
#552 = ORIENTED_EDGE ( 'NONE', *, *, #434, .T. ) ;
#553 = LINE ( 'NONE', #166, #112 ) ;
#554 = CARTESIAN_POINT ( 'NONE',  ( 0.2174200687204574656, -2.185595235747507914, 3.214438023447044213 ) ) ;
#555 = APPROVAL ( #417, 'Coincident' ) ;
#556 = ORIENTED_EDGE ( 'NONE', *, *, #541, .T. ) ;
#557 = DIRECTION ( 'NONE',  ( 0.000000000000000000, 0.5000000016387186053, 0.8660254028383240765 ) ) ;
#558 = AXIS2_PLACEMENT_3D ( 'NONE', #526, #42, #432 ) ;
#559 = CARTESIAN_POINT ( 'NONE',  ( 3.000000000000000000, 2.020725950994127995, -3.499999999999999556 ) ) ;
#560 = CARTESIAN_POINT ( 'NONE',  ( 0.3126073937187726082, 2.020725950994127995, 3.499999999999999556 ) ) ;
#561 = CARTESIAN_POINT ( 'NONE',  ( 0.1388410658597212244, -2.351840052279348114, 2.926493555977222716 ) ) ;
#562 = ADVANCED_FACE ( 'NONE', ( #14 ), #18, .T. ) ;
#563 = CARTESIAN_POINT ( 'NONE',  ( 0.000000000000000000, 0.000000000000000000, 3.062500000000000000 ) ) ;
#564 = DIRECTION ( 'NONE',  ( 0.000000000000000000, 0.000000000000000000, -1.000000000000000000 ) ) ;
#565 = LOCAL_TIME ( 18, 50, 25.00000000000000000, #273 ) ;
#566 = CARTESIAN_POINT ( 'NONE',  ( 0.000000000000000000, 0.000000000000000000, 0.000000000000000000 ) ) ;
#567 = LINE ( 'NONE', #188, #24 ) ;
#568 = CIRCLE ( 'NONE', #382, 2.000000000000000000 ) ;
#569 = DATE_TIME_ROLE ( 'classification_date' ) ;
#570 = PLANE ( 'NONE',  #340 ) ;
#571 = ORIENTED_EDGE ( 'NONE', *, *, #154, .T. ) ;
#572 = EDGE_CURVE ( 'NONE', #116, #637, #311, .T. ) ;
#573 = PERSON_AND_ORGANIZATION ( #18446744073709551615, #18446744073709551615 ) ;
#574 = CARTESIAN_POINT ( 'NONE',  ( 0.3126074013661362394, 4.041451901988221351, -2.275773995989590083E-17 ) ) ;
#575 = ORIENTED_EDGE ( 'NONE', *, *, #121, .F. ) ;
#576 = ADVANCED_BREP_SHAPE_REPRESENTATION ( 'hex screw_am_B18.6.7M - M4 x 0.7 x 8 Indented HHMS --8N', ( #284, #618 ), #536 ) ;
#577 = FACE_OUTER_BOUND ( 'NONE', #285, .T. ) ;
#578 = VERTEX_POINT ( 'NONE', #262 ) ;
#579 = AXIS2_PLACEMENT_3D ( 'NONE', #69, #460, #611 ) ;
#580 = DIRECTION ( 'NONE',  ( 0.000000000000000000, 0.000000000000000000, -1.000000000000000000 ) ) ;
#581 = ORIENTED_EDGE ( 'NONE', *, *, #182, .T. ) ;
#582 = CC_DESIGN_PERSON_AND_ORGANIZATION_ASSIGNMENT ( #32, #616, ( #268 ) ) ;
#583 = DIRECTION ( 'NONE',  ( -1.000000000000000000, -0.000000000000000000, -0.000000000000000000 ) ) ;
#584 = ORIENTED_EDGE ( 'NONE', *, *, #201, .T. ) ;
#585 = DIRECTION ( 'NONE',  ( 1.000000000000000000, 0.000000000000000000, 0.000000000000000000 ) ) ;
#586 = ORIENTED_EDGE ( 'NONE', *, *, #322, .T. ) ;
#587 = CIRCLE ( 'NONE', #110, 3.499999999999999556 ) ;
#588 = AXIS2_PLACEMENT_3D ( 'NONE', #302, #269, #412 ) ;
#589 = DIRECTION ( 'NONE',  ( 0.000000000000000000, 0.000000000000000000, -1.000000000000000000 ) ) ;
#590 = EDGE_LOOP ( 'NONE', ( #586, #523, #16 ) ) ;
#591 = EDGE_CURVE ( 'NONE', #245, #181, #64, .T. ) ;
#592 = FACE_OUTER_BOUND ( 'NONE', #596, .T. ) ;
#593 = ORIENTED_EDGE ( 'NONE', *, *, #227, .F. ) ;
#594 = ORIENTED_EDGE ( 'NONE', *, *, #266, .T. ) ;
#595 = CARTESIAN_POINT ( 'NONE',  ( 0.000000000000000000, 3.031088919868363707, -1.750000011471045225 ) ) ;
#596 = EDGE_LOOP ( 'NONE', ( #50, #430 ) ) ;
#597 = VERTEX_POINT ( 'NONE', #563 ) ;
#598 = CIRCLE ( 'NONE', #351, 3.499999999999999556 ) ;
#599 = VECTOR ( 'NONE', #604, 1000.000000000000000 ) ;
#600 = EDGE_CURVE ( 'NONE', #532, #603, #70, .T. ) ;
#601 = CARTESIAN_POINT ( 'NONE',  ( 0.1381584183287278000, -1.355464328889010917, -3.500000000000000000 ) ) ;
#602 = EDGE_LOOP ( 'NONE', ( #411, #423, #493, #543, #575 ) ) ;
#603 = VERTEX_POINT ( 'NONE', #510 ) ;
#604 = DIRECTION ( 'NONE',  ( -1.000000000000000000, 0.000000000000000000, 0.000000000000000000 ) ) ;
#605 = CARTESIAN_POINT ( 'NONE',  ( 3.000000000000000000, 2.020725950994127995, 3.499999999999999556 ) ) ;
#606 = EDGE_LOOP ( 'NONE', ( #338, #264, #295, #540, #492 ) ) ;
#607 = CARTESIAN_POINT ( 'NONE',  ( 0.1397344976201184141, 1.362959805011086489, 3.499999999999998224 ) ) ;
#608 = CARTESIAN_POINT ( 'NONE',  ( 0.3126074013659880801, -4.041451901987964668, 0.000000000000000000 ) ) ;
#609 = FACE_OUTER_BOUND ( 'NONE', #606, .T. ) ;
#610 = CIRCLE ( 'NONE', #558, 2.000000000000000000 ) ;
#611 = DIRECTION ( 'NONE',  ( 0.000000000000000000, 0.000000000000000000, -1.000000000000000000 ) ) ;
#612 = EDGE_CURVE ( 'NONE', #632, #637, #553, .T. ) ;
#613 = VERTEX_POINT ( 'NONE', #210 ) ;
#614 = DIRECTION ( 'NONE',  ( -1.000000000000000000, 0.000000000000000000, 0.000000000000000000 ) ) ;
#615 = LINE ( 'NONE', #368, #362 ) ;
#616 = PERSON_AND_ORGANIZATION_ROLE ( 'classification_officer' ) ;
#617 = DIRECTION ( 'NONE',  ( 0.000000000000000000, 0.000000000000000000, -1.000000000000000000 ) ) ;
#618 = AXIS2_PLACEMENT_3D ( 'NONE', #566, #428, #331 ) ;
#619 = EDGE_CURVE ( 'NONE', #253, #442, #113, .T. ) ;
#620 = DIRECTION ( 'NONE',  ( 0.000000000000000000, -0.5000000016387186053, 0.8660254028383240765 ) ) ;
#621 = CALENDAR_DATE ( 2026, 22, 6 ) ;
#622 = DIRECTION ( 'NONE',  ( 0.000000000000000000, 0.000000000000000000, 1.000000000000000000 ) ) ;
#623 = VERTEX_POINT ( 'NONE', #61 ) ;
#624 = CALENDAR_DATE ( 2026, 22, 6 ) ;
#625 = CARTESIAN_POINT ( 'NONE',  ( 3.000000000000000000, -4.041451901987964668, 0.000000000000000000 ) ) ;
#626 = ORIENTED_EDGE ( 'NONE', *, *, #434, .F. ) ;
#627 = CARTESIAN_POINT ( 'NONE',  ( 0.02935131191710041096, -0.6807266294575065047, 3.499999999999999556 ) ) ;
#628 = ORIENTED_EDGE ( 'NONE', *, *, #67, .T. ) ;
#629 = AXIS2_PLACEMENT_3D ( 'NONE', #143, #292, #443 ) ;
#630 = EDGE_CURVE ( 'NONE', #603, #398, #528, .T. ) ;
#631 = CARTESIAN_POINT ( 'NONE',  ( 0.000000000000000000, 3.031088919868363263, 1.750000011471045669 ) ) ;
#632 = VERTEX_POINT ( 'NONE', #118 ) ;
#633 = FACE_OUTER_BOUND ( 'NONE', #590, .T. ) ;
#634 = DIRECTION ( 'NONE',  ( 0.000000000000000000, 0.5000000016387184942, -0.8660254028383240765 ) ) ;
#635 = CARTESIAN_POINT ( 'NONE',  ( 3.000000000000000888, 2.020725950994127551, 3.500000000000000000 ) ) ;
#636 = EDGE_CURVE ( 'NONE', #623, #297, #73, .T. ) ;
#637 = VERTEX_POINT ( 'NONE', #204 ) ;
#638 = LOCAL_TIME ( 18, 50, 25.00000000000000000, #125 ) ;
#639 = APPLICATION_CONTEXT ( 'configuration controlled 3d designs of mechanical parts and assemblies' ) ;
ENDSEC;
END-ISO-10303-21;
