ISO-10303-21;
HEADER;
FILE_DESCRIPTION (( 'STEP AP203' ),
    '1' );
FILE_NAME ('item_37009_cap-5-20x20-black-37009__high.step.STEP',
    '2026-06-22T08:50:25',
    ( 'localuser' ),
    ( '' ),
    'SwSTEP 2.0',
    'SolidWorks 2025',
    '' );
FILE_SCHEMA (( 'CONFIG_CONTROL_DESIGN' ));
ENDSEC;

DATA;
#1 = AXIS2_PLACEMENT_3D ( 'NONE', #276, #93, #11 ) ;
#2 = VECTOR ( 'NONE', #434, 1000.000000000000000 ) ;
#3 =( LENGTH_UNIT ( ) NAMED_UNIT ( * ) SI_UNIT ( .MILLI., .METRE. ) );
#4 = CYLINDRICAL_SURFACE ( 'NONE', #40, 1.500000000000000000 ) ;
#5 = EDGE_LOOP ( 'NONE', ( #186, #544, #13, #145 ) ) ;
#6 = CARTESIAN_POINT ( 'NONE',  ( 10.00000000000000000, -8.000000000000000000, 0.000000000000000000 ) ) ;
#7 = DIRECTION ( 'NONE',  ( -1.000000000000000000, 0.000000000000000000, 0.000000000000000000 ) ) ;
#8 = EDGE_CURVE ( 'NONE', #119, #530, #225, .T. ) ;
#9 = ORIENTED_EDGE ( 'NONE', *, *, #538, .F. ) ;
#10 = DATE_AND_TIME ( #234, #560 ) ;
#11 = DIRECTION ( 'NONE',  ( 0.000000000000000000, 1.000000000000000000, 0.000000000000000000 ) ) ;
#12 = SECURITY_CLASSIFICATION ( '', '', #290 ) ;
#13 = ORIENTED_EDGE ( 'NONE', *, *, #101, .F. ) ;
#14 = AXIS2_PLACEMENT_3D ( 'NONE', #577, #446, #227 ) ;
#15 = LOCAL_TIME ( 18, 50, 25.00000000000000000, #334 ) ;
#16 = PERSON_AND_ORGANIZATION ( #18446744073709551615, #18446744073709551615 ) ;
#17 = CARTESIAN_POINT ( 'NONE',  ( 8.500000000000000000, 0.000000000000000000, 2.500000000000000000 ) ) ;
#18 = ORIENTED_EDGE ( 'NONE', *, *, #84, .T. ) ;
#19 = CALENDAR_DATE ( 2026, 22, 6 ) ;
#20 = CARTESIAN_POINT ( 'NONE',  ( -6.000000000000000000, -8.500000000000000000, 2.500000000000000000 ) ) ;
#21 = VERTEX_POINT ( 'NONE', #86 ) ;
#22 = DIRECTION ( 'NONE',  ( 0.000000000000000000, 0.000000000000000000, 1.000000000000000000 ) ) ;
#23 = ORIENTED_EDGE ( 'NONE', *, *, #485, .T. ) ;
#24 = AXIS2_PLACEMENT_3D ( 'NONE', #562, #118, #210 ) ;
#25 = PLANE ( 'NONE',  #329 ) ;
#26 = DIRECTION ( 'NONE',  ( -0.000000000000000000, 1.000000000000000000, 0.000000000000000000 ) ) ;
#27 = EDGE_CURVE ( 'NONE', #125, #525, #82, .T. ) ;
#28 = DIRECTION ( 'NONE',  ( -1.000000000000000000, -1.734723475976807094E-15, 0.000000000000000000 ) ) ;
#29 = AXIS2_PLACEMENT_3D ( 'NONE', #443, #402, #492 ) ;
#30 = CARTESIAN_POINT ( 'NONE',  ( -10.00000000000000000, -8.000000000000000000, 0.000000000000000000 ) ) ;
#31 = AXIS2_PLACEMENT_3D ( 'NONE', #43, #220, #398 ) ;
#32 = AXIS2_PLACEMENT_3D ( 'NONE', #267, #405, #140 ) ;
#33 = VERTEX_POINT ( 'NONE', #53 ) ;
#34 = DIRECTION ( 'NONE',  ( 1.000000000000000000, 0.000000000000000000, 0.000000000000000000 ) ) ;
#35 = ORIENTED_EDGE ( 'NONE', *, *, #514, .T. ) ;
#36 = CYLINDRICAL_SURFACE ( 'NONE', #526, 2.000000000000000000 ) ;
#37 = ORIENTED_EDGE ( 'NONE', *, *, #397, .T. ) ;
#38 = ADVANCED_FACE ( 'NONE', ( #403 ), #4, .T. ) ;
#39 = LINE ( 'NONE', #164, #363 ) ;
#40 = AXIS2_PLACEMENT_3D ( 'NONE', #495, #406, #137 ) ;
#41 = ORIENTED_EDGE ( 'NONE', *, *, #277, .T. ) ;
#42 = AXIS2_PLACEMENT_3D ( 'NONE', #322, #266, #444 ) ;
#43 = CARTESIAN_POINT ( 'NONE',  ( 8.000000000000000000, -8.500000000000000000, 1.000000000000000000 ) ) ;
#44 = EDGE_CURVE ( 'NONE', #125, #420, #307, .T. ) ;
#45 = LINE ( 'NONE', #221, #133 ) ;
#46 = DIRECTION ( 'NONE',  ( 0.000000000000000000, 0.000000000000000000, 1.000000000000000000 ) ) ;
#47 = CYLINDRICAL_SURFACE ( 'NONE', #104, 2.000000000000000000 ) ;
#48 = VERTEX_POINT ( 'NONE', #454 ) ;
#49 = AXIS2_PLACEMENT_3D ( 'NONE', #447, #46, #579 ) ;
#50 = CARTESIAN_POINT ( 'NONE',  ( -8.500000000000000000, -8.000000000000000000, 2.500000000000000000 ) ) ;
#51 = ORIENTED_EDGE ( 'NONE', *, *, #111, .T. ) ;
#52 = DIRECTION ( 'NONE',  ( 0.000000000000000000, 1.000000000000000000, 4.336808689942019215E-16 ) ) ;
#53 = CARTESIAN_POINT ( 'NONE',  ( -8.000000000000000000, 10.00000000000000000, 0.000000000000000000 ) ) ;
#54 = ADVANCED_FACE ( 'NONE', ( #181 ), #374, .T. ) ;
#55 = ORIENTED_EDGE ( 'NONE', *, *, #157, .F. ) ;
#56 = DATE_AND_TIME ( #240, #15 ) ;
#57 = DIRECTION ( 'NONE',  ( 0.000000000000000000, 0.000000000000000000, -1.000000000000000000 ) ) ;
#58 = VECTOR ( 'NONE', #522, 1000.000000000000000 ) ;
#59 = COORDINATED_UNIVERSAL_TIME_OFFSET ( 10, 0, .AHEAD. ) ;
#60 = FACE_OUTER_BOUND ( 'NONE', #255, .T. ) ;
#61 = ORIENTED_EDGE ( 'NONE', *, *, #260, .F. ) ;
#62 = ADVANCED_FACE ( 'NONE', ( #319 ), #131, .T. ) ;
#63 = PERSON_AND_ORGANIZATION ( #18446744073709551615, #18446744073709551615 ) ;
#64 = DIRECTION ( 'NONE',  ( 0.000000000000000000, 0.000000000000000000, 1.000000000000000000 ) ) ;
#65 = ORIENTED_EDGE ( 'NONE', *, *, #504, .F. ) ;
#66 = CC_DESIGN_PERSON_AND_ORGANIZATION_ASSIGNMENT ( #199, #368, ( #12 ) ) ;
#67 = CARTESIAN_POINT ( 'NONE',  ( -8.000000000000000000, -10.00000000000000000, 0.000000000000000000 ) ) ;
#68 = CIRCLE ( 'NONE', #414, 1.499999999999999556 ) ;
#69 = LINE ( 'NONE', #17, #142 ) ;
#70 = EDGE_CURVE ( 'NONE', #525, #469, #450, .T. ) ;
#71 = CARTESIAN_POINT ( 'NONE',  ( -8.000000000000000000, 10.00000000000000000, 0.000000000000000000 ) ) ;
#72 = PLANE ( 'NONE',  #24 ) ;
#73 = ORIENTED_EDGE ( 'NONE', *, *, #461, .F. ) ;
#74 = DIRECTION ( 'NONE',  ( 0.000000000000000000, 0.000000000000000000, 1.000000000000000000 ) ) ;
#75 = VECTOR ( 'NONE', #438, 1000.000000000000000 ) ;
#76 = ORIENTED_EDGE ( 'NONE', *, *, #44, .F. ) ;
#77 = EDGE_CURVE ( 'NONE', #33, #281, #328, .T. ) ;
#78 = LINE ( 'NONE', #256, #168 ) ;
#79 = ORIENTED_EDGE ( 'NONE', *, *, #245, .F. ) ;
#80 = CARTESIAN_POINT ( 'NONE',  ( 8.000000000000000000, -8.000000000000000000, 1.000000000000000000 ) ) ;
#81 = ORIENTED_EDGE ( 'NONE', *, *, #269, .T. ) ;
#82 = LINE ( 'NONE', #539, #100 ) ;
#83 = CIRCLE ( 'NONE', #206, 0.5000000000000004441 ) ;
#84 = EDGE_CURVE ( 'NONE', #283, #505, #205, .T. ) ;
#85 = DIRECTION ( 'NONE',  ( 0.000000000000000000, 0.000000000000000000, 1.000000000000000000 ) ) ;
#86 = CARTESIAN_POINT ( 'NONE',  ( 8.500000000000000000, 8.000000000000000000, 2.500000000000000000 ) ) ;
#87 = CARTESIAN_POINT ( 'NONE',  ( 8.500000000000000000, -8.000000000000000000, 1.000000000000000000 ) ) ;
#88 = ORIENTED_EDGE ( 'NONE', *, *, #330, .F. ) ;
#89 = AXIS2_PLACEMENT_3D ( 'NONE', #289, #466, #158 ) ;
#90 = ORIENTED_EDGE ( 'NONE', *, *, #461, .T. ) ;
#91 = DIRECTION ( 'NONE',  ( -1.000000000000000000, 0.000000000000000000, 0.000000000000000000 ) ) ;
#92 = EDGE_CURVE ( 'NONE', #359, #420, #473, .T. ) ;
#93 = DIRECTION ( 'NONE',  ( 0.000000000000000000, 0.000000000000000000, 1.000000000000000000 ) ) ;
#94 = ORIENTED_EDGE ( 'NONE', *, *, #260, .T. ) ;
#95 = APPROVAL_DATE_TIME ( #288, #445 ) ;
#96 = FACE_OUTER_BOUND ( 'NONE', #107, .T. ) ;
#97 = PERSON_AND_ORGANIZATION_ROLE ( 'creator' ) ;
#98 = DIRECTION ( 'NONE',  ( 0.000000000000000000, -1.000000000000000000, 0.000000000000000000 ) ) ;
#99 = CC_DESIGN_APPROVAL ( #445, ( #386 ) ) ;
#100 = VECTOR ( 'NONE', #315, 1000.000000000000000 ) ;
#101 = EDGE_CURVE ( 'NONE', #393, #530, #166, .T. ) ;
#102 = VERTEX_POINT ( 'NONE', #576 ) ;
#103 = VECTOR ( 'NONE', #22, 1000.000000000000000 ) ;
#104 = AXIS2_PLACEMENT_3D ( 'NONE', #490, #180, #575 ) ;
#105 = APPROVAL_STATUS ( 'not_yet_approved' ) ;
#106 = CARTESIAN_POINT ( 'NONE',  ( 8.000000000000000000, 8.000000000000000000, 1.000000000000000000 ) ) ;
#107 = EDGE_LOOP ( 'NONE', ( #488, #508, #90, #565 ) ) ;
#108 = PERSON_AND_ORGANIZATION_ROLE ( 'design_owner' ) ;
#109 = LINE ( 'NONE', #379, #103 ) ;
#110 = COORDINATED_UNIVERSAL_TIME_OFFSET ( 10, 0, .AHEAD. ) ;
#111 = EDGE_CURVE ( 'NONE', #119, #574, #481, .T. ) ;
#112 = CARTESIAN_POINT ( 'NONE',  ( 12.00000000000000000, 8.500000000000000000, 1.000000000000000000 ) ) ;
#113 = AXIS2_PLACEMENT_3D ( 'NONE', #360, #543, #222 ) ;
#114 = AXIS2_PLACEMENT_3D ( 'NONE', #389, #476, #303 ) ;
#115 = LINE ( 'NONE', #395, #187 ) ;
#116 = CARTESIAN_POINT ( 'NONE',  ( -10.00000000000000000, 8.000000000000000000, 0.000000000000000000 ) ) ;
#117 = ORIENTED_EDGE ( 'NONE', *, *, #92, .F. ) ;
#118 = DIRECTION ( 'NONE',  ( 0.000000000000000000, 0.000000000000000000, 1.000000000000000000 ) ) ;
#119 = VERTEX_POINT ( 'NONE', #132 ) ;
#120 = ADVANCED_FACE ( 'NONE', ( #310 ), #268, .F. ) ;
#121 = LINE ( 'NONE', #213, #2 ) ;
#122 = VECTOR ( 'NONE', #202, 1000.000000000000000 ) ;
#123 = EDGE_LOOP ( 'NONE', ( #551, #209, #23, #138 ) ) ;
#124 = CARTESIAN_POINT ( 'NONE',  ( -8.000000000000000000, 8.000000000000000000, 0.000000000000000000 ) ) ;
#125 = VERTEX_POINT ( 'NONE', #177 ) ;
#126 = CARTESIAN_POINT ( 'NONE',  ( -8.500000000000000000, -12.00000000000000000, 1.000000000000000000 ) ) ;
#127 = ADVANCED_FACE ( 'NONE', ( #537 ), #136, .T. ) ;
#128 = VERTEX_POINT ( 'NONE', #555 ) ;
#129 = AXIS2_PLACEMENT_3D ( 'NONE', #126, #264, #317 ) ;
#130 = CARTESIAN_POINT ( 'NONE',  ( -8.000000000000000000, 8.500000000000000000, 2.500000000000000000 ) ) ;
#131 = TOROIDAL_SURFACE ( 'NONE', #1, 0.5000000000000000000, 1.500000000000000000 ) ;
#132 = CARTESIAN_POINT ( 'NONE',  ( 8.000000000000000000, -10.00000000000000000, 0.000000000000000000 ) ) ;
#133 = VECTOR ( 'NONE', #487, 1000.000000000000000 ) ;
#134 = CC_DESIGN_APPROVAL ( #433, ( #336 ) ) ;
#135 = DIRECTION ( 'NONE',  ( 0.000000000000000000, 0.000000000000000000, 1.000000000000000000 ) ) ;
#136 = CYLINDRICAL_SURFACE ( 'NONE', #518, 2.000000000000000000 ) ;
#137 = DIRECTION ( 'NONE',  ( 0.000000000000000000, 0.000000000000000000, 1.000000000000000000 ) ) ;
#138 = ORIENTED_EDGE ( 'NONE', *, *, #157, .T. ) ;
#139 = ADVANCED_FACE ( 'NONE', ( #60 ), #332, .T. ) ;
#140 = DIRECTION ( 'NONE',  ( 0.000000000000000000, 1.000000000000000000, 0.000000000000000000 ) ) ;
#141 = DIRECTION ( 'NONE',  ( 0.000000000000000000, -1.000000000000000000, 0.000000000000000000 ) ) ;
#142 = VECTOR ( 'NONE', #559, 1000.000000000000000 ) ;
#143 = APPROVAL_DATE_TIME ( #56, #433 ) ;
#144 = DIRECTION ( 'NONE',  ( 0.000000000000000000, 1.000000000000000000, 0.000000000000000000 ) ) ;
#145 = ORIENTED_EDGE ( 'NONE', *, *, #287, .F. ) ;
#146 = PERSON_AND_ORGANIZATION_ROLE ( 'design_supplier' ) ;
#147 = DIRECTION ( 'NONE',  ( 1.000000000000000000, 0.000000000000000000, 0.000000000000000000 ) ) ;
#148 = EDGE_CURVE ( 'NONE', #149, #119, #327, .T. ) ;
#149 = VERTEX_POINT ( 'NONE', #67 ) ;
#150 = DIRECTION ( 'NONE',  ( 1.000000000000000000, 0.000000000000000000, 0.000000000000000000 ) ) ;
#151 = ORIENTED_EDGE ( 'NONE', *, *, #207, .F. ) ;
#152 = AXIS2_PLACEMENT_3D ( 'NONE', #507, #98, #282 ) ;
#153 = LINE ( 'NONE', #335, #122 ) ;
#154 = ORIENTED_EDGE ( 'NONE', *, *, #148, .T. ) ;
#155 = APPLICATION_PROTOCOL_DEFINITION ( 'international standard', 'config_control_design', 1994, #540 ) ;
#156 = DIRECTION ( 'NONE',  ( 0.000000000000000000, 1.000000000000000000, 0.000000000000000000 ) ) ;
#157 = EDGE_CURVE ( 'NONE', #302, #323, #153, .T. ) ;
#158 = DIRECTION ( 'NONE',  ( -1.000000000000000000, -1.734723475976807094E-15, 0.000000000000000000 ) ) ;
#159 = VECTOR ( 'NONE', #249, 1000.000000000000000 ) ;
#160 = FACE_OUTER_BOUND ( 'NONE', #569, .T. ) ;
#161 = LINE ( 'NONE', #71, #75 ) ;
#162 = EDGE_LOOP ( 'NONE', ( #65, #512, #165, #435 ) ) ;
#163 = ADVANCED_FACE ( 'NONE', ( #324 ), #279, .T. ) ;
#164 = CARTESIAN_POINT ( 'NONE',  ( 10.00000000000000000, 6.000000000000000000, 1.000000000000000000 ) ) ;
#165 = ORIENTED_EDGE ( 'NONE', *, *, #478, .T. ) ;
#166 = CIRCLE ( 'NONE', #31, 1.499999999999999556 ) ;
#167 = CARTESIAN_POINT ( 'NONE',  ( 10.00000000000000000, 8.000000000000000000, 1.000000000000000000 ) ) ;
#168 = VECTOR ( 'NONE', #564, 1000.000000000000000 ) ;
#169 = ORIENTED_EDGE ( 'NONE', *, *, #27, .F. ) ;
#170 = EDGE_CURVE ( 'NONE', #149, #188, #109, .T. ) ;
#171 = FACE_OUTER_BOUND ( 'NONE', #343, .T. ) ;
#172 = ORIENTED_EDGE ( 'NONE', *, *, #391, .F. ) ;
#173 = CARTESIAN_POINT ( 'NONE',  ( 8.000000000000000000, 8.500000000000000000, 1.000000000000000000 ) ) ;
#174 = CARTESIAN_POINT ( 'NONE',  ( 8.000000000000000000, -8.000000000000000000, 0.000000000000000000 ) ) ;
#175 = CC_DESIGN_APPROVAL ( #211, ( #12 ) ) ;
#176 = DIRECTION ( 'NONE',  ( 0.000000000000000000, 1.000000000000000000, 4.336808689942019215E-16 ) ) ;
#177 = CARTESIAN_POINT ( 'NONE',  ( -8.500000000000000000, 8.000000000000000000, 2.500000000000000000 ) ) ;
#178 = AXIS2_PLACEMENT_3D ( 'NONE', #106, #285, #381 ) ;
#179 = AXIS2_PLACEMENT_3D ( 'NONE', #352, #85, #409 ) ;
#180 = DIRECTION ( 'NONE',  ( 0.000000000000000000, 0.000000000000000000, 1.000000000000000000 ) ) ;
#181 = FACE_OUTER_BOUND ( 'NONE', #257, .T. ) ;
#182 = EDGE_CURVE ( 'NONE', #469, #188, #236, .T. ) ;
#183 = EDGE_LOOP ( 'NONE', ( #76, #151, #233, #333 ) ) ;
#184 = ORIENTED_EDGE ( 'NONE', *, *, #453, .T. ) ;
#185 = CALENDAR_DATE ( 2026, 22, 6 ) ;
#186 = ORIENTED_EDGE ( 'NONE', *, *, #182, .T. ) ;
#187 = VECTOR ( 'NONE', #475, 1000.000000000000000 ) ;
#188 = VERTEX_POINT ( 'NONE', #558 ) ;
#189 = EDGE_CURVE ( 'NONE', #501, #528, #511, .T. ) ;
#190 = CALENDAR_DATE ( 2026, 22, 6 ) ;
#191 = DIRECTION ( 'NONE',  ( 0.000000000000000000, -1.000000000000000000, 4.336808689942019215E-16 ) ) ;
#192 = ORIENTED_EDGE ( 'NONE', *, *, #245, .T. ) ;
#193 = DIRECTION ( 'NONE',  ( 0.000000000000000000, -1.000000000000000000, 0.000000000000000000 ) ) ;
#194 = ORIENTED_EDGE ( 'NONE', *, *, #538, .T. ) ;
#195 = PERSON_AND_ORGANIZATION_ROLE ( 'creator' ) ;
#196 = CARTESIAN_POINT ( 'NONE',  ( 6.000000000000000000, 8.500000000000000000, 2.500000000000000000 ) ) ;
#197 = EDGE_LOOP ( 'NONE', ( #304, #172, #417, #348 ) ) ;
#198 = AXIS2_PLACEMENT_3D ( 'NONE', #80, #566, #294 ) ;
#199 = PERSON_AND_ORGANIZATION ( #18446744073709551615, #18446744073709551615 ) ;
#200 = CARTESIAN_POINT ( 'NONE',  ( -8.000000000000000000, 8.000000000000000000, 2.500000000000000000 ) ) ;
#201 = EDGE_CURVE ( 'NONE', #323, #102, #431, .T. ) ;
#202 = DIRECTION ( 'NONE',  ( 0.000000000000000000, 0.000000000000000000, 1.000000000000000000 ) ) ;
#203 = FACE_OUTER_BOUND ( 'NONE', #273, .T. ) ;
#204 = LOCAL_TIME ( 18, 50, 25.00000000000000000, #59 ) ;
#205 = CIRCLE ( 'NONE', #533, 1.499999999999999556 ) ;
#206 = AXIS2_PLACEMENT_3D ( 'NONE', #456, #536, #448 ) ;
#207 = EDGE_CURVE ( 'NONE', #528, #125, #217, .T. ) ;
#208 = DIRECTION ( 'NONE',  ( 0.000000000000000000, 0.000000000000000000, 1.000000000000000000 ) ) ;
#209 = ORIENTED_EDGE ( 'NONE', *, *, #370, .F. ) ;
#210 = DIRECTION ( 'NONE',  ( 1.000000000000000000, 0.000000000000000000, 0.000000000000000000 ) ) ;
#211 = APPROVAL ( #424, 'Coincident' ) ;
#212 = ORIENTED_EDGE ( 'NONE', *, *, #287, .T. ) ;
#213 = CARTESIAN_POINT ( 'NONE',  ( 10.00000000000000000, -8.000000000000000000, 0.000000000000000000 ) ) ;
#214 = ORIENTED_EDGE ( 'NONE', *, *, #189, .F. ) ;
#215 = ADVANCED_FACE ( 'NONE', ( #552 ), #503, .T. ) ;
#216 = CLOSED_SHELL ( 'NONE', ( #120, #556, #251, #127, #163, #361, #139, #521, #295, #215, #62, #380, #494, #38, #353, #418, #572, #54 ) ) ;
#217 = CIRCLE ( 'NONE', #442, 0.5000000000000004441 ) ;
#218 = CARTESIAN_POINT ( 'NONE',  ( 8.000000000000000000, -8.500000000000000000, 2.500000000000000000 ) ) ;
#219 = ORIENTED_EDGE ( 'NONE', *, *, #8, .F. ) ;
#220 = DIRECTION ( 'NONE',  ( 1.000000000000000000, 0.000000000000000000, 0.000000000000000000 ) ) ;
#221 = CARTESIAN_POINT ( 'NONE',  ( 10.00000000000000000, -8.000000000000000000, 0.000000000000000000 ) ) ;
#222 = DIRECTION ( 'NONE',  ( -1.000000000000000000, 0.000000000000000000, 0.000000000000000000 ) ) ;
#223 = PLANE ( 'NONE',  #32 ) ;
#224 = EDGE_CURVE ( 'NONE', #128, #420, #460, .T. ) ;
#225 = LINE ( 'NONE', #491, #292 ) ;
#226 = VECTOR ( 'NONE', #147, 1000.000000000000000 ) ;
#227 = DIRECTION ( 'NONE',  ( 1.000000000000000000, 0.000000000000000000, 0.000000000000000000 ) ) ;
#228 = DIRECTION ( 'NONE',  ( 0.000000000000000000, 0.000000000000000000, 1.000000000000000000 ) ) ;
#229 = ORIENTED_EDGE ( 'NONE', *, *, #474, .F. ) ;
#230 = CARTESIAN_POINT ( 'NONE',  ( 8.000000000000000000, 10.00000000000000000, 0.000000000000000000 ) ) ;
#231 = CARTESIAN_POINT ( 'NONE',  ( -8.000000000000000000, -8.000000000000000000, 2.500000000000000000 ) ) ;
#232 = CC_DESIGN_PERSON_AND_ORGANIZATION_ASSIGNMENT ( #63, #195, ( #336 ) ) ;
#233 = ORIENTED_EDGE ( 'NONE', *, *, #546, .T. ) ;
#234 = CALENDAR_DATE ( 2026, 22, 6 ) ;
#235 = CARTESIAN_POINT ( 'NONE',  ( -8.000000000000000000, -8.500000000000000000, 1.000000000000000000 ) ) ;
#236 = CIRCLE ( 'NONE', #308, 1.499999999999999556 ) ;
#237 = ORIENTED_EDGE ( 'NONE', *, *, #504, .T. ) ;
#238 = LINE ( 'NONE', #471, #159 ) ;
#239 = ORIENTED_EDGE ( 'NONE', *, *, #311, .T. ) ;
#240 = CALENDAR_DATE ( 2026, 22, 6 ) ;
#241 = DIRECTION ( 'NONE',  ( -1.000000000000000000, 0.000000000000000000, 0.000000000000000000 ) ) ;
#242 = ORIENTED_EDGE ( 'NONE', *, *, #70, .T. ) ;
#243 = DATE_TIME_ROLE ( 'creation_date' ) ;
#244 = DIRECTION ( 'NONE',  ( 1.000000000000000000, 0.000000000000000000, 0.000000000000000000 ) ) ;
#245 = EDGE_CURVE ( 'NONE', #525, #128, #545, .T. ) ;
#246 = CIRCLE ( 'NONE', #274, 0.5000000000000004441 ) ;
#247 = AXIS2_PLACEMENT_3D ( 'NONE', #452, #91, #176 ) ;
#248 = DIRECTION ( 'NONE',  ( 1.000000000000000000, 0.000000000000000000, 0.000000000000000000 ) ) ;
#249 = DIRECTION ( 'NONE',  ( 0.000000000000000000, 0.000000000000000000, 1.000000000000000000 ) ) ;
#250 = FACE_OUTER_BOUND ( 'NONE', #462, .T. ) ;
#251 = ADVANCED_FACE ( 'NONE', ( #96 ), #25, .T. ) ;
#252 = DIRECTION ( 'NONE',  ( 0.000000000000000000, 0.000000000000000000, 1.000000000000000000 ) ) ;
#253 = ORIENTED_EDGE ( 'NONE', *, *, #170, .F. ) ;
#254 = DIRECTION ( 'NONE',  ( 0.000000000000000000, 1.000000000000000000, 0.000000000000000000 ) ) ;
#255 = EDGE_LOOP ( 'NONE', ( #358, #253, #154, #408 ) ) ;
#256 = CARTESIAN_POINT ( 'NONE',  ( 8.000000000000000000, 10.00000000000000000, 0.000000000000000000 ) ) ;
#257 = EDGE_LOOP ( 'NONE', ( #430, #557, #192, #81 ) ) ;
#258 = FACE_OUTER_BOUND ( 'NONE', #197, .T. ) ;
#259 = EDGE_LOOP ( 'NONE', ( #316, #229, #194, #477 ) ) ;
#260 = EDGE_CURVE ( 'NONE', #283, #21, #69, .T. ) ;
#261 = MANIFOLD_SOLID_BREP ( 'item_37009_cap-5-20x20-black-37009__high.step<1>', #216 ) ;
#262 = APPLICATION_CONTEXT ( 'configuration controlled 3d designs of mechanical parts and assemblies' ) ;
#263 = VECTOR ( 'NONE', #208, 1000.000000000000000 ) ;
#264 = DIRECTION ( 'NONE',  ( 0.000000000000000000, 1.000000000000000000, 0.000000000000000000 ) ) ;
#265 = LOCAL_TIME ( 18, 50, 25.00000000000000000, #506 ) ;
#266 = DIRECTION ( 'NONE',  ( 0.000000000000000000, 0.000000000000000000, 1.000000000000000000 ) ) ;
#267 = CARTESIAN_POINT ( 'NONE',  ( 10.00000000000000000, 0.000000000000000000, 0.000000000000000000 ) ) ;
#268 = PLANE ( 'NONE',  #49 ) ;
#269 = EDGE_CURVE ( 'NONE', #128, #188, #293, .T. ) ;
#270 = CARTESIAN_POINT ( 'NONE',  ( 8.000000000000000000, 8.500000000000000000, 2.500000000000000000 ) ) ;
#271 = DIRECTION ( 'NONE',  ( 1.000000000000000000, 1.734723475976807094E-15, 0.000000000000000000 ) ) ;
#272 = LINE ( 'NONE', #356, #416 ) ;
#273 = EDGE_LOOP ( 'NONE', ( #18, #376, #496, #61 ) ) ;
#274 = AXIS2_PLACEMENT_3D ( 'NONE', #573, #252, #382 ) ;
#275 = CARTESIAN_POINT ( 'NONE',  ( 8.000000000000000000, -10.00000000000000000, 1.000000000000000000 ) ) ;
#276 = CARTESIAN_POINT ( 'NONE',  ( -8.000000000000000000, 8.000000000000000000, 1.000000000000000000 ) ) ;
#277 = EDGE_CURVE ( 'NONE', #523, #102, #238, .T. ) ;
#278 = DIRECTION ( 'NONE',  ( 0.000000000000000000, 0.000000000000000000, 1.000000000000000000 ) ) ;
#279 = PLANE ( 'NONE',  #563 ) ;
#280 = CC_DESIGN_DATE_AND_TIME_ASSIGNMENT ( #10, #243, ( #336 ) ) ;
#281 = VERTEX_POINT ( 'NONE', #425 ) ;
#282 = DIRECTION ( 'NONE',  ( -1.000000000000000000, 0.000000000000000000, 0.000000000000000000 ) ) ;
#283 = VERTEX_POINT ( 'NONE', #550 ) ;
#284 = COORDINATED_UNIVERSAL_TIME_OFFSET ( 10, 0, .AHEAD. ) ;
#285 = DIRECTION ( 'NONE',  ( 0.000000000000000000, 0.000000000000000000, 1.000000000000000000 ) ) ;
#286 = ORIENTED_EDGE ( 'NONE', *, *, #77, .T. ) ;
#287 = EDGE_CURVE ( 'NONE', #469, #393, #419, .T. ) ;
#288 = DATE_AND_TIME ( #185, #204 ) ;
#289 = CARTESIAN_POINT ( 'NONE',  ( -8.000000000000000000, -8.000000000000000000, 1.000000000000000000 ) ) ;
#290 = SECURITY_CLASSIFICATION_LEVEL ( 'unclassified' ) ;
#291 = DIRECTION ( 'NONE',  ( -1.000000000000000000, 0.000000000000000000, 0.000000000000000000 ) ) ;
#292 = VECTOR ( 'NONE', #228, 1000.000000000000000 ) ;
#293 = CIRCLE ( 'NONE', #89, 2.000000000000000000 ) ;
#294 = DIRECTION ( 'NONE',  ( 0.000000000000000000, -1.000000000000000000, 0.000000000000000000 ) ) ;
#295 = ADVANCED_FACE ( 'NONE', ( #160 ), #482, .T. ) ;
#296 = DIRECTION ( 'NONE',  ( 0.000000000000000000, -1.000000000000000000, 0.000000000000000000 ) ) ;
#297 = ORIENTED_EDGE ( 'NONE', *, *, #224, .F. ) ;
#298 = CC_DESIGN_PERSON_AND_ORGANIZATION_ASSIGNMENT ( #16, #97, ( #386 ) ) ;
#299 = CARTESIAN_POINT ( 'NONE',  ( 8.000000000000000000, 8.000000000000000000, 0.000000000000000000 ) ) ;
#300 = ORIENTED_EDGE ( 'NONE', *, *, #27, .T. ) ;
#301 = CARTESIAN_POINT ( 'NONE',  ( -8.000000000000000000, 10.00000000000000000, 1.000000000000000000 ) ) ;
#302 = VERTEX_POINT ( 'NONE', #344 ) ;
#303 = DIRECTION ( 'NONE',  ( 1.000000000000000000, 0.000000000000000000, -4.336808689942019215E-16 ) ) ;
#304 = ORIENTED_EDGE ( 'NONE', *, *, #84, .F. ) ;
#305 = ORIENTED_EDGE ( 'NONE', *, *, #330, .T. ) ;
#306 = CC_DESIGN_SECURITY_CLASSIFICATION ( #12, ( #386 ) ) ;
#307 = CIRCLE ( 'NONE', #384, 1.499999999999999556 ) ;
#308 = AXIS2_PLACEMENT_3D ( 'NONE', #235, #244, #191 ) ;
#309 = CARTESIAN_POINT ( 'NONE',  ( 10.00000000000000000, -8.000000000000000000, 1.000000000000000000 ) ) ;
#310 = FACE_OUTER_BOUND ( 'NONE', #396, .T. ) ;
#311 = EDGE_CURVE ( 'NONE', #359, #102, #337, .T. ) ;
#312 = CYLINDRICAL_SURFACE ( 'NONE', #129, 1.499999999999999556 ) ;
#313 = CARTESIAN_POINT ( 'NONE',  ( 8.000000000000000000, 8.000000000000000000, 0.000000000000000000 ) ) ;
#314 = ADVANCED_BREP_SHAPE_REPRESENTATION ( 'item_37009_cap-5-20x20-black-37009__high.step', ( #261, #429 ), #432 ) ;
#315 = DIRECTION ( 'NONE',  ( 0.000000000000000000, -1.000000000000000000, 0.000000000000000000 ) ) ;
#316 = ORIENTED_EDGE ( 'NONE', *, *, #269, .F. ) ;
#317 = DIRECTION ( 'NONE',  ( -1.000000000000000000, 0.000000000000000000, -4.336808689942019215E-16 ) ) ;
#318 = CIRCLE ( 'NONE', #385, 2.000000000000000000 ) ;
#319 = FACE_OUTER_BOUND ( 'NONE', #183, .T. ) ;
#320 = LOCAL_TIME ( 18, 50, 25.00000000000000000, #284 ) ;
#321 = DATE_TIME_ROLE ( 'classification_date' ) ;
#322 = CARTESIAN_POINT ( 'NONE',  ( -8.000000000000000000, 8.000000000000000000, 1.000000000000000000 ) ) ;
#323 = VERTEX_POINT ( 'NONE', #167 ) ;
#324 = FACE_OUTER_BOUND ( 'NONE', #549, .T. ) ;
#325 = ORIENTED_EDGE ( 'NONE', *, *, #453, .F. ) ;
#326 = PERSON_AND_ORGANIZATION ( #18446744073709551615, #18446744073709551615 ) ;
#327 = LINE ( 'NONE', #468, #226 ) ;
#328 = CIRCLE ( 'NONE', #401, 2.000000000000000000 ) ;
#329 = AXIS2_PLACEMENT_3D ( 'NONE', #415, #291, #472 ) ;
#330 = EDGE_CURVE ( 'NONE', #33, #359, #161, .T. ) ;
#331 = ORIENTED_EDGE ( 'NONE', *, *, #44, .T. ) ;
#332 = PLANE ( 'NONE',  #375 ) ;
#333 = ORIENTED_EDGE ( 'NONE', *, *, #92, .T. ) ;
#334 = COORDINATED_UNIVERSAL_TIME_OFFSET ( 10, 0, .AHEAD. ) ;
#335 = CARTESIAN_POINT ( 'NONE',  ( 10.00000000000000000, 8.000000000000000000, 0.000000000000000000 ) ) ;
#336 = PRODUCT_DEFINITION ( 'General', '', #386, #498 ) ;
#337 = LINE ( 'NONE', #568, #58 ) ;
#338 = CIRCLE ( 'NONE', #465, 1.499999999999999556 ) ;
#339 = DIRECTION ( 'NONE',  ( -8.673617379884035472E-16, 1.000000000000000000, 0.000000000000000000 ) ) ;
#340 = CC_DESIGN_DATE_AND_TIME_ASSIGNMENT ( #377, #321, ( #12 ) ) ;
#341 = LINE ( 'NONE', #116, #499 ) ;
#342 = UNCERTAINTY_MEASURE_WITH_UNIT (LENGTH_MEASURE( 1.000000000000000082E-05 ), #3, 'distance_accuracy_value', 'NONE');
#343 = EDGE_LOOP ( 'NONE', ( #345, #219, #51, #483 ) ) ;
#344 = CARTESIAN_POINT ( 'NONE',  ( 10.00000000000000000, 8.000000000000000000, 0.000000000000000000 ) ) ;
#345 = ORIENTED_EDGE ( 'NONE', *, *, #578, .F. ) ;
#346 = EDGE_CURVE ( 'NONE', #323, #505, #39, .T. ) ;
#347 = VECTOR ( 'NONE', #156, 1000.000000000000000 ) ;
#348 = ORIENTED_EDGE ( 'NONE', *, *, #578, .T. ) ;
#349 = PRODUCT_RELATED_PRODUCT_CATEGORY ( 'detail', '', ( #404 ) ) ;
#350 = FACE_OUTER_BOUND ( 'NONE', #455, .T. ) ;
#351 = ORIENTED_EDGE ( 'NONE', *, *, #77, .F. ) ;
#352 = CARTESIAN_POINT ( 'NONE',  ( -8.000000000000000000, -8.000000000000000000, 0.000000000000000000 ) ) ;
#353 = ADVANCED_FACE ( 'NONE', ( #258 ), #570, .T. ) ;
#354 = DIRECTION ( 'NONE',  ( 0.000000000000000000, 0.000000000000000000, 1.000000000000000000 ) ) ;
#355 = APPROVAL_PERSON_ORGANIZATION ( #362, #211, #459 ) ;
#356 = CARTESIAN_POINT ( 'NONE',  ( -10.00000000000000000, 8.000000000000000000, 0.000000000000000000 ) ) ;
#357 = CARTESIAN_POINT ( 'NONE',  ( -8.500000000000000000, 8.000000000000000000, 1.000000000000000000 ) ) ;
#358 = ORIENTED_EDGE ( 'NONE', *, *, #407, .T. ) ;
#359 = VERTEX_POINT ( 'NONE', #301 ) ;
#360 = CARTESIAN_POINT ( 'NONE',  ( -8.000000000000000000, -8.000000000000000000, 1.000000000000000000 ) ) ;
#361 = ADVANCED_FACE ( 'NONE', ( #387 ), #36, .T. ) ;
#362 = PERSON_AND_ORGANIZATION ( #18446744073709551615, #18446744073709551615 ) ;
#363 = VECTOR ( 'NONE', #519, 1000.000000000000000 ) ;
#364 = CARTESIAN_POINT ( 'NONE',  ( -8.000000000000000000, 8.000000000000000000, 0.000000000000000000 ) ) ;
#365 = EDGE_LOOP ( 'NONE', ( #371, #55, #37, #41 ) ) ;
#366 = SHAPE_DEFINITION_REPRESENTATION ( #378, #314 ) ;
#367 = DIRECTION ( 'NONE',  ( 1.000000000000000000, 0.000000000000000000, 0.000000000000000000 ) ) ;
#368 = PERSON_AND_ORGANIZATION_ROLE ( 'classification_officer' ) ;
#369 = CARTESIAN_POINT ( 'NONE',  ( 0.000000000000000000, -10.00000000000000000, 0.000000000000000000 ) ) ;
#370 = EDGE_CURVE ( 'NONE', #574, #505, #121, .T. ) ;
#371 = ORIENTED_EDGE ( 'NONE', *, *, #201, .F. ) ;
#372 = APPROVAL_DATE_TIME ( #467, #211 ) ;
#373 = CARTESIAN_POINT ( 'NONE',  ( -10.00000000000000000, -6.000000000000000000, 1.000000000000000000 ) ) ;
#374 = TOROIDAL_SURFACE ( 'NONE', #113, 0.5000000000000000000, 1.500000000000000000 ) ;
#375 = AXIS2_PLACEMENT_3D ( 'NONE', #369, #193, #57 ) ;
#376 = ORIENTED_EDGE ( 'NONE', *, *, #346, .F. ) ;
#377 = DATE_AND_TIME ( #190, #265 ) ;
#378 = PRODUCT_DEFINITION_SHAPE ( 'NONE', 'NONE',  #336 ) ;
#379 = CARTESIAN_POINT ( 'NONE',  ( -8.000000000000000000, -10.00000000000000000, 0.000000000000000000 ) ) ;
#380 = ADVANCED_FACE ( 'NONE', ( #203 ), #527, .T. ) ;
#381 = DIRECTION ( 'NONE',  ( 1.000000000000000000, 1.734723475976807094E-15, 0.000000000000000000 ) ) ;
#382 = DIRECTION ( 'NONE',  ( 1.000000000000000000, 0.000000000000000000, 0.000000000000000000 ) ) ;
#383 = CIRCLE ( 'NONE', #247, 1.499999999999999556 ) ;
#384 = AXIS2_PLACEMENT_3D ( 'NONE', #357, #141, #7 ) ;
#385 = AXIS2_PLACEMENT_3D ( 'NONE', #299, #484, #517 ) ;
#386 = PRODUCT_DEFINITION_FORMATION_WITH_SPECIFIED_SOURCE ( 'Symmetric', '', #404, .NOT_KNOWN. ) ;
#387 = FACE_OUTER_BOUND ( 'NONE', #259, .T. ) ;
#388 = ORIENTED_EDGE ( 'NONE', *, *, #391, .T. ) ;
#389 = CARTESIAN_POINT ( 'NONE',  ( 8.500000000000000000, 12.00000000000000000, 1.000000000000000000 ) ) ;
#390 = EDGE_LOOP ( 'NONE', ( #237, #439, #567, #214 ) ) ;
#391 = EDGE_CURVE ( 'NONE', #393, #283, #246, .T. ) ;
#392 = DIRECTION ( 'NONE',  ( 0.000000000000000000, 0.000000000000000000, 1.000000000000000000 ) ) ;
#393 = VERTEX_POINT ( 'NONE', #218 ) ;
#394 = TOROIDAL_SURFACE ( 'NONE', #14, 0.5000000000000000000, 1.500000000000000000 ) ;
#395 = CARTESIAN_POINT ( 'NONE',  ( 0.000000000000000000, -10.00000000000000000, 1.000000000000000000 ) ) ;
#396 = EDGE_LOOP ( 'NONE', ( #9, #73, #351, #325, #437, #458, #423, #541 ) ) ;
#397 = EDGE_CURVE ( 'NONE', #302, #523, #318, .T. ) ;
#398 = DIRECTION ( 'NONE',  ( 0.000000000000000000, -1.000000000000000000, 4.336808689942019215E-16 ) ) ;
#399 = FACE_OUTER_BOUND ( 'NONE', #162, .T. ) ;
#400 = DIRECTION ( 'NONE',  ( -8.673617379884035472E-16, 1.000000000000000000, 0.000000000000000000 ) ) ;
#401 = AXIS2_PLACEMENT_3D ( 'NONE', #364, #548, #400 ) ;
#402 = DIRECTION ( 'NONE',  ( 0.000000000000000000, 0.000000000000000000, 1.000000000000000000 ) ) ;
#403 = FACE_OUTER_BOUND ( 'NONE', #5, .T. ) ;
#404 = PRODUCT ( 'item_37009_cap-5-20x20-black-37009__high.step', 'item_37009_cap-5-20x20-black-37009__high.step', '', ( #470 ) ) ;
#405 = DIRECTION ( 'NONE',  ( 1.000000000000000000, 0.000000000000000000, 0.000000000000000000 ) ) ;
#406 = DIRECTION ( 'NONE',  ( 1.000000000000000000, 0.000000000000000000, 0.000000000000000000 ) ) ;
#407 = EDGE_CURVE ( 'NONE', #530, #188, #115, .T. ) ;
#408 = ORIENTED_EDGE ( 'NONE', *, *, #8, .T. ) ;
#409 = DIRECTION ( 'NONE',  ( -1.000000000000000000, -1.734723475976807094E-15, 0.000000000000000000 ) ) ;
#410 = DIRECTION ( 'NONE',  ( 1.000000000000000000, 0.000000000000000000, 0.000000000000000000 ) ) ;
#411 = CC_DESIGN_PERSON_AND_ORGANIZATION_ASSIGNMENT ( #326, #146, ( #386 ) ) ;
#412 = ORIENTED_EDGE ( 'NONE', *, *, #189, .T. ) ;
#413 = APPLICATION_PROTOCOL_DEFINITION ( 'international standard', 'config_control_design', 1994, #262 ) ;
#414 = AXIS2_PLACEMENT_3D ( 'NONE', #479, #254, #34 ) ;
#415 = CARTESIAN_POINT ( 'NONE',  ( -10.00000000000000000, 0.000000000000000000, 0.000000000000000000 ) ) ;
#416 = VECTOR ( 'NONE', #135, 1000.000000000000000 ) ;
#417 = ORIENTED_EDGE ( 'NONE', *, *, #101, .T. ) ;
#418 = ADVANCED_FACE ( 'NONE', ( #250 ), #72, .T. ) ;
#419 = LINE ( 'NONE', #20, #497 ) ;
#420 = VERTEX_POINT ( 'NONE', #427 ) ;
#421 = CARTESIAN_POINT ( 'NONE',  ( 0.000000000000000000, 0.000000000000000000, 0.000000000000000000 ) ) ;
#422 = CARTESIAN_POINT ( 'NONE',  ( 0.000000000000000000, 10.00000000000000000, 0.000000000000000000 ) ) ;
#423 = ORIENTED_EDGE ( 'NONE', *, *, #111, .F. ) ;
#424 = APPROVAL_STATUS ( 'not_yet_approved' ) ;
#425 = CARTESIAN_POINT ( 'NONE',  ( -10.00000000000000000, 8.000000000000000000, 0.000000000000000000 ) ) ;
#426 = DIRECTION ( 'NONE',  ( 0.000000000000000000, 0.000000000000000000, 1.000000000000000000 ) ) ;
#427 = CARTESIAN_POINT ( 'NONE',  ( -10.00000000000000000, 8.000000000000000000, 1.000000000000000000 ) ) ;
#428 = LINE ( 'NONE', #30, #263 ) ;
#429 = AXIS2_PLACEMENT_3D ( 'NONE', #421, #278, #248 ) ;
#430 = ORIENTED_EDGE ( 'NONE', *, *, #182, .F. ) ;
#431 = CIRCLE ( 'NONE', #178, 2.000000000000000000 ) ;
#432 =( GEOMETRIC_REPRESENTATION_CONTEXT ( 3 ) GLOBAL_UNCERTAINTY_ASSIGNED_CONTEXT ( ( #342 ) ) GLOBAL_UNIT_ASSIGNED_CONTEXT ( ( #3, #542, #500 ) ) REPRESENTATION_CONTEXT ( 'NONE', 'WORKASPACE' ) );
#433 = APPROVAL ( #105, 'Coincident' ) ;
#434 = DIRECTION ( 'NONE',  ( 0.000000000000000000, 0.000000000000000000, 1.000000000000000000 ) ) ;
#435 = ORIENTED_EDGE ( 'NONE', *, *, #201, .T. ) ;
#436 = CARTESIAN_POINT ( 'NONE',  ( -8.000000000000000000, -8.500000000000000000, 2.500000000000000000 ) ) ;
#437 = ORIENTED_EDGE ( 'NONE', *, *, #397, .F. ) ;
#438 = DIRECTION ( 'NONE',  ( 0.000000000000000000, 0.000000000000000000, 1.000000000000000000 ) ) ;
#439 = ORIENTED_EDGE ( 'NONE', *, *, #311, .F. ) ;
#440 = AXIS2_PLACEMENT_3D ( 'NONE', #231, #457, #410 ) ;
#441 = CC_DESIGN_PERSON_AND_ORGANIZATION_ASSIGNMENT ( #502, #108, ( #404 ) ) ;
#442 = AXIS2_PLACEMENT_3D ( 'NONE', #200, #64, #367 ) ;
#443 = CARTESIAN_POINT ( 'NONE',  ( 8.000000000000000000, -8.000000000000000000, 1.000000000000000000 ) ) ;
#444 = DIRECTION ( 'NONE',  ( -8.673617379884035472E-16, 1.000000000000000000, 0.000000000000000000 ) ) ;
#445 = APPROVAL ( #464, 'Coincident' ) ;
#446 = DIRECTION ( 'NONE',  ( 0.000000000000000000, 0.000000000000000000, 1.000000000000000000 ) ) ;
#447 = CARTESIAN_POINT ( 'NONE',  ( 3.232819397628330069E-16, -4.440892098500630106E-16, 0.000000000000000000 ) ) ;
#448 = DIRECTION ( 'NONE',  ( 1.000000000000000000, 0.000000000000000000, 0.000000000000000000 ) ) ;
#449 = DIRECTION ( 'NONE',  ( 1.000000000000000000, 0.000000000000000000, 0.000000000000000000 ) ) ;
#450 = CIRCLE ( 'NONE', #440, 0.5000000000000004441 ) ;
#451 = AXIS2_PLACEMENT_3D ( 'NONE', #124, #392, #339 ) ;
#452 = CARTESIAN_POINT ( 'NONE',  ( -8.000000000000000000, 8.500000000000000000, 1.000000000000000000 ) ) ;
#453 = EDGE_CURVE ( 'NONE', #523, #33, #78, .T. ) ;
#454 = CARTESIAN_POINT ( 'NONE',  ( -10.00000000000000000, -8.000000000000000000, 0.000000000000000000 ) ) ;
#455 = EDGE_LOOP ( 'NONE', ( #79, #169, #331, #297 ) ) ;
#456 = CARTESIAN_POINT ( 'NONE',  ( 8.000000000000000000, 8.000000000000000000, 2.500000000000000000 ) ) ;
#457 = DIRECTION ( 'NONE',  ( 0.000000000000000000, 0.000000000000000000, 1.000000000000000000 ) ) ;
#458 = ORIENTED_EDGE ( 'NONE', *, *, #485, .F. ) ;
#459 = APPROVAL_ROLE ( '' ) ;
#460 = LINE ( 'NONE', #373, #347 ) ;
#461 = EDGE_CURVE ( 'NONE', #281, #48, #341, .T. ) ;
#462 = EDGE_LOOP ( 'NONE', ( #242, #212, #388, #94, #35, #412, #486, #300 ) ) ;
#463 = APPROVAL_PERSON_ORGANIZATION ( #509, #433, #547 ) ;
#464 = APPROVAL_STATUS ( 'not_yet_approved' ) ;
#465 = AXIS2_PLACEMENT_3D ( 'NONE', #173, #531, #52 ) ;
#466 = DIRECTION ( 'NONE',  ( 0.000000000000000000, 0.000000000000000000, 1.000000000000000000 ) ) ;
#467 = DATE_AND_TIME ( #19, #320 ) ;
#468 = CARTESIAN_POINT ( 'NONE',  ( -8.000000000000000000, -10.00000000000000000, 0.000000000000000000 ) ) ;
#469 = VERTEX_POINT ( 'NONE', #436 ) ;
#470 = MECHANICAL_CONTEXT ( 'NONE', #262, 'mechanical' ) ;
#471 = CARTESIAN_POINT ( 'NONE',  ( 8.000000000000000000, 10.00000000000000000, 0.000000000000000000 ) ) ;
#472 = DIRECTION ( 'NONE',  ( 0.000000000000000000, 0.000000000000000000, 1.000000000000000000 ) ) ;
#473 = CIRCLE ( 'NONE', #42, 2.000000000000000000 ) ;
#474 = EDGE_CURVE ( 'NONE', #48, #128, #428, .T. ) ;
#475 = DIRECTION ( 'NONE',  ( -1.000000000000000000, 0.000000000000000000, 0.000000000000000000 ) ) ;
#476 = DIRECTION ( 'NONE',  ( 0.000000000000000000, -1.000000000000000000, 0.000000000000000000 ) ) ;
#477 = ORIENTED_EDGE ( 'NONE', *, *, #170, .T. ) ;
#478 = EDGE_CURVE ( 'NONE', #21, #323, #68, .T. ) ;
#479 = CARTESIAN_POINT ( 'NONE',  ( 8.500000000000000000, 8.000000000000000000, 1.000000000000000000 ) ) ;
#480 = ORIENTED_EDGE ( 'NONE', *, *, #561, .T. ) ;
#481 = CIRCLE ( 'NONE', #554, 2.000000000000000000 ) ;
#482 = CYLINDRICAL_SURFACE ( 'NONE', #451, 2.000000000000000000 ) ;
#483 = ORIENTED_EDGE ( 'NONE', *, *, #370, .T. ) ;
#484 = DIRECTION ( 'NONE',  ( 0.000000000000000000, 0.000000000000000000, 1.000000000000000000 ) ) ;
#485 = EDGE_CURVE ( 'NONE', #574, #302, #45, .T. ) ;
#486 = ORIENTED_EDGE ( 'NONE', *, *, #207, .T. ) ;
#487 = DIRECTION ( 'NONE',  ( 0.000000000000000000, 1.000000000000000000, 0.000000000000000000 ) ) ;
#488 = ORIENTED_EDGE ( 'NONE', *, *, #224, .T. ) ;
#489 = VECTOR ( 'NONE', #516, 1000.000000000000000 ) ;
#490 = CARTESIAN_POINT ( 'NONE',  ( 8.000000000000000000, -8.000000000000000000, 0.000000000000000000 ) ) ;
#491 = CARTESIAN_POINT ( 'NONE',  ( 8.000000000000000000, -10.00000000000000000, 0.000000000000000000 ) ) ;
#492 = DIRECTION ( 'NONE',  ( 1.734723475976807094E-15, -1.000000000000000000, 0.000000000000000000 ) ) ;
#493 = DIRECTION ( 'NONE',  ( 0.000000000000000000, 0.000000000000000000, 1.000000000000000000 ) ) ;
#494 = ADVANCED_FACE ( 'NONE', ( #399 ), #394, .T. ) ;
#495 = CARTESIAN_POINT ( 'NONE',  ( -12.00000000000000000, -8.500000000000000000, 1.000000000000000000 ) ) ;
#496 = ORIENTED_EDGE ( 'NONE', *, *, #478, .F. ) ;
#497 = VECTOR ( 'NONE', #150, 1000.000000000000000 ) ;
#498 = DESIGN_CONTEXT ( 'detailed design', #540, 'design' ) ;
#499 = VECTOR ( 'NONE', #296, 1000.000000000000000 ) ;
#500 =( NAMED_UNIT ( * ) SI_UNIT ( $, .STERADIAN. ) SOLID_ANGLE_UNIT ( ) );
#501 = VERTEX_POINT ( 'NONE', #270 ) ;
#502 = PERSON_AND_ORGANIZATION ( #18446744073709551615, #18446744073709551615 ) ;
#503 = CYLINDRICAL_SURFACE ( 'NONE', #510, 1.500000000000000000 ) ;
#504 = EDGE_CURVE ( 'NONE', #501, #102, #338, .T. ) ;
#505 = VERTEX_POINT ( 'NONE', #309 ) ;
#506 = COORDINATED_UNIVERSAL_TIME_OFFSET ( 10, 0, .AHEAD. ) ;
#507 = CARTESIAN_POINT ( 'NONE',  ( -8.500000000000000000, -8.000000000000000000, 1.000000000000000000 ) ) ;
#508 = ORIENTED_EDGE ( 'NONE', *, *, #561, .F. ) ;
#509 = PERSON_AND_ORGANIZATION ( #18446744073709551615, #18446744073709551615 ) ;
#510 = AXIS2_PLACEMENT_3D ( 'NONE', #112, #241, #426 ) ;
#511 = LINE ( 'NONE', #196, #489 ) ;
#512 = ORIENTED_EDGE ( 'NONE', *, *, #514, .F. ) ;
#513 = DIRECTION ( 'NONE',  ( 1.000000000000000000, 0.000000000000000000, 0.000000000000000000 ) ) ;
#514 = EDGE_CURVE ( 'NONE', #21, #501, #83, .T. ) ;
#515 = PERSON_AND_ORGANIZATION ( #18446744073709551615, #18446744073709551615 ) ;
#516 = DIRECTION ( 'NONE',  ( -1.000000000000000000, 0.000000000000000000, 0.000000000000000000 ) ) ;
#517 = DIRECTION ( 'NONE',  ( 1.000000000000000000, 1.734723475976807094E-15, 0.000000000000000000 ) ) ;
#518 = AXIS2_PLACEMENT_3D ( 'NONE', #313, #493, #271 ) ;
#519 = DIRECTION ( 'NONE',  ( 0.000000000000000000, -1.000000000000000000, 0.000000000000000000 ) ) ;
#520 = ORIENTED_EDGE ( 'NONE', *, *, #277, .F. ) ;
#521 = ADVANCED_FACE ( 'NONE', ( #171 ), #47, .T. ) ;
#522 = DIRECTION ( 'NONE',  ( 1.000000000000000000, 0.000000000000000000, 0.000000000000000000 ) ) ;
#523 = VERTEX_POINT ( 'NONE', #230 ) ;
#524 = CARTESIAN_POINT ( 'NONE',  ( -8.000000000000000000, -8.000000000000000000, 0.000000000000000000 ) ) ;
#525 = VERTEX_POINT ( 'NONE', #50 ) ;
#526 = AXIS2_PLACEMENT_3D ( 'NONE', #524, #74, #28 ) ;
#527 = CYLINDRICAL_SURFACE ( 'NONE', #114, 1.499999999999999556 ) ;
#528 = VERTEX_POINT ( 'NONE', #130 ) ;
#529 = FACE_OUTER_BOUND ( 'NONE', #123, .T. ) ;
#530 = VERTEX_POINT ( 'NONE', #275 ) ;
#531 = DIRECTION ( 'NONE',  ( -1.000000000000000000, 0.000000000000000000, 0.000000000000000000 ) ) ;
#532 = DIRECTION ( 'NONE',  ( 1.734723475976807094E-15, -1.000000000000000000, 0.000000000000000000 ) ) ;
#533 = AXIS2_PLACEMENT_3D ( 'NONE', #87, #144, #449 ) ;
#534 = CIRCLE ( 'NONE', #179, 2.000000000000000000 ) ;
#535 = CIRCLE ( 'NONE', #29, 2.000000000000000000 ) ;
#536 = DIRECTION ( 'NONE',  ( 0.000000000000000000, 0.000000000000000000, 1.000000000000000000 ) ) ;
#537 = FACE_OUTER_BOUND ( 'NONE', #365, .T. ) ;
#538 = EDGE_CURVE ( 'NONE', #48, #149, #534, .T. ) ;
#539 = CARTESIAN_POINT ( 'NONE',  ( -8.500000000000000000, 0.000000000000000000, 2.500000000000000000 ) ) ;
#540 = APPLICATION_CONTEXT ( 'configuration controlled 3d designs of mechanical parts and assemblies' ) ;
#541 = ORIENTED_EDGE ( 'NONE', *, *, #148, .F. ) ;
#542 =( NAMED_UNIT ( * ) PLANE_ANGLE_UNIT ( ) SI_UNIT ( $, .RADIAN. ) );
#543 = DIRECTION ( 'NONE',  ( 0.000000000000000000, 0.000000000000000000, 1.000000000000000000 ) ) ;
#544 = ORIENTED_EDGE ( 'NONE', *, *, #407, .F. ) ;
#545 = CIRCLE ( 'NONE', #152, 1.499999999999999556 ) ;
#546 = EDGE_CURVE ( 'NONE', #528, #359, #383, .T. ) ;
#547 = APPROVAL_ROLE ( '' ) ;
#548 = DIRECTION ( 'NONE',  ( 0.000000000000000000, 0.000000000000000000, 1.000000000000000000 ) ) ;
#549 = EDGE_LOOP ( 'NONE', ( #239, #520, #184, #305 ) ) ;
#550 = CARTESIAN_POINT ( 'NONE',  ( 8.500000000000000000, -8.000000000000000000, 2.500000000000000000 ) ) ;
#551 = ORIENTED_EDGE ( 'NONE', *, *, #346, .T. ) ;
#552 = FACE_OUTER_BOUND ( 'NONE', #390, .T. ) ;
#553 = APPROVAL_ROLE ( '' ) ;
#554 = AXIS2_PLACEMENT_3D ( 'NONE', #174, #354, #532 ) ;
#555 = CARTESIAN_POINT ( 'NONE',  ( -10.00000000000000000, -8.000000000000000000, 1.000000000000000000 ) ) ;
#556 = ADVANCED_FACE ( 'NONE', ( #529 ), #223, .T. ) ;
#557 = ORIENTED_EDGE ( 'NONE', *, *, #70, .F. ) ;
#558 = CARTESIAN_POINT ( 'NONE',  ( -8.000000000000000000, -10.00000000000000000, 1.000000000000000000 ) ) ;
#559 = DIRECTION ( 'NONE',  ( 0.000000000000000000, 1.000000000000000000, 0.000000000000000000 ) ) ;
#560 = LOCAL_TIME ( 18, 50, 25.00000000000000000, #110 ) ;
#561 = EDGE_CURVE ( 'NONE', #281, #420, #272, .T. ) ;
#562 = CARTESIAN_POINT ( 'NONE',  ( -4.440892098500630106E-16, 1.763184213184879787E-16, 2.500000000000000000 ) ) ;
#563 = AXIS2_PLACEMENT_3D ( 'NONE', #422, #26, #513 ) ;
#564 = DIRECTION ( 'NONE',  ( -1.000000000000000000, 0.000000000000000000, 0.000000000000000000 ) ) ;
#565 = ORIENTED_EDGE ( 'NONE', *, *, #474, .T. ) ;
#566 = DIRECTION ( 'NONE',  ( 0.000000000000000000, 0.000000000000000000, 1.000000000000000000 ) ) ;
#567 = ORIENTED_EDGE ( 'NONE', *, *, #546, .F. ) ;
#568 = CARTESIAN_POINT ( 'NONE',  ( 0.000000000000000000, 10.00000000000000000, 1.000000000000000000 ) ) ;
#569 = EDGE_LOOP ( 'NONE', ( #117, #88, #286, #480 ) ) ;
#570 = TOROIDAL_SURFACE ( 'NONE', #198, 0.5000000000000000000, 1.500000000000000000 ) ;
#571 = APPROVAL_PERSON_ORGANIZATION ( #515, #445, #553 ) ;
#572 = ADVANCED_FACE ( 'NONE', ( #350 ), #312, .T. ) ;
#573 = CARTESIAN_POINT ( 'NONE',  ( 8.000000000000000000, -8.000000000000000000, 2.500000000000000000 ) ) ;
#574 = VERTEX_POINT ( 'NONE', #6 ) ;
#575 = DIRECTION ( 'NONE',  ( 1.734723475976807094E-15, -1.000000000000000000, 0.000000000000000000 ) ) ;
#576 = CARTESIAN_POINT ( 'NONE',  ( 8.000000000000000000, 10.00000000000000000, 1.000000000000000000 ) ) ;
#577 = CARTESIAN_POINT ( 'NONE',  ( 8.000000000000000000, 8.000000000000000000, 1.000000000000000000 ) ) ;
#578 = EDGE_CURVE ( 'NONE', #530, #505, #535, .T. ) ;
#579 = DIRECTION ( 'NONE',  ( 1.000000000000000000, 0.000000000000000000, 0.000000000000000000 ) ) ;
ENDSEC;
END-ISO-10303-21;
