ISO-10303-21;
HEADER;
FILE_DESCRIPTION (( 'STEP AP203' ),
    '1' );
FILE_NAME ('J1.step.STEP',
    '2026-06-22T08:49:58',
    ( 'localuser' ),
    ( '' ),
    'SwSTEP 2.0',
    'SolidWorks 2025',
    '' );
FILE_SCHEMA (( 'CONFIG_CONTROL_DESIGN' ));
ENDSEC;

DATA;
#1 = CC_DESIGN_DATE_AND_TIME_ASSIGNMENT ( #206, #27, ( #38 ) ) ;
#2 = SECURITY_CLASSIFICATION_LEVEL ( 'unclassified' ) ;
#3 = PERSON_AND_ORGANIZATION ( #18446744073709551615, #18446744073709551615 ) ;
#4 = APPROVAL_STATUS ( 'not_yet_approved' ) ;
#5 = DIRECTION ( 'NONE',  ( -0.9999999999999963363, -8.742277698980949197E-08, -4.733165431326070832E-29 ) ) ;
#6 = AXIS2_PLACEMENT_3D ( 'NONE', #140, #137, #162 ) ;
#7 = CC_DESIGN_PERSON_AND_ORGANIZATION_ASSIGNMENT ( #82, #97, ( #132 ) ) ;
#8 = PERSON_AND_ORGANIZATION_ROLE ( 'design_supplier' ) ;
#9 = PERSON_AND_ORGANIZATION ( #18446744073709551615, #18446744073709551615 ) ;
#10 = IDENTIFICATION_ROLE ( 'external document id and location', $) ;
#11 = APPROVAL_STATUS ( 'not_yet_approved' ) ;
#12 = SECURITY_CLASSIFICATION_LEVEL ( 'unclassified' ) ;
#13 = PERSON_AND_ORGANIZATION_ROLE ( 'design_supplier' ) ;
#14 = APPROVAL ( #64, 'Coincident' ) ;
#15 = APPROVAL_PERSON_ORGANIZATION ( #112, #14, #181 ) ;
#16 = CC_DESIGN_SECURITY_CLASSIFICATION ( #132, ( #215 ) ) ;
#17 = APPROVAL_PERSON_ORGANIZATION ( #46, #18, #143 ) ;
#18 = APPROVAL ( #128, 'Coincident' ) ;
#19 = APPROVAL_ROLE ( '' ) ;
#20 = SHAPE_REPRESENTATION ( 'J1.step', ( #67, #81 ), #80 ) ;
#21 = DIRECTION ( 'NONE',  ( -8.742277698980998166E-08, 0.9999999999999953371, -4.371138800000016351E-08 ) ) ;
#22 = PERSON_AND_ORGANIZATION ( #18446744073709551615, #18446744073709551615 ) ;
#23 = CC_DESIGN_APPROVAL ( #44, ( #124 ) ) ;
#24 = PERSON_AND_ORGANIZATION ( #18446744073709551615, #18446744073709551615 ) ;
#25 = COORDINATED_UNIVERSAL_TIME_OFFSET ( 10, 0, .AHEAD. ) ;
#26 = PROPERTY_DEFINITION ('document property','', #69 ) ;
#27 = DATE_TIME_ROLE ( 'creation_date' ) ;
#28 = PERSON_AND_ORGANIZATION ( #18446744073709551615, #18446744073709551615 ) ;
#29 = APPROVAL_DATE_TIME ( #166, #139 ) ;
#30 = LOCAL_TIME ( 18, 49, 58.00000000000000000, #118 ) ;
#31 = COORDINATED_UNIVERSAL_TIME_OFFSET ( 10, 0, .AHEAD. ) ;
#32 =( REPRESENTATION_RELATIONSHIP ('NONE','NONE', #20, #212 ) REPRESENTATION_RELATIONSHIP_WITH_TRANSFORMATION ( #33 )SHAPE_REPRESENTATION_RELATIONSHIP( ) );
#33 = ITEM_DEFINED_TRANSFORMATION ( 'NONE', 'NONE', #81,  #6 ) ;
#34 = SECURITY_CLASSIFICATION ( '', '', #129 ) ;
#35 = APPROVAL_DATE_TIME ( #151, #44 ) ;
#36 = CONTEXT_DEPENDENT_SHAPE_REPRESENTATION ( #32, #89 ) ;
#37 = CC_DESIGN_DATE_AND_TIME_ASSIGNMENT ( #127, #192, ( #124 ) ) ;
#38 = PRODUCT_DEFINITION ( 'General', '', #91, #76 ) ;
#39 = DIRECTION ( 'NONE',  ( 1.000000000000000000, 0.000000000000000000, 0.000000000000000000 ) ) ;
#40 = PERSON_AND_ORGANIZATION_ROLE ( 'creator' ) ;
#41 = CALENDAR_DATE ( 2026, 22, 6 ) ;
#42 = LOCAL_TIME ( 18, 49, 58.00000000000000000, #61 ) ;
#43 = PERSON_AND_ORGANIZATION ( #18446744073709551615, #18446744073709551615 ) ;
#44 = APPROVAL ( #150, 'Coincident' ) ;
#45 = COORDINATED_UNIVERSAL_TIME_OFFSET ( 10, 0, .AHEAD. ) ;
#46 = PERSON_AND_ORGANIZATION ( #18446744073709551615, #18446744073709551615 ) ;
#47 = LOCAL_TIME ( 18, 49, 58.00000000000000000, #136 ) ;
#48 = APPROVAL_PERSON_ORGANIZATION ( #117, #44, #113 ) ;
#49 = APPROVAL_DATE_TIME ( #169, #116 ) ;
#50 = CALENDAR_DATE ( 2026, 22, 6 ) ;
#51 = COORDINATED_UNIVERSAL_TIME_OFFSET ( 10, 0, .AHEAD. ) ;
#52 = LOCAL_TIME ( 18, 49, 58.00000000000000000, #163 ) ;
#53 = CC_DESIGN_DATE_AND_TIME_ASSIGNMENT ( #75, #130, ( #34 ) ) ;
#54 = APPLICATION_CONTEXT ( 'configuration controlled 3d designs of mechanical parts and assemblies' ) ;
#55 = CC_DESIGN_DATE_AND_TIME_ASSIGNMENT ( #164, #149, ( #180 ) ) ;
#56 =( NAMED_UNIT ( * ) SI_UNIT ( $, .STERADIAN. ) SOLID_ANGLE_UNIT ( ) );
#57 = PERSON_AND_ORGANIZATION ( #18446744073709551615, #18446744073709551615 ) ;
#58 = CC_DESIGN_PERSON_AND_ORGANIZATION_ASSIGNMENT ( #28, #193, ( #190 ) ) ;
#59 = PROPERTY_DEFINITION ('external definition','', #69 ) ;
#60 = CALENDAR_DATE ( 2026, 22, 6 ) ;
#61 = COORDINATED_UNIVERSAL_TIME_OFFSET ( 10, 0, .AHEAD. ) ;
#62 = CC_DESIGN_APPROVAL ( #131, ( #91 ) ) ;
#63 = PERSON_AND_ORGANIZATION ( #18446744073709551615, #18446744073709551615 ) ;
#64 = APPROVAL_STATUS ( 'not_yet_approved' ) ;
#65 = CC_DESIGN_PERSON_AND_ORGANIZATION_ASSIGNMENT ( #63, #108, ( #34 ) ) ;
#66 = DESIGN_CONTEXT ( 'detailed design', #109, 'design' ) ;
#67 = AXIS2_PLACEMENT_3D ( 'NONE', #121, #141, #39 ) ;
#68 = PERSON_AND_ORGANIZATION_ROLE ( 'creator' ) ;
#69 = DOCUMENT_FILE ( 'BM04B-GHS-TBT.step.STEP' , '', '', #157, '' ,$ ) ;
#70 = APPROVAL_ROLE ( '' ) ;
#71 = CC_DESIGN_APPROVAL ( #116, ( #132 ) ) ;
#72 = CC_DESIGN_PERSON_AND_ORGANIZATION_ASSIGNMENT ( #24, #88, ( #124 ) ) ;
#73 = PERSON_AND_ORGANIZATION ( #18446744073709551615, #18446744073709551615 ) ;
#74 = APPLICATION_CONTEXT ( 'configuration controlled 3d designs of mechanical parts and assemblies' ) ;
#75 = DATE_AND_TIME ( #92, #214 ) ;
#76 = DESIGN_CONTEXT ( 'detailed design', #74, 'design' ) ;
#77 = CALENDAR_DATE ( 2026, 22, 6 ) ;
#78 = APPLIED_EXTERNAL_IDENTIFICATION_ASSIGNMENT ( 'BM04B-GHS-TBT.step.STEP' , #10, #86,( #69) ) ;
#79 = APPROVAL_DATE_TIME ( #211, #14 ) ;
#80 =( GEOMETRIC_REPRESENTATION_CONTEXT ( 3 ) GLOBAL_UNCERTAINTY_ASSIGNED_CONTEXT ( ( #168 ) ) GLOBAL_UNIT_ASSIGNED_CONTEXT ( ( #101, #174, #161 ) ) REPRESENTATION_CONTEXT ( 'NONE', 'WORKASPACE' ) );
#81 = AXIS2_PLACEMENT_3D ( 'NONE', #172, #21, #5 ) ;
#82 = PERSON_AND_ORGANIZATION ( #210, #198 ) ;
#83 = CC_DESIGN_SECURITY_CLASSIFICATION ( #34, ( #91 ) ) ;
#84 = DATE_AND_TIME ( #203, #186 ) ;
#85 = APPLICATION_PROTOCOL_DEFINITION ( 'international standard', 'config_control_design', 1994, #74 ) ;
#86 = EXTERNAL_SOURCE (IDENTIFIER('') ) ;
#87 = CC_DESIGN_PERSON_AND_ORGANIZATION_ASSIGNMENT ( #194, #40, ( #91 ) ) ;
#88 = PERSON_AND_ORGANIZATION_ROLE ( 'classification_officer' ) ;
#89 = PRODUCT_DEFINITION_SHAPE ( 'NONE', 'NONE',  #215 ) ;
#90 = APPROVAL_DATE_TIME ( #191, #131 ) ;
#91 = PRODUCT_DEFINITION_FORMATION_WITH_SPECIFIED_SOURCE ( 'Symmetric', '', #106, .NOT_KNOWN. ) ;
#92 = CALENDAR_DATE ( 2026, 22, 6 ) ;
#93 = APPROVAL_ROLE ( '' ) ;
#94 = CC_DESIGN_PERSON_AND_ORGANIZATION_ASSIGNMENT ( #176, #195, ( #180 ) ) ;
#95 = DATE_AND_TIME ( #77, #171 ) ;
#96 = PRODUCT_RELATED_PRODUCT_CATEGORY ( 'detail', '', ( #106 ) ) ;
#97 = PERSON_AND_ORGANIZATION_ROLE ( 'classification_officer' ) ;
#98 = APPLICATION_CONTEXT ( 'configuration controlled 3d designs of mechanical parts and assemblies' ) ;
#99 = PROPERTY_DEFINITION_REPRESENTATION ( #26, #212 ) ;
#100 = CC_DESIGN_DATE_AND_TIME_ASSIGNMENT ( #196, #115, ( #132 ) ) ;
#101 =( LENGTH_UNIT ( ) NAMED_UNIT ( * ) SI_UNIT ( .MILLI., .METRE. ) );
#102 = CC_DESIGN_PERSON_AND_ORGANIZATION_ASSIGNMENT ( #73, #8, ( #91 ) ) ;
#103 = MECHANICAL_CONTEXT ( 'NONE', #98, 'mechanical' ) ;
#104 = LOCAL_TIME ( 18, 49, 58.00000000000000000, #25 ) ;
#105 = APPROVAL_ROLE ( '' ) ;
#106 = PRODUCT ( 'J1.step', 'J1.step', '', ( #103 ) ) ;
#107 = SHAPE_DEFINITION_REPRESENTATION ( #142, #20 ) ;
#108 = PERSON_AND_ORGANIZATION_ROLE ( 'classification_officer' ) ;
#109 = APPLICATION_CONTEXT ( 'configuration controlled 3d designs of mechanical parts and assemblies' ) ;
#110 = CC_DESIGN_APPROVAL ( #18, ( #154 ) ) ;
#111 = CALENDAR_DATE ( 2026, 22, 6 ) ;
#112 = PERSON_AND_ORGANIZATION ( #18446744073709551615, #18446744073709551615 ) ;
#113 = APPROVAL_ROLE ( '' ) ;
#114 = LOCAL_TIME ( 18, 49, 58.00000000000000000, #144 ) ;
#115 = DATE_TIME_ROLE ( 'classification_date' ) ;
#116 = APPROVAL ( #152, 'UNKNOWN' ) ;
#117 = PERSON_AND_ORGANIZATION ( #18446744073709551615, #18446744073709551615 ) ;
#118 = COORDINATED_UNIVERSAL_TIME_OFFSET ( 10, 0, .AHEAD. ) ;
#119 = APPROVAL_PERSON_ORGANIZATION ( #57, #131, #70 ) ;
#120 = LOCAL_TIME ( 18, 49, 58.00000000000000000, #51 ) ;
#121 = CARTESIAN_POINT ( 'NONE',  ( 0.000000000000000000, 0.000000000000000000, 0.000000000000000000 ) ) ;
#122 = CC_DESIGN_APPROVAL ( #14, ( #34 ) ) ;
#123 = APPLICATION_PROTOCOL_DEFINITION ( 'international standard', 'config_control_design', 1994, #98 ) ;
#124 = SECURITY_CLASSIFICATION ( '', '', #12 ) ;
#125 = CALENDAR_DATE ( 2026, 22, 6 ) ;
#126 = PRODUCT_DEFINITION_SHAPE ( 'NONE', 'NONE',  #180 ) ;
#127 = DATE_AND_TIME ( #60, #52 ) ;
#128 = APPROVAL_STATUS ( 'not_yet_approved' ) ;
#129 = SECURITY_CLASSIFICATION_LEVEL ( 'unclassified' ) ;
#130 = DATE_TIME_ROLE ( 'classification_date' ) ;
#131 = APPROVAL ( #11, 'Coincident' ) ;
#132 = SECURITY_CLASSIFICATION ( '', '', #2 ) ;
#133 = OBJECT_ROLE ('mandatory',$ ) ;
#134 = CC_DESIGN_PERSON_AND_ORGANIZATION_ASSIGNMENT ( #9, #13, ( #154 ) ) ;
#135 = ROLE_ASSOCIATION ( #133, #213 ) ;
#136 = COORDINATED_UNIVERSAL_TIME_OFFSET ( 10, 0, .AHEAD. ) ;
#137 = DIRECTION ( 'NONE',  ( 0.000000000000000000, 0.000000000000000000, 1.000000000000000000 ) ) ;
#138 = APPROVAL_PERSON_ORGANIZATION ( #82, #116, #19 ) ;
#139 = APPROVAL ( #177, 'Coincident' ) ;
#140 = CARTESIAN_POINT ( 'NONE',  ( 0.000000000000000000, 0.000000000000000000, 0.000000000000000000 ) ) ;
#141 = DIRECTION ( 'NONE',  ( 0.000000000000000000, 0.000000000000000000, 1.000000000000000000 ) ) ;
#142 = PRODUCT_DEFINITION_SHAPE ( 'NONE', 'NONE',  #38 ) ;
#143 = APPROVAL_ROLE ( '' ) ;
#144 = COORDINATED_UNIVERSAL_TIME_OFFSET ( 10, 0, .AHEAD. ) ;
#145 = APPROVAL ( #4, 'Coincident' ) ;
#146 = MECHANICAL_CONTEXT ( 'NONE', #54, 'mechanical' ) ;
#147 = COORDINATED_UNIVERSAL_TIME_OFFSET ( 10, 0, .AHEAD. ) ;
#148 = APPROVAL_PERSON_ORGANIZATION ( #208, #139, #93 ) ;
#149 = DATE_TIME_ROLE ( 'creation_date' ) ;
#150 = APPROVAL_STATUS ( 'not_yet_approved' ) ;
#151 = DATE_AND_TIME ( #159, #120 ) ;
#152 = APPROVAL_STATUS ( 'not_yet_approved' ) ;
#153 =( GEOMETRIC_REPRESENTATION_CONTEXT ( 3 ) GLOBAL_UNCERTAINTY_ASSIGNED_CONTEXT ( ( #197 ) ) GLOBAL_UNIT_ASSIGNED_CONTEXT ( ( #188, #201, #56 ) ) REPRESENTATION_CONTEXT ( 'NONE', 'WORKASPACE' ) );
#154 = PRODUCT_DEFINITION_FORMATION_WITH_SPECIFIED_SOURCE ( 'Symmetric', '', #190, .NOT_KNOWN. ) ;
#155 = APPROVAL_DATE_TIME ( #84, #145 ) ;
#156 = PERSON_AND_ORGANIZATION ( #18446744073709551615, #18446744073709551615 ) ;
#157 = DOCUMENT_TYPE ( 'geometry' ) ;
#158 = COORDINATED_UNIVERSAL_TIME_OFFSET ( 10, 0, .AHEAD. ) ;
#159 = CALENDAR_DATE ( 2026, 22, 6 ) ;
#160 = LOCAL_TIME ( 18, 49, 58.00000000000000000, #31 ) ;
#161 =( NAMED_UNIT ( * ) SI_UNIT ( $, .STERADIAN. ) SOLID_ANGLE_UNIT ( ) );
#162 = DIRECTION ( 'NONE',  ( 1.000000000000000000, 0.000000000000000000, 0.000000000000000000 ) ) ;
#163 = COORDINATED_UNIVERSAL_TIME_OFFSET ( 10, 0, .AHEAD. ) ;
#164 = DATE_AND_TIME ( #207, #114 ) ;
#165 = COORDINATED_UNIVERSAL_TIME_OFFSET ( 10, 0, .AHEAD. ) ;
#166 = DATE_AND_TIME ( #41, #104 ) ;
#167 = PERSON_AND_ORGANIZATION_ROLE ( 'creator' ) ;
#168 = UNCERTAINTY_MEASURE_WITH_UNIT (LENGTH_MEASURE( 1.000000000000000082E-05 ), #101, 'distance_accuracy_value', 'NONE');
#169 = DATE_AND_TIME ( #185, #30 ) ;
#170 = CC_DESIGN_PERSON_AND_ORGANIZATION_ASSIGNMENT ( #3, #68, ( #38 ) ) ;
#171 = LOCAL_TIME ( 18, 49, 58.00000000000000000, #165 ) ;
#172 = CARTESIAN_POINT ( 'NONE',  ( 0.5250826415720000195, 5.175136840820000472, 0.2999993860720012173 ) ) ;
#173 = CC_DESIGN_PERSON_AND_ORGANIZATION_ASSIGNMENT ( #43, #167, ( #154 ) ) ;
#174 =( NAMED_UNIT ( * ) PLANE_ANGLE_UNIT ( ) SI_UNIT ( $, .RADIAN. ) );
#175 = PRODUCT_RELATED_PRODUCT_CATEGORY ( 'detail', '', ( #190 ) ) ;
#176 = PERSON_AND_ORGANIZATION ( #18446744073709551615, #18446744073709551615 ) ;
#177 = APPROVAL_STATUS ( 'not_yet_approved' ) ;
#178 = APPROVAL_DATE_TIME ( #95, #18 ) ;
#179 = APPLICATION_PROTOCOL_DEFINITION ( 'international standard', 'config_control_design', 1994, #54 ) ;
#180 = PRODUCT_DEFINITION ( 'General', '', #154, #66 ) ;
#181 = APPROVAL_ROLE ( '' ) ;
#182 = CC_DESIGN_APPROVAL ( #145, ( #38 ) ) ;
#183 = CC_DESIGN_SECURITY_CLASSIFICATION ( #124, ( #154 ) ) ;
#184 = SHAPE_DEFINITION_REPRESENTATION ( #126, #212 ) ;
#185 = CALENDAR_DATE ( 2026, 22, 6 ) ;
#186 = LOCAL_TIME ( 18, 49, 58.00000000000000000, #158 ) ;
#187 = PERSON_AND_ORGANIZATION_ROLE ( 'design_owner' ) ;
#188 =( LENGTH_UNIT ( ) NAMED_UNIT ( * ) SI_UNIT ( .MILLI., .METRE. ) );
#189 = APPROVAL_PERSON_ORGANIZATION ( #22, #145, #105 ) ;
#190 = PRODUCT ( 'BM04B-GHS-TBT.step', 'BM04B-GHS-TBT.step', '', ( #146 ) ) ;
#191 = DATE_AND_TIME ( #125, #202 ) ;
#192 = DATE_TIME_ROLE ( 'classification_date' ) ;
#193 = PERSON_AND_ORGANIZATION_ROLE ( 'design_owner' ) ;
#194 = PERSON_AND_ORGANIZATION ( #18446744073709551615, #18446744073709551615 ) ;
#195 = PERSON_AND_ORGANIZATION_ROLE ( 'creator' ) ;
#196 = DATE_AND_TIME ( #50, #160 ) ;
#197 = UNCERTAINTY_MEASURE_WITH_UNIT (LENGTH_MEASURE( 1.000000000000000082E-05 ), #188, 'distance_accuracy_value', 'NONE');
#198 = ORGANIZATION ( 'NAUO-ORG221', 'UNSPECIFIED', 'UNSPECIFIED' ) ;
#199 = PROPERTY_DEFINITION_REPRESENTATION ( #59, #212 ) ;
#200 = CALENDAR_DATE ( 2026, 22, 6 ) ;
#201 =( NAMED_UNIT ( * ) PLANE_ANGLE_UNIT ( ) SI_UNIT ( $, .RADIAN. ) );
#202 = LOCAL_TIME ( 18, 49, 58.00000000000000000, #45 ) ;
#203 = CALENDAR_DATE ( 2026, 22, 6 ) ;
#204 = CC_DESIGN_PERSON_AND_ORGANIZATION_ASSIGNMENT ( #156, #187, ( #106 ) ) ;
#205 = CC_DESIGN_APPROVAL ( #139, ( #180 ) ) ;
#206 = DATE_AND_TIME ( #200, #47 ) ;
#207 = CALENDAR_DATE ( 2026, 22, 6 ) ;
#208 = PERSON_AND_ORGANIZATION ( #18446744073709551615, #18446744073709551615 ) ;
#209 = APPLICATION_PROTOCOL_DEFINITION ( 'international standard', 'config_control_design', 1994, #109 ) ;
#210 = PERSON ( 'NAUO-PER221', 'UNSPECIFIED', 'UNSPECIFIED', ('UNSPECIFIED'), ('UNSPECIFIED'), ('UNSPECIFIED') ) ;
#211 = DATE_AND_TIME ( #111, #42 ) ;
#212 = SHAPE_REPRESENTATION ( 'BM04B-GHS-TBT.step', ( #6 ), #153 ) ;
#213 = APPLIED_DOCUMENT_REFERENCE ( #69,'',( #180) ) ;
#214 = LOCAL_TIME ( 18, 49, 58.00000000000000000, #147 ) ;
#215 = NEXT_ASSEMBLY_USAGE_OCCURRENCE ( 'NAUO221', ' ', ' ', #38, #180, $ ) ;
ENDSEC;
END-ISO-10303-21;
