ISO-10303-21;
HEADER;
FILE_DESCRIPTION (( 'STEP AP203' ),
    '1' );
FILE_NAME ('J2.step.STEP',
    '2026-06-22T08:49:58',
    ( 'localuser' ),
    ( '' ),
    'SwSTEP 2.0',
    'SolidWorks 2025',
    '' );
FILE_SCHEMA (( 'CONFIG_CONTROL_DESIGN' ));
ENDSEC;

DATA;
#1 = APPROVAL ( #170, 'Coincident' ) ;
#2 = PERSON_AND_ORGANIZATION_ROLE ( 'classification_officer' ) ;
#3 = CALENDAR_DATE ( 2026, 22, 6 ) ;
#4 = PERSON_AND_ORGANIZATION ( #210, #136 ) ;
#5 = APPROVAL_ROLE ( '' ) ;
#6 = APPROVAL ( #147, 'Coincident' ) ;
#7 = CARTESIAN_POINT ( 'NONE',  ( 0.4750834045119992632, 10.72512463378900449, 0.2999993860719994965 ) ) ;
#8 =( NAMED_UNIT ( * ) SI_UNIT ( $, .STERADIAN. ) SOLID_ANGLE_UNIT ( ) );
#9 = CALENDAR_DATE ( 2026, 22, 6 ) ;
#10 = PERSON_AND_ORGANIZATION ( #18446744073709551615, #18446744073709551615 ) ;
#11 = APPLICATION_CONTEXT ( 'configuration controlled 3d designs of mechanical parts and assemblies' ) ;
#12 = CC_DESIGN_PERSON_AND_ORGANIZATION_ASSIGNMENT ( #78, #2, ( #20 ) ) ;
#13 = PERSON_AND_ORGANIZATION_ROLE ( 'design_owner' ) ;
#14 = DATE_AND_TIME ( #63, #197 ) ;
#15 = CC_DESIGN_APPROVAL ( #101, ( #114 ) ) ;
#16 = APPROVAL_ROLE ( '' ) ;
#17 = APPROVAL_STATUS ( 'not_yet_approved' ) ;
#18 = CC_DESIGN_DATE_AND_TIME_ASSIGNMENT ( #198, #151, ( #20 ) ) ;
#19 = LOCAL_TIME ( 18, 49, 58.00000000000000000, #29 ) ;
#20 = SECURITY_CLASSIFICATION ( '', '', #50 ) ;
#21 = PERSON_AND_ORGANIZATION ( #18446744073709551615, #18446744073709551615 ) ;
#22 = CC_DESIGN_PERSON_AND_ORGANIZATION_ASSIGNMENT ( #57, #13, ( #108 ) ) ;
#23 = APPLICATION_CONTEXT ( 'configuration controlled 3d designs of mechanical parts and assemblies' ) ;
#24 = DIRECTION ( 'NONE',  ( 0.000000000000000000, 0.000000000000000000, 1.000000000000000000 ) ) ;
#25 = LOCAL_TIME ( 18, 49, 58.00000000000000000, #70 ) ;
#26 = PERSON_AND_ORGANIZATION_ROLE ( 'creator' ) ;
#27 = PERSON_AND_ORGANIZATION_ROLE ( 'classification_officer' ) ;
#28 = PROPERTY_DEFINITION ('external definition','', #68 ) ;
#29 = COORDINATED_UNIVERSAL_TIME_OFFSET ( 10, 0, .AHEAD. ) ;
#30 = APPROVAL_DATE_TIME ( #42, #6 ) ;
#31 = CC_DESIGN_PERSON_AND_ORGANIZATION_ASSIGNMENT ( #115, #46, ( #94 ) ) ;
#32 = SHAPE_DEFINITION_REPRESENTATION ( #58, #165 ) ;
#33 = PROPERTY_DEFINITION_REPRESENTATION ( #87, #83 ) ;
#34 = UNCERTAINTY_MEASURE_WITH_UNIT (LENGTH_MEASURE( 1.000000000000000082E-05 ), #39, 'distance_accuracy_value', 'NONE');
#35 = APPROVAL_ROLE ( '' ) ;
#36 = CALENDAR_DATE ( 2026, 22, 6 ) ;
#37 = CC_DESIGN_DATE_AND_TIME_ASSIGNMENT ( #211, #60, ( #125 ) ) ;
#38 = LOCAL_TIME ( 18, 49, 58.00000000000000000, #167 ) ;
#39 =( LENGTH_UNIT ( ) NAMED_UNIT ( * ) SI_UNIT ( .MILLI., .METRE. ) );
#40 = APPROVAL_ROLE ( '' ) ;
#41 = OBJECT_ROLE ('mandatory',$ ) ;
#42 = DATE_AND_TIME ( #127, #186 ) ;
#43 = APPROVAL_PERSON_ORGANIZATION ( #10, #100, #40 ) ;
#44 = DATE_AND_TIME ( #74, #53 ) ;
#45 = CC_DESIGN_DATE_AND_TIME_ASSIGNMENT ( #159, #143, ( #176 ) ) ;
#46 = PERSON_AND_ORGANIZATION_ROLE ( 'creator' ) ;
#47 = CC_DESIGN_PERSON_AND_ORGANIZATION_ASSIGNMENT ( #93, #206, ( #194 ) ) ;
#48 = PERSON_AND_ORGANIZATION ( #18446744073709551615, #18446744073709551615 ) ;
#49 = LOCAL_TIME ( 18, 49, 58.00000000000000000, #175 ) ;
#50 = SECURITY_CLASSIFICATION_LEVEL ( 'unclassified' ) ;
#51 = CALENDAR_DATE ( 2026, 22, 6 ) ;
#52 = CONTEXT_DEPENDENT_SHAPE_REPRESENTATION ( #145, #128 ) ;
#53 = LOCAL_TIME ( 18, 49, 58.00000000000000000, #91 ) ;
#54 = APPROVAL ( #90, 'Coincident' ) ;
#55 = APPLICATION_PROTOCOL_DEFINITION ( 'international standard', 'config_control_design', 1994, #23 ) ;
#56 = SECURITY_CLASSIFICATION ( '', '', #212 ) ;
#57 = PERSON_AND_ORGANIZATION ( #18446744073709551615, #18446744073709551615 ) ;
#58 = PRODUCT_DEFINITION_SHAPE ( 'NONE', 'NONE',  #176 ) ;
#59 = CALENDAR_DATE ( 2026, 22, 6 ) ;
#60 = DATE_TIME_ROLE ( 'classification_date' ) ;
#61 = CC_DESIGN_APPROVAL ( #100, ( #194 ) ) ;
#62 = PERSON_AND_ORGANIZATION ( #18446744073709551615, #18446744073709551615 ) ;
#63 = CALENDAR_DATE ( 2026, 22, 6 ) ;
#64 = APPROVAL_STATUS ( 'not_yet_approved' ) ;
#65 = EXTERNAL_SOURCE (IDENTIFIER('') ) ;
#66 = CALENDAR_DATE ( 2026, 22, 6 ) ;
#67 = DATE_TIME_ROLE ( 'classification_date' ) ;
#68 = DOCUMENT_FILE ( 'BM04B-GHS-TBT.step.STEP' , '', '', #112, '' ,$ ) ;
#69 = LOCAL_TIME ( 18, 49, 58.00000000000000000, #73 ) ;
#70 = COORDINATED_UNIVERSAL_TIME_OFFSET ( 10, 0, .AHEAD. ) ;
#71 = APPROVAL_DATE_TIME ( #191, #100 ) ;
#72 = APPROVAL ( #17, 'Coincident' ) ;
#73 = COORDINATED_UNIVERSAL_TIME_OFFSET ( 10, 0, .AHEAD. ) ;
#74 = CALENDAR_DATE ( 2026, 22, 6 ) ;
#75 = APPROVAL_ROLE ( '' ) ;
#76 = COORDINATED_UNIVERSAL_TIME_OFFSET ( 10, 0, .AHEAD. ) ;
#77 = APPROVAL ( #64, 'UNKNOWN' ) ;
#78 = PERSON_AND_ORGANIZATION ( #18446744073709551615, #18446744073709551615 ) ;
#79 = AXIS2_PLACEMENT_3D ( 'NONE', #140, #24, #102 ) ;
#80 = ITEM_DEFINED_TRANSFORMATION ( 'NONE', 'NONE', #204,  #79 ) ;
#81 = COORDINATED_UNIVERSAL_TIME_OFFSET ( 10, 0, .AHEAD. ) ;
#82 = CC_DESIGN_APPROVAL ( #1, ( #176 ) ) ;
#83 = SHAPE_REPRESENTATION ( 'BM04B-GHS-TBT.step', ( #79 ), #182 ) ;
#84 = CC_DESIGN_DATE_AND_TIME_ASSIGNMENT ( #44, #162, ( #194 ) ) ;
#85 = CC_DESIGN_PERSON_AND_ORGANIZATION_ASSIGNMENT ( #173, #133, ( #94 ) ) ;
#86 = PERSON_AND_ORGANIZATION ( #18446744073709551615, #18446744073709551615 ) ;
#87 = PROPERTY_DEFINITION ('document property','', #68 ) ;
#88 = APPLICATION_PROTOCOL_DEFINITION ( 'international standard', 'config_control_design', 1994, #11 ) ;
#89 = APPROVAL_PERSON_ORGANIZATION ( #123, #1, #5 ) ;
#90 = APPROVAL_STATUS ( 'not_yet_approved' ) ;
#91 = COORDINATED_UNIVERSAL_TIME_OFFSET ( 10, 0, .AHEAD. ) ;
#92 = DESIGN_CONTEXT ( 'detailed design', #11, 'design' ) ;
#93 = PERSON_AND_ORGANIZATION ( #18446744073709551615, #18446744073709551615 ) ;
#94 = PRODUCT_DEFINITION_FORMATION_WITH_SPECIFIED_SOURCE ( 'Symmetric', '', #142, .NOT_KNOWN. ) ;
#95 = CC_DESIGN_PERSON_AND_ORGANIZATION_ASSIGNMENT ( #86, #158, ( #114 ) ) ;
#96 = APPROVAL_DATE_TIME ( #135, #77 ) ;
#97 = IDENTIFICATION_ROLE ( 'external document id and location', $) ;
#98 = SHAPE_DEFINITION_REPRESENTATION ( #189, #83 ) ;
#99 = UNCERTAINTY_MEASURE_WITH_UNIT (LENGTH_MEASURE( 1.000000000000000082E-05 ), #188, 'distance_accuracy_value', 'NONE');
#100 = APPROVAL ( #130, 'Coincident' ) ;
#101 = APPROVAL ( #163, 'Coincident' ) ;
#102 = DIRECTION ( 'NONE',  ( 1.000000000000000000, 0.000000000000000000, 0.000000000000000000 ) ) ;
#103 = LOCAL_TIME ( 18, 49, 58.00000000000000000, #116 ) ;
#104 = DIRECTION ( 'NONE',  ( -0.9999999999999963363, -8.742277698980949197E-08, -4.733165431326070832E-29 ) ) ;
#105 = LOCAL_TIME ( 18, 49, 58.00000000000000000, #152 ) ;
#106 = CC_DESIGN_PERSON_AND_ORGANIZATION_ASSIGNMENT ( #4, #199, ( #56 ) ) ;
#107 =( NAMED_UNIT ( * ) PLANE_ANGLE_UNIT ( ) SI_UNIT ( $, .RADIAN. ) );
#108 = PRODUCT ( 'BM04B-GHS-TBT.step', 'BM04B-GHS-TBT.step', '', ( #149 ) ) ;
#109 = APPROVAL_DATE_TIME ( #131, #1 ) ;
#110 = PERSON_AND_ORGANIZATION_ROLE ( 'creator' ) ;
#111 = APPROVAL_PERSON_ORGANIZATION ( #48, #54, #75 ) ;
#112 = DOCUMENT_TYPE ( 'geometry' ) ;
#113 = CC_DESIGN_APPROVAL ( #77, ( #56 ) ) ;
#114 = PRODUCT_DEFINITION_FORMATION_WITH_SPECIFIED_SOURCE ( 'Symmetric', '', #108, .NOT_KNOWN. ) ;
#115 = PERSON_AND_ORGANIZATION ( #18446744073709551615, #18446744073709551615 ) ;
#116 = COORDINATED_UNIVERSAL_TIME_OFFSET ( 10, 0, .AHEAD. ) ;
#117 = CC_DESIGN_PERSON_AND_ORGANIZATION_ASSIGNMENT ( #207, #27, ( #125 ) ) ;
#118 = DATE_AND_TIME ( #51, #214 ) ;
#119 =( GEOMETRIC_REPRESENTATION_CONTEXT ( 3 ) GLOBAL_UNCERTAINTY_ASSIGNED_CONTEXT ( ( #34 ) ) GLOBAL_UNIT_ASSIGNED_CONTEXT ( ( #39, #107, #8 ) ) REPRESENTATION_CONTEXT ( 'NONE', 'WORKASPACE' ) );
#120 = APPLIED_DOCUMENT_REFERENCE ( #68,'',( #194) ) ;
#121 = DIRECTION ( 'NONE',  ( 0.000000000000000000, 0.000000000000000000, 1.000000000000000000 ) ) ;
#122 = APPROVAL_PERSON_ORGANIZATION ( #174, #6, #209 ) ;
#123 = PERSON_AND_ORGANIZATION ( #18446744073709551615, #18446744073709551615 ) ;
#124 =( NAMED_UNIT ( * ) SI_UNIT ( $, .STERADIAN. ) SOLID_ANGLE_UNIT ( ) );
#125 = SECURITY_CLASSIFICATION ( '', '', #144 ) ;
#126 = DIRECTION ( 'NONE',  ( -8.742277698980998166E-08, 0.9999999999999953371, -4.371138800000016351E-08 ) ) ;
#127 = CALENDAR_DATE ( 2026, 22, 6 ) ;
#128 = PRODUCT_DEFINITION_SHAPE ( 'NONE', 'NONE',  #215 ) ;
#129 = CALENDAR_DATE ( 2026, 22, 6 ) ;
#130 = APPROVAL_STATUS ( 'not_yet_approved' ) ;
#131 = DATE_AND_TIME ( #9, #25 ) ;
#132 = CC_DESIGN_PERSON_AND_ORGANIZATION_ASSIGNMENT ( #62, #110, ( #176 ) ) ;
#133 = PERSON_AND_ORGANIZATION_ROLE ( 'design_supplier' ) ;
#134 = COORDINATED_UNIVERSAL_TIME_OFFSET ( 10, 0, .AHEAD. ) ;
#135 = DATE_AND_TIME ( #66, #105 ) ;
#136 = ORGANIZATION ( 'NAUO-ORG225', 'UNSPECIFIED', 'UNSPECIFIED' ) ;
#137 = APPLICATION_PROTOCOL_DEFINITION ( 'international standard', 'config_control_design', 1994, #185 ) ;
#138 = PERSON_AND_ORGANIZATION ( #18446744073709551615, #18446744073709551615 ) ;
#139 = CC_DESIGN_APPROVAL ( #54, ( #125 ) ) ;
#140 = CARTESIAN_POINT ( 'NONE',  ( 0.000000000000000000, 0.000000000000000000, 0.000000000000000000 ) ) ;
#141 = CC_DESIGN_DATE_AND_TIME_ASSIGNMENT ( #166, #67, ( #56 ) ) ;
#142 = PRODUCT ( 'J2.step', 'J2.step', '', ( #156 ) ) ;
#143 = DATE_TIME_ROLE ( 'creation_date' ) ;
#144 = SECURITY_CLASSIFICATION_LEVEL ( 'unclassified' ) ;
#145 =( REPRESENTATION_RELATIONSHIP ('NONE','NONE', #165, #83 ) REPRESENTATION_RELATIONSHIP_WITH_TRANSFORMATION ( #80 )SHAPE_REPRESENTATION_RELATIONSHIP( ) );
#146 = PERSON_AND_ORGANIZATION ( #18446744073709551615, #18446744073709551615 ) ;
#147 = APPROVAL_STATUS ( 'not_yet_approved' ) ;
#148 = CC_DESIGN_APPROVAL ( #6, ( #94 ) ) ;
#149 = MECHANICAL_CONTEXT ( 'NONE', #213, 'mechanical' ) ;
#150 = APPROVAL_DATE_TIME ( #118, #72 ) ;
#151 = DATE_TIME_ROLE ( 'classification_date' ) ;
#152 = COORDINATED_UNIVERSAL_TIME_OFFSET ( 10, 0, .AHEAD. ) ;
#153 = CC_DESIGN_PERSON_AND_ORGANIZATION_ASSIGNMENT ( #138, #202, ( #142 ) ) ;
#154 = DIRECTION ( 'NONE',  ( 1.000000000000000000, 0.000000000000000000, 0.000000000000000000 ) ) ;
#155 = CC_DESIGN_SECURITY_CLASSIFICATION ( #125, ( #94 ) ) ;
#156 = MECHANICAL_CONTEXT ( 'NONE', #185, 'mechanical' ) ;
#157 =( NAMED_UNIT ( * ) PLANE_ANGLE_UNIT ( ) SI_UNIT ( $, .RADIAN. ) );
#158 = PERSON_AND_ORGANIZATION_ROLE ( 'design_supplier' ) ;
#159 = DATE_AND_TIME ( #192, #49 ) ;
#160 = APPLIED_EXTERNAL_IDENTIFICATION_ASSIGNMENT ( 'BM04B-GHS-TBT.step.STEP' , #97, #65,( #68) ) ;
#161 = APPLICATION_PROTOCOL_DEFINITION ( 'international standard', 'config_control_design', 1994, #213 ) ;
#162 = DATE_TIME_ROLE ( 'creation_date' ) ;
#163 = APPROVAL_STATUS ( 'not_yet_approved' ) ;
#164 = APPROVAL_PERSON_ORGANIZATION ( #4, #77, #181 ) ;
#165 = SHAPE_REPRESENTATION ( 'J2.step', ( #201, #204 ), #119 ) ;
#166 = DATE_AND_TIME ( #36, #171 ) ;
#167 = COORDINATED_UNIVERSAL_TIME_OFFSET ( 10, 0, .AHEAD. ) ;
#168 = PRODUCT_RELATED_PRODUCT_CATEGORY ( 'detail', '', ( #108 ) ) ;
#169 = APPROVAL_PERSON_ORGANIZATION ( #21, #72, #35 ) ;
#170 = APPROVAL_STATUS ( 'not_yet_approved' ) ;
#171 = LOCAL_TIME ( 18, 49, 58.00000000000000000, #134 ) ;
#172 = PRODUCT_RELATED_PRODUCT_CATEGORY ( 'detail', '', ( #142 ) ) ;
#173 = PERSON_AND_ORGANIZATION ( #18446744073709551615, #18446744073709551615 ) ;
#174 = PERSON_AND_ORGANIZATION ( #18446744073709551615, #18446744073709551615 ) ;
#175 = COORDINATED_UNIVERSAL_TIME_OFFSET ( 10, 0, .AHEAD. ) ;
#176 = PRODUCT_DEFINITION ( 'General', '', #94, #195 ) ;
#177 = DATE_AND_TIME ( #59, #19 ) ;
#178 = CC_DESIGN_PERSON_AND_ORGANIZATION_ASSIGNMENT ( #196, #26, ( #114 ) ) ;
#179 = APPROVAL_DATE_TIME ( #177, #54 ) ;
#180 = PROPERTY_DEFINITION_REPRESENTATION ( #28, #83 ) ;
#181 = APPROVAL_ROLE ( '' ) ;
#182 =( GEOMETRIC_REPRESENTATION_CONTEXT ( 3 ) GLOBAL_UNCERTAINTY_ASSIGNED_CONTEXT ( ( #99 ) ) GLOBAL_UNIT_ASSIGNED_CONTEXT ( ( #188, #157, #124 ) ) REPRESENTATION_CONTEXT ( 'NONE', 'WORKASPACE' ) );
#183 = CC_DESIGN_SECURITY_CLASSIFICATION ( #20, ( #114 ) ) ;
#184 = CARTESIAN_POINT ( 'NONE',  ( 0.000000000000000000, 0.000000000000000000, 0.000000000000000000 ) ) ;
#185 = APPLICATION_CONTEXT ( 'configuration controlled 3d designs of mechanical parts and assemblies' ) ;
#186 = LOCAL_TIME ( 18, 49, 58.00000000000000000, #193 ) ;
#187 = APPROVAL_PERSON_ORGANIZATION ( #146, #101, #16 ) ;
#188 =( LENGTH_UNIT ( ) NAMED_UNIT ( * ) SI_UNIT ( .MILLI., .METRE. ) );
#189 = PRODUCT_DEFINITION_SHAPE ( 'NONE', 'NONE',  #194 ) ;
#190 = APPROVAL_DATE_TIME ( #14, #101 ) ;
#191 = DATE_AND_TIME ( #129, #69 ) ;
#192 = CALENDAR_DATE ( 2026, 22, 6 ) ;
#193 = COORDINATED_UNIVERSAL_TIME_OFFSET ( 10, 0, .AHEAD. ) ;
#194 = PRODUCT_DEFINITION ( 'General', '', #114, #92 ) ;
#195 = DESIGN_CONTEXT ( 'detailed design', #23, 'design' ) ;
#196 = PERSON_AND_ORGANIZATION ( #18446744073709551615, #18446744073709551615 ) ;
#197 = LOCAL_TIME ( 18, 49, 58.00000000000000000, #76 ) ;
#198 = DATE_AND_TIME ( #3, #38 ) ;
#199 = PERSON_AND_ORGANIZATION_ROLE ( 'classification_officer' ) ;
#200 = ROLE_ASSOCIATION ( #41, #120 ) ;
#201 = AXIS2_PLACEMENT_3D ( 'NONE', #184, #121, #154 ) ;
#202 = PERSON_AND_ORGANIZATION_ROLE ( 'design_owner' ) ;
#203 = CC_DESIGN_SECURITY_CLASSIFICATION ( #56, ( #215 ) ) ;
#204 = AXIS2_PLACEMENT_3D ( 'NONE', #7, #126, #104 ) ;
#205 = CC_DESIGN_APPROVAL ( #72, ( #20 ) ) ;
#206 = PERSON_AND_ORGANIZATION_ROLE ( 'creator' ) ;
#207 = PERSON_AND_ORGANIZATION ( #18446744073709551615, #18446744073709551615 ) ;
#208 = CALENDAR_DATE ( 2026, 22, 6 ) ;
#209 = APPROVAL_ROLE ( '' ) ;
#210 = PERSON ( 'NAUO-PER225', 'UNSPECIFIED', 'UNSPECIFIED', ('UNSPECIFIED'), ('UNSPECIFIED'), ('UNSPECIFIED') ) ;
#211 = DATE_AND_TIME ( #208, #103 ) ;
#212 = SECURITY_CLASSIFICATION_LEVEL ( 'unclassified' ) ;
#213 = APPLICATION_CONTEXT ( 'configuration controlled 3d designs of mechanical parts and assemblies' ) ;
#214 = LOCAL_TIME ( 18, 49, 58.00000000000000000, #81 ) ;
#215 = NEXT_ASSEMBLY_USAGE_OCCURRENCE ( 'NAUO225', ' ', ' ', #176, #194, $ ) ;
ENDSEC;
END-ISO-10303-21;
