ISO-10303-21;
HEADER;
FILE_DESCRIPTION (( 'STEP AP203' ),
    '1' );
FILE_NAME ('J3.step.STEP',
    '2026-06-22T08:49:58',
    ( 'localuser' ),
    ( '' ),
    'SwSTEP 2.0',
    'SolidWorks 2025',
    '' );
FILE_SCHEMA (( 'CONFIG_CONTROL_DESIGN' ));
ENDSEC;

DATA;
#1 = DATE_TIME_ROLE ( 'classification_date' ) ;
#2 = PERSON_AND_ORGANIZATION_ROLE ( 'creator' ) ;
#3 = APPROVAL ( #80, 'UNKNOWN' ) ;
#4 = DATE_AND_TIME ( #160, #27 ) ;
#5 = LOCAL_TIME ( 18, 49, 58.00000000000000000, #211 ) ;
#6 = PERSON_AND_ORGANIZATION_ROLE ( 'design_owner' ) ;
#7 = APPROVAL_ROLE ( '' ) ;
#8 = PROPERTY_DEFINITION_REPRESENTATION ( #55, #31 ) ;
#9 = CC_DESIGN_APPROVAL ( #3, ( #184 ) ) ;
#10 = DATE_AND_TIME ( #135, #205 ) ;
#11 = PERSON_AND_ORGANIZATION ( #18446744073709551615, #18446744073709551615 ) ;
#12 =( NAMED_UNIT ( * ) PLANE_ANGLE_UNIT ( ) SI_UNIT ( $, .RADIAN. ) );
#13 = PRODUCT_DEFINITION_FORMATION_WITH_SPECIFIED_SOURCE ( 'Symmetric', '', #192, .NOT_KNOWN. ) ;
#14 = LOCAL_TIME ( 18, 49, 58.00000000000000000, #79 ) ;
#15 = APPROVAL ( #48, 'Coincident' ) ;
#16 = PERSON_AND_ORGANIZATION_ROLE ( 'creator' ) ;
#17 = PRODUCT_DEFINITION_FORMATION_WITH_SPECIFIED_SOURCE ( 'Symmetric', '', #133, .NOT_KNOWN. ) ;
#18 = SHAPE_DEFINITION_REPRESENTATION ( #146, #131 ) ;
#19 = COORDINATED_UNIVERSAL_TIME_OFFSET ( 10, 0, .AHEAD. ) ;
#20 = CC_DESIGN_PERSON_AND_ORGANIZATION_ASSIGNMENT ( #89, #157, ( #75 ) ) ;
#21 = PERSON_AND_ORGANIZATION_ROLE ( 'design_supplier' ) ;
#22 = PERSON_AND_ORGANIZATION_ROLE ( 'creator' ) ;
#23 = PROPERTY_DEFINITION ('document property','', #85 ) ;
#24 = ROLE_ASSOCIATION ( #49, #132 ) ;
#25 = CARTESIAN_POINT ( 'NONE',  ( 16.67508035275400147, 5.175136840820000472, 0.2999993860719994965 ) ) ;
#26 = DIRECTION ( 'NONE',  ( -0.9999999999999963363, -8.742277698980949197E-08, -4.733165431326070832E-29 ) ) ;
#27 = LOCAL_TIME ( 18, 49, 58.00000000000000000, #187 ) ;
#28 = APPROVAL_ROLE ( '' ) ;
#29 = APPLICATION_PROTOCOL_DEFINITION ( 'international standard', 'config_control_design', 1994, #148 ) ;
#30 = SECURITY_CLASSIFICATION ( '', '', #39 ) ;
#31 = SHAPE_REPRESENTATION ( 'BM04B-GHS-TBT.step', ( #64 ), #86 ) ;
#32 = CC_DESIGN_PERSON_AND_ORGANIZATION_ASSIGNMENT ( #185, #167, ( #141 ) ) ;
#33 = DIRECTION ( 'NONE',  ( 1.000000000000000000, 0.000000000000000000, 0.000000000000000000 ) ) ;
#34 = PERSON_AND_ORGANIZATION ( #18446744073709551615, #18446744073709551615 ) ;
#35 = ORGANIZATION ( 'NAUO-ORG197', 'UNSPECIFIED', 'UNSPECIFIED' ) ;
#36 = CALENDAR_DATE ( 2026, 22, 6 ) ;
#37 = APPROVAL_STATUS ( 'not_yet_approved' ) ;
#38 = COORDINATED_UNIVERSAL_TIME_OFFSET ( 10, 0, .AHEAD. ) ;
#39 = SECURITY_CLASSIFICATION_LEVEL ( 'unclassified' ) ;
#40 = LOCAL_TIME ( 18, 49, 58.00000000000000000, #189 ) ;
#41 = CC_DESIGN_PERSON_AND_ORGANIZATION_ASSIGNMENT ( #34, #158, ( #30 ) ) ;
#42 = APPROVAL_STATUS ( 'not_yet_approved' ) ;
#43 = PROPERTY_DEFINITION_REPRESENTATION ( #23, #31 ) ;
#44 = DIRECTION ( 'NONE',  ( 1.000000000000000000, 0.000000000000000000, 0.000000000000000000 ) ) ;
#45 = UNCERTAINTY_MEASURE_WITH_UNIT (LENGTH_MEASURE( 1.000000000000000082E-05 ), #171, 'distance_accuracy_value', 'NONE');
#46 = CC_DESIGN_SECURITY_CLASSIFICATION ( #30, ( #13 ) ) ;
#47 = APPROVAL_DATE_TIME ( #137, #117 ) ;
#48 = APPROVAL_STATUS ( 'not_yet_approved' ) ;
#49 = OBJECT_ROLE ('mandatory',$ ) ;
#50 = DATE_AND_TIME ( #176, #129 ) ;
#51 = MECHANICAL_CONTEXT ( 'NONE', #114, 'mechanical' ) ;
#52 = APPROVAL_ROLE ( '' ) ;
#53 = APPLICATION_PROTOCOL_DEFINITION ( 'international standard', 'config_control_design', 1994, #114 ) ;
#54 = PRODUCT_RELATED_PRODUCT_CATEGORY ( 'detail', '', ( #192 ) ) ;
#55 = PROPERTY_DEFINITION ('external definition','', #85 ) ;
#56 = APPROVAL ( #179, 'Coincident' ) ;
#57 = COORDINATED_UNIVERSAL_TIME_OFFSET ( 10, 0, .AHEAD. ) ;
#58 = LOCAL_TIME ( 18, 49, 58.00000000000000000, #38 ) ;
#59 = CALENDAR_DATE ( 2026, 22, 6 ) ;
#60 = CC_DESIGN_APPROVAL ( #15, ( #75 ) ) ;
#61 = SECURITY_CLASSIFICATION_LEVEL ( 'unclassified' ) ;
#62 = DATE_TIME_ROLE ( 'classification_date' ) ;
#63 = CARTESIAN_POINT ( 'NONE',  ( 0.000000000000000000, 0.000000000000000000, 0.000000000000000000 ) ) ;
#64 = AXIS2_PLACEMENT_3D ( 'NONE', #170, #122, #33 ) ;
#65 = APPLICATION_CONTEXT ( 'configuration controlled 3d designs of mechanical parts and assemblies' ) ;
#66 = APPROVAL_STATUS ( 'not_yet_approved' ) ;
#67 = UNCERTAINTY_MEASURE_WITH_UNIT (LENGTH_MEASURE( 1.000000000000000082E-05 ), #175, 'distance_accuracy_value', 'NONE');
#68 = LOCAL_TIME ( 18, 49, 58.00000000000000000, #123 ) ;
#69 = DESIGN_CONTEXT ( 'detailed design', #148, 'design' ) ;
#70 = PERSON_AND_ORGANIZATION ( #18446744073709551615, #18446744073709551615 ) ;
#71 = DATE_AND_TIME ( #36, #58 ) ;
#72 = CC_DESIGN_DATE_AND_TIME_ASSIGNMENT ( #206, #163, ( #164 ) ) ;
#73 = CC_DESIGN_APPROVAL ( #202, ( #13 ) ) ;
#74 = PERSON_AND_ORGANIZATION ( #18446744073709551615, #18446744073709551615 ) ;
#75 = SECURITY_CLASSIFICATION ( '', '', #203 ) ;
#76 = DATE_AND_TIME ( #178, #190 ) ;
#77 = CC_DESIGN_PERSON_AND_ORGANIZATION_ASSIGNMENT ( #212, #84, ( #192 ) ) ;
#78 = COORDINATED_UNIVERSAL_TIME_OFFSET ( 10, 0, .AHEAD. ) ;
#79 = COORDINATED_UNIVERSAL_TIME_OFFSET ( 10, 0, .AHEAD. ) ;
#80 = APPROVAL_STATUS ( 'not_yet_approved' ) ;
#81 = EXTERNAL_SOURCE (IDENTIFIER('') ) ;
#82 = DATE_AND_TIME ( #98, #14 ) ;
#83 = COORDINATED_UNIVERSAL_TIME_OFFSET ( 10, 0, .AHEAD. ) ;
#84 = PERSON_AND_ORGANIZATION_ROLE ( 'design_owner' ) ;
#85 = DOCUMENT_FILE ( 'BM04B-GHS-TBT.step.STEP' , '', '', #173, '' ,$ ) ;
#86 =( GEOMETRIC_REPRESENTATION_CONTEXT ( 3 ) GLOBAL_UNCERTAINTY_ASSIGNED_CONTEXT ( ( #67 ) ) GLOBAL_UNIT_ASSIGNED_CONTEXT ( ( #175, #12, #198 ) ) REPRESENTATION_CONTEXT ( 'NONE', 'WORKASPACE' ) );
#87 = PRODUCT_RELATED_PRODUCT_CATEGORY ( 'detail', '', ( #133 ) ) ;
#88 = CC_DESIGN_SECURITY_CLASSIFICATION ( #184, ( #215 ) ) ;
#89 = PERSON_AND_ORGANIZATION ( #18446744073709551615, #18446744073709551615 ) ;
#90 = PERSON_AND_ORGANIZATION_ROLE ( 'design_supplier' ) ;
#91 = APPLICATION_CONTEXT ( 'configuration controlled 3d designs of mechanical parts and assemblies' ) ;
#92 = APPROVAL_DATE_TIME ( #201, #56 ) ;
#93 = APPROVAL_DATE_TIME ( #50, #126 ) ;
#94 = CALENDAR_DATE ( 2026, 22, 6 ) ;
#95 = PRODUCT_DEFINITION_SHAPE ( 'NONE', 'NONE',  #164 ) ;
#96 = AXIS2_PLACEMENT_3D ( 'NONE', #25, #119, #26 ) ;
#97 = APPROVAL_PERSON_ORGANIZATION ( #153, #3, #99 ) ;
#98 = CALENDAR_DATE ( 2026, 22, 6 ) ;
#99 = APPROVAL_ROLE ( '' ) ;
#100 = CC_DESIGN_APPROVAL ( #126, ( #30 ) ) ;
#101 = DIRECTION ( 'NONE',  ( 0.000000000000000000, 0.000000000000000000, 1.000000000000000000 ) ) ;
#102 = APPLIED_EXTERNAL_IDENTIFICATION_ASSIGNMENT ( 'BM04B-GHS-TBT.step.STEP' , #159, #81,( #85) ) ;
#103 = CC_DESIGN_DATE_AND_TIME_ASSIGNMENT ( #4, #1, ( #75 ) ) ;
#104 = CC_DESIGN_DATE_AND_TIME_ASSIGNMENT ( #10, #62, ( #184 ) ) ;
#105 = CC_DESIGN_PERSON_AND_ORGANIZATION_ASSIGNMENT ( #70, #21, ( #13 ) ) ;
#106 =( NAMED_UNIT ( * ) PLANE_ANGLE_UNIT ( ) SI_UNIT ( $, .RADIAN. ) );
#107 = PERSON_AND_ORGANIZATION ( #18446744073709551615, #18446744073709551615 ) ;
#108 = PERSON_AND_ORGANIZATION ( #18446744073709551615, #18446744073709551615 ) ;
#109 = CALENDAR_DATE ( 2026, 22, 6 ) ;
#110 = DATE_TIME_ROLE ( 'classification_date' ) ;
#111 = APPROVAL_ROLE ( '' ) ;
#112 = PRODUCT_DEFINITION_SHAPE ( 'NONE', 'NONE',  #215 ) ;
#113 = LOCAL_TIME ( 18, 49, 58.00000000000000000, #149 ) ;
#114 = APPLICATION_CONTEXT ( 'configuration controlled 3d designs of mechanical parts and assemblies' ) ;
#115 = SHAPE_DEFINITION_REPRESENTATION ( #95, #31 ) ;
#116 = APPROVAL_ROLE ( '' ) ;
#117 = APPROVAL ( #66, 'Coincident' ) ;
#118 = LOCAL_TIME ( 18, 49, 58.00000000000000000, #19 ) ;
#119 = DIRECTION ( 'NONE',  ( -8.742277698980998166E-08, 0.9999999999999953371, -4.371138800000016351E-08 ) ) ;
#120 = APPROVAL_PERSON_ORGANIZATION ( #74, #15, #139 ) ;
#121 =( NAMED_UNIT ( * ) SI_UNIT ( $, .STERADIAN. ) SOLID_ANGLE_UNIT ( ) );
#122 = DIRECTION ( 'NONE',  ( 0.000000000000000000, 0.000000000000000000, 1.000000000000000000 ) ) ;
#123 = COORDINATED_UNIVERSAL_TIME_OFFSET ( 10, 0, .AHEAD. ) ;
#124 = AXIS2_PLACEMENT_3D ( 'NONE', #63, #101, #44 ) ;
#125 = APPROVAL_DATE_TIME ( #76, #202 ) ;
#126 = APPROVAL ( #130, 'Coincident' ) ;
#127 = PERSON_AND_ORGANIZATION ( #18446744073709551615, #18446744073709551615 ) ;
#128 = PERSON_AND_ORGANIZATION ( #18446744073709551615, #18446744073709551615 ) ;
#129 = LOCAL_TIME ( 18, 49, 58.00000000000000000, #140 ) ;
#130 = APPROVAL_STATUS ( 'not_yet_approved' ) ;
#131 = SHAPE_REPRESENTATION ( 'J3.step', ( #124, #96 ), #161 ) ;
#132 = APPLIED_DOCUMENT_REFERENCE ( #85,'',( #164) ) ;
#133 = PRODUCT ( 'BM04B-GHS-TBT.step', 'BM04B-GHS-TBT.step', '', ( #51 ) ) ;
#134 = CC_DESIGN_PERSON_AND_ORGANIZATION_ASSIGNMENT ( #162, #6, ( #133 ) ) ;
#135 = CALENDAR_DATE ( 2026, 22, 6 ) ;
#136 = DATE_AND_TIME ( #59, #5 ) ;
#137 = DATE_AND_TIME ( #138, #113 ) ;
#138 = CALENDAR_DATE ( 2026, 22, 6 ) ;
#139 = APPROVAL_ROLE ( '' ) ;
#140 = COORDINATED_UNIVERSAL_TIME_OFFSET ( 10, 0, .AHEAD. ) ;
#141 = PRODUCT_DEFINITION ( 'General', '', #13, #69 ) ;
#142 = APPROVAL_PERSON_ORGANIZATION ( #11, #202, #116 ) ;
#143 = DATE_AND_TIME ( #186, #68 ) ;
#144 = APPROVAL_DATE_TIME ( #207, #154 ) ;
#145 = CALENDAR_DATE ( 2026, 22, 6 ) ;
#146 = PRODUCT_DEFINITION_SHAPE ( 'NONE', 'NONE',  #141 ) ;
#147 = PERSON_AND_ORGANIZATION_ROLE ( 'classification_officer' ) ;
#148 = APPLICATION_CONTEXT ( 'configuration controlled 3d designs of mechanical parts and assemblies' ) ;
#149 = COORDINATED_UNIVERSAL_TIME_OFFSET ( 10, 0, .AHEAD. ) ;
#150 = CC_DESIGN_PERSON_AND_ORGANIZATION_ASSIGNMENT ( #107, #2, ( #17 ) ) ;
#151 = APPROVAL_DATE_TIME ( #82, #3 ) ;
#152 = APPROVAL_PERSON_ORGANIZATION ( #188, #126, #52 ) ;
#153 = PERSON_AND_ORGANIZATION ( #156, #35 ) ;
#154 = APPROVAL ( #37, 'Coincident' ) ;
#155 = APPROVAL_PERSON_ORGANIZATION ( #177, #154, #111 ) ;
#156 = PERSON ( 'NAUO-PER197', 'UNSPECIFIED', 'UNSPECIFIED', ('UNSPECIFIED'), ('UNSPECIFIED'), ('UNSPECIFIED') ) ;
#157 = PERSON_AND_ORGANIZATION_ROLE ( 'classification_officer' ) ;
#158 = PERSON_AND_ORGANIZATION_ROLE ( 'classification_officer' ) ;
#159 = IDENTIFICATION_ROLE ( 'external document id and location', $) ;
#160 = CALENDAR_DATE ( 2026, 22, 6 ) ;
#161 =( GEOMETRIC_REPRESENTATION_CONTEXT ( 3 ) GLOBAL_UNCERTAINTY_ASSIGNED_CONTEXT ( ( #45 ) ) GLOBAL_UNIT_ASSIGNED_CONTEXT ( ( #171, #106, #121 ) ) REPRESENTATION_CONTEXT ( 'NONE', 'WORKASPACE' ) );
#162 = PERSON_AND_ORGANIZATION ( #18446744073709551615, #18446744073709551615 ) ;
#163 = DATE_TIME_ROLE ( 'creation_date' ) ;
#164 = PRODUCT_DEFINITION ( 'General', '', #17, #196 ) ;
#165 = APPROVAL_PERSON_ORGANIZATION ( #108, #56, #7 ) ;
#166 = CC_DESIGN_DATE_AND_TIME_ASSIGNMENT ( #71, #110, ( #30 ) ) ;
#167 = PERSON_AND_ORGANIZATION_ROLE ( 'creator' ) ;
#168 = APPROVAL_DATE_TIME ( #143, #15 ) ;
#169 = CC_DESIGN_APPROVAL ( #56, ( #17 ) ) ;
#170 = CARTESIAN_POINT ( 'NONE',  ( 0.000000000000000000, 0.000000000000000000, 0.000000000000000000 ) ) ;
#171 =( LENGTH_UNIT ( ) NAMED_UNIT ( * ) SI_UNIT ( .MILLI., .METRE. ) );
#172 = PERSON_AND_ORGANIZATION ( #18446744073709551615, #18446744073709551615 ) ;
#173 = DOCUMENT_TYPE ( 'geometry' ) ;
#174 = LOCAL_TIME ( 18, 49, 58.00000000000000000, #78 ) ;
#175 =( LENGTH_UNIT ( ) NAMED_UNIT ( * ) SI_UNIT ( .MILLI., .METRE. ) );
#176 = CALENDAR_DATE ( 2026, 22, 6 ) ;
#177 = PERSON_AND_ORGANIZATION ( #18446744073709551615, #18446744073709551615 ) ;
#178 = CALENDAR_DATE ( 2026, 22, 6 ) ;
#179 = APPROVAL_STATUS ( 'not_yet_approved' ) ;
#180 = CC_DESIGN_PERSON_AND_ORGANIZATION_ASSIGNMENT ( #209, #90, ( #17 ) ) ;
#181 = APPLICATION_PROTOCOL_DEFINITION ( 'international standard', 'config_control_design', 1994, #65 ) ;
#182 = MECHANICAL_CONTEXT ( 'NONE', #65, 'mechanical' ) ;
#183 = CC_DESIGN_PERSON_AND_ORGANIZATION_ASSIGNMENT ( #128, #16, ( #164 ) ) ;
#184 = SECURITY_CLASSIFICATION ( '', '', #61 ) ;
#185 = PERSON_AND_ORGANIZATION ( #18446744073709551615, #18446744073709551615 ) ;
#186 = CALENDAR_DATE ( 2026, 22, 6 ) ;
#187 = COORDINATED_UNIVERSAL_TIME_OFFSET ( 10, 0, .AHEAD. ) ;
#188 = PERSON_AND_ORGANIZATION ( #18446744073709551615, #18446744073709551615 ) ;
#189 = COORDINATED_UNIVERSAL_TIME_OFFSET ( 10, 0, .AHEAD. ) ;
#190 = LOCAL_TIME ( 18, 49, 58.00000000000000000, #83 ) ;
#191 = APPLICATION_PROTOCOL_DEFINITION ( 'international standard', 'config_control_design', 1994, #91 ) ;
#192 = PRODUCT ( 'J3.step', 'J3.step', '', ( #182 ) ) ;
#193 = CONTEXT_DEPENDENT_SHAPE_REPRESENTATION ( #214, #112 ) ;
#194 = ITEM_DEFINED_TRANSFORMATION ( 'NONE', 'NONE', #96,  #64 ) ;
#195 = DATE_TIME_ROLE ( 'creation_date' ) ;
#196 = DESIGN_CONTEXT ( 'detailed design', #91, 'design' ) ;
#197 = CC_DESIGN_SECURITY_CLASSIFICATION ( #75, ( #17 ) ) ;
#198 =( NAMED_UNIT ( * ) SI_UNIT ( $, .STERADIAN. ) SOLID_ANGLE_UNIT ( ) );
#199 = CC_DESIGN_DATE_AND_TIME_ASSIGNMENT ( #136, #195, ( #141 ) ) ;
#200 = CC_DESIGN_APPROVAL ( #117, ( #141 ) ) ;
#201 = DATE_AND_TIME ( #145, #174 ) ;
#202 = APPROVAL ( #42, 'Coincident' ) ;
#203 = SECURITY_CLASSIFICATION_LEVEL ( 'unclassified' ) ;
#204 = APPROVAL_PERSON_ORGANIZATION ( #172, #117, #28 ) ;
#205 = LOCAL_TIME ( 18, 49, 58.00000000000000000, #57 ) ;
#206 = DATE_AND_TIME ( #94, #118 ) ;
#207 = DATE_AND_TIME ( #109, #40 ) ;
#208 = CC_DESIGN_PERSON_AND_ORGANIZATION_ASSIGNMENT ( #153, #147, ( #184 ) ) ;
#209 = PERSON_AND_ORGANIZATION ( #18446744073709551615, #18446744073709551615 ) ;
#210 = CC_DESIGN_APPROVAL ( #154, ( #164 ) ) ;
#211 = COORDINATED_UNIVERSAL_TIME_OFFSET ( 10, 0, .AHEAD. ) ;
#212 = PERSON_AND_ORGANIZATION ( #18446744073709551615, #18446744073709551615 ) ;
#213 = CC_DESIGN_PERSON_AND_ORGANIZATION_ASSIGNMENT ( #127, #22, ( #13 ) ) ;
#214 =( REPRESENTATION_RELATIONSHIP ('NONE','NONE', #131, #31 ) REPRESENTATION_RELATIONSHIP_WITH_TRANSFORMATION ( #194 )SHAPE_REPRESENTATION_RELATIONSHIP( ) );
#215 = NEXT_ASSEMBLY_USAGE_OCCURRENCE ( 'NAUO197', ' ', ' ', #141, #164, $ ) ;
ENDSEC;
END-ISO-10303-21;
