ISO-10303-21;
HEADER;
FILE_DESCRIPTION (( 'STEP AP203' ),
    '1' );
FILE_NAME ('J4.step.STEP',
    '2026-06-22T08:49:57',
    ( 'localuser' ),
    ( '' ),
    'SwSTEP 2.0',
    'SolidWorks 2025',
    '' );
FILE_SCHEMA (( 'CONFIG_CONTROL_DESIGN' ));
ENDSEC;

DATA;
#1 = COORDINATED_UNIVERSAL_TIME_OFFSET ( 10, 0, .AHEAD. ) ;
#2 = DATE_AND_TIME ( #86, #196 ) ;
#3 = APPROVAL_ROLE ( '' ) ;
#4 = CC_DESIGN_PERSON_AND_ORGANIZATION_ASSIGNMENT ( #181, #77, ( #187 ) ) ;
#5 = PROPERTY_DEFINITION_REPRESENTATION ( #89, #26 ) ;
#6 = APPROVAL_DATE_TIME ( #2, #37 ) ;
#7 = PERSON_AND_ORGANIZATION ( #18446744073709551615, #18446744073709551615 ) ;
#8 = CC_DESIGN_APPROVAL ( #46, ( #167 ) ) ;
#9 = DIRECTION ( 'NONE',  ( -0.9999999999999963363, -8.742277698980949197E-08, -4.733165431326070832E-29 ) ) ;
#10 = APPLICATION_PROTOCOL_DEFINITION ( 'international standard', 'config_control_design', 1994, #72 ) ;
#11 = CC_DESIGN_DATE_AND_TIME_ASSIGNMENT ( #101, #96, ( #108 ) ) ;
#12 = PERSON_AND_ORGANIZATION_ROLE ( 'design_owner' ) ;
#13 = COORDINATED_UNIVERSAL_TIME_OFFSET ( 10, 0, .AHEAD. ) ;
#14 = CC_DESIGN_PERSON_AND_ORGANIZATION_ASSIGNMENT ( #23, #139, ( #167 ) ) ;
#15 = CALENDAR_DATE ( 2026, 22, 6 ) ;
#16 = LOCAL_TIME ( 18, 49, 57.00000000000000000, #29 ) ;
#17 = CALENDAR_DATE ( 2026, 22, 6 ) ;
#18 = CC_DESIGN_PERSON_AND_ORGANIZATION_ASSIGNMENT ( #68, #135, ( #54 ) ) ;
#19 = PERSON_AND_ORGANIZATION ( #18446744073709551615, #18446744073709551615 ) ;
#20 = DATE_TIME_ROLE ( 'classification_date' ) ;
#21 = CC_DESIGN_SECURITY_CLASSIFICATION ( #141, ( #215 ) ) ;
#22 = MECHANICAL_CONTEXT ( 'NONE', #72, 'mechanical' ) ;
#23 = PERSON_AND_ORGANIZATION ( #18446744073709551615, #18446744073709551615 ) ;
#24 = PERSON_AND_ORGANIZATION ( #18446744073709551615, #18446744073709551615 ) ;
#25 = PRODUCT_DEFINITION_SHAPE ( 'NONE', 'NONE',  #187 ) ;
#26 = SHAPE_REPRESENTATION ( 'BM04B-GHS-TBT.step', ( #116 ), #58 ) ;
#27 = MECHANICAL_CONTEXT ( 'NONE', #84, 'mechanical' ) ;
#28 = DATE_AND_TIME ( #73, #65 ) ;
#29 = COORDINATED_UNIVERSAL_TIME_OFFSET ( 10, 0, .AHEAD. ) ;
#30 = APPROVAL_STATUS ( 'not_yet_approved' ) ;
#31 = UNCERTAINTY_MEASURE_WITH_UNIT (LENGTH_MEASURE( 1.000000000000000082E-05 ), #50, 'distance_accuracy_value', 'NONE');
#32 = SHAPE_DEFINITION_REPRESENTATION ( #25, #52 ) ;
#33 = SHAPE_DEFINITION_REPRESENTATION ( #140, #26 ) ;
#34 = DATE_AND_TIME ( #189, #209 ) ;
#35 = PROPERTY_DEFINITION_REPRESENTATION ( #56, #26 ) ;
#36 = EXTERNAL_SOURCE (IDENTIFIER('') ) ;
#37 = APPROVAL ( #83, 'Coincident' ) ;
#38 = CC_DESIGN_APPROVAL ( #174, ( #55 ) ) ;
#39 = APPROVAL_STATUS ( 'not_yet_approved' ) ;
#40 = APPROVAL_STATUS ( 'not_yet_approved' ) ;
#41 = APPROVAL_ROLE ( '' ) ;
#42 = APPROVAL ( #30, 'Coincident' ) ;
#43 = APPROVAL_ROLE ( '' ) ;
#44 = CC_DESIGN_APPROVAL ( #78, ( #187 ) ) ;
#45 = DATE_AND_TIME ( #60, #91 ) ;
#46 = APPROVAL ( #171, 'Coincident' ) ;
#47 = ITEM_DEFINED_TRANSFORMATION ( 'NONE', 'NONE', #95,  #116 ) ;
#48 = CC_DESIGN_SECURITY_CLASSIFICATION ( #54, ( #167 ) ) ;
#49 = APPROVAL_ROLE ( '' ) ;
#50 =( LENGTH_UNIT ( ) NAMED_UNIT ( * ) SI_UNIT ( .MILLI., .METRE. ) );
#51 = APPROVAL_STATUS ( 'not_yet_approved' ) ;
#52 = SHAPE_REPRESENTATION ( 'J4.step', ( #184, #95 ), #151 ) ;
#53 = CALENDAR_DATE ( 2026, 22, 6 ) ;
#54 = SECURITY_CLASSIFICATION ( '', '', #191 ) ;
#55 = PRODUCT_DEFINITION ( 'General', '', #167, #165 ) ;
#56 = PROPERTY_DEFINITION ('document property','', #131 ) ;
#57 = UNCERTAINTY_MEASURE_WITH_UNIT (LENGTH_MEASURE( 1.000000000000000082E-05 ), #70, 'distance_accuracy_value', 'NONE');
#58 =( GEOMETRIC_REPRESENTATION_CONTEXT ( 3 ) GLOBAL_UNCERTAINTY_ASSIGNED_CONTEXT ( ( #57 ) ) GLOBAL_UNIT_ASSIGNED_CONTEXT ( ( #70, #92, #93 ) ) REPRESENTATION_CONTEXT ( 'NONE', 'WORKASPACE' ) );
#59 = PERSON_AND_ORGANIZATION ( #18446744073709551615, #18446744073709551615 ) ;
#60 = CALENDAR_DATE ( 2026, 22, 6 ) ;
#61 = PERSON_AND_ORGANIZATION_ROLE ( 'design_owner' ) ;
#62 = PERSON_AND_ORGANIZATION_ROLE ( 'design_supplier' ) ;
#63 = PERSON_AND_ORGANIZATION ( #18446744073709551615, #18446744073709551615 ) ;
#64 = CC_DESIGN_DATE_AND_TIME_ASSIGNMENT ( #34, #170, ( #141 ) ) ;
#65 = LOCAL_TIME ( 18, 49, 57.00000000000000000, #1 ) ;
#66 = PERSON_AND_ORGANIZATION_ROLE ( 'classification_officer' ) ;
#67 = LOCAL_TIME ( 18, 49, 57.00000000000000000, #212 ) ;
#68 = PERSON_AND_ORGANIZATION ( #18446744073709551615, #18446744073709551615 ) ;
#69 = APPROVAL_DATE_TIME ( #88, #103 ) ;
#70 =( LENGTH_UNIT ( ) NAMED_UNIT ( * ) SI_UNIT ( .MILLI., .METRE. ) );
#71 = APPLIED_EXTERNAL_IDENTIFICATION_ASSIGNMENT ( 'BM04B-GHS-TBT.step.STEP' , #118, #36,( #131) ) ;
#72 = APPLICATION_CONTEXT ( 'configuration controlled 3d designs of mechanical parts and assemblies' ) ;
#73 = CALENDAR_DATE ( 2026, 22, 6 ) ;
#74 = DESIGN_CONTEXT ( 'detailed design', #154, 'design' ) ;
#75 = PERSON_AND_ORGANIZATION_ROLE ( 'creator' ) ;
#76 = DATE_TIME_ROLE ( 'creation_date' ) ;
#77 = PERSON_AND_ORGANIZATION_ROLE ( 'creator' ) ;
#78 = APPROVAL ( #40, 'Coincident' ) ;
#79 = COORDINATED_UNIVERSAL_TIME_OFFSET ( 10, 0, .AHEAD. ) ;
#80 = APPROVAL_PERSON_ORGANIZATION ( #193, #201, #43 ) ;
#81 = PRODUCT_DEFINITION_FORMATION_WITH_SPECIFIED_SOURCE ( 'Symmetric', '', #192, .NOT_KNOWN. ) ;
#82 = LOCAL_TIME ( 18, 49, 57.00000000000000000, #79 ) ;
#83 = APPROVAL_STATUS ( 'not_yet_approved' ) ;
#84 = APPLICATION_CONTEXT ( 'configuration controlled 3d designs of mechanical parts and assemblies' ) ;
#85 = COORDINATED_UNIVERSAL_TIME_OFFSET ( 10, 0, .AHEAD. ) ;
#86 = CALENDAR_DATE ( 2026, 22, 6 ) ;
#87 = LOCAL_TIME ( 18, 49, 57.00000000000000000, #115 ) ;
#88 = DATE_AND_TIME ( #53, #176 ) ;
#89 = PROPERTY_DEFINITION ('external definition','', #131 ) ;
#90 = CC_DESIGN_PERSON_AND_ORGANIZATION_ASSIGNMENT ( #114, #149, ( #108 ) ) ;
#91 = LOCAL_TIME ( 18, 49, 57.00000000000000000, #13 ) ;
#92 =( NAMED_UNIT ( * ) PLANE_ANGLE_UNIT ( ) SI_UNIT ( $, .RADIAN. ) );
#93 =( NAMED_UNIT ( * ) SI_UNIT ( $, .STERADIAN. ) SOLID_ANGLE_UNIT ( ) );
#94 = PERSON_AND_ORGANIZATION ( #18446744073709551615, #18446744073709551615 ) ;
#95 = AXIS2_PLACEMENT_3D ( 'NONE', #173, #125, #9 ) ;
#96 = DATE_TIME_ROLE ( 'classification_date' ) ;
#97 = COORDINATED_UNIVERSAL_TIME_OFFSET ( 10, 0, .AHEAD. ) ;
#98 = CC_DESIGN_PERSON_AND_ORGANIZATION_ASSIGNMENT ( #19, #119, ( #167 ) ) ;
#99 = DATE_AND_TIME ( #194, #111 ) ;
#100 = DOCUMENT_TYPE ( 'geometry' ) ;
#101 = DATE_AND_TIME ( #15, #16 ) ;
#102 = PERSON_AND_ORGANIZATION ( #18446744073709551615, #18446744073709551615 ) ;
#103 = APPROVAL ( #51, 'UNKNOWN' ) ;
#104 =( NAMED_UNIT ( * ) SI_UNIT ( $, .STERADIAN. ) SOLID_ANGLE_UNIT ( ) );
#105 = LOCAL_TIME ( 18, 49, 57.00000000000000000, #97 ) ;
#106 = COORDINATED_UNIVERSAL_TIME_OFFSET ( 10, 0, .AHEAD. ) ;
#107 = PRODUCT_DEFINITION_SHAPE ( 'NONE', 'NONE',  #215 ) ;
#108 = SECURITY_CLASSIFICATION ( '', '', #147 ) ;
#109 =( REPRESENTATION_RELATIONSHIP ('NONE','NONE', #52, #26 ) REPRESENTATION_RELATIONSHIP_WITH_TRANSFORMATION ( #47 )SHAPE_REPRESENTATION_RELATIONSHIP( ) );
#110 = APPROVAL_DATE_TIME ( #163, #174 ) ;
#111 = LOCAL_TIME ( 18, 49, 57.00000000000000000, #161 ) ;
#112 = CALENDAR_DATE ( 2026, 22, 6 ) ;
#113 = PERSON_AND_ORGANIZATION ( #18446744073709551615, #18446744073709551615 ) ;
#114 = PERSON_AND_ORGANIZATION ( #18446744073709551615, #18446744073709551615 ) ;
#115 = COORDINATED_UNIVERSAL_TIME_OFFSET ( 10, 0, .AHEAD. ) ;
#116 = AXIS2_PLACEMENT_3D ( 'NONE', #207, #175, #120 ) ;
#117 = SECURITY_CLASSIFICATION_LEVEL ( 'unclassified' ) ;
#118 = IDENTIFICATION_ROLE ( 'external document id and location', $) ;
#119 = PERSON_AND_ORGANIZATION_ROLE ( 'design_supplier' ) ;
#120 = DIRECTION ( 'NONE',  ( 1.000000000000000000, 0.000000000000000000, 0.000000000000000000 ) ) ;
#121 = CC_DESIGN_APPROVAL ( #42, ( #108 ) ) ;
#122 = APPLIED_DOCUMENT_REFERENCE ( #131,'',( #55) ) ;
#123 = CC_DESIGN_APPROVAL ( #37, ( #54 ) ) ;
#124 = CC_DESIGN_PERSON_AND_ORGANIZATION_ASSIGNMENT ( #63, #146, ( #81 ) ) ;
#125 = DIRECTION ( 'NONE',  ( -8.742277698980998166E-08, 0.9999999999999953371, -4.371138800000016351E-08 ) ) ;
#126 = PRODUCT ( 'BM04B-GHS-TBT.step', 'BM04B-GHS-TBT.step', '', ( #27 ) ) ;
#127 = CC_DESIGN_PERSON_AND_ORGANIZATION_ASSIGNMENT ( #153, #66, ( #141 ) ) ;
#128 = APPROVAL_ROLE ( '' ) ;
#129 = DIRECTION ( 'NONE',  ( 1.000000000000000000, 0.000000000000000000, 0.000000000000000000 ) ) ;
#130 = APPLICATION_PROTOCOL_DEFINITION ( 'international standard', 'config_control_design', 1994, #154 ) ;
#131 = DOCUMENT_FILE ( 'BM04B-GHS-TBT.step.STEP' , '', '', #100, '' ,$ ) ;
#132 = CC_DESIGN_DATE_AND_TIME_ASSIGNMENT ( #180, #206, ( #55 ) ) ;
#133 = LOCAL_TIME ( 18, 49, 57.00000000000000000, #158 ) ;
#134 = CARTESIAN_POINT ( 'NONE',  ( 0.000000000000000000, 0.000000000000000000, 0.000000000000000000 ) ) ;
#135 = PERSON_AND_ORGANIZATION_ROLE ( 'classification_officer' ) ;
#136 = CC_DESIGN_PERSON_AND_ORGANIZATION_ASSIGNMENT ( #113, #62, ( #81 ) ) ;
#137 = COORDINATED_UNIVERSAL_TIME_OFFSET ( 10, 0, .AHEAD. ) ;
#138 = APPROVAL_DATE_TIME ( #99, #42 ) ;
#139 = PERSON_AND_ORGANIZATION_ROLE ( 'creator' ) ;
#140 = PRODUCT_DEFINITION_SHAPE ( 'NONE', 'NONE',  #55 ) ;
#141 = SECURITY_CLASSIFICATION ( '', '', #117 ) ;
#142 = PRODUCT_RELATED_PRODUCT_CATEGORY ( 'detail', '', ( #126 ) ) ;
#143 = PERSON_AND_ORGANIZATION ( #18446744073709551615, #18446744073709551615 ) ;
#144 = APPROVAL_PERSON_ORGANIZATION ( #59, #174, #41 ) ;
#145 = APPROVAL_PERSON_ORGANIZATION ( #7, #37, #49 ) ;
#146 = PERSON_AND_ORGANIZATION_ROLE ( 'creator' ) ;
#147 = SECURITY_CLASSIFICATION_LEVEL ( 'unclassified' ) ;
#148 = PERSON_AND_ORGANIZATION ( #18446744073709551615, #18446744073709551615 ) ;
#149 = PERSON_AND_ORGANIZATION_ROLE ( 'classification_officer' ) ;
#150 = APPROVAL_PERSON_ORGANIZATION ( #102, #46, #3 ) ;
#151 =( GEOMETRIC_REPRESENTATION_CONTEXT ( 3 ) GLOBAL_UNCERTAINTY_ASSIGNED_CONTEXT ( ( #31 ) ) GLOBAL_UNIT_ASSIGNED_CONTEXT ( ( #50, #188, #104 ) ) REPRESENTATION_CONTEXT ( 'NONE', 'WORKASPACE' ) );
#152 = DATE_AND_TIME ( #157, #87 ) ;
#153 = PERSON_AND_ORGANIZATION ( #213, #204 ) ;
#154 = APPLICATION_CONTEXT ( 'configuration controlled 3d designs of mechanical parts and assemblies' ) ;
#155 = APPROVAL_ROLE ( '' ) ;
#156 = APPROVAL_PERSON_ORGANIZATION ( #153, #103, #155 ) ;
#157 = CALENDAR_DATE ( 2026, 22, 6 ) ;
#158 = COORDINATED_UNIVERSAL_TIME_OFFSET ( 10, 0, .AHEAD. ) ;
#159 = CC_DESIGN_DATE_AND_TIME_ASSIGNMENT ( #202, #20, ( #54 ) ) ;
#160 = PERSON_AND_ORGANIZATION ( #18446744073709551615, #18446744073709551615 ) ;
#161 = COORDINATED_UNIVERSAL_TIME_OFFSET ( 10, 0, .AHEAD. ) ;
#162 = CC_DESIGN_DATE_AND_TIME_ASSIGNMENT ( #197, #76, ( #187 ) ) ;
#163 = DATE_AND_TIME ( #195, #82 ) ;
#164 = APPLICATION_PROTOCOL_DEFINITION ( 'international standard', 'config_control_design', 1994, #198 ) ;
#165 = DESIGN_CONTEXT ( 'detailed design', #198, 'design' ) ;
#166 = OBJECT_ROLE ('mandatory',$ ) ;
#167 = PRODUCT_DEFINITION_FORMATION_WITH_SPECIFIED_SOURCE ( 'Symmetric', '', #126, .NOT_KNOWN. ) ;
#168 = CC_DESIGN_PERSON_AND_ORGANIZATION_ASSIGNMENT ( #160, #61, ( #126 ) ) ;
#169 = APPROVAL_STATUS ( 'not_yet_approved' ) ;
#170 = DATE_TIME_ROLE ( 'classification_date' ) ;
#171 = APPROVAL_STATUS ( 'not_yet_approved' ) ;
#172 = APPROVAL_DATE_TIME ( #152, #46 ) ;
#173 = CARTESIAN_POINT ( 'NONE',  ( 16.67508035275400147, 10.72513989257800127, 0.2999993860719994965 ) ) ;
#174 = APPROVAL ( #39, 'Coincident' ) ;
#175 = DIRECTION ( 'NONE',  ( 0.000000000000000000, 0.000000000000000000, 1.000000000000000000 ) ) ;
#176 = LOCAL_TIME ( 18, 49, 57.00000000000000000, #106 ) ;
#177 = APPROVAL_DATE_TIME ( #45, #78 ) ;
#178 = CALENDAR_DATE ( 2026, 22, 6 ) ;
#179 = CC_DESIGN_SECURITY_CLASSIFICATION ( #108, ( #81 ) ) ;
#180 = DATE_AND_TIME ( #112, #67 ) ;
#181 = PERSON_AND_ORGANIZATION ( #18446744073709551615, #18446744073709551615 ) ;
#182 = APPROVAL_ROLE ( '' ) ;
#183 = CC_DESIGN_PERSON_AND_ORGANIZATION_ASSIGNMENT ( #94, #75, ( #55 ) ) ;
#184 = AXIS2_PLACEMENT_3D ( 'NONE', #134, #200, #129 ) ;
#185 = CC_DESIGN_APPROVAL ( #103, ( #141 ) ) ;
#186 = ROLE_ASSOCIATION ( #166, #122 ) ;
#187 = PRODUCT_DEFINITION ( 'General', '', #81, #74 ) ;
#188 =( NAMED_UNIT ( * ) PLANE_ANGLE_UNIT ( ) SI_UNIT ( $, .RADIAN. ) );
#189 = CALENDAR_DATE ( 2026, 22, 6 ) ;
#190 = APPROVAL_PERSON_ORGANIZATION ( #143, #42, #182 ) ;
#191 = SECURITY_CLASSIFICATION_LEVEL ( 'unclassified' ) ;
#192 = PRODUCT ( 'J4.step', 'J4.step', '', ( #22 ) ) ;
#193 = PERSON_AND_ORGANIZATION ( #18446744073709551615, #18446744073709551615 ) ;
#194 = CALENDAR_DATE ( 2026, 22, 6 ) ;
#195 = CALENDAR_DATE ( 2026, 22, 6 ) ;
#196 = LOCAL_TIME ( 18, 49, 57.00000000000000000, #85 ) ;
#197 = DATE_AND_TIME ( #178, #105 ) ;
#198 = APPLICATION_CONTEXT ( 'configuration controlled 3d designs of mechanical parts and assemblies' ) ;
#199 = APPROVAL_PERSON_ORGANIZATION ( #148, #78, #128 ) ;
#200 = DIRECTION ( 'NONE',  ( 0.000000000000000000, 0.000000000000000000, 1.000000000000000000 ) ) ;
#201 = APPROVAL ( #169, 'Coincident' ) ;
#202 = DATE_AND_TIME ( #17, #133 ) ;
#203 = CC_DESIGN_APPROVAL ( #201, ( #81 ) ) ;
#204 = ORGANIZATION ( 'NAUO-ORG191', 'UNSPECIFIED', 'UNSPECIFIED' ) ;
#205 = PRODUCT_RELATED_PRODUCT_CATEGORY ( 'detail', '', ( #192 ) ) ;
#206 = DATE_TIME_ROLE ( 'creation_date' ) ;
#207 = CARTESIAN_POINT ( 'NONE',  ( 0.000000000000000000, 0.000000000000000000, 0.000000000000000000 ) ) ;
#208 = CONTEXT_DEPENDENT_SHAPE_REPRESENTATION ( #109, #107 ) ;
#209 = LOCAL_TIME ( 18, 49, 57.00000000000000000, #137 ) ;
#210 = CC_DESIGN_PERSON_AND_ORGANIZATION_ASSIGNMENT ( #24, #12, ( #192 ) ) ;
#211 = APPLICATION_PROTOCOL_DEFINITION ( 'international standard', 'config_control_design', 1994, #84 ) ;
#212 = COORDINATED_UNIVERSAL_TIME_OFFSET ( 10, 0, .AHEAD. ) ;
#213 = PERSON ( 'NAUO-PER191', 'UNSPECIFIED', 'UNSPECIFIED', ('UNSPECIFIED'), ('UNSPECIFIED'), ('UNSPECIFIED') ) ;
#214 = APPROVAL_DATE_TIME ( #28, #201 ) ;
#215 = NEXT_ASSEMBLY_USAGE_OCCURRENCE ( 'NAUO191', ' ', ' ', #187, #55, $ ) ;
ENDSEC;
END-ISO-10303-21;
