ISO-10303-21;
HEADER;
FILE_DESCRIPTION (( 'STEP AP203' ),
    '1' );
FILE_NAME ('J5.step.STEP',
    '2026-06-22T08:49:58',
    ( 'localuser' ),
    ( '' ),
    'SwSTEP 2.0',
    'SolidWorks 2025',
    '' );
FILE_SCHEMA (( 'CONFIG_CONTROL_DESIGN' ));
ENDSEC;

DATA;
#1 = APPROVAL_STATUS ( 'not_yet_approved' ) ;
#2 = DATE_AND_TIME ( #34, #11 ) ;
#3 = CC_DESIGN_DATE_AND_TIME_ASSIGNMENT ( #189, #17, ( #158 ) ) ;
#4 = PERSON_AND_ORGANIZATION ( #18446744073709551615, #18446744073709551615 ) ;
#5 = AXIS2_PLACEMENT_3D ( 'NONE', #214, #28, #98 ) ;
#6 = APPROVAL_STATUS ( 'not_yet_approved' ) ;
#7 = DATE_AND_TIME ( #157, #197 ) ;
#8 = APPROVAL_PERSON_ORGANIZATION ( #149, #71, #173 ) ;
#9 = PERSON_AND_ORGANIZATION_ROLE ( 'classification_officer' ) ;
#10 = DATE_TIME_ROLE ( 'classification_date' ) ;
#11 = LOCAL_TIME ( 18, 49, 58.00000000000000000, #38 ) ;
#12 = LOCAL_TIME ( 18, 49, 58.00000000000000000, #116 ) ;
#13 = PRODUCT_RELATED_PRODUCT_CATEGORY ( 'detail', '', ( #60 ) ) ;
#14 = CC_DESIGN_PERSON_AND_ORGANIZATION_ASSIGNMENT ( #57, #140, ( #60 ) ) ;
#15 = APPROVAL_DATE_TIME ( #23, #58 ) ;
#16 = ORGANIZATION ( 'NAUO-ORG205', 'UNSPECIFIED', 'UNSPECIFIED' ) ;
#17 = DATE_TIME_ROLE ( 'creation_date' ) ;
#18 = DOCUMENT_TYPE ( 'geometry' ) ;
#19 = PERSON_AND_ORGANIZATION_ROLE ( 'creator' ) ;
#20 = APPROVAL ( #187, 'Coincident' ) ;
#21 = PERSON_AND_ORGANIZATION ( #18446744073709551615, #18446744073709551615 ) ;
#22 =( GEOMETRIC_REPRESENTATION_CONTEXT ( 3 ) GLOBAL_UNCERTAINTY_ASSIGNED_CONTEXT ( ( #135 ) ) GLOBAL_UNIT_ASSIGNED_CONTEXT ( ( #198, #96, #131 ) ) REPRESENTATION_CONTEXT ( 'NONE', 'WORKASPACE' ) );
#23 = DATE_AND_TIME ( #202, #184 ) ;
#24 = PRODUCT_DEFINITION_SHAPE ( 'NONE', 'NONE',  #83 ) ;
#25 = COORDINATED_UNIVERSAL_TIME_OFFSET ( 10, 0, .AHEAD. ) ;
#26 = SECURITY_CLASSIFICATION_LEVEL ( 'unclassified' ) ;
#27 = LOCAL_TIME ( 18, 49, 58.00000000000000000, #25 ) ;
#28 = DIRECTION ( 'NONE',  ( 0.000000000000000000, 0.000000000000000000, 1.000000000000000000 ) ) ;
#29 = APPLICATION_CONTEXT ( 'configuration controlled 3d designs of mechanical parts and assemblies' ) ;
#30 = UNCERTAINTY_MEASURE_WITH_UNIT (LENGTH_MEASURE( 1.000000000000000082E-05 ), #102, 'distance_accuracy_value', 'NONE');
#31 = AXIS2_PLACEMENT_3D ( 'NONE', #70, #136, #201 ) ;
#32 = APPROVAL ( #82, 'UNKNOWN' ) ;
#33 = SHAPE_REPRESENTATION ( 'BM04B-GHS-TBT.step', ( #5 ), #22 ) ;
#34 = CALENDAR_DATE ( 2026, 22, 6 ) ;
#35 = CALENDAR_DATE ( 2026, 22, 6 ) ;
#36 = DATE_AND_TIME ( #153, #122 ) ;
#37 = DATE_TIME_ROLE ( 'classification_date' ) ;
#38 = COORDINATED_UNIVERSAL_TIME_OFFSET ( 10, 0, .AHEAD. ) ;
#39 = APPLICATION_CONTEXT ( 'configuration controlled 3d designs of mechanical parts and assemblies' ) ;
#40 = PERSON_AND_ORGANIZATION_ROLE ( 'design_supplier' ) ;
#41 = LOCAL_TIME ( 18, 49, 58.00000000000000000, #137 ) ;
#42 = APPROVAL ( #138, 'Coincident' ) ;
#43 = PROPERTY_DEFINITION_REPRESENTATION ( #93, #33 ) ;
#44 = CC_DESIGN_PERSON_AND_ORGANIZATION_ASSIGNMENT ( #167, #19, ( #158 ) ) ;
#45 = APPLICATION_PROTOCOL_DEFINITION ( 'international standard', 'config_control_design', 1994, #39 ) ;
#46 = CONTEXT_DEPENDENT_SHAPE_REPRESENTATION ( #134, #190 ) ;
#47 = APPROVAL_PERSON_ORGANIZATION ( #169, #147, #107 ) ;
#48 = SECURITY_CLASSIFICATION ( '', '', #26 ) ;
#49 = MECHANICAL_CONTEXT ( 'NONE', #29, 'mechanical' ) ;
#50 = CC_DESIGN_APPROVAL ( #32, ( #48 ) ) ;
#51 = APPLICATION_PROTOCOL_DEFINITION ( 'international standard', 'config_control_design', 1994, #29 ) ;
#52 = PERSON_AND_ORGANIZATION ( #18446744073709551615, #18446744073709551615 ) ;
#53 = APPLICATION_CONTEXT ( 'configuration controlled 3d designs of mechanical parts and assemblies' ) ;
#54 = APPROVAL_DATE_TIME ( #121, #42 ) ;
#55 = PERSON_AND_ORGANIZATION_ROLE ( 'design_supplier' ) ;
#56 = CALENDAR_DATE ( 2026, 22, 6 ) ;
#57 = PERSON_AND_ORGANIZATION ( #18446744073709551615, #18446744073709551615 ) ;
#58 = APPROVAL ( #64, 'Coincident' ) ;
#59 = CC_DESIGN_APPROVAL ( #71, ( #209 ) ) ;
#60 = PRODUCT ( 'BM04B-GHS-TBT.step', 'BM04B-GHS-TBT.step', '', ( #106 ) ) ;
#61 = CC_DESIGN_DATE_AND_TIME_ASSIGNMENT ( #170, #123, ( #83 ) ) ;
#62 = DATE_AND_TIME ( #213, #27 ) ;
#63 = APPROVAL_PERSON_ORGANIZATION ( #21, #20, #152 ) ;
#64 = APPROVAL_STATUS ( 'not_yet_approved' ) ;
#65 = CALENDAR_DATE ( 2026, 22, 6 ) ;
#66 = PERSON_AND_ORGANIZATION ( #151, #16 ) ;
#67 = AXIS2_PLACEMENT_3D ( 'NONE', #165, #178, #120 ) ;
#68 = LOCAL_TIME ( 18, 49, 58.00000000000000000, #92 ) ;
#69 = OBJECT_ROLE ('mandatory',$ ) ;
#70 = CARTESIAN_POINT ( 'NONE',  ( 0.000000000000000000, 0.000000000000000000, 0.000000000000000000 ) ) ;
#71 = APPROVAL ( #80, 'Coincident' ) ;
#72 = DESIGN_CONTEXT ( 'detailed design', #186, 'design' ) ;
#73 = CC_DESIGN_SECURITY_CLASSIFICATION ( #209, ( #97 ) ) ;
#74 = COORDINATED_UNIVERSAL_TIME_OFFSET ( 10, 0, .AHEAD. ) ;
#75 = PERSON_AND_ORGANIZATION_ROLE ( 'creator' ) ;
#76 = SHAPE_DEFINITION_REPRESENTATION ( #24, #174 ) ;
#77 = CC_DESIGN_PERSON_AND_ORGANIZATION_ASSIGNMENT ( #194, #160, ( #209 ) ) ;
#78 = COORDINATED_UNIVERSAL_TIME_OFFSET ( 10, 0, .AHEAD. ) ;
#79 = APPROVAL_DATE_TIME ( #7, #99 ) ;
#80 = APPROVAL_STATUS ( 'not_yet_approved' ) ;
#81 = SHAPE_DEFINITION_REPRESENTATION ( #110, #33 ) ;
#82 = APPROVAL_STATUS ( 'not_yet_approved' ) ;
#83 = PRODUCT_DEFINITION ( 'General', '', #148, #179 ) ;
#84 = CC_DESIGN_DATE_AND_TIME_ASSIGNMENT ( #36, #37, ( #126 ) ) ;
#85 = CC_DESIGN_DATE_AND_TIME_ASSIGNMENT ( #210, #10, ( #48 ) ) ;
#86 = LOCAL_TIME ( 18, 49, 58.00000000000000000, #127 ) ;
#87 = SECURITY_CLASSIFICATION_LEVEL ( 'unclassified' ) ;
#88 = COORDINATED_UNIVERSAL_TIME_OFFSET ( 10, 0, .AHEAD. ) ;
#89 = PERSON_AND_ORGANIZATION_ROLE ( 'creator' ) ;
#90 = CALENDAR_DATE ( 2026, 22, 6 ) ;
#91 = COORDINATED_UNIVERSAL_TIME_OFFSET ( 10, 0, .AHEAD. ) ;
#92 = COORDINATED_UNIVERSAL_TIME_OFFSET ( 10, 0, .AHEAD. ) ;
#93 = PROPERTY_DEFINITION ('document property','', #196 ) ;
#94 = LOCAL_TIME ( 18, 49, 58.00000000000000000, #78 ) ;
#95 = APPROVAL_PERSON_ORGANIZATION ( #146, #58, #108 ) ;
#96 =( NAMED_UNIT ( * ) PLANE_ANGLE_UNIT ( ) SI_UNIT ( $, .RADIAN. ) );
#97 = PRODUCT_DEFINITION_FORMATION_WITH_SPECIFIED_SOURCE ( 'Symmetric', '', #60, .NOT_KNOWN. ) ;
#98 = DIRECTION ( 'NONE',  ( 1.000000000000000000, 0.000000000000000000, 0.000000000000000000 ) ) ;
#99 = APPROVAL ( #6, 'Coincident' ) ;
#100 = CC_DESIGN_PERSON_AND_ORGANIZATION_ASSIGNMENT ( #185, #75, ( #83 ) ) ;
#101 = LOCAL_TIME ( 18, 49, 58.00000000000000000, #175 ) ;
#102 =( LENGTH_UNIT ( ) NAMED_UNIT ( * ) SI_UNIT ( .MILLI., .METRE. ) );
#103 = APPROVAL_PERSON_ORGANIZATION ( #66, #32, #115 ) ;
#104 = PERSON_AND_ORGANIZATION ( #18446744073709551615, #18446744073709551615 ) ;
#105 = CC_DESIGN_PERSON_AND_ORGANIZATION_ASSIGNMENT ( #129, #40, ( #97 ) ) ;
#106 = MECHANICAL_CONTEXT ( 'NONE', #53, 'mechanical' ) ;
#107 = APPROVAL_ROLE ( '' ) ;
#108 = APPROVAL_ROLE ( '' ) ;
#109 = PERSON_AND_ORGANIZATION_ROLE ( 'creator' ) ;
#110 = PRODUCT_DEFINITION_SHAPE ( 'NONE', 'NONE',  #158 ) ;
#111 = DATE_AND_TIME ( #65, #68 ) ;
#112 = SECURITY_CLASSIFICATION_LEVEL ( 'unclassified' ) ;
#113 =( GEOMETRIC_REPRESENTATION_CONTEXT ( 3 ) GLOBAL_UNCERTAINTY_ASSIGNED_CONTEXT ( ( #30 ) ) GLOBAL_UNIT_ASSIGNED_CONTEXT ( ( #102, #118, #133 ) ) REPRESENTATION_CONTEXT ( 'NONE', 'WORKASPACE' ) );
#114 = CC_DESIGN_APPROVAL ( #99, ( #97 ) ) ;
#115 = APPROVAL_ROLE ( '' ) ;
#116 = COORDINATED_UNIVERSAL_TIME_OFFSET ( 10, 0, .AHEAD. ) ;
#117 = CC_DESIGN_SECURITY_CLASSIFICATION ( #126, ( #148 ) ) ;
#118 =( NAMED_UNIT ( * ) PLANE_ANGLE_UNIT ( ) SI_UNIT ( $, .RADIAN. ) );
#119 = PERSON_AND_ORGANIZATION_ROLE ( 'design_owner' ) ;
#120 = DIRECTION ( 'NONE',  ( -0.9999999999999963363, -8.742277698980949197E-08, -4.733165431326070832E-29 ) ) ;
#121 = DATE_AND_TIME ( #56, #86 ) ;
#122 = LOCAL_TIME ( 18, 49, 58.00000000000000000, #88 ) ;
#123 = DATE_TIME_ROLE ( 'creation_date' ) ;
#124 = PERSON_AND_ORGANIZATION_ROLE ( 'classification_officer' ) ;
#125 = APPROVAL_ROLE ( '' ) ;
#126 = SECURITY_CLASSIFICATION ( '', '', #87 ) ;
#127 = COORDINATED_UNIVERSAL_TIME_OFFSET ( 10, 0, .AHEAD. ) ;
#128 = CC_DESIGN_SECURITY_CLASSIFICATION ( #48, ( #215 ) ) ;
#129 = PERSON_AND_ORGANIZATION ( #18446744073709551615, #18446744073709551615 ) ;
#130 = PROPERTY_DEFINITION ('external definition','', #196 ) ;
#131 =( NAMED_UNIT ( * ) SI_UNIT ( $, .STERADIAN. ) SOLID_ANGLE_UNIT ( ) );
#132 = APPROVAL_DATE_TIME ( #62, #71 ) ;
#133 =( NAMED_UNIT ( * ) SI_UNIT ( $, .STERADIAN. ) SOLID_ANGLE_UNIT ( ) );
#134 =( REPRESENTATION_RELATIONSHIP ('NONE','NONE', #174, #33 ) REPRESENTATION_RELATIONSHIP_WITH_TRANSFORMATION ( #176 )SHAPE_REPRESENTATION_RELATIONSHIP( ) );
#135 = UNCERTAINTY_MEASURE_WITH_UNIT (LENGTH_MEASURE( 1.000000000000000082E-05 ), #198, 'distance_accuracy_value', 'NONE');
#136 = DIRECTION ( 'NONE',  ( 0.000000000000000000, 0.000000000000000000, 1.000000000000000000 ) ) ;
#137 = COORDINATED_UNIVERSAL_TIME_OFFSET ( 10, 0, .AHEAD. ) ;
#138 = APPROVAL_STATUS ( 'not_yet_approved' ) ;
#139 = CC_DESIGN_APPROVAL ( #147, ( #158 ) ) ;
#140 = PERSON_AND_ORGANIZATION_ROLE ( 'design_owner' ) ;
#141 = APPLICATION_PROTOCOL_DEFINITION ( 'international standard', 'config_control_design', 1994, #53 ) ;
#142 = PERSON_AND_ORGANIZATION ( #18446744073709551615, #18446744073709551615 ) ;
#143 = PRODUCT ( 'J5.step', 'J5.step', '', ( #49 ) ) ;
#144 = CC_DESIGN_PERSON_AND_ORGANIZATION_ASSIGNMENT ( #142, #109, ( #97 ) ) ;
#145 = EXTERNAL_SOURCE (IDENTIFIER('') ) ;
#146 = PERSON_AND_ORGANIZATION ( #18446744073709551615, #18446744073709551615 ) ;
#147 = APPROVAL ( #1, 'Coincident' ) ;
#148 = PRODUCT_DEFINITION_FORMATION_WITH_SPECIFIED_SOURCE ( 'Symmetric', '', #143, .NOT_KNOWN. ) ;
#149 = PERSON_AND_ORGANIZATION ( #18446744073709551615, #18446744073709551615 ) ;
#150 = CC_DESIGN_PERSON_AND_ORGANIZATION_ASSIGNMENT ( #182, #119, ( #143 ) ) ;
#151 = PERSON ( 'NAUO-PER205', 'UNSPECIFIED', 'UNSPECIFIED', ('UNSPECIFIED'), ('UNSPECIFIED'), ('UNSPECIFIED') ) ;
#152 = APPROVAL_ROLE ( '' ) ;
#153 = CALENDAR_DATE ( 2026, 22, 6 ) ;
#154 = COORDINATED_UNIVERSAL_TIME_OFFSET ( 10, 0, .AHEAD. ) ;
#155 = LOCAL_TIME ( 18, 49, 58.00000000000000000, #154 ) ;
#156 = PERSON_AND_ORGANIZATION ( #18446744073709551615, #18446744073709551615 ) ;
#157 = CALENDAR_DATE ( 2026, 22, 6 ) ;
#158 = PRODUCT_DEFINITION ( 'General', '', #97, #72 ) ;
#159 = PROPERTY_DEFINITION_REPRESENTATION ( #130, #33 ) ;
#160 = PERSON_AND_ORGANIZATION_ROLE ( 'classification_officer' ) ;
#161 = ROLE_ASSOCIATION ( #69, #211 ) ;
#162 = CC_DESIGN_PERSON_AND_ORGANIZATION_ASSIGNMENT ( #4, #124, ( #126 ) ) ;
#163 = APPROVAL_DATE_TIME ( #172, #32 ) ;
#164 = IDENTIFICATION_ROLE ( 'external document id and location', $) ;
#165 = CARTESIAN_POINT ( 'NONE',  ( 16.67508035275400147, 16.27512768554700529, 0.2999993860719994965 ) ) ;
#166 = APPLIED_EXTERNAL_IDENTIFICATION_ASSIGNMENT ( 'BM04B-GHS-TBT.step.STEP' , #164, #145,( #196) ) ;
#167 = PERSON_AND_ORGANIZATION ( #18446744073709551615, #18446744073709551615 ) ;
#168 = APPROVAL_DATE_TIME ( #2, #147 ) ;
#169 = PERSON_AND_ORGANIZATION ( #18446744073709551615, #18446744073709551615 ) ;
#170 = DATE_AND_TIME ( #183, #155 ) ;
#171 = CC_DESIGN_PERSON_AND_ORGANIZATION_ASSIGNMENT ( #205, #55, ( #148 ) ) ;
#172 = DATE_AND_TIME ( #193, #101 ) ;
#173 = APPROVAL_ROLE ( '' ) ;
#174 = SHAPE_REPRESENTATION ( 'J5.step', ( #31, #67 ), #113 ) ;
#175 = COORDINATED_UNIVERSAL_TIME_OFFSET ( 10, 0, .AHEAD. ) ;
#176 = ITEM_DEFINED_TRANSFORMATION ( 'NONE', 'NONE', #67,  #5 ) ;
#177 = APPROVAL_PERSON_ORGANIZATION ( #104, #42, #188 ) ;
#178 = DIRECTION ( 'NONE',  ( -8.742277698980998166E-08, 0.9999999999999953371, -4.371138800000016351E-08 ) ) ;
#179 = DESIGN_CONTEXT ( 'detailed design', #39, 'design' ) ;
#180 = PRODUCT_RELATED_PRODUCT_CATEGORY ( 'detail', '', ( #143 ) ) ;
#181 = CC_DESIGN_DATE_AND_TIME_ASSIGNMENT ( #111, #195, ( #209 ) ) ;
#182 = PERSON_AND_ORGANIZATION ( #18446744073709551615, #18446744073709551615 ) ;
#183 = CALENDAR_DATE ( 2026, 22, 6 ) ;
#184 = LOCAL_TIME ( 18, 49, 58.00000000000000000, #74 ) ;
#185 = PERSON_AND_ORGANIZATION ( #18446744073709551615, #18446744073709551615 ) ;
#186 = APPLICATION_CONTEXT ( 'configuration controlled 3d designs of mechanical parts and assemblies' ) ;
#187 = APPROVAL_STATUS ( 'not_yet_approved' ) ;
#188 = APPROVAL_ROLE ( '' ) ;
#189 = DATE_AND_TIME ( #90, #41 ) ;
#190 = PRODUCT_DEFINITION_SHAPE ( 'NONE', 'NONE',  #215 ) ;
#191 = CALENDAR_DATE ( 2026, 22, 6 ) ;
#192 = APPROVAL_PERSON_ORGANIZATION ( #156, #99, #125 ) ;
#193 = CALENDAR_DATE ( 2026, 22, 6 ) ;
#194 = PERSON_AND_ORGANIZATION ( #18446744073709551615, #18446744073709551615 ) ;
#195 = DATE_TIME_ROLE ( 'classification_date' ) ;
#196 = DOCUMENT_FILE ( 'BM04B-GHS-TBT.step.STEP' , '', '', #18, '' ,$ ) ;
#197 = LOCAL_TIME ( 18, 49, 58.00000000000000000, #91 ) ;
#198 =( LENGTH_UNIT ( ) NAMED_UNIT ( * ) SI_UNIT ( .MILLI., .METRE. ) );
#199 = CC_DESIGN_PERSON_AND_ORGANIZATION_ASSIGNMENT ( #52, #89, ( #148 ) ) ;
#200 = CC_DESIGN_APPROVAL ( #20, ( #148 ) ) ;
#201 = DIRECTION ( 'NONE',  ( 1.000000000000000000, 0.000000000000000000, 0.000000000000000000 ) ) ;
#202 = CALENDAR_DATE ( 2026, 22, 6 ) ;
#203 = APPROVAL_DATE_TIME ( #207, #20 ) ;
#204 = CC_DESIGN_APPROVAL ( #58, ( #83 ) ) ;
#205 = PERSON_AND_ORGANIZATION ( #18446744073709551615, #18446744073709551615 ) ;
#206 = APPLICATION_PROTOCOL_DEFINITION ( 'international standard', 'config_control_design', 1994, #186 ) ;
#207 = DATE_AND_TIME ( #35, #94 ) ;
#208 = CC_DESIGN_APPROVAL ( #42, ( #126 ) ) ;
#209 = SECURITY_CLASSIFICATION ( '', '', #112 ) ;
#210 = DATE_AND_TIME ( #191, #12 ) ;
#211 = APPLIED_DOCUMENT_REFERENCE ( #196,'',( #158) ) ;
#212 = CC_DESIGN_PERSON_AND_ORGANIZATION_ASSIGNMENT ( #66, #9, ( #48 ) ) ;
#213 = CALENDAR_DATE ( 2026, 22, 6 ) ;
#214 = CARTESIAN_POINT ( 'NONE',  ( 0.000000000000000000, 0.000000000000000000, 0.000000000000000000 ) ) ;
#215 = NEXT_ASSEMBLY_USAGE_OCCURRENCE ( 'NAUO205', ' ', ' ', #83, #158, $ ) ;
ENDSEC;
END-ISO-10303-21;
