ISO-10303-21;
HEADER;
FILE_DESCRIPTION (( 'STEP AP203' ),
    '1' );
FILE_NAME ('J6.step.STEP',
    '2026-06-22T08:49:55',
    ( 'localuser' ),
    ( '' ),
    'SwSTEP 2.0',
    'SolidWorks 2025',
    '' );
FILE_SCHEMA (( 'CONFIG_CONTROL_DESIGN' ));
ENDSEC;

DATA;
#1 = DATE_TIME_ROLE ( 'classification_date' ) ;
#2 = CC_DESIGN_PERSON_AND_ORGANIZATION_ASSIGNMENT ( #155, #46, ( #110 ) ) ;
#3 = APPROVAL_ROLE ( '' ) ;
#4 = DATE_AND_TIME ( #131, #132 ) ;
#5 = PROPERTY_DEFINITION_REPRESENTATION ( #112, #53 ) ;
#6 = APPLICATION_PROTOCOL_DEFINITION ( 'international standard', 'config_control_design', 1994, #180 ) ;
#7 = CC_DESIGN_PERSON_AND_ORGANIZATION_ASSIGNMENT ( #161, #60, ( #97 ) ) ;
#8 = PERSON_AND_ORGANIZATION_ROLE ( 'design_supplier' ) ;
#9 =( GEOMETRIC_REPRESENTATION_CONTEXT ( 3 ) GLOBAL_UNCERTAINTY_ASSIGNED_CONTEXT ( ( #98 ) ) GLOBAL_UNIT_ASSIGNED_CONTEXT ( ( #147, #133, #111 ) ) REPRESENTATION_CONTEXT ( 'NONE', 'WORKASPACE' ) );
#10 = DATE_AND_TIME ( #104, #11 ) ;
#11 = LOCAL_TIME ( 18, 49, 55.00000000000000000, #39 ) ;
#12 = SECURITY_CLASSIFICATION_LEVEL ( 'unclassified' ) ;
#13 = CALENDAR_DATE ( 2026, 22, 6 ) ;
#14 = APPLICATION_PROTOCOL_DEFINITION ( 'international standard', 'config_control_design', 1994, #69 ) ;
#15 = SECURITY_CLASSIFICATION ( '', '', #12 ) ;
#16 = DIRECTION ( 'NONE',  ( 0.000000000000000000, 0.000000000000000000, 1.000000000000000000 ) ) ;
#17 = APPLIED_EXTERNAL_IDENTIFICATION_ASSIGNMENT ( 'BM04B-GHS-TBT.step.STEP' , #191, #93,( #154) ) ;
#18 = CARTESIAN_POINT ( 'NONE',  ( 0.000000000000000000, 0.000000000000000000, 0.000000000000000000 ) ) ;
#19 = APPLICATION_PROTOCOL_DEFINITION ( 'international standard', 'config_control_design', 1994, #163 ) ;
#20 = ROLE_ASSOCIATION ( #200, #125 ) ;
#21 = CALENDAR_DATE ( 2026, 22, 6 ) ;
#22 = APPROVAL_ROLE ( '' ) ;
#23 = ITEM_DEFINED_TRANSFORMATION ( 'NONE', 'NONE', #64,  #67 ) ;
#24 = CC_DESIGN_APPROVAL ( #75, ( #76 ) ) ;
#25 = PRODUCT_DEFINITION_SHAPE ( 'NONE', 'NONE',  #215 ) ;
#26 = PRODUCT_RELATED_PRODUCT_CATEGORY ( 'detail', '', ( #135 ) ) ;
#27 = CALENDAR_DATE ( 2026, 22, 6 ) ;
#28 = APPROVAL_STATUS ( 'not_yet_approved' ) ;
#29 = AXIS2_PLACEMENT_3D ( 'NONE', #87, #16, #157 ) ;
#30 = PERSON_AND_ORGANIZATION ( #18446744073709551615, #18446744073709551615 ) ;
#31 = CC_DESIGN_APPROVAL ( #122, ( #210 ) ) ;
#32 = APPROVAL ( #142, 'UNKNOWN' ) ;
#33 = CALENDAR_DATE ( 2026, 22, 6 ) ;
#34 = APPROVAL_ROLE ( '' ) ;
#35 = PERSON_AND_ORGANIZATION ( #18446744073709551615, #18446744073709551615 ) ;
#36 = SECURITY_CLASSIFICATION_LEVEL ( 'unclassified' ) ;
#37 = PERSON_AND_ORGANIZATION ( #18446744073709551615, #18446744073709551615 ) ;
#38 = CC_DESIGN_PERSON_AND_ORGANIZATION_ASSIGNMENT ( #74, #8, ( #76 ) ) ;
#39 = COORDINATED_UNIVERSAL_TIME_OFFSET ( 10, 0, .AHEAD. ) ;
#40 = APPROVAL ( #28, 'Coincident' ) ;
#41 = DOCUMENT_TYPE ( 'geometry' ) ;
#42 = CC_DESIGN_SECURITY_CLASSIFICATION ( #15, ( #73 ) ) ;
#43 = CC_DESIGN_DATE_AND_TIME_ASSIGNMENT ( #72, #49, ( #110 ) ) ;
#44 = COORDINATED_UNIVERSAL_TIME_OFFSET ( 10, 0, .AHEAD. ) ;
#45 = CC_DESIGN_APPROVAL ( #150, ( #110 ) ) ;
#46 = PERSON_AND_ORGANIZATION_ROLE ( 'creator' ) ;
#47 = PERSON_AND_ORGANIZATION ( #18446744073709551615, #18446744073709551615 ) ;
#48 = APPROVAL ( #185, 'Coincident' ) ;
#49 = DATE_TIME_ROLE ( 'creation_date' ) ;
#50 = CC_DESIGN_APPROVAL ( #40, ( #15 ) ) ;
#51 = MECHANICAL_CONTEXT ( 'NONE', #172, 'mechanical' ) ;
#52 = LOCAL_TIME ( 18, 49, 55.00000000000000000, #166 ) ;
#53 = SHAPE_REPRESENTATION ( 'BM04B-GHS-TBT.step', ( #67 ), #9 ) ;
#54 = APPROVAL_DATE_TIME ( #174, #122 ) ;
#55 = PRODUCT_DEFINITION ( 'General', '', #76, #91 ) ;
#56 = PERSON_AND_ORGANIZATION ( #211, #156 ) ;
#57 = CALENDAR_DATE ( 2026, 22, 6 ) ;
#58 = CC_DESIGN_PERSON_AND_ORGANIZATION_ASSIGNMENT ( #56, #144, ( #100 ) ) ;
#59 = COORDINATED_UNIVERSAL_TIME_OFFSET ( 10, 0, .AHEAD. ) ;
#60 = PERSON_AND_ORGANIZATION_ROLE ( 'design_owner' ) ;
#61 = APPROVAL_PERSON_ORGANIZATION ( #143, #75, #34 ) ;
#62 = APPROVAL ( #106, 'Coincident' ) ;
#63 = PRODUCT_DEFINITION_SHAPE ( 'NONE', 'NONE',  #110 ) ;
#64 = AXIS2_PLACEMENT_3D ( 'NONE', #71, #184, #171 ) ;
#65 = COORDINATED_UNIVERSAL_TIME_OFFSET ( 10, 0, .AHEAD. ) ;
#66 = PERSON_AND_ORGANIZATION ( #18446744073709551615, #18446744073709551615 ) ;
#67 = AXIS2_PLACEMENT_3D ( 'NONE', #18, #136, #134 ) ;
#68 = APPLICATION_PROTOCOL_DEFINITION ( 'international standard', 'config_control_design', 1994, #172 ) ;
#69 = APPLICATION_CONTEXT ( 'configuration controlled 3d designs of mechanical parts and assemblies' ) ;
#70 = CC_DESIGN_DATE_AND_TIME_ASSIGNMENT ( #146, #206, ( #210 ) ) ;
#71 = CARTESIAN_POINT ( 'NONE',  ( 0.5250826415719995754, 16.27512768554700884, 0.2999993860719994965 ) ) ;
#72 = DATE_AND_TIME ( #13, #214 ) ;
#73 = PRODUCT_DEFINITION_FORMATION_WITH_SPECIFIED_SOURCE ( 'Symmetric', '', #135, .NOT_KNOWN. ) ;
#74 = PERSON_AND_ORGANIZATION ( #18446744073709551615, #18446744073709551615 ) ;
#75 = APPROVAL ( #202, 'Coincident' ) ;
#76 = PRODUCT_DEFINITION_FORMATION_WITH_SPECIFIED_SOURCE ( 'Symmetric', '', #97, .NOT_KNOWN. ) ;
#77 = PERSON_AND_ORGANIZATION ( #18446744073709551615, #18446744073709551615 ) ;
#78 = DATE_TIME_ROLE ( 'classification_date' ) ;
#79 = APPROVAL_DATE_TIME ( #10, #75 ) ;
#80 = APPROVAL_PERSON_ORGANIZATION ( #77, #62, #22 ) ;
#81 = CC_DESIGN_PERSON_AND_ORGANIZATION_ASSIGNMENT ( #35, #190, ( #76 ) ) ;
#82 = APPROVAL_DATE_TIME ( #128, #62 ) ;
#83 = PRODUCT_RELATED_PRODUCT_CATEGORY ( 'detail', '', ( #97 ) ) ;
#84 = PERSON_AND_ORGANIZATION_ROLE ( 'classification_officer' ) ;
#85 = PERSON_AND_ORGANIZATION_ROLE ( 'design_supplier' ) ;
#86 = CC_DESIGN_PERSON_AND_ORGANIZATION_ASSIGNMENT ( #47, #85, ( #73 ) ) ;
#87 = CARTESIAN_POINT ( 'NONE',  ( 0.000000000000000000, 0.000000000000000000, 0.000000000000000000 ) ) ;
#88 = APPROVAL_STATUS ( 'not_yet_approved' ) ;
#89 = APPROVAL_DATE_TIME ( #188, #32 ) ;
#90 = LOCAL_TIME ( 18, 49, 55.00000000000000000, #196 ) ;
#91 = DESIGN_CONTEXT ( 'detailed design', #180, 'design' ) ;
#92 = COORDINATED_UNIVERSAL_TIME_OFFSET ( 10, 0, .AHEAD. ) ;
#93 = EXTERNAL_SOURCE (IDENTIFIER('') ) ;
#94 = SHAPE_DEFINITION_REPRESENTATION ( #148, #53 ) ;
#95 = APPROVAL_ROLE ( '' ) ;
#96 = LOCAL_TIME ( 18, 49, 55.00000000000000000, #177 ) ;
#97 = PRODUCT ( 'BM04B-GHS-TBT.step', 'BM04B-GHS-TBT.step', '', ( #204 ) ) ;
#98 = UNCERTAINTY_MEASURE_WITH_UNIT (LENGTH_MEASURE( 1.000000000000000082E-05 ), #147, 'distance_accuracy_value', 'NONE');
#99 = CC_DESIGN_APPROVAL ( #62, ( #55 ) ) ;
#100 = SECURITY_CLASSIFICATION ( '', '', #203 ) ;
#101 = CC_DESIGN_DATE_AND_TIME_ASSIGNMENT ( #109, #1, ( #15 ) ) ;
#102 = APPROVAL_ROLE ( '' ) ;
#103 = APPROVAL_DATE_TIME ( #183, #48 ) ;
#104 = CALENDAR_DATE ( 2026, 22, 6 ) ;
#105 = PERSON_AND_ORGANIZATION ( #18446744073709551615, #18446744073709551615 ) ;
#106 = APPROVAL_STATUS ( 'not_yet_approved' ) ;
#107 = CC_DESIGN_PERSON_AND_ORGANIZATION_ASSIGNMENT ( #37, #179, ( #55 ) ) ;
#108 = CALENDAR_DATE ( 2026, 22, 6 ) ;
#109 = DATE_AND_TIME ( #212, #90 ) ;
#110 = PRODUCT_DEFINITION ( 'General', '', #73, #141 ) ;
#111 =( NAMED_UNIT ( * ) SI_UNIT ( $, .STERADIAN. ) SOLID_ANGLE_UNIT ( ) );
#112 = PROPERTY_DEFINITION ('external definition','', #154 ) ;
#113 = LOCAL_TIME ( 18, 49, 55.00000000000000000, #65 ) ;
#114 = APPROVAL_PERSON_ORGANIZATION ( #105, #122, #178 ) ;
#115 = CC_DESIGN_DATE_AND_TIME_ASSIGNMENT ( #4, #193, ( #55 ) ) ;
#116 = DATE_AND_TIME ( #27, #117 ) ;
#117 = LOCAL_TIME ( 18, 49, 55.00000000000000000, #44 ) ;
#118 = CC_DESIGN_PERSON_AND_ORGANIZATION_ASSIGNMENT ( #120, #84, ( #15 ) ) ;
#119 = PERSON_AND_ORGANIZATION ( #18446744073709551615, #18446744073709551615 ) ;
#120 = PERSON_AND_ORGANIZATION ( #18446744073709551615, #18446744073709551615 ) ;
#121 =( NAMED_UNIT ( * ) PLANE_ANGLE_UNIT ( ) SI_UNIT ( $, .RADIAN. ) );
#122 = APPROVAL ( #162, 'Coincident' ) ;
#123 = LOCAL_TIME ( 18, 49, 55.00000000000000000, #175 ) ;
#124 = PERSON_AND_ORGANIZATION ( #18446744073709551615, #18446744073709551615 ) ;
#125 = APPLIED_DOCUMENT_REFERENCE ( #154,'',( #55) ) ;
#126 = PERSON_AND_ORGANIZATION ( #18446744073709551615, #18446744073709551615 ) ;
#127 = CC_DESIGN_APPROVAL ( #48, ( #73 ) ) ;
#128 = DATE_AND_TIME ( #145, #165 ) ;
#129 =( REPRESENTATION_RELATIONSHIP ('NONE','NONE', #168, #53 ) REPRESENTATION_RELATIONSHIP_WITH_TRANSFORMATION ( #23 )SHAPE_REPRESENTATION_RELATIONSHIP( ) );
#130 = CALENDAR_DATE ( 2026, 22, 6 ) ;
#131 = CALENDAR_DATE ( 2026, 22, 6 ) ;
#132 = LOCAL_TIME ( 18, 49, 55.00000000000000000, #59 ) ;
#133 =( NAMED_UNIT ( * ) PLANE_ANGLE_UNIT ( ) SI_UNIT ( $, .RADIAN. ) );
#134 = DIRECTION ( 'NONE',  ( 1.000000000000000000, 0.000000000000000000, 0.000000000000000000 ) ) ;
#135 = PRODUCT ( 'J6.step', 'J6.step', '', ( #51 ) ) ;
#136 = DIRECTION ( 'NONE',  ( 0.000000000000000000, 0.000000000000000000, 1.000000000000000000 ) ) ;
#137 = COORDINATED_UNIVERSAL_TIME_OFFSET ( 10, 0, .AHEAD. ) ;
#138 = PERSON_AND_ORGANIZATION_ROLE ( 'creator' ) ;
#139 = APPROVAL_ROLE ( '' ) ;
#140 = CC_DESIGN_SECURITY_CLASSIFICATION ( #100, ( #215 ) ) ;
#141 = DESIGN_CONTEXT ( 'detailed design', #163, 'design' ) ;
#142 = APPROVAL_STATUS ( 'not_yet_approved' ) ;
#143 = PERSON_AND_ORGANIZATION ( #18446744073709551615, #18446744073709551615 ) ;
#144 = PERSON_AND_ORGANIZATION_ROLE ( 'classification_officer' ) ;
#145 = CALENDAR_DATE ( 2026, 22, 6 ) ;
#146 = DATE_AND_TIME ( #21, #123 ) ;
#147 =( LENGTH_UNIT ( ) NAMED_UNIT ( * ) SI_UNIT ( .MILLI., .METRE. ) );
#148 = PRODUCT_DEFINITION_SHAPE ( 'NONE', 'NONE',  #55 ) ;
#149 = PROPERTY_DEFINITION_REPRESENTATION ( #195, #53 ) ;
#150 = APPROVAL ( #88, 'Coincident' ) ;
#151 = APPROVAL_PERSON_ORGANIZATION ( #30, #48, #3 ) ;
#152 = CC_DESIGN_SECURITY_CLASSIFICATION ( #210, ( #76 ) ) ;
#153 = PERSON_AND_ORGANIZATION ( #18446744073709551615, #18446744073709551615 ) ;
#154 = DOCUMENT_FILE ( 'BM04B-GHS-TBT.step.STEP' , '', '', #41, '' ,$ ) ;
#155 = PERSON_AND_ORGANIZATION ( #18446744073709551615, #18446744073709551615 ) ;
#156 = ORGANIZATION ( 'NAUO-ORG103', 'UNSPECIFIED', 'UNSPECIFIED' ) ;
#157 = DIRECTION ( 'NONE',  ( 1.000000000000000000, 0.000000000000000000, 0.000000000000000000 ) ) ;
#158 = APPROVAL_DATE_TIME ( #197, #150 ) ;
#159 = CONTEXT_DEPENDENT_SHAPE_REPRESENTATION ( #129, #25 ) ;
#160 =( GEOMETRIC_REPRESENTATION_CONTEXT ( 3 ) GLOBAL_UNCERTAINTY_ASSIGNED_CONTEXT ( ( #170 ) ) GLOBAL_UNIT_ASSIGNED_CONTEXT ( ( #198, #121, #173 ) ) REPRESENTATION_CONTEXT ( 'NONE', 'WORKASPACE' ) );
#161 = PERSON_AND_ORGANIZATION ( #18446744073709551615, #18446744073709551615 ) ;
#162 = APPROVAL_STATUS ( 'not_yet_approved' ) ;
#163 = APPLICATION_CONTEXT ( 'configuration controlled 3d designs of mechanical parts and assemblies' ) ;
#164 = CC_DESIGN_PERSON_AND_ORGANIZATION_ASSIGNMENT ( #153, #138, ( #73 ) ) ;
#165 = LOCAL_TIME ( 18, 49, 55.00000000000000000, #207 ) ;
#166 = COORDINATED_UNIVERSAL_TIME_OFFSET ( 10, 0, .AHEAD. ) ;
#167 = LOCAL_TIME ( 18, 49, 55.00000000000000000, #92 ) ;
#168 = SHAPE_REPRESENTATION ( 'J6.step', ( #29, #64 ), #160 ) ;
#169 = SHAPE_DEFINITION_REPRESENTATION ( #63, #168 ) ;
#170 = UNCERTAINTY_MEASURE_WITH_UNIT (LENGTH_MEASURE( 1.000000000000000082E-05 ), #198, 'distance_accuracy_value', 'NONE');
#171 = DIRECTION ( 'NONE',  ( -0.9999999999999963363, -8.742277698980949197E-08, -4.733165431326070832E-29 ) ) ;
#172 = APPLICATION_CONTEXT ( 'configuration controlled 3d designs of mechanical parts and assemblies' ) ;
#173 =( NAMED_UNIT ( * ) SI_UNIT ( $, .STERADIAN. ) SOLID_ANGLE_UNIT ( ) );
#174 = DATE_AND_TIME ( #57, #167 ) ;
#175 = COORDINATED_UNIVERSAL_TIME_OFFSET ( 10, 0, .AHEAD. ) ;
#176 = APPROVAL_PERSON_ORGANIZATION ( #56, #32, #95 ) ;
#177 = COORDINATED_UNIVERSAL_TIME_OFFSET ( 10, 0, .AHEAD. ) ;
#178 = APPROVAL_ROLE ( '' ) ;
#179 = PERSON_AND_ORGANIZATION_ROLE ( 'creator' ) ;
#180 = APPLICATION_CONTEXT ( 'configuration controlled 3d designs of mechanical parts and assemblies' ) ;
#181 = APPROVAL_DATE_TIME ( #116, #40 ) ;
#182 = CC_DESIGN_APPROVAL ( #32, ( #100 ) ) ;
#183 = DATE_AND_TIME ( #33, #194 ) ;
#184 = DIRECTION ( 'NONE',  ( -8.742277698980998166E-08, 0.9999999999999953371, -4.371138800000016351E-08 ) ) ;
#185 = APPROVAL_STATUS ( 'not_yet_approved' ) ;
#186 = COORDINATED_UNIVERSAL_TIME_OFFSET ( 10, 0, .AHEAD. ) ;
#187 = CC_DESIGN_PERSON_AND_ORGANIZATION_ASSIGNMENT ( #126, #189, ( #210 ) ) ;
#188 = DATE_AND_TIME ( #108, #96 ) ;
#189 = PERSON_AND_ORGANIZATION_ROLE ( 'classification_officer' ) ;
#190 = PERSON_AND_ORGANIZATION_ROLE ( 'creator' ) ;
#191 = IDENTIFICATION_ROLE ( 'external document id and location', $) ;
#192 = DATE_AND_TIME ( #130, #52 ) ;
#193 = DATE_TIME_ROLE ( 'creation_date' ) ;
#194 = LOCAL_TIME ( 18, 49, 55.00000000000000000, #137 ) ;
#195 = PROPERTY_DEFINITION ('document property','', #154 ) ;
#196 = COORDINATED_UNIVERSAL_TIME_OFFSET ( 10, 0, .AHEAD. ) ;
#197 = DATE_AND_TIME ( #201, #113 ) ;
#198 =( LENGTH_UNIT ( ) NAMED_UNIT ( * ) SI_UNIT ( .MILLI., .METRE. ) );
#199 = PERSON_AND_ORGANIZATION_ROLE ( 'design_owner' ) ;
#200 = OBJECT_ROLE ('mandatory',$ ) ;
#201 = CALENDAR_DATE ( 2026, 22, 6 ) ;
#202 = APPROVAL_STATUS ( 'not_yet_approved' ) ;
#203 = SECURITY_CLASSIFICATION_LEVEL ( 'unclassified' ) ;
#204 = MECHANICAL_CONTEXT ( 'NONE', #69, 'mechanical' ) ;
#205 = APPROVAL_PERSON_ORGANIZATION ( #66, #150, #139 ) ;
#206 = DATE_TIME_ROLE ( 'classification_date' ) ;
#207 = COORDINATED_UNIVERSAL_TIME_OFFSET ( 10, 0, .AHEAD. ) ;
#208 = APPROVAL_PERSON_ORGANIZATION ( #119, #40, #102 ) ;
#209 = CC_DESIGN_DATE_AND_TIME_ASSIGNMENT ( #192, #78, ( #100 ) ) ;
#210 = SECURITY_CLASSIFICATION ( '', '', #36 ) ;
#211 = PERSON ( 'NAUO-PER103', 'UNSPECIFIED', 'UNSPECIFIED', ('UNSPECIFIED'), ('UNSPECIFIED'), ('UNSPECIFIED') ) ;
#212 = CALENDAR_DATE ( 2026, 22, 6 ) ;
#213 = CC_DESIGN_PERSON_AND_ORGANIZATION_ASSIGNMENT ( #124, #199, ( #135 ) ) ;
#214 = LOCAL_TIME ( 18, 49, 55.00000000000000000, #186 ) ;
#215 = NEXT_ASSEMBLY_USAGE_OCCURRENCE ( 'NAUO103', ' ', ' ', #110, #55, $ ) ;
ENDSEC;
END-ISO-10303-21;
