ISO-10303-21;
HEADER;
FILE_DESCRIPTION (( 'STEP AP203' ),
    '1' );
FILE_NAME ('L1.step.STEP',
    '2026-06-22T08:49:58',
    ( 'localuser' ),
    ( '' ),
    'SwSTEP 2.0',
    'SolidWorks 2025',
    '' );
FILE_SCHEMA (( 'CONFIG_CONTROL_DESIGN' ));
ENDSEC;

DATA;
#1 = APPROVAL_DATE_TIME ( #141, #333 ) ;
#2 = PROPERTY_DEFINITION_REPRESENTATION ( #252, #220 ) ;
#3 = APPROVAL_STATUS ( 'not_yet_approved' ) ;
#4 = DATE_TIME_ROLE ( 'classification_date' ) ;
#5 = APPLIED_EXTERNAL_IDENTIFICATION_ASSIGNMENT ( '6461082896.step.STEP' , #106, #345,( #326) ) ;
#6 = PERSON_AND_ORGANIZATION ( #18446744073709551615, #18446744073709551615 ) ;
#7 = COORDINATED_UNIVERSAL_TIME_OFFSET ( 10, 0, .AHEAD. ) ;
#8 = APPROVAL ( #368, 'Coincident' ) ;
#9 = DATE_AND_TIME ( #181, #206 ) ;
#10 = LOCAL_TIME ( 18, 49, 58.00000000000000000, #353 ) ;
#11 = ORGANIZATION ( 'NAUO-ORG194', 'UNSPECIFIED', 'UNSPECIFIED' ) ;
#12 = CALENDAR_DATE ( 2026, 22, 6 ) ;
#13 = APPROVAL_DATE_TIME ( #186, #366 ) ;
#14 = SECURITY_CLASSIFICATION_LEVEL ( 'unclassified' ) ;
#15 = LOCAL_TIME ( 18, 49, 58.00000000000000000, #50 ) ;
#16 = PERSON_AND_ORGANIZATION_ROLE ( 'classification_officer' ) ;
#17 = EXTERNAL_SOURCE (IDENTIFIER('') ) ;
#18 =( NAMED_UNIT ( * ) PLANE_ANGLE_UNIT ( ) SI_UNIT ( $, .RADIAN. ) );
#19 = DATE_TIME_ROLE ( 'classification_date' ) ;
#20 = CC_DESIGN_PERSON_AND_ORGANIZATION_ASSIGNMENT ( #374, #154, ( #318 ) ) ;
#21 = PERSON_AND_ORGANIZATION_ROLE ( 'creator' ) ;
#22 = PERSON_AND_ORGANIZATION_ROLE ( 'creator' ) ;
#23 = CC_DESIGN_APPROVAL ( #213, ( #361 ) ) ;
#24 = DOCUMENT_FILE ( '6461083056.step.STEP' , '', '', #358, '' ,$ ) ;
#25 = DIRECTION ( 'NONE',  ( 1.000000000000000000, 0.000000000000000000, 0.000000000000000000 ) ) ;
#26 = APPLIED_DOCUMENT_REFERENCE ( #24,'',( #254) ) ;
#27 = CC_DESIGN_PERSON_AND_ORGANIZATION_ASSIGNMENT ( #198, #22, ( #57 ) ) ;
#28 =( LENGTH_UNIT ( ) NAMED_UNIT ( * ) SI_UNIT ( .MILLI., .METRE. ) );
#29 = AXIS2_PLACEMENT_3D ( 'NONE', #215, #127, #247 ) ;
#30 = SECURITY_CLASSIFICATION ( '', '', #58 ) ;
#31 = AXIS2_PLACEMENT_3D ( 'NONE', #349, #164, #355 ) ;
#32 = UNCERTAINTY_MEASURE_WITH_UNIT (LENGTH_MEASURE( 1.000000000000000082E-05 ), #28, 'distance_accuracy_value', 'NONE');
#33 = APPROVAL_DATE_TIME ( #84, #128 ) ;
#34 = PRODUCT_DEFINITION ( 'General', '', #180, #35 ) ;
#35 = DESIGN_CONTEXT ( 'detailed design', #212, 'design' ) ;
#36 = PERSON_AND_ORGANIZATION ( #18446744073709551615, #18446744073709551615 ) ;
#37 = LOCAL_TIME ( 18, 49, 58.00000000000000000, #94 ) ;
#38 = PERSON_AND_ORGANIZATION ( #18446744073709551615, #18446744073709551615 ) ;
#39 = EXTERNAL_SOURCE (IDENTIFIER('') ) ;
#40 = APPROVAL_ROLE ( '' ) ;
#41 = CC_DESIGN_PERSON_AND_ORGANIZATION_ASSIGNMENT ( #377, #348, ( #180 ) ) ;
#42 = DATE_TIME_ROLE ( 'creation_date' ) ;
#43 = APPROVAL_PERSON_ORGANIZATION ( #38, #366, #211 ) ;
#44 = APPLICATION_PROTOCOL_DEFINITION ( 'international standard', 'config_control_design', 1994, #255 ) ;
#45 = APPROVAL_DATE_TIME ( #76, #386 ) ;
#46 = PROPERTY_DEFINITION ('external definition','', #24 ) ;
#47 = CALENDAR_DATE ( 2026, 22, 6 ) ;
#48 = PRODUCT_DEFINITION_SHAPE ( 'NONE', 'NONE',  #388 ) ;
#49 = LOCAL_TIME ( 18, 49, 58.00000000000000000, #271 ) ;
#50 = COORDINATED_UNIVERSAL_TIME_OFFSET ( 10, 0, .AHEAD. ) ;
#51 = PERSON_AND_ORGANIZATION ( #18446744073709551615, #18446744073709551615 ) ;
#52 = PERSON_AND_ORGANIZATION ( #18446744073709551615, #18446744073709551615 ) ;
#53 = DATE_AND_TIME ( #140, #15 ) ;
#54 = LOCAL_TIME ( 18, 49, 58.00000000000000000, #70 ) ;
#55 = DIRECTION ( 'NONE',  ( 4.890937612370273194E-29, -3.155443620884047222E-30, 0.9999999999999997780 ) ) ;
#56 = IDENTIFICATION_ROLE ( 'external document id and location', $) ;
#57 = PRODUCT_DEFINITION_FORMATION_WITH_SPECIFIED_SOURCE ( 'Symmetric', '', #343, .NOT_KNOWN. ) ;
#58 = SECURITY_CLASSIFICATION_LEVEL ( 'unclassified' ) ;
#59 = CC_DESIGN_DATE_AND_TIME_ASSIGNMENT ( #178, #82, ( #30 ) ) ;
#60 = APPROVAL_DATE_TIME ( #242, #144 ) ;
#61 = APPROVAL_PERSON_ORGANIZATION ( #51, #176, #256 ) ;
#62 = DATE_AND_TIME ( #336, #381 ) ;
#63 = COORDINATED_UNIVERSAL_TIME_OFFSET ( 10, 0, .AHEAD. ) ;
#64 = APPROVAL_DATE_TIME ( #372, #371 ) ;
#65 = CC_DESIGN_APPROVAL ( #371, ( #254 ) ) ;
#66 = APPROVAL_DATE_TIME ( #342, #8 ) ;
#67 = PROPERTY_DEFINITION ('document property','', #326 ) ;
#68 = PERSON_AND_ORGANIZATION ( #18446744073709551615, #18446744073709551615 ) ;
#69 = CC_DESIGN_DATE_AND_TIME_ASSIGNMENT ( #91, #42, ( #254 ) ) ;
#70 = COORDINATED_UNIVERSAL_TIME_OFFSET ( 10, 0, .AHEAD. ) ;
#71 = APPROVAL_PERSON_ORGANIZATION ( #373, #371, #40 ) ;
#72 = LOCAL_TIME ( 18, 49, 58.00000000000000000, #157 ) ;
#73 = APPROVAL_DATE_TIME ( #379, #213 ) ;
#74 = CC_DESIGN_DATE_AND_TIME_ASSIGNMENT ( #135, #294, ( #370 ) ) ;
#75 = APPROVAL_DATE_TIME ( #293, #89 ) ;
#76 = DATE_AND_TIME ( #292, #335 ) ;
#77 = CARTESIAN_POINT ( 'NONE',  ( 16.54999642941400495, 3.399997985840001569, -2.058321952820000078 ) ) ;
#78 = COORDINATED_UNIVERSAL_TIME_OFFSET ( 10, 0, .AHEAD. ) ;
#79 = PRODUCT_DEFINITION ( 'General', '', #57, #297 ) ;
#80 = LOCAL_TIME ( 18, 49, 58.00000000000000000, #78 ) ;
#81 = PERSON_AND_ORGANIZATION_ROLE ( 'design_owner' ) ;
#82 = DATE_TIME_ROLE ( 'classification_date' ) ;
#83 = AXIS2_PLACEMENT_3D ( 'NONE', #159, #192, #25 ) ;
#84 = DATE_AND_TIME ( #328, #125 ) ;
#85 = APPLIED_EXTERNAL_IDENTIFICATION_ASSIGNMENT ( '6461082896.step.STEP' , #56, #17,( #267) ) ;
#86 = DESIGN_CONTEXT ( 'detailed design', #255, 'design' ) ;
#87 = DATE_TIME_ROLE ( 'creation_date' ) ;
#88 = APPROVAL_STATUS ( 'not_yet_approved' ) ;
#89 = APPROVAL ( #108, 'Coincident' ) ;
#90 = APPLICATION_CONTEXT ( 'configuration controlled 3d designs of mechanical parts and assemblies' ) ;
#91 = DATE_AND_TIME ( #182, #196 ) ;
#92 = APPROVAL_PERSON_ORGANIZATION ( #259, #213, #289 ) ;
#93 = APPROVAL_STATUS ( 'not_yet_approved' ) ;
#94 = COORDINATED_UNIVERSAL_TIME_OFFSET ( 10, 0, .AHEAD. ) ;
#95 = APPLICATION_PROTOCOL_DEFINITION ( 'international standard', 'config_control_design', 1994, #175 ) ;
#96 = PRODUCT_RELATED_PRODUCT_CATEGORY ( 'detail', '', ( #249 ) ) ;
#97 = CC_DESIGN_SECURITY_CLASSIFICATION ( #185, ( #57 ) ) ;
#98 = SHAPE_REPRESENTATION ( '6461082896.step', ( #375 ), #112 ) ;
#99 = PROPERTY_DEFINITION_REPRESENTATION ( #364, #98 ) ;
#100 = CC_DESIGN_PERSON_AND_ORGANIZATION_ASSIGNMENT ( #246, #282, ( #249 ) ) ;
#101 = PRODUCT ( '6461082896.step', '6461082896.step', '', ( #245 ) ) ;
#102 = SECURITY_CLASSIFICATION_LEVEL ( 'unclassified' ) ;
#103 = CC_DESIGN_PERSON_AND_ORGANIZATION_ASSIGNMENT ( #352, #199, ( #180 ) ) ;
#104 = DATE_AND_TIME ( #385, #54 ) ;
#105 = COORDINATED_UNIVERSAL_TIME_OFFSET ( 10, 0, .AHEAD. ) ;
#106 = IDENTIFICATION_ROLE ( 'external document id and location', $) ;
#107 = COORDINATED_UNIVERSAL_TIME_OFFSET ( 10, 0, .AHEAD. ) ;
#108 = APPROVAL_STATUS ( 'not_yet_approved' ) ;
#109 = APPROVAL_DATE_TIME ( #53, #176 ) ;
#110 = CALENDAR_DATE ( 2026, 22, 6 ) ;
#111 = APPROVAL_DATE_TIME ( #299, #330 ) ;
#112 =( GEOMETRIC_REPRESENTATION_CONTEXT ( 3 ) GLOBAL_UNCERTAINTY_ASSIGNED_CONTEXT ( ( #236 ) ) GLOBAL_UNIT_ASSIGNED_CONTEXT ( ( #217, #18, #130 ) ) REPRESENTATION_CONTEXT ( 'NONE', 'WORKASPACE' ) );
#113 = CC_DESIGN_APPROVAL ( #386, ( #370 ) ) ;
#114 =( REPRESENTATION_RELATIONSHIP ('NONE','NONE', #344, #98 ) REPRESENTATION_RELATIONSHIP_WITH_TRANSFORMATION ( #197 )SHAPE_REPRESENTATION_RELATIONSHIP( ) );
#115 =( NAMED_UNIT ( * ) SI_UNIT ( $, .STERADIAN. ) SOLID_ANGLE_UNIT ( ) );
#116 = CC_DESIGN_PERSON_AND_ORGANIZATION_ASSIGNMENT ( #36, #156, ( #309 ) ) ;
#117 = PERSON_AND_ORGANIZATION ( #384, #187 ) ;
#118 = CALENDAR_DATE ( 2026, 22, 6 ) ;
#119 = CONTEXT_DEPENDENT_SHAPE_REPRESENTATION ( #194, #314 ) ;
#120 = PERSON_AND_ORGANIZATION_ROLE ( 'design_owner' ) ;
#121 = DATE_TIME_ROLE ( 'classification_date' ) ;
#122 = APPROVAL ( #88, 'Coincident' ) ;
#123 = APPROVAL_PERSON_ORGANIZATION ( #265, #333, #262 ) ;
#124 = CALENDAR_DATE ( 2026, 22, 6 ) ;
#125 = LOCAL_TIME ( 18, 49, 58.00000000000000000, #148 ) ;
#126 = PERSON_AND_ORGANIZATION_ROLE ( 'classification_officer' ) ;
#127 = DIRECTION ( 'NONE',  ( 0.000000000000000000, 0.000000000000000000, 1.000000000000000000 ) ) ;
#128 = APPROVAL ( #3, 'UNKNOWN' ) ;
#129 = APPROVAL_STATUS ( 'not_yet_approved' ) ;
#130 =( NAMED_UNIT ( * ) SI_UNIT ( $, .STERADIAN. ) SOLID_ANGLE_UNIT ( ) );
#131 = PROPERTY_DEFINITION_REPRESENTATION ( #240, #98 ) ;
#132 = LOCAL_TIME ( 18, 49, 58.00000000000000000, #208 ) ;
#133 = PROPERTY_DEFINITION ('external definition','', #326 ) ;
#134 = OBJECT_ROLE ('mandatory',$ ) ;
#135 = DATE_AND_TIME ( #250, #261 ) ;
#136 = PERSON_AND_ORGANIZATION ( #18446744073709551615, #18446744073709551615 ) ;
#137 = DATE_TIME_ROLE ( 'creation_date' ) ;
#138 = PERSON_AND_ORGANIZATION ( #18446744073709551615, #18446744073709551615 ) ;
#139 = APPROVAL_PERSON_ORGANIZATION ( #279, #144, #310 ) ;
#140 = CALENDAR_DATE ( 2026, 22, 6 ) ;
#141 = DATE_AND_TIME ( #110, #10 ) ;
#142 =( NAMED_UNIT ( * ) SI_UNIT ( $, .STERADIAN. ) SOLID_ANGLE_UNIT ( ) );
#143 = ROLE_ASSOCIATION ( #295, #272 ) ;
#144 = APPROVAL ( #334, 'Coincident' ) ;
#145 =( NAMED_UNIT ( * ) PLANE_ANGLE_UNIT ( ) SI_UNIT ( $, .RADIAN. ) );
#146 =( GEOMETRIC_REPRESENTATION_CONTEXT ( 3 ) GLOBAL_UNCERTAINTY_ASSIGNED_CONTEXT ( ( #351 ) ) GLOBAL_UNIT_ASSIGNED_CONTEXT ( ( #325, #201, #115 ) ) REPRESENTATION_CONTEXT ( 'NONE', 'WORKASPACE' ) );
#147 = APPLIED_EXTERNAL_IDENTIFICATION_ASSIGNMENT ( '6461083056.step.STEP' , #320, #39,( #24) ) ;
#148 = COORDINATED_UNIVERSAL_TIME_OFFSET ( 10, 0, .AHEAD. ) ;
#149 = PRODUCT_RELATED_PRODUCT_CATEGORY ( 'detail', '', ( #101 ) ) ;
#150 = CALENDAR_DATE ( 2026, 22, 6 ) ;
#151 = CC_DESIGN_APPROVAL ( #333, ( #79 ) ) ;
#152 = CC_DESIGN_APPROVAL ( #122, ( #34 ) ) ;
#153 = SHAPE_DEFINITION_REPRESENTATION ( #161, #220 ) ;
#154 = PERSON_AND_ORGANIZATION_ROLE ( 'classification_officer' ) ;
#155 = DOCUMENT_TYPE ( 'geometry' ) ;
#156 = PERSON_AND_ORGANIZATION_ROLE ( 'design_supplier' ) ;
#157 = COORDINATED_UNIVERSAL_TIME_OFFSET ( 10, 0, .AHEAD. ) ;
#158 = COORDINATED_UNIVERSAL_TIME_OFFSET ( 10, 0, .AHEAD. ) ;
#159 = CARTESIAN_POINT ( 'NONE',  ( 0.000000000000000000, 0.000000000000000000, 0.000000000000000000 ) ) ;
#160 = PERSON_AND_ORGANIZATION ( #270, #11 ) ;
#161 = PRODUCT_DEFINITION_SHAPE ( 'NONE', 'NONE',  #254 ) ;
#162 = SHAPE_DEFINITION_REPRESENTATION ( #189, #98 ) ;
#163 = CC_DESIGN_DATE_AND_TIME_ASSIGNMENT ( #363, #87, ( #79 ) ) ;
#164 = DIRECTION ( 'NONE',  ( 4.890937612370273194E-29, -3.155443620884047222E-30, 0.9999999999999997780 ) ) ;
#165 = APPROVAL_PERSON_ORGANIZATION ( #160, #386, #191 ) ;
#166 = PERSON_AND_ORGANIZATION ( #18446744073709551615, #18446744073709551615 ) ;
#167 = PERSON_AND_ORGANIZATION ( #18446744073709551615, #18446744073709551615 ) ;
#168 = SECURITY_CLASSIFICATION_LEVEL ( 'unclassified' ) ;
#169 = CALENDAR_DATE ( 2026, 22, 6 ) ;
#170 = SECURITY_CLASSIFICATION ( '', '', #378 ) ;
#171 = CC_DESIGN_DATE_AND_TIME_ASSIGNMENT ( #174, #4, ( #170 ) ) ;
#172 = CALENDAR_DATE ( 2026, 22, 6 ) ;
#173 = PRODUCT_RELATED_PRODUCT_CATEGORY ( 'detail', '', ( #343 ) ) ;
#174 = DATE_AND_TIME ( #150, #331 ) ;
#175 = APPLICATION_CONTEXT ( 'configuration controlled 3d designs of mechanical parts and assemblies' ) ;
#176 = APPROVAL ( #284, 'Coincident' ) ;
#177 = APPROVAL_PERSON_ORGANIZATION ( #232, #128, #332 ) ;
#178 = DATE_AND_TIME ( #172, #301 ) ;
#179 = COORDINATED_UNIVERSAL_TIME_OFFSET ( 10, 0, .AHEAD. ) ;
#180 = PRODUCT_DEFINITION_FORMATION_WITH_SPECIFIED_SOURCE ( 'Symmetric', '', #101, .NOT_KNOWN. ) ;
#181 = CALENDAR_DATE ( 2026, 22, 6 ) ;
#182 = CALENDAR_DATE ( 2026, 22, 6 ) ;
#183 = CC_DESIGN_PERSON_AND_ORGANIZATION_ASSIGNMENT ( #188, #277, ( #309 ) ) ;
#184 = COORDINATED_UNIVERSAL_TIME_OFFSET ( 10, 0, .AHEAD. ) ;
#185 = SECURITY_CLASSIFICATION ( '', '', #168 ) ;
#186 = DATE_AND_TIME ( #124, #251 ) ;
#187 = ORGANIZATION ( 'NAUO-ORG195', 'UNSPECIFIED', 'UNSPECIFIED' ) ;
#188 = PERSON_AND_ORGANIZATION ( #18446744073709551615, #18446744073709551615 ) ;
#189 = PRODUCT_DEFINITION_SHAPE ( 'NONE', 'NONE',  #34 ) ;
#190 = PRODUCT_DEFINITION_SHAPE ( 'NONE', 'NONE',  #390 ) ;
#191 = APPROVAL_ROLE ( '' ) ;
#192 = DIRECTION ( 'NONE',  ( 0.000000000000000000, 0.000000000000000000, 1.000000000000000000 ) ) ;
#193 = CONTEXT_DEPENDENT_SHAPE_REPRESENTATION ( #114, #48 ) ;
#194 =( REPRESENTATION_RELATIONSHIP ('NONE','NONE', #344, #220 ) REPRESENTATION_RELATIONSHIP_WITH_TRANSFORMATION ( #221 )SHAPE_REPRESENTATION_RELATIONSHIP( ) );
#195 = CC_DESIGN_SECURITY_CLASSIFICATION ( #361, ( #180 ) ) ;
#196 = LOCAL_TIME ( 18, 49, 58.00000000000000000, #158 ) ;
#197 = ITEM_DEFINED_TRANSFORMATION ( 'NONE', 'NONE', #31,  #375 ) ;
#198 = PERSON_AND_ORGANIZATION ( #18446744073709551615, #18446744073709551615 ) ;
#199 = PERSON_AND_ORGANIZATION_ROLE ( 'creator' ) ;
#200 = CC_DESIGN_PERSON_AND_ORGANIZATION_ASSIGNMENT ( #160, #315, ( #370 ) ) ;
#201 =( NAMED_UNIT ( * ) PLANE_ANGLE_UNIT ( ) SI_UNIT ( $, .RADIAN. ) );
#202 = LOCAL_TIME ( 18, 49, 58.00000000000000000, #383 ) ;
#203 = LOCAL_TIME ( 18, 49, 58.00000000000000000, #253 ) ;
#204 = DIRECTION ( 'NONE',  ( 1.000000000000000222, -1.092455418989176591E-28, 4.890937612370273194E-29 ) ) ;
#205 = PROPERTY_DEFINITION_REPRESENTATION ( #46, #220 ) ;
#206 = LOCAL_TIME ( 18, 49, 58.00000000000000000, #184 ) ;
#207 = CONTEXT_DEPENDENT_SHAPE_REPRESENTATION ( #367, #190 ) ;
#208 = COORDINATED_UNIVERSAL_TIME_OFFSET ( 10, 0, .AHEAD. ) ;
#209 = APPROVAL_PERSON_ORGANIZATION ( #365, #122, #317 ) ;
#210 = CC_DESIGN_APPROVAL ( #330, ( #170 ) ) ;
#211 = APPROVAL_ROLE ( '' ) ;
#212 = APPLICATION_CONTEXT ( 'configuration controlled 3d designs of mechanical parts and assemblies' ) ;
#213 = APPROVAL ( #224, 'Coincident' ) ;
#214 = MECHANICAL_CONTEXT ( 'NONE', #175, 'mechanical' ) ;
#215 = CARTESIAN_POINT ( 'NONE',  ( 0.000000000000000000, 0.000000000000000000, 0.000000000000000000 ) ) ;
#216 = CALENDAR_DATE ( 2026, 22, 6 ) ;
#217 =( LENGTH_UNIT ( ) NAMED_UNIT ( * ) SI_UNIT ( .MILLI., .METRE. ) );
#218 = PERSON_AND_ORGANIZATION ( #18446744073709551615, #18446744073709551615 ) ;
#219 = CC_DESIGN_PERSON_AND_ORGANIZATION_ASSIGNMENT ( #68, #81, ( #343 ) ) ;
#220 = SHAPE_REPRESENTATION ( '6461083056.step', ( #29 ), #146 ) ;
#221 = ITEM_DEFINED_TRANSFORMATION ( 'NONE', 'NONE', #369,  #29 ) ;
#222 = PRODUCT_DEFINITION_SHAPE ( 'NONE', 'NONE',  #79 ) ;
#223 = CC_DESIGN_PERSON_AND_ORGANIZATION_ASSIGNMENT ( #6, #120, ( #101 ) ) ;
#224 = APPROVAL_STATUS ( 'not_yet_approved' ) ;
#225 = DATE_AND_TIME ( #227, #203 ) ;
#226 = CALENDAR_DATE ( 2026, 22, 6 ) ;
#227 = CALENDAR_DATE ( 2026, 22, 6 ) ;
#228 = APPROVAL_DATE_TIME ( #104, #122 ) ;
#229 = CARTESIAN_POINT ( 'NONE',  ( 17.04999642941400140, 3.399997985840001569, -2.058321952819998302 ) ) ;
#230 = LOCAL_TIME ( 18, 49, 58.00000000000000000, #382 ) ;
#231 = CC_DESIGN_PERSON_AND_ORGANIZATION_ASSIGNMENT ( #136, #238, ( #79 ) ) ;
#232 = PERSON_AND_ORGANIZATION ( #274, #347 ) ;
#233 = APPLICATION_CONTEXT ( 'configuration controlled 3d designs of mechanical parts and assemblies' ) ;
#234 = PERSON_AND_ORGANIZATION_ROLE ( 'classification_officer' ) ;
#235 = CC_DESIGN_SECURITY_CLASSIFICATION ( #170, ( #389 ) ) ;
#236 = UNCERTAINTY_MEASURE_WITH_UNIT (LENGTH_MEASURE( 1.000000000000000082E-05 ), #217, 'distance_accuracy_value', 'NONE');
#237 = ITEM_DEFINED_TRANSFORMATION ( 'NONE', 'NONE', #260,  #375 ) ;
#238 = PERSON_AND_ORGANIZATION_ROLE ( 'creator' ) ;
#239 = APPLICATION_PROTOCOL_DEFINITION ( 'international standard', 'config_control_design', 1994, #212 ) ;
#240 = PROPERTY_DEFINITION ('external definition','', #267 ) ;
#241 = CC_DESIGN_DATE_AND_TIME_ASSIGNMENT ( #62, #121, ( #185 ) ) ;
#242 = DATE_AND_TIME ( #248, #132 ) ;
#243 = CC_DESIGN_DATE_AND_TIME_ASSIGNMENT ( #225, #137, ( #34 ) ) ;
#244 = CC_DESIGN_APPROVAL ( #128, ( #30 ) ) ;
#245 = MECHANICAL_CONTEXT ( 'NONE', #90, 'mechanical' ) ;
#246 = PERSON_AND_ORGANIZATION ( #18446744073709551615, #18446744073709551615 ) ;
#247 = DIRECTION ( 'NONE',  ( 1.000000000000000000, 0.000000000000000000, 0.000000000000000000 ) ) ;
#248 = CALENDAR_DATE ( 2026, 22, 6 ) ;
#249 = PRODUCT ( '6461083056.step', '6461083056.step', '', ( #214 ) ) ;
#250 = CALENDAR_DATE ( 2026, 22, 6 ) ;
#251 = LOCAL_TIME ( 18, 49, 58.00000000000000000, #7 ) ;
#252 = PROPERTY_DEFINITION ('document property','', #24 ) ;
#253 = COORDINATED_UNIVERSAL_TIME_OFFSET ( 10, 0, .AHEAD. ) ;
#254 = PRODUCT_DEFINITION ( 'General', '', #309, #86 ) ;
#255 = APPLICATION_CONTEXT ( 'configuration controlled 3d designs of mechanical parts and assemblies' ) ;
#256 = APPROVAL_ROLE ( '' ) ;
#257 = PERSON_AND_ORGANIZATION ( #18446744073709551615, #18446744073709551615 ) ;
#258 = CC_DESIGN_PERSON_AND_ORGANIZATION_ASSIGNMENT ( #117, #234, ( #170 ) ) ;
#259 = PERSON_AND_ORGANIZATION ( #18446744073709551615, #18446744073709551615 ) ;
#260 = AXIS2_PLACEMENT_3D ( 'NONE', #229, #350, #327 ) ;
#261 = LOCAL_TIME ( 18, 49, 58.00000000000000000, #321 ) ;
#262 = APPROVAL_ROLE ( '' ) ;
#263 = APPLIED_DOCUMENT_REFERENCE ( #267,'',( #34) ) ;
#264 = CALENDAR_DATE ( 2026, 22, 6 ) ;
#265 = PERSON_AND_ORGANIZATION ( #18446744073709551615, #18446744073709551615 ) ;
#266 = CC_DESIGN_DATE_AND_TIME_ASSIGNMENT ( #9, #306, ( #318 ) ) ;
#267 = DOCUMENT_FILE ( '6461082896.step.STEP' , '', '', #278, '' ,$ ) ;
#268 = APPROVAL_PERSON_ORGANIZATION ( #117, #330, #356 ) ;
#269 = PERSON_AND_ORGANIZATION_ROLE ( 'classification_officer' ) ;
#270 = PERSON ( 'NAUO-PER194', 'UNSPECIFIED', 'UNSPECIFIED', ('UNSPECIFIED'), ('UNSPECIFIED'), ('UNSPECIFIED') ) ;
#271 = COORDINATED_UNIVERSAL_TIME_OFFSET ( 10, 0, .AHEAD. ) ;
#272 = APPLIED_DOCUMENT_REFERENCE ( #326,'',( #34) ) ;
#273 = LOCAL_TIME ( 18, 49, 58.00000000000000000, #105 ) ;
#274 = PERSON ( 'NAUO-PER196', 'UNSPECIFIED', 'UNSPECIFIED', ('UNSPECIFIED'), ('UNSPECIFIED'), ('UNSPECIFIED') ) ;
#275 = CC_DESIGN_APPROVAL ( #176, ( #180 ) ) ;
#276 = APPLICATION_PROTOCOL_DEFINITION ( 'international standard', 'config_control_design', 1994, #90 ) ;
#277 = PERSON_AND_ORGANIZATION_ROLE ( 'creator' ) ;
#278 = DOCUMENT_TYPE ( 'geometry' ) ;
#279 = PERSON_AND_ORGANIZATION ( #18446744073709551615, #18446744073709551615 ) ;
#280 = APPROVAL_PERSON_ORGANIZATION ( #257, #89, #380 ) ;
#281 = PERSON_AND_ORGANIZATION ( #18446744073709551615, #18446744073709551615 ) ;
#282 = PERSON_AND_ORGANIZATION_ROLE ( 'design_owner' ) ;
#283 = APPLICATION_PROTOCOL_DEFINITION ( 'international standard', 'config_control_design', 1994, #233 ) ;
#284 = APPROVAL_STATUS ( 'not_yet_approved' ) ;
#285 = ROLE_ASSOCIATION ( #300, #263 ) ;
#286 = CC_DESIGN_SECURITY_CLASSIFICATION ( #370, ( #388 ) ) ;
#287 = CC_DESIGN_PERSON_AND_ORGANIZATION_ASSIGNMENT ( #138, #126, ( #185 ) ) ;
#288 = DIRECTION ( 'NONE',  ( 1.000000000000000000, 0.000000000000000000, 0.000000000000000000 ) ) ;
#289 = APPROVAL_ROLE ( '' ) ;
#290 = CC_DESIGN_DATE_AND_TIME_ASSIGNMENT ( #323, #19, ( #361 ) ) ;
#291 = DIRECTION ( 'NONE',  ( 0.000000000000000000, 0.000000000000000000, 1.000000000000000000 ) ) ;
#292 = CALENDAR_DATE ( 2026, 22, 6 ) ;
#293 = DATE_AND_TIME ( #226, #273 ) ;
#294 = DATE_TIME_ROLE ( 'classification_date' ) ;
#295 = OBJECT_ROLE ('mandatory',$ ) ;
#296 = CC_DESIGN_SECURITY_CLASSIFICATION ( #30, ( #390 ) ) ;
#297 = DESIGN_CONTEXT ( 'detailed design', #337, 'design' ) ;
#298 = APPLICATION_PROTOCOL_DEFINITION ( 'international standard', 'config_control_design', 1994, #337 ) ;
#299 = DATE_AND_TIME ( #118, #49 ) ;
#300 = OBJECT_ROLE ('mandatory',$ ) ;
#301 = LOCAL_TIME ( 18, 49, 58.00000000000000000, #359 ) ;
#302 = CC_DESIGN_PERSON_AND_ORGANIZATION_ASSIGNMENT ( #218, #338, ( #254 ) ) ;
#303 = ROLE_ASSOCIATION ( #134, #26 ) ;
#304 = APPROVAL_STATUS ( 'not_yet_approved' ) ;
#305 = CC_DESIGN_SECURITY_CLASSIFICATION ( #318, ( #309 ) ) ;
#306 = DATE_TIME_ROLE ( 'classification_date' ) ;
#307 = APPROVAL_ROLE ( '' ) ;
#308 = SHAPE_DEFINITION_REPRESENTATION ( #222, #344 ) ;
#309 = PRODUCT_DEFINITION_FORMATION_WITH_SPECIFIED_SOURCE ( 'Symmetric', '', #249, .NOT_KNOWN. ) ;
#310 = APPROVAL_ROLE ( '' ) ;
#311 = CC_DESIGN_PERSON_AND_ORGANIZATION_ASSIGNMENT ( #232, #269, ( #30 ) ) ;
#312 = APPROVAL_STATUS ( 'not_yet_approved' ) ;
#313 = MECHANICAL_CONTEXT ( 'NONE', #233, 'mechanical' ) ;
#314 = PRODUCT_DEFINITION_SHAPE ( 'NONE', 'NONE',  #389 ) ;
#315 = PERSON_AND_ORGANIZATION_ROLE ( 'classification_officer' ) ;
#316 = CARTESIAN_POINT ( 'NONE',  ( 0.000000000000000000, 0.000000000000000000, 0.000000000000000000 ) ) ;
#317 = APPROVAL_ROLE ( '' ) ;
#318 = SECURITY_CLASSIFICATION ( '', '', #340 ) ;
#319 = CC_DESIGN_PERSON_AND_ORGANIZATION_ASSIGNMENT ( #166, #21, ( #34 ) ) ;
#320 = IDENTIFICATION_ROLE ( 'external document id and location', $) ;
#321 = COORDINATED_UNIVERSAL_TIME_OFFSET ( 10, 0, .AHEAD. ) ;
#322 = PERSON_AND_ORGANIZATION_ROLE ( 'design_supplier' ) ;
#323 = DATE_AND_TIME ( #47, #80 ) ;
#324 = CC_DESIGN_APPROVAL ( #366, ( #318 ) ) ;
#325 =( LENGTH_UNIT ( ) NAMED_UNIT ( * ) SI_UNIT ( .MILLI., .METRE. ) );
#326 = DOCUMENT_FILE ( '6461082896.step.STEP' , '', '', #155, '' ,$ ) ;
#327 = DIRECTION ( 'NONE',  ( 1.000000000000000222, -1.092455418989176591E-28, 4.890937612370273194E-29 ) ) ;
#328 = CALENDAR_DATE ( 2026, 22, 6 ) ;
#329 = PROPERTY_DEFINITION_REPRESENTATION ( #133, #98 ) ;
#330 = APPROVAL ( #346, 'UNKNOWN' ) ;
#331 = LOCAL_TIME ( 18, 49, 58.00000000000000000, #179 ) ;
#332 = APPROVAL_ROLE ( '' ) ;
#333 = APPROVAL ( #304, 'Coincident' ) ;
#334 = APPROVAL_STATUS ( 'not_yet_approved' ) ;
#335 = LOCAL_TIME ( 18, 49, 58.00000000000000000, #107 ) ;
#336 = CALENDAR_DATE ( 2026, 22, 6 ) ;
#337 = APPLICATION_CONTEXT ( 'configuration controlled 3d designs of mechanical parts and assemblies' ) ;
#338 = PERSON_AND_ORGANIZATION_ROLE ( 'creator' ) ;
#339 = CC_DESIGN_PERSON_AND_ORGANIZATION_ASSIGNMENT ( #52, #322, ( #57 ) ) ;
#340 = SECURITY_CLASSIFICATION_LEVEL ( 'unclassified' ) ;
#341 =( GEOMETRIC_REPRESENTATION_CONTEXT ( 3 ) GLOBAL_UNCERTAINTY_ASSIGNED_CONTEXT ( ( #32 ) ) GLOBAL_UNIT_ASSIGNED_CONTEXT ( ( #28, #145, #142 ) ) REPRESENTATION_CONTEXT ( 'NONE', 'WORKASPACE' ) );
#342 = DATE_AND_TIME ( #216, #37 ) ;
#343 = PRODUCT ( 'L1.step', 'L1.step', '', ( #313 ) ) ;
#344 = SHAPE_REPRESENTATION ( 'L1.step', ( #83, #31, #369, #260 ), #341 ) ;
#345 = EXTERNAL_SOURCE (IDENTIFIER('') ) ;
#346 = APPROVAL_STATUS ( 'not_yet_approved' ) ;
#347 = ORGANIZATION ( 'NAUO-ORG196', 'UNSPECIFIED', 'UNSPECIFIED' ) ;
#348 = PERSON_AND_ORGANIZATION_ROLE ( 'design_supplier' ) ;
#349 = CARTESIAN_POINT ( 'NONE',  ( 16.05000024411100412, 3.399997985840001569, -2.058321952820000078 ) ) ;
#350 = DIRECTION ( 'NONE',  ( 4.890937612370273194E-29, -3.155443620884047222E-30, 0.9999999999999997780 ) ) ;
#351 = UNCERTAINTY_MEASURE_WITH_UNIT (LENGTH_MEASURE( 1.000000000000000082E-05 ), #325, 'distance_accuracy_value', 'NONE');
#352 = PERSON_AND_ORGANIZATION ( #18446744073709551615, #18446744073709551615 ) ;
#353 = COORDINATED_UNIVERSAL_TIME_OFFSET ( 10, 0, .AHEAD. ) ;
#354 = CC_DESIGN_APPROVAL ( #8, ( #309 ) ) ;
#355 = DIRECTION ( 'NONE',  ( 1.000000000000000222, -1.092455418989176591E-28, 4.890937612370273194E-29 ) ) ;
#356 = APPROVAL_ROLE ( '' ) ;
#357 = CC_DESIGN_PERSON_AND_ORGANIZATION_ASSIGNMENT ( #167, #16, ( #361 ) ) ;
#358 = DOCUMENT_TYPE ( 'geometry' ) ;
#359 = COORDINATED_UNIVERSAL_TIME_OFFSET ( 10, 0, .AHEAD. ) ;
#360 = CC_DESIGN_APPROVAL ( #89, ( #57 ) ) ;
#361 = SECURITY_CLASSIFICATION ( '', '', #102 ) ;
#362 = PROPERTY_DEFINITION_REPRESENTATION ( #67, #98 ) ;
#363 = DATE_AND_TIME ( #264, #202 ) ;
#364 = PROPERTY_DEFINITION ('document property','', #267 ) ;
#365 = PERSON_AND_ORGANIZATION ( #18446744073709551615, #18446744073709551615 ) ;
#366 = APPROVAL ( #129, 'Coincident' ) ;
#367 =( REPRESENTATION_RELATIONSHIP ('NONE','NONE', #344, #98 ) REPRESENTATION_RELATIONSHIP_WITH_TRANSFORMATION ( #237 )SHAPE_REPRESENTATION_RELATIONSHIP( ) );
#368 = APPROVAL_STATUS ( 'not_yet_approved' ) ;
#369 = AXIS2_PLACEMENT_3D ( 'NONE', #77, #55, #204 ) ;
#370 = SECURITY_CLASSIFICATION ( '', '', #14 ) ;
#371 = APPROVAL ( #93, 'Coincident' ) ;
#372 = DATE_AND_TIME ( #12, #72 ) ;
#373 = PERSON_AND_ORGANIZATION ( #18446744073709551615, #18446744073709551615 ) ;
#374 = PERSON_AND_ORGANIZATION ( #18446744073709551615, #18446744073709551615 ) ;
#375 = AXIS2_PLACEMENT_3D ( 'NONE', #316, #291, #288 ) ;
#376 = APPROVAL_PERSON_ORGANIZATION ( #281, #8, #307 ) ;
#377 = PERSON_AND_ORGANIZATION ( #18446744073709551615, #18446744073709551615 ) ;
#378 = SECURITY_CLASSIFICATION_LEVEL ( 'unclassified' ) ;
#379 = DATE_AND_TIME ( #169, #230 ) ;
#380 = APPROVAL_ROLE ( '' ) ;
#381 = LOCAL_TIME ( 18, 49, 58.00000000000000000, #63 ) ;
#382 = COORDINATED_UNIVERSAL_TIME_OFFSET ( 10, 0, .AHEAD. ) ;
#383 = COORDINATED_UNIVERSAL_TIME_OFFSET ( 10, 0, .AHEAD. ) ;
#384 = PERSON ( 'NAUO-PER195', 'UNSPECIFIED', 'UNSPECIFIED', ('UNSPECIFIED'), ('UNSPECIFIED'), ('UNSPECIFIED') ) ;
#385 = CALENDAR_DATE ( 2026, 22, 6 ) ;
#386 = APPROVAL ( #312, 'UNKNOWN' ) ;
#387 = CC_DESIGN_APPROVAL ( #144, ( #185 ) ) ;
#388 = NEXT_ASSEMBLY_USAGE_OCCURRENCE ( 'NAUO194', ' ', ' ', #79, #34, $ ) ;
#389 = NEXT_ASSEMBLY_USAGE_OCCURRENCE ( 'NAUO195', ' ', ' ', #79, #254, $ ) ;
#390 = NEXT_ASSEMBLY_USAGE_OCCURRENCE ( 'NAUO196', ' ', ' ', #79, #34, $ ) ;
ENDSEC;
END-ISO-10303-21;
