ISO-10303-21;
HEADER;
FILE_DESCRIPTION (( 'STEP AP203' ),
    '1' );
FILE_NAME ('L11.step.STEP',
    '2026-06-22T08:49:57',
    ( 'localuser' ),
    ( '' ),
    'SwSTEP 2.0',
    'SolidWorks 2025',
    '' );
FILE_SCHEMA (( 'CONFIG_CONTROL_DESIGN' ));
ENDSEC;

DATA;
#1 = PERSON_AND_ORGANIZATION_ROLE ( 'design_supplier' ) ;
#2 = DESIGN_CONTEXT ( 'detailed design', #189, 'design' ) ;
#3 = DATE_TIME_ROLE ( 'classification_date' ) ;
#4 = COORDINATED_UNIVERSAL_TIME_OFFSET ( 10, 0, .AHEAD. ) ;
#5 = CC_DESIGN_PERSON_AND_ORGANIZATION_ASSIGNMENT ( #154, #83, ( #169 ) ) ;
#6 = COORDINATED_UNIVERSAL_TIME_OFFSET ( 10, 0, .AHEAD. ) ;
#7 = APPROVAL_PERSON_ORGANIZATION ( #33, #52, #144 ) ;
#8 = PERSON_AND_ORGANIZATION ( #110, #194 ) ;
#9 =( NAMED_UNIT ( * ) PLANE_ANGLE_UNIT ( ) SI_UNIT ( $, .RADIAN. ) );
#10 = LOCAL_TIME ( 18, 49, 57.00000000000000000, #6 ) ;
#11 = DIRECTION ( 'NONE',  ( 1.000000000000000222, -1.092455418989176591E-28, 4.890937612370273194E-29 ) ) ;
#12 = PRODUCT_RELATED_PRODUCT_CATEGORY ( 'detail', '', ( #140 ) ) ;
#13 = COORDINATED_UNIVERSAL_TIME_OFFSET ( 10, 0, .AHEAD. ) ;
#14 = COORDINATED_UNIVERSAL_TIME_OFFSET ( 10, 0, .AHEAD. ) ;
#15 = CALENDAR_DATE ( 2026, 22, 6 ) ;
#16 = PRODUCT_RELATED_PRODUCT_CATEGORY ( 'detail', '', ( #107 ) ) ;
#17 = PERSON_AND_ORGANIZATION ( #18446744073709551615, #18446744073709551615 ) ;
#18 = CC_DESIGN_APPROVAL ( #126, ( #164 ) ) ;
#19 = APPROVAL_STATUS ( 'not_yet_approved' ) ;
#20 = APPROVAL ( #51, 'Coincident' ) ;
#21 = CALENDAR_DATE ( 2026, 22, 6 ) ;
#22 = APPROVAL_DATE_TIME ( #205, #167 ) ;
#23 = APPROVAL_PERSON_ORGANIZATION ( #165, #210, #94 ) ;
#24 =( LENGTH_UNIT ( ) NAMED_UNIT ( * ) SI_UNIT ( .MILLI., .METRE. ) );
#25 = DIRECTION ( 'NONE',  ( 1.000000000000000000, 0.000000000000000000, 0.000000000000000000 ) ) ;
#26 = PROPERTY_DEFINITION ('document property','', #131 ) ;
#27 = UNCERTAINTY_MEASURE_WITH_UNIT (LENGTH_MEASURE( 1.000000000000000082E-05 ), #24, 'distance_accuracy_value', 'NONE');
#28 = PERSON_AND_ORGANIZATION ( #18446744073709551615, #18446744073709551615 ) ;
#29 = COORDINATED_UNIVERSAL_TIME_OFFSET ( 10, 0, .AHEAD. ) ;
#30 = PERSON_AND_ORGANIZATION ( #18446744073709551615, #18446744073709551615 ) ;
#31 = DATE_AND_TIME ( #75, #108 ) ;
#32 = AXIS2_PLACEMENT_3D ( 'NONE', #133, #48, #116 ) ;
#33 = PERSON_AND_ORGANIZATION ( #18446744073709551615, #18446744073709551615 ) ;
#34 = APPROVAL_ROLE ( '' ) ;
#35 = APPROVAL_ROLE ( '' ) ;
#36 = CARTESIAN_POINT ( 'NONE',  ( 0.000000000000000000, 0.000000000000000000, 0.000000000000000000 ) ) ;
#37 = DATE_TIME_ROLE ( 'classification_date' ) ;
#38 = APPLIED_EXTERNAL_IDENTIFICATION_ASSIGNMENT ( '11552552384.step.STEP' , #40, #109,( #131) ) ;
#39 = CALENDAR_DATE ( 2026, 22, 6 ) ;
#40 = IDENTIFICATION_ROLE ( 'external document id and location', $) ;
#41 = CC_DESIGN_PERSON_AND_ORGANIZATION_ASSIGNMENT ( #85, #156, ( #169 ) ) ;
#42 = CC_DESIGN_APPROVAL ( #210, ( #157 ) ) ;
#43 = MECHANICAL_CONTEXT ( 'NONE', #173, 'mechanical' ) ;
#44 = COORDINATED_UNIVERSAL_TIME_OFFSET ( 10, 0, .AHEAD. ) ;
#45 = CALENDAR_DATE ( 2026, 22, 6 ) ;
#46 = CC_DESIGN_PERSON_AND_ORGANIZATION_ASSIGNMENT ( #28, #163, ( #164 ) ) ;
#47 = AXIS2_PLACEMENT_3D ( 'NONE', #160, #206, #11 ) ;
#48 = DIRECTION ( 'NONE',  ( 0.000000000000000000, 0.000000000000000000, 1.000000000000000000 ) ) ;
#49 = CC_DESIGN_SECURITY_CLASSIFICATION ( #69, ( #157 ) ) ;
#50 = PERSON_AND_ORGANIZATION ( #18446744073709551615, #18446744073709551615 ) ;
#51 = APPROVAL_STATUS ( 'not_yet_approved' ) ;
#52 = APPROVAL ( #168, 'Coincident' ) ;
#53 = DATE_AND_TIME ( #204, #181 ) ;
#54 = DIRECTION ( 'NONE',  ( 0.000000000000000000, 0.000000000000000000, 1.000000000000000000 ) ) ;
#55 = PERSON_AND_ORGANIZATION_ROLE ( 'classification_officer' ) ;
#56 = COORDINATED_UNIVERSAL_TIME_OFFSET ( 10, 0, .AHEAD. ) ;
#57 = MECHANICAL_CONTEXT ( 'NONE', #155, 'mechanical' ) ;
#58 = CC_DESIGN_PERSON_AND_ORGANIZATION_ASSIGNMENT ( #30, #195, ( #157 ) ) ;
#59 = PROPERTY_DEFINITION ('external definition','', #131 ) ;
#60 = LOCAL_TIME ( 18, 49, 57.00000000000000000, #112 ) ;
#61 = DATE_TIME_ROLE ( 'classification_date' ) ;
#62 = APPLICATION_PROTOCOL_DEFINITION ( 'international standard', 'config_control_design', 1994, #97 ) ;
#63 = APPROVAL_DATE_TIME ( #31, #126 ) ;
#64 = COORDINATED_UNIVERSAL_TIME_OFFSET ( 10, 0, .AHEAD. ) ;
#65 =( REPRESENTATION_RELATIONSHIP ('NONE','NONE', #147, #81 ) REPRESENTATION_RELATIONSHIP_WITH_TRANSFORMATION ( #201 )SHAPE_REPRESENTATION_RELATIONSHIP( ) );
#66 = CC_DESIGN_DATE_AND_TIME_ASSIGNMENT ( #134, #3, ( #105 ) ) ;
#67 = PERSON_AND_ORGANIZATION ( #18446744073709551615, #18446744073709551615 ) ;
#68 = CC_DESIGN_PERSON_AND_ORGANIZATION_ASSIGNMENT ( #8, #55, ( #141 ) ) ;
#69 = SECURITY_CLASSIFICATION ( '', '', #151 ) ;
#70 = APPROVAL_STATUS ( 'not_yet_approved' ) ;
#71 = APPROVAL_DATE_TIME ( #158, #183 ) ;
#72 =( LENGTH_UNIT ( ) NAMED_UNIT ( * ) SI_UNIT ( .MILLI., .METRE. ) );
#73 = APPROVAL_PERSON_ORGANIZATION ( #120, #20, #207 ) ;
#74 = PERSON_AND_ORGANIZATION_ROLE ( 'design_owner' ) ;
#75 = CALENDAR_DATE ( 2026, 22, 6 ) ;
#76 = CALENDAR_DATE ( 2026, 22, 6 ) ;
#77 = APPROVAL_STATUS ( 'not_yet_approved' ) ;
#78 = CC_DESIGN_PERSON_AND_ORGANIZATION_ASSIGNMENT ( #114, #176, ( #101 ) ) ;
#79 = APPROVAL_STATUS ( 'not_yet_approved' ) ;
#80 =( GEOMETRIC_REPRESENTATION_CONTEXT ( 3 ) GLOBAL_UNCERTAINTY_ASSIGNED_CONTEXT ( ( #27 ) ) GLOBAL_UNIT_ASSIGNED_CONTEXT ( ( #24, #123, #98 ) ) REPRESENTATION_CONTEXT ( 'NONE', 'WORKASPACE' ) );
#81 = SHAPE_REPRESENTATION ( '11552552384.step', ( #124 ), #180 ) ;
#82 = CC_DESIGN_APPROVAL ( #167, ( #105 ) ) ;
#83 = PERSON_AND_ORGANIZATION_ROLE ( 'design_supplier' ) ;
#84 = OBJECT_ROLE ('mandatory',$ ) ;
#85 = PERSON_AND_ORGANIZATION ( #18446744073709551615, #18446744073709551615 ) ;
#86 = SHAPE_DEFINITION_REPRESENTATION ( #128, #81 ) ;
#87 = APPLICATION_PROTOCOL_DEFINITION ( 'international standard', 'config_control_design', 1994, #155 ) ;
#88 = PRODUCT_DEFINITION_SHAPE ( 'NONE', 'NONE',  #215 ) ;
#89 = CC_DESIGN_DATE_AND_TIME_ASSIGNMENT ( #149, #61, ( #69 ) ) ;
#90 = PERSON_AND_ORGANIZATION ( #18446744073709551615, #18446744073709551615 ) ;
#91 = APPROVAL_ROLE ( '' ) ;
#92 = LOCAL_TIME ( 18, 49, 57.00000000000000000, #193 ) ;
#93 = PERSON_AND_ORGANIZATION ( #18446744073709551615, #18446744073709551615 ) ;
#94 = APPROVAL_ROLE ( '' ) ;
#95 = CC_DESIGN_DATE_AND_TIME_ASSIGNMENT ( #153, #99, ( #101 ) ) ;
#96 = CALENDAR_DATE ( 2026, 22, 6 ) ;
#97 = APPLICATION_CONTEXT ( 'configuration controlled 3d designs of mechanical parts and assemblies' ) ;
#98 =( NAMED_UNIT ( * ) SI_UNIT ( $, .STERADIAN. ) SOLID_ANGLE_UNIT ( ) );
#99 = DATE_TIME_ROLE ( 'creation_date' ) ;
#100 = APPROVAL_DATE_TIME ( #53, #20 ) ;
#101 = PRODUCT_DEFINITION ( 'General', '', #169, #2 ) ;
#102 = DATE_AND_TIME ( #171, #10 ) ;
#103 = APPROVAL_PERSON_ORGANIZATION ( #93, #203, #91 ) ;
#104 = PERSON_AND_ORGANIZATION_ROLE ( 'classification_officer' ) ;
#105 = SECURITY_CLASSIFICATION ( '', '', #170 ) ;
#106 = PROPERTY_DEFINITION_REPRESENTATION ( #59, #81 ) ;
#107 = PRODUCT ( 'L11.step', 'L11.step', '', ( #57 ) ) ;
#108 = LOCAL_TIME ( 18, 49, 57.00000000000000000, #13 ) ;
#109 = EXTERNAL_SOURCE (IDENTIFIER('') ) ;
#110 = PERSON ( 'NAUO-PER192', 'UNSPECIFIED', 'UNSPECIFIED', ('UNSPECIFIED'), ('UNSPECIFIED'), ('UNSPECIFIED') ) ;
#111 = PERSON_AND_ORGANIZATION ( #18446744073709551615, #18446744073709551615 ) ;
#112 = COORDINATED_UNIVERSAL_TIME_OFFSET ( 10, 0, .AHEAD. ) ;
#113 = LOCAL_TIME ( 18, 49, 57.00000000000000000, #14 ) ;
#114 = PERSON_AND_ORGANIZATION ( #18446744073709551615, #18446744073709551615 ) ;
#115 = CC_DESIGN_APPROVAL ( #183, ( #141 ) ) ;
#116 = DIRECTION ( 'NONE',  ( 1.000000000000000000, 0.000000000000000000, 0.000000000000000000 ) ) ;
#117 = PERSON_AND_ORGANIZATION_ROLE ( 'classification_officer' ) ;
#118 = SECURITY_CLASSIFICATION_LEVEL ( 'unclassified' ) ;
#119 = CC_DESIGN_SECURITY_CLASSIFICATION ( #105, ( #169 ) ) ;
#120 = PERSON_AND_ORGANIZATION ( #18446744073709551615, #18446744073709551615 ) ;
#121 = COORDINATED_UNIVERSAL_TIME_OFFSET ( 10, 0, .AHEAD. ) ;
#122 = CONTEXT_DEPENDENT_SHAPE_REPRESENTATION ( #65, #88 ) ;
#123 =( NAMED_UNIT ( * ) PLANE_ANGLE_UNIT ( ) SI_UNIT ( $, .RADIAN. ) );
#124 = AXIS2_PLACEMENT_3D ( 'NONE', #36, #54, #25 ) ;
#125 = APPROVAL_PERSON_ORGANIZATION ( #8, #183, #34 ) ;
#126 = APPROVAL ( #77, 'Coincident' ) ;
#127 =( NAMED_UNIT ( * ) SI_UNIT ( $, .STERADIAN. ) SOLID_ANGLE_UNIT ( ) );
#128 = PRODUCT_DEFINITION_SHAPE ( 'NONE', 'NONE',  #101 ) ;
#129 = APPROVAL_DATE_TIME ( #211, #52 ) ;
#130 = APPROVAL_STATUS ( 'not_yet_approved' ) ;
#131 = DOCUMENT_FILE ( '11552552384.step.STEP' , '', '', #143, '' ,$ ) ;
#132 = CC_DESIGN_PERSON_AND_ORGANIZATION_ASSIGNMENT ( #50, #117, ( #69 ) ) ;
#133 = CARTESIAN_POINT ( 'NONE',  ( 0.000000000000000000, 0.000000000000000000, 0.000000000000000000 ) ) ;
#134 = DATE_AND_TIME ( #182, #209 ) ;
#135 = CC_DESIGN_PERSON_AND_ORGANIZATION_ASSIGNMENT ( #111, #197, ( #140 ) ) ;
#136 = PROPERTY_DEFINITION_REPRESENTATION ( #26, #81 ) ;
#137 = LOCAL_TIME ( 18, 49, 57.00000000000000000, #29 ) ;
#138 = CC_DESIGN_SECURITY_CLASSIFICATION ( #141, ( #215 ) ) ;
#139 = ROLE_ASSOCIATION ( #84, #184 ) ;
#140 = PRODUCT ( '11552552384.step', '11552552384.step', '', ( #43 ) ) ;
#141 = SECURITY_CLASSIFICATION ( '', '', #118 ) ;
#142 = CC_DESIGN_PERSON_AND_ORGANIZATION_ASSIGNMENT ( #67, #104, ( #105 ) ) ;
#143 = DOCUMENT_TYPE ( 'geometry' ) ;
#144 = APPROVAL_ROLE ( '' ) ;
#145 = CC_DESIGN_APPROVAL ( #52, ( #69 ) ) ;
#146 = DATE_AND_TIME ( #45, #92 ) ;
#147 = SHAPE_REPRESENTATION ( 'L11.step', ( #32, #47 ), #80 ) ;
#148 = APPROVAL_DATE_TIME ( #166, #210 ) ;
#149 = DATE_AND_TIME ( #178, #185 ) ;
#150 = CC_DESIGN_DATE_AND_TIME_ASSIGNMENT ( #102, #37, ( #141 ) ) ;
#151 = SECURITY_CLASSIFICATION_LEVEL ( 'unclassified' ) ;
#152 = LOCAL_TIME ( 18, 49, 57.00000000000000000, #56 ) ;
#153 = DATE_AND_TIME ( #200, #208 ) ;
#154 = PERSON_AND_ORGANIZATION ( #18446744073709551615, #18446744073709551615 ) ;
#155 = APPLICATION_CONTEXT ( 'configuration controlled 3d designs of mechanical parts and assemblies' ) ;
#156 = PERSON_AND_ORGANIZATION_ROLE ( 'creator' ) ;
#157 = PRODUCT_DEFINITION_FORMATION_WITH_SPECIFIED_SOURCE ( 'Symmetric', '', #107, .NOT_KNOWN. ) ;
#158 = DATE_AND_TIME ( #39, #152 ) ;
#159 = CC_DESIGN_DATE_AND_TIME_ASSIGNMENT ( #192, #198, ( #164 ) ) ;
#160 = CARTESIAN_POINT ( 'NONE',  ( 12.70000176999000452, 5.850002563477000983, 0.000000000000000000 ) ) ;
#161 = DESIGN_CONTEXT ( 'detailed design', #97, 'design' ) ;
#162 = APPLICATION_PROTOCOL_DEFINITION ( 'international standard', 'config_control_design', 1994, #173 ) ;
#163 = PERSON_AND_ORGANIZATION_ROLE ( 'creator' ) ;
#164 = PRODUCT_DEFINITION ( 'General', '', #157, #161 ) ;
#165 = PERSON_AND_ORGANIZATION ( #18446744073709551615, #18446744073709551615 ) ;
#166 = DATE_AND_TIME ( #76, #137 ) ;
#167 = APPROVAL ( #70, 'Coincident' ) ;
#168 = APPROVAL_STATUS ( 'not_yet_approved' ) ;
#169 = PRODUCT_DEFINITION_FORMATION_WITH_SPECIFIED_SOURCE ( 'Symmetric', '', #140, .NOT_KNOWN. ) ;
#170 = SECURITY_CLASSIFICATION_LEVEL ( 'unclassified' ) ;
#171 = CALENDAR_DATE ( 2026, 22, 6 ) ;
#172 = PERSON_AND_ORGANIZATION ( #18446744073709551615, #18446744073709551615 ) ;
#173 = APPLICATION_CONTEXT ( 'configuration controlled 3d designs of mechanical parts and assemblies' ) ;
#174 = APPLICATION_PROTOCOL_DEFINITION ( 'international standard', 'config_control_design', 1994, #189 ) ;
#175 = APPROVAL_PERSON_ORGANIZATION ( #172, #167, #35 ) ;
#176 = PERSON_AND_ORGANIZATION_ROLE ( 'creator' ) ;
#177 = PERSON_AND_ORGANIZATION ( #18446744073709551615, #18446744073709551615 ) ;
#178 = CALENDAR_DATE ( 2026, 22, 6 ) ;
#179 = CC_DESIGN_PERSON_AND_ORGANIZATION_ASSIGNMENT ( #17, #1, ( #157 ) ) ;
#180 =( GEOMETRIC_REPRESENTATION_CONTEXT ( 3 ) GLOBAL_UNCERTAINTY_ASSIGNED_CONTEXT ( ( #196 ) ) GLOBAL_UNIT_ASSIGNED_CONTEXT ( ( #72, #9, #127 ) ) REPRESENTATION_CONTEXT ( 'NONE', 'WORKASPACE' ) );
#181 = LOCAL_TIME ( 18, 49, 57.00000000000000000, #121 ) ;
#182 = CALENDAR_DATE ( 2026, 22, 6 ) ;
#183 = APPROVAL ( #19, 'UNKNOWN' ) ;
#184 = APPLIED_DOCUMENT_REFERENCE ( #131,'',( #101) ) ;
#185 = LOCAL_TIME ( 18, 49, 57.00000000000000000, #44 ) ;
#186 = CC_DESIGN_APPROVAL ( #20, ( #169 ) ) ;
#187 = COORDINATED_UNIVERSAL_TIME_OFFSET ( 10, 0, .AHEAD. ) ;
#188 = PRODUCT_DEFINITION_SHAPE ( 'NONE', 'NONE',  #164 ) ;
#189 = APPLICATION_CONTEXT ( 'configuration controlled 3d designs of mechanical parts and assemblies' ) ;
#190 = LOCAL_TIME ( 18, 49, 57.00000000000000000, #4 ) ;
#191 = SHAPE_DEFINITION_REPRESENTATION ( #188, #147 ) ;
#192 = DATE_AND_TIME ( #96, #113 ) ;
#193 = COORDINATED_UNIVERSAL_TIME_OFFSET ( 10, 0, .AHEAD. ) ;
#194 = ORGANIZATION ( 'NAUO-ORG192', 'UNSPECIFIED', 'UNSPECIFIED' ) ;
#195 = PERSON_AND_ORGANIZATION_ROLE ( 'creator' ) ;
#196 = UNCERTAINTY_MEASURE_WITH_UNIT (LENGTH_MEASURE( 1.000000000000000082E-05 ), #72, 'distance_accuracy_value', 'NONE');
#197 = PERSON_AND_ORGANIZATION_ROLE ( 'design_owner' ) ;
#198 = DATE_TIME_ROLE ( 'creation_date' ) ;
#199 = CC_DESIGN_PERSON_AND_ORGANIZATION_ASSIGNMENT ( #90, #74, ( #107 ) ) ;
#200 = CALENDAR_DATE ( 2026, 22, 6 ) ;
#201 = ITEM_DEFINED_TRANSFORMATION ( 'NONE', 'NONE', #47,  #124 ) ;
#202 = APPROVAL_PERSON_ORGANIZATION ( #177, #126, #213 ) ;
#203 = APPROVAL ( #130, 'Coincident' ) ;
#204 = CALENDAR_DATE ( 2026, 22, 6 ) ;
#205 = DATE_AND_TIME ( #21, #190 ) ;
#206 = DIRECTION ( 'NONE',  ( 4.890937612370273194E-29, -3.155443620884047222E-30, 0.9999999999999997780 ) ) ;
#207 = APPROVAL_ROLE ( '' ) ;
#208 = LOCAL_TIME ( 18, 49, 57.00000000000000000, #64 ) ;
#209 = LOCAL_TIME ( 18, 49, 57.00000000000000000, #187 ) ;
#210 = APPROVAL ( #79, 'Coincident' ) ;
#211 = DATE_AND_TIME ( #15, #60 ) ;
#212 = APPROVAL_DATE_TIME ( #146, #203 ) ;
#213 = APPROVAL_ROLE ( '' ) ;
#214 = CC_DESIGN_APPROVAL ( #203, ( #101 ) ) ;
#215 = NEXT_ASSEMBLY_USAGE_OCCURRENCE ( 'NAUO192', ' ', ' ', #164, #101, $ ) ;
ENDSEC;
END-ISO-10303-21;
