ISO-10303-21;
HEADER;
FILE_DESCRIPTION (( 'STEP AP203' ),
    '1' );
FILE_NAME ('L13.step.STEP',
    '2026-06-22T08:49:57',
    ( 'localuser' ),
    ( '' ),
    'SwSTEP 2.0',
    'SolidWorks 2025',
    '' );
FILE_SCHEMA (( 'CONFIG_CONTROL_DESIGN' ));
ENDSEC;

DATA;
#1 = APPROVAL_ROLE ( '' ) ;
#2 = CC_DESIGN_PERSON_AND_ORGANIZATION_ASSIGNMENT ( #210, #27, ( #22 ) ) ;
#3 = APPROVAL_DATE_TIME ( #52, #119 ) ;
#4 = APPROVAL_ROLE ( '' ) ;
#5 = PRODUCT_DEFINITION ( 'General', '', #37, #68 ) ;
#6 = APPLIED_DOCUMENT_REFERENCE ( #202,'',( #5) ) ;
#7 = APPLIED_EXTERNAL_IDENTIFICATION_ASSIGNMENT ( '11552552384.step.STEP' , #154, #85,( #202) ) ;
#8 = APPROVAL_DATE_TIME ( #84, #99 ) ;
#9 = DIRECTION ( 'NONE',  ( 0.000000000000000000, 0.000000000000000000, 1.000000000000000000 ) ) ;
#10 = OBJECT_ROLE ('mandatory',$ ) ;
#11 = APPROVAL ( #65, 'Coincident' ) ;
#12 = APPLICATION_PROTOCOL_DEFINITION ( 'international standard', 'config_control_design', 1994, #187 ) ;
#13 = PERSON_AND_ORGANIZATION_ROLE ( 'creator' ) ;
#14 = PERSON_AND_ORGANIZATION ( #18446744073709551615, #18446744073709551615 ) ;
#15 = CC_DESIGN_PERSON_AND_ORGANIZATION_ASSIGNMENT ( #140, #23, ( #37 ) ) ;
#16 = PERSON_AND_ORGANIZATION ( #18446744073709551615, #18446744073709551615 ) ;
#17 = PRODUCT_DEFINITION_FORMATION_WITH_SPECIFIED_SOURCE ( 'Symmetric', '', #127, .NOT_KNOWN. ) ;
#18 = PERSON_AND_ORGANIZATION_ROLE ( 'creator' ) ;
#19 = CC_DESIGN_DATE_AND_TIME_ASSIGNMENT ( #128, #115, ( #22 ) ) ;
#20 = COORDINATED_UNIVERSAL_TIME_OFFSET ( 10, 0, .AHEAD. ) ;
#21 = COORDINATED_UNIVERSAL_TIME_OFFSET ( 10, 0, .AHEAD. ) ;
#22 = SECURITY_CLASSIFICATION ( '', '', #193 ) ;
#23 = PERSON_AND_ORGANIZATION_ROLE ( 'design_supplier' ) ;
#24 = PRODUCT_DEFINITION ( 'General', '', #17, #93 ) ;
#25 = PROPERTY_DEFINITION ('document property','', #202 ) ;
#26 = CARTESIAN_POINT ( 'NONE',  ( 12.70000176999000452, 9.400005615233999023, 0.000000000000000000 ) ) ;
#27 = PERSON_AND_ORGANIZATION_ROLE ( 'classification_officer' ) ;
#28 = APPROVAL_ROLE ( '' ) ;
#29 = PERSON_AND_ORGANIZATION_ROLE ( 'design_owner' ) ;
#30 = APPROVAL_ROLE ( '' ) ;
#31 = UNCERTAINTY_MEASURE_WITH_UNIT (LENGTH_MEASURE( 1.000000000000000082E-05 ), #51, 'distance_accuracy_value', 'NONE');
#32 = AXIS2_PLACEMENT_3D ( 'NONE', #74, #9, #151 ) ;
#33 = DATE_AND_TIME ( #180, #118 ) ;
#34 = APPROVAL_ROLE ( '' ) ;
#35 = CALENDAR_DATE ( 2026, 22, 6 ) ;
#36 =( NAMED_UNIT ( * ) PLANE_ANGLE_UNIT ( ) SI_UNIT ( $, .RADIAN. ) );
#37 = PRODUCT_DEFINITION_FORMATION_WITH_SPECIFIED_SOURCE ( 'Symmetric', '', #142, .NOT_KNOWN. ) ;
#38 = SECURITY_CLASSIFICATION_LEVEL ( 'unclassified' ) ;
#39 =( NAMED_UNIT ( * ) SI_UNIT ( $, .STERADIAN. ) SOLID_ANGLE_UNIT ( ) );
#40 = LOCAL_TIME ( 18, 49, 57.00000000000000000, #178 ) ;
#41 = SHAPE_DEFINITION_REPRESENTATION ( #90, #131 ) ;
#42 = PERSON_AND_ORGANIZATION_ROLE ( 'design_owner' ) ;
#43 = PERSON_AND_ORGANIZATION_ROLE ( 'design_supplier' ) ;
#44 = CC_DESIGN_DATE_AND_TIME_ASSIGNMENT ( #112, #77, ( #5 ) ) ;
#45 = APPROVAL_PERSON_ORGANIZATION ( #14, #11, #113 ) ;
#46 = DATE_TIME_ROLE ( 'creation_date' ) ;
#47 = CC_DESIGN_APPROVAL ( #163, ( #22 ) ) ;
#48 = COORDINATED_UNIVERSAL_TIME_OFFSET ( 10, 0, .AHEAD. ) ;
#49 = PERSON_AND_ORGANIZATION_ROLE ( 'classification_officer' ) ;
#50 = CC_DESIGN_PERSON_AND_ORGANIZATION_ASSIGNMENT ( #174, #29, ( #127 ) ) ;
#51 =( LENGTH_UNIT ( ) NAMED_UNIT ( * ) SI_UNIT ( .MILLI., .METRE. ) );
#52 = DATE_AND_TIME ( #157, #87 ) ;
#53 = ITEM_DEFINED_TRANSFORMATION ( 'NONE', 'NONE', #214,  #64 ) ;
#54 = LOCAL_TIME ( 18, 49, 57.00000000000000000, #148 ) ;
#55 = DIRECTION ( 'NONE',  ( 0.000000000000000000, 0.000000000000000000, 1.000000000000000000 ) ) ;
#56 = PRODUCT_RELATED_PRODUCT_CATEGORY ( 'detail', '', ( #142 ) ) ;
#57 = PROPERTY_DEFINITION ('external definition','', #202 ) ;
#58 = APPLICATION_PROTOCOL_DEFINITION ( 'international standard', 'config_control_design', 1994, #120 ) ;
#59 = CC_DESIGN_APPROVAL ( #182, ( #17 ) ) ;
#60 = APPLICATION_PROTOCOL_DEFINITION ( 'international standard', 'config_control_design', 1994, #197 ) ;
#61 = PERSON_AND_ORGANIZATION ( #18446744073709551615, #18446744073709551615 ) ;
#62 = APPROVAL_STATUS ( 'not_yet_approved' ) ;
#63 = COORDINATED_UNIVERSAL_TIME_OFFSET ( 10, 0, .AHEAD. ) ;
#64 = AXIS2_PLACEMENT_3D ( 'NONE', #109, #55, #73 ) ;
#65 = APPROVAL_STATUS ( 'not_yet_approved' ) ;
#66 = APPLICATION_CONTEXT ( 'configuration controlled 3d designs of mechanical parts and assemblies' ) ;
#67 = CC_DESIGN_APPROVAL ( #181, ( #37 ) ) ;
#68 = DESIGN_CONTEXT ( 'detailed design', #187, 'design' ) ;
#69 = PERSON_AND_ORGANIZATION ( #211, #177 ) ;
#70 = LOCAL_TIME ( 18, 49, 57.00000000000000000, #63 ) ;
#71 = SHAPE_DEFINITION_REPRESENTATION ( #108, #161 ) ;
#72 = CALENDAR_DATE ( 2026, 22, 6 ) ;
#73 = DIRECTION ( 'NONE',  ( 1.000000000000000000, 0.000000000000000000, 0.000000000000000000 ) ) ;
#74 = CARTESIAN_POINT ( 'NONE',  ( 0.000000000000000000, 0.000000000000000000, 0.000000000000000000 ) ) ;
#75 = APPROVAL_PERSON_ORGANIZATION ( #69, #119, #4 ) ;
#76 = MECHANICAL_CONTEXT ( 'NONE', #197, 'mechanical' ) ;
#77 = DATE_TIME_ROLE ( 'creation_date' ) ;
#78 = CALENDAR_DATE ( 2026, 22, 6 ) ;
#79 = APPROVAL_DATE_TIME ( #114, #11 ) ;
#80 = CC_DESIGN_DATE_AND_TIME_ASSIGNMENT ( #153, #196, ( #168 ) ) ;
#81 = PERSON_AND_ORGANIZATION ( #18446744073709551615, #18446744073709551615 ) ;
#82 = CC_DESIGN_APPROVAL ( #119, ( #168 ) ) ;
#83 = CC_DESIGN_APPROVAL ( #125, ( #5 ) ) ;
#84 = DATE_AND_TIME ( #35, #102 ) ;
#85 = EXTERNAL_SOURCE (IDENTIFIER('') ) ;
#86 = PERSON_AND_ORGANIZATION_ROLE ( 'classification_officer' ) ;
#87 = LOCAL_TIME ( 18, 49, 57.00000000000000000, #203 ) ;
#88 = DATE_AND_TIME ( #141, #192 ) ;
#89 =( NAMED_UNIT ( * ) PLANE_ANGLE_UNIT ( ) SI_UNIT ( $, .RADIAN. ) );
#90 = PRODUCT_DEFINITION_SHAPE ( 'NONE', 'NONE',  #24 ) ;
#91 = CC_DESIGN_PERSON_AND_ORGANIZATION_ASSIGNMENT ( #146, #13, ( #5 ) ) ;
#92 = LOCAL_TIME ( 18, 49, 57.00000000000000000, #129 ) ;
#93 = DESIGN_CONTEXT ( 'detailed design', #66, 'design' ) ;
#94 = DIRECTION ( 'NONE',  ( 4.890937612370273194E-29, -3.155443620884047222E-30, 0.9999999999999997780 ) ) ;
#95 = PERSON_AND_ORGANIZATION ( #18446744073709551615, #18446744073709551615 ) ;
#96 = LOCAL_TIME ( 18, 49, 57.00000000000000000, #191 ) ;
#97 = CALENDAR_DATE ( 2026, 22, 6 ) ;
#98 = APPLICATION_PROTOCOL_DEFINITION ( 'international standard', 'config_control_design', 1994, #66 ) ;
#99 = APPROVAL ( #172, 'Coincident' ) ;
#100 = PERSON_AND_ORGANIZATION ( #18446744073709551615, #18446744073709551615 ) ;
#101 = DOCUMENT_TYPE ( 'geometry' ) ;
#102 = LOCAL_TIME ( 18, 49, 57.00000000000000000, #21 ) ;
#103 = APPROVAL_STATUS ( 'not_yet_approved' ) ;
#104 = LOCAL_TIME ( 18, 49, 57.00000000000000000, #121 ) ;
#105 = CC_DESIGN_PERSON_AND_ORGANIZATION_ASSIGNMENT ( #61, #164, ( #17 ) ) ;
#106 = CC_DESIGN_SECURITY_CLASSIFICATION ( #22, ( #17 ) ) ;
#107 = APPROVAL_DATE_TIME ( #135, #181 ) ;
#108 = PRODUCT_DEFINITION_SHAPE ( 'NONE', 'NONE',  #5 ) ;
#109 = CARTESIAN_POINT ( 'NONE',  ( 0.000000000000000000, 0.000000000000000000, 0.000000000000000000 ) ) ;
#110 = CC_DESIGN_APPROVAL ( #11, ( #24 ) ) ;
#111 =( NAMED_UNIT ( * ) SI_UNIT ( $, .STERADIAN. ) SOLID_ANGLE_UNIT ( ) );
#112 = DATE_AND_TIME ( #189, #205 ) ;
#113 = APPROVAL_ROLE ( '' ) ;
#114 = DATE_AND_TIME ( #97, #92 ) ;
#115 = DATE_TIME_ROLE ( 'classification_date' ) ;
#116 = PERSON_AND_ORGANIZATION_ROLE ( 'creator' ) ;
#117 = CONTEXT_DEPENDENT_SHAPE_REPRESENTATION ( #144, #186 ) ;
#118 = LOCAL_TIME ( 18, 49, 57.00000000000000000, #150 ) ;
#119 = APPROVAL ( #170, 'UNKNOWN' ) ;
#120 = APPLICATION_CONTEXT ( 'configuration controlled 3d designs of mechanical parts and assemblies' ) ;
#121 = COORDINATED_UNIVERSAL_TIME_OFFSET ( 10, 0, .AHEAD. ) ;
#122 = ROLE_ASSOCIATION ( #10, #6 ) ;
#123 =( GEOMETRIC_REPRESENTATION_CONTEXT ( 3 ) GLOBAL_UNCERTAINTY_ASSIGNED_CONTEXT ( ( #145 ) ) GLOBAL_UNIT_ASSIGNED_CONTEXT ( ( #126, #89, #111 ) ) REPRESENTATION_CONTEXT ( 'NONE', 'WORKASPACE' ) );
#124 = DATE_TIME_ROLE ( 'classification_date' ) ;
#125 = APPROVAL ( #62, 'Coincident' ) ;
#126 =( LENGTH_UNIT ( ) NAMED_UNIT ( * ) SI_UNIT ( .MILLI., .METRE. ) );
#127 = PRODUCT ( 'L13.step', 'L13.step', '', ( #188 ) ) ;
#128 = DATE_AND_TIME ( #132, #70 ) ;
#129 = COORDINATED_UNIVERSAL_TIME_OFFSET ( 10, 0, .AHEAD. ) ;
#130 = PERSON_AND_ORGANIZATION ( #18446744073709551615, #18446744073709551615 ) ;
#131 = SHAPE_REPRESENTATION ( 'L13.step', ( #32, #214 ), #198 ) ;
#132 = CALENDAR_DATE ( 2026, 22, 6 ) ;
#133 = PRODUCT_RELATED_PRODUCT_CATEGORY ( 'detail', '', ( #127 ) ) ;
#134 = DATE_AND_TIME ( #162, #96 ) ;
#135 = DATE_AND_TIME ( #72, #54 ) ;
#136 = CC_DESIGN_PERSON_AND_ORGANIZATION_ASSIGNMENT ( #201, #86, ( #160 ) ) ;
#137 = SECURITY_CLASSIFICATION_LEVEL ( 'unclassified' ) ;
#138 = APPROVAL_PERSON_ORGANIZATION ( #100, #182, #30 ) ;
#139 = PROPERTY_DEFINITION_REPRESENTATION ( #25, #161 ) ;
#140 = PERSON_AND_ORGANIZATION ( #18446744073709551615, #18446744073709551615 ) ;
#141 = CALENDAR_DATE ( 2026, 22, 6 ) ;
#142 = PRODUCT ( '11552552384.step', '11552552384.step', '', ( #76 ) ) ;
#143 = CC_DESIGN_SECURITY_CLASSIFICATION ( #160, ( #37 ) ) ;
#144 =( REPRESENTATION_RELATIONSHIP ('NONE','NONE', #131, #161 ) REPRESENTATION_RELATIONSHIP_WITH_TRANSFORMATION ( #53 )SHAPE_REPRESENTATION_RELATIONSHIP( ) );
#145 = UNCERTAINTY_MEASURE_WITH_UNIT (LENGTH_MEASURE( 1.000000000000000082E-05 ), #126, 'distance_accuracy_value', 'NONE');
#146 = PERSON_AND_ORGANIZATION ( #18446744073709551615, #18446744073709551615 ) ;
#147 = APPROVAL_PERSON_ORGANIZATION ( #179, #163, #28 ) ;
#148 = COORDINATED_UNIVERSAL_TIME_OFFSET ( 10, 0, .AHEAD. ) ;
#149 = APPROVAL_STATUS ( 'not_yet_approved' ) ;
#150 = COORDINATED_UNIVERSAL_TIME_OFFSET ( 10, 0, .AHEAD. ) ;
#151 = DIRECTION ( 'NONE',  ( 1.000000000000000000, 0.000000000000000000, 0.000000000000000000 ) ) ;
#152 = APPROVAL_PERSON_ORGANIZATION ( #95, #181, #159 ) ;
#153 = DATE_AND_TIME ( #156, #104 ) ;
#154 = IDENTIFICATION_ROLE ( 'external document id and location', $) ;
#155 = LOCAL_TIME ( 18, 49, 57.00000000000000000, #48 ) ;
#156 = CALENDAR_DATE ( 2026, 22, 6 ) ;
#157 = CALENDAR_DATE ( 2026, 22, 6 ) ;
#158 = CC_DESIGN_PERSON_AND_ORGANIZATION_ASSIGNMENT ( #165, #42, ( #142 ) ) ;
#159 = APPROVAL_ROLE ( '' ) ;
#160 = SECURITY_CLASSIFICATION ( '', '', #137 ) ;
#161 = SHAPE_REPRESENTATION ( '11552552384.step', ( #64 ), #123 ) ;
#162 = CALENDAR_DATE ( 2026, 22, 6 ) ;
#163 = APPROVAL ( #190, 'Coincident' ) ;
#164 = PERSON_AND_ORGANIZATION_ROLE ( 'creator' ) ;
#165 = PERSON_AND_ORGANIZATION ( #18446744073709551615, #18446744073709551615 ) ;
#166 = CC_DESIGN_PERSON_AND_ORGANIZATION_ASSIGNMENT ( #169, #18, ( #37 ) ) ;
#167 = DATE_AND_TIME ( #213, #40 ) ;
#168 = SECURITY_CLASSIFICATION ( '', '', #38 ) ;
#169 = PERSON_AND_ORGANIZATION ( #18446744073709551615, #18446744073709551615 ) ;
#170 = APPROVAL_STATUS ( 'not_yet_approved' ) ;
#171 = APPROVAL_PERSON_ORGANIZATION ( #185, #99, #34 ) ;
#172 = APPROVAL_STATUS ( 'not_yet_approved' ) ;
#173 = CC_DESIGN_DATE_AND_TIME_ASSIGNMENT ( #88, #124, ( #160 ) ) ;
#174 = PERSON_AND_ORGANIZATION ( #18446744073709551615, #18446744073709551615 ) ;
#175 = DATE_AND_TIME ( #78, #155 ) ;
#176 = APPROVAL_DATE_TIME ( #134, #125 ) ;
#177 = ORGANIZATION ( 'NAUO-ORG188', 'UNSPECIFIED', 'UNSPECIFIED' ) ;
#178 = COORDINATED_UNIVERSAL_TIME_OFFSET ( 10, 0, .AHEAD. ) ;
#179 = PERSON_AND_ORGANIZATION ( #18446744073709551615, #18446744073709551615 ) ;
#180 = CALENDAR_DATE ( 2026, 22, 6 ) ;
#181 = APPROVAL ( #149, 'Coincident' ) ;
#182 = APPROVAL ( #103, 'Coincident' ) ;
#183 = APPROVAL_PERSON_ORGANIZATION ( #16, #125, #1 ) ;
#184 = CC_DESIGN_SECURITY_CLASSIFICATION ( #168, ( #215 ) ) ;
#185 = PERSON_AND_ORGANIZATION ( #18446744073709551615, #18446744073709551615 ) ;
#186 = PRODUCT_DEFINITION_SHAPE ( 'NONE', 'NONE',  #215 ) ;
#187 = APPLICATION_CONTEXT ( 'configuration controlled 3d designs of mechanical parts and assemblies' ) ;
#188 = MECHANICAL_CONTEXT ( 'NONE', #120, 'mechanical' ) ;
#189 = CALENDAR_DATE ( 2026, 22, 6 ) ;
#190 = APPROVAL_STATUS ( 'not_yet_approved' ) ;
#191 = COORDINATED_UNIVERSAL_TIME_OFFSET ( 10, 0, .AHEAD. ) ;
#192 = LOCAL_TIME ( 18, 49, 57.00000000000000000, #20 ) ;
#193 = SECURITY_CLASSIFICATION_LEVEL ( 'unclassified' ) ;
#194 = APPROVAL_DATE_TIME ( #167, #182 ) ;
#195 = CC_DESIGN_DATE_AND_TIME_ASSIGNMENT ( #33, #46, ( #24 ) ) ;
#196 = DATE_TIME_ROLE ( 'classification_date' ) ;
#197 = APPLICATION_CONTEXT ( 'configuration controlled 3d designs of mechanical parts and assemblies' ) ;
#198 =( GEOMETRIC_REPRESENTATION_CONTEXT ( 3 ) GLOBAL_UNCERTAINTY_ASSIGNED_CONTEXT ( ( #31 ) ) GLOBAL_UNIT_ASSIGNED_CONTEXT ( ( #51, #36, #39 ) ) REPRESENTATION_CONTEXT ( 'NONE', 'WORKASPACE' ) );
#199 = CC_DESIGN_PERSON_AND_ORGANIZATION_ASSIGNMENT ( #69, #49, ( #168 ) ) ;
#200 = PROPERTY_DEFINITION_REPRESENTATION ( #57, #161 ) ;
#201 = PERSON_AND_ORGANIZATION ( #18446744073709551615, #18446744073709551615 ) ;
#202 = DOCUMENT_FILE ( '11552552384.step.STEP' , '', '', #101, '' ,$ ) ;
#203 = COORDINATED_UNIVERSAL_TIME_OFFSET ( 10, 0, .AHEAD. ) ;
#204 = DIRECTION ( 'NONE',  ( 1.000000000000000222, -1.092455418989176591E-28, 4.890937612370273194E-29 ) ) ;
#205 = LOCAL_TIME ( 18, 49, 57.00000000000000000, #208 ) ;
#206 = CC_DESIGN_APPROVAL ( #99, ( #160 ) ) ;
#207 = CC_DESIGN_PERSON_AND_ORGANIZATION_ASSIGNMENT ( #81, #43, ( #17 ) ) ;
#208 = COORDINATED_UNIVERSAL_TIME_OFFSET ( 10, 0, .AHEAD. ) ;
#209 = CC_DESIGN_PERSON_AND_ORGANIZATION_ASSIGNMENT ( #130, #116, ( #24 ) ) ;
#210 = PERSON_AND_ORGANIZATION ( #18446744073709551615, #18446744073709551615 ) ;
#211 = PERSON ( 'NAUO-PER188', 'UNSPECIFIED', 'UNSPECIFIED', ('UNSPECIFIED'), ('UNSPECIFIED'), ('UNSPECIFIED') ) ;
#212 = APPROVAL_DATE_TIME ( #175, #163 ) ;
#213 = CALENDAR_DATE ( 2026, 22, 6 ) ;
#214 = AXIS2_PLACEMENT_3D ( 'NONE', #26, #94, #204 ) ;
#215 = NEXT_ASSEMBLY_USAGE_OCCURRENCE ( 'NAUO188', ' ', ' ', #24, #5, $ ) ;
ENDSEC;
END-ISO-10303-21;
