ISO-10303-21;
HEADER;
FILE_DESCRIPTION (( 'STEP AP203' ),
    '1' );
FILE_NAME ('L15.step.STEP',
    '2026-06-22T08:49:58',
    ( 'localuser' ),
    ( '' ),
    'SwSTEP 2.0',
    'SolidWorks 2025',
    '' );
FILE_SCHEMA (( 'CONFIG_CONTROL_DESIGN' ));
ENDSEC;

DATA;
#1 =( NAMED_UNIT ( * ) PLANE_ANGLE_UNIT ( ) SI_UNIT ( $, .RADIAN. ) );
#2 = APPROVAL_ROLE ( '' ) ;
#3 = DATE_AND_TIME ( #32, #146 ) ;
#4 = CC_DESIGN_PERSON_AND_ORGANIZATION_ASSIGNMENT ( #111, #137, ( #78 ) ) ;
#5 = PERSON_AND_ORGANIZATION_ROLE ( 'creator' ) ;
#6 = LOCAL_TIME ( 18, 49, 58.00000000000000000, #204 ) ;
#7 = PERSON_AND_ORGANIZATION ( #18446744073709551615, #18446744073709551615 ) ;
#8 = DATE_AND_TIME ( #34, #151 ) ;
#9 = APPROVAL_PERSON_ORGANIZATION ( #111, #64, #157 ) ;
#10 = PROPERTY_DEFINITION_REPRESENTATION ( #108, #53 ) ;
#11 = APPLICATION_CONTEXT ( 'configuration controlled 3d designs of mechanical parts and assemblies' ) ;
#12 = APPLICATION_PROTOCOL_DEFINITION ( 'international standard', 'config_control_design', 1994, #74 ) ;
#13 = PERSON_AND_ORGANIZATION ( #18446744073709551615, #18446744073709551615 ) ;
#14 = APPROVAL_PERSON_ORGANIZATION ( #107, #197, #134 ) ;
#15 = CC_DESIGN_PERSON_AND_ORGANIZATION_ASSIGNMENT ( #129, #135, ( #27 ) ) ;
#16 = SECURITY_CLASSIFICATION_LEVEL ( 'unclassified' ) ;
#17 = PERSON_AND_ORGANIZATION_ROLE ( 'classification_officer' ) ;
#18 = EXTERNAL_SOURCE (IDENTIFIER('') ) ;
#19 = COORDINATED_UNIVERSAL_TIME_OFFSET ( 10, 0, .AHEAD. ) ;
#20 = CC_DESIGN_DATE_AND_TIME_ASSIGNMENT ( #50, #184, ( #173 ) ) ;
#21 = DATE_AND_TIME ( #117, #132 ) ;
#22 = APPROVAL_ROLE ( '' ) ;
#23 = DATE_TIME_ROLE ( 'classification_date' ) ;
#24 = PROPERTY_DEFINITION ('external definition','', #213 ) ;
#25 =( NAMED_UNIT ( * ) PLANE_ANGLE_UNIT ( ) SI_UNIT ( $, .RADIAN. ) );
#26 =( REPRESENTATION_RELATIONSHIP ('NONE','NONE', #93, #53 ) REPRESENTATION_RELATIONSHIP_WITH_TRANSFORMATION ( #192 )SHAPE_REPRESENTATION_RELATIONSHIP( ) );
#27 = PRODUCT_DEFINITION_FORMATION_WITH_SPECIFIED_SOURCE ( 'Symmetric', '', #123, .NOT_KNOWN. ) ;
#28 = CC_DESIGN_DATE_AND_TIME_ASSIGNMENT ( #3, #200, ( #145 ) ) ;
#29 = DIRECTION ( 'NONE',  ( 1.000000000000000000, 0.000000000000000000, 0.000000000000000000 ) ) ;
#30 = PERSON_AND_ORGANIZATION ( #18446744073709551615, #18446744073709551615 ) ;
#31 = CALENDAR_DATE ( 2026, 22, 6 ) ;
#32 = CALENDAR_DATE ( 2026, 22, 6 ) ;
#33 = PERSON_AND_ORGANIZATION_ROLE ( 'creator' ) ;
#34 = CALENDAR_DATE ( 2026, 22, 6 ) ;
#35 = COORDINATED_UNIVERSAL_TIME_OFFSET ( 10, 0, .AHEAD. ) ;
#36 = APPROVAL_DATE_TIME ( #210, #88 ) ;
#37 = LOCAL_TIME ( 18, 49, 58.00000000000000000, #69 ) ;
#38 = CONTEXT_DEPENDENT_SHAPE_REPRESENTATION ( #26, #89 ) ;
#39 = APPROVAL ( #104, 'Coincident' ) ;
#40 = SECURITY_CLASSIFICATION_LEVEL ( 'unclassified' ) ;
#41 = UNCERTAINTY_MEASURE_WITH_UNIT (LENGTH_MEASURE( 1.000000000000000082E-05 ), #42, 'distance_accuracy_value', 'NONE');
#42 =( LENGTH_UNIT ( ) NAMED_UNIT ( * ) SI_UNIT ( .MILLI., .METRE. ) );
#43 = LOCAL_TIME ( 18, 49, 58.00000000000000000, #161 ) ;
#44 = PERSON ( 'NAUO-PER202', 'UNSPECIFIED', 'UNSPECIFIED', ('UNSPECIFIED'), ('UNSPECIFIED'), ('UNSPECIFIED') ) ;
#45 = PERSON_AND_ORGANIZATION ( #18446744073709551615, #18446744073709551615 ) ;
#46 = IDENTIFICATION_ROLE ( 'external document id and location', $) ;
#47 = PERSON_AND_ORGANIZATION ( #18446744073709551615, #18446744073709551615 ) ;
#48 = PERSON_AND_ORGANIZATION_ROLE ( 'creator' ) ;
#49 = APPROVAL_ROLE ( '' ) ;
#50 = DATE_AND_TIME ( #119, #81 ) ;
#51 = APPROVAL ( #83, 'Coincident' ) ;
#52 = APPROVAL_PERSON_ORGANIZATION ( #130, #51, #22 ) ;
#53 = SHAPE_REPRESENTATION ( '11552552384.step', ( #121 ), #181 ) ;
#54 = CC_DESIGN_PERSON_AND_ORGANIZATION_ASSIGNMENT ( #82, #115, ( #214 ) ) ;
#55 = PRODUCT_DEFINITION_SHAPE ( 'NONE', 'NONE',  #145 ) ;
#56 = DATE_AND_TIME ( #126, #162 ) ;
#57 = CC_DESIGN_PERSON_AND_ORGANIZATION_ASSIGNMENT ( #47, #17, ( #173 ) ) ;
#58 = COORDINATED_UNIVERSAL_TIME_OFFSET ( 10, 0, .AHEAD. ) ;
#59 = APPROVAL_DATE_TIME ( #139, #70 ) ;
#60 = CC_DESIGN_SECURITY_CLASSIFICATION ( #78, ( #215 ) ) ;
#61 = APPLICATION_PROTOCOL_DEFINITION ( 'international standard', 'config_control_design', 1994, #63 ) ;
#62 = DIRECTION ( 'NONE',  ( 4.890937612370273194E-29, -3.155443620884047222E-30, 0.9999999999999997780 ) ) ;
#63 = APPLICATION_CONTEXT ( 'configuration controlled 3d designs of mechanical parts and assemblies' ) ;
#64 = APPROVAL ( #191, 'UNKNOWN' ) ;
#65 = DATE_TIME_ROLE ( 'creation_date' ) ;
#66 = PERSON_AND_ORGANIZATION ( #18446744073709551615, #18446744073709551615 ) ;
#67 = CC_DESIGN_APPROVAL ( #39, ( #167 ) ) ;
#68 = CALENDAR_DATE ( 2026, 22, 6 ) ;
#69 = COORDINATED_UNIVERSAL_TIME_OFFSET ( 10, 0, .AHEAD. ) ;
#70 = APPROVAL ( #194, 'Coincident' ) ;
#71 = APPROVAL_DATE_TIME ( #8, #51 ) ;
#72 = APPROVAL_PERSON_ORGANIZATION ( #124, #88, #211 ) ;
#73 = APPLIED_DOCUMENT_REFERENCE ( #213,'',( #167) ) ;
#74 = APPLICATION_CONTEXT ( 'configuration controlled 3d designs of mechanical parts and assemblies' ) ;
#75 = CALENDAR_DATE ( 2026, 22, 6 ) ;
#76 = CARTESIAN_POINT ( 'NONE',  ( 9.599999481171998639, 2.200001037598001030, 0.000000000000000000 ) ) ;
#77 = CC_DESIGN_APPROVAL ( #70, ( #145 ) ) ;
#78 = SECURITY_CLASSIFICATION ( '', '', #40 ) ;
#79 = CC_DESIGN_PERSON_AND_ORGANIZATION_ASSIGNMENT ( #30, #102, ( #123 ) ) ;
#80 = PRODUCT_RELATED_PRODUCT_CATEGORY ( 'detail', '', ( #123 ) ) ;
#81 = LOCAL_TIME ( 18, 49, 58.00000000000000000, #120 ) ;
#82 = PERSON_AND_ORGANIZATION ( #18446744073709551615, #18446744073709551615 ) ;
#83 = APPROVAL_STATUS ( 'not_yet_approved' ) ;
#84 = APPROVAL_DATE_TIME ( #207, #39 ) ;
#85 = APPROVAL_DATE_TIME ( #103, #212 ) ;
#86 = ORGANIZATION ( 'NAUO-ORG202', 'UNSPECIFIED', 'UNSPECIFIED' ) ;
#87 = COORDINATED_UNIVERSAL_TIME_OFFSET ( 10, 0, .AHEAD. ) ;
#88 = APPROVAL ( #209, 'Coincident' ) ;
#89 = PRODUCT_DEFINITION_SHAPE ( 'NONE', 'NONE',  #215 ) ;
#90 = PROPERTY_DEFINITION_REPRESENTATION ( #24, #53 ) ;
#91 = AXIS2_PLACEMENT_3D ( 'NONE', #159, #114, #29 ) ;
#92 = CALENDAR_DATE ( 2026, 22, 6 ) ;
#93 = SHAPE_REPRESENTATION ( 'L15.step', ( #91, #198 ), #116 ) ;
#94 = DIRECTION ( 'NONE',  ( 0.000000000000000000, 0.000000000000000000, 1.000000000000000000 ) ) ;
#95 = LOCAL_TIME ( 18, 49, 58.00000000000000000, #185 ) ;
#96 =( NAMED_UNIT ( * ) SI_UNIT ( $, .STERADIAN. ) SOLID_ANGLE_UNIT ( ) );
#97 = CC_DESIGN_APPROVAL ( #64, ( #78 ) ) ;
#98 =( NAMED_UNIT ( * ) SI_UNIT ( $, .STERADIAN. ) SOLID_ANGLE_UNIT ( ) );
#99 =( LENGTH_UNIT ( ) NAMED_UNIT ( * ) SI_UNIT ( .MILLI., .METRE. ) );
#100 = CC_DESIGN_PERSON_AND_ORGANIZATION_ASSIGNMENT ( #152, #147, ( #203 ) ) ;
#101 = CARTESIAN_POINT ( 'NONE',  ( 0.000000000000000000, 0.000000000000000000, 0.000000000000000000 ) ) ;
#102 = PERSON_AND_ORGANIZATION_ROLE ( 'design_owner' ) ;
#103 = DATE_AND_TIME ( #180, #95 ) ;
#104 = APPROVAL_STATUS ( 'not_yet_approved' ) ;
#105 = CC_DESIGN_APPROVAL ( #212, ( #203 ) ) ;
#106 = APPROVAL_DATE_TIME ( #21, #197 ) ;
#107 = PERSON_AND_ORGANIZATION ( #18446744073709551615, #18446744073709551615 ) ;
#108 = PROPERTY_DEFINITION ('document property','', #213 ) ;
#109 = APPROVAL_PERSON_ORGANIZATION ( #163, #212, #49 ) ;
#110 = APPLICATION_CONTEXT ( 'configuration controlled 3d designs of mechanical parts and assemblies' ) ;
#111 = PERSON_AND_ORGANIZATION ( #44, #86 ) ;
#112 = PERSON_AND_ORGANIZATION_ROLE ( 'design_owner' ) ;
#113 = CC_DESIGN_SECURITY_CLASSIFICATION ( #173, ( #203 ) ) ;
#114 = DIRECTION ( 'NONE',  ( 0.000000000000000000, 0.000000000000000000, 1.000000000000000000 ) ) ;
#115 = PERSON_AND_ORGANIZATION_ROLE ( 'classification_officer' ) ;
#116 =( GEOMETRIC_REPRESENTATION_CONTEXT ( 3 ) GLOBAL_UNCERTAINTY_ASSIGNED_CONTEXT ( ( #41 ) ) GLOBAL_UNIT_ASSIGNED_CONTEXT ( ( #42, #1, #96 ) ) REPRESENTATION_CONTEXT ( 'NONE', 'WORKASPACE' ) );
#117 = CALENDAR_DATE ( 2026, 22, 6 ) ;
#118 = CC_DESIGN_PERSON_AND_ORGANIZATION_ASSIGNMENT ( #66, #48, ( #145 ) ) ;
#119 = CALENDAR_DATE ( 2026, 22, 6 ) ;
#120 = COORDINATED_UNIVERSAL_TIME_OFFSET ( 10, 0, .AHEAD. ) ;
#121 = AXIS2_PLACEMENT_3D ( 'NONE', #101, #94, #143 ) ;
#122 = PERSON_AND_ORGANIZATION ( #18446744073709551615, #18446744073709551615 ) ;
#123 = PRODUCT ( '11552552384.step', '11552552384.step', '', ( #183 ) ) ;
#124 = PERSON_AND_ORGANIZATION ( #18446744073709551615, #18446744073709551615 ) ;
#125 = SHAPE_DEFINITION_REPRESENTATION ( #189, #53 ) ;
#126 = CALENDAR_DATE ( 2026, 22, 6 ) ;
#127 = PERSON_AND_ORGANIZATION ( #18446744073709551615, #18446744073709551615 ) ;
#128 = DESIGN_CONTEXT ( 'detailed design', #74, 'design' ) ;
#129 = PERSON_AND_ORGANIZATION ( #18446744073709551615, #18446744073709551615 ) ;
#130 = PERSON_AND_ORGANIZATION ( #18446744073709551615, #18446744073709551615 ) ;
#131 = CC_DESIGN_PERSON_AND_ORGANIZATION_ASSIGNMENT ( #13, #112, ( #136 ) ) ;
#132 = LOCAL_TIME ( 18, 49, 58.00000000000000000, #19 ) ;
#133 = DATE_AND_TIME ( #68, #6 ) ;
#134 = APPROVAL_ROLE ( '' ) ;
#135 = PERSON_AND_ORGANIZATION_ROLE ( 'creator' ) ;
#136 = PRODUCT ( 'L15.step', 'L15.step', '', ( #160 ) ) ;
#137 = PERSON_AND_ORGANIZATION_ROLE ( 'classification_officer' ) ;
#138 = CALENDAR_DATE ( 2026, 22, 6 ) ;
#139 = DATE_AND_TIME ( #75, #43 ) ;
#140 = CC_DESIGN_PERSON_AND_ORGANIZATION_ASSIGNMENT ( #45, #5, ( #167 ) ) ;
#141 = DATE_AND_TIME ( #169, #190 ) ;
#142 = APPROVAL_PERSON_ORGANIZATION ( #7, #39, #2 ) ;
#143 = DIRECTION ( 'NONE',  ( 1.000000000000000000, 0.000000000000000000, 0.000000000000000000 ) ) ;
#144 = DATE_TIME_ROLE ( 'classification_date' ) ;
#145 = PRODUCT_DEFINITION ( 'General', '', #203, #128 ) ;
#146 = LOCAL_TIME ( 18, 49, 58.00000000000000000, #164 ) ;
#147 = PERSON_AND_ORGANIZATION_ROLE ( 'design_supplier' ) ;
#148 = APPLICATION_PROTOCOL_DEFINITION ( 'international standard', 'config_control_design', 1994, #110 ) ;
#149 = DOCUMENT_TYPE ( 'geometry' ) ;
#150 = APPROVAL_STATUS ( 'not_yet_approved' ) ;
#151 = LOCAL_TIME ( 18, 49, 58.00000000000000000, #87 ) ;
#152 = PERSON_AND_ORGANIZATION ( #18446744073709551615, #18446744073709551615 ) ;
#153 = APPLICATION_PROTOCOL_DEFINITION ( 'international standard', 'config_control_design', 1994, #11 ) ;
#154 = CC_DESIGN_DATE_AND_TIME_ASSIGNMENT ( #133, #65, ( #167 ) ) ;
#155 = COORDINATED_UNIVERSAL_TIME_OFFSET ( 10, 0, .AHEAD. ) ;
#156 = PRODUCT_RELATED_PRODUCT_CATEGORY ( 'detail', '', ( #136 ) ) ;
#157 = APPROVAL_ROLE ( '' ) ;
#158 = CC_DESIGN_SECURITY_CLASSIFICATION ( #214, ( #27 ) ) ;
#159 = CARTESIAN_POINT ( 'NONE',  ( 0.000000000000000000, 0.000000000000000000, 0.000000000000000000 ) ) ;
#160 = MECHANICAL_CONTEXT ( 'NONE', #63, 'mechanical' ) ;
#161 = COORDINATED_UNIVERSAL_TIME_OFFSET ( 10, 0, .AHEAD. ) ;
#162 = LOCAL_TIME ( 18, 49, 58.00000000000000000, #35 ) ;
#163 = PERSON_AND_ORGANIZATION ( #18446744073709551615, #18446744073709551615 ) ;
#164 = COORDINATED_UNIVERSAL_TIME_OFFSET ( 10, 0, .AHEAD. ) ;
#165 = PERSON_AND_ORGANIZATION ( #18446744073709551615, #18446744073709551615 ) ;
#166 = SHAPE_DEFINITION_REPRESENTATION ( #55, #93 ) ;
#167 = PRODUCT_DEFINITION ( 'General', '', #27, #175 ) ;
#168 = APPROVAL_DATE_TIME ( #193, #64 ) ;
#169 = CALENDAR_DATE ( 2026, 22, 6 ) ;
#170 = COORDINATED_UNIVERSAL_TIME_OFFSET ( 10, 0, .AHEAD. ) ;
#171 = CC_DESIGN_PERSON_AND_ORGANIZATION_ASSIGNMENT ( #122, #188, ( #27 ) ) ;
#172 = ROLE_ASSOCIATION ( #201, #73 ) ;
#173 = SECURITY_CLASSIFICATION ( '', '', #202 ) ;
#174 = LOCAL_TIME ( 18, 49, 58.00000000000000000, #170 ) ;
#175 = DESIGN_CONTEXT ( 'detailed design', #11, 'design' ) ;
#176 = CC_DESIGN_PERSON_AND_ORGANIZATION_ASSIGNMENT ( #165, #33, ( #203 ) ) ;
#177 = APPLIED_EXTERNAL_IDENTIFICATION_ASSIGNMENT ( '11552552384.step.STEP' , #46, #18,( #213) ) ;
#178 = CC_DESIGN_DATE_AND_TIME_ASSIGNMENT ( #56, #144, ( #214 ) ) ;
#179 = APPROVAL_ROLE ( '' ) ;
#180 = CALENDAR_DATE ( 2026, 22, 6 ) ;
#181 =( GEOMETRIC_REPRESENTATION_CONTEXT ( 3 ) GLOBAL_UNCERTAINTY_ASSIGNED_CONTEXT ( ( #196 ) ) GLOBAL_UNIT_ASSIGNED_CONTEXT ( ( #99, #25, #98 ) ) REPRESENTATION_CONTEXT ( 'NONE', 'WORKASPACE' ) );
#182 = LOCAL_TIME ( 18, 49, 58.00000000000000000, #58 ) ;
#183 = MECHANICAL_CONTEXT ( 'NONE', #110, 'mechanical' ) ;
#184 = DATE_TIME_ROLE ( 'classification_date' ) ;
#185 = COORDINATED_UNIVERSAL_TIME_OFFSET ( 10, 0, .AHEAD. ) ;
#186 = APPROVAL_PERSON_ORGANIZATION ( #127, #70, #179 ) ;
#187 = CC_DESIGN_APPROVAL ( #88, ( #214 ) ) ;
#188 = PERSON_AND_ORGANIZATION_ROLE ( 'design_supplier' ) ;
#189 = PRODUCT_DEFINITION_SHAPE ( 'NONE', 'NONE',  #167 ) ;
#190 = LOCAL_TIME ( 18, 49, 58.00000000000000000, #155 ) ;
#191 = APPROVAL_STATUS ( 'not_yet_approved' ) ;
#192 = ITEM_DEFINED_TRANSFORMATION ( 'NONE', 'NONE', #198,  #121 ) ;
#193 = DATE_AND_TIME ( #92, #174 ) ;
#194 = APPROVAL_STATUS ( 'not_yet_approved' ) ;
#195 = DIRECTION ( 'NONE',  ( 1.000000000000000222, -1.092455418989176591E-28, 4.890937612370273194E-29 ) ) ;
#196 = UNCERTAINTY_MEASURE_WITH_UNIT (LENGTH_MEASURE( 1.000000000000000082E-05 ), #99, 'distance_accuracy_value', 'NONE');
#197 = APPROVAL ( #150, 'Coincident' ) ;
#198 = AXIS2_PLACEMENT_3D ( 'NONE', #76, #62, #195 ) ;
#199 = CC_DESIGN_APPROVAL ( #51, ( #27 ) ) ;
#200 = DATE_TIME_ROLE ( 'creation_date' ) ;
#201 = OBJECT_ROLE ('mandatory',$ ) ;
#202 = SECURITY_CLASSIFICATION_LEVEL ( 'unclassified' ) ;
#203 = PRODUCT_DEFINITION_FORMATION_WITH_SPECIFIED_SOURCE ( 'Symmetric', '', #136, .NOT_KNOWN. ) ;
#204 = COORDINATED_UNIVERSAL_TIME_OFFSET ( 10, 0, .AHEAD. ) ;
#205 = APPROVAL_STATUS ( 'not_yet_approved' ) ;
#206 = CC_DESIGN_DATE_AND_TIME_ASSIGNMENT ( #141, #23, ( #78 ) ) ;
#207 = DATE_AND_TIME ( #31, #37 ) ;
#208 = CC_DESIGN_APPROVAL ( #197, ( #173 ) ) ;
#209 = APPROVAL_STATUS ( 'not_yet_approved' ) ;
#210 = DATE_AND_TIME ( #138, #182 ) ;
#211 = APPROVAL_ROLE ( '' ) ;
#212 = APPROVAL ( #205, 'Coincident' ) ;
#213 = DOCUMENT_FILE ( '11552552384.step.STEP' , '', '', #149, '' ,$ ) ;
#214 = SECURITY_CLASSIFICATION ( '', '', #16 ) ;
#215 = NEXT_ASSEMBLY_USAGE_OCCURRENCE ( 'NAUO202', ' ', ' ', #145, #167, $ ) ;
ENDSEC;
END-ISO-10303-21;
