ISO-10303-21;
HEADER;
FILE_DESCRIPTION (( 'STEP AP203' ),
    '1' );
FILE_NAME ('L16.step.STEP',
    '2026-06-22T08:49:58',
    ( 'localuser' ),
    ( '' ),
    'SwSTEP 2.0',
    'SolidWorks 2025',
    '' );
FILE_SCHEMA (( 'CONFIG_CONTROL_DESIGN' ));
ENDSEC;

DATA;
#1 = DATE_AND_TIME ( #208, #71 ) ;
#2 = PERSON_AND_ORGANIZATION_ROLE ( 'classification_officer' ) ;
#3 = DATE_TIME_ROLE ( 'creation_date' ) ;
#4 = DATE_TIME_ROLE ( 'creation_date' ) ;
#5 = DATE_TIME_ROLE ( 'classification_date' ) ;
#6 = APPROVAL_STATUS ( 'not_yet_approved' ) ;
#7 = CALENDAR_DATE ( 2026, 22, 6 ) ;
#8 = DATE_TIME_ROLE ( 'classification_date' ) ;
#9 = DIRECTION ( 'NONE',  ( 1.000000000000000000, 0.000000000000000000, 0.000000000000000000 ) ) ;
#10 = DIRECTION ( 'NONE',  ( 4.890937612370273194E-29, -3.155443620884047222E-30, 0.9999999999999997780 ) ) ;
#11 = LOCAL_TIME ( 18, 49, 58.00000000000000000, #91 ) ;
#12 = APPROVAL ( #127, 'Coincident' ) ;
#13 = PERSON_AND_ORGANIZATION_ROLE ( 'creator' ) ;
#14 = CALENDAR_DATE ( 2026, 22, 6 ) ;
#15 = APPLICATION_CONTEXT ( 'configuration controlled 3d designs of mechanical parts and assemblies' ) ;
#16 = APPROVAL_DATE_TIME ( #69, #29 ) ;
#17 = CC_DESIGN_PERSON_AND_ORGANIZATION_ASSIGNMENT ( #133, #42, ( #188 ) ) ;
#18 = PERSON_AND_ORGANIZATION_ROLE ( 'design_owner' ) ;
#19 = COORDINATED_UNIVERSAL_TIME_OFFSET ( 10, 0, .AHEAD. ) ;
#20 = PROPERTY_DEFINITION ('external definition','', #132 ) ;
#21 = SECURITY_CLASSIFICATION_LEVEL ( 'unclassified' ) ;
#22 = CARTESIAN_POINT ( 'NONE',  ( 0.000000000000000000, 0.000000000000000000, 0.000000000000000000 ) ) ;
#23 = ITEM_DEFINED_TRANSFORMATION ( 'NONE', 'NONE', #64,  #68 ) ;
#24 = DIRECTION ( 'NONE',  ( 0.000000000000000000, 0.000000000000000000, 1.000000000000000000 ) ) ;
#25 = PERSON_AND_ORGANIZATION ( #18446744073709551615, #18446744073709551615 ) ;
#26 =( NAMED_UNIT ( * ) PLANE_ANGLE_UNIT ( ) SI_UNIT ( $, .RADIAN. ) );
#27 = APPLICATION_CONTEXT ( 'configuration controlled 3d designs of mechanical parts and assemblies' ) ;
#28 = PRODUCT_DEFINITION_FORMATION_WITH_SPECIFIED_SOURCE ( 'Symmetric', '', #188, .NOT_KNOWN. ) ;
#29 = APPROVAL ( #34, 'Coincident' ) ;
#30 = PERSON_AND_ORGANIZATION ( #18446744073709551615, #18446744073709551615 ) ;
#31 = DATE_AND_TIME ( #104, #82 ) ;
#32 = APPROVAL ( #6, 'UNKNOWN' ) ;
#33 = PERSON_AND_ORGANIZATION ( #18446744073709551615, #18446744073709551615 ) ;
#34 = APPROVAL_STATUS ( 'not_yet_approved' ) ;
#35 = LOCAL_TIME ( 18, 49, 58.00000000000000000, #93 ) ;
#36 = CALENDAR_DATE ( 2026, 22, 6 ) ;
#37 = CC_DESIGN_APPROVAL ( #148, ( #196 ) ) ;
#38 = APPROVAL ( #156, 'Coincident' ) ;
#39 = DESIGN_CONTEXT ( 'detailed design', #172, 'design' ) ;
#40 = DIRECTION ( 'NONE',  ( 1.000000000000000222, -1.092455418989176591E-28, 4.890937612370273194E-29 ) ) ;
#41 = CALENDAR_DATE ( 2026, 22, 6 ) ;
#42 = PERSON_AND_ORGANIZATION_ROLE ( 'design_owner' ) ;
#43 = APPROVAL_STATUS ( 'not_yet_approved' ) ;
#44 = CC_DESIGN_APPROVAL ( #54, ( #117 ) ) ;
#45 = ORGANIZATION ( 'NAUO-ORG201', 'UNSPECIFIED', 'UNSPECIFIED' ) ;
#46 = UNCERTAINTY_MEASURE_WITH_UNIT (LENGTH_MEASURE( 1.000000000000000082E-05 ), #80, 'distance_accuracy_value', 'NONE');
#47 =( NAMED_UNIT ( * ) SI_UNIT ( $, .STERADIAN. ) SOLID_ANGLE_UNIT ( ) );
#48 = CC_DESIGN_DATE_AND_TIME_ASSIGNMENT ( #149, #8, ( #99 ) ) ;
#49 = APPROVAL_DATE_TIME ( #167, #12 ) ;
#50 = SHAPE_DEFINITION_REPRESENTATION ( #94, #171 ) ;
#51 = PERSON_AND_ORGANIZATION_ROLE ( 'design_supplier' ) ;
#52 = MECHANICAL_CONTEXT ( 'NONE', #197, 'mechanical' ) ;
#53 = PERSON_AND_ORGANIZATION ( #18446744073709551615, #18446744073709551615 ) ;
#54 = APPROVAL ( #43, 'Coincident' ) ;
#55 = SECURITY_CLASSIFICATION ( '', '', #21 ) ;
#56 = CALENDAR_DATE ( 2026, 22, 6 ) ;
#57 = CC_DESIGN_DATE_AND_TIME_ASSIGNMENT ( #79, #211, ( #55 ) ) ;
#58 = PRODUCT ( '11552552384.step', '11552552384.step', '', ( #52 ) ) ;
#59 = PROPERTY_DEFINITION_REPRESENTATION ( #20, #87 ) ;
#60 = CC_DESIGN_PERSON_AND_ORGANIZATION_ASSIGNMENT ( #33, #2, ( #204 ) ) ;
#61 = DATE_AND_TIME ( #41, #134 ) ;
#62 = CC_DESIGN_DATE_AND_TIME_ASSIGNMENT ( #1, #4, ( #196 ) ) ;
#63 = CARTESIAN_POINT ( 'NONE',  ( 0.000000000000000000, 0.000000000000000000, 0.000000000000000000 ) ) ;
#64 = AXIS2_PLACEMENT_3D ( 'NONE', #194, #10, #40 ) ;
#65 = APPROVAL_PERSON_ORGANIZATION ( #157, #12, #187 ) ;
#66 = IDENTIFICATION_ROLE ( 'external document id and location', $) ;
#67 = CALENDAR_DATE ( 2026, 22, 6 ) ;
#68 = AXIS2_PLACEMENT_3D ( 'NONE', #22, #152, #9 ) ;
#69 = DATE_AND_TIME ( #14, #11 ) ;
#70 = APPROVAL_DATE_TIME ( #31, #38 ) ;
#71 = LOCAL_TIME ( 18, 49, 58.00000000000000000, #182 ) ;
#72 = CALENDAR_DATE ( 2026, 22, 6 ) ;
#73 = APPROVAL_ROLE ( '' ) ;
#74 = CC_DESIGN_PERSON_AND_ORGANIZATION_ASSIGNMENT ( #200, #147, ( #117 ) ) ;
#75 = APPLICATION_PROTOCOL_DEFINITION ( 'international standard', 'config_control_design', 1994, #172 ) ;
#76 = PROPERTY_DEFINITION_REPRESENTATION ( #111, #87 ) ;
#77 = PERSON_AND_ORGANIZATION ( #213, #45 ) ;
#78 = APPROVAL_PERSON_ORGANIZATION ( #77, #32, #189 ) ;
#79 = DATE_AND_TIME ( #7, #199 ) ;
#80 =( LENGTH_UNIT ( ) NAMED_UNIT ( * ) SI_UNIT ( .MILLI., .METRE. ) );
#81 = CC_DESIGN_APPROVAL ( #38, ( #28 ) ) ;
#82 = LOCAL_TIME ( 18, 49, 58.00000000000000000, #184 ) ;
#83 = APPROVAL_PERSON_ORGANIZATION ( #115, #100, #193 ) ;
#84 = CC_DESIGN_DATE_AND_TIME_ASSIGNMENT ( #164, #5, ( #204 ) ) ;
#85 = PRODUCT_RELATED_PRODUCT_CATEGORY ( 'detail', '', ( #58 ) ) ;
#86 =( GEOMETRIC_REPRESENTATION_CONTEXT ( 3 ) GLOBAL_UNCERTAINTY_ASSIGNED_CONTEXT ( ( #136 ) ) GLOBAL_UNIT_ASSIGNED_CONTEXT ( ( #101, #174, #47 ) ) REPRESENTATION_CONTEXT ( 'NONE', 'WORKASPACE' ) );
#87 = SHAPE_REPRESENTATION ( '11552552384.step', ( #68 ), #86 ) ;
#88 = SECURITY_CLASSIFICATION_LEVEL ( 'unclassified' ) ;
#89 = APPROVAL_ROLE ( '' ) ;
#90 = COORDINATED_UNIVERSAL_TIME_OFFSET ( 10, 0, .AHEAD. ) ;
#91 = COORDINATED_UNIVERSAL_TIME_OFFSET ( 10, 0, .AHEAD. ) ;
#92 = PERSON_AND_ORGANIZATION ( #18446744073709551615, #18446744073709551615 ) ;
#93 = COORDINATED_UNIVERSAL_TIME_OFFSET ( 10, 0, .AHEAD. ) ;
#94 = PRODUCT_DEFINITION_SHAPE ( 'NONE', 'NONE',  #117 ) ;
#95 = APPROVAL_PERSON_ORGANIZATION ( #143, #148, #89 ) ;
#96 = DATE_AND_TIME ( #56, #35 ) ;
#97 = LOCAL_TIME ( 18, 49, 58.00000000000000000, #19 ) ;
#98 = APPLICATION_PROTOCOL_DEFINITION ( 'international standard', 'config_control_design', 1994, #15 ) ;
#99 = SECURITY_CLASSIFICATION ( '', '', #88 ) ;
#100 = APPROVAL ( #112, 'Coincident' ) ;
#101 =( LENGTH_UNIT ( ) NAMED_UNIT ( * ) SI_UNIT ( .MILLI., .METRE. ) );
#102 = CC_DESIGN_PERSON_AND_ORGANIZATION_ASSIGNMENT ( #185, #126, ( #28 ) ) ;
#103 = APPLIED_EXTERNAL_IDENTIFICATION_ASSIGNMENT ( '11552552384.step.STEP' , #66, #190,( #132) ) ;
#104 = CALENDAR_DATE ( 2026, 22, 6 ) ;
#105 = DATE_AND_TIME ( #205, #97 ) ;
#106 = COORDINATED_UNIVERSAL_TIME_OFFSET ( 10, 0, .AHEAD. ) ;
#107 = APPROVAL_PERSON_ORGANIZATION ( #206, #29, #179 ) ;
#108 = APPROVAL_DATE_TIME ( #159, #148 ) ;
#109 = LOCAL_TIME ( 18, 49, 58.00000000000000000, #110 ) ;
#110 = COORDINATED_UNIVERSAL_TIME_OFFSET ( 10, 0, .AHEAD. ) ;
#111 = PROPERTY_DEFINITION ('document property','', #132 ) ;
#112 = APPROVAL_STATUS ( 'not_yet_approved' ) ;
#113 = APPROVAL_PERSON_ORGANIZATION ( #25, #54, #116 ) ;
#114 = CC_DESIGN_APPROVAL ( #32, ( #55 ) ) ;
#115 = PERSON_AND_ORGANIZATION ( #18446744073709551615, #18446744073709551615 ) ;
#116 = APPROVAL_ROLE ( '' ) ;
#117 = PRODUCT_DEFINITION ( 'General', '', #28, #177 ) ;
#118 = APPLICATION_PROTOCOL_DEFINITION ( 'international standard', 'config_control_design', 1994, #27 ) ;
#119 = COORDINATED_UNIVERSAL_TIME_OFFSET ( 10, 0, .AHEAD. ) ;
#120 =( NAMED_UNIT ( * ) SI_UNIT ( $, .STERADIAN. ) SOLID_ANGLE_UNIT ( ) );
#121 = CALENDAR_DATE ( 2026, 22, 6 ) ;
#122 = LOCAL_TIME ( 18, 49, 58.00000000000000000, #119 ) ;
#123 = CC_DESIGN_SECURITY_CLASSIFICATION ( #55, ( #215 ) ) ;
#124 = APPROVAL_STATUS ( 'not_yet_approved' ) ;
#125 = CC_DESIGN_PERSON_AND_ORGANIZATION_ASSIGNMENT ( #139, #51, ( #28 ) ) ;
#126 = PERSON_AND_ORGANIZATION_ROLE ( 'creator' ) ;
#127 = APPROVAL_STATUS ( 'not_yet_approved' ) ;
#128 = PERSON_AND_ORGANIZATION_ROLE ( 'design_supplier' ) ;
#129 = APPROVAL_DATE_TIME ( #96, #32 ) ;
#130 = PRODUCT_DEFINITION_SHAPE ( 'NONE', 'NONE',  #215 ) ;
#131 = COORDINATED_UNIVERSAL_TIME_OFFSET ( 10, 0, .AHEAD. ) ;
#132 = DOCUMENT_FILE ( '11552552384.step.STEP' , '', '', #135, '' ,$ ) ;
#133 = PERSON_AND_ORGANIZATION ( #18446744073709551615, #18446744073709551615 ) ;
#134 = LOCAL_TIME ( 18, 49, 58.00000000000000000, #191 ) ;
#135 = DOCUMENT_TYPE ( 'geometry' ) ;
#136 = UNCERTAINTY_MEASURE_WITH_UNIT (LENGTH_MEASURE( 1.000000000000000082E-05 ), #101, 'distance_accuracy_value', 'NONE');
#137 = DATE_AND_TIME ( #67, #122 ) ;
#138 = PERSON_AND_ORGANIZATION_ROLE ( 'classification_officer' ) ;
#139 = PERSON_AND_ORGANIZATION ( #18446744073709551615, #18446744073709551615 ) ;
#140 = CC_DESIGN_DATE_AND_TIME_ASSIGNMENT ( #105, #3, ( #117 ) ) ;
#141 = CC_DESIGN_APPROVAL ( #29, ( #204 ) ) ;
#142 = PERSON_AND_ORGANIZATION_ROLE ( 'creator' ) ;
#143 = PERSON_AND_ORGANIZATION ( #18446744073709551615, #18446744073709551615 ) ;
#144 = CALENDAR_DATE ( 2026, 22, 6 ) ;
#145 = PRODUCT_DEFINITION_SHAPE ( 'NONE', 'NONE',  #196 ) ;
#146 = SHAPE_DEFINITION_REPRESENTATION ( #145, #87 ) ;
#147 = PERSON_AND_ORGANIZATION_ROLE ( 'creator' ) ;
#148 = APPROVAL ( #124, 'Coincident' ) ;
#149 = DATE_AND_TIME ( #121, #170 ) ;
#150 = PERSON_AND_ORGANIZATION_ROLE ( 'classification_officer' ) ;
#151 = MECHANICAL_CONTEXT ( 'NONE', #15, 'mechanical' ) ;
#152 = DIRECTION ( 'NONE',  ( 0.000000000000000000, 0.000000000000000000, 1.000000000000000000 ) ) ;
#153 = PRODUCT_RELATED_PRODUCT_CATEGORY ( 'detail', '', ( #188 ) ) ;
#154 = PRODUCT_DEFINITION_FORMATION_WITH_SPECIFIED_SOURCE ( 'Symmetric', '', #58, .NOT_KNOWN. ) ;
#155 = PERSON_AND_ORGANIZATION ( #18446744073709551615, #18446744073709551615 ) ;
#156 = APPROVAL_STATUS ( 'not_yet_approved' ) ;
#157 = PERSON_AND_ORGANIZATION ( #18446744073709551615, #18446744073709551615 ) ;
#158 = CC_DESIGN_SECURITY_CLASSIFICATION ( #204, ( #28 ) ) ;
#159 = DATE_AND_TIME ( #144, #214 ) ;
#160 = PERSON_AND_ORGANIZATION ( #18446744073709551615, #18446744073709551615 ) ;
#161 = CC_DESIGN_PERSON_AND_ORGANIZATION_ASSIGNMENT ( #160, #128, ( #154 ) ) ;
#162 = CC_DESIGN_PERSON_AND_ORGANIZATION_ASSIGNMENT ( #92, #13, ( #196 ) ) ;
#163 = ROLE_ASSOCIATION ( #202, #192 ) ;
#164 = DATE_AND_TIME ( #36, #186 ) ;
#165 = SECURITY_CLASSIFICATION_LEVEL ( 'unclassified' ) ;
#166 = APPLICATION_PROTOCOL_DEFINITION ( 'international standard', 'config_control_design', 1994, #197 ) ;
#167 = DATE_AND_TIME ( #72, #109 ) ;
#168 = CC_DESIGN_PERSON_AND_ORGANIZATION_ASSIGNMENT ( #53, #142, ( #154 ) ) ;
#169 = CONTEXT_DEPENDENT_SHAPE_REPRESENTATION ( #183, #130 ) ;
#170 = LOCAL_TIME ( 18, 49, 58.00000000000000000, #201 ) ;
#171 = SHAPE_REPRESENTATION ( 'L16.step', ( #180, #64 ), #209 ) ;
#172 = APPLICATION_CONTEXT ( 'configuration controlled 3d designs of mechanical parts and assemblies' ) ;
#173 = CC_DESIGN_APPROVAL ( #12, ( #154 ) ) ;
#174 =( NAMED_UNIT ( * ) PLANE_ANGLE_UNIT ( ) SI_UNIT ( $, .RADIAN. ) );
#175 = CC_DESIGN_PERSON_AND_ORGANIZATION_ASSIGNMENT ( #203, #18, ( #58 ) ) ;
#176 = CC_DESIGN_PERSON_AND_ORGANIZATION_ASSIGNMENT ( #155, #138, ( #99 ) ) ;
#177 = DESIGN_CONTEXT ( 'detailed design', #27, 'design' ) ;
#178 = APPROVAL_DATE_TIME ( #137, #54 ) ;
#179 = APPROVAL_ROLE ( '' ) ;
#180 = AXIS2_PLACEMENT_3D ( 'NONE', #63, #24, #195 ) ;
#181 = CC_DESIGN_SECURITY_CLASSIFICATION ( #99, ( #154 ) ) ;
#182 = COORDINATED_UNIVERSAL_TIME_OFFSET ( 10, 0, .AHEAD. ) ;
#183 =( REPRESENTATION_RELATIONSHIP ('NONE','NONE', #171, #87 ) REPRESENTATION_RELATIONSHIP_WITH_TRANSFORMATION ( #23 )SHAPE_REPRESENTATION_RELATIONSHIP( ) );
#184 = COORDINATED_UNIVERSAL_TIME_OFFSET ( 10, 0, .AHEAD. ) ;
#185 = PERSON_AND_ORGANIZATION ( #18446744073709551615, #18446744073709551615 ) ;
#186 = LOCAL_TIME ( 18, 49, 58.00000000000000000, #106 ) ;
#187 = APPROVAL_ROLE ( '' ) ;
#188 = PRODUCT ( 'L16.step', 'L16.step', '', ( #151 ) ) ;
#189 = APPROVAL_ROLE ( '' ) ;
#190 = EXTERNAL_SOURCE (IDENTIFIER('') ) ;
#191 = COORDINATED_UNIVERSAL_TIME_OFFSET ( 10, 0, .AHEAD. ) ;
#192 = APPLIED_DOCUMENT_REFERENCE ( #132,'',( #196) ) ;
#193 = APPROVAL_ROLE ( '' ) ;
#194 = CARTESIAN_POINT ( 'NONE',  ( 19.39999871823200905, 23.15000561523400791, 0.000000000000000000 ) ) ;
#195 = DIRECTION ( 'NONE',  ( 1.000000000000000000, 0.000000000000000000, 0.000000000000000000 ) ) ;
#196 = PRODUCT_DEFINITION ( 'General', '', #154, #39 ) ;
#197 = APPLICATION_CONTEXT ( 'configuration controlled 3d designs of mechanical parts and assemblies' ) ;
#198 = APPROVAL_PERSON_ORGANIZATION ( #30, #38, #73 ) ;
#199 = LOCAL_TIME ( 18, 49, 58.00000000000000000, #131 ) ;
#200 = PERSON_AND_ORGANIZATION ( #18446744073709551615, #18446744073709551615 ) ;
#201 = COORDINATED_UNIVERSAL_TIME_OFFSET ( 10, 0, .AHEAD. ) ;
#202 = OBJECT_ROLE ('mandatory',$ ) ;
#203 = PERSON_AND_ORGANIZATION ( #18446744073709551615, #18446744073709551615 ) ;
#204 = SECURITY_CLASSIFICATION ( '', '', #165 ) ;
#205 = CALENDAR_DATE ( 2026, 22, 6 ) ;
#206 = PERSON_AND_ORGANIZATION ( #18446744073709551615, #18446744073709551615 ) ;
#207 = CC_DESIGN_PERSON_AND_ORGANIZATION_ASSIGNMENT ( #77, #150, ( #55 ) ) ;
#208 = CALENDAR_DATE ( 2026, 22, 6 ) ;
#209 =( GEOMETRIC_REPRESENTATION_CONTEXT ( 3 ) GLOBAL_UNCERTAINTY_ASSIGNED_CONTEXT ( ( #46 ) ) GLOBAL_UNIT_ASSIGNED_CONTEXT ( ( #80, #26, #120 ) ) REPRESENTATION_CONTEXT ( 'NONE', 'WORKASPACE' ) );
#210 = CC_DESIGN_APPROVAL ( #100, ( #99 ) ) ;
#211 = DATE_TIME_ROLE ( 'classification_date' ) ;
#212 = APPROVAL_DATE_TIME ( #61, #100 ) ;
#213 = PERSON ( 'NAUO-PER201', 'UNSPECIFIED', 'UNSPECIFIED', ('UNSPECIFIED'), ('UNSPECIFIED'), ('UNSPECIFIED') ) ;
#214 = LOCAL_TIME ( 18, 49, 58.00000000000000000, #90 ) ;
#215 = NEXT_ASSEMBLY_USAGE_OCCURRENCE ( 'NAUO201', ' ', ' ', #117, #196, $ ) ;
ENDSEC;
END-ISO-10303-21;
