ISO-10303-21;
HEADER;
FILE_DESCRIPTION (( 'STEP AP203' ),
    '1' );
FILE_NAME ('L19.step.STEP',
    '2026-06-22T08:49:57',
    ( 'localuser' ),
    ( '' ),
    'SwSTEP 2.0',
    'SolidWorks 2025',
    '' );
FILE_SCHEMA (( 'CONFIG_CONTROL_DESIGN' ));
ENDSEC;

DATA;
#1 = CALENDAR_DATE ( 2026, 22, 6 ) ;
#2 = PRODUCT_DEFINITION ( 'General', '', #59, #49 ) ;
#3 = PERSON_AND_ORGANIZATION ( #117, #26 ) ;
#4 = CC_DESIGN_DATE_AND_TIME_ASSIGNMENT ( #156, #75, ( #69 ) ) ;
#5 =( GEOMETRIC_REPRESENTATION_CONTEXT ( 3 ) GLOBAL_UNCERTAINTY_ASSIGNED_CONTEXT ( ( #68 ) ) GLOBAL_UNIT_ASSIGNED_CONTEXT ( ( #190, #103, #157 ) ) REPRESENTATION_CONTEXT ( 'NONE', 'WORKASPACE' ) );
#6 = APPROVAL_ROLE ( '' ) ;
#7 = DATE_AND_TIME ( #101, #201 ) ;
#8 = CARTESIAN_POINT ( 'NONE',  ( 0.000000000000000000, 0.000000000000000000, 0.000000000000000000 ) ) ;
#9 = OBJECT_ROLE ('mandatory',$ ) ;
#10 = CC_DESIGN_PERSON_AND_ORGANIZATION_ASSIGNMENT ( #100, #179, ( #59 ) ) ;
#11 = PERSON_AND_ORGANIZATION ( #18446744073709551615, #18446744073709551615 ) ;
#12 = CC_DESIGN_APPROVAL ( #15, ( #207 ) ) ;
#13 = DATE_AND_TIME ( #1, #94 ) ;
#14 = PERSON_AND_ORGANIZATION_ROLE ( 'design_owner' ) ;
#15 = APPROVAL ( #62, 'Coincident' ) ;
#16 = APPLICATION_PROTOCOL_DEFINITION ( 'international standard', 'config_control_design', 1994, #72 ) ;
#17 = LOCAL_TIME ( 18, 49, 57.00000000000000000, #150 ) ;
#18 = CONTEXT_DEPENDENT_SHAPE_REPRESENTATION ( #122, #92 ) ;
#19 = LOCAL_TIME ( 18, 49, 57.00000000000000000, #152 ) ;
#20 = PRODUCT_DEFINITION ( 'General', '', #207, #193 ) ;
#21 = DATE_AND_TIME ( #74, #79 ) ;
#22 = CC_DESIGN_APPROVAL ( #162, ( #20 ) ) ;
#23 = APPROVAL_STATUS ( 'not_yet_approved' ) ;
#24 = CARTESIAN_POINT ( 'NONE',  ( 6.050000244111001457, 2.200001037598001030, 0.000000000000000000 ) ) ;
#25 = PROPERTY_DEFINITION ('document property','', #46 ) ;
#26 = ORGANIZATION ( 'NAUO-ORG189', 'UNSPECIFIED', 'UNSPECIFIED' ) ;
#27 = APPLICATION_PROTOCOL_DEFINITION ( 'international standard', 'config_control_design', 1994, #165 ) ;
#28 = CALENDAR_DATE ( 2026, 22, 6 ) ;
#29 = DATE_TIME_ROLE ( 'creation_date' ) ;
#30 = PERSON_AND_ORGANIZATION_ROLE ( 'creator' ) ;
#31 = PERSON_AND_ORGANIZATION ( #18446744073709551615, #18446744073709551615 ) ;
#32 = APPROVAL_PERSON_ORGANIZATION ( #212, #162, #111 ) ;
#33 = PERSON_AND_ORGANIZATION ( #18446744073709551615, #18446744073709551615 ) ;
#34 = COORDINATED_UNIVERSAL_TIME_OFFSET ( 10, 0, .AHEAD. ) ;
#35 = APPROVAL_STATUS ( 'not_yet_approved' ) ;
#36 = APPROVAL_DATE_TIME ( #102, #121 ) ;
#37 = PERSON_AND_ORGANIZATION ( #18446744073709551615, #18446744073709551615 ) ;
#38 = DIRECTION ( 'NONE',  ( 1.000000000000000000, 0.000000000000000000, 0.000000000000000000 ) ) ;
#39 = APPLICATION_CONTEXT ( 'configuration controlled 3d designs of mechanical parts and assemblies' ) ;
#40 = APPROVAL ( #23, 'UNKNOWN' ) ;
#41 = CC_DESIGN_SECURITY_CLASSIFICATION ( #200, ( #59 ) ) ;
#42 = APPROVAL_STATUS ( 'not_yet_approved' ) ;
#43 = DIRECTION ( 'NONE',  ( 1.000000000000000000, 0.000000000000000000, 0.000000000000000000 ) ) ;
#44 = DATE_AND_TIME ( #63, #17 ) ;
#45 = CC_DESIGN_PERSON_AND_ORGANIZATION_ASSIGNMENT ( #37, #14, ( #126 ) ) ;
#46 = DOCUMENT_FILE ( '11552552384.step.STEP' , '', '', #66, '' ,$ ) ;
#47 = LOCAL_TIME ( 18, 49, 57.00000000000000000, #192 ) ;
#48 = LOCAL_TIME ( 18, 49, 57.00000000000000000, #34 ) ;
#49 = DESIGN_CONTEXT ( 'detailed design', #72, 'design' ) ;
#50 = APPLICATION_PROTOCOL_DEFINITION ( 'international standard', 'config_control_design', 1994, #39 ) ;
#51 = CC_DESIGN_DATE_AND_TIME_ASSIGNMENT ( #176, #29, ( #20 ) ) ;
#52 = COORDINATED_UNIVERSAL_TIME_OFFSET ( 10, 0, .AHEAD. ) ;
#53 = PERSON_AND_ORGANIZATION_ROLE ( 'classification_officer' ) ;
#54 = PROPERTY_DEFINITION_REPRESENTATION ( #58, #77 ) ;
#55 =( NAMED_UNIT ( * ) PLANE_ANGLE_UNIT ( ) SI_UNIT ( $, .RADIAN. ) );
#56 =( NAMED_UNIT ( * ) SI_UNIT ( $, .STERADIAN. ) SOLID_ANGLE_UNIT ( ) );
#57 = CC_DESIGN_PERSON_AND_ORGANIZATION_ASSIGNMENT ( #123, #53, ( #133 ) ) ;
#58 = PROPERTY_DEFINITION ('external definition','', #46 ) ;
#59 = PRODUCT_DEFINITION_FORMATION_WITH_SPECIFIED_SOURCE ( 'Symmetric', '', #126, .NOT_KNOWN. ) ;
#60 = PERSON_AND_ORGANIZATION ( #18446744073709551615, #18446744073709551615 ) ;
#61 = CALENDAR_DATE ( 2026, 22, 6 ) ;
#62 = APPROVAL_STATUS ( 'not_yet_approved' ) ;
#63 = CALENDAR_DATE ( 2026, 22, 6 ) ;
#64 = AXIS2_PLACEMENT_3D ( 'NONE', #110, #91, #38 ) ;
#65 = CC_DESIGN_APPROVAL ( #121, ( #133 ) ) ;
#66 = DOCUMENT_TYPE ( 'geometry' ) ;
#67 = CALENDAR_DATE ( 2026, 22, 6 ) ;
#68 = UNCERTAINTY_MEASURE_WITH_UNIT (LENGTH_MEASURE( 1.000000000000000082E-05 ), #190, 'distance_accuracy_value', 'NONE');
#69 = SECURITY_CLASSIFICATION ( '', '', #73 ) ;
#70 = ROLE_ASSOCIATION ( #9, #199 ) ;
#71 = SHAPE_DEFINITION_REPRESENTATION ( #106, #77 ) ;
#72 = APPLICATION_CONTEXT ( 'configuration controlled 3d designs of mechanical parts and assemblies' ) ;
#73 = SECURITY_CLASSIFICATION_LEVEL ( 'unclassified' ) ;
#74 = CALENDAR_DATE ( 2026, 22, 6 ) ;
#75 = DATE_TIME_ROLE ( 'classification_date' ) ;
#76 = DATE_TIME_ROLE ( 'creation_date' ) ;
#77 = SHAPE_REPRESENTATION ( '11552552384.step', ( #64 ), #84 ) ;
#78 = DATE_AND_TIME ( #28, #155 ) ;
#79 = LOCAL_TIME ( 18, 49, 57.00000000000000000, #138 ) ;
#80 = DATE_AND_TIME ( #132, #47 ) ;
#81 = PERSON_AND_ORGANIZATION_ROLE ( 'classification_officer' ) ;
#82 = PRODUCT_RELATED_PRODUCT_CATEGORY ( 'detail', '', ( #189 ) ) ;
#83 = PERSON_AND_ORGANIZATION ( #18446744073709551615, #18446744073709551615 ) ;
#84 =( GEOMETRIC_REPRESENTATION_CONTEXT ( 3 ) GLOBAL_UNCERTAINTY_ASSIGNED_CONTEXT ( ( #135 ) ) GLOBAL_UNIT_ASSIGNED_CONTEXT ( ( #173, #55, #56 ) ) REPRESENTATION_CONTEXT ( 'NONE', 'WORKASPACE' ) );
#85 = APPROVAL_PERSON_ORGANIZATION ( #154, #121, #90 ) ;
#86 = SHAPE_REPRESENTATION ( 'L19.step', ( #183, #187 ), #5 ) ;
#87 = IDENTIFICATION_ROLE ( 'external document id and location', $) ;
#88 = CALENDAR_DATE ( 2026, 22, 6 ) ;
#89 = DATE_TIME_ROLE ( 'classification_date' ) ;
#90 = APPROVAL_ROLE ( '' ) ;
#91 = DIRECTION ( 'NONE',  ( 0.000000000000000000, 0.000000000000000000, 1.000000000000000000 ) ) ;
#92 = PRODUCT_DEFINITION_SHAPE ( 'NONE', 'NONE',  #215 ) ;
#93 = PRODUCT_RELATED_PRODUCT_CATEGORY ( 'detail', '', ( #126 ) ) ;
#94 = LOCAL_TIME ( 18, 49, 57.00000000000000000, #195 ) ;
#95 = APPROVAL_DATE_TIME ( #78, #162 ) ;
#96 = CALENDAR_DATE ( 2026, 22, 6 ) ;
#97 = SECURITY_CLASSIFICATION_LEVEL ( 'unclassified' ) ;
#98 = CC_DESIGN_PERSON_AND_ORGANIZATION_ASSIGNMENT ( #140, #203, ( #207 ) ) ;
#99 = APPROVAL_DATE_TIME ( #44, #202 ) ;
#100 = PERSON_AND_ORGANIZATION ( #18446744073709551615, #18446744073709551615 ) ;
#101 = CALENDAR_DATE ( 2026, 22, 6 ) ;
#102 = DATE_AND_TIME ( #104, #48 ) ;
#103 =( NAMED_UNIT ( * ) PLANE_ANGLE_UNIT ( ) SI_UNIT ( $, .RADIAN. ) );
#104 = CALENDAR_DATE ( 2026, 22, 6 ) ;
#105 = APPROVAL_DATE_TIME ( #7, #40 ) ;
#106 = PRODUCT_DEFINITION_SHAPE ( 'NONE', 'NONE',  #20 ) ;
#107 = DIRECTION ( 'NONE',  ( 1.000000000000000222, -1.092455418989176591E-28, 4.890937612370273194E-29 ) ) ;
#108 = LOCAL_TIME ( 18, 49, 57.00000000000000000, #151 ) ;
#109 = APPLICATION_CONTEXT ( 'configuration controlled 3d designs of mechanical parts and assemblies' ) ;
#110 = CARTESIAN_POINT ( 'NONE',  ( 0.000000000000000000, 0.000000000000000000, 0.000000000000000000 ) ) ;
#111 = APPROVAL_ROLE ( '' ) ;
#112 = APPROVAL_ROLE ( '' ) ;
#113 = APPROVAL_PERSON_ORGANIZATION ( #131, #210, #112 ) ;
#114 = APPROVAL_STATUS ( 'not_yet_approved' ) ;
#115 = CC_DESIGN_SECURITY_CLASSIFICATION ( #133, ( #207 ) ) ;
#116 = PERSON_AND_ORGANIZATION ( #18446744073709551615, #18446744073709551615 ) ;
#117 = PERSON ( 'NAUO-PER189', 'UNSPECIFIED', 'UNSPECIFIED', ('UNSPECIFIED'), ('UNSPECIFIED'), ('UNSPECIFIED') ) ;
#118 = APPROVAL_STATUS ( 'not_yet_approved' ) ;
#119 = PROPERTY_DEFINITION_REPRESENTATION ( #25, #77 ) ;
#120 = LOCAL_TIME ( 18, 49, 57.00000000000000000, #130 ) ;
#121 = APPROVAL ( #35, 'Coincident' ) ;
#122 =( REPRESENTATION_RELATIONSHIP ('NONE','NONE', #86, #77 ) REPRESENTATION_RELATIONSHIP_WITH_TRANSFORMATION ( #172 )SHAPE_REPRESENTATION_RELATIONSHIP( ) );
#123 = PERSON_AND_ORGANIZATION ( #18446744073709551615, #18446744073709551615 ) ;
#124 = APPROVAL_DATE_TIME ( #21, #15 ) ;
#125 = CC_DESIGN_PERSON_AND_ORGANIZATION_ASSIGNMENT ( #194, #148, ( #20 ) ) ;
#126 = PRODUCT ( 'L19.step', 'L19.step', '', ( #204 ) ) ;
#127 = DIRECTION ( 'NONE',  ( 4.890937612370273194E-29, -3.155443620884047222E-30, 0.9999999999999997780 ) ) ;
#128 = APPROVAL_PERSON_ORGANIZATION ( #3, #40, #6 ) ;
#129 = PERSON_AND_ORGANIZATION_ROLE ( 'design_owner' ) ;
#130 = COORDINATED_UNIVERSAL_TIME_OFFSET ( 10, 0, .AHEAD. ) ;
#131 = PERSON_AND_ORGANIZATION ( #18446744073709551615, #18446744073709551615 ) ;
#132 = CALENDAR_DATE ( 2026, 22, 6 ) ;
#133 = SECURITY_CLASSIFICATION ( '', '', #170 ) ;
#134 = CC_DESIGN_DATE_AND_TIME_ASSIGNMENT ( #213, #164, ( #200 ) ) ;
#135 = UNCERTAINTY_MEASURE_WITH_UNIT (LENGTH_MEASURE( 1.000000000000000082E-05 ), #173, 'distance_accuracy_value', 'NONE');
#136 = SHAPE_DEFINITION_REPRESENTATION ( #142, #86 ) ;
#137 = CC_DESIGN_PERSON_AND_ORGANIZATION_ASSIGNMENT ( #188, #184, ( #207 ) ) ;
#138 = COORDINATED_UNIVERSAL_TIME_OFFSET ( 10, 0, .AHEAD. ) ;
#139 = CC_DESIGN_APPROVAL ( #210, ( #200 ) ) ;
#140 = PERSON_AND_ORGANIZATION ( #18446744073709551615, #18446744073709551615 ) ;
#141 = APPROVAL_ROLE ( '' ) ;
#142 = PRODUCT_DEFINITION_SHAPE ( 'NONE', 'NONE',  #2 ) ;
#143 = APPLIED_EXTERNAL_IDENTIFICATION_ASSIGNMENT ( '11552552384.step.STEP' , #87, #153,( #46) ) ;
#144 = CC_DESIGN_PERSON_AND_ORGANIZATION_ASSIGNMENT ( #3, #205, ( #69 ) ) ;
#145 = DATE_AND_TIME ( #67, #108 ) ;
#146 = LOCAL_TIME ( 18, 49, 57.00000000000000000, #211 ) ;
#147 = LOCAL_TIME ( 18, 49, 57.00000000000000000, #52 ) ;
#148 = PERSON_AND_ORGANIZATION_ROLE ( 'creator' ) ;
#149 = APPROVAL_ROLE ( '' ) ;
#150 = COORDINATED_UNIVERSAL_TIME_OFFSET ( 10, 0, .AHEAD. ) ;
#151 = COORDINATED_UNIVERSAL_TIME_OFFSET ( 10, 0, .AHEAD. ) ;
#152 = COORDINATED_UNIVERSAL_TIME_OFFSET ( 10, 0, .AHEAD. ) ;
#153 = EXTERNAL_SOURCE (IDENTIFIER('') ) ;
#154 = PERSON_AND_ORGANIZATION ( #18446744073709551615, #18446744073709551615 ) ;
#155 = LOCAL_TIME ( 18, 49, 57.00000000000000000, #175 ) ;
#156 = DATE_AND_TIME ( #169, #19 ) ;
#157 =( NAMED_UNIT ( * ) SI_UNIT ( $, .STERADIAN. ) SOLID_ANGLE_UNIT ( ) );
#158 = COORDINATED_UNIVERSAL_TIME_OFFSET ( 10, 0, .AHEAD. ) ;
#159 = CC_DESIGN_DATE_AND_TIME_ASSIGNMENT ( #186, #89, ( #133 ) ) ;
#160 = MECHANICAL_CONTEXT ( 'NONE', #39, 'mechanical' ) ;
#161 = PERSON_AND_ORGANIZATION ( #18446744073709551615, #18446744073709551615 ) ;
#162 = APPROVAL ( #42, 'Coincident' ) ;
#163 = APPROVAL_STATUS ( 'not_yet_approved' ) ;
#164 = DATE_TIME_ROLE ( 'classification_date' ) ;
#165 = APPLICATION_CONTEXT ( 'configuration controlled 3d designs of mechanical parts and assemblies' ) ;
#166 = CC_DESIGN_DATE_AND_TIME_ASSIGNMENT ( #13, #76, ( #2 ) ) ;
#167 = PERSON_AND_ORGANIZATION_ROLE ( 'design_supplier' ) ;
#168 = CC_DESIGN_APPROVAL ( #40, ( #69 ) ) ;
#169 = CALENDAR_DATE ( 2026, 22, 6 ) ;
#170 = SECURITY_CLASSIFICATION_LEVEL ( 'unclassified' ) ;
#171 = CC_DESIGN_SECURITY_CLASSIFICATION ( #69, ( #215 ) ) ;
#172 = ITEM_DEFINED_TRANSFORMATION ( 'NONE', 'NONE', #187,  #64 ) ;
#173 =( LENGTH_UNIT ( ) NAMED_UNIT ( * ) SI_UNIT ( .MILLI., .METRE. ) );
#174 = CC_DESIGN_PERSON_AND_ORGANIZATION_ASSIGNMENT ( #60, #129, ( #189 ) ) ;
#175 = COORDINATED_UNIVERSAL_TIME_OFFSET ( 10, 0, .AHEAD. ) ;
#176 = DATE_AND_TIME ( #61, #146 ) ;
#177 = APPROVAL_PERSON_ORGANIZATION ( #11, #182, #197 ) ;
#178 = APPROVAL_PERSON_ORGANIZATION ( #161, #15, #141 ) ;
#179 = PERSON_AND_ORGANIZATION_ROLE ( 'creator' ) ;
#180 = APPROVAL_DATE_TIME ( #80, #182 ) ;
#181 = DIRECTION ( 'NONE',  ( 0.000000000000000000, 0.000000000000000000, 1.000000000000000000 ) ) ;
#182 = APPROVAL ( #163, 'Coincident' ) ;
#183 = AXIS2_PLACEMENT_3D ( 'NONE', #8, #181, #43 ) ;
#184 = PERSON_AND_ORGANIZATION_ROLE ( 'creator' ) ;
#185 = CC_DESIGN_PERSON_AND_ORGANIZATION_ASSIGNMENT ( #83, #167, ( #59 ) ) ;
#186 = DATE_AND_TIME ( #88, #147 ) ;
#187 = AXIS2_PLACEMENT_3D ( 'NONE', #24, #127, #107 ) ;
#188 = PERSON_AND_ORGANIZATION ( #18446744073709551615, #18446744073709551615 ) ;
#189 = PRODUCT ( '11552552384.step', '11552552384.step', '', ( #160 ) ) ;
#190 =( LENGTH_UNIT ( ) NAMED_UNIT ( * ) SI_UNIT ( .MILLI., .METRE. ) );
#191 = APPLICATION_PROTOCOL_DEFINITION ( 'international standard', 'config_control_design', 1994, #109 ) ;
#192 = COORDINATED_UNIVERSAL_TIME_OFFSET ( 10, 0, .AHEAD. ) ;
#193 = DESIGN_CONTEXT ( 'detailed design', #109, 'design' ) ;
#194 = PERSON_AND_ORGANIZATION ( #18446744073709551615, #18446744073709551615 ) ;
#195 = COORDINATED_UNIVERSAL_TIME_OFFSET ( 10, 0, .AHEAD. ) ;
#196 = CC_DESIGN_APPROVAL ( #182, ( #2 ) ) ;
#197 = APPROVAL_ROLE ( '' ) ;
#198 = CC_DESIGN_PERSON_AND_ORGANIZATION_ASSIGNMENT ( #33, #30, ( #2 ) ) ;
#199 = APPLIED_DOCUMENT_REFERENCE ( #46,'',( #20) ) ;
#200 = SECURITY_CLASSIFICATION ( '', '', #97 ) ;
#201 = LOCAL_TIME ( 18, 49, 57.00000000000000000, #158 ) ;
#202 = APPROVAL ( #114, 'Coincident' ) ;
#203 = PERSON_AND_ORGANIZATION_ROLE ( 'design_supplier' ) ;
#204 = MECHANICAL_CONTEXT ( 'NONE', #165, 'mechanical' ) ;
#205 = PERSON_AND_ORGANIZATION_ROLE ( 'classification_officer' ) ;
#206 = CC_DESIGN_APPROVAL ( #202, ( #59 ) ) ;
#207 = PRODUCT_DEFINITION_FORMATION_WITH_SPECIFIED_SOURCE ( 'Symmetric', '', #189, .NOT_KNOWN. ) ;
#208 = CC_DESIGN_PERSON_AND_ORGANIZATION_ASSIGNMENT ( #31, #81, ( #200 ) ) ;
#209 = APPROVAL_DATE_TIME ( #145, #210 ) ;
#210 = APPROVAL ( #118, 'Coincident' ) ;
#211 = COORDINATED_UNIVERSAL_TIME_OFFSET ( 10, 0, .AHEAD. ) ;
#212 = PERSON_AND_ORGANIZATION ( #18446744073709551615, #18446744073709551615 ) ;
#213 = DATE_AND_TIME ( #96, #120 ) ;
#214 = APPROVAL_PERSON_ORGANIZATION ( #116, #202, #149 ) ;
#215 = NEXT_ASSEMBLY_USAGE_OCCURRENCE ( 'NAUO189', ' ', ' ', #2, #20, $ ) ;
ENDSEC;
END-ISO-10303-21;
