ISO-10303-21;
HEADER;
FILE_DESCRIPTION (( 'STEP AP203' ),
    '1' );
FILE_NAME ('L2.step.STEP',
    '2026-06-22T08:49:57',
    ( 'localuser' ),
    ( '' ),
    'SwSTEP 2.0',
    'SolidWorks 2025',
    '' );
FILE_SCHEMA (( 'CONFIG_CONTROL_DESIGN' ));
ENDSEC;

DATA;
#1 = APPROVAL_ROLE ( '' ) ;
#2 = CC_DESIGN_DATE_AND_TIME_ASSIGNMENT ( #193, #134, ( #10 ) ) ;
#3 = COORDINATED_UNIVERSAL_TIME_OFFSET ( 10, 0, .AHEAD. ) ;
#4 = PERSON_AND_ORGANIZATION ( #18446744073709551615, #18446744073709551615 ) ;
#5 = AXIS2_PLACEMENT_3D ( 'NONE', #184, #56, #88 ) ;
#6 = PERSON_AND_ORGANIZATION ( #18446744073709551615, #18446744073709551615 ) ;
#7 = SHAPE_DEFINITION_REPRESENTATION ( #89, #27 ) ;
#8 =( NAMED_UNIT ( * ) SI_UNIT ( $, .STERADIAN. ) SOLID_ANGLE_UNIT ( ) );
#9 =( NAMED_UNIT ( * ) PLANE_ANGLE_UNIT ( ) SI_UNIT ( $, .RADIAN. ) );
#10 = PRODUCT_DEFINITION ( 'General', '', #67, #82 ) ;
#11 = CALENDAR_DATE ( 2026, 22, 6 ) ;
#12 = DATE_AND_TIME ( #132, #152 ) ;
#13 = CARTESIAN_POINT ( 'NONE',  ( 0.000000000000000000, 0.000000000000000000, 0.000000000000000000 ) ) ;
#14 = APPROVAL ( #187, 'Coincident' ) ;
#15 = APPLICATION_PROTOCOL_DEFINITION ( 'international standard', 'config_control_design', 1994, #197 ) ;
#16 = APPROVAL_PERSON_ORGANIZATION ( #114, #158, #149 ) ;
#17 = DESIGN_CONTEXT ( 'detailed design', #84, 'design' ) ;
#18 = CALENDAR_DATE ( 2026, 22, 6 ) ;
#19 = ITEM_DEFINED_TRANSFORMATION ( 'NONE', 'NONE', #175,  #5 ) ;
#20 = APPROVAL ( #99, 'Coincident' ) ;
#21 = PROPERTY_DEFINITION_REPRESENTATION ( #25, #27 ) ;
#22 = CALENDAR_DATE ( 2026, 22, 6 ) ;
#23 = APPROVAL_PERSON_ORGANIZATION ( #210, #98, #60 ) ;
#24 = COORDINATED_UNIVERSAL_TIME_OFFSET ( 10, 0, .AHEAD. ) ;
#25 = PROPERTY_DEFINITION ('external definition','', #97 ) ;
#26 = CARTESIAN_POINT ( 'NONE',  ( 12.70000176999000097, 16.44999340820300304, 0.000000000000000000 ) ) ;
#27 = SHAPE_REPRESENTATION ( '11552552384.step', ( #5 ), #180 ) ;
#28 = COORDINATED_UNIVERSAL_TIME_OFFSET ( 10, 0, .AHEAD. ) ;
#29 = APPROVAL_DATE_TIME ( #174, #158 ) ;
#30 = COORDINATED_UNIVERSAL_TIME_OFFSET ( 10, 0, .AHEAD. ) ;
#31 = APPROVAL_DATE_TIME ( #96, #104 ) ;
#32 = APPROVAL_STATUS ( 'not_yet_approved' ) ;
#33 = PERSON_AND_ORGANIZATION_ROLE ( 'classification_officer' ) ;
#34 = LOCAL_TIME ( 18, 49, 57.00000000000000000, #182 ) ;
#35 = DATE_AND_TIME ( #167, #34 ) ;
#36 = APPROVAL_ROLE ( '' ) ;
#37 = MECHANICAL_CONTEXT ( 'NONE', #100, 'mechanical' ) ;
#38 = PERSON_AND_ORGANIZATION ( #18446744073709551615, #18446744073709551615 ) ;
#39 = DIRECTION ( 'NONE',  ( 1.000000000000000222, -1.092455418989176591E-28, 4.890937612370273194E-29 ) ) ;
#40 = CC_DESIGN_PERSON_AND_ORGANIZATION_ASSIGNMENT ( #150, #138, ( #95 ) ) ;
#41 = LOCAL_TIME ( 18, 49, 57.00000000000000000, #30 ) ;
#42 = CALENDAR_DATE ( 2026, 22, 6 ) ;
#43 = APPLICATION_PROTOCOL_DEFINITION ( 'international standard', 'config_control_design', 1994, #190 ) ;
#44 = APPROVAL_STATUS ( 'not_yet_approved' ) ;
#45 = CC_DESIGN_DATE_AND_TIME_ASSIGNMENT ( #35, #69, ( #111 ) ) ;
#46 = PERSON_AND_ORGANIZATION_ROLE ( 'design_supplier' ) ;
#47 = SHAPE_REPRESENTATION ( 'L2.step', ( #91, #175 ), #203 ) ;
#48 = CC_DESIGN_SECURITY_CLASSIFICATION ( #95, ( #67 ) ) ;
#49 = LOCAL_TIME ( 18, 49, 57.00000000000000000, #206 ) ;
#50 = PERSON_AND_ORGANIZATION_ROLE ( 'design_owner' ) ;
#51 = CC_DESIGN_PERSON_AND_ORGANIZATION_ASSIGNMENT ( #74, #159, ( #128 ) ) ;
#52 = APPROVAL_DATE_TIME ( #205, #14 ) ;
#53 = SECURITY_CLASSIFICATION_LEVEL ( 'unclassified' ) ;
#54 = APPROVAL_ROLE ( '' ) ;
#55 = PROPERTY_DEFINITION_REPRESENTATION ( #109, #27 ) ;
#56 = DIRECTION ( 'NONE',  ( 0.000000000000000000, 0.000000000000000000, 1.000000000000000000 ) ) ;
#57 = CC_DESIGN_PERSON_AND_ORGANIZATION_ASSIGNMENT ( #87, #85, ( #170 ) ) ;
#58 = PRODUCT_DEFINITION_SHAPE ( 'NONE', 'NONE',  #215 ) ;
#59 = APPROVAL_PERSON_ORGANIZATION ( #131, #20, #1 ) ;
#60 = APPROVAL_ROLE ( '' ) ;
#61 = PERSON_AND_ORGANIZATION ( #18446744073709551615, #18446744073709551615 ) ;
#62 = PERSON_AND_ORGANIZATION_ROLE ( 'creator' ) ;
#63 = PERSON ( 'NAUO-PER190', 'UNSPECIFIED', 'UNSPECIFIED', ('UNSPECIFIED'), ('UNSPECIFIED'), ('UNSPECIFIED') ) ;
#64 = COORDINATED_UNIVERSAL_TIME_OFFSET ( 10, 0, .AHEAD. ) ;
#65 = CALENDAR_DATE ( 2026, 22, 6 ) ;
#66 = CC_DESIGN_PERSON_AND_ORGANIZATION_ASSIGNMENT ( #61, #46, ( #67 ) ) ;
#67 = PRODUCT_DEFINITION_FORMATION_WITH_SPECIFIED_SOURCE ( 'Symmetric', '', #143, .NOT_KNOWN. ) ;
#68 = PERSON_AND_ORGANIZATION_ROLE ( 'design_supplier' ) ;
#69 = DATE_TIME_ROLE ( 'classification_date' ) ;
#70 = CC_DESIGN_APPROVAL ( #104, ( #67 ) ) ;
#71 = APPROVAL_PERSON_ORGANIZATION ( #38, #14, #36 ) ;
#72 = APPROVAL_DATE_TIME ( #169, #161 ) ;
#73 = OBJECT_ROLE ('mandatory',$ ) ;
#74 = PERSON_AND_ORGANIZATION ( #18446744073709551615, #18446744073709551615 ) ;
#75 = DATE_AND_TIME ( #11, #207 ) ;
#76 = APPROVAL_PERSON_ORGANIZATION ( #153, #161, #185 ) ;
#77 = APPROVAL_DATE_TIME ( #12, #20 ) ;
#78 = APPROVAL_STATUS ( 'not_yet_approved' ) ;
#79 = CC_DESIGN_PERSON_AND_ORGANIZATION_ASSIGNMENT ( #173, #62, ( #201 ) ) ;
#80 = SECURITY_CLASSIFICATION_LEVEL ( 'unclassified' ) ;
#81 = LOCAL_TIME ( 18, 49, 57.00000000000000000, #64 ) ;
#82 = DESIGN_CONTEXT ( 'detailed design', #197, 'design' ) ;
#83 = CALENDAR_DATE ( 2026, 22, 6 ) ;
#84 = APPLICATION_CONTEXT ( 'configuration controlled 3d designs of mechanical parts and assemblies' ) ;
#85 = PERSON_AND_ORGANIZATION_ROLE ( 'classification_officer' ) ;
#86 = CC_DESIGN_APPROVAL ( #139, ( #170 ) ) ;
#87 = PERSON_AND_ORGANIZATION ( #63, #135 ) ;
#88 = DIRECTION ( 'NONE',  ( 1.000000000000000000, 0.000000000000000000, 0.000000000000000000 ) ) ;
#89 = PRODUCT_DEFINITION_SHAPE ( 'NONE', 'NONE',  #201 ) ;
#90 = CC_DESIGN_DATE_AND_TIME_ASSIGNMENT ( #160, #177, ( #95 ) ) ;
#91 = AXIS2_PLACEMENT_3D ( 'NONE', #13, #162, #200 ) ;
#92 = UNCERTAINTY_MEASURE_WITH_UNIT (LENGTH_MEASURE( 1.000000000000000082E-05 ), #129, 'distance_accuracy_value', 'NONE');
#93 =( LENGTH_UNIT ( ) NAMED_UNIT ( * ) SI_UNIT ( .MILLI., .METRE. ) );
#94 = SHAPE_DEFINITION_REPRESENTATION ( #189, #47 ) ;
#95 = SECURITY_CLASSIFICATION ( '', '', #80 ) ;
#96 = DATE_AND_TIME ( #178, #41 ) ;
#97 = DOCUMENT_FILE ( '11552552384.step.STEP' , '', '', #137, '' ,$ ) ;
#98 = APPROVAL ( #44, 'Coincident' ) ;
#99 = APPROVAL_STATUS ( 'not_yet_approved' ) ;
#100 = APPLICATION_CONTEXT ( 'configuration controlled 3d designs of mechanical parts and assemblies' ) ;
#101 = PERSON_AND_ORGANIZATION_ROLE ( 'creator' ) ;
#102 = APPROVAL_STATUS ( 'not_yet_approved' ) ;
#103 = SECURITY_CLASSIFICATION_LEVEL ( 'unclassified' ) ;
#104 = APPROVAL ( #32, 'Coincident' ) ;
#105 = DATE_AND_TIME ( #83, #117 ) ;
#106 =( NAMED_UNIT ( * ) SI_UNIT ( $, .STERADIAN. ) SOLID_ANGLE_UNIT ( ) );
#107 = APPROVAL_PERSON_ORGANIZATION ( #195, #104, #196 ) ;
#108 = APPROVAL_STATUS ( 'not_yet_approved' ) ;
#109 = PROPERTY_DEFINITION ('document property','', #97 ) ;
#110 = LOCAL_TIME ( 18, 49, 57.00000000000000000, #3 ) ;
#111 = SECURITY_CLASSIFICATION ( '', '', #53 ) ;
#112 =( NAMED_UNIT ( * ) PLANE_ANGLE_UNIT ( ) SI_UNIT ( $, .RADIAN. ) );
#113 = DATE_AND_TIME ( #42, #198 ) ;
#114 = PERSON_AND_ORGANIZATION ( #18446744073709551615, #18446744073709551615 ) ;
#115 = CC_DESIGN_APPROVAL ( #158, ( #10 ) ) ;
#116 = PERSON_AND_ORGANIZATION ( #18446744073709551615, #18446744073709551615 ) ;
#117 = LOCAL_TIME ( 18, 49, 57.00000000000000000, #126 ) ;
#118 = CALENDAR_DATE ( 2026, 22, 6 ) ;
#119 = PERSON_AND_ORGANIZATION ( #18446744073709551615, #18446744073709551615 ) ;
#120 = PERSON_AND_ORGANIZATION ( #18446744073709551615, #18446744073709551615 ) ;
#121 = PERSON_AND_ORGANIZATION_ROLE ( 'creator' ) ;
#122 = APPLIED_EXTERNAL_IDENTIFICATION_ASSIGNMENT ( '11552552384.step.STEP' , #202, #124,( #97) ) ;
#123 = APPROVAL_DATE_TIME ( #140, #139 ) ;
#124 = EXTERNAL_SOURCE (IDENTIFIER('') ) ;
#125 = PERSON_AND_ORGANIZATION_ROLE ( 'creator' ) ;
#126 = COORDINATED_UNIVERSAL_TIME_OFFSET ( 10, 0, .AHEAD. ) ;
#127 = CC_DESIGN_PERSON_AND_ORGANIZATION_ASSIGNMENT ( #4, #68, ( #191 ) ) ;
#128 = PRODUCT ( '11552552384.step', '11552552384.step', '', ( #163 ) ) ;
#129 =( LENGTH_UNIT ( ) NAMED_UNIT ( * ) SI_UNIT ( .MILLI., .METRE. ) );
#130 = CC_DESIGN_SECURITY_CLASSIFICATION ( #170, ( #215 ) ) ;
#131 = PERSON_AND_ORGANIZATION ( #18446744073709551615, #18446744073709551615 ) ;
#132 = CALENDAR_DATE ( 2026, 22, 6 ) ;
#133 = COORDINATED_UNIVERSAL_TIME_OFFSET ( 10, 0, .AHEAD. ) ;
#134 = DATE_TIME_ROLE ( 'creation_date' ) ;
#135 = ORGANIZATION ( 'NAUO-ORG190', 'UNSPECIFIED', 'UNSPECIFIED' ) ;
#136 = CC_DESIGN_PERSON_AND_ORGANIZATION_ASSIGNMENT ( #116, #121, ( #10 ) ) ;
#137 = DOCUMENT_TYPE ( 'geometry' ) ;
#138 = PERSON_AND_ORGANIZATION_ROLE ( 'classification_officer' ) ;
#139 = APPROVAL ( #108, 'UNKNOWN' ) ;
#140 = DATE_AND_TIME ( #22, #151 ) ;
#141 = LOCAL_TIME ( 18, 49, 57.00000000000000000, #133 ) ;
#142 = PERSON_AND_ORGANIZATION ( #18446744073709551615, #18446744073709551615 ) ;
#143 = PRODUCT ( 'L2.step', 'L2.step', '', ( #37 ) ) ;
#144 = CC_DESIGN_PERSON_AND_ORGANIZATION_ASSIGNMENT ( #119, #101, ( #67 ) ) ;
#145 = APPLICATION_PROTOCOL_DEFINITION ( 'international standard', 'config_control_design', 1994, #84 ) ;
#146 = CC_DESIGN_APPROVAL ( #20, ( #95 ) ) ;
#147 = DATE_TIME_ROLE ( 'creation_date' ) ;
#148 = APPROVAL_DATE_TIME ( #113, #98 ) ;
#149 = APPROVAL_ROLE ( '' ) ;
#150 = PERSON_AND_ORGANIZATION ( #18446744073709551615, #18446744073709551615 ) ;
#151 = LOCAL_TIME ( 18, 49, 57.00000000000000000, #24 ) ;
#152 = LOCAL_TIME ( 18, 49, 57.00000000000000000, #166 ) ;
#153 = PERSON_AND_ORGANIZATION ( #18446744073709551615, #18446744073709551615 ) ;
#154 = DATE_TIME_ROLE ( 'classification_date' ) ;
#155 = LOCAL_TIME ( 18, 49, 57.00000000000000000, #212 ) ;
#156 = ROLE_ASSOCIATION ( #73, #168 ) ;
#157 = APPLICATION_PROTOCOL_DEFINITION ( 'international standard', 'config_control_design', 1994, #100 ) ;
#158 = APPROVAL ( #78, 'Coincident' ) ;
#159 = PERSON_AND_ORGANIZATION_ROLE ( 'design_owner' ) ;
#160 = DATE_AND_TIME ( #118, #155 ) ;
#161 = APPROVAL ( #102, 'Coincident' ) ;
#162 = DIRECTION ( 'NONE',  ( 0.000000000000000000, 0.000000000000000000, 1.000000000000000000 ) ) ;
#163 = MECHANICAL_CONTEXT ( 'NONE', #190, 'mechanical' ) ;
#164 =( REPRESENTATION_RELATIONSHIP ('NONE','NONE', #47, #27 ) REPRESENTATION_RELATIONSHIP_WITH_TRANSFORMATION ( #19 )SHAPE_REPRESENTATION_RELATIONSHIP( ) );
#165 = CC_DESIGN_PERSON_AND_ORGANIZATION_ASSIGNMENT ( #120, #33, ( #111 ) ) ;
#166 = COORDINATED_UNIVERSAL_TIME_OFFSET ( 10, 0, .AHEAD. ) ;
#167 = CALENDAR_DATE ( 2026, 22, 6 ) ;
#168 = APPLIED_DOCUMENT_REFERENCE ( #97,'',( #201) ) ;
#169 = DATE_AND_TIME ( #181, #49 ) ;
#170 = SECURITY_CLASSIFICATION ( '', '', #103 ) ;
#171 = CONTEXT_DEPENDENT_SHAPE_REPRESENTATION ( #164, #58 ) ;
#172 = PRODUCT_RELATED_PRODUCT_CATEGORY ( 'detail', '', ( #128 ) ) ;
#173 = PERSON_AND_ORGANIZATION ( #18446744073709551615, #18446744073709551615 ) ;
#174 = DATE_AND_TIME ( #65, #81 ) ;
#175 = AXIS2_PLACEMENT_3D ( 'NONE', #26, #188, #39 ) ;
#176 = CC_DESIGN_SECURITY_CLASSIFICATION ( #111, ( #191 ) ) ;
#177 = DATE_TIME_ROLE ( 'classification_date' ) ;
#178 = CALENDAR_DATE ( 2026, 22, 6 ) ;
#179 = CC_DESIGN_PERSON_AND_ORGANIZATION_ASSIGNMENT ( #142, #125, ( #191 ) ) ;
#180 =( GEOMETRIC_REPRESENTATION_CONTEXT ( 3 ) GLOBAL_UNCERTAINTY_ASSIGNED_CONTEXT ( ( #92 ) ) GLOBAL_UNIT_ASSIGNED_CONTEXT ( ( #129, #112, #8 ) ) REPRESENTATION_CONTEXT ( 'NONE', 'WORKASPACE' ) );
#181 = CALENDAR_DATE ( 2026, 22, 6 ) ;
#182 = COORDINATED_UNIVERSAL_TIME_OFFSET ( 10, 0, .AHEAD. ) ;
#183 = PRODUCT_RELATED_PRODUCT_CATEGORY ( 'detail', '', ( #143 ) ) ;
#184 = CARTESIAN_POINT ( 'NONE',  ( 0.000000000000000000, 0.000000000000000000, 0.000000000000000000 ) ) ;
#185 = APPROVAL_ROLE ( '' ) ;
#186 = CC_DESIGN_APPROVAL ( #98, ( #201 ) ) ;
#187 = APPROVAL_STATUS ( 'not_yet_approved' ) ;
#188 = DIRECTION ( 'NONE',  ( 4.890937612370273194E-29, -3.155443620884047222E-30, 0.9999999999999997780 ) ) ;
#189 = PRODUCT_DEFINITION_SHAPE ( 'NONE', 'NONE',  #10 ) ;
#190 = APPLICATION_CONTEXT ( 'configuration controlled 3d designs of mechanical parts and assemblies' ) ;
#191 = PRODUCT_DEFINITION_FORMATION_WITH_SPECIFIED_SOURCE ( 'Symmetric', '', #128, .NOT_KNOWN. ) ;
#192 = COORDINATED_UNIVERSAL_TIME_OFFSET ( 10, 0, .AHEAD. ) ;
#193 = DATE_AND_TIME ( #213, #141 ) ;
#194 = UNCERTAINTY_MEASURE_WITH_UNIT (LENGTH_MEASURE( 1.000000000000000082E-05 ), #93, 'distance_accuracy_value', 'NONE');
#195 = PERSON_AND_ORGANIZATION ( #18446744073709551615, #18446744073709551615 ) ;
#196 = APPROVAL_ROLE ( '' ) ;
#197 = APPLICATION_CONTEXT ( 'configuration controlled 3d designs of mechanical parts and assemblies' ) ;
#198 = LOCAL_TIME ( 18, 49, 57.00000000000000000, #192 ) ;
#199 = CC_DESIGN_APPROVAL ( #161, ( #191 ) ) ;
#200 = DIRECTION ( 'NONE',  ( 1.000000000000000000, 0.000000000000000000, 0.000000000000000000 ) ) ;
#201 = PRODUCT_DEFINITION ( 'General', '', #191, #17 ) ;
#202 = IDENTIFICATION_ROLE ( 'external document id and location', $) ;
#203 =( GEOMETRIC_REPRESENTATION_CONTEXT ( 3 ) GLOBAL_UNCERTAINTY_ASSIGNED_CONTEXT ( ( #194 ) ) GLOBAL_UNIT_ASSIGNED_CONTEXT ( ( #93, #9, #106 ) ) REPRESENTATION_CONTEXT ( 'NONE', 'WORKASPACE' ) );
#204 = CC_DESIGN_DATE_AND_TIME_ASSIGNMENT ( #75, #147, ( #201 ) ) ;
#205 = DATE_AND_TIME ( #18, #110 ) ;
#206 = COORDINATED_UNIVERSAL_TIME_OFFSET ( 10, 0, .AHEAD. ) ;
#207 = LOCAL_TIME ( 18, 49, 57.00000000000000000, #28 ) ;
#208 = CC_DESIGN_APPROVAL ( #14, ( #111 ) ) ;
#209 = CC_DESIGN_PERSON_AND_ORGANIZATION_ASSIGNMENT ( #6, #50, ( #143 ) ) ;
#210 = PERSON_AND_ORGANIZATION ( #18446744073709551615, #18446744073709551615 ) ;
#211 = CC_DESIGN_DATE_AND_TIME_ASSIGNMENT ( #105, #154, ( #170 ) ) ;
#212 = COORDINATED_UNIVERSAL_TIME_OFFSET ( 10, 0, .AHEAD. ) ;
#213 = CALENDAR_DATE ( 2026, 22, 6 ) ;
#214 = APPROVAL_PERSON_ORGANIZATION ( #87, #139, #54 ) ;
#215 = NEXT_ASSEMBLY_USAGE_OCCURRENCE ( 'NAUO190', ' ', ' ', #10, #201, $ ) ;
ENDSEC;
END-ISO-10303-21;
