ISO-10303-21;
HEADER;
FILE_DESCRIPTION (( 'STEP AP203' ),
    '1' );
FILE_NAME ('L20.step.STEP',
    '2026-06-22T08:49:57',
    ( 'localuser' ),
    ( '' ),
    'SwSTEP 2.0',
    'SolidWorks 2025',
    '' );
FILE_SCHEMA (( 'CONFIG_CONTROL_DESIGN' ));
ENDSEC;

DATA;
#1 = SECURITY_CLASSIFICATION_LEVEL ( 'unclassified' ) ;
#2 = CC_DESIGN_PERSON_AND_ORGANIZATION_ASSIGNMENT ( #191, #173, ( #142 ) ) ;
#3 = PROPERTY_DEFINITION_REPRESENTATION ( #92, #53 ) ;
#4 = APPLIED_DOCUMENT_REFERENCE ( #38,'',( #199) ) ;
#5 = APPROVAL ( #166, 'Coincident' ) ;
#6 = APPROVAL_PERSON_ORGANIZATION ( #136, #202, #211 ) ;
#7 = APPROVAL_STATUS ( 'not_yet_approved' ) ;
#8 = DIRECTION ( 'NONE',  ( 0.000000000000000000, 0.000000000000000000, 1.000000000000000000 ) ) ;
#9 = CALENDAR_DATE ( 2026, 22, 6 ) ;
#10 = MECHANICAL_CONTEXT ( 'NONE', #155, 'mechanical' ) ;
#11 = CC_DESIGN_PERSON_AND_ORGANIZATION_ASSIGNMENT ( #177, #118, ( #157 ) ) ;
#12 = CALENDAR_DATE ( 2026, 22, 6 ) ;
#13 = CC_DESIGN_APPROVAL ( #182, ( #189 ) ) ;
#14 = APPROVAL_ROLE ( '' ) ;
#15 = APPROVAL_STATUS ( 'not_yet_approved' ) ;
#16 = CC_DESIGN_DATE_AND_TIME_ASSIGNMENT ( #108, #154, ( #80 ) ) ;
#17 = PERSON_AND_ORGANIZATION_ROLE ( 'creator' ) ;
#18 = CC_DESIGN_APPROVAL ( #168, ( #157 ) ) ;
#19 = APPROVAL_ROLE ( '' ) ;
#20 = LOCAL_TIME ( 18, 49, 57.00000000000000000, #63 ) ;
#21 = COORDINATED_UNIVERSAL_TIME_OFFSET ( 10, 0, .AHEAD. ) ;
#22 = APPROVAL_PERSON_ORGANIZATION ( #50, #168, #97 ) ;
#23 = CARTESIAN_POINT ( 'NONE',  ( 0.000000000000000000, 0.000000000000000000, 0.000000000000000000 ) ) ;
#24 = APPROVAL_DATE_TIME ( #58, #134 ) ;
#25 = CC_DESIGN_PERSON_AND_ORGANIZATION_ASSIGNMENT ( #46, #163, ( #114 ) ) ;
#26 =( NAMED_UNIT ( * ) PLANE_ANGLE_UNIT ( ) SI_UNIT ( $, .RADIAN. ) );
#27 = PRODUCT_DEFINITION_SHAPE ( 'NONE', 'NONE',  #41 ) ;
#28 = DATE_TIME_ROLE ( 'classification_date' ) ;
#29 = COORDINATED_UNIVERSAL_TIME_OFFSET ( 10, 0, .AHEAD. ) ;
#30 = LOCAL_TIME ( 18, 49, 57.00000000000000000, #36 ) ;
#31 = CALENDAR_DATE ( 2026, 22, 6 ) ;
#32 = COORDINATED_UNIVERSAL_TIME_OFFSET ( 10, 0, .AHEAD. ) ;
#33 = UNCERTAINTY_MEASURE_WITH_UNIT (LENGTH_MEASURE( 1.000000000000000082E-05 ), #160, 'distance_accuracy_value', 'NONE');
#34 = DATE_TIME_ROLE ( 'creation_date' ) ;
#35 = ORGANIZATION ( 'NAUO-ORG187', 'UNSPECIFIED', 'UNSPECIFIED' ) ;
#36 = COORDINATED_UNIVERSAL_TIME_OFFSET ( 10, 0, .AHEAD. ) ;
#37 = SECURITY_CLASSIFICATION_LEVEL ( 'unclassified' ) ;
#38 = DOCUMENT_FILE ( '11552552384.step.STEP' , '', '', #135, '' ,$ ) ;
#39 = SECURITY_CLASSIFICATION_LEVEL ( 'unclassified' ) ;
#40 = SHAPE_REPRESENTATION ( 'L20.step', ( #125, #188 ), #183 ) ;
#41 = PRODUCT_DEFINITION ( 'General', '', #157, #103 ) ;
#42 = CC_DESIGN_APPROVAL ( #47, ( #114 ) ) ;
#43 = PERSON_AND_ORGANIZATION ( #18446744073709551615, #18446744073709551615 ) ;
#44 = DESIGN_CONTEXT ( 'detailed design', #111, 'design' ) ;
#45 = DATE_AND_TIME ( #12, #138 ) ;
#46 = PERSON_AND_ORGANIZATION ( #18446744073709551615, #18446744073709551615 ) ;
#47 = APPROVAL ( #15, 'Coincident' ) ;
#48 = LOCAL_TIME ( 18, 49, 57.00000000000000000, #212 ) ;
#49 = UNCERTAINTY_MEASURE_WITH_UNIT (LENGTH_MEASURE( 1.000000000000000082E-05 ), #124, 'distance_accuracy_value', 'NONE');
#50 = PERSON_AND_ORGANIZATION ( #18446744073709551615, #18446744073709551615 ) ;
#51 = CC_DESIGN_APPROVAL ( #5, ( #199 ) ) ;
#52 = APPROVAL_PERSON_ORGANIZATION ( #203, #134, #19 ) ;
#53 = SHAPE_REPRESENTATION ( '11552552384.step', ( #178 ), #68 ) ;
#54 = APPROVAL_STATUS ( 'not_yet_approved' ) ;
#55 = APPROVAL ( #7, 'UNKNOWN' ) ;
#56 =( REPRESENTATION_RELATIONSHIP ('NONE','NONE', #40, #53 ) REPRESENTATION_RELATIONSHIP_WITH_TRANSFORMATION ( #91 )SHAPE_REPRESENTATION_RELATIONSHIP( ) );
#57 = COORDINATED_UNIVERSAL_TIME_OFFSET ( 10, 0, .AHEAD. ) ;
#58 = DATE_AND_TIME ( #122, #133 ) ;
#59 = COORDINATED_UNIVERSAL_TIME_OFFSET ( 10, 0, .AHEAD. ) ;
#60 = CC_DESIGN_DATE_AND_TIME_ASSIGNMENT ( #185, #139, ( #148 ) ) ;
#61 = PROPERTY_DEFINITION ('document property','', #38 ) ;
#62 = APPROVAL_PERSON_ORGANIZATION ( #113, #5, #14 ) ;
#63 = COORDINATED_UNIVERSAL_TIME_OFFSET ( 10, 0, .AHEAD. ) ;
#64 = PERSON_AND_ORGANIZATION ( #18446744073709551615, #18446744073709551615 ) ;
#65 = CC_DESIGN_PERSON_AND_ORGANIZATION_ASSIGNMENT ( #99, #176, ( #157 ) ) ;
#66 = COORDINATED_UNIVERSAL_TIME_OFFSET ( 10, 0, .AHEAD. ) ;
#67 = MECHANICAL_CONTEXT ( 'NONE', #175, 'mechanical' ) ;
#68 =( GEOMETRIC_REPRESENTATION_CONTEXT ( 3 ) GLOBAL_UNCERTAINTY_ASSIGNED_CONTEXT ( ( #33 ) ) GLOBAL_UNIT_ASSIGNED_CONTEXT ( ( #160, #26, #110 ) ) REPRESENTATION_CONTEXT ( 'NONE', 'WORKASPACE' ) );
#69 = DATE_AND_TIME ( #31, #107 ) ;
#70 = CC_DESIGN_PERSON_AND_ORGANIZATION_ASSIGNMENT ( #187, #87, ( #80 ) ) ;
#71 = APPROVAL_DATE_TIME ( #149, #182 ) ;
#72 = CC_DESIGN_SECURITY_CLASSIFICATION ( #114, ( #157 ) ) ;
#73 = DATE_AND_TIME ( #9, #89 ) ;
#74 = PERSON_AND_ORGANIZATION_ROLE ( 'classification_officer' ) ;
#75 = APPLICATION_PROTOCOL_DEFINITION ( 'international standard', 'config_control_design', 1994, #155 ) ;
#76 = CONTEXT_DEPENDENT_SHAPE_REPRESENTATION ( #56, #192 ) ;
#77 = DIRECTION ( 'NONE',  ( 1.000000000000000000, 0.000000000000000000, 0.000000000000000000 ) ) ;
#78 = PERSON_AND_ORGANIZATION ( #18446744073709551615, #18446744073709551615 ) ;
#79 = CALENDAR_DATE ( 2026, 22, 6 ) ;
#80 = SECURITY_CLASSIFICATION ( '', '', #39 ) ;
#81 = PERSON_AND_ORGANIZATION ( #18446744073709551615, #18446744073709551615 ) ;
#82 = CALENDAR_DATE ( 2026, 22, 6 ) ;
#83 = CC_DESIGN_DATE_AND_TIME_ASSIGNMENT ( #104, #28, ( #114 ) ) ;
#84 = PERSON_AND_ORGANIZATION_ROLE ( 'creator' ) ;
#85 = LOCAL_TIME ( 18, 49, 57.00000000000000000, #32 ) ;
#86 = APPROVAL_DATE_TIME ( #73, #55 ) ;
#87 = PERSON_AND_ORGANIZATION_ROLE ( 'classification_officer' ) ;
#88 = CALENDAR_DATE ( 2026, 22, 6 ) ;
#89 = LOCAL_TIME ( 18, 49, 57.00000000000000000, #57 ) ;
#90 = CARTESIAN_POINT ( 'NONE',  ( 15.74999719235400164, 23.15000561523400791, 0.000000000000000000 ) ) ;
#91 = ITEM_DEFINED_TRANSFORMATION ( 'NONE', 'NONE', #188,  #178 ) ;
#92 = PROPERTY_DEFINITION ('external definition','', #38 ) ;
#93 = PRODUCT_RELATED_PRODUCT_CATEGORY ( 'detail', '', ( #127 ) ) ;
#94 = CC_DESIGN_APPROVAL ( #202, ( #41 ) ) ;
#95 = DIRECTION ( 'NONE',  ( 1.000000000000000000, 0.000000000000000000, 0.000000000000000000 ) ) ;
#96 =( NAMED_UNIT ( * ) PLANE_ANGLE_UNIT ( ) SI_UNIT ( $, .RADIAN. ) );
#97 = APPROVAL_ROLE ( '' ) ;
#98 = LOCAL_TIME ( 18, 49, 57.00000000000000000, #29 ) ;
#99 = PERSON_AND_ORGANIZATION ( #18446744073709551615, #18446744073709551615 ) ;
#100 = APPROVAL_DATE_TIME ( #69, #202 ) ;
#101 = APPLICATION_PROTOCOL_DEFINITION ( 'international standard', 'config_control_design', 1994, #111 ) ;
#102 = APPLICATION_CONTEXT ( 'configuration controlled 3d designs of mechanical parts and assemblies' ) ;
#103 = DESIGN_CONTEXT ( 'detailed design', #102, 'design' ) ;
#104 = DATE_AND_TIME ( #115, #48 ) ;
#105 = CC_DESIGN_PERSON_AND_ORGANIZATION_ASSIGNMENT ( #123, #171, ( #189 ) ) ;
#106 = CARTESIAN_POINT ( 'NONE',  ( 0.000000000000000000, 0.000000000000000000, 0.000000000000000000 ) ) ;
#107 = LOCAL_TIME ( 18, 49, 57.00000000000000000, #151 ) ;
#108 = DATE_AND_TIME ( #88, #30 ) ;
#109 = PRODUCT_DEFINITION_SHAPE ( 'NONE', 'NONE',  #199 ) ;
#110 =( NAMED_UNIT ( * ) SI_UNIT ( $, .STERADIAN. ) SOLID_ANGLE_UNIT ( ) );
#111 = APPLICATION_CONTEXT ( 'configuration controlled 3d designs of mechanical parts and assemblies' ) ;
#112 = APPROVAL_DATE_TIME ( #165, #168 ) ;
#113 = PERSON_AND_ORGANIZATION ( #18446744073709551615, #18446744073709551615 ) ;
#114 = SECURITY_CLASSIFICATION ( '', '', #1 ) ;
#115 = CALENDAR_DATE ( 2026, 22, 6 ) ;
#116 = CC_DESIGN_SECURITY_CLASSIFICATION ( #80, ( #215 ) ) ;
#117 = CALENDAR_DATE ( 2026, 22, 6 ) ;
#118 = PERSON_AND_ORGANIZATION_ROLE ( 'creator' ) ;
#119 = PERSON_AND_ORGANIZATION_ROLE ( 'creator' ) ;
#120 = PERSON ( 'NAUO-PER187', 'UNSPECIFIED', 'UNSPECIFIED', ('UNSPECIFIED'), ('UNSPECIFIED'), ('UNSPECIFIED') ) ;
#121 = PERSON_AND_ORGANIZATION ( #18446744073709551615, #18446744073709551615 ) ;
#122 = CALENDAR_DATE ( 2026, 22, 6 ) ;
#123 = PERSON_AND_ORGANIZATION ( #18446744073709551615, #18446744073709551615 ) ;
#124 =( LENGTH_UNIT ( ) NAMED_UNIT ( * ) SI_UNIT ( .MILLI., .METRE. ) );
#125 = AXIS2_PLACEMENT_3D ( 'NONE', #23, #140, #77 ) ;
#126 = CC_DESIGN_DATE_AND_TIME_ASSIGNMENT ( #181, #34, ( #199 ) ) ;
#127 = PRODUCT ( '11552552384.step', '11552552384.step', '', ( #67 ) ) ;
#128 = APPROVAL_PERSON_ORGANIZATION ( #78, #182, #195 ) ;
#129 = APPROVAL_DATE_TIME ( #45, #47 ) ;
#130 = CALENDAR_DATE ( 2026, 22, 6 ) ;
#131 = CALENDAR_DATE ( 2026, 22, 6 ) ;
#132 = PERSON_AND_ORGANIZATION ( #18446744073709551615, #18446744073709551615 ) ;
#133 = LOCAL_TIME ( 18, 49, 57.00000000000000000, #21 ) ;
#134 = APPROVAL ( #159, 'Coincident' ) ;
#135 = DOCUMENT_TYPE ( 'geometry' ) ;
#136 = PERSON_AND_ORGANIZATION ( #18446744073709551615, #18446744073709551615 ) ;
#137 = PROPERTY_DEFINITION_REPRESENTATION ( #61, #53 ) ;
#138 = LOCAL_TIME ( 18, 49, 57.00000000000000000, #194 ) ;
#139 = DATE_TIME_ROLE ( 'classification_date' ) ;
#140 = DIRECTION ( 'NONE',  ( 0.000000000000000000, 0.000000000000000000, 1.000000000000000000 ) ) ;
#141 = PERSON_AND_ORGANIZATION ( #18446744073709551615, #18446744073709551615 ) ;
#142 = PRODUCT ( 'L20.step', 'L20.step', '', ( #10 ) ) ;
#143 = DIRECTION ( 'NONE',  ( 4.890937612370273194E-29, -3.155443620884047222E-30, 0.9999999999999997780 ) ) ;
#144 = CC_DESIGN_PERSON_AND_ORGANIZATION_ASSIGNMENT ( #141, #119, ( #189 ) ) ;
#145 = EXTERNAL_SOURCE (IDENTIFIER('') ) ;
#146 = APPROVAL_STATUS ( 'not_yet_approved' ) ;
#147 = LOCAL_TIME ( 18, 49, 57.00000000000000000, #150 ) ;
#148 = SECURITY_CLASSIFICATION ( '', '', #37 ) ;
#149 = DATE_AND_TIME ( #79, #20 ) ;
#150 = COORDINATED_UNIVERSAL_TIME_OFFSET ( 10, 0, .AHEAD. ) ;
#151 = COORDINATED_UNIVERSAL_TIME_OFFSET ( 10, 0, .AHEAD. ) ;
#152 = APPLICATION_PROTOCOL_DEFINITION ( 'international standard', 'config_control_design', 1994, #102 ) ;
#153 = LOCAL_TIME ( 18, 49, 57.00000000000000000, #59 ) ;
#154 = DATE_TIME_ROLE ( 'classification_date' ) ;
#155 = APPLICATION_CONTEXT ( 'configuration controlled 3d designs of mechanical parts and assemblies' ) ;
#156 = APPROVAL_ROLE ( '' ) ;
#157 = PRODUCT_DEFINITION_FORMATION_WITH_SPECIFIED_SOURCE ( 'Symmetric', '', #142, .NOT_KNOWN. ) ;
#158 = DIRECTION ( 'NONE',  ( 1.000000000000000222, -1.092455418989176591E-28, 4.890937612370273194E-29 ) ) ;
#159 = APPROVAL_STATUS ( 'not_yet_approved' ) ;
#160 =( LENGTH_UNIT ( ) NAMED_UNIT ( * ) SI_UNIT ( .MILLI., .METRE. ) );
#161 = CC_DESIGN_PERSON_AND_ORGANIZATION_ASSIGNMENT ( #132, #169, ( #127 ) ) ;
#162 = APPROVAL_ROLE ( '' ) ;
#163 = PERSON_AND_ORGANIZATION_ROLE ( 'classification_officer' ) ;
#164 = CC_DESIGN_PERSON_AND_ORGANIZATION_ASSIGNMENT ( #81, #17, ( #199 ) ) ;
#165 = DATE_AND_TIME ( #82, #147 ) ;
#166 = APPROVAL_STATUS ( 'not_yet_approved' ) ;
#167 = IDENTIFICATION_ROLE ( 'external document id and location', $) ;
#168 = APPROVAL ( #54, 'Coincident' ) ;
#169 = PERSON_AND_ORGANIZATION_ROLE ( 'design_owner' ) ;
#170 = ROLE_ASSOCIATION ( #184, #4 ) ;
#171 = PERSON_AND_ORGANIZATION_ROLE ( 'design_supplier' ) ;
#172 = CC_DESIGN_SECURITY_CLASSIFICATION ( #148, ( #189 ) ) ;
#173 = PERSON_AND_ORGANIZATION_ROLE ( 'design_owner' ) ;
#174 = CC_DESIGN_PERSON_AND_ORGANIZATION_ASSIGNMENT ( #43, #84, ( #41 ) ) ;
#175 = APPLICATION_CONTEXT ( 'configuration controlled 3d designs of mechanical parts and assemblies' ) ;
#176 = PERSON_AND_ORGANIZATION_ROLE ( 'design_supplier' ) ;
#177 = PERSON_AND_ORGANIZATION ( #18446744073709551615, #18446744073709551615 ) ;
#178 = AXIS2_PLACEMENT_3D ( 'NONE', #106, #8, #95 ) ;
#179 = APPLICATION_PROTOCOL_DEFINITION ( 'international standard', 'config_control_design', 1994, #175 ) ;
#180 = DATE_AND_TIME ( #117, #85 ) ;
#181 = DATE_AND_TIME ( #131, #206 ) ;
#182 = APPROVAL ( #146, 'Coincident' ) ;
#183 =( GEOMETRIC_REPRESENTATION_CONTEXT ( 3 ) GLOBAL_UNCERTAINTY_ASSIGNED_CONTEXT ( ( #49 ) ) GLOBAL_UNIT_ASSIGNED_CONTEXT ( ( #124, #96, #205 ) ) REPRESENTATION_CONTEXT ( 'NONE', 'WORKASPACE' ) );
#184 = OBJECT_ROLE ('mandatory',$ ) ;
#185 = DATE_AND_TIME ( #190, #153 ) ;
#186 = PRODUCT_RELATED_PRODUCT_CATEGORY ( 'detail', '', ( #142 ) ) ;
#187 = PERSON_AND_ORGANIZATION ( #120, #35 ) ;
#188 = AXIS2_PLACEMENT_3D ( 'NONE', #90, #143, #158 ) ;
#189 = PRODUCT_DEFINITION_FORMATION_WITH_SPECIFIED_SOURCE ( 'Symmetric', '', #127, .NOT_KNOWN. ) ;
#190 = CALENDAR_DATE ( 2026, 22, 6 ) ;
#191 = PERSON_AND_ORGANIZATION ( #18446744073709551615, #18446744073709551615 ) ;
#192 = PRODUCT_DEFINITION_SHAPE ( 'NONE', 'NONE',  #215 ) ;
#193 = APPROVAL_DATE_TIME ( #180, #5 ) ;
#194 = COORDINATED_UNIVERSAL_TIME_OFFSET ( 10, 0, .AHEAD. ) ;
#195 = APPROVAL_ROLE ( '' ) ;
#196 = APPROVAL_STATUS ( 'not_yet_approved' ) ;
#197 = CC_DESIGN_APPROVAL ( #55, ( #80 ) ) ;
#198 = DATE_AND_TIME ( #130, #98 ) ;
#199 = PRODUCT_DEFINITION ( 'General', '', #189, #44 ) ;
#200 = APPROVAL_PERSON_ORGANIZATION ( #64, #47, #162 ) ;
#201 = APPLIED_EXTERNAL_IDENTIFICATION_ASSIGNMENT ( '11552552384.step.STEP' , #167, #145,( #38) ) ;
#202 = APPROVAL ( #196, 'Coincident' ) ;
#203 = PERSON_AND_ORGANIZATION ( #18446744073709551615, #18446744073709551615 ) ;
#204 = SHAPE_DEFINITION_REPRESENTATION ( #109, #53 ) ;
#205 =( NAMED_UNIT ( * ) SI_UNIT ( $, .STERADIAN. ) SOLID_ANGLE_UNIT ( ) );
#206 = LOCAL_TIME ( 18, 49, 57.00000000000000000, #66 ) ;
#207 = APPROVAL_PERSON_ORGANIZATION ( #187, #55, #156 ) ;
#208 = CC_DESIGN_PERSON_AND_ORGANIZATION_ASSIGNMENT ( #121, #74, ( #148 ) ) ;
#209 = DATE_TIME_ROLE ( 'creation_date' ) ;
#210 = CC_DESIGN_DATE_AND_TIME_ASSIGNMENT ( #198, #209, ( #41 ) ) ;
#211 = APPROVAL_ROLE ( '' ) ;
#212 = COORDINATED_UNIVERSAL_TIME_OFFSET ( 10, 0, .AHEAD. ) ;
#213 = SHAPE_DEFINITION_REPRESENTATION ( #27, #40 ) ;
#214 = CC_DESIGN_APPROVAL ( #134, ( #148 ) ) ;
#215 = NEXT_ASSEMBLY_USAGE_OCCURRENCE ( 'NAUO187', ' ', ' ', #41, #199, $ ) ;
ENDSEC;
END-ISO-10303-21;
