ISO-10303-21;
HEADER;
FILE_DESCRIPTION (( 'STEP AP203' ),
    '1' );
FILE_NAME ('L23.step.STEP',
    '2026-06-22T08:49:53',
    ( 'localuser' ),
    ( '' ),
    'SwSTEP 2.0',
    'SolidWorks 2025',
    '' );
FILE_SCHEMA (( 'CONFIG_CONTROL_DESIGN' ));
ENDSEC;

DATA;
#1 = PERSON_AND_ORGANIZATION ( #214, #41 ) ;
#2 = SECURITY_CLASSIFICATION_LEVEL ( 'unclassified' ) ;
#3 = SHAPE_DEFINITION_REPRESENTATION ( #218, #171 ) ;
#4 = APPLICATION_CONTEXT ( 'configuration controlled 3d designs of mechanical parts and assemblies' ) ;
#5 = APPROVAL_DATE_TIME ( #140, #37 ) ;
#6 = APPROVAL_STATUS ( 'not_yet_approved' ) ;
#7 = PRODUCT_DEFINITION ( 'General', '', #79, #291 ) ;
#8 = APPROVAL_PERSON_ORGANIZATION ( #252, #297, #155 ) ;
#9 = ITEM_DEFINED_TRANSFORMATION ( 'NONE', 'NONE', #193,  #342 ) ;
#10 = PERSON_AND_ORGANIZATION_ROLE ( 'design_supplier' ) ;
#11 = DIRECTION ( 'NONE',  ( 1.000000000000000222, -1.092455418989176591E-28, 4.890937612370273194E-29 ) ) ;
#12 = APPROVAL ( #248, 'Coincident' ) ;
#13 = AXIS2_PLACEMENT_3D ( 'NONE', #81, #191, #317 ) ;
#14 = APPROVAL_ROLE ( '' ) ;
#15 = LOCAL_TIME ( 18, 49, 53.00000000000000000, #325 ) ;
#16 = COORDINATED_UNIVERSAL_TIME_OFFSET ( 10, 0, .AHEAD. ) ;
#17 = APPLICATION_PROTOCOL_DEFINITION ( 'international standard', 'config_control_design', 1994, #295 ) ;
#18 = LOCAL_TIME ( 18, 49, 53.00000000000000000, #114 ) ;
#19 = DATE_AND_TIME ( #242, #145 ) ;
#20 = CC_DESIGN_PERSON_AND_ORGANIZATION_ASSIGNMENT ( #34, #33, ( #63 ) ) ;
#21 = PERSON_AND_ORGANIZATION ( #18446744073709551615, #18446744073709551615 ) ;
#22 = SECURITY_CLASSIFICATION_LEVEL ( 'unclassified' ) ;
#23 = APPROVAL ( #377, 'Coincident' ) ;
#24 = DATE_AND_TIME ( #311, #247 ) ;
#25 = LOCAL_TIME ( 18, 49, 53.00000000000000000, #366 ) ;
#26 = DATE_AND_TIME ( #289, #96 ) ;
#27 = ROLE_ASSOCIATION ( #134, #303 ) ;
#28 = DIRECTION ( 'NONE',  ( 4.890937612370273194E-29, -3.155443620884047222E-30, 0.9999999999999997780 ) ) ;
#29 = CC_DESIGN_DATE_AND_TIME_ASSIGNMENT ( #136, #355, ( #78 ) ) ;
#30 = PROPERTY_DEFINITION_REPRESENTATION ( #100, #88 ) ;
#31 = CC_DESIGN_APPROVAL ( #12, ( #40 ) ) ;
#32 = APPROVAL_PERSON_ORGANIZATION ( #353, #71, #158 ) ;
#33 = PERSON_AND_ORGANIZATION_ROLE ( 'classification_officer' ) ;
#34 = PERSON_AND_ORGANIZATION ( #385, #313 ) ;
#35 = SECURITY_CLASSIFICATION_LEVEL ( 'unclassified' ) ;
#36 = APPROVAL_STATUS ( 'not_yet_approved' ) ;
#37 = APPROVAL ( #264, 'Coincident' ) ;
#38 = CC_DESIGN_SECURITY_CLASSIFICATION ( #374, ( #389 ) ) ;
#39 = DIRECTION ( 'NONE',  ( 1.000000000000000222, -1.092455418989176591E-28, 4.890937612370273194E-29 ) ) ;
#40 = PRODUCT_DEFINITION ( 'General', '', #162, #91 ) ;
#41 = ORGANIZATION ( 'NAUO-ORG52', 'UNSPECIFIED', 'UNSPECIFIED' ) ;
#42 = EXTERNAL_SOURCE (IDENTIFIER('') ) ;
#43 = CC_DESIGN_PERSON_AND_ORGANIZATION_ASSIGNMENT ( #104, #189, ( #103 ) ) ;
#44 = COORDINATED_UNIVERSAL_TIME_OFFSET ( 10, 0, .AHEAD. ) ;
#45 = PRODUCT_DEFINITION_SHAPE ( 'NONE', 'NONE',  #390 ) ;
#46 = PRODUCT_DEFINITION_SHAPE ( 'NONE', 'NONE',  #78 ) ;
#47 = DATE_AND_TIME ( #219, #175 ) ;
#48 = APPROVAL_PERSON_ORGANIZATION ( #98, #326, #14 ) ;
#49 = DATE_AND_TIME ( #222, #356 ) ;
#50 = COORDINATED_UNIVERSAL_TIME_OFFSET ( 10, 0, .AHEAD. ) ;
#51 = APPLICATION_PROTOCOL_DEFINITION ( 'international standard', 'config_control_design', 1994, #314 ) ;
#52 = PERSON_AND_ORGANIZATION ( #18446744073709551615, #18446744073709551615 ) ;
#53 = LOCAL_TIME ( 18, 49, 53.00000000000000000, #50 ) ;
#54 = PERSON_AND_ORGANIZATION_ROLE ( 'classification_officer' ) ;
#55 = COORDINATED_UNIVERSAL_TIME_OFFSET ( 10, 0, .AHEAD. ) ;
#56 = DATE_AND_TIME ( #198, #240 ) ;
#57 = CC_DESIGN_APPROVAL ( #147, ( #7 ) ) ;
#58 = DATE_AND_TIME ( #300, #361 ) ;
#59 = CARTESIAN_POINT ( 'NONE',  ( 5.099988037080001924, 24.07497814941400449, 0.000000000000000000 ) ) ;
#60 = DATE_TIME_ROLE ( 'classification_date' ) ;
#61 = DIRECTION ( 'NONE',  ( 4.890937612370273194E-29, -3.155443620884047222E-30, 0.9999999999999997780 ) ) ;
#62 = DATE_TIME_ROLE ( 'classification_date' ) ;
#63 = SECURITY_CLASSIFICATION ( '', '', #2 ) ;
#64 = CC_DESIGN_DATE_AND_TIME_ASSIGNMENT ( #56, #62, ( #374 ) ) ;
#65 = DATE_TIME_ROLE ( 'classification_date' ) ;
#66 = DATE_TIME_ROLE ( 'creation_date' ) ;
#67 = CC_DESIGN_SECURITY_CLASSIFICATION ( #287, ( #187 ) ) ;
#68 = PERSON_AND_ORGANIZATION ( #18446744073709551615, #18446744073709551615 ) ;
#69 = IDENTIFICATION_ROLE ( 'external document id and location', $) ;
#70 =( NAMED_UNIT ( * ) PLANE_ANGLE_UNIT ( ) SI_UNIT ( $, .RADIAN. ) );
#71 = APPROVAL ( #77, 'Coincident' ) ;
#72 = APPROVAL_PERSON_ORGANIZATION ( #345, #147, #344 ) ;
#73 = APPROVAL_DATE_TIME ( #349, #297 ) ;
#74 = CC_DESIGN_APPROVAL ( #71, ( #187 ) ) ;
#75 = PERSON_AND_ORGANIZATION ( #18446744073709551615, #18446744073709551615 ) ;
#76 = COORDINATED_UNIVERSAL_TIME_OFFSET ( 10, 0, .AHEAD. ) ;
#77 = APPROVAL_STATUS ( 'not_yet_approved' ) ;
#78 = PRODUCT_DEFINITION ( 'General', '', #187, #354 ) ;
#79 = PRODUCT_DEFINITION_FORMATION_WITH_SPECIFIED_SOURCE ( 'Symmetric', '', #346, .NOT_KNOWN. ) ;
#80 = LOCAL_TIME ( 18, 49, 53.00000000000000000, #330 ) ;
#81 = CARTESIAN_POINT ( 'NONE',  ( 0.000000000000000000, 0.000000000000000000, 0.000000000000000000 ) ) ;
#82 = APPROVAL_ROLE ( '' ) ;
#83 = PERSON_AND_ORGANIZATION ( #18446744073709551615, #18446744073709551615 ) ;
#84 = DOCUMENT_TYPE ( 'geometry' ) ;
#85 = CC_DESIGN_PERSON_AND_ORGANIZATION_ASSIGNMENT ( #75, #378, ( #78 ) ) ;
#86 = APPROVAL_DATE_TIME ( #58, #220 ) ;
#87 =( GEOMETRIC_REPRESENTATION_CONTEXT ( 3 ) GLOBAL_UNCERTAINTY_ASSIGNED_CONTEXT ( ( #318 ) ) GLOBAL_UNIT_ASSIGNED_CONTEXT ( ( #200, #254, #256 ) ) REPRESENTATION_CONTEXT ( 'NONE', 'WORKASPACE' ) );
#88 = SHAPE_REPRESENTATION ( '6461076016.step', ( #342 ), #87 ) ;
#89 = CALENDAR_DATE ( 2026, 22, 6 ) ;
#90 = DATE_AND_TIME ( #362, #18 ) ;
#91 = DESIGN_CONTEXT ( 'detailed design', #4, 'design' ) ;
#92 = DATE_AND_TIME ( #89, #279 ) ;
#93 = APPROVAL_DATE_TIME ( #271, #326 ) ;
#94 = CC_DESIGN_PERSON_AND_ORGANIZATION_ASSIGNMENT ( #83, #174, ( #350 ) ) ;
#95 = DOCUMENT_TYPE ( 'geometry' ) ;
#96 = LOCAL_TIME ( 18, 49, 53.00000000000000000, #161 ) ;
#97 = PROPERTY_DEFINITION_REPRESENTATION ( #281, #88 ) ;
#98 = PERSON_AND_ORGANIZATION ( #205, #209 ) ;
#99 = CC_DESIGN_APPROVAL ( #259, ( #374 ) ) ;
#100 = PROPERTY_DEFINITION ('document property','', #172 ) ;
#101 = COORDINATED_UNIVERSAL_TIME_OFFSET ( 10, 0, .AHEAD. ) ;
#102 = CC_DESIGN_PERSON_AND_ORGANIZATION_ASSIGNMENT ( #176, #211, ( #246 ) ) ;
#103 = PRODUCT ( '6461075776.step', '6461075776.step', '', ( #315 ) ) ;
#104 = PERSON_AND_ORGANIZATION ( #18446744073709551615, #18446744073709551615 ) ;
#105 = DATE_AND_TIME ( #379, #343 ) ;
#106 = CC_DESIGN_APPROVAL ( #109, ( #79 ) ) ;
#107 = CALENDAR_DATE ( 2026, 22, 6 ) ;
#108 = PERSON_AND_ORGANIZATION ( #18446744073709551615, #18446744073709551615 ) ;
#109 = APPROVAL ( #276, 'Coincident' ) ;
#110 = APPROVAL_ROLE ( '' ) ;
#111 = APPROVAL_PERSON_ORGANIZATION ( #1, #259, #141 ) ;
#112 = ROLE_ASSOCIATION ( #367, #262 ) ;
#113 = CC_DESIGN_DATE_AND_TIME_ASSIGNMENT ( #24, #192, ( #40 ) ) ;
#114 = COORDINATED_UNIVERSAL_TIME_OFFSET ( 10, 0, .AHEAD. ) ;
#115 = PROPERTY_DEFINITION_REPRESENTATION ( #365, #288 ) ;
#116 = SHAPE_DEFINITION_REPRESENTATION ( #152, #288 ) ;
#117 = APPLICATION_CONTEXT ( 'configuration controlled 3d designs of mechanical parts and assemblies' ) ;
#118 = PERSON_AND_ORGANIZATION ( #18446744073709551615, #18446744073709551615 ) ;
#119 = CC_DESIGN_APPROVAL ( #280, ( #350 ) ) ;
#120 = UNCERTAINTY_MEASURE_WITH_UNIT (LENGTH_MEASURE( 1.000000000000000082E-05 ), #149, 'distance_accuracy_value', 'NONE');
#121 = COORDINATED_UNIVERSAL_TIME_OFFSET ( 10, 0, .AHEAD. ) ;
#122 = APPROVAL_PERSON_ORGANIZATION ( #151, #109, #309 ) ;
#123 = LOCAL_TIME ( 18, 49, 53.00000000000000000, #121 ) ;
#124 = OBJECT_ROLE ('mandatory',$ ) ;
#125 = CONTEXT_DEPENDENT_SHAPE_REPRESENTATION ( #196, #45 ) ;
#126 = CC_DESIGN_SECURITY_CLASSIFICATION ( #350, ( #79 ) ) ;
#127 = APPLICATION_PROTOCOL_DEFINITION ( 'international standard', 'config_control_design', 1994, #4 ) ;
#128 = PROPERTY_DEFINITION ('external definition','', #172 ) ;
#129 = APPROVAL_ROLE ( '' ) ;
#130 = SECURITY_CLASSIFICATION_LEVEL ( 'unclassified' ) ;
#131 = PERSON_AND_ORGANIZATION ( #18446744073709551615, #18446744073709551615 ) ;
#132 =( LENGTH_UNIT ( ) NAMED_UNIT ( * ) SI_UNIT ( .MILLI., .METRE. ) );
#133 = CC_DESIGN_APPROVAL ( #220, ( #63 ) ) ;
#134 = OBJECT_ROLE ('mandatory',$ ) ;
#135 = DATE_AND_TIME ( #167, #273 ) ;
#136 = DATE_AND_TIME ( #107, #146 ) ;
#137 = DOCUMENT_TYPE ( 'geometry' ) ;
#138 = APPROVAL ( #6, 'Coincident' ) ;
#139 = APPLICATION_CONTEXT ( 'configuration controlled 3d designs of mechanical parts and assemblies' ) ;
#140 = DATE_AND_TIME ( #298, #226 ) ;
#141 = APPROVAL_ROLE ( '' ) ;
#142 = DATE_TIME_ROLE ( 'classification_date' ) ;
#143 = COORDINATED_UNIVERSAL_TIME_OFFSET ( 10, 0, .AHEAD. ) ;
#144 = PERSON_AND_ORGANIZATION ( #18446744073709551615, #18446744073709551615 ) ;
#145 = LOCAL_TIME ( 18, 49, 53.00000000000000000, #16 ) ;
#146 = LOCAL_TIME ( 18, 49, 53.00000000000000000, #384 ) ;
#147 = APPROVAL ( #183, 'Coincident' ) ;
#148 = CC_DESIGN_SECURITY_CLASSIFICATION ( #63, ( #388 ) ) ;
#149 =( LENGTH_UNIT ( ) NAMED_UNIT ( * ) SI_UNIT ( .MILLI., .METRE. ) );
#150 = IDENTIFICATION_ROLE ( 'external document id and location', $) ;
#151 = PERSON_AND_ORGANIZATION ( #18446744073709551615, #18446744073709551615 ) ;
#152 = PRODUCT_DEFINITION_SHAPE ( 'NONE', 'NONE',  #40 ) ;
#153 = CC_DESIGN_PERSON_AND_ORGANIZATION_ASSIGNMENT ( #307, #244, ( #346 ) ) ;
#154 = SECURITY_CLASSIFICATION ( '', '', #199 ) ;
#155 = APPROVAL_ROLE ( '' ) ;
#156 = CC_DESIGN_PERSON_AND_ORGANIZATION_ASSIGNMENT ( #98, #308, ( #154 ) ) ;
#157 = PERSON_AND_ORGANIZATION ( #18446744073709551615, #18446744073709551615 ) ;
#158 = APPROVAL_ROLE ( '' ) ;
#159 = CARTESIAN_POINT ( 'NONE',  ( 0.000000000000000000, 0.000000000000000000, 0.000000000000000000 ) ) ;
#160 = CC_DESIGN_PERSON_AND_ORGANIZATION_ASSIGNMENT ( #255, #380, ( #187 ) ) ;
#161 = COORDINATED_UNIVERSAL_TIME_OFFSET ( 10, 0, .AHEAD. ) ;
#162 = PRODUCT_DEFINITION_FORMATION_WITH_SPECIFIED_SOURCE ( 'Symmetric', '', #103, .NOT_KNOWN. ) ;
#163 = SHAPE_DEFINITION_REPRESENTATION ( #46, #88 ) ;
#164 = CC_DESIGN_DATE_AND_TIME_ASSIGNMENT ( #323, #194, ( #287 ) ) ;
#165 = DIRECTION ( 'NONE',  ( 1.000000000000000222, -1.092455418989176591E-28, 4.890937612370273194E-29 ) ) ;
#166 = PERSON_AND_ORGANIZATION_ROLE ( 'classification_officer' ) ;
#167 = CALENDAR_DATE ( 2026, 22, 6 ) ;
#168 = DOCUMENT_FILE ( '6461075776.step.STEP' , '', '', #137, '' ,$ ) ;
#169 = APPROVAL_PERSON_ORGANIZATION ( #328, #37, #364 ) ;
#170 = CALENDAR_DATE ( 2026, 22, 6 ) ;
#171 = SHAPE_REPRESENTATION ( 'L23.step', ( #321, #207, #360, #193 ), #239 ) ;
#172 = DOCUMENT_FILE ( '6461076016.step.STEP' , '', '', #84, '' ,$ ) ;
#173 = APPROVAL_DATE_TIME ( #90, #280 ) ;
#174 = PERSON_AND_ORGANIZATION_ROLE ( 'classification_officer' ) ;
#175 = LOCAL_TIME ( 18, 49, 53.00000000000000000, #101 ) ;
#176 = PERSON_AND_ORGANIZATION ( #18446744073709551615, #18446744073709551615 ) ;
#177 =( NAMED_UNIT ( * ) PLANE_ANGLE_UNIT ( ) SI_UNIT ( $, .RADIAN. ) );
#178 = CC_DESIGN_PERSON_AND_ORGANIZATION_ASSIGNMENT ( #68, #250, ( #40 ) ) ;
#179 = APPLIED_DOCUMENT_REFERENCE ( #358,'',( #78) ) ;
#180 = APPROVAL_PERSON_ORGANIZATION ( #118, #280, #305 ) ;
#181 = DIRECTION ( 'NONE',  ( 1.000000000000000000, 0.000000000000000000, 0.000000000000000000 ) ) ;
#182 = PRODUCT_DEFINITION_SHAPE ( 'NONE', 'NONE',  #388 ) ;
#183 = APPROVAL_STATUS ( 'not_yet_approved' ) ;
#184 = PERSON_AND_ORGANIZATION ( #18446744073709551615, #18446744073709551615 ) ;
#185 = DIRECTION ( 'NONE',  ( 0.000000000000000000, 0.000000000000000000, 1.000000000000000000 ) ) ;
#186 = PROPERTY_DEFINITION_REPRESENTATION ( #128, #88 ) ;
#187 = PRODUCT_DEFINITION_FORMATION_WITH_SPECIFIED_SOURCE ( 'Symmetric', '', #246, .NOT_KNOWN. ) ;
#188 = CC_DESIGN_SECURITY_CLASSIFICATION ( #154, ( #390 ) ) ;
#189 = PERSON_AND_ORGANIZATION_ROLE ( 'design_owner' ) ;
#190 = PERSON_AND_ORGANIZATION ( #18446744073709551615, #18446744073709551615 ) ;
#191 = DIRECTION ( 'NONE',  ( 0.000000000000000000, 0.000000000000000000, 1.000000000000000000 ) ) ;
#192 = DATE_TIME_ROLE ( 'creation_date' ) ;
#193 = AXIS2_PLACEMENT_3D ( 'NONE', #59, #61, #11 ) ;
#194 = DATE_TIME_ROLE ( 'classification_date' ) ;
#195 = APPROVAL_PERSON_ORGANIZATION ( #184, #23, #129 ) ;
#196 =( REPRESENTATION_RELATIONSHIP ('NONE','NONE', #171, #88 ) REPRESENTATION_RELATIONSHIP_WITH_TRANSFORMATION ( #9 )SHAPE_REPRESENTATION_RELATIONSHIP( ) );
#197 = CARTESIAN_POINT ( 'NONE',  ( 5.099988037080001035, 23.17498425293000608, 0.000000000000000000 ) ) ;
#198 = CALENDAR_DATE ( 2026, 22, 6 ) ;
#199 = SECURITY_CLASSIFICATION_LEVEL ( 'unclassified' ) ;
#200 =( LENGTH_UNIT ( ) NAMED_UNIT ( * ) SI_UNIT ( .MILLI., .METRE. ) );
#201 = DATE_TIME_ROLE ( 'classification_date' ) ;
#202 = LOCAL_TIME ( 18, 49, 53.00000000000000000, #335 ) ;
#203 = PERSON_AND_ORGANIZATION ( #18446744073709551615, #18446744073709551615 ) ;
#204 = ITEM_DEFINED_TRANSFORMATION ( 'NONE', 'NONE', #360,  #342 ) ;
#205 = PERSON ( 'NAUO-PER53', 'UNSPECIFIED', 'UNSPECIFIED', ('UNSPECIFIED'), ('UNSPECIFIED'), ('UNSPECIFIED') ) ;
#206 = DATE_AND_TIME ( #357, #327 ) ;
#207 = AXIS2_PLACEMENT_3D ( 'NONE', #197, #258, #165 ) ;
#208 = PRODUCT_RELATED_PRODUCT_CATEGORY ( 'detail', '', ( #346 ) ) ;
#209 = ORGANIZATION ( 'NAUO-ORG53', 'UNSPECIFIED', 'UNSPECIFIED' ) ;
#210 = IDENTIFICATION_ROLE ( 'external document id and location', $) ;
#211 = PERSON_AND_ORGANIZATION_ROLE ( 'design_owner' ) ;
#212 = DATE_AND_TIME ( #359, #15 ) ;
#213 = CALENDAR_DATE ( 2026, 22, 6 ) ;
#214 = PERSON ( 'NAUO-PER52', 'UNSPECIFIED', 'UNSPECIFIED', ('UNSPECIFIED'), ('UNSPECIFIED'), ('UNSPECIFIED') ) ;
#215 = APPROVAL_PERSON_ORGANIZATION ( #21, #12, #110 ) ;
#216 = CC_DESIGN_SECURITY_CLASSIFICATION ( #306, ( #162 ) ) ;
#217 = CC_DESIGN_PERSON_AND_ORGANIZATION_ASSIGNMENT ( #52, #351, ( #306 ) ) ;
#218 = PRODUCT_DEFINITION_SHAPE ( 'NONE', 'NONE',  #7 ) ;
#219 = CALENDAR_DATE ( 2026, 22, 6 ) ;
#220 = APPROVAL ( #36, 'UNKNOWN' ) ;
#221 = CALENDAR_DATE ( 2026, 22, 6 ) ;
#222 = CALENDAR_DATE ( 2026, 22, 6 ) ;
#223 = COORDINATED_UNIVERSAL_TIME_OFFSET ( 10, 0, .AHEAD. ) ;
#224 = CALENDAR_DATE ( 2026, 22, 6 ) ;
#225 = COORDINATED_UNIVERSAL_TIME_OFFSET ( 10, 0, .AHEAD. ) ;
#226 = LOCAL_TIME ( 18, 49, 53.00000000000000000, #143 ) ;
#227 = CC_DESIGN_PERSON_AND_ORGANIZATION_ASSIGNMENT ( #144, #10, ( #79 ) ) ;
#228 = DIRECTION ( 'NONE',  ( 1.000000000000000000, 0.000000000000000000, 0.000000000000000000 ) ) ;
#229 = APPROVAL_DATE_TIME ( #324, #259 ) ;
#230 = UNCERTAINTY_MEASURE_WITH_UNIT (LENGTH_MEASURE( 1.000000000000000082E-05 ), #132, 'distance_accuracy_value', 'NONE');
#231 = SECURITY_CLASSIFICATION_LEVEL ( 'unclassified' ) ;
#232 = PROPERTY_DEFINITION_REPRESENTATION ( #237, #288 ) ;
#233 = CC_DESIGN_APPROVAL ( #23, ( #287 ) ) ;
#234 = APPROVAL_STATUS ( 'not_yet_approved' ) ;
#235 = APPROVAL_STATUS ( 'not_yet_approved' ) ;
#236 = APPROVAL_DATE_TIME ( #135, #109 ) ;
#237 = PROPERTY_DEFINITION ('external definition','', #168 ) ;
#238 = CC_DESIGN_PERSON_AND_ORGANIZATION_ASSIGNMENT ( #190, #54, ( #287 ) ) ;
#239 =( GEOMETRIC_REPRESENTATION_CONTEXT ( 3 ) GLOBAL_UNCERTAINTY_ASSIGNED_CONTEXT ( ( #120 ) ) GLOBAL_UNIT_ASSIGNED_CONTEXT ( ( #149, #70, #274 ) ) REPRESENTATION_CONTEXT ( 'NONE', 'WORKASPACE' ) );
#240 = LOCAL_TIME ( 18, 49, 53.00000000000000000, #265 ) ;
#241 =( NAMED_UNIT ( * ) SI_UNIT ( $, .STERADIAN. ) SOLID_ANGLE_UNIT ( ) );
#242 = CALENDAR_DATE ( 2026, 22, 6 ) ;
#243 = PROPERTY_DEFINITION_REPRESENTATION ( #348, #88 ) ;
#244 = PERSON_AND_ORGANIZATION_ROLE ( 'design_owner' ) ;
#245 = COORDINATED_UNIVERSAL_TIME_OFFSET ( 10, 0, .AHEAD. ) ;
#246 = PRODUCT ( '6461076016.step', '6461076016.step', '', ( #268 ) ) ;
#247 = LOCAL_TIME ( 18, 49, 53.00000000000000000, #223 ) ;
#248 = APPROVAL_STATUS ( 'not_yet_approved' ) ;
#249 = COORDINATED_UNIVERSAL_TIME_OFFSET ( 10, 0, .AHEAD. ) ;
#250 = PERSON_AND_ORGANIZATION_ROLE ( 'creator' ) ;
#251 = PRODUCT_RELATED_PRODUCT_CATEGORY ( 'detail', '', ( #246 ) ) ;
#252 = PERSON_AND_ORGANIZATION ( #18446744073709551615, #18446744073709551615 ) ;
#253 = PERSON_AND_ORGANIZATION_ROLE ( 'creator' ) ;
#254 =( NAMED_UNIT ( * ) PLANE_ANGLE_UNIT ( ) SI_UNIT ( $, .RADIAN. ) );
#255 = PERSON_AND_ORGANIZATION ( #18446744073709551615, #18446744073709551615 ) ;
#256 =( NAMED_UNIT ( * ) SI_UNIT ( $, .STERADIAN. ) SOLID_ANGLE_UNIT ( ) );
#257 = CONTEXT_DEPENDENT_SHAPE_REPRESENTATION ( #371, #182 ) ;
#258 = DIRECTION ( 'NONE',  ( 4.890937612370273194E-29, -3.155443620884047222E-30, 0.9999999999999997780 ) ) ;
#259 = APPROVAL ( #332, 'UNKNOWN' ) ;
#260 = ITEM_DEFINED_TRANSFORMATION ( 'NONE', 'NONE', #207,  #13 ) ;
#261 = APPLIED_EXTERNAL_IDENTIFICATION_ASSIGNMENT ( '6461076016.step.STEP' , #150, #337,( #358) ) ;
#262 = APPLIED_DOCUMENT_REFERENCE ( #168,'',( #40) ) ;
#263 =( REPRESENTATION_RELATIONSHIP ('NONE','NONE', #171, #88 ) REPRESENTATION_RELATIONSHIP_WITH_TRANSFORMATION ( #204 )SHAPE_REPRESENTATION_RELATIONSHIP( ) );
#264 = APPROVAL_STATUS ( 'not_yet_approved' ) ;
#265 = COORDINATED_UNIVERSAL_TIME_OFFSET ( 10, 0, .AHEAD. ) ;
#266 = APPROVAL_PERSON_ORGANIZATION ( #203, #138, #381 ) ;
#267 = APPLIED_EXTERNAL_IDENTIFICATION_ASSIGNMENT ( '6461075776.step.STEP' , #210, #42,( #168) ) ;
#268 = MECHANICAL_CONTEXT ( 'NONE', #139, 'mechanical' ) ;
#269 = PERSON_AND_ORGANIZATION ( #18446744073709551615, #18446744073709551615 ) ;
#270 = CC_DESIGN_DATE_AND_TIME_ASSIGNMENT ( #92, #201, ( #63 ) ) ;
#271 = DATE_AND_TIME ( #340, #123 ) ;
#272 = EXTERNAL_SOURCE (IDENTIFIER('') ) ;
#273 = LOCAL_TIME ( 18, 49, 53.00000000000000000, #249 ) ;
#274 =( NAMED_UNIT ( * ) SI_UNIT ( $, .STERADIAN. ) SOLID_ANGLE_UNIT ( ) );
#275 = ROLE_ASSOCIATION ( #124, #179 ) ;
#276 = APPROVAL_STATUS ( 'not_yet_approved' ) ;
#277 = APPLICATION_CONTEXT ( 'configuration controlled 3d designs of mechanical parts and assemblies' ) ;
#278 = MECHANICAL_CONTEXT ( 'NONE', #314, 'mechanical' ) ;
#279 = LOCAL_TIME ( 18, 49, 53.00000000000000000, #294 ) ;
#280 = APPROVAL ( #234, 'Coincident' ) ;
#281 = PROPERTY_DEFINITION ('document property','', #358 ) ;
#282 = APPROVAL_DATE_TIME ( #26, #71 ) ;
#283 = PERSON_AND_ORGANIZATION ( #18446744073709551615, #18446744073709551615 ) ;
#284 = PERSON_AND_ORGANIZATION_ROLE ( 'creator' ) ;
#285 = APPROVAL_DATE_TIME ( #47, #12 ) ;
#286 = DIRECTION ( 'NONE',  ( 0.000000000000000000, 0.000000000000000000, 1.000000000000000000 ) ) ;
#287 = SECURITY_CLASSIFICATION ( '', '', #130 ) ;
#288 = SHAPE_REPRESENTATION ( '6461075776.step', ( #13 ), #334 ) ;
#289 = CALENDAR_DATE ( 2026, 22, 6 ) ;
#290 = CC_DESIGN_PERSON_AND_ORGANIZATION_ASSIGNMENT ( #131, #319, ( #162 ) ) ;
#291 = DESIGN_CONTEXT ( 'detailed design', #117, 'design' ) ;
#292 = CONTEXT_DEPENDENT_SHAPE_REPRESENTATION ( #263, #375 ) ;
#293 = CARTESIAN_POINT ( 'NONE',  ( 5.099988037080000147, 22.27499035644500580, 0.000000000000000000 ) ) ;
#294 = COORDINATED_UNIVERSAL_TIME_OFFSET ( 10, 0, .AHEAD. ) ;
#295 = APPLICATION_CONTEXT ( 'configuration controlled 3d designs of mechanical parts and assemblies' ) ;
#296 = CC_DESIGN_APPROVAL ( #37, ( #306 ) ) ;
#297 = APPROVAL ( #316, 'Coincident' ) ;
#298 = CALENDAR_DATE ( 2026, 22, 6 ) ;
#299 = DATE_AND_TIME ( #331, #25 ) ;
#300 = CALENDAR_DATE ( 2026, 22, 6 ) ;
#301 = CC_DESIGN_PERSON_AND_ORGANIZATION_ASSIGNMENT ( #1, #166, ( #374 ) ) ;
#302 = APPROVAL_DATE_TIME ( #105, #138 ) ;
#303 = APPLIED_DOCUMENT_REFERENCE ( #172,'',( #78) ) ;
#304 = APPLIED_EXTERNAL_IDENTIFICATION_ASSIGNMENT ( '6461076016.step.STEP' , #69, #272,( #172) ) ;
#305 = APPROVAL_ROLE ( '' ) ;
#306 = SECURITY_CLASSIFICATION ( '', '', #22 ) ;
#307 = PERSON_AND_ORGANIZATION ( #18446744073709551615, #18446744073709551615 ) ;
#308 = PERSON_AND_ORGANIZATION_ROLE ( 'classification_officer' ) ;
#309 = APPROVAL_ROLE ( '' ) ;
#310 = CC_DESIGN_PERSON_AND_ORGANIZATION_ASSIGNMENT ( #108, #253, ( #187 ) ) ;
#311 = CALENDAR_DATE ( 2026, 22, 6 ) ;
#312 = APPROVAL_DATE_TIME ( #19, #147 ) ;
#313 = ORGANIZATION ( 'NAUO-ORG51', 'UNSPECIFIED', 'UNSPECIFIED' ) ;
#314 = APPLICATION_CONTEXT ( 'configuration controlled 3d designs of mechanical parts and assemblies' ) ;
#315 = MECHANICAL_CONTEXT ( 'NONE', #295, 'mechanical' ) ;
#316 = APPROVAL_STATUS ( 'not_yet_approved' ) ;
#317 = DIRECTION ( 'NONE',  ( 1.000000000000000000, 0.000000000000000000, 0.000000000000000000 ) ) ;
#318 = UNCERTAINTY_MEASURE_WITH_UNIT (LENGTH_MEASURE( 1.000000000000000082E-05 ), #200, 'distance_accuracy_value', 'NONE');
#319 = PERSON_AND_ORGANIZATION_ROLE ( 'design_supplier' ) ;
#320 = APPLICATION_PROTOCOL_DEFINITION ( 'international standard', 'config_control_design', 1994, #139 ) ;
#321 = AXIS2_PLACEMENT_3D ( 'NONE', #352, #185, #181 ) ;
#322 = APPROVAL_PERSON_ORGANIZATION ( #34, #220, #82 ) ;
#323 = DATE_AND_TIME ( #224, #202 ) ;
#324 = DATE_AND_TIME ( #170, #80 ) ;
#325 = COORDINATED_UNIVERSAL_TIME_OFFSET ( 10, 0, .AHEAD. ) ;
#326 = APPROVAL ( #235, 'UNKNOWN' ) ;
#327 = LOCAL_TIME ( 18, 49, 53.00000000000000000, #225 ) ;
#328 = PERSON_AND_ORGANIZATION ( #18446744073709551615, #18446744073709551615 ) ;
#329 = PERSON_AND_ORGANIZATION_ROLE ( 'creator' ) ;
#330 = COORDINATED_UNIVERSAL_TIME_OFFSET ( 10, 0, .AHEAD. ) ;
#331 = CALENDAR_DATE ( 2026, 22, 6 ) ;
#332 = APPROVAL_STATUS ( 'not_yet_approved' ) ;
#333 = CC_DESIGN_DATE_AND_TIME_ASSIGNMENT ( #206, #60, ( #306 ) ) ;
#334 =( GEOMETRIC_REPRESENTATION_CONTEXT ( 3 ) GLOBAL_UNCERTAINTY_ASSIGNED_CONTEXT ( ( #230 ) ) GLOBAL_UNIT_ASSIGNED_CONTEXT ( ( #132, #177, #241 ) ) REPRESENTATION_CONTEXT ( 'NONE', 'WORKASPACE' ) );
#335 = COORDINATED_UNIVERSAL_TIME_OFFSET ( 10, 0, .AHEAD. ) ;
#336 = CC_DESIGN_DATE_AND_TIME_ASSIGNMENT ( #212, #65, ( #154 ) ) ;
#337 = EXTERNAL_SOURCE (IDENTIFIER('') ) ;
#338 = APPLICATION_PROTOCOL_DEFINITION ( 'international standard', 'config_control_design', 1994, #277 ) ;
#339 = CC_DESIGN_PERSON_AND_ORGANIZATION_ASSIGNMENT ( #157, #284, ( #162 ) ) ;
#340 = CALENDAR_DATE ( 2026, 22, 6 ) ;
#341 = DATE_AND_TIME ( #213, #373 ) ;
#342 = AXIS2_PLACEMENT_3D ( 'NONE', #159, #286, #228 ) ;
#343 = LOCAL_TIME ( 18, 49, 53.00000000000000000, #245 ) ;
#344 = APPROVAL_ROLE ( '' ) ;
#345 = PERSON_AND_ORGANIZATION ( #18446744073709551615, #18446744073709551615 ) ;
#346 = PRODUCT ( 'L23.step', 'L23.step', '', ( #278 ) ) ;
#347 = APPROVAL_DATE_TIME ( #49, #23 ) ;
#348 = PROPERTY_DEFINITION ('external definition','', #358 ) ;
#349 = DATE_AND_TIME ( #221, #53 ) ;
#350 = SECURITY_CLASSIFICATION ( '', '', #35 ) ;
#351 = PERSON_AND_ORGANIZATION_ROLE ( 'classification_officer' ) ;
#352 = CARTESIAN_POINT ( 'NONE',  ( 0.000000000000000000, 0.000000000000000000, 0.000000000000000000 ) ) ;
#353 = PERSON_AND_ORGANIZATION ( #18446744073709551615, #18446744073709551615 ) ;
#354 = DESIGN_CONTEXT ( 'detailed design', #277, 'design' ) ;
#355 = DATE_TIME_ROLE ( 'creation_date' ) ;
#356 = LOCAL_TIME ( 18, 49, 53.00000000000000000, #76 ) ;
#357 = CALENDAR_DATE ( 2026, 22, 6 ) ;
#358 = DOCUMENT_FILE ( '6461076016.step.STEP' , '', '', #95, '' ,$ ) ;
#359 = CALENDAR_DATE ( 2026, 22, 6 ) ;
#360 = AXIS2_PLACEMENT_3D ( 'NONE', #293, #28, #39 ) ;
#361 = LOCAL_TIME ( 18, 49, 53.00000000000000000, #55 ) ;
#362 = CALENDAR_DATE ( 2026, 22, 6 ) ;
#363 = CC_DESIGN_DATE_AND_TIME_ASSIGNMENT ( #299, #142, ( #350 ) ) ;
#364 = APPROVAL_ROLE ( '' ) ;
#365 = PROPERTY_DEFINITION ('document property','', #168 ) ;
#366 = COORDINATED_UNIVERSAL_TIME_OFFSET ( 10, 0, .AHEAD. ) ;
#367 = OBJECT_ROLE ('mandatory',$ ) ;
#368 = CC_DESIGN_APPROVAL ( #297, ( #162 ) ) ;
#369 = CC_DESIGN_PERSON_AND_ORGANIZATION_ASSIGNMENT ( #269, #329, ( #79 ) ) ;
#370 = APPLICATION_PROTOCOL_DEFINITION ( 'international standard', 'config_control_design', 1994, #117 ) ;
#371 =( REPRESENTATION_RELATIONSHIP ('NONE','NONE', #171, #288 ) REPRESENTATION_RELATIONSHIP_WITH_TRANSFORMATION ( #260 )SHAPE_REPRESENTATION_RELATIONSHIP( ) );
#372 = PERSON_AND_ORGANIZATION_ROLE ( 'creator' ) ;
#373 = LOCAL_TIME ( 18, 49, 53.00000000000000000, #44 ) ;
#374 = SECURITY_CLASSIFICATION ( '', '', #231 ) ;
#375 = PRODUCT_DEFINITION_SHAPE ( 'NONE', 'NONE',  #389 ) ;
#376 = CC_DESIGN_DATE_AND_TIME_ASSIGNMENT ( #341, #66, ( #7 ) ) ;
#377 = APPROVAL_STATUS ( 'not_yet_approved' ) ;
#378 = PERSON_AND_ORGANIZATION_ROLE ( 'creator' ) ;
#379 = CALENDAR_DATE ( 2026, 22, 6 ) ;
#380 = PERSON_AND_ORGANIZATION_ROLE ( 'design_supplier' ) ;
#381 = APPROVAL_ROLE ( '' ) ;
#382 = CC_DESIGN_APPROVAL ( #138, ( #78 ) ) ;
#383 = CC_DESIGN_PERSON_AND_ORGANIZATION_ASSIGNMENT ( #283, #372, ( #7 ) ) ;
#384 = COORDINATED_UNIVERSAL_TIME_OFFSET ( 10, 0, .AHEAD. ) ;
#385 = PERSON ( 'NAUO-PER51', 'UNSPECIFIED', 'UNSPECIFIED', ('UNSPECIFIED'), ('UNSPECIFIED'), ('UNSPECIFIED') ) ;
#386 = PRODUCT_RELATED_PRODUCT_CATEGORY ( 'detail', '', ( #103 ) ) ;
#387 = CC_DESIGN_APPROVAL ( #326, ( #154 ) ) ;
#388 = NEXT_ASSEMBLY_USAGE_OCCURRENCE ( 'NAUO51', ' ', ' ', #7, #40, $ ) ;
#389 = NEXT_ASSEMBLY_USAGE_OCCURRENCE ( 'NAUO52', ' ', ' ', #7, #78, $ ) ;
#390 = NEXT_ASSEMBLY_USAGE_OCCURRENCE ( 'NAUO53', ' ', ' ', #7, #78, $ ) ;
ENDSEC;
END-ISO-10303-21;
