ISO-10303-21;
HEADER;
FILE_DESCRIPTION (( 'STEP AP203' ),
    '1' );
FILE_NAME ('L4.step.STEP',
    '2026-06-22T08:49:57',
    ( 'localuser' ),
    ( '' ),
    'SwSTEP 2.0',
    'SolidWorks 2025',
    '' );
FILE_SCHEMA (( 'CONFIG_CONTROL_DESIGN' ));
ENDSEC;

DATA;
#1 = APPROVAL_STATUS ( 'not_yet_approved' ) ;
#2 = PROPERTY_DEFINITION_REPRESENTATION ( #84, #186 ) ;
#3 = APPROVAL_DATE_TIME ( #31, #4 ) ;
#4 = APPROVAL ( #49, 'Coincident' ) ;
#5 = APPROVAL_STATUS ( 'not_yet_approved' ) ;
#6 = DATE_AND_TIME ( #63, #182 ) ;
#7 = ROLE_ASSOCIATION ( #59, #133 ) ;
#8 = DIRECTION ( 'NONE',  ( 1.000000000000000000, 0.000000000000000000, 0.000000000000000000 ) ) ;
#9 = EXTERNAL_SOURCE (IDENTIFIER('') ) ;
#10 = APPROVAL ( #157, 'Coincident' ) ;
#11 = DIRECTION ( 'NONE',  ( 0.000000000000000000, 0.000000000000000000, 1.000000000000000000 ) ) ;
#12 = PERSON_AND_ORGANIZATION ( #18446744073709551615, #18446744073709551615 ) ;
#13 = PERSON_AND_ORGANIZATION ( #18446744073709551615, #18446744073709551615 ) ;
#14 = CC_DESIGN_PERSON_AND_ORGANIZATION_ASSIGNMENT ( #70, #72, ( #185 ) ) ;
#15 = DATE_AND_TIME ( #25, #77 ) ;
#16 = CC_DESIGN_APPROVAL ( #42, ( #169 ) ) ;
#17 = APPROVAL_DATE_TIME ( #6, #197 ) ;
#18 = APPLICATION_CONTEXT ( 'configuration controlled 3d designs of mechanical parts and assemblies' ) ;
#19 = PERSON_AND_ORGANIZATION ( #210, #44 ) ;
#20 = PERSON_AND_ORGANIZATION_ROLE ( 'creator' ) ;
#21 = LOCAL_TIME ( 18, 49, 57.00000000000000000, #50 ) ;
#22 = DIRECTION ( 'NONE',  ( 1.000000000000000222, -1.092455418989176591E-28, 4.890937612370273194E-29 ) ) ;
#23 = PERSON_AND_ORGANIZATION ( #18446744073709551615, #18446744073709551615 ) ;
#24 = PRODUCT ( 'L4.step', 'L4.step', '', ( #32 ) ) ;
#25 = CALENDAR_DATE ( 2026, 22, 6 ) ;
#26 = PERSON_AND_ORGANIZATION ( #18446744073709551615, #18446744073709551615 ) ;
#27 = PERSON_AND_ORGANIZATION ( #18446744073709551615, #18446744073709551615 ) ;
#28 =( NAMED_UNIT ( * ) SI_UNIT ( $, .STERADIAN. ) SOLID_ANGLE_UNIT ( ) );
#29 = DATE_AND_TIME ( #146, #115 ) ;
#30 = PERSON_AND_ORGANIZATION_ROLE ( 'creator' ) ;
#31 = DATE_AND_TIME ( #104, #107 ) ;
#32 = MECHANICAL_CONTEXT ( 'NONE', #148, 'mechanical' ) ;
#33 = DATE_AND_TIME ( #177, #131 ) ;
#34 = PERSON_AND_ORGANIZATION_ROLE ( 'design_supplier' ) ;
#35 = CARTESIAN_POINT ( 'NONE',  ( 0.000000000000000000, 0.000000000000000000, 0.000000000000000000 ) ) ;
#36 = DOCUMENT_TYPE ( 'geometry' ) ;
#37 = CC_DESIGN_PERSON_AND_ORGANIZATION_ASSIGNMENT ( #23, #200, ( #154 ) ) ;
#38 = LOCAL_TIME ( 18, 49, 57.00000000000000000, #79 ) ;
#39 = PERSON_AND_ORGANIZATION_ROLE ( 'design_supplier' ) ;
#40 = APPROVAL_DATE_TIME ( #167, #10 ) ;
#41 = APPROVAL_ROLE ( '' ) ;
#42 = APPROVAL ( #1, 'Coincident' ) ;
#43 = CC_DESIGN_APPROVAL ( #10, ( #134 ) ) ;
#44 = ORGANIZATION ( 'NAUO-ORG193', 'UNSPECIFIED', 'UNSPECIFIED' ) ;
#45 = UNCERTAINTY_MEASURE_WITH_UNIT (LENGTH_MEASURE( 1.000000000000000082E-05 ), #118, 'distance_accuracy_value', 'NONE');
#46 = CALENDAR_DATE ( 2026, 22, 6 ) ;
#47 = PRODUCT_RELATED_PRODUCT_CATEGORY ( 'detail', '', ( #24 ) ) ;
#48 = IDENTIFICATION_ROLE ( 'external document id and location', $) ;
#49 = APPROVAL_STATUS ( 'not_yet_approved' ) ;
#50 = COORDINATED_UNIVERSAL_TIME_OFFSET ( 10, 0, .AHEAD. ) ;
#51 = DATE_AND_TIME ( #65, #38 ) ;
#52 = APPROVAL ( #5, 'Coincident' ) ;
#53 = PROPERTY_DEFINITION ('document property','', #147 ) ;
#54 = LOCAL_TIME ( 18, 49, 57.00000000000000000, #132 ) ;
#55 = PERSON_AND_ORGANIZATION ( #18446744073709551615, #18446744073709551615 ) ;
#56 = DATE_AND_TIME ( #207, #64 ) ;
#57 = COORDINATED_UNIVERSAL_TIME_OFFSET ( 10, 0, .AHEAD. ) ;
#58 = MECHANICAL_CONTEXT ( 'NONE', #18, 'mechanical' ) ;
#59 = OBJECT_ROLE ('mandatory',$ ) ;
#60 = PERSON_AND_ORGANIZATION_ROLE ( 'creator' ) ;
#61 = CC_DESIGN_PERSON_AND_ORGANIZATION_ASSIGNMENT ( #138, #34, ( #191 ) ) ;
#62 =( GEOMETRIC_REPRESENTATION_CONTEXT ( 3 ) GLOBAL_UNCERTAINTY_ASSIGNED_CONTEXT ( ( #159 ) ) GLOBAL_UNIT_ASSIGNED_CONTEXT ( ( #122, #139, #28 ) ) REPRESENTATION_CONTEXT ( 'NONE', 'WORKASPACE' ) );
#63 = CALENDAR_DATE ( 2026, 22, 6 ) ;
#64 = LOCAL_TIME ( 18, 49, 57.00000000000000000, #212 ) ;
#65 = CALENDAR_DATE ( 2026, 22, 6 ) ;
#66 = PERSON_AND_ORGANIZATION ( #18446744073709551615, #18446744073709551615 ) ;
#67 = PROPERTY_DEFINITION_REPRESENTATION ( #53, #186 ) ;
#68 = PERSON_AND_ORGANIZATION ( #18446744073709551615, #18446744073709551615 ) ;
#69 = APPLICATION_CONTEXT ( 'configuration controlled 3d designs of mechanical parts and assemblies' ) ;
#70 = PERSON_AND_ORGANIZATION ( #18446744073709551615, #18446744073709551615 ) ;
#71 = DIRECTION ( 'NONE',  ( 1.000000000000000000, 0.000000000000000000, 0.000000000000000000 ) ) ;
#72 = PERSON_AND_ORGANIZATION_ROLE ( 'design_owner' ) ;
#73 = APPROVAL_STATUS ( 'not_yet_approved' ) ;
#74 = CC_DESIGN_PERSON_AND_ORGANIZATION_ASSIGNMENT ( #201, #20, ( #191 ) ) ;
#75 = CC_DESIGN_APPROVAL ( #158, ( #199 ) ) ;
#76 = APPROVAL_PERSON_ORGANIZATION ( #13, #158, #192 ) ;
#77 = LOCAL_TIME ( 18, 49, 57.00000000000000000, #57 ) ;
#78 = PERSON_AND_ORGANIZATION_ROLE ( 'classification_officer' ) ;
#79 = COORDINATED_UNIVERSAL_TIME_OFFSET ( 10, 0, .AHEAD. ) ;
#80 =( REPRESENTATION_RELATIONSHIP ('NONE','NONE', #213, #186 ) REPRESENTATION_RELATIONSHIP_WITH_TRANSFORMATION ( #135 )SHAPE_REPRESENTATION_RELATIONSHIP( ) );
#81 = APPROVAL_ROLE ( '' ) ;
#82 = DATE_TIME_ROLE ( 'classification_date' ) ;
#83 = COORDINATED_UNIVERSAL_TIME_OFFSET ( 10, 0, .AHEAD. ) ;
#84 = PROPERTY_DEFINITION ('external definition','', #147 ) ;
#85 = CC_DESIGN_PERSON_AND_ORGANIZATION_ASSIGNMENT ( #27, #93, ( #199 ) ) ;
#86 = DESIGN_CONTEXT ( 'detailed design', #151, 'design' ) ;
#87 = PERSON_AND_ORGANIZATION ( #18446744073709551615, #18446744073709551615 ) ;
#88 = CC_DESIGN_APPROVAL ( #173, ( #153 ) ) ;
#89 = PERSON_AND_ORGANIZATION_ROLE ( 'design_owner' ) ;
#90 = COORDINATED_UNIVERSAL_TIME_OFFSET ( 10, 0, .AHEAD. ) ;
#91 = DESIGN_CONTEXT ( 'detailed design', #69, 'design' ) ;
#92 = CC_DESIGN_PERSON_AND_ORGANIZATION_ASSIGNMENT ( #190, #30, ( #134 ) ) ;
#93 = PERSON_AND_ORGANIZATION_ROLE ( 'creator' ) ;
#94 = CC_DESIGN_APPROVAL ( #197, ( #164 ) ) ;
#95 = CALENDAR_DATE ( 2026, 22, 6 ) ;
#96 = APPROVAL_PERSON_ORGANIZATION ( #19, #197, #81 ) ;
#97 = COORDINATED_UNIVERSAL_TIME_OFFSET ( 10, 0, .AHEAD. ) ;
#98 = PRODUCT_RELATED_PRODUCT_CATEGORY ( 'detail', '', ( #185 ) ) ;
#99 = CALENDAR_DATE ( 2026, 22, 6 ) ;
#100 = DIRECTION ( 'NONE',  ( 4.890937612370273194E-29, -3.155443620884047222E-30, 0.9999999999999997780 ) ) ;
#101 = AXIS2_PLACEMENT_3D ( 'NONE', #170, #11, #71 ) ;
#102 = PERSON_AND_ORGANIZATION ( #18446744073709551615, #18446744073709551615 ) ;
#103 = CC_DESIGN_APPROVAL ( #52, ( #191 ) ) ;
#104 = CALENDAR_DATE ( 2026, 22, 6 ) ;
#105 = PRODUCT_DEFINITION_SHAPE ( 'NONE', 'NONE',  #134 ) ;
#106 = DIRECTION ( 'NONE',  ( 0.000000000000000000, 0.000000000000000000, 1.000000000000000000 ) ) ;
#107 = LOCAL_TIME ( 18, 49, 57.00000000000000000, #83 ) ;
#108 = CALENDAR_DATE ( 2026, 22, 6 ) ;
#109 = CC_DESIGN_DATE_AND_TIME_ASSIGNMENT ( #155, #202, ( #164 ) ) ;
#110 = APPROVAL_ROLE ( '' ) ;
#111 = CC_DESIGN_SECURITY_CLASSIFICATION ( #169, ( #153 ) ) ;
#112 = SHAPE_DEFINITION_REPRESENTATION ( #141, #213 ) ;
#113 = DATE_AND_TIME ( #95, #54 ) ;
#114 = APPLICATION_PROTOCOL_DEFINITION ( 'international standard', 'config_control_design', 1994, #69 ) ;
#115 = LOCAL_TIME ( 18, 49, 57.00000000000000000, #90 ) ;
#116 = COORDINATED_UNIVERSAL_TIME_OFFSET ( 10, 0, .AHEAD. ) ;
#117 = APPROVAL_ROLE ( '' ) ;
#118 =( LENGTH_UNIT ( ) NAMED_UNIT ( * ) SI_UNIT ( .MILLI., .METRE. ) );
#119 =( GEOMETRIC_REPRESENTATION_CONTEXT ( 3 ) GLOBAL_UNCERTAINTY_ASSIGNED_CONTEXT ( ( #45 ) ) GLOBAL_UNIT_ASSIGNED_CONTEXT ( ( #118, #206, #184 ) ) REPRESENTATION_CONTEXT ( 'NONE', 'WORKASPACE' ) );
#120 = APPROVAL_DATE_TIME ( #33, #52 ) ;
#121 = CC_DESIGN_PERSON_AND_ORGANIZATION_ASSIGNMENT ( #160, #60, ( #153 ) ) ;
#122 =( LENGTH_UNIT ( ) NAMED_UNIT ( * ) SI_UNIT ( .MILLI., .METRE. ) );
#123 = PRODUCT_DEFINITION_SHAPE ( 'NONE', 'NONE',  #215 ) ;
#124 = CC_DESIGN_PERSON_AND_ORGANIZATION_ASSIGNMENT ( #19, #78, ( #164 ) ) ;
#125 = APPLIED_EXTERNAL_IDENTIFICATION_ASSIGNMENT ( '11552552384.step.STEP' , #48, #9,( #147) ) ;
#126 = APPROVAL_ROLE ( '' ) ;
#127 = APPROVAL_DATE_TIME ( #113, #173 ) ;
#128 = APPROVAL_DATE_TIME ( #211, #158 ) ;
#129 = CC_DESIGN_SECURITY_CLASSIFICATION ( #164, ( #215 ) ) ;
#130 = CC_DESIGN_PERSON_AND_ORGANIZATION_ASSIGNMENT ( #26, #189, ( #169 ) ) ;
#131 = LOCAL_TIME ( 18, 49, 57.00000000000000000, #166 ) ;
#132 = COORDINATED_UNIVERSAL_TIME_OFFSET ( 10, 0, .AHEAD. ) ;
#133 = APPLIED_DOCUMENT_REFERENCE ( #147,'',( #134) ) ;
#134 = PRODUCT_DEFINITION ( 'General', '', #191, #86 ) ;
#135 = ITEM_DEFINED_TRANSFORMATION ( 'NONE', 'NONE', #193,  #144 ) ;
#136 = LOCAL_TIME ( 18, 49, 57.00000000000000000, #188 ) ;
#137 = CC_DESIGN_SECURITY_CLASSIFICATION ( #154, ( #191 ) ) ;
#138 = PERSON_AND_ORGANIZATION ( #18446744073709551615, #18446744073709551615 ) ;
#139 =( NAMED_UNIT ( * ) PLANE_ANGLE_UNIT ( ) SI_UNIT ( $, .RADIAN. ) );
#140 = SHAPE_DEFINITION_REPRESENTATION ( #105, #186 ) ;
#141 = PRODUCT_DEFINITION_SHAPE ( 'NONE', 'NONE',  #199 ) ;
#142 = CC_DESIGN_DATE_AND_TIME_ASSIGNMENT ( #29, #195, ( #199 ) ) ;
#143 = APPLICATION_PROTOCOL_DEFINITION ( 'international standard', 'config_control_design', 1994, #151 ) ;
#144 = AXIS2_PLACEMENT_3D ( 'NONE', #35, #106, #8 ) ;
#145 = APPROVAL_STATUS ( 'not_yet_approved' ) ;
#146 = CALENDAR_DATE ( 2026, 22, 6 ) ;
#147 = DOCUMENT_FILE ( '11552552384.step.STEP' , '', '', #36, '' ,$ ) ;
#148 = APPLICATION_CONTEXT ( 'configuration controlled 3d designs of mechanical parts and assemblies' ) ;
#149 = SECURITY_CLASSIFICATION_LEVEL ( 'unclassified' ) ;
#150 = CALENDAR_DATE ( 2026, 22, 6 ) ;
#151 = APPLICATION_CONTEXT ( 'configuration controlled 3d designs of mechanical parts and assemblies' ) ;
#152 = DATE_TIME_ROLE ( 'creation_date' ) ;
#153 = PRODUCT_DEFINITION_FORMATION_WITH_SPECIFIED_SOURCE ( 'Symmetric', '', #24, .NOT_KNOWN. ) ;
#154 = SECURITY_CLASSIFICATION ( '', '', #165 ) ;
#155 = DATE_AND_TIME ( #99, #175 ) ;
#156 = CC_DESIGN_DATE_AND_TIME_ASSIGNMENT ( #15, #168, ( #169 ) ) ;
#157 = APPROVAL_STATUS ( 'not_yet_approved' ) ;
#158 = APPROVAL ( #73, 'Coincident' ) ;
#159 = UNCERTAINTY_MEASURE_WITH_UNIT (LENGTH_MEASURE( 1.000000000000000082E-05 ), #122, 'distance_accuracy_value', 'NONE');
#160 = PERSON_AND_ORGANIZATION ( #18446744073709551615, #18446744073709551615 ) ;
#161 = APPROVAL_DATE_TIME ( #56, #42 ) ;
#162 = CC_DESIGN_DATE_AND_TIME_ASSIGNMENT ( #51, #152, ( #134 ) ) ;
#163 = APPLICATION_PROTOCOL_DEFINITION ( 'international standard', 'config_control_design', 1994, #18 ) ;
#164 = SECURITY_CLASSIFICATION ( '', '', #149 ) ;
#165 = SECURITY_CLASSIFICATION_LEVEL ( 'unclassified' ) ;
#166 = COORDINATED_UNIVERSAL_TIME_OFFSET ( 10, 0, .AHEAD. ) ;
#167 = DATE_AND_TIME ( #108, #136 ) ;
#168 = DATE_TIME_ROLE ( 'classification_date' ) ;
#169 = SECURITY_CLASSIFICATION ( '', '', #209 ) ;
#170 = CARTESIAN_POINT ( 'NONE',  ( 0.000000000000000000, 0.000000000000000000, 0.000000000000000000 ) ) ;
#171 = PERSON_AND_ORGANIZATION ( #18446744073709551615, #18446744073709551615 ) ;
#172 = COORDINATED_UNIVERSAL_TIME_OFFSET ( 10, 0, .AHEAD. ) ;
#173 = APPROVAL ( #145, 'Coincident' ) ;
#174 = DATE_AND_TIME ( #150, #21 ) ;
#175 = LOCAL_TIME ( 18, 49, 57.00000000000000000, #116 ) ;
#176 = APPROVAL_STATUS ( 'not_yet_approved' ) ;
#177 = CALENDAR_DATE ( 2026, 22, 6 ) ;
#178 = CC_DESIGN_DATE_AND_TIME_ASSIGNMENT ( #174, #82, ( #154 ) ) ;
#179 = APPLICATION_PROTOCOL_DEFINITION ( 'international standard', 'config_control_design', 1994, #148 ) ;
#180 = CONTEXT_DEPENDENT_SHAPE_REPRESENTATION ( #80, #123 ) ;
#181 = APPROVAL_PERSON_ORGANIZATION ( #55, #10, #126 ) ;
#182 = LOCAL_TIME ( 18, 49, 57.00000000000000000, #97 ) ;
#183 = APPROVAL_ROLE ( '' ) ;
#184 =( NAMED_UNIT ( * ) SI_UNIT ( $, .STERADIAN. ) SOLID_ANGLE_UNIT ( ) );
#185 = PRODUCT ( '11552552384.step', '11552552384.step', '', ( #58 ) ) ;
#186 = SHAPE_REPRESENTATION ( '11552552384.step', ( #144 ), #119 ) ;
#187 = APPROVAL_PERSON_ORGANIZATION ( #102, #4, #117 ) ;
#188 = COORDINATED_UNIVERSAL_TIME_OFFSET ( 10, 0, .AHEAD. ) ;
#189 = PERSON_AND_ORGANIZATION_ROLE ( 'classification_officer' ) ;
#190 = PERSON_AND_ORGANIZATION ( #18446744073709551615, #18446744073709551615 ) ;
#191 = PRODUCT_DEFINITION_FORMATION_WITH_SPECIFIED_SOURCE ( 'Symmetric', '', #185, .NOT_KNOWN. ) ;
#192 = APPROVAL_ROLE ( '' ) ;
#193 = AXIS2_PLACEMENT_3D ( 'NONE', #203, #100, #22 ) ;
#194 = CC_DESIGN_APPROVAL ( #4, ( #154 ) ) ;
#195 = DATE_TIME_ROLE ( 'creation_date' ) ;
#196 = CC_DESIGN_PERSON_AND_ORGANIZATION_ASSIGNMENT ( #68, #89, ( #24 ) ) ;
#197 = APPROVAL ( #176, 'UNKNOWN' ) ;
#198 = APPROVAL_PERSON_ORGANIZATION ( #12, #173, #41 ) ;
#199 = PRODUCT_DEFINITION ( 'General', '', #153, #91 ) ;
#200 = PERSON_AND_ORGANIZATION_ROLE ( 'classification_officer' ) ;
#201 = PERSON_AND_ORGANIZATION ( #18446744073709551615, #18446744073709551615 ) ;
#202 = DATE_TIME_ROLE ( 'classification_date' ) ;
#203 = CARTESIAN_POINT ( 'NONE',  ( 12.70000176999000452, 12.94999340820300482, 0.000000000000000000 ) ) ;
#204 = APPROVAL_PERSON_ORGANIZATION ( #87, #42, #110 ) ;
#205 = CC_DESIGN_PERSON_AND_ORGANIZATION_ASSIGNMENT ( #171, #39, ( #153 ) ) ;
#206 =( NAMED_UNIT ( * ) PLANE_ANGLE_UNIT ( ) SI_UNIT ( $, .RADIAN. ) );
#207 = CALENDAR_DATE ( 2026, 22, 6 ) ;
#208 = APPROVAL_PERSON_ORGANIZATION ( #66, #52, #183 ) ;
#209 = SECURITY_CLASSIFICATION_LEVEL ( 'unclassified' ) ;
#210 = PERSON ( 'NAUO-PER193', 'UNSPECIFIED', 'UNSPECIFIED', ('UNSPECIFIED'), ('UNSPECIFIED'), ('UNSPECIFIED') ) ;
#211 = DATE_AND_TIME ( #46, #214 ) ;
#212 = COORDINATED_UNIVERSAL_TIME_OFFSET ( 10, 0, .AHEAD. ) ;
#213 = SHAPE_REPRESENTATION ( 'L4.step', ( #101, #193 ), #62 ) ;
#214 = LOCAL_TIME ( 18, 49, 57.00000000000000000, #172 ) ;
#215 = NEXT_ASSEMBLY_USAGE_OCCURRENCE ( 'NAUO193', ' ', ' ', #199, #134, $ ) ;
ENDSEC;
END-ISO-10303-21;
