ISO-10303-21;
HEADER;
FILE_DESCRIPTION (( 'STEP AP203' ),
    '1' );
FILE_NAME ('L5.step.STEP',
    '2026-06-22T08:49:58',
    ( 'localuser' ),
    ( '' ),
    'SwSTEP 2.0',
    'SolidWorks 2025',
    '' );
FILE_SCHEMA (( 'CONFIG_CONTROL_DESIGN' ));
ENDSEC;

DATA;
#1 = DIRECTION ( 'NONE',  ( 4.890937612370273194E-29, -3.155443620884047222E-30, 0.9999999999999997780 ) ) ;
#2 = CALENDAR_DATE ( 2026, 22, 6 ) ;
#3 = CC_DESIGN_PERSON_AND_ORGANIZATION_ASSIGNMENT ( #207, #275, ( #153 ) ) ;
#4 = COORDINATED_UNIVERSAL_TIME_OFFSET ( 10, 0, .AHEAD. ) ;
#5 = SHAPE_DEFINITION_REPRESENTATION ( #46, #219 ) ;
#6 = LOCAL_TIME ( 18, 49, 58.00000000000000000, #4 ) ;
#7 = PERSON_AND_ORGANIZATION ( #18446744073709551615, #18446744073709551615 ) ;
#8 = COORDINATED_UNIVERSAL_TIME_OFFSET ( 10, 0, .AHEAD. ) ;
#9 = CC_DESIGN_DATE_AND_TIME_ASSIGNMENT ( #165, #138, ( #18 ) ) ;
#10 = CALENDAR_DATE ( 2026, 22, 6 ) ;
#11 = AXIS2_PLACEMENT_3D ( 'NONE', #143, #50, #89 ) ;
#12 = LOCAL_TIME ( 18, 49, 58.00000000000000000, #131 ) ;
#13 = PROPERTY_DEFINITION_REPRESENTATION ( #16, #96 ) ;
#14 = SHAPE_DEFINITION_REPRESENTATION ( #224, #267 ) ;
#15 = APPROVAL_STATUS ( 'not_yet_approved' ) ;
#16 = PROPERTY_DEFINITION ('external definition','', #141 ) ;
#17 = COORDINATED_UNIVERSAL_TIME_OFFSET ( 10, 0, .AHEAD. ) ;
#18 = SECURITY_CLASSIFICATION ( '', '', #316 ) ;
#19 = PROPERTY_DEFINITION ('document property','', #301 ) ;
#20 = APPROVAL_STATUS ( 'not_yet_approved' ) ;
#21 = DOCUMENT_TYPE ( 'geometry' ) ;
#22 = PERSON_AND_ORGANIZATION_ROLE ( 'creator' ) ;
#23 = COORDINATED_UNIVERSAL_TIME_OFFSET ( 10, 0, .AHEAD. ) ;
#24 = LOCAL_TIME ( 18, 49, 58.00000000000000000, #17 ) ;
#25 = COORDINATED_UNIVERSAL_TIME_OFFSET ( 10, 0, .AHEAD. ) ;
#26 = DATE_AND_TIME ( #238, #371 ) ;
#27 = PROPERTY_DEFINITION_REPRESENTATION ( #291, #219 ) ;
#28 = COORDINATED_UNIVERSAL_TIME_OFFSET ( 10, 0, .AHEAD. ) ;
#29 = ORGANIZATION ( 'NAUO-ORG200', 'UNSPECIFIED', 'UNSPECIFIED' ) ;
#30 = CC_DESIGN_APPROVAL ( #137, ( #153 ) ) ;
#31 = CC_DESIGN_PERSON_AND_ORGANIZATION_ASSIGNMENT ( #166, #294, ( #362 ) ) ;
#32 = DATE_AND_TIME ( #2, #111 ) ;
#33 = CONTEXT_DEPENDENT_SHAPE_REPRESENTATION ( #195, #344 ) ;
#34 = APPROVAL ( #15, 'Coincident' ) ;
#35 = PERSON_AND_ORGANIZATION ( #18446744073709551615, #18446744073709551615 ) ;
#36 = LOCAL_TIME ( 18, 49, 58.00000000000000000, #181 ) ;
#37 = COORDINATED_UNIVERSAL_TIME_OFFSET ( 10, 0, .AHEAD. ) ;
#38 = OBJECT_ROLE ('mandatory',$ ) ;
#39 = PERSON_AND_ORGANIZATION ( #18446744073709551615, #18446744073709551615 ) ;
#40 = APPROVAL ( #247, 'Coincident' ) ;
#41 = PROPERTY_DEFINITION_REPRESENTATION ( #339, #96 ) ;
#42 = APPROVAL_ROLE ( '' ) ;
#43 = AXIS2_PLACEMENT_3D ( 'NONE', #54, #295, #231 ) ;
#44 = DATE_AND_TIME ( #314, #317 ) ;
#45 = CALENDAR_DATE ( 2026, 22, 6 ) ;
#46 = PRODUCT_DEFINITION_SHAPE ( 'NONE', 'NONE',  #114 ) ;
#47 = CC_DESIGN_APPROVAL ( #174, ( #114 ) ) ;
#48 = COORDINATED_UNIVERSAL_TIME_OFFSET ( 10, 0, .AHEAD. ) ;
#49 = DATE_AND_TIME ( #315, #119 ) ;
#50 = DIRECTION ( 'NONE',  ( 4.890937612370273194E-29, -3.155443620884047222E-30, 0.9999999999999997780 ) ) ;
#51 = COORDINATED_UNIVERSAL_TIME_OFFSET ( 10, 0, .AHEAD. ) ;
#52 = EXTERNAL_SOURCE (IDENTIFIER('') ) ;
#53 = CALENDAR_DATE ( 2026, 22, 6 ) ;
#54 = CARTESIAN_POINT ( 'NONE',  ( 0.000000000000000000, 0.000000000000000000, 0.000000000000000000 ) ) ;
#55 = APPROVAL_DATE_TIME ( #233, #209 ) ;
#56 = APPLICATION_CONTEXT ( 'configuration controlled 3d designs of mechanical parts and assemblies' ) ;
#57 = DATE_TIME_ROLE ( 'classification_date' ) ;
#58 = CC_DESIGN_DATE_AND_TIME_ASSIGNMENT ( #348, #132, ( #114 ) ) ;
#59 = CONTEXT_DEPENDENT_SHAPE_REPRESENTATION ( #91, #192 ) ;
#60 = APPROVAL ( #160, 'Coincident' ) ;
#61 = DIRECTION ( 'NONE',  ( 4.890937612370273194E-29, -3.155443620884047222E-30, 0.9999999999999997780 ) ) ;
#62 = COORDINATED_UNIVERSAL_TIME_OFFSET ( 10, 0, .AHEAD. ) ;
#63 = CC_DESIGN_SECURITY_CLASSIFICATION ( #93, ( #362 ) ) ;
#64 = DATE_AND_TIME ( #221, #123 ) ;
#65 = CC_DESIGN_DATE_AND_TIME_ASSIGNMENT ( #239, #84, ( #153 ) ) ;
#66 = COORDINATED_UNIVERSAL_TIME_OFFSET ( 10, 0, .AHEAD. ) ;
#67 = APPROVAL_DATE_TIME ( #64, #329 ) ;
#68 = APPROVAL_PERSON_ORGANIZATION ( #136, #381, #288 ) ;
#69 = PERSON_AND_ORGANIZATION_ROLE ( 'creator' ) ;
#70 = COORDINATED_UNIVERSAL_TIME_OFFSET ( 10, 0, .AHEAD. ) ;
#71 = PRODUCT_DEFINITION_SHAPE ( 'NONE', 'NONE',  #390 ) ;
#72 = APPLICATION_CONTEXT ( 'configuration controlled 3d designs of mechanical parts and assemblies' ) ;
#73 = APPROVAL_STATUS ( 'not_yet_approved' ) ;
#74 = AXIS2_PLACEMENT_3D ( 'NONE', #200, #217, #218 ) ;
#75 = CC_DESIGN_SECURITY_CLASSIFICATION ( #18, ( #171 ) ) ;
#76 = APPROVAL_STATUS ( 'not_yet_approved' ) ;
#77 = CC_DESIGN_PERSON_AND_ORGANIZATION_ASSIGNMENT ( #97, #254, ( #130 ) ) ;
#78 = CALENDAR_DATE ( 2026, 22, 6 ) ;
#79 = CC_DESIGN_DATE_AND_TIME_ASSIGNMENT ( #270, #57, ( #290 ) ) ;
#80 = CALENDAR_DATE ( 2026, 22, 6 ) ;
#81 = APPROVAL_PERSON_ORGANIZATION ( #363, #320, #306 ) ;
#82 = ITEM_DEFINED_TRANSFORMATION ( 'NONE', 'NONE', #11,  #43 ) ;
#83 =( LENGTH_UNIT ( ) NAMED_UNIT ( * ) SI_UNIT ( .MILLI., .METRE. ) );
#84 = DATE_TIME_ROLE ( 'classification_date' ) ;
#85 = APPROVAL_STATUS ( 'not_yet_approved' ) ;
#86 = PROPERTY_DEFINITION_REPRESENTATION ( #365, #219 ) ;
#87 = APPROVAL_PERSON_ORGANIZATION ( #128, #60, #191 ) ;
#88 = DESIGN_CONTEXT ( 'detailed design', #318, 'design' ) ;
#89 = DIRECTION ( 'NONE',  ( 1.000000000000000222, -1.092455418989176591E-28, 4.890937612370273194E-29 ) ) ;
#90 = APPROVAL_DATE_TIME ( #186, #60 ) ;
#91 =( REPRESENTATION_RELATIONSHIP ('NONE','NONE', #267, #219 ) REPRESENTATION_RELATIONSHIP_WITH_TRANSFORMATION ( #82 )SHAPE_REPRESENTATION_RELATIONSHIP( ) );
#92 = DATE_AND_TIME ( #157, #387 ) ;
#93 = SECURITY_CLASSIFICATION ( '', '', #107 ) ;
#94 = DOCUMENT_FILE ( '6461082896.step.STEP' , '', '', #367, '' ,$ ) ;
#95 = MECHANICAL_CONTEXT ( 'NONE', #156, 'mechanical' ) ;
#96 = SHAPE_REPRESENTATION ( '6461083056.step', ( #145 ), #361 ) ;
#97 = PERSON_AND_ORGANIZATION ( #18446744073709551615, #18446744073709551615 ) ;
#98 = CC_DESIGN_PERSON_AND_ORGANIZATION_ASSIGNMENT ( #35, #69, ( #170 ) ) ;
#99 = LOCAL_TIME ( 18, 49, 58.00000000000000000, #25 ) ;
#100 = APPLICATION_PROTOCOL_DEFINITION ( 'international standard', 'config_control_design', 1994, #113 ) ;
#101 = CC_DESIGN_PERSON_AND_ORGANIZATION_ASSIGNMENT ( #230, #383, ( #93 ) ) ;
#102 = PRODUCT_DEFINITION_SHAPE ( 'NONE', 'NONE',  #384 ) ;
#103 = SHAPE_DEFINITION_REPRESENTATION ( #102, #96 ) ;
#104 = CC_DESIGN_PERSON_AND_ORGANIZATION_ASSIGNMENT ( #312, #214, ( #204 ) ) ;
#105 = APPROVAL_ROLE ( '' ) ;
#106 = CC_DESIGN_APPROVAL ( #329, ( #130 ) ) ;
#107 = SECURITY_CLASSIFICATION_LEVEL ( 'unclassified' ) ;
#108 = COORDINATED_UNIVERSAL_TIME_OFFSET ( 10, 0, .AHEAD. ) ;
#109 = PERSON ( 'NAUO-PER198', 'UNSPECIFIED', 'UNSPECIFIED', ('UNSPECIFIED'), ('UNSPECIFIED'), ('UNSPECIFIED') ) ;
#110 = DIRECTION ( 'NONE',  ( 0.000000000000000000, 0.000000000000000000, 1.000000000000000000 ) ) ;
#111 = LOCAL_TIME ( 18, 49, 58.00000000000000000, #180 ) ;
#112 = APPLIED_DOCUMENT_REFERENCE ( #301,'',( #114) ) ;
#113 = APPLICATION_CONTEXT ( 'configuration controlled 3d designs of mechanical parts and assemblies' ) ;
#114 = PRODUCT_DEFINITION ( 'General', '', #362, #88 ) ;
#115 = UNCERTAINTY_MEASURE_WITH_UNIT (LENGTH_MEASURE( 1.000000000000000082E-05 ), #228, 'distance_accuracy_value', 'NONE');
#116 = CALENDAR_DATE ( 2026, 22, 6 ) ;
#117 = APPROVAL_STATUS ( 'not_yet_approved' ) ;
#118 = CC_DESIGN_PERSON_AND_ORGANIZATION_ASSIGNMENT ( #363, #269, ( #290 ) ) ;
#119 = LOCAL_TIME ( 18, 49, 58.00000000000000000, #70 ) ;
#120 = APPROVAL_ROLE ( '' ) ;
#121 = APPLICATION_PROTOCOL_DEFINITION ( 'international standard', 'config_control_design', 1994, #156 ) ;
#122 = PERSON_AND_ORGANIZATION ( #18446744073709551615, #18446744073709551615 ) ;
#123 = LOCAL_TIME ( 18, 49, 58.00000000000000000, #336 ) ;
#124 = PERSON_AND_ORGANIZATION ( #18446744073709551615, #18446744073709551615 ) ;
#125 = LOCAL_TIME ( 18, 49, 58.00000000000000000, #23 ) ;
#126 = CC_DESIGN_PERSON_AND_ORGANIZATION_ASSIGNMENT ( #134, #342, ( #341 ) ) ;
#127 = ROLE_ASSOCIATION ( #297, #368 ) ;
#128 = PERSON_AND_ORGANIZATION ( #18446744073709551615, #18446744073709551615 ) ;
#129 = DATE_TIME_ROLE ( 'classification_date' ) ;
#130 = PRODUCT_DEFINITION ( 'General', '', #170, #241 ) ;
#131 = COORDINATED_UNIVERSAL_TIME_OFFSET ( 10, 0, .AHEAD. ) ;
#132 = DATE_TIME_ROLE ( 'creation_date' ) ;
#133 = APPROVAL_PERSON_ORGANIZATION ( #379, #259, #105 ) ;
#134 = PERSON_AND_ORGANIZATION ( #18446744073709551615, #18446744073709551615 ) ;
#135 = IDENTIFICATION_ROLE ( 'external document id and location', $) ;
#136 = PERSON_AND_ORGANIZATION ( #18446744073709551615, #18446744073709551615 ) ;
#137 = APPROVAL ( #149, 'UNKNOWN' ) ;
#138 = DATE_TIME_ROLE ( 'classification_date' ) ;
#139 = CC_DESIGN_APPROVAL ( #381, ( #362 ) ) ;
#140 = PERSON_AND_ORGANIZATION_ROLE ( 'design_supplier' ) ;
#141 = DOCUMENT_FILE ( '6461083056.step.STEP' , '', '', #358, '' ,$ ) ;
#142 = APPROVAL_ROLE ( '' ) ;
#143 = CARTESIAN_POINT ( 'NONE',  ( 9.074997955293003571, 11.79371289062500594, -2.058321952820000078 ) ) ;
#144 = AXIS2_PLACEMENT_3D ( 'NONE', #272, #1, #243 ) ;
#145 = AXIS2_PLACEMENT_3D ( 'NONE', #385, #110, #354 ) ;
#146 = CC_DESIGN_APPROVAL ( #331, ( #353 ) ) ;
#147 = COORDINATED_UNIVERSAL_TIME_OFFSET ( 10, 0, .AHEAD. ) ;
#148 = CC_DESIGN_PERSON_AND_ORGANIZATION_ASSIGNMENT ( #161, #201, ( #171 ) ) ;
#149 = APPROVAL_STATUS ( 'not_yet_approved' ) ;
#150 = PRODUCT_RELATED_PRODUCT_CATEGORY ( 'detail', '', ( #341 ) ) ;
#151 = ROLE_ASSOCIATION ( #38, #112 ) ;
#152 = CC_DESIGN_APPROVAL ( #40, ( #170 ) ) ;
#153 = SECURITY_CLASSIFICATION ( '', '', #302 ) ;
#154 = APPROVAL_ROLE ( '' ) ;
#155 = PERSON_AND_ORGANIZATION_ROLE ( 'design_owner' ) ;
#156 = APPLICATION_CONTEXT ( 'configuration controlled 3d designs of mechanical parts and assemblies' ) ;
#157 = CALENDAR_DATE ( 2026, 22, 6 ) ;
#158 = APPROVAL_ROLE ( '' ) ;
#159 = CC_DESIGN_APPROVAL ( #209, ( #93 ) ) ;
#160 = APPROVAL_STATUS ( 'not_yet_approved' ) ;
#161 = PERSON_AND_ORGANIZATION ( #18446744073709551615, #18446744073709551615 ) ;
#162 = PRODUCT ( 'L5.step', 'L5.step', '', ( #268 ) ) ;
#163 = APPLICATION_PROTOCOL_DEFINITION ( 'international standard', 'config_control_design', 1994, #318 ) ;
#164 = APPLIED_EXTERNAL_IDENTIFICATION_ASSIGNMENT ( '6461082896.step.STEP' , #178, #52,( #301) ) ;
#165 = DATE_AND_TIME ( #80, #125 ) ;
#166 = PERSON_AND_ORGANIZATION ( #18446744073709551615, #18446744073709551615 ) ;
#167 = CARTESIAN_POINT ( 'NONE',  ( 9.574997955293003571, 11.79371289062500594, -2.058321952820000078 ) ) ;
#168 = UNCERTAINTY_MEASURE_WITH_UNIT (LENGTH_MEASURE( 1.000000000000000082E-05 ), #83, 'distance_accuracy_value', 'NONE');
#169 = CALENDAR_DATE ( 2026, 22, 6 ) ;
#170 = PRODUCT_DEFINITION_FORMATION_WITH_SPECIFIED_SOURCE ( 'Symmetric', '', #162, .NOT_KNOWN. ) ;
#171 = PRODUCT_DEFINITION_FORMATION_WITH_SPECIFIED_SOURCE ( 'Symmetric', '', #255, .NOT_KNOWN. ) ;
#172 = CC_DESIGN_DATE_AND_TIME_ASSIGNMENT ( #92, #285, ( #204 ) ) ;
#173 = DATE_AND_TIME ( #53, #304 ) ;
#174 = APPROVAL ( #20, 'Coincident' ) ;
#175 = ROLE_ASSOCIATION ( #280, #208 ) ;
#176 =( NAMED_UNIT ( * ) SI_UNIT ( $, .STERADIAN. ) SOLID_ANGLE_UNIT ( ) );
#177 = APPROVAL_STATUS ( 'not_yet_approved' ) ;
#178 = IDENTIFICATION_ROLE ( 'external document id and location', $) ;
#179 = PRODUCT_RELATED_PRODUCT_CATEGORY ( 'detail', '', ( #162 ) ) ;
#180 = COORDINATED_UNIVERSAL_TIME_OFFSET ( 10, 0, .AHEAD. ) ;
#181 = COORDINATED_UNIVERSAL_TIME_OFFSET ( 10, 0, .AHEAD. ) ;
#182 = DIRECTION ( 'NONE',  ( 1.000000000000000222, -1.092455418989176591E-28, 4.890937612370273194E-29 ) ) ;
#183 = CC_DESIGN_SECURITY_CLASSIFICATION ( #353, ( #390 ) ) ;
#184 = DATE_AND_TIME ( #279, #220 ) ;
#185 = PRODUCT_RELATED_PRODUCT_CATEGORY ( 'detail', '', ( #255 ) ) ;
#186 = DATE_AND_TIME ( #253, #377 ) ;
#187 = CALENDAR_DATE ( 2026, 22, 6 ) ;
#188 = APPROVAL_PERSON_ORGANIZATION ( #124, #329, #42 ) ;
#189 = DATE_AND_TIME ( #187, #323 ) ;
#190 = ORGANIZATION ( 'NAUO-ORG198', 'UNSPECIFIED', 'UNSPECIFIED' ) ;
#191 = APPROVAL_ROLE ( '' ) ;
#192 = PRODUCT_DEFINITION_SHAPE ( 'NONE', 'NONE',  #388 ) ;
#193 = DATE_TIME_ROLE ( 'creation_date' ) ;
#194 = PERSON_AND_ORGANIZATION ( #18446744073709551615, #18446744073709551615 ) ;
#195 =( REPRESENTATION_RELATIONSHIP ('NONE','NONE', #267, #219 ) REPRESENTATION_RELATIONSHIP_WITH_TRANSFORMATION ( #210 )SHAPE_REPRESENTATION_RELATIONSHIP( ) );
#196 = CC_DESIGN_APPROVAL ( #320, ( #290 ) ) ;
#197 = PERSON ( 'NAUO-PER200', 'UNSPECIFIED', 'UNSPECIFIED', ('UNSPECIFIED'), ('UNSPECIFIED'), ('UNSPECIFIED') ) ;
#198 = LOCAL_TIME ( 18, 49, 58.00000000000000000, #274 ) ;
#199 = CALENDAR_DATE ( 2026, 22, 6 ) ;
#200 = CARTESIAN_POINT ( 'NONE',  ( 0.000000000000000000, 0.000000000000000000, 0.000000000000000000 ) ) ;
#201 = PERSON_AND_ORGANIZATION_ROLE ( 'creator' ) ;
#202 = CC_DESIGN_PERSON_AND_ORGANIZATION_ASSIGNMENT ( #351, #281, ( #162 ) ) ;
#203 = CALENDAR_DATE ( 2026, 22, 6 ) ;
#204 = SECURITY_CLASSIFICATION ( '', '', #332 ) ;
#205 =( NAMED_UNIT ( * ) PLANE_ANGLE_UNIT ( ) SI_UNIT ( $, .RADIAN. ) );
#206 = CC_DESIGN_SECURITY_CLASSIFICATION ( #153, ( #388 ) ) ;
#207 = PERSON_AND_ORGANIZATION ( #109, #190 ) ;
#208 = APPLIED_DOCUMENT_REFERENCE ( #94,'',( #114) ) ;
#209 = APPROVAL ( #85, 'Coincident' ) ;
#210 = ITEM_DEFINED_TRANSFORMATION ( 'NONE', 'NONE', #144,  #43 ) ;
#211 = PERSON_AND_ORGANIZATION_ROLE ( 'creator' ) ;
#212 = PERSON_AND_ORGANIZATION ( #197, #29 ) ;
#213 = LOCAL_TIME ( 18, 49, 58.00000000000000000, #51 ) ;
#214 = PERSON_AND_ORGANIZATION_ROLE ( 'classification_officer' ) ;
#215 = EXTERNAL_SOURCE (IDENTIFIER('') ) ;
#216 = APPROVAL ( #73, 'Coincident' ) ;
#217 = DIRECTION ( 'NONE',  ( 0.000000000000000000, 0.000000000000000000, 1.000000000000000000 ) ) ;
#218 = DIRECTION ( 'NONE',  ( 1.000000000000000000, 0.000000000000000000, 0.000000000000000000 ) ) ;
#219 = SHAPE_REPRESENTATION ( '6461082896.step', ( #43 ), #264 ) ;
#220 = LOCAL_TIME ( 18, 49, 58.00000000000000000, #8 ) ;
#221 = CALENDAR_DATE ( 2026, 22, 6 ) ;
#222 = LOCAL_TIME ( 18, 49, 58.00000000000000000, #360 ) ;
#223 = PERSON_AND_ORGANIZATION ( #18446744073709551615, #18446744073709551615 ) ;
#224 = PRODUCT_DEFINITION_SHAPE ( 'NONE', 'NONE',  #130 ) ;
#225 = APPROVAL_ROLE ( '' ) ;
#226 = APPROVAL_DATE_TIME ( #263, #259 ) ;
#227 = APPROVAL_PERSON_ORGANIZATION ( #223, #216, #258 ) ;
#228 =( LENGTH_UNIT ( ) NAMED_UNIT ( * ) SI_UNIT ( .MILLI., .METRE. ) );
#229 = DESIGN_CONTEXT ( 'detailed design', #72, 'design' ) ;
#230 = PERSON_AND_ORGANIZATION ( #18446744073709551615, #18446744073709551615 ) ;
#231 = DIRECTION ( 'NONE',  ( 1.000000000000000000, 0.000000000000000000, 0.000000000000000000 ) ) ;
#232 = PERSON_AND_ORGANIZATION ( #18446744073709551615, #18446744073709551615 ) ;
#233 = DATE_AND_TIME ( #386, #198 ) ;
#234 = PERSON ( 'NAUO-PER199', 'UNSPECIFIED', 'UNSPECIFIED', ('UNSPECIFIED'), ('UNSPECIFIED'), ('UNSPECIFIED') ) ;
#235 = APPROVAL_PERSON_ORGANIZATION ( #207, #137, #142 ) ;
#236 = PROPERTY_DEFINITION_REPRESENTATION ( #19, #219 ) ;
#237 = EXTERNAL_SOURCE (IDENTIFIER('') ) ;
#238 = CALENDAR_DATE ( 2026, 22, 6 ) ;
#239 = DATE_AND_TIME ( #116, #6 ) ;
#240 = APPLIED_EXTERNAL_IDENTIFICATION_ASSIGNMENT ( '6461082896.step.STEP' , #135, #215,( #94) ) ;
#241 = DESIGN_CONTEXT ( 'detailed design', #335, 'design' ) ;
#242 = ITEM_DEFINED_TRANSFORMATION ( 'NONE', 'NONE', #370,  #145 ) ;
#243 = DIRECTION ( 'NONE',  ( 1.000000000000000222, -1.092455418989176591E-28, 4.890937612370273194E-29 ) ) ;
#244 = PERSON_AND_ORGANIZATION_ROLE ( 'classification_officer' ) ;
#245 =( NAMED_UNIT ( * ) SI_UNIT ( $, .STERADIAN. ) SOLID_ANGLE_UNIT ( ) );
#246 = PROPERTY_DEFINITION ('external definition','', #94 ) ;
#247 = APPROVAL_STATUS ( 'not_yet_approved' ) ;
#248 = CC_DESIGN_PERSON_AND_ORGANIZATION_ASSIGNMENT ( #369, #375, ( #170 ) ) ;
#249 = APPROVAL_PERSON_ORGANIZATION ( #212, #331, #120 ) ;
#250 = CALENDAR_DATE ( 2026, 22, 6 ) ;
#251 = CC_DESIGN_PERSON_AND_ORGANIZATION_ASSIGNMENT ( #345, #22, ( #114 ) ) ;
#252 = CONTEXT_DEPENDENT_SHAPE_REPRESENTATION ( #343, #71 ) ;
#253 = CALENDAR_DATE ( 2026, 22, 6 ) ;
#254 = PERSON_AND_ORGANIZATION_ROLE ( 'creator' ) ;
#255 = PRODUCT ( '6461083056.step', '6461083056.step', '', ( #95 ) ) ;
#256 = PERSON_AND_ORGANIZATION_ROLE ( 'design_supplier' ) ;
#257 = ORGANIZATION ( 'NAUO-ORG199', 'UNSPECIFIED', 'UNSPECIFIED' ) ;
#258 = APPROVAL_ROLE ( '' ) ;
#259 = APPROVAL ( #319, 'Coincident' ) ;
#260 = DATE_AND_TIME ( #169, #284 ) ;
#261 =( LENGTH_UNIT ( ) NAMED_UNIT ( * ) SI_UNIT ( .MILLI., .METRE. ) );
#262 = CC_DESIGN_PERSON_AND_ORGANIZATION_ASSIGNMENT ( #7, #211, ( #384 ) ) ;
#263 = DATE_AND_TIME ( #45, #213 ) ;
#264 =( GEOMETRIC_REPRESENTATION_CONTEXT ( 3 ) GLOBAL_UNCERTAINTY_ASSIGNED_CONTEXT ( ( #115 ) ) GLOBAL_UNIT_ASSIGNED_CONTEXT ( ( #228, #205, #308 ) ) REPRESENTATION_CONTEXT ( 'NONE', 'WORKASPACE' ) );
#265 = CC_DESIGN_APPROVAL ( #259, ( #18 ) ) ;
#266 = APPROVAL_DATE_TIME ( #49, #381 ) ;
#267 = SHAPE_REPRESENTATION ( 'L5.step', ( #74, #11, #144, #370 ), #376 ) ;
#268 = MECHANICAL_CONTEXT ( 'NONE', #56, 'mechanical' ) ;
#269 = PERSON_AND_ORGANIZATION_ROLE ( 'classification_officer' ) ;
#270 = DATE_AND_TIME ( #203, #36 ) ;
#271 = CC_DESIGN_PERSON_AND_ORGANIZATION_ASSIGNMENT ( #39, #155, ( #255 ) ) ;
#272 = CARTESIAN_POINT ( 'NONE',  ( 10.07499795529300357, 11.79371289062500416, -2.058321952820000078 ) ) ;
#273 = CC_DESIGN_APPROVAL ( #216, ( #171 ) ) ;
#274 = COORDINATED_UNIVERSAL_TIME_OFFSET ( 10, 0, .AHEAD. ) ;
#275 = PERSON_AND_ORGANIZATION_ROLE ( 'classification_officer' ) ;
#276 = APPROVAL_PERSON_ORGANIZATION ( #122, #40, #158 ) ;
#277 = CC_DESIGN_SECURITY_CLASSIFICATION ( #290, ( #389 ) ) ;
#278 = DATE_AND_TIME ( #10, #12 ) ;
#279 = CALENDAR_DATE ( 2026, 22, 6 ) ;
#280 = OBJECT_ROLE ('mandatory',$ ) ;
#281 = PERSON_AND_ORGANIZATION_ROLE ( 'design_owner' ) ;
#282 = CC_DESIGN_DATE_AND_TIME_ASSIGNMENT ( #44, #378, ( #93 ) ) ;
#283 = APPROVAL_PERSON_ORGANIZATION ( #232, #174, #225 ) ;
#284 = LOCAL_TIME ( 18, 49, 58.00000000000000000, #48 ) ;
#285 = DATE_TIME_ROLE ( 'classification_date' ) ;
#286 = APPLICATION_PROTOCOL_DEFINITION ( 'international standard', 'config_control_design', 1994, #72 ) ;
#287 = CC_DESIGN_PERSON_AND_ORGANIZATION_ASSIGNMENT ( #321, #140, ( #171 ) ) ;
#288 = APPROVAL_ROLE ( '' ) ;
#289 = APPROVAL_DATE_TIME ( #349, #216 ) ;
#290 = SECURITY_CLASSIFICATION ( '', '', #305 ) ;
#291 = PROPERTY_DEFINITION ('external definition','', #301 ) ;
#292 = MECHANICAL_CONTEXT ( 'NONE', #113, 'mechanical' ) ;
#293 = CC_DESIGN_DATE_AND_TIME_ASSIGNMENT ( #184, #310, ( #130 ) ) ;
#294 = PERSON_AND_ORGANIZATION_ROLE ( 'creator' ) ;
#295 = DIRECTION ( 'NONE',  ( 0.000000000000000000, 0.000000000000000000, 1.000000000000000000 ) ) ;
#296 = APPROVAL_DATE_TIME ( #260, #174 ) ;
#297 = OBJECT_ROLE ('mandatory',$ ) ;
#298 = CC_DESIGN_APPROVAL ( #60, ( #204 ) ) ;
#299 =( NAMED_UNIT ( * ) PLANE_ANGLE_UNIT ( ) SI_UNIT ( $, .RADIAN. ) );
#300 = PERSON_AND_ORGANIZATION ( #18446744073709551615, #18446744073709551615 ) ;
#301 = DOCUMENT_FILE ( '6461082896.step.STEP' , '', '', #21, '' ,$ ) ;
#302 = SECURITY_CLASSIFICATION_LEVEL ( 'unclassified' ) ;
#303 = IDENTIFICATION_ROLE ( 'external document id and location', $) ;
#304 = LOCAL_TIME ( 18, 49, 58.00000000000000000, #28 ) ;
#305 = SECURITY_CLASSIFICATION_LEVEL ( 'unclassified' ) ;
#306 = APPROVAL_ROLE ( '' ) ;
#307 = CC_DESIGN_PERSON_AND_ORGANIZATION_ASSIGNMENT ( #212, #244, ( #353 ) ) ;
#308 =( NAMED_UNIT ( * ) SI_UNIT ( $, .STERADIAN. ) SOLID_ANGLE_UNIT ( ) );
#309 = APPROVAL_DATE_TIME ( #278, #34 ) ;
#310 = DATE_TIME_ROLE ( 'creation_date' ) ;
#311 = CC_DESIGN_APPROVAL ( #34, ( #384 ) ) ;
#312 = PERSON_AND_ORGANIZATION ( #18446744073709551615, #18446744073709551615 ) ;
#313 = CC_DESIGN_PERSON_AND_ORGANIZATION_ASSIGNMENT ( #194, #380, ( #18 ) ) ;
#314 = CALENDAR_DATE ( 2026, 22, 6 ) ;
#315 = CALENDAR_DATE ( 2026, 22, 6 ) ;
#316 = SECURITY_CLASSIFICATION_LEVEL ( 'unclassified' ) ;
#317 = LOCAL_TIME ( 18, 49, 58.00000000000000000, #108 ) ;
#318 = APPLICATION_CONTEXT ( 'configuration controlled 3d designs of mechanical parts and assemblies' ) ;
#319 = APPROVAL_STATUS ( 'not_yet_approved' ) ;
#320 = APPROVAL ( #117, 'UNKNOWN' ) ;
#321 = PERSON_AND_ORGANIZATION ( #18446744073709551615, #18446744073709551615 ) ;
#322 = SECURITY_CLASSIFICATION_LEVEL ( 'unclassified' ) ;
#323 = LOCAL_TIME ( 18, 49, 58.00000000000000000, #66 ) ;
#324 = LOCAL_TIME ( 18, 49, 58.00000000000000000, #37 ) ;
#325 = PROPERTY_DEFINITION_REPRESENTATION ( #246, #219 ) ;
#326 =( NAMED_UNIT ( * ) PLANE_ANGLE_UNIT ( ) SI_UNIT ( $, .RADIAN. ) );
#327 = APPROVAL_ROLE ( '' ) ;
#328 = APPROVAL_DATE_TIME ( #355, #137 ) ;
#329 = APPROVAL ( #340, 'Coincident' ) ;
#330 = APPROVAL_DATE_TIME ( #32, #320 ) ;
#331 = APPROVAL ( #177, 'UNKNOWN' ) ;
#332 = SECURITY_CLASSIFICATION_LEVEL ( 'unclassified' ) ;
#333 = CC_DESIGN_SECURITY_CLASSIFICATION ( #204, ( #170 ) ) ;
#334 = COORDINATED_UNIVERSAL_TIME_OFFSET ( 10, 0, .AHEAD. ) ;
#335 = APPLICATION_CONTEXT ( 'configuration controlled 3d designs of mechanical parts and assemblies' ) ;
#336 = COORDINATED_UNIVERSAL_TIME_OFFSET ( 10, 0, .AHEAD. ) ;
#337 = APPROVAL_PERSON_ORGANIZATION ( #366, #34, #154 ) ;
#338 = APPROVAL_PERSON_ORGANIZATION ( #300, #209, #327 ) ;
#339 = PROPERTY_DEFINITION ('document property','', #141 ) ;
#340 = APPROVAL_STATUS ( 'not_yet_approved' ) ;
#341 = PRODUCT ( '6461082896.step', '6461082896.step', '', ( #292 ) ) ;
#342 = PERSON_AND_ORGANIZATION_ROLE ( 'design_owner' ) ;
#343 =( REPRESENTATION_RELATIONSHIP ('NONE','NONE', #267, #96 ) REPRESENTATION_RELATIONSHIP_WITH_TRANSFORMATION ( #242 )SHAPE_REPRESENTATION_RELATIONSHIP( ) );
#344 = PRODUCT_DEFINITION_SHAPE ( 'NONE', 'NONE',  #389 ) ;
#345 = PERSON_AND_ORGANIZATION ( #18446744073709551615, #18446744073709551615 ) ;
#346 = CC_DESIGN_PERSON_AND_ORGANIZATION_ASSIGNMENT ( #382, #256, ( #362 ) ) ;
#347 = APPLIED_EXTERNAL_IDENTIFICATION_ASSIGNMENT ( '6461083056.step.STEP' , #303, #237,( #141) ) ;
#348 = DATE_AND_TIME ( #78, #99 ) ;
#349 = DATE_AND_TIME ( #199, #24 ) ;
#350 = DATE_AND_TIME ( #250, #324 ) ;
#351 = PERSON_AND_ORGANIZATION ( #18446744073709551615, #18446744073709551615 ) ;
#352 = CALENDAR_DATE ( 2026, 22, 6 ) ;
#353 = SECURITY_CLASSIFICATION ( '', '', #322 ) ;
#354 = DIRECTION ( 'NONE',  ( 1.000000000000000000, 0.000000000000000000, 0.000000000000000000 ) ) ;
#355 = DATE_AND_TIME ( #352, #222 ) ;
#356 = CC_DESIGN_DATE_AND_TIME_ASSIGNMENT ( #350, #193, ( #384 ) ) ;
#357 = APPROVAL_DATE_TIME ( #26, #331 ) ;
#358 = DOCUMENT_TYPE ( 'geometry' ) ;
#359 = UNCERTAINTY_MEASURE_WITH_UNIT (LENGTH_MEASURE( 1.000000000000000082E-05 ), #261, 'distance_accuracy_value', 'NONE');
#360 = COORDINATED_UNIVERSAL_TIME_OFFSET ( 10, 0, .AHEAD. ) ;
#361 =( GEOMETRIC_REPRESENTATION_CONTEXT ( 3 ) GLOBAL_UNCERTAINTY_ASSIGNED_CONTEXT ( ( #168 ) ) GLOBAL_UNIT_ASSIGNED_CONTEXT ( ( #83, #326, #176 ) ) REPRESENTATION_CONTEXT ( 'NONE', 'WORKASPACE' ) );
#362 = PRODUCT_DEFINITION_FORMATION_WITH_SPECIFIED_SOURCE ( 'Symmetric', '', #341, .NOT_KNOWN. ) ;
#363 = PERSON_AND_ORGANIZATION ( #234, #257 ) ;
#364 = APPLICATION_PROTOCOL_DEFINITION ( 'international standard', 'config_control_design', 1994, #56 ) ;
#365 = PROPERTY_DEFINITION ('document property','', #94 ) ;
#366 = PERSON_AND_ORGANIZATION ( #18446744073709551615, #18446744073709551615 ) ;
#367 = DOCUMENT_TYPE ( 'geometry' ) ;
#368 = APPLIED_DOCUMENT_REFERENCE ( #141,'',( #384) ) ;
#369 = PERSON_AND_ORGANIZATION ( #18446744073709551615, #18446744073709551615 ) ;
#370 = AXIS2_PLACEMENT_3D ( 'NONE', #167, #61, #182 ) ;
#371 = LOCAL_TIME ( 18, 49, 58.00000000000000000, #147 ) ;
#372 = APPROVAL_DATE_TIME ( #189, #40 ) ;
#373 = APPLICATION_PROTOCOL_DEFINITION ( 'international standard', 'config_control_design', 1994, #335 ) ;
#374 = CC_DESIGN_DATE_AND_TIME_ASSIGNMENT ( #173, #129, ( #353 ) ) ;
#375 = PERSON_AND_ORGANIZATION_ROLE ( 'design_supplier' ) ;
#376 =( GEOMETRIC_REPRESENTATION_CONTEXT ( 3 ) GLOBAL_UNCERTAINTY_ASSIGNED_CONTEXT ( ( #359 ) ) GLOBAL_UNIT_ASSIGNED_CONTEXT ( ( #261, #299, #245 ) ) REPRESENTATION_CONTEXT ( 'NONE', 'WORKASPACE' ) );
#377 = LOCAL_TIME ( 18, 49, 58.00000000000000000, #334 ) ;
#378 = DATE_TIME_ROLE ( 'classification_date' ) ;
#379 = PERSON_AND_ORGANIZATION ( #18446744073709551615, #18446744073709551615 ) ;
#380 = PERSON_AND_ORGANIZATION_ROLE ( 'classification_officer' ) ;
#381 = APPROVAL ( #76, 'Coincident' ) ;
#382 = PERSON_AND_ORGANIZATION ( #18446744073709551615, #18446744073709551615 ) ;
#383 = PERSON_AND_ORGANIZATION_ROLE ( 'classification_officer' ) ;
#384 = PRODUCT_DEFINITION ( 'General', '', #171, #229 ) ;
#385 = CARTESIAN_POINT ( 'NONE',  ( 0.000000000000000000, 0.000000000000000000, 0.000000000000000000 ) ) ;
#386 = CALENDAR_DATE ( 2026, 22, 6 ) ;
#387 = LOCAL_TIME ( 18, 49, 58.00000000000000000, #62 ) ;
#388 = NEXT_ASSEMBLY_USAGE_OCCURRENCE ( 'NAUO198', ' ', ' ', #130, #114, $ ) ;
#389 = NEXT_ASSEMBLY_USAGE_OCCURRENCE ( 'NAUO199', ' ', ' ', #130, #114, $ ) ;
#390 = NEXT_ASSEMBLY_USAGE_OCCURRENCE ( 'NAUO200', ' ', ' ', #130, #384, $ ) ;
ENDSEC;
END-ISO-10303-21;
