ISO-10303-21;
HEADER;
FILE_DESCRIPTION (( 'STEP AP203' ),
    '1' );
FILE_NAME ('L7.step.STEP',
    '2026-06-22T08:49:58',
    ( 'localuser' ),
    ( '' ),
    'SwSTEP 2.0',
    'SolidWorks 2025',
    '' );
FILE_SCHEMA (( 'CONFIG_CONTROL_DESIGN' ));
ENDSEC;

DATA;
#1 = CC_DESIGN_APPROVAL ( #44, ( #7 ) ) ;
#2 = PERSON_AND_ORGANIZATION ( #18446744073709551615, #18446744073709551615 ) ;
#3 = CALENDAR_DATE ( 2026, 22, 6 ) ;
#4 = CC_DESIGN_PERSON_AND_ORGANIZATION_ASSIGNMENT ( #41, #190, ( #129 ) ) ;
#5 = PERSON_AND_ORGANIZATION_ROLE ( 'design_owner' ) ;
#6 = LOCAL_TIME ( 18, 49, 58.00000000000000000, #107 ) ;
#7 = SECURITY_CLASSIFICATION ( '', '', #210 ) ;
#8 = SHAPE_DEFINITION_REPRESENTATION ( #140, #17 ) ;
#9 = APPROVAL_STATUS ( 'not_yet_approved' ) ;
#10 = PERSON_AND_ORGANIZATION_ROLE ( 'design_supplier' ) ;
#11 = PERSON_AND_ORGANIZATION ( #18446744073709551615, #18446744073709551615 ) ;
#12 = APPLICATION_CONTEXT ( 'configuration controlled 3d designs of mechanical parts and assemblies' ) ;
#13 = APPLIED_DOCUMENT_REFERENCE ( #47,'',( #80) ) ;
#14 =( LENGTH_UNIT ( ) NAMED_UNIT ( * ) SI_UNIT ( .MILLI., .METRE. ) );
#15 = LOCAL_TIME ( 18, 49, 58.00000000000000000, #126 ) ;
#16 = APPROVAL ( #139, 'Coincident' ) ;
#17 = SHAPE_REPRESENTATION ( 'L7.step', ( #214, #82 ), #92 ) ;
#18 = CC_DESIGN_DATE_AND_TIME_ASSIGNMENT ( #161, #72, ( #80 ) ) ;
#19 = DATE_AND_TIME ( #86, #6 ) ;
#20 = SECURITY_CLASSIFICATION_LEVEL ( 'unclassified' ) ;
#21 = DATE_AND_TIME ( #38, #40 ) ;
#22 = CC_DESIGN_DATE_AND_TIME_ASSIGNMENT ( #21, #53, ( #136 ) ) ;
#23 = MECHANICAL_CONTEXT ( 'NONE', #189, 'mechanical' ) ;
#24 = APPROVAL_PERSON_ORGANIZATION ( #137, #42, #183 ) ;
#25 = DATE_AND_TIME ( #172, #148 ) ;
#26 = PROPERTY_DEFINITION ('external definition','', #47 ) ;
#27 = DATE_TIME_ROLE ( 'classification_date' ) ;
#28 =( NAMED_UNIT ( * ) SI_UNIT ( $, .STERADIAN. ) SOLID_ANGLE_UNIT ( ) );
#29 = APPLIED_EXTERNAL_IDENTIFICATION_ASSIGNMENT ( '11552552384.step.STEP' , #51, #123,( #47) ) ;
#30 = CARTESIAN_POINT ( 'NONE',  ( 15.95000176999000097, 2.200001037598001030, 0.000000000000000000 ) ) ;
#31 =( REPRESENTATION_RELATIONSHIP ('NONE','NONE', #17, #151 ) REPRESENTATION_RELATIONSHIP_WITH_TRANSFORMATION ( #90 )SHAPE_REPRESENTATION_RELATIONSHIP( ) );
#32 = UNCERTAINTY_MEASURE_WITH_UNIT (LENGTH_MEASURE( 1.000000000000000082E-05 ), #14, 'distance_accuracy_value', 'NONE');
#33 = CC_DESIGN_PERSON_AND_ORGANIZATION_ASSIGNMENT ( #116, #45, ( #188 ) ) ;
#34 = PERSON_AND_ORGANIZATION ( #18446744073709551615, #18446744073709551615 ) ;
#35 = APPROVAL_DATE_TIME ( #25, #42 ) ;
#36 = DATE_AND_TIME ( #170, #206 ) ;
#37 = PERSON ( 'NAUO-PER204', 'UNSPECIFIED', 'UNSPECIFIED', ('UNSPECIFIED'), ('UNSPECIFIED'), ('UNSPECIFIED') ) ;
#38 = CALENDAR_DATE ( 2026, 22, 6 ) ;
#39 = APPLICATION_PROTOCOL_DEFINITION ( 'international standard', 'config_control_design', 1994, #189 ) ;
#40 = LOCAL_TIME ( 18, 49, 58.00000000000000000, #71 ) ;
#41 = PERSON_AND_ORGANIZATION ( #37, #155 ) ;
#42 = APPROVAL ( #181, 'Coincident' ) ;
#43 = MECHANICAL_CONTEXT ( 'NONE', #74, 'mechanical' ) ;
#44 = APPROVAL ( #193, 'Coincident' ) ;
#45 = PERSON_AND_ORGANIZATION_ROLE ( 'design_owner' ) ;
#46 = CC_DESIGN_APPROVAL ( #124, ( #112 ) ) ;
#47 = DOCUMENT_FILE ( '11552552384.step.STEP' , '', '', #196, '' ,$ ) ;
#48 = CC_DESIGN_APPROVAL ( #42, ( #80 ) ) ;
#49 = CC_DESIGN_SECURITY_CLASSIFICATION ( #7, ( #186 ) ) ;
#50 = PERSON_AND_ORGANIZATION ( #18446744073709551615, #18446744073709551615 ) ;
#51 = IDENTIFICATION_ROLE ( 'external document id and location', $) ;
#52 = APPROVAL_DATE_TIME ( #19, #195 ) ;
#53 = DATE_TIME_ROLE ( 'classification_date' ) ;
#54 = PERSON_AND_ORGANIZATION ( #18446744073709551615, #18446744073709551615 ) ;
#55 = COORDINATED_UNIVERSAL_TIME_OFFSET ( 10, 0, .AHEAD. ) ;
#56 = CC_DESIGN_PERSON_AND_ORGANIZATION_ASSIGNMENT ( #89, #202, ( #80 ) ) ;
#57 = CC_DESIGN_APPROVAL ( #100, ( #129 ) ) ;
#58 = CC_DESIGN_DATE_AND_TIME_ASSIGNMENT ( #96, #27, ( #129 ) ) ;
#59 = PRODUCT_DEFINITION_SHAPE ( 'NONE', 'NONE',  #215 ) ;
#60 = CC_DESIGN_PERSON_AND_ORGANIZATION_ASSIGNMENT ( #34, #84, ( #112 ) ) ;
#61 = APPROVAL_STATUS ( 'not_yet_approved' ) ;
#62 = CC_DESIGN_SECURITY_CLASSIFICATION ( #136, ( #112 ) ) ;
#63 = DIRECTION ( 'NONE',  ( 4.890937612370273194E-29, -3.155443620884047222E-30, 0.9999999999999997780 ) ) ;
#64 = APPROVAL_PERSON_ORGANIZATION ( #93, #44, #166 ) ;
#65 = CALENDAR_DATE ( 2026, 22, 6 ) ;
#66 =( NAMED_UNIT ( * ) PLANE_ANGLE_UNIT ( ) SI_UNIT ( $, .RADIAN. ) );
#67 = APPROVAL_DATE_TIME ( #135, #102 ) ;
#68 = COORDINATED_UNIVERSAL_TIME_OFFSET ( 10, 0, .AHEAD. ) ;
#69 = APPROVAL_PERSON_ORGANIZATION ( #138, #195, #158 ) ;
#70 = DATE_AND_TIME ( #184, #15 ) ;
#71 = COORDINATED_UNIVERSAL_TIME_OFFSET ( 10, 0, .AHEAD. ) ;
#72 = DATE_TIME_ROLE ( 'creation_date' ) ;
#73 = LOCAL_TIME ( 18, 49, 58.00000000000000000, #164 ) ;
#74 = APPLICATION_CONTEXT ( 'configuration controlled 3d designs of mechanical parts and assemblies' ) ;
#75 = DIRECTION ( 'NONE',  ( 0.000000000000000000, 0.000000000000000000, 1.000000000000000000 ) ) ;
#76 = CALENDAR_DATE ( 2026, 22, 6 ) ;
#77 = ROLE_ASSOCIATION ( #85, #13 ) ;
#78 =( NAMED_UNIT ( * ) SI_UNIT ( $, .STERADIAN. ) SOLID_ANGLE_UNIT ( ) );
#79 = LOCAL_TIME ( 18, 49, 58.00000000000000000, #68 ) ;
#80 = PRODUCT_DEFINITION ( 'General', '', #186, #209 ) ;
#81 = CC_DESIGN_PERSON_AND_ORGANIZATION_ASSIGNMENT ( #11, #208, ( #7 ) ) ;
#82 = AXIS2_PLACEMENT_3D ( 'NONE', #30, #63, #101 ) ;
#83 = PERSON_AND_ORGANIZATION_ROLE ( 'creator' ) ;
#84 = PERSON_AND_ORGANIZATION_ROLE ( 'design_supplier' ) ;
#85 = OBJECT_ROLE ('mandatory',$ ) ;
#86 = CALENDAR_DATE ( 2026, 22, 6 ) ;
#87 = COORDINATED_UNIVERSAL_TIME_OFFSET ( 10, 0, .AHEAD. ) ;
#88 = CC_DESIGN_APPROVAL ( #16, ( #186 ) ) ;
#89 = PERSON_AND_ORGANIZATION ( #18446744073709551615, #18446744073709551615 ) ;
#90 = ITEM_DEFINED_TRANSFORMATION ( 'NONE', 'NONE', #82,  #97 ) ;
#91 = PRODUCT_DEFINITION_SHAPE ( 'NONE', 'NONE',  #80 ) ;
#92 =( GEOMETRIC_REPRESENTATION_CONTEXT ( 3 ) GLOBAL_UNCERTAINTY_ASSIGNED_CONTEXT ( ( #32 ) ) GLOBAL_UNIT_ASSIGNED_CONTEXT ( ( #14, #66, #78 ) ) REPRESENTATION_CONTEXT ( 'NONE', 'WORKASPACE' ) );
#93 = PERSON_AND_ORGANIZATION ( #18446744073709551615, #18446744073709551615 ) ;
#94 = SHAPE_DEFINITION_REPRESENTATION ( #91, #151 ) ;
#95 = DESIGN_CONTEXT ( 'detailed design', #12, 'design' ) ;
#96 = DATE_AND_TIME ( #76, #73 ) ;
#97 = AXIS2_PLACEMENT_3D ( 'NONE', #153, #149, #119 ) ;
#98 = APPLICATION_PROTOCOL_DEFINITION ( 'international standard', 'config_control_design', 1994, #12 ) ;
#99 = LOCAL_TIME ( 18, 49, 58.00000000000000000, #147 ) ;
#100 = APPROVAL ( #61, 'UNKNOWN' ) ;
#101 = DIRECTION ( 'NONE',  ( 1.000000000000000222, -1.092455418989176591E-28, 4.890937612370273194E-29 ) ) ;
#102 = APPROVAL ( #213, 'Coincident' ) ;
#103 = CALENDAR_DATE ( 2026, 22, 6 ) ;
#104 = PRODUCT_RELATED_PRODUCT_CATEGORY ( 'detail', '', ( #130 ) ) ;
#105 = PERSON_AND_ORGANIZATION_ROLE ( 'creator' ) ;
#106 = DATE_TIME_ROLE ( 'creation_date' ) ;
#107 = COORDINATED_UNIVERSAL_TIME_OFFSET ( 10, 0, .AHEAD. ) ;
#108 = PERSON_AND_ORGANIZATION ( #18446744073709551615, #18446744073709551615 ) ;
#109 = PROPERTY_DEFINITION ('document property','', #47 ) ;
#110 = SECURITY_CLASSIFICATION_LEVEL ( 'unclassified' ) ;
#111 = COORDINATED_UNIVERSAL_TIME_OFFSET ( 10, 0, .AHEAD. ) ;
#112 = PRODUCT_DEFINITION_FORMATION_WITH_SPECIFIED_SOURCE ( 'Symmetric', '', #188, .NOT_KNOWN. ) ;
#113 = LOCAL_TIME ( 18, 49, 58.00000000000000000, #174 ) ;
#114 = LOCAL_TIME ( 18, 49, 58.00000000000000000, #55 ) ;
#115 = DATE_AND_TIME ( #142, #113 ) ;
#116 = PERSON_AND_ORGANIZATION ( #18446744073709551615, #18446744073709551615 ) ;
#117 = APPROVAL_PERSON_ORGANIZATION ( #169, #124, #203 ) ;
#118 = CARTESIAN_POINT ( 'NONE',  ( 0.000000000000000000, 0.000000000000000000, 0.000000000000000000 ) ) ;
#119 = DIRECTION ( 'NONE',  ( 1.000000000000000000, 0.000000000000000000, 0.000000000000000000 ) ) ;
#120 = PERSON_AND_ORGANIZATION_ROLE ( 'creator' ) ;
#121 =( LENGTH_UNIT ( ) NAMED_UNIT ( * ) SI_UNIT ( .MILLI., .METRE. ) );
#122 = APPLICATION_PROTOCOL_DEFINITION ( 'international standard', 'config_control_design', 1994, #182 ) ;
#123 = EXTERNAL_SOURCE (IDENTIFIER('') ) ;
#124 = APPROVAL ( #9, 'Coincident' ) ;
#125 = PERSON_AND_ORGANIZATION_ROLE ( 'classification_officer' ) ;
#126 = COORDINATED_UNIVERSAL_TIME_OFFSET ( 10, 0, .AHEAD. ) ;
#127 = APPROVAL_PERSON_ORGANIZATION ( #150, #102, #194 ) ;
#128 = DATE_AND_TIME ( #3, #114 ) ;
#129 = SECURITY_CLASSIFICATION ( '', '', #110 ) ;
#130 = PRODUCT ( '11552552384.step', '11552552384.step', '', ( #23 ) ) ;
#131 = APPROVAL_ROLE ( '' ) ;
#132 = DATE_AND_TIME ( #65, #99 ) ;
#133 = CC_DESIGN_DATE_AND_TIME_ASSIGNMENT ( #163, #141, ( #7 ) ) ;
#134 = PERSON_AND_ORGANIZATION ( #18446744073709551615, #18446744073709551615 ) ;
#135 = DATE_AND_TIME ( #103, #79 ) ;
#136 = SECURITY_CLASSIFICATION ( '', '', #20 ) ;
#137 = PERSON_AND_ORGANIZATION ( #18446744073709551615, #18446744073709551615 ) ;
#138 = PERSON_AND_ORGANIZATION ( #18446744073709551615, #18446744073709551615 ) ;
#139 = APPROVAL_STATUS ( 'not_yet_approved' ) ;
#140 = PRODUCT_DEFINITION_SHAPE ( 'NONE', 'NONE',  #152 ) ;
#141 = DATE_TIME_ROLE ( 'classification_date' ) ;
#142 = CALENDAR_DATE ( 2026, 22, 6 ) ;
#143 = CC_DESIGN_PERSON_AND_ORGANIZATION_ASSIGNMENT ( #2, #10, ( #186 ) ) ;
#144 = UNCERTAINTY_MEASURE_WITH_UNIT (LENGTH_MEASURE( 1.000000000000000082E-05 ), #121, 'distance_accuracy_value', 'NONE');
#145 = DIRECTION ( 'NONE',  ( 1.000000000000000000, 0.000000000000000000, 0.000000000000000000 ) ) ;
#146 = CC_DESIGN_PERSON_AND_ORGANIZATION_ASSIGNMENT ( #54, #120, ( #152 ) ) ;
#147 = COORDINATED_UNIVERSAL_TIME_OFFSET ( 10, 0, .AHEAD. ) ;
#148 = LOCAL_TIME ( 18, 49, 58.00000000000000000, #156 ) ;
#149 = DIRECTION ( 'NONE',  ( 0.000000000000000000, 0.000000000000000000, 1.000000000000000000 ) ) ;
#150 = PERSON_AND_ORGANIZATION ( #18446744073709551615, #18446744073709551615 ) ;
#151 = SHAPE_REPRESENTATION ( '11552552384.step', ( #97 ), #154 ) ;
#152 = PRODUCT_DEFINITION ( 'General', '', #112, #95 ) ;
#153 = CARTESIAN_POINT ( 'NONE',  ( 0.000000000000000000, 0.000000000000000000, 0.000000000000000000 ) ) ;
#154 =( GEOMETRIC_REPRESENTATION_CONTEXT ( 3 ) GLOBAL_UNCERTAINTY_ASSIGNED_CONTEXT ( ( #144 ) ) GLOBAL_UNIT_ASSIGNED_CONTEXT ( ( #121, #178, #28 ) ) REPRESENTATION_CONTEXT ( 'NONE', 'WORKASPACE' ) );
#155 = ORGANIZATION ( 'NAUO-ORG204', 'UNSPECIFIED', 'UNSPECIFIED' ) ;
#156 = COORDINATED_UNIVERSAL_TIME_OFFSET ( 10, 0, .AHEAD. ) ;
#157 = PERSON_AND_ORGANIZATION ( #18446744073709551615, #18446744073709551615 ) ;
#158 = APPROVAL_ROLE ( '' ) ;
#159 = CC_DESIGN_APPROVAL ( #195, ( #136 ) ) ;
#160 = CALENDAR_DATE ( 2026, 22, 6 ) ;
#161 = DATE_AND_TIME ( #160, #185 ) ;
#162 = CC_DESIGN_PERSON_AND_ORGANIZATION_ASSIGNMENT ( #134, #105, ( #112 ) ) ;
#163 = DATE_AND_TIME ( #191, #177 ) ;
#164 = COORDINATED_UNIVERSAL_TIME_OFFSET ( 10, 0, .AHEAD. ) ;
#165 = CC_DESIGN_PERSON_AND_ORGANIZATION_ASSIGNMENT ( #157, #5, ( #130 ) ) ;
#166 = APPROVAL_ROLE ( '' ) ;
#167 = APPROVAL_PERSON_ORGANIZATION ( #50, #16, #205 ) ;
#168 = CC_DESIGN_SECURITY_CLASSIFICATION ( #129, ( #215 ) ) ;
#169 = PERSON_AND_ORGANIZATION ( #18446744073709551615, #18446744073709551615 ) ;
#170 = CALENDAR_DATE ( 2026, 22, 6 ) ;
#171 = COORDINATED_UNIVERSAL_TIME_OFFSET ( 10, 0, .AHEAD. ) ;
#172 = CALENDAR_DATE ( 2026, 22, 6 ) ;
#173 = PRODUCT_RELATED_PRODUCT_CATEGORY ( 'detail', '', ( #188 ) ) ;
#174 = COORDINATED_UNIVERSAL_TIME_OFFSET ( 10, 0, .AHEAD. ) ;
#175 = PROPERTY_DEFINITION_REPRESENTATION ( #109, #151 ) ;
#176 = APPROVAL_DATE_TIME ( #115, #100 ) ;
#177 = LOCAL_TIME ( 18, 49, 58.00000000000000000, #111 ) ;
#178 =( NAMED_UNIT ( * ) PLANE_ANGLE_UNIT ( ) SI_UNIT ( $, .RADIAN. ) );
#179 = CC_DESIGN_DATE_AND_TIME_ASSIGNMENT ( #36, #106, ( #152 ) ) ;
#180 = APPROVAL_DATE_TIME ( #70, #124 ) ;
#181 = APPROVAL_STATUS ( 'not_yet_approved' ) ;
#182 = APPLICATION_CONTEXT ( 'configuration controlled 3d designs of mechanical parts and assemblies' ) ;
#183 = APPROVAL_ROLE ( '' ) ;
#184 = CALENDAR_DATE ( 2026, 22, 6 ) ;
#185 = LOCAL_TIME ( 18, 49, 58.00000000000000000, #87 ) ;
#186 = PRODUCT_DEFINITION_FORMATION_WITH_SPECIFIED_SOURCE ( 'Symmetric', '', #130, .NOT_KNOWN. ) ;
#187 = APPROVAL_DATE_TIME ( #128, #16 ) ;
#188 = PRODUCT ( 'L7.step', 'L7.step', '', ( #43 ) ) ;
#189 = APPLICATION_CONTEXT ( 'configuration controlled 3d designs of mechanical parts and assemblies' ) ;
#190 = PERSON_AND_ORGANIZATION_ROLE ( 'classification_officer' ) ;
#191 = CALENDAR_DATE ( 2026, 22, 6 ) ;
#192 = APPROVAL_DATE_TIME ( #132, #44 ) ;
#193 = APPROVAL_STATUS ( 'not_yet_approved' ) ;
#194 = APPROVAL_ROLE ( '' ) ;
#195 = APPROVAL ( #198, 'Coincident' ) ;
#196 = DOCUMENT_TYPE ( 'geometry' ) ;
#197 = APPLICATION_PROTOCOL_DEFINITION ( 'international standard', 'config_control_design', 1994, #74 ) ;
#198 = APPROVAL_STATUS ( 'not_yet_approved' ) ;
#199 = PERSON_AND_ORGANIZATION ( #18446744073709551615, #18446744073709551615 ) ;
#200 = CC_DESIGN_APPROVAL ( #102, ( #152 ) ) ;
#201 = APPROVAL_PERSON_ORGANIZATION ( #41, #100, #131 ) ;
#202 = PERSON_AND_ORGANIZATION_ROLE ( 'creator' ) ;
#203 = APPROVAL_ROLE ( '' ) ;
#204 = CC_DESIGN_PERSON_AND_ORGANIZATION_ASSIGNMENT ( #108, #83, ( #186 ) ) ;
#205 = APPROVAL_ROLE ( '' ) ;
#206 = LOCAL_TIME ( 18, 49, 58.00000000000000000, #171 ) ;
#207 = CONTEXT_DEPENDENT_SHAPE_REPRESENTATION ( #31, #59 ) ;
#208 = PERSON_AND_ORGANIZATION_ROLE ( 'classification_officer' ) ;
#209 = DESIGN_CONTEXT ( 'detailed design', #182, 'design' ) ;
#210 = SECURITY_CLASSIFICATION_LEVEL ( 'unclassified' ) ;
#211 = PROPERTY_DEFINITION_REPRESENTATION ( #26, #151 ) ;
#212 = CC_DESIGN_PERSON_AND_ORGANIZATION_ASSIGNMENT ( #199, #125, ( #136 ) ) ;
#213 = APPROVAL_STATUS ( 'not_yet_approved' ) ;
#214 = AXIS2_PLACEMENT_3D ( 'NONE', #118, #75, #145 ) ;
#215 = NEXT_ASSEMBLY_USAGE_OCCURRENCE ( 'NAUO204', ' ', ' ', #152, #80, $ ) ;
ENDSEC;
END-ISO-10303-21;
