ISO-10303-21;
HEADER;
FILE_DESCRIPTION (( 'STEP AP203' ),
    '1' );
FILE_NAME ('L9.step.STEP',
    '2026-06-22T08:49:58',
    ( 'localuser' ),
    ( '' ),
    'SwSTEP 2.0',
    'SolidWorks 2025',
    '' );
FILE_SCHEMA (( 'CONFIG_CONTROL_DESIGN' ));
ENDSEC;

DATA;
#1 = PERSON_AND_ORGANIZATION_ROLE ( 'design_owner' ) ;
#2 = SECURITY_CLASSIFICATION_LEVEL ( 'unclassified' ) ;
#3 = CC_DESIGN_PERSON_AND_ORGANIZATION_ASSIGNMENT ( #58, #56, ( #62 ) ) ;
#4 = SHAPE_DEFINITION_REPRESENTATION ( #120, #128 ) ;
#5 = SECURITY_CLASSIFICATION ( '', '', #149 ) ;
#6 = DATE_AND_TIME ( #96, #87 ) ;
#7 = CALENDAR_DATE ( 2026, 22, 6 ) ;
#8 = DATE_AND_TIME ( #24, #166 ) ;
#9 = DIRECTION ( 'NONE',  ( 0.000000000000000000, 0.000000000000000000, 1.000000000000000000 ) ) ;
#10 = DIRECTION ( 'NONE',  ( 1.000000000000000000, 0.000000000000000000, 0.000000000000000000 ) ) ;
#11 = APPROVAL ( #79, 'Coincident' ) ;
#12 = PERSON_AND_ORGANIZATION_ROLE ( 'creator' ) ;
#13 = PRODUCT_DEFINITION_FORMATION_WITH_SPECIFIED_SOURCE ( 'Symmetric', '', #137, .NOT_KNOWN. ) ;
#14 = PERSON_AND_ORGANIZATION_ROLE ( 'design_supplier' ) ;
#15 = APPROVAL_DATE_TIME ( #203, #157 ) ;
#16 = CC_DESIGN_PERSON_AND_ORGANIZATION_ASSIGNMENT ( #75, #105, ( #187 ) ) ;
#17 = CALENDAR_DATE ( 2026, 22, 6 ) ;
#18 = LOCAL_TIME ( 18, 49, 58.00000000000000000, #186 ) ;
#19 = SECURITY_CLASSIFICATION ( '', '', #37 ) ;
#20 = PERSON_AND_ORGANIZATION ( #18446744073709551615, #18446744073709551615 ) ;
#21 = PERSON_AND_ORGANIZATION_ROLE ( 'classification_officer' ) ;
#22 = PRODUCT_DEFINITION_SHAPE ( 'NONE', 'NONE',  #215 ) ;
#23 = APPROVAL_DATE_TIME ( #206, #69 ) ;
#24 = CALENDAR_DATE ( 2026, 22, 6 ) ;
#25 = DIRECTION ( 'NONE',  ( 1.000000000000000000, 0.000000000000000000, 0.000000000000000000 ) ) ;
#26 =( REPRESENTATION_RELATIONSHIP ('NONE','NONE', #128, #108 ) REPRESENTATION_RELATIONSHIP_WITH_TRANSFORMATION ( #119 )SHAPE_REPRESENTATION_RELATIONSHIP( ) );
#27 = DESIGN_CONTEXT ( 'detailed design', #171, 'design' ) ;
#28 = LOCAL_TIME ( 18, 49, 58.00000000000000000, #201 ) ;
#29 = APPROVAL ( #193, 'UNKNOWN' ) ;
#30 = CC_DESIGN_DATE_AND_TIME_ASSIGNMENT ( #148, #92, ( #145 ) ) ;
#31 = PERSON_AND_ORGANIZATION ( #18446744073709551615, #18446744073709551615 ) ;
#32 = APPROVAL_DATE_TIME ( #117, #132 ) ;
#33 = CC_DESIGN_DATE_AND_TIME_ASSIGNMENT ( #172, #122, ( #62 ) ) ;
#34 = APPROVAL_STATUS ( 'not_yet_approved' ) ;
#35 = APPROVAL_ROLE ( '' ) ;
#36 = APPLICATION_PROTOCOL_DEFINITION ( 'international standard', 'config_control_design', 1994, #171 ) ;
#37 = SECURITY_CLASSIFICATION_LEVEL ( 'unclassified' ) ;
#38 = PRODUCT_DEFINITION_FORMATION_WITH_SPECIFIED_SOURCE ( 'Symmetric', '', #187, .NOT_KNOWN. ) ;
#39 = CC_DESIGN_PERSON_AND_ORGANIZATION_ASSIGNMENT ( #134, #202, ( #54 ) ) ;
#40 = COORDINATED_UNIVERSAL_TIME_OFFSET ( 10, 0, .AHEAD. ) ;
#41 = PERSON_AND_ORGANIZATION ( #207, #160 ) ;
#42 = CARTESIAN_POINT ( 'NONE',  ( 0.000000000000000000, 0.000000000000000000, 0.000000000000000000 ) ) ;
#43 = CC_DESIGN_SECURITY_CLASSIFICATION ( #5, ( #38 ) ) ;
#44 =( NAMED_UNIT ( * ) PLANE_ANGLE_UNIT ( ) SI_UNIT ( $, .RADIAN. ) );
#45 = CC_DESIGN_APPROVAL ( #76, ( #54 ) ) ;
#46 =( NAMED_UNIT ( * ) PLANE_ANGLE_UNIT ( ) SI_UNIT ( $, .RADIAN. ) );
#47 = DATE_AND_TIME ( #151, #142 ) ;
#48 = IDENTIFICATION_ROLE ( 'external document id and location', $) ;
#49 = DATE_TIME_ROLE ( 'classification_date' ) ;
#50 = CC_DESIGN_APPROVAL ( #69, ( #62 ) ) ;
#51 = COORDINATED_UNIVERSAL_TIME_OFFSET ( 10, 0, .AHEAD. ) ;
#52 = APPLICATION_PROTOCOL_DEFINITION ( 'international standard', 'config_control_design', 1994, #101 ) ;
#53 = PERSON_AND_ORGANIZATION_ROLE ( 'creator' ) ;
#54 = PRODUCT_DEFINITION ( 'General', '', #13, #27 ) ;
#55 = LOCAL_TIME ( 18, 49, 58.00000000000000000, #136 ) ;
#56 = PERSON_AND_ORGANIZATION_ROLE ( 'classification_officer' ) ;
#57 = PRODUCT_DEFINITION_SHAPE ( 'NONE', 'NONE',  #54 ) ;
#58 = PERSON_AND_ORGANIZATION ( #18446744073709551615, #18446744073709551615 ) ;
#59 = CC_DESIGN_PERSON_AND_ORGANIZATION_ASSIGNMENT ( #20, #12, ( #38 ) ) ;
#60 = APPROVAL_PERSON_ORGANIZATION ( #115, #76, #71 ) ;
#61 = AXIS2_PLACEMENT_3D ( 'NONE', #127, #213, #10 ) ;
#62 = SECURITY_CLASSIFICATION ( '', '', #2 ) ;
#63 = OBJECT_ROLE ('mandatory',$ ) ;
#64 = UNCERTAINTY_MEASURE_WITH_UNIT (LENGTH_MEASURE( 1.000000000000000082E-05 ), #109, 'distance_accuracy_value', 'NONE');
#65 = APPROVAL_DATE_TIME ( #147, #11 ) ;
#66 = APPROVAL_STATUS ( 'not_yet_approved' ) ;
#67 = APPROVAL_PERSON_ORGANIZATION ( #163, #157, #112 ) ;
#68 = COORDINATED_UNIVERSAL_TIME_OFFSET ( 10, 0, .AHEAD. ) ;
#69 = APPROVAL ( #121, 'Coincident' ) ;
#70 = APPROVAL_STATUS ( 'not_yet_approved' ) ;
#71 = APPROVAL_ROLE ( '' ) ;
#72 = CC_DESIGN_APPROVAL ( #11, ( #13 ) ) ;
#73 = APPLIED_EXTERNAL_IDENTIFICATION_ASSIGNMENT ( '11552552384.step.STEP' , #48, #200,( #146) ) ;
#74 = DATE_TIME_ROLE ( 'classification_date' ) ;
#75 = PERSON_AND_ORGANIZATION ( #18446744073709551615, #18446744073709551615 ) ;
#76 = APPROVAL ( #34, 'Coincident' ) ;
#77 = CC_DESIGN_PERSON_AND_ORGANIZATION_ASSIGNMENT ( #130, #199, ( #13 ) ) ;
#78 = LOCAL_TIME ( 18, 49, 58.00000000000000000, #40 ) ;
#79 = APPROVAL_STATUS ( 'not_yet_approved' ) ;
#80 = DATE_TIME_ROLE ( 'creation_date' ) ;
#81 = DATE_AND_TIME ( #152, #28 ) ;
#82 = PERSON_AND_ORGANIZATION ( #18446744073709551615, #18446744073709551615 ) ;
#83 = MECHANICAL_CONTEXT ( 'NONE', #101, 'mechanical' ) ;
#84 = PROPERTY_DEFINITION ('document property','', #146 ) ;
#85 = ROLE_ASSOCIATION ( #63, #143 ) ;
#86 = COORDINATED_UNIVERSAL_TIME_OFFSET ( 10, 0, .AHEAD. ) ;
#87 = LOCAL_TIME ( 18, 49, 58.00000000000000000, #51 ) ;
#88 = PRODUCT_RELATED_PRODUCT_CATEGORY ( 'detail', '', ( #137 ) ) ;
#89 = CARTESIAN_POINT ( 'NONE',  ( 19.50000100705100792, 2.200001037598001030, 0.000000000000000000 ) ) ;
#90 = CC_DESIGN_PERSON_AND_ORGANIZATION_ASSIGNMENT ( #165, #53, ( #145 ) ) ;
#91 = CC_DESIGN_APPROVAL ( #29, ( #19 ) ) ;
#92 = DATE_TIME_ROLE ( 'creation_date' ) ;
#93 = COORDINATED_UNIVERSAL_TIME_OFFSET ( 10, 0, .AHEAD. ) ;
#94 = APPROVAL_DATE_TIME ( #47, #76 ) ;
#95 = APPROVAL_DATE_TIME ( #183, #177 ) ;
#96 = CALENDAR_DATE ( 2026, 22, 6 ) ;
#97 = PROPERTY_DEFINITION ('external definition','', #146 ) ;
#98 = COORDINATED_UNIVERSAL_TIME_OFFSET ( 10, 0, .AHEAD. ) ;
#99 = COORDINATED_UNIVERSAL_TIME_OFFSET ( 10, 0, .AHEAD. ) ;
#100 = CC_DESIGN_APPROVAL ( #132, ( #145 ) ) ;
#101 = APPLICATION_CONTEXT ( 'configuration controlled 3d designs of mechanical parts and assemblies' ) ;
#102 = COORDINATED_UNIVERSAL_TIME_OFFSET ( 10, 0, .AHEAD. ) ;
#103 = CALENDAR_DATE ( 2026, 22, 6 ) ;
#104 = LOCAL_TIME ( 18, 49, 58.00000000000000000, #93 ) ;
#105 = PERSON_AND_ORGANIZATION_ROLE ( 'design_owner' ) ;
#106 = MECHANICAL_CONTEXT ( 'NONE', #188, 'mechanical' ) ;
#107 = APPROVAL_PERSON_ORGANIZATION ( #41, #29, #170 ) ;
#108 = SHAPE_REPRESENTATION ( '11552552384.step', ( #61 ), #214 ) ;
#109 =( LENGTH_UNIT ( ) NAMED_UNIT ( * ) SI_UNIT ( .MILLI., .METRE. ) );
#110 = PERSON_AND_ORGANIZATION ( #18446744073709551615, #18446744073709551615 ) ;
#111 = AXIS2_PLACEMENT_3D ( 'NONE', #42, #9, #25 ) ;
#112 = APPROVAL_ROLE ( '' ) ;
#113 = CC_DESIGN_PERSON_AND_ORGANIZATION_ASSIGNMENT ( #82, #1, ( #137 ) ) ;
#114 = CALENDAR_DATE ( 2026, 22, 6 ) ;
#115 = PERSON_AND_ORGANIZATION ( #18446744073709551615, #18446744073709551615 ) ;
#116 = CC_DESIGN_APPROVAL ( #177, ( #38 ) ) ;
#117 = DATE_AND_TIME ( #103, #78 ) ;
#118 = CC_DESIGN_SECURITY_CLASSIFICATION ( #62, ( #13 ) ) ;
#119 = ITEM_DEFINED_TRANSFORMATION ( 'NONE', 'NONE', #180,  #61 ) ;
#120 = PRODUCT_DEFINITION_SHAPE ( 'NONE', 'NONE',  #145 ) ;
#121 = APPROVAL_STATUS ( 'not_yet_approved' ) ;
#122 = DATE_TIME_ROLE ( 'classification_date' ) ;
#123 = APPLICATION_PROTOCOL_DEFINITION ( 'international standard', 'config_control_design', 1994, #188 ) ;
#124 = PERSON_AND_ORGANIZATION ( #18446744073709551615, #18446744073709551615 ) ;
#125 = DIRECTION ( 'NONE',  ( 1.000000000000000222, -1.092455418989176591E-28, 4.890937612370273194E-29 ) ) ;
#126 = CC_DESIGN_PERSON_AND_ORGANIZATION_ASSIGNMENT ( #110, #14, ( #13 ) ) ;
#127 = CARTESIAN_POINT ( 'NONE',  ( 0.000000000000000000, 0.000000000000000000, 0.000000000000000000 ) ) ;
#128 = SHAPE_REPRESENTATION ( 'L9.step', ( #111, #180 ), #133 ) ;
#129 = UNCERTAINTY_MEASURE_WITH_UNIT (LENGTH_MEASURE( 1.000000000000000082E-05 ), #140, 'distance_accuracy_value', 'NONE');
#130 = PERSON_AND_ORGANIZATION ( #18446744073709551615, #18446744073709551615 ) ;
#131 = PERSON_AND_ORGANIZATION_ROLE ( 'design_supplier' ) ;
#132 = APPROVAL ( #178, 'Coincident' ) ;
#133 =( GEOMETRIC_REPRESENTATION_CONTEXT ( 3 ) GLOBAL_UNCERTAINTY_ASSIGNED_CONTEXT ( ( #129 ) ) GLOBAL_UNIT_ASSIGNED_CONTEXT ( ( #140, #46, #173 ) ) REPRESENTATION_CONTEXT ( 'NONE', 'WORKASPACE' ) );
#134 = PERSON_AND_ORGANIZATION ( #18446744073709551615, #18446744073709551615 ) ;
#135 = PERSON_AND_ORGANIZATION ( #18446744073709551615, #18446744073709551615 ) ;
#136 = COORDINATED_UNIVERSAL_TIME_OFFSET ( 10, 0, .AHEAD. ) ;
#137 = PRODUCT ( '11552552384.step', '11552552384.step', '', ( #83 ) ) ;
#138 = APPROVAL_DATE_TIME ( #154, #29 ) ;
#139 = APPROVAL_ROLE ( '' ) ;
#140 =( LENGTH_UNIT ( ) NAMED_UNIT ( * ) SI_UNIT ( .MILLI., .METRE. ) );
#141 = CC_DESIGN_DATE_AND_TIME_ASSIGNMENT ( #6, #80, ( #54 ) ) ;
#142 = LOCAL_TIME ( 18, 49, 58.00000000000000000, #68 ) ;
#143 = APPLIED_DOCUMENT_REFERENCE ( #146,'',( #54) ) ;
#144 = APPLICATION_PROTOCOL_DEFINITION ( 'international standard', 'config_control_design', 1994, #182 ) ;
#145 = PRODUCT_DEFINITION ( 'General', '', #38, #210 ) ;
#146 = DOCUMENT_FILE ( '11552552384.step.STEP' , '', '', #159, '' ,$ ) ;
#147 = DATE_AND_TIME ( #204, #55 ) ;
#148 = DATE_AND_TIME ( #114, #18 ) ;
#149 = SECURITY_CLASSIFICATION_LEVEL ( 'unclassified' ) ;
#150 = CC_DESIGN_APPROVAL ( #157, ( #5 ) ) ;
#151 = CALENDAR_DATE ( 2026, 22, 6 ) ;
#152 = CALENDAR_DATE ( 2026, 22, 6 ) ;
#153 = CC_DESIGN_DATE_AND_TIME_ASSIGNMENT ( #81, #49, ( #5 ) ) ;
#154 = DATE_AND_TIME ( #191, #175 ) ;
#155 = CC_DESIGN_SECURITY_CLASSIFICATION ( #19, ( #215 ) ) ;
#156 = PROPERTY_DEFINITION_REPRESENTATION ( #97, #108 ) ;
#157 = APPROVAL ( #70, 'Coincident' ) ;
#158 = LOCAL_TIME ( 18, 49, 58.00000000000000000, #86 ) ;
#159 = DOCUMENT_TYPE ( 'geometry' ) ;
#160 = ORGANIZATION ( 'NAUO-ORG203', 'UNSPECIFIED', 'UNSPECIFIED' ) ;
#161 =( NAMED_UNIT ( * ) SI_UNIT ( $, .STERADIAN. ) SOLID_ANGLE_UNIT ( ) );
#162 = APPROVAL_PERSON_ORGANIZATION ( #184, #11, #35 ) ;
#163 = PERSON_AND_ORGANIZATION ( #18446744073709551615, #18446744073709551615 ) ;
#164 = COORDINATED_UNIVERSAL_TIME_OFFSET ( 10, 0, .AHEAD. ) ;
#165 = PERSON_AND_ORGANIZATION ( #18446744073709551615, #18446744073709551615 ) ;
#166 = LOCAL_TIME ( 18, 49, 58.00000000000000000, #98 ) ;
#167 = PERSON_AND_ORGANIZATION_ROLE ( 'classification_officer' ) ;
#168 = PRODUCT_RELATED_PRODUCT_CATEGORY ( 'detail', '', ( #187 ) ) ;
#169 = CONTEXT_DEPENDENT_SHAPE_REPRESENTATION ( #26, #22 ) ;
#170 = APPROVAL_ROLE ( '' ) ;
#171 = APPLICATION_CONTEXT ( 'configuration controlled 3d designs of mechanical parts and assemblies' ) ;
#172 = DATE_AND_TIME ( #208, #158 ) ;
#173 =( NAMED_UNIT ( * ) SI_UNIT ( $, .STERADIAN. ) SOLID_ANGLE_UNIT ( ) );
#174 = APPROVAL_PERSON_ORGANIZATION ( #176, #132, #192 ) ;
#175 = LOCAL_TIME ( 18, 49, 58.00000000000000000, #99 ) ;
#176 = PERSON_AND_ORGANIZATION ( #18446744073709551615, #18446744073709551615 ) ;
#177 = APPROVAL ( #66, 'Coincident' ) ;
#178 = APPROVAL_STATUS ( 'not_yet_approved' ) ;
#179 = APPROVAL_ROLE ( '' ) ;
#180 = AXIS2_PLACEMENT_3D ( 'NONE', #89, #195, #125 ) ;
#181 = PERSON_AND_ORGANIZATION ( #18446744073709551615, #18446744073709551615 ) ;
#182 = APPLICATION_CONTEXT ( 'configuration controlled 3d designs of mechanical parts and assemblies' ) ;
#183 = DATE_AND_TIME ( #7, #104 ) ;
#184 = PERSON_AND_ORGANIZATION ( #18446744073709551615, #18446744073709551615 ) ;
#185 = LOCAL_TIME ( 18, 49, 58.00000000000000000, #164 ) ;
#186 = COORDINATED_UNIVERSAL_TIME_OFFSET ( 10, 0, .AHEAD. ) ;
#187 = PRODUCT ( 'L9.step', 'L9.step', '', ( #106 ) ) ;
#188 = APPLICATION_CONTEXT ( 'configuration controlled 3d designs of mechanical parts and assemblies' ) ;
#189 = CALENDAR_DATE ( 2026, 22, 6 ) ;
#190 = CC_DESIGN_DATE_AND_TIME_ASSIGNMENT ( #8, #74, ( #19 ) ) ;
#191 = CALENDAR_DATE ( 2026, 22, 6 ) ;
#192 = APPROVAL_ROLE ( '' ) ;
#193 = APPROVAL_STATUS ( 'not_yet_approved' ) ;
#194 = SHAPE_DEFINITION_REPRESENTATION ( #57, #108 ) ;
#195 = DIRECTION ( 'NONE',  ( 4.890937612370273194E-29, -3.155443620884047222E-30, 0.9999999999999997780 ) ) ;
#196 = LOCAL_TIME ( 18, 49, 58.00000000000000000, #102 ) ;
#197 = CC_DESIGN_PERSON_AND_ORGANIZATION_ASSIGNMENT ( #181, #131, ( #38 ) ) ;
#198 = APPROVAL_PERSON_ORGANIZATION ( #124, #69, #139 ) ;
#199 = PERSON_AND_ORGANIZATION_ROLE ( 'creator' ) ;
#200 = EXTERNAL_SOURCE (IDENTIFIER('') ) ;
#201 = COORDINATED_UNIVERSAL_TIME_OFFSET ( 10, 0, .AHEAD. ) ;
#202 = PERSON_AND_ORGANIZATION_ROLE ( 'creator' ) ;
#203 = DATE_AND_TIME ( #17, #185 ) ;
#204 = CALENDAR_DATE ( 2026, 22, 6 ) ;
#205 = APPROVAL_PERSON_ORGANIZATION ( #135, #177, #179 ) ;
#206 = DATE_AND_TIME ( #189, #196 ) ;
#207 = PERSON ( 'NAUO-PER203', 'UNSPECIFIED', 'UNSPECIFIED', ('UNSPECIFIED'), ('UNSPECIFIED'), ('UNSPECIFIED') ) ;
#208 = CALENDAR_DATE ( 2026, 22, 6 ) ;
#209 = CC_DESIGN_PERSON_AND_ORGANIZATION_ASSIGNMENT ( #41, #21, ( #19 ) ) ;
#210 = DESIGN_CONTEXT ( 'detailed design', #182, 'design' ) ;
#211 = PROPERTY_DEFINITION_REPRESENTATION ( #84, #108 ) ;
#212 = CC_DESIGN_PERSON_AND_ORGANIZATION_ASSIGNMENT ( #31, #167, ( #5 ) ) ;
#213 = DIRECTION ( 'NONE',  ( 0.000000000000000000, 0.000000000000000000, 1.000000000000000000 ) ) ;
#214 =( GEOMETRIC_REPRESENTATION_CONTEXT ( 3 ) GLOBAL_UNCERTAINTY_ASSIGNED_CONTEXT ( ( #64 ) ) GLOBAL_UNIT_ASSIGNED_CONTEXT ( ( #109, #44, #161 ) ) REPRESENTATION_CONTEXT ( 'NONE', 'WORKASPACE' ) );
#215 = NEXT_ASSEMBLY_USAGE_OCCURRENCE ( 'NAUO203', ' ', ' ', #145, #54, $ ) ;
ENDSEC;
END-ISO-10303-21;
