ISO-10303-21;
HEADER;
FILE_DESCRIPTION (( 'STEP AP203' ),
    '1' );
FILE_NAME ('LUMEN-PCB-LED-R2.STEP.STEP',
    '2026-06-22T08:50:31',
    ( 'localuser' ),
    ( '' ),
    'SwSTEP 2.0',
    'SolidWorks 2025',
    '' );
FILE_SCHEMA (( 'CONFIG_CONTROL_DESIGN' ));
ENDSEC;

DATA;
#1 = VERTEX_POINT ( 'NONE', #64 ) ;
#2 = AXIS2_PLACEMENT_3D ( 'NONE', #378, #363, #445 ) ;
#3 = DIRECTION ( 'NONE',  ( -1.000000000000000000, 6.339483449582180342E-28, -2.622901895643884971E-15 ) ) ;
#4 = CARTESIAN_POINT ( 'NONE',  ( 9.250000000000000000, 1.600000000000185052, 1.554312234475220166E-12 ) ) ;
#5 = EDGE_CURVE ( 'NONE', #270, #598, #196, .T. ) ;
#6 = CARTESIAN_POINT ( 'NONE',  ( -3.500000000000285105, 1.699999999999924905, -3.500000000000170086 ) ) ;
#7 = CARTESIAN_POINT ( 'NONE',  ( -12.00000000000084022, 0.000000000000000000, -1.000000000000000000 ) ) ;
#8 = FACE_OUTER_BOUND ( 'NONE', #35, .T. ) ;
#9 = ORIENTED_EDGE ( 'NONE', *, *, #678, .F. ) ;
#10 = ORIENTED_EDGE ( 'NONE', *, *, #561, .T. ) ;
#11 = ADVANCED_FACE ( 'NONE', ( #72 ), #761, .T. ) ;
#12 = CARTESIAN_POINT ( 'NONE',  ( 8.250000000000000000, 1.600000000000294964, 1.332267629550188050E-12 ) ) ;
#13 = LINE ( 'NONE', #701, #683 ) ;
#14 = VECTOR ( 'NONE', #629, 1000.000000000000000 ) ;
#15 = ORIENTED_EDGE ( 'NONE', *, *, #643, .F. ) ;
#16 = AXIS2_PLACEMENT_3D ( 'NONE', #280, #779, #80 ) ;
#17 = VECTOR ( 'NONE', #390, 1000.000000000000000 ) ;
#18 = DIRECTION ( 'NONE',  ( -4.839168615465190256E-29, -1.000000000000000000, 1.049160758205382041E-14 ) ) ;
#19 = ORIENTED_EDGE ( 'NONE', *, *, #207, .T. ) ;
#20 = CALENDAR_DATE ( 2026, 22, 6 ) ;
#21 = CC_DESIGN_PERSON_AND_ORGANIZATION_ASSIGNMENT ( #145, #159, ( #81 ) ) ;
#22 = CARTESIAN_POINT ( 'NONE',  ( -12.00000000000082068, 1.599999999999935030, -1.000000000000279998 ) ) ;
#23 = DIRECTION ( 'NONE',  ( 3.469446951953614189E-15, -1.040834085586084257E-14, 1.000000000000000000 ) ) ;
#24 = EDGE_LOOP ( 'NONE', ( #766, #520, #144, #42 ) ) ;
#25 = APPLICATION_PROTOCOL_DEFINITION ( 'international standard', 'config_control_design', 1994, #533 ) ;
#26 = AXIS2_PLACEMENT_3D ( 'NONE', #711, #201, #341 ) ;
#27 = CARTESIAN_POINT ( 'NONE',  ( 9.250000000000140332, 1.387778780781445928E-13, 1.554312234475220166E-12 ) ) ;
#28 = VECTOR ( 'NONE', #158, 1000.000000000000000 ) ;
#29 = FACE_OUTER_BOUND ( 'NONE', #855, .T. ) ;
#30 = EDGE_CURVE ( 'NONE', #675, #547, #13, .T. ) ;
#31 = CARTESIAN_POINT ( 'NONE',  ( -8.250000000000420997, 1.599999999999935030, -1.110223024625155909E-13 ) ) ;
#32 = CARTESIAN_POINT ( 'NONE',  ( 8.250000000000000000, 3.608224830031760271E-13, -0.9999999999984459098 ) ) ;
#33 = CARTESIAN_POINT ( 'NONE',  ( -12.00000000000084022, 0.000000000000000000, -1.000000000000000000 ) ) ;
#34 = VERTEX_POINT ( 'NONE', #408 ) ;
#35 = EDGE_LOOP ( 'NONE', ( #720, #763, #381, #451 ) ) ;
#36 = COORDINATED_UNIVERSAL_TIME_OFFSET ( 10, 0, .AHEAD. ) ;
#37 = PLANE ( 'NONE',  #789 ) ;
#38 = APPROVAL_PERSON_ORGANIZATION ( #101, #306, #166 ) ;
#39 = LINE ( 'NONE', #311, #237 ) ;
#40 = VECTOR ( 'NONE', #143, 1000.000000000000000 ) ;
#41 = CC_DESIGN_APPROVAL ( #306, ( #432 ) ) ;
#42 = ORIENTED_EDGE ( 'NONE', *, *, #859, .T. ) ;
#43 = CARTESIAN_POINT ( 'NONE',  ( 0.000000000000000000, 1.700000000000034817, -2.775557561562890341E-13 ) ) ;
#44 = CARTESIAN_POINT ( 'NONE',  ( -12.00000000000074074, 1.600000000001100098, -4.970562748477069803 ) ) ;
#45 = LINE ( 'NONE', #336, #284 ) ;
#46 = EDGE_LOOP ( 'NONE', ( #482, #844, #324, #429 ) ) ;
#47 = ORIENTED_EDGE ( 'NONE', *, *, #898, .F. ) ;
#48 = DIRECTION ( 'NONE',  ( 3.469446951953614189E-15, -1.049160758205371786E-14, 1.000000000000000000 ) ) ;
#49 = PLANE ( 'NONE',  #869 ) ;
#50 = EDGE_CURVE ( 'NONE', #535, #534, #347, .T. ) ;
#51 = VERTEX_POINT ( 'NONE', #554 ) ;
#52 = EDGE_LOOP ( 'NONE', ( #890, #275, #900, #370 ) ) ;
#53 = DIRECTION ( 'NONE',  ( 0.000000000000000000, -1.000000000000000000, -1.049160758205372102E-14 ) ) ;
#54 = CARTESIAN_POINT ( 'NONE',  ( 12.00000000000041922, 2.498001805406605245E-13, -0.9999999999984459098 ) ) ;
#55 = CLOSED_SHELL ( 'NONE', ( #510, #11, #870 ) ) ;
#56 = CIRCLE ( 'NONE', #16, 2.500000000000000000 ) ;
#57 = DIRECTION ( 'NONE',  ( 3.469446951953614189E-15, -1.040834085586084257E-14, 1.000000000000000000 ) ) ;
#58 = ORIENTED_EDGE ( 'NONE', *, *, #151, .F. ) ;
#59 = DIRECTION ( 'NONE',  ( 1.000000000000000000, -6.970572173758970056E-28, 2.622901895643880238E-15 ) ) ;
#60 = DIRECTION ( 'NONE',  ( 3.059798019913045148E-15, -1.049160758205372102E-14, 1.000000000000000000 ) ) ;
#61 = EDGE_LOOP ( 'NONE', ( #83, #801 ) ) ;
#62 = DIRECTION ( 'NONE',  ( 1.211918380479518004E-28, 1.000000000000000000, 1.049160758205372102E-14 ) ) ;
#63 = DIRECTION ( 'NONE',  ( -1.209029485585626078E-28, -1.000000000000000000, -1.040834085586084099E-14 ) ) ;
#64 = CARTESIAN_POINT ( 'NONE',  ( -4.970562748477459714, -1.665334536937734811E-13, 12.00000000000155964 ) ) ;
#65 = CARTESIAN_POINT ( 'NONE',  ( -9.250000000000360600, 1.600000000000209921, -0.9999999999976141307 ) ) ;
#66 = CARTESIAN_POINT ( 'NONE',  ( -9.250000000000369482, 2.220446049250315100E-13, 2.664535259100375293E-12 ) ) ;
#67 = ORIENTED_EDGE ( 'NONE', *, *, #568, .F. ) ;
#68 = AXIS2_PLACEMENT_3D ( 'NONE', #699, #551, #266 ) ;
#69 = DIRECTION ( 'NONE',  ( -1.000000000000000000, 0.000000000000000000, -2.622901895643884971E-15 ) ) ;
#70 = CARTESIAN_POINT ( 'NONE',  ( 4.857225732735059864E-14, 1.600000000000045164, -2.775557561562890341E-13 ) ) ;
#71 = ADVANCED_FACE ( 'NONE', ( #560 ), #481, .F. ) ;
#72 = FACE_OUTER_BOUND ( 'NONE', #841, .T. ) ;
#73 = FACE_OUTER_BOUND ( 'NONE', #618, .T. ) ;
#74 = CARTESIAN_POINT ( 'NONE',  ( 12.00000000000044054, 1.387778780781445928E-13, 4.970562748478349668 ) ) ;
#75 = ORIENTED_EDGE ( 'NONE', *, *, #585, .F. ) ;
#76 = DIRECTION ( 'NONE',  ( -2.622901895643965041E-15, 1.058181320345852328E-14, -1.000000000000000000 ) ) ;
#77 = EDGE_CURVE ( 'NONE', #688, #313, #632, .T. ) ;
#78 = ORIENTED_EDGE ( 'NONE', *, *, #181, .F. ) ;
#79 = PERSON_AND_ORGANIZATION_ROLE ( 'creator' ) ;
#80 = DIRECTION ( 'NONE',  ( -2.622901895643965041E-15, 1.058181320345852328E-14, -1.000000000000000000 ) ) ;
#81 = PRODUCT_DEFINITION_FORMATION_WITH_SPECIFIED_SOURCE ( 'Symmetric', '', #637, .NOT_KNOWN. ) ;
#82 = EDGE_CURVE ( 'NONE', #541, #566, #206, .T. ) ;
#83 = ORIENTED_EDGE ( 'NONE', *, *, #253, .T. ) ;
#84 = AXIS2_PLACEMENT_3D ( 'NONE', #43, #537, #258 ) ;
#85 = DIRECTION ( 'NONE',  ( -3.059798019913045148E-15, 0.000000000000000000, -1.000000000000000000 ) ) ;
#86 = VECTOR ( 'NONE', #417, 1000.000000000000000 ) ;
#87 = DIRECTION ( 'NONE',  ( 1.034286009852945897E-28, 1.000000000000000000, 1.049160758205372102E-14 ) ) ;
#88 = LINE ( 'NONE', #724, #657 ) ;
#89 =( NAMED_UNIT ( * ) PLANE_ANGLE_UNIT ( ) SI_UNIT ( $, .RADIAN. ) );
#90 = CARTESIAN_POINT ( 'NONE',  ( 6.863416438896750078E-15, 1.700000000000034817, 2.499999999999719780 ) ) ;
#91 = EDGE_CURVE ( 'NONE', #475, #337, #419, .T. ) ;
#92 = PERSON_AND_ORGANIZATION_ROLE ( 'design_owner' ) ;
#93 = VECTOR ( 'NONE', #106, 1000.000000000000000 ) ;
#94 = CARTESIAN_POINT ( 'NONE',  ( 0.000000000000000000, 1.700000000000034817, -2.775557561562890341E-13 ) ) ;
#95 = VECTOR ( 'NONE', #3, 1000.000000000000000 ) ;
#96 = EDGE_CURVE ( 'NONE', #598, #571, #695, .T. ) ;
#97 = EDGE_LOOP ( 'NONE', ( #782, #210, #852, #879 ) ) ;
#98 = CARTESIAN_POINT ( 'NONE',  ( -9.250000000000419220, 1.600000000000045164, 2.386979502944084946E-12 ) ) ;
#99 = VERTEX_POINT ( 'NONE', #44 ) ;
#100 = VERTEX_POINT ( 'NONE', #672 ) ;
#101 = PERSON_AND_ORGANIZATION ( #18446744073709551615, #18446744073709551615 ) ;
#102 = DIRECTION ( 'NONE',  ( 1.000000000000000000, -6.339483449582180342E-28, 2.622901895643884971E-15 ) ) ;
#103 = DIRECTION ( 'NONE',  ( 1.209029485585626078E-28, 1.000000000000000000, 1.040834085586084099E-14 ) ) ;
#104 = ORIENTED_EDGE ( 'NONE', *, *, #806, .F. ) ;
#105 = DIRECTION ( 'NONE',  ( -2.186005771374880201E-15, 0.000000000000000000, -1.000000000000000000 ) ) ;
#106 = DIRECTION ( 'NONE',  ( 1.000000000000000000, -6.339483449582180342E-28, 2.622901895643884971E-15 ) ) ;
#107 = VECTOR ( 'NONE', #770, 1000.000000000000000 ) ;
#108 = CARTESIAN_POINT ( 'NONE',  ( -4.970562748477449944, 1.600000000000990186, -11.99999999999830003 ) ) ;
#109 = ORIENTED_EDGE ( 'NONE', *, *, #698, .F. ) ;
#110 = DIRECTION ( 'NONE',  ( -4.839168615465190256E-29, -1.000000000000000000, 1.049160758205382041E-14 ) ) ;
#111 = EDGE_CURVE ( 'NONE', #337, #535, #261, .T. ) ;
#112 = DIRECTION ( 'NONE',  ( 5.789114301275759636E-28, 1.000000000000000000, 0.000000000000000000 ) ) ;
#113 = LINE ( 'NONE', #321, #271 ) ;
#114 = ORIENTED_EDGE ( 'NONE', *, *, #698, .T. ) ;
#115 = PLANE ( 'NONE',  #831 ) ;
#116 = DIRECTION ( 'NONE',  ( 2.746810715356595528E-15, -1.049160758205372102E-14, 1.000000000000000000 ) ) ;
#117 = CARTESIAN_POINT ( 'NONE',  ( -4.970562748477429516, 1.054711873393899925E-12, -11.99999999999906031 ) ) ;
#118 = ORIENTED_EDGE ( 'NONE', *, *, #706, .T. ) ;
#119 = AXIS2_PLACEMENT_3D ( 'NONE', #242, #395, #57 ) ;
#120 = FACE_OUTER_BOUND ( 'NONE', #46, .T. ) ;
#121 = DIRECTION ( 'NONE',  ( 5.789114301275759636E-28, 1.000000000000000000, 0.000000000000000000 ) ) ;
#122 = VECTOR ( 'NONE', #236, 1000.000000000000000 ) ;
#123 = VECTOR ( 'NONE', #393, 1000.000000000000000 ) ;
#124 = EDGE_CURVE ( 'NONE', #494, #34, #772, .T. ) ;
#125 = DIRECTION ( 'NONE',  ( -2.622901895643965041E-15, 1.058181320345852328E-14, -1.000000000000000000 ) ) ;
#126 = CARTESIAN_POINT ( 'NONE',  ( -4.970562748477449944, 1.600000000000990186, -11.99999999999830003 ) ) ;
#127 = CARTESIAN_POINT ( 'NONE',  ( 3.500000000000090150, 1.600000000000209921, -3.500000000000225153 ) ) ;
#128 = DIRECTION ( 'NONE',  ( 1.147212110562980063E-28, 1.000000000000000000, 1.058181320345852328E-14 ) ) ;
#129 = EDGE_CURVE ( 'NONE', #658, #493, #813, .T. ) ;
#130 = CARTESIAN_POINT ( 'NONE',  ( 12.00000000000041922, 1.600000000000185052, 4.970562748478239534 ) ) ;
#131 = DIRECTION ( 'NONE',  ( -2.746810715356595528E-15, 0.000000000000000000, -1.000000000000000000 ) ) ;
#132 = LINE ( 'NONE', #532, #797 ) ;
#133 = VERTEX_POINT ( 'NONE', #314 ) ;
#134 = ORIENTED_EDGE ( 'NONE', *, *, #740, .F. ) ;
#135 = DIRECTION ( 'NONE',  ( 0.000000000000000000, -1.000000000000000000, -1.049160758205372102E-14 ) ) ;
#136 = DIRECTION ( 'NONE',  ( 1.000000000000000000, -6.970572173758970056E-28, 2.622901895643880238E-15 ) ) ;
#137 = CARTESIAN_POINT ( 'NONE',  ( 0.000000000000000000, 1.700000000000034817, -2.775557561562890341E-13 ) ) ;
#138 = CARTESIAN_POINT ( 'NONE',  ( 12.00000000000034106, 1.600000000001295053, -4.970562748475909842 ) ) ;
#139 = ORIENTED_EDGE ( 'NONE', *, *, #474, .F. ) ;
#140 = ADVANCED_FACE ( 'NONE', ( #452 ), #681, .F. ) ;
#141 = ORIENTED_EDGE ( 'NONE', *, *, #310, .F. ) ;
#142 = ORIENTED_EDGE ( 'NONE', *, *, #671, .F. ) ;
#143 = DIRECTION ( 'NONE',  ( -2.622901895643960307E-15, 1.049160758205372102E-14, -1.000000000000000000 ) ) ;
#144 = ORIENTED_EDGE ( 'NONE', *, *, #706, .F. ) ;
#145 = PERSON_AND_ORGANIZATION ( #18446744073709551615, #18446744073709551615 ) ;
#146 = LINE ( 'NONE', #562, #40 ) ;
#147 = ORIENTED_EDGE ( 'NONE', *, *, #729, .T. ) ;
#148 = PRODUCT_RELATED_PRODUCT_CATEGORY ( 'detail', '', ( #637 ) ) ;
#149 = LOCAL_TIME ( 18, 50, 31.00000000000000000, #156 ) ;
#150 = VECTOR ( 'NONE', #544, 1000.000000000000000 ) ;
#151 = EDGE_CURVE ( 'NONE', #216, #404, #471, .T. ) ;
#152 = CIRCLE ( 'NONE', #2, 2.500000000000000000 ) ;
#153 = CIRCLE ( 'NONE', #119, 1.000000000000000000 ) ;
#154 = DIRECTION ( 'NONE',  ( -1.040834085586084257E-14, -1.040834085586084257E-14, 1.000000000000000000 ) ) ;
#155 = ADVANCED_FACE ( 'NONE', ( #120 ), #333, .F. ) ;
#156 = COORDINATED_UNIVERSAL_TIME_OFFSET ( 10, 0, .AHEAD. ) ;
#157 = PLANE ( 'NONE',  #872 ) ;
#158 = DIRECTION ( 'NONE',  ( -2.622901895643960307E-15, 1.049160758205372102E-14, -1.000000000000000000 ) ) ;
#159 = PERSON_AND_ORGANIZATION_ROLE ( 'creator' ) ;
#160 = DIRECTION ( 'NONE',  ( -4.839168615465190256E-29, -1.000000000000000000, 1.049160758205382041E-14 ) ) ;
#161 = EDGE_CURVE ( 'NONE', #252, #669, #182, .T. ) ;
#162 = CARTESIAN_POINT ( 'NONE',  ( -3.500000000000250022, 1.600000000000990186, 3.499999999999560352 ) ) ;
#163 = AXIS2_PLACEMENT_3D ( 'NONE', #638, #128, #76 ) ;
#164 = DIRECTION ( 'NONE',  ( -2.622901895643960307E-15, 1.049160758205372102E-14, -1.000000000000000000 ) ) ;
#165 = VECTOR ( 'NONE', #60, 1000.000000000000000 ) ;
#166 = APPROVAL_ROLE ( '' ) ;
#167 = DIRECTION ( 'NONE',  ( 3.469446951953614189E-15, -1.049160758205371786E-14, 1.000000000000000000 ) ) ;
#168 = EDGE_LOOP ( 'NONE', ( #882, #104, #894, #856 ) ) ;
#169 = CYLINDRICAL_SURFACE ( 'NONE', #800, 1.000000000000000000 ) ;
#170 = ORIENTED_EDGE ( 'NONE', *, *, #586, .F. ) ;
#171 = FACE_OUTER_BOUND ( 'NONE', #577, .T. ) ;
#172 = CARTESIAN_POINT ( 'NONE',  ( 8.250000000000000000, 1.600000000000405098, -0.9999999999986690646 ) ) ;
#173 = DIRECTION ( 'NONE',  ( 3.469446951953614189E-15, -1.040834085586084257E-14, 1.000000000000000000 ) ) ;
#174 = ADVANCED_FACE ( 'NONE', ( #406 ), #389, .F. ) ;
#175 = FACE_OUTER_BOUND ( 'NONE', #238, .T. ) ;
#176 = CARTESIAN_POINT ( 'NONE',  ( 12.00000000000041922, 1.600000000000185052, 4.970562748478239534 ) ) ;
#177 = CARTESIAN_POINT ( 'NONE',  ( -3.500000000000280220, 1.700000000000979838, 3.499999999999780176 ) ) ;
#178 = AXIS2_PLACEMENT_3D ( 'NONE', #448, #660, #154 ) ;
#179 = ORIENTED_EDGE ( 'NONE', *, *, #898, .T. ) ;
#180 = DATE_AND_TIME ( #603, #849 ) ;
#181 = EDGE_CURVE ( 'NONE', #679, #541, #827, .T. ) ;
#182 = LINE ( 'NONE', #822, #488 ) ;
#183 = LINE ( 'NONE', #334, #597 ) ;
#184 = CC_DESIGN_DATE_AND_TIME_ASSIGNMENT ( #221, #853, ( #762 ) ) ;
#185 = CARTESIAN_POINT ( 'NONE',  ( -9.250000000000440536, 2.220446049250315100E-13, 1.000000000002664091 ) ) ;
#186 = PLANE ( 'NONE',  #468 ) ;
#187 = ORIENTED_EDGE ( 'NONE', *, *, #568, .T. ) ;
#188 = ORIENTED_EDGE ( 'NONE', *, *, #356, .T. ) ;
#189 = CARTESIAN_POINT ( 'NONE',  ( 12.00000000000034106, 1.600000000000240119, 1.000000000001056044 ) ) ;
#190 = CARTESIAN_POINT ( 'NONE',  ( 12.00000000000041922, 1.600000000000185052, 4.970562748478239534 ) ) ;
#191 = LINE ( 'NONE', #620, #304 ) ;
#192 = VECTOR ( 'NONE', #401, 1000.000000000000000 ) ;
#193 = AXIS2_PLACEMENT_3D ( 'NONE', #764, #775, #131 ) ;
#194 = EDGE_CURVE ( 'NONE', #218, #615, #392, .T. ) ;
#195 = ORIENTED_EDGE ( 'NONE', *, *, #394, .T. ) ;
#196 = LINE ( 'NONE', #345, #441 ) ;
#197 = AXIS2_PLACEMENT_3D ( 'NONE', #491, #567, #358 ) ;
#198 = DIRECTION ( 'NONE',  ( 2.622901895643884971E-15, 1.049160758205372102E-14, -1.000000000000000000 ) ) ;
#199 = DIRECTION ( 'NONE',  ( 0.000000000000000000, 1.049160758205372102E-14, -1.000000000000000000 ) ) ;
#200 = CARTESIAN_POINT ( 'NONE',  ( 4.970562748477080461, 1.600000000000155076, 11.99999999999971934 ) ) ;
#201 = DIRECTION ( 'NONE',  ( -0.7071067811865361374, -7.418686866818547269E-15, 0.7071067811865590080 ) ) ;
#202 = EDGE_CURVE ( 'NONE', #454, #675, #686, .T. ) ;
#203 = CARTESIAN_POINT ( 'NONE',  ( -3.500000000000285105, 1.699999999999924905, -3.500000000000170086 ) ) ;
#204 = EDGE_LOOP ( 'NONE', ( #622, #423, #391, #212, #10, #118, #644, #449, #283, #826, #634, #188, #743, #467, #604, #232, #376, #477 ) ) ;
#205 = DIRECTION ( 'NONE',  ( 3.469446951953614189E-15, -1.040834085586084257E-14, 1.000000000000000000 ) ) ;
#206 = LINE ( 'NONE', #485, #595 ) ;
#207 = EDGE_CURVE ( 'NONE', #337, #653, #282, .T. ) ;
#208 = LINE ( 'NONE', #189, #14 ) ;
#209 = CARTESIAN_POINT ( 'NONE',  ( -12.00000000000082068, 1.599999999999935030, -1.000000000000279998 ) ) ;
#210 = ORIENTED_EDGE ( 'NONE', *, *, #729, .F. ) ;
#211 = VECTOR ( 'NONE', #346, 1000.000000000000114 ) ;
#212 = ORIENTED_EDGE ( 'NONE', *, *, #504, .T. ) ;
#213 = FACE_OUTER_BOUND ( 'NONE', #781, .T. ) ;
#214 = EDGE_CURVE ( 'NONE', #218, #502, #327, .T. ) ;
#215 = FACE_OUTER_BOUND ( 'NONE', #52, .T. ) ;
#216 = VERTEX_POINT ( 'NONE', #190 ) ;
#217 = MECHANICAL_CONTEXT ( 'NONE', #777, 'mechanical' ) ;
#218 = VERTEX_POINT ( 'NONE', #880 ) ;
#219 = CARTESIAN_POINT ( 'NONE',  ( -9.250000000000419220, 1.600000000000045164, 2.386979502944084946E-12 ) ) ;
#220 = EDGE_LOOP ( 'NONE', ( #463, #584, #187, #608 ) ) ;
#221 = DATE_AND_TIME ( #508, #329 ) ;
#222 = CARTESIAN_POINT ( 'NONE',  ( -12.00000000000082068, 1.599999999999935030, -1.000000000000279998 ) ) ;
#223 = VECTOR ( 'NONE', #863, 1000.000000000000000 ) ;
#224 = EDGE_LOOP ( 'NONE', ( #248, #803, #712, #319 ) ) ;
#225 = LINE ( 'NONE', #727, #354 ) ;
#226 = CARTESIAN_POINT ( 'NONE',  ( 3.500000000000115019, 1.600000000001210010, 3.500000000000280220 ) ) ;
#227 = ADVANCED_FACE ( 'NONE', ( #526 ), #616, .F. ) ;
#228 = DIRECTION ( 'NONE',  ( -1.000000000000000000, 0.000000000000000000, -2.622901895643884971E-15 ) ) ;
#229 = EDGE_CURVE ( 'NONE', #427, #675, #624, .T. ) ;
#230 = DIRECTION ( 'NONE',  ( -4.839168615465190256E-29, -1.000000000000000000, 1.049160758205382041E-14 ) ) ;
#231 = ORIENTED_EDGE ( 'NONE', *, *, #124, .F. ) ;
#232 = ORIENTED_EDGE ( 'NONE', *, *, #716, .T. ) ;
#233 = VECTOR ( 'NONE', #689, 1000.000000000000000 ) ;
#234 = APPROVAL_STATUS ( 'not_yet_approved' ) ;
#235 = CIRCLE ( 'NONE', #754, 1.000000000000000000 ) ;
#236 = DIRECTION ( 'NONE',  ( 1.000000000000000000, -6.332580916661499180E-28, 2.796374243241555031E-15 ) ) ;
#237 = VECTOR ( 'NONE', #472, 1000.000000000000114 ) ;
#238 = EDGE_LOOP ( 'NONE', ( #845, #612, #9, #700 ) ) ;
#239 = LINE ( 'NONE', #521, #704 ) ;
#240 = ORIENTED_EDGE ( 'NONE', *, *, #129, .F. ) ;
#241 = ORIENTED_EDGE ( 'NONE', *, *, #290, .F. ) ;
#242 = CARTESIAN_POINT ( 'NONE',  ( -9.250000000000419220, 1.600000000000045164, 2.386979502944084946E-12 ) ) ;
#243 = VERTEX_POINT ( 'NONE', #538 ) ;
#244 = DIRECTION ( 'NONE',  ( 3.469446951953614189E-15, -1.049160758205371786E-14, 1.000000000000000000 ) ) ;
#245 = CARTESIAN_POINT ( 'NONE',  ( 4.970562748477100001, 1.600000000001575051, -12.00000000000000000 ) ) ;
#246 = ADVANCED_FACE ( 'NONE', ( #215 ), #492, .F. ) ;
#247 = ORIENTED_EDGE ( 'NONE', *, *, #375, .F. ) ;
#248 = ORIENTED_EDGE ( 'NONE', *, *, #561, .F. ) ;
#249 = VECTOR ( 'NONE', #456, 1000.000000000000000 ) ;
#250 = DIRECTION ( 'NONE',  ( 2.622901895643884971E-15, 1.049160758205372102E-14, -1.000000000000000000 ) ) ;
#251 = CARTESIAN_POINT ( 'NONE',  ( 12.00000000000034106, 1.600000000001295053, -4.970562748475909842 ) ) ;
#252 = VERTEX_POINT ( 'NONE', #556 ) ;
#253 = EDGE_CURVE ( 'NONE', #34, #494, #56, .T. ) ;
#254 = DIRECTION ( 'NONE',  ( -1.000000000000000000, 6.339483449582180342E-28, -2.622901895643884971E-15 ) ) ;
#255 = LINE ( 'NONE', #742, #165 ) ;
#256 = FACE_OUTER_BOUND ( 'NONE', #692, .T. ) ;
#257 = ORIENTED_EDGE ( 'NONE', *, *, #181, .T. ) ;
#258 = DIRECTION ( 'NONE',  ( 0.000000000000000000, 1.055283992203412175E-14, -1.000000000000000000 ) ) ;
#259 = LINE ( 'NONE', #703, #233 ) ;
#260 = ADVANCED_FACE ( 'NONE', ( #338, #287 ), #718, .T. ) ;
#261 = LINE ( 'NONE', #609, #150 ) ;
#262 = LINE ( 'NONE', #245, #647 ) ;
#263 = VERTEX_POINT ( 'NONE', #12 ) ;
#264 = ORIENTED_EDGE ( 'NONE', *, *, #349, .F. ) ;
#265 = CIRCLE ( 'NONE', #380, 1.000000000000000000 ) ;
#266 = DIRECTION ( 'NONE',  ( 0.000000000000000000, -1.000000000000000000, -1.049160758205372102E-14 ) ) ;
#267 = LINE ( 'NONE', #814, #123 ) ;
#268 = CC_DESIGN_PERSON_AND_ORGANIZATION_ASSIGNMENT ( #726, #92, ( #637 ) ) ;
#269 = CIRCLE ( 'NONE', #455, 1.000000000000000000 ) ;
#270 = VERTEX_POINT ( 'NONE', #569 ) ;
#271 = VECTOR ( 'NONE', #610, 1000.000000000000000 ) ;
#272 = ORIENTED_EDGE ( 'NONE', *, *, #785, .T. ) ;
#273 = PLANE ( 'NONE',  #355 ) ;
#274 = LINE ( 'NONE', #74, #107 ) ;
#275 = ORIENTED_EDGE ( 'NONE', *, *, #290, .T. ) ;
#276 = DIRECTION ( 'NONE',  ( 2.186005771374880201E-15, -1.049160758205372102E-14, 1.000000000000000000 ) ) ;
#277 = CARTESIAN_POINT ( 'NONE',  ( 12.00000000000034106, 1.600000000001295053, -4.970562748475909842 ) ) ;
#278 = ORIENTED_EDGE ( 'NONE', *, *, #91, .F. ) ;
#279 = DIRECTION ( 'NONE',  ( -4.839168615465190256E-29, -1.000000000000000000, 1.049160758205382041E-14 ) ) ;
#280 = CARTESIAN_POINT ( 'NONE',  ( 0.000000000000000000, 1.700000000000034817, -2.775557561562890341E-13 ) ) ;
#281 = ORIENTED_EDGE ( 'NONE', *, *, #323, .F. ) ;
#282 = CIRCLE ( 'NONE', #613, 1.000000000000000000 ) ;
#283 = ORIENTED_EDGE ( 'NONE', *, *, #639, .T. ) ;
#284 = VECTOR ( 'NONE', #819, 1000.000000000000000 ) ;
#285 = ADVANCED_FACE ( 'NONE', ( #359 ), #479, .F. ) ;
#286 = ADVANCED_FACE ( 'NONE', ( #484 ), #650, .F. ) ;
#287 = FACE_OUTER_BOUND ( 'NONE', #204, .T. ) ;
#288 = PERSON_AND_ORGANIZATION ( #18446744073709551615, #18446744073709551615 ) ;
#289 = PLANE ( 'NONE',  #815 ) ;
#290 = EDGE_CURVE ( 'NONE', #549, #555, #411, .T. ) ;
#291 = LINE ( 'NONE', #22, #646 ) ;
#292 = CC_DESIGN_DATE_AND_TIME_ASSIGNMENT ( #517, #591, ( #432 ) ) ;
#293 = VECTOR ( 'NONE', #840, 1000.000000000000000 ) ;
#294 = DATE_AND_TIME ( #659, #353 ) ;
#295 = CARTESIAN_POINT ( 'NONE',  ( -12.00000000000071942, 1.600000000000000089, 4.970562748476900161 ) ) ;
#296 = VERTEX_POINT ( 'NONE', #277 ) ;
#297 = ORIENTED_EDGE ( 'NONE', *, *, #422, .T. ) ;
#298 = ADVANCED_FACE ( 'NONE', ( #843 ), #497, .F. ) ;
#299 = DIRECTION ( 'NONE',  ( 4.839168615465190256E-29, 1.000000000000000000, -1.049160758205382041E-14 ) ) ;
#300 = DIRECTION ( 'NONE',  ( -2.449429548046210178E-15, -1.049160758205372102E-14, 1.000000000000000000 ) ) ;
#301 = COORDINATED_UNIVERSAL_TIME_OFFSET ( 10, 0, .AHEAD. ) ;
#302 = DIRECTION ( 'NONE',  ( 0.000000000000000000, -1.000000000000000000, -1.049160758205372102E-14 ) ) ;
#303 = LINE ( 'NONE', #871, #223 ) ;
#304 = VECTOR ( 'NONE', #828, 1000.000000000000114 ) ;
#305 = EDGE_LOOP ( 'NONE', ( #231, #528 ) ) ;
#306 = APPROVAL ( #234, 'Coincident' ) ;
#307 = AXIS2_PLACEMENT_3D ( 'NONE', #94, #589, #788 ) ;
#308 = LINE ( 'NONE', #745, #431 ) ;
#309 = APPROVAL_PERSON_ORGANIZATION ( #495, #631, #791 ) ;
#310 = EDGE_CURVE ( 'NONE', #757, #669, #705, .T. ) ;
#311 = CARTESIAN_POINT ( 'NONE',  ( -12.00000000000076028, 5.551115123125779547E-14, 4.970562748477179937 ) ) ;
#312 = ORIENTED_EDGE ( 'NONE', *, *, #194, .F. ) ;
#313 = VERTEX_POINT ( 'NONE', #352 ) ;
#314 = CARTESIAN_POINT ( 'NONE',  ( -12.00000000000084022, 0.000000000000000000, -1.000000000000000000 ) ) ;
#315 = CARTESIAN_POINT ( 'NONE',  ( -8.250000000000369482, -1.110223024625155909E-13, 0.000000000000000000 ) ) ;
#316 = EDGE_CURVE ( 'NONE', #404, #427, #274, .T. ) ;
#317 = ORIENTED_EDGE ( 'NONE', *, *, #316, .F. ) ;
#318 = DIRECTION ( 'NONE',  ( 1.000000000000000000, -6.339483449582180342E-28, 2.622901895643884971E-15 ) ) ;
#319 = ORIENTED_EDGE ( 'NONE', *, *, #859, .F. ) ;
#320 = CARTESIAN_POINT ( 'NONE',  ( 9.250000000000140332, 2.775557561562889773E-14, -0.9999999999984459098 ) ) ;
#321 = CARTESIAN_POINT ( 'NONE',  ( -3.500000000000285105, 1.699999999999924905, -3.500000000000170086 ) ) ;
#322 = EDGE_CURVE ( 'NONE', #642, #790, #146, .T. ) ;
#323 = EDGE_CURVE ( 'NONE', #99, #362, #645, .T. ) ;
#324 = ORIENTED_EDGE ( 'NONE', *, *, #837, .F. ) ;
#325 = ORIENTED_EDGE ( 'NONE', *, *, #499, .F. ) ;
#326 = AXIS2_PLACEMENT_3D ( 'NONE', #70, #87, #199 ) ;
#327 = LINE ( 'NONE', #320, #418 ) ;
#328 = CARTESIAN_POINT ( 'NONE',  ( -12.00000000000071942, 1.600000000000000089, 4.970562748476900161 ) ) ;
#329 = LOCAL_TIME ( 18, 50, 31.00000000000000000, #435 ) ;
#330 = ORIENTED_EDGE ( 'NONE', *, *, #504, .F. ) ;
#331 = EDGE_CURVE ( 'NONE', #571, #404, #851, .T. ) ;
#332 = LINE ( 'NONE', #7, #899 ) ;
#333 = PLANE ( 'NONE',  #340 ) ;
#334 = CARTESIAN_POINT ( 'NONE',  ( 12.00000000000034106, 1.600000000001295053, -4.970562748475909842 ) ) ;
#335 = DIRECTION ( 'NONE',  ( -1.000000000000000000, 0.000000000000000000, -2.622901895643884971E-15 ) ) ;
#336 = CARTESIAN_POINT ( 'NONE',  ( 8.250000000000000000, 2.498001805406605245E-13, 1.554312234475220166E-12 ) ) ;
#337 = VERTEX_POINT ( 'NONE', #636 ) ;
#338 = FACE_BOUND ( 'NONE', #396, .T. ) ;
#339 = ADVANCED_FACE ( 'NONE', ( #8 ), #487, .F. ) ;
#340 = AXIS2_PLACEMENT_3D ( 'NONE', #896, #531, #53 ) ;
#341 = DIRECTION ( 'NONE',  ( -1.049160758205412018E-14, 1.000000000000000000, 0.000000000000000000 ) ) ;
#342 = EDGE_LOOP ( 'NONE', ( #714, #109, #570, #846 ) ) ;
#343 = LINE ( 'NONE', #848, #614 ) ;
#344 = CARTESIAN_POINT ( 'NONE',  ( 4.970562748477129311, 1.110223024625155909E-13, 11.99999999999971934 ) ) ;
#345 = CARTESIAN_POINT ( 'NONE',  ( -4.970562748477490800, 1.599999999999770051, 12.00000000000130029 ) ) ;
#346 = DIRECTION ( 'NONE',  ( 0.7071067811865588970, 7.418686866818368986E-15, -0.7071067811865360264 ) ) ;
#347 = LINE ( 'NONE', #771, #702 ) ;
#348 = ADVANCED_FACE ( 'NONE', ( #425 ), #784, .F. ) ;
#349 = EDGE_CURVE ( 'NONE', #133, #549, #369, .T. ) ;
#350 = APPROVAL_STATUS ( 'not_yet_approved' ) ;
#351 = ORIENTED_EDGE ( 'NONE', *, *, #5, .F. ) ;
#352 = CARTESIAN_POINT ( 'NONE',  ( -3.500000000000285105, 1.699999999999924905, -3.500000000000170086 ) ) ;
#353 = LOCAL_TIME ( 18, 50, 31.00000000000000000, #860 ) ;
#354 = VECTOR ( 'NONE', #722, 1000.000000000000000 ) ;
#355 = AXIS2_PLACEMENT_3D ( 'NONE', #203, #769, #135 ) ;
#356 = EDGE_CURVE ( 'NONE', #547, #263, #862, .T. ) ;
#357 = ORIENTED_EDGE ( 'NONE', *, *, #202, .F. ) ;
#358 = DIRECTION ( 'NONE',  ( 1.000000000000000000, 0.000000000000000000, 0.000000000000000000 ) ) ;
#359 = FACE_OUTER_BOUND ( 'NONE', #816, .T. ) ;
#360 = APPROVAL_STATUS ( 'not_yet_approved' ) ;
#361 = DIRECTION ( 'NONE',  ( -0.7071067811865588970, -7.418686866818299567E-15, 0.7071067811865360264 ) ) ;
#362 = VERTEX_POINT ( 'NONE', #222 ) ;
#363 = DIRECTION ( 'NONE',  ( -1.147212110562980063E-28, -1.000000000000000000, -1.058181320345852012E-14 ) ) ;
#364 = ORIENTED_EDGE ( 'NONE', *, *, #428, .F. ) ;
#365 = ADVANCED_BREP_SHAPE_REPRESENTATION ( 'LUMEN-PCB-LED-R2.STEP', ( #611, #883, #197 ), #473 ) ;
#366 = AXIS2_PLACEMENT_3D ( 'NONE', #522, #818, #741 ) ;
#367 = VECTOR ( 'NONE', #410, 1000.000000000000000 ) ;
#368 = PERSON_AND_ORGANIZATION ( #18446744073709551615, #18446744073709551615 ) ;
#369 = LINE ( 'NONE', #33, #122 ) ;
#370 = ORIENTED_EDGE ( 'NONE', *, *, #377, .T. ) ;
#371 = EDGE_CURVE ( 'NONE', #615, #296, #866, .T. ) ;
#372 = ORIENTED_EDGE ( 'NONE', *, *, #375, .T. ) ;
#373 = ORIENTED_EDGE ( 'NONE', *, *, #96, .T. ) ;
#374 = DIRECTION ( 'NONE',  ( 9.194034422677077600E-14, -1.040834085586084257E-14, 1.000000000000000000 ) ) ;
#375 = EDGE_CURVE ( 'NONE', #502, #642, #861, .T. ) ;
#376 = ORIENTED_EDGE ( 'NONE', *, *, #684, .T. ) ;
#377 = EDGE_CURVE ( 'NONE', #362, #133, #291, .T. ) ;
#378 = CARTESIAN_POINT ( 'NONE',  ( 0.000000000000000000, 1.700000000000034817, -2.775557561562890341E-13 ) ) ;
#379 = DIRECTION ( 'NONE',  ( 3.469446951953614189E-15, -1.040834085586084257E-14, 1.000000000000000000 ) ) ;
#380 = AXIS2_PLACEMENT_3D ( 'NONE', #66, #462, #877 ) ;
#381 = ORIENTED_EDGE ( 'NONE', *, *, #371, .F. ) ;
#382 = VECTOR ( 'NONE', #416, 1000.000000000000000 ) ;
#383 = CARTESIAN_POINT ( 'NONE',  ( -12.00000000000084022, 0.000000000000000000, 1.000000000000000000 ) ) ;
#384 = EDGE_LOOP ( 'NONE', ( #490, #709, #351, #388 ) ) ;
#385 = CARTESIAN_POINT ( 'NONE',  ( 9.250000000000140332, 1.387778780781445928E-13, 1.554312234475220166E-12 ) ) ;
#386 = ORIENTED_EDGE ( 'NONE', *, *, #30, .F. ) ;
#387 = FACE_OUTER_BOUND ( 'NONE', #829, .T. ) ;
#388 = ORIENTED_EDGE ( 'NONE', *, *, #536, .T. ) ;
#389 = PLANE ( 'NONE',  #443 ) ;
#390 = DIRECTION ( 'NONE',  ( -4.839168615465190256E-29, -1.000000000000000000, 1.049160758205382041E-14 ) ) ;
#391 = ORIENTED_EDGE ( 'NONE', *, *, #740, .T. ) ;
#392 = LINE ( 'NONE', #172, #93 ) ;
#393 = DIRECTION ( 'NONE',  ( -4.839168615465190256E-29, -1.000000000000000000, 1.049160758205382041E-14 ) ) ;
#394 = EDGE_CURVE ( 'NONE', #502, #454, #235, .T. ) ;
#395 = DIRECTION ( 'NONE',  ( -1.209029485585626078E-28, -1.000000000000000000, -1.040834085586084099E-14 ) ) ;
#396 = EDGE_LOOP ( 'NONE', ( #707, #78, #496, #325 ) ) ;
#397 = AXIS2_PLACEMENT_3D ( 'NONE', #833, #198, #69 ) ;
#398 = DIRECTION ( 'NONE',  ( 0.000000000000000000, -1.000000000000000000, -1.049160758205379990E-14 ) ) ;
#399 = LINE ( 'NONE', #130, #367 ) ;
#400 = AXIS2_PLACEMENT_3D ( 'NONE', #834, #641, #559 ) ;
#401 = DIRECTION ( 'NONE',  ( -4.839168615465190256E-29, -1.000000000000000000, 1.049160758205382041E-14 ) ) ;
#402 = DIRECTION ( 'NONE',  ( 1.000000000000000000, -6.332580916661499180E-28, 2.796374243241555031E-15 ) ) ;
#403 = CIRCLE ( 'NONE', #832, 1.000000000000000000 ) ;
#404 = VERTEX_POINT ( 'NONE', #583 ) ;
#405 = PLANE ( 'NONE',  #444 ) ;
#406 = FACE_OUTER_BOUND ( 'NONE', #97, .T. ) ;
#407 = CARTESIAN_POINT ( 'NONE',  ( 4.970562748477080461, 1.600000000000155076, 11.99999999999971934 ) ) ;
#408 = CARTESIAN_POINT ( 'NONE',  ( -6.557254739109909052E-15, 1.700000000000034817, -2.500000000000274891 ) ) ;
#409 = ADVANCED_FACE ( 'NONE', ( #434 ), #289, .F. ) ;
#410 = DIRECTION ( 'NONE',  ( -2.622901895643960307E-15, 1.049160758205372102E-14, -1.000000000000000000 ) ) ;
#411 = LINE ( 'NONE', #65, #293 ) ;
#412 = DIRECTION ( 'NONE',  ( -4.839168615465190256E-29, -1.000000000000000000, 1.049160758205382041E-14 ) ) ;
#413 = DIRECTION ( 'NONE',  ( 4.839168615465190256E-29, 1.000000000000000000, -1.049160758205382041E-14 ) ) ;
#414 = PLANE ( 'NONE',  #489 ) ;
#415 = EDGE_LOOP ( 'NONE', ( #867, #442, #67, #297 ) ) ;
#416 = DIRECTION ( 'NONE',  ( 2.186005771374880201E-15, -1.049160758205372102E-14, 1.000000000000000000 ) ) ;
#417 = DIRECTION ( 'NONE',  ( -4.839168615465190256E-29, -1.000000000000000000, 1.049160758205382041E-14 ) ) ;
#418 = VECTOR ( 'NONE', #884, 1000.000000000000000 ) ;
#419 = LINE ( 'NONE', #185, #192 ) ;
#420 = DIRECTION ( 'NONE',  ( -1.000000000000000000, 5.789114301275759636E-28, 2.622901895643960307E-15 ) ) ;
#421 = EDGE_CURVE ( 'NONE', #661, #534, #592, .T. ) ;
#422 = EDGE_CURVE ( 'NONE', #493, #566, #225, .T. ) ;
#423 = ORIENTED_EDGE ( 'NONE', *, *, #649, .T. ) ;
#424 = APPROVAL_DATE_TIME ( #294, #600 ) ;
#425 = FACE_OUTER_BOUND ( 'NONE', #543, .T. ) ;
#426 = LINE ( 'NONE', #498, #86 ) ;
#427 = VERTEX_POINT ( 'NONE', #500 ) ;
#428 = EDGE_CURVE ( 'NONE', #494, #34, #152, .T. ) ;
#429 = ORIENTED_EDGE ( 'NONE', *, *, #806, .T. ) ;
#430 = DIRECTION ( 'NONE',  ( 1.209029485585626078E-28, 1.000000000000000000, 1.040834085586084099E-14 ) ) ;
#431 = VECTOR ( 'NONE', #318, 1000.000000000000000 ) ;
#432 = SECURITY_CLASSIFICATION ( '', '', #582 ) ;
#433 = ORIENTED_EDGE ( 'NONE', *, *, #734, .F. ) ;
#434 = FACE_OUTER_BOUND ( 'NONE', #224, .T. ) ;
#435 = COORDINATED_UNIVERSAL_TIME_OFFSET ( 10, 0, .AHEAD. ) ;
#436 = DIRECTION ( 'NONE',  ( 2.622901895643884971E-15, 1.049160758205372102E-14, -1.000000000000000000 ) ) ;
#437 = ORIENTED_EDGE ( 'NONE', *, *, #202, .T. ) ;
#438 = PERSON_AND_ORGANIZATION_ROLE ( 'design_supplier' ) ;
#439 = DIRECTION ( 'NONE',  ( 1.211918380479518004E-28, 1.000000000000000000, 1.049160758205372102E-14 ) ) ;
#440 = ORIENTED_EDGE ( 'NONE', *, *, #124, .T. ) ;
#441 = VECTOR ( 'NONE', #901, 1000.000000000000000 ) ;
#442 = ORIENTED_EDGE ( 'NONE', *, *, #693, .F. ) ;
#443 = AXIS2_PLACEMENT_3D ( 'NONE', #126, #809, #676 ) ;
#444 = AXIS2_PLACEMENT_3D ( 'NONE', #694, #864, #85 ) ;
#445 = DIRECTION ( 'NONE',  ( -2.622901895643965041E-15, 1.058181320345852328E-14, -1.000000000000000000 ) ) ;
#446 = EDGE_CURVE ( 'NONE', #757, #99, #88, .T. ) ;
#447 = CALENDAR_DATE ( 2026, 22, 6 ) ;
#448 = CARTESIAN_POINT ( 'NONE',  ( 9.250000000000000000, 1.600000000000185052, 1.554312234475220166E-12 ) ) ;
#449 = ORIENTED_EDGE ( 'NONE', *, *, #5, .T. ) ;
#450 = ADVANCED_FACE ( 'NONE', ( #865 ), #792, .T. ) ;
#451 = ORIENTED_EDGE ( 'NONE', *, *, #474, .T. ) ;
#452 = FACE_OUTER_BOUND ( 'NONE', #415, .T. ) ;
#453 = CC_DESIGN_PERSON_AND_ORGANIZATION_ASSIGNMENT ( #368, #572, ( #432 ) ) ;
#454 = VERTEX_POINT ( 'NONE', #730 ) ;
#455 = AXIS2_PLACEMENT_3D ( 'NONE', #98, #795, #374 ) ;
#456 = DIRECTION ( 'NONE',  ( -4.839168615465190256E-29, -1.000000000000000000, 1.049160758205382041E-14 ) ) ;
#457 = DIRECTION ( 'NONE',  ( -0.7071067811865588970, 0.000000000000000000, 0.7071067811865360264 ) ) ;
#458 = ORIENTED_EDGE ( 'NONE', *, *, #693, .T. ) ;
#459 = CARTESIAN_POINT ( 'NONE',  ( -3.500000000000274891, 1.599999999999935030, -3.500000000000280220 ) ) ;
#460 = DIRECTION ( 'NONE',  ( 3.469446951953614189E-15, -1.040834085586084257E-14, 1.000000000000000000 ) ) ;
#461 = EDGE_LOOP ( 'NONE', ( #142, #807, #386, #357 ) ) ;
#462 = DIRECTION ( 'NONE',  ( 1.211918380479518004E-28, 1.000000000000000000, 1.049160758205372102E-14 ) ) ;
#463 = ORIENTED_EDGE ( 'NONE', *, *, #715, .T. ) ;
#464 = CARTESIAN_POINT ( 'NONE',  ( -3.500000000000274891, 1.599999999999935030, -3.500000000000280220 ) ) ;
#465 = DIRECTION ( 'NONE',  ( -4.839168615465190256E-29, -1.000000000000000000, 1.049160758205382041E-14 ) ) ;
#466 = CARTESIAN_POINT ( 'NONE',  ( 12.00000000000041922, 1.600000000000185052, 4.970562748478239534 ) ) ;
#467 = ORIENTED_EDGE ( 'NONE', *, *, #194, .T. ) ;
#468 = AXIS2_PLACEMENT_3D ( 'NONE', #466, #751, #121 ) ;
#469 = FACE_OUTER_BOUND ( 'NONE', #305, .T. ) ;
#470 = VECTOR ( 'NONE', #796, 1000.000000000000000 ) ;
#471 = LINE ( 'NONE', #176, #249 ) ;
#472 = DIRECTION ( 'NONE',  ( 0.7071067811865588970, -7.418686866818600911E-15, 0.7071067811865360264 ) ) ;
#473 =( GEOMETRIC_REPRESENTATION_CONTEXT ( 3 ) GLOBAL_UNCERTAINTY_ASSIGNED_CONTEXT ( ( #587 ) ) GLOBAL_UNIT_ASSIGNED_CONTEXT ( ( #588, #89, #648 ) ) REPRESENTATION_CONTEXT ( 'NONE', 'WORKASPACE' ) );
#474 = EDGE_CURVE ( 'NONE', #615, #642, #518, .T. ) ;
#475 = VERTEX_POINT ( 'NONE', #573 ) ;
#476 = ADVANCED_FACE ( 'NONE', ( #652 ), #157, .F. ) ;
#477 = ORIENTED_EDGE ( 'NONE', *, *, #446, .T. ) ;
#478 = CARTESIAN_POINT ( 'NONE',  ( 12.00000000000031974, 1.249000902703300098E-12, -4.970562748475630066 ) ) ;
#479 = PLANE ( 'NONE',  #68 ) ;
#480 = LINE ( 'NONE', #251, #516 ) ;
#481 = PLANE ( 'NONE',  #26 ) ;
#482 = ORIENTED_EDGE ( 'NONE', *, *, #229, .T. ) ;
#483 = CARTESIAN_POINT ( 'NONE',  ( 12.00000000000034106, 1.600000000000240119, 1.000000000001056044 ) ) ;
#484 = FACE_OUTER_BOUND ( 'NONE', #768, .T. ) ;
#485 = CARTESIAN_POINT ( 'NONE',  ( -3.500000000000250022, 1.600000000000990186, 3.499999999999560352 ) ) ;
#486 = FACE_OUTER_BOUND ( 'NONE', #24, .T. ) ;
#487 = PLANE ( 'NONE',  #581 ) ;
#488 = VECTOR ( 'NONE', #759, 1000.000000000000000 ) ;
#489 = AXIS2_PLACEMENT_3D ( 'NONE', #758, #640, #891 ) ;
#490 = ORIENTED_EDGE ( 'NONE', *, *, #523, .T. ) ;
#491 = CARTESIAN_POINT ( 'NONE',  ( 0.000000000000000000, 0.000000000000000000, 0.000000000000000000 ) ) ;
#492 = PLANE ( 'NONE',  #400 ) ;
#493 = VERTEX_POINT ( 'NONE', #868 ) ;
#494 = VERTEX_POINT ( 'NONE', #90 ) ;
#495 = PERSON_AND_ORGANIZATION ( #18446744073709551615, #18446744073709551615 ) ;
#496 = ORIENTED_EDGE ( 'NONE', *, *, #512, .F. ) ;
#497 = CYLINDRICAL_SURFACE ( 'NONE', #847, 1.000000000000000000 ) ;
#498 = CARTESIAN_POINT ( 'NONE',  ( -12.00000000000074074, 1.600000000001100098, -4.970562748477069803 ) ) ;
#499 = EDGE_CURVE ( 'NONE', #566, #680, #511, .T. ) ;
#500 = CARTESIAN_POINT ( 'NONE',  ( 12.00000000000036060, 1.942890293094024955E-13, 1.000000000001554090 ) ) ;
#501 = CARTESIAN_POINT ( 'NONE',  ( -12.00000000000079936, 1.165734175856413964E-12, -4.970562748476959669 ) ) ;
#502 = VERTEX_POINT ( 'NONE', #655 ) ;
#503 = VECTOR ( 'NONE', #513, 1000.000000000000114 ) ;
#504 = EDGE_CURVE ( 'NONE', #243, #475, #269, .T. ) ;
#505 = PERSON_AND_ORGANIZATION ( #18446744073709551615, #18446744073709551615 ) ;
#506 = EDGE_LOOP ( 'NONE', ( #312, #749, #372, #139 ) ) ;
#507 = CARTESIAN_POINT ( 'NONE',  ( 12.00000000000040146, 1.600000000000294964, -0.9999999999989459543 ) ) ;
#508 = CALENDAR_DATE ( 2026, 22, 6 ) ;
#509 = CARTESIAN_POINT ( 'NONE',  ( -4.970562748477490800, 1.599999999999770051, 12.00000000000130029 ) ) ;
#510 = ADVANCED_FACE ( 'NONE', ( #663 ), #817, .T. ) ;
#511 = LINE ( 'NONE', #732, #470 ) ;
#512 = EDGE_CURVE ( 'NONE', #680, #679, #665, .T. ) ;
#513 = DIRECTION ( 'NONE',  ( -0.7071067811865588970, 7.418686866818569357E-15, -0.7071067811865360264 ) ) ;
#514 = VECTOR ( 'NONE', #299, 1000.000000000000000 ) ;
#515 = AXIS2_PLACEMENT_3D ( 'NONE', #219, #430, #23 ) ;
#516 = VECTOR ( 'NONE', #412, 1000.000000000000000 ) ;
#517 = DATE_AND_TIME ( #447, #717 ) ;
#518 = LINE ( 'NONE', #507, #666 ) ;
#519 = ADVANCED_FACE ( 'NONE', ( #171 ), #115, .F. ) ;
#520 = ORIENTED_EDGE ( 'NONE', *, *, #421, .F. ) ;
#521 = CARTESIAN_POINT ( 'NONE',  ( -4.970562748477490800, 1.599999999999770051, 12.00000000000130029 ) ) ;
#522 = CARTESIAN_POINT ( 'NONE',  ( 0.000000000000000000, 1.700000000000034817, -2.775557561562890341E-13 ) ) ;
#523 = EDGE_CURVE ( 'NONE', #1, #571, #308, .T. ) ;
#524 = CYLINDRICAL_SURFACE ( 'NONE', #755, 1.000000000000000000 ) ;
#525 = ORIENTED_EDGE ( 'NONE', *, *, #77, .F. ) ;
#526 = FACE_OUTER_BOUND ( 'NONE', #506, .T. ) ;
#527 = DIRECTION ( 'NONE',  ( -1.000000000000000000, 5.328508895734909686E-28, -2.448402189699300133E-15 ) ) ;
#528 = ORIENTED_EDGE ( 'NONE', *, *, #253, .F. ) ;
#529 = ADVANCED_FACE ( 'NONE', ( #175 ), #37, .F. ) ;
#530 = VECTOR ( 'NONE', #254, 1000.000000000000000 ) ;
#531 = DIRECTION ( 'NONE',  ( -2.622901895643884971E-15, -1.049160758205372102E-14, 1.000000000000000000 ) ) ;
#532 = CARTESIAN_POINT ( 'NONE',  ( -12.00000000000082068, 1.599999999999935030, -1.000000000000279998 ) ) ;
#533 = APPLICATION_CONTEXT ( 'configuration controlled 3d designs of mechanical parts and assemblies' ) ;
#534 = VERTEX_POINT ( 'NONE', #687 ) ;
#535 = VERTEX_POINT ( 'NONE', #383 ) ;
#536 = EDGE_CURVE ( 'NONE', #270, #1, #239, .T. ) ;
#537 = DIRECTION ( 'NONE',  ( -1.146452169815270132E-28, -1.000000000000000000, -1.055283992203412175E-14 ) ) ;
#538 = CARTESIAN_POINT ( 'NONE',  ( -8.250000000000420997, 1.599999999999935030, -1.110223024625155909E-13 ) ) ;
#539 = CARTESIAN_POINT ( 'NONE',  ( -3.500000000000274891, 1.599999999999935030, -3.500000000000280220 ) ) ;
#540 = ORIENTED_EDGE ( 'NONE', *, *, #331, .F. ) ;
#541 = VERTEX_POINT ( 'NONE', #162 ) ;
#542 = ORIENTED_EDGE ( 'NONE', *, *, #214, .F. ) ;
#543 = EDGE_LOOP ( 'NONE', ( #278, #330, #47, #767 ) ) ;
#544 = DIRECTION ( 'NONE',  ( -1.000000000000000000, 5.328508895734909686E-28, -2.449429548046210178E-15 ) ) ;
#545 = CARTESIAN_POINT ( 'NONE',  ( 3.500000000000000000, 1.700000000000199796, -3.499999999999950262 ) ) ;
#546 = EDGE_CURVE ( 'NONE', #790, #252, #590, .T. ) ;
#547 = VERTEX_POINT ( 'NONE', #673 ) ;
#548 = AXIS2_PLACEMENT_3D ( 'NONE', #137, #708, #125 ) ;
#549 = VERTEX_POINT ( 'NONE', #798 ) ;
#550 = VECTOR ( 'NONE', #18, 1000.000000000000000 ) ;
#551 = DIRECTION ( 'NONE',  ( -2.448402189699300133E-15, -1.049160758205372102E-14, 1.000000000000000000 ) ) ;
#552 = LINE ( 'NONE', #823, #786 ) ;
#553 = CC_DESIGN_SECURITY_CLASSIFICATION ( #432, ( #81 ) ) ;
#554 = CARTESIAN_POINT ( 'NONE',  ( 4.970562748477100001, 1.600000000001575051, -12.00000000000000000 ) ) ;
#555 = VERTEX_POINT ( 'NONE', #725 ) ;
#556 = CARTESIAN_POINT ( 'NONE',  ( 4.970562748477120429, 1.526556658859590041E-12, -12.00000000000000000 ) ) ;
#557 = DIRECTION ( 'NONE',  ( -1.000000000000000000, 6.339483449582180342E-28, -2.622901895643884971E-15 ) ) ;
#558 = CC_DESIGN_PERSON_AND_ORGANIZATION_ASSIGNMENT ( #288, #438, ( #81 ) ) ;
#559 = DIRECTION ( 'NONE',  ( -1.000000000000000000, 0.000000000000000000, -2.796374243241555031E-15 ) ) ;
#560 = FACE_OUTER_BOUND ( 'NONE', #342, .T. ) ;
#561 = EDGE_CURVE ( 'NONE', #475, #100, #303, .T. ) ;
#562 = CARTESIAN_POINT ( 'NONE',  ( 12.00000000000031974, 1.249000902703300098E-12, -4.970562748475630066 ) ) ;
#563 = VECTOR ( 'NONE', #164, 1000.000000000000000 ) ;
#564 = CC_DESIGN_APPROVAL ( #600, ( #762 ) ) ;
#565 = ORIENTED_EDGE ( 'NONE', *, *, #671, .T. ) ;
#566 = VERTEX_POINT ( 'NONE', #226 ) ;
#567 = DIRECTION ( 'NONE',  ( 0.000000000000000000, 0.000000000000000000, 1.000000000000000000 ) ) ;
#568 = EDGE_CURVE ( 'NONE', #493, #688, #593, .T. ) ;
#569 = CARTESIAN_POINT ( 'NONE',  ( -4.970562748477490800, 1.599999999999770051, 12.00000000000130029 ) ) ;
#570 = ORIENTED_EDGE ( 'NONE', *, *, #716, .F. ) ;
#571 = VERTEX_POINT ( 'NONE', #805 ) ;
#572 = PERSON_AND_ORGANIZATION_ROLE ( 'classification_officer' ) ;
#573 = CARTESIAN_POINT ( 'NONE',  ( -9.250000000000449418, 1.600000000000155076, 1.000000000002388090 ) ) ;
#574 = ORIENTED_EDGE ( 'NONE', *, *, #785, .F. ) ;
#575 = ORIENTED_EDGE ( 'NONE', *, *, #82, .T. ) ;
#576 = ADVANCED_FACE ( 'NONE', ( #29 ), #169, .F. ) ;
#577 = EDGE_LOOP ( 'NONE', ( #272, #738, #281, #147 ) ) ;
#578 = CARTESIAN_POINT ( 'NONE',  ( 12.00000000000034106, 1.600000000001295053, -4.970562748475909842 ) ) ;
#579 = CARTESIAN_POINT ( 'NONE',  ( 12.00000000000031974, 1.249000902703300098E-12, -4.970562748475630066 ) ) ;
#580 = CLOSED_SHELL ( 'NONE', ( #450, #842, #140, #780, #286, #748, #348, #576, #298, #821, #174, #285, #71, #339, #227, #155, #721, #662, #476, #529, #887, #409, #246, #519, #260 ) ) ;
#581 = AXIS2_PLACEMENT_3D ( 'NONE', #138, #420, #710 ) ;
#582 = SECURITY_CLASSIFICATION_LEVEL ( 'unclassified' ) ;
#583 = CARTESIAN_POINT ( 'NONE',  ( 12.00000000000044054, 1.387778780781445928E-13, 4.970562748478349668 ) ) ;
#584 = ORIENTED_EDGE ( 'NONE', *, *, #129, .T. ) ;
#585 = EDGE_CURVE ( 'NONE', #534, #1, #39, .T. ) ;
#586 = EDGE_CURVE ( 'NONE', #669, #731, #552, .T. ) ;
#587 = UNCERTAINTY_MEASURE_WITH_UNIT (LENGTH_MEASURE( 1.000000000000000082E-05 ), #588, 'distance_accuracy_value', 'NONE');
#588 =( LENGTH_UNIT ( ) NAMED_UNIT ( * ) SI_UNIT ( .MILLI., .METRE. ) );
#589 = DIRECTION ( 'NONE',  ( 1.034286009852945897E-28, 1.000000000000000000, 1.049160758205372102E-14 ) ) ;
#590 = LINE ( 'NONE', #579, #503 ) ;
#591 = DATE_TIME_ROLE ( 'classification_date' ) ;
#592 = LINE ( 'NONE', #295, #737 ) ;
#593 = LINE ( 'NONE', #793, #28 ) ;
#594 = CC_DESIGN_APPROVAL ( #631, ( #81 ) ) ;
#595 = VECTOR ( 'NONE', #136, 1000.000000000000000 ) ;
#596 = VECTOR ( 'NONE', #812, 1000.000000000000000 ) ;
#597 = VECTOR ( 'NONE', #885, 1000.000000000000114 ) ;
#598 = VERTEX_POINT ( 'NONE', #200 ) ;
#599 = DIRECTION ( 'NONE',  ( 1.000000000000000000, -5.657966175782779876E-28, -2.186005771374880201E-15 ) ) ;
#600 = APPROVAL ( #360, 'Coincident' ) ;
#601 = ORIENTED_EDGE ( 'NONE', *, *, #546, .F. ) ;
#602 = ORIENTED_EDGE ( 'NONE', *, *, #734, .T. ) ;
#603 = CALENDAR_DATE ( 2026, 22, 6 ) ;
#604 = ORIENTED_EDGE ( 'NONE', *, *, #371, .T. ) ;
#605 = CARTESIAN_POINT ( 'NONE',  ( -9.250000000000369482, 2.220446049250315100E-13, 2.664535259100375293E-12 ) ) ;
#606 = CARTESIAN_POINT ( 'NONE',  ( 12.00000000000040146, 1.600000000000294964, -0.9999999999989459543 ) ) ;
#607 = EDGE_CURVE ( 'NONE', #296, #790, #480, .T. ) ;
#608 = ORIENTED_EDGE ( 'NONE', *, *, #77, .T. ) ;
#609 = CARTESIAN_POINT ( 'NONE',  ( -8.250000000000440536, -5.551115123125779547E-14, 1.000000000000000000 ) ) ;
#610 = DIRECTION ( 'NONE',  ( 2.746810715356595528E-15, -1.049160758205372102E-14, 1.000000000000000000 ) ) ;
#611 = MANIFOLD_SOLID_BREP ( 'NONE', #580 ) ;
#612 = ORIENTED_EDGE ( 'NONE', *, *, #536, .F. ) ;
#613 = AXIS2_PLACEMENT_3D ( 'NONE', #605, #62, #244 ) ;
#614 = VECTOR ( 'NONE', #279, 1000.000000000000000 ) ;
#615 = VERTEX_POINT ( 'NONE', #606 ) ;
#616 = PLANE ( 'NONE',  #799 ) ;
#617 = FACE_OUTER_BOUND ( 'NONE', #168, .T. ) ;
#618 = EDGE_LOOP ( 'NONE', ( #878, #15, #525, #458 ) ) ;
#619 = CARTESIAN_POINT ( 'NONE',  ( 8.250000000000000000, 1.600000000000405098, -0.9999999999986690646 ) ) ;
#620 = CARTESIAN_POINT ( 'NONE',  ( 4.970562748477080461, 1.600000000000155076, 11.99999999999971934 ) ) ;
#621 = EDGE_LOOP ( 'NONE', ( #668, #58, #623, #373 ) ) ;
#622 = ORIENTED_EDGE ( 'NONE', *, *, #323, .T. ) ;
#623 = ORIENTED_EDGE ( 'NONE', *, *, #639, .F. ) ;
#624 = LINE ( 'NONE', #888, #530 ) ;
#625 = DIRECTION ( 'NONE',  ( 0.7071067811865588970, -7.418686866818600911E-15, 0.7071067811865360264 ) ) ;
#626 = ORIENTED_EDGE ( 'NONE', *, *, #50, .F. ) ;
#627 = PRODUCT_DEFINITION_SHAPE ( 'NONE', 'NONE',  #762 ) ;
#628 = VECTOR ( 'NONE', #557, 1000.000000000000000 ) ;
#629 = DIRECTION ( 'NONE',  ( -4.839168615465190256E-29, -1.000000000000000000, 1.049160758205382041E-14 ) ) ;
#630 = VECTOR ( 'NONE', #102, 1000.000000000000000 ) ;
#631 = APPROVAL ( #350, 'Coincident' ) ;
#632 = LINE ( 'NONE', #6, #628 ) ;
#633 = ORIENTED_EDGE ( 'NONE', *, *, #111, .F. ) ;
#634 = ORIENTED_EDGE ( 'NONE', *, *, #837, .T. ) ;
#635 = ORIENTED_EDGE ( 'NONE', *, *, #229, .F. ) ;
#636 = CARTESIAN_POINT ( 'NONE',  ( -9.250000000000440536, 2.220446049250315100E-13, 1.000000000002664091 ) ) ;
#637 = PRODUCT ( 'LUMEN-PCB-LED-R2.STEP', 'LUMEN-PCB-LED-R2.STEP', '', ( #217 ) ) ;
#638 = CARTESIAN_POINT ( 'NONE',  ( 0.000000000000000000, 1.700000000000034817, -2.775557561562890341E-13 ) ) ;
#639 = EDGE_CURVE ( 'NONE', #598, #216, #191, .T. ) ;
#640 = DIRECTION ( 'NONE',  ( 1.034286009852945897E-28, 1.000000000000000000, 1.049160758205372102E-14 ) ) ;
#641 = DIRECTION ( 'NONE',  ( 2.796374243241555031E-15, 1.049160758205372102E-14, -1.000000000000000000 ) ) ;
#642 = VERTEX_POINT ( 'NONE', #54 ) ;
#643 = EDGE_CURVE ( 'NONE', #313, #679, #765, .T. ) ;
#644 = ORIENTED_EDGE ( 'NONE', *, *, #678, .T. ) ;
#645 = LINE ( 'NONE', #209, #382 ) ;
#646 = VECTOR ( 'NONE', #160, 1000.000000000000000 ) ;
#647 = VECTOR ( 'NONE', #527, 1000.000000000000000 ) ;
#648 =( NAMED_UNIT ( * ) SI_UNIT ( $, .STERADIAN. ) SOLID_ANGLE_UNIT ( ) );
#649 = EDGE_CURVE ( 'NONE', #362, #555, #132, .T. ) ;
#650 = PLANE ( 'NONE',  #193 ) ;
#651 = APPROVAL_ROLE ( '' ) ;
#652 = FACE_OUTER_BOUND ( 'NONE', #384, .T. ) ;
#653 = VERTEX_POINT ( 'NONE', #315 ) ;
#654 = ORIENTED_EDGE ( 'NONE', *, *, #684, .F. ) ;
#655 = CARTESIAN_POINT ( 'NONE',  ( 9.250000000000140332, 2.775557561562889773E-14, -0.9999999999984459098 ) ) ;
#656 = EDGE_CURVE ( 'NONE', #263, #218, #403, .T. ) ;
#657 = VECTOR ( 'NONE', #361, 1000.000000000000114 ) ;
#658 = VERTEX_POINT ( 'NONE', #177 ) ;
#659 = CALENDAR_DATE ( 2026, 22, 6 ) ;
#660 = DIRECTION ( 'NONE',  ( 1.691421010570805046E-28, -1.000000000000000000, -1.040834085586084099E-14 ) ) ;
#661 = VERTEX_POINT ( 'NONE', #328 ) ;
#662 = ADVANCED_FACE ( 'NONE', ( #881 ), #49, .F. ) ;
#663 = FACE_OUTER_BOUND ( 'NONE', #61, .T. ) ;
#664 = ORIENTED_EDGE ( 'NONE', *, *, #656, .F. ) ;
#665 = LINE ( 'NONE', #464, #596 ) ;
#666 = VECTOR ( 'NONE', #230, 1000.000000000000000 ) ;
#667 = VECTOR ( 'NONE', #625, 1000.000000000000114 ) ;
#668 = ORIENTED_EDGE ( 'NONE', *, *, #331, .T. ) ;
#669 = VERTEX_POINT ( 'NONE', #117 ) ;
#670 = CARTESIAN_POINT ( 'NONE',  ( -12.00000000000082068, 1.599999999999935030, -1.000000000000279998 ) ) ;
#671 = EDGE_CURVE ( 'NONE', #263, #454, #45, .T. ) ;
#672 = CARTESIAN_POINT ( 'NONE',  ( -12.00000000000082068, 1.599999999999935030, 0.9999999999997231104 ) ) ;
#673 = CARTESIAN_POINT ( 'NONE',  ( 9.250000000000000000, 1.600000000000075140, 1.000000000001554090 ) ) ;
#674 = PLANE ( 'NONE',  #397 ) ;
#675 = VERTEX_POINT ( 'NONE', #889 ) ;
#676 = DIRECTION ( 'NONE',  ( -1.049160758205456037E-14, -1.000000000000000000, 0.000000000000000000 ) ) ;
#677 = DIRECTION ( 'NONE',  ( -4.839168615465190256E-29, -1.000000000000000000, 1.049160758205382041E-14 ) ) ;
#678 = EDGE_CURVE ( 'NONE', #661, #270, #747, .T. ) ;
#679 = VERTEX_POINT ( 'NONE', #539 ) ;
#680 = VERTEX_POINT ( 'NONE', #127 ) ;
#681 = PLANE ( 'NONE',  #774 ) ;
#682 = CARTESIAN_POINT ( 'NONE',  ( 9.250000000000000000, 1.600000000000185052, 1.554312234475220166E-12 ) ) ;
#683 = VECTOR ( 'NONE', #413, 1000.000000000000000 ) ;
#684 = EDGE_CURVE ( 'NONE', #51, #757, #262, .T. ) ;
#685 = ORIENTED_EDGE ( 'NONE', *, *, #523, .F. ) ;
#686 = CIRCLE ( 'NONE', #719, 1.000000000000000000 ) ;
#687 = CARTESIAN_POINT ( 'NONE',  ( -12.00000000000076028, 5.551115123125779547E-14, 4.970562748477179937 ) ) ;
#688 = VERTEX_POINT ( 'NONE', #897 ) ;
#689 = DIRECTION ( 'NONE',  ( -4.839168615465190256E-29, -1.000000000000000000, 1.049160758205382041E-14 ) ) ;
#690 = DIRECTION ( 'NONE',  ( 1.211918380479518004E-28, 1.000000000000000000, 1.049160758205372102E-14 ) ) ;
#691 = LINE ( 'NONE', #545, #17 ) ;
#692 = EDGE_LOOP ( 'NONE', ( #134, #241, #433, #179 ) ) ;
#693 = EDGE_CURVE ( 'NONE', #688, #680, #691, .T. ) ;
#694 = CARTESIAN_POINT ( 'NONE',  ( -12.00000000000071942, 1.600000000000000089, 4.970562748476900161 ) ) ;
#695 = LINE ( 'NONE', #892, #830 ) ;
#696 = CARTESIAN_POINT ( 'NONE',  ( -3.500000000000285105, 1.699999999999924905, -3.500000000000170086 ) ) ;
#697 = DIRECTION ( 'NONE',  ( 3.059798019913045148E-15, -1.049160758205372102E-14, 1.000000000000000000 ) ) ;
#698 = EDGE_CURVE ( 'NONE', #51, #252, #267, .T. ) ;
#699 = CARTESIAN_POINT ( 'NONE',  ( 4.970562748477100001, 1.600000000001575051, -12.00000000000000000 ) ) ;
#700 = ORIENTED_EDGE ( 'NONE', *, *, #421, .T. ) ;
#701 = CARTESIAN_POINT ( 'NONE',  ( 9.250000000000000000, 1.600000000000075140, 1.000000000001554090 ) ) ;
#702 = VECTOR ( 'NONE', #697, 1000.000000000000000 ) ;
#703 = CARTESIAN_POINT ( 'NONE',  ( -12.00000000000082068, 1.599999999999935030, 0.9999999999997231104 ) ) ;
#704 = VECTOR ( 'NONE', #110, 1000.000000000000000 ) ;
#705 = LINE ( 'NONE', #713, #550 ) ;
#706 = EDGE_CURVE ( 'NONE', #100, #661, #255, .T. ) ;
#707 = ORIENTED_EDGE ( 'NONE', *, *, #82, .F. ) ;
#708 = DIRECTION ( 'NONE',  ( 1.147212110562980063E-28, 1.000000000000000000, 1.058181320345852328E-14 ) ) ;
#709 = ORIENTED_EDGE ( 'NONE', *, *, #96, .F. ) ;
#710 = DIRECTION ( 'NONE',  ( 5.789114301275759636E-28, 1.000000000000000000, 0.000000000000000000 ) ) ;
#711 = CARTESIAN_POINT ( 'NONE',  ( 12.00000000000034106, 1.600000000001295053, -4.970562748475909842 ) ) ;
#712 = ORIENTED_EDGE ( 'NONE', *, *, #111, .T. ) ;
#713 = CARTESIAN_POINT ( 'NONE',  ( -4.970562748477449944, 1.600000000000990186, -11.99999999999830003 ) ) ;
#714 = ORIENTED_EDGE ( 'NONE', *, *, #546, .T. ) ;
#715 = EDGE_CURVE ( 'NONE', #313, #658, #113, .T. ) ;
#716 = EDGE_CURVE ( 'NONE', #296, #51, #183, .T. ) ;
#717 = LOCAL_TIME ( 18, 50, 31.00000000000000000, #301 ) ;
#718 = PLANE ( 'NONE',  #326 ) ;
#719 = AXIS2_PLACEMENT_3D ( 'NONE', #385, #690, #48 ) ;
#720 = ORIENTED_EDGE ( 'NONE', *, *, #322, .T. ) ;
#721 = ADVANCED_FACE ( 'NONE', ( #617 ), #186, .F. ) ;
#722 = DIRECTION ( 'NONE',  ( -4.839168615465190256E-29, -1.000000000000000000, 1.049160758205382041E-14 ) ) ;
#723 = APPROVAL_DATE_TIME ( #783, #631 ) ;
#724 = CARTESIAN_POINT ( 'NONE',  ( -4.970562748477449944, 1.600000000000990186, -11.99999999999830003 ) ) ;
#725 = CARTESIAN_POINT ( 'NONE',  ( -9.250000000000360600, 1.600000000000209921, -0.9999999999976141307 ) ) ;
#726 = PERSON_AND_ORGANIZATION ( #18446744073709551615, #18446744073709551615 ) ;
#727 = CARTESIAN_POINT ( 'NONE',  ( 3.500000000000075051, 1.700000000001199885, 3.500000000000280220 ) ) ;
#728 = VECTOR ( 'NONE', #59, 1000.000000000000000 ) ;
#729 = EDGE_CURVE ( 'NONE', #99, #731, #426, .T. ) ;
#730 = CARTESIAN_POINT ( 'NONE',  ( 8.250000000000000000, 2.498001805406605245E-13, 1.554312234475220166E-12 ) ) ;
#731 = VERTEX_POINT ( 'NONE', #501 ) ;
#732 = CARTESIAN_POINT ( 'NONE',  ( 3.500000000000090150, 1.600000000000209921, -3.500000000000225153 ) ) ;
#733 = CARTESIAN_POINT ( 'NONE',  ( 9.250000000000000000, 1.600000000000185052, 1.554312234475220166E-12 ) ) ;
#734 = EDGE_CURVE ( 'NONE', #653, #549, #265, .T. ) ;
#735 = CARTESIAN_POINT ( 'NONE',  ( 3.500000000000000000, 1.700000000000199796, -3.499999999999950262 ) ) ;
#736 = CARTESIAN_POINT ( 'NONE',  ( 12.00000000000034106, 1.600000000000240119, 1.000000000001056044 ) ) ;
#737 = VECTOR ( 'NONE', #802, 1000.000000000000000 ) ;
#738 = ORIENTED_EDGE ( 'NONE', *, *, #377, .F. ) ;
#739 = DESIGN_CONTEXT ( 'detailed design', #533, 'design' ) ;
#740 = EDGE_CURVE ( 'NONE', #555, #243, #153, .T. ) ;
#741 = DIRECTION ( 'NONE',  ( 2.622901895643965041E-15, 0.000000000000000000, 1.000000000000000000 ) ) ;
#742 = CARTESIAN_POINT ( 'NONE',  ( -12.00000000000071942, 1.600000000000000089, 4.970562748476900161 ) ) ;
#743 = ORIENTED_EDGE ( 'NONE', *, *, #656, .T. ) ;
#744 = APPROVAL_DATE_TIME ( #180, #306 ) ;
#745 = CARTESIAN_POINT ( 'NONE',  ( -4.970562748477459714, -1.665334536937734811E-13, 12.00000000000155964 ) ) ;
#746 = DIRECTION ( 'NONE',  ( -1.000000000000000000, 5.789114301275759636E-28, 2.622901895643960307E-15 ) ) ;
#747 = LINE ( 'NONE', #760, #667 ) ;
#748 = ADVANCED_FACE ( 'NONE', ( #256 ), #524, .F. ) ;
#749 = ORIENTED_EDGE ( 'NONE', *, *, #214, .T. ) ;
#750 = CARTESIAN_POINT ( 'NONE',  ( -3.500000000000280220, 1.700000000000979838, 3.499999999999780176 ) ) ;
#751 = DIRECTION ( 'NONE',  ( -1.000000000000000000, 5.789114301275759636E-28, 2.622901895643960307E-15 ) ) ;
#752 = APPROVAL_PERSON_ORGANIZATION ( #778, #600, #651 ) ;
#753 = VERTEX_POINT ( 'NONE', #736 ) ;
#754 = AXIS2_PLACEMENT_3D ( 'NONE', #27, #439, #167 ) ;
#755 = AXIS2_PLACEMENT_3D ( 'NONE', #825, #810, #173 ) ;
#756 = DIRECTION ( 'NONE',  ( 0.7071067811865361374, 7.418686866818559891E-15, -0.7071067811865590080 ) ) ;
#757 = VERTEX_POINT ( 'NONE', #108 ) ;
#758 = CARTESIAN_POINT ( 'NONE',  ( 0.000000000000000000, 0.000000000000000000, 0.000000000000000000 ) ) ;
#759 = DIRECTION ( 'NONE',  ( -1.000000000000000000, 5.328508895734909686E-28, -2.448402189699300133E-15 ) ) ;
#760 = CARTESIAN_POINT ( 'NONE',  ( -12.00000000000071942, 1.600000000000000089, 4.970562748476900161 ) ) ;
#761 = SPHERICAL_SURFACE ( 'NONE', #163, 2.500000000000000000 ) ;
#762 = PRODUCT_DEFINITION ( 'General', '', #81, #739 ) ;
#763 = ORIENTED_EDGE ( 'NONE', *, *, #607, .F. ) ;
#764 = CARTESIAN_POINT ( 'NONE',  ( -3.500000000000285105, 1.699999999999924905, -3.500000000000170086 ) ) ;
#765 = LINE ( 'NONE', #696, #873 ) ;
#766 = ORIENTED_EDGE ( 'NONE', *, *, #50, .T. ) ;
#767 = ORIENTED_EDGE ( 'NONE', *, *, #207, .F. ) ;
#768 = EDGE_LOOP ( 'NONE', ( #257, #824, #776, #836 ) ) ;
#769 = DIRECTION ( 'NONE',  ( -2.622901895643884971E-15, -1.049160758205372102E-14, 1.000000000000000000 ) ) ;
#770 = DIRECTION ( 'NONE',  ( -2.622901895643960307E-15, 1.049160758205372102E-14, -1.000000000000000000 ) ) ;
#771 = CARTESIAN_POINT ( 'NONE',  ( -12.00000000000076028, 5.551115123125779547E-14, 4.970562748477179937 ) ) ;
#772 = CIRCLE ( 'NONE', #366, 2.500000000000000000 ) ;
#773 = SPHERICAL_SURFACE ( 'NONE', #548, 2.500000000000000000 ) ;
#774 = AXIS2_PLACEMENT_3D ( 'NONE', #735, #746, #112 ) ;
#775 = DIRECTION ( 'NONE',  ( 1.000000000000000000, -5.149397410948119590E-28, -2.746810715356595528E-15 ) ) ;
#776 = ORIENTED_EDGE ( 'NONE', *, *, #715, .F. ) ;
#777 = APPLICATION_CONTEXT ( 'configuration controlled 3d designs of mechanical parts and assemblies' ) ;
#778 = PERSON_AND_ORGANIZATION ( #18446744073709551615, #18446744073709551615 ) ;
#779 = DIRECTION ( 'NONE',  ( -1.147212110562980063E-28, -1.000000000000000000, -1.058181320345852012E-14 ) ) ;
#780 = ADVANCED_FACE ( 'NONE', ( #387 ), #674, .F. ) ;
#781 = EDGE_LOOP ( 'NONE', ( #574, #170, #820, #601, #874, #247, #195, #437, #635, #317, #540, #685, #75, #626, #633, #19, #602, #264 ) ) ;
#782 = ORIENTED_EDGE ( 'NONE', *, *, #586, .T. ) ;
#783 = DATE_AND_TIME ( #20, #149 ) ;
#784 = CYLINDRICAL_SURFACE ( 'NONE', #515, 1.000000000000000000 ) ;
#785 = EDGE_CURVE ( 'NONE', #731, #133, #332, .T. ) ;
#786 = VECTOR ( 'NONE', #835, 1000.000000000000114 ) ;
#787 = LINE ( 'NONE', #31, #514 ) ;
#788 = DIRECTION ( 'NONE',  ( 0.000000000000000000, 1.049160758205372102E-14, -1.000000000000000000 ) ) ;
#789 = AXIS2_PLACEMENT_3D ( 'NONE', #808, #756, #398 ) ;
#790 = VERTEX_POINT ( 'NONE', #478 ) ;
#791 = APPROVAL_ROLE ( '' ) ;
#792 = PLANE ( 'NONE',  #307 ) ;
#793 = CARTESIAN_POINT ( 'NONE',  ( 3.500000000000000000, 1.700000000000199796, -3.499999999999950262 ) ) ;
#794 = EDGE_CURVE ( 'NONE', #216, #753, #399, .T. ) ;
#795 = DIRECTION ( 'NONE',  ( -1.969940139858289958E-27, -1.000000000000000000, -1.040834085586084099E-14 ) ) ;
#796 = DIRECTION ( 'NONE',  ( -2.622901895643960307E-15, 1.049160758205372102E-14, -1.000000000000000000 ) ) ;
#797 = VECTOR ( 'NONE', #402, 1000.000000000000000 ) ;
#798 = CARTESIAN_POINT ( 'NONE',  ( -9.250000000000360600, 2.775557561562890341E-13, -0.9999999999973359088 ) ) ;
#799 = AXIS2_PLACEMENT_3D ( 'NONE', #619, #250, #335 ) ;
#800 = AXIS2_PLACEMENT_3D ( 'NONE', #733, #103, #379 ) ;
#801 = ORIENTED_EDGE ( 'NONE', *, *, #428, .T. ) ;
#802 = DIRECTION ( 'NONE',  ( -4.839168615465190256E-29, -1.000000000000000000, 1.049160758205382041E-14 ) ) ;
#803 = ORIENTED_EDGE ( 'NONE', *, *, #91, .T. ) ;
#804 = CC_DESIGN_PERSON_AND_ORGANIZATION_ASSIGNMENT ( #505, #79, ( #762 ) ) ;
#805 = CARTESIAN_POINT ( 'NONE',  ( 4.970562748477129311, 1.110223024625155909E-13, 11.99999999999971934 ) ) ;
#806 = EDGE_CURVE ( 'NONE', #753, #427, #208, .T. ) ;
#807 = ORIENTED_EDGE ( 'NONE', *, *, #356, .F. ) ;
#808 = CARTESIAN_POINT ( 'NONE',  ( -12.00000000000071942, 1.600000000000000089, 4.970562748476900161 ) ) ;
#809 = DIRECTION ( 'NONE',  ( 0.7071067811865361374, -7.418686866818858080E-15, 0.7071067811865590080 ) ) ;
#810 = DIRECTION ( 'NONE',  ( 1.209029485585626078E-28, 1.000000000000000000, 1.040834085586084099E-14 ) ) ;
#811 = ORIENTED_EDGE ( 'NONE', *, *, #422, .F. ) ;
#812 = DIRECTION ( 'NONE',  ( -1.000000000000000000, 6.339483449582180342E-28, -2.622901895643884971E-15 ) ) ;
#813 = LINE ( 'NONE', #750, #728 ) ;
#814 = CARTESIAN_POINT ( 'NONE',  ( 4.970562748477100001, 1.600000000001575051, -12.00000000000000000 ) ) ;
#815 = AXIS2_PLACEMENT_3D ( 'NONE', #858, #300, #302 ) ;
#816 = EDGE_LOOP ( 'NONE', ( #895, #141, #654, #114 ) ) ;
#817 = PLANE ( 'NONE',  #84 ) ;
#818 = DIRECTION ( 'NONE',  ( -1.000000000000000000, 8.696615314559630962E-29, 2.622901895643965041E-15 ) ) ;
#819 = DIRECTION ( 'NONE',  ( -4.839168615465190256E-29, -1.000000000000000000, 1.049160758205382041E-14 ) ) ;
#820 = ORIENTED_EDGE ( 'NONE', *, *, #161, .F. ) ;
#821 = ADVANCED_FACE ( 'NONE', ( #213 ), #414, .F. ) ;
#822 = CARTESIAN_POINT ( 'NONE',  ( 4.970562748477120429, 1.526556658859590041E-12, -12.00000000000000000 ) ) ;
#823 = CARTESIAN_POINT ( 'NONE',  ( -4.970562748477429516, 1.054711873393899925E-12, -11.99999999999906031 ) ) ;
#824 = ORIENTED_EDGE ( 'NONE', *, *, #850, .F. ) ;
#825 = CARTESIAN_POINT ( 'NONE',  ( -9.250000000000419220, 1.600000000000045164, 2.386979502944084946E-12 ) ) ;
#826 = ORIENTED_EDGE ( 'NONE', *, *, #794, .T. ) ;
#827 = LINE ( 'NONE', #459, #886 ) ;
#828 = DIRECTION ( 'NONE',  ( 0.7071067811865588970, 7.418686866818368986E-15, -0.7071067811865360264 ) ) ;
#829 = EDGE_LOOP ( 'NONE', ( #575, #811, #240, #838 ) ) ;
#830 = VECTOR ( 'NONE', #465, 1000.000000000000000 ) ;
#831 = AXIS2_PLACEMENT_3D ( 'NONE', #670, #599, #105 ) ;
#832 = AXIS2_PLACEMENT_3D ( 'NONE', #682, #63, #460 ) ;
#833 = CARTESIAN_POINT ( 'NONE',  ( -3.500000000000280220, 1.700000000000979838, 3.499999999999780176 ) ) ;
#834 = CARTESIAN_POINT ( 'NONE',  ( -12.00000000000082068, 1.599999999999935030, -1.000000000000279998 ) ) ;
#835 = DIRECTION ( 'NONE',  ( -0.7071067811865588970, -7.418686866818299567E-15, 0.7071067811865360264 ) ) ;
#836 = ORIENTED_EDGE ( 'NONE', *, *, #643, .T. ) ;
#837 = EDGE_CURVE ( 'NONE', #753, #547, #839, .T. ) ;
#838 = ORIENTED_EDGE ( 'NONE', *, *, #850, .T. ) ;
#839 = LINE ( 'NONE', #483, #95 ) ;
#840 = DIRECTION ( 'NONE',  ( 4.839168615465190256E-29, 1.000000000000000000, -1.049160758205382041E-14 ) ) ;
#841 = EDGE_LOOP ( 'NONE', ( #364, #440 ) ) ;
#842 = ADVANCED_FACE ( 'NONE', ( #73 ), #273, .F. ) ;
#843 = FACE_OUTER_BOUND ( 'NONE', #461, .T. ) ;
#844 = ORIENTED_EDGE ( 'NONE', *, *, #30, .T. ) ;
#845 = ORIENTED_EDGE ( 'NONE', *, *, #585, .T. ) ;
#846 = ORIENTED_EDGE ( 'NONE', *, *, #607, .T. ) ;
#847 = AXIS2_PLACEMENT_3D ( 'NONE', #4, #854, #205 ) ;
#848 = CARTESIAN_POINT ( 'NONE',  ( -3.500000000000280220, 1.700000000000979838, 3.499999999999780176 ) ) ;
#849 = LOCAL_TIME ( 18, 50, 31.00000000000000000, #36 ) ;
#850 = EDGE_CURVE ( 'NONE', #658, #541, #343, .T. ) ;
#851 = LINE ( 'NONE', #344, #211 ) ;
#852 = ORIENTED_EDGE ( 'NONE', *, *, #446, .F. ) ;
#853 = DATE_TIME_ROLE ( 'creation_date' ) ;
#854 = DIRECTION ( 'NONE',  ( 1.209029485585626078E-28, 1.000000000000000000, 1.040834085586084099E-14 ) ) ;
#855 = EDGE_LOOP ( 'NONE', ( #664, #565, #876, #542 ) ) ;
#856 = ORIENTED_EDGE ( 'NONE', *, *, #151, .T. ) ;
#857 = APPLICATION_PROTOCOL_DEFINITION ( 'international standard', 'config_control_design', 1994, #777 ) ;
#858 = CARTESIAN_POINT ( 'NONE',  ( -8.250000000000449418, 1.600000000000000089, 0.9999999999998900879 ) ) ;
#859 = EDGE_CURVE ( 'NONE', #100, #535, #259, .T. ) ;
#860 = COORDINATED_UNIVERSAL_TIME_OFFSET ( 10, 0, .AHEAD. ) ;
#861 = LINE ( 'NONE', #32, #630 ) ;
#862 = CIRCLE ( 'NONE', #178, 1.000000000000000000 ) ;
#863 = DIRECTION ( 'NONE',  ( -1.000000000000000000, 5.328508895734909686E-28, -2.449429548046210178E-15 ) ) ;
#864 = DIRECTION ( 'NONE',  ( 1.000000000000000000, -4.902631859033669144E-28, -3.059798019913045148E-15 ) ) ;
#865 = FACE_OUTER_BOUND ( 'NONE', #220, .T. ) ;
#866 = LINE ( 'NONE', #578, #563 ) ;
#867 = ORIENTED_EDGE ( 'NONE', *, *, #499, .T. ) ;
#868 = CARTESIAN_POINT ( 'NONE',  ( 3.500000000000075051, 1.700000000001199885, 3.500000000000280220 ) ) ;
#869 = AXIS2_PLACEMENT_3D ( 'NONE', #407, #893, #457 ) ;
#870 = ADVANCED_FACE ( 'NONE', ( #469 ), #773, .T. ) ;
#871 = CARTESIAN_POINT ( 'NONE',  ( -8.250000000000449418, 1.600000000000000089, 0.9999999999998900879 ) ) ;
#872 = AXIS2_PLACEMENT_3D ( 'NONE', #509, #436, #228 ) ;
#873 = VECTOR ( 'NONE', #677, 1000.000000000000000 ) ;
#874 = ORIENTED_EDGE ( 'NONE', *, *, #322, .F. ) ;
#875 = SHAPE_DEFINITION_REPRESENTATION ( #627, #365 ) ;
#876 = ORIENTED_EDGE ( 'NONE', *, *, #394, .F. ) ;
#877 = DIRECTION ( 'NONE',  ( 3.469446951953614189E-15, -1.049160758205371786E-14, 1.000000000000000000 ) ) ;
#878 = ORIENTED_EDGE ( 'NONE', *, *, #512, .T. ) ;
#879 = ORIENTED_EDGE ( 'NONE', *, *, #310, .T. ) ;
#880 = CARTESIAN_POINT ( 'NONE',  ( 9.250000000000119016, 1.600000000000075140, -0.9999999999984459098 ) ) ;
#881 = FACE_OUTER_BOUND ( 'NONE', #621, .T. ) ;
#882 = ORIENTED_EDGE ( 'NONE', *, *, #316, .T. ) ;
#883 = MANIFOLD_SOLID_BREP ( 'NONE', #55 ) ;
#884 = DIRECTION ( 'NONE',  ( -4.839168615465190256E-29, -1.000000000000000000, 1.049160758205382041E-14 ) ) ;
#885 = DIRECTION ( 'NONE',  ( -0.7071067811865588970, 7.418686866818569357E-15, -0.7071067811865360264 ) ) ;
#886 = VECTOR ( 'NONE', #116, 1000.000000000000000 ) ;
#887 = ADVANCED_FACE ( 'NONE', ( #486 ), #405, .F. ) ;
#888 = CARTESIAN_POINT ( 'NONE',  ( 12.00000000000036060, 1.942890293094024955E-13, 1.000000000001554090 ) ) ;
#889 = CARTESIAN_POINT ( 'NONE',  ( 9.250000000000000000, 2.775557561562889773E-14, 1.000000000001554090 ) ) ;
#890 = ORIENTED_EDGE ( 'NONE', *, *, #349, .T. ) ;
#891 = DIRECTION ( 'NONE',  ( 0.000000000000000000, 1.049160758205372102E-14, -1.000000000000000000 ) ) ;
#892 = CARTESIAN_POINT ( 'NONE',  ( 4.970562748477080461, 1.600000000000155076, 11.99999999999971934 ) ) ;
#893 = DIRECTION ( 'NONE',  ( -0.7071067811865361374, 7.418686866818780772E-15, -0.7071067811865590080 ) ) ;
#894 = ORIENTED_EDGE ( 'NONE', *, *, #794, .F. ) ;
#895 = ORIENTED_EDGE ( 'NONE', *, *, #161, .T. ) ;
#896 = CARTESIAN_POINT ( 'NONE',  ( 12.00000000000034106, 1.600000000000240119, 1.000000000001056044 ) ) ;
#897 = CARTESIAN_POINT ( 'NONE',  ( 3.500000000000000000, 1.700000000000199796, -3.499999999999950262 ) ) ;
#898 = EDGE_CURVE ( 'NONE', #653, #243, #787, .T. ) ;
#899 = VECTOR ( 'NONE', #276, 1000.000000000000000 ) ;
#900 = ORIENTED_EDGE ( 'NONE', *, *, #649, .F. ) ;
#901 = DIRECTION ( 'NONE',  ( 1.000000000000000000, -6.339483449582180342E-28, 2.622901895643884971E-15 ) ) ;
ENDSEC;
END-ISO-10303-21;
