ISO-10303-21;
HEADER;
FILE_DESCRIPTION (( 'STEP AP203' ),
    '1' );
FILE_NAME ('Open CASCADE STEP translator 7.5 1.1.1.step.STEP',
    '2026-06-22T08:49:53',
    ( 'localuser' ),
    ( '' ),
    'SwSTEP 2.0',
    'SolidWorks 2025',
    '' );
FILE_SCHEMA (( 'CONFIG_CONTROL_DESIGN' ));
ENDSEC;

DATA;
#1 = AXIS2_PLACEMENT_3D ( 'NONE', #15, #27, #632 ) ;
#2 = CARTESIAN_POINT ( 'NONE',  ( 25.50000000000000000, 2.000000000000000000, 0.000000000000000000 ) ) ;
#3 = EDGE_CURVE ( 'NONE', #340, #597, #267, .T. ) ;
#4 = CARTESIAN_POINT ( 'NONE',  ( 23.50000000000000000, 23.50000000000000000, 1.558323020000000003 ) ) ;
#5 = DESIGN_CONTEXT ( 'detailed design', #339, 'design' ) ;
#6 = DIRECTION ( 'NONE',  ( -0.9999999335329465833, 0.0003646012926762828279, 0.000000000000000000 ) ) ;
#7 = DIRECTION ( 'NONE',  ( 1.000000000000000000, 0.000000000000000000, 0.000000000000000000 ) ) ;
#8 = CARTESIAN_POINT ( 'NONE',  ( 23.50000000000000000, 2.000000000000000000, 0.000000000000000000 ) ) ;
#9 = VERTEX_POINT ( 'NONE', #667 ) ;
#10 = FACE_BOUND ( 'NONE', #155, .T. ) ;
#11 = EDGE_CURVE ( 'NONE', #592, #244, #207, .T. ) ;
#12 = VECTOR ( 'NONE', #666, 1000.000000000000000 ) ;
#13 = DIRECTION ( 'NONE',  ( 0.000000000000000000, 0.000000000000000000, 1.000000000000000000 ) ) ;
#14 = CARTESIAN_POINT ( 'NONE',  ( 25.50000000000000000, 23.50000000000000000, 1.558323020000000003 ) ) ;
#15 = CARTESIAN_POINT ( 'NONE',  ( 23.50000000000000000, 2.000000000000000000, 0.000000000000000000 ) ) ;
#16 = CARTESIAN_POINT ( 'NONE',  ( 2.000000000000000000, 23.50000000000000000, 1.558323020000000003 ) ) ;
#17 = ORIENTED_EDGE ( 'NONE', *, *, #214, .T. ) ;
#18 = CARTESIAN_POINT ( 'NONE',  ( 2.000000000000000000, 23.50000000000000000, 0.000000000000000000 ) ) ;
#19 = ADVANCED_FACE ( 'NONE', ( #560 ), #255, .T. ) ;
#20 = FACE_BOUND ( 'NONE', #568, .T. ) ;
#21 = AXIS2_PLACEMENT_3D ( 'NONE', #49, #146, #253 ) ;
#22 = DIRECTION ( 'NONE',  ( 0.000000000000000000, 0.000000000000000000, -1.000000000000000000 ) ) ;
#23 = AXIS2_PLACEMENT_3D ( 'NONE', #651, #404, #141 ) ;
#24 = APPROVAL_PERSON_ORGANIZATION ( #191, #262, #130 ) ;
#25 = CC_DESIGN_DATE_AND_TIME_ASSIGNMENT ( #91, #282, ( #501 ) ) ;
#26 = ORIENTED_EDGE ( 'NONE', *, *, #11, .T. ) ;
#27 = DIRECTION ( 'NONE',  ( 0.000000000000000000, 0.000000000000000000, 1.000000000000000000 ) ) ;
#28 = ORIENTED_EDGE ( 'NONE', *, *, #250, .F. ) ;
#29 = ORIENTED_EDGE ( 'NONE', *, *, #422, .F. ) ;
#30 = ORIENTED_EDGE ( 'NONE', *, *, #40, .F. ) ;
#31 = DIRECTION ( 'NONE',  ( 0.000000000000000000, 0.000000000000000000, 1.000000000000000000 ) ) ;
#32 = VERTEX_POINT ( 'NONE', #663 ) ;
#33 = ORIENTED_EDGE ( 'NONE', *, *, #40, .T. ) ;
#34 = SHAPE_DEFINITION_REPRESENTATION ( #464, #144 ) ;
#35 = CYLINDRICAL_SURFACE ( 'NONE', #104, 1.100000000000000311 ) ;
#36 = EDGE_LOOP ( 'NONE', ( #278, #26 ) ) ;
#37 = ORIENTED_EDGE ( 'NONE', *, *, #96, .T. ) ;
#38 = PERSON_AND_ORGANIZATION ( #18446744073709551615, #18446744073709551615 ) ;
#39 = DIRECTION ( 'NONE',  ( 1.000000000000000000, 0.000000000000000000, 0.000000000000000000 ) ) ;
#40 = EDGE_CURVE ( 'NONE', #531, #655, #53, .T. ) ;
#41 = ORIENTED_EDGE ( 'NONE', *, *, #76, .F. ) ;
#42 = COORDINATED_UNIVERSAL_TIME_OFFSET ( 10, 0, .AHEAD. ) ;
#43 = FACE_OUTER_BOUND ( 'NONE', #200, .T. ) ;
#44 = VECTOR ( 'NONE', #72, 1000.000000000000000 ) ;
#45 = ORIENTED_EDGE ( 'NONE', *, *, #422, .T. ) ;
#46 = LINE ( 'NONE', #86, #353 ) ;
#47 = EDGE_LOOP ( 'NONE', ( #438, #360, #99, #279, #215, #212, #237, #160 ) ) ;
#48 = LINE ( 'NONE', #213, #385 ) ;
#49 = CARTESIAN_POINT ( 'NONE',  ( 23.50000000000000000, 23.50000000000000000, 0.000000000000000000 ) ) ;
#50 = EDGE_CURVE ( 'NONE', #382, #490, #582, .T. ) ;
#51 = DIRECTION ( 'NONE',  ( 1.000000000000000000, 0.000000000000000000, 0.000000000000000000 ) ) ;
#52 = VECTOR ( 'NONE', #107, 1000.000000000000000 ) ;
#53 = LINE ( 'NONE', #347, #561 ) ;
#54 = AXIS2_PLACEMENT_3D ( 'NONE', #442, #390, #502 ) ;
#55 = CIRCLE ( 'NONE', #116, 1.100000000000000311 ) ;
#56 = CARTESIAN_POINT ( 'NONE',  ( 23.50000000000000000, -6.661338147751000379E-16, 1.558323020000000003 ) ) ;
#57 = CARTESIAN_POINT ( 'NONE',  ( 0.9000000000000000222, 2.000000000000000000, 0.000000000000000000 ) ) ;
#58 = FACE_OUTER_BOUND ( 'NONE', #389, .T. ) ;
#59 = FACE_BOUND ( 'NONE', #443, .T. ) ;
#60 = CARTESIAN_POINT ( 'NONE',  ( -4.440892098500999885E-16, 23.50000000000000000, 1.558323020000000003 ) ) ;
#61 = CC_DESIGN_PERSON_AND_ORGANIZATION_ASSIGNMENT ( #337, #294, ( #647 ) ) ;
#62 = CYLINDRICAL_SURFACE ( 'NONE', #162, 2.000729601581999084 ) ;
#63 = AXIS2_PLACEMENT_3D ( 'NONE', #424, #22, #381 ) ;
#64 = DIRECTION ( 'NONE',  ( 0.000000000000000000, 0.000000000000000000, 1.000000000000000000 ) ) ;
#65 = DIRECTION ( 'NONE',  ( 1.000000000000000000, 0.000000000000000000, 0.000000000000000000 ) ) ;
#66 = ORIENTED_EDGE ( 'NONE', *, *, #67, .F. ) ;
#67 = EDGE_CURVE ( 'NONE', #240, #648, #383, .T. ) ;
#68 = DIRECTION ( 'NONE',  ( 0.000000000000000000, 0.000000000000000000, -1.000000000000000000 ) ) ;
#69 = CARTESIAN_POINT ( 'NONE',  ( 2.000000000000000000, 25.50000000000000000, 1.558323020000000003 ) ) ;
#70 = EDGE_CURVE ( 'NONE', #453, #32, #408, .T. ) ;
#71 = FACE_OUTER_BOUND ( 'NONE', #335, .T. ) ;
#72 = DIRECTION ( 'NONE',  ( -1.000000000000000000, 0.000000000000000000, 0.000000000000000000 ) ) ;
#73 = AXIS2_PLACEMENT_3D ( 'NONE', #4, #357, #571 ) ;
#74 = CIRCLE ( 'NONE', #137, 1.100000000000000311 ) ;
#75 = ORIENTED_EDGE ( 'NONE', *, *, #3, .F. ) ;
#76 = EDGE_CURVE ( 'NONE', #283, #648, #402, .T. ) ;
#77 = VERTEX_POINT ( 'NONE', #263 ) ;
#78 = ORIENTED_EDGE ( 'NONE', *, *, #114, .T. ) ;
#79 = DATE_TIME_ROLE ( 'classification_date' ) ;
#80 = EDGE_LOOP ( 'NONE', ( #512, #331, #66, #344 ) ) ;
#81 = APPROVAL_STATUS ( 'not_yet_approved' ) ;
#82 = LINE ( 'NONE', #252, #671 ) ;
#83 = ORIENTED_EDGE ( 'NONE', *, *, #228, .T. ) ;
#84 = APPROVAL_STATUS ( 'not_yet_approved' ) ;
#85 = EDGE_CURVE ( 'NONE', #205, #517, #471, .T. ) ;
#86 = CARTESIAN_POINT ( 'NONE',  ( 25.50000000000000000, 23.50000000000000000, 0.000000000000000000 ) ) ;
#87 = ORIENTED_EDGE ( 'NONE', *, *, #569, .F. ) ;
#88 = CALENDAR_DATE ( 2026, 22, 6 ) ;
#89 = CARTESIAN_POINT ( 'NONE',  ( 23.50000000000000000, 23.50000000000000000, 0.000000000000000000 ) ) ;
#90 = DIRECTION ( 'NONE',  ( 0.0003646012926745485923, 0.9999999335329465833, 0.000000000000000000 ) ) ;
#91 = DATE_AND_TIME ( #500, #607 ) ;
#92 = DIRECTION ( 'NONE',  ( -0.0003646012926771498644, -0.9999999335329465833, 0.000000000000000000 ) ) ;
#93 = VECTOR ( 'NONE', #376, 1000.000000000000000 ) ;
#94 = CARTESIAN_POINT ( 'NONE',  ( 23.50000000000000000, 0.000000000000000000, 0.000000000000000000 ) ) ;
#95 = CARTESIAN_POINT ( 'NONE',  ( 0.9000000000000000222, 2.000000000000000000, 1.558323020000000003 ) ) ;
#96 = EDGE_CURVE ( 'NONE', #490, #382, #645, .T. ) ;
#97 = ORIENTED_EDGE ( 'NONE', *, *, #532, .F. ) ;
#98 = CARTESIAN_POINT ( 'NONE',  ( 23.50000000000000000, 2.000000000000000000, 1.558323020000000003 ) ) ;
#99 = ORIENTED_EDGE ( 'NONE', *, *, #149, .F. ) ;
#100 = PRODUCT_RELATED_PRODUCT_CATEGORY ( 'detail', '', ( #309 ) ) ;
#101 = CARTESIAN_POINT ( 'NONE',  ( 23.50000000000000000, 25.50000000000000000, 0.000000000000000000 ) ) ;
#102 = AXIS2_PLACEMENT_3D ( 'NONE', #260, #302, #7 ) ;
#103 = ORIENTED_EDGE ( 'NONE', *, *, #250, .T. ) ;
#104 = AXIS2_PLACEMENT_3D ( 'NONE', #246, #266, #630 ) ;
#105 = EDGE_CURVE ( 'NONE', #487, #240, #469, .T. ) ;
#106 = DIRECTION ( 'NONE',  ( 0.000000000000000000, 1.000000000000000000, 0.000000000000000000 ) ) ;
#107 = DIRECTION ( 'NONE',  ( 0.000000000000000000, -1.000000000000000000, 0.000000000000000000 ) ) ;
#108 = EDGE_LOOP ( 'NONE', ( #603, #235, #444, #514 ) ) ;
#109 = DIRECTION ( 'NONE',  ( 0.000000000000000000, 0.000000000000000000, 1.000000000000000000 ) ) ;
#110 = CC_DESIGN_PERSON_AND_ORGANIZATION_ASSIGNMENT ( #241, #542, ( #309 ) ) ;
#111 = CARTESIAN_POINT ( 'NONE',  ( 2.000000000000000000, 23.50000000000000000, 0.000000000000000000 ) ) ;
#112 = ORIENTED_EDGE ( 'NONE', *, *, #579, .T. ) ;
#113 = DIRECTION ( 'NONE',  ( 0.000000000000000000, 0.000000000000000000, -1.000000000000000000 ) ) ;
#114 = EDGE_CURVE ( 'NONE', #517, #433, #460, .T. ) ;
#115 = DIRECTION ( 'NONE',  ( 0.000000000000000000, 0.000000000000000000, -1.000000000000000000 ) ) ;
#116 = AXIS2_PLACEMENT_3D ( 'NONE', #98, #513, #206 ) ;
#117 = CARTESIAN_POINT ( 'NONE',  ( 0.9000000000000000222, 2.000000000000000000, 0.000000000000000000 ) ) ;
#118 = VECTOR ( 'NONE', #64, 1000.000000000000000 ) ;
#119 = LINE ( 'NONE', #585, #52 ) ;
#120 = ADVANCED_FACE ( 'NONE', ( #528, #271, #20, #122, #218 ), #530, .T. ) ;
#121 = CARTESIAN_POINT ( 'NONE',  ( 23.50000000000000000, 23.50000000000000000, 0.000000000000000000 ) ) ;
#122 = FACE_BOUND ( 'NONE', #503, .T. ) ;
#123 = ORIENTED_EDGE ( 'NONE', *, *, #11, .F. ) ;
#124 = ORIENTED_EDGE ( 'NONE', *, *, #579, .F. ) ;
#125 = VECTOR ( 'NONE', #343, 1000.000000000000000 ) ;
#126 = EDGE_CURVE ( 'NONE', #510, #77, #454, .T. ) ;
#127 = EDGE_LOOP ( 'NONE', ( #41, #138, #147, #87 ) ) ;
#128 = EDGE_LOOP ( 'NONE', ( #334, #521, #97, #351 ) ) ;
#129 = ORIENTED_EDGE ( 'NONE', *, *, #650, .F. ) ;
#130 = APPROVAL_ROLE ( '' ) ;
#131 = CARTESIAN_POINT ( 'NONE',  ( 23.50000000000000000, 25.50000000000000000, 0.000000000000000000 ) ) ;
#132 = ORIENTED_EDGE ( 'NONE', *, *, #447, .T. ) ;
#133 = ADVANCED_FACE ( 'NONE', ( #473 ), #62, .T. ) ;
#134 = ORIENTED_EDGE ( 'NONE', *, *, #617, .F. ) ;
#135 = VECTOR ( 'NONE', #609, 1000.000000000000000 ) ;
#136 = CARTESIAN_POINT ( 'NONE',  ( 2.000000000000000000, 23.50000000000000000, 0.000000000000000000 ) ) ;
#137 = AXIS2_PLACEMENT_3D ( 'NONE', #367, #109, #639 ) ;
#138 = ORIENTED_EDGE ( 'NONE', *, *, #544, .T. ) ;
#139 = EDGE_CURVE ( 'NONE', #77, #510, #330, .T. ) ;
#140 = CALENDAR_DATE ( 2026, 22, 6 ) ;
#141 = DIRECTION ( 'NONE',  ( 0.000000000000000000, 0.000000000000000000, 1.000000000000000000 ) ) ;
#142 = DIRECTION ( 'NONE',  ( 0.000000000000000000, -1.000000000000000000, 0.000000000000000000 ) ) ;
#143 = SECURITY_CLASSIFICATION_LEVEL ( 'unclassified' ) ;
#144 = ADVANCED_BREP_SHAPE_REPRESENTATION ( 'Open CASCADE STEP translator 7.5 1.1.1.step', ( #156, #507 ), #417 ) ;
#145 = CARTESIAN_POINT ( 'NONE',  ( 3.100000000000000533, 23.50000000000000000, 0.000000000000000000 ) ) ;
#146 = DIRECTION ( 'NONE',  ( 0.000000000000000000, 0.000000000000000000, 1.000000000000000000 ) ) ;
#147 = ORIENTED_EDGE ( 'NONE', *, *, #105, .T. ) ;
#148 = DIRECTION ( 'NONE',  ( 0.000000000000000000, 0.000000000000000000, -1.000000000000000000 ) ) ;
#149 = EDGE_CURVE ( 'NONE', #9, #32, #428, .T. ) ;
#150 = AXIS2_PLACEMENT_3D ( 'NONE', #229, #414, #575 ) ;
#151 = CIRCLE ( 'NONE', #222, 1.100000000000000311 ) ;
#152 = ORIENTED_EDGE ( 'NONE', *, *, #366, .F. ) ;
#153 = CC_DESIGN_SECURITY_CLASSIFICATION ( #440, ( #647 ) ) ;
#154 = CARTESIAN_POINT ( 'NONE',  ( 2.000000000000000000, 2.000000000000000000, 0.000000000000000000 ) ) ;
#155 = EDGE_LOOP ( 'NONE', ( #182, #436 ) ) ;
#156 = MANIFOLD_SOLID_BREP ( 'Open CASCADE STEP translator 7.5 1.1.1[1]', #625 ) ;
#157 = CYLINDRICAL_SURFACE ( 'NONE', #626, 1.100000000000000311 ) ;
#158 = ORIENTED_EDGE ( 'NONE', *, *, #373, .F. ) ;
#159 = ADVANCED_FACE ( 'NONE', ( #624 ), #580, .F. ) ;
#160 = ORIENTED_EDGE ( 'NONE', *, *, #305, .F. ) ;
#161 = CARTESIAN_POINT ( 'NONE',  ( -4.440892098500999885E-16, 23.50000000000000000, 0.000000000000000000 ) ) ;
#162 = AXIS2_PLACEMENT_3D ( 'NONE', #524, #477, #163 ) ;
#163 = DIRECTION ( 'NONE',  ( -0.9999999335329465833, 0.0003646012926762828279, 0.000000000000000000 ) ) ;
#164 = CIRCLE ( 'NONE', #583, 2.000729601581999084 ) ;
#165 = APPROVAL ( #450, 'Coincident' ) ;
#166 = DIRECTION ( 'NONE',  ( 1.000000000000000000, 0.000000000000000000, 0.000000000000000000 ) ) ;
#167 = LINE ( 'NONE', #587, #44 ) ;
#168 = CARTESIAN_POINT ( 'NONE',  ( 23.49927053140099886, 23.49927053140099886, 1.558323020000000003 ) ) ;
#169 = DIRECTION ( 'NONE',  ( 1.000000000000000000, 0.000000000000000000, 0.000000000000000000 ) ) ;
#170 = CARTESIAN_POINT ( 'NONE',  ( 0.9000000000000000222, 23.50000000000000000, 0.000000000000000000 ) ) ;
#171 = EDGE_CURVE ( 'NONE', #394, #655, #594, .T. ) ;
#172 = DIRECTION ( 'NONE',  ( 1.000000000000000000, 0.000000000000000000, 0.000000000000000000 ) ) ;
#173 = CARTESIAN_POINT ( 'NONE',  ( 22.39999999999999858, 2.000000000000000000, 0.000000000000000000 ) ) ;
#174 = LINE ( 'NONE', #482, #93 ) ;
#175 = CARTESIAN_POINT ( 'NONE',  ( 2.000000000000000000, -2.220446049249999755E-16, 1.558323020000000003 ) ) ;
#176 = CYLINDRICAL_SURFACE ( 'NONE', #211, 1.100000000000000311 ) ;
#177 = ORIENTED_EDGE ( 'NONE', *, *, #326, .T. ) ;
#178 = EDGE_CURVE ( 'NONE', #597, #453, #119, .T. ) ;
#179 = DIRECTION ( 'NONE',  ( 0.0003646012926745485923, 0.9999999335329465833, 0.000000000000000000 ) ) ;
#180 = CIRCLE ( 'NONE', #208, 1.100000000000000311 ) ;
#181 = AXIS2_PLACEMENT_3D ( 'NONE', #429, #68, #179 ) ;
#182 = ORIENTED_EDGE ( 'NONE', *, *, #50, .F. ) ;
#183 = ORIENTED_EDGE ( 'NONE', *, *, #139, .F. ) ;
#184 = LINE ( 'NONE', #243, #125 ) ;
#185 = ADVANCED_FACE ( 'NONE', ( #10, #59, #321, #368, #533 ), #265, .F. ) ;
#186 = ORIENTED_EDGE ( 'NONE', *, *, #3, .T. ) ;
#187 = CARTESIAN_POINT ( 'NONE',  ( 2.000000000000000000, 2.000000000000000000, 1.558323020000000003 ) ) ;
#188 = ORIENTED_EDGE ( 'NONE', *, *, #202, .T. ) ;
#189 = EDGE_CURVE ( 'NONE', #453, #660, #536, .T. ) ;
#190 = ORIENTED_EDGE ( 'NONE', *, *, #349, .F. ) ;
#191 = PERSON_AND_ORGANIZATION ( #18446744073709551615, #18446744073709551615 ) ;
#192 = AXIS2_PLACEMENT_3D ( 'NONE', #94, #142, #612 ) ;
#193 = DIRECTION ( 'NONE',  ( 0.000000000000000000, 0.000000000000000000, -1.000000000000000000 ) ) ;
#194 = AXIS2_PLACEMENT_3D ( 'NONE', #525, #113, #6 ) ;
#195 = CC_DESIGN_APPROVAL ( #262, ( #647 ) ) ;
#196 = ORIENTED_EDGE ( 'NONE', *, *, #515, .F. ) ;
#197 = APPLICATION_PROTOCOL_DEFINITION ( 'international standard', 'config_control_design', 1994, #339 ) ;
#198 = DIRECTION ( 'NONE',  ( 1.000000000000000000, 0.000000000000000000, 0.000000000000000000 ) ) ;
#199 = DIRECTION ( 'NONE',  ( 0.000000000000000000, 0.000000000000000000, -1.000000000000000000 ) ) ;
#200 = EDGE_LOOP ( 'NONE', ( #493, #432, #158, #333 ) ) ;
#201 = PERSON_AND_ORGANIZATION ( #18446744073709551615, #18446744073709551615 ) ;
#202 = EDGE_CURVE ( 'NONE', #660, #323, #221, .T. ) ;
#203 = CARTESIAN_POINT ( 'NONE',  ( 23.50000000000000000, 25.50000000000000000, 1.558323020000000003 ) ) ;
#204 = CARTESIAN_POINT ( 'NONE',  ( 2.000000000000000000, 2.000000000000000000, 0.000000000000000000 ) ) ;
#205 = VERTEX_POINT ( 'NONE', #631 ) ;
#206 = DIRECTION ( 'NONE',  ( 1.000000000000000000, 0.000000000000000000, 0.000000000000000000 ) ) ;
#207 = CIRCLE ( 'NONE', #21, 1.100000000000000311 ) ;
#208 = AXIS2_PLACEMENT_3D ( 'NONE', #310, #361, #520 ) ;
#209 = ORIENTED_EDGE ( 'NONE', *, *, #629, .F. ) ;
#210 = APPLICATION_CONTEXT ( 'configuration controlled 3d designs of mechanical parts and assemblies' ) ;
#211 = AXIS2_PLACEMENT_3D ( 'NONE', #121, #534, #581 ) ;
#212 = ORIENTED_EDGE ( 'NONE', *, *, #509, .F. ) ;
#213 = CARTESIAN_POINT ( 'NONE',  ( 2.000000000000000000, -2.220446049249999755E-16, 0.000000000000000000 ) ) ;
#214 = EDGE_CURVE ( 'NONE', #556, #391, #628, .T. ) ;
#215 = ORIENTED_EDGE ( 'NONE', *, *, #214, .F. ) ;
#216 = EDGE_LOOP ( 'NONE', ( #652, #177, #307, #565 ) ) ;
#217 = CARTESIAN_POINT ( 'NONE',  ( 2.000000000000000000, 25.50000000000000000, 1.558323020000000003 ) ) ;
#218 = FACE_OUTER_BOUND ( 'NONE', #492, .T. ) ;
#219 = CARTESIAN_POINT ( 'NONE',  ( 24.60000000000000142, 23.50000000000000000, 0.000000000000000000 ) ) ;
#220 = AXIS2_PLACEMENT_3D ( 'NONE', #458, #621, #90 ) ;
#221 = LINE ( 'NONE', #418, #269 ) ;
#222 = AXIS2_PLACEMENT_3D ( 'NONE', #18, #435, #529 ) ;
#223 = CARTESIAN_POINT ( 'NONE',  ( 2.000000000000000000, 25.50000000000000000, 0.000000000000000000 ) ) ;
#224 = CARTESIAN_POINT ( 'NONE',  ( 23.50000000000000000, 2.000000000000000000, 0.000000000000000000 ) ) ;
#225 =( NAMED_UNIT ( * ) SI_UNIT ( $, .STERADIAN. ) SOLID_ANGLE_UNIT ( ) );
#226 = DIRECTION ( 'NONE',  ( 0.000000000000000000, 0.000000000000000000, 1.000000000000000000 ) ) ;
#227 = CARTESIAN_POINT ( 'NONE',  ( 23.50000000000000000, -6.661338147751000379E-16, 0.000000000000000000 ) ) ;
#228 = EDGE_CURVE ( 'NONE', #77, #591, #174, .T. ) ;
#229 = CARTESIAN_POINT ( 'NONE',  ( 2.000000000000000000, 23.50000000000000000, 1.558323020000000003 ) ) ;
#230 = VECTOR ( 'NONE', #506, 1000.000000000000000 ) ;
#231 = CIRCLE ( 'NONE', #407, 2.000729601581999972 ) ;
#232 = LINE ( 'NONE', #270, #118 ) ;
#233 = EDGE_CURVE ( 'NONE', #548, #588, #167, .T. ) ;
#234 = ADVANCED_FACE ( 'NONE', ( #276 ), #486, .F. ) ;
#235 = ORIENTED_EDGE ( 'NONE', *, *, #275, .T. ) ;
#236 = FACE_OUTER_BOUND ( 'NONE', #499, .T. ) ;
#237 = ORIENTED_EDGE ( 'NONE', *, *, #275, .F. ) ;
#238 = AXIS2_PLACEMENT_3D ( 'NONE', #420, #638, #374 ) ;
#239 = FACE_OUTER_BOUND ( 'NONE', #108, .T. ) ;
#240 = VERTEX_POINT ( 'NONE', #352 ) ;
#241 = PERSON_AND_ORGANIZATION ( #18446744073709551615, #18446744073709551615 ) ;
#242 = EDGE_CURVE ( 'NONE', #32, #548, #615, .T. ) ;
#243 = CARTESIAN_POINT ( 'NONE',  ( 22.39999999999999858, 23.50000000000000000, 0.000000000000000000 ) ) ;
#244 = VERTEX_POINT ( 'NONE', #295 ) ;
#245 = CALENDAR_DATE ( 2026, 22, 6 ) ;
#246 = CARTESIAN_POINT ( 'NONE',  ( 2.000000000000000000, 23.50000000000000000, 0.000000000000000000 ) ) ;
#247 = ORIENTED_EDGE ( 'NONE', *, *, #171, .F. ) ;
#248 = COORDINATED_UNIVERSAL_TIME_OFFSET ( 10, 0, .AHEAD. ) ;
#249 = CARTESIAN_POINT ( 'NONE',  ( 23.50000000000000000, -6.661338147751000379E-16, 0.000000000000000000 ) ) ;
#250 = EDGE_CURVE ( 'NONE', #597, #9, #46, .T. ) ;
#251 = ORIENTED_EDGE ( 'NONE', *, *, #317, .T. ) ;
#252 = CARTESIAN_POINT ( 'NONE',  ( 0.000000000000000000, 2.000000000000000000, 1.558323020000000003 ) ) ;
#253 = DIRECTION ( 'NONE',  ( 1.000000000000000000, 0.000000000000000000, 0.000000000000000000 ) ) ;
#254 = CYLINDRICAL_SURFACE ( 'NONE', #494, 1.100000000000000311 ) ;
#255 = PLANE ( 'NONE',  #192 ) ;
#256 = ADVANCED_FACE ( 'NONE', ( #43 ), #558, .T. ) ;
#257 = CARTESIAN_POINT ( 'NONE',  ( 22.39999999999999858, 2.000000000000000000, 1.558323020000000003 ) ) ;
#258 = AXIS2_PLACEMENT_3D ( 'NONE', #204, #405, #614 ) ;
#259 = VECTOR ( 'NONE', #370, 1000.000000000000000 ) ;
#260 = CARTESIAN_POINT ( 'NONE',  ( 23.50000000000000000, 23.50000000000000000, 1.558323020000000003 ) ) ;
#261 = CARTESIAN_POINT ( 'NONE',  ( -4.440892119569999493E-16, 2.000000000000000000, 1.558323020000000003 ) ) ;
#262 = APPROVAL ( #81, 'Coincident' ) ;
#263 = CARTESIAN_POINT ( 'NONE',  ( 0.9000000000000000222, 23.50000000000000000, 1.558323020000000003 ) ) ;
#264 = DIRECTION ( 'NONE',  ( 0.000000000000000000, 0.000000000000000000, -1.000000000000000000 ) ) ;
#265 = PLANE ( 'NONE',  #562 ) ;
#266 = DIRECTION ( 'NONE',  ( 0.000000000000000000, 0.000000000000000000, -1.000000000000000000 ) ) ;
#267 = CIRCLE ( 'NONE', #220, 2.000729601581999972 ) ;
#268 = CARTESIAN_POINT ( 'NONE',  ( -4.440892098500999885E-16, 23.50000000000000000, 0.000000000000000000 ) ) ;
#269 = VECTOR ( 'NONE', #325, 1000.000000000000000 ) ;
#270 = CARTESIAN_POINT ( 'NONE',  ( -4.440892119569999493E-16, 2.000000000000000000, 0.000000000000000000 ) ) ;
#271 = FACE_BOUND ( 'NONE', #538, .T. ) ;
#272 = CC_DESIGN_DATE_AND_TIME_ASSIGNMENT ( #441, #79, ( #440 ) ) ;
#273 = CARTESIAN_POINT ( 'NONE',  ( 25.50000000000000000, 23.50000000000000000, 0.000000000000000000 ) ) ;
#274 = DIRECTION ( 'NONE',  ( 0.000000000000000000, -1.000000000000000000, 0.000000000000000000 ) ) ;
#275 = EDGE_CURVE ( 'NONE', #549, #433, #82, .T. ) ;
#276 = FACE_OUTER_BOUND ( 'NONE', #380, .T. ) ;
#277 = CIRCLE ( 'NONE', #550, 1.100000000000000311 ) ;
#278 = ORIENTED_EDGE ( 'NONE', *, *, #284, .T. ) ;
#279 = ORIENTED_EDGE ( 'NONE', *, *, #447, .F. ) ;
#280 = ORIENTED_EDGE ( 'NONE', *, *, #178, .T. ) ;
#281 = ORIENTED_EDGE ( 'NONE', *, *, #519, .T. ) ;
#282 = DATE_TIME_ROLE ( 'creation_date' ) ;
#283 = VERTEX_POINT ( 'NONE', #95 ) ;
#284 = EDGE_CURVE ( 'NONE', #244, #592, #277, .T. ) ;
#285 = VECTOR ( 'NONE', #297, 1000.000000000000000 ) ;
#286 = CALENDAR_DATE ( 2026, 22, 6 ) ;
#287 = AXIS2_PLACEMENT_3D ( 'NONE', #111, #662, #350 ) ;
#288 = PLANE ( 'NONE',  #23 ) ;
#289 = CIRCLE ( 'NONE', #1, 1.100000000000000311 ) ;
#290 = ORIENTED_EDGE ( 'NONE', *, *, #70, .F. ) ;
#291 = APPROVAL_ROLE ( '' ) ;
#292 = DIRECTION ( 'NONE',  ( -0.0003646012926771498644, -0.9999999335329465833, 0.000000000000000000 ) ) ;
#293 = ORIENTED_EDGE ( 'NONE', *, *, #305, .T. ) ;
#294 = PERSON_AND_ORGANIZATION_ROLE ( 'creator' ) ;
#295 = CARTESIAN_POINT ( 'NONE',  ( 24.60000000000000142, 23.50000000000000000, 0.000000000000000000 ) ) ;
#296 = EDGE_CURVE ( 'NONE', #409, #591, #301, .T. ) ;
#297 = DIRECTION ( 'NONE',  ( 0.000000000000000000, 0.000000000000000000, -1.000000000000000000 ) ) ;
#298 = APPROVAL_DATE_TIME ( #661, #165 ) ;
#299 = AXIS2_PLACEMENT_3D ( 'NONE', #224, #633, #172 ) ;
#300 = LINE ( 'NONE', #249, #311 ) ;
#301 = CIRCLE ( 'NONE', #416, 1.100000000000000311 ) ;
#302 = DIRECTION ( 'NONE',  ( 0.000000000000000000, 0.000000000000000000, 1.000000000000000000 ) ) ;
#303 = CARTESIAN_POINT ( 'NONE',  ( 23.49927053140099886, 2.000729468598999805, 0.000000000000000000 ) ) ;
#304 = EDGE_LOOP ( 'NONE', ( #190, #341 ) ) ;
#305 = EDGE_CURVE ( 'NONE', #588, #549, #342, .T. ) ;
#306 = DIRECTION ( 'NONE',  ( 0.000000000000000000, 0.000000000000000000, -1.000000000000000000 ) ) ;
#307 = ORIENTED_EDGE ( 'NONE', *, *, #284, .F. ) ;
#308 = APPROVAL ( #84, 'Coincident' ) ;
#309 = PRODUCT ( 'Open CASCADE STEP translator 7.5 1.1.1.step', 'Open CASCADE STEP translator 7.5 1.1.1.step', '', ( #348 ) ) ;
#310 = CARTESIAN_POINT ( 'NONE',  ( 2.000000000000000000, 2.000000000000000000, 1.558323020000000003 ) ) ;
#311 = VECTOR ( 'NONE', #31, 1000.000000000000000 ) ;
#312 = AXIS2_PLACEMENT_3D ( 'NONE', #379, #319, #481 ) ;
#313 = EDGE_LOOP ( 'NONE', ( #281, #17, #488, #124 ) ) ;
#314 = CARTESIAN_POINT ( 'NONE',  ( 23.50000000000000000, 2.000000000000000000, 0.000000000000000000 ) ) ;
#315 = CARTESIAN_POINT ( 'NONE',  ( 2.000000000000000000, 2.000000000000000000, 0.000000000000000000 ) ) ;
#316 = CARTESIAN_POINT ( 'NONE',  ( 2.000000000000000000, 25.50000000000000000, 0.000000000000000000 ) ) ;
#317 = EDGE_CURVE ( 'NONE', #363, #394, #459, .T. ) ;
#318 = DIRECTION ( 'NONE',  ( 0.000000000000000000, 0.000000000000000000, 1.000000000000000000 ) ) ;
#319 = DIRECTION ( 'NONE',  ( 0.000000000000000000, 0.000000000000000000, -1.000000000000000000 ) ) ;
#320 = CC_DESIGN_PERSON_AND_ORGANIZATION_ASSIGNMENT ( #38, #649, ( #440 ) ) ;
#321 = FACE_BOUND ( 'NONE', #498, .T. ) ;
#322 = VECTOR ( 'NONE', #466, 1000.000000000000000 ) ;
#323 = VERTEX_POINT ( 'NONE', #457 ) ;
#324 = LOCAL_TIME ( 18, 49, 53.00000000000000000, #42 ) ;
#325 = DIRECTION ( 'NONE',  ( -1.000000000000000000, 0.000000000000000000, 0.000000000000000000 ) ) ;
#326 = EDGE_CURVE ( 'NONE', #490, #592, #184, .T. ) ;
#327 =( NAMED_UNIT ( * ) PLANE_ANGLE_UNIT ( ) SI_UNIT ( $, .RADIAN. ) );
#328 = CARTESIAN_POINT ( 'NONE',  ( 12.75000000000000000, 12.75000000000000000, 0.000000000000000000 ) ) ;
#329 = DIRECTION ( 'NONE',  ( 0.000000000000000000, 0.000000000000000000, -1.000000000000000000 ) ) ;
#330 = CIRCLE ( 'NONE', #372, 1.100000000000000311 ) ;
#331 = ORIENTED_EDGE ( 'NONE', *, *, #76, .T. ) ;
#332 = VECTOR ( 'NONE', #641, 1000.000000000000000 ) ;
#333 = ORIENTED_EDGE ( 'NONE', *, *, #189, .F. ) ;
#334 = ORIENTED_EDGE ( 'NONE', *, *, #373, .T. ) ;
#335 = EDGE_LOOP ( 'NONE', ( #336, #37, #657, #123 ) ) ;
#336 = ORIENTED_EDGE ( 'NONE', *, *, #326, .F. ) ;
#337 = PERSON_AND_ORGANIZATION ( #18446744073709551615, #18446744073709551615 ) ;
#338 = FACE_OUTER_BOUND ( 'NONE', #541, .T. ) ;
#339 = APPLICATION_CONTEXT ( 'configuration controlled 3d designs of mechanical parts and assemblies' ) ;
#340 = VERTEX_POINT ( 'NONE', #131 ) ;
#341 = ORIENTED_EDGE ( 'NONE', *, *, #544, .F. ) ;
#342 = CIRCLE ( 'NONE', #375, 2.000729601581999084 ) ;
#343 = DIRECTION ( 'NONE',  ( 0.000000000000000000, 0.000000000000000000, -1.000000000000000000 ) ) ;
#344 = ORIENTED_EDGE ( 'NONE', *, *, #105, .F. ) ;
#345 = APPROVAL_DATE_TIME ( #403, #262 ) ;
#346 = DIRECTION ( 'NONE',  ( 0.000000000000000000, 0.000000000000000000, -1.000000000000000000 ) ) ;
#347 = CARTESIAN_POINT ( 'NONE',  ( 22.39999999999999858, 2.000000000000000000, 0.000000000000000000 ) ) ;
#348 = MECHANICAL_CONTEXT ( 'NONE', #210, 'mechanical' ) ;
#349 = EDGE_CURVE ( 'NONE', #487, #283, #455, .T. ) ;
#350 = DIRECTION ( 'NONE',  ( 1.000000000000000000, 0.000000000000000000, 0.000000000000000000 ) ) ;
#351 = ORIENTED_EDGE ( 'NONE', *, *, #202, .F. ) ;
#352 = CARTESIAN_POINT ( 'NONE',  ( 3.100000000000000533, 2.000000000000000000, 0.000000000000000000 ) ) ;
#353 = VECTOR ( 'NONE', #397, 1000.000000000000000 ) ;
#354 = LOCAL_TIME ( 18, 49, 53.00000000000000000, #610 ) ;
#355 = ORIENTED_EDGE ( 'NONE', *, *, #317, .F. ) ;
#356 = DIRECTION ( 'NONE',  ( 0.000000000000000000, 0.000000000000000000, -1.000000000000000000 ) ) ;
#357 = DIRECTION ( 'NONE',  ( 0.000000000000000000, 0.000000000000000000, 1.000000000000000000 ) ) ;
#358 = EDGE_LOOP ( 'NONE', ( #103, #566, #290, #537 ) ) ;
#359 = DIRECTION ( 'NONE',  ( 0.000000000000000000, 0.000000000000000000, -1.000000000000000000 ) ) ;
#360 = ORIENTED_EDGE ( 'NONE', *, *, #242, .F. ) ;
#361 = DIRECTION ( 'NONE',  ( 0.000000000000000000, 0.000000000000000000, 1.000000000000000000 ) ) ;
#362 = VECTOR ( 'NONE', #346, 1000.000000000000000 ) ;
#363 = VERTEX_POINT ( 'NONE', #604 ) ;
#364 = APPROVAL_PERSON_ORGANIZATION ( #495, #165, #456 ) ;
#365 = DIRECTION ( 'NONE',  ( 1.000000000000000000, 0.000000000000000000, 0.000000000000000000 ) ) ;
#366 = EDGE_CURVE ( 'NONE', #510, #409, #555, .T. ) ;
#367 = CARTESIAN_POINT ( 'NONE',  ( 2.000000000000000000, 2.000000000000000000, 0.000000000000000000 ) ) ;
#368 = FACE_BOUND ( 'NONE', #304, .T. ) ;
#369 = DIRECTION ( 'NONE',  ( 0.0003646012926745485923, 0.9999999335329465833, 0.000000000000000000 ) ) ;
#370 = DIRECTION ( 'NONE',  ( 0.000000000000000000, -1.000000000000000000, 0.000000000000000000 ) ) ;
#371 = CYLINDRICAL_SURFACE ( 'NONE', #312, 2.000729601581999084 ) ;
#372 = AXIS2_PLACEMENT_3D ( 'NONE', #16, #226, #169 ) ;
#373 = EDGE_CURVE ( 'NONE', #660, #548, #300, .T. ) ;
#374 = DIRECTION ( 'NONE',  ( 0.9999999335329465833, -0.0003646012926758491470, 0.000000000000000000 ) ) ;
#375 = AXIS2_PLACEMENT_3D ( 'NONE', #601, #401, #92 ) ;
#376 = DIRECTION ( 'NONE',  ( 0.000000000000000000, 0.000000000000000000, -1.000000000000000000 ) ) ;
#377 = CC_DESIGN_PERSON_AND_ORGANIZATION_ASSIGNMENT ( #201, #445, ( #501 ) ) ;
#378 = ORIENTED_EDGE ( 'NONE', *, *, #67, .T. ) ;
#379 = CARTESIAN_POINT ( 'NONE',  ( 2.000729468598999805, 2.000729468598999805, 0.000000000000000000 ) ) ;
#380 = EDGE_LOOP ( 'NONE', ( #489, #437, #643, #134 ) ) ;
#381 = DIRECTION ( 'NONE',  ( 1.000000000000000000, 0.000000000000000000, 0.000000000000000000 ) ) ;
#382 = VERTEX_POINT ( 'NONE', #451 ) ;
#383 = CIRCLE ( 'NONE', #258, 1.100000000000000311 ) ;
#384 = ORIENTED_EDGE ( 'NONE', *, *, #387, .T. ) ;
#385 = VECTOR ( 'NONE', #406, 1000.000000000000000 ) ;
#386 = DIRECTION ( 'NONE',  ( 0.000000000000000000, 0.000000000000000000, 1.000000000000000000 ) ) ;
#387 = EDGE_CURVE ( 'NONE', #323, #205, #646, .T. ) ;
#388 = ORIENTED_EDGE ( 'NONE', *, *, #509, .T. ) ;
#389 = EDGE_LOOP ( 'NONE', ( #30, #45, #251, #209 ) ) ;
#390 = DIRECTION ( 'NONE',  ( 0.000000000000000000, 0.000000000000000000, 1.000000000000000000 ) ) ;
#391 = VERTEX_POINT ( 'NONE', #203 ) ;
#392 = COORDINATED_UNIVERSAL_TIME_OFFSET ( 10, 0, .AHEAD. ) ;
#393 = DIRECTION ( 'NONE',  ( 0.000000000000000000, 0.000000000000000000, 1.000000000000000000 ) ) ;
#394 = VERTEX_POINT ( 'NONE', #564 ) ;
#395 = VECTOR ( 'NONE', #65, 1000.000000000000000 ) ;
#396 = CC_DESIGN_APPROVAL ( #165, ( #440 ) ) ;
#397 = DIRECTION ( 'NONE',  ( 0.000000000000000000, 0.000000000000000000, 1.000000000000000000 ) ) ;
#398 = CARTESIAN_POINT ( 'NONE',  ( 3.100000000000000533, 2.000000000000000000, 0.000000000000000000 ) ) ;
#399 = ADVANCED_FACE ( 'NONE', ( #239 ), #288, .T. ) ;
#400 = APPLICATION_PROTOCOL_DEFINITION ( 'international standard', 'config_control_design', 1994, #210 ) ;
#401 = DIRECTION ( 'NONE',  ( 0.000000000000000000, 0.000000000000000000, -1.000000000000000000 ) ) ;
#402 = LINE ( 'NONE', #57, #285 ) ;
#403 = DATE_AND_TIME ( #140, #584 ) ;
#404 = DIRECTION ( 'NONE',  ( -1.000000000000000000, 0.000000000000000000, 0.000000000000000000 ) ) ;
#405 = DIRECTION ( 'NONE',  ( 0.000000000000000000, 0.000000000000000000, 1.000000000000000000 ) ) ;
#406 = DIRECTION ( 'NONE',  ( 0.000000000000000000, 0.000000000000000000, 1.000000000000000000 ) ) ;
#407 = AXIS2_PLACEMENT_3D ( 'NONE', #168, #356, #369 ) ;
#408 = LINE ( 'NONE', #463, #475 ) ;
#409 = VERTEX_POINT ( 'NONE', #497 ) ;
#410 = FACE_OUTER_BOUND ( 'NONE', #80, .T. ) ;
#411 = EDGE_LOOP ( 'NONE', ( #78, #388, #553, #430 ) ) ;
#412 = ORIENTED_EDGE ( 'NONE', *, *, #387, .F. ) ;
#413 = FACE_OUTER_BOUND ( 'NONE', #358, .T. ) ;
#414 = DIRECTION ( 'NONE',  ( 0.000000000000000000, 0.000000000000000000, 1.000000000000000000 ) ) ;
#415 = PLANE ( 'NONE',  #427 ) ;
#416 = AXIS2_PLACEMENT_3D ( 'NONE', #136, #608, #505 ) ;
#417 =( GEOMETRIC_REPRESENTATION_CONTEXT ( 3 ) GLOBAL_UNCERTAINTY_ASSIGNED_CONTEXT ( ( #511 ) ) GLOBAL_UNIT_ASSIGNED_CONTEXT ( ( #634, #327, #225 ) ) REPRESENTATION_CONTEXT ( 'NONE', 'WORKASPACE' ) );
#418 = CARTESIAN_POINT ( 'NONE',  ( 23.50000000000000000, 0.000000000000000000, 0.000000000000000000 ) ) ;
#419 = DIRECTION ( 'NONE',  ( 1.000000000000000000, 0.000000000000000000, 0.000000000000000000 ) ) ;
#420 = CARTESIAN_POINT ( 'NONE',  ( 23.49927053140099886, 2.000729468598999805, 0.000000000000000000 ) ) ;
#421 = DIRECTION ( 'NONE',  ( -0.9999999335329465833, 0.0003646012926762828279, 0.000000000000000000 ) ) ;
#422 = EDGE_CURVE ( 'NONE', #531, #363, #605, .T. ) ;
#423 = DIRECTION ( 'NONE',  ( 0.000000000000000000, 0.000000000000000000, -1.000000000000000000 ) ) ;
#424 = CARTESIAN_POINT ( 'NONE',  ( 23.50000000000000000, 23.50000000000000000, 0.000000000000000000 ) ) ;
#425 = ADVANCED_FACE ( 'NONE', ( #338 ), #35, .F. ) ;
#426 = AXIS2_PLACEMENT_3D ( 'NONE', #315, #423, #365 ) ;
#427 = AXIS2_PLACEMENT_3D ( 'NONE', #574, #166, #106 ) ;
#428 = LINE ( 'NONE', #14, #259 ) ;
#429 = CARTESIAN_POINT ( 'NONE',  ( 23.49927053140099886, 23.49927053140099886, 0.000000000000000000 ) ) ;
#430 = ORIENTED_EDGE ( 'NONE', *, *, #572, .F. ) ;
#431 = LINE ( 'NONE', #479, #332 ) ;
#432 = ORIENTED_EDGE ( 'NONE', *, *, #242, .T. ) ;
#433 = VERTEX_POINT ( 'NONE', #60 ) ;
#434 = EDGE_CURVE ( 'NONE', #340, #391, #474, .T. ) ;
#435 = DIRECTION ( 'NONE',  ( 0.000000000000000000, 0.000000000000000000, 1.000000000000000000 ) ) ;
#436 = ORIENTED_EDGE ( 'NONE', *, *, #96, .F. ) ;
#437 = ORIENTED_EDGE ( 'NONE', *, *, #139, .T. ) ;
#438 = ORIENTED_EDGE ( 'NONE', *, *, #233, .F. ) ;
#439 = VECTOR ( 'NONE', #470, 1000.000000000000000 ) ;
#440 = SECURITY_CLASSIFICATION ( '', '', #143 ) ;
#441 = DATE_AND_TIME ( #286, #324 ) ;
#442 = CARTESIAN_POINT ( 'NONE',  ( 23.50000000000000000, 2.000000000000000000, 1.558323020000000003 ) ) ;
#443 = EDGE_LOOP ( 'NONE', ( #196, #29 ) ) ;
#444 = ORIENTED_EDGE ( 'NONE', *, *, #114, .F. ) ;
#445 = PERSON_AND_ORGANIZATION_ROLE ( 'creator' ) ;
#446 = DIRECTION ( 'NONE',  ( 0.000000000000000000, 0.000000000000000000, 1.000000000000000000 ) ) ;
#447 = EDGE_CURVE ( 'NONE', #391, #9, #231, .T. ) ;
#448 = ORIENTED_EDGE ( 'NONE', *, *, #126, .F. ) ;
#449 = ORIENTED_EDGE ( 'NONE', *, *, #629, .T. ) ;
#450 = APPROVAL_STATUS ( 'not_yet_approved' ) ;
#451 = CARTESIAN_POINT ( 'NONE',  ( 24.60000000000000142, 23.50000000000000000, 1.558323020000000003 ) ) ;
#452 = CC_DESIGN_PERSON_AND_ORGANIZATION_ASSIGNMENT ( #504, #491, ( #647 ) ) ;
#453 = VERTEX_POINT ( 'NONE', #2 ) ;
#454 = CIRCLE ( 'NONE', #150, 1.100000000000000311 ) ;
#455 = CIRCLE ( 'NONE', #658, 1.100000000000000311 ) ;
#456 = APPROVAL_ROLE ( '' ) ;
#457 = CARTESIAN_POINT ( 'NONE',  ( 2.000000000000000000, -2.220446049249999755E-16, 0.000000000000000000 ) ) ;
#458 = CARTESIAN_POINT ( 'NONE',  ( 23.49927053140099886, 23.49927053140099886, 0.000000000000000000 ) ) ;
#459 = LINE ( 'NONE', #611, #362 ) ;
#460 = LINE ( 'NONE', #268, #484 ) ;
#461 = ADVANCED_FACE ( 'NONE', ( #578 ), #254, .F. ) ;
#462 = DIRECTION ( 'NONE',  ( 1.000000000000000000, 0.000000000000000000, 0.000000000000000000 ) ) ;
#463 = CARTESIAN_POINT ( 'NONE',  ( 25.50000000000000000, 2.000000000000000000, 0.000000000000000000 ) ) ;
#464 = PRODUCT_DEFINITION_SHAPE ( 'NONE', 'NONE',  #501 ) ;
#465 = ORIENTED_EDGE ( 'NONE', *, *, #532, .T. ) ;
#466 = DIRECTION ( 'NONE',  ( 0.000000000000000000, 0.000000000000000000, 1.000000000000000000 ) ) ;
#467 = AXIS2_PLACEMENT_3D ( 'NONE', #154, #306, #51 ) ;
#468 = APPROVAL_PERSON_ORGANIZATION ( #554, #308, #291 ) ;
#469 = LINE ( 'NONE', #398, #135 ) ;
#470 = DIRECTION ( 'NONE',  ( 0.000000000000000000, 0.000000000000000000, -1.000000000000000000 ) ) ;
#471 = LINE ( 'NONE', #618, #230 ) ;
#472 = LINE ( 'NONE', #316, #322 ) ;
#473 = FACE_OUTER_BOUND ( 'NONE', #411, .T. ) ;
#474 = LINE ( 'NONE', #101, #476 ) ;
#475 = VECTOR ( 'NONE', #669, 1000.000000000000000 ) ;
#476 = VECTOR ( 'NONE', #13, 1000.000000000000000 ) ;
#477 = DIRECTION ( 'NONE',  ( 0.000000000000000000, 0.000000000000000000, -1.000000000000000000 ) ) ;
#478 = VERTEX_POINT ( 'NONE', #522 ) ;
#479 = CARTESIAN_POINT ( 'NONE',  ( 2.000000000000000000, 25.50000000000000000, 0.000000000000000000 ) ) ;
#480 = DIRECTION ( 'NONE',  ( 0.000000000000000000, -1.000000000000000000, 0.000000000000000000 ) ) ;
#481 = DIRECTION ( 'NONE',  ( -0.0003646012926771498644, -0.9999999335329465833, 0.000000000000000000 ) ) ;
#482 = CARTESIAN_POINT ( 'NONE',  ( 0.9000000000000000222, 23.50000000000000000, 0.000000000000000000 ) ) ;
#483 = CYLINDRICAL_SURFACE ( 'NONE', #63, 1.100000000000000311 ) ;
#484 = VECTOR ( 'NONE', #318, 1000.000000000000000 ) ;
#485 = CIRCLE ( 'NONE', #194, 2.000729601581999084 ) ;
#486 = CYLINDRICAL_SURFACE ( 'NONE', #287, 1.100000000000000311 ) ;
#487 = VERTEX_POINT ( 'NONE', #516 ) ;
#488 = ORIENTED_EDGE ( 'NONE', *, *, #434, .F. ) ;
#489 = ORIENTED_EDGE ( 'NONE', *, *, #228, .F. ) ;
#490 = VERTEX_POINT ( 'NONE', #567 ) ;
#491 = PERSON_AND_ORGANIZATION_ROLE ( 'design_supplier' ) ;
#492 = EDGE_LOOP ( 'NONE', ( #384, #606, #599, #112, #186, #280, #523, #188 ) ) ;
#493 = ORIENTED_EDGE ( 'NONE', *, *, #70, .T. ) ;
#494 = AXIS2_PLACEMENT_3D ( 'NONE', #314, #264, #462 ) ;
#495 = PERSON_AND_ORGANIZATION ( #18446744073709551615, #18446744073709551615 ) ;
#496 = ADVANCED_FACE ( 'NONE', ( #627 ), #668, .T. ) ;
#497 = CARTESIAN_POINT ( 'NONE',  ( 3.100000000000000533, 23.50000000000000000, 0.000000000000000000 ) ) ;
#498 = EDGE_LOOP ( 'NONE', ( #448, #183 ) ) ;
#499 = EDGE_LOOP ( 'NONE', ( #465, #293, #129, #412 ) ) ;
#500 = CALENDAR_DATE ( 2026, 22, 6 ) ;
#501 = PRODUCT_DEFINITION ( 'General', '', #647, #5 ) ;
#502 = DIRECTION ( 'NONE',  ( 1.000000000000000000, 0.000000000000000000, 0.000000000000000000 ) ) ;
#503 = EDGE_LOOP ( 'NONE', ( #378, #622 ) ) ;
#504 = PERSON_AND_ORGANIZATION ( #18446744073709551615, #18446744073709551615 ) ;
#505 = DIRECTION ( 'NONE',  ( 1.000000000000000000, 0.000000000000000000, 0.000000000000000000 ) ) ;
#506 = DIRECTION ( 'NONE',  ( 0.000000000000000000, 1.000000000000000000, 0.000000000000000000 ) ) ;
#507 = AXIS2_PLACEMENT_3D ( 'NONE', #644, #386, #527 ) ;
#508 = DIRECTION ( 'NONE',  ( 0.9999999335329465833, -0.0003646012926758491470, 0.000000000000000000 ) ) ;
#509 = EDGE_CURVE ( 'NONE', #433, #556, #485, .T. ) ;
#510 = VERTEX_POINT ( 'NONE', #619 ) ;
#511 = UNCERTAINTY_MEASURE_WITH_UNIT (LENGTH_MEASURE( 1.000000000000000082E-05 ), #634, 'distance_accuracy_value', 'NONE');
#512 = ORIENTED_EDGE ( 'NONE', *, *, #349, .T. ) ;
#513 = DIRECTION ( 'NONE',  ( 0.000000000000000000, 0.000000000000000000, 1.000000000000000000 ) ) ;
#514 = ORIENTED_EDGE ( 'NONE', *, *, #85, .F. ) ;
#515 = EDGE_CURVE ( 'NONE', #363, #531, #55, .T. ) ;
#516 = CARTESIAN_POINT ( 'NONE',  ( 3.100000000000000533, 2.000000000000000000, 1.558323020000000003 ) ) ;
#517 = VERTEX_POINT ( 'NONE', #161 ) ;
#518 = AXIS2_PLACEMENT_3D ( 'NONE', #552, #148, #292 ) ;
#519 = EDGE_CURVE ( 'NONE', #478, #556, #472, .T. ) ;
#520 = DIRECTION ( 'NONE',  ( 1.000000000000000000, 0.000000000000000000, 0.000000000000000000 ) ) ;
#521 = ORIENTED_EDGE ( 'NONE', *, *, #233, .T. ) ;
#522 = CARTESIAN_POINT ( 'NONE',  ( 2.000000000000000000, 25.50000000000000000, 0.000000000000000000 ) ) ;
#523 = ORIENTED_EDGE ( 'NONE', *, *, #189, .T. ) ;
#524 = CARTESIAN_POINT ( 'NONE',  ( 2.000729468598999805, 23.49927053140099886, 0.000000000000000000 ) ) ;
#525 = CARTESIAN_POINT ( 'NONE',  ( 2.000729468598999805, 23.49927053140099886, 1.558323020000000003 ) ) ;
#526 = DIRECTION ( 'NONE',  ( 0.000000000000000000, 0.000000000000000000, -1.000000000000000000 ) ) ;
#527 = DIRECTION ( 'NONE',  ( 1.000000000000000000, 0.000000000000000000, 0.000000000000000000 ) ) ;
#528 = FACE_BOUND ( 'NONE', #36, .T. ) ;
#529 = DIRECTION ( 'NONE',  ( 1.000000000000000000, 0.000000000000000000, 0.000000000000000000 ) ) ;
#530 = PLANE ( 'NONE',  #670 ) ;
#531 = VERTEX_POINT ( 'NONE', #257 ) ;
#532 = EDGE_CURVE ( 'NONE', #323, #588, #48, .T. ) ;
#533 = FACE_OUTER_BOUND ( 'NONE', #47, .T. ) ;
#534 = DIRECTION ( 'NONE',  ( 0.000000000000000000, 0.000000000000000000, -1.000000000000000000 ) ) ;
#535 = ADVANCED_FACE ( 'NONE', ( #410 ), #616, .F. ) ;
#536 = CIRCLE ( 'NONE', #238, 2.000729601581999972 ) ;
#537 = ORIENTED_EDGE ( 'NONE', *, *, #178, .F. ) ;
#538 = EDGE_LOOP ( 'NONE', ( #600, #449 ) ) ;
#539 = CARTESIAN_POINT ( 'NONE',  ( 22.39999999999999858, 23.50000000000000000, 0.000000000000000000 ) ) ;
#540 = ADVANCED_FACE ( 'NONE', ( #58 ), #157, .F. ) ;
#541 = EDGE_LOOP ( 'NONE', ( #543, #83, #589, #152 ) ) ;
#542 = PERSON_AND_ORGANIZATION_ROLE ( 'design_owner' ) ;
#543 = ORIENTED_EDGE ( 'NONE', *, *, #126, .T. ) ;
#544 = EDGE_CURVE ( 'NONE', #283, #487, #180, .T. ) ;
#545 = EDGE_LOOP ( 'NONE', ( #654, #132, #28, #75 ) ) ;
#546 = APPROVAL_DATE_TIME ( #557, #308 ) ;
#547 = DIRECTION ( 'NONE',  ( 0.000000000000000000, 0.000000000000000000, -1.000000000000000000 ) ) ;
#548 = VERTEX_POINT ( 'NONE', #56 ) ;
#549 = VERTEX_POINT ( 'NONE', #261 ) ;
#550 = AXIS2_PLACEMENT_3D ( 'NONE', #89, #446, #198 ) ;
#551 = EDGE_CURVE ( 'NONE', #382, #244, #576, .T. ) ;
#552 = CARTESIAN_POINT ( 'NONE',  ( 2.000729468598999805, 2.000729468598999805, 0.000000000000000000 ) ) ;
#553 = ORIENTED_EDGE ( 'NONE', *, *, #519, .F. ) ;
#554 = PERSON_AND_ORGANIZATION ( #18446744073709551615, #18446744073709551615 ) ;
#555 = LINE ( 'NONE', #145, #12 ) ;
#556 = VERTEX_POINT ( 'NONE', #217 ) ;
#557 = DATE_AND_TIME ( #245, #563 ) ;
#558 = CYLINDRICAL_SURFACE ( 'NONE', #573, 2.000729601581999972 ) ;
#559 = ADVANCED_FACE ( 'NONE', ( #413 ), #415, .T. ) ;
#560 = FACE_OUTER_BOUND ( 'NONE', #128, .T. ) ;
#561 = VECTOR ( 'NONE', #199, 1000.000000000000000 ) ;
#562 = AXIS2_PLACEMENT_3D ( 'NONE', #577, #115, #274 ) ;
#563 = LOCAL_TIME ( 18, 49, 53.00000000000000000, #392 ) ;
#564 = CARTESIAN_POINT ( 'NONE',  ( 24.60000000000000142, 2.000000000000000000, 0.000000000000000000 ) ) ;
#565 = ORIENTED_EDGE ( 'NONE', *, *, #551, .F. ) ;
#566 = ORIENTED_EDGE ( 'NONE', *, *, #149, .T. ) ;
#567 = CARTESIAN_POINT ( 'NONE',  ( 22.39999999999999858, 23.50000000000000000, 1.558323020000000003 ) ) ;
#568 = EDGE_LOOP ( 'NONE', ( #596, #664 ) ) ;
#569 = EDGE_CURVE ( 'NONE', #648, #240, #74, .T. ) ;
#570 = DIRECTION ( 'NONE',  ( 1.000000000000000000, 0.000000000000000000, 0.000000000000000000 ) ) ;
#571 = DIRECTION ( 'NONE',  ( 1.000000000000000000, 0.000000000000000000, 0.000000000000000000 ) ) ;
#572 = EDGE_CURVE ( 'NONE', #517, #478, #164, .T. ) ;
#573 = AXIS2_PLACEMENT_3D ( 'NONE', #303, #547, #508 ) ;
#574 = CARTESIAN_POINT ( 'NONE',  ( 25.50000000000000000, 23.50000000000000000, 0.000000000000000000 ) ) ;
#575 = DIRECTION ( 'NONE',  ( 1.000000000000000000, 0.000000000000000000, 0.000000000000000000 ) ) ;
#576 = LINE ( 'NONE', #219, #439 ) ;
#577 = CARTESIAN_POINT ( 'NONE',  ( 12.75000000000000000, 12.75000000000000000, 1.558323020000000003 ) ) ;
#578 = FACE_OUTER_BOUND ( 'NONE', #640, .T. ) ;
#579 = EDGE_CURVE ( 'NONE', #478, #340, #431, .T. ) ;
#580 = CYLINDRICAL_SURFACE ( 'NONE', #426, 1.100000000000000311 ) ;
#581 = DIRECTION ( 'NONE',  ( 1.000000000000000000, 0.000000000000000000, 0.000000000000000000 ) ) ;
#582 = CIRCLE ( 'NONE', #73, 1.100000000000000311 ) ;
#583 = AXIS2_PLACEMENT_3D ( 'NONE', #590, #329, #421 ) ;
#584 = LOCAL_TIME ( 18, 49, 53.00000000000000000, #665 ) ;
#585 = CARTESIAN_POINT ( 'NONE',  ( 25.50000000000000000, 23.50000000000000000, 0.000000000000000000 ) ) ;
#586 = CYLINDRICAL_SURFACE ( 'NONE', #181, 2.000729601581999972 ) ;
#587 = CARTESIAN_POINT ( 'NONE',  ( 23.50000000000000000, 0.000000000000000000, 1.558323020000000003 ) ) ;
#588 = VERTEX_POINT ( 'NONE', #175 ) ;
#589 = ORIENTED_EDGE ( 'NONE', *, *, #296, .F. ) ;
#590 = CARTESIAN_POINT ( 'NONE',  ( 2.000729468598999805, 23.49927053140099886, 0.000000000000000000 ) ) ;
#591 = VERTEX_POINT ( 'NONE', #170 ) ;
#592 = VERTEX_POINT ( 'NONE', #539 ) ;
#593 = FACE_OUTER_BOUND ( 'NONE', #545, .T. ) ;
#594 = CIRCLE ( 'NONE', #299, 1.100000000000000311 ) ;
#595 = AXIS2_PLACEMENT_3D ( 'NONE', #223, #623, #419 ) ;
#596 = ORIENTED_EDGE ( 'NONE', *, *, #296, .T. ) ;
#597 = VERTEX_POINT ( 'NONE', #273 ) ;
#598 = FACE_OUTER_BOUND ( 'NONE', #216, .T. ) ;
#599 = ORIENTED_EDGE ( 'NONE', *, *, #572, .T. ) ;
#600 = ORIENTED_EDGE ( 'NONE', *, *, #171, .T. ) ;
#601 = CARTESIAN_POINT ( 'NONE',  ( 2.000729468598999805, 2.000729468598999805, 1.558323020000000003 ) ) ;
#602 = ADVANCED_FACE ( 'NONE', ( #598 ), #483, .F. ) ;
#603 = ORIENTED_EDGE ( 'NONE', *, *, #650, .T. ) ;
#604 = CARTESIAN_POINT ( 'NONE',  ( 24.60000000000000142, 2.000000000000000000, 1.558323020000000003 ) ) ;
#605 = CIRCLE ( 'NONE', #54, 1.100000000000000311 ) ;
#606 = ORIENTED_EDGE ( 'NONE', *, *, #85, .T. ) ;
#607 = LOCAL_TIME ( 18, 49, 53.00000000000000000, #248 ) ;
#608 = DIRECTION ( 'NONE',  ( 0.000000000000000000, 0.000000000000000000, 1.000000000000000000 ) ) ;
#609 = DIRECTION ( 'NONE',  ( 0.000000000000000000, 0.000000000000000000, -1.000000000000000000 ) ) ;
#610 = COORDINATED_UNIVERSAL_TIME_OFFSET ( 10, 0, .AHEAD. ) ;
#611 = CARTESIAN_POINT ( 'NONE',  ( 24.60000000000000142, 2.000000000000000000, 0.000000000000000000 ) ) ;
#612 = DIRECTION ( 'NONE',  ( 0.000000000000000000, 0.000000000000000000, -1.000000000000000000 ) ) ;
#613 = DIRECTION ( 'NONE',  ( 0.9999999335329465833, -0.0003646012926758491470, 0.000000000000000000 ) ) ;
#614 = DIRECTION ( 'NONE',  ( 1.000000000000000000, 0.000000000000000000, 0.000000000000000000 ) ) ;
#615 = CIRCLE ( 'NONE', #635, 2.000729601581999972 ) ;
#616 = CYLINDRICAL_SURFACE ( 'NONE', #467, 1.100000000000000311 ) ;
#617 = EDGE_CURVE ( 'NONE', #591, #409, #151, .T. ) ;
#618 = CARTESIAN_POINT ( 'NONE',  ( 0.000000000000000000, 2.000000000000000000, 0.000000000000000000 ) ) ;
#619 = CARTESIAN_POINT ( 'NONE',  ( 3.100000000000000533, 23.50000000000000000, 1.558323020000000003 ) ) ;
#620 = ADVANCED_FACE ( 'NONE', ( #593 ), #586, .T. ) ;
#621 = DIRECTION ( 'NONE',  ( 0.000000000000000000, 0.000000000000000000, -1.000000000000000000 ) ) ;
#622 = ORIENTED_EDGE ( 'NONE', *, *, #569, .T. ) ;
#623 = DIRECTION ( 'NONE',  ( -0.000000000000000000, 1.000000000000000000, 0.000000000000000000 ) ) ;
#624 = FACE_OUTER_BOUND ( 'NONE', #127, .T. ) ;
#625 = CLOSED_SHELL ( 'NONE', ( #535, #425, #461, #602, #185, #120, #659, #540, #234, #159, #19, #256, #559, #620, #496, #133, #399, #637 ) ) ;
#626 = AXIS2_PLACEMENT_3D ( 'NONE', #8, #359, #570 ) ;
#627 = FACE_OUTER_BOUND ( 'NONE', #313, .T. ) ;
#628 = LINE ( 'NONE', #69, #395 ) ;
#629 = EDGE_CURVE ( 'NONE', #655, #394, #289, .T. ) ;
#630 = DIRECTION ( 'NONE',  ( 1.000000000000000000, 0.000000000000000000, 0.000000000000000000 ) ) ;
#631 = CARTESIAN_POINT ( 'NONE',  ( -4.440892119569999493E-16, 2.000000000000000000, 0.000000000000000000 ) ) ;
#632 = DIRECTION ( 'NONE',  ( 1.000000000000000000, 0.000000000000000000, 0.000000000000000000 ) ) ;
#633 = DIRECTION ( 'NONE',  ( 0.000000000000000000, 0.000000000000000000, 1.000000000000000000 ) ) ;
#634 =( LENGTH_UNIT ( ) NAMED_UNIT ( * ) SI_UNIT ( .MILLI., .METRE. ) );
#635 = AXIS2_PLACEMENT_3D ( 'NONE', #653, #193, #613 ) ;
#636 = CC_DESIGN_APPROVAL ( #308, ( #501 ) ) ;
#637 = ADVANCED_FACE ( 'NONE', ( #236 ), #371, .T. ) ;
#638 = DIRECTION ( 'NONE',  ( 0.000000000000000000, 0.000000000000000000, -1.000000000000000000 ) ) ;
#639 = DIRECTION ( 'NONE',  ( 1.000000000000000000, 0.000000000000000000, 0.000000000000000000 ) ) ;
#640 = EDGE_LOOP ( 'NONE', ( #642, #33, #247, #355 ) ) ;
#641 = DIRECTION ( 'NONE',  ( 1.000000000000000000, 0.000000000000000000, 0.000000000000000000 ) ) ;
#642 = ORIENTED_EDGE ( 'NONE', *, *, #515, .T. ) ;
#643 = ORIENTED_EDGE ( 'NONE', *, *, #366, .T. ) ;
#644 = CARTESIAN_POINT ( 'NONE',  ( 0.000000000000000000, 0.000000000000000000, 0.000000000000000000 ) ) ;
#645 = CIRCLE ( 'NONE', #102, 1.100000000000000311 ) ;
#646 = CIRCLE ( 'NONE', #518, 2.000729601581999084 ) ;
#647 = PRODUCT_DEFINITION_FORMATION_WITH_SPECIFIED_SOURCE ( 'Symmetric', '', #309, .NOT_KNOWN. ) ;
#648 = VERTEX_POINT ( 'NONE', #117 ) ;
#649 = PERSON_AND_ORGANIZATION_ROLE ( 'classification_officer' ) ;
#650 = EDGE_CURVE ( 'NONE', #205, #549, #232, .T. ) ;
#651 = CARTESIAN_POINT ( 'NONE',  ( 0.000000000000000000, 2.000000000000000000, 0.000000000000000000 ) ) ;
#652 = ORIENTED_EDGE ( 'NONE', *, *, #50, .T. ) ;
#653 = CARTESIAN_POINT ( 'NONE',  ( 23.49927053140099886, 2.000729468598999805, 1.558323020000000003 ) ) ;
#654 = ORIENTED_EDGE ( 'NONE', *, *, #434, .T. ) ;
#655 = VERTEX_POINT ( 'NONE', #173 ) ;
#656 = DIRECTION ( 'NONE',  ( 0.000000000000000000, 1.000000000000000000, 0.000000000000000000 ) ) ;
#657 = ORIENTED_EDGE ( 'NONE', *, *, #551, .T. ) ;
#658 = AXIS2_PLACEMENT_3D ( 'NONE', #187, #393, #39 ) ;
#659 = ADVANCED_FACE ( 'NONE', ( #71 ), #176, .F. ) ;
#660 = VERTEX_POINT ( 'NONE', #227 ) ;
#661 = DATE_AND_TIME ( #88, #354 ) ;
#662 = DIRECTION ( 'NONE',  ( 0.000000000000000000, 0.000000000000000000, -1.000000000000000000 ) ) ;
#663 = CARTESIAN_POINT ( 'NONE',  ( 25.50000000000000000, 2.000000000000000000, 1.558323020000000003 ) ) ;
#664 = ORIENTED_EDGE ( 'NONE', *, *, #617, .T. ) ;
#665 = COORDINATED_UNIVERSAL_TIME_OFFSET ( 10, 0, .AHEAD. ) ;
#666 = DIRECTION ( 'NONE',  ( 0.000000000000000000, 0.000000000000000000, -1.000000000000000000 ) ) ;
#667 = CARTESIAN_POINT ( 'NONE',  ( 25.50000000000000000, 23.50000000000000000, 1.558323020000000003 ) ) ;
#668 = PLANE ( 'NONE',  #595 ) ;
#669 = DIRECTION ( 'NONE',  ( 0.000000000000000000, 0.000000000000000000, 1.000000000000000000 ) ) ;
#670 = AXIS2_PLACEMENT_3D ( 'NONE', #328, #526, #480 ) ;
#671 = VECTOR ( 'NONE', #656, 1000.000000000000000 ) ;
ENDSEC;
END-ISO-10303-21;
