ISO-10303-21;
HEADER;
FILE_DESCRIPTION (( 'STEP AP203' ),
    '1' );
FILE_NAME ('ORING-019-BUNA-70A_ORING-019-BUNA-70A.STEP.STEP',
    '2026-06-22T08:50:30',
    ( 'localuser' ),
    ( '' ),
    'SwSTEP 2.0',
    'SolidWorks 2025',
    '' );
FILE_SCHEMA (( 'CONFIG_CONTROL_DESIGN' ));
ENDSEC;

DATA;
#1 = CARTESIAN_POINT ( 'NONE',  ( 0.000000000000000000, 0.000000000000000000, 0.000000000000000000 ) ) ;
#2 = DIRECTION ( 'NONE',  ( 4.148422285331020046E-28, 2.028851640615300107E-29, 1.000000000000000000 ) ) ;
#3 = PRODUCT_DEFINITION_FORMATION_WITH_SPECIFIED_SOURCE ( 'Symmetric', '', #24, .NOT_KNOWN. ) ;
#4 = ORIENTED_EDGE ( 'NONE', *, *, #11, .F. ) ;
#5 = DATE_AND_TIME ( #72, #14 ) ;
#6 = PERSON_AND_ORGANIZATION ( #18446744073709551615, #18446744073709551615 ) ;
#7 = CIRCLE ( 'NONE', #81, 10.17269999999999897 ) ;
#8 = EDGE_LOOP ( 'NONE', ( #31, #130, #86, #62 ) ) ;
#9 = DATE_AND_TIME ( #177, #91 ) ;
#10 = DIRECTION ( 'NONE',  ( 4.148422285331020046E-28, 2.028851640615300107E-29, 1.000000000000000000 ) ) ;
#11 = EDGE_CURVE ( 'NONE', #181, #71, #100, .T. ) ;
#12 = ORIENTED_EDGE ( 'NONE', *, *, #137, .T. ) ;
#13 = AXIS2_PLACEMENT_3D ( 'NONE', #115, #44, #173 ) ;
#14 = LOCAL_TIME ( 18, 50, 30.00000000000000000, #87 ) ;
#15 = APPROVAL_STATUS ( 'not_yet_approved' ) ;
#16 = FACE_OUTER_BOUND ( 'NONE', #37, .T. ) ;
#17 = PERSON_AND_ORGANIZATION_ROLE ( 'design_owner' ) ;
#18 = VERTEX_POINT ( 'NONE', #133 ) ;
#19 = PERSON_AND_ORGANIZATION ( #18446744073709551615, #18446744073709551615 ) ;
#20 = DATE_TIME_ROLE ( 'classification_date' ) ;
#21 = CALENDAR_DATE ( 2026, 22, 6 ) ;
#22 = COORDINATED_UNIVERSAL_TIME_OFFSET ( 10, 0, .AHEAD. ) ;
#23 = CC_DESIGN_DATE_AND_TIME_ASSIGNMENT ( #5, #20, ( #52 ) ) ;
#24 = PRODUCT ( 'ORING-019-BUNA-70A_ORING-019-BUNA-70A.STEP', 'ORING-019-BUNA-70A_ORING-019-BUNA-70A.STEP', '', ( #174 ) ) ;
#25 = AXIS2_PLACEMENT_3D ( 'NONE', #56, #159, #80 ) ;
#26 = EDGE_CURVE ( 'NONE', #18, #71, #39, .T. ) ;
#27 = CARTESIAN_POINT ( 'NONE',  ( -11.06170000000000009, 7.406198482380049363E-16, -5.007715127778179391E-27 ) ) ;
#28 = FACE_OUTER_BOUND ( 'NONE', #120, .T. ) ;
#29 = CC_DESIGN_SECURITY_CLASSIFICATION ( #52, ( #3 ) ) ;
#30 = CC_DESIGN_PERSON_AND_ORGANIZATION_ASSIGNMENT ( #84, #17, ( #24 ) ) ;
#31 = ORIENTED_EDGE ( 'NONE', *, *, #137, .F. ) ;
#32 = PERSON_AND_ORGANIZATION_ROLE ( 'design_supplier' ) ;
#33 = AXIS2_PLACEMENT_3D ( 'NONE', #96, #2, #171 ) ;
#34 = COORDINATED_UNIVERSAL_TIME_OFFSET ( 10, 0, .AHEAD. ) ;
#35 = CIRCLE ( 'NONE', #121, 10.17269999999999897 ) ;
#36 = VERTEX_POINT ( 'NONE', #107 ) ;
#37 = EDGE_LOOP ( 'NONE', ( #75, #104, #179, #128 ) ) ;
#38 = CARTESIAN_POINT ( 'NONE',  ( 11.95069999999999943, 6.633971150193949527E-16, -4.957655020530520010E-27 ) ) ;
#39 = CIRCLE ( 'NONE', #140, 0.8890000000000009006 ) ;
#40 = TOROIDAL_SURFACE ( 'NONE', #112, 11.06170000000000009, 0.8890000000000000124 ) ;
#41 = DIRECTION ( 'NONE',  ( 1.000000000000000000, 0.000000000000000000, 0.000000000000000000 ) ) ;
#42 = DIRECTION ( 'NONE',  ( -1.000000000000000000, 6.695352868347633506E-17, 0.000000000000000000 ) ) ;
#43 = CC_DESIGN_DATE_AND_TIME_ASSIGNMENT ( #48, #176, ( #49 ) ) ;
#44 = DIRECTION ( 'NONE',  ( 4.148422285331020046E-28, 2.028851640615300107E-29, 1.000000000000000000 ) ) ;
#45 = DIRECTION ( 'NONE',  ( 6.695352868347639669E-17, 1.000000000000000000, -2.028851640615305151E-29 ) ) ;
#46 = APPROVAL_DATE_TIME ( #9, #168 ) ;
#47 = APPROVAL_PERSON_ORGANIZATION ( #118, #168, #60 ) ;
#48 = DATE_AND_TIME ( #21, #175 ) ;
#49 = PRODUCT_DEFINITION ( 'General', '', #3, #172 ) ;
#50 = ORIENTED_EDGE ( 'NONE', *, *, #26, .T. ) ;
#51 = ORIENTED_EDGE ( 'NONE', *, *, #122, .F. ) ;
#52 = SECURITY_CLASSIFICATION ( '', '', #149 ) ;
#53 = DIRECTION ( 'NONE',  ( 1.000000000000000000, 5.551115123125825843E-17, 0.000000000000000000 ) ) ;
#54 = DIRECTION ( 'NONE',  ( 1.000000000000000000, 5.551115123125819680E-17, -4.148422285331020046E-28 ) ) ;
#55 = AXIS2_PLACEMENT_3D ( 'NONE', #1, #113, #41 ) ;
#56 = CARTESIAN_POINT ( 'NONE',  ( 0.000000000000000000, 0.000000000000000000, 0.000000000000000000 ) ) ;
#57 = DIRECTION ( 'NONE',  ( 1.000000000000000000, 5.551115123125819680E-17, -4.148422285331020046E-28 ) ) ;
#58 = CIRCLE ( 'NONE', #161, 0.8890000000000009006 ) ;
#59 = PRODUCT_RELATED_PRODUCT_CATEGORY ( 'detail', '', ( #24 ) ) ;
#60 = APPROVAL_ROLE ( '' ) ;
#61 = SHAPE_DEFINITION_REPRESENTATION ( #183, #94 ) ;
#62 = ORIENTED_EDGE ( 'NONE', *, *, #105, .F. ) ;
#63 = CARTESIAN_POINT ( 'NONE',  ( 0.000000000000000000, 0.000000000000000000, 0.000000000000000000 ) ) ;
#64 = DIRECTION ( 'NONE',  ( 1.000000000000000000, 0.000000000000000000, -4.148430229945841782E-28 ) ) ;
#65 =( LENGTH_UNIT ( ) NAMED_UNIT ( * ) SI_UNIT ( .MILLI., .METRE. ) );
#66 = DIRECTION ( 'NONE',  ( 4.148422285331020046E-28, 2.028851640615300107E-29, 1.000000000000000000 ) ) ;
#67 = DIRECTION ( 'NONE',  ( 4.148430229945839988E-28, 2.028851640615300107E-29, 1.000000000000000000 ) ) ;
#68 = CC_DESIGN_PERSON_AND_ORGANIZATION_ASSIGNMENT ( #89, #166, ( #52 ) ) ;
#69 = AXIS2_PLACEMENT_3D ( 'NONE', #82, #111, #57 ) ;
#70 = COORDINATED_UNIVERSAL_TIME_OFFSET ( 10, 0, .AHEAD. ) ;
#71 = VERTEX_POINT ( 'NONE', #38 ) ;
#72 = CALENDAR_DATE ( 2026, 22, 6 ) ;
#73 = PERSON_AND_ORGANIZATION ( #18446744073709551615, #18446744073709551615 ) ;
#74 = APPROVAL_DATE_TIME ( #102, #189 ) ;
#75 = ORIENTED_EDGE ( 'NONE', *, *, #158, .F. ) ;
#76 = DIRECTION ( 'NONE',  ( 4.148430229945839988E-28, 2.028851640615300107E-29, 1.000000000000000000 ) ) ;
#77 = EDGE_CURVE ( 'NONE', #36, #18, #35, .T. ) ;
#78 = ADVANCED_FACE ( 'NONE', ( #16 ), #170, .T. ) ;
#79 = CIRCLE ( 'NONE', #131, 0.8890000000000009006 ) ;
#80 = DIRECTION ( 'NONE',  ( 1.000000000000000000, 0.000000000000000000, -4.148422285331020046E-28 ) ) ;
#81 = AXIS2_PLACEMENT_3D ( 'NONE', #155, #67, #64 ) ;
#82 = CARTESIAN_POINT ( 'NONE',  ( 0.000000000000000000, 0.000000000000000000, 0.000000000000000000 ) ) ;
#83 = ADVANCED_FACE ( 'NONE', ( #28 ), #136, .T. ) ;
#84 = PERSON_AND_ORGANIZATION ( #18446744073709551615, #18446744073709551615 ) ;
#85 = CARTESIAN_POINT ( 'NONE',  ( -11.95069999999999943, 8.001415352376179614E-16, 4.957655020530520010E-27 ) ) ;
#86 = ORIENTED_EDGE ( 'NONE', *, *, #134, .T. ) ;
#87 = COORDINATED_UNIVERSAL_TIME_OFFSET ( 10, 0, .AHEAD. ) ;
#88 = PERSON_AND_ORGANIZATION_ROLE ( 'creator' ) ;
#89 = PERSON_AND_ORGANIZATION ( #18446744073709551615, #18446744073709551615 ) ;
#90 = CLOSED_SHELL ( 'NONE', ( #83, #78, #127, #145 ) ) ;
#91 = LOCAL_TIME ( 18, 50, 30.00000000000000000, #119 ) ;
#92 = ORIENTED_EDGE ( 'NONE', *, *, #11, .T. ) ;
#93 = CARTESIAN_POINT ( 'NONE',  ( -4.516432993112260509E-44, -2.208833107518059797E-45, -1.088711004441988058E-16 ) ) ;
#94 = ADVANCED_BREP_SHAPE_REPRESENTATION ( 'ORING-019-BUNA-70A_ORING-019-BUNA-70A.STEP', ( #135, #55 ), #187 ) ;
#95 = APPROVAL_PERSON_ORGANIZATION ( #73, #189, #182 ) ;
#96 = CARTESIAN_POINT ( 'NONE',  ( 0.000000000000000000, 0.000000000000000000, 0.000000000000000000 ) ) ;
#97 = CARTESIAN_POINT ( 'NONE',  ( 11.06170000000000009, 6.140477015748049073E-16, 5.007715127778179391E-27 ) ) ;
#98 = APPLICATION_CONTEXT ( 'configuration controlled 3d designs of mechanical parts and assemblies' ) ;
#99 = CARTESIAN_POINT ( 'NONE',  ( 0.000000000000000000, 0.000000000000000000, 0.000000000000000000 ) ) ;
#100 = CIRCLE ( 'NONE', #125, 11.95069999999999943 ) ;
#101 = CC_DESIGN_APPROVAL ( #142, ( #49 ) ) ;
#102 = DATE_AND_TIME ( #129, #188 ) ;
#103 = ORIENTED_EDGE ( 'NONE', *, *, #77, .T. ) ;
#104 = ORIENTED_EDGE ( 'NONE', *, *, #26, .F. ) ;
#105 = EDGE_CURVE ( 'NONE', #18, #36, #7, .T. ) ;
#106 = CC_DESIGN_APPROVAL ( #168, ( #52 ) ) ;
#107 = CARTESIAN_POINT ( 'NONE',  ( -10.17269999999999897, 6.810981612383979263E-16, -1.088711004442038101E-16 ) ) ;
#108 = APPLICATION_CONTEXT ( 'configuration controlled 3d designs of mechanical parts and assemblies' ) ;
#109 = CC_DESIGN_PERSON_AND_ORGANIZATION_ASSIGNMENT ( #178, #132, ( #49 ) ) ;
#110 = CC_DESIGN_PERSON_AND_ORGANIZATION_ASSIGNMENT ( #19, #88, ( #3 ) ) ;
#111 = DIRECTION ( 'NONE',  ( 4.148422285331020046E-28, 2.028851640615300107E-29, 1.000000000000000000 ) ) ;
#112 = AXIS2_PLACEMENT_3D ( 'NONE', #99, #66, #54 ) ;
#113 = DIRECTION ( 'NONE',  ( 0.000000000000000000, 0.000000000000000000, 1.000000000000000000 ) ) ;
#114 = DIRECTION ( 'NONE',  ( 5.551115123125829541E-17, -1.000000000000000000, 2.028851640615300107E-29 ) ) ;
#115 = CARTESIAN_POINT ( 'NONE',  ( 0.000000000000000000, 0.000000000000000000, 0.000000000000000000 ) ) ;
#116 = AXIS2_PLACEMENT_3D ( 'NONE', #143, #144, #42 ) ;
#117 = FACE_OUTER_BOUND ( 'NONE', #147, .T. ) ;
#118 = PERSON_AND_ORGANIZATION ( #18446744073709551615, #18446744073709551615 ) ;
#119 = COORDINATED_UNIVERSAL_TIME_OFFSET ( 10, 0, .AHEAD. ) ;
#120 = EDGE_LOOP ( 'NONE', ( #4, #51, #103, #50 ) ) ;
#121 = AXIS2_PLACEMENT_3D ( 'NONE', #93, #76, #154 ) ;
#122 = EDGE_CURVE ( 'NONE', #36, #181, #58, .T. ) ;
#123 = APPLICATION_PROTOCOL_DEFINITION ( 'international standard', 'config_control_design', 1994, #108 ) ;
#124 = DIRECTION ( 'NONE',  ( -1.000000000000000000, 6.695352868347633506E-17, 0.000000000000000000 ) ) ;
#125 = AXIS2_PLACEMENT_3D ( 'NONE', #63, #10, #185 ) ;
#126 = FACE_OUTER_BOUND ( 'NONE', #8, .T. ) ;
#127 = ADVANCED_FACE ( 'NONE', ( #126 ), #138, .T. ) ;
#128 = ORIENTED_EDGE ( 'NONE', *, *, #122, .T. ) ;
#129 = CALENDAR_DATE ( 2026, 22, 6 ) ;
#130 = ORIENTED_EDGE ( 'NONE', *, *, #158, .T. ) ;
#131 = AXIS2_PLACEMENT_3D ( 'NONE', #97, #114, #169 ) ;
#132 = PERSON_AND_ORGANIZATION_ROLE ( 'creator' ) ;
#133 = CARTESIAN_POINT ( 'NONE',  ( 10.17269999999999897, 5.646982881302190033E-16, -1.088711004442038101E-16 ) ) ;
#134 = EDGE_CURVE ( 'NONE', #181, #36, #153, .T. ) ;
#135 = MANIFOLD_SOLID_BREP ( 'NONE', #90 ) ;
#136 = TOROIDAL_SURFACE ( 'NONE', #33, 11.06170000000000009, 0.8890000000000000124 ) ;
#137 = EDGE_CURVE ( 'NONE', #71, #18, #79, .T. ) ;
#138 = TOROIDAL_SURFACE ( 'NONE', #69, 11.06170000000000009, 0.8890000000000000124 ) ;
#139 = PERSON_AND_ORGANIZATION ( #18446744073709551615, #18446744073709551615 ) ;
#140 = AXIS2_PLACEMENT_3D ( 'NONE', #167, #152, #53 ) ;
#141 = CIRCLE ( 'NONE', #25, 11.95069999999999943 ) ;
#142 = APPROVAL ( #15, 'Coincident' ) ;
#143 = CARTESIAN_POINT ( 'NONE',  ( -11.06170000000000009, 7.406198482380049363E-16, -5.007715127778179391E-27 ) ) ;
#144 = DIRECTION ( 'NONE',  ( 6.695352868347639669E-17, 1.000000000000000000, -2.028851640615305151E-29 ) ) ;
#145 = ADVANCED_FACE ( 'NONE', ( #117 ), #40, .T. ) ;
#146 = APPROVAL_PERSON_ORGANIZATION ( #139, #142, #148 ) ;
#147 = EDGE_LOOP ( 'NONE', ( #163, #92, #12, #164 ) ) ;
#148 = APPROVAL_ROLE ( '' ) ;
#149 = SECURITY_CLASSIFICATION_LEVEL ( 'unclassified' ) ;
#150 = APPROVAL_STATUS ( 'not_yet_approved' ) ;
#151 = DATE_AND_TIME ( #162, #165 ) ;
#152 = DIRECTION ( 'NONE',  ( 5.551115123125829541E-17, -1.000000000000000000, 2.028851640615300107E-29 ) ) ;
#153 = CIRCLE ( 'NONE', #116, 0.8890000000000009006 ) ;
#154 = DIRECTION ( 'NONE',  ( 1.000000000000000000, 0.000000000000000000, -4.148430229945841782E-28 ) ) ;
#155 = CARTESIAN_POINT ( 'NONE',  ( -4.516432993112260509E-44, -2.208833107518059797E-45, -1.088711004441988058E-16 ) ) ;
#156 = CC_DESIGN_APPROVAL ( #189, ( #3 ) ) ;
#157 =( NAMED_UNIT ( * ) PLANE_ANGLE_UNIT ( ) SI_UNIT ( $, .RADIAN. ) );
#158 = EDGE_CURVE ( 'NONE', #71, #181, #141, .T. ) ;
#159 = DIRECTION ( 'NONE',  ( 4.148422285331020046E-28, 2.028851640615300107E-29, 1.000000000000000000 ) ) ;
#160 = APPROVAL_STATUS ( 'not_yet_approved' ) ;
#161 = AXIS2_PLACEMENT_3D ( 'NONE', #27, #45, #124 ) ;
#162 = CALENDAR_DATE ( 2026, 22, 6 ) ;
#163 = ORIENTED_EDGE ( 'NONE', *, *, #134, .F. ) ;
#164 = ORIENTED_EDGE ( 'NONE', *, *, #77, .F. ) ;
#165 = LOCAL_TIME ( 18, 50, 30.00000000000000000, #22 ) ;
#166 = PERSON_AND_ORGANIZATION_ROLE ( 'classification_officer' ) ;
#167 = CARTESIAN_POINT ( 'NONE',  ( 11.06170000000000009, 6.140477015748049073E-16, 5.007715127778179391E-27 ) ) ;
#168 = APPROVAL ( #150, 'Coincident' ) ;
#169 = DIRECTION ( 'NONE',  ( 1.000000000000000000, 5.551115123125825843E-17, 0.000000000000000000 ) ) ;
#170 = TOROIDAL_SURFACE ( 'NONE', #13, 11.06170000000000009, 0.8890000000000000124 ) ;
#171 = DIRECTION ( 'NONE',  ( 1.000000000000000000, 5.551115123125819680E-17, -4.148422285331020046E-28 ) ) ;
#172 = DESIGN_CONTEXT ( 'detailed design', #98, 'design' ) ;
#173 = DIRECTION ( 'NONE',  ( 1.000000000000000000, 5.551115123125819680E-17, -4.148422285331020046E-28 ) ) ;
#174 = MECHANICAL_CONTEXT ( 'NONE', #108, 'mechanical' ) ;
#175 = LOCAL_TIME ( 18, 50, 30.00000000000000000, #34 ) ;
#176 = DATE_TIME_ROLE ( 'creation_date' ) ;
#177 = CALENDAR_DATE ( 2026, 22, 6 ) ;
#178 = PERSON_AND_ORGANIZATION ( #18446744073709551615, #18446744073709551615 ) ;
#179 = ORIENTED_EDGE ( 'NONE', *, *, #105, .T. ) ;
#180 = APPROVAL_DATE_TIME ( #151, #142 ) ;
#181 = VERTEX_POINT ( 'NONE', #85 ) ;
#182 = APPROVAL_ROLE ( '' ) ;
#183 = PRODUCT_DEFINITION_SHAPE ( 'NONE', 'NONE',  #49 ) ;
#184 = UNCERTAINTY_MEASURE_WITH_UNIT (LENGTH_MEASURE( 1.000000000000000082E-05 ), #65, 'distance_accuracy_value', 'NONE');
#185 = DIRECTION ( 'NONE',  ( 1.000000000000000000, 0.000000000000000000, -4.148422285331020046E-28 ) ) ;
#186 = CC_DESIGN_PERSON_AND_ORGANIZATION_ASSIGNMENT ( #6, #32, ( #3 ) ) ;
#187 =( GEOMETRIC_REPRESENTATION_CONTEXT ( 3 ) GLOBAL_UNCERTAINTY_ASSIGNED_CONTEXT ( ( #184 ) ) GLOBAL_UNIT_ASSIGNED_CONTEXT ( ( #65, #157, #191 ) ) REPRESENTATION_CONTEXT ( 'NONE', 'WORKASPACE' ) );
#188 = LOCAL_TIME ( 18, 50, 30.00000000000000000, #70 ) ;
#189 = APPROVAL ( #160, 'Coincident' ) ;
#190 = APPLICATION_PROTOCOL_DEFINITION ( 'international standard', 'config_control_design', 1994, #98 ) ;
#191 =( NAMED_UNIT ( * ) SI_UNIT ( $, .STERADIAN. ) SOLID_ANGLE_UNIT ( ) );
ENDSEC;
END-ISO-10303-21;
