ISO-10303-21;
HEADER;
FILE_DESCRIPTION (( 'STEP AP203' ),
    '1' );
FILE_NAME ('ORING-021-BUNA-70A.STEP.STEP',
    '2026-06-22T08:50:31',
    ( 'localuser' ),
    ( '' ),
    'SwSTEP 2.0',
    'SolidWorks 2025',
    '' );
FILE_SCHEMA (( 'CONFIG_CONTROL_DESIGN' ));
ENDSEC;

DATA;
#1 = CALENDAR_DATE ( 2026, 22, 6 ) ;
#2 = ORIENTED_EDGE ( 'NONE', *, *, #68, .T. ) ;
#3 = DATE_AND_TIME ( #48, #94 ) ;
#4 = APPROVAL_STATUS ( 'not_yet_approved' ) ;
#5 = LOCAL_TIME ( 18, 50, 31.00000000000000000, #32 ) ;
#6 = ORIENTED_EDGE ( 'NONE', *, *, #144, .F. ) ;
#7 = DIRECTION ( 'NONE',  ( 2.988104034372370277E-15, -4.611865205799999170E-18, 1.000000000000000000 ) ) ;
#8 = DIRECTION ( 'NONE',  ( 1.000000000000000000, 0.000000000000000000, -2.988104034372370277E-15 ) ) ;
#9 = CIRCLE ( 'NONE', #128, 13.53819999999999979 ) ;
#10 = ORIENTED_EDGE ( 'NONE', *, *, #71, .T. ) ;
#11 =( NAMED_UNIT ( * ) PLANE_ANGLE_UNIT ( ) SI_UNIT ( $, .RADIAN. ) );
#12 = APPROVAL_PERSON_ORGANIZATION ( #75, #97, #79 ) ;
#13 = CC_DESIGN_DATE_AND_TIME_ASSIGNMENT ( #3, #74, ( #182 ) ) ;
#14 = CIRCLE ( 'NONE', #40, 0.8890000000000009006 ) ;
#15 = PRODUCT_DEFINITION_FORMATION_WITH_SPECIFIED_SOURCE ( 'Symmetric', '', #188, .NOT_KNOWN. ) ;
#16 = TOROIDAL_SURFACE ( 'NONE', #41, 12.64919999999999867, 0.8890000000000000124 ) ;
#17 = PERSON_AND_ORGANIZATION ( #18446744073709551615, #18446744073709551615 ) ;
#18 = PERSON_AND_ORGANIZATION ( #18446744073709551615, #18446744073709551615 ) ;
#19 = CC_DESIGN_PERSON_AND_ORGANIZATION_ASSIGNMENT ( #18, #159, ( #182 ) ) ;
#20 = CARTESIAN_POINT ( 'NONE',  ( 0.000000000000000000, 0.000000000000000000, 0.000000000000000000 ) ) ;
#21 = APPROVAL_DATE_TIME ( #142, #161 ) ;
#22 = CARTESIAN_POINT ( 'NONE',  ( -11.76019999999999932, -1.422752464827195803E-14, -1.088711004421874077E-16 ) ) ;
#23 = ORIENTED_EDGE ( 'NONE', *, *, #50, .F. ) ;
#24 = DIRECTION ( 'NONE',  ( 1.000000000000000000, 0.000000000000000000, -2.988104034372370277E-15 ) ) ;
#25 = CARTESIAN_POINT ( 'NONE',  ( 12.64919999999999867, 1.685211969967294995E-14, 3.779712555158264640E-14 ) ) ;
#26 = CC_DESIGN_APPROVAL ( #70, ( #182 ) ) ;
#27 =( LENGTH_UNIT ( ) NAMED_UNIT ( * ) SI_UNIT ( .MILLI., .METRE. ) );
#28 =( GEOMETRIC_REPRESENTATION_CONTEXT ( 3 ) GLOBAL_UNCERTAINTY_ASSIGNED_CONTEXT ( ( #174 ) ) GLOBAL_UNIT_ASSIGNED_CONTEXT ( ( #27, #11, #125 ) ) REPRESENTATION_CONTEXT ( 'NONE', 'WORKASPACE' ) );
#29 = ADVANCED_BREP_SHAPE_REPRESENTATION ( 'ORING-021-BUNA-70A.STEP', ( #172, #186 ), #28 ) ;
#30 = EDGE_CURVE ( 'NONE', #64, #115, #93, .T. ) ;
#31 = DIRECTION ( 'NONE',  ( 1.000000000000000000, 1.332267629547567450E-15, 0.000000000000000000 ) ) ;
#32 = COORDINATED_UNIVERSAL_TIME_OFFSET ( 10, 0, .AHEAD. ) ;
#33 = EDGE_LOOP ( 'NONE', ( #56, #69, #150, #181 ) ) ;
#34 = DIRECTION ( 'NONE',  ( 1.000000000000000000, 0.000000000000000000, -2.988104034372370277E-15 ) ) ;
#35 = AXIS2_PLACEMENT_3D ( 'NONE', #66, #80, #91 ) ;
#36 = ORIENTED_EDGE ( 'NONE', *, *, #30, .F. ) ;
#37 = DIRECTION ( 'NONE',  ( 2.988104034372370277E-15, -4.611865205799999170E-18, 1.000000000000000000 ) ) ;
#38 = PRODUCT_RELATED_PRODUCT_CATEGORY ( 'detail', '', ( #188 ) ) ;
#39 = APPLICATION_CONTEXT ( 'configuration controlled 3d designs of mechanical parts and assemblies' ) ;
#40 = AXIS2_PLACEMENT_3D ( 'NONE', #102, #87, #160 ) ;
#41 = AXIS2_PLACEMENT_3D ( 'NONE', #187, #190, #43 ) ;
#42 = DIRECTION ( 'NONE',  ( 1.000000000000000000, 1.332267629547568041E-15, -2.988104034372370277E-15 ) ) ;
#43 = DIRECTION ( 'NONE',  ( 1.000000000000000000, 1.332267629547568041E-15, -2.988104034372370277E-15 ) ) ;
#44 = MECHANICAL_CONTEXT ( 'NONE', #39, 'mechanical' ) ;
#45 = TOROIDAL_SURFACE ( 'NONE', #141, 12.64919999999999867, 0.8890000000000000124 ) ;
#46 = APPROVAL_PERSON_ORGANIZATION ( #47, #70, #99 ) ;
#47 = PERSON_AND_ORGANIZATION ( #18446744073709551615, #18446744073709551615 ) ;
#48 = CALENDAR_DATE ( 2026, 22, 6 ) ;
#49 = CALENDAR_DATE ( 2026, 22, 6 ) ;
#50 = EDGE_CURVE ( 'NONE', #129, #163, #9, .T. ) ;
#51 = APPROVAL_ROLE ( '' ) ;
#52 = DATE_TIME_ROLE ( 'creation_date' ) ;
#53 = ORIENTED_EDGE ( 'NONE', *, *, #30, .T. ) ;
#54 = DIRECTION ( 'NONE',  ( -1.000000000000000000, -1.209802949632832104E-15, 0.000000000000000000 ) ) ;
#55 = DIRECTION ( 'NONE',  ( 1.000000000000000000, 1.332267629547568041E-15, -2.988104034372370277E-15 ) ) ;
#56 = ORIENTED_EDGE ( 'NONE', *, *, #68, .F. ) ;
#57 = DIRECTION ( 'NONE',  ( 0.000000000000000000, 0.000000000000000000, 1.000000000000000000 ) ) ;
#58 = CARTESIAN_POINT ( 'NONE',  ( 0.000000000000000000, 0.000000000000000000, 0.000000000000000000 ) ) ;
#59 = FACE_OUTER_BOUND ( 'NONE', #178, .T. ) ;
#60 = DIRECTION ( 'NONE',  ( 1.000000000000000000, 0.000000000000000000, 0.000000000000000000 ) ) ;
#61 = CIRCLE ( 'NONE', #100, 0.8890000000000009006 ) ;
#62 = COORDINATED_UNIVERSAL_TIME_OFFSET ( 10, 0, .AHEAD. ) ;
#63 = DATE_AND_TIME ( #1, #84 ) ;
#64 = VERTEX_POINT ( 'NONE', #22 ) ;
#65 = ADVANCED_FACE ( 'NONE', ( #147 ), #45, .T. ) ;
#66 = CARTESIAN_POINT ( 'NONE',  ( -3.253181744638684676E-31, 5.020988400557551196E-34, -1.088711004441982018E-16 ) ) ;
#67 = CARTESIAN_POINT ( 'NONE',  ( -3.253181744638684676E-31, 5.020988400557551196E-34, -1.088711004441982018E-16 ) ) ;
#68 = EDGE_CURVE ( 'NONE', #163, #115, #14, .T. ) ;
#69 = ORIENTED_EDGE ( 'NONE', *, *, #121, .T. ) ;
#70 = APPROVAL ( #156, 'Coincident' ) ;
#71 = EDGE_CURVE ( 'NONE', #115, #64, #171, .T. ) ;
#72 = CLOSED_SHELL ( 'NONE', ( #169, #65, #177, #106 ) ) ;
#73 = AXIS2_PLACEMENT_3D ( 'NONE', #122, #116, #151 ) ;
#74 = DATE_TIME_ROLE ( 'classification_date' ) ;
#75 = PERSON_AND_ORGANIZATION ( #18446744073709551615, #18446744073709551615 ) ;
#76 = PERSON_AND_ORGANIZATION_ROLE ( 'creator' ) ;
#77 = FACE_OUTER_BOUND ( 'NONE', #184, .T. ) ;
#78 = CIRCLE ( 'NONE', #191, 0.8890000000000009006 ) ;
#79 = APPROVAL_ROLE ( '' ) ;
#80 = DIRECTION ( 'NONE',  ( 2.988104034372370277E-15, -4.611865205799999170E-18, 1.000000000000000000 ) ) ;
#81 = ORIENTED_EDGE ( 'NONE', *, *, #124, .F. ) ;
#82 = AXIS2_PLACEMENT_3D ( 'NONE', #179, #164, #54 ) ;
#83 = DIRECTION ( 'NONE',  ( 1.332267629547570014E-15, -1.000000000000000000, -4.611865205803979682E-18 ) ) ;
#84 = LOCAL_TIME ( 18, 50, 31.00000000000000000, #162 ) ;
#85 = COORDINATED_UNIVERSAL_TIME_OFFSET ( 10, 0, .AHEAD. ) ;
#86 = PERSON_AND_ORGANIZATION ( #18446744073709551615, #18446744073709551615 ) ;
#87 = DIRECTION ( 'NONE',  ( 1.332267629547570014E-15, -1.000000000000000000, -4.611865205803979682E-18 ) ) ;
#88 = APPROVAL_STATUS ( 'not_yet_approved' ) ;
#89 = ORIENTED_EDGE ( 'NONE', *, *, #114, .F. ) ;
#90 = EDGE_LOOP ( 'NONE', ( #104, #6, #10, #167 ) ) ;
#91 = DIRECTION ( 'NONE',  ( 1.000000000000000000, 0.000000000000000000, -2.988104034372370277E-15 ) ) ;
#92 = CARTESIAN_POINT ( 'NONE',  ( -13.53819999999999979, -1.637855429271915176E-14, 4.045355003813984586E-14 ) ) ;
#93 = CIRCLE ( 'NONE', #143, 11.76019999999999932 ) ;
#94 = LOCAL_TIME ( 18, 50, 31.00000000000000000, #146 ) ;
#95 = CC_DESIGN_PERSON_AND_ORGANIZATION_ASSIGNMENT ( #17, #103, ( #15 ) ) ;
#96 = APPROVAL_PERSON_ORGANIZATION ( #86, #161, #51 ) ;
#97 = APPROVAL ( #88, 'Coincident' ) ;
#98 = SHAPE_DEFINITION_REPRESENTATION ( #134, #29 ) ;
#99 = APPROVAL_ROLE ( '' ) ;
#100 = AXIS2_PLACEMENT_3D ( 'NONE', #136, #120, #183 ) ;
#101 = PERSON_AND_ORGANIZATION_ROLE ( 'creator' ) ;
#102 = CARTESIAN_POINT ( 'NONE',  ( 12.64919999999999867, 1.685211969967294995E-14, 3.779712555158264640E-14 ) ) ;
#103 = PERSON_AND_ORGANIZATION_ROLE ( 'design_supplier' ) ;
#104 = ORIENTED_EDGE ( 'NONE', *, *, #121, .F. ) ;
#105 = CIRCLE ( 'NONE', #137, 13.53819999999999979 ) ;
#106 = ADVANCED_FACE ( 'NONE', ( #77 ), #118, .T. ) ;
#107 = DIRECTION ( 'NONE',  ( 2.988104034372370277E-15, -4.611865205799999170E-18, 1.000000000000000000 ) ) ;
#108 = DIRECTION ( 'NONE',  ( 2.988104034372370277E-15, -4.611865205799999170E-18, 1.000000000000000000 ) ) ;
#109 = CC_DESIGN_DATE_AND_TIME_ASSIGNMENT ( #131, #52, ( #148 ) ) ;
#110 = PERSON_AND_ORGANIZATION_ROLE ( 'design_owner' ) ;
#111 = CALENDAR_DATE ( 2026, 22, 6 ) ;
#112 = APPROVAL_DATE_TIME ( #145, #97 ) ;
#113 = APPROVAL_DATE_TIME ( #63, #70 ) ;
#114 = EDGE_CURVE ( 'NONE', #129, #64, #158, .T. ) ;
#115 = VERTEX_POINT ( 'NONE', #117 ) ;
#116 = DIRECTION ( 'NONE',  ( 2.988104034372370277E-15, -4.611865205799999170E-18, 1.000000000000000000 ) ) ;
#117 = CARTESIAN_POINT ( 'NONE',  ( 11.76019999999999932, 1.566773377700524931E-14, -1.088711004462180185E-16 ) ) ;
#118 = TOROIDAL_SURFACE ( 'NONE', #73, 12.64919999999999867, 0.8890000000000000124 ) ;
#119 = CC_DESIGN_SECURITY_CLASSIFICATION ( #182, ( #15 ) ) ;
#120 = DIRECTION ( 'NONE',  ( -1.209802949632831907E-15, 1.000000000000000000, 4.611865205803619148E-18 ) ) ;
#121 = EDGE_CURVE ( 'NONE', #163, #129, #105, .T. ) ;
#122 = CARTESIAN_POINT ( 'NONE',  ( 0.000000000000000000, 0.000000000000000000, 0.000000000000000000 ) ) ;
#123 = TOROIDAL_SURFACE ( 'NONE', #168, 12.64919999999999867, 0.8890000000000000124 ) ;
#124 = EDGE_CURVE ( 'NONE', #64, #129, #61, .T. ) ;
#125 =( NAMED_UNIT ( * ) SI_UNIT ( $, .STERADIAN. ) SOLID_ANGLE_UNIT ( ) );
#126 = PERSON_AND_ORGANIZATION ( #18446744073709551615, #18446744073709551615 ) ;
#127 = CALENDAR_DATE ( 2026, 22, 6 ) ;
#128 = AXIS2_PLACEMENT_3D ( 'NONE', #20, #37, #8 ) ;
#129 = VERTEX_POINT ( 'NONE', #92 ) ;
#130 = SECURITY_CLASSIFICATION_LEVEL ( 'unclassified' ) ;
#131 = DATE_AND_TIME ( #127, #155 ) ;
#132 = ORIENTED_EDGE ( 'NONE', *, *, #50, .T. ) ;
#133 = CC_DESIGN_PERSON_AND_ORGANIZATION_ASSIGNMENT ( #176, #76, ( #148 ) ) ;
#134 = PRODUCT_DEFINITION_SHAPE ( 'NONE', 'NONE',  #148 ) ;
#135 = CARTESIAN_POINT ( 'NONE',  ( 0.000000000000000000, 0.000000000000000000, 0.000000000000000000 ) ) ;
#136 = CARTESIAN_POINT ( 'NONE',  ( -12.64919999999999867, -1.530303947049550125E-14, -3.779712555158264640E-14 ) ) ;
#137 = AXIS2_PLACEMENT_3D ( 'NONE', #166, #138, #24 ) ;
#138 = DIRECTION ( 'NONE',  ( 2.988104034372370277E-15, -4.611865205799999170E-18, 1.000000000000000000 ) ) ;
#139 = APPLICATION_PROTOCOL_DEFINITION ( 'international standard', 'config_control_design', 1994, #39 ) ;
#140 = FACE_OUTER_BOUND ( 'NONE', #33, .T. ) ;
#141 = AXIS2_PLACEMENT_3D ( 'NONE', #135, #7, #55 ) ;
#142 = DATE_AND_TIME ( #111, #154 ) ;
#143 = AXIS2_PLACEMENT_3D ( 'NONE', #67, #107, #34 ) ;
#144 = EDGE_CURVE ( 'NONE', #115, #163, #78, .T. ) ;
#145 = DATE_AND_TIME ( #49, #5 ) ;
#146 = COORDINATED_UNIVERSAL_TIME_OFFSET ( 10, 0, .AHEAD. ) ;
#147 = FACE_OUTER_BOUND ( 'NONE', #90, .T. ) ;
#148 = PRODUCT_DEFINITION ( 'General', '', #15, #185 ) ;
#149 = CC_DESIGN_APPROVAL ( #161, ( #15 ) ) ;
#150 = ORIENTED_EDGE ( 'NONE', *, *, #114, .T. ) ;
#151 = DIRECTION ( 'NONE',  ( 1.000000000000000000, 1.332267629547568041E-15, -2.988104034372370277E-15 ) ) ;
#152 = ORIENTED_EDGE ( 'NONE', *, *, #144, .T. ) ;
#153 = CC_DESIGN_PERSON_AND_ORGANIZATION_ASSIGNMENT ( #157, #101, ( #15 ) ) ;
#154 = LOCAL_TIME ( 18, 50, 31.00000000000000000, #85 ) ;
#155 = LOCAL_TIME ( 18, 50, 31.00000000000000000, #62 ) ;
#156 = APPROVAL_STATUS ( 'not_yet_approved' ) ;
#157 = PERSON_AND_ORGANIZATION ( #18446744073709551615, #18446744073709551615 ) ;
#158 = CIRCLE ( 'NONE', #82, 0.8890000000000009006 ) ;
#159 = PERSON_AND_ORGANIZATION_ROLE ( 'classification_officer' ) ;
#160 = DIRECTION ( 'NONE',  ( 1.000000000000000000, 1.332267629547567450E-15, 0.000000000000000000 ) ) ;
#161 = APPROVAL ( #4, 'Coincident' ) ;
#162 = COORDINATED_UNIVERSAL_TIME_OFFSET ( 10, 0, .AHEAD. ) ;
#163 = VERTEX_POINT ( 'NONE', #170 ) ;
#164 = DIRECTION ( 'NONE',  ( -1.209802949632831907E-15, 1.000000000000000000, 4.611865205803619148E-18 ) ) ;
#165 = CC_DESIGN_APPROVAL ( #97, ( #148 ) ) ;
#166 = CARTESIAN_POINT ( 'NONE',  ( 0.000000000000000000, 0.000000000000000000, 0.000000000000000000 ) ) ;
#167 = ORIENTED_EDGE ( 'NONE', *, *, #124, .T. ) ;
#168 = AXIS2_PLACEMENT_3D ( 'NONE', #58, #108, #42 ) ;
#169 = ADVANCED_FACE ( 'NONE', ( #59 ), #16, .T. ) ;
#170 = CARTESIAN_POINT ( 'NONE',  ( 13.53819999999999979, 1.803650562234079889E-14, -4.045355003813984586E-14 ) ) ;
#171 = CIRCLE ( 'NONE', #35, 11.76019999999999932 ) ;
#172 = MANIFOLD_SOLID_BREP ( 'NONE', #72 ) ;
#173 = CC_DESIGN_PERSON_AND_ORGANIZATION_ASSIGNMENT ( #126, #110, ( #188 ) ) ;
#174 = UNCERTAINTY_MEASURE_WITH_UNIT (LENGTH_MEASURE( 1.000000000000000082E-05 ), #27, 'distance_accuracy_value', 'NONE');
#175 = APPLICATION_PROTOCOL_DEFINITION ( 'international standard', 'config_control_design', 1994, #180 ) ;
#176 = PERSON_AND_ORGANIZATION ( #18446744073709551615, #18446744073709551615 ) ;
#177 = ADVANCED_FACE ( 'NONE', ( #140 ), #123, .T. ) ;
#178 = EDGE_LOOP ( 'NONE', ( #23, #81, #53, #152 ) ) ;
#179 = CARTESIAN_POINT ( 'NONE',  ( -12.64919999999999867, -1.530303947049550125E-14, -3.779712555158264640E-14 ) ) ;
#180 = APPLICATION_CONTEXT ( 'configuration controlled 3d designs of mechanical parts and assemblies' ) ;
#181 = ORIENTED_EDGE ( 'NONE', *, *, #71, .F. ) ;
#182 = SECURITY_CLASSIFICATION ( '', '', #130 ) ;
#183 = DIRECTION ( 'NONE',  ( -1.000000000000000000, -1.209802949632832104E-15, 0.000000000000000000 ) ) ;
#184 = EDGE_LOOP ( 'NONE', ( #89, #132, #2, #36 ) ) ;
#185 = DESIGN_CONTEXT ( 'detailed design', #180, 'design' ) ;
#186 = AXIS2_PLACEMENT_3D ( 'NONE', #189, #57, #60 ) ;
#187 = CARTESIAN_POINT ( 'NONE',  ( 0.000000000000000000, 0.000000000000000000, 0.000000000000000000 ) ) ;
#188 = PRODUCT ( 'ORING-021-BUNA-70A.STEP', 'ORING-021-BUNA-70A.STEP', '', ( #44 ) ) ;
#189 = CARTESIAN_POINT ( 'NONE',  ( 0.000000000000000000, 0.000000000000000000, 0.000000000000000000 ) ) ;
#190 = DIRECTION ( 'NONE',  ( 2.988104034372370277E-15, -4.611865205799999170E-18, 1.000000000000000000 ) ) ;
#191 = AXIS2_PLACEMENT_3D ( 'NONE', #25, #83, #31 ) ;
ENDSEC;
END-ISO-10303-21;
