ISO-10303-21;
HEADER;
FILE_DESCRIPTION (( 'STEP AP203' ),
    '1' );
FILE_NAME ('ORING-11.5X1.5-BUNA-70A_9262K523.STEP.STEP',
    '2026-06-22T08:49:26',
    ( 'localuser' ),
    ( '' ),
    'SwSTEP 2.0',
    'SolidWorks 2025',
    '' );
FILE_SCHEMA (( 'CONFIG_CONTROL_DESIGN' ));
ENDSEC;

DATA;
#1 = DIRECTION ( 'NONE',  ( 3.059760122486110117E-33, 0.000000000000000000, 1.000000000000000000 ) ) ;
#2 = AXIS2_PLACEMENT_3D ( 'NONE', #178, #35, #158 ) ;
#3 = DIRECTION ( 'NONE',  ( 3.059760122486104986E-33, -1.022031781667982038E-79, 1.000000000000000000 ) ) ;
#4 = SHAPE_DEFINITION_REPRESENTATION ( #24, #168 ) ;
#5 = APPROVAL ( #102, 'Coincident' ) ;
#6 = APPROVAL_ROLE ( '' ) ;
#7 = APPROVAL_STATUS ( 'not_yet_approved' ) ;
#8 = APPLICATION_PROTOCOL_DEFINITION ( 'international standard', 'config_control_design', 1994, #150 ) ;
#9 = PERSON_AND_ORGANIZATION ( #18446744073709551615, #18446744073709551615 ) ;
#10 = LOCAL_TIME ( 18, 49, 26.00000000000000000, #116 ) ;
#11 = ORIENTED_EDGE ( 'NONE', *, *, #162, .T. ) ;
#12 = VERTEX_POINT ( 'NONE', #122 ) ;
#13 = CLOSED_SHELL ( 'NONE', ( #151, #89, #167, #39 ) ) ;
#14 = PRODUCT_RELATED_PRODUCT_CATEGORY ( 'detail', '', ( #155 ) ) ;
#15 = CARTESIAN_POINT ( 'NONE',  ( 0.000000000000000000, 0.000000000000000000, 0.000000000000000000 ) ) ;
#16 = DIRECTION ( 'NONE',  ( 1.000000000000000000, 0.000000000000000000, -3.059760122486110117E-33 ) ) ;
#17 = AXIS2_PLACEMENT_3D ( 'NONE', #174, #191, #29 ) ;
#18 = CARTESIAN_POINT ( 'NONE',  ( 6.500000000000000000, 6.409494854920720043E-31, 1.988844079615965076E-32 ) ) ;
#19 = DIRECTION ( 'NONE',  ( 3.059760122486104986E-33, -1.022031781667982038E-79, 1.000000000000000000 ) ) ;
#20 = APPLICATION_CONTEXT ( 'configuration controlled 3d designs of mechanical parts and assemblies' ) ;
#21 = LOCAL_TIME ( 18, 49, 26.00000000000000000, #114 ) ;
#22 = DIRECTION ( 'NONE',  ( 0.000000000000000000, 0.000000000000000000, 1.000000000000000000 ) ) ;
#23 = APPROVAL_ROLE ( '' ) ;
#24 = PRODUCT_DEFINITION_SHAPE ( 'NONE', 'NONE',  #55 ) ;
#25 = CC_DESIGN_DATE_AND_TIME_ASSIGNMENT ( #41, #86, ( #55 ) ) ;
#26 = APPROVAL_PERSON_ORGANIZATION ( #9, #95, #23 ) ;
#27 = ORIENTED_EDGE ( 'NONE', *, *, #108, .T. ) ;
#28 = LOCAL_TIME ( 18, 49, 26.00000000000000000, #61 ) ;
#29 = DIRECTION ( 'NONE',  ( -1.000000000000000000, 1.224646799147353454E-16, 0.000000000000000000 ) ) ;
#30 = FACE_OUTER_BOUND ( 'NONE', #92, .T. ) ;
#31 = CARTESIAN_POINT ( 'NONE',  ( -5.750000000000000000, 7.041719095097270033E-16, -9.184850993605141042E-17 ) ) ;
#32 = CC_DESIGN_PERSON_AND_ORGANIZATION_ASSIGNMENT ( #103, #75, ( #156 ) ) ;
#33 = AXIS2_PLACEMENT_3D ( 'NONE', #98, #100, #16 ) ;
#34 = CARTESIAN_POINT ( 'NONE',  ( 6.500000000000000000, 6.409494854920720043E-31, 1.988844079615965076E-32 ) ) ;
#35 = DIRECTION ( 'NONE',  ( 3.059760122486104986E-33, -1.022031781667982038E-79, 1.000000000000000000 ) ) ;
#36 = SECURITY_CLASSIFICATION_LEVEL ( 'unclassified' ) ;
#37 = DATE_TIME_ROLE ( 'classification_date' ) ;
#38 = APPROVAL_ROLE ( '' ) ;
#39 = ADVANCED_FACE ( 'NONE', ( #142 ), #104, .T. ) ;
#40 = AXIS2_PLACEMENT_3D ( 'NONE', #18, #160, #69 ) ;
#41 = DATE_AND_TIME ( #131, #28 ) ;
#42 = VERTEX_POINT ( 'NONE', #31 ) ;
#43 = VERTEX_POINT ( 'NONE', #81 ) ;
#44 = CARTESIAN_POINT ( 'NONE',  ( 0.000000000000000000, 0.000000000000000000, 0.000000000000000000 ) ) ;
#45 = CARTESIAN_POINT ( 'NONE',  ( 0.000000000000000000, 0.000000000000000000, 0.000000000000000000 ) ) ;
#46 = DIRECTION ( 'NONE',  ( 2.093402113464384804E-33, 0.000000000000000000, 1.000000000000000000 ) ) ;
#47 = DIRECTION ( 'NONE',  ( 3.059760122486104986E-33, -1.022031781667982038E-79, 1.000000000000000000 ) ) ;
#48 = EDGE_CURVE ( 'NONE', #42, #12, #112, .T. ) ;
#49 = DATE_AND_TIME ( #166, #10 ) ;
#50 = DATE_AND_TIME ( #165, #21 ) ;
#51 = CC_DESIGN_APPROVAL ( #95, ( #79 ) ) ;
#52 = EDGE_LOOP ( 'NONE', ( #137, #68, #27, #186 ) ) ;
#53 = ORIENTED_EDGE ( 'NONE', *, *, #48, .F. ) ;
#54 = AXIS2_PLACEMENT_3D ( 'NONE', #110, #176, #128 ) ;
#55 = PRODUCT_DEFINITION ( 'General', '', #79, #177 ) ;
#56 = EDGE_CURVE ( 'NONE', #138, #43, #80, .T. ) ;
#57 = CARTESIAN_POINT ( 'NONE',  ( 0.000000000000000000, 0.000000000000000000, 0.000000000000000000 ) ) ;
#58 = DIRECTION ( 'NONE',  ( 9.860761315262649757E-32, -1.000000000000000000, -3.017156424979430109E-64 ) ) ;
#59 = DIRECTION ( 'NONE',  ( 1.000000000000000000, 9.860761315262649757E-32, -3.059760122486104986E-33 ) ) ;
#60 = AXIS2_PLACEMENT_3D ( 'NONE', #34, #58, #85 ) ;
#61 = COORDINATED_UNIVERSAL_TIME_OFFSET ( 10, 0, .AHEAD. ) ;
#62 = EDGE_CURVE ( 'NONE', #43, #12, #157, .T. ) ;
#63 = APPROVAL_STATUS ( 'not_yet_approved' ) ;
#64 = PERSON_AND_ORGANIZATION_ROLE ( 'design_owner' ) ;
#65 = TOROIDAL_SURFACE ( 'NONE', #77, 6.500000000000000000, 0.7500000000000000000 ) ;
#66 = ORIENTED_EDGE ( 'NONE', *, *, #62, .T. ) ;
#67 = CIRCLE ( 'NONE', #17, 0.7499999999999997780 ) ;
#68 = ORIENTED_EDGE ( 'NONE', *, *, #93, .T. ) ;
#69 = DIRECTION ( 'NONE',  ( 1.000000000000000000, 9.860761315262658515E-32, 0.000000000000000000 ) ) ;
#70 = CIRCLE ( 'NONE', #54, 5.750000000000000000 ) ;
#71 = DIRECTION ( 'NONE',  ( 1.000000000000000000, 0.000000000000000000, -3.059760122486110117E-33 ) ) ;
#72 = DIRECTION ( 'NONE',  ( 1.224646799147351975E-16, 1.000000000000000000, -3.747125440161319418E-49 ) ) ;
#73 =( LENGTH_UNIT ( ) NAMED_UNIT ( * ) SI_UNIT ( .MILLI., .METRE. ) );
#74 = CIRCLE ( 'NONE', #33, 7.250000000000000000 ) ;
#75 = PERSON_AND_ORGANIZATION_ROLE ( 'classification_officer' ) ;
#76 = MECHANICAL_CONTEXT ( 'NONE', #150, 'mechanical' ) ;
#77 = AXIS2_PLACEMENT_3D ( 'NONE', #111, #3, #175 ) ;
#78 = PERSON_AND_ORGANIZATION ( #18446744073709551615, #18446744073709551615 ) ;
#79 = PRODUCT_DEFINITION_FORMATION_WITH_SPECIFIED_SOURCE ( 'Symmetric', '', #155, .NOT_KNOWN. ) ;
#80 = CIRCLE ( 'NONE', #40, 0.7499999999999997780 ) ;
#81 = CARTESIAN_POINT ( 'NONE',  ( 7.250000000000000000, 7.149051953565419487E-31, -2.218326088802429869E-32 ) ) ;
#82 = TOROIDAL_SURFACE ( 'NONE', #87, 6.500000000000000000, 0.7500000000000000000 ) ;
#83 =( NAMED_UNIT ( * ) PLANE_ANGLE_UNIT ( ) SI_UNIT ( $, .RADIAN. ) );
#84 = CC_DESIGN_PERSON_AND_ORGANIZATION_ASSIGNMENT ( #130, #181, ( #79 ) ) ;
#85 = DIRECTION ( 'NONE',  ( 1.000000000000000000, 9.860761315262658515E-32, 0.000000000000000000 ) ) ;
#86 = DATE_TIME_ROLE ( 'creation_date' ) ;
#87 = AXIS2_PLACEMENT_3D ( 'NONE', #57, #19, #143 ) ;
#88 = DATE_AND_TIME ( #147, #188 ) ;
#89 = ADVANCED_FACE ( 'NONE', ( #126 ), #154, .T. ) ;
#90 = PERSON_AND_ORGANIZATION_ROLE ( 'design_supplier' ) ;
#91 = COORDINATED_UNIVERSAL_TIME_OFFSET ( 10, 0, .AHEAD. ) ;
#92 = EDGE_LOOP ( 'NONE', ( #141, #53, #189, #121 ) ) ;
#93 = EDGE_CURVE ( 'NONE', #12, #43, #74, .T. ) ;
#94 = EDGE_LOOP ( 'NONE', ( #185, #136, #11, #120 ) ) ;
#95 = APPROVAL ( #63, 'Coincident' ) ;
#96 = AXIS2_PLACEMENT_3D ( 'NONE', #45, #22, #169 ) ;
#97 =( NAMED_UNIT ( * ) SI_UNIT ( $, .STERADIAN. ) SOLID_ANGLE_UNIT ( ) );
#98 = CARTESIAN_POINT ( 'NONE',  ( 0.000000000000000000, 0.000000000000000000, 0.000000000000000000 ) ) ;
#99 = MANIFOLD_SOLID_BREP ( 'NONE', #13 ) ;
#100 = DIRECTION ( 'NONE',  ( 3.059760122486110117E-33, 0.000000000000000000, 1.000000000000000000 ) ) ;
#101 = CARTESIAN_POINT ( 'NONE',  ( -6.500000000000000000, 7.960204194457789560E-16, -1.988844079615965076E-32 ) ) ;
#102 = APPROVAL_STATUS ( 'not_yet_approved' ) ;
#103 = PERSON_AND_ORGANIZATION ( #18446744073709551615, #18446744073709551615 ) ;
#104 = TOROIDAL_SURFACE ( 'NONE', #144, 6.500000000000000000, 0.7500000000000000000 ) ;
#105 = PERSON_AND_ORGANIZATION ( #18446744073709551615, #18446744073709551615 ) ;
#106 = PERSON_AND_ORGANIZATION_ROLE ( 'creator' ) ;
#107 = EDGE_CURVE ( 'NONE', #12, #42, #67, .T. ) ;
#108 = EDGE_CURVE ( 'NONE', #43, #138, #132, .T. ) ;
#109 = CC_DESIGN_APPROVAL ( #5, ( #55 ) ) ;
#110 = CARTESIAN_POINT ( 'NONE',  ( -2.810344080120989754E-49, 0.000000000000000000, -9.184850993605141042E-17 ) ) ;
#111 = CARTESIAN_POINT ( 'NONE',  ( 0.000000000000000000, 0.000000000000000000, 0.000000000000000000 ) ) ;
#112 = CIRCLE ( 'NONE', #135, 0.7499999999999997780 ) ;
#113 = UNCERTAINTY_MEASURE_WITH_UNIT (LENGTH_MEASURE( 1.000000000000000082E-05 ), #73, 'distance_accuracy_value', 'NONE');
#114 = COORDINATED_UNIVERSAL_TIME_OFFSET ( 10, 0, .AHEAD. ) ;
#115 = CC_DESIGN_PERSON_AND_ORGANIZATION_ASSIGNMENT ( #180, #106, ( #55 ) ) ;
#116 = COORDINATED_UNIVERSAL_TIME_OFFSET ( 10, 0, .AHEAD. ) ;
#117 = APPROVAL_PERSON_ORGANIZATION ( #129, #173, #6 ) ;
#118 = CALENDAR_DATE ( 2026, 22, 6 ) ;
#119 = APPLICATION_PROTOCOL_DEFINITION ( 'international standard', 'config_control_design', 1994, #20 ) ;
#120 = ORIENTED_EDGE ( 'NONE', *, *, #48, .T. ) ;
#121 = ORIENTED_EDGE ( 'NONE', *, *, #56, .T. ) ;
#122 = CARTESIAN_POINT ( 'NONE',  ( -7.250000000000000000, 8.878689293818301199E-16, 2.218326088802429869E-32 ) ) ;
#123 = LOCAL_TIME ( 18, 49, 26.00000000000000000, #91 ) ;
#124 = FACE_OUTER_BOUND ( 'NONE', #187, .T. ) ;
#125 = EDGE_CURVE ( 'NONE', #42, #138, #70, .T. ) ;
#126 = FACE_OUTER_BOUND ( 'NONE', #94, .T. ) ;
#127 = DIRECTION ( 'NONE',  ( 1.000000000000000000, 0.000000000000000000, -2.093402113464386856E-33 ) ) ;
#128 = DIRECTION ( 'NONE',  ( 1.000000000000000000, 0.000000000000000000, -2.093402113464386856E-33 ) ) ;
#129 = PERSON_AND_ORGANIZATION ( #18446744073709551615, #18446744073709551615 ) ;
#130 = PERSON_AND_ORGANIZATION ( #18446744073709551615, #18446744073709551615 ) ;
#131 = CALENDAR_DATE ( 2026, 22, 6 ) ;
#132 = CIRCLE ( 'NONE', #60, 0.7499999999999997780 ) ;
#133 = COORDINATED_UNIVERSAL_TIME_OFFSET ( 10, 0, .AHEAD. ) ;
#134 = CC_DESIGN_PERSON_AND_ORGANIZATION_ASSIGNMENT ( #183, #90, ( #79 ) ) ;
#135 = AXIS2_PLACEMENT_3D ( 'NONE', #101, #72, #161 ) ;
#136 = ORIENTED_EDGE ( 'NONE', *, *, #56, .F. ) ;
#137 = ORIENTED_EDGE ( 'NONE', *, *, #107, .F. ) ;
#138 = VERTEX_POINT ( 'NONE', #145 ) ;
#139 = AXIS2_PLACEMENT_3D ( 'NONE', #159, #46, #127 ) ;
#140 = CC_DESIGN_PERSON_AND_ORGANIZATION_ASSIGNMENT ( #78, #64, ( #155 ) ) ;
#141 = ORIENTED_EDGE ( 'NONE', *, *, #93, .F. ) ;
#142 = FACE_OUTER_BOUND ( 'NONE', #52, .T. ) ;
#143 = DIRECTION ( 'NONE',  ( 1.000000000000000000, 9.860761315262649757E-32, -3.059760122486104986E-33 ) ) ;
#144 = AXIS2_PLACEMENT_3D ( 'NONE', #44, #47, #59 ) ;
#145 = CARTESIAN_POINT ( 'NONE',  ( 5.750000000000000000, 5.669937756276019724E-31, -9.184850993605141042E-17 ) ) ;
#146 = AXIS2_PLACEMENT_3D ( 'NONE', #15, #1, #71 ) ;
#147 = CALENDAR_DATE ( 2026, 22, 6 ) ;
#148 = APPROVAL_DATE_TIME ( #88, #5 ) ;
#149 = APPROVAL_DATE_TIME ( #182, #173 ) ;
#150 = APPLICATION_CONTEXT ( 'configuration controlled 3d designs of mechanical parts and assemblies' ) ;
#151 = ADVANCED_FACE ( 'NONE', ( #30 ), #65, .T. ) ;
#152 = ORIENTED_EDGE ( 'NONE', *, *, #108, .F. ) ;
#153 = ORIENTED_EDGE ( 'NONE', *, *, #162, .F. ) ;
#154 = TOROIDAL_SURFACE ( 'NONE', #2, 6.500000000000000000, 0.7500000000000000000 ) ;
#155 = PRODUCT ( 'ORING-11.5X1.5-BUNA-70A_9262K523.STEP', 'ORING-11.5X1.5-BUNA-70A_9262K523.STEP', '', ( #76 ) ) ;
#156 = SECURITY_CLASSIFICATION ( '', '', #36 ) ;
#157 = CIRCLE ( 'NONE', #146, 7.250000000000000000 ) ;
#158 = DIRECTION ( 'NONE',  ( 1.000000000000000000, 9.860761315262649757E-32, -3.059760122486104986E-33 ) ) ;
#159 = CARTESIAN_POINT ( 'NONE',  ( -2.810344080120989754E-49, 0.000000000000000000, -9.184850993605141042E-17 ) ) ;
#160 = DIRECTION ( 'NONE',  ( 9.860761315262649757E-32, -1.000000000000000000, -3.017156424979430109E-64 ) ) ;
#161 = DIRECTION ( 'NONE',  ( -1.000000000000000000, 1.224646799147353454E-16, 0.000000000000000000 ) ) ;
#162 = EDGE_CURVE ( 'NONE', #138, #42, #184, .T. ) ;
#163 = APPROVAL_DATE_TIME ( #49, #95 ) ;
#164 = APPROVAL_PERSON_ORGANIZATION ( #105, #5, #38 ) ;
#165 = CALENDAR_DATE ( 2026, 22, 6 ) ;
#166 = CALENDAR_DATE ( 2026, 22, 6 ) ;
#167 = ADVANCED_FACE ( 'NONE', ( #124 ), #82, .T. ) ;
#168 = ADVANCED_BREP_SHAPE_REPRESENTATION ( 'ORING-11.5X1.5-BUNA-70A_9262K523.STEP', ( #99, #96 ), #190 ) ;
#169 = DIRECTION ( 'NONE',  ( 1.000000000000000000, 0.000000000000000000, 0.000000000000000000 ) ) ;
#170 = CC_DESIGN_SECURITY_CLASSIFICATION ( #156, ( #79 ) ) ;
#171 = ORIENTED_EDGE ( 'NONE', *, *, #107, .T. ) ;
#172 = CC_DESIGN_APPROVAL ( #173, ( #156 ) ) ;
#173 = APPROVAL ( #7, 'Coincident' ) ;
#174 = CARTESIAN_POINT ( 'NONE',  ( -6.500000000000000000, 7.960204194457789560E-16, -1.988844079615965076E-32 ) ) ;
#175 = DIRECTION ( 'NONE',  ( 1.000000000000000000, 9.860761315262649757E-32, -3.059760122486104986E-33 ) ) ;
#176 = DIRECTION ( 'NONE',  ( 2.093402113464384804E-33, 0.000000000000000000, 1.000000000000000000 ) ) ;
#177 = DESIGN_CONTEXT ( 'detailed design', #20, 'design' ) ;
#178 = CARTESIAN_POINT ( 'NONE',  ( 0.000000000000000000, 0.000000000000000000, 0.000000000000000000 ) ) ;
#179 = CC_DESIGN_DATE_AND_TIME_ASSIGNMENT ( #50, #37, ( #156 ) ) ;
#180 = PERSON_AND_ORGANIZATION ( #18446744073709551615, #18446744073709551615 ) ;
#181 = PERSON_AND_ORGANIZATION_ROLE ( 'creator' ) ;
#182 = DATE_AND_TIME ( #118, #123 ) ;
#183 = PERSON_AND_ORGANIZATION ( #18446744073709551615, #18446744073709551615 ) ;
#184 = CIRCLE ( 'NONE', #139, 5.750000000000000000 ) ;
#185 = ORIENTED_EDGE ( 'NONE', *, *, #62, .F. ) ;
#186 = ORIENTED_EDGE ( 'NONE', *, *, #125, .F. ) ;
#187 = EDGE_LOOP ( 'NONE', ( #152, #66, #171, #153 ) ) ;
#188 = LOCAL_TIME ( 18, 49, 26.00000000000000000, #133 ) ;
#189 = ORIENTED_EDGE ( 'NONE', *, *, #125, .T. ) ;
#190 =( GEOMETRIC_REPRESENTATION_CONTEXT ( 3 ) GLOBAL_UNCERTAINTY_ASSIGNED_CONTEXT ( ( #113 ) ) GLOBAL_UNIT_ASSIGNED_CONTEXT ( ( #73, #83, #97 ) ) REPRESENTATION_CONTEXT ( 'NONE', 'WORKASPACE' ) );
#191 = DIRECTION ( 'NONE',  ( 1.224646799147351975E-16, 1.000000000000000000, -3.747125440161319418E-49 ) ) ;
ENDSEC;
END-ISO-10303-21;
