ISO-10303-21;
HEADER;
FILE_DESCRIPTION (( 'STEP AP203' ),
    '1' );
FILE_NAME ('pan cross head screw_as.STEP',
    '2026-06-22T08:49:50',
    ( 'localuser' ),
    ( '' ),
    'SwSTEP 2.0',
    'SolidWorks 2025',
    '' );
FILE_SCHEMA (( 'CONFIG_CONTROL_DESIGN' ));
ENDSEC;

DATA;
#1 = CARTESIAN_POINT ( 'NONE',  ( 1.750000000000000000, 0.5774823318189999943, 0.3190000000000001723 ) ) ;
#2 = AXIS2_PLACEMENT_3D ( 'NONE', #52, #1165, #705 ) ;
#3 = CARTESIAN_POINT ( 'NONE',  ( 1.750000000000000000, 0.000000000000000000, 0.000000000000000000 ) ) ;
#4 = EDGE_LOOP ( 'NONE', ( #361, #684, #1100, #1094, #462, #927, #15, #6, #350, #412, #1030 ) ) ;
#5 = ADVANCED_FACE ( 'NONE', ( #844 ), #377, .F. ) ;
#6 = ORIENTED_EDGE ( 'NONE', *, *, #719, .T. ) ;
#7 = ORIENTED_EDGE ( 'NONE', *, *, #1200, .T. ) ;
#8 = DIRECTION ( 'NONE',  ( 0.000000000000000000, 0.000000000000000000, 1.000000000000000000 ) ) ;
#9 = DIRECTION ( 'NONE',  ( 0.000000000000000000, 0.000000000000000000, -1.000000000000000000 ) ) ;
#10 = ORIENTED_EDGE ( 'NONE', *, *, #747, .F. ) ;
#11 = ORIENTED_EDGE ( 'NONE', *, *, #1172, .T. ) ;
#12 = ORIENTED_EDGE ( 'NONE', *, *, #225, .F. ) ;
#13 = DIRECTION ( 'NONE',  ( 1.000000000000000000, 0.000000000000000000, 5.432077608532796338E-17 ) ) ;
#14 = DIRECTION ( 'NONE',  ( -0.3090169943749411230, 0.000000000000000000, 0.9510565162951555296 ) ) ;
#15 = ORIENTED_EDGE ( 'NONE', *, *, #967, .T. ) ;
#16 = ORIENTED_EDGE ( 'NONE', *, *, #725, .T. ) ;
#17 = VERTEX_POINT ( 'NONE', #393 ) ;
#18 = DATE_TIME_ROLE ( 'classification_date' ) ;
#19 = EDGE_CURVE ( 'NONE', #105, #299, #1053, .T. ) ;
#20 = LINE ( 'NONE', #404, #766 ) ;
#21 = TOROIDAL_SURFACE ( 'NONE', #975, 1.800000000000000044, 0.2999999999999999889 ) ;
#22 = CARTESIAN_POINT ( 'NONE',  ( 1.938267595449616909, 2.458738205111587126E-33, -2.007712106726164865E-17 ) ) ;
#23 = CIRCLE ( 'NONE', #380, 4.912116431090188584 ) ;
#24 = DIRECTION ( 'NONE',  ( 0.000000000000000000, 0.000000000000000000, 1.000000000000000000 ) ) ;
#25 = ORIENTED_EDGE ( 'NONE', *, *, #719, .F. ) ;
#26 = APPROVAL_DATE_TIME ( #418, #1179 ) ;
#27 = ADVANCED_FACE ( 'NONE', ( #741 ), #1139, .T. ) ;
#28 = DIRECTION ( 'NONE',  ( -1.000000000000000000, -0.000000000000000000, -0.000000000000000000 ) ) ;
#29 = CARTESIAN_POINT ( 'NONE',  ( 2.699999999999999734, 0.000000000000000000, 0.000000000000000000 ) ) ;
#30 = FACE_OUTER_BOUND ( 'NONE', #854, .T. ) ;
#31 = VERTEX_POINT ( 'NONE', #316 ) ;
#32 = CARTESIAN_POINT ( 'NONE',  ( 0.9000171380350704409, -0.3189999999999980629, -0.5538244226237981627 ) ) ;
#33 = DIRECTION ( 'NONE',  ( 1.000000000000000000, 0.000000000000000000, 0.000000000000000000 ) ) ;
#34 = ADVANCED_FACE ( 'NONE', ( #874 ), #326, .F. ) ;
#35 = CARTESIAN_POINT ( 'NONE',  ( 2.399999999999999911, 0.000000000000000000, 2.799999999999999822 ) ) ;
#36 = CALENDAR_DATE ( 2026, 22, 6 ) ;
#37 = CARTESIAN_POINT ( 'NONE',  ( 0.1968062524693179050, 1.351876038578302186, -0.3189999999999998392 ) ) ;
#38 = CONICAL_SURFACE ( 'NONE', #880, 0.5794280790988696195, 0.06981317007976585443 ) ;
#39 = DIRECTION ( 'NONE',  ( 0.000000000000000000, 0.000000000000000000, 1.000000000000000000 ) ) ;
#40 = VECTOR ( 'NONE', #14, 1000.000000000000114 ) ;
#41 = LINE ( 'NONE', #699, #251 ) ;
#42 = AXIS2_PLACEMENT_3D ( 'NONE', #544, #1116, #743 ) ;
#43 = ADVANCED_FACE ( 'NONE', ( #603 ), #38, .F. ) ;
#44 = DIRECTION ( 'NONE',  ( 1.000000000000000000, 0.000000000000000000, 0.000000000000000000 ) ) ;
#45 = CARTESIAN_POINT ( 'NONE',  ( 1.750000000000000000, 0.3189999999999981184, 0.4837105527567160945 ) ) ;
#46 = DIRECTION ( 'NONE',  ( -1.000000000000000000, -0.000000000000000000, -0.000000000000000000 ) ) ;
#47 = CARTESIAN_POINT ( 'NONE',  ( 1.750000000000000000, -0.5774823318188626597, 0.3190000000000000613 ) ) ;
#48 = CARTESIAN_POINT ( 'NONE',  ( 1.750000000000000000, -0.4837105527567142071, -0.3189999999999997837 ) ) ;
#49 = DIRECTION ( 'NONE',  ( 1.000000000000000000, 0.000000000000000000, 0.000000000000000000 ) ) ;
#50 = DIRECTION ( 'NONE',  ( 0.000000000000000000, 1.000000000000000000, 0.000000000000000000 ) ) ;
#51 = ADVANCED_FACE ( 'NONE', ( #776 ), #1204, .F. ) ;
#52 = CARTESIAN_POINT ( 'NONE',  ( 2.699999999999999734, 0.000000000000000000, 0.000000000000000000 ) ) ;
#53 = DIRECTION ( 'NONE',  ( 1.000000000000000000, 0.000000000000000000, 0.000000000000000000 ) ) ;
#54 = VECTOR ( 'NONE', #203, 1000.000000000000000 ) ;
#55 = VERTEX_POINT ( 'NONE', #499 ) ;
#56 = AXIS2_PLACEMENT_3D ( 'NONE', #908, #711, #1070 ) ;
#57 = AXIS2_PLACEMENT_3D ( 'NONE', #441, #463, #1096 ) ;
#58 = EDGE_CURVE ( 'NONE', #833, #667, #419, .T. ) ;
#59 = LINE ( 'NONE', #795, #421 ) ;
#60 = CARTESIAN_POINT ( 'NONE',  ( 1.750000000000000000, 0.000000000000000000, 0.000000000000000000 ) ) ;
#61 = ORIENTED_EDGE ( 'NONE', *, *, #1182, .F. ) ;
#62 = CARTESIAN_POINT ( 'NONE',  ( 0.2561988399095725955, -0.3190000000000021707, 0.6049733911078172266 ) ) ;
#63 = CARTESIAN_POINT ( 'NONE',  ( 1.466957343548594084, -0.5072879323466533696, 0.3190000000000000058 ) ) ;
#64 = PRODUCT_DEFINITION ( 'General', '', #865, #1115 ) ;
#65 = CARTESIAN_POINT ( 'NONE',  ( 0.04901266702628595540, 0.6212595502153904770, 0.3190000000000000613 ) ) ;
#66 = EDGE_CURVE ( 'NONE', #362, #1087, #130, .T. ) ;
#67 = ORIENTED_EDGE ( 'NONE', *, *, #930, .T. ) ;
#68 = APPLICATION_PROTOCOL_DEFINITION ( 'international standard', 'config_control_design', 1994, #169 ) ;
#69 = CARTESIAN_POINT ( 'NONE',  ( 1.750000000000000000, 0.000000000000000000, 0.000000000000000000 ) ) ;
#70 = DIRECTION ( 'NONE',  ( -5.437892401240052077E-17, -1.000000000000000000, -3.538417933815248060E-15 ) ) ;
#71 = VERTEX_POINT ( 'NONE', #35 ) ;
#72 = EDGE_CURVE ( 'NONE', #764, #1187, #609, .T. ) ;
#73 = EDGE_LOOP ( 'NONE', ( #1002, #949, #1134 ) ) ;
#74 = AXIS2_PLACEMENT_3D ( 'NONE', #1142, #1042, #230 ) ;
#75 = LINE ( 'NONE', #558, #1015 ) ;
#76 = CIRCLE ( 'NONE', #994, 4.989813523569793574 ) ;
#77 = EDGE_LOOP ( 'NONE', ( #255, #1118, #274, #803 ) ) ;
#78 = AXIS2_PLACEMENT_3D ( 'NONE', #287, #1122, #929 ) ;
#79 = CARTESIAN_POINT ( 'NONE',  ( 1.750000000000000000, 0.000000000000000000, 0.000000000000000000 ) ) ;
#80 = CARTESIAN_POINT ( 'NONE',  ( 1.750000000000000000, 0.3189999999999977853, 0.5774823318190009935 ) ) ;
#81 = ORIENTED_EDGE ( 'NONE', *, *, #525, .T. ) ;
#82 = ORIENTED_EDGE ( 'NONE', *, *, #162, .F. ) ;
#83 = DIRECTION ( 'NONE',  ( -0.000000000000000000, 0.000000000000000000, 1.000000000000000000 ) ) ;
#84 = CARTESIAN_POINT ( 'NONE',  ( 1.750000000000000000, 0.03166563246692057076, 0.5787787701938974516 ) ) ;
#85 = ORIENTED_EDGE ( 'NONE', *, *, #725, .F. ) ;
#86 = ORIENTED_EDGE ( 'NONE', *, *, #66, .T. ) ;
#87 = APPROVAL_STATUS ( 'not_yet_approved' ) ;
#88 = EDGE_LOOP ( 'NONE', ( #676, #81, #16, #500 ) ) ;
#89 = EDGE_CURVE ( 'NONE', #1140, #1020, #400, .T. ) ;
#90 = DIRECTION ( 'NONE',  ( -0.4461977533474077995, -0.8949343913984565413, 0.000000000000000000 ) ) ;
#91 = FACE_OUTER_BOUND ( 'NONE', #920, .T. ) ;
#92 = VERTEX_POINT ( 'NONE', #980 ) ;
#93 = VERTEX_POINT ( 'NONE', #1144 ) ;
#94 = AXIS2_PLACEMENT_3D ( 'NONE', #322, #693, #958 ) ;
#95 = CIRCLE ( 'NONE', #938, 0.5794280790988696195 ) ;
#96 = CIRCLE ( 'NONE', #799, 4.989813523569793574 ) ;
#97 = DIRECTION ( 'NONE',  ( -0.4461977533474640878, 0.8949343913984285637, 1.520830425370171181E-16 ) ) ;
#98 = CIRCLE ( 'NONE', #612, 1.800000000000000044 ) ;
#99 = LINE ( 'NONE', #568, #54 ) ;
#100 = ORIENTED_EDGE ( 'NONE', *, *, #700, .F. ) ;
#101 = ORIENTED_EDGE ( 'NONE', *, *, #855, .T. ) ;
#102 = VERTEX_POINT ( 'NONE', #139 ) ;
#103 = PLANE ( 'NONE',  #135 ) ;
#104 = DIRECTION ( 'NONE',  ( -1.000000000000000000, -0.000000000000000000, -0.000000000000000000 ) ) ;
#105 = VERTEX_POINT ( 'NONE', #1148 ) ;
#106 = ADVANCED_FACE ( 'NONE', ( #588 ), #627, .F. ) ;
#107 = PERSON_AND_ORGANIZATION_ROLE ( 'classification_officer' ) ;
#108 = LINE ( 'NONE', #1145, #864 ) ;
#109 = LINE ( 'NONE', #22, #914 ) ;
#110 = VERTEX_POINT ( 'NONE', #869 ) ;
#111 = VERTEX_POINT ( 'NONE', #406 ) ;
#112 = ADVANCED_FACE ( 'NONE', ( #30 ), #236, .F. ) ;
#113 = SHAPE_DEFINITION_REPRESENTATION ( #184, #664 ) ;
#114 = CARTESIAN_POINT ( 'NONE',  ( 1.750000000000000000, -0.5774823318188628818, 0.3190000000000000613 ) ) ;
#115 = ORIENTED_EDGE ( 'NONE', *, *, #754, .F. ) ;
#116 = AXIS2_PLACEMENT_3D ( 'NONE', #1117, #1194, #940 ) ;
#117 = CARTESIAN_POINT ( 'NONE',  ( 1.325421913600173252, 0.3189999999999980074, 0.5189056692713097663 ) ) ;
#118 = CIRCLE ( 'NONE', #176, 5.000000000000000000 ) ;
#119 = CC_DESIGN_APPROVAL ( #789, ( #64 ) ) ;
#120 = DIRECTION ( 'NONE',  ( 0.000000000000000000, 0.000000000000000000, -1.000000000000000000 ) ) ;
#121 = EDGE_LOOP ( 'NONE', ( #25, #261, #638 ) ) ;
#122 = DIRECTION ( 'NONE',  ( 0.000000000000000000, 1.000000000000000000, 9.387318994422970576E-17 ) ) ;
#123 = EDGE_CURVE ( 'NONE', #755, #449, #860, .T. ) ;
#124 = PLANE ( 'NONE',  #219 ) ;
#125 = LINE ( 'NONE', #228, #1010 ) ;
#126 = COORDINATED_UNIVERSAL_TIME_OFFSET ( 10, 0, .AHEAD. ) ;
#127 = CARTESIAN_POINT ( 'NONE',  ( 1.747775893070738107, 3.547973712022649386E-17, -0.5795641040826976509 ) ) ;
#128 = EDGE_CURVE ( 'NONE', #755, #944, #41, .T. ) ;
#129 = DIRECTION ( 'NONE',  ( 0.000000000000000000, 0.000000000000000000, 1.000000000000000000 ) ) ;
#130 = LINE ( 'NONE', #231, #300 ) ;
#131 = DIRECTION ( 'NONE',  ( 0.000000000000000000, 0.000000000000000000, -1.000000000000000000 ) ) ;
#132 = DIRECTION ( 'NONE',  ( 0.000000000000000000, 0.000000000000000000, 1.000000000000000000 ) ) ;
#133 = AXIS2_PLACEMENT_3D ( 'NONE', #437, #163, #538 ) ;
#134 = DIRECTION ( 'NONE',  ( -0.000000000000000000, 1.000000000000000000, 4.693659497211485288E-17 ) ) ;
#135 = AXIS2_PLACEMENT_3D ( 'NONE', #484, #554, #365 ) ;
#136 = VECTOR ( 'NONE', #1159, 1000.000000000000000 ) ;
#137 = FACE_OUTER_BOUND ( 'NONE', #209, .T. ) ;
#138 = CARTESIAN_POINT ( 'NONE',  ( 1.390238250696479438, -0.5138456564387234859, -0.3189999999999998392 ) ) ;
#139 = CARTESIAN_POINT ( 'NONE',  ( 1.750000000000000000, 0.5774823318189999943, -0.04744528728015411090 ) ) ;
#140 = EDGE_CURVE ( 'NONE', #948, #910, #545, .T. ) ;
#141 = CARTESIAN_POINT ( 'NONE',  ( 5.000000000000000000, 0.000000000000000000, 0.000000000000000000 ) ) ;
#142 = CARTESIAN_POINT ( 'NONE',  ( 1.325421913600173252, 0.5189056692713086560, -0.3189999999999997837 ) ) ;
#143 = FACE_OUTER_BOUND ( 'NONE', #894, .T. ) ;
#144 = ORIENTED_EDGE ( 'NONE', *, *, #695, .F. ) ;
#145 = EDGE_CURVE ( 'NONE', #1083, #1087, #125, .T. ) ;
#146 = CARTESIAN_POINT ( 'NONE',  ( 5.000000000000000000, 1.497277379610461766E-17, -0.3189999999999996172 ) ) ;
#147 = CARTESIAN_POINT ( 'NONE',  ( 1.750000000000000000, 0.5774823318189999943, -0.04744528728015411090 ) ) ;
#148 = PLANE ( 'NONE',  #1088 ) ;
#149 = AXIS2_PLACEMENT_3D ( 'NONE', #688, #771, #1047 ) ;
#150 = VECTOR ( 'NONE', #602, 1000.000000000000000 ) ;
#151 = EDGE_LOOP ( 'NONE', ( #348, #467, #813, #247 ) ) ;
#152 = AXIS2_PLACEMENT_3D ( 'NONE', #1034, #185, #646 ) ;
#153 = CC_DESIGN_DATE_AND_TIME_ASSIGNMENT ( #653, #1019, ( #64 ) ) ;
#154 = CARTESIAN_POINT ( 'NONE',  ( 1.750000000000000000, -0.04744528728015592195, 0.5774823318189997723 ) ) ;
#155 = EDGE_CURVE ( 'NONE', #1087, #866, #425, .T. ) ;
#156 = DIRECTION ( 'NONE',  ( 0.000000000000000000, 0.000000000000000000, 1.000000000000000000 ) ) ;
#157 = B_SPLINE_CURVE_WITH_KNOTS ( 'NONE', 3,
 ( #1050, #396, #32, #502, #971, #324, #951 ),
 .UNSPECIFIED., .F., .F.,
 ( 4, 3, 4 ),
 ( 2.893274888773719646E-05, 0.001309439242283416335, 0.001735472924055071232 ),
 .UNSPECIFIED. ) ;
#158 = CARTESIAN_POINT ( 'NONE',  ( 2.399999999999999911, 0.000000000000000000, 0.000000000000000000 ) ) ;
#159 = VERTEX_POINT ( 'NONE', #515 ) ;
#160 = PLANE ( 'NONE',  #222 ) ;
#161 = CARTESIAN_POINT ( 'NONE',  ( 1.750000000000000000, 0.5800752085685242365, -0.01588597765698619713 ) ) ;
#162 = EDGE_CURVE ( 'NONE', #652, #1195, #1154, .T. ) ;
#163 = DIRECTION ( 'NONE',  ( -0.4461977533474640878, 0.8949343913984285637, 1.520830425370171181E-16 ) ) ;
#164 = VERTEX_POINT ( 'NONE', #448 ) ;
#165 = VERTEX_POINT ( 'NONE', #1005 ) ;
#166 = PERSON_AND_ORGANIZATION_ROLE ( 'design_owner' ) ;
#167 = ORIENTED_EDGE ( 'NONE', *, *, #525, .F. ) ;
#168 = CARTESIAN_POINT ( 'NONE',  ( 2.399999999999999911, 2.204364238465235576E-16, -1.800000000000000044 ) ) ;
#169 = APPLICATION_CONTEXT ( 'configuration controlled 3d designs of mechanical parts and assemblies' ) ;
#170 = DIRECTION ( 'NONE',  ( -0.4461977533474077995, 3.124646727056647745E-15, -0.8949343913984565413 ) ) ;
#171 = CC_DESIGN_PERSON_AND_ORGANIZATION_ASSIGNMENT ( #950, #217, ( #865 ) ) ;
#172 = ORIENTED_EDGE ( 'NONE', *, *, #768, .F. ) ;
#173 = VERTEX_POINT ( 'NONE', #1177 ) ;
#174 = AXIS2_PLACEMENT_3D ( 'NONE', #763, #307, #832 ) ;
#175 = PERSON_AND_ORGANIZATION ( #18446744073709551615, #18446744073709551615 ) ;
#176 = AXIS2_PLACEMENT_3D ( 'NONE', #846, #389, #264 ) ;
#177 = LOCAL_TIME ( 18, 49, 50.00000000000000000, #822 ) ;
#178 = DIRECTION ( 'NONE',  ( 0.000000000000000000, 3.541714600763383141E-15, -1.000000000000000000 ) ) ;
#179 = CARTESIAN_POINT ( 'NONE',  ( 4.583548511049648333, 0.8352726050606650299, 1.419442590947335393E-16 ) ) ;
#180 = VERTEX_POINT ( 'NONE', #893 ) ;
#181 = ORIENTED_EDGE ( 'NONE', *, *, #1143, .F. ) ;
#182 = ADVANCED_FACE ( 'NONE', ( #811 ), #148, .F. ) ;
#183 = PERSON_AND_ORGANIZATION ( #18446744073709551615, #18446744073709551615 ) ;
#184 = PRODUCT_DEFINITION_SHAPE ( 'NONE', 'NONE',  #64 ) ;
#185 = DIRECTION ( 'NONE',  ( -0.4461977533474077995, 3.124646727056647745E-15, -0.8949343913984565413 ) ) ;
#186 = CARTESIAN_POINT ( 'NONE',  ( 2.699999999999999734, 0.000000000000000000, 0.000000000000000000 ) ) ;
#187 = ORIENTED_EDGE ( 'NONE', *, *, #921, .F. ) ;
#188 = ORIENTED_EDGE ( 'NONE', *, *, #947, .T. ) ;
#189 = ADVANCED_FACE ( 'NONE', ( #630 ), #901, .T. ) ;
#190 = FACE_OUTER_BOUND ( 'NONE', #592, .T. ) ;
#191 = B_SPLINE_CURVE_WITH_KNOTS ( 'NONE', 3,
 ( #212, #702, #207, #686 ),
 .UNSPECIFIED., .F., .F.,
 ( 4, 4 ),
 ( 0.000000000000000000, 0.5000000000000213163 ),
 .UNSPECIFIED. ) ;
#192 = FACE_OUTER_BOUND ( 'NONE', #88, .T. ) ;
#193 = ORIENTED_EDGE ( 'NONE', *, *, #343, .F. ) ;
#194 = CARTESIAN_POINT ( 'NONE',  ( 1.750000000000000000, 0.000000000000000000, 0.000000000000000000 ) ) ;
#195 = EDGE_LOOP ( 'NONE', ( #826, #758, #188, #1198 ) ) ;
#196 = AXIS2_PLACEMENT_3D ( 'NONE', #194, #570, #577 ) ;
#197 = AXIS2_PLACEMENT_3D ( 'NONE', #60, #444, #734 ) ;
#198 = CC_DESIGN_PERSON_AND_ORGANIZATION_ASSIGNMENT ( #175, #553, ( #64 ) ) ;
#199 = CIRCLE ( 'NONE', #477, 0.6983727004500033253 ) ;
#200 = LINE ( 'NONE', #561, #221 ) ;
#201 = LOCAL_TIME ( 18, 49, 50.00000000000000000, #401 ) ;
#202 = EDGE_CURVE ( 'NONE', #1095, #657, #1161, .T. ) ;
#203 = DIRECTION ( 'NONE',  ( -0.000000000000000000, -0.000000000000000000, 1.000000000000000000 ) ) ;
#204 = ORIENTED_EDGE ( 'NONE', *, *, #89, .T. ) ;
#205 = ORIENTED_EDGE ( 'NONE', *, *, #1057, .T. ) ;
#206 = CARTESIAN_POINT ( 'NONE',  ( 1.750000000000000000, 0.5774823318189999943, -0.3189999999999997837 ) ) ;
#207 = CARTESIAN_POINT ( 'NONE',  ( 1.750000000000000000, -0.01583282218951150358, 0.5794280790988696195 ) ) ;
#208 = ADVANCED_FACE ( 'NONE', ( #143 ), #909, .T. ) ;
#209 = EDGE_LOOP ( 'NONE', ( #213, #367, #368 ) ) ;
#210 = ORIENTED_EDGE ( 'NONE', *, *, #123, .T. ) ;
#211 = FACE_OUTER_BOUND ( 'NONE', #563, .T. ) ;
#212 = CARTESIAN_POINT ( 'NONE',  ( 1.750000000000000000, -0.04744528728015592195, 0.5774823318189997723 ) ) ;
#213 = ORIENTED_EDGE ( 'NONE', *, *, #850, .F. ) ;
#214 = DIRECTION ( 'NONE',  ( 0.000000000000000000, -3.585354528787362765E-15, 1.000000000000000000 ) ) ;
#215 = EDGE_LOOP ( 'NONE', ( #292, #7, #101, #1040, #560, #666, #827, #1044, #172, #643, #985, #720, #749 ) ) ;
#216 = ADVANCED_FACE ( 'NONE', ( #534 ), #730, .T. ) ;
#217 = PERSON_AND_ORGANIZATION_ROLE ( 'creator' ) ;
#218 = CARTESIAN_POINT ( 'NONE',  ( 8.399999999999998579, 1.836970198721029934E-16, -1.500000000000000000 ) ) ;
#219 = AXIS2_PLACEMENT_3D ( 'NONE', #325, #503, #1147 ) ;
#220 = CARTESIAN_POINT ( 'NONE',  ( 1.750000000000000000, 0.000000000000000000, 0.000000000000000000 ) ) ;
#221 = VECTOR ( 'NONE', #851, 1000.000000000000000 ) ;
#222 = AXIS2_PLACEMENT_3D ( 'NONE', #626, #887, #524 ) ;
#223 = DIRECTION ( 'NONE',  ( 0.000000000000000000, 0.000000000000000000, 1.000000000000000000 ) ) ;
#224 = COORDINATED_UNIVERSAL_TIME_OFFSET ( 10, 0, .AHEAD. ) ;
#225 = EDGE_CURVE ( 'NONE', #17, #71, #234, .T. ) ;
#226 = CARTESIAN_POINT ( 'NONE',  ( 0.04901266702631464772, 0.3190000000000021152, -0.6212595502155094929 ) ) ;
#227 = CARTESIAN_POINT ( 'NONE',  ( 0.000000000000000000, 0.000000000000000000, 0.000000000000000000 ) ) ;
#228 = CARTESIAN_POINT ( 'NONE',  ( 0.000000000000000000, -1.449999999999999956, -0.3190000000000002833 ) ) ;
#229 = CARTESIAN_POINT ( 'NONE',  ( 1.750000000000000000, 0.04744528728182638433, -0.5774823318188625487 ) ) ;
#230 = DIRECTION ( 'NONE',  ( 0.000000000000000000, 1.000000000000000000, 9.777739695359033778E-17 ) ) ;
#231 = CARTESIAN_POINT ( 'NONE',  ( 1.750000000000000000, -0.5774823318188626597, 0.3190000000000000613 ) ) ;
#232 = CARTESIAN_POINT ( 'NONE',  ( 1.750000000000000000, 0.000000000000000000, 0.000000000000000000 ) ) ;
#233 = CARTESIAN_POINT ( 'NONE',  ( 1.750000000000000000, 0.5800752085687961301, 0.01588597764705289989 ) ) ;
#234 = CIRCLE ( 'NONE', #992, 2.799999999999999822 ) ;
#235 = ADVANCED_FACE ( 'NONE', ( #336 ), #452, .F. ) ;
#236 = PLANE ( 'NONE',  #1146 ) ;
#237 = AXIS2_PLACEMENT_3D ( 'NONE', #114, #867, #122 ) ;
#238 = LINE ( 'NONE', #431, #456 ) ;
#239 = CARTESIAN_POINT ( 'NONE',  ( 1.750000000000000000, 0.5774823318198123445, 0.04744528727026526421 ) ) ;
#240 = CARTESIAN_POINT ( 'NONE',  ( 1.750000000000000000, 0.3189999999999977853, 0.5774823318190009935 ) ) ;
#241 = EDGE_CURVE ( 'NONE', #911, #93, #571, .T. ) ;
#242 = APPLICATION_CONTEXT ( 'configuration controlled 3d designs of mechanical parts and assemblies' ) ;
#243 = ORIENTED_EDGE ( 'NONE', *, *, #1121, .F. ) ;
#244 = DIRECTION ( 'NONE',  ( 0.000000000000000000, 0.000000000000000000, 1.000000000000000000 ) ) ;
#245 = CARTESIAN_POINT ( 'NONE',  ( 8.399999999999998579, 0.000000000000000000, 0.000000000000000000 ) ) ;
#246 = DIRECTION ( 'NONE',  ( 0.000000000000000000, 0.000000000000000000, -1.000000000000000000 ) ) ;
#247 = ORIENTED_EDGE ( 'NONE', *, *, #1166, .F. ) ;
#248 = ADVANCED_FACE ( 'NONE', ( #360 ), #1000, .T. ) ;
#249 = DIRECTION ( 'NONE',  ( 0.000000000000000000, 0.000000000000000000, 1.000000000000000000 ) ) ;
#250 = CARTESIAN_POINT ( 'NONE',  ( 0.4745355439218831295, -0.5878107288938828612, 0.3190000000000000058 ) ) ;
#251 = VECTOR ( 'NONE', #861, 1000.000000000000000 ) ;
#252 = DIRECTION ( 'NONE',  ( -1.000000000000000000, -0.000000000000000000, -0.000000000000000000 ) ) ;
#253 = AXIS2_PLACEMENT_3D ( 'NONE', #220, #972, #132 ) ;
#254 = CIRCLE ( 'NONE', #696, 0.5794280790988696195 ) ;
#255 = ORIENTED_EDGE ( 'NONE', *, *, #1182, .T. ) ;
#256 = CIRCLE ( 'NONE', #303, 1.500000000000000000 ) ;
#257 = LINE ( 'NONE', #1068, #136 ) ;
#258 = EDGE_CURVE ( 'NONE', #388, #948, #286, .T. ) ;
#259 = DIRECTION ( 'NONE',  ( -0.000000000000000000, -0.000000000000000000, 1.000000000000000000 ) ) ;
#260 = CARTESIAN_POINT ( 'NONE',  ( 0.4633747231012212975, 0.5885554627304597775, 0.3190000000000000613 ) ) ;
#261 = ORIENTED_EDGE ( 'NONE', *, *, #812, .F. ) ;
#262 = ORIENTED_EDGE ( 'NONE', *, *, #659, .F. ) ;
#263 = DIRECTION ( 'NONE',  ( 0.8949343913984284526, 0.4461977533474639768, 1.108902641584193010E-16 ) ) ;
#264 = DIRECTION ( 'NONE',  ( 0.000000000000000000, 1.000000000000000000, 1.224646799147353207E-16 ) ) ;
#265 = CARTESIAN_POINT ( 'NONE',  ( 1.750000000000000000, -0.5774823318188626597, 0.3190000000000000613 ) ) ;
#266 = ORIENTED_EDGE ( 'NONE', *, *, #687, .F. ) ;
#267 = ORIENTED_EDGE ( 'NONE', *, *, #601, .T. ) ;
#268 = APPROVAL_DATE_TIME ( #1025, #789 ) ;
#269 = ORIENTED_EDGE ( 'NONE', *, *, #1057, .F. ) ;
#270 = FACE_OUTER_BOUND ( 'NONE', #344, .T. ) ;
#271 = CARTESIAN_POINT ( 'NONE',  ( 0.8575369645584041134, 0.000000000000000000, 0.000000000000000000 ) ) ;
#272 = ORIENTED_EDGE ( 'NONE', *, *, #58, .F. ) ;
#273 = EDGE_CURVE ( 'NONE', #299, #953, #818, .T. ) ;
#274 = ORIENTED_EDGE ( 'NONE', *, *, #426, .T. ) ;
#275 = AXIS2_PLACEMENT_3D ( 'NONE', #683, #760, #1196 ) ;
#276 = AXIS2_PLACEMENT_3D ( 'NONE', #271, #390, #739 ) ;
#277 = PERSON_AND_ORGANIZATION ( #18446744073709551615, #18446744073709551615 ) ;
#278 = CIRCLE ( 'NONE', #729, 4.912116431090248980 ) ;
#279 = ORIENTED_EDGE ( 'NONE', *, *, #19, .T. ) ;
#280 = LOCAL_TIME ( 18, 49, 50.00000000000000000, #369 ) ;
#281 = DIRECTION ( 'NONE',  ( 0.000000000000000000, 0.000000000000000000, 1.000000000000000000 ) ) ;
#282 = CARTESIAN_POINT ( 'NONE',  ( 1.750000000000000000, 0.5774823318189999943, 0.3190000000000001723 ) ) ;
#283 = VERTEX_POINT ( 'NONE', #1099 ) ;
#284 = ADVANCED_FACE ( 'NONE', ( #519 ), #1081, .F. ) ;
#285 = EDGE_LOOP ( 'NONE', ( #557, #267, #572, #384 ) ) ;
#286 = B_SPLINE_CURVE_WITH_KNOTS ( 'NONE', 3,
 ( #996, #342, #906, #723, #260, #636, #65 ),
 .UNSPECIFIED., .F., .F.,
 ( 4, 3, 4 ),
 ( 2.007000254345475973E-07, 0.001083265687282674921, 0.001706740853108255039 ),
 .UNSPECIFIED. ) ;
#287 = CARTESIAN_POINT ( 'NONE',  ( 0.8575369645584041134, 0.000000000000000000, 0.000000000000000000 ) ) ;
#288 = CARTESIAN_POINT ( 'NONE',  ( 0.04901266702631449507, -0.3189999999999977853, -0.6212595502155117133 ) ) ;
#289 = CARTESIAN_POINT ( 'NONE',  ( 0.9000171380350704409, 0.3189999999999978963, 0.5538244226237982737 ) ) ;
#290 = VERTEX_POINT ( 'NONE', #623 ) ;
#291 = ORIENTED_EDGE ( 'NONE', *, *, #898, .F. ) ;
#292 = ORIENTED_EDGE ( 'NONE', *, *, #386, .T. ) ;
#293 = LINE ( 'NONE', #828, #977 ) ;
#294 = EDGE_CURVE ( 'NONE', #649, #165, #433, .T. ) ;
#295 = ORIENTED_EDGE ( 'NONE', *, *, #839, .T. ) ;
#296 = DIRECTION ( 'NONE',  ( 0.8949343913984284526, -1.779671657563240299E-15, 0.4461977533474640323 ) ) ;
#297 = DIRECTION ( 'NONE',  ( 0.000000000000000000, -1.000000000000000000, 0.000000000000000000 ) ) ;
#298 = ORIENTED_EDGE ( 'NONE', *, *, #409, .T. ) ;
#299 = VERTEX_POINT ( 'NONE', #648 ) ;
#300 = VECTOR ( 'NONE', #706, 1000.000000000000000 ) ;
#301 = DATE_AND_TIME ( #1128, #767 ) ;
#302 = CIRCLE ( 'NONE', #1055, 4.912116431090188584 ) ;
#303 = AXIS2_PLACEMENT_3D ( 'NONE', #510, #685, #857 ) ;
#304 = EDGE_CURVE ( 'NONE', #764, #724, #727, .T. ) ;
#305 = CARTESIAN_POINT ( 'NONE',  ( 1.750000000000000000, 0.04744528728015188351, 0.5774823318190001054 ) ) ;
#306 = AXIS2_PLACEMENT_3D ( 'NONE', #146, #345, #704 ) ;
#307 = DIRECTION ( 'NONE',  ( -0.000000000000000000, 1.000000000000000000, 1.224646799147353207E-16 ) ) ;
#308 = ORIENTED_EDGE ( 'NONE', *, *, #681, .T. ) ;
#309 = ORIENTED_EDGE ( 'NONE', *, *, #590, .T. ) ;
#310 = CARTESIAN_POINT ( 'NONE',  ( 1.750000000000000000, -0.3189999999999980629, -0.5774823318188637700 ) ) ;
#311 = LINE ( 'NONE', #1065, #150 ) ;
#312 = CARTESIAN_POINT ( 'NONE',  ( 1.750000000000000000, -0.5774823318188626597, 0.3190000000000000613 ) ) ;
#313 = ORIENTED_EDGE ( 'NONE', *, *, #373, .T. ) ;
#314 = LINE ( 'NONE', #701, #748 ) ;
#315 = CYLINDRICAL_SURFACE ( 'NONE', #674, 1.500000000000000000 ) ;
#316 = CARTESIAN_POINT ( 'NONE',  ( 1.750000000000000000, 0.5774823318198123445, 0.04744528727026526421 ) ) ;
#317 = ADVANCED_FACE ( 'NONE', ( #192 ), #479, .T. ) ;
#318 = CARTESIAN_POINT ( 'NONE',  ( 1.750000000000000000, 0.01583282219007019209, -0.5794280790988695085 ) ) ;
#319 = AXIS2_PLACEMENT_3D ( 'NONE', #227, #1153, #129 ) ;
#320 = CARTESIAN_POINT ( 'NONE',  ( 1.750000000000000000, -0.5774823318188626597, 0.3190000000000000613 ) ) ;
#321 = AXIS2_PLACEMENT_3D ( 'NONE', #79, #1109, #281 ) ;
#322 = CARTESIAN_POINT ( 'NONE',  ( -998.0617324045504120, 0.000000000000000000, 0.000000000000000000 ) ) ;
#323 = CC_DESIGN_PERSON_AND_ORGANIZATION_ASSIGNMENT ( #584, #856, ( #865 ) ) ;
#324 = CARTESIAN_POINT ( 'NONE',  ( 1.608484156995326098, -0.3189999999999983404, -0.4955644938992874726 ) ) ;
#325 = CARTESIAN_POINT ( 'NONE',  ( 1.750000000000000000, 0.3189999999999977853, 0.5774823318190009935 ) ) ;
#326 = PLANE ( 'NONE',  #526 ) ;
#327 = B_SPLINE_CURVE_WITH_KNOTS ( 'NONE', 3,
 ( #1111, #672, #84, #460 ),
 .UNSPECIFIED., .F., .F.,
 ( 4, 4 ),
 ( 0.5000000000000213163, 1.000000000000000000 ),
 .UNSPECIFIED. ) ;
#328 = CARTESIAN_POINT ( 'NONE',  ( 1.750000000000000000, -0.3190000000000021707, 0.5774823318189988841 ) ) ;
#329 = EDGE_CURVE ( 'NONE', #92, #290, #354, .T. ) ;
#330 = DIRECTION ( 'NONE',  ( 0.000000000000000000, -3.585171221631645595E-15, 1.000000000000000000 ) ) ;
#331 = DIRECTION ( 'NONE',  ( 0.000000000000000000, 0.000000000000000000, -1.000000000000000000 ) ) ;
#332 = FACE_OUTER_BOUND ( 'NONE', #756, .T. ) ;
#333 = EDGE_CURVE ( 'NONE', #1187, #110, #1035, .T. ) ;
#334 = PLANE ( 'NONE',  #56 ) ;
#335 = VECTOR ( 'NONE', #714, 1000.000000000000114 ) ;
#336 = FACE_OUTER_BOUND ( 'NONE', #530, .T. ) ;
#337 = AXIS2_PLACEMENT_3D ( 'NONE', #1129, #968, #680 ) ;
#338 = VERTEX_POINT ( 'NONE', #555 ) ;
#339 = DIRECTION ( 'NONE',  ( 0.000000000000000000, 1.000000000000000000, 3.661418983433337654E-15 ) ) ;
#340 = CARTESIAN_POINT ( 'NONE',  ( 0.2561988399095728175, -0.6049733911078184478, -0.3189999999999999503 ) ) ;
#341 = CC_DESIGN_DATE_AND_TIME_ASSIGNMENT ( #488, #18, ( #596 ) ) ;
#342 = CARTESIAN_POINT ( 'NONE',  ( 1.390238250696479438, 0.5138456564387233749, 0.3190000000000001723 ) ) ;
#343 = EDGE_CURVE ( 'NONE', #180, #866, #476, .T. ) ;
#344 = EDGE_LOOP ( 'NONE', ( #637, #12 ) ) ;
#345 = DIRECTION ( 'NONE',  ( -5.437892401240052077E-17, -4.693659497211484672E-17, 1.000000000000000000 ) ) ;
#346 = CARTESIAN_POINT ( 'NONE',  ( 0.6705370371214803837, -0.5719685744670174321, -0.3189999999999998948 ) ) ;
#347 = CARTESIAN_POINT ( 'NONE',  ( 1.750000000000000000, 0.3190000000000018376, -0.5774823318188614385 ) ) ;
#348 = ORIENTED_EDGE ( 'NONE', *, *, #559, .T. ) ;
#349 = EDGE_CURVE ( 'NONE', #165, #911, #327, .T. ) ;
#350 = ORIENTED_EDGE ( 'NONE', *, *, #1121, .T. ) ;
#351 = CARTESIAN_POINT ( 'NONE',  ( 1.030407025453682346, -0.3190000000000020042, 0.5431548236935582752 ) ) ;
#352 = DIRECTION ( 'NONE',  ( -1.000000000000000000, -0.000000000000000000, -0.000000000000000000 ) ) ;
#353 = DIRECTION ( 'NONE',  ( 1.000000000000000000, -5.437892401240052077E-17, -1.898629984156651750E-31 ) ) ;
#354 = CIRCLE ( 'NONE', #436, 5.000000000000000000 ) ;
#355 = VECTOR ( 'NONE', #382, 1000.000000000000000 ) ;
#356 = VERTEX_POINT ( 'NONE', #682 ) ;
#357 = AXIS2_PLACEMENT_3D ( 'NONE', #141, #520, #50 ) ;
#358 = CARTESIAN_POINT ( 'NONE',  ( 1.750000000000000000, -0.04744528728182214466, -0.5774823318188628818 ) ) ;
#359 = CARTESIAN_POINT ( 'NONE',  ( 0.8575369645584042244, -2.800000000000000266, -3.429011037612589769E-16 ) ) ;
#360 = FACE_OUTER_BOUND ( 'NONE', #1023, .T. ) ;
#361 = ORIENTED_EDGE ( 'NONE', *, *, #294, .F. ) ;
#362 = VERTEX_POINT ( 'NONE', #562 ) ;
#363 = EDGE_LOOP ( 'NONE', ( #547, #841, #1049, #788 ) ) ;
#364 = EDGE_CURVE ( 'NONE', #31, #1192, #99, .T. ) ;
#365 = DIRECTION ( 'NONE',  ( 0.000000000000000000, 0.000000000000000000, -1.000000000000000000 ) ) ;
#366 = CARTESIAN_POINT ( 'NONE',  ( 1.750000000000000000, 0.3190000000000016156, -0.4837105527567130969 ) ) ;
#367 = ORIENTED_EDGE ( 'NONE', *, *, #155, .F. ) ;
#368 = ORIENTED_EDGE ( 'NONE', *, *, #66, .F. ) ;
#369 = COORDINATED_UNIVERSAL_TIME_OFFSET ( 10, 0, .AHEAD. ) ;
#370 = ORIENTED_EDGE ( 'NONE', *, *, #886, .F. ) ;
#371 = PLANE ( 'NONE',  #631 ) ;
#372 = PRODUCT ( 'pan cross head screw_as_AS-NZS 1427 PC- M3 x 6-N', 'pan cross head screw_as_AS-NZS 1427 PC- M3 x 6-N', '', ( #660 ) ) ;
#373 = EDGE_CURVE ( 'NONE', #543, #55, #302, .T. ) ;
#374 = DIRECTION ( 'NONE',  ( -1.000000000000000000, -0.000000000000000000, -0.000000000000000000 ) ) ;
#375 = ORIENTED_EDGE ( 'NONE', *, *, #1026, .F. ) ;
#376 = ORIENTED_EDGE ( 'NONE', *, *, #430, .T. ) ;
#377 = CONICAL_SURFACE ( 'NONE', #196, 0.5794280790988696195, 0.06981317007976585443 ) ;
#378 = AXIS2_PLACEMENT_3D ( 'NONE', #265, #53, #802 ) ;
#379 = APPLICATION_PROTOCOL_DEFINITION ( 'international standard', 'config_control_design', 1994, #242 ) ;
#380 = AXIS2_PLACEMENT_3D ( 'NONE', #733, #97, #932 ) ;
#381 = ORIENTED_EDGE ( 'NONE', *, *, #1097, .F. ) ;
#382 = DIRECTION ( 'NONE',  ( 0.000000000000000000, 1.699376445902044957E-16, -1.000000000000000000 ) ) ;
#383 = DIRECTION ( 'NONE',  ( 0.000000000000000000, -3.538417933815248060E-15, 1.000000000000000000 ) ) ;
#384 = ORIENTED_EDGE ( 'NONE', *, *, #1172, .F. ) ;
#385 = ORIENTED_EDGE ( 'NONE', *, *, #1104, .T. ) ;
#386 = EDGE_CURVE ( 'NONE', #92, #1043, #746, .T. ) ;
#387 = VERTEX_POINT ( 'NONE', #576 ) ;
#388 = VERTEX_POINT ( 'NONE', #472 ) ;
#389 = DIRECTION ( 'NONE',  ( 0.000000000000000000, 1.224646799147353207E-16, -1.000000000000000000 ) ) ;
#390 = DIRECTION ( 'NONE',  ( -1.000000000000000000, -0.000000000000000000, -0.000000000000000000 ) ) ;
#391 = ORIENTED_EDGE ( 'NONE', *, *, #800, .T. ) ;
#392 = B_SPLINE_CURVE_WITH_KNOTS ( 'NONE', 3,
 ( #964, #629, #1076, #142, #537, #435, #1176 ),
 .UNSPECIFIED., .F., .F.,
 ( 4, 3, 4 ),
 ( 2.893274888773722357E-05, 0.001309439242283416552, 0.001735472924055071016 ),
 .UNSPECIFIED. ) ;
#393 = CARTESIAN_POINT ( 'NONE',  ( 2.399999999999999911, 3.429011037612588783E-16, -2.799999999999999822 ) ) ;
#394 = ORIENTED_EDGE ( 'NONE', *, *, #872, .F. ) ;
#395 = ADVANCED_FACE ( 'NONE', ( #91 ), #21, .F. ) ;
#396 = CARTESIAN_POINT ( 'NONE',  ( 0.4745355439218829630, -0.3189999999999979519, -0.5878107288938840824 ) ) ;
#397 = DIRECTION ( 'NONE',  ( 0.000000000000000000, 0.000000000000000000, 1.000000000000000000 ) ) ;
#398 = ORIENTED_EDGE ( 'NONE', *, *, #601, .F. ) ;
#399 = ORIENTED_EDGE ( 'NONE', *, *, #273, .F. ) ;
#400 = CIRCLE ( 'NONE', #1072, 0.6983727004500033253 ) ;
#401 = COORDINATED_UNIVERSAL_TIME_OFFSET ( 10, 0, .AHEAD. ) ;
#402 = CIRCLE ( 'NONE', #1073, 4.989813523569793574 ) ;
#403 = CIRCLE ( 'NONE', #549, 0.5794280790988696195 ) ;
#404 = CARTESIAN_POINT ( 'NONE',  ( 1.750000000000000000, -0.3190000000000021707, 0.5774823318189988841 ) ) ;
#405 = FACE_OUTER_BOUND ( 'NONE', #440, .T. ) ;
#406 = CARTESIAN_POINT ( 'NONE',  ( 1.750000000000000000, 0.04744528728182638433, -0.5774823318188625487 ) ) ;
#407 = ORIENTED_EDGE ( 'NONE', *, *, #140, .F. ) ;
#408 = DIRECTION ( 'NONE',  ( -5.437892401240052077E-17, -4.693659497211484672E-17, 1.000000000000000000 ) ) ;
#409 = EDGE_CURVE ( 'NONE', #564, #652, #765, .T. ) ;
#410 = DIRECTION ( 'NONE',  ( 0.000000000000000000, 0.000000000000000000, 1.000000000000000000 ) ) ;
#411 = DIRECTION ( 'NONE',  ( 1.000000000000000000, 0.000000000000000000, 0.000000000000000000 ) ) ;
#412 = ORIENTED_EDGE ( 'NONE', *, *, #713, .T. ) ;
#413 = MANIFOLD_SOLID_BREP ( 'RecessCore', #647 ) ;
#414 = CARTESIAN_POINT ( 'NONE',  ( 1.750000000000000000, -0.5800752085685697557, 0.01588597765755074900 ) ) ;
#415 = CARTESIAN_POINT ( 'NONE',  ( 1.466957343548594084, 0.3189999999999980629, 0.5072879323466547019 ) ) ;
#416 = EDGE_CURVE ( 'NONE', #1192, #388, #546, .T. ) ;
#417 = DIRECTION ( 'NONE',  ( -1.000000000000000000, -0.000000000000000000, -0.000000000000000000 ) ) ;
#418 = DATE_AND_TIME ( #36, #201 ) ;
#419 = CIRCLE ( 'NONE', #814, 2.799999999999999822 ) ;
#420 = DIRECTION ( 'NONE',  ( 0.8949343913984565413, -0.4461977533474078550, 0.000000000000000000 ) ) ;
#421 = VECTOR ( 'NONE', #805, 1000.000000000000000 ) ;
#422 = AXIS2_PLACEMENT_3D ( 'NONE', #600, #585, #777 ) ;
#423 = DIRECTION ( 'NONE',  ( 0.000000000000000000, 0.000000000000000000, -1.000000000000000000 ) ) ;
#424 = VECTOR ( 'NONE', #936, 1000.000000000000000 ) ;
#425 = LINE ( 'NONE', #509, #493 ) ;
#426 = EDGE_CURVE ( 'NONE', #173, #564, #96, .T. ) ;
#427 = DIRECTION ( 'NONE',  ( 0.000000000000000000, 0.000000000000000000, -1.000000000000000000 ) ) ;
#428 = FACE_OUTER_BOUND ( 'NONE', #797, .T. ) ;
#429 = DIRECTION ( 'NONE',  ( 0.000000000000000000, -1.776356839400250465E-15, -1.000000000000000000 ) ) ;
#430 = EDGE_CURVE ( 'NONE', #164, #449, #825, .T. ) ;
#431 = CARTESIAN_POINT ( 'NONE',  ( 0.000000000000000000, 0.000000000000000000, 2.799999999999999822 ) ) ;
#432 = CARTESIAN_POINT ( 'NONE',  ( 0.8575369645584041134, 0.000000000000000000, 2.799999999999999822 ) ) ;
#433 = LINE ( 'NONE', #1131, #40 ) ;
#434 = FACE_OUTER_BOUND ( 'NONE', #285, .T. ) ;
#435 = CARTESIAN_POINT ( 'NONE',  ( 1.608484156995325876, 0.4955644938992865844, -0.3189999999999997837 ) ) ;
#436 = AXIS2_PLACEMENT_3D ( 'NONE', #663, #1201, #1014 ) ;
#437 = CARTESIAN_POINT ( 'NONE',  ( 1.750000000000000000, -0.5774823318188625487, -0.3189999999999998392 ) ) ;
#438 = AXIS2_PLACEMENT_3D ( 'NONE', #891, #809, #804 ) ;
#439 =( GEOMETRIC_REPRESENTATION_CONTEXT ( 3 ) GLOBAL_UNCERTAINTY_ASSIGNED_CONTEXT ( ( #922 ) ) GLOBAL_UNIT_ASSIGNED_CONTEXT ( ( #639, #1032, #536 ) ) REPRESENTATION_CONTEXT ( 'NONE', 'WORKASPACE' ) );
#440 = EDGE_LOOP ( 'NONE', ( #370, #1006, #453 ) ) ;
#441 = CARTESIAN_POINT ( 'NONE',  ( 5.000000000000000000, 0.3189999999999996727, 1.128755320887062925E-15 ) ) ;
#442 = CARTESIAN_POINT ( 'NONE',  ( 1.030407025453682346, -0.5431548236935594964, -0.3189999999999998948 ) ) ;
#443 = ADVANCED_FACE ( 'NONE', ( #1125 ), #752, .T. ) ;
#444 = DIRECTION ( 'NONE',  ( -1.000000000000000000, -0.000000000000000000, -0.000000000000000000 ) ) ;
#445 = ORIENTED_EDGE ( 'NONE', *, *, #1007, .T. ) ;
#446 = LINE ( 'NONE', #793, #512 ) ;
#447 = CARTESIAN_POINT ( 'NONE',  ( 1.608484156995325876, -0.4955644938992864734, 0.3190000000000000613 ) ) ;
#448 = CARTESIAN_POINT ( 'NONE',  ( 1.750000000000000000, 0.3190000000000018376, -0.5774823318188614385 ) ) ;
#449 = VERTEX_POINT ( 'NONE', #366 ) ;
#450 = APPROVAL_ROLE ( '' ) ;
#451 = DIRECTION ( 'NONE',  ( 0.000000000000000000, 0.000000000000000000, 1.000000000000000000 ) ) ;
#452 = PLANE ( 'NONE',  #378 ) ;
#453 = ORIENTED_EDGE ( 'NONE', *, *, #993, .F. ) ;
#454 = AXIS2_PLACEMENT_3D ( 'NONE', #613, #518, #983 ) ;
#455 = EDGE_LOOP ( 'NONE', ( #308, #375, #243, #100 ) ) ;
#456 = VECTOR ( 'NONE', #610, 1000.000000000000000 ) ;
#457 = EDGE_CURVE ( 'NONE', #283, #93, #505, .T. ) ;
#458 = B_SPLINE_CURVE_WITH_KNOTS ( 'NONE', 3,
 ( #579, #690, #697, #1060, #773, #876, #226 ),
 .UNSPECIFIED., .F., .F.,
 ( 4, 3, 4 ),
 ( 2.007000254345519913E-07, 0.001083265687282674921, 0.001706740853108254822 ),
 .UNSPECIFIED. ) ;
#459 = CARTESIAN_POINT ( 'NONE',  ( 5.000000000000000000, 0.3189999999999996727, 1.128755320887062925E-15 ) ) ;
#460 = CARTESIAN_POINT ( 'NONE',  ( 1.750000000000000000, 0.04744528728015188351, 0.5774823318190001054 ) ) ;
#461 = EDGE_LOOP ( 'NONE', ( #924, #486 ) ) ;
#462 = ORIENTED_EDGE ( 'NONE', *, *, #343, .T. ) ;
#463 = DIRECTION ( 'NONE',  ( -5.437892401240052077E-17, -1.000000000000000000, -3.538417933815248060E-15 ) ) ;
#464 = ADVANCED_FACE ( 'NONE', ( #428 ), #124, .T. ) ;
#465 = CARTESIAN_POINT ( 'NONE',  ( 1.750000000000000000, 0.4837105527567142071, -0.3189999999999997837 ) ) ;
#466 = DIRECTION ( 'NONE',  ( 7.710538154413521008E-17, 1.000000000000000000, 3.585354528787362765E-15 ) ) ;
#467 = ORIENTED_EDGE ( 'NONE', *, *, #700, .T. ) ;
#468 = ORIENTED_EDGE ( 'NONE', *, *, #140, .T. ) ;
#469 = APPROVAL_ROLE ( '' ) ;
#470 = DIRECTION ( 'NONE',  ( -1.000000000000000000, -0.000000000000000000, -0.000000000000000000 ) ) ;
#471 = ADVANCED_FACE ( 'NONE', ( #1052 ), #513, .T. ) ;
#472 = CARTESIAN_POINT ( 'NONE',  ( 1.750000000000000000, 0.4837105527567139851, 0.3190000000000001168 ) ) ;
#473 = ORIENTED_EDGE ( 'NONE', *, *, #939, .F. ) ;
#474 = ORIENTED_EDGE ( 'NONE', *, *, #225, .T. ) ;
#475 = AXIS2_PLACEMENT_3D ( 'NONE', #1067, #615, #214 ) ;
#476 = CIRCLE ( 'NONE', #591, 0.5794280790988696195 ) ;
#477 = AXIS2_PLACEMENT_3D ( 'NONE', #979, #899, #527 ) ;
#478 = LINE ( 'NONE', #937, #355 ) ;
#479 = CYLINDRICAL_SURFACE ( 'NONE', #650, 1.500000000000000000 ) ;
#480 = ORIENTED_EDGE ( 'NONE', *, *, #304, .F. ) ;
#481 = ADVANCED_FACE ( 'NONE', ( #405 ), #770, .F. ) ;
#482 = EDGE_LOOP ( 'NONE', ( #902, #1024, #665, #399 ) ) ;
#483 = ORIENTED_EDGE ( 'NONE', *, *, #364, .T. ) ;
#484 = CARTESIAN_POINT ( 'NONE',  ( 1.750000000000000000, -0.5774823318188626597, 0.3190000000000000613 ) ) ;
#485 = DIRECTION ( 'NONE',  ( -0.8949343913984565413, 0.000000000000000000, 0.4461977533474078550 ) ) ;
#486 = ORIENTED_EDGE ( 'NONE', *, *, #72, .T. ) ;
#487 = ORIENTED_EDGE ( 'NONE', *, *, #732, .F. ) ;
#488 = DATE_AND_TIME ( #955, #1038 ) ;
#489 = CARTESIAN_POINT ( 'NONE',  ( 1.750000000000000000, 0.03166563246804066090, -0.5787787701938513774 ) ) ;
#490 = CARTESIAN_POINT ( 'NONE',  ( 0.000000000000000000, 0.000000000000000000, 0.000000000000000000 ) ) ;
#491 = ORIENTED_EDGE ( 'NONE', *, *, #559, .F. ) ;
#492 = ORIENTED_EDGE ( 'NONE', *, *, #768, .T. ) ;
#493 = VECTOR ( 'NONE', #134, 1000.000000000000000 ) ;
#494 = CIRCLE ( 'NONE', #1130, 0.5794280790988696195 ) ;
#495 = ADVANCED_FACE ( 'NONE', ( #868 ), #528, .F. ) ;
#496 = CIRCLE ( 'NONE', #573, 4.989813523569793574 ) ;
#497 = DIRECTION ( 'NONE',  ( -0.4461977533474077995, -0.8949343913984565413, -0.000000000000000000 ) ) ;
#498 = DIRECTION ( 'NONE',  ( -1.000000000000000000, -0.000000000000000000, -0.000000000000000000 ) ) ;
#499 = CARTESIAN_POINT ( 'NONE',  ( 0.1968062524693144355, -1.351876038578288641, 0.3189999999999998948 ) ) ;
#500 = ORIENTED_EDGE ( 'NONE', *, *, #830, .F. ) ;
#501 = EDGE_CURVE ( 'NONE', #649, #644, #109, .T. ) ;
#502 = CARTESIAN_POINT ( 'NONE',  ( 1.325421913600173252, -0.3189999999999982294, -0.5189056692713096552 ) ) ;
#503 = DIRECTION ( 'NONE',  ( -5.437892401240052077E-17, -1.000000000000000000, -3.538417933815248060E-15 ) ) ;
#504 = CARTESIAN_POINT ( 'NONE',  ( 0.8575369645584041134, 0.000000000000000000, 0.000000000000000000 ) ) ;
#505 = B_SPLINE_CURVE_WITH_KNOTS ( 'NONE', 3,
 ( #1105, #1022, #289, #117, #415, #778, #45 ),
 .UNSPECIFIED., .F., .F.,
 ( 4, 3, 4 ),
 ( 2.893274888773719308E-05, 0.001309439242283416552, 0.001735472924055071016 ),
 .UNSPECIFIED. ) ;
#506 = PERSON_AND_ORGANIZATION ( #18446744073709551615, #18446744073709551615 ) ;
#507 = DIRECTION ( 'NONE',  ( 0.000000000000000000, -3.538417933815248060E-15, 1.000000000000000000 ) ) ;
#508 = ADVANCED_FACE ( 'NONE', ( #884 ), #315, .T. ) ;
#509 = CARTESIAN_POINT ( 'NONE',  ( 1.750000000000000000, 0.5774823318189999943, -0.3189999999999997837 ) ) ;
#510 = CARTESIAN_POINT ( 'NONE',  ( 2.699999999999999734, 0.000000000000000000, 0.000000000000000000 ) ) ;
#511 = VECTOR ( 'NONE', #917, 1000.000000000000000 ) ;
#512 = VECTOR ( 'NONE', #708, 1000.000000000000000 ) ;
#513 = CYLINDRICAL_SURFACE ( 'NONE', #1011, 2.799999999999999822 ) ;
#514 = CC_DESIGN_SECURITY_CLASSIFICATION ( #596, ( #865 ) ) ;
#515 = CARTESIAN_POINT ( 'NONE',  ( 0.04901266702628595540, -0.6212595502153904770, 0.3189999999999999503 ) ) ;
#516 = ADVANCED_FACE ( 'NONE', ( #774 ), #1138, .T. ) ;
#517 = FACE_OUTER_BOUND ( 'NONE', #73, .T. ) ;
#518 = DIRECTION ( 'NONE',  ( -1.000000000000000000, -0.000000000000000000, -0.000000000000000000 ) ) ;
#519 = FACE_OUTER_BOUND ( 'NONE', #121, .T. ) ;
#520 = DIRECTION ( 'NONE',  ( -0.000000000000000000, 0.000000000000000000, -1.000000000000000000 ) ) ;
#521 = DIRECTION ( 'NONE',  ( -1.000000000000000000, -0.000000000000000000, -0.000000000000000000 ) ) ;
#522 = DIRECTION ( 'NONE',  ( 0.000000000000000000, 0.000000000000000000, 1.000000000000000000 ) ) ;
#523 = ORIENTED_EDGE ( 'NONE', *, *, #962, .F. ) ;
#524 = DIRECTION ( 'NONE',  ( 0.000000000000000000, 0.000000000000000000, -1.000000000000000000 ) ) ;
#525 = EDGE_CURVE ( 'NONE', #990, #724, #311, .T. ) ;
#526 = AXIS2_PLACEMENT_3D ( 'NONE', #312, #1158, #120 ) ;
#527 = DIRECTION ( 'NONE',  ( 0.000000000000000000, 0.000000000000000000, -1.000000000000000000 ) ) ;
#528 = TOROIDAL_SURFACE ( 'NONE', #1149, 1.800000000000000044, 0.2999999999999999889 ) ;
#529 = CIRCLE ( 'NONE', #321, 0.5794280790988696195 ) ;
#530 = EDGE_LOOP ( 'NONE', ( #829, #835, #578 ) ) ;
#531 = PLANE ( 'NONE',  #1110 ) ;
#532 = EDGE_CURVE ( 'NONE', #1039, #165, #191, .T. ) ;
#533 = CARTESIAN_POINT ( 'NONE',  ( 0.04901266702628595540, -0.6212595502153904770, 0.3189999999999999503 ) ) ;
#534 = FACE_OUTER_BOUND ( 'NONE', #215, .T. ) ;
#535 = ORIENTED_EDGE ( 'NONE', *, *, #812, .T. ) ;
#536 =( NAMED_UNIT ( * ) SI_UNIT ( $, .STERADIAN. ) SOLID_ANGLE_UNIT ( ) );
#537 = CARTESIAN_POINT ( 'NONE',  ( 1.466957343548594084, 0.5072879323466535917, -0.3189999999999997837 ) ) ;
#538 = DIRECTION ( 'NONE',  ( -0.8949343913984284526, -0.4461977533474640323, 0.000000000000000000 ) ) ;
#539 = VERTEX_POINT ( 'NONE', #1046 ) ;
#540 = EDGE_CURVE ( 'NONE', #388, #31, #494, .T. ) ;
#541 = ORIENTED_EDGE ( 'NONE', *, *, #241, .T. ) ;
#542 = DIRECTION ( 'NONE',  ( 0.000000000000000000, 0.000000000000000000, 1.000000000000000000 ) ) ;
#543 = VERTEX_POINT ( 'NONE', #957 ) ;
#544 = CARTESIAN_POINT ( 'NONE',  ( 8.399999999999998579, 0.000000000000000000, 0.000000000000000000 ) ) ;
#545 = CIRCLE ( 'NONE', #707, 4.989813523569793574 ) ;
#546 = LINE ( 'NONE', #282, #511 ) ;
#547 = ORIENTED_EDGE ( 'NONE', *, *, #590, .F. ) ;
#548 = VECTOR ( 'NONE', #259, 1000.000000000000000 ) ;
#549 = AXIS2_PLACEMENT_3D ( 'NONE', #1185, #810, #1092 ) ;
#550 = CC_DESIGN_PERSON_AND_ORGANIZATION_ASSIGNMENT ( #1009, #166, ( #372 ) ) ;
#551 = ORIENTED_EDGE ( 'NONE', *, *, #457, .T. ) ;
#552 = AXIS2_PLACEMENT_3D ( 'NONE', #47, #44, #427 ) ;
#553 = PERSON_AND_ORGANIZATION_ROLE ( 'creator' ) ;
#554 = DIRECTION ( 'NONE',  ( 1.000000000000000000, 0.000000000000000000, 0.000000000000000000 ) ) ;
#555 = CARTESIAN_POINT ( 'NONE',  ( 1.750000000000000000, -0.04744528728182214466, -0.5774823318188628818 ) ) ;
#556 = ORIENTED_EDGE ( 'NONE', *, *, #426, .F. ) ;
#557 = ORIENTED_EDGE ( 'NONE', *, *, #1082, .T. ) ;
#558 = CARTESIAN_POINT ( 'NONE',  ( 1.750000000000000000, -0.3190000000000021707, 0.5774823318189988841 ) ) ;
#559 = EDGE_CURVE ( 'NONE', #55, #159, #611, .T. ) ;
#560 = ORIENTED_EDGE ( 'NONE', *, *, #947, .F. ) ;
#561 = CARTESIAN_POINT ( 'NONE',  ( 0.000000000000000000, 0.000000000000000000, 1.500000000000000000 ) ) ;
#562 = CARTESIAN_POINT ( 'NONE',  ( 1.750000000000000000, -0.5774823318196751210, -0.04744528727193668416 ) ) ;
#563 = EDGE_LOOP ( 'NONE', ( #595, #1174, #468, #772 ) ) ;
#564 = VERTEX_POINT ( 'NONE', #607 ) ;
#565 = CARTESIAN_POINT ( 'NONE',  ( 0.000000000000000000, 1.449999999999999956, -0.3189999999999998392 ) ) ;
#566 = ADVANCED_FACE ( 'NONE', ( #691 ), #782, .F. ) ;
#567 = DIRECTION ( 'NONE',  ( -1.000000000000000000, -0.000000000000000000, -0.000000000000000000 ) ) ;
#568 = CARTESIAN_POINT ( 'NONE',  ( 1.750000000000000000, 0.5774823318189999943, 0.3190000000000001723 ) ) ;
#569 = EDGE_LOOP ( 'NONE', ( #1031, #61, #473 ) ) ;
#570 = DIRECTION ( 'NONE',  ( -1.000000000000000000, -0.000000000000000000, -0.000000000000000000 ) ) ;
#571 = CIRCLE ( 'NONE', #197, 0.5794280790988696195 ) ;
#572 = ORIENTED_EDGE ( 'NONE', *, *, #128, .T. ) ;
#573 = AXIS2_PLACEMENT_3D ( 'NONE', #459, #838, #178 ) ;
#574 = APPROVAL_PERSON_ORGANIZATION ( #506, #1179, #1058 ) ;
#575 = CARTESIAN_POINT ( 'NONE',  ( 1.750000000000000000, -0.3190000000000021707, 0.5774823318189988841 ) ) ;
#576 = CARTESIAN_POINT ( 'NONE',  ( 1.750000000000000000, -0.5774823318188625487, 0.04744528728182550309 ) ) ;
#577 = DIRECTION ( 'NONE',  ( 0.000000000000000000, 0.000000000000000000, 1.000000000000000000 ) ) ;
#578 = ORIENTED_EDGE ( 'NONE', *, *, #986, .F. ) ;
#579 = CARTESIAN_POINT ( 'NONE',  ( 1.750000000000000000, 0.3190000000000016156, -0.4837105527567130969 ) ) ;
#580 = CARTESIAN_POINT ( 'NONE',  ( 1.750000000000000000, 0.000000000000000000, 0.000000000000000000 ) ) ;
#581 = ORIENTED_EDGE ( 'NONE', *, *, #273, .T. ) ;
#582 = EDGE_CURVE ( 'NONE', #299, #731, #402, .T. ) ;
#583 = ORIENTED_EDGE ( 'NONE', *, *, #430, .F. ) ;
#584 = PERSON_AND_ORGANIZATION ( #18446744073709551615, #18446744073709551615 ) ;
#585 = DIRECTION ( 'NONE',  ( -1.000000000000000000, -0.000000000000000000, -0.000000000000000000 ) ) ;
#586 = DIRECTION ( 'NONE',  ( -0.3090169943749411230, 1.164708318489094811E-16, -0.9510565162951555296 ) ) ;
#587 = B_SPLINE_CURVE_WITH_KNOTS ( 'NONE', 3,
 ( #845, #923, #1190, #358 ),
 .UNSPECIFIED., .F., .F.,
 ( 4, 4 ),
 ( 0.5000000000000244249, 1.000000000000000000 ),
 .UNSPECIFIED. ) ;
#588 = FACE_OUTER_BOUND ( 'NONE', #745, .T. ) ;
#589 = ORIENTED_EDGE ( 'NONE', *, *, #830, .T. ) ;
#590 = EDGE_CURVE ( 'NONE', #93, #388, #95, .T. ) ;
#591 = AXIS2_PLACEMENT_3D ( 'NONE', #3, #374, #397 ) ;
#592 = EDGE_LOOP ( 'NONE', ( #863, #262, #483, #115, #1168, #445, #11 ) ) ;
#593 = VECTOR ( 'NONE', #721, 1000.000000000000000 ) ;
#594 = CARTESIAN_POINT ( 'NONE',  ( 1.750000000000000000, -0.5774823318196751210, -0.04744528727193668416 ) ) ;
#595 = ORIENTED_EDGE ( 'NONE', *, *, #416, .T. ) ;
#596 = SECURITY_CLASSIFICATION ( '', '', #678 ) ;
#597 = DIRECTION ( 'NONE',  ( 0.000000000000000000, 0.000000000000000000, 1.000000000000000000 ) ) ;
#598 = DIRECTION ( 'NONE',  ( 0.000000000000000000, 1.000000000000000000, 9.777739695359033778E-17 ) ) ;
#599 = APPROVAL_DATE_TIME ( #301, #895 ) ;
#600 = CARTESIAN_POINT ( 'NONE',  ( -998.0617324045504120, 0.000000000000000000, 0.000000000000000000 ) ) ;
#601 = EDGE_CURVE ( 'NONE', #1140, #755, #392, .T. ) ;
#602 = DIRECTION ( 'NONE',  ( -1.000000000000000000, -0.000000000000000000, -0.000000000000000000 ) ) ;
#603 = FACE_OUTER_BOUND ( 'NONE', #941, .T. ) ;
#604 = B_SPLINE_CURVE_WITH_KNOTS ( 'NONE', 3,
 ( #991, #1169, #351, #978, #998, #62, #1156 ),
 .UNSPECIFIED., .F., .F.,
 ( 4, 3, 4 ),
 ( 2.007000254345519384E-07, 0.001083265687282675355, 0.001706740853108255039 ),
 .UNSPECIFIED. ) ;
#605 = DIRECTION ( 'NONE',  ( -0.4461977533474077995, -0.8949343913984565413, -0.000000000000000000 ) ) ;
#606 = EDGE_CURVE ( 'NONE', #953, #338, #59, .T. ) ;
#607 = CARTESIAN_POINT ( 'NONE',  ( 0.1968062524693179050, -0.3190000000000048908, 1.351876038578301298 ) ) ;
#608 = DIRECTION ( 'NONE',  ( 7.710538154413521008E-17, 9.387318994422970576E-17, -1.000000000000000000 ) ) ;
#609 = CIRCLE ( 'NONE', #149, 1.800000000000000044 ) ;
#610 = DIRECTION ( 'NONE',  ( -1.000000000000000000, -0.000000000000000000, -0.000000000000000000 ) ) ;
#611 = CIRCLE ( 'NONE', #74, 4.989813523569793574 ) ;
#612 = AXIS2_PLACEMENT_3D ( 'NONE', #1193, #738, #8 ) ;
#613 = CARTESIAN_POINT ( 'NONE',  ( 0.04901266702628595540, 0.000000000000000000, 0.000000000000000000 ) ) ;
#614 = AXIS2_PLACEMENT_3D ( 'NONE', #1003, #542, #1183 ) ;
#615 = DIRECTION ( 'NONE',  ( 7.710538154413521008E-17, 1.000000000000000000, 3.585354528787362765E-15 ) ) ;
#616 = LINE ( 'NONE', #328, #593 ) ;
#617 = CARTESIAN_POINT ( 'NONE',  ( 1.750000000000000000, -0.4837105527567140406, 0.3190000000000000058 ) ) ;
#618 = DIRECTION ( 'NONE',  ( 0.8949343913984565413, 1.530168563206599709E-15, -0.4461977533474077995 ) ) ;
#619 = EDGE_CURVE ( 'NONE', #944, #102, #995, .T. ) ;
#620 = ORIENTED_EDGE ( 'NONE', *, *, #905, .T. ) ;
#621 = CARTESIAN_POINT ( 'NONE',  ( 0.04901266702631464772, 0.3190000000000021152, -0.6212595502155094929 ) ) ;
#622 = FACE_OUTER_BOUND ( 'NONE', #151, .T. ) ;
#623 = CARTESIAN_POINT ( 'NONE',  ( 0.1875265823137344801, 1.356502710672953027, 0.000000000000000000 ) ) ;
#624 = EDGE_LOOP ( 'NONE', ( #167, #931, #589, #620 ) ) ;
#625 = EDGE_CURVE ( 'NONE', #990, #1135, #709, .T. ) ;
#626 = CARTESIAN_POINT ( 'NONE',  ( 1.750000000000000000, -0.5774823318188626597, 0.3190000000000000613 ) ) ;
#627 = CONICAL_SURFACE ( 'NONE', #94, 3077.683537175322726, 1.256637061435923908 ) ;
#628 = AXIS2_PLACEMENT_3D ( 'NONE', #320, #33, #423 ) ;
#629 = CARTESIAN_POINT ( 'NONE',  ( 0.4745355439218830185, 0.5878107288938829722, -0.3189999999999998948 ) ) ;
#630 = FACE_OUTER_BOUND ( 'NONE', #1001, .T. ) ;
#631 = AXIS2_PLACEMENT_3D ( 'NONE', #1, #90, #824 ) ;
#632 = ORIENTED_EDGE ( 'NONE', *, *, #1191, .F. ) ;
#633 = CARTESIAN_POINT ( 'NONE',  ( 0.8575369645584041134, 3.429011037612588783E-16, -2.799999999999999822 ) ) ;
#634 = ADVANCED_FACE ( 'NONE', ( #1160 ), #334, .T. ) ;
#635 = CARTESIAN_POINT ( 'NONE',  ( 1.747775893070738107, 3.547973712022649386E-17, -0.5795641040826976509 ) ) ;
#636 = CARTESIAN_POINT ( 'NONE',  ( 0.2561988399095725955, 0.6049733911078183368, 0.3190000000000000613 ) ) ;
#637 = ORIENTED_EDGE ( 'NONE', *, *, #1033, .F. ) ;
#638 = ORIENTED_EDGE ( 'NONE', *, *, #202, .F. ) ;
#639 =( LENGTH_UNIT ( ) NAMED_UNIT ( * ) SI_UNIT ( .MILLI., .METRE. ) );
#640 = CARTESIAN_POINT ( 'NONE',  ( 1.750000000000000000, -0.4837105527567142071, -0.3189999999999997837 ) ) ;
#641 = ADVANCED_FACE ( 'NONE', ( #622 ), #717, .T. ) ;
#642 = CARTESIAN_POINT ( 'NONE',  ( 1.750000000000000000, 0.5774823318189999943, 0.3190000000000001723 ) ) ;
#643 = ORIENTED_EDGE ( 'NONE', *, *, #89, .F. ) ;
#644 = VERTEX_POINT ( 'NONE', #635 ) ;
#645 = CARTESIAN_POINT ( 'NONE',  ( 1.750000000000000000, 0.3189999999999977853, 0.5774823318190009935 ) ) ;
#646 = DIRECTION ( 'NONE',  ( 0.8949343913984565413, 1.557891129246205492E-15, -0.4461977533474077995 ) ) ;
#647 = CLOSED_SHELL ( 'NONE', ( #981, #395, #516, #317, #216, #1151, #641, #1017, #634, #1048, #189, #807, #481, #1137, #284, #34, #235, #1114, #775, #112, #208, #443, #248, #780, #27, #464, #182, #508, #794, #471, #495, #566, #43, #5, #51, #106 ) ) ;
#648 = CARTESIAN_POINT ( 'NONE',  ( 0.1968062524693144355, -0.3189999999999951763, -1.351876038578289974 ) ) ;
#649 = VERTEX_POINT ( 'NONE', #1080 ) ;
#650 = AXIS2_PLACEMENT_3D ( 'NONE', #847, #933, #1036 ) ;
#651 = CIRCLE ( 'NONE', #1150, 0.5794280790988696195 ) ;
#652 = VERTEX_POINT ( 'NONE', #999 ) ;
#653 = DATE_AND_TIME ( #742, #280 ) ;
#654 = ORIENTED_EDGE ( 'NONE', *, *, #294, .T. ) ;
#655 = CARTESIAN_POINT ( 'NONE',  ( 0.04901266702628595540, 0.000000000000000000, 0.000000000000000000 ) ) ;
#656 = CARTESIAN_POINT ( 'NONE',  ( 5.000000000000000000, -0.3190000000000003944, -1.143728094683170088E-15 ) ) ;
#657 = VERTEX_POINT ( 'NONE', #988 ) ;
#658 = ORIENTED_EDGE ( 'NONE', *, *, #890, .T. ) ;
#659 = EDGE_CURVE ( 'NONE', #31, #102, #1051, .T. ) ;
#660 = MECHANICAL_CONTEXT ( 'NONE', #169, 'mechanical' ) ;
#661 = ORIENTED_EDGE ( 'NONE', *, *, #939, .T. ) ;
#662 = CARTESIAN_POINT ( 'NONE',  ( 1.750000000000000000, 0.000000000000000000, 0.000000000000000000 ) ) ;
#663 = CARTESIAN_POINT ( 'NONE',  ( 5.000000000000000000, 0.000000000000000000, 0.000000000000000000 ) ) ;
#664 = ADVANCED_BREP_SHAPE_REPRESENTATION ( 'pan cross head screw_as_AS-NZS 1427 PC- M3 x 6-N', ( #413, #614 ), #439 ) ;
#665 = ORIENTED_EDGE ( 'NONE', *, *, #993, .T. ) ;
#666 = ORIENTED_EDGE ( 'NONE', *, *, #890, .F. ) ;
#667 = VERTEX_POINT ( 'NONE', #432 ) ;
#668 = LINE ( 'NONE', #565, #424 ) ;
#669 = PRODUCT_RELATED_PRODUCT_CATEGORY ( 'detail', '', ( #372 ) ) ;
#670 = ORIENTED_EDGE ( 'NONE', *, *, #1104, .F. ) ;
#671 = FACE_OUTER_BOUND ( 'NONE', #934, .T. ) ;
#672 = CARTESIAN_POINT ( 'NONE',  ( 1.750000000000000000, 0.01583282218951009152, 0.5794280790988696195 ) ) ;
#673 = ORIENTED_EDGE ( 'NONE', *, *, #409, .F. ) ;
#674 = AXIS2_PLACEMENT_3D ( 'NONE', #490, #791, #1061 ) ;
#675 = EDGE_LOOP ( 'NONE', ( #381, #474, #753, #272, #1120 ) ) ;
#676 = ORIENTED_EDGE ( 'NONE', *, *, #872, .T. ) ;
#677 = CIRCLE ( 'NONE', #843, 0.6983727004500033253 ) ;
#678 = SECURITY_CLASSIFICATION_LEVEL ( 'unclassified' ) ;
#679 = VECTOR ( 'NONE', #339, 1000.000000000000000 ) ;
#680 = DIRECTION ( 'NONE',  ( 0.000000000000000000, 0.000000000000000000, 1.000000000000000000 ) ) ;
#681 = EDGE_CURVE ( 'NONE', #159, #173, #1090, .T. ) ;
#682 = CARTESIAN_POINT ( 'NONE',  ( 1.750000000000000000, -0.3190000000000018376, 0.4837105527567128194 ) ) ;
#683 = CARTESIAN_POINT ( 'NONE',  ( 4.583548511049648333, -3.058282972510935117E-15, 0.8352726050606649189 ) ) ;
#684 = ORIENTED_EDGE ( 'NONE', *, *, #501, .T. ) ;
#685 = DIRECTION ( 'NONE',  ( 1.000000000000000000, 0.000000000000000000, 0.000000000000000000 ) ) ;
#686 = CARTESIAN_POINT ( 'NONE',  ( 1.747775893070893316, -3.916682420957307836E-17, 0.5795641040826887691 ) ) ;
#687 = EDGE_CURVE ( 'NONE', #283, #948, #199, .T. ) ;
#688 = CARTESIAN_POINT ( 'NONE',  ( 2.399999999999999911, 0.000000000000000000, 0.000000000000000000 ) ) ;
#689 = ORIENTED_EDGE ( 'NONE', *, *, #800, .F. ) ;
#690 = CARTESIAN_POINT ( 'NONE',  ( 1.390238250696479438, 0.3190000000000016156, -0.5138456564387223757 ) ) ;
#691 = FACE_OUTER_BOUND ( 'NONE', #820, .T. ) ;
#692 = CC_DESIGN_PERSON_AND_ORGANIZATION_ASSIGNMENT ( #966, #107, ( #596 ) ) ;
#693 = DIRECTION ( 'NONE',  ( -1.000000000000000000, -0.000000000000000000, -0.000000000000000000 ) ) ;
#694 = AXIS2_PLACEMENT_3D ( 'NONE', #1062, #46, #24 ) ;
#695 = EDGE_CURVE ( 'NONE', #866, #539, #1066, .T. ) ;
#696 = AXIS2_PLACEMENT_3D ( 'NONE', #69, #521, #451 ) ;
#697 = CARTESIAN_POINT ( 'NONE',  ( 1.030407025453682346, 0.3190000000000017821, -0.5431548236935583862 ) ) ;
#698 = DIRECTION ( 'NONE',  ( -1.000000000000000000, -0.000000000000000000, -0.000000000000000000 ) ) ;
#699 = CARTESIAN_POINT ( 'NONE',  ( 1.750000000000000000, 0.5774823318189999943, -0.3189999999999997837 ) ) ;
#700 = EDGE_CURVE ( 'NONE', #159, #1095, #834, .T. ) ;
#701 = CARTESIAN_POINT ( 'NONE',  ( 1.750000000000000000, -0.3190000000000021707, 0.5774823318189988841 ) ) ;
#702 = CARTESIAN_POINT ( 'NONE',  ( 1.750000000000000000, -0.03166563246692333244, 0.5787787701938973406 ) ) ;
#703 = DIRECTION ( 'NONE',  ( -1.000000000000000000, -0.000000000000000000, -0.000000000000000000 ) ) ;
#704 = DIRECTION ( 'NONE',  ( 1.000000000000000000, 0.000000000000000000, 5.432077608532796338E-17 ) ) ;
#705 = DIRECTION ( 'NONE',  ( 0.000000000000000000, 0.000000000000000000, 1.000000000000000000 ) ) ;
#706 = DIRECTION ( 'NONE',  ( 0.000000000000000000, 1.699376445902044957E-16, -1.000000000000000000 ) ) ;
#707 = AXIS2_PLACEMENT_3D ( 'NONE', #1054, #608, #598 ) ;
#708 = DIRECTION ( 'NONE',  ( 0.8949343913984565413, 1.557891129246205492E-15, -0.4461977533474077995 ) ) ;
#709 = CIRCLE ( 'NONE', #817, 1.500000000000000000 ) ;
#710 = CIRCLE ( 'NONE', #784, 0.5794280790988696195 ) ;
#711 = DIRECTION ( 'NONE',  ( -5.437892401240052077E-17, -4.693659497211484672E-17, 1.000000000000000000 ) ) ;
#712 = APPROVAL_PERSON_ORGANIZATION ( #277, #789, #450 ) ;
#713 = EDGE_CURVE ( 'NONE', #356, #1039, #403, .T. ) ;
#714 = DIRECTION ( 'NONE',  ( 0.8949343913984284526, -1.668781393404821109E-15, 0.4461977533474639768 ) ) ;
#715 = ORIENTED_EDGE ( 'NONE', *, *, #619, .F. ) ;
#716 = CARTESIAN_POINT ( 'NONE',  ( 0.04901266702628595540, 0.6212595502153904770, -0.3189999999999998392 ) ) ;
#717 = PLANE ( 'NONE',  #1074 ) ;
#718 = CARTESIAN_POINT ( 'NONE',  ( 0.000000000000000000, -0.3189999999999947877, -1.450000000000001066 ) ) ;
#719 = EDGE_CURVE ( 'NONE', #387, #1095, #254, .T. ) ;
#720 = ORIENTED_EDGE ( 'NONE', *, *, #1007, .F. ) ;
#721 = DIRECTION ( 'NONE',  ( 0.000000000000000000, -1.000000000000000000, -3.491481338843133355E-15 ) ) ;
#722 = DIRECTION ( 'NONE',  ( 7.710538154413521008E-17, 9.387318994422970576E-17, -1.000000000000000000 ) ) ;
#723 = CARTESIAN_POINT ( 'NONE',  ( 0.6705370371214803837, 0.5719685744670173211, 0.3190000000000000613 ) ) ;
#724 = VERTEX_POINT ( 'NONE', #892 ) ;
#725 = EDGE_CURVE ( 'NONE', #724, #110, #1132, .T. ) ;
#726 = DIRECTION ( 'NONE',  ( 1.000000000000000000, 0.000000000000000000, 5.437892401240052077E-17 ) ) ;
#727 = CIRCLE ( 'NONE', #174, 0.2999999999999999334 ) ;
#728 = CARTESIAN_POINT ( 'NONE',  ( 0.9000171380350706629, -0.5538244226237969414, 0.3189999999999999503 ) ) ;
#729 = AXIS2_PLACEMENT_3D ( 'NONE', #769, #497, #1045 ) ;
#730 = SPHERICAL_SURFACE ( 'NONE', #881, 5.000000000000000000 ) ;
#731 = VERTEX_POINT ( 'NONE', #288 ) ;
#732 = EDGE_CURVE ( 'NONE', #1187, #764, #98, .T. ) ;
#733 = CARTESIAN_POINT ( 'NONE',  ( 4.583548511049648333, 0.8352726050606650299, 1.419442590947335393E-16 ) ) ;
#734 = DIRECTION ( 'NONE',  ( 0.000000000000000000, 0.000000000000000000, 1.000000000000000000 ) ) ;
#735 = ORIENTED_EDGE ( 'NONE', *, *, #659, .T. ) ;
#736 = ORIENTED_EDGE ( 'NONE', *, *, #973, .T. ) ;
#737 = DIRECTION ( 'NONE',  ( 0.000000000000000000, 3.585354528787362765E-15, -1.000000000000000000 ) ) ;
#738 = DIRECTION ( 'NONE',  ( -1.000000000000000000, -0.000000000000000000, -0.000000000000000000 ) ) ;
#739 = DIRECTION ( 'NONE',  ( 0.000000000000000000, 0.000000000000000000, 1.000000000000000000 ) ) ;
#740 = ORIENTED_EDGE ( 'NONE', *, *, #349, .F. ) ;
#741 = FACE_OUTER_BOUND ( 'NONE', #77, .T. ) ;
#742 = CALENDAR_DATE ( 2026, 22, 6 ) ;
#743 = DIRECTION ( 'NONE',  ( 0.000000000000000000, 0.000000000000000000, 1.000000000000000000 ) ) ;
#744 = DIRECTION ( 'NONE',  ( -0.8949343913984284526, -0.4461977533474640323, 0.000000000000000000 ) ) ;
#745 = EDGE_LOOP ( 'NONE', ( #1180, #654, #945, #541, #309, #935, #735, #736, #210, #1078, #997 ) ) ;
#746 = CIRCLE ( 'NONE', #276, 2.799999999999999822 ) ;
#747 = EDGE_CURVE ( 'NONE', #449, #111, #651, .T. ) ;
#748 = VECTOR ( 'NONE', #1063, 1000.000000000000000 ) ;
#749 = ORIENTED_EDGE ( 'NONE', *, *, #329, .F. ) ;
#750 = ORIENTED_EDGE ( 'NONE', *, *, #333, .T. ) ;
#751 = CARTESIAN_POINT ( 'NONE',  ( 1.750000000000000000, 0.000000000000000000, 0.000000000000000000 ) ) ;
#752 = PLANE ( 'NONE',  #116 ) ;
#753 = ORIENTED_EDGE ( 'NONE', *, *, #1143, .T. ) ;
#754 = EDGE_CURVE ( 'NONE', #910, #1192, #946, .T. ) ;
#755 = VERTEX_POINT ( 'NONE', #465 ) ;
#756 = EDGE_LOOP ( 'NONE', ( #823, #919, #205, #1119, #187, #407, #266, #1173, #673, #556, #1178, #491, #853 ) ) ;
#757 = PLANE ( 'NONE',  #1163 ) ;
#758 = ORIENTED_EDGE ( 'NONE', *, *, #695, .T. ) ;
#759 = DIRECTION ( 'NONE',  ( 0.000000000000000000, 0.000000000000000000, 1.000000000000000000 ) ) ;
#760 = DIRECTION ( 'NONE',  ( -0.4461977533474640878, -3.276729769593566970E-15, 0.8949343913984285637 ) ) ;
#761 = ORIENTED_EDGE ( 'NONE', *, *, #162, .T. ) ;
#762 = CARTESIAN_POINT ( 'NONE',  ( 1.750000000000000000, -0.5800752085688418713, -0.01588597764761770156 ) ) ;
#763 = CARTESIAN_POINT ( 'NONE',  ( 2.699999999999999734, 2.204364238465235576E-16, -1.800000000000000044 ) ) ;
#764 = VERTEX_POINT ( 'NONE', #168 ) ;
#765 = CIRCLE ( 'NONE', #1181, 4.912116431090248980 ) ;
#766 = VECTOR ( 'NONE', #963, 1000.000000000000000 ) ;
#767 = LOCAL_TIME ( 18, 49, 50.00000000000000000, #224 ) ;
#768 = EDGE_CURVE ( 'NONE', #1020, #105, #496, .T. ) ;
#769 = CARTESIAN_POINT ( 'NONE',  ( 4.583548511049844620, -0.8352726050604029062, 0.000000000000000000 ) ) ;
#770 = PLANE ( 'NONE',  #628 ) ;
#771 = DIRECTION ( 'NONE',  ( -1.000000000000000000, -0.000000000000000000, -0.000000000000000000 ) ) ;
#772 = ORIENTED_EDGE ( 'NONE', *, *, #754, .T. ) ;
#773 = CARTESIAN_POINT ( 'NONE',  ( 0.4633747231012214640, 0.3190000000000019487, -0.5885554627304585562 ) ) ;
#774 = FACE_OUTER_BOUND ( 'NONE', #1101, .T. ) ;
#775 = ADVANCED_FACE ( 'NONE', ( #671 ), #103, .F. ) ;
#776 = FACE_OUTER_BOUND ( 'NONE', #363, .T. ) ;
#777 = DIRECTION ( 'NONE',  ( 0.000000000000000000, 0.000000000000000000, 1.000000000000000000 ) ) ;
#778 = CARTESIAN_POINT ( 'NONE',  ( 1.608484156995325876, 0.3189999999999980629, 0.4955644938992876392 ) ) ;
#779 = DIRECTION ( 'NONE',  ( -1.000000000000000000, -0.000000000000000000, -0.000000000000000000 ) ) ;
#780 = ADVANCED_FACE ( 'NONE', ( #1027 ), #1004, .T. ) ;
#781 = AXIS2_PLACEMENT_3D ( 'NONE', #965, #974, #787 ) ;
#782 = CONICAL_SURFACE ( 'NONE', #253, 0.5794280790988696195, 0.06981317007976585443 ) ;
#783 = CIRCLE ( 'NONE', #337, 0.5794280790988696195 ) ;
#784 = AXIS2_PLACEMENT_3D ( 'NONE', #751, #470, #1199 ) ;
#785 = CARTESIAN_POINT ( 'NONE',  ( 0.1968062524693179050, 1.351876038578302186, 0.3190000000000001723 ) ) ;
#786 = DIRECTION ( 'NONE',  ( 0.000000000000000000, 0.000000000000000000, 1.000000000000000000 ) ) ;
#787 = DIRECTION ( 'NONE',  ( 0.000000000000000000, 0.000000000000000000, 1.000000000000000000 ) ) ;
#788 = ORIENTED_EDGE ( 'NONE', *, *, #258, .F. ) ;
#789 = APPROVAL ( #912, 'Coincident' ) ;
#790 = DIRECTION ( 'NONE',  ( -1.000000000000000000, -0.000000000000000000, -0.000000000000000000 ) ) ;
#791 = DIRECTION ( 'NONE',  ( -1.000000000000000000, -0.000000000000000000, -0.000000000000000000 ) ) ;
#792 = CARTESIAN_POINT ( 'NONE',  ( 1.750000000000000000, -0.5774823318188626597, 0.3190000000000000613 ) ) ;
#793 = CARTESIAN_POINT ( 'NONE',  ( 0.000000000000000000, -0.3190000000000052238, 1.449999999999998845 ) ) ;
#794 = ADVANCED_FACE ( 'NONE', ( #925, #270 ), #757, .F. ) ;
#795 = CARTESIAN_POINT ( 'NONE',  ( 1.750000000000000000, -0.3189999999999980629, -0.5774823318188637700 ) ) ;
#796 = CARTESIAN_POINT ( 'NONE',  ( 8.399999999999998579, 1.500000000000000000, 0.000000000000000000 ) ) ;
#797 = EDGE_LOOP ( 'NONE', ( #808, #551, #1189, #82 ) ) ;
#798 = CARTESIAN_POINT ( 'NONE',  ( 1.750000000000000000, -0.5774823318188625487, -0.3189999999999998392 ) ) ;
#799 = AXIS2_PLACEMENT_3D ( 'NONE', #656, #466, #852 ) ;
#800 = EDGE_CURVE ( 'NONE', #105, #164, #1021, .T. ) ;
#801 = CARTESIAN_POINT ( 'NONE',  ( 1.750000000000000000, 0.5774823318189999943, 0.3190000000000001723 ) ) ;
#802 = DIRECTION ( 'NONE',  ( 0.000000000000000000, 0.000000000000000000, -1.000000000000000000 ) ) ;
#803 = ORIENTED_EDGE ( 'NONE', *, *, #1064, .T. ) ;
#804 = DIRECTION ( 'NONE',  ( 0.000000000000000000, 0.000000000000000000, 1.000000000000000000 ) ) ;
#805 = DIRECTION ( 'NONE',  ( 0.000000000000000000, 1.000000000000000000, 3.661418983433337654E-15 ) ) ;
#806 = DIRECTION ( 'NONE',  ( -0.000000000000000000, 0.000000000000000000, 1.000000000000000000 ) ) ;
#807 = ADVANCED_FACE ( 'NONE', ( #190 ), #371, .T. ) ;
#808 = ORIENTED_EDGE ( 'NONE', *, *, #1155, .T. ) ;
#809 = DIRECTION ( 'NONE',  ( -1.000000000000000000, -0.000000000000000000, -0.000000000000000000 ) ) ;
#810 = DIRECTION ( 'NONE',  ( -1.000000000000000000, -0.000000000000000000, -0.000000000000000000 ) ) ;
#811 = FACE_OUTER_BOUND ( 'NONE', #1018, .T. ) ;
#812 = EDGE_CURVE ( 'NONE', #657, #387, #478, .T. ) ;
#813 = ORIENTED_EDGE ( 'NONE', *, *, #202, .T. ) ;
#814 = AXIS2_PLACEMENT_3D ( 'NONE', #504, #779, #1071 ) ;
#815 = AXIS2_PLACEMENT_3D ( 'NONE', #240, #70, #353 ) ;
#816 = CARTESIAN_POINT ( 'NONE',  ( 1.750000000000000000, -0.5774823318188628818, 0.3190000000000000613 ) ) ;
#817 = AXIS2_PLACEMENT_3D ( 'NONE', #245, #352, #156 ) ;
#818 = LINE ( 'NONE', #718, #335 ) ;
#819 = AXIS2_PLACEMENT_3D ( 'NONE', #232, #790, #244 ) ;
#820 = EDGE_LOOP ( 'NONE', ( #204, #1203, #1008, #398 ) ) ;
#821 = ORIENTED_EDGE ( 'NONE', *, *, #606, .T. ) ;
#822 = COORDINATED_UNIVERSAL_TIME_OFFSET ( 10, 0, .AHEAD. ) ;
#823 = ORIENTED_EDGE ( 'NONE', *, *, #855, .F. ) ;
#824 = DIRECTION ( 'NONE',  ( 0.8949343913984565413, -0.4461977533474077995, 0.000000000000000000 ) ) ;
#825 = LINE ( 'NONE', #80, #862 ) ;
#826 = ORIENTED_EDGE ( 'NONE', *, *, #155, .T. ) ;
#827 = ORIENTED_EDGE ( 'NONE', *, *, #582, .F. ) ;
#828 = CARTESIAN_POINT ( 'NONE',  ( 0.000000000000000000, -1.449999999999999956, 0.3189999999999998392 ) ) ;
#829 = ORIENTED_EDGE ( 'NONE', *, *, #241, .F. ) ;
#830 = EDGE_CURVE ( 'NONE', #1135, #110, #200, .T. ) ;
#831 = CARTESIAN_POINT ( 'NONE',  ( 0.000000000000000000, 0.3190000000000053348, -1.449999999999998845 ) ) ;
#832 = DIRECTION ( 'NONE',  ( 0.000000000000000000, -1.224646799147353207E-16, 1.000000000000000000 ) ) ;
#833 = VERTEX_POINT ( 'NONE', #359 ) ;
#834 = B_SPLINE_CURVE_WITH_KNOTS ( 'NONE', 3,
 ( #533, #250, #728, #904, #63, #447, #617 ),
 .UNSPECIFIED., .F., .F.,
 ( 4, 3, 4 ),
 ( 2.893274888773753189E-05, 0.001309439242283416552, 0.001735472924055071232 ),
 .UNSPECIFIED. ) ;
#835 = ORIENTED_EDGE ( 'NONE', *, *, #1069, .F. ) ;
#836 = CARTESIAN_POINT ( 'NONE',  ( 1.750000000000000000, 0.5774823318189999943, 0.3190000000000001723 ) ) ;
#837 = VERTEX_POINT ( 'NONE', #575 ) ;
#838 = DIRECTION ( 'NONE',  ( -5.437892401240052077E-17, -1.000000000000000000, -3.538417933815248060E-15 ) ) ;
#839 = EDGE_CURVE ( 'NONE', #1083, #543, #23, .T. ) ;
#840 = CARTESIAN_POINT ( 'NONE',  ( 4.583548511049844620, 2.916338713415286721E-15, -0.8352726050604027952 ) ) ;
#841 = ORIENTED_EDGE ( 'NONE', *, *, #457, .F. ) ;
#842 = AXIS2_PLACEMENT_3D ( 'NONE', #1028, #297, #9 ) ;
#843 = AXIS2_PLACEMENT_3D ( 'NONE', #655, #28, #131 ) ;
#844 = FACE_OUTER_BOUND ( 'NONE', #455, .T. ) ;
#845 = CARTESIAN_POINT ( 'NONE',  ( 1.747775893070738107, 3.547973712022649386E-17, -0.5795641040826976509 ) ) ;
#846 = CARTESIAN_POINT ( 'NONE',  ( 5.000000000000000000, 0.000000000000000000, 0.000000000000000000 ) ) ;
#847 = CARTESIAN_POINT ( 'NONE',  ( 0.000000000000000000, 0.000000000000000000, 0.000000000000000000 ) ) ;
#848 = ORIENTED_EDGE ( 'NONE', *, *, #1033, .T. ) ;
#849 = ORIENTED_EDGE ( 'NONE', *, *, #1166, .T. ) ;
#850 = EDGE_CURVE ( 'NONE', #866, #362, #710, .T. ) ;
#851 = DIRECTION ( 'NONE',  ( -1.000000000000000000, -0.000000000000000000, -0.000000000000000000 ) ) ;
#852 = DIRECTION ( 'NONE',  ( 0.000000000000000000, -3.585171221631645595E-15, 1.000000000000000000 ) ) ;
#853 = ORIENTED_EDGE ( 'NONE', *, *, #373, .F. ) ;
#854 = EDGE_LOOP ( 'NONE', ( #10, #583, #670 ) ) ;
#855 = EDGE_CURVE ( 'NONE', #833, #543, #118, .T. ) ;
#856 = PERSON_AND_ORGANIZATION_ROLE ( 'design_supplier' ) ;
#857 = DIRECTION ( 'NONE',  ( 0.000000000000000000, 0.000000000000000000, 1.000000000000000000 ) ) ;
#858 = ORIENTED_EDGE ( 'NONE', *, *, #973, .F. ) ;
#859 = CARTESIAN_POINT ( 'NONE',  ( 5.000000000000000000, -0.3190000000000003944, -1.143728094683170088E-15 ) ) ;
#860 = CIRCLE ( 'NONE', #781, 0.5794280790988696195 ) ;
#861 = DIRECTION ( 'NONE',  ( -0.000000000000000000, 1.000000000000000000, 4.693659497211485288E-17 ) ) ;
#862 = VECTOR ( 'NONE', #383, 1000.000000000000000 ) ;
#863 = ORIENTED_EDGE ( 'NONE', *, *, #619, .T. ) ;
#864 = VECTOR ( 'NONE', #507, 1000.000000000000000 ) ;
#865 = PRODUCT_DEFINITION_FORMATION_WITH_SPECIFIED_SOURCE ( 'Symmetric', '', #372, .NOT_KNOWN. ) ;
#866 = VERTEX_POINT ( 'NONE', #640 ) ;
#867 = DIRECTION ( 'NONE',  ( 7.710538154413521008E-17, 9.387318994422970576E-17, -1.000000000000000000 ) ) ;
#868 = FACE_OUTER_BOUND ( 'NONE', #1202, .T. ) ;
#869 = CARTESIAN_POINT ( 'NONE',  ( 2.699999999999999734, 0.000000000000000000, 1.500000000000000000 ) ) ;
#870 = ORIENTED_EDGE ( 'NONE', *, *, #386, .F. ) ;
#871 = CARTESIAN_POINT ( 'NONE',  ( 1.750000000000000000, -0.5774823318188625487, 0.04744528728182550309 ) ) ;
#872 = EDGE_CURVE ( 'NONE', #1135, #990, #1056, .T. ) ;
#873 = CARTESIAN_POINT ( 'NONE',  ( 0.000000000000000000, 0.000000000000000000, 0.000000000000000000 ) ) ;
#874 = FACE_OUTER_BOUND ( 'NONE', #569, .T. ) ;
#875 = APPROVAL_STATUS ( 'not_yet_approved' ) ;
#876 = CARTESIAN_POINT ( 'NONE',  ( 0.2561988399095727620, 0.3190000000000020597, -0.6049733911078173376 ) ) ;
#877 = B_SPLINE_CURVE_WITH_KNOTS ( 'NONE', 3,
 ( #594, #762, #414, #871 ),
 .UNSPECIFIED., .F., .F.,
 ( 4, 4 ),
 ( 0.000000000000000000, 1.000000000000000000 ),
 .UNSPECIFIED. ) ;
#878 = DIRECTION ( 'NONE',  ( -1.000000000000000000, -0.000000000000000000, -0.000000000000000000 ) ) ;
#879 = CARTESIAN_POINT ( 'NONE',  ( 0.04901266702628595540, 0.000000000000000000, 0.000000000000000000 ) ) ;
#880 = AXIS2_PLACEMENT_3D ( 'NONE', #885, #703, #223 ) ;
#881 = AXIS2_PLACEMENT_3D ( 'NONE', #1077, #1171, #1093 ) ;
#882 = CIRCLE ( 'NONE', #1037, 2.799999999999999822 ) ;
#883 = PLANE ( 'NONE',  #552 ) ;
#884 = FACE_OUTER_BOUND ( 'NONE', #624, .T. ) ;
#885 = CARTESIAN_POINT ( 'NONE',  ( 1.750000000000000000, 0.000000000000000000, 0.000000000000000000 ) ) ;
#886 = EDGE_CURVE ( 'NONE', #338, #180, #529, .T. ) ;
#887 = DIRECTION ( 'NONE',  ( 1.000000000000000000, 0.000000000000000000, 0.000000000000000000 ) ) ;
#888 = CARTESIAN_POINT ( 'NONE',  ( 0.4633747231012214640, -0.5885554627304597775, -0.3189999999999998948 ) ) ;
#889 = CARTESIAN_POINT ( 'NONE',  ( 1.750000000000000000, -0.5774823318188626597, 0.3190000000000000613 ) ) ;
#890 = EDGE_CURVE ( 'NONE', #731, #539, #677, .T. ) ;
#891 = CARTESIAN_POINT ( 'NONE',  ( 2.399999999999999911, 0.000000000000000000, 0.000000000000000000 ) ) ;
#892 = CARTESIAN_POINT ( 'NONE',  ( 2.699999999999999734, 1.836970198721029934E-16, -1.500000000000000000 ) ) ;
#893 = CARTESIAN_POINT ( 'NONE',  ( 1.750000000000000000, -0.3189999999999983959, -0.4837105527567150953 ) ) ;
#894 = EDGE_LOOP ( 'NONE', ( #376, #67, #492, #391 ) ) ;
#895 = APPROVAL ( #87, 'Coincident' ) ;
#896 = CARTESIAN_POINT ( 'NONE',  ( 1.750000000000000000, -0.3189999999999980629, -0.5774823318188637700 ) ) ;
#897 = VECTOR ( 'NONE', #296, 1000.000000000000114 ) ;
#898 = EDGE_CURVE ( 'NONE', #111, #644, #1188, .T. ) ;
#899 = DIRECTION ( 'NONE',  ( -1.000000000000000000, -0.000000000000000000, -0.000000000000000000 ) ) ;
#900 = CIRCLE ( 'NONE', #57, 4.989813523569793574 ) ;
#901 = PLANE ( 'NONE',  #133 ) ;
#902 = ORIENTED_EDGE ( 'NONE', *, *, #582, .T. ) ;
#903 = CARTESIAN_POINT ( 'NONE',  ( 1.750000000000000000, -0.4837105527567140406, 0.3190000000000000058 ) ) ;
#904 = CARTESIAN_POINT ( 'NONE',  ( 1.325421913600173252, -0.5189056692713084340, 0.3190000000000000058 ) ) ;
#905 = EDGE_CURVE ( 'NONE', #110, #724, #256, .T. ) ;
#906 = CARTESIAN_POINT ( 'NONE',  ( 1.030407025453682346, 0.5431548236935594964, 0.3190000000000000613 ) ) ;
#907 = ORIENTED_EDGE ( 'NONE', *, *, #333, .F. ) ;
#908 = CARTESIAN_POINT ( 'NONE',  ( 1.750000000000000000, 0.5774823318189999943, -0.3189999999999997837 ) ) ;
#909 = PLANE ( 'NONE',  #815 ) ;
#910 = VERTEX_POINT ( 'NONE', #785 ) ;
#911 = VERTEX_POINT ( 'NONE', #305 ) ;
#912 = APPROVAL_STATUS ( 'not_yet_approved' ) ;
#913 = ORIENTED_EDGE ( 'NONE', *, *, #304, .T. ) ;
#914 = VECTOR ( 'NONE', #586, 1000.000000000000114 ) ;
#915 = CARTESIAN_POINT ( 'NONE',  ( 2.399999999999999911, 1.500000000000000000, 0.000000000000000000 ) ) ;
#916 = CIRCLE ( 'NONE', #976, 4.912116431090248980 ) ;
#917 = DIRECTION ( 'NONE',  ( 0.000000000000000000, -1.000000000000000000, -9.387318994422970576E-17 ) ) ;
#918 = APPROVAL_PERSON_ORGANIZATION ( #183, #895, #469 ) ;
#919 = ORIENTED_EDGE ( 'NONE', *, *, #58, .T. ) ;
#920 = EDGE_LOOP ( 'NONE', ( #1107, #913, #954, #907 ) ) ;
#921 = EDGE_CURVE ( 'NONE', #910, #290, #916, .T. ) ;
#922 = UNCERTAINTY_MEASURE_WITH_UNIT (LENGTH_MEASURE( 1.000000000000000082E-05 ), #639, 'distance_accuracy_value', 'NONE');
#923 = CARTESIAN_POINT ( 'NONE',  ( 1.750000000000000000, -0.01583282219006849900, -0.5794280790988695085 ) ) ;
#924 = ORIENTED_EDGE ( 'NONE', *, *, #732, .T. ) ;
#925 = FACE_BOUND ( 'NONE', #461, .T. ) ;
#926 = DIRECTION ( 'NONE',  ( -0.4461977533474640878, 0.8949343913984285637, 1.520830425370171181E-16 ) ) ;
#927 = ORIENTED_EDGE ( 'NONE', *, *, #850, .T. ) ;
#928 = ORIENTED_EDGE ( 'NONE', *, *, #128, .F. ) ;
#929 = DIRECTION ( 'NONE',  ( 0.000000000000000000, 0.000000000000000000, 1.000000000000000000 ) ) ;
#930 = EDGE_CURVE ( 'NONE', #449, #1020, #458, .T. ) ;
#931 = ORIENTED_EDGE ( 'NONE', *, *, #625, .T. ) ;
#932 = DIRECTION ( 'NONE',  ( -0.8949343913984284526, -0.4461977533474640323, 0.000000000000000000 ) ) ;
#933 = DIRECTION ( 'NONE',  ( -1.000000000000000000, -0.000000000000000000, -0.000000000000000000 ) ) ;
#934 = EDGE_LOOP ( 'NONE', ( #858, #715, #928 ) ) ;
#935 = ORIENTED_EDGE ( 'NONE', *, *, #540, .T. ) ;
#936 = DIRECTION ( 'NONE',  ( 0.8949343913984565413, -0.4461977533474077995, 2.772256603960569424E-17 ) ) ;
#937 = CARTESIAN_POINT ( 'NONE',  ( 1.750000000000000000, -0.5774823318188626597, 0.3190000000000000613 ) ) ;
#938 = AXIS2_PLACEMENT_3D ( 'NONE', #580, #952, #597 ) ;
#939 = EDGE_CURVE ( 'NONE', #1039, #837, #314, .T. ) ;
#940 = DIRECTION ( 'NONE',  ( 0.000000000000000000, -3.585354528787362765E-15, 1.000000000000000000 ) ) ;
#941 = EDGE_LOOP ( 'NONE', ( #193, #523, #658, #144 ) ) ;
#942 = CONICAL_SURFACE ( 'NONE', #422, 3077.683537175322726, 1.256637061435923908 ) ;
#943 = CC_DESIGN_APPROVAL ( #895, ( #865 ) ) ;
#944 = VERTEX_POINT ( 'NONE', #206 ) ;
#945 = ORIENTED_EDGE ( 'NONE', *, *, #349, .T. ) ;
#946 = LINE ( 'NONE', #1103, #961 ) ;
#947 = EDGE_CURVE ( 'NONE', #539, #1083, #76, .T. ) ;
#948 = VERTEX_POINT ( 'NONE', #1136 ) ;
#949 = ORIENTED_EDGE ( 'NONE', *, *, #416, .F. ) ;
#950 = PERSON_AND_ORGANIZATION ( #18446744073709551615, #18446744073709551615 ) ;
#951 = CARTESIAN_POINT ( 'NONE',  ( 1.750000000000000000, -0.3189999999999983959, -0.4837105527567150953 ) ) ;
#952 = DIRECTION ( 'NONE',  ( -1.000000000000000000, -0.000000000000000000, -0.000000000000000000 ) ) ;
#953 = VERTEX_POINT ( 'NONE', #310 ) ;
#954 = ORIENTED_EDGE ( 'NONE', *, *, #905, .F. ) ;
#955 = CALENDAR_DATE ( 2026, 22, 6 ) ;
#956 = PLANE ( 'NONE',  #237 ) ;
#957 = CARTESIAN_POINT ( 'NONE',  ( 0.1875265823137305943, -1.356502710672940593, -1.661236702660324741E-16 ) ) ;
#958 = DIRECTION ( 'NONE',  ( 0.000000000000000000, 0.000000000000000000, 1.000000000000000000 ) ) ;
#959 = AXIS2_PLACEMENT_3D ( 'NONE', #347, #1086, #1167 ) ;
#960 = VERTEX_POINT ( 'NONE', #37 ) ;
#961 = VECTOR ( 'NONE', #1012, 1000.000000000000000 ) ;
#962 = EDGE_CURVE ( 'NONE', #731, #180, #157, .T. ) ;
#963 = DIRECTION ( 'NONE',  ( 0.000000000000000000, 3.585354528787362765E-15, -1.000000000000000000 ) ) ;
#964 = CARTESIAN_POINT ( 'NONE',  ( 0.04901266702628595540, 0.6212595502153904770, -0.3189999999999998392 ) ) ;
#965 = CARTESIAN_POINT ( 'NONE',  ( 1.750000000000000000, 0.000000000000000000, 0.000000000000000000 ) ) ;
#966 = PERSON_AND_ORGANIZATION ( #18446744073709551615, #18446744073709551615 ) ;
#967 = EDGE_CURVE ( 'NONE', #362, #387, #877, .T. ) ;
#968 = DIRECTION ( 'NONE',  ( -1.000000000000000000, -0.000000000000000000, -0.000000000000000000 ) ) ;
#969 = CARTESIAN_POINT ( 'NONE',  ( 1.750000000000000000, 0.000000000000000000, 0.000000000000000000 ) ) ;
#970 = DIRECTION ( 'NONE',  ( 0.8949343913984284526, 0.4461977533474640323, 2.217805283168386021E-16 ) ) ;
#971 = CARTESIAN_POINT ( 'NONE',  ( 1.466957343548594084, -0.3189999999999982849, -0.5072879323466545909 ) ) ;
#972 = DIRECTION ( 'NONE',  ( -1.000000000000000000, -0.000000000000000000, -0.000000000000000000 ) ) ;
#973 = EDGE_CURVE ( 'NONE', #102, #755, #783, .T. ) ;
#974 = DIRECTION ( 'NONE',  ( -1.000000000000000000, -0.000000000000000000, -0.000000000000000000 ) ) ;
#975 = AXIS2_PLACEMENT_3D ( 'NONE', #186, #104, #759 ) ;
#976 = AXIS2_PLACEMENT_3D ( 'NONE', #1141, #605, #420 ) ;
#977 = VECTOR ( 'NONE', #263, 1000.000000000000114 ) ;
#978 = CARTESIAN_POINT ( 'NONE',  ( 0.6705370371214802727, -0.3190000000000020597, 0.5719685744670160998 ) ) ;
#979 = CARTESIAN_POINT ( 'NONE',  ( 0.04901266702628595540, 0.000000000000000000, 0.000000000000000000 ) ) ;
#980 = CARTESIAN_POINT ( 'NONE',  ( 0.8575369645584042244, 2.800000000000000266, 0.000000000000000000 ) ) ;
#981 = ADVANCED_FACE ( 'NONE', ( #1041 ), #942, .F. ) ;
#982 = CARTESIAN_POINT ( 'NONE',  ( 8.399999999999998579, 0.000000000000000000, 1.500000000000000000 ) ) ;
#983 = DIRECTION ( 'NONE',  ( 0.000000000000000000, 1.776356839400250465E-15, -1.000000000000000000 ) ) ;
#984 = DIRECTION ( 'NONE',  ( 0.000000000000000000, -1.000000000000000000, -9.387318994422970576E-17 ) ) ;
#985 = ORIENTED_EDGE ( 'NONE', *, *, #1082, .F. ) ;
#986 = EDGE_CURVE ( 'NONE', #93, #1195, #108, .T. ) ;
#987 = CARTESIAN_POINT ( 'NONE',  ( 0.8575369645584041134, 0.000000000000000000, 0.000000000000000000 ) ) ;
#988 = CARTESIAN_POINT ( 'NONE',  ( 1.750000000000000000, -0.5774823318188626597, 0.3190000000000000613 ) ) ;
#989 = CARTESIAN_POINT ( 'NONE',  ( 0.000000000000000000, 0.3189999999999947877, 1.450000000000001066 ) ) ;
#990 = VERTEX_POINT ( 'NONE', #218 ) ;
#991 = CARTESIAN_POINT ( 'NONE',  ( 1.750000000000000000, -0.3190000000000018376, 0.4837105527567128194 ) ) ;
#992 = AXIS2_PLACEMENT_3D ( 'NONE', #158, #252, #522 ) ;
#993 = EDGE_CURVE ( 'NONE', #180, #953, #20, .T. ) ;
#994 = AXIS2_PLACEMENT_3D ( 'NONE', #1152, #408, #13 ) ;
#995 = LINE ( 'NONE', #801, #548 ) ;
#996 = CARTESIAN_POINT ( 'NONE',  ( 1.750000000000000000, 0.4837105527567139851, 0.3190000000000001168 ) ) ;
#997 = ORIENTED_EDGE ( 'NONE', *, *, #898, .T. ) ;
#998 = CARTESIAN_POINT ( 'NONE',  ( 0.4633747231012212975, -0.3190000000000021152, 0.5885554627304585562 ) ) ;
#999 = CARTESIAN_POINT ( 'NONE',  ( 0.1968062524693179050, 0.3189999999999951763, 1.351876038578303518 ) ) ;
#1000 = PLANE ( 'NONE',  #959 ) ;
#1001 = EDGE_LOOP ( 'NONE', ( #535, #1029, #86, #1016, #295, #313, #849 ) ) ;
#1002 = ORIENTED_EDGE ( 'NONE', *, *, #540, .F. ) ;
#1003 = CARTESIAN_POINT ( 'NONE',  ( 0.000000000000000000, 0.000000000000000000, 0.000000000000000000 ) ) ;
#1004 = PLANE ( 'NONE',  #152 ) ;
#1005 = CARTESIAN_POINT ( 'NONE',  ( 1.747775893070893316, -3.916682420957307836E-17, 0.5795641040826887691 ) ) ;
#1006 = ORIENTED_EDGE ( 'NONE', *, *, #606, .F. ) ;
#1007 = EDGE_CURVE ( 'NONE', #290, #960, #278, .T. ) ;
#1008 = ORIENTED_EDGE ( 'NONE', *, *, #123, .F. ) ;
#1009 = PERSON_AND_ORGANIZATION ( #18446744073709551615, #18446744073709551615 ) ;
#1010 = VECTOR ( 'NONE', #970, 1000.000000000000114 ) ;
#1011 = AXIS2_PLACEMENT_3D ( 'NONE', #873, #498, #786 ) ;
#1012 = DIRECTION ( 'NONE',  ( 0.8949343913984565413, -0.4461977533474077995, 0.000000000000000000 ) ) ;
#1013 = CIRCLE ( 'NONE', #438, 2.799999999999999822 ) ;
#1014 = DIRECTION ( 'NONE',  ( 1.000000000000000000, 0.000000000000000000, 0.000000000000000000 ) ) ;
#1015 = VECTOR ( 'NONE', #737, 1000.000000000000000 ) ;
#1016 = ORIENTED_EDGE ( 'NONE', *, *, #145, .F. ) ;
#1017 = ADVANCED_FACE ( 'NONE', ( #211 ), #956, .T. ) ;
#1018 = EDGE_LOOP ( 'NONE', ( #394, #1106 ) ) ;
#1019 = DATE_TIME_ROLE ( 'creation_date' ) ;
#1020 = VERTEX_POINT ( 'NONE', #621 ) ;
#1021 = LINE ( 'NONE', #831, #897 ) ;
#1022 = CARTESIAN_POINT ( 'NONE',  ( 0.4745355439218829630, 0.3189999999999978408, 0.5878107288938840824 ) ) ;
#1023 = EDGE_LOOP ( 'NONE', ( #821, #632, #291, #385, #689, #279, #581 ) ) ;
#1024 = ORIENTED_EDGE ( 'NONE', *, *, #962, .T. ) ;
#1025 = DATE_AND_TIME ( #1102, #177 ) ;
#1026 = EDGE_CURVE ( 'NONE', #356, #173, #604, .T. ) ;
#1027 = FACE_OUTER_BOUND ( 'NONE', #1127, .T. ) ;
#1028 = CARTESIAN_POINT ( 'NONE',  ( 2.699999999999999734, 0.000000000000000000, 1.800000000000000044 ) ) ;
#1029 = ORIENTED_EDGE ( 'NONE', *, *, #967, .F. ) ;
#1030 = ORIENTED_EDGE ( 'NONE', *, *, #532, .T. ) ;
#1031 = ORIENTED_EDGE ( 'NONE', *, *, #713, .F. ) ;
#1032 =( NAMED_UNIT ( * ) PLANE_ANGLE_UNIT ( ) SI_UNIT ( $, .RADIAN. ) );
#1033 = EDGE_CURVE ( 'NONE', #71, #17, #1013, .T. ) ;
#1034 = CARTESIAN_POINT ( 'NONE',  ( 1.750000000000000000, -0.3190000000000021707, 0.5774823318189988841 ) ) ;
#1035 = CIRCLE ( 'NONE', #842, 0.2999999999999999334 ) ;
#1036 = DIRECTION ( 'NONE',  ( 0.000000000000000000, 0.000000000000000000, 1.000000000000000000 ) ) ;
#1037 = AXIS2_PLACEMENT_3D ( 'NONE', #987, #1079, #249 ) ;
#1038 = LOCAL_TIME ( 18, 49, 50.00000000000000000, #126 ) ;
#1039 = VERTEX_POINT ( 'NONE', #154 ) ;
#1040 = ORIENTED_EDGE ( 'NONE', *, *, #839, .F. ) ;
#1041 = FACE_OUTER_BOUND ( 'NONE', #4, .T. ) ;
#1042 = DIRECTION ( 'NONE',  ( 7.710538154413521008E-17, 9.387318994422970576E-17, -1.000000000000000000 ) ) ;
#1043 = VERTEX_POINT ( 'NONE', #633 ) ;
#1044 = ORIENTED_EDGE ( 'NONE', *, *, #19, .F. ) ;
#1045 = DIRECTION ( 'NONE',  ( 0.8949343913984565413, -0.4461977533474078550, 0.000000000000000000 ) ) ;
#1046 = CARTESIAN_POINT ( 'NONE',  ( 0.04901266702628595540, -0.6212595502153904770, -0.3189999999999999503 ) ) ;
#1047 = DIRECTION ( 'NONE',  ( 0.000000000000000000, 0.000000000000000000, 1.000000000000000000 ) ) ;
#1048 = ADVANCED_FACE ( 'NONE', ( #434 ), #531, .T. ) ;
#1049 = ORIENTED_EDGE ( 'NONE', *, *, #687, .T. ) ;
#1050 = CARTESIAN_POINT ( 'NONE',  ( 0.04901266702631449507, -0.3189999999999977853, -0.6212595502155117133 ) ) ;
#1051 = B_SPLINE_CURVE_WITH_KNOTS ( 'NONE', 3,
 ( #239, #233, #161, #147 ),
 .UNSPECIFIED., .F., .F.,
 ( 4, 4 ),
 ( 0.000000000000000000, 1.000000000000000000 ),
 .UNSPECIFIED. ) ;
#1052 = FACE_OUTER_BOUND ( 'NONE', #675, .T. ) ;
#1053 = CIRCLE ( 'NONE', #275, 4.912116431090188584 ) ;
#1054 = CARTESIAN_POINT ( 'NONE',  ( 5.000000000000000000, -2.994554759220931543E-17, 0.3190000000000003944 ) ) ;
#1055 = AXIS2_PLACEMENT_3D ( 'NONE', #179, #926, #744 ) ;
#1056 = CIRCLE ( 'NONE', #42, 1.500000000000000000 ) ;
#1057 = EDGE_CURVE ( 'NONE', #667, #92, #882, .T. ) ;
#1058 = APPROVAL_ROLE ( '' ) ;
#1059 = CIRCLE ( 'NONE', #819, 0.5794280790988696195 ) ;
#1060 = CARTESIAN_POINT ( 'NONE',  ( 0.6705370371214803837, 0.3190000000000018932, -0.5719685744670162109 ) ) ;
#1061 = DIRECTION ( 'NONE',  ( 0.000000000000000000, 0.000000000000000000, 1.000000000000000000 ) ) ;
#1062 = CARTESIAN_POINT ( 'NONE',  ( 1.750000000000000000, 0.000000000000000000, 0.000000000000000000 ) ) ;
#1063 = DIRECTION ( 'NONE',  ( 0.000000000000000000, -1.000000000000000000, -3.491481338843133355E-15 ) ) ;
#1064 = EDGE_CURVE ( 'NONE', #564, #837, #446, .T. ) ;
#1065 = CARTESIAN_POINT ( 'NONE',  ( 0.000000000000000000, 1.836970198721029934E-16, -1.500000000000000000 ) ) ;
#1066 = B_SPLINE_CURVE_WITH_KNOTS ( 'NONE', 3,
 ( #48, #138, #442, #346, #888, #340, #1085 ),
 .UNSPECIFIED., .F., .F.,
 ( 4, 3, 4 ),
 ( 2.007000254345475973E-07, 0.001083265687282674921, 0.001706740853108254605 ),
 .UNSPECIFIED. ) ;
#1067 = CARTESIAN_POINT ( 'NONE',  ( 1.750000000000000000, -0.3189999999999980629, -0.5774823318188639920 ) ) ;
#1068 = CARTESIAN_POINT ( 'NONE',  ( 0.000000000000000000, 3.429011037612588783E-16, -2.799999999999999822 ) ) ;
#1069 = EDGE_CURVE ( 'NONE', #1195, #911, #616, .T. ) ;
#1070 = DIRECTION ( 'NONE',  ( 1.000000000000000000, 0.000000000000000000, 5.437892401240052077E-17 ) ) ;
#1071 = DIRECTION ( 'NONE',  ( 0.000000000000000000, 0.000000000000000000, 1.000000000000000000 ) ) ;
#1072 = AXIS2_PLACEMENT_3D ( 'NONE', #879, #417, #429 ) ;
#1073 = AXIS2_PLACEMENT_3D ( 'NONE', #859, #1157, #330 ) ;
#1074 = AXIS2_PLACEMENT_3D ( 'NONE', #816, #722, #1170 ) ;
#1075 = SPHERICAL_SURFACE ( 'NONE', #357, 5.000000000000000000 ) ;
#1076 = CARTESIAN_POINT ( 'NONE',  ( 0.9000171380350704409, 0.5538244226237971635, -0.3189999999999997837 ) ) ;
#1077 = CARTESIAN_POINT ( 'NONE',  ( 5.000000000000000000, 0.000000000000000000, 0.000000000000000000 ) ) ;
#1078 = ORIENTED_EDGE ( 'NONE', *, *, #747, .T. ) ;
#1079 = DIRECTION ( 'NONE',  ( -1.000000000000000000, -0.000000000000000000, -0.000000000000000000 ) ) ;
#1080 = CARTESIAN_POINT ( 'NONE',  ( 1.938267595449616909, -2.007712106726164865E-17, 0.000000000000000000 ) ) ;
#1081 = PLANE ( 'NONE',  #1205 ) ;
#1082 = EDGE_CURVE ( 'NONE', #960, #1140, #1184, .T. ) ;
#1083 = VERTEX_POINT ( 'NONE', #1175 ) ;
#1084 = LINE ( 'NONE', #896, #679 ) ;
#1085 = CARTESIAN_POINT ( 'NONE',  ( 0.04901266702628595540, -0.6212595502153904770, -0.3189999999999999503 ) ) ;
#1086 = DIRECTION ( 'NONE',  ( -0.4461977533474640878, -3.276729769593566970E-15, 0.8949343913984285637 ) ) ;
#1087 = VERTEX_POINT ( 'NONE', #798 ) ;
#1088 = AXIS2_PLACEMENT_3D ( 'NONE', #796, #1186, #806 ) ;
#1089 = DIRECTION ( 'NONE',  ( -5.437892401240052077E-17, -4.693659497211484672E-17, 1.000000000000000000 ) ) ;
#1090 = CIRCLE ( 'NONE', #454, 0.6983727004500033253 ) ;
#1091 = CC_DESIGN_APPROVAL ( #1179, ( #596 ) ) ;
#1092 = DIRECTION ( 'NONE',  ( 0.000000000000000000, 0.000000000000000000, 1.000000000000000000 ) ) ;
#1093 = DIRECTION ( 'NONE',  ( 0.000000000000000000, 1.000000000000000000, 0.000000000000000000 ) ) ;
#1094 = ORIENTED_EDGE ( 'NONE', *, *, #886, .T. ) ;
#1095 = VERTEX_POINT ( 'NONE', #903 ) ;
#1096 = DIRECTION ( 'NONE',  ( 0.000000000000000000, 3.541714600763383141E-15, -1.000000000000000000 ) ) ;
#1097 = EDGE_CURVE ( 'NONE', #17, #1043, #257, .T. ) ;
#1098 = DIRECTION ( 'NONE',  ( 0.000000000000000000, 0.000000000000000000, 1.000000000000000000 ) ) ;
#1099 = CARTESIAN_POINT ( 'NONE',  ( 0.04901266702631450201, 0.3189999999999977298, 0.6212595502155118243 ) ) ;
#1100 = ORIENTED_EDGE ( 'NONE', *, *, #1191, .T. ) ;
#1101 = EDGE_LOOP ( 'NONE', ( #848, #1126, #870, #269, #181 ) ) ;
#1102 = CALENDAR_DATE ( 2026, 22, 6 ) ;
#1103 = CARTESIAN_POINT ( 'NONE',  ( 0.000000000000000000, 1.449999999999999956, 0.3190000000000001723 ) ) ;
#1104 = EDGE_CURVE ( 'NONE', #111, #164, #1084, .T. ) ;
#1105 = CARTESIAN_POINT ( 'NONE',  ( 0.04901266702631450201, 0.3189999999999977298, 0.6212595502155118243 ) ) ;
#1106 = ORIENTED_EDGE ( 'NONE', *, *, #625, .F. ) ;
#1107 = ORIENTED_EDGE ( 'NONE', *, *, #72, .F. ) ;
#1108 = VECTOR ( 'NONE', #984, 1000.000000000000000 ) ;
#1109 = DIRECTION ( 'NONE',  ( -1.000000000000000000, -0.000000000000000000, -0.000000000000000000 ) ) ;
#1110 = AXIS2_PLACEMENT_3D ( 'NONE', #1164, #1089, #726 ) ;
#1111 = CARTESIAN_POINT ( 'NONE',  ( 1.747775893070893316, -3.916682420957307836E-17, 0.5795641040826887691 ) ) ;
#1112 = ORIENTED_EDGE ( 'NONE', *, *, #1069, .T. ) ;
#1113 = ORIENTED_EDGE ( 'NONE', *, *, #532, .F. ) ;
#1114 = ADVANCED_FACE ( 'NONE', ( #517 ), #160, .F. ) ;
#1115 = DESIGN_CONTEXT ( 'detailed design', #242, 'design' ) ;
#1116 = DIRECTION ( 'NONE',  ( -1.000000000000000000, -0.000000000000000000, -0.000000000000000000 ) ) ;
#1117 = CARTESIAN_POINT ( 'NONE',  ( 1.750000000000000000, -0.3189999999999980629, -0.5774823318188639920 ) ) ;
#1118 = ORIENTED_EDGE ( 'NONE', *, *, #1026, .T. ) ;
#1119 = ORIENTED_EDGE ( 'NONE', *, *, #329, .T. ) ;
#1120 = ORIENTED_EDGE ( 'NONE', *, *, #1200, .F. ) ;
#1121 = EDGE_CURVE ( 'NONE', #1095, #356, #1059, .T. ) ;
#1122 = DIRECTION ( 'NONE',  ( -1.000000000000000000, -0.000000000000000000, -0.000000000000000000 ) ) ;
#1123 = ORIENTED_EDGE ( 'NONE', *, *, #1064, .F. ) ;
#1124 = DIRECTION ( 'NONE',  ( -1.000000000000000000, 0.000000000000000000, -0.000000000000000000 ) ) ;
#1125 = FACE_OUTER_BOUND ( 'NONE', #482, .T. ) ;
#1126 = ORIENTED_EDGE ( 'NONE', *, *, #1097, .T. ) ;
#1127 = EDGE_LOOP ( 'NONE', ( #1112, #740, #1113, #661, #1123, #298, #761 ) ) ;
#1128 = CALENDAR_DATE ( 2026, 22, 6 ) ;
#1129 = CARTESIAN_POINT ( 'NONE',  ( 1.750000000000000000, 0.000000000000000000, 0.000000000000000000 ) ) ;
#1130 = AXIS2_PLACEMENT_3D ( 'NONE', #969, #878, #39 ) ;
#1131 = CARTESIAN_POINT ( 'NONE',  ( 1.938267595449616909, 0.000000000000000000, 2.007712106726164865E-17 ) ) ;
#1132 = CIRCLE ( 'NONE', #2, 1.500000000000000000 ) ;
#1133 = CIRCLE ( 'NONE', #78, 2.799999999999999822 ) ;
#1134 = ORIENTED_EDGE ( 'NONE', *, *, #364, .F. ) ;
#1135 = VERTEX_POINT ( 'NONE', #982 ) ;
#1136 = CARTESIAN_POINT ( 'NONE',  ( 0.04901266702628595540, 0.6212595502153904770, 0.3190000000000000613 ) ) ;
#1137 = ADVANCED_FACE ( 'NONE', ( #137 ), #883, .F. ) ;
#1138 = CYLINDRICAL_SURFACE ( 'NONE', #319, 2.799999999999999822 ) ;
#1139 = PLANE ( 'NONE',  #475 ) ;
#1140 = VERTEX_POINT ( 'NONE', #716 ) ;
#1141 = CARTESIAN_POINT ( 'NONE',  ( 4.583548511049844620, -0.8352726050604029062, 0.000000000000000000 ) ) ;
#1142 = CARTESIAN_POINT ( 'NONE',  ( 5.000000000000000000, -2.994554759220931543E-17, 0.3190000000000003944 ) ) ;
#1143 = EDGE_CURVE ( 'NONE', #71, #667, #238, .T. ) ;
#1144 = CARTESIAN_POINT ( 'NONE',  ( 1.750000000000000000, 0.3189999999999981184, 0.4837105527567160945 ) ) ;
#1145 = CARTESIAN_POINT ( 'NONE',  ( 1.750000000000000000, 0.3189999999999977853, 0.5774823318190009935 ) ) ;
#1146 = AXIS2_PLACEMENT_3D ( 'NONE', #792, #411, #331 ) ;
#1147 = DIRECTION ( 'NONE',  ( 1.000000000000000000, -5.437892401240052077E-17, -1.898629984156651750E-31 ) ) ;
#1148 = CARTESIAN_POINT ( 'NONE',  ( 0.1968062524693144355, 0.3190000000000055014, -1.351876038578287753 ) ) ;
#1149 = AXIS2_PLACEMENT_3D ( 'NONE', #29, #698, #410 ) ;
#1150 = AXIS2_PLACEMENT_3D ( 'NONE', #662, #567, #1098 ) ;
#1151 = ADVANCED_FACE ( 'NONE', ( #332 ), #1075, .T. ) ;
#1152 = CARTESIAN_POINT ( 'NONE',  ( 5.000000000000000000, 1.497277379610461766E-17, -0.3189999999999996172 ) ) ;
#1153 = DIRECTION ( 'NONE',  ( -1.000000000000000000, -0.000000000000000000, -0.000000000000000000 ) ) ;
#1154 = LINE ( 'NONE', #989, #1162 ) ;
#1155 = EDGE_CURVE ( 'NONE', #652, #283, #900, .T. ) ;
#1156 = CARTESIAN_POINT ( 'NONE',  ( 0.04901266702631464772, -0.3190000000000022262, 0.6212595502155093818 ) ) ;
#1157 = DIRECTION ( 'NONE',  ( 7.710538154413521008E-17, 1.000000000000000000, 3.585354528787362765E-15 ) ) ;
#1158 = DIRECTION ( 'NONE',  ( 1.000000000000000000, 0.000000000000000000, 0.000000000000000000 ) ) ;
#1159 = DIRECTION ( 'NONE',  ( -1.000000000000000000, -0.000000000000000000, -0.000000000000000000 ) ) ;
#1160 = FACE_OUTER_BOUND ( 'NONE', #195, .T. ) ;
#1161 = LINE ( 'NONE', #642, #1108 ) ;
#1162 = VECTOR ( 'NONE', #618, 1000.000000000000000 ) ;
#1163 = AXIS2_PLACEMENT_3D ( 'NONE', #915, #1124, #83 ) ;
#1164 = CARTESIAN_POINT ( 'NONE',  ( 1.750000000000000000, 0.5774823318189999943, -0.3189999999999997837 ) ) ;
#1165 = DIRECTION ( 'NONE',  ( 1.000000000000000000, 0.000000000000000000, 0.000000000000000000 ) ) ;
#1166 = EDGE_CURVE ( 'NONE', #55, #657, #293, .T. ) ;
#1167 = DIRECTION ( 'NONE',  ( -0.8949343913984284526, 1.557891129246401919E-15, -0.4461977533474640323 ) ) ;
#1168 = ORIENTED_EDGE ( 'NONE', *, *, #921, .T. ) ;
#1169 = CARTESIAN_POINT ( 'NONE',  ( 1.390238250696479216, -0.3190000000000018932, 0.5138456564387221537 ) ) ;
#1170 = DIRECTION ( 'NONE',  ( 0.000000000000000000, 1.000000000000000000, 9.387318994422970576E-17 ) ) ;
#1171 = DIRECTION ( 'NONE',  ( -0.000000000000000000, 0.000000000000000000, -1.000000000000000000 ) ) ;
#1172 = EDGE_CURVE ( 'NONE', #960, #944, #668, .T. ) ;
#1173 = ORIENTED_EDGE ( 'NONE', *, *, #1155, .F. ) ;
#1174 = ORIENTED_EDGE ( 'NONE', *, *, #258, .T. ) ;
#1175 = CARTESIAN_POINT ( 'NONE',  ( 0.1968062524693144355, -1.351876038578288641, -0.3190000000000007274 ) ) ;
#1176 = CARTESIAN_POINT ( 'NONE',  ( 1.750000000000000000, 0.4837105527567142071, -0.3189999999999997837 ) ) ;
#1177 = CARTESIAN_POINT ( 'NONE',  ( 0.04901266702631464772, -0.3190000000000022262, 0.6212595502155093818 ) ) ;
#1178 = ORIENTED_EDGE ( 'NONE', *, *, #681, .F. ) ;
#1179 = APPROVAL ( #875, 'Coincident' ) ;
#1180 = ORIENTED_EDGE ( 'NONE', *, *, #501, .F. ) ;
#1181 = AXIS2_PLACEMENT_3D ( 'NONE', #840, #170, #485 ) ;
#1182 = EDGE_CURVE ( 'NONE', #837, #356, #75, .T. ) ;
#1183 = DIRECTION ( 'NONE',  ( 1.000000000000000000, 0.000000000000000000, 0.000000000000000000 ) ) ;
#1184 = CIRCLE ( 'NONE', #306, 4.989813523569793574 ) ;
#1185 = CARTESIAN_POINT ( 'NONE',  ( 1.750000000000000000, 0.000000000000000000, 0.000000000000000000 ) ) ;
#1186 = DIRECTION ( 'NONE',  ( -1.000000000000000000, 0.000000000000000000, -0.000000000000000000 ) ) ;
#1187 = VERTEX_POINT ( 'NONE', #1197 ) ;
#1188 = B_SPLINE_CURVE_WITH_KNOTS ( 'NONE', 3,
 ( #229, #489, #318, #127 ),
 .UNSPECIFIED., .F., .F.,
 ( 4, 4 ),
 ( 0.000000000000000000, 0.5000000000000244249 ),
 .UNSPECIFIED. ) ;
#1189 = ORIENTED_EDGE ( 'NONE', *, *, #986, .T. ) ;
#1190 = CARTESIAN_POINT ( 'NONE',  ( 1.750000000000000000, -0.03166563246803744819, -0.5787787701938517104 ) ) ;
#1191 = EDGE_CURVE ( 'NONE', #644, #338, #587, .T. ) ;
#1192 = VERTEX_POINT ( 'NONE', #836 ) ;
#1193 = CARTESIAN_POINT ( 'NONE',  ( 2.399999999999999911, 0.000000000000000000, 0.000000000000000000 ) ) ;
#1194 = DIRECTION ( 'NONE',  ( 7.710538154413521008E-17, 1.000000000000000000, 3.585354528787362765E-15 ) ) ;
#1195 = VERTEX_POINT ( 'NONE', #645 ) ;
#1196 = DIRECTION ( 'NONE',  ( 0.8949343913984286747, 0.000000000000000000, 0.4461977533474640323 ) ) ;
#1197 = CARTESIAN_POINT ( 'NONE',  ( 2.399999999999999911, 0.000000000000000000, 1.800000000000000044 ) ) ;
#1198 = ORIENTED_EDGE ( 'NONE', *, *, #145, .T. ) ;
#1199 = DIRECTION ( 'NONE',  ( 0.000000000000000000, 0.000000000000000000, 1.000000000000000000 ) ) ;
#1200 = EDGE_CURVE ( 'NONE', #1043, #833, #1133, .T. ) ;
#1201 = DIRECTION ( 'NONE',  ( -0.000000000000000000, 0.000000000000000000, 1.000000000000000000 ) ) ;
#1202 = EDGE_LOOP ( 'NONE', ( #480, #487, #750, #85 ) ) ;
#1203 = ORIENTED_EDGE ( 'NONE', *, *, #930, .F. ) ;
#1204 = CONICAL_SURFACE ( 'NONE', #694, 0.5794280790988696195, 0.06981317007976585443 ) ;
#1205 = AXIS2_PLACEMENT_3D ( 'NONE', #889, #49, #246 ) ;
ENDSEC;
END-ISO-10303-21;
