ISO-10303-21;
HEADER;
FILE_DESCRIPTION (( 'STEP AP203' ),
    '1' );
FILE_NAME ('pan cross head_am.STEP',
    '2026-06-22T08:50:19',
    ( 'localuser' ),
    ( '' ),
    'SwSTEP 2.0',
    'SolidWorks 2025',
    '' );
FILE_SCHEMA (( 'CONFIG_CONTROL_DESIGN' ));
ENDSEC;

DATA;
#1 = CIRCLE ( 'NONE', #399, 6.058526736745387886 ) ;
#2 = FACE_OUTER_BOUND ( 'NONE', #205, .T. ) ;
#3 = LINE ( 'NONE', #493, #540 ) ;
#4 = CC_DESIGN_DATE_AND_TIME_ASSIGNMENT ( #192, #367, ( #342 ) ) ;
#5 = ORIENTED_EDGE ( 'NONE', *, *, #572, .F. ) ;
#6 = PLANE ( 'NONE',  #579 ) ;
#7 = CARTESIAN_POINT ( 'NONE',  ( 6.485719607574023549, 0.1504815545963101298, 5.436827081121596092E-16 ) ) ;
#8 = EDGE_CURVE ( 'NONE', #316, #73, #559, .T. ) ;
#9 = EDGE_LOOP ( 'NONE', ( #290, #397, #263, #620 ) ) ;
#10 = DIRECTION ( 'NONE',  ( 0.9955273751804943894, -0.09447351621610813877, 0.000000000000000000 ) ) ;
#11 = DIRECTION ( 'NONE',  ( 0.6261493566299924929, -0.7797031378619984077, -9.089847698534877089E-17 ) ) ;
#12 = ORIENTED_EDGE ( 'NONE', *, *, #429, .T. ) ;
#13 = AXIS2_PLACEMENT_3D ( 'NONE', #385, #51, #214 ) ;
#14 = DIRECTION ( 'NONE',  ( -0.09447351621610813877, -0.9955273751804943894, -3.475865252750182782E-15 ) ) ;
#15 = CARTESIAN_POINT ( 'NONE',  ( -25.39999999999996305, 0.000000000000000000, 0.000000000000000000 ) ) ;
#16 = ORIENTED_EDGE ( 'NONE', *, *, #359, .F. ) ;
#17 = CARTESIAN_POINT ( 'NONE',  ( 0.000000000000000000, 2.200000000000000178, 0.4650000000000001354 ) ) ;
#18 = ORIENTED_EDGE ( 'NONE', *, *, #488, .T. ) ;
#19 = CARTESIAN_POINT ( 'NONE',  ( 1.226960105914547183, 4.776529376076388328E-16, -3.800664451827242551 ) ) ;
#20 = DIRECTION ( 'NONE',  ( -1.000000000000000000, -0.000000000000000000, -0.000000000000000000 ) ) ;
#21 = ORIENTED_EDGE ( 'NONE', *, *, #479, .T. ) ;
#22 = AXIS2_PLACEMENT_3D ( 'NONE', #610, #222, #607 ) ;
#23 = CARTESIAN_POINT ( 'NONE',  ( 0.3018014431820982280, -1.957634963485396229, -2.397411391931336094E-16 ) ) ;
#24 = AXIS2_PLACEMENT_3D ( 'NONE', #442, #160, #110 ) ;
#25 = CYLINDRICAL_SURFACE ( 'NONE', #98, 4.000000000000000000 ) ;
#26 = FACE_OUTER_BOUND ( 'NONE', #309, .T. ) ;
#27 = EDGE_CURVE ( 'NONE', #644, #237, #470, .T. ) ;
#28 = COORDINATED_UNIVERSAL_TIME_OFFSET ( 10, 0, .AHEAD. ) ;
#29 = DIRECTION ( 'NONE',  ( 0.000000000000000000, 0.000000000000000000, -1.000000000000000000 ) ) ;
#30 = LOCAL_TIME ( 18, 50, 19.00000000000000000, #188 ) ;
#31 = DIRECTION ( 'NONE',  ( 0.7797031378619984077, -2.186188794002252624E-15, 0.6261493566299924929 ) ) ;
#32 = AXIS2_PLACEMENT_3D ( 'NONE', #302, #509, #573 ) ;
#33 = AXIS2_PLACEMENT_3D ( 'NONE', #100, #150, #273 ) ;
#34 = ORIENTED_EDGE ( 'NONE', *, *, #219, .T. ) ;
#35 = PLANE ( 'NONE',  #266 ) ;
#36 = EDGE_LOOP ( 'NONE', ( #383, #294, #510, #16, #184 ) ) ;
#37 = APPROVAL_ROLE ( '' ) ;
#38 = DIRECTION ( 'NONE',  ( -0.7797031378619984077, 0.6261493566299924929, 0.000000000000000000 ) ) ;
#39 = ORIENTED_EDGE ( 'NONE', *, *, #572, .T. ) ;
#40 = EDGE_CURVE ( 'NONE', #640, #571, #552, .T. ) ;
#41 = DIRECTION ( 'NONE',  ( 0.000000000000000000, 0.000000000000000000, -1.000000000000000000 ) ) ;
#42 = VECTOR ( 'NONE', #386, 1000.000000000000000 ) ;
#43 = ORIENTED_EDGE ( 'NONE', *, *, #59, .F. ) ;
#44 = AXIS2_PLACEMENT_3D ( 'NONE', #194, #313, #699 ) ;
#45 = CIRCLE ( 'NONE', #435, 6.058526736745388774 ) ;
#46 = SPHERICAL_SURFACE ( 'NONE', #447, 6.500000000000000000 ) ;
#47 = DIRECTION ( 'NONE',  ( 0.7797031378619984077, 0.6261493566299923819, 0.000000000000000000 ) ) ;
#48 = EDGE_CURVE ( 'NONE', #316, #661, #390, .T. ) ;
#49 = CARTESIAN_POINT ( 'NONE',  ( 1.226960105914547183, 0.000000000000000000, 0.000000000000000000 ) ) ;
#50 = CARTESIAN_POINT ( 'NONE',  ( -25.39999999999996305, 0.000000000000000000, 0.000000000000000000 ) ) ;
#51 = DIRECTION ( 'NONE',  ( -1.000000000000000000, -0.000000000000000000, -0.000000000000000000 ) ) ;
#52 = ORIENTED_EDGE ( 'NONE', *, *, #40, .F. ) ;
#53 = AXIS2_PLACEMENT_3D ( 'NONE', #315, #468, #38 ) ;
#54 = PLANE ( 'NONE',  #108 ) ;
#55 = CARTESIAN_POINT ( 'NONE',  ( 3.099999999999998757, 0.000000000000000000, 4.000000000000000000 ) ) ;
#56 = EDGE_LOOP ( 'NONE', ( #365, #369, #615 ) ) ;
#57 = DIRECTION ( 'NONE',  ( 0.9955273751804943894, 0.000000000000000000, 0.09447351621610813877 ) ) ;
#58 = CARTESIAN_POINT ( 'NONE',  ( 1.616353821170089411, 4.310756732998683112E-16, -3.520000000000000018 ) ) ;
#59 = EDGE_CURVE ( 'NONE', #681, #679, #120, .T. ) ;
#60 = EDGE_LOOP ( 'NONE', ( #269, #432 ) ) ;
#61 = CARTESIAN_POINT ( 'NONE',  ( 6.485719607574023549, -0.1504815545963103518, -5.254035397131191667E-16 ) ) ;
#62 = CARTESIAN_POINT ( 'NONE',  ( 2.758629411457059977, -0.2032116987086675097, 0.2032116987086667603 ) ) ;
#63 = AXIS2_PLACEMENT_3D ( 'NONE', #655, #438, #333 ) ;
#64 = VERTEX_POINT ( 'NONE', #283 ) ;
#65 = VECTOR ( 'NONE', #321, 1000.000000000000000 ) ;
#66 = CIRCLE ( 'NONE', #159, 3.800664451827242107 ) ;
#67 = FACE_OUTER_BOUND ( 'NONE', #598, .T. ) ;
#68 = DIRECTION ( 'NONE',  ( -1.000000000000000000, -0.000000000000000000, -0.000000000000000000 ) ) ;
#69 = ORIENTED_EDGE ( 'NONE', *, *, #555, .T. ) ;
#70 = EDGE_CURVE ( 'NONE', #644, #585, #3, .T. ) ;
#71 = CARTESIAN_POINT ( 'NONE',  ( 6.485719607574023549, 0.1504815545963101298, 5.436827081121596092E-16 ) ) ;
#72 = LINE ( 'NONE', #183, #300 ) ;
#73 = VERTEX_POINT ( 'NONE', #666 ) ;
#74 = DIRECTION ( 'NONE',  ( -1.000000000000000000, -0.000000000000000000, -0.000000000000000000 ) ) ;
#75 = CARTESIAN_POINT ( 'NONE',  ( -25.39999999999996305, 0.000000000000000000, 2.000000000000000000 ) ) ;
#76 = VECTOR ( 'NONE', #398, 1000.000000000000000 ) ;
#77 = CARTESIAN_POINT ( 'NONE',  ( 1.226960105914547183, 0.000000000000000000, 0.000000000000000000 ) ) ;
#78 = CIRCLE ( 'NONE', #660, 6.498242175551664168 ) ;
#79 = LINE ( 'NONE', #618, #331 ) ;
#80 = ADVANCED_FACE ( 'NONE', ( #172 ), #551, .F. ) ;
#81 = CALENDAR_DATE ( 2026, 22, 6 ) ;
#82 = DIRECTION ( 'NONE',  ( -0.09447351621610813877, 0.000000000000000000, 0.9955273751804943894 ) ) ;
#83 = CARTESIAN_POINT ( 'NONE',  ( 6.485719607574023549, -7.042624430979021184E-16, -0.1504815545963101575 ) ) ;
#84 = ORIENTED_EDGE ( 'NONE', *, *, #230, .T. ) ;
#85 = PLANE ( 'NONE',  #683 ) ;
#86 = CIRCLE ( 'NONE', #410, 6.498242175551664168 ) ;
#87 = EDGE_LOOP ( 'NONE', ( #439, #391, #501 ) ) ;
#88 = PERSON_AND_ORGANIZATION ( #18446744073709551615, #18446744073709551615 ) ;
#89 = EDGE_CURVE ( 'NONE', #122, #312, #546, .T. ) ;
#90 = CARTESIAN_POINT ( 'NONE',  ( 1.616353821170091187, 0.000000000000000000, 3.999999999999999112 ) ) ;
#91 = ORIENTED_EDGE ( 'NONE', *, *, #451, .T. ) ;
#92 = FACE_OUTER_BOUND ( 'NONE', #647, .T. ) ;
#93 = ORIENTED_EDGE ( 'NONE', *, *, #685, .T. ) ;
#94 = ORIENTED_EDGE ( 'NONE', *, *, #541, .T. ) ;
#95 = VECTOR ( 'NONE', #392, 1000.000000000000000 ) ;
#96 = DIRECTION ( 'NONE',  ( -0.000000000000000000, 0.000000000000000000, -1.000000000000000000 ) ) ;
#97 = DIRECTION ( 'NONE',  ( -0.7797031378619984077, 0.6261493566299924929, 0.000000000000000000 ) ) ;
#98 = AXIS2_PLACEMENT_3D ( 'NONE', #15, #684, #519 ) ;
#99 = ADVANCED_FACE ( 'NONE', ( #503, #104 ), #497, .F. ) ;
#100 = CARTESIAN_POINT ( 'NONE',  ( 5.025653750643289897, 5.687495705262745317E-15, -1.835907654853336179 ) ) ;
#101 = DIRECTION ( 'NONE',  ( -1.000000000000000000, -0.000000000000000000, -0.000000000000000000 ) ) ;
#102 = EDGE_CURVE ( 'NONE', #624, #667, #1, .T. ) ;
#103 = DIRECTION ( 'NONE',  ( 0.9955273751804943894, -0.09447351621610813877, 0.000000000000000000 ) ) ;
#104 = FACE_BOUND ( 'NONE', #574, .T. ) ;
#105 = ORIENTED_EDGE ( 'NONE', *, *, #619, .F. ) ;
#106 = CARTESIAN_POINT ( 'NONE',  ( 13.10000000000000142, 0.000000000000000000, 2.000000000000000000 ) ) ;
#107 = DIRECTION ( 'NONE',  ( 0.7775774828448951403, 0.07379051622915611119, 0.6244423255091148262 ) ) ;
#108 = AXIS2_PLACEMENT_3D ( 'NONE', #614, #709, #382 ) ;
#109 = ORIENTED_EDGE ( 'NONE', *, *, #40, .T. ) ;
#110 = DIRECTION ( 'NONE',  ( 0.7797031378619984077, 0.6261493566299923819, 0.000000000000000000 ) ) ;
#111 = EDGE_CURVE ( 'NONE', #314, #661, #499, .T. ) ;
#112 = ORIENTED_EDGE ( 'NONE', *, *, #451, .F. ) ;
#113 = ORIENTED_EDGE ( 'NONE', *, *, #102, .T. ) ;
#114 = DIRECTION ( 'NONE',  ( 0.6261493566299924929, -2.722318955682602346E-15, 0.7797031378619984077 ) ) ;
#115 = CARTESIAN_POINT ( 'NONE',  ( 1.226960105914547183, 3.800664451827242551, 0.000000000000000000 ) ) ;
#116 = ORIENTED_EDGE ( 'NONE', *, *, #555, .F. ) ;
#117 = PLANE ( 'NONE',  #289 ) ;
#118 = CARTESIAN_POINT ( 'NONE',  ( 3.099999999999998757, 2.449293598294706414E-16, -2.000000000000000000 ) ) ;
#119 = CC_DESIGN_APPROVAL ( #362, ( #342 ) ) ;
#120 = CIRCLE ( 'NONE', #134, 0.4799999999999999822 ) ;
#121 = ADVANCED_FACE ( 'NONE', ( #277 ), #218, .T. ) ;
#122 = VERTEX_POINT ( 'NONE', #55 ) ;
#123 = AXIS2_PLACEMENT_3D ( 'NONE', #584, #643, #409 ) ;
#124 = AXIS2_PLACEMENT_3D ( 'NONE', #71, #677, #567 ) ;
#125 = DIRECTION ( 'NONE',  ( -0.09447351621610813877, -0.9955273751804943894, -3.475865252750183176E-15 ) ) ;
#126 = CYLINDRICAL_SURFACE ( 'NONE', #627, 2.000000000000000000 ) ;
#127 = ORIENTED_EDGE ( 'NONE', *, *, #673, .T. ) ;
#128 = CC_DESIGN_PERSON_AND_ORGANIZATION_ASSIGNMENT ( #689, #143, ( #342 ) ) ;
#129 = DIRECTION ( 'NONE',  ( -1.000000000000000000, -0.000000000000000000, -0.000000000000000000 ) ) ;
#130 = FACE_OUTER_BOUND ( 'NONE', #539, .T. ) ;
#131 = CARTESIAN_POINT ( 'NONE',  ( 1.616353821170091187, 4.898587196589411843E-16, -3.999999999999999112 ) ) ;
#132 = ADVANCED_FACE ( 'NONE', ( #280 ), #490, .T. ) ;
#133 = LINE ( 'NONE', #62, #671 ) ;
#134 = AXIS2_PLACEMENT_3D ( 'NONE', #58, #669, #605 ) ;
#135 = TOROIDAL_SURFACE ( 'NONE', #44, 3.520000000000000018, 0.4799999999999997602 ) ;
#136 = CARTESIAN_POINT ( 'NONE',  ( 13.10000000000000142, 0.000000000000000000, 0.000000000000000000 ) ) ;
#137 = DATE_AND_TIME ( #370, #431 ) ;
#138 = FACE_OUTER_BOUND ( 'NONE', #565, .T. ) ;
#139 = ORIENTED_EDGE ( 'NONE', *, *, #580, .T. ) ;
#140 = CARTESIAN_POINT ( 'NONE',  ( 0.3140046660742119577, 0.4352015980153995378, 1.947835028366935006 ) ) ;
#141 = ORIENTED_EDGE ( 'NONE', *, *, #632, .F. ) ;
#142 = EDGE_CURVE ( 'NONE', #461, #676, #133, .T. ) ;
#143 = PERSON_AND_ORGANIZATION_ROLE ( 'classification_officer' ) ;
#144 = DIRECTION ( 'NONE',  ( -1.000000000000000000, 0.000000000000000000, 0.000000000000000000 ) ) ;
#145 = AXIS2_PLACEMENT_3D ( 'NONE', #50, #330, #713 ) ;
#146 = EDGE_LOOP ( 'NONE', ( #43, #169, #416, #478, #487 ) ) ;
#147 = COORDINATED_UNIVERSAL_TIME_OFFSET ( 10, 0, .AHEAD. ) ;
#148 = CARTESIAN_POINT ( 'NONE',  ( 2.739517153748411538, -4.336808689942017736E-16, -0.2050254129606099429 ) ) ;
#149 = VERTEX_POINT ( 'NONE', #118 ) ;
#150 = DIRECTION ( 'NONE',  ( 0.6261493566299924929, -2.722318955682602346E-15, 0.7797031378619984077 ) ) ;
#151 = ADVANCED_FACE ( 'NONE', ( #186 ), #590, .T. ) ;
#152 = EDGE_LOOP ( 'NONE', ( #437, #334, #424 ) ) ;
#153 = AXIS2_PLACEMENT_3D ( 'NONE', #558, #665, #609 ) ;
#154 = DIRECTION ( 'NONE',  ( 0.000000000000000000, 0.000000000000000000, 1.000000000000000000 ) ) ;
#155 = AXIS2_PLACEMENT_3D ( 'NONE', #436, #215, #97 ) ;
#156 = VERTEX_POINT ( 'NONE', #563 ) ;
#157 = AXIS2_PLACEMENT_3D ( 'NONE', #688, #406, #578 ) ;
#158 = APPROVAL ( #642, 'Coincident' ) ;
#159 = AXIS2_PLACEMENT_3D ( 'NONE', #224, #446, #577 ) ;
#160 = DIRECTION ( 'NONE',  ( 0.6261493566299924929, -0.7797031378619984077, -9.089847698534877089E-17 ) ) ;
#161 = ORIENTED_EDGE ( 'NONE', *, *, #608, .T. ) ;
#162 = CARTESIAN_POINT ( 'NONE',  ( 2.739517153748411538, 0.2050254129606099429, 2.821615343463749529E-16 ) ) ;
#163 = DIRECTION ( 'NONE',  ( -0.09447351621610808325, 0.9955273751804943894, 3.596793113879687400E-15 ) ) ;
#164 = ORIENTED_EDGE ( 'NONE', *, *, #291, .T. ) ;
#165 = ADVANCED_FACE ( 'NONE', ( #26 ), #189, .F. ) ;
#166 = DIRECTION ( 'NONE',  ( 0.6261493566299924929, 2.813217432667951302E-15, -0.7797031378619984077 ) ) ;
#167 = ORIENTED_EDGE ( 'NONE', *, *, #59, .T. ) ;
#168 = CIRCLE ( 'NONE', #421, 6.498242175551664168 ) ;
#169 = ORIENTED_EDGE ( 'NONE', *, *, #408, .T. ) ;
#170 = ADVANCED_FACE ( 'NONE', ( #522 ), #634, .T. ) ;
#171 = LINE ( 'NONE', #242, #95 ) ;
#172 = FACE_OUTER_BOUND ( 'NONE', #36, .T. ) ;
#173 = EDGE_LOOP ( 'NONE', ( #127, #229, #195 ) ) ;
#174 = CARTESIAN_POINT ( 'NONE',  ( 13.10000000000000142, 2.449293598294706414E-16, -2.000000000000000000 ) ) ;
#175 = LINE ( 'NONE', #75, #637 ) ;
#176 = EDGE_CURVE ( 'NONE', #156, #676, #79, .T. ) ;
#177 = VERTEX_POINT ( 'NONE', #115 ) ;
#178 =( NAMED_UNIT ( * ) PLANE_ANGLE_UNIT ( ) SI_UNIT ( $, .RADIAN. ) );
#179 = DIRECTION ( 'NONE',  ( -0.000000000000000000, 0.000000000000000000, 1.000000000000000000 ) ) ;
#180 = ORIENTED_EDGE ( 'NONE', *, *, #306, .T. ) ;
#181 = AXIS2_PLACEMENT_3D ( 'NONE', #448, #710, #338 ) ;
#182 = CARTESIAN_POINT ( 'NONE',  ( 2.739517153748411538, 0.2050254129606099429, 2.821615343463749529E-16 ) ) ;
#183 = CARTESIAN_POINT ( 'NONE',  ( 2.758629411457059533, -0.2032116987086660942, -0.2032116987086668158 ) ) ;
#184 = ORIENTED_EDGE ( 'NONE', *, *, #685, .F. ) ;
#185 = PLANE ( 'NONE',  #449 ) ;
#186 = FACE_OUTER_BOUND ( 'NONE', #225, .T. ) ;
#187 = EDGE_CURVE ( 'NONE', #571, #233, #175, .T. ) ;
#188 = COORDINATED_UNIVERSAL_TIME_OFFSET ( 10, 0, .AHEAD. ) ;
#189 = PLANE ( 'NONE',  #612 ) ;
#190 = LOCAL_TIME ( 18, 50, 19.00000000000000000, #261 ) ;
#191 = CIRCLE ( 'NONE', #603, 6.498242175551664168 ) ;
#192 = DATE_AND_TIME ( #587, #30 ) ;
#193 = DIRECTION ( 'NONE',  ( -1.000000000000000000, -0.000000000000000000, -0.000000000000000000 ) ) ;
#194 = CARTESIAN_POINT ( 'NONE',  ( 1.616353821170089411, 0.000000000000000000, 0.000000000000000000 ) ) ;
#195 = ORIENTED_EDGE ( 'NONE', *, *, #351, .F. ) ;
#196 = EDGE_CURVE ( 'NONE', #312, #681, #204, .T. ) ;
#197 = DIRECTION ( 'NONE',  ( 1.000000000000000000, 0.000000000000000000, 0.000000000000000000 ) ) ;
#198 = CARTESIAN_POINT ( 'NONE',  ( 0.3140046660742119577, 0.4352015980154132491, -1.947835028366932120 ) ) ;
#199 = VERTEX_POINT ( 'NONE', #396 ) ;
#200 = CC_DESIGN_PERSON_AND_ORGANIZATION_ASSIGNMENT ( #247, #595, ( #691 ) ) ;
#201 = APPROVAL_STATUS ( 'not_yet_approved' ) ;
#202 = CIRCLE ( 'NONE', #53, 6.058526736745388774 ) ;
#203 = CARTESIAN_POINT ( 'NONE',  ( 1.616353821170091187, 0.000000000000000000, 0.000000000000000000 ) ) ;
#204 = CIRCLE ( 'NONE', #32, 3.999999999999999112 ) ;
#205 = EDGE_LOOP ( 'NONE', ( #21, #534, #240 ) ) ;
#206 = ADVANCED_FACE ( 'NONE', ( #453 ), #25, .T. ) ;
#207 = CARTESIAN_POINT ( 'NONE',  ( 0.000000000000000000, 0.4650000000000077405, -2.199999999999998401 ) ) ;
#208 = ORIENTED_EDGE ( 'NONE', *, *, #445, .F. ) ;
#209 = PRODUCT_DEFINITION ( 'General', '', #691, #440 ) ;
#210 = PLANE ( 'NONE',  #63 ) ;
#211 = CARTESIAN_POINT ( 'NONE',  ( 2.450000000000000178, 0.2325000000000000122, 0.2325000000000000122 ) ) ;
#212 = ORIENTED_EDGE ( 'NONE', *, *, #244, .F. ) ;
#213 = CIRCLE ( 'NONE', #153, 3.800664451827242107 ) ;
#214 = DIRECTION ( 'NONE',  ( 0.000000000000000000, 0.000000000000000000, 1.000000000000000000 ) ) ;
#215 = DIRECTION ( 'NONE',  ( 0.6261493566299924929, 0.7797031378619984077, 0.000000000000000000 ) ) ;
#216 = AXIS2_PLACEMENT_3D ( 'NONE', #535, #422, #197 ) ;
#217 = CARTESIAN_POINT ( 'NONE',  ( 6.485719607574023549, -0.1504815545963103518, -5.254035397131191667E-16 ) ) ;
#218 = CYLINDRICAL_SURFACE ( 'NONE', #145, 4.000000000000000000 ) ;
#219 = EDGE_CURVE ( 'NONE', #177, #281, #530, .T. ) ;
#220 = ORIENTED_EDGE ( 'NONE', *, *, #70, .T. ) ;
#221 = DIRECTION ( 'NONE',  ( 0.7775774828448950293, -0.07379051622916056596, 0.6244423255091143821 ) ) ;
#222 = DIRECTION ( 'NONE',  ( -1.000000000000000000, -0.000000000000000000, -0.000000000000000000 ) ) ;
#223 = ORIENTED_EDGE ( 'NONE', *, *, #254, .F. ) ;
#224 = CARTESIAN_POINT ( 'NONE',  ( 1.226960105914547183, 0.000000000000000000, 0.000000000000000000 ) ) ;
#225 = EDGE_LOOP ( 'NONE', ( #517, #167, #141, #375, #285 ) ) ;
#226 = APPLICATION_CONTEXT ( 'configuration controlled 3d designs of mechanical parts and assemblies' ) ;
#227 = AXIS2_PLACEMENT_3D ( 'NONE', #353, #690, #463 ) ;
#228 = APPROVAL_PERSON_ORGANIZATION ( #88, #362, #411 ) ;
#229 = ORIENTED_EDGE ( 'NONE', *, *, #8, .F. ) ;
#230 = EDGE_CURVE ( 'NONE', #64, #676, #569, .T. ) ;
#231 = CARTESIAN_POINT ( 'NONE',  ( 0.000000000000000000, 2.200000000000000178, -0.4650000000000000244 ) ) ;
#232 = DIRECTION ( 'NONE',  ( 0.9911142316013245024, 0.09405471789686067896, -0.09405471789686031814 ) ) ;
#233 = VERTEX_POINT ( 'NONE', #622 ) ;
#234 = CARTESIAN_POINT ( 'NONE',  ( 2.739517153748411538, 4.336808689942017736E-16, 0.2050254129606099429 ) ) ;
#235 = EDGE_CURVE ( 'NONE', #394, #316, #466, .T. ) ;
#236 = DIRECTION ( 'NONE',  ( 0.000000000000000000, 1.000000000000000000, 1.224646799147353207E-16 ) ) ;
#237 = VERTEX_POINT ( 'NONE', #239 ) ;
#238 = CARTESIAN_POINT ( 'NONE',  ( 0.3140046660742128459, -1.947835028366933008, -0.4352015980154062547 ) ) ;
#239 = CARTESIAN_POINT ( 'NONE',  ( 0.03290341124864443884, -0.4618775334223207962, -0.4618775334223225726 ) ) ;
#240 = ORIENTED_EDGE ( 'NONE', *, *, #693, .F. ) ;
#241 = AXIS2_PLACEMENT_3D ( 'NONE', #646, #144, #650 ) ;
#242 = CARTESIAN_POINT ( 'NONE',  ( -25.39999999999996305, 4.898587196589412829E-16, -4.000000000000000000 ) ) ;
#243 = CARTESIAN_POINT ( 'NONE',  ( 6.500000000000000000, -7.225416114969382221E-16, 0.000000000000000000 ) ) ;
#244 = EDGE_CURVE ( 'NONE', #328, #624, #433, .T. ) ;
#245 = PERSON_AND_ORGANIZATION ( #18446744073709551615, #18446744073709551615 ) ;
#246 = DIRECTION ( 'NONE',  ( 0.7775774828448950293, 0.6244423255091146041, -0.07379051622915827613 ) ) ;
#247 = PERSON_AND_ORGANIZATION ( #18446744073709551615, #18446744073709551615 ) ;
#248 = DIRECTION ( 'NONE',  ( 0.9955273751804943894, 0.000000000000000000, 0.09447351621610813877 ) ) ;
#249 = LOCAL_TIME ( 18, 50, 19.00000000000000000, #480 ) ;
#250 = VECTOR ( 'NONE', #101, 1000.000000000000000 ) ;
#251 = AXIS2_PLACEMENT_3D ( 'NONE', #148, #82, #248 ) ;
#252 = PERSON_AND_ORGANIZATION ( #18446744073709551615, #18446744073709551615 ) ;
#253 = AXIS2_PLACEMENT_3D ( 'NONE', #77, #74, #405 ) ;
#254 = EDGE_CURVE ( 'NONE', #640, #149, #455, .T. ) ;
#255 = CARTESIAN_POINT ( 'NONE',  ( 0.3140046660742128459, 1.947835028366933452, 0.4352015980154064767 ) ) ;
#256 = ORIENTED_EDGE ( 'NONE', *, *, #488, .F. ) ;
#257 = PERSON_AND_ORGANIZATION ( #18446744073709551615, #18446744073709551615 ) ;
#258 = DIRECTION ( 'NONE',  ( -0.9955273751804943894, 0.000000000000000000, 0.09447351621610808325 ) ) ;
#259 = EDGE_CURVE ( 'NONE', #585, #237, #72, .T. ) ;
#260 = ORIENTED_EDGE ( 'NONE', *, *, #608, .F. ) ;
#261 = COORDINATED_UNIVERSAL_TIME_OFFSET ( 10, 0, .AHEAD. ) ;
#262 = CARTESIAN_POINT ( 'NONE',  ( 0.3018014431820973398, 1.957634963485397117, 0.000000000000000000 ) ) ;
#263 = ORIENTED_EDGE ( 'NONE', *, *, #89, .T. ) ;
#264 = ADVANCED_FACE ( 'NONE', ( #130 ), #126, .T. ) ;
#265 = CLOSED_SHELL ( 'NONE', ( #151, #121, #264, #706, #425, #456, #317, #299, #664, #170, #99, #206, #303, #335, #80, #165, #420, #381, #132, #586, #652, #464, #532 ) ) ;
#266 = AXIS2_PLACEMENT_3D ( 'NONE', #527, #538, #31 ) ;
#267 = CARTESIAN_POINT ( 'NONE',  ( 13.10000000000000142, 2.000000000000000000, 0.000000000000000000 ) ) ;
#268 = CC_DESIGN_SECURITY_CLASSIFICATION ( #342, ( #691 ) ) ;
#269 = ORIENTED_EDGE ( 'NONE', *, *, #276, .F. ) ;
#270 = APPROVAL ( #521, 'Coincident' ) ;
#271 = FACE_OUTER_BOUND ( 'NONE', #87, .T. ) ;
#272 = DIRECTION ( 'NONE',  ( 0.9911142316013245024, -0.09405471789686072059, 0.09405471789686038753 ) ) ;
#273 = DIRECTION ( 'NONE',  ( 0.7797031378619984077, 0.000000000000000000, -0.6261493566299923819 ) ) ;
#274 = CARTESIAN_POINT ( 'NONE',  ( -25.39999999999996305, 0.000000000000000000, 4.000000000000000000 ) ) ;
#275 = DIRECTION ( 'NONE',  ( -0.09447351621610813877, -0.9955273751804943894, -3.475865252750183176E-15 ) ) ;
#276 = EDGE_CURVE ( 'NONE', #122, #505, #278, .T. ) ;
#277 = FACE_OUTER_BOUND ( 'NONE', #441, .T. ) ;
#278 = CIRCLE ( 'NONE', #495, 4.000000000000000000 ) ;
#279 = LINE ( 'NONE', #323, #65 ) ;
#280 = FACE_OUTER_BOUND ( 'NONE', #443, .T. ) ;
#281 = VERTEX_POINT ( 'NONE', #262 ) ;
#282 = LINE ( 'NONE', #329, #602 ) ;
#283 = CARTESIAN_POINT ( 'NONE',  ( 0.3140046660742128459, -1.947835028366933008, 0.4352015980154058661 ) ) ;
#284 = EDGE_CURVE ( 'NONE', #312, #700, #400, .T. ) ;
#285 = ORIENTED_EDGE ( 'NONE', *, *, #284, .F. ) ;
#286 = DIRECTION ( 'NONE',  ( 0.9955273751804943894, -0.09447351621610813877, -3.298525188834356896E-16 ) ) ;
#287 = CC_DESIGN_APPROVAL ( #270, ( #209 ) ) ;
#288 = DIRECTION ( 'NONE',  ( 0.6261493566299924929, -0.7797031378619984077, -9.089847698534877089E-17 ) ) ;
#289 = AXIS2_PLACEMENT_3D ( 'NONE', #234, #561, #633 ) ;
#290 = ORIENTED_EDGE ( 'NONE', *, *, #641, .F. ) ;
#291 = EDGE_CURVE ( 'NONE', #571, #640, #520, .T. ) ;
#292 = LINE ( 'NONE', #626, #485 ) ;
#293 = CARTESIAN_POINT ( 'NONE',  ( 6.500000000000000000, -7.225416114969382221E-16, 0.000000000000000000 ) ) ;
#294 = ORIENTED_EDGE ( 'NONE', *, *, #48, .F. ) ;
#295 = CARTESIAN_POINT ( 'NONE',  ( -25.39999999999996305, 0.000000000000000000, 0.000000000000000000 ) ) ;
#296 = ORIENTED_EDGE ( 'NONE', *, *, #142, .T. ) ;
#297 = DIRECTION ( 'NONE',  ( 0.000000000000000000, -1.165808787618822200E-16, 1.000000000000000000 ) ) ;
#298 = DIRECTION ( 'NONE',  ( -1.000000000000000000, -0.000000000000000000, -0.000000000000000000 ) ) ;
#299 = ADVANCED_FACE ( 'NONE', ( #412 ), #85, .T. ) ;
#300 = VECTOR ( 'NONE', #628, 1000.000000000000227 ) ;
#301 = CIRCLE ( 'NONE', #528, 6.058526736745388774 ) ;
#302 = CARTESIAN_POINT ( 'NONE',  ( 1.616353821170091187, 0.000000000000000000, 0.000000000000000000 ) ) ;
#303 = ADVANCED_FACE ( 'NONE', ( #358 ), #135, .T. ) ;
#304 = APPROVAL_DATE_TIME ( #311, #270 ) ;
#305 = DIRECTION ( 'NONE',  ( -0.09447351621610808325, 1.209278611295048645E-16, -0.9955273751804943894 ) ) ;
#306 = EDGE_CURVE ( 'NONE', #237, #667, #86, .T. ) ;
#307 = CALENDAR_DATE ( 2026, 22, 6 ) ;
#308 = LINE ( 'NONE', #525, #377 ) ;
#309 = EDGE_LOOP ( 'NONE', ( #84, #105, #116, #427, #208 ) ) ;
#310 = VECTOR ( 'NONE', #246, 1000.000000000000227 ) ;
#311 = DATE_AND_TIME ( #81, #190 ) ;
#312 = VERTEX_POINT ( 'NONE', #90 ) ;
#313 = DIRECTION ( 'NONE',  ( -1.000000000000000000, -0.000000000000000000, -0.000000000000000000 ) ) ;
#314 = VERTEX_POINT ( 'NONE', #418 ) ;
#315 = CARTESIAN_POINT ( 'NONE',  ( 5.025653750643289897, -1.835907654853336179, 0.000000000000000000 ) ) ;
#316 = VERTEX_POINT ( 'NONE', #694 ) ;
#317 = ADVANCED_FACE ( 'NONE', ( #138 ), #481, .T. ) ;
#318 = CIRCLE ( 'NONE', #705, 2.000000000000000000 ) ;
#319 = ORIENTED_EDGE ( 'NONE', *, *, #276, .T. ) ;
#320 = CIRCLE ( 'NONE', #13, 2.000000000000000000 ) ;
#321 = DIRECTION ( 'NONE',  ( 0.000000000000000000, -1.000000000000000000, -1.165808787618821707E-16 ) ) ;
#322 = CARTESIAN_POINT ( 'NONE',  ( 2.758629411457059533, 0.2032116987086661219, 0.2032116987086668436 ) ) ;
#323 = CARTESIAN_POINT ( 'NONE',  ( 2.450000000000000178, 0.2325000000000000122, 0.2325000000000000122 ) ) ;
#324 = CARTESIAN_POINT ( 'NONE',  ( 3.100000000000000089, 2.000000000000000000, 0.000000000000000000 ) ) ;
#325 = EDGE_CURVE ( 'NONE', #505, #122, #460, .T. ) ;
#326 = DIRECTION ( 'NONE',  ( -0.9955273751804943894, 0.000000000000000000, 0.09447351621610808325 ) ) ;
#327 = DIRECTION ( 'NONE',  ( -1.000000000000000000, 0.000000000000000000, -0.000000000000000000 ) ) ;
#328 = VERTEX_POINT ( 'NONE', #371 ) ;
#329 = CARTESIAN_POINT ( 'NONE',  ( 2.450000000000000178, -0.2325000000000000122, -0.2325000000000000122 ) ) ;
#330 = DIRECTION ( 'NONE',  ( -1.000000000000000000, -0.000000000000000000, -0.000000000000000000 ) ) ;
#331 = VECTOR ( 'NONE', #403, 1000.000000000000227 ) ;
#332 = ORIENTED_EDGE ( 'NONE', *, *, #244, .T. ) ;
#333 = DIRECTION ( 'NONE',  ( -0.9955273751804943894, -0.09447351621610808325, -3.298525188834355417E-16 ) ) ;
#334 = ORIENTED_EDGE ( 'NONE', *, *, #8, .T. ) ;
#335 = ADVANCED_FACE ( 'NONE', ( #92 ), #536, .T. ) ;
#336 = ORIENTED_EDGE ( 'NONE', *, *, #641, .T. ) ;
#337 = DIRECTION ( 'NONE',  ( 0.6261493566299924929, 0.7797031378619984077, 0.000000000000000000 ) ) ;
#338 = DIRECTION ( 'NONE',  ( -0.9955273751804943894, -0.09447351621610808325, -3.298525188834355417E-16 ) ) ;
#339 = EDGE_CURVE ( 'NONE', #73, #394, #659, .T. ) ;
#340 = ORIENTED_EDGE ( 'NONE', *, *, #48, .T. ) ;
#341 = DIRECTION ( 'NONE',  ( 0.000000000000000000, 1.000000000000000000, 0.000000000000000000 ) ) ;
#342 = SECURITY_CLASSIFICATION ( '', '', #465 ) ;
#343 = DIRECTION ( 'NONE',  ( 0.7775774828448950293, -0.6244423255091146041, -0.07379051622915844266 ) ) ;
#344 = AXIS2_PLACEMENT_3D ( 'NONE', #293, #513, #236 ) ;
#345 = VECTOR ( 'NONE', #604, 1000.000000000000227 ) ;
#346 = EDGE_LOOP ( 'NONE', ( #5, #457, #594, #340 ) ) ;
#347 = LINE ( 'NONE', #231, #672 ) ;
#348 = CARTESIAN_POINT ( 'NONE',  ( 0.000000000000000000, -2.200000000000000178, 0.4649999999999995803 ) ) ;
#349 = MANIFOLD_SOLID_BREP ( 'CirPattern1', #265 ) ;
#350 = ORIENTED_EDGE ( 'NONE', *, *, #306, .F. ) ;
#351 = EDGE_CURVE ( 'NONE', #372, #316, #308, .T. ) ;
#352 = CARTESIAN_POINT ( 'NONE',  ( 0.3140046660742119577, -0.4352015980153990937, -1.947835028366934562 ) ) ;
#353 = CARTESIAN_POINT ( 'NONE',  ( 1.616353821170089411, 0.000000000000000000, 0.000000000000000000 ) ) ;
#354 = CARTESIAN_POINT ( 'NONE',  ( 5.025653750643289897, -1.835907654853336179, 0.000000000000000000 ) ) ;
#355 = AXIS2_PLACEMENT_3D ( 'NONE', #7, #163, #393 ) ;
#356 = CIRCLE ( 'NONE', #542, 6.498242175551664168 ) ;
#357 = PERSON_AND_ORGANIZATION ( #18446744073709551615, #18446744073709551615 ) ;
#358 = FACE_OUTER_BOUND ( 'NONE', #146, .T. ) ;
#359 = EDGE_CURVE ( 'NONE', #281, #394, #202, .T. ) ;
#360 = DIRECTION ( 'NONE',  ( 1.000000000000000000, 0.000000000000000000, 0.000000000000000000 ) ) ;
#361 = ORIENTED_EDGE ( 'NONE', *, *, #479, .F. ) ;
#362 = APPROVAL ( #201, 'Coincident' ) ;
#363 = MECHANICAL_CONTEXT ( 'NONE', #474, 'mechanical' ) ;
#364 = FACE_OUTER_BOUND ( 'NONE', #346, .T. ) ;
#365 = ORIENTED_EDGE ( 'NONE', *, *, #511, .T. ) ;
#366 = CIRCLE ( 'NONE', #553, 3.999999999999999112 ) ;
#367 = DATE_TIME_ROLE ( 'classification_date' ) ;
#368 = DIRECTION ( 'NONE',  ( 0.7775774828448951403, -0.07379051622915623609, -0.6244423255091148262 ) ) ;
#369 = ORIENTED_EDGE ( 'NONE', *, *, #500, .T. ) ;
#370 = CALENDAR_DATE ( 2026, 22, 6 ) ;
#371 = CARTESIAN_POINT ( 'NONE',  ( 1.226960105914547183, -3.800664451827243440, -4.654471555563362840E-16 ) ) ;
#372 = VERTEX_POINT ( 'NONE', #140 ) ;
#373 = ORIENTED_EDGE ( 'NONE', *, *, #176, .F. ) ;
#374 = CARTESIAN_POINT ( 'NONE',  ( 6.485719607574023549, -7.042624430979021184E-16, -0.1504815545963101575 ) ) ;
#375 = ORIENTED_EDGE ( 'NONE', *, *, #597, .F. ) ;
#376 = APPROVAL_PERSON_ORGANIZATION ( #531, #158, #692 ) ;
#377 = VECTOR ( 'NONE', #368, 1000.000000000000114 ) ;
#378 = DIRECTION ( 'NONE',  ( -0.7797031378619984077, 0.000000000000000000, -0.6261493566299924929 ) ) ;
#379 = CIRCLE ( 'NONE', #469, 3.800664451827242107 ) ;
#380 = ORIENTED_EDGE ( 'NONE', *, *, #230, .F. ) ;
#381 = ADVANCED_FACE ( 'NONE', ( #697 ), #35, .F. ) ;
#382 = DIRECTION ( 'NONE',  ( 0.9955273751804943894, 0.000000000000000000, 0.09447351621610813877 ) ) ;
#383 = ORIENTED_EDGE ( 'NONE', *, *, #693, .T. ) ;
#384 = ORIENTED_EDGE ( 'NONE', *, *, #291, .F. ) ;
#385 = CARTESIAN_POINT ( 'NONE',  ( 3.099999999999998757, 0.000000000000000000, 0.000000000000000000 ) ) ;
#386 = DIRECTION ( 'NONE',  ( 0.000000000000000000, 0.000000000000000000, -1.000000000000000000 ) ) ;
#387 = ORIENTED_EDGE ( 'NONE', *, *, #27, .F. ) ;
#388 = LINE ( 'NONE', #653, #345 ) ;
#389 = AXIS2_PLACEMENT_3D ( 'NONE', #243, #179, #516 ) ;
#390 = LINE ( 'NONE', #211, #42 ) ;
#391 = ORIENTED_EDGE ( 'NONE', *, *, #176, .T. ) ;
#392 = DIRECTION ( 'NONE',  ( -1.000000000000000000, -0.000000000000000000, -0.000000000000000000 ) ) ;
#393 = DIRECTION ( 'NONE',  ( -0.9955273751804943894, -0.09447351621610808325, 0.000000000000000000 ) ) ;
#394 = VERTEX_POINT ( 'NONE', #255 ) ;
#395 = CARTESIAN_POINT ( 'NONE',  ( 6.500000000000000000, -7.225416114969382221E-16, 0.000000000000000000 ) ) ;
#396 = CARTESIAN_POINT ( 'NONE',  ( 0.3140046660742128459, 1.947835028366933452, -0.4352015980154063657 ) ) ;
#397 = ORIENTED_EDGE ( 'NONE', *, *, #325, .T. ) ;
#398 = DIRECTION ( 'NONE',  ( -1.000000000000000000, -0.000000000000000000, -0.000000000000000000 ) ) ;
#399 = AXIS2_PLACEMENT_3D ( 'NONE', #556, #11, #47 ) ;
#400 = CIRCLE ( 'NONE', #471, 0.4799999999999999822 ) ;
#401 = VERTEX_POINT ( 'NONE', #198 ) ;
#402 = CARTESIAN_POINT ( 'NONE',  ( 1.226960105914547183, 0.000000000000000000, 3.800664451827242551 ) ) ;
#403 = DIRECTION ( 'NONE',  ( 0.7775774828448950293, 0.07379051622916060760, -0.6244423255091143821 ) ) ;
#404 = ORIENTED_EDGE ( 'NONE', *, *, #547, .T. ) ;
#405 = DIRECTION ( 'NONE',  ( 0.000000000000000000, 0.000000000000000000, 1.000000000000000000 ) ) ;
#406 = DIRECTION ( 'NONE',  ( -1.000000000000000000, -0.000000000000000000, -0.000000000000000000 ) ) ;
#407 = APPROVAL_DATE_TIME ( #137, #362 ) ;
#408 = EDGE_CURVE ( 'NONE', #681, #312, #366, .T. ) ;
#409 = DIRECTION ( 'NONE',  ( 0.000000000000000000, 0.000000000000000000, 1.000000000000000000 ) ) ;
#410 = AXIS2_PLACEMENT_3D ( 'NONE', #707, #583, #639 ) ;
#411 = APPROVAL_ROLE ( '' ) ;
#412 = FACE_OUTER_BOUND ( 'NONE', #152, .T. ) ;
#413 = CC_DESIGN_DATE_AND_TIME_ASSIGNMENT ( #701, #649, ( #209 ) ) ;
#414 = ADVANCED_BREP_SHAPE_REPRESENTATION ( 'pan cross head_am_B18.6.7M - M4 x 0.7 x 10 Type I Cross Recessed PHMS --10N', ( #349, #216 ), #566 ) ;
#415 = DIRECTION ( 'NONE',  ( 0.000000000000000000, 0.000000000000000000, 1.000000000000000000 ) ) ;
#416 = ORIENTED_EDGE ( 'NONE', *, *, #284, .T. ) ;
#417 = APPROVAL_DATE_TIME ( #524, #158 ) ;
#418 = CARTESIAN_POINT ( 'NONE',  ( 0.03290341124864443884, 0.4618775334223241824, -0.4618775334223225726 ) ) ;
#419 = EDGE_LOOP ( 'NONE', ( #220, #39, #560, #698 ) ) ;
#420 = ADVANCED_FACE ( 'NONE', ( #364 ), #533, .T. ) ;
#421 = AXIS2_PLACEMENT_3D ( 'NONE', #374, #428, #326 ) ;
#422 = DIRECTION ( 'NONE',  ( 0.000000000000000000, 0.000000000000000000, 1.000000000000000000 ) ) ;
#423 = DIRECTION ( 'NONE',  ( 0.000000000000000000, 0.000000000000000000, 1.000000000000000000 ) ) ;
#424 = ORIENTED_EDGE ( 'NONE', *, *, #339, .T. ) ;
#425 = ADVANCED_FACE ( 'NONE', ( #596 ), #46, .T. ) ;
#426 = DIRECTION ( 'NONE',  ( 0.9955273751804943894, -0.09447351621610813877, -3.298525188834356896E-16 ) ) ;
#427 = ORIENTED_EDGE ( 'NONE', *, *, #102, .F. ) ;
#428 = DIRECTION ( 'NONE',  ( -0.09447351621610808325, 1.209278611295048398E-16, -0.9955273751804943894 ) ) ;
#429 = EDGE_CURVE ( 'NONE', #316, #676, #279, .T. ) ;
#430 = EDGE_LOOP ( 'NONE', ( #212, #514, #498, #34, #703, #611, #629, #139, #599, #112, #670 ) ) ;
#431 = LOCAL_TIME ( 18, 50, 19.00000000000000000, #147 ) ;
#432 = ORIENTED_EDGE ( 'NONE', *, *, #325, .F. ) ;
#433 = CIRCLE ( 'NONE', #344, 6.500000000000000000 ) ;
#434 = DIRECTION ( 'NONE',  ( -1.000000000000000000, -0.000000000000000000, -0.000000000000000000 ) ) ;
#435 = AXIS2_PLACEMENT_3D ( 'NONE', #354, #337, #458 ) ;
#436 = CARTESIAN_POINT ( 'NONE',  ( 2.450000000000000178, 0.2325000000000000122, 0.2324999999999999845 ) ) ;
#437 = ORIENTED_EDGE ( 'NONE', *, *, #235, .T. ) ;
#438 = DIRECTION ( 'NONE',  ( -0.09447351621610808325, 0.9955273751804943894, 3.596793113879687400E-15 ) ) ;
#439 = ORIENTED_EDGE ( 'NONE', *, *, #712, .T. ) ;
#440 = DESIGN_CONTEXT ( 'detailed design', #226, 'design' ) ;
#441 = EDGE_LOOP ( 'NONE', ( #319, #336, #708, #557 ) ) ;
#442 = CARTESIAN_POINT ( 'NONE',  ( 5.025653750643289897, 1.835907654853335957, 2.140317277284683261E-16 ) ) ;
#443 = EDGE_LOOP ( 'NONE', ( #450, #675, #444 ) ) ;
#444 = ORIENTED_EDGE ( 'NONE', *, *, #70, .F. ) ;
#445 = EDGE_CURVE ( 'NONE', #64, #624, #484, .T. ) ;
#446 = DIRECTION ( 'NONE',  ( -1.000000000000000000, -0.000000000000000000, -0.000000000000000000 ) ) ;
#447 = AXIS2_PLACEMENT_3D ( 'NONE', #554, #96, #489 ) ;
#448 = CARTESIAN_POINT ( 'NONE',  ( 2.739517153748411538, -0.2050254129606099429, -2.821615343463749529E-16 ) ) ;
#449 = AXIS2_PLACEMENT_3D ( 'NONE', #687, #114, #674 ) ;
#450 = ORIENTED_EDGE ( 'NONE', *, *, #27, .T. ) ;
#451 = EDGE_CURVE ( 'NONE', #64, #461, #168, .T. ) ;
#452 = FACE_OUTER_BOUND ( 'NONE', #482, .T. ) ;
#453 = FACE_OUTER_BOUND ( 'NONE', #9, .T. ) ;
#454 = EDGE_LOOP ( 'NONE', ( #223, #109, #544, #256 ) ) ;
#455 = LINE ( 'NONE', #680, #76 ) ;
#456 = ADVANCED_FACE ( 'NONE', ( #2 ), #54, .T. ) ;
#457 = ORIENTED_EDGE ( 'NONE', *, *, #619, .T. ) ;
#458 = DIRECTION ( 'NONE',  ( -0.7797031378619984077, 0.6261493566299924929, 0.000000000000000000 ) ) ;
#459 = DIRECTION ( 'NONE',  ( 0.000000000000000000, 0.000000000000000000, 1.000000000000000000 ) ) ;
#460 = CIRCLE ( 'NONE', #123, 4.000000000000000000 ) ;
#461 = VERTEX_POINT ( 'NONE', #548 ) ;
#462 = FACE_OUTER_BOUND ( 'NONE', #601, .T. ) ;
#463 = DIRECTION ( 'NONE',  ( 0.000000000000000000, 0.000000000000000000, 1.000000000000000000 ) ) ;
#464 = ADVANCED_FACE ( 'NONE', ( #545 ), #6, .T. ) ;
#465 = SECURITY_CLASSIFICATION_LEVEL ( 'unclassified' ) ;
#466 = LINE ( 'NONE', #17, #568 ) ;
#467 = SHAPE_DEFINITION_REPRESENTATION ( #562, #414 ) ;
#468 = DIRECTION ( 'NONE',  ( 0.6261493566299924929, 0.7797031378619984077, 0.000000000000000000 ) ) ;
#469 = AXIS2_PLACEMENT_3D ( 'NONE', #49, #434, #154 ) ;
#470 = CIRCLE ( 'NONE', #355, 6.498242175551664168 ) ;
#471 = AXIS2_PLACEMENT_3D ( 'NONE', #477, #636, #29 ) ;
#472 = CIRCLE ( 'NONE', #253, 3.800664451827242107 ) ;
#473 = CALENDAR_DATE ( 2026, 22, 6 ) ;
#474 = APPLICATION_CONTEXT ( 'configuration controlled 3d designs of mechanical parts and assemblies' ) ;
#475 = DIRECTION ( 'NONE',  ( -1.000000000000000000, -0.000000000000000000, -0.000000000000000000 ) ) ;
#476 = ORIENTED_EDGE ( 'NONE', *, *, #187, .F. ) ;
#477 = CARTESIAN_POINT ( 'NONE',  ( 1.616353821170089411, 0.000000000000000000, 3.520000000000000018 ) ) ;
#478 = ORIENTED_EDGE ( 'NONE', *, *, #564, .F. ) ;
#479 = EDGE_CURVE ( 'NONE', #199, #314, #356, .T. ) ;
#480 = COORDINATED_UNIVERSAL_TIME_OFFSET ( 10, 0, .AHEAD. ) ;
#481 = PLANE ( 'NONE',  #251 ) ;
#482 = EDGE_LOOP ( 'NONE', ( #654, #94, #332, #113, #350, #387, #404, #616, #361, #93, #529 ) ) ;
#483 = VECTOR ( 'NONE', #656, 1000.000000000000114 ) ;
#484 = CIRCLE ( 'NONE', #24, 6.058526736745387886 ) ;
#485 = VECTOR ( 'NONE', #297, 1000.000000000000000 ) ;
#486 = CARTESIAN_POINT ( 'NONE',  ( 2.739517153748411538, 4.336808689942017736E-16, 0.2050254129606099429 ) ) ;
#487 = ORIENTED_EDGE ( 'NONE', *, *, #541, .F. ) ;
#488 = EDGE_CURVE ( 'NONE', #149, #233, #320, .T. ) ;
#489 = DIRECTION ( 'NONE',  ( 0.000000000000000000, 1.000000000000000000, 0.000000000000000000 ) ) ;
#490 = PLANE ( 'NONE',  #181 ) ;
#491 = PRODUCT ( 'pan cross head_am_B18.6.7M - M4 x 0.7 x 10 Type I Cross Recessed PHMS --10N', 'pan cross head_am_B18.6.7M - M4 x 0.7 x 10 Type I Cross Recessed PHMS --10N', '', ( #363 ) ) ;
#492 = CARTESIAN_POINT ( 'NONE',  ( 2.450000000000000178, -0.2325000000000000122, -0.2325000000000000122 ) ) ;
#493 = CARTESIAN_POINT ( 'NONE',  ( 0.000000000000000000, -0.4649999999999919198, -2.200000000000001954 ) ) ;
#494 = VECTOR ( 'NONE', #272, 1000.000000000000000 ) ;
#495 = AXIS2_PLACEMENT_3D ( 'NONE', #631, #298, #588 ) ;
#496 = LINE ( 'NONE', #207, #508 ) ;
#497 = PLANE ( 'NONE',  #658 ) ;
#498 = ORIENTED_EDGE ( 'NONE', *, *, #597, .T. ) ;
#499 = LINE ( 'NONE', #663, #494 ) ;
#500 = EDGE_CURVE ( 'NONE', #401, #661, #496, .T. ) ;
#501 = ORIENTED_EDGE ( 'NONE', *, *, #142, .F. ) ;
#502 = CARTESIAN_POINT ( 'NONE',  ( 6.485719607574023549, -7.225416114969382221E-16, 0.1504815545963103518 ) ) ;
#503 = FACE_OUTER_BOUND ( 'NONE', #60, .T. ) ;
#504 = CC_DESIGN_PERSON_AND_ORGANIZATION_ASSIGNMENT ( #257, #592, ( #209 ) ) ;
#505 = VERTEX_POINT ( 'NONE', #550 ) ;
#506 = CIRCLE ( 'NONE', #124, 6.498242175551664168 ) ;
#507 = DIRECTION ( 'NONE',  ( 0.000000000000000000, 0.000000000000000000, 1.000000000000000000 ) ) ;
#508 = VECTOR ( 'NONE', #221, 1000.000000000000227 ) ;
#509 = DIRECTION ( 'NONE',  ( -1.000000000000000000, -0.000000000000000000, -0.000000000000000000 ) ) ;
#510 = ORIENTED_EDGE ( 'NONE', *, *, #235, .F. ) ;
#511 = EDGE_CURVE ( 'NONE', #314, #401, #191, .T. ) ;
#512 = SPHERICAL_SURFACE ( 'NONE', #581, 6.500000000000000000 ) ;
#513 = DIRECTION ( 'NONE',  ( 0.000000000000000000, 1.224646799147353207E-16, -1.000000000000000000 ) ) ;
#514 = ORIENTED_EDGE ( 'NONE', *, *, #564, .T. ) ;
#515 = CARTESIAN_POINT ( 'NONE',  ( 2.450000000000000178, 0.2325000000000008171, -0.2324999999999992073 ) ) ;
#516 = DIRECTION ( 'NONE',  ( 1.000000000000000000, 0.000000000000000000, 0.000000000000000000 ) ) ;
#517 = ORIENTED_EDGE ( 'NONE', *, *, #196, .T. ) ;
#518 = CARTESIAN_POINT ( 'NONE',  ( 3.099999999999998757, 0.000000000000000000, 0.000000000000000000 ) ) ;
#519 = DIRECTION ( 'NONE',  ( 0.000000000000000000, 0.000000000000000000, 1.000000000000000000 ) ) ;
#520 = CIRCLE ( 'NONE', #613, 2.000000000000000000 ) ;
#521 = APPROVAL_STATUS ( 'not_yet_approved' ) ;
#522 = FACE_OUTER_BOUND ( 'NONE', #454, .T. ) ;
#523 = CC_DESIGN_PERSON_AND_ORGANIZATION_ASSIGNMENT ( #245, #638, ( #491 ) ) ;
#524 = DATE_AND_TIME ( #307, #543 ) ;
#525 = CARTESIAN_POINT ( 'NONE',  ( 0.000000000000000000, 0.4649999999999923084, 2.200000000000001954 ) ) ;
#526 =( NAMED_UNIT ( * ) SI_UNIT ( $, .STERADIAN. ) SOLID_ANGLE_UNIT ( ) );
#527 = CARTESIAN_POINT ( 'NONE',  ( 2.450000000000000178, 0.2325000000000007061, -0.2324999999999992073 ) ) ;
#528 = AXIS2_PLACEMENT_3D ( 'NONE', #668, #166, #378 ) ;
#529 = ORIENTED_EDGE ( 'NONE', *, *, #219, .F. ) ;
#530 = CIRCLE ( 'NONE', #389, 6.500000000000000000 ) ;
#531 = PERSON_AND_ORGANIZATION ( #18446744073709551615, #18446744073709551615 ) ;
#532 = ADVANCED_FACE ( 'NONE', ( #271 ), #210, .T. ) ;
#533 = PLANE ( 'NONE',  #241 ) ;
#534 = ORIENTED_EDGE ( 'NONE', *, *, #111, .T. ) ;
#535 = CARTESIAN_POINT ( 'NONE',  ( 0.000000000000000000, 0.000000000000000000, 0.000000000000000000 ) ) ;
#536 = PLANE ( 'NONE',  #695 ) ;
#537 = ORIENTED_EDGE ( 'NONE', *, *, #254, .T. ) ;
#538 = DIRECTION ( 'NONE',  ( 0.6261493566299924929, 2.813217432667951697E-15, -0.7797031378619984077 ) ) ;
#539 = EDGE_LOOP ( 'NONE', ( #164, #537, #260, #476 ) ) ;
#540 = VECTOR ( 'NONE', #107, 1000.000000000000114 ) ;
#541 = EDGE_CURVE ( 'NONE', #679, #328, #379, .T. ) ;
#542 = AXIS2_PLACEMENT_3D ( 'NONE', #502, #606, #57 ) ;
#543 = LOCAL_TIME ( 18, 50, 19.00000000000000000, #28 ) ;
#544 = ORIENTED_EDGE ( 'NONE', *, *, #187, .T. ) ;
#545 = FACE_OUTER_BOUND ( 'NONE', #173, .T. ) ;
#546 = LINE ( 'NONE', #274, #250 ) ;
#547 = EDGE_CURVE ( 'NONE', #644, #401, #301, .T. ) ;
#548 = CARTESIAN_POINT ( 'NONE',  ( 0.03290341124864443884, -0.4618775334223240714, 0.4618775334223223505 ) ) ;
#549 = DIRECTION ( 'NONE',  ( -0.000000000000000000, 0.000000000000000000, 1.000000000000000000 ) ) ;
#550 = CARTESIAN_POINT ( 'NONE',  ( 3.099999999999998757, 4.898587196589412829E-16, -4.000000000000000000 ) ) ;
#551 = PLANE ( 'NONE',  #155 ) ;
#552 = CIRCLE ( 'NONE', #22, 2.000000000000000000 ) ;
#553 = AXIS2_PLACEMENT_3D ( 'NONE', #203, #475, #423 ) ;
#554 = CARTESIAN_POINT ( 'NONE',  ( 6.500000000000000000, -7.225416114969382221E-16, 0.000000000000000000 ) ) ;
#555 = EDGE_CURVE ( 'NONE', #667, #585, #388, .T. ) ;
#556 = CARTESIAN_POINT ( 'NONE',  ( 5.025653750643289897, 1.835907654853335957, 2.140317277284683261E-16 ) ) ;
#557 = ORIENTED_EDGE ( 'NONE', *, *, #89, .F. ) ;
#558 = CARTESIAN_POINT ( 'NONE',  ( 1.226960105914547183, 0.000000000000000000, 0.000000000000000000 ) ) ;
#559 = LINE ( 'NONE', #322, #483 ) ;
#560 = ORIENTED_EDGE ( 'NONE', *, *, #500, .F. ) ;
#561 = DIRECTION ( 'NONE',  ( -0.09447351621610808325, 1.209278611295048645E-16, -0.9955273751804943894 ) ) ;
#562 = PRODUCT_DEFINITION_SHAPE ( 'NONE', 'NONE',  #209 ) ;
#563 = CARTESIAN_POINT ( 'NONE',  ( 0.3140046660742119577, -0.4352015980154133046, 1.947835028366932564 ) ) ;
#564 = EDGE_CURVE ( 'NONE', #328, #700, #213, .T. ) ;
#565 = EDGE_LOOP ( 'NONE', ( #69, #651, #180 ) ) ;
#566 =( GEOMETRIC_REPRESENTATION_CONTEXT ( 3 ) GLOBAL_UNCERTAINTY_ASSIGNED_CONTEXT ( ( #704 ) ) GLOBAL_UNIT_ASSIGNED_CONTEXT ( ( #630, #178, #526 ) ) REPRESENTATION_CONTEXT ( 'NONE', 'WORKASPACE' ) );
#567 = DIRECTION ( 'NONE',  ( -0.9955273751804943894, -0.09447351621610808325, 0.000000000000000000 ) ) ;
#568 = VECTOR ( 'NONE', #343, 1000.000000000000227 ) ;
#569 = LINE ( 'NONE', #348, #310 ) ;
#570 = AXIS2_PLACEMENT_3D ( 'NONE', #182, #125, #286 ) ;
#571 = VERTEX_POINT ( 'NONE', #106 ) ;
#572 = EDGE_CURVE ( 'NONE', #585, #661, #282, .T. ) ;
#573 = DIRECTION ( 'NONE',  ( 0.000000000000000000, 0.000000000000000000, 1.000000000000000000 ) ) ;
#574 = EDGE_LOOP ( 'NONE', ( #161, #18 ) ) ;
#575 = PLANE ( 'NONE',  #570 ) ;
#576 = CARTESIAN_POINT ( 'NONE',  ( 2.450000000000000178, -0.2325000000000000122, -0.2324999999999999012 ) ) ;
#577 = DIRECTION ( 'NONE',  ( 0.000000000000000000, 0.000000000000000000, 1.000000000000000000 ) ) ;
#578 = DIRECTION ( 'NONE',  ( 0.000000000000000000, 0.000000000000000000, 1.000000000000000000 ) ) ;
#579 = AXIS2_PLACEMENT_3D ( 'NONE', #162, #275, #426 ) ;
#580 = EDGE_CURVE ( 'NONE', #372, #156, #696, .T. ) ;
#581 = AXIS2_PLACEMENT_3D ( 'NONE', #395, #621, #341 ) ;
#582 = APPLICATION_PROTOCOL_DEFINITION ( 'international standard', 'config_control_design', 1994, #226 ) ;
#583 = DIRECTION ( 'NONE',  ( -0.09447351621610813877, 0.000000000000000000, 0.9955273751804943894 ) ) ;
#584 = CARTESIAN_POINT ( 'NONE',  ( 3.099999999999998757, 0.000000000000000000, 0.000000000000000000 ) ) ;
#585 = VERTEX_POINT ( 'NONE', #492 ) ;
#586 = ADVANCED_FACE ( 'NONE', ( #711 ), #575, .T. ) ;
#587 = CALENDAR_DATE ( 2026, 22, 6 ) ;
#588 = DIRECTION ( 'NONE',  ( 0.000000000000000000, 0.000000000000000000, 1.000000000000000000 ) ) ;
#589 = ORIENTED_EDGE ( 'NONE', *, *, #580, .F. ) ;
#590 = TOROIDAL_SURFACE ( 'NONE', #227, 3.520000000000000018, 0.4799999999999997602 ) ;
#591 = PRODUCT_RELATED_PRODUCT_CATEGORY ( 'detail', '', ( #491 ) ) ;
#592 = PERSON_AND_ORGANIZATION_ROLE ( 'creator' ) ;
#593 = DIRECTION ( 'NONE',  ( -0.9955273751804943894, 0.000000000000000000, 0.09447351621610808325 ) ) ;
#594 = ORIENTED_EDGE ( 'NONE', *, *, #429, .F. ) ;
#595 = PERSON_AND_ORGANIZATION_ROLE ( 'design_supplier' ) ;
#596 = FACE_OUTER_BOUND ( 'NONE', #430, .T. ) ;
#597 = EDGE_CURVE ( 'NONE', #700, #177, #66, .T. ) ;
#598 = EDGE_LOOP ( 'NONE', ( #91, #296, #380 ) ) ;
#599 = ORIENTED_EDGE ( 'NONE', *, *, #712, .F. ) ;
#600 = DIRECTION ( 'NONE',  ( -0.09447351621610813877, -0.9955273751804943894, -3.475865252750182782E-15 ) ) ;
#601 = EDGE_LOOP ( 'NONE', ( #686, #12, #373, #589 ) ) ;
#602 = VECTOR ( 'NONE', #662, 1000.000000000000000 ) ;
#603 = AXIS2_PLACEMENT_3D ( 'NONE', #217, #600, #103 ) ;
#604 = DIRECTION ( 'NONE',  ( 0.7775774828448950293, 0.6244423255091146041, 0.07379051622915840103 ) ) ;
#605 = DIRECTION ( 'NONE',  ( 0.000000000000000000, -1.224646799147352714E-16, 1.000000000000000000 ) ) ;
#606 = DIRECTION ( 'NONE',  ( -0.09447351621610813877, 0.000000000000000000, 0.9955273751804943894 ) ) ;
#607 = DIRECTION ( 'NONE',  ( 0.000000000000000000, 0.000000000000000000, 1.000000000000000000 ) ) ;
#608 = EDGE_CURVE ( 'NONE', #233, #149, #318, .T. ) ;
#609 = DIRECTION ( 'NONE',  ( 0.000000000000000000, 0.000000000000000000, 1.000000000000000000 ) ) ;
#610 = CARTESIAN_POINT ( 'NONE',  ( 13.10000000000000142, 0.000000000000000000, 0.000000000000000000 ) ) ;
#611 = ORIENTED_EDGE ( 'NONE', *, *, #339, .F. ) ;
#612 = AXIS2_PLACEMENT_3D ( 'NONE', #576, #288, #678 ) ;
#613 = AXIS2_PLACEMENT_3D ( 'NONE', #136, #193, #415 ) ;
#614 = CARTESIAN_POINT ( 'NONE',  ( 2.739517153748411538, -4.336808689942017736E-16, -0.2050254129606099429 ) ) ;
#615 = ORIENTED_EDGE ( 'NONE', *, *, #111, .F. ) ;
#616 = ORIENTED_EDGE ( 'NONE', *, *, #511, .F. ) ;
#617 = CARTESIAN_POINT ( 'NONE',  ( 2.449999999999999734, -0.2325000000000008171, 0.2324999999999994571 ) ) ;
#618 = CARTESIAN_POINT ( 'NONE',  ( 0.000000000000000000, -0.4650000000000078515, 2.199999999999998401 ) ) ;
#619 = EDGE_CURVE ( 'NONE', #585, #676, #292, .T. ) ;
#620 = ORIENTED_EDGE ( 'NONE', *, *, #408, .F. ) ;
#621 = DIRECTION ( 'NONE',  ( -0.000000000000000000, 0.000000000000000000, -1.000000000000000000 ) ) ;
#622 = CARTESIAN_POINT ( 'NONE',  ( 3.099999999999998757, 0.000000000000000000, 2.000000000000000000 ) ) ;
#623 = CC_DESIGN_PERSON_AND_ORGANIZATION_ASSIGNMENT ( #252, #645, ( #691 ) ) ;
#624 = VERTEX_POINT ( 'NONE', #23 ) ;
#625 = APPROVAL_PERSON_ORGANIZATION ( #357, #270, #37 ) ;
#626 = CARTESIAN_POINT ( 'NONE',  ( 2.450000000000000178, -0.2325000000000000122, -0.2325000000000000122 ) ) ;
#627 = AXIS2_PLACEMENT_3D ( 'NONE', #295, #20, #459 ) ;
#628 = DIRECTION ( 'NONE',  ( -0.9911142316013245024, -0.09405471789685999895, -0.09405471789686038753 ) ) ;
#629 = ORIENTED_EDGE ( 'NONE', *, *, #673, .F. ) ;
#630 =( LENGTH_UNIT ( ) NAMED_UNIT ( * ) SI_UNIT ( .MILLI., .METRE. ) );
#631 = CARTESIAN_POINT ( 'NONE',  ( 3.099999999999998757, 0.000000000000000000, 0.000000000000000000 ) ) ;
#632 = EDGE_CURVE ( 'NONE', #177, #679, #472, .T. ) ;
#633 = DIRECTION ( 'NONE',  ( -0.9955273751804943894, 0.000000000000000000, 0.09447351621610808325 ) ) ;
#634 = CYLINDRICAL_SURFACE ( 'NONE', #157, 2.000000000000000000 ) ;
#635 = APPLICATION_PROTOCOL_DEFINITION ( 'international standard', 'config_control_design', 1994, #474 ) ;
#636 = DIRECTION ( 'NONE',  ( 0.000000000000000000, -1.000000000000000000, 0.000000000000000000 ) ) ;
#637 = VECTOR ( 'NONE', #68, 1000.000000000000000 ) ;
#638 = PERSON_AND_ORGANIZATION_ROLE ( 'design_owner' ) ;
#639 = DIRECTION ( 'NONE',  ( 0.9955273751804943894, 0.000000000000000000, 0.09447351621610813877 ) ) ;
#640 = VERTEX_POINT ( 'NONE', #174 ) ;
#641 = EDGE_CURVE ( 'NONE', #505, #681, #171, .T. ) ;
#642 = APPROVAL_STATUS ( 'not_yet_approved' ) ;
#643 = DIRECTION ( 'NONE',  ( -1.000000000000000000, -0.000000000000000000, -0.000000000000000000 ) ) ;
#644 = VERTEX_POINT ( 'NONE', #352 ) ;
#645 = PERSON_AND_ORGANIZATION_ROLE ( 'creator' ) ;
#646 = CARTESIAN_POINT ( 'NONE',  ( 2.450000000000000178, 0.2325000000000000122, -0.2325000000000000122 ) ) ;
#647 = EDGE_LOOP ( 'NONE', ( #384, #52 ) ) ;
#648 = AXIS2_PLACEMENT_3D ( 'NONE', #83, #702, #258 ) ;
#649 = DATE_TIME_ROLE ( 'creation_date' ) ;
#650 = DIRECTION ( 'NONE',  ( 0.000000000000000000, 0.000000000000000000, 1.000000000000000000 ) ) ;
#651 = ORIENTED_EDGE ( 'NONE', *, *, #259, .T. ) ;
#652 = ADVANCED_FACE ( 'NONE', ( #462 ), #185, .F. ) ;
#653 = CARTESIAN_POINT ( 'NONE',  ( 0.000000000000000000, -2.200000000000000178, -0.4650000000000000244 ) ) ;
#654 = ORIENTED_EDGE ( 'NONE', *, *, #632, .T. ) ;
#655 = CARTESIAN_POINT ( 'NONE',  ( 2.739517153748411538, -0.2050254129606099429, -2.821615343463749529E-16 ) ) ;
#656 = DIRECTION ( 'NONE',  ( -0.9911142316013246134, 0.09405471789686006834, 0.09405471789686035977 ) ) ;
#657 = CC_DESIGN_APPROVAL ( #158, ( #691 ) ) ;
#658 = AXIS2_PLACEMENT_3D ( 'NONE', #324, #327, #549 ) ;
#659 = CIRCLE ( 'NONE', #648, 6.498242175551664168 ) ;
#660 = AXIS2_PLACEMENT_3D ( 'NONE', #61, #14, #10 ) ;
#661 = VERTEX_POINT ( 'NONE', #515 ) ;
#662 = DIRECTION ( 'NONE',  ( 0.000000000000000000, 1.000000000000000000, 0.000000000000000000 ) ) ;
#663 = CARTESIAN_POINT ( 'NONE',  ( 2.758629411457059977, 0.2032116987086674820, -0.2032116987086667881 ) ) ;
#664 = ADVANCED_FACE ( 'NONE', ( #67 ), #117, .T. ) ;
#665 = DIRECTION ( 'NONE',  ( -1.000000000000000000, -0.000000000000000000, -0.000000000000000000 ) ) ;
#666 = CARTESIAN_POINT ( 'NONE',  ( 0.03290341124864443884, 0.4618775334223209073, 0.4618775334223225726 ) ) ;
#667 = VERTEX_POINT ( 'NONE', #238 ) ;
#668 = CARTESIAN_POINT ( 'NONE',  ( 5.025653750643289897, -7.346610655985090408E-15, 1.835907654853335957 ) ) ;
#669 = DIRECTION ( 'NONE',  ( -0.000000000000000000, 1.000000000000000000, 1.224646799147353207E-16 ) ) ;
#670 = ORIENTED_EDGE ( 'NONE', *, *, #445, .T. ) ;
#671 = VECTOR ( 'NONE', #232, 1000.000000000000227 ) ;
#672 = VECTOR ( 'NONE', #682, 1000.000000000000227 ) ;
#673 = EDGE_CURVE ( 'NONE', #372, #73, #78, .T. ) ;
#674 = DIRECTION ( 'NONE',  ( -0.7797031378619984077, -2.186188794002252624E-15, 0.6261493566299924929 ) ) ;
#675 = ORIENTED_EDGE ( 'NONE', *, *, #259, .F. ) ;
#676 = VERTEX_POINT ( 'NONE', #617 ) ;
#677 = DIRECTION ( 'NONE',  ( -0.09447351621610808325, 0.9955273751804943894, 3.596793113879687400E-15 ) ) ;
#678 = DIRECTION ( 'NONE',  ( 0.7797031378619984077, 0.6261493566299924929, 0.000000000000000000 ) ) ;
#679 = VERTEX_POINT ( 'NONE', #19 ) ;
#680 = CARTESIAN_POINT ( 'NONE',  ( -25.39999999999996305, 2.449293598294706414E-16, -2.000000000000000000 ) ) ;
#681 = VERTEX_POINT ( 'NONE', #131 ) ;
#682 = DIRECTION ( 'NONE',  ( 0.7775774828448950293, -0.6244423255091146041, 0.07379051622915840103 ) ) ;
#683 = AXIS2_PLACEMENT_3D ( 'NONE', #486, #305, #593 ) ;
#684 = DIRECTION ( 'NONE',  ( -1.000000000000000000, -0.000000000000000000, -0.000000000000000000 ) ) ;
#685 = EDGE_CURVE ( 'NONE', #199, #281, #45, .T. ) ;
#686 = ORIENTED_EDGE ( 'NONE', *, *, #351, .T. ) ;
#687 = CARTESIAN_POINT ( 'NONE',  ( 2.450000000000000178, -0.2325000000000007894, 0.2324999999999992073 ) ) ;
#688 = CARTESIAN_POINT ( 'NONE',  ( -25.39999999999996305, 0.000000000000000000, 0.000000000000000000 ) ) ;
#689 = PERSON_AND_ORGANIZATION ( #18446744073709551615, #18446744073709551615 ) ;
#690 = DIRECTION ( 'NONE',  ( -1.000000000000000000, -0.000000000000000000, -0.000000000000000000 ) ) ;
#691 = PRODUCT_DEFINITION_FORMATION_WITH_SPECIFIED_SOURCE ( 'Symmetric', '', #491, .NOT_KNOWN. ) ;
#692 = APPROVAL_ROLE ( '' ) ;
#693 = EDGE_CURVE ( 'NONE', #199, #661, #347, .T. ) ;
#694 = CARTESIAN_POINT ( 'NONE',  ( 2.449999999999999734, 0.2325000000000002620, 0.2325000000000000122 ) ) ;
#695 = AXIS2_PLACEMENT_3D ( 'NONE', #267, #360, #41 ) ;
#696 = CIRCLE ( 'NONE', #33, 6.058526736745389663 ) ;
#697 = FACE_OUTER_BOUND ( 'NONE', #419, .T. ) ;
#698 = ORIENTED_EDGE ( 'NONE', *, *, #547, .F. ) ;
#699 = DIRECTION ( 'NONE',  ( 0.000000000000000000, 0.000000000000000000, 1.000000000000000000 ) ) ;
#700 = VERTEX_POINT ( 'NONE', #402 ) ;
#701 = DATE_AND_TIME ( #473, #249 ) ;
#702 = DIRECTION ( 'NONE',  ( -0.09447351621610808325, 1.209278611295048398E-16, -0.9955273751804943894 ) ) ;
#703 = ORIENTED_EDGE ( 'NONE', *, *, #359, .T. ) ;
#704 = UNCERTAINTY_MEASURE_WITH_UNIT (LENGTH_MEASURE( 1.000000000000000082E-05 ), #630, 'distance_accuracy_value', 'NONE');
#705 = AXIS2_PLACEMENT_3D ( 'NONE', #518, #129, #507 ) ;
#706 = ADVANCED_FACE ( 'NONE', ( #452 ), #512, .T. ) ;
#707 = CARTESIAN_POINT ( 'NONE',  ( 6.485719607574023549, -7.225416114969382221E-16, 0.1504815545963103518 ) ) ;
#708 = ORIENTED_EDGE ( 'NONE', *, *, #196, .F. ) ;
#709 = DIRECTION ( 'NONE',  ( -0.09447351621610813877, 0.000000000000000000, 0.9955273751804943894 ) ) ;
#710 = DIRECTION ( 'NONE',  ( -0.09447351621610808325, 0.9955273751804943894, 3.596793113879687400E-15 ) ) ;
#711 = FACE_OUTER_BOUND ( 'NONE', #56, .T. ) ;
#712 = EDGE_CURVE ( 'NONE', #461, #156, #506, .T. ) ;
#713 = DIRECTION ( 'NONE',  ( 0.000000000000000000, 0.000000000000000000, 1.000000000000000000 ) ) ;
ENDSEC;
END-ISO-10303-21;
