ISO-10303-21;
HEADER;
FILE_DESCRIPTION (( 'STEP AP203' ),
    '1' );
FILE_NAME ('pan cross head_am.STEP',
    '2026-06-22T08:50:19',
    ( 'localuser' ),
    ( '' ),
    'SwSTEP 2.0',
    'SolidWorks 2025',
    '' );
FILE_SCHEMA (( 'CONFIG_CONTROL_DESIGN' ));
ENDSEC;

DATA;
#1 = VECTOR ( 'NONE', #575, 1000.000000000000000 ) ;
#2 = DIRECTION ( 'NONE',  ( -0.9945209233808905980, -0.1045377106962865343, -3.649914661014666353E-16 ) ) ;
#3 = DIRECTION ( 'NONE',  ( 0.000000000000000000, 1.000000000000000000, 1.224646799147353207E-16 ) ) ;
#4 = EDGE_CURVE ( 'NONE', #321, #207, #499, .T. ) ;
#5 = ORIENTED_EDGE ( 'NONE', *, *, #364, .T. ) ;
#6 = SPHERICAL_SURFACE ( 'NONE', #600, 5.000000000000000888 ) ;
#7 = VERTEX_POINT ( 'NONE', #287 ) ;
#8 = EDGE_CURVE ( 'NONE', #391, #43, #464, .T. ) ;
#9 = VERTEX_POINT ( 'NONE', #230 ) ;
#10 = DIRECTION ( 'NONE',  ( -1.000000000000000000, -0.000000000000000000, -0.000000000000000000 ) ) ;
#11 = DIRECTION ( 'NONE',  ( -0.1045377106962865482, 1.026711303099399797E-16, -0.9945209233808907090 ) ) ;
#12 = CIRCLE ( 'NONE', #570, 2.800000000000000266 ) ;
#13 = EDGE_LOOP ( 'NONE', ( #289, #543, #337, #589 ) ) ;
#14 = CIRCLE ( 'NONE', #201, 1.499999999999999556 ) ;
#15 = AXIS2_PLACEMENT_3D ( 'NONE', #137, #353, #183 ) ;
#16 = CARTESIAN_POINT ( 'NONE',  ( 2.399999999999999467, 0.000000000000000000, 1.499999999999999556 ) ) ;
#17 = CARTESIAN_POINT ( 'NONE',  ( 4.983826363222722655, -5.207018160273030567E-15, 0.1538681120432974780 ) ) ;
#18 = VERTEX_POINT ( 'NONE', #114 ) ;
#19 = DIRECTION ( 'NONE',  ( -0.8120153713427135100, -2.037754370800868188E-15, 0.5836360481525750821 ) ) ;
#20 = DIRECTION ( 'NONE',  ( -1.000000000000000000, -0.000000000000000000, -0.000000000000000000 ) ) ;
#21 = ORIENTED_EDGE ( 'NONE', *, *, #262, .F. ) ;
#22 = DIRECTION ( 'NONE',  ( -1.000000000000000000, -0.000000000000000000, -0.000000000000000000 ) ) ;
#23 = ORIENTED_EDGE ( 'NONE', *, *, #596, .F. ) ;
#24 = APPLICATION_CONTEXT ( 'configuration controlled 3d designs of mechanical parts and assemblies' ) ;
#25 = AXIS2_PLACEMENT_3D ( 'NONE', #170, #284, #555 ) ;
#26 = FACE_OUTER_BOUND ( 'NONE', #13, .T. ) ;
#27 = CIRCLE ( 'NONE', #533, 4.687191243319268175 ) ;
#28 = FACE_OUTER_BOUND ( 'NONE', #81, .T. ) ;
#29 = EDGE_CURVE ( 'NONE', #573, #370, #488, .T. ) ;
#30 = PERSON_AND_ORGANIZATION ( #18446744073709551615, #18446744073709551615 ) ;
#31 = CARTESIAN_POINT ( 'NONE',  ( 1.053355855920124373, 0.000000000000000000, 2.440000000000000391 ) ) ;
#32 = ADVANCED_FACE ( 'NONE', ( #63 ), #509, .T. ) ;
#33 = DATE_AND_TIME ( #694, #35 ) ;
#34 = DIRECTION ( 'NONE',  ( -1.000000000000000000, -0.000000000000000000, -0.000000000000000000 ) ) ;
#35 = LOCAL_TIME ( 18, 50, 19.00000000000000000, #645 ) ;
#36 = APPROVAL_STATUS ( 'not_yet_approved' ) ;
#37 = CARTESIAN_POINT ( 'NONE',  ( 0.000000000000000000, -0.3700000000000048250, 1.449999999999998623 ) ) ;
#38 = AXIS2_PLACEMENT_3D ( 'NONE', #595, #318, #150 ) ;
#39 = AXIS2_PLACEMENT_3D ( 'NONE', #462, #627, #343 ) ;
#40 = ORIENTED_EDGE ( 'NONE', *, *, #108, .F. ) ;
#41 = PERSON_AND_ORGANIZATION ( #18446744073709551615, #18446744073709551615 ) ;
#42 = LINE ( 'NONE', #637, #578 ) ;
#43 = VERTEX_POINT ( 'NONE', #399 ) ;
#44 = PERSON_AND_ORGANIZATION_ROLE ( 'creator' ) ;
#45 = DIRECTION ( 'NONE',  ( 0.8120153713427135100, -2.037754370800868188E-15, 0.5836360481525750821 ) ) ;
#46 = EDGE_LOOP ( 'NONE', ( #461, #410, #135 ) ) ;
#47 = ADVANCED_FACE ( 'NONE', ( #505 ), #276, .F. ) ;
#48 = EDGE_LOOP ( 'NONE', ( #430, #542, #377, #453, #407 ) ) ;
#49 = PLANE ( 'NONE',  #324 ) ;
#50 = CIRCLE ( 'NONE', #128, 4.687191243319269951 ) ;
#51 = ORIENTED_EDGE ( 'NONE', *, *, #596, .T. ) ;
#52 = CIRCLE ( 'NONE', #244, 4.997605728503363487 ) ;
#53 = TOROIDAL_SURFACE ( 'NONE', #440, 2.440000000000000391, 0.3600000000000002087 ) ;
#54 = CARTESIAN_POINT ( 'NONE',  ( 1.760000000000000009, -0.1849999999999999978, -0.1849999999999999978 ) ) ;
#55 = CARTESIAN_POINT ( 'NONE',  ( 1.760000000000000009, 0.1849999999999999978, 0.1850000000000001088 ) ) ;
#56 = ADVANCED_FACE ( 'NONE', ( #664 ), #227, .T. ) ;
#57 = DIRECTION ( 'NONE',  ( 0.8090735533885303754, -0.5815216164980060443, 0.08504466328231706507 ) ) ;
#58 = ORIENTED_EDGE ( 'NONE', *, *, #196, .F. ) ;
#59 = LINE ( 'NONE', #54, #670 ) ;
#60 = ORIENTED_EDGE ( 'NONE', *, *, #67, .F. ) ;
#61 = AXIS2_PLACEMENT_3D ( 'NONE', #531, #479, #544 ) ;
#62 = DIRECTION ( 'NONE',  ( 0.5836360481525751931, -0.8120153713427136211, -2.379429269463225834E-16 ) ) ;
#63 = FACE_OUTER_BOUND ( 'NONE', #103, .T. ) ;
#64 = ORIENTED_EDGE ( 'NONE', *, *, #208, .F. ) ;
#65 = CARTESIAN_POINT ( 'NONE',  ( 2.017391304347826875, -0.1579446640316206629, -7.683012815333526710E-16 ) ) ;
#66 = DIRECTION ( 'NONE',  ( 0.000000000000000000, 0.000000000000000000, 1.000000000000000000 ) ) ;
#67 = EDGE_CURVE ( 'NONE', #119, #668, #447, .T. ) ;
#68 = ORIENTED_EDGE ( 'NONE', *, *, #426, .F. ) ;
#69 = DIRECTION ( 'NONE',  ( -1.000000000000000000, -0.000000000000000000, -0.000000000000000000 ) ) ;
#70 = CARTESIAN_POINT ( 'NONE',  ( 2.033634504110526819, -0.1562372822383817639, -0.1562372822383821802 ) ) ;
#71 = AXIS2_PLACEMENT_3D ( 'NONE', #678, #85, #194 ) ;
#72 = ORIENTED_EDGE ( 'NONE', *, *, #341, .T. ) ;
#73 = AXIS2_PLACEMENT_3D ( 'NONE', #124, #344, #471 ) ;
#74 =( GEOMETRIC_REPRESENTATION_CONTEXT ( 3 ) GLOBAL_UNCERTAINTY_ASSIGNED_CONTEXT ( ( #704 ) ) GLOBAL_UNIT_ASSIGNED_CONTEXT ( ( #401, #245, #139 ) ) REPRESENTATION_CONTEXT ( 'NONE', 'WORKASPACE' ) );
#75 = CARTESIAN_POINT ( 'NONE',  ( 0.7471507068104801252, -2.629310344827593404, -3.219976497758129145E-16 ) ) ;
#76 = DIRECTION ( 'NONE',  ( 0.000000000000000000, 0.000000000000000000, 1.000000000000000000 ) ) ;
#77 = ORIENTED_EDGE ( 'NONE', *, *, #288, .F. ) ;
#78 = EDGE_CURVE ( 'NONE', #668, #7, #176, .T. ) ;
#79 = PLANE ( 'NONE',  #15 ) ;
#80 = CARTESIAN_POINT ( 'NONE',  ( 0.000000000000000000, 0.3700000000000050471, -1.449999999999998623 ) ) ;
#81 = EDGE_LOOP ( 'NONE', ( #51, #346, #77, #641, #64 ) ) ;
#82 = CARTESIAN_POINT ( 'NONE',  ( 2.017391304347826875, 2.168404344971008868E-16, -0.1579446640316204964 ) ) ;
#83 = CARTESIAN_POINT ( 'NONE',  ( 4.983826363222722655, -5.207018160273030567E-15, 0.1538681120432974780 ) ) ;
#84 = CIRCLE ( 'NONE', #682, 2.629310344827586743 ) ;
#85 = DIRECTION ( 'NONE',  ( -0.1045377106962867841, -1.466730432999142832E-17, 0.9945209233808907090 ) ) ;
#86 = AXIS2_PLACEMENT_3D ( 'NONE', #297, #69, #191 ) ;
#87 = CARTESIAN_POINT ( 'NONE',  ( 3.984030907920158793, -1.413522215067612553, 0.000000000000000000 ) ) ;
#88 = EDGE_CURVE ( 'NONE', #373, #510, #50, .T. ) ;
#89 = DIRECTION ( 'NONE',  ( 0.8090735533885303754, 0.5815216164980060443, 0.08504466328231709282 ) ) ;
#90 = SHAPE_DEFINITION_REPRESENTATION ( #397, #622 ) ;
#91 = CARTESIAN_POINT ( 'NONE',  ( 0.7471507068104801252, 0.000000000000000000, 0.000000000000000000 ) ) ;
#92 = ORIENTED_EDGE ( 'NONE', *, *, #108, .T. ) ;
#93 = PERSON_AND_ORGANIZATION ( #18446744073709551615, #18446744073709551615 ) ;
#94 = CARTESIAN_POINT ( 'NONE',  ( 0.000000000000000000, 1.449999999999999956, 0.3699999999999997735 ) ) ;
#95 = VECTOR ( 'NONE', #89, 1000.000000000000227 ) ;
#96 = ORIENTED_EDGE ( 'NONE', *, *, #156, .T. ) ;
#97 = COORDINATED_UNIVERSAL_TIME_OFFSET ( 10, 0, .AHEAD. ) ;
#98 = EDGE_CURVE ( 'NONE', #621, #647, #142, .T. ) ;
#99 = CARTESIAN_POINT ( 'NONE',  ( -25.39999999999996305, 1.836970198721029441E-16, -1.499999999999999556 ) ) ;
#100 = EDGE_LOOP ( 'NONE', ( #515, #563, #493, #352 ) ) ;
#101 = SECURITY_CLASSIFICATION_LEVEL ( 'unclassified' ) ;
#102 = FACE_OUTER_BOUND ( 'NONE', #319, .T. ) ;
#103 = EDGE_LOOP ( 'NONE', ( #182, #301, #226, #603, #173, #68, #92, #532, #204, #403, #445 ) ) ;
#104 = DIRECTION ( 'NONE',  ( 0.000000000000000000, 0.000000000000000000, 1.000000000000000000 ) ) ;
#105 = DIRECTION ( 'NONE',  ( -0.9945209233808905980, 0.000000000000000000, 0.1045377106962865343 ) ) ;
#106 = AXIS2_PLACEMENT_3D ( 'NONE', #577, #302, #686 ) ;
#107 = CIRCLE ( 'NONE', #490, 5.000000000000000888 ) ;
#108 = EDGE_CURVE ( 'NONE', #119, #571, #27, .T. ) ;
#109 = CARTESIAN_POINT ( 'NONE',  ( 0.02703413433136243882, 0.3671583438344862005, 0.3671583438344871442 ) ) ;
#110 = DIRECTION ( 'NONE',  ( 0.000000000000000000, 0.000000000000000000, 1.000000000000000000 ) ) ;
#111 = APPROVAL ( #365, 'Coincident' ) ;
#112 = VERTEX_POINT ( 'NONE', #661 ) ;
#113 = DIRECTION ( 'NONE',  ( -0.1045377106962865482, 0.9945209233808907090, 3.575022375383362563E-15 ) ) ;
#114 = CARTESIAN_POINT ( 'NONE',  ( 1.053355855920125261, 0.000000000000000000, 2.800000000000000266 ) ) ;
#115 = ORIENTED_EDGE ( 'NONE', *, *, #267, .T. ) ;
#116 = CARTESIAN_POINT ( 'NONE',  ( -25.39999999999996305, 0.000000000000000000, 0.000000000000000000 ) ) ;
#117 = DIRECTION ( 'NONE',  ( -0.1045377106962865482, 1.026711303099399797E-16, -0.9945209233808907090 ) ) ;
#118 = CIRCLE ( 'NONE', #427, 4.687191243319269951 ) ;
#119 = VERTEX_POINT ( 'NONE', #713 ) ;
#120 = CARTESIAN_POINT ( 'NONE',  ( 5.000000000000000888, -5.204748896376250896E-15, 0.000000000000000000 ) ) ;
#121 = EDGE_CURVE ( 'NONE', #597, #43, #476, .T. ) ;
#122 = EDGE_LOOP ( 'NONE', ( #243, #240, #342 ) ) ;
#123 = DIRECTION ( 'NONE',  ( -0.1045377106962867841, -1.466730432999142832E-17, 0.9945209233808907090 ) ) ;
#124 = CARTESIAN_POINT ( 'NONE',  ( 3.984030907920156128, -2.694624604274781485E-16, -1.413522215067610777 ) ) ;
#125 = ORIENTED_EDGE ( 'NONE', *, *, #586, .T. ) ;
#126 = DIRECTION ( 'NONE',  ( 0.000000000000000000, 0.000000000000000000, 1.000000000000000000 ) ) ;
#127 = CARTESIAN_POINT ( 'NONE',  ( 12.40000000000000213, 1.836970198721029441E-16, -1.499999999999999556 ) ) ;
#128 = AXIS2_PLACEMENT_3D ( 'NONE', #394, #224, #605 ) ;
#129 = EDGE_CURVE ( 'NONE', #612, #112, #553, .T. ) ;
#130 = ORIENTED_EDGE ( 'NONE', *, *, #609, .T. ) ;
#131 = AXIS2_PLACEMENT_3D ( 'NONE', #91, #210, #372 ) ;
#132 = CIRCLE ( 'NONE', #86, 2.629310344827586743 ) ;
#133 = FACE_OUTER_BOUND ( 'NONE', #46, .T. ) ;
#134 = CYLINDRICAL_SURFACE ( 'NONE', #465, 2.800000000000000266 ) ;
#135 = ORIENTED_EDGE ( 'NONE', *, *, #345, .F. ) ;
#136 = EDGE_CURVE ( 'NONE', #232, #335, #611, .T. ) ;
#137 = CARTESIAN_POINT ( 'NONE',  ( 2.017391304347826875, 0.1579446640316204964, 7.683012815333520793E-16 ) ) ;
#138 = DIRECTION ( 'NONE',  ( -1.000000000000000000, -0.000000000000000000, -0.000000000000000000 ) ) ;
#139 =( NAMED_UNIT ( * ) SI_UNIT ( $, .STERADIAN. ) SOLID_ANGLE_UNIT ( ) );
#140 = EDGE_CURVE ( 'NONE', #207, #321, #222, .T. ) ;
#141 = LINE ( 'NONE', #80, #416 ) ;
#142 = CIRCLE ( 'NONE', #546, 1.499999999999999556 ) ;
#143 = AXIS2_PLACEMENT_3D ( 'NONE', #402, #138, #572 ) ;
#144 = APPROVAL_DATE_TIME ( #250, #111 ) ;
#145 = APPROVAL_PERSON_ORGANIZATION ( #315, #624, #481 ) ;
#146 = LINE ( 'NONE', #37, #199 ) ;
#147 = APPLICATION_PROTOCOL_DEFINITION ( 'international standard', 'config_control_design', 1994, #24 ) ;
#148 = CARTESIAN_POINT ( 'NONE',  ( 1.053355855920125261, 3.429011037612589276E-16, -2.800000000000000266 ) ) ;
#149 = ORIENTED_EDGE ( 'NONE', *, *, #484, .F. ) ;
#150 = DIRECTION ( 'NONE',  ( 0.000000000000000000, 0.000000000000000000, 1.000000000000000000 ) ) ;
#151 = ORIENTED_EDGE ( 'NONE', *, *, #205, .F. ) ;
#152 = ADVANCED_FACE ( 'NONE', ( #195 ), #354, .T. ) ;
#153 = CARTESIAN_POINT ( 'NONE',  ( 12.40000000000000213, 0.000000000000000000, 1.499999999999999556 ) ) ;
#154 = CIRCLE ( 'NONE', #360, 4.997605728503363487 ) ;
#155 = ORIENTED_EDGE ( 'NONE', *, *, #162, .F. ) ;
#156 = EDGE_CURVE ( 'NONE', #9, #317, #568, .T. ) ;
#157 = CALENDAR_DATE ( 2026, 22, 6 ) ;
#158 = CARTESIAN_POINT ( 'NONE',  ( 0.1885961384615456871, 1.314446525480762906, -0.3501759740821669964 ) ) ;
#159 = ORIENTED_EDGE ( 'NONE', *, *, #449, .T. ) ;
#160 = EDGE_LOOP ( 'NONE', ( #519, #340, #545, #644 ) ) ;
#161 = CARTESIAN_POINT ( 'NONE',  ( 0.1779595699219469751, 1.322091559118601323, 0.000000000000000000 ) ) ;
#162 = EDGE_CURVE ( 'NONE', #668, #608, #634, .T. ) ;
#163 = EDGE_LOOP ( 'NONE', ( #115, #522, #680 ) ) ;
#164 = FACE_OUTER_BOUND ( 'NONE', #667, .T. ) ;
#165 = AXIS2_PLACEMENT_3D ( 'NONE', #437, #443, #66 ) ;
#166 = EDGE_LOOP ( 'NONE', ( #181, #507 ) ) ;
#167 = CC_DESIGN_PERSON_AND_ORGANIZATION_ASSIGNMENT ( #689, #200, ( #657 ) ) ;
#168 = CIRCLE ( 'NONE', #705, 4.687191243319266398 ) ;
#169 = LINE ( 'NONE', #554, #417 ) ;
#170 = CARTESIAN_POINT ( 'NONE',  ( 5.000000000000000888, -5.204748896376250896E-15, 0.000000000000000000 ) ) ;
#171 = CARTESIAN_POINT ( 'NONE',  ( 0.1885961384615456871, 0.3501759740821717704, -1.314446525480763572 ) ) ;
#172 = CARTESIAN_POINT ( 'NONE',  ( 1.760000000000000009, 0.1849999999999999978, 0.1850000000000001088 ) ) ;
#173 = ORIENTED_EDGE ( 'NONE', *, *, #225, .F. ) ;
#174 = ADVANCED_FACE ( 'NONE', ( #292 ), #235, .T. ) ;
#175 = CARTESIAN_POINT ( 'NONE',  ( 2.399999999999999467, 0.000000000000000000, 0.000000000000000000 ) ) ;
#176 = LINE ( 'NONE', #281, #253 ) ;
#177 = VECTOR ( 'NONE', #698, 1000.000000000000114 ) ;
#178 = AXIS2_PLACEMENT_3D ( 'NONE', #237, #672, #19 ) ;
#179 = EDGE_LOOP ( 'NONE', ( #685, #708, #295, #702 ) ) ;
#180 = CARTESIAN_POINT ( 'NONE',  ( 1.053355855920125261, 0.000000000000000000, 0.000000000000000000 ) ) ;
#181 = ORIENTED_EDGE ( 'NONE', *, *, #4, .F. ) ;
#182 = ORIENTED_EDGE ( 'NONE', *, *, #288, .T. ) ;
#183 = DIRECTION ( 'NONE',  ( 0.9945209233808905980, -0.1045377106962867703, -3.649914661014674735E-16 ) ) ;
#184 = CARTESIAN_POINT ( 'NONE',  ( 2.399999999999999467, 3.429011037612589276E-16, -2.800000000000000266 ) ) ;
#185 = EDGE_CURVE ( 'NONE', #571, #7, #141, .T. ) ;
#186 = ORIENTED_EDGE ( 'NONE', *, *, #225, .T. ) ;
#187 = FACE_OUTER_BOUND ( 'NONE', #432, .T. ) ;
#188 = FACE_BOUND ( 'NONE', #434, .T. ) ;
#189 = ORIENTED_EDGE ( 'NONE', *, *, #535, .T. ) ;
#190 = AXIS2_PLACEMENT_3D ( 'NONE', #539, #311, #45 ) ;
#191 = DIRECTION ( 'NONE',  ( 0.000000000000000000, 0.000000000000000000, 1.000000000000000000 ) ) ;
#192 = CARTESIAN_POINT ( 'NONE',  ( 1.760000000000000009, 0.1849999999999999978, 0.1850000000000001088 ) ) ;
#193 = ORIENTED_EDGE ( 'NONE', *, *, #566, .F. ) ;
#194 = DIRECTION ( 'NONE',  ( 0.9945209233808905980, 0.000000000000000000, 0.1045377106962867703 ) ) ;
#195 = FACE_OUTER_BOUND ( 'NONE', #100, .T. ) ;
#196 = EDGE_CURVE ( 'NONE', #510, #370, #118, .T. ) ;
#197 = COORDINATED_UNIVERSAL_TIME_OFFSET ( 10, 0, .AHEAD. ) ;
#198 = DIRECTION ( 'NONE',  ( 0.000000000000000000, -1.000000000000000000, 0.000000000000000000 ) ) ;
#199 = VECTOR ( 'NONE', #271, 1000.000000000000114 ) ;
#200 = PERSON_AND_ORGANIZATION_ROLE ( 'creator' ) ;
#201 = AXIS2_PLACEMENT_3D ( 'NONE', #175, #610, #283 ) ;
#202 = DIRECTION ( 'NONE',  ( -1.000000000000000000, -0.000000000000000000, -0.000000000000000000 ) ) ;
#203 = DIRECTION ( 'NONE',  ( -0.9945209233808908200, -0.1045377106962865482, 0.000000000000000000 ) ) ;
#204 = ORIENTED_EDGE ( 'NONE', *, *, #267, .F. ) ;
#205 = EDGE_CURVE ( 'NONE', #599, #317, #614, .T. ) ;
#206 = FACE_OUTER_BOUND ( 'NONE', #696, .T. ) ;
#207 = VERTEX_POINT ( 'NONE', #127 ) ;
#208 = EDGE_CURVE ( 'NONE', #18, #448, #211, .T. ) ;
#209 = TOROIDAL_SURFACE ( 'NONE', #489, 2.440000000000000391, 0.3600000000000002087 ) ;
#210 = DIRECTION ( 'NONE',  ( -1.000000000000000000, -0.000000000000000000, -0.000000000000000000 ) ) ;
#211 = CIRCLE ( 'NONE', #270, 0.3600000000000000977 ) ;
#212 = ORIENTED_EDGE ( 'NONE', *, *, #322, .T. ) ;
#213 = ORIENTED_EDGE ( 'NONE', *, *, #88, .F. ) ;
#214 = ADVANCED_FACE ( 'NONE', ( #524 ), #518, .T. ) ;
#215 = DIRECTION ( 'NONE',  ( 0.9945209233808908200, -0.1045377106962867980, 0.000000000000000000 ) ) ;
#216 = ORIENTED_EDGE ( 'NONE', *, *, #506, .F. ) ;
#217 = CC_DESIGN_PERSON_AND_ORGANIZATION_ASSIGNMENT ( #478, #697, ( #474 ) ) ;
#218 = DIRECTION ( 'NONE',  ( 0.9945209233808908200, -0.1045377106962867980, 0.000000000000000000 ) ) ;
#219 = DIRECTION ( 'NONE',  ( -1.000000000000000000, -0.000000000000000000, -0.000000000000000000 ) ) ;
#220 = DIRECTION ( 'NONE',  ( -1.000000000000000000, -0.000000000000000000, -0.000000000000000000 ) ) ;
#221 = CARTESIAN_POINT ( 'NONE',  ( 5.000000000000000888, -5.204748896376250896E-15, 0.000000000000000000 ) ) ;
#222 = CIRCLE ( 'NONE', #350, 1.499999999999999556 ) ;
#223 = CARTESIAN_POINT ( 'NONE',  ( 2.399999999999999467, 0.000000000000000000, 2.800000000000000266 ) ) ;
#224 = DIRECTION ( 'NONE',  ( 0.5836360481525751931, 0.8120153713427136211, 0.000000000000000000 ) ) ;
#225 = EDGE_CURVE ( 'NONE', #608, #503, #525, .T. ) ;
#226 = ORIENTED_EDGE ( 'NONE', *, *, #121, .T. ) ;
#227 = PLANE ( 'NONE',  #269 ) ;
#228 = ORIENTED_EDGE ( 'NONE', *, *, #506, .T. ) ;
#229 = FACE_OUTER_BOUND ( 'NONE', #163, .T. ) ;
#230 = CARTESIAN_POINT ( 'NONE',  ( 0.1885961384615456871, 0.3501759740821624445, 1.314446525480764905 ) ) ;
#231 = AXIS2_PLACEMENT_3D ( 'NONE', #65, #113, #2 ) ;
#232 = VERTEX_POINT ( 'NONE', #184 ) ;
#233 = ADVANCED_FACE ( 'NONE', ( #28 ), #209, .T. ) ;
#234 = CARTESIAN_POINT ( 'NONE',  ( 2.017391304347826875, -2.168404344971008868E-16, 0.1579446640316206629 ) ) ;
#235 = CYLINDRICAL_SURFACE ( 'NONE', #106, 1.499999999999999556 ) ;
#236 = ORIENTED_EDGE ( 'NONE', *, *, #185, .F. ) ;
#237 = CARTESIAN_POINT ( 'NONE',  ( 1.760000000000000009, -0.1850000000000007472, 0.1849999999999993594 ) ) ;
#238 = CC_DESIGN_DATE_AND_TIME_ASSIGNMENT ( #33, #308, ( #474 ) ) ;
#239 = PLANE ( 'NONE',  #254 ) ;
#240 = ORIENTED_EDGE ( 'NONE', *, *, #579, .T. ) ;
#241 = CARTESIAN_POINT ( 'NONE',  ( 0.02703413433136157146, -0.3671583438344859784, -0.3671583438344874772 ) ) ;
#242 = CARTESIAN_POINT ( 'NONE',  ( -25.39999999999996305, 0.000000000000000000, 0.000000000000000000 ) ) ;
#243 = ORIENTED_EDGE ( 'NONE', *, *, #356, .T. ) ;
#244 = AXIS2_PLACEMENT_3D ( 'NONE', #709, #439, #218 ) ;
#245 =( NAMED_UNIT ( * ) PLANE_ANGLE_UNIT ( ) SI_UNIT ( $, .RADIAN. ) );
#246 = DIRECTION ( 'NONE',  ( -0.1045377106962867841, -1.466730432999142523E-17, 0.9945209233808907090 ) ) ;
#247 = ADVANCED_FACE ( 'NONE', ( #349, #188 ), #239, .F. ) ;
#248 = MECHANICAL_CONTEXT ( 'NONE', #24, 'mechanical' ) ;
#249 = DIRECTION ( 'NONE',  ( 0.5836360481525751931, 0.8120153713427136211, 0.000000000000000000 ) ) ;
#250 = DATE_AND_TIME ( #260, #272 ) ;
#251 = PLANE ( 'NONE',  #590 ) ;
#252 = CC_DESIGN_APPROVAL ( #296, ( #657 ) ) ;
#253 = VECTOR ( 'NONE', #550, 1000.000000000000000 ) ;
#254 = AXIS2_PLACEMENT_3D ( 'NONE', #298, #679, #459 ) ;
#255 = COORDINATED_UNIVERSAL_TIME_OFFSET ( 10, 0, .AHEAD. ) ;
#256 = AXIS2_PLACEMENT_3D ( 'NONE', #82, #123, #408 ) ;
#257 = ADVANCED_FACE ( 'NONE', ( #628 ), #134, .T. ) ;
#258 = LINE ( 'NONE', #375, #95 ) ;
#259 = ORIENTED_EDGE ( 'NONE', *, *, #8, .F. ) ;
#260 = CALENDAR_DATE ( 2026, 22, 6 ) ;
#261 = DIRECTION ( 'NONE',  ( -1.000000000000000000, -0.000000000000000000, -0.000000000000000000 ) ) ;
#262 = EDGE_CURVE ( 'NONE', #612, #7, #683, .T. ) ;
#263 = ORIENTED_EDGE ( 'NONE', *, *, #8, .T. ) ;
#264 = APPROVAL_DATE_TIME ( #412, #296 ) ;
#265 = DIRECTION ( 'NONE',  ( -0.1045377106962865482, 0.9945209233808907090, 3.575022375383361774E-15 ) ) ;
#266 = EDGE_LOOP ( 'NONE', ( #367, #441, #186 ) ) ;
#267 = EDGE_CURVE ( 'NONE', #373, #487, #282, .T. ) ;
#268 = VERTEX_POINT ( 'NONE', #593 ) ;
#269 = AXIS2_PLACEMENT_3D ( 'NONE', #607, #11, #105 ) ;
#270 = AXIS2_PLACEMENT_3D ( 'NONE', #31, #198, #300 ) ;
#271 = DIRECTION ( 'NONE',  ( 0.8090735533885303754, 0.08504466328231898020, -0.5815216164980058222 ) ) ;
#272 = LOCAL_TIME ( 18, 50, 19.00000000000000000, #197 ) ;
#273 = ORIENTED_EDGE ( 'NONE', *, *, #484, .T. ) ;
#274 = EDGE_CURVE ( 'NONE', #9, #612, #42, .T. ) ;
#275 = CYLINDRICAL_SURFACE ( 'NONE', #348, 2.800000000000000266 ) ;
#276 = PLANE ( 'NONE',  #475 ) ;
#277 = CARTESIAN_POINT ( 'NONE',  ( 3.984030907920153464, 1.413522215067608778, 4.142010422791430711E-16 ) ) ;
#278 = DIRECTION ( 'NONE',  ( 0.8120153713427136211, 0.5836360481525751931, 0.000000000000000000 ) ) ;
#279 = DIRECTION ( 'NONE',  ( 1.000000000000000000, 0.000000000000000000, 0.000000000000000000 ) ) ;
#280 = EDGE_CURVE ( 'NONE', #585, #232, #304, .T. ) ;
#281 = CARTESIAN_POINT ( 'NONE',  ( 1.760000000000000009, -0.1849999999999999978, -0.1849999999999999978 ) ) ;
#282 = CIRCLE ( 'NONE', #512, 4.997605728503363487 ) ;
#283 = DIRECTION ( 'NONE',  ( 0.000000000000000000, 0.000000000000000000, 1.000000000000000000 ) ) ;
#284 = DIRECTION ( 'NONE',  ( -0.000000000000000000, 0.000000000000000000, -1.000000000000000000 ) ) ;
#285 = ORIENTED_EDGE ( 'NONE', *, *, #690, .F. ) ;
#286 = CARTESIAN_POINT ( 'NONE',  ( 1.760000000000000009, -0.1849999999999999978, -0.1849999999999999978 ) ) ;
#287 = CARTESIAN_POINT ( 'NONE',  ( 1.760000000000000009, 0.1850000000000006362, -0.1849999999999993594 ) ) ;
#288 = EDGE_CURVE ( 'NONE', #268, #457, #84, .T. ) ;
#289 = ORIENTED_EDGE ( 'NONE', *, *, #274, .T. ) ;
#290 = CARTESIAN_POINT ( 'NONE',  ( 4.983826363222722655, -5.188864049098793992E-15, -0.1538681120432966176 ) ) ;
#291 = VECTOR ( 'NONE', #57, 1000.000000000000227 ) ;
#292 = FACE_OUTER_BOUND ( 'NONE', #179, .T. ) ;
#293 = VECTOR ( 'NONE', #390, 1000.000000000000000 ) ;
#294 = AXIS2_PLACEMENT_3D ( 'NONE', #234, #455, #675 ) ;
#295 = ORIENTED_EDGE ( 'NONE', *, *, #494, .F. ) ;
#296 = APPROVAL ( #470, 'Coincident' ) ;
#297 = CARTESIAN_POINT ( 'NONE',  ( 0.7471507068104801252, 0.000000000000000000, 0.000000000000000000 ) ) ;
#298 = CARTESIAN_POINT ( 'NONE',  ( 2.399999999999999467, 1.499999999999999556, 0.000000000000000000 ) ) ;
#299 = ORIENTED_EDGE ( 'NONE', *, *, #579, .F. ) ;
#300 = DIRECTION ( 'NONE',  ( 0.000000000000000000, 0.000000000000000000, -1.000000000000000000 ) ) ;
#301 = ORIENTED_EDGE ( 'NONE', *, *, #662, .T. ) ;
#302 = DIRECTION ( 'NONE',  ( -1.000000000000000000, -0.000000000000000000, -0.000000000000000000 ) ) ;
#303 = EDGE_CURVE ( 'NONE', #317, #112, #146, .T. ) ;
#304 = CIRCLE ( 'NONE', #38, 2.800000000000000266 ) ;
#305 = PLANE ( 'NONE',  #71 ) ;
#306 = CARTESIAN_POINT ( 'NONE',  ( 12.40000000000000213, 0.000000000000000000, 0.000000000000000000 ) ) ;
#307 = PRODUCT_RELATED_PRODUCT_CATEGORY ( 'detail', '', ( #338 ) ) ;
#308 = DATE_TIME_ROLE ( 'classification_date' ) ;
#309 = DIRECTION ( 'NONE',  ( 0.9945209233808908200, 0.000000000000000000, 0.1045377106962867703 ) ) ;
#310 = ADVANCED_FACE ( 'NONE', ( #486 ), #429, .T. ) ;
#311 = DIRECTION ( 'NONE',  ( 0.5836360481525751931, 3.073079442843184011E-15, -0.8120153713427136211 ) ) ;
#312 = EDGE_LOOP ( 'NONE', ( #422, #466, #216 ) ) ;
#313 = APPROVAL_PERSON_ORGANIZATION ( #687, #111, #639 ) ;
#314 = VECTOR ( 'NONE', #414, 999.9999999999998863 ) ;
#315 = PERSON_AND_ORGANIZATION ( #18446744073709551615, #18446744073709551615 ) ;
#316 = LINE ( 'NONE', #99, #669 ) ;
#317 = VERTEX_POINT ( 'NONE', #582 ) ;
#318 = DIRECTION ( 'NONE',  ( -1.000000000000000000, -0.000000000000000000, -0.000000000000000000 ) ) ;
#319 = EDGE_LOOP ( 'NONE', ( #617, #537, #236, #40 ) ) ;
#320 = DIRECTION ( 'NONE',  ( -0.000000000000000000, 0.000000000000000000, -1.000000000000000000 ) ) ;
#321 = VERTEX_POINT ( 'NONE', #153 ) ;
#322 = EDGE_CURVE ( 'NONE', #597, #448, #601, .T. ) ;
#323 = APPROVAL_PERSON_ORGANIZATION ( #30, #296, #592 ) ;
#324 = AXIS2_PLACEMENT_3D ( 'NONE', #286, #62, #508 ) ;
#325 = DIRECTION ( 'NONE',  ( -1.000000000000000000, -0.000000000000000000, -0.000000000000000000 ) ) ;
#326 = DIRECTION ( 'NONE',  ( 0.8090735533885303754, 0.08504466328231480299, 0.5815216164980063773 ) ) ;
#327 = DIRECTION ( 'NONE',  ( 0.5836360481525751931, -0.8120153713427136211, -2.379429269463225834E-16 ) ) ;
#328 = DIRECTION ( 'NONE',  ( 0.000000000000000000, 1.224646799147353207E-16, -1.000000000000000000 ) ) ;
#329 = ORIENTED_EDGE ( 'NONE', *, *, #280, .T. ) ;
#330 = EDGE_CURVE ( 'NONE', #503, #668, #258, .T. ) ;
#331 = CARTESIAN_POINT ( 'NONE',  ( 0.000000000000000000, 1.449999999999999956, -0.3699999999999998845 ) ) ;
#332 = CARTESIAN_POINT ( 'NONE',  ( 4.983826363222722655, -5.188864049098793992E-15, -0.1538681120432966176 ) ) ;
#333 = ORIENTED_EDGE ( 'NONE', *, *, #280, .F. ) ;
#334 = LINE ( 'NONE', #331, #291 ) ;
#335 = VERTEX_POINT ( 'NONE', #148 ) ;
#336 = AXIS2_PLACEMENT_3D ( 'NONE', #433, #549, #215 ) ;
#337 = ORIENTED_EDGE ( 'NONE', *, *, #303, .F. ) ;
#338 = PRODUCT ( 'pan cross head_am_B18.6.7M - M3 x 0.5 x 10 Type I Cross Recessed PHMS --10N', 'pan cross head_am_B18.6.7M - M3 x 0.5 x 10 Type I Cross Recessed PHMS --10N', '', ( #248 ) ) ;
#339 = CARTESIAN_POINT ( 'NONE',  ( 0.7471507068104801252, 0.000000000000000000, 2.629310344827586743 ) ) ;
#340 = ORIENTED_EDGE ( 'NONE', *, *, #547, .T. ) ;
#341 = EDGE_CURVE ( 'NONE', #448, #268, #703, .T. ) ;
#342 = ORIENTED_EDGE ( 'NONE', *, *, #29, .T. ) ;
#343 = DIRECTION ( 'NONE',  ( 0.000000000000000000, -1.224646799147352961E-16, 1.000000000000000000 ) ) ;
#344 = DIRECTION ( 'NONE',  ( 0.5836360481525751931, -2.835136515896861872E-15, 0.8120153713427136211 ) ) ;
#345 = EDGE_CURVE ( 'NONE', #487, #7, #482, .T. ) ;
#346 = ORIENTED_EDGE ( 'NONE', *, *, #642, .T. ) ;
#347 = DIRECTION ( 'NONE',  ( -1.000000000000000000, -0.000000000000000000, -0.000000000000000000 ) ) ;
#348 = AXIS2_PLACEMENT_3D ( 'NONE', #116, #598, #104 ) ;
#349 = FACE_OUTER_BOUND ( 'NONE', #355, .T. ) ;
#350 = AXIS2_PLACEMENT_3D ( 'NONE', #306, #468, #411 ) ;
#351 = CIRCLE ( 'NONE', #514, 2.800000000000000266 ) ;
#352 = ORIENTED_EDGE ( 'NONE', *, *, #98, .F. ) ;
#353 = DIRECTION ( 'NONE',  ( -0.1045377106962867841, -0.9945209233808907090, -3.487018549403413167E-15 ) ) ;
#354 = CYLINDRICAL_SURFACE ( 'NONE', #143, 1.499999999999999556 ) ;
#355 = EDGE_LOOP ( 'NONE', ( #333, #625 ) ) ;
#356 = EDGE_CURVE ( 'NONE', #370, #612, #649, .T. ) ;
#357 = CARTESIAN_POINT ( 'NONE',  ( 4.983826363222721767, 0.1538681120432965621, 5.531124891196708444E-16 ) ) ;
#358 = DIRECTION ( 'NONE',  ( 0.8090735533885303754, -0.08504466328231913286, 0.5815216164980058222 ) ) ;
#359 = VECTOR ( 'NONE', #326, 1000.000000000000114 ) ;
#360 = AXIS2_PLACEMENT_3D ( 'NONE', #695, #265, #203 ) ;
#361 = CC_DESIGN_SECURITY_CLASSIFICATION ( #474, ( #657 ) ) ;
#362 = DATE_AND_TIME ( #636, #635 ) ;
#363 = CARTESIAN_POINT ( 'NONE',  ( 0.7471507068104801252, 0.000000000000000000, 0.000000000000000000 ) ) ;
#364 = EDGE_CURVE ( 'NONE', #391, #112, #366, .T. ) ;
#365 = APPROVAL_STATUS ( 'not_yet_approved' ) ;
#366 = LINE ( 'NONE', #646, #177 ) ;
#367 = ORIENTED_EDGE ( 'NONE', *, *, #330, .T. ) ;
#368 = CC_DESIGN_PERSON_AND_ORGANIZATION_ASSIGNMENT ( #93, #44, ( #551 ) ) ;
#369 = CARTESIAN_POINT ( 'NONE',  ( 0.7471507068104801252, 0.000000000000000000, 0.000000000000000000 ) ) ;
#370 = VERTEX_POINT ( 'NONE', #707 ) ;
#371 = CIRCLE ( 'NONE', #61, 2.800000000000000266 ) ;
#372 = DIRECTION ( 'NONE',  ( 0.000000000000000000, 0.000000000000000000, 1.000000000000000000 ) ) ;
#373 = VERTEX_POINT ( 'NONE', #158 ) ;
#374 = EDGE_CURVE ( 'NONE', #207, #621, #316, .T. ) ;
#375 = CARTESIAN_POINT ( 'NONE',  ( 0.000000000000000000, -1.449999999999999956, -0.3699999999999999956 ) ) ;
#376 = ORIENTED_EDGE ( 'NONE', *, *, #136, .F. ) ;
#377 = ORIENTED_EDGE ( 'NONE', *, *, #208, .T. ) ;
#378 = CARTESIAN_POINT ( 'NONE',  ( 0.02703413433136243882, 0.3671583438344888095, -0.3671583438344874772 ) ) ;
#379 = ORIENTED_EDGE ( 'NONE', *, *, #547, .F. ) ;
#380 = VECTOR ( 'NONE', #655, 1000.000000000000227 ) ;
#381 = CLOSED_SHELL ( 'NONE', ( #233, #527, #174, #32, #516, #632, #671, #56, #706, #152, #247, #257, #620, #454, #47, #436, #413, #386, #469, #712, #684, #310, #214 ) ) ;
#382 = VECTOR ( 'NONE', #623, 1000.000000000000114 ) ;
#383 = DIRECTION ( 'NONE',  ( 0.8120153713427136211, 0.5836360481525751931, 0.000000000000000000 ) ) ;
#384 = LOCAL_TIME ( 18, 50, 19.00000000000000000, #97 ) ;
#385 = CARTESIAN_POINT ( 'NONE',  ( 3.984030907920153464, 1.413522215067608778, 4.142010422791430711E-16 ) ) ;
#386 = ADVANCED_FACE ( 'NONE', ( #102 ), #473, .F. ) ;
#387 = FACE_OUTER_BOUND ( 'NONE', #166, .T. ) ;
#388 = DIRECTION ( 'NONE',  ( -0.8120153713427135100, 0.5836360481525750821, 0.000000000000000000 ) ) ;
#389 = FACE_OUTER_BOUND ( 'NONE', #396, .T. ) ;
#390 = DIRECTION ( 'NONE',  ( 0.000000000000000000, -1.000000000000000000, -1.465138070926356977E-16 ) ) ;
#391 = VERTEX_POINT ( 'NONE', #419 ) ;
#392 = CARTESIAN_POINT ( 'NONE',  ( 5.000000000000000888, -5.204748896376250896E-15, 0.000000000000000000 ) ) ;
#393 = AXIS2_PLACEMENT_3D ( 'NONE', #363, #202, #643 ) ;
#394 = CARTESIAN_POINT ( 'NONE',  ( 3.984030907920158793, -1.413522215067612553, 0.000000000000000000 ) ) ;
#395 = VECTOR ( 'NONE', #666, 1000.000000000000114 ) ;
#396 = EDGE_LOOP ( 'NONE', ( #560, #155, #60 ) ) ;
#397 = PRODUCT_DEFINITION_SHAPE ( 'NONE', 'NONE',  #551 ) ;
#398 = DIRECTION ( 'NONE',  ( 0.000000000000000000, 0.000000000000000000, 1.000000000000000000 ) ) ;
#399 = CARTESIAN_POINT ( 'NONE',  ( 0.1779595699219443661, -1.322091559118603543, -1.619095196054324727E-16 ) ) ;
#400 = ORIENTED_EDGE ( 'NONE', *, *, #121, .F. ) ;
#401 =( LENGTH_UNIT ( ) NAMED_UNIT ( * ) SI_UNIT ( .MILLI., .METRE. ) );
#402 = CARTESIAN_POINT ( 'NONE',  ( -25.39999999999996305, 0.000000000000000000, 0.000000000000000000 ) ) ;
#403 = ORIENTED_EDGE ( 'NONE', *, *, #88, .T. ) ;
#404 = DIRECTION ( 'NONE',  ( 1.000000000000000000, 0.000000000000000000, 0.000000000000000000 ) ) ;
#405 = DIRECTION ( 'NONE',  ( 0.9945209233808908200, 0.000000000000000000, 0.1045377106962867703 ) ) ;
#406 = VECTOR ( 'NONE', #529, 1000.000000000000114 ) ;
#407 = ORIENTED_EDGE ( 'NONE', *, *, #662, .F. ) ;
#408 = DIRECTION ( 'NONE',  ( 0.9945209233808905980, 0.000000000000000000, 0.1045377106962867703 ) ) ;
#409 = DIRECTION ( 'NONE',  ( -0.1045377106962865482, 0.9945209233808907090, 3.575022375383362563E-15 ) ) ;
#410 = ORIENTED_EDGE ( 'NONE', *, *, #185, .T. ) ;
#411 = DIRECTION ( 'NONE',  ( 0.000000000000000000, 0.000000000000000000, 1.000000000000000000 ) ) ;
#412 = DATE_AND_TIME ( #534, #693 ) ;
#413 = ADVANCED_FACE ( 'NONE', ( #691 ), #251, .F. ) ;
#414 = DIRECTION ( 'NONE',  ( 0.9891309318365547609, -0.1039711490850927372, 0.1039711490850923625 ) ) ;
#415 = CC_DESIGN_APPROVAL ( #111, ( #474 ) ) ;
#416 = VECTOR ( 'NONE', #358, 1000.000000000000114 ) ;
#417 = VECTOR ( 'NONE', #325, 1000.000000000000000 ) ;
#418 = PERSON_AND_ORGANIZATION_ROLE ( 'design_supplier' ) ;
#419 = CARTESIAN_POINT ( 'NONE',  ( 0.1885961384615435221, -1.314446525480766459, 0.3501759740821668299 ) ) ;
#420 = EDGE_CURVE ( 'NONE', #335, #18, #371, .T. ) ;
#421 = DIRECTION ( 'NONE',  ( -0.1045377106962867841, -0.9945209233808907090, -3.487018549403413167E-15 ) ) ;
#422 = ORIENTED_EDGE ( 'NONE', *, *, #205, .T. ) ;
#423 = DIRECTION ( 'NONE',  ( 0.000000000000000000, 0.000000000000000000, 1.000000000000000000 ) ) ;
#424 = DIRECTION ( 'NONE',  ( 1.000000000000000000, 0.000000000000000000, -0.000000000000000000 ) ) ;
#425 = ORIENTED_EDGE ( 'NONE', *, *, #356, .F. ) ;
#426 = EDGE_CURVE ( 'NONE', #119, #608, #154, .T. ) ;
#427 = AXIS2_PLACEMENT_3D ( 'NONE', #87, #249, #526 ) ;
#428 = DATE_AND_TIME ( #157, #384 ) ;
#429 = PLANE ( 'NONE',  #438 ) ;
#430 = ORIENTED_EDGE ( 'NONE', *, *, #642, .F. ) ;
#431 = CC_DESIGN_DATE_AND_TIME_ASSIGNMENT ( #362, #528, ( #551 ) ) ;
#432 = EDGE_LOOP ( 'NONE', ( #567, #228, #650 ) ) ;
#433 = CARTESIAN_POINT ( 'NONE',  ( 4.983826363222722655, -0.1538681120432975336, -5.394969057389590981E-16 ) ) ;
#434 = EDGE_LOOP ( 'NONE', ( #491, #654 ) ) ;
#435 = CARTESIAN_POINT ( 'NONE',  ( -25.39999999999996305, 0.000000000000000000, 2.800000000000000266 ) ) ;
#436 = ADVANCED_FACE ( 'NONE', ( #206 ), #49, .F. ) ;
#437 = CARTESIAN_POINT ( 'NONE',  ( 12.40000000000000213, 0.000000000000000000, 0.000000000000000000 ) ) ;
#438 = AXIS2_PLACEMENT_3D ( 'NONE', #584, #421, #492 ) ;
#439 = DIRECTION ( 'NONE',  ( -0.1045377106962867841, -0.9945209233808907090, -3.487018549403412773E-15 ) ) ;
#440 = AXIS2_PLACEMENT_3D ( 'NONE', #564, #10, #523 ) ;
#441 = ORIENTED_EDGE ( 'NONE', *, *, #162, .T. ) ;
#442 = DIRECTION ( 'NONE',  ( -0.000000000000000000, 0.000000000000000000, 1.000000000000000000 ) ) ;
#443 = DIRECTION ( 'NONE',  ( -1.000000000000000000, -0.000000000000000000, -0.000000000000000000 ) ) ;
#444 = DESIGN_CONTEXT ( 'detailed design', #700, 'design' ) ;
#445 = ORIENTED_EDGE ( 'NONE', *, *, #586, .F. ) ;
#446 = DIRECTION ( 'NONE',  ( 0.000000000000000000, -2.930276141852714447E-16, 1.000000000000000000 ) ) ;
#447 = LINE ( 'NONE', #452, #359 ) ;
#448 = VERTEX_POINT ( 'NONE', #339 ) ;
#449 = EDGE_CURVE ( 'NONE', #9, #573, #52, .T. ) ;
#450 = PLANE ( 'NONE',  #178 ) ;
#451 = VECTOR ( 'NONE', #688, 1000.000000000000000 ) ;
#452 = CARTESIAN_POINT ( 'NONE',  ( 0.000000000000000000, -0.3699999999999943889, -1.450000000000001288 ) ) ;
#453 = ORIENTED_EDGE ( 'NONE', *, *, #322, .F. ) ;
#454 = ADVANCED_FACE ( 'NONE', ( #387 ), #663, .T. ) ;
#455 = DIRECTION ( 'NONE',  ( -0.1045377106962865482, 1.026711303099399797E-16, -0.9945209233808907090 ) ) ;
#456 = DIRECTION ( 'NONE',  ( -0.1045377106962867841, -1.466730432999142523E-17, 0.9945209233808907090 ) ) ;
#457 = VERTEX_POINT ( 'NONE', #615 ) ;
#458 = CARTESIAN_POINT ( 'NONE',  ( 2.399999999999999467, 0.000000000000000000, 0.000000000000000000 ) ) ;
#459 = DIRECTION ( 'NONE',  ( -0.000000000000000000, 0.000000000000000000, 1.000000000000000000 ) ) ;
#460 = EDGE_CURVE ( 'NONE', #487, #571, #648, .T. ) ;
#461 = ORIENTED_EDGE ( 'NONE', *, *, #460, .T. ) ;
#462 = CARTESIAN_POINT ( 'NONE',  ( 1.053355855920124373, 2.988138189919542111E-16, -2.440000000000000391 ) ) ;
#463 = DIRECTION ( 'NONE',  ( 0.000000000000000000, 0.000000000000000000, 1.000000000000000000 ) ) ;
#464 = CIRCLE ( 'NONE', #556, 4.687191243319266398 ) ;
#465 = AXIS2_PLACEMENT_3D ( 'NONE', #242, #631, #463 ) ;
#466 = ORIENTED_EDGE ( 'NONE', *, *, #303, .T. ) ;
#467 = DIRECTION ( 'NONE',  ( -0.1045377106962865482, 1.026711303099399797E-16, -0.9945209233808907090 ) ) ;
#468 = DIRECTION ( 'NONE',  ( -1.000000000000000000, -0.000000000000000000, -0.000000000000000000 ) ) ;
#469 = ADVANCED_FACE ( 'NONE', ( #389 ), #561, .T. ) ;
#470 = APPROVAL_STATUS ( 'not_yet_approved' ) ;
#471 = DIRECTION ( 'NONE',  ( 0.8120153713427135100, 0.000000000000000000, -0.5836360481525749710 ) ) ;
#472 = CARTESIAN_POINT ( 'NONE',  ( 0.000000000000000000, 0.000000000000000000, 0.000000000000000000 ) ) ;
#473 = PLANE ( 'NONE',  #190 ) ;
#474 = SECURITY_CLASSIFICATION ( '', '', #101 ) ;
#475 = AXIS2_PLACEMENT_3D ( 'NONE', #55, #562, #388 ) ;
#476 = CIRCLE ( 'NONE', #557, 5.000000000000000888 ) ;
#477 = AXIS2_PLACEMENT_3D ( 'NONE', #472, #423, #587 ) ;
#478 = PERSON_AND_ORGANIZATION ( #18446744073709551615, #18446744073709551615 ) ;
#479 = DIRECTION ( 'NONE',  ( -1.000000000000000000, -0.000000000000000000, -0.000000000000000000 ) ) ;
#480 = EDGE_LOOP ( 'NONE', ( #329, #710, #23, #149 ) ) ;
#481 = APPROVAL_ROLE ( '' ) ;
#482 = LINE ( 'NONE', #588, #314 ) ;
#483 = ORIENTED_EDGE ( 'NONE', *, *, #449, .F. ) ;
#484 = EDGE_CURVE ( 'NONE', #585, #18, #660, .T. ) ;
#485 = APPROVAL_DATE_TIME ( #428, #624 ) ;
#486 = FACE_OUTER_BOUND ( 'NONE', #674, .T. ) ;
#487 = VERTEX_POINT ( 'NONE', #378 ) ;
#488 = CIRCLE ( 'NONE', #658, 4.997605728503363487 ) ;
#489 = AXIS2_PLACEMENT_3D ( 'NONE', #569, #20, #76 ) ;
#490 = AXIS2_PLACEMENT_3D ( 'NONE', #392, #442, #404 ) ;
#491 = ORIENTED_EDGE ( 'NONE', *, *, #494, .T. ) ;
#492 = DIRECTION ( 'NONE',  ( 0.9945209233808905980, -0.1045377106962867703, -3.649914661014674735E-16 ) ) ;
#493 = ORIENTED_EDGE ( 'NONE', *, *, #540, .T. ) ;
#494 = EDGE_CURVE ( 'NONE', #647, #621, #14, .T. ) ;
#495 = DIRECTION ( 'NONE',  ( -0.000000000000000000, 0.000000000000000000, -1.000000000000000000 ) ) ;
#496 = CARTESIAN_POINT ( 'NONE',  ( 2.399999999999999467, 0.000000000000000000, 0.000000000000000000 ) ) ;
#497 = DIRECTION ( 'NONE',  ( 0.000000000000000000, 0.000000000000000000, -1.000000000000000000 ) ) ;
#498 = CARTESIAN_POINT ( 'NONE',  ( 3.984030907920156128, -1.055423637460416533E-14, 1.413522215067610555 ) ) ;
#499 = CIRCLE ( 'NONE', #165, 1.499999999999999556 ) ;
#500 = AXIS2_PLACEMENT_3D ( 'NONE', #521, #409, #619 ) ;
#501 = LINE ( 'NONE', #558, #395 ) ;
#502 = DIRECTION ( 'NONE',  ( 0.5836360481525751931, 3.073079442843184406E-15, -0.8120153713427136211 ) ) ;
#503 = VERTEX_POINT ( 'NONE', #504 ) ;
#504 = CARTESIAN_POINT ( 'NONE',  ( 0.1885961384615435221, -1.314446525480766459, -0.3501759740821673850 ) ) ;
#505 = FACE_OUTER_BOUND ( 'NONE', #673, .T. ) ;
#506 = EDGE_CURVE ( 'NONE', #599, #112, #604, .T. ) ;
#507 = ORIENTED_EDGE ( 'NONE', *, *, #140, .F. ) ;
#508 = DIRECTION ( 'NONE',  ( 0.8120153713427135100, 0.5836360481525750821, 0.000000000000000000 ) ) ;
#509 = SPHERICAL_SURFACE ( 'NONE', #25, 5.000000000000000888 ) ;
#510 = VERTEX_POINT ( 'NONE', #161 ) ;
#511 = PLANE ( 'NONE',  #294 ) ;
#512 = AXIS2_PLACEMENT_3D ( 'NONE', #83, #246, #309 ) ;
#513 = DIRECTION ( 'NONE',  ( -0.1045377106962865482, 0.9945209233808907090, 3.575022375383361774E-15 ) ) ;
#514 = AXIS2_PLACEMENT_3D ( 'NONE', #180, #22, #398 ) ;
#515 = ORIENTED_EDGE ( 'NONE', *, *, #374, .F. ) ;
#516 = ADVANCED_FACE ( 'NONE', ( #164 ), #6, .T. ) ;
#517 = FACE_OUTER_BOUND ( 'NONE', #266, .T. ) ;
#518 = PLANE ( 'NONE',  #500 ) ;
#519 = ORIENTED_EDGE ( 'NONE', *, *, #78, .F. ) ;
#520 = CARTESIAN_POINT ( 'NONE',  ( 1.760000000000000231, 0.1849999999999999145, 0.1850000000000001088 ) ) ;
#521 = CARTESIAN_POINT ( 'NONE',  ( 2.017391304347826875, -0.1579446640316206629, -7.683012815333526710E-16 ) ) ;
#522 = ORIENTED_EDGE ( 'NONE', *, *, #345, .T. ) ;
#523 = DIRECTION ( 'NONE',  ( 0.000000000000000000, 0.000000000000000000, 1.000000000000000000 ) ) ;
#524 = FACE_OUTER_BOUND ( 'NONE', #312, .T. ) ;
#525 = CIRCLE ( 'NONE', #692, 4.997605728503363487 ) ;
#526 = DIRECTION ( 'NONE',  ( -0.8120153713427136211, 0.5836360481525750821, 0.000000000000000000 ) ) ;
#527 = ADVANCED_FACE ( 'NONE', ( #552 ), #275, .T. ) ;
#528 = DATE_TIME_ROLE ( 'creation_date' ) ;
#529 = DIRECTION ( 'NONE',  ( 0.8090735533885303754, -0.5815216164980061553, -0.08504466328231696792 ) ) ;
#530 = PERSON_AND_ORGANIZATION ( #18446744073709551615, #18446744073709551615 ) ;
#531 = CARTESIAN_POINT ( 'NONE',  ( 1.053355855920125261, 0.000000000000000000, 0.000000000000000000 ) ) ;
#532 = ORIENTED_EDGE ( 'NONE', *, *, #460, .F. ) ;
#533 = AXIS2_PLACEMENT_3D ( 'NONE', #498, #502, #656 ) ;
#534 = CALENDAR_DATE ( 2026, 22, 6 ) ;
#535 = EDGE_CURVE ( 'NONE', #373, #7, #334, .T. ) ;
#536 = CARTESIAN_POINT ( 'NONE',  ( 1.760000000000000009, -0.1849999999999999978, -0.1849999999999999978 ) ) ;
#537 = ORIENTED_EDGE ( 'NONE', *, *, #78, .T. ) ;
#538 = APPLICATION_PROTOCOL_DEFINITION ( 'international standard', 'config_control_design', 1994, #700 ) ;
#539 = CARTESIAN_POINT ( 'NONE',  ( 1.760000000000000009, 0.1850000000000006362, -0.1849999999999993594 ) ) ;
#540 = EDGE_CURVE ( 'NONE', #321, #647, #169, .T. ) ;
#541 = MANIFOLD_SOLID_BREP ( 'CirPattern1', #381 ) ;
#542 = ORIENTED_EDGE ( 'NONE', *, *, #420, .T. ) ;
#543 = ORIENTED_EDGE ( 'NONE', *, *, #129, .T. ) ;
#544 = DIRECTION ( 'NONE',  ( 0.000000000000000000, 0.000000000000000000, 1.000000000000000000 ) ) ;
#545 = ORIENTED_EDGE ( 'NONE', *, *, #129, .F. ) ;
#546 = AXIS2_PLACEMENT_3D ( 'NONE', #496, #219, #110 ) ;
#547 = EDGE_CURVE ( 'NONE', #668, #112, #59, .T. ) ;
#548 = AXIS2_PLACEMENT_3D ( 'NONE', #711, #279, #497 ) ;
#549 = DIRECTION ( 'NONE',  ( -0.1045377106962867841, -0.9945209233808907090, -3.487018549403412773E-15 ) ) ;
#550 = DIRECTION ( 'NONE',  ( 0.000000000000000000, 1.000000000000000000, 1.465138070926357470E-16 ) ) ;
#551 = PRODUCT_DEFINITION ( 'General', '', #657, #444 ) ;
#552 = FACE_OUTER_BOUND ( 'NONE', #480, .T. ) ;
#553 = LINE ( 'NONE', #172, #293 ) ;
#554 = CARTESIAN_POINT ( 'NONE',  ( -25.39999999999996305, 0.000000000000000000, 1.499999999999999556 ) ) ;
#555 = DIRECTION ( 'NONE',  ( 0.000000000000000000, 1.000000000000000000, 0.000000000000000000 ) ) ;
#556 = AXIS2_PLACEMENT_3D ( 'NONE', #385, #559, #278 ) ;
#557 = AXIS2_PLACEMENT_3D ( 'NONE', #221, #328, #3 ) ;
#558 = CARTESIAN_POINT ( 'NONE',  ( 2.033634504110526819, 0.1562372822383816251, 0.1562372822383823745 ) ) ;
#559 = DIRECTION ( 'NONE',  ( 0.5836360481525751931, -0.8120153713427136211, -2.379429269463225834E-16 ) ) ;
#560 = ORIENTED_EDGE ( 'NONE', *, *, #426, .T. ) ;
#561 = PLANE ( 'NONE',  #231 ) ;
#562 = DIRECTION ( 'NONE',  ( 0.5836360481525751931, 0.8120153713427136211, 0.000000000000000000 ) ) ;
#563 = ORIENTED_EDGE ( 'NONE', *, *, #140, .T. ) ;
#564 = CARTESIAN_POINT ( 'NONE',  ( 1.053355855920124373, 0.000000000000000000, 0.000000000000000000 ) ) ;
#565 = CARTESIAN_POINT ( 'NONE',  ( -25.39999999999996305, 3.429011037612589276E-16, -2.800000000000000266 ) ) ;
#566 = EDGE_CURVE ( 'NONE', #43, #503, #168, .T. ) ;
#567 = ORIENTED_EDGE ( 'NONE', *, *, #690, .T. ) ;
#568 = CIRCLE ( 'NONE', #73, 4.687191243319269063 ) ;
#569 = CARTESIAN_POINT ( 'NONE',  ( 1.053355855920124373, 0.000000000000000000, 0.000000000000000000 ) ) ;
#570 = AXIS2_PLACEMENT_3D ( 'NONE', #458, #347, #126 ) ;
#571 = VERTEX_POINT ( 'NONE', #171 ) ;
#572 = DIRECTION ( 'NONE',  ( 0.000000000000000000, 0.000000000000000000, 1.000000000000000000 ) ) ;
#573 = VERTEX_POINT ( 'NONE', #109 ) ;
#574 = PLANE ( 'NONE',  #256 ) ;
#575 = DIRECTION ( 'NONE',  ( 0.000000000000000000, 0.000000000000000000, -1.000000000000000000 ) ) ;
#576 = CARTESIAN_POINT ( 'NONE',  ( 1.760000000000000009, -0.1849999999999999978, -0.1849999999999999978 ) ) ;
#577 = CARTESIAN_POINT ( 'NONE',  ( -25.39999999999996305, 0.000000000000000000, 0.000000000000000000 ) ) ;
#578 = VECTOR ( 'NONE', #701, 1000.000000000000114 ) ;
#579 = EDGE_CURVE ( 'NONE', #612, #573, #501, .T. ) ;
#580 = CIRCLE ( 'NONE', #602, 4.997605728503363487 ) ;
#581 = PERSON_AND_ORGANIZATION_ROLE ( 'design_owner' ) ;
#582 = CARTESIAN_POINT ( 'NONE',  ( 0.1885961384615448266, -0.3501759740821714928, 1.314446525480762684 ) ) ;
#583 = COORDINATED_UNIVERSAL_TIME_OFFSET ( 10, 0, .AHEAD. ) ;
#584 = CARTESIAN_POINT ( 'NONE',  ( 2.017391304347826875, 0.1579446640316204964, 7.683012815333520793E-16 ) ) ;
#585 = VERTEX_POINT ( 'NONE', #223 ) ;
#586 = EDGE_CURVE ( 'NONE', #268, #510, #107, .T. ) ;
#587 = DIRECTION ( 'NONE',  ( 1.000000000000000000, 0.000000000000000000, 0.000000000000000000 ) ) ;
#588 = CARTESIAN_POINT ( 'NONE',  ( 2.033634504110526819, 0.1562372822383827076, -0.1562372822383821525 ) ) ;
#589 = ORIENTED_EDGE ( 'NONE', *, *, #156, .F. ) ;
#590 = AXIS2_PLACEMENT_3D ( 'NONE', #536, #424, #320 ) ;
#591 = CC_DESIGN_PERSON_AND_ORGANIZATION_ASSIGNMENT ( #530, #581, ( #338 ) ) ;
#592 = APPROVAL_ROLE ( '' ) ;
#593 = CARTESIAN_POINT ( 'NONE',  ( 0.7471507068104801252, 2.629310344827588075, 0.000000000000000000 ) ) ;
#594 = ORIENTED_EDGE ( 'NONE', *, *, #196, .T. ) ;
#595 = CARTESIAN_POINT ( 'NONE',  ( 2.399999999999999467, 0.000000000000000000, 0.000000000000000000 ) ) ;
#596 = EDGE_CURVE ( 'NONE', #18, #335, #351, .T. ) ;
#597 = VERTEX_POINT ( 'NONE', #75 ) ;
#598 = DIRECTION ( 'NONE',  ( -1.000000000000000000, -0.000000000000000000, -0.000000000000000000 ) ) ;
#599 = VERTEX_POINT ( 'NONE', #618 ) ;
#600 = AXIS2_PLACEMENT_3D ( 'NONE', #120, #495, #606 ) ;
#601 = CIRCLE ( 'NONE', #131, 2.629310344827586743 ) ;
#602 = AXIS2_PLACEMENT_3D ( 'NONE', #290, #467, #630 ) ;
#603 = ORIENTED_EDGE ( 'NONE', *, *, #566, .T. ) ;
#604 = LINE ( 'NONE', #653, #380 ) ;
#605 = DIRECTION ( 'NONE',  ( -0.8120153713427136211, 0.5836360481525750821, 0.000000000000000000 ) ) ;
#606 = DIRECTION ( 'NONE',  ( 0.000000000000000000, 1.000000000000000000, 0.000000000000000000 ) ) ;
#607 = CARTESIAN_POINT ( 'NONE',  ( 2.017391304347826875, -2.168404344971008868E-16, 0.1579446640316206629 ) ) ;
#608 = VERTEX_POINT ( 'NONE', #241 ) ;
#609 = EDGE_CURVE ( 'NONE', #232, #585, #12, .T. ) ;
#610 = DIRECTION ( 'NONE',  ( -1.000000000000000000, -0.000000000000000000, -0.000000000000000000 ) ) ;
#611 = LINE ( 'NONE', #565, #451 ) ;
#612 = VERTEX_POINT ( 'NONE', #520 ) ;
#613 = AXIS2_PLACEMENT_3D ( 'NONE', #357, #513, #676 ) ;
#614 = CIRCLE ( 'NONE', #613, 4.997605728503363487 ) ;
#615 = CARTESIAN_POINT ( 'NONE',  ( 0.7471507068104801252, 3.324493767685358471E-16, -2.629310344827586743 ) ) ;
#616 = DIRECTION ( 'NONE',  ( -0.9945209233808908200, 0.000000000000000000, 0.1045377106962865482 ) ) ;
#617 = ORIENTED_EDGE ( 'NONE', *, *, #67, .T. ) ;
#618 = CARTESIAN_POINT ( 'NONE',  ( 0.02703413433136157146, -0.3671583438344886985, 0.3671583438344872552 ) ) ;
#619 = DIRECTION ( 'NONE',  ( -0.9945209233808905980, -0.1045377106962865343, -3.649914661014666353E-16 ) ) ;
#620 = ADVANCED_FACE ( 'NONE', ( #681 ), #53, .T. ) ;
#621 = VERTEX_POINT ( 'NONE', #633 ) ;
#622 = ADVANCED_BREP_SHAPE_REPRESENTATION ( 'pan cross head_am_B18.6.7M - M3 x 0.5 x 10 Type I Cross Recessed PHMS --10N', ( #541, #477 ), #74 ) ;
#623 = DIRECTION ( 'NONE',  ( -0.9891309318365547609, -0.1039711490850917658, -0.1039711490850923625 ) ) ;
#624 = APPROVAL ( #36, 'Coincident' ) ;
#625 = ORIENTED_EDGE ( 'NONE', *, *, #609, .F. ) ;
#626 = CC_DESIGN_APPROVAL ( #624, ( #551 ) ) ;
#627 = DIRECTION ( 'NONE',  ( -0.000000000000000000, 1.000000000000000000, 1.224646799147353207E-16 ) ) ;
#628 = FACE_OUTER_BOUND ( 'NONE', #665, .T. ) ;
#629 = ORIENTED_EDGE ( 'NONE', *, *, #29, .F. ) ;
#630 = DIRECTION ( 'NONE',  ( -0.9945209233808908200, 0.000000000000000000, 0.1045377106962865482 ) ) ;
#631 = DIRECTION ( 'NONE',  ( -1.000000000000000000, -0.000000000000000000, -0.000000000000000000 ) ) ;
#632 = ADVANCED_FACE ( 'NONE', ( #229 ), #574, .T. ) ;
#633 = CARTESIAN_POINT ( 'NONE',  ( 2.399999999999999467, 1.836970198721029441E-16, -1.499999999999999556 ) ) ;
#634 = LINE ( 'NONE', #70, #382 ) ;
#635 = LOCAL_TIME ( 18, 50, 19.00000000000000000, #583 ) ;
#636 = CALENDAR_DATE ( 2026, 22, 6 ) ;
#637 = CARTESIAN_POINT ( 'NONE',  ( 0.000000000000000000, 0.3699999999999948330, 1.450000000000001288 ) ) ;
#638 = VECTOR ( 'NONE', #220, 1000.000000000000000 ) ;
#639 = APPROVAL_ROLE ( '' ) ;
#640 = DIRECTION ( 'NONE',  ( 0.000000000000000000, 0.000000000000000000, 1.000000000000000000 ) ) ;
#641 = ORIENTED_EDGE ( 'NONE', *, *, #341, .F. ) ;
#642 = EDGE_CURVE ( 'NONE', #335, #457, #659, .T. ) ;
#643 = DIRECTION ( 'NONE',  ( 0.000000000000000000, 0.000000000000000000, 1.000000000000000000 ) ) ;
#644 = ORIENTED_EDGE ( 'NONE', *, *, #262, .T. ) ;
#645 = COORDINATED_UNIVERSAL_TIME_OFFSET ( 10, 0, .AHEAD. ) ;
#646 = CARTESIAN_POINT ( 'NONE',  ( 0.000000000000000000, -1.449999999999999956, 0.3699999999999994404 ) ) ;
#647 = VERTEX_POINT ( 'NONE', #16 ) ;
#648 = CIRCLE ( 'NONE', #336, 4.997605728503363487 ) ;
#649 = LINE ( 'NONE', #94, #406 ) ;
#650 = ORIENTED_EDGE ( 'NONE', *, *, #364, .F. ) ;
#651 = ORIENTED_EDGE ( 'NONE', *, *, #420, .F. ) ;
#652 = CC_DESIGN_PERSON_AND_ORGANIZATION_ASSIGNMENT ( #41, #418, ( #657 ) ) ;
#653 = CARTESIAN_POINT ( 'NONE',  ( 2.033634504110526819, -0.1562372822383829019, 0.1562372822383823190 ) ) ;
#654 = ORIENTED_EDGE ( 'NONE', *, *, #98, .T. ) ;
#655 = DIRECTION ( 'NONE',  ( 0.9891309318365546499, 0.1039711490850925152, -0.1039711490850921127 ) ) ;
#656 = DIRECTION ( 'NONE',  ( -0.8120153713427136211, 0.000000000000000000, -0.5836360481525750821 ) ) ;
#657 = PRODUCT_DEFINITION_FORMATION_WITH_SPECIFIED_SOURCE ( 'Symmetric', '', #338, .NOT_KNOWN. ) ;
#658 = AXIS2_PLACEMENT_3D ( 'NONE', #332, #117, #616 ) ;
#659 = CIRCLE ( 'NONE', #39, 0.3600000000000000977 ) ;
#660 = LINE ( 'NONE', #435, #638 ) ;
#661 = CARTESIAN_POINT ( 'NONE',  ( 1.760000000000000231, -0.1850000000000007472, 0.1849999999999992761 ) ) ;
#662 = EDGE_CURVE ( 'NONE', #457, #597, #132, .T. ) ;
#663 = PLANE ( 'NONE',  #548 ) ;
#664 = FACE_OUTER_BOUND ( 'NONE', #122, .T. ) ;
#665 = EDGE_LOOP ( 'NONE', ( #376, #130, #273, #651 ) ) ;
#666 = DIRECTION ( 'NONE',  ( -0.9891309318365547609, 0.1039711490850920017, 0.1039711490850921544 ) ) ;
#667 = EDGE_LOOP ( 'NONE', ( #400, #212, #72, #125, #594, #629, #483, #96, #151, #285, #263 ) ) ;
#668 = VERTEX_POINT ( 'NONE', #576 ) ;
#669 = VECTOR ( 'NONE', #34, 1000.000000000000000 ) ;
#670 = VECTOR ( 'NONE', #446, 1000.000000000000000 ) ;
#671 = ADVANCED_FACE ( 'NONE', ( #517 ), #305, .T. ) ;
#672 = DIRECTION ( 'NONE',  ( 0.5836360481525751931, -2.835136515896861872E-15, 0.8120153713427136211 ) ) ;
#673 = EDGE_LOOP ( 'NONE', ( #189, #21, #425, #58, #213 ) ) ;
#674 = EDGE_LOOP ( 'NONE', ( #159, #299, #677 ) ) ;
#675 = DIRECTION ( 'NONE',  ( -0.9945209233808905980, 0.000000000000000000, 0.1045377106962865343 ) ) ;
#676 = DIRECTION ( 'NONE',  ( -0.9945209233808908200, -0.1045377106962865482, 0.000000000000000000 ) ) ;
#677 = ORIENTED_EDGE ( 'NONE', *, *, #274, .F. ) ;
#678 = CARTESIAN_POINT ( 'NONE',  ( 2.017391304347826875, 2.168404344971008868E-16, -0.1579446640316204964 ) ) ;
#679 = DIRECTION ( 'NONE',  ( -1.000000000000000000, 0.000000000000000000, -0.000000000000000000 ) ) ;
#680 = ORIENTED_EDGE ( 'NONE', *, *, #535, .F. ) ;
#681 = FACE_OUTER_BOUND ( 'NONE', #48, .T. ) ;
#682 = AXIS2_PLACEMENT_3D ( 'NONE', #369, #261, #640 ) ;
#683 = LINE ( 'NONE', #192, #1 ) ;
#684 = ADVANCED_FACE ( 'NONE', ( #26 ), #450, .F. ) ;
#685 = ORIENTED_EDGE ( 'NONE', *, *, #4, .T. ) ;
#686 = DIRECTION ( 'NONE',  ( 0.000000000000000000, 0.000000000000000000, 1.000000000000000000 ) ) ;
#687 = PERSON_AND_ORGANIZATION ( #18446744073709551615, #18446744073709551615 ) ;
#688 = DIRECTION ( 'NONE',  ( -1.000000000000000000, -0.000000000000000000, -0.000000000000000000 ) ) ;
#689 = PERSON_AND_ORGANIZATION ( #18446744073709551615, #18446744073709551615 ) ;
#690 = EDGE_CURVE ( 'NONE', #391, #599, #580, .T. ) ;
#691 = FACE_OUTER_BOUND ( 'NONE', #160, .T. ) ;
#692 = AXIS2_PLACEMENT_3D ( 'NONE', #17, #456, #405 ) ;
#693 = LOCAL_TIME ( 18, 50, 19.00000000000000000, #255 ) ;
#694 = CALENDAR_DATE ( 2026, 22, 6 ) ;
#695 = CARTESIAN_POINT ( 'NONE',  ( 4.983826363222721767, 0.1538681120432965621, 5.531124891196708444E-16 ) ) ;
#696 = EDGE_LOOP ( 'NONE', ( #5, #379, #699, #193, #259 ) ) ;
#697 = PERSON_AND_ORGANIZATION_ROLE ( 'classification_officer' ) ;
#698 = DIRECTION ( 'NONE',  ( 0.8090735533885303754, 0.5815216164980061553, -0.08504466328231684302 ) ) ;
#699 = ORIENTED_EDGE ( 'NONE', *, *, #330, .F. ) ;
#700 = APPLICATION_CONTEXT ( 'configuration controlled 3d designs of mechanical parts and assemblies' ) ;
#701 = DIRECTION ( 'NONE',  ( 0.8090735533885303754, -0.08504466328231506667, -0.5815216164980063773 ) ) ;
#702 = ORIENTED_EDGE ( 'NONE', *, *, #540, .F. ) ;
#703 = CIRCLE ( 'NONE', #393, 2.629310344827586743 ) ;
#704 = UNCERTAINTY_MEASURE_WITH_UNIT (LENGTH_MEASURE( 1.000000000000000082E-05 ), #401, 'distance_accuracy_value', 'NONE');
#705 = AXIS2_PLACEMENT_3D ( 'NONE', #277, #327, #383 ) ;
#706 = ADVANCED_FACE ( 'NONE', ( #187 ), #511, .T. ) ;
#707 = CARTESIAN_POINT ( 'NONE',  ( 0.1885961384615456871, 1.314446525480763128, 0.3501759740821668299 ) ) ;
#708 = ORIENTED_EDGE ( 'NONE', *, *, #374, .T. ) ;
#709 = CARTESIAN_POINT ( 'NONE',  ( 4.983826363222722655, -0.1538681120432975336, -5.394969057389590981E-16 ) ) ;
#710 = ORIENTED_EDGE ( 'NONE', *, *, #136, .T. ) ;
#711 = CARTESIAN_POINT ( 'NONE',  ( 12.40000000000000213, 1.499999999999999556, 0.000000000000000000 ) ) ;
#712 = ADVANCED_FACE ( 'NONE', ( #133 ), #79, .T. ) ;
#713 = CARTESIAN_POINT ( 'NONE',  ( 0.1885961384615448266, -0.3501759740821622224, -1.314446525480766903 ) ) ;
ENDSEC;
END-ISO-10303-21;
