ISO-10303-21;
HEADER;
FILE_DESCRIPTION (( 'STEP AP203' ),
    '1' );
FILE_NAME ('pan cross head screw_as.STEP',
    '2026-06-22T08:50:19',
    ( 'localuser' ),
    ( '' ),
    'SwSTEP 2.0',
    'SolidWorks 2025',
    '' );
FILE_SCHEMA (( 'CONFIG_CONTROL_DESIGN' ));
ENDSEC;

DATA;
#1 = AXIS2_PLACEMENT_3D ( 'NONE', #87, #3, #335 ) ;
#2 = AXIS2_PLACEMENT_3D ( 'NONE', #216, #59, #868 ) ;
#3 = DIRECTION ( 'NONE',  ( -1.000000000000000000, -0.000000000000000000, -0.000000000000000000 ) ) ;
#4 = AXIS2_PLACEMENT_3D ( 'NONE', #588, #281, #754 ) ;
#5 = CARTESIAN_POINT ( 'NONE',  ( 2.339999999999999858, -0.4729999999999967009, -0.9833192322609863867 ) ) ;
#6 = CARTESIAN_POINT ( 'NONE',  ( 3.100000000000000089, 0.000000000000000000, 0.000000000000000000 ) ) ;
#7 = ORIENTED_EDGE ( 'NONE', *, *, #361, .T. ) ;
#8 = EDGE_CURVE ( 'NONE', #657, #732, #533, .T. ) ;
#9 = CARTESIAN_POINT ( 'NONE',  ( 0.000000000000000000, 0.4729999999999920934, 2.150000000000001688 ) ) ;
#10 = LINE ( 'NONE', #422, #432 ) ;
#11 = CARTESIAN_POINT ( 'NONE',  ( 2.624945235421144663, 0.000000000000000000, 5.277974490135478117E-17 ) ) ;
#12 = VERTEX_POINT ( 'NONE', #233 ) ;
#13 = ADVANCED_FACE ( 'NONE', ( #556 ), #1037, .F. ) ;
#14 = DATE_AND_TIME ( #101, #518 ) ;
#15 = ADVANCED_FACE ( 'NONE', ( #147 ), #799, .T. ) ;
#16 = DIRECTION ( 'NONE',  ( -1.000000000000000000, -0.000000000000000000, -0.000000000000000000 ) ) ;
#17 = CARTESIAN_POINT ( 'NONE',  ( 2.339999999999999858, 0.9833192322604999980, -0.4729999999999994764 ) ) ;
#18 = EDGE_LOOP ( 'NONE', ( #774, #760, #238, #662 ) ) ;
#19 = AXIS2_PLACEMENT_3D ( 'NONE', #725, #888, #341 ) ;
#20 = ORIENTED_EDGE ( 'NONE', *, *, #850, .F. ) ;
#21 = LINE ( 'NONE', #1008, #516 ) ;
#22 = CIRCLE ( 'NONE', #469, 2.000000000000000000 ) ;
#23 = AXIS2_PLACEMENT_3D ( 'NONE', #381, #374, #62 ) ;
#24 = FACE_OUTER_BOUND ( 'NONE', #710, .T. ) ;
#25 = VERTEX_POINT ( 'NONE', #69 ) ;
#26 = DATE_TIME_ROLE ( 'classification_date' ) ;
#27 = CARTESIAN_POINT ( 'NONE',  ( 2.339999999999999858, -0.4730000000000028626, 0.7384778879272859697 ) ) ;
#28 = EDGE_CURVE ( 'NONE', #907, #517, #37, .T. ) ;
#29 = DIRECTION ( 'NONE',  ( -1.091896089901488595E-16, -1.000000000000000000, -3.617551358899587488E-15 ) ) ;
#30 = ORIENTED_EDGE ( 'NONE', *, *, #451, .T. ) ;
#31 = PERSON_AND_ORGANIZATION ( #18446744073709551615, #18446744073709551615 ) ;
#32 = CARTESIAN_POINT ( 'NONE',  ( 2.339999999999999858, 0.9833192322604999980, 0.4730000000000001981 ) ) ;
#33 = DIRECTION ( 'NONE',  ( 1.224775218828482517E-16, 1.260700200564540091E-16, -1.000000000000000000 ) ) ;
#34 = ORIENTED_EDGE ( 'NONE', *, *, #123, .T. ) ;
#35 = ORIENTED_EDGE ( 'NONE', *, *, #245, .T. ) ;
#36 = DIRECTION ( 'NONE',  ( 1.000000000000000000, 0.000000000000000000, 0.000000000000000000 ) ) ;
#37 = CIRCLE ( 'NONE', #827, 6.426280380454245211 ) ;
#38 = FACE_OUTER_BOUND ( 'NONE', #1042, .T. ) ;
#39 = CIRCLE ( 'NONE', #776, 6.426280380454415742 ) ;
#40 = VERTEX_POINT ( 'NONE', #393 ) ;
#41 = EDGE_CURVE ( 'NONE', #411, #82, #70, .T. ) ;
#42 = DIRECTION ( 'NONE',  ( 0.000000000000000000, -1.000000000000000000, -1.254327974631456148E-16 ) ) ;
#43 = CARTESIAN_POINT ( 'NONE',  ( 2.339999999999999858, -0.9833192322609841662, -0.4729999999999995874 ) ) ;
#44 = ORIENTED_EDGE ( 'NONE', *, *, #355, .T. ) ;
#45 = CARTESIAN_POINT ( 'NONE',  ( 0.4983245163632165631, 0.4730000000000030291, -0.8876225610985591929 ) ) ;
#46 = EDGE_CURVE ( 'NONE', #972, #437, #795, .T. ) ;
#47 = DIRECTION ( 'NONE',  ( 0.000000000000000000, 1.000000000000000000, 1.254327974631456148E-16 ) ) ;
#48 = DIRECTION ( 'NONE',  ( 0.000000000000000000, -3.546611053431997020E-15, 1.000000000000000000 ) ) ;
#49 = CARTESIAN_POINT ( 'NONE',  ( 0.08289921396186558655, -0.9203741097123250281, -0.4729999999999999205 ) ) ;
#50 = CIRCLE ( 'NONE', #151, 0.8769712600522026058 ) ;
#51 = DIRECTION ( 'NONE',  ( -0.8949343913984054710, 0.000000000000000000, 0.4461977533475101065 ) ) ;
#52 = CC_DESIGN_APPROVAL ( #840, ( #499 ) ) ;
#53 = CARTESIAN_POINT ( 'NONE',  ( 6.500000000000000000, 0.4729999999999991434, 1.711101792759501918E-15 ) ) ;
#54 = CIRCLE ( 'NONE', #4, 0.8769712600522026058 ) ;
#55 = CONICAL_SURFACE ( 'NONE', #23, 0.8769712600522026058, 0.06981317007976589606 ) ;
#56 = ORIENTED_EDGE ( 'NONE', *, *, #688, .F. ) ;
#57 = DIRECTION ( 'NONE',  ( -1.000000000000000000, -0.000000000000000000, -0.000000000000000000 ) ) ;
#58 = CARTESIAN_POINT ( 'NONE',  ( 2.339999999999999858, 0.7384778879272877461, 0.4730000000000001981 ) ) ;
#59 = DIRECTION ( 'NONE',  ( 1.224775218828482517E-16, 1.000000000000000000, 3.617551358899587488E-15 ) ) ;
#60 = ORIENTED_EDGE ( 'NONE', *, *, #644, .T. ) ;
#61 = DESIGN_CONTEXT ( 'detailed design', #246, 'design' ) ;
#62 = DIRECTION ( 'NONE',  ( 0.000000000000000000, 0.000000000000000000, 1.000000000000000000 ) ) ;
#63 = CARTESIAN_POINT ( 'NONE',  ( 0.3289325286808990612, 0.4730000000000073590, -1.986000318335140236 ) ) ;
#64 = DIRECTION ( 'NONE',  ( -1.000000000000000000, -0.000000000000000000, -0.000000000000000000 ) ) ;
#65 = ORIENTED_EDGE ( 'NONE', *, *, #110, .F. ) ;
#66 = EDGE_CURVE ( 'NONE', #411, #657, #242, .T. ) ;
#67 = DIRECTION ( 'NONE',  ( 0.000000000000000000, 0.000000000000000000, 1.000000000000000000 ) ) ;
#68 = DIRECTION ( 'NONE',  ( -0.8949343913984794119, -0.4461977533473620028, 0.000000000000000000 ) ) ;
#69 = CARTESIAN_POINT ( 'NONE',  ( 0.3289325286808999493, -1.986000318335142012, 0.4729999999999997540 ) ) ;
#70 = CIRCLE ( 'NONE', #209, 0.3500000000000000333 ) ;
#71 = VERTEX_POINT ( 'NONE', #947 ) ;
#72 = VECTOR ( 'NONE', #834, 1000.000000000000114 ) ;
#73 = CIRCLE ( 'NONE', #380, 1.034803122255024244 ) ;
#74 = CARTESIAN_POINT ( 'NONE',  ( 2.339999999999999858, -0.4730000000000036398, 0.9833192322604982216 ) ) ;
#75 = DIRECTION ( 'NONE',  ( 0.000000000000000000, 1.000000000000000000, 0.000000000000000000 ) ) ;
#76 = CARTESIAN_POINT ( 'NONE',  ( 2.339999999999999858, 0.4730000000000029736, -0.9833192322609823899 ) ) ;
#77 = ORIENTED_EDGE ( 'NONE', *, *, #543, .T. ) ;
#78 = CARTESIAN_POINT ( 'NONE',  ( 2.339999999999999858, -0.4730000000000028626, 0.7384778879272859697 ) ) ;
#79 = CARTESIAN_POINT ( 'NONE',  ( 3.100000000000000089, 0.000000000000000000, 2.350000000000000089 ) ) ;
#80 = EDGE_CURVE ( 'NONE', #952, #86, #975, .T. ) ;
#81 = FACE_OUTER_BOUND ( 'NONE', #419, .T. ) ;
#82 = VERTEX_POINT ( 'NONE', #129 ) ;
#83 = DIRECTION ( 'NONE',  ( 0.000000000000000000, 0.000000000000000000, 1.000000000000000000 ) ) ;
#84 = DIRECTION ( 'NONE',  ( -1.000000000000000000, -0.000000000000000000, -0.000000000000000000 ) ) ;
#85 = CARTESIAN_POINT ( 'NONE',  ( 2.339999999999999858, 0.000000000000000000, 0.000000000000000000 ) ) ;
#86 = VERTEX_POINT ( 'NONE', #787 ) ;
#87 = CARTESIAN_POINT ( 'NONE',  ( 2.339999999999999858, 0.000000000000000000, 0.000000000000000000 ) ) ;
#88 = AXIS2_PLACEMENT_3D ( 'NONE', #6, #656, #500 ) ;
#89 = DIRECTION ( 'NONE',  ( 0.000000000000000000, 0.000000000000000000, 1.000000000000000000 ) ) ;
#90 = DIRECTION ( 'NONE',  ( 0.000000000000000000, -1.000000000000000000, -5.512971458886362801E-17 ) ) ;
#91 = ORIENTED_EDGE ( 'NONE', *, *, #1031, .F. ) ;
#92 = CALENDAR_DATE ( 2026, 22, 6 ) ;
#93 = CARTESIAN_POINT ( 'NONE',  ( 0.08289921396193491998, -0.4729999999999966454, -0.9203741097126197923 ) ) ;
#94 = PLANE ( 'NONE',  #173 ) ;
#95 = ORIENTED_EDGE ( 'NONE', *, *, #775, .T. ) ;
#96 = EDGE_CURVE ( 'NONE', #144, #722, #597, .T. ) ;
#97 = CARTESIAN_POINT ( 'NONE',  ( 0.2906153877829637522, -0.4730000000000032512, 0.9040433127310190109 ) ) ;
#98 = CARTESIAN_POINT ( 'NONE',  ( 0.000000000000000000, 0.4730000000000075810, -2.149999999999998135 ) ) ;
#99 = ORIENTED_EDGE ( 'NONE', *, *, #1063, .T. ) ;
#100 = VECTOR ( 'NONE', #323, 1000.000000000000000 ) ;
#101 = CALENDAR_DATE ( 2026, 22, 6 ) ;
#102 = PRODUCT_DEFINITION ( 'General', '', #135, #61 ) ;
#103 = DIRECTION ( 'NONE',  ( 0.000000000000000000, 1.224646799147353207E-16, -1.000000000000000000 ) ) ;
#104 = CIRCLE ( 'NONE', #385, 6.482767233211447433 ) ;
#105 = AXIS2_PLACEMENT_3D ( 'NONE', #413, #812, #75 ) ;
#106 = DIRECTION ( 'NONE',  ( 1.224775218828482517E-16, 1.260700200564540091E-16, -1.000000000000000000 ) ) ;
#107 = EDGE_LOOP ( 'NONE', ( #796, #831, #1027, #580 ) ) ;
#108 = PERSON_AND_ORGANIZATION ( #18446744073709551615, #18446744073709551615 ) ;
#109 = CARTESIAN_POINT ( 'NONE',  ( 2.216368159026881557, -0.4729999999999975335, -0.7487443765454430133 ) ) ;
#110 = EDGE_CURVE ( 'NONE', #958, #553, #1041, .T. ) ;
#111 = DIRECTION ( 'NONE',  ( -0.4461977533475102176, 3.124646727056469857E-15, -0.8949343913984055821 ) ) ;
#112 = VERTEX_POINT ( 'NONE', #320 ) ;
#113 = APPROVAL_ROLE ( '' ) ;
#114 = DIRECTION ( 'NONE',  ( 1.000000000000000000, 0.000000000000000000, 0.000000000000000000 ) ) ;
#115 = PLANE ( 'NONE',  #260 ) ;
#116 = ADVANCED_FACE ( 'NONE', ( #912 ), #94, .T. ) ;
#117 = ORIENTED_EDGE ( 'NONE', *, *, #816, .T. ) ;
#118 = CARTESIAN_POINT ( 'NONE',  ( 3.449999999999999734, 0.000000000000000000, 0.000000000000000000 ) ) ;
#119 =( GEOMETRIC_REPRESENTATION_CONTEXT ( 3 ) GLOBAL_UNCERTAINTY_ASSIGNED_CONTEXT ( ( #1049 ) ) GLOBAL_UNIT_ASSIGNED_CONTEXT ( ( #646, #630, #976 ) ) REPRESENTATION_CONTEXT ( 'NONE', 'WORKASPACE' ) );
#120 = DIRECTION ( 'NONE',  ( -0.000000000000000000, 0.000000000000000000, 1.000000000000000000 ) ) ;
#121 = AXIS2_PLACEMENT_3D ( 'NONE', #364, #583, #1003 ) ;
#122 = ORIENTED_EDGE ( 'NONE', *, *, #1031, .T. ) ;
#123 = EDGE_CURVE ( 'NONE', #40, #682, #639, .T. ) ;
#124 = FACE_OUTER_BOUND ( 'NONE', #634, .T. ) ;
#125 = CARTESIAN_POINT ( 'NONE',  ( 2.339999999999999858, -0.7384778879272877461, 0.4730000000000001426 ) ) ;
#126 = DIRECTION ( 'NONE',  ( 0.000000000000000000, -1.224646799147353454E-16, 1.000000000000000000 ) ) ;
#127 = DIRECTION ( 'NONE',  ( 0.000000000000000000, 0.000000000000000000, 1.000000000000000000 ) ) ;
#128 = DIRECTION ( 'NONE',  ( -1.000000000000000000, -0.000000000000000000, -0.000000000000000000 ) ) ;
#129 = CARTESIAN_POINT ( 'NONE',  ( 3.449999999999999734, 2.449293598294706414E-16, -2.000000000000000000 ) ) ;
#130 = EDGE_LOOP ( 'NONE', ( #506, #673, #274, #1011 ) ) ;
#131 = CARTESIAN_POINT ( 'NONE',  ( 0.2906153877829637522, -0.9040433127310208983, -0.4729999999999999760 ) ) ;
#132 = EDGE_CURVE ( 'NONE', #907, #958, #325, .T. ) ;
#133 = VECTOR ( 'NONE', #729, 1000.000000000000000 ) ;
#134 = CARTESIAN_POINT ( 'NONE',  ( 2.339999999999999858, 0.4729999999999960347, 0.9833192322605016633 ) ) ;
#135 = PRODUCT_DEFINITION_FORMATION_WITH_SPECIFIED_SOURCE ( 'Symmetric', '', #176, .NOT_KNOWN. ) ;
#136 = CARTESIAN_POINT ( 'NONE',  ( 3.449999999999999734, 2.877919977996279827E-16, -2.350000000000000089 ) ) ;
#137 = CIRCLE ( 'NONE', #155, 2.000000000000000000 ) ;
#138 = ORIENTED_EDGE ( 'NONE', *, *, #199, .T. ) ;
#139 = B_SPLINE_CURVE_WITH_KNOTS ( 'NONE', 3,
 ( #615, #689, #791, #459, #954, #131, #49 ),
 .UNSPECIFIED., .F., .F.,
 ( 4, 3, 4 ),
 ( 2.006880482178923358E-07, 0.001639548481769340788, 0.002264619246942384777 ),
 .UNSPECIFIED. ) ;
#140 = DIRECTION ( 'NONE',  ( -1.000000000000000000, -0.000000000000000000, -0.000000000000000000 ) ) ;
#141 = LINE ( 'NONE', #386, #187 ) ;
#142 = EDGE_CURVE ( 'NONE', #653, #806, #996, .T. ) ;
#143 = ORIENTED_EDGE ( 'NONE', *, *, #319, .T. ) ;
#144 = VERTEX_POINT ( 'NONE', #165 ) ;
#145 = DIRECTION ( 'NONE',  ( -1.000000000000000000, -0.000000000000000000, -0.000000000000000000 ) ) ;
#146 = DIRECTION ( 'NONE',  ( 0.000000000000000000, 0.000000000000000000, 1.000000000000000000 ) ) ;
#147 = FACE_OUTER_BOUND ( 'NONE', #277, .T. ) ;
#148 = ORIENTED_EDGE ( 'NONE', *, *, #1063, .F. ) ;
#149 = CARTESIAN_POINT ( 'NONE',  ( 2.339999999999999858, 0.4729999999999968674, 0.7384778879272948515 ) ) ;
#150 = CARTESIAN_POINT ( 'NONE',  ( 2.092731178364393152, 0.4729999999999968674, 0.7589491173675387836 ) ) ;
#151 = AXIS2_PLACEMENT_3D ( 'NONE', #1035, #935, #544 ) ;
#152 = DIRECTION ( 'NONE',  ( 0.8949343913984054710, -0.4461977533475101620, 0.000000000000000000 ) ) ;
#153 = APPROVAL_PERSON_ORGANIZATION ( #197, #840, #525 ) ;
#154 = ORIENTED_EDGE ( 'NONE', *, *, #96, .T. ) ;
#155 = AXIS2_PLACEMENT_3D ( 'NONE', #495, #822, #737 ) ;
#156 = VECTOR ( 'NONE', #655, 1000.000000000000114 ) ;
#157 = EDGE_CURVE ( 'NONE', #517, #251, #929, .T. ) ;
#158 = CARTESIAN_POINT ( 'NONE',  ( 2.339999999999999858, 0.000000000000000000, 0.000000000000000000 ) ) ;
#159 = DIRECTION ( 'NONE',  ( 0.000000000000000000, 0.000000000000000000, 1.000000000000000000 ) ) ;
#160 = DIRECTION ( 'NONE',  ( -0.8949343913984794119, 1.557891129246045353E-15, -0.4461977533473618918 ) ) ;
#161 = ORIENTED_EDGE ( 'NONE', *, *, #905, .T. ) ;
#162 = SPHERICAL_SURFACE ( 'NONE', #908, 6.500000000000000000 ) ;
#163 = ADVANCED_FACE ( 'NONE', ( #742 ), #1033, .F. ) ;
#164 = CARTESIAN_POINT ( 'NONE',  ( 3.100000000000000089, 4.898587196589412829E-16, -4.000000000000000000 ) ) ;
#165 = CARTESIAN_POINT ( 'NONE',  ( 0.3289325286808817417, 0.4729999999999929261, 1.986000318335083836 ) ) ;
#166 = ORIENTED_EDGE ( 'NONE', *, *, #96, .F. ) ;
#167 = LINE ( 'NONE', #802, #133 ) ;
#168 = EDGE_CURVE ( 'NONE', #660, #771, #1048, .T. ) ;
#169 = DIRECTION ( 'NONE',  ( 0.000000000000000000, 1.000000000000000000, 3.949917775412057258E-15 ) ) ;
#170 = LINE ( 'NONE', #504, #72 ) ;
#171 = ORIENTED_EDGE ( 'NONE', *, *, #726, .F. ) ;
#172 = APPROVAL_ROLE ( '' ) ;
#173 = AXIS2_PLACEMENT_3D ( 'NONE', #1062, #417, #160 ) ;
#174 = FACE_OUTER_BOUND ( 'NONE', #291, .T. ) ;
#175 = DIRECTION ( 'NONE',  ( 0.000000000000000000, 0.000000000000000000, 1.000000000000000000 ) ) ;
#176 = PRODUCT ( 'pan cross head screw_as_AS-NZS 1427 PC- M4 x 10-N', 'pan cross head screw_as_AS-NZS 1427 PC- M4 x 10-N', '', ( #358 ) ) ;
#177 = ADVANCED_FACE ( 'NONE', ( #491 ), #967, .T. ) ;
#178 = ORIENTED_EDGE ( 'NONE', *, *, #66, .F. ) ;
#179 = CARTESIAN_POINT ( 'NONE',  ( 0.3289325286808990612, -1.986000318335142012, -0.4730000000000004201 ) ) ;
#180 = DIRECTION ( 'NONE',  ( -1.091896089901488595E-16, -1.260700200564539845E-16, 1.000000000000000000 ) ) ;
#181 = ORIENTED_EDGE ( 'NONE', *, *, #123, .F. ) ;
#182 = DATE_AND_TIME ( #749, #717 ) ;
#183 = CARTESIAN_POINT ( 'NONE',  ( 6.500000000000000000, -0.4730000000000007532, -1.711101792759507637E-15 ) ) ;
#184 = FACE_OUTER_BOUND ( 'NONE', #441, .T. ) ;
#185 = ORIENTED_EDGE ( 'NONE', *, *, #41, .T. ) ;
#186 = EDGE_CURVE ( 'NONE', #953, #938, #170, .T. ) ;
#187 = VECTOR ( 'NONE', #714, 1000.000000000000227 ) ;
#188 = AXIS2_PLACEMENT_3D ( 'NONE', #221, #618, #475 ) ;
#189 = ADVANCED_FACE ( 'NONE', ( #410 ), #559, .T. ) ;
#190 = ORIENTED_EDGE ( 'NONE', *, *, #245, .F. ) ;
#191 = DIRECTION ( 'NONE',  ( -1.000000000000000000, -0.000000000000000000, -0.000000000000000000 ) ) ;
#192 = AXIS2_PLACEMENT_3D ( 'NONE', #602, #855, #456 ) ;
#193 = CIRCLE ( 'NONE', #1050, 6.426280380454415742 ) ;
#194 = FACE_BOUND ( 'NONE', #546, .T. ) ;
#195 = B_SPLINE_CURVE_WITH_KNOTS ( 'NONE', 3,
 ( #58, #633, #474, #232, #392, #778, #545 ),
 .UNSPECIFIED., .F., .F.,
 ( 4, 3, 4 ),
 ( 2.006880482178923358E-07, 0.001639548481769340788, 0.002264619246942384777 ),
 .UNSPECIFIED. ) ;
#196 = VERTEX_POINT ( 'NONE', #76 ) ;
#197 = PERSON_AND_ORGANIZATION ( #18446744073709551615, #18446744073709551615 ) ;
#198 = FACE_OUTER_BOUND ( 'NONE', #756, .T. ) ;
#199 = EDGE_CURVE ( 'NONE', #766, #938, #1058, .T. ) ;
#200 = DIRECTION ( 'NONE',  ( -0.000000000000000000, 1.000000000000000000, 5.512971458886362801E-17 ) ) ;
#201 = VERTEX_POINT ( 'NONE', #971 ) ;
#202 = DIRECTION ( 'NONE',  ( 0.8949343913984794119, 0.000000000000000000, 0.4461977533473618363 ) ) ;
#203 = ADVANCED_FACE ( 'NONE', ( #81 ), #414, .T. ) ;
#204 = PLANE ( 'NONE',  #893 ) ;
#205 = EDGE_CURVE ( 'NONE', #71, #12, #666, .T. ) ;
#206 = EDGE_LOOP ( 'NONE', ( #1019, #34, #560, #819, #1064, #122, #255 ) ) ;
#207 = CARTESIAN_POINT ( 'NONE',  ( 6.064432258796357722, -3.450703000875407324E-15, 0.8736138818776876258 ) ) ;
#208 = APPROVAL_PERSON_ORGANIZATION ( #108, #805, #113 ) ;
#209 = AXIS2_PLACEMENT_3D ( 'NONE', #136, #537, #126 ) ;
#210 = CIRCLE ( 'NONE', #860, 3.999999999999999112 ) ;
#211 = DIRECTION ( 'NONE',  ( 1.000000000000000000, 0.000000000000000000, 0.000000000000000000 ) ) ;
#212 = VECTOR ( 'NONE', #1039, 1000.000000000000000 ) ;
#213 = DIRECTION ( 'NONE',  ( -0.4461977533475101620, -0.8949343913984054710, -0.000000000000000000 ) ) ;
#214 = DIRECTION ( 'NONE',  ( 1.000000000000000000, 0.000000000000000000, 0.000000000000000000 ) ) ;
#215 = DIRECTION ( 'NONE',  ( 0.000000000000000000, -3.617551358899587488E-15, 1.000000000000000000 ) ) ;
#216 = CARTESIAN_POINT ( 'NONE',  ( 6.500000000000000000, -0.4730000000000007532, -1.711101792759507637E-15 ) ) ;
#217 = EDGE_CURVE ( 'NONE', #657, #411, #295, .T. ) ;
#218 = ORIENTED_EDGE ( 'NONE', *, *, #324, .T. ) ;
#219 = DIRECTION ( 'NONE',  ( 0.000000000000000000, 0.000000000000000000, 1.000000000000000000 ) ) ;
#220 = CARTESIAN_POINT ( 'NONE',  ( 2.339999999999999858, 0.7384778879272881902, -0.4729999999999994764 ) ) ;
#221 = CARTESIAN_POINT ( 'NONE',  ( 3.449999999999999734, 0.000000000000000000, 2.350000000000000089 ) ) ;
#222 = VERTEX_POINT ( 'NONE', #337 ) ;
#223 = DIRECTION ( 'NONE',  ( 0.000000000000000000, 3.617551358899587488E-15, -1.000000000000000000 ) ) ;
#224 = EDGE_CURVE ( 'NONE', #635, #1038, #137, .T. ) ;
#225 = AXIS2_PLACEMENT_3D ( 'NONE', #327, #724, #239 ) ;
#226 = CARTESIAN_POINT ( 'NONE',  ( 1.376524617020200569, 0.000000000000000000, 0.000000000000000000 ) ) ;
#227 = ORIENTED_EDGE ( 'NONE', *, *, #644, .F. ) ;
#228 = VECTOR ( 'NONE', #873, 1000.000000000000000 ) ;
#229 = ORIENTED_EDGE ( 'NONE', *, *, #28, .T. ) ;
#230 = DIRECTION ( 'NONE',  ( -1.000000000000000000, -0.000000000000000000, -0.000000000000000000 ) ) ;
#231 = EDGE_CURVE ( 'NONE', #480, #547, #632, .T. ) ;
#232 = CARTESIAN_POINT ( 'NONE',  ( 0.7060251830773421888, 0.8710957089055526570, 0.4730000000000001426 ) ) ;
#233 = CARTESIAN_POINT ( 'NONE',  ( 2.339999999999999858, -0.7384778879272877461, 0.4730000000000001426 ) ) ;
#234 = ORIENTED_EDGE ( 'NONE', *, *, #8, .F. ) ;
#235 = LINE ( 'NONE', #498, #156 ) ;
#236 = DIRECTION ( 'NONE',  ( -0.3090169943749415671, 0.000000000000000000, 0.9510565162951554186 ) ) ;
#237 = ADVANCED_FACE ( 'NONE', ( #24 ), #204, .T. ) ;
#238 = ORIENTED_EDGE ( 'NONE', *, *, #688, .T. ) ;
#239 = DIRECTION ( 'NONE',  ( 0.000000000000000000, 0.000000000000000000, -1.000000000000000000 ) ) ;
#240 = LINE ( 'NONE', #484, #100 ) ;
#241 = DIRECTION ( 'NONE',  ( -1.000000000000000000, -0.000000000000000000, -0.000000000000000000 ) ) ;
#242 = CIRCLE ( 'NONE', #383, 2.350000000000000089 ) ;
#243 = ORIENTED_EDGE ( 'NONE', *, *, #744, .F. ) ;
#244 = VECTOR ( 'NONE', #90, 1000.000000000000000 ) ;
#245 = EDGE_CURVE ( 'NONE', #511, #779, #210, .T. ) ;
#246 = APPLICATION_CONTEXT ( 'configuration controlled 3d designs of mechanical parts and assemblies' ) ;
#247 = AXIS2_PLACEMENT_3D ( 'NONE', #305, #1028, #42 ) ;
#248 = B_SPLINE_CURVE_WITH_KNOTS ( 'NONE', 3,
 ( #798, #961, #946, #464, #554, #703, #220 ),
 .UNSPECIFIED., .F., .F.,
 ( 4, 3, 4 ),
 ( 4.876257178739561426E-05, 0.001941009580115715064, 0.002313181066450478458 ),
 .UNSPECIFIED. ) ;
#249 = CARTESIAN_POINT ( 'NONE',  ( 1.969089724819174103, 0.4729999999999968674, 0.7690991841739429624 ) ) ;
#250 = CARTESIAN_POINT ( 'NONE',  ( 3.100000000000000089, 0.000000000000000000, 0.000000000000000000 ) ) ;
#251 = VERTEX_POINT ( 'NONE', #365 ) ;
#252 = CARTESIAN_POINT ( 'NONE',  ( 0.08289921396193511427, -0.4730000000000033067, 0.9203741097126164616 ) ) ;
#253 = CARTESIAN_POINT ( 'NONE',  ( 2.216368159026882001, 0.4729999999999969229, 0.7487443765454434574 ) ) ;
#254 = DIRECTION ( 'NONE',  ( 1.224775218828482517E-16, 1.000000000000000000, 3.617551358899587488E-15 ) ) ;
#255 = ORIENTED_EDGE ( 'NONE', *, *, #690, .T. ) ;
#256 = DIRECTION ( 'NONE',  ( -1.000000000000000000, -0.000000000000000000, -0.000000000000000000 ) ) ;
#257 = EDGE_CURVE ( 'NONE', #994, #398, #846, .T. ) ;
#258 = CARTESIAN_POINT ( 'NONE',  ( 6.064432258795712016, -0.8736138818786205462, 0.000000000000000000 ) ) ;
#259 = ORIENTED_EDGE ( 'NONE', *, *, #619, .T. ) ;
#260 = AXIS2_PLACEMENT_3D ( 'NONE', #851, #111, #440 ) ;
#261 = CIRCLE ( 'NONE', #862, 6.500000000000000000 ) ;
#262 = ORIENTED_EDGE ( 'NONE', *, *, #80, .F. ) ;
#263 = DIRECTION ( 'NONE',  ( 0.8949343913984054710, 1.557891129246563043E-15, -0.4461977533475101620 ) ) ;
#264 = ADVANCED_FACE ( 'NONE', ( #38 ), #360, .T. ) ;
#265 = LINE ( 'NONE', #593, #911 ) ;
#266 = ORIENTED_EDGE ( 'NONE', *, *, #408, .F. ) ;
#267 = APPROVAL_STATUS ( 'not_yet_approved' ) ;
#268 = ORIENTED_EDGE ( 'NONE', *, *, #711, .F. ) ;
#269 = CARTESIAN_POINT ( 'NONE',  ( 2.339999999999999858, 0.000000000000000000, 0.8769712600522027168 ) ) ;
#270 = DIRECTION ( 'NONE',  ( 0.8949343913984794119, -1.765218012020879491E-15, 0.4461977533473618918 ) ) ;
#271 = ORIENTED_EDGE ( 'NONE', *, *, #988, .F. ) ;
#272 = EDGE_CURVE ( 'NONE', #302, #71, #681, .T. ) ;
#273 = CARTESIAN_POINT ( 'NONE',  ( 0.000000000000000000, 0.000000000000000000, 0.000000000000000000 ) ) ;
#274 = ORIENTED_EDGE ( 'NONE', *, *, #762, .T. ) ;
#275 = DIRECTION ( 'NONE',  ( 0.000000000000000000, 0.000000000000000000, -1.000000000000000000 ) ) ;
#276 = DIRECTION ( 'NONE',  ( -1.000000000000000000, 0.000000000000000000, -0.000000000000000000 ) ) ;
#277 = EDGE_LOOP ( 'NONE', ( #532, #326, #728, #488, #227 ) ) ;
#278 = APPLICATION_PROTOCOL_DEFINITION ( 'international standard', 'config_control_design', 1994, #246 ) ;
#279 = CARTESIAN_POINT ( 'NONE',  ( 0.000000000000000000, 0.000000000000000000, 0.000000000000000000 ) ) ;
#280 = AXIS2_PLACEMENT_3D ( 'NONE', #460, #1036, #215 ) ;
#281 = DIRECTION ( 'NONE',  ( -1.000000000000000000, -0.000000000000000000, -0.000000000000000000 ) ) ;
#282 = ORIENTED_EDGE ( 'NONE', *, *, #157, .F. ) ;
#283 = CC_DESIGN_PERSON_AND_ORGANIZATION_ASSIGNMENT ( #832, #920, ( #102 ) ) ;
#284 = ORIENTED_EDGE ( 'NONE', *, *, #451, .F. ) ;
#285 = CARTESIAN_POINT ( 'NONE',  ( 0.08289921396186558655, 0.000000000000000000, 0.000000000000000000 ) ) ;
#286 = FACE_OUTER_BOUND ( 'NONE', #206, .T. ) ;
#287 = ORIENTED_EDGE ( 'NONE', *, *, #458, .T. ) ;
#288 = CARTESIAN_POINT ( 'NONE',  ( 0.08289921396186558655, 0.9203741097123250281, 0.4730000000000000315 ) ) ;
#289 = ADVANCED_FACE ( 'NONE', ( #184 ), #356, .T. ) ;
#290 = CARTESIAN_POINT ( 'NONE',  ( 6.064432258796357722, 0.8736138818776875148, 4.004964349451517838E-16 ) ) ;
#291 = EDGE_LOOP ( 'NONE', ( #915, #271, #582, #433, #847 ) ) ;
#292 = AXIS2_PLACEMENT_3D ( 'NONE', #345, #772, #36 ) ;
#293 = CARTESIAN_POINT ( 'NONE',  ( 2.339999999999999858, 0.4730000000000022520, -0.7384778879272863028 ) ) ;
#294 = CIRCLE ( 'NONE', #993, 0.8769712600522026058 ) ;
#295 = CIRCLE ( 'NONE', #349, 2.350000000000000089 ) ;
#296 = CARTESIAN_POINT ( 'NONE',  ( 3.100000000000000089, 0.000000000000000000, 4.000000000000000000 ) ) ;
#297 = AXIS2_PLACEMENT_3D ( 'NONE', #833, #1022, #503 ) ;
#298 = ADVANCED_FACE ( 'NONE', ( #675 ), #115, .T. ) ;
#299 = DIRECTION ( 'NONE',  ( 0.000000000000000000, 0.000000000000000000, 1.000000000000000000 ) ) ;
#300 = CARTESIAN_POINT ( 'NONE',  ( 0.000000000000000000, 0.4729999999999920934, 2.150000000000001688 ) ) ;
#301 = CARTESIAN_POINT ( 'NONE',  ( 6.500000000000000000, -5.963111948670284248E-17, 0.4730000000000007532 ) ) ;
#302 = VERTEX_POINT ( 'NONE', #1023 ) ;
#303 = ORIENTED_EDGE ( 'NONE', *, *, #750, .F. ) ;
#304 = ADVANCED_FACE ( 'NONE', ( #286 ), #1018, .F. ) ;
#305 = CARTESIAN_POINT ( 'NONE',  ( 6.500000000000000000, 5.963111948670263294E-17, -0.4729999999999991434 ) ) ;
#306 = CARTESIAN_POINT ( 'NONE',  ( 2.339999999999999858, 0.9833192322604999980, 0.4730000000000001981 ) ) ;
#307 = DIRECTION ( 'NONE',  ( 0.8949343913984055821, -0.4461977533475101065, 0.000000000000000000 ) ) ;
#308 = ORIENTED_EDGE ( 'NONE', *, *, #41, .F. ) ;
#309 = EDGE_CURVE ( 'NONE', #1038, #635, #22, .T. ) ;
#310 = CARTESIAN_POINT ( 'NONE',  ( 2.339999999999999858, 0.9833192322604999980, 0.4730000000000001981 ) ) ;
#311 = PLANE ( 'NONE',  #280 ) ;
#312 = CIRCLE ( 'NONE', #844, 6.426280380454245211 ) ;
#313 = EDGE_LOOP ( 'NONE', ( #171, #30, #981, #839, #876, #395, #148, #166, #450, #262, #390, #266, #368 ) ) ;
#314 = AXIS2_PLACEMENT_3D ( 'NONE', #818, #889, #152 ) ;
#315 = ORIENTED_EDGE ( 'NONE', *, *, #352, .F. ) ;
#316 = CARTESIAN_POINT ( 'NONE',  ( 13.10000000000000142, 2.449293598294706414E-16, -2.000000000000000000 ) ) ;
#317 = APPROVAL ( #931, 'Coincident' ) ;
#318 = LINE ( 'NONE', #5, #467 ) ;
#319 = EDGE_CURVE ( 'NONE', #398, #196, #606, .T. ) ;
#320 = CARTESIAN_POINT ( 'NONE',  ( 2.339999999999999858, -0.4730000000000036398, 0.9833192322604982216 ) ) ;
#321 = ORIENTED_EDGE ( 'NONE', *, *, #132, .F. ) ;
#322 = CARTESIAN_POINT ( 'NONE',  ( 2.339999999999999858, 1.073980046567151165E-16, -0.8769712600522027168 ) ) ;
#323 = DIRECTION ( 'NONE',  ( -1.000000000000000000, -0.000000000000000000, -0.000000000000000000 ) ) ;
#324 = EDGE_CURVE ( 'NONE', #814, #907, #104, .T. ) ;
#325 = LINE ( 'NONE', #829, #719 ) ;
#326 = ORIENTED_EDGE ( 'NONE', *, *, #808, .T. ) ;
#327 = CARTESIAN_POINT ( 'NONE',  ( 2.339999999999999858, 0.9833192322604999980, 0.4730000000000001981 ) ) ;
#328 = DIRECTION ( 'NONE',  ( 0.000000000000000000, -3.552713678800500929E-15, -1.000000000000000000 ) ) ;
#329 = AXIS2_PLACEMENT_3D ( 'NONE', #300, #620, #223 ) ;
#330 = CARTESIAN_POINT ( 'NONE',  ( 0.000000000000000000, -0.4729999999999922045, -2.149999999999999911 ) ) ;
#331 = CC_DESIGN_PERSON_AND_ORGANIZATION_ASSIGNMENT ( #446, #770, ( #135 ) ) ;
#332 = ORIENTED_EDGE ( 'NONE', *, *, #373, .T. ) ;
#333 = AXIS2_PLACEMENT_3D ( 'NONE', #813, #241, #342 ) ;
#334 = VECTOR ( 'NONE', #468, 1000.000000000000227 ) ;
#335 = DIRECTION ( 'NONE',  ( 0.000000000000000000, 0.000000000000000000, 1.000000000000000000 ) ) ;
#336 = CARTESIAN_POINT ( 'NONE',  ( 2.339999999999999858, 0.7384778879272877461, 0.4730000000000001981 ) ) ;
#337 = CARTESIAN_POINT ( 'NONE',  ( 2.339999999999999858, 0.7384778879272881902, -0.4729999999999994764 ) ) ;
#338 = ORIENTED_EDGE ( 'NONE', *, *, #744, .T. ) ;
#339 = ADVANCED_FACE ( 'NONE', ( #194, #528 ), #858, .F. ) ;
#340 = COORDINATED_UNIVERSAL_TIME_OFFSET ( 10, 0, .AHEAD. ) ;
#341 = DIRECTION ( 'NONE',  ( 0.000000000000000000, 0.000000000000000000, 1.000000000000000000 ) ) ;
#342 = DIRECTION ( 'NONE',  ( 0.000000000000000000, 0.000000000000000000, 1.000000000000000000 ) ) ;
#343 = ORIENTED_EDGE ( 'NONE', *, *, #1052, .T. ) ;
#344 = CALENDAR_DATE ( 2026, 22, 6 ) ;
#345 = CARTESIAN_POINT ( 'NONE',  ( 6.500000000000000000, 0.000000000000000000, 0.000000000000000000 ) ) ;
#346 = CARTESIAN_POINT ( 'NONE',  ( 0.7117078093321047572, -0.8709367196318587023, 0.4729999999999999760 ) ) ;
#347 = ORIENTED_EDGE ( 'NONE', *, *, #257, .F. ) ;
#348 = CC_DESIGN_APPROVAL ( #805, ( #135 ) ) ;
#349 = AXIS2_PLACEMENT_3D ( 'NONE', #250, #985, #570 ) ;
#350 = DATE_TIME_ROLE ( 'creation_date' ) ;
#351 = VECTOR ( 'NONE', #263, 1000.000000000000227 ) ;
#352 = EDGE_CURVE ( 'NONE', #968, #766, #54, .T. ) ;
#353 = ORIENTED_EDGE ( 'NONE', *, *, #224, .T. ) ;
#354 = DIRECTION ( 'NONE',  ( -1.000000000000000000, -0.000000000000000000, -0.000000000000000000 ) ) ;
#355 = EDGE_CURVE ( 'NONE', #12, #1055, #650, .T. ) ;
#356 = CYLINDRICAL_SURFACE ( 'NONE', #404, 4.000000000000000000 ) ;
#357 = EDGE_LOOP ( 'NONE', ( #801, #607, #399, #1005, #315 ) ) ;
#358 = MECHANICAL_CONTEXT ( 'NONE', #695, 'mechanical' ) ;
#359 = CARTESIAN_POINT ( 'NONE',  ( 0.7060251830773421888, -0.4730000000000031957, 0.8710957089055509917 ) ) ;
#360 = PLANE ( 'NONE',  #944 ) ;
#361 = EDGE_CURVE ( 'NONE', #222, #764, #265, .T. ) ;
#362 = ORIENTED_EDGE ( 'NONE', *, *, #458, .F. ) ;
#363 = EDGE_LOOP ( 'NONE', ( #679, #769, #77, #424 ) ) ;
#364 = CARTESIAN_POINT ( 'NONE',  ( 13.10000000000000142, 2.000000000000000000, 0.000000000000000000 ) ) ;
#365 = CARTESIAN_POINT ( 'NONE',  ( 0.3289325286808817417, 1.986000318335082060, -0.4729999999999998095 ) ) ;
#366 = ORIENTED_EDGE ( 'NONE', *, *, #780, .T. ) ;
#367 = LOCAL_TIME ( 18, 50, 19.00000000000000000, #513 ) ;
#368 = ORIENTED_EDGE ( 'NONE', *, *, #600, .F. ) ;
#369 = LINE ( 'NONE', #843, #811 ) ;
#370 = VECTOR ( 'NONE', #621, 1000.000000000000114 ) ;
#371 = CARTESIAN_POINT ( 'NONE',  ( 0.000000000000000000, 0.000000000000000000, 0.000000000000000000 ) ) ;
#372 = EDGE_LOOP ( 'NONE', ( #640, #65, #405, #943 ) ) ;
#373 = EDGE_CURVE ( 'NONE', #918, #12, #896, .T. ) ;
#374 = DIRECTION ( 'NONE',  ( -1.000000000000000000, -0.000000000000000000, -0.000000000000000000 ) ) ;
#375 = DIRECTION ( 'NONE',  ( -0.4461977533473619473, 0.8949343913984795229, 4.102705333556975019E-16 ) ) ;
#376 = ORIENTED_EDGE ( 'NONE', *, *, #842, .T. ) ;
#377 = DIRECTION ( 'NONE',  ( -1.000000000000000000, -0.000000000000000000, -0.000000000000000000 ) ) ;
#378 = CARTESIAN_POINT ( 'NONE',  ( 2.339999999999999858, 0.4729999999999960347, 0.9833192322605016633 ) ) ;
#379 = CARTESIAN_POINT ( 'NONE',  ( 3.100000000000000089, 0.000000000000000000, 0.000000000000000000 ) ) ;
#380 = AXIS2_PLACEMENT_3D ( 'NONE', #285, #522, #921 ) ;
#381 = CARTESIAN_POINT ( 'NONE',  ( 2.339999999999999858, 0.000000000000000000, 0.000000000000000000 ) ) ;
#382 = AXIS2_PLACEMENT_3D ( 'NONE', #482, #824, #969 ) ;
#383 = AXIS2_PLACEMENT_3D ( 'NONE', #379, #696, #299 ) ;
#384 = EDGE_CURVE ( 'NONE', #1038, #82, #691, .T. ) ;
#385 = AXIS2_PLACEMENT_3D ( 'NONE', #937, #106, #431 ) ;
#386 = CARTESIAN_POINT ( 'NONE',  ( 0.000000000000000000, -2.149999999999999911, -0.4730000000000000870 ) ) ;
#387 = AXIS2_PLACEMENT_3D ( 'NONE', #826, #558, #89 ) ;
#388 = EDGE_CURVE ( 'NONE', #732, #82, #828, .T. ) ;
#389 = DIRECTION ( 'NONE',  ( -1.091896089901488595E-16, -1.000000000000000000, -3.617551358899587488E-15 ) ) ;
#390 = ORIENTED_EDGE ( 'NONE', *, *, #568, .F. ) ;
#391 = CARTESIAN_POINT ( 'NONE',  ( 0.7060251830773421888, 0.4730000000000029181, -0.8710957089055512137 ) ) ;
#392 = CARTESIAN_POINT ( 'NONE',  ( 0.4983245163632164521, 0.8876225610985606362, 0.4730000000000001426 ) ) ;
#393 = CARTESIAN_POINT ( 'NONE',  ( 2.624945235421144663, 5.277974490135478117E-17, 0.000000000000000000 ) ) ;
#394 = EDGE_CURVE ( 'NONE', #645, #222, #248, .T. ) ;
#395 = ORIENTED_EDGE ( 'NONE', *, *, #324, .F. ) ;
#396 = CARTESIAN_POINT ( 'NONE',  ( 1.376524617020200569, 0.000000000000000000, 0.000000000000000000 ) ) ;
#397 = CARTESIAN_POINT ( 'NONE',  ( 0.000000000000000000, -2.149999999999999911, 0.4729999999999996985 ) ) ;
#398 = VERTEX_POINT ( 'NONE', #63 ) ;
#399 = ORIENTED_EDGE ( 'NONE', *, *, #543, .F. ) ;
#400 = ADVANCED_FACE ( 'NONE', ( #694 ), #311, .T. ) ;
#401 = CARTESIAN_POINT ( 'NONE',  ( 2.339999999999999414, -0.4729999999999967009, -0.9833192322609866087 ) ) ;
#402 = LOCAL_TIME ( 18, 50, 19.00000000000000000, #340 ) ;
#403 = AXIS2_PLACEMENT_3D ( 'NONE', #804, #64, #1032 ) ;
#404 = AXIS2_PLACEMENT_3D ( 'NONE', #371, #515, #686 ) ;
#405 = ORIENTED_EDGE ( 'NONE', *, *, #507, .F. ) ;
#406 = CIRCLE ( 'NONE', #455, 1.034803122255024244 ) ;
#407 = ORIENTED_EDGE ( 'NONE', *, *, #879, .T. ) ;
#408 = EDGE_CURVE ( 'NONE', #25, #918, #420, .T. ) ;
#409 = CARTESIAN_POINT ( 'NONE',  ( 0.7117078093321047572, 0.4729999999999966454, 0.8709367196318604787 ) ) ;
#410 = FACE_OUTER_BOUND ( 'NONE', #1021, .T. ) ;
#411 = VERTEX_POINT ( 'NONE', #540 ) ;
#412 = PLANE ( 'NONE',  #1016 ) ;
#413 = CARTESIAN_POINT ( 'NONE',  ( 6.500000000000000000, 0.000000000000000000, 0.000000000000000000 ) ) ;
#414 = PLANE ( 'NONE',  #579 ) ;
#415 = ORIENTED_EDGE ( 'NONE', *, *, #439, .F. ) ;
#416 = CARTESIAN_POINT ( 'NONE',  ( 2.339999999999999858, 0.4730000000000022520, -0.7384778879272863028 ) ) ;
#417 = DIRECTION ( 'NONE',  ( -0.4461977533473619473, -3.534917260412424724E-15, 0.8949343913984795229 ) ) ;
#418 = ADVANCED_FACE ( 'NONE', ( #610 ), #786, .T. ) ;
#419 = EDGE_LOOP ( 'NONE', ( #589, #95, #739, #338 ) ) ;
#420 = CIRCLE ( 'NONE', #550, 6.482767233211447433 ) ;
#421 = DIRECTION ( 'NONE',  ( 0.000000000000000000, 3.546611053431997020E-15, -1.000000000000000000 ) ) ;
#422 = CARTESIAN_POINT ( 'NONE',  ( 2.339999999999999858, -0.9833192322609846103, 0.4730000000000000870 ) ) ;
#423 = DIRECTION ( 'NONE',  ( -1.000000000000000000, -0.000000000000000000, -0.000000000000000000 ) ) ;
#424 = ORIENTED_EDGE ( 'NONE', *, *, #319, .F. ) ;
#425 = APPROVAL_DATE_TIME ( #442, #805 ) ;
#426 = CARTESIAN_POINT ( 'NONE',  ( 0.000000000000000000, -0.4730000000000076921, 2.149999999999998135 ) ) ;
#427 = DIRECTION ( 'NONE',  ( 0.8949343913984054710, -0.4461977533475101620, 0.000000000000000000 ) ) ;
#428 = ORIENTED_EDGE ( 'NONE', *, *, #66, .T. ) ;
#429 = EDGE_CURVE ( 'NONE', #196, #574, #708, .T. ) ;
#430 = CARTESIAN_POINT ( 'NONE',  ( 0.08289921396193511427, -0.4730000000000033067, 0.9203741097126164616 ) ) ;
#431 = DIRECTION ( 'NONE',  ( 0.000000000000000000, 1.000000000000000000, 1.254327974631456148E-16 ) ) ;
#432 = VECTOR ( 'NONE', #741, 1000.000000000000000 ) ;
#433 = ORIENTED_EDGE ( 'NONE', *, *, #46, .F. ) ;
#434 = AXIS2_PLACEMENT_3D ( 'NONE', #747, #423, #175 ) ;
#435 = DIRECTION ( 'NONE',  ( 0.000000000000000000, 0.000000000000000000, 1.000000000000000000 ) ) ;
#436 = AXIS2_PLACEMENT_3D ( 'NONE', #951, #1044, #880 ) ;
#437 = VERTEX_POINT ( 'NONE', #134 ) ;
#438 = CARTESIAN_POINT ( 'NONE',  ( 2.339999999999999858, 0.9833192322604999980, -0.4729999999999994764 ) ) ;
#439 = EDGE_CURVE ( 'NONE', #25, #881, #864, .T. ) ;
#440 = DIRECTION ( 'NONE',  ( 0.8949343913984054710, 1.557891129246563043E-15, -0.4461977533475101620 ) ) ;
#441 = EDGE_LOOP ( 'NONE', ( #859, #376, #60, #284, #190 ) ) ;
#442 = DATE_AND_TIME ( #765, #957 ) ;
#443 = CARTESIAN_POINT ( 'NONE',  ( 0.7117078093321046461, -0.4729999999999969229, -0.8709367196318602566 ) ) ;
#444 = CARTESIAN_POINT ( 'NONE',  ( -997.3750547645788629, 0.000000000000000000, 0.000000000000000000 ) ) ;
#445 = ORIENTED_EDGE ( 'NONE', *, *, #481, .T. ) ;
#446 = PERSON_AND_ORGANIZATION ( #18446744073709551615, #18446744073709551615 ) ;
#447 = ORIENTED_EDGE ( 'NONE', *, *, #555, .F. ) ;
#448 = LINE ( 'NONE', #426, #351 ) ;
#449 = CARTESIAN_POINT ( 'NONE',  ( 1.376524617020200569, 0.000000000000000000, 0.000000000000000000 ) ) ;
#450 = ORIENTED_EDGE ( 'NONE', *, *, #463, .F. ) ;
#451 = EDGE_CURVE ( 'NONE', #779, #653, #959, .T. ) ;
#452 = CIRCLE ( 'NONE', #596, 0.8769712600522026058 ) ;
#453 = VECTOR ( 'NONE', #200, 1000.000000000000000 ) ;
#454 = CARTESIAN_POINT ( 'NONE',  ( 1.250752705848436008, 0.4730000000000026961, -0.8277514510525310065 ) ) ;
#455 = AXIS2_PLACEMENT_3D ( 'NONE', #658, #989, #328 ) ;
#456 = DIRECTION ( 'NONE',  ( 0.000000000000000000, 0.000000000000000000, 1.000000000000000000 ) ) ;
#457 = ORIENTED_EDGE ( 'NONE', *, *, #872, .F. ) ;
#458 = EDGE_CURVE ( 'NONE', #771, #783, #39, .T. ) ;
#459 = CARTESIAN_POINT ( 'NONE',  ( 0.7060251830773421888, -0.8710957089055528790, -0.4729999999999999205 ) ) ;
#460 = CARTESIAN_POINT ( 'NONE',  ( 0.000000000000000000, -0.4729999999999922045, -2.149999999999999911 ) ) ;
#461 = CARTESIAN_POINT ( 'NONE',  ( 2.339999999999999858, 0.4729999999999960347, 0.9833192322605016633 ) ) ;
#462 = CARTESIAN_POINT ( 'NONE',  ( 0.08289921396186558655, -0.9203741097123252501, 0.4729999999999998095 ) ) ;
#463 = EDGE_CURVE ( 'NONE', #86, #144, #312, .T. ) ;
#464 = CARTESIAN_POINT ( 'NONE',  ( 1.969089724819174547, 0.7690991841739411861, -0.4729999999999995319 ) ) ;
#465 = ORIENTED_EDGE ( 'NONE', *, *, #600, .T. ) ;
#466 = ORIENTED_EDGE ( 'NONE', *, *, #186, .F. ) ;
#467 = VECTOR ( 'NONE', #169, 1000.000000000000000 ) ;
#468 = DIRECTION ( 'NONE',  ( 0.8949343913984054710, 1.516425752691599569E-15, -0.4461977533475101620 ) ) ;
#469 = AXIS2_PLACEMENT_3D ( 'NONE', #1009, #672, #1017 ) ;
#470 = DIRECTION ( 'NONE',  ( -1.000000000000000000, -0.000000000000000000, -0.000000000000000000 ) ) ;
#471 = CARTESIAN_POINT ( 'NONE',  ( 2.339999999999999858, 0.9833192322604999980, 0.4730000000000001981 ) ) ;
#472 = ORIENTED_EDGE ( 'NONE', *, *, #231, .F. ) ;
#473 = DIRECTION ( 'NONE',  ( 0.000000000000000000, 0.000000000000000000, 1.000000000000000000 ) ) ;
#474 = CARTESIAN_POINT ( 'NONE',  ( 1.250752705848436008, 0.8277514510525324498, 0.4730000000000001981 ) ) ;
#475 = DIRECTION ( 'NONE',  ( 0.000000000000000000, 0.000000000000000000, -1.000000000000000000 ) ) ;
#476 = ORIENTED_EDGE ( 'NONE', *, *, #217, .T. ) ;
#477 = B_SPLINE_CURVE_WITH_KNOTS ( 'NONE', 3,
 ( #821, #409, #1057, #249, #150, #253, #734 ),
 .UNSPECIFIED., .F., .F.,
 ( 4, 3, 4 ),
 ( 4.876257178739692208E-05, 0.001941009580115715715, 0.002313181066450479759 ),
 .UNSPECIFIED. ) ;
#478 = DIRECTION ( 'NONE',  ( 0.000000000000000000, 0.000000000000000000, -1.000000000000000000 ) ) ;
#479 = ORIENTED_EDGE ( 'NONE', *, *, #711, .T. ) ;
#480 = VERTEX_POINT ( 'NONE', #296 ) ;
#481 = EDGE_CURVE ( 'NONE', #771, #302, #141, .T. ) ;
#482 = CARTESIAN_POINT ( 'NONE',  ( 0.08289921396186558655, 0.000000000000000000, 0.000000000000000000 ) ) ;
#483 = CIRCLE ( 'NONE', #788, 3.999999999999999112 ) ;
#484 = CARTESIAN_POINT ( 'NONE',  ( 0.000000000000000000, 0.000000000000000000, 4.000000000000000000 ) ) ;
#485 = AXIS2_PLACEMENT_3D ( 'NONE', #444, #768, #763 ) ;
#486 = DIRECTION ( 'NONE',  ( 0.000000000000000000, -1.000000000000000000, -1.260700200564539845E-16 ) ) ;
#487 = CIRCLE ( 'NONE', #616, 6.426280380454416630 ) ;
#488 = ORIENTED_EDGE ( 'NONE', *, *, #142, .F. ) ;
#489 = PLANE ( 'NONE',  #225 ) ;
#490 = FACE_OUTER_BOUND ( 'NONE', #529, .T. ) ;
#491 = FACE_OUTER_BOUND ( 'NONE', #934, .T. ) ;
#492 = ORIENTED_EDGE ( 'NONE', *, *, #538, .T. ) ;
#493 = FACE_OUTER_BOUND ( 'NONE', #107, .T. ) ;
#494 = ADVANCED_FACE ( 'NONE', ( #617 ), #867, .T. ) ;
#495 = CARTESIAN_POINT ( 'NONE',  ( 13.10000000000000142, 0.000000000000000000, 0.000000000000000000 ) ) ;
#496 = EDGE_LOOP ( 'NONE', ( #902, #692, #687, #243 ) ) ;
#497 = CARTESIAN_POINT ( 'NONE',  ( 2.339999999999999858, 0.000000000000000000, 0.000000000000000000 ) ) ;
#498 = CARTESIAN_POINT ( 'NONE',  ( 2.624945235421144663, 6.463654565325797060E-33, -5.277974490135478117E-17 ) ) ;
#499 = SECURITY_CLASSIFICATION ( '', '', #586 ) ;
#500 = DIRECTION ( 'NONE',  ( 0.000000000000000000, 0.000000000000000000, 1.000000000000000000 ) ) ;
#501 = ORIENTED_EDGE ( 'NONE', *, *, #842, .F. ) ;
#502 = AXIS2_PLACEMENT_3D ( 'NONE', #226, #470, #146 ) ;
#503 = DIRECTION ( 'NONE',  ( 0.000000000000000000, 0.000000000000000000, 1.000000000000000000 ) ) ;
#504 = CARTESIAN_POINT ( 'NONE',  ( 0.000000000000000000, -0.4729999999999922045, -2.150000000000001688 ) ) ;
#505 = EDGE_CURVE ( 'NONE', #553, #814, #195, .T. ) ;
#506 = ORIENTED_EDGE ( 'NONE', *, *, #384, .F. ) ;
#507 = EDGE_CURVE ( 'NONE', #764, #958, #1040, .T. ) ;
#508 = ORIENTED_EDGE ( 'NONE', *, *, #46, .T. ) ;
#509 = CARTESIAN_POINT ( 'NONE',  ( 1.795425142900113569, -0.4730000000000030291, 0.7836998269370291093 ) ) ;
#510 = CARTESIAN_POINT ( 'NONE',  ( 6.500000000000000000, 0.4729999999999991434, 1.711101792759501918E-15 ) ) ;
#511 = VERTEX_POINT ( 'NONE', #576 ) ;
#512 = EDGE_CURVE ( 'NONE', #645, #994, #406, .T. ) ;
#513 = COORDINATED_UNIVERSAL_TIME_OFFSET ( 10, 0, .AHEAD. ) ;
#514 = CARTESIAN_POINT ( 'NONE',  ( 3.449999999999999734, 0.000000000000000000, 2.000000000000000000 ) ) ;
#515 = DIRECTION ( 'NONE',  ( -1.000000000000000000, -0.000000000000000000, -0.000000000000000000 ) ) ;
#516 = VECTOR ( 'NONE', #592, 1000.000000000000227 ) ;
#517 = VERTEX_POINT ( 'NONE', #803 ) ;
#518 = LOCAL_TIME ( 18, 50, 19.00000000000000000, #853 ) ;
#519 = AXIS2_PLACEMENT_3D ( 'NONE', #845, #276, #120 ) ;
#520 = CIRCLE ( 'NONE', #292, 6.500000000000000000 ) ;
#521 = CC_DESIGN_PERSON_AND_ORGANIZATION_ASSIGNMENT ( #669, #1001, ( #135 ) ) ;
#522 = DIRECTION ( 'NONE',  ( -1.000000000000000000, -0.000000000000000000, -0.000000000000000000 ) ) ;
#523 = CARTESIAN_POINT ( 'NONE',  ( 0.000000000000000000, 2.149999999999999911, -0.4729999999999995874 ) ) ;
#524 = ORIENTED_EDGE ( 'NONE', *, *, #168, .F. ) ;
#525 = APPROVAL_ROLE ( '' ) ;
#526 = DIRECTION ( 'NONE',  ( 0.000000000000000000, -3.620826753436136801E-15, 1.000000000000000000 ) ) ;
#527 = ADVANCED_FACE ( 'NONE', ( #493 ), #1053, .F. ) ;
#528 = FACE_OUTER_BOUND ( 'NONE', #924, .T. ) ;
#529 = EDGE_LOOP ( 'NONE', ( #308, #898, #789, #684 ) ) ;
#530 = CARTESIAN_POINT ( 'NONE',  ( 0.000000000000000000, 4.898587196589412829E-16, -4.000000000000000000 ) ) ;
#531 = DIRECTION ( 'NONE',  ( 0.000000000000000000, -1.000000000000000000, -1.260700200564539845E-16 ) ) ;
#532 = ORIENTED_EDGE ( 'NONE', *, *, #231, .T. ) ;
#533 = CIRCLE ( 'NONE', #188, 0.3500000000000000333 ) ;
#534 = LINE ( 'NONE', #857, #334 ) ;
#535 = AXIS2_PLACEMENT_3D ( 'NONE', #638, #256, #478 ) ;
#536 = DIRECTION ( 'NONE',  ( 0.000000000000000000, 0.000000000000000000, 1.000000000000000000 ) ) ;
#537 = DIRECTION ( 'NONE',  ( -0.000000000000000000, 1.000000000000000000, 1.224646799147353207E-16 ) ) ;
#538 = EDGE_CURVE ( 'NONE', #722, #972, #477, .T. ) ;
#539 = DIRECTION ( 'NONE',  ( -1.000000000000000000, -0.000000000000000000, -0.000000000000000000 ) ) ;
#540 = CARTESIAN_POINT ( 'NONE',  ( 3.100000000000000089, 2.877919977996279827E-16, -2.350000000000000089 ) ) ;
#541 = ORIENTED_EDGE ( 'NONE', *, *, #785, .T. ) ;
#542 = ORIENTED_EDGE ( 'NONE', *, *, #512, .F. ) ;
#543 = EDGE_CURVE ( 'NONE', #938, #196, #318, .T. ) ;
#544 = DIRECTION ( 'NONE',  ( 0.000000000000000000, 0.000000000000000000, 1.000000000000000000 ) ) ;
#545 = CARTESIAN_POINT ( 'NONE',  ( 0.08289921396186558655, 0.9203741097123250281, 0.4730000000000000315 ) ) ;
#546 = EDGE_LOOP ( 'NONE', ( #476, #428 ) ) ;
#547 = VERTEX_POINT ( 'NONE', #164 ) ;
#548 = AXIS2_PLACEMENT_3D ( 'NONE', #497, #145, #83 ) ;
#549 = FACE_OUTER_BOUND ( 'NONE', #890, .T. ) ;
#550 = AXIS2_PLACEMENT_3D ( 'NONE', #301, #782, #47 ) ;
#551 = DIRECTION ( 'NONE',  ( -0.4461977533475101620, 3.124646727056469462E-15, -0.8949343913984054710 ) ) ;
#552 = EDGE_LOOP ( 'NONE', ( #353, #962, #407, #949 ) ) ;
#553 = VERTEX_POINT ( 'NONE', #336 ) ;
#554 = CARTESIAN_POINT ( 'NONE',  ( 2.092731178364393152, 0.7589491173675370073, -0.4729999999999995319 ) ) ;
#555 = EDGE_CURVE ( 'NONE', #972, #553, #997, .T. ) ;
#556 = FACE_OUTER_BOUND ( 'NONE', #372, .T. ) ;
#557 = ORIENTED_EDGE ( 'NONE', *, *, #373, .F. ) ;
#558 = DIRECTION ( 'NONE',  ( -1.000000000000000000, -0.000000000000000000, -0.000000000000000000 ) ) ;
#559 = PLANE ( 'NONE',  #314 ) ;
#560 = ORIENTED_EDGE ( 'NONE', *, *, #966, .T. ) ;
#561 = CARTESIAN_POINT ( 'NONE',  ( 0.08289921396193511427, 0.4730000000000031957, -0.9203741097126165727 ) ) ;
#562 = TOROIDAL_SURFACE ( 'NONE', #387, 2.350000000000000089, 0.3499999999999999778 ) ;
#563 = CARTESIAN_POINT ( 'NONE',  ( 0.08289921396186558655, 0.9203741097123252501, -0.4729999999999996985 ) ) ;
#564 = AXIS2_PLACEMENT_3D ( 'NONE', #471, #865, #628 ) ;
#565 = DIRECTION ( 'NONE',  ( 0.8949343913984055821, -0.4461977533475101065, 0.000000000000000000 ) ) ;
#566 = VECTOR ( 'NONE', #904, 1000.000000000000000 ) ;
#567 = ORIENTED_EDGE ( 'NONE', *, *, #590, .T. ) ;
#568 = EDGE_CURVE ( 'NONE', #918, #952, #652, .T. ) ;
#569 = CARTESIAN_POINT ( 'NONE',  ( 6.064432258796357722, 0.8736138818776875148, 4.004964349451517838E-16 ) ) ;
#570 = DIRECTION ( 'NONE',  ( 0.000000000000000000, 0.000000000000000000, 1.000000000000000000 ) ) ;
#571 = EDGE_LOOP ( 'NONE', ( #181, #567, #856, #603, #930, #44, #343 ) ) ;
#572 = DIRECTION ( 'NONE',  ( -1.091896089901488595E-16, -1.000000000000000000, -3.617551358899587488E-15 ) ) ;
#573 = CARTESIAN_POINT ( 'NONE',  ( 6.500000000000000000, 5.963111948670263294E-17, -0.4729999999999991434 ) ) ;
#574 = VERTEX_POINT ( 'NONE', #416 ) ;
#575 = PERSON_AND_ORGANIZATION ( #18446744073709551615, #18446744073709551615 ) ;
#576 = CARTESIAN_POINT ( 'NONE',  ( 1.376524617020200569, 4.898587196589411843E-16, -3.999999999999999112 ) ) ;
#577 = CIRCLE ( 'NONE', #548, 0.8769712600522026058 ) ;
#578 = CARTESIAN_POINT ( 'NONE',  ( 0.000000000000000000, 2.149999999999999911, -0.4729999999999995874 ) ) ;
#579 = AXIS2_PLACEMENT_3D ( 'NONE', #330, #254, #901 ) ;
#580 = ORIENTED_EDGE ( 'NONE', *, *, #785, .F. ) ;
#581 = AXIS2_PLACEMENT_3D ( 'NONE', #670, #354, #605 ) ;
#582 = ORIENTED_EDGE ( 'NONE', *, *, #998, .F. ) ;
#583 = DIRECTION ( 'NONE',  ( -1.000000000000000000, 0.000000000000000000, -0.000000000000000000 ) ) ;
#584 = CARTESIAN_POINT ( 'NONE',  ( 2.092731178364394040, -0.7589491173675366742, 0.4730000000000000870 ) ) ;
#585 = ORIENTED_EDGE ( 'NONE', *, *, #512, .T. ) ;
#586 = SECURITY_CLASSIFICATION_LEVEL ( 'unclassified' ) ;
#587 = CARTESIAN_POINT ( 'NONE',  ( 1.340455416935546706, -0.4729999999999972005, -0.8207055025959666406 ) ) ;
#588 = CARTESIAN_POINT ( 'NONE',  ( 2.339999999999999858, 0.000000000000000000, 0.000000000000000000 ) ) ;
#589 = ORIENTED_EDGE ( 'NONE', *, *, #988, .T. ) ;
#590 = EDGE_CURVE ( 'NONE', #40, #968, #235, .T. ) ;
#591 = COORDINATED_UNIVERSAL_TIME_OFFSET ( 10, 0, .AHEAD. ) ;
#592 = DIRECTION ( 'NONE',  ( 0.8949343913984054710, -0.4461977533475101620, 4.146537655496340710E-17 ) ) ;
#593 = CARTESIAN_POINT ( 'NONE',  ( 2.339999999999999858, 0.9833192322604999980, -0.4729999999999994764 ) ) ;
#594 = CC_DESIGN_SECURITY_CLASSIFICATION ( #499, ( #135 ) ) ;
#595 = ORIENTED_EDGE ( 'NONE', *, *, #394, .F. ) ;
#596 = AXIS2_PLACEMENT_3D ( 'NONE', #983, #1056, #1051 ) ;
#597 = CIRCLE ( 'NONE', #735, 6.482767233211447433 ) ;
#598 = VECTOR ( 'NONE', #128, 1000.000000000000000 ) ;
#599 = COORDINATED_UNIVERSAL_TIME_OFFSET ( 10, 0, .AHEAD. ) ;
#600 = EDGE_CURVE ( 'NONE', #783, #25, #193, .T. ) ;
#601 = CARTESIAN_POINT ( 'NONE',  ( 2.092731178364393152, -0.4729999999999975335, -0.7589491173675383395 ) ) ;
#602 = CARTESIAN_POINT ( 'NONE',  ( 2.339999999999999858, 0.000000000000000000, 0.000000000000000000 ) ) ;
#603 = ORIENTED_EDGE ( 'NONE', *, *, #1020, .T. ) ;
#604 = ORIENTED_EDGE ( 'NONE', *, *, #505, .F. ) ;
#605 = DIRECTION ( 'NONE',  ( 0.000000000000000000, 0.000000000000000000, 1.000000000000000000 ) ) ;
#606 = LINE ( 'NONE', #98, #755 ) ;
#607 = ORIENTED_EDGE ( 'NONE', *, *, #429, .F. ) ;
#608 = ADVANCED_BREP_SHAPE_REPRESENTATION ( 'pan cross head screw_as_AS-NZS 1427 PC- M4 x 10-N', ( #869, #698 ), #119 ) ;
#609 = CARTESIAN_POINT ( 'NONE',  ( 0.2906153877829637522, 0.4730000000000030846, -0.9040433127310192329 ) ) ;
#610 = FACE_OUTER_BOUND ( 'NONE', #1014, .T. ) ;
#611 = ADVANCED_FACE ( 'NONE', ( #490 ), #562, .F. ) ;
#612 = CARTESIAN_POINT ( 'NONE',  ( 6.064432258795712016, -0.8736138818786205462, 0.000000000000000000 ) ) ;
#613 = CIRCLE ( 'NONE', #647, 2.000000000000000000 ) ;
#614 = AXIS2_PLACEMENT_3D ( 'NONE', #258, #659, #565 ) ;
#615 = CARTESIAN_POINT ( 'NONE',  ( 2.339999999999999858, -0.7384778879272880792, -0.4729999999999994764 ) ) ;
#616 = AXIS2_PLACEMENT_3D ( 'NONE', #207, #866, #202 ) ;
#617 = FACE_OUTER_BOUND ( 'NONE', #1059, .T. ) ;
#618 = DIRECTION ( 'NONE',  ( 0.000000000000000000, -1.000000000000000000, 0.000000000000000000 ) ) ;
#619 = EDGE_CURVE ( 'NONE', #881, #302, #10, .T. ) ;
#620 = DIRECTION ( 'NONE',  ( -1.091896089901488595E-16, -1.000000000000000000, -3.617551358899587488E-15 ) ) ;
#621 = DIRECTION ( 'NONE',  ( 0.8949343913984795229, 0.4461977533473617807, 1.658615062198673595E-16 ) ) ;
#622 = B_SPLINE_CURVE_WITH_KNOTS ( 'NONE', 3,
 ( #93, #443, #587, #751, #601, #109, #761 ),
 .UNSPECIFIED., .F., .F.,
 ( 4, 3, 4 ),
 ( 4.876257178739560748E-05, 0.001941009580115715064, 0.002313181066450478458 ),
 .UNSPECIFIED. ) ;
#623 = EDGE_LOOP ( 'NONE', ( #887, #716, #835, #143 ) ) ;
#624 = PRODUCT_RELATED_PRODUCT_CATEGORY ( 'detail', '', ( #176 ) ) ;
#625 = ORIENTED_EDGE ( 'NONE', *, *, #157, .T. ) ;
#626 = FACE_OUTER_BOUND ( 'NONE', #1045, .T. ) ;
#627 = CARTESIAN_POINT ( 'NONE',  ( 0.000000000000000000, 2.449293598294706414E-16, -2.000000000000000000 ) ) ;
#628 = DIRECTION ( 'NONE',  ( 0.000000000000000000, 0.000000000000000000, -1.000000000000000000 ) ) ;
#629 = ORIENTED_EDGE ( 'NONE', *, *, #132, .T. ) ;
#630 =( NAMED_UNIT ( * ) PLANE_ANGLE_UNIT ( ) SI_UNIT ( $, .RADIAN. ) );
#631 = ADVANCED_FACE ( 'NONE', ( #970 ), #752, .F. ) ;
#632 = CIRCLE ( 'NONE', #88, 4.000000000000000000 ) ;
#633 = CARTESIAN_POINT ( 'NONE',  ( 1.795425142900113569, 0.7836998269370306636, 0.4730000000000002536 ) ) ;
#634 = EDGE_LOOP ( 'NONE', ( #178, #185, #852, #234 ) ) ;
#635 = VERTEX_POINT ( 'NONE', #900 ) ;
#636 = FACE_OUTER_BOUND ( 'NONE', #991, .T. ) ;
#637 = ADVANCED_FACE ( 'NONE', ( #817 ), #721, .T. ) ;
#638 = CARTESIAN_POINT ( 'NONE',  ( 0.08289921396186558655, 0.000000000000000000, 0.000000000000000000 ) ) ;
#639 = LINE ( 'NONE', #11, #790 ) ;
#640 = ORIENTED_EDGE ( 'NONE', *, *, #800, .F. ) ;
#641 = CARTESIAN_POINT ( 'NONE',  ( 2.339999999999999858, 0.9833192322604999980, 0.4730000000000001981 ) ) ;
#642 = DIRECTION ( 'NONE',  ( 1.000000000000000000, 0.000000000000000000, 0.000000000000000000 ) ) ;
#643 = CARTESIAN_POINT ( 'NONE',  ( 2.339999999999999858, -0.4730000000000036398, 0.9833192322604982216 ) ) ;
#644 = EDGE_CURVE ( 'NONE', #480, #653, #240, .T. ) ;
#645 = VERTEX_POINT ( 'NONE', #563 ) ;
#646 =( LENGTH_UNIT ( ) NAMED_UNIT ( * ) SI_UNIT ( .MILLI., .METRE. ) );
#647 = AXIS2_PLACEMENT_3D ( 'NONE', #118, #214, #1043 ) ;
#648 = CONICAL_SURFACE ( 'NONE', #1, 0.8769712600522026058, 0.06981317007976589606 ) ;
#649 = CYLINDRICAL_SURFACE ( 'NONE', #581, 2.000000000000000000 ) ;
#650 = CIRCLE ( 'NONE', #192, 0.8769712600522026058 ) ;
#651 = DIRECTION ( 'NONE',  ( -1.000000000000000000, -0.000000000000000000, -0.000000000000000000 ) ) ;
#652 = CIRCLE ( 'NONE', #535, 1.034803122255024244 ) ;
#653 = VERTEX_POINT ( 'NONE', #979 ) ;
#654 = CARTESIAN_POINT ( 'NONE',  ( 0.3289325286808999493, -0.4729999999999928151, -1.986000318335143788 ) ) ;
#655 = DIRECTION ( 'NONE',  ( -0.3090169943749415671, 1.164708318489094811E-16, -0.9510565162951554186 ) ) ;
#656 = DIRECTION ( 'NONE',  ( -1.000000000000000000, -0.000000000000000000, -0.000000000000000000 ) ) ;
#657 = VERTEX_POINT ( 'NONE', #79 ) ;
#658 = CARTESIAN_POINT ( 'NONE',  ( 0.08289921396186558655, 0.000000000000000000, 0.000000000000000000 ) ) ;
#659 = DIRECTION ( 'NONE',  ( -0.4461977533475101620, -0.8949343913984054710, -0.000000000000000000 ) ) ;
#660 = VERTEX_POINT ( 'NONE', #730 ) ;
#661 = DATE_AND_TIME ( #344, #402 ) ;
#662 = ORIENTED_EDGE ( 'NONE', *, *, #794, .F. ) ;
#663 = DIRECTION ( 'NONE',  ( 1.224775218828482517E-16, 1.000000000000000000, 3.617551358899587488E-15 ) ) ;
#664 = ADVANCED_FACE ( 'NONE', ( #1061 ), #649, .T. ) ;
#665 = CARTESIAN_POINT ( 'NONE',  ( 1.340455416935547150, -0.8207055025959649752, 0.4730000000000000315 ) ) ;
#666 = CIRCLE ( 'NONE', #877, 0.8769712600522026058 ) ;
#667 = ORIENTED_EDGE ( 'NONE', *, *, #861, .F. ) ;
#668 = CIRCLE ( 'NONE', #973, 6.482767233211447433 ) ;
#669 = PERSON_AND_ORGANIZATION ( #18446744073709551615, #18446744073709551615 ) ;
#670 = CARTESIAN_POINT ( 'NONE',  ( 0.000000000000000000, 0.000000000000000000, 0.000000000000000000 ) ) ;
#671 = ADVANCED_FACE ( 'NONE', ( #198 ), #932, .F. ) ;
#672 = DIRECTION ( 'NONE',  ( -1.000000000000000000, -0.000000000000000000, -0.000000000000000000 ) ) ;
#673 = ORIENTED_EDGE ( 'NONE', *, *, #309, .T. ) ;
#674 = CARTESIAN_POINT ( 'NONE',  ( 1.376524617020200347, -3.999999999999999112, -4.898587196589411843E-16 ) ) ;
#675 = FACE_OUTER_BOUND ( 'NONE', #496, .T. ) ;
#676 = ORIENTED_EDGE ( 'NONE', *, *, #726, .T. ) ;
#677 = EDGE_CURVE ( 'NONE', #201, #766, #622, .T. ) ;
#678 = PERSON_AND_ORGANIZATION_ROLE ( 'design_owner' ) ;
#679 = ORIENTED_EDGE ( 'NONE', *, *, #861, .T. ) ;
#680 = FACE_OUTER_BOUND ( 'NONE', #552, .T. ) ;
#681 = LINE ( 'NONE', #17, #453 ) ;
#682 = VERTEX_POINT ( 'NONE', #269 ) ;
#683 = AXIS2_PLACEMENT_3D ( 'NONE', #43, #375, #884 ) ;
#684 = ORIENTED_EDGE ( 'NONE', *, *, #879, .F. ) ;
#685 = CARTESIAN_POINT ( 'NONE',  ( 0.4983245163632165631, -0.4730000000000032512, 0.8876225610985589709 ) ) ;
#686 = DIRECTION ( 'NONE',  ( 0.000000000000000000, 0.000000000000000000, 1.000000000000000000 ) ) ;
#687 = ORIENTED_EDGE ( 'NONE', *, *, #998, .T. ) ;
#688 = EDGE_CURVE ( 'NONE', #201, #660, #73, .T. ) ;
#689 = CARTESIAN_POINT ( 'NONE',  ( 1.795425142900113791, -0.7836998269370309966, -0.4729999999999997540 ) ) ;
#690 = EDGE_CURVE ( 'NONE', #574, #968, #720, .T. ) ;
#691 = LINE ( 'NONE', #627, #598 ) ;
#692 = ORIENTED_EDGE ( 'NONE', *, *, #872, .T. ) ;
#693 = LINE ( 'NONE', #530, #212 ) ;
#694 = FACE_OUTER_BOUND ( 'NONE', #885, .T. ) ;
#695 = APPLICATION_CONTEXT ( 'configuration controlled 3d designs of mechanical parts and assemblies' ) ;
#696 = DIRECTION ( 'NONE',  ( -1.000000000000000000, -0.000000000000000000, -0.000000000000000000 ) ) ;
#697 = AXIS2_PLACEMENT_3D ( 'NONE', #909, #84, #159 ) ;
#698 = AXIS2_PLACEMENT_3D ( 'NONE', #273, #435, #987 ) ;
#699 = VECTOR ( 'NONE', #48, 1000.000000000000000 ) ;
#700 = VECTOR ( 'NONE', #906, 1000.000000000000000 ) ;
#701 = PLANE ( 'NONE',  #329 ) ;
#702 = AXIS2_PLACEMENT_3D ( 'NONE', #32, #114, #275 ) ;
#703 = CARTESIAN_POINT ( 'NONE',  ( 2.216368159026881557, 0.7487443765454416811, -0.4729999999999995319 ) ) ;
#704 = ADVANCED_FACE ( 'NONE', ( #680 ), #1015, .T. ) ;
#705 = DIRECTION ( 'NONE',  ( 0.000000000000000000, 3.620826753436136801E-15, -1.000000000000000000 ) ) ;
#706 = ORIENTED_EDGE ( 'NONE', *, *, #775, .F. ) ;
#707 = DIRECTION ( 'NONE',  ( 0.000000000000000000, -1.000000000000000000, -5.512971458886362801E-17 ) ) ;
#708 = LINE ( 'NONE', #378, #228 ) ;
#709 = ORIENTED_EDGE ( 'NONE', *, *, #505, .T. ) ;
#710 = EDGE_LOOP ( 'NONE', ( #1024, #709, #218, #629 ) ) ;
#711 = EDGE_CURVE ( 'NONE', #953, #201, #668, .T. ) ;
#712 = LINE ( 'NONE', #310, #757 ) ;
#713 = B_SPLINE_CURVE_WITH_KNOTS ( 'NONE', 3,
 ( #293, #797, #454, #391, #45, #609, #939 ),
 .UNSPECIFIED., .F., .F.,
 ( 4, 3, 4 ),
 ( 2.006880482178835743E-07, 0.001639548481769340788, 0.002264619246942384777 ),
 .UNSPECIFIED. ) ;
#714 = DIRECTION ( 'NONE',  ( 0.8949343913984794119, 0.4461977533473618918, 2.073268827748341871E-16 ) ) ;
#715 = EDGE_LOOP ( 'NONE', ( #882, #706, #870, #557 ) ) ;
#716 = ORIENTED_EDGE ( 'NONE', *, *, #850, .T. ) ;
#717 = LOCAL_TIME ( 18, 50, 19.00000000000000000, #591 ) ;
#718 = FACE_OUTER_BOUND ( 'NONE', #357, .T. ) ;
#719 = VECTOR ( 'NONE', #427, 1000.000000000000227 ) ;
#720 = CIRCLE ( 'NONE', #297, 0.8769712600522026058 ) ;
#721 = SPHERICAL_SURFACE ( 'NONE', #105, 6.500000000000000000 ) ;
#722 = VERTEX_POINT ( 'NONE', #995 ) ;
#723 = EDGE_LOOP ( 'NONE', ( #154, #492, #508, #457 ) ) ;
#724 = DIRECTION ( 'NONE',  ( 1.000000000000000000, 0.000000000000000000, 0.000000000000000000 ) ) ;
#725 = CARTESIAN_POINT ( 'NONE',  ( 2.339999999999999858, 0.000000000000000000, 0.000000000000000000 ) ) ;
#726 = EDGE_CURVE ( 'NONE', #779, #783, #261, .T. ) ;
#727 = CARTESIAN_POINT ( 'NONE',  ( 2.339999999999999858, 0.9833192322604999980, 0.4730000000000001981 ) ) ;
#728 = ORIENTED_EDGE ( 'NONE', *, *, #905, .F. ) ;
#729 = DIRECTION ( 'NONE',  ( 0.000000000000000000, -1.000000000000000000, -3.491481338843133355E-15 ) ) ;
#730 = CARTESIAN_POINT ( 'NONE',  ( 0.08289921396186558655, -0.9203741097123250281, -0.4729999999999999205 ) ) ;
#731 = DIRECTION ( 'NONE',  ( -1.091896089901488595E-16, -1.260700200564539845E-16, 1.000000000000000000 ) ) ;
#732 = VERTEX_POINT ( 'NONE', #514 ) ;
#733 = FACE_OUTER_BOUND ( 'NONE', #715, .T. ) ;
#734 = CARTESIAN_POINT ( 'NONE',  ( 2.339999999999999858, 0.4729999999999968674, 0.7384778879272948515 ) ) ;
#735 = AXIS2_PLACEMENT_3D ( 'NONE', #53, #389, #705 ) ;
#736 = AXIS2_PLACEMENT_3D ( 'NONE', #573, #731, #897 ) ;
#737 = DIRECTION ( 'NONE',  ( 0.000000000000000000, 0.000000000000000000, 1.000000000000000000 ) ) ;
#738 = ADVANCED_FACE ( 'NONE', ( #174 ), #926, .F. ) ;
#739 = ORIENTED_EDGE ( 'NONE', *, *, #80, .T. ) ;
#740 = CARTESIAN_POINT ( 'NONE',  ( 6.500000000000000000, 0.000000000000000000, 0.000000000000000000 ) ) ;
#741 = DIRECTION ( 'NONE',  ( 0.000000000000000000, 4.584364365689238040E-16, -1.000000000000000000 ) ) ;
#742 = FACE_OUTER_BOUND ( 'NONE', #571, .T. ) ;
#743 = ORIENTED_EDGE ( 'NONE', *, *, #439, .T. ) ;
#744 = EDGE_CURVE ( 'NONE', #86, #112, #448, .T. ) ;
#745 = PERSON_AND_ORGANIZATION_ROLE ( 'classification_officer' ) ;
#746 = CARTESIAN_POINT ( 'NONE',  ( 6.500000000000000000, 0.000000000000000000, 0.000000000000000000 ) ) ;
#747 = CARTESIAN_POINT ( 'NONE',  ( -997.3750547645788629, 0.000000000000000000, 0.000000000000000000 ) ) ;
#748 = ORIENTED_EDGE ( 'NONE', *, *, #224, .F. ) ;
#749 = CALENDAR_DATE ( 2026, 22, 6 ) ;
#750 = EDGE_CURVE ( 'NONE', #806, #517, #520, .T. ) ;
#751 = CARTESIAN_POINT ( 'NONE',  ( 1.969089724819174547, -0.4729999999999974780, -0.7690991841739424073 ) ) ;
#752 = CONICAL_SURFACE ( 'NONE', #19, 0.8769712600522026058, 0.06981317007976589606 ) ;
#753 = CONICAL_SURFACE ( 'NONE', #927, 0.8769712600522026058, 0.06981317007976589606 ) ;
#754 = DIRECTION ( 'NONE',  ( 0.000000000000000000, 0.000000000000000000, 1.000000000000000000 ) ) ;
#755 = VECTOR ( 'NONE', #270, 1000.000000000000227 ) ;
#756 = EDGE_LOOP ( 'NONE', ( #748, #823 ) ) ;
#757 = VECTOR ( 'NONE', #707, 1000.000000000000000 ) ;
#758 = APPROVAL_DATE_TIME ( #661, #840 ) ;
#759 = CC_DESIGN_DATE_AND_TIME_ASSIGNMENT ( #1013, #350, ( #102 ) ) ;
#760 = ORIENTED_EDGE ( 'NONE', *, *, #677, .F. ) ;
#761 = CARTESIAN_POINT ( 'NONE',  ( 2.339999999999999858, -0.4729999999999975890, -0.7384778879272894114 ) ) ;
#762 = EDGE_CURVE ( 'NONE', #635, #732, #369, .T. ) ;
#763 = DIRECTION ( 'NONE',  ( 0.000000000000000000, 0.000000000000000000, 1.000000000000000000 ) ) ;
#764 = VERTEX_POINT ( 'NONE', #438 ) ;
#765 = CALENDAR_DATE ( 2026, 22, 6 ) ;
#766 = VERTEX_POINT ( 'NONE', #916 ) ;
#767 = DIRECTION ( 'NONE',  ( 0.000000000000000000, 0.000000000000000000, 1.000000000000000000 ) ) ;
#768 = DIRECTION ( 'NONE',  ( -1.000000000000000000, -0.000000000000000000, -0.000000000000000000 ) ) ;
#769 = ORIENTED_EDGE ( 'NONE', *, *, #186, .T. ) ;
#770 = PERSON_AND_ORGANIZATION_ROLE ( 'design_supplier' ) ;
#771 = VERTEX_POINT ( 'NONE', #179 ) ;
#772 = DIRECTION ( 'NONE',  ( -0.000000000000000000, 0.000000000000000000, 1.000000000000000000 ) ) ;
#773 = DIRECTION ( 'NONE',  ( 0.000000000000000000, 0.000000000000000000, 1.000000000000000000 ) ) ;
#774 = ORIENTED_EDGE ( 'NONE', *, *, #1020, .F. ) ;
#775 = EDGE_CURVE ( 'NONE', #1055, #952, #923, .T. ) ;
#776 = AXIS2_PLACEMENT_3D ( 'NONE', #290, #941, #1029 ) ;
#777 = CARTESIAN_POINT ( 'NONE',  ( 1.376524617020200347, 3.999999999999999112, 0.000000000000000000 ) ) ;
#778 = CARTESIAN_POINT ( 'NONE',  ( 0.2906153877829637522, 0.9040433127310208983, 0.4730000000000000315 ) ) ;
#779 = VERTEX_POINT ( 'NONE', #674 ) ;
#780 = EDGE_CURVE ( 'NONE', #251, #764, #21, .T. ) ;
#781 = DIRECTION ( 'NONE',  ( 0.000000000000000000, 0.000000000000000000, 1.000000000000000000 ) ) ;
#782 = DIRECTION ( 'NONE',  ( 1.224775218828482517E-16, 1.260700200564540091E-16, -1.000000000000000000 ) ) ;
#783 = VERTEX_POINT ( 'NONE', #849 ) ;
#784 = FACE_OUTER_BOUND ( 'NONE', #723, .T. ) ;
#785 = EDGE_CURVE ( 'NONE', #12, #881, #712, .T. ) ;
#786 = PLANE ( 'NONE',  #683 ) ;
#787 = CARTESIAN_POINT ( 'NONE',  ( 0.3289325286808817417, -0.4730000000000073035, 1.986000318335080506 ) ) ;
#788 = AXIS2_PLACEMENT_3D ( 'NONE', #396, #377, #219 ) ;
#789 = ORIENTED_EDGE ( 'NONE', *, *, #8, .T. ) ;
#790 = VECTOR ( 'NONE', #236, 1000.000000000000114 ) ;
#791 = CARTESIAN_POINT ( 'NONE',  ( 1.250752705848436008, -0.8277514510525325608, -0.4729999999999998650 ) ) ;
#792 = CIRCLE ( 'NONE', #1065, 4.000000000000000000 ) ;
#793 = CARTESIAN_POINT ( 'NONE',  ( 6.064432258795712016, 3.050206565933512895E-15, -0.8736138818786205462 ) ) ;
#794 = EDGE_CURVE ( 'NONE', #71, #660, #139, .T. ) ;
#795 = LINE ( 'NONE', #461, #699 ) ;
#796 = ORIENTED_EDGE ( 'NONE', *, *, #205, .F. ) ;
#797 = CARTESIAN_POINT ( 'NONE',  ( 1.795425142900113569, 0.4730000000000024740, -0.7836998269370293313 ) ) ;
#798 = CARTESIAN_POINT ( 'NONE',  ( 0.08289921396186558655, 0.9203741097123252501, -0.4729999999999996985 ) ) ;
#799 = CYLINDRICAL_SURFACE ( 'NONE', #403, 4.000000000000000000 ) ;
#800 = EDGE_CURVE ( 'NONE', #553, #222, #50, .T. ) ;
#801 = ORIENTED_EDGE ( 'NONE', *, *, #690, .F. ) ;
#802 = CARTESIAN_POINT ( 'NONE',  ( 2.339999999999999858, -0.4730000000000036398, 0.9833192322604982216 ) ) ;
#803 = CARTESIAN_POINT ( 'NONE',  ( 0.3133329375583785437, 1.993777986261246582, 0.000000000000000000 ) ) ;
#804 = CARTESIAN_POINT ( 'NONE',  ( 0.000000000000000000, 0.000000000000000000, 0.000000000000000000 ) ) ;
#805 = APPROVAL ( #267, 'Coincident' ) ;
#806 = VERTEX_POINT ( 'NONE', #777 ) ;
#807 = CLOSED_SHELL ( 'NONE', ( #163, #886, #15, #704, #948, #637, #494, #237, #264, #177, #527, #738, #13, #936, #982, #400, #203, #919, #671, #664, #339, #289, #611, #418, #189, #116, #298, #830, #631, #950, #925, #304 ) ) ;
#808 = EDGE_CURVE ( 'NONE', #547, #511, #693, .T. ) ;
#809 = DIRECTION ( 'NONE',  ( -1.000000000000000000, -0.000000000000000000, -0.000000000000000000 ) ) ;
#810 = AXIS2_PLACEMENT_3D ( 'NONE', #510, #29, #838 ) ;
#811 = VECTOR ( 'NONE', #191, 1000.000000000000000 ) ;
#812 = DIRECTION ( 'NONE',  ( -0.000000000000000000, 0.000000000000000000, -1.000000000000000000 ) ) ;
#813 = CARTESIAN_POINT ( 'NONE',  ( 1.376524617020200569, 0.000000000000000000, 0.000000000000000000 ) ) ;
#814 = VERTEX_POINT ( 'NONE', #288 ) ;
#815 = DIRECTION ( 'NONE',  ( 0.000000000000000000, 0.000000000000000000, 1.000000000000000000 ) ) ;
#816 = EDGE_CURVE ( 'NONE', #251, #645, #894, .T. ) ;
#817 = FACE_OUTER_BOUND ( 'NONE', #313, .T. ) ;
#818 = CARTESIAN_POINT ( 'NONE',  ( 2.339999999999999858, 0.9833192322604999980, 0.4730000000000001981 ) ) ;
#819 = ORIENTED_EDGE ( 'NONE', *, *, #555, .T. ) ;
#820 = CC_DESIGN_DATE_AND_TIME_ASSIGNMENT ( #14, #26, ( #499 ) ) ;
#821 = CARTESIAN_POINT ( 'NONE',  ( 0.08289921396193535019, 0.4729999999999965343, 0.9203741097126199033 ) ) ;
#822 = DIRECTION ( 'NONE',  ( -1.000000000000000000, -0.000000000000000000, -0.000000000000000000 ) ) ;
#823 = ORIENTED_EDGE ( 'NONE', *, *, #309, .F. ) ;
#824 = DIRECTION ( 'NONE',  ( -1.000000000000000000, -0.000000000000000000, -0.000000000000000000 ) ) ;
#825 = CIRCLE ( 'NONE', #974, 0.8769712600522026058 ) ;
#826 = CARTESIAN_POINT ( 'NONE',  ( 3.449999999999999734, 0.000000000000000000, 0.000000000000000000 ) ) ;
#827 = AXIS2_PLACEMENT_3D ( 'NONE', #612, #213, #307 ) ;
#828 = CIRCLE ( 'NONE', #910, 2.000000000000000000 ) ;
#829 = CARTESIAN_POINT ( 'NONE',  ( 0.000000000000000000, 2.149999999999999911, 0.4730000000000001981 ) ) ;
#830 = ADVANCED_FACE ( 'NONE', ( #626 ), #55, .F. ) ;
#831 = ORIENTED_EDGE ( 'NONE', *, *, #272, .F. ) ;
#832 = PERSON_AND_ORGANIZATION ( #18446744073709551615, #18446744073709551615 ) ;
#833 = CARTESIAN_POINT ( 'NONE',  ( 2.339999999999999858, 0.000000000000000000, 0.000000000000000000 ) ) ;
#834 = DIRECTION ( 'NONE',  ( 0.8949343913984795229, -1.723752635465912269E-15, 0.4461977533473617807 ) ) ;
#835 = ORIENTED_EDGE ( 'NONE', *, *, #257, .T. ) ;
#836 = ORIENTED_EDGE ( 'NONE', *, *, #507, .T. ) ;
#837 = CARTESIAN_POINT ( 'NONE',  ( 1.250752705848436008, -0.4730000000000030846, 0.8277514510525307845 ) ) ;
#838 = DIRECTION ( 'NONE',  ( 0.000000000000000000, 3.620826753436136801E-15, -1.000000000000000000 ) ) ;
#839 = ORIENTED_EDGE ( 'NONE', *, *, #750, .T. ) ;
#840 = APPROVAL ( #1006, 'Coincident' ) ;
#841 = PERSON_AND_ORGANIZATION ( #18446744073709551615, #18446744073709551615 ) ;
#842 = EDGE_CURVE ( 'NONE', #547, #480, #792, .T. ) ;
#843 = CARTESIAN_POINT ( 'NONE',  ( 0.000000000000000000, 0.000000000000000000, 2.000000000000000000 ) ) ;
#844 = AXIS2_PLACEMENT_3D ( 'NONE', #793, #551, #51 ) ;
#845 = CARTESIAN_POINT ( 'NONE',  ( 3.100000000000000089, 2.000000000000000000, 0.000000000000000000 ) ) ;
#846 = CIRCLE ( 'NONE', #810, 6.482767233211447433 ) ;
#847 = ORIENTED_EDGE ( 'NONE', *, *, #966, .F. ) ;
#848 = APPLICATION_PROTOCOL_DEFINITION ( 'international standard', 'config_control_design', 1994, #695 ) ;
#849 = CARTESIAN_POINT ( 'NONE',  ( 0.3133329375583958631, -1.993777986261302981, -2.441673829085360346E-16 ) ) ;
#850 = EDGE_CURVE ( 'NONE', #574, #994, #713, .T. ) ;
#851 = CARTESIAN_POINT ( 'NONE',  ( 2.339999999999999858, -0.4730000000000036398, 0.9833192322604982216 ) ) ;
#852 = ORIENTED_EDGE ( 'NONE', *, *, #388, .F. ) ;
#853 = COORDINATED_UNIVERSAL_TIME_OFFSET ( 10, 0, .AHEAD. ) ;
#854 = DIRECTION ( 'NONE',  ( 0.000000000000000000, 1.000000000000000000, 1.224646799147353207E-16 ) ) ;
#855 = DIRECTION ( 'NONE',  ( -1.000000000000000000, -0.000000000000000000, -0.000000000000000000 ) ) ;
#856 = ORIENTED_EDGE ( 'NONE', *, *, #352, .T. ) ;
#857 = CARTESIAN_POINT ( 'NONE',  ( 0.000000000000000000, 0.4729999999999920934, 2.150000000000001688 ) ) ;
#858 = PLANE ( 'NONE',  #519 ) ;
#859 = ORIENTED_EDGE ( 'NONE', *, *, #808, .F. ) ;
#860 = AXIS2_PLACEMENT_3D ( 'NONE', #449, #922, #773 ) ;
#861 = EDGE_CURVE ( 'NONE', #398, #953, #487, .T. ) ;
#862 = AXIS2_PLACEMENT_3D ( 'NONE', #746, #103, #854 ) ;
#863 = CARTESIAN_POINT ( 'NONE',  ( 2.339999999999999414, -0.9833192322609848324, 0.4730000000000000870 ) ) ;
#864 = LINE ( 'NONE', #397, #370 ) ;
#865 = DIRECTION ( 'NONE',  ( 1.000000000000000000, 0.000000000000000000, 0.000000000000000000 ) ) ;
#866 = DIRECTION ( 'NONE',  ( -0.4461977533473618918, -3.534917260412425119E-15, 0.8949343913984794119 ) ) ;
#867 = PLANE ( 'NONE',  #436 ) ;
#868 = DIRECTION ( 'NONE',  ( 0.000000000000000000, -3.620826753436136801E-15, 1.000000000000000000 ) ) ;
#869 = MANIFOLD_SOLID_BREP ( 'RecessCore', #807 ) ;
#870 = ORIENTED_EDGE ( 'NONE', *, *, #355, .F. ) ;
#871 = CARTESIAN_POINT ( 'NONE',  ( 0.3289325286808817417, 1.986000318335082060, 0.4730000000000004201 ) ) ;
#872 = EDGE_CURVE ( 'NONE', #144, #437, #534, .T. ) ;
#873 = DIRECTION ( 'NONE',  ( 0.000000000000000000, -3.546611053431997020E-15, 1.000000000000000000 ) ) ;
#874 = ORIENTED_EDGE ( 'NONE', *, *, #168, .T. ) ;
#875 = CC_DESIGN_APPROVAL ( #317, ( #102 ) ) ;
#876 = ORIENTED_EDGE ( 'NONE', *, *, #28, .F. ) ;
#877 = AXIS2_PLACEMENT_3D ( 'NONE', #85, #651, #980 ) ;
#878 = CARTESIAN_POINT ( 'NONE',  ( 2.339999999999999858, 0.000000000000000000, 0.000000000000000000 ) ) ;
#879 = EDGE_CURVE ( 'NONE', #82, #732, #613, .T. ) ;
#880 = DIRECTION ( 'NONE',  ( 0.000000000000000000, 1.000000000000000000, 1.260700200564540091E-16 ) ) ;
#881 = VERTEX_POINT ( 'NONE', #863 ) ;
#882 = ORIENTED_EDGE ( 'NONE', *, *, #568, .T. ) ;
#883 = DIRECTION ( 'NONE',  ( -0.000000000000000000, 0.000000000000000000, -1.000000000000000000 ) ) ;
#884 = DIRECTION ( 'NONE',  ( -0.8949343913984794119, -0.4461977533473618918, 0.000000000000000000 ) ) ;
#885 = EDGE_LOOP ( 'NONE', ( #479, #1007, #138, #466 ) ) ;
#886 = ADVANCED_FACE ( 'NONE', ( #124 ), #940, .F. ) ;
#887 = ORIENTED_EDGE ( 'NONE', *, *, #429, .T. ) ;
#888 = DIRECTION ( 'NONE',  ( -1.000000000000000000, -0.000000000000000000, -0.000000000000000000 ) ) ;
#889 = DIRECTION ( 'NONE',  ( -0.4461977533475102176, -0.8949343913984055821, 0.000000000000000000 ) ) ;
#890 = EDGE_LOOP ( 'NONE', ( #447, #986, #99, #604 ) ) ;
#891 = AXIS2_PLACEMENT_3D ( 'NONE', #984, #642, #965 ) ;
#892 = FACE_OUTER_BOUND ( 'NONE', #623, .T. ) ;
#893 = AXIS2_PLACEMENT_3D ( 'NONE', #917, #33, #933 ) ;
#894 = CIRCLE ( 'NONE', #247, 6.482767233211447433 ) ;
#895 = DIRECTION ( 'NONE',  ( -0.4461977533473618918, 0.8949343913984794119, 4.102705333556974526E-16 ) ) ;
#896 = B_SPLINE_CURVE_WITH_KNOTS ( 'NONE', 3,
 ( #928, #346, #665, #999, #584, #955, #125 ),
 .UNSPECIFIED., .F., .F.,
 ( 4, 3, 4 ),
 ( 4.876257178739560070E-05, 0.001941009580115715932, 0.002313181066450479325 ),
 .UNSPECIFIED. ) ;
#897 = DIRECTION ( 'NONE',  ( 0.000000000000000000, -1.000000000000000000, -1.254327974631456148E-16 ) ) ;
#898 = ORIENTED_EDGE ( 'NONE', *, *, #217, .F. ) ;
#899 = CC_DESIGN_PERSON_AND_ORGANIZATION_ASSIGNMENT ( #575, #678, ( #176 ) ) ;
#900 = CARTESIAN_POINT ( 'NONE',  ( 13.10000000000000142, 0.000000000000000000, 2.000000000000000000 ) ) ;
#901 = DIRECTION ( 'NONE',  ( 0.000000000000000000, -3.617551358899587488E-15, 1.000000000000000000 ) ) ;
#902 = ORIENTED_EDGE ( 'NONE', *, *, #463, .T. ) ;
#903 = DIRECTION ( 'NONE',  ( 0.000000000000000000, 3.617551358899587488E-15, -1.000000000000000000 ) ) ;
#904 = DIRECTION ( 'NONE',  ( -0.000000000000000000, -0.000000000000000000, 1.000000000000000000 ) ) ;
#905 = EDGE_CURVE ( 'NONE', #806, #511, #483, .T. ) ;
#906 = DIRECTION ( 'NONE',  ( 0.000000000000000000, 3.546611053431997020E-15, -1.000000000000000000 ) ) ;
#907 = VERTEX_POINT ( 'NONE', #871 ) ;
#908 = AXIS2_PLACEMENT_3D ( 'NONE', #740, #883, #964 ) ;
#909 = CARTESIAN_POINT ( 'NONE',  ( 2.339999999999999858, 0.000000000000000000, 0.000000000000000000 ) ) ;
#910 = AXIS2_PLACEMENT_3D ( 'NONE', #1026, #211, #536 ) ;
#911 = VECTOR ( 'NONE', #1004, 1000.000000000000000 ) ;
#912 = FACE_OUTER_BOUND ( 'NONE', #363, .T. ) ;
#913 = ORIENTED_EDGE ( 'NONE', *, *, #481, .F. ) ;
#914 = APPROVAL_DATE_TIME ( #182, #317 ) ;
#915 = ORIENTED_EDGE ( 'NONE', *, *, #1052, .F. ) ;
#916 = CARTESIAN_POINT ( 'NONE',  ( 2.339999999999999858, -0.4729999999999975890, -0.7384778879272894114 ) ) ;
#917 = CARTESIAN_POINT ( 'NONE',  ( 0.000000000000000000, -2.149999999999998135, 0.4729999999999996985 ) ) ;
#918 = VERTEX_POINT ( 'NONE', #462 ) ;
#919 = ADVANCED_FACE ( 'NONE', ( #784 ), #701, .T. ) ;
#920 = PERSON_AND_ORGANIZATION_ROLE ( 'creator' ) ;
#921 = DIRECTION ( 'NONE',  ( 0.000000000000000000, 0.000000000000000000, -1.000000000000000000 ) ) ;
#922 = DIRECTION ( 'NONE',  ( -1.000000000000000000, -0.000000000000000000, -0.000000000000000000 ) ) ;
#923 = B_SPLINE_CURVE_WITH_KNOTS ( 'NONE', 3,
 ( #27, #509, #837, #359, #685, #97, #430 ),
 .UNSPECIFIED., .F., .F.,
 ( 4, 3, 4 ),
 ( 2.006880482178485283E-07, 0.001639548481769340788, 0.002264619246942384777 ),
 .UNSPECIFIED. ) ;
#924 = EDGE_LOOP ( 'NONE', ( #472, #501 ) ) ;
#925 = ADVANCED_FACE ( 'NONE', ( #549 ), #753, .F. ) ;
#926 = PLANE ( 'NONE',  #702 ) ;
#927 = AXIS2_PLACEMENT_3D ( 'NONE', #878, #140, #473 ) ;
#928 = CARTESIAN_POINT ( 'NONE',  ( 0.08289921396186558655, -0.9203741097123252501, 0.4729999999999998095 ) ) ;
#929 = CIRCLE ( 'NONE', #614, 6.426280380454245211 ) ;
#930 = ORIENTED_EDGE ( 'NONE', *, *, #205, .T. ) ;
#931 = APPROVAL_STATUS ( 'not_yet_approved' ) ;
#932 = PLANE ( 'NONE',  #121 ) ;
#933 = DIRECTION ( 'NONE',  ( 0.000000000000000000, 1.000000000000000000, 1.260700200564540091E-16 ) ) ;
#934 = EDGE_LOOP ( 'NONE', ( #117, #963, #7, #1047 ) ) ;
#935 = DIRECTION ( 'NONE',  ( -1.000000000000000000, -0.000000000000000000, -0.000000000000000000 ) ) ;
#936 = ADVANCED_FACE ( 'NONE', ( #718 ), #489, .F. ) ;
#937 = CARTESIAN_POINT ( 'NONE',  ( 6.500000000000000000, -5.963111948670284248E-17, 0.4730000000000007532 ) ) ;
#938 = VERTEX_POINT ( 'NONE', #401 ) ;
#939 = CARTESIAN_POINT ( 'NONE',  ( 0.08289921396193511427, 0.4730000000000031957, -0.9203741097126165727 ) ) ;
#940 = TOROIDAL_SURFACE ( 'NONE', #1034, 2.350000000000000089, 0.3499999999999999778 ) ;
#941 = DIRECTION ( 'NONE',  ( -0.4461977533473618918, 0.8949343913984794119, 4.102705333556974526E-16 ) ) ;
#942 = CIRCLE ( 'NONE', #382, 1.034803122255024244 ) ;
#943 = ORIENTED_EDGE ( 'NONE', *, *, #361, .F. ) ;
#944 = AXIS2_PLACEMENT_3D ( 'NONE', #523, #180, #531 ) ;
#945 = CARTESIAN_POINT ( 'NONE',  ( 3.449999999999999734, 0.000000000000000000, 0.000000000000000000 ) ) ;
#946 = CARTESIAN_POINT ( 'NONE',  ( 1.340455416935546706, 0.8207055025959651973, -0.4729999999999995874 ) ) ;
#947 = CARTESIAN_POINT ( 'NONE',  ( 2.339999999999999858, -0.7384778879272880792, -0.4729999999999994764 ) ) ;
#948 = ADVANCED_FACE ( 'NONE', ( #636 ), #162, .T. ) ;
#949 = ORIENTED_EDGE ( 'NONE', *, *, #762, .F. ) ;
#950 = ADVANCED_FACE ( 'NONE', ( #733 ), #648, .F. ) ;
#951 = CARTESIAN_POINT ( 'NONE',  ( 0.000000000000000000, -2.149999999999998135, 0.4729999999999996985 ) ) ;
#952 = VERTEX_POINT ( 'NONE', #252 ) ;
#953 = VERTEX_POINT ( 'NONE', #654 ) ;
#954 = CARTESIAN_POINT ( 'NONE',  ( 0.4983245163632165631, -0.8876225610985608583, -0.4729999999999999205 ) ) ;
#955 = CARTESIAN_POINT ( 'NONE',  ( 2.216368159026882445, -0.7487443765454411260, 0.4730000000000001426 ) ) ;
#956 = ORIENTED_EDGE ( 'NONE', *, *, #794, .T. ) ;
#957 = LOCAL_TIME ( 18, 50, 19.00000000000000000, #599 ) ;
#958 = VERTEX_POINT ( 'NONE', #641 ) ;
#959 = CIRCLE ( 'NONE', #502, 3.999999999999999112 ) ;
#960 = LINE ( 'NONE', #74, #1046 ) ;
#961 = CARTESIAN_POINT ( 'NONE',  ( 0.7117078093321046461, 0.8709367196318588134, -0.4729999999999996985 ) ) ;
#962 = ORIENTED_EDGE ( 'NONE', *, *, #384, .T. ) ;
#963 = ORIENTED_EDGE ( 'NONE', *, *, #394, .T. ) ;
#964 = DIRECTION ( 'NONE',  ( 0.000000000000000000, 1.000000000000000000, 0.000000000000000000 ) ) ;
#965 = DIRECTION ( 'NONE',  ( 0.000000000000000000, 0.000000000000000000, -1.000000000000000000 ) ) ;
#966 = EDGE_CURVE ( 'NONE', #682, #972, #452, .T. ) ;
#967 = PLANE ( 'NONE',  #977 ) ;
#968 = VERTEX_POINT ( 'NONE', #322 ) ;
#969 = DIRECTION ( 'NONE',  ( 0.000000000000000000, -2.664535259100375697E-15, -1.000000000000000000 ) ) ;
#970 = FACE_OUTER_BOUND ( 'NONE', #18, .T. ) ;
#971 = CARTESIAN_POINT ( 'NONE',  ( 0.08289921396193491998, -0.4729999999999966454, -0.9203741097126197923 ) ) ;
#972 = VERTEX_POINT ( 'NONE', #149 ) ;
#973 = AXIS2_PLACEMENT_3D ( 'NONE', #183, #663, #526 ) ;
#974 = AXIS2_PLACEMENT_3D ( 'NONE', #158, #809, #815 ) ;
#975 = CIRCLE ( 'NONE', #2, 6.482767233211447433 ) ;
#976 =( NAMED_UNIT ( * ) SI_UNIT ( $, .STERADIAN. ) SOLID_ANGLE_UNIT ( ) );
#977 = AXIS2_PLACEMENT_3D ( 'NONE', #578, #990, #486 ) ;
#978 = AXIS2_PLACEMENT_3D ( 'NONE', #279, #16, #767 ) ;
#979 = CARTESIAN_POINT ( 'NONE',  ( 1.376524617020200569, 0.000000000000000000, 3.999999999999999112 ) ) ;
#980 = DIRECTION ( 'NONE',  ( 0.000000000000000000, 0.000000000000000000, 1.000000000000000000 ) ) ;
#981 = ORIENTED_EDGE ( 'NONE', *, *, #142, .T. ) ;
#982 = ADVANCED_FACE ( 'NONE', ( #892 ), #412, .T. ) ;
#983 = CARTESIAN_POINT ( 'NONE',  ( 2.339999999999999858, 0.000000000000000000, 0.000000000000000000 ) ) ;
#984 = CARTESIAN_POINT ( 'NONE',  ( 2.339999999999999858, 0.9833192322604999980, 0.4730000000000001981 ) ) ;
#985 = DIRECTION ( 'NONE',  ( -1.000000000000000000, -0.000000000000000000, -0.000000000000000000 ) ) ;
#986 = ORIENTED_EDGE ( 'NONE', *, *, #538, .F. ) ;
#987 = DIRECTION ( 'NONE',  ( 1.000000000000000000, 0.000000000000000000, 0.000000000000000000 ) ) ;
#988 = EDGE_CURVE ( 'NONE', #112, #1055, #960, .T. ) ;
#989 = DIRECTION ( 'NONE',  ( -1.000000000000000000, -0.000000000000000000, -0.000000000000000000 ) ) ;
#990 = DIRECTION ( 'NONE',  ( -1.091896089901488595E-16, -1.260700200564539845E-16, 1.000000000000000000 ) ) ;
#991 = EDGE_LOOP ( 'NONE', ( #161, #35, #676, #362, #524, #56, #268, #667, #347, #542, #1002, #282, #303 ) ) ;
#992 = SHAPE_DEFINITION_REPRESENTATION ( #1010, #608 ) ;
#993 = AXIS2_PLACEMENT_3D ( 'NONE', #1060, #230, #67 ) ;
#994 = VERTEX_POINT ( 'NONE', #561 ) ;
#995 = CARTESIAN_POINT ( 'NONE',  ( 0.08289921396193535019, 0.4729999999999965343, 0.9203741097126199033 ) ) ;
#996 = CIRCLE ( 'NONE', #333, 3.999999999999999112 ) ;
#997 = CIRCLE ( 'NONE', #697, 0.8769712600522026058 ) ;
#998 = EDGE_CURVE ( 'NONE', #437, #112, #167, .T. ) ;
#999 = CARTESIAN_POINT ( 'NONE',  ( 1.969089724819174991, -0.7690991841739408530, 0.4730000000000000870 ) ) ;
#1000 = ORIENTED_EDGE ( 'NONE', *, *, #408, .T. ) ;
#1001 = PERSON_AND_ORGANIZATION_ROLE ( 'creator' ) ;
#1002 = ORIENTED_EDGE ( 'NONE', *, *, #816, .F. ) ;
#1003 = DIRECTION ( 'NONE',  ( -0.000000000000000000, 0.000000000000000000, 1.000000000000000000 ) ) ;
#1004 = DIRECTION ( 'NONE',  ( -0.000000000000000000, 1.000000000000000000, 5.512971458886362801E-17 ) ) ;
#1005 = ORIENTED_EDGE ( 'NONE', *, *, #199, .F. ) ;
#1006 = APPROVAL_STATUS ( 'not_yet_approved' ) ;
#1007 = ORIENTED_EDGE ( 'NONE', *, *, #677, .T. ) ;
#1008 = CARTESIAN_POINT ( 'NONE',  ( 0.000000000000000000, 2.149999999999999911, -0.4729999999999995874 ) ) ;
#1009 = CARTESIAN_POINT ( 'NONE',  ( 13.10000000000000142, 0.000000000000000000, 0.000000000000000000 ) ) ;
#1010 = PRODUCT_DEFINITION_SHAPE ( 'NONE', 'NONE',  #102 ) ;
#1011 = ORIENTED_EDGE ( 'NONE', *, *, #388, .T. ) ;
#1012 = CC_DESIGN_PERSON_AND_ORGANIZATION_ASSIGNMENT ( #841, #745, ( #499 ) ) ;
#1013 = DATE_AND_TIME ( #92, #367 ) ;
#1014 = EDGE_LOOP ( 'NONE', ( #287, #465, #743, #259, #913 ) ) ;
#1015 = CYLINDRICAL_SURFACE ( 'NONE', #978, 2.000000000000000000 ) ;
#1016 = AXIS2_PLACEMENT_3D ( 'NONE', #9, #572, #903 ) ;
#1017 = DIRECTION ( 'NONE',  ( 0.000000000000000000, 0.000000000000000000, 1.000000000000000000 ) ) ;
#1018 = CONICAL_SURFACE ( 'NONE', #485, 3077.683537175317724, 1.256637061435923464 ) ;
#1019 = ORIENTED_EDGE ( 'NONE', *, *, #590, .F. ) ;
#1020 = EDGE_CURVE ( 'NONE', #766, #71, #825, .T. ) ;
#1021 = EDGE_LOOP ( 'NONE', ( #229, #625, #366, #836, #321 ) ) ;
#1022 = DIRECTION ( 'NONE',  ( -1.000000000000000000, -0.000000000000000000, -0.000000000000000000 ) ) ;
#1023 = CARTESIAN_POINT ( 'NONE',  ( 2.339999999999999858, -0.9833192322609841662, -0.4729999999999995874 ) ) ;
#1024 = ORIENTED_EDGE ( 'NONE', *, *, #110, .T. ) ;
#1025 = CARTESIAN_POINT ( 'NONE',  ( 3.100000000000000089, 0.000000000000000000, 0.000000000000000000 ) ) ;
#1026 = CARTESIAN_POINT ( 'NONE',  ( 3.449999999999999734, 0.000000000000000000, 0.000000000000000000 ) ) ;
#1027 = ORIENTED_EDGE ( 'NONE', *, *, #619, .F. ) ;
#1028 = DIRECTION ( 'NONE',  ( -1.091896089901488595E-16, -1.260700200564539845E-16, 1.000000000000000000 ) ) ;
#1029 = DIRECTION ( 'NONE',  ( -0.8949343913984794119, -0.4461977533473620028, 0.000000000000000000 ) ) ;
#1030 = APPROVAL_PERSON_ORGANIZATION ( #31, #317, #172 ) ;
#1031 = EDGE_CURVE ( 'NONE', #222, #574, #294, .T. ) ;
#1032 = DIRECTION ( 'NONE',  ( 0.000000000000000000, 0.000000000000000000, 1.000000000000000000 ) ) ;
#1033 = CONICAL_SURFACE ( 'NONE', #434, 3077.683537175317724, 1.256637061435923464 ) ;
#1034 = AXIS2_PLACEMENT_3D ( 'NONE', #945, #539, #127 ) ;
#1035 = CARTESIAN_POINT ( 'NONE',  ( 2.339999999999999858, 0.000000000000000000, 0.000000000000000000 ) ) ;
#1036 = DIRECTION ( 'NONE',  ( 1.224775218828482517E-16, 1.000000000000000000, 3.617551358899587488E-15 ) ) ;
#1037 = PLANE ( 'NONE',  #564 ) ;
#1038 = VERTEX_POINT ( 'NONE', #316 ) ;
#1039 = DIRECTION ( 'NONE',  ( -1.000000000000000000, -0.000000000000000000, -0.000000000000000000 ) ) ;
#1040 = LINE ( 'NONE', #306, #566 ) ;
#1041 = LINE ( 'NONE', #727, #244 ) ;
#1042 = EDGE_LOOP ( 'NONE', ( #1054, #956, #874, #445 ) ) ;
#1043 = DIRECTION ( 'NONE',  ( 0.000000000000000000, 0.000000000000000000, 1.000000000000000000 ) ) ;
#1044 = DIRECTION ( 'NONE',  ( 1.224775218828482517E-16, 1.260700200564540091E-16, -1.000000000000000000 ) ) ;
#1045 = EDGE_LOOP ( 'NONE', ( #585, #20, #91, #595 ) ) ;
#1046 = VECTOR ( 'NONE', #421, 1000.000000000000000 ) ;
#1047 = ORIENTED_EDGE ( 'NONE', *, *, #780, .F. ) ;
#1048 = CIRCLE ( 'NONE', #736, 6.482767233211447433 ) ;
#1049 = UNCERTAINTY_MEASURE_WITH_UNIT (LENGTH_MEASURE( 1.000000000000000082E-05 ), #646, 'distance_accuracy_value', 'NONE');
#1050 = AXIS2_PLACEMENT_3D ( 'NONE', #569, #895, #68 ) ;
#1051 = DIRECTION ( 'NONE',  ( 0.000000000000000000, 0.000000000000000000, 1.000000000000000000 ) ) ;
#1052 = EDGE_CURVE ( 'NONE', #1055, #682, #577, .T. ) ;
#1053 = PLANE ( 'NONE',  #891 ) ;
#1054 = ORIENTED_EDGE ( 'NONE', *, *, #272, .T. ) ;
#1055 = VERTEX_POINT ( 'NONE', #78 ) ;
#1056 = DIRECTION ( 'NONE',  ( -1.000000000000000000, -0.000000000000000000, -0.000000000000000000 ) ) ;
#1057 = CARTESIAN_POINT ( 'NONE',  ( 1.340455416935546706, 0.4729999999999967564, 0.8207055025959670846 ) ) ;
#1058 = LINE ( 'NONE', #643, #700 ) ;
#1059 = EDGE_LOOP ( 'NONE', ( #1000, #332, #541, #415 ) ) ;
#1060 = CARTESIAN_POINT ( 'NONE',  ( 2.339999999999999858, 0.000000000000000000, 0.000000000000000000 ) ) ;
#1061 = FACE_OUTER_BOUND ( 'NONE', #130, .T. ) ;
#1062 = CARTESIAN_POINT ( 'NONE',  ( 2.339999999999999858, 0.4730000000000029736, -0.9833192322609823899 ) ) ;
#1063 = EDGE_CURVE ( 'NONE', #722, #814, #942, .T. ) ;
#1064 = ORIENTED_EDGE ( 'NONE', *, *, #800, .T. ) ;
#1065 = AXIS2_PLACEMENT_3D ( 'NONE', #1025, #57, #781 ) ;
ENDSEC;
END-ISO-10303-21;
