ISO-10303-21;
HEADER;
FILE_DESCRIPTION (( 'STEP AP203' ),
    '1' );
FILE_NAME ('pan cross head_am.STEP',
    '2026-06-22T08:50:25',
    ( 'localuser' ),
    ( '' ),
    'SwSTEP 2.0',
    'SolidWorks 2025',
    '' );
FILE_SCHEMA (( 'CONFIG_CONTROL_DESIGN' ));
ENDSEC;

DATA;
#1 = AXIS2_PLACEMENT_3D ( 'NONE', #28, #406, #452 ) ;
#2 = AXIS2_PLACEMENT_3D ( 'NONE', #639, #694, #589 ) ;
#3 = PERSON_AND_ORGANIZATION ( #18446744073709551615, #18446744073709551615 ) ;
#4 = DIRECTION ( 'NONE',  ( 0.6261493566299924929, 0.7797031378619984077, 0.000000000000000000 ) ) ;
#5 = EDGE_LOOP ( 'NONE', ( #172, #675, #684 ) ) ;
#6 = EDGE_CURVE ( 'NONE', #337, #215, #458, .T. ) ;
#7 = VERTEX_POINT ( 'NONE', #457 ) ;
#8 = APPLICATION_PROTOCOL_DEFINITION ( 'international standard', 'config_control_design', 1994, #648 ) ;
#9 = LINE ( 'NONE', #667, #644 ) ;
#10 = VERTEX_POINT ( 'NONE', #85 ) ;
#11 = ADVANCED_FACE ( 'NONE', ( #122 ), #73, .T. ) ;
#12 = ORIENTED_EDGE ( 'NONE', *, *, #225, .F. ) ;
#13 = LINE ( 'NONE', #514, #587 ) ;
#14 = EDGE_LOOP ( 'NONE', ( #428, #262, #189, #590, #267 ) ) ;
#15 = CIRCLE ( 'NONE', #655, 6.498242175551664168 ) ;
#16 = AXIS2_PLACEMENT_3D ( 'NONE', #17, #619, #234 ) ;
#17 = CARTESIAN_POINT ( 'NONE',  ( 3.099999999999998757, 0.000000000000000000, 0.000000000000000000 ) ) ;
#18 = CARTESIAN_POINT ( 'NONE',  ( 6.500000000000000000, -7.225416114969382221E-16, 0.000000000000000000 ) ) ;
#19 = DIRECTION ( 'NONE',  ( 0.000000000000000000, 0.000000000000000000, 1.000000000000000000 ) ) ;
#20 = ORIENTED_EDGE ( 'NONE', *, *, #361, .F. ) ;
#21 = CARTESIAN_POINT ( 'NONE',  ( 2.449999999999999734, 0.2325000000000002620, 0.2325000000000000122 ) ) ;
#22 = DIRECTION ( 'NONE',  ( 0.000000000000000000, 0.000000000000000000, 1.000000000000000000 ) ) ;
#23 = ORIENTED_EDGE ( 'NONE', *, *, #124, .T. ) ;
#24 = CARTESIAN_POINT ( 'NONE',  ( 6.485719607574023549, 0.1504815545963101298, 5.436827081121596092E-16 ) ) ;
#25 = AXIS2_PLACEMENT_3D ( 'NONE', #254, #369, #472 ) ;
#26 = DIRECTION ( 'NONE',  ( 0.000000000000000000, -1.224646799147352714E-16, 1.000000000000000000 ) ) ;
#27 = CC_DESIGN_PERSON_AND_ORGANIZATION_ASSIGNMENT ( #329, #212, ( #566 ) ) ;
#28 = CARTESIAN_POINT ( 'NONE',  ( 6.500000000000000000, -7.225416114969382221E-16, 0.000000000000000000 ) ) ;
#29 = EDGE_CURVE ( 'NONE', #7, #325, #264, .T. ) ;
#30 = LINE ( 'NONE', #247, #35 ) ;
#31 = DIRECTION ( 'NONE',  ( 0.7797031378619984077, -2.186188794002252624E-15, 0.6261493566299924929 ) ) ;
#32 = CIRCLE ( 'NONE', #565, 6.498242175551664168 ) ;
#33 = CARTESIAN_POINT ( 'NONE',  ( 0.3140046660742119577, 0.4352015980153995378, 1.947835028366935006 ) ) ;
#34 = DIRECTION ( 'NONE',  ( -0.09447351621610808325, 1.209278611295048398E-16, -0.9955273751804943894 ) ) ;
#35 = VECTOR ( 'NONE', #478, 1000.000000000000227 ) ;
#36 = ORIENTED_EDGE ( 'NONE', *, *, #583, .T. ) ;
#37 = CARTESIAN_POINT ( 'NONE',  ( 6.485719607574023549, -7.225416114969382221E-16, 0.1504815545963103518 ) ) ;
#38 = PLANE ( 'NONE',  #287 ) ;
#39 = ORIENTED_EDGE ( 'NONE', *, *, #133, .F. ) ;
#40 =( NAMED_UNIT ( * ) PLANE_ANGLE_UNIT ( ) SI_UNIT ( $, .RADIAN. ) );
#41 = FACE_OUTER_BOUND ( 'NONE', #134, .T. ) ;
#42 = EDGE_LOOP ( 'NONE', ( #423, #695, #177 ) ) ;
#43 = EDGE_CURVE ( 'NONE', #179, #63, #356, .T. ) ;
#44 = APPROVAL_STATUS ( 'not_yet_approved' ) ;
#45 = CARTESIAN_POINT ( 'NONE',  ( 2.450000000000000178, -0.2325000000000000122, -0.2325000000000000122 ) ) ;
#46 = AXIS2_PLACEMENT_3D ( 'NONE', #353, #292, #235 ) ;
#47 = ORIENTED_EDGE ( 'NONE', *, *, #263, .F. ) ;
#48 = AXIS2_PLACEMENT_3D ( 'NONE', #409, #629, #536 ) ;
#49 = AXIS2_PLACEMENT_3D ( 'NONE', #348, #130, #408 ) ;
#50 = CALENDAR_DATE ( 2026, 22, 6 ) ;
#51 = FACE_OUTER_BOUND ( 'NONE', #280, .T. ) ;
#52 = VERTEX_POINT ( 'NONE', #617 ) ;
#53 = COORDINATED_UNIVERSAL_TIME_OFFSET ( 10, 0, .AHEAD. ) ;
#54 = EDGE_CURVE ( 'NONE', #52, #59, #509, .T. ) ;
#55 = DIRECTION ( 'NONE',  ( 0.000000000000000000, 0.000000000000000000, -1.000000000000000000 ) ) ;
#56 = ORIENTED_EDGE ( 'NONE', *, *, #54, .T. ) ;
#57 = DATE_TIME_ROLE ( 'creation_date' ) ;
#58 = CYLINDRICAL_SURFACE ( 'NONE', #553, 4.000000000000000000 ) ;
#59 = VERTEX_POINT ( 'NONE', #286 ) ;
#60 = AXIS2_PLACEMENT_3D ( 'NONE', #239, #572, #26 ) ;
#61 = DIRECTION ( 'NONE',  ( -1.000000000000000000, -0.000000000000000000, -0.000000000000000000 ) ) ;
#62 = ORIENTED_EDGE ( 'NONE', *, *, #637, .F. ) ;
#63 = VERTEX_POINT ( 'NONE', #574 ) ;
#64 = DIRECTION ( 'NONE',  ( -1.000000000000000000, -0.000000000000000000, -0.000000000000000000 ) ) ;
#65 = ORIENTED_EDGE ( 'NONE', *, *, #583, .F. ) ;
#66 = ADVANCED_FACE ( 'NONE', ( #340 ), #518, .T. ) ;
#67 = DIRECTION ( 'NONE',  ( 0.9955273751804943894, 0.000000000000000000, 0.09447351621610813877 ) ) ;
#68 = CYLINDRICAL_SURFACE ( 'NONE', #368, 2.000000000000000000 ) ;
#69 = AXIS2_PLACEMENT_3D ( 'NONE', #238, #127, #559 ) ;
#70 = CIRCLE ( 'NONE', #265, 3.800664451827242107 ) ;
#71 =( GEOMETRIC_REPRESENTATION_CONTEXT ( 3 ) GLOBAL_UNCERTAINTY_ASSIGNED_CONTEXT ( ( #612 ) ) GLOBAL_UNIT_ASSIGNED_CONTEXT ( ( #532, #40, #466 ) ) REPRESENTATION_CONTEXT ( 'NONE', 'WORKASPACE' ) );
#72 = DIRECTION ( 'NONE',  ( 0.7775774828448951403, -0.07379051622915623609, -0.6244423255091148262 ) ) ;
#73 = PLANE ( 'NONE',  #552 ) ;
#74 = EDGE_CURVE ( 'NONE', #537, #96, #160, .T. ) ;
#75 = CARTESIAN_POINT ( 'NONE',  ( 0.000000000000000000, 0.4649999999999923084, 2.200000000000001954 ) ) ;
#76 = CARTESIAN_POINT ( 'NONE',  ( 1.616353821170091187, 4.898587196589411843E-16, -3.999999999999999112 ) ) ;
#77 = ORIENTED_EDGE ( 'NONE', *, *, #104, .F. ) ;
#78 = ADVANCED_BREP_SHAPE_REPRESENTATION ( 'pan cross head_am_B18.6.7M - M4 x 0.7 x 20 Type I Cross Recessed PHMS --20N', ( #350, #413 ), #71 ) ;
#79 = CARTESIAN_POINT ( 'NONE',  ( 6.485719607574023549, -7.225416114969382221E-16, 0.1504815545963103518 ) ) ;
#80 = EDGE_CURVE ( 'NONE', #484, #215, #656, .T. ) ;
#81 = LINE ( 'NONE', #296, #459 ) ;
#82 = AXIS2_PLACEMENT_3D ( 'NONE', #182, #185, #511 ) ;
#83 = DIRECTION ( 'NONE',  ( 0.6261493566299924929, -0.7797031378619984077, -9.089847698534877089E-17 ) ) ;
#84 = SECURITY_CLASSIFICATION ( '', '', #432 ) ;
#85 = CARTESIAN_POINT ( 'NONE',  ( 0.3140046660742119577, -0.4352015980153990937, -1.947835028366934562 ) ) ;
#86 = LINE ( 'NONE', #303, #347 ) ;
#87 = CARTESIAN_POINT ( 'NONE',  ( 5.025653750643289897, -1.835907654853336179, 0.000000000000000000 ) ) ;
#88 = CARTESIAN_POINT ( 'NONE',  ( 2.450000000000000178, -0.2325000000000000122, -0.2325000000000000122 ) ) ;
#89 = DIRECTION ( 'NONE',  ( 1.000000000000000000, 0.000000000000000000, 0.000000000000000000 ) ) ;
#90 = ORIENTED_EDGE ( 'NONE', *, *, #593, .T. ) ;
#91 = CARTESIAN_POINT ( 'NONE',  ( 2.739517153748411538, 4.336808689942017736E-16, 0.2050254129606099429 ) ) ;
#92 = ORIENTED_EDGE ( 'NONE', *, *, #621, .F. ) ;
#93 = DIRECTION ( 'NONE',  ( 0.9955273751804943894, 0.000000000000000000, 0.09447351621610813877 ) ) ;
#94 = ADVANCED_FACE ( 'NONE', ( #454 ), #68, .T. ) ;
#95 = CARTESIAN_POINT ( 'NONE',  ( 0.3140046660742128459, 1.947835028366933452, -0.4352015980154063657 ) ) ;
#96 = VERTEX_POINT ( 'NONE', #128 ) ;
#97 = CARTESIAN_POINT ( 'NONE',  ( 3.100000000000000089, 2.000000000000000000, 0.000000000000000000 ) ) ;
#98 = DIRECTION ( 'NONE',  ( -0.09447351621610808325, 1.209278611295048645E-16, -0.9955273751804943894 ) ) ;
#99 = ORIENTED_EDGE ( 'NONE', *, *, #463, .T. ) ;
#100 = DIRECTION ( 'NONE',  ( 0.000000000000000000, 0.000000000000000000, 1.000000000000000000 ) ) ;
#101 = LOCAL_TIME ( 18, 50, 25.00000000000000000, #53 ) ;
#102 = PLANE ( 'NONE',  #147 ) ;
#103 = VERTEX_POINT ( 'NONE', #76 ) ;
#104 = EDGE_CURVE ( 'NONE', #325, #484, #70, .T. ) ;
#105 = APPROVAL_STATUS ( 'not_yet_approved' ) ;
#106 = DIRECTION ( 'NONE',  ( -1.000000000000000000, -0.000000000000000000, -0.000000000000000000 ) ) ;
#107 = ORIENTED_EDGE ( 'NONE', *, *, #534, .F. ) ;
#108 = CC_DESIGN_PERSON_AND_ORGANIZATION_ASSIGNMENT ( #153, #707, ( #503 ) ) ;
#109 = DATE_AND_TIME ( #548, #101 ) ;
#110 = LINE ( 'NONE', #495, #346 ) ;
#111 = ORIENTED_EDGE ( 'NONE', *, *, #283, .F. ) ;
#112 = APPROVAL_ROLE ( '' ) ;
#113 = FACE_OUTER_BOUND ( 'NONE', #558, .T. ) ;
#114 = ORIENTED_EDGE ( 'NONE', *, *, #627, .T. ) ;
#115 = CIRCLE ( 'NONE', #232, 4.000000000000000000 ) ;
#116 = LINE ( 'NONE', #500, #657 ) ;
#117 = EDGE_CURVE ( 'NONE', #103, #325, #679, .T. ) ;
#118 = ORIENTED_EDGE ( 'NONE', *, *, #297, .T. ) ;
#119 = CARTESIAN_POINT ( 'NONE',  ( 0.000000000000000000, 2.200000000000000178, -0.4650000000000000244 ) ) ;
#120 = DIRECTION ( 'NONE',  ( -0.09447351621610808325, 0.9955273751804943894, 3.596793113879687400E-15 ) ) ;
#121 = CARTESIAN_POINT ( 'NONE',  ( 6.485719607574023549, -0.1504815545963103518, -5.254035397131191667E-16 ) ) ;
#122 = FACE_OUTER_BOUND ( 'NONE', #535, .T. ) ;
#123 = AXIS2_PLACEMENT_3D ( 'NONE', #18, #560, #401 ) ;
#124 = EDGE_CURVE ( 'NONE', #96, #531, #81, .T. ) ;
#125 = AXIS2_PLACEMENT_3D ( 'NONE', #391, #4, #663 ) ;
#126 = TOROIDAL_SURFACE ( 'NONE', #221, 3.520000000000000018, 0.4799999999999997602 ) ;
#127 = DIRECTION ( 'NONE',  ( -1.000000000000000000, -0.000000000000000000, -0.000000000000000000 ) ) ;
#128 = CARTESIAN_POINT ( 'NONE',  ( 0.3140046660742128459, 1.947835028366933452, 0.4352015980154064767 ) ) ;
#129 = EDGE_CURVE ( 'NONE', #496, #640, #278, .T. ) ;
#130 = DIRECTION ( 'NONE',  ( -0.09447351621610813877, 0.000000000000000000, 0.9955273751804943894 ) ) ;
#131 = ORIENTED_EDGE ( 'NONE', *, *, #627, .F. ) ;
#132 = DIRECTION ( 'NONE',  ( 0.000000000000000000, 0.000000000000000000, 1.000000000000000000 ) ) ;
#133 = EDGE_CURVE ( 'NONE', #52, #668, #366, .T. ) ;
#134 = EDGE_LOOP ( 'NONE', ( #709, #431, #654 ) ) ;
#135 = CLOSED_SHELL ( 'NONE', ( #561, #351, #338, #606, #66, #665, #567, #244, #455, #94, #712, #424, #233, #170, #305, #319, #446, #149, #11, #330, #704, #499, #276 ) ) ;
#136 = CIRCLE ( 'NONE', #173, 4.000000000000000000 ) ;
#137 = DIRECTION ( 'NONE',  ( 0.000000000000000000, 1.000000000000000000, 0.000000000000000000 ) ) ;
#138 = APPROVAL_PERSON_ORGANIZATION ( #658, #175, #602 ) ;
#139 = CARTESIAN_POINT ( 'NONE',  ( 3.099999999999998757, 0.000000000000000000, 0.000000000000000000 ) ) ;
#140 = ORIENTED_EDGE ( 'NONE', *, *, #104, .T. ) ;
#141 = CARTESIAN_POINT ( 'NONE',  ( 2.450000000000000178, -0.2325000000000007894, 0.2324999999999992073 ) ) ;
#142 = LINE ( 'NONE', #371, #298 ) ;
#143 = EDGE_LOOP ( 'NONE', ( #334, #56, #246 ) ) ;
#144 = EDGE_CURVE ( 'NONE', #664, #596, #379, .T. ) ;
#145 = DIRECTION ( 'NONE',  ( -0.7797031378619984077, -2.186188794002252624E-15, 0.6261493566299924929 ) ) ;
#146 = CARTESIAN_POINT ( 'NONE',  ( 2.739517153748411538, -0.2050254129606099429, -2.821615343463749529E-16 ) ) ;
#147 = AXIS2_PLACEMENT_3D ( 'NONE', #333, #374, #385 ) ;
#148 = ORIENTED_EDGE ( 'NONE', *, *, #618, .F. ) ;
#149 = ADVANCED_FACE ( 'NONE', ( #418 ), #521, .F. ) ;
#150 = FACE_BOUND ( 'NONE', #316, .T. ) ;
#151 = DIRECTION ( 'NONE',  ( 0.000000000000000000, 0.000000000000000000, 1.000000000000000000 ) ) ;
#152 = EDGE_LOOP ( 'NONE', ( #226, #604, #156, #273, #77 ) ) ;
#153 = PERSON_AND_ORGANIZATION ( #18446744073709551615, #18446744073709551615 ) ;
#154 = DIRECTION ( 'NONE',  ( 0.7775774828448950293, -0.07379051622916056596, 0.6244423255091143821 ) ) ;
#155 = EDGE_CURVE ( 'NONE', #63, #7, #207, .T. ) ;
#156 = ORIENTED_EDGE ( 'NONE', *, *, #43, .T. ) ;
#157 = COORDINATED_UNIVERSAL_TIME_OFFSET ( 10, 0, .AHEAD. ) ;
#158 = AXIS2_PLACEMENT_3D ( 'NONE', #37, #196, #578 ) ;
#159 = CARTESIAN_POINT ( 'NONE',  ( 3.099999999999998757, 0.000000000000000000, 2.000000000000000000 ) ) ;
#160 = CIRCLE ( 'NONE', #250, 6.058526736745388774 ) ;
#161 = ORIENTED_EDGE ( 'NONE', *, *, #576, .F. ) ;
#162 = VECTOR ( 'NONE', #327, 1000.000000000000000 ) ;
#163 = PERSON_AND_ORGANIZATION ( #18446744073709551615, #18446744073709551615 ) ;
#164 = FACE_OUTER_BOUND ( 'NONE', #277, .T. ) ;
#165 = ORIENTED_EDGE ( 'NONE', *, *, #670, .F. ) ;
#166 = APPROVAL_DATE_TIME ( #599, #544 ) ;
#167 = DIRECTION ( 'NONE',  ( 0.6261493566299924929, -0.7797031378619984077, -9.089847698534877089E-17 ) ) ;
#168 = EDGE_LOOP ( 'NONE', ( #443, #651 ) ) ;
#169 = DATE_AND_TIME ( #50, #324 ) ;
#170 = ADVANCED_FACE ( 'NONE', ( #581 ), #261, .T. ) ;
#171 = DIRECTION ( 'NONE',  ( 0.7775774828448951403, 0.07379051622915611119, 0.6244423255091148262 ) ) ;
#172 = ORIENTED_EDGE ( 'NONE', *, *, #637, .T. ) ;
#173 = AXIS2_PLACEMENT_3D ( 'NONE', #248, #427, #151 ) ;
#174 = CIRCLE ( 'NONE', #358, 3.999999999999999112 ) ;
#175 = APPROVAL ( #216, 'Coincident' ) ;
#176 = CARTESIAN_POINT ( 'NONE',  ( 2.758629411457059977, -0.2032116987086675097, 0.2032116987086667603 ) ) ;
#177 = ORIENTED_EDGE ( 'NONE', *, *, #403, .F. ) ;
#178 = CARTESIAN_POINT ( 'NONE',  ( 0.3018014431820973398, 1.957634963485397117, 0.000000000000000000 ) ) ;
#179 = VERTEX_POINT ( 'NONE', #523 ) ;
#180 = EDGE_CURVE ( 'NONE', #198, #179, #632, .T. ) ;
#181 = ORIENTED_EDGE ( 'NONE', *, *, #155, .T. ) ;
#182 = CARTESIAN_POINT ( 'NONE',  ( 2.739517153748411538, 0.2050254129606099429, 2.821615343463749529E-16 ) ) ;
#183 = CARTESIAN_POINT ( 'NONE',  ( 1.226960105914547183, 0.000000000000000000, 0.000000000000000000 ) ) ;
#184 = VECTOR ( 'NONE', #154, 1000.000000000000227 ) ;
#185 = DIRECTION ( 'NONE',  ( -0.09447351621610813877, -0.9955273751804943894, -3.475865252750183176E-15 ) ) ;
#186 = ORIENTED_EDGE ( 'NONE', *, *, #555, .F. ) ;
#187 = ORIENTED_EDGE ( 'NONE', *, *, #199, .T. ) ;
#188 = DIRECTION ( 'NONE',  ( 0.9955273751804943894, -0.09447351621610813877, 0.000000000000000000 ) ) ;
#189 = ORIENTED_EDGE ( 'NONE', *, *, #29, .F. ) ;
#190 = DIRECTION ( 'NONE',  ( -1.000000000000000000, -0.000000000000000000, -0.000000000000000000 ) ) ;
#191 = CC_DESIGN_APPROVAL ( #544, ( #84 ) ) ;
#192 = TOROIDAL_SURFACE ( 'NONE', #469, 3.520000000000000018, 0.4799999999999997602 ) ;
#193 = CARTESIAN_POINT ( 'NONE',  ( 23.09999999999999432, 0.000000000000000000, 2.000000000000000000 ) ) ;
#194 = AXIS2_PLACEMENT_3D ( 'NONE', #352, #83, #571 ) ;
#195 = DIRECTION ( 'NONE',  ( -0.9955273751804943894, -0.09447351621610808325, -3.298525188834355417E-16 ) ) ;
#196 = DIRECTION ( 'NONE',  ( -0.09447351621610813877, 0.000000000000000000, 0.9955273751804943894 ) ) ;
#197 = DIRECTION ( 'NONE',  ( -0.9955273751804943894, 0.000000000000000000, 0.09447351621610808325 ) ) ;
#198 = VERTEX_POINT ( 'NONE', #579 ) ;
#199 = EDGE_CURVE ( 'NONE', #198, #543, #115, .T. ) ;
#200 = PLANE ( 'NONE',  #692 ) ;
#201 = DIRECTION ( 'NONE',  ( -1.000000000000000000, -0.000000000000000000, -0.000000000000000000 ) ) ;
#202 = ORIENTED_EDGE ( 'NONE', *, *, #74, .T. ) ;
#203 = EDGE_CURVE ( 'NONE', #337, #420, #241, .T. ) ;
#204 = FACE_OUTER_BOUND ( 'NONE', #5, .T. ) ;
#205 = VECTOR ( 'NONE', #479, 1000.000000000000000 ) ;
#206 = CARTESIAN_POINT ( 'NONE',  ( 6.485719607574023549, -7.042624430979021184E-16, -0.1504815545963101575 ) ) ;
#207 = CIRCLE ( 'NONE', #2, 3.800664451827242107 ) ;
#208 = ORIENTED_EDGE ( 'NONE', *, *, #144, .F. ) ;
#209 = EDGE_CURVE ( 'NONE', #543, #198, #136, .T. ) ;
#210 = CARTESIAN_POINT ( 'NONE',  ( 0.03290341124864443884, -0.4618775334223240714, 0.4618775334223223505 ) ) ;
#211 = ORIENTED_EDGE ( 'NONE', *, *, #486, .T. ) ;
#212 = PERSON_AND_ORGANIZATION_ROLE ( 'design_owner' ) ;
#213 = CC_DESIGN_DATE_AND_TIME_ASSIGNMENT ( #441, #662, ( #84 ) ) ;
#214 = PLANE ( 'NONE',  #357 ) ;
#215 = VERTEX_POINT ( 'NONE', #642 ) ;
#216 = APPROVAL_STATUS ( 'not_yet_approved' ) ;
#217 = CIRCLE ( 'NONE', #344, 6.498242175551664168 ) ;
#218 = CYLINDRICAL_SURFACE ( 'NONE', #563, 2.000000000000000000 ) ;
#219 = ORIENTED_EDGE ( 'NONE', *, *, #410, .F. ) ;
#220 = AXIS2_PLACEMENT_3D ( 'NONE', #508, #504, #622 ) ;
#221 = AXIS2_PLACEMENT_3D ( 'NONE', #289, #456, #19 ) ;
#222 = PERSON_AND_ORGANIZATION_ROLE ( 'classification_officer' ) ;
#223 = DIRECTION ( 'NONE',  ( 0.000000000000000000, 0.000000000000000000, 1.000000000000000000 ) ) ;
#224 = ORIENTED_EDGE ( 'NONE', *, *, #258, .F. ) ;
#225 = EDGE_CURVE ( 'NONE', #531, #668, #142, .T. ) ;
#226 = ORIENTED_EDGE ( 'NONE', *, *, #117, .F. ) ;
#227 = COORDINATED_UNIVERSAL_TIME_OFFSET ( 10, 0, .AHEAD. ) ;
#228 = CARTESIAN_POINT ( 'NONE',  ( 23.09999999999999432, 0.000000000000000000, 0.000000000000000000 ) ) ;
#229 = ORIENTED_EDGE ( 'NONE', *, *, #383, .F. ) ;
#230 = FACE_OUTER_BOUND ( 'NONE', #546, .T. ) ;
#231 = VERTEX_POINT ( 'NONE', #95 ) ;
#232 = AXIS2_PLACEMENT_3D ( 'NONE', #139, #700, #266 ) ;
#233 = ADVANCED_FACE ( 'NONE', ( #705 ), #192, .T. ) ;
#234 = DIRECTION ( 'NONE',  ( 0.000000000000000000, 0.000000000000000000, 1.000000000000000000 ) ) ;
#235 = DIRECTION ( 'NONE',  ( 0.000000000000000000, 0.000000000000000000, -1.000000000000000000 ) ) ;
#236 = EDGE_LOOP ( 'NONE', ( #449, #480, #328, #367 ) ) ;
#237 = DIRECTION ( 'NONE',  ( -1.000000000000000000, -0.000000000000000000, -0.000000000000000000 ) ) ;
#238 = CARTESIAN_POINT ( 'NONE',  ( 3.099999999999998757, 0.000000000000000000, 0.000000000000000000 ) ) ;
#239 = CARTESIAN_POINT ( 'NONE',  ( 1.616353821170089411, 4.310756732998683112E-16, -3.520000000000000018 ) ) ;
#240 = ORIENTED_EDGE ( 'NONE', *, *, #180, .T. ) ;
#241 = CIRCLE ( 'NONE', #505, 6.498242175551664168 ) ;
#242 = DIRECTION ( 'NONE',  ( -0.9955273751804943894, 0.000000000000000000, 0.09447351621610808325 ) ) ;
#243 = DIRECTION ( 'NONE',  ( -0.9911142316013245024, -0.09405471789685999895, -0.09405471789686038753 ) ) ;
#244 = ADVANCED_FACE ( 'NONE', ( #315 ), #415, .T. ) ;
#245 = DIRECTION ( 'NONE',  ( -0.000000000000000000, 0.000000000000000000, 1.000000000000000000 ) ) ;
#246 = ORIENTED_EDGE ( 'NONE', *, *, #477, .T. ) ;
#247 = CARTESIAN_POINT ( 'NONE',  ( 0.000000000000000000, -2.200000000000000178, 0.4649999999999995803 ) ) ;
#248 = CARTESIAN_POINT ( 'NONE',  ( 3.099999999999998757, 0.000000000000000000, 0.000000000000000000 ) ) ;
#249 = VECTOR ( 'NONE', #685, 1000.000000000000227 ) ;
#250 = AXIS2_PLACEMENT_3D ( 'NONE', #680, #626, #620 ) ;
#251 = AXIS2_PLACEMENT_3D ( 'NONE', #87, #585, #312 ) ;
#252 = CARTESIAN_POINT ( 'NONE',  ( 2.449999999999999734, -0.2325000000000008171, 0.2324999999999994571 ) ) ;
#253 = EDGE_CURVE ( 'NONE', #7, #537, #597, .T. ) ;
#254 = CARTESIAN_POINT ( 'NONE',  ( 5.025653750643289897, 5.687495705262745317E-15, -1.835907654853336179 ) ) ;
#255 = ORIENTED_EDGE ( 'NONE', *, *, #203, .T. ) ;
#256 = CARTESIAN_POINT ( 'NONE',  ( 2.739517153748411538, -4.336808689942017736E-16, -0.2050254129606099429 ) ) ;
#257 = CARTESIAN_POINT ( 'NONE',  ( 23.09999999999999432, 2.000000000000000000, 0.000000000000000000 ) ) ;
#258 = EDGE_CURVE ( 'NONE', #231, #537, #613, .T. ) ;
#259 = EDGE_LOOP ( 'NONE', ( #465, #570 ) ) ;
#260 = DIRECTION ( 'NONE',  ( -0.9911142316013246134, 0.09405471789686006834, 0.09405471789686035977 ) ) ;
#261 = PLANE ( 'NONE',  #481 ) ;
#262 = ORIENTED_EDGE ( 'NONE', *, *, #117, .T. ) ;
#263 = EDGE_CURVE ( 'NONE', #496, #375, #304, .T. ) ;
#264 = CIRCLE ( 'NONE', #378, 3.800664451827242107 ) ;
#265 = AXIS2_PLACEMENT_3D ( 'NONE', #512, #564, #22 ) ;
#266 = DIRECTION ( 'NONE',  ( 0.000000000000000000, 0.000000000000000000, 1.000000000000000000 ) ) ;
#267 = ORIENTED_EDGE ( 'NONE', *, *, #43, .F. ) ;
#268 = CC_DESIGN_PERSON_AND_ORGANIZATION_ASSIGNMENT ( #3, #222, ( #84 ) ) ;
#269 = CARTESIAN_POINT ( 'NONE',  ( 2.450000000000000178, 0.2325000000000000122, -0.2325000000000000122 ) ) ;
#270 = ORIENTED_EDGE ( 'NONE', *, *, #681, .F. ) ;
#271 = MECHANICAL_CONTEXT ( 'NONE', #648, 'mechanical' ) ;
#272 = PLANE ( 'NONE',  #125 ) ;
#273 = ORIENTED_EDGE ( 'NONE', *, *, #486, .F. ) ;
#274 = APPROVAL_DATE_TIME ( #710, #649 ) ;
#275 = DIRECTION ( 'NONE',  ( 0.000000000000000000, 0.000000000000000000, 1.000000000000000000 ) ) ;
#276 = ADVANCED_FACE ( 'NONE', ( #41 ), #38, .T. ) ;
#277 = EDGE_LOOP ( 'NONE', ( #90, #111, #370, #636, #224 ) ) ;
#278 = CIRCLE ( 'NONE', #48, 2.000000000000000000 ) ;
#279 = CARTESIAN_POINT ( 'NONE',  ( 3.099999999999998757, 2.449293598294706414E-16, -2.000000000000000000 ) ) ;
#280 = EDGE_LOOP ( 'NONE', ( #713, #372, #240, #270 ) ) ;
#281 = LINE ( 'NONE', #438, #184 ) ;
#282 = ORIENTED_EDGE ( 'NONE', *, *, #225, .T. ) ;
#283 = EDGE_CURVE ( 'NONE', #531, #364, #363, .T. ) ;
#284 = DIRECTION ( 'NONE',  ( -0.09447351621610813877, -0.9955273751804943894, -3.475865252750182782E-15 ) ) ;
#285 = CC_DESIGN_APPROVAL ( #649, ( #503 ) ) ;
#286 = CARTESIAN_POINT ( 'NONE',  ( 0.03290341124864443884, -0.4618775334223207962, -0.4618775334223225726 ) ) ;
#287 = AXIS2_PLACEMENT_3D ( 'NONE', #146, #690, #195 ) ;
#288 = CIRCLE ( 'NONE', #439, 6.058526736745388774 ) ;
#289 = CARTESIAN_POINT ( 'NONE',  ( 1.616353821170089411, 0.000000000000000000, 0.000000000000000000 ) ) ;
#290 = DIRECTION ( 'NONE',  ( 0.000000000000000000, 0.000000000000000000, 1.000000000000000000 ) ) ;
#291 = CARTESIAN_POINT ( 'NONE',  ( 1.226960105914547183, 0.000000000000000000, 0.000000000000000000 ) ) ;
#292 = DIRECTION ( 'NONE',  ( 0.000000000000000000, -1.000000000000000000, 0.000000000000000000 ) ) ;
#293 = EDGE_LOOP ( 'NONE', ( #23, #393, #99 ) ) ;
#294 = PRODUCT_DEFINITION_SHAPE ( 'NONE', 'NONE',  #302 ) ;
#295 = LINE ( 'NONE', #75, #437 ) ;
#296 = CARTESIAN_POINT ( 'NONE',  ( 0.000000000000000000, 2.200000000000000178, 0.4650000000000001354 ) ) ;
#297 = EDGE_CURVE ( 'NONE', #543, #103, #336, .T. ) ;
#298 = VECTOR ( 'NONE', #483, 1000.000000000000000 ) ;
#299 = AXIS2_PLACEMENT_3D ( 'NONE', #580, #517, #137 ) ;
#300 = CARTESIAN_POINT ( 'NONE',  ( 23.09999999999999432, 2.449293598294706414E-16, -2.000000000000000000 ) ) ;
#301 = CARTESIAN_POINT ( 'NONE',  ( 2.758629411457059533, -0.2032116987086660942, -0.2032116987086668158 ) ) ;
#302 = PRODUCT_DEFINITION ( 'General', '', #503, #419 ) ;
#303 = CARTESIAN_POINT ( 'NONE',  ( 2.758629411457059533, 0.2032116987086661219, 0.2032116987086668436 ) ) ;
#304 = LINE ( 'NONE', #530, #494 ) ;
#305 = ADVANCED_FACE ( 'NONE', ( #164 ), #272, .F. ) ;
#306 = DIRECTION ( 'NONE',  ( 0.7775774828448950293, 0.6244423255091146041, 0.07379051622915840103 ) ) ;
#307 = DIRECTION ( 'NONE',  ( -0.000000000000000000, 0.000000000000000000, 1.000000000000000000 ) ) ;
#308 = ORIENTED_EDGE ( 'NONE', *, *, #507, .T. ) ;
#309 = CC_DESIGN_APPROVAL ( #175, ( #302 ) ) ;
#310 = AXIS2_PLACEMENT_3D ( 'NONE', #339, #676, #242 ) ;
#311 = PLANE ( 'NONE',  #524 ) ;
#312 = DIRECTION ( 'NONE',  ( -0.7797031378619984077, 0.6261493566299924929, 0.000000000000000000 ) ) ;
#313 = EDGE_LOOP ( 'NONE', ( #131, #345, #12, #698 ) ) ;
#314 = CARTESIAN_POINT ( 'NONE',  ( 0.3140046660742128459, -1.947835028366933008, -0.4352015980154062547 ) ) ;
#315 = FACE_OUTER_BOUND ( 'NONE', #293, .T. ) ;
#316 = EDGE_LOOP ( 'NONE', ( #308, #382 ) ) ;
#317 = CARTESIAN_POINT ( 'NONE',  ( 2.450000000000000178, 0.2325000000000007061, -0.2324999999999992073 ) ) ;
#318 = VERTEX_POINT ( 'NONE', #444 ) ;
#319 = ADVANCED_FACE ( 'NONE', ( #113 ), #214, .F. ) ;
#320 = AXIS2_PLACEMENT_3D ( 'NONE', #121, #284, #451 ) ;
#321 = PERSON_AND_ORGANIZATION_ROLE ( 'creator' ) ;
#322 = AXIS2_PLACEMENT_3D ( 'NONE', #291, #400, #573 ) ;
#323 = DIRECTION ( 'NONE',  ( 0.000000000000000000, 0.000000000000000000, 1.000000000000000000 ) ) ;
#324 = LOCAL_TIME ( 18, 50, 25.00000000000000000, #227 ) ;
#325 = VERTEX_POINT ( 'NONE', #380 ) ;
#326 = COORDINATED_UNIVERSAL_TIME_OFFSET ( 10, 0, .AHEAD. ) ;
#327 = DIRECTION ( 'NONE',  ( -1.000000000000000000, -0.000000000000000000, -0.000000000000000000 ) ) ;
#328 = ORIENTED_EDGE ( 'NONE', *, *, #507, .F. ) ;
#329 = PERSON_AND_ORGANIZATION ( #18446744073709551615, #18446744073709551615 ) ;
#330 = ADVANCED_FACE ( 'NONE', ( #442 ), #102, .T. ) ;
#331 = FACE_OUTER_BOUND ( 'NONE', #491, .T. ) ;
#332 = ORIENTED_EDGE ( 'NONE', *, *, #539, .F. ) ;
#333 = CARTESIAN_POINT ( 'NONE',  ( 2.739517153748411538, 0.2050254129606099429, 2.821615343463749529E-16 ) ) ;
#334 = ORIENTED_EDGE ( 'NONE', *, *, #618, .T. ) ;
#335 = CIRCLE ( 'NONE', #322, 3.800664451827242107 ) ;
#336 = LINE ( 'NONE', #607, #162 ) ;
#337 = VERTEX_POINT ( 'NONE', #711 ) ;
#338 = ADVANCED_FACE ( 'NONE', ( #595 ), #218, .T. ) ;
#339 = CARTESIAN_POINT ( 'NONE',  ( 6.485719607574023549, -7.042624430979021184E-16, -0.1504815545963101575 ) ) ;
#340 = FACE_OUTER_BOUND ( 'NONE', #460, .T. ) ;
#341 = CC_DESIGN_DATE_AND_TIME_ASSIGNMENT ( #109, #57, ( #302 ) ) ;
#342 = ORIENTED_EDGE ( 'NONE', *, *, #450, .F. ) ;
#343 = FACE_OUTER_BOUND ( 'NONE', #14, .T. ) ;
#344 = AXIS2_PLACEMENT_3D ( 'NONE', #453, #625, #188 ) ;
#345 = ORIENTED_EDGE ( 'NONE', *, *, #133, .T. ) ;
#346 = VECTOR ( 'NONE', #388, 1000.000000000000227 ) ;
#347 = VECTOR ( 'NONE', #260, 1000.000000000000114 ) ;
#348 = CARTESIAN_POINT ( 'NONE',  ( 2.739517153748411538, -4.336808689942017736E-16, -0.2050254129606099429 ) ) ;
#349 = DIRECTION ( 'NONE',  ( -0.9955273751804943894, -0.09447351621610808325, -3.298525188834355417E-16 ) ) ;
#350 = MANIFOLD_SOLID_BREP ( 'CirPattern1', #135 ) ;
#351 = ADVANCED_FACE ( 'NONE', ( #331 ), #490, .T. ) ;
#352 = CARTESIAN_POINT ( 'NONE',  ( 5.025653750643289897, 1.835907654853335957, 2.140317277284683261E-16 ) ) ;
#353 = CARTESIAN_POINT ( 'NONE',  ( 1.616353821170089411, 0.000000000000000000, 3.520000000000000018 ) ) ;
#354 = PLANE ( 'NONE',  #220 ) ;
#355 = CARTESIAN_POINT ( 'NONE',  ( 5.025653750643289897, 1.835907654853335957, 2.140317277284683261E-16 ) ) ;
#356 = CIRCLE ( 'NONE', #46, 0.4799999999999999822 ) ;
#357 = AXIS2_PLACEMENT_3D ( 'NONE', #603, #167, #650 ) ;
#358 = AXIS2_PLACEMENT_3D ( 'NONE', #638, #528, #414 ) ;
#359 = CARTESIAN_POINT ( 'NONE',  ( 0.000000000000000000, -2.200000000000000178, -0.4650000000000000244 ) ) ;
#360 = DIRECTION ( 'NONE',  ( -0.9955273751804943894, 0.000000000000000000, 0.09447351621610808325 ) ) ;
#361 = EDGE_CURVE ( 'NONE', #594, #364, #281, .T. ) ;
#362 = CARTESIAN_POINT ( 'NONE',  ( 5.025653750643289897, -7.346610655985090408E-15, 1.835907654853335957 ) ) ;
#363 = LINE ( 'NONE', #614, #691 ) ;
#364 = VERTEX_POINT ( 'NONE', #659 ) ;
#365 = DIRECTION ( 'NONE',  ( -1.000000000000000000, 0.000000000000000000, -0.000000000000000000 ) ) ;
#366 = LINE ( 'NONE', #45, #425 ) ;
#367 = ORIENTED_EDGE ( 'NONE', *, *, #529, .F. ) ;
#368 = AXIS2_PLACEMENT_3D ( 'NONE', #677, #506, #624 ) ;
#369 = DIRECTION ( 'NONE',  ( 0.6261493566299924929, -2.722318955682602346E-15, 0.7797031378619984077 ) ) ;
#370 = ORIENTED_EDGE ( 'NONE', *, *, #124, .F. ) ;
#371 = CARTESIAN_POINT ( 'NONE',  ( 2.450000000000000178, 0.2325000000000000122, 0.2325000000000000122 ) ) ;
#372 = ORIENTED_EDGE ( 'NONE', *, *, #209, .T. ) ;
#373 = CALENDAR_DATE ( 2026, 22, 6 ) ;
#374 = DIRECTION ( 'NONE',  ( -0.09447351621610813877, -0.9955273751804943894, -3.475865252750183176E-15 ) ) ;
#375 = VERTEX_POINT ( 'NONE', #279 ) ;
#376 = CIRCLE ( 'NONE', #158, 6.498242175551664168 ) ;
#377 = APPROVAL_ROLE ( '' ) ;
#378 = AXIS2_PLACEMENT_3D ( 'NONE', #183, #190, #290 ) ;
#379 = CIRCLE ( 'NONE', #25, 6.058526736745389663 ) ;
#380 = CARTESIAN_POINT ( 'NONE',  ( 1.226960105914547183, 4.776529376076388328E-16, -3.800664451827242551 ) ) ;
#381 = APPROVAL_PERSON_ORGANIZATION ( #384, #544, #377 ) ;
#382 = ORIENTED_EDGE ( 'NONE', *, *, #534, .T. ) ;
#383 = EDGE_CURVE ( 'NONE', #179, #103, #412, .T. ) ;
#384 = PERSON_AND_ORGANIZATION ( #18446744073709551615, #18446744073709551615 ) ;
#385 = DIRECTION ( 'NONE',  ( 0.9955273751804943894, -0.09447351621610813877, -3.298525188834356896E-16 ) ) ;
#386 = ORIENTED_EDGE ( 'NONE', *, *, #434, .T. ) ;
#387 = APPROVAL_DATE_TIME ( #169, #175 ) ;
#388 = DIRECTION ( 'NONE',  ( 0.7775774828448950293, 0.07379051622916060760, -0.6244423255091143821 ) ) ;
#389 = VERTEX_POINT ( 'NONE', #159 ) ;
#390 = PERSON_AND_ORGANIZATION ( #18446744073709551615, #18446744073709551615 ) ;
#391 = CARTESIAN_POINT ( 'NONE',  ( 2.450000000000000178, 0.2325000000000000122, 0.2324999999999999845 ) ) ;
#392 = CIRCLE ( 'NONE', #633, 6.498242175551664168 ) ;
#393 = ORIENTED_EDGE ( 'NONE', *, *, #661, .T. ) ;
#394 = LOCAL_TIME ( 18, 50, 25.00000000000000000, #551 ) ;
#395 = DIRECTION ( 'NONE',  ( 0.9911142316013245024, 0.09405471789686067896, -0.09405471789686031814 ) ) ;
#396 = ORIENTED_EDGE ( 'NONE', *, *, #539, .T. ) ;
#397 = CARTESIAN_POINT ( 'NONE',  ( 1.226960105914547183, -3.800664451827243440, -4.654471555563362840E-16 ) ) ;
#398 = DIRECTION ( 'NONE',  ( 0.7797031378619984077, 0.6261493566299923819, 0.000000000000000000 ) ) ;
#399 = ORIENTED_EDGE ( 'NONE', *, *, #180, .F. ) ;
#400 = DIRECTION ( 'NONE',  ( -1.000000000000000000, -0.000000000000000000, -0.000000000000000000 ) ) ;
#401 = DIRECTION ( 'NONE',  ( 0.000000000000000000, 1.000000000000000000, 1.224646799147353207E-16 ) ) ;
#402 = CIRCLE ( 'NONE', #16, 2.000000000000000000 ) ;
#403 = EDGE_CURVE ( 'NONE', #318, #364, #116, .T. ) ;
#404 = ORIENTED_EDGE ( 'NONE', *, *, #29, .T. ) ;
#405 = FACE_OUTER_BOUND ( 'NONE', #143, .T. ) ;
#406 = DIRECTION ( 'NONE',  ( -0.000000000000000000, 0.000000000000000000, -1.000000000000000000 ) ) ;
#407 = EDGE_LOOP ( 'NONE', ( #404, #140, #601, #672, #445, #65, #473, #186, #62, #515, #608 ) ) ;
#408 = DIRECTION ( 'NONE',  ( 0.9955273751804943894, 0.000000000000000000, 0.09447351621610813877 ) ) ;
#409 = CARTESIAN_POINT ( 'NONE',  ( 23.09999999999999432, 0.000000000000000000, 0.000000000000000000 ) ) ;
#410 = EDGE_CURVE ( 'NONE', #596, #668, #110, .T. ) ;
#411 = DIRECTION ( 'NONE',  ( 0.000000000000000000, -1.165808787618822200E-16, 1.000000000000000000 ) ) ;
#412 = CIRCLE ( 'NONE', #516, 3.999999999999999112 ) ;
#413 = AXIS2_PLACEMENT_3D ( 'NONE', #652, #100, #485 ) ;
#414 = DIRECTION ( 'NONE',  ( 0.000000000000000000, 0.000000000000000000, 1.000000000000000000 ) ) ;
#415 = PLANE ( 'NONE',  #669 ) ;
#416 = PRODUCT_RELATED_PRODUCT_CATEGORY ( 'detail', '', ( #566 ) ) ;
#417 = DIRECTION ( 'NONE',  ( -0.9955273751804943894, -0.09447351621610808325, 0.000000000000000000 ) ) ;
#418 = FACE_OUTER_BOUND ( 'NONE', #586, .T. ) ;
#419 = DESIGN_CONTEXT ( 'detailed design', #547, 'design' ) ;
#420 = VERTEX_POINT ( 'NONE', #210 ) ;
#421 = CARTESIAN_POINT ( 'NONE',  ( 0.3140046660742119577, 0.4352015980154132491, -1.947835028366932120 ) ) ;
#422 = DIRECTION ( 'NONE',  ( 0.000000000000000000, 0.000000000000000000, -1.000000000000000000 ) ) ;
#423 = ORIENTED_EDGE ( 'NONE', *, *, #555, .T. ) ;
#424 = ADVANCED_FACE ( 'NONE', ( #51 ), #58, .T. ) ;
#425 = VECTOR ( 'NONE', #411, 1000.000000000000000 ) ;
#426 = LINE ( 'NONE', #88, #436 ) ;
#427 = DIRECTION ( 'NONE',  ( -1.000000000000000000, -0.000000000000000000, -0.000000000000000000 ) ) ;
#428 = ORIENTED_EDGE ( 'NONE', *, *, #383, .T. ) ;
#429 = EDGE_CURVE ( 'NONE', #640, #496, #575, .T. ) ;
#430 = FACE_OUTER_BOUND ( 'NONE', #313, .T. ) ;
#431 = ORIENTED_EDGE ( 'NONE', *, *, #410, .T. ) ;
#432 = SECURITY_CLASSIFICATION_LEVEL ( 'unclassified' ) ;
#433 = PLANE ( 'NONE',  #448 ) ;
#434 = EDGE_CURVE ( 'NONE', #10, #52, #9, .T. ) ;
#435 = ORIENTED_EDGE ( 'NONE', *, *, #203, .F. ) ;
#436 = VECTOR ( 'NONE', #693, 1000.000000000000000 ) ;
#437 = VECTOR ( 'NONE', #72, 1000.000000000000114 ) ;
#438 = CARTESIAN_POINT ( 'NONE',  ( 0.000000000000000000, 0.4650000000000077405, -2.199999999999998401 ) ) ;
#439 = AXIS2_PLACEMENT_3D ( 'NONE', #362, #584, #634 ) ;
#440 = ORIENTED_EDGE ( 'NONE', *, *, #661, .F. ) ;
#441 = DATE_AND_TIME ( #605, #482 ) ;
#442 = FACE_OUTER_BOUND ( 'NONE', #42, .T. ) ;
#443 = ORIENTED_EDGE ( 'NONE', *, *, #429, .F. ) ;
#444 = CARTESIAN_POINT ( 'NONE',  ( 0.03290341124864443884, 0.4618775334223241824, -0.4618775334223225726 ) ) ;
#445 = ORIENTED_EDGE ( 'NONE', *, *, #477, .F. ) ;
#446 = ADVANCED_FACE ( 'NONE', ( #430 ), #433, .T. ) ;
#447 = DIRECTION ( 'NONE',  ( -0.9955273751804943894, -0.09447351621610808325, 0.000000000000000000 ) ) ;
#448 = AXIS2_PLACEMENT_3D ( 'NONE', #269, #487, #132 ) ;
#449 = ORIENTED_EDGE ( 'NONE', *, *, #429, .T. ) ;
#450 = EDGE_CURVE ( 'NONE', #664, #531, #295, .T. ) ;
#451 = DIRECTION ( 'NONE',  ( 0.9955273751804943894, -0.09447351621610813877, 0.000000000000000000 ) ) ;
#452 = DIRECTION ( 'NONE',  ( 0.000000000000000000, 1.000000000000000000, 0.000000000000000000 ) ) ;
#453 = CARTESIAN_POINT ( 'NONE',  ( 6.485719607574023549, -0.1504815545963103518, -5.254035397131191667E-16 ) ) ;
#454 = FACE_OUTER_BOUND ( 'NONE', #706, .T. ) ;
#455 = ADVANCED_FACE ( 'NONE', ( #568 ), #354, .T. ) ;
#456 = DIRECTION ( 'NONE',  ( -1.000000000000000000, -0.000000000000000000, -0.000000000000000000 ) ) ;
#457 = CARTESIAN_POINT ( 'NONE',  ( 1.226960105914547183, 3.800664451827242551, 0.000000000000000000 ) ) ;
#458 = CIRCLE ( 'NONE', #493, 6.058526736745387886 ) ;
#459 = VECTOR ( 'NONE', #462, 1000.000000000000227 ) ;
#460 = EDGE_LOOP ( 'NONE', ( #556, #211, #181, #525, #202, #647, #332, #682, #165, #435, #476 ) ) ;
#461 = DIRECTION ( 'NONE',  ( -0.09447351621610813877, 0.000000000000000000, 0.9955273751804943894 ) ) ;
#462 = DIRECTION ( 'NONE',  ( 0.7775774828448950293, -0.6244423255091146041, -0.07379051622915844266 ) ) ;
#463 = EDGE_CURVE ( 'NONE', #615, #96, #623, .T. ) ;
#464 = FACE_OUTER_BOUND ( 'NONE', #259, .T. ) ;
#465 = ORIENTED_EDGE ( 'NONE', *, *, #199, .F. ) ;
#466 =( NAMED_UNIT ( * ) SI_UNIT ( $, .STERADIAN. ) SOLID_ANGLE_UNIT ( ) );
#467 = DIRECTION ( 'NONE',  ( 0.000000000000000000, 0.000000000000000000, 1.000000000000000000 ) ) ;
#468 = CIRCLE ( 'NONE', #194, 6.058526736745387886 ) ;
#469 = AXIS2_PLACEMENT_3D ( 'NONE', #475, #201, #467 ) ;
#470 = CC_DESIGN_SECURITY_CLASSIFICATION ( #84, ( #503 ) ) ;
#471 = DIRECTION ( 'NONE',  ( -0.09447351621610808325, 0.9955273751804943894, 3.596793113879687400E-15 ) ) ;
#472 = DIRECTION ( 'NONE',  ( 0.7797031378619984077, 0.000000000000000000, -0.6261493566299923819 ) ) ;
#473 = ORIENTED_EDGE ( 'NONE', *, *, #621, .T. ) ;
#474 = SPHERICAL_SURFACE ( 'NONE', #299, 6.500000000000000000 ) ;
#475 = CARTESIAN_POINT ( 'NONE',  ( 1.616353821170089411, 0.000000000000000000, 0.000000000000000000 ) ) ;
#476 = ORIENTED_EDGE ( 'NONE', *, *, #6, .T. ) ;
#477 = EDGE_CURVE ( 'NONE', #59, #660, #392, .T. ) ;
#478 = DIRECTION ( 'NONE',  ( 0.7775774828448950293, 0.6244423255091146041, -0.07379051622915827613 ) ) ;
#479 = DIRECTION ( 'NONE',  ( -1.000000000000000000, -0.000000000000000000, -0.000000000000000000 ) ) ;
#480 = ORIENTED_EDGE ( 'NONE', *, *, #263, .T. ) ;
#481 = AXIS2_PLACEMENT_3D ( 'NONE', #257, #89, #422 ) ;
#482 = LOCAL_TIME ( 18, 50, 25.00000000000000000, #157 ) ;
#483 = DIRECTION ( 'NONE',  ( 0.000000000000000000, -1.000000000000000000, -1.165808787618821707E-16 ) ) ;
#484 = VERTEX_POINT ( 'NONE', #397 ) ;
#485 = DIRECTION ( 'NONE',  ( 1.000000000000000000, 0.000000000000000000, 0.000000000000000000 ) ) ;
#486 = EDGE_CURVE ( 'NONE', #484, #63, #335, .T. ) ;
#487 = DIRECTION ( 'NONE',  ( -1.000000000000000000, 0.000000000000000000, 0.000000000000000000 ) ) ;
#488 = ORIENTED_EDGE ( 'NONE', *, *, #434, .F. ) ;
#489 = PERSON_AND_ORGANIZATION_ROLE ( 'creator' ) ;
#490 = CYLINDRICAL_SURFACE ( 'NONE', #540, 4.000000000000000000 ) ;
#491 = EDGE_LOOP ( 'NONE', ( #187, #118, #229, #399 ) ) ;
#492 = PERSON_AND_ORGANIZATION ( #18446744073709551615, #18446744073709551615 ) ;
#493 = AXIS2_PLACEMENT_3D ( 'NONE', #355, #674, #398 ) ;
#494 = VECTOR ( 'NONE', #533, 1000.000000000000000 ) ;
#495 = CARTESIAN_POINT ( 'NONE',  ( 0.000000000000000000, -0.4650000000000078515, 2.199999999999998401 ) ) ;
#496 = VERTEX_POINT ( 'NONE', #300 ) ;
#497 = DIRECTION ( 'NONE',  ( -1.000000000000000000, -0.000000000000000000, -0.000000000000000000 ) ) ;
#498 = ORIENTED_EDGE ( 'NONE', *, *, #689, .T. ) ;
#499 = ADVANCED_FACE ( 'NONE', ( #230 ), #683, .T. ) ;
#500 = CARTESIAN_POINT ( 'NONE',  ( 2.758629411457059977, 0.2032116987086674820, -0.2032116987086667881 ) ) ;
#501 = ORIENTED_EDGE ( 'NONE', *, *, #588, .T. ) ;
#502 = CC_DESIGN_PERSON_AND_ORGANIZATION_ASSIGNMENT ( #390, #489, ( #302 ) ) ;
#503 = PRODUCT_DEFINITION_FORMATION_WITH_SPECIFIED_SOURCE ( 'Symmetric', '', #566, .NOT_KNOWN. ) ;
#504 = DIRECTION ( 'NONE',  ( -0.09447351621610808325, 1.209278611295048645E-16, -0.9955273751804943894 ) ) ;
#505 = AXIS2_PLACEMENT_3D ( 'NONE', #206, #34, #197 ) ;
#506 = DIRECTION ( 'NONE',  ( -1.000000000000000000, -0.000000000000000000, -0.000000000000000000 ) ) ;
#507 = EDGE_CURVE ( 'NONE', #389, #375, #402, .T. ) ;
#508 = CARTESIAN_POINT ( 'NONE',  ( 2.739517153748411538, 4.336808689942017736E-16, 0.2050254129606099429 ) ) ;
#509 = LINE ( 'NONE', #301, #538 ) ;
#510 = ORIENTED_EDGE ( 'NONE', *, *, #689, .F. ) ;
#511 = DIRECTION ( 'NONE',  ( 0.9955273751804943894, -0.09447351621610813877, -3.298525188834356896E-16 ) ) ;
#512 = CARTESIAN_POINT ( 'NONE',  ( 1.226960105914547183, 0.000000000000000000, 0.000000000000000000 ) ) ;
#513 = ORIENTED_EDGE ( 'NONE', *, *, #529, .T. ) ;
#514 = CARTESIAN_POINT ( 'NONE',  ( -25.39999999999996305, 0.000000000000000000, 2.000000000000000000 ) ) ;
#515 = ORIENTED_EDGE ( 'NONE', *, *, #258, .T. ) ;
#516 = AXIS2_PLACEMENT_3D ( 'NONE', #542, #653, #600 ) ;
#517 = DIRECTION ( 'NONE',  ( -0.000000000000000000, 0.000000000000000000, -1.000000000000000000 ) ) ;
#518 = SPHERICAL_SURFACE ( 'NONE', #1, 6.500000000000000000 ) ;
#519 = CC_DESIGN_PERSON_AND_ORGANIZATION_ASSIGNMENT ( #163, #321, ( #503 ) ) ;
#520 = DIRECTION ( 'NONE',  ( -0.09447351621610813877, 0.000000000000000000, 0.9955273751804943894 ) ) ;
#521 = PLANE ( 'NONE',  #611 ) ;
#522 = CARTESIAN_POINT ( 'NONE',  ( 0.03290341124864443884, 0.4618775334223209073, 0.4618775334223225726 ) ) ;
#523 = CARTESIAN_POINT ( 'NONE',  ( 1.616353821170091187, 0.000000000000000000, 3.999999999999999112 ) ) ;
#524 = AXIS2_PLACEMENT_3D ( 'NONE', #256, #520, #93 ) ;
#525 = ORIENTED_EDGE ( 'NONE', *, *, #253, .T. ) ;
#526 = AXIS2_PLACEMENT_3D ( 'NONE', #697, #307, #592 ) ;
#527 = CIRCLE ( 'NONE', #320, 6.498242175551664168 ) ;
#528 = DIRECTION ( 'NONE',  ( -1.000000000000000000, -0.000000000000000000, -0.000000000000000000 ) ) ;
#529 = EDGE_CURVE ( 'NONE', #640, #389, #13, .T. ) ;
#530 = CARTESIAN_POINT ( 'NONE',  ( -25.39999999999996305, 2.449293598294706414E-16, -2.000000000000000000 ) ) ;
#531 = VERTEX_POINT ( 'NONE', #21 ) ;
#532 =( LENGTH_UNIT ( ) NAMED_UNIT ( * ) SI_UNIT ( .MILLI., .METRE. ) );
#533 = DIRECTION ( 'NONE',  ( -1.000000000000000000, -0.000000000000000000, -0.000000000000000000 ) ) ;
#534 = EDGE_CURVE ( 'NONE', #375, #389, #687, .T. ) ;
#535 = EDGE_LOOP ( 'NONE', ( #36, #609, #488 ) ) ;
#536 = DIRECTION ( 'NONE',  ( 0.000000000000000000, 0.000000000000000000, 1.000000000000000000 ) ) ;
#537 = VERTEX_POINT ( 'NONE', #178 ) ;
#538 = VECTOR ( 'NONE', #243, 1000.000000000000227 ) ;
#539 = EDGE_CURVE ( 'NONE', #664, #615, #527, .T. ) ;
#540 = AXIS2_PLACEMENT_3D ( 'NONE', #557, #64, #323 ) ;
#541 = SHAPE_DEFINITION_REPRESENTATION ( #294, #78 ) ;
#542 = CARTESIAN_POINT ( 'NONE',  ( 1.616353821170091187, 0.000000000000000000, 0.000000000000000000 ) ) ;
#543 = VERTEX_POINT ( 'NONE', #673 ) ;
#544 = APPROVAL ( #105, 'Coincident' ) ;
#545 = DIRECTION ( 'NONE',  ( 0.9911142316013245024, -0.09405471789686072059, 0.09405471789686038753 ) ) ;
#546 = EDGE_LOOP ( 'NONE', ( #396, #440, #342 ) ) ;
#547 = APPLICATION_CONTEXT ( 'configuration controlled 3d designs of mechanical parts and assemblies' ) ;
#548 = CALENDAR_DATE ( 2026, 22, 6 ) ;
#549 = CARTESIAN_POINT ( 'NONE',  ( -25.39999999999996305, 0.000000000000000000, 0.000000000000000000 ) ) ;
#550 = EDGE_LOOP ( 'NONE', ( #582, #282, #219, #208 ) ) ;
#551 = COORDINATED_UNIVERSAL_TIME_OFFSET ( 10, 0, .AHEAD. ) ;
#552 = AXIS2_PLACEMENT_3D ( 'NONE', #569, #120, #349 ) ;
#553 = AXIS2_PLACEMENT_3D ( 'NONE', #708, #106, #554 ) ;
#554 = DIRECTION ( 'NONE',  ( 0.000000000000000000, 0.000000000000000000, 1.000000000000000000 ) ) ;
#555 = EDGE_CURVE ( 'NONE', #318, #594, #217, .T. ) ;
#556 = ORIENTED_EDGE ( 'NONE', *, *, #80, .F. ) ;
#557 = CARTESIAN_POINT ( 'NONE',  ( -25.39999999999996305, 0.000000000000000000, 0.000000000000000000 ) ) ;
#558 = EDGE_LOOP ( 'NONE', ( #498, #39, #148, #161, #701 ) ) ;
#559 = DIRECTION ( 'NONE',  ( 0.000000000000000000, 0.000000000000000000, 1.000000000000000000 ) ) ;
#560 = DIRECTION ( 'NONE',  ( 0.000000000000000000, 1.224646799147353207E-16, -1.000000000000000000 ) ) ;
#561 = ADVANCED_FACE ( 'NONE', ( #343 ), #126, .T. ) ;
#562 = AXIS2_PLACEMENT_3D ( 'NONE', #97, #365, #245 ) ;
#563 = AXIS2_PLACEMENT_3D ( 'NONE', #549, #61, #223 ) ;
#564 = DIRECTION ( 'NONE',  ( -1.000000000000000000, -0.000000000000000000, -0.000000000000000000 ) ) ;
#565 = AXIS2_PLACEMENT_3D ( 'NONE', #24, #628, #447 ) ;
#566 = PRODUCT ( 'pan cross head_am_B18.6.7M - M4 x 0.7 x 20 Type I Cross Recessed PHMS --20N', 'pan cross head_am_B18.6.7M - M4 x 0.7 x 20 Type I Cross Recessed PHMS --20N', '', ( #271 ) ) ;
#567 = ADVANCED_FACE ( 'NONE', ( #405 ), #678, .T. ) ;
#568 = FACE_OUTER_BOUND ( 'NONE', #643, .T. ) ;
#569 = CARTESIAN_POINT ( 'NONE',  ( 2.739517153748411538, -0.2050254129606099429, -2.821615343463749529E-16 ) ) ;
#570 = ORIENTED_EDGE ( 'NONE', *, *, #209, .F. ) ;
#571 = DIRECTION ( 'NONE',  ( 0.7797031378619984077, 0.6261493566299923819, 0.000000000000000000 ) ) ;
#572 = DIRECTION ( 'NONE',  ( -0.000000000000000000, 1.000000000000000000, 1.224646799147353207E-16 ) ) ;
#573 = DIRECTION ( 'NONE',  ( 0.000000000000000000, 0.000000000000000000, 1.000000000000000000 ) ) ;
#574 = CARTESIAN_POINT ( 'NONE',  ( 1.226960105914547183, 0.000000000000000000, 3.800664451827242551 ) ) ;
#575 = CIRCLE ( 'NONE', #702, 2.000000000000000000 ) ;
#576 = EDGE_CURVE ( 'NONE', #215, #660, #468, .T. ) ;
#577 = LOCAL_TIME ( 18, 50, 25.00000000000000000, #326 ) ;
#578 = DIRECTION ( 'NONE',  ( 0.9955273751804943894, 0.000000000000000000, 0.09447351621610813877 ) ) ;
#579 = CARTESIAN_POINT ( 'NONE',  ( 3.099999999999998757, 0.000000000000000000, 4.000000000000000000 ) ) ;
#580 = CARTESIAN_POINT ( 'NONE',  ( 6.500000000000000000, -7.225416114969382221E-16, 0.000000000000000000 ) ) ;
#581 = FACE_OUTER_BOUND ( 'NONE', #168, .T. ) ;
#582 = ORIENTED_EDGE ( 'NONE', *, *, #450, .T. ) ;
#583 = EDGE_CURVE ( 'NONE', #10, #59, #32, .T. ) ;
#584 = DIRECTION ( 'NONE',  ( 0.6261493566299924929, 2.813217432667951302E-15, -0.7797031378619984077 ) ) ;
#585 = DIRECTION ( 'NONE',  ( 0.6261493566299924929, 0.7797031378619984077, 0.000000000000000000 ) ) ;
#586 = EDGE_LOOP ( 'NONE', ( #386, #114, #20, #92 ) ) ;
#587 = VECTOR ( 'NONE', #237, 1000.000000000000000 ) ;
#588 = EDGE_CURVE ( 'NONE', #420, #668, #671, .T. ) ;
#589 = DIRECTION ( 'NONE',  ( 0.000000000000000000, 0.000000000000000000, 1.000000000000000000 ) ) ;
#590 = ORIENTED_EDGE ( 'NONE', *, *, #155, .F. ) ;
#591 = CARTESIAN_POINT ( 'NONE',  ( 6.485719607574023549, 0.1504815545963101298, 5.436827081121596092E-16 ) ) ;
#592 = DIRECTION ( 'NONE',  ( 1.000000000000000000, 0.000000000000000000, 0.000000000000000000 ) ) ;
#593 = EDGE_CURVE ( 'NONE', #231, #364, #616, .T. ) ;
#594 = VERTEX_POINT ( 'NONE', #421 ) ;
#595 = FACE_OUTER_BOUND ( 'NONE', #236, .T. ) ;
#596 = VERTEX_POINT ( 'NONE', #631 ) ;
#597 = CIRCLE ( 'NONE', #526, 6.500000000000000000 ) ;
#598 = VECTOR ( 'NONE', #395, 1000.000000000000227 ) ;
#599 = DATE_AND_TIME ( #373, #577 ) ;
#600 = DIRECTION ( 'NONE',  ( 0.000000000000000000, 0.000000000000000000, 1.000000000000000000 ) ) ;
#601 = ORIENTED_EDGE ( 'NONE', *, *, #80, .T. ) ;
#602 = APPROVAL_ROLE ( '' ) ;
#603 = CARTESIAN_POINT ( 'NONE',  ( 2.450000000000000178, -0.2325000000000000122, -0.2324999999999999012 ) ) ;
#604 = ORIENTED_EDGE ( 'NONE', *, *, #681, .T. ) ;
#605 = CALENDAR_DATE ( 2026, 22, 6 ) ;
#606 = ADVANCED_FACE ( 'NONE', ( #688 ), #474, .T. ) ;
#607 = CARTESIAN_POINT ( 'NONE',  ( -25.39999999999996305, 4.898587196589412829E-16, -4.000000000000000000 ) ) ;
#608 = ORIENTED_EDGE ( 'NONE', *, *, #253, .F. ) ;
#609 = ORIENTED_EDGE ( 'NONE', *, *, #54, .F. ) ;
#610 = CALENDAR_DATE ( 2026, 22, 6 ) ;
#611 = AXIS2_PLACEMENT_3D ( 'NONE', #317, #635, #31 ) ;
#612 = UNCERTAINTY_MEASURE_WITH_UNIT (LENGTH_MEASURE( 1.000000000000000082E-05 ), #532, 'distance_accuracy_value', 'NONE');
#613 = CIRCLE ( 'NONE', #251, 6.058526736745388774 ) ;
#614 = CARTESIAN_POINT ( 'NONE',  ( 2.450000000000000178, 0.2325000000000000122, 0.2325000000000000122 ) ) ;
#615 = VERTEX_POINT ( 'NONE', #522 ) ;
#616 = LINE ( 'NONE', #119, #249 ) ;
#617 = CARTESIAN_POINT ( 'NONE',  ( 2.450000000000000178, -0.2325000000000000122, -0.2325000000000000122 ) ) ;
#618 = EDGE_CURVE ( 'NONE', #660, #52, #699, .T. ) ;
#619 = DIRECTION ( 'NONE',  ( -1.000000000000000000, -0.000000000000000000, -0.000000000000000000 ) ) ;
#620 = DIRECTION ( 'NONE',  ( -0.7797031378619984077, 0.6261493566299924929, 0.000000000000000000 ) ) ;
#621 = EDGE_CURVE ( 'NONE', #10, #594, #288, .T. ) ;
#622 = DIRECTION ( 'NONE',  ( -0.9955273751804943894, 0.000000000000000000, 0.09447351621610808325 ) ) ;
#623 = CIRCLE ( 'NONE', #310, 6.498242175551664168 ) ;
#624 = DIRECTION ( 'NONE',  ( 0.000000000000000000, 0.000000000000000000, 1.000000000000000000 ) ) ;
#625 = DIRECTION ( 'NONE',  ( -0.09447351621610813877, -0.9955273751804943894, -3.475865252750182782E-15 ) ) ;
#626 = DIRECTION ( 'NONE',  ( 0.6261493566299924929, 0.7797031378619984077, 0.000000000000000000 ) ) ;
#627 = EDGE_CURVE ( 'NONE', #52, #364, #426, .T. ) ;
#628 = DIRECTION ( 'NONE',  ( -0.09447351621610808325, 0.9955273751804943894, 3.596793113879687400E-15 ) ) ;
#629 = DIRECTION ( 'NONE',  ( -1.000000000000000000, -0.000000000000000000, -0.000000000000000000 ) ) ;
#630 = VECTOR ( 'NONE', #306, 1000.000000000000227 ) ;
#631 = CARTESIAN_POINT ( 'NONE',  ( 0.3140046660742119577, -0.4352015980154133046, 1.947835028366932564 ) ) ;
#632 = LINE ( 'NONE', #646, #205 ) ;
#633 = AXIS2_PLACEMENT_3D ( 'NONE', #79, #461, #67 ) ;
#634 = DIRECTION ( 'NONE',  ( -0.7797031378619984077, 0.000000000000000000, -0.6261493566299924929 ) ) ;
#635 = DIRECTION ( 'NONE',  ( 0.6261493566299924929, 2.813217432667951697E-15, -0.7797031378619984077 ) ) ;
#636 = ORIENTED_EDGE ( 'NONE', *, *, #74, .F. ) ;
#637 = EDGE_CURVE ( 'NONE', #231, #318, #376, .T. ) ;
#638 = CARTESIAN_POINT ( 'NONE',  ( 1.616353821170091187, 0.000000000000000000, 0.000000000000000000 ) ) ;
#639 = CARTESIAN_POINT ( 'NONE',  ( 1.226960105914547183, 0.000000000000000000, 0.000000000000000000 ) ) ;
#640 = VERTEX_POINT ( 'NONE', #193 ) ;
#641 = DIRECTION ( 'NONE',  ( 0.6261493566299924929, -2.722318955682602346E-15, 0.7797031378619984077 ) ) ;
#642 = CARTESIAN_POINT ( 'NONE',  ( 0.3018014431820982280, -1.957634963485396229, -2.397411391931336094E-16 ) ) ;
#643 = EDGE_LOOP ( 'NONE', ( #255, #501, #510 ) ) ;
#644 = VECTOR ( 'NONE', #171, 1000.000000000000114 ) ;
#645 = PLANE ( 'NONE',  #562 ) ;
#646 = CARTESIAN_POINT ( 'NONE',  ( -25.39999999999996305, 0.000000000000000000, 4.000000000000000000 ) ) ;
#647 = ORIENTED_EDGE ( 'NONE', *, *, #463, .F. ) ;
#648 = APPLICATION_CONTEXT ( 'configuration controlled 3d designs of mechanical parts and assemblies' ) ;
#649 = APPROVAL ( #44, 'Coincident' ) ;
#650 = DIRECTION ( 'NONE',  ( 0.7797031378619984077, 0.6261493566299924929, 0.000000000000000000 ) ) ;
#651 = ORIENTED_EDGE ( 'NONE', *, *, #129, .F. ) ;
#652 = CARTESIAN_POINT ( 'NONE',  ( 0.000000000000000000, 0.000000000000000000, 0.000000000000000000 ) ) ;
#653 = DIRECTION ( 'NONE',  ( -1.000000000000000000, -0.000000000000000000, -0.000000000000000000 ) ) ;
#654 = ORIENTED_EDGE ( 'NONE', *, *, #588, .F. ) ;
#655 = AXIS2_PLACEMENT_3D ( 'NONE', #591, #471, #417 ) ;
#656 = CIRCLE ( 'NONE', #123, 6.500000000000000000 ) ;
#657 = VECTOR ( 'NONE', #545, 1000.000000000000000 ) ;
#658 = PERSON_AND_ORGANIZATION ( #18446744073709551615, #18446744073709551615 ) ;
#659 = CARTESIAN_POINT ( 'NONE',  ( 2.450000000000000178, 0.2325000000000008171, -0.2324999999999992073 ) ) ;
#660 = VERTEX_POINT ( 'NONE', #314 ) ;
#661 = EDGE_CURVE ( 'NONE', #531, #615, #86, .T. ) ;
#662 = DATE_TIME_ROLE ( 'classification_date' ) ;
#663 = DIRECTION ( 'NONE',  ( -0.7797031378619984077, 0.6261493566299924929, 0.000000000000000000 ) ) ;
#664 = VERTEX_POINT ( 'NONE', #33 ) ;
#665 = ADVANCED_FACE ( 'NONE', ( #204 ), #311, .T. ) ;
#666 = APPLICATION_PROTOCOL_DEFINITION ( 'international standard', 'config_control_design', 1994, #547 ) ;
#667 = CARTESIAN_POINT ( 'NONE',  ( 0.000000000000000000, -0.4649999999999919198, -2.200000000000001954 ) ) ;
#668 = VERTEX_POINT ( 'NONE', #252 ) ;
#669 = AXIS2_PLACEMENT_3D ( 'NONE', #91, #98, #360 ) ;
#670 = EDGE_CURVE ( 'NONE', #420, #596, #15, .T. ) ;
#671 = LINE ( 'NONE', #176, #598 ) ;
#672 = ORIENTED_EDGE ( 'NONE', *, *, #576, .T. ) ;
#673 = CARTESIAN_POINT ( 'NONE',  ( 3.099999999999998757, 4.898587196589412829E-16, -4.000000000000000000 ) ) ;
#674 = DIRECTION ( 'NONE',  ( 0.6261493566299924929, -0.7797031378619984077, -9.089847698534877089E-17 ) ) ;
#675 = ORIENTED_EDGE ( 'NONE', *, *, #403, .T. ) ;
#676 = DIRECTION ( 'NONE',  ( -0.09447351621610808325, 1.209278611295048398E-16, -0.9955273751804943894 ) ) ;
#677 = CARTESIAN_POINT ( 'NONE',  ( -25.39999999999996305, 0.000000000000000000, 0.000000000000000000 ) ) ;
#678 = PLANE ( 'NONE',  #49 ) ;
#679 = CIRCLE ( 'NONE', #60, 0.4799999999999999822 ) ;
#680 = CARTESIAN_POINT ( 'NONE',  ( 5.025653750643289897, -1.835907654853336179, 0.000000000000000000 ) ) ;
#681 = EDGE_CURVE ( 'NONE', #103, #179, #174, .T. ) ;
#682 = ORIENTED_EDGE ( 'NONE', *, *, #144, .T. ) ;
#683 = PLANE ( 'NONE',  #82 ) ;
#684 = ORIENTED_EDGE ( 'NONE', *, *, #593, .F. ) ;
#685 = DIRECTION ( 'NONE',  ( 0.7775774828448950293, -0.6244423255091146041, 0.07379051622915840103 ) ) ;
#686 = ORIENTED_EDGE ( 'NONE', *, *, #129, .T. ) ;
#687 = CIRCLE ( 'NONE', #69, 2.000000000000000000 ) ;
#688 = FACE_OUTER_BOUND ( 'NONE', #407, .T. ) ;
#689 = EDGE_CURVE ( 'NONE', #337, #668, #30, .T. ) ;
#690 = DIRECTION ( 'NONE',  ( -0.09447351621610808325, 0.9955273751804943894, 3.596793113879687400E-15 ) ) ;
#691 = VECTOR ( 'NONE', #55, 1000.000000000000000 ) ;
#692 = AXIS2_PLACEMENT_3D ( 'NONE', #141, #641, #145 ) ;
#693 = DIRECTION ( 'NONE',  ( 0.000000000000000000, 1.000000000000000000, 0.000000000000000000 ) ) ;
#694 = DIRECTION ( 'NONE',  ( -1.000000000000000000, -0.000000000000000000, -0.000000000000000000 ) ) ;
#695 = ORIENTED_EDGE ( 'NONE', *, *, #361, .T. ) ;
#696 = FACE_OUTER_BOUND ( 'NONE', #550, .T. ) ;
#697 = CARTESIAN_POINT ( 'NONE',  ( 6.500000000000000000, -7.225416114969382221E-16, 0.000000000000000000 ) ) ;
#698 = ORIENTED_EDGE ( 'NONE', *, *, #283, .T. ) ;
#699 = LINE ( 'NONE', #359, #630 ) ;
#700 = DIRECTION ( 'NONE',  ( -1.000000000000000000, -0.000000000000000000, -0.000000000000000000 ) ) ;
#701 = ORIENTED_EDGE ( 'NONE', *, *, #6, .F. ) ;
#702 = AXIS2_PLACEMENT_3D ( 'NONE', #228, #497, #275 ) ;
#703 = APPROVAL_PERSON_ORGANIZATION ( #492, #649, #112 ) ;
#704 = ADVANCED_FACE ( 'NONE', ( #696 ), #200, .F. ) ;
#705 = FACE_OUTER_BOUND ( 'NONE', #152, .T. ) ;
#706 = EDGE_LOOP ( 'NONE', ( #47, #686, #513, #107 ) ) ;
#707 = PERSON_AND_ORGANIZATION_ROLE ( 'design_supplier' ) ;
#708 = CARTESIAN_POINT ( 'NONE',  ( -25.39999999999996305, 0.000000000000000000, 0.000000000000000000 ) ) ;
#709 = ORIENTED_EDGE ( 'NONE', *, *, #670, .T. ) ;
#710 = DATE_AND_TIME ( #610, #394 ) ;
#711 = CARTESIAN_POINT ( 'NONE',  ( 0.3140046660742128459, -1.947835028366933008, 0.4352015980154058661 ) ) ;
#712 = ADVANCED_FACE ( 'NONE', ( #464, #150 ), #645, .F. ) ;
#713 = ORIENTED_EDGE ( 'NONE', *, *, #297, .F. ) ;
ENDSEC;
END-ISO-10303-21;
