ISO-10303-21;
HEADER;
FILE_DESCRIPTION (( 'STEP AP203' ),
    '1' );
FILE_NAME ('PinA.step.STEP',
    '2026-06-22T08:49:52',
    ( 'localuser' ),
    ( '' ),
    'SwSTEP 2.0',
    'SolidWorks 2025',
    '' );
FILE_SCHEMA (( 'CONFIG_CONTROL_DESIGN' ));
ENDSEC;

DATA;
#1 = APPROVAL_STATUS ( 'not_yet_approved' ) ;
#2 =( NAMED_UNIT ( * ) PLANE_ANGLE_UNIT ( ) SI_UNIT ( $, .RADIAN. ) );
#3 = DIRECTION ( 'NONE',  ( 1.000000000000000000, 0.000000000000000000, 0.000000000000000000 ) ) ;
#4 = DIRECTION ( 'NONE',  ( 0.000000000000000000, 0.000000000000000000, 1.000000000000000000 ) ) ;
#5 = CC_DESIGN_PERSON_AND_ORGANIZATION_ASSIGNMENT ( #51, #146, ( #159 ) ) ;
#6 = LINE ( 'NONE', #111, #116 ) ;
#7 = APPROVAL ( #1, 'Coincident' ) ;
#8 = VECTOR ( 'NONE', #145, 1000.000000000000000 ) ;
#9 = EDGE_CURVE ( 'NONE', #174, #156, #161, .T. ) ;
#10 = EDGE_LOOP ( 'NONE', ( #172, #88, #68, #122 ) ) ;
#11 = COORDINATED_UNIVERSAL_TIME_OFFSET ( 10, 0, .AHEAD. ) ;
#12 = CARTESIAN_POINT ( 'NONE',  ( 0.000000000000000000, 0.000000000000000000, 0.000000000000000000 ) ) ;
#13 = DATE_AND_TIME ( #177, #98 ) ;
#14 = PLANE ( 'NONE',  #48 ) ;
#15 = PERSON_AND_ORGANIZATION_ROLE ( 'classification_officer' ) ;
#16 = VERTEX_POINT ( 'NONE', #92 ) ;
#17 = APPLICATION_PROTOCOL_DEFINITION ( 'international standard', 'config_control_design', 1994, #171 ) ;
#18 = CARTESIAN_POINT ( 'NONE',  ( 0.000000000000000000, 0.000000000000000000, 0.1375000000000000111 ) ) ;
#19 = VECTOR ( 'NONE', #207, 1000.000000000000000 ) ;
#20 = CC_DESIGN_SECURITY_CLASSIFICATION ( #148, ( #123 ) ) ;
#21 = PERSON_AND_ORGANIZATION ( #18446744073709551615, #18446744073709551615 ) ;
#22 = CARTESIAN_POINT ( 'NONE',  ( 0.000000000000000000, 0.000000000000000000, 0.000000000000000000 ) ) ;
#23 = ADVANCED_FACE ( 'NONE', ( #218 ), #210, .T. ) ;
#24 = DIRECTION ( 'NONE',  ( 0.000000000000000000, 1.000000000000000000, 0.000000000000000000 ) ) ;
#25 = LINE ( 'NONE', #96, #105 ) ;
#26 = DIRECTION ( 'NONE',  ( -0.000000000000000000, 1.000000000000000000, 0.000000000000000000 ) ) ;
#27 = ADVANCED_FACE ( 'NONE', ( #30 ), #58, .F. ) ;
#28 = PRODUCT ( 'PinA.step', 'PinA.step', '', ( #214 ) ) ;
#29 = EDGE_CURVE ( 'NONE', #102, #156, #126, .T. ) ;
#30 = FACE_OUTER_BOUND ( 'NONE', #108, .T. ) ;
#31 = DIRECTION ( 'NONE',  ( 0.000000000000000000, 0.000000000000000000, 1.000000000000000000 ) ) ;
#32 = PLANE ( 'NONE',  #54 ) ;
#33 = APPROVAL_ROLE ( '' ) ;
#34 = ORIENTED_EDGE ( 'NONE', *, *, #118, .F. ) ;
#35 = APPROVAL_PERSON_ORGANIZATION ( #234, #184, #175 ) ;
#36 = DIRECTION ( 'NONE',  ( 1.000000000000000000, 0.000000000000000000, 0.000000000000000000 ) ) ;
#37 = CARTESIAN_POINT ( 'NONE',  ( 0.000000000000000000, 0.000000000000000000, 0.000000000000000000 ) ) ;
#38 = DIRECTION ( 'NONE',  ( 0.000000000000000000, 0.000000000000000000, 1.000000000000000000 ) ) ;
#39 = DIRECTION ( 'NONE',  ( 1.000000000000000000, 0.000000000000000000, 0.000000000000000000 ) ) ;
#40 = VECTOR ( 'NONE', #223, 1000.000000000000000 ) ;
#41 = CC_DESIGN_PERSON_AND_ORGANIZATION_ASSIGNMENT ( #155, #15, ( #148 ) ) ;
#42 = CARTESIAN_POINT ( 'NONE',  ( 0.000000000000000000, 0.000000000000000000, 0.1375000000000000111 ) ) ;
#43 = DIRECTION ( 'NONE',  ( 0.000000000000000000, 1.000000000000000000, 0.000000000000000000 ) ) ;
#44 = CARTESIAN_POINT ( 'NONE',  ( 1.125000000000000000, 1.500000000000000000, 0.000000000000000000 ) ) ;
#45 = CC_DESIGN_APPROVAL ( #184, ( #123 ) ) ;
#46 = ADVANCED_FACE ( 'NONE', ( #194 ), #32, .F. ) ;
#47 = EDGE_CURVE ( 'NONE', #235, #180, #136, .T. ) ;
#48 = AXIS2_PLACEMENT_3D ( 'NONE', #158, #198, #205 ) ;
#49 = DIRECTION ( 'NONE',  ( 0.000000000000000000, 1.000000000000000000, 0.000000000000000000 ) ) ;
#50 = DIRECTION ( 'NONE',  ( -0.000000000000000000, 1.000000000000000000, 0.000000000000000000 ) ) ;
#51 = PERSON_AND_ORGANIZATION ( #18446744073709551615, #18446744073709551615 ) ;
#52 = ORIENTED_EDGE ( 'NONE', *, *, #9, .T. ) ;
#53 = SECURITY_CLASSIFICATION_LEVEL ( 'unclassified' ) ;
#54 = AXIS2_PLACEMENT_3D ( 'NONE', #12, #106, #200 ) ;
#55 = EDGE_LOOP ( 'NONE', ( #87, #76, #117, #34 ) ) ;
#56 = LOCAL_TIME ( 18, 49, 52.00000000000000000, #121 ) ;
#57 = COORDINATED_UNIVERSAL_TIME_OFFSET ( 10, 0, .AHEAD. ) ;
#58 = PLANE ( 'NONE',  #152 ) ;
#59 = CARTESIAN_POINT ( 'NONE',  ( 0.000000000000000000, 0.000000000000000000, 0.000000000000000000 ) ) ;
#60 = LINE ( 'NONE', #22, #67 ) ;
#61 = CARTESIAN_POINT ( 'NONE',  ( 1.125000000000000000, 1.500000000000000000, 0.1375000000000000111 ) ) ;
#62 = DESIGN_CONTEXT ( 'detailed design', #171, 'design' ) ;
#63 = LINE ( 'NONE', #169, #40 ) ;
#64 = ORIENTED_EDGE ( 'NONE', *, *, #129, .F. ) ;
#65 = ADVANCED_FACE ( 'NONE', ( #178 ), #14, .T. ) ;
#66 = ORIENTED_EDGE ( 'NONE', *, *, #77, .T. ) ;
#67 = VECTOR ( 'NONE', #128, 1000.000000000000000 ) ;
#68 = ORIENTED_EDGE ( 'NONE', *, *, #77, .F. ) ;
#69 = APPROVAL_STATUS ( 'not_yet_approved' ) ;
#70 = ORIENTED_EDGE ( 'NONE', *, *, #118, .T. ) ;
#71 = APPROVAL ( #181, 'Coincident' ) ;
#72 = CALENDAR_DATE ( 2026, 22, 6 ) ;
#73 = EDGE_LOOP ( 'NONE', ( #120, #217, #212, #135 ) ) ;
#74 = PERSON_AND_ORGANIZATION_ROLE ( 'design_owner' ) ;
#75 = AXIS2_PLACEMENT_3D ( 'NONE', #233, #125, #49 ) ;
#76 = ORIENTED_EDGE ( 'NONE', *, *, #151, .T. ) ;
#77 = EDGE_CURVE ( 'NONE', #182, #102, #186, .T. ) ;
#78 = LINE ( 'NONE', #203, #100 ) ;
#79 = CARTESIAN_POINT ( 'NONE',  ( 0.000000000000000000, 1.500000000000000000, 0.1375000000000000111 ) ) ;
#80 = VECTOR ( 'NONE', #38, 1000.000000000000000 ) ;
#81 =( LENGTH_UNIT ( ) NAMED_UNIT ( * ) SI_UNIT ( .MILLI., .METRE. ) );
#82 = AXIS2_PLACEMENT_3D ( 'NONE', #59, #127, #113 ) ;
#83 = DIRECTION ( 'NONE',  ( 1.000000000000000000, 0.000000000000000000, 0.000000000000000000 ) ) ;
#84 = CALENDAR_DATE ( 2026, 22, 6 ) ;
#85 = CARTESIAN_POINT ( 'NONE',  ( 1.125000000000000000, 1.500000000000000000, 0.000000000000000000 ) ) ;
#86 = DATE_TIME_ROLE ( 'creation_date' ) ;
#87 = ORIENTED_EDGE ( 'NONE', *, *, #29, .F. ) ;
#88 = ORIENTED_EDGE ( 'NONE', *, *, #151, .F. ) ;
#89 = CC_DESIGN_DATE_AND_TIME_ASSIGNMENT ( #13, #86, ( #159 ) ) ;
#90 = APPROVAL_DATE_TIME ( #185, #184 ) ;
#91 = VECTOR ( 'NONE', #4, 1000.000000000000000 ) ;
#92 = CARTESIAN_POINT ( 'NONE',  ( 0.000000000000000000, 1.500000000000000000, 0.000000000000000000 ) ) ;
#93 = APPROVAL_PERSON_ORGANIZATION ( #94, #7, #160 ) ;
#94 = PERSON_AND_ORGANIZATION ( #18446744073709551615, #18446744073709551615 ) ;
#95 = CARTESIAN_POINT ( 'NONE',  ( 0.000000000000000000, 0.000000000000000000, 0.000000000000000000 ) ) ;
#96 = CARTESIAN_POINT ( 'NONE',  ( 1.125000000000000000, 0.000000000000000000, 0.1375000000000000111 ) ) ;
#97 = PLANE ( 'NONE',  #170 ) ;
#98 = LOCAL_TIME ( 18, 49, 52.00000000000000000, #57 ) ;
#99 = DIRECTION ( 'NONE',  ( 1.000000000000000000, 0.000000000000000000, 0.000000000000000000 ) ) ;
#100 = VECTOR ( 'NONE', #39, 1000.000000000000000 ) ;
#101 = UNCERTAINTY_MEASURE_WITH_UNIT (LENGTH_MEASURE( 1.000000000000000082E-05 ), #81, 'distance_accuracy_value', 'NONE');
#102 = VERTEX_POINT ( 'NONE', #188 ) ;
#103 = PERSON_AND_ORGANIZATION ( #18446744073709551615, #18446744073709551615 ) ;
#104 = EDGE_LOOP ( 'NONE', ( #110, #52, #70, #64 ) ) ;
#105 = VECTOR ( 'NONE', #225, 1000.000000000000000 ) ;
#106 = DIRECTION ( 'NONE',  ( 0.000000000000000000, 0.000000000000000000, 1.000000000000000000 ) ) ;
#107 = COORDINATED_UNIVERSAL_TIME_OFFSET ( 10, 0, .AHEAD. ) ;
#108 = EDGE_LOOP ( 'NONE', ( #138, #176, #140, #66 ) ) ;
#109 = EDGE_CURVE ( 'NONE', #182, #174, #149, .T. ) ;
#110 = ORIENTED_EDGE ( 'NONE', *, *, #227, .F. ) ;
#111 = CARTESIAN_POINT ( 'NONE',  ( 1.125000000000000000, 0.000000000000000000, 0.000000000000000000 ) ) ;
#112 = LINE ( 'NONE', #42, #154 ) ;
#113 = DIRECTION ( 'NONE',  ( 0.000000000000000000, 1.000000000000000000, 0.000000000000000000 ) ) ;
#114 = AXIS2_PLACEMENT_3D ( 'NONE', #197, #31, #36 ) ;
#115 = CC_DESIGN_PERSON_AND_ORGANIZATION_ASSIGNMENT ( #192, #139, ( #123 ) ) ;
#116 = VECTOR ( 'NONE', #43, 1000.000000000000000 ) ;
#117 = ORIENTED_EDGE ( 'NONE', *, *, #47, .T. ) ;
#118 = EDGE_CURVE ( 'NONE', #156, #180, #25, .T. ) ;
#119 = COORDINATED_UNIVERSAL_TIME_OFFSET ( 10, 0, .AHEAD. ) ;
#120 = ORIENTED_EDGE ( 'NONE', *, *, #206, .F. ) ;
#121 = COORDINATED_UNIVERSAL_TIME_OFFSET ( 10, 0, .AHEAD. ) ;
#122 = ORIENTED_EDGE ( 'NONE', *, *, #201, .T. ) ;
#123 = PRODUCT_DEFINITION_FORMATION_WITH_SPECIFIED_SOURCE ( 'Symmetric', '', #28, .NOT_KNOWN. ) ;
#124 = DATE_TIME_ROLE ( 'classification_date' ) ;
#125 = DIRECTION ( 'NONE',  ( 1.000000000000000000, 0.000000000000000000, 0.000000000000000000 ) ) ;
#126 = LINE ( 'NONE', #215, #228 ) ;
#127 = DIRECTION ( 'NONE',  ( 1.000000000000000000, 0.000000000000000000, 0.000000000000000000 ) ) ;
#128 = DIRECTION ( 'NONE',  ( 0.000000000000000000, 1.000000000000000000, 0.000000000000000000 ) ) ;
#129 = EDGE_CURVE ( 'NONE', #231, #180, #78, .T. ) ;
#130 = PLANE ( 'NONE',  #82 ) ;
#131 = CARTESIAN_POINT ( 'NONE',  ( 0.000000000000000000, 0.000000000000000000, 0.1375000000000000111 ) ) ;
#132 = CC_DESIGN_PERSON_AND_ORGANIZATION_ASSIGNMENT ( #232, #157, ( #123 ) ) ;
#133 = APPROVAL_PERSON_ORGANIZATION ( #103, #71, #33 ) ;
#134 = CC_DESIGN_DATE_AND_TIME_ASSIGNMENT ( #162, #124, ( #148 ) ) ;
#135 = ORIENTED_EDGE ( 'NONE', *, *, #47, .F. ) ;
#136 = LINE ( 'NONE', #85, #80 ) ;
#137 = EDGE_CURVE ( 'NONE', #16, #231, #63, .T. ) ;
#138 = ORIENTED_EDGE ( 'NONE', *, *, #29, .T. ) ;
#139 = PERSON_AND_ORGANIZATION_ROLE ( 'creator' ) ;
#140 = ORIENTED_EDGE ( 'NONE', *, *, #109, .F. ) ;
#141 = DATE_AND_TIME ( #84, #226 ) ;
#142 = ORIENTED_EDGE ( 'NONE', *, *, #201, .F. ) ;
#143 = DATE_AND_TIME ( #202, #183 ) ;
#144 = CC_DESIGN_APPROVAL ( #7, ( #148 ) ) ;
#145 = DIRECTION ( 'NONE',  ( 1.000000000000000000, 0.000000000000000000, 0.000000000000000000 ) ) ;
#146 = PERSON_AND_ORGANIZATION_ROLE ( 'creator' ) ;
#147 = CARTESIAN_POINT ( 'NONE',  ( 0.000000000000000000, 0.000000000000000000, 0.000000000000000000 ) ) ;
#148 = SECURITY_CLASSIFICATION ( '', '', #53 ) ;
#149 = LINE ( 'NONE', #165, #91 ) ;
#150 = PRODUCT_DEFINITION_SHAPE ( 'NONE', 'NONE',  #159 ) ;
#151 = EDGE_CURVE ( 'NONE', #102, #235, #6, .T. ) ;
#152 = AXIS2_PLACEMENT_3D ( 'NONE', #37, #50, #83 ) ;
#153 = ORIENTED_EDGE ( 'NONE', *, *, #109, .T. ) ;
#154 = VECTOR ( 'NONE', #24, 1000.000000000000000 ) ;
#155 = PERSON_AND_ORGANIZATION ( #18446744073709551615, #18446744073709551615 ) ;
#156 = VERTEX_POINT ( 'NONE', #220 ) ;
#157 = PERSON_AND_ORGANIZATION_ROLE ( 'design_supplier' ) ;
#158 = CARTESIAN_POINT ( 'NONE',  ( 0.000000000000000000, 0.000000000000000000, 0.1375000000000000111 ) ) ;
#159 = PRODUCT_DEFINITION ( 'General', '', #123, #62 ) ;
#160 = APPROVAL_ROLE ( '' ) ;
#161 = LINE ( 'NONE', #18, #8 ) ;
#162 = DATE_AND_TIME ( #72, #56 ) ;
#163 = EDGE_LOOP ( 'NONE', ( #195, #191, #142, #153 ) ) ;
#164 = FACE_OUTER_BOUND ( 'NONE', #73, .T. ) ;
#165 = CARTESIAN_POINT ( 'NONE',  ( 0.000000000000000000, 0.000000000000000000, 0.000000000000000000 ) ) ;
#166 = CLOSED_SHELL ( 'NONE', ( #65, #46, #190, #27, #23, #189 ) ) ;
#167 = LOCAL_TIME ( 18, 49, 52.00000000000000000, #11 ) ;
#168 = CARTESIAN_POINT ( 'NONE',  ( 0.000000000000000000, 1.500000000000000000, 0.000000000000000000 ) ) ;
#169 = CARTESIAN_POINT ( 'NONE',  ( 0.000000000000000000, 1.500000000000000000, 0.000000000000000000 ) ) ;
#170 = AXIS2_PLACEMENT_3D ( 'NONE', #221, #26, #3 ) ;
#171 = APPLICATION_CONTEXT ( 'configuration controlled 3d designs of mechanical parts and assemblies' ) ;
#172 = ORIENTED_EDGE ( 'NONE', *, *, #206, .T. ) ;
#173 = ADVANCED_BREP_SHAPE_REPRESENTATION ( 'PinA.step', ( #193, #114 ), #222 ) ;
#174 = VERTEX_POINT ( 'NONE', #131 ) ;
#175 = APPROVAL_ROLE ( '' ) ;
#176 = ORIENTED_EDGE ( 'NONE', *, *, #9, .F. ) ;
#177 = CALENDAR_DATE ( 2026, 22, 6 ) ;
#178 = FACE_OUTER_BOUND ( 'NONE', #104, .T. ) ;
#179 = APPROVAL_DATE_TIME ( #143, #7 ) ;
#180 = VERTEX_POINT ( 'NONE', #61 ) ;
#181 = APPROVAL_STATUS ( 'not_yet_approved' ) ;
#182 = VERTEX_POINT ( 'NONE', #147 ) ;
#183 = LOCAL_TIME ( 18, 49, 52.00000000000000000, #107 ) ;
#184 = APPROVAL ( #69, 'Coincident' ) ;
#185 = DATE_AND_TIME ( #199, #167 ) ;
#186 = LINE ( 'NONE', #95, #208 ) ;
#187 = FACE_OUTER_BOUND ( 'NONE', #163, .T. ) ;
#188 = CARTESIAN_POINT ( 'NONE',  ( 1.125000000000000000, 0.000000000000000000, 0.000000000000000000 ) ) ;
#189 = ADVANCED_FACE ( 'NONE', ( #187 ), #130, .F. ) ;
#190 = ADVANCED_FACE ( 'NONE', ( #164 ), #97, .T. ) ;
#191 = ORIENTED_EDGE ( 'NONE', *, *, #137, .F. ) ;
#192 = PERSON_AND_ORGANIZATION ( #18446744073709551615, #18446744073709551615 ) ;
#193 = MANIFOLD_SOLID_BREP ( 'PinA[1]', #166 ) ;
#194 = FACE_OUTER_BOUND ( 'NONE', #10, .T. ) ;
#195 = ORIENTED_EDGE ( 'NONE', *, *, #227, .T. ) ;
#196 = CC_DESIGN_APPROVAL ( #71, ( #159 ) ) ;
#197 = CARTESIAN_POINT ( 'NONE',  ( 0.000000000000000000, 0.000000000000000000, 0.000000000000000000 ) ) ;
#198 = DIRECTION ( 'NONE',  ( 0.000000000000000000, 0.000000000000000000, 1.000000000000000000 ) ) ;
#199 = CALENDAR_DATE ( 2026, 22, 6 ) ;
#200 = DIRECTION ( 'NONE',  ( 1.000000000000000000, 0.000000000000000000, 0.000000000000000000 ) ) ;
#201 = EDGE_CURVE ( 'NONE', #182, #16, #60, .T. ) ;
#202 = CALENDAR_DATE ( 2026, 22, 6 ) ;
#203 = CARTESIAN_POINT ( 'NONE',  ( 0.000000000000000000, 1.500000000000000000, 0.1375000000000000111 ) ) ;
#204 = LINE ( 'NONE', #168, #19 ) ;
#205 = DIRECTION ( 'NONE',  ( 1.000000000000000000, 0.000000000000000000, 0.000000000000000000 ) ) ;
#206 = EDGE_CURVE ( 'NONE', #16, #235, #204, .T. ) ;
#207 = DIRECTION ( 'NONE',  ( 1.000000000000000000, 0.000000000000000000, 0.000000000000000000 ) ) ;
#208 = VECTOR ( 'NONE', #99, 1000.000000000000000 ) ;
#209 = APPLICATION_CONTEXT ( 'configuration controlled 3d designs of mechanical parts and assemblies' ) ;
#210 = PLANE ( 'NONE',  #75 ) ;
#211 =( NAMED_UNIT ( * ) SI_UNIT ( $, .STERADIAN. ) SOLID_ANGLE_UNIT ( ) );
#212 = ORIENTED_EDGE ( 'NONE', *, *, #129, .T. ) ;
#213 = PRODUCT_RELATED_PRODUCT_CATEGORY ( 'detail', '', ( #28 ) ) ;
#214 = MECHANICAL_CONTEXT ( 'NONE', #209, 'mechanical' ) ;
#215 = CARTESIAN_POINT ( 'NONE',  ( 1.125000000000000000, 0.000000000000000000, 0.000000000000000000 ) ) ;
#216 = APPROVAL_DATE_TIME ( #141, #71 ) ;
#217 = ORIENTED_EDGE ( 'NONE', *, *, #137, .T. ) ;
#218 = FACE_OUTER_BOUND ( 'NONE', #55, .T. ) ;
#219 = SHAPE_DEFINITION_REPRESENTATION ( #150, #173 ) ;
#220 = CARTESIAN_POINT ( 'NONE',  ( 1.125000000000000000, 0.000000000000000000, 0.1375000000000000111 ) ) ;
#221 = CARTESIAN_POINT ( 'NONE',  ( 0.000000000000000000, 1.500000000000000000, 0.000000000000000000 ) ) ;
#222 =( GEOMETRIC_REPRESENTATION_CONTEXT ( 3 ) GLOBAL_UNCERTAINTY_ASSIGNED_CONTEXT ( ( #101 ) ) GLOBAL_UNIT_ASSIGNED_CONTEXT ( ( #81, #2, #211 ) ) REPRESENTATION_CONTEXT ( 'NONE', 'WORKASPACE' ) );
#223 = DIRECTION ( 'NONE',  ( 0.000000000000000000, 0.000000000000000000, 1.000000000000000000 ) ) ;
#224 = CC_DESIGN_PERSON_AND_ORGANIZATION_ASSIGNMENT ( #21, #74, ( #28 ) ) ;
#225 = DIRECTION ( 'NONE',  ( 0.000000000000000000, 1.000000000000000000, 0.000000000000000000 ) ) ;
#226 = LOCAL_TIME ( 18, 49, 52.00000000000000000, #119 ) ;
#227 = EDGE_CURVE ( 'NONE', #174, #231, #112, .T. ) ;
#228 = VECTOR ( 'NONE', #229, 1000.000000000000000 ) ;
#229 = DIRECTION ( 'NONE',  ( 0.000000000000000000, 0.000000000000000000, 1.000000000000000000 ) ) ;
#230 = APPLICATION_PROTOCOL_DEFINITION ( 'international standard', 'config_control_design', 1994, #209 ) ;
#231 = VERTEX_POINT ( 'NONE', #79 ) ;
#232 = PERSON_AND_ORGANIZATION ( #18446744073709551615, #18446744073709551615 ) ;
#233 = CARTESIAN_POINT ( 'NONE',  ( 1.125000000000000000, 0.000000000000000000, 0.000000000000000000 ) ) ;
#234 = PERSON_AND_ORGANIZATION ( #18446744073709551615, #18446744073709551615 ) ;
#235 = VERTEX_POINT ( 'NONE', #44 ) ;
ENDSEC;
END-ISO-10303-21;
