ISO-10303-21;
HEADER;
FILE_DESCRIPTION (( 'STEP AP203' ),
    '1' );
FILE_NAME ('PinKIdent.step.STEP',
    '2026-06-22T08:49:52',
    ( 'localuser' ),
    ( '' ),
    'SwSTEP 2.0',
    'SolidWorks 2025',
    '' );
FILE_SCHEMA (( 'CONFIG_CONTROL_DESIGN' ));
ENDSEC;

DATA;
#1 = APPROVAL_ROLE ( '' ) ;
#2 =( LENGTH_UNIT ( ) NAMED_UNIT ( * ) SI_UNIT ( .MILLI., .METRE. ) );
#3 = PERSON_AND_ORGANIZATION ( #18446744073709551615, #18446744073709551615 ) ;
#4 = CC_DESIGN_PERSON_AND_ORGANIZATION_ASSIGNMENT ( #60, #217, ( #225 ) ) ;
#5 = CARTESIAN_POINT ( 'NONE',  ( 0.000000000000000000, 2.500000000000000000, 0.000000000000000000 ) ) ;
#6 = PRODUCT_DEFINITION ( 'General', '', #225, #154 ) ;
#7 = CARTESIAN_POINT ( 'NONE',  ( 0.000000000000000000, 0.000000000000000000, 0.000000000000000000 ) ) ;
#8 = DATE_AND_TIME ( #120, #84 ) ;
#9 = DIRECTION ( 'NONE',  ( 0.000000000000000000, 1.000000000000000000, 0.000000000000000000 ) ) ;
#10 = LINE ( 'NONE', #7, #210 ) ;
#11 = CALENDAR_DATE ( 2026, 22, 6 ) ;
#12 = LINE ( 'NONE', #46, #195 ) ;
#13 = CC_DESIGN_PERSON_AND_ORGANIZATION_ASSIGNMENT ( #105, #202, ( #6 ) ) ;
#14 = CALENDAR_DATE ( 2026, 22, 6 ) ;
#15 = DIRECTION ( 'NONE',  ( 0.000000000000000000, 0.000000000000000000, 1.000000000000000000 ) ) ;
#16 =( GEOMETRIC_REPRESENTATION_CONTEXT ( 3 ) GLOBAL_UNCERTAINTY_ASSIGNED_CONTEXT ( ( #19 ) ) GLOBAL_UNIT_ASSIGNED_CONTEXT ( ( #2, #149, #165 ) ) REPRESENTATION_CONTEXT ( 'NONE', 'WORKASPACE' ) );
#17 = APPROVAL_DATE_TIME ( #123, #40 ) ;
#18 = APPLICATION_PROTOCOL_DEFINITION ( 'international standard', 'config_control_design', 1994, #182 ) ;
#19 = UNCERTAINTY_MEASURE_WITH_UNIT (LENGTH_MEASURE( 1.000000000000000082E-05 ), #2, 'distance_accuracy_value', 'NONE');
#20 = CC_DESIGN_PERSON_AND_ORGANIZATION_ASSIGNMENT ( #97, #221, ( #209 ) ) ;
#21 = DIRECTION ( 'NONE',  ( 0.000000000000000000, 1.000000000000000000, 0.000000000000000000 ) ) ;
#22 = DIRECTION ( 'NONE',  ( 1.000000000000000000, 0.000000000000000000, 0.000000000000000000 ) ) ;
#23 = CC_DESIGN_APPROVAL ( #40, ( #225 ) ) ;
#24 = VERTEX_POINT ( 'NONE', #173 ) ;
#25 = PRODUCT_DEFINITION_SHAPE ( 'NONE', 'NONE',  #6 ) ;
#26 = VERTEX_POINT ( 'NONE', #157 ) ;
#27 = DATE_AND_TIME ( #14, #54 ) ;
#28 = LINE ( 'NONE', #98, #99 ) ;
#29 = DATE_TIME_ROLE ( 'classification_date' ) ;
#30 = LINE ( 'NONE', #218, #235 ) ;
#31 = COORDINATED_UNIVERSAL_TIME_OFFSET ( 10, 0, .AHEAD. ) ;
#32 = ORIENTED_EDGE ( 'NONE', *, *, #150, .T. ) ;
#33 = DIRECTION ( 'NONE',  ( 0.000000000000000000, 1.000000000000000000, 0.000000000000000000 ) ) ;
#34 = APPROVAL_DATE_TIME ( #8, #94 ) ;
#35 = DIRECTION ( 'NONE',  ( 1.000000000000000000, 0.000000000000000000, 0.000000000000000000 ) ) ;
#36 = VECTOR ( 'NONE', #53, 1000.000000000000000 ) ;
#37 = DIRECTION ( 'NONE',  ( -0.000000000000000000, 1.000000000000000000, 0.000000000000000000 ) ) ;
#38 = DIRECTION ( 'NONE',  ( 1.000000000000000000, 0.000000000000000000, 0.000000000000000000 ) ) ;
#39 = ORIENTED_EDGE ( 'NONE', *, *, #158, .T. ) ;
#40 = APPROVAL ( #233, 'Coincident' ) ;
#41 = ORIENTED_EDGE ( 'NONE', *, *, #150, .F. ) ;
#42 = ORIENTED_EDGE ( 'NONE', *, *, #128, .T. ) ;
#43 = VECTOR ( 'NONE', #141, 1000.000000000000000 ) ;
#44 = EDGE_LOOP ( 'NONE', ( #152, #151, #121, #61 ) ) ;
#45 = CALENDAR_DATE ( 2026, 22, 6 ) ;
#46 = CARTESIAN_POINT ( 'NONE',  ( 0.000000000000000000, 2.500000000000000000, 0.000000000000000000 ) ) ;
#47 = ORIENTED_EDGE ( 'NONE', *, *, #137, .F. ) ;
#48 = ADVANCED_FACE ( 'NONE', ( #189 ), #139, .F. ) ;
#49 = AXIS2_PLACEMENT_3D ( 'NONE', #166, #55, #129 ) ;
#50 = ORIENTED_EDGE ( 'NONE', *, *, #137, .T. ) ;
#51 = DIRECTION ( 'NONE',  ( 0.000000000000000000, 0.000000000000000000, 1.000000000000000000 ) ) ;
#52 = CC_DESIGN_PERSON_AND_ORGANIZATION_ASSIGNMENT ( #3, #67, ( #213 ) ) ;
#53 = DIRECTION ( 'NONE',  ( 0.000000000000000000, 1.000000000000000000, 0.000000000000000000 ) ) ;
#54 = LOCAL_TIME ( 18, 49, 52.00000000000000000, #190 ) ;
#55 = DIRECTION ( 'NONE',  ( 0.000000000000000000, 0.000000000000000000, 1.000000000000000000 ) ) ;
#56 = PLANE ( 'NONE',  #49 ) ;
#57 = DIRECTION ( 'NONE',  ( 1.000000000000000000, 0.000000000000000000, 0.000000000000000000 ) ) ;
#58 = CC_DESIGN_APPROVAL ( #193, ( #6 ) ) ;
#59 = DIRECTION ( 'NONE',  ( 1.000000000000000000, 0.000000000000000000, 0.000000000000000000 ) ) ;
#60 = PERSON_AND_ORGANIZATION ( #18446744073709551615, #18446744073709551615 ) ;
#61 = ORIENTED_EDGE ( 'NONE', *, *, #71, .T. ) ;
#62 = PRODUCT_RELATED_PRODUCT_CATEGORY ( 'detail', '', ( #213 ) ) ;
#63 = FACE_OUTER_BOUND ( 'NONE', #44, .T. ) ;
#64 = CLOSED_SHELL ( 'NONE', ( #183, #89, #179, #131, #184, #48 ) ) ;
#65 = DIRECTION ( 'NONE',  ( 1.000000000000000000, 0.000000000000000000, 0.000000000000000000 ) ) ;
#66 = FACE_OUTER_BOUND ( 'NONE', #92, .T. ) ;
#67 = PERSON_AND_ORGANIZATION_ROLE ( 'design_owner' ) ;
#68 = CARTESIAN_POINT ( 'NONE',  ( 0.000000000000000000, 0.000000000000000000, 0.000000000000000000 ) ) ;
#69 = AXIS2_PLACEMENT_3D ( 'NONE', #96, #175, #78 ) ;
#70 = FACE_OUTER_BOUND ( 'NONE', #156, .T. ) ;
#71 = EDGE_CURVE ( 'NONE', #194, #24, #10, .T. ) ;
#72 = APPROVAL_PERSON_ORGANIZATION ( #224, #193, #198 ) ;
#73 = DIRECTION ( 'NONE',  ( 0.000000000000000000, 1.000000000000000000, 0.000000000000000000 ) ) ;
#74 = SHAPE_DEFINITION_REPRESENTATION ( #25, #169 ) ;
#75 = CARTESIAN_POINT ( 'NONE',  ( 0.000000000000000000, 0.000000000000000000, 0.000000000000000000 ) ) ;
#76 = VERTEX_POINT ( 'NONE', #155 ) ;
#77 = COORDINATED_UNIVERSAL_TIME_OFFSET ( 10, 0, .AHEAD. ) ;
#78 = DIRECTION ( 'NONE',  ( 0.000000000000000000, 1.000000000000000000, 0.000000000000000000 ) ) ;
#79 = CC_DESIGN_DATE_AND_TIME_ASSIGNMENT ( #80, #29, ( #209 ) ) ;
#80 = DATE_AND_TIME ( #176, #178 ) ;
#81 = AXIS2_PLACEMENT_3D ( 'NONE', #5, #37, #38 ) ;
#82 = AXIS2_PLACEMENT_3D ( 'NONE', #216, #51, #59 ) ;
#83 = FACE_OUTER_BOUND ( 'NONE', #227, .T. ) ;
#84 = LOCAL_TIME ( 18, 49, 52.00000000000000000, #77 ) ;
#85 = CARTESIAN_POINT ( 'NONE',  ( 0.000000000000000000, 0.000000000000000000, 0.002000000000000000042 ) ) ;
#86 = CARTESIAN_POINT ( 'NONE',  ( 0.4274999999999999911, 0.000000000000000000, 0.000000000000000000 ) ) ;
#87 = CARTESIAN_POINT ( 'NONE',  ( 0.000000000000000000, 0.000000000000000000, 0.000000000000000000 ) ) ;
#88 = VECTOR ( 'NONE', #35, 1000.000000000000000 ) ;
#89 = ADVANCED_FACE ( 'NONE', ( #63 ), #100, .F. ) ;
#90 = CARTESIAN_POINT ( 'NONE',  ( 0.4274999999999999911, 2.500000000000000000, 0.000000000000000000 ) ) ;
#91 = EDGE_CURVE ( 'NONE', #194, #76, #232, .T. ) ;
#92 = EDGE_LOOP ( 'NONE', ( #135, #50, #32, #172 ) ) ;
#93 = ORIENTED_EDGE ( 'NONE', *, *, #91, .T. ) ;
#94 = APPROVAL ( #160, 'Coincident' ) ;
#95 = VECTOR ( 'NONE', #146, 1000.000000000000000 ) ;
#96 = CARTESIAN_POINT ( 'NONE',  ( 0.000000000000000000, 0.000000000000000000, 0.000000000000000000 ) ) ;
#97 = PERSON_AND_ORGANIZATION ( #18446744073709551615, #18446744073709551615 ) ;
#98 = CARTESIAN_POINT ( 'NONE',  ( 0.000000000000000000, 0.000000000000000000, 0.002000000000000000042 ) ) ;
#99 = VECTOR ( 'NONE', #9, 1000.000000000000000 ) ;
#100 = PLANE ( 'NONE',  #82 ) ;
#101 = DATE_TIME_ROLE ( 'creation_date' ) ;
#102 = VERTEX_POINT ( 'NONE', #231 ) ;
#103 = DATE_AND_TIME ( #45, #167 ) ;
#104 = ORIENTED_EDGE ( 'NONE', *, *, #145, .F. ) ;
#105 = PERSON_AND_ORGANIZATION ( #18446744073709551615, #18446744073709551615 ) ;
#106 = LINE ( 'NONE', #85, #88 ) ;
#107 = LINE ( 'NONE', #205, #36 ) ;
#108 = DIRECTION ( 'NONE',  ( 0.000000000000000000, 0.000000000000000000, 1.000000000000000000 ) ) ;
#109 = APPLICATION_CONTEXT ( 'configuration controlled 3d designs of mechanical parts and assemblies' ) ;
#110 = AXIS2_PLACEMENT_3D ( 'NONE', #75, #119, #57 ) ;
#111 = ORIENTED_EDGE ( 'NONE', *, *, #168, .T. ) ;
#112 = CC_DESIGN_DATE_AND_TIME_ASSIGNMENT ( #27, #101, ( #6 ) ) ;
#113 = ORIENTED_EDGE ( 'NONE', *, *, #168, .F. ) ;
#114 = EDGE_LOOP ( 'NONE', ( #214, #47, #211, #111 ) ) ;
#115 = AXIS2_PLACEMENT_3D ( 'NONE', #86, #163, #21 ) ;
#116 = ORIENTED_EDGE ( 'NONE', *, *, #187, .F. ) ;
#117 = EDGE_CURVE ( 'NONE', #24, #228, #12, .T. ) ;
#118 = PERSON_AND_ORGANIZATION_ROLE ( 'design_supplier' ) ;
#119 = DIRECTION ( 'NONE',  ( -0.000000000000000000, 1.000000000000000000, 0.000000000000000000 ) ) ;
#120 = CALENDAR_DATE ( 2026, 22, 6 ) ;
#121 = ORIENTED_EDGE ( 'NONE', *, *, #91, .F. ) ;
#122 = AXIS2_PLACEMENT_3D ( 'NONE', #68, #108, #22 ) ;
#123 = DATE_AND_TIME ( #11, #144 ) ;
#124 = LINE ( 'NONE', #136, #43 ) ;
#125 = LINE ( 'NONE', #201, #130 ) ;
#126 = CARTESIAN_POINT ( 'NONE',  ( 0.000000000000000000, 0.000000000000000000, 0.000000000000000000 ) ) ;
#127 = PLANE ( 'NONE',  #115 ) ;
#128 = EDGE_CURVE ( 'NONE', #76, #222, #177, .T. ) ;
#129 = DIRECTION ( 'NONE',  ( 1.000000000000000000, 0.000000000000000000, 0.000000000000000000 ) ) ;
#130 = VECTOR ( 'NONE', #33, 1000.000000000000000 ) ;
#131 = ADVANCED_FACE ( 'NONE', ( #83 ), #143, .F. ) ;
#132 = EDGE_LOOP ( 'NONE', ( #104, #212, #39, #41 ) ) ;
#133 = VECTOR ( 'NONE', #15, 1000.000000000000000 ) ;
#134 = EDGE_CURVE ( 'NONE', #228, #102, #124, .T. ) ;
#135 = ORIENTED_EDGE ( 'NONE', *, *, #117, .F. ) ;
#136 = CARTESIAN_POINT ( 'NONE',  ( 0.4274999999999999911, 2.500000000000000000, 0.000000000000000000 ) ) ;
#137 = EDGE_CURVE ( 'NONE', #24, #26, #191, .T. ) ;
#138 = APPROVAL_PERSON_ORGANIZATION ( #171, #94, #1 ) ;
#139 = PLANE ( 'NONE',  #69 ) ;
#140 = SECURITY_CLASSIFICATION_LEVEL ( 'unclassified' ) ;
#141 = DIRECTION ( 'NONE',  ( 0.000000000000000000, 0.000000000000000000, 1.000000000000000000 ) ) ;
#142 = PERSON_AND_ORGANIZATION ( #18446744073709551615, #18446744073709551615 ) ;
#143 = PLANE ( 'NONE',  #110 ) ;
#144 = LOCAL_TIME ( 18, 49, 52.00000000000000000, #174 ) ;
#145 = EDGE_CURVE ( 'NONE', #185, #26, #28, .T. ) ;
#146 = DIRECTION ( 'NONE',  ( 0.000000000000000000, 0.000000000000000000, 1.000000000000000000 ) ) ;
#147 = APPLICATION_PROTOCOL_DEFINITION ( 'international standard', 'config_control_design', 1994, #109 ) ;
#148 = FACE_OUTER_BOUND ( 'NONE', #132, .T. ) ;
#149 =( NAMED_UNIT ( * ) PLANE_ANGLE_UNIT ( ) SI_UNIT ( $, .RADIAN. ) );
#150 = EDGE_CURVE ( 'NONE', #26, #102, #30, .T. ) ;
#151 = ORIENTED_EDGE ( 'NONE', *, *, #153, .F. ) ;
#152 = ORIENTED_EDGE ( 'NONE', *, *, #117, .T. ) ;
#153 = EDGE_CURVE ( 'NONE', #76, #228, #125, .T. ) ;
#154 = DESIGN_CONTEXT ( 'detailed design', #109, 'design' ) ;
#155 = CARTESIAN_POINT ( 'NONE',  ( 0.4274999999999999911, 0.000000000000000000, 0.000000000000000000 ) ) ;
#156 = EDGE_LOOP ( 'NONE', ( #170, #229, #188, #186 ) ) ;
#157 = CARTESIAN_POINT ( 'NONE',  ( 0.000000000000000000, 2.500000000000000000, 0.002000000000000000042 ) ) ;
#158 = EDGE_CURVE ( 'NONE', #222, #102, #107, .T. ) ;
#159 = CARTESIAN_POINT ( 'NONE',  ( 0.4274999999999999911, 0.000000000000000000, 0.000000000000000000 ) ) ;
#160 = APPROVAL_STATUS ( 'not_yet_approved' ) ;
#161 = CARTESIAN_POINT ( 'NONE',  ( 0.000000000000000000, 0.000000000000000000, 0.000000000000000000 ) ) ;
#162 = MECHANICAL_CONTEXT ( 'NONE', #182, 'mechanical' ) ;
#163 = DIRECTION ( 'NONE',  ( 1.000000000000000000, 0.000000000000000000, 0.000000000000000000 ) ) ;
#164 = VECTOR ( 'NONE', #203, 1000.000000000000000 ) ;
#165 =( NAMED_UNIT ( * ) SI_UNIT ( $, .STERADIAN. ) SOLID_ANGLE_UNIT ( ) );
#166 = CARTESIAN_POINT ( 'NONE',  ( 0.000000000000000000, 0.000000000000000000, 0.002000000000000000042 ) ) ;
#167 = LOCAL_TIME ( 18, 49, 52.00000000000000000, #31 ) ;
#168 = EDGE_CURVE ( 'NONE', #194, #185, #226, .T. ) ;
#169 = ADVANCED_BREP_SHAPE_REPRESENTATION ( 'PinKIdent.step', ( #197, #122 ), #16 ) ;
#170 = ORIENTED_EDGE ( 'NONE', *, *, #128, .F. ) ;
#171 = PERSON_AND_ORGANIZATION ( #18446744073709551615, #18446744073709551615 ) ;
#172 = ORIENTED_EDGE ( 'NONE', *, *, #134, .F. ) ;
#173 = CARTESIAN_POINT ( 'NONE',  ( 0.000000000000000000, 2.500000000000000000, 0.000000000000000000 ) ) ;
#174 = COORDINATED_UNIVERSAL_TIME_OFFSET ( 10, 0, .AHEAD. ) ;
#175 = DIRECTION ( 'NONE',  ( 1.000000000000000000, 0.000000000000000000, 0.000000000000000000 ) ) ;
#176 = CALENDAR_DATE ( 2026, 22, 6 ) ;
#177 = LINE ( 'NONE', #159, #133 ) ;
#178 = LOCAL_TIME ( 18, 49, 52.00000000000000000, #223 ) ;
#179 = ADVANCED_FACE ( 'NONE', ( #66 ), #181, .T. ) ;
#180 = CARTESIAN_POINT ( 'NONE',  ( 0.000000000000000000, 0.000000000000000000, 0.002000000000000000042 ) ) ;
#181 = PLANE ( 'NONE',  #81 ) ;
#182 = APPLICATION_CONTEXT ( 'configuration controlled 3d designs of mechanical parts and assemblies' ) ;
#183 = ADVANCED_FACE ( 'NONE', ( #148 ), #56, .T. ) ;
#184 = ADVANCED_FACE ( 'NONE', ( #70 ), #127, .T. ) ;
#185 = VERTEX_POINT ( 'NONE', #180 ) ;
#186 = ORIENTED_EDGE ( 'NONE', *, *, #158, .F. ) ;
#187 = EDGE_CURVE ( 'NONE', #185, #222, #106, .T. ) ;
#188 = ORIENTED_EDGE ( 'NONE', *, *, #134, .T. ) ;
#189 = FACE_OUTER_BOUND ( 'NONE', #114, .T. ) ;
#190 = COORDINATED_UNIVERSAL_TIME_OFFSET ( 10, 0, .AHEAD. ) ;
#191 = LINE ( 'NONE', #199, #95 ) ;
#192 = APPROVAL_ROLE ( '' ) ;
#193 = APPROVAL ( #230, 'Coincident' ) ;
#194 = VERTEX_POINT ( 'NONE', #87 ) ;
#195 = VECTOR ( 'NONE', #220, 1000.000000000000000 ) ;
#196 = CC_DESIGN_APPROVAL ( #94, ( #209 ) ) ;
#197 = MANIFOLD_SOLID_BREP ( 'PinKIdent[1]', #64 ) ;
#198 = APPROVAL_ROLE ( '' ) ;
#199 = CARTESIAN_POINT ( 'NONE',  ( 0.000000000000000000, 2.500000000000000000, 0.000000000000000000 ) ) ;
#200 = APPROVAL_DATE_TIME ( #103, #193 ) ;
#201 = CARTESIAN_POINT ( 'NONE',  ( 0.4274999999999999911, 0.000000000000000000, 0.000000000000000000 ) ) ;
#202 = PERSON_AND_ORGANIZATION_ROLE ( 'creator' ) ;
#203 = DIRECTION ( 'NONE',  ( 0.000000000000000000, 0.000000000000000000, 1.000000000000000000 ) ) ;
#204 = CC_DESIGN_SECURITY_CLASSIFICATION ( #209, ( #225 ) ) ;
#205 = CARTESIAN_POINT ( 'NONE',  ( 0.4274999999999999911, 0.000000000000000000, 0.002000000000000000042 ) ) ;
#206 = CARTESIAN_POINT ( 'NONE',  ( 0.4274999999999999911, 0.000000000000000000, 0.002000000000000000042 ) ) ;
#207 = CC_DESIGN_PERSON_AND_ORGANIZATION_ASSIGNMENT ( #219, #118, ( #225 ) ) ;
#208 = VECTOR ( 'NONE', #234, 1000.000000000000000 ) ;
#209 = SECURITY_CLASSIFICATION ( '', '', #140 ) ;
#210 = VECTOR ( 'NONE', #73, 1000.000000000000000 ) ;
#211 = ORIENTED_EDGE ( 'NONE', *, *, #71, .F. ) ;
#212 = ORIENTED_EDGE ( 'NONE', *, *, #187, .T. ) ;
#213 = PRODUCT ( 'PinKIdent.step', 'PinKIdent.step', '', ( #162 ) ) ;
#214 = ORIENTED_EDGE ( 'NONE', *, *, #145, .T. ) ;
#215 = APPROVAL_PERSON_ORGANIZATION ( #142, #40, #192 ) ;
#216 = CARTESIAN_POINT ( 'NONE',  ( 0.000000000000000000, 0.000000000000000000, 0.000000000000000000 ) ) ;
#217 = PERSON_AND_ORGANIZATION_ROLE ( 'creator' ) ;
#218 = CARTESIAN_POINT ( 'NONE',  ( 0.000000000000000000, 2.500000000000000000, 0.002000000000000000042 ) ) ;
#219 = PERSON_AND_ORGANIZATION ( #18446744073709551615, #18446744073709551615 ) ;
#220 = DIRECTION ( 'NONE',  ( 1.000000000000000000, 0.000000000000000000, 0.000000000000000000 ) ) ;
#221 = PERSON_AND_ORGANIZATION_ROLE ( 'classification_officer' ) ;
#222 = VERTEX_POINT ( 'NONE', #206 ) ;
#223 = COORDINATED_UNIVERSAL_TIME_OFFSET ( 10, 0, .AHEAD. ) ;
#224 = PERSON_AND_ORGANIZATION ( #18446744073709551615, #18446744073709551615 ) ;
#225 = PRODUCT_DEFINITION_FORMATION_WITH_SPECIFIED_SOURCE ( 'Symmetric', '', #213, .NOT_KNOWN. ) ;
#226 = LINE ( 'NONE', #126, #164 ) ;
#227 = EDGE_LOOP ( 'NONE', ( #42, #116, #113, #93 ) ) ;
#228 = VERTEX_POINT ( 'NONE', #90 ) ;
#229 = ORIENTED_EDGE ( 'NONE', *, *, #153, .T. ) ;
#230 = APPROVAL_STATUS ( 'not_yet_approved' ) ;
#231 = CARTESIAN_POINT ( 'NONE',  ( 0.4274999999999999911, 2.500000000000000000, 0.002000000000000000042 ) ) ;
#232 = LINE ( 'NONE', #161, #208 ) ;
#233 = APPROVAL_STATUS ( 'not_yet_approved' ) ;
#234 = DIRECTION ( 'NONE',  ( 1.000000000000000000, 0.000000000000000000, 0.000000000000000000 ) ) ;
#235 = VECTOR ( 'NONE', #65, 1000.000000000000000 ) ;
ENDSEC;
END-ISO-10303-21;
