ISO-10303-21;
HEADER;
FILE_DESCRIPTION (( 'STEP AP203' ),
    '1' );
FILE_NAME ('PinK.step.STEP',
    '2026-06-22T08:49:52',
    ( 'localuser' ),
    ( '' ),
    'SwSTEP 2.0',
    'SolidWorks 2025',
    '' );
FILE_SCHEMA (( 'CONFIG_CONTROL_DESIGN' ));
ENDSEC;

DATA;
#1 = PERSON_AND_ORGANIZATION ( #18446744073709551615, #18446744073709551615 ) ;
#2 = COORDINATED_UNIVERSAL_TIME_OFFSET ( 10, 0, .AHEAD. ) ;
#3 = EDGE_CURVE ( 'NONE', #99, #176, #214, .T. ) ;
#4 =( NAMED_UNIT ( * ) SI_UNIT ( $, .STERADIAN. ) SOLID_ANGLE_UNIT ( ) );
#5 =( LENGTH_UNIT ( ) NAMED_UNIT ( * ) SI_UNIT ( .MILLI., .METRE. ) );
#6 = EDGE_CURVE ( 'NONE', #32, #78, #57, .T. ) ;
#7 = VECTOR ( 'NONE', #107, 1000.000000000000000 ) ;
#8 = EDGE_LOOP ( 'NONE', ( #116, #31, #30, #191 ) ) ;
#9 = ORIENTED_EDGE ( 'NONE', *, *, #108, .T. ) ;
#10 = ORIENTED_EDGE ( 'NONE', *, *, #142, .T. ) ;
#11 = APPROVAL ( #186, 'Coincident' ) ;
#12 = PLANE ( 'NONE',  #227 ) ;
#13 = SHAPE_DEFINITION_REPRESENTATION ( #155, #147 ) ;
#14 = LINE ( 'NONE', #196, #87 ) ;
#15 = APPROVAL_PERSON_ORGANIZATION ( #83, #121, #102 ) ;
#16 = CARTESIAN_POINT ( 'NONE',  ( 1.125000000000000000, 1.500000000000000000, 0.000000000000000000 ) ) ;
#17 = CARTESIAN_POINT ( 'NONE',  ( 0.000000000000000000, 1.500000000000000000, 0.000000000000000000 ) ) ;
#18 = ADVANCED_FACE ( 'NONE', ( #179 ), #12, .T. ) ;
#19 = PERSON_AND_ORGANIZATION_ROLE ( 'design_supplier' ) ;
#20 = LINE ( 'NONE', #36, #139 ) ;
#21 = AXIS2_PLACEMENT_3D ( 'NONE', #77, #22, #205 ) ;
#22 = DIRECTION ( 'NONE',  ( -0.000000000000000000, 1.000000000000000000, 0.000000000000000000 ) ) ;
#23 = EDGE_CURVE ( 'NONE', #176, #188, #181, .T. ) ;
#24 = PERSON_AND_ORGANIZATION ( #18446744073709551615, #18446744073709551615 ) ;
#25 = CC_DESIGN_APPROVAL ( #121, ( #171 ) ) ;
#26 = APPROVAL_ROLE ( '' ) ;
#27 = CC_DESIGN_PERSON_AND_ORGANIZATION_ASSIGNMENT ( #89, #198, ( #171 ) ) ;
#28 = ORIENTED_EDGE ( 'NONE', *, *, #49, .T. ) ;
#29 = PRODUCT_RELATED_PRODUCT_CATEGORY ( 'detail', '', ( #212 ) ) ;
#30 = ORIENTED_EDGE ( 'NONE', *, *, #67, .T. ) ;
#31 = ORIENTED_EDGE ( 'NONE', *, *, #199, .T. ) ;
#32 = VERTEX_POINT ( 'NONE', #201 ) ;
#33 = CC_DESIGN_PERSON_AND_ORGANIZATION_ASSIGNMENT ( #24, #75, ( #72 ) ) ;
#34 = LINE ( 'NONE', #101, #173 ) ;
#35 = DATE_AND_TIME ( #233, #151 ) ;
#36 = CARTESIAN_POINT ( 'NONE',  ( 1.125000000000000000, 0.000000000000000000, 0.000000000000000000 ) ) ;
#37 = LINE ( 'NONE', #16, #226 ) ;
#38 = CC_DESIGN_APPROVAL ( #58, ( #127 ) ) ;
#39 = CARTESIAN_POINT ( 'NONE',  ( 1.125000000000000000, 0.000000000000000000, 0.1375000000000000111 ) ) ;
#40 = LINE ( 'NONE', #109, #235 ) ;
#41 = MANIFOLD_SOLID_BREP ( 'PinK[1]', #69 ) ;
#42 = VECTOR ( 'NONE', #103, 1000.000000000000000 ) ;
#43 = CARTESIAN_POINT ( 'NONE',  ( 0.000000000000000000, 0.000000000000000000, 0.1375000000000000111 ) ) ;
#44 = APPLICATION_PROTOCOL_DEFINITION ( 'international standard', 'config_control_design', 1994, #124 ) ;
#45 = APPROVAL_DATE_TIME ( #206, #11 ) ;
#46 = CC_DESIGN_DATE_AND_TIME_ASSIGNMENT ( #129, #74, ( #171 ) ) ;
#47 = EDGE_LOOP ( 'NONE', ( #229, #79, #28, #117 ) ) ;
#48 = ORIENTED_EDGE ( 'NONE', *, *, #3, .T. ) ;
#49 = EDGE_CURVE ( 'NONE', #188, #175, #82, .T. ) ;
#50 = AXIS2_PLACEMENT_3D ( 'NONE', #43, #111, #185 ) ;
#51 = FACE_OUTER_BOUND ( 'NONE', #210, .T. ) ;
#52 = CARTESIAN_POINT ( 'NONE',  ( 0.000000000000000000, 1.500000000000000000, 0.000000000000000000 ) ) ;
#53 = PERSON_AND_ORGANIZATION ( #18446744073709551615, #18446744073709551615 ) ;
#54 = DIRECTION ( 'NONE',  ( 1.000000000000000000, 0.000000000000000000, 0.000000000000000000 ) ) ;
#55 = LOCAL_TIME ( 18, 49, 52.00000000000000000, #91 ) ;
#56 = DIRECTION ( 'NONE',  ( 1.000000000000000000, 0.000000000000000000, 0.000000000000000000 ) ) ;
#57 = LINE ( 'NONE', #231, #119 ) ;
#58 = APPROVAL ( #73, 'Coincident' ) ;
#59 =( GEOMETRIC_REPRESENTATION_CONTEXT ( 3 ) GLOBAL_UNCERTAINTY_ASSIGNED_CONTEXT ( ( #100 ) ) GLOBAL_UNIT_ASSIGNED_CONTEXT ( ( #5, #150, #4 ) ) REPRESENTATION_CONTEXT ( 'NONE', 'WORKASPACE' ) );
#60 = DIRECTION ( 'NONE',  ( 0.000000000000000000, 0.000000000000000000, 1.000000000000000000 ) ) ;
#61 = LOCAL_TIME ( 18, 49, 52.00000000000000000, #165 ) ;
#62 = CC_DESIGN_PERSON_AND_ORGANIZATION_ASSIGNMENT ( #85, #19, ( #127 ) ) ;
#63 = DIRECTION ( 'NONE',  ( 0.000000000000000000, 0.000000000000000000, 1.000000000000000000 ) ) ;
#64 = AXIS2_PLACEMENT_3D ( 'NONE', #128, #63, #120 ) ;
#65 = CARTESIAN_POINT ( 'NONE',  ( 1.125000000000000000, 1.500000000000000000, 0.000000000000000000 ) ) ;
#66 = CARTESIAN_POINT ( 'NONE',  ( 0.000000000000000000, 1.500000000000000000, 0.000000000000000000 ) ) ;
#67 = EDGE_CURVE ( 'NONE', #78, #175, #141, .T. ) ;
#68 = CARTESIAN_POINT ( 'NONE',  ( 0.000000000000000000, 0.000000000000000000, 0.000000000000000000 ) ) ;
#69 = CLOSED_SHELL ( 'NONE', ( #225, #189, #18, #217, #180, #112 ) ) ;
#70 = DIRECTION ( 'NONE',  ( 1.000000000000000000, 0.000000000000000000, 0.000000000000000000 ) ) ;
#71 = CC_DESIGN_SECURITY_CLASSIFICATION ( #171, ( #127 ) ) ;
#72 = PRODUCT_DEFINITION ( 'General', '', #127, #152 ) ;
#73 = APPROVAL_STATUS ( 'not_yet_approved' ) ;
#74 = DATE_TIME_ROLE ( 'classification_date' ) ;
#75 = PERSON_AND_ORGANIZATION_ROLE ( 'creator' ) ;
#76 = VECTOR ( 'NONE', #70, 1000.000000000000000 ) ;
#77 = CARTESIAN_POINT ( 'NONE',  ( 0.000000000000000000, 0.000000000000000000, 0.000000000000000000 ) ) ;
#78 = VERTEX_POINT ( 'NONE', #164 ) ;
#79 = ORIENTED_EDGE ( 'NONE', *, *, #23, .T. ) ;
#80 = DIRECTION ( 'NONE',  ( 0.000000000000000000, 1.000000000000000000, 0.000000000000000000 ) ) ;
#81 = DIRECTION ( 'NONE',  ( 1.000000000000000000, 0.000000000000000000, 0.000000000000000000 ) ) ;
#82 = LINE ( 'NONE', #84, #207 ) ;
#83 = PERSON_AND_ORGANIZATION ( #18446744073709551615, #18446744073709551615 ) ;
#84 = CARTESIAN_POINT ( 'NONE',  ( 0.000000000000000000, 1.500000000000000000, 0.1375000000000000111 ) ) ;
#85 = PERSON_AND_ORGANIZATION ( #18446744073709551615, #18446744073709551615 ) ;
#86 = VECTOR ( 'NONE', #162, 1000.000000000000000 ) ;
#87 = VECTOR ( 'NONE', #54, 1000.000000000000000 ) ;
#88 = CARTESIAN_POINT ( 'NONE',  ( 0.000000000000000000, 1.500000000000000000, 0.1375000000000000111 ) ) ;
#89 = PERSON_AND_ORGANIZATION ( #18446744073709551615, #18446744073709551615 ) ;
#90 = PLANE ( 'NONE',  #21 ) ;
#91 = COORDINATED_UNIVERSAL_TIME_OFFSET ( 10, 0, .AHEAD. ) ;
#92 = CC_DESIGN_APPROVAL ( #11, ( #72 ) ) ;
#93 = CALENDAR_DATE ( 2026, 22, 6 ) ;
#94 = VERTEX_POINT ( 'NONE', #65 ) ;
#95 = ORIENTED_EDGE ( 'NONE', *, *, #203, .T. ) ;
#96 = ORIENTED_EDGE ( 'NONE', *, *, #142, .F. ) ;
#97 = ORIENTED_EDGE ( 'NONE', *, *, #115, .T. ) ;
#98 = VECTOR ( 'NONE', #230, 1000.000000000000000 ) ;
#99 = VERTEX_POINT ( 'NONE', #143 ) ;
#100 = UNCERTAINTY_MEASURE_WITH_UNIT (LENGTH_MEASURE( 1.000000000000000082E-05 ), #5, 'distance_accuracy_value', 'NONE');
#101 = CARTESIAN_POINT ( 'NONE',  ( 0.000000000000000000, 0.000000000000000000, 0.1375000000000000111 ) ) ;
#102 = APPROVAL_ROLE ( '' ) ;
#103 = DIRECTION ( 'NONE',  ( 0.000000000000000000, 0.000000000000000000, 1.000000000000000000 ) ) ;
#104 = LOCAL_TIME ( 18, 49, 52.00000000000000000, #2 ) ;
#105 = APPROVAL_DATE_TIME ( #35, #121 ) ;
#106 = DIRECTION ( 'NONE',  ( 0.000000000000000000, 0.000000000000000000, 1.000000000000000000 ) ) ;
#107 = DIRECTION ( 'NONE',  ( 0.000000000000000000, 1.000000000000000000, 0.000000000000000000 ) ) ;
#108 = EDGE_CURVE ( 'NONE', #176, #94, #232, .T. ) ;
#109 = CARTESIAN_POINT ( 'NONE',  ( 0.000000000000000000, 0.000000000000000000, 0.000000000000000000 ) ) ;
#110 = DIRECTION ( 'NONE',  ( 0.000000000000000000, 0.000000000000000000, 1.000000000000000000 ) ) ;
#111 = DIRECTION ( 'NONE',  ( 0.000000000000000000, 0.000000000000000000, 1.000000000000000000 ) ) ;
#112 = ADVANCED_FACE ( 'NONE', ( #148 ), #221, .F. ) ;
#113 = CALENDAR_DATE ( 2026, 22, 6 ) ;
#114 = DATE_AND_TIME ( #93, #55 ) ;
#115 = EDGE_CURVE ( 'NONE', #157, #188, #130, .T. ) ;
#116 = ORIENTED_EDGE ( 'NONE', *, *, #115, .F. ) ;
#117 = ORIENTED_EDGE ( 'NONE', *, *, #203, .F. ) ;
#118 = ORIENTED_EDGE ( 'NONE', *, *, #194, .T. ) ;
#119 = VECTOR ( 'NONE', #106, 1000.000000000000000 ) ;
#120 = DIRECTION ( 'NONE',  ( 1.000000000000000000, 0.000000000000000000, 0.000000000000000000 ) ) ;
#121 = APPROVAL ( #215, 'Coincident' ) ;
#122 = APPROVAL_DATE_TIME ( #145, #58 ) ;
#123 = PLANE ( 'NONE',  #136 ) ;
#124 = APPLICATION_CONTEXT ( 'configuration controlled 3d designs of mechanical parts and assemblies' ) ;
#125 = PERSON_AND_ORGANIZATION_ROLE ( 'creator' ) ;
#126 = EDGE_LOOP ( 'NONE', ( #97, #208, #138, #10 ) ) ;
#127 = PRODUCT_DEFINITION_FORMATION_WITH_SPECIFIED_SOURCE ( 'Symmetric', '', #212, .NOT_KNOWN. ) ;
#128 = CARTESIAN_POINT ( 'NONE',  ( 0.000000000000000000, 0.000000000000000000, 0.000000000000000000 ) ) ;
#129 = DATE_AND_TIME ( #218, #61 ) ;
#130 = LINE ( 'NONE', #202, #86 ) ;
#131 = APPLICATION_PROTOCOL_DEFINITION ( 'international standard', 'config_control_design', 1994, #154 ) ;
#132 = CARTESIAN_POINT ( 'NONE',  ( 0.000000000000000000, 0.000000000000000000, 0.000000000000000000 ) ) ;
#133 = EDGE_CURVE ( 'NONE', #32, #94, #20, .T. ) ;
#134 = MECHANICAL_CONTEXT ( 'NONE', #154, 'mechanical' ) ;
#135 = PERSON_AND_ORGANIZATION ( #18446744073709551615, #18446744073709551615 ) ;
#136 = AXIS2_PLACEMENT_3D ( 'NONE', #183, #197, #200 ) ;
#137 = LOCAL_TIME ( 18, 49, 52.00000000000000000, #222 ) ;
#138 = ORIENTED_EDGE ( 'NONE', *, *, #3, .F. ) ;
#139 = VECTOR ( 'NONE', #216, 1000.000000000000000 ) ;
#140 = CC_DESIGN_PERSON_AND_ORGANIZATION_ASSIGNMENT ( #153, #172, ( #212 ) ) ;
#141 = LINE ( 'NONE', #39, #98 ) ;
#142 = EDGE_CURVE ( 'NONE', #99, #157, #40, .T. ) ;
#143 = CARTESIAN_POINT ( 'NONE',  ( 0.000000000000000000, 0.000000000000000000, 0.000000000000000000 ) ) ;
#144 = CARTESIAN_POINT ( 'NONE',  ( 1.125000000000000000, 1.500000000000000000, 0.1375000000000000111 ) ) ;
#145 = DATE_AND_TIME ( #204, #137 ) ;
#146 = CARTESIAN_POINT ( 'NONE',  ( 0.000000000000000000, 0.000000000000000000, 0.000000000000000000 ) ) ;
#147 = ADVANCED_BREP_SHAPE_REPRESENTATION ( 'PinK.step', ( #41, #223 ), #59 ) ;
#148 = FACE_OUTER_BOUND ( 'NONE', #126, .T. ) ;
#149 = APPROVAL_ROLE ( '' ) ;
#150 =( NAMED_UNIT ( * ) PLANE_ANGLE_UNIT ( ) SI_UNIT ( $, .RADIAN. ) );
#151 = LOCAL_TIME ( 18, 49, 52.00000000000000000, #182 ) ;
#152 = DESIGN_CONTEXT ( 'detailed design', #124, 'design' ) ;
#153 = PERSON_AND_ORGANIZATION ( #18446744073709551615, #18446744073709551615 ) ;
#154 = APPLICATION_CONTEXT ( 'configuration controlled 3d designs of mechanical parts and assemblies' ) ;
#155 = PRODUCT_DEFINITION_SHAPE ( 'NONE', 'NONE',  #72 ) ;
#156 = ORIENTED_EDGE ( 'NONE', *, *, #133, .F. ) ;
#157 = VERTEX_POINT ( 'NONE', #220 ) ;
#158 = CC_DESIGN_PERSON_AND_ORGANIZATION_ASSIGNMENT ( #53, #125, ( #127 ) ) ;
#159 = ORIENTED_EDGE ( 'NONE', *, *, #6, .T. ) ;
#160 = DIRECTION ( 'NONE',  ( 0.000000000000000000, 0.000000000000000000, 1.000000000000000000 ) ) ;
#161 = SECURITY_CLASSIFICATION_LEVEL ( 'unclassified' ) ;
#162 = DIRECTION ( 'NONE',  ( 0.000000000000000000, 1.000000000000000000, 0.000000000000000000 ) ) ;
#163 = DIRECTION ( 'NONE',  ( 1.000000000000000000, 0.000000000000000000, 0.000000000000000000 ) ) ;
#164 = CARTESIAN_POINT ( 'NONE',  ( 1.125000000000000000, 0.000000000000000000, 0.1375000000000000111 ) ) ;
#165 = COORDINATED_UNIVERSAL_TIME_OFFSET ( 10, 0, .AHEAD. ) ;
#166 = FACE_OUTER_BOUND ( 'NONE', #195, .T. ) ;
#167 = CC_DESIGN_DATE_AND_TIME_ASSIGNMENT ( #114, #187, ( #72 ) ) ;
#168 = FACE_OUTER_BOUND ( 'NONE', #8, .T. ) ;
#169 = DIRECTION ( 'NONE',  ( 1.000000000000000000, 0.000000000000000000, 0.000000000000000000 ) ) ;
#170 = AXIS2_PLACEMENT_3D ( 'NONE', #146, #81, #80 ) ;
#171 = SECURITY_CLASSIFICATION ( '', '', #161 ) ;
#172 = PERSON_AND_ORGANIZATION_ROLE ( 'design_owner' ) ;
#173 = VECTOR ( 'NONE', #177, 1000.000000000000000 ) ;
#174 = ORIENTED_EDGE ( 'NONE', *, *, #194, .F. ) ;
#175 = VERTEX_POINT ( 'NONE', #144 ) ;
#176 = VERTEX_POINT ( 'NONE', #219 ) ;
#177 = DIRECTION ( 'NONE',  ( 1.000000000000000000, 0.000000000000000000, 0.000000000000000000 ) ) ;
#178 = PLANE ( 'NONE',  #64 ) ;
#179 = FACE_OUTER_BOUND ( 'NONE', #47, .T. ) ;
#180 = ADVANCED_FACE ( 'NONE', ( #51 ), #123, .T. ) ;
#181 = LINE ( 'NONE', #17, #42 ) ;
#182 = COORDINATED_UNIVERSAL_TIME_OFFSET ( 10, 0, .AHEAD. ) ;
#183 = CARTESIAN_POINT ( 'NONE',  ( 1.125000000000000000, 0.000000000000000000, 0.000000000000000000 ) ) ;
#184 = FACE_OUTER_BOUND ( 'NONE', #228, .T. ) ;
#185 = DIRECTION ( 'NONE',  ( 1.000000000000000000, 0.000000000000000000, 0.000000000000000000 ) ) ;
#186 = APPROVAL_STATUS ( 'not_yet_approved' ) ;
#187 = DATE_TIME_ROLE ( 'creation_date' ) ;
#188 = VERTEX_POINT ( 'NONE', #88 ) ;
#189 = ADVANCED_FACE ( 'NONE', ( #166 ), #178, .F. ) ;
#190 = APPROVAL_PERSON_ORGANIZATION ( #1, #58, #149 ) ;
#191 = ORIENTED_EDGE ( 'NONE', *, *, #49, .F. ) ;
#192 = ORIENTED_EDGE ( 'NONE', *, *, #199, .F. ) ;
#193 = ORIENTED_EDGE ( 'NONE', *, *, #133, .T. ) ;
#194 = EDGE_CURVE ( 'NONE', #99, #32, #14, .T. ) ;
#195 = EDGE_LOOP ( 'NONE', ( #9, #156, #174, #48 ) ) ;
#196 = CARTESIAN_POINT ( 'NONE',  ( 0.000000000000000000, 0.000000000000000000, 0.000000000000000000 ) ) ;
#197 = DIRECTION ( 'NONE',  ( 1.000000000000000000, 0.000000000000000000, 0.000000000000000000 ) ) ;
#198 = PERSON_AND_ORGANIZATION_ROLE ( 'classification_officer' ) ;
#199 = EDGE_CURVE ( 'NONE', #157, #78, #34, .T. ) ;
#200 = DIRECTION ( 'NONE',  ( 0.000000000000000000, 1.000000000000000000, 0.000000000000000000 ) ) ;
#201 = CARTESIAN_POINT ( 'NONE',  ( 1.125000000000000000, 0.000000000000000000, 0.000000000000000000 ) ) ;
#202 = CARTESIAN_POINT ( 'NONE',  ( 0.000000000000000000, 0.000000000000000000, 0.1375000000000000111 ) ) ;
#203 = EDGE_CURVE ( 'NONE', #94, #175, #37, .T. ) ;
#204 = CALENDAR_DATE ( 2026, 22, 6 ) ;
#205 = DIRECTION ( 'NONE',  ( 1.000000000000000000, 0.000000000000000000, 0.000000000000000000 ) ) ;
#206 = DATE_AND_TIME ( #113, #104 ) ;
#207 = VECTOR ( 'NONE', #56, 1000.000000000000000 ) ;
#208 = ORIENTED_EDGE ( 'NONE', *, *, #23, .F. ) ;
#209 = APPROVAL_PERSON_ORGANIZATION ( #135, #11, #26 ) ;
#210 = EDGE_LOOP ( 'NONE', ( #213, #193, #95, #211 ) ) ;
#211 = ORIENTED_EDGE ( 'NONE', *, *, #67, .F. ) ;
#212 = PRODUCT ( 'PinK.step', 'PinK.step', '', ( #134 ) ) ;
#213 = ORIENTED_EDGE ( 'NONE', *, *, #6, .F. ) ;
#214 = LINE ( 'NONE', #68, #7 ) ;
#215 = APPROVAL_STATUS ( 'not_yet_approved' ) ;
#216 = DIRECTION ( 'NONE',  ( 0.000000000000000000, 1.000000000000000000, 0.000000000000000000 ) ) ;
#217 = ADVANCED_FACE ( 'NONE', ( #184 ), #90, .F. ) ;
#218 = CALENDAR_DATE ( 2026, 22, 6 ) ;
#219 = CARTESIAN_POINT ( 'NONE',  ( 0.000000000000000000, 1.500000000000000000, 0.000000000000000000 ) ) ;
#220 = CARTESIAN_POINT ( 'NONE',  ( 0.000000000000000000, 0.000000000000000000, 0.1375000000000000111 ) ) ;
#221 = PLANE ( 'NONE',  #170 ) ;
#222 = COORDINATED_UNIVERSAL_TIME_OFFSET ( 10, 0, .AHEAD. ) ;
#223 = AXIS2_PLACEMENT_3D ( 'NONE', #132, #60, #169 ) ;
#224 = PLANE ( 'NONE',  #50 ) ;
#225 = ADVANCED_FACE ( 'NONE', ( #168 ), #224, .T. ) ;
#226 = VECTOR ( 'NONE', #110, 1000.000000000000000 ) ;
#227 = AXIS2_PLACEMENT_3D ( 'NONE', #66, #234, #163 ) ;
#228 = EDGE_LOOP ( 'NONE', ( #159, #192, #96, #118 ) ) ;
#229 = ORIENTED_EDGE ( 'NONE', *, *, #108, .F. ) ;
#230 = DIRECTION ( 'NONE',  ( 0.000000000000000000, 1.000000000000000000, 0.000000000000000000 ) ) ;
#231 = CARTESIAN_POINT ( 'NONE',  ( 1.125000000000000000, 0.000000000000000000, 0.000000000000000000 ) ) ;
#232 = LINE ( 'NONE', #52, #76 ) ;
#233 = CALENDAR_DATE ( 2026, 22, 6 ) ;
#234 = DIRECTION ( 'NONE',  ( -0.000000000000000000, 1.000000000000000000, 0.000000000000000000 ) ) ;
#235 = VECTOR ( 'NONE', #160, 1000.000000000000000 ) ;
ENDSEC;
END-ISO-10303-21;
