ISO-10303-21;
HEADER;
FILE_DESCRIPTION (( 'STEP AP203' ),
    '1' );
FILE_NAME ('Pixhawk-Basemini-3D-simple.stp.STEP',
    '2026-06-22T08:49:48',
    ( 'localuser' ),
    ( '' ),
    'SwSTEP 2.0',
    'SolidWorks 2025',
    '' );
FILE_SCHEMA (( 'CONFIG_CONTROL_DESIGN' ));
ENDSEC;

DATA;
#1 = DATE_TIME_ROLE ( 'classification_date' ) ;
#2 = LOCAL_TIME ( 18, 49, 48.00000000000000000, #585 ) ;
#3 = PERSON_AND_ORGANIZATION_ROLE ( 'creator' ) ;
#4 = UNCERTAINTY_MEASURE_WITH_UNIT (LENGTH_MEASURE( 1.000000000000000082E-05 ), #97, 'distance_accuracy_value', 'NONE');
#5 = PERSON_AND_ORGANIZATION ( #18446744073709551615, #18446744073709551615 ) ;
#6 = DATE_AND_TIME ( #810, #232 ) ;
#7 = CC_DESIGN_PERSON_AND_ORGANIZATION_ASSIGNMENT ( #573, #637, ( #576 ) ) ;
#8 = SHAPE_REPRESENTATION ( 'Pixhawk-Basemini-3D-simple.stp', ( #615, #204, #808, #22, #9, #563, #280 ), #676 ) ;
#9 = AXIS2_PLACEMENT_3D ( 'NONE', #505, #36, #530 ) ;
#10 = APPROVAL_ROLE ( '' ) ;
#11 = CC_DESIGN_SECURITY_CLASSIFICATION ( #564, ( #861 ) ) ;
#12 = SECURITY_CLASSIFICATION ( '', '', #533 ) ;
#13 = CARTESIAN_POINT ( 'NONE',  ( 0.000000000000000000, 0.000000000000000000, 0.000000000000000000 ) ) ;
#14 = APPROVAL ( #141, 'UNKNOWN' ) ;
#15 = PERSON_AND_ORGANIZATION_ROLE ( 'classification_officer' ) ;
#16 = CARTESIAN_POINT ( 'NONE',  ( 0.000000000000000000, 0.000000000000000000, 0.000000000000000000 ) ) ;
#17 = APPLICATION_PROTOCOL_DEFINITION ( 'international standard', 'config_control_design', 1994, #819 ) ;
#18 = CC_DESIGN_PERSON_AND_ORGANIZATION_ASSIGNMENT ( #799, #126, ( #240 ) ) ;
#19 = DIRECTION ( 'NONE',  ( 1.000000000000000000, 0.000000000000000000, 0.000000000000000000 ) ) ;
#20 = AXIS2_PLACEMENT_3D ( 'NONE', #76, #552, #279 ) ;
#21 = CALENDAR_DATE ( 2026, 22, 6 ) ;
#22 = AXIS2_PLACEMENT_3D ( 'NONE', #372, #695, #646 ) ;
#23 = LOCAL_TIME ( 18, 49, 48.00000000000000000, #836 ) ;
#24 = CC_DESIGN_PERSON_AND_ORGANIZATION_ASSIGNMENT ( #783, #94, ( #87 ) ) ;
#25 = COORDINATED_UNIVERSAL_TIME_OFFSET ( 10, 0, .AHEAD. ) ;
#26 = CALENDAR_DATE ( 2026, 22, 6 ) ;
#27 =( NAMED_UNIT ( * ) PLANE_ANGLE_UNIT ( ) SI_UNIT ( $, .RADIAN. ) );
#28 = APPROVAL_STATUS ( 'not_yet_approved' ) ;
#29 = CALENDAR_DATE ( 2026, 22, 6 ) ;
#30 = COORDINATED_UNIVERSAL_TIME_OFFSET ( 10, 0, .AHEAD. ) ;
#31 = COORDINATED_UNIVERSAL_TIME_OFFSET ( 10, 0, .AHEAD. ) ;
#32 = PRODUCT_DEFINITION ( 'General', '', #193, #78 ) ;
#33 = PRODUCT_DEFINITION_SHAPE ( 'NONE', 'NONE',  #99 ) ;
#34 = DOCUMENT_FILE ( 'MOLEX-SD-502443-6PIN-DINGCHU.stp.STEP' , '', '', #170, '' ,$ ) ;
#35 = APPROVAL_ROLE ( '' ) ;
#36 = DIRECTION ( 'NONE',  ( 7.888609052210118054E-30, -1.000000000000000444, 5.551115128246594382E-17 ) ) ;
#37 = DOCUMENT_TYPE ( 'geometry' ) ;
#38 = APPROVAL_PERSON_ORGANIZATION ( #678, #202, #722 ) ;
#39 = AXIS2_PLACEMENT_3D ( 'NONE', #682, #290, #750 ) ;
#40 = PERSON_AND_ORGANIZATION ( #18446744073709551615, #18446744073709551615 ) ;
#41 = APPROVAL ( #588, 'Coincident' ) ;
#42 = APPLICATION_CONTEXT ( 'configuration controlled 3d designs of mechanical parts and assemblies' ) ;
#43 = SECURITY_CLASSIFICATION_LEVEL ( 'unclassified' ) ;
#44 = DATE_AND_TIME ( #777, #253 ) ;
#45 =( NAMED_UNIT ( * ) PLANE_ANGLE_UNIT ( ) SI_UNIT ( $, .RADIAN. ) );
#46 = PERSON_AND_ORGANIZATION ( #18446744073709551615, #18446744073709551615 ) ;
#47 = DATE_AND_TIME ( #645, #361 ) ;
#48 = CC_DESIGN_PERSON_AND_ORGANIZATION_ASSIGNMENT ( #334, #291, ( #306 ) ) ;
#49 = COORDINATED_UNIVERSAL_TIME_OFFSET ( 10, 0, .AHEAD. ) ;
#50 = PERSON_AND_ORGANIZATION_ROLE ( 'classification_officer' ) ;
#51 = DATE_AND_TIME ( #670, #162 ) ;
#52 = COORDINATED_UNIVERSAL_TIME_OFFSET ( 10, 0, .AHEAD. ) ;
#53 = APPROVAL ( #521, 'UNKNOWN' ) ;
#54 = APPROVAL_PERSON_ORGANIZATION ( #439, #550, #244 ) ;
#55 = APPROVAL_PERSON_ORGANIZATION ( #826, #14, #842 ) ;
#56 = CC_DESIGN_SECURITY_CLASSIFICATION ( #12, ( #865 ) ) ;
#57 = COORDINATED_UNIVERSAL_TIME_OFFSET ( 10, 0, .AHEAD. ) ;
#58 = DATE_AND_TIME ( #658, #624 ) ;
#59 = PERSON_AND_ORGANIZATION ( #18446744073709551615, #18446744073709551615 ) ;
#60 = PROPERTY_DEFINITION ('document property','', #34 ) ;
#61 = APPROVAL_STATUS ( 'not_yet_approved' ) ;
#62 = PERSON_AND_ORGANIZATION ( #18446744073709551615, #18446744073709551615 ) ;
#63 = PERSON_AND_ORGANIZATION ( #18446744073709551615, #18446744073709551615 ) ;
#64 = CC_DESIGN_PERSON_AND_ORGANIZATION_ASSIGNMENT ( #765, #702, ( #228 ) ) ;
#65 = DATE_AND_TIME ( #184, #665 ) ;
#66 = CALENDAR_DATE ( 2026, 22, 6 ) ;
#67 = PERSON_AND_ORGANIZATION_ROLE ( 'classification_officer' ) ;
#68 = AXIS2_PLACEMENT_3D ( 'NONE', #16, #632, #19 ) ;
#69 = LOCAL_TIME ( 18, 49, 48.00000000000000000, #294 ) ;
#70 = IDENTIFICATION_ROLE ( 'external document id and location', $) ;
#71 = APPROVAL_PERSON_ORGANIZATION ( #301, #161, #580 ) ;
#72 = APPROVAL_PERSON_ORGANIZATION ( #724, #483, #534 ) ;
#73 = DATE_AND_TIME ( #804, #205 ) ;
#74 = APPROVAL_DATE_TIME ( #487, #561 ) ;
#75 = CC_DESIGN_PERSON_AND_ORGANIZATION_ASSIGNMENT ( #603, #463, ( #694 ) ) ;
#76 = CARTESIAN_POINT ( 'NONE',  ( 0.000000000000000000, 0.000000000000000000, 0.000000000000000000 ) ) ;
#77 = DATE_AND_TIME ( #817, #430 ) ;
#78 = DESIGN_CONTEXT ( 'detailed design', #357, 'design' ) ;
#79 = PRODUCT_DEFINITION_FORMATION_WITH_SPECIFIED_SOURCE ( 'Symmetric', '', #228, .NOT_KNOWN. ) ;
#80 = DATE_TIME_ROLE ( 'classification_date' ) ;
#81 = LOCAL_TIME ( 18, 49, 48.00000000000000000, #181 ) ;
#82 = LOCAL_TIME ( 18, 49, 48.00000000000000000, #498 ) ;
#83 = OBJECT_ROLE ('mandatory',$ ) ;
#84 = APPROVAL ( #562, 'Coincident' ) ;
#85 = PERSON_AND_ORGANIZATION_ROLE ( 'creator' ) ;
#86 = APPLICATION_CONTEXT ( 'configuration controlled 3d designs of mechanical parts and assemblies' ) ;
#87 = PRODUCT_DEFINITION ( 'General', '', #616, #625 ) ;
#88 = PERSON_AND_ORGANIZATION ( #18446744073709551615, #18446744073709551615 ) ;
#89 = PERSON_AND_ORGANIZATION ( #344, #397 ) ;
#90 = COORDINATED_UNIVERSAL_TIME_OFFSET ( 10, 0, .AHEAD. ) ;
#91 = LOCAL_TIME ( 18, 49, 48.00000000000000000, #190 ) ;
#92 = SECURITY_CLASSIFICATION ( '', '', #398 ) ;
#93 = CC_DESIGN_APPROVAL ( #555, ( #12 ) ) ;
#94 = PERSON_AND_ORGANIZATION_ROLE ( 'creator' ) ;
#95 = ROLE_ASSOCIATION ( #154, #701 ) ;
#96 = PERSON_AND_ORGANIZATION ( #18446744073709551615, #18446744073709551615 ) ;
#97 =( LENGTH_UNIT ( ) NAMED_UNIT ( * ) SI_UNIT ( $, .METRE. ) );
#98 = PRODUCT_DEFINITION_SHAPE ( 'NONE', 'NONE',  #758 ) ;
#99 = PRODUCT_DEFINITION ( 'General', '', #79, #276 ) ;
#100 = DATE_TIME_ROLE ( 'creation_date' ) ;
#101 = SECURITY_CLASSIFICATION_LEVEL ( 'unclassified' ) ;
#102 = APPROVAL_STATUS ( 'not_yet_approved' ) ;
#103 = CC_DESIGN_PERSON_AND_ORGANIZATION_ASSIGNMENT ( #826, #759, ( #714 ) ) ;
#104 = DATE_AND_TIME ( #709, #195 ) ;
#105 = PRODUCT ( 'Pixhawk-Basemini-3D-simple.stp', 'Pixhawk-Basemini-3D-simple.stp', '', ( #831 ) ) ;
#106 = COORDINATED_UNIVERSAL_TIME_OFFSET ( 10, 0, .AHEAD. ) ;
#107 = APPROVAL_DATE_TIME ( #47, #161 ) ;
#108 = DIRECTION ( 'NONE',  ( 0.000000000000000000, 0.000000000000000000, 1.000000000000000000 ) ) ;
#109 = CC_DESIGN_APPROVAL ( #550, ( #694 ) ) ;
#110 = DATE_AND_TIME ( #656, #494 ) ;
#111 = CC_DESIGN_PERSON_AND_ORGANIZATION_ASSIGNMENT ( #683, #355, ( #193 ) ) ;
#112 = EXTERNAL_SOURCE (IDENTIFIER('') ) ;
#113 = ROLE_ASSOCIATION ( #558, #515 ) ;
#114 = APPROVAL_DATE_TIME ( #716, #458 ) ;
#115 = APPROVAL_ROLE ( '' ) ;
#116 = ITEM_DEFINED_TRANSFORMATION ( 'NONE', 'NONE', #563,  #68 ) ;
#117 = CALENDAR_DATE ( 2026, 22, 6 ) ;
#118 = CARTESIAN_POINT ( 'NONE',  ( 0.000000000000000000, 0.000000000000000000, 0.000000000000000000 ) ) ;
#119 = CALENDAR_DATE ( 2026, 22, 6 ) ;
#120 = APPROVAL_STATUS ( 'not_yet_approved' ) ;
#121 = APPLICATION_PROTOCOL_DEFINITION ( 'international standard', 'config_control_design', 1994, #717 ) ;
#122 = CC_DESIGN_APPROVAL ( #779, ( #32 ) ) ;
#123 = ORGANIZATION ( 'NAUO-ORG16', 'UNSPECIFIED', 'UNSPECIFIED' ) ;
#124 = APPLIED_DOCUMENT_REFERENCE ( #540,'',( #758) ) ;
#125 = APPLICATION_PROTOCOL_DEFINITION ( 'international standard', 'config_control_design', 1994, #133 ) ;
#126 = PERSON_AND_ORGANIZATION_ROLE ( 'design_owner' ) ;
#127 = PRODUCT_RELATED_PRODUCT_CATEGORY ( 'detail', '', ( #105 ) ) ;
#128 = PROPERTY_DEFINITION ('external definition','', #636 ) ;
#129 = SHAPE_REPRESENTATION ( 'MOLEX-SD-502443-6PIN-DINGCHU.stp', ( #820 ), #192 ) ;
#130 = CALENDAR_DATE ( 2026, 22, 6 ) ;
#131 = PERSON_AND_ORGANIZATION ( #18446744073709551615, #18446744073709551615 ) ;
#132 = APPROVAL_ROLE ( '' ) ;
#133 = APPLICATION_CONTEXT ( 'configuration controlled 3d designs of mechanical parts and assemblies' ) ;
#134 = PROPERTY_DEFINITION_REPRESENTATION ( #466, #538 ) ;
#135 = PERSON_AND_ORGANIZATION ( #18446744073709551615, #18446744073709551615 ) ;
#136 =( GEOMETRIC_REPRESENTATION_CONTEXT ( 3 ) GLOBAL_UNCERTAINTY_ASSIGNED_CONTEXT ( ( #4 ) ) GLOBAL_UNIT_ASSIGNED_CONTEXT ( ( #97, #45, #435 ) ) REPRESENTATION_CONTEXT ( 'NONE', 'WORKASPACE' ) );
#137 = LOCAL_TIME ( 18, 49, 48.00000000000000000, #209 ) ;
#138 = CC_DESIGN_APPROVAL ( #143, ( #325 ) ) ;
#139 = CC_DESIGN_PERSON_AND_ORGANIZATION_ASSIGNMENT ( #706, #371, ( #99 ) ) ;
#140 = PERSON_AND_ORGANIZATION ( #18446744073709551615, #18446744073709551615 ) ;
#141 = APPROVAL_STATUS ( 'not_yet_approved' ) ;
#142 = PERSON_AND_ORGANIZATION_ROLE ( 'design_supplier' ) ;
#143 = APPROVAL ( #311, 'Coincident' ) ;
#144 = ITEM_DEFINED_TRANSFORMATION ( 'NONE', 'NONE', #204,  #820 ) ;
#145 = IDENTIFICATION_ROLE ( 'external document id and location', $) ;
#146 = SECURITY_CLASSIFICATION_LEVEL ( 'unclassified' ) ;
#147 = CC_DESIGN_PERSON_AND_ORGANIZATION_ASSIGNMENT ( #88, #286, ( #32 ) ) ;
#148 = LOCAL_TIME ( 18, 49, 48.00000000000000000, #385 ) ;
#149 = APPROVAL_DATE_TIME ( #6, #586 ) ;
#150 = CC_DESIGN_SECURITY_CLASSIFICATION ( #544, ( #862 ) ) ;
#151 = APPLIED_EXTERNAL_IDENTIFICATION_ASSIGNMENT ( 'GAI-V5XBASE-MINI-MUJU.stp.STEP' , #70, #266,( #636) ) ;
#152 =( LENGTH_UNIT ( ) NAMED_UNIT ( * ) SI_UNIT ( $, .METRE. ) );
#153 = COORDINATED_UNIVERSAL_TIME_OFFSET ( 10, 0, .AHEAD. ) ;
#154 = OBJECT_ROLE ('mandatory',$ ) ;
#155 = PROPERTY_DEFINITION_REPRESENTATION ( #60, #129 ) ;
#156 = CALENDAR_DATE ( 2026, 22, 6 ) ;
#157 = APPROVAL_ROLE ( '' ) ;
#158 = CALENDAR_DATE ( 2026, 22, 6 ) ;
#159 = SECURITY_CLASSIFICATION_LEVEL ( 'unclassified' ) ;
#160 = CC_DESIGN_SECURITY_CLASSIFICATION ( #379, ( #471 ) ) ;
#161 = APPROVAL ( #693, 'Coincident' ) ;
#162 = LOCAL_TIME ( 18, 49, 48.00000000000000000, #322 ) ;
#163 = APPLICATION_CONTEXT ( 'configuration controlled 3d designs of mechanical parts and assemblies' ) ;
#164 = APPROVAL_ROLE ( '' ) ;
#165 = PROPERTY_DEFINITION_REPRESENTATION ( #331, #246 ) ;
#166 = PERSON_AND_ORGANIZATION ( #18446744073709551615, #18446744073709551615 ) ;
#167 = PERSON_AND_ORGANIZATION ( #18446744073709551615, #18446744073709551615 ) ;
#168 = DATE_AND_TIME ( #158, #770 ) ;
#169 = COORDINATED_UNIVERSAL_TIME_OFFSET ( 10, 0, .AHEAD. ) ;
#170 = DOCUMENT_TYPE ( 'geometry' ) ;
#171 = CC_DESIGN_PERSON_AND_ORGANIZATION_ASSIGNMENT ( #185, #597, ( #651 ) ) ;
#172 = APPROVAL_ROLE ( '' ) ;
#173 = APPROVAL_DATE_TIME ( #579, #14 ) ;
#174 = PERSON_AND_ORGANIZATION ( #18446744073709551615, #18446744073709551615 ) ;
#175 = APPROVAL_PERSON_ORGANIZATION ( #63, #359, #186 ) ;
#176 = PRODUCT_DEFINITION_FORMATION_WITH_SPECIFIED_SOURCE ( 'Symmetric', '', #774, .NOT_KNOWN. ) ;
#177 = PROPERTY_DEFINITION ('external definition','', #641 ) ;
#178 = COORDINATED_UNIVERSAL_TIME_OFFSET ( 10, 0, .AHEAD. ) ;
#179 = PRODUCT_RELATED_PRODUCT_CATEGORY ( 'detail', '', ( #514 ) ) ;
#180 = APPROVAL_ROLE ( '' ) ;
#181 = COORDINATED_UNIVERSAL_TIME_OFFSET ( 10, 0, .AHEAD. ) ;
#182 = DATE_AND_TIME ( #741, #395 ) ;
#183 = DESIGN_CONTEXT ( 'detailed design', #717, 'design' ) ;
#184 = CALENDAR_DATE ( 2026, 22, 6 ) ;
#185 = PERSON_AND_ORGANIZATION ( #18446744073709551615, #18446744073709551615 ) ;
#186 = APPROVAL_ROLE ( '' ) ;
#187 = PROPERTY_DEFINITION ('document property','', #367 ) ;
#188 = APPLIED_DOCUMENT_REFERENCE ( #367,'',( #99) ) ;
#189 = PERSON_AND_ORGANIZATION ( #18446744073709551615, #18446744073709551615 ) ;
#190 = COORDINATED_UNIVERSAL_TIME_OFFSET ( 10, 0, .AHEAD. ) ;
#191 = CC_DESIGN_PERSON_AND_ORGANIZATION_ASSIGNMENT ( #5, #3, ( #739 ) ) ;
#192 =( GEOMETRIC_REPRESENTATION_CONTEXT ( 3 ) GLOBAL_UNCERTAINTY_ASSIGNED_CONTEXT ( ( #416 ) ) GLOBAL_UNIT_ASSIGNED_CONTEXT ( ( #152, #356, #419 ) ) REPRESENTATION_CONTEXT ( 'NONE', 'WORKASPACE' ) );
#193 = PRODUCT_DEFINITION_FORMATION_WITH_SPECIFIED_SOURCE ( 'Symmetric', '', #240, .NOT_KNOWN. ) ;
#194 = DESIGN_CONTEXT ( 'detailed design', #133, 'design' ) ;
#195 = LOCAL_TIME ( 18, 49, 48.00000000000000000, #775 ) ;
#196 = APPLIED_EXTERNAL_IDENTIFICATION_ASSIGNMENT ( 'DF40HC_3_0_-50DS-343580.stp.STEP' , #492, #803,( #540) ) ;
#197 = PROPERTY_DEFINITION_REPRESENTATION ( #854, #376 ) ;
#198 = COORDINATED_UNIVERSAL_TIME_OFFSET ( 10, 0, .AHEAD. ) ;
#199 = CALENDAR_DATE ( 2026, 22, 6 ) ;
#200 = CC_DESIGN_PERSON_AND_ORGANIZATION_ASSIGNMENT ( #780, #448, ( #351 ) ) ;
#201 = SHAPE_DEFINITION_REPRESENTATION ( #574, #8 ) ;
#202 = APPROVAL ( #470, 'Coincident' ) ;
#203 = APPROVAL_STATUS ( 'not_yet_approved' ) ;
#204 = AXIS2_PLACEMENT_3D ( 'NONE', #315, #245, #251 ) ;
#205 = LOCAL_TIME ( 18, 49, 48.00000000000000000, #52 ) ;
#206 = CC_DESIGN_SECURITY_CLASSIFICATION ( #92, ( #176 ) ) ;
#207 = CC_DESIGN_DATE_AND_TIME_ASSIGNMENT ( #104, #648, ( #325 ) ) ;
#208 = ORGANIZATION ( 'NAUO-ORG18', 'UNSPECIFIED', 'UNSPECIFIED' ) ;
#209 = COORDINATED_UNIVERSAL_TIME_OFFSET ( 10, 0, .AHEAD. ) ;
#210 = DATE_AND_TIME ( #211, #216 ) ;
#211 = CALENDAR_DATE ( 2026, 22, 6 ) ;
#212 = SHAPE_REPRESENTATION ( 'DF40HC_3_0_-100DS-0_4V.stp', ( #20 ), #348 ) ;
#213 = CC_DESIGN_PERSON_AND_ORGANIZATION_ASSIGNMENT ( #353, #495, ( #758 ) ) ;
#214 = OBJECT_ROLE ('mandatory',$ ) ;
#215 = SECURITY_CLASSIFICATION_LEVEL ( 'unclassified' ) ;
#216 = LOCAL_TIME ( 18, 49, 48.00000000000000000, #815 ) ;
#217 = PERSON_AND_ORGANIZATION ( #18446744073709551615, #18446744073709551615 ) ;
#218 = APPROVAL_PERSON_ORGANIZATION ( #834, #818, #157 ) ;
#219 =( NAMED_UNIT ( * ) PLANE_ANGLE_UNIT ( ) SI_UNIT ( $, .RADIAN. ) );
#220 = APPLIED_DOCUMENT_REFERENCE ( #34,'',( #87) ) ;
#221 = APPROVAL_DATE_TIME ( #827, #441 ) ;
#222 = SECURITY_CLASSIFICATION_LEVEL ( 'unclassified' ) ;
#223 = CC_DESIGN_PERSON_AND_ORGANIZATION_ASSIGNMENT ( #166, #378, ( #774 ) ) ;
#224 = DOCUMENT_TYPE ( 'geometry' ) ;
#225 = DATE_TIME_ROLE ( 'classification_date' ) ;
#226 = MECHANICAL_CONTEXT ( 'NONE', #314, 'mechanical' ) ;
#227 = CARTESIAN_POINT ( 'NONE',  ( -0.01220000000000000251, 0.001500000000000001332, 0.0001149999999999997866 ) ) ;
#228 = PRODUCT ( 'PCB-BASEMINI-V5X-F3.stp', 'PCB-BASEMINI-V5X-F3.stp', '', ( #226 ) ) ;
#229 = COORDINATED_UNIVERSAL_TIME_OFFSET ( 10, 0, .AHEAD. ) ;
#230 = PERSON_AND_ORGANIZATION_ROLE ( 'classification_officer' ) ;
#231 = PERSON_AND_ORGANIZATION ( #18446744073709551615, #18446744073709551615 ) ;
#232 = LOCAL_TIME ( 18, 49, 48.00000000000000000, #414 ) ;
#233 = LOCAL_TIME ( 18, 49, 48.00000000000000000, #229 ) ;
#234 = PERSON_AND_ORGANIZATION ( #18446744073709551615, #18446744073709551615 ) ;
#235 = PERSON_AND_ORGANIZATION_ROLE ( 'design_supplier' ) ;
#236 = DATE_AND_TIME ( #296, #686 ) ;
#237 = APPROVAL_STATUS ( 'not_yet_approved' ) ;
#238 = DIRECTION ( 'NONE',  ( -1.000000000000000000, 7.888609052210118054E-30, -8.673617378792187268E-19 ) ) ;
#239 = CC_DESIGN_PERSON_AND_ORGANIZATION_ASSIGNMENT ( #852, #797, ( #176 ) ) ;
#240 = PRODUCT ( 'KE-V5XBASE-MINI-MUJU.stp', 'KE-V5XBASE-MINI-MUJU.stp', '', ( #793 ) ) ;
#241 = CALENDAR_DATE ( 2026, 22, 6 ) ;
#242 = CALENDAR_DATE ( 2026, 22, 6 ) ;
#243 = DATE_AND_TIME ( #293, #82 ) ;
#244 = APPROVAL_ROLE ( '' ) ;
#245 = DIRECTION ( 'NONE',  ( -1.000000000000000000, 7.888609052210118054E-30, -8.673617378792187268E-19 ) ) ;
#246 = SHAPE_REPRESENTATION ( 'GAI-V5XBASE-MINI-MUJU.stp', ( #265 ), #766 ) ;
#247 = APPLICATION_PROTOCOL_DEFINITION ( 'international standard', 'config_control_design', 1994, #407 ) ;
#248 = PROPERTY_DEFINITION_REPRESENTATION ( #187, #538 ) ;
#249 = COORDINATED_UNIVERSAL_TIME_OFFSET ( 10, 0, .AHEAD. ) ;
#250 =( GEOMETRIC_REPRESENTATION_CONTEXT ( 3 ) GLOBAL_UNCERTAINTY_ASSIGNED_CONTEXT ( ( #320 ) ) GLOBAL_UNIT_ASSIGNED_CONTEXT ( ( #840, #773, #381 ) ) REPRESENTATION_CONTEXT ( 'NONE', 'WORKASPACE' ) );
#251 = DIRECTION ( 'NONE',  ( 8.673617378792187268E-19, -5.551115128246594382E-17, 0.9999999999999997780 ) ) ;
#252 = CC_DESIGN_APPROVAL ( #561, ( #471 ) ) ;
#253 = LOCAL_TIME ( 18, 49, 48.00000000000000000, #30 ) ;
#254 = LOCAL_TIME ( 18, 49, 48.00000000000000000, #611 ) ;
#255 = APPLICATION_PROTOCOL_DEFINITION ( 'international standard', 'config_control_design', 1994, #757 ) ;
#256 = APPROVAL_ROLE ( '' ) ;
#257 = APPROVAL ( #631, 'Coincident' ) ;
#258 = CALENDAR_DATE ( 2026, 22, 6 ) ;
#259 = PERSON_AND_ORGANIZATION ( #18446744073709551615, #18446744073709551615 ) ;
#260 = PRODUCT_DEFINITION_SHAPE ( 'NONE', 'NONE',  #865 ) ;
#261 = APPROVAL_ROLE ( '' ) ;
#262 = APPROVAL_DATE_TIME ( #333, #550 ) ;
#263 = CC_DESIGN_DATE_AND_TIME_ASSIGNMENT ( #110, #100, ( #87 ) ) ;
#264 = DIRECTION ( 'NONE',  ( 0.000000000000000000, 0.000000000000000000, 1.000000000000000000 ) ) ;
#265 = AXIS2_PLACEMENT_3D ( 'NONE', #13, #284, #500 ) ;
#266 = EXTERNAL_SOURCE (IDENTIFIER('') ) ;
#267 = APPROVAL_PERSON_ORGANIZATION ( #480, #84, #10 ) ;
#268 = LOCAL_TIME ( 18, 49, 48.00000000000000000, #198 ) ;
#269 = CC_DESIGN_SECURITY_CLASSIFICATION ( #732, ( #864 ) ) ;
#270 = PROPERTY_DEFINITION_REPRESENTATION ( #400, #309 ) ;
#271 = IDENTIFICATION_ROLE ( 'external document id and location', $) ;
#272 = CALENDAR_DATE ( 2026, 22, 6 ) ;
#273 = CC_DESIGN_DATE_AND_TIME_ASSIGNMENT ( #551, #627, ( #758 ) ) ;
#274 = DATE_AND_TIME ( #330, #91 ) ;
#275 = CC_DESIGN_PERSON_AND_ORGANIZATION_ASSIGNMENT ( #657, #50, ( #732 ) ) ;
#276 = DESIGN_CONTEXT ( 'detailed design', #86, 'design' ) ;
#277 =( REPRESENTATION_RELATIONSHIP ('NONE','NONE', #8, #309 ) REPRESENTATION_RELATIONSHIP_WITH_TRANSFORMATION ( #116 )SHAPE_REPRESENTATION_RELATIONSHIP( ) );
#278 = CALENDAR_DATE ( 2026, 22, 6 ) ;
#279 = DIRECTION ( 'NONE',  ( 1.000000000000000000, 0.000000000000000000, 0.000000000000000000 ) ) ;
#280 = AXIS2_PLACEMENT_3D ( 'NONE', #518, #523, #428 ) ;
#281 = CC_DESIGN_APPROVAL ( #14, ( #714 ) ) ;
#282 = SECURITY_CLASSIFICATION_LEVEL ( 'unclassified' ) ;
#283 = EXTERNAL_SOURCE (IDENTIFIER('') ) ;
#284 = DIRECTION ( 'NONE',  ( 0.000000000000000000, 0.000000000000000000, 1.000000000000000000 ) ) ;
#285 = CC_DESIGN_DATE_AND_TIME_ASSIGNMENT ( #608, #318, ( #92 ) ) ;
#286 = PERSON_AND_ORGANIZATION_ROLE ( 'creator' ) ;
#287 =( NAMED_UNIT ( * ) SI_UNIT ( $, .STERADIAN. ) SOLID_ANGLE_UNIT ( ) );
#288 = MECHANICAL_CONTEXT ( 'NONE', #819, 'mechanical' ) ;
#289 = CC_DESIGN_PERSON_AND_ORGANIZATION_ASSIGNMENT ( #456, #844, ( #577 ) ) ;
#290 = DIRECTION ( 'NONE',  ( 0.000000000000000000, 0.000000000000000000, 1.000000000000000000 ) ) ;
#291 = PERSON_AND_ORGANIZATION_ROLE ( 'creator' ) ;
#292 = CC_DESIGN_APPROVAL ( #41, ( #577 ) ) ;
#293 = CALENDAR_DATE ( 2026, 22, 6 ) ;
#294 = COORDINATED_UNIVERSAL_TIME_OFFSET ( 10, 0, .AHEAD. ) ;
#295 = CC_DESIGN_PERSON_AND_ORGANIZATION_ASSIGNMENT ( #234, #790, ( #105 ) ) ;
#296 = CALENDAR_DATE ( 2026, 22, 6 ) ;
#297 = APPROVAL_DATE_TIME ( #44, #848 ) ;
#298 = CC_DESIGN_DATE_AND_TIME_ASSIGNMENT ( #720, #736, ( #599 ) ) ;
#299 = PERSON_AND_ORGANIZATION_ROLE ( 'classification_officer' ) ;
#300 = CONTEXT_DEPENDENT_SHAPE_REPRESENTATION ( #587, #476 ) ;
#301 = PERSON_AND_ORGANIZATION ( #18446744073709551615, #18446744073709551615 ) ;
#302 = PRODUCT ( 'DF40HC_3_0_-50DS-343580.stp', 'DF40HC_3_0_-50DS-343580.stp', '', ( #288 ) ) ;
#303 = CALENDAR_DATE ( 2026, 22, 6 ) ;
#304 = DATE_TIME_ROLE ( 'classification_date' ) ;
#305 = DATE_TIME_ROLE ( 'classification_date' ) ;
#306 = PRODUCT_DEFINITION_FORMATION_WITH_SPECIFIED_SOURCE ( 'Symmetric', '', #105, .NOT_KNOWN. ) ;
#307 = APPLIED_EXTERNAL_IDENTIFICATION_ASSIGNMENT ( 'DF40HC_3_0_-100DS-0_4V.stp.STEP' , #145, #660,( #641) ) ;
#308 = CC_DESIGN_APPROVAL ( #681, ( #544 ) ) ;
#309 = SHAPE_REPRESENTATION ( 'DF40HC_3_0_-50DS-343580.stp', ( #68 ), #136 ) ;
#310 = DOCUMENT_TYPE ( 'geometry' ) ;
#311 = APPROVAL_STATUS ( 'not_yet_approved' ) ;
#312 = COORDINATED_UNIVERSAL_TIME_OFFSET ( 10, 0, .AHEAD. ) ;
#313 = CALENDAR_DATE ( 2026, 22, 6 ) ;
#314 = APPLICATION_CONTEXT ( 'configuration controlled 3d designs of mechanical parts and assemblies' ) ;
#315 = CARTESIAN_POINT ( 'NONE',  ( 0.03114000000000000795, 3.469446951953614189E-18, -1.084202172485504434E-19 ) ) ;
#316 = MECHANICAL_CONTEXT ( 'NONE', #42, 'mechanical' ) ;
#317 = CALENDAR_DATE ( 2026, 22, 6 ) ;
#318 = DATE_TIME_ROLE ( 'classification_date' ) ;
#319 = PERSON_AND_ORGANIZATION ( #18446744073709551615, #18446744073709551615 ) ;
#320 = UNCERTAINTY_MEASURE_WITH_UNIT (LENGTH_MEASURE( 1.000000000000000082E-05 ), #840, 'distance_accuracy_value', 'NONE');
#321 = SECURITY_CLASSIFICATION_LEVEL ( 'unclassified' ) ;
#322 = COORDINATED_UNIVERSAL_TIME_OFFSET ( 10, 0, .AHEAD. ) ;
#323 = COORDINATED_UNIVERSAL_TIME_OFFSET ( 10, 0, .AHEAD. ) ;
#324 = SECURITY_CLASSIFICATION ( '', '', #282 ) ;
#325 = SECURITY_CLASSIFICATION ( '', '', #222 ) ;
#326 = LOCAL_TIME ( 18, 49, 48.00000000000000000, #467 ) ;
#327 = CC_DESIGN_DATE_AND_TIME_ASSIGNMENT ( #781, #642, ( #379 ) ) ;
#328 = APPROVAL_STATUS ( 'not_yet_approved' ) ;
#329 = COORDINATED_UNIVERSAL_TIME_OFFSET ( 10, 0, .AHEAD. ) ;
#330 = CALENDAR_DATE ( 2026, 22, 6 ) ;
#331 = PROPERTY_DEFINITION ('document property','', #636 ) ;
#332 = DATE_AND_TIME ( #258, #254 ) ;
#333 = DATE_AND_TIME ( #117, #679 ) ;
#334 = PERSON_AND_ORGANIZATION ( #18446744073709551615, #18446744073709551615 ) ;
#335 = DATE_AND_TIME ( #130, #326 ) ;
#336 = PERSON_AND_ORGANIZATION ( #18446744073709551615, #18446744073709551615 ) ;
#337 = APPROVAL ( #468, 'Coincident' ) ;
#338 =( GEOMETRIC_REPRESENTATION_CONTEXT ( 3 ) GLOBAL_UNCERTAINTY_ASSIGNED_CONTEXT ( ( #383 ) ) GLOBAL_UNIT_ASSIGNED_CONTEXT ( ( #497, #27, #707 ) ) REPRESENTATION_CONTEXT ( 'NONE', 'WORKASPACE' ) );
#339 = LOCAL_TIME ( 18, 49, 48.00000000000000000, #691 ) ;
#340 = CC_DESIGN_SECURITY_CLASSIFICATION ( #714, ( #860 ) ) ;
#341 = COORDINATED_UNIVERSAL_TIME_OFFSET ( 10, 0, .AHEAD. ) ;
#342 = APPROVAL ( #841, 'Coincident' ) ;
#343 = PERSON_AND_ORGANIZATION ( #18446744073709551615, #18446744073709551615 ) ;
#344 = PERSON ( 'NAUO-PER17', 'UNSPECIFIED', 'UNSPECIFIED', ('UNSPECIFIED'), ('UNSPECIFIED'), ('UNSPECIFIED') ) ;
#345 = SHAPE_DEFINITION_REPRESENTATION ( #560, #129 ) ;
#346 = APPROVAL_ROLE ( '' ) ;
#347 =( LENGTH_UNIT ( ) NAMED_UNIT ( * ) SI_UNIT ( $, .METRE. ) );
#348 =( GEOMETRIC_REPRESENTATION_CONTEXT ( 3 ) GLOBAL_UNCERTAINTY_ASSIGNED_CONTEXT ( ( #589 ) ) GLOBAL_UNIT_ASSIGNED_CONTEXT ( ( #347, #360, #490 ) ) REPRESENTATION_CONTEXT ( 'NONE', 'WORKASPACE' ) );
#349 = LOCAL_TIME ( 18, 49, 48.00000000000000000, #427 ) ;
#350 = CC_DESIGN_PERSON_AND_ORGANIZATION_ASSIGNMENT ( #336, #789, ( #514 ) ) ;
#351 = PRODUCT_DEFINITION_FORMATION_WITH_SPECIFIED_SOURCE ( 'Symmetric', '', #514, .NOT_KNOWN. ) ;
#352 = ORGANIZATION ( 'NAUO-ORG20', 'UNSPECIFIED', 'UNSPECIFIED' ) ;
#353 = PERSON_AND_ORGANIZATION ( #18446744073709551615, #18446744073709551615 ) ;
#354 = CC_DESIGN_DATE_AND_TIME_ASSIGNMENT ( #612, #592, ( #651 ) ) ;
#355 = PERSON_AND_ORGANIZATION_ROLE ( 'design_supplier' ) ;
#356 =( NAMED_UNIT ( * ) PLANE_ANGLE_UNIT ( ) SI_UNIT ( $, .RADIAN. ) );
#357 = APPLICATION_CONTEXT ( 'configuration controlled 3d designs of mechanical parts and assemblies' ) ;
#358 = APPROVAL_STATUS ( 'not_yet_approved' ) ;
#359 = APPROVAL ( #537, 'Coincident' ) ;
#360 =( NAMED_UNIT ( * ) PLANE_ANGLE_UNIT ( ) SI_UNIT ( $, .RADIAN. ) );
#361 = LOCAL_TIME ( 18, 49, 48.00000000000000000, #90 ) ;
#362 = APPROVAL_PERSON_ORGANIZATION ( #46, #41, #164 ) ;
#363 = CONTEXT_DEPENDENT_SHAPE_REPRESENTATION ( #405, #601 ) ;
#364 = PERSON_AND_ORGANIZATION_ROLE ( 'design_supplier' ) ;
#365 = CC_DESIGN_PERSON_AND_ORGANIZATION_ASSIGNMENT ( #719, #712, ( #351 ) ) ;
#366 = SECURITY_CLASSIFICATION_LEVEL ( 'unclassified' ) ;
#367 = DOCUMENT_FILE ( 'PCB-BASEMINI-V5X-F3.stp.STEP' , '', '', #37, '' ,$ ) ;
#368 = APPROVAL_ROLE ( '' ) ;
#369 = DATE_AND_TIME ( #519, #553 ) ;
#370 = ROLE_ASSOCIATION ( #214, #220 ) ;
#371 = PERSON_AND_ORGANIZATION_ROLE ( 'creator' ) ;
#372 = CARTESIAN_POINT ( 'NONE',  ( 0.000000000000000000, 0.000000000000000000, 0.000000000000000000 ) ) ;
#373 = PRODUCT_DEFINITION_SHAPE ( 'NONE', 'NONE',  #651 ) ;
#374 = APPROVAL_DATE_TIME ( #369, #690 ) ;
#375 = CC_DESIGN_DATE_AND_TIME_ASSIGNMENT ( #77, #80, ( #324 ) ) ;
#376 = SHAPE_REPRESENTATION ( 'KE-V5XBASE-MINI-MUJU.stp', ( #393 ), #250 ) ;
#377 = PERSON_AND_ORGANIZATION_ROLE ( 'classification_officer' ) ;
#378 = PERSON_AND_ORGANIZATION_ROLE ( 'design_owner' ) ;
#379 = SECURITY_CLASSIFICATION ( '', '', #146 ) ;
#380 = CC_DESIGN_SECURITY_CLASSIFICATION ( #577, ( #351 ) ) ;
#381 =( NAMED_UNIT ( * ) SI_UNIT ( $, .STERADIAN. ) SOLID_ANGLE_UNIT ( ) );
#382 = PERSON_AND_ORGANIZATION ( #18446744073709551615, #18446744073709551615 ) ;
#383 = UNCERTAINTY_MEASURE_WITH_UNIT (LENGTH_MEASURE( 1.000000000000000082E-05 ), #497, 'distance_accuracy_value', 'NONE');
#384 = PROPERTY_DEFINITION_REPRESENTATION ( #177, #212 ) ;
#385 = COORDINATED_UNIVERSAL_TIME_OFFSET ( 10, 0, .AHEAD. ) ;
#386 = DOCUMENT_TYPE ( 'geometry' ) ;
#387 = COORDINATED_UNIVERSAL_TIME_OFFSET ( 10, 0, .AHEAD. ) ;
#388 = COORDINATED_UNIVERSAL_TIME_OFFSET ( 10, 0, .AHEAD. ) ;
#389 = DATE_TIME_ROLE ( 'creation_date' ) ;
#390 = CC_DESIGN_DATE_AND_TIME_ASSIGNMENT ( #274, #389, ( #739 ) ) ;
#391 = PERSON_AND_ORGANIZATION ( #504, #352 ) ;
#392 = PERSON_AND_ORGANIZATION_ROLE ( 'creator' ) ;
#393 = AXIS2_PLACEMENT_3D ( 'NONE', #704, #108, #718 ) ;
#394 = CALENDAR_DATE ( 2026, 22, 6 ) ;
#395 = LOCAL_TIME ( 18, 49, 48.00000000000000000, #478 ) ;
#396 = CC_DESIGN_APPROVAL ( #53, ( #564 ) ) ;
#397 = ORGANIZATION ( 'NAUO-ORG17', 'UNSPECIFIED', 'UNSPECIFIED' ) ;
#398 = SECURITY_CLASSIFICATION_LEVEL ( 'unclassified' ) ;
#399 = PERSON_AND_ORGANIZATION ( #18446744073709551615, #18446744073709551615 ) ;
#400 = PROPERTY_DEFINITION ('external definition','', #540 ) ;
#401 = UNCERTAINTY_MEASURE_WITH_UNIT (LENGTH_MEASURE( 1.000000000000000082E-05 ), #557, 'distance_accuracy_value', 'NONE');
#402 = CC_DESIGN_PERSON_AND_ORGANIZATION_ASSIGNMENT ( #96, #825, ( #79 ) ) ;
#403 = PERSON_AND_ORGANIZATION_ROLE ( 'classification_officer' ) ;
#404 = DATE_AND_TIME ( #730, #81 ) ;
#405 =( REPRESENTATION_RELATIONSHIP ('NONE','NONE', #8, #246 ) REPRESENTATION_RELATIONSHIP_WITH_TRANSFORMATION ( #776 )SHAPE_REPRESENTATION_RELATIONSHIP( ) );
#406 = PERSON_AND_ORGANIZATION_ROLE ( 'design_supplier' ) ;
#407 = APPLICATION_CONTEXT ( 'configuration controlled 3d designs of mechanical parts and assemblies' ) ;
#408 = DATE_AND_TIME ( #119, #812 ) ;
#409 = DATE_AND_TIME ( #199, #832 ) ;
#410 = LOCAL_TIME ( 18, 49, 48.00000000000000000, #341 ) ;
#411 = APPROVAL_PERSON_ORGANIZATION ( #40, #143, #531 ) ;
#412 = ORGANIZATION ( 'NAUO-ORG19', 'UNSPECIFIED', 'UNSPECIFIED' ) ;
#413 = COORDINATED_UNIVERSAL_TIME_OFFSET ( 10, 0, .AHEAD. ) ;
#414 = COORDINATED_UNIVERSAL_TIME_OFFSET ( 10, 0, .AHEAD. ) ;
#415 = CC_DESIGN_PERSON_AND_ORGANIZATION_ASSIGNMENT ( #619, #142, ( #471 ) ) ;
#416 = UNCERTAINTY_MEASURE_WITH_UNIT (LENGTH_MEASURE( 1.000000000000000082E-05 ), #152, 'distance_accuracy_value', 'NONE');
#417 = DOCUMENT_TYPE ( 'geometry' ) ;
#418 = PERSON_AND_ORGANIZATION ( #18446744073709551615, #18446744073709551615 ) ;
#419 =( NAMED_UNIT ( * ) SI_UNIT ( $, .STERADIAN. ) SOLID_ANGLE_UNIT ( ) );
#420 = CC_DESIGN_SECURITY_CLASSIFICATION ( #324, ( #193 ) ) ;
#421 = APPROVAL_PERSON_ORGANIZATION ( #584, #53, #764 ) ;
#422 = PERSON_AND_ORGANIZATION_ROLE ( 'classification_officer' ) ;
#423 = CC_DESIGN_PERSON_AND_ORGANIZATION_ASSIGNMENT ( #140, #684, ( #302 ) ) ;
#424 = APPLICATION_PROTOCOL_DEFINITION ( 'international standard', 'config_control_design', 1994, #630 ) ;
#425 = CC_DESIGN_DATE_AND_TIME_ASSIGNMENT ( #243, #304, ( #544 ) ) ;
#426 = DATE_TIME_ROLE ( 'classification_date' ) ;
#427 = COORDINATED_UNIVERSAL_TIME_OFFSET ( 10, 0, .AHEAD. ) ;
#428 = DIRECTION ( 'NONE',  ( -1.000000000000000000, 7.888609052210118054E-30, -8.673617378792187268E-19 ) ) ;
#429 = PERSON_AND_ORGANIZATION ( #18446744073709551615, #18446744073709551615 ) ;
#430 = LOCAL_TIME ( 18, 49, 48.00000000000000000, #153 ) ;
#431 = ORGANIZATION ( 'NAUO-ORG15', 'UNSPECIFIED', 'UNSPECIFIED' ) ;
#432 = ITEM_DEFINED_TRANSFORMATION ( 'NONE', 'NONE', #808,  #20 ) ;
#433 = PERSON_AND_ORGANIZATION ( #18446744073709551615, #18446744073709551615 ) ;
#434 = APPLIED_EXTERNAL_IDENTIFICATION_ASSIGNMENT ( 'PCB-BASEMINI-V5X-F3.stp.STEP' , #479, #283,( #367) ) ;
#435 =( NAMED_UNIT ( * ) SI_UNIT ( $, .STERADIAN. ) SOLID_ANGLE_UNIT ( ) );
#436 = PERSON_AND_ORGANIZATION_ROLE ( 'design_owner' ) ;
#437 = PRODUCT_DEFINITION_SHAPE ( 'NONE', 'NONE',  #32 ) ;
#438 = APPROVAL_STATUS ( 'not_yet_approved' ) ;
#439 = PERSON_AND_ORGANIZATION ( #18446744073709551615, #18446744073709551615 ) ;
#440 = DIRECTION ( 'NONE',  ( 8.673617378792187268E-19, -5.551115128246594382E-17, 0.9999999999999997780 ) ) ;
#441 = APPROVAL ( #452, 'Coincident' ) ;
#442 = PERSON_AND_ORGANIZATION ( #18446744073709551615, #18446744073709551615 ) ;
#443 = ITEM_DEFINED_TRANSFORMATION ( 'NONE', 'NONE', #9,  #39 ) ;
#444 = MECHANICAL_CONTEXT ( 'NONE', #163, 'mechanical' ) ;
#445 =( LENGTH_UNIT ( ) NAMED_UNIT ( * ) SI_UNIT ( $, .METRE. ) );
#446 =( REPRESENTATION_RELATIONSHIP ('NONE','NONE', #8, #538 ) REPRESENTATION_RELATIONSHIP_WITH_TRANSFORMATION ( #443 )SHAPE_REPRESENTATION_RELATIONSHIP( ) );
#447 = CC_DESIGN_DATE_AND_TIME_ASSIGNMENT ( #65, #1, ( #12 ) ) ;
#448 = PERSON_AND_ORGANIZATION_ROLE ( 'creator' ) ;
#449 =( REPRESENTATION_RELATIONSHIP ('NONE','NONE', #8, #212 ) REPRESENTATION_RELATIONSHIP_WITH_TRANSFORMATION ( #432 )SHAPE_REPRESENTATION_RELATIONSHIP( ) );
#450 = CC_DESIGN_SECURITY_CLASSIFICATION ( #507, ( #306 ) ) ;
#451 = SECURITY_CLASSIFICATION_LEVEL ( 'unclassified' ) ;
#452 = APPROVAL_STATUS ( 'not_yet_approved' ) ;
#453 = CC_DESIGN_APPROVAL ( #458, ( #99 ) ) ;
#454 = CC_DESIGN_APPROVAL ( #690, ( #616 ) ) ;
#455 =( NAMED_UNIT ( * ) PLANE_ANGLE_UNIT ( ) SI_UNIT ( $, .RADIAN. ) );
#456 = PERSON_AND_ORGANIZATION ( #18446744073709551615, #18446744073709551615 ) ;
#457 = DESIGN_CONTEXT ( 'detailed design', #806, 'design' ) ;
#458 = APPROVAL ( #830, 'Coincident' ) ;
#459 = APPROVAL_STATUS ( 'not_yet_approved' ) ;
#460 = APPROVAL_DATE_TIME ( #51, #337 ) ;
#461 = APPROVAL_DATE_TIME ( #182, #779 ) ;
#462 = DATE_AND_TIME ( #527, #755 ) ;
#463 = PERSON_AND_ORGANIZATION_ROLE ( 'creator' ) ;
#464 = APPROVAL ( #459, 'UNKNOWN' ) ;
#465 = SECURITY_CLASSIFICATION_LEVEL ( 'unclassified' ) ;
#466 = PROPERTY_DEFINITION ('external definition','', #367 ) ;
#467 = COORDINATED_UNIVERSAL_TIME_OFFSET ( 10, 0, .AHEAD. ) ;
#468 = APPROVAL_STATUS ( 'not_yet_approved' ) ;
#469 = OBJECT_ROLE ('mandatory',$ ) ;
#470 = APPROVAL_STATUS ( 'not_yet_approved' ) ;
#471 = PRODUCT_DEFINITION_FORMATION_WITH_SPECIFIED_SOURCE ( 'Symmetric', '', #302, .NOT_KNOWN. ) ;
#472 = CC_DESIGN_APPROVAL ( #848, ( #576 ) ) ;
#473 = CC_DESIGN_APPROVAL ( #855, ( #732 ) ) ;
#474 = COORDINATED_UNIVERSAL_TIME_OFFSET ( 10, 0, .AHEAD. ) ;
#475 = APPLICATION_PROTOCOL_DEFINITION ( 'international standard', 'config_control_design', 1994, #357 ) ;
#476 = PRODUCT_DEFINITION_SHAPE ( 'NONE', 'NONE',  #860 ) ;
#477 = APPLIED_DOCUMENT_REFERENCE ( #788,'',( #32) ) ;
#478 = COORDINATED_UNIVERSAL_TIME_OFFSET ( 10, 0, .AHEAD. ) ;
#479 = IDENTIFICATION_ROLE ( 'external document id and location', $) ;
#480 = PERSON_AND_ORGANIZATION ( #18446744073709551615, #18446744073709551615 ) ;
#481 = CC_DESIGN_APPROVAL ( #161, ( #79 ) ) ;
#482 = LOCAL_TIME ( 18, 49, 48.00000000000000000, #387 ) ;
#483 = APPROVAL ( #120, 'Coincident' ) ;
#484 = PERSON ( 'NAUO-PER18', 'UNSPECIFIED', 'UNSPECIFIED', ('UNSPECIFIED'), ('UNSPECIFIED'), ('UNSPECIFIED') ) ;
#485 = PERSON_AND_ORGANIZATION_ROLE ( 'creator' ) ;
#486 = CARTESIAN_POINT ( 'NONE',  ( 0.000000000000000000, 0.000000000000000000, 0.000000000000000000 ) ) ;
#487 = DATE_AND_TIME ( #747, #542 ) ;
#488 = DIRECTION ( 'NONE',  ( 1.000000000000000000, 0.000000000000000000, 0.000000000000000000 ) ) ;
#489 = PERSON_AND_ORGANIZATION ( #18446744073709551615, #18446744073709551615 ) ;
#490 =( NAMED_UNIT ( * ) SI_UNIT ( $, .STERADIAN. ) SOLID_ANGLE_UNIT ( ) );
#491 = PRODUCT_RELATED_PRODUCT_CATEGORY ( 'detail', '', ( #302 ) ) ;
#492 = IDENTIFICATION_ROLE ( 'external document id and location', $) ;
#493 = CC_DESIGN_APPROVAL ( #202, ( #306 ) ) ;
#494 = LOCAL_TIME ( 18, 49, 48.00000000000000000, #178 ) ;
#495 = PERSON_AND_ORGANIZATION_ROLE ( 'creator' ) ;
#496 = APPLICATION_CONTEXT ( 'configuration controlled 3d designs of mechanical parts and assemblies' ) ;
#497 =( LENGTH_UNIT ( ) NAMED_UNIT ( * ) SI_UNIT ( $, .METRE. ) );
#498 = COORDINATED_UNIVERSAL_TIME_OFFSET ( 10, 0, .AHEAD. ) ;
#499 = PERSON_AND_ORGANIZATION ( #18446744073709551615, #18446744073709551615 ) ;
#500 = DIRECTION ( 'NONE',  ( 1.000000000000000000, 0.000000000000000000, 0.000000000000000000 ) ) ;
#501 = SHAPE_DEFINITION_REPRESENTATION ( #373, #212 ) ;
#502 = PROPERTY_DEFINITION_REPRESENTATION ( #610, #129 ) ;
#503 = APPLICATION_PROTOCOL_DEFINITION ( 'international standard', 'config_control_design', 1994, #86 ) ;
#504 = PERSON ( 'NAUO-PER20', 'UNSPECIFIED', 'UNSPECIFIED', ('UNSPECIFIED'), ('UNSPECIFIED'), ('UNSPECIFIED') ) ;
#505 = CARTESIAN_POINT ( 'NONE',  ( 0.000000000000000000, 0.000000000000000000, 0.000000000000000000 ) ) ;
#506 = DATE_AND_TIME ( #640, #784 ) ;
#507 = SECURITY_CLASSIFICATION ( '', '', #465 ) ;
#508 = LOCAL_TIME ( 18, 49, 48.00000000000000000, #106 ) ;
#509 = COORDINATED_UNIVERSAL_TIME_OFFSET ( 10, 0, .AHEAD. ) ;
#510 = APPLICATION_PROTOCOL_DEFINITION ( 'international standard', 'config_control_design', 1994, #314 ) ;
#511 = CC_DESIGN_SECURITY_CLASSIFICATION ( #599, ( #863 ) ) ;
#512 = CC_DESIGN_DATE_AND_TIME_ASSIGNMENT ( #409, #600, ( #507 ) ) ;
#513 = DATE_AND_TIME ( #241, #482 ) ;
#514 = PRODUCT ( 'DF40HC_3_0_-100DS-0_4V.stp', 'DF40HC_3_0_-100DS-0_4V.stp', '', ( #737 ) ) ;
#515 = APPLIED_DOCUMENT_REFERENCE ( #641,'',( #651) ) ;
#516 = APPLICATION_PROTOCOL_DEFINITION ( 'international standard', 'config_control_design', 1994, #163 ) ;
#517 = CC_DESIGN_PERSON_AND_ORGANIZATION_ASSIGNMENT ( #391, #662, ( #12 ) ) ;
#518 = CARTESIAN_POINT ( 'NONE',  ( 0.001619999999999996443, -0.001199999999999999678, 0.000000000000000000 ) ) ;
#519 = CALENDAR_DATE ( 2026, 22, 6 ) ;
#520 = DATE_AND_TIME ( #242, #23 ) ;
#521 = APPROVAL_STATUS ( 'not_yet_approved' ) ;
#522 = CALENDAR_DATE ( 2026, 22, 6 ) ;
#523 = DIRECTION ( 'NONE',  ( 7.888609052210118054E-30, -1.000000000000000444, 5.551115128246594382E-17 ) ) ;
#524 = PRODUCT_RELATED_PRODUCT_CATEGORY ( 'detail', '', ( #228 ) ) ;
#525 = APPROVAL_DATE_TIME ( #582, #818 ) ;
#526 = CC_DESIGN_APPROVAL ( #359, ( #739 ) ) ;
#527 = CALENDAR_DATE ( 2026, 22, 6 ) ;
#528 = DATE_AND_TIME ( #541, #598 ) ;
#529 = CC_DESIGN_APPROVAL ( #483, ( #176 ) ) ;
#530 = DIRECTION ( 'NONE',  ( -1.000000000000000000, 7.888609052210118054E-30, -8.673617378792187268E-19 ) ) ;
#531 = APPROVAL_ROLE ( '' ) ;
#532 = CC_DESIGN_DATE_AND_TIME_ASSIGNMENT ( #566, #225, ( #714 ) ) ;
#533 = SECURITY_CLASSIFICATION_LEVEL ( 'unclassified' ) ;
#534 = APPROVAL_ROLE ( '' ) ;
#535 = COORDINATED_UNIVERSAL_TIME_OFFSET ( 10, 0, .AHEAD. ) ;
#536 = PERSON_AND_ORGANIZATION_ROLE ( 'classification_officer' ) ;
#537 = APPROVAL_STATUS ( 'not_yet_approved' ) ;
#538 = SHAPE_REPRESENTATION ( 'PCB-BASEMINI-V5X-F3.stp', ( #39 ), #338 ) ;
#539 = PRODUCT_DEFINITION_SHAPE ( 'NONE', 'NONE',  #864 ) ;
#540 = DOCUMENT_FILE ( 'DF40HC_3_0_-50DS-343580.stp.STEP' , '', '', #224, '' ,$ ) ;
#541 = CALENDAR_DATE ( 2026, 22, 6 ) ;
#542 = LOCAL_TIME ( 18, 49, 48.00000000000000000, #413 ) ;
#543 = CC_DESIGN_PERSON_AND_ORGANIZATION_ASSIGNMENT ( #343, #485, ( #471 ) ) ;
#544 = SECURITY_CLASSIFICATION ( '', '', #43 ) ;
#545 = CC_DESIGN_PERSON_AND_ORGANIZATION_ASSIGNMENT ( #231, #364, ( #79 ) ) ;
#546 = OBJECT_ROLE ('mandatory',$ ) ;
#547 = CONTEXT_DEPENDENT_SHAPE_REPRESENTATION ( #446, #735 ) ;
#548 = DATE_AND_TIME ( #394, #633 ) ;
#549 = APPLICATION_CONTEXT ( 'configuration controlled 3d designs of mechanical parts and assemblies' ) ;
#550 = APPROVAL ( #102, 'Coincident' ) ;
#551 = DATE_AND_TIME ( #807, #69 ) ;
#552 = DIRECTION ( 'NONE',  ( 0.000000000000000000, 0.000000000000000000, 1.000000000000000000 ) ) ;
#553 = LOCAL_TIME ( 18, 49, 48.00000000000000000, #49 ) ;
#554 = APPROVAL_PERSON_ORGANIZATION ( #657, #855, #261 ) ;
#555 = APPROVAL ( #61, 'UNKNOWN' ) ;
#556 = DATE_AND_TIME ( #21, #339 ) ;
#557 =( LENGTH_UNIT ( ) NAMED_UNIT ( * ) SI_UNIT ( $, .METRE. ) );
#558 = OBJECT_ROLE ('mandatory',$ ) ;
#559 = APPROVAL_ROLE ( '' ) ;
#560 = PRODUCT_DEFINITION_SHAPE ( 'NONE', 'NONE',  #87 ) ;
#561 = APPROVAL ( #203, 'Coincident' ) ;
#562 = APPROVAL_STATUS ( 'not_yet_approved' ) ;
#563 = AXIS2_PLACEMENT_3D ( 'NONE', #828, #778, #238 ) ;
#564 = SECURITY_CLASSIFICATION ( '', '', #451 ) ;
#565 = APPLIED_EXTERNAL_IDENTIFICATION_ASSIGNMENT ( 'MOLEX-SD-502443-6PIN-DINGCHU.stp.STEP' , #271, #675,( #34) ) ;
#566 = DATE_AND_TIME ( #742, #768 ) ;
#567 = DATE_TIME_ROLE ( 'creation_date' ) ;
#568 = CALENDAR_DATE ( 2026, 22, 6 ) ;
#569 = CALENDAR_DATE ( 2026, 22, 6 ) ;
#570 = DATE_TIME_ROLE ( 'classification_date' ) ;
#571 = CC_DESIGN_PERSON_AND_ORGANIZATION_ASSIGNMENT ( #131, #392, ( #176 ) ) ;
#572 = APPROVAL_DATE_TIME ( #644, #53 ) ;
#573 = PERSON_AND_ORGANIZATION ( #18446744073709551615, #18446744073709551615 ) ;
#574 = PRODUCT_DEFINITION_SHAPE ( 'NONE', 'NONE',  #739 ) ;
#575 = CALENDAR_DATE ( 2026, 22, 6 ) ;
#576 = SECURITY_CLASSIFICATION ( '', '', #159 ) ;
#577 = SECURITY_CLASSIFICATION ( '', '', #366 ) ;
#578 = CC_DESIGN_PERSON_AND_ORGANIZATION_ASSIGNMENT ( #429, #235, ( #616 ) ) ;
#579 = DATE_AND_TIME ( #29, #811 ) ;
#580 = APPROVAL_ROLE ( '' ) ;
#581 = APPROVAL_ROLE ( '' ) ;
#582 = DATE_AND_TIME ( #303, #746 ) ;
#583 =( REPRESENTATION_RELATIONSHIP ('NONE','NONE', #8, #376 ) REPRESENTATION_RELATIONSHIP_WITH_TRANSFORMATION ( #802 )SHAPE_REPRESENTATION_RELATIONSHIP( ) );
#584 = PERSON_AND_ORGANIZATION ( #696, #123 ) ;
#585 = COORDINATED_UNIVERSAL_TIME_OFFSET ( 10, 0, .AHEAD. ) ;
#586 = APPROVAL ( #358, 'Coincident' ) ;
#587 =( REPRESENTATION_RELATIONSHIP ('NONE','NONE', #8, #129 ) REPRESENTATION_RELATIONSHIP_WITH_TRANSFORMATION ( #144 )SHAPE_REPRESENTATION_RELATIONSHIP( ) );
#588 = APPROVAL_STATUS ( 'not_yet_approved' ) ;
#589 = UNCERTAINTY_MEASURE_WITH_UNIT (LENGTH_MEASURE( 1.000000000000000082E-05 ), #347, 'distance_accuracy_value', 'NONE');
#590 = APPROVAL_DATE_TIME ( #520, #143 ) ;
#591 = APPROVAL_DATE_TIME ( #462, #464 ) ;
#592 = DATE_TIME_ROLE ( 'creation_date' ) ;
#593 = APPLICATION_PROTOCOL_DEFINITION ( 'international standard', 'config_control_design', 1994, #496 ) ;
#594 = CC_DESIGN_PERSON_AND_ORGANIZATION_ASSIGNMENT ( #167, #436, ( #816 ) ) ;
#595 = PERSON_AND_ORGANIZATION_ROLE ( 'creator' ) ;
#596 = CONTEXT_DEPENDENT_SHAPE_REPRESENTATION ( #277, #539 ) ;
#597 = PERSON_AND_ORGANIZATION_ROLE ( 'creator' ) ;
#598 = LOCAL_TIME ( 18, 49, 48.00000000000000000, #388 ) ;
#599 = SECURITY_CLASSIFICATION ( '', '', #101 ) ;
#600 = DATE_TIME_ROLE ( 'classification_date' ) ;
#601 = PRODUCT_DEFINITION_SHAPE ( 'NONE', 'NONE',  #862 ) ;
#602 = PROPERTY_DEFINITION_REPRESENTATION ( #604, #376 ) ;
#603 = PERSON_AND_ORGANIZATION ( #18446744073709551615, #18446744073709551615 ) ;
#604 = PROPERTY_DEFINITION ('external definition','', #788 ) ;
#605 = APPROVAL_DATE_TIME ( #609, #726 ) ;
#606 = CC_DESIGN_PERSON_AND_ORGANIZATION_ASSIGNMENT ( #756, #85, ( #193 ) ) ;
#607 = APPROVAL_DATE_TIME ( #408, #855 ) ;
#608 = DATE_AND_TIME ( #846, #798 ) ;
#609 = DATE_AND_TIME ( #272, #410 ) ;
#610 = PROPERTY_DEFINITION ('external definition','', #34 ) ;
#611 = COORDINATED_UNIVERSAL_TIME_OFFSET ( 10, 0, .AHEAD. ) ;
#612 = DATE_AND_TIME ( #66, #268 ) ;
#613 = CC_DESIGN_DATE_AND_TIME_ASSIGNMENT ( #236, #426, ( #564 ) ) ;
#614 = DIRECTION ( 'NONE',  ( 1.000000000000000000, 0.000000000000000000, 0.000000000000000000 ) ) ;
#615 = AXIS2_PLACEMENT_3D ( 'NONE', #118, #264, #614 ) ;
#616 = PRODUCT_DEFINITION_FORMATION_WITH_SPECIFIED_SOURCE ( 'Symmetric', '', #816, .NOT_KNOWN. ) ;
#617 = APPROVAL_DATE_TIME ( #73, #202 ) ;
#618 = CC_DESIGN_PERSON_AND_ORGANIZATION_ASSIGNMENT ( #418, #15, ( #379 ) ) ;
#619 = PERSON_AND_ORGANIZATION ( #18446744073709551615, #18446744073709551615 ) ;
#620 = CC_DESIGN_PERSON_AND_ORGANIZATION_ASSIGNMENT ( #89, #230, ( #544 ) ) ;
#621 = DATE_TIME_ROLE ( 'creation_date' ) ;
#622 = PERSON ( 'NAUO-PER15', 'UNSPECIFIED', 'UNSPECIFIED', ('UNSPECIFIED'), ('UNSPECIFIED'), ('UNSPECIFIED') ) ;
#623 = APPROVAL_PERSON_ORGANIZATION ( #628, #586, #559 ) ;
#624 = LOCAL_TIME ( 18, 49, 48.00000000000000000, #249 ) ;
#625 = DESIGN_CONTEXT ( 'detailed design', #407, 'design' ) ;
#626 = APPLIED_EXTERNAL_IDENTIFICATION_ASSIGNMENT ( 'KE-V5XBASE-MINI-MUJU.stp.STEP' , #629, #112,( #788) ) ;
#627 = DATE_TIME_ROLE ( 'creation_date' ) ;
#628 = PERSON_AND_ORGANIZATION ( #18446744073709551615, #18446744073709551615 ) ;
#629 = IDENTIFICATION_ROLE ( 'external document id and location', $) ;
#630 = APPLICATION_CONTEXT ( 'configuration controlled 3d designs of mechanical parts and assemblies' ) ;
#631 = APPROVAL_STATUS ( 'not_yet_approved' ) ;
#632 = DIRECTION ( 'NONE',  ( 0.000000000000000000, 0.000000000000000000, 1.000000000000000000 ) ) ;
#633 = LOCAL_TIME ( 18, 49, 48.00000000000000000, #725 ) ;
#634 = CC_DESIGN_APPROVAL ( #337, ( #651 ) ) ;
#635 = LOCAL_TIME ( 18, 49, 48.00000000000000000, #535 ) ;
#636 = DOCUMENT_FILE ( 'GAI-V5XBASE-MINI-MUJU.stp.STEP' , '', '', #417, '' ,$ ) ;
#637 = PERSON_AND_ORGANIZATION_ROLE ( 'classification_officer' ) ;
#638 = DIRECTION ( 'NONE',  ( 1.000000000000000000, -7.888609052210118054E-30, 8.673617378792187268E-19 ) ) ;
#639 = PRODUCT_RELATED_PRODUCT_CATEGORY ( 'detail', '', ( #240 ) ) ;
#640 = CALENDAR_DATE ( 2026, 22, 6 ) ;
#641 = DOCUMENT_FILE ( 'DF40HC_3_0_-100DS-0_4V.stp.STEP' , '', '', #310, '' ,$ ) ;
#642 = DATE_TIME_ROLE ( 'classification_date' ) ;
#643 = DATE_AND_TIME ( #575, #233 ) ;
#644 = DATE_AND_TIME ( #568, #508 ) ;
#645 = CALENDAR_DATE ( 2026, 22, 6 ) ;
#646 = DIRECTION ( 'NONE',  ( -1.000000000000000000, 7.888609052210118054E-30, -8.673617378792187268E-19 ) ) ;
#647 = PRODUCT_DEFINITION_SHAPE ( 'NONE', 'NONE',  #694 ) ;
#648 = DATE_TIME_ROLE ( 'classification_date' ) ;
#649 = CC_DESIGN_APPROVAL ( #586, ( #193 ) ) ;
#650 = CC_DESIGN_APPROVAL ( #667, ( #92 ) ) ;
#651 = PRODUCT_DEFINITION ( 'General', '', #351, #194 ) ;
#652 = SHAPE_DEFINITION_REPRESENTATION ( #33, #538 ) ;
#653 = APPROVAL_PERSON_ORGANIZATION ( #89, #681, #710 ) ;
#654 = COORDINATED_UNIVERSAL_TIME_OFFSET ( 10, 0, .AHEAD. ) ;
#655 = COORDINATED_UNIVERSAL_TIME_OFFSET ( 10, 0, .AHEAD. ) ;
#656 = CALENDAR_DATE ( 2026, 22, 6 ) ;
#657 = PERSON_AND_ORGANIZATION ( #853, #412 ) ;
#658 = CALENDAR_DATE ( 2026, 22, 6 ) ;
#659 = APPROVAL_DATE_TIME ( #548, #359 ) ;
#660 = EXTERNAL_SOURCE (IDENTIFIER('') ) ;
#661 = APPROVAL_PERSON_ORGANIZATION ( #189, #337, #581 ) ;
#662 = PERSON_AND_ORGANIZATION_ROLE ( 'classification_officer' ) ;
#663 = SHAPE_DEFINITION_REPRESENTATION ( #647, #246 ) ;
#664 = APPROVAL_PERSON_ORGANIZATION ( #62, #667, #792 ) ;
#665 = LOCAL_TIME ( 18, 49, 48.00000000000000000, #57 ) ;
#666 = PERSON_AND_ORGANIZATION ( #18446744073709551615, #18446744073709551615 ) ;
#667 = APPROVAL ( #674, 'Coincident' ) ;
#668 = PROPERTY_DEFINITION ('document property','', #641 ) ;
#669 = PROPERTY_DEFINITION_REPRESENTATION ( #727, #309 ) ;
#670 = CALENDAR_DATE ( 2026, 22, 6 ) ;
#671 = APPROVAL_STATUS ( 'not_yet_approved' ) ;
#672 = CC_DESIGN_DATE_AND_TIME_ASSIGNMENT ( #335, #729, ( #732 ) ) ;
#673 = COORDINATED_UNIVERSAL_TIME_OFFSET ( 10, 0, .AHEAD. ) ;
#674 = APPROVAL_STATUS ( 'not_yet_approved' ) ;
#675 = EXTERNAL_SOURCE (IDENTIFIER('') ) ;
#676 =( GEOMETRIC_REPRESENTATION_CONTEXT ( 3 ) GLOBAL_UNCERTAINTY_ASSIGNED_CONTEXT ( ( #849 ) ) GLOBAL_UNIT_ASSIGNED_CONTEXT ( ( #445, #455, #738 ) ) REPRESENTATION_CONTEXT ( 'NONE', 'WORKASPACE' ) );
#677 = CC_DESIGN_DATE_AND_TIME_ASSIGNMENT ( #772, #305, ( #576 ) ) ;
#678 = PERSON_AND_ORGANIZATION ( #18446744073709551615, #18446744073709551615 ) ;
#679 = LOCAL_TIME ( 18, 49, 48.00000000000000000, #329 ) ;
#680 = APPROVAL_DATE_TIME ( #689, #257 ) ;
#681 = APPROVAL ( #438, 'UNKNOWN' ) ;
#682 = CARTESIAN_POINT ( 'NONE',  ( 0.000000000000000000, 0.000000000000000000, 0.000000000000000000 ) ) ;
#683 = PERSON_AND_ORGANIZATION ( #18446744073709551615, #18446744073709551615 ) ;
#684 = PERSON_AND_ORGANIZATION_ROLE ( 'design_owner' ) ;
#685 = APPROVAL_PERSON_ORGANIZATION ( #399, #779, #132 ) ;
#686 = LOCAL_TIME ( 18, 49, 48.00000000000000000, #509 ) ;
#687 = APPROVAL_PERSON_ORGANIZATION ( #391, #555, #858 ) ;
#688 = CC_DESIGN_PERSON_AND_ORGANIZATION_ASSIGNMENT ( #666, #67, ( #507 ) ) ;
#689 = DATE_AND_TIME ( #278, #137 ) ;
#690 = APPROVAL ( #28, 'Coincident' ) ;
#691 = COORDINATED_UNIVERSAL_TIME_OFFSET ( 10, 0, .AHEAD. ) ;
#692 = APPROVAL_DATE_TIME ( #168, #681 ) ;
#693 = APPROVAL_STATUS ( 'not_yet_approved' ) ;
#694 = PRODUCT_DEFINITION ( 'General', '', #176, #457 ) ;
#695 = DIRECTION ( 'NONE',  ( -7.888609052210118054E-30, 1.000000000000000444, -5.551115128246594382E-17 ) ) ;
#696 = PERSON ( 'NAUO-PER16', 'UNSPECIFIED', 'UNSPECIFIED', ('UNSPECIFIED'), ('UNSPECIFIED'), ('UNSPECIFIED') ) ;
#697 = APPROVAL_PERSON_ORGANIZATION ( #59, #726, #256 ) ;
#698 = APPROVAL_PERSON_ORGANIZATION ( #382, #690, #115 ) ;
#699 = PERSON_AND_ORGANIZATION ( #18446744073709551615, #18446744073709551615 ) ;
#700 = APPROVAL_PERSON_ORGANIZATION ( #791, #464, #180 ) ;
#701 = APPLIED_DOCUMENT_REFERENCE ( #636,'',( #694) ) ;
#702 = PERSON_AND_ORGANIZATION_ROLE ( 'design_owner' ) ;
#703 = CC_DESIGN_PERSON_AND_ORGANIZATION_ASSIGNMENT ( #584, #377, ( #564 ) ) ;
#704 = CARTESIAN_POINT ( 'NONE',  ( 0.000000000000000000, 0.000000000000000000, 0.000000000000000000 ) ) ;
#705 = APPROVAL_DATE_TIME ( #513, #342 ) ;
#706 = PERSON_AND_ORGANIZATION ( #18446744073709551615, #18446744073709551615 ) ;
#707 =( NAMED_UNIT ( * ) SI_UNIT ( $, .STERADIAN. ) SOLID_ANGLE_UNIT ( ) );
#708 = CC_DESIGN_PERSON_AND_ORGANIZATION_ASSIGNMENT ( #135, #406, ( #306 ) ) ;
#709 = CALENDAR_DATE ( 2026, 22, 6 ) ;
#710 = APPROVAL_ROLE ( '' ) ;
#711 = DATE_AND_TIME ( #156, #859 ) ;
#712 = PERSON_AND_ORGANIZATION_ROLE ( 'design_supplier' ) ;
#713 = APPROVAL_PERSON_ORGANIZATION ( #489, #257, #346 ) ;
#714 = SECURITY_CLASSIFICATION ( '', '', #215 ) ;
#715 = CONTEXT_DEPENDENT_SHAPE_REPRESENTATION ( #449, #794 ) ;
#716 = DATE_AND_TIME ( #313, #349 ) ;
#717 = APPLICATION_CONTEXT ( 'configuration controlled 3d designs of mechanical parts and assemblies' ) ;
#718 = DIRECTION ( 'NONE',  ( 1.000000000000000000, 0.000000000000000000, 0.000000000000000000 ) ) ;
#719 = PERSON_AND_ORGANIZATION ( #18446744073709551615, #18446744073709551615 ) ;
#720 = DATE_AND_TIME ( #317, #635 ) ;
#721 = DATE_TIME_ROLE ( 'creation_date' ) ;
#722 = APPROVAL_ROLE ( '' ) ;
#723 = APPROVAL_DATE_TIME ( #332, #555 ) ;
#724 = PERSON_AND_ORGANIZATION ( #18446744073709551615, #18446744073709551615 ) ;
#725 = COORDINATED_UNIVERSAL_TIME_OFFSET ( 10, 0, .AHEAD. ) ;
#726 = APPROVAL ( #857, 'Coincident' ) ;
#727 = PROPERTY_DEFINITION ('document property','', #540 ) ;
#728 = APPROVAL_PERSON_ORGANIZATION ( #751, #561, #745 ) ;
#729 = DATE_TIME_ROLE ( 'classification_date' ) ;
#730 = CALENDAR_DATE ( 2026, 22, 6 ) ;
#731 = APPROVAL_PERSON_ORGANIZATION ( #433, #848, #368 ) ;
#732 = SECURITY_CLASSIFICATION ( '', '', #321 ) ;
#733 = APPLICATION_PROTOCOL_DEFINITION ( 'international standard', 'config_control_design', 1994, #549 ) ;
#734 = CC_DESIGN_PERSON_AND_ORGANIZATION_ASSIGNMENT ( #319, #595, ( #616 ) ) ;
#735 = PRODUCT_DEFINITION_SHAPE ( 'NONE', 'NONE',  #863 ) ;
#736 = DATE_TIME_ROLE ( 'classification_date' ) ;
#737 = MECHANICAL_CONTEXT ( 'NONE', #757, 'mechanical' ) ;
#738 =( NAMED_UNIT ( * ) SI_UNIT ( $, .STERADIAN. ) SOLID_ANGLE_UNIT ( ) );
#739 = PRODUCT_DEFINITION ( 'General', '', #306, #183 ) ;
#740 = ROLE_ASSOCIATION ( #469, #477 ) ;
#741 = CALENDAR_DATE ( 2026, 22, 6 ) ;
#742 = CALENDAR_DATE ( 2026, 22, 6 ) ;
#743 = PRODUCT_RELATED_PRODUCT_CATEGORY ( 'detail', '', ( #816 ) ) ;
#744 = CC_DESIGN_APPROVAL ( #441, ( #379 ) ) ;
#745 = APPROVAL_ROLE ( '' ) ;
#746 = LOCAL_TIME ( 18, 49, 48.00000000000000000, #654 ) ;
#747 = CALENDAR_DATE ( 2026, 22, 6 ) ;
#748 = SHAPE_DEFINITION_REPRESENTATION ( #437, #376 ) ;
#749 = CC_DESIGN_DATE_AND_TIME_ASSIGNMENT ( #711, #567, ( #99 ) ) ;
#750 = DIRECTION ( 'NONE',  ( 1.000000000000000000, 0.000000000000000000, 0.000000000000000000 ) ) ;
#751 = PERSON_AND_ORGANIZATION ( #18446744073709551615, #18446744073709551615 ) ;
#752 = APPROVAL_PERSON_ORGANIZATION ( #174, #458, #760 ) ;
#753 = CC_DESIGN_APPROVAL ( #818, ( #351 ) ) ;
#754 = CC_DESIGN_PERSON_AND_ORGANIZATION_ASSIGNMENT ( #791, #403, ( #599 ) ) ;
#755 = LOCAL_TIME ( 18, 49, 48.00000000000000000, #785 ) ;
#756 = PERSON_AND_ORGANIZATION ( #18446744073709551615, #18446744073709551615 ) ;
#757 = APPLICATION_CONTEXT ( 'configuration controlled 3d designs of mechanical parts and assemblies' ) ;
#758 = PRODUCT_DEFINITION ( 'General', '', #471, #801 ) ;
#759 = PERSON_AND_ORGANIZATION_ROLE ( 'classification_officer' ) ;
#760 = APPROVAL_ROLE ( '' ) ;
#761 = DIRECTION ( 'NONE',  ( 0.000000000000000000, 0.000000000000000000, 1.000000000000000000 ) ) ;
#762 = APPLICATION_PROTOCOL_DEFINITION ( 'international standard', 'config_control_design', 1994, #42 ) ;
#763 = CC_DESIGN_DATE_AND_TIME_ASSIGNMENT ( #506, #570, ( #577 ) ) ;
#764 = APPROVAL_ROLE ( '' ) ;
#765 = PERSON_AND_ORGANIZATION ( #18446744073709551615, #18446744073709551615 ) ;
#766 =( GEOMETRIC_REPRESENTATION_CONTEXT ( 3 ) GLOBAL_UNCERTAINTY_ASSIGNED_CONTEXT ( ( #401 ) ) GLOBAL_UNIT_ASSIGNED_CONTEXT ( ( #557, #219, #287 ) ) REPRESENTATION_CONTEXT ( 'NONE', 'WORKASPACE' ) );
#767 = CC_DESIGN_APPROVAL ( #726, ( #507 ) ) ;
#768 = LOCAL_TIME ( 18, 49, 48.00000000000000000, #813 ) ;
#769 = APPROVAL_DATE_TIME ( #643, #41 ) ;
#770 = LOCAL_TIME ( 18, 49, 48.00000000000000000, #25 ) ;
#771 = PROPERTY_DEFINITION_REPRESENTATION ( #128, #246 ) ;
#772 = DATE_AND_TIME ( #26, #2 ) ;
#773 =( NAMED_UNIT ( * ) PLANE_ANGLE_UNIT ( ) SI_UNIT ( $, .RADIAN. ) );
#774 = PRODUCT ( 'GAI-V5XBASE-MINI-MUJU.stp', 'GAI-V5XBASE-MINI-MUJU.stp', '', ( #444 ) ) ;
#775 = COORDINATED_UNIVERSAL_TIME_OFFSET ( 10, 0, .AHEAD. ) ;
#776 = ITEM_DEFINED_TRANSFORMATION ( 'NONE', 'NONE', #22,  #265 ) ;
#777 = CALENDAR_DATE ( 2026, 22, 6 ) ;
#778 = DIRECTION ( 'NONE',  ( 8.673617378792187268E-19, -5.551115128246594382E-17, 0.9999999999999997780 ) ) ;
#779 = APPROVAL ( #671, 'Coincident' ) ;
#780 = PERSON_AND_ORGANIZATION ( #18446744073709551615, #18446744073709551615 ) ;
#781 = DATE_AND_TIME ( #569, #148 ) ;
#782 = APPROVAL_PERSON_ORGANIZATION ( #442, #342, #172 ) ;
#783 = PERSON_AND_ORGANIZATION ( #18446744073709551615, #18446744073709551615 ) ;
#784 = LOCAL_TIME ( 18, 49, 48.00000000000000000, #31 ) ;
#785 = COORDINATED_UNIVERSAL_TIME_OFFSET ( 10, 0, .AHEAD. ) ;
#786 = APPROVAL_DATE_TIME ( #404, #667 ) ;
#787 = CC_DESIGN_DATE_AND_TIME_ASSIGNMENT ( #528, #721, ( #694 ) ) ;
#788 = DOCUMENT_FILE ( 'KE-V5XBASE-MINI-MUJU.stp.STEP' , '', '', #386, '' ,$ ) ;
#789 = PERSON_AND_ORGANIZATION_ROLE ( 'design_owner' ) ;
#790 = PERSON_AND_ORGANIZATION_ROLE ( 'design_owner' ) ;
#791 = PERSON_AND_ORGANIZATION ( #484, #208 ) ;
#792 = APPROVAL_ROLE ( '' ) ;
#793 = MECHANICAL_CONTEXT ( 'NONE', #549, 'mechanical' ) ;
#794 = PRODUCT_DEFINITION_SHAPE ( 'NONE', 'NONE',  #861 ) ;
#795 = CC_DESIGN_APPROVAL ( #257, ( #324 ) ) ;
#796 = CONTEXT_DEPENDENT_SHAPE_REPRESENTATION ( #583, #260 ) ;
#797 = PERSON_AND_ORGANIZATION_ROLE ( 'design_supplier' ) ;
#798 = LOCAL_TIME ( 18, 49, 48.00000000000000000, #474 ) ;
#799 = PERSON_AND_ORGANIZATION ( #18446744073709551615, #18446744073709551615 ) ;
#800 = CC_DESIGN_PERSON_AND_ORGANIZATION_ASSIGNMENT ( #217, #422, ( #324 ) ) ;
#801 = DESIGN_CONTEXT ( 'detailed design', #630, 'design' ) ;
#802 = ITEM_DEFINED_TRANSFORMATION ( 'NONE', 'NONE', #280,  #393 ) ;
#803 = EXTERNAL_SOURCE (IDENTIFIER('') ) ;
#804 = CALENDAR_DATE ( 2026, 22, 6 ) ;
#805 = CC_DESIGN_PERSON_AND_ORGANIZATION_ASSIGNMENT ( #699, #299, ( #325 ) ) ;
#806 = APPLICATION_CONTEXT ( 'configuration controlled 3d designs of mechanical parts and assemblies' ) ;
#807 = CALENDAR_DATE ( 2026, 22, 6 ) ;
#808 = AXIS2_PLACEMENT_3D ( 'NONE', #227, #440, #638 ) ;
#809 = LOCAL_TIME ( 18, 49, 48.00000000000000000, #169 ) ;
#810 = CALENDAR_DATE ( 2026, 22, 6 ) ;
#811 = LOCAL_TIME ( 18, 49, 48.00000000000000000, #312 ) ;
#812 = LOCAL_TIME ( 18, 49, 48.00000000000000000, #673 ) ;
#813 = COORDINATED_UNIVERSAL_TIME_OFFSET ( 10, 0, .AHEAD. ) ;
#814 = CC_DESIGN_PERSON_AND_ORGANIZATION_ASSIGNMENT ( #259, #536, ( #92 ) ) ;
#815 = COORDINATED_UNIVERSAL_TIME_OFFSET ( 10, 0, .AHEAD. ) ;
#816 = PRODUCT ( 'MOLEX-SD-502443-6PIN-DINGCHU.stp', 'MOLEX-SD-502443-6PIN-DINGCHU.stp', '', ( #316 ) ) ;
#817 = CALENDAR_DATE ( 2026, 22, 6 ) ;
#818 = APPROVAL ( #829, 'Coincident' ) ;
#819 = APPLICATION_CONTEXT ( 'configuration controlled 3d designs of mechanical parts and assemblies' ) ;
#820 = AXIS2_PLACEMENT_3D ( 'NONE', #486, #761, #488 ) ;
#821 = APPROVAL_DATE_TIME ( #556, #84 ) ;
#822 = APPROVAL_PERSON_ORGANIZATION ( #499, #441, #35 ) ;
#823 = CC_DESIGN_SECURITY_CLASSIFICATION ( #325, ( #616 ) ) ;
#824 = CC_DESIGN_DATE_AND_TIME_ASSIGNMENT ( #210, #621, ( #32 ) ) ;
#825 = PERSON_AND_ORGANIZATION_ROLE ( 'creator' ) ;
#826 = PERSON_AND_ORGANIZATION ( #622, #431 ) ;
#827 = DATE_AND_TIME ( #522, #809 ) ;
#828 = CARTESIAN_POINT ( 'NONE',  ( 0.01370000000000000384, 0.001000000000000000888, -0.001114999999999999889 ) ) ;
#829 = APPROVAL_STATUS ( 'not_yet_approved' ) ;
#830 = APPROVAL_STATUS ( 'not_yet_approved' ) ;
#831 = MECHANICAL_CONTEXT ( 'NONE', #496, 'mechanical' ) ;
#832 = LOCAL_TIME ( 18, 49, 48.00000000000000000, #323 ) ;
#833 = CC_DESIGN_APPROVAL ( #342, ( #87 ) ) ;
#834 = PERSON_AND_ORGANIZATION ( #18446744073709551615, #18446744073709551615 ) ;
#835 = CC_DESIGN_APPROVAL ( #464, ( #599 ) ) ;
#836 = COORDINATED_UNIVERSAL_TIME_OFFSET ( 10, 0, .AHEAD. ) ;
#837 = PROPERTY_DEFINITION_REPRESENTATION ( #668, #212 ) ;
#838 = SHAPE_DEFINITION_REPRESENTATION ( #98, #309 ) ;
#839 = PRODUCT_RELATED_PRODUCT_CATEGORY ( 'detail', '', ( #774 ) ) ;
#840 =( LENGTH_UNIT ( ) NAMED_UNIT ( * ) SI_UNIT ( $, .METRE. ) );
#841 = APPROVAL_STATUS ( 'not_yet_approved' ) ;
#842 = APPROVAL_ROLE ( '' ) ;
#843 = APPLICATION_PROTOCOL_DEFINITION ( 'international standard', 'config_control_design', 1994, #806 ) ;
#844 = PERSON_AND_ORGANIZATION_ROLE ( 'classification_officer' ) ;
#845 = ROLE_ASSOCIATION ( #83, #188 ) ;
#846 = CALENDAR_DATE ( 2026, 22, 6 ) ;
#847 = CC_DESIGN_APPROVAL ( #84, ( #758 ) ) ;
#848 = APPROVAL ( #237, 'Coincident' ) ;
#849 = UNCERTAINTY_MEASURE_WITH_UNIT (LENGTH_MEASURE( 1.000000000000000082E-05 ), #445, 'distance_accuracy_value', 'NONE');
#850 = CC_DESIGN_SECURITY_CLASSIFICATION ( #576, ( #79 ) ) ;
#851 = ROLE_ASSOCIATION ( #546, #124 ) ;
#852 = PERSON_AND_ORGANIZATION ( #18446744073709551615, #18446744073709551615 ) ;
#853 = PERSON ( 'NAUO-PER19', 'UNSPECIFIED', 'UNSPECIFIED', ('UNSPECIFIED'), ('UNSPECIFIED'), ('UNSPECIFIED') ) ;
#854 = PROPERTY_DEFINITION ('document property','', #788 ) ;
#855 = APPROVAL ( #328, 'UNKNOWN' ) ;
#856 = APPROVAL_DATE_TIME ( #58, #483 ) ;
#857 = APPROVAL_STATUS ( 'not_yet_approved' ) ;
#858 = APPROVAL_ROLE ( '' ) ;
#859 = LOCAL_TIME ( 18, 49, 48.00000000000000000, #655 ) ;
#860 = NEXT_ASSEMBLY_USAGE_OCCURRENCE ( 'NAUO15', ' ', ' ', #739, #87, $ ) ;
#861 = NEXT_ASSEMBLY_USAGE_OCCURRENCE ( 'NAUO16', ' ', ' ', #739, #651, $ ) ;
#862 = NEXT_ASSEMBLY_USAGE_OCCURRENCE ( 'NAUO17', ' ', ' ', #739, #694, $ ) ;
#863 = NEXT_ASSEMBLY_USAGE_OCCURRENCE ( 'NAUO18', ' ', ' ', #739, #99, $ ) ;
#864 = NEXT_ASSEMBLY_USAGE_OCCURRENCE ( 'NAUO19', ' ', ' ', #739, #758, $ ) ;
#865 = NEXT_ASSEMBLY_USAGE_OCCURRENCE ( 'NAUO20', ' ', ' ', #739, #32, $ ) ;
ENDSEC;
END-ISO-10303-21;
