ISO-10303-21;
HEADER;
FILE_DESCRIPTION (( 'STEP AP203' ),
    '1' );
FILE_NAME ('pixhawk5x-3D-simple.stp.STEP',
    '2026-06-22T08:49:50',
    ( 'localuser' ),
    ( '' ),
    'SwSTEP 2.0',
    'SolidWorks 2025',
    '' );
FILE_SCHEMA (( 'CONFIG_CONTROL_DESIGN' ));
ENDSEC;

DATA;
#1 = APPROVAL_PERSON_ORGANIZATION ( #127, #595, #190 ) ;
#2 = CALENDAR_DATE ( 2026, 22, 6 ) ;
#3 = CC_DESIGN_DATE_AND_TIME_ASSIGNMENT ( #150, #57, ( #241 ) ) ;
#4 = CALENDAR_DATE ( 2026, 22, 6 ) ;
#5 = DATE_AND_TIME ( #259, #99 ) ;
#6 = DATE_AND_TIME ( #147, #404 ) ;
#7 = SHAPE_DEFINITION_REPRESENTATION ( #28, #518 ) ;
#8 =( LENGTH_UNIT ( ) NAMED_UNIT ( * ) SI_UNIT ( $, .METRE. ) );
#9 = DOCUMENT_FILE ( 'MEIHUA-M2-10.stp.STEP' , '', '', #129, '' ,$ ) ;
#10 = PERSON_AND_ORGANIZATION ( #18446744073709551615, #18446744073709551615 ) ;
#11 = CC_DESIGN_PERSON_AND_ORGANIZATION_ASSIGNMENT ( #470, #568, ( #209 ) ) ;
#12 =( NAMED_UNIT ( * ) SI_UNIT ( $, .STERADIAN. ) SOLID_ANGLE_UNIT ( ) );
#13 = CC_DESIGN_APPROVAL ( #47, ( #220 ) ) ;
#14 = ORGANIZATION ( 'NAUO-ORG26', 'UNSPECIFIED', 'UNSPECIFIED' ) ;
#15 = CALENDAR_DATE ( 2026, 22, 6 ) ;
#16 = DIRECTION ( 'NONE',  ( 0.000000000000000000, -1.000000000000000000, 0.000000000000000000 ) ) ;
#17 = CALENDAR_DATE ( 2026, 22, 6 ) ;
#18 = CC_DESIGN_PERSON_AND_ORGANIZATION_ASSIGNMENT ( #10, #233, ( #498 ) ) ;
#19 = CARTESIAN_POINT ( 'NONE',  ( 0.000000000000000000, -0.01034999999999999809, 0.000000000000000000 ) ) ;
#20 =( REPRESENTATION_RELATIONSHIP ('NONE','NONE', #599, #327 ) REPRESENTATION_RELATIONSHIP_WITH_TRANSFORMATION ( #389 )SHAPE_REPRESENTATION_RELATIONSHIP( ) );
#21 = CC_DESIGN_APPROVAL ( #494, ( #202 ) ) ;
#22 = APPROVAL_STATUS ( 'not_yet_approved' ) ;
#23 = DOCUMENT_FILE ( 'FMUV5X-DIKE-V13.stp.STEP' , '', '', #441, '' ,$ ) ;
#24 = PROPERTY_DEFINITION ('external definition','', #9 ) ;
#25 = PERSON_AND_ORGANIZATION_ROLE ( 'creator' ) ;
#26 = APPLICATION_CONTEXT ( 'configuration controlled 3d designs of mechanical parts and assemblies' ) ;
#27 = CC_DESIGN_DATE_AND_TIME_ASSIGNMENT ( #337, #287, ( #498 ) ) ;
#28 = PRODUCT_DEFINITION_SHAPE ( 'NONE', 'NONE',  #455 ) ;
#29 = APPROVAL_PERSON_ORGANIZATION ( #188, #177, #59 ) ;
#30 = CC_DESIGN_APPROVAL ( #305, ( #241 ) ) ;
#31 = DATE_AND_TIME ( #535, #429 ) ;
#32 = PROPERTY_DEFINITION ('document property','', #191 ) ;
#33 =( REPRESENTATION_RELATIONSHIP ('NONE','NONE', #599, #327 ) REPRESENTATION_RELATIONSHIP_WITH_TRANSFORMATION ( #458 )SHAPE_REPRESENTATION_RELATIONSHIP( ) );
#34 = COORDINATED_UNIVERSAL_TIME_OFFSET ( 10, 0, .AHEAD. ) ;
#35 = CC_DESIGN_PERSON_AND_ORGANIZATION_ASSIGNMENT ( #371, #418, ( #125 ) ) ;
#36 = PERSON_AND_ORGANIZATION_ROLE ( 'creator' ) ;
#37 = PROPERTY_DEFINITION_REPRESENTATION ( #252, #518 ) ;
#38 = COORDINATED_UNIVERSAL_TIME_OFFSET ( 10, 0, .AHEAD. ) ;
#39 = LOCAL_TIME ( 18, 49, 50.00000000000000000, #561 ) ;
#40 =( NAMED_UNIT ( * ) PLANE_ANGLE_UNIT ( ) SI_UNIT ( $, .RADIAN. ) );
#41 = ROLE_ASSOCIATION ( #589, #453 ) ;
#42 = APPROVAL_ROLE ( '' ) ;
#43 = SECURITY_CLASSIFICATION_LEVEL ( 'unclassified' ) ;
#44 = COORDINATED_UNIVERSAL_TIME_OFFSET ( 10, 0, .AHEAD. ) ;
#45 = CALENDAR_DATE ( 2026, 22, 6 ) ;
#46 = CARTESIAN_POINT ( 'NONE',  ( 0.000000000000000000, 0.000000000000000000, 0.000000000000000000 ) ) ;
#47 = APPROVAL ( #490, 'Coincident' ) ;
#48 = APPLIED_DOCUMENT_REFERENCE ( #23,'',( #455) ) ;
#49 = COORDINATED_UNIVERSAL_TIME_OFFSET ( 10, 0, .AHEAD. ) ;
#50 = LOCAL_TIME ( 18, 49, 50.00000000000000000, #591 ) ;
#51 = LOCAL_TIME ( 18, 49, 50.00000000000000000, #38 ) ;
#52 = ORGANIZATION ( 'NAUO-ORG24', 'UNSPECIFIED', 'UNSPECIFIED' ) ;
#53 = COORDINATED_UNIVERSAL_TIME_OFFSET ( 10, 0, .AHEAD. ) ;
#54 = EXTERNAL_SOURCE (IDENTIFIER('') ) ;
#55 = DATE_TIME_ROLE ( 'creation_date' ) ;
#56 =( NAMED_UNIT ( * ) PLANE_ANGLE_UNIT ( ) SI_UNIT ( $, .RADIAN. ) );
#57 = DATE_TIME_ROLE ( 'classification_date' ) ;
#58 = APPROVAL ( #598, 'Coincident' ) ;
#59 = APPROVAL_ROLE ( '' ) ;
#60 =( LENGTH_UNIT ( ) NAMED_UNIT ( * ) SI_UNIT ( $, .METRE. ) );
#61 = ITEM_DEFINED_TRANSFORMATION ( 'NONE', 'NONE', #530,  #581 ) ;
#62 = ITEM_DEFINED_TRANSFORMATION ( 'NONE', 'NONE', #435,  #347 ) ;
#63 =( NAMED_UNIT ( * ) SI_UNIT ( $, .STERADIAN. ) SOLID_ANGLE_UNIT ( ) );
#64 = COORDINATED_UNIVERSAL_TIME_OFFSET ( 10, 0, .AHEAD. ) ;
#65 = PRODUCT_DEFINITION_FORMATION_WITH_SPECIFIED_SOURCE ( 'Symmetric', '', #209, .NOT_KNOWN. ) ;
#66 = APPLICATION_PROTOCOL_DEFINITION ( 'international standard', 'config_control_design', 1994, #258 ) ;
#67 = CC_DESIGN_PERSON_AND_ORGANIZATION_ASSIGNMENT ( #492, #449, ( #89 ) ) ;
#68 = DIRECTION ( 'NONE',  ( 1.000000000000000000, 0.000000000000000000, 0.000000000000000000 ) ) ;
#69 = PERSON ( 'NAUO-PER24', 'UNSPECIFIED', 'UNSPECIFIED', ('UNSPECIFIED'), ('UNSPECIFIED'), ('UNSPECIFIED') ) ;
#70 = DATE_TIME_ROLE ( 'creation_date' ) ;
#71 = APPROVAL_PERSON_ORGANIZATION ( #345, #302, #249 ) ;
#72 = APPROVAL_DATE_TIME ( #118, #313 ) ;
#73 =( REPRESENTATION_RELATIONSHIP ('NONE','NONE', #599, #518 ) REPRESENTATION_RELATIONSHIP_WITH_TRANSFORMATION ( #62 )SHAPE_REPRESENTATION_RELATIONSHIP( ) );
#74 = PRODUCT ( 'pixhawk5x-3D-simple.stp', 'pixhawk5x-3D-simple.stp', '', ( #425 ) ) ;
#75 = APPROVAL ( #22, 'Coincident' ) ;
#76 = CALENDAR_DATE ( 2026, 22, 6 ) ;
#77 = PROPERTY_DEFINITION ('document property','', #9 ) ;
#78 = COORDINATED_UNIVERSAL_TIME_OFFSET ( 10, 0, .AHEAD. ) ;
#79 = PRODUCT_DEFINITION_SHAPE ( 'NONE', 'NONE',  #606 ) ;
#80 = APPROVAL_PERSON_ORGANIZATION ( #402, #47, #551 ) ;
#81 = LOCAL_TIME ( 18, 49, 50.00000000000000000, #520 ) ;
#82 =( GEOMETRIC_REPRESENTATION_CONTEXT ( 3 ) GLOBAL_UNCERTAINTY_ASSIGNED_CONTEXT ( ( #594 ) ) GLOBAL_UNIT_ASSIGNED_CONTEXT ( ( #60, #56, #12 ) ) REPRESENTATION_CONTEXT ( 'NONE', 'WORKASPACE' ) );
#83 = PERSON_AND_ORGANIZATION_ROLE ( 'creator' ) ;
#84 = CC_DESIGN_PERSON_AND_ORGANIZATION_ASSIGNMENT ( #414, #463, ( #89 ) ) ;
#85 = PERSON_AND_ORGANIZATION_ROLE ( 'classification_officer' ) ;
#86 = CALENDAR_DATE ( 2026, 22, 6 ) ;
#87 = PERSON_AND_ORGANIZATION_ROLE ( 'classification_officer' ) ;
#88 = PERSON_AND_ORGANIZATION ( #18446744073709551615, #18446744073709551615 ) ;
#89 = PRODUCT_DEFINITION_FORMATION_WITH_SPECIFIED_SOURCE ( 'Symmetric', '', #167, .NOT_KNOWN. ) ;
#90 = DATE_TIME_ROLE ( 'classification_date' ) ;
#91 = DATE_TIME_ROLE ( 'classification_date' ) ;
#92 = APPROVAL ( #586, 'Coincident' ) ;
#93 = CALENDAR_DATE ( 2026, 22, 6 ) ;
#94 = OBJECT_ROLE ('mandatory',$ ) ;
#95 = DATE_AND_TIME ( #45, #480 ) ;
#96 = PROPERTY_DEFINITION_REPRESENTATION ( #570, #408 ) ;
#97 = PROPERTY_DEFINITION_REPRESENTATION ( #77, #327 ) ;
#98 = PERSON_AND_ORGANIZATION ( #18446744073709551615, #18446744073709551615 ) ;
#99 = LOCAL_TIME ( 18, 49, 50.00000000000000000, #365 ) ;
#100 = APPROVAL_PERSON_ORGANIZATION ( #373, #351, #460 ) ;
#101 = CC_DESIGN_PERSON_AND_ORGANIZATION_ASSIGNMENT ( #88, #362, ( #220 ) ) ;
#102 = DATE_AND_TIME ( #269, #248 ) ;
#103 = DATE_AND_TIME ( #4, #290 ) ;
#104 = CARTESIAN_POINT ( 'NONE',  ( -0.01720000000000000001, -0.008349999999999999784, -0.01369999999999999864 ) ) ;
#105 = IDENTIFICATION_ROLE ( 'external document id and location', $) ;
#106 = COORDINATED_UNIVERSAL_TIME_OFFSET ( 10, 0, .AHEAD. ) ;
#107 = APPROVAL_STATUS ( 'not_yet_approved' ) ;
#108 = APPROVAL_DATE_TIME ( #428, #253 ) ;
#109 = CC_DESIGN_PERSON_AND_ORGANIZATION_ASSIGNMENT ( #508, #314, ( #202 ) ) ;
#110 = CC_DESIGN_APPROVAL ( #75, ( #552 ) ) ;
#111 = DATE_AND_TIME ( #214, #183 ) ;
#112 = EXTERNAL_SOURCE (IDENTIFIER('') ) ;
#113 = CALENDAR_DATE ( 2026, 22, 6 ) ;
#114 = CC_DESIGN_APPROVAL ( #177, ( #65 ) ) ;
#115 = APPROVAL ( #322, 'Coincident' ) ;
#116 = CC_DESIGN_SECURITY_CLASSIFICATION ( #125, ( #609 ) ) ;
#117 = APPROVAL_DATE_TIME ( #297, #75 ) ;
#118 = DATE_AND_TIME ( #401, #122 ) ;
#119 = PROPERTY_DEFINITION ('external definition','', #421 ) ;
#120 = DATE_AND_TIME ( #393, #566 ) ;
#121 = CC_DESIGN_DATE_AND_TIME_ASSIGNMENT ( #409, #91, ( #488 ) ) ;
#122 = LOCAL_TIME ( 18, 49, 50.00000000000000000, #205 ) ;
#123 = SECURITY_CLASSIFICATION ( '', '', #256 ) ;
#124 = CC_DESIGN_APPROVAL ( #356, ( #125 ) ) ;
#125 = SECURITY_CLASSIFICATION ( '', '', #560 ) ;
#126 = CALENDAR_DATE ( 2026, 22, 6 ) ;
#127 = PERSON_AND_ORGANIZATION ( #597, #499 ) ;
#128 = PERSON_AND_ORGANIZATION ( #18446744073709551615, #18446744073709551615 ) ;
#129 = DOCUMENT_TYPE ( 'geometry' ) ;
#130 = DATE_AND_TIME ( #2, #592 ) ;
#131 = COORDINATED_UNIVERSAL_TIME_OFFSET ( 10, 0, .AHEAD. ) ;
#132 = CARTESIAN_POINT ( 'NONE',  ( 0.000000000000000000, 0.000000000000000000, 0.000000000000000000 ) ) ;
#133 = DATE_AND_TIME ( #457, #417 ) ;
#134 = CC_DESIGN_PERSON_AND_ORGANIZATION_ASSIGNMENT ( #98, #283, ( #455 ) ) ;
#135 = COORDINATED_UNIVERSAL_TIME_OFFSET ( 10, 0, .AHEAD. ) ;
#136 = COORDINATED_UNIVERSAL_TIME_OFFSET ( 10, 0, .AHEAD. ) ;
#137 = CC_DESIGN_SECURITY_CLASSIFICATION ( #473, ( #605 ) ) ;
#138 = APPROVAL_DATE_TIME ( #410, #351 ) ;
#139 = PROPERTY_DEFINITION_REPRESENTATION ( #534, #327 ) ;
#140 = PERSON_AND_ORGANIZATION_ROLE ( 'design_supplier' ) ;
#141 = APPROVAL_ROLE ( '' ) ;
#142 = APPROVAL_STATUS ( 'not_yet_approved' ) ;
#143 = PERSON_AND_ORGANIZATION ( #18446744073709551615, #18446744073709551615 ) ;
#144 = PRODUCT_DEFINITION ( 'General', '', #552, #511 ) ;
#145 = DOCUMENT_TYPE ( 'geometry' ) ;
#146 = PERSON ( 'NAUO-PER25', 'UNSPECIFIED', 'UNSPECIFIED', ('UNSPECIFIED'), ('UNSPECIFIED'), ('UNSPECIFIED') ) ;
#147 = CALENDAR_DATE ( 2026, 22, 6 ) ;
#148 = APPROVAL_STATUS ( 'not_yet_approved' ) ;
#149 = APPROVAL_PERSON_ORGANIZATION ( #315, #115, #502 ) ;
#150 = DATE_AND_TIME ( #282, #466 ) ;
#151 = PERSON_AND_ORGANIZATION ( #18446744073709551615, #18446744073709551615 ) ;
#152 = APPROVAL_DATE_TIME ( #432, #58 ) ;
#153 = PRODUCT_RELATED_PRODUCT_CATEGORY ( 'detail', '', ( #301 ) ) ;
#154 = IDENTIFICATION_ROLE ( 'external document id and location', $) ;
#155 = CC_DESIGN_APPROVAL ( #485, ( #89 ) ) ;
#156 = SECURITY_CLASSIFICATION ( '', '', #505 ) ;
#157 =( LENGTH_UNIT ( ) NAMED_UNIT ( * ) SI_UNIT ( $, .METRE. ) );
#158 = PERSON_AND_ORGANIZATION ( #18446744073709551615, #18446744073709551615 ) ;
#159 = PRODUCT_DEFINITION ( 'General', '', #445, #558 ) ;
#160 = PERSON_AND_ORGANIZATION ( #18446744073709551615, #18446744073709551615 ) ;
#161 = PRODUCT_DEFINITION_SHAPE ( 'NONE', 'NONE',  #159 ) ;
#162 = LOCAL_TIME ( 18, 49, 50.00000000000000000, #106 ) ;
#163 = APPROVAL_PERSON_ORGANIZATION ( #508, #494, #141 ) ;
#164 = PRODUCT_DEFINITION_SHAPE ( 'NONE', 'NONE',  #609 ) ;
#165 = DATE_TIME_ROLE ( 'classification_date' ) ;
#166 = CC_DESIGN_PERSON_AND_ORGANIZATION_ASSIGNMENT ( #317, #85, ( #488 ) ) ;
#167 = PRODUCT ( 'FMUV5X-SHANGGAI-V14.stp', 'FMUV5X-SHANGGAI-V14.stp', '', ( #602 ) ) ;
#168 = APPROVAL_STATUS ( 'not_yet_approved' ) ;
#169 = PERSON_AND_ORGANIZATION_ROLE ( 'classification_officer' ) ;
#170 = APPROVAL_DATE_TIME ( #95, #485 ) ;
#171 = LOCAL_TIME ( 18, 49, 50.00000000000000000, #459 ) ;
#172 = APPROVAL_PERSON_ORGANIZATION ( #467, #305, #562 ) ;
#173 = PERSON_AND_ORGANIZATION_ROLE ( 'classification_officer' ) ;
#174 = DATE_TIME_ROLE ( 'classification_date' ) ;
#175 = APPLICATION_PROTOCOL_DEFINITION ( 'international standard', 'config_control_design', 1994, #285 ) ;
#176 = CALENDAR_DATE ( 2026, 22, 6 ) ;
#177 = APPROVAL ( #196, 'Coincident' ) ;
#178 = PROPERTY_DEFINITION_REPRESENTATION ( #443, #518 ) ;
#179 = DATE_AND_TIME ( #557, #50 ) ;
#180 = DIRECTION ( 'NONE',  ( 1.000000000000000000, 0.000000000000000000, 0.000000000000000000 ) ) ;
#181 = AXIS2_PLACEMENT_3D ( 'NONE', #19, #517, #200 ) ;
#182 = DATE_AND_TIME ( #225, #171 ) ;
#183 = LOCAL_TIME ( 18, 49, 50.00000000000000000, #34 ) ;
#184 = APPLICATION_CONTEXT ( 'configuration controlled 3d designs of mechanical parts and assemblies' ) ;
#185 = APPROVAL_ROLE ( '' ) ;
#186 = PROPERTY_DEFINITION_REPRESENTATION ( #350, #327 ) ;
#187 = CC_DESIGN_PERSON_AND_ORGANIZATION_ASSIGNMENT ( #267, #215, ( #167 ) ) ;
#188 = PERSON_AND_ORGANIZATION ( #18446744073709551615, #18446744073709551615 ) ;
#189 =( LENGTH_UNIT ( ) NAMED_UNIT ( * ) SI_UNIT ( $, .METRE. ) );
#190 = APPROVAL_ROLE ( '' ) ;
#191 = DOCUMENT_FILE ( 'MEIHUA-M2-10.stp.STEP' , '', '', #426, '' ,$ ) ;
#192 = UNCERTAINTY_MEASURE_WITH_UNIT (LENGTH_MEASURE( 1.000000000000000082E-05 ), #8, 'distance_accuracy_value', 'NONE');
#193 = ROLE_ASSOCIATION ( #277, #422 ) ;
#194 = APPROVAL_STATUS ( 'not_yet_approved' ) ;
#195 = CC_DESIGN_APPROVAL ( #115, ( #488 ) ) ;
#196 = APPROVAL_STATUS ( 'not_yet_approved' ) ;
#197 = CARTESIAN_POINT ( 'NONE',  ( 0.01720000000000000695, -0.008349999999999998049, 0.01370000000000000037 ) ) ;
#198 = CC_DESIGN_DATE_AND_TIME_ASSIGNMENT ( #246, #70, ( #144 ) ) ;
#199 = MECHANICAL_CONTEXT ( 'NONE', #258, 'mechanical' ) ;
#200 = DIRECTION ( 'NONE',  ( -1.000000000000000000, 0.000000000000000000, -1.097628715706438601E-28 ) ) ;
#201 = CC_DESIGN_APPROVAL ( #313, ( #144 ) ) ;
#202 = SECURITY_CLASSIFICATION ( '', '', #415 ) ;
#203 = OBJECT_ROLE ('mandatory',$ ) ;
#204 = CC_DESIGN_PERSON_AND_ORGANIZATION_ASSIGNMENT ( #540, #584, ( #123 ) ) ;
#205 = COORDINATED_UNIVERSAL_TIME_OFFSET ( 10, 0, .AHEAD. ) ;
#206 = CC_DESIGN_PERSON_AND_ORGANIZATION_ASSIGNMENT ( #467, #228, ( #241 ) ) ;
#207 = PERSON_AND_ORGANIZATION ( #18446744073709551615, #18446744073709551615 ) ;
#208 = DIRECTION ( 'NONE',  ( 0.000000000000000000, 0.000000000000000000, 1.000000000000000000 ) ) ;
#209 = PRODUCT ( 'FMUV5X-DIKE-V13.stp', 'FMUV5X-DIKE-V13.stp', '', ( #199 ) ) ;
#210 = LOCAL_TIME ( 18, 49, 50.00000000000000000, #378 ) ;
#211 = PRODUCT_DEFINITION_SHAPE ( 'NONE', 'NONE',  #608 ) ;
#212 = APPROVAL_DATE_TIME ( #31, #302 ) ;
#213 = APPLICATION_CONTEXT ( 'configuration controlled 3d designs of mechanical parts and assemblies' ) ;
#214 = CALENDAR_DATE ( 2026, 22, 6 ) ;
#215 = PERSON_AND_ORGANIZATION_ROLE ( 'design_owner' ) ;
#216 = UNCERTAINTY_MEASURE_WITH_UNIT (LENGTH_MEASURE( 1.000000000000000082E-05 ), #157, 'distance_accuracy_value', 'NONE');
#217 = DOCUMENT_FILE ( 'FMUV5X-SHANGGAI-V14.stp.STEP' , '', '', #546, '' ,$ ) ;
#218 = CC_DESIGN_APPROVAL ( #569, ( #445 ) ) ;
#219 = APPROVAL_DATE_TIME ( #549, #569 ) ;
#220 = PRODUCT_DEFINITION ( 'General', '', #89, #361 ) ;
#221 = EXTERNAL_SOURCE (IDENTIFIER('') ) ;
#222 = DATE_TIME_ROLE ( 'classification_date' ) ;
#223 = APPROVAL_DATE_TIME ( #182, #47 ) ;
#224 = PROPERTY_DEFINITION_REPRESENTATION ( #119, #327 ) ;
#225 = CALENDAR_DATE ( 2026, 22, 6 ) ;
#226 = CC_DESIGN_DATE_AND_TIME_ASSIGNMENT ( #103, #55, ( #455 ) ) ;
#227 = PERSON_AND_ORGANIZATION_ROLE ( 'classification_officer' ) ;
#228 = PERSON_AND_ORGANIZATION_ROLE ( 'classification_officer' ) ;
#229 = CALENDAR_DATE ( 2026, 22, 6 ) ;
#230 = CC_DESIGN_APPROVAL ( #547, ( #473 ) ) ;
#231 = APPLIED_EXTERNAL_IDENTIFICATION_ASSIGNMENT ( 'MEIHUA-M2-10.stp.STEP' , #105, #434,( #421) ) ;
#232 = COORDINATED_UNIVERSAL_TIME_OFFSET ( 10, 0, .AHEAD. ) ;
#233 = PERSON_AND_ORGANIZATION_ROLE ( 'classification_officer' ) ;
#234 = PERSON ( 'NAUO-PER22', 'UNSPECIFIED', 'UNSPECIFIED', ('UNSPECIFIED'), ('UNSPECIFIED'), ('UNSPECIFIED') ) ;
#235 = PERSON_AND_ORGANIZATION ( #18446744073709551615, #18446744073709551615 ) ;
#236 = DATE_AND_TIME ( #17, #39 ) ;
#237 =( GEOMETRIC_REPRESENTATION_CONTEXT ( 3 ) GLOBAL_UNCERTAINTY_ASSIGNED_CONTEXT ( ( #192 ) ) GLOBAL_UNIT_ASSIGNED_CONTEXT ( ( #8, #334, #63 ) ) REPRESENTATION_CONTEXT ( 'NONE', 'WORKASPACE' ) );
#238 = APPROVAL_PERSON_ORGANIZATION ( #235, #253, #424 ) ;
#239 = PRODUCT_RELATED_PRODUCT_CATEGORY ( 'detail', '', ( #167 ) ) ;
#240 = APPLICATION_PROTOCOL_DEFINITION ( 'international standard', 'config_control_design', 1994, #516 ) ;
#241 = SECURITY_CLASSIFICATION ( '', '', #413 ) ;
#242 = COORDINATED_UNIVERSAL_TIME_OFFSET ( 10, 0, .AHEAD. ) ;
#243 = CARTESIAN_POINT ( 'NONE',  ( 0.000000000000000000, 0.000000000000000000, 0.000000000000000000 ) ) ;
#244 = EXTERNAL_SOURCE (IDENTIFIER('') ) ;
#245 = CC_DESIGN_DATE_AND_TIME_ASSIGNMENT ( #102, #90, ( #125 ) ) ;
#246 = DATE_AND_TIME ( #76, #452 ) ;
#247 = CC_DESIGN_APPROVAL ( #58, ( #604 ) ) ;
#248 = LOCAL_TIME ( 18, 49, 50.00000000000000000, #514 ) ;
#249 = APPROVAL_ROLE ( '' ) ;
#250 = PERSON_AND_ORGANIZATION ( #18446744073709551615, #18446744073709551615 ) ;
#251 = CALENDAR_DATE ( 2026, 22, 6 ) ;
#252 = PROPERTY_DEFINITION ('external definition','', #23 ) ;
#253 = APPROVAL ( #510, 'Coincident' ) ;
#254 = LOCAL_TIME ( 18, 49, 50.00000000000000000, #131 ) ;
#255 = CC_DESIGN_SECURITY_CLASSIFICATION ( #431, ( #607 ) ) ;
#256 = SECURITY_CLASSIFICATION_LEVEL ( 'unclassified' ) ;
#257 = APPROVAL_ROLE ( '' ) ;
#258 = APPLICATION_CONTEXT ( 'configuration controlled 3d designs of mechanical parts and assemblies' ) ;
#259 = CALENDAR_DATE ( 2026, 22, 6 ) ;
#260 = CC_DESIGN_PERSON_AND_ORGANIZATION_ASSIGNMENT ( #448, #444, ( #552 ) ) ;
#261 = DATE_TIME_ROLE ( 'classification_date' ) ;
#262 = DIRECTION ( 'NONE',  ( 0.000000000000000000, 0.000000000000000000, 1.000000000000000000 ) ) ;
#263 = APPROVAL_PERSON_ORGANIZATION ( #207, #92, #527 ) ;
#264 = CONTEXT_DEPENDENT_SHAPE_REPRESENTATION ( #497, #398 ) ;
#265 = LOCAL_TIME ( 18, 49, 50.00000000000000000, #49 ) ;
#266 = LOCAL_TIME ( 18, 49, 50.00000000000000000, #135 ) ;
#267 = PERSON_AND_ORGANIZATION ( #18446744073709551615, #18446744073709551615 ) ;
#268 = CALENDAR_DATE ( 2026, 22, 6 ) ;
#269 = CALENDAR_DATE ( 2026, 22, 6 ) ;
#270 = APPROVAL_DATE_TIME ( #312, #115 ) ;
#271 = DESIGN_CONTEXT ( 'detailed design', #184, 'design' ) ;
#272 = CC_DESIGN_PERSON_AND_ORGANIZATION_ASSIGNMENT ( #580, #83, ( #159 ) ) ;
#273 = DIRECTION ( 'NONE',  ( 1.000000000000000000, 0.000000000000000000, 0.000000000000000000 ) ) ;
#274 = CALENDAR_DATE ( 2026, 22, 6 ) ;
#275 = PROPERTY_DEFINITION_REPRESENTATION ( #32, #327 ) ;
#276 = SECURITY_CLASSIFICATION_LEVEL ( 'unclassified' ) ;
#277 = OBJECT_ROLE ('mandatory',$ ) ;
#278 = ITEM_DEFINED_TRANSFORMATION ( 'NONE', 'NONE', #565,  #581 ) ;
#279 = CC_DESIGN_SECURITY_CLASSIFICATION ( #202, ( #606 ) ) ;
#280 = PERSON_AND_ORGANIZATION_ROLE ( 'creator' ) ;
#281 = DIRECTION ( 'NONE',  ( 0.000000000000000000, -1.000000000000000000, 0.000000000000000000 ) ) ;
#282 = CALENDAR_DATE ( 2026, 22, 6 ) ;
#283 = PERSON_AND_ORGANIZATION_ROLE ( 'creator' ) ;
#284 = CARTESIAN_POINT ( 'NONE',  ( -0.01719999999999999307, -0.008349999999999998049, 0.01370000000000000037 ) ) ;
#285 = APPLICATION_CONTEXT ( 'configuration controlled 3d designs of mechanical parts and assemblies' ) ;
#286 = CC_DESIGN_DATE_AND_TIME_ASSIGNMENT ( #179, #541, ( #220 ) ) ;
#287 = DATE_TIME_ROLE ( 'classification_date' ) ;
#288 = DIRECTION ( 'NONE',  ( 1.000000000000000000, 0.000000000000000000, 1.097628715706438601E-28 ) ) ;
#289 = CALENDAR_DATE ( 2026, 22, 6 ) ;
#290 = LOCAL_TIME ( 18, 49, 50.00000000000000000, #242 ) ;
#291 = CARTESIAN_POINT ( 'NONE',  ( 0.01719999999999999307, -0.008349999999999998049, -0.01370000000000000037 ) ) ;
#292 = CALENDAR_DATE ( 2026, 22, 6 ) ;
#293 = DIRECTION ( 'NONE',  ( 1.000000000000000000, 0.000000000000000000, 1.097628715706438601E-28 ) ) ;
#294 = CC_DESIGN_DATE_AND_TIME_ASSIGNMENT ( #545, #261, ( #604 ) ) ;
#295 = DATE_TIME_ROLE ( 'creation_date' ) ;
#296 = IDENTIFICATION_ROLE ( 'external document id and location', $) ;
#297 = DATE_AND_TIME ( #251, #320 ) ;
#298 =( GEOMETRIC_REPRESENTATION_CONTEXT ( 3 ) GLOBAL_UNCERTAINTY_ASSIGNED_CONTEXT ( ( #216 ) ) GLOBAL_UNIT_ASSIGNED_CONTEXT ( ( #157, #526, #476 ) ) REPRESENTATION_CONTEXT ( 'NONE', 'WORKASPACE' ) );
#299 = LOCAL_TIME ( 18, 49, 50.00000000000000000, #136 ) ;
#300 = DATE_AND_TIME ( #113, #377 ) ;
#301 = PRODUCT ( 'MEIHUA-M2-10.stp', 'MEIHUA-M2-10.stp', '', ( #529 ) ) ;
#302 = APPROVAL ( #438, 'Coincident' ) ;
#303 = DIRECTION ( 'NONE',  ( 1.000000000000000000, 0.000000000000000000, 0.000000000000000000 ) ) ;
#304 = PROPERTY_DEFINITION ('document property','', #421 ) ;
#305 = APPROVAL ( #142, 'UNKNOWN' ) ;
#306 = APPROVAL_DATE_TIME ( #120, #92 ) ;
#307 = APPROVAL_PERSON_ORGANIZATION ( #151, #446, #372 ) ;
#308 = OBJECT_ROLE ('mandatory',$ ) ;
#309 = APPLIED_EXTERNAL_IDENTIFICATION_ASSIGNMENT ( 'FMUV5X-DIKE-V13.stp.STEP' , #154, #318,( #23) ) ;
#310 = ORGANIZATION ( 'NAUO-ORG21', 'UNSPECIFIED', 'UNSPECIFIED' ) ;
#311 = LOCAL_TIME ( 18, 49, 50.00000000000000000, #390 ) ;
#312 = DATE_AND_TIME ( #343, #254 ) ;
#313 = APPROVAL ( #168, 'Coincident' ) ;
#314 = PERSON_AND_ORGANIZATION_ROLE ( 'classification_officer' ) ;
#315 = PERSON_AND_ORGANIZATION ( #18446744073709551615, #18446744073709551615 ) ;
#316 = APPROVAL_STATUS ( 'not_yet_approved' ) ;
#317 = PERSON_AND_ORGANIZATION ( #18446744073709551615, #18446744073709551615 ) ;
#318 = EXTERNAL_SOURCE (IDENTIFIER('') ) ;
#319 = APPROVAL_DATE_TIME ( #133, #595 ) ;
#320 = LOCAL_TIME ( 18, 49, 50.00000000000000000, #78 ) ;
#321 = APPROVAL_STATUS ( 'not_yet_approved' ) ;
#322 = APPROVAL_STATUS ( 'not_yet_approved' ) ;
#323 = COORDINATED_UNIVERSAL_TIME_OFFSET ( 10, 0, .AHEAD. ) ;
#324 = APPROVAL_STATUS ( 'not_yet_approved' ) ;
#325 = APPROVAL_STATUS ( 'not_yet_approved' ) ;
#326 = COORDINATED_UNIVERSAL_TIME_OFFSET ( 10, 0, .AHEAD. ) ;
#327 = SHAPE_REPRESENTATION ( 'MEIHUA-M2-10.stp', ( #581 ), #298 ) ;
#328 = APPLICATION_PROTOCOL_DEFINITION ( 'international standard', 'config_control_design', 1994, #184 ) ;
#329 = APPROVAL_DATE_TIME ( #6, #356 ) ;
#330 = APPROVAL_PERSON_ORGANIZATION ( #158, #75, #442 ) ;
#331 = APPLIED_DOCUMENT_REFERENCE ( #9,'',( #159) ) ;
#332 = SECURITY_CLASSIFICATION_LEVEL ( 'unclassified' ) ;
#333 = APPLIED_EXTERNAL_IDENTIFICATION_ASSIGNMENT ( 'MEIHUA-M2-10.stp.STEP' , #296, #54,( #427) ) ;
#334 =( NAMED_UNIT ( * ) PLANE_ANGLE_UNIT ( ) SI_UNIT ( $, .RADIAN. ) );
#335 = CC_DESIGN_DATE_AND_TIME_ASSIGNMENT ( #5, #222, ( #202 ) ) ;
#336 = PERSON_AND_ORGANIZATION_ROLE ( 'design_supplier' ) ;
#337 = DATE_AND_TIME ( #474, #81 ) ;
#338 = DIRECTION ( 'NONE',  ( 1.000000000000000000, 0.000000000000000000, 1.097628715706438601E-28 ) ) ;
#339 = AXIS2_PLACEMENT_3D ( 'NONE', #243, #208, #303 ) ;
#340 = CC_DESIGN_PERSON_AND_ORGANIZATION_ASSIGNMENT ( #143, #280, ( #65 ) ) ;
#341 = CC_DESIGN_SECURITY_CLASSIFICATION ( #604, ( #89 ) ) ;
#342 = DIRECTION ( 'NONE',  ( 0.000000000000000000, 0.000000000000000000, 1.000000000000000000 ) ) ;
#343 = CALENDAR_DATE ( 2026, 22, 6 ) ;
#344 = APPLICATION_PROTOCOL_DEFINITION ( 'international standard', 'config_control_design', 1994, #573 ) ;
#345 = PERSON_AND_ORGANIZATION ( #18446744073709551615, #18446744073709551615 ) ;
#346 = COORDINATED_UNIVERSAL_TIME_OFFSET ( 10, 0, .AHEAD. ) ;
#347 = AXIS2_PLACEMENT_3D ( 'NONE', #132, #262, #180 ) ;
#348 = APPROVAL_PERSON_ORGANIZATION ( #451, #485, #419 ) ;
#349 = APPLIED_EXTERNAL_IDENTIFICATION_ASSIGNMENT ( 'FMUV5X-SHANGGAI-V14.stp.STEP' , #392, #244,( #217) ) ;
#350 = PROPERTY_DEFINITION ('external definition','', #191 ) ;
#351 = APPROVAL ( #107, 'UNKNOWN' ) ;
#352 = COORDINATED_UNIVERSAL_TIME_OFFSET ( 10, 0, .AHEAD. ) ;
#353 = PRODUCT_DEFINITION_SHAPE ( 'NONE', 'NONE',  #220 ) ;
#354 = COORDINATED_UNIVERSAL_TIME_OFFSET ( 10, 0, .AHEAD. ) ;
#355 = COORDINATED_UNIVERSAL_TIME_OFFSET ( 10, 0, .AHEAD. ) ;
#356 = APPROVAL ( #321, 'UNKNOWN' ) ;
#357 = CC_DESIGN_APPROVAL ( #253, ( #498 ) ) ;
#358 = APPLIED_EXTERNAL_IDENTIFICATION_ASSIGNMENT ( 'MEIHUA-M2-10.stp.STEP' , #370, #221,( #9) ) ;
#359 = IDENTIFICATION_ROLE ( 'external document id and location', $) ;
#360 = PERSON_AND_ORGANIZATION ( #18446744073709551615, #18446744073709551615 ) ;
#361 = DESIGN_CONTEXT ( 'detailed design', #285, 'design' ) ;
#362 = PERSON_AND_ORGANIZATION_ROLE ( 'creator' ) ;
#363 = CONTEXT_DEPENDENT_SHAPE_REPRESENTATION ( #472, #79 ) ;
#364 = SECURITY_CLASSIFICATION_LEVEL ( 'unclassified' ) ;
#365 = COORDINATED_UNIVERSAL_TIME_OFFSET ( 10, 0, .AHEAD. ) ;
#366 = CC_DESIGN_SECURITY_CLASSIFICATION ( #488, ( #445 ) ) ;
#367 = CC_DESIGN_DATE_AND_TIME_ASSIGNMENT ( #300, #165, ( #123 ) ) ;
#368 = SHAPE_DEFINITION_REPRESENTATION ( #161, #327 ) ;
#369 = APPROVAL_DATE_TIME ( #130, #494 ) ;
#370 = IDENTIFICATION_ROLE ( 'external document id and location', $) ;
#371 = PERSON_AND_ORGANIZATION ( #146, #387 ) ;
#372 = APPROVAL_ROLE ( '' ) ;
#373 = PERSON_AND_ORGANIZATION ( #69, #52 ) ;
#374 = DATE_AND_TIME ( #292, #513 ) ;
#375 = DATE_AND_TIME ( #386, #266 ) ;
#376 = CONTEXT_DEPENDENT_SHAPE_REPRESENTATION ( #537, #164 ) ;
#377 = LOCAL_TIME ( 18, 49, 50.00000000000000000, #391 ) ;
#378 = COORDINATED_UNIVERSAL_TIME_OFFSET ( 10, 0, .AHEAD. ) ;
#379 = UNCERTAINTY_MEASURE_WITH_UNIT (LENGTH_MEASURE( 1.000000000000000082E-05 ), #189, 'distance_accuracy_value', 'NONE');
#380 = APPLICATION_CONTEXT ( 'configuration controlled 3d designs of mechanical parts and assemblies' ) ;
#381 = COORDINATED_UNIVERSAL_TIME_OFFSET ( 10, 0, .AHEAD. ) ;
#382 = PROPERTY_DEFINITION ('external definition','', #217 ) ;
#383 = CC_DESIGN_DATE_AND_TIME_ASSIGNMENT ( #559, #174, ( #473 ) ) ;
#384 = DIRECTION ( 'NONE',  ( 0.000000000000000000, -1.000000000000000000, 0.000000000000000000 ) ) ;
#385 = APPROVAL_PERSON_ORGANIZATION ( #250, #313, #579 ) ;
#386 = CALENDAR_DATE ( 2026, 22, 6 ) ;
#387 = ORGANIZATION ( 'NAUO-ORG25', 'UNSPECIFIED', 'UNSPECIFIED' ) ;
#388 = DIRECTION ( 'NONE',  ( 1.000000000000000000, 0.000000000000000000, 1.097628715706438601E-28 ) ) ;
#389 = ITEM_DEFINED_TRANSFORMATION ( 'NONE', 'NONE', #574,  #581 ) ;
#390 = COORDINATED_UNIVERSAL_TIME_OFFSET ( 10, 0, .AHEAD. ) ;
#391 = COORDINATED_UNIVERSAL_TIME_OFFSET ( 10, 0, .AHEAD. ) ;
#392 = IDENTIFICATION_ROLE ( 'external document id and location', $) ;
#393 = CALENDAR_DATE ( 2026, 22, 6 ) ;
#394 = CC_DESIGN_PERSON_AND_ORGANIZATION_ASSIGNMENT ( #127, #87, ( #431 ) ) ;
#395 = PRODUCT_DEFINITION_SHAPE ( 'NONE', 'NONE',  #144 ) ;
#396 = PERSON_AND_ORGANIZATION ( #18446744073709551615, #18446744073709551615 ) ;
#397 = CC_DESIGN_SECURITY_CLASSIFICATION ( #498, ( #65 ) ) ;
#398 = PRODUCT_DEFINITION_SHAPE ( 'NONE', 'NONE',  #607 ) ;
#399 = APPLICATION_PROTOCOL_DEFINITION ( 'international standard', 'config_control_design', 1994, #26 ) ;
#400 = CC_DESIGN_PERSON_AND_ORGANIZATION_ASSIGNMENT ( #396, #483, ( #144 ) ) ;
#401 = CALENDAR_DATE ( 2026, 22, 6 ) ;
#402 = PERSON_AND_ORGANIZATION ( #18446744073709551615, #18446744073709551615 ) ;
#403 = CC_DESIGN_APPROVAL ( #92, ( #159 ) ) ;
#404 = LOCAL_TIME ( 18, 49, 50.00000000000000000, #326 ) ;
#405 = ROLE_ASSOCIATION ( #94, #550 ) ;
#406 = PERSON_AND_ORGANIZATION ( #18446744073709551615, #18446744073709551615 ) ;
#407 = DATE_AND_TIME ( #93, #575 ) ;
#408 = SHAPE_REPRESENTATION ( 'FMUV5X-SHANGGAI-V14.stp', ( #496 ), #237 ) ;
#409 = DATE_AND_TIME ( #229, #464 ) ;
#410 = DATE_AND_TIME ( #176, #311 ) ;
#411 = CC_DESIGN_PERSON_AND_ORGANIZATION_ASSIGNMENT ( #533, #25, ( #552 ) ) ;
#412 = PROPERTY_DEFINITION_REPRESENTATION ( #304, #327 ) ;
#413 = SECURITY_CLASSIFICATION_LEVEL ( 'unclassified' ) ;
#414 = PERSON_AND_ORGANIZATION ( #18446744073709551615, #18446744073709551615 ) ;
#415 = SECURITY_CLASSIFICATION_LEVEL ( 'unclassified' ) ;
#416 = LOCAL_TIME ( 18, 49, 50.00000000000000000, #381 ) ;
#417 = LOCAL_TIME ( 18, 49, 50.00000000000000000, #232 ) ;
#418 = PERSON_AND_ORGANIZATION_ROLE ( 'classification_officer' ) ;
#419 = APPROVAL_ROLE ( '' ) ;
#420 = PERSON ( 'NAUO-PER26', 'UNSPECIFIED', 'UNSPECIFIED', ('UNSPECIFIED'), ('UNSPECIFIED'), ('UNSPECIFIED') ) ;
#421 = DOCUMENT_FILE ( 'MEIHUA-M2-10.stp.STEP' , '', '', #504, '' ,$ ) ;
#422 = APPLIED_DOCUMENT_REFERENCE ( #191,'',( #159) ) ;
#423 = CC_DESIGN_DATE_AND_TIME_ASSIGNMENT ( #374, #587, ( #156 ) ) ;
#424 = APPROVAL_ROLE ( '' ) ;
#425 = MECHANICAL_CONTEXT ( 'NONE', #516, 'mechanical' ) ;
#426 = DOCUMENT_TYPE ( 'geometry' ) ;
#427 = DOCUMENT_FILE ( 'MEIHUA-M2-10.stp.STEP' , '', '', #145, '' ,$ ) ;
#428 = DATE_AND_TIME ( #471, #416 ) ;
#429 = LOCAL_TIME ( 18, 49, 50.00000000000000000, #352 ) ;
#430 = SECURITY_CLASSIFICATION_LEVEL ( 'unclassified' ) ;
#431 = SECURITY_CLASSIFICATION ( '', '', #43 ) ;
#432 = DATE_AND_TIME ( #289, #299 ) ;
#433 = CARTESIAN_POINT ( 'NONE',  ( 0.000000000000000000, 0.004250000000000000305, -5.421010862427522170E-20 ) ) ;
#434 = EXTERNAL_SOURCE (IDENTIFIER('') ) ;
#435 = AXIS2_PLACEMENT_3D ( 'NONE', #433, #16, #293 ) ;
#436 = APPROVAL_PERSON_ORGANIZATION ( #600, #547, #185 ) ;
#437 = ORGANIZATION ( 'NAUO-ORG22', 'UNSPECIFIED', 'UNSPECIFIED' ) ;
#438 = APPROVAL_STATUS ( 'not_yet_approved' ) ;
#439 = PRODUCT_RELATED_PRODUCT_CATEGORY ( 'detail', '', ( #209 ) ) ;
#440 = PERSON_AND_ORGANIZATION_ROLE ( 'design_owner' ) ;
#441 = DOCUMENT_TYPE ( 'geometry' ) ;
#442 = APPROVAL_ROLE ( '' ) ;
#443 = PROPERTY_DEFINITION ('document property','', #23 ) ;
#444 = PERSON_AND_ORGANIZATION_ROLE ( 'design_supplier' ) ;
#445 = PRODUCT_DEFINITION_FORMATION_WITH_SPECIFIED_SOURCE ( 'Symmetric', '', #301, .NOT_KNOWN. ) ;
#446 = APPROVAL ( #148, 'Coincident' ) ;
#447 = PROPERTY_DEFINITION ('document property','', #427 ) ;
#448 = PERSON_AND_ORGANIZATION ( #18446744073709551615, #18446744073709551615 ) ;
#449 = PERSON_AND_ORGANIZATION_ROLE ( 'design_supplier' ) ;
#450 = ITEM_DEFINED_TRANSFORMATION ( 'NONE', 'NONE', #181,  #496 ) ;
#451 = PERSON_AND_ORGANIZATION ( #18446744073709551615, #18446744073709551615 ) ;
#452 = LOCAL_TIME ( 18, 49, 50.00000000000000000, #346 ) ;
#453 = APPLIED_DOCUMENT_REFERENCE ( #421,'',( #159) ) ;
#454 = PERSON_AND_ORGANIZATION ( #18446744073709551615, #18446744073709551615 ) ;
#455 = PRODUCT_DEFINITION ( 'General', '', #65, #271 ) ;
#456 =( NAMED_UNIT ( * ) SI_UNIT ( $, .STERADIAN. ) SOLID_ANGLE_UNIT ( ) );
#457 = CALENDAR_DATE ( 2026, 22, 6 ) ;
#458 = ITEM_DEFINED_TRANSFORMATION ( 'NONE', 'NONE', #524,  #581 ) ;
#459 = COORDINATED_UNIVERSAL_TIME_OFFSET ( 10, 0, .AHEAD. ) ;
#460 = APPROVAL_ROLE ( '' ) ;
#461 = CONTEXT_DEPENDENT_SHAPE_REPRESENTATION ( #73, #536 ) ;
#462 = PROPERTY_DEFINITION_REPRESENTATION ( #447, #327 ) ;
#463 = PERSON_AND_ORGANIZATION_ROLE ( 'creator' ) ;
#464 = LOCAL_TIME ( 18, 49, 50.00000000000000000, #355 ) ;
#465 = CC_DESIGN_PERSON_AND_ORGANIZATION_ASSIGNMENT ( #373, #169, ( #156 ) ) ;
#466 = LOCAL_TIME ( 18, 49, 50.00000000000000000, #44 ) ;
#467 = PERSON_AND_ORGANIZATION ( #420, #14 ) ;
#468 = APPROVAL_DATE_TIME ( #236, #446 ) ;
#469 = ROLE_ASSOCIATION ( #601, #331 ) ;
#470 = PERSON_AND_ORGANIZATION ( #18446744073709551615, #18446744073709551615 ) ;
#471 = CALENDAR_DATE ( 2026, 22, 6 ) ;
#472 =( REPRESENTATION_RELATIONSHIP ('NONE','NONE', #599, #408 ) REPRESENTATION_RELATIONSHIP_WITH_TRANSFORMATION ( #450 )SHAPE_REPRESENTATION_RELATIONSHIP( ) );
#473 = SECURITY_CLASSIFICATION ( '', '', #332 ) ;
#474 = CALENDAR_DATE ( 2026, 22, 6 ) ;
#475 = CC_DESIGN_PERSON_AND_ORGANIZATION_ASSIGNMENT ( #454, #173, ( #604 ) ) ;
#476 =( NAMED_UNIT ( * ) SI_UNIT ( $, .STERADIAN. ) SOLID_ANGLE_UNIT ( ) );
#477 = APPROVAL_STATUS ( 'not_yet_approved' ) ;
#478 = CC_DESIGN_PERSON_AND_ORGANIZATION_ASSIGNMENT ( #564, #484, ( #74 ) ) ;
#479 = PERSON ( 'NAUO-PER21', 'UNSPECIFIED', 'UNSPECIFIED', ('UNSPECIFIED'), ('UNSPECIFIED'), ('UNSPECIFIED') ) ;
#480 = LOCAL_TIME ( 18, 49, 50.00000000000000000, #495 ) ;
#481 = CC_DESIGN_APPROVAL ( #595, ( #431 ) ) ;
#482 = PERSON_AND_ORGANIZATION ( #18446744073709551615, #18446744073709551615 ) ;
#483 = PERSON_AND_ORGANIZATION_ROLE ( 'creator' ) ;
#484 = PERSON_AND_ORGANIZATION_ROLE ( 'design_owner' ) ;
#485 = APPROVAL ( #324, 'Coincident' ) ;
#486 = APPLICATION_PROTOCOL_DEFINITION ( 'international standard', 'config_control_design', 1994, #380 ) ;
#487 =( GEOMETRIC_REPRESENTATION_CONTEXT ( 3 ) GLOBAL_UNCERTAINTY_ASSIGNED_CONTEXT ( ( #379 ) ) GLOBAL_UNIT_ASSIGNED_CONTEXT ( ( #189, #40, #456 ) ) REPRESENTATION_CONTEXT ( 'NONE', 'WORKASPACE' ) );
#488 = SECURITY_CLASSIFICATION ( '', '', #276 ) ;
#489 = CC_DESIGN_SECURITY_CLASSIFICATION ( #156, ( #608 ) ) ;
#490 = APPROVAL_STATUS ( 'not_yet_approved' ) ;
#491 = DATE_TIME_ROLE ( 'classification_date' ) ;
#492 = PERSON_AND_ORGANIZATION ( #18446744073709551615, #18446744073709551615 ) ;
#493 = DATE_AND_TIME ( #268, #583 ) ;
#494 = APPROVAL ( #325, 'UNKNOWN' ) ;
#495 = COORDINATED_UNIVERSAL_TIME_OFFSET ( 10, 0, .AHEAD. ) ;
#496 = AXIS2_PLACEMENT_3D ( 'NONE', #603, #503, #273 ) ;
#497 =( REPRESENTATION_RELATIONSHIP ('NONE','NONE', #599, #327 ) REPRESENTATION_RELATIONSHIP_WITH_TRANSFORMATION ( #278 )SHAPE_REPRESENTATION_RELATIONSHIP( ) );
#498 = SECURITY_CLASSIFICATION ( '', '', #430 ) ;
#499 = ORGANIZATION ( 'NAUO-ORG23', 'UNSPECIFIED', 'UNSPECIFIED' ) ;
#500 = PROPERTY_DEFINITION_REPRESENTATION ( #24, #327 ) ;
#501 = ROLE_ASSOCIATION ( #308, #567 ) ;
#502 = APPROVAL_ROLE ( '' ) ;
#503 = DIRECTION ( 'NONE',  ( 0.000000000000000000, 0.000000000000000000, 1.000000000000000000 ) ) ;
#504 = DOCUMENT_TYPE ( 'geometry' ) ;
#505 = SECURITY_CLASSIFICATION_LEVEL ( 'unclassified' ) ;
#506 = APPLICATION_PROTOCOL_DEFINITION ( 'international standard', 'config_control_design', 1994, #213 ) ;
#507 = CC_DESIGN_PERSON_AND_ORGANIZATION_ASSIGNMENT ( #523, #336, ( #65 ) ) ;
#508 = PERSON_AND_ORGANIZATION ( #234, #437 ) ;
#509 = CONTEXT_DEPENDENT_SHAPE_REPRESENTATION ( #33, #538 ) ;
#510 = APPROVAL_STATUS ( 'not_yet_approved' ) ;
#511 = DESIGN_CONTEXT ( 'detailed design', #380, 'design' ) ;
#512 = CC_DESIGN_APPROVAL ( #446, ( #455 ) ) ;
#513 = LOCAL_TIME ( 18, 49, 50.00000000000000000, #64 ) ;
#514 = COORDINATED_UNIVERSAL_TIME_OFFSET ( 10, 0, .AHEAD. ) ;
#515 = SHAPE_DEFINITION_REPRESENTATION ( #353, #408 ) ;
#516 = APPLICATION_CONTEXT ( 'configuration controlled 3d designs of mechanical parts and assemblies' ) ;
#517 = DIRECTION ( 'NONE',  ( 0.000000000000000000, 1.000000000000000000, 0.000000000000000000 ) ) ;
#518 = SHAPE_REPRESENTATION ( 'FMUV5X-DIKE-V13.stp', ( #347 ), #487 ) ;
#519 = APPROVAL_DATE_TIME ( #375, #305 ) ;
#520 = COORDINATED_UNIVERSAL_TIME_OFFSET ( 10, 0, .AHEAD. ) ;
#521 = DIRECTION ( 'NONE',  ( 0.000000000000000000, -1.000000000000000000, 0.000000000000000000 ) ) ;
#522 = CC_DESIGN_PERSON_AND_ORGANIZATION_ASSIGNMENT ( #482, #440, ( #301 ) ) ;
#523 = PERSON_AND_ORGANIZATION ( #18446744073709551615, #18446744073709551615 ) ;
#524 = AXIS2_PLACEMENT_3D ( 'NONE', #284, #281, #572 ) ;
#525 = APPROVAL_PERSON_ORGANIZATION ( #160, #569, #257 ) ;
#526 =( NAMED_UNIT ( * ) PLANE_ANGLE_UNIT ( ) SI_UNIT ( $, .RADIAN. ) );
#527 = APPROVAL_ROLE ( '' ) ;
#528 = CC_DESIGN_PERSON_AND_ORGANIZATION_ASSIGNMENT ( #360, #36, ( #445 ) ) ;
#529 = MECHANICAL_CONTEXT ( 'NONE', #26, 'mechanical' ) ;
#530 = AXIS2_PLACEMENT_3D ( 'NONE', #104, #578, #288 ) ;
#531 = APPROVAL_PERSON_ORGANIZATION ( #406, #58, #42 ) ;
#532 = CC_DESIGN_SECURITY_CLASSIFICATION ( #241, ( #610 ) ) ;
#533 = PERSON_AND_ORGANIZATION ( #18446744073709551615, #18446744073709551615 ) ;
#534 = PROPERTY_DEFINITION ('external definition','', #427 ) ;
#535 = CALENDAR_DATE ( 2026, 22, 6 ) ;
#536 = PRODUCT_DEFINITION_SHAPE ( 'NONE', 'NONE',  #605 ) ;
#537 =( REPRESENTATION_RELATIONSHIP ('NONE','NONE', #599, #327 ) REPRESENTATION_RELATIONSHIP_WITH_TRANSFORMATION ( #61 )SHAPE_REPRESENTATION_RELATIONSHIP( ) );
#538 = PRODUCT_DEFINITION_SHAPE ( 'NONE', 'NONE',  #610 ) ;
#539 = CC_DESIGN_PERSON_AND_ORGANIZATION_ASSIGNMENT ( #600, #227, ( #473 ) ) ;
#540 = PERSON_AND_ORGANIZATION ( #18446744073709551615, #18446744073709551615 ) ;
#541 = DATE_TIME_ROLE ( 'creation_date' ) ;
#542 = CC_DESIGN_SECURITY_CLASSIFICATION ( #123, ( #552 ) ) ;
#543 = APPROVAL_PERSON_ORGANIZATION ( #371, #356, #555 ) ;
#544 = COORDINATED_UNIVERSAL_TIME_OFFSET ( 10, 0, .AHEAD. ) ;
#545 = DATE_AND_TIME ( #86, #51 ) ;
#546 = DOCUMENT_TYPE ( 'geometry' ) ;
#547 = APPROVAL ( #194, 'UNKNOWN' ) ;
#548 = ROLE_ASSOCIATION ( #203, #48 ) ;
#549 = DATE_AND_TIME ( #126, #265 ) ;
#550 = APPLIED_DOCUMENT_REFERENCE ( #217,'',( #220) ) ;
#551 = APPROVAL_ROLE ( '' ) ;
#552 = PRODUCT_DEFINITION_FORMATION_WITH_SPECIFIED_SOURCE ( 'Symmetric', '', #74, .NOT_KNOWN. ) ;
#553 = APPLIED_EXTERNAL_IDENTIFICATION_ASSIGNMENT ( 'MEIHUA-M2-10.stp.STEP' , #359, #112,( #191) ) ;
#554 = PROPERTY_DEFINITION_REPRESENTATION ( #382, #408 ) ;
#555 = APPROVAL_ROLE ( '' ) ;
#556 = PRODUCT_RELATED_PRODUCT_CATEGORY ( 'detail', '', ( #74 ) ) ;
#557 = CALENDAR_DATE ( 2026, 22, 6 ) ;
#558 = DESIGN_CONTEXT ( 'detailed design', #573, 'design' ) ;
#559 = DATE_AND_TIME ( #274, #210 ) ;
#560 = SECURITY_CLASSIFICATION_LEVEL ( 'unclassified' ) ;
#561 = COORDINATED_UNIVERSAL_TIME_OFFSET ( 10, 0, .AHEAD. ) ;
#562 = APPROVAL_ROLE ( '' ) ;
#563 = APPROVAL_DATE_TIME ( #571, #177 ) ;
#564 = PERSON_AND_ORGANIZATION ( #18446744073709551615, #18446744073709551615 ) ;
#565 = AXIS2_PLACEMENT_3D ( 'NONE', #197, #521, #338 ) ;
#566 = LOCAL_TIME ( 18, 49, 50.00000000000000000, #354 ) ;
#567 = APPLIED_DOCUMENT_REFERENCE ( #427,'',( #159) ) ;
#568 = PERSON_AND_ORGANIZATION_ROLE ( 'design_owner' ) ;
#569 = APPROVAL ( #477, 'Coincident' ) ;
#570 = PROPERTY_DEFINITION ('document property','', #217 ) ;
#571 = DATE_AND_TIME ( #15, #162 ) ;
#572 = DIRECTION ( 'NONE',  ( 1.000000000000000000, 0.000000000000000000, 1.097628715706438601E-28 ) ) ;
#573 = APPLICATION_CONTEXT ( 'configuration controlled 3d designs of mechanical parts and assemblies' ) ;
#574 = AXIS2_PLACEMENT_3D ( 'NONE', #291, #384, #388 ) ;
#575 = LOCAL_TIME ( 18, 49, 50.00000000000000000, #544 ) ;
#576 = CC_DESIGN_APPROVAL ( #351, ( #156 ) ) ;
#577 = CC_DESIGN_DATE_AND_TIME_ASSIGNMENT ( #493, #491, ( #431 ) ) ;
#578 = DIRECTION ( 'NONE',  ( 0.000000000000000000, -1.000000000000000000, 0.000000000000000000 ) ) ;
#579 = APPROVAL_ROLE ( '' ) ;
#580 = PERSON_AND_ORGANIZATION ( #18446744073709551615, #18446744073709551615 ) ;
#581 = AXIS2_PLACEMENT_3D ( 'NONE', #46, #342, #68 ) ;
#582 = CC_DESIGN_APPROVAL ( #302, ( #123 ) ) ;
#583 = LOCAL_TIME ( 18, 49, 50.00000000000000000, #53 ) ;
#584 = PERSON_AND_ORGANIZATION_ROLE ( 'classification_officer' ) ;
#585 = CC_DESIGN_DATE_AND_TIME_ASSIGNMENT ( #111, #295, ( #159 ) ) ;
#586 = APPROVAL_STATUS ( 'not_yet_approved' ) ;
#587 = DATE_TIME_ROLE ( 'classification_date' ) ;
#588 = SHAPE_DEFINITION_REPRESENTATION ( #395, #599 ) ;
#589 = OBJECT_ROLE ('mandatory',$ ) ;
#590 = CONTEXT_DEPENDENT_SHAPE_REPRESENTATION ( #20, #211 ) ;
#591 = COORDINATED_UNIVERSAL_TIME_OFFSET ( 10, 0, .AHEAD. ) ;
#592 = LOCAL_TIME ( 18, 49, 50.00000000000000000, #323 ) ;
#593 = CC_DESIGN_PERSON_AND_ORGANIZATION_ASSIGNMENT ( #128, #140, ( #445 ) ) ;
#594 = UNCERTAINTY_MEASURE_WITH_UNIT (LENGTH_MEASURE( 1.000000000000000082E-05 ), #60, 'distance_accuracy_value', 'NONE');
#595 = APPROVAL ( #316, 'UNKNOWN' ) ;
#596 = APPROVAL_DATE_TIME ( #407, #547 ) ;
#597 = PERSON ( 'NAUO-PER23', 'UNSPECIFIED', 'UNSPECIFIED', ('UNSPECIFIED'), ('UNSPECIFIED'), ('UNSPECIFIED') ) ;
#598 = APPROVAL_STATUS ( 'not_yet_approved' ) ;
#599 = SHAPE_REPRESENTATION ( 'pixhawk5x-3D-simple.stp', ( #339, #435, #181, #565, #574, #530, #524 ), #82 ) ;
#600 = PERSON_AND_ORGANIZATION ( #479, #310 ) ;
#601 = OBJECT_ROLE ('mandatory',$ ) ;
#602 = MECHANICAL_CONTEXT ( 'NONE', #213, 'mechanical' ) ;
#603 = CARTESIAN_POINT ( 'NONE',  ( 0.000000000000000000, 0.000000000000000000, 0.000000000000000000 ) ) ;
#604 = SECURITY_CLASSIFICATION ( '', '', #364 ) ;
#605 = NEXT_ASSEMBLY_USAGE_OCCURRENCE ( 'NAUO21', ' ', ' ', #144, #455, $ ) ;
#606 = NEXT_ASSEMBLY_USAGE_OCCURRENCE ( 'NAUO22', ' ', ' ', #144, #220, $ ) ;
#607 = NEXT_ASSEMBLY_USAGE_OCCURRENCE ( 'NAUO23', ' ', ' ', #144, #159, $ ) ;
#608 = NEXT_ASSEMBLY_USAGE_OCCURRENCE ( 'NAUO24', ' ', ' ', #144, #159, $ ) ;
#609 = NEXT_ASSEMBLY_USAGE_OCCURRENCE ( 'NAUO25', ' ', ' ', #144, #159, $ ) ;
#610 = NEXT_ASSEMBLY_USAGE_OCCURRENCE ( 'NAUO26', ' ', ' ', #144, #159, $ ) ;
ENDSEC;
END-ISO-10303-21;
