ISO-10303-21;
HEADER;
FILE_DESCRIPTION (( 'STEP AP203' ),
    '1' );
FILE_NAME ('Pixhawk6xMini.STEP',
    '2026-06-22T08:49:50',
    ( 'localuser' ),
    ( '' ),
    'SwSTEP 2.0',
    'SolidWorks 2025',
    '' );
FILE_SCHEMA (( 'CONFIG_CONTROL_DESIGN' ));
ENDSEC;

DATA;
#1 = APPROVAL_STATUS ( 'not_yet_approved' ) ;
#2 = PERSON_AND_ORGANIZATION ( #279, #227 ) ;
#3 = CARTESIAN_POINT ( 'NONE',  ( 0.000000000000000000, 0.000000000000000000, 0.000000000000000000 ) ) ;
#4 = APPLICATION_CONTEXT ( 'configuration controlled 3d designs of mechanical parts and assemblies' ) ;
#5 = CC_DESIGN_SECURITY_CLASSIFICATION ( #206, ( #344 ) ) ;
#6 = COORDINATED_UNIVERSAL_TIME_OFFSET ( 10, 0, .AHEAD. ) ;
#7 =( NAMED_UNIT ( * ) PLANE_ANGLE_UNIT ( ) SI_UNIT ( $, .RADIAN. ) );
#8 = CARTESIAN_POINT ( 'NONE',  ( 0.000000000000000000, 0.000000000000000000, 0.000000000000000000 ) ) ;
#9 = CC_DESIGN_PERSON_AND_ORGANIZATION_ASSIGNMENT ( #288, #52, ( #18 ) ) ;
#10 =( NAMED_UNIT ( * ) SI_UNIT ( $, .STERADIAN. ) SOLID_ANGLE_UNIT ( ) );
#11 =( GEOMETRIC_REPRESENTATION_CONTEXT ( 3 ) GLOBAL_UNCERTAINTY_ASSIGNED_CONTEXT ( ( #274 ) ) GLOBAL_UNIT_ASSIGNED_CONTEXT ( ( #119, #7, #165 ) ) REPRESENTATION_CONTEXT ( 'NONE', 'WORKASPACE' ) );
#12 = DOCUMENT_TYPE ( 'geometry' ) ;
#13 = APPROVAL_PERSON_ORGANIZATION ( #315, #335, #47 ) ;
#14 = DATE_AND_TIME ( #145, #162 ) ;
#15 = APPROVAL_STATUS ( 'not_yet_approved' ) ;
#16 = COORDINATED_UNIVERSAL_TIME_OFFSET ( 10, 0, .AHEAD. ) ;
#17 = CC_DESIGN_PERSON_AND_ORGANIZATION_ASSIGNMENT ( #99, #66, ( #333 ) ) ;
#18 = PRODUCT ( 'Pixhawk-Basemini-3D-simple.stp', 'Pixhawk-Basemini-3D-simple.stp', '', ( #108 ) ) ;
#19 = COORDINATED_UNIVERSAL_TIME_OFFSET ( 10, 0, .AHEAD. ) ;
#20 = APPLICATION_CONTEXT ( 'configuration controlled 3d designs of mechanical parts and assemblies' ) ;
#21 = PERSON_AND_ORGANIZATION_ROLE ( 'design_owner' ) ;
#22 = COORDINATED_UNIVERSAL_TIME_OFFSET ( 10, 0, .AHEAD. ) ;
#23 = DATE_AND_TIME ( #260, #302 ) ;
#24 = CC_DESIGN_APPROVAL ( #308, ( #186 ) ) ;
#25 = PERSON_AND_ORGANIZATION_ROLE ( 'creator' ) ;
#26 = PERSON_AND_ORGANIZATION_ROLE ( 'creator' ) ;
#27 = APPROVAL_ROLE ( '' ) ;
#28 = AXIS2_PLACEMENT_3D ( 'NONE', #8, #249, #223 ) ;
#29 = CC_DESIGN_SECURITY_CLASSIFICATION ( #333, ( #77 ) ) ;
#30 = SECURITY_CLASSIFICATION ( '', '', #86 ) ;
#31 = COORDINATED_UNIVERSAL_TIME_OFFSET ( 10, 0, .AHEAD. ) ;
#32 =( LENGTH_UNIT ( ) NAMED_UNIT ( * ) SI_UNIT ( .MILLI., .METRE. ) );
#33 = COORDINATED_UNIVERSAL_TIME_OFFSET ( 10, 0, .AHEAD. ) ;
#34 = APPROVAL_STATUS ( 'not_yet_approved' ) ;
#35 = PERSON_AND_ORGANIZATION ( #18446744073709551615, #18446744073709551615 ) ;
#36 = PERSON_AND_ORGANIZATION ( #18446744073709551615, #18446744073709551615 ) ;
#37 = COORDINATED_UNIVERSAL_TIME_OFFSET ( 10, 0, .AHEAD. ) ;
#38 = DOCUMENT_TYPE ( 'geometry' ) ;
#39 = PROPERTY_DEFINITION ('document property','', #170 ) ;
#40 = CC_DESIGN_PERSON_AND_ORGANIZATION_ASSIGNMENT ( #137, #240, ( #186 ) ) ;
#41 = CALENDAR_DATE ( 2026, 22, 6 ) ;
#42 = DATE_AND_TIME ( #281, #307 ) ;
#43 = PRODUCT_DEFINITION_SHAPE ( 'NONE', 'NONE',  #70 ) ;
#44 = CC_DESIGN_APPROVAL ( #81, ( #46 ) ) ;
#45 = APPROVAL_DATE_TIME ( #148, #88 ) ;
#46 = PRODUCT_DEFINITION ( 'General', '', #186, #293 ) ;
#47 = APPROVAL_ROLE ( '' ) ;
#48 = UNCERTAINTY_MEASURE_WITH_UNIT (LENGTH_MEASURE( 1.000000000000000082E-05 ), #32, 'distance_accuracy_value', 'NONE');
#49 = DATE_TIME_ROLE ( 'creation_date' ) ;
#50 = DATE_TIME_ROLE ( 'classification_date' ) ;
#51 = APPLIED_EXTERNAL_IDENTIFICATION_ASSIGNMENT ( 'pixhawk5x-3D-simple.stp.STEP' , #205, #246,( #300) ) ;
#52 = PERSON_AND_ORGANIZATION_ROLE ( 'design_owner' ) ;
#53 = CC_DESIGN_PERSON_AND_ORGANIZATION_ASSIGNMENT ( #187, #26, ( #121 ) ) ;
#54 = COORDINATED_UNIVERSAL_TIME_OFFSET ( 10, 0, .AHEAD. ) ;
#55 = PERSON_AND_ORGANIZATION_ROLE ( 'classification_officer' ) ;
#56 = AXIS2_PLACEMENT_3D ( 'NONE', #59, #327, #270 ) ;
#57 = CC_DESIGN_SECURITY_CLASSIFICATION ( #195, ( #186 ) ) ;
#58 = CALENDAR_DATE ( 2026, 22, 6 ) ;
#59 = CARTESIAN_POINT ( 'NONE',  ( -7.751648812788711318, 1.792655690262046075, 2.617102529693194235 ) ) ;
#60 = CONTEXT_DEPENDENT_SHAPE_REPRESENTATION ( #68, #98 ) ;
#61 = DATE_TIME_ROLE ( 'classification_date' ) ;
#62 = DIRECTION ( 'NONE',  ( 0.000000000000000000, 0.000000000000000000, 1.000000000000000000 ) ) ;
#63 = APPROVAL_ROLE ( '' ) ;
#64 = OBJECT_ROLE ('mandatory',$ ) ;
#65 = DATE_AND_TIME ( #181, #200 ) ;
#66 = PERSON_AND_ORGANIZATION_ROLE ( 'classification_officer' ) ;
#67 = DATE_TIME_ROLE ( 'creation_date' ) ;
#68 =( REPRESENTATION_RELATIONSHIP ('NONE','NONE', #182, #153 ) REPRESENTATION_RELATIONSHIP_WITH_TRANSFORMATION ( #114 )SHAPE_REPRESENTATION_RELATIONSHIP( ) );
#69 = APPROVAL_DATE_TIME ( #42, #117 ) ;
#70 = PRODUCT_DEFINITION ( 'General', '', #77, #79 ) ;
#71 = CC_DESIGN_APPROVAL ( #88, ( #333 ) ) ;
#72 = LOCAL_TIME ( 18, 49, 50.00000000000000000, #136 ) ;
#73 = CALENDAR_DATE ( 2026, 22, 6 ) ;
#74 = APPROVAL_STATUS ( 'not_yet_approved' ) ;
#75 = APPROVAL_DATE_TIME ( #242, #335 ) ;
#76 = APPROVAL ( #1, 'UNKNOWN' ) ;
#77 = PRODUCT_DEFINITION_FORMATION_WITH_SPECIFIED_SOURCE ( 'Symmetric', '', #311, .NOT_KNOWN. ) ;
#78 = CALENDAR_DATE ( 2026, 22, 6 ) ;
#79 = DESIGN_CONTEXT ( 'detailed design', #174, 'design' ) ;
#80 = PERSON_AND_ORGANIZATION_ROLE ( 'creator' ) ;
#81 = APPROVAL ( #276, 'Coincident' ) ;
#82 = PERSON ( 'NAUO-PER27', 'UNSPECIFIED', 'UNSPECIFIED', ('UNSPECIFIED'), ('UNSPECIFIED'), ('UNSPECIFIED') ) ;
#83 = APPROVAL_DATE_TIME ( #220, #76 ) ;
#84 = LOCAL_TIME ( 18, 49, 50.00000000000000000, #334 ) ;
#85 = CC_DESIGN_APPROVAL ( #263, ( #121 ) ) ;
#86 = SECURITY_CLASSIFICATION_LEVEL ( 'unclassified' ) ;
#87 = DATE_TIME_ROLE ( 'classification_date' ) ;
#88 = APPROVAL ( #285, 'Coincident' ) ;
#89 = DIRECTION ( 'NONE',  ( -1.097628715706438601E-28, 0.000000000000000000, 0.9999999999999998890 ) ) ;
#90 = LOCAL_TIME ( 18, 49, 50.00000000000000000, #259 ) ;
#91 = PERSON_AND_ORGANIZATION_ROLE ( 'design_owner' ) ;
#92 = CALENDAR_DATE ( 2026, 22, 6 ) ;
#93 = CC_DESIGN_PERSON_AND_ORGANIZATION_ASSIGNMENT ( #295, #317, ( #329 ) ) ;
#94 = APPROVAL_ROLE ( '' ) ;
#95 = PRODUCT ( 'pixhawk5x-3D-simple.stp', 'pixhawk5x-3D-simple.stp', '', ( #258 ) ) ;
#96 = PERSON_AND_ORGANIZATION ( #18446744073709551615, #18446744073709551615 ) ;
#97 = PRODUCT_RELATED_PRODUCT_CATEGORY ( 'detail', '', ( #18 ) ) ;
#98 = PRODUCT_DEFINITION_SHAPE ( 'NONE', 'NONE',  #345 ) ;
#99 = PERSON_AND_ORGANIZATION ( #18446744073709551615, #18446744073709551615 ) ;
#100 = PERSON_AND_ORGANIZATION ( #18446744073709551615, #18446744073709551615 ) ;
#101 = LOCAL_TIME ( 18, 49, 50.00000000000000000, #306 ) ;
#102 = APPROVAL_PERSON_ORGANIZATION ( #103, #330, #189 ) ;
#103 = PERSON_AND_ORGANIZATION ( #18446744073709551615, #18446744073709551615 ) ;
#104 = DATE_TIME_ROLE ( 'classification_date' ) ;
#105 = CC_DESIGN_PERSON_AND_ORGANIZATION_ASSIGNMENT ( #231, #146, ( #77 ) ) ;
#106 = PERSON_AND_ORGANIZATION_ROLE ( 'classification_officer' ) ;
#107 = AXIS2_PLACEMENT_3D ( 'NONE', #3, #228, #268 ) ;
#108 = MECHANICAL_CONTEXT ( 'NONE', #338, 'mechanical' ) ;
#109 = LOCAL_TIME ( 18, 49, 50.00000000000000000, #208 ) ;
#110 = CC_DESIGN_PERSON_AND_ORGANIZATION_ASSIGNMENT ( #221, #219, ( #206 ) ) ;
#111 = SECURITY_CLASSIFICATION_LEVEL ( 'unclassified' ) ;
#112 = ROLE_ASSOCIATION ( #64, #143 ) ;
#113 = APPLICATION_PROTOCOL_DEFINITION ( 'international standard', 'config_control_design', 1994, #174 ) ;
#114 = ITEM_DEFINED_TRANSFORMATION ( 'NONE', 'NONE', #290,  #28 ) ;
#115 =( GEOMETRIC_REPRESENTATION_CONTEXT ( 3 ) GLOBAL_UNCERTAINTY_ASSIGNED_CONTEXT ( ( #169 ) ) GLOBAL_UNIT_ASSIGNED_CONTEXT ( ( #144, #225, #10 ) ) REPRESENTATION_CONTEXT ( 'NONE', 'WORKASPACE' ) );
#116 = CC_DESIGN_SECURITY_CLASSIFICATION ( #138, ( #329 ) ) ;
#117 = APPROVAL ( #15, 'Coincident' ) ;
#118 = PROPERTY_DEFINITION_REPRESENTATION ( #179, #178 ) ;
#119 =( LENGTH_UNIT ( ) NAMED_UNIT ( * ) SI_UNIT ( .MILLI., .METRE. ) );
#120 = ORGANIZATION ( 'NAUO-ORG27', 'UNSPECIFIED', 'UNSPECIFIED' ) ;
#121 = PRODUCT_DEFINITION ( 'General', '', #329, #319 ) ;
#122 = APPROVAL_STATUS ( 'not_yet_approved' ) ;
#123 = APPLICATION_PROTOCOL_DEFINITION ( 'international standard', 'config_control_design', 1994, #194 ) ;
#124 = SHAPE_DEFINITION_REPRESENTATION ( #43, #182 ) ;
#125 = PRODUCT_DEFINITION_SHAPE ( 'NONE', 'NONE',  #344 ) ;
#126 = APPROVAL_PERSON_ORGANIZATION ( #221, #76, #168 ) ;
#127 = APPROVAL_STATUS ( 'not_yet_approved' ) ;
#128 = DATE_AND_TIME ( #310, #109 ) ;
#129 = PERSON_AND_ORGANIZATION_ROLE ( 'classification_officer' ) ;
#130 = LOCAL_TIME ( 18, 49, 50.00000000000000000, #140 ) ;
#131 = APPROVAL_DATE_TIME ( #23, #330 ) ;
#132 = CALENDAR_DATE ( 2026, 22, 6 ) ;
#133 = DATE_AND_TIME ( #78, #286 ) ;
#134 = CC_DESIGN_PERSON_AND_ORGANIZATION_ASSIGNMENT ( #100, #129, ( #138 ) ) ;
#135 = LOCAL_TIME ( 18, 49, 50.00000000000000000, #37 ) ;
#136 = COORDINATED_UNIVERSAL_TIME_OFFSET ( 10, 0, .AHEAD. ) ;
#137 = PERSON_AND_ORGANIZATION ( #18446744073709551615, #18446744073709551615 ) ;
#138 = SECURITY_CLASSIFICATION ( '', '', #318 ) ;
#139 = DATE_AND_TIME ( #273, #212 ) ;
#140 = COORDINATED_UNIVERSAL_TIME_OFFSET ( 10, 0, .AHEAD. ) ;
#141 = APPROVAL_PERSON_ORGANIZATION ( #257, #81, #94 ) ;
#142 = CC_DESIGN_DATE_AND_TIME_ASSIGNMENT ( #254, #152, ( #333 ) ) ;
#143 = APPLIED_DOCUMENT_REFERENCE ( #300,'',( #46) ) ;
#144 =( LENGTH_UNIT ( ) NAMED_UNIT ( * ) SI_UNIT ( .MILLI., .METRE. ) );
#145 = CALENDAR_DATE ( 2026, 22, 6 ) ;
#146 = PERSON_AND_ORGANIZATION_ROLE ( 'design_supplier' ) ;
#147 = PERSON_AND_ORGANIZATION_ROLE ( 'creator' ) ;
#148 = DATE_AND_TIME ( #41, #176 ) ;
#149 = PROPERTY_DEFINITION ('document property','', #300 ) ;
#150 = CC_DESIGN_PERSON_AND_ORGANIZATION_ASSIGNMENT ( #2, #55, ( #30 ) ) ;
#151 = LOCAL_TIME ( 18, 49, 50.00000000000000000, #211 ) ;
#152 = DATE_TIME_ROLE ( 'classification_date' ) ;
#153 = SHAPE_REPRESENTATION ( 'pixhawk5x-3D-simple.stp', ( #28 ), #11 ) ;
#154 = SHAPE_DEFINITION_REPRESENTATION ( #232, #153 ) ;
#155 = APPROVAL ( #159, 'Coincident' ) ;
#156 = COORDINATED_UNIVERSAL_TIME_OFFSET ( 10, 0, .AHEAD. ) ;
#157 = LOCAL_TIME ( 18, 49, 50.00000000000000000, #31 ) ;
#158 = APPROVAL_DATE_TIME ( #218, #155 ) ;
#159 = APPROVAL_STATUS ( 'not_yet_approved' ) ;
#160 = APPROVAL ( #122, 'Coincident' ) ;
#161 = PERSON_AND_ORGANIZATION ( #18446744073709551615, #18446744073709551615 ) ;
#162 = LOCAL_TIME ( 18, 49, 50.00000000000000000, #19 ) ;
#163 =( NAMED_UNIT ( * ) PLANE_ANGLE_UNIT ( ) SI_UNIT ( $, .RADIAN. ) );
#164 = CALENDAR_DATE ( 2026, 22, 6 ) ;
#165 =( NAMED_UNIT ( * ) SI_UNIT ( $, .STERADIAN. ) SOLID_ANGLE_UNIT ( ) );
#166 = APPLICATION_CONTEXT ( 'configuration controlled 3d designs of mechanical parts and assemblies' ) ;
#167 = CC_DESIGN_PERSON_AND_ORGANIZATION_ASSIGNMENT ( #201, #21, ( #95 ) ) ;
#168 = APPROVAL_ROLE ( '' ) ;
#169 = UNCERTAINTY_MEASURE_WITH_UNIT (LENGTH_MEASURE( 1.000000000000000082E-05 ), #144, 'distance_accuracy_value', 'NONE');
#170 = DOCUMENT_FILE ( 'Pixhawk-Basemini-3D-simple.stp.STEP' , '', '', #38, '' ,$ ) ;
#171 = CONTEXT_DEPENDENT_SHAPE_REPRESENTATION ( #294, #125 ) ;
#172 = DIRECTION ( 'NONE',  ( 1.000000000000000000, 0.000000000000000000, 0.000000000000000000 ) ) ;
#173 = APPROVAL_DATE_TIME ( #128, #81 ) ;
#174 = APPLICATION_CONTEXT ( 'configuration controlled 3d designs of mechanical parts and assemblies' ) ;
#175 = SECURITY_CLASSIFICATION_LEVEL ( 'unclassified' ) ;
#176 = LOCAL_TIME ( 18, 49, 50.00000000000000000, #177 ) ;
#177 = COORDINATED_UNIVERSAL_TIME_OFFSET ( 10, 0, .AHEAD. ) ;
#178 = SHAPE_REPRESENTATION ( 'Pixhawk-Basemini-3D-simple.stp', ( #107 ), #115 ) ;
#179 = PROPERTY_DEFINITION ('external definition','', #170 ) ;
#180 = CC_DESIGN_PERSON_AND_ORGANIZATION_ASSIGNMENT ( #229, #336, ( #77 ) ) ;
#181 = CALENDAR_DATE ( 2026, 22, 6 ) ;
#182 = SHAPE_REPRESENTATION ( 'Pixhawk6xMini', ( #204, #56, #290 ), #251 ) ;
#183 = PERSON_AND_ORGANIZATION ( #18446744073709551615, #18446744073709551615 ) ;
#184 = CC_DESIGN_APPROVAL ( #117, ( #77 ) ) ;
#185 = CC_DESIGN_SECURITY_CLASSIFICATION ( #30, ( #345 ) ) ;
#186 = PRODUCT_DEFINITION_FORMATION_WITH_SPECIFIED_SOURCE ( 'Symmetric', '', #95, .NOT_KNOWN. ) ;
#187 = PERSON_AND_ORGANIZATION ( #18446744073709551615, #18446744073709551615 ) ;
#188 = CC_DESIGN_PERSON_AND_ORGANIZATION_ASSIGNMENT ( #183, #147, ( #70 ) ) ;
#189 = APPROVAL_ROLE ( '' ) ;
#190 = APPROVAL_STATUS ( 'not_yet_approved' ) ;
#191 = APPROVAL_PERSON_ORGANIZATION ( #96, #160, #236 ) ;
#192 = PERSON_AND_ORGANIZATION ( #18446744073709551615, #18446744073709551615 ) ;
#193 = APPLICATION_PROTOCOL_DEFINITION ( 'international standard', 'config_control_design', 1994, #166 ) ;
#194 = APPLICATION_CONTEXT ( 'configuration controlled 3d designs of mechanical parts and assemblies' ) ;
#195 = SECURITY_CLASSIFICATION ( '', '', #289 ) ;
#196 = PROPERTY_DEFINITION_REPRESENTATION ( #256, #153 ) ;
#197 = PROPERTY_DEFINITION_REPRESENTATION ( #39, #178 ) ;
#198 =( NAMED_UNIT ( * ) SI_UNIT ( $, .STERADIAN. ) SOLID_ANGLE_UNIT ( ) );
#199 = CC_DESIGN_PERSON_AND_ORGANIZATION_ASSIGNMENT ( #35, #91, ( #311 ) ) ;
#200 = LOCAL_TIME ( 18, 49, 50.00000000000000000, #309 ) ;
#201 = PERSON_AND_ORGANIZATION ( #18446744073709551615, #18446744073709551615 ) ;
#202 = APPROVAL_ROLE ( '' ) ;
#203 = PERSON_AND_ORGANIZATION_ROLE ( 'creator' ) ;
#204 = AXIS2_PLACEMENT_3D ( 'NONE', #272, #62, #172 ) ;
#205 = IDENTIFICATION_ROLE ( 'external document id and location', $) ;
#206 = SECURITY_CLASSIFICATION ( '', '', #111 ) ;
#207 = CC_DESIGN_DATE_AND_TIME_ASSIGNMENT ( #133, #49, ( #121 ) ) ;
#208 = COORDINATED_UNIVERSAL_TIME_OFFSET ( 10, 0, .AHEAD. ) ;
#209 = PRODUCT_DEFINITION_SHAPE ( 'NONE', 'NONE',  #121 ) ;
#210 = APPROVAL_DATE_TIME ( #234, #160 ) ;
#211 = COORDINATED_UNIVERSAL_TIME_OFFSET ( 10, 0, .AHEAD. ) ;
#212 = LOCAL_TIME ( 18, 49, 50.00000000000000000, #33 ) ;
#213 = APPROVAL_ROLE ( '' ) ;
#214 = DATE_AND_TIME ( #292, #72 ) ;
#215 = PERSON_AND_ORGANIZATION ( #18446744073709551615, #18446744073709551615 ) ;
#216 = APPROVAL_PERSON_ORGANIZATION ( #331, #308, #202 ) ;
#217 = PRODUCT_RELATED_PRODUCT_CATEGORY ( 'detail', '', ( #95 ) ) ;
#218 = DATE_AND_TIME ( #73, #90 ) ;
#219 = PERSON_AND_ORGANIZATION_ROLE ( 'classification_officer' ) ;
#220 = DATE_AND_TIME ( #58, #266 ) ;
#221 = PERSON_AND_ORGANIZATION ( #82, #120 ) ;
#222 = APPLIED_DOCUMENT_REFERENCE ( #170,'',( #121) ) ;
#223 = DIRECTION ( 'NONE',  ( 1.000000000000000000, 0.000000000000000000, 0.000000000000000000 ) ) ;
#224 = CC_DESIGN_DATE_AND_TIME_ASSIGNMENT ( #14, #67, ( #46 ) ) ;
#225 =( NAMED_UNIT ( * ) PLANE_ANGLE_UNIT ( ) SI_UNIT ( $, .RADIAN. ) );
#226 = APPROVAL_PERSON_ORGANIZATION ( #253, #88, #282 ) ;
#227 = ORGANIZATION ( 'NAUO-ORG28', 'UNSPECIFIED', 'UNSPECIFIED' ) ;
#228 = DIRECTION ( 'NONE',  ( 0.000000000000000000, 0.000000000000000000, 1.000000000000000000 ) ) ;
#229 = PERSON_AND_ORGANIZATION ( #18446744073709551615, #18446744073709551615 ) ;
#230 = OBJECT_ROLE ('mandatory',$ ) ;
#231 = PERSON_AND_ORGANIZATION ( #18446744073709551615, #18446744073709551615 ) ;
#232 = PRODUCT_DEFINITION_SHAPE ( 'NONE', 'NONE',  #46 ) ;
#233 = DATE_TIME_ROLE ( 'creation_date' ) ;
#234 = DATE_AND_TIME ( #92, #135 ) ;
#235 = CC_DESIGN_DATE_AND_TIME_ASSIGNMENT ( #139, #87, ( #30 ) ) ;
#236 = APPROVAL_ROLE ( '' ) ;
#237 = CALENDAR_DATE ( 2026, 22, 6 ) ;
#238 = APPROVAL_PERSON_ORGANIZATION ( #161, #155, #27 ) ;
#239 = SHAPE_DEFINITION_REPRESENTATION ( #209, #178 ) ;
#240 = PERSON_AND_ORGANIZATION_ROLE ( 'design_supplier' ) ;
#241 = CC_DESIGN_DATE_AND_TIME_ASSIGNMENT ( #214, #50, ( #195 ) ) ;
#242 = DATE_AND_TIME ( #265, #243 ) ;
#243 = LOCAL_TIME ( 18, 49, 50.00000000000000000, #54 ) ;
#244 = APPROVAL_STATUS ( 'not_yet_approved' ) ;
#245 = APPROVAL_ROLE ( '' ) ;
#246 = EXTERNAL_SOURCE (IDENTIFIER('') ) ;
#247 = CC_DESIGN_APPROVAL ( #160, ( #70 ) ) ;
#248 = CC_DESIGN_APPROVAL ( #267, ( #30 ) ) ;
#249 = DIRECTION ( 'NONE',  ( 0.000000000000000000, 0.000000000000000000, 1.000000000000000000 ) ) ;
#250 = MECHANICAL_CONTEXT ( 'NONE', #20, 'mechanical' ) ;
#251 =( GEOMETRIC_REPRESENTATION_CONTEXT ( 3 ) GLOBAL_UNCERTAINTY_ASSIGNED_CONTEXT ( ( #48 ) ) GLOBAL_UNIT_ASSIGNED_CONTEXT ( ( #32, #163, #198 ) ) REPRESENTATION_CONTEXT ( 'NONE', 'WORKASPACE' ) );
#252 = CC_DESIGN_APPROVAL ( #76, ( #206 ) ) ;
#253 = PERSON_AND_ORGANIZATION ( #18446744073709551615, #18446744073709551615 ) ;
#254 = DATE_AND_TIME ( #337, #84 ) ;
#255 = PERSON_AND_ORGANIZATION ( #18446744073709551615, #18446744073709551615 ) ;
#256 = PROPERTY_DEFINITION ('external definition','', #300 ) ;
#257 = PERSON_AND_ORGANIZATION ( #18446744073709551615, #18446744073709551615 ) ;
#258 = MECHANICAL_CONTEXT ( 'NONE', #194, 'mechanical' ) ;
#259 = COORDINATED_UNIVERSAL_TIME_OFFSET ( 10, 0, .AHEAD. ) ;
#260 = CALENDAR_DATE ( 2026, 22, 6 ) ;
#261 = CC_DESIGN_APPROVAL ( #155, ( #195 ) ) ;
#262 = APPLICATION_PROTOCOL_DEFINITION ( 'international standard', 'config_control_design', 1994, #338 ) ;
#263 = APPROVAL ( #244, 'Coincident' ) ;
#264 = APPROVAL_DATE_TIME ( #313, #263 ) ;
#265 = CALENDAR_DATE ( 2026, 22, 6 ) ;
#266 = LOCAL_TIME ( 18, 49, 50.00000000000000000, #6 ) ;
#267 = APPROVAL ( #34, 'UNKNOWN' ) ;
#268 = DIRECTION ( 'NONE',  ( 1.000000000000000000, 0.000000000000000000, 0.000000000000000000 ) ) ;
#269 = APPROVAL_DATE_TIME ( #271, #267 ) ;
#270 = DIRECTION ( 'NONE',  ( 1.000000000000000000, -7.888609052210118054E-30, 8.673617378792187268E-19 ) ) ;
#271 = DATE_AND_TIME ( #325, #157 ) ;
#272 = CARTESIAN_POINT ( 'NONE',  ( 0.000000000000000000, 0.000000000000000000, 0.000000000000000000 ) ) ;
#273 = CALENDAR_DATE ( 2026, 22, 6 ) ;
#274 = UNCERTAINTY_MEASURE_WITH_UNIT (LENGTH_MEASURE( 1.000000000000000082E-05 ), #119, 'distance_accuracy_value', 'NONE');
#275 = CC_DESIGN_PERSON_AND_ORGANIZATION_ASSIGNMENT ( #36, #203, ( #46 ) ) ;
#276 = APPROVAL_STATUS ( 'not_yet_approved' ) ;
#277 = CC_DESIGN_PERSON_AND_ORGANIZATION_ASSIGNMENT ( #287, #80, ( #186 ) ) ;
#278 = EXTERNAL_SOURCE (IDENTIFIER('') ) ;
#279 = PERSON ( 'NAUO-PER28', 'UNSPECIFIED', 'UNSPECIFIED', ('UNSPECIFIED'), ('UNSPECIFIED'), ('UNSPECIFIED') ) ;
#280 = APPLIED_EXTERNAL_IDENTIFICATION_ASSIGNMENT ( 'Pixhawk-Basemini-3D-simple.stp.STEP' , #291, #278,( #170) ) ;
#281 = CALENDAR_DATE ( 2026, 22, 6 ) ;
#282 = APPROVAL_ROLE ( '' ) ;
#283 = APPROVAL_DATE_TIME ( #65, #308 ) ;
#284 = CC_DESIGN_DATE_AND_TIME_ASSIGNMENT ( #312, #233, ( #70 ) ) ;
#285 = APPROVAL_STATUS ( 'not_yet_approved' ) ;
#286 = LOCAL_TIME ( 18, 49, 50.00000000000000000, #342 ) ;
#287 = PERSON_AND_ORGANIZATION ( #18446744073709551615, #18446744073709551615 ) ;
#288 = PERSON_AND_ORGANIZATION ( #18446744073709551615, #18446744073709551615 ) ;
#289 = SECURITY_CLASSIFICATION_LEVEL ( 'unclassified' ) ;
#290 = AXIS2_PLACEMENT_3D ( 'NONE', #297, #89, #303 ) ;
#291 = IDENTIFICATION_ROLE ( 'external document id and location', $) ;
#292 = CALENDAR_DATE ( 2026, 22, 6 ) ;
#293 = DESIGN_CONTEXT ( 'detailed design', #4, 'design' ) ;
#294 =( REPRESENTATION_RELATIONSHIP ('NONE','NONE', #182, #178 ) REPRESENTATION_RELATIONSHIP_WITH_TRANSFORMATION ( #341 )SHAPE_REPRESENTATION_RELATIONSHIP( ) );
#295 = PERSON_AND_ORGANIZATION ( #18446744073709551615, #18446744073709551615 ) ;
#296 = CC_DESIGN_DATE_AND_TIME_ASSIGNMENT ( #339, #104, ( #138 ) ) ;
#297 = CARTESIAN_POINT ( 'NONE',  ( -9.051648812788720022, 5.642655690262048829, 2.617102529693190238 ) ) ;
#298 = CC_DESIGN_APPROVAL ( #335, ( #329 ) ) ;
#299 = PROPERTY_DEFINITION_REPRESENTATION ( #149, #153 ) ;
#300 = DOCUMENT_FILE ( 'pixhawk5x-3D-simple.stp.STEP' , '', '', #12, '' ,$ ) ;
#301 = CC_DESIGN_DATE_AND_TIME_ASSIGNMENT ( #321, #61, ( #206 ) ) ;
#302 = LOCAL_TIME ( 18, 49, 50.00000000000000000, #156 ) ;
#303 = DIRECTION ( 'NONE',  ( -1.000000000000000000, 7.888609052210118054E-30, -8.673617378792187268E-19 ) ) ;
#304 = CALENDAR_DATE ( 2026, 22, 6 ) ;
#305 = CC_DESIGN_PERSON_AND_ORGANIZATION_ASSIGNMENT ( #215, #25, ( #329 ) ) ;
#306 = COORDINATED_UNIVERSAL_TIME_OFFSET ( 10, 0, .AHEAD. ) ;
#307 = LOCAL_TIME ( 18, 49, 50.00000000000000000, #16 ) ;
#308 = APPROVAL ( #127, 'Coincident' ) ;
#309 = COORDINATED_UNIVERSAL_TIME_OFFSET ( 10, 0, .AHEAD. ) ;
#310 = CALENDAR_DATE ( 2026, 22, 6 ) ;
#311 = PRODUCT ( 'Pixhawk6xMini', 'Pixhawk6xMini', '', ( #250 ) ) ;
#312 = DATE_AND_TIME ( #304, #101 ) ;
#313 = DATE_AND_TIME ( #132, #151 ) ;
#314 = APPROVAL_PERSON_ORGANIZATION ( #2, #267, #245 ) ;
#315 = PERSON_AND_ORGANIZATION ( #18446744073709551615, #18446744073709551615 ) ;
#316 = PERSON_AND_ORGANIZATION ( #18446744073709551615, #18446744073709551615 ) ;
#317 = PERSON_AND_ORGANIZATION_ROLE ( 'design_supplier' ) ;
#318 = SECURITY_CLASSIFICATION_LEVEL ( 'unclassified' ) ;
#319 = DESIGN_CONTEXT ( 'detailed design', #166, 'design' ) ;
#320 = ROLE_ASSOCIATION ( #230, #222 ) ;
#321 = DATE_AND_TIME ( #164, #130 ) ;
#322 = APPROVAL_PERSON_ORGANIZATION ( #316, #263, #213 ) ;
#323 = LOCAL_TIME ( 18, 49, 50.00000000000000000, #22 ) ;
#324 = CC_DESIGN_PERSON_AND_ORGANIZATION_ASSIGNMENT ( #192, #106, ( #195 ) ) ;
#325 = CALENDAR_DATE ( 2026, 22, 6 ) ;
#326 = APPLICATION_PROTOCOL_DEFINITION ( 'international standard', 'config_control_design', 1994, #20 ) ;
#327 = DIRECTION ( 'NONE',  ( 8.673617378792187268E-19, -5.551115128246594382E-17, 0.9999999999999997780 ) ) ;
#328 = APPROVAL_PERSON_ORGANIZATION ( #255, #117, #63 ) ;
#329 = PRODUCT_DEFINITION_FORMATION_WITH_SPECIFIED_SOURCE ( 'Symmetric', '', #18, .NOT_KNOWN. ) ;
#330 = APPROVAL ( #74, 'Coincident' ) ;
#331 = PERSON_AND_ORGANIZATION ( #18446744073709551615, #18446744073709551615 ) ;
#332 = APPLICATION_PROTOCOL_DEFINITION ( 'international standard', 'config_control_design', 1994, #4 ) ;
#333 = SECURITY_CLASSIFICATION ( '', '', #175 ) ;
#334 = COORDINATED_UNIVERSAL_TIME_OFFSET ( 10, 0, .AHEAD. ) ;
#335 = APPROVAL ( #190, 'Coincident' ) ;
#336 = PERSON_AND_ORGANIZATION_ROLE ( 'creator' ) ;
#337 = CALENDAR_DATE ( 2026, 22, 6 ) ;
#338 = APPLICATION_CONTEXT ( 'configuration controlled 3d designs of mechanical parts and assemblies' ) ;
#339 = DATE_AND_TIME ( #237, #323 ) ;
#340 = PRODUCT_RELATED_PRODUCT_CATEGORY ( 'detail', '', ( #311 ) ) ;
#341 = ITEM_DEFINED_TRANSFORMATION ( 'NONE', 'NONE', #56,  #107 ) ;
#342 = COORDINATED_UNIVERSAL_TIME_OFFSET ( 10, 0, .AHEAD. ) ;
#343 = CC_DESIGN_APPROVAL ( #330, ( #138 ) ) ;
#344 = NEXT_ASSEMBLY_USAGE_OCCURRENCE ( 'NAUO27', ' ', ' ', #70, #121, $ ) ;
#345 = NEXT_ASSEMBLY_USAGE_OCCURRENCE ( 'NAUO28', ' ', ' ', #70, #46, $ ) ;
ENDSEC;
END-ISO-10303-21;
