ISO-10303-21;
HEADER;
FILE_DESCRIPTION (( 'STEP AP203' ),
    '1' );
FILE_NAME ('PowerMount3.STEP',
    '2026-06-22T08:50:19',
    ( 'localuser' ),
    ( '' ),
    'SwSTEP 2.0',
    'SolidWorks 2025',
    '' );
FILE_SCHEMA (( 'CONFIG_CONTROL_DESIGN' ));
ENDSEC;

DATA;
#1 = VECTOR ( 'NONE', #405, 1000.000000000000000 ) ;
#2 = VECTOR ( 'NONE', #465, 1000.000000000000000 ) ;
#3 = DIRECTION ( 'NONE',  ( 0.000000000000000000, -1.000000000000000000, 0.000000000000000000 ) ) ;
#4 = CARTESIAN_POINT ( 'NONE',  ( -0.000000000000000000, -23.99999999999999645, 0.000000000000000000 ) ) ;
#5 = VERTEX_POINT ( 'NONE', #245 ) ;
#6 = LINE ( 'NONE', #133, #287 ) ;
#7 = EDGE_LOOP ( 'NONE', ( #347, #401 ) ) ;
#8 = EDGE_CURVE ( 'NONE', #262, #351, #49, .T. ) ;
#9 = DIRECTION ( 'NONE',  ( 0.000000000000000000, 0.000000000000000000, 1.000000000000000000 ) ) ;
#10 = CC_DESIGN_APPROVAL ( #50, ( #273 ) ) ;
#11 = LINE ( 'NONE', #321, #1 ) ;
#12 = CARTESIAN_POINT ( 'NONE',  ( -20.00000000000000000, -1.000000000000006883, 30.00000000000000000 ) ) ;
#13 = ADVANCED_FACE ( 'NONE', ( #172 ), #134, .F. ) ;
#14 = DIRECTION ( 'NONE',  ( -1.000000000000000000, 0.000000000000000000, 0.000000000000000000 ) ) ;
#15 = ORIENTED_EDGE ( 'NONE', *, *, #460, .T. ) ;
#16 = EDGE_CURVE ( 'NONE', #452, #262, #11, .T. ) ;
#17 = DIRECTION ( 'NONE',  ( -0.000000000000000000, -1.000000000000000000, -0.000000000000000000 ) ) ;
#18 = ORIENTED_EDGE ( 'NONE', *, *, #163, .T. ) ;
#19 = CIRCLE ( 'NONE', #349, 1.600000000000002531 ) ;
#20 = DIRECTION ( 'NONE',  ( 0.000000000000000000, 0.000000000000000000, 1.000000000000000000 ) ) ;
#21 = CARTESIAN_POINT ( 'NONE',  ( 11.09998832825467296, -12.00000000000001066, 0.000000000000000000 ) ) ;
#22 = APPLICATION_CONTEXT ( 'configuration controlled 3d designs of mechanical parts and assemblies' ) ;
#23 = PERSON_AND_ORGANIZATION_ROLE ( 'creator' ) ;
#24 = CARTESIAN_POINT ( 'NONE',  ( 20.61529142568503659, -4.000000000000007105, 30.00000000000000000 ) ) ;
#25 = APPLICATION_PROTOCOL_DEFINITION ( 'international standard', 'config_control_design', 1994, #22 ) ;
#26 = EDGE_CURVE ( 'NONE', #5, #429, #38, .T. ) ;
#27 = CARTESIAN_POINT ( 'NONE',  ( 11.09998832825467296, -12.00000000000001066, 3.000000000000000000 ) ) ;
#28 = AXIS2_PLACEMENT_3D ( 'NONE', #459, #108, #259 ) ;
#29 = VERTEX_POINT ( 'NONE', #12 ) ;
#30 = DATE_AND_TIME ( #331, #264 ) ;
#31 = MANIFOLD_SOLID_BREP ( 'Cut-Extrude1', #185 ) ;
#32 = CARTESIAN_POINT ( 'NONE',  ( 9.499988328254671544, -12.00000000000001066, 3.000000000000000000 ) ) ;
#33 = VERTEX_POINT ( 'NONE', #447 ) ;
#34 = FACE_OUTER_BOUND ( 'NONE', #441, .T. ) ;
#35 = ADVANCED_FACE ( 'NONE', ( #97 ), #138, .F. ) ;
#36 = EDGE_LOOP ( 'NONE', ( #149, #189, #288, #131 ) ) ;
#37 = DIRECTION ( 'NONE',  ( -0.000000000000000000, 0.000000000000000000, 1.000000000000000000 ) ) ;
#38 = CIRCLE ( 'NONE', #348, 1.599999999999999867 ) ;
#39 = AXIS2_PLACEMENT_3D ( 'NONE', #200, #355, #472 ) ;
#40 = EDGE_LOOP ( 'NONE', ( #485, #368 ) ) ;
#41 = CARTESIAN_POINT ( 'NONE',  ( 7.899988328254668346, -12.00000000000001066, 0.000000000000000000 ) ) ;
#42 = ADVANCED_FACE ( 'NONE', ( #211 ), #222, .T. ) ;
#43 = CARTESIAN_POINT ( 'NONE',  ( 0.000000000000000000, -4.000000000000007105, 3.000000000000000000 ) ) ;
#44 = LINE ( 'NONE', #198, #440 ) ;
#45 = VECTOR ( 'NONE', #388, 1000.000000000000000 ) ;
#46 = LINE ( 'NONE', #510, #490 ) ;
#47 = ORIENTED_EDGE ( 'NONE', *, *, #398, .T. ) ;
#48 = CARTESIAN_POINT ( 'NONE',  ( 0.000000000000000000, -1.000000000000006883, 3.000000000000000000 ) ) ;
#49 = LINE ( 'NONE', #413, #337 ) ;
#50 = APPROVAL ( #139, 'Coincident' ) ;
#51 = CARTESIAN_POINT ( 'NONE',  ( 20.61529142568503659, 0.000000000000000000, 30.00000000000000000 ) ) ;
#52 = CARTESIAN_POINT ( 'NONE',  ( -5.500011671745328456, -11.99999999999999645, 3.000000000000000000 ) ) ;
#53 = CARTESIAN_POINT ( 'NONE',  ( -20.00000000000000000, -20.99999999999999645, 30.00000000000000000 ) ) ;
#54 = LOCAL_TIME ( 18, 50, 19.00000000000000000, #455 ) ;
#55 = DIRECTION ( 'NONE',  ( -1.000000000000000000, 0.000000000000000000, 0.000000000000000000 ) ) ;
#56 = PRODUCT ( 'PowerMount3', 'PowerMount3', '', ( #179 ) ) ;
#57 = CYLINDRICAL_SURFACE ( 'NONE', #507, 1.599999999999999867 ) ;
#58 = EDGE_CURVE ( 'NONE', #429, #332, #376, .T. ) ;
#59 = ORIENTED_EDGE ( 'NONE', *, *, #319, .F. ) ;
#60 = LINE ( 'NONE', #278, #393 ) ;
#61 = VERTEX_POINT ( 'NONE', #110 ) ;
#62 = ORIENTED_EDGE ( 'NONE', *, *, #260, .F. ) ;
#63 = CALENDAR_DATE ( 2026, 22, 6 ) ;
#64 = AXIS2_PLACEMENT_3D ( 'NONE', #512, #37, #310 ) ;
#65 = CYLINDRICAL_SURFACE ( 'NONE', #357, 1.600000000000002531 ) ;
#66 = DIRECTION ( 'NONE',  ( -0.000000000000000000, -0.000000000000000000, -1.000000000000000000 ) ) ;
#67 = EDGE_CURVE ( 'NONE', #359, #463, #473, .T. ) ;
#68 = DATE_AND_TIME ( #252, #145 ) ;
#69 = DIRECTION ( 'NONE',  ( -0.000000000000000000, 0.000000000000000000, 1.000000000000000000 ) ) ;
#70 = EDGE_CURVE ( 'NONE', #61, #332, #286, .T. ) ;
#71 = CARTESIAN_POINT ( 'NONE',  ( -5.500011671745328456, -11.99999999999999645, 0.000000000000000000 ) ) ;
#72 = AXIS2_PLACEMENT_3D ( 'NONE', #375, #20, #343 ) ;
#73 = VERTEX_POINT ( 'NONE', #21 ) ;
#74 = LINE ( 'NONE', #504, #45 ) ;
#75 = EDGE_CURVE ( 'NONE', #429, #5, #121, .T. ) ;
#76 = ORIENTED_EDGE ( 'NONE', *, *, #70, .F. ) ;
#77 = DIRECTION ( 'NONE',  ( -1.000000000000000000, 0.000000000000000000, 0.000000000000000000 ) ) ;
#78 = ORIENTED_EDGE ( 'NONE', *, *, #486, .F. ) ;
#79 = CARTESIAN_POINT ( 'NONE',  ( 20.61529142568504014, -1.000000000000006883, 0.000000000000000000 ) ) ;
#80 = SECURITY_CLASSIFICATION ( '', '', #221 ) ;
#81 = DIRECTION ( 'NONE',  ( 1.000000000000000000, 0.000000000000000000, 0.000000000000000000 ) ) ;
#82 = ADVANCED_FACE ( 'NONE', ( #340 ), #379, .F. ) ;
#83 = LINE ( 'NONE', #271, #482 ) ;
#84 = DIRECTION ( 'NONE',  ( -0.000000000000000000, -0.000000000000000000, -1.000000000000000000 ) ) ;
#85 = ORIENTED_EDGE ( 'NONE', *, *, #299, .F. ) ;
#86 = APPROVAL_PERSON_ORGANIZATION ( #107, #143, #419 ) ;
#87 = CARTESIAN_POINT ( 'NONE',  ( -7.100011671745328989, -11.99999999999999645, 3.000000000000000000 ) ) ;
#88 = ORIENTED_EDGE ( 'NONE', *, *, #75, .F. ) ;
#89 = LINE ( 'NONE', #53, #448 ) ;
#90 = VERTEX_POINT ( 'NONE', #106 ) ;
#91 =( NAMED_UNIT ( * ) PLANE_ANGLE_UNIT ( ) SI_UNIT ( $, .RADIAN. ) );
#92 = DIRECTION ( 'NONE',  ( -0.000000000000000000, 0.000000000000000000, 1.000000000000000000 ) ) ;
#93 = EDGE_CURVE ( 'NONE', #5, #61, #74, .T. ) ;
#94 = AXIS2_PLACEMENT_3D ( 'NONE', #226, #69, #229 ) ;
#95 = DIRECTION ( 'NONE',  ( 0.000000000000000000, 1.000000000000000000, 0.000000000000000000 ) ) ;
#96 = AXIS2_PLACEMENT_3D ( 'NONE', #315, #162, #237 ) ;
#97 = FACE_OUTER_BOUND ( 'NONE', #234, .T. ) ;
#98 = DIRECTION ( 'NONE',  ( 0.000000000000000000, 1.000000000000000000, -0.000000000000000000 ) ) ;
#99 = ORIENTED_EDGE ( 'NONE', *, *, #486, .T. ) ;
#100 = ORIENTED_EDGE ( 'NONE', *, *, #230, .F. ) ;
#101 = PERSON_AND_ORGANIZATION ( #18446744073709551615, #18446744073709551615 ) ;
#102 = CARTESIAN_POINT ( 'NONE',  ( -5.500011671745328456, -11.99999999999999645, 3.000000000000000000 ) ) ;
#103 = CALENDAR_DATE ( 2026, 22, 6 ) ;
#104 = AXIS2_PLACEMENT_3D ( 'NONE', #224, #295, #456 ) ;
#105 = LOCAL_TIME ( 18, 50, 19.00000000000000000, #228 ) ;
#106 = CARTESIAN_POINT ( 'NONE',  ( 20.61529142568503659, -20.99999999999999645, 3.000000000000000000 ) ) ;
#107 = PERSON_AND_ORGANIZATION ( #18446744073709551615, #18446744073709551615 ) ;
#108 = DIRECTION ( 'NONE',  ( 0.000000000000000000, 1.000000000000000000, 0.000000000000000000 ) ) ;
#109 = EDGE_CURVE ( 'NONE', #231, #29, #151, .T. ) ;
#110 = CARTESIAN_POINT ( 'NONE',  ( -3.900011671745328368, -11.99999999999999645, 0.000000000000000000 ) ) ;
#111 = ORIENTED_EDGE ( 'NONE', *, *, #109, .T. ) ;
#112 = ADVANCED_FACE ( 'NONE', ( #34 ), #65, .F. ) ;
#113 = PERSON_AND_ORGANIZATION_ROLE ( 'creator' ) ;
#114 = LINE ( 'NONE', #381, #467 ) ;
#115 = CIRCLE ( 'NONE', #64, 1.599999999999999867 ) ;
#116 = ORIENTED_EDGE ( 'NONE', *, *, #268, .T. ) ;
#117 = CARTESIAN_POINT ( 'NONE',  ( 0.000000000000000000, 0.000000000000000000, 3.000000000000000000 ) ) ;
#118 = EDGE_LOOP ( 'NONE', ( #15, #116, #309, #251, #387, #483, #364, #111 ) ) ;
#119 = LINE ( 'NONE', #270, #400 ) ;
#120 = LINE ( 'NONE', #43, #365 ) ;
#121 = CIRCLE ( 'NONE', #356, 1.599999999999999867 ) ;
#122 = EDGE_CURVE ( 'NONE', #478, #452, #114, .T. ) ;
#123 = VECTOR ( 'NONE', #77, 1000.000000000000000 ) ;
#124 = LINE ( 'NONE', #157, #373 ) ;
#125 = FACE_OUTER_BOUND ( 'NONE', #118, .T. ) ;
#126 = ORIENTED_EDGE ( 'NONE', *, *, #127, .T. ) ;
#127 = EDGE_CURVE ( 'NONE', #493, #90, #422, .T. ) ;
#128 = FACE_BOUND ( 'NONE', #219, .T. ) ;
#129 = ORIENTED_EDGE ( 'NONE', *, *, #244, .F. ) ;
#130 = CARTESIAN_POINT ( 'NONE',  ( -17.00000000000000000, 0.000000000000000000, 30.00000000000000000 ) ) ;
#131 = ORIENTED_EDGE ( 'NONE', *, *, #230, .T. ) ;
#132 = ORIENTED_EDGE ( 'NONE', *, *, #303, .T. ) ;
#133 = CARTESIAN_POINT ( 'NONE',  ( -20.00000000000000000, -23.99999999999999645, 30.00000000000000000 ) ) ;
#134 = CYLINDRICAL_SURFACE ( 'NONE', #254, 1.600000000000002531 ) ;
#135 = ORIENTED_EDGE ( 'NONE', *, *, #475, .T. ) ;
#136 = FACE_OUTER_BOUND ( 'NONE', #391, .T. ) ;
#137 = CC_DESIGN_APPROVAL ( #143, ( #431 ) ) ;
#138 = CYLINDRICAL_SURFACE ( 'NONE', #195, 1.599999999999999867 ) ;
#139 = APPROVAL_STATUS ( 'not_yet_approved' ) ;
#140 = ORIENTED_EDGE ( 'NONE', *, *, #435, .T. ) ;
#141 = ORIENTED_EDGE ( 'NONE', *, *, #173, .F. ) ;
#142 = PERSON_AND_ORGANIZATION ( #18446744073709551615, #18446744073709551615 ) ;
#143 = APPROVAL ( #414, 'Coincident' ) ;
#144 = CARTESIAN_POINT ( 'NONE',  ( 20.61529142568503659, -20.99999999999999645, 30.00000000000000000 ) ) ;
#145 = LOCAL_TIME ( 18, 50, 19.00000000000000000, #294 ) ;
#146 = CARTESIAN_POINT ( 'NONE',  ( -7.100011671745328101, -11.99999999999999645, 3.000000000000000000 ) ) ;
#147 = PERSON_AND_ORGANIZATION_ROLE ( 'classification_officer' ) ;
#148 = DIRECTION ( 'NONE',  ( -0.000000000000000000, -0.000000000000000000, -1.000000000000000000 ) ) ;
#149 = ORIENTED_EDGE ( 'NONE', *, *, #16, .F. ) ;
#150 = COORDINATED_UNIVERSAL_TIME_OFFSET ( 10, 0, .AHEAD. ) ;
#151 = LINE ( 'NONE', #257, #280 ) ;
#152 = ORIENTED_EDGE ( 'NONE', *, *, #26, .F. ) ;
#153 = CARTESIAN_POINT ( 'NONE',  ( 20.61529142568503659, -4.000000000000007105, 30.00000000000000000 ) ) ;
#154 = AXIS2_PLACEMENT_3D ( 'NONE', #325, #14, #9 ) ;
#155 = CIRCLE ( 'NONE', #330, 1.600000000000002531 ) ;
#156 = ORIENTED_EDGE ( 'NONE', *, *, #209, .T. ) ;
#157 = CARTESIAN_POINT ( 'NONE',  ( -20.00000000000000000, -1.000000000000006883, 3.000000000000000000 ) ) ;
#158 = VERTEX_POINT ( 'NONE', #190 ) ;
#159 = CARTESIAN_POINT ( 'NONE',  ( -20.00000000000000000, -1.000000000000006883, 0.000000000000000000 ) ) ;
#160 = DIRECTION ( 'NONE',  ( -0.000000000000000000, -0.000000000000000000, -1.000000000000000000 ) ) ;
#161 = VECTOR ( 'NONE', #160, 1000.000000000000000 ) ;
#162 = DIRECTION ( 'NONE',  ( -0.000000000000000000, 0.000000000000000000, 1.000000000000000000 ) ) ;
#163 = EDGE_CURVE ( 'NONE', #324, #33, #182, .T. ) ;
#164 = DIRECTION ( 'NONE',  ( -1.000000000000000000, -0.000000000000000000, -0.000000000000000000 ) ) ;
#165 = ORIENTED_EDGE ( 'NONE', *, *, #303, .F. ) ;
#166 = FACE_OUTER_BOUND ( 'NONE', #36, .T. ) ;
#167 = ORIENTED_EDGE ( 'NONE', *, *, #341, .F. ) ;
#168 = APPROVAL_PERSON_ORGANIZATION ( #263, #50, #495 ) ;
#169 = DIRECTION ( 'NONE',  ( -0.000000000000000000, -0.000000000000000000, -1.000000000000000000 ) ) ;
#170 = CARTESIAN_POINT ( 'NONE',  ( -5.500011671745328456, -11.99999999999999645, 3.000000000000000000 ) ) ;
#171 = CARTESIAN_POINT ( 'NONE',  ( 20.61529142568503659, -20.99999999999999645, 30.00000000000000000 ) ) ;
#172 = FACE_OUTER_BOUND ( 'NONE', #511, .T. ) ;
#173 = EDGE_CURVE ( 'NONE', #158, #444, #426, .T. ) ;
#174 = DIRECTION ( 'NONE',  ( -0.000000000000000000, -0.000000000000000000, -1.000000000000000000 ) ) ;
#175 = VERTEX_POINT ( 'NONE', #144 ) ;
#176 = AXIS2_PLACEMENT_3D ( 'NONE', #117, #434, #238 ) ;
#177 = DIRECTION ( 'NONE',  ( -1.000000000000000000, 0.000000000000000000, 0.000000000000000000 ) ) ;
#178 = CC_DESIGN_PERSON_AND_ORGANIZATION_ASSIGNMENT ( #378, #23, ( #431 ) ) ;
#179 = MECHANICAL_CONTEXT ( 'NONE', #22, 'mechanical' ) ;
#180 = DIRECTION ( 'NONE',  ( 0.000000000000000000, -0.000000000000000000, 1.000000000000000000 ) ) ;
#181 = DATE_TIME_ROLE ( 'classification_date' ) ;
#182 = LINE ( 'NONE', #253, #424 ) ;
#183 = CC_DESIGN_APPROVAL ( #289, ( #80 ) ) ;
#184 =( NAMED_UNIT ( * ) SI_UNIT ( $, .STERADIAN. ) SOLID_ANGLE_UNIT ( ) );
#185 = CLOSED_SHELL ( 'NONE', ( #513, #112, #354, #395, #42, #491, #445, #13, #35, #471, #215, #233, #501, #82 ) ) ;
#186 = AXIS2_PLACEMENT_3D ( 'NONE', #48, #95, #410 ) ;
#187 = DIRECTION ( 'NONE',  ( -0.000000000000000000, 0.000000000000000000, 1.000000000000000000 ) ) ;
#188 = CC_DESIGN_PERSON_AND_ORGANIZATION_ASSIGNMENT ( #142, #147, ( #80 ) ) ;
#189 = ORIENTED_EDGE ( 'NONE', *, *, #122, .F. ) ;
#190 = CARTESIAN_POINT ( 'NONE',  ( -17.00000000000000000, -20.99999999999999645, 3.000000000000000000 ) ) ;
#191 = ORIENTED_EDGE ( 'NONE', *, *, #93, .T. ) ;
#192 = DIRECTION ( 'NONE',  ( 1.000000000000000000, 0.000000000000000000, 0.000000000000000000 ) ) ;
#193 = ORIENTED_EDGE ( 'NONE', *, *, #8, .F. ) ;
#194 = LINE ( 'NONE', #350, #307 ) ;
#195 = AXIS2_PLACEMENT_3D ( 'NONE', #170, #407, #55 ) ;
#196 = AXIS2_PLACEMENT_3D ( 'NONE', #385, #305, #180 ) ;
#197 = ORIENTED_EDGE ( 'NONE', *, *, #8, .T. ) ;
#198 = CARTESIAN_POINT ( 'NONE',  ( 20.61529142568503659, 0.000000000000000000, 0.000000000000000000 ) ) ;
#199 = FACE_BOUND ( 'NONE', #40, .T. ) ;
#200 = CARTESIAN_POINT ( 'NONE',  ( -20.00000000000000000, -20.99999999999999645, 30.00000000000000000 ) ) ;
#201 = EDGE_CURVE ( 'NONE', #383, #73, #155, .T. ) ;
#202 = DIRECTION ( 'NONE',  ( -1.000000000000000000, 0.000000000000000000, -0.000000000000000000 ) ) ;
#203 = ORIENTED_EDGE ( 'NONE', *, *, #218, .F. ) ;
#204 = LINE ( 'NONE', #171, #236 ) ;
#205 = VERTEX_POINT ( 'NONE', #24 ) ;
#206 = DIRECTION ( 'NONE',  ( 0.000000000000000000, 0.000000000000000000, 1.000000000000000000 ) ) ;
#207 = ORIENTED_EDGE ( 'NONE', *, *, #268, .F. ) ;
#208 = APPROVAL_PERSON_ORGANIZATION ( #499, #289, #380 ) ;
#209 = EDGE_CURVE ( 'NONE', #205, #493, #346, .T. ) ;
#210 = DIRECTION ( 'NONE',  ( -1.000000000000000000, -0.000000000000000000, -0.000000000000000000 ) ) ;
#211 = FACE_OUTER_BOUND ( 'NONE', #469, .T. ) ;
#212 = PRODUCT_DEFINITION_SHAPE ( 'NONE', 'NONE',  #431 ) ;
#213 = CARTESIAN_POINT ( 'NONE',  ( -5.500011671745328456, -11.99999999999999645, 3.000000000000000000 ) ) ;
#214 = EDGE_LOOP ( 'NONE', ( #243, #217, #374, #505 ) ) ;
#215 = ADVANCED_FACE ( 'NONE', ( #336 ), #498, .F. ) ;
#216 = DIRECTION ( 'NONE',  ( 0.000000000000000000, 1.000000000000000000, 0.000000000000000000 ) ) ;
#217 = ORIENTED_EDGE ( 'NONE', *, *, #209, .F. ) ;
#218 = EDGE_CURVE ( 'NONE', #359, #73, #420, .T. ) ;
#219 = EDGE_LOOP ( 'NONE', ( #227, #135 ) ) ;
#220 = AXIS2_PLACEMENT_3D ( 'NONE', #390, #232, #202 ) ;
#221 = SECURITY_CLASSIFICATION_LEVEL ( 'unclassified' ) ;
#222 = PLANE ( 'NONE',  #104 ) ;
#223 = DIRECTION ( 'NONE',  ( 1.000000000000000000, 0.000000000000000000, 0.000000000000000000 ) ) ;
#224 = CARTESIAN_POINT ( 'NONE',  ( 20.61529142568503659, 0.000000000000000000, 3.000000000000000000 ) ) ;
#225 =( GEOMETRIC_REPRESENTATION_CONTEXT ( 3 ) GLOBAL_UNCERTAINTY_ASSIGNED_CONTEXT ( ( #425 ) ) GLOBAL_UNIT_ASSIGNED_CONTEXT ( ( #484, #91, #184 ) ) REPRESENTATION_CONTEXT ( 'NONE', 'WORKASPACE' ) );
#226 = CARTESIAN_POINT ( 'NONE',  ( 9.499988328254671544, -12.00000000000001066, 3.000000000000000000 ) ) ;
#227 = ORIENTED_EDGE ( 'NONE', *, *, #201, .T. ) ;
#228 = COORDINATED_UNIVERSAL_TIME_OFFSET ( 10, 0, .AHEAD. ) ;
#229 = DIRECTION ( 'NONE',  ( 1.000000000000000000, 0.000000000000000000, 0.000000000000000000 ) ) ;
#230 = EDGE_CURVE ( 'NONE', #29, #262, #124, .T. ) ;
#231 = VERTEX_POINT ( 'NONE', #477 ) ;
#232 = DIRECTION ( 'NONE',  ( 0.000000000000000000, 0.000000000000000000, -1.000000000000000000 ) ) ;
#233 = ADVANCED_FACE ( 'NONE', ( #125 ), #276, .F. ) ;
#234 = EDGE_LOOP ( 'NONE', ( #443, #454, #404, #76 ) ) ;
#235 = CARTESIAN_POINT ( 'NONE',  ( 11.09998832825467296, -12.00000000000001066, 3.000000000000000000 ) ) ;
#236 = VECTOR ( 'NONE', #361, 1000.000000000000000 ) ;
#237 = DIRECTION ( 'NONE',  ( 1.000000000000000000, 0.000000000000000000, 0.000000000000000000 ) ) ;
#238 = DIRECTION ( 'NONE',  ( 1.000000000000000000, 0.000000000000000000, 0.000000000000000000 ) ) ;
#239 = LINE ( 'NONE', #399, #457 ) ;
#240 = ORIENTED_EDGE ( 'NONE', *, *, #16, .T. ) ;
#241 = CIRCLE ( 'NONE', #96, 1.600000000000002531 ) ;
#242 = CARTESIAN_POINT ( 'NONE',  ( 7.899988328254668346, -12.00000000000001066, 3.000000000000000000 ) ) ;
#243 = ORIENTED_EDGE ( 'NONE', *, *, #402, .T. ) ;
#244 = EDGE_CURVE ( 'NONE', #332, #61, #115, .T. ) ;
#245 = CARTESIAN_POINT ( 'NONE',  ( -3.900011671745328368, -11.99999999999999645, 3.000000000000000000 ) ) ;
#246 = CARTESIAN_POINT ( 'NONE',  ( -20.00000000000000000, -23.99999999999999645, 30.00000000000000000 ) ) ;
#247 = ORIENTED_EDGE ( 'NONE', *, *, #319, .T. ) ;
#248 = CARTESIAN_POINT ( 'NONE',  ( 0.000000000000000000, 0.000000000000000000, 0.000000000000000000 ) ) ;
#249 = EDGE_LOOP ( 'NONE', ( #277, #141, #59, #291 ) ) ;
#250 = CARTESIAN_POINT ( 'NONE',  ( -17.00000000000000000, 0.000000000000000000, 30.00000000000000000 ) ) ;
#251 = ORIENTED_EDGE ( 'NONE', *, *, #515, .T. ) ;
#252 = CALENDAR_DATE ( 2026, 22, 6 ) ;
#253 = CARTESIAN_POINT ( 'NONE',  ( 20.61529142568503659, -23.99999999999999645, 30.00000000000000000 ) ) ;
#254 = AXIS2_PLACEMENT_3D ( 'NONE', #329, #489, #177 ) ;
#255 = VECTOR ( 'NONE', #334, 1000.000000000000000 ) ;
#256 = SHAPE_DEFINITION_REPRESENTATION ( #212, #314 ) ;
#257 = CARTESIAN_POINT ( 'NONE',  ( 0.000000000000000000, -1.000000000000006883, 30.00000000000000000 ) ) ;
#258 = APPLICATION_PROTOCOL_DEFINITION ( 'international standard', 'config_control_design', 1994, #382 ) ;
#259 = DIRECTION ( 'NONE',  ( 0.000000000000000000, -0.000000000000000000, 1.000000000000000000 ) ) ;
#260 = EDGE_CURVE ( 'NONE', #463, #383, #194, .T. ) ;
#261 = DIRECTION ( 'NONE',  ( 1.000000000000000000, 0.000000000000000000, 0.000000000000000000 ) ) ;
#262 = VERTEX_POINT ( 'NONE', #159 ) ;
#263 = PERSON_AND_ORGANIZATION ( #18446744073709551615, #18446744073709551615 ) ;
#264 = LOCAL_TIME ( 18, 50, 19.00000000000000000, #150 ) ;
#265 = DIRECTION ( 'NONE',  ( -0.000000000000000000, 0.000000000000000000, 1.000000000000000000 ) ) ;
#266 = ORIENTED_EDGE ( 'NONE', *, *, #409, .T. ) ;
#267 = LINE ( 'NONE', #428, #408 ) ;
#268 = EDGE_CURVE ( 'NONE', #478, #324, #239, .T. ) ;
#269 = ORIENTED_EDGE ( 'NONE', *, *, #435, .F. ) ;
#270 = CARTESIAN_POINT ( 'NONE',  ( -20.00000000000000000, -20.99999999999999645, 3.000000000000000000 ) ) ;
#271 = CARTESIAN_POINT ( 'NONE',  ( -17.00000000000000000, -4.000000000000007105, 30.00000000000000000 ) ) ;
#272 = AXIS2_PLACEMENT_3D ( 'NONE', #71, #187, #223 ) ;
#273 = PRODUCT_DEFINITION_FORMATION_WITH_SPECIFIED_SOURCE ( 'Symmetric', '', #56, .NOT_KNOWN. ) ;
#274 = CC_DESIGN_PERSON_AND_ORGANIZATION_ASSIGNMENT ( #339, #300, ( #273 ) ) ;
#275 = FACE_BOUND ( 'NONE', #370, .T. ) ;
#276 = PLANE ( 'NONE',  #220 ) ;
#277 = ORIENTED_EDGE ( 'NONE', *, *, #402, .F. ) ;
#278 = CARTESIAN_POINT ( 'NONE',  ( 20.61529142568504014, -1.000000000000006883, 3.000000000000000000 ) ) ;
#279 = ORIENTED_EDGE ( 'NONE', *, *, #58, .F. ) ;
#280 = VECTOR ( 'NONE', #500, 1000.000000000000000 ) ;
#281 = PLANE ( 'NONE',  #322 ) ;
#282 = EDGE_LOOP ( 'NONE', ( #488, #132, #240, #197 ) ) ;
#283 = DIRECTION ( 'NONE',  ( 1.000000000000000000, 0.000000000000000000, 0.000000000000000000 ) ) ;
#284 = FACE_BOUND ( 'NONE', #7, .T. ) ;
#285 = VERTEX_POINT ( 'NONE', #470 ) ;
#286 = CIRCLE ( 'NONE', #272, 1.599999999999999867 ) ;
#287 = VECTOR ( 'NONE', #17, 1000.000000000000000 ) ;
#288 = ORIENTED_EDGE ( 'NONE', *, *, #460, .F. ) ;
#289 = APPROVAL ( #335, 'Coincident' ) ;
#290 = PLANE ( 'NONE',  #417 ) ;
#291 = ORIENTED_EDGE ( 'NONE', *, *, #127, .F. ) ;
#292 = DATE_AND_TIME ( #297, #105 ) ;
#293 = EDGE_LOOP ( 'NONE', ( #318, #165, #362, #207 ) ) ;
#294 = COORDINATED_UNIVERSAL_TIME_OFFSET ( 10, 0, .AHEAD. ) ;
#295 = DIRECTION ( 'NONE',  ( 1.000000000000000000, 0.000000000000000000, -0.000000000000000000 ) ) ;
#296 = VECTOR ( 'NONE', #216, 1000.000000000000000 ) ;
#297 = CALENDAR_DATE ( 2026, 22, 6 ) ;
#298 = DIRECTION ( 'NONE',  ( -0.000000000000000000, -0.000000000000000000, -1.000000000000000000 ) ) ;
#299 = EDGE_CURVE ( 'NONE', #324, #175, #46, .T. ) ;
#300 = PERSON_AND_ORGANIZATION_ROLE ( 'design_supplier' ) ;
#301 = CARTESIAN_POINT ( 'NONE',  ( 20.61529142568503659, 0.000000000000000000, 3.000000000000000000 ) ) ;
#302 = ORIENTED_EDGE ( 'NONE', *, *, #416, .F. ) ;
#303 = EDGE_CURVE ( 'NONE', #33, #452, #474, .T. ) ;
#304 = COORDINATED_UNIVERSAL_TIME_OFFSET ( 10, 0, .AHEAD. ) ;
#305 = DIRECTION ( 'NONE',  ( 0.000000000000000000, 1.000000000000000000, 0.000000000000000000 ) ) ;
#306 = ORIENTED_EDGE ( 'NONE', *, *, #109, .F. ) ;
#307 = VECTOR ( 'NONE', #436, 1000.000000000000000 ) ;
#308 = DIRECTION ( 'NONE',  ( -0.000000000000000000, -0.000000000000000000, -1.000000000000000000 ) ) ;
#309 = ORIENTED_EDGE ( 'NONE', *, *, #299, .T. ) ;
#310 = DIRECTION ( 'NONE',  ( 1.000000000000000000, 0.000000000000000000, 0.000000000000000000 ) ) ;
#311 = PLANE ( 'NONE',  #39 ) ;
#312 = DIRECTION ( 'NONE',  ( -0.000000000000000000, -0.000000000000000000, -1.000000000000000000 ) ) ;
#313 = VECTOR ( 'NONE', #148, 1000.000000000000000 ) ;
#314 = ADVANCED_BREP_SHAPE_REPRESENTATION ( 'PowerMount3', ( #31, #72 ), #225 ) ;
#315 = CARTESIAN_POINT ( 'NONE',  ( 9.499988328254671544, -12.00000000000001066, 3.000000000000000000 ) ) ;
#316 = ORIENTED_EDGE ( 'NONE', *, *, #75, .T. ) ;
#317 = DIRECTION ( 'NONE',  ( 1.000000000000000000, 0.000000000000000000, 0.000000000000000000 ) ) ;
#318 = ORIENTED_EDGE ( 'NONE', *, *, #122, .T. ) ;
#319 = EDGE_CURVE ( 'NONE', #90, #158, #119, .T. ) ;
#320 = DIRECTION ( 'NONE',  ( 1.000000000000000000, 0.000000000000000000, 0.000000000000000000 ) ) ;
#321 = CARTESIAN_POINT ( 'NONE',  ( -20.00000000000000000, 0.000000000000000000, 0.000000000000000000 ) ) ;
#322 = AXIS2_PLACEMENT_3D ( 'NONE', #248, #366, #317 ) ;
#323 = LINE ( 'NONE', #250, #439 ) ;
#324 = VERTEX_POINT ( 'NONE', #396 ) ;
#325 = CARTESIAN_POINT ( 'NONE',  ( -20.00000000000000000, 0.000000000000000000, 3.000000000000000000 ) ) ;
#326 = DIRECTION ( 'NONE',  ( 1.000000000000000000, 0.000000000000000000, 0.000000000000000000 ) ) ;
#327 = CC_DESIGN_DATE_AND_TIME_ASSIGNMENT ( #68, #181, ( #80 ) ) ;
#328 = FACE_OUTER_BOUND ( 'NONE', #282, .T. ) ;
#329 = CARTESIAN_POINT ( 'NONE',  ( 9.499988328254671544, -12.00000000000001066, 3.000000000000000000 ) ) ;
#330 = AXIS2_PLACEMENT_3D ( 'NONE', #418, #265, #192 ) ;
#331 = CALENDAR_DATE ( 2026, 22, 6 ) ;
#332 = VERTEX_POINT ( 'NONE', #430 ) ;
#333 = PERSON_AND_ORGANIZATION ( #18446744073709551615, #18446744073709551615 ) ;
#334 = DIRECTION ( 'NONE',  ( 0.000000000000000000, 1.000000000000000000, -0.000000000000000000 ) ) ;
#335 = APPROVAL_STATUS ( 'not_yet_approved' ) ;
#336 = FACE_OUTER_BOUND ( 'NONE', #293, .T. ) ;
#337 = VECTOR ( 'NONE', #283, 1000.000000000000000 ) ;
#338 = VECTOR ( 'NONE', #308, 1000.000000000000000 ) ;
#339 = PERSON_AND_ORGANIZATION ( #18446744073709551615, #18446744073709551615 ) ;
#340 = FACE_OUTER_BOUND ( 'NONE', #214, .T. ) ;
#341 = EDGE_CURVE ( 'NONE', #285, #444, #83, .T. ) ;
#342 = ORIENTED_EDGE ( 'NONE', *, *, #515, .F. ) ;
#343 = DIRECTION ( 'NONE',  ( 1.000000000000000000, 0.000000000000000000, 0.000000000000000000 ) ) ;
#344 = DIRECTION ( 'NONE',  ( -0.000000000000000000, 0.000000000000000000, 1.000000000000000000 ) ) ;
#345 = ORIENTED_EDGE ( 'NONE', *, *, #218, .T. ) ;
#346 = LINE ( 'NONE', #153, #338 ) ;
#347 = ORIENTED_EDGE ( 'NONE', *, *, #244, .T. ) ;
#348 = AXIS2_PLACEMENT_3D ( 'NONE', #52, #92, #326 ) ;
#349 = AXIS2_PLACEMENT_3D ( 'NONE', #363, #403, #320 ) ;
#350 = CARTESIAN_POINT ( 'NONE',  ( 7.899988328254668346, -12.00000000000001066, 3.000000000000000000 ) ) ;
#351 = VERTEX_POINT ( 'NONE', #79 ) ;
#352 = FACE_OUTER_BOUND ( 'NONE', #437, .T. ) ;
#353 = LINE ( 'NONE', #514, #161 ) ;
#354 = ADVANCED_FACE ( 'NONE', ( #199, #275, #468 ), #433, .T. ) ;
#355 = DIRECTION ( 'NONE',  ( 0.000000000000000000, -1.000000000000000000, 0.000000000000000000 ) ) ;
#356 = AXIS2_PLACEMENT_3D ( 'NONE', #102, #344, #261 ) ;
#357 = AXIS2_PLACEMENT_3D ( 'NONE', #32, #298, #506 ) ;
#358 = DIRECTION ( 'NONE',  ( 0.000000000000000000, 1.000000000000000000, 0.000000000000000000 ) ) ;
#359 = VERTEX_POINT ( 'NONE', #235 ) ;
#360 = CC_DESIGN_DATE_AND_TIME_ASSIGNMENT ( #292, #492, ( #431 ) ) ;
#361 = DIRECTION ( 'NONE',  ( -0.000000000000000000, -0.000000000000000000, -1.000000000000000000 ) ) ;
#362 = ORIENTED_EDGE ( 'NONE', *, *, #163, .F. ) ;
#363 = CARTESIAN_POINT ( 'NONE',  ( 9.499988328254671544, -12.00000000000001066, 0.000000000000000000 ) ) ;
#364 = ORIENTED_EDGE ( 'NONE', *, *, #416, .T. ) ;
#365 = VECTOR ( 'NONE', #81, 1000.000000000000000 ) ;
#366 = DIRECTION ( 'NONE',  ( -0.000000000000000000, 0.000000000000000000, 1.000000000000000000 ) ) ;
#367 = EDGE_CURVE ( 'NONE', #285, #205, #267, .T. ) ;
#368 = ORIENTED_EDGE ( 'NONE', *, *, #67, .F. ) ;
#369 = FACE_OUTER_BOUND ( 'NONE', #502, .T. ) ;
#370 = EDGE_LOOP ( 'NONE', ( #88, #152 ) ) ;
#371 = CARTESIAN_POINT ( 'NONE',  ( -17.00000000000000000, -4.000000000000007105, 3.000000000000000000 ) ) ;
#372 = ORIENTED_EDGE ( 'NONE', *, *, #201, .F. ) ;
#373 = VECTOR ( 'NONE', #84, 1000.000000000000000 ) ;
#374 = ORIENTED_EDGE ( 'NONE', *, *, #367, .F. ) ;
#375 = CARTESIAN_POINT ( 'NONE',  ( 0.000000000000000000, 0.000000000000000000, 0.000000000000000000 ) ) ;
#376 = LINE ( 'NONE', #146, #392 ) ;
#377 = PRODUCT_RELATED_PRODUCT_CATEGORY ( 'detail', '', ( #56 ) ) ;
#378 = PERSON_AND_ORGANIZATION ( #18446744073709551615, #18446744073709551615 ) ;
#379 = PLANE ( 'NONE',  #196 ) ;
#380 = APPROVAL_ROLE ( '' ) ;
#381 = CARTESIAN_POINT ( 'NONE',  ( -20.00000000000000000, -23.99999999999999645, 30.00000000000000000 ) ) ;
#382 = APPLICATION_CONTEXT ( 'configuration controlled 3d designs of mechanical parts and assemblies' ) ;
#383 = VERTEX_POINT ( 'NONE', #41 ) ;
#384 = PERSON_AND_ORGANIZATION_ROLE ( 'design_owner' ) ;
#385 = CARTESIAN_POINT ( 'NONE',  ( 0.000000000000000000, -4.000000000000007105, 30.00000000000000000 ) ) ;
#386 = EDGE_CURVE ( 'NONE', #351, #33, #44, .T. ) ;
#387 = ORIENTED_EDGE ( 'NONE', *, *, #449, .T. ) ;
#388 = DIRECTION ( 'NONE',  ( -0.000000000000000000, -0.000000000000000000, -1.000000000000000000 ) ) ;
#389 = ORIENTED_EDGE ( 'NONE', *, *, #475, .F. ) ;
#390 = CARTESIAN_POINT ( 'NONE',  ( 0.000000000000000000, 0.000000000000000000, 30.00000000000000000 ) ) ;
#391 = EDGE_LOOP ( 'NONE', ( #494, #167, #480, #266 ) ) ;
#392 = VECTOR ( 'NONE', #462, 1000.000000000000000 ) ;
#393 = VECTOR ( 'NONE', #174, 1000.000000000000000 ) ;
#394 = DIRECTION ( 'NONE',  ( 1.000000000000000000, 0.000000000000000000, 0.000000000000000000 ) ) ;
#395 = ADVANCED_FACE ( 'NONE', ( #352 ), #311, .F. ) ;
#396 = CARTESIAN_POINT ( 'NONE',  ( 20.61529142568503659, -23.99999999999999645, 30.00000000000000000 ) ) ;
#397 = DIRECTION ( 'NONE',  ( 1.000000000000000000, 0.000000000000000000, 0.000000000000000000 ) ) ;
#398 = EDGE_CURVE ( 'NONE', #463, #359, #241, .T. ) ;
#399 = CARTESIAN_POINT ( 'NONE',  ( -20.00000000000000000, -23.99999999999999645, 30.00000000000000000 ) ) ;
#400 = VECTOR ( 'NONE', #164, 1000.000000000000000 ) ;
#401 = ORIENTED_EDGE ( 'NONE', *, *, #70, .T. ) ;
#402 = EDGE_CURVE ( 'NONE', #444, #493, #120, .T. ) ;
#403 = DIRECTION ( 'NONE',  ( -0.000000000000000000, 0.000000000000000000, 1.000000000000000000 ) ) ;
#404 = ORIENTED_EDGE ( 'NONE', *, *, #58, .T. ) ;
#405 = DIRECTION ( 'NONE',  ( 0.000000000000000000, 1.000000000000000000, -0.000000000000000000 ) ) ;
#406 = DIRECTION ( 'NONE',  ( -1.000000000000000000, 0.000000000000000000, 0.000000000000000000 ) ) ;
#407 = DIRECTION ( 'NONE',  ( -0.000000000000000000, -0.000000000000000000, -1.000000000000000000 ) ) ;
#408 = VECTOR ( 'NONE', #394, 1000.000000000000000 ) ;
#409 = EDGE_CURVE ( 'NONE', #466, #158, #353, .T. ) ;
#410 = DIRECTION ( 'NONE',  ( 0.000000000000000000, -0.000000000000000000, 1.000000000000000000 ) ) ;
#411 = ORIENTED_EDGE ( 'NONE', *, *, #67, .T. ) ;
#412 = PLANE ( 'NONE',  #154 ) ;
#413 = CARTESIAN_POINT ( 'NONE',  ( 0.000000000000000000, -1.000000000000006883, 0.000000000000000000 ) ) ;
#414 = APPROVAL_STATUS ( 'not_yet_approved' ) ;
#415 = CARTESIAN_POINT ( 'NONE',  ( -17.00000000000000000, 0.000000000000000000, 3.000000000000000000 ) ) ;
#416 = EDGE_CURVE ( 'NONE', #205, #231, #479, .T. ) ;
#417 = AXIS2_PLACEMENT_3D ( 'NONE', #130, #450, #206 ) ;
#418 = CARTESIAN_POINT ( 'NONE',  ( 9.499988328254671544, -12.00000000000001066, 0.000000000000000000 ) ) ;
#419 = APPROVAL_ROLE ( '' ) ;
#420 = LINE ( 'NONE', #27, #313 ) ;
#421 = CC_DESIGN_PERSON_AND_ORGANIZATION_ASSIGNMENT ( #333, #384, ( #56 ) ) ;
#422 = LINE ( 'NONE', #301, #2 ) ;
#423 = EDGE_LOOP ( 'NONE', ( #193, #100, #306, #99 ) ) ;
#424 = VECTOR ( 'NONE', #66, 1000.000000000000000 ) ;
#425 = UNCERTAINTY_MEASURE_WITH_UNIT (LENGTH_MEASURE( 1.000000000000000082E-05 ), #484, 'distance_accuracy_value', 'NONE');
#426 = LINE ( 'NONE', #415, #255 ) ;
#427 = ORIENTED_EDGE ( 'NONE', *, *, #386, .F. ) ;
#428 = CARTESIAN_POINT ( 'NONE',  ( 0.000000000000000000, -4.000000000000007105, 30.00000000000000000 ) ) ;
#429 = VERTEX_POINT ( 'NONE', #87 ) ;
#430 = CARTESIAN_POINT ( 'NONE',  ( -7.100011671745328989, -11.99999999999999645, 0.000000000000000000 ) ) ;
#431 = PRODUCT_DEFINITION ( 'General', '', #273, #476 ) ;
#432 = LOCAL_TIME ( 18, 50, 19.00000000000000000, #304 ) ;
#433 = PLANE ( 'NONE',  #176 ) ;
#434 = DIRECTION ( 'NONE',  ( -0.000000000000000000, 0.000000000000000000, 1.000000000000000000 ) ) ;
#435 = EDGE_CURVE ( 'NONE', #175, #90, #204, .T. ) ;
#436 = DIRECTION ( 'NONE',  ( -0.000000000000000000, -0.000000000000000000, -1.000000000000000000 ) ) ;
#437 = EDGE_LOOP ( 'NONE', ( #508, #342, #140, #247 ) ) ;
#438 = FACE_OUTER_BOUND ( 'NONE', #423, .T. ) ;
#439 = VECTOR ( 'NONE', #98, 1000.000000000000000 ) ;
#440 = VECTOR ( 'NONE', #3, 1000.000000000000000 ) ;
#441 = EDGE_LOOP ( 'NONE', ( #47, #345, #372, #62 ) ) ;
#442 = CARTESIAN_POINT ( 'NONE',  ( -17.00000000000000000, -20.99999999999999645, 30.00000000000000000 ) ) ;
#443 = ORIENTED_EDGE ( 'NONE', *, *, #93, .F. ) ;
#444 = VERTEX_POINT ( 'NONE', #371 ) ;
#445 = ADVANCED_FACE ( 'NONE', ( #166 ), #412, .T. ) ;
#446 = PLANE ( 'NONE',  #186 ) ;
#447 = CARTESIAN_POINT ( 'NONE',  ( 20.61529142568503659, -23.99999999999999645, 0.000000000000000000 ) ) ;
#448 = VECTOR ( 'NONE', #210, 1000.000000000000000 ) ;
#449 = EDGE_CURVE ( 'NONE', #466, #285, #323, .T. ) ;
#450 = DIRECTION ( 'NONE',  ( -1.000000000000000000, 0.000000000000000000, 0.000000000000000000 ) ) ;
#451 = ORIENTED_EDGE ( 'NONE', *, *, #260, .T. ) ;
#452 = VERTEX_POINT ( 'NONE', #487 ) ;
#453 = APPROVAL_DATE_TIME ( #503, #50 ) ;
#454 = ORIENTED_EDGE ( 'NONE', *, *, #26, .T. ) ;
#455 = COORDINATED_UNIVERSAL_TIME_OFFSET ( 10, 0, .AHEAD. ) ;
#456 = DIRECTION ( 'NONE',  ( -0.000000000000000000, 0.000000000000000000, -1.000000000000000000 ) ) ;
#457 = VECTOR ( 'NONE', #397, 1000.000000000000000 ) ;
#458 = APPROVAL_DATE_TIME ( #461, #289 ) ;
#459 = CARTESIAN_POINT ( 'NONE',  ( -20.00000000000000000, -23.99999999999999645, 30.00000000000000000 ) ) ;
#460 = EDGE_CURVE ( 'NONE', #29, #478, #6, .T. ) ;
#461 = DATE_AND_TIME ( #103, #54 ) ;
#462 = DIRECTION ( 'NONE',  ( -0.000000000000000000, -0.000000000000000000, -1.000000000000000000 ) ) ;
#463 = VERTEX_POINT ( 'NONE', #242 ) ;
#464 = APPROVAL_DATE_TIME ( #30, #143 ) ;
#465 = DIRECTION ( 'NONE',  ( 0.000000000000000000, -1.000000000000000000, 0.000000000000000000 ) ) ;
#466 = VERTEX_POINT ( 'NONE', #442 ) ;
#467 = VECTOR ( 'NONE', #496, 1000.000000000000000 ) ;
#468 = FACE_OUTER_BOUND ( 'NONE', #249, .T. ) ;
#469 = EDGE_LOOP ( 'NONE', ( #18, #427, #78, #302, #156, #126, #269, #85 ) ) ;
#470 = CARTESIAN_POINT ( 'NONE',  ( -17.00000000000000000, -4.000000000000007105, 30.00000000000000000 ) ) ;
#471 = ADVANCED_FACE ( 'NONE', ( #328, #128, #284 ), #281, .F. ) ;
#472 = DIRECTION ( 'NONE',  ( 0.000000000000000000, -0.000000000000000000, -1.000000000000000000 ) ) ;
#473 = CIRCLE ( 'NONE', #94, 1.600000000000002531 ) ;
#474 = LINE ( 'NONE', #4, #123 ) ;
#475 = EDGE_CURVE ( 'NONE', #73, #383, #19, .T. ) ;
#476 = DESIGN_CONTEXT ( 'detailed design', #382, 'design' ) ;
#477 = CARTESIAN_POINT ( 'NONE',  ( 20.61529142568504014, -1.000000000000006883, 30.00000000000000000 ) ) ;
#478 = VERTEX_POINT ( 'NONE', #246 ) ;
#479 = LINE ( 'NONE', #51, #296 ) ;
#480 = ORIENTED_EDGE ( 'NONE', *, *, #449, .F. ) ;
#481 = CARTESIAN_POINT ( 'NONE',  ( 20.61529142568503659, -4.000000000000007105, 3.000000000000000000 ) ) ;
#482 = VECTOR ( 'NONE', #312, 1000.000000000000000 ) ;
#483 = ORIENTED_EDGE ( 'NONE', *, *, #367, .T. ) ;
#484 =( LENGTH_UNIT ( ) NAMED_UNIT ( * ) SI_UNIT ( .MILLI., .METRE. ) );
#485 = ORIENTED_EDGE ( 'NONE', *, *, #398, .F. ) ;
#486 = EDGE_CURVE ( 'NONE', #231, #351, #60, .T. ) ;
#487 = CARTESIAN_POINT ( 'NONE',  ( -20.00000000000000000, -23.99999999999999645, 0.000000000000000000 ) ) ;
#488 = ORIENTED_EDGE ( 'NONE', *, *, #386, .T. ) ;
#489 = DIRECTION ( 'NONE',  ( -0.000000000000000000, -0.000000000000000000, -1.000000000000000000 ) ) ;
#490 = VECTOR ( 'NONE', #358, 1000.000000000000000 ) ;
#491 = ADVANCED_FACE ( 'NONE', ( #438 ), #446, .T. ) ;
#492 = DATE_TIME_ROLE ( 'creation_date' ) ;
#493 = VERTEX_POINT ( 'NONE', #481 ) ;
#494 = ORIENTED_EDGE ( 'NONE', *, *, #173, .T. ) ;
#495 = APPROVAL_ROLE ( '' ) ;
#496 = DIRECTION ( 'NONE',  ( -0.000000000000000000, -0.000000000000000000, -1.000000000000000000 ) ) ;
#497 = CC_DESIGN_SECURITY_CLASSIFICATION ( #80, ( #273 ) ) ;
#498 = PLANE ( 'NONE',  #28 ) ;
#499 = PERSON_AND_ORGANIZATION ( #18446744073709551615, #18446744073709551615 ) ;
#500 = DIRECTION ( 'NONE',  ( -1.000000000000000000, 0.000000000000000000, -0.000000000000000000 ) ) ;
#501 = ADVANCED_FACE ( 'NONE', ( #136 ), #290, .F. ) ;
#502 = EDGE_LOOP ( 'NONE', ( #316, #191, #129, #279 ) ) ;
#503 = DATE_AND_TIME ( #63, #432 ) ;
#504 = CARTESIAN_POINT ( 'NONE',  ( -3.900011671745328812, -11.99999999999999645, 3.000000000000000000 ) ) ;
#505 = ORIENTED_EDGE ( 'NONE', *, *, #341, .T. ) ;
#506 = DIRECTION ( 'NONE',  ( -1.000000000000000000, 0.000000000000000000, 0.000000000000000000 ) ) ;
#507 = AXIS2_PLACEMENT_3D ( 'NONE', #213, #169, #406 ) ;
#508 = ORIENTED_EDGE ( 'NONE', *, *, #409, .F. ) ;
#509 = CC_DESIGN_PERSON_AND_ORGANIZATION_ASSIGNMENT ( #101, #113, ( #273 ) ) ;
#510 = CARTESIAN_POINT ( 'NONE',  ( 20.61529142568503659, -23.99999999999999645, 30.00000000000000000 ) ) ;
#511 = EDGE_LOOP ( 'NONE', ( #203, #411, #451, #389 ) ) ;
#512 = CARTESIAN_POINT ( 'NONE',  ( -5.500011671745328456, -11.99999999999999645, 0.000000000000000000 ) ) ;
#513 = ADVANCED_FACE ( 'NONE', ( #369 ), #57, .F. ) ;
#514 = CARTESIAN_POINT ( 'NONE',  ( -17.00000000000000000, -20.99999999999999645, 30.00000000000000000 ) ) ;
#515 = EDGE_CURVE ( 'NONE', #175, #466, #89, .T. ) ;
ENDSEC;
END-ISO-10303-21;
