ISO-10303-21;
HEADER;
FILE_DESCRIPTION (( 'STEP AP203' ),
    '1' );
FILE_NAME ('PowerMount2.STEP',
    '2026-06-22T08:50:19',
    ( 'localuser' ),
    ( '' ),
    'SwSTEP 2.0',
    'SolidWorks 2025',
    '' );
FILE_SCHEMA (( 'CONFIG_CONTROL_DESIGN' ));
ENDSEC;

DATA;
#1 = PLANE ( 'NONE',  #287 ) ;
#2 = ORIENTED_EDGE ( 'NONE', *, *, #113, .F. ) ;
#3 = APPROVAL ( #333, 'Coincident' ) ;
#4 = COORDINATED_UNIVERSAL_TIME_OFFSET ( 10, 0, .AHEAD. ) ;
#5 = CARTESIAN_POINT ( 'NONE',  ( 20.61529142568504014, -4.333483306307671867, 8.000000000000024869 ) ) ;
#6 = ORIENTED_EDGE ( 'NONE', *, *, #88, .F. ) ;
#7 = COORDINATED_UNIVERSAL_TIME_OFFSET ( 10, 0, .AHEAD. ) ;
#8 = CARTESIAN_POINT ( 'NONE',  ( 15.86529142568499395, -23.99999999999999645, 32.73000000000000398 ) ) ;
#9 = CARTESIAN_POINT ( 'NONE',  ( 20.61529142568503659, -4.333483306307671867, 8.000000000000024869 ) ) ;
#10 = VERTEX_POINT ( 'NONE', #651 ) ;
#11 = COORDINATED_UNIVERSAL_TIME_OFFSET ( 10, 0, .AHEAD. ) ;
#12 = CIRCLE ( 'NONE', #755, 1.500000000000000444 ) ;
#13 = CARTESIAN_POINT ( 'NONE',  ( -14.63470857431502559, -23.99999999999999645, 3.730000000000214921 ) ) ;
#14 = EDGE_CURVE ( 'NONE', #475, #181, #575, .T. ) ;
#15 = DIRECTION ( 'NONE',  ( -0.000000000000000000, 1.000000000000000000, -0.000000000000000000 ) ) ;
#16 = AXIS2_PLACEMENT_3D ( 'NONE', #93, #90, #285 ) ;
#17 = EDGE_LOOP ( 'NONE', ( #65, #510, #815, #237 ) ) ;
#18 = PERSON_AND_ORGANIZATION_ROLE ( 'design_supplier' ) ;
#19 = DIRECTION ( 'NONE',  ( -1.000000000000000000, -0.000000000000000000, -0.000000000000000000 ) ) ;
#20 = FACE_OUTER_BOUND ( 'NONE', #660, .T. ) ;
#21 = ORIENTED_EDGE ( 'NONE', *, *, #822, .T. ) ;
#22 = CALENDAR_DATE ( 2026, 22, 6 ) ;
#23 = CARTESIAN_POINT ( 'NONE',  ( -20.00000000000000000, -1.000000000000002665, 25.00000000000000000 ) ) ;
#24 = CARTESIAN_POINT ( 'NONE',  ( -20.00000000000000000, -20.99999999999999645, 36.00000000000000000 ) ) ;
#25 = ORIENTED_EDGE ( 'NONE', *, *, #763, .T. ) ;
#26 = ADVANCED_FACE ( 'NONE', ( #515 ), #406, .F. ) ;
#27 = FACE_OUTER_BOUND ( 'NONE', #224, .T. ) ;
#28 = CARTESIAN_POINT ( 'NONE',  ( -5.900011671745328812, -15.99999999999999645, 5.000000000000000000 ) ) ;
#29 = AXIS2_PLACEMENT_3D ( 'NONE', #668, #747, #810 ) ;
#30 = ORIENTED_EDGE ( 'NONE', *, *, #356, .T. ) ;
#31 = AXIS2_PLACEMENT_3D ( 'NONE', #337, #396, #344 ) ;
#32 = CC_DESIGN_PERSON_AND_ORGANIZATION_ASSIGNMENT ( #462, #606, ( #273 ) ) ;
#33 = ADVANCED_BREP_SHAPE_REPRESENTATION ( 'PowerMount2', ( #809, #408 ), #675 ) ;
#34 = DIRECTION ( 'NONE',  ( 1.000000000000000000, 0.000000000000000000, 0.000000000000000000 ) ) ;
#35 = DIRECTION ( 'NONE',  ( -0.000000000000000000, -0.000000000000000000, -1.000000000000000000 ) ) ;
#36 = VERTEX_POINT ( 'NONE', #535 ) ;
#37 = DIRECTION ( 'NONE',  ( -0.000000000000000000, -0.000000000000000000, -1.000000000000000000 ) ) ;
#38 = CARTESIAN_POINT ( 'NONE',  ( -14.63470857431496341, -31.00000000000000000, 34.23000000000021714 ) ) ;
#39 = ORIENTED_EDGE ( 'NONE', *, *, #586, .F. ) ;
#40 = DIRECTION ( 'NONE',  ( -0.000000000000000000, -0.000000000000000000, -1.000000000000000000 ) ) ;
#41 = FACE_OUTER_BOUND ( 'NONE', #407, .T. ) ;
#42 = EDGE_CURVE ( 'NONE', #644, #788, #153, .T. ) ;
#43 = LOCAL_TIME ( 18, 50, 19.00000000000000000, #7 ) ;
#44 = ORIENTED_EDGE ( 'NONE', *, *, #794, .T. ) ;
#45 = AXIS2_PLACEMENT_3D ( 'NONE', #251, #130, #63 ) ;
#46 = AXIS2_PLACEMENT_3D ( 'NONE', #570, #580, #125 ) ;
#47 = CARTESIAN_POINT ( 'NONE',  ( -20.00000000000000000, -20.99999999999999645, 36.00000000000000000 ) ) ;
#48 = DIRECTION ( 'NONE',  ( -0.000000000000000000, -0.000000000000000000, -1.000000000000000000 ) ) ;
#49 = ORIENTED_EDGE ( 'NONE', *, *, #751, .F. ) ;
#50 = ORIENTED_EDGE ( 'NONE', *, *, #641, .T. ) ;
#51 = FACE_OUTER_BOUND ( 'NONE', #461, .T. ) ;
#52 = VERTEX_POINT ( 'NONE', #9 ) ;
#53 = ADVANCED_FACE ( 'NONE', ( #474 ), #203, .T. ) ;
#54 = CARTESIAN_POINT ( 'NONE',  ( 15.86529142568499395, -23.99999999999999645, 34.23000000000000398 ) ) ;
#55 = CARTESIAN_POINT ( 'NONE',  ( -20.00000000000000000, -4.333483306307671867, 8.000000000000024869 ) ) ;
#56 = ORIENTED_EDGE ( 'NONE', *, *, #596, .T. ) ;
#57 = DIRECTION ( 'NONE',  ( -0.000000000000000000, 0.000000000000000000, 1.000000000000000000 ) ) ;
#58 = APPROVAL ( #658, 'Coincident' ) ;
#59 = LOCAL_TIME ( 18, 50, 19.00000000000000000, #4 ) ;
#60 = DIRECTION ( 'NONE',  ( -0.000000000000000000, 1.000000000000000000, -0.000000000000000000 ) ) ;
#61 = CARTESIAN_POINT ( 'NONE',  ( -14.63470857431502559, -23.99999999999999645, 2.230000000000214477 ) ) ;
#62 = CARTESIAN_POINT ( 'NONE',  ( 15.86529142568493178, -31.00000000000000000, 3.729999999999999982 ) ) ;
#63 = DIRECTION ( 'NONE',  ( 0.000000000000000000, 0.000000000000000000, 1.000000000000000000 ) ) ;
#64 = ADVANCED_FACE ( 'NONE', ( #20 ), #87, .F. ) ;
#65 = ORIENTED_EDGE ( 'NONE', *, *, #778, .T. ) ;
#66 = CARTESIAN_POINT ( 'NONE',  ( 0.000000000000000000, 0.000000000000000000, 0.000000000000000000 ) ) ;
#67 = FACE_OUTER_BOUND ( 'NONE', #372, .T. ) ;
#68 = VERTEX_POINT ( 'NONE', #24 ) ;
#69 = DIRECTION ( 'NONE',  ( 0.000000000000000000, -1.000000000000000000, 0.000000000000000000 ) ) ;
#70 = AXIS2_PLACEMENT_3D ( 'NONE', #159, #639, #624 ) ;
#71 = VERTEX_POINT ( 'NONE', #679 ) ;
#72 = DIRECTION ( 'NONE',  ( 0.000000000000000000, 0.000000000000000000, -1.000000000000000000 ) ) ;
#73 = DIRECTION ( 'NONE',  ( -0.000000000000000000, 1.000000000000000000, -0.000000000000000000 ) ) ;
#74 = EDGE_LOOP ( 'NONE', ( #840, #833, #84, #805 ) ) ;
#75 = ADVANCED_FACE ( 'NONE', ( #401 ), #274, .F. ) ;
#76 = LINE ( 'NONE', #611, #689 ) ;
#77 = DIRECTION ( 'NONE',  ( 0.000000000000000000, 1.000000000000000000, -0.000000000000000000 ) ) ;
#78 = ORIENTED_EDGE ( 'NONE', *, *, #507, .F. ) ;
#79 = VECTOR ( 'NONE', #377, 1000.000000000000000 ) ;
#80 = ADVANCED_FACE ( 'NONE', ( #335, #268, #350, #216, #529 ), #598, .F. ) ;
#81 = FACE_BOUND ( 'NONE', #381, .T. ) ;
#82 = DIRECTION ( 'NONE',  ( 0.000000000000000000, 0.000000000000000000, 1.000000000000000000 ) ) ;
#83 = VECTOR ( 'NONE', #460, 1000.000000000000000 ) ;
#84 = ORIENTED_EDGE ( 'NONE', *, *, #290, .T. ) ;
#85 = SHAPE_DEFINITION_REPRESENTATION ( #256, #33 ) ;
#86 = DIRECTION ( 'NONE',  ( 1.000000000000000000, 0.000000000000000000, 0.000000000000000000 ) ) ;
#87 = CYLINDRICAL_SURFACE ( 'NONE', #590, 1.500000000000000444 ) ;
#88 = EDGE_CURVE ( 'NONE', #657, #367, #314, .T. ) ;
#89 = ORIENTED_EDGE ( 'NONE', *, *, #724, .T. ) ;
#90 = DIRECTION ( 'NONE',  ( -0.000000000000000000, 0.000000000000000000, 1.000000000000000000 ) ) ;
#91 = DIRECTION ( 'NONE',  ( 0.000000000000000000, -0.000000000000000000, 1.000000000000000000 ) ) ;
#92 = ORIENTED_EDGE ( 'NONE', *, *, #238, .F. ) ;
#93 = CARTESIAN_POINT ( 'NONE',  ( 7.499988328254670655, -16.00000000000001066, 5.000000000000000000 ) ) ;
#94 = CARTESIAN_POINT ( 'NONE',  ( 15.86529142568499395, -20.99999999999999645, 32.73000000000000398 ) ) ;
#95 = CIRCLE ( 'NONE', #816, 1.500000000000001332 ) ;
#96 = VERTEX_POINT ( 'NONE', #799 ) ;
#97 = AXIS2_PLACEMENT_3D ( 'NONE', #690, #504, #424 ) ;
#98 = CYLINDRICAL_SURFACE ( 'NONE', #650, 1.600000000000000755 ) ;
#99 = DIRECTION ( 'NONE',  ( 0.000000000000000000, 1.000000000000000000, 0.000000000000000000 ) ) ;
#100 = ORIENTED_EDGE ( 'NONE', *, *, #499, .T. ) ;
#101 = CARTESIAN_POINT ( 'NONE',  ( -9.100011671745329878, -15.99999999999999645, 0.000000000000000000 ) ) ;
#102 = ADVANCED_FACE ( 'NONE', ( #339 ), #814, .F. ) ;
#103 = DIRECTION ( 'NONE',  ( 1.000000000000000000, 0.000000000000000000, 0.000000000000000000 ) ) ;
#104 = VERTEX_POINT ( 'NONE', #737 ) ;
#105 = LINE ( 'NONE', #47, #208 ) ;
#106 = DIRECTION ( 'NONE',  ( -0.000000000000000000, -0.000000000000000000, -1.000000000000000000 ) ) ;
#107 = VERTEX_POINT ( 'NONE', #212 ) ;
#108 = CIRCLE ( 'NONE', #148, 1.599999999999999867 ) ;
#109 = ORIENTED_EDGE ( 'NONE', *, *, #356, .F. ) ;
#110 = LINE ( 'NONE', #62, #830 ) ;
#111 = CYLINDRICAL_SURFACE ( 'NONE', #70, 1.500000000000000444 ) ;
#112 = ORIENTED_EDGE ( 'NONE', *, *, #197, .F. ) ;
#113 = EDGE_CURVE ( 'NONE', #128, #398, #671, .T. ) ;
#114 = PLANE ( 'NONE',  #494 ) ;
#115 = CARTESIAN_POINT ( 'NONE',  ( -14.63470857431496341, -20.99999999999999645, 31.23000000000021714 ) ) ;
#116 = ORIENTED_EDGE ( 'NONE', *, *, #280, .F. ) ;
#117 = CARTESIAN_POINT ( 'NONE',  ( -14.63470857431496341, -20.99999999999999645, 34.23000000000021714 ) ) ;
#118 = DIRECTION ( 'NONE',  ( 0.000000000000000000, -0.000000000000000000, 1.000000000000000000 ) ) ;
#119 = ORIENTED_EDGE ( 'NONE', *, *, #591, .F. ) ;
#120 = VECTOR ( 'NONE', #322, 1000.000000000000000 ) ;
#121 = LINE ( 'NONE', #587, #234 ) ;
#122 = APPROVAL_PERSON_ORGANIZATION ( #477, #693, #270 ) ;
#123 = CARTESIAN_POINT ( 'NONE',  ( -20.00000000000000000, -4.333483306307671867, 8.000000000000024869 ) ) ;
#124 = ORIENTED_EDGE ( 'NONE', *, *, #391, .T. ) ;
#125 = DIRECTION ( 'NONE',  ( 0.000000000000000000, 0.000000000000000000, 1.000000000000000000 ) ) ;
#126 = EDGE_CURVE ( 'NONE', #470, #96, #784, .T. ) ;
#127 = LINE ( 'NONE', #243, #674 ) ;
#128 = VERTEX_POINT ( 'NONE', #416 ) ;
#129 = DATE_TIME_ROLE ( 'classification_date' ) ;
#130 = DIRECTION ( 'NONE',  ( -0.000000000000000000, 1.000000000000000000, -0.000000000000000000 ) ) ;
#131 = EDGE_LOOP ( 'NONE', ( #49, #311, #801, #39 ) ) ;
#132 = DIRECTION ( 'NONE',  ( 0.000000000000000000, 1.000000000000000000, 0.000000000000000000 ) ) ;
#133 = AXIS2_PLACEMENT_3D ( 'NONE', #8, #132, #215 ) ;
#134 = LINE ( 'NONE', #138, #632 ) ;
#135 = EDGE_CURVE ( 'NONE', #68, #569, #540, .T. ) ;
#136 = SECURITY_CLASSIFICATION_LEVEL ( 'unclassified' ) ;
#137 = DIRECTION ( 'NONE',  ( -0.000000000000000000, 1.000000000000000000, -0.000000000000000000 ) ) ;
#138 = CARTESIAN_POINT ( 'NONE',  ( 20.61529142568503659, -20.99999999999999645, 40.99999999999999289 ) ) ;
#139 = ORIENTED_EDGE ( 'NONE', *, *, #740, .F. ) ;
#140 = EDGE_CURVE ( 'NONE', #788, #104, #413, .T. ) ;
#141 = LINE ( 'NONE', #405, #149 ) ;
#142 = DIRECTION ( 'NONE',  ( 0.000000000000000000, 0.000000000000000000, 1.000000000000000000 ) ) ;
#143 = ORIENTED_EDGE ( 'NONE', *, *, #663, .F. ) ;
#144 = COORDINATED_UNIVERSAL_TIME_OFFSET ( 10, 0, .AHEAD. ) ;
#145 = DIRECTION ( 'NONE',  ( 1.000000000000000000, 0.000000000000000000, 0.000000000000000000 ) ) ;
#146 = EDGE_CURVE ( 'NONE', #157, #36, #616, .T. ) ;
#147 = CARTESIAN_POINT ( 'NONE',  ( 15.86529142568493178, -31.00000000000000000, 2.229999999999999538 ) ) ;
#148 = AXIS2_PLACEMENT_3D ( 'NONE', #267, #607, #145 ) ;
#149 = VECTOR ( 'NONE', #670, 1000.000000000000000 ) ;
#150 = ORIENTED_EDGE ( 'NONE', *, *, #488, .T. ) ;
#151 = LINE ( 'NONE', #543, #703 ) ;
#152 = EDGE_CURVE ( 'NONE', #431, #269, #134, .T. ) ;
#153 = LINE ( 'NONE', #278, #481 ) ;
#154 = ORIENTED_EDGE ( 'NONE', *, *, #574, .F. ) ;
#155 = CARTESIAN_POINT ( 'NONE',  ( -7.500011671745328456, -15.99999999999999645, 0.000000000000000000 ) ) ;
#156 = LINE ( 'NONE', #765, #246 ) ;
#157 = VERTEX_POINT ( 'NONE', #685 ) ;
#158 = DIRECTION ( 'NONE',  ( -0.000000000000000000, 0.000000000000000000, 1.000000000000000000 ) ) ;
#159 = CARTESIAN_POINT ( 'NONE',  ( 15.86529142568493178, -31.00000000000000000, 2.229999999999999538 ) ) ;
#160 = CLOSED_SHELL ( 'NONE', ( #318, #253, #546, #26, #652, #380, #168, #818, #417, #80, #484, #729, #687, #351, #332, #436, #102, #75, #64, #790, #164, #53, #443, #706, #854 ) ) ;
#161 = AXIS2_PLACEMENT_3D ( 'NONE', #277, #746, #201 ) ;
#162 = ORIENTED_EDGE ( 'NONE', *, *, #126, .F. ) ;
#163 = CIRCLE ( 'NONE', #412, 1.500000000000001332 ) ;
#164 = ADVANCED_FACE ( 'NONE', ( #750 ), #298, .T. ) ;
#165 = LINE ( 'NONE', #353, #602 ) ;
#166 = LINE ( 'NONE', #691, #829 ) ;
#167 = ORIENTED_EDGE ( 'NONE', *, *, #471, .F. ) ;
#168 = ADVANCED_FACE ( 'NONE', ( #305, #826, #548 ), #554, .T. ) ;
#169 = LINE ( 'NONE', #432, #634 ) ;
#170 = DIRECTION ( 'NONE',  ( 0.000000000000000000, 0.000000000000000000, 1.000000000000000000 ) ) ;
#171 = ORIENTED_EDGE ( 'NONE', *, *, #459, .F. ) ;
#172 = CARTESIAN_POINT ( 'NONE',  ( 20.61529142568503659, -1.000000000000002665, 0.000000000000000000 ) ) ;
#173 = PRODUCT ( 'PowerMount2', 'PowerMount2', '', ( #775 ) ) ;
#174 = EDGE_CURVE ( 'NONE', #392, #669, #156, .T. ) ;
#175 = CARTESIAN_POINT ( 'NONE',  ( -20.00000000000000000, -4.333483306307671867, 25.00000000000000000 ) ) ;
#176 = EDGE_LOOP ( 'NONE', ( #150, #50 ) ) ;
#177 = AXIS2_PLACEMENT_3D ( 'NONE', #179, #456, #184 ) ;
#178 = DIRECTION ( 'NONE',  ( -0.000000000000000000, 1.000000000000000000, -0.000000000000000000 ) ) ;
#179 = CARTESIAN_POINT ( 'NONE',  ( -7.500011671745328456, -15.99999999999999645, 5.000000000000000000 ) ) ;
#180 = CC_DESIGN_PERSON_AND_ORGANIZATION_ASSIGNMENT ( #458, #467, ( #757 ) ) ;
#181 = VERTEX_POINT ( 'NONE', #363 ) ;
#182 = ORIENTED_EDGE ( 'NONE', *, *, #280, .T. ) ;
#183 = PERSON_AND_ORGANIZATION ( #18446744073709551615, #18446744073709551615 ) ;
#184 = DIRECTION ( 'NONE',  ( -1.000000000000000000, 0.000000000000000000, 0.000000000000000000 ) ) ;
#185 = ORIENTED_EDGE ( 'NONE', *, *, #476, .F. ) ;
#186 = CARTESIAN_POINT ( 'NONE',  ( -14.63470857431496341, -31.00000000000000000, 31.23000000000021714 ) ) ;
#187 = PLANE ( 'NONE',  #465 ) ;
#188 = VERTEX_POINT ( 'NONE', #832 ) ;
#189 = AXIS2_PLACEMENT_3D ( 'NONE', #638, #317, #843 ) ;
#190 = VECTOR ( 'NONE', #15, 1000.000000000000000 ) ;
#191 = VECTOR ( 'NONE', #19, 1000.000000000000000 ) ;
#192 = CARTESIAN_POINT ( 'NONE',  ( -14.63470857431496341, -20.99999999999999645, 32.73000000000021714 ) ) ;
#193 = PRODUCT_DEFINITION_FORMATION_WITH_SPECIFIED_SOURCE ( 'Symmetric', '', #173, .NOT_KNOWN. ) ;
#194 = DIRECTION ( 'NONE',  ( -0.000000000000000000, 0.000000000000000000, 1.000000000000000000 ) ) ;
#195 = ORIENTED_EDGE ( 'NONE', *, *, #555, .T. ) ;
#196 = APPROVAL_ROLE ( '' ) ;
#197 = EDGE_CURVE ( 'NONE', #837, #213, #166, .T. ) ;
#198 = DIRECTION ( 'NONE',  ( -0.000000000000000000, -0.000000000000000000, -1.000000000000000000 ) ) ;
#199 = ORIENTED_EDGE ( 'NONE', *, *, #822, .F. ) ;
#200 = DATE_AND_TIME ( #399, #453 ) ;
#201 = DIRECTION ( 'NONE',  ( 0.000000000000000000, -0.000000000000000000, -1.000000000000000000 ) ) ;
#202 = EDGE_CURVE ( 'NONE', #213, #398, #95, .T. ) ;
#203 = PLANE ( 'NONE',  #451 ) ;
#204 = ORIENTED_EDGE ( 'NONE', *, *, #391, .F. ) ;
#205 = DATE_AND_TIME ( #797, #43 ) ;
#206 = VECTOR ( 'NONE', #846, 1000.000000000000000 ) ;
#207 = DIRECTION ( 'NONE',  ( 1.000000000000000000, 0.000000000000000000, 0.000000000000000000 ) ) ;
#208 = VECTOR ( 'NONE', #831, 1000.000000000000000 ) ;
#209 = DIRECTION ( 'NONE',  ( -0.000000000000000000, 1.000000000000000000, -0.000000000000000000 ) ) ;
#210 = ORIENTED_EDGE ( 'NONE', *, *, #471, .T. ) ;
#211 = CARTESIAN_POINT ( 'NONE',  ( -20.00000000000000000, -7.333483306307660321, 5.000000000000000000 ) ) ;
#212 = CARTESIAN_POINT ( 'NONE',  ( -14.63470857431502559, -14.99999999999999822, 0.7300000000002138112 ) ) ;
#213 = VERTEX_POINT ( 'NONE', #375 ) ;
#214 = PERSON_AND_ORGANIZATION_ROLE ( 'design_owner' ) ;
#215 = DIRECTION ( 'NONE',  ( 0.000000000000000000, 0.000000000000000000, 1.000000000000000000 ) ) ;
#216 = FACE_BOUND ( 'NONE', #686, .T. ) ;
#217 = ORIENTED_EDGE ( 'NONE', *, *, #763, .F. ) ;
#218 = DIRECTION ( 'NONE',  ( 0.000000000000000000, 0.000000000000000000, 1.000000000000000000 ) ) ;
#219 = CARTESIAN_POINT ( 'NONE',  ( -14.63470857431502559, -31.00000000000000000, 2.230000000000214477 ) ) ;
#220 = CIRCLE ( 'NONE', #31, 1.599999999999999867 ) ;
#221 = EDGE_LOOP ( 'NONE', ( #621, #847, #388, #306 ) ) ;
#222 = DIRECTION ( 'NONE',  ( 0.000000000000000000, -1.000000000000000000, 0.000000000000000000 ) ) ;
#223 = DIRECTION ( 'NONE',  ( -0.000000000000000000, 0.000000000000000000, 1.000000000000000000 ) ) ;
#224 = EDGE_LOOP ( 'NONE', ( #266, #748, #680, #435 ) ) ;
#225 = CYLINDRICAL_SURFACE ( 'NONE', #827, 1.600000000000001643 ) ;
#226 = CARTESIAN_POINT ( 'NONE',  ( 20.61529142568503659, -1.000000000000002665, 25.00000000000000000 ) ) ;
#227 = EDGE_CURVE ( 'NONE', #364, #71, #695, .T. ) ;
#228 = ORIENTED_EDGE ( 'NONE', *, *, #586, .T. ) ;
#229 = DIRECTION ( 'NONE',  ( -0.000000000000000000, -0.000000000000000000, -1.000000000000000000 ) ) ;
#230 = CIRCLE ( 'NONE', #466, 1.500000000000001332 ) ;
#231 = CYLINDRICAL_SURFACE ( 'NONE', #662, 1.500000000000000444 ) ;
#232 = CIRCLE ( 'NONE', #133, 1.500000000000001332 ) ;
#233 = VERTEX_POINT ( 'NONE', #501 ) ;
#234 = VECTOR ( 'NONE', #178, 1000.000000000000000 ) ;
#235 = DIRECTION ( 'NONE',  ( 1.000000000000000000, 0.000000000000000000, 0.000000000000000000 ) ) ;
#236 = DIRECTION ( 'NONE',  ( -0.000000000000000000, 0.000000000000000000, 1.000000000000000000 ) ) ;
#237 = ORIENTED_EDGE ( 'NONE', *, *, #623, .T. ) ;
#238 = EDGE_CURVE ( 'NONE', #572, #295, #505, .T. ) ;
#239 = DIRECTION ( 'NONE',  ( 1.000000000000000000, 0.000000000000000000, 0.000000000000000000 ) ) ;
#240 = CARTESIAN_POINT ( 'NONE',  ( -20.00000000000000000, -4.333483306307671867, 25.00000000000000000 ) ) ;
#241 = ORIENTED_EDGE ( 'NONE', *, *, #126, .T. ) ;
#242 =( LENGTH_UNIT ( ) NAMED_UNIT ( * ) SI_UNIT ( .MILLI., .METRE. ) );
#243 = CARTESIAN_POINT ( 'NONE',  ( -20.00000000000000000, -23.99999999999999645, 40.99999999999999289 ) ) ;
#244 = ORIENTED_EDGE ( 'NONE', *, *, #346, .T. ) ;
#245 = VECTOR ( 'NONE', #60, 1000.000000000000000 ) ;
#246 = VECTOR ( 'NONE', #48, 1000.000000000000000 ) ;
#247 = APPLICATION_PROTOCOL_DEFINITION ( 'international standard', 'config_control_design', 1994, #721 ) ;
#248 = CARTESIAN_POINT ( 'NONE',  ( -20.00000000000000000, -1.000000000000002665, 0.000000000000000000 ) ) ;
#249 = EDGE_LOOP ( 'NONE', ( #376, #185, #490, #348 ) ) ;
#250 = FACE_OUTER_BOUND ( 'NONE', #589, .T. ) ;
#251 = CARTESIAN_POINT ( 'NONE',  ( 15.86529142568499395, -31.00000000000000000, 32.73000000000000398 ) ) ;
#252 = VERTEX_POINT ( 'NONE', #561 ) ;
#253 = ADVANCED_FACE ( 'NONE', ( #41 ), #231, .F. ) ;
#254 = DIRECTION ( 'NONE',  ( 0.000000000000000000, 0.000000000000000000, -1.000000000000000000 ) ) ;
#255 = LINE ( 'NONE', #383, #300 ) ;
#256 = PRODUCT_DEFINITION_SHAPE ( 'NONE', 'NONE',  #757 ) ;
#257 = ORIENTED_EDGE ( 'NONE', *, *, #202, .F. ) ;
#258 = CC_DESIGN_APPROVAL ( #58, ( #757 ) ) ;
#259 = VECTOR ( 'NONE', #526, 1000.000000000000000 ) ;
#260 =( NAMED_UNIT ( * ) PLANE_ANGLE_UNIT ( ) SI_UNIT ( $, .RADIAN. ) );
#261 = VECTOR ( 'NONE', #37, 1000.000000000000000 ) ;
#262 = CARTESIAN_POINT ( 'NONE',  ( -9.100011671745329878, -15.99999999999999645, 5.000000000000000000 ) ) ;
#263 = ORIENTED_EDGE ( 'NONE', *, *, #678, .T. ) ;
#264 = EDGE_CURVE ( 'NONE', #188, #421, #496, .T. ) ;
#265 = FACE_BOUND ( 'NONE', #853, .T. ) ;
#266 = ORIENTED_EDGE ( 'NONE', *, *, #146, .F. ) ;
#267 = CARTESIAN_POINT ( 'NONE',  ( -7.500011671745328456, -15.99999999999999645, 5.000000000000000000 ) ) ;
#268 = FACE_BOUND ( 'NONE', #770, .T. ) ;
#269 = VERTEX_POINT ( 'NONE', #420 ) ;
#270 = APPROVAL_ROLE ( '' ) ;
#271 = AXIS2_PLACEMENT_3D ( 'NONE', #291, #236, #103 ) ;
#272 = CARTESIAN_POINT ( 'NONE',  ( 5.899988328254668346, -16.00000000000001066, 0.000000000000000000 ) ) ;
#273 = SECURITY_CLASSIFICATION ( '', '', #136 ) ;
#274 = PLANE ( 'NONE',  #29 ) ;
#275 = ORIENTED_EDGE ( 'NONE', *, *, #656, .T. ) ;
#276 = DATE_AND_TIME ( #533, #59 ) ;
#277 = CARTESIAN_POINT ( 'NONE',  ( -20.00000000000000000, -20.99999999999999645, 40.99999999999999289 ) ) ;
#278 = CARTESIAN_POINT ( 'NONE',  ( 20.61529142568503659, 0.000000000000000000, 0.000000000000000000 ) ) ;
#279 = EDGE_LOOP ( 'NONE', ( #628, #310, #556, #613 ) ) ;
#280 = EDGE_CURVE ( 'NONE', #414, #683, #438, .T. ) ;
#281 = CALENDAR_DATE ( 2026, 22, 6 ) ;
#282 = DIRECTION ( 'NONE',  ( 0.000000000000000000, 1.000000000000000000, 0.000000000000000000 ) ) ;
#283 = CARTESIAN_POINT ( 'NONE',  ( -20.00000000000000000, -23.99999999999999645, 40.99999999999999289 ) ) ;
#284 = ORIENTED_EDGE ( 'NONE', *, *, #264, .F. ) ;
#285 = DIRECTION ( 'NONE',  ( 1.000000000000000000, 0.000000000000000000, 0.000000000000000000 ) ) ;
#286 = DIRECTION ( 'NONE',  ( -0.000000000000000000, 1.000000000000000000, -0.000000000000000000 ) ) ;
#287 = AXIS2_PLACEMENT_3D ( 'NONE', #711, #517, #118 ) ;
#288 = ORIENTED_EDGE ( 'NONE', *, *, #455, .T. ) ;
#289 = CARTESIAN_POINT ( 'NONE',  ( 0.000000000000000000, 0.000000000000000000, 25.00000000000000000 ) ) ;
#290 = EDGE_CURVE ( 'NONE', #530, #545, #699, .T. ) ;
#291 = CARTESIAN_POINT ( 'NONE',  ( 0.000000000000000000, 0.000000000000000000, 5.000000000000000000 ) ) ;
#292 = EDGE_LOOP ( 'NONE', ( #100, #654, #327, #617 ) ) ;
#293 = DIRECTION ( 'NONE',  ( -0.000000000000000000, -0.000000000000000000, -1.000000000000000000 ) ) ;
#294 = DIRECTION ( 'NONE',  ( 0.000000000000000000, -1.000000000000000000, 0.000000000000000000 ) ) ;
#295 = VERTEX_POINT ( 'NONE', #240 ) ;
#296 = FACE_OUTER_BOUND ( 'NONE', #301, .T. ) ;
#297 = VECTOR ( 'NONE', #222, 1000.000000000000000 ) ;
#298 = PLANE ( 'NONE',  #577 ) ;
#299 = AXIS2_PLACEMENT_3D ( 'NONE', #219, #209, #82 ) ;
#300 = VECTOR ( 'NONE', #393, 1000.000000000000000 ) ;
#301 = EDGE_LOOP ( 'NONE', ( #513, #373, #635, #394 ) ) ;
#302 = EDGE_CURVE ( 'NONE', #295, #233, #768, .T. ) ;
#303 = CC_DESIGN_APPROVAL ( #3, ( #273 ) ) ;
#304 = DIRECTION ( 'NONE',  ( -1.000000000000000000, -0.000000000000000000, -0.000000000000000000 ) ) ;
#305 = FACE_BOUND ( 'NONE', #718, .T. ) ;
#306 = ORIENTED_EDGE ( 'NONE', *, *, #614, .T. ) ;
#307 = EDGE_CURVE ( 'NONE', #96, #470, #800, .T. ) ;
#308 = DIRECTION ( 'NONE',  ( 1.000000000000000000, 0.000000000000000000, 0.000000000000000000 ) ) ;
#309 = FACE_BOUND ( 'NONE', #176, .T. ) ;
#310 = ORIENTED_EDGE ( 'NONE', *, *, #140, .T. ) ;
#311 = ORIENTED_EDGE ( 'NONE', *, *, #609, .T. ) ;
#312 = CARTESIAN_POINT ( 'NONE',  ( 20.61529142568503659, -20.99999999999999645, 36.00000000000000000 ) ) ;
#313 = VERTEX_POINT ( 'NONE', #704 ) ;
#314 = CIRCLE ( 'NONE', #423, 1.500000000000000444 ) ;
#315 = VECTOR ( 'NONE', #733, 1000.000000000000000 ) ;
#316 = CIRCLE ( 'NONE', #759, 1.600000000000002531 ) ;
#317 = DIRECTION ( 'NONE',  ( 0.000000000000000000, 0.7071067811865517916, -0.7071067811865433539 ) ) ;
#318 = ADVANCED_FACE ( 'NONE', ( #754 ), #111, .F. ) ;
#319 = CARTESIAN_POINT ( 'NONE',  ( 15.86529142568493178, -14.99999999999999822, 3.729999999999999982 ) ) ;
#320 = ORIENTED_EDGE ( 'NONE', *, *, #135, .T. ) ;
#321 = PLANE ( 'NONE',  #46 ) ;
#322 = DIRECTION ( 'NONE',  ( 0.000000000000000000, 0.7071067811865433539, 0.7071067811865517916 ) ) ;
#323 = PRODUCT_RELATED_PRODUCT_CATEGORY ( 'detail', '', ( #173 ) ) ;
#324 = ORIENTED_EDGE ( 'NONE', *, *, #596, .F. ) ;
#325 = CARTESIAN_POINT ( 'NONE',  ( 20.61529142568503659, -23.99999999999999645, 0.000000000000000000 ) ) ;
#326 = CARTESIAN_POINT ( 'NONE',  ( -14.63470857431496341, -23.99999999999999645, 31.23000000000021714 ) ) ;
#327 = ORIENTED_EDGE ( 'NONE', *, *, #488, .F. ) ;
#328 = EDGE_CURVE ( 'NONE', #683, #842, #426, .T. ) ;
#329 = AXIS2_PLACEMENT_3D ( 'NONE', #330, #732, #667 ) ;
#330 = CARTESIAN_POINT ( 'NONE',  ( -14.63470857431496341, -31.00000000000000000, 32.73000000000021714 ) ) ;
#331 = EDGE_LOOP ( 'NONE', ( #217, #6 ) ) ;
#332 = ADVANCED_FACE ( 'NONE', ( #51 ), #723, .F. ) ;
#333 = APPROVAL_STATUS ( 'not_yet_approved' ) ;
#334 = DIRECTION ( 'NONE',  ( -0.000000000000000000, 0.000000000000000000, 1.000000000000000000 ) ) ;
#335 = FACE_BOUND ( 'NONE', #777, .T. ) ;
#336 = VERTEX_POINT ( 'NONE', #248 ) ;
#337 = CARTESIAN_POINT ( 'NONE',  ( -7.500011671745328456, -15.99999999999999645, 5.000000000000000000 ) ) ;
#338 = APPLICATION_CONTEXT ( 'configuration controlled 3d designs of mechanical parts and assemblies' ) ;
#339 = FACE_OUTER_BOUND ( 'NONE', #221, .T. ) ;
#340 = VERTEX_POINT ( 'NONE', #115 ) ;
#341 = VECTOR ( 'NONE', #382, 1000.000000000000000 ) ;
#342 = PERSON_AND_ORGANIZATION_ROLE ( 'creator' ) ;
#343 = AXIS2_PLACEMENT_3D ( 'NONE', #468, #534, #593 ) ;
#344 = DIRECTION ( 'NONE',  ( 1.000000000000000000, 0.000000000000000000, 0.000000000000000000 ) ) ;
#345 = APPROVAL_PERSON_ORGANIZATION ( #524, #3, #802 ) ;
#346 = EDGE_CURVE ( 'NONE', #431, #68, #839, .T. ) ;
#347 = DIRECTION ( 'NONE',  ( 0.000000000000000000, 1.000000000000000000, 0.000000000000000000 ) ) ;
#348 = ORIENTED_EDGE ( 'NONE', *, *, #794, .F. ) ;
#349 = CARTESIAN_POINT ( 'NONE',  ( -20.00000000000000000, -20.99999999999999645, 5.000000000000000000 ) ) ;
#350 = FACE_BOUND ( 'NONE', #734, .T. ) ;
#351 = ADVANCED_FACE ( 'NONE', ( #581, #309, #584 ), #187, .F. ) ;
#352 = ORIENTED_EDGE ( 'NONE', *, *, #656, .F. ) ;
#353 = CARTESIAN_POINT ( 'NONE',  ( 20.61529142568503659, -1.000000000000002665, 5.000000000000000000 ) ) ;
#354 = CARTESIAN_POINT ( 'NONE',  ( 0.000000000000000000, -1.000000000000002665, 0.000000000000000000 ) ) ;
#355 = ORIENTED_EDGE ( 'NONE', *, *, #307, .T. ) ;
#356 = EDGE_CURVE ( 'NONE', #585, #233, #849, .T. ) ;
#357 = DIRECTION ( 'NONE',  ( -0.000000000000000000, 0.000000000000000000, 1.000000000000000000 ) ) ;
#358 = VECTOR ( 'NONE', #813, 1000.000000000000000 ) ;
#359 = DIRECTION ( 'NONE',  ( 0.000000000000000000, 0.000000000000000000, 1.000000000000000000 ) ) ;
#360 = AXIS2_PLACEMENT_3D ( 'NONE', #155, #357, #34 ) ;
#361 = ORIENTED_EDGE ( 'NONE', *, *, #740, .T. ) ;
#362 = DIRECTION ( 'NONE',  ( -1.000000000000000000, 0.000000000000000000, 0.000000000000000000 ) ) ;
#363 = CARTESIAN_POINT ( 'NONE',  ( -14.63470857431502559, -23.99999999999999645, 0.7300000000002138112 ) ) ;
#364 = VERTEX_POINT ( 'NONE', #773 ) ;
#365 = CARTESIAN_POINT ( 'NONE',  ( 9.099988328254672965, -16.00000000000001066, 5.000000000000000000 ) ) ;
#366 = DIRECTION ( 'NONE',  ( 1.000000000000000000, 0.000000000000000000, 0.000000000000000000 ) ) ;
#367 = VERTEX_POINT ( 'NONE', #319 ) ;
#368 = DIRECTION ( 'NONE',  ( -0.000000000000000000, -0.000000000000000000, -1.000000000000000000 ) ) ;
#369 = VECTOR ( 'NONE', #40, 1000.000000000000000 ) ;
#370 = DIRECTION ( 'NONE',  ( 0.000000000000000000, 0.000000000000000000, -1.000000000000000000 ) ) ;
#371 = AXIS2_PLACEMENT_3D ( 'NONE', #497, #223, #489 ) ;
#372 = EDGE_LOOP ( 'NONE', ( #712, #288, #722, #744 ) ) ;
#373 = ORIENTED_EDGE ( 'NONE', *, *, #264, .T. ) ;
#374 = CARTESIAN_POINT ( 'NONE',  ( 20.61529142568503659, -23.99999999999999645, 36.00000000000000000 ) ) ;
#375 = CARTESIAN_POINT ( 'NONE',  ( 15.86529142568499395, -20.99999999999999645, 34.23000000000000398 ) ) ;
#376 = ORIENTED_EDGE ( 'NONE', *, *, #834, .F. ) ;
#377 = DIRECTION ( 'NONE',  ( -1.000000000000000000, 0.000000000000000000, 0.000000000000000000 ) ) ;
#378 = DIRECTION ( 'NONE',  ( -0.000000000000000000, 1.000000000000000000, -0.000000000000000000 ) ) ;
#379 = ORIENTED_EDGE ( 'NONE', *, *, #623, .F. ) ;
#380 = ADVANCED_FACE ( 'NONE', ( #514 ), #576, .F. ) ;
#381 = EDGE_LOOP ( 'NONE', ( #752, #599 ) ) ;
#382 = DIRECTION ( 'NONE',  ( -0.000000000000000000, 1.000000000000000000, -0.000000000000000000 ) ) ;
#383 = CARTESIAN_POINT ( 'NONE',  ( -20.00000000000000000, 0.000000000000000000, 5.000000000000000000 ) ) ;
#384 = CIRCLE ( 'NONE', #743, 1.500000000000001332 ) ;
#385 = ORIENTED_EDGE ( 'NONE', *, *, #290, .F. ) ;
#386 = CIRCLE ( 'NONE', #509, 1.500000000000001332 ) ;
#387 = DIRECTION ( 'NONE',  ( 1.000000000000000000, 0.000000000000000000, 0.000000000000000000 ) ) ;
#388 = ORIENTED_EDGE ( 'NONE', *, *, #812, .T. ) ;
#389 = LINE ( 'NONE', #186, #341 ) ;
#390 = DIRECTION ( 'NONE',  ( 1.000000000000000000, 0.000000000000000000, -0.000000000000000000 ) ) ;
#391 = EDGE_CURVE ( 'NONE', #364, #104, #127, .T. ) ;
#392 = VERTEX_POINT ( 'NONE', #262 ) ;
#393 = DIRECTION ( 'NONE',  ( 0.000000000000000000, 1.000000000000000000, -0.000000000000000000 ) ) ;
#394 = ORIENTED_EDGE ( 'NONE', *, *, #636, .F. ) ;
#395 = VECTOR ( 'NONE', #795, 1000.000000000000000 ) ;
#396 = DIRECTION ( 'NONE',  ( -0.000000000000000000, 0.000000000000000000, 1.000000000000000000 ) ) ;
#397 = CARTESIAN_POINT ( 'NONE',  ( 15.86529142568499395, -31.00000000000000000, 32.73000000000000398 ) ) ;
#398 = VERTEX_POINT ( 'NONE', #588 ) ;
#399 = CALENDAR_DATE ( 2026, 22, 6 ) ;
#400 = LINE ( 'NONE', #349, #191 ) ;
#401 = FACE_OUTER_BOUND ( 'NONE', #446, .T. ) ;
#402 = EDGE_LOOP ( 'NONE', ( #828, #124, #637, #352 ) ) ;
#403 = COORDINATED_UNIVERSAL_TIME_OFFSET ( 10, 0, .AHEAD. ) ;
#404 = EDGE_CURVE ( 'NONE', #181, #107, #720, .T. ) ;
#405 = CARTESIAN_POINT ( 'NONE',  ( 0.000000000000000000, -7.333483306307660321, 5.000000000000000000 ) ) ;
#406 = CYLINDRICAL_SURFACE ( 'NONE', #661, 1.500000000000001332 ) ;
#407 = EDGE_LOOP ( 'NONE', ( #673, #645, #56, #811 ) ) ;
#408 = AXIS2_PLACEMENT_3D ( 'NONE', #66, #702, #308 ) ;
#409 = APPLICATION_PROTOCOL_DEFINITION ( 'international standard', 'config_control_design', 1994, #338 ) ;
#410 = CC_DESIGN_DATE_AND_TIME_ASSIGNMENT ( #731, #472, ( #757 ) ) ;
#411 = LINE ( 'NONE', #5, #395 ) ;
#412 = AXIS2_PLACEMENT_3D ( 'NONE', #192, #646, #838 ) ;
#413 = LINE ( 'NONE', #469, #315 ) ;
#414 = VERTEX_POINT ( 'NONE', #326 ) ;
#415 = CARTESIAN_POINT ( 'NONE',  ( 20.61529142568503659, -4.333483306307671867, 25.00000000000000000 ) ) ;
#416 = CARTESIAN_POINT ( 'NONE',  ( 15.86529142568499395, -23.99999999999999645, 31.23000000000000043 ) ) ;
#417 = ADVANCED_FACE ( 'NONE', ( #655 ), #708, .T. ) ;
#418 = ORIENTED_EDGE ( 'NONE', *, *, #564, .F. ) ;
#419 = PLANE ( 'NONE',  #449 ) ;
#420 = CARTESIAN_POINT ( 'NONE',  ( 20.61529142568503659, -20.99999999999999645, 5.000000000000000000 ) ) ;
#421 = VERTEX_POINT ( 'NONE', #508 ) ;
#422 = CC_DESIGN_DATE_AND_TIME_ASSIGNMENT ( #739, #129, ( #273 ) ) ;
#423 = AXIS2_PLACEMENT_3D ( 'NONE', #665, #77, #544 ) ;
#424 = DIRECTION ( 'NONE',  ( 0.000000000000000000, 0.000000000000000000, 1.000000000000000000 ) ) ;
#425 = AXIS2_PLACEMENT_3D ( 'NONE', #633, #437, #492 ) ;
#426 = LINE ( 'NONE', #38, #245 ) ;
#427 = APPROVAL_PERSON_ORGANIZATION ( #807, #58, #196 ) ;
#428 = ORIENTED_EDGE ( 'NONE', *, *, #455, .F. ) ;
#429 = CYLINDRICAL_SURFACE ( 'NONE', #557, 1.600000000000001643 ) ;
#430 = DIRECTION ( 'NONE',  ( 0.000000000000000000, -1.000000000000000000, 0.000000000000000000 ) ) ;
#431 = VERTEX_POINT ( 'NONE', #512 ) ;
#432 = CARTESIAN_POINT ( 'NONE',  ( 20.61529142568503659, -23.99999999999999645, 40.99999999999999289 ) ) ;
#433 = EDGE_CURVE ( 'NONE', #569, #585, #255, .T. ) ;
#434 = CARTESIAN_POINT ( 'NONE',  ( -14.63470857431496341, -23.99999999999999645, 32.73000000000021714 ) ) ;
#435 = ORIENTED_EDGE ( 'NONE', *, *, #641, .F. ) ;
#436 = ADVANCED_FACE ( 'NONE', ( #441 ), #780, .F. ) ;
#437 = DIRECTION ( 'NONE',  ( 0.000000000000000000, 1.000000000000000000, 0.000000000000000000 ) ) ;
#438 = CIRCLE ( 'NONE', #772, 1.500000000000001332 ) ;
#439 = ORIENTED_EDGE ( 'NONE', *, *, #152, .F. ) ;
#440 = DIRECTION ( 'NONE',  ( 1.000000000000000000, 0.000000000000000000, 0.000000000000000000 ) ) ;
#441 = FACE_OUTER_BOUND ( 'NONE', #249, .T. ) ;
#442 = ORIENTED_EDGE ( 'NONE', *, *, #806, .F. ) ;
#443 = ADVANCED_FACE ( 'NONE', ( #67 ), #1, .F. ) ;
#444 = ORIENTED_EDGE ( 'NONE', *, *, #227, .T. ) ;
#445 = DIRECTION ( 'NONE',  ( 0.000000000000000000, 0.000000000000000000, 1.000000000000000000 ) ) ;
#446 = EDGE_LOOP ( 'NONE', ( #762, #324 ) ) ;
#447 = CC_DESIGN_PERSON_AND_ORGANIZATION_ASSIGNMENT ( #183, #214, ( #173 ) ) ;
#448 = LINE ( 'NONE', #123, #531 ) ;
#449 = AXIS2_PLACEMENT_3D ( 'NONE', #289, #550, #235 ) ;
#450 = EDGE_LOOP ( 'NONE', ( #439, #199, #275, #725, #379, #385, #89, #210, #541 ) ) ;
#451 = AXIS2_PLACEMENT_3D ( 'NONE', #354, #464, #142 ) ;
#452 = AXIS2_PLACEMENT_3D ( 'NONE', #852, #378, #445 ) ;
#453 = LOCAL_TIME ( 18, 50, 19.00000000000000000, #144 ) ;
#454 = FACE_OUTER_BOUND ( 'NONE', #331, .T. ) ;
#455 = EDGE_CURVE ( 'NONE', #233, #52, #448, .T. ) ;
#456 = DIRECTION ( 'NONE',  ( -0.000000000000000000, -0.000000000000000000, -1.000000000000000000 ) ) ;
#457 = EDGE_LOOP ( 'NONE', ( #204, #793, #320, #756, #30, #709, #92, #119, #171 ) ) ;
#458 = PERSON_AND_ORGANIZATION ( #18446744073709551615, #18446744073709551615 ) ;
#459 = EDGE_CURVE ( 'NONE', #104, #336, #785, .T. ) ;
#460 = DIRECTION ( 'NONE',  ( 0.000000000000000000, 1.000000000000000000, -0.000000000000000000 ) ) ;
#461 = EDGE_LOOP ( 'NONE', ( #2, #143, #480, #442 ) ) ;
#462 = PERSON_AND_ORGANIZATION ( #18446744073709551615, #18446744073709551615 ) ;
#463 = FACE_OUTER_BOUND ( 'NONE', #537, .T. ) ;
#464 = DIRECTION ( 'NONE',  ( 0.000000000000000000, 1.000000000000000000, -0.000000000000000000 ) ) ;
#465 = AXIS2_PLACEMENT_3D ( 'NONE', #522, #194, #776 ) ;
#466 = AXIS2_PLACEMENT_3D ( 'NONE', #516, #710, #254 ) ;
#467 = PERSON_AND_ORGANIZATION_ROLE ( 'creator' ) ;
#468 = CARTESIAN_POINT ( 'NONE',  ( -14.63470857431502559, -23.99999999999999645, 2.230000000000214477 ) ) ;
#469 = CARTESIAN_POINT ( 'NONE',  ( -0.000000000000000000, -23.99999999999999645, 0.000000000000000000 ) ) ;
#470 = VERTEX_POINT ( 'NONE', #571 ) ;
#471 = EDGE_CURVE ( 'NONE', #52, #252, #411, .T. ) ;
#472 = DATE_TIME_ROLE ( 'creation_date' ) ;
#473 = DIRECTION ( 'NONE',  ( 0.000000000000000000, 0.000000000000000000, 1.000000000000000000 ) ) ;
#474 = FACE_OUTER_BOUND ( 'NONE', #17, .T. ) ;
#475 = VERTEX_POINT ( 'NONE', #13 ) ;
#476 = EDGE_CURVE ( 'NONE', #683, #414, #520, .T. ) ;
#477 = PERSON_AND_ORGANIZATION ( #18446744073709551615, #18446744073709551615 ) ;
#478 = CARTESIAN_POINT ( 'NONE',  ( 15.86529142568493178, -31.00000000000000000, 0.7299999999999986500 ) ) ;
#479 = CARTESIAN_POINT ( 'NONE',  ( -20.00000000000000000, -20.99999999999999645, 40.99999999999999289 ) ) ;
#480 = ORIENTED_EDGE ( 'NONE', *, *, #197, .T. ) ;
#481 = VECTOR ( 'NONE', #742, 1000.000000000000000 ) ;
#482 = AXIS2_PLACEMENT_3D ( 'NONE', #653, #390, #715 ) ;
#483 = CARTESIAN_POINT ( 'NONE',  ( -14.63470857431502559, -14.99999999999999822, 2.230000000000214477 ) ) ;
#484 = ADVANCED_FACE ( 'NONE', ( #81, #265, #539 ), #525, .F. ) ;
#485 = CARTESIAN_POINT ( 'NONE',  ( 15.86529142568493178, -23.99999999999999645, 2.229999999999999538 ) ) ;
#486 = ORIENTED_EDGE ( 'NONE', *, *, #152, .T. ) ;
#487 = CARTESIAN_POINT ( 'NONE',  ( 15.86529142568493178, -14.99999999999999822, 2.229999999999999538 ) ) ;
#488 = EDGE_CURVE ( 'NONE', #669, #36, #649, .T. ) ;
#489 = DIRECTION ( 'NONE',  ( 1.000000000000000000, 0.000000000000000000, 0.000000000000000000 ) ) ;
#490 = ORIENTED_EDGE ( 'NONE', *, *, #328, .T. ) ;
#491 = LINE ( 'NONE', #172, #79 ) ;
#492 = DIRECTION ( 'NONE',  ( 0.000000000000000000, 0.000000000000000000, 1.000000000000000000 ) ) ;
#493 = EDGE_LOOP ( 'NONE', ( #594, #603, #563, #701 ) ) ;
#494 = AXIS2_PLACEMENT_3D ( 'NONE', #642, #848, #771 ) ;
#495 = DIRECTION ( 'NONE',  ( -1.000000000000000000, 0.000000000000000000, 0.000000000000000000 ) ) ;
#496 = CIRCLE ( 'NONE', #371, 1.600000000000002531 ) ;
#497 = CARTESIAN_POINT ( 'NONE',  ( 7.499988328254670655, -16.00000000000001066, 5.000000000000000000 ) ) ;
#498 = EDGE_LOOP ( 'NONE', ( #244, #610, #444, #21 ) ) ;
#499 = EDGE_CURVE ( 'NONE', #392, #157, #220, .T. ) ;
#500 = LINE ( 'NONE', #631, #855 ) ;
#501 = CARTESIAN_POINT ( 'NONE',  ( -20.00000000000000000, -4.333483306307671867, 8.000000000000024869 ) ) ;
#502 = VERTEX_POINT ( 'NONE', #272 ) ;
#503 = CC_DESIGN_PERSON_AND_ORGANIZATION_ASSIGNMENT ( #789, #18, ( #193 ) ) ;
#504 = DIRECTION ( 'NONE',  ( 0.000000000000000000, 1.000000000000000000, -0.000000000000000000 ) ) ;
#505 = LINE ( 'NONE', #627, #604 ) ;
#506 = ORIENTED_EDGE ( 'NONE', *, *, #499, .F. ) ;
#507 = EDGE_CURVE ( 'NONE', #157, #392, #108, .T. ) ;
#508 = CARTESIAN_POINT ( 'NONE',  ( 5.899988328254668346, -16.00000000000001066, 5.000000000000000000 ) ) ;
#509 = AXIS2_PLACEMENT_3D ( 'NONE', #600, #69, #72 ) ;
#510 = ORIENTED_EDGE ( 'NONE', *, *, #591, .T. ) ;
#511 = DIRECTION ( 'NONE',  ( -0.000000000000000000, 1.000000000000000000, -0.000000000000000000 ) ) ;
#512 = CARTESIAN_POINT ( 'NONE',  ( 20.61529142568503659, -20.99999999999999645, 36.00000000000000000 ) ) ;
#513 = ORIENTED_EDGE ( 'NONE', *, *, #678, .F. ) ;
#514 = FACE_OUTER_BOUND ( 'NONE', #292, .T. ) ;
#515 = FACE_OUTER_BOUND ( 'NONE', #552, .T. ) ;
#516 = CARTESIAN_POINT ( 'NONE',  ( 15.86529142568499395, -20.99999999999999645, 32.73000000000000398 ) ) ;
#517 = DIRECTION ( 'NONE',  ( 0.000000000000000000, 1.000000000000000000, 0.000000000000000000 ) ) ;
#518 = LOCAL_TIME ( 18, 50, 19.00000000000000000, #11 ) ;
#519 = ORIENTED_EDGE ( 'NONE', *, *, #555, .F. ) ;
#520 = CIRCLE ( 'NONE', #728, 1.500000000000001332 ) ;
#521 = CC_DESIGN_SECURITY_CLASSIFICATION ( #273, ( #193 ) ) ;
#522 = CARTESIAN_POINT ( 'NONE',  ( 0.000000000000000000, 0.000000000000000000, 0.000000000000000000 ) ) ;
#523 = ORIENTED_EDGE ( 'NONE', *, *, #568, .T. ) ;
#524 = PERSON_AND_ORGANIZATION ( #18446744073709551615, #18446744073709551615 ) ;
#525 = PLANE ( 'NONE',  #161 ) ;
#526 = DIRECTION ( 'NONE',  ( -0.000000000000000000, -0.000000000000000000, -1.000000000000000000 ) ) ;
#527 = CARTESIAN_POINT ( 'NONE',  ( -20.00000000000000000, -20.99999999999999645, 5.000000000000000000 ) ) ;
#528 = EDGE_CURVE ( 'NONE', #842, #340, #386, .T. ) ;
#529 = FACE_OUTER_BOUND ( 'NONE', #402, .T. ) ;
#530 = VERTEX_POINT ( 'NONE', #798 ) ;
#531 = VECTOR ( 'NONE', #387, 1000.000000000000000 ) ;
#532 = CC_DESIGN_APPROVAL ( #693, ( #193 ) ) ;
#533 = CALENDAR_DATE ( 2026, 22, 6 ) ;
#534 = DIRECTION ( 'NONE',  ( 0.000000000000000000, 1.000000000000000000, 0.000000000000000000 ) ) ;
#535 = CARTESIAN_POINT ( 'NONE',  ( -5.900011671745327924, -15.99999999999999645, 0.000000000000000000 ) ) ;
#536 = CC_DESIGN_PERSON_AND_ORGANIZATION_ASSIGNMENT ( #595, #342, ( #193 ) ) ;
#537 = EDGE_LOOP ( 'NONE', ( #116, #549, #696, #630 ) ) ;
#538 = APPROVAL_DATE_TIME ( #276, #693 ) ;
#539 = FACE_OUTER_BOUND ( 'NONE', #640, .T. ) ;
#540 = LINE ( 'NONE', #479, #618 ) ;
#541 = ORIENTED_EDGE ( 'NONE', *, *, #751, .T. ) ;
#542 = EDGE_CURVE ( 'NONE', #295, #530, #151, .T. ) ;
#543 = CARTESIAN_POINT ( 'NONE',  ( -20.00000000000000000, -4.333483306307671867, 25.00000000000000000 ) ) ;
#544 = DIRECTION ( 'NONE',  ( 0.000000000000000000, 0.000000000000000000, 1.000000000000000000 ) ) ;
#545 = VERTEX_POINT ( 'NONE', #736 ) ;
#546 = ADVANCED_FACE ( 'NONE', ( #463 ), #726, .F. ) ;
#547 = FACE_OUTER_BOUND ( 'NONE', #820, .T. ) ;
#548 = FACE_OUTER_BOUND ( 'NONE', #131, .T. ) ;
#549 = ORIENTED_EDGE ( 'NONE', *, *, #834, .T. ) ;
#550 = DIRECTION ( 'NONE',  ( -0.000000000000000000, 0.000000000000000000, 1.000000000000000000 ) ) ;
#551 = DIRECTION ( 'NONE',  ( -0.000000000000000000, 1.000000000000000000, -0.000000000000000000 ) ) ;
#552 = EDGE_LOOP ( 'NONE', ( #519, #692, #257, #112 ) ) ;
#553 = LINE ( 'NONE', #817, #297 ) ;
#554 = PLANE ( 'NONE',  #271 ) ;
#555 = EDGE_CURVE ( 'NONE', #128, #837, #232, .T. ) ;
#556 = ORIENTED_EDGE ( 'NONE', *, *, #459, .T. ) ;
#557 = AXIS2_PLACEMENT_3D ( 'NONE', #764, #229, #495 ) ;
#558 = AXIS2_PLACEMENT_3D ( 'NONE', #283, #804, #91 ) ;
#559 = CARTESIAN_POINT ( 'NONE',  ( 7.499988328254670655, -16.00000000000001066, 5.000000000000000000 ) ) ;
#560 = VECTOR ( 'NONE', #137, 1000.000000000000000 ) ;
#561 = CARTESIAN_POINT ( 'NONE',  ( 20.61529142568503659, -7.333483306307660321, 5.000000000000000000 ) ) ;
#562 = CIRCLE ( 'NONE', #16, 1.600000000000002531 ) ;
#563 = ORIENTED_EDGE ( 'NONE', *, *, #88, .T. ) ;
#564 = EDGE_CURVE ( 'NONE', #421, #502, #741, .T. ) ;
#565 = FACE_OUTER_BOUND ( 'NONE', #74, .T. ) ;
#566 = DIRECTION ( 'NONE',  ( -0.000000000000000000, 1.000000000000000000, -0.000000000000000000 ) ) ;
#567 = ORIENTED_EDGE ( 'NONE', *, *, #135, .F. ) ;
#568 = EDGE_CURVE ( 'NONE', #181, #475, #716, .T. ) ;
#569 = VERTEX_POINT ( 'NONE', #527 ) ;
#570 = CARTESIAN_POINT ( 'NONE',  ( -20.00000000000000000, 0.000000000000000000, 5.000000000000000000 ) ) ;
#571 = CARTESIAN_POINT ( 'NONE',  ( 15.86529142568493178, -23.99999999999999645, 3.729999999999999982 ) ) ;
#572 = VERTEX_POINT ( 'NONE', #23 ) ;
#573 = EDGE_LOOP ( 'NONE', ( #738, #579 ) ) ;
#574 = EDGE_CURVE ( 'NONE', #96, #657, #597, .T. ) ;
#575 = CIRCLE ( 'NONE', #647, 1.500000000000000444 ) ;
#576 = CYLINDRICAL_SURFACE ( 'NONE', #177, 1.600000000000000755 ) ;
#577 = AXIS2_PLACEMENT_3D ( 'NONE', #836, #359, #761 ) ;
#578 = CIRCLE ( 'NONE', #714, 1.600000000000002531 ) ;
#579 = ORIENTED_EDGE ( 'NONE', *, *, #636, .T. ) ;
#580 = DIRECTION ( 'NONE',  ( -1.000000000000000000, 0.000000000000000000, 0.000000000000000000 ) ) ;
#581 = FACE_OUTER_BOUND ( 'NONE', #279, .T. ) ;
#582 = DIRECTION ( 'NONE',  ( 0.000000000000000000, 1.000000000000000000, 0.000000000000000000 ) ) ;
#583 = FACE_OUTER_BOUND ( 'NONE', #457, .T. ) ;
#584 = FACE_BOUND ( 'NONE', #573, .T. ) ;
#585 = VERTEX_POINT ( 'NONE', #211 ) ;
#586 = EDGE_CURVE ( 'NONE', #269, #569, #400, .T. ) ;
#587 = CARTESIAN_POINT ( 'NONE',  ( -14.63470857431502559, -31.00000000000000000, 3.730000000000214921 ) ) ;
#588 = CARTESIAN_POINT ( 'NONE',  ( 15.86529142568499395, -20.99999999999999645, 31.23000000000000043 ) ) ;
#589 = EDGE_LOOP ( 'NONE', ( #109, #774, #167, #428 ) ) ;
#590 = AXIS2_PLACEMENT_3D ( 'NONE', #147, #73, #612 ) ;
#591 = EDGE_CURVE ( 'NONE', #336, #572, #76, .T. ) ;
#592 = APPROVAL_STATUS ( 'not_yet_approved' ) ;
#593 = DIRECTION ( 'NONE',  ( 0.000000000000000000, 0.000000000000000000, 1.000000000000000000 ) ) ;
#594 = ORIENTED_EDGE ( 'NONE', *, *, #307, .F. ) ;
#595 = PERSON_AND_ORGANIZATION ( #18446744073709551615, #18446744073709551615 ) ;
#596 = EDGE_CURVE ( 'NONE', #107, #10, #629, .T. ) ;
#597 = LINE ( 'NONE', #478, #560 ) ;
#598 = PLANE ( 'NONE',  #558 ) ;
#599 = ORIENTED_EDGE ( 'NONE', *, *, #806, .T. ) ;
#600 = CARTESIAN_POINT ( 'NONE',  ( -14.63470857431496341, -20.99999999999999645, 32.73000000000021714 ) ) ;
#601 = DIRECTION ( 'NONE',  ( 0.000000000000000000, 0.000000000000000000, 1.000000000000000000 ) ) ;
#602 = VECTOR ( 'NONE', #753, 1000.000000000000000 ) ;
#603 = ORIENTED_EDGE ( 'NONE', *, *, #574, .T. ) ;
#604 = VECTOR ( 'NONE', #294, 1000.000000000000000 ) ;
#605 = CIRCLE ( 'NONE', #360, 1.599999999999999867 ) ;
#606 = PERSON_AND_ORGANIZATION_ROLE ( 'classification_officer' ) ;
#607 = DIRECTION ( 'NONE',  ( -0.000000000000000000, 0.000000000000000000, 1.000000000000000000 ) ) ;
#608 = DIRECTION ( 'NONE',  ( 0.000000000000000000, 0.000000000000000000, 1.000000000000000000 ) ) ;
#609 = EDGE_CURVE ( 'NONE', #252, #585, #141, .T. ) ;
#610 = ORIENTED_EDGE ( 'NONE', *, *, #698, .T. ) ;
#611 = CARTESIAN_POINT ( 'NONE',  ( -20.00000000000000000, -1.000000000000002665, 0.000000000000000000 ) ) ;
#612 = DIRECTION ( 'NONE',  ( 0.000000000000000000, 0.000000000000000000, 1.000000000000000000 ) ) ;
#613 = ORIENTED_EDGE ( 'NONE', *, *, #778, .F. ) ;
#614 = EDGE_CURVE ( 'NONE', #10, #107, #844, .T. ) ;
#615 = DIRECTION ( 'NONE',  ( 0.000000000000000000, 1.000000000000000000, 0.000000000000000000 ) ) ;
#616 = LINE ( 'NONE', #28, #259 ) ;
#617 = ORIENTED_EDGE ( 'NONE', *, *, #174, .F. ) ;
#618 = VECTOR ( 'NONE', #682, 1000.000000000000000 ) ;
#619 = LINE ( 'NONE', #365, #369 ) ;
#620 = CARTESIAN_POINT ( 'NONE',  ( -20.00000000000000000, -23.99999999999999645, 36.00000000000000000 ) ) ;
#621 = ORIENTED_EDGE ( 'NONE', *, *, #404, .F. ) ;
#622 = DIRECTION ( 'NONE',  ( 0.000000000000000000, 0.000000000000000000, 1.000000000000000000 ) ) ;
#623 = EDGE_CURVE ( 'NONE', #545, #644, #165, .T. ) ;
#624 = DIRECTION ( 'NONE',  ( 0.000000000000000000, 0.000000000000000000, 1.000000000000000000 ) ) ;
#625 = ORIENTED_EDGE ( 'NONE', *, *, #663, .T. ) ;
#626 = CARTESIAN_POINT ( 'NONE',  ( 7.499988328254670655, -16.00000000000001066, 0.000000000000000000 ) ) ;
#627 = CARTESIAN_POINT ( 'NONE',  ( -20.00000000000000000, -1.000000000000002665, 25.00000000000000000 ) ) ;
#628 = ORIENTED_EDGE ( 'NONE', *, *, #42, .T. ) ;
#629 = CIRCLE ( 'NONE', #672, 1.500000000000000444 ) ;
#630 = ORIENTED_EDGE ( 'NONE', *, *, #328, .F. ) ;
#631 = CARTESIAN_POINT ( 'NONE',  ( -20.00000000000000000, -1.000000000000002665, 25.00000000000000000 ) ) ;
#632 = VECTOR ( 'NONE', #35, 1000.000000000000000 ) ;
#633 = CARTESIAN_POINT ( 'NONE',  ( 15.86529142568493178, -23.99999999999999645, 2.229999999999999538 ) ) ;
#634 = VECTOR ( 'NONE', #293, 1000.000000000000000 ) ;
#635 = ORIENTED_EDGE ( 'NONE', *, *, #564, .T. ) ;
#636 = EDGE_CURVE ( 'NONE', #313, #502, #578, .T. ) ;
#637 = ORIENTED_EDGE ( 'NONE', *, *, #140, .F. ) ;
#638 = CARTESIAN_POINT ( 'NONE',  ( -20.00000000000000000, -4.333483306307671867, 8.000000000000024869 ) ) ;
#639 = DIRECTION ( 'NONE',  ( -0.000000000000000000, 1.000000000000000000, -0.000000000000000000 ) ) ;
#640 = EDGE_LOOP ( 'NONE', ( #781, #486, #228, #567 ) ) ;
#641 = EDGE_CURVE ( 'NONE', #36, #669, #605, .T. ) ;
#642 = CARTESIAN_POINT ( 'NONE',  ( 0.000000000000000000, -14.99999999999999822, 0.000000000000000000 ) ) ;
#643 = CARTESIAN_POINT ( 'NONE',  ( -14.63470857431502559, -31.00000000000000000, 0.7300000000002138112 ) ) ;
#644 = VERTEX_POINT ( 'NONE', #760 ) ;
#645 = ORIENTED_EDGE ( 'NONE', *, *, #404, .T. ) ;
#646 = DIRECTION ( 'NONE',  ( 0.000000000000000000, -1.000000000000000000, 0.000000000000000000 ) ) ;
#647 = AXIS2_PLACEMENT_3D ( 'NONE', #61, #582, #850 ) ;
#648 = DIRECTION ( 'NONE',  ( -1.000000000000000000, 0.000000000000000000, 0.000000000000000000 ) ) ;
#649 = CIRCLE ( 'NONE', #758, 1.599999999999999867 ) ;
#650 = AXIS2_PLACEMENT_3D ( 'NONE', #684, #681, #362 ) ;
#651 = CARTESIAN_POINT ( 'NONE',  ( -14.63470857431502559, -14.99999999999999822, 3.730000000000214921 ) ) ;
#652 = ADVANCED_FACE ( 'NONE', ( #547 ), #429, .F. ) ;
#653 = CARTESIAN_POINT ( 'NONE',  ( 20.61529142568503659, 0.000000000000000000, 5.000000000000000000 ) ) ;
#654 = ORIENTED_EDGE ( 'NONE', *, *, #146, .T. ) ;
#655 = FACE_OUTER_BOUND ( 'NONE', #450, .T. ) ;
#656 = EDGE_CURVE ( 'NONE', #71, #788, #169, .T. ) ;
#657 = VERTEX_POINT ( 'NONE', #697 ) ;
#658 = APPROVAL_STATUS ( 'not_yet_approved' ) ;
#659 = DIRECTION ( 'NONE',  ( 0.000000000000000000, 1.000000000000000000, -0.000000000000000000 ) ) ;
#660 = EDGE_LOOP ( 'NONE', ( #154, #162, #707, #25 ) ) ;
#661 = AXIS2_PLACEMENT_3D ( 'NONE', #397, #796, #601 ) ;
#662 = AXIS2_PLACEMENT_3D ( 'NONE', #819, #551, #170 ) ;
#663 = EDGE_CURVE ( 'NONE', #837, #128, #384, .T. ) ;
#664 = CARTESIAN_POINT ( 'NONE',  ( 5.899988328254669234, -16.00000000000001066, 5.000000000000000000 ) ) ;
#665 = CARTESIAN_POINT ( 'NONE',  ( 15.86529142568493178, -14.99999999999999822, 2.229999999999999538 ) ) ;
#666 = ORIENTED_EDGE ( 'NONE', *, *, #14, .T. ) ;
#667 = DIRECTION ( 'NONE',  ( 0.000000000000000000, 0.000000000000000000, 1.000000000000000000 ) ) ;
#668 = CARTESIAN_POINT ( 'NONE',  ( 0.000000000000000000, -14.99999999999999822, 0.000000000000000000 ) ) ;
#669 = VERTEX_POINT ( 'NONE', #101 ) ;
#670 = DIRECTION ( 'NONE',  ( -1.000000000000000000, 0.000000000000000000, 0.000000000000000000 ) ) ;
#671 = LINE ( 'NONE', #727, #190 ) ;
#672 = AXIS2_PLACEMENT_3D ( 'NONE', #483, #659, #473 ) ;
#673 = ORIENTED_EDGE ( 'NONE', *, *, #568, .F. ) ;
#674 = VECTOR ( 'NONE', #198, 1000.000000000000000 ) ;
#675 =( GEOMETRIC_REPRESENTATION_CONTEXT ( 3 ) GLOBAL_UNCERTAINTY_ASSIGNED_CONTEXT ( ( #792 ) ) GLOBAL_UNIT_ASSIGNED_CONTEXT ( ( #242, #260, #779 ) ) REPRESENTATION_CONTEXT ( 'NONE', 'WORKASPACE' ) );
#676 = APPROVAL_DATE_TIME ( #200, #3 ) ;
#677 = CARTESIAN_POINT ( 'NONE',  ( -7.500011671745328456, -15.99999999999999645, 0.000000000000000000 ) ) ;
#678 = EDGE_CURVE ( 'NONE', #188, #313, #619, .T. ) ;
#679 = CARTESIAN_POINT ( 'NONE',  ( 20.61529142568503659, -23.99999999999999645, 36.00000000000000000 ) ) ;
#680 = ORIENTED_EDGE ( 'NONE', *, *, #174, .T. ) ;
#681 = DIRECTION ( 'NONE',  ( -0.000000000000000000, -0.000000000000000000, -1.000000000000000000 ) ) ;
#682 = DIRECTION ( 'NONE',  ( -0.000000000000000000, -0.000000000000000000, -1.000000000000000000 ) ) ;
#683 = VERTEX_POINT ( 'NONE', #825 ) ;
#684 = CARTESIAN_POINT ( 'NONE',  ( -7.500011671745328456, -15.99999999999999645, 5.000000000000000000 ) ) ;
#685 = CARTESIAN_POINT ( 'NONE',  ( -5.900011671745327924, -15.99999999999999645, 5.000000000000000000 ) ) ;
#686 = EDGE_LOOP ( 'NONE', ( #766, #182 ) ) ;
#687 = ADVANCED_FACE ( 'NONE', ( #296 ), #225, .F. ) ;
#688 = VECTOR ( 'NONE', #566, 1000.000000000000000 ) ;
#689 = VECTOR ( 'NONE', #218, 1000.000000000000000 ) ;
#690 = CARTESIAN_POINT ( 'NONE',  ( -14.63470857431502559, -14.99999999999999822, 2.230000000000214477 ) ) ;
#691 = CARTESIAN_POINT ( 'NONE',  ( 15.86529142568499395, -31.00000000000000000, 34.23000000000000398 ) ) ;
#692 = ORIENTED_EDGE ( 'NONE', *, *, #113, .T. ) ;
#693 = APPROVAL ( #592, 'Coincident' ) ;
#694 = CARTESIAN_POINT ( 'NONE',  ( 15.86529142568499395, -23.99999999999999645, 32.73000000000000398 ) ) ;
#695 = LINE ( 'NONE', #620, #745 ) ;
#696 = ORIENTED_EDGE ( 'NONE', *, *, #528, .F. ) ;
#697 = CARTESIAN_POINT ( 'NONE',  ( 15.86529142568493178, -14.99999999999999822, 0.7299999999999986500 ) ) ;
#698 = EDGE_CURVE ( 'NONE', #68, #364, #105, .T. ) ;
#699 = LINE ( 'NONE', #226, #688 ) ;
#700 = EDGE_LOOP ( 'NONE', ( #139, #284 ) ) ;
#701 = ORIENTED_EDGE ( 'NONE', *, *, #782, .F. ) ;
#702 = DIRECTION ( 'NONE',  ( 0.000000000000000000, 0.000000000000000000, 1.000000000000000000 ) ) ;
#703 = VECTOR ( 'NONE', #86, 1000.000000000000000 ) ;
#704 = CARTESIAN_POINT ( 'NONE',  ( 9.099988328254672965, -16.00000000000001066, 0.000000000000000000 ) ) ;
#705 = DESIGN_CONTEXT ( 'detailed design', #338, 'design' ) ;
#706 = ADVANCED_FACE ( 'NONE', ( #565 ), #419, .T. ) ;
#707 = ORIENTED_EDGE ( 'NONE', *, *, #782, .T. ) ;
#708 = PLANE ( 'NONE',  #482 ) ;
#709 = ORIENTED_EDGE ( 'NONE', *, *, #302, .F. ) ;
#710 = DIRECTION ( 'NONE',  ( 0.000000000000000000, -1.000000000000000000, 0.000000000000000000 ) ) ;
#711 = CARTESIAN_POINT ( 'NONE',  ( -20.00000000000000000, -4.333483306307671867, 25.00000000000000000 ) ) ;
#712 = ORIENTED_EDGE ( 'NONE', *, *, #302, .T. ) ;
#713 = EDGE_CURVE ( 'NONE', #545, #572, #500, .T. ) ;
#714 = AXIS2_PLACEMENT_3D ( 'NONE', #626, #158, #239 ) ;
#715 = DIRECTION ( 'NONE',  ( -0.000000000000000000, 0.000000000000000000, -1.000000000000000000 ) ) ;
#716 = CIRCLE ( 'NONE', #343, 1.500000000000000444 ) ;
#717 = LOCAL_TIME ( 18, 50, 19.00000000000000000, #403 ) ;
#718 = EDGE_LOOP ( 'NONE', ( #506, #78 ) ) ;
#719 = PLANE ( 'NONE',  #189 ) ;
#720 = LINE ( 'NONE', #643, #206 ) ;
#721 = APPLICATION_CONTEXT ( 'configuration controlled 3d designs of mechanical parts and assemblies' ) ;
#722 = ORIENTED_EDGE ( 'NONE', *, *, #724, .F. ) ;
#723 = CYLINDRICAL_SURFACE ( 'NONE', #45, 1.500000000000001332 ) ;
#724 = EDGE_CURVE ( 'NONE', #530, #52, #835, .T. ) ;
#725 = ORIENTED_EDGE ( 'NONE', *, *, #42, .F. ) ;
#726 = CYLINDRICAL_SURFACE ( 'NONE', #329, 1.500000000000001332 ) ;
#727 = CARTESIAN_POINT ( 'NONE',  ( 15.86529142568499395, -31.00000000000000000, 31.23000000000000043 ) ) ;
#728 = AXIS2_PLACEMENT_3D ( 'NONE', #803, #282, #808 ) ;
#729 = ADVANCED_FACE ( 'NONE', ( #27 ), #98, .F. ) ;
#730 = AXIS2_PLACEMENT_3D ( 'NONE', #485, #347, #608 ) ;
#731 = DATE_AND_TIME ( #281, #518 ) ;
#732 = DIRECTION ( 'NONE',  ( -0.000000000000000000, 1.000000000000000000, -0.000000000000000000 ) ) ;
#733 = DIRECTION ( 'NONE',  ( -1.000000000000000000, 0.000000000000000000, -0.000000000000000000 ) ) ;
#734 = EDGE_LOOP ( 'NONE', ( #241, #355 ) ) ;
#735 = APPROVAL_DATE_TIME ( #205, #58 ) ;
#736 = CARTESIAN_POINT ( 'NONE',  ( 20.61529142568503659, -1.000000000000002665, 25.00000000000000000 ) ) ;
#737 = CARTESIAN_POINT ( 'NONE',  ( -20.00000000000000000, -23.99999999999999645, 0.000000000000000000 ) ) ;
#738 = ORIENTED_EDGE ( 'NONE', *, *, #845, .T. ) ;
#739 = DATE_AND_TIME ( #22, #717 ) ;
#740 = EDGE_CURVE ( 'NONE', #421, #188, #562, .T. ) ;
#741 = LINE ( 'NONE', #664, #358 ) ;
#742 = DIRECTION ( 'NONE',  ( 0.000000000000000000, -1.000000000000000000, 0.000000000000000000 ) ) ;
#743 = AXIS2_PLACEMENT_3D ( 'NONE', #694, #615, #622 ) ;
#744 = ORIENTED_EDGE ( 'NONE', *, *, #542, .F. ) ;
#745 = VECTOR ( 'NONE', #366, 1000.000000000000000 ) ;
#746 = DIRECTION ( 'NONE',  ( 0.000000000000000000, -1.000000000000000000, 0.000000000000000000 ) ) ;
#747 = DIRECTION ( 'NONE',  ( 0.000000000000000000, 1.000000000000000000, -0.000000000000000000 ) ) ;
#748 = ORIENTED_EDGE ( 'NONE', *, *, #507, .T. ) ;
#749 = DIRECTION ( 'NONE',  ( 0.000000000000000000, 1.000000000000000000, -0.000000000000000000 ) ) ;
#750 = FACE_OUTER_BOUND ( 'NONE', #498, .T. ) ;
#751 = EDGE_CURVE ( 'NONE', #252, #269, #553, .T. ) ;
#752 = ORIENTED_EDGE ( 'NONE', *, *, #202, .T. ) ;
#753 = DIRECTION ( 'NONE',  ( 0.000000000000000000, 0.000000000000000000, -1.000000000000000000 ) ) ;
#754 = FACE_OUTER_BOUND ( 'NONE', #493, .T. ) ;
#755 = AXIS2_PLACEMENT_3D ( 'NONE', #487, #749, #821 ) ;
#756 = ORIENTED_EDGE ( 'NONE', *, *, #433, .T. ) ;
#757 = PRODUCT_DEFINITION ( 'General', '', #193, #705 ) ;
#758 = AXIS2_PLACEMENT_3D ( 'NONE', #677, #334, #207 ) ;
#759 = AXIS2_PLACEMENT_3D ( 'NONE', #851, #57, #440 ) ;
#760 = CARTESIAN_POINT ( 'NONE',  ( 20.61529142568503659, -1.000000000000002665, 0.000000000000000000 ) ) ;
#761 = DIRECTION ( 'NONE',  ( 1.000000000000000000, 0.000000000000000000, -0.000000000000000000 ) ) ;
#762 = ORIENTED_EDGE ( 'NONE', *, *, #614, .F. ) ;
#763 = EDGE_CURVE ( 'NONE', #367, #657, #12, .T. ) ;
#764 = CARTESIAN_POINT ( 'NONE',  ( 7.499988328254670655, -16.00000000000001066, 5.000000000000000000 ) ) ;
#765 = CARTESIAN_POINT ( 'NONE',  ( -9.100011671745329878, -15.99999999999999645, 5.000000000000000000 ) ) ;
#766 = ORIENTED_EDGE ( 'NONE', *, *, #476, .T. ) ;
#767 = DIRECTION ( 'NONE',  ( -1.000000000000000000, 0.000000000000000000, 0.000000000000000000 ) ) ;
#768 = LINE ( 'NONE', #175, #841 ) ;
#769 = ORIENTED_EDGE ( 'NONE', *, *, #528, .T. ) ;
#770 = EDGE_LOOP ( 'NONE', ( #666, #523 ) ) ;
#771 = DIRECTION ( 'NONE',  ( 0.000000000000000000, 0.000000000000000000, 1.000000000000000000 ) ) ;
#772 = AXIS2_PLACEMENT_3D ( 'NONE', #434, #99, #823 ) ;
#773 = CARTESIAN_POINT ( 'NONE',  ( -20.00000000000000000, -23.99999999999999645, 36.00000000000000000 ) ) ;
#774 = ORIENTED_EDGE ( 'NONE', *, *, #609, .F. ) ;
#775 = MECHANICAL_CONTEXT ( 'NONE', #721, 'mechanical' ) ;
#776 = DIRECTION ( 'NONE',  ( 1.000000000000000000, 0.000000000000000000, 0.000000000000000000 ) ) ;
#777 = EDGE_LOOP ( 'NONE', ( #625, #195 ) ) ;
#778 = EDGE_CURVE ( 'NONE', #644, #336, #491, .T. ) ;
#779 =( NAMED_UNIT ( * ) SI_UNIT ( $, .STERADIAN. ) SOLID_ANGLE_UNIT ( ) );
#780 = CYLINDRICAL_SURFACE ( 'NONE', #452, 1.500000000000001332 ) ;
#781 = ORIENTED_EDGE ( 'NONE', *, *, #346, .F. ) ;
#782 = EDGE_CURVE ( 'NONE', #470, #367, #110, .T. ) ;
#783 = LINE ( 'NONE', #374, #787 ) ;
#784 = CIRCLE ( 'NONE', #730, 1.500000000000000444 ) ;
#785 = LINE ( 'NONE', #791, #83 ) ;
#786 = VECTOR ( 'NONE', #648, 1000.000000000000000 ) ;
#787 = VECTOR ( 'NONE', #856, 1000.000000000000000 ) ;
#788 = VERTEX_POINT ( 'NONE', #325 ) ;
#789 = PERSON_AND_ORGANIZATION ( #18446744073709551615, #18446744073709551615 ) ;
#790 = ADVANCED_FACE ( 'NONE', ( #454 ), #114, .F. ) ;
#791 = CARTESIAN_POINT ( 'NONE',  ( -20.00000000000000000, 0.000000000000000000, 0.000000000000000000 ) ) ;
#792 = UNCERTAINTY_MEASURE_WITH_UNIT (LENGTH_MEASURE( 1.000000000000000082E-05 ), #242, 'distance_accuracy_value', 'NONE');
#793 = ORIENTED_EDGE ( 'NONE', *, *, #698, .F. ) ;
#794 = EDGE_CURVE ( 'NONE', #340, #842, #163, .T. ) ;
#795 = DIRECTION ( 'NONE',  ( 0.000000000000000000, -0.7071067811865433539, -0.7071067811865517916 ) ) ;
#796 = DIRECTION ( 'NONE',  ( -0.000000000000000000, 1.000000000000000000, -0.000000000000000000 ) ) ;
#797 = CALENDAR_DATE ( 2026, 22, 6 ) ;
#798 = CARTESIAN_POINT ( 'NONE',  ( 20.61529142568503659, -4.333483306307671867, 25.00000000000000000 ) ) ;
#799 = CARTESIAN_POINT ( 'NONE',  ( 15.86529142568493178, -23.99999999999999645, 0.7299999999999986500 ) ) ;
#800 = CIRCLE ( 'NONE', #425, 1.500000000000000444 ) ;
#801 = ORIENTED_EDGE ( 'NONE', *, *, #433, .F. ) ;
#802 = APPROVAL_ROLE ( '' ) ;
#803 = CARTESIAN_POINT ( 'NONE',  ( -14.63470857431496341, -23.99999999999999645, 32.73000000000021714 ) ) ;
#804 = DIRECTION ( 'NONE',  ( 0.000000000000000000, 1.000000000000000000, 0.000000000000000000 ) ) ;
#805 = ORIENTED_EDGE ( 'NONE', *, *, #713, .T. ) ;
#806 = EDGE_CURVE ( 'NONE', #398, #213, #230, .T. ) ;
#807 = PERSON_AND_ORGANIZATION ( #18446744073709551615, #18446744073709551615 ) ;
#808 = DIRECTION ( 'NONE',  ( 0.000000000000000000, 0.000000000000000000, 1.000000000000000000 ) ) ;
#809 = MANIFOLD_SOLID_BREP ( 'Chamfer1', #160 ) ;
#810 = DIRECTION ( 'NONE',  ( 0.000000000000000000, 0.000000000000000000, 1.000000000000000000 ) ) ;
#811 = ORIENTED_EDGE ( 'NONE', *, *, #812, .F. ) ;
#812 = EDGE_CURVE ( 'NONE', #475, #10, #121, .T. ) ;
#813 = DIRECTION ( 'NONE',  ( -0.000000000000000000, -0.000000000000000000, -1.000000000000000000 ) ) ;
#814 = CYLINDRICAL_SURFACE ( 'NONE', #299, 1.500000000000000444 ) ;
#815 = ORIENTED_EDGE ( 'NONE', *, *, #713, .F. ) ;
#816 = AXIS2_PLACEMENT_3D ( 'NONE', #94, #430, #370 ) ;
#817 = CARTESIAN_POINT ( 'NONE',  ( 20.61529142568503659, 0.000000000000000000, 5.000000000000000000 ) ) ;
#818 = ADVANCED_FACE ( 'NONE', ( #583 ), #321, .T. ) ;
#819 = CARTESIAN_POINT ( 'NONE',  ( -14.63470857431502559, -31.00000000000000000, 2.230000000000214477 ) ) ;
#820 = EDGE_LOOP ( 'NONE', ( #361, #263, #824, #418 ) ) ;
#821 = DIRECTION ( 'NONE',  ( 0.000000000000000000, 0.000000000000000000, 1.000000000000000000 ) ) ;
#822 = EDGE_CURVE ( 'NONE', #71, #431, #783, .T. ) ;
#823 = DIRECTION ( 'NONE',  ( 0.000000000000000000, 0.000000000000000000, 1.000000000000000000 ) ) ;
#824 = ORIENTED_EDGE ( 'NONE', *, *, #845, .F. ) ;
#825 = CARTESIAN_POINT ( 'NONE',  ( -14.63470857431496341, -23.99999999999999645, 34.23000000000021714 ) ) ;
#826 = FACE_BOUND ( 'NONE', #700, .T. ) ;
#827 = AXIS2_PLACEMENT_3D ( 'NONE', #559, #368, #767 ) ;
#828 = ORIENTED_EDGE ( 'NONE', *, *, #227, .F. ) ;
#829 = VECTOR ( 'NONE', #286, 1000.000000000000000 ) ;
#830 = VECTOR ( 'NONE', #511, 1000.000000000000000 ) ;
#831 = DIRECTION ( 'NONE',  ( 0.000000000000000000, -1.000000000000000000, 0.000000000000000000 ) ) ;
#832 = CARTESIAN_POINT ( 'NONE',  ( 9.099988328254672965, -16.00000000000001066, 5.000000000000000000 ) ) ;
#833 = ORIENTED_EDGE ( 'NONE', *, *, #542, .T. ) ;
#834 = EDGE_CURVE ( 'NONE', #414, #340, #389, .T. ) ;
#835 = LINE ( 'NONE', #415, #261 ) ;
#836 = CARTESIAN_POINT ( 'NONE',  ( 0.000000000000000000, 0.000000000000000000, 36.00000000000000000 ) ) ;
#837 = VERTEX_POINT ( 'NONE', #54 ) ;
#838 = DIRECTION ( 'NONE',  ( 0.000000000000000000, 0.000000000000000000, -1.000000000000000000 ) ) ;
#839 = LINE ( 'NONE', #312, #786 ) ;
#840 = ORIENTED_EDGE ( 'NONE', *, *, #238, .T. ) ;
#841 = VECTOR ( 'NONE', #106, 1000.000000000000000 ) ;
#842 = VERTEX_POINT ( 'NONE', #117 ) ;
#843 = DIRECTION ( 'NONE',  ( 1.000000000000000000, -0.000000000000000000, 0.000000000000000000 ) ) ;
#844 = CIRCLE ( 'NONE', #97, 1.500000000000000444 ) ;
#845 = EDGE_CURVE ( 'NONE', #502, #313, #316, .T. ) ;
#846 = DIRECTION ( 'NONE',  ( -0.000000000000000000, 1.000000000000000000, -0.000000000000000000 ) ) ;
#847 = ORIENTED_EDGE ( 'NONE', *, *, #14, .F. ) ;
#848 = DIRECTION ( 'NONE',  ( 0.000000000000000000, 1.000000000000000000, -0.000000000000000000 ) ) ;
#849 = LINE ( 'NONE', #55, #120 ) ;
#850 = DIRECTION ( 'NONE',  ( 0.000000000000000000, 0.000000000000000000, 1.000000000000000000 ) ) ;
#851 = CARTESIAN_POINT ( 'NONE',  ( 7.499988328254670655, -16.00000000000001066, 0.000000000000000000 ) ) ;
#852 = CARTESIAN_POINT ( 'NONE',  ( -14.63470857431496341, -31.00000000000000000, 32.73000000000021714 ) ) ;
#853 = EDGE_LOOP ( 'NONE', ( #769, #44 ) ) ;
#854 = ADVANCED_FACE ( 'NONE', ( #250 ), #719, .F. ) ;
#855 = VECTOR ( 'NONE', #304, 1000.000000000000000 ) ;
#856 = DIRECTION ( 'NONE',  ( 0.000000000000000000, 1.000000000000000000, 0.000000000000000000 ) ) ;
ENDSEC;
END-ISO-10303-21;
