ISO-10303-21;
HEADER;
FILE_DESCRIPTION (( 'STEP AP203' ),
    '1' );
FILE_NAME ('R1.step.STEP',
    '2026-06-22T08:49:57',
    ( 'localuser' ),
    ( '' ),
    'SwSTEP 2.0',
    'SolidWorks 2025',
    '' );
FILE_SCHEMA (( 'CONFIG_CONTROL_DESIGN' ));
ENDSEC;

DATA;
#1 = PERSON_AND_ORGANIZATION ( #18446744073709551615, #18446744073709551615 ) ;
#2 = CC_DESIGN_DATE_AND_TIME_ASSIGNMENT ( #218, #134, ( #53 ) ) ;
#3 =( NAMED_UNIT ( * ) SI_UNIT ( $, .STERADIAN. ) SOLID_ANGLE_UNIT ( ) );
#4 = LOCAL_TIME ( 18, 49, 57.00000000000000000, #368 ) ;
#5 = PERSON_AND_ORGANIZATION_ROLE ( 'classification_officer' ) ;
#6 = APPROVAL ( #12, 'Coincident' ) ;
#7 = DATE_AND_TIME ( #126, #30 ) ;
#8 = ITEM_DEFINED_TRANSFORMATION ( 'NONE', 'NONE', #154,  #157 ) ;
#9 =( GEOMETRIC_REPRESENTATION_CONTEXT ( 3 ) GLOBAL_UNCERTAINTY_ASSIGNED_CONTEXT ( ( #112 ) ) GLOBAL_UNIT_ASSIGNED_CONTEXT ( ( #336, #214, #3 ) ) REPRESENTATION_CONTEXT ( 'NONE', 'WORKASPACE' ) );
#10 = CC_DESIGN_SECURITY_CLASSIFICATION ( #77, ( #390 ) ) ;
#11 = CONTEXT_DEPENDENT_SHAPE_REPRESENTATION ( #221, #110 ) ;
#12 = APPROVAL_STATUS ( 'not_yet_approved' ) ;
#13 = CC_DESIGN_PERSON_AND_ORGANIZATION_ASSIGNMENT ( #21, #143, ( #26 ) ) ;
#14 = APPROVAL_STATUS ( 'not_yet_approved' ) ;
#15 = PRODUCT_DEFINITION_SHAPE ( 'NONE', 'NONE',  #389 ) ;
#16 = DATE_AND_TIME ( #349, #149 ) ;
#17 = LOCAL_TIME ( 18, 49, 57.00000000000000000, #313 ) ;
#18 = OBJECT_ROLE ('mandatory',$ ) ;
#19 = CC_DESIGN_PERSON_AND_ORGANIZATION_ASSIGNMENT ( #1, #270, ( #197 ) ) ;
#20 =( LENGTH_UNIT ( ) NAMED_UNIT ( * ) SI_UNIT ( .MILLI., .METRE. ) );
#21 = PERSON_AND_ORGANIZATION ( #18446744073709551615, #18446744073709551615 ) ;
#22 = PERSON_AND_ORGANIZATION_ROLE ( 'classification_officer' ) ;
#23 = APPROVAL_STATUS ( 'not_yet_approved' ) ;
#24 = LOCAL_TIME ( 18, 49, 57.00000000000000000, #25 ) ;
#25 = COORDINATED_UNIVERSAL_TIME_OFFSET ( 10, 0, .AHEAD. ) ;
#26 = PRODUCT_DEFINITION ( 'General', '', #29, #33 ) ;
#27 = CALENDAR_DATE ( 2026, 22, 6 ) ;
#28 = CALENDAR_DATE ( 2026, 22, 6 ) ;
#29 = PRODUCT_DEFINITION_FORMATION_WITH_SPECIFIED_SOURCE ( 'Symmetric', '', #51, .NOT_KNOWN. ) ;
#30 = LOCAL_TIME ( 18, 49, 57.00000000000000000, #278 ) ;
#31 = DOCUMENT_TYPE ( 'geometry' ) ;
#32 = CC_DESIGN_PERSON_AND_ORGANIZATION_ASSIGNMENT ( #324, #178, ( #348 ) ) ;
#33 = DESIGN_CONTEXT ( 'detailed design', #203, 'design' ) ;
#34 = DIRECTION ( 'NONE',  ( 1.000000000000000000, 0.000000000000000000, 0.000000000000000000 ) ) ;
#35 = UNCERTAINTY_MEASURE_WITH_UNIT (LENGTH_MEASURE( 1.000000000000000082E-05 ), #281, 'distance_accuracy_value', 'NONE');
#36 = APPROVAL ( #14, 'UNKNOWN' ) ;
#37 = PERSON_AND_ORGANIZATION ( #18446744073709551615, #18446744073709551615 ) ;
#38 = APPROVAL_ROLE ( '' ) ;
#39 = APPLICATION_CONTEXT ( 'configuration controlled 3d designs of mechanical parts and assemblies' ) ;
#40 = SECURITY_CLASSIFICATION_LEVEL ( 'unclassified' ) ;
#41 = APPROVAL_DATE_TIME ( #99, #180 ) ;
#42 = LOCAL_TIME ( 18, 49, 57.00000000000000000, #175 ) ;
#43 = PRODUCT_DEFINITION_FORMATION_WITH_SPECIFIED_SOURCE ( 'Symmetric', '', #197, .NOT_KNOWN. ) ;
#44 = APPROVAL_DATE_TIME ( #84, #6 ) ;
#45 = CC_DESIGN_PERSON_AND_ORGANIZATION_ASSIGNMENT ( #164, #5, ( #172 ) ) ;
#46 = PERSON_AND_ORGANIZATION ( #18446744073709551615, #18446744073709551615 ) ;
#47 = APPLICATION_PROTOCOL_DEFINITION ( 'international standard', 'config_control_design', 1994, #320 ) ;
#48 = ITEM_DEFINED_TRANSFORMATION ( 'NONE', 'NONE', #284,  #219 ) ;
#49 = DATE_TIME_ROLE ( 'classification_date' ) ;
#50 = CC_DESIGN_DATE_AND_TIME_ASSIGNMENT ( #294, #385, ( #96 ) ) ;
#51 = PRODUCT ( 'R1.step', 'R1.step', '', ( #288 ) ) ;
#52 = APPROVAL_STATUS ( 'not_yet_approved' ) ;
#53 = SECURITY_CLASSIFICATION ( '', '', #104 ) ;
#54 = PROPERTY_DEFINITION_REPRESENTATION ( #380, #269 ) ;
#55 = PERSON_AND_ORGANIZATION_ROLE ( 'creator' ) ;
#56 = COORDINATED_UNIVERSAL_TIME_OFFSET ( 10, 0, .AHEAD. ) ;
#57 = APPLICATION_PROTOCOL_DEFINITION ( 'international standard', 'config_control_design', 1994, #144 ) ;
#58 = CONTEXT_DEPENDENT_SHAPE_REPRESENTATION ( #282, #15 ) ;
#59 = APPROVAL_STATUS ( 'not_yet_approved' ) ;
#60 = CC_DESIGN_PERSON_AND_ORGANIZATION_ASSIGNMENT ( #350, #375, ( #51 ) ) ;
#61 = CC_DESIGN_SECURITY_CLASSIFICATION ( #53, ( #388 ) ) ;
#62 = SHAPE_DEFINITION_REPRESENTATION ( #259, #158 ) ;
#63 = APPLICATION_PROTOCOL_DEFINITION ( 'international standard', 'config_control_design', 1994, #245 ) ;
#64 = EXTERNAL_SOURCE (IDENTIFIER('') ) ;
#65 = CC_DESIGN_DATE_AND_TIME_ASSIGNMENT ( #286, #135, ( #131 ) ) ;
#66 = CC_DESIGN_APPROVAL ( #151, ( #77 ) ) ;
#67 = CARTESIAN_POINT ( 'NONE',  ( 0.000000000000000000, 0.000000000000000000, 0.000000000000000000 ) ) ;
#68 =( NAMED_UNIT ( * ) PLANE_ANGLE_UNIT ( ) SI_UNIT ( $, .RADIAN. ) );
#69 = COORDINATED_UNIVERSAL_TIME_OFFSET ( 10, 0, .AHEAD. ) ;
#70 = APPROVAL_ROLE ( '' ) ;
#71 = APPROVAL_PERSON_ORGANIZATION ( #210, #101, #120 ) ;
#72 = DATE_AND_TIME ( #128, #4 ) ;
#73 = PERSON_AND_ORGANIZATION ( #18446744073709551615, #18446744073709551615 ) ;
#74 = PRODUCT_RELATED_PRODUCT_CATEGORY ( 'detail', '', ( #197 ) ) ;
#75 =( NAMED_UNIT ( * ) PLANE_ANGLE_UNIT ( ) SI_UNIT ( $, .RADIAN. ) );
#76 = PROPERTY_DEFINITION_REPRESENTATION ( #248, #318 ) ;
#77 = SECURITY_CLASSIFICATION ( '', '', #291 ) ;
#78 = DATE_TIME_ROLE ( 'creation_date' ) ;
#79 = PERSON_AND_ORGANIZATION_ROLE ( 'design_supplier' ) ;
#80 = CC_DESIGN_PERSON_AND_ORGANIZATION_ASSIGNMENT ( #382, #257, ( #241 ) ) ;
#81 = CARTESIAN_POINT ( 'NONE',  ( 7.450001769990001854, 20.69999340820300660, -2.058321952820000078 ) ) ;
#82 = DATE_AND_TIME ( #231, #107 ) ;
#83 = LOCAL_TIME ( 18, 49, 57.00000000000000000, #111 ) ;
#84 = DATE_AND_TIME ( #194, #83 ) ;
#85 = APPROVAL_PERSON_ORGANIZATION ( #386, #130, #208 ) ;
#86 = DATE_AND_TIME ( #27, #379 ) ;
#87 = DESIGN_CONTEXT ( 'detailed design', #39, 'design' ) ;
#88 = APPROVAL ( #52, 'Coincident' ) ;
#89 = PERSON_AND_ORGANIZATION ( #18446744073709551615, #18446744073709551615 ) ;
#90 = DATE_AND_TIME ( #328, #24 ) ;
#91 = AXIS2_PLACEMENT_3D ( 'NONE', #67, #258, #233 ) ;
#92 = APPROVAL_DATE_TIME ( #306, #101 ) ;
#93 = CC_DESIGN_APPROVAL ( #6, ( #29 ) ) ;
#94 = SECURITY_CLASSIFICATION ( '', '', #280 ) ;
#95 = CALENDAR_DATE ( 2026, 22, 6 ) ;
#96 = PRODUCT_DEFINITION ( 'General', '', #43, #298 ) ;
#97 = CALENDAR_DATE ( 2026, 22, 6 ) ;
#98 = EXTERNAL_SOURCE (IDENTIFIER('') ) ;
#99 = DATE_AND_TIME ( #97, #353 ) ;
#100 = ORGANIZATION ( 'NAUO-ORG180', 'UNSPECIFIED', 'UNSPECIFIED' ) ;
#101 = APPROVAL ( #275, 'Coincident' ) ;
#102 = APPROVAL_STATUS ( 'not_yet_approved' ) ;
#103 = SECURITY_CLASSIFICATION_LEVEL ( 'unclassified' ) ;
#104 = SECURITY_CLASSIFICATION_LEVEL ( 'unclassified' ) ;
#105 = CARTESIAN_POINT ( 'NONE',  ( 7.450001769990003631, 20.19999340820300304, -2.058321952820000078 ) ) ;
#106 = SHAPE_DEFINITION_REPRESENTATION ( #170, #318 ) ;
#107 = LOCAL_TIME ( 18, 49, 57.00000000000000000, #355 ) ;
#108 = PRODUCT_RELATED_PRODUCT_CATEGORY ( 'detail', '', ( #348 ) ) ;
#109 = DOCUMENT_FILE ( '6461079856.step.STEP' , '', '', #122, '' ,$ ) ;
#110 = PRODUCT_DEFINITION_SHAPE ( 'NONE', 'NONE',  #388 ) ;
#111 = COORDINATED_UNIVERSAL_TIME_OFFSET ( 10, 0, .AHEAD. ) ;
#112 = UNCERTAINTY_MEASURE_WITH_UNIT (LENGTH_MEASURE( 1.000000000000000082E-05 ), #336, 'distance_accuracy_value', 'NONE');
#113 = PROPERTY_DEFINITION_REPRESENTATION ( #344, #318 ) ;
#114 = APPROVAL_DATE_TIME ( #86, #161 ) ;
#115 = SECURITY_CLASSIFICATION ( '', '', #185 ) ;
#116 = CC_DESIGN_PERSON_AND_ORGANIZATION_ASSIGNMENT ( #37, #370, ( #292 ) ) ;
#117 = PERSON_AND_ORGANIZATION_ROLE ( 'classification_officer' ) ;
#118 = PERSON_AND_ORGANIZATION ( #303, #329 ) ;
#119 = PERSON_AND_ORGANIZATION ( #18446744073709551615, #18446744073709551615 ) ;
#120 = APPROVAL_ROLE ( '' ) ;
#121 = CC_DESIGN_APPROVAL ( #212, ( #292 ) ) ;
#122 = DOCUMENT_TYPE ( 'geometry' ) ;
#123 = PERSON_AND_ORGANIZATION ( #18446744073709551615, #18446744073709551615 ) ;
#124 = APPROVAL_PERSON_ORGANIZATION ( #319, #88, #230 ) ;
#125 = LOCAL_TIME ( 18, 49, 57.00000000000000000, #311 ) ;
#126 = CALENDAR_DATE ( 2026, 22, 6 ) ;
#127 =( NAMED_UNIT ( * ) SI_UNIT ( $, .STERADIAN. ) SOLID_ANGLE_UNIT ( ) );
#128 = CALENDAR_DATE ( 2026, 22, 6 ) ;
#129 = DIRECTION ( 'NONE',  ( 0.000000000000000000, 0.000000000000000000, 1.000000000000000000 ) ) ;
#130 = APPROVAL ( #160, 'UNKNOWN' ) ;
#131 = SECURITY_CLASSIFICATION ( '', '', #103 ) ;
#132 = COORDINATED_UNIVERSAL_TIME_OFFSET ( 10, 0, .AHEAD. ) ;
#133 = APPROVAL_PERSON_ORGANIZATION ( #73, #180, #70 ) ;
#134 = DATE_TIME_ROLE ( 'classification_date' ) ;
#135 = DATE_TIME_ROLE ( 'classification_date' ) ;
#136 = DATE_AND_TIME ( #333, #236 ) ;
#137 = DATE_AND_TIME ( #173, #42 ) ;
#138 = CC_DESIGN_DATE_AND_TIME_ASSIGNMENT ( #372, #188, ( #172 ) ) ;
#139 = LOCAL_TIME ( 18, 49, 57.00000000000000000, #340 ) ;
#140 = CARTESIAN_POINT ( 'NONE',  ( 7.450001769990001854, 19.70000866699200870, -2.058321952820000078 ) ) ;
#141 = PRODUCT_DEFINITION_SHAPE ( 'NONE', 'NONE',  #390 ) ;
#142 = APPROVAL_DATE_TIME ( #72, #130 ) ;
#143 = PERSON_AND_ORGANIZATION_ROLE ( 'creator' ) ;
#144 = APPLICATION_CONTEXT ( 'configuration controlled 3d designs of mechanical parts and assemblies' ) ;
#145 = APPLICATION_PROTOCOL_DEFINITION ( 'international standard', 'config_control_design', 1994, #369 ) ;
#146 = CC_DESIGN_DATE_AND_TIME_ASSIGNMENT ( #253, #78, ( #26 ) ) ;
#147 = PERSON_AND_ORGANIZATION_ROLE ( 'classification_officer' ) ;
#148 = PERSON_AND_ORGANIZATION ( #18446744073709551615, #18446744073709551615 ) ;
#149 = LOCAL_TIME ( 18, 49, 57.00000000000000000, #56 ) ;
#150 = APPROVAL_DATE_TIME ( #356, #330 ) ;
#151 = APPROVAL ( #358, 'UNKNOWN' ) ;
#152 = PERSON_AND_ORGANIZATION ( #18446744073709551615, #18446744073709551615 ) ;
#153 = APPROVAL_ROLE ( '' ) ;
#154 = AXIS2_PLACEMENT_3D ( 'NONE', #81, #262, #198 ) ;
#155 =( GEOMETRIC_REPRESENTATION_CONTEXT ( 3 ) GLOBAL_UNCERTAINTY_ASSIGNED_CONTEXT ( ( #35 ) ) GLOBAL_UNIT_ASSIGNED_CONTEXT ( ( #281, #68, #127 ) ) REPRESENTATION_CONTEXT ( 'NONE', 'WORKASPACE' ) );
#156 = APPLIED_EXTERNAL_IDENTIFICATION_ASSIGNMENT ( '6461079856.step.STEP' , #183, #263,( #109) ) ;
#157 = AXIS2_PLACEMENT_3D ( 'NONE', #216, #129, #332 ) ;
#158 = SHAPE_REPRESENTATION ( 'R1.step', ( #91, #154, #250, #284 ), #266 ) ;
#159 = APPROVAL_PERSON_ORGANIZATION ( #118, #151, #321 ) ;
#160 = APPROVAL_STATUS ( 'not_yet_approved' ) ;
#161 = APPROVAL ( #23, 'Coincident' ) ;
#162 = IDENTIFICATION_ROLE ( 'external document id and location', $) ;
#163 = CALENDAR_DATE ( 2026, 22, 6 ) ;
#164 = PERSON_AND_ORGANIZATION ( #18446744073709551615, #18446744073709551615 ) ;
#165 = CC_DESIGN_SECURITY_CLASSIFICATION ( #115, ( #43 ) ) ;
#166 = CALENDAR_DATE ( 2026, 22, 6 ) ;
#167 = CALENDAR_DATE ( 2026, 22, 6 ) ;
#168 = APPROVAL ( #213, 'Coincident' ) ;
#169 = DIRECTION ( 'NONE',  ( 1.000000000000000222, -1.092455418989176591E-28, 4.890937612370273194E-29 ) ) ;
#170 = PRODUCT_DEFINITION_SHAPE ( 'NONE', 'NONE',  #241 ) ;
#171 = CC_DESIGN_APPROVAL ( #88, ( #26 ) ) ;
#172 = SECURITY_CLASSIFICATION ( '', '', #40 ) ;
#173 = CALENDAR_DATE ( 2026, 22, 6 ) ;
#174 = CC_DESIGN_PERSON_AND_ORGANIZATION_ASSIGNMENT ( #152, #242, ( #43 ) ) ;
#175 = COORDINATED_UNIVERSAL_TIME_OFFSET ( 10, 0, .AHEAD. ) ;
#176 = CONTEXT_DEPENDENT_SHAPE_REPRESENTATION ( #301, #141 ) ;
#177 = MECHANICAL_CONTEXT ( 'NONE', #144, 'mechanical' ) ;
#178 = PERSON_AND_ORGANIZATION_ROLE ( 'design_owner' ) ;
#179 = LOCAL_TIME ( 18, 49, 57.00000000000000000, #182 ) ;
#180 = APPROVAL ( #309, 'Coincident' ) ;
#181 = APPROVAL_DATE_TIME ( #362, #322 ) ;
#182 = COORDINATED_UNIVERSAL_TIME_OFFSET ( 10, 0, .AHEAD. ) ;
#183 = IDENTIFICATION_ROLE ( 'external document id and location', $) ;
#184 = CC_DESIGN_SECURITY_CLASSIFICATION ( #94, ( #389 ) ) ;
#185 = SECURITY_CLASSIFICATION_LEVEL ( 'unclassified' ) ;
#186 = CC_DESIGN_APPROVAL ( #101, ( #115 ) ) ;
#187 = CC_DESIGN_PERSON_AND_ORGANIZATION_ASSIGNMENT ( #207, #55, ( #29 ) ) ;
#188 = DATE_TIME_ROLE ( 'classification_date' ) ;
#189 = PERSON_AND_ORGANIZATION ( #18446744073709551615, #18446744073709551615 ) ;
#190 = DATE_TIME_ROLE ( 'creation_date' ) ;
#191 = PERSON_AND_ORGANIZATION_ROLE ( 'classification_officer' ) ;
#192 = ITEM_DEFINED_TRANSFORMATION ( 'NONE', 'NONE', #250,  #157 ) ;
#193 = LOCAL_TIME ( 18, 49, 57.00000000000000000, #331 ) ;
#194 = CALENDAR_DATE ( 2026, 22, 6 ) ;
#195 = CC_DESIGN_PERSON_AND_ORGANIZATION_ASSIGNMENT ( #148, #325, ( #43 ) ) ;
#196 = DATE_AND_TIME ( #247, #139 ) ;
#197 = PRODUCT ( '6534431024.step', '6534431024.step', '', ( #177 ) ) ;
#198 = DIRECTION ( 'NONE',  ( 1.000000000000000222, -1.092455418989176591E-28, 4.890937612370273194E-29 ) ) ;
#199 = DIRECTION ( 'NONE',  ( 4.890937612370273194E-29, -3.155443620884047222E-30, 0.9999999999999997780 ) ) ;
#200 = APPROVAL_DATE_TIME ( #16, #151 ) ;
#201 = LOCAL_TIME ( 18, 49, 57.00000000000000000, #226 ) ;
#202 = CC_DESIGN_PERSON_AND_ORGANIZATION_ASSIGNMENT ( #46, #287, ( #292 ) ) ;
#203 = APPLICATION_CONTEXT ( 'configuration controlled 3d designs of mechanical parts and assemblies' ) ;
#204 = CC_DESIGN_APPROVAL ( #161, ( #43 ) ) ;
#205 = PERSON ( 'NAUO-PER181', 'UNSPECIFIED', 'UNSPECIFIED', ('UNSPECIFIED'), ('UNSPECIFIED'), ('UNSPECIFIED') ) ;
#206 = LOCAL_TIME ( 18, 49, 57.00000000000000000, #299 ) ;
#207 = PERSON_AND_ORGANIZATION ( #18446744073709551615, #18446744073709551615 ) ;
#208 = APPROVAL_ROLE ( '' ) ;
#209 = COORDINATED_UNIVERSAL_TIME_OFFSET ( 10, 0, .AHEAD. ) ;
#210 = PERSON_AND_ORGANIZATION ( #18446744073709551615, #18446744073709551615 ) ;
#211 = CALENDAR_DATE ( 2026, 22, 6 ) ;
#212 = APPROVAL ( #102, 'Coincident' ) ;
#213 = APPROVAL_STATUS ( 'not_yet_approved' ) ;
#214 =( NAMED_UNIT ( * ) PLANE_ANGLE_UNIT ( ) SI_UNIT ( $, .RADIAN. ) );
#215 = APPROVAL_DATE_TIME ( #90, #168 ) ;
#216 = CARTESIAN_POINT ( 'NONE',  ( 0.000000000000000000, 0.000000000000000000, 0.000000000000000000 ) ) ;
#217 = CC_DESIGN_PERSON_AND_ORGANIZATION_ASSIGNMENT ( #386, #147, ( #94 ) ) ;
#218 = DATE_AND_TIME ( #163, #251 ) ;
#219 = AXIS2_PLACEMENT_3D ( 'NONE', #304, #222, #34 ) ;
#220 = CC_DESIGN_APPROVAL ( #180, ( #172 ) ) ;
#221 =( REPRESENTATION_RELATIONSHIP ('NONE','NONE', #158, #318 ) REPRESENTATION_RELATIONSHIP_WITH_TRANSFORMATION ( #8 )SHAPE_REPRESENTATION_RELATIONSHIP( ) );
#222 = DIRECTION ( 'NONE',  ( 0.000000000000000000, 0.000000000000000000, 1.000000000000000000 ) ) ;
#223 = APPROVAL_ROLE ( '' ) ;
#224 = PERSON_AND_ORGANIZATION ( #18446744073709551615, #18446744073709551615 ) ;
#225 = APPLIED_DOCUMENT_REFERENCE ( #109,'',( #241) ) ;
#226 = COORDINATED_UNIVERSAL_TIME_OFFSET ( 10, 0, .AHEAD. ) ;
#227 = PERSON_AND_ORGANIZATION_ROLE ( 'classification_officer' ) ;
#228 = CC_DESIGN_SECURITY_CLASSIFICATION ( #131, ( #29 ) ) ;
#229 = PROPERTY_DEFINITION ('document property','', #255 ) ;
#230 = APPROVAL_ROLE ( '' ) ;
#231 = CALENDAR_DATE ( 2026, 22, 6 ) ;
#232 = PRODUCT_DEFINITION_SHAPE ( 'NONE', 'NONE',  #96 ) ;
#233 = DIRECTION ( 'NONE',  ( 1.000000000000000000, 0.000000000000000000, 0.000000000000000000 ) ) ;
#234 = APPLIED_DOCUMENT_REFERENCE ( #265,'',( #96) ) ;
#235 = PROPERTY_DEFINITION_REPRESENTATION ( #289, #269 ) ;
#236 = LOCAL_TIME ( 18, 49, 57.00000000000000000, #132 ) ;
#237 = PERSON_AND_ORGANIZATION_ROLE ( 'creator' ) ;
#238 = ROLE_ASSOCIATION ( #18, #261 ) ;
#239 = CALENDAR_DATE ( 2026, 22, 6 ) ;
#240 = DATE_TIME_ROLE ( 'classification_date' ) ;
#241 = PRODUCT_DEFINITION ( 'General', '', #292, #87 ) ;
#242 = PERSON_AND_ORGANIZATION_ROLE ( 'creator' ) ;
#243 = APPROVAL_ROLE ( '' ) ;
#244 = APPROVAL_PERSON_ORGANIZATION ( #300, #161, #354 ) ;
#245 = APPLICATION_CONTEXT ( 'configuration controlled 3d designs of mechanical parts and assemblies' ) ;
#246 = APPLICATION_PROTOCOL_DEFINITION ( 'international standard', 'config_control_design', 1994, #39 ) ;
#247 = CALENDAR_DATE ( 2026, 22, 6 ) ;
#248 = PROPERTY_DEFINITION ('external definition','', #109 ) ;
#249 = COORDINATED_UNIVERSAL_TIME_OFFSET ( 10, 0, .AHEAD. ) ;
#250 = AXIS2_PLACEMENT_3D ( 'NONE', #140, #378, #315 ) ;
#251 = LOCAL_TIME ( 18, 49, 57.00000000000000000, #376 ) ;
#252 = PERSON_AND_ORGANIZATION ( #276, #100 ) ;
#253 = DATE_AND_TIME ( #381, #201 ) ;
#254 = CC_DESIGN_PERSON_AND_ORGANIZATION_ASSIGNMENT ( #119, #237, ( #96 ) ) ;
#255 = DOCUMENT_FILE ( '6461079856.step.STEP' , '', '', #339, '' ,$ ) ;
#256 = PERSON_AND_ORGANIZATION ( #18446744073709551615, #18446744073709551615 ) ;
#257 = PERSON_AND_ORGANIZATION_ROLE ( 'creator' ) ;
#258 = DIRECTION ( 'NONE',  ( 0.000000000000000000, 0.000000000000000000, 1.000000000000000000 ) ) ;
#259 = PRODUCT_DEFINITION_SHAPE ( 'NONE', 'NONE',  #26 ) ;
#260 = CC_DESIGN_PERSON_AND_ORGANIZATION_ASSIGNMENT ( #118, #22, ( #77 ) ) ;
#261 = APPLIED_DOCUMENT_REFERENCE ( #255,'',( #241) ) ;
#262 = DIRECTION ( 'NONE',  ( 4.890937612370273194E-29, -3.155443620884047222E-30, 0.9999999999999997780 ) ) ;
#263 = EXTERNAL_SOURCE (IDENTIFIER('') ) ;
#264 = MECHANICAL_CONTEXT ( 'NONE', #369, 'mechanical' ) ;
#265 = DOCUMENT_FILE ( '6534431024.step.STEP' , '', '', #31, '' ,$ ) ;
#266 =( GEOMETRIC_REPRESENTATION_CONTEXT ( 3 ) GLOBAL_UNCERTAINTY_ASSIGNED_CONTEXT ( ( #357 ) ) GLOBAL_UNIT_ASSIGNED_CONTEXT ( ( #20, #75, #346 ) ) REPRESENTATION_CONTEXT ( 'NONE', 'WORKASPACE' ) );
#267 = CC_DESIGN_SECURITY_CLASSIFICATION ( #172, ( #292 ) ) ;
#268 = COORDINATED_UNIVERSAL_TIME_OFFSET ( 10, 0, .AHEAD. ) ;
#269 = SHAPE_REPRESENTATION ( '6534431024.step', ( #219 ), #9 ) ;
#270 = PERSON_AND_ORGANIZATION_ROLE ( 'design_owner' ) ;
#271 = DATE_TIME_ROLE ( 'classification_date' ) ;
#272 = SHAPE_DEFINITION_REPRESENTATION ( #232, #269 ) ;
#273 = LOCAL_TIME ( 18, 49, 57.00000000000000000, #374 ) ;
#274 = CC_DESIGN_DATE_AND_TIME_ASSIGNMENT ( #297, #271, ( #115 ) ) ;
#275 = APPROVAL_STATUS ( 'not_yet_approved' ) ;
#276 = PERSON ( 'NAUO-PER180', 'UNSPECIFIED', 'UNSPECIFIED', ('UNSPECIFIED'), ('UNSPECIFIED'), ('UNSPECIFIED') ) ;
#277 = ORGANIZATION ( 'NAUO-ORG181', 'UNSPECIFIED', 'UNSPECIFIED' ) ;
#278 = COORDINATED_UNIVERSAL_TIME_OFFSET ( 10, 0, .AHEAD. ) ;
#279 = CC_DESIGN_PERSON_AND_ORGANIZATION_ASSIGNMENT ( #224, #191, ( #131 ) ) ;
#280 = SECURITY_CLASSIFICATION_LEVEL ( 'unclassified' ) ;
#281 =( LENGTH_UNIT ( ) NAMED_UNIT ( * ) SI_UNIT ( .MILLI., .METRE. ) );
#282 =( REPRESENTATION_RELATIONSHIP ('NONE','NONE', #158, #318 ) REPRESENTATION_RELATIONSHIP_WITH_TRANSFORMATION ( #192 )SHAPE_REPRESENTATION_RELATIONSHIP( ) );
#283 = APPROVAL_DATE_TIME ( #196, #212 ) ;
#284 = AXIS2_PLACEMENT_3D ( 'NONE', #105, #199, #169 ) ;
#285 = APPLIED_EXTERNAL_IDENTIFICATION_ASSIGNMENT ( '6461079856.step.STEP' , #162, #64,( #255) ) ;
#286 = DATE_AND_TIME ( #166, #125 ) ;
#287 = PERSON_AND_ORGANIZATION_ROLE ( 'design_supplier' ) ;
#288 = MECHANICAL_CONTEXT ( 'NONE', #320, 'mechanical' ) ;
#289 = PROPERTY_DEFINITION ('document property','', #265 ) ;
#290 = CC_DESIGN_DATE_AND_TIME_ASSIGNMENT ( #7, #49, ( #94 ) ) ;
#291 = SECURITY_CLASSIFICATION_LEVEL ( 'unclassified' ) ;
#292 = PRODUCT_DEFINITION_FORMATION_WITH_SPECIFIED_SOURCE ( 'Symmetric', '', #348, .NOT_KNOWN. ) ;
#293 = APPROVAL_DATE_TIME ( #137, #88 ) ;
#294 = DATE_AND_TIME ( #323, #206 ) ;
#295 = OBJECT_ROLE ('mandatory',$ ) ;
#296 = LOCAL_TIME ( 18, 49, 57.00000000000000000, #209 ) ;
#297 = DATE_AND_TIME ( #239, #179 ) ;
#298 = DESIGN_CONTEXT ( 'detailed design', #245, 'design' ) ;
#299 = COORDINATED_UNIVERSAL_TIME_OFFSET ( 10, 0, .AHEAD. ) ;
#300 = PERSON_AND_ORGANIZATION ( #18446744073709551615, #18446744073709551615 ) ;
#301 =( REPRESENTATION_RELATIONSHIP ('NONE','NONE', #158, #269 ) REPRESENTATION_RELATIONSHIP_WITH_TRANSFORMATION ( #48 )SHAPE_REPRESENTATION_RELATIONSHIP( ) );
#302 = CC_DESIGN_APPROVAL ( #168, ( #241 ) ) ;
#303 = PERSON ( 'NAUO-PER182', 'UNSPECIFIED', 'UNSPECIFIED', ('UNSPECIFIED'), ('UNSPECIFIED'), ('UNSPECIFIED') ) ;
#304 = CARTESIAN_POINT ( 'NONE',  ( 0.000000000000000000, 0.000000000000000000, 0.000000000000000000 ) ) ;
#305 = CC_DESIGN_PERSON_AND_ORGANIZATION_ASSIGNMENT ( #123, #117, ( #115 ) ) ;
#306 = DATE_AND_TIME ( #28, #193 ) ;
#307 = LOCAL_TIME ( 18, 49, 57.00000000000000000, #268 ) ;
#308 = DATE_AND_TIME ( #310, #17 ) ;
#309 = APPROVAL_STATUS ( 'not_yet_approved' ) ;
#310 = CALENDAR_DATE ( 2026, 22, 6 ) ;
#311 = COORDINATED_UNIVERSAL_TIME_OFFSET ( 10, 0, .AHEAD. ) ;
#312 = CC_DESIGN_APPROVAL ( #130, ( #94 ) ) ;
#313 = COORDINATED_UNIVERSAL_TIME_OFFSET ( 10, 0, .AHEAD. ) ;
#314 = PROPERTY_DEFINITION_REPRESENTATION ( #229, #318 ) ;
#315 = DIRECTION ( 'NONE',  ( 1.000000000000000222, -1.092455418989176591E-28, 4.890937612370273194E-29 ) ) ;
#316 = APPLICATION_PROTOCOL_DEFINITION ( 'international standard', 'config_control_design', 1994, #203 ) ;
#317 = APPROVAL_PERSON_ORGANIZATION ( #252, #36, #38 ) ;
#318 = SHAPE_REPRESENTATION ( '6461079856.step', ( #157 ), #155 ) ;
#319 = PERSON_AND_ORGANIZATION ( #18446744073709551615, #18446744073709551615 ) ;
#320 = APPLICATION_CONTEXT ( 'configuration controlled 3d designs of mechanical parts and assemblies' ) ;
#321 = APPROVAL_ROLE ( '' ) ;
#322 = APPROVAL ( #59, 'Coincident' ) ;
#323 = CALENDAR_DATE ( 2026, 22, 6 ) ;
#324 = PERSON_AND_ORGANIZATION ( #18446744073709551615, #18446744073709551615 ) ;
#325 = PERSON_AND_ORGANIZATION_ROLE ( 'design_supplier' ) ;
#326 = APPROVAL_STATUS ( 'not_yet_approved' ) ;
#327 = CC_DESIGN_DATE_AND_TIME_ASSIGNMENT ( #82, #240, ( #77 ) ) ;
#328 = CALENDAR_DATE ( 2026, 22, 6 ) ;
#329 = ORGANIZATION ( 'NAUO-ORG182', 'UNSPECIFIED', 'UNSPECIFIED' ) ;
#330 = APPROVAL ( #326, 'Coincident' ) ;
#331 = COORDINATED_UNIVERSAL_TIME_OFFSET ( 10, 0, .AHEAD. ) ;
#332 = DIRECTION ( 'NONE',  ( 1.000000000000000000, 0.000000000000000000, 0.000000000000000000 ) ) ;
#333 = CALENDAR_DATE ( 2026, 22, 6 ) ;
#334 = APPROVAL_PERSON_ORGANIZATION ( #359, #168, #366 ) ;
#335 = CC_DESIGN_APPROVAL ( #322, ( #96 ) ) ;
#336 =( LENGTH_UNIT ( ) NAMED_UNIT ( * ) SI_UNIT ( .MILLI., .METRE. ) );
#337 = CC_DESIGN_PERSON_AND_ORGANIZATION_ASSIGNMENT ( #373, #79, ( #29 ) ) ;
#338 = APPROVAL_DATE_TIME ( #136, #36 ) ;
#339 = DOCUMENT_TYPE ( 'geometry' ) ;
#340 = COORDINATED_UNIVERSAL_TIME_OFFSET ( 10, 0, .AHEAD. ) ;
#341 = APPROVAL_ROLE ( '' ) ;
#342 = ROLE_ASSOCIATION ( #351, #225 ) ;
#343 = APPROVAL_PERSON_ORGANIZATION ( #352, #6, #341 ) ;
#344 = PROPERTY_DEFINITION ('external definition','', #255 ) ;
#345 = PROPERTY_DEFINITION_REPRESENTATION ( #367, #318 ) ;
#346 =( NAMED_UNIT ( * ) SI_UNIT ( $, .STERADIAN. ) SOLID_ANGLE_UNIT ( ) );
#347 = CC_DESIGN_DATE_AND_TIME_ASSIGNMENT ( #308, #190, ( #241 ) ) ;
#348 = PRODUCT ( '6461079856.step', '6461079856.step', '', ( #264 ) ) ;
#349 = CALENDAR_DATE ( 2026, 22, 6 ) ;
#350 = PERSON_AND_ORGANIZATION ( #18446744073709551615, #18446744073709551615 ) ;
#351 = OBJECT_ROLE ('mandatory',$ ) ;
#352 = PERSON_AND_ORGANIZATION ( #18446744073709551615, #18446744073709551615 ) ;
#353 = LOCAL_TIME ( 18, 49, 57.00000000000000000, #249 ) ;
#354 = APPROVAL_ROLE ( '' ) ;
#355 = COORDINATED_UNIVERSAL_TIME_OFFSET ( 10, 0, .AHEAD. ) ;
#356 = DATE_AND_TIME ( #211, #307 ) ;
#357 = UNCERTAINTY_MEASURE_WITH_UNIT (LENGTH_MEASURE( 1.000000000000000082E-05 ), #20, 'distance_accuracy_value', 'NONE');
#358 = APPROVAL_STATUS ( 'not_yet_approved' ) ;
#359 = PERSON_AND_ORGANIZATION ( #18446744073709551615, #18446744073709551615 ) ;
#360 = CC_DESIGN_PERSON_AND_ORGANIZATION_ASSIGNMENT ( #252, #227, ( #53 ) ) ;
#361 = CC_DESIGN_APPROVAL ( #330, ( #131 ) ) ;
#362 = DATE_AND_TIME ( #95, #296 ) ;
#363 = IDENTIFICATION_ROLE ( 'external document id and location', $) ;
#364 = APPROVAL_PERSON_ORGANIZATION ( #89, #322, #243 ) ;
#365 = APPLIED_EXTERNAL_IDENTIFICATION_ASSIGNMENT ( '6534431024.step.STEP' , #363, #98,( #265) ) ;
#366 = APPROVAL_ROLE ( '' ) ;
#367 = PROPERTY_DEFINITION ('document property','', #109 ) ;
#368 = COORDINATED_UNIVERSAL_TIME_OFFSET ( 10, 0, .AHEAD. ) ;
#369 = APPLICATION_CONTEXT ( 'configuration controlled 3d designs of mechanical parts and assemblies' ) ;
#370 = PERSON_AND_ORGANIZATION_ROLE ( 'creator' ) ;
#371 = APPROVAL_PERSON_ORGANIZATION ( #189, #212, #223 ) ;
#372 = DATE_AND_TIME ( #167, #273 ) ;
#373 = PERSON_AND_ORGANIZATION ( #18446744073709551615, #18446744073709551615 ) ;
#374 = COORDINATED_UNIVERSAL_TIME_OFFSET ( 10, 0, .AHEAD. ) ;
#375 = PERSON_AND_ORGANIZATION_ROLE ( 'design_owner' ) ;
#376 = COORDINATED_UNIVERSAL_TIME_OFFSET ( 10, 0, .AHEAD. ) ;
#377 = PRODUCT_RELATED_PRODUCT_CATEGORY ( 'detail', '', ( #51 ) ) ;
#378 = DIRECTION ( 'NONE',  ( 4.890937612370273194E-29, -3.155443620884047222E-30, 0.9999999999999997780 ) ) ;
#379 = LOCAL_TIME ( 18, 49, 57.00000000000000000, #69 ) ;
#380 = PROPERTY_DEFINITION ('external definition','', #265 ) ;
#381 = CALENDAR_DATE ( 2026, 22, 6 ) ;
#382 = PERSON_AND_ORGANIZATION ( #18446744073709551615, #18446744073709551615 ) ;
#383 = CC_DESIGN_APPROVAL ( #36, ( #53 ) ) ;
#384 = ROLE_ASSOCIATION ( #295, #234 ) ;
#385 = DATE_TIME_ROLE ( 'creation_date' ) ;
#386 = PERSON_AND_ORGANIZATION ( #205, #277 ) ;
#387 = APPROVAL_PERSON_ORGANIZATION ( #256, #330, #153 ) ;
#388 = NEXT_ASSEMBLY_USAGE_OCCURRENCE ( 'NAUO180', ' ', ' ', #26, #241, $ ) ;
#389 = NEXT_ASSEMBLY_USAGE_OCCURRENCE ( 'NAUO181', ' ', ' ', #26, #241, $ ) ;
#390 = NEXT_ASSEMBLY_USAGE_OCCURRENCE ( 'NAUO182', ' ', ' ', #26, #96, $ ) ;
ENDSEC;
END-ISO-10303-21;
