ISO-10303-21;
HEADER;
FILE_DESCRIPTION (( 'STEP AP203' ),
    '1' );
FILE_NAME ('R10.step.STEP',
    '2026-06-22T08:49:57',
    ( 'localuser' ),
    ( '' ),
    'SwSTEP 2.0',
    'SolidWorks 2025',
    '' );
FILE_SCHEMA (( 'CONFIG_CONTROL_DESIGN' ));
ENDSEC;

DATA;
#1 = SHAPE_DEFINITION_REPRESENTATION ( #160, #102 ) ;
#2 =( NAMED_UNIT ( * ) PLANE_ANGLE_UNIT ( ) SI_UNIT ( $, .RADIAN. ) );
#3 = APPROVAL ( #182, 'Coincident' ) ;
#4 = CC_DESIGN_DATE_AND_TIME_ASSIGNMENT ( #64, #96, ( #311 ) ) ;
#5 = DIRECTION ( 'NONE',  ( 4.890937612370273194E-29, -3.155443620884047222E-30, 0.9999999999999997780 ) ) ;
#6 = ORGANIZATION ( 'NAUO-ORG164', 'UNSPECIFIED', 'UNSPECIFIED' ) ;
#7 = COORDINATED_UNIVERSAL_TIME_OFFSET ( 10, 0, .AHEAD. ) ;
#8 = AXIS2_PLACEMENT_3D ( 'NONE', #202, #229, #147 ) ;
#9 = CC_DESIGN_APPROVAL ( #62, ( #332 ) ) ;
#10 = CARTESIAN_POINT ( 'NONE',  ( 19.84999948117200574, 24.49999645996100739, -2.058321952820000078 ) ) ;
#11 = APPROVAL ( #35, 'Coincident' ) ;
#12 = PERSON_AND_ORGANIZATION ( #18446744073709551615, #18446744073709551615 ) ;
#13 = CC_DESIGN_PERSON_AND_ORGANIZATION_ASSIGNMENT ( #12, #69, ( #248 ) ) ;
#14 = DATE_AND_TIME ( #103, #225 ) ;
#15 = PERSON_AND_ORGANIZATION ( #18446744073709551615, #18446744073709551615 ) ;
#16 = APPROVAL_PERSON_ORGANIZATION ( #114, #316, #231 ) ;
#17 = PRODUCT_DEFINITION_SHAPE ( 'NONE', 'NONE',  #389 ) ;
#18 = IDENTIFICATION_ROLE ( 'external document id and location', $) ;
#19 = PERSON_AND_ORGANIZATION_ROLE ( 'creator' ) ;
#20 = DATE_AND_TIME ( #287, #80 ) ;
#21 = APPROVAL_DATE_TIME ( #177, #208 ) ;
#22 = APPLIED_EXTERNAL_IDENTIFICATION_ASSIGNMENT ( '6461083056.step.STEP' , #296, #113,( #299) ) ;
#23 = APPROVAL_STATUS ( 'not_yet_approved' ) ;
#24 = CC_DESIGN_PERSON_AND_ORGANIZATION_ASSIGNMENT ( #194, #166, ( #285 ) ) ;
#25 = PROPERTY_DEFINITION_REPRESENTATION ( #244, #102 ) ;
#26 = APPROVAL_PERSON_ORGANIZATION ( #32, #11, #121 ) ;
#27 = APPLIED_EXTERNAL_IDENTIFICATION_ASSIGNMENT ( '6461082896.step.STEP' , #18, #93,( #250) ) ;
#28 = COORDINATED_UNIVERSAL_TIME_OFFSET ( 10, 0, .AHEAD. ) ;
#29 = APPROVAL ( #72, 'Coincident' ) ;
#30 = APPROVAL_DATE_TIME ( #327, #87 ) ;
#31 = LOCAL_TIME ( 18, 49, 57.00000000000000000, #330 ) ;
#32 = PERSON_AND_ORGANIZATION ( #18446744073709551615, #18446744073709551615 ) ;
#33 = DOCUMENT_TYPE ( 'geometry' ) ;
#34 = PERSON_AND_ORGANIZATION_ROLE ( 'design_supplier' ) ;
#35 = APPROVAL_STATUS ( 'not_yet_approved' ) ;
#36 = APPROVAL_STATUS ( 'not_yet_approved' ) ;
#37 = LOCAL_TIME ( 18, 49, 57.00000000000000000, #165 ) ;
#38 = CALENDAR_DATE ( 2026, 22, 6 ) ;
#39 = PERSON_AND_ORGANIZATION_ROLE ( 'creator' ) ;
#40 = APPLICATION_PROTOCOL_DEFINITION ( 'international standard', 'config_control_design', 1994, #360 ) ;
#41 = CC_DESIGN_PERSON_AND_ORGANIZATION_ASSIGNMENT ( #365, #317, ( #86 ) ) ;
#42 = PRODUCT_DEFINITION_SHAPE ( 'NONE', 'NONE',  #56 ) ;
#43 = DATE_AND_TIME ( #377, #384 ) ;
#44 = CC_DESIGN_APPROVAL ( #208, ( #322 ) ) ;
#45 = DATE_AND_TIME ( #159, #37 ) ;
#46 = APPROVAL_DATE_TIME ( #109, #316 ) ;
#47 = CC_DESIGN_PERSON_AND_ORGANIZATION_ASSIGNMENT ( #329, #34, ( #79 ) ) ;
#48 = CALENDAR_DATE ( 2026, 22, 6 ) ;
#49 = CC_DESIGN_APPROVAL ( #29, ( #56 ) ) ;
#50 = DATE_AND_TIME ( #57, #31 ) ;
#51 = DOCUMENT_TYPE ( 'geometry' ) ;
#52 =( NAMED_UNIT ( * ) PLANE_ANGLE_UNIT ( ) SI_UNIT ( $, .RADIAN. ) );
#53 = LOCAL_TIME ( 18, 49, 57.00000000000000000, #125 ) ;
#54 = DIRECTION ( 'NONE',  ( 4.890937612370273194E-29, -3.155443620884047222E-30, 0.9999999999999997780 ) ) ;
#55 = PERSON_AND_ORGANIZATION ( #18446744073709551615, #18446744073709551615 ) ;
#56 = PRODUCT_DEFINITION ( 'General', '', #332, #116 ) ;
#57 = CALENDAR_DATE ( 2026, 22, 6 ) ;
#58 = COORDINATED_UNIVERSAL_TIME_OFFSET ( 10, 0, .AHEAD. ) ;
#59 = SECURITY_CLASSIFICATION ( '', '', #110 ) ;
#60 = DATE_AND_TIME ( #364, #191 ) ;
#61 = DATE_AND_TIME ( #335, #145 ) ;
#62 = APPROVAL ( #288, 'Coincident' ) ;
#63 = APPLICATION_PROTOCOL_DEFINITION ( 'international standard', 'config_control_design', 1994, #135 ) ;
#64 = DATE_AND_TIME ( #376, #373 ) ;
#65 = LOCAL_TIME ( 18, 49, 57.00000000000000000, #297 ) ;
#66 = APPROVAL_DATE_TIME ( #43, #280 ) ;
#67 = APPROVAL_DATE_TIME ( #45, #29 ) ;
#68 = CC_DESIGN_PERSON_AND_ORGANIZATION_ASSIGNMENT ( #382, #39, ( #332 ) ) ;
#69 = PERSON_AND_ORGANIZATION_ROLE ( 'classification_officer' ) ;
#70 =( REPRESENTATION_RELATIONSHIP ('NONE','NONE', #345, #102 ) REPRESENTATION_RELATIONSHIP_WITH_TRANSFORMATION ( #262 )SHAPE_REPRESENTATION_RELATIONSHIP( ) );
#71 = CC_DESIGN_APPROVAL ( #11, ( #79 ) ) ;
#72 = APPROVAL_STATUS ( 'not_yet_approved' ) ;
#73 = ORGANIZATION ( 'NAUO-ORG163', 'UNSPECIFIED', 'UNSPECIFIED' ) ;
#74 = CC_DESIGN_DATE_AND_TIME_ASSIGNMENT ( #60, #123, ( #201 ) ) ;
#75 = COORDINATED_UNIVERSAL_TIME_OFFSET ( 10, 0, .AHEAD. ) ;
#76 = APPROVAL ( #265, 'Coincident' ) ;
#77 = PERSON_AND_ORGANIZATION_ROLE ( 'design_supplier' ) ;
#78 = APPROVAL_STATUS ( 'not_yet_approved' ) ;
#79 = PRODUCT_DEFINITION_FORMATION_WITH_SPECIFIED_SOURCE ( 'Symmetric', '', #344, .NOT_KNOWN. ) ;
#80 = LOCAL_TIME ( 18, 49, 57.00000000000000000, #224 ) ;
#81 = UNCERTAINTY_MEASURE_WITH_UNIT (LENGTH_MEASURE( 1.000000000000000082E-05 ), #117, 'distance_accuracy_value', 'NONE');
#82 = PERSON_AND_ORGANIZATION ( #18446744073709551615, #18446744073709551615 ) ;
#83 = PRODUCT_RELATED_PRODUCT_CATEGORY ( 'detail', '', ( #222 ) ) ;
#84 = PERSON ( 'NAUO-PER162', 'UNSPECIFIED', 'UNSPECIFIED', ('UNSPECIFIED'), ('UNSPECIFIED'), ('UNSPECIFIED') ) ;
#85 = APPROVAL_ROLE ( '' ) ;
#86 = SECURITY_CLASSIFICATION ( '', '', #268 ) ;
#87 = APPROVAL ( #127, 'Coincident' ) ;
#88 = DIRECTION ( 'NONE',  ( 1.000000000000000222, -1.092455418989176591E-28, 4.890937612370273194E-29 ) ) ;
#89 = APPROVAL_ROLE ( '' ) ;
#90 = CC_DESIGN_DATE_AND_TIME_ASSIGNMENT ( #168, #171, ( #59 ) ) ;
#91 = PERSON_AND_ORGANIZATION ( #18446744073709551615, #18446744073709551615 ) ;
#92 = IDENTIFICATION_ROLE ( 'external document id and location', $) ;
#93 = EXTERNAL_SOURCE (IDENTIFIER('') ) ;
#94 = PERSON_AND_ORGANIZATION ( #18446744073709551615, #18446744073709551615 ) ;
#95 = CC_DESIGN_PERSON_AND_ORGANIZATION_ASSIGNMENT ( #216, #214, ( #311 ) ) ;
#96 = DATE_TIME_ROLE ( 'classification_date' ) ;
#97 = DATE_AND_TIME ( #193, #261 ) ;
#98 = PERSON_AND_ORGANIZATION ( #18446744073709551615, #18446744073709551615 ) ;
#99 = DATE_AND_TIME ( #128, #53 ) ;
#100 = CC_DESIGN_APPROVAL ( #280, ( #242 ) ) ;
#101 = PERSON_AND_ORGANIZATION ( #18446744073709551615, #18446744073709551615 ) ;
#102 = SHAPE_REPRESENTATION ( '6461082896.step', ( #218 ), #111 ) ;
#103 = CALENDAR_DATE ( 2026, 22, 6 ) ;
#104 = PRODUCT_DEFINITION_SHAPE ( 'NONE', 'NONE',  #388 ) ;
#105 = PERSON_AND_ORGANIZATION_ROLE ( 'design_supplier' ) ;
#106 = CALENDAR_DATE ( 2026, 22, 6 ) ;
#107 = CC_DESIGN_SECURITY_CLASSIFICATION ( #124, ( #79 ) ) ;
#108 = APPROVAL_STATUS ( 'not_yet_approved' ) ;
#109 = DATE_AND_TIME ( #383, #269 ) ;
#110 = SECURITY_CLASSIFICATION_LEVEL ( 'unclassified' ) ;
#111 =( GEOMETRIC_REPRESENTATION_CONTEXT ( 3 ) GLOBAL_UNCERTAINTY_ASSIGNED_CONTEXT ( ( #359 ) ) GLOBAL_UNIT_ASSIGNED_CONTEXT ( ( #236, #2, #199 ) ) REPRESENTATION_CONTEXT ( 'NONE', 'WORKASPACE' ) );
#112 = CC_DESIGN_APPROVAL ( #230, ( #285 ) ) ;
#113 = EXTERNAL_SOURCE (IDENTIFIER('') ) ;
#114 = PERSON_AND_ORGANIZATION ( #84, #179 ) ;
#115 = CARTESIAN_POINT ( 'NONE',  ( 0.000000000000000000, 0.000000000000000000, 0.000000000000000000 ) ) ;
#116 = DESIGN_CONTEXT ( 'detailed design', #360, 'design' ) ;
#117 =( LENGTH_UNIT ( ) NAMED_UNIT ( * ) SI_UNIT ( .MILLI., .METRE. ) );
#118 = CC_DESIGN_APPROVAL ( #87, ( #124 ) ) ;
#119 = CARTESIAN_POINT ( 'NONE',  ( 20.34999566647500657, 24.49999645996100384, -2.058321952820000078 ) ) ;
#120 = UNCERTAINTY_MEASURE_WITH_UNIT (LENGTH_MEASURE( 1.000000000000000082E-05 ), #263, 'distance_accuracy_value', 'NONE');
#121 = APPROVAL_ROLE ( '' ) ;
#122 = APPLIED_DOCUMENT_REFERENCE ( #299,'',( #56) ) ;
#123 = DATE_TIME_ROLE ( 'creation_date' ) ;
#124 = SECURITY_CLASSIFICATION ( '', '', #333 ) ;
#125 = COORDINATED_UNIVERSAL_TIME_OFFSET ( 10, 0, .AHEAD. ) ;
#126 = CC_DESIGN_APPROVAL ( #76, ( #86 ) ) ;
#127 = APPROVAL_STATUS ( 'not_yet_approved' ) ;
#128 = CALENDAR_DATE ( 2026, 22, 6 ) ;
#129 = COORDINATED_UNIVERSAL_TIME_OFFSET ( 10, 0, .AHEAD. ) ;
#130 = APPROVAL_ROLE ( '' ) ;
#131 = CC_DESIGN_SECURITY_CLASSIFICATION ( #86, ( #322 ) ) ;
#132 = PERSON_AND_ORGANIZATION_ROLE ( 'design_owner' ) ;
#133 = PROPERTY_DEFINITION ('document property','', #250 ) ;
#134 = APPROVAL_ROLE ( '' ) ;
#135 = APPLICATION_CONTEXT ( 'configuration controlled 3d designs of mechanical parts and assemblies' ) ;
#136 = ROLE_ASSOCIATION ( #277, #295 ) ;
#137 = CC_DESIGN_PERSON_AND_ORGANIZATION_ASSIGNMENT ( #114, #355, ( #59 ) ) ;
#138 = CALENDAR_DATE ( 2026, 22, 6 ) ;
#139 = CC_DESIGN_SECURITY_CLASSIFICATION ( #285, ( #389 ) ) ;
#140 = APPROVAL_ROLE ( '' ) ;
#141 = COORDINATED_UNIVERSAL_TIME_OFFSET ( 10, 0, .AHEAD. ) ;
#142 = DATE_TIME_ROLE ( 'classification_date' ) ;
#143 = AXIS2_PLACEMENT_3D ( 'NONE', #318, #304, #150 ) ;
#144 = AXIS2_PLACEMENT_3D ( 'NONE', #266, #232, #356 ) ;
#145 = LOCAL_TIME ( 18, 49, 57.00000000000000000, #151 ) ;
#146 = APPROVAL_DATE_TIME ( #368, #11 ) ;
#147 = DIRECTION ( 'NONE',  ( 1.000000000000000000, 0.000000000000000000, 0.000000000000000000 ) ) ;
#148 = LOCAL_TIME ( 18, 49, 57.00000000000000000, #58 ) ;
#149 = LOCAL_TIME ( 18, 49, 57.00000000000000000, #141 ) ;
#150 = DIRECTION ( 'NONE',  ( 1.000000000000000222, -1.092455418989176591E-28, 4.890937612370273194E-29 ) ) ;
#151 = COORDINATED_UNIVERSAL_TIME_OFFSET ( 10, 0, .AHEAD. ) ;
#152 =( REPRESENTATION_RELATIONSHIP ('NONE','NONE', #345, #102 ) REPRESENTATION_RELATIONSHIP_WITH_TRANSFORMATION ( #281 )SHAPE_REPRESENTATION_RELATIONSHIP( ) );
#153 = DATE_TIME_ROLE ( 'classification_date' ) ;
#154 = DATE_AND_TIME ( #38, #300 ) ;
#155 = CC_DESIGN_DATE_AND_TIME_ASSIGNMENT ( #61, #153, ( #124 ) ) ;
#156 = COORDINATED_UNIVERSAL_TIME_OFFSET ( 10, 0, .AHEAD. ) ;
#157 = CC_DESIGN_DATE_AND_TIME_ASSIGNMENT ( #294, #142, ( #86 ) ) ;
#158 = PROPERTY_DEFINITION ('external definition','', #299 ) ;
#159 = CALENDAR_DATE ( 2026, 22, 6 ) ;
#160 = PRODUCT_DEFINITION_SHAPE ( 'NONE', 'NONE',  #242 ) ;
#161 = APPROVAL_PERSON_ORGANIZATION ( #223, #280, #215 ) ;
#162 = LOCAL_TIME ( 18, 49, 57.00000000000000000, #75 ) ;
#163 = APPLICATION_PROTOCOL_DEFINITION ( 'international standard', 'config_control_design', 1994, #259 ) ;
#164 = APPROVAL ( #36, 'UNKNOWN' ) ;
#165 = COORDINATED_UNIVERSAL_TIME_OFFSET ( 10, 0, .AHEAD. ) ;
#166 = PERSON_AND_ORGANIZATION_ROLE ( 'classification_officer' ) ;
#167 = AXIS2_PLACEMENT_3D ( 'NONE', #119, #54, #361 ) ;
#168 = DATE_AND_TIME ( #48, #306 ) ;
#169 = CALENDAR_DATE ( 2026, 22, 6 ) ;
#170 = COORDINATED_UNIVERSAL_TIME_OFFSET ( 10, 0, .AHEAD. ) ;
#171 = DATE_TIME_ROLE ( 'classification_date' ) ;
#172 = PERSON_AND_ORGANIZATION ( #18446744073709551615, #18446744073709551615 ) ;
#173 =( REPRESENTATION_RELATIONSHIP ('NONE','NONE', #345, #312 ) REPRESENTATION_RELATIONSHIP_WITH_TRANSFORMATION ( #323 )SHAPE_REPRESENTATION_RELATIONSHIP( ) );
#174 =( NAMED_UNIT ( * ) SI_UNIT ( $, .STERADIAN. ) SOLID_ANGLE_UNIT ( ) );
#175 = PERSON_AND_ORGANIZATION_ROLE ( 'classification_officer' ) ;
#176 = CC_DESIGN_PERSON_AND_ORGANIZATION_ASSIGNMENT ( #172, #301, ( #344 ) ) ;
#177 = DATE_AND_TIME ( #184, #149 ) ;
#178 = DOCUMENT_FILE ( '6461082896.step.STEP' , '', '', #347, '' ,$ ) ;
#179 = ORGANIZATION ( 'NAUO-ORG162', 'UNSPECIFIED', 'UNSPECIFIED' ) ;
#180 = ROLE_ASSOCIATION ( #370, #122 ) ;
#181 =( NAMED_UNIT ( * ) SI_UNIT ( $, .STERADIAN. ) SOLID_ANGLE_UNIT ( ) );
#182 = APPROVAL_STATUS ( 'not_yet_approved' ) ;
#183 = SECURITY_CLASSIFICATION_LEVEL ( 'unclassified' ) ;
#184 = CALENDAR_DATE ( 2026, 22, 6 ) ;
#185 = ROLE_ASSOCIATION ( #290, #278 ) ;
#186 = LOCAL_TIME ( 18, 49, 57.00000000000000000, #267 ) ;
#187 = SHAPE_DEFINITION_REPRESENTATION ( #253, #345 ) ;
#188 = PRODUCT ( '6461083056.step', '6461083056.step', '', ( #346 ) ) ;
#189 = APPROVAL_STATUS ( 'not_yet_approved' ) ;
#190 = APPROVAL_STATUS ( 'not_yet_approved' ) ;
#191 = LOCAL_TIME ( 18, 49, 57.00000000000000000, #28 ) ;
#192 = CC_DESIGN_DATE_AND_TIME_ASSIGNMENT ( #154, #251, ( #242 ) ) ;
#193 = CALENDAR_DATE ( 2026, 22, 6 ) ;
#194 = PERSON_AND_ORGANIZATION ( #386, #73 ) ;
#195 = APPROVAL_DATE_TIME ( #241, #230 ) ;
#196 = CC_DESIGN_PERSON_AND_ORGANIZATION_ASSIGNMENT ( #98, #132, ( #188 ) ) ;
#197 = DIRECTION ( 'NONE',  ( 0.000000000000000000, 0.000000000000000000, 1.000000000000000000 ) ) ;
#198 = LOCAL_TIME ( 18, 49, 57.00000000000000000, #325 ) ;
#199 =( NAMED_UNIT ( * ) SI_UNIT ( $, .STERADIAN. ) SOLID_ANGLE_UNIT ( ) );
#200 = PERSON_AND_ORGANIZATION_ROLE ( 'creator' ) ;
#201 = PRODUCT_DEFINITION ( 'General', '', #79, #293 ) ;
#202 = CARTESIAN_POINT ( 'NONE',  ( 0.000000000000000000, 0.000000000000000000, 0.000000000000000000 ) ) ;
#203 = PRODUCT_RELATED_PRODUCT_CATEGORY ( 'detail', '', ( #188 ) ) ;
#204 = APPROVAL_PERSON_ORGANIZATION ( #279, #87, #85 ) ;
#205 = CALENDAR_DATE ( 2026, 22, 6 ) ;
#206 = APPLICATION_PROTOCOL_DEFINITION ( 'international standard', 'config_control_design', 1994, #212 ) ;
#207 = PERSON_AND_ORGANIZATION ( #18446744073709551615, #18446744073709551615 ) ;
#208 = APPROVAL ( #108, 'Coincident' ) ;
#209 = PERSON_AND_ORGANIZATION_ROLE ( 'creator' ) ;
#210 =( GEOMETRIC_REPRESENTATION_CONTEXT ( 3 ) GLOBAL_UNCERTAINTY_ASSIGNED_CONTEXT ( ( #81 ) ) GLOBAL_UNIT_ASSIGNED_CONTEXT ( ( #117, #374, #181 ) ) REPRESENTATION_CONTEXT ( 'NONE', 'WORKASPACE' ) );
#211 = CC_DESIGN_APPROVAL ( #351, ( #248 ) ) ;
#212 = APPLICATION_CONTEXT ( 'configuration controlled 3d designs of mechanical parts and assemblies' ) ;
#213 = PERSON_AND_ORGANIZATION_ROLE ( 'creator' ) ;
#214 = PERSON_AND_ORGANIZATION_ROLE ( 'classification_officer' ) ;
#215 = APPROVAL_ROLE ( '' ) ;
#216 = PERSON_AND_ORGANIZATION ( #273, #6 ) ;
#217 = COORDINATED_UNIVERSAL_TIME_OFFSET ( 10, 0, .AHEAD. ) ;
#218 = AXIS2_PLACEMENT_3D ( 'NONE', #115, #197, #320 ) ;
#219 = PROPERTY_DEFINITION_REPRESENTATION ( #348, #312 ) ;
#220 = APPROVAL_PERSON_ORGANIZATION ( #216, #164, #276 ) ;
#221 = DATE_TIME_ROLE ( 'classification_date' ) ;
#222 = PRODUCT ( '6461082896.step', '6461082896.step', '', ( #257 ) ) ;
#223 = PERSON_AND_ORGANIZATION ( #18446744073709551615, #18446744073709551615 ) ;
#224 = COORDINATED_UNIVERSAL_TIME_OFFSET ( 10, 0, .AHEAD. ) ;
#225 = LOCAL_TIME ( 18, 49, 57.00000000000000000, #217 ) ;
#226 = CONTEXT_DEPENDENT_SHAPE_REPRESENTATION ( #70, #104 ) ;
#227 = CC_DESIGN_PERSON_AND_ORGANIZATION_ASSIGNMENT ( #94, #175, ( #124 ) ) ;
#228 = COORDINATED_UNIVERSAL_TIME_OFFSET ( 10, 0, .AHEAD. ) ;
#229 = DIRECTION ( 'NONE',  ( 0.000000000000000000, 0.000000000000000000, 1.000000000000000000 ) ) ;
#230 = APPROVAL ( #23, 'UNKNOWN' ) ;
#231 = APPROVAL_ROLE ( '' ) ;
#232 = DIRECTION ( 'NONE',  ( 0.000000000000000000, 0.000000000000000000, 1.000000000000000000 ) ) ;
#233 = PERSON_AND_ORGANIZATION ( #18446744073709551615, #18446744073709551615 ) ;
#234 = APPLIED_EXTERNAL_IDENTIFICATION_ASSIGNMENT ( '6461082896.step.STEP' , #92, #336,( #178) ) ;
#235 = APPLICATION_CONTEXT ( 'configuration controlled 3d designs of mechanical parts and assemblies' ) ;
#236 =( LENGTH_UNIT ( ) NAMED_UNIT ( * ) SI_UNIT ( .MILLI., .METRE. ) );
#237 = CC_DESIGN_DATE_AND_TIME_ASSIGNMENT ( #20, #221, ( #248 ) ) ;
#238 = DESIGN_CONTEXT ( 'detailed design', #135, 'design' ) ;
#239 = CC_DESIGN_SECURITY_CLASSIFICATION ( #311, ( #390 ) ) ;
#240 = PERSON_AND_ORGANIZATION ( #18446744073709551615, #18446744073709551615 ) ;
#241 = DATE_AND_TIME ( #169, #186 ) ;
#242 = PRODUCT_DEFINITION ( 'General', '', #322, #238 ) ;
#243 = CALENDAR_DATE ( 2026, 22, 6 ) ;
#244 = PROPERTY_DEFINITION ('external definition','', #178 ) ;
#245 = COORDINATED_UNIVERSAL_TIME_OFFSET ( 10, 0, .AHEAD. ) ;
#246 = DATE_AND_TIME ( #271, #148 ) ;
#247 = LOCAL_TIME ( 18, 49, 57.00000000000000000, #245 ) ;
#248 = SECURITY_CLASSIFICATION ( '', '', #183 ) ;
#249 = PERSON_AND_ORGANIZATION ( #18446744073709551615, #18446744073709551615 ) ;
#250 = DOCUMENT_FILE ( '6461082896.step.STEP' , '', '', #51, '' ,$ ) ;
#251 = DATE_TIME_ROLE ( 'creation_date' ) ;
#252 = APPROVAL_DATE_TIME ( #97, #62 ) ;
#253 = PRODUCT_DEFINITION_SHAPE ( 'NONE', 'NONE',  #201 ) ;
#254 = CC_DESIGN_APPROVAL ( #316, ( #59 ) ) ;
#255 = PRODUCT_DEFINITION_SHAPE ( 'NONE', 'NONE',  #390 ) ;
#256 = CC_DESIGN_PERSON_AND_ORGANIZATION_ASSIGNMENT ( #307, #19, ( #242 ) ) ;
#257 = MECHANICAL_CONTEXT ( 'NONE', #259, 'mechanical' ) ;
#258 = PERSON_AND_ORGANIZATION_ROLE ( 'creator' ) ;
#259 = APPLICATION_CONTEXT ( 'configuration controlled 3d designs of mechanical parts and assemblies' ) ;
#260 =( GEOMETRIC_REPRESENTATION_CONTEXT ( 3 ) GLOBAL_UNCERTAINTY_ASSIGNED_CONTEXT ( ( #120 ) ) GLOBAL_UNIT_ASSIGNED_CONTEXT ( ( #263, #52, #174 ) ) REPRESENTATION_CONTEXT ( 'NONE', 'WORKASPACE' ) );
#261 = LOCAL_TIME ( 18, 49, 57.00000000000000000, #156 ) ;
#262 = ITEM_DEFINED_TRANSFORMATION ( 'NONE', 'NONE', #143,  #218 ) ;
#263 =( LENGTH_UNIT ( ) NAMED_UNIT ( * ) SI_UNIT ( .MILLI., .METRE. ) );
#264 = CC_DESIGN_DATE_AND_TIME_ASSIGNMENT ( #352, #319, ( #285 ) ) ;
#265 = APPROVAL_STATUS ( 'not_yet_approved' ) ;
#266 = CARTESIAN_POINT ( 'NONE',  ( 0.000000000000000000, 0.000000000000000000, 0.000000000000000000 ) ) ;
#267 = COORDINATED_UNIVERSAL_TIME_OFFSET ( 10, 0, .AHEAD. ) ;
#268 = SECURITY_CLASSIFICATION_LEVEL ( 'unclassified' ) ;
#269 = LOCAL_TIME ( 18, 49, 57.00000000000000000, #228 ) ;
#270 = APPLICATION_PROTOCOL_DEFINITION ( 'international standard', 'config_control_design', 1994, #315 ) ;
#271 = CALENDAR_DATE ( 2026, 22, 6 ) ;
#272 = PRODUCT_RELATED_PRODUCT_CATEGORY ( 'detail', '', ( #344 ) ) ;
#273 = PERSON ( 'NAUO-PER164', 'UNSPECIFIED', 'UNSPECIFIED', ('UNSPECIFIED'), ('UNSPECIFIED'), ('UNSPECIFIED') ) ;
#274 = APPROVAL_PERSON_ORGANIZATION ( #233, #76, #292 ) ;
#275 = APPROVAL_DATE_TIME ( #246, #3 ) ;
#276 = APPROVAL_ROLE ( '' ) ;
#277 = OBJECT_ROLE ('mandatory',$ ) ;
#278 = APPLIED_DOCUMENT_REFERENCE ( #250,'',( #242) ) ;
#279 = PERSON_AND_ORGANIZATION ( #18446744073709551615, #18446744073709551615 ) ;
#280 = APPROVAL ( #190, 'Coincident' ) ;
#281 = ITEM_DEFINED_TRANSFORMATION ( 'NONE', 'NONE', #321,  #218 ) ;
#282 = PERSON_AND_ORGANIZATION ( #18446744073709551615, #18446744073709551615 ) ;
#283 = PERSON_AND_ORGANIZATION ( #18446744073709551615, #18446744073709551615 ) ;
#284 = DATE_TIME_ROLE ( 'creation_date' ) ;
#285 = SECURITY_CLASSIFICATION ( '', '', #289 ) ;
#286 = PROPERTY_DEFINITION ('external definition','', #250 ) ;
#287 = CALENDAR_DATE ( 2026, 22, 6 ) ;
#288 = APPROVAL_STATUS ( 'not_yet_approved' ) ;
#289 = SECURITY_CLASSIFICATION_LEVEL ( 'unclassified' ) ;
#290 = OBJECT_ROLE ('mandatory',$ ) ;
#291 = CC_DESIGN_SECURITY_CLASSIFICATION ( #59, ( #388 ) ) ;
#292 = APPROVAL_ROLE ( '' ) ;
#293 = DESIGN_CONTEXT ( 'detailed design', #212, 'design' ) ;
#294 = DATE_AND_TIME ( #138, #198 ) ;
#295 = APPLIED_DOCUMENT_REFERENCE ( #178,'',( #242) ) ;
#296 = IDENTIFICATION_ROLE ( 'external document id and location', $) ;
#297 = COORDINATED_UNIVERSAL_TIME_OFFSET ( 10, 0, .AHEAD. ) ;
#298 = CC_DESIGN_DATE_AND_TIME_ASSIGNMENT ( #14, #284, ( #56 ) ) ;
#299 = DOCUMENT_FILE ( '6461083056.step.STEP' , '', '', #33, '' ,$ ) ;
#300 = LOCAL_TIME ( 18, 49, 57.00000000000000000, #305 ) ;
#301 = PERSON_AND_ORGANIZATION_ROLE ( 'design_owner' ) ;
#302 = SECURITY_CLASSIFICATION_LEVEL ( 'unclassified' ) ;
#303 = CC_DESIGN_PERSON_AND_ORGANIZATION_ASSIGNMENT ( #282, #105, ( #332 ) ) ;
#304 = DIRECTION ( 'NONE',  ( 4.890937612370273194E-29, -3.155443620884047222E-30, 0.9999999999999997780 ) ) ;
#305 = COORDINATED_UNIVERSAL_TIME_OFFSET ( 10, 0, .AHEAD. ) ;
#306 = LOCAL_TIME ( 18, 49, 57.00000000000000000, #170 ) ;
#307 = PERSON_AND_ORGANIZATION ( #18446744073709551615, #18446744073709551615 ) ;
#308 = CC_DESIGN_PERSON_AND_ORGANIZATION_ASSIGNMENT ( #91, #209, ( #79 ) ) ;
#309 = DATE_AND_TIME ( #310, #380 ) ;
#310 = CALENDAR_DATE ( 2026, 22, 6 ) ;
#311 = SECURITY_CLASSIFICATION ( '', '', #302 ) ;
#312 = SHAPE_REPRESENTATION ( '6461083056.step', ( #144 ), #260 ) ;
#313 = CC_DESIGN_PERSON_AND_ORGANIZATION_ASSIGNMENT ( #240, #213, ( #201 ) ) ;
#314 = PERSON_AND_ORGANIZATION ( #18446744073709551615, #18446744073709551615 ) ;
#315 = APPLICATION_CONTEXT ( 'configuration controlled 3d designs of mechanical parts and assemblies' ) ;
#316 = APPROVAL ( #78, 'UNKNOWN' ) ;
#317 = PERSON_AND_ORGANIZATION_ROLE ( 'classification_officer' ) ;
#318 = CARTESIAN_POINT ( 'NONE',  ( 20.84999566647500657, 24.49999645996100384, -2.058321952820000078 ) ) ;
#319 = DATE_TIME_ROLE ( 'classification_date' ) ;
#320 = DIRECTION ( 'NONE',  ( 1.000000000000000000, 0.000000000000000000, 0.000000000000000000 ) ) ;
#321 = AXIS2_PLACEMENT_3D ( 'NONE', #10, #5, #88 ) ;
#322 = PRODUCT_DEFINITION_FORMATION_WITH_SPECIFIED_SOURCE ( 'Symmetric', '', #222, .NOT_KNOWN. ) ;
#323 = ITEM_DEFINED_TRANSFORMATION ( 'NONE', 'NONE', #167,  #144 ) ;
#324 = MECHANICAL_CONTEXT ( 'NONE', #315, 'mechanical' ) ;
#325 = COORDINATED_UNIVERSAL_TIME_OFFSET ( 10, 0, .AHEAD. ) ;
#326 = CC_DESIGN_APPROVAL ( #164, ( #311 ) ) ;
#327 = DATE_AND_TIME ( #205, #65 ) ;
#328 = CC_DESIGN_PERSON_AND_ORGANIZATION_ASSIGNMENT ( #82, #200, ( #322 ) ) ;
#329 = PERSON_AND_ORGANIZATION ( #18446744073709551615, #18446744073709551615 ) ;
#330 = COORDINATED_UNIVERSAL_TIME_OFFSET ( 10, 0, .AHEAD. ) ;
#331 = APPROVAL_ROLE ( '' ) ;
#332 = PRODUCT_DEFINITION_FORMATION_WITH_SPECIFIED_SOURCE ( 'Symmetric', '', #188, .NOT_KNOWN. ) ;
#333 = SECURITY_CLASSIFICATION_LEVEL ( 'unclassified' ) ;
#334 = PROPERTY_DEFINITION_REPRESENTATION ( #286, #102 ) ;
#335 = CALENDAR_DATE ( 2026, 22, 6 ) ;
#336 = EXTERNAL_SOURCE (IDENTIFIER('') ) ;
#337 = PROPERTY_DEFINITION_REPRESENTATION ( #133, #102 ) ;
#338 = COORDINATED_UNIVERSAL_TIME_OFFSET ( 10, 0, .AHEAD. ) ;
#339 = PROPERTY_DEFINITION_REPRESENTATION ( #158, #312 ) ;
#340 = APPROVAL_ROLE ( '' ) ;
#341 = APPROVAL_PERSON_ORGANIZATION ( #55, #3, #331 ) ;
#342 = APPROVAL_PERSON_ORGANIZATION ( #349, #351, #130 ) ;
#343 = SHAPE_DEFINITION_REPRESENTATION ( #42, #312 ) ;
#344 = PRODUCT ( 'R10.step', 'R10.step', '', ( #324 ) ) ;
#345 = SHAPE_REPRESENTATION ( 'R10.step', ( #8, #143, #167, #321 ), #210 ) ;
#346 = MECHANICAL_CONTEXT ( 'NONE', #235, 'mechanical' ) ;
#347 = DOCUMENT_TYPE ( 'geometry' ) ;
#348 = PROPERTY_DEFINITION ('document property','', #299 ) ;
#349 = PERSON_AND_ORGANIZATION ( #18446744073709551615, #18446744073709551615 ) ;
#350 = CC_DESIGN_SECURITY_CLASSIFICATION ( #248, ( #332 ) ) ;
#351 = APPROVAL ( #189, 'Coincident' ) ;
#352 = DATE_AND_TIME ( #106, #162 ) ;
#353 = CC_DESIGN_PERSON_AND_ORGANIZATION_ASSIGNMENT ( #101, #258, ( #56 ) ) ;
#354 = PROPERTY_DEFINITION_REPRESENTATION ( #366, #102 ) ;
#355 = PERSON_AND_ORGANIZATION_ROLE ( 'classification_officer' ) ;
#356 = DIRECTION ( 'NONE',  ( 1.000000000000000000, 0.000000000000000000, 0.000000000000000000 ) ) ;
#357 = APPROVAL_PERSON_ORGANIZATION ( #283, #208, #140 ) ;
#358 = APPROVAL_DATE_TIME ( #50, #76 ) ;
#359 = UNCERTAINTY_MEASURE_WITH_UNIT (LENGTH_MEASURE( 1.000000000000000082E-05 ), #236, 'distance_accuracy_value', 'NONE');
#360 = APPLICATION_CONTEXT ( 'configuration controlled 3d designs of mechanical parts and assemblies' ) ;
#361 = DIRECTION ( 'NONE',  ( 1.000000000000000222, -1.092455418989176591E-28, 4.890937612370273194E-29 ) ) ;
#362 = CC_DESIGN_PERSON_AND_ORGANIZATION_ASSIGNMENT ( #15, #375, ( #222 ) ) ;
#363 = APPROVAL_PERSON_ORGANIZATION ( #249, #62, #340 ) ;
#364 = CALENDAR_DATE ( 2026, 22, 6 ) ;
#365 = PERSON_AND_ORGANIZATION ( #18446744073709551615, #18446744073709551615 ) ;
#366 = PROPERTY_DEFINITION ('document property','', #178 ) ;
#367 = CONTEXT_DEPENDENT_SHAPE_REPRESENTATION ( #152, #255 ) ;
#368 = DATE_AND_TIME ( #243, #247 ) ;
#369 = CC_DESIGN_PERSON_AND_ORGANIZATION_ASSIGNMENT ( #207, #77, ( #322 ) ) ;
#370 = OBJECT_ROLE ('mandatory',$ ) ;
#371 = APPROVAL_DATE_TIME ( #99, #164 ) ;
#372 = APPROVAL_PERSON_ORGANIZATION ( #314, #29, #134 ) ;
#373 = LOCAL_TIME ( 18, 49, 57.00000000000000000, #7 ) ;
#374 =( NAMED_UNIT ( * ) PLANE_ANGLE_UNIT ( ) SI_UNIT ( $, .RADIAN. ) );
#375 = PERSON_AND_ORGANIZATION_ROLE ( 'design_owner' ) ;
#376 = CALENDAR_DATE ( 2026, 22, 6 ) ;
#377 = CALENDAR_DATE ( 2026, 22, 6 ) ;
#378 = APPROVAL_DATE_TIME ( #309, #351 ) ;
#379 = CC_DESIGN_APPROVAL ( #3, ( #201 ) ) ;
#380 = LOCAL_TIME ( 18, 49, 57.00000000000000000, #338 ) ;
#381 = APPLICATION_PROTOCOL_DEFINITION ( 'international standard', 'config_control_design', 1994, #235 ) ;
#382 = PERSON_AND_ORGANIZATION ( #18446744073709551615, #18446744073709551615 ) ;
#383 = CALENDAR_DATE ( 2026, 22, 6 ) ;
#384 = LOCAL_TIME ( 18, 49, 57.00000000000000000, #129 ) ;
#385 = CONTEXT_DEPENDENT_SHAPE_REPRESENTATION ( #173, #17 ) ;
#386 = PERSON ( 'NAUO-PER163', 'UNSPECIFIED', 'UNSPECIFIED', ('UNSPECIFIED'), ('UNSPECIFIED'), ('UNSPECIFIED') ) ;
#387 = APPROVAL_PERSON_ORGANIZATION ( #194, #230, #89 ) ;
#388 = NEXT_ASSEMBLY_USAGE_OCCURRENCE ( 'NAUO162', ' ', ' ', #201, #242, $ ) ;
#389 = NEXT_ASSEMBLY_USAGE_OCCURRENCE ( 'NAUO163', ' ', ' ', #201, #56, $ ) ;
#390 = NEXT_ASSEMBLY_USAGE_OCCURRENCE ( 'NAUO164', ' ', ' ', #201, #242, $ ) ;
ENDSEC;
END-ISO-10303-21;
