ISO-10303-21;
HEADER;
FILE_DESCRIPTION (( 'STEP AP203' ),
    '1' );
FILE_NAME ('R11.step.STEP',
    '2026-06-22T08:49:57',
    ( 'localuser' ),
    ( '' ),
    'SwSTEP 2.0',
    'SolidWorks 2025',
    '' );
FILE_SCHEMA (( 'CONFIG_CONTROL_DESIGN' ));
ENDSEC;

DATA;
#1 = CC_DESIGN_PERSON_AND_ORGANIZATION_ASSIGNMENT ( #131, #101, ( #83 ) ) ;
#2 = DIRECTION ( 'NONE',  ( 1.000000000000000000, 0.000000000000000000, 0.000000000000000000 ) ) ;
#3 = APPROVAL ( #215, 'UNKNOWN' ) ;
#4 = APPLICATION_PROTOCOL_DEFINITION ( 'international standard', 'config_control_design', 1994, #70 ) ;
#5 = CC_DESIGN_APPROVAL ( #85, ( #317 ) ) ;
#6 = APPROVAL_ROLE ( '' ) ;
#7 = PRODUCT_DEFINITION ( 'General', '', #22, #146 ) ;
#8 = APPROVAL_DATE_TIME ( #366, #273 ) ;
#9 = LOCAL_TIME ( 18, 49, 57.00000000000000000, #39 ) ;
#10 = PERSON_AND_ORGANIZATION_ROLE ( 'design_supplier' ) ;
#11 = CC_DESIGN_PERSON_AND_ORGANIZATION_ASSIGNMENT ( #304, #130, ( #115 ) ) ;
#12 = PERSON_AND_ORGANIZATION ( #18446744073709551615, #18446744073709551615 ) ;
#13 = CC_DESIGN_PERSON_AND_ORGANIZATION_ASSIGNMENT ( #12, #247, ( #7 ) ) ;
#14 = APPROVAL_DATE_TIME ( #375, #80 ) ;
#15 = CALENDAR_DATE ( 2026, 22, 6 ) ;
#16 = APPROVAL_PERSON_ORGANIZATION ( #264, #110, #27 ) ;
#17 = PRODUCT_DEFINITION_SHAPE ( 'NONE', 'NONE',  #390 ) ;
#18 =( REPRESENTATION_RELATIONSHIP ('NONE','NONE', #138, #291 ) REPRESENTATION_RELATIONSHIP_WITH_TRANSFORMATION ( #322 )SHAPE_REPRESENTATION_RELATIONSHIP( ) );
#19 = PERSON_AND_ORGANIZATION_ROLE ( 'creator' ) ;
#20 = CALENDAR_DATE ( 2026, 22, 6 ) ;
#21 = CALENDAR_DATE ( 2026, 22, 6 ) ;
#22 = PRODUCT_DEFINITION_FORMATION_WITH_SPECIFIED_SOURCE ( 'Symmetric', '', #46, .NOT_KNOWN. ) ;
#23 = APPROVAL_DATE_TIME ( #296, #3 ) ;
#24 = CC_DESIGN_PERSON_AND_ORGANIZATION_ASSIGNMENT ( #383, #120, ( #94 ) ) ;
#25 = COORDINATED_UNIVERSAL_TIME_OFFSET ( 10, 0, .AHEAD. ) ;
#26 =( LENGTH_UNIT ( ) NAMED_UNIT ( * ) SI_UNIT ( .MILLI., .METRE. ) );
#27 = APPROVAL_ROLE ( '' ) ;
#28 = CARTESIAN_POINT ( 'NONE',  ( 0.000000000000000000, 0.000000000000000000, 0.000000000000000000 ) ) ;
#29 = AXIS2_PLACEMENT_3D ( 'NONE', #58, #181, #148 ) ;
#30 = CC_DESIGN_SECURITY_CLASSIFICATION ( #94, ( #388 ) ) ;
#31 = CC_DESIGN_APPROVAL ( #132, ( #270 ) ) ;
#32 = PERSON_AND_ORGANIZATION_ROLE ( 'creator' ) ;
#33 = APPROVAL ( #192, 'Coincident' ) ;
#34 = COORDINATED_UNIVERSAL_TIME_OFFSET ( 10, 0, .AHEAD. ) ;
#35 = CC_DESIGN_APPROVAL ( #80, ( #7 ) ) ;
#36 = PROPERTY_DEFINITION_REPRESENTATION ( #314, #291 ) ;
#37 = APPLICATION_CONTEXT ( 'configuration controlled 3d designs of mechanical parts and assemblies' ) ;
#38 =( LENGTH_UNIT ( ) NAMED_UNIT ( * ) SI_UNIT ( .MILLI., .METRE. ) );
#39 = COORDINATED_UNIVERSAL_TIME_OFFSET ( 10, 0, .AHEAD. ) ;
#40 = LOCAL_TIME ( 18, 49, 57.00000000000000000, #187 ) ;
#41 = PERSON_AND_ORGANIZATION ( #18446744073709551615, #18446744073709551615 ) ;
#42 = DATE_TIME_ROLE ( 'classification_date' ) ;
#43 = APPROVAL_STATUS ( 'not_yet_approved' ) ;
#44 = PRODUCT_DEFINITION_SHAPE ( 'NONE', 'NONE',  #389 ) ;
#45 = COORDINATED_UNIVERSAL_TIME_OFFSET ( 10, 0, .AHEAD. ) ;
#46 = PRODUCT ( '6461083056.step', '6461083056.step', '', ( #379 ) ) ;
#47 = APPROVAL_ROLE ( '' ) ;
#48 = SECURITY_CLASSIFICATION ( '', '', #125 ) ;
#49 = PERSON_AND_ORGANIZATION_ROLE ( 'creator' ) ;
#50 = DOCUMENT_FILE ( '6461082896.step.STEP' , '', '', #238, '' ,$ ) ;
#51 = APPROVAL ( #68, 'Coincident' ) ;
#52 = PERSON_AND_ORGANIZATION ( #18446744073709551615, #18446744073709551615 ) ;
#53 = CALENDAR_DATE ( 2026, 22, 6 ) ;
#54 =( NAMED_UNIT ( * ) SI_UNIT ( $, .STERADIAN. ) SOLID_ANGLE_UNIT ( ) );
#55 = CC_DESIGN_DATE_AND_TIME_ASSIGNMENT ( #302, #204, ( #256 ) ) ;
#56 = LOCAL_TIME ( 18, 49, 57.00000000000000000, #164 ) ;
#57 = PERSON_AND_ORGANIZATION ( #18446744073709551615, #18446744073709551615 ) ;
#58 = CARTESIAN_POINT ( 'NONE',  ( 5.099999481172000415, 0.8500025634770002059, -2.058321952820000078 ) ) ;
#59 = PERSON_AND_ORGANIZATION_ROLE ( 'classification_officer' ) ;
#60 = APPLICATION_CONTEXT ( 'configuration controlled 3d designs of mechanical parts and assemblies' ) ;
#61 = DIRECTION ( 'NONE',  ( 1.000000000000000000, 0.000000000000000000, 0.000000000000000000 ) ) ;
#62 = APPLICATION_PROTOCOL_DEFINITION ( 'international standard', 'config_control_design', 1994, #260 ) ;
#63 = APPROVAL_PERSON_ORGANIZATION ( #155, #273, #6 ) ;
#64 = LOCAL_TIME ( 18, 49, 57.00000000000000000, #166 ) ;
#65 = APPROVAL_ROLE ( '' ) ;
#66 = APPROVAL ( #378, 'Coincident' ) ;
#67 = PROPERTY_DEFINITION_REPRESENTATION ( #365, #248 ) ;
#68 = APPROVAL_STATUS ( 'not_yet_approved' ) ;
#69 = DATE_AND_TIME ( #280, #9 ) ;
#70 = APPLICATION_CONTEXT ( 'configuration controlled 3d designs of mechanical parts and assemblies' ) ;
#71 = APPROVAL_STATUS ( 'not_yet_approved' ) ;
#72 = ROLE_ASSOCIATION ( #294, #373 ) ;
#73 = CC_DESIGN_DATE_AND_TIME_ASSIGNMENT ( #259, #202, ( #270 ) ) ;
#74 = APPROVAL_DATE_TIME ( #347, #132 ) ;
#75 = PERSON ( 'NAUO-PER161', 'UNSPECIFIED', 'UNSPECIFIED', ('UNSPECIFIED'), ('UNSPECIFIED'), ('UNSPECIFIED') ) ;
#76 = CC_DESIGN_SECURITY_CLASSIFICATION ( #256, ( #22 ) ) ;
#77 = SHAPE_DEFINITION_REPRESENTATION ( #255, #291 ) ;
#78 = APPROVAL_STATUS ( 'not_yet_approved' ) ;
#79 = DATE_TIME_ROLE ( 'creation_date' ) ;
#80 = APPROVAL ( #43, 'Coincident' ) ;
#81 = APPROVAL_ROLE ( '' ) ;
#82 = EXTERNAL_SOURCE (IDENTIFIER('') ) ;
#83 = PRODUCT_DEFINITION_FORMATION_WITH_SPECIFIED_SOURCE ( 'Symmetric', '', #228, .NOT_KNOWN. ) ;
#84 = DATE_AND_TIME ( #290, #376 ) ;
#85 = APPROVAL ( #71, 'Coincident' ) ;
#86 = DATE_TIME_ROLE ( 'classification_date' ) ;
#87 = COORDINATED_UNIVERSAL_TIME_OFFSET ( 10, 0, .AHEAD. ) ;
#88 = ITEM_DEFINED_TRANSFORMATION ( 'NONE', 'NONE', #324,  #262 ) ;
#89 = LOCAL_TIME ( 18, 49, 57.00000000000000000, #272 ) ;
#90 = LOCAL_TIME ( 18, 49, 57.00000000000000000, #372 ) ;
#91 = CALENDAR_DATE ( 2026, 22, 6 ) ;
#92 = MECHANICAL_CONTEXT ( 'NONE', #70, 'mechanical' ) ;
#93 = AXIS2_PLACEMENT_3D ( 'NONE', #175, #293, #265 ) ;
#94 = SECURITY_CLASSIFICATION ( '', '', #326 ) ;
#95 = CC_DESIGN_PERSON_AND_ORGANIZATION_ASSIGNMENT ( #214, #363, ( #113 ) ) ;
#96 = APPLICATION_PROTOCOL_DEFINITION ( 'international standard', 'config_control_design', 1994, #339 ) ;
#97 = DESIGN_CONTEXT ( 'detailed design', #60, 'design' ) ;
#98 = DATE_AND_TIME ( #91, #177 ) ;
#99 = CC_DESIGN_DATE_AND_TIME_ASSIGNMENT ( #381, #86, ( #48 ) ) ;
#100 = DIRECTION ( 'NONE',  ( 1.000000000000000000, 0.000000000000000000, 0.000000000000000000 ) ) ;
#101 = PERSON_AND_ORGANIZATION_ROLE ( 'creator' ) ;
#102 = DOCUMENT_TYPE ( 'geometry' ) ;
#103 = APPLIED_EXTERNAL_IDENTIFICATION_ASSIGNMENT ( '6461082896.step.STEP' , #180, #161,( #50) ) ;
#104 = APPROVAL_ROLE ( '' ) ;
#105 = CC_DESIGN_PERSON_AND_ORGANIZATION_ASSIGNMENT ( #209, #59, ( #256 ) ) ;
#106 = CALENDAR_DATE ( 2026, 22, 6 ) ;
#107 = PROPERTY_DEFINITION_REPRESENTATION ( #349, #291 ) ;
#108 = PERSON_AND_ORGANIZATION_ROLE ( 'design_supplier' ) ;
#109 = CC_DESIGN_APPROVAL ( #3, ( #48 ) ) ;
#110 = APPROVAL ( #386, 'Coincident' ) ;
#111 = CALENDAR_DATE ( 2026, 22, 6 ) ;
#112 = APPLICATION_PROTOCOL_DEFINITION ( 'international standard', 'config_control_design', 1994, #319 ) ;
#113 = PRODUCT ( '6461082896.step', '6461082896.step', '', ( #92 ) ) ;
#114 = PERSON_AND_ORGANIZATION ( #18446744073709551615, #18446744073709551615 ) ;
#115 = SECURITY_CLASSIFICATION ( '', '', #159 ) ;
#116 = COORDINATED_UNIVERSAL_TIME_OFFSET ( 10, 0, .AHEAD. ) ;
#117 = CC_DESIGN_APPROVAL ( #33, ( #325 ) ) ;
#118 = CC_DESIGN_PERSON_AND_ORGANIZATION_ASSIGNMENT ( #41, #374, ( #270 ) ) ;
#119 = PROPERTY_DEFINITION_REPRESENTATION ( #244, #248 ) ;
#120 = PERSON_AND_ORGANIZATION_ROLE ( 'classification_officer' ) ;
#121 =( NAMED_UNIT ( * ) PLANE_ANGLE_UNIT ( ) SI_UNIT ( $, .RADIAN. ) );
#122 = ROLE_ASSOCIATION ( #368, #267 ) ;
#123 = LOCAL_TIME ( 18, 49, 57.00000000000000000, #189 ) ;
#124 = OBJECT_ROLE ('mandatory',$ ) ;
#125 = SECURITY_CLASSIFICATION_LEVEL ( 'unclassified' ) ;
#126 = PERSON_AND_ORGANIZATION ( #18446744073709551615, #18446744073709551615 ) ;
#127 = APPROVAL_PERSON_ORGANIZATION ( #141, #66, #318 ) ;
#128 = LOCAL_TIME ( 18, 49, 57.00000000000000000, #287 ) ;
#129 = CALENDAR_DATE ( 2026, 22, 6 ) ;
#130 = PERSON_AND_ORGANIZATION_ROLE ( 'classification_officer' ) ;
#131 = PERSON_AND_ORGANIZATION ( #18446744073709551615, #18446744073709551615 ) ;
#132 = APPROVAL ( #142, 'Coincident' ) ;
#133 = LOCAL_TIME ( 18, 49, 57.00000000000000000, #308 ) ;
#134 = SECURITY_CLASSIFICATION ( '', '', #194 ) ;
#135 = DATE_TIME_ROLE ( 'classification_date' ) ;
#136 = PERSON_AND_ORGANIZATION ( #75, #170 ) ;
#137 = DATE_AND_TIME ( #20, #128 ) ;
#138 = SHAPE_REPRESENTATION ( 'R11.step', ( #193, #29, #93, #324 ), #206 ) ;
#139 = APPROVAL_DATE_TIME ( #251, #320 ) ;
#140 = CC_DESIGN_APPROVAL ( #380, ( #94 ) ) ;
#141 = PERSON_AND_ORGANIZATION ( #18446744073709551615, #18446744073709551615 ) ;
#142 = APPROVAL_STATUS ( 'not_yet_approved' ) ;
#143 =( REPRESENTATION_RELATIONSHIP ('NONE','NONE', #138, #291 ) REPRESENTATION_RELATIONSHIP_WITH_TRANSFORMATION ( #88 )SHAPE_REPRESENTATION_RELATIONSHIP( ) );
#144 = SHAPE_DEFINITION_REPRESENTATION ( #346, #248 ) ;
#145 = PRODUCT_RELATED_PRODUCT_CATEGORY ( 'detail', '', ( #46 ) ) ;
#146 = DESIGN_CONTEXT ( 'detailed design', #37, 'design' ) ;
#147 = PROPERTY_DEFINITION_REPRESENTATION ( #286, #291 ) ;
#148 = DIRECTION ( 'NONE',  ( 1.000000000000000222, -1.092455418989176591E-28, 4.890937612370273194E-29 ) ) ;
#149 = APPROVAL_ROLE ( '' ) ;
#150 = UNCERTAINTY_MEASURE_WITH_UNIT (LENGTH_MEASURE( 1.000000000000000082E-05 ), #361, 'distance_accuracy_value', 'NONE');
#151 = DATE_AND_TIME ( #21, #226 ) ;
#152 = DATE_AND_TIME ( #297, #163 ) ;
#153 = CC_DESIGN_SECURITY_CLASSIFICATION ( #115, ( #83 ) ) ;
#154 = MECHANICAL_CONTEXT ( 'NONE', #260, 'mechanical' ) ;
#155 = PERSON_AND_ORGANIZATION ( #18446744073709551615, #18446744073709551615 ) ;
#156 = DATE_AND_TIME ( #275, #176 ) ;
#157 =( GEOMETRIC_REPRESENTATION_CONTEXT ( 3 ) GLOBAL_UNCERTAINTY_ASSIGNED_CONTEXT ( ( #242 ) ) GLOBAL_UNIT_ASSIGNED_CONTEXT ( ( #26, #121, #235 ) ) REPRESENTATION_CONTEXT ( 'NONE', 'WORKASPACE' ) );
#158 = CC_DESIGN_APPROVAL ( #110, ( #256 ) ) ;
#159 = SECURITY_CLASSIFICATION_LEVEL ( 'unclassified' ) ;
#160 =( NAMED_UNIT ( * ) PLANE_ANGLE_UNIT ( ) SI_UNIT ( $, .RADIAN. ) );
#161 = EXTERNAL_SOURCE (IDENTIFIER('') ) ;
#162 = CALENDAR_DATE ( 2026, 22, 6 ) ;
#163 = LOCAL_TIME ( 18, 49, 57.00000000000000000, #25 ) ;
#164 = COORDINATED_UNIVERSAL_TIME_OFFSET ( 10, 0, .AHEAD. ) ;
#165 = PRODUCT_RELATED_PRODUCT_CATEGORY ( 'detail', '', ( #228 ) ) ;
#166 = COORDINATED_UNIVERSAL_TIME_OFFSET ( 10, 0, .AHEAD. ) ;
#167 = CALENDAR_DATE ( 2026, 22, 6 ) ;
#168 = PRODUCT_DEFINITION_SHAPE ( 'NONE', 'NONE',  #317 ) ;
#169 =( GEOMETRIC_REPRESENTATION_CONTEXT ( 3 ) GLOBAL_UNCERTAINTY_ASSIGNED_CONTEXT ( ( #150 ) ) GLOBAL_UNIT_ASSIGNED_CONTEXT ( ( #361, #210, #54 ) ) REPRESENTATION_CONTEXT ( 'NONE', 'WORKASPACE' ) );
#170 = ORGANIZATION ( 'NAUO-ORG161', 'UNSPECIFIED', 'UNSPECIFIED' ) ;
#171 = PERSON_AND_ORGANIZATION ( #18446744073709551615, #18446744073709551615 ) ;
#172 = CC_DESIGN_DATE_AND_TIME_ASSIGNMENT ( #69, #42, ( #134 ) ) ;
#173 = APPROVAL_DATE_TIME ( #345, #66 ) ;
#174 = PROPERTY_DEFINITION_REPRESENTATION ( #377, #291 ) ;
#175 = CARTESIAN_POINT ( 'NONE',  ( 4.599999481172001303, 0.8500025634769967642, -2.058321952820000078 ) ) ;
#176 = LOCAL_TIME ( 18, 49, 57.00000000000000000, #34 ) ;
#177 = LOCAL_TIME ( 18, 49, 57.00000000000000000, #298 ) ;
#178 = APPROVAL_ROLE ( '' ) ;
#179 = PERSON_AND_ORGANIZATION_ROLE ( 'creator' ) ;
#180 = IDENTIFICATION_ROLE ( 'external document id and location', $) ;
#181 = DIRECTION ( 'NONE',  ( 4.890937612370273194E-29, -3.155443620884047222E-30, 0.9999999999999997780 ) ) ;
#182 = DOCUMENT_FILE ( '6461083056.step.STEP' , '', '', #348, '' ,$ ) ;
#183 = CARTESIAN_POINT ( 'NONE',  ( 5.599999481172001303, 0.8500025634770002059, -2.058321952820000078 ) ) ;
#184 = CC_DESIGN_DATE_AND_TIME_ASSIGNMENT ( #245, #135, ( #115 ) ) ;
#185 = COORDINATED_UNIVERSAL_TIME_OFFSET ( 10, 0, .AHEAD. ) ;
#186 = PERSON ( 'NAUO-PER160', 'UNSPECIFIED', 'UNSPECIFIED', ('UNSPECIFIED'), ('UNSPECIFIED'), ('UNSPECIFIED') ) ;
#187 = COORDINATED_UNIVERSAL_TIME_OFFSET ( 10, 0, .AHEAD. ) ;
#188 = CC_DESIGN_SECURITY_CLASSIFICATION ( #48, ( #389 ) ) ;
#189 = COORDINATED_UNIVERSAL_TIME_OFFSET ( 10, 0, .AHEAD. ) ;
#190 = PERSON_AND_ORGANIZATION ( #18446744073709551615, #18446744073709551615 ) ;
#191 = DATE_TIME_ROLE ( 'creation_date' ) ;
#192 = APPROVAL_STATUS ( 'not_yet_approved' ) ;
#193 = AXIS2_PLACEMENT_3D ( 'NONE', #268, #333, #100 ) ;
#194 = SECURITY_CLASSIFICATION_LEVEL ( 'unclassified' ) ;
#195 = PERSON_AND_ORGANIZATION ( #18446744073709551615, #18446744073709551615 ) ;
#196 = PRODUCT_DEFINITION_SHAPE ( 'NONE', 'NONE',  #388 ) ;
#197 = PERSON_AND_ORGANIZATION ( #18446744073709551615, #18446744073709551615 ) ;
#198 = COORDINATED_UNIVERSAL_TIME_OFFSET ( 10, 0, .AHEAD. ) ;
#199 = AXIS2_PLACEMENT_3D ( 'NONE', #28, #327, #2 ) ;
#200 = IDENTIFICATION_ROLE ( 'external document id and location', $) ;
#201 = APPLIED_EXTERNAL_IDENTIFICATION_ASSIGNMENT ( '6461083056.step.STEP' , #359, #279,( #182) ) ;
#202 = DATE_TIME_ROLE ( 'classification_date' ) ;
#203 = APPLIED_DOCUMENT_REFERENCE ( #243,'',( #205) ) ;
#204 = DATE_TIME_ROLE ( 'classification_date' ) ;
#205 = PRODUCT_DEFINITION ( 'General', '', #325, #355 ) ;
#206 =( GEOMETRIC_REPRESENTATION_CONTEXT ( 3 ) GLOBAL_UNCERTAINTY_ASSIGNED_CONTEXT ( ( #276 ) ) GLOBAL_UNIT_ASSIGNED_CONTEXT ( ( #38, #160, #301 ) ) REPRESENTATION_CONTEXT ( 'NONE', 'WORKASPACE' ) );
#207 = APPROVAL_STATUS ( 'not_yet_approved' ) ;
#208 = APPROVAL_PERSON_ORGANIZATION ( #224, #33, #47 ) ;
#209 = PERSON_AND_ORGANIZATION ( #18446744073709551615, #18446744073709551615 ) ;
#210 =( NAMED_UNIT ( * ) PLANE_ANGLE_UNIT ( ) SI_UNIT ( $, .RADIAN. ) );
#211 = CC_DESIGN_PERSON_AND_ORGANIZATION_ASSIGNMENT ( #52, #281, ( #228 ) ) ;
#212 = PRODUCT_RELATED_PRODUCT_CATEGORY ( 'detail', '', ( #113 ) ) ;
#213 = CC_DESIGN_APPROVAL ( #320, ( #22 ) ) ;
#214 = PERSON_AND_ORGANIZATION ( #18446744073709551615, #18446744073709551615 ) ;
#215 = APPROVAL_STATUS ( 'not_yet_approved' ) ;
#216 = CALENDAR_DATE ( 2026, 22, 6 ) ;
#217 = DATE_AND_TIME ( #220, #123 ) ;
#218 = APPROVAL_DATE_TIME ( #241, #51 ) ;
#219 = APPROVAL_PERSON_ORGANIZATION ( #136, #367, #252 ) ;
#220 = CALENDAR_DATE ( 2026, 22, 6 ) ;
#221 = APPLICATION_PROTOCOL_DEFINITION ( 'international standard', 'config_control_design', 1994, #60 ) ;
#222 = CC_DESIGN_PERSON_AND_ORGANIZATION_ASSIGNMENT ( #246, #10, ( #83 ) ) ;
#223 = DATE_AND_TIME ( #106, #90 ) ;
#224 = PERSON_AND_ORGANIZATION ( #18446744073709551615, #18446744073709551615 ) ;
#225 = APPROVAL_PERSON_ORGANIZATION ( #114, #80, #81 ) ;
#226 = LOCAL_TIME ( 18, 49, 57.00000000000000000, #269 ) ;
#227 = APPLICATION_PROTOCOL_DEFINITION ( 'international standard', 'config_control_design', 1994, #37 ) ;
#228 = PRODUCT ( 'R11.step', 'R11.step', '', ( #154 ) ) ;
#229 = PERSON_AND_ORGANIZATION ( #18446744073709551615, #18446744073709551615 ) ;
#230 = CC_DESIGN_PERSON_AND_ORGANIZATION_ASSIGNMENT ( #195, #108, ( #325 ) ) ;
#231 = APPROVAL_DATE_TIME ( #137, #33 ) ;
#232 = PERSON_AND_ORGANIZATION ( #186, #240 ) ;
#233 = CC_DESIGN_PERSON_AND_ORGANIZATION_ASSIGNMENT ( #190, #32, ( #317 ) ) ;
#234 = CALENDAR_DATE ( 2026, 22, 6 ) ;
#235 =( NAMED_UNIT ( * ) SI_UNIT ( $, .STERADIAN. ) SOLID_ANGLE_UNIT ( ) );
#236 = DATE_TIME_ROLE ( 'classification_date' ) ;
#237 = LOCAL_TIME ( 18, 49, 57.00000000000000000, #116 ) ;
#238 = DOCUMENT_TYPE ( 'geometry' ) ;
#239 = CC_DESIGN_PERSON_AND_ORGANIZATION_ASSIGNMENT ( #136, #371, ( #134 ) ) ;
#240 = ORGANIZATION ( 'NAUO-ORG160', 'UNSPECIFIED', 'UNSPECIFIED' ) ;
#241 = DATE_AND_TIME ( #162, #40 ) ;
#242 = UNCERTAINTY_MEASURE_WITH_UNIT (LENGTH_MEASURE( 1.000000000000000082E-05 ), #26, 'distance_accuracy_value', 'NONE');
#243 = DOCUMENT_FILE ( '6461082896.step.STEP' , '', '', #102, '' ,$ ) ;
#244 = PROPERTY_DEFINITION ('external definition','', #182 ) ;
#245 = DATE_AND_TIME ( #335, #295 ) ;
#246 = PERSON_AND_ORGANIZATION ( #18446744073709551615, #18446744073709551615 ) ;
#247 = PERSON_AND_ORGANIZATION_ROLE ( 'creator' ) ;
#248 = SHAPE_REPRESENTATION ( '6461083056.step', ( #199 ), #169 ) ;
#249 = CC_DESIGN_DATE_AND_TIME_ASSIGNMENT ( #98, #236, ( #94 ) ) ;
#250 = APPROVAL_DATE_TIME ( #217, #367 ) ;
#251 = DATE_AND_TIME ( #284, #56 ) ;
#252 = APPROVAL_ROLE ( '' ) ;
#253 = CC_DESIGN_DATE_AND_TIME_ASSIGNMENT ( #156, #191, ( #317 ) ) ;
#254 = PERSON_AND_ORGANIZATION ( #18446744073709551615, #18446744073709551615 ) ;
#255 = PRODUCT_DEFINITION_SHAPE ( 'NONE', 'NONE',  #205 ) ;
#256 = SECURITY_CLASSIFICATION ( '', '', #334 ) ;
#257 = CC_DESIGN_PERSON_AND_ORGANIZATION_ASSIGNMENT ( #57, #179, ( #22 ) ) ;
#258 = COORDINATED_UNIVERSAL_TIME_OFFSET ( 10, 0, .AHEAD. ) ;
#259 = DATE_AND_TIME ( #15, #331 ) ;
#260 = APPLICATION_CONTEXT ( 'configuration controlled 3d designs of mechanical parts and assemblies' ) ;
#261 = CALENDAR_DATE ( 2026, 22, 6 ) ;
#262 = AXIS2_PLACEMENT_3D ( 'NONE', #323, #330, #61 ) ;
#263 = LOCAL_TIME ( 18, 49, 57.00000000000000000, #87 ) ;
#264 = PERSON_AND_ORGANIZATION ( #18446744073709551615, #18446744073709551615 ) ;
#265 = DIRECTION ( 'NONE',  ( 1.000000000000000222, -1.092455418989176591E-28, 4.890937612370273194E-29 ) ) ;
#266 = PERSON_AND_ORGANIZATION_ROLE ( 'classification_officer' ) ;
#267 = APPLIED_DOCUMENT_REFERENCE ( #182,'',( #7) ) ;
#268 = CARTESIAN_POINT ( 'NONE',  ( 0.000000000000000000, 0.000000000000000000, 0.000000000000000000 ) ) ;
#269 = COORDINATED_UNIVERSAL_TIME_OFFSET ( 10, 0, .AHEAD. ) ;
#270 = SECURITY_CLASSIFICATION ( '', '', #341 ) ;
#271 = CC_DESIGN_PERSON_AND_ORGANIZATION_ASSIGNMENT ( #229, #311, ( #46 ) ) ;
#272 = COORDINATED_UNIVERSAL_TIME_OFFSET ( 10, 0, .AHEAD. ) ;
#273 = APPROVAL ( #278, 'Coincident' ) ;
#274 = APPLIED_EXTERNAL_IDENTIFICATION_ASSIGNMENT ( '6461082896.step.STEP' , #200, #82,( #243) ) ;
#275 = CALENDAR_DATE ( 2026, 22, 6 ) ;
#276 = UNCERTAINTY_MEASURE_WITH_UNIT (LENGTH_MEASURE( 1.000000000000000082E-05 ), #38, 'distance_accuracy_value', 'NONE');
#277 = DATE_AND_TIME ( #129, #89 ) ;
#278 = APPROVAL_STATUS ( 'not_yet_approved' ) ;
#279 = EXTERNAL_SOURCE (IDENTIFIER('') ) ;
#280 = CALENDAR_DATE ( 2026, 22, 6 ) ;
#281 = PERSON_AND_ORGANIZATION_ROLE ( 'design_owner' ) ;
#282 = CC_DESIGN_APPROVAL ( #273, ( #83 ) ) ;
#283 = APPROVAL_PERSON_ORGANIZATION ( #370, #51, #104 ) ;
#284 = CALENDAR_DATE ( 2026, 22, 6 ) ;
#285 = DATE_TIME_ROLE ( 'creation_date' ) ;
#286 = PROPERTY_DEFINITION ('document property','', #243 ) ;
#287 = COORDINATED_UNIVERSAL_TIME_OFFSET ( 10, 0, .AHEAD. ) ;
#288 = CC_DESIGN_SECURITY_CLASSIFICATION ( #134, ( #390 ) ) ;
#289 = PERSON_AND_ORGANIZATION ( #18446744073709551615, #18446744073709551615 ) ;
#290 = CALENDAR_DATE ( 2026, 22, 6 ) ;
#291 = SHAPE_REPRESENTATION ( '6461082896.step', ( #262 ), #157 ) ;
#292 = PERSON_AND_ORGANIZATION ( #18446744073709551615, #18446744073709551615 ) ;
#293 = DIRECTION ( 'NONE',  ( 4.890937612370273194E-29, -3.155443620884047222E-30, 0.9999999999999997780 ) ) ;
#294 = OBJECT_ROLE ('mandatory',$ ) ;
#295 = LOCAL_TIME ( 18, 49, 57.00000000000000000, #360 ) ;
#296 = DATE_AND_TIME ( #53, #237 ) ;
#297 = CALENDAR_DATE ( 2026, 22, 6 ) ;
#298 = COORDINATED_UNIVERSAL_TIME_OFFSET ( 10, 0, .AHEAD. ) ;
#299 =( REPRESENTATION_RELATIONSHIP ('NONE','NONE', #138, #248 ) REPRESENTATION_RELATIONSHIP_WITH_TRANSFORMATION ( #385 )SHAPE_REPRESENTATION_RELATIONSHIP( ) );
#300 = CC_DESIGN_APPROVAL ( #51, ( #115 ) ) ;
#301 =( NAMED_UNIT ( * ) SI_UNIT ( $, .STERADIAN. ) SOLID_ANGLE_UNIT ( ) );
#302 = DATE_AND_TIME ( #234, #263 ) ;
#303 = LOCAL_TIME ( 18, 49, 57.00000000000000000, #198 ) ;
#304 = PERSON_AND_ORGANIZATION ( #18446744073709551615, #18446744073709551615 ) ;
#305 = CONTEXT_DEPENDENT_SHAPE_REPRESENTATION ( #143, #17 ) ;
#306 = DIRECTION ( 'NONE',  ( 4.890937612370273194E-29, -3.155443620884047222E-30, 0.9999999999999997780 ) ) ;
#307 = CC_DESIGN_DATE_AND_TIME_ASSIGNMENT ( #223, #79, ( #7 ) ) ;
#308 = COORDINATED_UNIVERSAL_TIME_OFFSET ( 10, 0, .AHEAD. ) ;
#309 = APPROVAL_ROLE ( '' ) ;
#310 = APPROVAL_PERSON_ORGANIZATION ( #232, #3, #149 ) ;
#311 = PERSON_AND_ORGANIZATION_ROLE ( 'design_owner' ) ;
#312 = CC_DESIGN_DATE_AND_TIME_ASSIGNMENT ( #84, #285, ( #205 ) ) ;
#313 = APPROVAL_ROLE ( '' ) ;
#314 = PROPERTY_DEFINITION ('external definition','', #50 ) ;
#315 = COORDINATED_UNIVERSAL_TIME_OFFSET ( 10, 0, .AHEAD. ) ;
#316 = APPROVAL_PERSON_ORGANIZATION ( #254, #132, #313 ) ;
#317 = PRODUCT_DEFINITION ( 'General', '', #83, #97 ) ;
#318 = APPROVAL_ROLE ( '' ) ;
#319 = APPLICATION_CONTEXT ( 'configuration controlled 3d designs of mechanical parts and assemblies' ) ;
#320 = APPROVAL ( #340, 'Coincident' ) ;
#321 = ROLE_ASSOCIATION ( #124, #203 ) ;
#322 = ITEM_DEFINED_TRANSFORMATION ( 'NONE', 'NONE', #93,  #262 ) ;
#323 = CARTESIAN_POINT ( 'NONE',  ( 0.000000000000000000, 0.000000000000000000, 0.000000000000000000 ) ) ;
#324 = AXIS2_PLACEMENT_3D ( 'NONE', #183, #306, #332 ) ;
#325 = PRODUCT_DEFINITION_FORMATION_WITH_SPECIFIED_SOURCE ( 'Symmetric', '', #113, .NOT_KNOWN. ) ;
#326 = SECURITY_CLASSIFICATION_LEVEL ( 'unclassified' ) ;
#327 = DIRECTION ( 'NONE',  ( 0.000000000000000000, 0.000000000000000000, 1.000000000000000000 ) ) ;
#328 = CC_DESIGN_PERSON_AND_ORGANIZATION_ASSIGNMENT ( #232, #266, ( #48 ) ) ;
#329 = APPROVAL_DATE_TIME ( #151, #380 ) ;
#330 = DIRECTION ( 'NONE',  ( 0.000000000000000000, 0.000000000000000000, 1.000000000000000000 ) ) ;
#331 = LOCAL_TIME ( 18, 49, 57.00000000000000000, #258 ) ;
#332 = DIRECTION ( 'NONE',  ( 1.000000000000000222, -1.092455418989176591E-28, 4.890937612370273194E-29 ) ) ;
#333 = DIRECTION ( 'NONE',  ( 0.000000000000000000, 0.000000000000000000, 1.000000000000000000 ) ) ;
#334 = SECURITY_CLASSIFICATION_LEVEL ( 'unclassified' ) ;
#335 = CALENDAR_DATE ( 2026, 22, 6 ) ;
#336 = APPROVAL_PERSON_ORGANIZATION ( #383, #380, #178 ) ;
#337 = SHAPE_DEFINITION_REPRESENTATION ( #168, #138 ) ;
#338 = APPROVAL_DATE_TIME ( #277, #85 ) ;
#339 = APPLICATION_CONTEXT ( 'configuration controlled 3d designs of mechanical parts and assemblies' ) ;
#340 = APPROVAL_STATUS ( 'not_yet_approved' ) ;
#341 = SECURITY_CLASSIFICATION_LEVEL ( 'unclassified' ) ;
#342 = APPROVAL_PERSON_ORGANIZATION ( #126, #85, #65 ) ;
#343 = APPROVAL_PERSON_ORGANIZATION ( #197, #320, #309 ) ;
#344 = PERSON ( 'NAUO-PER159', 'UNSPECIFIED', 'UNSPECIFIED', ('UNSPECIFIED'), ('UNSPECIFIED'), ('UNSPECIFIED') ) ;
#345 = DATE_AND_TIME ( #111, #303 ) ;
#346 = PRODUCT_DEFINITION_SHAPE ( 'NONE', 'NONE',  #7 ) ;
#347 = DATE_AND_TIME ( #167, #369 ) ;
#348 = DOCUMENT_TYPE ( 'geometry' ) ;
#349 = PROPERTY_DEFINITION ('document property','', #50 ) ;
#350 = CALENDAR_DATE ( 2026, 22, 6 ) ;
#351 = LOCAL_TIME ( 18, 49, 57.00000000000000000, #185 ) ;
#352 = CONTEXT_DEPENDENT_SHAPE_REPRESENTATION ( #18, #44 ) ;
#353 = CC_DESIGN_PERSON_AND_ORGANIZATION_ASSIGNMENT ( #171, #19, ( #325 ) ) ;
#354 = PERSON_AND_ORGANIZATION_ROLE ( 'design_supplier' ) ;
#355 = DESIGN_CONTEXT ( 'detailed design', #339, 'design' ) ;
#356 = CONTEXT_DEPENDENT_SHAPE_REPRESENTATION ( #299, #196 ) ;
#357 = CC_DESIGN_PERSON_AND_ORGANIZATION_ASSIGNMENT ( #292, #354, ( #22 ) ) ;
#358 = ORGANIZATION ( 'NAUO-ORG159', 'UNSPECIFIED', 'UNSPECIFIED' ) ;
#359 = IDENTIFICATION_ROLE ( 'external document id and location', $) ;
#360 = COORDINATED_UNIVERSAL_TIME_OFFSET ( 10, 0, .AHEAD. ) ;
#361 =( LENGTH_UNIT ( ) NAMED_UNIT ( * ) SI_UNIT ( .MILLI., .METRE. ) );
#362 = CC_DESIGN_APPROVAL ( #367, ( #134 ) ) ;
#363 = PERSON_AND_ORGANIZATION_ROLE ( 'design_owner' ) ;
#364 = APPROVAL_DATE_TIME ( #152, #110 ) ;
#365 = PROPERTY_DEFINITION ('document property','', #182 ) ;
#366 = DATE_AND_TIME ( #216, #133 ) ;
#367 = APPROVAL ( #78, 'UNKNOWN' ) ;
#368 = OBJECT_ROLE ('mandatory',$ ) ;
#369 = LOCAL_TIME ( 18, 49, 57.00000000000000000, #45 ) ;
#370 = PERSON_AND_ORGANIZATION ( #18446744073709551615, #18446744073709551615 ) ;
#371 = PERSON_AND_ORGANIZATION_ROLE ( 'classification_officer' ) ;
#372 = COORDINATED_UNIVERSAL_TIME_OFFSET ( 10, 0, .AHEAD. ) ;
#373 = APPLIED_DOCUMENT_REFERENCE ( #50,'',( #205) ) ;
#374 = PERSON_AND_ORGANIZATION_ROLE ( 'classification_officer' ) ;
#375 = DATE_AND_TIME ( #350, #64 ) ;
#376 = LOCAL_TIME ( 18, 49, 57.00000000000000000, #315 ) ;
#377 = PROPERTY_DEFINITION ('external definition','', #243 ) ;
#378 = APPROVAL_STATUS ( 'not_yet_approved' ) ;
#379 = MECHANICAL_CONTEXT ( 'NONE', #319, 'mechanical' ) ;
#380 = APPROVAL ( #207, 'UNKNOWN' ) ;
#381 = DATE_AND_TIME ( #261, #351 ) ;
#382 = CC_DESIGN_APPROVAL ( #66, ( #205 ) ) ;
#383 = PERSON_AND_ORGANIZATION ( #344, #358 ) ;
#384 = CC_DESIGN_PERSON_AND_ORGANIZATION_ASSIGNMENT ( #289, #49, ( #205 ) ) ;
#385 = ITEM_DEFINED_TRANSFORMATION ( 'NONE', 'NONE', #29,  #199 ) ;
#386 = APPROVAL_STATUS ( 'not_yet_approved' ) ;
#387 = CC_DESIGN_SECURITY_CLASSIFICATION ( #270, ( #325 ) ) ;
#388 = NEXT_ASSEMBLY_USAGE_OCCURRENCE ( 'NAUO159', ' ', ' ', #317, #7, $ ) ;
#389 = NEXT_ASSEMBLY_USAGE_OCCURRENCE ( 'NAUO160', ' ', ' ', #317, #205, $ ) ;
#390 = NEXT_ASSEMBLY_USAGE_OCCURRENCE ( 'NAUO161', ' ', ' ', #317, #205, $ ) ;
ENDSEC;
END-ISO-10303-21;
