ISO-10303-21;
HEADER;
FILE_DESCRIPTION (( 'STEP AP203' ),
    '1' );
FILE_NAME ('R12.step.STEP',
    '2026-06-22T08:49:56',
    ( 'localuser' ),
    ( '' ),
    'SwSTEP 2.0',
    'SolidWorks 2025',
    '' );
FILE_SCHEMA (( 'CONFIG_CONTROL_DESIGN' ));
ENDSEC;

DATA;
#1 = APPROVAL_DATE_TIME ( #90, #309 ) ;
#2 = DIRECTION ( 'NONE',  ( 1.000000000000000000, 0.000000000000000000, 0.000000000000000000 ) ) ;
#3 = APPROVAL ( #150, 'Coincident' ) ;
#4 =( NAMED_UNIT ( * ) SI_UNIT ( $, .STERADIAN. ) SOLID_ANGLE_UNIT ( ) );
#5 = DATE_AND_TIME ( #96, #302 ) ;
#6 = CC_DESIGN_SECURITY_CLASSIFICATION ( #373, ( #390 ) ) ;
#7 = CALENDAR_DATE ( 2026, 22, 6 ) ;
#8 = PROPERTY_DEFINITION_REPRESENTATION ( #80, #104 ) ;
#9 = APPROVAL ( #107, 'Coincident' ) ;
#10 = APPLICATION_PROTOCOL_DEFINITION ( 'international standard', 'config_control_design', 1994, #320 ) ;
#11 = PERSON_AND_ORGANIZATION_ROLE ( 'creator' ) ;
#12 =( GEOMETRIC_REPRESENTATION_CONTEXT ( 3 ) GLOBAL_UNCERTAINTY_ASSIGNED_CONTEXT ( ( #351 ) ) GLOBAL_UNIT_ASSIGNED_CONTEXT ( ( #123, #323, #117 ) ) REPRESENTATION_CONTEXT ( 'NONE', 'WORKASPACE' ) );
#13 = LOCAL_TIME ( 18, 49, 56.00000000000000000, #161 ) ;
#14 = PERSON_AND_ORGANIZATION_ROLE ( 'design_owner' ) ;
#15 = CC_DESIGN_DATE_AND_TIME_ASSIGNMENT ( #217, #261, ( #318 ) ) ;
#16 = PERSON_AND_ORGANIZATION ( #18446744073709551615, #18446744073709551615 ) ;
#17 = PROPERTY_DEFINITION ('external definition','', #202 ) ;
#18 = CALENDAR_DATE ( 2026, 22, 6 ) ;
#19 = APPROVAL_STATUS ( 'not_yet_approved' ) ;
#20 = LOCAL_TIME ( 18, 49, 56.00000000000000000, #378 ) ;
#21 = IDENTIFICATION_ROLE ( 'external document id and location', $) ;
#22 = PERSON_AND_ORGANIZATION_ROLE ( 'classification_officer' ) ;
#23 = PERSON_AND_ORGANIZATION ( #18446744073709551615, #18446744073709551615 ) ;
#24 = CALENDAR_DATE ( 2026, 22, 6 ) ;
#25 = CC_DESIGN_APPROVAL ( #309, ( #120 ) ) ;
#26 = PROPERTY_DEFINITION_REPRESENTATION ( #258, #134 ) ;
#27 = SECURITY_CLASSIFICATION_LEVEL ( 'unclassified' ) ;
#28 = APPROVAL_STATUS ( 'not_yet_approved' ) ;
#29 = APPROVAL_PERSON_ORGANIZATION ( #308, #314, #333 ) ;
#30 = APPROVAL_PERSON_ORGANIZATION ( #252, #295, #174 ) ;
#31 = LOCAL_TIME ( 18, 49, 56.00000000000000000, #171 ) ;
#32 = CARTESIAN_POINT ( 'NONE',  ( 17.00000100705100436, 24.49999645996100739, -2.058321952820000078 ) ) ;
#33 = PERSON_AND_ORGANIZATION ( #18446744073709551615, #18446744073709551615 ) ;
#34 = APPROVAL ( #19, 'Coincident' ) ;
#35 = APPROVAL_ROLE ( '' ) ;
#36 = PRODUCT_DEFINITION_FORMATION_WITH_SPECIFIED_SOURCE ( 'Symmetric', '', #47, .NOT_KNOWN. ) ;
#37 = DATE_AND_TIME ( #362, #56 ) ;
#38 = APPLICATION_CONTEXT ( 'configuration controlled 3d designs of mechanical parts and assemblies' ) ;
#39 = COORDINATED_UNIVERSAL_TIME_OFFSET ( 10, 0, .AHEAD. ) ;
#40 = APPROVAL_STATUS ( 'not_yet_approved' ) ;
#41 = AXIS2_PLACEMENT_3D ( 'NONE', #32, #236, #53 ) ;
#42 = SECURITY_CLASSIFICATION ( '', '', #105 ) ;
#43 = PERSON_AND_ORGANIZATION ( #18446744073709551615, #18446744073709551615 ) ;
#44 = CC_DESIGN_DATE_AND_TIME_ASSIGNMENT ( #311, #111, ( #383 ) ) ;
#45 = APPROVAL_ROLE ( '' ) ;
#46 = SHAPE_DEFINITION_REPRESENTATION ( #228, #134 ) ;
#47 = PRODUCT ( '6461082896.step', '6461082896.step', '', ( #135 ) ) ;
#48 = DATE_TIME_ROLE ( 'classification_date' ) ;
#49 = SECURITY_CLASSIFICATION ( '', '', #140 ) ;
#50 = DATE_AND_TIME ( #81, #13 ) ;
#51 = PERSON_AND_ORGANIZATION ( #116, #149 ) ;
#52 = APPROVAL ( #343, 'Coincident' ) ;
#53 = DIRECTION ( 'NONE',  ( 1.000000000000000222, -1.092455418989176591E-28, 4.890937612370273194E-29 ) ) ;
#54 = ROLE_ASSOCIATION ( #337, #267 ) ;
#55 = CARTESIAN_POINT ( 'NONE',  ( 0.000000000000000000, 0.000000000000000000, 0.000000000000000000 ) ) ;
#56 = LOCAL_TIME ( 18, 49, 56.00000000000000000, #73 ) ;
#57 = COORDINATED_UNIVERSAL_TIME_OFFSET ( 10, 0, .AHEAD. ) ;
#58 = APPLICATION_PROTOCOL_DEFINITION ( 'international standard', 'config_control_design', 1994, #156 ) ;
#59 = PROPERTY_DEFINITION_REPRESENTATION ( #246, #104 ) ;
#60 =( REPRESENTATION_RELATIONSHIP ('NONE','NONE', #346, #104 ) REPRESENTATION_RELATIONSHIP_WITH_TRANSFORMATION ( #115 )SHAPE_REPRESENTATION_RELATIONSHIP( ) );
#61 = DESIGN_CONTEXT ( 'detailed design', #320, 'design' ) ;
#62 = CC_DESIGN_DATE_AND_TIME_ASSIGNMENT ( #222, #286, ( #238 ) ) ;
#63 = DIRECTION ( 'NONE',  ( 4.890937612370273194E-29, -3.155443620884047222E-30, 0.9999999999999997780 ) ) ;
#64 = CC_DESIGN_APPROVAL ( #9, ( #383 ) ) ;
#65 = SHAPE_DEFINITION_REPRESENTATION ( #163, #346 ) ;
#66 = APPROVAL_DATE_TIME ( #5, #3 ) ;
#67 = CC_DESIGN_DATE_AND_TIME_ASSIGNMENT ( #138, #48, ( #42 ) ) ;
#68 = COORDINATED_UNIVERSAL_TIME_OFFSET ( 10, 0, .AHEAD. ) ;
#69 = PERSON_AND_ORGANIZATION ( #18446744073709551615, #18446744073709551615 ) ;
#70 = CC_DESIGN_APPROVAL ( #224, ( #238 ) ) ;
#71 = PERSON_AND_ORGANIZATION ( #18446744073709551615, #18446744073709551615 ) ;
#72 = CONTEXT_DEPENDENT_SHAPE_REPRESENTATION ( #218, #290 ) ;
#73 = COORDINATED_UNIVERSAL_TIME_OFFSET ( 10, 0, .AHEAD. ) ;
#74 = SECURITY_CLASSIFICATION_LEVEL ( 'unclassified' ) ;
#75 = ORGANIZATION ( 'NAUO-ORG153', 'UNSPECIFIED', 'UNSPECIFIED' ) ;
#76 = APPROVAL_DATE_TIME ( #50, #9 ) ;
#77 = CC_DESIGN_PERSON_AND_ORGANIZATION_ASSIGNMENT ( #187, #382, ( #47 ) ) ;
#78 = PERSON_AND_ORGANIZATION_ROLE ( 'design_supplier' ) ;
#79 = CC_DESIGN_DATE_AND_TIME_ASSIGNMENT ( #214, #169, ( #49 ) ) ;
#80 = PROPERTY_DEFINITION ('document property','', #202 ) ;
#81 = CALENDAR_DATE ( 2026, 22, 6 ) ;
#82 = APPLICATION_CONTEXT ( 'configuration controlled 3d designs of mechanical parts and assemblies' ) ;
#83 = CC_DESIGN_APPROVAL ( #314, ( #195 ) ) ;
#84 = PERSON_AND_ORGANIZATION ( #18446744073709551615, #18446744073709551615 ) ;
#85 = CC_DESIGN_PERSON_AND_ORGANIZATION_ASSIGNMENT ( #128, #183, ( #318 ) ) ;
#86 = APPROVAL_ROLE ( '' ) ;
#87 = PROPERTY_DEFINITION_REPRESENTATION ( #193, #134 ) ;
#88 = APPROVAL_STATUS ( 'not_yet_approved' ) ;
#89 = LOCAL_TIME ( 18, 49, 56.00000000000000000, #338 ) ;
#90 = DATE_AND_TIME ( #358, #126 ) ;
#91 = MECHANICAL_CONTEXT ( 'NONE', #156, 'mechanical' ) ;
#92 = PRODUCT_RELATED_PRODUCT_CATEGORY ( 'detail', '', ( #47 ) ) ;
#93 = PERSON_AND_ORGANIZATION ( #18446744073709551615, #18446744073709551615 ) ;
#94 = LOCAL_TIME ( 18, 49, 56.00000000000000000, #298 ) ;
#95 = CC_DESIGN_DATE_AND_TIME_ASSIGNMENT ( #37, #245, ( #130 ) ) ;
#96 = CALENDAR_DATE ( 2026, 22, 6 ) ;
#97 = CALENDAR_DATE ( 2026, 22, 6 ) ;
#98 = COORDINATED_UNIVERSAL_TIME_OFFSET ( 10, 0, .AHEAD. ) ;
#99 = CALENDAR_DATE ( 2026, 22, 6 ) ;
#100 = DOCUMENT_TYPE ( 'geometry' ) ;
#101 = APPROVAL_PERSON_ORGANIZATION ( #33, #3, #370 ) ;
#102 = CALENDAR_DATE ( 2026, 22, 6 ) ;
#103 = CALENDAR_DATE ( 2026, 22, 6 ) ;
#104 = SHAPE_REPRESENTATION ( '6461082896.step', ( #119 ), #364 ) ;
#105 = SECURITY_CLASSIFICATION_LEVEL ( 'unclassified' ) ;
#106 = LOCAL_TIME ( 18, 49, 56.00000000000000000, #98 ) ;
#107 = APPROVAL_STATUS ( 'not_yet_approved' ) ;
#108 = PRODUCT_DEFINITION_SHAPE ( 'NONE', 'NONE',  #389 ) ;
#109 = PERSON_AND_ORGANIZATION ( #18446744073709551615, #18446744073709551615 ) ;
#110 = PRODUCT ( 'R12.step', 'R12.step', '', ( #91 ) ) ;
#111 = DATE_TIME_ROLE ( 'creation_date' ) ;
#112 = CC_DESIGN_APPROVAL ( #348, ( #181 ) ) ;
#113 = DATE_AND_TIME ( #297, #31 ) ;
#114 = AXIS2_PLACEMENT_3D ( 'NONE', #271, #173, #321 ) ;
#115 = ITEM_DEFINED_TRANSFORMATION ( 'NONE', 'NONE', #283,  #119 ) ;
#116 = PERSON ( 'NAUO-PER154', 'UNSPECIFIED', 'UNSPECIFIED', ('UNSPECIFIED'), ('UNSPECIFIED'), ('UNSPECIFIED') ) ;
#117 =( NAMED_UNIT ( * ) SI_UNIT ( $, .STERADIAN. ) SOLID_ANGLE_UNIT ( ) );
#118 = CONTEXT_DEPENDENT_SHAPE_REPRESENTATION ( #139, #108 ) ;
#119 = AXIS2_PLACEMENT_3D ( 'NONE', #55, #266, #328 ) ;
#120 = SECURITY_CLASSIFICATION ( '', '', #27 ) ;
#121 = DOCUMENT_TYPE ( 'geometry' ) ;
#122 = DATE_AND_TIME ( #24, #198 ) ;
#123 =( LENGTH_UNIT ( ) NAMED_UNIT ( * ) SI_UNIT ( .MILLI., .METRE. ) );
#124 = CARTESIAN_POINT ( 'NONE',  ( 0.000000000000000000, 0.000000000000000000, 0.000000000000000000 ) ) ;
#125 = APPROVAL_STATUS ( 'not_yet_approved' ) ;
#126 = LOCAL_TIME ( 18, 49, 56.00000000000000000, #304 ) ;
#127 = DATE_AND_TIME ( #7, #106 ) ;
#128 = PERSON_AND_ORGANIZATION ( #18446744073709551615, #18446744073709551615 ) ;
#129 = APPROVAL_DATE_TIME ( #276, #314 ) ;
#130 = SECURITY_CLASSIFICATION ( '', '', #220 ) ;
#131 = CC_DESIGN_SECURITY_CLASSIFICATION ( #42, ( #312 ) ) ;
#132 = COORDINATED_UNIVERSAL_TIME_OFFSET ( 10, 0, .AHEAD. ) ;
#133 = PERSON_AND_ORGANIZATION_ROLE ( 'creator' ) ;
#134 = SHAPE_REPRESENTATION ( '6461083056.step', ( #153 ), #12 ) ;
#135 = MECHANICAL_CONTEXT ( 'NONE', #38, 'mechanical' ) ;
#136 = CC_DESIGN_APPROVAL ( #352, ( #36 ) ) ;
#137 = PERSON_AND_ORGANIZATION ( #18446744073709551615, #18446744073709551615 ) ;
#138 = DATE_AND_TIME ( #103, #257 ) ;
#139 =( REPRESENTATION_RELATIONSHIP ('NONE','NONE', #346, #134 ) REPRESENTATION_RELATIONSHIP_WITH_TRANSFORMATION ( #182 )SHAPE_REPRESENTATION_RELATIONSHIP( ) );
#140 = SECURITY_CLASSIFICATION_LEVEL ( 'unclassified' ) ;
#141 = APPROVAL_DATE_TIME ( #122, #224 ) ;
#142 = CC_DESIGN_APPROVAL ( #295, ( #373 ) ) ;
#143 = APPROVAL_STATUS ( 'not_yet_approved' ) ;
#144 = APPROVAL_ROLE ( '' ) ;
#145 =( NAMED_UNIT ( * ) SI_UNIT ( $, .STERADIAN. ) SOLID_ANGLE_UNIT ( ) );
#146 = PERSON_AND_ORGANIZATION_ROLE ( 'classification_officer' ) ;
#147 = AXIS2_PLACEMENT_3D ( 'NONE', #176, #215, #282 ) ;
#148 =( GEOMETRIC_REPRESENTATION_CONTEXT ( 3 ) GLOBAL_UNCERTAINTY_ASSIGNED_CONTEXT ( ( #363 ) ) GLOBAL_UNIT_ASSIGNED_CONTEXT ( ( #239, #294, #145 ) ) REPRESENTATION_CONTEXT ( 'NONE', 'WORKASPACE' ) );
#149 = ORGANIZATION ( 'NAUO-ORG154', 'UNSPECIFIED', 'UNSPECIFIED' ) ;
#150 = APPROVAL_STATUS ( 'not_yet_approved' ) ;
#151 = CC_DESIGN_DATE_AND_TIME_ASSIGNMENT ( #353, #293, ( #120 ) ) ;
#152 = DATE_AND_TIME ( #180, #372 ) ;
#153 = AXIS2_PLACEMENT_3D ( 'NONE', #124, #242, #2 ) ;
#154 = CC_DESIGN_APPROVAL ( #52, ( #312 ) ) ;
#155 = COORDINATED_UNIVERSAL_TIME_OFFSET ( 10, 0, .AHEAD. ) ;
#156 = APPLICATION_CONTEXT ( 'configuration controlled 3d designs of mechanical parts and assemblies' ) ;
#157 = PERSON_AND_ORGANIZATION_ROLE ( 'classification_officer' ) ;
#158 = LOCAL_TIME ( 18, 49, 56.00000000000000000, #265 ) ;
#159 = APPROVAL_ROLE ( '' ) ;
#160 = CC_DESIGN_PERSON_AND_ORGANIZATION_ASSIGNMENT ( #231, #133, ( #312 ) ) ;
#161 = COORDINATED_UNIVERSAL_TIME_OFFSET ( 10, 0, .AHEAD. ) ;
#162 = PERSON_AND_ORGANIZATION_ROLE ( 'creator' ) ;
#163 = PRODUCT_DEFINITION_SHAPE ( 'NONE', 'NONE',  #181 ) ;
#164 = LOCAL_TIME ( 18, 49, 56.00000000000000000, #132 ) ;
#165 = LOCAL_TIME ( 18, 49, 56.00000000000000000, #68 ) ;
#166 = PERSON_AND_ORGANIZATION ( #18446744073709551615, #18446744073709551615 ) ;
#167 = UNCERTAINTY_MEASURE_WITH_UNIT (LENGTH_MEASURE( 1.000000000000000082E-05 ), #208, 'distance_accuracy_value', 'NONE');
#168 = PERSON_AND_ORGANIZATION ( #18446744073709551615, #18446744073709551615 ) ;
#169 = DATE_TIME_ROLE ( 'classification_date' ) ;
#170 = APPROVAL_PERSON_ORGANIZATION ( #71, #348, #213 ) ;
#171 = COORDINATED_UNIVERSAL_TIME_OFFSET ( 10, 0, .AHEAD. ) ;
#172 = APPROVAL_PERSON_ORGANIZATION ( #51, #277, #355 ) ;
#173 = DIRECTION ( 'NONE',  ( 4.890937612370273194E-29, -3.155443620884047222E-30, 0.9999999999999997780 ) ) ;
#174 = APPROVAL_ROLE ( '' ) ;
#175 = DATE_AND_TIME ( #332, #285 ) ;
#176 = CARTESIAN_POINT ( 'NONE',  ( 0.000000000000000000, 0.000000000000000000, 0.000000000000000000 ) ) ;
#177 = EXTERNAL_SOURCE (IDENTIFIER('') ) ;
#178 = DIRECTION ( 'NONE',  ( 1.000000000000000222, -1.092455418989176591E-28, 4.890937612370273194E-29 ) ) ;
#179 = APPROVAL_STATUS ( 'not_yet_approved' ) ;
#180 = CALENDAR_DATE ( 2026, 22, 6 ) ;
#181 = PRODUCT_DEFINITION ( 'General', '', #195, #359 ) ;
#182 = ITEM_DEFINED_TRANSFORMATION ( 'NONE', 'NONE', #114,  #153 ) ;
#183 = PERSON_AND_ORGANIZATION_ROLE ( 'creator' ) ;
#184 = APPROVAL_PERSON_ORGANIZATION ( #253, #224, #144 ) ;
#185 = DATE_TIME_ROLE ( 'creation_date' ) ;
#186 = APPROVAL_DATE_TIME ( #331, #348 ) ;
#187 = PERSON_AND_ORGANIZATION ( #18446744073709551615, #18446744073709551615 ) ;
#188 = APPROVAL_PERSON_ORGANIZATION ( #69, #221, #35 ) ;
#189 = APPLIED_EXTERNAL_IDENTIFICATION_ASSIGNMENT ( '6461083056.step.STEP' , #371, #281,( #299) ) ;
#190 = PERSON_AND_ORGANIZATION ( #18446744073709551615, #18446744073709551615 ) ;
#191 = PRODUCT_DEFINITION_SHAPE ( 'NONE', 'NONE',  #388 ) ;
#192 = APPROVAL_STATUS ( 'not_yet_approved' ) ;
#193 = PROPERTY_DEFINITION ('document property','', #299 ) ;
#194 = DATE_AND_TIME ( #255, #350 ) ;
#195 = PRODUCT_DEFINITION_FORMATION_WITH_SPECIFIED_SOURCE ( 'Symmetric', '', #110, .NOT_KNOWN. ) ;
#196 = APPLICATION_CONTEXT ( 'configuration controlled 3d designs of mechanical parts and assemblies' ) ;
#197 = ORGANIZATION ( 'NAUO-ORG155', 'UNSPECIFIED', 'UNSPECIFIED' ) ;
#198 = LOCAL_TIME ( 18, 49, 56.00000000000000000, #263 ) ;
#199 = APPLICATION_PROTOCOL_DEFINITION ( 'international standard', 'config_control_design', 1994, #82 ) ;
#200 = DESIGN_CONTEXT ( 'detailed design', #82, 'design' ) ;
#201 = ITEM_DEFINED_TRANSFORMATION ( 'NONE', 'NONE', #41,  #119 ) ;
#202 = DOCUMENT_FILE ( '6461082896.step.STEP' , '', '', #121, '' ,$ ) ;
#203 = CC_DESIGN_PERSON_AND_ORGANIZATION_ASSIGNMENT ( #23, #340, ( #42 ) ) ;
#204 = PERSON_AND_ORGANIZATION ( #18446744073709551615, #18446744073709551615 ) ;
#205 = DATE_AND_TIME ( #232, #158 ) ;
#206 = LOCAL_TIME ( 18, 49, 56.00000000000000000, #291 ) ;
#207 = PERSON_AND_ORGANIZATION_ROLE ( 'classification_officer' ) ;
#208 =( LENGTH_UNIT ( ) NAMED_UNIT ( * ) SI_UNIT ( .MILLI., .METRE. ) );
#209 = CC_DESIGN_PERSON_AND_ORGANIZATION_ASSIGNMENT ( #93, #306, ( #195 ) ) ;
#210 = CC_DESIGN_DATE_AND_TIME_ASSIGNMENT ( #113, #369, ( #373 ) ) ;
#211 = MECHANICAL_CONTEXT ( 'NONE', #196, 'mechanical' ) ;
#212 = CC_DESIGN_PERSON_AND_ORGANIZATION_ASSIGNMENT ( #366, #374, ( #195 ) ) ;
#213 = APPROVAL_ROLE ( '' ) ;
#214 = DATE_AND_TIME ( #97, #94 ) ;
#215 = DIRECTION ( 'NONE',  ( 0.000000000000000000, 0.000000000000000000, 1.000000000000000000 ) ) ;
#216 = CC_DESIGN_PERSON_AND_ORGANIZATION_ASSIGNMENT ( #109, #162, ( #383 ) ) ;
#217 = DATE_AND_TIME ( #99, #264 ) ;
#218 =( REPRESENTATION_RELATIONSHIP ('NONE','NONE', #346, #104 ) REPRESENTATION_RELATIONSHIP_WITH_TRANSFORMATION ( #201 )SHAPE_REPRESENTATION_RELATIONSHIP( ) );
#219 = EXTERNAL_SOURCE (IDENTIFIER('') ) ;
#220 = SECURITY_CLASSIFICATION_LEVEL ( 'unclassified' ) ;
#221 = APPROVAL ( #125, 'Coincident' ) ;
#222 = DATE_AND_TIME ( #376, #357 ) ;
#223 = PERSON_AND_ORGANIZATION_ROLE ( 'classification_officer' ) ;
#224 = APPROVAL ( #143, 'Coincident' ) ;
#225 = COORDINATED_UNIVERSAL_TIME_OFFSET ( 10, 0, .AHEAD. ) ;
#226 = APPROVAL_PERSON_ORGANIZATION ( #244, #309, #86 ) ;
#227 = APPROVAL_ROLE ( '' ) ;
#228 = PRODUCT_DEFINITION_SHAPE ( 'NONE', 'NONE',  #318 ) ;
#229 = DATE_AND_TIME ( #251, #89 ) ;
#230 = CC_DESIGN_PERSON_AND_ORGANIZATION_ASSIGNMENT ( #16, #316, ( #36 ) ) ;
#231 = PERSON_AND_ORGANIZATION ( #18446744073709551615, #18446744073709551615 ) ;
#232 = CALENDAR_DATE ( 2026, 22, 6 ) ;
#233 = CC_DESIGN_PERSON_AND_ORGANIZATION_ASSIGNMENT ( #336, #157, ( #130 ) ) ;
#234 = APPROVAL_DATE_TIME ( #175, #277 ) ;
#235 = CONTEXT_DEPENDENT_SHAPE_REPRESENTATION ( #60, #191 ) ;
#236 = DIRECTION ( 'NONE',  ( 4.890937612370273194E-29, -3.155443620884047222E-30, 0.9999999999999997780 ) ) ;
#237 = CALENDAR_DATE ( 2026, 22, 6 ) ;
#238 = SECURITY_CLASSIFICATION ( '', '', #74 ) ;
#239 =( LENGTH_UNIT ( ) NAMED_UNIT ( * ) SI_UNIT ( .MILLI., .METRE. ) );
#240 = CC_DESIGN_PERSON_AND_ORGANIZATION_ASSIGNMENT ( #204, #14, ( #110 ) ) ;
#241 = OBJECT_ROLE ('mandatory',$ ) ;
#242 = DIRECTION ( 'NONE',  ( 0.000000000000000000, 0.000000000000000000, 1.000000000000000000 ) ) ;
#243 = CC_DESIGN_APPROVAL ( #3, ( #130 ) ) ;
#244 = PERSON_AND_ORGANIZATION ( #274, #75 ) ;
#245 = DATE_TIME_ROLE ( 'classification_date' ) ;
#246 = PROPERTY_DEFINITION ('external definition','', #278 ) ;
#247 = COORDINATED_UNIVERSAL_TIME_OFFSET ( 10, 0, .AHEAD. ) ;
#248 = PERSON_AND_ORGANIZATION ( #18446744073709551615, #18446744073709551615 ) ;
#249 = LOCAL_TIME ( 18, 49, 56.00000000000000000, #39 ) ;
#250 = APPLIED_EXTERNAL_IDENTIFICATION_ASSIGNMENT ( '6461082896.step.STEP' , #21, #219,( #202) ) ;
#251 = CALENDAR_DATE ( 2026, 22, 6 ) ;
#252 = PERSON_AND_ORGANIZATION ( #381, #197 ) ;
#253 = PERSON_AND_ORGANIZATION ( #18446744073709551615, #18446744073709551615 ) ;
#254 = PRODUCT_RELATED_PRODUCT_CATEGORY ( 'detail', '', ( #110 ) ) ;
#255 = CALENDAR_DATE ( 2026, 22, 6 ) ;
#256 = PRODUCT_DEFINITION_SHAPE ( 'NONE', 'NONE',  #383 ) ;
#257 = LOCAL_TIME ( 18, 49, 56.00000000000000000, #377 ) ;
#258 = PROPERTY_DEFINITION ('external definition','', #299 ) ;
#259 = CC_DESIGN_PERSON_AND_ORGANIZATION_ASSIGNMENT ( #51, #146, ( #49 ) ) ;
#260 = APPROVAL_DATE_TIME ( #194, #52 ) ;
#261 = DATE_TIME_ROLE ( 'creation_date' ) ;
#262 = APPLICATION_CONTEXT ( 'configuration controlled 3d designs of mechanical parts and assemblies' ) ;
#263 = COORDINATED_UNIVERSAL_TIME_OFFSET ( 10, 0, .AHEAD. ) ;
#264 = LOCAL_TIME ( 18, 49, 56.00000000000000000, #247 ) ;
#265 = COORDINATED_UNIVERSAL_TIME_OFFSET ( 10, 0, .AHEAD. ) ;
#266 = DIRECTION ( 'NONE',  ( 0.000000000000000000, 0.000000000000000000, 1.000000000000000000 ) ) ;
#267 = APPLIED_DOCUMENT_REFERENCE ( #299,'',( #318) ) ;
#268 = APPLIED_DOCUMENT_REFERENCE ( #278,'',( #383) ) ;
#269 = SHAPE_DEFINITION_REPRESENTATION ( #256, #104 ) ;
#270 = CC_DESIGN_SECURITY_CLASSIFICATION ( #49, ( #389 ) ) ;
#271 = CARTESIAN_POINT ( 'NONE',  ( 17.50000100705100436, 24.49999645996100739, -2.058321952820000078 ) ) ;
#272 = APPLICATION_PROTOCOL_DEFINITION ( 'international standard', 'config_control_design', 1994, #196 ) ;
#273 = CC_DESIGN_PERSON_AND_ORGANIZATION_ASSIGNMENT ( #166, #78, ( #312 ) ) ;
#274 = PERSON ( 'NAUO-PER153', 'UNSPECIFIED', 'UNSPECIFIED', ('UNSPECIFIED'), ('UNSPECIFIED'), ('UNSPECIFIED') ) ;
#275 = CC_DESIGN_SECURITY_CLASSIFICATION ( #130, ( #195 ) ) ;
#276 = DATE_AND_TIME ( #303, #249 ) ;
#277 = APPROVAL ( #28, 'UNKNOWN' ) ;
#278 = DOCUMENT_FILE ( '6461082896.step.STEP' , '', '', #100, '' ,$ ) ;
#279 = CC_DESIGN_DATE_AND_TIME_ASSIGNMENT ( #152, #185, ( #181 ) ) ;
#280 = APPLICATION_PROTOCOL_DEFINITION ( 'international standard', 'config_control_design', 1994, #262 ) ;
#281 = EXTERNAL_SOURCE (IDENTIFIER('') ) ;
#282 = DIRECTION ( 'NONE',  ( 1.000000000000000000, 0.000000000000000000, 0.000000000000000000 ) ) ;
#283 = AXIS2_PLACEMENT_3D ( 'NONE', #329, #63, #178 ) ;
#284 = CC_DESIGN_PERSON_AND_ORGANIZATION_ASSIGNMENT ( #252, #223, ( #373 ) ) ;
#285 = LOCAL_TIME ( 18, 49, 56.00000000000000000, #57 ) ;
#286 = DATE_TIME_ROLE ( 'classification_date' ) ;
#287 = PERSON_AND_ORGANIZATION_ROLE ( 'creator' ) ;
#288 = APPROVAL_ROLE ( '' ) ;
#289 = CC_DESIGN_SECURITY_CLASSIFICATION ( #238, ( #36 ) ) ;
#290 = PRODUCT_DEFINITION_SHAPE ( 'NONE', 'NONE',  #390 ) ;
#291 = COORDINATED_UNIVERSAL_TIME_OFFSET ( 10, 0, .AHEAD. ) ;
#292 = COORDINATED_UNIVERSAL_TIME_OFFSET ( 10, 0, .AHEAD. ) ;
#293 = DATE_TIME_ROLE ( 'classification_date' ) ;
#294 =( NAMED_UNIT ( * ) PLANE_ANGLE_UNIT ( ) SI_UNIT ( $, .RADIAN. ) );
#295 = APPROVAL ( #88, 'UNKNOWN' ) ;
#296 = OBJECT_ROLE ('mandatory',$ ) ;
#297 = CALENDAR_DATE ( 2026, 22, 6 ) ;
#298 = COORDINATED_UNIVERSAL_TIME_OFFSET ( 10, 0, .AHEAD. ) ;
#299 = DOCUMENT_FILE ( '6461083056.step.STEP' , '', '', #301, '' ,$ ) ;
#300 =( NAMED_UNIT ( * ) PLANE_ANGLE_UNIT ( ) SI_UNIT ( $, .RADIAN. ) );
#301 = DOCUMENT_TYPE ( 'geometry' ) ;
#302 = LOCAL_TIME ( 18, 49, 56.00000000000000000, #155 ) ;
#303 = CALENDAR_DATE ( 2026, 22, 6 ) ;
#304 = COORDINATED_UNIVERSAL_TIME_OFFSET ( 10, 0, .AHEAD. ) ;
#305 = APPROVAL_PERSON_ORGANIZATION ( #84, #34, #45 ) ;
#306 = PERSON_AND_ORGANIZATION_ROLE ( 'creator' ) ;
#307 = PROPERTY_DEFINITION_REPRESENTATION ( #17, #104 ) ;
#308 = PERSON_AND_ORGANIZATION ( #18446744073709551615, #18446744073709551615 ) ;
#309 = APPROVAL ( #322, 'UNKNOWN' ) ;
#310 = COORDINATED_UNIVERSAL_TIME_OFFSET ( 10, 0, .AHEAD. ) ;
#311 = DATE_AND_TIME ( #313, #206 ) ;
#312 = PRODUCT_DEFINITION_FORMATION_WITH_SPECIFIED_SOURCE ( 'Symmetric', '', #345, .NOT_KNOWN. ) ;
#313 = CALENDAR_DATE ( 2026, 22, 6 ) ;
#314 = APPROVAL ( #179, 'Coincident' ) ;
#315 = DATE_AND_TIME ( #18, #20 ) ;
#316 = PERSON_AND_ORGANIZATION_ROLE ( 'design_supplier' ) ;
#317 = CC_DESIGN_APPROVAL ( #277, ( #49 ) ) ;
#318 = PRODUCT_DEFINITION ( 'General', '', #312, #61 ) ;
#319 = APPROVAL_DATE_TIME ( #315, #34 ) ;
#320 = APPLICATION_CONTEXT ( 'configuration controlled 3d designs of mechanical parts and assemblies' ) ;
#321 = DIRECTION ( 'NONE',  ( 1.000000000000000222, -1.092455418989176591E-28, 4.890937612370273194E-29 ) ) ;
#322 = APPROVAL_STATUS ( 'not_yet_approved' ) ;
#323 =( NAMED_UNIT ( * ) PLANE_ANGLE_UNIT ( ) SI_UNIT ( $, .RADIAN. ) );
#324 = APPROVAL_PERSON_ORGANIZATION ( #137, #52, #288 ) ;
#325 = APPROVAL_DATE_TIME ( #205, #295 ) ;
#326 = CC_DESIGN_PERSON_AND_ORGANIZATION_ASSIGNMENT ( #244, #207, ( #120 ) ) ;
#327 = ROLE_ASSOCIATION ( #241, #268 ) ;
#328 = DIRECTION ( 'NONE',  ( 1.000000000000000000, 0.000000000000000000, 0.000000000000000000 ) ) ;
#329 = CARTESIAN_POINT ( 'NONE',  ( 18.00000100705100792, 24.49999645996100384, -2.058321952820000078 ) ) ;
#330 = PERSON_AND_ORGANIZATION_ROLE ( 'design_owner' ) ;
#331 = DATE_AND_TIME ( #102, #164 ) ;
#332 = CALENDAR_DATE ( 2026, 22, 6 ) ;
#333 = APPROVAL_ROLE ( '' ) ;
#334 = CC_DESIGN_SECURITY_CLASSIFICATION ( #120, ( #388 ) ) ;
#335 = PERSON_AND_ORGANIZATION ( #18446744073709551615, #18446744073709551615 ) ;
#336 = PERSON_AND_ORGANIZATION ( #18446744073709551615, #18446744073709551615 ) ;
#337 = OBJECT_ROLE ('mandatory',$ ) ;
#338 = COORDINATED_UNIVERSAL_TIME_OFFSET ( 10, 0, .AHEAD. ) ;
#339 = ROLE_ASSOCIATION ( #296, #375 ) ;
#340 = PERSON_AND_ORGANIZATION_ROLE ( 'classification_officer' ) ;
#341 = APPROVAL_PERSON_ORGANIZATION ( #43, #9, #159 ) ;
#342 = APPROVAL_PERSON_ORGANIZATION ( #349, #352, #227 ) ;
#343 = APPROVAL_STATUS ( 'not_yet_approved' ) ;
#344 = CC_DESIGN_PERSON_AND_ORGANIZATION_ASSIGNMENT ( #168, #22, ( #238 ) ) ;
#345 = PRODUCT ( '6461083056.step', '6461083056.step', '', ( #211 ) ) ;
#346 = SHAPE_REPRESENTATION ( 'R12.step', ( #147, #283, #114, #41 ), #148 ) ;
#347 = APPROVAL_DATE_TIME ( #229, #352 ) ;
#348 = APPROVAL ( #40, 'Coincident' ) ;
#349 = PERSON_AND_ORGANIZATION ( #18446744073709551615, #18446744073709551615 ) ;
#350 = LOCAL_TIME ( 18, 49, 56.00000000000000000, #225 ) ;
#351 = UNCERTAINTY_MEASURE_WITH_UNIT (LENGTH_MEASURE( 1.000000000000000082E-05 ), #123, 'distance_accuracy_value', 'NONE');
#352 = APPROVAL ( #192, 'Coincident' ) ;
#353 = DATE_AND_TIME ( #237, #165 ) ;
#354 = PRODUCT_RELATED_PRODUCT_CATEGORY ( 'detail', '', ( #345 ) ) ;
#355 = APPROVAL_ROLE ( '' ) ;
#356 = PROPERTY_DEFINITION_REPRESENTATION ( #367, #104 ) ;
#357 = LOCAL_TIME ( 18, 49, 56.00000000000000000, #292 ) ;
#358 = CALENDAR_DATE ( 2026, 22, 6 ) ;
#359 = DESIGN_CONTEXT ( 'detailed design', #262, 'design' ) ;
#360 = IDENTIFICATION_ROLE ( 'external document id and location', $) ;
#361 = CC_DESIGN_PERSON_AND_ORGANIZATION_ASSIGNMENT ( #248, #11, ( #181 ) ) ;
#362 = CALENDAR_DATE ( 2026, 22, 6 ) ;
#363 = UNCERTAINTY_MEASURE_WITH_UNIT (LENGTH_MEASURE( 1.000000000000000082E-05 ), #239, 'distance_accuracy_value', 'NONE');
#364 =( GEOMETRIC_REPRESENTATION_CONTEXT ( 3 ) GLOBAL_UNCERTAINTY_ASSIGNED_CONTEXT ( ( #167 ) ) GLOBAL_UNIT_ASSIGNED_CONTEXT ( ( #208, #300, #4 ) ) REPRESENTATION_CONTEXT ( 'NONE', 'WORKASPACE' ) );
#365 = CC_DESIGN_PERSON_AND_ORGANIZATION_ASSIGNMENT ( #190, #287, ( #36 ) ) ;
#366 = PERSON_AND_ORGANIZATION ( #18446744073709551615, #18446744073709551615 ) ;
#367 = PROPERTY_DEFINITION ('document property','', #278 ) ;
#368 = APPROVAL_DATE_TIME ( #127, #221 ) ;
#369 = DATE_TIME_ROLE ( 'classification_date' ) ;
#370 = APPROVAL_ROLE ( '' ) ;
#371 = IDENTIFICATION_ROLE ( 'external document id and location', $) ;
#372 = LOCAL_TIME ( 18, 49, 56.00000000000000000, #310 ) ;
#373 = SECURITY_CLASSIFICATION ( '', '', #384 ) ;
#374 = PERSON_AND_ORGANIZATION_ROLE ( 'design_supplier' ) ;
#375 = APPLIED_DOCUMENT_REFERENCE ( #202,'',( #383) ) ;
#376 = CALENDAR_DATE ( 2026, 22, 6 ) ;
#377 = COORDINATED_UNIVERSAL_TIME_OFFSET ( 10, 0, .AHEAD. ) ;
#378 = COORDINATED_UNIVERSAL_TIME_OFFSET ( 10, 0, .AHEAD. ) ;
#379 = CC_DESIGN_APPROVAL ( #34, ( #42 ) ) ;
#380 = APPLICATION_PROTOCOL_DEFINITION ( 'international standard', 'config_control_design', 1994, #38 ) ;
#381 = PERSON ( 'NAUO-PER155', 'UNSPECIFIED', 'UNSPECIFIED', ('UNSPECIFIED'), ('UNSPECIFIED'), ('UNSPECIFIED') ) ;
#382 = PERSON_AND_ORGANIZATION_ROLE ( 'design_owner' ) ;
#383 = PRODUCT_DEFINITION ( 'General', '', #36, #200 ) ;
#384 = SECURITY_CLASSIFICATION_LEVEL ( 'unclassified' ) ;
#385 = CC_DESIGN_APPROVAL ( #221, ( #318 ) ) ;
#386 = CC_DESIGN_PERSON_AND_ORGANIZATION_ASSIGNMENT ( #335, #330, ( #345 ) ) ;
#387 = APPLIED_EXTERNAL_IDENTIFICATION_ASSIGNMENT ( '6461082896.step.STEP' , #360, #177,( #278) ) ;
#388 = NEXT_ASSEMBLY_USAGE_OCCURRENCE ( 'NAUO153', ' ', ' ', #181, #383, $ ) ;
#389 = NEXT_ASSEMBLY_USAGE_OCCURRENCE ( 'NAUO154', ' ', ' ', #181, #318, $ ) ;
#390 = NEXT_ASSEMBLY_USAGE_OCCURRENCE ( 'NAUO155', ' ', ' ', #181, #383, $ ) ;
ENDSEC;
END-ISO-10303-21;
