ISO-10303-21;
HEADER;
FILE_DESCRIPTION (( 'STEP AP203' ),
    '1' );
FILE_NAME ('R14.step.STEP',
    '2026-06-22T08:49:56',
    ( 'localuser' ),
    ( '' ),
    'SwSTEP 2.0',
    'SolidWorks 2025',
    '' );
FILE_SCHEMA (( 'CONFIG_CONTROL_DESIGN' ));
ENDSEC;

DATA;
#1 = DOCUMENT_FILE ( '6461079856.step.STEP' , '', '', #139, '' ,$ ) ;
#2 = CARTESIAN_POINT ( 'NONE',  ( 4.550000244111000569, 13.60000256347700365, -2.058321952819998302 ) ) ;
#3 = CC_DESIGN_DATE_AND_TIME_ASSIGNMENT ( #103, #305, ( #239 ) ) ;
#4 = DESIGN_CONTEXT ( 'detailed design', #357, 'design' ) ;
#5 =( LENGTH_UNIT ( ) NAMED_UNIT ( * ) SI_UNIT ( .MILLI., .METRE. ) );
#6 = SHAPE_DEFINITION_REPRESENTATION ( #48, #79 ) ;
#7 = CC_DESIGN_PERSON_AND_ORGANIZATION_ASSIGNMENT ( #341, #77, ( #23 ) ) ;
#8 = DATE_AND_TIME ( #331, #283 ) ;
#9 = APPROVAL_DATE_TIME ( #8, #176 ) ;
#10 = CC_DESIGN_APPROVAL ( #347, ( #239 ) ) ;
#11 = SECURITY_CLASSIFICATION ( '', '', #256 ) ;
#12 = APPROVAL ( #246, 'Coincident' ) ;
#13 = PERSON_AND_ORGANIZATION ( #18446744073709551615, #18446744073709551615 ) ;
#14 = CC_DESIGN_DATE_AND_TIME_ASSIGNMENT ( #292, #237, ( #367 ) ) ;
#15 = PROPERTY_DEFINITION ('document property','', #1 ) ;
#16 = CALENDAR_DATE ( 2026, 22, 6 ) ;
#17 = APPLICATION_PROTOCOL_DEFINITION ( 'international standard', 'config_control_design', 1994, #80 ) ;
#18 = LOCAL_TIME ( 18, 49, 56.00000000000000000, #202 ) ;
#19 = APPLICATION_CONTEXT ( 'configuration controlled 3d designs of mechanical parts and assemblies' ) ;
#20 = APPROVAL_STATUS ( 'not_yet_approved' ) ;
#21 = COORDINATED_UNIVERSAL_TIME_OFFSET ( 10, 0, .AHEAD. ) ;
#22 = SECURITY_CLASSIFICATION_LEVEL ( 'unclassified' ) ;
#23 = PRODUCT_DEFINITION_FORMATION_WITH_SPECIFIED_SOURCE ( 'Symmetric', '', #228, .NOT_KNOWN. ) ;
#24 = COORDINATED_UNIVERSAL_TIME_OFFSET ( 10, 0, .AHEAD. ) ;
#25 = DIRECTION ( 'NONE',  ( 1.000000000000000222, -1.092455418989176591E-28, 4.890937612370273194E-29 ) ) ;
#26 = APPROVAL_DATE_TIME ( #144, #193 ) ;
#27 = PERSON_AND_ORGANIZATION_ROLE ( 'classification_officer' ) ;
#28 = CARTESIAN_POINT ( 'NONE',  ( 4.550000244111000569, 14.10000256347700365, -2.058321952820000078 ) ) ;
#29 = AXIS2_PLACEMENT_3D ( 'NONE', #119, #126, #65 ) ;
#30 = SECURITY_CLASSIFICATION ( '', '', #55 ) ;
#31 = LOCAL_TIME ( 18, 49, 56.00000000000000000, #267 ) ;
#32 = COORDINATED_UNIVERSAL_TIME_OFFSET ( 10, 0, .AHEAD. ) ;
#33 = CC_DESIGN_PERSON_AND_ORGANIZATION_ASSIGNMENT ( #108, #285, ( #11 ) ) ;
#34 = APPROVAL_ROLE ( '' ) ;
#35 = UNCERTAINTY_MEASURE_WITH_UNIT (LENGTH_MEASURE( 1.000000000000000082E-05 ), #235, 'distance_accuracy_value', 'NONE');
#36 = CC_DESIGN_PERSON_AND_ORGANIZATION_ASSIGNMENT ( #253, #49, ( #228 ) ) ;
#37 = LOCAL_TIME ( 18, 49, 56.00000000000000000, #156 ) ;
#38 = PERSON_AND_ORGANIZATION ( #18446744073709551615, #18446744073709551615 ) ;
#39 = APPLICATION_CONTEXT ( 'configuration controlled 3d designs of mechanical parts and assemblies' ) ;
#40 = PERSON_AND_ORGANIZATION ( #18446744073709551615, #18446744073709551615 ) ;
#41 = DATE_AND_TIME ( #133, #187 ) ;
#42 = DATE_AND_TIME ( #280, #231 ) ;
#43 = AXIS2_PLACEMENT_3D ( 'NONE', #328, #162, #174 ) ;
#44 = LOCAL_TIME ( 18, 49, 56.00000000000000000, #109 ) ;
#45 = CALENDAR_DATE ( 2026, 22, 6 ) ;
#46 = PERSON_AND_ORGANIZATION_ROLE ( 'creator' ) ;
#47 = PERSON_AND_ORGANIZATION ( #18446744073709551615, #18446744073709551615 ) ;
#48 = PRODUCT_DEFINITION_SHAPE ( 'NONE', 'NONE',  #239 ) ;
#49 = PERSON_AND_ORGANIZATION_ROLE ( 'design_owner' ) ;
#50 = LOCAL_TIME ( 18, 49, 56.00000000000000000, #263 ) ;
#51 = PERSON_AND_ORGANIZATION ( #18446744073709551615, #18446744073709551615 ) ;
#52 = APPROVAL_ROLE ( '' ) ;
#53 = CC_DESIGN_PERSON_AND_ORGANIZATION_ASSIGNMENT ( #368, #334, ( #239 ) ) ;
#54 = DIRECTION ( 'NONE',  ( 1.000000000000000222, -1.092455418989176591E-28, 4.890937612370273194E-29 ) ) ;
#55 = SECURITY_CLASSIFICATION_LEVEL ( 'unclassified' ) ;
#56 =( NAMED_UNIT ( * ) SI_UNIT ( $, .STERADIAN. ) SOLID_ANGLE_UNIT ( ) );
#57 = CC_DESIGN_APPROVAL ( #330, ( #367 ) ) ;
#58 = COORDINATED_UNIVERSAL_TIME_OFFSET ( 10, 0, .AHEAD. ) ;
#59 =( NAMED_UNIT ( * ) PLANE_ANGLE_UNIT ( ) SI_UNIT ( $, .RADIAN. ) );
#60 = APPLIED_DOCUMENT_REFERENCE ( #323,'',( #201) ) ;
#61 = EXTERNAL_SOURCE (IDENTIFIER('') ) ;
#62 = PRODUCT_DEFINITION ( 'General', '', #23, #4 ) ;
#63 = LOCAL_TIME ( 18, 49, 56.00000000000000000, #308 ) ;
#64 = LOCAL_TIME ( 18, 49, 56.00000000000000000, #122 ) ;
#65 = DIRECTION ( 'NONE',  ( 1.000000000000000000, 0.000000000000000000, 0.000000000000000000 ) ) ;
#66 = PERSON_AND_ORGANIZATION ( #18446744073709551615, #18446744073709551615 ) ;
#67 = CC_DESIGN_PERSON_AND_ORGANIZATION_ASSIGNMENT ( #344, #185, ( #107 ) ) ;
#68 = PERSON_AND_ORGANIZATION ( #18446744073709551615, #18446744073709551615 ) ;
#69 = APPROVAL_PERSON_ORGANIZATION ( #310, #259, #317 ) ;
#70 = PERSON_AND_ORGANIZATION_ROLE ( 'design_owner' ) ;
#71 = DATE_AND_TIME ( #351, #50 ) ;
#72 = CC_DESIGN_PERSON_AND_ORGANIZATION_ASSIGNMENT ( #234, #327, ( #131 ) ) ;
#73 = DATE_AND_TIME ( #371, #304 ) ;
#74 = PERSON ( 'NAUO-PER156', 'UNSPECIFIED', 'UNSPECIFIED', ('UNSPECIFIED'), ('UNSPECIFIED'), ('UNSPECIFIED') ) ;
#75 = LOCAL_TIME ( 18, 49, 56.00000000000000000, #85 ) ;
#76 = CALENDAR_DATE ( 2026, 22, 6 ) ;
#77 = PERSON_AND_ORGANIZATION_ROLE ( 'design_supplier' ) ;
#78 = COORDINATED_UNIVERSAL_TIME_OFFSET ( 10, 0, .AHEAD. ) ;
#79 = SHAPE_REPRESENTATION ( 'R14.step', ( #29, #93, #339, #216 ), #192 ) ;
#80 = APPLICATION_CONTEXT ( 'configuration controlled 3d designs of mechanical parts and assemblies' ) ;
#81 = APPROVAL_PERSON_ORGANIZATION ( #242, #347, #34 ) ;
#82 = CALENDAR_DATE ( 2026, 22, 6 ) ;
#83 = CC_DESIGN_SECURITY_CLASSIFICATION ( #88, ( #389 ) ) ;
#84 = PRODUCT_RELATED_PRODUCT_CATEGORY ( 'detail', '', ( #257 ) ) ;
#85 = COORDINATED_UNIVERSAL_TIME_OFFSET ( 10, 0, .AHEAD. ) ;
#86 = PROPERTY_DEFINITION_REPRESENTATION ( #363, #94 ) ;
#87 = CALENDAR_DATE ( 2026, 22, 6 ) ;
#88 = SECURITY_CLASSIFICATION ( '', '', #116 ) ;
#89 = ITEM_DEFINED_TRANSFORMATION ( 'NONE', 'NONE', #93,  #43 ) ;
#90 = CARTESIAN_POINT ( 'NONE',  ( 4.550000244111000569, 14.60000256347700365, -2.058321952820000078 ) ) ;
#91 = APPROVAL_ROLE ( '' ) ;
#92 =( GEOMETRIC_REPRESENTATION_CONTEXT ( 3 ) GLOBAL_UNCERTAINTY_ASSIGNED_CONTEXT ( ( #123 ) ) GLOBAL_UNIT_ASSIGNED_CONTEXT ( ( #293, #59, #205 ) ) REPRESENTATION_CONTEXT ( 'NONE', 'WORKASPACE' ) );
#93 = AXIS2_PLACEMENT_3D ( 'NONE', #28, #272, #142 ) ;
#94 = SHAPE_REPRESENTATION ( '6534431024.step', ( #43 ), #149 ) ;
#95 = CC_DESIGN_DATE_AND_TIME_ASSIGNMENT ( #223, #160, ( #201 ) ) ;
#96 = APPROVAL_ROLE ( '' ) ;
#97 = PROPERTY_DEFINITION_REPRESENTATION ( #226, #382 ) ;
#98 = APPROVAL ( #236, 'UNKNOWN' ) ;
#99 = PERSON_AND_ORGANIZATION_ROLE ( 'design_owner' ) ;
#100 = COORDINATED_UNIVERSAL_TIME_OFFSET ( 10, 0, .AHEAD. ) ;
#101 = IDENTIFICATION_ROLE ( 'external document id and location', $) ;
#102 = CC_DESIGN_SECURITY_CLASSIFICATION ( #11, ( #107 ) ) ;
#103 = DATE_AND_TIME ( #151, #63 ) ;
#104 = CC_DESIGN_DATE_AND_TIME_ASSIGNMENT ( #353, #212, ( #88 ) ) ;
#105 = APPROVAL_STATUS ( 'not_yet_approved' ) ;
#106 = PERSON_AND_ORGANIZATION ( #18446744073709551615, #18446744073709551615 ) ;
#107 = PRODUCT_DEFINITION_FORMATION_WITH_SPECIFIED_SOURCE ( 'Symmetric', '', #343, .NOT_KNOWN. ) ;
#108 = PERSON_AND_ORGANIZATION ( #18446744073709551615, #18446744073709551615 ) ;
#109 = COORDINATED_UNIVERSAL_TIME_OFFSET ( 10, 0, .AHEAD. ) ;
#110 = PRODUCT_DEFINITION_SHAPE ( 'NONE', 'NONE',  #388 ) ;
#111 = DATE_TIME_ROLE ( 'classification_date' ) ;
#112 = CC_DESIGN_APPROVAL ( #176, ( #168 ) ) ;
#113 = DATE_TIME_ROLE ( 'classification_date' ) ;
#114 = APPROVAL ( #295, 'UNKNOWN' ) ;
#115 = DATE_AND_TIME ( #297, #150 ) ;
#116 = SECURITY_CLASSIFICATION_LEVEL ( 'unclassified' ) ;
#117 = APPROVAL_STATUS ( 'not_yet_approved' ) ;
#118 = CC_DESIGN_DATE_AND_TIME_ASSIGNMENT ( #115, #113, ( #131 ) ) ;
#119 = CARTESIAN_POINT ( 'NONE',  ( 0.000000000000000000, 0.000000000000000000, 0.000000000000000000 ) ) ;
#120 = CC_DESIGN_SECURITY_CLASSIFICATION ( #131, ( #388 ) ) ;
#121 = IDENTIFICATION_ROLE ( 'external document id and location', $) ;
#122 = COORDINATED_UNIVERSAL_TIME_OFFSET ( 10, 0, .AHEAD. ) ;
#123 = UNCERTAINTY_MEASURE_WITH_UNIT (LENGTH_MEASURE( 1.000000000000000082E-05 ), #293, 'distance_accuracy_value', 'NONE');
#124 =( NAMED_UNIT ( * ) SI_UNIT ( $, .STERADIAN. ) SOLID_ANGLE_UNIT ( ) );
#125 = ORGANIZATION ( 'NAUO-ORG158', 'UNSPECIFIED', 'UNSPECIFIED' ) ;
#126 = DIRECTION ( 'NONE',  ( 0.000000000000000000, 0.000000000000000000, 1.000000000000000000 ) ) ;
#127 = DESIGN_CONTEXT ( 'detailed design', #262, 'design' ) ;
#128 = DATE_AND_TIME ( #365, #354 ) ;
#129 = MECHANICAL_CONTEXT ( 'NONE', #194, 'mechanical' ) ;
#130 = LOCAL_TIME ( 18, 49, 56.00000000000000000, #278 ) ;
#131 = SECURITY_CLASSIFICATION ( '', '', #22 ) ;
#132 = APPROVAL_STATUS ( 'not_yet_approved' ) ;
#133 = CALENDAR_DATE ( 2026, 22, 6 ) ;
#134 = DATE_AND_TIME ( #76, #271 ) ;
#135 = APPROVAL_DATE_TIME ( #73, #140 ) ;
#136 = LOCAL_TIME ( 18, 49, 56.00000000000000000, #138 ) ;
#137 = PERSON_AND_ORGANIZATION ( #18446744073709551615, #18446744073709551615 ) ;
#138 = COORDINATED_UNIVERSAL_TIME_OFFSET ( 10, 0, .AHEAD. ) ;
#139 = DOCUMENT_TYPE ( 'geometry' ) ;
#140 = APPROVAL ( #370, 'Coincident' ) ;
#141 =( REPRESENTATION_RELATIONSHIP ('NONE','NONE', #79, #382 ) REPRESENTATION_RELATIONSHIP_WITH_TRANSFORMATION ( #332 )SHAPE_REPRESENTATION_RELATIONSHIP( ) );
#142 = DIRECTION ( 'NONE',  ( 1.000000000000000222, -1.092455418989176591E-28, 4.890937612370273194E-29 ) ) ;
#143 = CONTEXT_DEPENDENT_SHAPE_REPRESENTATION ( #281, #110 ) ;
#144 = DATE_AND_TIME ( #204, #75 ) ;
#145 = PERSON_AND_ORGANIZATION ( #18446744073709551615, #18446744073709551615 ) ;
#146 = CC_DESIGN_APPROVAL ( #319, ( #201 ) ) ;
#147 = CALENDAR_DATE ( 2026, 22, 6 ) ;
#148 = SECURITY_CLASSIFICATION_LEVEL ( 'unclassified' ) ;
#149 =( GEOMETRIC_REPRESENTATION_CONTEXT ( 3 ) GLOBAL_UNCERTAINTY_ASSIGNED_CONTEXT ( ( #35 ) ) GLOBAL_UNIT_ASSIGNED_CONTEXT ( ( #235, #167, #56 ) ) REPRESENTATION_CONTEXT ( 'NONE', 'WORKASPACE' ) );
#150 = LOCAL_TIME ( 18, 49, 56.00000000000000000, #24 ) ;
#151 = CALENDAR_DATE ( 2026, 22, 6 ) ;
#152 = APPROVAL_ROLE ( '' ) ;
#153 = OBJECT_ROLE ('mandatory',$ ) ;
#154 = PROPERTY_DEFINITION_REPRESENTATION ( #15, #382 ) ;
#155 = PERSON_AND_ORGANIZATION ( #18446744073709551615, #18446744073709551615 ) ;
#156 = COORDINATED_UNIVERSAL_TIME_OFFSET ( 10, 0, .AHEAD. ) ;
#157 = CC_DESIGN_PERSON_AND_ORGANIZATION_ASSIGNMENT ( #47, #191, ( #201 ) ) ;
#158 = PERSON_AND_ORGANIZATION_ROLE ( 'design_supplier' ) ;
#159 = CC_DESIGN_PERSON_AND_ORGANIZATION_ASSIGNMENT ( #373, #227, ( #23 ) ) ;
#160 = DATE_TIME_ROLE ( 'creation_date' ) ;
#161 = PRODUCT_DEFINITION_SHAPE ( 'NONE', 'NONE',  #62 ) ;
#162 = DIRECTION ( 'NONE',  ( 0.000000000000000000, 0.000000000000000000, 1.000000000000000000 ) ) ;
#163 = CC_DESIGN_SECURITY_CLASSIFICATION ( #186, ( #168 ) ) ;
#164 = CALENDAR_DATE ( 2026, 22, 6 ) ;
#165 = CALENDAR_DATE ( 2026, 22, 6 ) ;
#166 = PERSON_AND_ORGANIZATION_ROLE ( 'classification_officer' ) ;
#167 =( NAMED_UNIT ( * ) PLANE_ANGLE_UNIT ( ) SI_UNIT ( $, .RADIAN. ) );
#168 = PRODUCT_DEFINITION_FORMATION_WITH_SPECIFIED_SOURCE ( 'Symmetric', '', #257, .NOT_KNOWN. ) ;
#169 = CONTEXT_DEPENDENT_SHAPE_REPRESENTATION ( #366, #316 ) ;
#170 = ROLE_ASSOCIATION ( #153, #303 ) ;
#171 = MECHANICAL_CONTEXT ( 'NONE', #19, 'mechanical' ) ;
#172 = EXTERNAL_SOURCE (IDENTIFIER('') ) ;
#173 = APPLIED_EXTERNAL_IDENTIFICATION_ASSIGNMENT ( '6534431024.step.STEP' , #345, #172,( #364) ) ;
#174 = DIRECTION ( 'NONE',  ( 1.000000000000000000, 0.000000000000000000, 0.000000000000000000 ) ) ;
#175 = APPLICATION_PROTOCOL_DEFINITION ( 'international standard', 'config_control_design', 1994, #194 ) ;
#176 = APPROVAL ( #132, 'Coincident' ) ;
#177 = APPROVAL_ROLE ( '' ) ;
#178 = DATE_TIME_ROLE ( 'classification_date' ) ;
#179 = CC_DESIGN_APPROVAL ( #193, ( #131 ) ) ;
#180 = CC_DESIGN_DATE_AND_TIME_ASSIGNMENT ( #197, #378, ( #62 ) ) ;
#181 = CONTEXT_DEPENDENT_SHAPE_REPRESENTATION ( #141, #346 ) ;
#182 = APPLICATION_PROTOCOL_DEFINITION ( 'international standard', 'config_control_design', 1994, #39 ) ;
#183 = APPROVAL_ROLE ( '' ) ;
#184 = APPLICATION_PROTOCOL_DEFINITION ( 'international standard', 'config_control_design', 1994, #262 ) ;
#185 = PERSON_AND_ORGANIZATION_ROLE ( 'creator' ) ;
#186 = SECURITY_CLASSIFICATION ( '', '', #148 ) ;
#187 = LOCAL_TIME ( 18, 49, 56.00000000000000000, #247 ) ;
#188 = MECHANICAL_CONTEXT ( 'NONE', #80, 'mechanical' ) ;
#189 = PRODUCT_DEFINITION_SHAPE ( 'NONE', 'NONE',  #201 ) ;
#190 = SECURITY_CLASSIFICATION_LEVEL ( 'unclassified' ) ;
#191 = PERSON_AND_ORGANIZATION_ROLE ( 'creator' ) ;
#192 =( GEOMETRIC_REPRESENTATION_CONTEXT ( 3 ) GLOBAL_UNCERTAINTY_ASSIGNED_CONTEXT ( ( #296 ) ) GLOBAL_UNIT_ASSIGNED_CONTEXT ( ( #5, #219, #124 ) ) REPRESENTATION_CONTEXT ( 'NONE', 'WORKASPACE' ) );
#193 = APPROVAL ( #386, 'UNKNOWN' ) ;
#194 = APPLICATION_CONTEXT ( 'configuration controlled 3d designs of mechanical parts and assemblies' ) ;
#195 = APPROVAL_PERSON_ORGANIZATION ( #298, #98, #52 ) ;
#196 = CC_DESIGN_APPROVAL ( #140, ( #23 ) ) ;
#197 = DATE_AND_TIME ( #82, #44 ) ;
#198 = PROPERTY_DEFINITION_REPRESENTATION ( #245, #94 ) ;
#199 = DIRECTION ( 'NONE',  ( 4.890937612370273194E-29, -3.155443620884047222E-30, 0.9999999999999997780 ) ) ;
#200 = DATE_AND_TIME ( #232, #64 ) ;
#201 = PRODUCT_DEFINITION ( 'General', '', #107, #127 ) ;
#202 = COORDINATED_UNIVERSAL_TIME_OFFSET ( 10, 0, .AHEAD. ) ;
#203 = CC_DESIGN_APPROVAL ( #98, ( #88 ) ) ;
#204 = CALENDAR_DATE ( 2026, 22, 6 ) ;
#205 =( NAMED_UNIT ( * ) SI_UNIT ( $, .STERADIAN. ) SOLID_ANGLE_UNIT ( ) );
#206 = CC_DESIGN_PERSON_AND_ORGANIZATION_ASSIGNMENT ( #248, #70, ( #343 ) ) ;
#207 = DIRECTION ( 'NONE',  ( 4.890937612370273194E-29, -3.155443620884047222E-30, 0.9999999999999997780 ) ) ;
#208 = CC_DESIGN_PERSON_AND_ORGANIZATION_ASSIGNMENT ( #291, #46, ( #62 ) ) ;
#209 = APPROVAL_PERSON_ORGANIZATION ( #13, #274, #338 ) ;
#210 = PERSON ( 'NAUO-PER157', 'UNSPECIFIED', 'UNSPECIFIED', ('UNSPECIFIED'), ('UNSPECIFIED'), ('UNSPECIFIED') ) ;
#211 = COORDINATED_UNIVERSAL_TIME_OFFSET ( 10, 0, .AHEAD. ) ;
#212 = DATE_TIME_ROLE ( 'classification_date' ) ;
#213 = COORDINATED_UNIVERSAL_TIME_OFFSET ( 10, 0, .AHEAD. ) ;
#214 = DATE_TIME_ROLE ( 'classification_date' ) ;
#215 = PERSON_AND_ORGANIZATION_ROLE ( 'design_supplier' ) ;
#216 = AXIS2_PLACEMENT_3D ( 'NONE', #90, #207, #54 ) ;
#217 = CC_DESIGN_APPROVAL ( #114, ( #30 ) ) ;
#218 = EXTERNAL_SOURCE (IDENTIFIER('') ) ;
#219 =( NAMED_UNIT ( * ) PLANE_ANGLE_UNIT ( ) SI_UNIT ( $, .RADIAN. ) );
#220 = CC_DESIGN_PERSON_AND_ORGANIZATION_ASSIGNMENT ( #68, #244, ( #186 ) ) ;
#221 = APPROVAL_ROLE ( '' ) ;
#222 = APPROVAL_DATE_TIME ( #41, #114 ) ;
#223 = DATE_AND_TIME ( #165, #136 ) ;
#224 = APPROVAL_PERSON_ORGANIZATION ( #282, #319, #91 ) ;
#225 = APPROVAL_PERSON_ORGANIZATION ( #51, #140, #221 ) ;
#226 = PROPERTY_DEFINITION ('document property','', #323 ) ;
#227 = PERSON_AND_ORGANIZATION_ROLE ( 'creator' ) ;
#228 = PRODUCT ( '6534431024.step', '6534431024.step', '', ( #188 ) ) ;
#229 = APPROVAL_DATE_TIME ( #261, #259 ) ;
#230 = APPROVAL_DATE_TIME ( #287, #274 ) ;
#231 = LOCAL_TIME ( 18, 49, 56.00000000000000000, #100 ) ;
#232 = CALENDAR_DATE ( 2026, 22, 6 ) ;
#233 = CC_DESIGN_PERSON_AND_ORGANIZATION_ASSIGNMENT ( #155, #215, ( #168 ) ) ;
#234 = PERSON_AND_ORGANIZATION ( #74, #265 ) ;
#235 =( LENGTH_UNIT ( ) NAMED_UNIT ( * ) SI_UNIT ( .MILLI., .METRE. ) );
#236 = APPROVAL_STATUS ( 'not_yet_approved' ) ;
#237 = DATE_TIME_ROLE ( 'classification_date' ) ;
#238 = APPROVAL_PERSON_ORGANIZATION ( #40, #12, #152 ) ;
#239 = PRODUCT_DEFINITION ( 'General', '', #168, #277 ) ;
#240 = APPLICATION_PROTOCOL_DEFINITION ( 'international standard', 'config_control_design', 1994, #19 ) ;
#241 = APPROVAL_PERSON_ORGANIZATION ( #312, #114, #183 ) ;
#242 = PERSON_AND_ORGANIZATION ( #18446744073709551615, #18446744073709551615 ) ;
#243 = ROLE_ASSOCIATION ( #336, #60 ) ;
#244 = PERSON_AND_ORGANIZATION_ROLE ( 'classification_officer' ) ;
#245 = PROPERTY_DEFINITION ('external definition','', #364 ) ;
#246 = APPROVAL_STATUS ( 'not_yet_approved' ) ;
#247 = COORDINATED_UNIVERSAL_TIME_OFFSET ( 10, 0, .AHEAD. ) ;
#248 = PERSON_AND_ORGANIZATION ( #18446744073709551615, #18446744073709551615 ) ;
#249 = APPROVAL_PERSON_ORGANIZATION ( #137, #342, #286 ) ;
#250 = APPLIED_EXTERNAL_IDENTIFICATION_ASSIGNMENT ( '6461079856.step.STEP' , #121, #61,( #1) ) ;
#251 = SHAPE_DEFINITION_REPRESENTATION ( #189, #382 ) ;
#252 = CC_DESIGN_PERSON_AND_ORGANIZATION_ASSIGNMENT ( #312, #254, ( #30 ) ) ;
#253 = PERSON_AND_ORGANIZATION ( #18446744073709551615, #18446744073709551615 ) ;
#254 = PERSON_AND_ORGANIZATION_ROLE ( 'classification_officer' ) ;
#255 = CC_DESIGN_PERSON_AND_ORGANIZATION_ASSIGNMENT ( #299, #99, ( #257 ) ) ;
#256 = SECURITY_CLASSIFICATION_LEVEL ( 'unclassified' ) ;
#257 = PRODUCT ( 'R14.step', 'R14.step', '', ( #171 ) ) ;
#258 = APPROVAL_PERSON_ORGANIZATION ( #234, #193, #384 ) ;
#259 = APPROVAL ( #105, 'Coincident' ) ;
#260 = COORDINATED_UNIVERSAL_TIME_OFFSET ( 10, 0, .AHEAD. ) ;
#261 = DATE_AND_TIME ( #45, #311 ) ;
#262 = APPLICATION_CONTEXT ( 'configuration controlled 3d designs of mechanical parts and assemblies' ) ;
#263 = COORDINATED_UNIVERSAL_TIME_OFFSET ( 10, 0, .AHEAD. ) ;
#264 = AXIS2_PLACEMENT_3D ( 'NONE', #356, #268, #385 ) ;
#265 = ORGANIZATION ( 'NAUO-ORG156', 'UNSPECIFIED', 'UNSPECIFIED' ) ;
#266 = SHAPE_DEFINITION_REPRESENTATION ( #161, #94 ) ;
#267 = COORDINATED_UNIVERSAL_TIME_OFFSET ( 10, 0, .AHEAD. ) ;
#268 = DIRECTION ( 'NONE',  ( 0.000000000000000000, 0.000000000000000000, 1.000000000000000000 ) ) ;
#269 = ITEM_DEFINED_TRANSFORMATION ( 'NONE', 'NONE', #339,  #264 ) ;
#270 = APPROVAL_DATE_TIME ( #325, #330 ) ;
#271 = LOCAL_TIME ( 18, 49, 56.00000000000000000, #78 ) ;
#272 = DIRECTION ( 'NONE',  ( 4.890937612370273194E-29, -3.155443620884047222E-30, 0.9999999999999997780 ) ) ;
#273 = DATE_AND_TIME ( #147, #374 ) ;
#274 = APPROVAL ( #348, 'Coincident' ) ;
#275 = LOCAL_TIME ( 18, 49, 56.00000000000000000, #21 ) ;
#276 = APPROVAL_DATE_TIME ( #42, #12 ) ;
#277 = DESIGN_CONTEXT ( 'detailed design', #39, 'design' ) ;
#278 = COORDINATED_UNIVERSAL_TIME_OFFSET ( 10, 0, .AHEAD. ) ;
#279 = CC_DESIGN_PERSON_AND_ORGANIZATION_ASSIGNMENT ( #66, #302, ( #168 ) ) ;
#280 = CALENDAR_DATE ( 2026, 22, 6 ) ;
#281 =( REPRESENTATION_RELATIONSHIP ('NONE','NONE', #79, #94 ) REPRESENTATION_RELATIONSHIP_WITH_TRANSFORMATION ( #89 )SHAPE_REPRESENTATION_RELATIONSHIP( ) );
#282 = PERSON_AND_ORGANIZATION ( #18446744073709551615, #18446744073709551615 ) ;
#283 = LOCAL_TIME ( 18, 49, 56.00000000000000000, #211 ) ;
#284 = PRODUCT_RELATED_PRODUCT_CATEGORY ( 'detail', '', ( #228 ) ) ;
#285 = PERSON_AND_ORGANIZATION_ROLE ( 'classification_officer' ) ;
#286 = APPROVAL_ROLE ( '' ) ;
#287 = DATE_AND_TIME ( #16, #37 ) ;
#288 = CC_DESIGN_APPROVAL ( #259, ( #11 ) ) ;
#289 = PROPERTY_DEFINITION ('external definition','', #323 ) ;
#290 = APPROVAL_DATE_TIME ( #273, #319 ) ;
#291 = PERSON_AND_ORGANIZATION ( #18446744073709551615, #18446744073709551615 ) ;
#292 = DATE_AND_TIME ( #380, #349 ) ;
#293 =( LENGTH_UNIT ( ) NAMED_UNIT ( * ) SI_UNIT ( .MILLI., .METRE. ) );
#294 = OBJECT_ROLE ('mandatory',$ ) ;
#295 = APPROVAL_STATUS ( 'not_yet_approved' ) ;
#296 = UNCERTAINTY_MEASURE_WITH_UNIT (LENGTH_MEASURE( 1.000000000000000082E-05 ), #5, 'distance_accuracy_value', 'NONE');
#297 = CALENDAR_DATE ( 2026, 22, 6 ) ;
#298 = PERSON_AND_ORGANIZATION ( #210, #333 ) ;
#299 = PERSON_AND_ORGANIZATION ( #18446744073709551615, #18446744073709551615 ) ;
#300 = DOCUMENT_TYPE ( 'geometry' ) ;
#301 = CC_DESIGN_SECURITY_CLASSIFICATION ( #367, ( #23 ) ) ;
#302 = PERSON_AND_ORGANIZATION_ROLE ( 'creator' ) ;
#303 = APPLIED_DOCUMENT_REFERENCE ( #364,'',( #62) ) ;
#304 = LOCAL_TIME ( 18, 49, 56.00000000000000000, #337 ) ;
#305 = DATE_TIME_ROLE ( 'creation_date' ) ;
#306 = APPROVAL_DATE_TIME ( #361, #347 ) ;
#307 = ROLE_ASSOCIATION ( #294, #369 ) ;
#308 = COORDINATED_UNIVERSAL_TIME_OFFSET ( 10, 0, .AHEAD. ) ;
#309 = PROPERTY_DEFINITION_REPRESENTATION ( #375, #382 ) ;
#310 = PERSON_AND_ORGANIZATION ( #18446744073709551615, #18446744073709551615 ) ;
#311 = LOCAL_TIME ( 18, 49, 56.00000000000000000, #260 ) ;
#312 = PERSON_AND_ORGANIZATION ( #377, #125 ) ;
#313 = APPLICATION_PROTOCOL_DEFINITION ( 'international standard', 'config_control_design', 1994, #357 ) ;
#314 = CC_DESIGN_PERSON_AND_ORGANIZATION_ASSIGNMENT ( #106, #158, ( #107 ) ) ;
#315 = PERSON_AND_ORGANIZATION ( #18446744073709551615, #18446744073709551615 ) ;
#316 = PRODUCT_DEFINITION_SHAPE ( 'NONE', 'NONE',  #389 ) ;
#317 = APPROVAL_ROLE ( '' ) ;
#318 = CC_DESIGN_APPROVAL ( #342, ( #62 ) ) ;
#319 = APPROVAL ( #358, 'Coincident' ) ;
#320 = APPROVAL_DATE_TIME ( #376, #342 ) ;
#321 = DOCUMENT_TYPE ( 'geometry' ) ;
#322 = APPROVAL_DATE_TIME ( #200, #98 ) ;
#323 = DOCUMENT_FILE ( '6461079856.step.STEP' , '', '', #321, '' ,$ ) ;
#324 = CC_DESIGN_APPROVAL ( #274, ( #107 ) ) ;
#325 = DATE_AND_TIME ( #355, #31 ) ;
#326 = CC_DESIGN_DATE_AND_TIME_ASSIGNMENT ( #71, #214, ( #30 ) ) ;
#327 = PERSON_AND_ORGANIZATION_ROLE ( 'classification_officer' ) ;
#328 = CARTESIAN_POINT ( 'NONE',  ( 0.000000000000000000, 0.000000000000000000, 0.000000000000000000 ) ) ;
#329 = CALENDAR_DATE ( 2026, 22, 6 ) ;
#330 = APPROVAL ( #117, 'Coincident' ) ;
#331 = CALENDAR_DATE ( 2026, 22, 6 ) ;
#332 = ITEM_DEFINED_TRANSFORMATION ( 'NONE', 'NONE', #216,  #264 ) ;
#333 = ORGANIZATION ( 'NAUO-ORG157', 'UNSPECIFIED', 'UNSPECIFIED' ) ;
#334 = PERSON_AND_ORGANIZATION_ROLE ( 'creator' ) ;
#335 = APPROVAL_STATUS ( 'not_yet_approved' ) ;
#336 = OBJECT_ROLE ('mandatory',$ ) ;
#337 = COORDINATED_UNIVERSAL_TIME_OFFSET ( 10, 0, .AHEAD. ) ;
#338 = APPROVAL_ROLE ( '' ) ;
#339 = AXIS2_PLACEMENT_3D ( 'NONE', #2, #199, #25 ) ;
#340 = APPROVAL_PERSON_ORGANIZATION ( #145, #330, #177 ) ;
#341 = PERSON_AND_ORGANIZATION ( #18446744073709551615, #18446744073709551615 ) ;
#342 = APPROVAL ( #20, 'Coincident' ) ;
#343 = PRODUCT ( '6461079856.step', '6461079856.step', '', ( #129 ) ) ;
#344 = PERSON_AND_ORGANIZATION ( #18446744073709551615, #18446744073709551615 ) ;
#345 = IDENTIFICATION_ROLE ( 'external document id and location', $) ;
#346 = PRODUCT_DEFINITION_SHAPE ( 'NONE', 'NONE',  #390 ) ;
#347 = APPROVAL ( #335, 'Coincident' ) ;
#348 = APPROVAL_STATUS ( 'not_yet_approved' ) ;
#349 = LOCAL_TIME ( 18, 49, 56.00000000000000000, #58 ) ;
#350 = PRODUCT_RELATED_PRODUCT_CATEGORY ( 'detail', '', ( #343 ) ) ;
#351 = CALENDAR_DATE ( 2026, 22, 6 ) ;
#352 = CC_DESIGN_DATE_AND_TIME_ASSIGNMENT ( #134, #111, ( #11 ) ) ;
#353 = DATE_AND_TIME ( #87, #18 ) ;
#354 = LOCAL_TIME ( 18, 49, 56.00000000000000000, #213 ) ;
#355 = CALENDAR_DATE ( 2026, 22, 6 ) ;
#356 = CARTESIAN_POINT ( 'NONE',  ( 0.000000000000000000, 0.000000000000000000, 0.000000000000000000 ) ) ;
#357 = APPLICATION_CONTEXT ( 'configuration controlled 3d designs of mechanical parts and assemblies' ) ;
#358 = APPROVAL_STATUS ( 'not_yet_approved' ) ;
#359 = APPROVAL_PERSON_ORGANIZATION ( #38, #176, #96 ) ;
#360 = CC_DESIGN_SECURITY_CLASSIFICATION ( #30, ( #390 ) ) ;
#361 = DATE_AND_TIME ( #329, #130 ) ;
#362 = PROPERTY_DEFINITION_REPRESENTATION ( #289, #382 ) ;
#363 = PROPERTY_DEFINITION ('document property','', #364 ) ;
#364 = DOCUMENT_FILE ( '6534431024.step.STEP' , '', '', #300, '' ,$ ) ;
#365 = CALENDAR_DATE ( 2026, 22, 6 ) ;
#366 =( REPRESENTATION_RELATIONSHIP ('NONE','NONE', #79, #382 ) REPRESENTATION_RELATIONSHIP_WITH_TRANSFORMATION ( #269 )SHAPE_REPRESENTATION_RELATIONSHIP( ) );
#367 = SECURITY_CLASSIFICATION ( '', '', #190 ) ;
#368 = PERSON_AND_ORGANIZATION ( #18446744073709551615, #18446744073709551615 ) ;
#369 = APPLIED_DOCUMENT_REFERENCE ( #1,'',( #201) ) ;
#370 = APPROVAL_STATUS ( 'not_yet_approved' ) ;
#371 = CALENDAR_DATE ( 2026, 22, 6 ) ;
#372 = CC_DESIGN_PERSON_AND_ORGANIZATION_ASSIGNMENT ( #315, #166, ( #367 ) ) ;
#373 = PERSON_AND_ORGANIZATION ( #18446744073709551615, #18446744073709551615 ) ;
#374 = LOCAL_TIME ( 18, 49, 56.00000000000000000, #32 ) ;
#375 = PROPERTY_DEFINITION ('external definition','', #1 ) ;
#376 = DATE_AND_TIME ( #164, #275 ) ;
#377 = PERSON ( 'NAUO-PER158', 'UNSPECIFIED', 'UNSPECIFIED', ('UNSPECIFIED'), ('UNSPECIFIED'), ('UNSPECIFIED') ) ;
#378 = DATE_TIME_ROLE ( 'creation_date' ) ;
#379 = CC_DESIGN_PERSON_AND_ORGANIZATION_ASSIGNMENT ( #298, #27, ( #88 ) ) ;
#380 = CALENDAR_DATE ( 2026, 22, 6 ) ;
#381 = CC_DESIGN_APPROVAL ( #12, ( #186 ) ) ;
#382 = SHAPE_REPRESENTATION ( '6461079856.step', ( #264 ), #92 ) ;
#383 = CC_DESIGN_DATE_AND_TIME_ASSIGNMENT ( #128, #178, ( #186 ) ) ;
#384 = APPROVAL_ROLE ( '' ) ;
#385 = DIRECTION ( 'NONE',  ( 1.000000000000000000, 0.000000000000000000, 0.000000000000000000 ) ) ;
#386 = APPROVAL_STATUS ( 'not_yet_approved' ) ;
#387 = APPLIED_EXTERNAL_IDENTIFICATION_ASSIGNMENT ( '6461079856.step.STEP' , #101, #218,( #323) ) ;
#388 = NEXT_ASSEMBLY_USAGE_OCCURRENCE ( 'NAUO156', ' ', ' ', #239, #62, $ ) ;
#389 = NEXT_ASSEMBLY_USAGE_OCCURRENCE ( 'NAUO157', ' ', ' ', #239, #201, $ ) ;
#390 = NEXT_ASSEMBLY_USAGE_OCCURRENCE ( 'NAUO158', ' ', ' ', #239, #201, $ ) ;
ENDSEC;
END-ISO-10303-21;
