ISO-10303-21;
HEADER;
FILE_DESCRIPTION (( 'STEP AP203' ),
    '1' );
FILE_NAME ('R15.step.STEP',
    '2026-06-22T08:49:56',
    ( 'localuser' ),
    ( '' ),
    'SwSTEP 2.0',
    'SolidWorks 2025',
    '' );
FILE_SCHEMA (( 'CONFIG_CONTROL_DESIGN' ));
ENDSEC;

DATA;
#1 = PERSON_AND_ORGANIZATION_ROLE ( 'design_supplier' ) ;
#2 = CC_DESIGN_PERSON_AND_ORGANIZATION_ASSIGNMENT ( #16, #261, ( #361 ) ) ;
#3 = CALENDAR_DATE ( 2026, 22, 6 ) ;
#4 = DIRECTION ( 'NONE',  ( 1.000000000000000000, 0.000000000000000000, 0.000000000000000000 ) ) ;
#5 = DIRECTION ( 'NONE',  ( 1.000000000000000222, -1.092455418989176591E-28, 4.890937612370273194E-29 ) ) ;
#6 = APPROVAL_PERSON_ORGANIZATION ( #162, #195, #329 ) ;
#7 = PROPERTY_DEFINITION_REPRESENTATION ( #77, #303 ) ;
#8 = APPROVAL_DATE_TIME ( #95, #133 ) ;
#9 = CC_DESIGN_DATE_AND_TIME_ASSIGNMENT ( #35, #13, ( #197 ) ) ;
#10 = APPROVAL_STATUS ( 'not_yet_approved' ) ;
#11 = CC_DESIGN_APPROVAL ( #182, ( #83 ) ) ;
#12 = APPROVAL_PERSON_ORGANIZATION ( #55, #17, #240 ) ;
#13 = DATE_TIME_ROLE ( 'classification_date' ) ;
#14 = DATE_AND_TIME ( #372, #271 ) ;
#15 = PRODUCT_DEFINITION_SHAPE ( 'NONE', 'NONE',  #389 ) ;
#16 = PERSON_AND_ORGANIZATION ( #18446744073709551615, #18446744073709551615 ) ;
#17 = APPROVAL ( #148, 'UNKNOWN' ) ;
#18 = APPROVAL_PERSON_ORGANIZATION ( #232, #283, #349 ) ;
#19 = CALENDAR_DATE ( 2026, 22, 6 ) ;
#20 = APPLICATION_CONTEXT ( 'configuration controlled 3d designs of mechanical parts and assemblies' ) ;
#21 = CALENDAR_DATE ( 2026, 22, 6 ) ;
#22 = DATE_AND_TIME ( #237, #301 ) ;
#23 = LOCAL_TIME ( 18, 49, 56.00000000000000000, #272 ) ;
#24 = CALENDAR_DATE ( 2026, 22, 6 ) ;
#25 = CC_DESIGN_PERSON_AND_ORGANIZATION_ASSIGNMENT ( #259, #81, ( #168 ) ) ;
#26 = PERSON_AND_ORGANIZATION ( #18446744073709551615, #18446744073709551615 ) ;
#27 = APPROVAL_STATUS ( 'not_yet_approved' ) ;
#28 = AXIS2_PLACEMENT_3D ( 'NONE', #358, #352, #310 ) ;
#29 = APPROVAL ( #314, 'Coincident' ) ;
#30 = PROPERTY_DEFINITION_REPRESENTATION ( #252, #293 ) ;
#31 = DIRECTION ( 'NONE',  ( 0.000000000000000000, 0.000000000000000000, 1.000000000000000000 ) ) ;
#32 = CC_DESIGN_PERSON_AND_ORGANIZATION_ASSIGNMENT ( #247, #321, ( #101 ) ) ;
#33 =( NAMED_UNIT ( * ) PLANE_ANGLE_UNIT ( ) SI_UNIT ( $, .RADIAN. ) );
#34 = ITEM_DEFINED_TRANSFORMATION ( 'NONE', 'NONE', #275,  #28 ) ;
#35 = DATE_AND_TIME ( #194, #369 ) ;
#36 = LOCAL_TIME ( 18, 49, 56.00000000000000000, #346 ) ;
#37 = DATE_AND_TIME ( #307, #132 ) ;
#38 =( REPRESENTATION_RELATIONSHIP ('NONE','NONE', #228, #303 ) REPRESENTATION_RELATIONSHIP_WITH_TRANSFORMATION ( #34 )SHAPE_REPRESENTATION_RELATIONSHIP( ) );
#39 = PROPERTY_DEFINITION_REPRESENTATION ( #341, #303 ) ;
#40 = CALENDAR_DATE ( 2026, 22, 6 ) ;
#41 = PERSON ( 'NAUO-PER116', 'UNSPECIFIED', 'UNSPECIFIED', ('UNSPECIFIED'), ('UNSPECIFIED'), ('UNSPECIFIED') ) ;
#42 = CALENDAR_DATE ( 2026, 22, 6 ) ;
#43 = CC_DESIGN_APPROVAL ( #280, ( #260 ) ) ;
#44 = CALENDAR_DATE ( 2026, 22, 6 ) ;
#45 = APPROVAL_DATE_TIME ( #288, #283 ) ;
#46 = PRODUCT_DEFINITION_SHAPE ( 'NONE', 'NONE',  #390 ) ;
#47 = APPLICATION_PROTOCOL_DEFINITION ( 'international standard', 'config_control_design', 1994, #186 ) ;
#48 = PRODUCT_DEFINITION_SHAPE ( 'NONE', 'NONE',  #388 ) ;
#49 = LOCAL_TIME ( 18, 49, 56.00000000000000000, #75 ) ;
#50 = COORDINATED_UNIVERSAL_TIME_OFFSET ( 10, 0, .AHEAD. ) ;
#51 = DATE_TIME_ROLE ( 'classification_date' ) ;
#52 = COORDINATED_UNIVERSAL_TIME_OFFSET ( 10, 0, .AHEAD. ) ;
#53 = CALENDAR_DATE ( 2026, 22, 6 ) ;
#54 = SECURITY_CLASSIFICATION ( '', '', #207 ) ;
#55 = PERSON_AND_ORGANIZATION ( #276, #315 ) ;
#56 = APPLICATION_PROTOCOL_DEFINITION ( 'international standard', 'config_control_design', 1994, #204 ) ;
#57 = EXTERNAL_SOURCE (IDENTIFIER('') ) ;
#58 = CONTEXT_DEPENDENT_SHAPE_REPRESENTATION ( #316, #15 ) ;
#59 = DESIGN_CONTEXT ( 'detailed design', #282, 'design' ) ;
#60 = DATE_AND_TIME ( #353, #320 ) ;
#61 = PRODUCT_DEFINITION_FORMATION_WITH_SPECIFIED_SOURCE ( 'Symmetric', '', #258, .NOT_KNOWN. ) ;
#62 = LOCAL_TIME ( 18, 49, 56.00000000000000000, #169 ) ;
#63 = CC_DESIGN_PERSON_AND_ORGANIZATION_ASSIGNMENT ( #219, #330, ( #61 ) ) ;
#64 = DATE_AND_TIME ( #134, #198 ) ;
#65 = SECURITY_CLASSIFICATION_LEVEL ( 'unclassified' ) ;
#66 = APPROVAL_STATUS ( 'not_yet_approved' ) ;
#67 = APPROVAL ( #238, 'Coincident' ) ;
#68 = SECURITY_CLASSIFICATION ( '', '', #364 ) ;
#69 = DOCUMENT_FILE ( '6461082896.step.STEP' , '', '', #163, '' ,$ ) ;
#70 = PERSON_AND_ORGANIZATION ( #18446744073709551615, #18446744073709551615 ) ;
#71 = COORDINATED_UNIVERSAL_TIME_OFFSET ( 10, 0, .AHEAD. ) ;
#72 = CC_DESIGN_PERSON_AND_ORGANIZATION_ASSIGNMENT ( #136, #206, ( #187 ) ) ;
#73 = APPROVAL_ROLE ( '' ) ;
#74 = APPROVAL_PERSON_ORGANIZATION ( #229, #175, #184 ) ;
#75 = COORDINATED_UNIVERSAL_TIME_OFFSET ( 10, 0, .AHEAD. ) ;
#76 = PERSON_AND_ORGANIZATION ( #18446744073709551615, #18446744073709551615 ) ;
#77 = PROPERTY_DEFINITION ('document property','', #69 ) ;
#78 = PERSON_AND_ORGANIZATION ( #18446744073709551615, #18446744073709551615 ) ;
#79 = IDENTIFICATION_ROLE ( 'external document id and location', $) ;
#80 = APPROVAL_PERSON_ORGANIZATION ( #308, #182, #370 ) ;
#81 = PERSON_AND_ORGANIZATION_ROLE ( 'creator' ) ;
#82 = PROPERTY_DEFINITION_REPRESENTATION ( #363, #293 ) ;
#83 = PRODUCT_DEFINITION ( 'General', '', #61, #59 ) ;
#84 = DATE_AND_TIME ( #188, #114 ) ;
#85 = AXIS2_PLACEMENT_3D ( 'NONE', #323, #185, #4 ) ;
#86 = PERSON_AND_ORGANIZATION ( #18446744073709551615, #18446744073709551615 ) ;
#87 = CC_DESIGN_PERSON_AND_ORGANIZATION_ASSIGNMENT ( #162, #157, ( #68 ) ) ;
#88 = EXTERNAL_SOURCE (IDENTIFIER('') ) ;
#89 = SECURITY_CLASSIFICATION_LEVEL ( 'unclassified' ) ;
#90 = COORDINATED_UNIVERSAL_TIME_OFFSET ( 10, 0, .AHEAD. ) ;
#91 =( LENGTH_UNIT ( ) NAMED_UNIT ( * ) SI_UNIT ( .MILLI., .METRE. ) );
#92 = COORDINATED_UNIVERSAL_TIME_OFFSET ( 10, 0, .AHEAD. ) ;
#93 = LOCAL_TIME ( 18, 49, 56.00000000000000000, #161 ) ;
#94 = SECURITY_CLASSIFICATION ( '', '', #116 ) ;
#95 = DATE_AND_TIME ( #130, #265 ) ;
#96 = APPROVAL ( #311, 'Coincident' ) ;
#97 = DATE_TIME_ROLE ( 'classification_date' ) ;
#98 = PERSON_AND_ORGANIZATION ( #18446744073709551615, #18446744073709551615 ) ;
#99 = DIRECTION ( 'NONE',  ( 4.890937612370273194E-29, -3.155443620884047222E-30, 0.9999999999999997780 ) ) ;
#100 = IDENTIFICATION_ROLE ( 'external document id and location', $) ;
#101 = PRODUCT_DEFINITION_FORMATION_WITH_SPECIFIED_SOURCE ( 'Symmetric', '', #233, .NOT_KNOWN. ) ;
#102 = APPROVAL_DATE_TIME ( #64, #195 ) ;
#103 = COORDINATED_UNIVERSAL_TIME_OFFSET ( 10, 0, .AHEAD. ) ;
#104 = CARTESIAN_POINT ( 'NONE',  ( 18.84999948117200930, 5.499996459961000284, -2.058321952820000078 ) ) ;
#105 = CC_DESIGN_PERSON_AND_ORGANIZATION_ASSIGNMENT ( #386, #1, ( #101 ) ) ;
#106 = DATE_TIME_ROLE ( 'creation_date' ) ;
#107 = APPROVAL_PERSON_ORGANIZATION ( #286, #109, #135 ) ;
#108 = PERSON_AND_ORGANIZATION_ROLE ( 'creator' ) ;
#109 = APPROVAL ( #66, 'Coincident' ) ;
#110 = PRODUCT ( '6461082896.step', '6461082896.step', '', ( #199 ) ) ;
#111 = PERSON_AND_ORGANIZATION_ROLE ( 'creator' ) ;
#112 = APPROVAL_ROLE ( '' ) ;
#113 = APPROVAL_PERSON_ORGANIZATION ( #281, #133, #73 ) ;
#114 = LOCAL_TIME ( 18, 49, 56.00000000000000000, #52 ) ;
#115 = APPROVAL_DATE_TIME ( #141, #29 ) ;
#116 = SECURITY_CLASSIFICATION_LEVEL ( 'unclassified' ) ;
#117 = CONTEXT_DEPENDENT_SHAPE_REPRESENTATION ( #300, #48 ) ;
#118 =( GEOMETRIC_REPRESENTATION_CONTEXT ( 3 ) GLOBAL_UNCERTAINTY_ASSIGNED_CONTEXT ( ( #183 ) ) GLOBAL_UNIT_ASSIGNED_CONTEXT ( ( #91, #180, #241 ) ) REPRESENTATION_CONTEXT ( 'NONE', 'WORKASPACE' ) );
#119 = PERSON_AND_ORGANIZATION ( #41, #166 ) ;
#120 = LOCAL_TIME ( 18, 49, 56.00000000000000000, #92 ) ;
#121 = OBJECT_ROLE ('mandatory',$ ) ;
#122 = CC_DESIGN_PERSON_AND_ORGANIZATION_ASSIGNMENT ( #98, #129, ( #61 ) ) ;
#123 = PERSON_AND_ORGANIZATION_ROLE ( 'classification_officer' ) ;
#124 = APPROVAL_DATE_TIME ( #294, #280 ) ;
#125 =( NAMED_UNIT ( * ) PLANE_ANGLE_UNIT ( ) SI_UNIT ( $, .RADIAN. ) );
#126 = PERSON_AND_ORGANIZATION_ROLE ( 'design_owner' ) ;
#127 = CC_DESIGN_PERSON_AND_ORGANIZATION_ASSIGNMENT ( #70, #226, ( #197 ) ) ;
#128 = CC_DESIGN_APPROVAL ( #195, ( #68 ) ) ;
#129 = PERSON_AND_ORGANIZATION_ROLE ( 'creator' ) ;
#130 = CALENDAR_DATE ( 2026, 22, 6 ) ;
#131 = APPROVAL_STATUS ( 'not_yet_approved' ) ;
#132 = LOCAL_TIME ( 18, 49, 56.00000000000000000, #189 ) ;
#133 = APPROVAL ( #131, 'Coincident' ) ;
#134 = CALENDAR_DATE ( 2026, 22, 6 ) ;
#135 = APPROVAL_ROLE ( '' ) ;
#136 = PERSON_AND_ORGANIZATION ( #18446744073709551615, #18446744073709551615 ) ;
#137 = DATE_AND_TIME ( #173, #36 ) ;
#138 = CC_DESIGN_SECURITY_CLASSIFICATION ( #260, ( #388 ) ) ;
#139 = CC_DESIGN_DATE_AND_TIME_ASSIGNMENT ( #84, #176, ( #54 ) ) ;
#140 = PROPERTY_DEFINITION ('external definition','', #69 ) ;
#141 = DATE_AND_TIME ( #19, #306 ) ;
#142 = DOCUMENT_TYPE ( 'geometry' ) ;
#143 = CC_DESIGN_PERSON_AND_ORGANIZATION_ASSIGNMENT ( #55, #298, ( #94 ) ) ;
#144 = COORDINATED_UNIVERSAL_TIME_OFFSET ( 10, 0, .AHEAD. ) ;
#145 = CC_DESIGN_PERSON_AND_ORGANIZATION_ASSIGNMENT ( #174, #111, ( #187 ) ) ;
#146 = APPLICATION_PROTOCOL_DEFINITION ( 'international standard', 'config_control_design', 1994, #20 ) ;
#147 = LOCAL_TIME ( 18, 49, 56.00000000000000000, #246 ) ;
#148 = APPROVAL_STATUS ( 'not_yet_approved' ) ;
#149 = DATE_AND_TIME ( #24, #190 ) ;
#150 = CALENDAR_DATE ( 2026, 22, 6 ) ;
#151 = AXIS2_PLACEMENT_3D ( 'NONE', #270, #159, #156 ) ;
#152 = COORDINATED_UNIVERSAL_TIME_OFFSET ( 10, 0, .AHEAD. ) ;
#153 = DATE_AND_TIME ( #150, #23 ) ;
#154 = CC_DESIGN_DATE_AND_TIME_ASSIGNMENT ( #357, #243, ( #260 ) ) ;
#155 = CC_DESIGN_PERSON_AND_ORGANIZATION_ASSIGNMENT ( #208, #126, ( #258 ) ) ;
#156 = DIRECTION ( 'NONE',  ( 1.000000000000000222, -1.092455418989176591E-28, 4.890937612370273194E-29 ) ) ;
#157 = PERSON_AND_ORGANIZATION_ROLE ( 'classification_officer' ) ;
#158 = AXIS2_PLACEMENT_3D ( 'NONE', #104, #253, #164 ) ;
#159 = DIRECTION ( 'NONE',  ( 4.890937612370273194E-29, -3.155443620884047222E-30, 0.9999999999999997780 ) ) ;
#160 = APPLIED_EXTERNAL_IDENTIFICATION_ASSIGNMENT ( '6461083056.step.STEP' , #79, #344,( #279) ) ;
#161 = COORDINATED_UNIVERSAL_TIME_OFFSET ( 10, 0, .AHEAD. ) ;
#162 = PERSON_AND_ORGANIZATION ( #382, #172 ) ;
#163 = DOCUMENT_TYPE ( 'geometry' ) ;
#164 = DIRECTION ( 'NONE',  ( 1.000000000000000222, -1.092455418989176591E-28, 4.890937612370273194E-29 ) ) ;
#165 =( NAMED_UNIT ( * ) SI_UNIT ( $, .STERADIAN. ) SOLID_ANGLE_UNIT ( ) );
#166 = ORGANIZATION ( 'NAUO-ORG116', 'UNSPECIFIED', 'UNSPECIFIED' ) ;
#167 = APPROVAL_DATE_TIME ( #377, #255 ) ;
#168 = PRODUCT_DEFINITION ( 'General', '', #101, #325 ) ;
#169 = COORDINATED_UNIVERSAL_TIME_OFFSET ( 10, 0, .AHEAD. ) ;
#170 = APPLICATION_PROTOCOL_DEFINITION ( 'international standard', 'config_control_design', 1994, #359 ) ;
#171 = PRODUCT_DEFINITION_SHAPE ( 'NONE', 'NONE',  #168 ) ;
#172 = ORGANIZATION ( 'NAUO-ORG118', 'UNSPECIFIED', 'UNSPECIFIED' ) ;
#173 = CALENDAR_DATE ( 2026, 22, 6 ) ;
#174 = PERSON_AND_ORGANIZATION ( #18446744073709551615, #18446744073709551615 ) ;
#175 = APPROVAL ( #297, 'Coincident' ) ;
#176 = DATE_TIME_ROLE ( 'classification_date' ) ;
#177 = UNCERTAINTY_MEASURE_WITH_UNIT (LENGTH_MEASURE( 1.000000000000000082E-05 ), #244, 'distance_accuracy_value', 'NONE');
#178 = LOCAL_TIME ( 18, 49, 56.00000000000000000, #50 ) ;
#179 = ROLE_ASSOCIATION ( #121, #213 ) ;
#180 =( NAMED_UNIT ( * ) PLANE_ANGLE_UNIT ( ) SI_UNIT ( $, .RADIAN. ) );
#181 = DATE_TIME_ROLE ( 'classification_date' ) ;
#182 = APPROVAL ( #10, 'Coincident' ) ;
#183 = UNCERTAINTY_MEASURE_WITH_UNIT (LENGTH_MEASURE( 1.000000000000000082E-05 ), #91, 'distance_accuracy_value', 'NONE');
#184 = APPROVAL_ROLE ( '' ) ;
#185 = DIRECTION ( 'NONE',  ( 0.000000000000000000, 0.000000000000000000, 1.000000000000000000 ) ) ;
#186 = APPLICATION_CONTEXT ( 'configuration controlled 3d designs of mechanical parts and assemblies' ) ;
#187 = PRODUCT_DEFINITION_FORMATION_WITH_SPECIFIED_SOURCE ( 'Symmetric', '', #110, .NOT_KNOWN. ) ;
#188 = CALENDAR_DATE ( 2026, 22, 6 ) ;
#189 = COORDINATED_UNIVERSAL_TIME_OFFSET ( 10, 0, .AHEAD. ) ;
#190 = LOCAL_TIME ( 18, 49, 56.00000000000000000, #350 ) ;
#191 = PROPERTY_DEFINITION_REPRESENTATION ( #376, #303 ) ;
#192 = APPLICATION_PROTOCOL_DEFINITION ( 'international standard', 'config_control_design', 1994, #282 ) ;
#193 = PRODUCT_DEFINITION ( 'General', '', #187, #351 ) ;
#194 = CALENDAR_DATE ( 2026, 22, 6 ) ;
#195 = APPROVAL ( #336, 'UNKNOWN' ) ;
#196 = PERSON_AND_ORGANIZATION ( #18446744073709551615, #18446744073709551615 ) ;
#197 = SECURITY_CLASSIFICATION ( '', '', #65 ) ;
#198 = LOCAL_TIME ( 18, 49, 56.00000000000000000, #218 ) ;
#199 = MECHANICAL_CONTEXT ( 'NONE', #186, 'mechanical' ) ;
#200 = PRODUCT_DEFINITION_SHAPE ( 'NONE', 'NONE',  #83 ) ;
#201 = APPROVAL_STATUS ( 'not_yet_approved' ) ;
#202 = PERSON_AND_ORGANIZATION ( #18446744073709551615, #18446744073709551615 ) ;
#203 = APPROVAL_PERSON_ORGANIZATION ( #202, #96, #287 ) ;
#204 = APPLICATION_CONTEXT ( 'configuration controlled 3d designs of mechanical parts and assemblies' ) ;
#205 = CC_DESIGN_APPROVAL ( #175, ( #101 ) ) ;
#206 = PERSON_AND_ORGANIZATION_ROLE ( 'design_supplier' ) ;
#207 = SECURITY_CLASSIFICATION_LEVEL ( 'unclassified' ) ;
#208 = PERSON_AND_ORGANIZATION ( #18446744073709551615, #18446744073709551615 ) ;
#209 = CC_DESIGN_APPROVAL ( #255, ( #361 ) ) ;
#210 = APPROVAL_DATE_TIME ( #60, #67 ) ;
#211 = PERSON_AND_ORGANIZATION_ROLE ( 'classification_officer' ) ;
#212 = CC_DESIGN_DATE_AND_TIME_ASSIGNMENT ( #305, #97, ( #68 ) ) ;
#213 = APPLIED_DOCUMENT_REFERENCE ( #279,'',( #168) ) ;
#214 = MECHANICAL_CONTEXT ( 'NONE', #204, 'mechanical' ) ;
#215 = CC_DESIGN_PERSON_AND_ORGANIZATION_ASSIGNMENT ( #371, #223, ( #83 ) ) ;
#216 = CC_DESIGN_APPROVAL ( #29, ( #193 ) ) ;
#217 = CC_DESIGN_DATE_AND_TIME_ASSIGNMENT ( #322, #181, ( #94 ) ) ;
#218 = COORDINATED_UNIVERSAL_TIME_OFFSET ( 10, 0, .AHEAD. ) ;
#219 = PERSON_AND_ORGANIZATION ( #18446744073709551615, #18446744073709551615 ) ;
#220 = APPLIED_DOCUMENT_REFERENCE ( #69,'',( #193) ) ;
#221 = DATE_AND_TIME ( #365, #230 ) ;
#222 = APPLIED_DOCUMENT_REFERENCE ( #324,'',( #193) ) ;
#223 = PERSON_AND_ORGANIZATION_ROLE ( 'creator' ) ;
#224 = APPROVAL_PERSON_ORGANIZATION ( #119, #280, #302 ) ;
#225 = IDENTIFICATION_ROLE ( 'external document id and location', $) ;
#226 = PERSON_AND_ORGANIZATION_ROLE ( 'classification_officer' ) ;
#227 = DATE_AND_TIME ( #40, #93 ) ;
#228 = SHAPE_REPRESENTATION ( 'R15.step', ( #368, #151, #158, #275 ), #284 ) ;
#229 = PERSON_AND_ORGANIZATION ( #18446744073709551615, #18446744073709551615 ) ;
#230 = LOCAL_TIME ( 18, 49, 56.00000000000000000, #251 ) ;
#231 = PRODUCT_RELATED_PRODUCT_CATEGORY ( 'detail', '', ( #233 ) ) ;
#232 = PERSON_AND_ORGANIZATION ( #18446744073709551615, #18446744073709551615 ) ;
#233 = PRODUCT ( '6461083056.step', '6461083056.step', '', ( #257 ) ) ;
#234 = SHAPE_DEFINITION_REPRESENTATION ( #343, #303 ) ;
#235 = CALENDAR_DATE ( 2026, 22, 6 ) ;
#236 = CC_DESIGN_APPROVAL ( #283, ( #187 ) ) ;
#237 = CALENDAR_DATE ( 2026, 22, 6 ) ;
#238 = APPROVAL_STATUS ( 'not_yet_approved' ) ;
#239 = CC_DESIGN_PERSON_AND_ORGANIZATION_ASSIGNMENT ( #345, #313, ( #233 ) ) ;
#240 = APPROVAL_ROLE ( '' ) ;
#241 =( NAMED_UNIT ( * ) SI_UNIT ( $, .STERADIAN. ) SOLID_ANGLE_UNIT ( ) );
#242 = APPLIED_EXTERNAL_IDENTIFICATION_ASSIGNMENT ( '6461082896.step.STEP' , #225, #88,( #324) ) ;
#243 = DATE_TIME_ROLE ( 'classification_date' ) ;
#244 =( LENGTH_UNIT ( ) NAMED_UNIT ( * ) SI_UNIT ( .MILLI., .METRE. ) );
#245 = APPLICATION_CONTEXT ( 'configuration controlled 3d designs of mechanical parts and assemblies' ) ;
#246 = COORDINATED_UNIVERSAL_TIME_OFFSET ( 10, 0, .AHEAD. ) ;
#247 = PERSON_AND_ORGANIZATION ( #18446744073709551615, #18446744073709551615 ) ;
#248 = CC_DESIGN_PERSON_AND_ORGANIZATION_ASSIGNMENT ( #86, #123, ( #54 ) ) ;
#249 = CC_DESIGN_APPROVAL ( #67, ( #54 ) ) ;
#250 = PROPERTY_DEFINITION_REPRESENTATION ( #140, #303 ) ;
#251 = COORDINATED_UNIVERSAL_TIME_OFFSET ( 10, 0, .AHEAD. ) ;
#252 = PROPERTY_DEFINITION ('external definition','', #279 ) ;
#253 = DIRECTION ( 'NONE',  ( 4.890937612370273194E-29, -3.155443620884047222E-30, 0.9999999999999997780 ) ) ;
#254 = APPROVAL_PERSON_ORGANIZATION ( #78, #29, #264 ) ;
#255 = APPROVAL ( #201, 'Coincident' ) ;
#256 = CARTESIAN_POINT ( 'NONE',  ( 19.84999948117200930, 5.499996459961002948, -2.058321952820000078 ) ) ;
#257 = MECHANICAL_CONTEXT ( 'NONE', #245, 'mechanical' ) ;
#258 = PRODUCT ( 'R15.step', 'R15.step', '', ( #214 ) ) ;
#259 = PERSON_AND_ORGANIZATION ( #18446744073709551615, #18446744073709551615 ) ;
#260 = SECURITY_CLASSIFICATION ( '', '', #89 ) ;
#261 = PERSON_AND_ORGANIZATION_ROLE ( 'classification_officer' ) ;
#262 = CC_DESIGN_PERSON_AND_ORGANIZATION_ASSIGNMENT ( #76, #375, ( #110 ) ) ;
#263 = PERSON_AND_ORGANIZATION ( #18446744073709551615, #18446744073709551615 ) ;
#264 = APPROVAL_ROLE ( '' ) ;
#265 = LOCAL_TIME ( 18, 49, 56.00000000000000000, #103 ) ;
#266 = CC_DESIGN_APPROVAL ( #17, ( #94 ) ) ;
#267 = COORDINATED_UNIVERSAL_TIME_OFFSET ( 10, 0, .AHEAD. ) ;
#268 = APPROVAL_DATE_TIME ( #149, #17 ) ;
#269 = APPROVAL_DATE_TIME ( #153, #175 ) ;
#270 = CARTESIAN_POINT ( 'NONE',  ( 19.34999948117200930, 5.499996459961000284, -2.058321952820000078 ) ) ;
#271 = LOCAL_TIME ( 18, 49, 56.00000000000000000, #317 ) ;
#272 = COORDINATED_UNIVERSAL_TIME_OFFSET ( 10, 0, .AHEAD. ) ;
#273 = ITEM_DEFINED_TRANSFORMATION ( 'NONE', 'NONE', #151,  #85 ) ;
#274 = DIRECTION ( 'NONE',  ( 1.000000000000000000, 0.000000000000000000, 0.000000000000000000 ) ) ;
#275 = AXIS2_PLACEMENT_3D ( 'NONE', #256, #99, #5 ) ;
#276 = PERSON ( 'NAUO-PER117', 'UNSPECIFIED', 'UNSPECIFIED', ('UNSPECIFIED'), ('UNSPECIFIED'), ('UNSPECIFIED') ) ;
#277 = APPROVAL_PERSON_ORGANIZATION ( #26, #67, #299 ) ;
#278 = ROLE_ASSOCIATION ( #295, #220 ) ;
#279 = DOCUMENT_FILE ( '6461083056.step.STEP' , '', '', #142, '' ,$ ) ;
#280 = APPROVAL ( #27, 'UNKNOWN' ) ;
#281 = PERSON_AND_ORGANIZATION ( #18446744073709551615, #18446744073709551615 ) ;
#282 = APPLICATION_CONTEXT ( 'configuration controlled 3d designs of mechanical parts and assemblies' ) ;
#283 = APPROVAL ( #340, 'Coincident' ) ;
#284 =( GEOMETRIC_REPRESENTATION_CONTEXT ( 3 ) GLOBAL_UNCERTAINTY_ASSIGNED_CONTEXT ( ( #356 ) ) GLOBAL_UNIT_ASSIGNED_CONTEXT ( ( #338, #33, #165 ) ) REPRESENTATION_CONTEXT ( 'NONE', 'WORKASPACE' ) );
#285 = CC_DESIGN_APPROVAL ( #96, ( #168 ) ) ;
#286 = PERSON_AND_ORGANIZATION ( #18446744073709551615, #18446744073709551615 ) ;
#287 = APPROVAL_ROLE ( '' ) ;
#288 = DATE_AND_TIME ( #21, #49 ) ;
#289 = SHAPE_DEFINITION_REPRESENTATION ( #200, #228 ) ;
#290 = CC_DESIGN_SECURITY_CLASSIFICATION ( #68, ( #390 ) ) ;
#291 = APPROVAL_DATE_TIME ( #137, #96 ) ;
#292 = APPLICATION_PROTOCOL_DEFINITION ( 'international standard', 'config_control_design', 1994, #245 ) ;
#293 = SHAPE_REPRESENTATION ( '6461083056.step', ( #85 ), #118 ) ;
#294 = DATE_AND_TIME ( #3, #354 ) ;
#295 = OBJECT_ROLE ('mandatory',$ ) ;
#296 = CC_DESIGN_SECURITY_CLASSIFICATION ( #361, ( #187 ) ) ;
#297 = APPROVAL_STATUS ( 'not_yet_approved' ) ;
#298 = PERSON_AND_ORGANIZATION_ROLE ( 'classification_officer' ) ;
#299 = APPROVAL_ROLE ( '' ) ;
#300 =( REPRESENTATION_RELATIONSHIP ('NONE','NONE', #228, #293 ) REPRESENTATION_RELATIONSHIP_WITH_TRANSFORMATION ( #273 )SHAPE_REPRESENTATION_RELATIONSHIP( ) );
#301 = LOCAL_TIME ( 18, 49, 56.00000000000000000, #380 ) ;
#302 = APPROVAL_ROLE ( '' ) ;
#303 = SHAPE_REPRESENTATION ( '6461082896.step', ( #28 ), #332 ) ;
#304 = PRODUCT_RELATED_PRODUCT_CATEGORY ( 'detail', '', ( #110 ) ) ;
#305 = DATE_AND_TIME ( #42, #120 ) ;
#306 = LOCAL_TIME ( 18, 49, 56.00000000000000000, #144 ) ;
#307 = CALENDAR_DATE ( 2026, 22, 6 ) ;
#308 = PERSON_AND_ORGANIZATION ( #18446744073709551615, #18446744073709551615 ) ;
#309 = CC_DESIGN_DATE_AND_TIME_ASSIGNMENT ( #14, #106, ( #168 ) ) ;
#310 = DIRECTION ( 'NONE',  ( 1.000000000000000000, 0.000000000000000000, 0.000000000000000000 ) ) ;
#311 = APPROVAL_STATUS ( 'not_yet_approved' ) ;
#312 = DATE_TIME_ROLE ( 'creation_date' ) ;
#313 = PERSON_AND_ORGANIZATION_ROLE ( 'design_owner' ) ;
#314 = APPROVAL_STATUS ( 'not_yet_approved' ) ;
#315 = ORGANIZATION ( 'NAUO-ORG117', 'UNSPECIFIED', 'UNSPECIFIED' ) ;
#316 =( REPRESENTATION_RELATIONSHIP ('NONE','NONE', #228, #303 ) REPRESENTATION_RELATIONSHIP_WITH_TRANSFORMATION ( #319 )SHAPE_REPRESENTATION_RELATIONSHIP( ) );
#317 = COORDINATED_UNIVERSAL_TIME_OFFSET ( 10, 0, .AHEAD. ) ;
#318 = CC_DESIGN_DATE_AND_TIME_ASSIGNMENT ( #378, #51, ( #361 ) ) ;
#319 = ITEM_DEFINED_TRANSFORMATION ( 'NONE', 'NONE', #158,  #28 ) ;
#320 = LOCAL_TIME ( 18, 49, 56.00000000000000000, #152 ) ;
#321 = PERSON_AND_ORGANIZATION_ROLE ( 'creator' ) ;
#322 = DATE_AND_TIME ( #383, #374 ) ;
#323 = CARTESIAN_POINT ( 'NONE',  ( 0.000000000000000000, 0.000000000000000000, 0.000000000000000000 ) ) ;
#324 = DOCUMENT_FILE ( '6461082896.step.STEP' , '', '', #337, '' ,$ ) ;
#325 = DESIGN_CONTEXT ( 'detailed design', #20, 'design' ) ;
#326 = CARTESIAN_POINT ( 'NONE',  ( 0.000000000000000000, 0.000000000000000000, 0.000000000000000000 ) ) ;
#327 = CC_DESIGN_SECURITY_CLASSIFICATION ( #54, ( #101 ) ) ;
#328 = CC_DESIGN_DATE_AND_TIME_ASSIGNMENT ( #227, #335, ( #83 ) ) ;
#329 = APPROVAL_ROLE ( '' ) ;
#330 = PERSON_AND_ORGANIZATION_ROLE ( 'design_supplier' ) ;
#331 = APPROVAL_DATE_TIME ( #221, #109 ) ;
#332 =( GEOMETRIC_REPRESENTATION_CONTEXT ( 3 ) GLOBAL_UNCERTAINTY_ASSIGNED_CONTEXT ( ( #177 ) ) GLOBAL_UNIT_ASSIGNED_CONTEXT ( ( #244, #125, #384 ) ) REPRESENTATION_CONTEXT ( 'NONE', 'WORKASPACE' ) );
#333 = CC_DESIGN_APPROVAL ( #109, ( #197 ) ) ;
#334 = ROLE_ASSOCIATION ( #367, #222 ) ;
#335 = DATE_TIME_ROLE ( 'creation_date' ) ;
#336 = APPROVAL_STATUS ( 'not_yet_approved' ) ;
#337 = DOCUMENT_TYPE ( 'geometry' ) ;
#338 =( LENGTH_UNIT ( ) NAMED_UNIT ( * ) SI_UNIT ( .MILLI., .METRE. ) );
#339 = CC_DESIGN_SECURITY_CLASSIFICATION ( #94, ( #389 ) ) ;
#340 = APPROVAL_STATUS ( 'not_yet_approved' ) ;
#341 = PROPERTY_DEFINITION ('external definition','', #324 ) ;
#342 = SECURITY_CLASSIFICATION_LEVEL ( 'unclassified' ) ;
#343 = PRODUCT_DEFINITION_SHAPE ( 'NONE', 'NONE',  #193 ) ;
#344 = EXTERNAL_SOURCE (IDENTIFIER('') ) ;
#345 = PERSON_AND_ORGANIZATION ( #18446744073709551615, #18446744073709551615 ) ;
#346 = COORDINATED_UNIVERSAL_TIME_OFFSET ( 10, 0, .AHEAD. ) ;
#347 = CC_DESIGN_DATE_AND_TIME_ASSIGNMENT ( #22, #312, ( #193 ) ) ;
#348 = APPROVAL_PERSON_ORGANIZATION ( #196, #255, #112 ) ;
#349 = APPROVAL_ROLE ( '' ) ;
#350 = COORDINATED_UNIVERSAL_TIME_OFFSET ( 10, 0, .AHEAD. ) ;
#351 = DESIGN_CONTEXT ( 'detailed design', #359, 'design' ) ;
#352 = DIRECTION ( 'NONE',  ( 0.000000000000000000, 0.000000000000000000, 1.000000000000000000 ) ) ;
#353 = CALENDAR_DATE ( 2026, 22, 6 ) ;
#354 = LOCAL_TIME ( 18, 49, 56.00000000000000000, #90 ) ;
#355 = SHAPE_DEFINITION_REPRESENTATION ( #171, #293 ) ;
#356 = UNCERTAINTY_MEASURE_WITH_UNIT (LENGTH_MEASURE( 1.000000000000000082E-05 ), #338, 'distance_accuracy_value', 'NONE');
#357 = DATE_AND_TIME ( #53, #147 ) ;
#358 = CARTESIAN_POINT ( 'NONE',  ( 0.000000000000000000, 0.000000000000000000, 0.000000000000000000 ) ) ;
#359 = APPLICATION_CONTEXT ( 'configuration controlled 3d designs of mechanical parts and assemblies' ) ;
#360 = CC_DESIGN_APPROVAL ( #133, ( #61 ) ) ;
#361 = SECURITY_CLASSIFICATION ( '', '', #342 ) ;
#362 = APPROVAL_DATE_TIME ( #37, #182 ) ;
#363 = PROPERTY_DEFINITION ('document property','', #279 ) ;
#364 = SECURITY_CLASSIFICATION_LEVEL ( 'unclassified' ) ;
#365 = CALENDAR_DATE ( 2026, 22, 6 ) ;
#366 = CONTEXT_DEPENDENT_SHAPE_REPRESENTATION ( #38, #46 ) ;
#367 = OBJECT_ROLE ('mandatory',$ ) ;
#368 = AXIS2_PLACEMENT_3D ( 'NONE', #326, #31, #274 ) ;
#369 = LOCAL_TIME ( 18, 49, 56.00000000000000000, #71 ) ;
#370 = APPROVAL_ROLE ( '' ) ;
#371 = PERSON_AND_ORGANIZATION ( #18446744073709551615, #18446744073709551615 ) ;
#372 = CALENDAR_DATE ( 2026, 22, 6 ) ;
#373 = CC_DESIGN_PERSON_AND_ORGANIZATION_ASSIGNMENT ( #263, #108, ( #193 ) ) ;
#374 = LOCAL_TIME ( 18, 49, 56.00000000000000000, #267 ) ;
#375 = PERSON_AND_ORGANIZATION_ROLE ( 'design_owner' ) ;
#376 = PROPERTY_DEFINITION ('document property','', #324 ) ;
#377 = DATE_AND_TIME ( #44, #62 ) ;
#378 = DATE_AND_TIME ( #235, #178 ) ;
#379 = PRODUCT_RELATED_PRODUCT_CATEGORY ( 'detail', '', ( #258 ) ) ;
#380 = COORDINATED_UNIVERSAL_TIME_OFFSET ( 10, 0, .AHEAD. ) ;
#381 = CC_DESIGN_SECURITY_CLASSIFICATION ( #197, ( #61 ) ) ;
#382 = PERSON ( 'NAUO-PER118', 'UNSPECIFIED', 'UNSPECIFIED', ('UNSPECIFIED'), ('UNSPECIFIED'), ('UNSPECIFIED') ) ;
#383 = CALENDAR_DATE ( 2026, 22, 6 ) ;
#384 =( NAMED_UNIT ( * ) SI_UNIT ( $, .STERADIAN. ) SOLID_ANGLE_UNIT ( ) );
#385 = CC_DESIGN_PERSON_AND_ORGANIZATION_ASSIGNMENT ( #119, #211, ( #260 ) ) ;
#386 = PERSON_AND_ORGANIZATION ( #18446744073709551615, #18446744073709551615 ) ;
#387 = APPLIED_EXTERNAL_IDENTIFICATION_ASSIGNMENT ( '6461082896.step.STEP' , #100, #57,( #69) ) ;
#388 = NEXT_ASSEMBLY_USAGE_OCCURRENCE ( 'NAUO116', ' ', ' ', #83, #168, $ ) ;
#389 = NEXT_ASSEMBLY_USAGE_OCCURRENCE ( 'NAUO117', ' ', ' ', #83, #193, $ ) ;
#390 = NEXT_ASSEMBLY_USAGE_OCCURRENCE ( 'NAUO118', ' ', ' ', #83, #193, $ ) ;
ENDSEC;
END-ISO-10303-21;
