ISO-10303-21;
HEADER;
FILE_DESCRIPTION (( 'STEP AP203' ),
    '1' );
FILE_NAME ('R16.step.STEP',
    '2026-06-22T08:49:56',
    ( 'localuser' ),
    ( '' ),
    'SwSTEP 2.0',
    'SolidWorks 2025',
    '' );
FILE_SCHEMA (( 'CONFIG_CONTROL_DESIGN' ));
ENDSEC;

DATA;
#1 = PRODUCT_DEFINITION ( 'General', '', #263, #91 ) ;
#2 = PERSON_AND_ORGANIZATION ( #18446744073709551615, #18446744073709551615 ) ;
#3 = COORDINATED_UNIVERSAL_TIME_OFFSET ( 10, 0, .AHEAD. ) ;
#4 = ORGANIZATION ( 'NAUO-ORG149', 'UNSPECIFIED', 'UNSPECIFIED' ) ;
#5 = APPLICATION_PROTOCOL_DEFINITION ( 'international standard', 'config_control_design', 1994, #169 ) ;
#6 = APPROVAL_DATE_TIME ( #363, #203 ) ;
#7 = APPROVAL_STATUS ( 'not_yet_approved' ) ;
#8 = AXIS2_PLACEMENT_3D ( 'NONE', #259, #344, #314 ) ;
#9 = APPLIED_EXTERNAL_IDENTIFICATION_ASSIGNMENT ( '6534431024.step.STEP' , #298, #279,( #233) ) ;
#10 = MECHANICAL_CONTEXT ( 'NONE', #169, 'mechanical' ) ;
#11 = CC_DESIGN_DATE_AND_TIME_ASSIGNMENT ( #165, #294, ( #215 ) ) ;
#12 = DATE_AND_TIME ( #216, #286 ) ;
#13 = APPLIED_DOCUMENT_REFERENCE ( #238,'',( #312) ) ;
#14 = DATE_AND_TIME ( #285, #310 ) ;
#15 = SECURITY_CLASSIFICATION ( '', '', #370 ) ;
#16 =( LENGTH_UNIT ( ) NAMED_UNIT ( * ) SI_UNIT ( .MILLI., .METRE. ) );
#17 = PROPERTY_DEFINITION ('document property','', #313 ) ;
#18 = APPLICATION_CONTEXT ( 'configuration controlled 3d designs of mechanical parts and assemblies' ) ;
#19 = DATE_AND_TIME ( #339, #88 ) ;
#20 = PERSON_AND_ORGANIZATION ( #18446744073709551615, #18446744073709551615 ) ;
#21 = APPROVAL_ROLE ( '' ) ;
#22 = DATE_TIME_ROLE ( 'classification_date' ) ;
#23 = APPROVAL_PERSON_ORGANIZATION ( #144, #203, #120 ) ;
#24 = PERSON_AND_ORGANIZATION ( #18446744073709551615, #18446744073709551615 ) ;
#25 = CC_DESIGN_DATE_AND_TIME_ASSIGNMENT ( #152, #346, ( #29 ) ) ;
#26 = CALENDAR_DATE ( 2026, 22, 6 ) ;
#27 = COORDINATED_UNIVERSAL_TIME_OFFSET ( 10, 0, .AHEAD. ) ;
#28 =( GEOMETRIC_REPRESENTATION_CONTEXT ( 3 ) GLOBAL_UNCERTAINTY_ASSIGNED_CONTEXT ( ( #364 ) ) GLOBAL_UNIT_ASSIGNED_CONTEXT ( ( #109, #112, #204 ) ) REPRESENTATION_CONTEXT ( 'NONE', 'WORKASPACE' ) );
#29 = SECURITY_CLASSIFICATION ( '', '', #222 ) ;
#30 = PERSON_AND_ORGANIZATION_ROLE ( 'design_supplier' ) ;
#31 = CALENDAR_DATE ( 2026, 22, 6 ) ;
#32 = CC_DESIGN_PERSON_AND_ORGANIZATION_ASSIGNMENT ( #291, #84, ( #215 ) ) ;
#33 = APPROVAL_ROLE ( '' ) ;
#34 = COORDINATED_UNIVERSAL_TIME_OFFSET ( 10, 0, .AHEAD. ) ;
#35 = OBJECT_ROLE ('mandatory',$ ) ;
#36 = COORDINATED_UNIVERSAL_TIME_OFFSET ( 10, 0, .AHEAD. ) ;
#37 = CC_DESIGN_PERSON_AND_ORGANIZATION_ASSIGNMENT ( #295, #137, ( #345 ) ) ;
#38 = APPROVAL_STATUS ( 'not_yet_approved' ) ;
#39 = CC_DESIGN_APPROVAL ( #353, ( #312 ) ) ;
#40 = COORDINATED_UNIVERSAL_TIME_OFFSET ( 10, 0, .AHEAD. ) ;
#41 =( LENGTH_UNIT ( ) NAMED_UNIT ( * ) SI_UNIT ( .MILLI., .METRE. ) );
#42 = PERSON_AND_ORGANIZATION ( #18446744073709551615, #18446744073709551615 ) ;
#43 = ITEM_DEFINED_TRANSFORMATION ( 'NONE', 'NONE', #113,  #8 ) ;
#44 = CC_DESIGN_DATE_AND_TIME_ASSIGNMENT ( #12, #284, ( #171 ) ) ;
#45 = PRODUCT_DEFINITION_SHAPE ( 'NONE', 'NONE',  #388 ) ;
#46 = COORDINATED_UNIVERSAL_TIME_OFFSET ( 10, 0, .AHEAD. ) ;
#47 = LOCAL_TIME ( 18, 49, 56.00000000000000000, #124 ) ;
#48 = DATE_AND_TIME ( #252, #47 ) ;
#49 = PRODUCT_RELATED_PRODUCT_CATEGORY ( 'detail', '', ( #345 ) ) ;
#50 = DATE_AND_TIME ( #322, #227 ) ;
#51 = PERSON_AND_ORGANIZATION ( #191, #4 ) ;
#52 = APPROVAL_ROLE ( '' ) ;
#53 = APPROVAL ( #340, 'Coincident' ) ;
#54 = CARTESIAN_POINT ( 'NONE',  ( 15.80000024411100412, 19.29999951171900463, -2.058321952820000078 ) ) ;
#55 = EXTERNAL_SOURCE (IDENTIFIER('') ) ;
#56 = DIRECTION ( 'NONE',  ( 4.890937612370273194E-29, -3.155443620884047222E-30, 0.9999999999999997780 ) ) ;
#57 = DESIGN_CONTEXT ( 'detailed design', #115, 'design' ) ;
#58 = PERSON_AND_ORGANIZATION ( #18446744073709551615, #18446744073709551615 ) ;
#59 = SHAPE_REPRESENTATION ( 'R16.step', ( #281, #113, #81, #365 ), #28 ) ;
#60 = PERSON_AND_ORGANIZATION ( #18446744073709551615, #18446744073709551615 ) ;
#61 = PRODUCT_RELATED_PRODUCT_CATEGORY ( 'detail', '', ( #223 ) ) ;
#62 = OBJECT_ROLE ('mandatory',$ ) ;
#63 = APPROVAL_DATE_TIME ( #14, #303 ) ;
#64 = DATE_AND_TIME ( #278, #357 ) ;
#65 = CC_DESIGN_APPROVAL ( #53, ( #29 ) ) ;
#66 = APPROVAL_STATUS ( 'not_yet_approved' ) ;
#67 = PERSON_AND_ORGANIZATION ( #18446744073709551615, #18446744073709551615 ) ;
#68 = CC_DESIGN_DATE_AND_TIME_ASSIGNMENT ( #283, #79, ( #282 ) ) ;
#69 = PRODUCT_DEFINITION_FORMATION_WITH_SPECIFIED_SOURCE ( 'Symmetric', '', #185, .NOT_KNOWN. ) ;
#70 = APPROVAL_ROLE ( '' ) ;
#71 = APPROVAL ( #145, 'Coincident' ) ;
#72 = COORDINATED_UNIVERSAL_TIME_OFFSET ( 10, 0, .AHEAD. ) ;
#73 = PRODUCT_DEFINITION_SHAPE ( 'NONE', 'NONE',  #390 ) ;
#74 = DATE_AND_TIME ( #254, #183 ) ;
#75 = DOCUMENT_TYPE ( 'geometry' ) ;
#76 = LOCAL_TIME ( 18, 49, 56.00000000000000000, #27 ) ;
#77 = ITEM_DEFINED_TRANSFORMATION ( 'NONE', 'NONE', #81,  #8 ) ;
#78 = APPROVAL ( #324, 'Coincident' ) ;
#79 = DATE_TIME_ROLE ( 'classification_date' ) ;
#80 = PERSON_AND_ORGANIZATION_ROLE ( 'classification_officer' ) ;
#81 = AXIS2_PLACEMENT_3D ( 'NONE', #201, #168, #85 ) ;
#82 = PERSON_AND_ORGANIZATION ( #18446744073709551615, #18446744073709551615 ) ;
#83 = UNCERTAINTY_MEASURE_WITH_UNIT (LENGTH_MEASURE( 1.000000000000000082E-05 ), #16, 'distance_accuracy_value', 'NONE');
#84 = PERSON_AND_ORGANIZATION_ROLE ( 'creator' ) ;
#85 = DIRECTION ( 'NONE',  ( 1.000000000000000222, -1.092455418989176591E-28, 4.890937612370273194E-29 ) ) ;
#86 = APPROVAL_ROLE ( '' ) ;
#87 = SECURITY_CLASSIFICATION ( '', '', #270 ) ;
#88 = LOCAL_TIME ( 18, 49, 56.00000000000000000, #350 ) ;
#89 = CC_DESIGN_DATE_AND_TIME_ASSIGNMENT ( #337, #308, ( #15 ) ) ;
#90 = PERSON_AND_ORGANIZATION ( #18446744073709551615, #18446744073709551615 ) ;
#91 = DESIGN_CONTEXT ( 'detailed design', #320, 'design' ) ;
#92 = APPLICATION_PROTOCOL_DEFINITION ( 'international standard', 'config_control_design', 1994, #115 ) ;
#93 = SHAPE_DEFINITION_REPRESENTATION ( #255, #102 ) ;
#94 = CC_DESIGN_PERSON_AND_ORGANIZATION_ASSIGNMENT ( #67, #180, ( #223 ) ) ;
#95 = IDENTIFICATION_ROLE ( 'external document id and location', $) ;
#96 = CC_DESIGN_SECURITY_CLASSIFICATION ( #15, ( #263 ) ) ;
#97 = PERSON_AND_ORGANIZATION ( #18446744073709551615, #18446744073709551615 ) ;
#98 = DATE_AND_TIME ( #224, #205 ) ;
#99 = APPROVAL_STATUS ( 'not_yet_approved' ) ;
#100 = LOCAL_TIME ( 18, 49, 56.00000000000000000, #275 ) ;
#101 = APPROVAL_ROLE ( '' ) ;
#102 = SHAPE_REPRESENTATION ( '6534431024.step', ( #273 ), #262 ) ;
#103 = APPROVAL_DATE_TIME ( #48, #175 ) ;
#104 = PRODUCT_DEFINITION_SHAPE ( 'NONE', 'NONE',  #312 ) ;
#105 = APPROVAL_DATE_TIME ( #19, #166 ) ;
#106 = LOCAL_TIME ( 18, 49, 56.00000000000000000, #240 ) ;
#107 = CC_DESIGN_APPROVAL ( #272, ( #87 ) ) ;
#108 = APPROVAL_ROLE ( '' ) ;
#109 =( LENGTH_UNIT ( ) NAMED_UNIT ( * ) SI_UNIT ( .MILLI., .METRE. ) );
#110 = CC_DESIGN_PERSON_AND_ORGANIZATION_ASSIGNMENT ( #42, #128, ( #69 ) ) ;
#111 = COORDINATED_UNIVERSAL_TIME_OFFSET ( 10, 0, .AHEAD. ) ;
#112 =( NAMED_UNIT ( * ) PLANE_ANGLE_UNIT ( ) SI_UNIT ( $, .RADIAN. ) );
#113 = AXIS2_PLACEMENT_3D ( 'NONE', #269, #56, #354 ) ;
#114 = APPROVAL_PERSON_ORGANIZATION ( #228, #303, #108 ) ;
#115 = APPLICATION_CONTEXT ( 'configuration controlled 3d designs of mechanical parts and assemblies' ) ;
#116 = CALENDAR_DATE ( 2026, 22, 6 ) ;
#117 = SECURITY_CLASSIFICATION ( '', '', #202 ) ;
#118 = PERSON_AND_ORGANIZATION_ROLE ( 'classification_officer' ) ;
#119 = PERSON_AND_ORGANIZATION_ROLE ( 'design_supplier' ) ;
#120 = APPROVAL_ROLE ( '' ) ;
#121 = CC_DESIGN_APPROVAL ( #71, ( #159 ) ) ;
#122 = LOCAL_TIME ( 18, 49, 56.00000000000000000, #111 ) ;
#123 = PERSON_AND_ORGANIZATION_ROLE ( 'creator' ) ;
#124 = COORDINATED_UNIVERSAL_TIME_OFFSET ( 10, 0, .AHEAD. ) ;
#125 = PROPERTY_DEFINITION_REPRESENTATION ( #369, #317 ) ;
#126 = CARTESIAN_POINT ( 'NONE',  ( 0.000000000000000000, 0.000000000000000000, 0.000000000000000000 ) ) ;
#127 = CC_DESIGN_APPROVAL ( #203, ( #263 ) ) ;
#128 = PERSON_AND_ORGANIZATION_ROLE ( 'creator' ) ;
#129 = PRODUCT_DEFINITION_SHAPE ( 'NONE', 'NONE',  #389 ) ;
#130 = APPROVAL_DATE_TIME ( #98, #53 ) ;
#131 = IDENTIFICATION_ROLE ( 'external document id and location', $) ;
#132 = PERSON_AND_ORGANIZATION_ROLE ( 'classification_officer' ) ;
#133 = CARTESIAN_POINT ( 'NONE',  ( 0.000000000000000000, 0.000000000000000000, 0.000000000000000000 ) ) ;
#134 = CONTEXT_DEPENDENT_SHAPE_REPRESENTATION ( #347, #73 ) ;
#135 = CC_DESIGN_APPROVAL ( #303, ( #282 ) ) ;
#136 = PERSON_AND_ORGANIZATION ( #18446744073709551615, #18446744073709551615 ) ;
#137 = PERSON_AND_ORGANIZATION_ROLE ( 'design_owner' ) ;
#138 = ITEM_DEFINED_TRANSFORMATION ( 'NONE', 'NONE', #365,  #273 ) ;
#139 = COORDINATED_UNIVERSAL_TIME_OFFSET ( 10, 0, .AHEAD. ) ;
#140 = DATE_AND_TIME ( #328, #76 ) ;
#141 = APPROVAL_PERSON_ORGANIZATION ( #24, #71, #300 ) ;
#142 = DIRECTION ( 'NONE',  ( 1.000000000000000000, 0.000000000000000000, 0.000000000000000000 ) ) ;
#143 = APPROVAL_ROLE ( '' ) ;
#144 = PERSON_AND_ORGANIZATION ( #18446744073709551615, #18446744073709551615 ) ;
#145 = APPROVAL_STATUS ( 'not_yet_approved' ) ;
#146 = ORGANIZATION ( 'NAUO-ORG148', 'UNSPECIFIED', 'UNSPECIFIED' ) ;
#147 = CALENDAR_DATE ( 2026, 22, 6 ) ;
#148 = DATE_AND_TIME ( #247, #249 ) ;
#149 = DOCUMENT_TYPE ( 'geometry' ) ;
#150 = PERSON_AND_ORGANIZATION ( #18446744073709551615, #18446744073709551615 ) ;
#151 = APPROVAL_PERSON_ORGANIZATION ( #136, #272, #143 ) ;
#152 = DATE_AND_TIME ( #343, #234 ) ;
#153 =( NAMED_UNIT ( * ) PLANE_ANGLE_UNIT ( ) SI_UNIT ( $, .RADIAN. ) );
#154 = CC_DESIGN_PERSON_AND_ORGANIZATION_ASSIGNMENT ( #97, #214, ( #263 ) ) ;
#155 = PERSON_AND_ORGANIZATION ( #384, #299 ) ;
#156 = DIRECTION ( 'NONE',  ( 0.000000000000000000, 0.000000000000000000, 1.000000000000000000 ) ) ;
#157 = PROPERTY_DEFINITION ('document property','', #233 ) ;
#158 = PRODUCT_DEFINITION_SHAPE ( 'NONE', 'NONE',  #215 ) ;
#159 = PRODUCT_DEFINITION_FORMATION_WITH_SPECIFIED_SOURCE ( 'Symmetric', '', #345, .NOT_KNOWN. ) ;
#160 = APPLIED_EXTERNAL_IDENTIFICATION_ASSIGNMENT ( '6461079856.step.STEP' , #131, #55,( #313) ) ;
#161 = PERSON_AND_ORGANIZATION_ROLE ( 'creator' ) ;
#162 = PROPERTY_DEFINITION_REPRESENTATION ( #348, #317 ) ;
#163 = PROPERTY_DEFINITION_REPRESENTATION ( #157, #102 ) ;
#164 = LOCAL_TIME ( 18, 49, 56.00000000000000000, #387 ) ;
#165 = DATE_AND_TIME ( #230, #106 ) ;
#166 = APPROVAL ( #99, 'UNKNOWN' ) ;
#167 = PERSON_AND_ORGANIZATION_ROLE ( 'classification_officer' ) ;
#168 = DIRECTION ( 'NONE',  ( 4.890937612370273194E-29, -3.155443620884047222E-30, 0.9999999999999997780 ) ) ;
#169 = APPLICATION_CONTEXT ( 'configuration controlled 3d designs of mechanical parts and assemblies' ) ;
#170 = CC_DESIGN_PERSON_AND_ORGANIZATION_ASSIGNMENT ( #235, #356, ( #159 ) ) ;
#171 = SECURITY_CLASSIFICATION ( '', '', #288 ) ;
#172 = APPROVAL_DATE_TIME ( #267, #78 ) ;
#173 = CALENDAR_DATE ( 2026, 22, 6 ) ;
#174 = APPROVAL_DATE_TIME ( #301, #196 ) ;
#175 = APPROVAL ( #256, 'Coincident' ) ;
#176 = DATE_AND_TIME ( #199, #164 ) ;
#177 = PERSON_AND_ORGANIZATION ( #18446744073709551615, #18446744073709551615 ) ;
#178 = CC_DESIGN_APPROVAL ( #175, ( #69 ) ) ;
#179 = CC_DESIGN_PERSON_AND_ORGANIZATION_ASSIGNMENT ( #377, #226, ( #29 ) ) ;
#180 = PERSON_AND_ORGANIZATION_ROLE ( 'design_owner' ) ;
#181 = COORDINATED_UNIVERSAL_TIME_OFFSET ( 10, 0, .AHEAD. ) ;
#182 = PERSON_AND_ORGANIZATION_ROLE ( 'design_supplier' ) ;
#183 = LOCAL_TIME ( 18, 49, 56.00000000000000000, #315 ) ;
#184 = COORDINATED_UNIVERSAL_TIME_OFFSET ( 10, 0, .AHEAD. ) ;
#185 = PRODUCT ( '6461079856.step', '6461079856.step', '', ( #242 ) ) ;
#186 = APPROVAL_STATUS ( 'not_yet_approved' ) ;
#187 = PERSON_AND_ORGANIZATION ( #18446744073709551615, #18446744073709551615 ) ;
#188 =( NAMED_UNIT ( * ) PLANE_ANGLE_UNIT ( ) SI_UNIT ( $, .RADIAN. ) );
#189 = OBJECT_ROLE ('mandatory',$ ) ;
#190 = CC_DESIGN_APPROVAL ( #292, ( #117 ) ) ;
#191 = PERSON ( 'NAUO-PER149', 'UNSPECIFIED', 'UNSPECIFIED', ('UNSPECIFIED'), ('UNSPECIFIED'), ('UNSPECIFIED') ) ;
#192 = APPROVAL_PERSON_ORGANIZATION ( #187, #175, #101 ) ;
#193 = SECURITY_CLASSIFICATION_LEVEL ( 'unclassified' ) ;
#194 = COORDINATED_UNIVERSAL_TIME_OFFSET ( 10, 0, .AHEAD. ) ;
#195 = PROPERTY_DEFINITION_REPRESENTATION ( #17, #317 ) ;
#196 = APPROVAL ( #38, 'Coincident' ) ;
#197 = PERSON_AND_ORGANIZATION ( #18446744073709551615, #18446744073709551615 ) ;
#198 = CC_DESIGN_APPROVAL ( #78, ( #215 ) ) ;
#199 = CALENDAR_DATE ( 2026, 22, 6 ) ;
#200 = APPROVAL_PERSON_ORGANIZATION ( #51, #292, #21 ) ;
#201 = CARTESIAN_POINT ( 'NONE',  ( 15.80000024411100412, 19.79999951171900463, -2.058321952819998302 ) ) ;
#202 = SECURITY_CLASSIFICATION_LEVEL ( 'unclassified' ) ;
#203 = APPROVAL ( #7, 'Coincident' ) ;
#204 =( NAMED_UNIT ( * ) SI_UNIT ( $, .STERADIAN. ) SOLID_ANGLE_UNIT ( ) );
#205 = LOCAL_TIME ( 18, 49, 56.00000000000000000, #40 ) ;
#206 = DATE_AND_TIME ( #336, #383 ) ;
#207 = CC_DESIGN_PERSON_AND_ORGANIZATION_ASSIGNMENT ( #177, #161, ( #312 ) ) ;
#208 = APPROVAL_STATUS ( 'not_yet_approved' ) ;
#209 = APPLIED_DOCUMENT_REFERENCE ( #233,'',( #1) ) ;
#210 = DATE_AND_TIME ( #31, #100 ) ;
#211 = COORDINATED_UNIVERSAL_TIME_OFFSET ( 10, 0, .AHEAD. ) ;
#212 = LOCAL_TIME ( 18, 49, 56.00000000000000000, #244 ) ;
#213 = APPLICATION_CONTEXT ( 'configuration controlled 3d designs of mechanical parts and assemblies' ) ;
#214 = PERSON_AND_ORGANIZATION_ROLE ( 'creator' ) ;
#215 = PRODUCT_DEFINITION ( 'General', '', #159, #243 ) ;
#216 = CALENDAR_DATE ( 2026, 22, 6 ) ;
#217 = PERSON ( 'NAUO-PER148', 'UNSPECIFIED', 'UNSPECIFIED', ('UNSPECIFIED'), ('UNSPECIFIED'), ('UNSPECIFIED') ) ;
#218 = PERSON_AND_ORGANIZATION ( #18446744073709551615, #18446744073709551615 ) ;
#219 =( NAMED_UNIT ( * ) SI_UNIT ( $, .STERADIAN. ) SOLID_ANGLE_UNIT ( ) );
#220 =( GEOMETRIC_REPRESENTATION_CONTEXT ( 3 ) GLOBAL_UNCERTAINTY_ASSIGNED_CONTEXT ( ( #83 ) ) GLOBAL_UNIT_ASSIGNED_CONTEXT ( ( #16, #188, #257 ) ) REPRESENTATION_CONTEXT ( 'NONE', 'WORKASPACE' ) );
#221 = APPROVAL_PERSON_ORGANIZATION ( #371, #196, #86 ) ;
#222 = SECURITY_CLASSIFICATION_LEVEL ( 'unclassified' ) ;
#223 = PRODUCT ( '6534431024.step', '6534431024.step', '', ( #10 ) ) ;
#224 = CALENDAR_DATE ( 2026, 22, 6 ) ;
#225 = CC_DESIGN_PERSON_AND_ORGANIZATION_ASSIGNMENT ( #228, #132, ( #282 ) ) ;
#226 = PERSON_AND_ORGANIZATION_ROLE ( 'classification_officer' ) ;
#227 = LOCAL_TIME ( 18, 49, 56.00000000000000000, #194 ) ;
#228 = PERSON_AND_ORGANIZATION ( #217, #146 ) ;
#229 = CC_DESIGN_PERSON_AND_ORGANIZATION_ASSIGNMENT ( #150, #118, ( #15 ) ) ;
#230 = CALENDAR_DATE ( 2026, 22, 6 ) ;
#231 = DATE_TIME_ROLE ( 'classification_date' ) ;
#232 = APPROVAL_DATE_TIME ( #140, #71 ) ;
#233 = DOCUMENT_FILE ( '6534431024.step.STEP' , '', '', #361, '' ,$ ) ;
#234 = LOCAL_TIME ( 18, 49, 56.00000000000000000, #46 ) ;
#235 = PERSON_AND_ORGANIZATION ( #18446744073709551615, #18446744073709551615 ) ;
#236 = CC_DESIGN_DATE_AND_TIME_ASSIGNMENT ( #50, #22, ( #87 ) ) ;
#237 =( REPRESENTATION_RELATIONSHIP ('NONE','NONE', #59, #317 ) REPRESENTATION_RELATIONSHIP_WITH_TRANSFORMATION ( #43 )SHAPE_REPRESENTATION_RELATIONSHIP( ) );
#238 = DOCUMENT_FILE ( '6461079856.step.STEP' , '', '', #75, '' ,$ ) ;
#239 = CC_DESIGN_PERSON_AND_ORGANIZATION_ASSIGNMENT ( #155, #289, ( #171 ) ) ;
#240 = COORDINATED_UNIVERSAL_TIME_OFFSET ( 10, 0, .AHEAD. ) ;
#241 = APPROVAL_PERSON_ORGANIZATION ( #155, #166, #258 ) ;
#242 = MECHANICAL_CONTEXT ( 'NONE', #213, 'mechanical' ) ;
#243 = DESIGN_CONTEXT ( 'detailed design', #260, 'design' ) ;
#244 = COORDINATED_UNIVERSAL_TIME_OFFSET ( 10, 0, .AHEAD. ) ;
#245 = PROPERTY_DEFINITION ('external definition','', #238 ) ;
#246 = APPROVAL_DATE_TIME ( #148, #272 ) ;
#247 = CALENDAR_DATE ( 2026, 22, 6 ) ;
#248 = LOCAL_TIME ( 18, 49, 56.00000000000000000, #139 ) ;
#249 = LOCAL_TIME ( 18, 49, 56.00000000000000000, #211 ) ;
#250 = COORDINATED_UNIVERSAL_TIME_OFFSET ( 10, 0, .AHEAD. ) ;
#251 = CC_DESIGN_PERSON_AND_ORGANIZATION_ASSIGNMENT ( #51, #167, ( #117 ) ) ;
#252 = CALENDAR_DATE ( 2026, 22, 6 ) ;
#253 = CC_DESIGN_DATE_AND_TIME_ASSIGNMENT ( #74, #311, ( #312 ) ) ;
#254 = CALENDAR_DATE ( 2026, 22, 6 ) ;
#255 = PRODUCT_DEFINITION_SHAPE ( 'NONE', 'NONE',  #1 ) ;
#256 = APPROVAL_STATUS ( 'not_yet_approved' ) ;
#257 =( NAMED_UNIT ( * ) SI_UNIT ( $, .STERADIAN. ) SOLID_ANGLE_UNIT ( ) );
#258 = APPROVAL_ROLE ( '' ) ;
#259 = CARTESIAN_POINT ( 'NONE',  ( 0.000000000000000000, 0.000000000000000000, 0.000000000000000000 ) ) ;
#260 = APPLICATION_CONTEXT ( 'configuration controlled 3d designs of mechanical parts and assemblies' ) ;
#261 = DATE_AND_TIME ( #26, #122 ) ;
#262 =( GEOMETRIC_REPRESENTATION_CONTEXT ( 3 ) GLOBAL_UNCERTAINTY_ASSIGNED_CONTEXT ( ( #355 ) ) GLOBAL_UNIT_ASSIGNED_CONTEXT ( ( #41, #153, #219 ) ) REPRESENTATION_CONTEXT ( 'NONE', 'WORKASPACE' ) );
#263 = PRODUCT_DEFINITION_FORMATION_WITH_SPECIFIED_SOURCE ( 'Symmetric', '', #223, .NOT_KNOWN. ) ;
#264 = ROLE_ASSOCIATION ( #62, #209 ) ;
#265 = APPROVAL_STATUS ( 'not_yet_approved' ) ;
#266 = DIRECTION ( 'NONE',  ( 0.000000000000000000, 0.000000000000000000, 1.000000000000000000 ) ) ;
#267 = DATE_AND_TIME ( #297, #248 ) ;
#268 = APPROVAL_PERSON_ORGANIZATION ( #20, #53, #70 ) ;
#269 = CARTESIAN_POINT ( 'NONE',  ( 15.80000024411100412, 18.79999951171900108, -2.058321952820000078 ) ) ;
#270 = SECURITY_CLASSIFICATION_LEVEL ( 'unclassified' ) ;
#271 = APPROVAL_DATE_TIME ( #64, #325 ) ;
#272 = APPROVAL ( #332, 'Coincident' ) ;
#273 = AXIS2_PLACEMENT_3D ( 'NONE', #133, #156, #352 ) ;
#274 = APPLIED_EXTERNAL_IDENTIFICATION_ASSIGNMENT ( '6461079856.step.STEP' , #95, #372,( #238) ) ;
#275 = COORDINATED_UNIVERSAL_TIME_OFFSET ( 10, 0, .AHEAD. ) ;
#276 = APPLICATION_PROTOCOL_DEFINITION ( 'international standard', 'config_control_design', 1994, #320 ) ;
#277 = CC_DESIGN_PERSON_AND_ORGANIZATION_ASSIGNMENT ( #60, #123, ( #1 ) ) ;
#278 = CALENDAR_DATE ( 2026, 22, 6 ) ;
#279 = EXTERNAL_SOURCE (IDENTIFIER('') ) ;
#280 = SHAPE_DEFINITION_REPRESENTATION ( #158, #59 ) ;
#281 = AXIS2_PLACEMENT_3D ( 'NONE', #126, #266, #142 ) ;
#282 = SECURITY_CLASSIFICATION ( '', '', #193 ) ;
#283 = DATE_AND_TIME ( #309, #373 ) ;
#284 = DATE_TIME_ROLE ( 'classification_date' ) ;
#285 = CALENDAR_DATE ( 2026, 22, 6 ) ;
#286 = LOCAL_TIME ( 18, 49, 56.00000000000000000, #184 ) ;
#287 = PROPERTY_DEFINITION ('external definition','', #233 ) ;
#288 = SECURITY_CLASSIFICATION_LEVEL ( 'unclassified' ) ;
#289 = PERSON_AND_ORGANIZATION_ROLE ( 'classification_officer' ) ;
#290 = APPROVAL_DATE_TIME ( #176, #292 ) ;
#291 = PERSON_AND_ORGANIZATION ( #18446744073709551615, #18446744073709551615 ) ;
#292 = APPROVAL ( #265, 'UNKNOWN' ) ;
#293 = CC_DESIGN_APPROVAL ( #166, ( #171 ) ) ;
#294 = DATE_TIME_ROLE ( 'creation_date' ) ;
#295 = PERSON_AND_ORGANIZATION ( #18446744073709551615, #18446744073709551615 ) ;
#296 = CC_DESIGN_DATE_AND_TIME_ASSIGNMENT ( #261, #231, ( #117 ) ) ;
#297 = CALENDAR_DATE ( 2026, 22, 6 ) ;
#298 = IDENTIFICATION_ROLE ( 'external document id and location', $) ;
#299 = ORGANIZATION ( 'NAUO-ORG147', 'UNSPECIFIED', 'UNSPECIFIED' ) ;
#300 = APPROVAL_ROLE ( '' ) ;
#301 = DATE_AND_TIME ( #116, #212 ) ;
#302 = PERSON_AND_ORGANIZATION ( #18446744073709551615, #18446744073709551615 ) ;
#303 = APPROVAL ( #186, 'UNKNOWN' ) ;
#304 = PROPERTY_DEFINITION_REPRESENTATION ( #287, #102 ) ;
#305 = CC_DESIGN_APPROVAL ( #325, ( #1 ) ) ;
#306 = PERSON_AND_ORGANIZATION_ROLE ( 'design_owner' ) ;
#307 = APPROVAL_ROLE ( '' ) ;
#308 = DATE_TIME_ROLE ( 'classification_date' ) ;
#309 = CALENDAR_DATE ( 2026, 22, 6 ) ;
#310 = LOCAL_TIME ( 18, 49, 56.00000000000000000, #72 ) ;
#311 = DATE_TIME_ROLE ( 'creation_date' ) ;
#312 = PRODUCT_DEFINITION ( 'General', '', #69, #57 ) ;
#313 = DOCUMENT_FILE ( '6461079856.step.STEP' , '', '', #149, '' ,$ ) ;
#314 = DIRECTION ( 'NONE',  ( 1.000000000000000000, 0.000000000000000000, 0.000000000000000000 ) ) ;
#315 = COORDINATED_UNIVERSAL_TIME_OFFSET ( 10, 0, .AHEAD. ) ;
#316 = LOCAL_TIME ( 18, 49, 56.00000000000000000, #34 ) ;
#317 = SHAPE_REPRESENTATION ( '6461079856.step', ( #8 ), #220 ) ;
#318 = CC_DESIGN_PERSON_AND_ORGANIZATION_ASSIGNMENT ( #302, #119, ( #263 ) ) ;
#319 = SHAPE_DEFINITION_REPRESENTATION ( #104, #317 ) ;
#320 = APPLICATION_CONTEXT ( 'configuration controlled 3d designs of mechanical parts and assemblies' ) ;
#321 = CONTEXT_DEPENDENT_SHAPE_REPRESENTATION ( #338, #129 ) ;
#322 = CALENDAR_DATE ( 2026, 22, 6 ) ;
#323 = APPLIED_DOCUMENT_REFERENCE ( #313,'',( #312) ) ;
#324 = APPROVAL_STATUS ( 'not_yet_approved' ) ;
#325 = APPROVAL ( #66, 'Coincident' ) ;
#326 = CC_DESIGN_SECURITY_CLASSIFICATION ( #87, ( #159 ) ) ;
#327 = DIRECTION ( 'NONE',  ( 1.000000000000000222, -1.092455418989176591E-28, 4.890937612370273194E-29 ) ) ;
#328 = CALENDAR_DATE ( 2026, 22, 6 ) ;
#329 = APPLICATION_PROTOCOL_DEFINITION ( 'international standard', 'config_control_design', 1994, #260 ) ;
#330 = LOCAL_TIME ( 18, 49, 56.00000000000000000, #181 ) ;
#331 = PERSON_AND_ORGANIZATION ( #18446744073709551615, #18446744073709551615 ) ;
#332 = APPROVAL_STATUS ( 'not_yet_approved' ) ;
#333 = APPROVAL_DATE_TIME ( #210, #353 ) ;
#334 = APPROVAL_PERSON_ORGANIZATION ( #197, #78, #52 ) ;
#335 = CC_DESIGN_SECURITY_CLASSIFICATION ( #29, ( #69 ) ) ;
#336 = CALENDAR_DATE ( 2026, 22, 6 ) ;
#337 = DATE_AND_TIME ( #173, #330 ) ;
#338 =( REPRESENTATION_RELATIONSHIP ('NONE','NONE', #59, #317 ) REPRESENTATION_RELATIONSHIP_WITH_TRANSFORMATION ( #77 )SHAPE_REPRESENTATION_RELATIONSHIP( ) );
#339 = CALENDAR_DATE ( 2026, 22, 6 ) ;
#340 = APPROVAL_STATUS ( 'not_yet_approved' ) ;
#341 = APPROVAL_PERSON_ORGANIZATION ( #58, #325, #307 ) ;
#342 = CC_DESIGN_SECURITY_CLASSIFICATION ( #117, ( #390 ) ) ;
#343 = CALENDAR_DATE ( 2026, 22, 6 ) ;
#344 = DIRECTION ( 'NONE',  ( 0.000000000000000000, 0.000000000000000000, 1.000000000000000000 ) ) ;
#345 = PRODUCT ( 'R16.step', 'R16.step', '', ( #360 ) ) ;
#346 = DATE_TIME_ROLE ( 'classification_date' ) ;
#347 =( REPRESENTATION_RELATIONSHIP ('NONE','NONE', #59, #102 ) REPRESENTATION_RELATIONSHIP_WITH_TRANSFORMATION ( #138 )SHAPE_REPRESENTATION_RELATIONSHIP( ) );
#348 = PROPERTY_DEFINITION ('external definition','', #313 ) ;
#349 = CC_DESIGN_PERSON_AND_ORGANIZATION_ASSIGNMENT ( #2, #80, ( #87 ) ) ;
#350 = COORDINATED_UNIVERSAL_TIME_OFFSET ( 10, 0, .AHEAD. ) ;
#351 = CC_DESIGN_APPROVAL ( #196, ( #15 ) ) ;
#352 = DIRECTION ( 'NONE',  ( 1.000000000000000000, 0.000000000000000000, 0.000000000000000000 ) ) ;
#353 = APPROVAL ( #208, 'Coincident' ) ;
#354 = DIRECTION ( 'NONE',  ( 1.000000000000000222, -1.092455418989176591E-28, 4.890937612370273194E-29 ) ) ;
#355 = UNCERTAINTY_MEASURE_WITH_UNIT (LENGTH_MEASURE( 1.000000000000000082E-05 ), #41, 'distance_accuracy_value', 'NONE');
#356 = PERSON_AND_ORGANIZATION_ROLE ( 'creator' ) ;
#357 = LOCAL_TIME ( 18, 49, 56.00000000000000000, #36 ) ;
#358 = ROLE_ASSOCIATION ( #189, #323 ) ;
#359 = DIRECTION ( 'NONE',  ( 4.890937612370273194E-29, -3.155443620884047222E-30, 0.9999999999999997780 ) ) ;
#360 = MECHANICAL_CONTEXT ( 'NONE', #18, 'mechanical' ) ;
#361 = DOCUMENT_TYPE ( 'geometry' ) ;
#362 = CC_DESIGN_PERSON_AND_ORGANIZATION_ASSIGNMENT ( #82, #30, ( #159 ) ) ;
#363 = DATE_AND_TIME ( #147, #316 ) ;
#364 = UNCERTAINTY_MEASURE_WITH_UNIT (LENGTH_MEASURE( 1.000000000000000082E-05 ), #109, 'distance_accuracy_value', 'NONE');
#365 = AXIS2_PLACEMENT_3D ( 'NONE', #54, #359, #327 ) ;
#366 = PRODUCT_RELATED_PRODUCT_CATEGORY ( 'detail', '', ( #185 ) ) ;
#367 = CC_DESIGN_SECURITY_CLASSIFICATION ( #171, ( #388 ) ) ;
#368 = APPLICATION_PROTOCOL_DEFINITION ( 'international standard', 'config_control_design', 1994, #213 ) ;
#369 = PROPERTY_DEFINITION ('document property','', #238 ) ;
#370 = SECURITY_CLASSIFICATION_LEVEL ( 'unclassified' ) ;
#371 = PERSON_AND_ORGANIZATION ( #18446744073709551615, #18446744073709551615 ) ;
#372 = EXTERNAL_SOURCE (IDENTIFIER('') ) ;
#373 = LOCAL_TIME ( 18, 49, 56.00000000000000000, #250 ) ;
#374 = DATE_TIME_ROLE ( 'creation_date' ) ;
#375 = ROLE_ASSOCIATION ( #35, #13 ) ;
#376 = CC_DESIGN_DATE_AND_TIME_ASSIGNMENT ( #206, #374, ( #1 ) ) ;
#377 = PERSON_AND_ORGANIZATION ( #18446744073709551615, #18446744073709551615 ) ;
#378 = APPROVAL_PERSON_ORGANIZATION ( #90, #353, #33 ) ;
#379 = CC_DESIGN_SECURITY_CLASSIFICATION ( #282, ( #389 ) ) ;
#380 = CONTEXT_DEPENDENT_SHAPE_REPRESENTATION ( #237, #45 ) ;
#381 = PROPERTY_DEFINITION_REPRESENTATION ( #245, #317 ) ;
#382 = CC_DESIGN_PERSON_AND_ORGANIZATION_ASSIGNMENT ( #218, #182, ( #69 ) ) ;
#383 = LOCAL_TIME ( 18, 49, 56.00000000000000000, #3 ) ;
#384 = PERSON ( 'NAUO-PER147', 'UNSPECIFIED', 'UNSPECIFIED', ('UNSPECIFIED'), ('UNSPECIFIED'), ('UNSPECIFIED') ) ;
#385 = APPLICATION_PROTOCOL_DEFINITION ( 'international standard', 'config_control_design', 1994, #18 ) ;
#386 = CC_DESIGN_PERSON_AND_ORGANIZATION_ASSIGNMENT ( #331, #306, ( #185 ) ) ;
#387 = COORDINATED_UNIVERSAL_TIME_OFFSET ( 10, 0, .AHEAD. ) ;
#388 = NEXT_ASSEMBLY_USAGE_OCCURRENCE ( 'NAUO147', ' ', ' ', #215, #312, $ ) ;
#389 = NEXT_ASSEMBLY_USAGE_OCCURRENCE ( 'NAUO148', ' ', ' ', #215, #312, $ ) ;
#390 = NEXT_ASSEMBLY_USAGE_OCCURRENCE ( 'NAUO149', ' ', ' ', #215, #1, $ ) ;
ENDSEC;
END-ISO-10303-21;
