ISO-10303-21;
HEADER;
FILE_DESCRIPTION (( 'STEP AP203' ),
    '1' );
FILE_NAME ('R17.step.STEP',
    '2026-06-22T08:49:56',
    ( 'localuser' ),
    ( '' ),
    'SwSTEP 2.0',
    'SolidWorks 2025',
    '' );
FILE_SCHEMA (( 'CONFIG_CONTROL_DESIGN' ));
ENDSEC;

DATA;
#1 =( NAMED_UNIT ( * ) PLANE_ANGLE_UNIT ( ) SI_UNIT ( $, .RADIAN. ) );
#2 = PRODUCT_DEFINITION ( 'General', '', #162, #356 ) ;
#3 = CALENDAR_DATE ( 2026, 22, 6 ) ;
#4 = APPROVAL ( #257, 'UNKNOWN' ) ;
#5 = DATE_TIME_ROLE ( 'classification_date' ) ;
#6 = CC_DESIGN_SECURITY_CLASSIFICATION ( #237, ( #389 ) ) ;
#7 = APPROVAL_ROLE ( '' ) ;
#8 = DATE_AND_TIME ( #335, #104 ) ;
#9 = APPROVAL_STATUS ( 'not_yet_approved' ) ;
#10 = AXIS2_PLACEMENT_3D ( 'NONE', #383, #266, #298 ) ;
#11 = CALENDAR_DATE ( 2026, 22, 6 ) ;
#12 = CC_DESIGN_PERSON_AND_ORGANIZATION_ASSIGNMENT ( #96, #66, ( #161 ) ) ;
#13 = PERSON_AND_ORGANIZATION ( #95, #363 ) ;
#14 =( NAMED_UNIT ( * ) PLANE_ANGLE_UNIT ( ) SI_UNIT ( $, .RADIAN. ) );
#15 = CC_DESIGN_DATE_AND_TIME_ASSIGNMENT ( #16, #252, ( #310 ) ) ;
#16 = DATE_AND_TIME ( #47, #340 ) ;
#17 = APPROVAL_DATE_TIME ( #167, #4 ) ;
#18 = LOCAL_TIME ( 18, 49, 56.00000000000000000, #22 ) ;
#19 = DIRECTION ( 'NONE',  ( 1.000000000000000000, 0.000000000000000000, 0.000000000000000000 ) ) ;
#20 = PRODUCT_DEFINITION_SHAPE ( 'NONE', 'NONE',  #390 ) ;
#21 = APPROVAL_ROLE ( '' ) ;
#22 = COORDINATED_UNIVERSAL_TIME_OFFSET ( 10, 0, .AHEAD. ) ;
#23 = CALENDAR_DATE ( 2026, 22, 6 ) ;
#24 = CC_DESIGN_APPROVAL ( #312, ( #328 ) ) ;
#25 = CALENDAR_DATE ( 2026, 22, 6 ) ;
#26 = DATE_AND_TIME ( #23, #201 ) ;
#27 = APPLIED_DOCUMENT_REFERENCE ( #236,'',( #272) ) ;
#28 = APPROVAL_DATE_TIME ( #26, #277 ) ;
#29 = APPROVAL_PERSON_ORGANIZATION ( #348, #223, #263 ) ;
#30 = LOCAL_TIME ( 18, 49, 56.00000000000000000, #198 ) ;
#31 = PERSON_AND_ORGANIZATION ( #18446744073709551615, #18446744073709551615 ) ;
#32 = DATE_AND_TIME ( #280, #35 ) ;
#33 = CC_DESIGN_PERSON_AND_ORGANIZATION_ASSIGNMENT ( #251, #105, ( #328 ) ) ;
#34 = COORDINATED_UNIVERSAL_TIME_OFFSET ( 10, 0, .AHEAD. ) ;
#35 = LOCAL_TIME ( 18, 49, 56.00000000000000000, #100 ) ;
#36 = APPROVAL_ROLE ( '' ) ;
#37 = DOCUMENT_TYPE ( 'geometry' ) ;
#38 = PERSON_AND_ORGANIZATION ( #18446744073709551615, #18446744073709551615 ) ;
#39 = APPROVAL ( #9, 'Coincident' ) ;
#40 = PERSON_AND_ORGANIZATION_ROLE ( 'creator' ) ;
#41 = LOCAL_TIME ( 18, 49, 56.00000000000000000, #275 ) ;
#42 = COORDINATED_UNIVERSAL_TIME_OFFSET ( 10, 0, .AHEAD. ) ;
#43 = DIRECTION ( 'NONE',  ( 0.000000000000000000, 0.000000000000000000, 1.000000000000000000 ) ) ;
#44 = PROPERTY_DEFINITION_REPRESENTATION ( #247, #129 ) ;
#45 = COORDINATED_UNIVERSAL_TIME_OFFSET ( 10, 0, .AHEAD. ) ;
#46 = PRODUCT_DEFINITION_SHAPE ( 'NONE', 'NONE',  #388 ) ;
#47 = CALENDAR_DATE ( 2026, 22, 6 ) ;
#48 = APPROVAL_PERSON_ORGANIZATION ( #13, #4, #21 ) ;
#49 = DATE_AND_TIME ( #229, #163 ) ;
#50 = ROLE_ASSOCIATION ( #292, #27 ) ;
#51 = CC_DESIGN_PERSON_AND_ORGANIZATION_ASSIGNMENT ( #294, #118, ( #2 ) ) ;
#52 = DATE_AND_TIME ( #145, #155 ) ;
#53 = SECURITY_CLASSIFICATION ( '', '', #306 ) ;
#54 = CC_DESIGN_PERSON_AND_ORGANIZATION_ASSIGNMENT ( #200, #57, ( #162 ) ) ;
#55 =( REPRESENTATION_RELATIONSHIP ('NONE','NONE', #60, #129 ) REPRESENTATION_RELATIONSHIP_WITH_TRANSFORMATION ( #317 )SHAPE_REPRESENTATION_RELATIONSHIP( ) );
#56 = COORDINATED_UNIVERSAL_TIME_OFFSET ( 10, 0, .AHEAD. ) ;
#57 = PERSON_AND_ORGANIZATION_ROLE ( 'creator' ) ;
#58 = APPLIED_EXTERNAL_IDENTIFICATION_ASSIGNMENT ( '6461082896.step.STEP' , #192, #120,( #236) ) ;
#59 = DATE_AND_TIME ( #149, #112 ) ;
#60 = SHAPE_REPRESENTATION ( 'R17.step', ( #89, #250, #361, #10 ), #111 ) ;
#61 = APPROVAL_STATUS ( 'not_yet_approved' ) ;
#62 = CC_DESIGN_DATE_AND_TIME_ASSIGNMENT ( #32, #92, ( #374 ) ) ;
#63 = SHAPE_DEFINITION_REPRESENTATION ( #341, #168 ) ;
#64 = IDENTIFICATION_ROLE ( 'external document id and location', $) ;
#65 = APPLICATION_PROTOCOL_DEFINITION ( 'international standard', 'config_control_design', 1994, #260 ) ;
#66 = PERSON_AND_ORGANIZATION_ROLE ( 'design_owner' ) ;
#67 = PERSON_AND_ORGANIZATION ( #273, #387 ) ;
#68 = LOCAL_TIME ( 18, 49, 56.00000000000000000, #270 ) ;
#69 = APPROVAL ( #173, 'Coincident' ) ;
#70 = PERSON_AND_ORGANIZATION_ROLE ( 'classification_officer' ) ;
#71 = PROPERTY_DEFINITION ('document property','', #131 ) ;
#72 = SHAPE_DEFINITION_REPRESENTATION ( #108, #129 ) ;
#73 = OBJECT_ROLE ('mandatory',$ ) ;
#74 = APPROVAL_PERSON_ORGANIZATION ( #212, #234, #36 ) ;
#75 = SECURITY_CLASSIFICATION_LEVEL ( 'unclassified' ) ;
#76 =( NAMED_UNIT ( * ) PLANE_ANGLE_UNIT ( ) SI_UNIT ( $, .RADIAN. ) );
#77 = PRODUCT_RELATED_PRODUCT_CATEGORY ( 'detail', '', ( #255 ) ) ;
#78 = DESIGN_CONTEXT ( 'detailed design', #299, 'design' ) ;
#79 = COORDINATED_UNIVERSAL_TIME_OFFSET ( 10, 0, .AHEAD. ) ;
#80 = PERSON_AND_ORGANIZATION_ROLE ( 'design_owner' ) ;
#81 = CONTEXT_DEPENDENT_SHAPE_REPRESENTATION ( #219, #20 ) ;
#82 = AXIS2_PLACEMENT_3D ( 'NONE', #349, #259, #188 ) ;
#83 = APPROVAL_ROLE ( '' ) ;
#84 = CC_DESIGN_SECURITY_CLASSIFICATION ( #310, ( #388 ) ) ;
#85 = APPROVAL_STATUS ( 'not_yet_approved' ) ;
#86 = DIRECTION ( 'NONE',  ( 4.890937612370273194E-29, -3.155443620884047222E-30, 0.9999999999999997780 ) ) ;
#87 = PERSON ( 'NAUO-PER146', 'UNSPECIFIED', 'UNSPECIFIED', ('UNSPECIFIED'), ('UNSPECIFIED'), ('UNSPECIFIED') ) ;
#88 = APPLICATION_PROTOCOL_DEFINITION ( 'international standard', 'config_control_design', 1994, #336 ) ;
#89 = AXIS2_PLACEMENT_3D ( 'NONE', #165, #196, #171 ) ;
#90 = CC_DESIGN_SECURITY_CLASSIFICATION ( #382, ( #328 ) ) ;
#91 = CC_DESIGN_PERSON_AND_ORGANIZATION_ASSIGNMENT ( #152, #40, ( #374 ) ) ;
#92 = DATE_TIME_ROLE ( 'creation_date' ) ;
#93 = DATE_AND_TIME ( #113, #30 ) ;
#94 = PERSON_AND_ORGANIZATION_ROLE ( 'design_supplier' ) ;
#95 = PERSON ( 'NAUO-PER144', 'UNSPECIFIED', 'UNSPECIFIED', ('UNSPECIFIED'), ('UNSPECIFIED'), ('UNSPECIFIED') ) ;
#96 = PERSON_AND_ORGANIZATION ( #18446744073709551615, #18446744073709551615 ) ;
#97 = CC_DESIGN_PERSON_AND_ORGANIZATION_ASSIGNMENT ( #330, #151, ( #228 ) ) ;
#98 = IDENTIFICATION_ROLE ( 'external document id and location', $) ;
#99 = APPROVAL_PERSON_ORGANIZATION ( #130, #312, #376 ) ;
#100 = COORDINATED_UNIVERSAL_TIME_OFFSET ( 10, 0, .AHEAD. ) ;
#101 = APPROVAL ( #134, 'Coincident' ) ;
#102 = DATE_AND_TIME ( #290, #378 ) ;
#103 = APPROVAL_STATUS ( 'not_yet_approved' ) ;
#104 = LOCAL_TIME ( 18, 49, 56.00000000000000000, #126 ) ;
#105 = PERSON_AND_ORGANIZATION_ROLE ( 'creator' ) ;
#106 = PROPERTY_DEFINITION ('external definition','', #131 ) ;
#107 = DATE_TIME_ROLE ( 'classification_date' ) ;
#108 = PRODUCT_DEFINITION_SHAPE ( 'NONE', 'NONE',  #374 ) ;
#109 =( NAMED_UNIT ( * ) SI_UNIT ( $, .STERADIAN. ) SOLID_ANGLE_UNIT ( ) );
#110 = PROPERTY_DEFINITION_REPRESENTATION ( #366, #129 ) ;
#111 =( GEOMETRIC_REPRESENTATION_CONTEXT ( 3 ) GLOBAL_UNCERTAINTY_ASSIGNED_CONTEXT ( ( #123 ) ) GLOBAL_UNIT_ASSIGNED_CONTEXT ( ( #327, #1, #323 ) ) REPRESENTATION_CONTEXT ( 'NONE', 'WORKASPACE' ) );
#112 = LOCAL_TIME ( 18, 49, 56.00000000000000000, #249 ) ;
#113 = CALENDAR_DATE ( 2026, 22, 6 ) ;
#114 = APPROVAL ( #178, 'Coincident' ) ;
#115 = APPROVAL_STATUS ( 'not_yet_approved' ) ;
#116 = PERSON_AND_ORGANIZATION ( #18446744073709551615, #18446744073709551615 ) ;
#117 =( GEOMETRIC_REPRESENTATION_CONTEXT ( 3 ) GLOBAL_UNCERTAINTY_ASSIGNED_CONTEXT ( ( #245 ) ) GLOBAL_UNIT_ASSIGNED_CONTEXT ( ( #287, #76, #160 ) ) REPRESENTATION_CONTEXT ( 'NONE', 'WORKASPACE' ) );
#118 = PERSON_AND_ORGANIZATION_ROLE ( 'creator' ) ;
#119 = CC_DESIGN_APPROVAL ( #223, ( #194 ) ) ;
#120 = EXTERNAL_SOURCE (IDENTIFIER('') ) ;
#121 = DATE_TIME_ROLE ( 'creation_date' ) ;
#122 = DIRECTION ( 'NONE',  ( 1.000000000000000222, -1.092455418989176591E-28, 4.890937612370273194E-29 ) ) ;
#123 = UNCERTAINTY_MEASURE_WITH_UNIT (LENGTH_MEASURE( 1.000000000000000082E-05 ), #327, 'distance_accuracy_value', 'NONE');
#124 = MECHANICAL_CONTEXT ( 'NONE', #318, 'mechanical' ) ;
#125 = LOCAL_TIME ( 18, 49, 56.00000000000000000, #177 ) ;
#126 = COORDINATED_UNIVERSAL_TIME_OFFSET ( 10, 0, .AHEAD. ) ;
#127 = CALENDAR_DATE ( 2026, 22, 6 ) ;
#128 = APPROVAL_DATE_TIME ( #8, #346 ) ;
#129 = SHAPE_REPRESENTATION ( '6461083056.step', ( #82 ), #117 ) ;
#130 = PERSON_AND_ORGANIZATION ( #18446744073709551615, #18446744073709551615 ) ;
#131 = DOCUMENT_FILE ( '6461082896.step.STEP' , '', '', #37, '' ,$ ) ;
#132 = APPROVAL_ROLE ( '' ) ;
#133 = PRODUCT_DEFINITION_FORMATION_WITH_SPECIFIED_SOURCE ( 'Symmetric', '', #228, .NOT_KNOWN. ) ;
#134 = APPROVAL_STATUS ( 'not_yet_approved' ) ;
#135 = PRODUCT_DEFINITION_SHAPE ( 'NONE', 'NONE',  #389 ) ;
#136 = PERSON_AND_ORGANIZATION_ROLE ( 'classification_officer' ) ;
#137 = OBJECT_ROLE ('mandatory',$ ) ;
#138 = CARTESIAN_POINT ( 'NONE',  ( 15.34999948117200397, 20.79999951171900818, -2.058321952820000078 ) ) ;
#139 = APPROVAL_PERSON_ORGANIZATION ( #31, #175, #269 ) ;
#140 = APPROVAL_DATE_TIME ( #291, #175 ) ;
#141 = PROPERTY_DEFINITION_REPRESENTATION ( #106, #168 ) ;
#142 = PERSON_AND_ORGANIZATION ( #18446744073709551615, #18446744073709551615 ) ;
#143 = CALENDAR_DATE ( 2026, 22, 6 ) ;
#144 = APPROVAL_PERSON_ORGANIZATION ( #352, #69, #355 ) ;
#145 = CALENDAR_DATE ( 2026, 22, 6 ) ;
#146 = LOCAL_TIME ( 18, 49, 56.00000000000000000, #45 ) ;
#147 = APPROVAL_STATUS ( 'not_yet_approved' ) ;
#148 = DATE_AND_TIME ( #11, #274 ) ;
#149 = CALENDAR_DATE ( 2026, 22, 6 ) ;
#150 = APPROVAL_PERSON_ORGANIZATION ( #311, #101, #132 ) ;
#151 = PERSON_AND_ORGANIZATION_ROLE ( 'design_owner' ) ;
#152 = PERSON_AND_ORGANIZATION ( #18446744073709551615, #18446744073709551615 ) ;
#153 = DOCUMENT_TYPE ( 'geometry' ) ;
#154 = MECHANICAL_CONTEXT ( 'NONE', #260, 'mechanical' ) ;
#155 = LOCAL_TIME ( 18, 49, 56.00000000000000000, #56 ) ;
#156 = CONTEXT_DEPENDENT_SHAPE_REPRESENTATION ( #343, #135 ) ;
#157 = CC_DESIGN_PERSON_AND_ORGANIZATION_ASSIGNMENT ( #116, #357, ( #162 ) ) ;
#158 = APPROVAL_STATUS ( 'not_yet_approved' ) ;
#159 = CALENDAR_DATE ( 2026, 22, 6 ) ;
#160 =( NAMED_UNIT ( * ) SI_UNIT ( $, .STERADIAN. ) SOLID_ANGLE_UNIT ( ) );
#161 = PRODUCT ( '6461083056.step', '6461083056.step', '', ( #124 ) ) ;
#162 = PRODUCT_DEFINITION_FORMATION_WITH_SPECIFIED_SOURCE ( 'Symmetric', '', #255, .NOT_KNOWN. ) ;
#163 = LOCAL_TIME ( 18, 49, 56.00000000000000000, #164 ) ;
#164 = COORDINATED_UNIVERSAL_TIME_OFFSET ( 10, 0, .AHEAD. ) ;
#165 = CARTESIAN_POINT ( 'NONE',  ( 0.000000000000000000, 0.000000000000000000, 0.000000000000000000 ) ) ;
#166 = DESIGN_CONTEXT ( 'detailed design', #336, 'design' ) ;
#167 = DATE_AND_TIME ( #159, #146 ) ;
#168 = SHAPE_REPRESENTATION ( '6461082896.step', ( #332 ), #190 ) ;
#169 = DATE_AND_TIME ( #25, #325 ) ;
#170 = LOCAL_TIME ( 18, 49, 56.00000000000000000, #297 ) ;
#171 = DIRECTION ( 'NONE',  ( 1.000000000000000000, 0.000000000000000000, 0.000000000000000000 ) ) ;
#172 = DOCUMENT_FILE ( '6461083056.step.STEP' , '', '', #358, '' ,$ ) ;
#173 = APPROVAL_STATUS ( 'not_yet_approved' ) ;
#174 = APPLICATION_CONTEXT ( 'configuration controlled 3d designs of mechanical parts and assemblies' ) ;
#175 = APPROVAL ( #147, 'Coincident' ) ;
#176 = DATE_TIME_ROLE ( 'classification_date' ) ;
#177 = COORDINATED_UNIVERSAL_TIME_OFFSET ( 10, 0, .AHEAD. ) ;
#178 = APPROVAL_STATUS ( 'not_yet_approved' ) ;
#179 = CC_DESIGN_DATE_AND_TIME_ASSIGNMENT ( #49, #107, ( #382 ) ) ;
#180 = APPROVAL_STATUS ( 'not_yet_approved' ) ;
#181 = CC_DESIGN_SECURITY_CLASSIFICATION ( #53, ( #133 ) ) ;
#182 = PERSON_AND_ORGANIZATION ( #18446744073709551615, #18446744073709551615 ) ;
#183 = CALENDAR_DATE ( 2026, 22, 6 ) ;
#184 = CALENDAR_DATE ( 2026, 22, 6 ) ;
#185 = APPLIED_EXTERNAL_IDENTIFICATION_ASSIGNMENT ( '6461083056.step.STEP' , #98, #279,( #172) ) ;
#186 = PRODUCT_DEFINITION_SHAPE ( 'NONE', 'NONE',  #2 ) ;
#187 = DATE_AND_TIME ( #258, #326 ) ;
#188 = DIRECTION ( 'NONE',  ( 1.000000000000000000, 0.000000000000000000, 0.000000000000000000 ) ) ;
#189 = APPROVAL_DATE_TIME ( #254, #101 ) ;
#190 =( GEOMETRIC_REPRESENTATION_CONTEXT ( 3 ) GLOBAL_UNCERTAINTY_ASSIGNED_CONTEXT ( ( #295 ) ) GLOBAL_UNIT_ASSIGNED_CONTEXT ( ( #283, #14, #109 ) ) REPRESENTATION_CONTEXT ( 'NONE', 'WORKASPACE' ) );
#191 = CC_DESIGN_PERSON_AND_ORGANIZATION_ASSIGNMENT ( #67, #70, ( #237 ) ) ;
#192 = IDENTIFICATION_ROLE ( 'external document id and location', $) ;
#193 = ORGANIZATION ( 'NAUO-ORG146', 'UNSPECIFIED', 'UNSPECIFIED' ) ;
#194 = SECURITY_CLASSIFICATION ( '', '', #296 ) ;
#195 = SECURITY_CLASSIFICATION_LEVEL ( 'unclassified' ) ;
#196 = DIRECTION ( 'NONE',  ( 0.000000000000000000, 0.000000000000000000, 1.000000000000000000 ) ) ;
#197 = PERSON_AND_ORGANIZATION_ROLE ( 'classification_officer' ) ;
#198 = COORDINATED_UNIVERSAL_TIME_OFFSET ( 10, 0, .AHEAD. ) ;
#199 = CC_DESIGN_PERSON_AND_ORGANIZATION_ASSIGNMENT ( #307, #94, ( #133 ) ) ;
#200 = PERSON_AND_ORGANIZATION ( #18446744073709551615, #18446744073709551615 ) ;
#201 = LOCAL_TIME ( 18, 49, 56.00000000000000000, #238 ) ;
#202 = PROPERTY_DEFINITION_REPRESENTATION ( #71, #168 ) ;
#203 = LOCAL_TIME ( 18, 49, 56.00000000000000000, #34 ) ;
#204 = DIRECTION ( 'NONE',  ( 1.000000000000000222, -1.092455418989176591E-28, 4.890937612370273194E-29 ) ) ;
#205 = PERSON_AND_ORGANIZATION ( #18446744073709551615, #18446744073709551615 ) ;
#206 = CC_DESIGN_PERSON_AND_ORGANIZATION_ASSIGNMENT ( #38, #334, ( #133 ) ) ;
#207 = APPLICATION_PROTOCOL_DEFINITION ( 'international standard', 'config_control_design', 1994, #174 ) ;
#208 = CC_DESIGN_PERSON_AND_ORGANIZATION_ASSIGNMENT ( #348, #354, ( #194 ) ) ;
#209 = LOCAL_TIME ( 18, 49, 56.00000000000000000, #286 ) ;
#210 = DATE_AND_TIME ( #183, #41 ) ;
#211 = CC_DESIGN_PERSON_AND_ORGANIZATION_ASSIGNMENT ( #284, #338, ( #382 ) ) ;
#212 = PERSON_AND_ORGANIZATION ( #18446744073709551615, #18446744073709551615 ) ;
#213 = ITEM_DEFINED_TRANSFORMATION ( 'NONE', 'NONE', #10,  #332 ) ;
#214 = COORDINATED_UNIVERSAL_TIME_OFFSET ( 10, 0, .AHEAD. ) ;
#215 = CC_DESIGN_DATE_AND_TIME_ASSIGNMENT ( #304, #385, ( #194 ) ) ;
#216 = DATE_AND_TIME ( #244, #125 ) ;
#217 = CC_DESIGN_APPROVAL ( #277, ( #162 ) ) ;
#218 = APPLIED_EXTERNAL_IDENTIFICATION_ASSIGNMENT ( '6461082896.step.STEP' , #64, #369,( #131) ) ;
#219 =( REPRESENTATION_RELATIONSHIP ('NONE','NONE', #60, #168 ) REPRESENTATION_RELATIONSHIP_WITH_TRANSFORMATION ( #213 )SHAPE_REPRESENTATION_RELATIONSHIP( ) );
#220 = APPROVAL_ROLE ( '' ) ;
#221 = CC_DESIGN_PERSON_AND_ORGANIZATION_ASSIGNMENT ( #233, #80, ( #255 ) ) ;
#222 = APPROVAL_DATE_TIME ( #375, #230 ) ;
#223 = APPROVAL ( #115, 'UNKNOWN' ) ;
#224 = PERSON_AND_ORGANIZATION_ROLE ( 'design_supplier' ) ;
#225 = CC_DESIGN_APPROVAL ( #69, ( #2 ) ) ;
#226 = CC_DESIGN_APPROVAL ( #346, ( #272 ) ) ;
#227 = ROLE_ASSOCIATION ( #137, #381 ) ;
#228 = PRODUCT ( '6461082896.step', '6461082896.step', '', ( #154 ) ) ;
#229 = CALENDAR_DATE ( 2026, 22, 6 ) ;
#230 = APPROVAL ( #158, 'UNKNOWN' ) ;
#231 = ITEM_DEFINED_TRANSFORMATION ( 'NONE', 'NONE', #361,  #332 ) ;
#232 = CC_DESIGN_APPROVAL ( #234, ( #374 ) ) ;
#233 = PERSON_AND_ORGANIZATION ( #18446744073709551615, #18446744073709551615 ) ;
#234 = APPROVAL ( #180, 'Coincident' ) ;
#235 = CALENDAR_DATE ( 2026, 22, 6 ) ;
#236 = DOCUMENT_FILE ( '6461082896.step.STEP' , '', '', #153, '' ,$ ) ;
#237 = SECURITY_CLASSIFICATION ( '', '', #195 ) ;
#238 = COORDINATED_UNIVERSAL_TIME_OFFSET ( 10, 0, .AHEAD. ) ;
#239 = CC_DESIGN_PERSON_AND_ORGANIZATION_ASSIGNMENT ( #205, #197, ( #370 ) ) ;
#240 = APPLICATION_CONTEXT ( 'configuration controlled 3d designs of mechanical parts and assemblies' ) ;
#241 = COORDINATED_UNIVERSAL_TIME_OFFSET ( 10, 0, .AHEAD. ) ;
#242 = DATE_AND_TIME ( #143, #170 ) ;
#243 = CC_DESIGN_APPROVAL ( #230, ( #237 ) ) ;
#244 = CALENDAR_DATE ( 2026, 22, 6 ) ;
#245 = UNCERTAINTY_MEASURE_WITH_UNIT (LENGTH_MEASURE( 1.000000000000000082E-05 ), #287, 'distance_accuracy_value', 'NONE');
#246 = PERSON_AND_ORGANIZATION ( #18446744073709551615, #18446744073709551615 ) ;
#247 = PROPERTY_DEFINITION ('external definition','', #172 ) ;
#248 = PERSON_AND_ORGANIZATION ( #18446744073709551615, #18446744073709551615 ) ;
#249 = COORDINATED_UNIVERSAL_TIME_OFFSET ( 10, 0, .AHEAD. ) ;
#250 = AXIS2_PLACEMENT_3D ( 'NONE', #138, #86, #122 ) ;
#251 = PERSON_AND_ORGANIZATION ( #18446744073709551615, #18446744073709551615 ) ;
#252 = DATE_TIME_ROLE ( 'classification_date' ) ;
#253 = CC_DESIGN_DATE_AND_TIME_ASSIGNMENT ( #210, #367, ( #272 ) ) ;
#254 = DATE_AND_TIME ( #184, #209 ) ;
#255 = PRODUCT ( 'R17.step', 'R17.step', '', ( #380 ) ) ;
#256 = CC_DESIGN_APPROVAL ( #101, ( #382 ) ) ;
#257 = APPROVAL_STATUS ( 'not_yet_approved' ) ;
#258 = CALENDAR_DATE ( 2026, 22, 6 ) ;
#259 = DIRECTION ( 'NONE',  ( 0.000000000000000000, 0.000000000000000000, 1.000000000000000000 ) ) ;
#260 = APPLICATION_CONTEXT ( 'configuration controlled 3d designs of mechanical parts and assemblies' ) ;
#261 = CC_DESIGN_DATE_AND_TIME_ASSIGNMENT ( #52, #176, ( #370 ) ) ;
#262 = APPROVAL_PERSON_ORGANIZATION ( #248, #39, #7 ) ;
#263 = APPROVAL_ROLE ( '' ) ;
#264 = APPROVAL_DATE_TIME ( #242, #69 ) ;
#265 = PROPERTY_DEFINITION_REPRESENTATION ( #285, #168 ) ;
#266 = DIRECTION ( 'NONE',  ( 4.890937612370273194E-29, -3.155443620884047222E-30, 0.9999999999999997780 ) ) ;
#267 = SECURITY_CLASSIFICATION_LEVEL ( 'unclassified' ) ;
#268 = CC_DESIGN_APPROVAL ( #4, ( #310 ) ) ;
#269 = APPROVAL_ROLE ( '' ) ;
#270 = COORDINATED_UNIVERSAL_TIME_OFFSET ( 10, 0, .AHEAD. ) ;
#271 = APPROVAL_ROLE ( '' ) ;
#272 = PRODUCT_DEFINITION ( 'General', '', #133, #78 ) ;
#273 = PERSON ( 'NAUO-PER145', 'UNSPECIFIED', 'UNSPECIFIED', ('UNSPECIFIED'), ('UNSPECIFIED'), ('UNSPECIFIED') ) ;
#274 = LOCAL_TIME ( 18, 49, 56.00000000000000000, #214 ) ;
#275 = COORDINATED_UNIVERSAL_TIME_OFFSET ( 10, 0, .AHEAD. ) ;
#276 = APPLICATION_PROTOCOL_DEFINITION ( 'international standard', 'config_control_design', 1994, #299 ) ;
#277 = APPROVAL ( #85, 'Coincident' ) ;
#278 = APPROVAL_DATE_TIME ( #59, #39 ) ;
#279 = EXTERNAL_SOURCE (IDENTIFIER('') ) ;
#280 = CALENDAR_DATE ( 2026, 22, 6 ) ;
#281 = CC_DESIGN_APPROVAL ( #114, ( #133 ) ) ;
#282 = PERSON_AND_ORGANIZATION ( #18446744073709551615, #18446744073709551615 ) ;
#283 =( LENGTH_UNIT ( ) NAMED_UNIT ( * ) SI_UNIT ( .MILLI., .METRE. ) );
#284 = PERSON_AND_ORGANIZATION ( #18446744073709551615, #18446744073709551615 ) ;
#285 = PROPERTY_DEFINITION ('document property','', #236 ) ;
#286 = COORDINATED_UNIVERSAL_TIME_OFFSET ( 10, 0, .AHEAD. ) ;
#287 =( LENGTH_UNIT ( ) NAMED_UNIT ( * ) SI_UNIT ( .MILLI., .METRE. ) );
#288 = CC_DESIGN_SECURITY_CLASSIFICATION ( #194, ( #390 ) ) ;
#289 = SECURITY_CLASSIFICATION_LEVEL ( 'unclassified' ) ;
#290 = CALENDAR_DATE ( 2026, 22, 6 ) ;
#291 = DATE_AND_TIME ( #3, #68 ) ;
#292 = OBJECT_ROLE ('mandatory',$ ) ;
#293 = APPROVAL_PERSON_ORGANIZATION ( #308, #114, #220 ) ;
#294 = PERSON_AND_ORGANIZATION ( #18446744073709551615, #18446744073709551615 ) ;
#295 = UNCERTAINTY_MEASURE_WITH_UNIT (LENGTH_MEASURE( 1.000000000000000082E-05 ), #283, 'distance_accuracy_value', 'NONE');
#296 = SECURITY_CLASSIFICATION_LEVEL ( 'unclassified' ) ;
#297 = COORDINATED_UNIVERSAL_TIME_OFFSET ( 10, 0, .AHEAD. ) ;
#298 = DIRECTION ( 'NONE',  ( 1.000000000000000222, -1.092455418989176591E-28, 4.890937612370273194E-29 ) ) ;
#299 = APPLICATION_CONTEXT ( 'configuration controlled 3d designs of mechanical parts and assemblies' ) ;
#300 = DIRECTION ( 'NONE',  ( 4.890937612370273194E-29, -3.155443620884047222E-30, 0.9999999999999997780 ) ) ;
#301 = DATE_AND_TIME ( #127, #203 ) ;
#302 = CC_DESIGN_DATE_AND_TIME_ASSIGNMENT ( #169, #121, ( #2 ) ) ;
#303 = SHAPE_DEFINITION_REPRESENTATION ( #186, #60 ) ;
#304 = DATE_AND_TIME ( #235, #371 ) ;
#305 = CC_DESIGN_SECURITY_CLASSIFICATION ( #370, ( #162 ) ) ;
#306 = SECURITY_CLASSIFICATION_LEVEL ( 'unclassified' ) ;
#307 = PERSON_AND_ORGANIZATION ( #18446744073709551615, #18446744073709551615 ) ;
#308 = PERSON_AND_ORGANIZATION ( #18446744073709551615, #18446744073709551615 ) ;
#309 = DATE_TIME_ROLE ( 'classification_date' ) ;
#310 = SECURITY_CLASSIFICATION ( '', '', #75 ) ;
#311 = PERSON_AND_ORGANIZATION ( #18446744073709551615, #18446744073709551615 ) ;
#312 = APPROVAL ( #103, 'Coincident' ) ;
#313 = APPROVAL_DATE_TIME ( #187, #312 ) ;
#314 = COORDINATED_UNIVERSAL_TIME_OFFSET ( 10, 0, .AHEAD. ) ;
#315 = CC_DESIGN_APPROVAL ( #175, ( #370 ) ) ;
#316 = CC_DESIGN_DATE_AND_TIME_ASSIGNMENT ( #148, #5, ( #53 ) ) ;
#317 = ITEM_DEFINED_TRANSFORMATION ( 'NONE', 'NONE', #250,  #82 ) ;
#318 = APPLICATION_CONTEXT ( 'configuration controlled 3d designs of mechanical parts and assemblies' ) ;
#319 = CARTESIAN_POINT ( 'NONE',  ( 0.000000000000000000, 0.000000000000000000, 0.000000000000000000 ) ) ;
#320 = CC_DESIGN_PERSON_AND_ORGANIZATION_ASSIGNMENT ( #13, #136, ( #310 ) ) ;
#321 = APPROVAL_DATE_TIME ( #93, #223 ) ;
#322 = PROPERTY_DEFINITION_REPRESENTATION ( #344, #168 ) ;
#323 =( NAMED_UNIT ( * ) SI_UNIT ( $, .STERADIAN. ) SOLID_ANGLE_UNIT ( ) );
#324 = CC_DESIGN_PERSON_AND_ORGANIZATION_ASSIGNMENT ( #246, #331, ( #53 ) ) ;
#325 = LOCAL_TIME ( 18, 49, 56.00000000000000000, #241 ) ;
#326 = LOCAL_TIME ( 18, 49, 56.00000000000000000, #342 ) ;
#327 =( LENGTH_UNIT ( ) NAMED_UNIT ( * ) SI_UNIT ( .MILLI., .METRE. ) );
#328 = PRODUCT_DEFINITION_FORMATION_WITH_SPECIFIED_SOURCE ( 'Symmetric', '', #161, .NOT_KNOWN. ) ;
#329 = APPROVAL_DATE_TIME ( #301, #114 ) ;
#330 = PERSON_AND_ORGANIZATION ( #18446744073709551615, #18446744073709551615 ) ;
#331 = PERSON_AND_ORGANIZATION_ROLE ( 'classification_officer' ) ;
#332 = AXIS2_PLACEMENT_3D ( 'NONE', #319, #43, #19 ) ;
#333 = CC_DESIGN_APPROVAL ( #39, ( #53 ) ) ;
#334 = PERSON_AND_ORGANIZATION_ROLE ( 'creator' ) ;
#335 = CALENDAR_DATE ( 2026, 22, 6 ) ;
#336 = APPLICATION_CONTEXT ( 'configuration controlled 3d designs of mechanical parts and assemblies' ) ;
#337 = APPROVAL_ROLE ( '' ) ;
#338 = PERSON_AND_ORGANIZATION_ROLE ( 'classification_officer' ) ;
#339 = APPROVAL_PERSON_ORGANIZATION ( #182, #346, #271 ) ;
#340 = LOCAL_TIME ( 18, 49, 56.00000000000000000, #314 ) ;
#341 = PRODUCT_DEFINITION_SHAPE ( 'NONE', 'NONE',  #272 ) ;
#342 = COORDINATED_UNIVERSAL_TIME_OFFSET ( 10, 0, .AHEAD. ) ;
#343 =( REPRESENTATION_RELATIONSHIP ('NONE','NONE', #60, #168 ) REPRESENTATION_RELATIONSHIP_WITH_TRANSFORMATION ( #231 )SHAPE_REPRESENTATION_RELATIONSHIP( ) );
#344 = PROPERTY_DEFINITION ('external definition','', #236 ) ;
#345 = APPLICATION_PROTOCOL_DEFINITION ( 'international standard', 'config_control_design', 1994, #240 ) ;
#346 = APPROVAL ( #61, 'Coincident' ) ;
#347 = CC_DESIGN_DATE_AND_TIME_ASSIGNMENT ( #102, #309, ( #237 ) ) ;
#348 = PERSON_AND_ORGANIZATION ( #87, #193 ) ;
#349 = CARTESIAN_POINT ( 'NONE',  ( 0.000000000000000000, 0.000000000000000000, 0.000000000000000000 ) ) ;
#350 = CC_DESIGN_PERSON_AND_ORGANIZATION_ASSIGNMENT ( #282, #224, ( #328 ) ) ;
#351 = ROLE_ASSOCIATION ( #73, #365 ) ;
#352 = PERSON_AND_ORGANIZATION ( #18446744073709551615, #18446744073709551615 ) ;
#353 = APPROVAL_PERSON_ORGANIZATION ( #67, #230, #337 ) ;
#354 = PERSON_AND_ORGANIZATION_ROLE ( 'classification_officer' ) ;
#355 = APPROVAL_ROLE ( '' ) ;
#356 = DESIGN_CONTEXT ( 'detailed design', #174, 'design' ) ;
#357 = PERSON_AND_ORGANIZATION_ROLE ( 'design_supplier' ) ;
#358 = DOCUMENT_TYPE ( 'geometry' ) ;
#359 = PRODUCT_RELATED_PRODUCT_CATEGORY ( 'detail', '', ( #228 ) ) ;
#360 = PERSON_AND_ORGANIZATION_ROLE ( 'creator' ) ;
#361 = AXIS2_PLACEMENT_3D ( 'NONE', #386, #300, #204 ) ;
#362 = PRODUCT_RELATED_PRODUCT_CATEGORY ( 'detail', '', ( #161 ) ) ;
#363 = ORGANIZATION ( 'NAUO-ORG144', 'UNSPECIFIED', 'UNSPECIFIED' ) ;
#364 = APPROVAL_DATE_TIME ( #216, #234 ) ;
#365 = APPLIED_DOCUMENT_REFERENCE ( #131,'',( #272) ) ;
#366 = PROPERTY_DEFINITION ('document property','', #172 ) ;
#367 = DATE_TIME_ROLE ( 'creation_date' ) ;
#368 = APPLICATION_PROTOCOL_DEFINITION ( 'international standard', 'config_control_design', 1994, #318 ) ;
#369 = EXTERNAL_SOURCE (IDENTIFIER('') ) ;
#370 = SECURITY_CLASSIFICATION ( '', '', #267 ) ;
#371 = LOCAL_TIME ( 18, 49, 56.00000000000000000, #79 ) ;
#372 = PERSON_AND_ORGANIZATION ( #18446744073709551615, #18446744073709551615 ) ;
#373 = CALENDAR_DATE ( 2026, 22, 6 ) ;
#374 = PRODUCT_DEFINITION ( 'General', '', #328, #166 ) ;
#375 = DATE_AND_TIME ( #373, #18 ) ;
#376 = APPROVAL_ROLE ( '' ) ;
#377 = APPROVAL_PERSON_ORGANIZATION ( #142, #277, #83 ) ;
#378 = LOCAL_TIME ( 18, 49, 56.00000000000000000, #42 ) ;
#379 = CONTEXT_DEPENDENT_SHAPE_REPRESENTATION ( #55, #46 ) ;
#380 = MECHANICAL_CONTEXT ( 'NONE', #240, 'mechanical' ) ;
#381 = APPLIED_DOCUMENT_REFERENCE ( #172,'',( #374) ) ;
#382 = SECURITY_CLASSIFICATION ( '', '', #289 ) ;
#383 = CARTESIAN_POINT ( 'NONE',  ( 15.84999948117200930, 20.79999951171900818, -2.058321952820000078 ) ) ;
#384 = CC_DESIGN_PERSON_AND_ORGANIZATION_ASSIGNMENT ( #372, #360, ( #272 ) ) ;
#385 = DATE_TIME_ROLE ( 'classification_date' ) ;
#386 = CARTESIAN_POINT ( 'NONE',  ( 14.84999948117200397, 20.79999951171900818, -2.058321952819998302 ) ) ;
#387 = ORGANIZATION ( 'NAUO-ORG145', 'UNSPECIFIED', 'UNSPECIFIED' ) ;
#388 = NEXT_ASSEMBLY_USAGE_OCCURRENCE ( 'NAUO144', ' ', ' ', #2, #374, $ ) ;
#389 = NEXT_ASSEMBLY_USAGE_OCCURRENCE ( 'NAUO145', ' ', ' ', #2, #272, $ ) ;
#390 = NEXT_ASSEMBLY_USAGE_OCCURRENCE ( 'NAUO146', ' ', ' ', #2, #272, $ ) ;
ENDSEC;
END-ISO-10303-21;
