ISO-10303-21;
HEADER;
FILE_DESCRIPTION (( 'STEP AP203' ),
    '1' );
FILE_NAME ('R18.step.STEP',
    '2026-06-22T08:49:56',
    ( 'localuser' ),
    ( '' ),
    'SwSTEP 2.0',
    'SolidWorks 2025',
    '' );
FILE_SCHEMA (( 'CONFIG_CONTROL_DESIGN' ));
ENDSEC;

DATA;
#1 = ROLE_ASSOCIATION ( #291, #352 ) ;
#2 = APPROVAL ( #171, 'Coincident' ) ;
#3 = COORDINATED_UNIVERSAL_TIME_OFFSET ( 10, 0, .AHEAD. ) ;
#4 = CC_DESIGN_PERSON_AND_ORGANIZATION_ASSIGNMENT ( #288, #217, ( #350 ) ) ;
#5 = CALENDAR_DATE ( 2026, 22, 6 ) ;
#6 = SECURITY_CLASSIFICATION ( '', '', #143 ) ;
#7 = PERSON_AND_ORGANIZATION_ROLE ( 'classification_officer' ) ;
#8 = CALENDAR_DATE ( 2026, 22, 6 ) ;
#9 = CALENDAR_DATE ( 2026, 22, 6 ) ;
#10 = APPROVAL_PERSON_ORGANIZATION ( #231, #290, #320 ) ;
#11 = APPROVAL_STATUS ( 'not_yet_approved' ) ;
#12 = APPROVAL ( #153, 'Coincident' ) ;
#13 = PERSON_AND_ORGANIZATION_ROLE ( 'classification_officer' ) ;
#14 = CARTESIAN_POINT ( 'NONE',  ( 1.200001769989999856, 11.44999340820300304, -2.058321952820000078 ) ) ;
#15 = DATE_AND_TIME ( #186, #220 ) ;
#16 = DATE_AND_TIME ( #166, #274 ) ;
#17 = SECURITY_CLASSIFICATION ( '', '', #372 ) ;
#18 =( NAMED_UNIT ( * ) SI_UNIT ( $, .STERADIAN. ) SOLID_ANGLE_UNIT ( ) );
#19 = PRODUCT_DEFINITION_SHAPE ( 'NONE', 'NONE',  #389 ) ;
#20 =( REPRESENTATION_RELATIONSHIP ('NONE','NONE', #100, #34 ) REPRESENTATION_RELATIONSHIP_WITH_TRANSFORMATION ( #71 )SHAPE_REPRESENTATION_RELATIONSHIP( ) );
#21 = SHAPE_DEFINITION_REPRESENTATION ( #185, #34 ) ;
#22 = DIRECTION ( 'NONE',  ( 4.890937612370273194E-29, -3.155443620884047222E-30, 0.9999999999999997780 ) ) ;
#23 = LOCAL_TIME ( 18, 49, 56.00000000000000000, #328 ) ;
#24 = APPROVAL_ROLE ( '' ) ;
#25 = SECURITY_CLASSIFICATION_LEVEL ( 'unclassified' ) ;
#26 = CALENDAR_DATE ( 2026, 22, 6 ) ;
#27 = LOCAL_TIME ( 18, 49, 56.00000000000000000, #88 ) ;
#28 = PERSON_AND_ORGANIZATION ( #18446744073709551615, #18446744073709551615 ) ;
#29 = APPROVAL_DATE_TIME ( #176, #374 ) ;
#30 = CC_DESIGN_DATE_AND_TIME_ASSIGNMENT ( #361, #89, ( #80 ) ) ;
#31 = DATE_AND_TIME ( #304, #363 ) ;
#32 = ORGANIZATION ( 'NAUO-ORG143', 'UNSPECIFIED', 'UNSPECIFIED' ) ;
#33 = APPLICATION_PROTOCOL_DEFINITION ( 'international standard', 'config_control_design', 1994, #369 ) ;
#34 = SHAPE_REPRESENTATION ( '6534431024.step', ( #332 ), #163 ) ;
#35 = EXTERNAL_SOURCE (IDENTIFIER('') ) ;
#36 = DATE_AND_TIME ( #275, #120 ) ;
#37 = PRODUCT_RELATED_PRODUCT_CATEGORY ( 'detail', '', ( #106 ) ) ;
#38 = PERSON_AND_ORGANIZATION_ROLE ( 'creator' ) ;
#39 = CC_DESIGN_APPROVAL ( #12, ( #80 ) ) ;
#40 = APPROVAL_ROLE ( '' ) ;
#41 = PERSON_AND_ORGANIZATION ( #18446744073709551615, #18446744073709551615 ) ;
#42 = ITEM_DEFINED_TRANSFORMATION ( 'NONE', 'NONE', #90,  #272 ) ;
#43 = PRODUCT_DEFINITION_SHAPE ( 'NONE', 'NONE',  #390 ) ;
#44 = PROPERTY_DEFINITION_REPRESENTATION ( #366, #34 ) ;
#45 = APPROVAL ( #105, 'UNKNOWN' ) ;
#46 = PRODUCT_DEFINITION_SHAPE ( 'NONE', 'NONE',  #388 ) ;
#47 = APPROVAL_DATE_TIME ( #104, #207 ) ;
#48 = APPROVAL_PERSON_ORGANIZATION ( #95, #310, #364 ) ;
#49 = COORDINATED_UNIVERSAL_TIME_OFFSET ( 10, 0, .AHEAD. ) ;
#50 = CC_DESIGN_PERSON_AND_ORGANIZATION_ASSIGNMENT ( #141, #294, ( #197 ) ) ;
#51 = PERSON_AND_ORGANIZATION_ROLE ( 'design_supplier' ) ;
#52 = DIRECTION ( 'NONE',  ( 0.000000000000000000, 0.000000000000000000, 1.000000000000000000 ) ) ;
#53 = LOCAL_TIME ( 18, 49, 56.00000000000000000, #49 ) ;
#54 = PERSON_AND_ORGANIZATION_ROLE ( 'design_owner' ) ;
#55 = PRODUCT_DEFINITION ( 'General', '', #323, #383 ) ;
#56 = OBJECT_ROLE ('mandatory',$ ) ;
#57 = DESIGN_CONTEXT ( 'detailed design', #369, 'design' ) ;
#58 = CC_DESIGN_PERSON_AND_ORGANIZATION_ASSIGNMENT ( #107, #13, ( #380 ) ) ;
#59 = APPROVAL_ROLE ( '' ) ;
#60 = SECURITY_CLASSIFICATION ( '', '', #25 ) ;
#61 = APPROVAL_PERSON_ORGANIZATION ( #378, #351, #40 ) ;
#62 = COORDINATED_UNIVERSAL_TIME_OFFSET ( 10, 0, .AHEAD. ) ;
#63 = CALENDAR_DATE ( 2026, 22, 6 ) ;
#64 = PRODUCT_RELATED_PRODUCT_CATEGORY ( 'detail', '', ( #162 ) ) ;
#65 = DATE_AND_TIME ( #245, #307 ) ;
#66 = CC_DESIGN_APPROVAL ( #351, ( #255 ) ) ;
#67 = APPROVAL_STATUS ( 'not_yet_approved' ) ;
#68 = DATE_AND_TIME ( #9, #103 ) ;
#69 = CONTEXT_DEPENDENT_SHAPE_REPRESENTATION ( #279, #19 ) ;
#70 = LOCAL_TIME ( 18, 49, 56.00000000000000000, #179 ) ;
#71 = ITEM_DEFINED_TRANSFORMATION ( 'NONE', 'NONE', #262,  #332 ) ;
#72 = CC_DESIGN_PERSON_AND_ORGANIZATION_ASSIGNMENT ( #28, #269, ( #223 ) ) ;
#73 = CALENDAR_DATE ( 2026, 22, 6 ) ;
#74 = PROPERTY_DEFINITION ('document property','', #182 ) ;
#75 = PERSON_AND_ORGANIZATION_ROLE ( 'classification_officer' ) ;
#76 = DOCUMENT_TYPE ( 'geometry' ) ;
#77 = LOCAL_TIME ( 18, 49, 56.00000000000000000, #3 ) ;
#78 = DATE_AND_TIME ( #160, #53 ) ;
#79 = PRODUCT_DEFINITION_FORMATION_WITH_SPECIFIED_SOURCE ( 'Symmetric', '', #162, .NOT_KNOWN. ) ;
#80 = PRODUCT_DEFINITION ( 'General', '', #79, #57 ) ;
#81 = DIRECTION ( 'NONE',  ( 1.000000000000000222, -1.092455418989176591E-28, 4.890937612370273194E-29 ) ) ;
#82 = PROPERTY_DEFINITION_REPRESENTATION ( #345, #293 ) ;
#83 = PERSON_AND_ORGANIZATION ( #18446744073709551615, #18446744073709551615 ) ;
#84 = PERSON_AND_ORGANIZATION ( #18446744073709551615, #18446744073709551615 ) ;
#85 = APPLIED_EXTERNAL_IDENTIFICATION_ASSIGNMENT ( '6461079856.step.STEP' , #319, #155,( #158) ) ;
#86 = DATE_AND_TIME ( #233, #248 ) ;
#87 = CC_DESIGN_PERSON_AND_ORGANIZATION_ASSIGNMENT ( #231, #356, ( #6 ) ) ;
#88 = COORDINATED_UNIVERSAL_TIME_OFFSET ( 10, 0, .AHEAD. ) ;
#89 = DATE_TIME_ROLE ( 'creation_date' ) ;
#90 = AXIS2_PLACEMENT_3D ( 'NONE', #102, #376, #219 ) ;
#91 = CC_DESIGN_APPROVAL ( #381, ( #55 ) ) ;
#92 = CC_DESIGN_PERSON_AND_ORGANIZATION_ASSIGNMENT ( #305, #38, ( #80 ) ) ;
#93 = PERSON_AND_ORGANIZATION ( #18446744073709551615, #18446744073709551615 ) ;
#94 = APPLICATION_PROTOCOL_DEFINITION ( 'international standard', 'config_control_design', 1994, #344 ) ;
#95 = PERSON_AND_ORGANIZATION ( #18446744073709551615, #18446744073709551615 ) ;
#96 = APPROVAL ( #11, 'Coincident' ) ;
#97 = OBJECT_ROLE ('mandatory',$ ) ;
#98 = APPROVAL_DATE_TIME ( #68, #12 ) ;
#99 = CONTEXT_DEPENDENT_SHAPE_REPRESENTATION ( #20, #46 ) ;
#100 = SHAPE_REPRESENTATION ( 'R18.step', ( #281, #262, #90, #168 ), #146 ) ;
#101 = PERSON_AND_ORGANIZATION ( #18446744073709551615, #18446744073709551615 ) ;
#102 = CARTESIAN_POINT ( 'NONE',  ( 1.200001769990000078, 10.94999340820300482, -2.058321952820000078 ) ) ;
#103 = LOCAL_TIME ( 18, 49, 56.00000000000000000, #215 ) ;
#104 = DATE_AND_TIME ( #249, #126 ) ;
#105 = APPROVAL_STATUS ( 'not_yet_approved' ) ;
#106 = PRODUCT ( 'R18.step', 'R18.step', '', ( #308 ) ) ;
#107 = PERSON_AND_ORGANIZATION ( #273, #327 ) ;
#108 = CC_DESIGN_SECURITY_CLASSIFICATION ( #380, ( #388 ) ) ;
#109 = DATE_AND_TIME ( #267, #198 ) ;
#110 =( NAMED_UNIT ( * ) PLANE_ANGLE_UNIT ( ) SI_UNIT ( $, .RADIAN. ) );
#111 = CC_DESIGN_DATE_AND_TIME_ASSIGNMENT ( #15, #221, ( #255 ) ) ;
#112 =( LENGTH_UNIT ( ) NAMED_UNIT ( * ) SI_UNIT ( .MILLI., .METRE. ) );
#113 = CALENDAR_DATE ( 2026, 22, 6 ) ;
#114 = CC_DESIGN_APPROVAL ( #310, ( #17 ) ) ;
#115 =( REPRESENTATION_RELATIONSHIP ('NONE','NONE', #100, #293 ) REPRESENTATION_RELATIONSHIP_WITH_TRANSFORMATION ( #130 )SHAPE_REPRESENTATION_RELATIONSHIP( ) );
#116 = CALENDAR_DATE ( 2026, 22, 6 ) ;
#117 = APPLICATION_PROTOCOL_DEFINITION ( 'international standard', 'config_control_design', 1994, #359 ) ;
#118 = UNCERTAINTY_MEASURE_WITH_UNIT (LENGTH_MEASURE( 1.000000000000000082E-05 ), #222, 'distance_accuracy_value', 'NONE');
#119 = COORDINATED_UNIVERSAL_TIME_OFFSET ( 10, 0, .AHEAD. ) ;
#120 = LOCAL_TIME ( 18, 49, 56.00000000000000000, #151 ) ;
#121 = APPROVAL_DATE_TIME ( #36, #310 ) ;
#122 = CC_DESIGN_DATE_AND_TIME_ASSIGNMENT ( #357, #144, ( #60 ) ) ;
#123 = DATE_AND_TIME ( #8, #70 ) ;
#124 = DATE_AND_TIME ( #63, #183 ) ;
#125 = CC_DESIGN_APPROVAL ( #2, ( #197 ) ) ;
#126 = LOCAL_TIME ( 18, 49, 56.00000000000000000, #314 ) ;
#127 = PERSON_AND_ORGANIZATION ( #18446744073709551615, #18446744073709551615 ) ;
#128 = SECURITY_CLASSIFICATION_LEVEL ( 'unclassified' ) ;
#129 = DIRECTION ( 'NONE',  ( 4.890937612370273194E-29, -3.155443620884047222E-30, 0.9999999999999997780 ) ) ;
#130 = ITEM_DEFINED_TRANSFORMATION ( 'NONE', 'NONE', #168,  #272 ) ;
#131 = DIRECTION ( 'NONE',  ( 0.000000000000000000, 0.000000000000000000, 1.000000000000000000 ) ) ;
#132 = DATE_TIME_ROLE ( 'classification_date' ) ;
#133 = PROPERTY_DEFINITION ('external definition','', #182 ) ;
#134 = CARTESIAN_POINT ( 'NONE',  ( 0.000000000000000000, 0.000000000000000000, 0.000000000000000000 ) ) ;
#135 = SECURITY_CLASSIFICATION_LEVEL ( 'unclassified' ) ;
#136 = EXTERNAL_SOURCE (IDENTIFIER('') ) ;
#137 = CARTESIAN_POINT ( 'NONE',  ( 0.000000000000000000, 0.000000000000000000, 0.000000000000000000 ) ) ;
#138 = DATE_TIME_ROLE ( 'classification_date' ) ;
#139 = DIRECTION ( 'NONE',  ( 0.000000000000000000, 0.000000000000000000, 1.000000000000000000 ) ) ;
#140 = APPROVAL_PERSON_ORGANIZATION ( #210, #96, #335 ) ;
#141 = PERSON_AND_ORGANIZATION ( #18446744073709551615, #18446744073709551615 ) ;
#142 = APPLICATION_PROTOCOL_DEFINITION ( 'international standard', 'config_control_design', 1994, #235 ) ;
#143 = SECURITY_CLASSIFICATION_LEVEL ( 'unclassified' ) ;
#144 = DATE_TIME_ROLE ( 'classification_date' ) ;
#145 = APPROVAL_PERSON_ORGANIZATION ( #93, #381, #276 ) ;
#146 =( GEOMETRIC_REPRESENTATION_CONTEXT ( 3 ) GLOBAL_UNCERTAINTY_ASSIGNED_CONTEXT ( ( #326 ) ) GLOBAL_UNIT_ASSIGNED_CONTEXT ( ( #112, #110, #229 ) ) REPRESENTATION_CONTEXT ( 'NONE', 'WORKASPACE' ) );
#147 = PERSON_AND_ORGANIZATION ( #18446744073709551615, #18446744073709551615 ) ;
#148 = LOCAL_TIME ( 18, 49, 56.00000000000000000, #341 ) ;
#149 = APPROVAL_ROLE ( '' ) ;
#150 = APPROVAL_STATUS ( 'not_yet_approved' ) ;
#151 = COORDINATED_UNIVERSAL_TIME_OFFSET ( 10, 0, .AHEAD. ) ;
#152 = LOCAL_TIME ( 18, 49, 56.00000000000000000, #209 ) ;
#153 = APPROVAL_STATUS ( 'not_yet_approved' ) ;
#154 = PERSON_AND_ORGANIZATION ( #18446744073709551615, #18446744073709551615 ) ;
#155 = EXTERNAL_SOURCE (IDENTIFIER('') ) ;
#156 = PERSON_AND_ORGANIZATION_ROLE ( 'creator' ) ;
#157 = CC_DESIGN_SECURITY_CLASSIFICATION ( #60, ( #197 ) ) ;
#158 = DOCUMENT_FILE ( '6461079856.step.STEP' , '', '', #172, '' ,$ ) ;
#159 = PRODUCT_DEFINITION ( 'General', '', #197, #241 ) ;
#160 = CALENDAR_DATE ( 2026, 22, 6 ) ;
#161 = APPROVAL_DATE_TIME ( #338, #351 ) ;
#162 = PRODUCT ( '6534431024.step', '6534431024.step', '', ( #211 ) ) ;
#163 =( GEOMETRIC_REPRESENTATION_CONTEXT ( 3 ) GLOBAL_UNCERTAINTY_ASSIGNED_CONTEXT ( ( #237 ) ) GLOBAL_UNIT_ASSIGNED_CONTEXT ( ( #184, #313, #18 ) ) REPRESENTATION_CONTEXT ( 'NONE', 'WORKASPACE' ) );
#164 = CC_DESIGN_APPROVAL ( #290, ( #6 ) ) ;
#165 = PERSON_AND_ORGANIZATION_ROLE ( 'design_supplier' ) ;
#166 = CALENDAR_DATE ( 2026, 22, 6 ) ;
#167 = CARTESIAN_POINT ( 'NONE',  ( 1.200001769989999412, 11.94999340820300482, -2.058321952820000078 ) ) ;
#168 = AXIS2_PLACEMENT_3D ( 'NONE', #167, #22, #81 ) ;
#169 = APPROVAL_PERSON_ORGANIZATION ( #288, #45, #193 ) ;
#170 = COORDINATED_UNIVERSAL_TIME_OFFSET ( 10, 0, .AHEAD. ) ;
#171 = APPROVAL_STATUS ( 'not_yet_approved' ) ;
#172 = DOCUMENT_TYPE ( 'geometry' ) ;
#173 = CC_DESIGN_DATE_AND_TIME_ASSIGNMENT ( #354, #353, ( #159 ) ) ;
#174 = CC_DESIGN_SECURITY_CLASSIFICATION ( #350, ( #389 ) ) ;
#175 = MECHANICAL_CONTEXT ( 'NONE', #259, 'mechanical' ) ;
#176 = DATE_AND_TIME ( #5, #23 ) ;
#177 = DATE_TIME_ROLE ( 'classification_date' ) ;
#178 = CC_DESIGN_PERSON_AND_ORGANIZATION_ASSIGNMENT ( #154, #280, ( #162 ) ) ;
#179 = COORDINATED_UNIVERSAL_TIME_OFFSET ( 10, 0, .AHEAD. ) ;
#180 = COORDINATED_UNIVERSAL_TIME_OFFSET ( 10, 0, .AHEAD. ) ;
#181 = PERSON_AND_ORGANIZATION_ROLE ( 'design_supplier' ) ;
#182 = DOCUMENT_FILE ( '6461079856.step.STEP' , '', '', #76, '' ,$ ) ;
#183 = LOCAL_TIME ( 18, 49, 56.00000000000000000, #119 ) ;
#184 =( LENGTH_UNIT ( ) NAMED_UNIT ( * ) SI_UNIT ( .MILLI., .METRE. ) );
#185 = PRODUCT_DEFINITION_SHAPE ( 'NONE', 'NONE',  #80 ) ;
#186 = CALENDAR_DATE ( 2026, 22, 6 ) ;
#187 = DIRECTION ( 'NONE',  ( 1.000000000000000000, 0.000000000000000000, 0.000000000000000000 ) ) ;
#188 = CALENDAR_DATE ( 2026, 22, 6 ) ;
#189 = DIRECTION ( 'NONE',  ( 1.000000000000000000, 0.000000000000000000, 0.000000000000000000 ) ) ;
#190 = CC_DESIGN_APPROVAL ( #195, ( #159 ) ) ;
#191 = IDENTIFICATION_ROLE ( 'external document id and location', $) ;
#192 = CC_DESIGN_SECURITY_CLASSIFICATION ( #6, ( #390 ) ) ;
#193 = APPROVAL_ROLE ( '' ) ;
#194 = DOCUMENT_FILE ( '6534431024.step.STEP' , '', '', #336, '' ,$ ) ;
#195 = APPROVAL ( #295, 'Coincident' ) ;
#196 = APPROVAL_DATE_TIME ( #86, #234 ) ;
#197 = PRODUCT_DEFINITION_FORMATION_WITH_SPECIFIED_SOURCE ( 'Symmetric', '', #106, .NOT_KNOWN. ) ;
#198 = LOCAL_TIME ( 18, 49, 56.00000000000000000, #301 ) ;
#199 = DIRECTION ( 'NONE',  ( 1.000000000000000000, 0.000000000000000000, 0.000000000000000000 ) ) ;
#200 = SHAPE_DEFINITION_REPRESENTATION ( #254, #100 ) ;
#201 = PRODUCT_RELATED_PRODUCT_CATEGORY ( 'detail', '', ( #223 ) ) ;
#202 = DATE_AND_TIME ( #265, #370 ) ;
#203 = CC_DESIGN_DATE_AND_TIME_ASSIGNMENT ( #78, #373, ( #350 ) ) ;
#204 = CC_DESIGN_APPROVAL ( #45, ( #350 ) ) ;
#205 = PERSON_AND_ORGANIZATION ( #18446744073709551615, #18446744073709551615 ) ;
#206 = PERSON ( 'NAUO-PER142', 'UNSPECIFIED', 'UNSPECIFIED', ('UNSPECIFIED'), ('UNSPECIFIED'), ('UNSPECIFIED') ) ;
#207 = APPROVAL ( #285, 'UNKNOWN' ) ;
#208 = PERSON_AND_ORGANIZATION_ROLE ( 'creator' ) ;
#209 = COORDINATED_UNIVERSAL_TIME_OFFSET ( 10, 0, .AHEAD. ) ;
#210 = PERSON_AND_ORGANIZATION ( #18446744073709551615, #18446744073709551615 ) ;
#211 = MECHANICAL_CONTEXT ( 'NONE', #344, 'mechanical' ) ;
#212 =( GEOMETRIC_REPRESENTATION_CONTEXT ( 3 ) GLOBAL_UNCERTAINTY_ASSIGNED_CONTEXT ( ( #118 ) ) GLOBAL_UNIT_ASSIGNED_CONTEXT ( ( #222, #315, #349 ) ) REPRESENTATION_CONTEXT ( 'NONE', 'WORKASPACE' ) );
#213 = CC_DESIGN_APPROVAL ( #96, ( #323 ) ) ;
#214 = APPLICATION_CONTEXT ( 'configuration controlled 3d designs of mechanical parts and assemblies' ) ;
#215 = COORDINATED_UNIVERSAL_TIME_OFFSET ( 10, 0, .AHEAD. ) ;
#216 = CC_DESIGN_PERSON_AND_ORGANIZATION_ASSIGNMENT ( #334, #156, ( #55 ) ) ;
#217 = PERSON_AND_ORGANIZATION_ROLE ( 'classification_officer' ) ;
#218 = COORDINATED_UNIVERSAL_TIME_OFFSET ( 10, 0, .AHEAD. ) ;
#219 = DIRECTION ( 'NONE',  ( 1.000000000000000222, -1.092455418989176591E-28, 4.890937612370273194E-29 ) ) ;
#220 = LOCAL_TIME ( 18, 49, 56.00000000000000000, #258 ) ;
#221 = DATE_TIME_ROLE ( 'classification_date' ) ;
#222 =( LENGTH_UNIT ( ) NAMED_UNIT ( * ) SI_UNIT ( .MILLI., .METRE. ) );
#223 = PRODUCT ( '6461079856.step', '6461079856.step', '', ( #175 ) ) ;
#224 = APPROVAL_DATE_TIME ( #284, #45 ) ;
#225 = APPLIED_DOCUMENT_REFERENCE ( #182,'',( #55) ) ;
#226 = APPROVAL_PERSON_ORGANIZATION ( #205, #374, #270 ) ;
#227 = CC_DESIGN_PERSON_AND_ORGANIZATION_ASSIGNMENT ( #343, #165, ( #79 ) ) ;
#228 = DATE_AND_TIME ( #384, #152 ) ;
#229 =( NAMED_UNIT ( * ) SI_UNIT ( $, .STERADIAN. ) SOLID_ANGLE_UNIT ( ) );
#230 = APPROVAL_DATE_TIME ( #202, #195 ) ;
#231 = PERSON_AND_ORGANIZATION ( #385, #32 ) ;
#232 = APPROVAL_PERSON_ORGANIZATION ( #107, #207, #287 ) ;
#233 = CALENDAR_DATE ( 2026, 22, 6 ) ;
#234 = APPROVAL ( #266, 'Coincident' ) ;
#235 = APPLICATION_CONTEXT ( 'configuration controlled 3d designs of mechanical parts and assemblies' ) ;
#236 = PERSON_AND_ORGANIZATION ( #18446744073709551615, #18446744073709551615 ) ;
#237 = UNCERTAINTY_MEASURE_WITH_UNIT (LENGTH_MEASURE( 1.000000000000000082E-05 ), #184, 'distance_accuracy_value', 'NONE');
#238 = APPROVAL_DATE_TIME ( #289, #2 ) ;
#239 = APPROVAL_PERSON_ORGANIZATION ( #236, #234, #59 ) ;
#240 = APPROVAL_DATE_TIME ( #124, #381 ) ;
#241 = DESIGN_CONTEXT ( 'detailed design', #235, 'design' ) ;
#242 = PROPERTY_DEFINITION_REPRESENTATION ( #312, #293 ) ;
#243 = DATE_TIME_ROLE ( 'creation_date' ) ;
#244 = PROPERTY_DEFINITION ('external definition','', #194 ) ;
#245 = CALENDAR_DATE ( 2026, 22, 6 ) ;
#246 = APPROVAL_DATE_TIME ( #31, #96 ) ;
#247 = APPROVAL_PERSON_ORGANIZATION ( #268, #2, #149 ) ;
#248 = LOCAL_TIME ( 18, 49, 56.00000000000000000, #282 ) ;
#249 = CALENDAR_DATE ( 2026, 22, 6 ) ;
#250 = APPLIED_DOCUMENT_REFERENCE ( #194,'',( #80) ) ;
#251 = DIRECTION ( 'NONE',  ( 1.000000000000000222, -1.092455418989176591E-28, 4.890937612370273194E-29 ) ) ;
#252 = CC_DESIGN_PERSON_AND_ORGANIZATION_ASSIGNMENT ( #329, #181, ( #323 ) ) ;
#253 = PROPERTY_DEFINITION_REPRESENTATION ( #133, #293 ) ;
#254 = PRODUCT_DEFINITION_SHAPE ( 'NONE', 'NONE',  #159 ) ;
#255 = SECURITY_CLASSIFICATION ( '', '', #128 ) ;
#256 = PERSON_AND_ORGANIZATION_ROLE ( 'creator' ) ;
#257 = APPLICATION_PROTOCOL_DEFINITION ( 'international standard', 'config_control_design', 1994, #214 ) ;
#258 = COORDINATED_UNIVERSAL_TIME_OFFSET ( 10, 0, .AHEAD. ) ;
#259 = APPLICATION_CONTEXT ( 'configuration controlled 3d designs of mechanical parts and assemblies' ) ;
#260 = CONTEXT_DEPENDENT_SHAPE_REPRESENTATION ( #115, #43 ) ;
#261 = CC_DESIGN_PERSON_AND_ORGANIZATION_ASSIGNMENT ( #321, #358, ( #159 ) ) ;
#262 = AXIS2_PLACEMENT_3D ( 'NONE', #14, #129, #251 ) ;
#263 = CC_DESIGN_APPROVAL ( #234, ( #60 ) ) ;
#264 = PERSON_AND_ORGANIZATION_ROLE ( 'classification_officer' ) ;
#265 = CALENDAR_DATE ( 2026, 22, 6 ) ;
#266 = APPROVAL_STATUS ( 'not_yet_approved' ) ;
#267 = CALENDAR_DATE ( 2026, 22, 6 ) ;
#268 = PERSON_AND_ORGANIZATION ( #18446744073709551615, #18446744073709551615 ) ;
#269 = PERSON_AND_ORGANIZATION_ROLE ( 'design_owner' ) ;
#270 = APPROVAL_ROLE ( '' ) ;
#271 = CC_DESIGN_PERSON_AND_ORGANIZATION_ASSIGNMENT ( #101, #75, ( #255 ) ) ;
#272 = AXIS2_PLACEMENT_3D ( 'NONE', #346, #131, #189 ) ;
#273 = PERSON ( 'NAUO-PER141', 'UNSPECIFIED', 'UNSPECIFIED', ('UNSPECIFIED'), ('UNSPECIFIED'), ('UNSPECIFIED') ) ;
#274 = LOCAL_TIME ( 18, 49, 56.00000000000000000, #318 ) ;
#275 = CALENDAR_DATE ( 2026, 22, 6 ) ;
#276 = APPROVAL_ROLE ( '' ) ;
#277 = CC_DESIGN_PERSON_AND_ORGANIZATION_ASSIGNMENT ( #368, #7, ( #17 ) ) ;
#278 = APPROVAL_ROLE ( '' ) ;
#279 =( REPRESENTATION_RELATIONSHIP ('NONE','NONE', #100, #293 ) REPRESENTATION_RELATIONSHIP_WITH_TRANSFORMATION ( #42 )SHAPE_REPRESENTATION_RELATIONSHIP( ) );
#280 = PERSON_AND_ORGANIZATION_ROLE ( 'design_owner' ) ;
#281 = AXIS2_PLACEMENT_3D ( 'NONE', #137, #52, #199 ) ;
#282 = COORDINATED_UNIVERSAL_TIME_OFFSET ( 10, 0, .AHEAD. ) ;
#283 = PROPERTY_DEFINITION_REPRESENTATION ( #74, #293 ) ;
#284 = DATE_AND_TIME ( #73, #148 ) ;
#285 = APPROVAL_STATUS ( 'not_yet_approved' ) ;
#286 = CC_DESIGN_SECURITY_CLASSIFICATION ( #255, ( #79 ) ) ;
#287 = APPROVAL_ROLE ( '' ) ;
#288 = PERSON_AND_ORGANIZATION ( #206, #371 ) ;
#289 = DATE_AND_TIME ( #26, #77 ) ;
#290 = APPROVAL ( #355, 'UNKNOWN' ) ;
#291 = OBJECT_ROLE ('mandatory',$ ) ;
#292 = CC_DESIGN_APPROVAL ( #374, ( #79 ) ) ;
#293 = SHAPE_REPRESENTATION ( '6461079856.step', ( #272 ), #212 ) ;
#294 = PERSON_AND_ORGANIZATION_ROLE ( 'creator' ) ;
#295 = APPROVAL_STATUS ( 'not_yet_approved' ) ;
#296 = IDENTIFICATION_ROLE ( 'external document id and location', $) ;
#297 = APPLIED_EXTERNAL_IDENTIFICATION_ASSIGNMENT ( '6534431024.step.STEP' , #191, #35,( #194) ) ;
#298 = CALENDAR_DATE ( 2026, 22, 6 ) ;
#299 = CC_DESIGN_PERSON_AND_ORGANIZATION_ASSIGNMENT ( #309, #256, ( #79 ) ) ;
#300 = PERSON_AND_ORGANIZATION ( #18446744073709551615, #18446744073709551615 ) ;
#301 = COORDINATED_UNIVERSAL_TIME_OFFSET ( 10, 0, .AHEAD. ) ;
#302 = LOCAL_TIME ( 18, 49, 56.00000000000000000, #62 ) ;
#303 = APPROVAL_STATUS ( 'not_yet_approved' ) ;
#304 = CALENDAR_DATE ( 2026, 22, 6 ) ;
#305 = PERSON_AND_ORGANIZATION ( #18446744073709551615, #18446744073709551615 ) ;
#306 = ROLE_ASSOCIATION ( #97, #225 ) ;
#307 = LOCAL_TIME ( 18, 49, 56.00000000000000000, #180 ) ;
#308 = MECHANICAL_CONTEXT ( 'NONE', #214, 'mechanical' ) ;
#309 = PERSON_AND_ORGANIZATION ( #18446744073709551615, #18446744073709551615 ) ;
#310 = APPROVAL ( #303, 'Coincident' ) ;
#311 = APPROVAL_STATUS ( 'not_yet_approved' ) ;
#312 = PROPERTY_DEFINITION ('external definition','', #158 ) ;
#313 =( NAMED_UNIT ( * ) PLANE_ANGLE_UNIT ( ) SI_UNIT ( $, .RADIAN. ) );
#314 = COORDINATED_UNIVERSAL_TIME_OFFSET ( 10, 0, .AHEAD. ) ;
#315 =( NAMED_UNIT ( * ) PLANE_ANGLE_UNIT ( ) SI_UNIT ( $, .RADIAN. ) );
#316 = CC_DESIGN_SECURITY_CLASSIFICATION ( #17, ( #323 ) ) ;
#317 = CC_DESIGN_PERSON_AND_ORGANIZATION_ASSIGNMENT ( #83, #51, ( #197 ) ) ;
#318 = COORDINATED_UNIVERSAL_TIME_OFFSET ( 10, 0, .AHEAD. ) ;
#319 = IDENTIFICATION_ROLE ( 'external document id and location', $) ;
#320 = APPROVAL_ROLE ( '' ) ;
#321 = PERSON_AND_ORGANIZATION ( #18446744073709551615, #18446744073709551615 ) ;
#322 = CC_DESIGN_DATE_AND_TIME_ASSIGNMENT ( #123, #177, ( #17 ) ) ;
#323 = PRODUCT_DEFINITION_FORMATION_WITH_SPECIFIED_SOURCE ( 'Symmetric', '', #223, .NOT_KNOWN. ) ;
#324 = COORDINATED_UNIVERSAL_TIME_OFFSET ( 10, 0, .AHEAD. ) ;
#325 = APPLICATION_PROTOCOL_DEFINITION ( 'international standard', 'config_control_design', 1994, #259 ) ;
#326 = UNCERTAINTY_MEASURE_WITH_UNIT (LENGTH_MEASURE( 1.000000000000000082E-05 ), #112, 'distance_accuracy_value', 'NONE');
#327 = ORGANIZATION ( 'NAUO-ORG141', 'UNSPECIFIED', 'UNSPECIFIED' ) ;
#328 = COORDINATED_UNIVERSAL_TIME_OFFSET ( 10, 0, .AHEAD. ) ;
#329 = PERSON_AND_ORGANIZATION ( #18446744073709551615, #18446744073709551615 ) ;
#330 = COORDINATED_UNIVERSAL_TIME_OFFSET ( 10, 0, .AHEAD. ) ;
#331 = CC_DESIGN_PERSON_AND_ORGANIZATION_ASSIGNMENT ( #147, #264, ( #60 ) ) ;
#332 = AXIS2_PLACEMENT_3D ( 'NONE', #134, #139, #187 ) ;
#333 = APPLIED_EXTERNAL_IDENTIFICATION_ASSIGNMENT ( '6461079856.step.STEP' , #296, #136,( #182) ) ;
#334 = PERSON_AND_ORGANIZATION ( #18446744073709551615, #18446744073709551615 ) ;
#335 = APPROVAL_ROLE ( '' ) ;
#336 = DOCUMENT_TYPE ( 'geometry' ) ;
#337 = SECURITY_CLASSIFICATION_LEVEL ( 'unclassified' ) ;
#338 = DATE_AND_TIME ( #188, #382 ) ;
#339 = APPROVAL_PERSON_ORGANIZATION ( #84, #195, #24 ) ;
#340 = CC_DESIGN_APPROVAL ( #207, ( #380 ) ) ;
#341 = COORDINATED_UNIVERSAL_TIME_OFFSET ( 10, 0, .AHEAD. ) ;
#342 = PRODUCT_DEFINITION_SHAPE ( 'NONE', 'NONE',  #55 ) ;
#343 = PERSON_AND_ORGANIZATION ( #18446744073709551615, #18446744073709551615 ) ;
#344 = APPLICATION_CONTEXT ( 'configuration controlled 3d designs of mechanical parts and assemblies' ) ;
#345 = PROPERTY_DEFINITION ('document property','', #158 ) ;
#346 = CARTESIAN_POINT ( 'NONE',  ( 0.000000000000000000, 0.000000000000000000, 0.000000000000000000 ) ) ;
#347 = CC_DESIGN_PERSON_AND_ORGANIZATION_ASSIGNMENT ( #300, #208, ( #323 ) ) ;
#348 = PROPERTY_DEFINITION_REPRESENTATION ( #244, #34 ) ;
#349 =( NAMED_UNIT ( * ) SI_UNIT ( $, .STERADIAN. ) SOLID_ANGLE_UNIT ( ) );
#350 = SECURITY_CLASSIFICATION ( '', '', #337 ) ;
#351 = APPROVAL ( #311, 'Coincident' ) ;
#352 = APPLIED_DOCUMENT_REFERENCE ( #158,'',( #55) ) ;
#353 = DATE_TIME_ROLE ( 'creation_date' ) ;
#354 = DATE_AND_TIME ( #113, #27 ) ;
#355 = APPROVAL_STATUS ( 'not_yet_approved' ) ;
#356 = PERSON_AND_ORGANIZATION_ROLE ( 'classification_officer' ) ;
#357 = DATE_AND_TIME ( #116, #387 ) ;
#358 = PERSON_AND_ORGANIZATION_ROLE ( 'creator' ) ;
#359 = APPLICATION_CONTEXT ( 'configuration controlled 3d designs of mechanical parts and assemblies' ) ;
#360 = CC_DESIGN_DATE_AND_TIME_ASSIGNMENT ( #65, #243, ( #55 ) ) ;
#361 = DATE_AND_TIME ( #298, #302 ) ;
#362 = CC_DESIGN_DATE_AND_TIME_ASSIGNMENT ( #16, #132, ( #380 ) ) ;
#363 = LOCAL_TIME ( 18, 49, 56.00000000000000000, #330 ) ;
#364 = APPROVAL_ROLE ( '' ) ;
#365 = APPROVAL_DATE_TIME ( #109, #290 ) ;
#366 = PROPERTY_DEFINITION ('document property','', #194 ) ;
#367 = SHAPE_DEFINITION_REPRESENTATION ( #342, #293 ) ;
#368 = PERSON_AND_ORGANIZATION ( #18446744073709551615, #18446744073709551615 ) ;
#369 = APPLICATION_CONTEXT ( 'configuration controlled 3d designs of mechanical parts and assemblies' ) ;
#370 = LOCAL_TIME ( 18, 49, 56.00000000000000000, #170 ) ;
#371 = ORGANIZATION ( 'NAUO-ORG142', 'UNSPECIFIED', 'UNSPECIFIED' ) ;
#372 = SECURITY_CLASSIFICATION_LEVEL ( 'unclassified' ) ;
#373 = DATE_TIME_ROLE ( 'classification_date' ) ;
#374 = APPROVAL ( #150, 'Coincident' ) ;
#375 = ROLE_ASSOCIATION ( #56, #250 ) ;
#376 = DIRECTION ( 'NONE',  ( 4.890937612370273194E-29, -3.155443620884047222E-30, 0.9999999999999997780 ) ) ;
#377 = CC_DESIGN_DATE_AND_TIME_ASSIGNMENT ( #228, #138, ( #6 ) ) ;
#378 = PERSON_AND_ORGANIZATION ( #18446744073709551615, #18446744073709551615 ) ;
#379 = APPROVAL_PERSON_ORGANIZATION ( #127, #12, #278 ) ;
#380 = SECURITY_CLASSIFICATION ( '', '', #135 ) ;
#381 = APPROVAL ( #67, 'Coincident' ) ;
#382 = LOCAL_TIME ( 18, 49, 56.00000000000000000, #218 ) ;
#383 = DESIGN_CONTEXT ( 'detailed design', #359, 'design' ) ;
#384 = CALENDAR_DATE ( 2026, 22, 6 ) ;
#385 = PERSON ( 'NAUO-PER143', 'UNSPECIFIED', 'UNSPECIFIED', ('UNSPECIFIED'), ('UNSPECIFIED'), ('UNSPECIFIED') ) ;
#386 = CC_DESIGN_PERSON_AND_ORGANIZATION_ASSIGNMENT ( #41, #54, ( #106 ) ) ;
#387 = LOCAL_TIME ( 18, 49, 56.00000000000000000, #324 ) ;
#388 = NEXT_ASSEMBLY_USAGE_OCCURRENCE ( 'NAUO141', ' ', ' ', #159, #80, $ ) ;
#389 = NEXT_ASSEMBLY_USAGE_OCCURRENCE ( 'NAUO142', ' ', ' ', #159, #55, $ ) ;
#390 = NEXT_ASSEMBLY_USAGE_OCCURRENCE ( 'NAUO143', ' ', ' ', #159, #55, $ ) ;
ENDSEC;
END-ISO-10303-21;
