ISO-10303-21;
HEADER;
FILE_DESCRIPTION (( 'STEP AP203' ),
    '1' );
FILE_NAME ('R19.step.STEP',
    '2026-06-22T08:49:56',
    ( 'localuser' ),
    ( '' ),
    'SwSTEP 2.0',
    'SolidWorks 2025',
    '' );
FILE_SCHEMA (( 'CONFIG_CONTROL_DESIGN' ));
ENDSEC;

DATA;
#1 = PERSON_AND_ORGANIZATION ( #18446744073709551615, #18446744073709551615 ) ;
#2 = CC_DESIGN_DATE_AND_TIME_ASSIGNMENT ( #193, #167, ( #265 ) ) ;
#3 = PERSON_AND_ORGANIZATION ( #18446744073709551615, #18446744073709551615 ) ;
#4 = APPROVAL_STATUS ( 'not_yet_approved' ) ;
#5 = LOCAL_TIME ( 18, 49, 56.00000000000000000, #23 ) ;
#6 = DATE_AND_TIME ( #44, #344 ) ;
#7 = DATE_AND_TIME ( #246, #172 ) ;
#8 = APPROVAL_DATE_TIME ( #278, #313 ) ;
#9 = SECURITY_CLASSIFICATION ( '', '', #118 ) ;
#10 = APPLICATION_PROTOCOL_DEFINITION ( 'international standard', 'config_control_design', 1994, #349 ) ;
#11 = PRODUCT_RELATED_PRODUCT_CATEGORY ( 'detail', '', ( #256 ) ) ;
#12 = APPLIED_DOCUMENT_REFERENCE ( #158,'',( #124) ) ;
#13 = DIRECTION ( 'NONE',  ( 1.000000000000000222, -1.092455418989176591E-28, 4.890937612370273194E-29 ) ) ;
#14 = APPROVAL_STATUS ( 'not_yet_approved' ) ;
#15 = CC_DESIGN_DATE_AND_TIME_ASSIGNMENT ( #7, #129, ( #124 ) ) ;
#16 = DATE_AND_TIME ( #289, #243 ) ;
#17 = SECURITY_CLASSIFICATION ( '', '', #252 ) ;
#18 = DIRECTION ( 'NONE',  ( 1.000000000000000222, -1.092455418989176591E-28, 4.890937612370273194E-29 ) ) ;
#19 = PRODUCT_DEFINITION_SHAPE ( 'NONE', 'NONE',  #389 ) ;
#20 = APPLICATION_CONTEXT ( 'configuration controlled 3d designs of mechanical parts and assemblies' ) ;
#21 = APPROVAL_STATUS ( 'not_yet_approved' ) ;
#22 = CARTESIAN_POINT ( 'NONE',  ( 0.000000000000000000, 0.000000000000000000, 0.000000000000000000 ) ) ;
#23 = COORDINATED_UNIVERSAL_TIME_OFFSET ( 10, 0, .AHEAD. ) ;
#24 = DIRECTION ( 'NONE',  ( 4.890937612370273194E-29, -3.155443620884047222E-30, 0.9999999999999997780 ) ) ;
#25 = DATE_AND_TIME ( #330, #165 ) ;
#26 = PRODUCT_DEFINITION_FORMATION_WITH_SPECIFIED_SOURCE ( 'Symmetric', '', #50, .NOT_KNOWN. ) ;
#27 = PERSON_AND_ORGANIZATION ( #18446744073709551615, #18446744073709551615 ) ;
#28 = COORDINATED_UNIVERSAL_TIME_OFFSET ( 10, 0, .AHEAD. ) ;
#29 = PERSON_AND_ORGANIZATION ( #18446744073709551615, #18446744073709551615 ) ;
#30 = COORDINATED_UNIVERSAL_TIME_OFFSET ( 10, 0, .AHEAD. ) ;
#31 = APPROVAL_PERSON_ORGANIZATION ( #102, #160, #186 ) ;
#32 = CC_DESIGN_SECURITY_CLASSIFICATION ( #113, ( #196 ) ) ;
#33 = CC_DESIGN_APPROVAL ( #254, ( #265 ) ) ;
#34 = MECHANICAL_CONTEXT ( 'NONE', #240, 'mechanical' ) ;
#35 = COORDINATED_UNIVERSAL_TIME_OFFSET ( 10, 0, .AHEAD. ) ;
#36 = CC_DESIGN_PERSON_AND_ORGANIZATION_ASSIGNMENT ( #294, #90, ( #347 ) ) ;
#37 = APPROVAL_DATE_TIME ( #6, #160 ) ;
#38 = LOCAL_TIME ( 18, 49, 56.00000000000000000, #62 ) ;
#39 = DATE_TIME_ROLE ( 'classification_date' ) ;
#40 = SHAPE_REPRESENTATION ( '6534431024.step', ( #225 ), #92 ) ;
#41 = APPLICATION_CONTEXT ( 'configuration controlled 3d designs of mechanical parts and assemblies' ) ;
#42 = PERSON_AND_ORGANIZATION_ROLE ( 'creator' ) ;
#43 = PRODUCT_DEFINITION ( 'General', '', #376, #245 ) ;
#44 = CALENDAR_DATE ( 2026, 22, 6 ) ;
#45 = APPLIED_EXTERNAL_IDENTIFICATION_ASSIGNMENT ( '6461079856.step.STEP' , #139, #340,( #341) ) ;
#46 = PROPERTY_DEFINITION_REPRESENTATION ( #364, #374 ) ;
#47 = CALENDAR_DATE ( 2026, 22, 6 ) ;
#48 =( NAMED_UNIT ( * ) PLANE_ANGLE_UNIT ( ) SI_UNIT ( $, .RADIAN. ) );
#49 = APPROVAL_ROLE ( '' ) ;
#50 = PRODUCT ( '6461079856.step', '6461079856.step', '', ( #338 ) ) ;
#51 = DATE_AND_TIME ( #135, #352 ) ;
#52 = LOCAL_TIME ( 18, 49, 56.00000000000000000, #342 ) ;
#53 = PERSON_AND_ORGANIZATION ( #223, #284 ) ;
#54 = APPROVAL ( #85, 'Coincident' ) ;
#55 = COORDINATED_UNIVERSAL_TIME_OFFSET ( 10, 0, .AHEAD. ) ;
#56 = DIRECTION ( 'NONE',  ( 0.000000000000000000, 0.000000000000000000, 1.000000000000000000 ) ) ;
#57 = LOCAL_TIME ( 18, 49, 56.00000000000000000, #98 ) ;
#58 = DATE_AND_TIME ( #300, #171 ) ;
#59 = CC_DESIGN_PERSON_AND_ORGANIZATION_ASSIGNMENT ( #279, #212, ( #26 ) ) ;
#60 = PERSON_AND_ORGANIZATION ( #276, #250 ) ;
#61 = IDENTIFICATION_ROLE ( 'external document id and location', $) ;
#62 = COORDINATED_UNIVERSAL_TIME_OFFSET ( 10, 0, .AHEAD. ) ;
#63 = PERSON_AND_ORGANIZATION ( #18446744073709551615, #18446744073709551615 ) ;
#64 = APPROVAL_DATE_TIME ( #383, #54 ) ;
#65 = PERSON_AND_ORGANIZATION ( #18446744073709551615, #18446744073709551615 ) ;
#66 = CC_DESIGN_PERSON_AND_ORGANIZATION_ASSIGNMENT ( #99, #369, ( #113 ) ) ;
#67 = PERSON_AND_ORGANIZATION_ROLE ( 'design_owner' ) ;
#68 = CC_DESIGN_APPROVAL ( #309, ( #17 ) ) ;
#69 = COORDINATED_UNIVERSAL_TIME_OFFSET ( 10, 0, .AHEAD. ) ;
#70 = PRODUCT_RELATED_PRODUCT_CATEGORY ( 'detail', '', ( #50 ) ) ;
#71 = SHAPE_DEFINITION_REPRESENTATION ( #108, #40 ) ;
#72 = ITEM_DEFINED_TRANSFORMATION ( 'NONE', 'NONE', #146,  #112 ) ;
#73 = LOCAL_TIME ( 18, 49, 56.00000000000000000, #185 ) ;
#74 = CALENDAR_DATE ( 2026, 22, 6 ) ;
#75 = CC_DESIGN_PERSON_AND_ORGANIZATION_ASSIGNMENT ( #305, #150, ( #26 ) ) ;
#76 = DIRECTION ( 'NONE',  ( 1.000000000000000000, 0.000000000000000000, 0.000000000000000000 ) ) ;
#77 = APPROVAL_DATE_TIME ( #314, #176 ) ;
#78 = CALENDAR_DATE ( 2026, 22, 6 ) ;
#79 =( REPRESENTATION_RELATIONSHIP ('NONE','NONE', #94, #40 ) REPRESENTATION_RELATIONSHIP_WITH_TRANSFORMATION ( #261 )SHAPE_REPRESENTATION_RELATIONSHIP( ) );
#80 = APPROVAL_PERSON_ORGANIZATION ( #1, #379, #86 ) ;
#81 = SECURITY_CLASSIFICATION_LEVEL ( 'unclassified' ) ;
#82 = MECHANICAL_CONTEXT ( 'NONE', #263, 'mechanical' ) ;
#83 = CC_DESIGN_PERSON_AND_ORGANIZATION_ASSIGNMENT ( #3, #187, ( #43 ) ) ;
#84 = APPLIED_DOCUMENT_REFERENCE ( #341,'',( #115) ) ;
#85 = APPROVAL_STATUS ( 'not_yet_approved' ) ;
#86 = APPROVAL_ROLE ( '' ) ;
#87 = CONTEXT_DEPENDENT_SHAPE_REPRESENTATION ( #358, #227 ) ;
#88 = CC_DESIGN_SECURITY_CLASSIFICATION ( #17, ( #390 ) ) ;
#89 = ROLE_ASSOCIATION ( #295, #84 ) ;
#90 = PERSON_AND_ORGANIZATION_ROLE ( 'design_owner' ) ;
#91 = CALENDAR_DATE ( 2026, 22, 6 ) ;
#92 =( GEOMETRIC_REPRESENTATION_CONTEXT ( 3 ) GLOBAL_UNCERTAINTY_ASSIGNED_CONTEXT ( ( #355 ) ) GLOBAL_UNIT_ASSIGNED_CONTEXT ( ( #231, #48, #198 ) ) REPRESENTATION_CONTEXT ( 'NONE', 'WORKASPACE' ) );
#93 = CC_DESIGN_APPROVAL ( #313, ( #113 ) ) ;
#94 = SHAPE_REPRESENTATION ( 'R19.step', ( #343, #104, #217, #146 ), #361 ) ;
#95 = CC_DESIGN_PERSON_AND_ORGANIZATION_ASSIGNMENT ( #269, #174, ( #376 ) ) ;
#96 = PERSON_AND_ORGANIZATION_ROLE ( 'design_supplier' ) ;
#97 = CC_DESIGN_PERSON_AND_ORGANIZATION_ASSIGNMENT ( #60, #141, ( #17 ) ) ;
#98 = COORDINATED_UNIVERSAL_TIME_OFFSET ( 10, 0, .AHEAD. ) ;
#99 = PERSON_AND_ORGANIZATION ( #18446744073709551615, #18446744073709551615 ) ;
#100 = PRODUCT_RELATED_PRODUCT_CATEGORY ( 'detail', '', ( #347 ) ) ;
#101 = EXTERNAL_SOURCE (IDENTIFIER('') ) ;
#102 = PERSON_AND_ORGANIZATION ( #18446744073709551615, #18446744073709551615 ) ;
#103 = APPROVAL_STATUS ( 'not_yet_approved' ) ;
#104 = AXIS2_PLACEMENT_3D ( 'NONE', #159, #293, #18 ) ;
#105 = APPROVAL_STATUS ( 'not_yet_approved' ) ;
#106 = CARTESIAN_POINT ( 'NONE',  ( 0.000000000000000000, 0.000000000000000000, 0.000000000000000000 ) ) ;
#107 = ITEM_DEFINED_TRANSFORMATION ( 'NONE', 'NONE', #104,  #112 ) ;
#108 = PRODUCT_DEFINITION_SHAPE ( 'NONE', 'NONE',  #124 ) ;
#109 = DIRECTION ( 'NONE',  ( 0.000000000000000000, 0.000000000000000000, 1.000000000000000000 ) ) ;
#110 = COORDINATED_UNIVERSAL_TIME_OFFSET ( 10, 0, .AHEAD. ) ;
#111 = CARTESIAN_POINT ( 'NONE',  ( 0.000000000000000000, 0.000000000000000000, 0.000000000000000000 ) ) ;
#112 = AXIS2_PLACEMENT_3D ( 'NONE', #22, #109, #76 ) ;
#113 = SECURITY_CLASSIFICATION ( '', '', #366 ) ;
#114 = CC_DESIGN_DATE_AND_TIME_ASSIGNMENT ( #233, #207, ( #17 ) ) ;
#115 = PRODUCT_DEFINITION ( 'General', '', #26, #140 ) ;
#116 = PROPERTY_DEFINITION_REPRESENTATION ( #258, #374 ) ;
#117 = DATE_AND_TIME ( #299, #381 ) ;
#118 = SECURITY_CLASSIFICATION_LEVEL ( 'unclassified' ) ;
#119 = CC_DESIGN_APPROVAL ( #213, ( #257 ) ) ;
#120 = OBJECT_ROLE ('mandatory',$ ) ;
#121 = PROPERTY_DEFINITION_REPRESENTATION ( #291, #374 ) ;
#122 = SHAPE_DEFINITION_REPRESENTATION ( #191, #94 ) ;
#123 = DATE_AND_TIME ( #147, #38 ) ;
#124 = PRODUCT_DEFINITION ( 'General', '', #196, #170 ) ;
#125 = PERSON_AND_ORGANIZATION ( #18446744073709551615, #18446744073709551615 ) ;
#126 = LOCAL_TIME ( 18, 49, 56.00000000000000000, #312 ) ;
#127 = DATE_AND_TIME ( #154, #73 ) ;
#128 = APPROVAL ( #339, 'Coincident' ) ;
#129 = DATE_TIME_ROLE ( 'creation_date' ) ;
#130 = APPROVAL_STATUS ( 'not_yet_approved' ) ;
#131 = CC_DESIGN_APPROVAL ( #379, ( #376 ) ) ;
#132 = PERSON_AND_ORGANIZATION_ROLE ( 'creator' ) ;
#133 = APPROVAL_ROLE ( '' ) ;
#134 = CARTESIAN_POINT ( 'NONE',  ( 5.449997955293000906, 6.299999511719001077, -2.058321952820000078 ) ) ;
#135 = CALENDAR_DATE ( 2026, 22, 6 ) ;
#136 = APPROVAL_PERSON_ORGANIZATION ( #308, #313, #334 ) ;
#137 = PERSON_AND_ORGANIZATION ( #18446744073709551615, #18446744073709551615 ) ;
#138 = DIRECTION ( 'NONE',  ( 0.000000000000000000, 0.000000000000000000, 1.000000000000000000 ) ) ;
#139 = IDENTIFICATION_ROLE ( 'external document id and location', $) ;
#140 = DESIGN_CONTEXT ( 'detailed design', #41, 'design' ) ;
#141 = PERSON_AND_ORGANIZATION_ROLE ( 'classification_officer' ) ;
#142 = LOCAL_TIME ( 18, 49, 56.00000000000000000, #69 ) ;
#143 = COORDINATED_UNIVERSAL_TIME_OFFSET ( 10, 0, .AHEAD. ) ;
#144 = PERSON_AND_ORGANIZATION_ROLE ( 'classification_officer' ) ;
#145 =( NAMED_UNIT ( * ) PLANE_ANGLE_UNIT ( ) SI_UNIT ( $, .RADIAN. ) );
#146 = AXIS2_PLACEMENT_3D ( 'NONE', #134, #24, #253 ) ;
#147 = CALENDAR_DATE ( 2026, 22, 6 ) ;
#148 = APPROVAL_STATUS ( 'not_yet_approved' ) ;
#149 = PERSON_AND_ORGANIZATION ( #18446744073709551615, #18446744073709551615 ) ;
#150 = PERSON_AND_ORGANIZATION_ROLE ( 'design_supplier' ) ;
#151 = APPROVAL_PERSON_ORGANIZATION ( #63, #54, #200 ) ;
#152 = LOCAL_TIME ( 18, 49, 56.00000000000000000, #380 ) ;
#153 = PERSON_AND_ORGANIZATION ( #18446744073709551615, #18446744073709551615 ) ;
#154 = CALENDAR_DATE ( 2026, 22, 6 ) ;
#155 = DOCUMENT_TYPE ( 'geometry' ) ;
#156 = CALENDAR_DATE ( 2026, 22, 6 ) ;
#157 = CC_DESIGN_APPROVAL ( #176, ( #327 ) ) ;
#158 = DOCUMENT_FILE ( '6534431024.step.STEP' , '', '', #321, '' ,$ ) ;
#159 = CARTESIAN_POINT ( 'NONE',  ( 5.449997955293000906, 7.299999511719001966, -2.058321952820000078 ) ) ;
#160 = APPROVAL ( #130, 'Coincident' ) ;
#161 = APPROVAL_DATE_TIME ( #348, #213 ) ;
#162 = PROPERTY_DEFINITION ('document property','', #158 ) ;
#163 = CONTEXT_DEPENDENT_SHAPE_REPRESENTATION ( #301, #164 ) ;
#164 = PRODUCT_DEFINITION_SHAPE ( 'NONE', 'NONE',  #388 ) ;
#165 = LOCAL_TIME ( 18, 49, 56.00000000000000000, #30 ) ;
#166 = APPROVAL_PERSON_ORGANIZATION ( #53, #176, #378 ) ;
#167 = DATE_TIME_ROLE ( 'classification_date' ) ;
#168 = PERSON_AND_ORGANIZATION_ROLE ( 'classification_officer' ) ;
#169 = APPROVAL_DATE_TIME ( #202, #379 ) ;
#170 = DESIGN_CONTEXT ( 'detailed design', #20, 'design' ) ;
#171 = LOCAL_TIME ( 18, 49, 56.00000000000000000, #297 ) ;
#172 = LOCAL_TIME ( 18, 49, 56.00000000000000000, #248 ) ;
#173 = PERSON_AND_ORGANIZATION_ROLE ( 'design_owner' ) ;
#174 = PERSON_AND_ORGANIZATION_ROLE ( 'design_supplier' ) ;
#175 = DOCUMENT_TYPE ( 'geometry' ) ;
#176 = APPROVAL ( #21, 'UNKNOWN' ) ;
#177 = CC_DESIGN_SECURITY_CLASSIFICATION ( #327, ( #389 ) ) ;
#178 = CALENDAR_DATE ( 2026, 22, 6 ) ;
#179 = APPROVAL_STATUS ( 'not_yet_approved' ) ;
#180 = APPROVAL_DATE_TIME ( #333, #353 ) ;
#181 = CC_DESIGN_PERSON_AND_ORGANIZATION_ASSIGNMENT ( #273, #67, ( #50 ) ) ;
#182 = APPROVAL_ROLE ( '' ) ;
#183 = APPLICATION_PROTOCOL_DEFINITION ( 'international standard', 'config_control_design', 1994, #41 ) ;
#184 = EXTERNAL_SOURCE (IDENTIFIER('') ) ;
#185 = COORDINATED_UNIVERSAL_TIME_OFFSET ( 10, 0, .AHEAD. ) ;
#186 = APPROVAL_ROLE ( '' ) ;
#187 = PERSON_AND_ORGANIZATION_ROLE ( 'creator' ) ;
#188 = APPLIED_EXTERNAL_IDENTIFICATION_ASSIGNMENT ( '6461079856.step.STEP' , #61, #184,( #206) ) ;
#189 = APPROVAL_DATE_TIME ( #51, #254 ) ;
#190 =( LENGTH_UNIT ( ) NAMED_UNIT ( * ) SI_UNIT ( .MILLI., .METRE. ) );
#191 = PRODUCT_DEFINITION_SHAPE ( 'NONE', 'NONE',  #43 ) ;
#192 = CALENDAR_DATE ( 2026, 22, 6 ) ;
#193 = DATE_AND_TIME ( #78, #5 ) ;
#194 = CC_DESIGN_DATE_AND_TIME_ASSIGNMENT ( #351, #230, ( #327 ) ) ;
#195 = LOCAL_TIME ( 18, 49, 56.00000000000000000, #28 ) ;
#196 = PRODUCT_DEFINITION_FORMATION_WITH_SPECIFIED_SOURCE ( 'Symmetric', '', #347, .NOT_KNOWN. ) ;
#197 = ROLE_ASSOCIATION ( #219, #375 ) ;
#198 =( NAMED_UNIT ( * ) SI_UNIT ( $, .STERADIAN. ) SOLID_ANGLE_UNIT ( ) );
#199 = UNCERTAINTY_MEASURE_WITH_UNIT (LENGTH_MEASURE( 1.000000000000000082E-05 ), #190, 'distance_accuracy_value', 'NONE');
#200 = APPROVAL_ROLE ( '' ) ;
#201 = CC_DESIGN_DATE_AND_TIME_ASSIGNMENT ( #117, #208, ( #9 ) ) ;
#202 = DATE_AND_TIME ( #178, #203 ) ;
#203 = LOCAL_TIME ( 18, 49, 56.00000000000000000, #55 ) ;
#204 = APPROVAL_DATE_TIME ( #385, #309 ) ;
#205 = CC_DESIGN_APPROVAL ( #160, ( #115 ) ) ;
#206 = DOCUMENT_FILE ( '6461079856.step.STEP' , '', '', #175, '' ,$ ) ;
#207 = DATE_TIME_ROLE ( 'classification_date' ) ;
#208 = DATE_TIME_ROLE ( 'classification_date' ) ;
#209 = CC_DESIGN_PERSON_AND_ORGANIZATION_ASSIGNMENT ( #153, #287, ( #257 ) ) ;
#210 = APPLICATION_PROTOCOL_DEFINITION ( 'international standard', 'config_control_design', 1994, #20 ) ;
#211 = CC_DESIGN_APPROVAL ( #353, ( #26 ) ) ;
#212 = PERSON_AND_ORGANIZATION_ROLE ( 'creator' ) ;
#213 = APPROVAL ( #105, 'Coincident' ) ;
#214 = DATE_AND_TIME ( #156, #331 ) ;
#215 = APPROVAL_ROLE ( '' ) ;
#216 = PERSON_AND_ORGANIZATION ( #18446744073709551615, #18446744073709551615 ) ;
#217 = AXIS2_PLACEMENT_3D ( 'NONE', #286, #373, #13 ) ;
#218 = APPROVAL_PERSON_ORGANIZATION ( #137, #213, #133 ) ;
#219 = OBJECT_ROLE ('mandatory',$ ) ;
#220 = DATE_AND_TIME ( #249, #142 ) ;
#221 = CC_DESIGN_PERSON_AND_ORGANIZATION_ASSIGNMENT ( #149, #96, ( #196 ) ) ;
#222 = PROPERTY_DEFINITION_REPRESENTATION ( #162, #40 ) ;
#223 = PERSON ( 'NAUO-PER139', 'UNSPECIFIED', 'UNSPECIFIED', ('UNSPECIFIED'), ('UNSPECIFIED'), ('UNSPECIFIED') ) ;
#224 = DATE_TIME_ROLE ( 'classification_date' ) ;
#225 = AXIS2_PLACEMENT_3D ( 'NONE', #111, #138, #260 ) ;
#226 = ORGANIZATION ( 'NAUO-ORG138', 'UNSPECIFIED', 'UNSPECIFIED' ) ;
#227 = PRODUCT_DEFINITION_SHAPE ( 'NONE', 'NONE',  #390 ) ;
#228 = SECURITY_CLASSIFICATION_LEVEL ( 'unclassified' ) ;
#229 = PRODUCT_DEFINITION_SHAPE ( 'NONE', 'NONE',  #115 ) ;
#230 = DATE_TIME_ROLE ( 'classification_date' ) ;
#231 =( LENGTH_UNIT ( ) NAMED_UNIT ( * ) SI_UNIT ( .MILLI., .METRE. ) );
#232 = APPLIED_EXTERNAL_IDENTIFICATION_ASSIGNMENT ( '6534431024.step.STEP' , #282, #101,( #158) ) ;
#233 = DATE_AND_TIME ( #74, #52 ) ;
#234 = CC_DESIGN_PERSON_AND_ORGANIZATION_ASSIGNMENT ( #322, #173, ( #256 ) ) ;
#235 = PERSON_AND_ORGANIZATION_ROLE ( 'creator' ) ;
#236 = APPROVAL_ROLE ( '' ) ;
#237 = CC_DESIGN_APPROVAL ( #54, ( #124 ) ) ;
#238 = APPROVAL_STATUS ( 'not_yet_approved' ) ;
#239 = CC_DESIGN_PERSON_AND_ORGANIZATION_ASSIGNMENT ( #216, #42, ( #124 ) ) ;
#240 = APPLICATION_CONTEXT ( 'configuration controlled 3d designs of mechanical parts and assemblies' ) ;
#241 = APPLICATION_PROTOCOL_DEFINITION ( 'international standard', 'config_control_design', 1994, #240 ) ;
#242 = APPROVAL_DATE_TIME ( #123, #350 ) ;
#243 = LOCAL_TIME ( 18, 49, 56.00000000000000000, #346 ) ;
#244 = PERSON_AND_ORGANIZATION ( #18446744073709551615, #18446744073709551615 ) ;
#245 = DESIGN_CONTEXT ( 'detailed design', #367, 'design' ) ;
#246 = CALENDAR_DATE ( 2026, 22, 6 ) ;
#247 = PROPERTY_DEFINITION ('document property','', #206 ) ;
#248 = COORDINATED_UNIVERSAL_TIME_OFFSET ( 10, 0, .AHEAD. ) ;
#249 = CALENDAR_DATE ( 2026, 22, 6 ) ;
#250 = ORGANIZATION ( 'NAUO-ORG140', 'UNSPECIFIED', 'UNSPECIFIED' ) ;
#251 = ROLE_ASSOCIATION ( #120, #12 ) ;
#252 = SECURITY_CLASSIFICATION_LEVEL ( 'unclassified' ) ;
#253 = DIRECTION ( 'NONE',  ( 1.000000000000000222, -1.092455418989176591E-28, 4.890937612370273194E-29 ) ) ;
#254 = APPROVAL ( #14, 'UNKNOWN' ) ;
#255 = PERSON_AND_ORGANIZATION_ROLE ( 'classification_officer' ) ;
#256 = PRODUCT ( 'R19.step', 'R19.step', '', ( #82 ) ) ;
#257 = SECURITY_CLASSIFICATION ( '', '', #332 ) ;
#258 = PROPERTY_DEFINITION ('external definition','', #341 ) ;
#259 = COORDINATED_UNIVERSAL_TIME_OFFSET ( 10, 0, .AHEAD. ) ;
#260 = DIRECTION ( 'NONE',  ( 1.000000000000000000, 0.000000000000000000, 0.000000000000000000 ) ) ;
#261 = ITEM_DEFINED_TRANSFORMATION ( 'NONE', 'NONE', #217,  #225 ) ;
#262 =( NAMED_UNIT ( * ) PLANE_ANGLE_UNIT ( ) SI_UNIT ( $, .RADIAN. ) );
#263 = APPLICATION_CONTEXT ( 'configuration controlled 3d designs of mechanical parts and assemblies' ) ;
#264 = CC_DESIGN_DATE_AND_TIME_ASSIGNMENT ( #25, #386, ( #43 ) ) ;
#265 = SECURITY_CLASSIFICATION ( '', '', #81 ) ;
#266 = CALENDAR_DATE ( 2026, 22, 6 ) ;
#267 = CALENDAR_DATE ( 2026, 22, 6 ) ;
#268 = COORDINATED_UNIVERSAL_TIME_OFFSET ( 10, 0, .AHEAD. ) ;
#269 = PERSON_AND_ORGANIZATION ( #18446744073709551615, #18446744073709551615 ) ;
#270 = APPROVAL_PERSON_ORGANIZATION ( #60, #309, #182 ) ;
#271 = APPROVAL_DATE_TIME ( #58, #304 ) ;
#272 = APPROVAL_STATUS ( 'not_yet_approved' ) ;
#273 = PERSON_AND_ORGANIZATION ( #18446744073709551615, #18446744073709551615 ) ;
#274 = CC_DESIGN_PERSON_AND_ORGANIZATION_ASSIGNMENT ( #27, #144, ( #9 ) ) ;
#275 = APPROVAL_PERSON_ORGANIZATION ( #354, #304, #302 ) ;
#276 = PERSON ( 'NAUO-PER140', 'UNSPECIFIED', 'UNSPECIFIED', ('UNSPECIFIED'), ('UNSPECIFIED'), ('UNSPECIFIED') ) ;
#277 = APPROVAL_PERSON_ORGANIZATION ( #316, #254, #49 ) ;
#278 = DATE_AND_TIME ( #303, #387 ) ;
#279 = PERSON_AND_ORGANIZATION ( #18446744073709551615, #18446744073709551615 ) ;
#280 = CC_DESIGN_DATE_AND_TIME_ASSIGNMENT ( #214, #283, ( #115 ) ) ;
#281 = COORDINATED_UNIVERSAL_TIME_OFFSET ( 10, 0, .AHEAD. ) ;
#282 = IDENTIFICATION_ROLE ( 'external document id and location', $) ;
#283 = DATE_TIME_ROLE ( 'creation_date' ) ;
#284 = ORGANIZATION ( 'NAUO-ORG139', 'UNSPECIFIED', 'UNSPECIFIED' ) ;
#285 = PROPERTY_DEFINITION_REPRESENTATION ( #247, #374 ) ;
#286 = CARTESIAN_POINT ( 'NONE',  ( 5.449997955293000906, 6.799999511719001077, -2.058321952820000078 ) ) ;
#287 = PERSON_AND_ORGANIZATION_ROLE ( 'classification_officer' ) ;
#288 = PROPERTY_DEFINITION ('external definition','', #158 ) ;
#289 = CALENDAR_DATE ( 2026, 22, 6 ) ;
#290 = LOCAL_TIME ( 18, 49, 56.00000000000000000, #143 ) ;
#291 = PROPERTY_DEFINITION ('document property','', #341 ) ;
#292 = CONTEXT_DEPENDENT_SHAPE_REPRESENTATION ( #79, #19 ) ;
#293 = DIRECTION ( 'NONE',  ( 4.890937612370273194E-29, -3.155443620884047222E-30, 0.9999999999999997780 ) ) ;
#294 = PERSON_AND_ORGANIZATION ( #18446744073709551615, #18446744073709551615 ) ;
#295 = OBJECT_ROLE ('mandatory',$ ) ;
#296 = APPROVAL_PERSON_ORGANIZATION ( #307, #353, #360 ) ;
#297 = COORDINATED_UNIVERSAL_TIME_OFFSET ( 10, 0, .AHEAD. ) ;
#298 = UNCERTAINTY_MEASURE_WITH_UNIT (LENGTH_MEASURE( 1.000000000000000082E-05 ), #345, 'distance_accuracy_value', 'NONE');
#299 = CALENDAR_DATE ( 2026, 22, 6 ) ;
#300 = CALENDAR_DATE ( 2026, 22, 6 ) ;
#301 =( REPRESENTATION_RELATIONSHIP ('NONE','NONE', #94, #374 ) REPRESENTATION_RELATIONSHIP_WITH_TRANSFORMATION ( #107 )SHAPE_REPRESENTATION_RELATIONSHIP( ) );
#302 = APPROVAL_ROLE ( '' ) ;
#303 = CALENDAR_DATE ( 2026, 22, 6 ) ;
#304 = APPROVAL ( #238, 'Coincident' ) ;
#305 = PERSON_AND_ORGANIZATION ( #18446744073709551615, #18446744073709551615 ) ;
#306 = CC_DESIGN_APPROVAL ( #128, ( #196 ) ) ;
#307 = PERSON_AND_ORGANIZATION ( #18446744073709551615, #18446744073709551615 ) ;
#308 = PERSON_AND_ORGANIZATION ( #18446744073709551615, #18446744073709551615 ) ;
#309 = APPROVAL ( #103, 'UNKNOWN' ) ;
#310 = PERSON_AND_ORGANIZATION_ROLE ( 'creator' ) ;
#311 = APPROVAL_PERSON_ORGANIZATION ( #244, #128, #215 ) ;
#312 = COORDINATED_UNIVERSAL_TIME_OFFSET ( 10, 0, .AHEAD. ) ;
#313 = APPROVAL ( #179, 'Coincident' ) ;
#314 = DATE_AND_TIME ( #192, #337 ) ;
#315 =( NAMED_UNIT ( * ) SI_UNIT ( $, .STERADIAN. ) SOLID_ANGLE_UNIT ( ) );
#316 = PERSON_AND_ORGANIZATION ( #382, #226 ) ;
#317 = APPLICATION_PROTOCOL_DEFINITION ( 'international standard', 'config_control_design', 1994, #263 ) ;
#318 = CC_DESIGN_SECURITY_CLASSIFICATION ( #257, ( #26 ) ) ;
#319 = CC_DESIGN_PERSON_AND_ORGANIZATION_ASSIGNMENT ( #316, #255, ( #265 ) ) ;
#320 = CALENDAR_DATE ( 2026, 22, 6 ) ;
#321 = DOCUMENT_TYPE ( 'geometry' ) ;
#322 = PERSON_AND_ORGANIZATION ( #18446744073709551615, #18446744073709551615 ) ;
#323 = CC_DESIGN_PERSON_AND_ORGANIZATION_ASSIGNMENT ( #53, #168, ( #327 ) ) ;
#324 =( NAMED_UNIT ( * ) SI_UNIT ( $, .STERADIAN. ) SOLID_ANGLE_UNIT ( ) );
#325 = CC_DESIGN_DATE_AND_TIME_ASSIGNMENT ( #16, #224, ( #257 ) ) ;
#326 = CC_DESIGN_APPROVAL ( #304, ( #43 ) ) ;
#327 = SECURITY_CLASSIFICATION ( '', '', #228 ) ;
#328 = DIRECTION ( 'NONE',  ( 1.000000000000000000, 0.000000000000000000, 0.000000000000000000 ) ) ;
#329 = PERSON_AND_ORGANIZATION ( #18446744073709551615, #18446744073709551615 ) ;
#330 = CALENDAR_DATE ( 2026, 22, 6 ) ;
#331 = LOCAL_TIME ( 18, 49, 56.00000000000000000, #363 ) ;
#332 = SECURITY_CLASSIFICATION_LEVEL ( 'unclassified' ) ;
#333 = DATE_AND_TIME ( #91, #57 ) ;
#334 = APPROVAL_ROLE ( '' ) ;
#335 = CC_DESIGN_PERSON_AND_ORGANIZATION_ASSIGNMENT ( #65, #132, ( #196 ) ) ;
#336 =( GEOMETRIC_REPRESENTATION_CONTEXT ( 3 ) GLOBAL_UNCERTAINTY_ASSIGNED_CONTEXT ( ( #199 ) ) GLOBAL_UNIT_ASSIGNED_CONTEXT ( ( #190, #262, #315 ) ) REPRESENTATION_CONTEXT ( 'NONE', 'WORKASPACE' ) );
#337 = LOCAL_TIME ( 18, 49, 56.00000000000000000, #259 ) ;
#338 = MECHANICAL_CONTEXT ( 'NONE', #349, 'mechanical' ) ;
#339 = APPROVAL_STATUS ( 'not_yet_approved' ) ;
#340 = EXTERNAL_SOURCE (IDENTIFIER('') ) ;
#341 = DOCUMENT_FILE ( '6461079856.step.STEP' , '', '', #155, '' ,$ ) ;
#342 = COORDINATED_UNIVERSAL_TIME_OFFSET ( 10, 0, .AHEAD. ) ;
#343 = AXIS2_PLACEMENT_3D ( 'NONE', #106, #56, #328 ) ;
#344 = LOCAL_TIME ( 18, 49, 56.00000000000000000, #35 ) ;
#345 =( LENGTH_UNIT ( ) NAMED_UNIT ( * ) SI_UNIT ( .MILLI., .METRE. ) );
#346 = COORDINATED_UNIVERSAL_TIME_OFFSET ( 10, 0, .AHEAD. ) ;
#347 = PRODUCT ( '6534431024.step', '6534431024.step', '', ( #34 ) ) ;
#348 = DATE_AND_TIME ( #47, #126 ) ;
#349 = APPLICATION_CONTEXT ( 'configuration controlled 3d designs of mechanical parts and assemblies' ) ;
#350 = APPROVAL ( #148, 'Coincident' ) ;
#351 = DATE_AND_TIME ( #320, #152 ) ;
#352 = LOCAL_TIME ( 18, 49, 56.00000000000000000, #110 ) ;
#353 = APPROVAL ( #4, 'Coincident' ) ;
#354 = PERSON_AND_ORGANIZATION ( #18446744073709551615, #18446744073709551615 ) ;
#355 = UNCERTAINTY_MEASURE_WITH_UNIT (LENGTH_MEASURE( 1.000000000000000082E-05 ), #231, 'distance_accuracy_value', 'NONE');
#356 = CC_DESIGN_APPROVAL ( #350, ( #9 ) ) ;
#357 = APPLICATION_PROTOCOL_DEFINITION ( 'international standard', 'config_control_design', 1994, #367 ) ;
#358 =( REPRESENTATION_RELATIONSHIP ('NONE','NONE', #94, #374 ) REPRESENTATION_RELATIONSHIP_WITH_TRANSFORMATION ( #72 )SHAPE_REPRESENTATION_RELATIONSHIP( ) );
#359 = CC_DESIGN_PERSON_AND_ORGANIZATION_ASSIGNMENT ( #29, #235, ( #376 ) ) ;
#360 = APPROVAL_ROLE ( '' ) ;
#361 =( GEOMETRIC_REPRESENTATION_CONTEXT ( 3 ) GLOBAL_UNCERTAINTY_ASSIGNED_CONTEXT ( ( #298 ) ) GLOBAL_UNIT_ASSIGNED_CONTEXT ( ( #345, #145, #324 ) ) REPRESENTATION_CONTEXT ( 'NONE', 'WORKASPACE' ) );
#362 = CC_DESIGN_SECURITY_CLASSIFICATION ( #265, ( #388 ) ) ;
#363 = COORDINATED_UNIVERSAL_TIME_OFFSET ( 10, 0, .AHEAD. ) ;
#364 = PROPERTY_DEFINITION ('external definition','', #206 ) ;
#365 = APPROVAL_DATE_TIME ( #220, #128 ) ;
#366 = SECURITY_CLASSIFICATION_LEVEL ( 'unclassified' ) ;
#367 = APPLICATION_CONTEXT ( 'configuration controlled 3d designs of mechanical parts and assemblies' ) ;
#368 = CC_DESIGN_SECURITY_CLASSIFICATION ( #9, ( #376 ) ) ;
#369 = PERSON_AND_ORGANIZATION_ROLE ( 'classification_officer' ) ;
#370 = PROPERTY_DEFINITION_REPRESENTATION ( #288, #40 ) ;
#371 = CC_DESIGN_PERSON_AND_ORGANIZATION_ASSIGNMENT ( #125, #310, ( #115 ) ) ;
#372 = SHAPE_DEFINITION_REPRESENTATION ( #229, #374 ) ;
#373 = DIRECTION ( 'NONE',  ( 4.890937612370273194E-29, -3.155443620884047222E-30, 0.9999999999999997780 ) ) ;
#374 = SHAPE_REPRESENTATION ( '6461079856.step', ( #112 ), #336 ) ;
#375 = APPLIED_DOCUMENT_REFERENCE ( #206,'',( #115) ) ;
#376 = PRODUCT_DEFINITION_FORMATION_WITH_SPECIFIED_SOURCE ( 'Symmetric', '', #256, .NOT_KNOWN. ) ;
#377 = APPROVAL_PERSON_ORGANIZATION ( #329, #350, #236 ) ;
#378 = APPROVAL_ROLE ( '' ) ;
#379 = APPROVAL ( #272, 'Coincident' ) ;
#380 = COORDINATED_UNIVERSAL_TIME_OFFSET ( 10, 0, .AHEAD. ) ;
#381 = LOCAL_TIME ( 18, 49, 56.00000000000000000, #268 ) ;
#382 = PERSON ( 'NAUO-PER138', 'UNSPECIFIED', 'UNSPECIFIED', ('UNSPECIFIED'), ('UNSPECIFIED'), ('UNSPECIFIED') ) ;
#383 = DATE_AND_TIME ( #266, #290 ) ;
#384 = CC_DESIGN_DATE_AND_TIME_ASSIGNMENT ( #127, #39, ( #113 ) ) ;
#385 = DATE_AND_TIME ( #267, #195 ) ;
#386 = DATE_TIME_ROLE ( 'creation_date' ) ;
#387 = LOCAL_TIME ( 18, 49, 56.00000000000000000, #281 ) ;
#388 = NEXT_ASSEMBLY_USAGE_OCCURRENCE ( 'NAUO138', ' ', ' ', #43, #115, $ ) ;
#389 = NEXT_ASSEMBLY_USAGE_OCCURRENCE ( 'NAUO139', ' ', ' ', #43, #124, $ ) ;
#390 = NEXT_ASSEMBLY_USAGE_OCCURRENCE ( 'NAUO140', ' ', ' ', #43, #115, $ ) ;
ENDSEC;
END-ISO-10303-21;
