ISO-10303-21;
HEADER;
FILE_DESCRIPTION (( 'STEP AP203' ),
    '1' );
FILE_NAME ('R2.step.STEP',
    '2026-06-22T08:49:57',
    ( 'localuser' ),
    ( '' ),
    'SwSTEP 2.0',
    'SolidWorks 2025',
    '' );
FILE_SCHEMA (( 'CONFIG_CONTROL_DESIGN' ));
ENDSEC;

DATA;
#1 = DATE_TIME_ROLE ( 'creation_date' ) ;
#2 = CC_DESIGN_PERSON_AND_ORGANIZATION_ASSIGNMENT ( #58, #126, ( #263 ) ) ;
#3 = PERSON_AND_ORGANIZATION_ROLE ( 'design_supplier' ) ;
#4 = CC_DESIGN_PERSON_AND_ORGANIZATION_ASSIGNMENT ( #44, #341, ( #169 ) ) ;
#5 = CALENDAR_DATE ( 2026, 22, 6 ) ;
#6 = SHAPE_DEFINITION_REPRESENTATION ( #195, #231 ) ;
#7 = PROPERTY_DEFINITION_REPRESENTATION ( #364, #231 ) ;
#8 = CALENDAR_DATE ( 2026, 22, 6 ) ;
#9 = CC_DESIGN_PERSON_AND_ORGANIZATION_ASSIGNMENT ( #204, #136, ( #199 ) ) ;
#10 = DATE_AND_TIME ( #38, #229 ) ;
#11 = PROPERTY_DEFINITION ('external definition','', #84 ) ;
#12 = APPLICATION_PROTOCOL_DEFINITION ( 'international standard', 'config_control_design', 1994, #286 ) ;
#13 = ROLE_ASSOCIATION ( #157, #76 ) ;
#14 = APPROVAL_DATE_TIME ( #376, #177 ) ;
#15 = CC_DESIGN_APPROVAL ( #330, ( #274 ) ) ;
#16 = IDENTIFICATION_ROLE ( 'external document id and location', $) ;
#17 = APPROVAL ( #172, 'UNKNOWN' ) ;
#18 = PERSON_AND_ORGANIZATION ( #18446744073709551615, #18446744073709551615 ) ;
#19 = CALENDAR_DATE ( 2026, 22, 6 ) ;
#20 = COORDINATED_UNIVERSAL_TIME_OFFSET ( 10, 0, .AHEAD. ) ;
#21 = APPLIED_DOCUMENT_REFERENCE ( #84,'',( #43) ) ;
#22 = PERSON_AND_ORGANIZATION ( #18446744073709551615, #18446744073709551615 ) ;
#23 = CC_DESIGN_APPROVAL ( #148, ( #34 ) ) ;
#24 = DATE_AND_TIME ( #26, #383 ) ;
#25 = PRODUCT_DEFINITION ( 'General', '', #199, #60 ) ;
#26 = CALENDAR_DATE ( 2026, 22, 6 ) ;
#27 = CALENDAR_DATE ( 2026, 22, 6 ) ;
#28 = APPROVAL_PERSON_ORGANIZATION ( #69, #177, #257 ) ;
#29 = LOCAL_TIME ( 18, 49, 57.00000000000000000, #80 ) ;
#30 = LOCAL_TIME ( 18, 49, 57.00000000000000000, #272 ) ;
#31 =( LENGTH_UNIT ( ) NAMED_UNIT ( * ) SI_UNIT ( .MILLI., .METRE. ) );
#32 = APPROVAL ( #253, 'UNKNOWN' ) ;
#33 = CALENDAR_DATE ( 2026, 22, 6 ) ;
#34 = PRODUCT_DEFINITION_FORMATION_WITH_SPECIFIED_SOURCE ( 'Symmetric', '', #263, .NOT_KNOWN. ) ;
#35 = CARTESIAN_POINT ( 'NONE',  ( 0.000000000000000000, 0.000000000000000000, 0.000000000000000000 ) ) ;
#36 = CONTEXT_DEPENDENT_SHAPE_REPRESENTATION ( #37, #319 ) ;
#37 =( REPRESENTATION_RELATIONSHIP ('NONE','NONE', #276, #227 ) REPRESENTATION_RELATIONSHIP_WITH_TRANSFORMATION ( #228 )SHAPE_REPRESENTATION_RELATIONSHIP( ) );
#38 = CALENDAR_DATE ( 2026, 22, 6 ) ;
#39 = APPROVAL_STATUS ( 'not_yet_approved' ) ;
#40 = APPROVAL_PERSON_ORGANIZATION ( #48, #144, #51 ) ;
#41 = LOCAL_TIME ( 18, 49, 57.00000000000000000, #180 ) ;
#42 = APPROVAL_STATUS ( 'not_yet_approved' ) ;
#43 = PRODUCT_DEFINITION ( 'General', '', #134, #90 ) ;
#44 = PERSON_AND_ORGANIZATION ( #70, #370 ) ;
#45 = APPROVAL_ROLE ( '' ) ;
#46 = ITEM_DEFINED_TRANSFORMATION ( 'NONE', 'NONE', #218,  #88 ) ;
#47 = PRODUCT_DEFINITION_SHAPE ( 'NONE', 'NONE',  #390 ) ;
#48 = PERSON_AND_ORGANIZATION ( #18446744073709551615, #18446744073709551615 ) ;
#49 = CC_DESIGN_DATE_AND_TIME_ASSIGNMENT ( #154, #337, ( #274 ) ) ;
#50 = PRODUCT_DEFINITION_SHAPE ( 'NONE', 'NONE',  #25 ) ;
#51 = APPROVAL_ROLE ( '' ) ;
#52 = CC_DESIGN_SECURITY_CLASSIFICATION ( #274, ( #389 ) ) ;
#53 = DOCUMENT_FILE ( '6461079856.step.STEP' , '', '', #270, '' ,$ ) ;
#54 = APPROVAL_DATE_TIME ( #386, #281 ) ;
#55 = APPROVAL_STATUS ( 'not_yet_approved' ) ;
#56 = CC_DESIGN_PERSON_AND_ORGANIZATION_ASSIGNMENT ( #215, #335, ( #140 ) ) ;
#57 = CC_DESIGN_SECURITY_CLASSIFICATION ( #362, ( #199 ) ) ;
#58 = PERSON_AND_ORGANIZATION ( #18446744073709551615, #18446744073709551615 ) ;
#59 = COORDINATED_UNIVERSAL_TIME_OFFSET ( 10, 0, .AHEAD. ) ;
#60 = DESIGN_CONTEXT ( 'detailed design', #286, 'design' ) ;
#61 = AXIS2_PLACEMENT_3D ( 'NONE', #72, #197, #223 ) ;
#62 = LOCAL_TIME ( 18, 49, 57.00000000000000000, #285 ) ;
#63 = COORDINATED_UNIVERSAL_TIME_OFFSET ( 10, 0, .AHEAD. ) ;
#64 = DATE_TIME_ROLE ( 'classification_date' ) ;
#65 = ORGANIZATION ( 'NAUO-ORG178', 'UNSPECIFIED', 'UNSPECIFIED' ) ;
#66 = APPROVAL_STATUS ( 'not_yet_approved' ) ;
#67 = APPROVAL_DATE_TIME ( #192, #32 ) ;
#68 = CC_DESIGN_PERSON_AND_ORGANIZATION_ASSIGNMENT ( #141, #267, ( #199 ) ) ;
#69 = PERSON_AND_ORGANIZATION ( #18446744073709551615, #18446744073709551615 ) ;
#70 = PERSON ( 'NAUO-PER177', 'UNSPECIFIED', 'UNSPECIFIED', ('UNSPECIFIED'), ('UNSPECIFIED'), ('UNSPECIFIED') ) ;
#71 = LOCAL_TIME ( 18, 49, 57.00000000000000000, #382 ) ;
#72 = CARTESIAN_POINT ( 'NONE',  ( 8.349999481172002191, 19.24999645996100739, -2.058321952820000078 ) ) ;
#73 = SECURITY_CLASSIFICATION_LEVEL ( 'unclassified' ) ;
#74 = CALENDAR_DATE ( 2026, 22, 6 ) ;
#75 = CC_DESIGN_DATE_AND_TIME_ASSIGNMENT ( #226, #104, ( #362 ) ) ;
#76 = APPLIED_DOCUMENT_REFERENCE ( #374,'',( #258) ) ;
#77 = PROPERTY_DEFINITION ('external definition','', #374 ) ;
#78 = DIRECTION ( 'NONE',  ( 4.890937612370273194E-29, -3.155443620884047222E-30, 0.9999999999999997780 ) ) ;
#79 = APPLICATION_CONTEXT ( 'configuration controlled 3d designs of mechanical parts and assemblies' ) ;
#80 = COORDINATED_UNIVERSAL_TIME_OFFSET ( 10, 0, .AHEAD. ) ;
#81 = DIRECTION ( 'NONE',  ( 4.890937612370273194E-29, -3.155443620884047222E-30, 0.9999999999999997780 ) ) ;
#82 = CC_DESIGN_APPROVAL ( #32, ( #169 ) ) ;
#83 = DATE_AND_TIME ( #178, #210 ) ;
#84 = DOCUMENT_FILE ( '6461079856.step.STEP' , '', '', #124, '' ,$ ) ;
#85 = CC_DESIGN_PERSON_AND_ORGANIZATION_ASSIGNMENT ( #18, #166, ( #25 ) ) ;
#86 = MECHANICAL_CONTEXT ( 'NONE', #181, 'mechanical' ) ;
#87 = DATE_AND_TIME ( #150, #282 ) ;
#88 = AXIS2_PLACEMENT_3D ( 'NONE', #214, #254, #97 ) ;
#89 = CC_DESIGN_APPROVAL ( #139, ( #152 ) ) ;
#90 = DESIGN_CONTEXT ( 'detailed design', #142, 'design' ) ;
#91 = PERSON_AND_ORGANIZATION ( #18446744073709551615, #18446744073709551615 ) ;
#92 = CC_DESIGN_PERSON_AND_ORGANIZATION_ASSIGNMENT ( #312, #189, ( #274 ) ) ;
#93 =( NAMED_UNIT ( * ) PLANE_ANGLE_UNIT ( ) SI_UNIT ( $, .RADIAN. ) );
#94 = CC_DESIGN_APPROVAL ( #177, ( #199 ) ) ;
#95 = COORDINATED_UNIVERSAL_TIME_OFFSET ( 10, 0, .AHEAD. ) ;
#96 = CC_DESIGN_PERSON_AND_ORGANIZATION_ASSIGNMENT ( #121, #356, ( #43 ) ) ;
#97 = DIRECTION ( 'NONE',  ( 1.000000000000000000, 0.000000000000000000, 0.000000000000000000 ) ) ;
#98 = APPROVAL_DATE_TIME ( #250, #330 ) ;
#99 = DOCUMENT_TYPE ( 'geometry' ) ;
#100 = PERSON_AND_ORGANIZATION ( #18446744073709551615, #18446744073709551615 ) ;
#101 = APPROVAL_PERSON_ORGANIZATION ( #243, #148, #277 ) ;
#102 = DIRECTION ( 'NONE',  ( 0.000000000000000000, 0.000000000000000000, 1.000000000000000000 ) ) ;
#103 = COORDINATED_UNIVERSAL_TIME_OFFSET ( 10, 0, .AHEAD. ) ;
#104 = DATE_TIME_ROLE ( 'classification_date' ) ;
#105 = COORDINATED_UNIVERSAL_TIME_OFFSET ( 10, 0, .AHEAD. ) ;
#106 = APPROVAL_STATUS ( 'not_yet_approved' ) ;
#107 = DATE_TIME_ROLE ( 'classification_date' ) ;
#108 = CC_DESIGN_APPROVAL ( #348, ( #134 ) ) ;
#109 = PRODUCT_RELATED_PRODUCT_CATEGORY ( 'detail', '', ( #167 ) ) ;
#110 = PERSON_AND_ORGANIZATION_ROLE ( 'classification_officer' ) ;
#111 = DATE_AND_TIME ( #378, #280 ) ;
#112 = PRODUCT_DEFINITION_SHAPE ( 'NONE', 'NONE',  #388 ) ;
#113 = DIRECTION ( 'NONE',  ( 1.000000000000000222, -1.092455418989176591E-28, 4.890937612370273194E-29 ) ) ;
#114 = DATE_TIME_ROLE ( 'classification_date' ) ;
#115 = APPROVAL_PERSON_ORGANIZATION ( #384, #281, #240 ) ;
#116 = DATE_TIME_ROLE ( 'creation_date' ) ;
#117 = CC_DESIGN_APPROVAL ( #17, ( #352 ) ) ;
#118 = CC_DESIGN_PERSON_AND_ORGANIZATION_ASSIGNMENT ( #161, #110, ( #362 ) ) ;
#119 = PERSON_AND_ORGANIZATION_ROLE ( 'design_supplier' ) ;
#120 = PERSON_AND_ORGANIZATION_ROLE ( 'creator' ) ;
#121 = PERSON_AND_ORGANIZATION ( #18446744073709551615, #18446744073709551615 ) ;
#122 = CC_DESIGN_PERSON_AND_ORGANIZATION_ASSIGNMENT ( #162, #371, ( #152 ) ) ;
#123 =( GEOMETRIC_REPRESENTATION_CONTEXT ( 3 ) GLOBAL_UNCERTAINTY_ASSIGNED_CONTEXT ( ( #331 ) ) GLOBAL_UNIT_ASSIGNED_CONTEXT ( ( #184, #361, #252 ) ) REPRESENTATION_CONTEXT ( 'NONE', 'WORKASPACE' ) );
#124 = DOCUMENT_TYPE ( 'geometry' ) ;
#125 =( REPRESENTATION_RELATIONSHIP ('NONE','NONE', #276, #231 ) REPRESENTATION_RELATIONSHIP_WITH_TRANSFORMATION ( #224 )SHAPE_REPRESENTATION_RELATIONSHIP( ) );
#126 = PERSON_AND_ORGANIZATION_ROLE ( 'design_owner' ) ;
#127 = LOCAL_TIME ( 18, 49, 57.00000000000000000, #20 ) ;
#128 = LOCAL_TIME ( 18, 49, 57.00000000000000000, #194 ) ;
#129 = CARTESIAN_POINT ( 'NONE',  ( 8.349999481172003968, 18.74999645996100384, -2.058321952820000078 ) ) ;
#130 = COORDINATED_UNIVERSAL_TIME_OFFSET ( 10, 0, .AHEAD. ) ;
#131 = PERSON_AND_ORGANIZATION ( #18446744073709551615, #18446744073709551615 ) ;
#132 = CC_DESIGN_DATE_AND_TIME_ASSIGNMENT ( #279, #1, ( #43 ) ) ;
#133 = COORDINATED_UNIVERSAL_TIME_OFFSET ( 10, 0, .AHEAD. ) ;
#134 = PRODUCT_DEFINITION_FORMATION_WITH_SPECIFIED_SOURCE ( 'Symmetric', '', #167, .NOT_KNOWN. ) ;
#135 = PERSON_AND_ORGANIZATION_ROLE ( 'creator' ) ;
#136 = PERSON_AND_ORGANIZATION_ROLE ( 'design_supplier' ) ;
#137 = DATE_AND_TIME ( #261, #358 ) ;
#138 = APPROVAL_DATE_TIME ( #350, #17 ) ;
#139 = APPROVAL ( #39, 'Coincident' ) ;
#140 = SECURITY_CLASSIFICATION ( '', '', #278 ) ;
#141 = PERSON_AND_ORGANIZATION ( #18446744073709551615, #18446744073709551615 ) ;
#142 = APPLICATION_CONTEXT ( 'configuration controlled 3d designs of mechanical parts and assemblies' ) ;
#143 = APPLICATION_PROTOCOL_DEFINITION ( 'international standard', 'config_control_design', 1994, #322 ) ;
#144 = APPROVAL ( #173, 'Coincident' ) ;
#145 = APPLICATION_PROTOCOL_DEFINITION ( 'international standard', 'config_control_design', 1994, #142 ) ;
#146 = LOCAL_TIME ( 18, 49, 57.00000000000000000, #59 ) ;
#147 = DATE_AND_TIME ( #354, #41 ) ;
#148 = APPROVAL ( #327, 'Coincident' ) ;
#149 = APPROVAL_ROLE ( '' ) ;
#150 = CALENDAR_DATE ( 2026, 22, 6 ) ;
#151 = AXIS2_PLACEMENT_3D ( 'NONE', #35, #183, #269 ) ;
#152 = SECURITY_CLASSIFICATION ( '', '', #373 ) ;
#153 = APPROVAL_PERSON_ORGANIZATION ( #260, #324, #45 ) ;
#154 = DATE_AND_TIME ( #33, #128 ) ;
#155 = PERSON_AND_ORGANIZATION ( #18446744073709551615, #18446744073709551615 ) ;
#156 = CC_DESIGN_PERSON_AND_ORGANIZATION_ASSIGNMENT ( #91, #363, ( #258 ) ) ;
#157 = OBJECT_ROLE ('mandatory',$ ) ;
#158 = DATE_AND_TIME ( #5, #62 ) ;
#159 = PERSON_AND_ORGANIZATION ( #18446744073709551615, #18446744073709551615 ) ;
#160 = LOCAL_TIME ( 18, 49, 57.00000000000000000, #95 ) ;
#161 = PERSON_AND_ORGANIZATION ( #18446744073709551615, #18446744073709551615 ) ;
#162 = PERSON_AND_ORGANIZATION ( #18446744073709551615, #18446744073709551615 ) ;
#163 = COORDINATED_UNIVERSAL_TIME_OFFSET ( 10, 0, .AHEAD. ) ;
#164 = CC_DESIGN_PERSON_AND_ORGANIZATION_ASSIGNMENT ( #131, #380, ( #349 ) ) ;
#165 = PROPERTY_DEFINITION ('document property','', #84 ) ;
#166 = PERSON_AND_ORGANIZATION_ROLE ( 'creator' ) ;
#167 = PRODUCT ( '6461079856.step', '6461079856.step', '', ( #86 ) ) ;
#168 = AXIS2_PLACEMENT_3D ( 'NONE', #129, #78, #113 ) ;
#169 = SECURITY_CLASSIFICATION ( '', '', #343 ) ;
#170 = CALENDAR_DATE ( 2026, 22, 6 ) ;
#171 = DESIGN_CONTEXT ( 'detailed design', #322, 'design' ) ;
#172 = APPROVAL_STATUS ( 'not_yet_approved' ) ;
#173 = APPROVAL_STATUS ( 'not_yet_approved' ) ;
#174 = PERSON_AND_ORGANIZATION ( #18446744073709551615, #18446744073709551615 ) ;
#175 = PERSON_AND_ORGANIZATION ( #18446744073709551615, #18446744073709551615 ) ;
#176 = APPROVAL_PERSON_ORGANIZATION ( #44, #32, #317 ) ;
#177 = APPROVAL ( #42, 'Coincident' ) ;
#178 = CALENDAR_DATE ( 2026, 22, 6 ) ;
#179 = UNCERTAINTY_MEASURE_WITH_UNIT (LENGTH_MEASURE( 1.000000000000000082E-05 ), #31, 'distance_accuracy_value', 'NONE');
#180 = COORDINATED_UNIVERSAL_TIME_OFFSET ( 10, 0, .AHEAD. ) ;
#181 = APPLICATION_CONTEXT ( 'configuration controlled 3d designs of mechanical parts and assemblies' ) ;
#182 = APPLIED_EXTERNAL_IDENTIFICATION_ASSIGNMENT ( '6461079856.step.STEP' , #367, #351,( #84) ) ;
#183 = DIRECTION ( 'NONE',  ( 0.000000000000000000, 0.000000000000000000, 1.000000000000000000 ) ) ;
#184 =( LENGTH_UNIT ( ) NAMED_UNIT ( * ) SI_UNIT ( .MILLI., .METRE. ) );
#185 = APPROVAL_DATE_TIME ( #332, #309 ) ;
#186 = APPLICATION_PROTOCOL_DEFINITION ( 'international standard', 'config_control_design', 1994, #181 ) ;
#187 = CC_DESIGN_PERSON_AND_ORGANIZATION_ASSIGNMENT ( #22, #239, ( #167 ) ) ;
#188 = ROLE_ASSOCIATION ( #342, #190 ) ;
#189 = PERSON_AND_ORGANIZATION_ROLE ( 'classification_officer' ) ;
#190 = APPLIED_DOCUMENT_REFERENCE ( #53,'',( #43) ) ;
#191 = CC_DESIGN_APPROVAL ( #144, ( #25 ) ) ;
#192 = DATE_AND_TIME ( #291, #290 ) ;
#193 = CC_DESIGN_DATE_AND_TIME_ASSIGNMENT ( #293, #345, ( #25 ) ) ;
#194 = COORDINATED_UNIVERSAL_TIME_OFFSET ( 10, 0, .AHEAD. ) ;
#195 = PRODUCT_DEFINITION_SHAPE ( 'NONE', 'NONE',  #43 ) ;
#196 = DIRECTION ( 'NONE',  ( 1.000000000000000222, -1.092455418989176591E-28, 4.890937612370273194E-29 ) ) ;
#197 = DIRECTION ( 'NONE',  ( 4.890937612370273194E-29, -3.155443620884047222E-30, 0.9999999999999997780 ) ) ;
#198 = APPROVAL_ROLE ( '' ) ;
#199 = PRODUCT_DEFINITION_FORMATION_WITH_SPECIFIED_SOURCE ( 'Symmetric', '', #349, .NOT_KNOWN. ) ;
#200 = CC_DESIGN_PERSON_AND_ORGANIZATION_ASSIGNMENT ( #381, #237, ( #352 ) ) ;
#201 = EXTERNAL_SOURCE (IDENTIFIER('') ) ;
#202 = LOCAL_TIME ( 18, 49, 57.00000000000000000, #313 ) ;
#203 = APPROVAL_PERSON_ORGANIZATION ( #312, #330, #217 ) ;
#204 = PERSON_AND_ORGANIZATION ( #18446744073709551615, #18446744073709551615 ) ;
#205 = PROPERTY_DEFINITION_REPRESENTATION ( #77, #227 ) ;
#206 = PERSON_AND_ORGANIZATION ( #18446744073709551615, #18446744073709551615 ) ;
#207 = COORDINATED_UNIVERSAL_TIME_OFFSET ( 10, 0, .AHEAD. ) ;
#208 =( GEOMETRIC_REPRESENTATION_CONTEXT ( 3 ) GLOBAL_UNCERTAINTY_ASSIGNED_CONTEXT ( ( #179 ) ) GLOBAL_UNIT_ASSIGNED_CONTEXT ( ( #31, #93, #366 ) ) REPRESENTATION_CONTEXT ( 'NONE', 'WORKASPACE' ) );
#209 = APPROVAL_DATE_TIME ( #87, #148 ) ;
#210 = LOCAL_TIME ( 18, 49, 57.00000000000000000, #207 ) ;
#211 = CC_DESIGN_PERSON_AND_ORGANIZATION_ASSIGNMENT ( #159, #3, ( #134 ) ) ;
#212 = COORDINATED_UNIVERSAL_TIME_OFFSET ( 10, 0, .AHEAD. ) ;
#213 = CC_DESIGN_APPROVAL ( #309, ( #140 ) ) ;
#214 = CARTESIAN_POINT ( 'NONE',  ( 0.000000000000000000, 0.000000000000000000, 0.000000000000000000 ) ) ;
#215 = PERSON_AND_ORGANIZATION ( #18446744073709551615, #18446744073709551615 ) ;
#216 = CC_DESIGN_DATE_AND_TIME_ASSIGNMENT ( #137, #107, ( #169 ) ) ;
#217 = APPROVAL_ROLE ( '' ) ;
#218 = AXIS2_PLACEMENT_3D ( 'NONE', #262, #81, #196 ) ;
#219 = CC_DESIGN_SECURITY_CLASSIFICATION ( #169, ( #388 ) ) ;
#220 = APPROVAL_DATE_TIME ( #158, #139 ) ;
#221 =( REPRESENTATION_RELATIONSHIP ('NONE','NONE', #276, #231 ) REPRESENTATION_RELATIONSHIP_WITH_TRANSFORMATION ( #46 )SHAPE_REPRESENTATION_RELATIONSHIP( ) );
#222 = APPROVAL_ROLE ( '' ) ;
#223 = DIRECTION ( 'NONE',  ( 1.000000000000000222, -1.092455418989176591E-28, 4.890937612370273194E-29 ) ) ;
#224 = ITEM_DEFINED_TRANSFORMATION ( 'NONE', 'NONE', #168,  #88 ) ;
#225 = PERSON ( 'NAUO-PER179', 'UNSPECIFIED', 'UNSPECIFIED', ('UNSPECIFIED'), ('UNSPECIFIED'), ('UNSPECIFIED') ) ;
#226 = DATE_AND_TIME ( #372, #377 ) ;
#227 = SHAPE_REPRESENTATION ( '6534431024.step', ( #338 ), #208 ) ;
#228 = ITEM_DEFINED_TRANSFORMATION ( 'NONE', 'NONE', #61,  #338 ) ;
#229 = LOCAL_TIME ( 18, 49, 57.00000000000000000, #105 ) ;
#230 = COORDINATED_UNIVERSAL_TIME_OFFSET ( 10, 0, .AHEAD. ) ;
#231 = SHAPE_REPRESENTATION ( '6461079856.step', ( #88 ), #123 ) ;
#232 = DATE_AND_TIME ( #19, #30 ) ;
#233 = PRODUCT_DEFINITION_SHAPE ( 'NONE', 'NONE',  #258 ) ;
#234 = APPROVAL_DATE_TIME ( #111, #324 ) ;
#235 = PROPERTY_DEFINITION_REPRESENTATION ( #165, #231 ) ;
#236 = APPROVAL_DATE_TIME ( #298, #144 ) ;
#237 = PERSON_AND_ORGANIZATION_ROLE ( 'classification_officer' ) ;
#238 = CC_DESIGN_APPROVAL ( #281, ( #258 ) ) ;
#239 = PERSON_AND_ORGANIZATION_ROLE ( 'design_owner' ) ;
#240 = APPROVAL_ROLE ( '' ) ;
#241 = PRODUCT_RELATED_PRODUCT_CATEGORY ( 'detail', '', ( #263 ) ) ;
#242 = APPROVAL_DATE_TIME ( #147, #357 ) ;
#243 = PERSON_AND_ORGANIZATION ( #18446744073709551615, #18446744073709551615 ) ;
#244 = LOCAL_TIME ( 18, 49, 57.00000000000000000, #130 ) ;
#245 = IDENTIFICATION_ROLE ( 'external document id and location', $) ;
#246 = CC_DESIGN_PERSON_AND_ORGANIZATION_ASSIGNMENT ( #174, #119, ( #34 ) ) ;
#247 = UNCERTAINTY_MEASURE_WITH_UNIT (LENGTH_MEASURE( 1.000000000000000082E-05 ), #320, 'distance_accuracy_value', 'NONE');
#248 = CC_DESIGN_SECURITY_CLASSIFICATION ( #140, ( #34 ) ) ;
#249 = APPLICATION_PROTOCOL_DEFINITION ( 'international standard', 'config_control_design', 1994, #306 ) ;
#250 = DATE_AND_TIME ( #283, #244 ) ;
#251 = PROPERTY_DEFINITION ('external definition','', #53 ) ;
#252 =( NAMED_UNIT ( * ) SI_UNIT ( $, .STERADIAN. ) SOLID_ANGLE_UNIT ( ) );
#253 = APPROVAL_STATUS ( 'not_yet_approved' ) ;
#254 = DIRECTION ( 'NONE',  ( 0.000000000000000000, 0.000000000000000000, 1.000000000000000000 ) ) ;
#255 = APPROVAL_PERSON_ORGANIZATION ( #381, #17, #198 ) ;
#256 = CONTEXT_DEPENDENT_SHAPE_REPRESENTATION ( #125, #112 ) ;
#257 = APPROVAL_ROLE ( '' ) ;
#258 = PRODUCT_DEFINITION ( 'General', '', #34, #171 ) ;
#259 = APPROVAL_ROLE ( '' ) ;
#260 = PERSON_AND_ORGANIZATION ( #18446744073709551615, #18446744073709551615 ) ;
#261 = CALENDAR_DATE ( 2026, 22, 6 ) ;
#262 = CARTESIAN_POINT ( 'NONE',  ( 8.349999481172003968, 19.74999645996100384, -2.058321952819998302 ) ) ;
#263 = PRODUCT ( '6534431024.step', '6534431024.step', '', ( #300 ) ) ;
#264 = CC_DESIGN_APPROVAL ( #357, ( #43 ) ) ;
#265 = PROPERTY_DEFINITION ('document property','', #374 ) ;
#266 = CC_DESIGN_DATE_AND_TIME_ASSIGNMENT ( #83, #116, ( #258 ) ) ;
#267 = PERSON_AND_ORGANIZATION_ROLE ( 'creator' ) ;
#268 = CALENDAR_DATE ( 2026, 22, 6 ) ;
#269 = DIRECTION ( 'NONE',  ( 1.000000000000000000, 0.000000000000000000, 0.000000000000000000 ) ) ;
#270 = DOCUMENT_TYPE ( 'geometry' ) ;
#271 = PERSON_AND_ORGANIZATION ( #18446744073709551615, #18446744073709551615 ) ;
#272 = COORDINATED_UNIVERSAL_TIME_OFFSET ( 10, 0, .AHEAD. ) ;
#273 = LOCAL_TIME ( 18, 49, 57.00000000000000000, #318 ) ;
#274 = SECURITY_CLASSIFICATION ( '', '', #73 ) ;
#275 = APPROVAL_STATUS ( 'not_yet_approved' ) ;
#276 = SHAPE_REPRESENTATION ( 'R2.step', ( #151, #168, #61, #218 ), #346 ) ;
#277 = APPROVAL_ROLE ( '' ) ;
#278 = SECURITY_CLASSIFICATION_LEVEL ( 'unclassified' ) ;
#279 = DATE_AND_TIME ( #305, #146 ) ;
#280 = LOCAL_TIME ( 18, 49, 57.00000000000000000, #163 ) ;
#281 = APPROVAL ( #55, 'Coincident' ) ;
#282 = LOCAL_TIME ( 18, 49, 57.00000000000000000, #212 ) ;
#283 = CALENDAR_DATE ( 2026, 22, 6 ) ;
#284 = CC_DESIGN_PERSON_AND_ORGANIZATION_ASSIGNMENT ( #155, #135, ( #134 ) ) ;
#285 = COORDINATED_UNIVERSAL_TIME_OFFSET ( 10, 0, .AHEAD. ) ;
#286 = APPLICATION_CONTEXT ( 'configuration controlled 3d designs of mechanical parts and assemblies' ) ;
#287 = APPROVAL_STATUS ( 'not_yet_approved' ) ;
#288 = APPLICATION_PROTOCOL_DEFINITION ( 'international standard', 'config_control_design', 1994, #79 ) ;
#289 = APPROVAL_PERSON_ORGANIZATION ( #175, #357, #303 ) ;
#290 = LOCAL_TIME ( 18, 49, 57.00000000000000000, #103 ) ;
#291 = CALENDAR_DATE ( 2026, 22, 6 ) ;
#292 =( NAMED_UNIT ( * ) SI_UNIT ( $, .STERADIAN. ) SOLID_ANGLE_UNIT ( ) );
#293 = DATE_AND_TIME ( #8, #369 ) ;
#294 = PROPERTY_DEFINITION_REPRESENTATION ( #265, #227 ) ;
#295 = CC_DESIGN_DATE_AND_TIME_ASSIGNMENT ( #10, #64, ( #152 ) ) ;
#296 = COORDINATED_UNIVERSAL_TIME_OFFSET ( 10, 0, .AHEAD. ) ;
#297 = APPLIED_EXTERNAL_IDENTIFICATION_ASSIGNMENT ( '6534431024.step.STEP' , #16, #360,( #374) ) ;
#298 = DATE_AND_TIME ( #170, #127 ) ;
#299 = SECURITY_CLASSIFICATION_LEVEL ( 'unclassified' ) ;
#300 = MECHANICAL_CONTEXT ( 'NONE', #306, 'mechanical' ) ;
#301 = OBJECT_ROLE ('mandatory',$ ) ;
#302 = CC_DESIGN_SECURITY_CLASSIFICATION ( #352, ( #390 ) ) ;
#303 = APPROVAL_ROLE ( '' ) ;
#304 = DATE_TIME_ROLE ( 'classification_date' ) ;
#305 = CALENDAR_DATE ( 2026, 22, 6 ) ;
#306 = APPLICATION_CONTEXT ( 'configuration controlled 3d designs of mechanical parts and assemblies' ) ;
#307 = APPROVAL_PERSON_ORGANIZATION ( #100, #139, #222 ) ;
#308 = MECHANICAL_CONTEXT ( 'NONE', #79, 'mechanical' ) ;
#309 = APPROVAL ( #329, 'Coincident' ) ;
#310 = PERSON_AND_ORGANIZATION ( #18446744073709551615, #18446744073709551615 ) ;
#311 = CC_DESIGN_APPROVAL ( #324, ( #362 ) ) ;
#312 = PERSON_AND_ORGANIZATION ( #385, #65 ) ;
#313 = COORDINATED_UNIVERSAL_TIME_OFFSET ( 10, 0, .AHEAD. ) ;
#314 = CC_DESIGN_PERSON_AND_ORGANIZATION_ASSIGNMENT ( #271, #120, ( #34 ) ) ;
#315 = DATE_AND_TIME ( #368, #202 ) ;
#316 =( NAMED_UNIT ( * ) PLANE_ANGLE_UNIT ( ) SI_UNIT ( $, .RADIAN. ) );
#317 = APPROVAL_ROLE ( '' ) ;
#318 = COORDINATED_UNIVERSAL_TIME_OFFSET ( 10, 0, .AHEAD. ) ;
#319 = PRODUCT_DEFINITION_SHAPE ( 'NONE', 'NONE',  #389 ) ;
#320 =( LENGTH_UNIT ( ) NAMED_UNIT ( * ) SI_UNIT ( .MILLI., .METRE. ) );
#321 = APPROVAL_PERSON_ORGANIZATION ( #310, #309, #149 ) ;
#322 = APPLICATION_CONTEXT ( 'configuration controlled 3d designs of mechanical parts and assemblies' ) ;
#323 = PROPERTY_DEFINITION_REPRESENTATION ( #11, #231 ) ;
#324 = APPROVAL ( #106, 'Coincident' ) ;
#325 = CALENDAR_DATE ( 2026, 22, 6 ) ;
#326 = ROLE_ASSOCIATION ( #301, #21 ) ;
#327 = APPROVAL_STATUS ( 'not_yet_approved' ) ;
#328 = APPLIED_EXTERNAL_IDENTIFICATION_ASSIGNMENT ( '6461079856.step.STEP' , #245, #201,( #53) ) ;
#329 = APPROVAL_STATUS ( 'not_yet_approved' ) ;
#330 = APPROVAL ( #66, 'UNKNOWN' ) ;
#331 = UNCERTAINTY_MEASURE_WITH_UNIT (LENGTH_MEASURE( 1.000000000000000082E-05 ), #184, 'distance_accuracy_value', 'NONE');
#332 = DATE_AND_TIME ( #27, #160 ) ;
#333 = PRODUCT_RELATED_PRODUCT_CATEGORY ( 'detail', '', ( #349 ) ) ;
#334 = CARTESIAN_POINT ( 'NONE',  ( 0.000000000000000000, 0.000000000000000000, 0.000000000000000000 ) ) ;
#335 = PERSON_AND_ORGANIZATION_ROLE ( 'classification_officer' ) ;
#336 = DIRECTION ( 'NONE',  ( 1.000000000000000000, 0.000000000000000000, 0.000000000000000000 ) ) ;
#337 = DATE_TIME_ROLE ( 'classification_date' ) ;
#338 = AXIS2_PLACEMENT_3D ( 'NONE', #334, #102, #336 ) ;
#339 = CC_DESIGN_SECURITY_CLASSIFICATION ( #152, ( #134 ) ) ;
#340 = CC_DESIGN_DATE_AND_TIME_ASSIGNMENT ( #232, #114, ( #352 ) ) ;
#341 = PERSON_AND_ORGANIZATION_ROLE ( 'classification_officer' ) ;
#342 = OBJECT_ROLE ('mandatory',$ ) ;
#343 = SECURITY_CLASSIFICATION_LEVEL ( 'unclassified' ) ;
#344 = APPROVAL_DATE_TIME ( #315, #348 ) ;
#345 = DATE_TIME_ROLE ( 'creation_date' ) ;
#346 =( GEOMETRIC_REPRESENTATION_CONTEXT ( 3 ) GLOBAL_UNCERTAINTY_ASSIGNED_CONTEXT ( ( #247 ) ) GLOBAL_UNIT_ASSIGNED_CONTEXT ( ( #320, #316, #292 ) ) REPRESENTATION_CONTEXT ( 'NONE', 'WORKASPACE' ) );
#347 = ORGANIZATION ( 'NAUO-ORG179', 'UNSPECIFIED', 'UNSPECIFIED' ) ;
#348 = APPROVAL ( #287, 'Coincident' ) ;
#349 = PRODUCT ( 'R2.step', 'R2.step', '', ( #308 ) ) ;
#350 = DATE_AND_TIME ( #268, #29 ) ;
#351 = EXTERNAL_SOURCE (IDENTIFIER('') ) ;
#352 = SECURITY_CLASSIFICATION ( '', '', #353 ) ;
#353 = SECURITY_CLASSIFICATION_LEVEL ( 'unclassified' ) ;
#354 = CALENDAR_DATE ( 2026, 22, 6 ) ;
#355 = SHAPE_DEFINITION_REPRESENTATION ( #233, #227 ) ;
#356 = PERSON_AND_ORGANIZATION_ROLE ( 'creator' ) ;
#357 = APPROVAL ( #275, 'Coincident' ) ;
#358 = LOCAL_TIME ( 18, 49, 57.00000000000000000, #133 ) ;
#359 = SHAPE_DEFINITION_REPRESENTATION ( #50, #276 ) ;
#360 = EXTERNAL_SOURCE (IDENTIFIER('') ) ;
#361 =( NAMED_UNIT ( * ) PLANE_ANGLE_UNIT ( ) SI_UNIT ( $, .RADIAN. ) );
#362 = SECURITY_CLASSIFICATION ( '', '', #299 ) ;
#363 = PERSON_AND_ORGANIZATION_ROLE ( 'creator' ) ;
#364 = PROPERTY_DEFINITION ('document property','', #53 ) ;
#365 = PROPERTY_DEFINITION_REPRESENTATION ( #251, #231 ) ;
#366 =( NAMED_UNIT ( * ) SI_UNIT ( $, .STERADIAN. ) SOLID_ANGLE_UNIT ( ) );
#367 = IDENTIFICATION_ROLE ( 'external document id and location', $) ;
#368 = CALENDAR_DATE ( 2026, 22, 6 ) ;
#369 = LOCAL_TIME ( 18, 49, 57.00000000000000000, #296 ) ;
#370 = ORGANIZATION ( 'NAUO-ORG177', 'UNSPECIFIED', 'UNSPECIFIED' ) ;
#371 = PERSON_AND_ORGANIZATION_ROLE ( 'classification_officer' ) ;
#372 = CALENDAR_DATE ( 2026, 22, 6 ) ;
#373 = SECURITY_CLASSIFICATION_LEVEL ( 'unclassified' ) ;
#374 = DOCUMENT_FILE ( '6534431024.step.STEP' , '', '', #99, '' ,$ ) ;
#375 = CC_DESIGN_DATE_AND_TIME_ASSIGNMENT ( #24, #304, ( #140 ) ) ;
#376 = DATE_AND_TIME ( #74, #273 ) ;
#377 = LOCAL_TIME ( 18, 49, 57.00000000000000000, #230 ) ;
#378 = CALENDAR_DATE ( 2026, 22, 6 ) ;
#379 = CONTEXT_DEPENDENT_SHAPE_REPRESENTATION ( #221, #47 ) ;
#380 = PERSON_AND_ORGANIZATION_ROLE ( 'design_owner' ) ;
#381 = PERSON_AND_ORGANIZATION ( #225, #347 ) ;
#382 = COORDINATED_UNIVERSAL_TIME_OFFSET ( 10, 0, .AHEAD. ) ;
#383 = LOCAL_TIME ( 18, 49, 57.00000000000000000, #63 ) ;
#384 = PERSON_AND_ORGANIZATION ( #18446744073709551615, #18446744073709551615 ) ;
#385 = PERSON ( 'NAUO-PER178', 'UNSPECIFIED', 'UNSPECIFIED', ('UNSPECIFIED'), ('UNSPECIFIED'), ('UNSPECIFIED') ) ;
#386 = DATE_AND_TIME ( #325, #71 ) ;
#387 = APPROVAL_PERSON_ORGANIZATION ( #206, #348, #259 ) ;
#388 = NEXT_ASSEMBLY_USAGE_OCCURRENCE ( 'NAUO177', ' ', ' ', #25, #43, $ ) ;
#389 = NEXT_ASSEMBLY_USAGE_OCCURRENCE ( 'NAUO178', ' ', ' ', #25, #258, $ ) ;
#390 = NEXT_ASSEMBLY_USAGE_OCCURRENCE ( 'NAUO179', ' ', ' ', #25, #43, $ ) ;
ENDSEC;
END-ISO-10303-21;
