ISO-10303-21;
HEADER;
FILE_DESCRIPTION (( 'STEP AP203' ),
    '1' );
FILE_NAME ('R20.step.STEP',
    '2026-06-22T08:49:55',
    ( 'localuser' ),
    ( '' ),
    'SwSTEP 2.0',
    'SolidWorks 2025',
    '' );
FILE_SCHEMA (( 'CONFIG_CONTROL_DESIGN' ));
ENDSEC;

DATA;
#1 = PERSON_AND_ORGANIZATION_ROLE ( 'classification_officer' ) ;
#2 = DIRECTION ( 'NONE',  ( 1.000000000000000222, -1.092455418989176591E-28, 4.890937612370273194E-29 ) ) ;
#3 = APPROVAL ( #81, 'Coincident' ) ;
#4 = CALENDAR_DATE ( 2026, 22, 6 ) ;
#5 = PERSON_AND_ORGANIZATION ( #18446744073709551615, #18446744073709551615 ) ;
#6 = LOCAL_TIME ( 18, 49, 55.00000000000000000, #229 ) ;
#7 = PERSON_AND_ORGANIZATION ( #18446744073709551615, #18446744073709551615 ) ;
#8 = PERSON_AND_ORGANIZATION ( #18446744073709551615, #18446744073709551615 ) ;
#9 = APPROVAL ( #193, 'Coincident' ) ;
#10 = PERSON_AND_ORGANIZATION_ROLE ( 'design_supplier' ) ;
#11 =( GEOMETRIC_REPRESENTATION_CONTEXT ( 3 ) GLOBAL_UNCERTAINTY_ASSIGNED_CONTEXT ( ( #87 ) ) GLOBAL_UNIT_ASSIGNED_CONTEXT ( ( #170, #257, #187 ) ) REPRESENTATION_CONTEXT ( 'NONE', 'WORKASPACE' ) );
#12 = CC_DESIGN_APPROVAL ( #209, ( #73 ) ) ;
#13 = COORDINATED_UNIVERSAL_TIME_OFFSET ( 10, 0, .AHEAD. ) ;
#14 = CALENDAR_DATE ( 2026, 22, 6 ) ;
#15 = CALENDAR_DATE ( 2026, 22, 6 ) ;
#16 = APPLIED_EXTERNAL_IDENTIFICATION_ASSIGNMENT ( '6461079856.step.STEP' , #142, #124,( #384) ) ;
#17 = DATE_AND_TIME ( #14, #310 ) ;
#18 = PROPERTY_DEFINITION ('document property','', #354 ) ;
#19 = DOCUMENT_TYPE ( 'geometry' ) ;
#20 = APPLICATION_PROTOCOL_DEFINITION ( 'international standard', 'config_control_design', 1994, #359 ) ;
#21 = APPROVAL_STATUS ( 'not_yet_approved' ) ;
#22 = PERSON_AND_ORGANIZATION_ROLE ( 'classification_officer' ) ;
#23 = CC_DESIGN_APPROVAL ( #125, ( #327 ) ) ;
#24 = DIRECTION ( 'NONE',  ( 4.890937612370273194E-29, -3.155443620884047222E-30, 0.9999999999999997780 ) ) ;
#25 = CALENDAR_DATE ( 2026, 22, 6 ) ;
#26 = CC_DESIGN_PERSON_AND_ORGANIZATION_ASSIGNMENT ( #8, #370, ( #374 ) ) ;
#27 = APPROVAL_ROLE ( '' ) ;
#28 = ROLE_ASSOCIATION ( #292, #368 ) ;
#29 = APPLICATION_PROTOCOL_DEFINITION ( 'international standard', 'config_control_design', 1994, #281 ) ;
#30 = CALENDAR_DATE ( 2026, 22, 6 ) ;
#31 = LOCAL_TIME ( 18, 49, 55.00000000000000000, #277 ) ;
#32 = PRODUCT_RELATED_PRODUCT_CATEGORY ( 'detail', '', ( #199 ) ) ;
#33 = CALENDAR_DATE ( 2026, 22, 6 ) ;
#34 = COORDINATED_UNIVERSAL_TIME_OFFSET ( 10, 0, .AHEAD. ) ;
#35 = CC_DESIGN_DATE_AND_TIME_ASSIGNMENT ( #180, #119, ( #73 ) ) ;
#36 = PERSON_AND_ORGANIZATION ( #18446744073709551615, #18446744073709551615 ) ;
#37 = PERSON_AND_ORGANIZATION ( #18446744073709551615, #18446744073709551615 ) ;
#38 = CC_DESIGN_APPROVAL ( #83, ( #348 ) ) ;
#39 = CALENDAR_DATE ( 2026, 22, 6 ) ;
#40 = IDENTIFICATION_ROLE ( 'external document id and location', $) ;
#41 = PERSON_AND_ORGANIZATION ( #18446744073709551615, #18446744073709551615 ) ;
#42 = PERSON_AND_ORGANIZATION_ROLE ( 'creator' ) ;
#43 = CC_DESIGN_DATE_AND_TIME_ASSIGNMENT ( #286, #346, ( #300 ) ) ;
#44 = APPROVAL_PERSON_ORGANIZATION ( #37, #9, #224 ) ;
#45 = COORDINATED_UNIVERSAL_TIME_OFFSET ( 10, 0, .AHEAD. ) ;
#46 = APPROVAL_ROLE ( '' ) ;
#47 = PERSON_AND_ORGANIZATION ( #18446744073709551615, #18446744073709551615 ) ;
#48 = PRODUCT_DEFINITION_SHAPE ( 'NONE', 'NONE',  #388 ) ;
#49 = APPROVAL_PERSON_ORGANIZATION ( #333, #125, #66 ) ;
#50 = PERSON_AND_ORGANIZATION ( #18446744073709551615, #18446744073709551615 ) ;
#51 = SHAPE_DEFINITION_REPRESENTATION ( #110, #105 ) ;
#52 = PERSON_AND_ORGANIZATION ( #379, #375 ) ;
#53 = CC_DESIGN_PERSON_AND_ORGANIZATION_ASSIGNMENT ( #120, #237, ( #157 ) ) ;
#54 = SECURITY_CLASSIFICATION_LEVEL ( 'unclassified' ) ;
#55 = SECURITY_CLASSIFICATION ( '', '', #162 ) ;
#56 = CALENDAR_DATE ( 2026, 22, 6 ) ;
#57 = APPLICATION_CONTEXT ( 'configuration controlled 3d designs of mechanical parts and assemblies' ) ;
#58 = DESIGN_CONTEXT ( 'detailed design', #299, 'design' ) ;
#59 =( NAMED_UNIT ( * ) PLANE_ANGLE_UNIT ( ) SI_UNIT ( $, .RADIAN. ) );
#60 = DATE_TIME_ROLE ( 'classification_date' ) ;
#61 =( GEOMETRIC_REPRESENTATION_CONTEXT ( 3 ) GLOBAL_UNCERTAINTY_ASSIGNED_CONTEXT ( ( #323 ) ) GLOBAL_UNIT_ASSIGNED_CONTEXT ( ( #270, #235, #326 ) ) REPRESENTATION_CONTEXT ( 'NONE', 'WORKASPACE' ) );
#62 = DOCUMENT_FILE ( '6534431024.step.STEP' , '', '', #263, '' ,$ ) ;
#63 = CC_DESIGN_APPROVAL ( #236, ( #226 ) ) ;
#64 = APPROVAL ( #336, 'Coincident' ) ;
#65 = CALENDAR_DATE ( 2026, 22, 6 ) ;
#66 = APPROVAL_ROLE ( '' ) ;
#67 = CALENDAR_DATE ( 2026, 22, 6 ) ;
#68 = LOCAL_TIME ( 18, 49, 55.00000000000000000, #301 ) ;
#69 = PERSON_AND_ORGANIZATION ( #18446744073709551615, #18446744073709551615 ) ;
#70 = CALENDAR_DATE ( 2026, 22, 6 ) ;
#71 = APPROVAL ( #112, 'Coincident' ) ;
#72 = COORDINATED_UNIVERSAL_TIME_OFFSET ( 10, 0, .AHEAD. ) ;
#73 = SECURITY_CLASSIFICATION ( '', '', #54 ) ;
#74 = APPROVAL_ROLE ( '' ) ;
#75 = DIRECTION ( 'NONE',  ( 1.000000000000000000, 0.000000000000000000, 0.000000000000000000 ) ) ;
#76 = CALENDAR_DATE ( 2026, 22, 6 ) ;
#77 = APPROVAL ( #218, 'Coincident' ) ;
#78 = DATE_AND_TIME ( #15, #338 ) ;
#79 = APPLICATION_CONTEXT ( 'configuration controlled 3d designs of mechanical parts and assemblies' ) ;
#80 = CC_DESIGN_APPROVAL ( #77, ( #374 ) ) ;
#81 = APPROVAL_STATUS ( 'not_yet_approved' ) ;
#82 = APPROVAL_STATUS ( 'not_yet_approved' ) ;
#83 = APPROVAL ( #378, 'Coincident' ) ;
#84 = APPROVAL_STATUS ( 'not_yet_approved' ) ;
#85 = LOCAL_TIME ( 18, 49, 55.00000000000000000, #211 ) ;
#86 = APPROVAL_PERSON_ORGANIZATION ( #52, #176, #154 ) ;
#87 = UNCERTAINTY_MEASURE_WITH_UNIT (LENGTH_MEASURE( 1.000000000000000082E-05 ), #170, 'distance_accuracy_value', 'NONE');
#88 = APPLICATION_PROTOCOL_DEFINITION ( 'international standard', 'config_control_design', 1994, #299 ) ;
#89 = PROPERTY_DEFINITION_REPRESENTATION ( #140, #104 ) ;
#90 = ROLE_ASSOCIATION ( #98, #150 ) ;
#91 = AXIS2_PLACEMENT_3D ( 'NONE', #341, #156, #243 ) ;
#92 = CARTESIAN_POINT ( 'NONE',  ( 7.400002532930002097, 7.299999511719001966, -2.058321952820000078 ) ) ;
#93 = APPROVAL_PERSON_ORGANIZATION ( #312, #3, #232 ) ;
#94 = CALENDAR_DATE ( 2026, 22, 6 ) ;
#95 = CC_DESIGN_PERSON_AND_ORGANIZATION_ASSIGNMENT ( #353, #148, ( #228 ) ) ;
#96 = COORDINATED_UNIVERSAL_TIME_OFFSET ( 10, 0, .AHEAD. ) ;
#97 = COORDINATED_UNIVERSAL_TIME_OFFSET ( 10, 0, .AHEAD. ) ;
#98 = OBJECT_ROLE ('mandatory',$ ) ;
#99 = PRODUCT_DEFINITION_FORMATION_WITH_SPECIFIED_SOURCE ( 'Symmetric', '', #172, .NOT_KNOWN. ) ;
#100 = CC_DESIGN_PERSON_AND_ORGANIZATION_ASSIGNMENT ( #5, #127, ( #55 ) ) ;
#101 = DATE_AND_TIME ( #70, #216 ) ;
#102 = PERSON_AND_ORGANIZATION_ROLE ( 'design_owner' ) ;
#103 = CC_DESIGN_PERSON_AND_ORGANIZATION_ASSIGNMENT ( #121, #294, ( #73 ) ) ;
#104 = SHAPE_REPRESENTATION ( '6461079856.step', ( #91 ), #113 ) ;
#105 = SHAPE_REPRESENTATION ( '6534431024.step', ( #152 ), #11 ) ;
#106 = APPROVAL_DATE_TIME ( #371, #236 ) ;
#107 = LOCAL_TIME ( 18, 49, 55.00000000000000000, #145 ) ;
#108 = APPROVAL_DATE_TIME ( #254, #3 ) ;
#109 = CC_DESIGN_PERSON_AND_ORGANIZATION_ASSIGNMENT ( #158, #274, ( #327 ) ) ;
#110 = PRODUCT_DEFINITION_SHAPE ( 'NONE', 'NONE',  #348 ) ;
#111 = PERSON_AND_ORGANIZATION_ROLE ( 'creator' ) ;
#112 = APPROVAL_STATUS ( 'not_yet_approved' ) ;
#113 =( GEOMETRIC_REPRESENTATION_CONTEXT ( 3 ) GLOBAL_UNCERTAINTY_ASSIGNED_CONTEXT ( ( #297 ) ) GLOBAL_UNIT_ASSIGNED_CONTEXT ( ( #268, #59, #213 ) ) REPRESENTATION_CONTEXT ( 'NONE', 'WORKASPACE' ) );
#114 = CC_DESIGN_SECURITY_CLASSIFICATION ( #208, ( #374 ) ) ;
#115 = COORDINATED_UNIVERSAL_TIME_OFFSET ( 10, 0, .AHEAD. ) ;
#116 = CC_DESIGN_PERSON_AND_ORGANIZATION_ASSIGNMENT ( #289, #137, ( #300 ) ) ;
#117 = PROPERTY_DEFINITION_REPRESENTATION ( #340, #104 ) ;
#118 = CARTESIAN_POINT ( 'NONE',  ( 7.400002532930001209, 6.299999511719004630, -2.058321952820000078 ) ) ;
#119 = DATE_TIME_ROLE ( 'classification_date' ) ;
#120 = PERSON_AND_ORGANIZATION ( #18446744073709551615, #18446744073709551615 ) ;
#121 = PERSON_AND_ORGANIZATION ( #335, #332 ) ;
#122 = LOCAL_TIME ( 18, 49, 55.00000000000000000, #227 ) ;
#123 = DATE_AND_TIME ( #56, #85 ) ;
#124 = EXTERNAL_SOURCE (IDENTIFIER('') ) ;
#125 = APPROVAL ( #303, 'Coincident' ) ;
#126 = PERSON_AND_ORGANIZATION ( #203, #210 ) ;
#127 = PERSON_AND_ORGANIZATION_ROLE ( 'classification_officer' ) ;
#128 = PRODUCT_RELATED_PRODUCT_CATEGORY ( 'detail', '', ( #172 ) ) ;
#129 = LOCAL_TIME ( 18, 49, 55.00000000000000000, #97 ) ;
#130 = PERSON_AND_ORGANIZATION ( #18446744073709551615, #18446744073709551615 ) ;
#131 = DATE_TIME_ROLE ( 'classification_date' ) ;
#132 = APPROVAL_ROLE ( '' ) ;
#133 = APPROVAL_PERSON_ORGANIZATION ( #223, #64, #334 ) ;
#134 = CC_DESIGN_SECURITY_CLASSIFICATION ( #226, ( #388 ) ) ;
#135 = CC_DESIGN_DATE_AND_TIME_ASSIGNMENT ( #101, #369, ( #208 ) ) ;
#136 = SECURITY_CLASSIFICATION_LEVEL ( 'unclassified' ) ;
#137 = PERSON_AND_ORGANIZATION_ROLE ( 'classification_officer' ) ;
#138 = CALENDAR_DATE ( 2026, 22, 6 ) ;
#139 = LOCAL_TIME ( 18, 49, 55.00000000000000000, #253 ) ;
#140 = PROPERTY_DEFINITION ('external definition','', #384 ) ;
#141 = SECURITY_CLASSIFICATION_LEVEL ( 'unclassified' ) ;
#142 = IDENTIFICATION_ROLE ( 'external document id and location', $) ;
#143 = PERSON_AND_ORGANIZATION ( #18446744073709551615, #18446744073709551615 ) ;
#144 = CC_DESIGN_DATE_AND_TIME_ASSIGNMENT ( #279, #131, ( #55 ) ) ;
#145 = COORDINATED_UNIVERSAL_TIME_OFFSET ( 10, 0, .AHEAD. ) ;
#146 = CC_DESIGN_SECURITY_CLASSIFICATION ( #300, ( #99 ) ) ;
#147 = DATE_AND_TIME ( #25, #276 ) ;
#148 = PERSON_AND_ORGANIZATION_ROLE ( 'design_owner' ) ;
#149 = PROPERTY_DEFINITION_REPRESENTATION ( #345, #104 ) ;
#150 = APPLIED_DOCUMENT_REFERENCE ( #62,'',( #348) ) ;
#151 = DIRECTION ( 'NONE',  ( 1.000000000000000222, -1.092455418989176591E-28, 4.890937612370273194E-29 ) ) ;
#152 = AXIS2_PLACEMENT_3D ( 'NONE', #351, #372, #75 ) ;
#153 = APPROVAL_PERSON_ORGANIZATION ( #264, #83, #205 ) ;
#154 = APPROVAL_ROLE ( '' ) ;
#155 = SECURITY_CLASSIFICATION ( '', '', #296 ) ;
#156 = DIRECTION ( 'NONE',  ( 0.000000000000000000, 0.000000000000000000, 1.000000000000000000 ) ) ;
#157 = PRODUCT_DEFINITION ( 'General', '', #374, #58 ) ;
#158 = PERSON_AND_ORGANIZATION ( #18446744073709551615, #18446744073709551615 ) ;
#159 = AXIS2_PLACEMENT_3D ( 'NONE', #217, #357, #2 ) ;
#160 = CALENDAR_DATE ( 2026, 22, 6 ) ;
#161 = CC_DESIGN_APPROVAL ( #176, ( #155 ) ) ;
#162 = SECURITY_CLASSIFICATION_LEVEL ( 'unclassified' ) ;
#163 = OBJECT_ROLE ('mandatory',$ ) ;
#164 = APPLICATION_PROTOCOL_DEFINITION ( 'international standard', 'config_control_design', 1994, #79 ) ;
#165 = DATE_AND_TIME ( #67, #272 ) ;
#166 = CC_DESIGN_SECURITY_CLASSIFICATION ( #55, ( #327 ) ) ;
#167 = CALENDAR_DATE ( 2026, 22, 6 ) ;
#168 = CC_DESIGN_DATE_AND_TIME_ASSIGNMENT ( #311, #60, ( #226 ) ) ;
#169 = COORDINATED_UNIVERSAL_TIME_OFFSET ( 10, 0, .AHEAD. ) ;
#170 =( LENGTH_UNIT ( ) NAMED_UNIT ( * ) SI_UNIT ( .MILLI., .METRE. ) );
#171 = SHAPE_DEFINITION_REPRESENTATION ( #343, #104 ) ;
#172 = PRODUCT ( '6534431024.step', '6534431024.step', '', ( #262 ) ) ;
#173 =( REPRESENTATION_RELATIONSHIP ('NONE','NONE', #267, #104 ) REPRESENTATION_RELATIONSHIP_WITH_TRANSFORMATION ( #212 )SHAPE_REPRESENTATION_RELATIONSHIP( ) );
#174 = PERSON_AND_ORGANIZATION ( #18446744073709551615, #18446744073709551615 ) ;
#175 = SECURITY_CLASSIFICATION_LEVEL ( 'unclassified' ) ;
#176 = APPROVAL ( #82, 'UNKNOWN' ) ;
#177 = COORDINATED_UNIVERSAL_TIME_OFFSET ( 10, 0, .AHEAD. ) ;
#178 = AXIS2_PLACEMENT_3D ( 'NONE', #118, #24, #151 ) ;
#179 = LOCAL_TIME ( 18, 49, 55.00000000000000000, #45 ) ;
#180 = DATE_AND_TIME ( #4, #190 ) ;
#181 = APPROVAL ( #84, 'Coincident' ) ;
#182 = DATE_AND_TIME ( #65, #195 ) ;
#183 = EXTERNAL_SOURCE (IDENTIFIER('') ) ;
#184 = LOCAL_TIME ( 18, 49, 55.00000000000000000, #225 ) ;
#185 = APPLIED_DOCUMENT_REFERENCE ( #384,'',( #261) ) ;
#186 = CC_DESIGN_PERSON_AND_ORGANIZATION_ASSIGNMENT ( #50, #342, ( #99 ) ) ;
#187 =( NAMED_UNIT ( * ) SI_UNIT ( $, .STERADIAN. ) SOLID_ANGLE_UNIT ( ) );
#188 = DATE_AND_TIME ( #39, #265 ) ;
#189 = PERSON_AND_ORGANIZATION_ROLE ( 'classification_officer' ) ;
#190 = LOCAL_TIME ( 18, 49, 55.00000000000000000, #358 ) ;
#191 = APPROVAL_DATE_TIME ( #308, #77 ) ;
#192 = CC_DESIGN_PERSON_AND_ORGANIZATION_ASSIGNMENT ( #7, #42, ( #261 ) ) ;
#193 = APPROVAL_STATUS ( 'not_yet_approved' ) ;
#194 = CALENDAR_DATE ( 2026, 22, 6 ) ;
#195 = LOCAL_TIME ( 18, 49, 55.00000000000000000, #34 ) ;
#196 = CC_DESIGN_APPROVAL ( #360, ( #300 ) ) ;
#197 = CC_DESIGN_DATE_AND_TIME_ASSIGNMENT ( #380, #376, ( #348 ) ) ;
#198 = PERSON_AND_ORGANIZATION_ROLE ( 'design_owner' ) ;
#199 = PRODUCT ( '6461079856.step', '6461079856.step', '', ( #330 ) ) ;
#200 = DATE_AND_TIME ( #167, #179 ) ;
#201 = APPROVAL_PERSON_ORGANIZATION ( #130, #77, #132 ) ;
#202 = DOCUMENT_TYPE ( 'geometry' ) ;
#203 = PERSON ( 'NAUO-PER104', 'UNSPECIFIED', 'UNSPECIFIED', ('UNSPECIFIED'), ('UNSPECIFIED'), ('UNSPECIFIED') ) ;
#204 = LOCAL_TIME ( 18, 49, 55.00000000000000000, #177 ) ;
#205 = APPROVAL_ROLE ( '' ) ;
#206 = CC_DESIGN_PERSON_AND_ORGANIZATION_ASSIGNMENT ( #41, #10, ( #374 ) ) ;
#207 = DATE_AND_TIME ( #30, #68 ) ;
#208 = SECURITY_CLASSIFICATION ( '', '', #136 ) ;
#209 = APPROVAL ( #240, 'UNKNOWN' ) ;
#210 = ORGANIZATION ( 'NAUO-ORG104', 'UNSPECIFIED', 'UNSPECIFIED' ) ;
#211 = COORDINATED_UNIVERSAL_TIME_OFFSET ( 10, 0, .AHEAD. ) ;
#212 = ITEM_DEFINED_TRANSFORMATION ( 'NONE', 'NONE', #337,  #91 ) ;
#213 =( NAMED_UNIT ( * ) SI_UNIT ( $, .STERADIAN. ) SOLID_ANGLE_UNIT ( ) );
#214 = ITEM_DEFINED_TRANSFORMATION ( 'NONE', 'NONE', #178,  #91 ) ;
#215 = CC_DESIGN_PERSON_AND_ORGANIZATION_ASSIGNMENT ( #36, #366, ( #327 ) ) ;
#216 = LOCAL_TIME ( 18, 49, 55.00000000000000000, #96 ) ;
#217 = CARTESIAN_POINT ( 'NONE',  ( 7.400002532930002097, 6.799999511719004630, -2.058321952820000078 ) ) ;
#218 = APPROVAL_STATUS ( 'not_yet_approved' ) ;
#219 = APPROVAL_DATE_TIME ( #362, #9 ) ;
#220 = SHAPE_DEFINITION_REPRESENTATION ( #255, #267 ) ;
#221 = APPLIED_EXTERNAL_IDENTIFICATION_ASSIGNMENT ( '6461079856.step.STEP' , #40, #183,( #354) ) ;
#222 =( REPRESENTATION_RELATIONSHIP ('NONE','NONE', #267, #104 ) REPRESENTATION_RELATIONSHIP_WITH_TRANSFORMATION ( #214 )SHAPE_REPRESENTATION_RELATIONSHIP( ) );
#223 = PERSON_AND_ORGANIZATION ( #18446744073709551615, #18446744073709551615 ) ;
#224 = APPROVAL_ROLE ( '' ) ;
#225 = COORDINATED_UNIVERSAL_TIME_OFFSET ( 10, 0, .AHEAD. ) ;
#226 = SECURITY_CLASSIFICATION ( '', '', #175 ) ;
#227 = COORDINATED_UNIVERSAL_TIME_OFFSET ( 10, 0, .AHEAD. ) ;
#228 = PRODUCT ( 'R20.step', 'R20.step', '', ( #302 ) ) ;
#229 = COORDINATED_UNIVERSAL_TIME_OFFSET ( 10, 0, .AHEAD. ) ;
#230 = APPROVAL_ROLE ( '' ) ;
#231 = APPROVAL_PERSON_ORGANIZATION ( #69, #71, #46 ) ;
#232 = APPROVAL_ROLE ( '' ) ;
#233 = CARTESIAN_POINT ( 'NONE',  ( 0.000000000000000000, 0.000000000000000000, 0.000000000000000000 ) ) ;
#234 = APPROVAL_ROLE ( '' ) ;
#235 =( NAMED_UNIT ( * ) PLANE_ANGLE_UNIT ( ) SI_UNIT ( $, .RADIAN. ) );
#236 = APPROVAL ( #21, 'UNKNOWN' ) ;
#237 = PERSON_AND_ORGANIZATION_ROLE ( 'creator' ) ;
#238 = CC_DESIGN_SECURITY_CLASSIFICATION ( #155, ( #390 ) ) ;
#239 = APPLICATION_CONTEXT ( 'configuration controlled 3d designs of mechanical parts and assemblies' ) ;
#240 = APPROVAL_STATUS ( 'not_yet_approved' ) ;
#241 = DESIGN_CONTEXT ( 'detailed design', #79, 'design' ) ;
#242 = CC_DESIGN_PERSON_AND_ORGANIZATION_ASSIGNMENT ( #52, #22, ( #155 ) ) ;
#243 = DIRECTION ( 'NONE',  ( 1.000000000000000000, 0.000000000000000000, 0.000000000000000000 ) ) ;
#244 = APPROVAL_PERSON_ORGANIZATION ( #126, #236, #74 ) ;
#245 = DESIGN_CONTEXT ( 'detailed design', #359, 'design' ) ;
#246 = COORDINATED_UNIVERSAL_TIME_OFFSET ( 10, 0, .AHEAD. ) ;
#247 = CALENDAR_DATE ( 2026, 22, 6 ) ;
#248 = PROPERTY_DEFINITION ('document property','', #62 ) ;
#249 = DATE_TIME_ROLE ( 'creation_date' ) ;
#250 = AXIS2_PLACEMENT_3D ( 'NONE', #233, #258, #328 ) ;
#251 = CALENDAR_DATE ( 2026, 22, 6 ) ;
#252 = PRODUCT_RELATED_PRODUCT_CATEGORY ( 'detail', '', ( #228 ) ) ;
#253 = COORDINATED_UNIVERSAL_TIME_OFFSET ( 10, 0, .AHEAD. ) ;
#254 = DATE_AND_TIME ( #138, #6 ) ;
#255 = PRODUCT_DEFINITION_SHAPE ( 'NONE', 'NONE',  #157 ) ;
#256 = ITEM_DEFINED_TRANSFORMATION ( 'NONE', 'NONE', #159,  #152 ) ;
#257 =( NAMED_UNIT ( * ) PLANE_ANGLE_UNIT ( ) SI_UNIT ( $, .RADIAN. ) );
#258 = DIRECTION ( 'NONE',  ( 0.000000000000000000, 0.000000000000000000, 1.000000000000000000 ) ) ;
#259 = PRODUCT_DEFINITION_SHAPE ( 'NONE', 'NONE',  #390 ) ;
#260 = APPLICATION_PROTOCOL_DEFINITION ( 'international standard', 'config_control_design', 1994, #239 ) ;
#261 = PRODUCT_DEFINITION ( 'General', '', #327, #241 ) ;
#262 = MECHANICAL_CONTEXT ( 'NONE', #239, 'mechanical' ) ;
#263 = DOCUMENT_TYPE ( 'geometry' ) ;
#264 = PERSON_AND_ORGANIZATION ( #18446744073709551615, #18446744073709551615 ) ;
#265 = LOCAL_TIME ( 18, 49, 55.00000000000000000, #13 ) ;
#266 = CONTEXT_DEPENDENT_SHAPE_REPRESENTATION ( #222, #259 ) ;
#267 = SHAPE_REPRESENTATION ( 'R20.step', ( #250, #159, #337, #178 ), #61 ) ;
#268 =( LENGTH_UNIT ( ) NAMED_UNIT ( * ) SI_UNIT ( .MILLI., .METRE. ) );
#269 = DATE_AND_TIME ( #33, #204 ) ;
#270 =( LENGTH_UNIT ( ) NAMED_UNIT ( * ) SI_UNIT ( .MILLI., .METRE. ) );
#271 = COORDINATED_UNIVERSAL_TIME_OFFSET ( 10, 0, .AHEAD. ) ;
#272 = LOCAL_TIME ( 18, 49, 55.00000000000000000, #72 ) ;
#273 = ROLE_ASSOCIATION ( #163, #185 ) ;
#274 = PERSON_AND_ORGANIZATION_ROLE ( 'design_supplier' ) ;
#275 = APPROVAL_PERSON_ORGANIZATION ( #295, #181, #27 ) ;
#276 = LOCAL_TIME ( 18, 49, 55.00000000000000000, #271 ) ;
#277 = COORDINATED_UNIVERSAL_TIME_OFFSET ( 10, 0, .AHEAD. ) ;
#278 = CC_DESIGN_PERSON_AND_ORGANIZATION_ASSIGNMENT ( #126, #1, ( #226 ) ) ;
#279 = DATE_AND_TIME ( #94, #355 ) ;
#280 = APPROVAL_DATE_TIME ( #188, #125 ) ;
#281 = APPLICATION_CONTEXT ( 'configuration controlled 3d designs of mechanical parts and assemblies' ) ;
#282 = CC_DESIGN_PERSON_AND_ORGANIZATION_ASSIGNMENT ( #143, #111, ( #348 ) ) ;
#283 = CC_DESIGN_APPROVAL ( #9, ( #208 ) ) ;
#284 = DATE_TIME_ROLE ( 'creation_date' ) ;
#285 = CALENDAR_DATE ( 2026, 22, 6 ) ;
#286 = DATE_AND_TIME ( #76, #361 ) ;
#287 = APPROVAL_STATUS ( 'not_yet_approved' ) ;
#288 = CC_DESIGN_APPROVAL ( #64, ( #261 ) ) ;
#289 = PERSON_AND_ORGANIZATION ( #18446744073709551615, #18446744073709551615 ) ;
#290 = PERSON_AND_ORGANIZATION_ROLE ( 'creator' ) ;
#291 = DATE_TIME_ROLE ( 'classification_date' ) ;
#292 = OBJECT_ROLE ('mandatory',$ ) ;
#293 = APPROVAL_PERSON_ORGANIZATION ( #121, #209, #234 ) ;
#294 = PERSON_AND_ORGANIZATION_ROLE ( 'classification_officer' ) ;
#295 = PERSON_AND_ORGANIZATION ( #18446744073709551615, #18446744073709551615 ) ;
#296 = SECURITY_CLASSIFICATION_LEVEL ( 'unclassified' ) ;
#297 = UNCERTAINTY_MEASURE_WITH_UNIT (LENGTH_MEASURE( 1.000000000000000082E-05 ), #268, 'distance_accuracy_value', 'NONE');
#298 = DIRECTION ( 'NONE',  ( 1.000000000000000222, -1.092455418989176591E-28, 4.890937612370273194E-29 ) ) ;
#299 = APPLICATION_CONTEXT ( 'configuration controlled 3d designs of mechanical parts and assemblies' ) ;
#300 = SECURITY_CLASSIFICATION ( '', '', #141 ) ;
#301 = COORDINATED_UNIVERSAL_TIME_OFFSET ( 10, 0, .AHEAD. ) ;
#302 = MECHANICAL_CONTEXT ( 'NONE', #281, 'mechanical' ) ;
#303 = APPROVAL_STATUS ( 'not_yet_approved' ) ;
#304 = CC_DESIGN_DATE_AND_TIME_ASSIGNMENT ( #123, #249, ( #157 ) ) ;
#305 = PERSON_AND_ORGANIZATION ( #18446744073709551615, #18446744073709551615 ) ;
#306 = DATE_AND_TIME ( #160, #139 ) ;
#307 = PERSON_AND_ORGANIZATION ( #18446744073709551615, #18446744073709551615 ) ;
#308 = DATE_AND_TIME ( #251, #31 ) ;
#309 = CC_DESIGN_DATE_AND_TIME_ASSIGNMENT ( #207, #291, ( #155 ) ) ;
#310 = LOCAL_TIME ( 18, 49, 55.00000000000000000, #347 ) ;
#311 = DATE_AND_TIME ( #194, #107 ) ;
#312 = PERSON_AND_ORGANIZATION ( #18446744073709551615, #18446744073709551615 ) ;
#313 = APPROVAL_DATE_TIME ( #78, #83 ) ;
#314 = APPLIED_EXTERNAL_IDENTIFICATION_ASSIGNMENT ( '6534431024.step.STEP' , #315, #365,( #62) ) ;
#315 = IDENTIFICATION_ROLE ( 'external document id and location', $) ;
#316 = CALENDAR_DATE ( 2026, 22, 6 ) ;
#317 = CC_DESIGN_PERSON_AND_ORGANIZATION_ASSIGNMENT ( #339, #290, ( #99 ) ) ;
#318 = APPROVAL_DATE_TIME ( #269, #176 ) ;
#319 = CONTEXT_DEPENDENT_SHAPE_REPRESENTATION ( #344, #48 ) ;
#320 = APPROVAL_DATE_TIME ( #182, #181 ) ;
#321 = CC_DESIGN_SECURITY_CLASSIFICATION ( #73, ( #389 ) ) ;
#322 = PROPERTY_DEFINITION_REPRESENTATION ( #363, #105 ) ;
#323 = UNCERTAINTY_MEASURE_WITH_UNIT (LENGTH_MEASURE( 1.000000000000000082E-05 ), #270, 'distance_accuracy_value', 'NONE');
#324 = DIRECTION ( 'NONE',  ( 4.890937612370273194E-29, -3.155443620884047222E-30, 0.9999999999999997780 ) ) ;
#325 = CONTEXT_DEPENDENT_SHAPE_REPRESENTATION ( #173, #377 ) ;
#326 =( NAMED_UNIT ( * ) SI_UNIT ( $, .STERADIAN. ) SOLID_ANGLE_UNIT ( ) );
#327 = PRODUCT_DEFINITION_FORMATION_WITH_SPECIFIED_SOURCE ( 'Symmetric', '', #199, .NOT_KNOWN. ) ;
#328 = DIRECTION ( 'NONE',  ( 1.000000000000000000, 0.000000000000000000, 0.000000000000000000 ) ) ;
#329 = CC_DESIGN_PERSON_AND_ORGANIZATION_ASSIGNMENT ( #47, #198, ( #172 ) ) ;
#330 = MECHANICAL_CONTEXT ( 'NONE', #57, 'mechanical' ) ;
#331 = APPROVAL_DATE_TIME ( #306, #64 ) ;
#332 = ORGANIZATION ( 'NAUO-ORG105', 'UNSPECIFIED', 'UNSPECIFIED' ) ;
#333 = PERSON_AND_ORGANIZATION ( #18446744073709551615, #18446744073709551615 ) ;
#334 = APPROVAL_ROLE ( '' ) ;
#335 = PERSON ( 'NAUO-PER105', 'UNSPECIFIED', 'UNSPECIFIED', ('UNSPECIFIED'), ('UNSPECIFIED'), ('UNSPECIFIED') ) ;
#336 = APPROVAL_STATUS ( 'not_yet_approved' ) ;
#337 = AXIS2_PLACEMENT_3D ( 'NONE', #92, #324, #298 ) ;
#338 = LOCAL_TIME ( 18, 49, 55.00000000000000000, #115 ) ;
#339 = PERSON_AND_ORGANIZATION ( #18446744073709551615, #18446744073709551615 ) ;
#340 = PROPERTY_DEFINITION ('external definition','', #354 ) ;
#341 = CARTESIAN_POINT ( 'NONE',  ( 0.000000000000000000, 0.000000000000000000, 0.000000000000000000 ) ) ;
#342 = PERSON_AND_ORGANIZATION_ROLE ( 'design_supplier' ) ;
#343 = PRODUCT_DEFINITION_SHAPE ( 'NONE', 'NONE',  #261 ) ;
#344 =( REPRESENTATION_RELATIONSHIP ('NONE','NONE', #267, #105 ) REPRESENTATION_RELATIONSHIP_WITH_TRANSFORMATION ( #256 )SHAPE_REPRESENTATION_RELATIONSHIP( ) );
#345 = PROPERTY_DEFINITION ('document property','', #384 ) ;
#346 = DATE_TIME_ROLE ( 'classification_date' ) ;
#347 = COORDINATED_UNIVERSAL_TIME_OFFSET ( 10, 0, .AHEAD. ) ;
#348 = PRODUCT_DEFINITION ( 'General', '', #99, #245 ) ;
#349 = CC_DESIGN_APPROVAL ( #71, ( #55 ) ) ;
#350 = APPROVAL_DATE_TIME ( #17, #360 ) ;
#351 = CARTESIAN_POINT ( 'NONE',  ( 0.000000000000000000, 0.000000000000000000, 0.000000000000000000 ) ) ;
#352 = PROPERTY_DEFINITION_REPRESENTATION ( #18, #104 ) ;
#353 = PERSON_AND_ORGANIZATION ( #18446744073709551615, #18446744073709551615 ) ;
#354 = DOCUMENT_FILE ( '6461079856.step.STEP' , '', '', #202, '' ,$ ) ;
#355 = LOCAL_TIME ( 18, 49, 55.00000000000000000, #246 ) ;
#356 = PROPERTY_DEFINITION_REPRESENTATION ( #248, #105 ) ;
#357 = DIRECTION ( 'NONE',  ( 4.890937612370273194E-29, -3.155443620884047222E-30, 0.9999999999999997780 ) ) ;
#358 = COORDINATED_UNIVERSAL_TIME_OFFSET ( 10, 0, .AHEAD. ) ;
#359 = APPLICATION_CONTEXT ( 'configuration controlled 3d designs of mechanical parts and assemblies' ) ;
#360 = APPROVAL ( #287, 'Coincident' ) ;
#361 = LOCAL_TIME ( 18, 49, 55.00000000000000000, #169 ) ;
#362 = DATE_AND_TIME ( #247, #129 ) ;
#363 = PROPERTY_DEFINITION ('external definition','', #62 ) ;
#364 = APPLICATION_PROTOCOL_DEFINITION ( 'international standard', 'config_control_design', 1994, #57 ) ;
#365 = EXTERNAL_SOURCE (IDENTIFIER('') ) ;
#366 = PERSON_AND_ORGANIZATION_ROLE ( 'creator' ) ;
#367 = CC_DESIGN_APPROVAL ( #181, ( #157 ) ) ;
#368 = APPLIED_DOCUMENT_REFERENCE ( #354,'',( #261) ) ;
#369 = DATE_TIME_ROLE ( 'classification_date' ) ;
#370 = PERSON_AND_ORGANIZATION_ROLE ( 'creator' ) ;
#371 = DATE_AND_TIME ( #285, #184 ) ;
#372 = DIRECTION ( 'NONE',  ( 0.000000000000000000, 0.000000000000000000, 1.000000000000000000 ) ) ;
#373 = CC_DESIGN_PERSON_AND_ORGANIZATION_ASSIGNMENT ( #305, #189, ( #208 ) ) ;
#374 = PRODUCT_DEFINITION_FORMATION_WITH_SPECIFIED_SOURCE ( 'Symmetric', '', #228, .NOT_KNOWN. ) ;
#375 = ORGANIZATION ( 'NAUO-ORG106', 'UNSPECIFIED', 'UNSPECIFIED' ) ;
#376 = DATE_TIME_ROLE ( 'creation_date' ) ;
#377 = PRODUCT_DEFINITION_SHAPE ( 'NONE', 'NONE',  #389 ) ;
#378 = APPROVAL_STATUS ( 'not_yet_approved' ) ;
#379 = PERSON ( 'NAUO-PER106', 'UNSPECIFIED', 'UNSPECIFIED', ('UNSPECIFIED'), ('UNSPECIFIED'), ('UNSPECIFIED') ) ;
#380 = DATE_AND_TIME ( #316, #122 ) ;
#381 = CC_DESIGN_DATE_AND_TIME_ASSIGNMENT ( #165, #284, ( #261 ) ) ;
#382 = APPROVAL_DATE_TIME ( #200, #71 ) ;
#383 = CC_DESIGN_APPROVAL ( #3, ( #99 ) ) ;
#384 = DOCUMENT_FILE ( '6461079856.step.STEP' , '', '', #19, '' ,$ ) ;
#385 = APPROVAL_DATE_TIME ( #147, #209 ) ;
#386 = CC_DESIGN_PERSON_AND_ORGANIZATION_ASSIGNMENT ( #307, #102, ( #199 ) ) ;
#387 = APPROVAL_PERSON_ORGANIZATION ( #174, #360, #230 ) ;
#388 = NEXT_ASSEMBLY_USAGE_OCCURRENCE ( 'NAUO104', ' ', ' ', #157, #348, $ ) ;
#389 = NEXT_ASSEMBLY_USAGE_OCCURRENCE ( 'NAUO105', ' ', ' ', #157, #261, $ ) ;
#390 = NEXT_ASSEMBLY_USAGE_OCCURRENCE ( 'NAUO106', ' ', ' ', #157, #261, $ ) ;
ENDSEC;
END-ISO-10303-21;
