ISO-10303-21;
HEADER;
FILE_DESCRIPTION (( 'STEP AP203' ),
    '1' );
FILE_NAME ('R21.step.STEP',
    '2026-06-22T08:49:56',
    ( 'localuser' ),
    ( '' ),
    'SwSTEP 2.0',
    'SolidWorks 2025',
    '' );
FILE_SCHEMA (( 'CONFIG_CONTROL_DESIGN' ));
ENDSEC;

DATA;
#1 = PROPERTY_DEFINITION_REPRESENTATION ( #78, #66 ) ;
#2 = COORDINATED_UNIVERSAL_TIME_OFFSET ( 10, 0, .AHEAD. ) ;
#3 = CC_DESIGN_PERSON_AND_ORGANIZATION_ASSIGNMENT ( #269, #26, ( #374 ) ) ;
#4 = APPROVAL_DATE_TIME ( #267, #149 ) ;
#5 = PERSON_AND_ORGANIZATION ( #18446744073709551615, #18446744073709551615 ) ;
#6 = LOCAL_TIME ( 18, 49, 56.00000000000000000, #158 ) ;
#7 = APPROVAL_STATUS ( 'not_yet_approved' ) ;
#8 = PERSON_AND_ORGANIZATION ( #18446744073709551615, #18446744073709551615 ) ;
#9 = APPLICATION_PROTOCOL_DEFINITION ( 'international standard', 'config_control_design', 1994, #336 ) ;
#10 = LOCAL_TIME ( 18, 49, 56.00000000000000000, #32 ) ;
#11 = APPLIED_EXTERNAL_IDENTIFICATION_ASSIGNMENT ( '6461079856.step.STEP' , #201, #177,( #44) ) ;
#12 = PERSON_AND_ORGANIZATION ( #18446744073709551615, #18446744073709551615 ) ;
#13 = PRODUCT_RELATED_PRODUCT_CATEGORY ( 'detail', '', ( #257 ) ) ;
#14 = APPROVAL_DATE_TIME ( #283, #115 ) ;
#15 = COORDINATED_UNIVERSAL_TIME_OFFSET ( 10, 0, .AHEAD. ) ;
#16 = PRODUCT_DEFINITION ( 'General', '', #106, #356 ) ;
#17 = APPROVAL_STATUS ( 'not_yet_approved' ) ;
#18 = APPROVAL_PERSON_ORGANIZATION ( #38, #331, #129 ) ;
#19 = DIRECTION ( 'NONE',  ( 1.000000000000000222, -1.092455418989176591E-28, 4.890937612370273194E-29 ) ) ;
#20 = OBJECT_ROLE ('mandatory',$ ) ;
#21 = DOCUMENT_FILE ( '6461079856.step.STEP' , '', '', #60, '' ,$ ) ;
#22 = DIRECTION ( 'NONE',  ( 0.000000000000000000, 0.000000000000000000, 1.000000000000000000 ) ) ;
#23 = COORDINATED_UNIVERSAL_TIME_OFFSET ( 10, 0, .AHEAD. ) ;
#24 = APPROVAL_ROLE ( '' ) ;
#25 = LOCAL_TIME ( 18, 49, 56.00000000000000000, #27 ) ;
#26 = PERSON_AND_ORGANIZATION_ROLE ( 'design_supplier' ) ;
#27 = COORDINATED_UNIVERSAL_TIME_OFFSET ( 10, 0, .AHEAD. ) ;
#28 = PRODUCT_DEFINITION ( 'General', '', #374, #296 ) ;
#29 = PERSON_AND_ORGANIZATION ( #18446744073709551615, #18446744073709551615 ) ;
#30 = LOCAL_TIME ( 18, 49, 56.00000000000000000, #23 ) ;
#31 = APPROVAL_PERSON_ORGANIZATION ( #184, #272, #312 ) ;
#32 = COORDINATED_UNIVERSAL_TIME_OFFSET ( 10, 0, .AHEAD. ) ;
#33 = DATE_TIME_ROLE ( 'creation_date' ) ;
#34 = APPROVAL ( #17, 'UNKNOWN' ) ;
#35 = PERSON_AND_ORGANIZATION ( #18446744073709551615, #18446744073709551615 ) ;
#36 = DATE_AND_TIME ( #330, #274 ) ;
#37 = IDENTIFICATION_ROLE ( 'external document id and location', $) ;
#38 = PERSON_AND_ORGANIZATION ( #18446744073709551615, #18446744073709551615 ) ;
#39 = CC_DESIGN_PERSON_AND_ORGANIZATION_ASSIGNMENT ( #92, #248, ( #94 ) ) ;
#40 = DATE_AND_TIME ( #65, #147 ) ;
#41 =( GEOMETRIC_REPRESENTATION_CONTEXT ( 3 ) GLOBAL_UNCERTAINTY_ASSIGNED_CONTEXT ( ( #247 ) ) GLOBAL_UNIT_ASSIGNED_CONTEXT ( ( #375, #380, #192 ) ) REPRESENTATION_CONTEXT ( 'NONE', 'WORKASPACE' ) );
#42 = SECURITY_CLASSIFICATION ( '', '', #186 ) ;
#43 = COORDINATED_UNIVERSAL_TIME_OFFSET ( 10, 0, .AHEAD. ) ;
#44 = DOCUMENT_FILE ( '6461079856.step.STEP' , '', '', #222, '' ,$ ) ;
#45 = COORDINATED_UNIVERSAL_TIME_OFFSET ( 10, 0, .AHEAD. ) ;
#46 =( LENGTH_UNIT ( ) NAMED_UNIT ( * ) SI_UNIT ( .MILLI., .METRE. ) );
#47 = PRODUCT_DEFINITION_SHAPE ( 'NONE', 'NONE',  #388 ) ;
#48 = PROPERTY_DEFINITION_REPRESENTATION ( #363, #231 ) ;
#49 = CC_DESIGN_APPROVAL ( #384, ( #127 ) ) ;
#50 = DIRECTION ( 'NONE',  ( 1.000000000000000222, -1.092455418989176591E-28, 4.890937612370273194E-29 ) ) ;
#51 = SECURITY_CLASSIFICATION_LEVEL ( 'unclassified' ) ;
#52 = DIRECTION ( 'NONE',  ( 1.000000000000000000, 0.000000000000000000, 0.000000000000000000 ) ) ;
#53 = ROLE_ASSOCIATION ( #291, #385 ) ;
#54 = CC_DESIGN_PERSON_AND_ORGANIZATION_ASSIGNMENT ( #251, #278, ( #163 ) ) ;
#55 = PERSON_AND_ORGANIZATION ( #18446744073709551615, #18446744073709551615 ) ;
#56 = DATE_TIME_ROLE ( 'classification_date' ) ;
#57 = LOCAL_TIME ( 18, 49, 56.00000000000000000, #368 ) ;
#58 = PERSON_AND_ORGANIZATION ( #18446744073709551615, #18446744073709551615 ) ;
#59 = APPROVAL ( #182, 'Coincident' ) ;
#60 = DOCUMENT_TYPE ( 'geometry' ) ;
#61 = CALENDAR_DATE ( 2026, 22, 6 ) ;
#62 = APPROVAL_ROLE ( '' ) ;
#63 = APPROVAL_PERSON_ORGANIZATION ( #293, #149, #89 ) ;
#64 = LOCAL_TIME ( 18, 49, 56.00000000000000000, #362 ) ;
#65 = CALENDAR_DATE ( 2026, 22, 6 ) ;
#66 = SHAPE_REPRESENTATION ( '6461079856.step', ( #332 ), #252 ) ;
#67 = PERSON_AND_ORGANIZATION ( #18446744073709551615, #18446744073709551615 ) ;
#68 = CC_DESIGN_DATE_AND_TIME_ASSIGNMENT ( #111, #137, ( #307 ) ) ;
#69 = APPLICATION_PROTOCOL_DEFINITION ( 'international standard', 'config_control_design', 1994, #155 ) ;
#70 = SECURITY_CLASSIFICATION ( '', '', #104 ) ;
#71 = COORDINATED_UNIVERSAL_TIME_OFFSET ( 10, 0, .AHEAD. ) ;
#72 = CC_DESIGN_DATE_AND_TIME_ASSIGNMENT ( #36, #365, ( #327 ) ) ;
#73 = CALENDAR_DATE ( 2026, 22, 6 ) ;
#74 = CC_DESIGN_SECURITY_CLASSIFICATION ( #172, ( #390 ) ) ;
#75 = ITEM_DEFINED_TRANSFORMATION ( 'NONE', 'NONE', #145,  #332 ) ;
#76 = PRODUCT_RELATED_PRODUCT_CATEGORY ( 'detail', '', ( #163 ) ) ;
#77 = DIRECTION ( 'NONE',  ( 0.000000000000000000, 0.000000000000000000, 1.000000000000000000 ) ) ;
#78 = PROPERTY_DEFINITION ('external definition','', #44 ) ;
#79 = COORDINATED_UNIVERSAL_TIME_OFFSET ( 10, 0, .AHEAD. ) ;
#80 = MECHANICAL_CONTEXT ( 'NONE', #279, 'mechanical' ) ;
#81 = OBJECT_ROLE ('mandatory',$ ) ;
#82 = AXIS2_PLACEMENT_3D ( 'NONE', #349, #22, #52 ) ;
#83 = CONTEXT_DEPENDENT_SHAPE_REPRESENTATION ( #262, #47 ) ;
#84 = APPLIED_EXTERNAL_IDENTIFICATION_ASSIGNMENT ( '6534431024.step.STEP' , #140, #119,( #117) ) ;
#85 = CC_DESIGN_PERSON_AND_ORGANIZATION_ASSIGNMENT ( #58, #176, ( #374 ) ) ;
#86 = DATE_TIME_ROLE ( 'classification_date' ) ;
#87 = DATE_AND_TIME ( #180, #381 ) ;
#88 = DATE_AND_TIME ( #61, #185 ) ;
#89 = APPROVAL_ROLE ( '' ) ;
#90 = APPLICATION_PROTOCOL_DEFINITION ( 'international standard', 'config_control_design', 1994, #242 ) ;
#91 = DATE_AND_TIME ( #116, #130 ) ;
#92 = PERSON_AND_ORGANIZATION ( #18446744073709551615, #18446744073709551615 ) ;
#93 = AXIS2_PLACEMENT_3D ( 'NONE', #110, #240, #298 ) ;
#94 = PRODUCT_DEFINITION_FORMATION_WITH_SPECIFIED_SOURCE ( 'Symmetric', '', #163, .NOT_KNOWN. ) ;
#95 = APPROVAL ( #351, 'Coincident' ) ;
#96 = PERSON_AND_ORGANIZATION ( #18446744073709551615, #18446744073709551615 ) ;
#97 = UNCERTAINTY_MEASURE_WITH_UNIT (LENGTH_MEASURE( 1.000000000000000082E-05 ), #46, 'distance_accuracy_value', 'NONE');
#98 = COORDINATED_UNIVERSAL_TIME_OFFSET ( 10, 0, .AHEAD. ) ;
#99 = PERSON_AND_ORGANIZATION_ROLE ( 'creator' ) ;
#100 = CC_DESIGN_PERSON_AND_ORGANIZATION_ASSIGNMENT ( #5, #99, ( #127 ) ) ;
#101 =( REPRESENTATION_RELATIONSHIP ('NONE','NONE', #194, #66 ) REPRESENTATION_RELATIONSHIP_WITH_TRANSFORMATION ( #188 )SHAPE_REPRESENTATION_RELATIONSHIP( ) );
#102 = ORGANIZATION ( 'NAUO-ORG136', 'UNSPECIFIED', 'UNSPECIFIED' ) ;
#103 = DATE_AND_TIME ( #299, #57 ) ;
#104 = SECURITY_CLASSIFICATION_LEVEL ( 'unclassified' ) ;
#105 = CALENDAR_DATE ( 2026, 22, 6 ) ;
#106 = PRODUCT_DEFINITION_FORMATION_WITH_SPECIFIED_SOURCE ( 'Symmetric', '', #193, .NOT_KNOWN. ) ;
#107 = COORDINATED_UNIVERSAL_TIME_OFFSET ( 10, 0, .AHEAD. ) ;
#108 = SHAPE_DEFINITION_REPRESENTATION ( #109, #231 ) ;
#109 = PRODUCT_DEFINITION_SHAPE ( 'NONE', 'NONE',  #127 ) ;
#110 = CARTESIAN_POINT ( 'NONE',  ( 0.000000000000000000, 0.000000000000000000, 0.000000000000000000 ) ) ;
#111 = DATE_AND_TIME ( #139, #142 ) ;
#112 = SECURITY_CLASSIFICATION ( '', '', #179 ) ;
#113 = EXTERNAL_SOURCE (IDENTIFIER('') ) ;
#114 = COORDINATED_UNIVERSAL_TIME_OFFSET ( 10, 0, .AHEAD. ) ;
#115 = APPROVAL ( #289, 'UNKNOWN' ) ;
#116 = CALENDAR_DATE ( 2026, 22, 6 ) ;
#117 = DOCUMENT_FILE ( '6534431024.step.STEP' , '', '', #357, '' ,$ ) ;
#118 = CC_DESIGN_SECURITY_CLASSIFICATION ( #70, ( #389 ) ) ;
#119 = EXTERNAL_SOURCE (IDENTIFIER('') ) ;
#120 = APPLICATION_PROTOCOL_DEFINITION ( 'international standard', 'config_control_design', 1994, #343 ) ;
#121 = PERSON_AND_ORGANIZATION ( #18446744073709551615, #18446744073709551615 ) ;
#122 = CC_DESIGN_DATE_AND_TIME_ASSIGNMENT ( #237, #304, ( #16 ) ) ;
#123 = APPROVAL_DATE_TIME ( #250, #384 ) ;
#124 = APPROVAL_PERSON_ORGANIZATION ( #121, #95, #266 ) ;
#125 = APPROVAL_PERSON_ORGANIZATION ( #12, #277, #246 ) ;
#126 = APPROVAL_ROLE ( '' ) ;
#127 = PRODUCT_DEFINITION ( 'General', '', #94, #168 ) ;
#128 = PERSON_AND_ORGANIZATION ( #18446744073709551615, #18446744073709551615 ) ;
#129 = APPROVAL_ROLE ( '' ) ;
#130 = LOCAL_TIME ( 18, 49, 56.00000000000000000, #386 ) ;
#131 = APPROVAL_PERSON_ORGANIZATION ( #354, #115, #133 ) ;
#132 = DATE_AND_TIME ( #73, #64 ) ;
#133 = APPROVAL_ROLE ( '' ) ;
#134 =( NAMED_UNIT ( * ) PLANE_ANGLE_UNIT ( ) SI_UNIT ( $, .RADIAN. ) );
#135 = DATE_TIME_ROLE ( 'classification_date' ) ;
#136 = LOCAL_TIME ( 18, 49, 56.00000000000000000, #107 ) ;
#137 = DATE_TIME_ROLE ( 'classification_date' ) ;
#138 = PROPERTY_DEFINITION ('document property','', #44 ) ;
#139 = CALENDAR_DATE ( 2026, 22, 6 ) ;
#140 = IDENTIFICATION_ROLE ( 'external document id and location', $) ;
#141 = APPLICATION_PROTOCOL_DEFINITION ( 'international standard', 'config_control_design', 1994, #279 ) ;
#142 = LOCAL_TIME ( 18, 49, 56.00000000000000000, #79 ) ;
#143 = PERSON_AND_ORGANIZATION_ROLE ( 'creator' ) ;
#144 = APPLICATION_PROTOCOL_DEFINITION ( 'international standard', 'config_control_design', 1994, #319 ) ;
#145 = AXIS2_PLACEMENT_3D ( 'NONE', #372, #161, #261 ) ;
#146 = PERSON_AND_ORGANIZATION_ROLE ( 'design_owner' ) ;
#147 = LOCAL_TIME ( 18, 49, 56.00000000000000000, #71 ) ;
#148 = CALENDAR_DATE ( 2026, 22, 6 ) ;
#149 = APPROVAL ( #238, 'Coincident' ) ;
#150 = DATE_AND_TIME ( #364, #253 ) ;
#151 = APPROVAL_STATUS ( 'not_yet_approved' ) ;
#152 = CC_DESIGN_APPROVAL ( #95, ( #28 ) ) ;
#153 = PERSON_AND_ORGANIZATION_ROLE ( 'creator' ) ;
#154 = DATE_TIME_ROLE ( 'classification_date' ) ;
#155 = APPLICATION_CONTEXT ( 'configuration controlled 3d designs of mechanical parts and assemblies' ) ;
#156 = SHAPE_DEFINITION_REPRESENTATION ( #232, #66 ) ;
#157 = CC_DESIGN_APPROVAL ( #331, ( #106 ) ) ;
#158 = COORDINATED_UNIVERSAL_TIME_OFFSET ( 10, 0, .AHEAD. ) ;
#159 = CC_DESIGN_PERSON_AND_ORGANIZATION_ASSIGNMENT ( #67, #223, ( #106 ) ) ;
#160 = PROPERTY_DEFINITION_REPRESENTATION ( #197, #66 ) ;
#161 = DIRECTION ( 'NONE',  ( 4.890937612370273194E-29, -3.155443620884047222E-30, 0.9999999999999997780 ) ) ;
#162 = PERSON_AND_ORGANIZATION_ROLE ( 'classification_officer' ) ;
#163 = PRODUCT ( '6534431024.step', '6534431024.step', '', ( #280 ) ) ;
#164 = AXIS2_PLACEMENT_3D ( 'NONE', #310, #230, #50 ) ;
#165 = LOCAL_TIME ( 18, 49, 56.00000000000000000, #45 ) ;
#166 = PERSON_AND_ORGANIZATION_ROLE ( 'classification_officer' ) ;
#167 =( LENGTH_UNIT ( ) NAMED_UNIT ( * ) SI_UNIT ( .MILLI., .METRE. ) );
#168 = DESIGN_CONTEXT ( 'detailed design', #336, 'design' ) ;
#169 = PERSON_AND_ORGANIZATION ( #273, #353 ) ;
#170 = DATE_AND_TIME ( #294, #25 ) ;
#171 = CONTEXT_DEPENDENT_SHAPE_REPRESENTATION ( #101, #287 ) ;
#172 = SECURITY_CLASSIFICATION ( '', '', #51 ) ;
#173 = PERSON_AND_ORGANIZATION_ROLE ( 'creator' ) ;
#174 = PERSON_AND_ORGANIZATION_ROLE ( 'design_owner' ) ;
#175 = UNCERTAINTY_MEASURE_WITH_UNIT (LENGTH_MEASURE( 1.000000000000000082E-05 ), #167, 'distance_accuracy_value', 'NONE');
#176 = PERSON_AND_ORGANIZATION_ROLE ( 'creator' ) ;
#177 = EXTERNAL_SOURCE (IDENTIFIER('') ) ;
#178 = APPROVAL ( #244, 'Coincident' ) ;
#179 = SECURITY_CLASSIFICATION_LEVEL ( 'unclassified' ) ;
#180 = CALENDAR_DATE ( 2026, 22, 6 ) ;
#181 = DATE_AND_TIME ( #303, #286 ) ;
#182 = APPROVAL_STATUS ( 'not_yet_approved' ) ;
#183 = CC_DESIGN_PERSON_AND_ORGANIZATION_ASSIGNMENT ( #198, #166, ( #70 ) ) ;
#184 = PERSON_AND_ORGANIZATION ( #18446744073709551615, #18446744073709551615 ) ;
#185 = LOCAL_TIME ( 18, 49, 56.00000000000000000, #2 ) ;
#186 = SECURITY_CLASSIFICATION_LEVEL ( 'unclassified' ) ;
#187 = APPROVAL_DATE_TIME ( #40, #331 ) ;
#188 = ITEM_DEFINED_TRANSFORMATION ( 'NONE', 'NONE', #164,  #332 ) ;
#189 = APPROVAL_PERSON_ORGANIZATION ( #128, #384, #126 ) ;
#190 = CC_DESIGN_SECURITY_CLASSIFICATION ( #327, ( #94 ) ) ;
#191 = DATE_AND_TIME ( #318, #136 ) ;
#192 =( NAMED_UNIT ( * ) SI_UNIT ( $, .STERADIAN. ) SOLID_ANGLE_UNIT ( ) );
#193 = PRODUCT ( '6461079856.step', '6461079856.step', '', ( #290 ) ) ;
#194 = SHAPE_REPRESENTATION ( 'R21.step', ( #93, #360, #145, #164 ), #200 ) ;
#195 = CALENDAR_DATE ( 2026, 22, 6 ) ;
#196 = CC_DESIGN_PERSON_AND_ORGANIZATION_ASSIGNMENT ( #355, #212, ( #112 ) ) ;
#197 = PROPERTY_DEFINITION ('document property','', #21 ) ;
#198 = PERSON_AND_ORGANIZATION ( #382, #102 ) ;
#199 = PERSON_AND_ORGANIZATION ( #18446744073709551615, #18446744073709551615 ) ;
#200 =( GEOMETRIC_REPRESENTATION_CONTEXT ( 3 ) GLOBAL_UNCERTAINTY_ASSIGNED_CONTEXT ( ( #175 ) ) GLOBAL_UNIT_ASSIGNED_CONTEXT ( ( #167, #134, #227 ) ) REPRESENTATION_CONTEXT ( 'NONE', 'WORKASPACE' ) );
#201 = IDENTIFICATION_ROLE ( 'external document id and location', $) ;
#202 = CC_DESIGN_APPROVAL ( #317, ( #112 ) ) ;
#203 = CC_DESIGN_SECURITY_CLASSIFICATION ( #112, ( #374 ) ) ;
#204 = DIRECTION ( 'NONE',  ( 1.000000000000000000, 0.000000000000000000, 0.000000000000000000 ) ) ;
#205 = APPROVAL_DATE_TIME ( #87, #178 ) ;
#206 = PRODUCT_RELATED_PRODUCT_CATEGORY ( 'detail', '', ( #193 ) ) ;
#207 = CALENDAR_DATE ( 2026, 22, 6 ) ;
#208 = LOCAL_TIME ( 18, 49, 56.00000000000000000, #352 ) ;
#209 = SHAPE_DEFINITION_REPRESENTATION ( #341, #194 ) ;
#210 = APPROVAL_DATE_TIME ( #170, #317 ) ;
#211 = CC_DESIGN_PERSON_AND_ORGANIZATION_ASSIGNMENT ( #96, #219, ( #327 ) ) ;
#212 = PERSON_AND_ORGANIZATION_ROLE ( 'classification_officer' ) ;
#213 = CC_DESIGN_DATE_AND_TIME_ASSIGNMENT ( #225, #86, ( #172 ) ) ;
#214 = CC_DESIGN_APPROVAL ( #272, ( #327 ) ) ;
#215 = APPROVAL_STATUS ( 'not_yet_approved' ) ;
#216 = APPROVAL ( #255, 'UNKNOWN' ) ;
#217 = PERSON_AND_ORGANIZATION ( #18446744073709551615, #18446744073709551615 ) ;
#218 = APPROVAL_DATE_TIME ( #150, #59 ) ;
#219 = PERSON_AND_ORGANIZATION_ROLE ( 'classification_officer' ) ;
#220 = APPROVAL_PERSON_ORGANIZATION ( #243, #178, #24 ) ;
#221 = LOCAL_TIME ( 18, 49, 56.00000000000000000, #301 ) ;
#222 = DOCUMENT_TYPE ( 'geometry' ) ;
#223 = PERSON_AND_ORGANIZATION_ROLE ( 'design_supplier' ) ;
#224 = CC_DESIGN_DATE_AND_TIME_ASSIGNMENT ( #88, #56, ( #112 ) ) ;
#225 = DATE_AND_TIME ( #369, #30 ) ;
#226 = APPROVAL_DATE_TIME ( #191, #34 ) ;
#227 =( NAMED_UNIT ( * ) SI_UNIT ( $, .STERADIAN. ) SOLID_ANGLE_UNIT ( ) );
#228 = APPROVAL_PERSON_ORGANIZATION ( #270, #317, #62 ) ;
#229 = APPLIED_DOCUMENT_REFERENCE ( #117,'',( #127) ) ;
#230 = DIRECTION ( 'NONE',  ( 4.890937612370273194E-29, -3.155443620884047222E-30, 0.9999999999999997780 ) ) ;
#231 = SHAPE_REPRESENTATION ( '6534431024.step', ( #82 ), #41 ) ;
#232 = PRODUCT_DEFINITION_SHAPE ( 'NONE', 'NONE',  #16 ) ;
#233 = APPROVAL_ROLE ( '' ) ;
#234 = PROPERTY_DEFINITION_REPRESENTATION ( #258, #66 ) ;
#235 = CC_DESIGN_APPROVAL ( #59, ( #42 ) ) ;
#236 = CC_DESIGN_PERSON_AND_ORGANIZATION_ASSIGNMENT ( #35, #328, ( #94 ) ) ;
#237 = DATE_AND_TIME ( #383, #302 ) ;
#238 = APPROVAL_STATUS ( 'not_yet_approved' ) ;
#239 = CC_DESIGN_APPROVAL ( #277, ( #94 ) ) ;
#240 = DIRECTION ( 'NONE',  ( 0.000000000000000000, 0.000000000000000000, 1.000000000000000000 ) ) ;
#241 = CC_DESIGN_PERSON_AND_ORGANIZATION_ASSIGNMENT ( #199, #174, ( #257 ) ) ;
#242 = APPLICATION_CONTEXT ( 'configuration controlled 3d designs of mechanical parts and assemblies' ) ;
#243 = PERSON_AND_ORGANIZATION ( #18446744073709551615, #18446744073709551615 ) ;
#244 = APPROVAL_STATUS ( 'not_yet_approved' ) ;
#245 = APPLIED_EXTERNAL_IDENTIFICATION_ASSIGNMENT ( '6461079856.step.STEP' , #37, #113,( #21) ) ;
#246 = APPROVAL_ROLE ( '' ) ;
#247 = UNCERTAINTY_MEASURE_WITH_UNIT (LENGTH_MEASURE( 1.000000000000000082E-05 ), #375, 'distance_accuracy_value', 'NONE');
#248 = PERSON_AND_ORGANIZATION_ROLE ( 'creator' ) ;
#249 = PROPERTY_DEFINITION ('external definition','', #117 ) ;
#250 = DATE_AND_TIME ( #335, #221 ) ;
#251 = PERSON_AND_ORGANIZATION ( #18446744073709551615, #18446744073709551615 ) ;
#252 =( GEOMETRIC_REPRESENTATION_CONTEXT ( 3 ) GLOBAL_UNCERTAINTY_ASSIGNED_CONTEXT ( ( #97 ) ) GLOBAL_UNIT_ASSIGNED_CONTEXT ( ( #46, #308, #320 ) ) REPRESENTATION_CONTEXT ( 'NONE', 'WORKASPACE' ) );
#253 = LOCAL_TIME ( 18, 49, 56.00000000000000000, #305 ) ;
#254 = APPROVAL_DATE_TIME ( #376, #216 ) ;
#255 = APPROVAL_STATUS ( 'not_yet_approved' ) ;
#256 = CC_DESIGN_DATE_AND_TIME_ASSIGNMENT ( #259, #135, ( #70 ) ) ;
#257 = PRODUCT ( 'R21.step', 'R21.step', '', ( #80 ) ) ;
#258 = PROPERTY_DEFINITION ('external definition','', #21 ) ;
#259 = DATE_AND_TIME ( #195, #165 ) ;
#260 = PROPERTY_DEFINITION_REPRESENTATION ( #249, #231 ) ;
#261 = DIRECTION ( 'NONE',  ( 1.000000000000000222, -1.092455418989176591E-28, 4.890937612370273194E-29 ) ) ;
#262 =( REPRESENTATION_RELATIONSHIP ('NONE','NONE', #194, #231 ) REPRESENTATION_RELATIONSHIP_WITH_TRANSFORMATION ( #314 )SHAPE_REPRESENTATION_RELATIONSHIP( ) );
#263 = CC_DESIGN_PERSON_AND_ORGANIZATION_ASSIGNMENT ( #29, #146, ( #193 ) ) ;
#264 = APPROVAL_PERSON_ORGANIZATION ( #8, #59, #275 ) ;
#265 = COORDINATED_UNIVERSAL_TIME_OFFSET ( 10, 0, .AHEAD. ) ;
#266 = APPROVAL_ROLE ( '' ) ;
#267 = DATE_AND_TIME ( #148, #208 ) ;
#268 = CC_DESIGN_APPROVAL ( #34, ( #307 ) ) ;
#269 = PERSON_AND_ORGANIZATION ( #18446744073709551615, #18446744073709551615 ) ;
#270 = PERSON_AND_ORGANIZATION ( #18446744073709551615, #18446744073709551615 ) ;
#271 = PERSON_AND_ORGANIZATION_ROLE ( 'classification_officer' ) ;
#272 = APPROVAL ( #373, 'Coincident' ) ;
#273 = PERSON ( 'NAUO-PER135', 'UNSPECIFIED', 'UNSPECIFIED', ('UNSPECIFIED'), ('UNSPECIFIED'), ('UNSPECIFIED') ) ;
#274 = LOCAL_TIME ( 18, 49, 56.00000000000000000, #98 ) ;
#275 = APPROVAL_ROLE ( '' ) ;
#276 = COORDINATED_UNIVERSAL_TIME_OFFSET ( 10, 0, .AHEAD. ) ;
#277 = APPROVAL ( #215, 'Coincident' ) ;
#278 = PERSON_AND_ORGANIZATION_ROLE ( 'design_owner' ) ;
#279 = APPLICATION_CONTEXT ( 'configuration controlled 3d designs of mechanical parts and assemblies' ) ;
#280 = MECHANICAL_CONTEXT ( 'NONE', #155, 'mechanical' ) ;
#281 = CC_DESIGN_APPROVAL ( #149, ( #374 ) ) ;
#282 = LOCAL_TIME ( 18, 49, 56.00000000000000000, #43 ) ;
#283 = DATE_AND_TIME ( #306, #6 ) ;
#284 = SECURITY_CLASSIFICATION_LEVEL ( 'unclassified' ) ;
#285 = CARTESIAN_POINT ( 'NONE',  ( 6.400002532930001209, 6.799999511719001077, -2.058321952819998302 ) ) ;
#286 = LOCAL_TIME ( 18, 49, 56.00000000000000000, #276 ) ;
#287 = PRODUCT_DEFINITION_SHAPE ( 'NONE', 'NONE',  #390 ) ;
#288 = CONTEXT_DEPENDENT_SHAPE_REPRESENTATION ( #366, #313 ) ;
#289 = APPROVAL_STATUS ( 'not_yet_approved' ) ;
#290 = MECHANICAL_CONTEXT ( 'NONE', #319, 'mechanical' ) ;
#291 = OBJECT_ROLE ('mandatory',$ ) ;
#292 = CC_DESIGN_APPROVAL ( #115, ( #172 ) ) ;
#293 = PERSON_AND_ORGANIZATION ( #18446744073709551615, #18446744073709551615 ) ;
#294 = CALENDAR_DATE ( 2026, 22, 6 ) ;
#295 = APPROVAL_STATUS ( 'not_yet_approved' ) ;
#296 = DESIGN_CONTEXT ( 'detailed design', #242, 'design' ) ;
#297 = ORGANIZATION ( 'NAUO-ORG137', 'UNSPECIFIED', 'UNSPECIFIED' ) ;
#298 = DIRECTION ( 'NONE',  ( 1.000000000000000000, 0.000000000000000000, 0.000000000000000000 ) ) ;
#299 = CALENDAR_DATE ( 2026, 22, 6 ) ;
#300 = CC_DESIGN_DATE_AND_TIME_ASSIGNMENT ( #103, #33, ( #127 ) ) ;
#301 = COORDINATED_UNIVERSAL_TIME_OFFSET ( 10, 0, .AHEAD. ) ;
#302 = LOCAL_TIME ( 18, 49, 56.00000000000000000, #265 ) ;
#303 = CALENDAR_DATE ( 2026, 22, 6 ) ;
#304 = DATE_TIME_ROLE ( 'creation_date' ) ;
#305 = COORDINATED_UNIVERSAL_TIME_OFFSET ( 10, 0, .AHEAD. ) ;
#306 = CALENDAR_DATE ( 2026, 22, 6 ) ;
#307 = SECURITY_CLASSIFICATION ( '', '', #284 ) ;
#308 =( NAMED_UNIT ( * ) PLANE_ANGLE_UNIT ( ) SI_UNIT ( $, .RADIAN. ) );
#309 = ROLE_ASSOCIATION ( #81, #379 ) ;
#310 = CARTESIAN_POINT ( 'NONE',  ( 6.400002532930001209, 6.299999511719004630, -2.058321952820000078 ) ) ;
#311 = CC_DESIGN_PERSON_AND_ORGANIZATION_ASSIGNMENT ( #322, #173, ( #28 ) ) ;
#312 = APPROVAL_ROLE ( '' ) ;
#313 = PRODUCT_DEFINITION_SHAPE ( 'NONE', 'NONE',  #389 ) ;
#314 = ITEM_DEFINED_TRANSFORMATION ( 'NONE', 'NONE', #360,  #82 ) ;
#315 = DIRECTION ( 'NONE',  ( 4.890937612370273194E-29, -3.155443620884047222E-30, 0.9999999999999997780 ) ) ;
#316 = CC_DESIGN_APPROVAL ( #178, ( #16 ) ) ;
#317 = APPROVAL ( #295, 'Coincident' ) ;
#318 = CALENDAR_DATE ( 2026, 22, 6 ) ;
#319 = APPLICATION_CONTEXT ( 'configuration controlled 3d designs of mechanical parts and assemblies' ) ;
#320 =( NAMED_UNIT ( * ) SI_UNIT ( $, .STERADIAN. ) SOLID_ANGLE_UNIT ( ) );
#321 = DATE_TIME_ROLE ( 'creation_date' ) ;
#322 = PERSON_AND_ORGANIZATION ( #18446744073709551615, #18446744073709551615 ) ;
#323 = CC_DESIGN_DATE_AND_TIME_ASSIGNMENT ( #181, #154, ( #42 ) ) ;
#324 = PERSON_AND_ORGANIZATION_ROLE ( 'classification_officer' ) ;
#325 = DATE_AND_TIME ( #207, #10 ) ;
#326 = APPROVAL_DATE_TIME ( #91, #95 ) ;
#327 = SECURITY_CLASSIFICATION ( '', '', #334 ) ;
#328 = PERSON_AND_ORGANIZATION_ROLE ( 'design_supplier' ) ;
#329 = PERSON_AND_ORGANIZATION ( #18446744073709551615, #18446744073709551615 ) ;
#330 = CALENDAR_DATE ( 2026, 22, 6 ) ;
#331 = APPROVAL ( #151, 'Coincident' ) ;
#332 = AXIS2_PLACEMENT_3D ( 'NONE', #345, #77, #204 ) ;
#333 = CC_DESIGN_APPROVAL ( #216, ( #70 ) ) ;
#334 = SECURITY_CLASSIFICATION_LEVEL ( 'unclassified' ) ;
#335 = CALENDAR_DATE ( 2026, 22, 6 ) ;
#336 = APPLICATION_CONTEXT ( 'configuration controlled 3d designs of mechanical parts and assemblies' ) ;
#337 = CALENDAR_DATE ( 2026, 22, 6 ) ;
#338 = APPROVAL_ROLE ( '' ) ;
#339 = LOCAL_TIME ( 18, 49, 56.00000000000000000, #15 ) ;
#340 = ROLE_ASSOCIATION ( #20, #229 ) ;
#341 = PRODUCT_DEFINITION_SHAPE ( 'NONE', 'NONE',  #28 ) ;
#342 = APPROVAL_DATE_TIME ( #371, #272 ) ;
#343 = APPLICATION_CONTEXT ( 'configuration controlled 3d designs of mechanical parts and assemblies' ) ;
#344 = CC_DESIGN_PERSON_AND_ORGANIZATION_ASSIGNMENT ( #55, #143, ( #16 ) ) ;
#345 = CARTESIAN_POINT ( 'NONE',  ( 0.000000000000000000, 0.000000000000000000, 0.000000000000000000 ) ) ;
#346 = CC_DESIGN_SECURITY_CLASSIFICATION ( #307, ( #388 ) ) ;
#347 = CC_DESIGN_PERSON_AND_ORGANIZATION_ASSIGNMENT ( #354, #324, ( #172 ) ) ;
#348 = PROPERTY_DEFINITION_REPRESENTATION ( #138, #66 ) ;
#349 = CARTESIAN_POINT ( 'NONE',  ( 0.000000000000000000, 0.000000000000000000, 0.000000000000000000 ) ) ;
#350 = CC_DESIGN_PERSON_AND_ORGANIZATION_ASSIGNMENT ( #169, #162, ( #307 ) ) ;
#351 = APPROVAL_STATUS ( 'not_yet_approved' ) ;
#352 = COORDINATED_UNIVERSAL_TIME_OFFSET ( 10, 0, .AHEAD. ) ;
#353 = ORGANIZATION ( 'NAUO-ORG135', 'UNSPECIFIED', 'UNSPECIFIED' ) ;
#354 = PERSON_AND_ORGANIZATION ( #378, #297 ) ;
#355 = PERSON_AND_ORGANIZATION ( #18446744073709551615, #18446744073709551615 ) ;
#356 = DESIGN_CONTEXT ( 'detailed design', #343, 'design' ) ;
#357 = DOCUMENT_TYPE ( 'geometry' ) ;
#358 = CC_DESIGN_PERSON_AND_ORGANIZATION_ASSIGNMENT ( #217, #271, ( #42 ) ) ;
#359 = APPROVAL_DATE_TIME ( #132, #277 ) ;
#360 = AXIS2_PLACEMENT_3D ( 'NONE', #285, #315, #19 ) ;
#361 = APPROVAL_PERSON_ORGANIZATION ( #169, #34, #338 ) ;
#362 = COORDINATED_UNIVERSAL_TIME_OFFSET ( 10, 0, .AHEAD. ) ;
#363 = PROPERTY_DEFINITION ('document property','', #117 ) ;
#364 = CALENDAR_DATE ( 2026, 22, 6 ) ;
#365 = DATE_TIME_ROLE ( 'classification_date' ) ;
#366 =( REPRESENTATION_RELATIONSHIP ('NONE','NONE', #194, #66 ) REPRESENTATION_RELATIONSHIP_WITH_TRANSFORMATION ( #75 )SHAPE_REPRESENTATION_RELATIONSHIP( ) );
#367 = APPROVAL_PERSON_ORGANIZATION ( #198, #216, #233 ) ;
#368 = COORDINATED_UNIVERSAL_TIME_OFFSET ( 10, 0, .AHEAD. ) ;
#369 = CALENDAR_DATE ( 2026, 22, 6 ) ;
#370 = CC_DESIGN_DATE_AND_TIME_ASSIGNMENT ( #325, #321, ( #28 ) ) ;
#371 = DATE_AND_TIME ( #105, #282 ) ;
#372 = CARTESIAN_POINT ( 'NONE',  ( 6.400002532930001209, 7.299999511719005518, -2.058321952820000078 ) ) ;
#373 = APPROVAL_STATUS ( 'not_yet_approved' ) ;
#374 = PRODUCT_DEFINITION_FORMATION_WITH_SPECIFIED_SOURCE ( 'Symmetric', '', #257, .NOT_KNOWN. ) ;
#375 =( LENGTH_UNIT ( ) NAMED_UNIT ( * ) SI_UNIT ( .MILLI., .METRE. ) );
#376 = DATE_AND_TIME ( #337, #339 ) ;
#377 = CC_DESIGN_PERSON_AND_ORGANIZATION_ASSIGNMENT ( #329, #153, ( #106 ) ) ;
#378 = PERSON ( 'NAUO-PER137', 'UNSPECIFIED', 'UNSPECIFIED', ('UNSPECIFIED'), ('UNSPECIFIED'), ('UNSPECIFIED') ) ;
#379 = APPLIED_DOCUMENT_REFERENCE ( #21,'',( #16) ) ;
#380 =( NAMED_UNIT ( * ) PLANE_ANGLE_UNIT ( ) SI_UNIT ( $, .RADIAN. ) );
#381 = LOCAL_TIME ( 18, 49, 56.00000000000000000, #114 ) ;
#382 = PERSON ( 'NAUO-PER136', 'UNSPECIFIED', 'UNSPECIFIED', ('UNSPECIFIED'), ('UNSPECIFIED'), ('UNSPECIFIED') ) ;
#383 = CALENDAR_DATE ( 2026, 22, 6 ) ;
#384 = APPROVAL ( #7, 'Coincident' ) ;
#385 = APPLIED_DOCUMENT_REFERENCE ( #44,'',( #16) ) ;
#386 = COORDINATED_UNIVERSAL_TIME_OFFSET ( 10, 0, .AHEAD. ) ;
#387 = CC_DESIGN_SECURITY_CLASSIFICATION ( #42, ( #106 ) ) ;
#388 = NEXT_ASSEMBLY_USAGE_OCCURRENCE ( 'NAUO135', ' ', ' ', #28, #127, $ ) ;
#389 = NEXT_ASSEMBLY_USAGE_OCCURRENCE ( 'NAUO136', ' ', ' ', #28, #16, $ ) ;
#390 = NEXT_ASSEMBLY_USAGE_OCCURRENCE ( 'NAUO137', ' ', ' ', #28, #16, $ ) ;
ENDSEC;
END-ISO-10303-21;
