ISO-10303-21;
HEADER;
FILE_DESCRIPTION (( 'STEP AP203' ),
    '1' );
FILE_NAME ('R22.step.STEP',
    '2026-06-22T08:49:56',
    ( 'localuser' ),
    ( '' ),
    'SwSTEP 2.0',
    'SolidWorks 2025',
    '' );
FILE_SCHEMA (( 'CONFIG_CONTROL_DESIGN' ));
ENDSEC;

DATA;
#1 = PERSON_AND_ORGANIZATION ( #18446744073709551615, #18446744073709551615 ) ;
#2 = APPROVAL ( #258, 'Coincident' ) ;
#3 = CALENDAR_DATE ( 2026, 22, 6 ) ;
#4 = ITEM_DEFINED_TRANSFORMATION ( 'NONE', 'NONE', #121,  #113 ) ;
#5 =( NAMED_UNIT ( * ) SI_UNIT ( $, .STERADIAN. ) SOLID_ANGLE_UNIT ( ) );
#6 = LOCAL_TIME ( 18, 49, 56.00000000000000000, #67 ) ;
#7 = CALENDAR_DATE ( 2026, 22, 6 ) ;
#8 = APPROVAL_ROLE ( '' ) ;
#9 = CARTESIAN_POINT ( 'NONE',  ( 0.000000000000000000, 0.000000000000000000, 0.000000000000000000 ) ) ;
#10 = APPROVAL_PERSON_ORGANIZATION ( #185, #290, #8 ) ;
#11 = SECURITY_CLASSIFICATION_LEVEL ( 'unclassified' ) ;
#12 = CC_DESIGN_PERSON_AND_ORGANIZATION_ASSIGNMENT ( #242, #55, ( #353 ) ) ;
#13 = PERSON_AND_ORGANIZATION_ROLE ( 'design_owner' ) ;
#14 = DATE_TIME_ROLE ( 'classification_date' ) ;
#15 = CALENDAR_DATE ( 2026, 22, 6 ) ;
#16 = CC_DESIGN_PERSON_AND_ORGANIZATION_ASSIGNMENT ( #326, #118, ( #379 ) ) ;
#17 = APPLIED_DOCUMENT_REFERENCE ( #250,'',( #379) ) ;
#18 = LOCAL_TIME ( 18, 49, 56.00000000000000000, #386 ) ;
#19 = DATE_AND_TIME ( #354, #129 ) ;
#20 = OBJECT_ROLE ('mandatory',$ ) ;
#21 = APPROVAL_DATE_TIME ( #103, #194 ) ;
#22 = APPROVAL_PERSON_ORGANIZATION ( #37, #56, #182 ) ;
#23 = CALENDAR_DATE ( 2026, 22, 6 ) ;
#24 = PERSON_AND_ORGANIZATION_ROLE ( 'creator' ) ;
#25 = APPROVAL ( #82, 'Coincident' ) ;
#26 = CALENDAR_DATE ( 2026, 22, 6 ) ;
#27 = APPROVAL_PERSON_ORGANIZATION ( #381, #304, #166 ) ;
#28 = CC_DESIGN_APPROVAL ( #220, ( #183 ) ) ;
#29 = DATE_AND_TIME ( #207, #210 ) ;
#30 = SECURITY_CLASSIFICATION_LEVEL ( 'unclassified' ) ;
#31 = CC_DESIGN_DATE_AND_TIME_ASSIGNMENT ( #313, #14, ( #183 ) ) ;
#32 = PERSON_AND_ORGANIZATION_ROLE ( 'classification_officer' ) ;
#33 = DIRECTION ( 'NONE',  ( 1.000000000000000222, -1.092455418989176591E-28, 4.890937612370273194E-29 ) ) ;
#34 = AXIS2_PLACEMENT_3D ( 'NONE', #9, #287, #229 ) ;
#35 = CALENDAR_DATE ( 2026, 22, 6 ) ;
#36 =( REPRESENTATION_RELATIONSHIP ('NONE','NONE', #141, #99 ) REPRESENTATION_RELATIONSHIP_WITH_TRANSFORMATION ( #156 )SHAPE_REPRESENTATION_RELATIONSHIP( ) );
#37 = PERSON_AND_ORGANIZATION ( #383, #84 ) ;
#38 = CC_DESIGN_DATE_AND_TIME_ASSIGNMENT ( #238, #85, ( #239 ) ) ;
#39 =( GEOMETRIC_REPRESENTATION_CONTEXT ( 3 ) GLOBAL_UNCERTAINTY_ASSIGNED_CONTEXT ( ( #59 ) ) GLOBAL_UNIT_ASSIGNED_CONTEXT ( ( #131, #181, #373 ) ) REPRESENTATION_CONTEXT ( 'NONE', 'WORKASPACE' ) );
#40 = PRODUCT_DEFINITION_FORMATION_WITH_SPECIFIED_SOURCE ( 'Symmetric', '', #228, .NOT_KNOWN. ) ;
#41 = PERSON_AND_ORGANIZATION ( #18446744073709551615, #18446744073709551615 ) ;
#42 = PROPERTY_DEFINITION_REPRESENTATION ( #260, #99 ) ;
#43 = APPROVAL_ROLE ( '' ) ;
#44 = PRODUCT_DEFINITION_SHAPE ( 'NONE', 'NONE',  #390 ) ;
#45 = CALENDAR_DATE ( 2026, 22, 6 ) ;
#46 = PRODUCT_DEFINITION_SHAPE ( 'NONE', 'NONE',  #239 ) ;
#47 = PROPERTY_DEFINITION_REPRESENTATION ( #195, #99 ) ;
#48 = APPLIED_EXTERNAL_IDENTIFICATION_ASSIGNMENT ( '6534431024.step.STEP' , #96, #74,( #250) ) ;
#49 = APPROVAL_STATUS ( 'not_yet_approved' ) ;
#50 = COORDINATED_UNIVERSAL_TIME_OFFSET ( 10, 0, .AHEAD. ) ;
#51 = PRODUCT_RELATED_PRODUCT_CATEGORY ( 'detail', '', ( #104 ) ) ;
#52 = COORDINATED_UNIVERSAL_TIME_OFFSET ( 10, 0, .AHEAD. ) ;
#53 = APPROVAL_STATUS ( 'not_yet_approved' ) ;
#54 = CC_DESIGN_SECURITY_CLASSIFICATION ( #353, ( #40 ) ) ;
#55 = PERSON_AND_ORGANIZATION_ROLE ( 'classification_officer' ) ;
#56 = APPROVAL ( #93, 'UNKNOWN' ) ;
#57 = IDENTIFICATION_ROLE ( 'external document id and location', $) ;
#58 = APPROVAL_STATUS ( 'not_yet_approved' ) ;
#59 = UNCERTAINTY_MEASURE_WITH_UNIT (LENGTH_MEASURE( 1.000000000000000082E-05 ), #131, 'distance_accuracy_value', 'NONE');
#60 = PERSON_AND_ORGANIZATION_ROLE ( 'design_owner' ) ;
#61 = LOCAL_TIME ( 18, 49, 56.00000000000000000, #285 ) ;
#62 = APPROVAL_STATUS ( 'not_yet_approved' ) ;
#63 = COORDINATED_UNIVERSAL_TIME_OFFSET ( 10, 0, .AHEAD. ) ;
#64 = CC_DESIGN_PERSON_AND_ORGANIZATION_ASSIGNMENT ( #346, #261, ( #108 ) ) ;
#65 = COORDINATED_UNIVERSAL_TIME_OFFSET ( 10, 0, .AHEAD. ) ;
#66 = LOCAL_TIME ( 18, 49, 56.00000000000000000, #331 ) ;
#67 = COORDINATED_UNIVERSAL_TIME_OFFSET ( 10, 0, .AHEAD. ) ;
#68 = DIRECTION ( 'NONE',  ( 4.890937612370273194E-29, -3.155443620884047222E-30, 0.9999999999999997780 ) ) ;
#69 = PRODUCT_DEFINITION ( 'General', '', #75, #296 ) ;
#70 = PROPERTY_DEFINITION_REPRESENTATION ( #102, #89 ) ;
#71 = DIRECTION ( 'NONE',  ( 1.000000000000000000, 0.000000000000000000, 0.000000000000000000 ) ) ;
#72 = CC_DESIGN_APPROVAL ( #194, ( #379 ) ) ;
#73 = DATE_TIME_ROLE ( 'creation_date' ) ;
#74 = EXTERNAL_SOURCE (IDENTIFIER('') ) ;
#75 = PRODUCT_DEFINITION_FORMATION_WITH_SPECIFIED_SOURCE ( 'Symmetric', '', #257, .NOT_KNOWN. ) ;
#76 = ROLE_ASSOCIATION ( #293, #17 ) ;
#77 = SECURITY_CLASSIFICATION ( '', '', #211 ) ;
#78 = PERSON_AND_ORGANIZATION_ROLE ( 'creator' ) ;
#79 = CC_DESIGN_DATE_AND_TIME_ASSIGNMENT ( #19, #168, ( #108 ) ) ;
#80 = PERSON_AND_ORGANIZATION_ROLE ( 'creator' ) ;
#81 = DATE_AND_TIME ( #178, #382 ) ;
#82 = APPROVAL_STATUS ( 'not_yet_approved' ) ;
#83 = CC_DESIGN_PERSON_AND_ORGANIZATION_ASSIGNMENT ( #196, #317, ( #69 ) ) ;
#84 = ORGANIZATION ( 'NAUO-ORG125', 'UNSPECIFIED', 'UNSPECIFIED' ) ;
#85 = DATE_TIME_ROLE ( 'creation_date' ) ;
#86 = CALENDAR_DATE ( 2026, 22, 6 ) ;
#87 = DATE_AND_TIME ( #249, #177 ) ;
#88 = LOCAL_TIME ( 18, 49, 56.00000000000000000, #63 ) ;
#89 = SHAPE_REPRESENTATION ( '6461079856.step', ( #113 ), #39 ) ;
#90 = CC_DESIGN_DATE_AND_TIME_ASSIGNMENT ( #233, #73, ( #69 ) ) ;
#91 = DESIGN_CONTEXT ( 'detailed design', #360, 'design' ) ;
#92 = DIRECTION ( 'NONE',  ( 1.000000000000000222, -1.092455418989176591E-28, 4.890937612370273194E-29 ) ) ;
#93 = APPROVAL_STATUS ( 'not_yet_approved' ) ;
#94 = DATE_AND_TIME ( #272, #88 ) ;
#95 = CC_DESIGN_DATE_AND_TIME_ASSIGNMENT ( #359, #328, ( #379 ) ) ;
#96 = IDENTIFICATION_ROLE ( 'external document id and location', $) ;
#97 = APPLIED_DOCUMENT_REFERENCE ( #127,'',( #239) ) ;
#98 = MECHANICAL_CONTEXT ( 'NONE', #137, 'mechanical' ) ;
#99 = SHAPE_REPRESENTATION ( '6534431024.step', ( #144 ), #164 ) ;
#100 = APPROVAL_ROLE ( '' ) ;
#101 = LOCAL_TIME ( 18, 49, 56.00000000000000000, #298 ) ;
#102 = PROPERTY_DEFINITION ('document property','', #127 ) ;
#103 = DATE_AND_TIME ( #191, #325 ) ;
#104 = PRODUCT ( '6461079856.step', '6461079856.step', '', ( #292 ) ) ;
#105 =( NAMED_UNIT ( * ) SI_UNIT ( $, .STERADIAN. ) SOLID_ANGLE_UNIT ( ) );
#106 = APPROVAL_DATE_TIME ( #193, #304 ) ;
#107 = CC_DESIGN_PERSON_AND_ORGANIZATION_ASSIGNMENT ( #297, #24, ( #239 ) ) ;
#108 = SECURITY_CLASSIFICATION ( '', '', #162 ) ;
#109 = APPROVAL_PERSON_ORGANIZATION ( #291, #2, #43 ) ;
#110 = DATE_AND_TIME ( #380, #225 ) ;
#111 = PERSON_AND_ORGANIZATION_ROLE ( 'design_supplier' ) ;
#112 = APPLICATION_PROTOCOL_DEFINITION ( 'international standard', 'config_control_design', 1994, #263 ) ;
#113 = AXIS2_PLACEMENT_3D ( 'NONE', #374, #151, #71 ) ;
#114 = PERSON_AND_ORGANIZATION ( #18446744073709551615, #18446744073709551615 ) ;
#115 = ORGANIZATION ( 'NAUO-ORG127', 'UNSPECIFIED', 'UNSPECIFIED' ) ;
#116 = DOCUMENT_TYPE ( 'geometry' ) ;
#117 = DATE_AND_TIME ( #26, #101 ) ;
#118 = PERSON_AND_ORGANIZATION_ROLE ( 'creator' ) ;
#119 = APPROVAL ( #62, 'Coincident' ) ;
#120 = CALENDAR_DATE ( 2026, 22, 6 ) ;
#121 = AXIS2_PLACEMENT_3D ( 'NONE', #340, #149, #33 ) ;
#122 = CC_DESIGN_APPROVAL ( #290, ( #311 ) ) ;
#123 = DATE_TIME_ROLE ( 'classification_date' ) ;
#124 = CC_DESIGN_PERSON_AND_ORGANIZATION_ASSIGNMENT ( #114, #295, ( #40 ) ) ;
#125 = CALENDAR_DATE ( 2026, 22, 6 ) ;
#126 = APPLICATION_PROTOCOL_DEFINITION ( 'international standard', 'config_control_design', 1994, #137 ) ;
#127 = DOCUMENT_FILE ( '6461079856.step.STEP' , '', '', #339, '' ,$ ) ;
#128 = APPROVAL_PERSON_ORGANIZATION ( #316, #203, #133 ) ;
#129 = LOCAL_TIME ( 18, 49, 56.00000000000000000, #50 ) ;
#130 = APPROVAL_STATUS ( 'not_yet_approved' ) ;
#131 =( LENGTH_UNIT ( ) NAMED_UNIT ( * ) SI_UNIT ( .MILLI., .METRE. ) );
#132 = APPLICATION_PROTOCOL_DEFINITION ( 'international standard', 'config_control_design', 1994, #360 ) ;
#133 = APPROVAL_ROLE ( '' ) ;
#134 = APPROVAL_PERSON_ORGANIZATION ( #1, #309, #355 ) ;
#135 = DOCUMENT_FILE ( '6461079856.step.STEP' , '', '', #198, '' ,$ ) ;
#136 = COORDINATED_UNIVERSAL_TIME_OFFSET ( 10, 0, .AHEAD. ) ;
#137 = APPLICATION_CONTEXT ( 'configuration controlled 3d designs of mechanical parts and assemblies' ) ;
#138 = PERSON_AND_ORGANIZATION_ROLE ( 'design_supplier' ) ;
#139 = CC_DESIGN_SECURITY_CLASSIFICATION ( #311, ( #389 ) ) ;
#140 = PERSON_AND_ORGANIZATION ( #18446744073709551615, #18446744073709551615 ) ;
#141 = SHAPE_REPRESENTATION ( 'R22.step', ( #34, #170, #121, #188 ), #342 ) ;
#142 = COORDINATED_UNIVERSAL_TIME_OFFSET ( 10, 0, .AHEAD. ) ;
#143 = PERSON_AND_ORGANIZATION_ROLE ( 'design_supplier' ) ;
#144 = AXIS2_PLACEMENT_3D ( 'NONE', #368, #333, #214 ) ;
#145 = APPLICATION_PROTOCOL_DEFINITION ( 'international standard', 'config_control_design', 1994, #155 ) ;
#146 = COORDINATED_UNIVERSAL_TIME_OFFSET ( 10, 0, .AHEAD. ) ;
#147 = CC_DESIGN_PERSON_AND_ORGANIZATION_ASSIGNMENT ( #217, #314, ( #257 ) ) ;
#148 = PROPERTY_DEFINITION_REPRESENTATION ( #366, #89 ) ;
#149 = DIRECTION ( 'NONE',  ( 4.890937612370273194E-29, -3.155443620884047222E-30, 0.9999999999999997780 ) ) ;
#150 = CONTEXT_DEPENDENT_SHAPE_REPRESENTATION ( #240, #345 ) ;
#151 = DIRECTION ( 'NONE',  ( 0.000000000000000000, 0.000000000000000000, 1.000000000000000000 ) ) ;
#152 = ORGANIZATION ( 'NAUO-ORG126', 'UNSPECIFIED', 'UNSPECIFIED' ) ;
#153 = APPLIED_DOCUMENT_REFERENCE ( #135,'',( #239) ) ;
#154 = DATE_AND_TIME ( #120, #343 ) ;
#155 = APPLICATION_CONTEXT ( 'configuration controlled 3d designs of mechanical parts and assemblies' ) ;
#156 = ITEM_DEFINED_TRANSFORMATION ( 'NONE', 'NONE', #188,  #144 ) ;
#157 = APPROVAL_PERSON_ORGANIZATION ( #209, #341, #266 ) ;
#158 = PERSON_AND_ORGANIZATION ( #274, #115 ) ;
#159 = SHAPE_DEFINITION_REPRESENTATION ( #347, #141 ) ;
#160 = PRODUCT_RELATED_PRODUCT_CATEGORY ( 'detail', '', ( #257 ) ) ;
#161 = APPROVAL_DATE_TIME ( #321, #203 ) ;
#162 = SECURITY_CLASSIFICATION_LEVEL ( 'unclassified' ) ;
#163 = PRODUCT_DEFINITION_SHAPE ( 'NONE', 'NONE',  #379 ) ;
#164 =( GEOMETRIC_REPRESENTATION_CONTEXT ( 3 ) GLOBAL_UNCERTAINTY_ASSIGNED_CONTEXT ( ( #167 ) ) GLOBAL_UNIT_ASSIGNED_CONTEXT ( ( #254, #280, #5 ) ) REPRESENTATION_CONTEXT ( 'NONE', 'WORKASPACE' ) );
#165 = APPLICATION_CONTEXT ( 'configuration controlled 3d designs of mechanical parts and assemblies' ) ;
#166 = APPROVAL_ROLE ( '' ) ;
#167 = UNCERTAINTY_MEASURE_WITH_UNIT (LENGTH_MEASURE( 1.000000000000000082E-05 ), #254, 'distance_accuracy_value', 'NONE');
#168 = DATE_TIME_ROLE ( 'classification_date' ) ;
#169 = APPROVAL_DATE_TIME ( #81, #309 ) ;
#170 = AXIS2_PLACEMENT_3D ( 'NONE', #337, #68, #221 ) ;
#171 = LOCAL_TIME ( 18, 49, 56.00000000000000000, #146 ) ;
#172 = APPROVAL_ROLE ( '' ) ;
#173 = COORDINATED_UNIVERSAL_TIME_OFFSET ( 10, 0, .AHEAD. ) ;
#174 = SECURITY_CLASSIFICATION_LEVEL ( 'unclassified' ) ;
#175 = EXTERNAL_SOURCE (IDENTIFIER('') ) ;
#176 = CC_DESIGN_PERSON_AND_ORGANIZATION_ASSIGNMENT ( #204, #219, ( #265 ) ) ;
#177 = LOCAL_TIME ( 18, 49, 56.00000000000000000, #65 ) ;
#178 = CALENDAR_DATE ( 2026, 22, 6 ) ;
#179 = SHAPE_DEFINITION_REPRESENTATION ( #46, #89 ) ;
#180 = DATE_TIME_ROLE ( 'classification_date' ) ;
#181 =( NAMED_UNIT ( * ) PLANE_ANGLE_UNIT ( ) SI_UNIT ( $, .RADIAN. ) );
#182 = APPROVAL_ROLE ( '' ) ;
#183 = SECURITY_CLASSIFICATION ( '', '', #11 ) ;
#184 = DATE_AND_TIME ( #125, #6 ) ;
#185 = PERSON_AND_ORGANIZATION ( #222, #152 ) ;
#186 = CC_DESIGN_PERSON_AND_ORGANIZATION_ASSIGNMENT ( #384, #60, ( #104 ) ) ;
#187 = APPROVAL_DATE_TIME ( #110, #2 ) ;
#188 = AXIS2_PLACEMENT_3D ( 'NONE', #246, #365, #92 ) ;
#189 = CC_DESIGN_APPROVAL ( #2, ( #108 ) ) ;
#190 = APPROVAL_ROLE ( '' ) ;
#191 = CALENDAR_DATE ( 2026, 22, 6 ) ;
#192 = PRODUCT_DEFINITION_SHAPE ( 'NONE', 'NONE',  #388 ) ;
#193 = DATE_AND_TIME ( #227, #251 ) ;
#194 = APPROVAL ( #376, 'Coincident' ) ;
#195 = PROPERTY_DEFINITION ('document property','', #250 ) ;
#196 = PERSON_AND_ORGANIZATION ( #18446744073709551615, #18446744073709551615 ) ;
#197 = APPROVAL_PERSON_ORGANIZATION ( #255, #194, #100 ) ;
#198 = DOCUMENT_TYPE ( 'geometry' ) ;
#199 = CC_DESIGN_SECURITY_CLASSIFICATION ( #265, ( #357 ) ) ;
#200 = LOCAL_TIME ( 18, 49, 56.00000000000000000, #362 ) ;
#201 = PERSON_AND_ORGANIZATION ( #18446744073709551615, #18446744073709551615 ) ;
#202 = PERSON_AND_ORGANIZATION ( #18446744073709551615, #18446744073709551615 ) ;
#203 = APPROVAL ( #352, 'Coincident' ) ;
#204 = PERSON_AND_ORGANIZATION ( #18446744073709551615, #18446744073709551615 ) ;
#205 = LOCAL_TIME ( 18, 49, 56.00000000000000000, #231 ) ;
#206 = CC_DESIGN_SECURITY_CLASSIFICATION ( #77, ( #388 ) ) ;
#207 = CALENDAR_DATE ( 2026, 22, 6 ) ;
#208 = PERSON_AND_ORGANIZATION ( #18446744073709551615, #18446744073709551615 ) ;
#209 = PERSON_AND_ORGANIZATION ( #18446744073709551615, #18446744073709551615 ) ;
#210 = LOCAL_TIME ( 18, 49, 56.00000000000000000, #173 ) ;
#211 = SECURITY_CLASSIFICATION_LEVEL ( 'unclassified' ) ;
#212 = DATE_AND_TIME ( #7, #200 ) ;
#213 = APPROVAL_DATE_TIME ( #87, #56 ) ;
#214 = DIRECTION ( 'NONE',  ( 1.000000000000000000, 0.000000000000000000, 0.000000000000000000 ) ) ;
#215 = ROLE_ASSOCIATION ( #20, #153 ) ;
#216 = APPROVAL_DATE_TIME ( #29, #25 ) ;
#217 = PERSON_AND_ORGANIZATION ( #18446744073709551615, #18446744073709551615 ) ;
#218 = APPROVAL_PERSON_ORGANIZATION ( #158, #220, #190 ) ;
#219 = PERSON_AND_ORGANIZATION_ROLE ( 'classification_officer' ) ;
#220 = APPROVAL ( #130, 'UNKNOWN' ) ;
#221 = DIRECTION ( 'NONE',  ( 1.000000000000000222, -1.092455418989176591E-28, 4.890937612370273194E-29 ) ) ;
#222 = PERSON ( 'NAUO-PER126', 'UNSPECIFIED', 'UNSPECIFIED', ('UNSPECIFIED'), ('UNSPECIFIED'), ('UNSPECIFIED') ) ;
#223 = APPLICATION_PROTOCOL_DEFINITION ( 'international standard', 'config_control_design', 1994, #165 ) ;
#224 = CC_DESIGN_APPROVAL ( #304, ( #69 ) ) ;
#225 = LOCAL_TIME ( 18, 49, 56.00000000000000000, #312 ) ;
#226 = PROPERTY_DEFINITION ('external definition','', #127 ) ;
#227 = CALENDAR_DATE ( 2026, 22, 6 ) ;
#228 = PRODUCT ( '6534431024.step', '6534431024.step', '', ( #378 ) ) ;
#229 = DIRECTION ( 'NONE',  ( 1.000000000000000000, 0.000000000000000000, 0.000000000000000000 ) ) ;
#230 = PERSON_AND_ORGANIZATION_ROLE ( 'classification_officer' ) ;
#231 = COORDINATED_UNIVERSAL_TIME_OFFSET ( 10, 0, .AHEAD. ) ;
#232 = APPLIED_EXTERNAL_IDENTIFICATION_ASSIGNMENT ( '6461079856.step.STEP' , #57, #320,( #127) ) ;
#233 = DATE_AND_TIME ( #45, #205 ) ;
#234 = CC_DESIGN_PERSON_AND_ORGANIZATION_ASSIGNMENT ( #185, #244, ( #311 ) ) ;
#235 = SECURITY_CLASSIFICATION_LEVEL ( 'unclassified' ) ;
#236 = PERSON_AND_ORGANIZATION ( #18446744073709551615, #18446744073709551615 ) ;
#237 = CC_DESIGN_SECURITY_CLASSIFICATION ( #183, ( #390 ) ) ;
#238 = DATE_AND_TIME ( #3, #171 ) ;
#239 = PRODUCT_DEFINITION ( 'General', '', #357, #299 ) ;
#240 =( REPRESENTATION_RELATIONSHIP ('NONE','NONE', #141, #89 ) REPRESENTATION_RELATIONSHIP_WITH_TRANSFORMATION ( #4 )SHAPE_REPRESENTATION_RELATIONSHIP( ) );
#241 = APPROVAL_DATE_TIME ( #117, #315 ) ;
#242 = PERSON_AND_ORGANIZATION ( #18446744073709551615, #18446744073709551615 ) ;
#243 = APPLIED_EXTERNAL_IDENTIFICATION_ASSIGNMENT ( '6461079856.step.STEP' , #300, #175,( #135) ) ;
#244 = PERSON_AND_ORGANIZATION_ROLE ( 'classification_officer' ) ;
#245 = UNCERTAINTY_MEASURE_WITH_UNIT (LENGTH_MEASURE( 1.000000000000000082E-05 ), #306, 'distance_accuracy_value', 'NONE');
#246 = CARTESIAN_POINT ( 'NONE',  ( 5.449997955293000906, 5.999996459961003836, -2.058321952820000078 ) ) ;
#247 = DATE_AND_TIME ( #35, #275 ) ;
#248 = PROPERTY_DEFINITION ('external definition','', #135 ) ;
#249 = CALENDAR_DATE ( 2026, 22, 6 ) ;
#250 = DOCUMENT_FILE ( '6534431024.step.STEP' , '', '', #116, '' ,$ ) ;
#251 = LOCAL_TIME ( 18, 49, 56.00000000000000000, #262 ) ;
#252 = LOCAL_TIME ( 18, 49, 56.00000000000000000, #327 ) ;
#253 = CC_DESIGN_PERSON_AND_ORGANIZATION_ASSIGNMENT ( #201, #138, ( #75 ) ) ;
#254 =( LENGTH_UNIT ( ) NAMED_UNIT ( * ) SI_UNIT ( .MILLI., .METRE. ) );
#255 = PERSON_AND_ORGANIZATION ( #18446744073709551615, #18446744073709551615 ) ;
#256 = CALENDAR_DATE ( 2026, 22, 6 ) ;
#257 = PRODUCT ( 'R22.step', 'R22.step', '', ( #98 ) ) ;
#258 = APPROVAL_STATUS ( 'not_yet_approved' ) ;
#259 = CC_DESIGN_APPROVAL ( #309, ( #353 ) ) ;
#260 = PROPERTY_DEFINITION ('external definition','', #250 ) ;
#261 = PERSON_AND_ORGANIZATION_ROLE ( 'classification_officer' ) ;
#262 = COORDINATED_UNIVERSAL_TIME_OFFSET ( 10, 0, .AHEAD. ) ;
#263 = APPLICATION_CONTEXT ( 'configuration controlled 3d designs of mechanical parts and assemblies' ) ;
#264 = CC_DESIGN_PERSON_AND_ORGANIZATION_ASSIGNMENT ( #41, #78, ( #75 ) ) ;
#265 = SECURITY_CLASSIFICATION ( '', '', #235 ) ;
#266 = APPROVAL_ROLE ( '' ) ;
#267 = CALENDAR_DATE ( 2026, 22, 6 ) ;
#268 = CC_DESIGN_DATE_AND_TIME_ASSIGNMENT ( #269, #323, ( #353 ) ) ;
#269 = DATE_AND_TIME ( #23, #18 ) ;
#270 = DATE_AND_TIME ( #86, #252 ) ;
#271 = APPROVAL_STATUS ( 'not_yet_approved' ) ;
#272 = CALENDAR_DATE ( 2026, 22, 6 ) ;
#273 = CC_DESIGN_PERSON_AND_ORGANIZATION_ASSIGNMENT ( #140, #80, ( #357 ) ) ;
#274 = PERSON ( 'NAUO-PER127', 'UNSPECIFIED', 'UNSPECIFIED', ('UNSPECIFIED'), ('UNSPECIFIED'), ('UNSPECIFIED') ) ;
#275 = LOCAL_TIME ( 18, 49, 56.00000000000000000, #372 ) ;
#276 = APPROVAL_DATE_TIME ( #212, #119 ) ;
#277 = PROPERTY_DEFINITION_REPRESENTATION ( #248, #89 ) ;
#278 = CC_DESIGN_DATE_AND_TIME_ASSIGNMENT ( #247, #367, ( #77 ) ) ;
#279 = APPROVAL_DATE_TIME ( #154, #290 ) ;
#280 =( NAMED_UNIT ( * ) PLANE_ANGLE_UNIT ( ) SI_UNIT ( $, .RADIAN. ) );
#281 =( REPRESENTATION_RELATIONSHIP ('NONE','NONE', #141, #89 ) REPRESENTATION_RELATIONSHIP_WITH_TRANSFORMATION ( #332 )SHAPE_REPRESENTATION_RELATIONSHIP( ) );
#282 = CC_DESIGN_APPROVAL ( #203, ( #75 ) ) ;
#283 = CC_DESIGN_SECURITY_CLASSIFICATION ( #108, ( #75 ) ) ;
#284 = PERSON_AND_ORGANIZATION ( #18446744073709551615, #18446744073709551615 ) ;
#285 = COORDINATED_UNIVERSAL_TIME_OFFSET ( 10, 0, .AHEAD. ) ;
#286 = CONTEXT_DEPENDENT_SHAPE_REPRESENTATION ( #36, #44 ) ;
#287 = DIRECTION ( 'NONE',  ( 0.000000000000000000, 0.000000000000000000, 1.000000000000000000 ) ) ;
#288 = CC_DESIGN_APPROVAL ( #315, ( #357 ) ) ;
#289 =( NAMED_UNIT ( * ) PLANE_ANGLE_UNIT ( ) SI_UNIT ( $, .RADIAN. ) );
#290 = APPROVAL ( #336, 'UNKNOWN' ) ;
#291 = PERSON_AND_ORGANIZATION ( #18446744073709551615, #18446744073709551615 ) ;
#292 = MECHANICAL_CONTEXT ( 'NONE', #263, 'mechanical' ) ;
#293 = OBJECT_ROLE ('mandatory',$ ) ;
#294 = CC_DESIGN_APPROVAL ( #56, ( #77 ) ) ;
#295 = PERSON_AND_ORGANIZATION_ROLE ( 'creator' ) ;
#296 = DESIGN_CONTEXT ( 'detailed design', #370, 'design' ) ;
#297 = PERSON_AND_ORGANIZATION ( #18446744073709551615, #18446744073709551615 ) ;
#298 = COORDINATED_UNIVERSAL_TIME_OFFSET ( 10, 0, .AHEAD. ) ;
#299 = DESIGN_CONTEXT ( 'detailed design', #155, 'design' ) ;
#300 = IDENTIFICATION_ROLE ( 'external document id and location', $) ;
#301 = CC_DESIGN_APPROVAL ( #25, ( #239 ) ) ;
#302 = PERSON_AND_ORGANIZATION ( #18446744073709551615, #18446744073709551615 ) ;
#303 = APPROVAL_ROLE ( '' ) ;
#304 = APPROVAL ( #49, 'Coincident' ) ;
#305 = CALENDAR_DATE ( 2026, 22, 6 ) ;
#306 =( LENGTH_UNIT ( ) NAMED_UNIT ( * ) SI_UNIT ( .MILLI., .METRE. ) );
#307 = LOCAL_TIME ( 18, 49, 56.00000000000000000, #142 ) ;
#308 = PERSON_AND_ORGANIZATION ( #18446744073709551615, #18446744073709551615 ) ;
#309 = APPROVAL ( #271, 'Coincident' ) ;
#310 = COORDINATED_UNIVERSAL_TIME_OFFSET ( 10, 0, .AHEAD. ) ;
#311 = SECURITY_CLASSIFICATION ( '', '', #30 ) ;
#312 = COORDINATED_UNIVERSAL_TIME_OFFSET ( 10, 0, .AHEAD. ) ;
#313 = DATE_AND_TIME ( #305, #66 ) ;
#314 = PERSON_AND_ORGANIZATION_ROLE ( 'design_owner' ) ;
#315 = APPROVAL ( #58, 'Coincident' ) ;
#316 = PERSON_AND_ORGANIZATION ( #18446744073709551615, #18446744073709551615 ) ;
#317 = PERSON_AND_ORGANIZATION_ROLE ( 'creator' ) ;
#318 = CC_DESIGN_PERSON_AND_ORGANIZATION_ASSIGNMENT ( #202, #111, ( #357 ) ) ;
#319 = APPROVAL_DATE_TIME ( #348, #220 ) ;
#320 = EXTERNAL_SOURCE (IDENTIFIER('') ) ;
#321 = DATE_AND_TIME ( #15, #61 ) ;
#322 = APPROVAL_ROLE ( '' ) ;
#323 = DATE_TIME_ROLE ( 'classification_date' ) ;
#324 = CC_DESIGN_PERSON_AND_ORGANIZATION_ASSIGNMENT ( #158, #230, ( #183 ) ) ;
#325 = LOCAL_TIME ( 18, 49, 56.00000000000000000, #344 ) ;
#326 = PERSON_AND_ORGANIZATION ( #18446744073709551615, #18446744073709551615 ) ;
#327 = COORDINATED_UNIVERSAL_TIME_OFFSET ( 10, 0, .AHEAD. ) ;
#328 = DATE_TIME_ROLE ( 'creation_date' ) ;
#329 = CC_DESIGN_APPROVAL ( #341, ( #40 ) ) ;
#330 = PRODUCT_RELATED_PRODUCT_CATEGORY ( 'detail', '', ( #228 ) ) ;
#331 = COORDINATED_UNIVERSAL_TIME_OFFSET ( 10, 0, .AHEAD. ) ;
#332 = ITEM_DEFINED_TRANSFORMATION ( 'NONE', 'NONE', #170,  #113 ) ;
#333 = DIRECTION ( 'NONE',  ( 0.000000000000000000, 0.000000000000000000, 1.000000000000000000 ) ) ;
#334 = CC_DESIGN_PERSON_AND_ORGANIZATION_ASSIGNMENT ( #284, #13, ( #228 ) ) ;
#335 = APPROVAL_PERSON_ORGANIZATION ( #308, #119, #303 ) ;
#336 = APPROVAL_STATUS ( 'not_yet_approved' ) ;
#337 = CARTESIAN_POINT ( 'NONE',  ( 5.449997955293000906, 5.499996459961000284, -2.058321952819998302 ) ) ;
#338 = PROPERTY_DEFINITION_REPRESENTATION ( #226, #89 ) ;
#339 = DOCUMENT_TYPE ( 'geometry' ) ;
#340 = CARTESIAN_POINT ( 'NONE',  ( 5.449997955293000906, 6.499996459961001172, -2.058321952820000078 ) ) ;
#341 = APPROVAL ( #53, 'Coincident' ) ;
#342 =( GEOMETRIC_REPRESENTATION_CONTEXT ( 3 ) GLOBAL_UNCERTAINTY_ASSIGNED_CONTEXT ( ( #245 ) ) GLOBAL_UNIT_ASSIGNED_CONTEXT ( ( #306, #289, #105 ) ) REPRESENTATION_CONTEXT ( 'NONE', 'WORKASPACE' ) );
#343 = LOCAL_TIME ( 18, 49, 56.00000000000000000, #310 ) ;
#344 = COORDINATED_UNIVERSAL_TIME_OFFSET ( 10, 0, .AHEAD. ) ;
#345 = PRODUCT_DEFINITION_SHAPE ( 'NONE', 'NONE',  #389 ) ;
#346 = PERSON_AND_ORGANIZATION ( #18446744073709551615, #18446744073709551615 ) ;
#347 = PRODUCT_DEFINITION_SHAPE ( 'NONE', 'NONE',  #69 ) ;
#348 = DATE_AND_TIME ( #256, #387 ) ;
#349 = OBJECT_ROLE ('mandatory',$ ) ;
#350 = APPLICATION_PROTOCOL_DEFINITION ( 'international standard', 'config_control_design', 1994, #370 ) ;
#351 = CC_DESIGN_PERSON_AND_ORGANIZATION_ASSIGNMENT ( #37, #32, ( #77 ) ) ;
#352 = APPROVAL_STATUS ( 'not_yet_approved' ) ;
#353 = SECURITY_CLASSIFICATION ( '', '', #174 ) ;
#354 = CALENDAR_DATE ( 2026, 22, 6 ) ;
#355 = APPROVAL_ROLE ( '' ) ;
#356 = SHAPE_DEFINITION_REPRESENTATION ( #163, #99 ) ;
#357 = PRODUCT_DEFINITION_FORMATION_WITH_SPECIFIED_SOURCE ( 'Symmetric', '', #104, .NOT_KNOWN. ) ;
#358 = APPROVAL_DATE_TIME ( #270, #341 ) ;
#359 = DATE_AND_TIME ( #267, #307 ) ;
#360 = APPLICATION_CONTEXT ( 'configuration controlled 3d designs of mechanical parts and assemblies' ) ;
#361 = CC_DESIGN_DATE_AND_TIME_ASSIGNMENT ( #94, #123, ( #265 ) ) ;
#362 = COORDINATED_UNIVERSAL_TIME_OFFSET ( 10, 0, .AHEAD. ) ;
#363 = CC_DESIGN_APPROVAL ( #119, ( #265 ) ) ;
#364 = ROLE_ASSOCIATION ( #349, #97 ) ;
#365 = DIRECTION ( 'NONE',  ( 4.890937612370273194E-29, -3.155443620884047222E-30, 0.9999999999999997780 ) ) ;
#366 = PROPERTY_DEFINITION ('document property','', #135 ) ;
#367 = DATE_TIME_ROLE ( 'classification_date' ) ;
#368 = CARTESIAN_POINT ( 'NONE',  ( 0.000000000000000000, 0.000000000000000000, 0.000000000000000000 ) ) ;
#369 = CONTEXT_DEPENDENT_SHAPE_REPRESENTATION ( #281, #192 ) ;
#370 = APPLICATION_CONTEXT ( 'configuration controlled 3d designs of mechanical parts and assemblies' ) ;
#371 = APPROVAL_PERSON_ORGANIZATION ( #302, #25, #322 ) ;
#372 = COORDINATED_UNIVERSAL_TIME_OFFSET ( 10, 0, .AHEAD. ) ;
#373 =( NAMED_UNIT ( * ) SI_UNIT ( $, .STERADIAN. ) SOLID_ANGLE_UNIT ( ) );
#374 = CARTESIAN_POINT ( 'NONE',  ( 0.000000000000000000, 0.000000000000000000, 0.000000000000000000 ) ) ;
#375 = CC_DESIGN_DATE_AND_TIME_ASSIGNMENT ( #184, #180, ( #311 ) ) ;
#376 = APPROVAL_STATUS ( 'not_yet_approved' ) ;
#377 = APPROVAL_PERSON_ORGANIZATION ( #208, #315, #172 ) ;
#378 = MECHANICAL_CONTEXT ( 'NONE', #165, 'mechanical' ) ;
#379 = PRODUCT_DEFINITION ( 'General', '', #40, #91 ) ;
#380 = CALENDAR_DATE ( 2026, 22, 6 ) ;
#381 = PERSON_AND_ORGANIZATION ( #18446744073709551615, #18446744073709551615 ) ;
#382 = LOCAL_TIME ( 18, 49, 56.00000000000000000, #52 ) ;
#383 = PERSON ( 'NAUO-PER125', 'UNSPECIFIED', 'UNSPECIFIED', ('UNSPECIFIED'), ('UNSPECIFIED'), ('UNSPECIFIED') ) ;
#384 = PERSON_AND_ORGANIZATION ( #18446744073709551615, #18446744073709551615 ) ;
#385 = CC_DESIGN_PERSON_AND_ORGANIZATION_ASSIGNMENT ( #236, #143, ( #40 ) ) ;
#386 = COORDINATED_UNIVERSAL_TIME_OFFSET ( 10, 0, .AHEAD. ) ;
#387 = LOCAL_TIME ( 18, 49, 56.00000000000000000, #136 ) ;
#388 = NEXT_ASSEMBLY_USAGE_OCCURRENCE ( 'NAUO125', ' ', ' ', #69, #239, $ ) ;
#389 = NEXT_ASSEMBLY_USAGE_OCCURRENCE ( 'NAUO126', ' ', ' ', #69, #239, $ ) ;
#390 = NEXT_ASSEMBLY_USAGE_OCCURRENCE ( 'NAUO127', ' ', ' ', #69, #379, $ ) ;
ENDSEC;
END-ISO-10303-21;
