ISO-10303-21;
HEADER;
FILE_DESCRIPTION (( 'STEP AP203' ),
    '1' );
FILE_NAME ('R23.step.STEP',
    '2026-06-22T08:49:55',
    ( 'localuser' ),
    ( '' ),
    'SwSTEP 2.0',
    'SolidWorks 2025',
    '' );
FILE_SCHEMA (( 'CONFIG_CONTROL_DESIGN' ));
ENDSEC;

DATA;
#1 = SHAPE_DEFINITION_REPRESENTATION ( #231, #102 ) ;
#2 = DIRECTION ( 'NONE',  ( 1.000000000000000000, 0.000000000000000000, 0.000000000000000000 ) ) ;
#3 = PRODUCT_DEFINITION ( 'General', '', #255, #250 ) ;
#4 = DATE_TIME_ROLE ( 'classification_date' ) ;
#5 = APPLICATION_PROTOCOL_DEFINITION ( 'international standard', 'config_control_design', 1994, #224 ) ;
#6 = SHAPE_DEFINITION_REPRESENTATION ( #107, #92 ) ;
#7 = CC_DESIGN_APPROVAL ( #314, ( #59 ) ) ;
#8 = DOCUMENT_FILE ( '6461079856.step.STEP' , '', '', #286, '' ,$ ) ;
#9 = APPLICATION_PROTOCOL_DEFINITION ( 'international standard', 'config_control_design', 1994, #185 ) ;
#10 = CC_DESIGN_DATE_AND_TIME_ASSIGNMENT ( #15, #43, ( #179 ) ) ;
#11 = APPROVAL_DATE_TIME ( #37, #265 ) ;
#12 =( REPRESENTATION_RELATIONSHIP ('NONE','NONE', #92, #102 ) REPRESENTATION_RELATIONSHIP_WITH_TRANSFORMATION ( #236 )SHAPE_REPRESENTATION_RELATIONSHIP( ) );
#13 = APPLIED_EXTERNAL_IDENTIFICATION_ASSIGNMENT ( '6461079856.step.STEP' , #358, #267,( #8) ) ;
#14 = DATE_AND_TIME ( #218, #66 ) ;
#15 = DATE_AND_TIME ( #69, #305 ) ;
#16 = COORDINATED_UNIVERSAL_TIME_OFFSET ( 10, 0, .AHEAD. ) ;
#17 = PERSON_AND_ORGANIZATION_ROLE ( 'classification_officer' ) ;
#18 = LOCAL_TIME ( 18, 49, 55.00000000000000000, #51 ) ;
#19 = SECURITY_CLASSIFICATION_LEVEL ( 'unclassified' ) ;
#20 = IDENTIFICATION_ROLE ( 'external document id and location', $) ;
#21 = APPROVAL_DATE_TIME ( #296, #349 ) ;
#22 = DATE_TIME_ROLE ( 'creation_date' ) ;
#23 = PROPERTY_DEFINITION_REPRESENTATION ( #252, #102 ) ;
#24 = DIRECTION ( 'NONE',  ( 1.000000000000000222, -1.092455418989176591E-28, 4.890937612370273194E-29 ) ) ;
#25 =( NAMED_UNIT ( * ) SI_UNIT ( $, .STERADIAN. ) SOLID_ANGLE_UNIT ( ) );
#26 = SECURITY_CLASSIFICATION_LEVEL ( 'unclassified' ) ;
#27 = APPROVAL ( #259, 'Coincident' ) ;
#28 = CARTESIAN_POINT ( 'NONE',  ( 7.400002532930001209, 5.999996459961000284, -2.058321952820000078 ) ) ;
#29 = PERSON_AND_ORGANIZATION_ROLE ( 'creator' ) ;
#30 = PERSON_AND_ORGANIZATION_ROLE ( 'classification_officer' ) ;
#31 =( GEOMETRIC_REPRESENTATION_CONTEXT ( 3 ) GLOBAL_UNCERTAINTY_ASSIGNED_CONTEXT ( ( #93 ) ) GLOBAL_UNIT_ASSIGNED_CONTEXT ( ( #312, #160, #94 ) ) REPRESENTATION_CONTEXT ( 'NONE', 'WORKASPACE' ) );
#32 = LOCAL_TIME ( 18, 49, 55.00000000000000000, #16 ) ;
#33 = CC_DESIGN_DATE_AND_TIME_ASSIGNMENT ( #206, #22, ( #238 ) ) ;
#34 = DATE_AND_TIME ( #213, #161 ) ;
#35 = DESIGN_CONTEXT ( 'detailed design', #98, 'design' ) ;
#36 = CC_DESIGN_DATE_AND_TIME_ASSIGNMENT ( #154, #301, ( #59 ) ) ;
#37 = DATE_AND_TIME ( #333, #373 ) ;
#38 = PERSON_AND_ORGANIZATION_ROLE ( 'classification_officer' ) ;
#39 = COORDINATED_UNIVERSAL_TIME_OFFSET ( 10, 0, .AHEAD. ) ;
#40 = ORGANIZATION ( 'NAUO-ORG114', 'UNSPECIFIED', 'UNSPECIFIED' ) ;
#41 = APPROVAL_STATUS ( 'not_yet_approved' ) ;
#42 = DOCUMENT_TYPE ( 'geometry' ) ;
#43 = DATE_TIME_ROLE ( 'classification_date' ) ;
#44 = APPROVAL_PERSON_ORGANIZATION ( #317, #198, #316 ) ;
#45 = CC_DESIGN_APPROVAL ( #198, ( #238 ) ) ;
#46 = APPROVAL_ROLE ( '' ) ;
#47 = CALENDAR_DATE ( 2026, 22, 6 ) ;
#48 = CALENDAR_DATE ( 2026, 22, 6 ) ;
#49 = PRODUCT ( '6534431024.step', '6534431024.step', '', ( #251 ) ) ;
#50 = DATE_AND_TIME ( #342, #228 ) ;
#51 = COORDINATED_UNIVERSAL_TIME_OFFSET ( 10, 0, .AHEAD. ) ;
#52 = DOCUMENT_FILE ( '6534431024.step.STEP' , '', '', #42, '' ,$ ) ;
#53 = PRODUCT_DEFINITION_FORMATION_WITH_SPECIFIED_SOURCE ( 'Symmetric', '', #49, .NOT_KNOWN. ) ;
#54 = CALENDAR_DATE ( 2026, 22, 6 ) ;
#55 = DOCUMENT_TYPE ( 'geometry' ) ;
#56 = PERSON_AND_ORGANIZATION ( #18446744073709551615, #18446744073709551615 ) ;
#57 = COORDINATED_UNIVERSAL_TIME_OFFSET ( 10, 0, .AHEAD. ) ;
#58 =( LENGTH_UNIT ( ) NAMED_UNIT ( * ) SI_UNIT ( .MILLI., .METRE. ) );
#59 = SECURITY_CLASSIFICATION ( '', '', #272 ) ;
#60 = CC_DESIGN_PERSON_AND_ORGANIZATION_ASSIGNMENT ( #363, #217, ( #49 ) ) ;
#61 = PROPERTY_DEFINITION_REPRESENTATION ( #346, #102 ) ;
#62 = APPLICATION_PROTOCOL_DEFINITION ( 'international standard', 'config_control_design', 1994, #98 ) ;
#63 = APPROVAL_STATUS ( 'not_yet_approved' ) ;
#64 = APPROVAL_ROLE ( '' ) ;
#65 = CC_DESIGN_DATE_AND_TIME_ASSIGNMENT ( #34, #303, ( #315 ) ) ;
#66 = LOCAL_TIME ( 18, 49, 55.00000000000000000, #367 ) ;
#67 = APPROVAL_STATUS ( 'not_yet_approved' ) ;
#68 = CC_DESIGN_PERSON_AND_ORGANIZATION_ASSIGNMENT ( #129, #38, ( #262 ) ) ;
#69 = CALENDAR_DATE ( 2026, 22, 6 ) ;
#70 = CC_DESIGN_PERSON_AND_ORGANIZATION_ASSIGNMENT ( #370, #167, ( #90 ) ) ;
#71 = PERSON_AND_ORGANIZATION ( #18446744073709551615, #18446744073709551615 ) ;
#72 = LOCAL_TIME ( 18, 49, 55.00000000000000000, #307 ) ;
#73 = APPROVAL_DATE_TIME ( #227, #27 ) ;
#74 = APPROVAL_STATUS ( 'not_yet_approved' ) ;
#75 = SHAPE_REPRESENTATION ( '6534431024.step', ( #152 ), #221 ) ;
#76 = COORDINATED_UNIVERSAL_TIME_OFFSET ( 10, 0, .AHEAD. ) ;
#77 = OBJECT_ROLE ('mandatory',$ ) ;
#78 = APPROVAL_PERSON_ORGANIZATION ( #131, #192, #64 ) ;
#79 = CC_DESIGN_APPROVAL ( #138, ( #315 ) ) ;
#80 = CALENDAR_DATE ( 2026, 22, 6 ) ;
#81 = PERSON_AND_ORGANIZATION_ROLE ( 'design_supplier' ) ;
#82 = CC_DESIGN_PERSON_AND_ORGANIZATION_ASSIGNMENT ( #97, #334, ( #90 ) ) ;
#83 = PERSON_AND_ORGANIZATION ( #216, #380 ) ;
#84 = CARTESIAN_POINT ( 'NONE',  ( 7.400002532930001209, 5.499996459961000284, -2.058321952820000078 ) ) ;
#85 = AXIS2_PLACEMENT_3D ( 'NONE', #84, #359, #275 ) ;
#86 = COORDINATED_UNIVERSAL_TIME_OFFSET ( 10, 0, .AHEAD. ) ;
#87 = CC_DESIGN_SECURITY_CLASSIFICATION ( #262, ( #390 ) ) ;
#88 = COORDINATED_UNIVERSAL_TIME_OFFSET ( 10, 0, .AHEAD. ) ;
#89 = PERSON_AND_ORGANIZATION ( #18446744073709551615, #18446744073709551615 ) ;
#90 = PRODUCT_DEFINITION_FORMATION_WITH_SPECIFIED_SOURCE ( 'Symmetric', '', #260, .NOT_KNOWN. ) ;
#91 = LOCAL_TIME ( 18, 49, 55.00000000000000000, #268 ) ;
#92 = SHAPE_REPRESENTATION ( 'R23.step', ( #132, #85, #159, #151 ), #31 ) ;
#93 = UNCERTAINTY_MEASURE_WITH_UNIT (LENGTH_MEASURE( 1.000000000000000082E-05 ), #312, 'distance_accuracy_value', 'NONE');
#94 =( NAMED_UNIT ( * ) SI_UNIT ( $, .STERADIAN. ) SOLID_ANGLE_UNIT ( ) );
#95 = CC_DESIGN_DATE_AND_TIME_ASSIGNMENT ( #135, #140, ( #3 ) ) ;
#96 = APPROVAL_DATE_TIME ( #284, #257 ) ;
#97 = PERSON_AND_ORGANIZATION ( #18446744073709551615, #18446744073709551615 ) ;
#98 = APPLICATION_CONTEXT ( 'configuration controlled 3d designs of mechanical parts and assemblies' ) ;
#99 = DATE_TIME_ROLE ( 'creation_date' ) ;
#100 = COORDINATED_UNIVERSAL_TIME_OFFSET ( 10, 0, .AHEAD. ) ;
#101 = CC_DESIGN_PERSON_AND_ORGANIZATION_ASSIGNMENT ( #325, #208, ( #59 ) ) ;
#102 = SHAPE_REPRESENTATION ( '6461079856.step', ( #114 ), #270 ) ;
#103 = APPROVAL_ROLE ( '' ) ;
#104 = APPROVAL_PERSON_ORGANIZATION ( #83, #138, #276 ) ;
#105 = MECHANICAL_CONTEXT ( 'NONE', #204, 'mechanical' ) ;
#106 = CC_DESIGN_DATE_AND_TIME_ASSIGNMENT ( #194, #99, ( #157 ) ) ;
#107 = PRODUCT_DEFINITION_SHAPE ( 'NONE', 'NONE',  #157 ) ;
#108 = APPROVAL_ROLE ( '' ) ;
#109 = APPROVAL_STATUS ( 'not_yet_approved' ) ;
#110 = LOCAL_TIME ( 18, 49, 55.00000000000000000, #76 ) ;
#111 = PERSON_AND_ORGANIZATION ( #18446744073709551615, #18446744073709551615 ) ;
#112 = PROPERTY_DEFINITION_REPRESENTATION ( #263, #75 ) ;
#113 =( NAMED_UNIT ( * ) SI_UNIT ( $, .STERADIAN. ) SOLID_ANGLE_UNIT ( ) );
#114 = AXIS2_PLACEMENT_3D ( 'NONE', #385, #209, #2 ) ;
#115 = COORDINATED_UNIVERSAL_TIME_OFFSET ( 10, 0, .AHEAD. ) ;
#116 = APPLIED_EXTERNAL_IDENTIFICATION_ASSIGNMENT ( '6461079856.step.STEP' , #20, #117,( #298) ) ;
#117 = EXTERNAL_SOURCE (IDENTIFIER('') ) ;
#118 = APPROVAL ( #67, 'Coincident' ) ;
#119 = ROLE_ASSOCIATION ( #304, #245 ) ;
#120 =( LENGTH_UNIT ( ) NAMED_UNIT ( * ) SI_UNIT ( .MILLI., .METRE. ) );
#121 = PERSON_AND_ORGANIZATION_ROLE ( 'classification_officer' ) ;
#122 = MECHANICAL_CONTEXT ( 'NONE', #224, 'mechanical' ) ;
#123 = PROPERTY_DEFINITION_REPRESENTATION ( #139, #102 ) ;
#124 = APPROVAL_PERSON_ORGANIZATION ( #290, #265, #285 ) ;
#125 = APPLICATION_PROTOCOL_DEFINITION ( 'international standard', 'config_control_design', 1994, #141 ) ;
#126 = CC_DESIGN_PERSON_AND_ORGANIZATION_ASSIGNMENT ( #136, #232, ( #53 ) ) ;
#127 = CC_DESIGN_APPROVAL ( #118, ( #179 ) ) ;
#128 = PERSON_AND_ORGANIZATION_ROLE ( 'creator' ) ;
#129 = PERSON_AND_ORGANIZATION ( #226, #294 ) ;
#130 = CALENDAR_DATE ( 2026, 22, 6 ) ;
#131 = PERSON_AND_ORGANIZATION ( #18446744073709551615, #18446744073709551615 ) ;
#132 = AXIS2_PLACEMENT_3D ( 'NONE', #181, #165, #282 ) ;
#133 = CC_DESIGN_APPROVAL ( #308, ( #289 ) ) ;
#134 = CC_DESIGN_PERSON_AND_ORGANIZATION_ASSIGNMENT ( #71, #128, ( #157 ) ) ;
#135 = DATE_AND_TIME ( #318, #18 ) ;
#136 = PERSON_AND_ORGANIZATION ( #18446744073709551615, #18446744073709551615 ) ;
#137 = CC_DESIGN_SECURITY_CLASSIFICATION ( #179, ( #90 ) ) ;
#138 = APPROVAL ( #306, 'UNKNOWN' ) ;
#139 = PROPERTY_DEFINITION ('external definition','', #298 ) ;
#140 = DATE_TIME_ROLE ( 'creation_date' ) ;
#141 = APPLICATION_CONTEXT ( 'configuration controlled 3d designs of mechanical parts and assemblies' ) ;
#142 = DATE_TIME_ROLE ( 'classification_date' ) ;
#143 = CC_DESIGN_DATE_AND_TIME_ASSIGNMENT ( #50, #142, ( #289 ) ) ;
#144 = DATE_AND_TIME ( #261, #331 ) ;
#145 = LOCAL_TIME ( 18, 49, 55.00000000000000000, #115 ) ;
#146 = ROLE_ASSOCIATION ( #77, #241 ) ;
#147 = DIRECTION ( 'NONE',  ( 1.000000000000000000, 0.000000000000000000, 0.000000000000000000 ) ) ;
#148 = CALENDAR_DATE ( 2026, 22, 6 ) ;
#149 = DIRECTION ( 'NONE',  ( 4.890937612370273194E-29, -3.155443620884047222E-30, 0.9999999999999997780 ) ) ;
#150 = COORDINATED_UNIVERSAL_TIME_OFFSET ( 10, 0, .AHEAD. ) ;
#151 = AXIS2_PLACEMENT_3D ( 'NONE', #313, #163, #188 ) ;
#152 = AXIS2_PLACEMENT_3D ( 'NONE', #330, #243, #147 ) ;
#153 = APPROVAL_ROLE ( '' ) ;
#154 = DATE_AND_TIME ( #178, #168 ) ;
#155 = PERSON_AND_ORGANIZATION ( #382, #40 ) ;
#156 = CC_DESIGN_DATE_AND_TIME_ASSIGNMENT ( #14, #193, ( #262 ) ) ;
#157 = PRODUCT_DEFINITION ( 'General', '', #90, #162 ) ;
#158 = CALENDAR_DATE ( 2026, 22, 6 ) ;
#159 = AXIS2_PLACEMENT_3D ( 'NONE', #28, #149, #24 ) ;
#160 =( NAMED_UNIT ( * ) PLANE_ANGLE_UNIT ( ) SI_UNIT ( $, .RADIAN. ) );
#161 = LOCAL_TIME ( 18, 49, 55.00000000000000000, #352 ) ;
#162 = DESIGN_CONTEXT ( 'detailed design', #185, 'design' ) ;
#163 = DIRECTION ( 'NONE',  ( 4.890937612370273194E-29, -3.155443620884047222E-30, 0.9999999999999997780 ) ) ;
#164 =( REPRESENTATION_RELATIONSHIP ('NONE','NONE', #92, #102 ) REPRESENTATION_RELATIONSHIP_WITH_TRANSFORMATION ( #328 )SHAPE_REPRESENTATION_RELATIONSHIP( ) );
#165 = DIRECTION ( 'NONE',  ( 0.000000000000000000, 0.000000000000000000, 1.000000000000000000 ) ) ;
#166 = APPLIED_DOCUMENT_REFERENCE ( #298,'',( #3) ) ;
#167 = PERSON_AND_ORGANIZATION_ROLE ( 'creator' ) ;
#168 = LOCAL_TIME ( 18, 49, 55.00000000000000000, #88 ) ;
#169 = PERSON_AND_ORGANIZATION_ROLE ( 'creator' ) ;
#170 = CC_DESIGN_PERSON_AND_ORGANIZATION_ASSIGNMENT ( #111, #266, ( #344 ) ) ;
#171 = PERSON_AND_ORGANIZATION_ROLE ( 'creator' ) ;
#172 = COORDINATED_UNIVERSAL_TIME_OFFSET ( 10, 0, .AHEAD. ) ;
#173 = PRODUCT_DEFINITION_SHAPE ( 'NONE', 'NONE',  #238 ) ;
#174 = APPROVAL_DATE_TIME ( #144, #308 ) ;
#175 = UNCERTAINTY_MEASURE_WITH_UNIT (LENGTH_MEASURE( 1.000000000000000082E-05 ), #120, 'distance_accuracy_value', 'NONE');
#176 = PERSON_AND_ORGANIZATION ( #18446744073709551615, #18446744073709551615 ) ;
#177 = CC_DESIGN_PERSON_AND_ORGANIZATION_ASSIGNMENT ( #355, #81, ( #255 ) ) ;
#178 = CALENDAR_DATE ( 2026, 22, 6 ) ;
#179 = SECURITY_CLASSIFICATION ( '', '', #369 ) ;
#180 = CC_DESIGN_APPROVAL ( #27, ( #255 ) ) ;
#181 = CARTESIAN_POINT ( 'NONE',  ( 0.000000000000000000, 0.000000000000000000, 0.000000000000000000 ) ) ;
#182 = APPROVAL_DATE_TIME ( #212, #314 ) ;
#183 = CC_DESIGN_PERSON_AND_ORGANIZATION_ASSIGNMENT ( #247, #336, ( #260 ) ) ;
#184 = DATE_AND_TIME ( #273, #145 ) ;
#185 = APPLICATION_CONTEXT ( 'configuration controlled 3d designs of mechanical parts and assemblies' ) ;
#186 = CC_DESIGN_SECURITY_CLASSIFICATION ( #59, ( #255 ) ) ;
#187 = APPROVAL_DATE_TIME ( #324, #195 ) ;
#188 = DIRECTION ( 'NONE',  ( 1.000000000000000222, -1.092455418989176591E-28, 4.890937612370273194E-29 ) ) ;
#189 = PERSON_AND_ORGANIZATION ( #18446744073709551615, #18446744073709551615 ) ;
#190 = LOCAL_TIME ( 18, 49, 55.00000000000000000, #150 ) ;
#191 = APPROVAL_DATE_TIME ( #278, #118 ) ;
#192 = APPROVAL ( #41, 'Coincident' ) ;
#193 = DATE_TIME_ROLE ( 'classification_date' ) ;
#194 = DATE_AND_TIME ( #158, #210 ) ;
#195 = APPROVAL ( #356, 'UNKNOWN' ) ;
#196 = PERSON_AND_ORGANIZATION ( #18446744073709551615, #18446744073709551615 ) ;
#197 = APPROVAL_PERSON_ORGANIZATION ( #56, #314, #153 ) ;
#198 = APPROVAL ( #264, 'Coincident' ) ;
#199 = PERSON_AND_ORGANIZATION ( #18446744073709551615, #18446744073709551615 ) ;
#200 = PRODUCT_DEFINITION_SHAPE ( 'NONE', 'NONE',  #388 ) ;
#201 = APPROVAL_DATE_TIME ( #343, #323 ) ;
#202 = PRODUCT_DEFINITION_SHAPE ( 'NONE', 'NONE',  #390 ) ;
#203 = PERSON_AND_ORGANIZATION_ROLE ( 'design_supplier' ) ;
#204 = APPLICATION_CONTEXT ( 'configuration controlled 3d designs of mechanical parts and assemblies' ) ;
#205 = CC_DESIGN_SECURITY_CLASSIFICATION ( #315, ( #388 ) ) ;
#206 = DATE_AND_TIME ( #347, #110 ) ;
#207 = CONTEXT_DEPENDENT_SHAPE_REPRESENTATION ( #345, #295 ) ;
#208 = PERSON_AND_ORGANIZATION_ROLE ( 'classification_officer' ) ;
#209 = DIRECTION ( 'NONE',  ( 0.000000000000000000, 0.000000000000000000, 1.000000000000000000 ) ) ;
#210 = LOCAL_TIME ( 18, 49, 55.00000000000000000, #219 ) ;
#211 = LOCAL_TIME ( 18, 49, 55.00000000000000000, #57 ) ;
#212 = DATE_AND_TIME ( #148, #354 ) ;
#213 = CALENDAR_DATE ( 2026, 22, 6 ) ;
#214 = CC_DESIGN_PERSON_AND_ORGANIZATION_ASSIGNMENT ( #297, #17, ( #289 ) ) ;
#215 = CC_DESIGN_SECURITY_CLASSIFICATION ( #234, ( #389 ) ) ;
#216 = PERSON ( 'NAUO-PER113', 'UNSPECIFIED', 'UNSPECIFIED', ('UNSPECIFIED'), ('UNSPECIFIED'), ('UNSPECIFIED') ) ;
#217 = PERSON_AND_ORGANIZATION_ROLE ( 'design_owner' ) ;
#218 = CALENDAR_DATE ( 2026, 22, 6 ) ;
#219 = COORDINATED_UNIVERSAL_TIME_OFFSET ( 10, 0, .AHEAD. ) ;
#220 = SECURITY_CLASSIFICATION_LEVEL ( 'unclassified' ) ;
#221 =( GEOMETRIC_REPRESENTATION_CONTEXT ( 3 ) GLOBAL_UNCERTAINTY_ASSIGNED_CONTEXT ( ( #381 ) ) GLOBAL_UNIT_ASSIGNED_CONTEXT ( ( #58, #237, #113 ) ) REPRESENTATION_CONTEXT ( 'NONE', 'WORKASPACE' ) );
#222 = DATE_AND_TIME ( #225, #360 ) ;
#223 = LOCAL_TIME ( 18, 49, 55.00000000000000000, #249 ) ;
#224 = APPLICATION_CONTEXT ( 'configuration controlled 3d designs of mechanical parts and assemblies' ) ;
#225 = CALENDAR_DATE ( 2026, 22, 6 ) ;
#226 = PERSON ( 'NAUO-PER115', 'UNSPECIFIED', 'UNSPECIFIED', ('UNSPECIFIED'), ('UNSPECIFIED'), ('UNSPECIFIED') ) ;
#227 = DATE_AND_TIME ( #80, #341 ) ;
#228 = LOCAL_TIME ( 18, 49, 55.00000000000000000, #319 ) ;
#229 = PROPERTY_DEFINITION ('external definition','', #52 ) ;
#230 = CALENDAR_DATE ( 2026, 22, 6 ) ;
#231 = PRODUCT_DEFINITION_SHAPE ( 'NONE', 'NONE',  #3 ) ;
#232 = PERSON_AND_ORGANIZATION_ROLE ( 'creator' ) ;
#233 = PERSON_AND_ORGANIZATION ( #18446744073709551615, #18446744073709551615 ) ;
#234 = SECURITY_CLASSIFICATION ( '', '', #239 ) ;
#235 = COORDINATED_UNIVERSAL_TIME_OFFSET ( 10, 0, .AHEAD. ) ;
#236 = ITEM_DEFINED_TRANSFORMATION ( 'NONE', 'NONE', #151,  #114 ) ;
#237 =( NAMED_UNIT ( * ) PLANE_ANGLE_UNIT ( ) SI_UNIT ( $, .RADIAN. ) );
#238 = PRODUCT_DEFINITION ( 'General', '', #53, #35 ) ;
#239 = SECURITY_CLASSIFICATION_LEVEL ( 'unclassified' ) ;
#240 = CC_DESIGN_APPROVAL ( #257, ( #262 ) ) ;
#241 = APPLIED_DOCUMENT_REFERENCE ( #52,'',( #238) ) ;
#242 = CC_DESIGN_PERSON_AND_ORGANIZATION_ASSIGNMENT ( #155, #121, ( #234 ) ) ;
#243 = DIRECTION ( 'NONE',  ( 0.000000000000000000, 0.000000000000000000, 1.000000000000000000 ) ) ;
#244 = ITEM_DEFINED_TRANSFORMATION ( 'NONE', 'NONE', #159,  #152 ) ;
#245 = APPLIED_DOCUMENT_REFERENCE ( #8,'',( #3) ) ;
#246 = PRODUCT_RELATED_PRODUCT_CATEGORY ( 'detail', '', ( #344 ) ) ;
#247 = PERSON_AND_ORGANIZATION ( #18446744073709551615, #18446744073709551615 ) ;
#248 = APPROVAL_PERSON_ORGANIZATION ( #339, #118, #253 ) ;
#249 = COORDINATED_UNIVERSAL_TIME_OFFSET ( 10, 0, .AHEAD. ) ;
#250 = DESIGN_CONTEXT ( 'detailed design', #321, 'design' ) ;
#251 = MECHANICAL_CONTEXT ( 'NONE', #141, 'mechanical' ) ;
#252 = PROPERTY_DEFINITION ('external definition','', #8 ) ;
#253 = APPROVAL_ROLE ( '' ) ;
#254 = CC_DESIGN_APPROVAL ( #265, ( #157 ) ) ;
#255 = PRODUCT_DEFINITION_FORMATION_WITH_SPECIFIED_SOURCE ( 'Symmetric', '', #344, .NOT_KNOWN. ) ;
#256 = APPROVAL_DATE_TIME ( #222, #192 ) ;
#257 = APPROVAL ( #63, 'UNKNOWN' ) ;
#258 = CC_DESIGN_PERSON_AND_ORGANIZATION_ASSIGNMENT ( #196, #169, ( #3 ) ) ;
#259 = APPROVAL_STATUS ( 'not_yet_approved' ) ;
#260 = PRODUCT ( 'R23.step', 'R23.step', '', ( #122 ) ) ;
#261 = CALENDAR_DATE ( 2026, 22, 6 ) ;
#262 = SECURITY_CLASSIFICATION ( '', '', #220 ) ;
#263 = PROPERTY_DEFINITION ('document property','', #52 ) ;
#264 = APPROVAL_STATUS ( 'not_yet_approved' ) ;
#265 = APPROVAL ( #366, 'Coincident' ) ;
#266 = PERSON_AND_ORGANIZATION_ROLE ( 'design_owner' ) ;
#267 = EXTERNAL_SOURCE (IDENTIFIER('') ) ;
#268 = COORDINATED_UNIVERSAL_TIME_OFFSET ( 10, 0, .AHEAD. ) ;
#269 = CC_DESIGN_PERSON_AND_ORGANIZATION_ASSIGNMENT ( #83, #30, ( #315 ) ) ;
#270 =( GEOMETRIC_REPRESENTATION_CONTEXT ( 3 ) GLOBAL_UNCERTAINTY_ASSIGNED_CONTEXT ( ( #175 ) ) GLOBAL_UNIT_ASSIGNED_CONTEXT ( ( #120, #357, #25 ) ) REPRESENTATION_CONTEXT ( 'NONE', 'WORKASPACE' ) );
#271 = CC_DESIGN_APPROVAL ( #323, ( #3 ) ) ;
#272 = SECURITY_CLASSIFICATION_LEVEL ( 'unclassified' ) ;
#273 = CALENDAR_DATE ( 2026, 22, 6 ) ;
#274 = CONTEXT_DEPENDENT_SHAPE_REPRESENTATION ( #164, #200 ) ;
#275 = DIRECTION ( 'NONE',  ( 1.000000000000000222, -1.092455418989176591E-28, 4.890937612370273194E-29 ) ) ;
#276 = APPROVAL_ROLE ( '' ) ;
#277 = APPROVAL_STATUS ( 'not_yet_approved' ) ;
#278 = DATE_AND_TIME ( #130, #72 ) ;
#279 = APPROVAL_PERSON_ORGANIZATION ( #176, #308, #46 ) ;
#280 = CC_DESIGN_PERSON_AND_ORGANIZATION_ASSIGNMENT ( #89, #29, ( #255 ) ) ;
#281 = CONTEXT_DEPENDENT_SHAPE_REPRESENTATION ( #12, #202 ) ;
#282 = DIRECTION ( 'NONE',  ( 1.000000000000000000, 0.000000000000000000, 0.000000000000000000 ) ) ;
#283 = CC_DESIGN_DATE_AND_TIME_ASSIGNMENT ( #353, #4, ( #234 ) ) ;
#284 = DATE_AND_TIME ( #309, #223 ) ;
#285 = APPROVAL_ROLE ( '' ) ;
#286 = DOCUMENT_TYPE ( 'geometry' ) ;
#287 = CC_DESIGN_PERSON_AND_ORGANIZATION_ASSIGNMENT ( #199, #203, ( #53 ) ) ;
#288 = APPROVAL_PERSON_ORGANIZATION ( #291, #323, #322 ) ;
#289 = SECURITY_CLASSIFICATION ( '', '', #19 ) ;
#290 = PERSON_AND_ORGANIZATION ( #18446744073709551615, #18446744073709551615 ) ;
#291 = PERSON_AND_ORGANIZATION ( #18446744073709551615, #18446744073709551615 ) ;
#292 = DATE_AND_TIME ( #47, #91 ) ;
#293 = APPLICATION_PROTOCOL_DEFINITION ( 'international standard', 'config_control_design', 1994, #204 ) ;
#294 = ORGANIZATION ( 'NAUO-ORG115', 'UNSPECIFIED', 'UNSPECIFIED' ) ;
#295 = PRODUCT_DEFINITION_SHAPE ( 'NONE', 'NONE',  #389 ) ;
#296 = DATE_AND_TIME ( #48, #32 ) ;
#297 = PERSON_AND_ORGANIZATION ( #18446744073709551615, #18446744073709551615 ) ;
#298 = DOCUMENT_FILE ( '6461079856.step.STEP' , '', '', #55, '' ,$ ) ;
#299 = OBJECT_ROLE ('mandatory',$ ) ;
#300 = CC_DESIGN_SECURITY_CLASSIFICATION ( #289, ( #53 ) ) ;
#301 = DATE_TIME_ROLE ( 'classification_date' ) ;
#302 = APPROVAL_ROLE ( '' ) ;
#303 = DATE_TIME_ROLE ( 'classification_date' ) ;
#304 = OBJECT_ROLE ('mandatory',$ ) ;
#305 = LOCAL_TIME ( 18, 49, 55.00000000000000000, #310 ) ;
#306 = APPROVAL_STATUS ( 'not_yet_approved' ) ;
#307 = COORDINATED_UNIVERSAL_TIME_OFFSET ( 10, 0, .AHEAD. ) ;
#308 = APPROVAL ( #74, 'Coincident' ) ;
#309 = CALENDAR_DATE ( 2026, 22, 6 ) ;
#310 = COORDINATED_UNIVERSAL_TIME_OFFSET ( 10, 0, .AHEAD. ) ;
#311 = APPROVAL_PERSON_ORGANIZATION ( #379, #349, #108 ) ;
#312 =( LENGTH_UNIT ( ) NAMED_UNIT ( * ) SI_UNIT ( .MILLI., .METRE. ) );
#313 = CARTESIAN_POINT ( 'NONE',  ( 7.400002532930001209, 6.499996459961001172, -2.058321952819998302 ) ) ;
#314 = APPROVAL ( #277, 'Coincident' ) ;
#315 = SECURITY_CLASSIFICATION ( '', '', #26 ) ;
#316 = APPROVAL_ROLE ( '' ) ;
#317 = PERSON_AND_ORGANIZATION ( #18446744073709551615, #18446744073709551615 ) ;
#318 = CALENDAR_DATE ( 2026, 22, 6 ) ;
#319 = COORDINATED_UNIVERSAL_TIME_OFFSET ( 10, 0, .AHEAD. ) ;
#320 = APPROVAL_PERSON_ORGANIZATION ( #155, #195, #302 ) ;
#321 = APPLICATION_CONTEXT ( 'configuration controlled 3d designs of mechanical parts and assemblies' ) ;
#322 = APPROVAL_ROLE ( '' ) ;
#323 = APPROVAL ( #109, 'Coincident' ) ;
#324 = DATE_AND_TIME ( #54, #211 ) ;
#325 = PERSON_AND_ORGANIZATION ( #18446744073709551615, #18446744073709551615 ) ;
#326 = LOCAL_TIME ( 18, 49, 55.00000000000000000, #235 ) ;
#327 = APPROVAL_DATE_TIME ( #184, #138 ) ;
#328 = ITEM_DEFINED_TRANSFORMATION ( 'NONE', 'NONE', #85,  #114 ) ;
#329 = CALENDAR_DATE ( 2026, 22, 6 ) ;
#330 = CARTESIAN_POINT ( 'NONE',  ( 0.000000000000000000, 0.000000000000000000, 0.000000000000000000 ) ) ;
#331 = LOCAL_TIME ( 18, 49, 55.00000000000000000, #172 ) ;
#332 = PRODUCT_RELATED_PRODUCT_CATEGORY ( 'detail', '', ( #260 ) ) ;
#333 = CALENDAR_DATE ( 2026, 22, 6 ) ;
#334 = PERSON_AND_ORGANIZATION_ROLE ( 'design_supplier' ) ;
#335 = APPROVAL_PERSON_ORGANIZATION ( #129, #257, #365 ) ;
#336 = PERSON_AND_ORGANIZATION_ROLE ( 'design_owner' ) ;
#337 = EXTERNAL_SOURCE (IDENTIFIER('') ) ;
#338 = PERSON_AND_ORGANIZATION_ROLE ( 'classification_officer' ) ;
#339 = PERSON_AND_ORGANIZATION ( #18446744073709551615, #18446744073709551615 ) ;
#340 = CC_DESIGN_APPROVAL ( #192, ( #90 ) ) ;
#341 = LOCAL_TIME ( 18, 49, 55.00000000000000000, #348 ) ;
#342 = CALENDAR_DATE ( 2026, 22, 6 ) ;
#343 = DATE_AND_TIME ( #230, #326 ) ;
#344 = PRODUCT ( '6461079856.step', '6461079856.step', '', ( #105 ) ) ;
#345 =( REPRESENTATION_RELATIONSHIP ('NONE','NONE', #92, #75 ) REPRESENTATION_RELATIONSHIP_WITH_TRANSFORMATION ( #244 )SHAPE_REPRESENTATION_RELATIONSHIP( ) );
#346 = PROPERTY_DEFINITION ('document property','', #298 ) ;
#347 = CALENDAR_DATE ( 2026, 22, 6 ) ;
#348 = COORDINATED_UNIVERSAL_TIME_OFFSET ( 10, 0, .AHEAD. ) ;
#349 = APPROVAL ( #376, 'Coincident' ) ;
#350 = APPROVAL_PERSON_ORGANIZATION ( #233, #27, #103 ) ;
#351 = APPROVAL_DATE_TIME ( #292, #198 ) ;
#352 = COORDINATED_UNIVERSAL_TIME_OFFSET ( 10, 0, .AHEAD. ) ;
#353 = DATE_AND_TIME ( #329, #190 ) ;
#354 = LOCAL_TIME ( 18, 49, 55.00000000000000000, #86 ) ;
#355 = PERSON_AND_ORGANIZATION ( #18446744073709551615, #18446744073709551615 ) ;
#356 = APPROVAL_STATUS ( 'not_yet_approved' ) ;
#357 =( NAMED_UNIT ( * ) PLANE_ANGLE_UNIT ( ) SI_UNIT ( $, .RADIAN. ) );
#358 = IDENTIFICATION_ROLE ( 'external document id and location', $) ;
#359 = DIRECTION ( 'NONE',  ( 4.890937612370273194E-29, -3.155443620884047222E-30, 0.9999999999999997780 ) ) ;
#360 = LOCAL_TIME ( 18, 49, 55.00000000000000000, #100 ) ;
#361 = APPLIED_EXTERNAL_IDENTIFICATION_ASSIGNMENT ( '6534431024.step.STEP' , #368, #337,( #52) ) ;
#362 = ROLE_ASSOCIATION ( #299, #166 ) ;
#363 = PERSON_AND_ORGANIZATION ( #18446744073709551615, #18446744073709551615 ) ;
#364 = PROPERTY_DEFINITION ('document property','', #8 ) ;
#365 = APPROVAL_ROLE ( '' ) ;
#366 = APPROVAL_STATUS ( 'not_yet_approved' ) ;
#367 = COORDINATED_UNIVERSAL_TIME_OFFSET ( 10, 0, .AHEAD. ) ;
#368 = IDENTIFICATION_ROLE ( 'external document id and location', $) ;
#369 = SECURITY_CLASSIFICATION_LEVEL ( 'unclassified' ) ;
#370 = PERSON_AND_ORGANIZATION ( #18446744073709551615, #18446744073709551615 ) ;
#371 = PERSON_AND_ORGANIZATION ( #18446744073709551615, #18446744073709551615 ) ;
#372 = PRODUCT_RELATED_PRODUCT_CATEGORY ( 'detail', '', ( #49 ) ) ;
#373 = LOCAL_TIME ( 18, 49, 55.00000000000000000, #39 ) ;
#374 = CC_DESIGN_APPROVAL ( #195, ( #234 ) ) ;
#375 = SHAPE_DEFINITION_REPRESENTATION ( #173, #75 ) ;
#376 = APPROVAL_STATUS ( 'not_yet_approved' ) ;
#377 = APPLICATION_PROTOCOL_DEFINITION ( 'international standard', 'config_control_design', 1994, #321 ) ;
#378 = CC_DESIGN_PERSON_AND_ORGANIZATION_ASSIGNMENT ( #371, #171, ( #238 ) ) ;
#379 = PERSON_AND_ORGANIZATION ( #18446744073709551615, #18446744073709551615 ) ;
#380 = ORGANIZATION ( 'NAUO-ORG113', 'UNSPECIFIED', 'UNSPECIFIED' ) ;
#381 = UNCERTAINTY_MEASURE_WITH_UNIT (LENGTH_MEASURE( 1.000000000000000082E-05 ), #58, 'distance_accuracy_value', 'NONE');
#382 = PERSON ( 'NAUO-PER114', 'UNSPECIFIED', 'UNSPECIFIED', ('UNSPECIFIED'), ('UNSPECIFIED'), ('UNSPECIFIED') ) ;
#383 = PROPERTY_DEFINITION_REPRESENTATION ( #229, #75 ) ;
#384 = PROPERTY_DEFINITION_REPRESENTATION ( #364, #102 ) ;
#385 = CARTESIAN_POINT ( 'NONE',  ( 0.000000000000000000, 0.000000000000000000, 0.000000000000000000 ) ) ;
#386 = CC_DESIGN_PERSON_AND_ORGANIZATION_ASSIGNMENT ( #189, #338, ( #179 ) ) ;
#387 = CC_DESIGN_APPROVAL ( #349, ( #53 ) ) ;
#388 = NEXT_ASSEMBLY_USAGE_OCCURRENCE ( 'NAUO113', ' ', ' ', #157, #3, $ ) ;
#389 = NEXT_ASSEMBLY_USAGE_OCCURRENCE ( 'NAUO114', ' ', ' ', #157, #238, $ ) ;
#390 = NEXT_ASSEMBLY_USAGE_OCCURRENCE ( 'NAUO115', ' ', ' ', #157, #3, $ ) ;
ENDSEC;
END-ISO-10303-21;
