ISO-10303-21;
HEADER;
FILE_DESCRIPTION (( 'STEP AP203' ),
    '1' );
FILE_NAME ('R24.step.STEP',
    '2026-06-22T08:49:56',
    ( 'localuser' ),
    ( '' ),
    'SwSTEP 2.0',
    'SolidWorks 2025',
    '' );
FILE_SCHEMA (( 'CONFIG_CONTROL_DESIGN' ));
ENDSEC;

DATA;
#1 = DATE_AND_TIME ( #356, #188 ) ;
#2 = CC_DESIGN_PERSON_AND_ORGANIZATION_ASSIGNMENT ( #32, #242, ( #17 ) ) ;
#3 = UNCERTAINTY_MEASURE_WITH_UNIT (LENGTH_MEASURE( 1.000000000000000082E-05 ), #370, 'distance_accuracy_value', 'NONE');
#4 = COORDINATED_UNIVERSAL_TIME_OFFSET ( 10, 0, .AHEAD. ) ;
#5 = CALENDAR_DATE ( 2026, 22, 6 ) ;
#6 = APPROVAL_PERSON_ORGANIZATION ( #32, #13, #299 ) ;
#7 = SECURITY_CLASSIFICATION_LEVEL ( 'unclassified' ) ;
#8 = APPROVAL_STATUS ( 'not_yet_approved' ) ;
#9 = DIRECTION ( 'NONE',  ( 0.000000000000000000, 0.000000000000000000, 1.000000000000000000 ) ) ;
#10 = PROPERTY_DEFINITION_REPRESENTATION ( #241, #38 ) ;
#11 = CARTESIAN_POINT ( 'NONE',  ( 6.405877166719001536, 6.000240600586001172, -2.058321952820000078 ) ) ;
#12 = ROLE_ASSOCIATION ( #366, #359 ) ;
#13 = APPROVAL ( #178, 'UNKNOWN' ) ;
#14 = APPROVAL_STATUS ( 'not_yet_approved' ) ;
#15 = DIRECTION ( 'NONE',  ( 1.000000000000000000, 0.000000000000000000, 0.000000000000000000 ) ) ;
#16 = CC_DESIGN_PERSON_AND_ORGANIZATION_ASSIGNMENT ( #339, #189, ( #250 ) ) ;
#17 = SECURITY_CLASSIFICATION ( '', '', #130 ) ;
#18 = DOCUMENT_TYPE ( 'geometry' ) ;
#19 = APPROVAL_ROLE ( '' ) ;
#20 = PERSON_AND_ORGANIZATION ( #18446744073709551615, #18446744073709551615 ) ;
#21 = SHAPE_DEFINITION_REPRESENTATION ( #342, #211 ) ;
#22 = PERSON_AND_ORGANIZATION_ROLE ( 'creator' ) ;
#23 = CC_DESIGN_APPROVAL ( #174, ( #333 ) ) ;
#24 = APPLICATION_PROTOCOL_DEFINITION ( 'international standard', 'config_control_design', 1994, #119 ) ;
#25 = PERSON_AND_ORGANIZATION ( #18446744073709551615, #18446744073709551615 ) ;
#26 = APPROVAL ( #352, 'Coincident' ) ;
#27 = APPLICATION_PROTOCOL_DEFINITION ( 'international standard', 'config_control_design', 1994, #140 ) ;
#28 = APPROVAL_PERSON_ORGANIZATION ( #116, #379, #298 ) ;
#29 = LOCAL_TIME ( 18, 49, 56.00000000000000000, #135 ) ;
#30 = CC_DESIGN_APPROVAL ( #149, ( #118 ) ) ;
#31 = DATE_AND_TIME ( #318, #252 ) ;
#32 = PERSON_AND_ORGANIZATION ( #159, #217 ) ;
#33 = PRODUCT_RELATED_PRODUCT_CATEGORY ( 'detail', '', ( #190 ) ) ;
#34 = ITEM_DEFINED_TRANSFORMATION ( 'NONE', 'NONE', #216,  #123 ) ;
#35 = LOCAL_TIME ( 18, 49, 56.00000000000000000, #385 ) ;
#36 = PERSON_AND_ORGANIZATION_ROLE ( 'classification_officer' ) ;
#37 =( NAMED_UNIT ( * ) SI_UNIT ( $, .STERADIAN. ) SOLID_ANGLE_UNIT ( ) );
#38 = SHAPE_REPRESENTATION ( '6534431024.step', ( #332 ), #169 ) ;
#39 = APPLICATION_CONTEXT ( 'configuration controlled 3d designs of mechanical parts and assemblies' ) ;
#40 = PERSON_AND_ORGANIZATION_ROLE ( 'classification_officer' ) ;
#41 = CC_DESIGN_DATE_AND_TIME_ASSIGNMENT ( #99, #364, ( #231 ) ) ;
#42 = CALENDAR_DATE ( 2026, 22, 6 ) ;
#43 =( NAMED_UNIT ( * ) PLANE_ANGLE_UNIT ( ) SI_UNIT ( $, .RADIAN. ) );
#44 = APPROVAL_PERSON_ORGANIZATION ( #229, #85, #171 ) ;
#45 = CC_DESIGN_APPROVAL ( #192, ( #112 ) ) ;
#46 = DATE_AND_TIME ( #193, #29 ) ;
#47 = APPROVAL_DATE_TIME ( #347, #192 ) ;
#48 = CC_DESIGN_DATE_AND_TIME_ASSIGNMENT ( #232, #121, ( #333 ) ) ;
#49 = PROPERTY_DEFINITION ('external definition','', #184 ) ;
#50 = DATE_AND_TIME ( #162, #279 ) ;
#51 = PRODUCT ( 'R24.step', 'R24.step', '', ( #129 ) ) ;
#52 = APPLIED_EXTERNAL_IDENTIFICATION_ASSIGNMENT ( '6534431024.step.STEP' , #218, #196,( #382) ) ;
#53 = COORDINATED_UNIVERSAL_TIME_OFFSET ( 10, 0, .AHEAD. ) ;
#54 = PERSON_AND_ORGANIZATION ( #18446744073709551615, #18446744073709551615 ) ;
#55 = PERSON_AND_ORGANIZATION ( #18446744073709551615, #18446744073709551615 ) ;
#56 = APPROVAL_STATUS ( 'not_yet_approved' ) ;
#57 = LOCAL_TIME ( 18, 49, 56.00000000000000000, #126 ) ;
#58 = CALENDAR_DATE ( 2026, 22, 6 ) ;
#59 = CC_DESIGN_PERSON_AND_ORGANIZATION_ASSIGNMENT ( #263, #146, ( #190 ) ) ;
#60 = OBJECT_ROLE ('mandatory',$ ) ;
#61 = PERSON_AND_ORGANIZATION_ROLE ( 'creator' ) ;
#62 = DESIGN_CONTEXT ( 'detailed design', #39, 'design' ) ;
#63 = APPROVAL_DATE_TIME ( #266, #85 ) ;
#64 = PRODUCT_DEFINITION_FORMATION_WITH_SPECIFIED_SOURCE ( 'Symmetric', '', #51, .NOT_KNOWN. ) ;
#65 = PERSON_AND_ORGANIZATION ( #18446744073709551615, #18446744073709551615 ) ;
#66 = CC_DESIGN_PERSON_AND_ORGANIZATION_ASSIGNMENT ( #55, #91, ( #353 ) ) ;
#67 = SHAPE_DEFINITION_REPRESENTATION ( #164, #38 ) ;
#68 = APPROVAL_PERSON_ORGANIZATION ( #305, #288, #98 ) ;
#69 = PERSON_AND_ORGANIZATION ( #18446744073709551615, #18446744073709551615 ) ;
#70 =( NAMED_UNIT ( * ) SI_UNIT ( $, .STERADIAN. ) SOLID_ANGLE_UNIT ( ) );
#71 = CC_DESIGN_DATE_AND_TIME_ASSIGNMENT ( #219, #158, ( #17 ) ) ;
#72 = DATE_AND_TIME ( #362, #322 ) ;
#73 = CARTESIAN_POINT ( 'NONE',  ( 0.000000000000000000, 0.000000000000000000, 0.000000000000000000 ) ) ;
#74 = CC_DESIGN_APPROVAL ( #26, ( #137 ) ) ;
#75 = DATE_TIME_ROLE ( 'classification_date' ) ;
#76 = CC_DESIGN_PERSON_AND_ORGANIZATION_ASSIGNMENT ( #238, #183, ( #137 ) ) ;
#77 = APPROVAL_ROLE ( '' ) ;
#78 = COORDINATED_UNIVERSAL_TIME_OFFSET ( 10, 0, .AHEAD. ) ;
#79 = PERSON_AND_ORGANIZATION ( #210, #83 ) ;
#80 = SECURITY_CLASSIFICATION_LEVEL ( 'unclassified' ) ;
#81 = APPLICATION_CONTEXT ( 'configuration controlled 3d designs of mechanical parts and assemblies' ) ;
#82 = CC_DESIGN_APPROVAL ( #320, ( #212 ) ) ;
#83 = ORGANIZATION ( 'NAUO-ORG130', 'UNSPECIFIED', 'UNSPECIFIED' ) ;
#84 =( NAMED_UNIT ( * ) PLANE_ANGLE_UNIT ( ) SI_UNIT ( $, .RADIAN. ) );
#85 = APPROVAL ( #176, 'Coincident' ) ;
#86 = COORDINATED_UNIVERSAL_TIME_OFFSET ( 10, 0, .AHEAD. ) ;
#87 = PERSON_AND_ORGANIZATION_ROLE ( 'design_supplier' ) ;
#88 = APPROVAL_ROLE ( '' ) ;
#89 = CC_DESIGN_DATE_AND_TIME_ASSIGNMENT ( #287, #134, ( #112 ) ) ;
#90 = SECURITY_CLASSIFICATION ( '', '', #122 ) ;
#91 = PERSON_AND_ORGANIZATION_ROLE ( 'creator' ) ;
#92 = COORDINATED_UNIVERSAL_TIME_OFFSET ( 10, 0, .AHEAD. ) ;
#93 = APPROVAL_DATE_TIME ( #334, #288 ) ;
#94 = APPROVAL_PERSON_ORGANIZATION ( #114, #26, #88 ) ;
#95 = APPROVAL_STATUS ( 'not_yet_approved' ) ;
#96 = UNCERTAINTY_MEASURE_WITH_UNIT (LENGTH_MEASURE( 1.000000000000000082E-05 ), #185, 'distance_accuracy_value', 'NONE');
#97 = CARTESIAN_POINT ( 'NONE',  ( 6.405877166719001536, 6.500240600586002060, -2.058321952820000078 ) ) ;
#98 = APPROVAL_ROLE ( '' ) ;
#99 = DATE_AND_TIME ( #365, #102 ) ;
#100 = CC_DESIGN_PERSON_AND_ORGANIZATION_ASSIGNMENT ( #268, #61, ( #311 ) ) ;
#101 = APPLICATION_CONTEXT ( 'configuration controlled 3d designs of mechanical parts and assemblies' ) ;
#102 = LOCAL_TIME ( 18, 49, 56.00000000000000000, #128 ) ;
#103 = ROLE_ASSOCIATION ( #60, #369 ) ;
#104 = SHAPE_REPRESENTATION ( '6461079856.step', ( #123 ), #131 ) ;
#105 = APPLICATION_PROTOCOL_DEFINITION ( 'international standard', 'config_control_design', 1994, #81 ) ;
#106 = CC_DESIGN_APPROVAL ( #85, ( #315 ) ) ;
#107 = APPLIED_DOCUMENT_REFERENCE ( #184,'',( #315) ) ;
#108 = PRODUCT_DEFINITION_SHAPE ( 'NONE', 'NONE',  #388 ) ;
#109 = CALENDAR_DATE ( 2026, 22, 6 ) ;
#110 = COORDINATED_UNIVERSAL_TIME_OFFSET ( 10, 0, .AHEAD. ) ;
#111 = CC_DESIGN_PERSON_AND_ORGANIZATION_ASSIGNMENT ( #20, #251, ( #64 ) ) ;
#112 = SECURITY_CLASSIFICATION ( '', '', #80 ) ;
#113 = APPROVAL_STATUS ( 'not_yet_approved' ) ;
#114 = PERSON_AND_ORGANIZATION ( #18446744073709551615, #18446744073709551615 ) ;
#115 = CC_DESIGN_DATE_AND_TIME_ASSIGNMENT ( #186, #373, ( #212 ) ) ;
#116 = PERSON_AND_ORGANIZATION ( #18446744073709551615, #18446744073709551615 ) ;
#117 = PERSON_AND_ORGANIZATION_ROLE ( 'classification_officer' ) ;
#118 = SECURITY_CLASSIFICATION ( '', '', #372 ) ;
#119 = APPLICATION_CONTEXT ( 'configuration controlled 3d designs of mechanical parts and assemblies' ) ;
#120 = APPROVAL_ROLE ( '' ) ;
#121 = DATE_TIME_ROLE ( 'classification_date' ) ;
#122 = SECURITY_CLASSIFICATION_LEVEL ( 'unclassified' ) ;
#123 = AXIS2_PLACEMENT_3D ( 'NONE', #73, #157, #276 ) ;
#124 = CARTESIAN_POINT ( 'NONE',  ( 0.000000000000000000, 0.000000000000000000, 0.000000000000000000 ) ) ;
#125 = LOCAL_TIME ( 18, 49, 56.00000000000000000, #240 ) ;
#126 = COORDINATED_UNIVERSAL_TIME_OFFSET ( 10, 0, .AHEAD. ) ;
#127 = PRODUCT_RELATED_PRODUCT_CATEGORY ( 'detail', '', ( #250 ) ) ;
#128 = COORDINATED_UNIVERSAL_TIME_OFFSET ( 10, 0, .AHEAD. ) ;
#129 = MECHANICAL_CONTEXT ( 'NONE', #343, 'mechanical' ) ;
#130 = SECURITY_CLASSIFICATION_LEVEL ( 'unclassified' ) ;
#131 =( GEOMETRIC_REPRESENTATION_CONTEXT ( 3 ) GLOBAL_UNCERTAINTY_ASSIGNED_CONTEXT ( ( #96 ) ) GLOBAL_UNIT_ASSIGNED_CONTEXT ( ( #185, #43, #37 ) ) REPRESENTATION_CONTEXT ( 'NONE', 'WORKASPACE' ) );
#132 = APPROVAL_PERSON_ORGANIZATION ( #295, #174, #120 ) ;
#133 = PROPERTY_DEFINITION_REPRESENTATION ( #344, #104 ) ;
#134 = DATE_TIME_ROLE ( 'classification_date' ) ;
#135 = COORDINATED_UNIVERSAL_TIME_OFFSET ( 10, 0, .AHEAD. ) ;
#136 = PERSON_AND_ORGANIZATION_ROLE ( 'design_supplier' ) ;
#137 = PRODUCT_DEFINITION_FORMATION_WITH_SPECIFIED_SOURCE ( 'Symmetric', '', #190, .NOT_KNOWN. ) ;
#138 = APPROVAL_STATUS ( 'not_yet_approved' ) ;
#139 = APPROVAL_ROLE ( '' ) ;
#140 = APPLICATION_CONTEXT ( 'configuration controlled 3d designs of mechanical parts and assemblies' ) ;
#141 =( LENGTH_UNIT ( ) NAMED_UNIT ( * ) SI_UNIT ( .MILLI., .METRE. ) );
#142 = CC_DESIGN_APPROVAL ( #13, ( #17 ) ) ;
#143 = APPROVAL_DATE_TIME ( #1, #331 ) ;
#144 = APPROVAL_DATE_TIME ( #350, #174 ) ;
#145 = DATE_TIME_ROLE ( 'creation_date' ) ;
#146 = PERSON_AND_ORGANIZATION_ROLE ( 'design_owner' ) ;
#147 = CC_DESIGN_SECURITY_CLASSIFICATION ( #333, ( #353 ) ) ;
#148 = COORDINATED_UNIVERSAL_TIME_OFFSET ( 10, 0, .AHEAD. ) ;
#149 = APPROVAL ( #138, 'UNKNOWN' ) ;
#150 = CONTEXT_DEPENDENT_SHAPE_REPRESENTATION ( #156, #108 ) ;
#151 = COORDINATED_UNIVERSAL_TIME_OFFSET ( 10, 0, .AHEAD. ) ;
#152 = LOCAL_TIME ( 18, 49, 56.00000000000000000, #380 ) ;
#153 = LOCAL_TIME ( 18, 49, 56.00000000000000000, #271 ) ;
#154 = DATE_AND_TIME ( #209, #125 ) ;
#155 = PROPERTY_DEFINITION_REPRESENTATION ( #363, #38 ) ;
#156 =( REPRESENTATION_RELATIONSHIP ('NONE','NONE', #211, #38 ) REPRESENTATION_RELATIONSHIP_WITH_TRANSFORMATION ( #278 )SHAPE_REPRESENTATION_RELATIONSHIP( ) );
#157 = DIRECTION ( 'NONE',  ( 0.000000000000000000, 0.000000000000000000, 1.000000000000000000 ) ) ;
#158 = DATE_TIME_ROLE ( 'classification_date' ) ;
#159 = PERSON ( 'NAUO-PER128', 'UNSPECIFIED', 'UNSPECIFIED', ('UNSPECIFIED'), ('UNSPECIFIED'), ('UNSPECIFIED') ) ;
#160 =( NAMED_UNIT ( * ) SI_UNIT ( $, .STERADIAN. ) SOLID_ANGLE_UNIT ( ) );
#161 = CC_DESIGN_PERSON_AND_ORGANIZATION_ASSIGNMENT ( #65, #215, ( #137 ) ) ;
#162 = CALENDAR_DATE ( 2026, 22, 6 ) ;
#163 = PERSON_AND_ORGANIZATION_ROLE ( 'design_owner' ) ;
#164 = PRODUCT_DEFINITION_SHAPE ( 'NONE', 'NONE',  #311 ) ;
#165 = CC_DESIGN_APPROVAL ( #206, ( #90 ) ) ;
#166 = DATE_AND_TIME ( #167, #187 ) ;
#167 = CALENDAR_DATE ( 2026, 22, 6 ) ;
#168 = DATE_TIME_ROLE ( 'creation_date' ) ;
#169 =( GEOMETRIC_REPRESENTATION_CONTEXT ( 3 ) GLOBAL_UNCERTAINTY_ASSIGNED_CONTEXT ( ( #3 ) ) GLOBAL_UNIT_ASSIGNED_CONTEXT ( ( #370, #371, #70 ) ) REPRESENTATION_CONTEXT ( 'NONE', 'WORKASPACE' ) );
#170 = APPROVAL_PERSON_ORGANIZATION ( #177, #206, #213 ) ;
#171 = APPROVAL_ROLE ( '' ) ;
#172 = DATE_AND_TIME ( #58, #261 ) ;
#173 = PERSON_AND_ORGANIZATION ( #18446744073709551615, #18446744073709551615 ) ;
#174 = APPROVAL ( #56, 'Coincident' ) ;
#175 = CC_DESIGN_SECURITY_CLASSIFICATION ( #231, ( #389 ) ) ;
#176 = APPROVAL_STATUS ( 'not_yet_approved' ) ;
#177 = PERSON_AND_ORGANIZATION ( #18446744073709551615, #18446744073709551615 ) ;
#178 = APPROVAL_STATUS ( 'not_yet_approved' ) ;
#179 = APPLICATION_PROTOCOL_DEFINITION ( 'international standard', 'config_control_design', 1994, #343 ) ;
#180 = CC_DESIGN_PERSON_AND_ORGANIZATION_ASSIGNMENT ( #226, #136, ( #64 ) ) ;
#181 = DOCUMENT_FILE ( '6461079856.step.STEP' , '', '', #18, '' ,$ ) ;
#182 = LOCAL_TIME ( 18, 49, 56.00000000000000000, #151 ) ;
#183 = PERSON_AND_ORGANIZATION_ROLE ( 'creator' ) ;
#184 = DOCUMENT_FILE ( '6461079856.step.STEP' , '', '', #357, '' ,$ ) ;
#185 =( LENGTH_UNIT ( ) NAMED_UNIT ( * ) SI_UNIT ( .MILLI., .METRE. ) );
#186 = DATE_AND_TIME ( #109, #152 ) ;
#187 = LOCAL_TIME ( 18, 49, 56.00000000000000000, #78 ) ;
#188 = LOCAL_TIME ( 18, 49, 56.00000000000000000, #148 ) ;
#189 = PERSON_AND_ORGANIZATION_ROLE ( 'design_owner' ) ;
#190 = PRODUCT ( '6534431024.step', '6534431024.step', '', ( #205 ) ) ;
#191 = PERSON_AND_ORGANIZATION ( #18446744073709551615, #18446744073709551615 ) ;
#192 = APPROVAL ( #381, 'Coincident' ) ;
#193 = CALENDAR_DATE ( 2026, 22, 6 ) ;
#194 = PERSON_AND_ORGANIZATION ( #18446744073709551615, #18446744073709551615 ) ;
#195 =( REPRESENTATION_RELATIONSHIP ('NONE','NONE', #211, #104 ) REPRESENTATION_RELATIONSHIP_WITH_TRANSFORMATION ( #34 )SHAPE_REPRESENTATION_RELATIONSHIP( ) );
#196 = EXTERNAL_SOURCE (IDENTIFIER('') ) ;
#197 = LOCAL_TIME ( 18, 49, 56.00000000000000000, #340 ) ;
#198 = CC_DESIGN_SECURITY_CLASSIFICATION ( #118, ( #390 ) ) ;
#199 = DATE_AND_TIME ( #236, #237 ) ;
#200 = CC_DESIGN_PERSON_AND_ORGANIZATION_ASSIGNMENT ( #280, #163, ( #51 ) ) ;
#201 = COORDINATED_UNIVERSAL_TIME_OFFSET ( 10, 0, .AHEAD. ) ;
#202 = CC_DESIGN_APPROVAL ( #248, ( #64 ) ) ;
#203 = LOCAL_TIME ( 18, 49, 56.00000000000000000, #257 ) ;
#204 = CALENDAR_DATE ( 2026, 22, 6 ) ;
#205 = MECHANICAL_CONTEXT ( 'NONE', #140, 'mechanical' ) ;
#206 = APPROVAL ( #95, 'Coincident' ) ;
#207 = APPROVAL_STATUS ( 'not_yet_approved' ) ;
#208 = CC_DESIGN_SECURITY_CLASSIFICATION ( #112, ( #64 ) ) ;
#209 = CALENDAR_DATE ( 2026, 22, 6 ) ;
#210 = PERSON ( 'NAUO-PER130', 'UNSPECIFIED', 'UNSPECIFIED', ('UNSPECIFIED'), ('UNSPECIFIED'), ('UNSPECIFIED') ) ;
#211 = SHAPE_REPRESENTATION ( 'R24.step', ( #367, #374, #216, #360 ), #321 ) ;
#212 = PRODUCT_DEFINITION ( 'General', '', #64, #62 ) ;
#213 = APPROVAL_ROLE ( '' ) ;
#214 = DATE_TIME_ROLE ( 'classification_date' ) ;
#215 = PERSON_AND_ORGANIZATION_ROLE ( 'design_supplier' ) ;
#216 = AXIS2_PLACEMENT_3D ( 'NONE', #97, #330, #302 ) ;
#217 = ORGANIZATION ( 'NAUO-ORG128', 'UNSPECIFIED', 'UNSPECIFIED' ) ;
#218 = IDENTIFICATION_ROLE ( 'external document id and location', $) ;
#219 = DATE_AND_TIME ( #301, #153 ) ;
#220 = CC_DESIGN_DATE_AND_TIME_ASSIGNMENT ( #254, #75, ( #118 ) ) ;
#221 = CALENDAR_DATE ( 2026, 22, 6 ) ;
#222 = MECHANICAL_CONTEXT ( 'NONE', #81, 'mechanical' ) ;
#223 = CC_DESIGN_APPROVAL ( #288, ( #231 ) ) ;
#224 = DIRECTION ( 'NONE',  ( 0.000000000000000000, 0.000000000000000000, 1.000000000000000000 ) ) ;
#225 = PRODUCT_DEFINITION_SHAPE ( 'NONE', 'NONE',  #315 ) ;
#226 = PERSON_AND_ORGANIZATION ( #18446744073709551615, #18446744073709551615 ) ;
#227 = DIRECTION ( 'NONE',  ( 1.000000000000000222, -1.092455418989176591E-28, 4.890937612370273194E-29 ) ) ;
#228 = CC_DESIGN_DATE_AND_TIME_ASSIGNMENT ( #293, #145, ( #315 ) ) ;
#229 = PERSON_AND_ORGANIZATION ( #18446744073709551615, #18446744073709551615 ) ;
#230 = CALENDAR_DATE ( 2026, 22, 6 ) ;
#231 = SECURITY_CLASSIFICATION ( '', '', #7 ) ;
#232 = DATE_AND_TIME ( #204, #292 ) ;
#233 = CC_DESIGN_PERSON_AND_ORGANIZATION_ASSIGNMENT ( #25, #117, ( #333 ) ) ;
#234 = DOCUMENT_TYPE ( 'geometry' ) ;
#235 = APPROVAL_DATE_TIME ( #31, #379 ) ;
#236 = CALENDAR_DATE ( 2026, 22, 6 ) ;
#237 = LOCAL_TIME ( 18, 49, 56.00000000000000000, #4 ) ;
#238 = PERSON_AND_ORGANIZATION ( #18446744073709551615, #18446744073709551615 ) ;
#239 = DIRECTION ( 'NONE',  ( 1.000000000000000222, -1.092455418989176591E-28, 4.890937612370273194E-29 ) ) ;
#240 = COORDINATED_UNIVERSAL_TIME_OFFSET ( 10, 0, .AHEAD. ) ;
#241 = PROPERTY_DEFINITION ('external definition','', #382 ) ;
#242 = PERSON_AND_ORGANIZATION_ROLE ( 'classification_officer' ) ;
#243 = LOCAL_TIME ( 18, 49, 56.00000000000000000, #92 ) ;
#244 = CARTESIAN_POINT ( 'NONE',  ( 0.000000000000000000, 0.000000000000000000, 0.000000000000000000 ) ) ;
#245 = CC_DESIGN_PERSON_AND_ORGANIZATION_ASSIGNMENT ( #191, #345, ( #112 ) ) ;
#246 = DIRECTION ( 'NONE',  ( 4.890937612370273194E-29, -3.155443620884047222E-30, 0.9999999999999997780 ) ) ;
#247 = CALENDAR_DATE ( 2026, 22, 6 ) ;
#248 = APPROVAL ( #14, 'Coincident' ) ;
#249 = PROPERTY_DEFINITION_REPRESENTATION ( #253, #104 ) ;
#250 = PRODUCT ( '6461079856.step', '6461079856.step', '', ( #222 ) ) ;
#251 = PERSON_AND_ORGANIZATION_ROLE ( 'creator' ) ;
#252 = LOCAL_TIME ( 18, 49, 56.00000000000000000, #201 ) ;
#253 = PROPERTY_DEFINITION ('document property','', #184 ) ;
#254 = DATE_AND_TIME ( #221, #197 ) ;
#255 = PERSON_AND_ORGANIZATION ( #18446744073709551615, #18446744073709551615 ) ;
#256 = CONTEXT_DEPENDENT_SHAPE_REPRESENTATION ( #277, #286 ) ;
#257 = COORDINATED_UNIVERSAL_TIME_OFFSET ( 10, 0, .AHEAD. ) ;
#258 = IDENTIFICATION_ROLE ( 'external document id and location', $) ;
#259 = CC_DESIGN_PERSON_AND_ORGANIZATION_ASSIGNMENT ( #79, #378, ( #118 ) ) ;
#260 = APPROVAL_PERSON_ORGANIZATION ( #54, #248, #77 ) ;
#261 = LOCAL_TIME ( 18, 49, 56.00000000000000000, #323 ) ;
#262 = CALENDAR_DATE ( 2026, 22, 6 ) ;
#263 = PERSON_AND_ORGANIZATION ( #18446744073709551615, #18446744073709551615 ) ;
#264 = CC_DESIGN_PERSON_AND_ORGANIZATION_ASSIGNMENT ( #324, #87, ( #353 ) ) ;
#265 = SECURITY_CLASSIFICATION_LEVEL ( 'unclassified' ) ;
#266 = DATE_AND_TIME ( #230, #35 ) ;
#267 = APPROVAL_STATUS ( 'not_yet_approved' ) ;
#268 = PERSON_AND_ORGANIZATION ( #18446744073709551615, #18446744073709551615 ) ;
#269 = APPROVAL_PERSON_ORGANIZATION ( #194, #320, #139 ) ;
#270 = APPLIED_EXTERNAL_IDENTIFICATION_ASSIGNMENT ( '6461079856.step.STEP' , #258, #316,( #181) ) ;
#271 = COORDINATED_UNIVERSAL_TIME_OFFSET ( 10, 0, .AHEAD. ) ;
#272 = DIRECTION ( 'NONE',  ( 1.000000000000000000, 0.000000000000000000, 0.000000000000000000 ) ) ;
#273 = DATE_AND_TIME ( #42, #182 ) ;
#274 = CC_DESIGN_DATE_AND_TIME_ASSIGNMENT ( #154, #214, ( #90 ) ) ;
#275 = CONTEXT_DEPENDENT_SHAPE_REPRESENTATION ( #195, #312 ) ;
#276 = DIRECTION ( 'NONE',  ( 1.000000000000000000, 0.000000000000000000, 0.000000000000000000 ) ) ;
#277 =( REPRESENTATION_RELATIONSHIP ('NONE','NONE', #211, #104 ) REPRESENTATION_RELATIONSHIP_WITH_TRANSFORMATION ( #327 )SHAPE_REPRESENTATION_RELATIONSHIP( ) );
#278 = ITEM_DEFINED_TRANSFORMATION ( 'NONE', 'NONE', #374,  #332 ) ;
#279 = LOCAL_TIME ( 18, 49, 56.00000000000000000, #53 ) ;
#280 = PERSON_AND_ORGANIZATION ( #18446744073709551615, #18446744073709551615 ) ;
#281 = APPLICATION_PROTOCOL_DEFINITION ( 'international standard', 'config_control_design', 1994, #39 ) ;
#282 = PRODUCT_RELATED_PRODUCT_CATEGORY ( 'detail', '', ( #51 ) ) ;
#283 = ROLE_ASSOCIATION ( #291, #107 ) ;
#284 = CARTESIAN_POINT ( 'NONE',  ( 6.405877166719000648, 5.500240600586004724, -2.058321952820000078 ) ) ;
#285 = CALENDAR_DATE ( 2026, 22, 6 ) ;
#286 = PRODUCT_DEFINITION_SHAPE ( 'NONE', 'NONE',  #390 ) ;
#287 = DATE_AND_TIME ( #313, #203 ) ;
#288 = APPROVAL ( #8, 'UNKNOWN' ) ;
#289 = APPROVAL_ROLE ( '' ) ;
#290 = APPROVAL_ROLE ( '' ) ;
#291 = OBJECT_ROLE ('mandatory',$ ) ;
#292 = LOCAL_TIME ( 18, 49, 56.00000000000000000, #86 ) ;
#293 = DATE_AND_TIME ( #285, #361 ) ;
#294 = APPROVAL_DATE_TIME ( #172, #26 ) ;
#295 = PERSON_AND_ORGANIZATION ( #18446744073709551615, #18446744073709551615 ) ;
#296 = EXTERNAL_SOURCE (IDENTIFIER('') ) ;
#297 = APPROVAL_PERSON_ORGANIZATION ( #79, #149, #19 ) ;
#298 = APPROVAL_ROLE ( '' ) ;
#299 = APPROVAL_ROLE ( '' ) ;
#300 = CC_DESIGN_PERSON_AND_ORGANIZATION_ASSIGNMENT ( #173, #22, ( #315 ) ) ;
#301 = CALENDAR_DATE ( 2026, 22, 6 ) ;
#302 = DIRECTION ( 'NONE',  ( 1.000000000000000222, -1.092455418989176591E-28, 4.890937612370273194E-29 ) ) ;
#303 = LOCAL_TIME ( 18, 49, 56.00000000000000000, #110 ) ;
#304 = APPROVAL_DATE_TIME ( #72, #13 ) ;
#305 = PERSON_AND_ORGANIZATION ( #384, #314 ) ;
#306 = PROPERTY_DEFINITION_REPRESENTATION ( #377, #104 ) ;
#307 = CC_DESIGN_SECURITY_CLASSIFICATION ( #90, ( #137 ) ) ;
#308 = APPROVAL_DATE_TIME ( #166, #248 ) ;
#309 = PROPERTY_DEFINITION_REPRESENTATION ( #49, #104 ) ;
#310 = APPLICATION_PROTOCOL_DEFINITION ( 'international standard', 'config_control_design', 1994, #101 ) ;
#311 = PRODUCT_DEFINITION ( 'General', '', #137, #351 ) ;
#312 = PRODUCT_DEFINITION_SHAPE ( 'NONE', 'NONE',  #389 ) ;
#313 = CALENDAR_DATE ( 2026, 22, 6 ) ;
#314 = ORGANIZATION ( 'NAUO-ORG129', 'UNSPECIFIED', 'UNSPECIFIED' ) ;
#315 = PRODUCT_DEFINITION ( 'General', '', #353, #329 ) ;
#316 = EXTERNAL_SOURCE (IDENTIFIER('') ) ;
#317 = DIRECTION ( 'NONE',  ( 4.890937612370273194E-29, -3.155443620884047222E-30, 0.9999999999999997780 ) ) ;
#318 = CALENDAR_DATE ( 2026, 22, 6 ) ;
#319 = COORDINATED_UNIVERSAL_TIME_OFFSET ( 10, 0, .AHEAD. ) ;
#320 = APPROVAL ( #113, 'Coincident' ) ;
#321 =( GEOMETRIC_REPRESENTATION_CONTEXT ( 3 ) GLOBAL_UNCERTAINTY_ASSIGNED_CONTEXT ( ( #355 ) ) GLOBAL_UNIT_ASSIGNED_CONTEXT ( ( #141, #84, #160 ) ) REPRESENTATION_CONTEXT ( 'NONE', 'WORKASPACE' ) );
#322 = LOCAL_TIME ( 18, 49, 56.00000000000000000, #335 ) ;
#323 = COORDINATED_UNIVERSAL_TIME_OFFSET ( 10, 0, .AHEAD. ) ;
#324 = PERSON_AND_ORGANIZATION ( #18446744073709551615, #18446744073709551615 ) ;
#325 = PERSON_AND_ORGANIZATION ( #18446744073709551615, #18446744073709551615 ) ;
#326 = CC_DESIGN_PERSON_AND_ORGANIZATION_ASSIGNMENT ( #69, #36, ( #90 ) ) ;
#327 = ITEM_DEFINED_TRANSFORMATION ( 'NONE', 'NONE', #360,  #123 ) ;
#328 = APPROVAL_DATE_TIME ( #273, #206 ) ;
#329 = DESIGN_CONTEXT ( 'detailed design', #101, 'design' ) ;
#330 = DIRECTION ( 'NONE',  ( 4.890937612370273194E-29, -3.155443620884047222E-30, 0.9999999999999997780 ) ) ;
#331 = APPROVAL ( #267, 'Coincident' ) ;
#332 = AXIS2_PLACEMENT_3D ( 'NONE', #244, #9, #272 ) ;
#333 = SECURITY_CLASSIFICATION ( '', '', #265 ) ;
#334 = DATE_AND_TIME ( #5, #57 ) ;
#335 = COORDINATED_UNIVERSAL_TIME_OFFSET ( 10, 0, .AHEAD. ) ;
#336 = IDENTIFICATION_ROLE ( 'external document id and location', $) ;
#337 = APPROVAL_DATE_TIME ( #46, #149 ) ;
#338 = APPROVAL_PERSON_ORGANIZATION ( #325, #331, #290 ) ;
#339 = PERSON_AND_ORGANIZATION ( #18446744073709551615, #18446744073709551615 ) ;
#340 = COORDINATED_UNIVERSAL_TIME_OFFSET ( 10, 0, .AHEAD. ) ;
#341 = PERSON_AND_ORGANIZATION_ROLE ( 'creator' ) ;
#342 = PRODUCT_DEFINITION_SHAPE ( 'NONE', 'NONE',  #212 ) ;
#343 = APPLICATION_CONTEXT ( 'configuration controlled 3d designs of mechanical parts and assemblies' ) ;
#344 = PROPERTY_DEFINITION ('document property','', #181 ) ;
#345 = PERSON_AND_ORGANIZATION_ROLE ( 'classification_officer' ) ;
#346 = CC_DESIGN_PERSON_AND_ORGANIZATION_ASSIGNMENT ( #255, #341, ( #212 ) ) ;
#347 = DATE_AND_TIME ( #247, #303 ) ;
#348 = APPLIED_EXTERNAL_IDENTIFICATION_ASSIGNMENT ( '6461079856.step.STEP' , #336, #296,( #184) ) ;
#349 = APPROVAL_DATE_TIME ( #50, #320 ) ;
#350 = DATE_AND_TIME ( #262, #243 ) ;
#351 = DESIGN_CONTEXT ( 'detailed design', #119, 'design' ) ;
#352 = APPROVAL_STATUS ( 'not_yet_approved' ) ;
#353 = PRODUCT_DEFINITION_FORMATION_WITH_SPECIFIED_SOURCE ( 'Symmetric', '', #250, .NOT_KNOWN. ) ;
#354 = SHAPE_DEFINITION_REPRESENTATION ( #225, #104 ) ;
#355 = UNCERTAINTY_MEASURE_WITH_UNIT (LENGTH_MEASURE( 1.000000000000000082E-05 ), #141, 'distance_accuracy_value', 'NONE');
#356 = CALENDAR_DATE ( 2026, 22, 6 ) ;
#357 = DOCUMENT_TYPE ( 'geometry' ) ;
#358 = CC_DESIGN_PERSON_AND_ORGANIZATION_ASSIGNMENT ( #305, #40, ( #231 ) ) ;
#359 = APPLIED_DOCUMENT_REFERENCE ( #382,'',( #311) ) ;
#360 = AXIS2_PLACEMENT_3D ( 'NONE', #284, #317, #227 ) ;
#361 = LOCAL_TIME ( 18, 49, 56.00000000000000000, #319 ) ;
#362 = CALENDAR_DATE ( 2026, 22, 6 ) ;
#363 = PROPERTY_DEFINITION ('document property','', #382 ) ;
#364 = DATE_TIME_ROLE ( 'classification_date' ) ;
#365 = CALENDAR_DATE ( 2026, 22, 6 ) ;
#366 = OBJECT_ROLE ('mandatory',$ ) ;
#367 = AXIS2_PLACEMENT_3D ( 'NONE', #124, #224, #15 ) ;
#368 = CC_DESIGN_SECURITY_CLASSIFICATION ( #17, ( #388 ) ) ;
#369 = APPLIED_DOCUMENT_REFERENCE ( #181,'',( #315) ) ;
#370 =( LENGTH_UNIT ( ) NAMED_UNIT ( * ) SI_UNIT ( .MILLI., .METRE. ) );
#371 =( NAMED_UNIT ( * ) PLANE_ANGLE_UNIT ( ) SI_UNIT ( $, .RADIAN. ) );
#372 = SECURITY_CLASSIFICATION_LEVEL ( 'unclassified' ) ;
#373 = DATE_TIME_ROLE ( 'creation_date' ) ;
#374 = AXIS2_PLACEMENT_3D ( 'NONE', #11, #246, #239 ) ;
#375 = CC_DESIGN_APPROVAL ( #379, ( #311 ) ) ;
#376 = PERSON_AND_ORGANIZATION ( #18446744073709551615, #18446744073709551615 ) ;
#377 = PROPERTY_DEFINITION ('external definition','', #181 ) ;
#378 = PERSON_AND_ORGANIZATION_ROLE ( 'classification_officer' ) ;
#379 = APPROVAL ( #207, 'Coincident' ) ;
#380 = COORDINATED_UNIVERSAL_TIME_OFFSET ( 10, 0, .AHEAD. ) ;
#381 = APPROVAL_STATUS ( 'not_yet_approved' ) ;
#382 = DOCUMENT_FILE ( '6534431024.step.STEP' , '', '', #234, '' ,$ ) ;
#383 = CC_DESIGN_APPROVAL ( #331, ( #353 ) ) ;
#384 = PERSON ( 'NAUO-PER129', 'UNSPECIFIED', 'UNSPECIFIED', ('UNSPECIFIED'), ('UNSPECIFIED'), ('UNSPECIFIED') ) ;
#385 = COORDINATED_UNIVERSAL_TIME_OFFSET ( 10, 0, .AHEAD. ) ;
#386 = CC_DESIGN_DATE_AND_TIME_ASSIGNMENT ( #199, #168, ( #311 ) ) ;
#387 = APPROVAL_PERSON_ORGANIZATION ( #376, #192, #289 ) ;
#388 = NEXT_ASSEMBLY_USAGE_OCCURRENCE ( 'NAUO128', ' ', ' ', #212, #311, $ ) ;
#389 = NEXT_ASSEMBLY_USAGE_OCCURRENCE ( 'NAUO129', ' ', ' ', #212, #315, $ ) ;
#390 = NEXT_ASSEMBLY_USAGE_OCCURRENCE ( 'NAUO130', ' ', ' ', #212, #315, $ ) ;
ENDSEC;
END-ISO-10303-21;
