ISO-10303-21;
HEADER;
FILE_DESCRIPTION (( 'STEP AP203' ),
    '1' );
FILE_NAME ('R25.step.STEP',
    '2026-06-22T08:49:54',
    ( 'localuser' ),
    ( '' ),
    'SwSTEP 2.0',
    'SolidWorks 2025',
    '' );
FILE_SCHEMA (( 'CONFIG_CONTROL_DESIGN' ));
ENDSEC;

DATA;
#1 = DOCUMENT_FILE ( '6461082896.step.STEP' , '', '', #186, '' ,$ ) ;
#2 = PROPERTY_DEFINITION_REPRESENTATION ( #379, #77 ) ;
#3 = ITEM_DEFINED_TRANSFORMATION ( 'NONE', 'NONE', #193,  #10 ) ;
#4 = COORDINATED_UNIVERSAL_TIME_OFFSET ( 10, 0, .AHEAD. ) ;
#5 = LOCAL_TIME ( 18, 49, 54.00000000000000000, #91 ) ;
#6 = CALENDAR_DATE ( 2026, 22, 6 ) ;
#7 = APPROVAL_ROLE ( '' ) ;
#8 = APPROVAL_STATUS ( 'not_yet_approved' ) ;
#9 = APPROVAL_ROLE ( '' ) ;
#10 = AXIS2_PLACEMENT_3D ( 'NONE', #358, #292, #92 ) ;
#11 = LOCAL_TIME ( 18, 49, 54.00000000000000000, #127 ) ;
#12 = PROPERTY_DEFINITION ('external definition','', #360 ) ;
#13 = PERSON_AND_ORGANIZATION ( #18446744073709551615, #18446744073709551615 ) ;
#14 = LOCAL_TIME ( 18, 49, 54.00000000000000000, #231 ) ;
#15 = APPLICATION_CONTEXT ( 'configuration controlled 3d designs of mechanical parts and assemblies' ) ;
#16 = PERSON_AND_ORGANIZATION ( #18446744073709551615, #18446744073709551615 ) ;
#17 = PERSON_AND_ORGANIZATION_ROLE ( 'design_supplier' ) ;
#18 = DATE_TIME_ROLE ( 'classification_date' ) ;
#19 = IDENTIFICATION_ROLE ( 'external document id and location', $) ;
#20 = APPROVAL ( #326, 'Coincident' ) ;
#21 = CC_DESIGN_SECURITY_CLASSIFICATION ( #272, ( #300 ) ) ;
#22 =( NAMED_UNIT ( * ) PLANE_ANGLE_UNIT ( ) SI_UNIT ( $, .RADIAN. ) );
#23 = APPROVAL_DATE_TIME ( #259, #20 ) ;
#24 = PERSON ( 'NAUO-PER77', 'UNSPECIFIED', 'UNSPECIFIED', ('UNSPECIFIED'), ('UNSPECIFIED'), ('UNSPECIFIED') ) ;
#25 = APPROVAL_ROLE ( '' ) ;
#26 = PROPERTY_DEFINITION_REPRESENTATION ( #371, #305 ) ;
#27 = LOCAL_TIME ( 18, 49, 54.00000000000000000, #49 ) ;
#28 = ROLE_ASSOCIATION ( #261, #295 ) ;
#29 = CARTESIAN_POINT ( 'NONE',  ( 0.000000000000000000, 0.000000000000000000, 0.000000000000000000 ) ) ;
#30 = APPROVAL_STATUS ( 'not_yet_approved' ) ;
#31 = APPROVAL_STATUS ( 'not_yet_approved' ) ;
#32 = COORDINATED_UNIVERSAL_TIME_OFFSET ( 10, 0, .AHEAD. ) ;
#33 = PRODUCT_DEFINITION ( 'General', '', #325, #383 ) ;
#34 = APPROVAL_DATE_TIME ( #307, #136 ) ;
#35 = CC_DESIGN_SECURITY_CLASSIFICATION ( #224, ( #325 ) ) ;
#36 = PROPERTY_DEFINITION_REPRESENTATION ( #225, #305 ) ;
#37 = MECHANICAL_CONTEXT ( 'NONE', #58, 'mechanical' ) ;
#38 = CC_DESIGN_DATE_AND_TIME_ASSIGNMENT ( #237, #242, ( #359 ) ) ;
#39 =( REPRESENTATION_RELATIONSHIP ('NONE','NONE', #98, #305 ) REPRESENTATION_RELATIONSHIP_WITH_TRANSFORMATION ( #227 )SHAPE_REPRESENTATION_RELATIONSHIP( ) );
#40 = DATE_AND_TIME ( #212, #11 ) ;
#41 = APPROVAL ( #344, 'Coincident' ) ;
#42 = DATE_AND_TIME ( #340, #80 ) ;
#43 = ORGANIZATION ( 'NAUO-ORG77', 'UNSPECIFIED', 'UNSPECIFIED' ) ;
#44 =( REPRESENTATION_RELATIONSHIP ('NONE','NONE', #98, #305 ) REPRESENTATION_RELATIONSHIP_WITH_TRANSFORMATION ( #327 )SHAPE_REPRESENTATION_RELATIONSHIP( ) );
#45 = CC_DESIGN_DATE_AND_TIME_ASSIGNMENT ( #104, #280, ( #115 ) ) ;
#46 = PRODUCT_DEFINITION_SHAPE ( 'NONE', 'NONE',  #388 ) ;
#47 = CALENDAR_DATE ( 2026, 22, 6 ) ;
#48 = LOCAL_TIME ( 18, 49, 54.00000000000000000, #32 ) ;
#49 = COORDINATED_UNIVERSAL_TIME_OFFSET ( 10, 0, .AHEAD. ) ;
#50 = EXTERNAL_SOURCE (IDENTIFIER('') ) ;
#51 = PERSON_AND_ORGANIZATION_ROLE ( 'creator' ) ;
#52 =( NAMED_UNIT ( * ) SI_UNIT ( $, .STERADIAN. ) SOLID_ANGLE_UNIT ( ) );
#53 = SECURITY_CLASSIFICATION_LEVEL ( 'unclassified' ) ;
#54 = CC_DESIGN_DATE_AND_TIME_ASSIGNMENT ( #362, #239, ( #206 ) ) ;
#55 = APPROVAL_PERSON_ORGANIZATION ( #111, #330, #348 ) ;
#56 = PERSON_AND_ORGANIZATION_ROLE ( 'design_owner' ) ;
#57 = PERSON_AND_ORGANIZATION ( #18446744073709551615, #18446744073709551615 ) ;
#58 = APPLICATION_CONTEXT ( 'configuration controlled 3d designs of mechanical parts and assemblies' ) ;
#59 = APPROVAL_STATUS ( 'not_yet_approved' ) ;
#60 = APPLIED_DOCUMENT_REFERENCE ( #246,'',( #263) ) ;
#61 = AXIS2_PLACEMENT_3D ( 'NONE', #210, #354, #235 ) ;
#62 = ORGANIZATION ( 'NAUO-ORG76', 'UNSPECIFIED', 'UNSPECIFIED' ) ;
#63 = CALENDAR_DATE ( 2026, 22, 6 ) ;
#64 = CALENDAR_DATE ( 2026, 22, 6 ) ;
#65 = APPROVAL ( #138, 'Coincident' ) ;
#66 = APPROVAL_DATE_TIME ( #40, #41 ) ;
#67 = PROPERTY_DEFINITION_REPRESENTATION ( #258, #305 ) ;
#68 = PERSON_AND_ORGANIZATION ( #18446744073709551615, #18446744073709551615 ) ;
#69 = CC_DESIGN_SECURITY_CLASSIFICATION ( #351, ( #390 ) ) ;
#70 = DATE_AND_TIME ( #106, #282 ) ;
#71 = CC_DESIGN_PERSON_AND_ORGANIZATION_ASSIGNMENT ( #57, #177, ( #346 ) ) ;
#72 = PERSON_AND_ORGANIZATION_ROLE ( 'creator' ) ;
#73 = CC_DESIGN_SECURITY_CLASSIFICATION ( #359, ( #389 ) ) ;
#74 = PRODUCT_DEFINITION_SHAPE ( 'NONE', 'NONE',  #390 ) ;
#75 = DATE_AND_TIME ( #381, #14 ) ;
#76 = IDENTIFICATION_ROLE ( 'external document id and location', $) ;
#77 = SHAPE_REPRESENTATION ( '6461083056.step', ( #10 ), #94 ) ;
#78 = LOCAL_TIME ( 18, 49, 54.00000000000000000, #374 ) ;
#79 = SECURITY_CLASSIFICATION_LEVEL ( 'unclassified' ) ;
#80 = LOCAL_TIME ( 18, 49, 54.00000000000000000, #4 ) ;
#81 = CC_DESIGN_PERSON_AND_ORGANIZATION_ASSIGNMENT ( #196, #56, ( #166 ) ) ;
#82 = DATE_AND_TIME ( #205, #313 ) ;
#83 = APPLICATION_CONTEXT ( 'configuration controlled 3d designs of mechanical parts and assemblies' ) ;
#84 = APPLICATION_PROTOCOL_DEFINITION ( 'international standard', 'config_control_design', 1994, #192 ) ;
#85 =( NAMED_UNIT ( * ) PLANE_ANGLE_UNIT ( ) SI_UNIT ( $, .RADIAN. ) );
#86 = DATE_AND_TIME ( #323, #27 ) ;
#87 = LOCAL_TIME ( 18, 49, 54.00000000000000000, #273 ) ;
#88 = CARTESIAN_POINT ( 'NONE',  ( 0.000000000000000000, 0.000000000000000000, 0.000000000000000000 ) ) ;
#89 = PROPERTY_DEFINITION_REPRESENTATION ( #248, #305 ) ;
#90 = DIRECTION ( 'NONE',  ( 0.000000000000000000, 0.000000000000000000, 1.000000000000000000 ) ) ;
#91 = COORDINATED_UNIVERSAL_TIME_OFFSET ( 10, 0, .AHEAD. ) ;
#92 = DIRECTION ( 'NONE',  ( 1.000000000000000000, 0.000000000000000000, 0.000000000000000000 ) ) ;
#93 = SECURITY_CLASSIFICATION_LEVEL ( 'unclassified' ) ;
#94 =( GEOMETRIC_REPRESENTATION_CONTEXT ( 3 ) GLOBAL_UNCERTAINTY_ASSIGNED_CONTEXT ( ( #356 ) ) GLOBAL_UNIT_ASSIGNED_CONTEXT ( ( #201, #22, #322 ) ) REPRESENTATION_CONTEXT ( 'NONE', 'WORKASPACE' ) );
#95 = DATE_AND_TIME ( #284, #96 ) ;
#96 = LOCAL_TIME ( 18, 49, 54.00000000000000000, #304 ) ;
#97 = CC_DESIGN_PERSON_AND_ORGANIZATION_ASSIGNMENT ( #16, #139, ( #263 ) ) ;
#98 = SHAPE_REPRESENTATION ( 'R25.step', ( #197, #366, #193, #61 ), #149 ) ;
#99 = CALENDAR_DATE ( 2026, 22, 6 ) ;
#100 = PERSON_AND_ORGANIZATION ( #18446744073709551615, #18446744073709551615 ) ;
#101 = APPROVAL ( #59, 'UNKNOWN' ) ;
#102 = APPROVAL_DATE_TIME ( #209, #101 ) ;
#103 = APPROVAL_ROLE ( '' ) ;
#104 = DATE_AND_TIME ( #157, #283 ) ;
#105 = CC_DESIGN_APPROVAL ( #41, ( #325 ) ) ;
#106 = CALENDAR_DATE ( 2026, 22, 6 ) ;
#107 = EXTERNAL_SOURCE (IDENTIFIER('') ) ;
#108 = CC_DESIGN_PERSON_AND_ORGANIZATION_ASSIGNMENT ( #290, #169, ( #325 ) ) ;
#109 = CC_DESIGN_APPROVAL ( #319, ( #33 ) ) ;
#110 = APPROVAL ( #30, 'UNKNOWN' ) ;
#111 = PERSON_AND_ORGANIZATION ( #18446744073709551615, #18446744073709551615 ) ;
#112 = PRODUCT_DEFINITION_SHAPE ( 'NONE', 'NONE',  #263 ) ;
#113 = COORDINATED_UNIVERSAL_TIME_OFFSET ( 10, 0, .AHEAD. ) ;
#114 = APPROVAL ( #31, 'Coincident' ) ;
#115 = SECURITY_CLASSIFICATION ( '', '', #334 ) ;
#116 = COORDINATED_UNIVERSAL_TIME_OFFSET ( 10, 0, .AHEAD. ) ;
#117 = APPROVAL_PERSON_ORGANIZATION ( #276, #110, #364 ) ;
#118 = APPROVAL_ROLE ( '' ) ;
#119 = DIRECTION ( 'NONE',  ( 1.000000000000000222, -1.092455418989176591E-28, 4.890937612370273194E-29 ) ) ;
#120 = DATE_AND_TIME ( #267, #211 ) ;
#121 = DATE_AND_TIME ( #306, #122 ) ;
#122 = LOCAL_TIME ( 18, 49, 54.00000000000000000, #302 ) ;
#123 = CALENDAR_DATE ( 2026, 22, 6 ) ;
#124 =( NAMED_UNIT ( * ) SI_UNIT ( $, .STERADIAN. ) SOLID_ANGLE_UNIT ( ) );
#125 = PERSON_AND_ORGANIZATION ( #18446744073709551615, #18446744073709551615 ) ;
#126 = APPROVAL_DATE_TIME ( #208, #316 ) ;
#127 = COORDINATED_UNIVERSAL_TIME_OFFSET ( 10, 0, .AHEAD. ) ;
#128 = CC_DESIGN_APPROVAL ( #330, ( #224 ) ) ;
#129 = APPROVAL_STATUS ( 'not_yet_approved' ) ;
#130 = PERSON_AND_ORGANIZATION ( #18446744073709551615, #18446744073709551615 ) ;
#131 = APPROVAL_DATE_TIME ( #133, #386 ) ;
#132 = CC_DESIGN_PERSON_AND_ORGANIZATION_ASSIGNMENT ( #275, #244, ( #195 ) ) ;
#133 = DATE_AND_TIME ( #249, #78 ) ;
#134 = CC_DESIGN_APPROVAL ( #386, ( #375 ) ) ;
#135 = DIRECTION ( 'NONE',  ( 4.890937612370273194E-29, -3.155443620884047222E-30, 0.9999999999999997780 ) ) ;
#136 = APPROVAL ( #8, 'Coincident' ) ;
#137 = APPLIED_EXTERNAL_IDENTIFICATION_ASSIGNMENT ( '6461082896.step.STEP' , #19, #333,( #1) ) ;
#138 = APPROVAL_STATUS ( 'not_yet_approved' ) ;
#139 = PERSON_AND_ORGANIZATION_ROLE ( 'creator' ) ;
#140 = COORDINATED_UNIVERSAL_TIME_OFFSET ( 10, 0, .AHEAD. ) ;
#141 = PERSON_AND_ORGANIZATION ( #18446744073709551615, #18446744073709551615 ) ;
#142 = APPROVAL_PERSON_ORGANIZATION ( #162, #41, #163 ) ;
#143 = CARTESIAN_POINT ( 'NONE',  ( 11.74999719235400519, 24.10000256347700542, -2.058321952820000078 ) ) ;
#144 = COORDINATED_UNIVERSAL_TIME_OFFSET ( 10, 0, .AHEAD. ) ;
#145 = CONTEXT_DEPENDENT_SHAPE_REPRESENTATION ( #44, #74 ) ;
#146 = DIRECTION ( 'NONE',  ( 4.890937612370273194E-29, -3.155443620884047222E-30, 0.9999999999999997780 ) ) ;
#147 = CALENDAR_DATE ( 2026, 22, 6 ) ;
#148 = CC_DESIGN_APPROVAL ( #136, ( #179 ) ) ;
#149 =( GEOMETRIC_REPRESENTATION_CONTEXT ( 3 ) GLOBAL_UNCERTAINTY_ASSIGNED_CONTEXT ( ( #245 ) ) GLOBAL_UNIT_ASSIGNED_CONTEXT ( ( #298, #85, #124 ) ) REPRESENTATION_CONTEXT ( 'NONE', 'WORKASPACE' ) );
#150 = PERSON_AND_ORGANIZATION ( #24, #43 ) ;
#151 = PRODUCT_RELATED_PRODUCT_CATEGORY ( 'detail', '', ( #195 ) ) ;
#152 = DIRECTION ( 'NONE',  ( 0.000000000000000000, 0.000000000000000000, 1.000000000000000000 ) ) ;
#153 = DATE_AND_TIME ( #147, #87 ) ;
#154 = PERSON_AND_ORGANIZATION_ROLE ( 'classification_officer' ) ;
#155 = COORDINATED_UNIVERSAL_TIME_OFFSET ( 10, 0, .AHEAD. ) ;
#156 = APPROVAL_PERSON_ORGANIZATION ( #185, #136, #7 ) ;
#157 = CALENDAR_DATE ( 2026, 22, 6 ) ;
#158 = APPROVAL_PERSON_ORGANIZATION ( #141, #160, #118 ) ;
#159 = COORDINATED_UNIVERSAL_TIME_OFFSET ( 10, 0, .AHEAD. ) ;
#160 = APPROVAL ( #384, 'Coincident' ) ;
#161 = DOCUMENT_TYPE ( 'geometry' ) ;
#162 = PERSON_AND_ORGANIZATION ( #18446744073709551615, #18446744073709551615 ) ;
#163 = APPROVAL_ROLE ( '' ) ;
#164 = PRODUCT_RELATED_PRODUCT_CATEGORY ( 'detail', '', ( #346 ) ) ;
#165 = OBJECT_ROLE ('mandatory',$ ) ;
#166 = PRODUCT ( '6461082896.step', '6461082896.step', '', ( #234 ) ) ;
#167 = DATE_AND_TIME ( #355, #278 ) ;
#168 = APPROVAL_ROLE ( '' ) ;
#169 = PERSON_AND_ORGANIZATION_ROLE ( 'design_supplier' ) ;
#170 = MECHANICAL_CONTEXT ( 'NONE', #15, 'mechanical' ) ;
#171 = AXIS2_PLACEMENT_3D ( 'NONE', #88, #90, #361 ) ;
#172 = APPROVAL_STATUS ( 'not_yet_approved' ) ;
#173 = CC_DESIGN_SECURITY_CLASSIFICATION ( #206, ( #388 ) ) ;
#174 = CC_DESIGN_PERSON_AND_ORGANIZATION_ASSIGNMENT ( #349, #17, ( #300 ) ) ;
#175 = APPLICATION_PROTOCOL_DEFINITION ( 'international standard', 'config_control_design', 1994, #15 ) ;
#176 = PERSON_AND_ORGANIZATION_ROLE ( 'classification_officer' ) ;
#177 = PERSON_AND_ORGANIZATION_ROLE ( 'design_owner' ) ;
#178 = DESIGN_CONTEXT ( 'detailed design', #192, 'design' ) ;
#179 = PRODUCT_DEFINITION ( 'General', '', #375, #299 ) ;
#180 = APPLIED_EXTERNAL_IDENTIFICATION_ASSIGNMENT ( '6461082896.step.STEP' , #353, #107,( #246) ) ;
#181 = CARTESIAN_POINT ( 'NONE',  ( 11.24999719235400164, 24.10000256347700187, -2.058321952820000078 ) ) ;
#182 = APPLIED_DOCUMENT_REFERENCE ( #360,'',( #33) ) ;
#183 = APPROVAL_STATUS ( 'not_yet_approved' ) ;
#184 = SECURITY_CLASSIFICATION_LEVEL ( 'unclassified' ) ;
#185 = PERSON_AND_ORGANIZATION ( #18446744073709551615, #18446744073709551615 ) ;
#186 = DOCUMENT_TYPE ( 'geometry' ) ;
#187 = CC_DESIGN_DATE_AND_TIME_ASSIGNMENT ( #70, #241, ( #179 ) ) ;
#188 = SHAPE_DEFINITION_REPRESENTATION ( #255, #98 ) ;
#189 = LOCAL_TIME ( 18, 49, 54.00000000000000000, #332 ) ;
#190 = DATE_AND_TIME ( #343, #198 ) ;
#191 = COORDINATED_UNIVERSAL_TIME_OFFSET ( 10, 0, .AHEAD. ) ;
#192 = APPLICATION_CONTEXT ( 'configuration controlled 3d designs of mechanical parts and assemblies' ) ;
#193 = AXIS2_PLACEMENT_3D ( 'NONE', #181, #135, #119 ) ;
#194 = CC_DESIGN_APPROVAL ( #114, ( #115 ) ) ;
#195 = PRODUCT ( '6461083056.step', '6461083056.step', '', ( #37 ) ) ;
#196 = PERSON_AND_ORGANIZATION ( #18446744073709551615, #18446744073709551615 ) ;
#197 = AXIS2_PLACEMENT_3D ( 'NONE', #29, #152, #233 ) ;
#198 = LOCAL_TIME ( 18, 49, 54.00000000000000000, #219 ) ;
#199 = PERSON_AND_ORGANIZATION ( #18446744073709551615, #18446744073709551615 ) ;
#200 = COORDINATED_UNIVERSAL_TIME_OFFSET ( 10, 0, .AHEAD. ) ;
#201 =( LENGTH_UNIT ( ) NAMED_UNIT ( * ) SI_UNIT ( .MILLI., .METRE. ) );
#202 = CC_DESIGN_PERSON_AND_ORGANIZATION_ASSIGNMENT ( #279, #72, ( #179 ) ) ;
#203 = SHAPE_DEFINITION_REPRESENTATION ( #226, #77 ) ;
#204 = LOCAL_TIME ( 18, 49, 54.00000000000000000, #159 ) ;
#205 = CALENDAR_DATE ( 2026, 22, 6 ) ;
#206 = SECURITY_CLASSIFICATION ( '', '', #271 ) ;
#207 =( NAMED_UNIT ( * ) PLANE_ANGLE_UNIT ( ) SI_UNIT ( $, .RADIAN. ) );
#208 = DATE_AND_TIME ( #63, #5 ) ;
#209 = DATE_AND_TIME ( #6, #48 ) ;
#210 = CARTESIAN_POINT ( 'NONE',  ( 10.75000100705100436, 24.10000256347700542, -2.058321952820000078 ) ) ;
#211 = LOCAL_TIME ( 18, 49, 54.00000000000000000, #144 ) ;
#212 = CALENDAR_DATE ( 2026, 22, 6 ) ;
#213 = CONTEXT_DEPENDENT_SHAPE_REPRESENTATION ( #312, #315 ) ;
#214 = APPROVAL_DATE_TIME ( #42, #319 ) ;
#215 = PERSON_AND_ORGANIZATION ( #223, #342 ) ;
#216 = CC_DESIGN_PERSON_AND_ORGANIZATION_ASSIGNMENT ( #277, #176, ( #272 ) ) ;
#217 = APPLICATION_PROTOCOL_DEFINITION ( 'international standard', 'config_control_design', 1994, #58 ) ;
#218 = APPROVAL_PERSON_ORGANIZATION ( #125, #319, #9 ) ;
#219 = COORDINATED_UNIVERSAL_TIME_OFFSET ( 10, 0, .AHEAD. ) ;
#220 = CC_DESIGN_APPROVAL ( #20, ( #300 ) ) ;
#221 = PERSON_AND_ORGANIZATION_ROLE ( 'creator' ) ;
#222 = CC_DESIGN_DATE_AND_TIME_ASSIGNMENT ( #262, #288, ( #224 ) ) ;
#223 = PERSON ( 'NAUO-PER78', 'UNSPECIFIED', 'UNSPECIFIED', ('UNSPECIFIED'), ('UNSPECIFIED'), ('UNSPECIFIED') ) ;
#224 = SECURITY_CLASSIFICATION ( '', '', #79 ) ;
#225 = PROPERTY_DEFINITION ('document property','', #246 ) ;
#226 = PRODUCT_DEFINITION_SHAPE ( 'NONE', 'NONE',  #33 ) ;
#227 = ITEM_DEFINED_TRANSFORMATION ( 'NONE', 'NONE', #366,  #171 ) ;
#228 = CC_DESIGN_PERSON_AND_ORGANIZATION_ASSIGNMENT ( #337, #365, ( #33 ) ) ;
#229 = CALENDAR_DATE ( 2026, 22, 6 ) ;
#230 = LOCAL_TIME ( 18, 49, 54.00000000000000000, #113 ) ;
#231 = COORDINATED_UNIVERSAL_TIME_OFFSET ( 10, 0, .AHEAD. ) ;
#232 = APPLICATION_CONTEXT ( 'configuration controlled 3d designs of mechanical parts and assemblies' ) ;
#233 = DIRECTION ( 'NONE',  ( 1.000000000000000000, 0.000000000000000000, 0.000000000000000000 ) ) ;
#234 = MECHANICAL_CONTEXT ( 'NONE', #243, 'mechanical' ) ;
#235 = DIRECTION ( 'NONE',  ( 1.000000000000000222, -1.092455418989176591E-28, 4.890937612370273194E-29 ) ) ;
#236 = APPROVAL_DATE_TIME ( #120, #160 ) ;
#237 = DATE_AND_TIME ( #123, #189 ) ;
#238 = APPLIED_EXTERNAL_IDENTIFICATION_ASSIGNMENT ( '6461083056.step.STEP' , #76, #50,( #360) ) ;
#239 = DATE_TIME_ROLE ( 'classification_date' ) ;
#240 = CONTEXT_DEPENDENT_SHAPE_REPRESENTATION ( #39, #46 ) ;
#241 = DATE_TIME_ROLE ( 'creation_date' ) ;
#242 = DATE_TIME_ROLE ( 'classification_date' ) ;
#243 = APPLICATION_CONTEXT ( 'configuration controlled 3d designs of mechanical parts and assemblies' ) ;
#244 = PERSON_AND_ORGANIZATION_ROLE ( 'design_owner' ) ;
#245 = UNCERTAINTY_MEASURE_WITH_UNIT (LENGTH_MEASURE( 1.000000000000000082E-05 ), #298, 'distance_accuracy_value', 'NONE');
#246 = DOCUMENT_FILE ( '6461082896.step.STEP' , '', '', #347, '' ,$ ) ;
#247 = PERSON_AND_ORGANIZATION ( #18446744073709551615, #18446744073709551615 ) ;
#248 = PROPERTY_DEFINITION ('external definition','', #1 ) ;
#249 = CALENDAR_DATE ( 2026, 22, 6 ) ;
#250 = CC_DESIGN_DATE_AND_TIME_ASSIGNMENT ( #190, #310, ( #33 ) ) ;
#251 = APPROVAL_PERSON_ORGANIZATION ( #100, #386, #103 ) ;
#252 = CC_DESIGN_SECURITY_CLASSIFICATION ( #115, ( #375 ) ) ;
#253 = APPROVAL_DATE_TIME ( #95, #114 ) ;
#254 = PRODUCT_RELATED_PRODUCT_CATEGORY ( 'detail', '', ( #166 ) ) ;
#255 = PRODUCT_DEFINITION_SHAPE ( 'NONE', 'NONE',  #179 ) ;
#256 = CC_DESIGN_APPROVAL ( #110, ( #206 ) ) ;
#257 = CC_DESIGN_PERSON_AND_ORGANIZATION_ASSIGNMENT ( #68, #369, ( #375 ) ) ;
#258 = PROPERTY_DEFINITION ('external definition','', #246 ) ;
#259 = DATE_AND_TIME ( #229, #230 ) ;
#260 = DATE_TIME_ROLE ( 'creation_date' ) ;
#261 = OBJECT_ROLE ('mandatory',$ ) ;
#262 = DATE_AND_TIME ( #47, #345 ) ;
#263 = PRODUCT_DEFINITION ( 'General', '', #300, #178 ) ;
#264 = LOCAL_TIME ( 18, 49, 54.00000000000000000, #155 ) ;
#265 = PERSON_AND_ORGANIZATION_ROLE ( 'classification_officer' ) ;
#266 = DIRECTION ( 'NONE',  ( 1.000000000000000222, -1.092455418989176591E-28, 4.890937612370273194E-29 ) ) ;
#267 = CALENDAR_DATE ( 2026, 22, 6 ) ;
#268 = PERSON_AND_ORGANIZATION_ROLE ( 'classification_officer' ) ;
#269 = APPLICATION_PROTOCOL_DEFINITION ( 'international standard', 'config_control_design', 1994, #83 ) ;
#270 = CC_DESIGN_PERSON_AND_ORGANIZATION_ASSIGNMENT ( #130, #154, ( #115 ) ) ;
#271 = SECURITY_CLASSIFICATION_LEVEL ( 'unclassified' ) ;
#272 = SECURITY_CLASSIFICATION ( '', '', #53 ) ;
#273 = COORDINATED_UNIVERSAL_TIME_OFFSET ( 10, 0, .AHEAD. ) ;
#274 = APPROVAL_DATE_TIME ( #153, #110 ) ;
#275 = PERSON_AND_ORGANIZATION ( #18446744073709551615, #18446744073709551615 ) ;
#276 = PERSON_AND_ORGANIZATION ( #385, #62 ) ;
#277 = PERSON_AND_ORGANIZATION ( #18446744073709551615, #18446744073709551615 ) ;
#278 = LOCAL_TIME ( 18, 49, 54.00000000000000000, #140 ) ;
#279 = PERSON_AND_ORGANIZATION ( #18446744073709551615, #18446744073709551615 ) ;
#280 = DATE_TIME_ROLE ( 'classification_date' ) ;
#281 = APPROVAL_STATUS ( 'not_yet_approved' ) ;
#282 = LOCAL_TIME ( 18, 49, 54.00000000000000000, #372 ) ;
#283 = LOCAL_TIME ( 18, 49, 54.00000000000000000, #191 ) ;
#284 = CALENDAR_DATE ( 2026, 22, 6 ) ;
#285 = CC_DESIGN_DATE_AND_TIME_ASSIGNMENT ( #86, #260, ( #263 ) ) ;
#286 = OBJECT_ROLE ('mandatory',$ ) ;
#287 = CC_DESIGN_APPROVAL ( #101, ( #351 ) ) ;
#288 = DATE_TIME_ROLE ( 'classification_date' ) ;
#289 = CC_DESIGN_PERSON_AND_ORGANIZATION_ASSIGNMENT ( #317, #265, ( #224 ) ) ;
#290 = PERSON_AND_ORGANIZATION ( #18446744073709551615, #18446744073709551615 ) ;
#291 = APPROVAL_ROLE ( '' ) ;
#292 = DIRECTION ( 'NONE',  ( 0.000000000000000000, 0.000000000000000000, 1.000000000000000000 ) ) ;
#293 = CC_DESIGN_APPROVAL ( #316, ( #359 ) ) ;
#294 = APPLICATION_PROTOCOL_DEFINITION ( 'international standard', 'config_control_design', 1994, #243 ) ;
#295 = APPLIED_DOCUMENT_REFERENCE ( #1,'',( #263) ) ;
#296 =( LENGTH_UNIT ( ) NAMED_UNIT ( * ) SI_UNIT ( .MILLI., .METRE. ) );
#297 = DATE_TIME_ROLE ( 'classification_date' ) ;
#298 =( LENGTH_UNIT ( ) NAMED_UNIT ( * ) SI_UNIT ( .MILLI., .METRE. ) );
#299 = DESIGN_CONTEXT ( 'detailed design', #83, 'design' ) ;
#300 = PRODUCT_DEFINITION_FORMATION_WITH_SPECIFIED_SOURCE ( 'Symmetric', '', #166, .NOT_KNOWN. ) ;
#301 = ROLE_ASSOCIATION ( #165, #60 ) ;
#302 = COORDINATED_UNIVERSAL_TIME_OFFSET ( 10, 0, .AHEAD. ) ;
#303 = CC_DESIGN_PERSON_AND_ORGANIZATION_ASSIGNMENT ( #376, #221, ( #375 ) ) ;
#304 = COORDINATED_UNIVERSAL_TIME_OFFSET ( 10, 0, .AHEAD. ) ;
#305 = SHAPE_REPRESENTATION ( '6461082896.step', ( #171 ), #341 ) ;
#306 = CALENDAR_DATE ( 2026, 22, 6 ) ;
#307 = DATE_AND_TIME ( #64, #204 ) ;
#308 = APPROVAL_PERSON_ORGANIZATION ( #199, #20, #291 ) ;
#309 = APPROVAL_ROLE ( '' ) ;
#310 = DATE_TIME_ROLE ( 'creation_date' ) ;
#311 = APPLICATION_PROTOCOL_DEFINITION ( 'international standard', 'config_control_design', 1994, #232 ) ;
#312 =( REPRESENTATION_RELATIONSHIP ('NONE','NONE', #98, #77 ) REPRESENTATION_RELATIONSHIP_WITH_TRANSFORMATION ( #3 )SHAPE_REPRESENTATION_RELATIONSHIP( ) );
#313 = LOCAL_TIME ( 18, 49, 54.00000000000000000, #116 ) ;
#314 = CC_DESIGN_PERSON_AND_ORGANIZATION_ASSIGNMENT ( #13, #382, ( #300 ) ) ;
#315 = PRODUCT_DEFINITION_SHAPE ( 'NONE', 'NONE',  #389 ) ;
#316 = APPROVAL ( #129, 'UNKNOWN' ) ;
#317 = PERSON_AND_ORGANIZATION ( #18446744073709551615, #18446744073709551615 ) ;
#318 = APPROVAL_PERSON_ORGANIZATION ( #150, #316, #25 ) ;
#319 = APPROVAL ( #281, 'Coincident' ) ;
#320 = PERSON_AND_ORGANIZATION ( #18446744073709551615, #18446744073709551615 ) ;
#321 = APPROVAL_DATE_TIME ( #167, #65 ) ;
#322 =( NAMED_UNIT ( * ) SI_UNIT ( $, .STERADIAN. ) SOLID_ANGLE_UNIT ( ) );
#323 = CALENDAR_DATE ( 2026, 22, 6 ) ;
#324 = APPROVAL_PERSON_ORGANIZATION ( #357, #65, #168 ) ;
#325 = PRODUCT_DEFINITION_FORMATION_WITH_SPECIFIED_SOURCE ( 'Symmetric', '', #195, .NOT_KNOWN. ) ;
#326 = APPROVAL_STATUS ( 'not_yet_approved' ) ;
#327 = ITEM_DEFINED_TRANSFORMATION ( 'NONE', 'NONE', #61,  #171 ) ;
#328 = CC_DESIGN_PERSON_AND_ORGANIZATION_ASSIGNMENT ( #150, #368, ( #359 ) ) ;
#329 = APPROVAL_ROLE ( '' ) ;
#330 = APPROVAL ( #172, 'Coincident' ) ;
#331 = APPROVAL_PERSON_ORGANIZATION ( #215, #101, #329 ) ;
#332 = COORDINATED_UNIVERSAL_TIME_OFFSET ( 10, 0, .AHEAD. ) ;
#333 = EXTERNAL_SOURCE (IDENTIFIER('') ) ;
#334 = SECURITY_CLASSIFICATION_LEVEL ( 'unclassified' ) ;
#335 = CC_DESIGN_DATE_AND_TIME_ASSIGNMENT ( #121, #297, ( #351 ) ) ;
#336 = ROLE_ASSOCIATION ( #286, #182 ) ;
#337 = PERSON_AND_ORGANIZATION ( #18446744073709551615, #18446744073709551615 ) ;
#338 = UNCERTAINTY_MEASURE_WITH_UNIT (LENGTH_MEASURE( 1.000000000000000082E-05 ), #296, 'distance_accuracy_value', 'NONE');
#339 = PERSON_AND_ORGANIZATION_ROLE ( 'classification_officer' ) ;
#340 = CALENDAR_DATE ( 2026, 22, 6 ) ;
#341 =( GEOMETRIC_REPRESENTATION_CONTEXT ( 3 ) GLOBAL_UNCERTAINTY_ASSIGNED_CONTEXT ( ( #338 ) ) GLOBAL_UNIT_ASSIGNED_CONTEXT ( ( #296, #207, #52 ) ) REPRESENTATION_CONTEXT ( 'NONE', 'WORKASPACE' ) );
#342 = ORGANIZATION ( 'NAUO-ORG78', 'UNSPECIFIED', 'UNSPECIFIED' ) ;
#343 = CALENDAR_DATE ( 2026, 22, 6 ) ;
#344 = APPROVAL_STATUS ( 'not_yet_approved' ) ;
#345 = LOCAL_TIME ( 18, 49, 54.00000000000000000, #200 ) ;
#346 = PRODUCT ( 'R25.step', 'R25.step', '', ( #170 ) ) ;
#347 = DOCUMENT_TYPE ( 'geometry' ) ;
#348 = APPROVAL_ROLE ( '' ) ;
#349 = PERSON_AND_ORGANIZATION ( #18446744073709551615, #18446744073709551615 ) ;
#350 = CC_DESIGN_PERSON_AND_ORGANIZATION_ASSIGNMENT ( #276, #268, ( #206 ) ) ;
#351 = SECURITY_CLASSIFICATION ( '', '', #184 ) ;
#352 = APPROVAL_DATE_TIME ( #75, #330 ) ;
#353 = IDENTIFICATION_ROLE ( 'external document id and location', $) ;
#354 = DIRECTION ( 'NONE',  ( 4.890937612370273194E-29, -3.155443620884047222E-30, 0.9999999999999997780 ) ) ;
#355 = CALENDAR_DATE ( 2026, 22, 6 ) ;
#356 = UNCERTAINTY_MEASURE_WITH_UNIT (LENGTH_MEASURE( 1.000000000000000082E-05 ), #201, 'distance_accuracy_value', 'NONE');
#357 = PERSON_AND_ORGANIZATION ( #18446744073709551615, #18446744073709551615 ) ;
#358 = CARTESIAN_POINT ( 'NONE',  ( 0.000000000000000000, 0.000000000000000000, 0.000000000000000000 ) ) ;
#359 = SECURITY_CLASSIFICATION ( '', '', #93 ) ;
#360 = DOCUMENT_FILE ( '6461083056.step.STEP' , '', '', #161, '' ,$ ) ;
#361 = DIRECTION ( 'NONE',  ( 1.000000000000000000, 0.000000000000000000, 0.000000000000000000 ) ) ;
#362 = DATE_AND_TIME ( #99, #264 ) ;
#363 = CC_DESIGN_PERSON_AND_ORGANIZATION_ASSIGNMENT ( #320, #51, ( #325 ) ) ;
#364 = APPROVAL_ROLE ( '' ) ;
#365 = PERSON_AND_ORGANIZATION_ROLE ( 'creator' ) ;
#366 = AXIS2_PLACEMENT_3D ( 'NONE', #143, #146, #266 ) ;
#367 = CC_DESIGN_APPROVAL ( #65, ( #263 ) ) ;
#368 = PERSON_AND_ORGANIZATION_ROLE ( 'classification_officer' ) ;
#369 = PERSON_AND_ORGANIZATION_ROLE ( 'design_supplier' ) ;
#370 = PROPERTY_DEFINITION_REPRESENTATION ( #12, #77 ) ;
#371 = PROPERTY_DEFINITION ('document property','', #1 ) ;
#372 = COORDINATED_UNIVERSAL_TIME_OFFSET ( 10, 0, .AHEAD. ) ;
#373 = CC_DESIGN_DATE_AND_TIME_ASSIGNMENT ( #82, #18, ( #272 ) ) ;
#374 = COORDINATED_UNIVERSAL_TIME_OFFSET ( 10, 0, .AHEAD. ) ;
#375 = PRODUCT_DEFINITION_FORMATION_WITH_SPECIFIED_SOURCE ( 'Symmetric', '', #346, .NOT_KNOWN. ) ;
#376 = PERSON_AND_ORGANIZATION ( #18446744073709551615, #18446744073709551615 ) ;
#377 = CC_DESIGN_PERSON_AND_ORGANIZATION_ASSIGNMENT ( #215, #339, ( #351 ) ) ;
#378 = CC_DESIGN_APPROVAL ( #160, ( #272 ) ) ;
#379 = PROPERTY_DEFINITION ('document property','', #360 ) ;
#380 = SHAPE_DEFINITION_REPRESENTATION ( #112, #305 ) ;
#381 = CALENDAR_DATE ( 2026, 22, 6 ) ;
#382 = PERSON_AND_ORGANIZATION_ROLE ( 'creator' ) ;
#383 = DESIGN_CONTEXT ( 'detailed design', #232, 'design' ) ;
#384 = APPROVAL_STATUS ( 'not_yet_approved' ) ;
#385 = PERSON ( 'NAUO-PER76', 'UNSPECIFIED', 'UNSPECIFIED', ('UNSPECIFIED'), ('UNSPECIFIED'), ('UNSPECIFIED') ) ;
#386 = APPROVAL ( #183, 'Coincident' ) ;
#387 = APPROVAL_PERSON_ORGANIZATION ( #247, #114, #309 ) ;
#388 = NEXT_ASSEMBLY_USAGE_OCCURRENCE ( 'NAUO76', ' ', ' ', #179, #263, $ ) ;
#389 = NEXT_ASSEMBLY_USAGE_OCCURRENCE ( 'NAUO77', ' ', ' ', #179, #33, $ ) ;
#390 = NEXT_ASSEMBLY_USAGE_OCCURRENCE ( 'NAUO78', ' ', ' ', #179, #263, $ ) ;
ENDSEC;
END-ISO-10303-21;
