ISO-10303-21;
HEADER;
FILE_DESCRIPTION (( 'STEP AP203' ),
    '1' );
FILE_NAME ('R26.step.STEP',
    '2026-06-22T08:49:55',
    ( 'localuser' ),
    ( '' ),
    'SwSTEP 2.0',
    'SolidWorks 2025',
    '' );
FILE_SCHEMA (( 'CONFIG_CONTROL_DESIGN' ));
ENDSEC;

DATA;
#1 = PERSON_AND_ORGANIZATION_ROLE ( 'design_supplier' ) ;
#2 = APPROVAL_STATUS ( 'not_yet_approved' ) ;
#3 = CC_DESIGN_DATE_AND_TIME_ASSIGNMENT ( #331, #334, ( #164 ) ) ;
#4 = PERSON_AND_ORGANIZATION ( #18446744073709551615, #18446744073709551615 ) ;
#5 = LOCAL_TIME ( 18, 49, 55.00000000000000000, #239 ) ;
#6 = PERSON_AND_ORGANIZATION_ROLE ( 'creator' ) ;
#7 = CARTESIAN_POINT ( 'NONE',  ( 0.000000000000000000, 0.000000000000000000, 0.000000000000000000 ) ) ;
#8 = PERSON_AND_ORGANIZATION ( #278, #112 ) ;
#9 = CC_DESIGN_DATE_AND_TIME_ASSIGNMENT ( #50, #291, ( #57 ) ) ;
#10 = DATE_AND_TIME ( #253, #301 ) ;
#11 = IDENTIFICATION_ROLE ( 'external document id and location', $) ;
#12 = CALENDAR_DATE ( 2026, 22, 6 ) ;
#13 = SECURITY_CLASSIFICATION ( '', '', #245 ) ;
#14 = ITEM_DEFINED_TRANSFORMATION ( 'NONE', 'NONE', #217,  #144 ) ;
#15 = PERSON_AND_ORGANIZATION_ROLE ( 'classification_officer' ) ;
#16 = PRODUCT_DEFINITION_SHAPE ( 'NONE', 'NONE',  #390 ) ;
#17 = PROPERTY_DEFINITION_REPRESENTATION ( #376, #319 ) ;
#18 = SECURITY_CLASSIFICATION ( '', '', #287 ) ;
#19 = EXTERNAL_SOURCE (IDENTIFIER('') ) ;
#20 = APPROVAL_STATUS ( 'not_yet_approved' ) ;
#21 = ROLE_ASSOCIATION ( #34, #203 ) ;
#22 = CC_DESIGN_PERSON_AND_ORGANIZATION_ASSIGNMENT ( #117, #241, ( #105 ) ) ;
#23 = DATE_TIME_ROLE ( 'creation_date' ) ;
#24 = APPLIED_DOCUMENT_REFERENCE ( #368,'',( #164) ) ;
#25 = PERSON_AND_ORGANIZATION ( #18446744073709551615, #18446744073709551615 ) ;
#26 = LOCAL_TIME ( 18, 49, 55.00000000000000000, #69 ) ;
#27 = DOCUMENT_FILE ( '6461079856.step.STEP' , '', '', #188, '' ,$ ) ;
#28 = APPROVAL_ROLE ( '' ) ;
#29 = APPROVAL ( #302, 'Coincident' ) ;
#30 = DATE_AND_TIME ( #39, #5 ) ;
#31 = COORDINATED_UNIVERSAL_TIME_OFFSET ( 10, 0, .AHEAD. ) ;
#32 = AXIS2_PLACEMENT_3D ( 'NONE', #220, #153, #176 ) ;
#33 = APPROVAL_PERSON_ORGANIZATION ( #154, #114, #131 ) ;
#34 = OBJECT_ROLE ('mandatory',$ ) ;
#35 = APPROVAL ( #60, 'Coincident' ) ;
#36 = APPROVAL_DATE_TIME ( #30, #35 ) ;
#37 = UNCERTAINTY_MEASURE_WITH_UNIT (LENGTH_MEASURE( 1.000000000000000082E-05 ), #137, 'distance_accuracy_value', 'NONE');
#38 = CALENDAR_DATE ( 2026, 22, 6 ) ;
#39 = CALENDAR_DATE ( 2026, 22, 6 ) ;
#40 = LOCAL_TIME ( 18, 49, 55.00000000000000000, #275 ) ;
#41 = APPROVAL_DATE_TIME ( #161, #114 ) ;
#42 = CC_DESIGN_PERSON_AND_ORGANIZATION_ASSIGNMENT ( #294, #384, ( #330 ) ) ;
#43 = EXTERNAL_SOURCE (IDENTIFIER('') ) ;
#44 = APPLIED_DOCUMENT_REFERENCE ( #229,'',( #157) ) ;
#45 = DIRECTION ( 'NONE',  ( 1.000000000000000000, 0.000000000000000000, 0.000000000000000000 ) ) ;
#46 = PERSON_AND_ORGANIZATION ( #18446744073709551615, #18446744073709551615 ) ;
#47 = PERSON_AND_ORGANIZATION ( #18446744073709551615, #18446744073709551615 ) ;
#48 = LOCAL_TIME ( 18, 49, 55.00000000000000000, #270 ) ;
#49 = ITEM_DEFINED_TRANSFORMATION ( 'NONE', 'NONE', #196,  #223 ) ;
#50 = DATE_AND_TIME ( #170, #175 ) ;
#51 = PRODUCT_DEFINITION_SHAPE ( 'NONE', 'NONE',  #157 ) ;
#52 = APPLIED_EXTERNAL_IDENTIFICATION_ASSIGNMENT ( '6461079856.step.STEP' , #283, #19,( #27) ) ;
#53 = CC_DESIGN_PERSON_AND_ORGANIZATION_ASSIGNMENT ( #288, #324, ( #57 ) ) ;
#54 = DATE_AND_TIME ( #158, #344 ) ;
#55 = PERSON_AND_ORGANIZATION ( #18446744073709551615, #18446744073709551615 ) ;
#56 = PRODUCT_RELATED_PRODUCT_CATEGORY ( 'detail', '', ( #227 ) ) ;
#57 = SECURITY_CLASSIFICATION ( '', '', #263 ) ;
#58 = COORDINATED_UNIVERSAL_TIME_OFFSET ( 10, 0, .AHEAD. ) ;
#59 = APPROVAL_DATE_TIME ( #209, #93 ) ;
#60 = APPROVAL_STATUS ( 'not_yet_approved' ) ;
#61 = APPLIED_EXTERNAL_IDENTIFICATION_ASSIGNMENT ( '6461079856.step.STEP' , #379, #262,( #229) ) ;
#62 = CC_DESIGN_PERSON_AND_ORGANIZATION_ASSIGNMENT ( #47, #125, ( #157 ) ) ;
#63 = DATE_TIME_ROLE ( 'classification_date' ) ;
#64 = PERSON_AND_ORGANIZATION ( #18446744073709551615, #18446744073709551615 ) ;
#65 = APPLICATION_PROTOCOL_DEFINITION ( 'international standard', 'config_control_design', 1994, #99 ) ;
#66 = DATE_AND_TIME ( #38, #40 ) ;
#67 = CC_DESIGN_PERSON_AND_ORGANIZATION_ASSIGNMENT ( #254, #372, ( #370 ) ) ;
#68 = OBJECT_ROLE ('mandatory',$ ) ;
#69 = COORDINATED_UNIVERSAL_TIME_OFFSET ( 10, 0, .AHEAD. ) ;
#70 = CALENDAR_DATE ( 2026, 22, 6 ) ;
#71 = MECHANICAL_CONTEXT ( 'NONE', #300, 'mechanical' ) ;
#72 = CC_DESIGN_PERSON_AND_ORGANIZATION_ASSIGNMENT ( #148, #1, ( #266 ) ) ;
#73 = ROLE_ASSOCIATION ( #68, #44 ) ;
#74 = SECURITY_CLASSIFICATION ( '', '', #95 ) ;
#75 = COORDINATED_UNIVERSAL_TIME_OFFSET ( 10, 0, .AHEAD. ) ;
#76 = CC_DESIGN_PERSON_AND_ORGANIZATION_ASSIGNMENT ( #178, #6, ( #266 ) ) ;
#77 = APPROVAL_PERSON_ORGANIZATION ( #25, #246, #28 ) ;
#78 = CALENDAR_DATE ( 2026, 22, 6 ) ;
#79 = PERSON_AND_ORGANIZATION ( #272, #208 ) ;
#80 = PERSON_AND_ORGANIZATION_ROLE ( 'creator' ) ;
#81 = AXIS2_PLACEMENT_3D ( 'NONE', #202, #355, #169 ) ;
#82 = APPROVAL_ROLE ( '' ) ;
#83 = CALENDAR_DATE ( 2026, 22, 6 ) ;
#84 = APPROVAL_ROLE ( '' ) ;
#85 = PRODUCT_RELATED_PRODUCT_CATEGORY ( 'detail', '', ( #347 ) ) ;
#86 = APPLICATION_CONTEXT ( 'configuration controlled 3d designs of mechanical parts and assemblies' ) ;
#87 = PERSON_AND_ORGANIZATION_ROLE ( 'design_owner' ) ;
#88 = CC_DESIGN_APPROVAL ( #322, ( #286 ) ) ;
#89 = LOCAL_TIME ( 18, 49, 55.00000000000000000, #163 ) ;
#90 = SHAPE_REPRESENTATION ( '6534431024.step', ( #223 ), #205 ) ;
#91 = PERSON_AND_ORGANIZATION ( #18446744073709551615, #18446744073709551615 ) ;
#92 = DESIGN_CONTEXT ( 'detailed design', #146, 'design' ) ;
#93 = APPROVAL ( #141, 'Coincident' ) ;
#94 = DATE_AND_TIME ( #366, #151 ) ;
#95 = SECURITY_CLASSIFICATION_LEVEL ( 'unclassified' ) ;
#96 = CALENDAR_DATE ( 2026, 22, 6 ) ;
#97 = CALENDAR_DATE ( 2026, 22, 6 ) ;
#98 = COORDINATED_UNIVERSAL_TIME_OFFSET ( 10, 0, .AHEAD. ) ;
#99 = APPLICATION_CONTEXT ( 'configuration controlled 3d designs of mechanical parts and assemblies' ) ;
#100 = APPROVAL_DATE_TIME ( #249, #295 ) ;
#101 = CC_DESIGN_APPROVAL ( #35, ( #266 ) ) ;
#102 = SHAPE_REPRESENTATION ( 'R26.step', ( #32, #217, #196, #81 ), #363 ) ;
#103 = ROLE_ASSOCIATION ( #139, #24 ) ;
#104 = CC_DESIGN_DATE_AND_TIME_ASSIGNMENT ( #10, #124, ( #296 ) ) ;
#105 = PRODUCT ( '6461079856.step', '6461079856.step', '', ( #115 ) ) ;
#106 = DATE_TIME_ROLE ( 'classification_date' ) ;
#107 = APPROVAL_PERSON_ORGANIZATION ( #264, #322, #108 ) ;
#108 = APPROVAL_ROLE ( '' ) ;
#109 =( NAMED_UNIT ( * ) PLANE_ANGLE_UNIT ( ) SI_UNIT ( $, .RADIAN. ) );
#110 = DATE_AND_TIME ( #168, #190 ) ;
#111 = APPROVAL_DATE_TIME ( #66, #29 ) ;
#112 = ORGANIZATION ( 'NAUO-ORG92', 'UNSPECIFIED', 'UNSPECIFIED' ) ;
#113 = PERSON_AND_ORGANIZATION ( #18446744073709551615, #18446744073709551615 ) ;
#114 = APPROVAL ( #371, 'Coincident' ) ;
#115 = MECHANICAL_CONTEXT ( 'NONE', #134, 'mechanical' ) ;
#116 =( LENGTH_UNIT ( ) NAMED_UNIT ( * ) SI_UNIT ( .MILLI., .METRE. ) );
#117 = PERSON_AND_ORGANIZATION ( #18446744073709551615, #18446744073709551615 ) ;
#118 = APPLICATION_CONTEXT ( 'configuration controlled 3d designs of mechanical parts and assemblies' ) ;
#119 =( GEOMETRIC_REPRESENTATION_CONTEXT ( 3 ) GLOBAL_UNCERTAINTY_ASSIGNED_CONTEXT ( ( #332 ) ) GLOBAL_UNIT_ASSIGNED_CONTEXT ( ( #150, #123, #309 ) ) REPRESENTATION_CONTEXT ( 'NONE', 'WORKASPACE' ) );
#120 = CC_DESIGN_DATE_AND_TIME_ASSIGNMENT ( #94, #63, ( #13 ) ) ;
#121 = CC_DESIGN_SECURITY_CLASSIFICATION ( #296, ( #388 ) ) ;
#122 = CALENDAR_DATE ( 2026, 22, 6 ) ;
#123 =( NAMED_UNIT ( * ) PLANE_ANGLE_UNIT ( ) SI_UNIT ( $, .RADIAN. ) );
#124 = DATE_TIME_ROLE ( 'classification_date' ) ;
#125 = PERSON_AND_ORGANIZATION_ROLE ( 'creator' ) ;
#126 = CC_DESIGN_APPROVAL ( #246, ( #330 ) ) ;
#127 = APPROVAL_PERSON_ORGANIZATION ( #305, #201, #84 ) ;
#128 = COORDINATED_UNIVERSAL_TIME_OFFSET ( 10, 0, .AHEAD. ) ;
#129 = CC_DESIGN_PERSON_AND_ORGANIZATION_ASSIGNMENT ( #46, #15, ( #18 ) ) ;
#130 = APPROVAL_DATE_TIME ( #307, #382 ) ;
#131 = APPROVAL_ROLE ( '' ) ;
#132 = CC_DESIGN_SECURITY_CLASSIFICATION ( #74, ( #389 ) ) ;
#133 = CALENDAR_DATE ( 2026, 22, 6 ) ;
#134 = APPLICATION_CONTEXT ( 'configuration controlled 3d designs of mechanical parts and assemblies' ) ;
#135 =( NAMED_UNIT ( * ) SI_UNIT ( $, .STERADIAN. ) SOLID_ANGLE_UNIT ( ) );
#136 = CONTEXT_DEPENDENT_SHAPE_REPRESENTATION ( #274, #292 ) ;
#137 =( LENGTH_UNIT ( ) NAMED_UNIT ( * ) SI_UNIT ( .MILLI., .METRE. ) );
#138 = CC_DESIGN_APPROVAL ( #114, ( #370 ) ) ;
#139 = OBJECT_ROLE ('mandatory',$ ) ;
#140 = DATE_AND_TIME ( #133, #212 ) ;
#141 = APPROVAL_STATUS ( 'not_yet_approved' ) ;
#142 = CC_DESIGN_PERSON_AND_ORGANIZATION_ASSIGNMENT ( #79, #259, ( #74 ) ) ;
#143 = CALENDAR_DATE ( 2026, 22, 6 ) ;
#144 = AXIS2_PLACEMENT_3D ( 'NONE', #182, #304, #45 ) ;
#145 = SHAPE_DEFINITION_REPRESENTATION ( #166, #90 ) ;
#146 = APPLICATION_CONTEXT ( 'configuration controlled 3d designs of mechanical parts and assemblies' ) ;
#147 = PERSON_AND_ORGANIZATION_ROLE ( 'classification_officer' ) ;
#148 = PERSON_AND_ORGANIZATION ( #18446744073709551615, #18446744073709551615 ) ;
#149 = SECURITY_CLASSIFICATION ( '', '', #378 ) ;
#150 =( LENGTH_UNIT ( ) NAMED_UNIT ( * ) SI_UNIT ( .MILLI., .METRE. ) );
#151 = LOCAL_TIME ( 18, 49, 55.00000000000000000, #299 ) ;
#152 = PERSON_AND_ORGANIZATION_ROLE ( 'creator' ) ;
#153 = DIRECTION ( 'NONE',  ( 0.000000000000000000, 0.000000000000000000, 1.000000000000000000 ) ) ;
#154 = PERSON_AND_ORGANIZATION ( #18446744073709551615, #18446744073709551615 ) ;
#155 = DOCUMENT_TYPE ( 'geometry' ) ;
#156 = APPLICATION_PROTOCOL_DEFINITION ( 'international standard', 'config_control_design', 1994, #300 ) ;
#157 = PRODUCT_DEFINITION ( 'General', '', #370, #172 ) ;
#158 = CALENDAR_DATE ( 2026, 22, 6 ) ;
#159 = DIRECTION ( 'NONE',  ( 1.000000000000000000, 0.000000000000000000, 0.000000000000000000 ) ) ;
#160 = CC_DESIGN_SECURITY_CLASSIFICATION ( #13, ( #266 ) ) ;
#161 = DATE_AND_TIME ( #97, #89 ) ;
#162 =( REPRESENTATION_RELATIONSHIP ('NONE','NONE', #102, #319 ) REPRESENTATION_RELATIONSHIP_WITH_TRANSFORMATION ( #348 )SHAPE_REPRESENTATION_RELATIONSHIP( ) );
#163 = COORDINATED_UNIVERSAL_TIME_OFFSET ( 10, 0, .AHEAD. ) ;
#164 = PRODUCT_DEFINITION ( 'General', '', #266, #328 ) ;
#165 = APPROVAL_DATE_TIME ( #226, #346 ) ;
#166 = PRODUCT_DEFINITION_SHAPE ( 'NONE', 'NONE',  #164 ) ;
#167 = LOCAL_TIME ( 18, 49, 55.00000000000000000, #251 ) ;
#168 = CALENDAR_DATE ( 2026, 22, 6 ) ;
#169 = DIRECTION ( 'NONE',  ( 1.000000000000000222, -1.092455418989176591E-28, 4.890937612370273194E-29 ) ) ;
#170 = CALENDAR_DATE ( 2026, 22, 6 ) ;
#171 = DIRECTION ( 'NONE',  ( 4.890937612370273194E-29, -3.155443620884047222E-30, 0.9999999999999997780 ) ) ;
#172 = DESIGN_CONTEXT ( 'detailed design', #118, 'design' ) ;
#173 = APPROVAL_PERSON_ORGANIZATION ( #362, #252, #329 ) ;
#174 = DIRECTION ( 'NONE',  ( 1.000000000000000222, -1.092455418989176591E-28, 4.890937612370273194E-29 ) ) ;
#175 = LOCAL_TIME ( 18, 49, 55.00000000000000000, #316 ) ;
#176 = DIRECTION ( 'NONE',  ( 1.000000000000000000, 0.000000000000000000, 0.000000000000000000 ) ) ;
#177 = CC_DESIGN_DATE_AND_TIME_ASSIGNMENT ( #140, #228, ( #149 ) ) ;
#178 = PERSON_AND_ORGANIZATION ( #18446744073709551615, #18446744073709551615 ) ;
#179 = APPROVAL_DATE_TIME ( #276, #201 ) ;
#180 = ORGANIZATION ( 'NAUO-ORG94', 'UNSPECIFIED', 'UNSPECIFIED' ) ;
#181 = SHAPE_DEFINITION_REPRESENTATION ( #255, #102 ) ;
#182 = CARTESIAN_POINT ( 'NONE',  ( 0.000000000000000000, 0.000000000000000000, 0.000000000000000000 ) ) ;
#183 = MECHANICAL_CONTEXT ( 'NONE', #99, 'mechanical' ) ;
#184 = CALENDAR_DATE ( 2026, 22, 6 ) ;
#185 = LOCAL_TIME ( 18, 49, 55.00000000000000000, #340 ) ;
#186 = DATE_AND_TIME ( #12, #26 ) ;
#187 = CC_DESIGN_PERSON_AND_ORGANIZATION_ASSIGNMENT ( #113, #240, ( #164 ) ) ;
#188 = DOCUMENT_TYPE ( 'geometry' ) ;
#189 = SECURITY_CLASSIFICATION_LEVEL ( 'unclassified' ) ;
#190 = LOCAL_TIME ( 18, 49, 55.00000000000000000, #317 ) ;
#191 = CC_DESIGN_APPROVAL ( #295, ( #296 ) ) ;
#192 = CC_DESIGN_PERSON_AND_ORGANIZATION_ASSIGNMENT ( #204, #325, ( #286 ) ) ;
#193 = CONTEXT_DEPENDENT_SHAPE_REPRESENTATION ( #162, #16 ) ;
#194 = PRODUCT_DEFINITION_SHAPE ( 'NONE', 'NONE',  #388 ) ;
#195 = PROPERTY_DEFINITION ('document property','', #27 ) ;
#196 = AXIS2_PLACEMENT_3D ( 'NONE', #293, #200, #261 ) ;
#197 = APPLIED_EXTERNAL_IDENTIFICATION_ASSIGNMENT ( '6534431024.step.STEP' , #11, #43,( #368) ) ;
#198 = PROPERTY_DEFINITION_REPRESENTATION ( #195, #319 ) ;
#199 = APPROVAL_PERSON_ORGANIZATION ( #8, #295, #369 ) ;
#200 = DIRECTION ( 'NONE',  ( 4.890937612370273194E-29, -3.155443620884047222E-30, 0.9999999999999997780 ) ) ;
#201 = APPROVAL ( #2, 'Coincident' ) ;
#202 = CARTESIAN_POINT ( 'NONE',  ( 14.55000024411100235, 23.20000866699200870, -2.058321952820000078 ) ) ;
#203 = APPLIED_DOCUMENT_REFERENCE ( #27,'',( #157) ) ;
#204 = PERSON_AND_ORGANIZATION ( #18446744073709551615, #18446744073709551615 ) ;
#205 =( GEOMETRIC_REPRESENTATION_CONTEXT ( 3 ) GLOBAL_UNCERTAINTY_ASSIGNED_CONTEXT ( ( #244 ) ) GLOBAL_UNIT_ASSIGNED_CONTEXT ( ( #116, #243, #135 ) ) REPRESENTATION_CONTEXT ( 'NONE', 'WORKASPACE' ) );
#206 = CARTESIAN_POINT ( 'NONE',  ( 14.55000024411100235, 24.19999340820300660, -2.058321952820000078 ) ) ;
#207 = CC_DESIGN_PERSON_AND_ORGANIZATION_ASSIGNMENT ( #64, #349, ( #347 ) ) ;
#208 = ORGANIZATION ( 'NAUO-ORG93', 'UNSPECIFIED', 'UNSPECIFIED' ) ;
#209 = DATE_AND_TIME ( #83, #256 ) ;
#210 = CALENDAR_DATE ( 2026, 22, 6 ) ;
#211 = DATE_AND_TIME ( #143, #308 ) ;
#212 = LOCAL_TIME ( 18, 49, 55.00000000000000000, #58 ) ;
#213 = PERSON_AND_ORGANIZATION ( #18446744073709551615, #18446744073709551615 ) ;
#214 = APPLICATION_PROTOCOL_DEFINITION ( 'international standard', 'config_control_design', 1994, #134 ) ;
#215 = APPROVAL_STATUS ( 'not_yet_approved' ) ;
#216 = APPROVAL ( #311, 'UNKNOWN' ) ;
#217 = AXIS2_PLACEMENT_3D ( 'NONE', #206, #171, #174 ) ;
#218 = APPROVAL_PERSON_ORGANIZATION ( #288, #346, #232 ) ;
#219 = CONTEXT_DEPENDENT_SHAPE_REPRESENTATION ( #361, #194 ) ;
#220 = CARTESIAN_POINT ( 'NONE',  ( 0.000000000000000000, 0.000000000000000000, 0.000000000000000000 ) ) ;
#221 = DATE_AND_TIME ( #70, #185 ) ;
#222 = PERSON_AND_ORGANIZATION ( #18446744073709551615, #18446744073709551615 ) ;
#223 = AXIS2_PLACEMENT_3D ( 'NONE', #7, #312, #159 ) ;
#224 = LOCAL_TIME ( 18, 49, 55.00000000000000000, #273 ) ;
#225 = DATE_AND_TIME ( #184, #167 ) ;
#226 = DATE_AND_TIME ( #78, #387 ) ;
#227 = PRODUCT ( '6534431024.step', '6534431024.step', '', ( #183 ) ) ;
#228 = DATE_TIME_ROLE ( 'classification_date' ) ;
#229 = DOCUMENT_FILE ( '6461079856.step.STEP' , '', '', #268, '' ,$ ) ;
#230 = CC_DESIGN_PERSON_AND_ORGANIZATION_ASSIGNMENT ( #4, #87, ( #227 ) ) ;
#231 = CC_DESIGN_APPROVAL ( #29, ( #13 ) ) ;
#232 = APPROVAL_ROLE ( '' ) ;
#233 = DATE_AND_TIME ( #327, #277 ) ;
#234 = PROPERTY_DEFINITION_REPRESENTATION ( #257, #90 ) ;
#235 = APPROVAL_DATE_TIME ( #233, #322 ) ;
#236 = CC_DESIGN_DATE_AND_TIME_ASSIGNMENT ( #186, #106, ( #74 ) ) ;
#237 = PERSON_AND_ORGANIZATION ( #18446744073709551615, #18446744073709551615 ) ;
#238 = LOCAL_TIME ( 18, 49, 55.00000000000000000, #98 ) ;
#239 = COORDINATED_UNIVERSAL_TIME_OFFSET ( 10, 0, .AHEAD. ) ;
#240 = PERSON_AND_ORGANIZATION_ROLE ( 'creator' ) ;
#241 = PERSON_AND_ORGANIZATION_ROLE ( 'design_owner' ) ;
#242 = CC_DESIGN_APPROVAL ( #201, ( #149 ) ) ;
#243 =( NAMED_UNIT ( * ) PLANE_ANGLE_UNIT ( ) SI_UNIT ( $, .RADIAN. ) );
#244 = UNCERTAINTY_MEASURE_WITH_UNIT (LENGTH_MEASURE( 1.000000000000000082E-05 ), #116, 'distance_accuracy_value', 'NONE');
#245 = SECURITY_CLASSIFICATION_LEVEL ( 'unclassified' ) ;
#246 = APPROVAL ( #20, 'Coincident' ) ;
#247 = PROPERTY_DEFINITION_REPRESENTATION ( #248, #319 ) ;
#248 = PROPERTY_DEFINITION ('document property','', #229 ) ;
#249 = DATE_AND_TIME ( #343, #238 ) ;
#250 = APPROVAL_PERSON_ORGANIZATION ( #213, #93, #269 ) ;
#251 = COORDINATED_UNIVERSAL_TIME_OFFSET ( 10, 0, .AHEAD. ) ;
#252 = APPROVAL ( #337, 'Coincident' ) ;
#253 = CALENDAR_DATE ( 2026, 22, 6 ) ;
#254 = PERSON_AND_ORGANIZATION ( #18446744073709551615, #18446744073709551615 ) ;
#255 = PRODUCT_DEFINITION_SHAPE ( 'NONE', 'NONE',  #330 ) ;
#256 = LOCAL_TIME ( 18, 49, 55.00000000000000000, #359 ) ;
#257 = PROPERTY_DEFINITION ('external definition','', #368 ) ;
#258 = APPLICATION_PROTOCOL_DEFINITION ( 'international standard', 'config_control_design', 1994, #146 ) ;
#259 = PERSON_AND_ORGANIZATION_ROLE ( 'classification_officer' ) ;
#260 = CC_DESIGN_DATE_AND_TIME_ASSIGNMENT ( #110, #23, ( #330 ) ) ;
#261 = DIRECTION ( 'NONE',  ( 1.000000000000000222, -1.092455418989176591E-28, 4.890937612370273194E-29 ) ) ;
#262 = EXTERNAL_SOURCE (IDENTIFIER('') ) ;
#263 = SECURITY_CLASSIFICATION_LEVEL ( 'unclassified' ) ;
#264 = PERSON_AND_ORGANIZATION ( #18446744073709551615, #18446744073709551615 ) ;
#265 = LOCAL_TIME ( 18, 49, 55.00000000000000000, #267 ) ;
#266 = PRODUCT_DEFINITION_FORMATION_WITH_SPECIFIED_SOURCE ( 'Symmetric', '', #227, .NOT_KNOWN. ) ;
#267 = COORDINATED_UNIVERSAL_TIME_OFFSET ( 10, 0, .AHEAD. ) ;
#268 = DOCUMENT_TYPE ( 'geometry' ) ;
#269 = APPROVAL_ROLE ( '' ) ;
#270 = COORDINATED_UNIVERSAL_TIME_OFFSET ( 10, 0, .AHEAD. ) ;
#271 = APPROVAL_PERSON_ORGANIZATION ( #79, #216, #320 ) ;
#272 = PERSON ( 'NAUO-PER93', 'UNSPECIFIED', 'UNSPECIFIED', ('UNSPECIFIED'), ('UNSPECIFIED'), ('UNSPECIFIED') ) ;
#273 = COORDINATED_UNIVERSAL_TIME_OFFSET ( 10, 0, .AHEAD. ) ;
#274 =( REPRESENTATION_RELATIONSHIP ('NONE','NONE', #102, #90 ) REPRESENTATION_RELATIONSHIP_WITH_TRANSFORMATION ( #49 )SHAPE_REPRESENTATION_RELATIONSHIP( ) );
#275 = COORDINATED_UNIVERSAL_TIME_OFFSET ( 10, 0, .AHEAD. ) ;
#276 = DATE_AND_TIME ( #210, #224 ) ;
#277 = LOCAL_TIME ( 18, 49, 55.00000000000000000, #75 ) ;
#278 = PERSON ( 'NAUO-PER92', 'UNSPECIFIED', 'UNSPECIFIED', ('UNSPECIFIED'), ('UNSPECIFIED'), ('UNSPECIFIED') ) ;
#279 = APPROVAL_PERSON_ORGANIZATION ( #237, #35, #82 ) ;
#280 = CC_DESIGN_PERSON_AND_ORGANIZATION_ASSIGNMENT ( #357, #80, ( #286 ) ) ;
#281 = DATE_TIME_ROLE ( 'creation_date' ) ;
#282 = APPROVAL_STATUS ( 'not_yet_approved' ) ;
#283 = IDENTIFICATION_ROLE ( 'external document id and location', $) ;
#284 = PERSON_AND_ORGANIZATION_ROLE ( 'classification_officer' ) ;
#285 = PRODUCT_RELATED_PRODUCT_CATEGORY ( 'detail', '', ( #105 ) ) ;
#286 = PRODUCT_DEFINITION_FORMATION_WITH_SPECIFIED_SOURCE ( 'Symmetric', '', #347, .NOT_KNOWN. ) ;
#287 = SECURITY_CLASSIFICATION_LEVEL ( 'unclassified' ) ;
#288 = PERSON_AND_ORGANIZATION ( #341, #180 ) ;
#289 = CC_DESIGN_DATE_AND_TIME_ASSIGNMENT ( #225, #345, ( #18 ) ) ;
#290 = CC_DESIGN_SECURITY_CLASSIFICATION ( #18, ( #370 ) ) ;
#291 = DATE_TIME_ROLE ( 'classification_date' ) ;
#292 = PRODUCT_DEFINITION_SHAPE ( 'NONE', 'NONE',  #389 ) ;
#293 = CARTESIAN_POINT ( 'NONE',  ( 14.55000024411100235, 23.69999340820301015, -2.058321952819998302 ) ) ;
#294 = PERSON_AND_ORGANIZATION ( #18446744073709551615, #18446744073709551615 ) ;
#295 = APPROVAL ( #215, 'UNKNOWN' ) ;
#296 = SECURITY_CLASSIFICATION ( '', '', #189 ) ;
#297 = PERSON_AND_ORGANIZATION_ROLE ( 'classification_officer' ) ;
#298 = APPLICATION_PROTOCOL_DEFINITION ( 'international standard', 'config_control_design', 1994, #86 ) ;
#299 = COORDINATED_UNIVERSAL_TIME_OFFSET ( 10, 0, .AHEAD. ) ;
#300 = APPLICATION_CONTEXT ( 'configuration controlled 3d designs of mechanical parts and assemblies' ) ;
#301 = LOCAL_TIME ( 18, 49, 55.00000000000000000, #338 ) ;
#302 = APPROVAL_STATUS ( 'not_yet_approved' ) ;
#303 = APPROVAL_ROLE ( '' ) ;
#304 = DIRECTION ( 'NONE',  ( 0.000000000000000000, 0.000000000000000000, 1.000000000000000000 ) ) ;
#305 = PERSON_AND_ORGANIZATION ( #18446744073709551615, #18446744073709551615 ) ;
#306 = CC_DESIGN_PERSON_AND_ORGANIZATION_ASSIGNMENT ( #313, #152, ( #370 ) ) ;
#307 = DATE_AND_TIME ( #96, #364 ) ;
#308 = LOCAL_TIME ( 18, 49, 55.00000000000000000, #31 ) ;
#309 =( NAMED_UNIT ( * ) SI_UNIT ( $, .STERADIAN. ) SOLID_ANGLE_UNIT ( ) );
#310 = COORDINATED_UNIVERSAL_TIME_OFFSET ( 10, 0, .AHEAD. ) ;
#311 = APPROVAL_STATUS ( 'not_yet_approved' ) ;
#312 = DIRECTION ( 'NONE',  ( 0.000000000000000000, 0.000000000000000000, 1.000000000000000000 ) ) ;
#313 = PERSON_AND_ORGANIZATION ( #18446744073709551615, #18446744073709551615 ) ;
#314 = APPROVAL_PERSON_ORGANIZATION ( #222, #382, #342 ) ;
#315 = PROPERTY_DEFINITION_REPRESENTATION ( #367, #319 ) ;
#316 = COORDINATED_UNIVERSAL_TIME_OFFSET ( 10, 0, .AHEAD. ) ;
#317 = COORDINATED_UNIVERSAL_TIME_OFFSET ( 10, 0, .AHEAD. ) ;
#318 = CC_DESIGN_APPROVAL ( #382, ( #18 ) ) ;
#319 = SHAPE_REPRESENTATION ( '6461079856.step', ( #144 ), #119 ) ;
#320 = APPROVAL_ROLE ( '' ) ;
#321 = CALENDAR_DATE ( 2026, 22, 6 ) ;
#322 = APPROVAL ( #381, 'Coincident' ) ;
#323 =( NAMED_UNIT ( * ) SI_UNIT ( $, .STERADIAN. ) SOLID_ANGLE_UNIT ( ) );
#324 = PERSON_AND_ORGANIZATION_ROLE ( 'classification_officer' ) ;
#325 = PERSON_AND_ORGANIZATION_ROLE ( 'design_supplier' ) ;
#326 = CC_DESIGN_SECURITY_CLASSIFICATION ( #57, ( #390 ) ) ;
#327 = CALENDAR_DATE ( 2026, 22, 6 ) ;
#328 = DESIGN_CONTEXT ( 'detailed design', #86, 'design' ) ;
#329 = APPROVAL_ROLE ( '' ) ;
#330 = PRODUCT_DEFINITION ( 'General', '', #286, #92 ) ;
#331 = DATE_AND_TIME ( #122, #48 ) ;
#332 = UNCERTAINTY_MEASURE_WITH_UNIT (LENGTH_MEASURE( 1.000000000000000082E-05 ), #150, 'distance_accuracy_value', 'NONE');
#333 = CC_DESIGN_SECURITY_CLASSIFICATION ( #149, ( #286 ) ) ;
#334 = DATE_TIME_ROLE ( 'creation_date' ) ;
#335 = CC_DESIGN_PERSON_AND_ORGANIZATION_ASSIGNMENT ( #55, #297, ( #149 ) ) ;
#336 = APPROVAL_DATE_TIME ( #211, #252 ) ;
#337 = APPROVAL_STATUS ( 'not_yet_approved' ) ;
#338 = COORDINATED_UNIVERSAL_TIME_OFFSET ( 10, 0, .AHEAD. ) ;
#339 = CC_DESIGN_APPROVAL ( #346, ( #57 ) ) ;
#340 = COORDINATED_UNIVERSAL_TIME_OFFSET ( 10, 0, .AHEAD. ) ;
#341 = PERSON ( 'NAUO-PER94', 'UNSPECIFIED', 'UNSPECIFIED', ('UNSPECIFIED'), ('UNSPECIFIED'), ('UNSPECIFIED') ) ;
#342 = APPROVAL_ROLE ( '' ) ;
#343 = CALENDAR_DATE ( 2026, 22, 6 ) ;
#344 = LOCAL_TIME ( 18, 49, 55.00000000000000000, #310 ) ;
#345 = DATE_TIME_ROLE ( 'classification_date' ) ;
#346 = APPROVAL ( #354, 'UNKNOWN' ) ;
#347 = PRODUCT ( 'R26.step', 'R26.step', '', ( #71 ) ) ;
#348 = ITEM_DEFINED_TRANSFORMATION ( 'NONE', 'NONE', #81,  #144 ) ;
#349 = PERSON_AND_ORGANIZATION_ROLE ( 'design_owner' ) ;
#350 = PROPERTY_DEFINITION ('document property','', #368 ) ;
#351 = APPROVAL_DATE_TIME ( #385, #246 ) ;
#352 = CC_DESIGN_PERSON_AND_ORGANIZATION_ASSIGNMENT ( #360, #147, ( #13 ) ) ;
#353 = CC_DESIGN_APPROVAL ( #216, ( #74 ) ) ;
#354 = APPROVAL_STATUS ( 'not_yet_approved' ) ;
#355 = DIRECTION ( 'NONE',  ( 4.890937612370273194E-29, -3.155443620884047222E-30, 0.9999999999999997780 ) ) ;
#356 = PROPERTY_DEFINITION_REPRESENTATION ( #350, #90 ) ;
#357 = PERSON_AND_ORGANIZATION ( #18446744073709551615, #18446744073709551615 ) ;
#358 = CC_DESIGN_APPROVAL ( #93, ( #157 ) ) ;
#359 = COORDINATED_UNIVERSAL_TIME_OFFSET ( 10, 0, .AHEAD. ) ;
#360 = PERSON_AND_ORGANIZATION ( #18446744073709551615, #18446744073709551615 ) ;
#361 =( REPRESENTATION_RELATIONSHIP ('NONE','NONE', #102, #319 ) REPRESENTATION_RELATIONSHIP_WITH_TRANSFORMATION ( #14 )SHAPE_REPRESENTATION_RELATIONSHIP( ) );
#362 = PERSON_AND_ORGANIZATION ( #18446744073709551615, #18446744073709551615 ) ;
#363 =( GEOMETRIC_REPRESENTATION_CONTEXT ( 3 ) GLOBAL_UNCERTAINTY_ASSIGNED_CONTEXT ( ( #37 ) ) GLOBAL_UNIT_ASSIGNED_CONTEXT ( ( #137, #109, #323 ) ) REPRESENTATION_CONTEXT ( 'NONE', 'WORKASPACE' ) );
#364 = LOCAL_TIME ( 18, 49, 55.00000000000000000, #128 ) ;
#365 = APPLICATION_PROTOCOL_DEFINITION ( 'international standard', 'config_control_design', 1994, #118 ) ;
#366 = CALENDAR_DATE ( 2026, 22, 6 ) ;
#367 = PROPERTY_DEFINITION ('external definition','', #229 ) ;
#368 = DOCUMENT_FILE ( '6534431024.step.STEP' , '', '', #155, '' ,$ ) ;
#369 = APPROVAL_ROLE ( '' ) ;
#370 = PRODUCT_DEFINITION_FORMATION_WITH_SPECIFIED_SOURCE ( 'Symmetric', '', #105, .NOT_KNOWN. ) ;
#371 = APPROVAL_STATUS ( 'not_yet_approved' ) ;
#372 = PERSON_AND_ORGANIZATION_ROLE ( 'design_supplier' ) ;
#373 = CC_DESIGN_DATE_AND_TIME_ASSIGNMENT ( #221, #281, ( #157 ) ) ;
#374 = SHAPE_DEFINITION_REPRESENTATION ( #51, #319 ) ;
#375 = CC_DESIGN_APPROVAL ( #252, ( #164 ) ) ;
#376 = PROPERTY_DEFINITION ('external definition','', #27 ) ;
#377 = APPROVAL_DATE_TIME ( #54, #216 ) ;
#378 = SECURITY_CLASSIFICATION_LEVEL ( 'unclassified' ) ;
#379 = IDENTIFICATION_ROLE ( 'external document id and location', $) ;
#380 = COORDINATED_UNIVERSAL_TIME_OFFSET ( 10, 0, .AHEAD. ) ;
#381 = APPROVAL_STATUS ( 'not_yet_approved' ) ;
#382 = APPROVAL ( #282, 'Coincident' ) ;
#383 = APPROVAL_PERSON_ORGANIZATION ( #91, #29, #303 ) ;
#384 = PERSON_AND_ORGANIZATION_ROLE ( 'creator' ) ;
#385 = DATE_AND_TIME ( #321, #265 ) ;
#386 = CC_DESIGN_PERSON_AND_ORGANIZATION_ASSIGNMENT ( #8, #284, ( #296 ) ) ;
#387 = LOCAL_TIME ( 18, 49, 55.00000000000000000, #380 ) ;
#388 = NEXT_ASSEMBLY_USAGE_OCCURRENCE ( 'NAUO92', ' ', ' ', #330, #157, $ ) ;
#389 = NEXT_ASSEMBLY_USAGE_OCCURRENCE ( 'NAUO93', ' ', ' ', #330, #164, $ ) ;
#390 = NEXT_ASSEMBLY_USAGE_OCCURRENCE ( 'NAUO94', ' ', ' ', #330, #157, $ ) ;
ENDSEC;
END-ISO-10303-21;
