ISO-10303-21;
HEADER;
FILE_DESCRIPTION (( 'STEP AP203' ),
    '1' );
FILE_NAME ('R27.step.STEP',
    '2026-06-22T08:49:54',
    ( 'localuser' ),
    ( '' ),
    'SwSTEP 2.0',
    'SolidWorks 2025',
    '' );
FILE_SCHEMA (( 'CONFIG_CONTROL_DESIGN' ));
ENDSEC;

DATA;
#1 = APPROVAL ( #269, 'Coincident' ) ;
#2 = DATE_AND_TIME ( #76, #289 ) ;
#3 =( LENGTH_UNIT ( ) NAMED_UNIT ( * ) SI_UNIT ( .MILLI., .METRE. ) );
#4 = COORDINATED_UNIVERSAL_TIME_OFFSET ( 10, 0, .AHEAD. ) ;
#5 = DATE_AND_TIME ( #98, #373 ) ;
#6 = CC_DESIGN_SECURITY_CLASSIFICATION ( #222, ( #389 ) ) ;
#7 = APPROVAL_DATE_TIME ( #5, #333 ) ;
#8 = APPROVAL ( #143, 'Coincident' ) ;
#9 = APPROVAL_DATE_TIME ( #335, #144 ) ;
#10 = COORDINATED_UNIVERSAL_TIME_OFFSET ( 10, 0, .AHEAD. ) ;
#11 = AXIS2_PLACEMENT_3D ( 'NONE', #136, #322, #301 ) ;
#12 = CC_DESIGN_APPROVAL ( #276, ( #288 ) ) ;
#13 = PRODUCT_RELATED_PRODUCT_CATEGORY ( 'detail', '', ( #350 ) ) ;
#14 = ITEM_DEFINED_TRANSFORMATION ( 'NONE', 'NONE', #340,  #11 ) ;
#15 = LOCAL_TIME ( 18, 49, 54.00000000000000000, #343 ) ;
#16 = DATE_TIME_ROLE ( 'classification_date' ) ;
#17 = ITEM_DEFINED_TRANSFORMATION ( 'NONE', 'NONE', #372,  #347 ) ;
#18 = CC_DESIGN_PERSON_AND_ORGANIZATION_ASSIGNMENT ( #309, #154, ( #128 ) ) ;
#19 = DIRECTION ( 'NONE',  ( 0.000000000000000000, 0.000000000000000000, 1.000000000000000000 ) ) ;
#20 = DATE_AND_TIME ( #168, #73 ) ;
#21 = CARTESIAN_POINT ( 'NONE',  ( 0.000000000000000000, 0.000000000000000000, 0.000000000000000000 ) ) ;
#22 = COORDINATED_UNIVERSAL_TIME_OFFSET ( 10, 0, .AHEAD. ) ;
#23 = COORDINATED_UNIVERSAL_TIME_OFFSET ( 10, 0, .AHEAD. ) ;
#24 = AXIS2_PLACEMENT_3D ( 'NONE', #21, #19, #299 ) ;
#25 = COORDINATED_UNIVERSAL_TIME_OFFSET ( 10, 0, .AHEAD. ) ;
#26 = ORGANIZATION ( 'NAUO-ORG67', 'UNSPECIFIED', 'UNSPECIFIED' ) ;
#27 = APPROVAL_PERSON_ORGANIZATION ( #199, #200, #146 ) ;
#28 = COORDINATED_UNIVERSAL_TIME_OFFSET ( 10, 0, .AHEAD. ) ;
#29 = UNCERTAINTY_MEASURE_WITH_UNIT (LENGTH_MEASURE( 1.000000000000000082E-05 ), #346, 'distance_accuracy_value', 'NONE');
#30 = ROLE_ASSOCIATION ( #145, #183 ) ;
#31 = PERSON_AND_ORGANIZATION ( #18446744073709551615, #18446744073709551615 ) ;
#32 = APPROVAL ( #323, 'UNKNOWN' ) ;
#33 = PERSON_AND_ORGANIZATION_ROLE ( 'classification_officer' ) ;
#34 = DATE_AND_TIME ( #148, #56 ) ;
#35 = DOCUMENT_TYPE ( 'geometry' ) ;
#36 = APPROVAL_STATUS ( 'not_yet_approved' ) ;
#37 = CC_DESIGN_DATE_AND_TIME_ASSIGNMENT ( #66, #189, ( #187 ) ) ;
#38 = CALENDAR_DATE ( 2026, 22, 6 ) ;
#39 = AXIS2_PLACEMENT_3D ( 'NONE', #364, #87, #282 ) ;
#40 = CC_DESIGN_APPROVAL ( #58, ( #311 ) ) ;
#41 = PRODUCT_DEFINITION_SHAPE ( 'NONE', 'NONE',  #390 ) ;
#42 = CC_DESIGN_PERSON_AND_ORGANIZATION_ASSIGNMENT ( #310, #33, ( #311 ) ) ;
#43 = PRODUCT_DEFINITION_SHAPE ( 'NONE', 'NONE',  #388 ) ;
#44 = PROPERTY_DEFINITION_REPRESENTATION ( #245, #69 ) ;
#45 = PRODUCT_DEFINITION_FORMATION_WITH_SPECIFIED_SOURCE ( 'Symmetric', '', #102, .NOT_KNOWN. ) ;
#46 = SHAPE_DEFINITION_REPRESENTATION ( #191, #69 ) ;
#47 = PERSON_AND_ORGANIZATION ( #18446744073709551615, #18446744073709551615 ) ;
#48 = COORDINATED_UNIVERSAL_TIME_OFFSET ( 10, 0, .AHEAD. ) ;
#49 = APPROVAL_PERSON_ORGANIZATION ( #162, #193, #321 ) ;
#50 = APPROVAL_ROLE ( '' ) ;
#51 = CALENDAR_DATE ( 2026, 22, 6 ) ;
#52 = APPROVAL_ROLE ( '' ) ;
#53 = APPROVAL_DATE_TIME ( #117, #1 ) ;
#54 = APPROVAL_PERSON_ORGANIZATION ( #171, #152, #52 ) ;
#55 = CALENDAR_DATE ( 2026, 22, 6 ) ;
#56 = LOCAL_TIME ( 18, 49, 54.00000000000000000, #244 ) ;
#57 = PERSON_AND_ORGANIZATION_ROLE ( 'creator' ) ;
#58 = APPROVAL ( #101, 'Coincident' ) ;
#59 = DATE_AND_TIME ( #371, #100 ) ;
#60 = PROPERTY_DEFINITION_REPRESENTATION ( #290, #336 ) ;
#61 =( NAMED_UNIT ( * ) SI_UNIT ( $, .STERADIAN. ) SOLID_ANGLE_UNIT ( ) );
#62 = PERSON_AND_ORGANIZATION ( #18446744073709551615, #18446744073709551615 ) ;
#63 = ORGANIZATION ( 'NAUO-ORG66', 'UNSPECIFIED', 'UNSPECIFIED' ) ;
#64 = APPROVAL_STATUS ( 'not_yet_approved' ) ;
#65 = CC_DESIGN_PERSON_AND_ORGANIZATION_ASSIGNMENT ( #246, #217, ( #247 ) ) ;
#66 = DATE_AND_TIME ( #370, #15 ) ;
#67 = ROLE_ASSOCIATION ( #99, #379 ) ;
#68 = APPLICATION_CONTEXT ( 'configuration controlled 3d designs of mechanical parts and assemblies' ) ;
#69 = SHAPE_REPRESENTATION ( '6534431024.step', ( #347 ), #325 ) ;
#70 = DIRECTION ( 'NONE',  ( 0.000000000000000000, 0.000000000000000000, 1.000000000000000000 ) ) ;
#71 = APPROVAL_DATE_TIME ( #140, #152 ) ;
#72 = APPLIED_DOCUMENT_REFERENCE ( #179,'',( #288) ) ;
#73 = LOCAL_TIME ( 18, 49, 54.00000000000000000, #48 ) ;
#74 = CC_DESIGN_PERSON_AND_ORGANIZATION_ASSIGNMENT ( #181, #118, ( #128 ) ) ;
#75 = APPROVAL_STATUS ( 'not_yet_approved' ) ;
#76 = CALENDAR_DATE ( 2026, 22, 6 ) ;
#77 = SECURITY_CLASSIFICATION_LEVEL ( 'unclassified' ) ;
#78 = PERSON_AND_ORGANIZATION_ROLE ( 'creator' ) ;
#79 = COORDINATED_UNIVERSAL_TIME_OFFSET ( 10, 0, .AHEAD. ) ;
#80 = APPROVAL_PERSON_ORGANIZATION ( #341, #1, #50 ) ;
#81 = LOCAL_TIME ( 18, 49, 54.00000000000000000, #23 ) ;
#82 = MECHANICAL_CONTEXT ( 'NONE', #319, 'mechanical' ) ;
#83 = DESIGN_CONTEXT ( 'detailed design', #153, 'design' ) ;
#84 = DATE_TIME_ROLE ( 'classification_date' ) ;
#85 = PERSON_AND_ORGANIZATION ( #94, #26 ) ;
#86 = APPROVAL_STATUS ( 'not_yet_approved' ) ;
#87 = DIRECTION ( 'NONE',  ( 4.890937612370273194E-29, -3.155443620884047222E-30, 0.9999999999999997780 ) ) ;
#88 = SECURITY_CLASSIFICATION ( '', '', #265 ) ;
#89 = PERSON_AND_ORGANIZATION ( #18446744073709551615, #18446744073709551615 ) ;
#90 = LOCAL_TIME ( 18, 49, 54.00000000000000000, #264 ) ;
#91 = CC_DESIGN_PERSON_AND_ORGANIZATION_ASSIGNMENT ( #208, #111, ( #160 ) ) ;
#92 = DATE_AND_TIME ( #38, #130 ) ;
#93 = DATE_TIME_ROLE ( 'creation_date' ) ;
#94 = PERSON ( 'NAUO-PER67', 'UNSPECIFIED', 'UNSPECIFIED', ('UNSPECIFIED'), ('UNSPECIFIED'), ('UNSPECIFIED') ) ;
#95 = DOCUMENT_TYPE ( 'geometry' ) ;
#96 = APPROVAL_STATUS ( 'not_yet_approved' ) ;
#97 = LOCAL_TIME ( 18, 49, 54.00000000000000000, #198 ) ;
#98 = CALENDAR_DATE ( 2026, 22, 6 ) ;
#99 = OBJECT_ROLE ('mandatory',$ ) ;
#100 = LOCAL_TIME ( 18, 49, 54.00000000000000000, #287 ) ;
#101 = APPROVAL_STATUS ( 'not_yet_approved' ) ;
#102 = PRODUCT ( '6534431024.step', '6534431024.step', '', ( #184 ) ) ;
#103 = CONTEXT_DEPENDENT_SHAPE_REPRESENTATION ( #251, #349 ) ;
#104 =( NAMED_UNIT ( * ) SI_UNIT ( $, .STERADIAN. ) SOLID_ANGLE_UNIT ( ) );
#105 = CC_DESIGN_PERSON_AND_ORGANIZATION_ASSIGNMENT ( #31, #249, ( #187 ) ) ;
#106 = UNCERTAINTY_MEASURE_WITH_UNIT (LENGTH_MEASURE( 1.000000000000000082E-05 ), #3, 'distance_accuracy_value', 'NONE');
#107 = LOCAL_TIME ( 18, 49, 54.00000000000000000, #330 ) ;
#108 = DATE_AND_TIME ( #316, #271 ) ;
#109 = LOCAL_TIME ( 18, 49, 54.00000000000000000, #386 ) ;
#110 = DOCUMENT_FILE ( '6461079856.step.STEP' , '', '', #274, '' ,$ ) ;
#111 = PERSON_AND_ORGANIZATION_ROLE ( 'design_supplier' ) ;
#112 = DATE_AND_TIME ( #260, #109 ) ;
#113 = APPLICATION_PROTOCOL_DEFINITION ( 'international standard', 'config_control_design', 1994, #219 ) ;
#114 = CC_DESIGN_APPROVAL ( #177, ( #128 ) ) ;
#115 = APPLICATION_PROTOCOL_DEFINITION ( 'international standard', 'config_control_design', 1994, #182 ) ;
#116 = DIRECTION ( 'NONE',  ( 4.890937612370273194E-29, -3.155443620884047222E-30, 0.9999999999999997780 ) ) ;
#117 = DATE_AND_TIME ( #356, #216 ) ;
#118 = PERSON_AND_ORGANIZATION_ROLE ( 'creator' ) ;
#119 = APPLICATION_CONTEXT ( 'configuration controlled 3d designs of mechanical parts and assemblies' ) ;
#120 =( NAMED_UNIT ( * ) PLANE_ANGLE_UNIT ( ) SI_UNIT ( $, .RADIAN. ) );
#121 = COORDINATED_UNIVERSAL_TIME_OFFSET ( 10, 0, .AHEAD. ) ;
#122 = CC_DESIGN_APPROVAL ( #152, ( #247 ) ) ;
#123 = DATE_AND_TIME ( #281, #161 ) ;
#124 = CALENDAR_DATE ( 2026, 22, 6 ) ;
#125 = CC_DESIGN_DATE_AND_TIME_ASSIGNMENT ( #20, #84, ( #178 ) ) ;
#126 = PERSON_AND_ORGANIZATION ( #18446744073709551615, #18446744073709551615 ) ;
#127 = CC_DESIGN_APPROVAL ( #200, ( #160 ) ) ;
#128 = PRODUCT_DEFINITION_FORMATION_WITH_SPECIFIED_SOURCE ( 'Symmetric', '', #225, .NOT_KNOWN. ) ;
#129 = CC_DESIGN_PERSON_AND_ORGANIZATION_ASSIGNMENT ( #62, #242, ( #45 ) ) ;
#130 = LOCAL_TIME ( 18, 49, 54.00000000000000000, #10 ) ;
#131 = PROPERTY_DEFINITION ('document property','', #110 ) ;
#132 = CC_DESIGN_PERSON_AND_ORGANIZATION_ASSIGNMENT ( #234, #358, ( #225 ) ) ;
#133 = PROPERTY_DEFINITION_REPRESENTATION ( #378, #336 ) ;
#134 = APPROVAL_ROLE ( '' ) ;
#135 =( REPRESENTATION_RELATIONSHIP ('NONE','NONE', #224, #69 ) REPRESENTATION_RELATIONSHIP_WITH_TRANSFORMATION ( #17 )SHAPE_REPRESENTATION_RELATIONSHIP( ) );
#136 = CARTESIAN_POINT ( 'NONE',  ( 0.000000000000000000, 0.000000000000000000, 0.000000000000000000 ) ) ;
#137 = DATE_AND_TIME ( #302, #107 ) ;
#138 = DATE_TIME_ROLE ( 'classification_date' ) ;
#139 = PERSON_AND_ORGANIZATION ( #18446744073709551615, #18446744073709551615 ) ;
#140 = DATE_AND_TIME ( #173, #156 ) ;
#141 =( GEOMETRIC_REPRESENTATION_CONTEXT ( 3 ) GLOBAL_UNCERTAINTY_ASSIGNED_CONTEXT ( ( #106 ) ) GLOBAL_UNIT_ASSIGNED_CONTEXT ( ( #3, #294, #61 ) ) REPRESENTATION_CONTEXT ( 'NONE', 'WORKASPACE' ) );
#142 = CC_DESIGN_APPROVAL ( #144, ( #45 ) ) ;
#143 = APPROVAL_STATUS ( 'not_yet_approved' ) ;
#144 = APPROVAL ( #339, 'Coincident' ) ;
#145 = OBJECT_ROLE ('mandatory',$ ) ;
#146 = APPROVAL_ROLE ( '' ) ;
#147 = CALENDAR_DATE ( 2026, 22, 6 ) ;
#148 = CALENDAR_DATE ( 2026, 22, 6 ) ;
#149 = PERSON_AND_ORGANIZATION_ROLE ( 'creator' ) ;
#150 = APPLIED_EXTERNAL_IDENTIFICATION_ASSIGNMENT ( '6461079856.step.STEP' , #210, #354,( #192) ) ;
#151 = PERSON_AND_ORGANIZATION ( #18446744073709551615, #18446744073709551615 ) ;
#152 = APPROVAL ( #267, 'Coincident' ) ;
#153 = APPLICATION_CONTEXT ( 'configuration controlled 3d designs of mechanical parts and assemblies' ) ;
#154 = PERSON_AND_ORGANIZATION_ROLE ( 'design_supplier' ) ;
#155 = DATE_TIME_ROLE ( 'creation_date' ) ;
#156 = LOCAL_TIME ( 18, 49, 54.00000000000000000, #22 ) ;
#157 = CC_DESIGN_DATE_AND_TIME_ASSIGNMENT ( #137, #272, ( #256 ) ) ;
#158 = IDENTIFICATION_ROLE ( 'external document id and location', $) ;
#159 = PRODUCT_DEFINITION_SHAPE ( 'NONE', 'NONE',  #256 ) ;
#160 = PRODUCT_DEFINITION_FORMATION_WITH_SPECIFIED_SOURCE ( 'Symmetric', '', #350, .NOT_KNOWN. ) ;
#161 = LOCAL_TIME ( 18, 49, 54.00000000000000000, #212 ) ;
#162 = PERSON_AND_ORGANIZATION ( #195, #63 ) ;
#163 = DESIGN_CONTEXT ( 'detailed design', #182, 'design' ) ;
#164 = CC_DESIGN_PERSON_AND_ORGANIZATION_ASSIGNMENT ( #176, #167, ( #350 ) ) ;
#165 = ITEM_DEFINED_TRANSFORMATION ( 'NONE', 'NONE', #39,  #11 ) ;
#166 = PROPERTY_DEFINITION_REPRESENTATION ( #369, #69 ) ;
#167 = PERSON_AND_ORGANIZATION_ROLE ( 'design_owner' ) ;
#168 = CALENDAR_DATE ( 2026, 22, 6 ) ;
#169 = APPROVAL_PERSON_ORGANIZATION ( #215, #144, #186 ) ;
#170 = CC_DESIGN_PERSON_AND_ORGANIZATION_ASSIGNMENT ( #85, #361, ( #178 ) ) ;
#171 = PERSON_AND_ORGANIZATION ( #18446744073709551615, #18446744073709551615 ) ;
#172 = DATE_AND_TIME ( #204, #190 ) ;
#173 = CALENDAR_DATE ( 2026, 22, 6 ) ;
#174 = PROPERTY_DEFINITION_REPRESENTATION ( #223, #336 ) ;
#175 = DIRECTION ( 'NONE',  ( 1.000000000000000000, 0.000000000000000000, 0.000000000000000000 ) ) ;
#176 = PERSON_AND_ORGANIZATION ( #18446744073709551615, #18446744073709551615 ) ;
#177 = APPROVAL ( #96, 'Coincident' ) ;
#178 = SECURITY_CLASSIFICATION ( '', '', #77 ) ;
#179 = DOCUMENT_FILE ( '6534431024.step.STEP' , '', '', #95, '' ,$ ) ;
#180 = APPROVAL_DATE_TIME ( #338, #32 ) ;
#181 = PERSON_AND_ORGANIZATION ( #18446744073709551615, #18446744073709551615 ) ;
#182 = APPLICATION_CONTEXT ( 'configuration controlled 3d designs of mechanical parts and assemblies' ) ;
#183 = APPLIED_DOCUMENT_REFERENCE ( #192,'',( #247) ) ;
#184 = MECHANICAL_CONTEXT ( 'NONE', #68, 'mechanical' ) ;
#185 = CC_DESIGN_PERSON_AND_ORGANIZATION_ASSIGNMENT ( #139, #230, ( #88 ) ) ;
#186 = APPROVAL_ROLE ( '' ) ;
#187 = SECURITY_CLASSIFICATION ( '', '', #314 ) ;
#188 = PERSON_AND_ORGANIZATION ( #18446744073709551615, #18446744073709551615 ) ;
#189 = DATE_TIME_ROLE ( 'classification_date' ) ;
#190 = LOCAL_TIME ( 18, 49, 54.00000000000000000, #79 ) ;
#191 = PRODUCT_DEFINITION_SHAPE ( 'NONE', 'NONE',  #288 ) ;
#192 = DOCUMENT_FILE ( '6461079856.step.STEP' , '', '', #35, '' ,$ ) ;
#193 = APPROVAL ( #75, 'UNKNOWN' ) ;
#194 = CC_DESIGN_APPROVAL ( #32, ( #178 ) ) ;
#195 = PERSON ( 'NAUO-PER66', 'UNSPECIFIED', 'UNSPECIFIED', ('UNSPECIFIED'), ('UNSPECIFIED'), ('UNSPECIFIED') ) ;
#196 = SECURITY_CLASSIFICATION ( '', '', #266 ) ;
#197 = APPROVAL_DATE_TIME ( #201, #193 ) ;
#198 = COORDINATED_UNIVERSAL_TIME_OFFSET ( 10, 0, .AHEAD. ) ;
#199 = PERSON_AND_ORGANIZATION ( #18446744073709551615, #18446744073709551615 ) ;
#200 = APPROVAL ( #86, 'Coincident' ) ;
#201 = DATE_AND_TIME ( #227, #97 ) ;
#202 =( REPRESENTATION_RELATIONSHIP ('NONE','NONE', #224, #336 ) REPRESENTATION_RELATIONSHIP_WITH_TRANSFORMATION ( #165 )SHAPE_REPRESENTATION_RELATIONSHIP( ) );
#203 = PERSON_AND_ORGANIZATION ( #18446744073709551615, #18446744073709551615 ) ;
#204 = CALENDAR_DATE ( 2026, 22, 6 ) ;
#205 = CC_DESIGN_SECURITY_CLASSIFICATION ( #311, ( #45 ) ) ;
#206 = DATE_AND_TIME ( #331, #228 ) ;
#207 = PERSON_AND_ORGANIZATION ( #18446744073709551615, #18446744073709551615 ) ;
#208 = PERSON_AND_ORGANIZATION ( #18446744073709551615, #18446744073709551615 ) ;
#209 = DIRECTION ( 'NONE',  ( 4.890937612370273194E-29, -3.155443620884047222E-30, 0.9999999999999997780 ) ) ;
#210 = IDENTIFICATION_ROLE ( 'external document id and location', $) ;
#211 = LOCAL_TIME ( 18, 49, 54.00000000000000000, #233 ) ;
#212 = COORDINATED_UNIVERSAL_TIME_OFFSET ( 10, 0, .AHEAD. ) ;
#213 = APPROVAL_ROLE ( '' ) ;
#214 = CC_DESIGN_DATE_AND_TIME_ASSIGNMENT ( #172, #138, ( #196 ) ) ;
#215 = PERSON_AND_ORGANIZATION ( #18446744073709551615, #18446744073709551615 ) ;
#216 = LOCAL_TIME ( 18, 49, 54.00000000000000000, #28 ) ;
#217 = PERSON_AND_ORGANIZATION_ROLE ( 'creator' ) ;
#218 = CC_DESIGN_APPROVAL ( #333, ( #187 ) ) ;
#219 = APPLICATION_CONTEXT ( 'configuration controlled 3d designs of mechanical parts and assemblies' ) ;
#220 = PERSON_AND_ORGANIZATION_ROLE ( 'design_owner' ) ;
#221 = CC_DESIGN_DATE_AND_TIME_ASSIGNMENT ( #2, #239, ( #88 ) ) ;
#222 = SECURITY_CLASSIFICATION ( '', '', #380 ) ;
#223 = PROPERTY_DEFINITION ('document property','', #192 ) ;
#224 = SHAPE_REPRESENTATION ( 'R27.step', ( #24, #372, #340, #39 ), #262 ) ;
#225 = PRODUCT ( '6461079856.step', '6461079856.step', '', ( #324 ) ) ;
#226 = DATE_AND_TIME ( #51, #90 ) ;
#227 = CALENDAR_DATE ( 2026, 22, 6 ) ;
#228 = LOCAL_TIME ( 18, 49, 54.00000000000000000, #363 ) ;
#229 = APPROVAL_DATE_TIME ( #112, #385 ) ;
#230 = PERSON_AND_ORGANIZATION_ROLE ( 'classification_officer' ) ;
#231 = DATE_AND_TIME ( #298, #211 ) ;
#232 = SHAPE_DEFINITION_REPRESENTATION ( #159, #224 ) ;
#233 = COORDINATED_UNIVERSAL_TIME_OFFSET ( 10, 0, .AHEAD. ) ;
#234 = PERSON_AND_ORGANIZATION ( #18446744073709551615, #18446744073709551615 ) ;
#235 = APPLIED_EXTERNAL_IDENTIFICATION_ASSIGNMENT ( '6534431024.step.STEP' , #259, #237,( #179) ) ;
#236 = PERSON_AND_ORGANIZATION_ROLE ( 'creator' ) ;
#237 = EXTERNAL_SOURCE (IDENTIFIER('') ) ;
#238 = CC_DESIGN_PERSON_AND_ORGANIZATION_ASSIGNMENT ( #207, #236, ( #256 ) ) ;
#239 = DATE_TIME_ROLE ( 'classification_date' ) ;
#240 = DIRECTION ( 'NONE',  ( 1.000000000000000222, -1.092455418989176591E-28, 4.890937612370273194E-29 ) ) ;
#241 = APPROVAL_ROLE ( '' ) ;
#242 = PERSON_AND_ORGANIZATION_ROLE ( 'design_supplier' ) ;
#243 = CC_DESIGN_DATE_AND_TIME_ASSIGNMENT ( #108, #16, ( #222 ) ) ;
#244 = COORDINATED_UNIVERSAL_TIME_OFFSET ( 10, 0, .AHEAD. ) ;
#245 = PROPERTY_DEFINITION ('external definition','', #179 ) ;
#246 = PERSON_AND_ORGANIZATION ( #18446744073709551615, #18446744073709551615 ) ;
#247 = PRODUCT_DEFINITION ( 'General', '', #128, #163 ) ;
#248 = CC_DESIGN_APPROVAL ( #1, ( #256 ) ) ;
#249 = PERSON_AND_ORGANIZATION_ROLE ( 'classification_officer' ) ;
#250 = CARTESIAN_POINT ( 'NONE',  ( 9.950001769990002742, 23.85000256347700187, -2.058321952820000078 ) ) ;
#251 =( REPRESENTATION_RELATIONSHIP ('NONE','NONE', #224, #336 ) REPRESENTATION_RELATIONSHIP_WITH_TRANSFORMATION ( #14 )SHAPE_REPRESENTATION_RELATIONSHIP( ) );
#252 = CARTESIAN_POINT ( 'NONE',  ( 0.000000000000000000, 0.000000000000000000, 0.000000000000000000 ) ) ;
#253 =( NAMED_UNIT ( * ) PLANE_ANGLE_UNIT ( ) SI_UNIT ( $, .RADIAN. ) );
#254 = PRODUCT_DEFINITION_SHAPE ( 'NONE', 'NONE',  #247 ) ;
#255 = ORGANIZATION ( 'NAUO-ORG65', 'UNSPECIFIED', 'UNSPECIFIED' ) ;
#256 = PRODUCT_DEFINITION ( 'General', '', #160, #83 ) ;
#257 = COORDINATED_UNIVERSAL_TIME_OFFSET ( 10, 0, .AHEAD. ) ;
#258 = CONTEXT_DEPENDENT_SHAPE_REPRESENTATION ( #135, #43 ) ;
#259 = IDENTIFICATION_ROLE ( 'external document id and location', $) ;
#260 = CALENDAR_DATE ( 2026, 22, 6 ) ;
#261 = CC_DESIGN_DATE_AND_TIME_ASSIGNMENT ( #123, #93, ( #288 ) ) ;
#262 =( GEOMETRIC_REPRESENTATION_CONTEXT ( 3 ) GLOBAL_UNCERTAINTY_ASSIGNED_CONTEXT ( ( #29 ) ) GLOBAL_UNIT_ASSIGNED_CONTEXT ( ( #346, #253, #104 ) ) REPRESENTATION_CONTEXT ( 'NONE', 'WORKASPACE' ) );
#263 = LOCAL_TIME ( 18, 49, 54.00000000000000000, #121 ) ;
#264 = COORDINATED_UNIVERSAL_TIME_OFFSET ( 10, 0, .AHEAD. ) ;
#265 = SECURITY_CLASSIFICATION_LEVEL ( 'unclassified' ) ;
#266 = SECURITY_CLASSIFICATION_LEVEL ( 'unclassified' ) ;
#267 = APPROVAL_STATUS ( 'not_yet_approved' ) ;
#268 = CARTESIAN_POINT ( 'NONE',  ( 9.950001769990002742, 24.35000256347700542, -2.058321952820000078 ) ) ;
#269 = APPROVAL_STATUS ( 'not_yet_approved' ) ;
#270 = CC_DESIGN_PERSON_AND_ORGANIZATION_ASSIGNMENT ( #162, #293, ( #222 ) ) ;
#271 = LOCAL_TIME ( 18, 49, 54.00000000000000000, #257 ) ;
#272 = DATE_TIME_ROLE ( 'creation_date' ) ;
#273 = DATE_AND_TIME ( #55, #278 ) ;
#274 = DOCUMENT_TYPE ( 'geometry' ) ;
#275 = APPROVAL_ROLE ( '' ) ;
#276 = APPROVAL ( #36, 'Coincident' ) ;
#277 = APPLICATION_PROTOCOL_DEFINITION ( 'international standard', 'config_control_design', 1994, #119 ) ;
#278 = LOCAL_TIME ( 18, 49, 54.00000000000000000, #25 ) ;
#279 = PERSON ( 'NAUO-PER65', 'UNSPECIFIED', 'UNSPECIFIED', ('UNSPECIFIED'), ('UNSPECIFIED'), ('UNSPECIFIED') ) ;
#280 = APPLIED_EXTERNAL_IDENTIFICATION_ASSIGNMENT ( '6461079856.step.STEP' , #158, #344,( #110) ) ;
#281 = CALENDAR_DATE ( 2026, 22, 6 ) ;
#282 = DIRECTION ( 'NONE',  ( 1.000000000000000222, -1.092455418989176591E-28, 4.890937612370273194E-29 ) ) ;
#283 = PERSON_AND_ORGANIZATION ( #18446744073709551615, #18446744073709551615 ) ;
#284 = CC_DESIGN_PERSON_AND_ORGANIZATION_ASSIGNMENT ( #360, #78, ( #160 ) ) ;
#285 = SHAPE_DEFINITION_REPRESENTATION ( #254, #336 ) ;
#286 = APPROVAL_PERSON_ORGANIZATION ( #383, #385, #291 ) ;
#287 = COORDINATED_UNIVERSAL_TIME_OFFSET ( 10, 0, .AHEAD. ) ;
#288 = PRODUCT_DEFINITION ( 'General', '', #45, #300 ) ;
#289 = LOCAL_TIME ( 18, 49, 54.00000000000000000, #4 ) ;
#290 = PROPERTY_DEFINITION ('external definition','', #192 ) ;
#291 = APPROVAL_ROLE ( '' ) ;
#292 = CC_DESIGN_PERSON_AND_ORGANIZATION_ASSIGNMENT ( #283, #220, ( #102 ) ) ;
#293 = PERSON_AND_ORGANIZATION_ROLE ( 'classification_officer' ) ;
#294 =( NAMED_UNIT ( * ) PLANE_ANGLE_UNIT ( ) SI_UNIT ( $, .RADIAN. ) );
#295 = APPLICATION_PROTOCOL_DEFINITION ( 'international standard', 'config_control_design', 1994, #153 ) ;
#296 = DIRECTION ( 'NONE',  ( 1.000000000000000222, -1.092455418989176591E-28, 4.890937612370273194E-29 ) ) ;
#297 = CC_DESIGN_SECURITY_CLASSIFICATION ( #88, ( #160 ) ) ;
#298 = CALENDAR_DATE ( 2026, 22, 6 ) ;
#299 = DIRECTION ( 'NONE',  ( 1.000000000000000000, 0.000000000000000000, 0.000000000000000000 ) ) ;
#300 = DESIGN_CONTEXT ( 'detailed design', #119, 'design' ) ;
#301 = DIRECTION ( 'NONE',  ( 1.000000000000000000, 0.000000000000000000, 0.000000000000000000 ) ) ;
#302 = CALENDAR_DATE ( 2026, 22, 6 ) ;
#303 = OBJECT_ROLE ('mandatory',$ ) ;
#304 = CC_DESIGN_APPROVAL ( #8, ( #88 ) ) ;
#305 =( LENGTH_UNIT ( ) NAMED_UNIT ( * ) SI_UNIT ( .MILLI., .METRE. ) );
#306 = APPLICATION_PROTOCOL_DEFINITION ( 'international standard', 'config_control_design', 1994, #319 ) ;
#307 = CONTEXT_DEPENDENT_SHAPE_REPRESENTATION ( #202, #41 ) ;
#308 = CC_DESIGN_DATE_AND_TIME_ASSIGNMENT ( #226, #320, ( #311 ) ) ;
#309 = PERSON_AND_ORGANIZATION ( #18446744073709551615, #18446744073709551615 ) ;
#310 = PERSON_AND_ORGANIZATION ( #18446744073709551615, #18446744073709551615 ) ;
#311 = SECURITY_CLASSIFICATION ( '', '', #368 ) ;
#312 = APPROVAL_DATE_TIME ( #92, #177 ) ;
#313 = APPLICATION_PROTOCOL_DEFINITION ( 'international standard', 'config_control_design', 1994, #68 ) ;
#314 = SECURITY_CLASSIFICATION_LEVEL ( 'unclassified' ) ;
#315 = CC_DESIGN_PERSON_AND_ORGANIZATION_ASSIGNMENT ( #383, #381, ( #196 ) ) ;
#316 = CALENDAR_DATE ( 2026, 22, 6 ) ;
#317 = APPROVAL_PERSON_ORGANIZATION ( #47, #58, #134 ) ;
#318 = CC_DESIGN_DATE_AND_TIME_ASSIGNMENT ( #59, #155, ( #247 ) ) ;
#319 = APPLICATION_CONTEXT ( 'configuration controlled 3d designs of mechanical parts and assemblies' ) ;
#320 = DATE_TIME_ROLE ( 'classification_date' ) ;
#321 = APPROVAL_ROLE ( '' ) ;
#322 = DIRECTION ( 'NONE',  ( 0.000000000000000000, 0.000000000000000000, 1.000000000000000000 ) ) ;
#323 = APPROVAL_STATUS ( 'not_yet_approved' ) ;
#324 = MECHANICAL_CONTEXT ( 'NONE', #219, 'mechanical' ) ;
#325 =( GEOMETRIC_REPRESENTATION_CONTEXT ( 3 ) GLOBAL_UNCERTAINTY_ASSIGNED_CONTEXT ( ( #332 ) ) GLOBAL_UNIT_ASSIGNED_CONTEXT ( ( #305, #120, #367 ) ) REPRESENTATION_CONTEXT ( 'NONE', 'WORKASPACE' ) );
#326 = CC_DESIGN_SECURITY_CLASSIFICATION ( #178, ( #390 ) ) ;
#327 = APPROVAL_DATE_TIME ( #231, #58 ) ;
#328 = PRODUCT_RELATED_PRODUCT_CATEGORY ( 'detail', '', ( #102 ) ) ;
#329 = APPROVAL_DATE_TIME ( #206, #8 ) ;
#330 = COORDINATED_UNIVERSAL_TIME_OFFSET ( 10, 0, .AHEAD. ) ;
#331 = CALENDAR_DATE ( 2026, 22, 6 ) ;
#332 = UNCERTAINTY_MEASURE_WITH_UNIT (LENGTH_MEASURE( 1.000000000000000082E-05 ), #305, 'distance_accuracy_value', 'NONE');
#333 = APPROVAL ( #64, 'Coincident' ) ;
#334 = APPROVAL_PERSON_ORGANIZATION ( #85, #32, #275 ) ;
#335 = DATE_AND_TIME ( #124, #263 ) ;
#336 = SHAPE_REPRESENTATION ( '6461079856.step', ( #11 ), #141 ) ;
#337 = PERSON_AND_ORGANIZATION ( #18446744073709551615, #18446744073709551615 ) ;
#338 = DATE_AND_TIME ( #147, #81 ) ;
#339 = APPROVAL_STATUS ( 'not_yet_approved' ) ;
#340 = AXIS2_PLACEMENT_3D ( 'NONE', #268, #116, #240 ) ;
#341 = PERSON_AND_ORGANIZATION ( #18446744073709551615, #18446744073709551615 ) ;
#342 = CC_DESIGN_PERSON_AND_ORGANIZATION_ASSIGNMENT ( #89, #149, ( #288 ) ) ;
#343 = COORDINATED_UNIVERSAL_TIME_OFFSET ( 10, 0, .AHEAD. ) ;
#344 = EXTERNAL_SOURCE (IDENTIFIER('') ) ;
#345 = APPROVAL_ROLE ( '' ) ;
#346 =( LENGTH_UNIT ( ) NAMED_UNIT ( * ) SI_UNIT ( .MILLI., .METRE. ) );
#347 = AXIS2_PLACEMENT_3D ( 'NONE', #252, #70, #175 ) ;
#348 = CC_DESIGN_SECURITY_CLASSIFICATION ( #187, ( #128 ) ) ;
#349 = PRODUCT_DEFINITION_SHAPE ( 'NONE', 'NONE',  #389 ) ;
#350 = PRODUCT ( 'R27.step', 'R27.step', '', ( #82 ) ) ;
#351 = PROPERTY_DEFINITION_REPRESENTATION ( #131, #336 ) ;
#352 = CC_DESIGN_APPROVAL ( #193, ( #222 ) ) ;
#353 = ROLE_ASSOCIATION ( #303, #72 ) ;
#354 = EXTERNAL_SOURCE (IDENTIFIER('') ) ;
#355 = APPROVAL_DATE_TIME ( #273, #200 ) ;
#356 = CALENDAR_DATE ( 2026, 22, 6 ) ;
#357 = APPROVAL_STATUS ( 'not_yet_approved' ) ;
#358 = PERSON_AND_ORGANIZATION_ROLE ( 'design_owner' ) ;
#359 = CC_DESIGN_SECURITY_CLASSIFICATION ( #196, ( #388 ) ) ;
#360 = PERSON_AND_ORGANIZATION ( #18446744073709551615, #18446744073709551615 ) ;
#361 = PERSON_AND_ORGANIZATION_ROLE ( 'classification_officer' ) ;
#362 = PRODUCT_RELATED_PRODUCT_CATEGORY ( 'detail', '', ( #225 ) ) ;
#363 = COORDINATED_UNIVERSAL_TIME_OFFSET ( 10, 0, .AHEAD. ) ;
#364 = CARTESIAN_POINT ( 'NONE',  ( 9.950001769990004519, 23.35000256347700187, -2.058321952819998302 ) ) ;
#365 = COORDINATED_UNIVERSAL_TIME_OFFSET ( 10, 0, .AHEAD. ) ;
#366 = APPROVAL_PERSON_ORGANIZATION ( #188, #333, #241 ) ;
#367 =( NAMED_UNIT ( * ) SI_UNIT ( $, .STERADIAN. ) SOLID_ANGLE_UNIT ( ) );
#368 = SECURITY_CLASSIFICATION_LEVEL ( 'unclassified' ) ;
#369 = PROPERTY_DEFINITION ('document property','', #179 ) ;
#370 = CALENDAR_DATE ( 2026, 22, 6 ) ;
#371 = CALENDAR_DATE ( 2026, 22, 6 ) ;
#372 = AXIS2_PLACEMENT_3D ( 'NONE', #250, #209, #296 ) ;
#373 = LOCAL_TIME ( 18, 49, 54.00000000000000000, #365 ) ;
#374 = APPROVAL_DATE_TIME ( #34, #276 ) ;
#375 = CC_DESIGN_PERSON_AND_ORGANIZATION_ASSIGNMENT ( #126, #57, ( #45 ) ) ;
#376 = APPROVAL_PERSON_ORGANIZATION ( #151, #276, #213 ) ;
#377 = APPROVAL_PERSON_ORGANIZATION ( #203, #8, #384 ) ;
#378 = PROPERTY_DEFINITION ('external definition','', #110 ) ;
#379 = APPLIED_DOCUMENT_REFERENCE ( #110,'',( #247) ) ;
#380 = SECURITY_CLASSIFICATION_LEVEL ( 'unclassified' ) ;
#381 = PERSON_AND_ORGANIZATION_ROLE ( 'classification_officer' ) ;
#382 = APPROVAL_PERSON_ORGANIZATION ( #337, #177, #345 ) ;
#383 = PERSON_AND_ORGANIZATION ( #279, #255 ) ;
#384 = APPROVAL_ROLE ( '' ) ;
#385 = APPROVAL ( #357, 'UNKNOWN' ) ;
#386 = COORDINATED_UNIVERSAL_TIME_OFFSET ( 10, 0, .AHEAD. ) ;
#387 = CC_DESIGN_APPROVAL ( #385, ( #196 ) ) ;
#388 = NEXT_ASSEMBLY_USAGE_OCCURRENCE ( 'NAUO65', ' ', ' ', #256, #288, $ ) ;
#389 = NEXT_ASSEMBLY_USAGE_OCCURRENCE ( 'NAUO66', ' ', ' ', #256, #247, $ ) ;
#390 = NEXT_ASSEMBLY_USAGE_OCCURRENCE ( 'NAUO67', ' ', ' ', #256, #247, $ ) ;
ENDSEC;
END-ISO-10303-21;
