ISO-10303-21;
HEADER;
FILE_DESCRIPTION (( 'STEP AP203' ),
    '1' );
FILE_NAME ('R28.step.STEP',
    '2026-06-22T08:49:54',
    ( 'localuser' ),
    ( '' ),
    'SwSTEP 2.0',
    'SolidWorks 2025',
    '' );
FILE_SCHEMA (( 'CONFIG_CONTROL_DESIGN' ));
ENDSEC;

DATA;
#1 = DIRECTION ( 'NONE',  ( 0.000000000000000000, 0.000000000000000000, 1.000000000000000000 ) ) ;
#2 = DOCUMENT_FILE ( '6461082896.step.STEP' , '', '', #122, '' ,$ ) ;
#3 = APPROVAL_STATUS ( 'not_yet_approved' ) ;
#4 = IDENTIFICATION_ROLE ( 'external document id and location', $) ;
#5 = DIRECTION ( 'NONE',  ( 0.000000000000000000, 0.000000000000000000, 1.000000000000000000 ) ) ;
#6 = PERSON_AND_ORGANIZATION ( #18446744073709551615, #18446744073709551615 ) ;
#7 = PRODUCT_DEFINITION_FORMATION_WITH_SPECIFIED_SOURCE ( 'Symmetric', '', #195, .NOT_KNOWN. ) ;
#8 = APPLIED_DOCUMENT_REFERENCE ( #61,'',( #109) ) ;
#9 = PERSON_AND_ORGANIZATION_ROLE ( 'creator' ) ;
#10 = COORDINATED_UNIVERSAL_TIME_OFFSET ( 10, 0, .AHEAD. ) ;
#11 = CC_DESIGN_PERSON_AND_ORGANIZATION_ASSIGNMENT ( #367, #210, ( #36 ) ) ;
#12 = DATE_AND_TIME ( #283, #350 ) ;
#13 = APPLICATION_CONTEXT ( 'configuration controlled 3d designs of mechanical parts and assemblies' ) ;
#14 = CC_DESIGN_APPROVAL ( #46, ( #27 ) ) ;
#15 = CC_DESIGN_APPROVAL ( #180, ( #7 ) ) ;
#16 = DATE_AND_TIME ( #327, #310 ) ;
#17 = SECURITY_CLASSIFICATION ( '', '', #41 ) ;
#18 = IDENTIFICATION_ROLE ( 'external document id and location', $) ;
#19 = CALENDAR_DATE ( 2026, 22, 6 ) ;
#20 = PERSON_AND_ORGANIZATION ( #18446744073709551615, #18446744073709551615 ) ;
#21 = DATE_TIME_ROLE ( 'classification_date' ) ;
#22 = CC_DESIGN_PERSON_AND_ORGANIZATION_ASSIGNMENT ( #308, #9, ( #384 ) ) ;
#23 = APPROVAL_ROLE ( '' ) ;
#24 =( LENGTH_UNIT ( ) NAMED_UNIT ( * ) SI_UNIT ( .MILLI., .METRE. ) );
#25 = APPROVAL_STATUS ( 'not_yet_approved' ) ;
#26 = ITEM_DEFINED_TRANSFORMATION ( 'NONE', 'NONE', #325,  #130 ) ;
#27 = PRODUCT_DEFINITION_FORMATION_WITH_SPECIFIED_SOURCE ( 'Symmetric', '', #47, .NOT_KNOWN. ) ;
#28 = APPLIED_EXTERNAL_IDENTIFICATION_ASSIGNMENT ( '6461083056.step.STEP' , #18, #193,( #61) ) ;
#29 = SECURITY_CLASSIFICATION ( '', '', #208 ) ;
#30 = PERSON_AND_ORGANIZATION ( #383, #333 ) ;
#31 = DIRECTION ( 'NONE',  ( 1.000000000000000222, -1.092455418989176591E-28, 4.890937612370273194E-29 ) ) ;
#32 = PROPERTY_DEFINITION_REPRESENTATION ( #348, #118 ) ;
#33 = APPROVAL_DATE_TIME ( #282, #205 ) ;
#34 = CC_DESIGN_DATE_AND_TIME_ASSIGNMENT ( #294, #21, ( #131 ) ) ;
#35 = APPLICATION_PROTOCOL_DEFINITION ( 'international standard', 'config_control_design', 1994, #186 ) ;
#36 = SECURITY_CLASSIFICATION ( '', '', #275 ) ;
#37 = CALENDAR_DATE ( 2026, 22, 6 ) ;
#38 = APPLICATION_CONTEXT ( 'configuration controlled 3d designs of mechanical parts and assemblies' ) ;
#39 = PERSON_AND_ORGANIZATION ( #18446744073709551615, #18446744073709551615 ) ;
#40 = CC_DESIGN_PERSON_AND_ORGANIZATION_ASSIGNMENT ( #6, #224, ( #223 ) ) ;
#41 = SECURITY_CLASSIFICATION_LEVEL ( 'unclassified' ) ;
#42 = AXIS2_PLACEMENT_3D ( 'NONE', #117, #211, #31 ) ;
#43 = CC_DESIGN_DATE_AND_TIME_ASSIGNMENT ( #144, #91, ( #36 ) ) ;
#44 = APPROVAL_PERSON_ORGANIZATION ( #30, #258, #56 ) ;
#45 = PRODUCT_DEFINITION_SHAPE ( 'NONE', 'NONE',  #390 ) ;
#46 = APPROVAL ( #313, 'Coincident' ) ;
#47 = PRODUCT ( 'R28.step', 'R28.step', '', ( #142 ) ) ;
#48 = PERSON_AND_ORGANIZATION_ROLE ( 'design_owner' ) ;
#49 = CC_DESIGN_SECURITY_CLASSIFICATION ( #29, ( #388 ) ) ;
#50 = APPROVAL_DATE_TIME ( #347, #289 ) ;
#51 = COORDINATED_UNIVERSAL_TIME_OFFSET ( 10, 0, .AHEAD. ) ;
#52 = COORDINATED_UNIVERSAL_TIME_OFFSET ( 10, 0, .AHEAD. ) ;
#53 = CC_DESIGN_APPROVAL ( #231, ( #29 ) ) ;
#54 = SECURITY_CLASSIFICATION_LEVEL ( 'unclassified' ) ;
#55 = DIRECTION ( 'NONE',  ( 1.000000000000000222, -1.092455418989176591E-28, 4.890937612370273194E-29 ) ) ;
#56 = APPROVAL_ROLE ( '' ) ;
#57 = APPROVAL_STATUS ( 'not_yet_approved' ) ;
#58 = APPROVAL_PERSON_ORGANIZATION ( #123, #46, #192 ) ;
#59 =( NAMED_UNIT ( * ) SI_UNIT ( $, .STERADIAN. ) SOLID_ANGLE_UNIT ( ) );
#60 = LOCAL_TIME ( 18, 49, 54.00000000000000000, #267 ) ;
#61 = DOCUMENT_FILE ( '6461083056.step.STEP' , '', '', #315, '' ,$ ) ;
#62 = PERSON_AND_ORGANIZATION ( #18446744073709551615, #18446744073709551615 ) ;
#63 = CC_DESIGN_PERSON_AND_ORGANIZATION_ASSIGNMENT ( #263, #234, ( #131 ) ) ;
#64 = PERSON_AND_ORGANIZATION_ROLE ( 'design_owner' ) ;
#65 = CALENDAR_DATE ( 2026, 22, 6 ) ;
#66 = CC_DESIGN_DATE_AND_TIME_ASSIGNMENT ( #150, #146, ( #190 ) ) ;
#67 = CALENDAR_DATE ( 2026, 22, 6 ) ;
#68 = LOCAL_TIME ( 18, 49, 54.00000000000000000, #184 ) ;
#69 = COORDINATED_UNIVERSAL_TIME_OFFSET ( 10, 0, .AHEAD. ) ;
#70 = CC_DESIGN_PERSON_AND_ORGANIZATION_ASSIGNMENT ( #134, #293, ( #102 ) ) ;
#71 = APPROVAL_ROLE ( '' ) ;
#72 = PRODUCT_DEFINITION_SHAPE ( 'NONE', 'NONE',  #389 ) ;
#73 = PERSON_AND_ORGANIZATION ( #18446744073709551615, #18446744073709551615 ) ;
#74 =( REPRESENTATION_RELATIONSHIP ('NONE','NONE', #374, #118 ) REPRESENTATION_RELATIONSHIP_WITH_TRANSFORMATION ( #172 )SHAPE_REPRESENTATION_RELATIONSHIP( ) );
#75 = APPROVAL_PERSON_ORGANIZATION ( #62, #205, #71 ) ;
#76 = APPROVAL_ROLE ( '' ) ;
#77 = CC_DESIGN_APPROVAL ( #258, ( #190 ) ) ;
#78 = CC_DESIGN_PERSON_AND_ORGANIZATION_ASSIGNMENT ( #20, #264, ( #7 ) ) ;
#79 = COORDINATED_UNIVERSAL_TIME_OFFSET ( 10, 0, .AHEAD. ) ;
#80 = CALENDAR_DATE ( 2026, 22, 6 ) ;
#81 = DATE_AND_TIME ( #19, #260 ) ;
#82 = DIRECTION ( 'NONE',  ( 4.890937612370273194E-29, -3.155443620884047222E-30, 0.9999999999999997780 ) ) ;
#83 = APPROVAL_STATUS ( 'not_yet_approved' ) ;
#84 = ORGANIZATION ( 'NAUO-ORG74', 'UNSPECIFIED', 'UNSPECIFIED' ) ;
#85 = DESIGN_CONTEXT ( 'detailed design', #38, 'design' ) ;
#86 = CALENDAR_DATE ( 2026, 22, 6 ) ;
#87 = COORDINATED_UNIVERSAL_TIME_OFFSET ( 10, 0, .AHEAD. ) ;
#88 = APPLICATION_PROTOCOL_DEFINITION ( 'international standard', 'config_control_design', 1994, #335 ) ;
#89 = OBJECT_ROLE ('mandatory',$ ) ;
#90 = DIRECTION ( 'NONE',  ( 1.000000000000000000, 0.000000000000000000, 0.000000000000000000 ) ) ;
#91 = DATE_TIME_ROLE ( 'classification_date' ) ;
#92 = PERSON_AND_ORGANIZATION ( #18446744073709551615, #18446744073709551615 ) ;
#93 = APPROVAL ( #343, 'Coincident' ) ;
#94 = SHAPE_REPRESENTATION ( '6461083056.step', ( #130 ), #165 ) ;
#95 = APPROVAL_DATE_TIME ( #359, #258 ) ;
#96 = PERSON_AND_ORGANIZATION ( #18446744073709551615, #18446744073709551615 ) ;
#97 = PERSON_AND_ORGANIZATION ( #279, #116 ) ;
#98 = PERSON_AND_ORGANIZATION_ROLE ( 'classification_officer' ) ;
#99 = SHAPE_DEFINITION_REPRESENTATION ( #164, #374 ) ;
#100 = AXIS2_PLACEMENT_3D ( 'NONE', #268, #355, #240 ) ;
#101 = PERSON_AND_ORGANIZATION_ROLE ( 'creator' ) ;
#102 = PRODUCT_DEFINITION ( 'General', '', #7, #85 ) ;
#103 = APPROVAL_PERSON_ORGANIZATION ( #367, #183, #212 ) ;
#104 = EXTERNAL_SOURCE (IDENTIFIER('') ) ;
#105 = PROPERTY_DEFINITION ('document property','', #61 ) ;
#106 = SHAPE_DEFINITION_REPRESENTATION ( #346, #118 ) ;
#107 = PRODUCT_DEFINITION_SHAPE ( 'NONE', 'NONE',  #109 ) ;
#108 = DATE_AND_TIME ( #138, #133 ) ;
#109 = PRODUCT_DEFINITION ( 'General', '', #223, #236 ) ;
#110 =( GEOMETRIC_REPRESENTATION_CONTEXT ( 3 ) GLOBAL_UNCERTAINTY_ASSIGNED_CONTEXT ( ( #177 ) ) GLOBAL_UNIT_ASSIGNED_CONTEXT ( ( #307, #295, #360 ) ) REPRESENTATION_CONTEXT ( 'NONE', 'WORKASPACE' ) );
#111 = APPROVAL_ROLE ( '' ) ;
#112 = LOCAL_TIME ( 18, 49, 54.00000000000000000, #87 ) ;
#113 = CALENDAR_DATE ( 2026, 22, 6 ) ;
#114 = COORDINATED_UNIVERSAL_TIME_OFFSET ( 10, 0, .AHEAD. ) ;
#115 = PROPERTY_DEFINITION_REPRESENTATION ( #105, #94 ) ;
#116 = ORGANIZATION ( 'NAUO-ORG73', 'UNSPECIFIED', 'UNSPECIFIED' ) ;
#117 = CARTESIAN_POINT ( 'NONE',  ( 13.24999719235400342, 24.10000256347700542, -2.058321952820000078 ) ) ;
#118 = SHAPE_REPRESENTATION ( '6461082896.step', ( #148 ), #110 ) ;
#119 = PERSON_AND_ORGANIZATION_ROLE ( 'classification_officer' ) ;
#120 = SECURITY_CLASSIFICATION_LEVEL ( 'unclassified' ) ;
#121 = PERSON_AND_ORGANIZATION_ROLE ( 'classification_officer' ) ;
#122 = DOCUMENT_TYPE ( 'geometry' ) ;
#123 = PERSON_AND_ORGANIZATION ( #18446744073709551615, #18446744073709551615 ) ;
#124 = LOCAL_TIME ( 18, 49, 54.00000000000000000, #167 ) ;
#125 = OBJECT_ROLE ('mandatory',$ ) ;
#126 = COORDINATED_UNIVERSAL_TIME_OFFSET ( 10, 0, .AHEAD. ) ;
#127 = MECHANICAL_CONTEXT ( 'NONE', #301, 'mechanical' ) ;
#128 = CC_DESIGN_DATE_AND_TIME_ASSIGNMENT ( #246, #340, ( #109 ) ) ;
#129 = APPROVAL_DATE_TIME ( #217, #93 ) ;
#130 = AXIS2_PLACEMENT_3D ( 'NONE', #297, #328, #270 ) ;
#131 = SECURITY_CLASSIFICATION ( '', '', #54 ) ;
#132 = CC_DESIGN_PERSON_AND_ORGANIZATION_ASSIGNMENT ( #379, #203, ( #7 ) ) ;
#133 = LOCAL_TIME ( 18, 49, 54.00000000000000000, #51 ) ;
#134 = PERSON_AND_ORGANIZATION ( #18446744073709551615, #18446744073709551615 ) ;
#135 = APPLICATION_CONTEXT ( 'configuration controlled 3d designs of mechanical parts and assemblies' ) ;
#136 = PRODUCT_RELATED_PRODUCT_CATEGORY ( 'detail', '', ( #47 ) ) ;
#137 = MECHANICAL_CONTEXT ( 'NONE', #13, 'mechanical' ) ;
#138 = CALENDAR_DATE ( 2026, 22, 6 ) ;
#139 = DESIGN_CONTEXT ( 'detailed design', #335, 'design' ) ;
#140 = PERSON_AND_ORGANIZATION ( #18446744073709551615, #18446744073709551615 ) ;
#141 = CC_DESIGN_APPROVAL ( #289, ( #102 ) ) ;
#142 = MECHANICAL_CONTEXT ( 'NONE', #135, 'mechanical' ) ;
#143 = APPROVAL_STATUS ( 'not_yet_approved' ) ;
#144 = DATE_AND_TIME ( #278, #372 ) ;
#145 = APPLICATION_PROTOCOL_DEFINITION ( 'international standard', 'config_control_design', 1994, #135 ) ;
#146 = DATE_TIME_ROLE ( 'classification_date' ) ;
#147 = APPROVAL_PERSON_ORGANIZATION ( #73, #289, #111 ) ;
#148 = AXIS2_PLACEMENT_3D ( 'NONE', #215, #5, #90 ) ;
#149 = LOCAL_TIME ( 18, 49, 54.00000000000000000, #52 ) ;
#150 = DATE_AND_TIME ( #329, #68 ) ;
#151 = CC_DESIGN_PERSON_AND_ORGANIZATION_ASSIGNMENT ( #202, #48, ( #195 ) ) ;
#152 = APPROVAL_DATE_TIME ( #213, #231 ) ;
#153 = APPROVAL_STATUS ( 'not_yet_approved' ) ;
#154 = LOCAL_TIME ( 18, 49, 54.00000000000000000, #187 ) ;
#155 = APPROVAL_STATUS ( 'not_yet_approved' ) ;
#156 = APPLIED_EXTERNAL_IDENTIFICATION_ASSIGNMENT ( '6461082896.step.STEP' , #235, #104,( #176) ) ;
#157 = CALENDAR_DATE ( 2026, 22, 6 ) ;
#158 = CC_DESIGN_DATE_AND_TIME_ASSIGNMENT ( #16, #339, ( #29 ) ) ;
#159 =( REPRESENTATION_RELATIONSHIP ('NONE','NONE', #374, #118 ) REPRESENTATION_RELATIONSHIP_WITH_TRANSFORMATION ( #272 )SHAPE_REPRESENTATION_RELATIONSHIP( ) );
#160 = COORDINATED_UNIVERSAL_TIME_OFFSET ( 10, 0, .AHEAD. ) ;
#161 = APPROVAL_ROLE ( '' ) ;
#162 = CC_DESIGN_APPROVAL ( #183, ( #36 ) ) ;
#163 = CC_DESIGN_PERSON_AND_ORGANIZATION_ASSIGNMENT ( #92, #257, ( #27 ) ) ;
#164 = PRODUCT_DEFINITION_SHAPE ( 'NONE', 'NONE',  #384 ) ;
#165 =( GEOMETRIC_REPRESENTATION_CONTEXT ( 3 ) GLOBAL_UNCERTAINTY_ASSIGNED_CONTEXT ( ( #249 ) ) GLOBAL_UNIT_ASSIGNED_CONTEXT ( ( #24, #357, #179 ) ) REPRESENTATION_CONTEXT ( 'NONE', 'WORKASPACE' ) );
#166 = CC_DESIGN_APPROVAL ( #174, ( #131 ) ) ;
#167 = COORDINATED_UNIVERSAL_TIME_OFFSET ( 10, 0, .AHEAD. ) ;
#168 = UNCERTAINTY_MEASURE_WITH_UNIT (LENGTH_MEASURE( 1.000000000000000082E-05 ), #221, 'distance_accuracy_value', 'NONE');
#169 = DATE_TIME_ROLE ( 'classification_date' ) ;
#170 = COORDINATED_UNIVERSAL_TIME_OFFSET ( 10, 0, .AHEAD. ) ;
#171 = APPROVAL_PERSON_ORGANIZATION ( #331, #332, #23 ) ;
#172 = ITEM_DEFINED_TRANSFORMATION ( 'NONE', 'NONE', #100,  #148 ) ;
#173 = CC_DESIGN_APPROVAL ( #93, ( #285 ) ) ;
#174 = APPROVAL ( #266, 'Coincident' ) ;
#175 = DATE_AND_TIME ( #113, #60 ) ;
#176 = DOCUMENT_FILE ( '6461082896.step.STEP' , '', '', #311, '' ,$ ) ;
#177 = UNCERTAINTY_MEASURE_WITH_UNIT (LENGTH_MEASURE( 1.000000000000000082E-05 ), #307, 'distance_accuracy_value', 'NONE');
#178 = PROPERTY_DEFINITION_REPRESENTATION ( #253, #118 ) ;
#179 =( NAMED_UNIT ( * ) SI_UNIT ( $, .STERADIAN. ) SOLID_ANGLE_UNIT ( ) );
#180 = APPROVAL ( #232, 'Coincident' ) ;
#181 = CONTEXT_DEPENDENT_SHAPE_REPRESENTATION ( #159, #45 ) ;
#182 = LOCAL_TIME ( 18, 49, 54.00000000000000000, #247 ) ;
#183 = APPROVAL ( #25, 'UNKNOWN' ) ;
#184 = COORDINATED_UNIVERSAL_TIME_OFFSET ( 10, 0, .AHEAD. ) ;
#185 = PERSON_AND_ORGANIZATION ( #18446744073709551615, #18446744073709551615 ) ;
#186 = APPLICATION_CONTEXT ( 'configuration controlled 3d designs of mechanical parts and assemblies' ) ;
#187 = COORDINATED_UNIVERSAL_TIME_OFFSET ( 10, 0, .AHEAD. ) ;
#188 = APPROVAL ( #153, 'Coincident' ) ;
#189 = CALENDAR_DATE ( 2026, 22, 6 ) ;
#190 = SECURITY_CLASSIFICATION ( '', '', #120 ) ;
#191 = CALENDAR_DATE ( 2026, 22, 6 ) ;
#192 = APPROVAL_ROLE ( '' ) ;
#193 = EXTERNAL_SOURCE (IDENTIFIER('') ) ;
#194 =( GEOMETRIC_REPRESENTATION_CONTEXT ( 3 ) GLOBAL_UNCERTAINTY_ASSIGNED_CONTEXT ( ( #168 ) ) GLOBAL_UNIT_ASSIGNED_CONTEXT ( ( #221, #300, #59 ) ) REPRESENTATION_CONTEXT ( 'NONE', 'WORKASPACE' ) );
#195 = PRODUCT ( '6461082896.step', '6461082896.step', '', ( #137 ) ) ;
#196 = PROPERTY_DEFINITION ('external definition','', #2 ) ;
#197 = APPROVAL_DATE_TIME ( #108, #292 ) ;
#198 = PRODUCT_RELATED_PRODUCT_CATEGORY ( 'detail', '', ( #259 ) ) ;
#199 = LOCAL_TIME ( 18, 49, 54.00000000000000000, #353 ) ;
#200 = CC_DESIGN_SECURITY_CLASSIFICATION ( #36, ( #389 ) ) ;
#201 = LOCAL_TIME ( 18, 49, 54.00000000000000000, #79 ) ;
#202 = PERSON_AND_ORGANIZATION ( #18446744073709551615, #18446744073709551615 ) ;
#203 = PERSON_AND_ORGANIZATION_ROLE ( 'design_supplier' ) ;
#204 = DATE_AND_TIME ( #80, #199 ) ;
#205 = APPROVAL ( #155, 'Coincident' ) ;
#206 = PERSON_AND_ORGANIZATION ( #18446744073709551615, #18446744073709551615 ) ;
#207 =( REPRESENTATION_RELATIONSHIP ('NONE','NONE', #374, #94 ) REPRESENTATION_RELATIONSHIP_WITH_TRANSFORMATION ( #26 )SHAPE_REPRESENTATION_RELATIONSHIP( ) );
#208 = SECURITY_CLASSIFICATION_LEVEL ( 'unclassified' ) ;
#209 = APPROVAL_PERSON_ORGANIZATION ( #206, #292, #76 ) ;
#210 = PERSON_AND_ORGANIZATION_ROLE ( 'classification_officer' ) ;
#211 = DIRECTION ( 'NONE',  ( 4.890937612370273194E-29, -3.155443620884047222E-30, 0.9999999999999997780 ) ) ;
#212 = APPROVAL_ROLE ( '' ) ;
#213 = DATE_AND_TIME ( #65, #182 ) ;
#214 = CC_DESIGN_APPROVAL ( #188, ( #223 ) ) ;
#215 = CARTESIAN_POINT ( 'NONE',  ( 0.000000000000000000, 0.000000000000000000, 0.000000000000000000 ) ) ;
#216 = APPLICATION_PROTOCOL_DEFINITION ( 'international standard', 'config_control_design', 1994, #301 ) ;
#217 = DATE_AND_TIME ( #37, #319 ) ;
#218 = PROPERTY_DEFINITION_REPRESENTATION ( #368, #118 ) ;
#219 = CC_DESIGN_DATE_AND_TIME_ASSIGNMENT ( #366, #371, ( #384 ) ) ;
#220 = CALENDAR_DATE ( 2026, 22, 6 ) ;
#221 =( LENGTH_UNIT ( ) NAMED_UNIT ( * ) SI_UNIT ( .MILLI., .METRE. ) );
#222 = PERSON_AND_ORGANIZATION_ROLE ( 'creator' ) ;
#223 = PRODUCT_DEFINITION_FORMATION_WITH_SPECIFIED_SOURCE ( 'Symmetric', '', #259, .NOT_KNOWN. ) ;
#224 = PERSON_AND_ORGANIZATION_ROLE ( 'design_supplier' ) ;
#225 = CC_DESIGN_PERSON_AND_ORGANIZATION_ASSIGNMENT ( #238, #363, ( #47 ) ) ;
#226 = PERSON ( 'NAUO-PER74', 'UNSPECIFIED', 'UNSPECIFIED', ('UNSPECIFIED'), ('UNSPECIFIED'), ('UNSPECIFIED') ) ;
#227 = CC_DESIGN_APPROVAL ( #332, ( #384 ) ) ;
#228 = CC_DESIGN_SECURITY_CLASSIFICATION ( #131, ( #7 ) ) ;
#229 = PRODUCT_DEFINITION_SHAPE ( 'NONE', 'NONE',  #388 ) ;
#230 = CALENDAR_DATE ( 2026, 22, 6 ) ;
#231 = APPROVAL ( #143, 'UNKNOWN' ) ;
#232 = APPROVAL_STATUS ( 'not_yet_approved' ) ;
#233 = LOCAL_TIME ( 18, 49, 54.00000000000000000, #69 ) ;
#234 = PERSON_AND_ORGANIZATION_ROLE ( 'classification_officer' ) ;
#235 = IDENTIFICATION_ROLE ( 'external document id and location', $) ;
#236 = DESIGN_CONTEXT ( 'detailed design', #186, 'design' ) ;
#237 = APPLICATION_PROTOCOL_DEFINITION ( 'international standard', 'config_control_design', 1994, #13 ) ;
#238 = PERSON_AND_ORGANIZATION ( #18446744073709551615, #18446744073709551615 ) ;
#239 = APPLICATION_PROTOCOL_DEFINITION ( 'international standard', 'config_control_design', 1994, #38 ) ;
#240 = DIRECTION ( 'NONE',  ( 1.000000000000000222, -1.092455418989176591E-28, 4.890937612370273194E-29 ) ) ;
#241 = CONTEXT_DEPENDENT_SHAPE_REPRESENTATION ( #207, #72 ) ;
#242 = CC_DESIGN_SECURITY_CLASSIFICATION ( #190, ( #390 ) ) ;
#243 = APPROVAL_ROLE ( '' ) ;
#244 = DIRECTION ( 'NONE',  ( 1.000000000000000000, 0.000000000000000000, 0.000000000000000000 ) ) ;
#245 = PROPERTY_DEFINITION_REPRESENTATION ( #196, #118 ) ;
#246 = DATE_AND_TIME ( #191, #233 ) ;
#247 = COORDINATED_UNIVERSAL_TIME_OFFSET ( 10, 0, .AHEAD. ) ;
#248 = DATE_TIME_ROLE ( 'classification_date' ) ;
#249 = UNCERTAINTY_MEASURE_WITH_UNIT (LENGTH_MEASURE( 1.000000000000000082E-05 ), #24, 'distance_accuracy_value', 'NONE');
#250 = CC_DESIGN_PERSON_AND_ORGANIZATION_ASSIGNMENT ( #287, #121, ( #17 ) ) ;
#251 = ROLE_ASSOCIATION ( #352, #298 ) ;
#252 = APPROVAL_DATE_TIME ( #342, #46 ) ;
#253 = PROPERTY_DEFINITION ('external definition','', #176 ) ;
#254 = PERSON_AND_ORGANIZATION ( #18446744073709551615, #18446744073709551615 ) ;
#255 = CC_DESIGN_DATE_AND_TIME_ASSIGNMENT ( #385, #354, ( #102 ) ) ;
#256 = LOCAL_TIME ( 18, 49, 54.00000000000000000, #126 ) ;
#257 = PERSON_AND_ORGANIZATION_ROLE ( 'design_supplier' ) ;
#258 = APPROVAL ( #57, 'UNKNOWN' ) ;
#259 = PRODUCT ( '6461083056.step', '6461083056.step', '', ( #127 ) ) ;
#260 = LOCAL_TIME ( 18, 49, 54.00000000000000000, #356 ) ;
#261 = CC_DESIGN_PERSON_AND_ORGANIZATION_ASSIGNMENT ( #338, #64, ( #259 ) ) ;
#262 = SHAPE_DEFINITION_REPRESENTATION ( #107, #94 ) ;
#263 = PERSON_AND_ORGANIZATION ( #18446744073709551615, #18446744073709551615 ) ;
#264 = PERSON_AND_ORGANIZATION_ROLE ( 'creator' ) ;
#265 = CC_DESIGN_PERSON_AND_ORGANIZATION_ASSIGNMENT ( #254, #222, ( #109 ) ) ;
#266 = APPROVAL_STATUS ( 'not_yet_approved' ) ;
#267 = COORDINATED_UNIVERSAL_TIME_OFFSET ( 10, 0, .AHEAD. ) ;
#268 = CARTESIAN_POINT ( 'NONE',  ( 12.25000100705100614, 24.10000256347700542, -2.058321952820000078 ) ) ;
#269 = DATE_AND_TIME ( #86, #112 ) ;
#270 = DIRECTION ( 'NONE',  ( 1.000000000000000000, 0.000000000000000000, 0.000000000000000000 ) ) ;
#271 = CC_DESIGN_PERSON_AND_ORGANIZATION_ASSIGNMENT ( #185, #312, ( #27 ) ) ;
#272 = ITEM_DEFINED_TRANSFORMATION ( 'NONE', 'NONE', #42,  #148 ) ;
#273 = LOCAL_TIME ( 18, 49, 54.00000000000000000, #281 ) ;
#274 = CARTESIAN_POINT ( 'NONE',  ( 0.000000000000000000, 0.000000000000000000, 0.000000000000000000 ) ) ;
#275 = SECURITY_CLASSIFICATION_LEVEL ( 'unclassified' ) ;
#276 = PERSON_AND_ORGANIZATION_ROLE ( 'classification_officer' ) ;
#277 = APPROVAL_ROLE ( '' ) ;
#278 = CALENDAR_DATE ( 2026, 22, 6 ) ;
#279 = PERSON ( 'NAUO-PER73', 'UNSPECIFIED', 'UNSPECIFIED', ('UNSPECIFIED'), ('UNSPECIFIED'), ('UNSPECIFIED') ) ;
#280 = APPROVAL_PERSON_ORGANIZATION ( #140, #174, #382 ) ;
#281 = COORDINATED_UNIVERSAL_TIME_OFFSET ( 10, 0, .AHEAD. ) ;
#282 = DATE_AND_TIME ( #220, #273 ) ;
#283 = CALENDAR_DATE ( 2026, 22, 6 ) ;
#284 = CC_DESIGN_PERSON_AND_ORGANIZATION_ASSIGNMENT ( #97, #276, ( #29 ) ) ;
#285 = SECURITY_CLASSIFICATION ( '', '', #364 ) ;
#286 = APPROVAL_PERSON_ORGANIZATION ( #97, #231, #243 ) ;
#287 = PERSON_AND_ORGANIZATION ( #18446744073709551615, #18446744073709551615 ) ;
#288 = PROPERTY_DEFINITION ('external definition','', #61 ) ;
#289 = APPROVAL ( #321, 'Coincident' ) ;
#290 = APPROVAL_PERSON_ORGANIZATION ( #39, #188, #277 ) ;
#291 = CALENDAR_DATE ( 2026, 22, 6 ) ;
#292 = APPROVAL ( #83, 'Coincident' ) ;
#293 = PERSON_AND_ORGANIZATION_ROLE ( 'creator' ) ;
#294 = DATE_AND_TIME ( #322, #149 ) ;
#295 =( NAMED_UNIT ( * ) PLANE_ANGLE_UNIT ( ) SI_UNIT ( $, .RADIAN. ) );
#296 = CC_DESIGN_APPROVAL ( #292, ( #17 ) ) ;
#297 = CARTESIAN_POINT ( 'NONE',  ( 0.000000000000000000, 0.000000000000000000, 0.000000000000000000 ) ) ;
#298 = APPLIED_DOCUMENT_REFERENCE ( #176,'',( #102) ) ;
#299 = COORDINATED_UNIVERSAL_TIME_OFFSET ( 10, 0, .AHEAD. ) ;
#300 =( NAMED_UNIT ( * ) PLANE_ANGLE_UNIT ( ) SI_UNIT ( $, .RADIAN. ) );
#301 = APPLICATION_CONTEXT ( 'configuration controlled 3d designs of mechanical parts and assemblies' ) ;
#302 = LOCAL_TIME ( 18, 49, 54.00000000000000000, #299 ) ;
#303 = APPLIED_DOCUMENT_REFERENCE ( #2,'',( #102) ) ;
#304 = CARTESIAN_POINT ( 'NONE',  ( 12.74999719235400342, 24.10000256347700542, -2.058321952819998302 ) ) ;
#305 = ROLE_ASSOCIATION ( #89, #303 ) ;
#306 = CC_DESIGN_DATE_AND_TIME_ASSIGNMENT ( #369, #248, ( #285 ) ) ;
#307 =( LENGTH_UNIT ( ) NAMED_UNIT ( * ) SI_UNIT ( .MILLI., .METRE. ) );
#308 = PERSON_AND_ORGANIZATION ( #18446744073709551615, #18446744073709551615 ) ;
#309 = COORDINATED_UNIVERSAL_TIME_OFFSET ( 10, 0, .AHEAD. ) ;
#310 = LOCAL_TIME ( 18, 49, 54.00000000000000000, #114 ) ;
#311 = DOCUMENT_TYPE ( 'geometry' ) ;
#312 = PERSON_AND_ORGANIZATION_ROLE ( 'creator' ) ;
#313 = APPROVAL_STATUS ( 'not_yet_approved' ) ;
#314 = PERSON_AND_ORGANIZATION ( #18446744073709551615, #18446744073709551615 ) ;
#315 = DOCUMENT_TYPE ( 'geometry' ) ;
#316 = CC_DESIGN_APPROVAL ( #205, ( #109 ) ) ;
#317 = CC_DESIGN_PERSON_AND_ORGANIZATION_ASSIGNMENT ( #336, #98, ( #285 ) ) ;
#318 = DATE_AND_TIME ( #230, #201 ) ;
#319 = LOCAL_TIME ( 18, 49, 54.00000000000000000, #10 ) ;
#320 = CC_DESIGN_PERSON_AND_ORGANIZATION_ASSIGNMENT ( #314, #101, ( #223 ) ) ;
#321 = APPROVAL_STATUS ( 'not_yet_approved' ) ;
#322 = CALENDAR_DATE ( 2026, 22, 6 ) ;
#323 = APPROVAL_DATE_TIME ( #204, #332 ) ;
#324 = PERSON_AND_ORGANIZATION ( #18446744073709551615, #18446744073709551615 ) ;
#325 = AXIS2_PLACEMENT_3D ( 'NONE', #304, #82, #55 ) ;
#326 = LOCAL_TIME ( 18, 49, 54.00000000000000000, #170 ) ;
#327 = CALENDAR_DATE ( 2026, 22, 6 ) ;
#328 = DIRECTION ( 'NONE',  ( 0.000000000000000000, 0.000000000000000000, 1.000000000000000000 ) ) ;
#329 = CALENDAR_DATE ( 2026, 22, 6 ) ;
#330 = ROLE_ASSOCIATION ( #125, #8 ) ;
#331 = PERSON_AND_ORGANIZATION ( #18446744073709551615, #18446744073709551615 ) ;
#332 = APPROVAL ( #3, 'Coincident' ) ;
#333 = ORGANIZATION ( 'NAUO-ORG75', 'UNSPECIFIED', 'UNSPECIFIED' ) ;
#334 = CONTEXT_DEPENDENT_SHAPE_REPRESENTATION ( #74, #229 ) ;
#335 = APPLICATION_CONTEXT ( 'configuration controlled 3d designs of mechanical parts and assemblies' ) ;
#336 = PERSON_AND_ORGANIZATION ( #18446744073709551615, #18446744073709551615 ) ;
#337 = COORDINATED_UNIVERSAL_TIME_OFFSET ( 10, 0, .AHEAD. ) ;
#338 = PERSON_AND_ORGANIZATION ( #18446744073709551615, #18446744073709551615 ) ;
#339 = DATE_TIME_ROLE ( 'classification_date' ) ;
#340 = DATE_TIME_ROLE ( 'creation_date' ) ;
#341 = APPROVAL_PERSON_ORGANIZATION ( #96, #93, #161 ) ;
#342 = DATE_AND_TIME ( #157, #375 ) ;
#343 = APPROVAL_STATUS ( 'not_yet_approved' ) ;
#344 = AXIS2_PLACEMENT_3D ( 'NONE', #274, #1, #244 ) ;
#345 = APPROVAL_PERSON_ORGANIZATION ( #324, #180, #351 ) ;
#346 = PRODUCT_DEFINITION_SHAPE ( 'NONE', 'NONE',  #102 ) ;
#347 = DATE_AND_TIME ( #378, #326 ) ;
#348 = PROPERTY_DEFINITION ('document property','', #2 ) ;
#349 = APPROVAL_DATE_TIME ( #81, #180 ) ;
#350 = LOCAL_TIME ( 18, 49, 54.00000000000000000, #160 ) ;
#351 = APPROVAL_ROLE ( '' ) ;
#352 = OBJECT_ROLE ('mandatory',$ ) ;
#353 = COORDINATED_UNIVERSAL_TIME_OFFSET ( 10, 0, .AHEAD. ) ;
#354 = DATE_TIME_ROLE ( 'creation_date' ) ;
#355 = DIRECTION ( 'NONE',  ( 4.890937612370273194E-29, -3.155443620884047222E-30, 0.9999999999999997780 ) ) ;
#356 = COORDINATED_UNIVERSAL_TIME_OFFSET ( 10, 0, .AHEAD. ) ;
#357 =( NAMED_UNIT ( * ) PLANE_ANGLE_UNIT ( ) SI_UNIT ( $, .RADIAN. ) );
#358 = EXTERNAL_SOURCE (IDENTIFIER('') ) ;
#359 = DATE_AND_TIME ( #365, #302 ) ;
#360 =( NAMED_UNIT ( * ) SI_UNIT ( $, .STERADIAN. ) SOLID_ANGLE_UNIT ( ) );
#361 = APPROVAL_DATE_TIME ( #269, #183 ) ;
#362 = CC_DESIGN_DATE_AND_TIME_ASSIGNMENT ( #318, #169, ( #17 ) ) ;
#363 = PERSON_AND_ORGANIZATION_ROLE ( 'design_owner' ) ;
#364 = SECURITY_CLASSIFICATION_LEVEL ( 'unclassified' ) ;
#365 = CALENDAR_DATE ( 2026, 22, 6 ) ;
#366 = DATE_AND_TIME ( #67, #154 ) ;
#367 = PERSON_AND_ORGANIZATION ( #226, #84 ) ;
#368 = PROPERTY_DEFINITION ('document property','', #176 ) ;
#369 = DATE_AND_TIME ( #189, #256 ) ;
#370 = PRODUCT_RELATED_PRODUCT_CATEGORY ( 'detail', '', ( #195 ) ) ;
#371 = DATE_TIME_ROLE ( 'creation_date' ) ;
#372 = LOCAL_TIME ( 18, 49, 54.00000000000000000, #337 ) ;
#373 = APPROVAL_DATE_TIME ( #12, #188 ) ;
#374 = SHAPE_REPRESENTATION ( 'R28.step', ( #344, #100, #325, #42 ), #194 ) ;
#375 = LOCAL_TIME ( 18, 49, 54.00000000000000000, #309 ) ;
#376 = CC_DESIGN_SECURITY_CLASSIFICATION ( #285, ( #27 ) ) ;
#377 = APPROVAL_DATE_TIME ( #175, #174 ) ;
#378 = CALENDAR_DATE ( 2026, 22, 6 ) ;
#379 = PERSON_AND_ORGANIZATION ( #18446744073709551615, #18446744073709551615 ) ;
#380 = CC_DESIGN_PERSON_AND_ORGANIZATION_ASSIGNMENT ( #30, #119, ( #190 ) ) ;
#381 = APPLIED_EXTERNAL_IDENTIFICATION_ASSIGNMENT ( '6461082896.step.STEP' , #4, #358,( #2) ) ;
#382 = APPROVAL_ROLE ( '' ) ;
#383 = PERSON ( 'NAUO-PER75', 'UNSPECIFIED', 'UNSPECIFIED', ('UNSPECIFIED'), ('UNSPECIFIED'), ('UNSPECIFIED') ) ;
#384 = PRODUCT_DEFINITION ( 'General', '', #27, #139 ) ;
#385 = DATE_AND_TIME ( #291, #124 ) ;
#386 = PROPERTY_DEFINITION_REPRESENTATION ( #288, #94 ) ;
#387 = CC_DESIGN_SECURITY_CLASSIFICATION ( #17, ( #223 ) ) ;
#388 = NEXT_ASSEMBLY_USAGE_OCCURRENCE ( 'NAUO73', ' ', ' ', #384, #102, $ ) ;
#389 = NEXT_ASSEMBLY_USAGE_OCCURRENCE ( 'NAUO74', ' ', ' ', #384, #109, $ ) ;
#390 = NEXT_ASSEMBLY_USAGE_OCCURRENCE ( 'NAUO75', ' ', ' ', #384, #102, $ ) ;
ENDSEC;
END-ISO-10303-21;
