ISO-10303-21;
HEADER;
FILE_DESCRIPTION (( 'STEP AP203' ),
    '1' );
FILE_NAME ('R3.step.STEP',
    '2026-06-22T08:49:57',
    ( 'localuser' ),
    ( '' ),
    'SwSTEP 2.0',
    'SolidWorks 2025',
    '' );
FILE_SCHEMA (( 'CONFIG_CONTROL_DESIGN' ));
ENDSEC;

DATA;
#1 = DATE_AND_TIME ( #209, #278 ) ;
#2 = UNCERTAINTY_MEASURE_WITH_UNIT (LENGTH_MEASURE( 1.000000000000000082E-05 ), #10, 'distance_accuracy_value', 'NONE');
#3 = APPROVAL ( #315, 'Coincident' ) ;
#4 = PERSON_AND_ORGANIZATION_ROLE ( 'creator' ) ;
#5 = APPROVAL ( #78, 'Coincident' ) ;
#6 = COORDINATED_UNIVERSAL_TIME_OFFSET ( 10, 0, .AHEAD. ) ;
#7 = DOCUMENT_FILE ( '6461079856.step.STEP' , '', '', #358, '' ,$ ) ;
#8 = APPLIED_EXTERNAL_IDENTIFICATION_ASSIGNMENT ( '6461079856.step.STEP' , #156, #364,( #44) ) ;
#9 = APPROVAL_DATE_TIME ( #102, #79 ) ;
#10 =( LENGTH_UNIT ( ) NAMED_UNIT ( * ) SI_UNIT ( .MILLI., .METRE. ) );
#11 = CC_DESIGN_PERSON_AND_ORGANIZATION_ASSIGNMENT ( #273, #97, ( #200 ) ) ;
#12 = SECURITY_CLASSIFICATION_LEVEL ( 'unclassified' ) ;
#13 = DATE_AND_TIME ( #255, #212 ) ;
#14 = LOCAL_TIME ( 18, 49, 57.00000000000000000, #221 ) ;
#15 = PROPERTY_DEFINITION ('external definition','', #44 ) ;
#16 = DOCUMENT_TYPE ( 'geometry' ) ;
#17 = CC_DESIGN_DATE_AND_TIME_ASSIGNMENT ( #231, #286, ( #65 ) ) ;
#18 = DIRECTION ( 'NONE',  ( 1.000000000000000222, -1.092455418989176591E-28, 4.890937612370273194E-29 ) ) ;
#19 = DATE_AND_TIME ( #324, #166 ) ;
#20 = PERSON_AND_ORGANIZATION_ROLE ( 'design_supplier' ) ;
#21 = APPROVAL_DATE_TIME ( #381, #153 ) ;
#22 = APPROVAL_PERSON_ORGANIZATION ( #237, #125, #151 ) ;
#23 = PERSON_AND_ORGANIZATION ( #18446744073709551615, #18446744073709551615 ) ;
#24 = APPROVAL ( #195, 'Coincident' ) ;
#25 = PERSON_AND_ORGANIZATION_ROLE ( 'classification_officer' ) ;
#26 = PERSON_AND_ORGANIZATION ( #18446744073709551615, #18446744073709551615 ) ;
#27 =( GEOMETRIC_REPRESENTATION_CONTEXT ( 3 ) GLOBAL_UNCERTAINTY_ASSIGNED_CONTEXT ( ( #147 ) ) GLOBAL_UNIT_ASSIGNED_CONTEXT ( ( #260, #258, #167 ) ) REPRESENTATION_CONTEXT ( 'NONE', 'WORKASPACE' ) );
#28 = CC_DESIGN_SECURITY_CLASSIFICATION ( #247, ( #390 ) ) ;
#29 = APPLIED_EXTERNAL_IDENTIFICATION_ASSIGNMENT ( '6461079856.step.STEP' , #127, #205,( #7) ) ;
#30 = CC_DESIGN_PERSON_AND_ORGANIZATION_ASSIGNMENT ( #269, #47, ( #118 ) ) ;
#31 = CC_DESIGN_DATE_AND_TIME_ASSIGNMENT ( #350, #84, ( #111 ) ) ;
#32 = DATE_AND_TIME ( #312, #126 ) ;
#33 = CC_DESIGN_APPROVAL ( #373, ( #65 ) ) ;
#34 = DIRECTION ( 'NONE',  ( 0.000000000000000000, 0.000000000000000000, 1.000000000000000000 ) ) ;
#35 = ITEM_DEFINED_TRANSFORMATION ( 'NONE', 'NONE', #253,  #230 ) ;
#36 = IDENTIFICATION_ROLE ( 'external document id and location', $) ;
#37 = PERSON_AND_ORGANIZATION ( #64, #367 ) ;
#38 = COORDINATED_UNIVERSAL_TIME_OFFSET ( 10, 0, .AHEAD. ) ;
#39 = CC_DESIGN_APPROVAL ( #79, ( #67 ) ) ;
#40 = PERSON_AND_ORGANIZATION ( #18446744073709551615, #18446744073709551615 ) ;
#41 = APPROVAL ( #123, 'Coincident' ) ;
#42 = ITEM_DEFINED_TRANSFORMATION ( 'NONE', 'NONE', #158,  #334 ) ;
#43 = COORDINATED_UNIVERSAL_TIME_OFFSET ( 10, 0, .AHEAD. ) ;
#44 = DOCUMENT_FILE ( '6461079856.step.STEP' , '', '', #16, '' ,$ ) ;
#45 = PROPERTY_DEFINITION ('document property','', #7 ) ;
#46 = APPROVAL_ROLE ( '' ) ;
#47 = PERSON_AND_ORGANIZATION_ROLE ( 'classification_officer' ) ;
#48 = CC_DESIGN_PERSON_AND_ORGANIZATION_ASSIGNMENT ( #219, #323, ( #217 ) ) ;
#49 = PRODUCT_DEFINITION_SHAPE ( 'NONE', 'NONE',  #388 ) ;
#50 = APPROVAL_DATE_TIME ( #13, #3 ) ;
#51 = CC_DESIGN_APPROVAL ( #153, ( #326 ) ) ;
#52 = DATE_AND_TIME ( #351, #232 ) ;
#53 = DATE_AND_TIME ( #203, #284 ) ;
#54 = UNCERTAINTY_MEASURE_WITH_UNIT (LENGTH_MEASURE( 1.000000000000000082E-05 ), #104, 'distance_accuracy_value', 'NONE');
#55 = CALENDAR_DATE ( 2026, 22, 6 ) ;
#56 = APPLICATION_PROTOCOL_DEFINITION ( 'international standard', 'config_control_design', 1994, #303 ) ;
#57 = CONTEXT_DEPENDENT_SHAPE_REPRESENTATION ( #226, #294 ) ;
#58 = APPLICATION_PROTOCOL_DEFINITION ( 'international standard', 'config_control_design', 1994, #266 ) ;
#59 = PRODUCT_RELATED_PRODUCT_CATEGORY ( 'detail', '', ( #200 ) ) ;
#60 = APPROVAL_PERSON_ORGANIZATION ( #26, #198, #300 ) ;
#61 = DATE_AND_TIME ( #68, #335 ) ;
#62 = APPLICATION_PROTOCOL_DEFINITION ( 'international standard', 'config_control_design', 1994, #245 ) ;
#63 = APPLICATION_CONTEXT ( 'configuration controlled 3d designs of mechanical parts and assemblies' ) ;
#64 = PERSON ( 'NAUO-PER183', 'UNSPECIFIED', 'UNSPECIFIED', ('UNSPECIFIED'), ('UNSPECIFIED'), ('UNSPECIFIED') ) ;
#65 = PRODUCT_DEFINITION ( 'General', '', #67, #331 ) ;
#66 = APPROVAL_PERSON_ORGANIZATION ( #23, #373, #340 ) ;
#67 = PRODUCT_DEFINITION_FORMATION_WITH_SPECIFIED_SOURCE ( 'Symmetric', '', #234, .NOT_KNOWN. ) ;
#68 = CALENDAR_DATE ( 2026, 22, 6 ) ;
#69 = DIRECTION ( 'NONE',  ( 0.000000000000000000, 0.000000000000000000, 1.000000000000000000 ) ) ;
#70 = COORDINATED_UNIVERSAL_TIME_OFFSET ( 10, 0, .AHEAD. ) ;
#71 = APPROVAL_PERSON_ORGANIZATION ( #269, #355, #175 ) ;
#72 = DATE_AND_TIME ( #137, #235 ) ;
#73 =( NAMED_UNIT ( * ) PLANE_ANGLE_UNIT ( ) SI_UNIT ( $, .RADIAN. ) );
#74 = DIRECTION ( 'NONE',  ( 1.000000000000000222, -1.092455418989176591E-28, 4.890937612370273194E-29 ) ) ;
#75 = DATE_TIME_ROLE ( 'classification_date' ) ;
#76 = APPROVAL_DATE_TIME ( #53, #5 ) ;
#77 = PERSON_AND_ORGANIZATION ( #18446744073709551615, #18446744073709551615 ) ;
#78 = APPROVAL_STATUS ( 'not_yet_approved' ) ;
#79 = APPROVAL ( #251, 'Coincident' ) ;
#80 = SHAPE_REPRESENTATION ( 'R3.step', ( #89, #158, #253, #366 ), #27 ) ;
#81 = APPROVAL_PERSON_ORGANIZATION ( #293, #41, #187 ) ;
#82 = LOCAL_TIME ( 18, 49, 57.00000000000000000, #317 ) ;
#83 = APPROVAL_STATUS ( 'not_yet_approved' ) ;
#84 = DATE_TIME_ROLE ( 'creation_date' ) ;
#85 = APPLIED_DOCUMENT_REFERENCE ( #44,'',( #111) ) ;
#86 = CC_DESIGN_PERSON_AND_ORGANIZATION_ASSIGNMENT ( #108, #313, ( #375 ) ) ;
#87 = PERSON_AND_ORGANIZATION_ROLE ( 'design_supplier' ) ;
#88 = APPROVAL_STATUS ( 'not_yet_approved' ) ;
#89 = AXIS2_PLACEMENT_3D ( 'NONE', #96, #69, #233 ) ;
#90 = CC_DESIGN_APPROVAL ( #24, ( #318 ) ) ;
#91 = PERSON_AND_ORGANIZATION ( #18446744073709551615, #18446744073709551615 ) ;
#92 =( NAMED_UNIT ( * ) SI_UNIT ( $, .STERADIAN. ) SOLID_ANGLE_UNIT ( ) );
#93 = LOCAL_TIME ( 18, 49, 57.00000000000000000, #114 ) ;
#94 = APPROVAL_PERSON_ORGANIZATION ( #130, #79, #100 ) ;
#95 = SHAPE_REPRESENTATION ( '6534431024.step', ( #334 ), #129 ) ;
#96 = CARTESIAN_POINT ( 'NONE',  ( 0.000000000000000000, 0.000000000000000000, 0.000000000000000000 ) ) ;
#97 = PERSON_AND_ORGANIZATION_ROLE ( 'design_owner' ) ;
#98 = CC_DESIGN_PERSON_AND_ORGANIZATION_ASSIGNMENT ( #77, #229, ( #318 ) ) ;
#99 = DIRECTION ( 'NONE',  ( 1.000000000000000000, 0.000000000000000000, 0.000000000000000000 ) ) ;
#100 = APPROVAL_ROLE ( '' ) ;
#101 = APPLICATION_CONTEXT ( 'configuration controlled 3d designs of mechanical parts and assemblies' ) ;
#102 = DATE_AND_TIME ( #225, #103 ) ;
#103 = LOCAL_TIME ( 18, 49, 57.00000000000000000, #38 ) ;
#104 =( LENGTH_UNIT ( ) NAMED_UNIT ( * ) SI_UNIT ( .MILLI., .METRE. ) );
#105 = PRODUCT_DEFINITION ( 'General', '', #375, #267 ) ;
#106 = SECURITY_CLASSIFICATION_LEVEL ( 'unclassified' ) ;
#107 = SECURITY_CLASSIFICATION_LEVEL ( 'unclassified' ) ;
#108 = PERSON_AND_ORGANIZATION ( #18446744073709551615, #18446744073709551615 ) ;
#109 = PERSON_AND_ORGANIZATION_ROLE ( 'creator' ) ;
#110 = CC_DESIGN_APPROVAL ( #41, ( #111 ) ) ;
#111 = PRODUCT_DEFINITION ( 'General', '', #326, #246 ) ;
#112 = PRODUCT_DEFINITION_SHAPE ( 'NONE', 'NONE',  #65 ) ;
#113 = ROLE_ASSOCIATION ( #145, #349 ) ;
#114 = COORDINATED_UNIVERSAL_TIME_OFFSET ( 10, 0, .AHEAD. ) ;
#115 = ITEM_DEFINED_TRANSFORMATION ( 'NONE', 'NONE', #366,  #230 ) ;
#116 = CC_DESIGN_APPROVAL ( #5, ( #105 ) ) ;
#117 = DATE_AND_TIME ( #274, #356 ) ;
#118 = SECURITY_CLASSIFICATION ( '', '', #106 ) ;
#119 = PROPERTY_DEFINITION_REPRESENTATION ( #202, #242 ) ;
#120 = CC_DESIGN_DATE_AND_TIME_ASSIGNMENT ( #117, #124, ( #194 ) ) ;
#121 = APPROVAL_STATUS ( 'not_yet_approved' ) ;
#122 = APPROVAL_DATE_TIME ( #19, #355 ) ;
#123 = APPROVAL_STATUS ( 'not_yet_approved' ) ;
#124 = DATE_TIME_ROLE ( 'classification_date' ) ;
#125 = APPROVAL ( #83, 'UNKNOWN' ) ;
#126 = LOCAL_TIME ( 18, 49, 57.00000000000000000, #6 ) ;
#127 = IDENTIFICATION_ROLE ( 'external document id and location', $) ;
#128 = APPROVAL_DATE_TIME ( #1, #198 ) ;
#129 =( GEOMETRIC_REPRESENTATION_CONTEXT ( 3 ) GLOBAL_UNCERTAINTY_ASSIGNED_CONTEXT ( ( #54 ) ) GLOBAL_UNIT_ASSIGNED_CONTEXT ( ( #104, #73, #92 ) ) REPRESENTATION_CONTEXT ( 'NONE', 'WORKASPACE' ) );
#130 = PERSON_AND_ORGANIZATION ( #18446744073709551615, #18446744073709551615 ) ;
#131 = MECHANICAL_CONTEXT ( 'NONE', #63, 'mechanical' ) ;
#132 = APPROVAL_DATE_TIME ( #32, #24 ) ;
#133 = CC_DESIGN_DATE_AND_TIME_ASSIGNMENT ( #72, #308, ( #387 ) ) ;
#134 = APPROVAL_PERSON_ORGANIZATION ( #40, #5, #287 ) ;
#135 = CC_DESIGN_APPROVAL ( #198, ( #217 ) ) ;
#136 = APPROVAL_DATE_TIME ( #161, #373 ) ;
#137 = CALENDAR_DATE ( 2026, 22, 6 ) ;
#138 = DIRECTION ( 'NONE',  ( 1.000000000000000222, -1.092455418989176591E-28, 4.890937612370273194E-29 ) ) ;
#139 = CC_DESIGN_PERSON_AND_ORGANIZATION_ASSIGNMENT ( #37, #160, ( #387 ) ) ;
#140 = CC_DESIGN_SECURITY_CLASSIFICATION ( #217, ( #326 ) ) ;
#141 = DIRECTION ( 'NONE',  ( 4.890937612370273194E-29, -3.155443620884047222E-30, 0.9999999999999997780 ) ) ;
#142 = PROPERTY_DEFINITION ('document property','', #44 ) ;
#143 = PROPERTY_DEFINITION_REPRESENTATION ( #142, #242 ) ;
#144 = CARTESIAN_POINT ( 'NONE',  ( 14.39999871823200195, 14.94999340820300482, -2.058321952819998302 ) ) ;
#145 = OBJECT_ROLE ('mandatory',$ ) ;
#146 = APPROVAL_DATE_TIME ( #61, #343 ) ;
#147 = UNCERTAINTY_MEASURE_WITH_UNIT (LENGTH_MEASURE( 1.000000000000000082E-05 ), #260, 'distance_accuracy_value', 'NONE');
#148 = SECURITY_CLASSIFICATION_LEVEL ( 'unclassified' ) ;
#149 = CALENDAR_DATE ( 2026, 22, 6 ) ;
#150 = CC_DESIGN_APPROVAL ( #355, ( #118 ) ) ;
#151 = APPROVAL_ROLE ( '' ) ;
#152 = COORDINATED_UNIVERSAL_TIME_OFFSET ( 10, 0, .AHEAD. ) ;
#153 = APPROVAL ( #121, 'Coincident' ) ;
#154 = COORDINATED_UNIVERSAL_TIME_OFFSET ( 10, 0, .AHEAD. ) ;
#155 = DATE_TIME_ROLE ( 'classification_date' ) ;
#156 = IDENTIFICATION_ROLE ( 'external document id and location', $) ;
#157 = APPROVAL_PERSON_ORGANIZATION ( #227, #24, #199 ) ;
#158 = AXIS2_PLACEMENT_3D ( 'NONE', #295, #289, #18 ) ;
#159 = LOCAL_TIME ( 18, 49, 57.00000000000000000, #154 ) ;
#160 = PERSON_AND_ORGANIZATION_ROLE ( 'classification_officer' ) ;
#161 = DATE_AND_TIME ( #288, #174 ) ;
#162 = CC_DESIGN_PERSON_AND_ORGANIZATION_ASSIGNMENT ( #296, #20, ( #375 ) ) ;
#163 = APPLICATION_CONTEXT ( 'configuration controlled 3d designs of mechanical parts and assemblies' ) ;
#164 = APPLIED_DOCUMENT_REFERENCE ( #374,'',( #65) ) ;
#165 = PERSON_AND_ORGANIZATION ( #18446744073709551615, #18446744073709551615 ) ;
#166 = LOCAL_TIME ( 18, 49, 57.00000000000000000, #380 ) ;
#167 =( NAMED_UNIT ( * ) SI_UNIT ( $, .STERADIAN. ) SOLID_ANGLE_UNIT ( ) );
#168 = CALENDAR_DATE ( 2026, 22, 6 ) ;
#169 = DATE_TIME_ROLE ( 'creation_date' ) ;
#170 = CC_DESIGN_DATE_AND_TIME_ASSIGNMENT ( #301, #155, ( #217 ) ) ;
#171 =( NAMED_UNIT ( * ) PLANE_ANGLE_UNIT ( ) SI_UNIT ( $, .RADIAN. ) );
#172 = PRODUCT ( 'R3.step', 'R3.step', '', ( #131 ) ) ;
#173 = PROPERTY_DEFINITION_REPRESENTATION ( #15, #242 ) ;
#174 = LOCAL_TIME ( 18, 49, 57.00000000000000000, #257 ) ;
#175 = APPROVAL_ROLE ( '' ) ;
#176 = CALENDAR_DATE ( 2026, 22, 6 ) ;
#177 = CONTEXT_DEPENDENT_SHAPE_REPRESENTATION ( #345, #377 ) ;
#178 = COORDINATED_UNIVERSAL_TIME_OFFSET ( 10, 0, .AHEAD. ) ;
#179 = SHAPE_DEFINITION_REPRESENTATION ( #261, #80 ) ;
#180 = CC_DESIGN_PERSON_AND_ORGANIZATION_ASSIGNMENT ( #252, #379, ( #172 ) ) ;
#181 = PERSON_AND_ORGANIZATION ( #18446744073709551615, #18446744073709551615 ) ;
#182 = SECURITY_CLASSIFICATION_LEVEL ( 'unclassified' ) ;
#183 = DOCUMENT_TYPE ( 'geometry' ) ;
#184 = APPROVAL_PERSON_ORGANIZATION ( #37, #204, #372 ) ;
#185 = DIRECTION ( 'NONE',  ( 1.000000000000000000, 0.000000000000000000, 0.000000000000000000 ) ) ;
#186 = CARTESIAN_POINT ( 'NONE',  ( 0.000000000000000000, 0.000000000000000000, 0.000000000000000000 ) ) ;
#187 = APPROVAL_ROLE ( '' ) ;
#188 = DIRECTION ( 'NONE',  ( 0.000000000000000000, 0.000000000000000000, 1.000000000000000000 ) ) ;
#189 = APPROVAL_PERSON_ORGANIZATION ( #181, #153, #241 ) ;
#190 = PRODUCT_RELATED_PRODUCT_CATEGORY ( 'detail', '', ( #234 ) ) ;
#191 = APPROVAL_DATE_TIME ( #365, #204 ) ;
#192 = APPROVAL_STATUS ( 'not_yet_approved' ) ;
#193 =( NAMED_UNIT ( * ) SI_UNIT ( $, .STERADIAN. ) SOLID_ANGLE_UNIT ( ) );
#194 = SECURITY_CLASSIFICATION ( '', '', #369 ) ;
#195 = APPROVAL_STATUS ( 'not_yet_approved' ) ;
#196 = ORGANIZATION ( 'NAUO-ORG185', 'UNSPECIFIED', 'UNSPECIFIED' ) ;
#197 = DATE_AND_TIME ( #176, #93 ) ;
#198 = APPROVAL ( #88, 'Coincident' ) ;
#199 = APPROVAL_ROLE ( '' ) ;
#200 = PRODUCT ( '6461079856.step', '6461079856.step', '', ( #325 ) ) ;
#201 = CARTESIAN_POINT ( 'NONE',  ( 14.39999871823200550, 15.94999340820300127, -2.058321952820000078 ) ) ;
#202 = PROPERTY_DEFINITION ('external definition','', #7 ) ;
#203 = CALENDAR_DATE ( 2026, 22, 6 ) ;
#204 = APPROVAL ( #337, 'UNKNOWN' ) ;
#205 = EXTERNAL_SOURCE (IDENTIFIER('') ) ;
#206 = CC_DESIGN_SECURITY_CLASSIFICATION ( #387, ( #388 ) ) ;
#207 = APPROVAL_ROLE ( '' ) ;
#208 = CALENDAR_DATE ( 2026, 22, 6 ) ;
#209 = CALENDAR_DATE ( 2026, 22, 6 ) ;
#210 = ROLE_ASSOCIATION ( #299, #85 ) ;
#211 = PERSON_AND_ORGANIZATION_ROLE ( 'design_owner' ) ;
#212 = LOCAL_TIME ( 18, 49, 57.00000000000000000, #371 ) ;
#213 = APPROVAL_STATUS ( 'not_yet_approved' ) ;
#214 = LOCAL_TIME ( 18, 49, 57.00000000000000000, #329 ) ;
#215 = CC_DESIGN_DATE_AND_TIME_ASSIGNMENT ( #339, #75, ( #318 ) ) ;
#216 = PERSON_AND_ORGANIZATION_ROLE ( 'creator' ) ;
#217 = SECURITY_CLASSIFICATION ( '', '', #182 ) ;
#218 = CARTESIAN_POINT ( 'NONE',  ( 0.000000000000000000, 0.000000000000000000, 0.000000000000000000 ) ) ;
#219 = PERSON_AND_ORGANIZATION ( #18446744073709551615, #18446744073709551615 ) ;
#220 = CC_DESIGN_PERSON_AND_ORGANIZATION_ASSIGNMENT ( #316, #292, ( #105 ) ) ;
#221 = COORDINATED_UNIVERSAL_TIME_OFFSET ( 10, 0, .AHEAD. ) ;
#222 = APPLICATION_PROTOCOL_DEFINITION ( 'international standard', 'config_control_design', 1994, #63 ) ;
#223 = PERSON ( 'NAUO-PER184', 'UNSPECIFIED', 'UNSPECIFIED', ('UNSPECIFIED'), ('UNSPECIFIED'), ('UNSPECIFIED') ) ;
#224 = CC_DESIGN_APPROVAL ( #343, ( #194 ) ) ;
#225 = CALENDAR_DATE ( 2026, 22, 6 ) ;
#226 =( REPRESENTATION_RELATIONSHIP ('NONE','NONE', #80, #242 ) REPRESENTATION_RELATIONSHIP_WITH_TRANSFORMATION ( #35 )SHAPE_REPRESENTATION_RELATIONSHIP( ) );
#227 = PERSON_AND_ORGANIZATION ( #18446744073709551615, #18446744073709551615 ) ;
#228 = PERSON_AND_ORGANIZATION ( #18446744073709551615, #18446744073709551615 ) ;
#229 = PERSON_AND_ORGANIZATION_ROLE ( 'classification_officer' ) ;
#230 = AXIS2_PLACEMENT_3D ( 'NONE', #186, #188, #185 ) ;
#231 = DATE_AND_TIME ( #168, #276 ) ;
#232 = LOCAL_TIME ( 18, 49, 57.00000000000000000, #297 ) ;
#233 = DIRECTION ( 'NONE',  ( 1.000000000000000000, 0.000000000000000000, 0.000000000000000000 ) ) ;
#234 = PRODUCT ( '6534431024.step', '6534431024.step', '', ( #298 ) ) ;
#235 = LOCAL_TIME ( 18, 49, 57.00000000000000000, #70 ) ;
#236 = APPLICATION_PROTOCOL_DEFINITION ( 'international standard', 'config_control_design', 1994, #163 ) ;
#237 = PERSON_AND_ORGANIZATION ( #378, #196 ) ;
#238 = PERSON_AND_ORGANIZATION ( #18446744073709551615, #18446744073709551615 ) ;
#239 = DATE_TIME_ROLE ( 'classification_date' ) ;
#240 = CC_DESIGN_PERSON_AND_ORGANIZATION_ASSIGNMENT ( #310, #109, ( #67 ) ) ;
#241 = APPROVAL_ROLE ( '' ) ;
#242 = SHAPE_REPRESENTATION ( '6461079856.step', ( #230 ), #270 ) ;
#243 = DATE_AND_TIME ( #272, #382 ) ;
#244 = ORGANIZATION ( 'NAUO-ORG184', 'UNSPECIFIED', 'UNSPECIFIED' ) ;
#245 = APPLICATION_CONTEXT ( 'configuration controlled 3d designs of mechanical parts and assemblies' ) ;
#246 = DESIGN_CONTEXT ( 'detailed design', #163, 'design' ) ;
#247 = SECURITY_CLASSIFICATION ( '', '', #148 ) ;
#248 = SHAPE_DEFINITION_REPRESENTATION ( #344, #242 ) ;
#249 = ROLE_ASSOCIATION ( #282, #164 ) ;
#250 = PROPERTY_DEFINITION ('external definition','', #374 ) ;
#251 = APPROVAL_STATUS ( 'not_yet_approved' ) ;
#252 = PERSON_AND_ORGANIZATION ( #18446744073709551615, #18446744073709551615 ) ;
#253 = AXIS2_PLACEMENT_3D ( 'NONE', #144, #141, #74 ) ;
#254 = CC_DESIGN_APPROVAL ( #204, ( #387 ) ) ;
#255 = CALENDAR_DATE ( 2026, 22, 6 ) ;
#256 = CC_DESIGN_PERSON_AND_ORGANIZATION_ASSIGNMENT ( #228, #25, ( #194 ) ) ;
#257 = COORDINATED_UNIVERSAL_TIME_OFFSET ( 10, 0, .AHEAD. ) ;
#258 =( NAMED_UNIT ( * ) PLANE_ANGLE_UNIT ( ) SI_UNIT ( $, .RADIAN. ) );
#259 = CALENDAR_DATE ( 2026, 22, 6 ) ;
#260 =( LENGTH_UNIT ( ) NAMED_UNIT ( * ) SI_UNIT ( .MILLI., .METRE. ) );
#261 = PRODUCT_DEFINITION_SHAPE ( 'NONE', 'NONE',  #105 ) ;
#262 = LOCAL_TIME ( 18, 49, 57.00000000000000000, #281 ) ;
#263 = CC_DESIGN_PERSON_AND_ORGANIZATION_ASSIGNMENT ( #238, #302, ( #111 ) ) ;
#264 = DIRECTION ( 'NONE',  ( 4.890937612370273194E-29, -3.155443620884047222E-30, 0.9999999999999997780 ) ) ;
#265 = CC_DESIGN_DATE_AND_TIME_ASSIGNMENT ( #290, #321, ( #247 ) ) ;
#266 = APPLICATION_CONTEXT ( 'configuration controlled 3d designs of mechanical parts and assemblies' ) ;
#267 = DESIGN_CONTEXT ( 'detailed design', #101, 'design' ) ;
#268 = COORDINATED_UNIVERSAL_TIME_OFFSET ( 10, 0, .AHEAD. ) ;
#269 = PERSON_AND_ORGANIZATION ( #223, #244 ) ;
#270 =( GEOMETRIC_REPRESENTATION_CONTEXT ( 3 ) GLOBAL_UNCERTAINTY_ASSIGNED_CONTEXT ( ( #2 ) ) GLOBAL_UNIT_ASSIGNED_CONTEXT ( ( #10, #171, #193 ) ) REPRESENTATION_CONTEXT ( 'NONE', 'WORKASPACE' ) );
#271 = APPROVAL_PERSON_ORGANIZATION ( #361, #343, #207 ) ;
#272 = CALENDAR_DATE ( 2026, 22, 6 ) ;
#273 = PERSON_AND_ORGANIZATION ( #18446744073709551615, #18446744073709551615 ) ;
#274 = CALENDAR_DATE ( 2026, 22, 6 ) ;
#275 = APPROVAL_STATUS ( 'not_yet_approved' ) ;
#276 = LOCAL_TIME ( 18, 49, 57.00000000000000000, #370 ) ;
#277 = CC_DESIGN_PERSON_AND_ORGANIZATION_ASSIGNMENT ( #342, #283, ( #67 ) ) ;
#278 = LOCAL_TIME ( 18, 49, 57.00000000000000000, #332 ) ;
#279 = CONTEXT_DEPENDENT_SHAPE_REPRESENTATION ( #320, #49 ) ;
#280 = CC_DESIGN_PERSON_AND_ORGANIZATION_ASSIGNMENT ( #352, #211, ( #234 ) ) ;
#281 = COORDINATED_UNIVERSAL_TIME_OFFSET ( 10, 0, .AHEAD. ) ;
#282 = OBJECT_ROLE ('mandatory',$ ) ;
#283 = PERSON_AND_ORGANIZATION_ROLE ( 'design_supplier' ) ;
#284 = LOCAL_TIME ( 18, 49, 57.00000000000000000, #43 ) ;
#285 = CC_DESIGN_SECURITY_CLASSIFICATION ( #318, ( #67 ) ) ;
#286 = DATE_TIME_ROLE ( 'creation_date' ) ;
#287 = APPROVAL_ROLE ( '' ) ;
#288 = CALENDAR_DATE ( 2026, 22, 6 ) ;
#289 = DIRECTION ( 'NONE',  ( 4.890937612370273194E-29, -3.155443620884047222E-30, 0.9999999999999997780 ) ) ;
#290 = DATE_AND_TIME ( #55, #82 ) ;
#291 = CC_DESIGN_DATE_AND_TIME_ASSIGNMENT ( #386, #239, ( #118 ) ) ;
#292 = PERSON_AND_ORGANIZATION_ROLE ( 'creator' ) ;
#293 = PERSON_AND_ORGANIZATION ( #18446744073709551615, #18446744073709551615 ) ;
#294 = PRODUCT_DEFINITION_SHAPE ( 'NONE', 'NONE',  #389 ) ;
#295 = CARTESIAN_POINT ( 'NONE',  ( 14.39999871823200195, 15.44999340820300482, -2.058321952820000078 ) ) ;
#296 = PERSON_AND_ORGANIZATION ( #18446744073709551615, #18446744073709551615 ) ;
#297 = COORDINATED_UNIVERSAL_TIME_OFFSET ( 10, 0, .AHEAD. ) ;
#298 = MECHANICAL_CONTEXT ( 'NONE', #303, 'mechanical' ) ;
#299 = OBJECT_ROLE ('mandatory',$ ) ;
#300 = APPROVAL_ROLE ( '' ) ;
#301 = DATE_AND_TIME ( #149, #214 ) ;
#302 = PERSON_AND_ORGANIZATION_ROLE ( 'creator' ) ;
#303 = APPLICATION_CONTEXT ( 'configuration controlled 3d designs of mechanical parts and assemblies' ) ;
#304 = CC_DESIGN_SECURITY_CLASSIFICATION ( #118, ( #389 ) ) ;
#305 = CC_DESIGN_PERSON_AND_ORGANIZATION_ASSIGNMENT ( #165, #4, ( #65 ) ) ;
#306 = COORDINATED_UNIVERSAL_TIME_OFFSET ( 10, 0, .AHEAD. ) ;
#307 = LOCAL_TIME ( 18, 49, 57.00000000000000000, #346 ) ;
#308 = DATE_TIME_ROLE ( 'classification_date' ) ;
#309 = CALENDAR_DATE ( 2026, 22, 6 ) ;
#310 = PERSON_AND_ORGANIZATION ( #18446744073709551615, #18446744073709551615 ) ;
#311 = APPLIED_EXTERNAL_IDENTIFICATION_ASSIGNMENT ( '6534431024.step.STEP' , #36, #338,( #374) ) ;
#312 = CALENDAR_DATE ( 2026, 22, 6 ) ;
#313 = PERSON_AND_ORGANIZATION_ROLE ( 'creator' ) ;
#314 = PERSON_AND_ORGANIZATION_ROLE ( 'classification_officer' ) ;
#315 = APPROVAL_STATUS ( 'not_yet_approved' ) ;
#316 = PERSON_AND_ORGANIZATION ( #18446744073709551615, #18446744073709551615 ) ;
#317 = COORDINATED_UNIVERSAL_TIME_OFFSET ( 10, 0, .AHEAD. ) ;
#318 = SECURITY_CLASSIFICATION ( '', '', #107 ) ;
#319 = APPLICATION_PROTOCOL_DEFINITION ( 'international standard', 'config_control_design', 1994, #101 ) ;
#320 =( REPRESENTATION_RELATIONSHIP ('NONE','NONE', #80, #95 ) REPRESENTATION_RELATIONSHIP_WITH_TRANSFORMATION ( #42 )SHAPE_REPRESENTATION_RELATIONSHIP( ) );
#321 = DATE_TIME_ROLE ( 'classification_date' ) ;
#322 = CC_DESIGN_DATE_AND_TIME_ASSIGNMENT ( #197, #169, ( #105 ) ) ;
#323 = PERSON_AND_ORGANIZATION_ROLE ( 'classification_officer' ) ;
#324 = CALENDAR_DATE ( 2026, 22, 6 ) ;
#325 = MECHANICAL_CONTEXT ( 'NONE', #245, 'mechanical' ) ;
#326 = PRODUCT_DEFINITION_FORMATION_WITH_SPECIFIED_SOURCE ( 'Symmetric', '', #200, .NOT_KNOWN. ) ;
#327 = CALENDAR_DATE ( 2026, 22, 6 ) ;
#328 = CC_DESIGN_PERSON_AND_ORGANIZATION_ASSIGNMENT ( #357, #87, ( #326 ) ) ;
#329 = COORDINATED_UNIVERSAL_TIME_OFFSET ( 10, 0, .AHEAD. ) ;
#330 = CC_DESIGN_PERSON_AND_ORGANIZATION_ASSIGNMENT ( #91, #216, ( #326 ) ) ;
#331 = DESIGN_CONTEXT ( 'detailed design', #266, 'design' ) ;
#332 = COORDINATED_UNIVERSAL_TIME_OFFSET ( 10, 0, .AHEAD. ) ;
#333 = SHAPE_DEFINITION_REPRESENTATION ( #112, #95 ) ;
#334 = AXIS2_PLACEMENT_3D ( 'NONE', #218, #34, #99 ) ;
#335 = LOCAL_TIME ( 18, 49, 57.00000000000000000, #306 ) ;
#336 = PRODUCT_RELATED_PRODUCT_CATEGORY ( 'detail', '', ( #172 ) ) ;
#337 = APPROVAL_STATUS ( 'not_yet_approved' ) ;
#338 = EXTERNAL_SOURCE (IDENTIFIER('') ) ;
#339 = DATE_AND_TIME ( #309, #262 ) ;
#340 = APPROVAL_ROLE ( '' ) ;
#341 = APPROVAL_PERSON_ORGANIZATION ( #347, #3, #46 ) ;
#342 = PERSON_AND_ORGANIZATION ( #18446744073709551615, #18446744073709551615 ) ;
#343 = APPROVAL ( #275, 'Coincident' ) ;
#344 = PRODUCT_DEFINITION_SHAPE ( 'NONE', 'NONE',  #111 ) ;
#345 =( REPRESENTATION_RELATIONSHIP ('NONE','NONE', #80, #242 ) REPRESENTATION_RELATIONSHIP_WITH_TRANSFORMATION ( #115 )SHAPE_REPRESENTATION_RELATIONSHIP( ) );
#346 = COORDINATED_UNIVERSAL_TIME_OFFSET ( 10, 0, .AHEAD. ) ;
#347 = PERSON_AND_ORGANIZATION ( #18446744073709551615, #18446744073709551615 ) ;
#348 = CC_DESIGN_SECURITY_CLASSIFICATION ( #194, ( #375 ) ) ;
#349 = APPLIED_DOCUMENT_REFERENCE ( #7,'',( #111) ) ;
#350 = DATE_AND_TIME ( #327, #376 ) ;
#351 = CALENDAR_DATE ( 2026, 22, 6 ) ;
#352 = PERSON_AND_ORGANIZATION ( #18446744073709551615, #18446744073709551615 ) ;
#353 = PROPERTY_DEFINITION_REPRESENTATION ( #45, #242 ) ;
#354 = CALENDAR_DATE ( 2026, 22, 6 ) ;
#355 = APPROVAL ( #192, 'UNKNOWN' ) ;
#356 = LOCAL_TIME ( 18, 49, 57.00000000000000000, #152 ) ;
#357 = PERSON_AND_ORGANIZATION ( #18446744073709551615, #18446744073709551615 ) ;
#358 = DOCUMENT_TYPE ( 'geometry' ) ;
#359 = CC_DESIGN_APPROVAL ( #3, ( #375 ) ) ;
#360 = CC_DESIGN_APPROVAL ( #125, ( #247 ) ) ;
#361 = PERSON_AND_ORGANIZATION ( #18446744073709551615, #18446744073709551615 ) ;
#362 = PROPERTY_DEFINITION ('document property','', #374 ) ;
#363 = PROPERTY_DEFINITION_REPRESENTATION ( #362, #95 ) ;
#364 = EXTERNAL_SOURCE (IDENTIFIER('') ) ;
#365 = DATE_AND_TIME ( #259, #14 ) ;
#366 = AXIS2_PLACEMENT_3D ( 'NONE', #201, #264, #138 ) ;
#367 = ORGANIZATION ( 'NAUO-ORG183', 'UNSPECIFIED', 'UNSPECIFIED' ) ;
#368 = PROPERTY_DEFINITION_REPRESENTATION ( #250, #95 ) ;
#369 = SECURITY_CLASSIFICATION_LEVEL ( 'unclassified' ) ;
#370 = COORDINATED_UNIVERSAL_TIME_OFFSET ( 10, 0, .AHEAD. ) ;
#371 = COORDINATED_UNIVERSAL_TIME_OFFSET ( 10, 0, .AHEAD. ) ;
#372 = APPROVAL_ROLE ( '' ) ;
#373 = APPROVAL ( #213, 'Coincident' ) ;
#374 = DOCUMENT_FILE ( '6534431024.step.STEP' , '', '', #183, '' ,$ ) ;
#375 = PRODUCT_DEFINITION_FORMATION_WITH_SPECIFIED_SOURCE ( 'Symmetric', '', #172, .NOT_KNOWN. ) ;
#376 = LOCAL_TIME ( 18, 49, 57.00000000000000000, #268 ) ;
#377 = PRODUCT_DEFINITION_SHAPE ( 'NONE', 'NONE',  #390 ) ;
#378 = PERSON ( 'NAUO-PER185', 'UNSPECIFIED', 'UNSPECIFIED', ('UNSPECIFIED'), ('UNSPECIFIED'), ('UNSPECIFIED') ) ;
#379 = PERSON_AND_ORGANIZATION_ROLE ( 'design_owner' ) ;
#380 = COORDINATED_UNIVERSAL_TIME_OFFSET ( 10, 0, .AHEAD. ) ;
#381 = DATE_AND_TIME ( #354, #159 ) ;
#382 = LOCAL_TIME ( 18, 49, 57.00000000000000000, #178 ) ;
#383 = CC_DESIGN_PERSON_AND_ORGANIZATION_ASSIGNMENT ( #237, #314, ( #247 ) ) ;
#384 = APPROVAL_DATE_TIME ( #52, #125 ) ;
#385 = APPROVAL_DATE_TIME ( #243, #41 ) ;
#386 = DATE_AND_TIME ( #208, #307 ) ;
#387 = SECURITY_CLASSIFICATION ( '', '', #12 ) ;
#388 = NEXT_ASSEMBLY_USAGE_OCCURRENCE ( 'NAUO183', ' ', ' ', #105, #65, $ ) ;
#389 = NEXT_ASSEMBLY_USAGE_OCCURRENCE ( 'NAUO184', ' ', ' ', #105, #111, $ ) ;
#390 = NEXT_ASSEMBLY_USAGE_OCCURRENCE ( 'NAUO185', ' ', ' ', #105, #111, $ ) ;
ENDSEC;
END-ISO-10303-21;
