ISO-10303-21;
HEADER;
FILE_DESCRIPTION (( 'STEP AP203' ),
    '1' );
FILE_NAME ('R4.step.STEP',
    '2026-06-22T08:49:57',
    ( 'localuser' ),
    ( '' ),
    'SwSTEP 2.0',
    'SolidWorks 2025',
    '' );
FILE_SCHEMA (( 'CONFIG_CONTROL_DESIGN' ));
ENDSEC;

DATA;
#1 = DATE_TIME_ROLE ( 'classification_date' ) ;
#2 = CC_DESIGN_PERSON_AND_ORGANIZATION_ASSIGNMENT ( #276, #60, ( #58 ) ) ;
#3 = CARTESIAN_POINT ( 'NONE',  ( 0.000000000000000000, 0.000000000000000000, 0.000000000000000000 ) ) ;
#4 = LOCAL_TIME ( 18, 49, 57.00000000000000000, #23 ) ;
#5 = APPLIED_DOCUMENT_REFERENCE ( #104,'',( #93) ) ;
#6 = APPROVAL ( #199, 'Coincident' ) ;
#7 = PERSON ( 'NAUO-PER176', 'UNSPECIFIED', 'UNSPECIFIED', ('UNSPECIFIED'), ('UNSPECIFIED'), ('UNSPECIFIED') ) ;
#8 = ROLE_ASSOCIATION ( #336, #283 ) ;
#9 = DATE_AND_TIME ( #69, #18 ) ;
#10 = CC_DESIGN_APPROVAL ( #247, ( #29 ) ) ;
#11 = IDENTIFICATION_ROLE ( 'external document id and location', $) ;
#12 = COORDINATED_UNIVERSAL_TIME_OFFSET ( 10, 0, .AHEAD. ) ;
#13 = COORDINATED_UNIVERSAL_TIME_OFFSET ( 10, 0, .AHEAD. ) ;
#14 = APPROVAL ( #56, 'Coincident' ) ;
#15 = DATE_AND_TIME ( #225, #207 ) ;
#16 = MECHANICAL_CONTEXT ( 'NONE', #206, 'mechanical' ) ;
#17 = CALENDAR_DATE ( 2026, 22, 6 ) ;
#18 = LOCAL_TIME ( 18, 49, 57.00000000000000000, #12 ) ;
#19 = OBJECT_ROLE ('mandatory',$ ) ;
#20 = APPROVAL ( #296, 'Coincident' ) ;
#21 = APPROVAL_DATE_TIME ( #316, #247 ) ;
#22 = APPROVAL_STATUS ( 'not_yet_approved' ) ;
#23 = COORDINATED_UNIVERSAL_TIME_OFFSET ( 10, 0, .AHEAD. ) ;
#24 = CALENDAR_DATE ( 2026, 22, 6 ) ;
#25 = ORGANIZATION ( 'NAUO-ORG174', 'UNSPECIFIED', 'UNSPECIFIED' ) ;
#26 = COORDINATED_UNIVERSAL_TIME_OFFSET ( 10, 0, .AHEAD. ) ;
#27 = PERSON_AND_ORGANIZATION ( #18446744073709551615, #18446744073709551615 ) ;
#28 = DATE_AND_TIME ( #24, #232 ) ;
#29 = PRODUCT_DEFINITION_FORMATION_WITH_SPECIFIED_SOURCE ( 'Symmetric', '', #263, .NOT_KNOWN. ) ;
#30 = LOCAL_TIME ( 18, 49, 57.00000000000000000, #352 ) ;
#31 = CC_DESIGN_DATE_AND_TIME_ASSIGNMENT ( #67, #289, ( #161 ) ) ;
#32 = DESIGN_CONTEXT ( 'detailed design', #81, 'design' ) ;
#33 = CC_DESIGN_PERSON_AND_ORGANIZATION_ASSIGNMENT ( #144, #379, ( #29 ) ) ;
#34 = SHAPE_DEFINITION_REPRESENTATION ( #112, #160 ) ;
#35 = CC_DESIGN_APPROVAL ( #14, ( #116 ) ) ;
#36 =( LENGTH_UNIT ( ) NAMED_UNIT ( * ) SI_UNIT ( .MILLI., .METRE. ) );
#37 = CONTEXT_DEPENDENT_SHAPE_REPRESENTATION ( #366, #49 ) ;
#38 = IDENTIFICATION_ROLE ( 'external document id and location', $) ;
#39 = CARTESIAN_POINT ( 'NONE',  ( 0.000000000000000000, 0.000000000000000000, 0.000000000000000000 ) ) ;
#40 = COORDINATED_UNIVERSAL_TIME_OFFSET ( 10, 0, .AHEAD. ) ;
#41 = APPROVAL_DATE_TIME ( #335, #334 ) ;
#42 = AXIS2_PLACEMENT_3D ( 'NONE', #262, #378, #236 ) ;
#43 = APPROVAL_PERSON_ORGANIZATION ( #349, #153, #270 ) ;
#44 = DIRECTION ( 'NONE',  ( 1.000000000000000000, 0.000000000000000000, 0.000000000000000000 ) ) ;
#45 = CC_DESIGN_PERSON_AND_ORGANIZATION_ASSIGNMENT ( #46, #261, ( #161 ) ) ;
#46 = PERSON_AND_ORGANIZATION ( #18446744073709551615, #18446744073709551615 ) ;
#47 = PROPERTY_DEFINITION ('document property','', #201 ) ;
#48 = PRODUCT_RELATED_PRODUCT_CATEGORY ( 'detail', '', ( #346 ) ) ;
#49 = PRODUCT_DEFINITION_SHAPE ( 'NONE', 'NONE',  #388 ) ;
#50 = PERSON_AND_ORGANIZATION ( #18446744073709551615, #18446744073709551615 ) ;
#51 = APPLIED_EXTERNAL_IDENTIFICATION_ASSIGNMENT ( '6461082896.step.STEP' , #38, #246,( #104) ) ;
#52 = DATE_AND_TIME ( #377, #4 ) ;
#53 = DATE_TIME_ROLE ( 'classification_date' ) ;
#54 = PROPERTY_DEFINITION_REPRESENTATION ( #47, #228 ) ;
#55 = PERSON_AND_ORGANIZATION ( #18446744073709551615, #18446744073709551615 ) ;
#56 = APPROVAL_STATUS ( 'not_yet_approved' ) ;
#57 = CC_DESIGN_DATE_AND_TIME_ASSIGNMENT ( #15, #106, ( #324 ) ) ;
#58 = PRODUCT_DEFINITION_FORMATION_WITH_SPECIFIED_SOURCE ( 'Symmetric', '', #346, .NOT_KNOWN. ) ;
#59 = APPROVAL_ROLE ( '' ) ;
#60 = PERSON_AND_ORGANIZATION_ROLE ( 'creator' ) ;
#61 = DOCUMENT_TYPE ( 'geometry' ) ;
#62 = UNCERTAINTY_MEASURE_WITH_UNIT (LENGTH_MEASURE( 1.000000000000000082E-05 ), #83, 'distance_accuracy_value', 'NONE');
#63 = CC_DESIGN_PERSON_AND_ORGANIZATION_ASSIGNMENT ( #27, #242, ( #93 ) ) ;
#64 = CC_DESIGN_SECURITY_CLASSIFICATION ( #272, ( #390 ) ) ;
#65 = DIRECTION ( 'NONE',  ( 4.890937612370273194E-29, -3.155443620884047222E-30, 0.9999999999999997780 ) ) ;
#66 = APPLICATION_PROTOCOL_DEFINITION ( 'international standard', 'config_control_design', 1994, #145 ) ;
#67 = DATE_AND_TIME ( #254, #278 ) ;
#68 = APPROVAL_PERSON_ORGANIZATION ( #365, #334, #138 ) ;
#69 = CALENDAR_DATE ( 2026, 22, 6 ) ;
#70 = CARTESIAN_POINT ( 'NONE',  ( 7.349999481172002191, 4.600002563477003648, -2.058321952820000078 ) ) ;
#71 = APPROVAL_ROLE ( '' ) ;
#72 = CC_DESIGN_PERSON_AND_ORGANIZATION_ASSIGNMENT ( #318, #350, ( #285 ) ) ;
#73 = PERSON_AND_ORGANIZATION ( #18446744073709551615, #18446744073709551615 ) ;
#74 = PERSON_AND_ORGANIZATION_ROLE ( 'classification_officer' ) ;
#75 = LOCAL_TIME ( 18, 49, 57.00000000000000000, #85 ) ;
#76 = ROLE_ASSOCIATION ( #19, #5 ) ;
#77 = DATE_AND_TIME ( #17, #192 ) ;
#78 = CC_DESIGN_PERSON_AND_ORGANIZATION_ASSIGNMENT ( #349, #143, ( #272 ) ) ;
#79 = PROPERTY_DEFINITION ('external definition','', #201 ) ;
#80 = PERSON_AND_ORGANIZATION_ROLE ( 'design_owner' ) ;
#81 = APPLICATION_CONTEXT ( 'configuration controlled 3d designs of mechanical parts and assemblies' ) ;
#82 = APPROVAL_PERSON_ORGANIZATION ( #73, #247, #294 ) ;
#83 =( LENGTH_UNIT ( ) NAMED_UNIT ( * ) SI_UNIT ( .MILLI., .METRE. ) );
#84 = SECURITY_CLASSIFICATION ( '', '', #122 ) ;
#85 = COORDINATED_UNIVERSAL_TIME_OFFSET ( 10, 0, .AHEAD. ) ;
#86 = DATE_TIME_ROLE ( 'classification_date' ) ;
#87 = CC_DESIGN_DATE_AND_TIME_ASSIGNMENT ( #180, #109, ( #133 ) ) ;
#88 = SHAPE_DEFINITION_REPRESENTATION ( #235, #228 ) ;
#89 = PERSON_AND_ORGANIZATION_ROLE ( 'classification_officer' ) ;
#90 = LOCAL_TIME ( 18, 49, 57.00000000000000000, #155 ) ;
#91 = DESIGN_CONTEXT ( 'detailed design', #319, 'design' ) ;
#92 = CALENDAR_DATE ( 2026, 22, 6 ) ;
#93 = PRODUCT_DEFINITION ( 'General', '', #58, #91 ) ;
#94 = CC_DESIGN_APPROVAL ( #6, ( #133 ) ) ;
#95 = LOCAL_TIME ( 18, 49, 57.00000000000000000, #210 ) ;
#96 = DIRECTION ( 'NONE',  ( 1.000000000000000222, -1.092455418989176591E-28, 4.890937612370273194E-29 ) ) ;
#97 = DATE_AND_TIME ( #250, #95 ) ;
#98 = PROPERTY_DEFINITION_REPRESENTATION ( #174, #228 ) ;
#99 = DIRECTION ( 'NONE',  ( 0.000000000000000000, 0.000000000000000000, 1.000000000000000000 ) ) ;
#100 = DOCUMENT_TYPE ( 'geometry' ) ;
#101 = LOCAL_TIME ( 18, 49, 57.00000000000000000, #222 ) ;
#102 = CC_DESIGN_PERSON_AND_ORGANIZATION_ASSIGNMENT ( #55, #299, ( #301 ) ) ;
#103 = APPLICATION_PROTOCOL_DEFINITION ( 'international standard', 'config_control_design', 1994, #206 ) ;
#104 = DOCUMENT_FILE ( '6461082896.step.STEP' , '', '', #61, '' ,$ ) ;
#105 = DATE_AND_TIME ( #139, #169 ) ;
#106 = DATE_TIME_ROLE ( 'classification_date' ) ;
#107 = SECURITY_CLASSIFICATION ( '', '', #259 ) ;
#108 = CC_DESIGN_PERSON_AND_ORGANIZATION_ASSIGNMENT ( #164, #287, ( #116 ) ) ;
#109 = DATE_TIME_ROLE ( 'creation_date' ) ;
#110 = PRODUCT_DEFINITION_SHAPE ( 'NONE', 'NONE',  #390 ) ;
#111 = PERSON_AND_ORGANIZATION ( #18446744073709551615, #18446744073709551615 ) ;
#112 = PRODUCT_DEFINITION_SHAPE ( 'NONE', 'NONE',  #301 ) ;
#113 = COORDINATED_UNIVERSAL_TIME_OFFSET ( 10, 0, .AHEAD. ) ;
#114 = APPROVAL_PERSON_ORGANIZATION ( #306, #123, #185 ) ;
#115 = APPROVAL_DATE_TIME ( #322, #123 ) ;
#116 = PRODUCT_DEFINITION_FORMATION_WITH_SPECIFIED_SOURCE ( 'Symmetric', '', #177, .NOT_KNOWN. ) ;
#117 = CC_DESIGN_DATE_AND_TIME_ASSIGNMENT ( #28, #1, ( #84 ) ) ;
#118 = DATE_AND_TIME ( #150, #298 ) ;
#119 = PROPERTY_DEFINITION_REPRESENTATION ( #79, #228 ) ;
#120 = APPROVAL_ROLE ( '' ) ;
#121 = PERSON ( 'NAUO-PER175', 'UNSPECIFIED', 'UNSPECIFIED', ('UNSPECIFIED'), ('UNSPECIFIED'), ('UNSPECIFIED') ) ;
#122 = SECURITY_CLASSIFICATION_LEVEL ( 'unclassified' ) ;
#123 = APPROVAL ( #269, 'Coincident' ) ;
#124 = CC_DESIGN_APPROVAL ( #279, ( #107 ) ) ;
#125 = EXTERNAL_SOURCE (IDENTIFIER('') ) ;
#126 = PERSON_AND_ORGANIZATION ( #18446744073709551615, #18446744073709551615 ) ;
#127 = DIRECTION ( 'NONE',  ( 1.000000000000000000, 0.000000000000000000, 0.000000000000000000 ) ) ;
#128 = AXIS2_PLACEMENT_3D ( 'NONE', #3, #99, #127 ) ;
#129 = CC_DESIGN_APPROVAL ( #205, ( #324 ) ) ;
#130 = PRODUCT_RELATED_PRODUCT_CATEGORY ( 'detail', '', ( #177 ) ) ;
#131 =( LENGTH_UNIT ( ) NAMED_UNIT ( * ) SI_UNIT ( .MILLI., .METRE. ) );
#132 = ITEM_DEFINED_TRANSFORMATION ( 'NONE', 'NONE', #178,  #212 ) ;
#133 = PRODUCT_DEFINITION ( 'General', '', #29, #382 ) ;
#134 = LOCAL_TIME ( 18, 49, 57.00000000000000000, #113 ) ;
#135 = DATE_AND_TIME ( #168, #314 ) ;
#136 = APPROVAL_PERSON_ORGANIZATION ( #332, #279, #71 ) ;
#137 = CARTESIAN_POINT ( 'NONE',  ( 0.000000000000000000, 0.000000000000000000, 0.000000000000000000 ) ) ;
#138 = APPROVAL_ROLE ( '' ) ;
#139 = CALENDAR_DATE ( 2026, 22, 6 ) ;
#140 = APPROVAL_ROLE ( '' ) ;
#141 = CC_DESIGN_APPROVAL ( #334, ( #161 ) ) ;
#142 = COORDINATED_UNIVERSAL_TIME_OFFSET ( 10, 0, .AHEAD. ) ;
#143 = PERSON_AND_ORGANIZATION_ROLE ( 'classification_officer' ) ;
#144 = PERSON_AND_ORGANIZATION ( #18446744073709551615, #18446744073709551615 ) ;
#145 = APPLICATION_CONTEXT ( 'configuration controlled 3d designs of mechanical parts and assemblies' ) ;
#146 = PERSON_AND_ORGANIZATION_ROLE ( 'design_owner' ) ;
#147 = CC_DESIGN_PERSON_AND_ORGANIZATION_ASSIGNMENT ( #361, #80, ( #263 ) ) ;
#148 = UNCERTAINTY_MEASURE_WITH_UNIT (LENGTH_MEASURE( 1.000000000000000082E-05 ), #131, 'distance_accuracy_value', 'NONE');
#149 = SECURITY_CLASSIFICATION_LEVEL ( 'unclassified' ) ;
#150 = CALENDAR_DATE ( 2026, 22, 6 ) ;
#151 = CC_DESIGN_APPROVAL ( #258, ( #285 ) ) ;
#152 = DATE_AND_TIME ( #213, #244 ) ;
#153 = APPROVAL ( #320, 'UNKNOWN' ) ;
#154 = DATE_AND_TIME ( #92, #75 ) ;
#155 = COORDINATED_UNIVERSAL_TIME_OFFSET ( 10, 0, .AHEAD. ) ;
#156 = DATE_AND_TIME ( #330, #90 ) ;
#157 = CC_DESIGN_PERSON_AND_ORGANIZATION_ASSIGNMENT ( #238, #372, ( #29 ) ) ;
#158 = DIRECTION ( 'NONE',  ( 1.000000000000000000, 0.000000000000000000, 0.000000000000000000 ) ) ;
#159 =( GEOMETRIC_REPRESENTATION_CONTEXT ( 3 ) GLOBAL_UNCERTAINTY_ASSIGNED_CONTEXT ( ( #148 ) ) GLOBAL_UNIT_ASSIGNED_CONTEXT ( ( #131, #309, #255 ) ) REPRESENTATION_CONTEXT ( 'NONE', 'WORKASPACE' ) );
#160 = SHAPE_REPRESENTATION ( '6461083056.step', ( #128 ), #184 ) ;
#161 = SECURITY_CLASSIFICATION ( '', '', #308 ) ;
#162 = SECURITY_CLASSIFICATION_LEVEL ( 'unclassified' ) ;
#163 = MECHANICAL_CONTEXT ( 'NONE', #348, 'mechanical' ) ;
#164 = PERSON_AND_ORGANIZATION ( #18446744073709551615, #18446744073709551615 ) ;
#165 = PRODUCT_RELATED_PRODUCT_CATEGORY ( 'detail', '', ( #263 ) ) ;
#166 = DOCUMENT_TYPE ( 'geometry' ) ;
#167 = ITEM_DEFINED_TRANSFORMATION ( 'NONE', 'NONE', #341,  #128 ) ;
#168 = CALENDAR_DATE ( 2026, 22, 6 ) ;
#169 = LOCAL_TIME ( 18, 49, 57.00000000000000000, #13 ) ;
#170 = APPROVAL_DATE_TIME ( #208, #6 ) ;
#171 = APPROVAL_DATE_TIME ( #339, #205 ) ;
#172 = CALENDAR_DATE ( 2026, 22, 6 ) ;
#173 = CC_DESIGN_DATE_AND_TIME_ASSIGNMENT ( #9, #256, ( #107 ) ) ;
#174 = PROPERTY_DEFINITION ('document property','', #104 ) ;
#175 = APPLIED_DOCUMENT_REFERENCE ( #201,'',( #93) ) ;
#176 = COORDINATED_UNIVERSAL_TIME_OFFSET ( 10, 0, .AHEAD. ) ;
#177 = PRODUCT ( '6461083056.step', '6461083056.step', '', ( #362 ) ) ;
#178 = AXIS2_PLACEMENT_3D ( 'NONE', #217, #65, #364 ) ;
#179 = LOCAL_TIME ( 18, 49, 57.00000000000000000, #337 ) ;
#180 = DATE_AND_TIME ( #172, #204 ) ;
#181 = CC_DESIGN_DATE_AND_TIME_ASSIGNMENT ( #154, #187, ( #93 ) ) ;
#182 = APPROVAL_ROLE ( '' ) ;
#183 = APPROVAL_STATUS ( 'not_yet_approved' ) ;
#184 =( GEOMETRIC_REPRESENTATION_CONTEXT ( 3 ) GLOBAL_UNCERTAINTY_ASSIGNED_CONTEXT ( ( #249 ) ) GLOBAL_UNIT_ASSIGNED_CONTEXT ( ( #36, #331, #253 ) ) REPRESENTATION_CONTEXT ( 'NONE', 'WORKASPACE' ) );
#185 = APPROVAL_ROLE ( '' ) ;
#186 = LOCAL_TIME ( 18, 49, 57.00000000000000000, #274 ) ;
#187 = DATE_TIME_ROLE ( 'creation_date' ) ;
#188 = PERSON_AND_ORGANIZATION ( #18446744073709551615, #18446744073709551615 ) ;
#189 = CALENDAR_DATE ( 2026, 22, 6 ) ;
#190 = PERSON_AND_ORGANIZATION ( #18446744073709551615, #18446744073709551615 ) ;
#191 = DIRECTION ( 'NONE',  ( 0.000000000000000000, 0.000000000000000000, 1.000000000000000000 ) ) ;
#192 = LOCAL_TIME ( 18, 49, 57.00000000000000000, #176 ) ;
#193 = CC_DESIGN_PERSON_AND_ORGANIZATION_ASSIGNMENT ( #50, #265, ( #133 ) ) ;
#194 = PROPERTY_DEFINITION_REPRESENTATION ( #252, #160 ) ;
#195 = PERSON_AND_ORGANIZATION ( #18446744073709551615, #18446744073709551615 ) ;
#196 = APPROVAL_STATUS ( 'not_yet_approved' ) ;
#197 = APPROVAL_STATUS ( 'not_yet_approved' ) ;
#198 = CC_DESIGN_APPROVAL ( #20, ( #93 ) ) ;
#199 = APPROVAL_STATUS ( 'not_yet_approved' ) ;
#200 = CC_DESIGN_PERSON_AND_ORGANIZATION_ASSIGNMENT ( #195, #312, ( #116 ) ) ;
#201 = DOCUMENT_FILE ( '6461082896.step.STEP' , '', '', #166, '' ,$ ) ;
#202 = PRODUCT_DEFINITION_SHAPE ( 'NONE', 'NONE',  #133 ) ;
#203 =( NAMED_UNIT ( * ) PLANE_ANGLE_UNIT ( ) SI_UNIT ( $, .RADIAN. ) );
#204 = LOCAL_TIME ( 18, 49, 57.00000000000000000, #292 ) ;
#205 = APPROVAL ( #196, 'UNKNOWN' ) ;
#206 = APPLICATION_CONTEXT ( 'configuration controlled 3d designs of mechanical parts and assemblies' ) ;
#207 = LOCAL_TIME ( 18, 49, 57.00000000000000000, #369 ) ;
#208 = DATE_AND_TIME ( #229, #368 ) ;
#209 = DATE_AND_TIME ( #237, #186 ) ;
#210 = COORDINATED_UNIVERSAL_TIME_OFFSET ( 10, 0, .AHEAD. ) ;
#211 = CALENDAR_DATE ( 2026, 22, 6 ) ;
#212 = AXIS2_PLACEMENT_3D ( 'NONE', #39, #191, #158 ) ;
#213 = CALENDAR_DATE ( 2026, 22, 6 ) ;
#214 = APPROVAL_DATE_TIME ( #156, #20 ) ;
#215 = APPLIED_EXTERNAL_IDENTIFICATION_ASSIGNMENT ( '6461083056.step.STEP' , #11, #223,( #266) ) ;
#216 = DIRECTION ( 'NONE',  ( 4.890937612370273194E-29, -3.155443620884047222E-30, 0.9999999999999997780 ) ) ;
#217 = CARTESIAN_POINT ( 'NONE',  ( 7.849999481172001303, 4.600002563477000095, -2.058321952820000078 ) ) ;
#218 = PERSON_AND_ORGANIZATION ( #18446744073709551615, #18446744073709551615 ) ;
#219 = CC_DESIGN_DATE_AND_TIME_ASSIGNMENT ( #118, #241, ( #301 ) ) ;
#220 = ITEM_DEFINED_TRANSFORMATION ( 'NONE', 'NONE', #42,  #212 ) ;
#221 = APPROVAL_PERSON_ORGANIZATION ( #373, #205, #140 ) ;
#222 = COORDINATED_UNIVERSAL_TIME_OFFSET ( 10, 0, .AHEAD. ) ;
#223 = EXTERNAL_SOURCE (IDENTIFIER('') ) ;
#224 = APPLICATION_PROTOCOL_DEFINITION ( 'international standard', 'config_control_design', 1994, #348 ) ;
#225 = CALENDAR_DATE ( 2026, 22, 6 ) ;
#226 = PERSON_AND_ORGANIZATION ( #18446744073709551615, #18446744073709551615 ) ;
#227 = CALENDAR_DATE ( 2026, 22, 6 ) ;
#228 = SHAPE_REPRESENTATION ( '6461082896.step', ( #212 ), #159 ) ;
#229 = CALENDAR_DATE ( 2026, 22, 6 ) ;
#230 = APPROVAL_PERSON_ORGANIZATION ( #111, #6, #338 ) ;
#231 = PERSON_AND_ORGANIZATION_ROLE ( 'classification_officer' ) ;
#232 = LOCAL_TIME ( 18, 49, 57.00000000000000000, #277 ) ;
#233 = PROPERTY_DEFINITION ('external definition','', #104 ) ;
#234 = SECURITY_CLASSIFICATION_LEVEL ( 'unclassified' ) ;
#235 = PRODUCT_DEFINITION_SHAPE ( 'NONE', 'NONE',  #93 ) ;
#236 = DIRECTION ( 'NONE',  ( 1.000000000000000222, -1.092455418989176591E-28, 4.890937612370273194E-29 ) ) ;
#237 = CALENDAR_DATE ( 2026, 22, 6 ) ;
#238 = PERSON_AND_ORGANIZATION ( #18446744073709551615, #18446744073709551615 ) ;
#239 = APPLIED_EXTERNAL_IDENTIFICATION_ASSIGNMENT ( '6461082896.step.STEP' , #284, #125,( #201) ) ;
#240 = APPROVAL_ROLE ( '' ) ;
#241 = DATE_TIME_ROLE ( 'creation_date' ) ;
#242 = PERSON_AND_ORGANIZATION_ROLE ( 'creator' ) ;
#243 = DATE_AND_TIME ( #189, #30 ) ;
#244 = LOCAL_TIME ( 18, 49, 57.00000000000000000, #26 ) ;
#245 = SHAPE_REPRESENTATION ( 'R4.step', ( #271, #341, #178, #42 ), #375 ) ;
#246 = EXTERNAL_SOURCE (IDENTIFIER('') ) ;
#247 = APPROVAL ( #22, 'Coincident' ) ;
#248 = CC_DESIGN_SECURITY_CLASSIFICATION ( #84, ( #58 ) ) ;
#249 = UNCERTAINTY_MEASURE_WITH_UNIT (LENGTH_MEASURE( 1.000000000000000082E-05 ), #36, 'distance_accuracy_value', 'NONE');
#250 = CALENDAR_DATE ( 2026, 22, 6 ) ;
#251 = PROPERTY_DEFINITION_REPRESENTATION ( #233, #228 ) ;
#252 = PROPERTY_DEFINITION ('external definition','', #266 ) ;
#253 =( NAMED_UNIT ( * ) SI_UNIT ( $, .STERADIAN. ) SOLID_ANGLE_UNIT ( ) );
#254 = CALENDAR_DATE ( 2026, 22, 6 ) ;
#255 =( NAMED_UNIT ( * ) SI_UNIT ( $, .STERADIAN. ) SOLID_ANGLE_UNIT ( ) );
#256 = DATE_TIME_ROLE ( 'classification_date' ) ;
#257 = CALENDAR_DATE ( 2026, 22, 6 ) ;
#258 = APPROVAL ( #290, 'Coincident' ) ;
#259 = SECURITY_CLASSIFICATION_LEVEL ( 'unclassified' ) ;
#260 = PERSON_AND_ORGANIZATION_ROLE ( 'design_owner' ) ;
#261 = PERSON_AND_ORGANIZATION_ROLE ( 'classification_officer' ) ;
#262 = CARTESIAN_POINT ( 'NONE',  ( 6.850003295869001363, 4.600002563477003648, -2.058321952820000078 ) ) ;
#263 = PRODUCT ( 'R4.step', 'R4.step', '', ( #163 ) ) ;
#264 = CC_DESIGN_PERSON_AND_ORGANIZATION_ASSIGNMENT ( #226, #260, ( #346 ) ) ;
#265 = PERSON_AND_ORGANIZATION_ROLE ( 'creator' ) ;
#266 = DOCUMENT_FILE ( '6461083056.step.STEP' , '', '', #100, '' ,$ ) ;
#267 =( REPRESENTATION_RELATIONSHIP ('NONE','NONE', #245, #228 ) REPRESENTATION_RELATIONSHIP_WITH_TRANSFORMATION ( #220 )SHAPE_REPRESENTATION_RELATIONSHIP( ) );
#268 = CONTEXT_DEPENDENT_SHAPE_REPRESENTATION ( #267, #110 ) ;
#269 = APPROVAL_STATUS ( 'not_yet_approved' ) ;
#270 = APPROVAL_ROLE ( '' ) ;
#271 = AXIS2_PLACEMENT_3D ( 'NONE', #137, #347, #44 ) ;
#272 = SECURITY_CLASSIFICATION ( '', '', #149 ) ;
#273 = PERSON_AND_ORGANIZATION ( #18446744073709551615, #18446744073709551615 ) ;
#274 = COORDINATED_UNIVERSAL_TIME_OFFSET ( 10, 0, .AHEAD. ) ;
#275 = APPROVAL_DATE_TIME ( #152, #14 ) ;
#276 = PERSON_AND_ORGANIZATION ( #18446744073709551615, #18446744073709551615 ) ;
#277 = COORDINATED_UNIVERSAL_TIME_OFFSET ( 10, 0, .AHEAD. ) ;
#278 = LOCAL_TIME ( 18, 49, 57.00000000000000000, #40 ) ;
#279 = APPROVAL ( #197, 'UNKNOWN' ) ;
#280 = APPROVAL_PERSON_ORGANIZATION ( #288, #258, #182 ) ;
#281 = APPROVAL_STATUS ( 'not_yet_approved' ) ;
#282 = APPROVAL ( #325, 'Coincident' ) ;
#283 = APPLIED_DOCUMENT_REFERENCE ( #266,'',( #301) ) ;
#284 = IDENTIFICATION_ROLE ( 'external document id and location', $) ;
#285 = SECURITY_CLASSIFICATION ( '', '', #234 ) ;
#286 = LOCAL_TIME ( 18, 49, 57.00000000000000000, #380 ) ;
#287 = PERSON_AND_ORGANIZATION_ROLE ( 'design_supplier' ) ;
#288 = PERSON_AND_ORGANIZATION ( #18446744073709551615, #18446744073709551615 ) ;
#289 = DATE_TIME_ROLE ( 'classification_date' ) ;
#290 = APPROVAL_STATUS ( 'not_yet_approved' ) ;
#291 = CC_DESIGN_PERSON_AND_ORGANIZATION_ASSIGNMENT ( #332, #74, ( #107 ) ) ;
#292 = COORDINATED_UNIVERSAL_TIME_OFFSET ( 10, 0, .AHEAD. ) ;
#293 = CC_DESIGN_SECURITY_CLASSIFICATION ( #107, ( #388 ) ) ;
#294 = APPROVAL_ROLE ( '' ) ;
#295 = APPROVAL_DATE_TIME ( #105, #258 ) ;
#296 = APPROVAL_STATUS ( 'not_yet_approved' ) ;
#297 = OBJECT_ROLE ('mandatory',$ ) ;
#298 = LOCAL_TIME ( 18, 49, 57.00000000000000000, #354 ) ;
#299 = PERSON_AND_ORGANIZATION_ROLE ( 'creator' ) ;
#300 = APPROVAL_DATE_TIME ( #97, #355 ) ;
#301 = PRODUCT_DEFINITION ( 'General', '', #116, #32 ) ;
#302 = PERSON_AND_ORGANIZATION ( #18446744073709551615, #18446744073709551615 ) ;
#303 = APPLICATION_CONTEXT ( 'configuration controlled 3d designs of mechanical parts and assemblies' ) ;
#304 = CC_DESIGN_APPROVAL ( #355, ( #84 ) ) ;
#305 = CC_DESIGN_DATE_AND_TIME_ASSIGNMENT ( #209, #86, ( #272 ) ) ;
#306 = PERSON_AND_ORGANIZATION ( #18446744073709551615, #18446744073709551615 ) ;
#307 = APPROVAL_PERSON_ORGANIZATION ( #218, #282, #59 ) ;
#308 = SECURITY_CLASSIFICATION_LEVEL ( 'unclassified' ) ;
#309 =( NAMED_UNIT ( * ) PLANE_ANGLE_UNIT ( ) SI_UNIT ( $, .RADIAN. ) );
#310 = APPROVAL_DATE_TIME ( #135, #279 ) ;
#311 = CC_DESIGN_PERSON_AND_ORGANIZATION_ASSIGNMENT ( #190, #146, ( #177 ) ) ;
#312 = PERSON_AND_ORGANIZATION_ROLE ( 'creator' ) ;
#313 =( NAMED_UNIT ( * ) SI_UNIT ( $, .STERADIAN. ) SOLID_ANGLE_UNIT ( ) );
#314 = LOCAL_TIME ( 18, 49, 57.00000000000000000, #371 ) ;
#315 = PROPERTY_DEFINITION_REPRESENTATION ( #363, #160 ) ;
#316 = DATE_AND_TIME ( #257, #134 ) ;
#317 = CC_DESIGN_SECURITY_CLASSIFICATION ( #161, ( #116 ) ) ;
#318 = PERSON_AND_ORGANIZATION ( #18446744073709551615, #18446744073709551615 ) ;
#319 = APPLICATION_CONTEXT ( 'configuration controlled 3d designs of mechanical parts and assemblies' ) ;
#320 = APPROVAL_STATUS ( 'not_yet_approved' ) ;
#321 = CC_DESIGN_PERSON_AND_ORGANIZATION_ASSIGNMENT ( #273, #327, ( #58 ) ) ;
#322 = DATE_AND_TIME ( #211, #286 ) ;
#323 = PERSON_AND_ORGANIZATION ( #18446744073709551615, #18446744073709551615 ) ;
#324 = SECURITY_CLASSIFICATION ( '', '', #162 ) ;
#325 = APPROVAL_STATUS ( 'not_yet_approved' ) ;
#326 = CC_DESIGN_DATE_AND_TIME_ASSIGNMENT ( #77, #53, ( #285 ) ) ;
#327 = PERSON_AND_ORGANIZATION_ROLE ( 'design_supplier' ) ;
#328 = CC_DESIGN_APPROVAL ( #153, ( #272 ) ) ;
#329 = CC_DESIGN_PERSON_AND_ORGANIZATION_ASSIGNMENT ( #188, #89, ( #84 ) ) ;
#330 = CALENDAR_DATE ( 2026, 22, 6 ) ;
#331 =( NAMED_UNIT ( * ) PLANE_ANGLE_UNIT ( ) SI_UNIT ( $, .RADIAN. ) );
#332 = PERSON_AND_ORGANIZATION ( #385, #25 ) ;
#333 = CC_DESIGN_APPROVAL ( #123, ( #301 ) ) ;
#334 = APPROVAL ( #281, 'Coincident' ) ;
#335 = DATE_AND_TIME ( #367, #101 ) ;
#336 = OBJECT_ROLE ('mandatory',$ ) ;
#337 = COORDINATED_UNIVERSAL_TIME_OFFSET ( 10, 0, .AHEAD. ) ;
#338 = APPROVAL_ROLE ( '' ) ;
#339 = DATE_AND_TIME ( #227, #179 ) ;
#340 = APPLICATION_PROTOCOL_DEFINITION ( 'international standard', 'config_control_design', 1994, #319 ) ;
#341 = AXIS2_PLACEMENT_3D ( 'NONE', #70, #216, #96 ) ;
#342 = ORGANIZATION ( 'NAUO-ORG175', 'UNSPECIFIED', 'UNSPECIFIED' ) ;
#343 = PRODUCT_DEFINITION_SHAPE ( 'NONE', 'NONE',  #389 ) ;
#344 = CONTEXT_DEPENDENT_SHAPE_REPRESENTATION ( #358, #343 ) ;
#345 = APPLICATION_PROTOCOL_DEFINITION ( 'international standard', 'config_control_design', 1994, #303 ) ;
#346 = PRODUCT ( '6461082896.step', '6461082896.step', '', ( #16 ) ) ;
#347 = DIRECTION ( 'NONE',  ( 0.000000000000000000, 0.000000000000000000, 1.000000000000000000 ) ) ;
#348 = APPLICATION_CONTEXT ( 'configuration controlled 3d designs of mechanical parts and assemblies' ) ;
#349 = PERSON_AND_ORGANIZATION ( #7, #376 ) ;
#350 = PERSON_AND_ORGANIZATION_ROLE ( 'classification_officer' ) ;
#351 = APPROVAL_PERSON_ORGANIZATION ( #126, #355, #353 ) ;
#352 = COORDINATED_UNIVERSAL_TIME_OFFSET ( 10, 0, .AHEAD. ) ;
#353 = APPROVAL_ROLE ( '' ) ;
#354 = COORDINATED_UNIVERSAL_TIME_OFFSET ( 10, 0, .AHEAD. ) ;
#355 = APPROVAL ( #183, 'Coincident' ) ;
#356 = APPROVAL_PERSON_ORGANIZATION ( #323, #14, #120 ) ;
#357 = APPROVAL_DATE_TIME ( #243, #282 ) ;
#358 =( REPRESENTATION_RELATIONSHIP ('NONE','NONE', #245, #228 ) REPRESENTATION_RELATIONSHIP_WITH_TRANSFORMATION ( #132 )SHAPE_REPRESENTATION_RELATIONSHIP( ) );
#359 = APPROVAL_PERSON_ORGANIZATION ( #302, #20, #240 ) ;
#360 = CC_DESIGN_SECURITY_CLASSIFICATION ( #324, ( #389 ) ) ;
#361 = PERSON_AND_ORGANIZATION ( #18446744073709551615, #18446744073709551615 ) ;
#362 = MECHANICAL_CONTEXT ( 'NONE', #145, 'mechanical' ) ;
#363 = PROPERTY_DEFINITION ('document property','', #266 ) ;
#364 = DIRECTION ( 'NONE',  ( 1.000000000000000222, -1.092455418989176591E-28, 4.890937612370273194E-29 ) ) ;
#365 = PERSON_AND_ORGANIZATION ( #18446744073709551615, #18446744073709551615 ) ;
#366 =( REPRESENTATION_RELATIONSHIP ('NONE','NONE', #245, #160 ) REPRESENTATION_RELATIONSHIP_WITH_TRANSFORMATION ( #167 )SHAPE_REPRESENTATION_RELATIONSHIP( ) );
#367 = CALENDAR_DATE ( 2026, 22, 6 ) ;
#368 = LOCAL_TIME ( 18, 49, 57.00000000000000000, #142 ) ;
#369 = COORDINATED_UNIVERSAL_TIME_OFFSET ( 10, 0, .AHEAD. ) ;
#370 = SHAPE_DEFINITION_REPRESENTATION ( #202, #245 ) ;
#371 = COORDINATED_UNIVERSAL_TIME_OFFSET ( 10, 0, .AHEAD. ) ;
#372 = PERSON_AND_ORGANIZATION_ROLE ( 'creator' ) ;
#373 = PERSON_AND_ORGANIZATION ( #121, #342 ) ;
#374 = CC_DESIGN_PERSON_AND_ORGANIZATION_ASSIGNMENT ( #373, #231, ( #324 ) ) ;
#375 =( GEOMETRIC_REPRESENTATION_CONTEXT ( 3 ) GLOBAL_UNCERTAINTY_ASSIGNED_CONTEXT ( ( #62 ) ) GLOBAL_UNIT_ASSIGNED_CONTEXT ( ( #83, #203, #313 ) ) REPRESENTATION_CONTEXT ( 'NONE', 'WORKASPACE' ) );
#376 = ORGANIZATION ( 'NAUO-ORG176', 'UNSPECIFIED', 'UNSPECIFIED' ) ;
#377 = CALENDAR_DATE ( 2026, 22, 6 ) ;
#378 = DIRECTION ( 'NONE',  ( 4.890937612370273194E-29, -3.155443620884047222E-30, 0.9999999999999997780 ) ) ;
#379 = PERSON_AND_ORGANIZATION_ROLE ( 'design_supplier' ) ;
#380 = COORDINATED_UNIVERSAL_TIME_OFFSET ( 10, 0, .AHEAD. ) ;
#381 = CC_DESIGN_SECURITY_CLASSIFICATION ( #285, ( #29 ) ) ;
#382 = DESIGN_CONTEXT ( 'detailed design', #303, 'design' ) ;
#383 = ROLE_ASSOCIATION ( #297, #175 ) ;
#384 = APPLICATION_PROTOCOL_DEFINITION ( 'international standard', 'config_control_design', 1994, #81 ) ;
#385 = PERSON ( 'NAUO-PER174', 'UNSPECIFIED', 'UNSPECIFIED', ('UNSPECIFIED'), ('UNSPECIFIED'), ('UNSPECIFIED') ) ;
#386 = APPROVAL_DATE_TIME ( #52, #153 ) ;
#387 = CC_DESIGN_APPROVAL ( #282, ( #58 ) ) ;
#388 = NEXT_ASSEMBLY_USAGE_OCCURRENCE ( 'NAUO174', ' ', ' ', #133, #301, $ ) ;
#389 = NEXT_ASSEMBLY_USAGE_OCCURRENCE ( 'NAUO175', ' ', ' ', #133, #93, $ ) ;
#390 = NEXT_ASSEMBLY_USAGE_OCCURRENCE ( 'NAUO176', ' ', ' ', #133, #93, $ ) ;
ENDSEC;
END-ISO-10303-21;
