ISO-10303-21;
HEADER;
FILE_DESCRIPTION (( 'STEP AP203' ),
    '1' );
FILE_NAME ('R6.step.STEP',
    '2026-06-22T08:49:57',
    ( 'localuser' ),
    ( '' ),
    'SwSTEP 2.0',
    'SolidWorks 2025',
    '' );
FILE_SCHEMA (( 'CONFIG_CONTROL_DESIGN' ));
ENDSEC;

DATA;
#1 = APPROVAL_STATUS ( 'not_yet_approved' ) ;
#2 =( LENGTH_UNIT ( ) NAMED_UNIT ( * ) SI_UNIT ( .MILLI., .METRE. ) );
#3 = CARTESIAN_POINT ( 'NONE',  ( 0.000000000000000000, 0.000000000000000000, 0.000000000000000000 ) ) ;
#4 = APPROVAL ( #381, 'Coincident' ) ;
#5 = PERSON_AND_ORGANIZATION ( #18446744073709551615, #18446744073709551615 ) ;
#6 = APPROVAL_PERSON_ORGANIZATION ( #297, #264, #139 ) ;
#7 = COORDINATED_UNIVERSAL_TIME_OFFSET ( 10, 0, .AHEAD. ) ;
#8 = APPROVAL ( #214, 'UNKNOWN' ) ;
#9 = SECURITY_CLASSIFICATION ( '', '', #140 ) ;
#10 = COORDINATED_UNIVERSAL_TIME_OFFSET ( 10, 0, .AHEAD. ) ;
#11 = PERSON_AND_ORGANIZATION_ROLE ( 'classification_officer' ) ;
#12 = APPROVAL_ROLE ( '' ) ;
#13 = DATE_AND_TIME ( #19, #71 ) ;
#14 = APPROVAL_DATE_TIME ( #284, #382 ) ;
#15 = LOCAL_TIME ( 18, 49, 57.00000000000000000, #375 ) ;
#16 = PROPERTY_DEFINITION ('document property','', #324 ) ;
#17 = APPLICATION_CONTEXT ( 'configuration controlled 3d designs of mechanical parts and assemblies' ) ;
#18 = CC_DESIGN_PERSON_AND_ORGANIZATION_ASSIGNMENT ( #253, #312, ( #190 ) ) ;
#19 = CALENDAR_DATE ( 2026, 22, 6 ) ;
#20 = CALENDAR_DATE ( 2026, 22, 6 ) ;
#21 = PERSON ( 'NAUO-PER167', 'UNSPECIFIED', 'UNSPECIFIED', ('UNSPECIFIED'), ('UNSPECIFIED'), ('UNSPECIFIED') ) ;
#22 = DATE_AND_TIME ( #383, #175 ) ;
#23 = AXIS2_PLACEMENT_3D ( 'NONE', #246, #367, #183 ) ;
#24 = PERSON_AND_ORGANIZATION ( #18446744073709551615, #18446744073709551615 ) ;
#25 = CALENDAR_DATE ( 2026, 22, 6 ) ;
#26 = DATE_AND_TIME ( #48, #229 ) ;
#27 = APPROVAL_PERSON_ORGANIZATION ( #97, #40, #251 ) ;
#28 = UNCERTAINTY_MEASURE_WITH_UNIT (LENGTH_MEASURE( 1.000000000000000082E-05 ), #2, 'distance_accuracy_value', 'NONE');
#29 = DATE_TIME_ROLE ( 'creation_date' ) ;
#30 = PERSON_AND_ORGANIZATION ( #21, #100 ) ;
#31 = APPROVAL_PERSON_ORGANIZATION ( #168, #305, #200 ) ;
#32 = DIRECTION ( 'NONE',  ( 1.000000000000000222, -1.092455418989176591E-28, 4.890937612370273194E-29 ) ) ;
#33 = EXTERNAL_SOURCE (IDENTIFIER('') ) ;
#34 = APPROVAL_ROLE ( '' ) ;
#35 = PERSON_AND_ORGANIZATION ( #197, #303 ) ;
#36 = DATE_AND_TIME ( #212, #202 ) ;
#37 = CALENDAR_DATE ( 2026, 22, 6 ) ;
#38 = CC_DESIGN_APPROVAL ( #376, ( #155 ) ) ;
#39 = DATE_TIME_ROLE ( 'creation_date' ) ;
#40 = APPROVAL ( #126, 'Coincident' ) ;
#41 = CALENDAR_DATE ( 2026, 22, 6 ) ;
#42 = DATE_AND_TIME ( #41, #15 ) ;
#43 = CC_DESIGN_DATE_AND_TIME_ASSIGNMENT ( #79, #39, ( #221 ) ) ;
#44 = PRODUCT ( '6461083056.step', '6461083056.step', '', ( #281 ) ) ;
#45 = CALENDAR_DATE ( 2026, 22, 6 ) ;
#46 = CC_DESIGN_APPROVAL ( #8, ( #292 ) ) ;
#47 = PERSON_AND_ORGANIZATION ( #18446744073709551615, #18446744073709551615 ) ;
#48 = CALENDAR_DATE ( 2026, 22, 6 ) ;
#49 = PERSON_AND_ORGANIZATION ( #18446744073709551615, #18446744073709551615 ) ;
#50 = DIRECTION ( 'NONE',  ( 0.000000000000000000, 0.000000000000000000, 1.000000000000000000 ) ) ;
#51 = CC_DESIGN_DATE_AND_TIME_ASSIGNMENT ( #177, #365, ( #105 ) ) ;
#52 = LOCAL_TIME ( 18, 49, 57.00000000000000000, #167 ) ;
#53 = PERSON_AND_ORGANIZATION ( #18446744073709551615, #18446744073709551615 ) ;
#54 = CALENDAR_DATE ( 2026, 22, 6 ) ;
#55 = APPLICATION_CONTEXT ( 'configuration controlled 3d designs of mechanical parts and assemblies' ) ;
#56 =( LENGTH_UNIT ( ) NAMED_UNIT ( * ) SI_UNIT ( .MILLI., .METRE. ) );
#57 = DESIGN_CONTEXT ( 'detailed design', #133, 'design' ) ;
#58 = CC_DESIGN_SECURITY_CLASSIFICATION ( #9, ( #388 ) ) ;
#59 = APPLICATION_PROTOCOL_DEFINITION ( 'international standard', 'config_control_design', 1994, #151 ) ;
#60 = CARTESIAN_POINT ( 'NONE',  ( 17.74999719235400164, 0.7500040893549976273, -2.058321952820000078 ) ) ;
#61 = PROPERTY_DEFINITION_REPRESENTATION ( #364, #73 ) ;
#62 = PERSON_AND_ORGANIZATION ( #18446744073709551615, #18446744073709551615 ) ;
#63 = CALENDAR_DATE ( 2026, 22, 6 ) ;
#64 = CC_DESIGN_APPROVAL ( #305, ( #362 ) ) ;
#65 = CARTESIAN_POINT ( 'NONE',  ( 18.24999719235400519, 0.7500040893550010690, -2.058321952820000078 ) ) ;
#66 = CONTEXT_DEPENDENT_SHAPE_REPRESENTATION ( #93, #286 ) ;
#67 = CALENDAR_DATE ( 2026, 22, 6 ) ;
#68 = DATE_AND_TIME ( #37, #272 ) ;
#69 = APPROVAL ( #198, 'Coincident' ) ;
#70 = PERSON_AND_ORGANIZATION_ROLE ( 'creator' ) ;
#71 = LOCAL_TIME ( 18, 49, 57.00000000000000000, #287 ) ;
#72 = APPLICATION_PROTOCOL_DEFINITION ( 'international standard', 'config_control_design', 1994, #17 ) ;
#73 = SHAPE_REPRESENTATION ( '6461083056.step', ( #146 ), #111 ) ;
#74 = PERSON_AND_ORGANIZATION_ROLE ( 'classification_officer' ) ;
#75 = PERSON_AND_ORGANIZATION_ROLE ( 'design_owner' ) ;
#76 = CC_DESIGN_DATE_AND_TIME_ASSIGNMENT ( #26, #318, ( #362 ) ) ;
#77 = APPROVAL_ROLE ( '' ) ;
#78 = APPLICATION_CONTEXT ( 'configuration controlled 3d designs of mechanical parts and assemblies' ) ;
#79 = DATE_AND_TIME ( #222, #163 ) ;
#80 = PERSON_AND_ORGANIZATION_ROLE ( 'design_supplier' ) ;
#81 = APPROVAL ( #106, 'UNKNOWN' ) ;
#82 = COORDINATED_UNIVERSAL_TIME_OFFSET ( 10, 0, .AHEAD. ) ;
#83 = APPROVAL_ROLE ( '' ) ;
#84 = APPROVAL_PERSON_ORGANIZATION ( #30, #8, #274 ) ;
#85 = APPROVAL_DATE_TIME ( #22, #305 ) ;
#86 = CC_DESIGN_PERSON_AND_ORGANIZATION_ASSIGNMENT ( #346, #314, ( #221 ) ) ;
#87 = AXIS2_PLACEMENT_3D ( 'NONE', #65, #150, #32 ) ;
#88 = CC_DESIGN_APPROVAL ( #81, ( #261 ) ) ;
#89 = SECURITY_CLASSIFICATION_LEVEL ( 'unclassified' ) ;
#90 = CALENDAR_DATE ( 2026, 22, 6 ) ;
#91 = CC_DESIGN_PERSON_AND_ORGANIZATION_ASSIGNMENT ( #35, #11, ( #261 ) ) ;
#92 = DATE_AND_TIME ( #67, #279 ) ;
#93 =( REPRESENTATION_RELATIONSHIP ('NONE','NONE', #357, #293 ) REPRESENTATION_RELATIONSHIP_WITH_TRANSFORMATION ( #373 )SHAPE_REPRESENTATION_RELATIONSHIP( ) );
#94 = APPLIED_EXTERNAL_IDENTIFICATION_ASSIGNMENT ( '6461082896.step.STEP' , #258, #33,( #157) ) ;
#95 = PERSON_AND_ORGANIZATION_ROLE ( 'creator' ) ;
#96 = ROLE_ASSOCIATION ( #291, #307 ) ;
#97 = PERSON_AND_ORGANIZATION ( #18446744073709551615, #18446744073709551615 ) ;
#98 = SECURITY_CLASSIFICATION_LEVEL ( 'unclassified' ) ;
#99 = APPROVAL_DATE_TIME ( #317, #81 ) ;
#100 = ORGANIZATION ( 'NAUO-ORG167', 'UNSPECIFIED', 'UNSPECIFIED' ) ;
#101 = APPROVAL_DATE_TIME ( #191, #4 ) ;
#102 = CALENDAR_DATE ( 2026, 22, 6 ) ;
#103 = PRODUCT_DEFINITION_SHAPE ( 'NONE', 'NONE',  #221 ) ;
#104 = PERSON_AND_ORGANIZATION ( #18446744073709551615, #18446744073709551615 ) ;
#105 = SECURITY_CLASSIFICATION ( '', '', #89 ) ;
#106 = APPROVAL_STATUS ( 'not_yet_approved' ) ;
#107 = LOCAL_TIME ( 18, 49, 57.00000000000000000, #228 ) ;
#108 = PRODUCT_RELATED_PRODUCT_CATEGORY ( 'detail', '', ( #190 ) ) ;
#109 = APPROVAL_STATUS ( 'not_yet_approved' ) ;
#110 = COORDINATED_UNIVERSAL_TIME_OFFSET ( 10, 0, .AHEAD. ) ;
#111 =( GEOMETRIC_REPRESENTATION_CONTEXT ( 3 ) GLOBAL_UNCERTAINTY_ASSIGNED_CONTEXT ( ( #165 ) ) GLOBAL_UNIT_ASSIGNED_CONTEXT ( ( #56, #235, #142 ) ) REPRESENTATION_CONTEXT ( 'NONE', 'WORKASPACE' ) );
#112 = APPROVAL_PERSON_ORGANIZATION ( #35, #81, #219 ) ;
#113 = APPLICATION_CONTEXT ( 'configuration controlled 3d designs of mechanical parts and assemblies' ) ;
#114 = PERSON_AND_ORGANIZATION_ROLE ( 'creator' ) ;
#115 = DESIGN_CONTEXT ( 'detailed design', #151, 'design' ) ;
#116 = APPROVAL_STATUS ( 'not_yet_approved' ) ;
#117 = CC_DESIGN_SECURITY_CLASSIFICATION ( #292, ( #390 ) ) ;
#118 = APPROVAL ( #116, 'Coincident' ) ;
#119 = PERSON_AND_ORGANIZATION ( #18446744073709551615, #18446744073709551615 ) ;
#120 = APPLIED_DOCUMENT_REFERENCE ( #324,'',( #221) ) ;
#121 = APPROVAL_DATE_TIME ( #36, #118 ) ;
#122 = CC_DESIGN_PERSON_AND_ORGANIZATION_ASSIGNMENT ( #30, #74, ( #292 ) ) ;
#123 = CC_DESIGN_APPROVAL ( #118, ( #378 ) ) ;
#124 = PERSON_AND_ORGANIZATION_ROLE ( 'classification_officer' ) ;
#125 = CONTEXT_DEPENDENT_SHAPE_REPRESENTATION ( #238, #342 ) ;
#126 = APPROVAL_STATUS ( 'not_yet_approved' ) ;
#127 = CALENDAR_DATE ( 2026, 22, 6 ) ;
#128 = CC_DESIGN_PERSON_AND_ORGANIZATION_ASSIGNMENT ( #62, #153, ( #378 ) ) ;
#129 = APPLIED_EXTERNAL_IDENTIFICATION_ASSIGNMENT ( '6461082896.step.STEP' , #315, #298,( #324) ) ;
#130 = COORDINATED_UNIVERSAL_TIME_OFFSET ( 10, 0, .AHEAD. ) ;
#131 = PROPERTY_DEFINITION ('external definition','', #157 ) ;
#132 = PERSON_AND_ORGANIZATION ( #18446744073709551615, #18446744073709551615 ) ;
#133 = APPLICATION_CONTEXT ( 'configuration controlled 3d designs of mechanical parts and assemblies' ) ;
#134 = COORDINATED_UNIVERSAL_TIME_OFFSET ( 10, 0, .AHEAD. ) ;
#135 = CC_DESIGN_DATE_AND_TIME_ASSIGNMENT ( #220, #226, ( #326 ) ) ;
#136 = DATE_TIME_ROLE ( 'classification_date' ) ;
#137 = APPROVAL_PERSON_ORGANIZATION ( #257, #69, #188 ) ;
#138 = DIRECTION ( 'NONE',  ( 1.000000000000000000, 0.000000000000000000, 0.000000000000000000 ) ) ;
#139 = APPROVAL_ROLE ( '' ) ;
#140 = SECURITY_CLASSIFICATION_LEVEL ( 'unclassified' ) ;
#141 = DATE_AND_TIME ( #54, #299 ) ;
#142 =( NAMED_UNIT ( * ) SI_UNIT ( $, .STERADIAN. ) SOLID_ANGLE_UNIT ( ) );
#143 = LOCAL_TIME ( 18, 49, 57.00000000000000000, #110 ) ;
#144 = DIRECTION ( 'NONE',  ( 4.890937612370273194E-29, -3.155443620884047222E-30, 0.9999999999999997780 ) ) ;
#145 = PERSON_AND_ORGANIZATION ( #18446744073709551615, #18446744073709551615 ) ;
#146 = AXIS2_PLACEMENT_3D ( 'NONE', #3, #290, #232 ) ;
#147 = PRODUCT_DEFINITION_FORMATION_WITH_SPECIFIED_SOURCE ( 'Symmetric', '', #190, .NOT_KNOWN. ) ;
#148 = DIRECTION ( 'NONE',  ( 1.000000000000000000, 0.000000000000000000, 0.000000000000000000 ) ) ;
#149 = PRODUCT_DEFINITION ( 'General', '', #155, #57 ) ;
#150 = DIRECTION ( 'NONE',  ( 4.890937612370273194E-29, -3.155443620884047222E-30, 0.9999999999999997780 ) ) ;
#151 = APPLICATION_CONTEXT ( 'configuration controlled 3d designs of mechanical parts and assemblies' ) ;
#152 = COORDINATED_UNIVERSAL_TIME_OFFSET ( 10, 0, .AHEAD. ) ;
#153 = PERSON_AND_ORGANIZATION_ROLE ( 'design_supplier' ) ;
#154 = DATE_TIME_ROLE ( 'classification_date' ) ;
#155 = PRODUCT_DEFINITION_FORMATION_WITH_SPECIFIED_SOURCE ( 'Symmetric', '', #44, .NOT_KNOWN. ) ;
#156 = APPLICATION_PROTOCOL_DEFINITION ( 'international standard', 'config_control_design', 1994, #78 ) ;
#157 = DOCUMENT_FILE ( '6461082896.step.STEP' , '', '', #277, '' ,$ ) ;
#158 = PERSON_AND_ORGANIZATION ( #18446744073709551615, #18446744073709551615 ) ;
#159 = CC_DESIGN_PERSON_AND_ORGANIZATION_ASSIGNMENT ( #49, #352, ( #362 ) ) ;
#160 = APPROVAL_DATE_TIME ( #42, #40 ) ;
#161 = PRODUCT ( 'R6.step', 'R6.step', '', ( #207 ) ) ;
#162 = AXIS2_PLACEMENT_3D ( 'NONE', #60, #144, #215 ) ;
#163 = LOCAL_TIME ( 18, 49, 57.00000000000000000, #339 ) ;
#164 = APPROVAL_DATE_TIME ( #224, #239 ) ;
#165 = UNCERTAINTY_MEASURE_WITH_UNIT (LENGTH_MEASURE( 1.000000000000000082E-05 ), #56, 'distance_accuracy_value', 'NONE');
#166 = PRODUCT_RELATED_PRODUCT_CATEGORY ( 'detail', '', ( #44 ) ) ;
#167 = COORDINATED_UNIVERSAL_TIME_OFFSET ( 10, 0, .AHEAD. ) ;
#168 = PERSON_AND_ORGANIZATION ( #18446744073709551615, #18446744073709551615 ) ;
#169 = APPROVAL_DATE_TIME ( #206, #264 ) ;
#170 = LOCAL_TIME ( 18, 49, 57.00000000000000000, #130 ) ;
#171 = COORDINATED_UNIVERSAL_TIME_OFFSET ( 10, 0, .AHEAD. ) ;
#172 = PERSON_AND_ORGANIZATION_ROLE ( 'creator' ) ;
#173 = DIRECTION ( 'NONE',  ( 0.000000000000000000, 0.000000000000000000, 1.000000000000000000 ) ) ;
#174 = IDENTIFICATION_ROLE ( 'external document id and location', $) ;
#175 = LOCAL_TIME ( 18, 49, 57.00000000000000000, #171 ) ;
#176 = CC_DESIGN_PERSON_AND_ORGANIZATION_ASSIGNMENT ( #325, #270, ( #161 ) ) ;
#177 = DATE_AND_TIME ( #243, #280 ) ;
#178 = CALENDAR_DATE ( 2026, 22, 6 ) ;
#179 = ITEM_DEFINED_TRANSFORMATION ( 'NONE', 'NONE', #23,  #340 ) ;
#180 = PERSON_AND_ORGANIZATION ( #18446744073709551615, #18446744073709551615 ) ;
#181 = LOCAL_TIME ( 18, 49, 57.00000000000000000, #377 ) ;
#182 =( LENGTH_UNIT ( ) NAMED_UNIT ( * ) SI_UNIT ( .MILLI., .METRE. ) );
#183 = DIRECTION ( 'NONE',  ( 1.000000000000000222, -1.092455418989176591E-28, 4.890937612370273194E-29 ) ) ;
#184 = APPLICATION_PROTOCOL_DEFINITION ( 'international standard', 'config_control_design', 1994, #55 ) ;
#185 = LOCAL_TIME ( 18, 49, 57.00000000000000000, #7 ) ;
#186 = PROPERTY_DEFINITION_REPRESENTATION ( #16, #293 ) ;
#187 = CC_DESIGN_APPROVAL ( #264, ( #9 ) ) ;
#188 = APPROVAL_ROLE ( '' ) ;
#189 = CC_DESIGN_DATE_AND_TIME_ASSIGNMENT ( #230, #154, ( #261 ) ) ;
#190 = PRODUCT ( '6461082896.step', '6461082896.step', '', ( #338 ) ) ;
#191 = DATE_AND_TIME ( #20, #52 ) ;
#192 = PROPERTY_DEFINITION ('external definition','', #324 ) ;
#193 = SHAPE_DEFINITION_REPRESENTATION ( #254, #357 ) ;
#194 =( GEOMETRIC_REPRESENTATION_CONTEXT ( 3 ) GLOBAL_UNCERTAINTY_ASSIGNED_CONTEXT ( ( #294 ) ) GLOBAL_UNIT_ASSIGNED_CONTEXT ( ( #182, #273, #336 ) ) REPRESENTATION_CONTEXT ( 'NONE', 'WORKASPACE' ) );
#195 = CC_DESIGN_PERSON_AND_ORGANIZATION_ASSIGNMENT ( #310, #75, ( #44 ) ) ;
#196 = OBJECT_ROLE ('mandatory',$ ) ;
#197 = PERSON ( 'NAUO-PER166', 'UNSPECIFIED', 'UNSPECIFIED', ('UNSPECIFIED'), ('UNSPECIFIED'), ('UNSPECIFIED') ) ;
#198 = APPROVAL_STATUS ( 'not_yet_approved' ) ;
#199 = CALENDAR_DATE ( 2026, 22, 6 ) ;
#200 = APPROVAL_ROLE ( '' ) ;
#201 = APPLICATION_PROTOCOL_DEFINITION ( 'international standard', 'config_control_design', 1994, #113 ) ;
#202 = LOCAL_TIME ( 18, 49, 57.00000000000000000, #10 ) ;
#203 = SHAPE_DEFINITION_REPRESENTATION ( #345, #73 ) ;
#204 = CC_DESIGN_SECURITY_CLASSIFICATION ( #105, ( #378 ) ) ;
#205 = APPROVAL ( #359, 'Coincident' ) ;
#206 = DATE_AND_TIME ( #320, #143 ) ;
#207 = MECHANICAL_CONTEXT ( 'NONE', #113, 'mechanical' ) ;
#208 = CC_DESIGN_APPROVAL ( #382, ( #105 ) ) ;
#209 = APPROVAL_DATE_TIME ( #306, #205 ) ;
#210 = PERSON_AND_ORGANIZATION ( #18446744073709551615, #18446744073709551615 ) ;
#211 = DATE_AND_TIME ( #25, #237 ) ;
#212 = CALENDAR_DATE ( 2026, 22, 6 ) ;
#213 = PRODUCT_DEFINITION ( 'General', '', #378, #115 ) ;
#214 = APPROVAL_STATUS ( 'not_yet_approved' ) ;
#215 = DIRECTION ( 'NONE',  ( 1.000000000000000222, -1.092455418989176591E-28, 4.890937612370273194E-29 ) ) ;
#216 = PERSON ( 'NAUO-PER165', 'UNSPECIFIED', 'UNSPECIFIED', ('UNSPECIFIED'), ('UNSPECIFIED'), ('UNSPECIFIED') ) ;
#217 = CC_DESIGN_APPROVAL ( #4, ( #326 ) ) ;
#218 = DOCUMENT_TYPE ( 'geometry' ) ;
#219 = APPROVAL_ROLE ( '' ) ;
#220 = DATE_AND_TIME ( #102, #181 ) ;
#221 = PRODUCT_DEFINITION ( 'General', '', #147, #356 ) ;
#222 = CALENDAR_DATE ( 2026, 22, 6 ) ;
#223 = LOCAL_TIME ( 18, 49, 57.00000000000000000, #252 ) ;
#224 = DATE_AND_TIME ( #45, #107 ) ;
#225 = PRODUCT_DEFINITION_SHAPE ( 'NONE', 'NONE',  #388 ) ;
#226 = DATE_TIME_ROLE ( 'classification_date' ) ;
#227 = CC_DESIGN_DATE_AND_TIME_ASSIGNMENT ( #141, #136, ( #9 ) ) ;
#228 = COORDINATED_UNIVERSAL_TIME_OFFSET ( 10, 0, .AHEAD. ) ;
#229 = LOCAL_TIME ( 18, 49, 57.00000000000000000, #386 ) ;
#230 = DATE_AND_TIME ( #259, #240 ) ;
#231 = APPROVAL_DATE_TIME ( #355, #376 ) ;
#232 = DIRECTION ( 'NONE',  ( 1.000000000000000000, 0.000000000000000000, 0.000000000000000000 ) ) ;
#233 = CC_DESIGN_PERSON_AND_ORGANIZATION_ASSIGNMENT ( #297, #330, ( #9 ) ) ;
#234 = APPLIED_DOCUMENT_REFERENCE ( #247,'',( #149) ) ;
#235 =( NAMED_UNIT ( * ) PLANE_ANGLE_UNIT ( ) SI_UNIT ( $, .RADIAN. ) );
#236 = PERSON_AND_ORGANIZATION ( #18446744073709551615, #18446744073709551615 ) ;
#237 = LOCAL_TIME ( 18, 49, 57.00000000000000000, #322 ) ;
#238 =( REPRESENTATION_RELATIONSHIP ('NONE','NONE', #357, #293 ) REPRESENTATION_RELATIONSHIP_WITH_TRANSFORMATION ( #179 )SHAPE_REPRESENTATION_RELATIONSHIP( ) );
#239 = APPROVAL ( #380, 'Coincident' ) ;
#240 = LOCAL_TIME ( 18, 49, 57.00000000000000000, #134 ) ;
#241 = COORDINATED_UNIVERSAL_TIME_OFFSET ( 10, 0, .AHEAD. ) ;
#242 = CC_DESIGN_PERSON_AND_ORGANIZATION_ASSIGNMENT ( #132, #70, ( #147 ) ) ;
#243 = CALENDAR_DATE ( 2026, 22, 6 ) ;
#244 = PROPERTY_DEFINITION_REPRESENTATION ( #348, #293 ) ;
#245 = PROPERTY_DEFINITION ('external definition','', #247 ) ;
#246 = CARTESIAN_POINT ( 'NONE',  ( 17.25000100705100436, 0.7500040893549976273, -2.058321952819998302 ) ) ;
#247 = DOCUMENT_FILE ( '6461083056.step.STEP' , '', '', #218, '' ,$ ) ;
#248 = APPROVAL_PERSON_ORGANIZATION ( #145, #118, #276 ) ;
#249 = APPLICATION_PROTOCOL_DEFINITION ( 'international standard', 'config_control_design', 1994, #133 ) ;
#250 = CC_DESIGN_DATE_AND_TIME_ASSIGNMENT ( #92, #29, ( #213 ) ) ;
#251 = APPROVAL_ROLE ( '' ) ;
#252 = COORDINATED_UNIVERSAL_TIME_OFFSET ( 10, 0, .AHEAD. ) ;
#253 = PERSON_AND_ORGANIZATION ( #18446744073709551615, #18446744073709551615 ) ;
#254 = PRODUCT_DEFINITION_SHAPE ( 'NONE', 'NONE',  #213 ) ;
#255 = EXTERNAL_SOURCE (IDENTIFIER('') ) ;
#256 = PERSON_AND_ORGANIZATION ( #18446744073709551615, #18446744073709551615 ) ;
#257 = PERSON_AND_ORGANIZATION ( #18446744073709551615, #18446744073709551615 ) ;
#258 = IDENTIFICATION_ROLE ( 'external document id and location', $) ;
#259 = CALENDAR_DATE ( 2026, 22, 6 ) ;
#260 = APPROVAL_PERSON_ORGANIZATION ( #372, #205, #34 ) ;
#261 = SECURITY_CLASSIFICATION ( '', '', #302 ) ;
#262 = ROLE_ASSOCIATION ( #358, #234 ) ;
#263 =( NAMED_UNIT ( * ) PLANE_ANGLE_UNIT ( ) SI_UNIT ( $, .RADIAN. ) );
#264 = APPROVAL ( #109, 'UNKNOWN' ) ;
#265 = CONTEXT_DEPENDENT_SHAPE_REPRESENTATION ( #369, #225 ) ;
#266 = PROPERTY_DEFINITION_REPRESENTATION ( #245, #73 ) ;
#267 = CC_DESIGN_SECURITY_CLASSIFICATION ( #261, ( #389 ) ) ;
#268 = CC_DESIGN_PERSON_AND_ORGANIZATION_ASSIGNMENT ( #104, #308, ( #147 ) ) ;
#269 = CARTESIAN_POINT ( 'NONE',  ( 0.000000000000000000, 0.000000000000000000, 0.000000000000000000 ) ) ;
#270 = PERSON_AND_ORGANIZATION_ROLE ( 'design_owner' ) ;
#271 = CC_DESIGN_APPROVAL ( #205, ( #213 ) ) ;
#272 = LOCAL_TIME ( 18, 49, 57.00000000000000000, #152 ) ;
#273 =( NAMED_UNIT ( * ) PLANE_ANGLE_UNIT ( ) SI_UNIT ( $, .RADIAN. ) );
#274 = APPROVAL_ROLE ( '' ) ;
#275 = SECURITY_CLASSIFICATION_LEVEL ( 'unclassified' ) ;
#276 = APPROVAL_ROLE ( '' ) ;
#277 = DOCUMENT_TYPE ( 'geometry' ) ;
#278 = DATE_TIME_ROLE ( 'classification_date' ) ;
#279 = LOCAL_TIME ( 18, 49, 57.00000000000000000, #300 ) ;
#280 = LOCAL_TIME ( 18, 49, 57.00000000000000000, #327 ) ;
#281 = MECHANICAL_CONTEXT ( 'NONE', #78, 'mechanical' ) ;
#282 = DATE_AND_TIME ( #63, #223 ) ;
#283 = APPROVAL_STATUS ( 'not_yet_approved' ) ;
#284 = DATE_AND_TIME ( #127, #170 ) ;
#285 = LOCAL_TIME ( 18, 49, 57.00000000000000000, #351 ) ;
#286 = PRODUCT_DEFINITION_SHAPE ( 'NONE', 'NONE',  #390 ) ;
#287 = COORDINATED_UNIVERSAL_TIME_OFFSET ( 10, 0, .AHEAD. ) ;
#288 = APPROVAL_ROLE ( '' ) ;
#289 = APPROVAL_STATUS ( 'not_yet_approved' ) ;
#290 = DIRECTION ( 'NONE',  ( 0.000000000000000000, 0.000000000000000000, 1.000000000000000000 ) ) ;
#291 = OBJECT_ROLE ('mandatory',$ ) ;
#292 = SECURITY_CLASSIFICATION ( '', '', #275 ) ;
#293 = SHAPE_REPRESENTATION ( '6461082896.step', ( #340 ), #370 ) ;
#294 = UNCERTAINTY_MEASURE_WITH_UNIT (LENGTH_MEASURE( 1.000000000000000082E-05 ), #182, 'distance_accuracy_value', 'NONE');
#295 = ITEM_DEFINED_TRANSFORMATION ( 'NONE', 'NONE', #162,  #146 ) ;
#296 = CC_DESIGN_DATE_AND_TIME_ASSIGNMENT ( #211, #363, ( #149 ) ) ;
#297 = PERSON_AND_ORGANIZATION ( #216, #341 ) ;
#298 = EXTERNAL_SOURCE (IDENTIFIER('') ) ;
#299 = LOCAL_TIME ( 18, 49, 57.00000000000000000, #82 ) ;
#300 = COORDINATED_UNIVERSAL_TIME_OFFSET ( 10, 0, .AHEAD. ) ;
#301 = CC_DESIGN_PERSON_AND_ORGANIZATION_ASSIGNMENT ( #236, #80, ( #155 ) ) ;
#302 = SECURITY_CLASSIFICATION_LEVEL ( 'unclassified' ) ;
#303 = ORGANIZATION ( 'NAUO-ORG166', 'UNSPECIFIED', 'UNSPECIFIED' ) ;
#304 = PROPERTY_DEFINITION_REPRESENTATION ( #131, #293 ) ;
#305 = APPROVAL ( #1, 'Coincident' ) ;
#306 = DATE_AND_TIME ( #178, #185 ) ;
#307 = APPLIED_DOCUMENT_REFERENCE ( #157,'',( #221) ) ;
#308 = PERSON_AND_ORGANIZATION_ROLE ( 'design_supplier' ) ;
#309 = APPROVAL_PERSON_ORGANIZATION ( #180, #382, #77 ) ;
#310 = PERSON_AND_ORGANIZATION ( #18446744073709551615, #18446744073709551615 ) ;
#311 = APPROVAL_DATE_TIME ( #13, #69 ) ;
#312 = PERSON_AND_ORGANIZATION_ROLE ( 'design_owner' ) ;
#313 = CC_DESIGN_APPROVAL ( #69, ( #147 ) ) ;
#314 = PERSON_AND_ORGANIZATION_ROLE ( 'creator' ) ;
#315 = IDENTIFICATION_ROLE ( 'external document id and location', $) ;
#316 = PRODUCT_RELATED_PRODUCT_CATEGORY ( 'detail', '', ( #161 ) ) ;
#317 = DATE_AND_TIME ( #199, #285 ) ;
#318 = DATE_TIME_ROLE ( 'classification_date' ) ;
#319 = CARTESIAN_POINT ( 'NONE',  ( 0.000000000000000000, 0.000000000000000000, 0.000000000000000000 ) ) ;
#320 = CALENDAR_DATE ( 2026, 22, 6 ) ;
#321 = APPLIED_EXTERNAL_IDENTIFICATION_ASSIGNMENT ( '6461083056.step.STEP' , #174, #255,( #247) ) ;
#322 = COORDINATED_UNIVERSAL_TIME_OFFSET ( 10, 0, .AHEAD. ) ;
#323 = CC_DESIGN_DATE_AND_TIME_ASSIGNMENT ( #282, #278, ( #292 ) ) ;
#324 = DOCUMENT_FILE ( '6461082896.step.STEP' , '', '', #347, '' ,$ ) ;
#325 = PERSON_AND_ORGANIZATION ( #18446744073709551615, #18446744073709551615 ) ;
#326 = SECURITY_CLASSIFICATION ( '', '', #98 ) ;
#327 = COORDINATED_UNIVERSAL_TIME_OFFSET ( 10, 0, .AHEAD. ) ;
#328 = CC_DESIGN_PERSON_AND_ORGANIZATION_ASSIGNMENT ( #210, #124, ( #105 ) ) ;
#329 =( NAMED_UNIT ( * ) SI_UNIT ( $, .STERADIAN. ) SOLID_ANGLE_UNIT ( ) );
#330 = PERSON_AND_ORGANIZATION_ROLE ( 'classification_officer' ) ;
#331 = PERSON_AND_ORGANIZATION_ROLE ( 'creator' ) ;
#332 = ROLE_ASSOCIATION ( #196, #120 ) ;
#333 = APPROVAL_PERSON_ORGANIZATION ( #256, #239, #288 ) ;
#334 = CC_DESIGN_SECURITY_CLASSIFICATION ( #362, ( #155 ) ) ;
#335 = CC_DESIGN_PERSON_AND_ORGANIZATION_ASSIGNMENT ( #5, #95, ( #213 ) ) ;
#336 =( NAMED_UNIT ( * ) SI_UNIT ( $, .STERADIAN. ) SOLID_ANGLE_UNIT ( ) );
#337 = PROPERTY_DEFINITION_REPRESENTATION ( #192, #293 ) ;
#338 = MECHANICAL_CONTEXT ( 'NONE', #17, 'mechanical' ) ;
#339 = COORDINATED_UNIVERSAL_TIME_OFFSET ( 10, 0, .AHEAD. ) ;
#340 = AXIS2_PLACEMENT_3D ( 'NONE', #269, #173, #138 ) ;
#341 = ORGANIZATION ( 'NAUO-ORG165', 'UNSPECIFIED', 'UNSPECIFIED' ) ;
#342 = PRODUCT_DEFINITION_SHAPE ( 'NONE', 'NONE',  #389 ) ;
#343 = SHAPE_DEFINITION_REPRESENTATION ( #103, #293 ) ;
#344 = CC_DESIGN_PERSON_AND_ORGANIZATION_ASSIGNMENT ( #158, #172, ( #149 ) ) ;
#345 = PRODUCT_DEFINITION_SHAPE ( 'NONE', 'NONE',  #149 ) ;
#346 = PERSON_AND_ORGANIZATION ( #18446744073709551615, #18446744073709551615 ) ;
#347 = DOCUMENT_TYPE ( 'geometry' ) ;
#348 = PROPERTY_DEFINITION ('document property','', #157 ) ;
#349 = PERSON_AND_ORGANIZATION_ROLE ( 'classification_officer' ) ;
#350 = CC_DESIGN_SECURITY_CLASSIFICATION ( #326, ( #147 ) ) ;
#351 = COORDINATED_UNIVERSAL_TIME_OFFSET ( 10, 0, .AHEAD. ) ;
#352 = PERSON_AND_ORGANIZATION_ROLE ( 'classification_officer' ) ;
#353 = CC_DESIGN_PERSON_AND_ORGANIZATION_ASSIGNMENT ( #119, #331, ( #378 ) ) ;
#354 = CC_DESIGN_APPROVAL ( #239, ( #221 ) ) ;
#355 = DATE_AND_TIME ( #90, #384 ) ;
#356 = DESIGN_CONTEXT ( 'detailed design', #55, 'design' ) ;
#357 = SHAPE_REPRESENTATION ( 'R6.step', ( #360, #162, #23, #87 ), #194 ) ;
#358 = OBJECT_ROLE ('mandatory',$ ) ;
#359 = APPROVAL_STATUS ( 'not_yet_approved' ) ;
#360 = AXIS2_PLACEMENT_3D ( 'NONE', #319, #50, #148 ) ;
#361 = CC_DESIGN_PERSON_AND_ORGANIZATION_ASSIGNMENT ( #53, #114, ( #155 ) ) ;
#362 = SECURITY_CLASSIFICATION ( '', '', #385 ) ;
#363 = DATE_TIME_ROLE ( 'creation_date' ) ;
#364 = PROPERTY_DEFINITION ('document property','', #247 ) ;
#365 = DATE_TIME_ROLE ( 'classification_date' ) ;
#366 = APPROVAL_DATE_TIME ( #68, #8 ) ;
#367 = DIRECTION ( 'NONE',  ( 4.890937612370273194E-29, -3.155443620884047222E-30, 0.9999999999999997780 ) ) ;
#368 = CC_DESIGN_PERSON_AND_ORGANIZATION_ASSIGNMENT ( #374, #349, ( #326 ) ) ;
#369 =( REPRESENTATION_RELATIONSHIP ('NONE','NONE', #357, #73 ) REPRESENTATION_RELATIONSHIP_WITH_TRANSFORMATION ( #295 )SHAPE_REPRESENTATION_RELATIONSHIP( ) );
#370 =( GEOMETRIC_REPRESENTATION_CONTEXT ( 3 ) GLOBAL_UNCERTAINTY_ASSIGNED_CONTEXT ( ( #28 ) ) GLOBAL_UNIT_ASSIGNED_CONTEXT ( ( #2, #263, #329 ) ) REPRESENTATION_CONTEXT ( 'NONE', 'WORKASPACE' ) );
#371 = CC_DESIGN_APPROVAL ( #40, ( #149 ) ) ;
#372 = PERSON_AND_ORGANIZATION ( #18446744073709551615, #18446744073709551615 ) ;
#373 = ITEM_DEFINED_TRANSFORMATION ( 'NONE', 'NONE', #87,  #340 ) ;
#374 = PERSON_AND_ORGANIZATION ( #18446744073709551615, #18446744073709551615 ) ;
#375 = COORDINATED_UNIVERSAL_TIME_OFFSET ( 10, 0, .AHEAD. ) ;
#376 = APPROVAL ( #289, 'Coincident' ) ;
#377 = COORDINATED_UNIVERSAL_TIME_OFFSET ( 10, 0, .AHEAD. ) ;
#378 = PRODUCT_DEFINITION_FORMATION_WITH_SPECIFIED_SOURCE ( 'Symmetric', '', #161, .NOT_KNOWN. ) ;
#379 = APPROVAL_PERSON_ORGANIZATION ( #47, #4, #12 ) ;
#380 = APPROVAL_STATUS ( 'not_yet_approved' ) ;
#381 = APPROVAL_STATUS ( 'not_yet_approved' ) ;
#382 = APPROVAL ( #283, 'Coincident' ) ;
#383 = CALENDAR_DATE ( 2026, 22, 6 ) ;
#384 = LOCAL_TIME ( 18, 49, 57.00000000000000000, #241 ) ;
#385 = SECURITY_CLASSIFICATION_LEVEL ( 'unclassified' ) ;
#386 = COORDINATED_UNIVERSAL_TIME_OFFSET ( 10, 0, .AHEAD. ) ;
#387 = APPROVAL_PERSON_ORGANIZATION ( #24, #376, #83 ) ;
#388 = NEXT_ASSEMBLY_USAGE_OCCURRENCE ( 'NAUO165', ' ', ' ', #213, #149, $ ) ;
#389 = NEXT_ASSEMBLY_USAGE_OCCURRENCE ( 'NAUO166', ' ', ' ', #213, #221, $ ) ;
#390 = NEXT_ASSEMBLY_USAGE_OCCURRENCE ( 'NAUO167', ' ', ' ', #213, #221, $ ) ;
ENDSEC;
END-ISO-10303-21;
