ISO-10303-21;
HEADER;
FILE_DESCRIPTION (( 'STEP AP203' ),
    '1' );
FILE_NAME ('R7.step.STEP',
    '2026-06-22T08:49:53',
    ( 'localuser' ),
    ( '' ),
    'SwSTEP 2.0',
    'SolidWorks 2025',
    '' );
FILE_SCHEMA (( 'CONFIG_CONTROL_DESIGN' ));
ENDSEC;

DATA;
#1 = MECHANICAL_CONTEXT ( 'NONE', #147, 'mechanical' ) ;
#2 = DATE_AND_TIME ( #86, #328 ) ;
#3 = PRODUCT_RELATED_PRODUCT_CATEGORY ( 'detail', '', ( #254 ) ) ;
#4 = PERSON_AND_ORGANIZATION_ROLE ( 'design_supplier' ) ;
#5 = PERSON_AND_ORGANIZATION ( #18446744073709551615, #18446744073709551615 ) ;
#6 = DATE_TIME_ROLE ( 'classification_date' ) ;
#7 = PERSON_AND_ORGANIZATION ( #18446744073709551615, #18446744073709551615 ) ;
#8 = CC_DESIGN_PERSON_AND_ORGANIZATION_ASSIGNMENT ( #139, #4, ( #16 ) ) ;
#9 = DOCUMENT_FILE ( '6461083056.step.STEP' , '', '', #202, '' ,$ ) ;
#10 = IDENTIFICATION_ROLE ( 'external document id and location', $) ;
#11 = CC_DESIGN_APPROVAL ( #104, ( #19 ) ) ;
#12 = PERSON_AND_ORGANIZATION_ROLE ( 'classification_officer' ) ;
#13 = APPROVAL_STATUS ( 'not_yet_approved' ) ;
#14 = PROPERTY_DEFINITION ('external definition','', #127 ) ;
#15 = CALENDAR_DATE ( 2026, 22, 6 ) ;
#16 = PRODUCT_DEFINITION_FORMATION_WITH_SPECIFIED_SOURCE ( 'Symmetric', '', #187, .NOT_KNOWN. ) ;
#17 = DATE_AND_TIME ( #60, #140 ) ;
#18 = DATE_TIME_ROLE ( 'creation_date' ) ;
#19 = PRODUCT_DEFINITION ( 'General', '', #236, #77 ) ;
#20 = IDENTIFICATION_ROLE ( 'external document id and location', $) ;
#21 =( NAMED_UNIT ( * ) SI_UNIT ( $, .STERADIAN. ) SOLID_ANGLE_UNIT ( ) );
#22 = APPROVAL_PERSON_ORGANIZATION ( #56, #252, #211 ) ;
#23 = APPROVAL_STATUS ( 'not_yet_approved' ) ;
#24 = ROLE_ASSOCIATION ( #158, #324 ) ;
#25 = COORDINATED_UNIVERSAL_TIME_OFFSET ( 10, 0, .AHEAD. ) ;
#26 = CC_DESIGN_PERSON_AND_ORGANIZATION_ASSIGNMENT ( #310, #35, ( #66 ) ) ;
#27 = CARTESIAN_POINT ( 'NONE',  ( 3.249001556367000276, 5.350002563477000983, -2.058321952820000078 ) ) ;
#28 = LOCAL_TIME ( 18, 49, 53.00000000000000000, #362 ) ;
#29 = APPLIED_EXTERNAL_IDENTIFICATION_ASSIGNMENT ( '6461082896.step.STEP' , #20, #91,( #280) ) ;
#30 = COORDINATED_UNIVERSAL_TIME_OFFSET ( 10, 0, .AHEAD. ) ;
#31 = PERSON_AND_ORGANIZATION_ROLE ( 'creator' ) ;
#32 = SECURITY_CLASSIFICATION_LEVEL ( 'unclassified' ) ;
#33 = APPROVAL_PERSON_ORGANIZATION ( #309, #65, #175 ) ;
#34 = SHAPE_DEFINITION_REPRESENTATION ( #350, #188 ) ;
#35 = PERSON_AND_ORGANIZATION_ROLE ( 'creator' ) ;
#36 = APPROVAL ( #253, 'Coincident' ) ;
#37 = APPROVAL_STATUS ( 'not_yet_approved' ) ;
#38 = APPROVAL_DATE_TIME ( #308, #367 ) ;
#39 =( GEOMETRIC_REPRESENTATION_CONTEXT ( 3 ) GLOBAL_UNCERTAINTY_ASSIGNED_CONTEXT ( ( #156 ) ) GLOBAL_UNIT_ASSIGNED_CONTEXT ( ( #294, #325, #21 ) ) REPRESENTATION_CONTEXT ( 'NONE', 'WORKASPACE' ) );
#40 =( GEOMETRIC_REPRESENTATION_CONTEXT ( 3 ) GLOBAL_UNCERTAINTY_ASSIGNED_CONTEXT ( ( #239 ) ) GLOBAL_UNIT_ASSIGNED_CONTEXT ( ( #297, #272, #249 ) ) REPRESENTATION_CONTEXT ( 'NONE', 'WORKASPACE' ) );
#41 = CC_DESIGN_DATE_AND_TIME_ASSIGNMENT ( #271, #6, ( #320 ) ) ;
#42 = MECHANICAL_CONTEXT ( 'NONE', #176, 'mechanical' ) ;
#43 = PROPERTY_DEFINITION ('document property','', #127 ) ;
#44 = PRODUCT_DEFINITION_SHAPE ( 'NONE', 'NONE',  #388 ) ;
#45 = CC_DESIGN_SECURITY_CLASSIFICATION ( #285, ( #390 ) ) ;
#46 = ROLE_ASSOCIATION ( #93, #190 ) ;
#47 = SECURITY_CLASSIFICATION_LEVEL ( 'unclassified' ) ;
#48 = LOCAL_TIME ( 18, 49, 53.00000000000000000, #369 ) ;
#49 = COORDINATED_UNIVERSAL_TIME_OFFSET ( 10, 0, .AHEAD. ) ;
#50 =( NAMED_UNIT ( * ) PLANE_ANGLE_UNIT ( ) SI_UNIT ( $, .RADIAN. ) );
#51 = SECURITY_CLASSIFICATION ( '', '', #334 ) ;
#52 = CC_DESIGN_DATE_AND_TIME_ASSIGNMENT ( #54, #210, ( #223 ) ) ;
#53 = PERSON_AND_ORGANIZATION_ROLE ( 'design_supplier' ) ;
#54 = DATE_AND_TIME ( #116, #347 ) ;
#55 = APPROVAL_DATE_TIME ( #206, #344 ) ;
#56 = PERSON_AND_ORGANIZATION ( #100, #387 ) ;
#57 = LOCAL_TIME ( 18, 49, 53.00000000000000000, #311 ) ;
#58 = ROLE_ASSOCIATION ( #333, #363 ) ;
#59 = APPROVAL_STATUS ( 'not_yet_approved' ) ;
#60 = CALENDAR_DATE ( 2026, 22, 6 ) ;
#61 = APPROVAL_PERSON_ORGANIZATION ( #241, #378, #84 ) ;
#62 = PERSON_AND_ORGANIZATION ( #18446744073709551615, #18446744073709551615 ) ;
#63 = DATE_TIME_ROLE ( 'classification_date' ) ;
#64 = PERSON_AND_ORGANIZATION ( #18446744073709551615, #18446744073709551615 ) ;
#65 = APPROVAL ( #183, 'Coincident' ) ;
#66 = PRODUCT_DEFINITION_FORMATION_WITH_SPECIFIED_SOURCE ( 'Symmetric', '', #254, .NOT_KNOWN. ) ;
#67 = CC_DESIGN_APPROVAL ( #220, ( #166 ) ) ;
#68 = DATE_AND_TIME ( #157, #214 ) ;
#69 = DIRECTION ( 'NONE',  ( 0.000000000000000000, 0.000000000000000000, 1.000000000000000000 ) ) ;
#70 = ITEM_DEFINED_TRANSFORMATION ( 'NONE', 'NONE', #75,  #219 ) ;
#71 = DATE_AND_TIME ( #81, #28 ) ;
#72 = CONTEXT_DEPENDENT_SHAPE_REPRESENTATION ( #150, #353 ) ;
#73 = DIRECTION ( 'NONE',  ( 1.000000000000000000, 0.000000000000000000, 0.000000000000000000 ) ) ;
#74 = APPROVAL ( #342, 'Coincident' ) ;
#75 = AXIS2_PLACEMENT_3D ( 'NONE', #323, #205, #165 ) ;
#76 = ORGANIZATION ( 'NAUO-ORG47', 'UNSPECIFIED', 'UNSPECIFIED' ) ;
#77 = DESIGN_CONTEXT ( 'detailed design', #123, 'design' ) ;
#78 = PERSON_AND_ORGANIZATION_ROLE ( 'creator' ) ;
#79 = PERSON_AND_ORGANIZATION_ROLE ( 'classification_officer' ) ;
#80 = CC_DESIGN_PERSON_AND_ORGANIZATION_ASSIGNMENT ( #238, #248, ( #223 ) ) ;
#81 = CALENDAR_DATE ( 2026, 22, 6 ) ;
#82 = PROPERTY_DEFINITION_REPRESENTATION ( #243, #188 ) ;
#83 = CC_DESIGN_SECURITY_CLASSIFICATION ( #166, ( #389 ) ) ;
#84 = APPROVAL_ROLE ( '' ) ;
#85 = DATE_AND_TIME ( #341, #354 ) ;
#86 = CALENDAR_DATE ( 2026, 22, 6 ) ;
#87 = CC_DESIGN_PERSON_AND_ORGANIZATION_ASSIGNMENT ( #226, #234, ( #254 ) ) ;
#88 = CALENDAR_DATE ( 2026, 22, 6 ) ;
#89 = CC_DESIGN_APPROVAL ( #282, ( #285 ) ) ;
#90 = ITEM_DEFINED_TRANSFORMATION ( 'NONE', 'NONE', #327,  #115 ) ;
#91 = EXTERNAL_SOURCE (IDENTIFIER('') ) ;
#92 = CC_DESIGN_SECURITY_CLASSIFICATION ( #223, ( #16 ) ) ;
#93 = OBJECT_ROLE ('mandatory',$ ) ;
#94 = PROPERTY_DEFINITION ('document property','', #9 ) ;
#95 = DATE_AND_TIME ( #348, #359 ) ;
#96 = CC_DESIGN_PERSON_AND_ORGANIZATION_ASSIGNMENT ( #208, #380, ( #187 ) ) ;
#97 = PRODUCT_DEFINITION_SHAPE ( 'NONE', 'NONE',  #19 ) ;
#98 = PROPERTY_DEFINITION_REPRESENTATION ( #14, #188 ) ;
#99 = PERSON_AND_ORGANIZATION ( #18446744073709551615, #18446744073709551615 ) ;
#100 = PERSON ( 'NAUO-PER46', 'UNSPECIFIED', 'UNSPECIFIED', ('UNSPECIFIED'), ('UNSPECIFIED'), ('UNSPECIFIED') ) ;
#101 = CC_DESIGN_APPROVAL ( #344, ( #66 ) ) ;
#102 = ORGANIZATION ( 'NAUO-ORG48', 'UNSPECIFIED', 'UNSPECIFIED' ) ;
#103 = DATE_TIME_ROLE ( 'creation_date' ) ;
#104 = APPROVAL ( #13, 'Coincident' ) ;
#105 =( LENGTH_UNIT ( ) NAMED_UNIT ( * ) SI_UNIT ( .MILLI., .METRE. ) );
#106 = PERSON_AND_ORGANIZATION ( #18446744073709551615, #18446744073709551615 ) ;
#107 = CC_DESIGN_APPROVAL ( #252, ( #320 ) ) ;
#108 = APPLICATION_CONTEXT ( 'configuration controlled 3d designs of mechanical parts and assemblies' ) ;
#109 = APPLICATION_PROTOCOL_DEFINITION ( 'international standard', 'config_control_design', 1994, #198 ) ;
#110 = CC_DESIGN_PERSON_AND_ORGANIZATION_ASSIGNMENT ( #317, #12, ( #364 ) ) ;
#111 = DATE_AND_TIME ( #302, #340 ) ;
#112 = ITEM_DEFINED_TRANSFORMATION ( 'NONE', 'NONE', #153,  #219 ) ;
#113 = IDENTIFICATION_ROLE ( 'external document id and location', $) ;
#114 = DATE_AND_TIME ( #136, #185 ) ;
#115 = AXIS2_PLACEMENT_3D ( 'NONE', #128, #69, #73 ) ;
#116 = CALENDAR_DATE ( 2026, 22, 6 ) ;
#117 = LOCAL_TIME ( 18, 49, 53.00000000000000000, #251 ) ;
#118 = PERSON_AND_ORGANIZATION ( #18446744073709551615, #18446744073709551615 ) ;
#119 = DATE_AND_TIME ( #88, #201 ) ;
#120 = DATE_TIME_ROLE ( 'creation_date' ) ;
#121 = APPROVAL_PERSON_ORGANIZATION ( #203, #344, #298 ) ;
#122 = APPROVAL_PERSON_ORGANIZATION ( #64, #244, #376 ) ;
#123 = APPLICATION_CONTEXT ( 'configuration controlled 3d designs of mechanical parts and assemblies' ) ;
#124 = APPROVAL_DATE_TIME ( #296, #173 ) ;
#125 = APPROVAL_ROLE ( '' ) ;
#126 = PERSON_AND_ORGANIZATION_ROLE ( 'classification_officer' ) ;
#127 = DOCUMENT_FILE ( '6461082896.step.STEP' , '', '', #312, '' ,$ ) ;
#128 = CARTESIAN_POINT ( 'NONE',  ( 0.000000000000000000, 0.000000000000000000, 0.000000000000000000 ) ) ;
#129 = APPLIED_EXTERNAL_IDENTIFICATION_ASSIGNMENT ( '6461082896.step.STEP' , #113, #321,( #127) ) ;
#130 = COORDINATED_UNIVERSAL_TIME_OFFSET ( 10, 0, .AHEAD. ) ;
#131 = CC_DESIGN_DATE_AND_TIME_ASSIGNMENT ( #119, #120, ( #338 ) ) ;
#132 = DIRECTION ( 'NONE',  ( 1.000000000000000000, 0.000000000000000000, 0.000000000000000000 ) ) ;
#133 =( GEOMETRIC_REPRESENTATION_CONTEXT ( 3 ) GLOBAL_UNCERTAINTY_ASSIGNED_CONTEXT ( ( #195 ) ) GLOBAL_UNIT_ASSIGNED_CONTEXT ( ( #105, #50, #269 ) ) REPRESENTATION_CONTEXT ( 'NONE', 'WORKASPACE' ) );
#134 = LOCAL_TIME ( 18, 49, 53.00000000000000000, #264 ) ;
#135 = DIRECTION ( 'NONE',  ( 1.000000000000000222, -1.092455418989176591E-28, 4.890937612370273194E-29 ) ) ;
#136 = CALENDAR_DATE ( 2026, 22, 6 ) ;
#137 = CALENDAR_DATE ( 2026, 22, 6 ) ;
#138 = CALENDAR_DATE ( 2026, 22, 6 ) ;
#139 = PERSON_AND_ORGANIZATION ( #18446744073709551615, #18446744073709551615 ) ;
#140 = LOCAL_TIME ( 18, 49, 53.00000000000000000, #283 ) ;
#141 = COORDINATED_UNIVERSAL_TIME_OFFSET ( 10, 0, .AHEAD. ) ;
#142 = SECURITY_CLASSIFICATION_LEVEL ( 'unclassified' ) ;
#143 = CC_DESIGN_PERSON_AND_ORGANIZATION_ASSIGNMENT ( #174, #336, ( #236 ) ) ;
#144 = APPROVAL_STATUS ( 'not_yet_approved' ) ;
#145 = CC_DESIGN_SECURITY_CLASSIFICATION ( #364, ( #66 ) ) ;
#146 = APPLICATION_PROTOCOL_DEFINITION ( 'international standard', 'config_control_design', 1994, #123 ) ;
#147 = APPLICATION_CONTEXT ( 'configuration controlled 3d designs of mechanical parts and assemblies' ) ;
#148 = APPROVAL_DATE_TIME ( #186, #104 ) ;
#149 = PROPERTY_DEFINITION ('external definition','', #9 ) ;
#150 =( REPRESENTATION_RELATIONSHIP ('NONE','NONE', #217, #188 ) REPRESENTATION_RELATIONSHIP_WITH_TRANSFORMATION ( #70 )SHAPE_REPRESENTATION_RELATIONSHIP( ) );
#151 = PRODUCT_DEFINITION_SHAPE ( 'NONE', 'NONE',  #259 ) ;
#152 = CC_DESIGN_PERSON_AND_ORGANIZATION_ASSIGNMENT ( #62, #189, ( #19 ) ) ;
#153 = AXIS2_PLACEMENT_3D ( 'NONE', #27, #228, #358 ) ;
#154 = LOCAL_TIME ( 18, 49, 53.00000000000000000, #196 ) ;
#155 = PROPERTY_DEFINITION_REPRESENTATION ( #43, #188 ) ;
#156 = UNCERTAINTY_MEASURE_WITH_UNIT (LENGTH_MEASURE( 1.000000000000000082E-05 ), #294, 'distance_accuracy_value', 'NONE');
#157 = CALENDAR_DATE ( 2026, 22, 6 ) ;
#158 = OBJECT_ROLE ('mandatory',$ ) ;
#159 = CONTEXT_DEPENDENT_SHAPE_REPRESENTATION ( #172, #287 ) ;
#160 = DIRECTION ( 'NONE',  ( 0.000000000000000000, 0.000000000000000000, 1.000000000000000000 ) ) ;
#161 = CC_DESIGN_PERSON_AND_ORGANIZATION_ASSIGNMENT ( #56, #245, ( #320 ) ) ;
#162 = DIRECTION ( 'NONE',  ( 0.000000000000000000, 0.000000000000000000, 1.000000000000000000 ) ) ;
#163 = LOCAL_TIME ( 18, 49, 53.00000000000000000, #25 ) ;
#164 = PERSON_AND_ORGANIZATION_ROLE ( 'classification_officer' ) ;
#165 = DIRECTION ( 'NONE',  ( 1.000000000000000222, -1.092455418989176591E-28, 4.890937612370273194E-29 ) ) ;
#166 = SECURITY_CLASSIFICATION ( '', '', #142 ) ;
#167 = DATE_AND_TIME ( #246, #134 ) ;
#168 = CC_DESIGN_DATE_AND_TIME_ASSIGNMENT ( #289, #18, ( #19 ) ) ;
#169 = APPROVAL_ROLE ( '' ) ;
#170 = LOCAL_TIME ( 18, 49, 53.00000000000000000, #171 ) ;
#171 = COORDINATED_UNIVERSAL_TIME_OFFSET ( 10, 0, .AHEAD. ) ;
#172 =( REPRESENTATION_RELATIONSHIP ('NONE','NONE', #217, #229 ) REPRESENTATION_RELATIONSHIP_WITH_TRANSFORMATION ( #90 )SHAPE_REPRESENTATION_RELATIONSHIP( ) );
#173 = APPROVAL ( #23, 'Coincident' ) ;
#174 = PERSON_AND_ORGANIZATION ( #18446744073709551615, #18446744073709551615 ) ;
#175 = APPROVAL_ROLE ( '' ) ;
#176 = APPLICATION_CONTEXT ( 'configuration controlled 3d designs of mechanical parts and assemblies' ) ;
#177 = PERSON_AND_ORGANIZATION ( #18446744073709551615, #18446744073709551615 ) ;
#178 = COORDINATED_UNIVERSAL_TIME_OFFSET ( 10, 0, .AHEAD. ) ;
#179 = CC_DESIGN_SECURITY_CLASSIFICATION ( #51, ( #236 ) ) ;
#180 = APPLICATION_PROTOCOL_DEFINITION ( 'international standard', 'config_control_design', 1994, #147 ) ;
#181 = PROPERTY_DEFINITION_REPRESENTATION ( #368, #188 ) ;
#182 = CC_DESIGN_PERSON_AND_ORGANIZATION_ASSIGNMENT ( #7, #53, ( #66 ) ) ;
#183 = APPROVAL_STATUS ( 'not_yet_approved' ) ;
#184 = APPROVAL_PERSON_ORGANIZATION ( #192, #104, #349 ) ;
#185 = LOCAL_TIME ( 18, 49, 53.00000000000000000, #30 ) ;
#186 = DATE_AND_TIME ( #284, #117 ) ;
#187 = PRODUCT ( '6461082896.step', '6461082896.step', '', ( #1 ) ) ;
#188 = SHAPE_REPRESENTATION ( '6461082896.step', ( #219 ), #39 ) ;
#189 = PERSON_AND_ORGANIZATION_ROLE ( 'creator' ) ;
#190 = APPLIED_DOCUMENT_REFERENCE ( #9,'',( #19) ) ;
#191 =( REPRESENTATION_RELATIONSHIP ('NONE','NONE', #217, #188 ) REPRESENTATION_RELATIONSHIP_WITH_TRANSFORMATION ( #112 )SHAPE_REPRESENTATION_RELATIONSHIP( ) );
#192 = PERSON_AND_ORGANIZATION ( #18446744073709551615, #18446744073709551615 ) ;
#193 = CC_DESIGN_APPROVAL ( #173, ( #259 ) ) ;
#194 = CC_DESIGN_APPROVAL ( #65, ( #16 ) ) ;
#195 = UNCERTAINTY_MEASURE_WITH_UNIT (LENGTH_MEASURE( 1.000000000000000082E-05 ), #105, 'distance_accuracy_value', 'NONE');
#196 = COORDINATED_UNIVERSAL_TIME_OFFSET ( 10, 0, .AHEAD. ) ;
#197 = MECHANICAL_CONTEXT ( 'NONE', #198, 'mechanical' ) ;
#198 = APPLICATION_CONTEXT ( 'configuration controlled 3d designs of mechanical parts and assemblies' ) ;
#199 = LOCAL_TIME ( 18, 49, 53.00000000000000000, #263 ) ;
#200 = PROPERTY_DEFINITION_REPRESENTATION ( #94, #229 ) ;
#201 = LOCAL_TIME ( 18, 49, 53.00000000000000000, #278 ) ;
#202 = DOCUMENT_TYPE ( 'geometry' ) ;
#203 = PERSON_AND_ORGANIZATION ( #18446744073709551615, #18446744073709551615 ) ;
#204 = DIRECTION ( 'NONE',  ( 1.000000000000000000, 0.000000000000000000, 0.000000000000000000 ) ) ;
#205 = DIRECTION ( 'NONE',  ( 4.890937612370273194E-29, -3.155443620884047222E-30, 0.9999999999999997780 ) ) ;
#206 = DATE_AND_TIME ( #268, #163 ) ;
#207 = CC_DESIGN_APPROVAL ( #367, ( #223 ) ) ;
#208 = PERSON_AND_ORGANIZATION ( #18446744073709551615, #18446744073709551615 ) ;
#209 = APPROVAL_ROLE ( '' ) ;
#210 = DATE_TIME_ROLE ( 'classification_date' ) ;
#211 = APPROVAL_ROLE ( '' ) ;
#212 = CC_DESIGN_PERSON_AND_ORGANIZATION_ASSIGNMENT ( #5, #79, ( #51 ) ) ;
#213 = CONTEXT_DEPENDENT_SHAPE_REPRESENTATION ( #191, #44 ) ;
#214 = LOCAL_TIME ( 18, 49, 53.00000000000000000, #49 ) ;
#215 = DATE_AND_TIME ( #138, #48 ) ;
#216 = DATE_TIME_ROLE ( 'classification_date' ) ;
#217 = SHAPE_REPRESENTATION ( 'R7.step', ( #372, #153, #327, #75 ), #40 ) ;
#218 = COORDINATED_UNIVERSAL_TIME_OFFSET ( 10, 0, .AHEAD. ) ;
#219 = AXIS2_PLACEMENT_3D ( 'NONE', #355, #160, #132 ) ;
#220 = APPROVAL ( #59, 'UNKNOWN' ) ;
#221 = SHAPE_DEFINITION_REPRESENTATION ( #151, #217 ) ;
#222 = PRODUCT ( '6461083056.step', '6461083056.step', '', ( #42 ) ) ;
#223 = SECURITY_CLASSIFICATION ( '', '', #366 ) ;
#224 = PROPERTY_DEFINITION_REPRESENTATION ( #149, #229 ) ;
#225 = CC_DESIGN_PERSON_AND_ORGANIZATION_ASSIGNMENT ( #352, #164, ( #166 ) ) ;
#226 = PERSON_AND_ORGANIZATION ( #18446744073709551615, #18446744073709551615 ) ;
#227 = DATE_AND_TIME ( #258, #154 ) ;
#228 = DIRECTION ( 'NONE',  ( 4.890937612370273194E-29, -3.155443620884047222E-30, 0.9999999999999997780 ) ) ;
#229 = SHAPE_REPRESENTATION ( '6461083056.step', ( #115 ), #133 ) ;
#230 = APPROVAL_PERSON_ORGANIZATION ( #370, #367, #209 ) ;
#231 = CC_DESIGN_PERSON_AND_ORGANIZATION_ASSIGNMENT ( #177, #307, ( #236 ) ) ;
#232 = APPROVAL_ROLE ( '' ) ;
#233 = CC_DESIGN_DATE_AND_TIME_ASSIGNMENT ( #68, #63, ( #166 ) ) ;
#234 = PERSON_AND_ORGANIZATION_ROLE ( 'design_owner' ) ;
#235 = COORDINATED_UNIVERSAL_TIME_OFFSET ( 10, 0, .AHEAD. ) ;
#236 = PRODUCT_DEFINITION_FORMATION_WITH_SPECIFIED_SOURCE ( 'Symmetric', '', #222, .NOT_KNOWN. ) ;
#237 = DATE_TIME_ROLE ( 'classification_date' ) ;
#238 = PERSON_AND_ORGANIZATION ( #18446744073709551615, #18446744073709551615 ) ;
#239 = UNCERTAINTY_MEASURE_WITH_UNIT (LENGTH_MEASURE( 1.000000000000000082E-05 ), #297, 'distance_accuracy_value', 'NONE');
#240 = CC_DESIGN_PERSON_AND_ORGANIZATION_ASSIGNMENT ( #381, #126, ( #285 ) ) ;
#241 = PERSON_AND_ORGANIZATION ( #18446744073709551615, #18446744073709551615 ) ;
#242 = DATE_AND_TIME ( #305, #274 ) ;
#243 = PROPERTY_DEFINITION ('external definition','', #280 ) ;
#244 = APPROVAL ( #255, 'Coincident' ) ;
#245 = PERSON_AND_ORGANIZATION_ROLE ( 'classification_officer' ) ;
#246 = CALENDAR_DATE ( 2026, 22, 6 ) ;
#247 = CC_DESIGN_APPROVAL ( #36, ( #338 ) ) ;
#248 = PERSON_AND_ORGANIZATION_ROLE ( 'classification_officer' ) ;
#249 =( NAMED_UNIT ( * ) SI_UNIT ( $, .STERADIAN. ) SOLID_ANGLE_UNIT ( ) );
#250 = APPROVAL_DATE_TIME ( #95, #244 ) ;
#251 = COORDINATED_UNIVERSAL_TIME_OFFSET ( 10, 0, .AHEAD. ) ;
#252 = APPROVAL ( #144, 'UNKNOWN' ) ;
#253 = APPROVAL_STATUS ( 'not_yet_approved' ) ;
#254 = PRODUCT ( 'R7.step', 'R7.step', '', ( #197 ) ) ;
#255 = APPROVAL_STATUS ( 'not_yet_approved' ) ;
#256 = APPROVAL_PERSON_ORGANIZATION ( #260, #74, #169 ) ;
#257 = COORDINATED_UNIVERSAL_TIME_OFFSET ( 10, 0, .AHEAD. ) ;
#258 = CALENDAR_DATE ( 2026, 22, 6 ) ;
#259 = PRODUCT_DEFINITION ( 'General', '', #66, #360 ) ;
#260 = PERSON_AND_ORGANIZATION ( #18446744073709551615, #18446744073709551615 ) ;
#261 = APPROVAL_PERSON_ORGANIZATION ( #99, #36, #303 ) ;
#262 = CC_DESIGN_APPROVAL ( #244, ( #364 ) ) ;
#263 = COORDINATED_UNIVERSAL_TIME_OFFSET ( 10, 0, .AHEAD. ) ;
#264 = COORDINATED_UNIVERSAL_TIME_OFFSET ( 10, 0, .AHEAD. ) ;
#265 = PERSON_AND_ORGANIZATION ( #18446744073709551615, #18446744073709551615 ) ;
#266 = CC_DESIGN_PERSON_AND_ORGANIZATION_ASSIGNMENT ( #106, #78, ( #259 ) ) ;
#267 = APPLICATION_CONTEXT ( 'configuration controlled 3d designs of mechanical parts and assemblies' ) ;
#268 = CALENDAR_DATE ( 2026, 22, 6 ) ;
#269 =( NAMED_UNIT ( * ) SI_UNIT ( $, .STERADIAN. ) SOLID_ANGLE_UNIT ( ) );
#270 = CC_DESIGN_SECURITY_CLASSIFICATION ( #320, ( #388 ) ) ;
#271 = DATE_AND_TIME ( #277, #170 ) ;
#272 =( NAMED_UNIT ( * ) PLANE_ANGLE_UNIT ( ) SI_UNIT ( $, .RADIAN. ) );
#273 = PERSON ( 'NAUO-PER47', 'UNSPECIFIED', 'UNSPECIFIED', ('UNSPECIFIED'), ('UNSPECIFIED'), ('UNSPECIFIED') ) ;
#274 = LOCAL_TIME ( 18, 49, 53.00000000000000000, #141 ) ;
#275 = SHAPE_DEFINITION_REPRESENTATION ( #97, #229 ) ;
#276 = APPROVAL_DATE_TIME ( #111, #74 ) ;
#277 = CALENDAR_DATE ( 2026, 22, 6 ) ;
#278 = COORDINATED_UNIVERSAL_TIME_OFFSET ( 10, 0, .AHEAD. ) ;
#279 = LOCAL_TIME ( 18, 49, 53.00000000000000000, #257 ) ;
#280 = DOCUMENT_FILE ( '6461082896.step.STEP' , '', '', #351, '' ,$ ) ;
#281 = SECURITY_CLASSIFICATION_LEVEL ( 'unclassified' ) ;
#282 = APPROVAL ( #379, 'UNKNOWN' ) ;
#283 = COORDINATED_UNIVERSAL_TIME_OFFSET ( 10, 0, .AHEAD. ) ;
#284 = CALENDAR_DATE ( 2026, 22, 6 ) ;
#285 = SECURITY_CLASSIFICATION ( '', '', #47 ) ;
#286 = CC_DESIGN_DATE_AND_TIME_ASSIGNMENT ( #71, #103, ( #259 ) ) ;
#287 = PRODUCT_DEFINITION_SHAPE ( 'NONE', 'NONE',  #389 ) ;
#288 = COORDINATED_UNIVERSAL_TIME_OFFSET ( 10, 0, .AHEAD. ) ;
#289 = DATE_AND_TIME ( #319, #279 ) ;
#290 = DATE_TIME_ROLE ( 'classification_date' ) ;
#291 = CARTESIAN_POINT ( 'NONE',  ( 0.000000000000000000, 0.000000000000000000, 0.000000000000000000 ) ) ;
#292 = APPLICATION_PROTOCOL_DEFINITION ( 'international standard', 'config_control_design', 1994, #108 ) ;
#293 = DATE_AND_TIME ( #15, #300 ) ;
#294 =( LENGTH_UNIT ( ) NAMED_UNIT ( * ) SI_UNIT ( .MILLI., .METRE. ) );
#295 = PRODUCT_RELATED_PRODUCT_CATEGORY ( 'detail', '', ( #222 ) ) ;
#296 = DATE_AND_TIME ( #386, #199 ) ;
#297 =( LENGTH_UNIT ( ) NAMED_UNIT ( * ) SI_UNIT ( .MILLI., .METRE. ) );
#298 = APPROVAL_ROLE ( '' ) ;
#299 = EXTERNAL_SOURCE (IDENTIFIER('') ) ;
#300 = LOCAL_TIME ( 18, 49, 53.00000000000000000, #288 ) ;
#301 = CC_DESIGN_PERSON_AND_ORGANIZATION_ASSIGNMENT ( #374, #31, ( #16 ) ) ;
#302 = CALENDAR_DATE ( 2026, 22, 6 ) ;
#303 = APPROVAL_ROLE ( '' ) ;
#304 = APPROVAL_DATE_TIME ( #85, #36 ) ;
#305 = CALENDAR_DATE ( 2026, 22, 6 ) ;
#306 = APPLIED_EXTERNAL_IDENTIFICATION_ASSIGNMENT ( '6461083056.step.STEP' , #10, #299,( #9) ) ;
#307 = PERSON_AND_ORGANIZATION_ROLE ( 'creator' ) ;
#308 = DATE_AND_TIME ( #137, #57 ) ;
#309 = PERSON_AND_ORGANIZATION ( #18446744073709551615, #18446744073709551615 ) ;
#310 = PERSON_AND_ORGANIZATION ( #18446744073709551615, #18446744073709551615 ) ;
#311 = COORDINATED_UNIVERSAL_TIME_OFFSET ( 10, 0, .AHEAD. ) ;
#312 = DOCUMENT_TYPE ( 'geometry' ) ;
#313 = CC_DESIGN_PERSON_AND_ORGANIZATION_ASSIGNMENT ( #118, #337, ( #338 ) ) ;
#314 = APPROVAL_PERSON_ORGANIZATION ( #381, #282, #125 ) ;
#315 = PERSON_AND_ORGANIZATION ( #18446744073709551615, #18446744073709551615 ) ;
#316 = CC_DESIGN_DATE_AND_TIME_ASSIGNMENT ( #167, #290, ( #285 ) ) ;
#317 = PERSON_AND_ORGANIZATION ( #18446744073709551615, #18446744073709551615 ) ;
#318 = CC_DESIGN_DATE_AND_TIME_ASSIGNMENT ( #17, #216, ( #364 ) ) ;
#319 = CALENDAR_DATE ( 2026, 22, 6 ) ;
#320 = SECURITY_CLASSIFICATION ( '', '', #32 ) ;
#321 = EXTERNAL_SOURCE (IDENTIFIER('') ) ;
#322 = APPROVAL_DATE_TIME ( #293, #282 ) ;
#323 = CARTESIAN_POINT ( 'NONE',  ( 4.248993926972999269, 5.350002563477004536, -2.058321952820000078 ) ) ;
#324 = APPLIED_DOCUMENT_REFERENCE ( #127,'',( #338) ) ;
#325 =( NAMED_UNIT ( * ) PLANE_ANGLE_UNIT ( ) SI_UNIT ( $, .RADIAN. ) );
#326 = CC_DESIGN_DATE_AND_TIME_ASSIGNMENT ( #114, #237, ( #51 ) ) ;
#327 = AXIS2_PLACEMENT_3D ( 'NONE', #356, #361, #135 ) ;
#328 = LOCAL_TIME ( 18, 49, 53.00000000000000000, #235 ) ;
#329 = APPROVAL_DATE_TIME ( #227, #220 ) ;
#330 = DESIGN_CONTEXT ( 'detailed design', #267, 'design' ) ;
#331 = APPROVAL_STATUS ( 'not_yet_approved' ) ;
#332 = APPROVAL_PERSON_ORGANIZATION ( #352, #220, #357 ) ;
#333 = OBJECT_ROLE ('mandatory',$ ) ;
#334 = SECURITY_CLASSIFICATION_LEVEL ( 'unclassified' ) ;
#335 = APPROVAL_DATE_TIME ( #242, #65 ) ;
#336 = PERSON_AND_ORGANIZATION_ROLE ( 'design_supplier' ) ;
#337 = PERSON_AND_ORGANIZATION_ROLE ( 'creator' ) ;
#338 = PRODUCT_DEFINITION ( 'General', '', #16, #330 ) ;
#339 = APPROVAL_DATE_TIME ( #2, #252 ) ;
#340 = LOCAL_TIME ( 18, 49, 53.00000000000000000, #130 ) ;
#341 = CALENDAR_DATE ( 2026, 22, 6 ) ;
#342 = APPROVAL_STATUS ( 'not_yet_approved' ) ;
#343 = APPROVAL_DATE_TIME ( #215, #378 ) ;
#344 = APPROVAL ( #331, 'Coincident' ) ;
#345 = APPLICATION_PROTOCOL_DEFINITION ( 'international standard', 'config_control_design', 1994, #176 ) ;
#346 = APPROVAL_PERSON_ORGANIZATION ( #265, #173, #232 ) ;
#347 = LOCAL_TIME ( 18, 49, 53.00000000000000000, #178 ) ;
#348 = CALENDAR_DATE ( 2026, 22, 6 ) ;
#349 = APPROVAL_ROLE ( '' ) ;
#350 = PRODUCT_DEFINITION_SHAPE ( 'NONE', 'NONE',  #338 ) ;
#351 = DOCUMENT_TYPE ( 'geometry' ) ;
#352 = PERSON_AND_ORGANIZATION ( #273, #76 ) ;
#353 = PRODUCT_DEFINITION_SHAPE ( 'NONE', 'NONE',  #390 ) ;
#354 = LOCAL_TIME ( 18, 49, 53.00000000000000000, #371 ) ;
#355 = CARTESIAN_POINT ( 'NONE',  ( 0.000000000000000000, 0.000000000000000000, 0.000000000000000000 ) ) ;
#356 = CARTESIAN_POINT ( 'NONE',  ( 3.748997741670000661, 5.350002563477000983, -2.058321952820000078 ) ) ;
#357 = APPROVAL_ROLE ( '' ) ;
#358 = DIRECTION ( 'NONE',  ( 1.000000000000000222, -1.092455418989176591E-28, 4.890937612370273194E-29 ) ) ;
#359 = LOCAL_TIME ( 18, 49, 53.00000000000000000, #218 ) ;
#360 = DESIGN_CONTEXT ( 'detailed design', #108, 'design' ) ;
#361 = DIRECTION ( 'NONE',  ( 4.890937612370273194E-29, -3.155443620884047222E-30, 0.9999999999999997780 ) ) ;
#362 = COORDINATED_UNIVERSAL_TIME_OFFSET ( 10, 0, .AHEAD. ) ;
#363 = APPLIED_DOCUMENT_REFERENCE ( #280,'',( #338) ) ;
#364 = SECURITY_CLASSIFICATION ( '', '', #281 ) ;
#365 = APPROVAL_STATUS ( 'not_yet_approved' ) ;
#366 = SECURITY_CLASSIFICATION_LEVEL ( 'unclassified' ) ;
#367 = APPROVAL ( #37, 'Coincident' ) ;
#368 = PROPERTY_DEFINITION ('document property','', #280 ) ;
#369 = COORDINATED_UNIVERSAL_TIME_OFFSET ( 10, 0, .AHEAD. ) ;
#370 = PERSON_AND_ORGANIZATION ( #18446744073709551615, #18446744073709551615 ) ;
#371 = COORDINATED_UNIVERSAL_TIME_OFFSET ( 10, 0, .AHEAD. ) ;
#372 = AXIS2_PLACEMENT_3D ( 'NONE', #291, #162, #204 ) ;
#373 = CC_DESIGN_PERSON_AND_ORGANIZATION_ASSIGNMENT ( #315, #375, ( #222 ) ) ;
#374 = PERSON_AND_ORGANIZATION ( #18446744073709551615, #18446744073709551615 ) ;
#375 = PERSON_AND_ORGANIZATION_ROLE ( 'design_owner' ) ;
#376 = APPROVAL_ROLE ( '' ) ;
#377 = CC_DESIGN_APPROVAL ( #74, ( #236 ) ) ;
#378 = APPROVAL ( #365, 'Coincident' ) ;
#379 = APPROVAL_STATUS ( 'not_yet_approved' ) ;
#380 = PERSON_AND_ORGANIZATION_ROLE ( 'design_owner' ) ;
#381 = PERSON_AND_ORGANIZATION ( #385, #102 ) ;
#382 = APPLICATION_PROTOCOL_DEFINITION ( 'international standard', 'config_control_design', 1994, #267 ) ;
#383 = CC_DESIGN_APPROVAL ( #378, ( #51 ) ) ;
#384 = PRODUCT_RELATED_PRODUCT_CATEGORY ( 'detail', '', ( #187 ) ) ;
#385 = PERSON ( 'NAUO-PER48', 'UNSPECIFIED', 'UNSPECIFIED', ('UNSPECIFIED'), ('UNSPECIFIED'), ('UNSPECIFIED') ) ;
#386 = CALENDAR_DATE ( 2026, 22, 6 ) ;
#387 = ORGANIZATION ( 'NAUO-ORG46', 'UNSPECIFIED', 'UNSPECIFIED' ) ;
#388 = NEXT_ASSEMBLY_USAGE_OCCURRENCE ( 'NAUO46', ' ', ' ', #259, #338, $ ) ;
#389 = NEXT_ASSEMBLY_USAGE_OCCURRENCE ( 'NAUO47', ' ', ' ', #259, #19, $ ) ;
#390 = NEXT_ASSEMBLY_USAGE_OCCURRENCE ( 'NAUO48', ' ', ' ', #259, #338, $ ) ;
ENDSEC;
END-ISO-10303-21;
