ISO-10303-21;
HEADER;
FILE_DESCRIPTION (( 'STEP AP203' ),
    '1' );
FILE_NAME ('R8.step.STEP',
    '2026-06-22T08:49:53',
    ( 'localuser' ),
    ( '' ),
    'SwSTEP 2.0',
    'SolidWorks 2025',
    '' );
FILE_SCHEMA (( 'CONFIG_CONTROL_DESIGN' ));
ENDSEC;

DATA;
#1 = CARTESIAN_POINT ( 'NONE',  ( 3.250001007051000812, 6.349987304688001544, -2.058321952819998302 ) ) ;
#2 = DESIGN_CONTEXT ( 'detailed design', #123, 'design' ) ;
#3 = DIRECTION ( 'NONE',  ( 1.000000000000000000, 0.000000000000000000, 0.000000000000000000 ) ) ;
#4 = APPLICATION_CONTEXT ( 'configuration controlled 3d designs of mechanical parts and assemblies' ) ;
#5 = COORDINATED_UNIVERSAL_TIME_OFFSET ( 10, 0, .AHEAD. ) ;
#6 = PERSON_AND_ORGANIZATION ( #18446744073709551615, #18446744073709551615 ) ;
#7 = APPROVAL ( #109, 'Coincident' ) ;
#8 = CC_DESIGN_SECURITY_CLASSIFICATION ( #146, ( #42 ) ) ;
#9 = DOCUMENT_FILE ( '6461083056.step.STEP' , '', '', #106, '' ,$ ) ;
#10 = APPROVAL_ROLE ( '' ) ;
#11 = APPROVAL_ROLE ( '' ) ;
#12 = CALENDAR_DATE ( 2026, 22, 6 ) ;
#13 = APPROVAL ( #68, 'Coincident' ) ;
#14 = PERSON_AND_ORGANIZATION ( #18446744073709551615, #18446744073709551615 ) ;
#15 = OBJECT_ROLE ('mandatory',$ ) ;
#16 = SECURITY_CLASSIFICATION ( '', '', #303 ) ;
#17 = APPROVAL_DATE_TIME ( #279, #77 ) ;
#18 = PERSON_AND_ORGANIZATION_ROLE ( 'creator' ) ;
#19 = LOCAL_TIME ( 18, 49, 53.00000000000000000, #161 ) ;
#20 =( REPRESENTATION_RELATIONSHIP ('NONE','NONE', #288, #153 ) REPRESENTATION_RELATIONSHIP_WITH_TRANSFORMATION ( #367 )SHAPE_REPRESENTATION_RELATIONSHIP( ) );
#21 = DATE_TIME_ROLE ( 'creation_date' ) ;
#22 = PROPERTY_DEFINITION_REPRESENTATION ( #223, #108 ) ;
#23 = COORDINATED_UNIVERSAL_TIME_OFFSET ( 10, 0, .AHEAD. ) ;
#24 = APPROVAL ( #46, 'UNKNOWN' ) ;
#25 = DATE_AND_TIME ( #199, #27 ) ;
#26 = DIRECTION ( 'NONE',  ( 1.000000000000000222, -1.092455418989176591E-28, 4.890937612370273194E-29 ) ) ;
#27 = LOCAL_TIME ( 18, 49, 53.00000000000000000, #353 ) ;
#28 = CALENDAR_DATE ( 2026, 22, 6 ) ;
#29 = CALENDAR_DATE ( 2026, 22, 6 ) ;
#30 =( LENGTH_UNIT ( ) NAMED_UNIT ( * ) SI_UNIT ( .MILLI., .METRE. ) );
#31 = COORDINATED_UNIVERSAL_TIME_OFFSET ( 10, 0, .AHEAD. ) ;
#32 = APPROVAL ( #148, 'Coincident' ) ;
#33 = APPLICATION_PROTOCOL_DEFINITION ( 'international standard', 'config_control_design', 1994, #229 ) ;
#34 = AXIS2_PLACEMENT_3D ( 'NONE', #318, #202, #26 ) ;
#35 = APPROVAL_PERSON_ORGANIZATION ( #302, #83, #275 ) ;
#36 = LOCAL_TIME ( 18, 49, 53.00000000000000000, #78 ) ;
#37 = UNCERTAINTY_MEASURE_WITH_UNIT (LENGTH_MEASURE( 1.000000000000000082E-05 ), #201, 'distance_accuracy_value', 'NONE');
#38 = DATE_TIME_ROLE ( 'classification_date' ) ;
#39 = APPROVAL_ROLE ( '' ) ;
#40 = CONTEXT_DEPENDENT_SHAPE_REPRESENTATION ( #87, #163 ) ;
#41 = DIRECTION ( 'NONE',  ( 0.000000000000000000, 0.000000000000000000, 1.000000000000000000 ) ) ;
#42 = PRODUCT_DEFINITION_FORMATION_WITH_SPECIFIED_SOURCE ( 'Symmetric', '', #194, .NOT_KNOWN. ) ;
#43 = PERSON_AND_ORGANIZATION_ROLE ( 'design_supplier' ) ;
#44 = COORDINATED_UNIVERSAL_TIME_OFFSET ( 10, 0, .AHEAD. ) ;
#45 = APPROVAL ( #268, 'Coincident' ) ;
#46 = APPROVAL_STATUS ( 'not_yet_approved' ) ;
#47 = PERSON_AND_ORGANIZATION ( #18446744073709551615, #18446744073709551615 ) ;
#48 = APPROVAL_PERSON_ORGANIZATION ( #254, #126, #75 ) ;
#49 = CC_DESIGN_SECURITY_CLASSIFICATION ( #203, ( #221 ) ) ;
#50 = APPROVAL ( #259, 'Coincident' ) ;
#51 = APPROVAL_ROLE ( '' ) ;
#52 = PRODUCT_DEFINITION_SHAPE ( 'NONE', 'NONE',  #334 ) ;
#53 = SECURITY_CLASSIFICATION_LEVEL ( 'unclassified' ) ;
#54 = LOCAL_TIME ( 18, 49, 53.00000000000000000, #5 ) ;
#55 =( REPRESENTATION_RELATIONSHIP ('NONE','NONE', #288, #108 ) REPRESENTATION_RELATIONSHIP_WITH_TRANSFORMATION ( #200 )SHAPE_REPRESENTATION_RELATIONSHIP( ) );
#56 = DATE_TIME_ROLE ( 'classification_date' ) ;
#57 = APPROVAL_ROLE ( '' ) ;
#58 = ROLE_ASSOCIATION ( #208, #293 ) ;
#59 =( NAMED_UNIT ( * ) PLANE_ANGLE_UNIT ( ) SI_UNIT ( $, .RADIAN. ) );
#60 = PERSON ( 'NAUO-PER43', 'UNSPECIFIED', 'UNSPECIFIED', ('UNSPECIFIED'), ('UNSPECIFIED'), ('UNSPECIFIED') ) ;
#61 = UNCERTAINTY_MEASURE_WITH_UNIT (LENGTH_MEASURE( 1.000000000000000082E-05 ), #30, 'distance_accuracy_value', 'NONE');
#62 =( NAMED_UNIT ( * ) PLANE_ANGLE_UNIT ( ) SI_UNIT ( $, .RADIAN. ) );
#63 = LOCAL_TIME ( 18, 49, 53.00000000000000000, #105 ) ;
#64 = CC_DESIGN_DATE_AND_TIME_ASSIGNMENT ( #291, #260, ( #256 ) ) ;
#65 = DATE_AND_TIME ( #212, #351 ) ;
#66 = EXTERNAL_SOURCE (IDENTIFIER('') ) ;
#67 = PERSON_AND_ORGANIZATION ( #18446744073709551615, #18446744073709551615 ) ;
#68 = APPROVAL_STATUS ( 'not_yet_approved' ) ;
#69 = PERSON_AND_ORGANIZATION_ROLE ( 'classification_officer' ) ;
#70 = CC_DESIGN_PERSON_AND_ORGANIZATION_ASSIGNMENT ( #264, #175, ( #112 ) ) ;
#71 = COORDINATED_UNIVERSAL_TIME_OFFSET ( 10, 0, .AHEAD. ) ;
#72 = CC_DESIGN_SECURITY_CLASSIFICATION ( #370, ( #336 ) ) ;
#73 = CC_DESIGN_PERSON_AND_ORGANIZATION_ASSIGNMENT ( #350, #227, ( #362 ) ) ;
#74 = PERSON_AND_ORGANIZATION_ROLE ( 'creator' ) ;
#75 = APPROVAL_ROLE ( '' ) ;
#76 = ORGANIZATION ( 'NAUO-ORG45', 'UNSPECIFIED', 'UNSPECIFIED' ) ;
#77 = APPROVAL ( #311, 'Coincident' ) ;
#78 = COORDINATED_UNIVERSAL_TIME_OFFSET ( 10, 0, .AHEAD. ) ;
#79 = PROPERTY_DEFINITION ('document property','', #9 ) ;
#80 = DATE_TIME_ROLE ( 'classification_date' ) ;
#81 = EXTERNAL_SOURCE (IDENTIFIER('') ) ;
#82 = SHAPE_DEFINITION_REPRESENTATION ( #251, #288 ) ;
#83 = APPROVAL ( #335, 'UNKNOWN' ) ;
#84 =( GEOMETRIC_REPRESENTATION_CONTEXT ( 3 ) GLOBAL_UNCERTAINTY_ASSIGNED_CONTEXT ( ( #61 ) ) GLOBAL_UNIT_ASSIGNED_CONTEXT ( ( #30, #356, #137 ) ) REPRESENTATION_CONTEXT ( 'NONE', 'WORKASPACE' ) );
#85 = CC_DESIGN_SECURITY_CLASSIFICATION ( #16, ( #388 ) ) ;
#86 = DIRECTION ( 'NONE',  ( 1.000000000000000000, 0.000000000000000000, 0.000000000000000000 ) ) ;
#87 =( REPRESENTATION_RELATIONSHIP ('NONE','NONE', #288, #108 ) REPRESENTATION_RELATIONSHIP_WITH_TRANSFORMATION ( #135 )SHAPE_REPRESENTATION_RELATIONSHIP( ) );
#88 = PERSON_AND_ORGANIZATION ( #18446744073709551615, #18446744073709551615 ) ;
#89 = CC_DESIGN_PERSON_AND_ORGANIZATION_ASSIGNMENT ( #359, #95, ( #256 ) ) ;
#90 = LOCAL_TIME ( 18, 49, 53.00000000000000000, #320 ) ;
#91 = PERSON_AND_ORGANIZATION ( #18446744073709551615, #18446744073709551615 ) ;
#92 = CALENDAR_DATE ( 2026, 22, 6 ) ;
#93 = IDENTIFICATION_ROLE ( 'external document id and location', $) ;
#94 = CC_DESIGN_PERSON_AND_ORGANIZATION_ASSIGNMENT ( #302, #103, ( #16 ) ) ;
#95 = PERSON_AND_ORGANIZATION_ROLE ( 'creator' ) ;
#96 = AXIS2_PLACEMENT_3D ( 'NONE', #1, #262, #121 ) ;
#97 = PERSON_AND_ORGANIZATION ( #18446744073709551615, #18446744073709551615 ) ;
#98 = AXIS2_PLACEMENT_3D ( 'NONE', #299, #147, #86 ) ;
#99 = COORDINATED_UNIVERSAL_TIME_OFFSET ( 10, 0, .AHEAD. ) ;
#100 = COORDINATED_UNIVERSAL_TIME_OFFSET ( 10, 0, .AHEAD. ) ;
#101 = CALENDAR_DATE ( 2026, 22, 6 ) ;
#102 = CC_DESIGN_DATE_AND_TIME_ASSIGNMENT ( #219, #21, ( #334 ) ) ;
#103 = PERSON_AND_ORGANIZATION_ROLE ( 'classification_officer' ) ;
#104 = LOCAL_TIME ( 18, 49, 53.00000000000000000, #211 ) ;
#105 = COORDINATED_UNIVERSAL_TIME_OFFSET ( 10, 0, .AHEAD. ) ;
#106 = DOCUMENT_TYPE ( 'geometry' ) ;
#107 = DOCUMENT_TYPE ( 'geometry' ) ;
#108 = SHAPE_REPRESENTATION ( '6461082896.step', ( #276 ), #165 ) ;
#109 = APPROVAL_STATUS ( 'not_yet_approved' ) ;
#110 = CONTEXT_DEPENDENT_SHAPE_REPRESENTATION ( #55, #253 ) ;
#111 = CC_DESIGN_PERSON_AND_ORGANIZATION_ASSIGNMENT ( #67, #69, ( #203 ) ) ;
#112 = PRODUCT ( 'R8.step', 'R8.step', '', ( #266 ) ) ;
#113 = PERSON_AND_ORGANIZATION ( #18446744073709551615, #18446744073709551615 ) ;
#114 = APPROVAL_PERSON_ORGANIZATION ( #187, #243, #210 ) ;
#115 = PROPERTY_DEFINITION_REPRESENTATION ( #162, #153 ) ;
#116 = CC_DESIGN_APPROVAL ( #224, ( #362 ) ) ;
#117 = APPROVAL_DATE_TIME ( #385, #50 ) ;
#118 = CC_DESIGN_DATE_AND_TIME_ASSIGNMENT ( #368, #182, ( #16 ) ) ;
#119 =( LENGTH_UNIT ( ) NAMED_UNIT ( * ) SI_UNIT ( .MILLI., .METRE. ) );
#120 = PERSON_AND_ORGANIZATION_ROLE ( 'creator' ) ;
#121 = DIRECTION ( 'NONE',  ( 1.000000000000000222, -1.092455418989176591E-28, 4.890937612370273194E-29 ) ) ;
#122 = APPROVAL_PERSON_ORGANIZATION ( #257, #77, #51 ) ;
#123 = APPLICATION_CONTEXT ( 'configuration controlled 3d designs of mechanical parts and assemblies' ) ;
#124 = COORDINATED_UNIVERSAL_TIME_OFFSET ( 10, 0, .AHEAD. ) ;
#125 = DIRECTION ( 'NONE',  ( 0.000000000000000000, 0.000000000000000000, 1.000000000000000000 ) ) ;
#126 = APPROVAL ( #281, 'Coincident' ) ;
#127 = PERSON_AND_ORGANIZATION ( #18446744073709551615, #18446744073709551615 ) ;
#128 = PERSON_AND_ORGANIZATION ( #18446744073709551615, #18446744073709551615 ) ;
#129 = CARTESIAN_POINT ( 'NONE',  ( 3.749997192354000308, 6.349987304688001544, -2.058321952820000078 ) ) ;
#130 = DATE_TIME_ROLE ( 'creation_date' ) ;
#131 = PERSON_AND_ORGANIZATION ( #18446744073709551615, #18446744073709551615 ) ;
#132 = AXIS2_PLACEMENT_3D ( 'NONE', #386, #41, #246 ) ;
#133 = PERSON_AND_ORGANIZATION_ROLE ( 'classification_officer' ) ;
#134 = APPLIED_EXTERNAL_IDENTIFICATION_ASSIGNMENT ( '6461082896.step.STEP' , #142, #380,( #255) ) ;
#135 = ITEM_DEFINED_TRANSFORMATION ( 'NONE', 'NONE', #96,  #276 ) ;
#136 = CALENDAR_DATE ( 2026, 22, 6 ) ;
#137 =( NAMED_UNIT ( * ) SI_UNIT ( $, .STERADIAN. ) SOLID_ANGLE_UNIT ( ) );
#138 = CC_DESIGN_APPROVAL ( #24, ( #197 ) ) ;
#139 = IDENTIFICATION_ROLE ( 'external document id and location', $) ;
#140 = CC_DESIGN_DATE_AND_TIME_ASSIGNMENT ( #355, #56, ( #362 ) ) ;
#141 = LOCAL_TIME ( 18, 49, 53.00000000000000000, #305 ) ;
#142 = IDENTIFICATION_ROLE ( 'external document id and location', $) ;
#143 = PERSON_AND_ORGANIZATION ( #18446744073709551615, #18446744073709551615 ) ;
#144 = APPROVAL_STATUS ( 'not_yet_approved' ) ;
#145 = CC_DESIGN_PERSON_AND_ORGANIZATION_ASSIGNMENT ( #88, #120, ( #221 ) ) ;
#146 = SECURITY_CLASSIFICATION ( '', '', #308 ) ;
#147 = DIRECTION ( 'NONE',  ( 0.000000000000000000, 0.000000000000000000, 1.000000000000000000 ) ) ;
#148 = APPROVAL_STATUS ( 'not_yet_approved' ) ;
#149 = DATE_AND_TIME ( #158, #357 ) ;
#150 = PERSON_AND_ORGANIZATION_ROLE ( 'design_supplier' ) ;
#151 = LOCAL_TIME ( 18, 49, 53.00000000000000000, #124 ) ;
#152 = ROLE_ASSOCIATION ( #267, #306 ) ;
#153 = SHAPE_REPRESENTATION ( '6461083056.step', ( #98 ), #269 ) ;
#154 = ORGANIZATION ( 'NAUO-ORG44', 'UNSPECIFIED', 'UNSPECIFIED' ) ;
#155 = APPROVAL_DATE_TIME ( #190, #45 ) ;
#156 = COORDINATED_UNIVERSAL_TIME_OFFSET ( 10, 0, .AHEAD. ) ;
#157 = CC_DESIGN_DATE_AND_TIME_ASSIGNMENT ( #331, #130, ( #384 ) ) ;
#158 = CALENDAR_DATE ( 2026, 22, 6 ) ;
#159 = APPROVAL_PERSON_ORGANIZATION ( #278, #13, #11 ) ;
#160 = PERSON_AND_ORGANIZATION ( #18446744073709551615, #18446744073709551615 ) ;
#161 = COORDINATED_UNIVERSAL_TIME_OFFSET ( 10, 0, .AHEAD. ) ;
#162 = PROPERTY_DEFINITION ('external definition','', #9 ) ;
#163 = PRODUCT_DEFINITION_SHAPE ( 'NONE', 'NONE',  #388 ) ;
#164 = PRODUCT_RELATED_PRODUCT_CATEGORY ( 'detail', '', ( #112 ) ) ;
#165 =( GEOMETRIC_REPRESENTATION_CONTEXT ( 3 ) GLOBAL_UNCERTAINTY_ASSIGNED_CONTEXT ( ( #319 ) ) GLOBAL_UNIT_ASSIGNED_CONTEXT ( ( #119, #59, #205 ) ) REPRESENTATION_CONTEXT ( 'NONE', 'WORKASPACE' ) );
#166 = LOCAL_TIME ( 18, 49, 53.00000000000000000, #342 ) ;
#167 = APPROVAL_DATE_TIME ( #25, #224 ) ;
#168 = CONTEXT_DEPENDENT_SHAPE_REPRESENTATION ( #20, #280 ) ;
#169 = PRODUCT_RELATED_PRODUCT_CATEGORY ( 'detail', '', ( #194 ) ) ;
#170 = COORDINATED_UNIVERSAL_TIME_OFFSET ( 10, 0, .AHEAD. ) ;
#171 = LOCAL_TIME ( 18, 49, 53.00000000000000000, #170 ) ;
#172 = PERSON_AND_ORGANIZATION_ROLE ( 'classification_officer' ) ;
#173 = CC_DESIGN_APPROVAL ( #13, ( #146 ) ) ;
#174 = CC_DESIGN_PERSON_AND_ORGANIZATION_ASSIGNMENT ( #113, #301, ( #384 ) ) ;
#175 = PERSON_AND_ORGANIZATION_ROLE ( 'design_owner' ) ;
#176 = PERSON_AND_ORGANIZATION_ROLE ( 'creator' ) ;
#177 = LOCAL_TIME ( 18, 49, 53.00000000000000000, #99 ) ;
#178 = APPROVAL_DATE_TIME ( #65, #83 ) ;
#179 = APPLICATION_CONTEXT ( 'configuration controlled 3d designs of mechanical parts and assemblies' ) ;
#180 = CC_DESIGN_PERSON_AND_ORGANIZATION_ASSIGNMENT ( #373, #193, ( #226 ) ) ;
#181 = APPROVAL_DATE_TIME ( #184, #32 ) ;
#182 = DATE_TIME_ROLE ( 'classification_date' ) ;
#183 = DOCUMENT_TYPE ( 'geometry' ) ;
#184 = DATE_AND_TIME ( #92, #216 ) ;
#185 = SHAPE_DEFINITION_REPRESENTATION ( #347, #108 ) ;
#186 = APPROVAL_PERSON_ORGANIZATION ( #131, #32, #10 ) ;
#187 = PERSON_AND_ORGANIZATION ( #18446744073709551615, #18446744073709551615 ) ;
#188 = SECURITY_CLASSIFICATION_LEVEL ( 'unclassified' ) ;
#189 = CC_DESIGN_PERSON_AND_ORGANIZATION_ASSIGNMENT ( #160, #18, ( #334 ) ) ;
#190 = DATE_AND_TIME ( #101, #104 ) ;
#191 = LOCAL_TIME ( 18, 49, 53.00000000000000000, #31 ) ;
#192 = CC_DESIGN_SECURITY_CLASSIFICATION ( #197, ( #389 ) ) ;
#193 = PERSON_AND_ORGANIZATION_ROLE ( 'design_owner' ) ;
#194 = PRODUCT ( '6461082896.step', '6461082896.step', '', ( #273 ) ) ;
#195 = CALENDAR_DATE ( 2026, 22, 6 ) ;
#196 = CALENDAR_DATE ( 2026, 22, 6 ) ;
#197 = SECURITY_CLASSIFICATION ( '', '', #188 ) ;
#198 = ORGANIZATION ( 'NAUO-ORG43', 'UNSPECIFIED', 'UNSPECIFIED' ) ;
#199 = CALENDAR_DATE ( 2026, 22, 6 ) ;
#200 = ITEM_DEFINED_TRANSFORMATION ( 'NONE', 'NONE', #34,  #276 ) ;
#201 =( LENGTH_UNIT ( ) NAMED_UNIT ( * ) SI_UNIT ( .MILLI., .METRE. ) );
#202 = DIRECTION ( 'NONE',  ( 4.890937612370273194E-29, -3.155443620884047222E-30, 0.9999999999999997780 ) ) ;
#203 = SECURITY_CLASSIFICATION ( '', '', #327 ) ;
#204 = PERSON_AND_ORGANIZATION_ROLE ( 'design_supplier' ) ;
#205 =( NAMED_UNIT ( * ) SI_UNIT ( $, .STERADIAN. ) SOLID_ANGLE_UNIT ( ) );
#206 = DATE_AND_TIME ( #233, #191 ) ;
#207 = CALENDAR_DATE ( 2026, 22, 6 ) ;
#208 = OBJECT_ROLE ('mandatory',$ ) ;
#209 = APPLIED_EXTERNAL_IDENTIFICATION_ASSIGNMENT ( '6461083056.step.STEP' , #139, #81,( #9) ) ;
#210 = APPROVAL_ROLE ( '' ) ;
#211 = COORDINATED_UNIVERSAL_TIME_OFFSET ( 10, 0, .AHEAD. ) ;
#212 = CALENDAR_DATE ( 2026, 22, 6 ) ;
#213 = DATE_AND_TIME ( #360, #310 ) ;
#214 = CC_DESIGN_DATE_AND_TIME_ASSIGNMENT ( #149, #274, ( #146 ) ) ;
#215 = DOCUMENT_FILE ( '6461082896.step.STEP' , '', '', #107, '' ,$ ) ;
#216 = LOCAL_TIME ( 18, 49, 53.00000000000000000, #238 ) ;
#217 = CALENDAR_DATE ( 2026, 22, 6 ) ;
#218 = APPLICATION_PROTOCOL_DEFINITION ( 'international standard', 'config_control_design', 1994, #234 ) ;
#219 = DATE_AND_TIME ( #282, #19 ) ;
#220 = DATE_AND_TIME ( #196, #166 ) ;
#221 = PRODUCT_DEFINITION_FORMATION_WITH_SPECIFIED_SOURCE ( 'Symmetric', '', #112, .NOT_KNOWN. ) ;
#222 = CC_DESIGN_APPROVAL ( #83, ( #16 ) ) ;
#223 = PROPERTY_DEFINITION ('external definition','', #255 ) ;
#224 = APPROVAL ( #144, 'UNKNOWN' ) ;
#225 = APPLICATION_PROTOCOL_DEFINITION ( 'international standard', 'config_control_design', 1994, #179 ) ;
#226 = PRODUCT ( '6461083056.step', '6461083056.step', '', ( #247 ) ) ;
#227 = PERSON_AND_ORGANIZATION_ROLE ( 'classification_officer' ) ;
#228 = LOCAL_TIME ( 18, 49, 53.00000000000000000, #156 ) ;
#229 = APPLICATION_CONTEXT ( 'configuration controlled 3d designs of mechanical parts and assemblies' ) ;
#230 = APPROVAL_ROLE ( '' ) ;
#231 = APPROVAL_PERSON_ORGANIZATION ( #248, #7, #375 ) ;
#232 = CC_DESIGN_PERSON_AND_ORGANIZATION_ASSIGNMENT ( #143, #150, ( #336 ) ) ;
#233 = CALENDAR_DATE ( 2026, 22, 6 ) ;
#234 = APPLICATION_CONTEXT ( 'configuration controlled 3d designs of mechanical parts and assemblies' ) ;
#235 = APPROVAL_STATUS ( 'not_yet_approved' ) ;
#236 = COORDINATED_UNIVERSAL_TIME_OFFSET ( 10, 0, .AHEAD. ) ;
#237 = LOCAL_TIME ( 18, 49, 53.00000000000000000, #71 ) ;
#238 = COORDINATED_UNIVERSAL_TIME_OFFSET ( 10, 0, .AHEAD. ) ;
#239 = APPROVAL_DATE_TIME ( #213, #13 ) ;
#240 = SECURITY_CLASSIFICATION_LEVEL ( 'unclassified' ) ;
#241 = CALENDAR_DATE ( 2026, 22, 6 ) ;
#242 = PROPERTY_DEFINITION ('document property','', #215 ) ;
#243 = APPROVAL ( #340, 'Coincident' ) ;
#244 = CALENDAR_DATE ( 2026, 22, 6 ) ;
#245 = CC_DESIGN_APPROVAL ( #126, ( #334 ) ) ;
#246 = DIRECTION ( 'NONE',  ( 1.000000000000000000, 0.000000000000000000, 0.000000000000000000 ) ) ;
#247 = MECHANICAL_CONTEXT ( 'NONE', #179, 'mechanical' ) ;
#248 = PERSON_AND_ORGANIZATION ( #18446744073709551615, #18446744073709551615 ) ;
#249 = CC_DESIGN_PERSON_AND_ORGANIZATION_ASSIGNMENT ( #6, #43, ( #42 ) ) ;
#250 = CALENDAR_DATE ( 2026, 22, 6 ) ;
#251 = PRODUCT_DEFINITION_SHAPE ( 'NONE', 'NONE',  #256 ) ;
#252 = CALENDAR_DATE ( 2026, 22, 6 ) ;
#253 = PRODUCT_DEFINITION_SHAPE ( 'NONE', 'NONE',  #390 ) ;
#254 = PERSON_AND_ORGANIZATION ( #18446744073709551615, #18446744073709551615 ) ;
#255 = DOCUMENT_FILE ( '6461082896.step.STEP' , '', '', #183, '' ,$ ) ;
#256 = PRODUCT_DEFINITION ( 'General', '', #221, #2 ) ;
#257 = PERSON_AND_ORGANIZATION ( #18446744073709551615, #18446744073709551615 ) ;
#258 = APPROVAL_ROLE ( '' ) ;
#259 = APPROVAL_STATUS ( 'not_yet_approved' ) ;
#260 = DATE_TIME_ROLE ( 'creation_date' ) ;
#261 = APPROVAL ( #235, 'Coincident' ) ;
#262 = DIRECTION ( 'NONE',  ( 4.890937612370273194E-29, -3.155443620884047222E-30, 0.9999999999999997780 ) ) ;
#263 = PERSON_AND_ORGANIZATION ( #18446744073709551615, #18446744073709551615 ) ;
#264 = PERSON_AND_ORGANIZATION ( #18446744073709551615, #18446744073709551615 ) ;
#265 = APPROVAL_PERSON_ORGANIZATION ( #97, #45, #39 ) ;
#266 = MECHANICAL_CONTEXT ( 'NONE', #229, 'mechanical' ) ;
#267 = OBJECT_ROLE ('mandatory',$ ) ;
#268 = APPROVAL_STATUS ( 'not_yet_approved' ) ;
#269 =( GEOMETRIC_REPRESENTATION_CONTEXT ( 3 ) GLOBAL_UNCERTAINTY_ASSIGNED_CONTEXT ( ( #37 ) ) GLOBAL_UNIT_ASSIGNED_CONTEXT ( ( #201, #62, #325 ) ) REPRESENTATION_CONTEXT ( 'NONE', 'WORKASPACE' ) );
#270 = PERSON ( 'NAUO-PER44', 'UNSPECIFIED', 'UNSPECIFIED', ('UNSPECIFIED'), ('UNSPECIFIED'), ('UNSPECIFIED') ) ;
#271 = PROPERTY_DEFINITION_REPRESENTATION ( #242, #108 ) ;
#272 = PERSON_AND_ORGANIZATION_ROLE ( 'design_owner' ) ;
#273 = MECHANICAL_CONTEXT ( 'NONE', #4, 'mechanical' ) ;
#274 = DATE_TIME_ROLE ( 'classification_date' ) ;
#275 = APPROVAL_ROLE ( '' ) ;
#276 = AXIS2_PLACEMENT_3D ( 'NONE', #290, #125, #3 ) ;
#277 = CC_DESIGN_SECURITY_CLASSIFICATION ( #362, ( #390 ) ) ;
#278 = PERSON_AND_ORGANIZATION ( #18446744073709551615, #18446744073709551615 ) ;
#279 = DATE_AND_TIME ( #252, #344 ) ;
#280 = PRODUCT_DEFINITION_SHAPE ( 'NONE', 'NONE',  #389 ) ;
#281 = APPROVAL_STATUS ( 'not_yet_approved' ) ;
#282 = CALENDAR_DATE ( 2026, 22, 6 ) ;
#283 = CC_DESIGN_APPROVAL ( #45, ( #42 ) ) ;
#284 = CC_DESIGN_PERSON_AND_ORGANIZATION_ASSIGNMENT ( #47, #133, ( #146 ) ) ;
#285 = PROPERTY_DEFINITION ('document property','', #255 ) ;
#286 = APPLIED_DOCUMENT_REFERENCE ( #255,'',( #384) ) ;
#287 = DATE_TIME_ROLE ( 'classification_date' ) ;
#288 = SHAPE_REPRESENTATION ( 'R8.step', ( #132, #96, #369, #34 ), #84 ) ;
#289 = ROLE_ASSOCIATION ( #15, #286 ) ;
#290 = CARTESIAN_POINT ( 'NONE',  ( 0.000000000000000000, 0.000000000000000000, 0.000000000000000000 ) ) ;
#291 = DATE_AND_TIME ( #207, #171 ) ;
#292 = APPROVAL_PERSON_ORGANIZATION ( #350, #224, #317 ) ;
#293 = APPLIED_DOCUMENT_REFERENCE ( #9,'',( #334) ) ;
#294 = CC_DESIGN_PERSON_AND_ORGANIZATION_ASSIGNMENT ( #14, #74, ( #42 ) ) ;
#295 = APPROVAL_DATE_TIME ( #206, #261 ) ;
#296 = APPLICATION_PROTOCOL_DEFINITION ( 'international standard', 'config_control_design', 1994, #123 ) ;
#297 = LOCAL_TIME ( 18, 49, 53.00000000000000000, #44 ) ;
#298 = CC_DESIGN_PERSON_AND_ORGANIZATION_ASSIGNMENT ( #127, #272, ( #194 ) ) ;
#299 = CARTESIAN_POINT ( 'NONE',  ( 0.000000000000000000, 0.000000000000000000, 0.000000000000000000 ) ) ;
#300 = CALENDAR_DATE ( 2026, 22, 6 ) ;
#301 = PERSON_AND_ORGANIZATION_ROLE ( 'creator' ) ;
#302 = PERSON_AND_ORGANIZATION ( #60, #198 ) ;
#303 = SECURITY_CLASSIFICATION_LEVEL ( 'unclassified' ) ;
#304 = APPLICATION_PROTOCOL_DEFINITION ( 'international standard', 'config_control_design', 1994, #4 ) ;
#305 = COORDINATED_UNIVERSAL_TIME_OFFSET ( 10, 0, .AHEAD. ) ;
#306 = APPLIED_DOCUMENT_REFERENCE ( #215,'',( #384) ) ;
#307 = DATE_AND_TIME ( #12, #297 ) ;
#308 = SECURITY_CLASSIFICATION_LEVEL ( 'unclassified' ) ;
#309 = CC_DESIGN_PERSON_AND_ORGANIZATION_ASSIGNMENT ( #330, #363, ( #370 ) ) ;
#310 = LOCAL_TIME ( 18, 49, 53.00000000000000000, #333 ) ;
#311 = APPROVAL_STATUS ( 'not_yet_approved' ) ;
#312 = DATE_AND_TIME ( #195, #36 ) ;
#313 = CC_DESIGN_DATE_AND_TIME_ASSIGNMENT ( #332, #38, ( #370 ) ) ;
#314 = PROPERTY_DEFINITION_REPRESENTATION ( #285, #108 ) ;
#315 = APPROVAL_DATE_TIME ( #312, #7 ) ;
#316 = CC_DESIGN_APPROVAL ( #32, ( #370 ) ) ;
#317 = APPROVAL_ROLE ( '' ) ;
#318 = CARTESIAN_POINT ( 'NONE',  ( 4.249997192353999864, 6.349987304688001544, -2.058321952820000078 ) ) ;
#319 = UNCERTAINTY_MEASURE_WITH_UNIT (LENGTH_MEASURE( 1.000000000000000082E-05 ), #119, 'distance_accuracy_value', 'NONE');
#320 = COORDINATED_UNIVERSAL_TIME_OFFSET ( 10, 0, .AHEAD. ) ;
#321 = CC_DESIGN_PERSON_AND_ORGANIZATION_ASSIGNMENT ( #348, #172, ( #197 ) ) ;
#322 = APPROVAL_PERSON_ORGANIZATION ( #263, #50, #258 ) ;
#323 = CC_DESIGN_APPROVAL ( #77, ( #203 ) ) ;
#324 = APPROVAL_DATE_TIME ( #338, #24 ) ;
#325 =( NAMED_UNIT ( * ) SI_UNIT ( $, .STERADIAN. ) SOLID_ANGLE_UNIT ( ) );
#326 = PERSON ( 'NAUO-PER45', 'UNSPECIFIED', 'UNSPECIFIED', ('UNSPECIFIED'), ('UNSPECIFIED'), ('UNSPECIFIED') ) ;
#327 = SECURITY_CLASSIFICATION_LEVEL ( 'unclassified' ) ;
#328 = DESIGN_CONTEXT ( 'detailed design', #374, 'design' ) ;
#329 = APPLIED_EXTERNAL_IDENTIFICATION_ASSIGNMENT ( '6461082896.step.STEP' , #93, #66,( #215) ) ;
#330 = PERSON_AND_ORGANIZATION ( #18446744073709551615, #18446744073709551615 ) ;
#331 = DATE_AND_TIME ( #241, #141 ) ;
#332 = DATE_AND_TIME ( #300, #177 ) ;
#333 = COORDINATED_UNIVERSAL_TIME_OFFSET ( 10, 0, .AHEAD. ) ;
#334 = PRODUCT_DEFINITION ( 'General', '', #336, #328 ) ;
#335 = APPROVAL_STATUS ( 'not_yet_approved' ) ;
#336 = PRODUCT_DEFINITION_FORMATION_WITH_SPECIFIED_SOURCE ( 'Symmetric', '', #226, .NOT_KNOWN. ) ;
#337 = PROPERTY_DEFINITION_REPRESENTATION ( #365, #108 ) ;
#338 = DATE_AND_TIME ( #217, #63 ) ;
#339 = PERSON_AND_ORGANIZATION ( #18446744073709551615, #18446744073709551615 ) ;
#340 = APPROVAL_STATUS ( 'not_yet_approved' ) ;
#341 = CC_DESIGN_DATE_AND_TIME_ASSIGNMENT ( #372, #80, ( #197 ) ) ;
#342 = COORDINATED_UNIVERSAL_TIME_OFFSET ( 10, 0, .AHEAD. ) ;
#343 = CC_DESIGN_APPROVAL ( #261, ( #256 ) ) ;
#344 = LOCAL_TIME ( 18, 49, 53.00000000000000000, #23 ) ;
#345 = APPROVAL_DATE_TIME ( #220, #126 ) ;
#346 = APPLICATION_PROTOCOL_DEFINITION ( 'international standard', 'config_control_design', 1994, #374 ) ;
#347 = PRODUCT_DEFINITION_SHAPE ( 'NONE', 'NONE',  #384 ) ;
#348 = PERSON_AND_ORGANIZATION ( #270, #154 ) ;
#349 = CC_DESIGN_PERSON_AND_ORGANIZATION_ASSIGNMENT ( #91, #204, ( #221 ) ) ;
#350 = PERSON_AND_ORGANIZATION ( #326, #76 ) ;
#351 = LOCAL_TIME ( 18, 49, 53.00000000000000000, #100 ) ;
#352 = DIRECTION ( 'NONE',  ( 1.000000000000000222, -1.092455418989176591E-28, 4.890937612370273194E-29 ) ) ;
#353 = COORDINATED_UNIVERSAL_TIME_OFFSET ( 10, 0, .AHEAD. ) ;
#354 = DIRECTION ( 'NONE',  ( 4.890937612370273194E-29, -3.155443620884047222E-30, 0.9999999999999997780 ) ) ;
#355 = DATE_AND_TIME ( #29, #90 ) ;
#356 =( NAMED_UNIT ( * ) PLANE_ANGLE_UNIT ( ) SI_UNIT ( $, .RADIAN. ) );
#357 = LOCAL_TIME ( 18, 49, 53.00000000000000000, #236 ) ;
#358 = DESIGN_CONTEXT ( 'detailed design', #234, 'design' ) ;
#359 = PERSON_AND_ORGANIZATION ( #18446744073709551615, #18446744073709551615 ) ;
#360 = CALENDAR_DATE ( 2026, 22, 6 ) ;
#361 = APPROVAL_PERSON_ORGANIZATION ( #128, #261, #57 ) ;
#362 = SECURITY_CLASSIFICATION ( '', '', #53 ) ;
#363 = PERSON_AND_ORGANIZATION_ROLE ( 'classification_officer' ) ;
#364 = CC_DESIGN_PERSON_AND_ORGANIZATION_ASSIGNMENT ( #339, #176, ( #336 ) ) ;
#365 = PROPERTY_DEFINITION ('external definition','', #215 ) ;
#366 = SHAPE_DEFINITION_REPRESENTATION ( #52, #153 ) ;
#367 = ITEM_DEFINED_TRANSFORMATION ( 'NONE', 'NONE', #369,  #98 ) ;
#368 = DATE_AND_TIME ( #244, #237 ) ;
#369 = AXIS2_PLACEMENT_3D ( 'NONE', #129, #354, #352 ) ;
#370 = SECURITY_CLASSIFICATION ( '', '', #240 ) ;
#371 = PRODUCT_RELATED_PRODUCT_CATEGORY ( 'detail', '', ( #226 ) ) ;
#372 = DATE_AND_TIME ( #136, #228 ) ;
#373 = PERSON_AND_ORGANIZATION ( #18446744073709551615, #18446744073709551615 ) ;
#374 = APPLICATION_CONTEXT ( 'configuration controlled 3d designs of mechanical parts and assemblies' ) ;
#375 = APPROVAL_ROLE ( '' ) ;
#376 = CC_DESIGN_APPROVAL ( #50, ( #221 ) ) ;
#377 = CC_DESIGN_APPROVAL ( #243, ( #384 ) ) ;
#378 = CC_DESIGN_DATE_AND_TIME_ASSIGNMENT ( #307, #287, ( #203 ) ) ;
#379 = DATE_AND_TIME ( #250, #54 ) ;
#380 = EXTERNAL_SOURCE (IDENTIFIER('') ) ;
#381 = PROPERTY_DEFINITION_REPRESENTATION ( #79, #153 ) ;
#382 = APPROVAL_DATE_TIME ( #379, #243 ) ;
#383 = APPROVAL_PERSON_ORGANIZATION ( #348, #24, #230 ) ;
#384 = PRODUCT_DEFINITION ( 'General', '', #42, #358 ) ;
#385 = DATE_AND_TIME ( #28, #151 ) ;
#386 = CARTESIAN_POINT ( 'NONE',  ( 0.000000000000000000, 0.000000000000000000, 0.000000000000000000 ) ) ;
#387 = CC_DESIGN_APPROVAL ( #7, ( #336 ) ) ;
#388 = NEXT_ASSEMBLY_USAGE_OCCURRENCE ( 'NAUO43', ' ', ' ', #256, #384, $ ) ;
#389 = NEXT_ASSEMBLY_USAGE_OCCURRENCE ( 'NAUO44', ' ', ' ', #256, #334, $ ) ;
#390 = NEXT_ASSEMBLY_USAGE_OCCURRENCE ( 'NAUO45', ' ', ' ', #256, #384, $ ) ;
ENDSEC;
END-ISO-10303-21;
