ISO-10303-21;
HEADER;
FILE_DESCRIPTION (( 'STEP AP203' ),
    '1' );
FILE_NAME ('R9.step.STEP',
    '2026-06-22T08:49:56',
    ( 'localuser' ),
    ( '' ),
    'SwSTEP 2.0',
    'SolidWorks 2025',
    '' );
FILE_SCHEMA (( 'CONFIG_CONTROL_DESIGN' ));
ENDSEC;

DATA;
#1 = APPROVAL ( #50, 'Coincident' ) ;
#2 = UNCERTAINTY_MEASURE_WITH_UNIT (LENGTH_MEASURE( 1.000000000000000082E-05 ), #312, 'distance_accuracy_value', 'NONE');
#3 = APPROVAL ( #374, 'UNKNOWN' ) ;
#4 = APPLICATION_PROTOCOL_DEFINITION ( 'international standard', 'config_control_design', 1994, #174 ) ;
#5 = PERSON_AND_ORGANIZATION_ROLE ( 'creator' ) ;
#6 = APPLICATION_PROTOCOL_DEFINITION ( 'international standard', 'config_control_design', 1994, #239 ) ;
#7 = CALENDAR_DATE ( 2026, 22, 6 ) ;
#8 = LOCAL_TIME ( 18, 49, 56.00000000000000000, #181 ) ;
#9 = CALENDAR_DATE ( 2026, 22, 6 ) ;
#10 = CC_DESIGN_PERSON_AND_ORGANIZATION_ASSIGNMENT ( #179, #5, ( #231 ) ) ;
#11 = PERSON_AND_ORGANIZATION ( #384, #229 ) ;
#12 = CC_DESIGN_PERSON_AND_ORGANIZATION_ASSIGNMENT ( #191, #46, ( #325 ) ) ;
#13 = APPROVAL_ROLE ( '' ) ;
#14 = DATE_AND_TIME ( #252, #33 ) ;
#15 = SECURITY_CLASSIFICATION ( '', '', #313 ) ;
#16 = IDENTIFICATION_ROLE ( 'external document id and location', $) ;
#17 = PERSON_AND_ORGANIZATION_ROLE ( 'creator' ) ;
#18 = DATE_AND_TIME ( #105, #203 ) ;
#19 = CARTESIAN_POINT ( 'NONE',  ( 0.000000000000000000, 0.000000000000000000, 0.000000000000000000 ) ) ;
#20 = PERSON_AND_ORGANIZATION_ROLE ( 'classification_officer' ) ;
#21 = PERSON_AND_ORGANIZATION ( #18446744073709551615, #18446744073709551615 ) ;
#22 = PERSON_AND_ORGANIZATION_ROLE ( 'design_supplier' ) ;
#23 = APPLICATION_PROTOCOL_DEFINITION ( 'international standard', 'config_control_design', 1994, #153 ) ;
#24 =( LENGTH_UNIT ( ) NAMED_UNIT ( * ) SI_UNIT ( .MILLI., .METRE. ) );
#25 = CC_DESIGN_APPROVAL ( #1, ( #149 ) ) ;
#26 = LOCAL_TIME ( 18, 49, 56.00000000000000000, #364 ) ;
#27 = CC_DESIGN_SECURITY_CLASSIFICATION ( #137, ( #390 ) ) ;
#28 = COORDINATED_UNIVERSAL_TIME_OFFSET ( 10, 0, .AHEAD. ) ;
#29 = DESIGN_CONTEXT ( 'detailed design', #174, 'design' ) ;
#30 = APPLICATION_PROTOCOL_DEFINITION ( 'international standard', 'config_control_design', 1994, #260 ) ;
#31 = CC_DESIGN_PERSON_AND_ORGANIZATION_ASSIGNMENT ( #333, #272, ( #345 ) ) ;
#32 = COORDINATED_UNIVERSAL_TIME_OFFSET ( 10, 0, .AHEAD. ) ;
#33 = LOCAL_TIME ( 18, 49, 56.00000000000000000, #166 ) ;
#34 = COORDINATED_UNIVERSAL_TIME_OFFSET ( 10, 0, .AHEAD. ) ;
#35 = DOCUMENT_TYPE ( 'geometry' ) ;
#36 = PERSON_AND_ORGANIZATION ( #18446744073709551615, #18446744073709551615 ) ;
#37 = CC_DESIGN_PERSON_AND_ORGANIZATION_ASSIGNMENT ( #114, #211, ( #76 ) ) ;
#38 = PERSON_AND_ORGANIZATION ( #18446744073709551615, #18446744073709551615 ) ;
#39 = APPROVAL_PERSON_ORGANIZATION ( #94, #79, #281 ) ;
#40 = PERSON_AND_ORGANIZATION_ROLE ( 'classification_officer' ) ;
#41 =( NAMED_UNIT ( * ) SI_UNIT ( $, .STERADIAN. ) SOLID_ANGLE_UNIT ( ) );
#42 = SHAPE_DEFINITION_REPRESENTATION ( #225, #346 ) ;
#43 = SECURITY_CLASSIFICATION_LEVEL ( 'unclassified' ) ;
#44 = CC_DESIGN_PERSON_AND_ORGANIZATION_ASSIGNMENT ( #77, #40, ( #311 ) ) ;
#45 = PRODUCT_DEFINITION_SHAPE ( 'NONE', 'NONE',  #388 ) ;
#46 = PERSON_AND_ORGANIZATION_ROLE ( 'creator' ) ;
#47 = CC_DESIGN_APPROVAL ( #213, ( #325 ) ) ;
#48 = CALENDAR_DATE ( 2026, 22, 6 ) ;
#49 = CC_DESIGN_DATE_AND_TIME_ASSIGNMENT ( #362, #96, ( #231 ) ) ;
#50 = APPROVAL_STATUS ( 'not_yet_approved' ) ;
#51 = SECURITY_CLASSIFICATION_LEVEL ( 'unclassified' ) ;
#52 =( NAMED_UNIT ( * ) SI_UNIT ( $, .STERADIAN. ) SOLID_ANGLE_UNIT ( ) );
#53 = LOCAL_TIME ( 18, 49, 56.00000000000000000, #337 ) ;
#54 = DATE_AND_TIME ( #112, #165 ) ;
#55 = CALENDAR_DATE ( 2026, 22, 6 ) ;
#56 = CONTEXT_DEPENDENT_SHAPE_REPRESENTATION ( #217, #289 ) ;
#57 = DOCUMENT_TYPE ( 'geometry' ) ;
#58 = PERSON_AND_ORGANIZATION ( #18446744073709551615, #18446744073709551615 ) ;
#59 = APPROVAL_PERSON_ORGANIZATION ( #64, #210, #291 ) ;
#60 = APPLIED_EXTERNAL_IDENTIFICATION_ASSIGNMENT ( '6461083056.step.STEP' , #299, #341,( #120) ) ;
#61 = PERSON_AND_ORGANIZATION_ROLE ( 'creator' ) ;
#62 = APPROVAL_ROLE ( '' ) ;
#63 = CC_DESIGN_PERSON_AND_ORGANIZATION_ASSIGNMENT ( #177, #301, ( #238 ) ) ;
#64 = PERSON_AND_ORGANIZATION ( #18446744073709551615, #18446744073709551615 ) ;
#65 = APPROVAL_PERSON_ORGANIZATION ( #11, #3, #379 ) ;
#66 = DATE_TIME_ROLE ( 'classification_date' ) ;
#67 = CALENDAR_DATE ( 2026, 22, 6 ) ;
#68 = PROPERTY_DEFINITION_REPRESENTATION ( #366, #346 ) ;
#69 = APPROVAL_PERSON_ORGANIZATION ( #80, #355, #292 ) ;
#70 = ITEM_DEFINED_TRANSFORMATION ( 'NONE', 'NONE', #334,  #84 ) ;
#71 = CC_DESIGN_PERSON_AND_ORGANIZATION_ASSIGNMENT ( #340, #17, ( #353 ) ) ;
#72 = DOCUMENT_FILE ( '6461082896.step.STEP' , '', '', #338, '' ,$ ) ;
#73 = PROPERTY_DEFINITION ('external definition','', #266 ) ;
#74 = PERSON_AND_ORGANIZATION ( #18446744073709551615, #18446744073709551615 ) ;
#75 = APPLICATION_CONTEXT ( 'configuration controlled 3d designs of mechanical parts and assemblies' ) ;
#76 = SECURITY_CLASSIFICATION ( '', '', #386 ) ;
#77 = PERSON_AND_ORGANIZATION ( #18446744073709551615, #18446744073709551615 ) ;
#78 = LOCAL_TIME ( 18, 49, 56.00000000000000000, #230 ) ;
#79 = APPROVAL ( #247, 'Coincident' ) ;
#80 = PERSON_AND_ORGANIZATION ( #250, #269 ) ;
#81 = DATE_AND_TIME ( #267, #215 ) ;
#82 = APPROVAL ( #376, 'Coincident' ) ;
#83 = DATE_AND_TIME ( #142, #249 ) ;
#84 = AXIS2_PLACEMENT_3D ( 'NONE', #19, #344, #315 ) ;
#85 = CARTESIAN_POINT ( 'NONE',  ( 7.300000244111001457, 0.8500025634770002059, -2.058321952820000078 ) ) ;
#86 = LOCAL_TIME ( 18, 49, 56.00000000000000000, #259 ) ;
#87 = DATE_TIME_ROLE ( 'classification_date' ) ;
#88 = DIRECTION ( 'NONE',  ( 4.890937612370273194E-29, -3.155443620884047222E-30, 0.9999999999999997780 ) ) ;
#89 = PRODUCT_RELATED_PRODUCT_CATEGORY ( 'detail', '', ( #345 ) ) ;
#90 = PERSON_AND_ORGANIZATION ( #18446744073709551615, #18446744073709551615 ) ;
#91 = APPROVAL_PERSON_ORGANIZATION ( #58, #319, #270 ) ;
#92 = LOCAL_TIME ( 18, 49, 56.00000000000000000, #284 ) ;
#93 = CC_DESIGN_DATE_AND_TIME_ASSIGNMENT ( #302, #184, ( #111 ) ) ;
#94 = PERSON_AND_ORGANIZATION ( #18446744073709551615, #18446744073709551615 ) ;
#95 = SHAPE_DEFINITION_REPRESENTATION ( #109, #358 ) ;
#96 = DATE_TIME_ROLE ( 'creation_date' ) ;
#97 = CC_DESIGN_DATE_AND_TIME_ASSIGNMENT ( #81, #199, ( #238 ) ) ;
#98 = EXTERNAL_SOURCE (IDENTIFIER('') ) ;
#99 = APPLIED_EXTERNAL_IDENTIFICATION_ASSIGNMENT ( '6461082896.step.STEP' , #321, #98,( #72) ) ;
#100 = APPROVAL_DATE_TIME ( #367, #206 ) ;
#101 = DATE_TIME_ROLE ( 'classification_date' ) ;
#102 = APPROVAL_DATE_TIME ( #347, #210 ) ;
#103 = DIRECTION ( 'NONE',  ( 0.000000000000000000, 0.000000000000000000, 1.000000000000000000 ) ) ;
#104 = CC_DESIGN_APPROVAL ( #210, ( #353 ) ) ;
#105 = CALENDAR_DATE ( 2026, 22, 6 ) ;
#106 = PRODUCT_DEFINITION_SHAPE ( 'NONE', 'NONE',  #390 ) ;
#107 = PERSON_AND_ORGANIZATION ( #18446744073709551615, #18446744073709551615 ) ;
#108 = DATE_AND_TIME ( #48, #86 ) ;
#109 = PRODUCT_DEFINITION_SHAPE ( 'NONE', 'NONE',  #231 ) ;
#110 = DATE_TIME_ROLE ( 'classification_date' ) ;
#111 = SECURITY_CLASSIFICATION ( '', '', #303 ) ;
#112 = CALENDAR_DATE ( 2026, 22, 6 ) ;
#113 = CONTEXT_DEPENDENT_SHAPE_REPRESENTATION ( #348, #106 ) ;
#114 = PERSON_AND_ORGANIZATION ( #18446744073709551615, #18446744073709551615 ) ;
#115 = PROPERTY_DEFINITION_REPRESENTATION ( #286, #358 ) ;
#116 = DIRECTION ( 'NONE',  ( 1.000000000000000222, -1.092455418989176591E-28, 4.890937612370273194E-29 ) ) ;
#117 = LOCAL_TIME ( 18, 49, 56.00000000000000000, #209 ) ;
#118 = APPLICATION_CONTEXT ( 'configuration controlled 3d designs of mechanical parts and assemblies' ) ;
#119 = COORDINATED_UNIVERSAL_TIME_OFFSET ( 10, 0, .AHEAD. ) ;
#120 = DOCUMENT_FILE ( '6461083056.step.STEP' , '', '', #57, '' ,$ ) ;
#121 =( NAMED_UNIT ( * ) PLANE_ANGLE_UNIT ( ) SI_UNIT ( $, .RADIAN. ) );
#122 = APPROVAL_ROLE ( '' ) ;
#123 = CC_DESIGN_PERSON_AND_ORGANIZATION_ASSIGNMENT ( #141, #20, ( #137 ) ) ;
#124 = PERSON_AND_ORGANIZATION ( #18446744073709551615, #18446744073709551615 ) ;
#125 = APPROVAL_DATE_TIME ( #276, #79 ) ;
#126 = CALENDAR_DATE ( 2026, 22, 6 ) ;
#127 = AXIS2_PLACEMENT_3D ( 'NONE', #85, #88, #326 ) ;
#128 = CC_DESIGN_APPROVAL ( #82, ( #311 ) ) ;
#129 = APPLICATION_PROTOCOL_DEFINITION ( 'international standard', 'config_control_design', 1994, #75 ) ;
#130 = APPROVAL_DATE_TIME ( #18, #213 ) ;
#131 = MECHANICAL_CONTEXT ( 'NONE', #118, 'mechanical' ) ;
#132 = CALENDAR_DATE ( 2026, 22, 6 ) ;
#133 = LOCAL_TIME ( 18, 49, 56.00000000000000000, #32 ) ;
#134 = DATE_AND_TIME ( #132, #305 ) ;
#135 = PROPERTY_DEFINITION ('external definition','', #72 ) ;
#136 = APPROVAL_DATE_TIME ( #268, #228 ) ;
#137 = SECURITY_CLASSIFICATION ( '', '', #51 ) ;
#138 = PERSON_AND_ORGANIZATION_ROLE ( 'creator' ) ;
#139 = CARTESIAN_POINT ( 'NONE',  ( 8.299996429414001398, 0.8500025634770002059, -2.058321952820000078 ) ) ;
#140 = CC_DESIGN_PERSON_AND_ORGANIZATION_ASSIGNMENT ( #11, #224, ( #15 ) ) ;
#141 = PERSON_AND_ORGANIZATION ( #274, #300 ) ;
#142 = CALENDAR_DATE ( 2026, 22, 6 ) ;
#143 =( GEOMETRIC_REPRESENTATION_CONTEXT ( 3 ) GLOBAL_UNCERTAINTY_ASSIGNED_CONTEXT ( ( #327 ) ) GLOBAL_UNIT_ASSIGNED_CONTEXT ( ( #24, #146, #52 ) ) REPRESENTATION_CONTEXT ( 'NONE', 'WORKASPACE' ) );
#144 = DIRECTION ( 'NONE',  ( 1.000000000000000222, -1.092455418989176591E-28, 4.890937612370273194E-29 ) ) ;
#145 = CC_DESIGN_APPROVAL ( #206, ( #351 ) ) ;
#146 =( NAMED_UNIT ( * ) PLANE_ANGLE_UNIT ( ) SI_UNIT ( $, .RADIAN. ) );
#147 = MECHANICAL_CONTEXT ( 'NONE', #260, 'mechanical' ) ;
#148 = COORDINATED_UNIVERSAL_TIME_OFFSET ( 10, 0, .AHEAD. ) ;
#149 = PRODUCT_DEFINITION_FORMATION_WITH_SPECIFIED_SOURCE ( 'Symmetric', '', #163, .NOT_KNOWN. ) ;
#150 = CC_DESIGN_APPROVAL ( #254, ( #231 ) ) ;
#151 = COORDINATED_UNIVERSAL_TIME_OFFSET ( 10, 0, .AHEAD. ) ;
#152 = DATE_AND_TIME ( #126, #208 ) ;
#153 = APPLICATION_CONTEXT ( 'configuration controlled 3d designs of mechanical parts and assemblies' ) ;
#154 = DATE_AND_TIME ( #67, #53 ) ;
#155 = APPROVAL_PERSON_ORGANIZATION ( #141, #228, #304 ) ;
#156 = COORDINATED_UNIVERSAL_TIME_OFFSET ( 10, 0, .AHEAD. ) ;
#157 =( NAMED_UNIT ( * ) PLANE_ANGLE_UNIT ( ) SI_UNIT ( $, .RADIAN. ) );
#158 = CC_DESIGN_PERSON_AND_ORGANIZATION_ASSIGNMENT ( #36, #309, ( #351 ) ) ;
#159 = CALENDAR_DATE ( 2026, 22, 6 ) ;
#160 = CARTESIAN_POINT ( 'NONE',  ( 0.000000000000000000, 0.000000000000000000, 0.000000000000000000 ) ) ;
#161 = CC_DESIGN_DATE_AND_TIME_ASSIGNMENT ( #14, #110, ( #311 ) ) ;
#162 = DATE_AND_TIME ( #251, #257 ) ;
#163 = PRODUCT ( 'R9.step', 'R9.step', '', ( #131 ) ) ;
#164 = AXIS2_PLACEMENT_3D ( 'NONE', #139, #172, #116 ) ;
#165 = LOCAL_TIME ( 18, 49, 56.00000000000000000, #263 ) ;
#166 = COORDINATED_UNIVERSAL_TIME_OFFSET ( 10, 0, .AHEAD. ) ;
#167 = DESIGN_CONTEXT ( 'detailed design', #153, 'design' ) ;
#168 = COORDINATED_UNIVERSAL_TIME_OFFSET ( 10, 0, .AHEAD. ) ;
#169 = CALENDAR_DATE ( 2026, 22, 6 ) ;
#170 = APPROVAL_ROLE ( '' ) ;
#171 = PERSON_AND_ORGANIZATION_ROLE ( 'classification_officer' ) ;
#172 = DIRECTION ( 'NONE',  ( 4.890937612370273194E-29, -3.155443620884047222E-30, 0.9999999999999997780 ) ) ;
#173 = APPROVAL_DATE_TIME ( #54, #355 ) ;
#174 = APPLICATION_CONTEXT ( 'configuration controlled 3d designs of mechanical parts and assemblies' ) ;
#175 = CC_DESIGN_PERSON_AND_ORGANIZATION_ASSIGNMENT ( #90, #336, ( #111 ) ) ;
#176 = CC_DESIGN_SECURITY_CLASSIFICATION ( #111, ( #351 ) ) ;
#177 = PERSON_AND_ORGANIZATION ( #18446744073709551615, #18446744073709551615 ) ;
#178 = CALENDAR_DATE ( 2026, 22, 6 ) ;
#179 = PERSON_AND_ORGANIZATION ( #18446744073709551615, #18446744073709551615 ) ;
#180 = PRODUCT_RELATED_PRODUCT_CATEGORY ( 'detail', '', ( #163 ) ) ;
#181 = COORDINATED_UNIVERSAL_TIME_OFFSET ( 10, 0, .AHEAD. ) ;
#182 = APPROVAL_STATUS ( 'not_yet_approved' ) ;
#183 = CC_DESIGN_SECURITY_CLASSIFICATION ( #311, ( #325 ) ) ;
#184 = DATE_TIME_ROLE ( 'classification_date' ) ;
#185 = APPROVAL_STATUS ( 'not_yet_approved' ) ;
#186 = PROPERTY_DEFINITION_REPRESENTATION ( #245, #346 ) ;
#187 =( GEOMETRIC_REPRESENTATION_CONTEXT ( 3 ) GLOBAL_UNCERTAINTY_ASSIGNED_CONTEXT ( ( #354 ) ) GLOBAL_UNIT_ASSIGNED_CONTEXT ( ( #234, #121, #387 ) ) REPRESENTATION_CONTEXT ( 'NONE', 'WORKASPACE' ) );
#188 = LOCAL_TIME ( 18, 49, 56.00000000000000000, #151 ) ;
#189 = PERSON_AND_ORGANIZATION_ROLE ( 'design_supplier' ) ;
#190 = PRODUCT ( '6461082896.step', '6461082896.step', '', ( #212 ) ) ;
#191 = PERSON_AND_ORGANIZATION ( #18446744073709551615, #18446744073709551615 ) ;
#192 = LOCAL_TIME ( 18, 49, 56.00000000000000000, #295 ) ;
#193 = CC_DESIGN_DATE_AND_TIME_ASSIGNMENT ( #108, #316, ( #353 ) ) ;
#194 = OBJECT_ROLE ('mandatory',$ ) ;
#195 = CC_DESIGN_APPROVAL ( #355, ( #288 ) ) ;
#196 = CC_DESIGN_APPROVAL ( #3, ( #15 ) ) ;
#197 = APPROVAL_DATE_TIME ( #134, #3 ) ;
#198 = CALENDAR_DATE ( 2026, 22, 6 ) ;
#199 = DATE_TIME_ROLE ( 'creation_date' ) ;
#200 = PROPERTY_DEFINITION_REPRESENTATION ( #73, #358 ) ;
#201 = CC_DESIGN_PERSON_AND_ORGANIZATION_ASSIGNMENT ( #264, #22, ( #149 ) ) ;
#202 = LOCAL_TIME ( 18, 49, 56.00000000000000000, #233 ) ;
#203 = LOCAL_TIME ( 18, 49, 56.00000000000000000, #258 ) ;
#204 = CC_DESIGN_DATE_AND_TIME_ASSIGNMENT ( #383, #87, ( #288 ) ) ;
#205 = PERSON_AND_ORGANIZATION_ROLE ( 'design_owner' ) ;
#206 = APPROVAL ( #373, 'Coincident' ) ;
#207 = CARTESIAN_POINT ( 'NONE',  ( 7.799996429414002286, 0.8500025634770002059, -2.058321952820000078 ) ) ;
#208 = LOCAL_TIME ( 18, 49, 56.00000000000000000, #148 ) ;
#209 = COORDINATED_UNIVERSAL_TIME_OFFSET ( 10, 0, .AHEAD. ) ;
#210 = APPROVAL ( #182, 'Coincident' ) ;
#211 = PERSON_AND_ORGANIZATION_ROLE ( 'classification_officer' ) ;
#212 = MECHANICAL_CONTEXT ( 'NONE', #239, 'mechanical' ) ;
#213 = APPROVAL ( #222, 'Coincident' ) ;
#214 = APPROVAL_ROLE ( '' ) ;
#215 = LOCAL_TIME ( 18, 49, 56.00000000000000000, #28 ) ;
#216 = CC_DESIGN_APPROVAL ( #273, ( #111 ) ) ;
#217 =( REPRESENTATION_RELATIONSHIP ('NONE','NONE', #235, #358 ) REPRESENTATION_RELATIONSHIP_WITH_TRANSFORMATION ( #310 )SHAPE_REPRESENTATION_RELATIONSHIP( ) );
#218 = APPROVAL_STATUS ( 'not_yet_approved' ) ;
#219 = CC_DESIGN_PERSON_AND_ORGANIZATION_ASSIGNMENT ( #329, #61, ( #351 ) ) ;
#220 = CONTEXT_DEPENDENT_SHAPE_REPRESENTATION ( #280, #45 ) ;
#221 = CC_DESIGN_PERSON_AND_ORGANIZATION_ASSIGNMENT ( #80, #171, ( #288 ) ) ;
#222 = APPROVAL_STATUS ( 'not_yet_approved' ) ;
#223 =( GEOMETRIC_REPRESENTATION_CONTEXT ( 3 ) GLOBAL_UNCERTAINTY_ASSIGNED_CONTEXT ( ( #2 ) ) GLOBAL_UNIT_ASSIGNED_CONTEXT ( ( #312, #157, #41 ) ) REPRESENTATION_CONTEXT ( 'NONE', 'WORKASPACE' ) );
#224 = PERSON_AND_ORGANIZATION_ROLE ( 'classification_officer' ) ;
#225 = PRODUCT_DEFINITION_SHAPE ( 'NONE', 'NONE',  #353 ) ;
#226 = APPROVAL_STATUS ( 'not_yet_approved' ) ;
#227 = DIRECTION ( 'NONE',  ( 0.000000000000000000, 0.000000000000000000, 1.000000000000000000 ) ) ;
#228 = APPROVAL ( #243, 'UNKNOWN' ) ;
#229 = ORGANIZATION ( 'NAUO-ORG150', 'UNSPECIFIED', 'UNSPECIFIED' ) ;
#230 = COORDINATED_UNIVERSAL_TIME_OFFSET ( 10, 0, .AHEAD. ) ;
#231 = PRODUCT_DEFINITION ( 'General', '', #351, #296 ) ;
#232 = ITEM_DEFINED_TRANSFORMATION ( 'NONE', 'NONE', #127,  #261 ) ;
#233 = COORDINATED_UNIVERSAL_TIME_OFFSET ( 10, 0, .AHEAD. ) ;
#234 =( LENGTH_UNIT ( ) NAMED_UNIT ( * ) SI_UNIT ( .MILLI., .METRE. ) );
#235 = SHAPE_REPRESENTATION ( 'R9.step', ( #371, #334, #164, #127 ), #143 ) ;
#236 = ROLE_ASSOCIATION ( #294, #381 ) ;
#237 = LOCAL_TIME ( 18, 49, 56.00000000000000000, #350 ) ;
#238 = PRODUCT_DEFINITION ( 'General', '', #149, #167 ) ;
#239 = APPLICATION_CONTEXT ( 'configuration controlled 3d designs of mechanical parts and assemblies' ) ;
#240 = CALENDAR_DATE ( 2026, 22, 6 ) ;
#241 = APPROVAL_DATE_TIME ( #359, #319 ) ;
#242 = APPROVAL_DATE_TIME ( #246, #254 ) ;
#243 = APPROVAL_STATUS ( 'not_yet_approved' ) ;
#244 = APPROVAL_DATE_TIME ( #154, #273 ) ;
#245 = PROPERTY_DEFINITION ('external definition','', #120 ) ;
#246 = DATE_AND_TIME ( #7, #117 ) ;
#247 = APPROVAL_STATUS ( 'not_yet_approved' ) ;
#248 = CC_DESIGN_APPROVAL ( #319, ( #238 ) ) ;
#249 = LOCAL_TIME ( 18, 49, 56.00000000000000000, #119 ) ;
#250 = PERSON ( 'NAUO-PER151', 'UNSPECIFIED', 'UNSPECIFIED', ('UNSPECIFIED'), ('UNSPECIFIED'), ('UNSPECIFIED') ) ;
#251 = CALENDAR_DATE ( 2026, 22, 6 ) ;
#252 = CALENDAR_DATE ( 2026, 22, 6 ) ;
#253 = CARTESIAN_POINT ( 'NONE',  ( 0.000000000000000000, 0.000000000000000000, 0.000000000000000000 ) ) ;
#254 = APPROVAL ( #185, 'Coincident' ) ;
#255 = APPROVAL_ROLE ( '' ) ;
#256 = PRODUCT_DEFINITION_SHAPE ( 'NONE', 'NONE',  #238 ) ;
#257 = LOCAL_TIME ( 18, 49, 56.00000000000000000, #168 ) ;
#258 = COORDINATED_UNIVERSAL_TIME_OFFSET ( 10, 0, .AHEAD. ) ;
#259 = COORDINATED_UNIVERSAL_TIME_OFFSET ( 10, 0, .AHEAD. ) ;
#260 = APPLICATION_CONTEXT ( 'configuration controlled 3d designs of mechanical parts and assemblies' ) ;
#261 = AXIS2_PLACEMENT_3D ( 'NONE', #253, #103, #317 ) ;
#262 = CC_DESIGN_APPROVAL ( #79, ( #76 ) ) ;
#263 = COORDINATED_UNIVERSAL_TIME_OFFSET ( 10, 0, .AHEAD. ) ;
#264 = PERSON_AND_ORGANIZATION ( #18446744073709551615, #18446744073709551615 ) ;
#265 = DATE_AND_TIME ( #55, #202 ) ;
#266 = DOCUMENT_FILE ( '6461082896.step.STEP' , '', '', #35, '' ,$ ) ;
#267 = CALENDAR_DATE ( 2026, 22, 6 ) ;
#268 = DATE_AND_TIME ( #198, #78 ) ;
#269 = ORGANIZATION ( 'NAUO-ORG151', 'UNSPECIFIED', 'UNSPECIFIED' ) ;
#270 = APPROVAL_ROLE ( '' ) ;
#271 = DIRECTION ( 'NONE',  ( 4.890937612370273194E-29, -3.155443620884047222E-30, 0.9999999999999997780 ) ) ;
#272 = PERSON_AND_ORGANIZATION_ROLE ( 'design_owner' ) ;
#273 = APPROVAL ( #218, 'Coincident' ) ;
#274 = PERSON ( 'NAUO-PER152', 'UNSPECIFIED', 'UNSPECIFIED', ('UNSPECIFIED'), ('UNSPECIFIED'), ('UNSPECIFIED') ) ;
#275 = APPROVAL_PERSON_ORGANIZATION ( #74, #82, #13 ) ;
#276 = DATE_AND_TIME ( #9, #188 ) ;
#277 = SHAPE_DEFINITION_REPRESENTATION ( #256, #235 ) ;
#278 = CC_DESIGN_PERSON_AND_ORGANIZATION_ASSIGNMENT ( #307, #279, ( #190 ) ) ;
#279 = PERSON_AND_ORGANIZATION_ROLE ( 'design_owner' ) ;
#280 =( REPRESENTATION_RELATIONSHIP ('NONE','NONE', #235, #346 ) REPRESENTATION_RELATIONSHIP_WITH_TRANSFORMATION ( #70 )SHAPE_REPRESENTATION_RELATIONSHIP( ) );
#281 = APPROVAL_ROLE ( '' ) ;
#282 = APPROVAL_PERSON_ORGANIZATION ( #331, #254, #62 ) ;
#283 = CC_DESIGN_SECURITY_CLASSIFICATION ( #76, ( #149 ) ) ;
#284 = COORDINATED_UNIVERSAL_TIME_OFFSET ( 10, 0, .AHEAD. ) ;
#285 = DATE_AND_TIME ( #159, #237 ) ;
#286 = PROPERTY_DEFINITION ('document property','', #266 ) ;
#287 = PERSON_AND_ORGANIZATION ( #18446744073709551615, #18446744073709551615 ) ;
#288 = SECURITY_CLASSIFICATION ( '', '', #43 ) ;
#289 = PRODUCT_DEFINITION_SHAPE ( 'NONE', 'NONE',  #389 ) ;
#290 = APPROVAL_DATE_TIME ( #162, #82 ) ;
#291 = APPROVAL_ROLE ( '' ) ;
#292 = APPROVAL_ROLE ( '' ) ;
#293 = APPROVAL_DATE_TIME ( #265, #1 ) ;
#294 = OBJECT_ROLE ('mandatory',$ ) ;
#295 = COORDINATED_UNIVERSAL_TIME_OFFSET ( 10, 0, .AHEAD. ) ;
#296 = DESIGN_CONTEXT ( 'detailed design', #75, 'design' ) ;
#297 = DIRECTION ( 'NONE',  ( 1.000000000000000000, 0.000000000000000000, 0.000000000000000000 ) ) ;
#298 = ROLE_ASSOCIATION ( #360, #324 ) ;
#299 = IDENTIFICATION_ROLE ( 'external document id and location', $) ;
#300 = ORGANIZATION ( 'NAUO-ORG152', 'UNSPECIFIED', 'UNSPECIFIED' ) ;
#301 = PERSON_AND_ORGANIZATION_ROLE ( 'creator' ) ;
#302 = DATE_AND_TIME ( #178, #133 ) ;
#303 = SECURITY_CLASSIFICATION_LEVEL ( 'unclassified' ) ;
#304 = APPROVAL_ROLE ( '' ) ;
#305 = LOCAL_TIME ( 18, 49, 56.00000000000000000, #156 ) ;
#306 = CALENDAR_DATE ( 2026, 22, 6 ) ;
#307 = PERSON_AND_ORGANIZATION ( #18446744073709551615, #18446744073709551615 ) ;
#308 = CC_DESIGN_DATE_AND_TIME_ASSIGNMENT ( #285, #101, ( #15 ) ) ;
#309 = PERSON_AND_ORGANIZATION_ROLE ( 'design_supplier' ) ;
#310 = ITEM_DEFINED_TRANSFORMATION ( 'NONE', 'NONE', #164,  #261 ) ;
#311 = SECURITY_CLASSIFICATION ( '', '', #380 ) ;
#312 =( LENGTH_UNIT ( ) NAMED_UNIT ( * ) SI_UNIT ( .MILLI., .METRE. ) );
#313 = SECURITY_CLASSIFICATION_LEVEL ( 'unclassified' ) ;
#314 = PRODUCT_RELATED_PRODUCT_CATEGORY ( 'detail', '', ( #190 ) ) ;
#315 = DIRECTION ( 'NONE',  ( 1.000000000000000000, 0.000000000000000000, 0.000000000000000000 ) ) ;
#316 = DATE_TIME_ROLE ( 'creation_date' ) ;
#317 = DIRECTION ( 'NONE',  ( 1.000000000000000000, 0.000000000000000000, 0.000000000000000000 ) ) ;
#318 = LOCAL_TIME ( 18, 49, 56.00000000000000000, #34 ) ;
#319 = APPROVAL ( #356, 'Coincident' ) ;
#320 = PERSON_AND_ORGANIZATION ( #18446744073709551615, #18446744073709551615 ) ;
#321 = IDENTIFICATION_ROLE ( 'external document id and location', $) ;
#322 = DATE_TIME_ROLE ( 'classification_date' ) ;
#323 = PERSON_AND_ORGANIZATION ( #18446744073709551615, #18446744073709551615 ) ;
#324 = APPLIED_DOCUMENT_REFERENCE ( #72,'',( #231) ) ;
#325 = PRODUCT_DEFINITION_FORMATION_WITH_SPECIFIED_SOURCE ( 'Symmetric', '', #345, .NOT_KNOWN. ) ;
#326 = DIRECTION ( 'NONE',  ( 1.000000000000000222, -1.092455418989176591E-28, 4.890937612370273194E-29 ) ) ;
#327 = UNCERTAINTY_MEASURE_WITH_UNIT (LENGTH_MEASURE( 1.000000000000000082E-05 ), #24, 'distance_accuracy_value', 'NONE');
#328 = CC_DESIGN_APPROVAL ( #228, ( #137 ) ) ;
#329 = PERSON_AND_ORGANIZATION ( #18446744073709551615, #18446744073709551615 ) ;
#330 = CC_DESIGN_DATE_AND_TIME_ASSIGNMENT ( #83, #322, ( #137 ) ) ;
#331 = PERSON_AND_ORGANIZATION ( #18446744073709551615, #18446744073709551615 ) ;
#332 = PROPERTY_DEFINITION_REPRESENTATION ( #135, #358 ) ;
#333 = PERSON_AND_ORGANIZATION ( #18446744073709551615, #18446744073709551615 ) ;
#334 = AXIS2_PLACEMENT_3D ( 'NONE', #207, #271, #144 ) ;
#335 = CC_DESIGN_SECURITY_CLASSIFICATION ( #288, ( #389 ) ) ;
#336 = PERSON_AND_ORGANIZATION_ROLE ( 'classification_officer' ) ;
#337 = COORDINATED_UNIVERSAL_TIME_OFFSET ( 10, 0, .AHEAD. ) ;
#338 = DOCUMENT_TYPE ( 'geometry' ) ;
#339 = APPLIED_DOCUMENT_REFERENCE ( #120,'',( #353) ) ;
#340 = PERSON_AND_ORGANIZATION ( #18446744073709551615, #18446744073709551615 ) ;
#341 = EXTERNAL_SOURCE (IDENTIFIER('') ) ;
#342 = PROPERTY_DEFINITION ('document property','', #72 ) ;
#343 = ROLE_ASSOCIATION ( #194, #339 ) ;
#344 = DIRECTION ( 'NONE',  ( 0.000000000000000000, 0.000000000000000000, 1.000000000000000000 ) ) ;
#345 = PRODUCT ( '6461083056.step', '6461083056.step', '', ( #147 ) ) ;
#346 = SHAPE_REPRESENTATION ( '6461083056.step', ( #84 ), #223 ) ;
#347 = DATE_AND_TIME ( #375, #92 ) ;
#348 =( REPRESENTATION_RELATIONSHIP ('NONE','NONE', #235, #358 ) REPRESENTATION_RELATIONSHIP_WITH_TRANSFORMATION ( #232 )SHAPE_REPRESENTATION_RELATIONSHIP( ) );
#349 = CC_DESIGN_PERSON_AND_ORGANIZATION_ASSIGNMENT ( #21, #138, ( #149 ) ) ;
#350 = COORDINATED_UNIVERSAL_TIME_OFFSET ( 10, 0, .AHEAD. ) ;
#351 = PRODUCT_DEFINITION_FORMATION_WITH_SPECIFIED_SOURCE ( 'Symmetric', '', #190, .NOT_KNOWN. ) ;
#352 = APPLICATION_PROTOCOL_DEFINITION ( 'international standard', 'config_control_design', 1994, #118 ) ;
#353 = PRODUCT_DEFINITION ( 'General', '', #325, #29 ) ;
#354 = UNCERTAINTY_MEASURE_WITH_UNIT (LENGTH_MEASURE( 1.000000000000000082E-05 ), #234, 'distance_accuracy_value', 'NONE');
#355 = APPROVAL ( #226, 'UNKNOWN' ) ;
#356 = APPROVAL_STATUS ( 'not_yet_approved' ) ;
#357 = APPROVAL_PERSON_ORGANIZATION ( #287, #213, #255 ) ;
#358 = SHAPE_REPRESENTATION ( '6461082896.step', ( #261 ), #187 ) ;
#359 = DATE_AND_TIME ( #240, #192 ) ;
#360 = OBJECT_ROLE ('mandatory',$ ) ;
#361 = CC_DESIGN_PERSON_AND_ORGANIZATION_ASSIGNMENT ( #107, #205, ( #163 ) ) ;
#362 = DATE_AND_TIME ( #368, #318 ) ;
#363 = APPLIED_EXTERNAL_IDENTIFICATION_ASSIGNMENT ( '6461082896.step.STEP' , #16, #370,( #266) ) ;
#364 = COORDINATED_UNIVERSAL_TIME_OFFSET ( 10, 0, .AHEAD. ) ;
#365 = PROPERTY_DEFINITION_REPRESENTATION ( #342, #358 ) ;
#366 = PROPERTY_DEFINITION ('document property','', #120 ) ;
#367 = DATE_AND_TIME ( #306, #26 ) ;
#368 = CALENDAR_DATE ( 2026, 22, 6 ) ;
#369 = CC_DESIGN_PERSON_AND_ORGANIZATION_ASSIGNMENT ( #320, #189, ( #325 ) ) ;
#370 = EXTERNAL_SOURCE (IDENTIFIER('') ) ;
#371 = AXIS2_PLACEMENT_3D ( 'NONE', #160, #227, #297 ) ;
#372 = CC_DESIGN_SECURITY_CLASSIFICATION ( #15, ( #388 ) ) ;
#373 = APPROVAL_STATUS ( 'not_yet_approved' ) ;
#374 = APPROVAL_STATUS ( 'not_yet_approved' ) ;
#375 = CALENDAR_DATE ( 2026, 22, 6 ) ;
#376 = APPROVAL_STATUS ( 'not_yet_approved' ) ;
#377 = APPROVAL_PERSON_ORGANIZATION ( #323, #1, #170 ) ;
#378 = APPROVAL_PERSON_ORGANIZATION ( #38, #273, #122 ) ;
#379 = APPROVAL_ROLE ( '' ) ;
#380 = SECURITY_CLASSIFICATION_LEVEL ( 'unclassified' ) ;
#381 = APPLIED_DOCUMENT_REFERENCE ( #266,'',( #231) ) ;
#382 = APPROVAL_PERSON_ORGANIZATION ( #124, #206, #214 ) ;
#383 = DATE_AND_TIME ( #169, #8 ) ;
#384 = PERSON ( 'NAUO-PER150', 'UNSPECIFIED', 'UNSPECIFIED', ('UNSPECIFIED'), ('UNSPECIFIED'), ('UNSPECIFIED') ) ;
#385 = CC_DESIGN_DATE_AND_TIME_ASSIGNMENT ( #152, #66, ( #76 ) ) ;
#386 = SECURITY_CLASSIFICATION_LEVEL ( 'unclassified' ) ;
#387 =( NAMED_UNIT ( * ) SI_UNIT ( $, .STERADIAN. ) SOLID_ANGLE_UNIT ( ) );
#388 = NEXT_ASSEMBLY_USAGE_OCCURRENCE ( 'NAUO150', ' ', ' ', #238, #353, $ ) ;
#389 = NEXT_ASSEMBLY_USAGE_OCCURRENCE ( 'NAUO151', ' ', ' ', #238, #231, $ ) ;
#390 = NEXT_ASSEMBLY_USAGE_OCCURRENCE ( 'NAUO152', ' ', ' ', #238, #231, $ ) ;
ENDSEC;
END-ISO-10303-21;
