ISO-10303-21;
HEADER;
FILE_DESCRIPTION (( 'STEP AP203' ),
    '1' );
FILE_NAME ('SideItemMount.STEP',
    '2026-06-22T08:50:25',
    ( 'localuser' ),
    ( '' ),
    'SwSTEP 2.0',
    'SolidWorks 2025',
    '' );
FILE_SCHEMA (( 'CONFIG_CONTROL_DESIGN' ));
ENDSEC;

DATA;
#1 = VECTOR ( 'NONE', #352, 1000.000000000000000 ) ;
#2 = DIRECTION ( 'NONE',  ( -0.000000000000000000, 0.000000000000000000, 1.000000000000000000 ) ) ;
#3 = FACE_BOUND ( 'NONE', #1160, .T. ) ;
#4 = VERTEX_POINT ( 'NONE', #788 ) ;
#5 = ORIENTED_EDGE ( 'NONE', *, *, #99, .T. ) ;
#6 = EDGE_CURVE ( 'NONE', #1272, #1007, #886, .T. ) ;
#7 = CARTESIAN_POINT ( 'NONE',  ( 9.999999999999994671, 15.00000000000000000, 5.000000000000000000 ) ) ;
#8 = FACE_OUTER_BOUND ( 'NONE', #702, .T. ) ;
#9 = DIRECTION ( 'NONE',  ( 1.000000000000000000, 1.156482317317871478E-16, 0.000000000000000000 ) ) ;
#10 = ORIENTED_EDGE ( 'NONE', *, *, #51, .F. ) ;
#11 = VERTEX_POINT ( 'NONE', #172 ) ;
#12 = EDGE_CURVE ( 'NONE', #1089, #489, #466, .T. ) ;
#13 = CARTESIAN_POINT ( 'NONE',  ( 19.99999999999999289, 30.00000000000000000, 5.000000000000000000 ) ) ;
#14 = EDGE_CURVE ( 'NONE', #1223, #156, #1276, .T. ) ;
#15 = DIRECTION ( 'NONE',  ( -1.000000000000000000, 0.000000000000000000, 0.000000000000000000 ) ) ;
#16 = CARTESIAN_POINT ( 'NONE',  ( 5.933813642017462087, 16.92868410962868708, 14.66945905128970296 ) ) ;
#17 = VERTEX_POINT ( 'NONE', #1202 ) ;
#18 = ORIENTED_EDGE ( 'NONE', *, *, #295, .F. ) ;
#19 = AXIS2_PLACEMENT_3D ( 'NONE', #700, #1105, #1123 ) ;
#20 = DIRECTION ( 'NONE',  ( 0.000000000000000000, 0.000000000000000000, 1.000000000000000000 ) ) ;
#21 = VECTOR ( 'NONE', #901, 1000.000000000000000 ) ;
#22 = CARTESIAN_POINT ( 'NONE',  ( 20.00000000000001776, 15.00000000000000000, 17.77999999999999758 ) ) ;
#23 = LOCAL_TIME ( 18, 50, 25.00000000000000000, #459 ) ;
#24 = CARTESIAN_POINT ( 'NONE',  ( 20.00000000000001421, 2.520000000000006235, 15.63000000000000078 ) ) ;
#25 = AXIS2_PLACEMENT_3D ( 'NONE', #38, #849, #965 ) ;
#26 = AXIS2_PLACEMENT_3D ( 'NONE', #921, #310, #287 ) ;
#27 = VERTEX_POINT ( 'NONE', #77 ) ;
#28 = CARTESIAN_POINT ( 'NONE',  ( 1.999999999999993561, 30.00000000000000000, 0.000000000000000000 ) ) ;
#29 = EDGE_LOOP ( 'NONE', ( #779, #606 ) ) ;
#30 = FACE_BOUND ( 'NONE', #1149, .T. ) ;
#31 = CALENDAR_DATE ( 2026, 22, 6 ) ;
#32 = CARTESIAN_POINT ( 'NONE',  ( 10.79999999999999538, 2.520000000000001794, 15.63000000000000078 ) ) ;
#33 = EDGE_CURVE ( 'NONE', #4, #1039, #1095, .T. ) ;
#34 = ORIENTED_EDGE ( 'NONE', *, *, #947, .F. ) ;
#35 = CARTESIAN_POINT ( 'NONE',  ( 25.75920355077887791, 2.830145079802069421E-15, 6.999999999999999112 ) ) ;
#36 = EDGE_LOOP ( 'NONE', ( #41, #911, #74, #711 ) ) ;
#37 = CARTESIAN_POINT ( 'NONE',  ( 10.79999999999999361, 28.99999999999999645, 19.00000000000000000 ) ) ;
#38 = CARTESIAN_POINT ( 'NONE',  ( 0.000000000000000000, 0.000000000000000000, 0.000000000000000000 ) ) ;
#39 = EDGE_LOOP ( 'NONE', ( #624, #789 ) ) ;
#40 = CARTESIAN_POINT ( 'NONE',  ( 10.79999999999999538, 4.720000000000000639, 15.63000000000000078 ) ) ;
#41 = ORIENTED_EDGE ( 'NONE', *, *, #600, .F. ) ;
#42 = CARTESIAN_POINT ( 'NONE',  ( -6.938893903907228378E-15, 30.00000000000000000, 5.000000000000000000 ) ) ;
#43 = DIRECTION ( 'NONE',  ( -0.000000000000000000, -0.000000000000000000, -1.000000000000000000 ) ) ;
#44 = CIRCLE ( 'NONE', #1217, 2.399999999999999467 ) ;
#45 = PRODUCT_DEFINITION_FORMATION_WITH_SPECIFIED_SOURCE ( 'Symmetric', '', #200, .NOT_KNOWN. ) ;
#46 = AXIS2_PLACEMENT_3D ( 'NONE', #276, #1099, #1195 ) ;
#47 = VERTEX_POINT ( 'NONE', #675 ) ;
#48 = LINE ( 'NONE', #140, #811 ) ;
#49 = AXIS2_PLACEMENT_3D ( 'NONE', #900, #104, #604 ) ;
#50 = VERTEX_POINT ( 'NONE', #696 ) ;
#51 = EDGE_CURVE ( 'NONE', #1007, #56, #303, .T. ) ;
#52 = DIRECTION ( 'NONE',  ( -0.000000000000000000, -0.000000000000000000, 1.000000000000000000 ) ) ;
#53 = APPLICATION_PROTOCOL_DEFINITION ( 'international standard', 'config_control_design', 1994, #994 ) ;
#54 = LINE ( 'NONE', #864, #648 ) ;
#55 = DIRECTION ( 'NONE',  ( -1.000000000000000000, -0.000000000000000000, -0.000000000000000000 ) ) ;
#56 = VERTEX_POINT ( 'NONE', #178 ) ;
#57 = CARTESIAN_POINT ( 'NONE',  ( 20.00000000000001421, 4.720000000000004192, 15.63000000000000078 ) ) ;
#58 = CC_DESIGN_PERSON_AND_ORGANIZATION_ASSIGNMENT ( #1077, #1054, ( #767 ) ) ;
#59 = PERSON_AND_ORGANIZATION_ROLE ( 'classification_officer' ) ;
#60 = DIRECTION ( 'NONE',  ( -1.000000000000000000, -1.156482317317871478E-16, 0.000000000000000000 ) ) ;
#61 = EDGE_CURVE ( 'NONE', #734, #1051, #472, .T. ) ;
#62 = DIRECTION ( 'NONE',  ( 1.000000000000000000, 2.312964634635742957E-16, -0.000000000000000000 ) ) ;
#63 = VERTEX_POINT ( 'NONE', #866 ) ;
#64 = CYLINDRICAL_SURFACE ( 'NONE', #1109, 2.199999999999998401 ) ;
#65 = CARTESIAN_POINT ( 'NONE',  ( 5.902758414480654636, 13.13728894864016716, 16.71260423288443420 ) ) ;
#66 = CARTESIAN_POINT ( 'NONE',  ( 5.499999999999994671, 15.00000000000000000, 5.000000000000000000 ) ) ;
#67 = AXIS2_PLACEMENT_3D ( 'NONE', #955, #860, #250 ) ;
#68 = ORIENTED_EDGE ( 'NONE', *, *, #1208, .F. ) ;
#69 = CIRCLE ( 'NONE', #917, 2.200000000000000622 ) ;
#70 = AXIS2_PLACEMENT_3D ( 'NONE', #185, #1301, #816 ) ;
#71 = DIRECTION ( 'NONE',  ( -1.000000000000000000, -0.000000000000000000, -0.000000000000000000 ) ) ;
#72 = CARTESIAN_POINT ( 'NONE',  ( 5.533704276703931058, 14.43280005262129251, 17.70868211014906990 ) ) ;
#73 = CARTESIAN_POINT ( 'NONE',  ( 0.000000000000000000, 30.00000000000000000, 20.00000000000000000 ) ) ;
#74 = ORIENTED_EDGE ( 'NONE', *, *, #1027, .T. ) ;
#75 = CARTESIAN_POINT ( 'NONE',  ( 14.99999999999999467, 15.00000000000000000, 17.77999999999999758 ) ) ;
#76 = CARTESIAN_POINT ( 'NONE',  ( 5.695025132211877228, 13.68414004368698222, 13.92403745500756429 ) ) ;
#77 = CARTESIAN_POINT ( 'NONE',  ( 20.00000000000001776, 15.00000000000000000, 13.48000000000000576 ) ) ;
#78 = EDGE_LOOP ( 'NONE', ( #722, #95, #795, #930 ) ) ;
#79 = EDGE_CURVE ( 'NONE', #1051, #734, #496, .T. ) ;
#80 = FACE_BOUND ( 'NONE', #907, .T. ) ;
#81 = DIRECTION ( 'NONE',  ( -1.000000000000000000, -3.469446951953614189E-16, -0.000000000000000000 ) ) ;
#82 = PLANE ( 'NONE',  #109 ) ;
#83 =( NAMED_UNIT ( * ) PLANE_ANGLE_UNIT ( ) SI_UNIT ( $, .RADIAN. ) );
#84 = VERTEX_POINT ( 'NONE', #768 ) ;
#85 = AXIS2_PLACEMENT_3D ( 'NONE', #889, #1294, #601 ) ;
#86 = VECTOR ( 'NONE', #681, 1000.000000000000000 ) ;
#87 = APPLICATION_CONTEXT ( 'configuration controlled 3d designs of mechanical parts and assemblies' ) ;
#88 = LOCAL_TIME ( 18, 50, 25.00000000000000000, #238 ) ;
#89 = AXIS2_PLACEMENT_3D ( 'NONE', #596, #923, #915 ) ;
#90 = DIRECTION ( 'NONE',  ( 0.000000000000000000, -1.000000000000000000, 0.000000000000000000 ) ) ;
#91 = AXIS2_PLACEMENT_3D ( 'NONE', #884, #268, #1167 ) ;
#92 = DIRECTION ( 'NONE',  ( 1.000000000000000000, 3.469446951953614189E-16, 0.000000000000000000 ) ) ;
#93 = CARTESIAN_POINT ( 'NONE',  ( -6.430041684287363911E-15, 22.51999999999999602, 15.63000000000000078 ) ) ;
#94 = ORIENTED_EDGE ( 'NONE', *, *, #12, .F. ) ;
#95 = ORIENTED_EDGE ( 'NONE', *, *, #1225, .F. ) ;
#96 = CARTESIAN_POINT ( 'NONE',  ( 20.00000000000000711, 22.52000000000000313, 15.63000000000000078 ) ) ;
#97 = CARTESIAN_POINT ( 'NONE',  ( 20.00000000000000711, 26.92000000000000171, 15.63000000000000078 ) ) ;
#98 = CARTESIAN_POINT ( 'NONE',  ( 10.79999999999999716, 1.000000000000000666, 19.00000000000000000 ) ) ;
#99 = EDGE_CURVE ( 'NONE', #1171, #1166, #988, .T. ) ;
#100 = VERTEX_POINT ( 'NONE', #1281 ) ;
#101 = ORIENTED_EDGE ( 'NONE', *, *, #147, .T. ) ;
#102 = CARTESIAN_POINT ( 'NONE',  ( 10.79999999999999361, 30.00000000000000000, 19.00000000000000000 ) ) ;
#103 = LINE ( 'NONE', #13, #413 ) ;
#104 = DIRECTION ( 'NONE',  ( -1.000000000000000000, -3.469446951953614189E-16, 0.000000000000000000 ) ) ;
#105 = ORIENTED_EDGE ( 'NONE', *, *, #478, .F. ) ;
#106 = ORIENTED_EDGE ( 'NONE', *, *, #617, .F. ) ;
#107 = AXIS2_PLACEMENT_3D ( 'NONE', #594, #803, #703 ) ;
#108 = DIRECTION ( 'NONE',  ( 0.000000000000000000, 0.000000000000000000, 1.000000000000000000 ) ) ;
#109 = AXIS2_PLACEMENT_3D ( 'NONE', #611, #1309, #420 ) ;
#110 = FACE_OUTER_BOUND ( 'NONE', #454, .T. ) ;
#111 = FACE_OUTER_BOUND ( 'NONE', #511, .T. ) ;
#112 = ORIENTED_EDGE ( 'NONE', *, *, #363, .T. ) ;
#113 = ADVANCED_FACE ( 'NONE', ( #265 ), #381, .T. ) ;
#114 = EDGE_LOOP ( 'NONE', ( #638, #244 ) ) ;
#115 = FACE_OUTER_BOUND ( 'NONE', #770, .T. ) ;
#116 = LINE ( 'NONE', #534, #1237 ) ;
#117 = CARTESIAN_POINT ( 'NONE',  ( 6.038935444719855994, 17.13564330872858577, 15.34429166240130904 ) ) ;
#118 = DESIGN_CONTEXT ( 'detailed design', #87, 'design' ) ;
#119 = VERTEX_POINT ( 'NONE', #162 ) ;
#120 = ORIENTED_EDGE ( 'NONE', *, *, #1063, .T. ) ;
#121 = EDGE_CURVE ( 'NONE', #1173, #519, #1287, .T. ) ;
#122 = DIRECTION ( 'NONE',  ( -1.156482317317871478E-16, 1.000000000000000000, 0.000000000000000000 ) ) ;
#123 = CARTESIAN_POINT ( 'NONE',  ( 14.99999999999999645, 2.520000000000004459, 15.63000000000000078 ) ) ;
#124 = CARTESIAN_POINT ( 'NONE',  ( -3.469446951953614189E-15, 15.00000000000000000, 15.63000000000000078 ) ) ;
#125 = ORIENTED_EDGE ( 'NONE', *, *, #209, .F. ) ;
#126 = DIRECTION ( 'NONE',  ( -1.000000000000000000, -0.000000000000000000, -0.000000000000000000 ) ) ;
#127 = ORIENTED_EDGE ( 'NONE', *, *, #780, .F. ) ;
#128 = DIRECTION ( 'NONE',  ( -1.000000000000000000, -3.469446951953614189E-16, 0.000000000000000000 ) ) ;
#129 = EDGE_CURVE ( 'NONE', #320, #1051, #271, .T. ) ;
#130 = VECTOR ( 'NONE', #314, 1000.000000000000000 ) ;
#131 = CARTESIAN_POINT ( 'NONE',  ( 5.499999999999992006, 15.14443851219902371, 17.77999999999999758 ) ) ;
#132 = CIRCLE ( 'NONE', #1159, 1.000000000000000888 ) ;
#133 = EDGE_LOOP ( 'NONE', ( #662, #1196, #745, #1026 ) ) ;
#134 = EDGE_LOOP ( 'NONE', ( #838, #120, #931, #948 ) ) ;
#135 = FACE_BOUND ( 'NONE', #1047, .T. ) ;
#136 = CALENDAR_DATE ( 2026, 22, 6 ) ;
#137 = LINE ( 'NONE', #144, #411 ) ;
#138 = EDGE_CURVE ( 'NONE', #17, #1298, #778, .T. ) ;
#139 = ORIENTED_EDGE ( 'NONE', *, *, #1087, .F. ) ;
#140 = CARTESIAN_POINT ( 'NONE',  ( 0.000000000000000000, 0.000000000000000000, 0.000000000000000000 ) ) ;
#141 = VERTEX_POINT ( 'NONE', #1083 ) ;
#142 = DIRECTION ( 'NONE',  ( -1.000000000000000000, 0.000000000000000000, 0.000000000000000000 ) ) ;
#143 = DATE_AND_TIME ( #136, #88 ) ;
#144 = CARTESIAN_POINT ( 'NONE',  ( 12.39999999999999503, 15.00000000000000000, 5.000000000000000000 ) ) ;
#145 = ORIENTED_EDGE ( 'NONE', *, *, #677, .F. ) ;
#146 = LINE ( 'NONE', #949, #1090 ) ;
#147 = EDGE_CURVE ( 'NONE', #1229, #407, #581, .T. ) ;
#148 = ORIENTED_EDGE ( 'NONE', *, *, #659, .T. ) ;
#149 = DIRECTION ( 'NONE',  ( -1.000000000000000000, -0.000000000000000000, -0.000000000000000000 ) ) ;
#150 = APPROVAL_DATE_TIME ( #348, #1316 ) ;
#151 = CARTESIAN_POINT ( 'NONE',  ( 6.046900596522656102, 12.84988253243346001, 15.77022233009595453 ) ) ;
#152 = AXIS2_PLACEMENT_3D ( 'NONE', #559, #548, #441 ) ;
#153 = AXIS2_PLACEMENT_3D ( 'NONE', #620, #293, #299 ) ;
#154 = ORIENTED_EDGE ( 'NONE', *, *, #785, .T. ) ;
#155 = VECTOR ( 'NONE', #1216, 1000.000000000000000 ) ;
#156 = VERTEX_POINT ( 'NONE', #983 ) ;
#157 = CC_DESIGN_PERSON_AND_ORGANIZATION_ASSIGNMENT ( #544, #1175, ( #200 ) ) ;
#158 = EDGE_CURVE ( 'NONE', #918, #1064, #1180, .T. ) ;
#159 = PLANE ( 'NONE',  #469 ) ;
#160 = APPROVAL_DATE_TIME ( #755, #599 ) ;
#161 = CARTESIAN_POINT ( 'NONE',  ( 5.934259525119089496, 13.07040001651099459, 14.67154724868183457 ) ) ;
#162 = CARTESIAN_POINT ( 'NONE',  ( 7.599999999999996092, 15.00000000000000000, 8.673617379884035472E-16 ) ) ;
#163 = VERTEX_POINT ( 'NONE', #715 ) ;
#164 = CARTESIAN_POINT ( 'NONE',  ( 5.499999999999992895, 14.99999999999999822, 17.78000000000000114 ) ) ;
#165 = DIRECTION ( 'NONE',  ( -2.312964634635746408E-16, 1.000000000000000000, 0.000000000000000000 ) ) ;
#166 = CARTESIAN_POINT ( 'NONE',  ( 20.00000000000001421, 2.520000000000006235, 15.63000000000000078 ) ) ;
#167 = VERTEX_POINT ( 'NONE', #812 ) ;
#168 = DIRECTION ( 'NONE',  ( 1.000000000000000000, 0.000000000000000000, 0.000000000000000000 ) ) ;
#169 = DIRECTION ( 'NONE',  ( 0.000000000000000000, 1.000000000000000000, 0.000000000000000000 ) ) ;
#170 = EDGE_CURVE ( 'NONE', #63, #1223, #1207, .T. ) ;
#171 = VECTOR ( 'NONE', #991, 1000.000000000000000 ) ;
#172 = CARTESIAN_POINT ( 'NONE',  ( 10.79999999999999361, 26.91999999999999460, 15.63000000000000078 ) ) ;
#173 = VECTOR ( 'NONE', #208, 1000.000000000000000 ) ;
#174 = ORIENTED_EDGE ( 'NONE', *, *, #945, .F. ) ;
#175 = CIRCLE ( 'NONE', #708, 2.200000000000000622 ) ;
#176 = DIRECTION ( 'NONE',  ( 0.000000000000000000, -1.000000000000000000, 0.000000000000000000 ) ) ;
#177 = CARTESIAN_POINT ( 'NONE',  ( 5.835982584397827466, 13.29177283901438855, 16.94289159963356894 ) ) ;
#178 = CARTESIAN_POINT ( 'NONE',  ( 14.99999999999999467, 15.00000000000000000, 13.48000000000000398 ) ) ;
#179 = EDGE_CURVE ( 'NONE', #1166, #797, #132, .T. ) ;
#180 = ORIENTED_EDGE ( 'NONE', *, *, #51, .T. ) ;
#181 = LINE ( 'NONE', #808, #171 ) ;
#182 = CYLINDRICAL_SURFACE ( 'NONE', #833, 2.200000000000000622 ) ;
#183 = CARTESIAN_POINT ( 'NONE',  ( 0.000000000000000000, 4.719999999999997975, 15.63000000000000078 ) ) ;
#184 = ORIENTED_EDGE ( 'NONE', *, *, #962, .T. ) ;
#185 = CARTESIAN_POINT ( 'NONE',  ( 1.999999999999993561, 27.99999999999999645, 19.00000000000000000 ) ) ;
#186 = B_SPLINE_CURVE_WITH_KNOTS ( 'NONE', 3,
 ( #279, #1169, #385, #970, #1275, #376, #486, #76, #690, #974, #782, #1295, #161, #680, #1190, #871, #465, #151, #275, #262, #885, #567, #65, #177, #685, #665, #1194, #1093, #591, #1086, #72, #1069, #254, #1279 ),
 .UNSPECIFIED., .F., .F.,
 ( 4, 2, 2, 2, 2, 2, 2, 2, 2, 2, 2, 2, 2, 2, 2, 2, 4 ),
 ( 0.006827804692162889322, 0.007253919137483988769, 0.007680033582805088216, 0.008106148028126187663, 0.008532262473447287110, 0.008958376918768386557, 0.009384491364089486004, 0.009810605809410587186, 0.01023672025473168490, 0.01066283470005278608, 0.01108894914537388379, 0.01151506359069498497, 0.01194117803601608442, 0.01236729248133718387, 0.01279340692665828332, 0.01321952137197938276, 0.01364563581730048221 ),
 .UNSPECIFIED. ) ;
#187 = FACE_OUTER_BOUND ( 'NONE', #1243, .T. ) ;
#188 = DIRECTION ( 'NONE',  ( 0.000000000000000000, 1.000000000000000000, -0.000000000000000000 ) ) ;
#189 = AXIS2_PLACEMENT_3D ( 'NONE', #437, #656, #1138 ) ;
#190 = ORIENTED_EDGE ( 'NONE', *, *, #6, .F. ) ;
#191 = VECTOR ( 'NONE', #221, 1000.000000000000000 ) ;
#192 = ORIENTED_EDGE ( 'NONE', *, *, #533, .F. ) ;
#193 = VECTOR ( 'NONE', #1228, 1000.000000000000000 ) ;
#194 = DIRECTION ( 'NONE',  ( 0.000000000000000000, 1.000000000000000000, 0.000000000000000000 ) ) ;
#195 = AXIS2_PLACEMENT_3D ( 'NONE', #444, #735, #234 ) ;
#196 = EDGE_CURVE ( 'NONE', #63, #1107, #318, .T. ) ;
#197 = CARTESIAN_POINT ( 'NONE',  ( 0.000000000000000000, 1.000000000000000000, 19.00000000000000000 ) ) ;
#198 = CARTESIAN_POINT ( 'NONE',  ( 12.39999999999999503, 15.00000000000000000, 3.500000000000000444 ) ) ;
#199 = VERTEX_POINT ( 'NONE', #198 ) ;
#200 = PRODUCT ( 'SideItemMount', 'SideItemMount', '', ( #556 ) ) ;
#201 = ORIENTED_EDGE ( 'NONE', *, *, #1188, .T. ) ;
#202 = CARTESIAN_POINT ( 'NONE',  ( 9.999999999999994671, 15.00000000000000000, 6.999999999999999112 ) ) ;
#203 = DIRECTION ( 'NONE',  ( 1.000000000000000000, 0.000000000000000000, 0.000000000000000000 ) ) ;
#204 = EDGE_CURVE ( 'NONE', #519, #1320, #1240, .T. ) ;
#205 = CARTESIAN_POINT ( 'NONE',  ( 19.99999999999999289, 30.00000000000000000, 0.000000000000000000 ) ) ;
#206 = ORIENTED_EDGE ( 'NONE', *, *, #769, .T. ) ;
#207 = CYLINDRICAL_SURFACE ( 'NONE', #1134, 4.500000000000000888 ) ;
#208 = DIRECTION ( 'NONE',  ( -0.000000000000000000, 0.000000000000000000, -1.000000000000000000 ) ) ;
#209 = EDGE_CURVE ( 'NONE', #814, #358, #940, .T. ) ;
#210 = DIRECTION ( 'NONE',  ( -0.000000000000000000, -0.000000000000000000, 1.000000000000000000 ) ) ;
#211 = ORIENTED_EDGE ( 'NONE', *, *, #408, .T. ) ;
#212 = ORIENTED_EDGE ( 'NONE', *, *, #1100, .F. ) ;
#213 = VECTOR ( 'NONE', #1048, 1000.000000000000000 ) ;
#214 = LINE ( 'NONE', #1245, #1177 ) ;
#215 = AXIS2_PLACEMENT_3D ( 'NONE', #616, #9, #510 ) ;
#216 = DIRECTION ( 'NONE',  ( -1.000000000000000000, -0.000000000000000000, -0.000000000000000000 ) ) ;
#217 = CARTESIAN_POINT ( 'NONE',  ( 6.046769677506410368, 17.14987674919973770, 15.77464524889997399 ) ) ;
#218 = EDGE_LOOP ( 'NONE', ( #802, #815 ) ) ;
#219 = ADVANCED_FACE ( 'NONE', ( #111 ), #82, .F. ) ;
#220 = PLANE ( 'NONE',  #501 ) ;
#221 = DIRECTION ( 'NONE',  ( -0.000000000000000000, -0.000000000000000000, 1.000000000000000000 ) ) ;
#222 = PLANE ( 'NONE',  #1073 ) ;
#223 = ORIENTED_EDGE ( 'NONE', *, *, #1074, .T. ) ;
#224 = LINE ( 'NONE', #908, #409 ) ;
#225 = EDGE_LOOP ( 'NONE', ( #619, #259, #402, #106, #446, #759 ) ) ;
#226 = DIRECTION ( 'NONE',  ( -0.000000000000000000, -0.000000000000000000, -1.000000000000000000 ) ) ;
#227 = CARTESIAN_POINT ( 'NONE',  ( 1.999999999999999556, 2.000000000000000000, 20.00000000000000000 ) ) ;
#228 = CARTESIAN_POINT ( 'NONE',  ( 10.79999999999999538, 4.720000000000000639, 15.63000000000000078 ) ) ;
#229 = VERTEX_POINT ( 'NONE', #93 ) ;
#230 = LINE ( 'NONE', #661, #326 ) ;
#231 = EDGE_LOOP ( 'NONE', ( #592, #305, #148, #569 ) ) ;
#232 = MANIFOLD_SOLID_BREP ( 'Boss-Extrude5', #1024 ) ;
#233 = EDGE_CURVE ( 'NONE', #1064, #506, #720, .T. ) ;
#234 = DIRECTION ( 'NONE',  ( -1.000000000000000000, -2.312964634635743450E-16, 0.000000000000000000 ) ) ;
#235 = CIRCLE ( 'NONE', #152, 2.200000000000000622 ) ;
#236 = VECTOR ( 'NONE', #1185, 1000.000000000000000 ) ;
#237 = ADVANCED_FACE ( 'NONE', ( #1005, #400, #311, #3 ), #323, .F. ) ;
#238 = COORDINATED_UNIVERSAL_TIME_OFFSET ( 10, 0, .AHEAD. ) ;
#239 = FACE_OUTER_BOUND ( 'NONE', #225, .T. ) ;
#240 = AXIS2_PLACEMENT_3D ( 'NONE', #1176, #1078, #890 ) ;
#241 = CIRCLE ( 'NONE', #880, 2.149999999999995470 ) ;
#242 = VERTEX_POINT ( 'NONE', #205 ) ;
#243 = CARTESIAN_POINT ( 'NONE',  ( 10.79999999999999361, 30.00000000000000000, 6.999999999999998224 ) ) ;
#244 = ORIENTED_EDGE ( 'NONE', *, *, #969, .T. ) ;
#245 = CARTESIAN_POINT ( 'NONE',  ( 1.999999999999993561, 28.99999999999999645, 20.00000000000000000 ) ) ;
#246 = CALENDAR_DATE ( 2026, 22, 6 ) ;
#247 = DIRECTION ( 'NONE',  ( 1.000000000000000000, 1.156482317317871478E-16, 0.000000000000000000 ) ) ;
#248 = EDGE_CURVE ( 'NONE', #1298, #1173, #794, .T. ) ;
#249 = ORIENTED_EDGE ( 'NONE', *, *, #518, .F. ) ;
#250 = DIRECTION ( 'NONE',  ( 0.000000000000000000, -1.000000000000000000, 0.000000000000000000 ) ) ;
#251 = VERTEX_POINT ( 'NONE', #706 ) ;
#252 = DIRECTION ( 'NONE',  ( 0.000000000000000000, 0.000000000000000000, -1.000000000000000000 ) ) ;
#253 = CALENDAR_DATE ( 2026, 22, 6 ) ;
#254 = CARTESIAN_POINT ( 'NONE',  ( 5.499999999999992895, 14.85577247321245409, 17.77999999999999403 ) ) ;
#255 = EDGE_CURVE ( 'NONE', #954, #251, #391, .T. ) ;
#256 = ORIENTED_EDGE ( 'NONE', *, *, #79, .T. ) ;
#257 = CYLINDRICAL_SURFACE ( 'NONE', #689, 2.000000000000000000 ) ;
#258 = EDGE_CURVE ( 'NONE', #1288, #156, #805, .T. ) ;
#259 = ORIENTED_EDGE ( 'NONE', *, *, #1293, .T. ) ;
#260 = FACE_OUTER_BOUND ( 'NONE', #517, .T. ) ;
#261 = COORDINATED_UNIVERSAL_TIME_OFFSET ( 10, 0, .AHEAD. ) ;
#262 = CARTESIAN_POINT ( 'NONE',  ( 6.009275287367113805, 12.92030500778651358, 16.19371280303017357 ) ) ;
#263 = AXIS2_PLACEMENT_3D ( 'NONE', #609, #1008, #718 ) ;
#264 = AXIS2_PLACEMENT_3D ( 'NONE', #228, #247, #1036 ) ;
#265 = FACE_OUTER_BOUND ( 'NONE', #846, .T. ) ;
#266 = CIRCLE ( 'NONE', #477, 2.200000000000000622 ) ;
#267 = VERTEX_POINT ( 'NONE', #1212 ) ;
#268 = DIRECTION ( 'NONE',  ( -1.000000000000000000, -3.469446951953614189E-16, -0.000000000000000000 ) ) ;
#269 = CALENDAR_DATE ( 2026, 22, 6 ) ;
#270 = DIRECTION ( 'NONE',  ( 0.000000000000000000, 1.000000000000000000, 0.000000000000000000 ) ) ;
#271 = LINE ( 'NONE', #166, #86 ) ;
#272 = ORIENTED_EDGE ( 'NONE', *, *, #1225, .T. ) ;
#273 = EDGE_CURVE ( 'NONE', #163, #844, #1126, .T. ) ;
#274 = DIRECTION ( 'NONE',  ( 0.000000000000000000, 0.000000000000000000, 1.000000000000000000 ) ) ;
#275 = CARTESIAN_POINT ( 'NONE',  ( 6.039121356338039703, 12.86400951246517010, 15.91363360537619620 ) ) ;
#276 = CARTESIAN_POINT ( 'NONE',  ( 14.99999999999999467, 15.00000000000000000, 15.63000000000000078 ) ) ;
#277 = ORIENTED_EDGE ( 'NONE', *, *, #179, .F. ) ;
#278 = DIRECTION ( 'NONE',  ( 0.000000000000000000, 1.000000000000000000, 0.000000000000000000 ) ) ;
#279 = CARTESIAN_POINT ( 'NONE',  ( 5.499999999999993783, 15.00000000000000000, 13.48000000000000398 ) ) ;
#280 = EDGE_CURVE ( 'NONE', #167, #84, #1113, .T. ) ;
#281 = AXIS2_PLACEMENT_3D ( 'NONE', #522, #216, #934 ) ;
#282 = CARTESIAN_POINT ( 'NONE',  ( 0.000000000000000000, 0.000000000000000000, 20.00000000000000000 ) ) ;
#283 = SECURITY_CLASSIFICATION ( '', '', #1183 ) ;
#284 = ORIENTED_EDGE ( 'NONE', *, *, #61, .F. ) ;
#285 = AXIS2_PLACEMENT_3D ( 'NONE', #470, #1290, #270 ) ;
#286 = CARTESIAN_POINT ( 'NONE',  ( 4.999999999999992895, 30.00000000000000000, 19.00000000000000000 ) ) ;
#287 = DIRECTION ( 'NONE',  ( 0.000000000000000000, 1.000000000000000000, 0.000000000000000000 ) ) ;
#288 = ADVANCED_FACE ( 'NONE', ( #515 ), #1106, .F. ) ;
#289 = CARTESIAN_POINT ( 'NONE',  ( 25.75920355077887791, 8.664506831479334027E-17, 6.999999999999999112 ) ) ;
#290 = CARTESIAN_POINT ( 'NONE',  ( 10.79999999999999538, 6.919999999999999041, 15.63000000000000078 ) ) ;
#291 = ORIENTED_EDGE ( 'NONE', *, *, #138, .F. ) ;
#292 = CARTESIAN_POINT ( 'NONE',  ( 10.79999999999999361, 28.99999999999999645, 19.00000000000000000 ) ) ;
#293 = DIRECTION ( 'NONE',  ( 3.343628375672285075E-33, -2.891205793294678696E-17, 1.000000000000000000 ) ) ;
#294 = CARTESIAN_POINT ( 'NONE',  ( 1.999999999999999556, 2.000000000000000000, 19.00000000000000000 ) ) ;
#295 = EDGE_CURVE ( 'NONE', #1213, #119, #587, .T. ) ;
#296 = VERTEX_POINT ( 'NONE', #993 ) ;
#297 = EDGE_CURVE ( 'NONE', #1213, #199, #137, .T. ) ;
#298 = CARTESIAN_POINT ( 'NONE',  ( 10.79999999999999716, 1.100139641038620215E-15, 6.999999999999999112 ) ) ;
#299 = DIRECTION ( 'NONE',  ( 0.000000000000000000, 1.000000000000000000, 0.000000000000000000 ) ) ;
#300 = CARTESIAN_POINT ( 'NONE',  ( 10.79999999999999538, 19.42831796509690534, 21.00000000000000000 ) ) ;
#301 = EDGE_LOOP ( 'NONE', ( #1250, #716, #201, #365, #687 ) ) ;
#302 = AXIS2_PLACEMENT_3D ( 'NONE', #851, #654, #839 ) ;
#303 = CIRCLE ( 'NONE', #46, 2.149999999999999023 ) ;
#304 = APPROVAL_PERSON_ORGANIZATION ( #1152, #531, #869 ) ;
#305 = ORIENTED_EDGE ( 'NONE', *, *, #926, .T. ) ;
#306 = VECTOR ( 'NONE', #551, 1000.000000000000000 ) ;
#307 = EDGE_CURVE ( 'NONE', #825, #1033, #349, .T. ) ;
#308 = FACE_OUTER_BOUND ( 'NONE', #133, .T. ) ;
#309 = AXIS2_PLACEMENT_3D ( 'NONE', #468, #52, #168 ) ;
#310 = DIRECTION ( 'NONE',  ( 1.000000000000000000, 1.156482317317871478E-16, 0.000000000000000000 ) ) ;
#311 = FACE_OUTER_BOUND ( 'NONE', #134, .T. ) ;
#312 = ORIENTED_EDGE ( 'NONE', *, *, #233, .F. ) ;
#313 = EDGE_LOOP ( 'NONE', ( #1059, #344, #1072, #524, #721, #440, #824, #593 ) ) ;
#314 = DIRECTION ( 'NONE',  ( 1.000000000000000000, -0.000000000000000000, -0.000000000000000000 ) ) ;
#315 = EDGE_CURVE ( 'NONE', #320, #1256, #878, .T. ) ;
#316 = CYLINDRICAL_SURFACE ( 'NONE', #498, 2.399999999999999467 ) ;
#317 = DIRECTION ( 'NONE',  ( -0.000000000000000000, 0.000000000000000000, 1.000000000000000000 ) ) ;
#318 = LINE ( 'NONE', #1115, #193 ) ;
#319 = ORIENTED_EDGE ( 'NONE', *, *, #1242, .T. ) ;
#320 = VERTEX_POINT ( 'NONE', #32 ) ;
#321 = DIRECTION ( 'NONE',  ( 1.000000000000000000, 0.000000000000000000, 0.000000000000000000 ) ) ;
#322 = CARTESIAN_POINT ( 'NONE',  ( 10.79999999999999716, 1.000000000000000666, 20.00000000000000000 ) ) ;
#323 = PLANE ( 'NONE',  #541 ) ;
#324 = EDGE_CURVE ( 'NONE', #1039, #63, #958, .T. ) ;
#325 = ORIENTED_EDGE ( 'NONE', *, *, #33, .F. ) ;
#326 = VECTOR ( 'NONE', #455, 1000.000000000000000 ) ;
#327 = LOCAL_TIME ( 18, 50, 25.00000000000000000, #261 ) ;
#328 = VECTOR ( 'NONE', #1313, 1000.000000000000000 ) ;
#329 = DIRECTION ( 'NONE',  ( -3.469446951953614189E-16, 1.000000000000000000, 0.000000000000000000 ) ) ;
#330 = AXIS2_PLACEMENT_3D ( 'NONE', #57, #463, #1278 ) ;
#331 = CARTESIAN_POINT ( 'NONE',  ( 20.00000000000000711, 26.92000000000000171, 15.63000000000000078 ) ) ;
#332 = CARTESIAN_POINT ( 'NONE',  ( 5.625666281154162007, 16.08820719983548386, 13.75473434625087066 ) ) ;
#333 = ADVANCED_FACE ( 'NONE', ( #843 ), #222, .T. ) ;
#334 = ORIENTED_EDGE ( 'NONE', *, *, #280, .F. ) ;
#335 = DIRECTION ( 'NONE',  ( 1.000000000000000000, 0.000000000000000000, 0.000000000000000000 ) ) ;
#336 = LINE ( 'NONE', #796, #191 ) ;
#337 = FACE_OUTER_BOUND ( 'NONE', #382, .T. ) ;
#338 = ORIENTED_EDGE ( 'NONE', *, *, #1170, .T. ) ;
#339 = LINE ( 'NONE', #938, #1 ) ;
#340 = ORIENTED_EDGE ( 'NONE', *, *, #442, .F. ) ;
#341 = ADVANCED_FACE ( 'NONE', ( #858 ), #658, .F. ) ;
#342 = DIRECTION ( 'NONE',  ( -1.000000000000000000, -0.000000000000000000, -0.000000000000000000 ) ) ;
#343 = DIRECTION ( 'NONE',  ( -1.000000000000000000, -3.469446951953614189E-16, -0.000000000000000000 ) ) ;
#344 = ORIENTED_EDGE ( 'NONE', *, *, #800, .F. ) ;
#345 = DIRECTION ( 'NONE',  ( -1.000000000000000000, 0.000000000000000000, 0.000000000000000000 ) ) ;
#346 = EDGE_LOOP ( 'NONE', ( #636, #1204 ) ) ;
#347 = CARTESIAN_POINT ( 'NONE',  ( 14.99999999999999467, 0.000000000000000000, 20.00000000000000000 ) ) ;
#348 = DATE_AND_TIME ( #253, #23 ) ;
#349 = LINE ( 'NONE', #1163, #453 ) ;
#350 = AXIS2_PLACEMENT_3D ( 'NONE', #579, #879, #981 ) ;
#351 = ORIENTED_EDGE ( 'NONE', *, *, #990, .T. ) ;
#352 = DIRECTION ( 'NONE',  ( 3.469446951953614189E-16, -1.000000000000000000, -0.000000000000000000 ) ) ;
#353 = VERTEX_POINT ( 'NONE', #642 ) ;
#354 = DIRECTION ( 'NONE',  ( 0.000000000000000000, 0.000000000000000000, -1.000000000000000000 ) ) ;
#355 = EDGE_CURVE ( 'NONE', #825, #407, #1318, .T. ) ;
#356 = APPROVAL_STATUS ( 'not_yet_approved' ) ;
#357 = CARTESIAN_POINT ( 'NONE',  ( 5.987057143620276634, 17.03713050859709455, 16.33150373931172794 ) ) ;
#358 = VERTEX_POINT ( 'NONE', #1247 ) ;
#359 = DIRECTION ( 'NONE',  ( 0.000000000000000000, 1.000000000000000000, 0.000000000000000000 ) ) ;
#360 = ORIENTED_EDGE ( 'NONE', *, *, #384, .T. ) ;
#361 = CARTESIAN_POINT ( 'NONE',  ( 20.00000000000001421, 4.720000000000004192, 15.63000000000000078 ) ) ;
#362 = CARTESIAN_POINT ( 'NONE',  ( 7.599999999999996092, 15.00000000000000000, 3.500000000000000444 ) ) ;
#363 = EDGE_CURVE ( 'NONE', #358, #1248, #935, .T. ) ;
#364 = DIRECTION ( 'NONE',  ( -2.312964634635743450E-16, 1.000000000000000000, 0.000000000000000000 ) ) ;
#365 = ORIENTED_EDGE ( 'NONE', *, *, #138, .T. ) ;
#366 = LINE ( 'NONE', #772, #650 ) ;
#367 = CIRCLE ( 'NONE', #810, 2.399999999999999467 ) ;
#368 = COORDINATED_UNIVERSAL_TIME_OFFSET ( 10, 0, .AHEAD. ) ;
#369 = CARTESIAN_POINT ( 'NONE',  ( 5.499999999999993783, 15.00000000000000000, 13.48000000000000398 ) ) ;
#370 = VECTOR ( 'NONE', #1012, 1000.000000000000000 ) ;
#371 = CARTESIAN_POINT ( 'NONE',  ( 1.999999999999999556, 0.000000000000000000, 19.00000000000000000 ) ) ;
#372 = AXIS2_PLACEMENT_3D ( 'NONE', #1053, #841, #1144 ) ;
#373 = ADVANCED_FACE ( 'NONE', ( #337 ), #946, .F. ) ;
#374 = ORIENTED_EDGE ( 'NONE', *, *, #863, .F. ) ;
#375 = LINE ( 'NONE', #1189, #584 ) ;
#376 = CARTESIAN_POINT ( 'NONE',  ( 5.601970992856732501, 14.03821802338392999, 13.70190338345600978 ) ) ;
#377 = DIRECTION ( 'NONE',  ( -0.000000000000000000, -0.000000000000000000, 1.000000000000000000 ) ) ;
#378 = ORIENTED_EDGE ( 'NONE', *, *, #975, .T. ) ;
#379 = ADVANCED_FACE ( 'NONE', ( #1153, #239 ), #953, .T. ) ;
#380 = DIRECTION ( 'NONE',  ( 0.000000000000000000, -0.000000000000000000, -1.000000000000000000 ) ) ;
#381 = CYLINDRICAL_SURFACE ( 'NONE', #916, 2.000000000000000000 ) ;
#382 = EDGE_LOOP ( 'NONE', ( #967, #630, #112, #174 ) ) ;
#383 = CYLINDRICAL_SURFACE ( 'NONE', #726, 2.200000000000000622 ) ;
#384 = EDGE_CURVE ( 'NONE', #199, #410, #475, .T. ) ;
#385 = CARTESIAN_POINT ( 'NONE',  ( 5.506978311731549169, 14.71306917261788172, 13.49449964534350599 ) ) ;
#386 =( GEOMETRIC_REPRESENTATION_CONTEXT ( 3 ) GLOBAL_UNCERTAINTY_ASSIGNED_CONTEXT ( ( #1135 ) ) GLOBAL_UNIT_ASSIGNED_CONTEXT ( ( #995, #83, #1227 ) ) REPRESENTATION_CONTEXT ( 'NONE', 'WORKASPACE' ) );
#387 = DIRECTION ( 'NONE',  ( -1.000000000000000000, 0.000000000000000000, -0.000000000000000000 ) ) ;
#388 = CIRCLE ( 'NONE', #285, 2.149999999999999023 ) ;
#389 = DIRECTION ( 'NONE',  ( 0.000000000000000000, -1.000000000000000000, 0.000000000000000000 ) ) ;
#390 = VERTEX_POINT ( 'NONE', #987 ) ;
#391 = CIRCLE ( 'NONE', #215, 1.000000000000000888 ) ;
#392 = DIRECTION ( 'NONE',  ( -1.000000000000000000, -3.469446951953614189E-16, -0.000000000000000000 ) ) ;
#393 = CARTESIAN_POINT ( 'NONE',  ( 14.99999999999999645, 4.720000000000002416, 15.63000000000000078 ) ) ;
#394 = EDGE_CURVE ( 'NONE', #1179, #390, #766, .T. ) ;
#395 = DIRECTION ( 'NONE',  ( 1.000000000000000000, 2.312964634635742957E-16, -0.000000000000000000 ) ) ;
#396 = EDGE_CURVE ( 'NONE', #1033, #956, #1264, .T. ) ;
#397 = ORIENTED_EDGE ( 'NONE', *, *, #600, .T. ) ;
#398 = CARTESIAN_POINT ( 'NONE',  ( 14.99999999999999645, 6.920000000000000817, 15.63000000000000078 ) ) ;
#399 = LINE ( 'NONE', #610, #1004 ) ;
#400 = FACE_BOUND ( 'NONE', #613, .T. ) ;
#401 = EDGE_CURVE ( 'NONE', #407, #825, #186, .T. ) ;
#402 = ORIENTED_EDGE ( 'NONE', *, *, #1170, .F. ) ;
#403 = CYLINDRICAL_SURFACE ( 'NONE', #85, 1.000000000000000888 ) ;
#404 = DIRECTION ( 'NONE',  ( 1.000000000000000000, 0.000000000000000000, 0.000000000000000000 ) ) ;
#405 = DIRECTION ( 'NONE',  ( 0.000000000000000000, 1.000000000000000000, 0.000000000000000000 ) ) ;
#406 = VECTOR ( 'NONE', #329, 1000.000000000000000 ) ;
#407 = VERTEX_POINT ( 'NONE', #369 ) ;
#408 = EDGE_CURVE ( 'NONE', #1256, #734, #54, .T. ) ;
#409 = VECTOR ( 'NONE', #1104, 1000.000000000000000 ) ;
#410 = VERTEX_POINT ( 'NONE', #362 ) ;
#411 = VECTOR ( 'NONE', #1146, 1000.000000000000000 ) ;
#412 = DIRECTION ( 'NONE',  ( 1.000000000000000000, 0.000000000000000000, 0.000000000000000000 ) ) ;
#413 = VECTOR ( 'NONE', #226, 1000.000000000000000 ) ;
#414 = DIRECTION ( 'NONE',  ( 0.000000000000000000, 1.000000000000000000, 0.000000000000000000 ) ) ;
#415 = CARTESIAN_POINT ( 'NONE',  ( 1.999999999999993561, 28.99999999999999645, 19.00000000000000000 ) ) ;
#416 = ORIENTED_EDGE ( 'NONE', *, *, #997, .T. ) ;
#417 = ORIENTED_EDGE ( 'NONE', *, *, #651, .T. ) ;
#418 = EDGE_CURVE ( 'NONE', #296, #479, #175, .T. ) ;
#419 = FACE_OUTER_BOUND ( 'NONE', #985, .T. ) ;
#420 = DIRECTION ( 'NONE',  ( 0.000000000000000000, -0.000000000000000000, 1.000000000000000000 ) ) ;
#421 = ORIENTED_EDGE ( 'NONE', *, *, #324, .F. ) ;
#422 = EDGE_LOOP ( 'NONE', ( #192, #883, #1265, #1019 ) ) ;
#423 = LINE ( 'NONE', #245, #1181 ) ;
#424 = LINE ( 'NONE', #331, #791 ) ;
#425 = CARTESIAN_POINT ( 'NONE',  ( 5.902638123166825679, 16.86246170080912421, 14.54690705455520927 ) ) ;
#426 = EDGE_LOOP ( 'NONE', ( #937, #1102, #612, #284 ) ) ;
#427 = VECTOR ( 'NONE', #392, 1000.000000000000000 ) ;
#428 = FACE_OUTER_BOUND ( 'NONE', #729, .T. ) ;
#429 = CIRCLE ( 'NONE', #730, 2.200000000000000622 ) ;
#430 = CYLINDRICAL_SURFACE ( 'NONE', #669, 2.200000000000000622 ) ;
#431 = EDGE_CURVE ( 'NONE', #56, #1007, #388, .T. ) ;
#432 = CARTESIAN_POINT ( 'NONE',  ( 5.499999999999993783, 15.00000000000000000, 13.48000000000000398 ) ) ;
#433 = EDGE_CURVE ( 'NONE', #50, #229, #69, .T. ) ;
#434 = ORIENTED_EDGE ( 'NONE', *, *, #33, .T. ) ;
#435 = CARTESIAN_POINT ( 'NONE',  ( 10.79999999999999716, 2.023844055306273608E-17, 19.00000000000000000 ) ) ;
#436 = EDGE_LOOP ( 'NONE', ( #125, #378, #105, #692 ) ) ;
#437 = CARTESIAN_POINT ( 'NONE',  ( 14.99999999999999645, 1.734723475976806700E-15, 20.00000000000000000 ) ) ;
#438 = DATE_TIME_ROLE ( 'classification_date' ) ;
#439 = DIRECTION ( 'NONE',  ( -0.000000000000000000, 0.000000000000000000, 1.000000000000000000 ) ) ;
#440 = ORIENTED_EDGE ( 'NONE', *, *, #741, .F. ) ;
#441 = DIRECTION ( 'NONE',  ( 0.000000000000000000, 1.000000000000000000, 0.000000000000000000 ) ) ;
#442 = EDGE_CURVE ( 'NONE', #797, #1064, #963, .T. ) ;
#443 = ORIENTED_EDGE ( 'NONE', *, *, #919, .F. ) ;
#444 = CARTESIAN_POINT ( 'NONE',  ( 1.000000000000000000, 2.312964634635743450E-16, 19.00000000000000000 ) ) ;
#445 = CARTESIAN_POINT ( 'NONE',  ( 5.987385291701865953, 17.03779711829392340, 14.93011128487703232 ) ) ;
#446 = ORIENTED_EDGE ( 'NONE', *, *, #1056, .F. ) ;
#447 = DIRECTION ( 'NONE',  ( 1.000000000000000000, 1.156482317317871478E-16, 0.000000000000000000 ) ) ;
#448 = ORIENTED_EDGE ( 'NONE', *, *, #631, .F. ) ;
#449 = ADVANCED_FACE ( 'NONE', ( #481 ), #1092, .T. ) ;
#450 = AXIS2_PLACEMENT_3D ( 'NONE', #892, #1203, #15 ) ;
#451 = FACE_BOUND ( 'NONE', #1070, .T. ) ;
#452 = CARTESIAN_POINT ( 'NONE',  ( 5.506932130186042329, 15.28605970988606799, 17.76559607542467489 ) ) ;
#453 = VECTOR ( 'NONE', #1044, 1000.000000000000000 ) ;
#454 = EDGE_LOOP ( 'NONE', ( #1121, #448, #902, #709 ) ) ;
#455 = DIRECTION ( 'NONE',  ( 0.000000000000000000, -0.000000000000000000, 1.000000000000000000 ) ) ;
#456 = ORIENTED_EDGE ( 'NONE', *, *, #677, .T. ) ;
#457 = FACE_OUTER_BOUND ( 'NONE', #231, .T. ) ;
#458 = ADVANCED_FACE ( 'NONE', ( #514 ), #316, .F. ) ;
#459 = COORDINATED_UNIVERSAL_TIME_OFFSET ( 10, 0, .AHEAD. ) ;
#460 = DIRECTION ( 'NONE',  ( 2.312964634635742957E-16, -1.000000000000000000, -0.000000000000000000 ) ) ;
#461 = DIRECTION ( 'NONE',  ( -2.312964634635743450E-16, 1.000000000000000000, 0.000000000000000000 ) ) ;
#462 = ORIENTED_EDGE ( 'NONE', *, *, #158, .F. ) ;
#463 = DIRECTION ( 'NONE',  ( -1.000000000000000000, -3.469446951953614189E-16, -0.000000000000000000 ) ) ;
#464 = PERSON_AND_ORGANIZATION ( #18446744073709551615, #18446744073709551615 ) ;
#465 = CARTESIAN_POINT ( 'NONE',  ( 6.046772012591036471, 12.85011895732015752, 15.48619830140738252 ) ) ;
#466 = LINE ( 'NONE', #282, #707 ) ;
#467 = EDGE_LOOP ( 'NONE', ( #291, #1262, #853, #1141, #764, #1277, #1192, #272, #206 ) ) ;
#468 = CARTESIAN_POINT ( 'NONE',  ( 9.999999999999994671, 15.00000000000000000, 3.500000000000000444 ) ) ;
#469 = AXIS2_PLACEMENT_3D ( 'NONE', #42, #1273, #380 ) ;
#470 = CARTESIAN_POINT ( 'NONE',  ( 14.99999999999999467, 15.00000000000000000, 15.63000000000000078 ) ) ;
#471 = AXIS2_PLACEMENT_3D ( 'NONE', #634, #827, #835 ) ;
#472 = CIRCLE ( 'NONE', #896, 2.199999999999997957 ) ;
#473 = ADVANCED_FACE ( 'NONE', ( #1219 ), #521, .T. ) ;
#474 = CC_DESIGN_APPROVAL ( #599, ( #45 ) ) ;
#475 = CIRCLE ( 'NONE', #774, 2.399999999999999467 ) ;
#476 = DIRECTION ( 'NONE',  ( -1.000000000000000000, 0.000000000000000000, -0.000000000000000000 ) ) ;
#477 = AXIS2_PLACEMENT_3D ( 'NONE', #973, #1091, #278 ) ;
#478 = EDGE_CURVE ( 'NONE', #1248, #976, #1136, .T. ) ;
#479 = VERTEX_POINT ( 'NONE', #913 ) ;
#480 = CARTESIAN_POINT ( 'NONE',  ( 1.999999999999993561, 28.99999999999999645, 20.00000000000000000 ) ) ;
#481 = FACE_OUTER_BOUND ( 'NONE', #78, .T. ) ;
#482 = ORIENTED_EDGE ( 'NONE', *, *, #129, .F. ) ;
#483 = ORIENTED_EDGE ( 'NONE', *, *, #196, .F. ) ;
#484 = ADVANCED_FACE ( 'NONE', ( #1119 ), #207, .F. ) ;
#485 = DIRECTION ( 'NONE',  ( -1.000000000000000000, -3.469446951953614189E-16, -0.000000000000000000 ) ) ;
#486 = CARTESIAN_POINT ( 'NONE',  ( 5.631223198697451693, 13.91460362202735368, 13.76889539997639389 ) ) ;
#487 = CARTESIAN_POINT ( 'NONE',  ( 1.999999999999993561, 30.00000000000000000, 5.000000000000000000 ) ) ;
#488 = DIRECTION ( 'NONE',  ( 1.000000000000000000, 0.000000000000000000, 0.000000000000000000 ) ) ;
#489 = VERTEX_POINT ( 'NONE', #714 ) ;
#490 = EDGE_CURVE ( 'NONE', #1288, #353, #1300, .T. ) ;
#491 = PLANE ( 'NONE',  #771 ) ;
#492 = EDGE_CURVE ( 'NONE', #84, #296, #1226, .T. ) ;
#493 = FACE_OUTER_BOUND ( 'NONE', #422, .T. ) ;
#494 = AXIS2_PLACEMENT_3D ( 'NONE', #1132, #1035, #527 ) ;
#495 = CARTESIAN_POINT ( 'NONE',  ( 9.999999999999994671, 15.00000000000000000, 8.673617379884035472E-16 ) ) ;
#496 = CIRCLE ( 'NONE', #1218, 2.199999999999997957 ) ;
#497 = APPROVAL_PERSON_ORGANIZATION ( #566, #1316, #1068 ) ;
#498 = AXIS2_PLACEMENT_3D ( 'NONE', #1010, #595, #992 ) ;
#499 = CARTESIAN_POINT ( 'NONE',  ( 14.99999999999999645, 1.734723475976806700E-15, 20.00000000000000000 ) ) ;
#500 = ORIENTED_EDGE ( 'NONE', *, *, #297, .F. ) ;
#501 = AXIS2_PLACEMENT_3D ( 'NONE', #37, #1130, #122 ) ;
#502 = CARTESIAN_POINT ( 'NONE',  ( -3.469446951953614189E-15, 15.00000000000000000, 13.48000000000000398 ) ) ;
#503 = DIRECTION ( 'NONE',  ( -1.000000000000000000, 0.000000000000000000, 0.000000000000000000 ) ) ;
#504 = ADVANCED_FACE ( 'NONE', ( #719 ), #799, .T. ) ;
#505 = DIRECTION ( 'NONE',  ( 1.000000000000000000, 1.156482317317871478E-16, 0.000000000000000000 ) ) ;
#506 = VERTEX_POINT ( 'NONE', #1308 ) ;
#507 = ORIENTED_EDGE ( 'NONE', *, *, #1257, .F. ) ;
#508 = CARTESIAN_POINT ( 'NONE',  ( 14.99999999999999289, 30.00000000000000000, 20.00000000000000000 ) ) ;
#509 = CARTESIAN_POINT ( 'NONE',  ( 1.999999999999999556, 0.000000000000000000, 19.00000000000000000 ) ) ;
#510 = DIRECTION ( 'NONE',  ( 0.000000000000000000, 1.000000000000000000, 0.000000000000000000 ) ) ;
#511 = EDGE_LOOP ( 'NONE', ( #861, #1128, #850, #893, #1084, #570, #94, #456, #653 ) ) ;
#512 = ORIENTED_EDGE ( 'NONE', *, *, #61, .T. ) ;
#513 = LINE ( 'NONE', #298, #645 ) ;
#514 = FACE_OUTER_BOUND ( 'NONE', #924, .T. ) ;
#515 = FACE_OUTER_BOUND ( 'NONE', #426, .T. ) ;
#516 = CIRCLE ( 'NONE', #1261, 1.000000000000000000 ) ;
#517 = EDGE_LOOP ( 'NONE', ( #1306, #211, #1214, #482 ) ) ;
#518 = EDGE_CURVE ( 'NONE', #267, #11, #607, .T. ) ;
#519 = VERTEX_POINT ( 'NONE', #509 ) ;
#520 = AXIS2_PLACEMENT_3D ( 'NONE', #909, #2, #203 ) ;
#521 = PLANE ( 'NONE',  #1200 ) ;
#522 = CARTESIAN_POINT ( 'NONE',  ( -3.469446951953614189E-15, 15.00000000000000000, 15.63000000000000078 ) ) ;
#523 = CARTESIAN_POINT ( 'NONE',  ( 0.000000000000000000, 0.000000000000000000, 5.000000000000000000 ) ) ;
#524 = ORIENTED_EDGE ( 'NONE', *, *, #947, .T. ) ;
#525 = ORIENTED_EDGE ( 'NONE', *, *, #1094, .F. ) ;
#526 = CYLINDRICAL_SURFACE ( 'NONE', #1052, 2.399999999999999467 ) ;
#527 = DIRECTION ( 'NONE',  ( 1.000000000000000000, 0.000000000000000000, 0.000000000000000000 ) ) ;
#528 = CARTESIAN_POINT ( 'NONE',  ( 0.000000000000000000, 0.000000000000000000, 20.00000000000000000 ) ) ;
#529 = ORIENTED_EDGE ( 'NONE', *, *, #158, .T. ) ;
#530 = ORIENTED_EDGE ( 'NONE', *, *, #580, .T. ) ;
#531 = APPROVAL ( #857, 'Coincident' ) ;
#532 = FACE_BOUND ( 'NONE', #1137, .T. ) ;
#533 = EDGE_CURVE ( 'NONE', #1129, #489, #1241, .T. ) ;
#534 = CARTESIAN_POINT ( 'NONE',  ( 5.499999999999994671, 15.00000000000000000, 5.000000000000000000 ) ) ;
#535 = CARTESIAN_POINT ( 'NONE',  ( 5.499999999999992006, 15.28482512998608023, 13.47999999999999865 ) ) ;
#536 = ORIENTED_EDGE ( 'NONE', *, *, #280, .T. ) ;
#537 = LINE ( 'NONE', #637, #213 ) ;
#538 = VECTOR ( 'NONE', #822, 1000.000000000000000 ) ;
#539 = ORIENTED_EDGE ( 'NONE', *, *, #492, .T. ) ;
#540 = AXIS2_PLACEMENT_3D ( 'NONE', #1022, #922, #1030 ) ;
#541 = AXIS2_PLACEMENT_3D ( 'NONE', #523, #395, #725 ) ;
#542 = CARTESIAN_POINT ( 'NONE',  ( -5.088522196198629871E-16, 6.919999999999995488, 15.63000000000000078 ) ) ;
#543 = AXIS2_PLACEMENT_3D ( 'NONE', #555, #957, #321 ) ;
#544 = PERSON_AND_ORGANIZATION ( #18446744073709551615, #18446744073709551615 ) ;
#545 = CARTESIAN_POINT ( 'NONE',  ( 5.533304018427878113, 15.56401777328564506, 17.70953954191962154 ) ) ;
#546 = ADVANCED_FACE ( 'NONE', ( #704 ), #1303, .F. ) ;
#547 = ORIENTED_EDGE ( 'NONE', *, *, #401, .T. ) ;
#548 = DIRECTION ( 'NONE',  ( -1.000000000000000000, -1.156482317317871478E-16, 0.000000000000000000 ) ) ;
#549 = ORIENTED_EDGE ( 'NONE', *, *, #906, .F. ) ;
#550 = LINE ( 'NONE', #943, #406 ) ;
#551 = DIRECTION ( 'NONE',  ( -1.000000000000000000, -3.469446951953614189E-16, -0.000000000000000000 ) ) ;
#552 = ORIENTED_EDGE ( 'NONE', *, *, #933, .T. ) ;
#553 = DIRECTION ( 'NONE',  ( 1.000000000000000000, 1.156482317317871478E-16, 0.000000000000000000 ) ) ;
#554 = ORIENTED_EDGE ( 'NONE', *, *, #355, .F. ) ;
#555 = CARTESIAN_POINT ( 'NONE',  ( 9.999999999999994671, 15.00000000000000000, 20.00000000000000000 ) ) ;
#556 = MECHANICAL_CONTEXT ( 'NONE', #994, 'mechanical' ) ;
#557 = DIRECTION ( 'NONE',  ( 1.000000000000000000, 0.000000000000000000, 0.000000000000000000 ) ) ;
#558 = ORIENTED_EDGE ( 'NONE', *, *, #12, .T. ) ;
#559 = CARTESIAN_POINT ( 'NONE',  ( 14.99999999999999289, 24.71999999999999886, 15.63000000000000078 ) ) ;
#560 = CC_DESIGN_PERSON_AND_ORGANIZATION_ASSIGNMENT ( #657, #1061, ( #45 ) ) ;
#561 = ORIENTED_EDGE ( 'NONE', *, *, #433, .F. ) ;
#562 = ADVANCED_FACE ( 'NONE', ( #187 ), #182, .F. ) ;
#563 = CIRCLE ( 'NONE', #471, 2.149999999999995470 ) ;
#564 = CARTESIAN_POINT ( 'NONE',  ( -6.476300976980080082E-15, 27.99999999999999645, 5.000000000000000000 ) ) ;
#565 = VECTOR ( 'NONE', #701, 1000.000000000000000 ) ;
#566 = PERSON_AND_ORGANIZATION ( #18446744073709551615, #18446744073709551615 ) ;
#567 = CARTESIAN_POINT ( 'NONE',  ( 5.934390830624964863, 13.07011222488479341, 16.58802916212401257 ) ) ;
#568 = AXIS2_PLACEMENT_3D ( 'NONE', #695, #1112, #404 ) ;
#569 = ORIENTED_EDGE ( 'NONE', *, *, #307, .F. ) ;
#570 = ORIENTED_EDGE ( 'NONE', *, *, #533, .T. ) ;
#571 = ADVANCED_FACE ( 'NONE', ( #493 ), #897, .T. ) ;
#572 = DIRECTION ( 'NONE',  ( -1.000000000000000000, -3.469446951953614189E-16, -0.000000000000000000 ) ) ;
#573 = CARTESIAN_POINT ( 'NONE',  ( 0.000000000000000000, 0.000000000000000000, 0.000000000000000000 ) ) ;
#574 = DIRECTION ( 'NONE',  ( -1.000000000000000000, -3.469446951953614189E-16, -0.000000000000000000 ) ) ;
#575 = ORIENTED_EDGE ( 'NONE', *, *, #933, .F. ) ;
#576 = EDGE_LOOP ( 'NONE', ( #139, #693 ) ) ;
#577 = CARTESIAN_POINT ( 'NONE',  ( -3.469446951953614189E-15, 15.00000000000000000, 15.63000000000000078 ) ) ;
#578 = EDGE_CURVE ( 'NONE', #519, #141, #777, .T. ) ;
#579 = CARTESIAN_POINT ( 'NONE',  ( 1.999999999999993561, 27.99999999999999645, 20.00000000000000000 ) ) ;
#580 = EDGE_CURVE ( 'NONE', #489, #4, #399, .T. ) ;
#581 = LINE ( 'NONE', #66, #832 ) ;
#582 = ORIENTED_EDGE ( 'NONE', *, *, #785, .F. ) ;
#583 = CARTESIAN_POINT ( 'NONE',  ( -6.938893903907228378E-15, 24.71999999999999531, 15.63000000000000078 ) ) ;
#584 = VECTOR ( 'NONE', #274, 1000.000000000000000 ) ;
#585 = CARTESIAN_POINT ( 'NONE',  ( -6.938893903907228378E-15, 24.71999999999999531, 15.63000000000000078 ) ) ;
#586 = CIRCLE ( 'NONE', #603, 2.199999999999998845 ) ;
#587 = CIRCLE ( 'NONE', #752, 2.399999999999999467 ) ;
#588 = CARTESIAN_POINT ( 'NONE',  ( 10.79999999999999361, 28.99999999999999645, 20.00000000000000000 ) ) ;
#589 = ORIENTED_EDGE ( 'NONE', *, *, #248, .F. ) ;
#590 = DIRECTION ( 'NONE',  ( -1.000000000000000000, -3.469446951953614189E-16, 0.000000000000000000 ) ) ;
#591 = CARTESIAN_POINT ( 'NONE',  ( 5.601868352220856551, 14.03880844014870455, 17.55832303125803762 ) ) ;
#592 = ORIENTED_EDGE ( 'NONE', *, *, #401, .F. ) ;
#593 = ORIENTED_EDGE ( 'NONE', *, *, #355, .T. ) ;
#594 = CARTESIAN_POINT ( 'NONE',  ( 9.999999999999994671, 15.00000000000000000, 3.500000000000000444 ) ) ;
#595 = DIRECTION ( 'NONE',  ( -0.000000000000000000, -0.000000000000000000, 1.000000000000000000 ) ) ;
#596 = CARTESIAN_POINT ( 'NONE',  ( 20.00000000000001421, 4.720000000000004192, 15.63000000000000078 ) ) ;
#597 = DIRECTION ( 'NONE',  ( 1.000000000000000000, 0.000000000000000000, 0.000000000000000000 ) ) ;
#598 = ORIENTED_EDGE ( 'NONE', *, *, #307, .T. ) ;
#599 = APPROVAL ( #775, 'Coincident' ) ;
#600 = EDGE_CURVE ( 'NONE', #100, #242, #103, .T. ) ;
#601 = DIRECTION ( 'NONE',  ( 0.000000000000000000, 0.000000000000000000, -1.000000000000000000 ) ) ;
#602 = DIRECTION ( 'NONE',  ( 1.000000000000000000, 0.000000000000000000, 0.000000000000000000 ) ) ;
#603 = AXIS2_PLACEMENT_3D ( 'NONE', #40, #447, #359 ) ;
#604 = DIRECTION ( 'NONE',  ( 0.000000000000000000, -1.000000000000000000, 0.000000000000000000 ) ) ;
#605 = CC_DESIGN_APPROVAL ( #531, ( #767 ) ) ;
#606 = ORIENTED_EDGE ( 'NONE', *, *, #659, .F. ) ;
#607 = CIRCLE ( 'NONE', #26, 2.200000000000000622 ) ;
#608 = ORIENTED_EDGE ( 'NONE', *, *, #273, .T. ) ;
#609 = CARTESIAN_POINT ( 'NONE',  ( 1.999999999999999556, 2.000000000000000000, 0.000000000000000000 ) ) ;
#610 = CARTESIAN_POINT ( 'NONE',  ( 18.99999999999999289, 30.00000000000000000, 20.00000000000000000 ) ) ;
#611 = CARTESIAN_POINT ( 'NONE',  ( 0.000000000000000000, 0.000000000000000000, 5.000000000000000000 ) ) ;
#612 = ORIENTED_EDGE ( 'NONE', *, *, #129, .T. ) ;
#613 = EDGE_LOOP ( 'NONE', ( #256, #512 ) ) ;
#614 = CARTESIAN_POINT ( 'NONE',  ( -3.500063121932297976E-15, 15.00000000000000000, 13.48000000000000220 ) ) ;
#615 = CARTESIAN_POINT ( 'NONE',  ( 1.999999999999999556, 1.000000000000000000, 19.00000000000000000 ) ) ;
#616 = CARTESIAN_POINT ( 'NONE',  ( 10.79999999999999361, 28.99999999999999645, 19.00000000000000000 ) ) ;
#617 = EDGE_CURVE ( 'NONE', #738, #242, #550, .T. ) ;
#618 = ORIENTED_EDGE ( 'NONE', *, *, #170, .T. ) ;
#619 = ORIENTED_EDGE ( 'NONE', *, *, #394, .F. ) ;
#620 = CARTESIAN_POINT ( 'NONE',  ( 9.999999999999994671, 15.00000000000000000, 6.999999999999999112 ) ) ;
#621 = LINE ( 'NONE', #499, #21 ) ;
#622 = DIRECTION ( 'NONE',  ( 1.000000000000000000, 0.000000000000000000, 0.000000000000000000 ) ) ;
#623 = CIRCLE ( 'NONE', #540, 1.000000000000000000 ) ;
#624 = ORIENTED_EDGE ( 'NONE', *, *, #847, .T. ) ;
#625 = ORIENTED_EDGE ( 'NONE', *, *, #255, .T. ) ;
#626 = AXIS2_PLACEMENT_3D ( 'NONE', #393, #1201, #414 ) ;
#627 = CARTESIAN_POINT ( 'NONE',  ( 1.999999999999999556, 0.000000000000000000, 0.000000000000000000 ) ) ;
#628 = CARTESIAN_POINT ( 'NONE',  ( 12.39999999999999503, 15.00000000000000000, 8.673617379884035472E-16 ) ) ;
#629 = CARTESIAN_POINT ( 'NONE',  ( 6.046902881919871575, 17.15012166968732288, 15.48904223923467072 ) ) ;
#630 = ORIENTED_EDGE ( 'NONE', *, *, #847, .F. ) ;
#631 = EDGE_CURVE ( 'NONE', #1272, #27, #241, .T. ) ;
#632 = ADVANCED_FACE ( 'NONE', ( #532, #1029 ), #220, .T. ) ;
#633 = FACE_BOUND ( 'NONE', #576, .T. ) ;
#634 = CARTESIAN_POINT ( 'NONE',  ( 20.00000000000001776, 15.00000000000000000, 15.63000000000000078 ) ) ;
#635 = CARTESIAN_POINT ( 'NONE',  ( 5.695032462573483834, 16.32673139006884711, 17.34421482522449054 ) ) ;
#636 = ORIENTED_EDGE ( 'NONE', *, *, #631, .T. ) ;
#637 = CARTESIAN_POINT ( 'NONE',  ( 10.79999999999999716, 1.647987302177963288E-16, 19.00000000000000000 ) ) ;
#638 = ORIENTED_EDGE ( 'NONE', *, *, #800, .T. ) ;
#639 = EDGE_CURVE ( 'NONE', #251, #797, #423, .T. ) ;
#640 = FACE_OUTER_BOUND ( 'NONE', #36, .T. ) ;
#641 = CARTESIAN_POINT ( 'NONE',  ( 10.79999999999999538, 10.57168203490309466, 6.999999999999999112 ) ) ;
#642 = CARTESIAN_POINT ( 'NONE',  ( 14.49999999999999467, 15.00000000000000000, 6.999999999999999112 ) ) ;
#643 = EDGE_LOOP ( 'NONE', ( #646, #154 ) ) ;
#644 = CARTESIAN_POINT ( 'NONE',  ( 20.00000000000000355, 0.000000000000000000, 19.00000000000000000 ) ) ;
#645 = VECTOR ( 'NONE', #903, 1000.000000000000000 ) ;
#646 = ORIENTED_EDGE ( 'NONE', *, *, #295, .T. ) ;
#647 = CIRCLE ( 'NONE', #263, 2.000000000000000000 ) ;
#648 = VECTOR ( 'NONE', #574, 1000.000000000000000 ) ;
#649 = CARTESIAN_POINT ( 'NONE',  ( 20.00000000000000355, 0.000000000000000000, 0.000000000000000000 ) ) ;
#650 = VECTOR ( 'NONE', #71, 1000.000000000000000 ) ;
#651 = EDGE_CURVE ( 'NONE', #267, #229, #214, .T. ) ;
#652 = CARTESIAN_POINT ( 'NONE',  ( 6.009243200401411578, 17.07963095756711525, 15.06631863910619629 ) ) ;
#653 = ORIENTED_EDGE ( 'NONE', *, *, #14, .T. ) ;
#654 = DIRECTION ( 'NONE',  ( -0.000000000000000000, 1.000000000000000000, -0.000000000000000000 ) ) ;
#655 = ORIENTED_EDGE ( 'NONE', *, *, #1040, .T. ) ;
#656 = DIRECTION ( 'NONE',  ( 1.000000000000000000, 1.156482317317871478E-16, -0.000000000000000000 ) ) ;
#657 = PERSON_AND_ORGANIZATION ( #18446744073709551615, #18446744073709551615 ) ;
#658 = CYLINDRICAL_SURFACE ( 'NONE', #1284, 2.149999999999995470 ) ;
#659 = EDGE_CURVE ( 'NONE', #956, #1033, #1114, .T. ) ;
#660 = ORIENTED_EDGE ( 'NONE', *, *, #1304, .T. ) ;
#661 = CARTESIAN_POINT ( 'NONE',  ( -4.625929269271484928E-16, 1.999999999999999556, 5.000000000000000000 ) ) ;
#662 = ORIENTED_EDGE ( 'NONE', *, *, #639, .F. ) ;
#663 = CYLINDRICAL_SURFACE ( 'NONE', #91, 2.200000000000000622 ) ;
#664 = APPROVAL_ROLE ( '' ) ;
#665 = CARTESIAN_POINT ( 'NONE',  ( 5.729614659110881192, 13.57705892181172480, 17.24776660881886059 ) ) ;
#666 = ORIENTED_EDGE ( 'NONE', *, *, #196, .T. ) ;
#667 = DIRECTION ( 'NONE',  ( -0.000000000000000000, 0.000000000000000000, -1.000000000000000000 ) ) ;
#668 = VERTEX_POINT ( 'NONE', #627 ) ;
#669 = AXIS2_PLACEMENT_3D ( 'NONE', #928, #732, #389 ) ;
#670 = VECTOR ( 'NONE', #476, 1000.000000000000000 ) ;
#671 = DIRECTION ( 'NONE',  ( 0.000000000000000000, -1.000000000000000000, 0.000000000000000000 ) ) ;
#672 = DIRECTION ( 'NONE',  ( 1.000000000000000000, 0.000000000000000000, 0.000000000000000000 ) ) ;
#673 = DIRECTION ( 'NONE',  ( 1.000000000000000000, 0.000000000000000000, 0.000000000000000000 ) ) ;
#674 = AXIS2_PLACEMENT_3D ( 'NONE', #197, #1020, #108 ) ;
#675 = CARTESIAN_POINT ( 'NONE',  ( 14.49999999999999467, 15.00000000000000000, 3.500000000000000444 ) ) ;
#676 = ORIENTED_EDGE ( 'NONE', *, *, #906, .T. ) ;
#677 = EDGE_CURVE ( 'NONE', #1089, #1223, #731, .T. ) ;
#678 = LINE ( 'NONE', #1182, #936 ) ;
#679 = PERSON_AND_ORGANIZATION ( #18446744073709551615, #18446744073709551615 ) ;
#680 = CARTESIAN_POINT ( 'NONE',  ( 5.987164582526685486, 12.96266016147590250, 14.92911901498704275 ) ) ;
#681 = DIRECTION ( 'NONE',  ( -1.000000000000000000, -3.469446951953614189E-16, -0.000000000000000000 ) ) ;
#682 = ORIENTED_EDGE ( 'NONE', *, *, #396, .T. ) ;
#683 = DIRECTION ( 'NONE',  ( 1.000000000000000000, 0.000000000000000000, 0.000000000000000000 ) ) ;
#684 = ADVANCED_FACE ( 'NONE', ( #1251 ), #834, .F. ) ;
#685 = CARTESIAN_POINT ( 'NONE',  ( 5.800380218238969654, 13.38007840920688274, 17.05048729395485196 ) ) ;
#686 = CARTESIAN_POINT ( 'NONE',  ( 1.999999999999993561, 27.99999999999999645, 5.000000000000000000 ) ) ;
#687 = ORIENTED_EDGE ( 'NONE', *, *, #248, .T. ) ;
#688 = LINE ( 'NONE', #564, #1045 ) ;
#689 = AXIS2_PLACEMENT_3D ( 'NONE', #1271, #667, #345 ) ;
#690 = CARTESIAN_POINT ( 'NONE',  ( 5.730093216816571022, 13.57567121503864982, 14.01352433085436644 ) ) ;
#691 = ADVANCED_FACE ( 'NONE', ( #428 ), #526, .F. ) ;
#692 = ORIENTED_EDGE ( 'NONE', *, *, #363, .F. ) ;
#693 = ORIENTED_EDGE ( 'NONE', *, *, #418, .F. ) ;
#694 = CARTESIAN_POINT ( 'NONE',  ( 20.00000000000000355, 0.000000000000000000, 5.000000000000000000 ) ) ;
#695 = CARTESIAN_POINT ( 'NONE',  ( 9.999999999999994671, 15.00000000000000000, 5.000000000000000000 ) ) ;
#696 = CARTESIAN_POINT ( 'NONE',  ( -7.447746123527091266E-15, 26.91999999999999460, 15.63000000000000078 ) ) ;
#697 = DIRECTION ( 'NONE',  ( -1.000000000000000000, -3.469446951953614189E-16, -0.000000000000000000 ) ) ;
#698 = ORIENTED_EDGE ( 'NONE', *, *, #518, .T. ) ;
#699 = CARTESIAN_POINT ( 'NONE',  ( 14.99999999999999645, 4.720000000000002416, 15.63000000000000078 ) ) ;
#700 = CARTESIAN_POINT ( 'NONE',  ( 19.00000000000000355, 0.000000000000000000, 19.00000000000000000 ) ) ;
#701 = DIRECTION ( 'NONE',  ( 1.206040783860415014E-16, -1.000000000000000000, -2.891205793294678696E-17 ) ) ;
#702 = EDGE_LOOP ( 'NONE', ( #536, #539, #1310, #1096 ) ) ;
#703 = DIRECTION ( 'NONE',  ( 1.000000000000000000, 0.000000000000000000, 0.000000000000000000 ) ) ;
#704 = FACE_OUTER_BOUND ( 'NONE', #1244, .T. ) ;
#705 = CIRCLE ( 'NONE', #1221, 2.199999999999998401 ) ;
#706 = CARTESIAN_POINT ( 'NONE',  ( 10.79999999999999361, 28.99999999999999645, 20.00000000000000000 ) ) ;
#707 = VECTOR ( 'NONE', #891, 1000.000000000000000 ) ;
#708 = AXIS2_PLACEMENT_3D ( 'NONE', #776, #60, #169 ) ;
#709 = ORIENTED_EDGE ( 'NONE', *, *, #431, .F. ) ;
#710 = ADVANCED_FACE ( 'NONE', ( #115 ), #742, .T. ) ;
#711 = ORIENTED_EDGE ( 'NONE', *, *, #617, .T. ) ;
#712 = CARTESIAN_POINT ( 'NONE',  ( 20.00000000000000711, 24.72000000000000242, 15.63000000000000078 ) ) ;
#713 = ADVANCED_FACE ( 'NONE', ( #633, #753, #30, #419 ), #1161, .F. ) ;
#714 = CARTESIAN_POINT ( 'NONE',  ( 19.00000000000000355, 0.000000000000000000, 20.00000000000000000 ) ) ;
#715 = CARTESIAN_POINT ( 'NONE',  ( 10.79999999999999538, 19.42831796509690534, 20.00000000000000000 ) ) ;
#716 = ORIENTED_EDGE ( 'NONE', *, *, #258, .F. ) ;
#717 = ORIENTED_EDGE ( 'NONE', *, *, #324, .T. ) ;
#718 = DIRECTION ( 'NONE',  ( -1.000000000000000000, 0.000000000000000000, 0.000000000000000000 ) ) ;
#719 = FACE_OUTER_BOUND ( 'NONE', #1283, .T. ) ;
#720 = LINE ( 'NONE', #1234, #370 ) ;
#721 = ORIENTED_EDGE ( 'NONE', *, *, #273, .F. ) ;
#722 = ORIENTED_EDGE ( 'NONE', *, *, #578, .T. ) ;
#723 = FACE_OUTER_BOUND ( 'NONE', #950, .T. ) ;
#724 = ADVANCED_FACE ( 'NONE', ( #927, #1034, #640, #135 ), #1236, .F. ) ;
#725 = DIRECTION ( 'NONE',  ( -2.312964634635742957E-16, 1.000000000000000000, 0.000000000000000000 ) ) ;
#726 = AXIS2_PLACEMENT_3D ( 'NONE', #712, #1205, #90 ) ;
#727 = ORIENTED_EDGE ( 'NONE', *, *, #490, .F. ) ;
#728 = VECTOR ( 'NONE', #910, 1000.000000000000000 ) ;
#729 = EDGE_LOOP ( 'NONE', ( #582, #655, #416, #500 ) ) ;
#730 = AXIS2_PLACEMENT_3D ( 'NONE', #583, #868, #877 ) ;
#731 = LINE ( 'NONE', #347, #538 ) ;
#732 = DIRECTION ( 'NONE',  ( -1.000000000000000000, -3.469446951953614189E-16, -0.000000000000000000 ) ) ;
#733 = CARTESIAN_POINT ( 'NONE',  ( 5.528767533734307627, 15.57190088845625908, 13.53864982470943623 ) ) ;
#734 = VERTEX_POINT ( 'NONE', #542 ) ;
#735 = DIRECTION ( 'NONE',  ( -2.312964634635742957E-16, 1.000000000000000000, 0.000000000000000000 ) ) ;
#736 = CARTESIAN_POINT ( 'NONE',  ( 1.999999999999999556, 0.000000000000000000, 5.000000000000000000 ) ) ;
#737 = CARTESIAN_POINT ( 'NONE',  ( 20.00000000000001421, 4.720000000000004192, 15.63000000000000078 ) ) ;
#738 = VERTEX_POINT ( 'NONE', #649 ) ;
#739 = CARTESIAN_POINT ( 'NONE',  ( -6.476300976980080082E-15, 27.99999999999999645, 0.000000000000000000 ) ) ;
#740 = ORIENTED_EDGE ( 'NONE', *, *, #984, .F. ) ;
#741 = EDGE_CURVE ( 'NONE', #971, #163, #942, .T. ) ;
#742 = CYLINDRICAL_SURFACE ( 'NONE', #195, 1.000000000000000000 ) ;
#743 = PERSON_AND_ORGANIZATION_ROLE ( 'creator' ) ;
#744 = DIRECTION ( 'NONE',  ( 0.000000000000000000, -1.000000000000000000, 0.000000000000000000 ) ) ;
#745 = ORIENTED_EDGE ( 'NONE', *, *, #962, .F. ) ;
#746 = FACE_OUTER_BOUND ( 'NONE', #784, .T. ) ;
#747 = AXIS2_PLACEMENT_3D ( 'NONE', #202, #1307, #194 ) ;
#748 = ORIENTED_EDGE ( 'NONE', *, *, #1118, .F. ) ;
#749 = VECTOR ( 'NONE', #126, 1000.000000000000000 ) ;
#750 = VECTOR ( 'NONE', #1178, 1000.000000000000000 ) ;
#751 = PRODUCT_RELATED_PRODUCT_CATEGORY ( 'detail', '', ( #200 ) ) ;
#752 = AXIS2_PLACEMENT_3D ( 'NONE', #495, #210, #622 ) ;
#753 = FACE_BOUND ( 'NONE', #218, .T. ) ;
#754 = ADVANCED_FACE ( 'NONE', ( #723 ), #663, .F. ) ;
#755 = DATE_AND_TIME ( #246, #327 ) ;
#756 = CARTESIAN_POINT ( 'NONE',  ( 5.553093675578732125, 15.70176847196574244, 17.66711701417020208 ) ) ;
#757 = ORIENTED_EDGE ( 'NONE', *, *, #1063, .F. ) ;
#758 = CARTESIAN_POINT ( 'NONE',  ( 1.999999999999993561, 30.00000000000000000, 19.00000000000000000 ) ) ;
#759 = ORIENTED_EDGE ( 'NONE', *, *, #984, .T. ) ;
#760 = CARTESIAN_POINT ( 'NONE',  ( 10.79999999999999538, 19.42831796509690534, 6.999999999999999112 ) ) ;
#761 = CARTESIAN_POINT ( 'NONE',  ( 14.99999999999999289, 30.00000000000000000, 20.00000000000000000 ) ) ;
#762 = ORIENTED_EDGE ( 'NONE', *, *, #315, .F. ) ;
#763 = CARTESIAN_POINT ( 'NONE',  ( 14.99999999999999467, 0.000000000000000000, 20.00000000000000000 ) ) ;
#764 = ORIENTED_EDGE ( 'NONE', *, *, #639, .T. ) ;
#765 = PLANE ( 'NONE',  #1215 ) ;
#766 = LINE ( 'NONE', #1286, #1220 ) ;
#767 = PRODUCT_DEFINITION ( 'General', '', #45, #118 ) ;
#768 = CARTESIAN_POINT ( 'NONE',  ( 20.00000000000000711, 26.92000000000000171, 15.63000000000000078 ) ) ;
#769 = EDGE_CURVE ( 'NONE', #141, #1298, #678, .T. ) ;
#770 = EDGE_LOOP ( 'NONE', ( #660, #312, #462, #757 ) ) ;
#771 = AXIS2_PLACEMENT_3D ( 'NONE', #292, #553, #1058 ) ;
#772 = CARTESIAN_POINT ( 'NONE',  ( -3.469446951953614189E-15, 15.00000000000000000, 13.48000000000000398 ) ) ;
#773 = CC_DESIGN_SECURITY_CLASSIFICATION ( #283, ( #45 ) ) ;
#774 = AXIS2_PLACEMENT_3D ( 'NONE', #1184, #787, #673 ) ;
#775 = APPROVAL_STATUS ( 'not_yet_approved' ) ;
#776 = CARTESIAN_POINT ( 'NONE',  ( 14.99999999999999289, 24.71999999999999886, 15.63000000000000078 ) ) ;
#777 = CIRCLE ( 'NONE', #874, 1.000000000000000888 ) ;
#778 = LINE ( 'NONE', #588, #236 ) ;
#779 = ORIENTED_EDGE ( 'NONE', *, *, #396, .F. ) ;
#780 = EDGE_CURVE ( 'NONE', #918, #1179, #688, .T. ) ;
#781 = DIRECTION ( 'NONE',  ( -0.000000000000000000, -0.000000000000000000, 1.000000000000000000 ) ) ;
#782 = CARTESIAN_POINT ( 'NONE',  ( 5.835712755431783805, 13.29242321608496979, 14.31624457270091000 ) ) ;
#783 = CARTESIAN_POINT ( 'NONE',  ( 0.9999999999999935607, 27.99999999999999645, 19.00000000000000000 ) ) ;
#784 = EDGE_LOOP ( 'NONE', ( #68, #1292, #525, #740 ) ) ;
#785 = EDGE_CURVE ( 'NONE', #119, #1213, #367, .T. ) ;
#786 = CARTESIAN_POINT ( 'NONE',  ( 14.49999999999999467, 15.00000000000000000, 5.000000000000000000 ) ) ;
#787 = DIRECTION ( 'NONE',  ( -0.000000000000000000, -0.000000000000000000, 1.000000000000000000 ) ) ;
#788 = CARTESIAN_POINT ( 'NONE',  ( 18.99999999999999289, 30.00000000000000000, 20.00000000000000000 ) ) ;
#789 = ORIENTED_EDGE ( 'NONE', *, *, #209, .T. ) ;
#790 = LINE ( 'NONE', #694, #1155 ) ;
#791 = VECTOR ( 'NONE', #697, 1000.000000000000000 ) ;
#792 = CARTESIAN_POINT ( 'NONE',  ( 0.000000000000000000, 0.000000000000000000, 20.00000000000000000 ) ) ;
#793 = EDGE_CURVE ( 'NONE', #47, #353, #1067, .T. ) ;
#794 = CIRCLE ( 'NONE', #980, 1.000000000000000666 ) ;
#795 = ORIENTED_EDGE ( 'NONE', *, *, #1304, .F. ) ;
#796 = CARTESIAN_POINT ( 'NONE',  ( 10.79999999999999538, 10.57168203490309288, 21.00000000000000000 ) ) ;
#797 = VERTEX_POINT ( 'NONE', #480 ) ;
#798 = CARTESIAN_POINT ( 'NONE',  ( 9.999999999999994671, 15.00000000000000000, 3.500000000000000444 ) ) ;
#799 = CYLINDRICAL_SURFACE ( 'NONE', #674, 1.000000000000000888 ) ;
#800 = EDGE_CURVE ( 'NONE', #47, #1229, #899, .T. ) ;
#801 = CARTESIAN_POINT ( 'NONE',  ( 10.79999999999999716, 1.100139641038620215E-15, 6.999999999999999112 ) ) ;
#802 = ORIENTED_EDGE ( 'NONE', *, *, #478, .T. ) ;
#803 = DIRECTION ( 'NONE',  ( -0.000000000000000000, -0.000000000000000000, 1.000000000000000000 ) ) ;
#804 = DIRECTION ( 'NONE',  ( 1.000000000000000000, 0.000000000000000000, 0.000000000000000000 ) ) ;
#805 = LINE ( 'NONE', #801, #565 ) ;
#806 = ORIENTED_EDGE ( 'NONE', *, *, #793, .F. ) ;
#807 = ADVANCED_FACE ( 'NONE', ( #1285 ), #64, .F. ) ;
#808 = CARTESIAN_POINT ( 'NONE',  ( 7.599999999999996092, 15.00000000000000000, 5.000000000000000000 ) ) ;
#809 = DIRECTION ( 'NONE',  ( 3.469446951953614189E-16, -1.000000000000000000, 0.000000000000000000 ) ) ;
#810 = AXIS2_PLACEMENT_3D ( 'NONE', #1085, #1076, #683 ) ;
#811 = VECTOR ( 'NONE', #1157, 1000.000000000000000 ) ;
#812 = CARTESIAN_POINT ( 'NONE',  ( 20.00000000000000711, 22.52000000000000313, 15.63000000000000078 ) ) ;
#813 = AXIS2_PLACEMENT_3D ( 'NONE', #783, #188, #1120 ) ;
#814 = VERTEX_POINT ( 'NONE', #1081 ) ;
#815 = ORIENTED_EDGE ( 'NONE', *, *, #945, .T. ) ;
#816 = DIRECTION ( 'NONE',  ( 1.000000000000000000, 0.000000000000000000, 0.000000000000000000 ) ) ;
#817 = DIRECTION ( 'NONE',  ( -0.000000000000000000, 0.000000000000000000, 1.000000000000000000 ) ) ;
#818 = DIRECTION ( 'NONE',  ( 0.000000000000000000, 0.000000000000000000, -1.000000000000000000 ) ) ;
#819 = ORIENTED_EDGE ( 'NONE', *, *, #578, .F. ) ;
#820 = ORIENTED_EDGE ( 'NONE', *, *, #1100, .T. ) ;
#821 = ADVANCED_FACE ( 'NONE', ( #457 ), #862, .F. ) ;
#822 = DIRECTION ( 'NONE',  ( -0.000000000000000000, -0.000000000000000000, -1.000000000000000000 ) ) ;
#823 = DIRECTION ( 'NONE',  ( 1.000000000000000000, 0.000000000000000000, 0.000000000000000000 ) ) ;
#824 = ORIENTED_EDGE ( 'NONE', *, *, #1242, .F. ) ;
#825 = VERTEX_POINT ( 'NONE', #164 ) ;
#826 = CARTESIAN_POINT ( 'NONE',  ( 9.999999999999994671, 15.00000000000000000, 5.000000000000000000 ) ) ;
#827 = DIRECTION ( 'NONE',  ( -1.000000000000000000, -0.000000000000000000, -0.000000000000000000 ) ) ;
#828 = CARTESIAN_POINT ( 'NONE',  ( 5.799621920469736125, 16.61790158721420241, 14.20732854146296908 ) ) ;
#829 = EDGE_CURVE ( 'NONE', #11, #267, #266, .T. ) ;
#830 = CIRCLE ( 'NONE', #67, 2.200000000000000622 ) ;
#831 = ORIENTED_EDGE ( 'NONE', *, *, #651, .F. ) ;
#832 = VECTOR ( 'NONE', #377, 1000.000000000000000 ) ;
#833 = AXIS2_PLACEMENT_3D ( 'NONE', #1098, #81, #1002 ) ;
#834 = CYLINDRICAL_SURFACE ( 'NONE', #1154, 2.149999999999995470 ) ;
#835 = DIRECTION ( 'NONE',  ( 0.000000000000000000, 0.000000000000000000, 1.000000000000000000 ) ) ;
#836 = CARTESIAN_POINT ( 'NONE',  ( 5.835615859353651125, 16.70734960269999547, 14.31591809630707246 ) ) ;
#837 = ADVANCED_FACE ( 'NONE', ( #856 ), #159, .F. ) ;
#838 = ORIENTED_EDGE ( 'NONE', *, *, #1094, .T. ) ;
#839 = DIRECTION ( 'NONE',  ( 0.000000000000000000, 0.000000000000000000, -1.000000000000000000 ) ) ;
#840 = ORIENTED_EDGE ( 'NONE', *, *, #1257, .T. ) ;
#841 = DIRECTION ( 'NONE',  ( -1.000000000000000000, -0.000000000000000000, -0.000000000000000000 ) ) ;
#842 = COORDINATED_UNIVERSAL_TIME_OFFSET ( 10, 0, .AHEAD. ) ;
#843 = FACE_OUTER_BOUND ( 'NONE', #467, .T. ) ;
#844 = VERTEX_POINT ( 'NONE', #760 ) ;
#845 = DIRECTION ( 'NONE',  ( -3.343628375672285075E-33, 2.891205793294678696E-17, -1.000000000000000000 ) ) ;
#846 = EDGE_LOOP ( 'NONE', ( #127, #552, #1057, #1037 ) ) ;
#847 = EDGE_CURVE ( 'NONE', #358, #814, #705, .T. ) ;
#848 = DIRECTION ( 'NONE',  ( 0.000000000000000000, 0.000000000000000000, 1.000000000000000000 ) ) ;
#849 = DIRECTION ( 'NONE',  ( 0.000000000000000000, 0.000000000000000000, -1.000000000000000000 ) ) ;
#850 = ORIENTED_EDGE ( 'NONE', *, *, #1208, .T. ) ;
#851 = CARTESIAN_POINT ( 'NONE',  ( 18.99999999999999289, 30.00000000000000000, 19.00000000000000000 ) ) ;
#852 = CIRCLE ( 'NONE', #450, 2.000000000000000000 ) ;
#853 = ORIENTED_EDGE ( 'NONE', *, *, #741, .T. ) ;
#854 = VECTOR ( 'NONE', #55, 1000.000000000000000 ) ;
#855 = VECTOR ( 'NONE', #905, 1000.000000000000000 ) ;
#856 = FACE_OUTER_BOUND ( 'NONE', #1235, .T. ) ;
#857 = APPROVAL_STATUS ( 'not_yet_approved' ) ;
#858 = FACE_OUTER_BOUND ( 'NONE', #1028, .T. ) ;
#859 = ORIENTED_EDGE ( 'NONE', *, *, #258, .T. ) ;
#860 = DIRECTION ( 'NONE',  ( 1.000000000000000000, 3.469446951953614189E-16, -7.395570986446983486E-32 ) ) ;
#861 = ORIENTED_EDGE ( 'NONE', *, *, #1150, .F. ) ;
#862 = CYLINDRICAL_SURFACE ( 'NONE', #1280, 2.149999999999995470 ) ;
#863 = EDGE_CURVE ( 'NONE', #229, #50, #429, .T. ) ;
#864 = CARTESIAN_POINT ( 'NONE',  ( 20.00000000000001421, 6.920000000000002593, 15.63000000000000078 ) ) ;
#865 = ADVANCED_FACE ( 'NONE', ( #451, #979 ), #765, .F. ) ;
#866 = CARTESIAN_POINT ( 'NONE',  ( 14.99999999999999289, 30.00000000000000000, 6.999999999999999112 ) ) ;
#867 = ORIENTED_EDGE ( 'NONE', *, *, #829, .T. ) ;
#868 = DIRECTION ( 'NONE',  ( -1.000000000000000000, -2.312964634635742957E-16, 0.000000000000000000 ) ) ;
#869 = APPROVAL_ROLE ( '' ) ;
#870 = CC_DESIGN_DATE_AND_TIME_ASSIGNMENT ( #143, #944, ( #767 ) ) ;
#871 = CARTESIAN_POINT ( 'NONE',  ( 6.038833285068937684, 12.86454079715847243, 15.34253045077637445 ) ) ;
#872 = DIRECTION ( 'NONE',  ( -1.000000000000000000, -1.156482317317871478E-16, 0.000000000000000000 ) ) ;
#873 = EDGE_LOOP ( 'NONE', ( #887, #989, #10, #190 ) ) ;
#874 = AXIS2_PLACEMENT_3D ( 'NONE', #615, #503, #904 ) ;
#875 = CIRCLE ( 'NONE', #302, 1.000000000000000888 ) ;
#876 = VECTOR ( 'NONE', #387, 1000.000000000000000 ) ;
#877 = DIRECTION ( 'NONE',  ( -2.312964634635746408E-16, 1.000000000000000000, 0.000000000000000000 ) ) ;
#878 = CIRCLE ( 'NONE', #264, 2.199999999999998845 ) ;
#879 = DIRECTION ( 'NONE',  ( -0.000000000000000000, 0.000000000000000000, 1.000000000000000000 ) ) ;
#880 = AXIS2_PLACEMENT_3D ( 'NONE', #951, #1151, #848 ) ;
#881 = CARTESIAN_POINT ( 'NONE',  ( 0.000000000000000000, 4.719999999999997975, 15.63000000000000078 ) ) ;
#882 = ADVANCED_FACE ( 'NONE', ( #260 ), #968, .F. ) ;
#883 = ORIENTED_EDGE ( 'NONE', *, *, #1143, .F. ) ;
#884 = CARTESIAN_POINT ( 'NONE',  ( 20.00000000000000711, 24.72000000000000242, 15.63000000000000078 ) ) ;
#885 = CARTESIAN_POINT ( 'NONE',  ( 5.987627259612103181, 12.96173855091218030, 16.32841031291180300 ) ) ;
#886 = LINE ( 'NONE', #966, #854 ) ;
#887 = ORIENTED_EDGE ( 'NONE', *, *, #1232, .F. ) ;
#888 = EDGE_CURVE ( 'NONE', #27, #56, #366, .T. ) ;
#889 = CARTESIAN_POINT ( 'NONE',  ( 0.000000000000000000, 28.99999999999999645, 19.00000000000000000 ) ) ;
#890 = DIRECTION ( 'NONE',  ( 0.000000000000000000, 0.000000000000000000, 1.000000000000000000 ) ) ;
#891 = DIRECTION ( 'NONE',  ( 1.000000000000000000, 0.000000000000000000, 0.000000000000000000 ) ) ;
#892 = CARTESIAN_POINT ( 'NONE',  ( 1.999999999999993561, 27.99999999999999645, 0.000000000000000000 ) ) ;
#893 = ORIENTED_EDGE ( 'NONE', *, *, #1056, .T. ) ;
#894 = FACE_OUTER_BOUND ( 'NONE', #959, .T. ) ;
#895 = CIRCLE ( 'NONE', #107, 4.500000000000000888 ) ;
#896 = AXIS2_PLACEMENT_3D ( 'NONE', #183, #62, #461 ) ;
#897 = CYLINDRICAL_SURFACE ( 'NONE', #978, 1.000000000000000888 ) ;
#898 = VECTOR ( 'NONE', #43, 1000.000000000000000 ) ;
#899 = CIRCLE ( 'NONE', #309, 4.500000000000000888 ) ;
#900 = CARTESIAN_POINT ( 'NONE',  ( 20.00000000000001421, 4.720000000000004192, 15.63000000000000078 ) ) ;
#901 = DIRECTION ( 'NONE',  ( 1.156482317317871478E-16, -1.000000000000000000, 0.000000000000000000 ) ) ;
#902 = ORIENTED_EDGE ( 'NONE', *, *, #6, .T. ) ;
#903 = DIRECTION ( 'NONE',  ( 1.206040783860415014E-16, -1.000000000000000000, -2.891205793294678696E-17 ) ) ;
#904 = DIRECTION ( 'NONE',  ( 0.000000000000000000, 0.000000000000000000, 1.000000000000000000 ) ) ;
#905 = DIRECTION ( 'NONE',  ( 1.156482317317871478E-16, -1.000000000000000000, -2.891205793294678696E-17 ) ) ;
#906 = EDGE_CURVE ( 'NONE', #1107, #954, #375, .T. ) ;
#907 = EDGE_LOOP ( 'NONE', ( #249, #925 ) ) ;
#908 = CARTESIAN_POINT ( 'NONE',  ( 10.79999999999999361, 28.99999999999999645, 20.00000000000000000 ) ) ;
#909 = CARTESIAN_POINT ( 'NONE',  ( 1.999999999999999556, 2.000000000000000000, 19.00000000000000000 ) ) ;
#910 = DIRECTION ( 'NONE',  ( 0.000000000000000000, 0.000000000000000000, -1.000000000000000000 ) ) ;
#911 = ORIENTED_EDGE ( 'NONE', *, *, #1143, .T. ) ;
#912 = LINE ( 'NONE', #502, #155 ) ;
#913 = CARTESIAN_POINT ( 'NONE',  ( 14.99999999999999289, 22.51999999999999957, 15.63000000000000078 ) ) ;
#914 = TOROIDAL_SURFACE ( 'NONE', #1046, 1.000000000000000000, 1.000000000000000000 ) ;
#915 = DIRECTION ( 'NONE',  ( 0.000000000000000000, -1.000000000000000000, 0.000000000000000000 ) ) ;
#916 = AXIS2_PLACEMENT_3D ( 'NONE', #686, #1088, #1079 ) ;
#917 = AXIS2_PLACEMENT_3D ( 'NONE', #585, #1082, #165 ) ;
#918 = VERTEX_POINT ( 'NONE', #1122 ) ;
#919 = EDGE_CURVE ( 'NONE', #1107, #844, #513, .T. ) ;
#920 = EDGE_LOOP ( 'NONE', ( #529, #340, #277, #575 ) ) ;
#921 = CARTESIAN_POINT ( 'NONE',  ( 10.79999999999999361, 24.71999999999999531, 15.63000000000000078 ) ) ;
#922 = DIRECTION ( 'NONE',  ( -4.336808689942017243E-16, 1.000000000000000000, 0.000000000000000000 ) ) ;
#923 = DIRECTION ( 'NONE',  ( -1.000000000000000000, -3.469446951953614189E-16, -0.000000000000000000 ) ) ;
#924 = EDGE_LOOP ( 'NONE', ( #1317, #18, #1142, #360 ) ) ;
#925 = ORIENTED_EDGE ( 'NONE', *, *, #829, .F. ) ;
#926 = EDGE_CURVE ( 'NONE', #407, #956, #912, .T. ) ;
#927 = FACE_BOUND ( 'NONE', #346, .T. ) ;
#928 = CARTESIAN_POINT ( 'NONE',  ( 20.00000000000000711, 24.72000000000000242, 15.63000000000000078 ) ) ;
#929 = CARTESIAN_POINT ( 'NONE',  ( 5.835221246734600520, 16.71685165813451590, 16.95331743447073691 ) ) ;
#930 = ORIENTED_EDGE ( 'NONE', *, *, #204, .F. ) ;
#931 = ORIENTED_EDGE ( 'NONE', *, *, #780, .T. ) ;
#932 = CARTESIAN_POINT ( 'NONE',  ( -3.469446951953614189E-15, 15.00000000000000000, 15.63000000000000078 ) ) ;
#933 = EDGE_CURVE ( 'NONE', #918, #1166, #1075, .T. ) ;
#934 = DIRECTION ( 'NONE',  ( 0.000000000000000000, 0.000000000000000000, 1.000000000000000000 ) ) ;
#935 = LINE ( 'NONE', #24, #306 ) ;
#936 = VECTOR ( 'NONE', #964, 1000.000000000000000 ) ;
#937 = ORIENTED_EDGE ( 'NONE', *, *, #408, .F. ) ;
#938 = CARTESIAN_POINT ( 'NONE',  ( 20.00000000000000355, 1.540743955509788682E-30, 19.00000000000000000 ) ) ;
#939 = CC_DESIGN_APPROVAL ( #1316, ( #283 ) ) ;
#940 = CIRCLE ( 'NONE', #49, 2.199999999999998401 ) ;
#941 = ORIENTED_EDGE ( 'NONE', *, *, #1238, .F. ) ;
#942 = CIRCLE ( 'NONE', #543, 4.500000000000000888 ) ;
#943 = CARTESIAN_POINT ( 'NONE',  ( 20.00000000000000355, 0.000000000000000000, 0.000000000000000000 ) ) ;
#944 = DATE_TIME_ROLE ( 'creation_date' ) ;
#945 = EDGE_CURVE ( 'NONE', #976, #1248, #1299, .T. ) ;
#946 = CYLINDRICAL_SURFACE ( 'NONE', #1050, 2.199999999999998401 ) ;
#947 = EDGE_CURVE ( 'NONE', #353, #844, #1021, .T. ) ;
#948 = ORIENTED_EDGE ( 'NONE', *, *, #394, .T. ) ;
#949 = CARTESIAN_POINT ( 'NONE',  ( -6.476300976980080082E-15, 27.99999999999999645, 19.00000000000000000 ) ) ;
#950 = EDGE_LOOP ( 'NONE', ( #1156, #867, #417, #1164 ) ) ;
#951 = CARTESIAN_POINT ( 'NONE',  ( 20.00000000000001776, 15.00000000000000000, 15.63000000000000078 ) ) ;
#952 = PERSON_AND_ORGANIZATION ( #18446744073709551615, #18446744073709551615 ) ;
#953 = PLANE ( 'NONE',  #25 ) ;
#954 = VERTEX_POINT ( 'NONE', #102 ) ;
#955 = CARTESIAN_POINT ( 'NONE',  ( 20.00000000000000711, 24.72000000000000242, 15.63000000000000078 ) ) ;
#956 = VERTEX_POINT ( 'NONE', #614 ) ;
#957 = DIRECTION ( 'NONE',  ( 0.000000000000000000, -0.000000000000000000, -1.000000000000000000 ) ) ;
#958 = LINE ( 'NONE', #761, #898 ) ;
#959 = EDGE_LOOP ( 'NONE', ( #961, #820, #1013, #996 ) ) ;
#960 = PLANE ( 'NONE',  #1197 ) ;
#961 = ORIENTED_EDGE ( 'NONE', *, *, #492, .F. ) ;
#962 = EDGE_CURVE ( 'NONE', #1166, #954, #1224, .T. ) ;
#963 = CIRCLE ( 'NONE', #350, 1.000000000000000000 ) ;
#964 = DIRECTION ( 'NONE',  ( 1.000000000000000000, -0.000000000000000000, 0.000000000000000000 ) ) ;
#965 = DIRECTION ( 'NONE',  ( -1.000000000000000000, 0.000000000000000000, -0.000000000000000000 ) ) ;
#966 = CARTESIAN_POINT ( 'NONE',  ( -3.469446951953614189E-15, 15.00000000000000000, 17.77999999999999758 ) ) ;
#967 = ORIENTED_EDGE ( 'NONE', *, *, #975, .F. ) ;
#968 = CYLINDRICAL_SURFACE ( 'NONE', #330, 2.199999999999998401 ) ;
#969 = EDGE_CURVE ( 'NONE', #1229, #47, #895, .T. ) ;
#970 = CARTESIAN_POINT ( 'NONE',  ( 5.533479661409577588, 14.43451856271758338, 13.55083627183205586 ) ) ;
#971 = VERTEX_POINT ( 'NONE', #1014 ) ;
#972 = ORIENTED_EDGE ( 'NONE', *, *, #431, .T. ) ;
#973 = CARTESIAN_POINT ( 'NONE',  ( 10.79999999999999361, 24.71999999999999531, 15.63000000000000078 ) ) ;
#974 = CARTESIAN_POINT ( 'NONE',  ( 5.800454062117525567, 13.37992890885611708, 14.20976208463188328 ) ) ;
#975 = EDGE_CURVE ( 'NONE', #814, #976, #998, .T. ) ;
#976 = VERTEX_POINT ( 'NONE', #398 ) ;
#977 = EDGE_LOOP ( 'NONE', ( #558, #530, #434, #840 ) ) ;
#978 = AXIS2_PLACEMENT_3D ( 'NONE', #1206, #809, #92 ) ;
#979 = FACE_OUTER_BOUND ( 'NONE', #114, .T. ) ;
#980 = AXIS2_PLACEMENT_3D ( 'NONE', #98, #505, #405 ) ;
#981 = DIRECTION ( 'NONE',  ( 1.000000000000000000, 0.000000000000000000, 0.000000000000000000 ) ) ;
#982 = ADVANCED_BREP_SHAPE_REPRESENTATION ( 'SideItemMount', ( #232, #1131 ), #386 ) ;
#983 = CARTESIAN_POINT ( 'NONE',  ( 10.79999999999999716, 5.984795992119985462E-16, 7.000000000000002665 ) ) ;
#984 = EDGE_CURVE ( 'NONE', #668, #390, #647, .T. ) ;
#985 = EDGE_LOOP ( 'NONE', ( #618, #145, #507, #717 ) ) ;
#986 = LINE ( 'NONE', #96, #1111 ) ;
#987 = CARTESIAN_POINT ( 'NONE',  ( -4.625929269271484928E-16, 1.999999999999999556, 0.000000000000000000 ) ) ;
#988 = LINE ( 'NONE', #487, #750 ) ;
#989 = ORIENTED_EDGE ( 'NONE', *, *, #888, .T. ) ;
#990 = EDGE_CURVE ( 'NONE', #251, #163, #224, .T. ) ;
#991 = DIRECTION ( 'NONE',  ( -0.000000000000000000, -0.000000000000000000, 1.000000000000000000 ) ) ;
#992 = DIRECTION ( 'NONE',  ( 1.000000000000000000, 0.000000000000000000, 0.000000000000000000 ) ) ;
#993 = CARTESIAN_POINT ( 'NONE',  ( 14.99999999999999289, 26.91999999999999815, 15.63000000000000078 ) ) ;
#994 = APPLICATION_CONTEXT ( 'configuration controlled 3d designs of mechanical parts and assemblies' ) ;
#995 =( LENGTH_UNIT ( ) NAMED_UNIT ( * ) SI_UNIT ( .MILLI., .METRE. ) );
#996 = ORIENTED_EDGE ( 'NONE', *, *, #1087, .T. ) ;
#997 = EDGE_CURVE ( 'NONE', #410, #199, #44, .T. ) ;
#998 = LINE ( 'NONE', #1312, #427 ) ;
#999 = AXIS2_PLACEMENT_3D ( 'NONE', #699, #1110, #1210 ) ;
#1000 = VECTOR ( 'NONE', #872, 1000.000000000000000 ) ;
#1001 = EDGE_CURVE ( 'NONE', #167, #479, #986, .T. ) ;
#1002 = DIRECTION ( 'NONE',  ( 0.000000000000000000, -1.000000000000000000, 0.000000000000000000 ) ) ;
#1003 = AXIS2_PLACEMENT_3D ( 'NONE', #1314, #1133, #1222 ) ;
#1004 = VECTOR ( 'NONE', #1015, 1000.000000000000000 ) ;
#1005 = FACE_BOUND ( 'NONE', #29, .T. ) ;
#1006 = ORIENTED_EDGE ( 'NONE', *, *, #170, .F. ) ;
#1007 = VERTEX_POINT ( 'NONE', #75 ) ;
#1008 = DIRECTION ( 'NONE',  ( 0.000000000000000000, 0.000000000000000000, -1.000000000000000000 ) ) ;
#1009 = CC_DESIGN_PERSON_AND_ORGANIZATION_ASSIGNMENT ( #952, #59, ( #283 ) ) ;
#1010 = CARTESIAN_POINT ( 'NONE',  ( 9.999999999999994671, 15.00000000000000000, 5.000000000000000000 ) ) ;
#1011 = ADVANCED_FACE ( 'NONE', ( #308 ), #403, .T. ) ;
#1012 = DIRECTION ( 'NONE',  ( 2.312964634635742957E-16, -1.000000000000000000, 0.000000000000000000 ) ) ;
#1013 = ORIENTED_EDGE ( 'NONE', *, *, #1001, .T. ) ;
#1014 = CARTESIAN_POINT ( 'NONE',  ( 5.499999999999993783, 15.00000000000000000, 20.00000000000000000 ) ) ;
#1015 = DIRECTION ( 'NONE',  ( -3.469446951953614189E-16, 1.000000000000000000, -0.000000000000000000 ) ) ;
#1016 = ADVANCED_FACE ( 'NONE', ( #894 ), #383, .F. ) ;
#1017 = CARTESIAN_POINT ( 'NONE',  ( 14.99999999999999645, 1.585862214312126201E-15, 6.999999999999999112 ) ) ;
#1018 = ORIENTED_EDGE ( 'NONE', *, *, #969, .F. ) ;
#1019 = ORIENTED_EDGE ( 'NONE', *, *, #580, .F. ) ;
#1020 = DIRECTION ( 'NONE',  ( -1.000000000000000000, 0.000000000000000000, -0.000000000000000000 ) ) ;
#1021 = CIRCLE ( 'NONE', #747, 4.500000000000000888 ) ;
#1022 = CARTESIAN_POINT ( 'NONE',  ( 0.9999999999999995559, 2.000000000000000000, 19.00000000000000000 ) ) ;
#1023 = DIRECTION ( 'NONE',  ( 1.000000000000000000, 0.000000000000000000, 0.000000000000000000 ) ) ;
#1024 = CLOSED_SHELL ( 'NONE', ( #546, #691, #684, #562, #882, #1282, #807, #821, #713, #632, #1042, #341, #237, #724, #219, #837, #379, #333, #473, #373, #1016, #288, #754, #113, #1103, #504, #449, #710, #1187, #1011, #571, #1267, #458, #865, #484, #1127 ) ) ;
#1025 = AXIS2_PLACEMENT_3D ( 'NONE', #294, #1305, #823 ) ;
#1026 = ORIENTED_EDGE ( 'NONE', *, *, #179, .T. ) ;
#1027 = EDGE_CURVE ( 'NONE', #1129, #738, #790, .T. ) ;
#1028 = EDGE_LOOP ( 'NONE', ( #1209, #554, #598, #682 ) ) ;
#1029 = FACE_OUTER_BOUND ( 'NONE', #301, .T. ) ;
#1030 = DIRECTION ( 'NONE',  ( -1.000000000000000000, -4.336808689942017736E-16, 0.000000000000000000 ) ) ;
#1031 = CARTESIAN_POINT ( 'NONE',  ( 6.038949447906023948, 17.13567026145097572, 15.91562783574717166 ) ) ;
#1032 = ORIENTED_EDGE ( 'NONE', *, *, #121, .F. ) ;
#1033 = VERTEX_POINT ( 'NONE', #1199 ) ;
#1034 = FACE_BOUND ( 'NONE', #39, .T. ) ;
#1035 = DIRECTION ( 'NONE',  ( 0.000000000000000000, -0.000000000000000000, -1.000000000000000000 ) ) ;
#1036 = DIRECTION ( 'NONE',  ( 0.000000000000000000, 1.000000000000000000, 0.000000000000000000 ) ) ;
#1037 = ORIENTED_EDGE ( 'NONE', *, *, #1293, .F. ) ;
#1038 = LINE ( 'NONE', #1165, #749 ) ;
#1039 = VERTEX_POINT ( 'NONE', #508 ) ;
#1040 = EDGE_CURVE ( 'NONE', #119, #410, #181, .T. ) ;
#1041 = CARTESIAN_POINT ( 'NONE',  ( 20.00000000000000355, 0.000000000000000000, 5.000000000000000000 ) ) ;
#1042 = ADVANCED_FACE ( 'NONE', ( #80, #1117 ), #491, .T. ) ;
#1043 = CARTESIAN_POINT ( 'NONE',  ( 1.999999999999993561, 27.99999999999999645, 19.00000000000000000 ) ) ;
#1044 = DIRECTION ( 'NONE',  ( -1.000000000000000000, -0.000000000000000000, -0.000000000000000000 ) ) ;
#1045 = VECTOR ( 'NONE', #252, 1000.000000000000000 ) ;
#1046 = AXIS2_PLACEMENT_3D ( 'NONE', #1043, #317, #597 ) ;
#1047 = EDGE_LOOP ( 'NONE', ( #334, #212 ) ) ;
#1048 = DIRECTION ( 'NONE',  ( 0.000000000000000000, 3.614007241618353455E-17, -1.000000000000000000 ) ) ;
#1049 = LOCAL_TIME ( 18, 50, 25.00000000000000000, #368 ) ;
#1050 = AXIS2_PLACEMENT_3D ( 'NONE', #737, #343, #744 ) ;
#1051 = VERTEX_POINT ( 'NONE', #1255 ) ;
#1052 = AXIS2_PLACEMENT_3D ( 'NONE', #826, #1231, #335 ) ;
#1053 = CARTESIAN_POINT ( 'NONE',  ( -3.500063121932297976E-15, 15.00000000000000000, 15.63000000000000078 ) ) ;
#1054 = PERSON_AND_ORGANIZATION_ROLE ( 'creator' ) ;
#1055 = CARTESIAN_POINT ( 'NONE',  ( 6.009195820971873658, 17.07954104228353387, 16.19407426785661386 ) ) ;
#1056 = EDGE_CURVE ( 'NONE', #668, #738, #48, .T. ) ;
#1057 = ORIENTED_EDGE ( 'NONE', *, *, #99, .F. ) ;
#1058 = DIRECTION ( 'NONE',  ( -1.156482317317871478E-16, 1.000000000000000000, 0.000000000000000000 ) ) ;
#1059 = ORIENTED_EDGE ( 'NONE', *, *, #147, .F. ) ;
#1060 = DIRECTION ( 'NONE',  ( 3.469446951953614189E-16, -1.000000000000000000, 0.000000000000000000 ) ) ;
#1061 = PERSON_AND_ORGANIZATION_ROLE ( 'design_supplier' ) ;
#1062 = CARTESIAN_POINT ( 'NONE',  ( 5.499999999999992895, 14.99999999999999822, 17.78000000000000114 ) ) ;
#1063 = EDGE_CURVE ( 'NONE', #1320, #918, #146, .T. ) ;
#1064 = VERTEX_POINT ( 'NONE', #1065 ) ;
#1065 = CARTESIAN_POINT ( 'NONE',  ( 0.9999999999999935607, 27.99999999999999645, 20.00000000000000000 ) ) ;
#1066 = ORIENTED_EDGE ( 'NONE', *, *, #433, .T. ) ;
#1067 = LINE ( 'NONE', #786, #1302 ) ;
#1068 = APPROVAL_ROLE ( '' ) ;
#1069 = CARTESIAN_POINT ( 'NONE',  ( 5.507123229755491067, 14.71091247754974773, 17.76519636092884369 ) ) ;
#1070 = EDGE_LOOP ( 'NONE', ( #1296, #1254 ) ) ;
#1071 = CIRCLE ( 'NONE', #494, 4.500000000000000888 ) ;
#1072 = ORIENTED_EDGE ( 'NONE', *, *, #793, .T. ) ;
#1073 = AXIS2_PLACEMENT_3D ( 'NONE', #528, #439, #557 ) ;
#1074 = EDGE_CURVE ( 'NONE', #4, #100, #875, .T. ) ;
#1075 = CIRCLE ( 'NONE', #70, 1.999999999999999556 ) ;
#1076 = DIRECTION ( 'NONE',  ( -0.000000000000000000, -0.000000000000000000, 1.000000000000000000 ) ) ;
#1077 = PERSON_AND_ORGANIZATION ( #18446744073709551615, #18446744073709551615 ) ;
#1078 = DIRECTION ( 'NONE',  ( -1.000000000000000000, -0.000000000000000000, -0.000000000000000000 ) ) ;
#1079 = DIRECTION ( 'NONE',  ( -1.000000000000000000, 0.000000000000000000, 0.000000000000000000 ) ) ;
#1080 = ORIENTED_EDGE ( 'NONE', *, *, #769, .F. ) ;
#1081 = CARTESIAN_POINT ( 'NONE',  ( 20.00000000000001421, 6.920000000000002593, 15.63000000000000078 ) ) ;
#1082 = DIRECTION ( 'NONE',  ( -1.000000000000000000, -2.312964634635742957E-16, 0.000000000000000000 ) ) ;
#1083 = CARTESIAN_POINT ( 'NONE',  ( 1.999999999999999556, 1.000000000000000000, 20.00000000000000000 ) ) ;
#1084 = ORIENTED_EDGE ( 'NONE', *, *, #1027, .F. ) ;
#1085 = CARTESIAN_POINT ( 'NONE',  ( 9.999999999999994671, 15.00000000000000000, 8.673617379884035472E-16 ) ) ;
#1086 = CARTESIAN_POINT ( 'NONE',  ( 5.553057019504241687, 14.29846644118378407, 17.66719650339975445 ) ) ;
#1087 = EDGE_CURVE ( 'NONE', #479, #296, #235, .T. ) ;
#1088 = DIRECTION ( 'NONE',  ( 0.000000000000000000, 0.000000000000000000, -1.000000000000000000 ) ) ;
#1089 = VERTEX_POINT ( 'NONE', #763 ) ;
#1090 = VECTOR ( 'NONE', #1172, 1000.000000000000000 ) ;
#1091 = DIRECTION ( 'NONE',  ( 1.000000000000000000, 1.156482317317871478E-16, 0.000000000000000000 ) ) ;
#1092 = TOROIDAL_SURFACE ( 'NONE', #520, 1.000000000000000000, 1.000000000000000000 ) ;
#1093 = CARTESIAN_POINT ( 'NONE',  ( 5.631435303077261700, 13.91377341636400899, 17.49060393814930947 ) ) ;
#1094 = EDGE_CURVE ( 'NONE', #390, #1320, #230, .T. ) ;
#1095 = LINE ( 'NONE', #73, #876 ) ;
#1096 = ORIENTED_EDGE ( 'NONE', *, *, #1001, .F. ) ;
#1097 = DIRECTION ( 'NONE',  ( -0.000000000000000000, -0.000000000000000000, -1.000000000000000000 ) ) ;
#1098 = CARTESIAN_POINT ( 'NONE',  ( 20.00000000000000711, 24.72000000000000242, 15.63000000000000078 ) ) ;
#1099 = DIRECTION ( 'NONE',  ( 1.000000000000000000, 1.156482317317871478E-16, -0.000000000000000000 ) ) ;
#1100 = EDGE_CURVE ( 'NONE', #84, #167, #830, .T. ) ;
#1101 = CARTESIAN_POINT ( 'NONE',  ( -4.625929269271484928E-16, 1.999999999999999556, 19.00000000000000000 ) ) ;
#1102 = ORIENTED_EDGE ( 'NONE', *, *, #1118, .T. ) ;
#1103 = ADVANCED_FACE ( 'NONE', ( #746 ), #257, .T. ) ;
#1104 = DIRECTION ( 'NONE',  ( 1.239088197126291063E-16, -1.000000000000000000, 0.000000000000000000 ) ) ;
#1105 = DIRECTION ( 'NONE',  ( -0.000000000000000000, -1.000000000000000000, -0.000000000000000000 ) ) ;
#1106 = CYLINDRICAL_SURFACE ( 'NONE', #89, 2.199999999999998401 ) ;
#1107 = VERTEX_POINT ( 'NONE', #243 ) ;
#1108 = CC_DESIGN_PERSON_AND_ORGANIZATION_ASSIGNMENT ( #464, #743, ( #45 ) ) ;
#1109 = AXIS2_PLACEMENT_3D ( 'NONE', #1193, #572, #671 ) ;
#1110 = DIRECTION ( 'NONE',  ( 1.000000000000000000, 1.156482317317871478E-16, -0.000000000000000000 ) ) ;
#1111 = VECTOR ( 'NONE', #485, 1000.000000000000000 ) ;
#1112 = DIRECTION ( 'NONE',  ( -0.000000000000000000, -0.000000000000000000, 1.000000000000000000 ) ) ;
#1113 = CIRCLE ( 'NONE', #1003, 2.200000000000000622 ) ;
#1114 = CIRCLE ( 'NONE', #372, 2.149999999999999023 ) ;
#1115 = CARTESIAN_POINT ( 'NONE',  ( 25.75920355077887436, 30.00000000000000000, 7.000000000000000000 ) ) ;
#1116 = EDGE_LOOP ( 'NONE', ( #608, #443, #676, #625, #351 ) ) ;
#1117 = FACE_OUTER_BOUND ( 'NONE', #1116, .T. ) ;
#1118 = EDGE_CURVE ( 'NONE', #1256, #320, #586, .T. ) ;
#1119 = FACE_OUTER_BOUND ( 'NONE', #313, .T. ) ;
#1120 = DIRECTION ( 'NONE',  ( 0.000000000000000000, 0.000000000000000000, 1.000000000000000000 ) ) ;
#1121 = ORIENTED_EDGE ( 'NONE', *, *, #888, .F. ) ;
#1122 = CARTESIAN_POINT ( 'NONE',  ( -6.476300976980080082E-15, 27.99999999999999645, 19.00000000000000000 ) ) ;
#1123 = DIRECTION ( 'NONE',  ( 0.000000000000000000, 0.000000000000000000, 1.000000000000000000 ) ) ;
#1124 = CC_DESIGN_DATE_AND_TIME_ASSIGNMENT ( #1268, #438, ( #283 ) ) ;
#1125 = DIRECTION ( 'NONE',  ( -0.000000000000000000, -0.000000000000000000, 1.000000000000000000 ) ) ;
#1126 = LINE ( 'NONE', #300, #728 ) ;
#1127 = ADVANCED_FACE ( 'NONE', ( #1263 ), #960, .F. ) ;
#1128 = ORIENTED_EDGE ( 'NONE', *, *, #121, .T. ) ;
#1129 = VERTEX_POINT ( 'NONE', #644 ) ;
#1130 = DIRECTION ( 'NONE',  ( 1.000000000000000000, 1.156482317317871478E-16, 0.000000000000000000 ) ) ;
#1131 = AXIS2_PLACEMENT_3D ( 'NONE', #573, #1274, #672 ) ;
#1132 = CARTESIAN_POINT ( 'NONE',  ( 9.999999999999994671, 15.00000000000000000, 20.00000000000000000 ) ) ;
#1133 = DIRECTION ( 'NONE',  ( 1.000000000000000000, 3.469446951953614189E-16, -7.395570986446983486E-32 ) ) ;
#1134 = AXIS2_PLACEMENT_3D ( 'NONE', #7, #1211, #602 ) ;
#1135 = UNCERTAINTY_MEASURE_WITH_UNIT (LENGTH_MEASURE( 1.000000000000000082E-05 ), #995, 'distance_accuracy_value', 'NONE');
#1136 = CIRCLE ( 'NONE', #626, 2.199999999999997957 ) ;
#1137 = EDGE_LOOP ( 'NONE', ( #762, #748 ) ) ;
#1138 = DIRECTION ( 'NONE',  ( -1.156482317317871478E-16, 1.000000000000000000, 0.000000000000000000 ) ) ;
#1139 = LINE ( 'NONE', #736, #173 ) ;
#1140 = CARTESIAN_POINT ( 'NONE',  ( 5.626340074345972830, 16.09129200511131685, 17.50373440760626664 ) ) ;
#1141 = ORIENTED_EDGE ( 'NONE', *, *, #990, .F. ) ;
#1142 = ORIENTED_EDGE ( 'NONE', *, *, #297, .T. ) ;
#1143 = EDGE_CURVE ( 'NONE', #100, #1129, #339, .T. ) ;
#1144 = DIRECTION ( 'NONE',  ( 0.000000000000000000, 0.000000000000000000, 1.000000000000000000 ) ) ;
#1145 = CARTESIAN_POINT ( 'NONE',  ( 14.99999999999999467, 0.000000000000000000, 6.999999999999999112 ) ) ;
#1146 = DIRECTION ( 'NONE',  ( -0.000000000000000000, -0.000000000000000000, 1.000000000000000000 ) ) ;
#1147 = ORIENTED_EDGE ( 'NONE', *, *, #1188, .F. ) ;
#1148 = FACE_OUTER_BOUND ( 'NONE', #920, .T. ) ;
#1149 = EDGE_LOOP ( 'NONE', ( #180, #972 ) ) ;
#1150 = EDGE_CURVE ( 'NONE', #1173, #156, #537, .T. ) ;
#1151 = DIRECTION ( 'NONE',  ( -1.000000000000000000, -0.000000000000000000, -0.000000000000000000 ) ) ;
#1152 = PERSON_AND_ORGANIZATION ( #18446744073709551615, #18446744073709551615 ) ;
#1153 = FACE_BOUND ( 'NONE', #643, .T. ) ;
#1154 = AXIS2_PLACEMENT_3D ( 'NONE', #932, #342, #20 ) ;
#1155 = VECTOR ( 'NONE', #1097, 1000.000000000000000 ) ;
#1156 = ORIENTED_EDGE ( 'NONE', *, *, #1319, .F. ) ;
#1157 = DIRECTION ( 'NONE',  ( 1.000000000000000000, 0.000000000000000000, 0.000000000000000000 ) ) ;
#1158 = APPROVAL_PERSON_ORGANIZATION ( #679, #599, #664 ) ;
#1159 = AXIS2_PLACEMENT_3D ( 'NONE', #415, #1023, #818 ) ;
#1160 = EDGE_LOOP ( 'NONE', ( #374, #561 ) ) ;
#1161 = PLANE ( 'NONE',  #189 ) ;
#1162 = DATE_AND_TIME ( #269, #1049 ) ;
#1163 = CARTESIAN_POINT ( 'NONE',  ( -3.469446951953614189E-15, 15.00000000000000000, 17.77999999999999758 ) ) ;
#1164 = ORIENTED_EDGE ( 'NONE', *, *, #863, .T. ) ;
#1165 = CARTESIAN_POINT ( 'NONE',  ( -6.938893903907228378E-15, 30.00000000000000000, 0.000000000000000000 ) ) ;
#1166 = VERTEX_POINT ( 'NONE', #758 ) ;
#1167 = DIRECTION ( 'NONE',  ( 0.000000000000000000, -1.000000000000000000, 0.000000000000000000 ) ) ;
#1168 = APPROVAL_DATE_TIME ( #1162, #531 ) ;
#1169 = CARTESIAN_POINT ( 'NONE',  ( 5.499999999999994671, 14.85779546106016369, 13.48000000000000220 ) ) ;
#1170 = EDGE_CURVE ( 'NONE', #242, #1171, #1038, .T. ) ;
#1171 = VERTEX_POINT ( 'NONE', #28 ) ;
#1172 = DIRECTION ( 'NONE',  ( -2.312964634635742957E-16, 1.000000000000000000, -0.000000000000000000 ) ) ;
#1173 = VERTEX_POINT ( 'NONE', #435 ) ;
#1174 = DIRECTION ( 'NONE',  ( -1.000000000000000000, 0.000000000000000000, -0.000000000000000000 ) ) ;
#1175 = PERSON_AND_ORGANIZATION_ROLE ( 'design_owner' ) ;
#1176 = CARTESIAN_POINT ( 'NONE',  ( -3.500063121932297976E-15, 15.00000000000000000, 15.63000000000000078 ) ) ;
#1177 = VECTOR ( 'NONE', #1258, 1000.000000000000000 ) ;
#1178 = DIRECTION ( 'NONE',  ( -0.000000000000000000, -0.000000000000000000, 1.000000000000000000 ) ) ;
#1179 = VERTEX_POINT ( 'NONE', #739 ) ;
#1180 = CIRCLE ( 'NONE', #813, 1.000000000000000888 ) ;
#1181 = VECTOR ( 'NONE', #142, 1000.000000000000000 ) ;
#1182 = CARTESIAN_POINT ( 'NONE',  ( 4.999999999999994671, 1.000000000000000000, 20.00000000000000000 ) ) ;
#1183 = SECURITY_CLASSIFICATION_LEVEL ( 'unclassified' ) ;
#1184 = CARTESIAN_POINT ( 'NONE',  ( 9.999999999999994671, 15.00000000000000000, 3.500000000000000444 ) ) ;
#1185 = DIRECTION ( 'NONE',  ( 1.239088197126291063E-16, -1.000000000000000000, 0.000000000000000000 ) ) ;
#1186 = ORIENTED_EDGE ( 'NONE', *, *, #919, .T. ) ;
#1187 = ADVANCED_FACE ( 'NONE', ( #1148 ), #914, .T. ) ;
#1188 = EDGE_CURVE ( 'NONE', #1288, #17, #336, .T. ) ;
#1189 = CARTESIAN_POINT ( 'NONE',  ( 10.79999999999999361, 30.00000000000000000, 5.000000000000000000 ) ) ;
#1190 = CARTESIAN_POINT ( 'NONE',  ( 6.008810349381354499, 12.92119435173152020, 15.06308569831192834 ) ) ;
#1191 = ORIENTED_EDGE ( 'NONE', *, *, #490, .T. ) ;
#1192 = ORIENTED_EDGE ( 'NONE', *, *, #233, .T. ) ;
#1193 = CARTESIAN_POINT ( 'NONE',  ( 20.00000000000001421, 4.720000000000004192, 15.63000000000000078 ) ) ;
#1194 = CARTESIAN_POINT ( 'NONE',  ( 5.695157844564500138, 13.68372505950215690, 17.33562466172122640 ) ) ;
#1195 = DIRECTION ( 'NONE',  ( 0.000000000000000000, 1.000000000000000000, 0.000000000000000000 ) ) ;
#1196 = ORIENTED_EDGE ( 'NONE', *, *, #255, .F. ) ;
#1197 = AXIS2_PLACEMENT_3D ( 'NONE', #35, #845, #1249 ) ;
#1198 = LOCAL_TIME ( 18, 50, 25.00000000000000000, #842 ) ;
#1199 = CARTESIAN_POINT ( 'NONE',  ( -3.500063121932297976E-15, 15.00000000000000000, 17.78000000000000114 ) ) ;
#1200 = AXIS2_PLACEMENT_3D ( 'NONE', #792, #817, #804 ) ;
#1201 = DIRECTION ( 'NONE',  ( 1.000000000000000000, 1.156482317317871478E-16, -0.000000000000000000 ) ) ;
#1202 = CARTESIAN_POINT ( 'NONE',  ( 10.79999999999999538, 10.57168203490309288, 20.00000000000000000 ) ) ;
#1203 = DIRECTION ( 'NONE',  ( 0.000000000000000000, 0.000000000000000000, -1.000000000000000000 ) ) ;
#1204 = ORIENTED_EDGE ( 'NONE', *, *, #1232, .T. ) ;
#1205 = DIRECTION ( 'NONE',  ( -1.000000000000000000, -3.469446951953614189E-16, -0.000000000000000000 ) ) ;
#1206 = CARTESIAN_POINT ( 'NONE',  ( 19.00000000000000355, 6.591949208711868536E-15, 19.00000000000000000 ) ) ;
#1207 = LINE ( 'NONE', #1017, #855 ) ;
#1208 = EDGE_CURVE ( 'NONE', #519, #668, #1139, .T. ) ;
#1209 = ORIENTED_EDGE ( 'NONE', *, *, #926, .F. ) ;
#1210 = DIRECTION ( 'NONE',  ( 0.000000000000000000, 1.000000000000000000, 0.000000000000000000 ) ) ;
#1211 = DIRECTION ( 'NONE',  ( -0.000000000000000000, -0.000000000000000000, 1.000000000000000000 ) ) ;
#1212 = CARTESIAN_POINT ( 'NONE',  ( 10.79999999999999361, 22.51999999999999602, 15.63000000000000078 ) ) ;
#1213 = VERTEX_POINT ( 'NONE', #628 ) ;
#1214 = ORIENTED_EDGE ( 'NONE', *, *, #79, .F. ) ;
#1215 = AXIS2_PLACEMENT_3D ( 'NONE', #1266, #354, #1174 ) ;
#1216 = DIRECTION ( 'NONE',  ( -1.000000000000000000, -0.000000000000000000, -0.000000000000000000 ) ) ;
#1217 = AXIS2_PLACEMENT_3D ( 'NONE', #798, #1322, #412 ) ;
#1218 = AXIS2_PLACEMENT_3D ( 'NONE', #881, #1291, #364 ) ;
#1219 = FACE_OUTER_BOUND ( 'NONE', #977, .T. ) ;
#1220 = VECTOR ( 'NONE', #460, 1000.000000000000000 ) ;
#1221 = AXIS2_PLACEMENT_3D ( 'NONE', #361, #590, #176 ) ;
#1222 = DIRECTION ( 'NONE',  ( 0.000000000000000000, -1.000000000000000000, 0.000000000000000000 ) ) ;
#1223 = VERTEX_POINT ( 'NONE', #1145 ) ;
#1224 = LINE ( 'NONE', #286, #130 ) ;
#1225 = EDGE_CURVE ( 'NONE', #506, #141, #516, .T. ) ;
#1226 = LINE ( 'NONE', #97, #328 ) ;
#1227 =( NAMED_UNIT ( * ) SI_UNIT ( $, .STERADIAN. ) SOLID_ANGLE_UNIT ( ) );
#1228 = DIRECTION ( 'NONE',  ( -1.000000000000000000, -1.156482317317871478E-16, 0.000000000000000000 ) ) ;
#1229 = VERTEX_POINT ( 'NONE', #1233 ) ;
#1230 = ORIENTED_EDGE ( 'NONE', *, *, #14, .F. ) ;
#1231 = DIRECTION ( 'NONE',  ( -0.000000000000000000, -0.000000000000000000, 1.000000000000000000 ) ) ;
#1232 = EDGE_CURVE ( 'NONE', #27, #1272, #563, .T. ) ;
#1233 = CARTESIAN_POINT ( 'NONE',  ( 5.499999999999994671, 15.00000000000000000, 3.500000000000000444 ) ) ;
#1234 = CARTESIAN_POINT ( 'NONE',  ( 0.9999999999999995559, 2.000000000000000000, 20.00000000000000000 ) ) ;
#1235 = EDGE_LOOP ( 'NONE', ( #549, #483, #421, #325, #223, #397, #338, #5, #184 ) ) ;
#1236 = PLANE ( 'NONE',  #1321 ) ;
#1237 = VECTOR ( 'NONE', #1125, 1000.000000000000000 ) ;
#1238 = EDGE_CURVE ( 'NONE', #17, #971, #1071, .T. ) ;
#1239 = CARTESIAN_POINT ( 'NONE',  ( 5.694391315658429598, 16.32471132136652869, 13.91417995861224455 ) ) ;
#1240 = CIRCLE ( 'NONE', #1025, 2.000000000000000444 ) ;
#1241 = CIRCLE ( 'NONE', #19, 1.000000000000000888 ) ;
#1242 = EDGE_CURVE ( 'NONE', #825, #971, #116, .T. ) ;
#1243 = EDGE_LOOP ( 'NONE', ( #698, #1311, #1066, #831 ) ) ;
#1244 = EDGE_LOOP ( 'NONE', ( #1018, #101, #547, #319, #941, #1147, #1191, #806 ) ) ;
#1245 = CARTESIAN_POINT ( 'NONE',  ( 20.00000000000000711, 22.52000000000000313, 15.63000000000000078 ) ) ;
#1246 = DIRECTION ( 'NONE',  ( -0.000000000000000000, 0.000000000000000000, 1.000000000000000000 ) ) ;
#1247 = CARTESIAN_POINT ( 'NONE',  ( 20.00000000000001421, 2.520000000000006235, 15.63000000000000078 ) ) ;
#1248 = VERTEX_POINT ( 'NONE', #123 ) ;
#1249 = DIRECTION ( 'NONE',  ( 0.000000000000000000, 1.000000000000000000, 2.891205793294678696E-17 ) ) ;
#1250 = ORIENTED_EDGE ( 'NONE', *, *, #1150, .T. ) ;
#1251 = FACE_OUTER_BOUND ( 'NONE', #873, .T. ) ;
#1252 = SHAPE_DEFINITION_REPRESENTATION ( #1315, #982 ) ;
#1253 = CARTESIAN_POINT ( 'NONE',  ( 5.907607639508070996, 16.87530506272754849, 16.71800907303662598 ) ) ;
#1254 = ORIENTED_EDGE ( 'NONE', *, *, #997, .F. ) ;
#1255 = CARTESIAN_POINT ( 'NONE',  ( 5.088522196198630857E-16, 2.519999999999998685, 15.63000000000000078 ) ) ;
#1256 = VERTEX_POINT ( 'NONE', #290 ) ;
#1257 = EDGE_CURVE ( 'NONE', #1039, #1089, #621, .T. ) ;
#1258 = DIRECTION ( 'NONE',  ( -1.000000000000000000, -3.469446951953614189E-16, -0.000000000000000000 ) ) ;
#1259 = APPLICATION_PROTOCOL_DEFINITION ( 'international standard', 'config_control_design', 1994, #87 ) ;
#1260 = DIRECTION ( 'NONE',  ( 0.000000000000000000, 0.000000000000000000, 1.000000000000000000 ) ) ;
#1261 = AXIS2_PLACEMENT_3D ( 'NONE', #227, #1246, #488 ) ;
#1262 = ORIENTED_EDGE ( 'NONE', *, *, #1238, .T. ) ;
#1263 = FACE_OUTER_BOUND ( 'NONE', #1270, .T. ) ;
#1264 = CIRCLE ( 'NONE', #240, 2.149999999999999023 ) ;
#1265 = ORIENTED_EDGE ( 'NONE', *, *, #1074, .F. ) ;
#1266 = CARTESIAN_POINT ( 'NONE',  ( 12.39999999999999503, 15.00000000000000000, 3.500000000000000444 ) ) ;
#1267 = ADVANCED_FACE ( 'NONE', ( #110 ), #1297, .F. ) ;
#1268 = DATE_AND_TIME ( #31, #1198 ) ;
#1269 = DIRECTION ( 'NONE',  ( -1.000000000000000000, -0.000000000000000000, -0.000000000000000000 ) ) ;
#1270 = EDGE_LOOP ( 'NONE', ( #1006, #666, #1186, #34, #727, #859, #1230 ) ) ;
#1271 = CARTESIAN_POINT ( 'NONE',  ( 1.999999999999999556, 2.000000000000000000, 5.000000000000000000 ) ) ;
#1272 = VERTEX_POINT ( 'NONE', #22 ) ;
#1273 = DIRECTION ( 'NONE',  ( 0.000000000000000000, -1.000000000000000000, 0.000000000000000000 ) ) ;
#1274 = DIRECTION ( 'NONE',  ( 0.000000000000000000, 0.000000000000000000, 1.000000000000000000 ) ) ;
#1275 = CARTESIAN_POINT ( 'NONE',  ( 5.552851708257824370, 14.29960312002998002, 13.59234808080472945 ) ) ;
#1276 = LINE ( 'NONE', #289, #1000 ) ;
#1277 = ORIENTED_EDGE ( 'NONE', *, *, #442, .T. ) ;
#1278 = DIRECTION ( 'NONE',  ( 0.000000000000000000, -1.000000000000000000, 0.000000000000000000 ) ) ;
#1279 = CARTESIAN_POINT ( 'NONE',  ( 5.499999999999992895, 14.99999999999999822, 17.78000000000000114 ) ) ;
#1280 = AXIS2_PLACEMENT_3D ( 'NONE', #577, #149, #1289 ) ;
#1281 = CARTESIAN_POINT ( 'NONE',  ( 19.99999999999999289, 30.00000000000000000, 19.00000000000000000 ) ) ;
#1282 = ADVANCED_FACE ( 'NONE', ( #8 ), #430, .F. ) ;
#1283 = EDGE_LOOP ( 'NONE', ( #1032, #589, #1080, #819 ) ) ;
#1284 = AXIS2_PLACEMENT_3D ( 'NONE', #124, #1269, #1260 ) ;
#1285 = FACE_OUTER_BOUND ( 'NONE', #436, .T. ) ;
#1286 = CARTESIAN_POINT ( 'NONE',  ( 0.000000000000000000, 0.000000000000000000, 0.000000000000000000 ) ) ;
#1287 = LINE ( 'NONE', #371, #670 ) ;
#1288 = VERTEX_POINT ( 'NONE', #641 ) ;
#1289 = DIRECTION ( 'NONE',  ( 0.000000000000000000, 0.000000000000000000, 1.000000000000000000 ) ) ;
#1290 = DIRECTION ( 'NONE',  ( 1.000000000000000000, 1.156482317317871478E-16, -0.000000000000000000 ) ) ;
#1291 = DIRECTION ( 'NONE',  ( 1.000000000000000000, 2.312964634635742957E-16, -0.000000000000000000 ) ) ;
#1292 = ORIENTED_EDGE ( 'NONE', *, *, #204, .T. ) ;
#1293 = EDGE_CURVE ( 'NONE', #1179, #1171, #852, .T. ) ;
#1294 = DIRECTION ( 'NONE',  ( 1.000000000000000000, 0.000000000000000000, 0.000000000000000000 ) ) ;
#1295 = CARTESIAN_POINT ( 'NONE',  ( 5.902590476686873977, 13.13765150240293700, 14.54675031999941304 ) ) ;
#1296 = ORIENTED_EDGE ( 'NONE', *, *, #384, .F. ) ;
#1297 = CYLINDRICAL_SURFACE ( 'NONE', #281, 2.149999999999995470 ) ;
#1298 = VERTEX_POINT ( 'NONE', #322 ) ;
#1299 = CIRCLE ( 'NONE', #999, 2.199999999999997957 ) ;
#1300 = CIRCLE ( 'NONE', #153, 4.500000000000000888 ) ;
#1301 = DIRECTION ( 'NONE',  ( 0.000000000000000000, -0.000000000000000000, -1.000000000000000000 ) ) ;
#1302 = VECTOR ( 'NONE', #781, 1000.000000000000000 ) ;
#1303 = CYLINDRICAL_SURFACE ( 'NONE', #568, 4.500000000000000888 ) ;
#1304 = EDGE_CURVE ( 'NONE', #1320, #506, #623, .T. ) ;
#1305 = DIRECTION ( 'NONE',  ( 0.000000000000000000, -0.000000000000000000, -1.000000000000000000 ) ) ;
#1306 = ORIENTED_EDGE ( 'NONE', *, *, #315, .T. ) ;
#1307 = DIRECTION ( 'NONE',  ( 3.343628375672285075E-33, -2.891205793294678696E-17, 1.000000000000000000 ) ) ;
#1308 = CARTESIAN_POINT ( 'NONE',  ( 0.9999999999999995559, 2.000000000000000000, 20.00000000000000000 ) ) ;
#1309 = DIRECTION ( 'NONE',  ( 0.000000000000000000, 1.000000000000000000, 0.000000000000000000 ) ) ;
#1310 = ORIENTED_EDGE ( 'NONE', *, *, #418, .T. ) ;
#1311 = ORIENTED_EDGE ( 'NONE', *, *, #1319, .T. ) ;
#1312 = CARTESIAN_POINT ( 'NONE',  ( 20.00000000000001421, 6.920000000000002593, 15.63000000000000078 ) ) ;
#1313 = DIRECTION ( 'NONE',  ( -1.000000000000000000, -3.469446951953614189E-16, -0.000000000000000000 ) ) ;
#1314 = CARTESIAN_POINT ( 'NONE',  ( 20.00000000000000711, 24.72000000000000242, 15.63000000000000078 ) ) ;
#1315 = PRODUCT_DEFINITION_SHAPE ( 'NONE', 'NONE',  #767 ) ;
#1316 = APPROVAL ( #356, 'Coincident' ) ;
#1317 = ORIENTED_EDGE ( 'NONE', *, *, #1040, .F. ) ;
#1318 = B_SPLINE_CURVE_WITH_KNOTS ( 'NONE', 3,
 ( #1062, #131, #452, #545, #756, #1140, #635, #929, #1253, #357, #1055, #1031, #217, #629, #117, #652, #445, #16, #425, #836, #828, #1239, #332, #733, #535, #432 ),
 .UNSPECIFIED., .F., .F.,
 ( 4, 2, 2, 2, 2, 2, 2, 2, 2, 2, 2, 2, 4 ),
 ( 1.734723475976807094E-18, 0.0004267377932601847568, 0.0008534755865203677789, 0.001706951173040728619, 0.002560426759561089567, 0.002987164552821270150, 0.003413902346081450732, 0.003840640139341632182, 0.004267377932601813632, 0.004694115725861993348, 0.005120853519122173930, 0.005974329105642532493, 0.006827804692162889322 ),
 .UNSPECIFIED. ) ;
#1319 = EDGE_CURVE ( 'NONE', #11, #50, #424, .T. ) ;
#1320 = VERTEX_POINT ( 'NONE', #1101 ) ;
#1321 = AXIS2_PLACEMENT_3D ( 'NONE', #1041, #128, #1060 ) ;
#1322 = DIRECTION ( 'NONE',  ( -0.000000000000000000, -0.000000000000000000, 1.000000000000000000 ) ) ;
ENDSEC;
END-ISO-10303-21;
