ISO-10303-21;
HEADER;
FILE_DESCRIPTION (( 'STEP AP203' ),
    '1' );
FILE_NAME ('SWITCH-M10-5A-R1-RP.STEP.STEP',
    '2026-06-22T08:49:27',
    ( 'localuser' ),
    ( '' ),
    'SwSTEP 2.0',
    'SolidWorks 2025',
    '' );
FILE_SCHEMA (( 'CONFIG_CONTROL_DESIGN' ));
ENDSEC;

DATA;
#1 = PRODUCT_DEFINITION_FORMATION_WITH_SPECIFIED_SOURCE ( 'Symmetric', '', #292, .NOT_KNOWN. ) ;
#2 = CC_DESIGN_SECURITY_CLASSIFICATION ( #28, ( #649 ) ) ;
#3 = UNCERTAINTY_MEASURE_WITH_UNIT (LENGTH_MEASURE( 1.000000000000000082E-05 ), #57, 'distance_accuracy_value', 'NONE');
#4 = SECURITY_CLASSIFICATION_LEVEL ( 'unclassified' ) ;
#5 = LOCAL_TIME ( 18, 49, 27.00000000000000000, #22 ) ;
#6 = DIRECTION ( 'NONE',  ( 0.9999999999999997780, 9.343289982139228137E-19, 4.336808689942017736E-19 ) ) ;
#7 = PROPERTY_DEFINITION ('external definition','', #569 ) ;
#8 = PERSON_AND_ORGANIZATION ( #18446744073709551615, #18446744073709551615 ) ;
#9 = APPROVAL_DATE_TIME ( #59, #76 ) ;
#10 = PRODUCT_RELATED_PRODUCT_CATEGORY ( 'detail', '', ( #292 ) ) ;
#11 = DATE_AND_TIME ( #601, #280 ) ;
#12 = DIRECTION ( 'NONE',  ( -0.9999999999999997780, -9.343289982139228137E-19, -4.336808689942017736E-19 ) ) ;
#13 = CC_DESIGN_DATE_AND_TIME_ASSIGNMENT ( #25, #34, ( #527 ) ) ;
#14 = CALENDAR_DATE ( 2026, 22, 6 ) ;
#15 = APPROVAL_PERSON_ORGANIZATION ( #521, #384, #171 ) ;
#16 = APPLICATION_CONTEXT ( 'configuration controlled 3d designs of mechanical parts and assemblies' ) ;
#17 = DIRECTION ( 'NONE',  ( 0.9999999999999997780, 9.343289982139228137E-19, 4.336808689942017736E-19 ) ) ;
#18 = PRODUCT_DEFINITION_FORMATION_WITH_SPECIFIED_SOURCE ( 'Symmetric', '', #509, .NOT_KNOWN. ) ;
#19 = PERSON_AND_ORGANIZATION ( #95, #507 ) ;
#20 = PERSON_AND_ORGANIZATION ( #18446744073709551615, #18446744073709551615 ) ;
#21 = SECURITY_CLASSIFICATION_LEVEL ( 'unclassified' ) ;
#22 = COORDINATED_UNIVERSAL_TIME_OFFSET ( 10, 0, .AHEAD. ) ;
#23 = PRODUCT_DEFINITION ( 'General', '', #18, #164 ) ;
#24 = OBJECT_ROLE ('mandatory',$ ) ;
#25 = DATE_AND_TIME ( #235, #308 ) ;
#26 = LOCAL_TIME ( 18, 49, 27.00000000000000000, #220 ) ;
#27 = SECURITY_CLASSIFICATION_LEVEL ( 'unclassified' ) ;
#28 = SECURITY_CLASSIFICATION ( '', '', #46 ) ;
#29 = AXIS2_PLACEMENT_3D ( 'NONE', #563, #516, #6 ) ;
#30 = APPLIED_EXTERNAL_IDENTIFICATION_ASSIGNMENT ( 'PRV-M10-PLUG-R1_Switich.STEP.STEP' , #638, #459,( #363) ) ;
#31 = PROPERTY_DEFINITION_REPRESENTATION ( #7, #519 ) ;
#32 = PERSON_AND_ORGANIZATION_ROLE ( 'design_supplier' ) ;
#33 = CC_DESIGN_PERSON_AND_ORGANIZATION_ASSIGNMENT ( #275, #234, ( #299 ) ) ;
#34 = DATE_TIME_ROLE ( 'classification_date' ) ;
#35 = MECHANICAL_CONTEXT ( 'NONE', #628, 'mechanical' ) ;
#36 = PROPERTY_DEFINITION_REPRESENTATION ( #608, #118 ) ;
#37 = CC_DESIGN_PERSON_AND_ORGANIZATION_ASSIGNMENT ( #19, #72, ( #527 ) ) ;
#38 = APPLICATION_PROTOCOL_DEFINITION ( 'international standard', 'config_control_design', 1994, #161 ) ;
#39 = APPLICATION_CONTEXT ( 'configuration controlled 3d designs of mechanical parts and assemblies' ) ;
#40 = PERSON ( 'NAUO-PER4', 'UNSPECIFIED', 'UNSPECIFIED', ('UNSPECIFIED'), ('UNSPECIFIED'), ('UNSPECIFIED') ) ;
#41 = APPROVAL_STATUS ( 'not_yet_approved' ) ;
#42 = CC_DESIGN_DATE_AND_TIME_ASSIGNMENT ( #426, #230, ( #339 ) ) ;
#43 = PERSON_AND_ORGANIZATION_ROLE ( 'classification_officer' ) ;
#44 = APPROVAL_DATE_TIME ( #388, #268 ) ;
#45 = PRODUCT_DEFINITION_SHAPE ( 'NONE', 'NONE',  #648 ) ;
#46 = SECURITY_CLASSIFICATION_LEVEL ( 'unclassified' ) ;
#47 = APPROVAL_STATUS ( 'not_yet_approved' ) ;
#48 =( NAMED_UNIT ( * ) PLANE_ANGLE_UNIT ( ) SI_UNIT ( $, .RADIAN. ) );
#49 = CC_DESIGN_APPROVAL ( #288, ( #63 ) ) ;
#50 = LOCAL_TIME ( 18, 49, 27.00000000000000000, #585 ) ;
#51 = CALENDAR_DATE ( 2026, 22, 6 ) ;
#52 = CC_DESIGN_APPROVAL ( #533, ( #285 ) ) ;
#53 = DATE_AND_TIME ( #200, #326 ) ;
#54 = DIRECTION ( 'NONE',  ( 1.000000000000000000, 0.000000000000000000, 0.000000000000000000 ) ) ;
#55 = CC_DESIGN_PERSON_AND_ORGANIZATION_ASSIGNMENT ( #160, #461, ( #509 ) ) ;
#56 = PERSON_AND_ORGANIZATION ( #18446744073709551615, #18446744073709551615 ) ;
#57 =( LENGTH_UNIT ( ) NAMED_UNIT ( * ) SI_UNIT ( $, .METRE. ) );
#58 = PERSON_AND_ORGANIZATION_ROLE ( 'creator' ) ;
#59 = DATE_AND_TIME ( #513, #644 ) ;
#60 = LOCAL_TIME ( 18, 49, 27.00000000000000000, #436 ) ;
#61 = APPROVAL_PERSON_ORGANIZATION ( #560, #76, #315 ) ;
#62 = PERSON_AND_ORGANIZATION ( #18446744073709551615, #18446744073709551615 ) ;
#63 = SECURITY_CLASSIFICATION ( '', '', #21 ) ;
#64 =( NAMED_UNIT ( * ) SI_UNIT ( $, .STERADIAN. ) SOLID_ANGLE_UNIT ( ) );
#65 = DATE_AND_TIME ( #455, #309 ) ;
#66 = PERSON_AND_ORGANIZATION_ROLE ( 'design_supplier' ) ;
#67 = UNCERTAINTY_MEASURE_WITH_UNIT (LENGTH_MEASURE( 1.000000000000000082E-05 ), #491, 'distance_accuracy_value', 'NONE');
#68 = ITEM_DEFINED_TRANSFORMATION ( 'NONE', 'NONE', #176,  #400 ) ;
#69 = PROPERTY_DEFINITION ('document property','', #620 ) ;
#70 = APPROVAL_STATUS ( 'not_yet_approved' ) ;
#71 = PERSON ( 'NAUO-PER5', 'UNSPECIFIED', 'UNSPECIFIED', ('UNSPECIFIED'), ('UNSPECIFIED'), ('UNSPECIFIED') ) ;
#72 = PERSON_AND_ORGANIZATION_ROLE ( 'classification_officer' ) ;
#73 = PERSON_AND_ORGANIZATION_ROLE ( 'design_owner' ) ;
#74 = OBJECT_ROLE ('mandatory',$ ) ;
#75 = CALENDAR_DATE ( 2026, 22, 6 ) ;
#76 = APPROVAL ( #120, 'Coincident' ) ;
#77 = APPROVAL_DATE_TIME ( #380, #533 ) ;
#78 = APPROVAL_DATE_TIME ( #572, #616 ) ;
#79 = DATE_AND_TIME ( #523, #184 ) ;
#80 = COORDINATED_UNIVERSAL_TIME_OFFSET ( 10, 0, .AHEAD. ) ;
#81 = APPROVAL_PERSON_ORGANIZATION ( #522, #288, #375 ) ;
#82 = APPROVAL_ROLE ( '' ) ;
#83 = LOCAL_TIME ( 18, 49, 27.00000000000000000, #629 ) ;
#84 = CC_DESIGN_APPROVAL ( #76, ( #23 ) ) ;
#85 = CC_DESIGN_PERSON_AND_ORGANIZATION_ASSIGNMENT ( #253, #195, ( #217 ) ) ;
#86 = DATE_AND_TIME ( #75, #26 ) ;
#87 = PERSON_AND_ORGANIZATION_ROLE ( 'creator' ) ;
#88 = EXTERNAL_SOURCE (IDENTIFIER('') ) ;
#89 = CALENDAR_DATE ( 2026, 22, 6 ) ;
#90 = PERSON_AND_ORGANIZATION ( #18446744073709551615, #18446744073709551615 ) ;
#91 = DOCUMENT_FILE ( 'VENT-M10-BULKHEAD-R1_PRV-BULKHEAD-X1.STEP.STEP' , '', '', #194, '' ,$ ) ;
#92 = DATE_AND_TIME ( #294, #271 ) ;
#93 = SECURITY_CLASSIFICATION ( '', '', #449 ) ;
#94 = APPLIED_EXTERNAL_IDENTIFICATION_ASSIGNMENT ( 'Button GH1358-ND 5A_91772A555.STEP.STEP' , #570, #131,( #477) ) ;
#95 = PERSON ( 'NAUO-PER2', 'UNSPECIFIED', 'UNSPECIFIED', ('UNSPECIFIED'), ('UNSPECIFIED'), ('UNSPECIFIED') ) ;
#96 = ROLE_ASSOCIATION ( #24, #480 ) ;
#97 = PERSON_AND_ORGANIZATION ( #18446744073709551615, #18446744073709551615 ) ;
#98 = IDENTIFICATION_ROLE ( 'external document id and location', $) ;
#99 = DIRECTION ( 'NONE',  ( 0.000000000000000000, 0.000000000000000000, 1.000000000000000000 ) ) ;
#100 = ITEM_DEFINED_TRANSFORMATION ( 'NONE', 'NONE', #29,  #300 ) ;
#101 = APPROVAL_ROLE ( '' ) ;
#102 = DIRECTION ( 'NONE',  ( 1.000000000000000000, 0.000000000000000000, 0.000000000000000000 ) ) ;
#103 = PERSON_AND_ORGANIZATION ( #40, #186 ) ;
#104 = PERSON_AND_ORGANIZATION ( #18446744073709551615, #18446744073709551615 ) ;
#105 = CARTESIAN_POINT ( 'NONE',  ( 0.000000000000000000, 0.000000000000000000, 0.000000000000000000 ) ) ;
#106 = CC_DESIGN_APPROVAL ( #142, ( #93 ) ) ;
#107 = PRODUCT_DEFINITION ( 'General', '', #621, #497 ) ;
#108 =( GEOMETRIC_REPRESENTATION_CONTEXT ( 3 ) GLOBAL_UNCERTAINTY_ASSIGNED_CONTEXT ( ( #3 ) ) GLOBAL_UNIT_ASSIGNED_CONTEXT ( ( #57, #635, #64 ) ) REPRESENTATION_CONTEXT ( 'NONE', 'WORKASPACE' ) );
#109 = APPROVAL_ROLE ( '' ) ;
#110 = CC_DESIGN_PERSON_AND_ORGANIZATION_ASSIGNMENT ( #435, #43, ( #578 ) ) ;
#111 = DATE_TIME_ROLE ( 'classification_date' ) ;
#112 = PERSON_AND_ORGANIZATION ( #18446744073709551615, #18446744073709551615 ) ;
#113 = CC_DESIGN_PERSON_AND_ORGANIZATION_ASSIGNMENT ( #112, #347, ( #93 ) ) ;
#114 = LOCAL_TIME ( 18, 49, 27.00000000000000000, #233 ) ;
#115 = CC_DESIGN_DATE_AND_TIME_ASSIGNMENT ( #622, #582, ( #285 ) ) ;
#116 = PERSON_AND_ORGANIZATION_ROLE ( 'design_owner' ) ;
#117 = DATE_AND_TIME ( #450, #215 ) ;
#118 = SHAPE_REPRESENTATION ( 'Button GH1358-ND 5A_91772A555.STEP', ( #300 ), #349 ) ;
#119 = PERSON_AND_ORGANIZATION ( #18446744073709551615, #18446744073709551615 ) ;
#120 = APPROVAL_STATUS ( 'not_yet_approved' ) ;
#121 = OBJECT_ROLE ('mandatory',$ ) ;
#122 = DATE_TIME_ROLE ( 'classification_date' ) ;
#123 = APPROVAL ( #41, 'Coincident' ) ;
#124 = CC_DESIGN_SECURITY_CLASSIFICATION ( #368, ( #506 ) ) ;
#125 = ITEM_DEFINED_TRANSFORMATION ( 'NONE', 'NONE', #602,  #136 ) ;
#126 = PERSON_AND_ORGANIZATION ( #18446744073709551615, #18446744073709551615 ) ;
#127 = LOCAL_TIME ( 18, 49, 27.00000000000000000, #365 ) ;
#128 = APPROVAL ( #129, 'UNKNOWN' ) ;
#129 = APPROVAL_STATUS ( 'not_yet_approved' ) ;
#130 = CALENDAR_DATE ( 2026, 22, 6 ) ;
#131 = EXTERNAL_SOURCE (IDENTIFIER('') ) ;
#132 = COORDINATED_UNIVERSAL_TIME_OFFSET ( 10, 0, .AHEAD. ) ;
#133 = LOCAL_TIME ( 18, 49, 27.00000000000000000, #641 ) ;
#134 = APPROVAL_STATUS ( 'not_yet_approved' ) ;
#135 = ORGANIZATION ( 'NAUO-ORG3', 'UNSPECIFIED', 'UNSPECIFIED' ) ;
#136 = AXIS2_PLACEMENT_3D ( 'NONE', #501, #99, #54 ) ;
#137 = PERSON_AND_ORGANIZATION_ROLE ( 'design_owner' ) ;
#138 = APPROVAL_ROLE ( '' ) ;
#139 = PERSON_AND_ORGANIZATION_ROLE ( 'creator' ) ;
#140 = DOCUMENT_TYPE ( 'geometry' ) ;
#141 =( NAMED_UNIT ( * ) SI_UNIT ( $, .STERADIAN. ) SOLID_ANGLE_UNIT ( ) );
#142 = APPROVAL ( #155, 'Coincident' ) ;
#143 = ITEM_DEFINED_TRANSFORMATION ( 'NONE', 'NONE', #240,  #229 ) ;
#144 = APPROVAL_ROLE ( '' ) ;
#145 = LOCAL_TIME ( 18, 49, 27.00000000000000000, #607 ) ;
#146 =( NAMED_UNIT ( * ) SI_UNIT ( $, .STERADIAN. ) SOLID_ANGLE_UNIT ( ) );
#147 = PRODUCT_DEFINITION_SHAPE ( 'NONE', 'NONE',  #285 ) ;
#148 = APPROVAL_ROLE ( '' ) ;
#149 = DIRECTION ( 'NONE',  ( 0.000000000000000000, 0.000000000000000000, 1.000000000000000000 ) ) ;
#150 = PERSON_AND_ORGANIZATION ( #18446744073709551615, #18446744073709551615 ) ;
#151 = CC_DESIGN_PERSON_AND_ORGANIZATION_ASSIGNMENT ( #269, #553, ( #1 ) ) ;
#152 = UNCERTAINTY_MEASURE_WITH_UNIT (LENGTH_MEASURE( 1.000000000000000082E-05 ), #395, 'distance_accuracy_value', 'NONE');
#153 = APPROVAL_DATE_TIME ( #599, #169 ) ;
#154 =( NAMED_UNIT ( * ) PLANE_ANGLE_UNIT ( ) SI_UNIT ( $, .RADIAN. ) );
#155 = APPROVAL_STATUS ( 'not_yet_approved' ) ;
#156 = PROPERTY_DEFINITION ('document property','', #363 ) ;
#157 = APPROVAL_DATE_TIME ( #603, #177 ) ;
#158 = CC_DESIGN_PERSON_AND_ORGANIZATION_ASSIGNMENT ( #406, #266, ( #23 ) ) ;
#159 = PERSON_AND_ORGANIZATION_ROLE ( 'creator' ) ;
#160 = PERSON_AND_ORGANIZATION ( #18446744073709551615, #18446744073709551615 ) ;
#161 = APPLICATION_CONTEXT ( 'configuration controlled 3d designs of mechanical parts and assemblies' ) ;
#162 = PERSON_AND_ORGANIZATION ( #18446744073709551615, #18446744073709551615 ) ;
#163 = DIRECTION ( 'NONE',  ( 0.9999999999999997780, 9.343289982139228137E-19, 4.336808689942017736E-19 ) ) ;
#164 = DESIGN_CONTEXT ( 'detailed design', #504, 'design' ) ;
#165 = CALENDAR_DATE ( 2026, 22, 6 ) ;
#166 = MECHANICAL_CONTEXT ( 'NONE', #39, 'mechanical' ) ;
#167 = DATE_AND_TIME ( #364, #432 ) ;
#168 =( NAMED_UNIT ( * ) SI_UNIT ( $, .STERADIAN. ) SOLID_ANGLE_UNIT ( ) );
#169 = APPROVAL ( #434, 'Coincident' ) ;
#170 = SECURITY_CLASSIFICATION_LEVEL ( 'unclassified' ) ;
#171 = APPROVAL_ROLE ( '' ) ;
#172 = EXTERNAL_SOURCE (IDENTIFIER('') ) ;
#173 = APPROVAL_DATE_TIME ( #167, #128 ) ;
#174 = APPROVAL_PERSON_ORGANIZATION ( #19, #616, #328 ) ;
#175 = PERSON_AND_ORGANIZATION ( #18446744073709551615, #18446744073709551615 ) ;
#176 = AXIS2_PLACEMENT_3D ( 'NONE', #205, #358, #163 ) ;
#177 = APPROVAL ( #70, 'Coincident' ) ;
#178 = PROPERTY_DEFINITION_REPRESENTATION ( #69, #519 ) ;
#179 = PERSON_AND_ORGANIZATION ( #18446744073709551615, #18446744073709551615 ) ;
#180 = CALENDAR_DATE ( 2026, 22, 6 ) ;
#181 = CC_DESIGN_PERSON_AND_ORGANIZATION_ASSIGNMENT ( #103, #297, ( #28 ) ) ;
#182 = DATE_AND_TIME ( #130, #411 ) ;
#183 = CONTEXT_DEPENDENT_SHAPE_REPRESENTATION ( #584, #252 ) ;
#184 = LOCAL_TIME ( 18, 49, 27.00000000000000000, #323 ) ;
#185 = COORDINATED_UNIVERSAL_TIME_OFFSET ( 10, 0, .AHEAD. ) ;
#186 = ORGANIZATION ( 'NAUO-ORG4', 'UNSPECIFIED', 'UNSPECIFIED' ) ;
#187 = DATE_TIME_ROLE ( 'classification_date' ) ;
#188 = CALENDAR_DATE ( 2026, 22, 6 ) ;
#189 = CC_DESIGN_DATE_AND_TIME_ASSIGNMENT ( #11, #111, ( #93 ) ) ;
#190 = CALENDAR_DATE ( 2026, 22, 6 ) ;
#191 = UNCERTAINTY_MEASURE_WITH_UNIT (LENGTH_MEASURE( 1.000000000000000082E-05 ), #410, 'distance_accuracy_value', 'NONE');
#192 = DATE_AND_TIME ( #637, #60 ) ;
#193 =( NAMED_UNIT ( * ) SI_UNIT ( $, .STERADIAN. ) SOLID_ANGLE_UNIT ( ) );
#194 = DOCUMENT_TYPE ( 'geometry' ) ;
#195 = PERSON_AND_ORGANIZATION_ROLE ( 'creator' ) ;
#196 = APPLIED_EXTERNAL_IDENTIFICATION_ASSIGNMENT ( 'VENT-M10-BULKHEAD-R1_PRV-BULKHEAD-X1.STEP.STEP' , #98, #199,( #91) ) ;
#197 = APPROVAL_PERSON_ORGANIZATION ( #374, #533, #526 ) ;
#198 = CC_DESIGN_PERSON_AND_ORGANIZATION_ASSIGNMENT ( #458, #66, ( #18 ) ) ;
#199 = EXTERNAL_SOURCE (IDENTIFIER('') ) ;
#200 = CALENDAR_DATE ( 2026, 22, 6 ) ;
#201 =( LENGTH_UNIT ( ) NAMED_UNIT ( * ) SI_UNIT ( $, .METRE. ) );
#202 = COORDINATED_UNIVERSAL_TIME_OFFSET ( 10, 0, .AHEAD. ) ;
#203 = PRODUCT ( 'VENT-M10-BULKHEAD-R1_PRV-BULKHEAD-X1.STEP', 'VENT-M10-BULKHEAD-R1_PRV-BULKHEAD-X1.STEP', '', ( #630 ) ) ;
#204 = DATE_AND_TIME ( #352, #441 ) ;
#205 = CARTESIAN_POINT ( 'NONE',  ( -5.421010862427522170E-20, -0.02524999999999999467, 0.000000000000000000 ) ) ;
#206 = CC_DESIGN_APPROVAL ( #514, ( #379 ) ) ;
#207 = APPROVAL_PERSON_ORGANIZATION ( #402, #322, #261 ) ;
#208 = APPROVAL_ROLE ( '' ) ;
#209 = PERSON_AND_ORGANIZATION_ROLE ( 'design_supplier' ) ;
#210 = PERSON_AND_ORGANIZATION ( #18446744073709551615, #18446744073709551615 ) ;
#211 = PRODUCT_DEFINITION_SHAPE ( 'NONE', 'NONE',  #650 ) ;
#212 = APPROVAL_DATE_TIME ( #65, #503 ) ;
#213 = APPROVAL_PERSON_ORGANIZATION ( #510, #503, #109 ) ;
#214 = CC_DESIGN_APPROVAL ( #419, ( #578 ) ) ;
#215 = LOCAL_TIME ( 18, 49, 27.00000000000000000, #557 ) ;
#216 = COORDINATED_UNIVERSAL_TIME_OFFSET ( 10, 0, .AHEAD. ) ;
#217 = PRODUCT_DEFINITION ( 'General', '', #506, #600 ) ;
#218 = APPLICATION_PROTOCOL_DEFINITION ( 'international standard', 'config_control_design', 1994, #39 ) ;
#219 = DOCUMENT_TYPE ( 'geometry' ) ;
#220 = COORDINATED_UNIVERSAL_TIME_OFFSET ( 10, 0, .AHEAD. ) ;
#221 = CALENDAR_DATE ( 2026, 22, 6 ) ;
#222 = DATE_AND_TIME ( #319, #259 ) ;
#223 = APPROVAL_STATUS ( 'not_yet_approved' ) ;
#224 = CC_DESIGN_PERSON_AND_ORGANIZATION_ASSIGNMENT ( #126, #428, ( #285 ) ) ;
#225 = CC_DESIGN_APPROVAL ( #612, ( #642 ) ) ;
#226 = APPLIED_DOCUMENT_REFERENCE ( #569,'',( #331) ) ;
#227 = APPROVAL_PERSON_ORGANIZATION ( #435, #419, #485 ) ;
#228 =( REPRESENTATION_RELATIONSHIP ('NONE','NONE', #357, #519 ) REPRESENTATION_RELATIONSHIP_WITH_TRANSFORMATION ( #125 )SHAPE_REPRESENTATION_RELATIONSHIP( ) );
#229 = AXIS2_PLACEMENT_3D ( 'NONE', #105, #437, #390 ) ;
#230 = DATE_TIME_ROLE ( 'classification_date' ) ;
#231 = LOCAL_TIME ( 18, 49, 27.00000000000000000, #305 ) ;
#232 = CC_DESIGN_DATE_AND_TIME_ASSIGNMENT ( #633, #187, ( #28 ) ) ;
#233 = COORDINATED_UNIVERSAL_TIME_OFFSET ( 10, 0, .AHEAD. ) ;
#234 = PERSON_AND_ORGANIZATION_ROLE ( 'classification_officer' ) ;
#235 = CALENDAR_DATE ( 2026, 22, 6 ) ;
#236 = PERSON_AND_ORGANIZATION ( #18446744073709551615, #18446744073709551615 ) ;
#237 = ROLE_ASSOCIATION ( #262, #438 ) ;
#238 = APPROVAL_ROLE ( '' ) ;
#239 = CC_DESIGN_PERSON_AND_ORGANIZATION_ASSIGNMENT ( #413, #159, ( #1 ) ) ;
#240 = AXIS2_PLACEMENT_3D ( 'NONE', #353, #456, #12 ) ;
#241 = PROPERTY_DEFINITION_REPRESENTATION ( #341, #421 ) ;
#242 = APPROVAL_DATE_TIME ( #396, #416 ) ;
#243 = PERSON_AND_ORGANIZATION ( #18446744073709551615, #18446744073709551615 ) ;
#244 = PROPERTY_DEFINITION ('external definition','', #363 ) ;
#245 = CC_DESIGN_DATE_AND_TIME_ASSIGNMENT ( #92, #290, ( #331 ) ) ;
#246 = APPROVAL_STATUS ( 'not_yet_approved' ) ;
#247 = PERSON_AND_ORGANIZATION ( #18446744073709551615, #18446744073709551615 ) ;
#248 = CC_DESIGN_APPROVAL ( #322, ( #107 ) ) ;
#249 = CARTESIAN_POINT ( 'NONE',  ( 0.000000000000000000, 0.000000000000000000, 0.000000000000000000 ) ) ;
#250 = LOCAL_TIME ( 18, 49, 27.00000000000000000, #468 ) ;
#251 = CC_DESIGN_SECURITY_CLASSIFICATION ( #339, ( #18 ) ) ;
#252 = PRODUCT_DEFINITION_SHAPE ( 'NONE', 'NONE',  #649 ) ;
#253 = PERSON_AND_ORGANIZATION ( #18446744073709551615, #18446744073709551615 ) ;
#254 = APPLICATION_PROTOCOL_DEFINITION ( 'international standard', 'config_control_design', 1994, #317 ) ;
#255 = PERSON_AND_ORGANIZATION_ROLE ( 'classification_officer' ) ;
#256 = CC_DESIGN_PERSON_AND_ORGANIZATION_ASSIGNMENT ( #90, #287, ( #292 ) ) ;
#257 = COORDINATED_UNIVERSAL_TIME_OFFSET ( 10, 0, .AHEAD. ) ;
#258 = CC_DESIGN_APPROVAL ( #123, ( #1 ) ) ;
#259 = LOCAL_TIME ( 18, 49, 27.00000000000000000, #618 ) ;
#260 = AXIS2_PLACEMENT_3D ( 'NONE', #414, #270, #550 ) ;
#261 = APPROVAL_ROLE ( '' ) ;
#262 = OBJECT_ROLE ('mandatory',$ ) ;
#263 = CARTESIAN_POINT ( 'NONE',  ( 0.000000000000000000, 0.000000000000000000, 0.000000000000000000 ) ) ;
#264 = CC_DESIGN_PERSON_AND_ORGANIZATION_ASSIGNMENT ( #522, #427, ( #63 ) ) ;
#265 = CALENDAR_DATE ( 2026, 22, 6 ) ;
#266 = PERSON_AND_ORGANIZATION_ROLE ( 'creator' ) ;
#267 = APPLICATION_CONTEXT ( 'configuration controlled 3d designs of mechanical parts and assemblies' ) ;
#268 = APPROVAL ( #486, 'Coincident' ) ;
#269 = PERSON_AND_ORGANIZATION ( #18446744073709551615, #18446744073709551615 ) ;
#270 = DIRECTION ( 'NONE',  ( 9.205794800133534006E-19, 1.000000000000000000, -9.999986023950202978E-16 ) ) ;
#271 = LOCAL_TIME ( 18, 49, 27.00000000000000000, #333 ) ;
#272 = CC_DESIGN_DATE_AND_TIME_ASSIGNMENT ( #534, #542, ( #578 ) ) ;
#273 =( GEOMETRIC_REPRESENTATION_CONTEXT ( 3 ) GLOBAL_UNCERTAINTY_ASSIGNED_CONTEXT ( ( #152 ) ) GLOBAL_UNIT_ASSIGNED_CONTEXT ( ( #395, #597, #141 ) ) REPRESENTATION_CONTEXT ( 'NONE', 'WORKASPACE' ) );
#274 = CONTEXT_DEPENDENT_SHAPE_REPRESENTATION ( #334, #392 ) ;
#275 = PERSON_AND_ORGANIZATION ( #18446744073709551615, #18446744073709551615 ) ;
#276 = SECURITY_CLASSIFICATION_LEVEL ( 'unclassified' ) ;
#277 = APPLICATION_PROTOCOL_DEFINITION ( 'international standard', 'config_control_design', 1994, #598 ) ;
#278 = CC_DESIGN_PERSON_AND_ORGANIZATION_ASSIGNMENT ( #119, #58, ( #621 ) ) ;
#279 = APPROVAL_DATE_TIME ( #182, #514 ) ;
#280 = LOCAL_TIME ( 18, 49, 27.00000000000000000, #355 ) ;
#281 = ROLE_ASSOCIATION ( #121, #226 ) ;
#282 = PERSON_AND_ORGANIZATION ( #18446744073709551615, #18446744073709551615 ) ;
#283 = PROPERTY_DEFINITION_REPRESENTATION ( #244, #581 ) ;
#284 = COORDINATED_UNIVERSAL_TIME_OFFSET ( 10, 0, .AHEAD. ) ;
#285 = PRODUCT_DEFINITION ( 'General', '', #379, #595 ) ;
#286 = PROPERTY_DEFINITION_REPRESENTATION ( #594, #519 ) ;
#287 = PERSON_AND_ORGANIZATION_ROLE ( 'design_owner' ) ;
#288 = APPROVAL ( #528, 'UNKNOWN' ) ;
#289 = LOCAL_TIME ( 18, 49, 27.00000000000000000, #496 ) ;
#290 = DATE_TIME_ROLE ( 'creation_date' ) ;
#291 = APPROVAL_PERSON_ORGANIZATION ( #478, #446, #82 ) ;
#292 = PRODUCT ( 'ORING-11.5X1.5-BUNA-70A_9262K523.STEP', 'ORING-11.5X1.5-BUNA-70A_9262K523.STEP', '', ( #596 ) ) ;
#293 = APPROVAL_STATUS ( 'not_yet_approved' ) ;
#294 = CALENDAR_DATE ( 2026, 22, 6 ) ;
#295 = CC_DESIGN_DATE_AND_TIME_ASSIGNMENT ( #204, #398, ( #642 ) ) ;
#296 = PERSON_AND_ORGANIZATION_ROLE ( 'creator' ) ;
#297 = PERSON_AND_ORGANIZATION_ROLE ( 'classification_officer' ) ;
#298 = PERSON_AND_ORGANIZATION ( #18446744073709551615, #18446744073709551615 ) ;
#299 = SECURITY_CLASSIFICATION ( '', '', #320 ) ;
#300 = AXIS2_PLACEMENT_3D ( 'NONE', #488, #547, #102 ) ;
#301 = APPROVAL_DATE_TIME ( #500, #322 ) ;
#302 = PRODUCT_RELATED_PRODUCT_CATEGORY ( 'detail', '', ( #548 ) ) ;
#303 = DATE_TIME_ROLE ( 'creation_date' ) ;
#304 = PROPERTY_DEFINITION ('document property','', #477 ) ;
#305 = COORDINATED_UNIVERSAL_TIME_OFFSET ( 10, 0, .AHEAD. ) ;
#306 = DATE_TIME_ROLE ( 'creation_date' ) ;
#307 = CC_DESIGN_SECURITY_CLASSIFICATION ( #63, ( #646 ) ) ;
#308 = LOCAL_TIME ( 18, 49, 27.00000000000000000, #471 ) ;
#309 = LOCAL_TIME ( 18, 49, 27.00000000000000000, #502 ) ;
#310 = DATE_AND_TIME ( #351, #565 ) ;
#311 = PROPERTY_DEFINITION ('external definition','', #620 ) ;
#312 = DIRECTION ( 'NONE',  ( 0.000000000000000000, 0.000000000000000000, 1.000000000000000000 ) ) ;
#313 = CC_DESIGN_PERSON_AND_ORGANIZATION_ASSIGNMENT ( #56, #209, ( #621 ) ) ;
#314 = COORDINATED_UNIVERSAL_TIME_OFFSET ( 10, 0, .AHEAD. ) ;
#315 = APPROVAL_ROLE ( '' ) ;
#316 = PERSON_AND_ORGANIZATION ( #362, #135 ) ;
#317 = APPLICATION_CONTEXT ( 'configuration controlled 3d designs of mechanical parts and assemblies' ) ;
#318 =( GEOMETRIC_REPRESENTATION_CONTEXT ( 3 ) GLOBAL_UNCERTAINTY_ASSIGNED_CONTEXT ( ( #552 ) ) GLOBAL_UNIT_ASSIGNED_CONTEXT ( ( #201, #154, #146 ) ) REPRESENTATION_CONTEXT ( 'NONE', 'WORKASPACE' ) );
#319 = CALENDAR_DATE ( 2026, 22, 6 ) ;
#320 = SECURITY_CLASSIFICATION_LEVEL ( 'unclassified' ) ;
#321 = CALENDAR_DATE ( 2026, 22, 6 ) ;
#322 = APPROVAL ( #512, 'Coincident' ) ;
#323 = COORDINATED_UNIVERSAL_TIME_OFFSET ( 10, 0, .AHEAD. ) ;
#324 = ROLE_ASSOCIATION ( #606, #520 ) ;
#325 = COORDINATED_UNIVERSAL_TIME_OFFSET ( 10, 0, .AHEAD. ) ;
#326 = LOCAL_TIME ( 18, 49, 27.00000000000000000, #202 ) ;
#327 = DOCUMENT_TYPE ( 'geometry' ) ;
#328 = APPROVAL_ROLE ( '' ) ;
#329 = LOCAL_TIME ( 18, 49, 27.00000000000000000, #185 ) ;
#330 = SHAPE_DEFINITION_REPRESENTATION ( #147, #421 ) ;
#331 = PRODUCT_DEFINITION ( 'General', '', #1, #640 ) ;
#332 = APPLICATION_PROTOCOL_DEFINITION ( 'international standard', 'config_control_design', 1994, #16 ) ;
#333 = COORDINATED_UNIVERSAL_TIME_OFFSET ( 10, 0, .AHEAD. ) ;
#334 =( REPRESENTATION_RELATIONSHIP ('NONE','NONE', #357, #581 ) REPRESENTATION_RELATIONSHIP_WITH_TRANSFORMATION ( #68 )SHAPE_REPRESENTATION_RELATIONSHIP( ) );
#335 = CC_DESIGN_APPROVAL ( #503, ( #621 ) ) ;
#336 = CC_DESIGN_PERSON_AND_ORGANIZATION_ASSIGNMENT ( #472, #73, ( #203 ) ) ;
#337 = SECURITY_CLASSIFICATION ( '', '', #276 ) ;
#338 = COORDINATED_UNIVERSAL_TIME_OFFSET ( 10, 0, .AHEAD. ) ;
#339 = SECURITY_CLASSIFICATION ( '', '', #27 ) ;
#340 = LOCAL_TIME ( 18, 49, 27.00000000000000000, #634 ) ;
#341 = PROPERTY_DEFINITION ('document property','', #91 ) ;
#342 = DATE_TIME_ROLE ( 'classification_date' ) ;
#343 = CC_DESIGN_DATE_AND_TIME_ASSIGNMENT ( #86, #575, ( #63 ) ) ;
#344 = APPROVAL_DATE_TIME ( #587, #419 ) ;
#345 = CALENDAR_DATE ( 2026, 22, 6 ) ;
#346 = PRODUCT_DEFINITION_SHAPE ( 'NONE', 'NONE',  #331 ) ;
#347 = PERSON_AND_ORGANIZATION_ROLE ( 'classification_officer' ) ;
#348 = APPROVAL_PERSON_ORGANIZATION ( #483, #123, #385 ) ;
#349 =( GEOMETRIC_REPRESENTATION_CONTEXT ( 3 ) GLOBAL_UNCERTAINTY_ASSIGNED_CONTEXT ( ( #67 ) ) GLOBAL_UNIT_ASSIGNED_CONTEXT ( ( #491, #48, #193 ) ) REPRESENTATION_CONTEXT ( 'NONE', 'WORKASPACE' ) );
#350 = CC_DESIGN_PERSON_AND_ORGANIZATION_ASSIGNMENT ( #593, #545, ( #368 ) ) ;
#351 = CALENDAR_DATE ( 2026, 22, 6 ) ;
#352 = CALENDAR_DATE ( 2026, 22, 6 ) ;
#353 = CARTESIAN_POINT ( 'NONE',  ( 0.000000000000000000, 0.000000000000000000, 0.000000000000000000 ) ) ;
#354 = PRODUCT_DEFINITION_SHAPE ( 'NONE', 'NONE',  #647 ) ;
#355 = COORDINATED_UNIVERSAL_TIME_OFFSET ( 10, 0, .AHEAD. ) ;
#356 = CC_DESIGN_PERSON_AND_ORGANIZATION_ASSIGNMENT ( #586, #139, ( #331 ) ) ;
#357 = SHAPE_REPRESENTATION ( 'SWITCH-M10-5A-R1-RP.STEP', ( #476, #176, #260, #602, #29, #240 ), #412 ) ;
#358 = DIRECTION ( 'NONE',  ( 9.343289982139228137E-19, 1.000000000000000000, 1.474342000598202539E-21 ) ) ;
#359 = APPROVAL_PERSON_ORGANIZATION ( #8, #612, #457 ) ;
#360 = APPROVAL_PERSON_ORGANIZATION ( #298, #416, #148 ) ;
#361 = APPROVAL_DATE_TIME ( #610, #612 ) ;
#362 = PERSON ( 'NAUO-PER3', 'UNSPECIFIED', 'UNSPECIFIED', ('UNSPECIFIED'), ('UNSPECIFIED'), ('UNSPECIFIED') ) ;
#363 = DOCUMENT_FILE ( 'PRV-M10-PLUG-R1_Switich.STEP.STEP' , '', '', #140, '' ,$ ) ;
#364 = CALENDAR_DATE ( 2026, 22, 6 ) ;
#365 = COORDINATED_UNIVERSAL_TIME_OFFSET ( 10, 0, .AHEAD. ) ;
#366 = DATE_AND_TIME ( #321, #114 ) ;
#367 = APPROVAL_STATUS ( 'not_yet_approved' ) ;
#368 = SECURITY_CLASSIFICATION ( '', '', #490 ) ;
#369 = APPROVAL_PERSON_ORGANIZATION ( #316, #128, #562 ) ;
#370 = CC_DESIGN_DATE_AND_TIME_ASSIGNMENT ( #539, #342, ( #368 ) ) ;
#371 =( REPRESENTATION_RELATIONSHIP ('NONE','NONE', #357, #421 ) REPRESENTATION_RELATIONSHIP_WITH_TRANSFORMATION ( #143 )SHAPE_REPRESENTATION_RELATIONSHIP( ) );
#372 = CONTEXT_DEPENDENT_SHAPE_REPRESENTATION ( #228, #45 ) ;
#373 = PERSON_AND_ORGANIZATION_ROLE ( 'classification_officer' ) ;
#374 = PERSON_AND_ORGANIZATION ( #18446744073709551615, #18446744073709551615 ) ;
#375 = APPROVAL_ROLE ( '' ) ;
#376 = APPLICATION_PROTOCOL_DEFINITION ( 'international standard', 'config_control_design', 1994, #530 ) ;
#377 = CC_DESIGN_PERSON_AND_ORGANIZATION_ASSIGNMENT ( #236, #137, ( #548 ) ) ;
#378 = CC_DESIGN_APPROVAL ( #416, ( #217 ) ) ;
#379 = PRODUCT_DEFINITION_FORMATION_WITH_SPECIFIED_SOURCE ( 'Symmetric', '', #203, .NOT_KNOWN. ) ;
#380 = DATE_AND_TIME ( #418, #329 ) ;
#381 = SECURITY_CLASSIFICATION_LEVEL ( 'unclassified' ) ;
#382 = APPROVAL_DATE_TIME ( #535, #474 ) ;
#383 = DIRECTION ( 'NONE',  ( 1.000000000000000000, 0.000000000000000000, 0.000000000000000000 ) ) ;
#384 = APPROVAL ( #134, 'Coincident' ) ;
#385 = APPROVAL_ROLE ( '' ) ;
#386 = CC_DESIGN_APPROVAL ( #474, ( #331 ) ) ;
#387 = CC_DESIGN_APPROVAL ( #573, ( #28 ) ) ;
#388 = DATE_AND_TIME ( #447, #420 ) ;
#389 = APPROVAL_PERSON_ORGANIZATION ( #104, #474, #238 ) ;
#390 = DIRECTION ( 'NONE',  ( 1.000000000000000000, 0.000000000000000000, 0.000000000000000000 ) ) ;
#391 = PERSON_AND_ORGANIZATION ( #18446744073709551615, #18446744073709551615 ) ;
#392 = PRODUCT_DEFINITION_SHAPE ( 'NONE', 'NONE',  #646 ) ;
#393 = COORDINATED_UNIVERSAL_TIME_OFFSET ( 10, 0, .AHEAD. ) ;
#394 = CALENDAR_DATE ( 2026, 22, 6 ) ;
#395 =( LENGTH_UNIT ( ) NAMED_UNIT ( * ) SI_UNIT ( $, .METRE. ) );
#396 = DATE_AND_TIME ( #540, #623 ) ;
#397 = PRODUCT_RELATED_PRODUCT_CATEGORY ( 'detail', '', ( #509 ) ) ;
#398 = DATE_TIME_ROLE ( 'classification_date' ) ;
#399 = DIRECTION ( 'NONE',  ( 9.343289982139228137E-19, 1.000000000000000000, 1.474342000598202539E-21 ) ) ;
#400 = AXIS2_PLACEMENT_3D ( 'NONE', #249, #149, #383 ) ;
#401 =( REPRESENTATION_RELATIONSHIP ('NONE','NONE', #357, #519 ) REPRESENTATION_RELATIONSHIP_WITH_TRANSFORMATION ( #564 )SHAPE_REPRESENTATION_RELATIONSHIP( ) );
#402 = PERSON_AND_ORGANIZATION ( #18446744073709551615, #18446744073709551615 ) ;
#403 = CARTESIAN_POINT ( 'NONE',  ( -5.421010862427522170E-20, -0.03769999999999999740, 0.000000000000000000 ) ) ;
#404 = CC_DESIGN_PERSON_AND_ORGANIZATION_ASSIGNMENT ( #62, #255, ( #642 ) ) ;
#405 = APPROVAL_STATUS ( 'not_yet_approved' ) ;
#406 = PERSON_AND_ORGANIZATION ( #18446744073709551615, #18446744073709551615 ) ;
#407 = PRODUCT_DEFINITION_SHAPE ( 'NONE', 'NONE',  #23 ) ;
#408 = CC_DESIGN_PERSON_AND_ORGANIZATION_ASSIGNMENT ( #316, #515, ( #337 ) ) ;
#409 = APPLICATION_PROTOCOL_DEFINITION ( 'international standard', 'config_control_design', 1994, #429 ) ;
#410 =( LENGTH_UNIT ( ) NAMED_UNIT ( * ) SI_UNIT ( $, .METRE. ) );
#411 = LOCAL_TIME ( 18, 49, 27.00000000000000000, #325 ) ;
#412 =( GEOMETRIC_REPRESENTATION_CONTEXT ( 3 ) GLOBAL_UNCERTAINTY_ASSIGNED_CONTEXT ( ( #191 ) ) GLOBAL_UNIT_ASSIGNED_CONTEXT ( ( #410, #453, #168 ) ) REPRESENTATION_CONTEXT ( 'NONE', 'WORKASPACE' ) );
#413 = PERSON_AND_ORGANIZATION ( #18446744073709551615, #18446744073709551615 ) ;
#414 = CARTESIAN_POINT ( 'NONE',  ( -5.421010862427522170E-20, -0.03470000000000000862, 0.000000000000000000 ) ) ;
#415 = DATE_TIME_ROLE ( 'classification_date' ) ;
#416 = APPROVAL ( #47, 'Coincident' ) ;
#417 = APPLIED_DOCUMENT_REFERENCE ( #620,'',( #331) ) ;
#418 = CALENDAR_DATE ( 2026, 22, 6 ) ;
#419 = APPROVAL ( #293, 'UNKNOWN' ) ;
#420 = LOCAL_TIME ( 18, 49, 27.00000000000000000, #338 ) ;
#421 = SHAPE_REPRESENTATION ( 'VENT-M10-BULKHEAD-R1_PRV-BULKHEAD-X1.STEP', ( #229 ), #108 ) ;
#422 = APPROVAL_PERSON_ORGANIZATION ( #103, #573, #138 ) ;
#423 = CC_DESIGN_APPROVAL ( #446, ( #339 ) ) ;
#424 = APPROVAL_PERSON_ORGANIZATION ( #247, #268, #101 ) ;
#425 = ROLE_ASSOCIATION ( #74, #417 ) ;
#426 = DATE_AND_TIME ( #619, #567 ) ;
#427 = PERSON_AND_ORGANIZATION_ROLE ( 'classification_officer' ) ;
#428 = PERSON_AND_ORGANIZATION_ROLE ( 'creator' ) ;
#429 = APPLICATION_CONTEXT ( 'configuration controlled 3d designs of mechanical parts and assemblies' ) ;
#430 = PROPERTY_DEFINITION_REPRESENTATION ( #311, #519 ) ;
#431 = DATE_AND_TIME ( #467, #5 ) ;
#432 = LOCAL_TIME ( 18, 49, 27.00000000000000000, #80 ) ;
#433 = CALENDAR_DATE ( 2026, 22, 6 ) ;
#434 = APPROVAL_STATUS ( 'not_yet_approved' ) ;
#435 = PERSON_AND_ORGANIZATION ( #71, #475 ) ;
#436 = COORDINATED_UNIVERSAL_TIME_OFFSET ( 10, 0, .AHEAD. ) ;
#437 = DIRECTION ( 'NONE',  ( 0.000000000000000000, 0.000000000000000000, 1.000000000000000000 ) ) ;
#438 = APPLIED_DOCUMENT_REFERENCE ( #91,'',( #285) ) ;
#439 = PERSON_AND_ORGANIZATION_ROLE ( 'design_supplier' ) ;
#440 = COORDINATED_UNIVERSAL_TIME_OFFSET ( 10, 0, .AHEAD. ) ;
#441 = LOCAL_TIME ( 18, 49, 27.00000000000000000, #216 ) ;
#442 = APPLIED_EXTERNAL_IDENTIFICATION_ASSIGNMENT ( 'ORING-11.5X1.5-BUNA-70A_9262K523.STEP.STEP' , #470, #88,( #620) ) ;
#443 = DATE_TIME_ROLE ( 'creation_date' ) ;
#444 = CC_DESIGN_APPROVAL ( #177, ( #18 ) ) ;
#445 = PROPERTY_DEFINITION ('external definition','', #91 ) ;
#446 = APPROVAL ( #223, 'Coincident' ) ;
#447 = CALENDAR_DATE ( 2026, 22, 6 ) ;
#448 = PERSON ( 'NAUO-PER1', 'UNSPECIFIED', 'UNSPECIFIED', ('UNSPECIFIED'), ('UNSPECIFIED'), ('UNSPECIFIED') ) ;
#449 = SECURITY_CLASSIFICATION_LEVEL ( 'unclassified' ) ;
#450 = CALENDAR_DATE ( 2026, 22, 6 ) ;
#451 = PERSON_AND_ORGANIZATION ( #18446744073709551615, #18446744073709551615 ) ;
#452 = CC_DESIGN_SECURITY_CLASSIFICATION ( #578, ( #650 ) ) ;
#453 =( NAMED_UNIT ( * ) PLANE_ANGLE_UNIT ( ) SI_UNIT ( $, .RADIAN. ) );
#454 = CC_DESIGN_PERSON_AND_ORGANIZATION_ASSIGNMENT ( #243, #439, ( #506 ) ) ;
#455 = CALENDAR_DATE ( 2026, 22, 6 ) ;
#456 = DIRECTION ( 'NONE',  ( 4.336808689942017736E-19, 1.474342000598202539E-21, 0.9999999999999997780 ) ) ;
#457 = APPROVAL_ROLE ( '' ) ;
#458 = PERSON_AND_ORGANIZATION ( #18446744073709551615, #18446744073709551615 ) ;
#459 = EXTERNAL_SOURCE (IDENTIFIER('') ) ;
#460 = COORDINATED_UNIVERSAL_TIME_OFFSET ( 10, 0, .AHEAD. ) ;
#461 = PERSON_AND_ORGANIZATION_ROLE ( 'design_owner' ) ;
#462 = CC_DESIGN_APPROVAL ( #616, ( #527 ) ) ;
#463 = CC_DESIGN_SECURITY_CLASSIFICATION ( #337, ( #648 ) ) ;
#464 = APPROVAL_PERSON_ORGANIZATION ( #175, #514, #625 ) ;
#465 = APPROVAL_DATE_TIME ( #366, #288 ) ;
#466 = CC_DESIGN_DATE_AND_TIME_ASSIGNMENT ( #576, #415, ( #299 ) ) ;
#467 = CALENDAR_DATE ( 2026, 22, 6 ) ;
#468 = COORDINATED_UNIVERSAL_TIME_OFFSET ( 10, 0, .AHEAD. ) ;
#469 = APPROVAL_DATE_TIME ( #431, #446 ) ;
#470 = IDENTIFICATION_ROLE ( 'external document id and location', $) ;
#471 = COORDINATED_UNIVERSAL_TIME_OFFSET ( 10, 0, .AHEAD. ) ;
#472 = PERSON_AND_ORGANIZATION ( #18446744073709551615, #18446744073709551615 ) ;
#473 = ORGANIZATION ( 'NAUO-ORG1', 'UNSPECIFIED', 'UNSPECIFIED' ) ;
#474 = APPROVAL ( #532, 'Coincident' ) ;
#475 = ORGANIZATION ( 'NAUO-ORG5', 'UNSPECIFIED', 'UNSPECIFIED' ) ;
#476 = AXIS2_PLACEMENT_3D ( 'NONE', #263, #312, #614 ) ;
#477 = DOCUMENT_FILE ( 'Button GH1358-ND 5A_91772A555.STEP.STEP' , '', '', #518, '' ,$ ) ;
#478 = PERSON_AND_ORGANIZATION ( #18446744073709551615, #18446744073709551615 ) ;
#479 = APPLICATION_PROTOCOL_DEFINITION ( 'international standard', 'config_control_design', 1994, #628 ) ;
#480 = APPLIED_DOCUMENT_REFERENCE ( #477,'',( #217) ) ;
#481 = APPLICATION_PROTOCOL_DEFINITION ( 'international standard', 'config_control_design', 1994, #267 ) ;
#482 = LOCAL_TIME ( 18, 49, 27.00000000000000000, #314 ) ;
#483 = PERSON_AND_ORGANIZATION ( #18446744073709551615, #18446744073709551615 ) ;
#484 = PRODUCT_RELATED_PRODUCT_CATEGORY ( 'detail', '', ( #203 ) ) ;
#485 = APPROVAL_ROLE ( '' ) ;
#486 = APPROVAL_STATUS ( 'not_yet_approved' ) ;
#487 = CC_DESIGN_DATE_AND_TIME_ASSIGNMENT ( #222, #122, ( #337 ) ) ;
#488 = CARTESIAN_POINT ( 'NONE',  ( 0.000000000000000000, 0.000000000000000000, 0.000000000000000000 ) ) ;
#489 = PRODUCT_DEFINITION_SHAPE ( 'NONE', 'NONE',  #107 ) ;
#490 = SECURITY_CLASSIFICATION_LEVEL ( 'unclassified' ) ;
#491 =( LENGTH_UNIT ( ) NAMED_UNIT ( * ) SI_UNIT ( $, .METRE. ) );
#492 = CC_DESIGN_PERSON_AND_ORGANIZATION_ASSIGNMENT ( #609, #511, ( #18 ) ) ;
#493 = PROPERTY_DEFINITION_REPRESENTATION ( #304, #118 ) ;
#494 = CC_DESIGN_SECURITY_CLASSIFICATION ( #527, ( #647 ) ) ;
#495 = IDENTIFICATION_ROLE ( 'external document id and location', $) ;
#496 = COORDINATED_UNIVERSAL_TIME_OFFSET ( 10, 0, .AHEAD. ) ;
#497 = DESIGN_CONTEXT ( 'detailed design', #429, 'design' ) ;
#498 = COORDINATED_UNIVERSAL_TIME_OFFSET ( 10, 0, .AHEAD. ) ;
#499 = PRODUCT ( 'PRV-M10-PLUG-R1_Switich.STEP', 'PRV-M10-PLUG-R1_Switich.STEP', '', ( #555 ) ) ;
#500 = DATE_AND_TIME ( #165, #231 ) ;
#501 = CARTESIAN_POINT ( 'NONE',  ( 0.000000000000000000, 0.000000000000000000, 0.000000000000000000 ) ) ;
#502 = COORDINATED_UNIVERSAL_TIME_OFFSET ( 10, 0, .AHEAD. ) ;
#503 = APPROVAL ( #615, 'Coincident' ) ;
#504 = APPLICATION_CONTEXT ( 'configuration controlled 3d designs of mechanical parts and assemblies' ) ;
#505 = SHAPE_DEFINITION_REPRESENTATION ( #346, #519 ) ;
#506 = PRODUCT_DEFINITION_FORMATION_WITH_SPECIFIED_SOURCE ( 'Symmetric', '', #548, .NOT_KNOWN. ) ;
#507 = ORGANIZATION ( 'NAUO-ORG2', 'UNSPECIFIED', 'UNSPECIFIED' ) ;
#508 = LOCAL_TIME ( 18, 49, 27.00000000000000000, #284 ) ;
#509 = PRODUCT ( 'SWITCH-M10-5A-R1-RP.STEP', 'SWITCH-M10-5A-R1-RP.STEP', '', ( #166 ) ) ;
#510 = PERSON_AND_ORGANIZATION ( #18446744073709551615, #18446744073709551615 ) ;
#511 = PERSON_AND_ORGANIZATION_ROLE ( 'creator' ) ;
#512 = APPROVAL_STATUS ( 'not_yet_approved' ) ;
#513 = CALENDAR_DATE ( 2026, 22, 6 ) ;
#514 = APPROVAL ( #367, 'Coincident' ) ;
#515 = PERSON_AND_ORGANIZATION_ROLE ( 'classification_officer' ) ;
#516 = DIRECTION ( 'NONE',  ( 9.343289982139228137E-19, 1.000000000000000000, 1.474342000598202539E-21 ) ) ;
#517 = CC_DESIGN_APPROVAL ( #128, ( #337 ) ) ;
#518 = DOCUMENT_TYPE ( 'geometry' ) ;
#519 = SHAPE_REPRESENTATION ( 'ORING-11.5X1.5-BUNA-70A_9262K523.STEP', ( #136 ), #273 ) ;
#520 = APPLIED_DOCUMENT_REFERENCE ( #363,'',( #107) ) ;
#521 = PERSON_AND_ORGANIZATION ( #18446744073709551615, #18446744073709551615 ) ;
#522 = PERSON_AND_ORGANIZATION ( #448, #473 ) ;
#523 = CALENDAR_DATE ( 2026, 22, 6 ) ;
#524 = CC_DESIGN_PERSON_AND_ORGANIZATION_ASSIGNMENT ( #451, #549, ( #107 ) ) ;
#525 = APPROVAL_STATUS ( 'not_yet_approved' ) ;
#526 = APPROVAL_ROLE ( '' ) ;
#527 = SECURITY_CLASSIFICATION ( '', '', #170 ) ;
#528 = APPROVAL_STATUS ( 'not_yet_approved' ) ;
#529 = COORDINATED_UNIVERSAL_TIME_OFFSET ( 10, 0, .AHEAD. ) ;
#530 = APPLICATION_CONTEXT ( 'configuration controlled 3d designs of mechanical parts and assemblies' ) ;
#531 = CONTEXT_DEPENDENT_SHAPE_REPRESENTATION ( #371, #211 ) ;
#532 = APPROVAL_STATUS ( 'not_yet_approved' ) ;
#533 = APPROVAL ( #627, 'Coincident' ) ;
#534 = DATE_AND_TIME ( #51, #83 ) ;
#535 = DATE_AND_TIME ( #188, #340 ) ;
#536 = APPROVAL_PERSON_ORGANIZATION ( #162, #142, #208 ) ;
#537 = APPLIED_EXTERNAL_IDENTIFICATION_ASSIGNMENT ( 'ORING-11.5X1.5-BUNA-70A_9262K523.STEP.STEP' , #495, #172,( #569) ) ;
#538 = APPROVAL_PERSON_ORGANIZATION ( #210, #177, #617 ) ;
#539 = DATE_AND_TIME ( #345, #289 ) ;
#540 = CALENDAR_DATE ( 2026, 22, 6 ) ;
#541 = CC_DESIGN_PERSON_AND_ORGANIZATION_ASSIGNMENT ( #391, #116, ( #499 ) ) ;
#542 = DATE_TIME_ROLE ( 'classification_date' ) ;
#543 = SHAPE_DEFINITION_REPRESENTATION ( #558, #118 ) ;
#544 = CC_DESIGN_APPROVAL ( #384, ( #299 ) ) ;
#545 = PERSON_AND_ORGANIZATION_ROLE ( 'classification_officer' ) ;
#546 = APPROVAL_DATE_TIME ( #310, #142 ) ;
#547 = DIRECTION ( 'NONE',  ( 0.000000000000000000, 0.000000000000000000, 1.000000000000000000 ) ) ;
#548 = PRODUCT ( 'Button GH1358-ND 5A_91772A555.STEP', 'Button GH1358-ND 5A_91772A555.STEP', '', ( #35 ) ) ;
#549 = PERSON_AND_ORGANIZATION_ROLE ( 'creator' ) ;
#550 = DIRECTION ( 'NONE',  ( 0.9999999999999997780, 9.343289982139228137E-19, 4.336808689942017736E-19 ) ) ;
#551 = CC_DESIGN_DATE_AND_TIME_ASSIGNMENT ( #117, #306, ( #23 ) ) ;
#552 = UNCERTAINTY_MEASURE_WITH_UNIT (LENGTH_MEASURE( 1.000000000000000082E-05 ), #201, 'distance_accuracy_value', 'NONE');
#553 = PERSON_AND_ORGANIZATION_ROLE ( 'design_supplier' ) ;
#554 = APPLICATION_PROTOCOL_DEFINITION ( 'international standard', 'config_control_design', 1994, #504 ) ;
#555 = MECHANICAL_CONTEXT ( 'NONE', #317, 'mechanical' ) ;
#556 = APPROVAL_PERSON_ORGANIZATION ( #97, #169, #144 ) ;
#557 = COORDINATED_UNIVERSAL_TIME_OFFSET ( 10, 0, .AHEAD. ) ;
#558 = PRODUCT_DEFINITION_SHAPE ( 'NONE', 'NONE',  #217 ) ;
#559 = SHAPE_DEFINITION_REPRESENTATION ( #489, #581 ) ;
#560 = PERSON_AND_ORGANIZATION ( #18446744073709551615, #18446744073709551615 ) ;
#561 = CC_DESIGN_PERSON_AND_ORGANIZATION_ASSIGNMENT ( #150, #296, ( #506 ) ) ;
#562 = APPROVAL_ROLE ( '' ) ;
#563 = CARTESIAN_POINT ( 'NONE',  ( 0.000000000000000000, -0.006350000000000008415, 0.000000000000000000 ) ) ;
#564 = ITEM_DEFINED_TRANSFORMATION ( 'NONE', 'NONE', #260,  #136 ) ;
#565 = LOCAL_TIME ( 18, 49, 27.00000000000000000, #460 ) ;
#566 = APPROVAL_DATE_TIME ( #79, #384 ) ;
#567 = LOCAL_TIME ( 18, 49, 27.00000000000000000, #529 ) ;
#568 = CC_DESIGN_DATE_AND_TIME_ASSIGNMENT ( #53, #443, ( #217 ) ) ;
#569 = DOCUMENT_FILE ( 'ORING-11.5X1.5-BUNA-70A_9262K523.STEP.STEP' , '', '', #219, '' ,$ ) ;
#570 = IDENTIFICATION_ROLE ( 'external document id and location', $) ;
#571 = CALENDAR_DATE ( 2026, 22, 6 ) ;
#572 = DATE_AND_TIME ( #180, #250 ) ;
#573 = APPROVAL ( #246, 'UNKNOWN' ) ;
#574 = SHAPE_DEFINITION_REPRESENTATION ( #407, #357 ) ;
#575 = DATE_TIME_ROLE ( 'classification_date' ) ;
#576 = DATE_AND_TIME ( #221, #508 ) ;
#577 = CC_DESIGN_SECURITY_CLASSIFICATION ( #299, ( #379 ) ) ;
#578 = SECURITY_CLASSIFICATION ( '', '', #381 ) ;
#579 = LOCAL_TIME ( 18, 49, 27.00000000000000000, #132 ) ;
#580 = DATE_AND_TIME ( #433, #590 ) ;
#581 = SHAPE_REPRESENTATION ( 'PRV-M10-PLUG-R1_Switich.STEP', ( #400 ), #318 ) ;
#582 = DATE_TIME_ROLE ( 'creation_date' ) ;
#583 = CC_DESIGN_PERSON_AND_ORGANIZATION_ASSIGNMENT ( #179, #373, ( #339 ) ) ;
#584 =( REPRESENTATION_RELATIONSHIP ('NONE','NONE', #357, #118 ) REPRESENTATION_RELATIONSHIP_WITH_TRANSFORMATION ( #100 )SHAPE_REPRESENTATION_RELATIONSHIP( ) );
#585 = COORDINATED_UNIVERSAL_TIME_OFFSET ( 10, 0, .AHEAD. ) ;
#586 = PERSON_AND_ORGANIZATION ( #18446744073709551615, #18446744073709551615 ) ;
#587 = DATE_AND_TIME ( #89, #613 ) ;
#588 = APPROVAL_DATE_TIME ( #192, #123 ) ;
#589 = CC_DESIGN_SECURITY_CLASSIFICATION ( #642, ( #621 ) ) ;
#590 = LOCAL_TIME ( 18, 49, 27.00000000000000000, #440 ) ;
#591 = CC_DESIGN_PERSON_AND_ORGANIZATION_ASSIGNMENT ( #20, #87, ( #379 ) ) ;
#592 = CC_DESIGN_APPROVAL ( #169, ( #368 ) ) ;
#593 = PERSON_AND_ORGANIZATION ( #18446744073709551615, #18446744073709551615 ) ;
#594 = PROPERTY_DEFINITION ('document property','', #569 ) ;
#595 = DESIGN_CONTEXT ( 'detailed design', #530, 'design' ) ;
#596 = MECHANICAL_CONTEXT ( 'NONE', #267, 'mechanical' ) ;
#597 =( NAMED_UNIT ( * ) PLANE_ANGLE_UNIT ( ) SI_UNIT ( $, .RADIAN. ) );
#598 = APPLICATION_CONTEXT ( 'configuration controlled 3d designs of mechanical parts and assemblies' ) ;
#599 = DATE_AND_TIME ( #394, #133 ) ;
#600 = DESIGN_CONTEXT ( 'detailed design', #16, 'design' ) ;
#601 = CALENDAR_DATE ( 2026, 22, 6 ) ;
#602 = AXIS2_PLACEMENT_3D ( 'NONE', #403, #399, #17 ) ;
#603 = DATE_AND_TIME ( #645, #127 ) ;
#604 = CC_DESIGN_PERSON_AND_ORGANIZATION_ASSIGNMENT ( #282, #32, ( #379 ) ) ;
#605 = DATE_AND_TIME ( #14, #482 ) ;
#606 = OBJECT_ROLE ('mandatory',$ ) ;
#607 = COORDINATED_UNIVERSAL_TIME_OFFSET ( 10, 0, .AHEAD. ) ;
#608 = PROPERTY_DEFINITION ('external definition','', #477 ) ;
#609 = PERSON_AND_ORGANIZATION ( #18446744073709551615, #18446744073709551615 ) ;
#610 = DATE_AND_TIME ( #265, #145 ) ;
#611 = CC_DESIGN_SECURITY_CLASSIFICATION ( #93, ( #1 ) ) ;
#612 = APPROVAL ( #405, 'Coincident' ) ;
#613 = LOCAL_TIME ( 18, 49, 27.00000000000000000, #393 ) ;
#614 = DIRECTION ( 'NONE',  ( 1.000000000000000000, 0.000000000000000000, 0.000000000000000000 ) ) ;
#615 = APPROVAL_STATUS ( 'not_yet_approved' ) ;
#616 = APPROVAL ( #525, 'UNKNOWN' ) ;
#617 = APPROVAL_ROLE ( '' ) ;
#618 = COORDINATED_UNIVERSAL_TIME_OFFSET ( 10, 0, .AHEAD. ) ;
#619 = CALENDAR_DATE ( 2026, 22, 6 ) ;
#620 = DOCUMENT_FILE ( 'ORING-11.5X1.5-BUNA-70A_9262K523.STEP.STEP' , '', '', #327, '' ,$ ) ;
#621 = PRODUCT_DEFINITION_FORMATION_WITH_SPECIFIED_SOURCE ( 'Symmetric', '', #499, .NOT_KNOWN. ) ;
#622 = DATE_AND_TIME ( #571, #579 ) ;
#623 = LOCAL_TIME ( 18, 49, 27.00000000000000000, #498 ) ;
#624 = CONTEXT_DEPENDENT_SHAPE_REPRESENTATION ( #401, #354 ) ;
#625 = APPROVAL_ROLE ( '' ) ;
#626 = PROPERTY_DEFINITION_REPRESENTATION ( #156, #581 ) ;
#627 = APPROVAL_STATUS ( 'not_yet_approved' ) ;
#628 = APPLICATION_CONTEXT ( 'configuration controlled 3d designs of mechanical parts and assemblies' ) ;
#629 = COORDINATED_UNIVERSAL_TIME_OFFSET ( 10, 0, .AHEAD. ) ;
#630 = MECHANICAL_CONTEXT ( 'NONE', #598, 'mechanical' ) ;
#631 = PRODUCT_RELATED_PRODUCT_CATEGORY ( 'detail', '', ( #499 ) ) ;
#632 = CC_DESIGN_APPROVAL ( #268, ( #506 ) ) ;
#633 = DATE_AND_TIME ( #190, #50 ) ;
#634 = COORDINATED_UNIVERSAL_TIME_OFFSET ( 10, 0, .AHEAD. ) ;
#635 =( NAMED_UNIT ( * ) PLANE_ANGLE_UNIT ( ) SI_UNIT ( $, .RADIAN. ) );
#636 = PROPERTY_DEFINITION_REPRESENTATION ( #445, #421 ) ;
#637 = CALENDAR_DATE ( 2026, 22, 6 ) ;
#638 = IDENTIFICATION_ROLE ( 'external document id and location', $) ;
#639 = CC_DESIGN_DATE_AND_TIME_ASSIGNMENT ( #605, #303, ( #107 ) ) ;
#640 = DESIGN_CONTEXT ( 'detailed design', #161, 'design' ) ;
#641 = COORDINATED_UNIVERSAL_TIME_OFFSET ( 10, 0, .AHEAD. ) ;
#642 = SECURITY_CLASSIFICATION ( '', '', #4 ) ;
#643 = APPROVAL_DATE_TIME ( #580, #573 ) ;
#644 = LOCAL_TIME ( 18, 49, 27.00000000000000000, #257 ) ;
#645 = CALENDAR_DATE ( 2026, 22, 6 ) ;
#646 = NEXT_ASSEMBLY_USAGE_OCCURRENCE ( 'NAUO1', ' ', ' ', #23, #107, $ ) ;
#647 = NEXT_ASSEMBLY_USAGE_OCCURRENCE ( 'NAUO2', ' ', ' ', #23, #331, $ ) ;
#648 = NEXT_ASSEMBLY_USAGE_OCCURRENCE ( 'NAUO3', ' ', ' ', #23, #331, $ ) ;
#649 = NEXT_ASSEMBLY_USAGE_OCCURRENCE ( 'NAUO4', ' ', ' ', #23, #217, $ ) ;
#650 = NEXT_ASSEMBLY_USAGE_OCCURRENCE ( 'NAUO5', ' ', ' ', #23, #285, $ ) ;
ENDSEC;
END-ISO-10303-21;
