ISO-10303-21;
HEADER;
FILE_DESCRIPTION (( 'STEP AP203' ),
    '1' );
FILE_NAME ('TATTU 2200mAh 14.8V 45C 4S1P Lipo Battery Pack with XT60 Plug.STEP',
    '2026-06-22T08:50:01',
    ( 'localuser' ),
    ( '' ),
    'SwSTEP 2.0',
    'SolidWorks 2025',
    '' );
FILE_SCHEMA (( 'CONFIG_CONTROL_DESIGN' ));
ENDSEC;

DATA;
#1 = SECURITY_CLASSIFICATION_LEVEL ( 'unclassified' ) ;
#2 = CARTESIAN_POINT ( 'NONE',  ( 4.336808689942017736E-16, 31.75735931288071967, -4.336808689942017736E-16 ) ) ;
#3 =( LENGTH_UNIT ( ) NAMED_UNIT ( * ) SI_UNIT ( .MILLI., .METRE. ) );
#4 = ORIENTED_EDGE ( 'NONE', *, *, #118, .T. ) ;
#5 = AXIS2_PLACEMENT_3D ( 'NONE', #160, #296, #341 ) ;
#6 = DATE_TIME_ROLE ( 'classification_date' ) ;
#7 = FACE_OUTER_BOUND ( 'NONE', #23, .T. ) ;
#8 = PRODUCT_DEFINITION ( 'General', '', #34, #111 ) ;
#9 = DATE_AND_TIME ( #340, #109 ) ;
#10 = ORIENTED_EDGE ( 'NONE', *, *, #90, .F. ) ;
#11 = DIRECTION ( 'NONE',  ( 0.000000000000000000, 0.000000000000000000, -1.000000000000000000 ) ) ;
#12 = CARTESIAN_POINT ( 'NONE',  ( 75.00000000000000000, 2.999999999999999112, 0.000000000000000000 ) ) ;
#13 = AXIS2_PLACEMENT_3D ( 'NONE', #342, #282, #208 ) ;
#14 = ADVANCED_FACE ( 'NONE', ( #29 ), #191, .F. ) ;
#15 = CC_DESIGN_SECURITY_CLASSIFICATION ( #135, ( #34 ) ) ;
#16 = CYLINDRICAL_SURFACE ( 'NONE', #205, 3.000000000000002665 ) ;
#17 = FACE_OUTER_BOUND ( 'NONE', #423, .T. ) ;
#18 = VERTEX_POINT ( 'NONE', #194 ) ;
#19 = VECTOR ( 'NONE', #225, 1000.000000000000000 ) ;
#20 = ORIENTED_EDGE ( 'NONE', *, *, #133, .T. ) ;
#21 = ORIENTED_EDGE ( 'NONE', *, *, #149, .F. ) ;
#22 = EDGE_CURVE ( 'NONE', #367, #55, #71, .T. ) ;
#23 = EDGE_LOOP ( 'NONE', ( #183, #281, #154, #60 ) ) ;
#24 = CYLINDRICAL_SURFACE ( 'NONE', #398, 3.000000000000000000 ) ;
#25 = CARTESIAN_POINT ( 'NONE',  ( 0.000000000000000000, 30.00000000000000355, 0.000000000000000000 ) ) ;
#26 = EDGE_CURVE ( 'NONE', #116, #387, #329, .T. ) ;
#27 = ORIENTED_EDGE ( 'NONE', *, *, #271, .F. ) ;
#28 = LINE ( 'NONE', #152, #240 ) ;
#29 = FACE_OUTER_BOUND ( 'NONE', #106, .T. ) ;
#30 = CYLINDRICAL_SURFACE ( 'NONE', #5, 3.000000000000000000 ) ;
#31 = DIRECTION ( 'NONE',  ( 1.000000000000000000, 0.000000000000000000, -0.000000000000000000 ) ) ;
#32 = DIRECTION ( 'NONE',  ( -1.000000000000000000, -0.000000000000000000, -0.000000000000000000 ) ) ;
#33 = CARTESIAN_POINT ( 'NONE',  ( 72.00000000000000000, 33.00000000000000000, -3.000000000000000000 ) ) ;
#34 = PRODUCT_DEFINITION_FORMATION_WITH_SPECIFIED_SOURCE ( 'Symmetric', '', #153, .NOT_KNOWN. ) ;
#35 = EDGE_CURVE ( 'NONE', #387, #18, #136, .T. ) ;
#36 = CARTESIAN_POINT ( 'NONE',  ( 3.000000000000000000, 33.00000000000000000, -3.000000000000000000 ) ) ;
#37 = CARTESIAN_POINT ( 'NONE',  ( 73.75735931288070901, -3.228216686206738306E-16, -1.242640687119285881 ) ) ;
#38 = COORDINATED_UNIVERSAL_TIME_OFFSET ( 10, 0, .AHEAD. ) ;
#39 = EDGE_CURVE ( 'NONE', #128, #246, #402, .T. ) ;
#40 = LINE ( 'NONE', #146, #261 ) ;
#41 = AXIS2_PLACEMENT_3D ( 'NONE', #144, #285, #418 ) ;
#42 = COORDINATED_UNIVERSAL_TIME_OFFSET ( 10, 0, .AHEAD. ) ;
#43 = CARTESIAN_POINT ( 'NONE',  ( 2.184664232470858947E-16, 1.242640687119285214, -2.184664232470858947E-16 ) ) ;
#44 = ORIENTED_EDGE ( 'NONE', *, *, #54, .T. ) ;
#45 =( NAMED_UNIT ( * ) PLANE_ANGLE_UNIT ( ) SI_UNIT ( $, .RADIAN. ) );
#46 = CARTESIAN_POINT ( 'NONE',  ( 75.00000000000000000, 2.999999999999999112, -35.00000000000000000 ) ) ;
#47 = PLANE ( 'NONE',  #226 ) ;
#48 = CC_DESIGN_PERSON_AND_ORGANIZATION_ASSIGNMENT ( #267, #110, ( #8 ) ) ;
#49 = AXIS2_PLACEMENT_3D ( 'NONE', #91, #95, #388 ) ;
#50 = DIRECTION ( 'NONE',  ( -0.000000000000000000, -0.000000000000000000, -1.000000000000000000 ) ) ;
#51 = CC_DESIGN_PERSON_AND_ORGANIZATION_ASSIGNMENT ( #200, #195, ( #34 ) ) ;
#52 = ORIENTED_EDGE ( 'NONE', *, *, #101, .T. ) ;
#53 =( BOUNDED_CURVE ( )  B_SPLINE_CURVE ( 3, ( #134, #330, #247, #332 ),
 .UNSPECIFIED., .F., .F. ) 
 B_SPLINE_CURVE_WITH_KNOTS ( ( 4, 4 ),
 ( 3.141592653589793116, 4.712388980384689674 ),
 .UNSPECIFIED. ) 
 CURVE ( )  GEOMETRIC_REPRESENTATION_ITEM ( )  RATIONAL_B_SPLINE_CURVE ( ( 1.000000000000000000, 0.8047378541243649375, 0.8047378541243649375, 1.000000000000000000 ) ) 
 REPRESENTATION_ITEM ( '' )  );
#54 = EDGE_CURVE ( 'NONE', #258, #256, #254, .T. ) ;
#55 = VERTEX_POINT ( 'NONE', #366 ) ;
#56 = EDGE_LOOP ( 'NONE', ( #157, #339, #371, #188 ) ) ;
#57 =( BOUNDED_CURVE ( )  B_SPLINE_CURVE ( 3, ( #435, #138, #405, #231 ),
 .UNSPECIFIED., .F., .T. ) 
 B_SPLINE_CURVE_WITH_KNOTS ( ( 4, 4 ),
 ( 4.712388980384689674, 6.283185307179586232 ),
 .UNSPECIFIED. ) 
 CURVE ( )  GEOMETRIC_REPRESENTATION_ITEM ( )  RATIONAL_B_SPLINE_CURVE ( ( 1.000000000000000000, 0.8047378541243649375, 0.8047378541243649375, 1.000000000000000000 ) ) 
 REPRESENTATION_ITEM ( '' )  );
#58 = ORIENTED_EDGE ( 'NONE', *, *, #35, .F. ) ;
#59 = CARTESIAN_POINT ( 'NONE',  ( 3.000000000000000000, 33.00000000000000000, -32.00000000000000000 ) ) ;
#60 = ORIENTED_EDGE ( 'NONE', *, *, #271, .T. ) ;
#61 = EDGE_CURVE ( 'NONE', #420, #367, #159, .T. ) ;
#62 = CARTESIAN_POINT ( 'NONE',  ( 0.000000000000000000, 30.00000000000000355, -32.00000000000000000 ) ) ;
#63 = FACE_OUTER_BOUND ( 'NONE', #179, .T. ) ;
#64 = APPROVAL ( #139, 'Coincident' ) ;
#65 = DIRECTION ( 'NONE',  ( 0.000000000000000000, 0.000000000000000000, -1.000000000000000000 ) ) ;
#66 = DIRECTION ( 'NONE',  ( 0.000000000000000000, 0.000000000000000000, 1.000000000000000000 ) ) ;
#67 = DIRECTION ( 'NONE',  ( 0.000000000000000000, 0.000000000000000000, -1.000000000000000000 ) ) ;
#68 = CARTESIAN_POINT ( 'NONE',  ( 75.00000000000000000, 30.00000000000000355, 0.000000000000000000 ) ) ;
#69 = ADVANCED_FACE ( 'NONE', ( #362 ), #227, .T. ) ;
#70 = APPLICATION_PROTOCOL_DEFINITION ( 'international standard', 'config_control_design', 1994, #141 ) ;
#71 = LINE ( 'NONE', #68, #87 ) ;
#72 = VECTOR ( 'NONE', #177, 1000.000000000000000 ) ;
#73 = DATE_AND_TIME ( #170, #196 ) ;
#74 = CARTESIAN_POINT ( 'NONE',  ( 72.00000000000000000, 33.00000000000000000, -32.00000000000000000 ) ) ;
#75 = COORDINATED_UNIVERSAL_TIME_OFFSET ( 10, 0, .AHEAD. ) ;
#76 = CARTESIAN_POINT ( 'NONE',  ( 0.000000000000000000, 33.00000000000000000, 0.000000000000000000 ) ) ;
#77 = COORDINATED_UNIVERSAL_TIME_OFFSET ( 10, 0, .AHEAD. ) ;
#78 = CYLINDRICAL_SURFACE ( 'NONE', #13, 3.000000000000000000 ) ;
#79 = VECTOR ( 'NONE', #233, 1000.000000000000000 ) ;
#80 = CARTESIAN_POINT ( 'NONE',  ( 0.000000000000000000, 2.999999999999999112, -35.00000000000000000 ) ) ;
#81 = EDGE_CURVE ( 'NONE', #394, #55, #278, .T. ) ;
#82 = DIRECTION ( 'NONE',  ( 0.000000000000000000, 0.000000000000000000, -1.000000000000000000 ) ) ;
#83 = CARTESIAN_POINT ( 'NONE',  ( 0.000000000000000000, 33.00000000000000000, -3.000000000000000000 ) ) ;
#84 = LOCAL_TIME ( 18, 50, 1.000000000000000000, #300 ) ;
#85 = EDGE_CURVE ( 'NONE', #258, #132, #263, .T. ) ;
#86 = FACE_OUTER_BOUND ( 'NONE', #181, .T. ) ;
#87 = VECTOR ( 'NONE', #228, 1000.000000000000000 ) ;
#88 = AXIS2_PLACEMENT_3D ( 'NONE', #236, #274, #172 ) ;
#89 = EDGE_LOOP ( 'NONE', ( #97, #302, #10, #21 ) ) ;
#90 = EDGE_CURVE ( 'NONE', #116, #367, #57, .T. ) ;
#91 = CARTESIAN_POINT ( 'NONE',  ( 75.00000000000000000, 33.00000000000000000, 0.000000000000000000 ) ) ;
#92 = ORIENTED_EDGE ( 'NONE', *, *, #133, .F. ) ;
#93 = CARTESIAN_POINT ( 'NONE',  ( 0.000000000000000000, 30.00000000000000355, -35.00000000000000000 ) ) ;
#94 = ORIENTED_EDGE ( 'NONE', *, *, #26, .F. ) ;
#95 = DIRECTION ( 'NONE',  ( -1.000000000000000000, 0.000000000000000000, 0.000000000000000000 ) ) ;
#96 = VECTOR ( 'NONE', #289, 1000.000000000000000 ) ;
#97 = ORIENTED_EDGE ( 'NONE', *, *, #81, .T. ) ;
#98 = CARTESIAN_POINT ( 'NONE',  ( 75.00000000000000000, 1.242640687119284770, -35.00000000000000000 ) ) ;
#99 =( BOUNDED_CURVE ( )  B_SPLINE_CURVE ( 3, ( #185, #354, #400, #419 ),
 .UNSPECIFIED., .F., .T. ) 
 B_SPLINE_CURVE_WITH_KNOTS ( ( 4, 4 ),
 ( 0.000000000000000000, 1.570796326794896780 ),
 .UNSPECIFIED. ) 
 CURVE ( )  GEOMETRIC_REPRESENTATION_ITEM ( )  RATIONAL_B_SPLINE_CURVE ( ( 1.000000000000000000, 0.8047378541243649375, 0.8047378541243649375, 1.000000000000000000 ) ) 
 REPRESENTATION_ITEM ( '' )  );
#100 = CYLINDRICAL_SURFACE ( 'NONE', #107, 2.999999999999999112 ) ;
#101 = EDGE_CURVE ( 'NONE', #219, #18, #103, .T. ) ;
#102 = DIRECTION ( 'NONE',  ( -1.000000000000000000, -0.000000000000000000, 0.000000000000000000 ) ) ;
#103 =( BOUNDED_CURVE ( )  B_SPLINE_CURVE ( 3, ( #105, #2, #197, #36 ),
 .UNSPECIFIED., .F., .T. ) 
 B_SPLINE_CURVE_WITH_KNOTS ( ( 4, 4 ),
 ( 0.000000000000000000, 1.570796326794896780 ),
 .UNSPECIFIED. ) 
 CURVE ( )  GEOMETRIC_REPRESENTATION_ITEM ( )  RATIONAL_B_SPLINE_CURVE ( ( 1.000000000000000000, 0.8047378541243649375, 0.8047378541243649375, 1.000000000000000000 ) ) 
 REPRESENTATION_ITEM ( '' )  );
#104 = PERSON_AND_ORGANIZATION ( #18446744073709551615, #18446744073709551615 ) ;
#105 = CARTESIAN_POINT ( 'NONE',  ( 0.000000000000000000, 30.00000000000000355, 0.000000000000000000 ) ) ;
#106 = EDGE_LOOP ( 'NONE', ( #320, #390, #248, #349 ) ) ;
#107 = AXIS2_PLACEMENT_3D ( 'NONE', #62, #193, #250 ) ;
#108 = EDGE_CURVE ( 'NONE', #219, #262, #163, .T. ) ;
#109 = LOCAL_TIME ( 18, 50, 1.000000000000000000, #77 ) ;
#110 = PERSON_AND_ORGANIZATION_ROLE ( 'creator' ) ;
#111 = DESIGN_CONTEXT ( 'detailed design', #141, 'design' ) ;
#112 = CARTESIAN_POINT ( 'NONE',  ( 75.00000000000000000, 33.00000000000000000, 0.000000000000000000 ) ) ;
#113 = PERSON_AND_ORGANIZATION ( #18446744073709551615, #18446744073709551615 ) ;
#114 = LINE ( 'NONE', #373, #182 ) ;
#115 = APPLICATION_PROTOCOL_DEFINITION ( 'international standard', 'config_control_design', 1994, #121 ) ;
#116 = VERTEX_POINT ( 'NONE', #74 ) ;
#117 = DIRECTION ( 'NONE',  ( 0.000000000000000000, 0.000000000000000000, -1.000000000000000000 ) ) ;
#118 = EDGE_CURVE ( 'NONE', #256, #246, #336, .T. ) ;
#119 = CARTESIAN_POINT ( 'NONE',  ( 72.00000000000000000, 0.000000000000000000, -3.000000000000000000 ) ) ;
#120 = ORIENTED_EDGE ( 'NONE', *, *, #39, .F. ) ;
#121 = APPLICATION_CONTEXT ( 'configuration controlled 3d designs of mechanical parts and assemblies' ) ;
#122 = DIRECTION ( 'NONE',  ( -0.000000000000000000, 0.000000000000000000, 1.000000000000000000 ) ) ;
#123 = DIRECTION ( 'NONE',  ( 1.000000000000000000, 0.000000000000000000, 0.000000000000000000 ) ) ;
#124 = VECTOR ( 'NONE', #359, 1000.000000000000000 ) ;
#125 = ORIENTED_EDGE ( 'NONE', *, *, #35, .T. ) ;
#126 = VERTEX_POINT ( 'NONE', #209 ) ;
#127 = ORIENTED_EDGE ( 'NONE', *, *, #184, .T. ) ;
#128 = VERTEX_POINT ( 'NONE', #417 ) ;
#129 = CARTESIAN_POINT ( 'NONE',  ( 75.00000000000000000, 2.999999999999999112, 0.000000000000000000 ) ) ;
#130 = CARTESIAN_POINT ( 'NONE',  ( 0.000000000000000000, 2.999999999999999112, -35.00000000000000000 ) ) ;
#131 = FACE_OUTER_BOUND ( 'NONE', #284, .T. ) ;
#132 = VERTEX_POINT ( 'NONE', #314 ) ;
#133 = EDGE_CURVE ( 'NONE', #132, #126, #415, .T. ) ;
#134 = CARTESIAN_POINT ( 'NONE',  ( 0.000000000000000000, 30.00000000000000355, -35.00000000000000000 ) ) ;
#135 = SECURITY_CLASSIFICATION ( '', '', #1 ) ;
#136 = LINE ( 'NONE', #259, #124 ) ;
#137 = APPROVAL_STATUS ( 'not_yet_approved' ) ;
#138 = CARTESIAN_POINT ( 'NONE',  ( 73.75735931288070901, 33.00000000000000000, -33.75735931288071612 ) ) ;
#139 = APPROVAL_STATUS ( 'not_yet_approved' ) ;
#140 = ADVANCED_FACE ( 'NONE', ( #344 ), #173, .F. ) ;
#141 = APPLICATION_CONTEXT ( 'configuration controlled 3d designs of mechanical parts and assemblies' ) ;
#142 = ORIENTED_EDGE ( 'NONE', *, *, #297, .F. ) ;
#143 = DIRECTION ( 'NONE',  ( 1.000000000000000000, 0.000000000000000000, -0.000000000000000000 ) ) ;
#144 = CARTESIAN_POINT ( 'NONE',  ( 0.000000000000000000, 33.00000000000000000, 0.000000000000000000 ) ) ;
#145 = EDGE_CURVE ( 'NONE', #367, #246, #169, .T. ) ;
#146 = CARTESIAN_POINT ( 'NONE',  ( 72.00000000000000000, 33.00000000000000000, 0.000000000000000000 ) ) ;
#147 = CYLINDRICAL_SURFACE ( 'NONE', #88, 3.000000000000000000 ) ;
#148 = CARTESIAN_POINT ( 'NONE',  ( 0.000000000000000000, 0.000000000000000000, 0.000000000000000000 ) ) ;
#149 = EDGE_CURVE ( 'NONE', #394, #116, #40, .T. ) ;
#150 = ORIENTED_EDGE ( 'NONE', *, *, #175, .F. ) ;
#151 = EDGE_LOOP ( 'NONE', ( #324, #211, #386, #142 ) ) ;
#152 = CARTESIAN_POINT ( 'NONE',  ( 0.000000000000000000, 30.00000000000000355, 0.000000000000000000 ) ) ;
#153 = PRODUCT ( 'TATTU 2200mAh 14.8V 45C 4S1P Lipo Battery Pack with XT60 Plug', 'TATTU 2200mAh 14.8V 45C 4S1P Lipo Battery Pack with XT60 Plug', '', ( #237 ) ) ;
#154 = ORIENTED_EDGE ( 'NONE', *, *, #108, .F. ) ;
#155 = CYLINDRICAL_SURFACE ( 'NONE', #298, 3.000000000000002665 ) ;
#156 = AXIS2_PLACEMENT_3D ( 'NONE', #167, #66, #331 ) ;
#157 = ORIENTED_EDGE ( 'NONE', *, *, #108, .T. ) ;
#158 = LINE ( 'NONE', #393, #19 ) ;
#159 = LINE ( 'NONE', #401, #244 ) ;
#160 = CARTESIAN_POINT ( 'NONE',  ( 0.000000000000000000, 2.999999999999999112, -3.000000000000000000 ) ) ;
#161 = DIRECTION ( 'NONE',  ( 0.000000000000000000, 0.000000000000000000, 1.000000000000000000 ) ) ;
#162 = CARTESIAN_POINT ( 'NONE',  ( 3.000000000000000000, 2.999999999999999112, 0.000000000000000000 ) ) ;
#163 = LINE ( 'NONE', #166, #409 ) ;
#164 =( NAMED_UNIT ( * ) SI_UNIT ( $, .STERADIAN. ) SOLID_ANGLE_UNIT ( ) );
#165 = ADVANCED_FACE ( 'NONE', ( #17 ), #413, .T. ) ;
#166 = CARTESIAN_POINT ( 'NONE',  ( 0.000000000000000000, 33.00000000000000000, 0.000000000000000000 ) ) ;
#167 = CARTESIAN_POINT ( 'NONE',  ( 72.00000000000000000, 2.999999999999999112, 0.000000000000000000 ) ) ;
#168 = CALENDAR_DATE ( 2026, 22, 6 ) ;
#169 = LINE ( 'NONE', #316, #72 ) ;
#170 = CALENDAR_DATE ( 2026, 22, 6 ) ;
#171 = DIRECTION ( 'NONE',  ( 1.000000000000000000, -0.000000000000000000, 0.000000000000000000 ) ) ;
#172 = DIRECTION ( 'NONE',  ( 0.000000000000000000, 0.000000000000000000, -1.000000000000000000 ) ) ;
#173 = PLANE ( 'NONE',  #41 ) ;
#174 = VECTOR ( 'NONE', #323, 1000.000000000000000 ) ;
#175 = EDGE_CURVE ( 'NONE', #262, #132, #309, .T. ) ;
#176 = MANIFOLD_SOLID_BREP ( 'Fillet1', #238 ) ;
#177 = DIRECTION ( 'NONE',  ( -0.000000000000000000, -1.000000000000000000, -0.000000000000000000 ) ) ;
#178 = VERTEX_POINT ( 'NONE', #80 ) ;
#179 = EDGE_LOOP ( 'NONE', ( #293, #326, #275, #94 ) ) ;
#180 = ORIENTED_EDGE ( 'NONE', *, *, #149, .T. ) ;
#181 = EDGE_LOOP ( 'NONE', ( #352, #92, #150, #214 ) ) ;
#182 = VECTOR ( 'NONE', #122, 1000.000000000000000 ) ;
#183 = ORIENTED_EDGE ( 'NONE', *, *, #290, .T. ) ;
#184 = EDGE_CURVE ( 'NONE', #55, #256, #239, .T. ) ;
#185 = CARTESIAN_POINT ( 'NONE',  ( 0.000000000000000000, 2.999999999999999112, -35.00000000000000000 ) ) ;
#186 = EDGE_LOOP ( 'NONE', ( #127, #4, #264, #310 ) ) ;
#187 = PLANE ( 'NONE',  #49 ) ;
#188 = ORIENTED_EDGE ( 'NONE', *, *, #389, .T. ) ;
#189 = LINE ( 'NONE', #130, #96 ) ;
#190 =( GEOMETRIC_REPRESENTATION_CONTEXT ( 3 ) GLOBAL_UNCERTAINTY_ASSIGNED_CONTEXT ( ( #434 ) ) GLOBAL_UNIT_ASSIGNED_CONTEXT ( ( #3, #45, #164 ) ) REPRESENTATION_CONTEXT ( 'NONE', 'WORKASPACE' ) );
#191 = PLANE ( 'NONE',  #306 ) ;
#192 = CARTESIAN_POINT ( 'NONE',  ( 75.00000000000000000, 1.242640687119284770, -4.336808689942017736E-16 ) ) ;
#193 = DIRECTION ( 'NONE',  ( -1.000000000000000000, 0.000000000000000000, 0.000000000000000000 ) ) ;
#194 = CARTESIAN_POINT ( 'NONE',  ( 3.000000000000000000, 33.00000000000000000, -3.000000000000000000 ) ) ;
#195 = PERSON_AND_ORGANIZATION_ROLE ( 'design_supplier' ) ;
#196 = LOCAL_TIME ( 18, 50, 1.000000000000000000, #42 ) ;
#197 = CARTESIAN_POINT ( 'NONE',  ( 1.242640687119285881, 33.00000000000000000, -1.242640687119285881 ) ) ;
#198 = APPROVAL_DATE_TIME ( #73, #64 ) ;
#199 = DIRECTION ( 'NONE',  ( -1.000000000000000000, 0.000000000000000000, 0.000000000000000000 ) ) ;
#200 = PERSON_AND_ORGANIZATION ( #18446744073709551615, #18446744073709551615 ) ;
#201 = FACE_OUTER_BOUND ( 'NONE', #266, .T. ) ;
#202 = PERSON_AND_ORGANIZATION ( #18446744073709551615, #18446744073709551615 ) ;
#203 = ADVANCED_FACE ( 'NONE', ( #338 ), #78, .T. ) ;
#204 = DIRECTION ( 'NONE',  ( 0.000000000000000000, -1.000000000000000000, 0.000000000000000000 ) ) ;
#205 = AXIS2_PLACEMENT_3D ( 'NONE', #277, #143, #117 ) ;
#206 = ORIENTED_EDGE ( 'NONE', *, *, #317, .F. ) ;
#207 = PERSON_AND_ORGANIZATION ( #18446744073709551615, #18446744073709551615 ) ;
#208 = DIRECTION ( 'NONE',  ( 1.000000000000000000, 0.000000000000000000, 0.000000000000000000 ) ) ;
#209 = CARTESIAN_POINT ( 'NONE',  ( 3.000000000000000000, 0.000000000000000000, -32.00000000000000000 ) ) ;
#210 = EDGE_CURVE ( 'NONE', #178, #262, #114, .T. ) ;
#211 = ORIENTED_EDGE ( 'NONE', *, *, #118, .F. ) ;
#212 = DIRECTION ( 'NONE',  ( 1.000000000000000000, 0.000000000000000000, 0.000000000000000000 ) ) ;
#213 = VECTOR ( 'NONE', #50, 1000.000000000000000 ) ;
#214 = ORIENTED_EDGE ( 'NONE', *, *, #210, .F. ) ;
#215 = ADVANCED_FACE ( 'NONE', ( #7 ), #47, .F. ) ;
#216 = APPROVAL_PERSON_ORGANIZATION ( #432, #361, #378 ) ;
#217 = CC_DESIGN_APPROVAL ( #375, ( #135 ) ) ;
#218 = DIRECTION ( 'NONE',  ( -1.000000000000000000, 0.000000000000000000, 0.000000000000000000 ) ) ;
#219 = VERTEX_POINT ( 'NONE', #243 ) ;
#220 = CARTESIAN_POINT ( 'NONE',  ( 0.000000000000000000, 33.00000000000000000, 0.000000000000000000 ) ) ;
#221 = ORIENTED_EDGE ( 'NONE', *, *, #422, .T. ) ;
#222 = ADVANCED_FACE ( 'NONE', ( #201 ), #16, .T. ) ;
#223 = CARTESIAN_POINT ( 'NONE',  ( 75.00000000000000000, 30.00000000000000355, -35.00000000000000000 ) ) ;
#224 = ORIENTED_EDGE ( 'NONE', *, *, #81, .F. ) ;
#225 = DIRECTION ( 'NONE',  ( -0.000000000000000000, -0.000000000000000000, 1.000000000000000000 ) ) ;
#226 = AXIS2_PLACEMENT_3D ( 'NONE', #76, #171, #11 ) ;
#227 = CYLINDRICAL_SURFACE ( 'NONE', #156, 3.000000000000002665 ) ;
#228 = DIRECTION ( 'NONE',  ( -0.000000000000000000, -0.000000000000000000, 1.000000000000000000 ) ) ;
#229 = DIRECTION ( 'NONE',  ( 0.000000000000000000, 0.000000000000000000, 1.000000000000000000 ) ) ;
#230 = VECTOR ( 'NONE', #82, 1000.000000000000000 ) ;
#231 = CARTESIAN_POINT ( 'NONE',  ( 75.00000000000000000, 30.00000000000000355, -35.00000000000000000 ) ) ;
#232 = CALENDAR_DATE ( 2026, 22, 6 ) ;
#233 = DIRECTION ( 'NONE',  ( -0.000000000000000000, -1.000000000000000000, -0.000000000000000000 ) ) ;
#234 = APPROVAL_STATUS ( 'not_yet_approved' ) ;
#235 = ORIENTED_EDGE ( 'NONE', *, *, #280, .F. ) ;
#236 = CARTESIAN_POINT ( 'NONE',  ( 0.000000000000000000, 30.00000000000000355, -3.000000000000000000 ) ) ;
#237 = MECHANICAL_CONTEXT ( 'NONE', #121, 'mechanical' ) ;
#238 = CLOSED_SHELL ( 'NONE', ( #215, #404, #353, #14, #140, #165, #222, #368, #69, #433, #253, #414, #203, #395 ) ) ;
#239 = LINE ( 'NONE', #112, #79 ) ;
#240 = VECTOR ( 'NONE', #260, 1000.000000000000000 ) ;
#241 = LINE ( 'NONE', #83, #384 ) ;
#242 = CC_DESIGN_PERSON_AND_ORGANIZATION_ASSIGNMENT ( #207, #272, ( #153 ) ) ;
#243 = CARTESIAN_POINT ( 'NONE',  ( 0.000000000000000000, 30.00000000000000355, 0.000000000000000000 ) ) ;
#244 = VECTOR ( 'NONE', #407, 1000.000000000000000 ) ;
#245 = PRODUCT_DEFINITION_SHAPE ( 'NONE', 'NONE',  #8 ) ;
#246 = VERTEX_POINT ( 'NONE', #46 ) ;
#247 = CARTESIAN_POINT ( 'NONE',  ( 1.242640687119284992, 33.00000000000000000, -33.75735931288071612 ) ) ;
#248 = ORIENTED_EDGE ( 'NONE', *, *, #290, .F. ) ;
#249 = AXIS2_PLACEMENT_3D ( 'NONE', #148, #204, #308 ) ;
#250 = DIRECTION ( 'NONE',  ( 0.000000000000000000, 0.000000000000000000, 1.000000000000000000 ) ) ;
#251 = CC_DESIGN_PERSON_AND_ORGANIZATION_ASSIGNMENT ( #335, #372, ( #34 ) ) ;
#252 = ORIENTED_EDGE ( 'NONE', *, *, #265, .T. ) ;
#253 = ADVANCED_FACE ( 'NONE', ( #313 ), #147, .T. ) ;
#254 =( BOUNDED_CURVE ( )  B_SPLINE_CURVE ( 3, ( #397, #37, #192, #304 ),
 .UNSPECIFIED., .F., .T. ) 
 B_SPLINE_CURVE_WITH_KNOTS ( ( 4, 4 ),
 ( 4.712388980384689674, 6.283185307179586232 ),
 .UNSPECIFIED. ) 
 CURVE ( )  GEOMETRIC_REPRESENTATION_ITEM ( )  RATIONAL_B_SPLINE_CURVE ( ( 1.000000000000000000, 0.8047378541243649375, 0.8047378541243649375, 1.000000000000000000 ) ) 
 REPRESENTATION_ITEM ( '' )  );
#255 = DIRECTION ( 'NONE',  ( -1.000000000000000000, 0.000000000000000000, 0.000000000000000000 ) ) ;
#256 = VERTEX_POINT ( 'NONE', #12 ) ;
#257 = FACE_OUTER_BOUND ( 'NONE', #186, .T. ) ;
#258 = VERTEX_POINT ( 'NONE', #119 ) ;
#259 = CARTESIAN_POINT ( 'NONE',  ( 3.000000000000000000, 33.00000000000000000, 0.000000000000000000 ) ) ;
#260 = DIRECTION ( 'NONE',  ( -0.000000000000000000, -0.000000000000000000, -1.000000000000000000 ) ) ;
#261 = VECTOR ( 'NONE', #312, 1000.000000000000000 ) ;
#262 = VERTEX_POINT ( 'NONE', #383 ) ;
#263 = LINE ( 'NONE', #295, #425 ) ;
#264 = ORIENTED_EDGE ( 'NONE', *, *, #145, .F. ) ;
#265 = EDGE_CURVE ( 'NONE', #18, #394, #241, .T. ) ;
#266 = EDGE_LOOP ( 'NONE', ( #120, #318, #377, #321 ) ) ;
#267 = PERSON_AND_ORGANIZATION ( #18446744073709551615, #18446744073709551615 ) ;
#268 = DIRECTION ( 'NONE',  ( -0.000000000000000000, -1.000000000000000000, -0.000000000000000000 ) ) ;
#269 = CALENDAR_DATE ( 2026, 22, 6 ) ;
#270 = CARTESIAN_POINT ( 'NONE',  ( 0.000000000000000000, 33.00000000000000000, -35.00000000000000000 ) ) ;
#271 = EDGE_CURVE ( 'NONE', #219, #420, #28, .T. ) ;
#272 = PERSON_AND_ORGANIZATION_ROLE ( 'design_owner' ) ;
#273 = ADVANCED_BREP_SHAPE_REPRESENTATION ( 'TATTU 2200mAh 14.8V 45C 4S1P Lipo Battery Pack with XT60 Plug', ( #176, #327 ), #190 ) ;
#274 = DIRECTION ( 'NONE',  ( 1.000000000000000000, 0.000000000000000000, 0.000000000000000000 ) ) ;
#275 = ORIENTED_EDGE ( 'NONE', *, *, #317, .T. ) ;
#276 = DATE_AND_TIME ( #269, #84 ) ;
#277 = CARTESIAN_POINT ( 'NONE',  ( 0.000000000000000000, 2.999999999999999112, -32.00000000000000000 ) ) ;
#278 =( BOUNDED_CURVE ( )  B_SPLINE_CURVE ( 3, ( #33, #430, #299, #428 ),
 .UNSPECIFIED., .F., .T. ) 
 B_SPLINE_CURVE_WITH_KNOTS ( ( 4, 4 ),
 ( 4.712388980384689674, 6.283185307179586232 ),
 .UNSPECIFIED. ) 
 CURVE ( )  GEOMETRIC_REPRESENTATION_ITEM ( )  RATIONAL_B_SPLINE_CURVE ( ( 1.000000000000000000, 0.8047378541243649375, 0.8047378541243649375, 1.000000000000000000 ) ) 
 REPRESENTATION_ITEM ( '' )  );
#279 = CC_DESIGN_PERSON_AND_ORGANIZATION_ASSIGNMENT ( #202, #311, ( #135 ) ) ;
#280 = EDGE_CURVE ( 'NONE', #262, #256, #429, .T. ) ;
#281 = ORIENTED_EDGE ( 'NONE', *, *, #210, .T. ) ;
#282 = DIRECTION ( 'NONE',  ( 0.000000000000000000, 0.000000000000000000, 1.000000000000000000 ) ) ;
#283 = APPROVAL_PERSON_ORGANIZATION ( #104, #64, #365 ) ;
#284 = EDGE_LOOP ( 'NONE', ( #348, #343, #44, #235 ) ) ;
#285 = DIRECTION ( 'NONE',  ( 0.000000000000000000, -1.000000000000000000, 0.000000000000000000 ) ) ;
#286 = CARTESIAN_POINT ( 'NONE',  ( 0.000000000000000000, 2.999999999999999112, 0.000000000000000000 ) ) ;
#287 = ORIENTED_EDGE ( 'NONE', *, *, #265, .F. ) ;
#288 = ORIENTED_EDGE ( 'NONE', *, *, #297, .T. ) ;
#289 = DIRECTION ( 'NONE',  ( -1.000000000000000000, 0.000000000000000000, 0.000000000000000000 ) ) ;
#290 = EDGE_CURVE ( 'NONE', #420, #178, #363, .T. ) ;
#291 = VECTOR ( 'NONE', #32, 1000.000000000000000 ) ;
#292 = CARTESIAN_POINT ( 'NONE',  ( 72.00000000000000000, 30.00000000000000355, 0.000000000000000000 ) ) ;
#293 = ORIENTED_EDGE ( 'NONE', *, *, #90, .T. ) ;
#294 = FACE_OUTER_BOUND ( 'NONE', #56, .T. ) ;
#295 = CARTESIAN_POINT ( 'NONE',  ( 0.000000000000000000, 0.000000000000000000, -3.000000000000000000 ) ) ;
#296 = DIRECTION ( 'NONE',  ( -1.000000000000000000, 0.000000000000000000, 0.000000000000000000 ) ) ;
#297 = EDGE_CURVE ( 'NONE', #128, #258, #158, .T. ) ;
#298 = AXIS2_PLACEMENT_3D ( 'NONE', #292, #426, #255 ) ;
#299 = CARTESIAN_POINT ( 'NONE',  ( 75.00000000000000000, 31.75735931288071967, -4.336808689942017736E-16 ) ) ;
#300 = COORDINATED_UNIVERSAL_TIME_OFFSET ( 10, 0, .AHEAD. ) ;
#301 = ORIENTED_EDGE ( 'NONE', *, *, #389, .F. ) ;
#302 = ORIENTED_EDGE ( 'NONE', *, *, #22, .F. ) ;
#303 = EDGE_CURVE ( 'NONE', #246, #178, #189, .T. ) ;
#304 = CARTESIAN_POINT ( 'NONE',  ( 75.00000000000000000, 2.999999999999999112, 0.000000000000000000 ) ) ;
#305 = DATE_AND_TIME ( #168, #385 ) ;
#306 = AXIS2_PLACEMENT_3D ( 'NONE', #270, #161, #31 ) ;
#307 = APPROVAL_PERSON_ORGANIZATION ( #113, #375, #374 ) ;
#308 = DIRECTION ( 'NONE',  ( 0.000000000000000000, -0.000000000000000000, -1.000000000000000000 ) ) ;
#309 =( BOUNDED_CURVE ( )  B_SPLINE_CURVE ( 3, ( #286, #43, #376, #346 ),
 .UNSPECIFIED., .F., .T. ) 
 B_SPLINE_CURVE_WITH_KNOTS ( ( 4, 4 ),
 ( 3.141592653589793116, 4.712388980384689674 ),
 .UNSPECIFIED. ) 
 CURVE ( )  GEOMETRIC_REPRESENTATION_ITEM ( )  RATIONAL_B_SPLINE_CURVE ( ( 1.000000000000000000, 0.8047378541243649375, 0.8047378541243649375, 1.000000000000000000 ) ) 
 REPRESENTATION_ITEM ( '' )  );
#310 = ORIENTED_EDGE ( 'NONE', *, *, #22, .T. ) ;
#311 = PERSON_AND_ORGANIZATION_ROLE ( 'classification_officer' ) ;
#312 = DIRECTION ( 'NONE',  ( 0.000000000000000000, 0.000000000000000000, -1.000000000000000000 ) ) ;
#313 = FACE_OUTER_BOUND ( 'NONE', #392, .T. ) ;
#314 = CARTESIAN_POINT ( 'NONE',  ( 3.000000000000000000, 0.000000000000000000, -3.000000000000000000 ) ) ;
#315 = APPROVAL_DATE_TIME ( #9, #375 ) ;
#316 = CARTESIAN_POINT ( 'NONE',  ( 75.00000000000000000, 33.00000000000000000, -35.00000000000000000 ) ) ;
#317 = EDGE_CURVE ( 'NONE', #420, #387, #53, .T. ) ;
#318 = ORIENTED_EDGE ( 'NONE', *, *, #422, .F. ) ;
#319 = VECTOR ( 'NONE', #199, 1000.000000000000000 ) ;
#320 = ORIENTED_EDGE ( 'NONE', *, *, #145, .T. ) ;
#321 = ORIENTED_EDGE ( 'NONE', *, *, #303, .F. ) ;
#322 = CC_DESIGN_DATE_AND_TIME_ASSIGNMENT ( #305, #6, ( #135 ) ) ;
#323 = DIRECTION ( 'NONE',  ( -0.000000000000000000, -1.000000000000000000, -0.000000000000000000 ) ) ;
#324 = ORIENTED_EDGE ( 'NONE', *, *, #39, .T. ) ;
#325 = CARTESIAN_POINT ( 'NONE',  ( 0.000000000000000000, 33.00000000000000000, -35.00000000000000000 ) ) ;
#326 = ORIENTED_EDGE ( 'NONE', *, *, #61, .F. ) ;
#327 = AXIS2_PLACEMENT_3D ( 'NONE', #406, #229, #337 ) ;
#328 = CARTESIAN_POINT ( 'NONE',  ( 75.00000000000000000, 0.000000000000000000, -32.00000000000000000 ) ) ;
#329 = LINE ( 'NONE', #364, #319 ) ;
#330 = CARTESIAN_POINT ( 'NONE',  ( 2.184664232470858947E-16, 31.75735931288071967, -35.00000000000000000 ) ) ;
#331 = DIRECTION ( 'NONE',  ( 1.000000000000000000, 0.000000000000000000, 0.000000000000000000 ) ) ;
#332 = CARTESIAN_POINT ( 'NONE',  ( 3.000000000000000000, 33.00000000000000000, -32.00000000000000000 ) ) ;
#333 = CARTESIAN_POINT ( 'NONE',  ( 72.00000000000000000, 0.000000000000000000, -32.00000000000000000 ) ) ;
#334 = CARTESIAN_POINT ( 'NONE',  ( 73.75735931288070901, -3.228216686206738306E-16, -33.75735931288071612 ) ) ;
#335 = PERSON_AND_ORGANIZATION ( #18446744073709551615, #18446744073709551615 ) ;
#336 = LINE ( 'NONE', #382, #230 ) ;
#337 = DIRECTION ( 'NONE',  ( 1.000000000000000000, 0.000000000000000000, 0.000000000000000000 ) ) ;
#338 = FACE_OUTER_BOUND ( 'NONE', #355, .T. ) ;
#339 = ORIENTED_EDGE ( 'NONE', *, *, #280, .T. ) ;
#340 = CALENDAR_DATE ( 2026, 22, 6 ) ;
#341 = DIRECTION ( 'NONE',  ( 0.000000000000000000, 0.000000000000000000, 1.000000000000000000 ) ) ;
#342 = CARTESIAN_POINT ( 'NONE',  ( 3.000000000000000000, 30.00000000000000355, 0.000000000000000000 ) ) ;
#343 = ORIENTED_EDGE ( 'NONE', *, *, #85, .F. ) ;
#344 = FACE_OUTER_BOUND ( 'NONE', #357, .T. ) ;
#345 = SHAPE_DEFINITION_REPRESENTATION ( #245, #273 ) ;
#346 = CARTESIAN_POINT ( 'NONE',  ( 3.000000000000000000, 0.000000000000000000, -3.000000000000000000 ) ) ;
#347 = ORIENTED_EDGE ( 'NONE', *, *, #85, .T. ) ;
#348 = ORIENTED_EDGE ( 'NONE', *, *, #175, .T. ) ;
#349 = ORIENTED_EDGE ( 'NONE', *, *, #61, .T. ) ;
#350 = PRODUCT_RELATED_PRODUCT_CATEGORY ( 'detail', '', ( #153 ) ) ;
#351 = CC_DESIGN_APPROVAL ( #361, ( #8 ) ) ;
#352 = ORIENTED_EDGE ( 'NONE', *, *, #380, .T. ) ;
#353 = ADVANCED_FACE ( 'NONE', ( #257 ), #187, .F. ) ;
#354 = CARTESIAN_POINT ( 'NONE',  ( 4.336808689942017736E-16, 1.242640687119284770, -35.00000000000000000 ) ) ;
#355 = EDGE_LOOP ( 'NONE', ( #52, #58, #206, #27 ) ) ;
#356 = FACE_OUTER_BOUND ( 'NONE', #89, .T. ) ;
#357 = EDGE_LOOP ( 'NONE', ( #180, #411, #125, #252 ) ) ;
#358 = LINE ( 'NONE', #328, #431 ) ;
#359 = DIRECTION ( 'NONE',  ( 0.000000000000000000, 0.000000000000000000, 1.000000000000000000 ) ) ;
#360 = LINE ( 'NONE', #25, #291 ) ;
#361 = APPROVAL ( #137, 'Coincident' ) ;
#362 = FACE_OUTER_BOUND ( 'NONE', #151, .T. ) ;
#363 = LINE ( 'NONE', #325, #174 ) ;
#364 = CARTESIAN_POINT ( 'NONE',  ( 0.000000000000000000, 33.00000000000000000, -32.00000000000000000 ) ) ;
#365 = APPROVAL_ROLE ( '' ) ;
#366 = CARTESIAN_POINT ( 'NONE',  ( 75.00000000000000000, 30.00000000000000355, 0.000000000000000000 ) ) ;
#367 = VERTEX_POINT ( 'NONE', #223 ) ;
#368 = ADVANCED_FACE ( 'NONE', ( #86 ), #24, .T. ) ;
#369 = DATE_TIME_ROLE ( 'creation_date' ) ;
#370 = VECTOR ( 'NONE', #123, 1000.000000000000000 ) ;
#371 = ORIENTED_EDGE ( 'NONE', *, *, #184, .F. ) ;
#372 = PERSON_AND_ORGANIZATION_ROLE ( 'creator' ) ;
#373 = CARTESIAN_POINT ( 'NONE',  ( 0.000000000000000000, 2.999999999999999112, 0.000000000000000000 ) ) ;
#374 = APPROVAL_ROLE ( '' ) ;
#375 = APPROVAL ( #234, 'Coincident' ) ;
#376 = CARTESIAN_POINT ( 'NONE',  ( 1.242640687119284992, 3.228216686206738306E-16, -1.242640687119284992 ) ) ;
#377 = ORIENTED_EDGE ( 'NONE', *, *, #380, .F. ) ;
#378 = APPROVAL_ROLE ( '' ) ;
#379 = AXIS2_PLACEMENT_3D ( 'NONE', #220, #65, #396 ) ;
#380 = EDGE_CURVE ( 'NONE', #178, #126, #99, .T. ) ;
#381 = CARTESIAN_POINT ( 'NONE',  ( 3.000000000000000000, 0.000000000000000000, -35.00000000000000000 ) ) ;
#382 = CARTESIAN_POINT ( 'NONE',  ( 75.00000000000000000, 2.999999999999999112, -35.00000000000000000 ) ) ;
#383 = CARTESIAN_POINT ( 'NONE',  ( 0.000000000000000000, 2.999999999999999112, 0.000000000000000000 ) ) ;
#384 = VECTOR ( 'NONE', #212, 1000.000000000000000 ) ;
#385 = LOCAL_TIME ( 18, 50, 1.000000000000000000, #38 ) ;
#386 = ORIENTED_EDGE ( 'NONE', *, *, #54, .F. ) ;
#387 = VERTEX_POINT ( 'NONE', #59 ) ;
#388 = DIRECTION ( 'NONE',  ( 0.000000000000000000, 0.000000000000000000, 1.000000000000000000 ) ) ;
#389 = EDGE_CURVE ( 'NONE', #55, #219, #360, .T. ) ;
#390 = ORIENTED_EDGE ( 'NONE', *, *, #303, .T. ) ;
#391 = PLANE ( 'NONE',  #379 ) ;
#392 = EDGE_LOOP ( 'NONE', ( #421, #301, #224, #287 ) ) ;
#393 = CARTESIAN_POINT ( 'NONE',  ( 72.00000000000000000, 0.000000000000000000, 0.000000000000000000 ) ) ;
#394 = VERTEX_POINT ( 'NONE', #424 ) ;
#395 = ADVANCED_FACE ( 'NONE', ( #63 ), #100, .T. ) ;
#396 = DIRECTION ( 'NONE',  ( -1.000000000000000000, 0.000000000000000000, -0.000000000000000000 ) ) ;
#397 = CARTESIAN_POINT ( 'NONE',  ( 72.00000000000000000, 0.000000000000000000, -3.000000000000000000 ) ) ;
#398 = AXIS2_PLACEMENT_3D ( 'NONE', #162, #67, #218 ) ;
#399 = CC_DESIGN_APPROVAL ( #64, ( #34 ) ) ;
#400 = CARTESIAN_POINT ( 'NONE',  ( 1.242640687119285881, -2.826049314663648214E-16, -33.75735931288071612 ) ) ;
#401 = CARTESIAN_POINT ( 'NONE',  ( 0.000000000000000000, 30.00000000000000355, -35.00000000000000000 ) ) ;
#402 =( BOUNDED_CURVE ( )  B_SPLINE_CURVE ( 3, ( #333, #334, #98, #410 ),
 .UNSPECIFIED., .F., .T. ) 
 B_SPLINE_CURVE_WITH_KNOTS ( ( 4, 4 ),
 ( 4.712388980384689674, 6.283185307179586232 ),
 .UNSPECIFIED. ) 
 CURVE ( )  GEOMETRIC_REPRESENTATION_ITEM ( )  RATIONAL_B_SPLINE_CURVE ( ( 1.000000000000000000, 0.8047378541243649375, 0.8047378541243649375, 1.000000000000000000 ) ) 
 REPRESENTATION_ITEM ( '' )  );
#403 = APPROVAL_DATE_TIME ( #276, #361 ) ;
#404 = ADVANCED_FACE ( 'NONE', ( #294 ), #391, .F. ) ;
#405 = CARTESIAN_POINT ( 'NONE',  ( 75.00000000000000000, 31.75735931288071967, -35.00000000000000000 ) ) ;
#406 = CARTESIAN_POINT ( 'NONE',  ( 0.000000000000000000, 0.000000000000000000, 0.000000000000000000 ) ) ;
#407 = DIRECTION ( 'NONE',  ( 1.000000000000000000, -0.000000000000000000, -0.000000000000000000 ) ) ;
#408 = CC_DESIGN_DATE_AND_TIME_ASSIGNMENT ( #412, #369, ( #8 ) ) ;
#409 = VECTOR ( 'NONE', #268, 1000.000000000000000 ) ;
#410 = CARTESIAN_POINT ( 'NONE',  ( 75.00000000000000000, 2.999999999999999112, -35.00000000000000000 ) ) ;
#411 = ORIENTED_EDGE ( 'NONE', *, *, #26, .T. ) ;
#412 = DATE_AND_TIME ( #232, #416 ) ;
#413 = PLANE ( 'NONE',  #249 ) ;
#414 = ADVANCED_FACE ( 'NONE', ( #356 ), #155, .T. ) ;
#415 = LINE ( 'NONE', #381, #213 ) ;
#416 = LOCAL_TIME ( 18, 50, 1.000000000000000000, #75 ) ;
#417 = CARTESIAN_POINT ( 'NONE',  ( 72.00000000000000000, 0.000000000000000000, -32.00000000000000000 ) ) ;
#418 = DIRECTION ( 'NONE',  ( 0.000000000000000000, -0.000000000000000000, -1.000000000000000000 ) ) ;
#419 = CARTESIAN_POINT ( 'NONE',  ( 3.000000000000000000, 0.000000000000000000, -32.00000000000000000 ) ) ;
#420 = VERTEX_POINT ( 'NONE', #93 ) ;
#421 = ORIENTED_EDGE ( 'NONE', *, *, #101, .F. ) ;
#422 = EDGE_CURVE ( 'NONE', #126, #128, #358, .T. ) ;
#423 = EDGE_LOOP ( 'NONE', ( #288, #347, #20, #221 ) ) ;
#424 = CARTESIAN_POINT ( 'NONE',  ( 72.00000000000000000, 33.00000000000000000, -3.000000000000000000 ) ) ;
#425 = VECTOR ( 'NONE', #102, 1000.000000000000000 ) ;
#426 = DIRECTION ( 'NONE',  ( 0.000000000000000000, 0.000000000000000000, -1.000000000000000000 ) ) ;
#427 = DIRECTION ( 'NONE',  ( 1.000000000000000000, -0.000000000000000000, -0.000000000000000000 ) ) ;
#428 = CARTESIAN_POINT ( 'NONE',  ( 75.00000000000000000, 30.00000000000000355, 0.000000000000000000 ) ) ;
#429 = LINE ( 'NONE', #129, #370 ) ;
#430 = CARTESIAN_POINT ( 'NONE',  ( 73.75735931288070901, 33.00000000000000000, -1.242640687119285881 ) ) ;
#431 = VECTOR ( 'NONE', #427, 1000.000000000000000 ) ;
#432 = PERSON_AND_ORGANIZATION ( #18446744073709551615, #18446744073709551615 ) ;
#433 = ADVANCED_FACE ( 'NONE', ( #131 ), #30, .T. ) ;
#434 = UNCERTAINTY_MEASURE_WITH_UNIT (LENGTH_MEASURE( 1.000000000000000082E-05 ), #3, 'distance_accuracy_value', 'NONE');
#435 = CARTESIAN_POINT ( 'NONE',  ( 72.00000000000000000, 33.00000000000000000, -32.00000000000000000 ) ) ;
ENDSEC;
END-ISO-10303-21;
