ISO-10303-21;
HEADER;
FILE_DESCRIPTION (( 'STEP AP203' ),
    '1' );
FILE_NAME ('TPSMA6L48A.step.STEP',
    '2026-06-22T08:49:52',
    ( 'localuser' ),
    ( '' ),
    'SwSTEP 2.0',
    'SolidWorks 2025',
    '' );
FILE_SCHEMA (( 'CONFIG_CONTROL_DESIGN' ));
ENDSEC;

DATA;
#1 = CC_DESIGN_APPROVAL ( #561, ( #322 ) ) ;
#2 = COORDINATED_UNIVERSAL_TIME_OFFSET ( 10, 0, .AHEAD. ) ;
#3 = CALENDAR_DATE ( 2026, 22, 6 ) ;
#4 = APPROVAL_ROLE ( '' ) ;
#5 = CALENDAR_DATE ( 2026, 22, 6 ) ;
#6 = PERSON_AND_ORGANIZATION ( #18446744073709551615, #18446744073709551615 ) ;
#7 = DOCUMENT_TYPE ( 'geometry' ) ;
#8 = PERSON_AND_ORGANIZATION ( #18446744073709551615, #18446744073709551615 ) ;
#9 = APPROVAL_STATUS ( 'not_yet_approved' ) ;
#10 = APPROVAL_ROLE ( '' ) ;
#11 = APPROVAL ( #328, 'Coincident' ) ;
#12 = LOCAL_TIME ( 18, 49, 52.00000000000000000, #151 ) ;
#13 = APPROVAL_PERSON_ORGANIZATION ( #355, #144, #599 ) ;
#14 = CALENDAR_DATE ( 2026, 22, 6 ) ;
#15 = APPROVAL_DATE_TIME ( #248, #101 ) ;
#16 = APPLICATION_PROTOCOL_DEFINITION ( 'international standard', 'config_control_design', 1994, #588 ) ;
#17 = APPLICATION_PROTOCOL_DEFINITION ( 'international standard', 'config_control_design', 1994, #196 ) ;
#18 = CC_DESIGN_PERSON_AND_ORGANIZATION_ASSIGNMENT ( #8, #332, ( #139 ) ) ;
#19 = PERSON_AND_ORGANIZATION_ROLE ( 'classification_officer' ) ;
#20 =( REPRESENTATION_RELATIONSHIP ('NONE','NONE', #64, #289 ) REPRESENTATION_RELATIONSHIP_WITH_TRANSFORMATION ( #31 )SHAPE_REPRESENTATION_RELATIONSHIP( ) );
#21 = LOCAL_TIME ( 18, 49, 52.00000000000000000, #52 ) ;
#22 = APPLIED_EXTERNAL_IDENTIFICATION_ASSIGNMENT ( 'PinKIdent.step.STEP' , #180, #405,( #594) ) ;
#23 = DIRECTION ( 'NONE',  ( 1.000000000000000000, 0.000000000000000000, 0.000000000000000000 ) ) ;
#24 = PROPERTY_DEFINITION ('document property','', #275 ) ;
#25 = PRODUCT_DEFINITION_SHAPE ( 'NONE', 'NONE',  #397 ) ;
#26 = COORDINATED_UNIVERSAL_TIME_OFFSET ( 10, 0, .AHEAD. ) ;
#27 = LOCAL_TIME ( 18, 49, 52.00000000000000000, #249 ) ;
#28 =( REPRESENTATION_RELATIONSHIP ('NONE','NONE', #64, #337 ) REPRESENTATION_RELATIONSHIP_WITH_TRANSFORMATION ( #279 )SHAPE_REPRESENTATION_RELATIONSHIP( ) );
#29 = PROPERTY_DEFINITION ('external definition','', #86 ) ;
#30 = CC_DESIGN_DATE_AND_TIME_ASSIGNMENT ( #223, #189, ( #302 ) ) ;
#31 = ITEM_DEFINED_TRANSFORMATION ( 'NONE', 'NONE', #389,  #300 ) ;
#32 = COORDINATED_UNIVERSAL_TIME_OFFSET ( 10, 0, .AHEAD. ) ;
#33 = CC_DESIGN_DATE_AND_TIME_ASSIGNMENT ( #388, #255, ( #221 ) ) ;
#34 = APPROVAL_STATUS ( 'not_yet_approved' ) ;
#35 = PERSON_AND_ORGANIZATION ( #18446744073709551615, #18446744073709551615 ) ;
#36 = CC_DESIGN_PERSON_AND_ORGANIZATION_ASSIGNMENT ( #41, #586, ( #369 ) ) ;
#37 = CARTESIAN_POINT ( 'NONE',  ( -1.873750000000001359, -1.250000000000001110, 1.098000000000000087 ) ) ;
#38 = PRODUCT_DEFINITION_FORMATION_WITH_SPECIFIED_SOURCE ( 'Symmetric', '', #72, .NOT_KNOWN. ) ;
#39 = LOCAL_TIME ( 18, 49, 52.00000000000000000, #167 ) ;
#40 = SHAPE_DEFINITION_REPRESENTATION ( #25, #337 ) ;
#41 = PERSON_AND_ORGANIZATION ( #246, #259 ) ;
#42 = APPROVAL_STATUS ( 'not_yet_approved' ) ;
#43 = COORDINATED_UNIVERSAL_TIME_OFFSET ( 10, 0, .AHEAD. ) ;
#44 =( NAMED_UNIT ( * ) SI_UNIT ( $, .STERADIAN. ) SOLID_ANGLE_UNIT ( ) );
#45 = COORDINATED_UNIVERSAL_TIME_OFFSET ( 10, 0, .AHEAD. ) ;
#46 = CC_DESIGN_DATE_AND_TIME_ASSIGNMENT ( #598, #198, ( #555 ) ) ;
#47 = APPROVAL_STATUS ( 'not_yet_approved' ) ;
#48 = AXIS2_PLACEMENT_3D ( 'NONE', #191, #129, #194 ) ;
#49 = LOCAL_TIME ( 18, 49, 52.00000000000000000, #564 ) ;
#50 = LOCAL_TIME ( 18, 49, 52.00000000000000000, #485 ) ;
#51 = APPROVAL_ROLE ( '' ) ;
#52 = COORDINATED_UNIVERSAL_TIME_OFFSET ( 10, 0, .AHEAD. ) ;
#53 = APPROVAL_DATE_TIME ( #479, #281 ) ;
#54 = CALENDAR_DATE ( 2026, 22, 6 ) ;
#55 = COORDINATED_UNIVERSAL_TIME_OFFSET ( 10, 0, .AHEAD. ) ;
#56 = APPROVAL_STATUS ( 'not_yet_approved' ) ;
#57 = APPROVAL_ROLE ( '' ) ;
#58 = LOCAL_TIME ( 18, 49, 52.00000000000000000, #287 ) ;
#59 = CC_DESIGN_APPROVAL ( #158, ( #369 ) ) ;
#60 = PERSON_AND_ORGANIZATION_ROLE ( 'creator' ) ;
#61 = APPROVAL_ROLE ( '' ) ;
#62 = PERSON_AND_ORGANIZATION ( #18446744073709551615, #18446744073709551615 ) ;
#63 = DOCUMENT_TYPE ( 'geometry' ) ;
#64 = SHAPE_REPRESENTATION ( 'TPSMA6L48A.step', ( #442, #48, #342, #138, #389 ), #98 ) ;
#65 = CC_DESIGN_PERSON_AND_ORGANIZATION_ASSIGNMENT ( #320, #280, ( #38 ) ) ;
#66 = COORDINATED_UNIVERSAL_TIME_OFFSET ( 10, 0, .AHEAD. ) ;
#67 = CC_DESIGN_PERSON_AND_ORGANIZATION_ASSIGNMENT ( #539, #496, ( #113 ) ) ;
#68 = APPROVAL_ROLE ( '' ) ;
#69 = CC_DESIGN_APPROVAL ( #298, ( #397 ) ) ;
#70 = LOCAL_TIME ( 18, 49, 52.00000000000000000, #32 ) ;
#71 =( REPRESENTATION_RELATIONSHIP ('NONE','NONE', #64, #102 ) REPRESENTATION_RELATIONSHIP_WITH_TRANSFORMATION ( #363 )SHAPE_REPRESENTATION_RELATIONSHIP( ) );
#72 = PRODUCT ( 'PinKIdent.step', 'PinKIdent.step', '', ( #243 ) ) ;
#73 = PRODUCT_DEFINITION ( 'General', '', #490, #437 ) ;
#74 = PROPERTY_DEFINITION ('document property','', #594 ) ;
#75 = PRODUCT_DEFINITION_SHAPE ( 'NONE', 'NONE',  #221 ) ;
#76 = CALENDAR_DATE ( 2026, 22, 6 ) ;
#77 = CC_DESIGN_APPROVAL ( #238, ( #498 ) ) ;
#78 = CC_DESIGN_APPROVAL ( #144, ( #302 ) ) ;
#79 = APPROVAL ( #56, 'Coincident' ) ;
#80 = COORDINATED_UNIVERSAL_TIME_OFFSET ( 10, 0, .AHEAD. ) ;
#81 = APPLICATION_CONTEXT ( 'configuration controlled 3d designs of mechanical parts and assemblies' ) ;
#82 = DIRECTION ( 'NONE',  ( 1.000000000000000000, 0.000000000000000000, 0.000000000000000000 ) ) ;
#83 = DATE_TIME_ROLE ( 'classification_date' ) ;
#84 = DATE_AND_TIME ( #96, #472 ) ;
#85 = DATE_AND_TIME ( #142, #345 ) ;
#86 = DOCUMENT_FILE ( 'Body.step.STEP' , '', '', #149, '' ,$ ) ;
#87 = DATE_TIME_ROLE ( 'creation_date' ) ;
#88 = CARTESIAN_POINT ( 'NONE',  ( 1.475000000000000089, -0.7499999999999997780, -1.734723475976807094E-15 ) ) ;
#89 = APPROVAL_PERSON_ORGANIZATION ( #254, #357, #104 ) ;
#90 = APPLIED_DOCUMENT_REFERENCE ( #275,'',( #555) ) ;
#91 = COORDINATED_UNIVERSAL_TIME_OFFSET ( 10, 0, .AHEAD. ) ;
#92 = CC_DESIGN_DATE_AND_TIME_ASSIGNMENT ( #108, #375, ( #367 ) ) ;
#93 = CONTEXT_DEPENDENT_SHAPE_REPRESENTATION ( #20, #582 ) ;
#94 = COORDINATED_UNIVERSAL_TIME_OFFSET ( 10, 0, .AHEAD. ) ;
#95 = CC_DESIGN_PERSON_AND_ORGANIZATION_ASSIGNMENT ( #441, #19, ( #593 ) ) ;
#96 = CALENDAR_DATE ( 2026, 22, 6 ) ;
#97 = CALENDAR_DATE ( 2026, 22, 6 ) ;
#98 =( GEOMETRIC_REPRESENTATION_CONTEXT ( 3 ) GLOBAL_UNCERTAINTY_ASSIGNED_CONTEXT ( ( #518 ) ) GLOBAL_UNIT_ASSIGNED_CONTEXT ( ( #325, #278, #514 ) ) REPRESENTATION_CONTEXT ( 'NONE', 'WORKASPACE' ) );
#99 = CC_DESIGN_APPROVAL ( #406, ( #490 ) ) ;
#100 = PERSON_AND_ORGANIZATION ( #18446744073709551615, #18446744073709551615 ) ;
#101 = APPROVAL ( #335, 'Coincident' ) ;
#102 = SHAPE_REPRESENTATION ( 'PinK.step', ( #154 ), #240 ) ;
#103 = PERSON_AND_ORGANIZATION_ROLE ( 'classification_officer' ) ;
#104 = APPROVAL_ROLE ( '' ) ;
#105 = APPROVAL_DATE_TIME ( #487, #238 ) ;
#106 = APPROVAL_DATE_TIME ( #292, #406 ) ;
#107 = ITEM_DEFINED_TRANSFORMATION ( 'NONE', 'NONE', #48,  #409 ) ;
#108 = DATE_AND_TIME ( #237, #241 ) ;
#109 = DATE_TIME_ROLE ( 'creation_date' ) ;
#110 = CC_DESIGN_PERSON_AND_ORGANIZATION_ASSIGNMENT ( #348, #533, ( #498 ) ) ;
#111 = DATE_AND_TIME ( #527, #508 ) ;
#112 = LOCAL_TIME ( 18, 49, 52.00000000000000000, #45 ) ;
#113 = SECURITY_CLASSIFICATION ( '', '', #250 ) ;
#114 = PERSON_AND_ORGANIZATION ( #18446744073709551615, #18446744073709551615 ) ;
#115 = CC_DESIGN_DATE_AND_TIME_ASSIGNMENT ( #181, #548, ( #369 ) ) ;
#116 = EXTERNAL_SOURCE (IDENTIFIER('') ) ;
#117 = PERSON_AND_ORGANIZATION ( #18446744073709551615, #18446744073709551615 ) ;
#118 = DIRECTION ( 'NONE',  ( 0.000000000000000000, 0.000000000000000000, 1.000000000000000000 ) ) ;
#119 = APPROVAL_PERSON_ORGANIZATION ( #218, #101, #530 ) ;
#120 = APPROVAL ( #333, 'Coincident' ) ;
#121 = CALENDAR_DATE ( 2026, 22, 6 ) ;
#122 = CC_DESIGN_PERSON_AND_ORGANIZATION_ASSIGNMENT ( #62, #295, ( #498 ) ) ;
#123 = APPROVAL_ROLE ( '' ) ;
#124 = APPROVAL_PERSON_ORGANIZATION ( #560, #406, #208 ) ;
#125 =( NAMED_UNIT ( * ) PLANE_ANGLE_UNIT ( ) SI_UNIT ( $, .RADIAN. ) );
#126 = CC_DESIGN_PERSON_AND_ORGANIZATION_ASSIGNMENT ( #117, #575, ( #156 ) ) ;
#127 = PROPERTY_DEFINITION_REPRESENTATION ( #29, #159 ) ;
#128 = PERSON_AND_ORGANIZATION_ROLE ( 'classification_officer' ) ;
#129 = DIRECTION ( 'NONE',  ( 7.396190242257584170E-25, 3.970466940254532839E-23, 1.000000000000000000 ) ) ;
#130 = UNCERTAINTY_MEASURE_WITH_UNIT (LENGTH_MEASURE( 1.000000000000000082E-05 ), #454, 'distance_accuracy_value', 'NONE');
#131 = CONTEXT_DEPENDENT_SHAPE_REPRESENTATION ( #71, #446 ) ;
#132 = APPROVAL_DATE_TIME ( #143, #298 ) ;
#133 = DIRECTION ( 'NONE',  ( 0.000000000000000000, 0.000000000000000000, 1.000000000000000000 ) ) ;
#134 = PERSON_AND_ORGANIZATION_ROLE ( 'design_owner' ) ;
#135 = DATE_AND_TIME ( #407, #352 ) ;
#136 = CALENDAR_DATE ( 2026, 22, 6 ) ;
#137 = CC_DESIGN_PERSON_AND_ORGANIZATION_ASSIGNMENT ( #517, #379, ( #490 ) ) ;
#138 = AXIS2_PLACEMENT_3D ( 'NONE', #37, #597, #232 ) ;
#139 = SECURITY_CLASSIFICATION ( '', '', #438 ) ;
#140 = DESIGN_CONTEXT ( 'detailed design', #346, 'design' ) ;
#141 = APPROVAL_PERSON_ORGANIZATION ( #169, #260, #68 ) ;
#142 = CALENDAR_DATE ( 2026, 22, 6 ) ;
#143 = DATE_AND_TIME ( #5, #351 ) ;
#144 = APPROVAL ( #34, 'UNKNOWN' ) ;
#145 = DIRECTION ( 'NONE',  ( 1.000000000000000222, -2.818710516696922073E-22, 7.396190242257584170E-25 ) ) ;
#146 = PROPERTY_DEFINITION_REPRESENTATION ( #452, #289 ) ;
#147 = PERSON_AND_ORGANIZATION ( #18446744073709551615, #18446744073709551615 ) ;
#148 = CALENDAR_DATE ( 2026, 22, 6 ) ;
#149 = DOCUMENT_TYPE ( 'geometry' ) ;
#150 = CC_DESIGN_PERSON_AND_ORGANIZATION_ASSIGNMENT ( #216, #573, ( #73 ) ) ;
#151 = COORDINATED_UNIVERSAL_TIME_OFFSET ( 10, 0, .AHEAD. ) ;
#152 = PERSON_AND_ORGANIZATION_ROLE ( 'classification_officer' ) ;
#153 = APPLICATION_PROTOCOL_DEFINITION ( 'international standard', 'config_control_design', 1994, #346 ) ;
#154 = AXIS2_PLACEMENT_3D ( 'NONE', #492, #350, #448 ) ;
#155 = PERSON_AND_ORGANIZATION_ROLE ( 'design_owner' ) ;
#156 = PRODUCT_DEFINITION_FORMATION_WITH_SPECIFIED_SOURCE ( 'Symmetric', '', #177, .NOT_KNOWN. ) ;
#157 = LOCAL_TIME ( 18, 49, 52.00000000000000000, #80 ) ;
#158 = APPROVAL ( #226, 'UNKNOWN' ) ;
#159 = SHAPE_REPRESENTATION ( 'Body.step', ( #409 ), #209 ) ;
#160 = PROPERTY_DEFINITION_REPRESENTATION ( #261, #289 ) ;
#161 = COORDINATED_UNIVERSAL_TIME_OFFSET ( 10, 0, .AHEAD. ) ;
#162 = DATE_TIME_ROLE ( 'classification_date' ) ;
#163 = APPLICATION_PROTOCOL_DEFINITION ( 'international standard', 'config_control_design', 1994, #269 ) ;
#164 = DATE_AND_TIME ( #385, #435 ) ;
#165 = CC_DESIGN_PERSON_AND_ORGANIZATION_ASSIGNMENT ( #469, #326, ( #555 ) ) ;
#166 = OBJECT_ROLE ('mandatory',$ ) ;
#167 = COORDINATED_UNIVERSAL_TIME_OFFSET ( 10, 0, .AHEAD. ) ;
#168 = CC_DESIGN_APPROVAL ( #11, ( #265 ) ) ;
#169 = PERSON_AND_ORGANIZATION ( #18446744073709551615, #18446744073709551615 ) ;
#170 = IDENTIFICATION_ROLE ( 'external document id and location', $) ;
#171 = APPROVAL ( #436, 'UNKNOWN' ) ;
#172 = APPROVAL_PERSON_ORGANIZATION ( #6, #120, #477 ) ;
#173 = APPLICATION_CONTEXT ( 'configuration controlled 3d designs of mechanical parts and assemblies' ) ;
#174 = CARTESIAN_POINT ( 'NONE',  ( 0.000000000000000000, 0.000000000000000000, 0.000000000000000000 ) ) ;
#175 = SECURITY_CLASSIFICATION_LEVEL ( 'unclassified' ) ;
#176 = APPROVAL ( #284, 'Coincident' ) ;
#177 = PRODUCT ( 'Body.step', 'Body.step', '', ( #531 ) ) ;
#178 = APPROVAL_DATE_TIME ( #135, #158 ) ;
#179 = DATE_AND_TIME ( #587, #567 ) ;
#180 = IDENTIFICATION_ROLE ( 'external document id and location', $) ;
#181 = DATE_AND_TIME ( #121, #411 ) ;
#182 = SECURITY_CLASSIFICATION ( '', '', #384 ) ;
#183 = APPLIED_EXTERNAL_IDENTIFICATION_ASSIGNMENT ( 'Body.step.STEP' , #236, #429,( #86) ) ;
#184 = MECHANICAL_CONTEXT ( 'NONE', #81, 'mechanical' ) ;
#185 = PROPERTY_DEFINITION_REPRESENTATION ( #74, #337 ) ;
#186 = PERSON_AND_ORGANIZATION_ROLE ( 'creator' ) ;
#187 = APPLICATION_PROTOCOL_DEFINITION ( 'international standard', 'config_control_design', 1994, #262 ) ;
#188 = CC_DESIGN_PERSON_AND_ORGANIZATION_ASSIGNMENT ( #271, #470, ( #72 ) ) ;
#189 = DATE_TIME_ROLE ( 'classification_date' ) ;
#190 = APPROVAL_DATE_TIME ( #600, #176 ) ;
#191 = CARTESIAN_POINT ( 'NONE',  ( 0.000000000000000000, 0.000000000000000000, 0.000000000000000000 ) ) ;
#192 = COORDINATED_UNIVERSAL_TIME_OFFSET ( 10, 0, .AHEAD. ) ;
#193 = DATE_AND_TIME ( #546, #286 ) ;
#194 = DIRECTION ( 'NONE',  ( 1.000000000000000222, -2.818710516696922073E-22, 7.396190242257584170E-25 ) ) ;
#195 = LOCAL_TIME ( 18, 49, 52.00000000000000000, #313 ) ;
#196 = APPLICATION_CONTEXT ( 'configuration controlled 3d designs of mechanical parts and assemblies' ) ;
#197 = CC_DESIGN_SECURITY_CLASSIFICATION ( #322, ( #605 ) ) ;
#198 = DATE_TIME_ROLE ( 'creation_date' ) ;
#199 = APPROVAL_DATE_TIME ( #474, #561 ) ;
#200 = APPROVAL_ROLE ( '' ) ;
#201 = CC_DESIGN_PERSON_AND_ORGANIZATION_ASSIGNMENT ( #463, #235, ( #38 ) ) ;
#202 = PERSON_AND_ORGANIZATION ( #18446744073709551615, #18446744073709551615 ) ;
#203 = APPROVAL_STATUS ( 'not_yet_approved' ) ;
#204 = SECURITY_CLASSIFICATION_LEVEL ( 'unclassified' ) ;
#205 = PERSON_AND_ORGANIZATION ( #18446744073709551615, #18446744073709551615 ) ;
#206 = DATE_AND_TIME ( #444, #520 ) ;
#207 = UNCERTAINTY_MEASURE_WITH_UNIT (LENGTH_MEASURE( 1.000000000000000082E-05 ), #447, 'distance_accuracy_value', 'NONE');
#208 = APPROVAL_ROLE ( '' ) ;
#209 =( GEOMETRIC_REPRESENTATION_CONTEXT ( 3 ) GLOBAL_UNCERTAINTY_ASSIGNED_CONTEXT ( ( #130 ) ) GLOBAL_UNIT_ASSIGNED_CONTEXT ( ( #454, #532, #395 ) ) REPRESENTATION_CONTEXT ( 'NONE', 'WORKASPACE' ) );
#210 = PERSON_AND_ORGANIZATION ( #18446744073709551615, #18446744073709551615 ) ;
#211 = CC_DESIGN_SECURITY_CLASSIFICATION ( #182, ( #490 ) ) ;
#212 = CC_DESIGN_APPROVAL ( #101, ( #156 ) ) ;
#213 = PERSON_AND_ORGANIZATION_ROLE ( 'creator' ) ;
#214 = COORDINATED_UNIVERSAL_TIME_OFFSET ( 10, 0, .AHEAD. ) ;
#215 = CC_DESIGN_PERSON_AND_ORGANIZATION_ASSIGNMENT ( #147, #475, ( #265 ) ) ;
#216 = PERSON_AND_ORGANIZATION ( #18446744073709551615, #18446744073709551615 ) ;
#217 = PERSON_AND_ORGANIZATION_ROLE ( 'creator' ) ;
#218 = PERSON_AND_ORGANIZATION ( #18446744073709551615, #18446744073709551615 ) ;
#219 = CC_DESIGN_APPROVAL ( #541, ( #367 ) ) ;
#220 = CC_DESIGN_SECURITY_CLASSIFICATION ( #369, ( #603 ) ) ;
#221 = PRODUCT_DEFINITION ( 'General', '', #156, #556 ) ;
#222 = LOCAL_TIME ( 18, 49, 52.00000000000000000, #94 ) ;
#223 = DATE_AND_TIME ( #499, #529 ) ;
#224 = OBJECT_ROLE ('mandatory',$ ) ;
#225 = PRODUCT_RELATED_PRODUCT_CATEGORY ( 'detail', '', ( #177 ) ) ;
#226 = APPROVAL_STATUS ( 'not_yet_approved' ) ;
#227 = CALENDAR_DATE ( 2026, 22, 6 ) ;
#228 =( LENGTH_UNIT ( ) NAMED_UNIT ( * ) SI_UNIT ( .MILLI., .METRE. ) );
#229 = DATE_AND_TIME ( #76, #577 ) ;
#230 = PERSON_AND_ORGANIZATION ( #18446744073709551615, #18446744073709551615 ) ;
#231 = LOCAL_TIME ( 18, 49, 52.00000000000000000, #192 ) ;
#232 = DIRECTION ( 'NONE',  ( 1.000000000000000222, -2.818710516696922073E-22, 7.396190242257584170E-25 ) ) ;
#233 = CC_DESIGN_PERSON_AND_ORGANIZATION_ASSIGNMENT ( #329, #60, ( #490 ) ) ;
#234 = PROPERTY_DEFINITION_REPRESENTATION ( #402, #102 ) ;
#235 = PERSON_AND_ORGANIZATION_ROLE ( 'design_supplier' ) ;
#236 = IDENTIFICATION_ROLE ( 'external document id and location', $) ;
#237 = CALENDAR_DATE ( 2026, 22, 6 ) ;
#238 = APPROVAL ( #374, 'Coincident' ) ;
#239 = PERSON_AND_ORGANIZATION_ROLE ( 'creator' ) ;
#240 =( GEOMETRIC_REPRESENTATION_CONTEXT ( 3 ) GLOBAL_UNCERTAINTY_ASSIGNED_CONTEXT ( ( #207 ) ) GLOBAL_UNIT_ASSIGNED_CONTEXT ( ( #447, #537, #494 ) ) REPRESENTATION_CONTEXT ( 'NONE', 'WORKASPACE' ) );
#241 = LOCAL_TIME ( 18, 49, 52.00000000000000000, #43 ) ;
#242 = DOCUMENT_TYPE ( 'geometry' ) ;
#243 = MECHANICAL_CONTEXT ( 'NONE', #394, 'mechanical' ) ;
#244 = APPLICATION_CONTEXT ( 'configuration controlled 3d designs of mechanical parts and assemblies' ) ;
#245 = SHAPE_DEFINITION_REPRESENTATION ( #538, #64 ) ;
#246 = PERSON ( 'NAUO-PER30', 'UNSPECIFIED', 'UNSPECIFIED', ('UNSPECIFIED'), ('UNSPECIFIED'), ('UNSPECIFIED') ) ;
#247 = PERSON_AND_ORGANIZATION ( #18446744073709551615, #18446744073709551615 ) ;
#248 = DATE_AND_TIME ( #391, #461 ) ;
#249 = COORDINATED_UNIVERSAL_TIME_OFFSET ( 10, 0, .AHEAD. ) ;
#250 = SECURITY_CLASSIFICATION_LEVEL ( 'unclassified' ) ;
#251 = APPROVAL_PERSON_ORGANIZATION ( #364, #298, #200 ) ;
#252 = CC_DESIGN_PERSON_AND_ORGANIZATION_ASSIGNMENT ( #549, #239, ( #397 ) ) ;
#253 = DATE_TIME_ROLE ( 'classification_date' ) ;
#254 = PERSON_AND_ORGANIZATION ( #18446744073709551615, #18446744073709551615 ) ;
#255 = DATE_TIME_ROLE ( 'creation_date' ) ;
#256 = CC_DESIGN_PERSON_AND_ORGANIZATION_ASSIGNMENT ( #210, #217, ( #221 ) ) ;
#257 = SHAPE_DEFINITION_REPRESENTATION ( #263, #102 ) ;
#258 = APPROVAL_PERSON_ORGANIZATION ( #276, #495, #509 ) ;
#259 = ORGANIZATION ( 'NAUO-ORG30', 'UNSPECIFIED', 'UNSPECIFIED' ) ;
#260 = APPROVAL ( #347, 'Coincident' ) ;
#261 = PROPERTY_DEFINITION ('external definition','', #310 ) ;
#262 = APPLICATION_CONTEXT ( 'configuration controlled 3d designs of mechanical parts and assemblies' ) ;
#263 = PRODUCT_DEFINITION_SHAPE ( 'NONE', 'NONE',  #555 ) ;
#264 = CC_DESIGN_PERSON_AND_ORGANIZATION_ASSIGNMENT ( #460, #134, ( #354 ) ) ;
#265 = PRODUCT_DEFINITION_FORMATION_WITH_SPECIFIED_SOURCE ( 'Symmetric', '', #399, .NOT_KNOWN. ) ;
#266 = CONTEXT_DEPENDENT_SHAPE_REPRESENTATION ( #28, #540 ) ;
#267 = APPLIED_EXTERNAL_IDENTIFICATION_ASSIGNMENT ( 'PinK.step.STEP' , #315, #116,( #275) ) ;
#268 = CALENDAR_DATE ( 2026, 22, 6 ) ;
#269 = APPLICATION_CONTEXT ( 'configuration controlled 3d designs of mechanical parts and assemblies' ) ;
#270 = COORDINATED_UNIVERSAL_TIME_OFFSET ( 10, 0, .AHEAD. ) ;
#271 = PERSON_AND_ORGANIZATION ( #18446744073709551615, #18446744073709551615 ) ;
#272 = CARTESIAN_POINT ( 'NONE',  ( 0.000000000000000000, 0.000000000000000000, 0.000000000000000000 ) ) ;
#273 = MECHANICAL_CONTEXT ( 'NONE', #244, 'mechanical' ) ;
#274 = AXIS2_PLACEMENT_3D ( 'NONE', #174, #500, #82 ) ;
#275 = DOCUMENT_FILE ( 'PinK.step.STEP' , '', '', #7, '' ,$ ) ;
#276 = PERSON_AND_ORGANIZATION ( #18446744073709551615, #18446744073709551615 ) ;
#277 = APPROVAL_PERSON_ORGANIZATION ( #576, #451, #415 ) ;
#278 =( NAMED_UNIT ( * ) PLANE_ANGLE_UNIT ( ) SI_UNIT ( $, .RADIAN. ) );
#279 = ITEM_DEFINED_TRANSFORMATION ( 'NONE', 'NONE', #138,  #274 ) ;
#280 = PERSON_AND_ORGANIZATION_ROLE ( 'creator' ) ;
#281 = APPROVAL ( #439, 'Coincident' ) ;
#282 = APPROVAL_DATE_TIME ( #323, #451 ) ;
#283 = DATE_TIME_ROLE ( 'classification_date' ) ;
#284 = APPROVAL_STATUS ( 'not_yet_approved' ) ;
#285 = APPROVAL_DATE_TIME ( #84, #495 ) ;
#286 = LOCAL_TIME ( 18, 49, 52.00000000000000000, #476 ) ;
#287 = COORDINATED_UNIVERSAL_TIME_OFFSET ( 10, 0, .AHEAD. ) ;
#288 = APPROVAL_ROLE ( '' ) ;
#289 = SHAPE_REPRESENTATION ( 'PinA.step', ( #300 ), #318 ) ;
#290 = CC_DESIGN_DATE_AND_TIME_ASSIGNMENT ( #505, #458, ( #397 ) ) ;
#291 = DATE_AND_TIME ( #523, #378 ) ;
#292 = DATE_AND_TIME ( #148, #27 ) ;
#293 = APPROVAL_DATE_TIME ( #111, #171 ) ;
#294 = CC_DESIGN_SECURITY_CLASSIFICATION ( #367, ( #38 ) ) ;
#295 = PERSON_AND_ORGANIZATION_ROLE ( 'creator' ) ;
#296 = APPROVAL_STATUS ( 'not_yet_approved' ) ;
#297 = PERSON_AND_ORGANIZATION ( #18446744073709551615, #18446744073709551615 ) ;
#298 = APPROVAL ( #47, 'Coincident' ) ;
#299 = DATE_AND_TIME ( #574, #433 ) ;
#300 = AXIS2_PLACEMENT_3D ( 'NONE', #272, #133, #317 ) ;
#301 = CC_DESIGN_APPROVAL ( #357, ( #221 ) ) ;
#302 = SECURITY_CLASSIFICATION ( '', '', #314 ) ;
#303 = PRODUCT_DEFINITION_SHAPE ( 'NONE', 'NONE',  #571 ) ;
#304 = DIRECTION ( 'NONE',  ( 1.000000000000000000, 0.000000000000000000, 0.000000000000000000 ) ) ;
#305 = PROPERTY_DEFINITION ('external definition','', #594 ) ;
#306 = APPROVAL_STATUS ( 'not_yet_approved' ) ;
#307 = CC_DESIGN_PERSON_AND_ORGANIZATION_ASSIGNMENT ( #355, #312, ( #302 ) ) ;
#308 = CC_DESIGN_APPROVAL ( #79, ( #139 ) ) ;
#309 = CC_DESIGN_APPROVAL ( #281, ( #571 ) ) ;
#310 = DOCUMENT_FILE ( 'PinA.step.STEP' , '', '', #242, '' ,$ ) ;
#311 = PRODUCT_RELATED_PRODUCT_CATEGORY ( 'detail', '', ( #354 ) ) ;
#312 = PERSON_AND_ORGANIZATION_ROLE ( 'classification_officer' ) ;
#313 = COORDINATED_UNIVERSAL_TIME_OFFSET ( 10, 0, .AHEAD. ) ;
#314 = SECURITY_CLASSIFICATION_LEVEL ( 'unclassified' ) ;
#315 = IDENTIFICATION_ROLE ( 'external document id and location', $) ;
#316 = APPROVAL_ROLE ( '' ) ;
#317 = DIRECTION ( 'NONE',  ( 1.000000000000000000, 0.000000000000000000, 0.000000000000000000 ) ) ;
#318 =( GEOMETRIC_REPRESENTATION_CONTEXT ( 3 ) GLOBAL_UNCERTAINTY_ASSIGNED_CONTEXT ( ( #465 ) ) GLOBAL_UNIT_ASSIGNED_CONTEXT ( ( #542, #422, #459 ) ) REPRESENTATION_CONTEXT ( 'NONE', 'WORKASPACE' ) );
#319 = SECURITY_CLASSIFICATION_LEVEL ( 'unclassified' ) ;
#320 = PERSON_AND_ORGANIZATION ( #18446744073709551615, #18446744073709551615 ) ;
#321 = LOCAL_TIME ( 18, 49, 52.00000000000000000, #55 ) ;
#322 = SECURITY_CLASSIFICATION ( '', '', #319 ) ;
#323 = DATE_AND_TIME ( #511, #231 ) ;
#324 = COORDINATED_UNIVERSAL_TIME_OFFSET ( 10, 0, .AHEAD. ) ;
#325 =( LENGTH_UNIT ( ) NAMED_UNIT ( * ) SI_UNIT ( .MILLI., .METRE. ) );
#326 = PERSON_AND_ORGANIZATION_ROLE ( 'creator' ) ;
#327 = PERSON_AND_ORGANIZATION ( #349, #380 ) ;
#328 = APPROVAL_STATUS ( 'not_yet_approved' ) ;
#329 = PERSON_AND_ORGANIZATION ( #18446744073709551615, #18446744073709551615 ) ;
#330 = CALENDAR_DATE ( 2026, 22, 6 ) ;
#331 = CC_DESIGN_SECURITY_CLASSIFICATION ( #449, ( #265 ) ) ;
#332 = PERSON_AND_ORGANIZATION_ROLE ( 'classification_officer' ) ;
#333 = APPROVAL_STATUS ( 'not_yet_approved' ) ;
#334 = ORGANIZATION ( 'NAUO-ORG31', 'UNSPECIFIED', 'UNSPECIFIED' ) ;
#335 = APPROVAL_STATUS ( 'not_yet_approved' ) ;
#336 = CC_DESIGN_PERSON_AND_ORGANIZATION_ASSIGNMENT ( #434, #373, ( #399 ) ) ;
#337 = SHAPE_REPRESENTATION ( 'PinKIdent.step', ( #274 ), #566 ) ;
#338 = APPROVAL_ROLE ( '' ) ;
#339 = APPROVAL_DATE_TIME ( #299, #357 ) ;
#340 = DATE_AND_TIME ( #430, #321 ) ;
#341 = COORDINATED_UNIVERSAL_TIME_OFFSET ( 10, 0, .AHEAD. ) ;
#342 = AXIS2_PLACEMENT_3D ( 'NONE', #510, #503, #145 ) ;
#343 = CC_DESIGN_DATE_AND_TIME_ASSIGNMENT ( #193, #87, ( #571 ) ) ;
#344 = DATE_AND_TIME ( #54, #50 ) ;
#345 = LOCAL_TIME ( 18, 49, 52.00000000000000000, #393 ) ;
#346 = APPLICATION_CONTEXT ( 'configuration controlled 3d designs of mechanical parts and assemblies' ) ;
#347 = APPROVAL_STATUS ( 'not_yet_approved' ) ;
#348 = PERSON_AND_ORGANIZATION ( #18446744073709551615, #18446744073709551615 ) ;
#349 = PERSON ( 'NAUO-PER32', 'UNSPECIFIED', 'UNSPECIFIED', ('UNSPECIFIED'), ('UNSPECIFIED'), ('UNSPECIFIED') ) ;
#350 = DIRECTION ( 'NONE',  ( 0.000000000000000000, 0.000000000000000000, 1.000000000000000000 ) ) ;
#351 = LOCAL_TIME ( 18, 49, 52.00000000000000000, #324 ) ;
#352 = LOCAL_TIME ( 18, 49, 52.00000000000000000, #504 ) ;
#353 = PRODUCT_RELATED_PRODUCT_CATEGORY ( 'detail', '', ( #399 ) ) ;
#354 = PRODUCT ( 'PinK.step', 'PinK.step', '', ( #273 ) ) ;
#355 = PERSON_AND_ORGANIZATION ( #596, #334 ) ;
#356 = PROPERTY_DEFINITION_REPRESENTATION ( #305, #337 ) ;
#357 = APPROVAL ( #440, 'Coincident' ) ;
#358 = CC_DESIGN_APPROVAL ( #176, ( #38 ) ) ;
#359 = ORGANIZATION ( 'NAUO-ORG29', 'UNSPECIFIED', 'UNSPECIFIED' ) ;
#360 = PROPERTY_DEFINITION_REPRESENTATION ( #24, #102 ) ;
#361 =( REPRESENTATION_RELATIONSHIP ('NONE','NONE', #64, #159 ) REPRESENTATION_RELATIONSHIP_WITH_TRANSFORMATION ( #107 )SHAPE_REPRESENTATION_RELATIONSHIP( ) );
#362 = CALENDAR_DATE ( 2026, 22, 6 ) ;
#363 = ITEM_DEFINED_TRANSFORMATION ( 'NONE', 'NONE', #342,  #154 ) ;
#364 = PERSON_AND_ORGANIZATION ( #18446744073709551615, #18446744073709551615 ) ;
#365 = DIRECTION ( 'NONE',  ( 7.396190242257584170E-25, 3.970466940254532839E-23, 1.000000000000000000 ) ) ;
#366 = COORDINATED_UNIVERSAL_TIME_OFFSET ( 10, 0, .AHEAD. ) ;
#367 = SECURITY_CLASSIFICATION ( '', '', #467 ) ;
#368 = PRODUCT_RELATED_PRODUCT_CATEGORY ( 'detail', '', ( #72 ) ) ;
#369 = SECURITY_CLASSIFICATION ( '', '', #175 ) ;
#370 = PERSON_AND_ORGANIZATION ( #18446744073709551615, #18446744073709551615 ) ;
#371 = APPLICATION_CONTEXT ( 'configuration controlled 3d designs of mechanical parts and assemblies' ) ;
#372 = APPROVAL_DATE_TIME ( #513, #11 ) ;
#373 = PERSON_AND_ORGANIZATION_ROLE ( 'design_owner' ) ;
#374 = APPROVAL_STATUS ( 'not_yet_approved' ) ;
#375 = DATE_TIME_ROLE ( 'classification_date' ) ;
#376 = APPROVAL_DATE_TIME ( #291, #534 ) ;
#377 = APPROVAL_DATE_TIME ( #206, #260 ) ;
#378 = LOCAL_TIME ( 18, 49, 52.00000000000000000, #161 ) ;
#379 = PERSON_AND_ORGANIZATION_ROLE ( 'design_supplier' ) ;
#380 = ORGANIZATION ( 'NAUO-ORG32', 'UNSPECIFIED', 'UNSPECIFIED' ) ;
#381 = PERSON_AND_ORGANIZATION_ROLE ( 'creator' ) ;
#382 = DESIGN_CONTEXT ( 'detailed design', #262, 'design' ) ;
#383 = CC_DESIGN_DATE_AND_TIME_ASSIGNMENT ( #570, #162, ( #593 ) ) ;
#384 = SECURITY_CLASSIFICATION_LEVEL ( 'unclassified' ) ;
#385 = CALENDAR_DATE ( 2026, 22, 6 ) ;
#386 = PRODUCT ( 'TPSMA6L48A.step', 'TPSMA6L48A.step', '', ( #184 ) ) ;
#387 = CC_DESIGN_DATE_AND_TIME_ASSIGNMENT ( #521, #253, ( #182 ) ) ;
#388 = DATE_AND_TIME ( #488, #49 ) ;
#389 = AXIS2_PLACEMENT_3D ( 'NONE', #88, #365, #414 ) ;
#390 = APPROVAL_PERSON_ORGANIZATION ( #370, #238, #562 ) ;
#391 = CALENDAR_DATE ( 2026, 22, 6 ) ;
#392 = APPROVAL_PERSON_ORGANIZATION ( #539, #171, #61 ) ;
#393 = COORDINATED_UNIVERSAL_TIME_OFFSET ( 10, 0, .AHEAD. ) ;
#394 = APPLICATION_CONTEXT ( 'configuration controlled 3d designs of mechanical parts and assemblies' ) ;
#395 =( NAMED_UNIT ( * ) SI_UNIT ( $, .STERADIAN. ) SOLID_ANGLE_UNIT ( ) );
#396 = CARTESIAN_POINT ( 'NONE',  ( 0.000000000000000000, 0.000000000000000000, 0.000000000000000000 ) ) ;
#397 = PRODUCT_DEFINITION ( 'General', '', #38, #550 ) ;
#398 = COORDINATED_UNIVERSAL_TIME_OFFSET ( 10, 0, .AHEAD. ) ;
#399 = PRODUCT ( 'PinA.step', 'PinA.step', '', ( #563 ) ) ;
#400 = APPROVAL_PERSON_ORGANIZATION ( #205, #534, #288 ) ;
#401 = CC_DESIGN_SECURITY_CLASSIFICATION ( #302, ( #604 ) ) ;
#402 = PROPERTY_DEFINITION ('external definition','', #275 ) ;
#403 = APPROVAL_DATE_TIME ( #229, #144 ) ;
#404 = PROPERTY_DEFINITION_REPRESENTATION ( #493, #159 ) ;
#405 = EXTERNAL_SOURCE (IDENTIFIER('') ) ;
#406 = APPROVAL ( #9, 'Coincident' ) ;
#407 = CALENDAR_DATE ( 2026, 22, 6 ) ;
#408 = CC_DESIGN_DATE_AND_TIME_ASSIGNMENT ( #164, #83, ( #113 ) ) ;
#409 = AXIS2_PLACEMENT_3D ( 'NONE', #396, #580, #304 ) ;
#410 = CC_DESIGN_SECURITY_CLASSIFICATION ( #139, ( #498 ) ) ;
#411 = LOCAL_TIME ( 18, 49, 52.00000000000000000, #270 ) ;
#412 = APPLIED_DOCUMENT_REFERENCE ( #86,'',( #221) ) ;
#413 = PERSON_AND_ORGANIZATION_ROLE ( 'classification_officer' ) ;
#414 = DIRECTION ( 'NONE',  ( 1.000000000000000222, -2.818710516696922073E-22, 7.396190242257584170E-25 ) ) ;
#415 = APPROVAL_ROLE ( '' ) ;
#416 = COORDINATED_UNIVERSAL_TIME_OFFSET ( 10, 0, .AHEAD. ) ;
#417 = PERSON_AND_ORGANIZATION ( #18446744073709551615, #18446744073709551615 ) ;
#418 = APPLICATION_PROTOCOL_DEFINITION ( 'international standard', 'config_control_design', 1994, #81 ) ;
#419 = APPLICATION_PROTOCOL_DEFINITION ( 'international standard', 'config_control_design', 1994, #244 ) ;
#420 = CC_DESIGN_PERSON_AND_ORGANIZATION_ASSIGNMENT ( #230, #413, ( #367 ) ) ;
#421 = SHAPE_DEFINITION_REPRESENTATION ( #303, #289 ) ;
#422 =( NAMED_UNIT ( * ) PLANE_ANGLE_UNIT ( ) SI_UNIT ( $, .RADIAN. ) );
#423 = CALENDAR_DATE ( 2026, 22, 6 ) ;
#424 = CALENDAR_DATE ( 2026, 22, 6 ) ;
#425 = LOCAL_TIME ( 18, 49, 52.00000000000000000, #428 ) ;
#426 = PERSON_AND_ORGANIZATION_ROLE ( 'design_owner' ) ;
#427 = DATE_TIME_ROLE ( 'classification_date' ) ;
#428 = COORDINATED_UNIVERSAL_TIME_OFFSET ( 10, 0, .AHEAD. ) ;
#429 = EXTERNAL_SOURCE (IDENTIFIER('') ) ;
#430 = CALENDAR_DATE ( 2026, 22, 6 ) ;
#431 = SECURITY_CLASSIFICATION_LEVEL ( 'unclassified' ) ;
#432 = PERSON_AND_ORGANIZATION ( #18446744073709551615, #18446744073709551615 ) ;
#433 = LOCAL_TIME ( 18, 49, 52.00000000000000000, #66 ) ;
#434 = PERSON_AND_ORGANIZATION ( #18446744073709551615, #18446744073709551615 ) ;
#435 = LOCAL_TIME ( 18, 49, 52.00000000000000000, #214 ) ;
#436 = APPROVAL_STATUS ( 'not_yet_approved' ) ;
#437 = DESIGN_CONTEXT ( 'detailed design', #269, 'design' ) ;
#438 = SECURITY_CLASSIFICATION_LEVEL ( 'unclassified' ) ;
#439 = APPROVAL_STATUS ( 'not_yet_approved' ) ;
#440 = APPROVAL_STATUS ( 'not_yet_approved' ) ;
#441 = PERSON_AND_ORGANIZATION ( #18446744073709551615, #18446744073709551615 ) ;
#442 = AXIS2_PLACEMENT_3D ( 'NONE', #497, #118, #23 ) ;
#443 = APPROVAL_PERSON_ORGANIZATION ( #432, #541, #57 ) ;
#444 = CALENDAR_DATE ( 2026, 22, 6 ) ;
#445 = CC_DESIGN_SECURITY_CLASSIFICATION ( #113, ( #602 ) ) ;
#446 = PRODUCT_DEFINITION_SHAPE ( 'NONE', 'NONE',  #603 ) ;
#447 =( LENGTH_UNIT ( ) NAMED_UNIT ( * ) SI_UNIT ( .MILLI., .METRE. ) );
#448 = DIRECTION ( 'NONE',  ( 1.000000000000000000, 0.000000000000000000, 0.000000000000000000 ) ) ;
#449 = SECURITY_CLASSIFICATION ( '', '', #204 ) ;
#450 = CC_DESIGN_APPROVAL ( #171, ( #113 ) ) ;
#451 = APPROVAL ( #203, 'Coincident' ) ;
#452 = PROPERTY_DEFINITION ('document property','', #310 ) ;
#453 = ROLE_ASSOCIATION ( #166, #90 ) ;
#454 =( LENGTH_UNIT ( ) NAMED_UNIT ( * ) SI_UNIT ( .MILLI., .METRE. ) );
#455 = CC_DESIGN_DATE_AND_TIME_ASSIGNMENT ( #456, #283, ( #322 ) ) ;
#456 = DATE_AND_TIME ( #268, #157 ) ;
#457 = OBJECT_ROLE ('mandatory',$ ) ;
#458 = DATE_TIME_ROLE ( 'creation_date' ) ;
#459 =( NAMED_UNIT ( * ) SI_UNIT ( $, .STERADIAN. ) SOLID_ANGLE_UNIT ( ) );
#460 = PERSON_AND_ORGANIZATION ( #18446744073709551615, #18446744073709551615 ) ;
#461 = LOCAL_TIME ( 18, 49, 52.00000000000000000, #480 ) ;
#462 = CC_DESIGN_APPROVAL ( #260, ( #593 ) ) ;
#463 = PERSON_AND_ORGANIZATION ( #18446744073709551615, #18446744073709551615 ) ;
#464 = CC_DESIGN_PERSON_AND_ORGANIZATION_ASSIGNMENT ( #417, #128, ( #449 ) ) ;
#465 = UNCERTAINTY_MEASURE_WITH_UNIT (LENGTH_MEASURE( 1.000000000000000082E-05 ), #542, 'distance_accuracy_value', 'NONE');
#466 = APPROVAL_DATE_TIME ( #85, #541 ) ;
#467 = SECURITY_CLASSIFICATION_LEVEL ( 'unclassified' ) ;
#468 = CC_DESIGN_PERSON_AND_ORGANIZATION_ASSIGNMENT ( #114, #381, ( #156 ) ) ;
#469 = PERSON_AND_ORGANIZATION ( #18446744073709551615, #18446744073709551615 ) ;
#470 = PERSON_AND_ORGANIZATION_ROLE ( 'design_owner' ) ;
#471 = OBJECT_ROLE ('mandatory',$ ) ;
#472 = LOCAL_TIME ( 18, 49, 52.00000000000000000, #91 ) ;
#473 = CC_DESIGN_DATE_AND_TIME_ASSIGNMENT ( #558, #427, ( #449 ) ) ;
#474 = DATE_AND_TIME ( #227, #70 ) ;
#475 = PERSON_AND_ORGANIZATION_ROLE ( 'design_supplier' ) ;
#476 = COORDINATED_UNIVERSAL_TIME_OFFSET ( 10, 0, .AHEAD. ) ;
#477 = APPROVAL_ROLE ( '' ) ;
#478 = PERSON_AND_ORGANIZATION ( #18446744073709551615, #18446744073709551615 ) ;
#479 = DATE_AND_TIME ( #14, #425 ) ;
#480 = COORDINATED_UNIVERSAL_TIME_OFFSET ( 10, 0, .AHEAD. ) ;
#481 = PERSON_AND_ORGANIZATION ( #18446744073709551615, #18446744073709551615 ) ;
#482 = APPLICATION_PROTOCOL_DEFINITION ( 'international standard', 'config_control_design', 1994, #173 ) ;
#483 = APPROVAL_PERSON_ORGANIZATION ( #481, #281, #338 ) ;
#484 = APPROVAL_DATE_TIME ( #340, #120 ) ;
#485 = COORDINATED_UNIVERSAL_TIME_OFFSET ( 10, 0, .AHEAD. ) ;
#486 = APPROVAL_DATE_TIME ( #344, #79 ) ;
#487 = DATE_AND_TIME ( #330, #12 ) ;
#488 = CALENDAR_DATE ( 2026, 22, 6 ) ;
#489 = CC_DESIGN_PERSON_AND_ORGANIZATION_ASSIGNMENT ( #247, #213, ( #571 ) ) ;
#490 = PRODUCT_DEFINITION_FORMATION_WITH_SPECIFIED_SOURCE ( 'Symmetric', '', #386, .NOT_KNOWN. ) ;
#491 = APPLIED_EXTERNAL_IDENTIFICATION_ASSIGNMENT ( 'PinA.step.STEP' , #170, #559,( #310) ) ;
#492 = CARTESIAN_POINT ( 'NONE',  ( 0.000000000000000000, 0.000000000000000000, 0.000000000000000000 ) ) ;
#493 = PROPERTY_DEFINITION ('document property','', #86 ) ;
#494 =( NAMED_UNIT ( * ) SI_UNIT ( $, .STERADIAN. ) SOLID_ANGLE_UNIT ( ) );
#495 = APPROVAL ( #42, 'Coincident' ) ;
#496 = PERSON_AND_ORGANIZATION_ROLE ( 'classification_officer' ) ;
#497 = CARTESIAN_POINT ( 'NONE',  ( 0.000000000000000000, 0.000000000000000000, 0.000000000000000000 ) ) ;
#498 = PRODUCT_DEFINITION_FORMATION_WITH_SPECIFIED_SOURCE ( 'Symmetric', '', #354, .NOT_KNOWN. ) ;
#499 = CALENDAR_DATE ( 2026, 22, 6 ) ;
#500 = DIRECTION ( 'NONE',  ( 0.000000000000000000, 0.000000000000000000, 1.000000000000000000 ) ) ;
#501 = ROLE_ASSOCIATION ( #457, #545 ) ;
#502 = PERSON_AND_ORGANIZATION ( #18446744073709551615, #18446744073709551615 ) ;
#503 = DIRECTION ( 'NONE',  ( 7.396190242257584170E-25, 3.970466940254532839E-23, 1.000000000000000000 ) ) ;
#504 = COORDINATED_UNIVERSAL_TIME_OFFSET ( 10, 0, .AHEAD. ) ;
#505 = DATE_AND_TIME ( #362, #222 ) ;
#506 = CC_DESIGN_PERSON_AND_ORGANIZATION_ASSIGNMENT ( #554, #186, ( #265 ) ) ;
#507 = APPROVAL_PERSON_ORGANIZATION ( #502, #11, #51 ) ;
#508 = LOCAL_TIME ( 18, 49, 52.00000000000000000, #341 ) ;
#509 = APPROVAL_ROLE ( '' ) ;
#510 = CARTESIAN_POINT ( 'NONE',  ( -2.600000000000000977, -0.7499999999999997780, 0.000000000000000000 ) ) ;
#511 = CALENDAR_DATE ( 2026, 22, 6 ) ;
#512 = ROLE_ASSOCIATION ( #224, #557 ) ;
#513 = DATE_AND_TIME ( #424, #591 ) ;
#514 =( NAMED_UNIT ( * ) SI_UNIT ( $, .STERADIAN. ) SOLID_ANGLE_UNIT ( ) );
#515 = CC_DESIGN_DATE_AND_TIME_ASSIGNMENT ( #179, #590, ( #139 ) ) ;
#516 = CALENDAR_DATE ( 2026, 22, 6 ) ;
#517 = PERSON_AND_ORGANIZATION ( #18446744073709551615, #18446744073709551615 ) ;
#518 = UNCERTAINTY_MEASURE_WITH_UNIT (LENGTH_MEASURE( 1.000000000000000082E-05 ), #325, 'distance_accuracy_value', 'NONE');
#519 = APPROVAL_PERSON_ORGANIZATION ( #478, #79, #10 ) ;
#520 = LOCAL_TIME ( 18, 49, 52.00000000000000000, #522 ) ;
#521 = DATE_AND_TIME ( #97, #21 ) ;
#522 = COORDINATED_UNIVERSAL_TIME_OFFSET ( 10, 0, .AHEAD. ) ;
#523 = CALENDAR_DATE ( 2026, 22, 6 ) ;
#524 = SHAPE_DEFINITION_REPRESENTATION ( #75, #159 ) ;
#525 = CC_DESIGN_DATE_AND_TIME_ASSIGNMENT ( #526, #109, ( #73 ) ) ;
#526 = DATE_AND_TIME ( #3, #58 ) ;
#527 = CALENDAR_DATE ( 2026, 22, 6 ) ;
#528 = APPROVAL_PERSON_ORGANIZATION ( #35, #176, #316 ) ;
#529 = LOCAL_TIME ( 18, 49, 52.00000000000000000, #26 ) ;
#530 = APPROVAL_ROLE ( '' ) ;
#531 = MECHANICAL_CONTEXT ( 'NONE', #173, 'mechanical' ) ;
#532 =( NAMED_UNIT ( * ) PLANE_ANGLE_UNIT ( ) SI_UNIT ( $, .RADIAN. ) );
#533 = PERSON_AND_ORGANIZATION_ROLE ( 'design_supplier' ) ;
#534 = APPROVAL ( #569, 'Coincident' ) ;
#535 = CC_DESIGN_PERSON_AND_ORGANIZATION_ASSIGNMENT ( #327, #152, ( #322 ) ) ;
#536 = CC_DESIGN_APPROVAL ( #495, ( #449 ) ) ;
#537 =( NAMED_UNIT ( * ) PLANE_ANGLE_UNIT ( ) SI_UNIT ( $, .RADIAN. ) );
#538 = PRODUCT_DEFINITION_SHAPE ( 'NONE', 'NONE',  #73 ) ;
#539 = PERSON_AND_ORGANIZATION ( #585, #359 ) ;
#540 = PRODUCT_DEFINITION_SHAPE ( 'NONE', 'NONE',  #604 ) ;
#541 = APPROVAL ( #296, 'Coincident' ) ;
#542 =( LENGTH_UNIT ( ) NAMED_UNIT ( * ) SI_UNIT ( .MILLI., .METRE. ) );
#543 = CC_DESIGN_APPROVAL ( #534, ( #182 ) ) ;
#544 = APPROVAL_PERSON_ORGANIZATION ( #41, #158, #123 ) ;
#545 = APPLIED_DOCUMENT_REFERENCE ( #594,'',( #397) ) ;
#546 = CALENDAR_DATE ( 2026, 22, 6 ) ;
#547 = PRODUCT_RELATED_PRODUCT_CATEGORY ( 'detail', '', ( #386 ) ) ;
#548 = DATE_TIME_ROLE ( 'classification_date' ) ;
#549 = PERSON_AND_ORGANIZATION ( #18446744073709551615, #18446744073709551615 ) ;
#550 = DESIGN_CONTEXT ( 'detailed design', #371, 'design' ) ;
#551 = APPLICATION_PROTOCOL_DEFINITION ( 'international standard', 'config_control_design', 1994, #371 ) ;
#552 = LOCAL_TIME ( 18, 49, 52.00000000000000000, #366 ) ;
#553 = APPROVAL_PERSON_ORGANIZATION ( #327, #561, #4 ) ;
#554 = PERSON_AND_ORGANIZATION ( #18446744073709551615, #18446744073709551615 ) ;
#555 = PRODUCT_DEFINITION ( 'General', '', #498, #382 ) ;
#556 = DESIGN_CONTEXT ( 'detailed design', #196, 'design' ) ;
#557 = APPLIED_DOCUMENT_REFERENCE ( #310,'',( #571) ) ;
#558 = DATE_AND_TIME ( #516, #195 ) ;
#559 = EXTERNAL_SOURCE (IDENTIFIER('') ) ;
#560 = PERSON_AND_ORGANIZATION ( #18446744073709551615, #18446744073709551615 ) ;
#561 = APPROVAL ( #306, 'UNKNOWN' ) ;
#562 = APPROVAL_ROLE ( '' ) ;
#563 = MECHANICAL_CONTEXT ( 'NONE', #588, 'mechanical' ) ;
#564 = COORDINATED_UNIVERSAL_TIME_OFFSET ( 10, 0, .AHEAD. ) ;
#565 = UNCERTAINTY_MEASURE_WITH_UNIT (LENGTH_MEASURE( 1.000000000000000082E-05 ), #228, 'distance_accuracy_value', 'NONE');
#566 =( GEOMETRIC_REPRESENTATION_CONTEXT ( 3 ) GLOBAL_UNCERTAINTY_ASSIGNED_CONTEXT ( ( #565 ) ) GLOBAL_UNIT_ASSIGNED_CONTEXT ( ( #228, #125, #44 ) ) REPRESENTATION_CONTEXT ( 'NONE', 'WORKASPACE' ) );
#567 = LOCAL_TIME ( 18, 49, 52.00000000000000000, #398 ) ;
#568 = CC_DESIGN_SECURITY_CLASSIFICATION ( #593, ( #156 ) ) ;
#569 = APPROVAL_STATUS ( 'not_yet_approved' ) ;
#570 = DATE_AND_TIME ( #579, #39 ) ;
#571 = PRODUCT_DEFINITION ( 'General', '', #265, #140 ) ;
#572 = PRODUCT_DEFINITION_SHAPE ( 'NONE', 'NONE',  #602 ) ;
#573 = PERSON_AND_ORGANIZATION_ROLE ( 'creator' ) ;
#574 = CALENDAR_DATE ( 2026, 22, 6 ) ;
#575 = PERSON_AND_ORGANIZATION_ROLE ( 'design_supplier' ) ;
#576 = PERSON_AND_ORGANIZATION ( #18446744073709551615, #18446744073709551615 ) ;
#577 = LOCAL_TIME ( 18, 49, 52.00000000000000000, #416 ) ;
#578 = CC_DESIGN_PERSON_AND_ORGANIZATION_ASSIGNMENT ( #297, #155, ( #177 ) ) ;
#579 = CALENDAR_DATE ( 2026, 22, 6 ) ;
#580 = DIRECTION ( 'NONE',  ( 0.000000000000000000, 0.000000000000000000, 1.000000000000000000 ) ) ;
#581 = CC_DESIGN_APPROVAL ( #451, ( #555 ) ) ;
#582 = PRODUCT_DEFINITION_SHAPE ( 'NONE', 'NONE',  #605 ) ;
#583 = CC_DESIGN_PERSON_AND_ORGANIZATION_ASSIGNMENT ( #202, #103, ( #182 ) ) ;
#584 = ROLE_ASSOCIATION ( #471, #412 ) ;
#585 = PERSON ( 'NAUO-PER29', 'UNSPECIFIED', 'UNSPECIFIED', ('UNSPECIFIED'), ('UNSPECIFIED'), ('UNSPECIFIED') ) ;
#586 = PERSON_AND_ORGANIZATION_ROLE ( 'classification_officer' ) ;
#587 = CALENDAR_DATE ( 2026, 22, 6 ) ;
#588 = APPLICATION_CONTEXT ( 'configuration controlled 3d designs of mechanical parts and assemblies' ) ;
#589 = CONTEXT_DEPENDENT_SHAPE_REPRESENTATION ( #361, #572 ) ;
#590 = DATE_TIME_ROLE ( 'classification_date' ) ;
#591 = LOCAL_TIME ( 18, 49, 52.00000000000000000, #2 ) ;
#592 = CC_DESIGN_PERSON_AND_ORGANIZATION_ASSIGNMENT ( #100, #426, ( #386 ) ) ;
#593 = SECURITY_CLASSIFICATION ( '', '', #431 ) ;
#594 = DOCUMENT_FILE ( 'PinKIdent.step.STEP' , '', '', #63, '' ,$ ) ;
#595 = APPLICATION_PROTOCOL_DEFINITION ( 'international standard', 'config_control_design', 1994, #394 ) ;
#596 = PERSON ( 'NAUO-PER31', 'UNSPECIFIED', 'UNSPECIFIED', ('UNSPECIFIED'), ('UNSPECIFIED'), ('UNSPECIFIED') ) ;
#597 = DIRECTION ( 'NONE',  ( 7.396190242257584170E-25, 3.970466940254532839E-23, 1.000000000000000000 ) ) ;
#598 = DATE_AND_TIME ( #423, #112 ) ;
#599 = APPROVAL_ROLE ( '' ) ;
#600 = DATE_AND_TIME ( #136, #552 ) ;
#601 = CC_DESIGN_APPROVAL ( #120, ( #73 ) ) ;
#602 = NEXT_ASSEMBLY_USAGE_OCCURRENCE ( 'NAUO29', ' ', ' ', #73, #221, $ ) ;
#603 = NEXT_ASSEMBLY_USAGE_OCCURRENCE ( 'NAUO30', ' ', ' ', #73, #555, $ ) ;
#604 = NEXT_ASSEMBLY_USAGE_OCCURRENCE ( 'NAUO31', ' ', ' ', #73, #397, $ ) ;
#605 = NEXT_ASSEMBLY_USAGE_OCCURRENCE ( 'NAUO32', ' ', ' ', #73, #571, $ ) ;
ENDSEC;
END-ISO-10303-21;
