ISO-10303-21;
HEADER;
FILE_DESCRIPTION (( 'STEP AP203' ),
    '1' );
FILE_NAME ('U1.step.STEP',
    '2026-06-22T08:49:55',
    ( 'localuser' ),
    ( '' ),
    'SwSTEP 2.0',
    'SolidWorks 2025',
    '' );
FILE_SCHEMA (( 'CONFIG_CONTROL_DESIGN' ));
ENDSEC;

DATA;
#1 = APPROVAL_DATE_TIME ( #19, #116 ) ;
#2 = PERSON_AND_ORGANIZATION ( #18446744073709551615, #18446744073709551615 ) ;
#3 = APPLICATION_PROTOCOL_DEFINITION ( 'international standard', 'config_control_design', 1994, #60 ) ;
#4 = PERSON_AND_ORGANIZATION_ROLE ( 'design_owner' ) ;
#5 = APPLIED_DOCUMENT_REFERENCE ( #137,'',( #39) ) ;
#6 = DATE_TIME_ROLE ( 'classification_date' ) ;
#7 =( REPRESENTATION_RELATIONSHIP ('NONE','NONE', #209, #177 ) REPRESENTATION_RELATIONSHIP_WITH_TRANSFORMATION ( #26 )SHAPE_REPRESENTATION_RELATIONSHIP( ) );
#8 = CC_DESIGN_APPROVAL ( #116, ( #161 ) ) ;
#9 = COORDINATED_UNIVERSAL_TIME_OFFSET ( 10, 0, .AHEAD. ) ;
#10 = DATE_AND_TIME ( #162, #132 ) ;
#11 = CALENDAR_DATE ( 2026, 22, 6 ) ;
#12 = CC_DESIGN_APPROVAL ( #141, ( #94 ) ) ;
#13 = DIRECTION ( 'NONE',  ( 4.890937612370273194E-29, -3.155443620884047222E-30, 0.9999999999999997780 ) ) ;
#14 = APPROVAL ( #57, 'UNKNOWN' ) ;
#15 = PERSON_AND_ORGANIZATION_ROLE ( 'creator' ) ;
#16 = APPROVAL_ROLE ( '' ) ;
#17 = LOCAL_TIME ( 18, 49, 55.00000000000000000, #203 ) ;
#18 = CC_DESIGN_PERSON_AND_ORGANIZATION_ASSIGNMENT ( #97, #77, ( #194 ) ) ;
#19 = DATE_AND_TIME ( #69, #89 ) ;
#20 = UNCERTAINTY_MEASURE_WITH_UNIT (LENGTH_MEASURE( 1.000000000000000082E-05 ), #196, 'distance_accuracy_value', 'NONE');
#21 = MECHANICAL_CONTEXT ( 'NONE', #184, 'mechanical' ) ;
#22 = PERSON_AND_ORGANIZATION ( #18446744073709551615, #18446744073709551615 ) ;
#23 = PERSON_AND_ORGANIZATION_ROLE ( 'classification_officer' ) ;
#24 = APPLICATION_CONTEXT ( 'configuration controlled 3d designs of mechanical parts and assemblies' ) ;
#25 = APPROVAL_ROLE ( '' ) ;
#26 = ITEM_DEFINED_TRANSFORMATION ( 'NONE', 'NONE', #27,  #85 ) ;
#27 = AXIS2_PLACEMENT_3D ( 'NONE', #178, #13, #133 ) ;
#28 = PERSON_AND_ORGANIZATION ( #18446744073709551615, #18446744073709551615 ) ;
#29 = PRODUCT_DEFINITION_SHAPE ( 'NONE', 'NONE',  #156 ) ;
#30 =( NAMED_UNIT ( * ) SI_UNIT ( $, .STERADIAN. ) SOLID_ANGLE_UNIT ( ) );
#31 = CC_DESIGN_DATE_AND_TIME_ASSIGNMENT ( #126, #6, ( #94 ) ) ;
#32 = LOCAL_TIME ( 18, 49, 55.00000000000000000, #157 ) ;
#33 = APPROVAL_ROLE ( '' ) ;
#34 = SECURITY_CLASSIFICATION_LEVEL ( 'unclassified' ) ;
#35 = CC_DESIGN_APPROVAL ( #64, ( #39 ) ) ;
#36 = DATE_TIME_ROLE ( 'creation_date' ) ;
#37 = APPROVAL_STATUS ( 'not_yet_approved' ) ;
#38 = APPROVAL_DATE_TIME ( #124, #64 ) ;
#39 = PRODUCT_DEFINITION ( 'General', '', #194, #100 ) ;
#40 = PROPERTY_DEFINITION_REPRESENTATION ( #62, #177 ) ;
#41 = ROLE_ASSOCIATION ( #159, #5 ) ;
#42 = COORDINATED_UNIVERSAL_TIME_OFFSET ( 10, 0, .AHEAD. ) ;
#43 = PRODUCT_RELATED_PRODUCT_CATEGORY ( 'detail', '', ( #129 ) ) ;
#44 = SECURITY_CLASSIFICATION ( '', '', #34 ) ;
#45 = MECHANICAL_CONTEXT ( 'NONE', #107, 'mechanical' ) ;
#46 = DOCUMENT_TYPE ( 'geometry' ) ;
#47 =( NAMED_UNIT ( * ) PLANE_ANGLE_UNIT ( ) SI_UNIT ( $, .RADIAN. ) );
#48 = APPROVAL_STATUS ( 'not_yet_approved' ) ;
#49 = CARTESIAN_POINT ( 'NONE',  ( 0.000000000000000000, 0.000000000000000000, 0.000000000000000000 ) ) ;
#50 = CC_DESIGN_PERSON_AND_ORGANIZATION_ASSIGNMENT ( #28, #23, ( #94 ) ) ;
#51 = PERSON_AND_ORGANIZATION ( #18446744073709551615, #18446744073709551615 ) ;
#52 = APPROVAL_PERSON_ORGANIZATION ( #186, #116, #33 ) ;
#53 = LOCAL_TIME ( 18, 49, 55.00000000000000000, #42 ) ;
#54 = APPROVAL_STATUS ( 'not_yet_approved' ) ;
#55 = SHAPE_DEFINITION_REPRESENTATION ( #193, #177 ) ;
#56 = APPLIED_EXTERNAL_IDENTIFICATION_ASSIGNMENT ( '11557214112.step.STEP' , #144, #109,( #137) ) ;
#57 = APPROVAL_STATUS ( 'not_yet_approved' ) ;
#58 = APPROVAL_DATE_TIME ( #174, #121 ) ;
#59 = CALENDAR_DATE ( 2026, 22, 6 ) ;
#60 = APPLICATION_CONTEXT ( 'configuration controlled 3d designs of mechanical parts and assemblies' ) ;
#61 = PRODUCT_RELATED_PRODUCT_CATEGORY ( 'detail', '', ( #146 ) ) ;
#62 = PROPERTY_DEFINITION ('external definition','', #137 ) ;
#63 = APPROVAL_PERSON_ORGANIZATION ( #187, #64, #138 ) ;
#64 = APPROVAL ( #48, 'Coincident' ) ;
#65 = COORDINATED_UNIVERSAL_TIME_OFFSET ( 10, 0, .AHEAD. ) ;
#66 = LOCAL_TIME ( 18, 49, 55.00000000000000000, #9 ) ;
#67 = PERSON_AND_ORGANIZATION ( #18446744073709551615, #18446744073709551615 ) ;
#68 = CALENDAR_DATE ( 2026, 22, 6 ) ;
#69 = CALENDAR_DATE ( 2026, 22, 6 ) ;
#70 = CC_DESIGN_DATE_AND_TIME_ASSIGNMENT ( #119, #181, ( #39 ) ) ;
#71 = APPROVAL_STATUS ( 'not_yet_approved' ) ;
#72 = PERSON_AND_ORGANIZATION_ROLE ( 'design_supplier' ) ;
#73 = COORDINATED_UNIVERSAL_TIME_OFFSET ( 10, 0, .AHEAD. ) ;
#74 = CC_DESIGN_SECURITY_CLASSIFICATION ( #44, ( #161 ) ) ;
#75 = ORGANIZATION ( 'NAUO-ORG99', 'UNSPECIFIED', 'UNSPECIFIED' ) ;
#76 = APPROVAL_DATE_TIME ( #206, #141 ) ;
#77 = PERSON_AND_ORGANIZATION_ROLE ( 'creator' ) ;
#78 = CONTEXT_DEPENDENT_SHAPE_REPRESENTATION ( #7, #98 ) ;
#79 = CC_DESIGN_PERSON_AND_ORGANIZATION_ASSIGNMENT ( #96, #189, ( #111 ) ) ;
#80 = CC_DESIGN_APPROVAL ( #14, ( #111 ) ) ;
#81 =( NAMED_UNIT ( * ) SI_UNIT ( $, .STERADIAN. ) SOLID_ANGLE_UNIT ( ) );
#82 = DIRECTION ( 'NONE',  ( 1.000000000000000000, 0.000000000000000000, 0.000000000000000000 ) ) ;
#83 = APPROVAL ( #54, 'Coincident' ) ;
#84 = CALENDAR_DATE ( 2026, 22, 6 ) ;
#85 = AXIS2_PLACEMENT_3D ( 'NONE', #99, #165, #115 ) ;
#86 = CALENDAR_DATE ( 2026, 22, 6 ) ;
#87 = DATE_AND_TIME ( #84, #155 ) ;
#88 = PERSON_AND_ORGANIZATION_ROLE ( 'creator' ) ;
#89 = LOCAL_TIME ( 18, 49, 55.00000000000000000, #170 ) ;
#90 = SECURITY_CLASSIFICATION_LEVEL ( 'unclassified' ) ;
#91 = PERSON_AND_ORGANIZATION ( #18446744073709551615, #18446744073709551615 ) ;
#92 = CC_DESIGN_PERSON_AND_ORGANIZATION_ASSIGNMENT ( #211, #101, ( #129 ) ) ;
#93 = APPROVAL_STATUS ( 'not_yet_approved' ) ;
#94 = SECURITY_CLASSIFICATION ( '', '', #204 ) ;
#95 = PERSON ( 'NAUO-PER99', 'UNSPECIFIED', 'UNSPECIFIED', ('UNSPECIFIED'), ('UNSPECIFIED'), ('UNSPECIFIED') ) ;
#96 = PERSON_AND_ORGANIZATION ( #95, #75 ) ;
#97 = PERSON_AND_ORGANIZATION ( #18446744073709551615, #18446744073709551615 ) ;
#98 = PRODUCT_DEFINITION_SHAPE ( 'NONE', 'NONE',  #215 ) ;
#99 = CARTESIAN_POINT ( 'NONE',  ( 0.000000000000000000, 0.000000000000000000, 0.000000000000000000 ) ) ;
#100 = DESIGN_CONTEXT ( 'detailed design', #60, 'design' ) ;
#101 = PERSON_AND_ORGANIZATION_ROLE ( 'design_owner' ) ;
#102 = DIRECTION ( 'NONE',  ( 0.000000000000000000, 0.000000000000000000, 1.000000000000000000 ) ) ;
#103 = CC_DESIGN_DATE_AND_TIME_ASSIGNMENT ( #136, #199, ( #44 ) ) ;
#104 = DATE_AND_TIME ( #123, #214 ) ;
#105 = APPLICATION_PROTOCOL_DEFINITION ( 'international standard', 'config_control_design', 1994, #184 ) ;
#106 = CALENDAR_DATE ( 2026, 22, 6 ) ;
#107 = APPLICATION_CONTEXT ( 'configuration controlled 3d designs of mechanical parts and assemblies' ) ;
#108 = DATE_AND_TIME ( #160, #32 ) ;
#109 = EXTERNAL_SOURCE (IDENTIFIER('') ) ;
#110 = LOCAL_TIME ( 18, 49, 55.00000000000000000, #202 ) ;
#111 = SECURITY_CLASSIFICATION ( '', '', #90 ) ;
#112 = CC_DESIGN_PERSON_AND_ORGANIZATION_ASSIGNMENT ( #2, #200, ( #44 ) ) ;
#113 = PROPERTY_DEFINITION ('document property','', #137 ) ;
#114 = APPROVAL_PERSON_ORGANIZATION ( #169, #83, #171 ) ;
#115 = DIRECTION ( 'NONE',  ( 1.000000000000000000, 0.000000000000000000, 0.000000000000000000 ) ) ;
#116 = APPROVAL ( #37, 'Coincident' ) ;
#117 = APPROVAL_PERSON_ORGANIZATION ( #151, #179, #16 ) ;
#118 = CC_DESIGN_PERSON_AND_ORGANIZATION_ASSIGNMENT ( #153, #4, ( #146 ) ) ;
#119 = DATE_AND_TIME ( #197, #191 ) ;
#120 = PERSON_AND_ORGANIZATION_ROLE ( 'creator' ) ;
#121 = APPROVAL ( #173, 'Coincident' ) ;
#122 = APPROVAL_DATE_TIME ( #154, #83 ) ;
#123 = CALENDAR_DATE ( 2026, 22, 6 ) ;
#124 = DATE_AND_TIME ( #140, #110 ) ;
#125 = PERSON_AND_ORGANIZATION ( #18446744073709551615, #18446744073709551615 ) ;
#126 = DATE_AND_TIME ( #11, #188 ) ;
#127 = AXIS2_PLACEMENT_3D ( 'NONE', #49, #102, #82 ) ;
#128 = DATE_TIME_ROLE ( 'classification_date' ) ;
#129 = PRODUCT ( 'U1.step', 'U1.step', '', ( #45 ) ) ;
#130 =( NAMED_UNIT ( * ) PLANE_ANGLE_UNIT ( ) SI_UNIT ( $, .RADIAN. ) );
#131 = CC_DESIGN_PERSON_AND_ORGANIZATION_ASSIGNMENT ( #67, #120, ( #156 ) ) ;
#132 = LOCAL_TIME ( 18, 49, 55.00000000000000000, #73 ) ;
#133 = DIRECTION ( 'NONE',  ( 1.000000000000000222, -1.092455418989176591E-28, 4.890937612370273194E-29 ) ) ;
#134 = APPLICATION_PROTOCOL_DEFINITION ( 'international standard', 'config_control_design', 1994, #24 ) ;
#135 = CC_DESIGN_SECURITY_CLASSIFICATION ( #94, ( #194 ) ) ;
#136 = DATE_AND_TIME ( #86, #210 ) ;
#137 = DOCUMENT_FILE ( '11557214112.step.STEP' , '', '', #46, '' ,$ ) ;
#138 = APPROVAL_ROLE ( '' ) ;
#139 = CC_DESIGN_SECURITY_CLASSIFICATION ( #111, ( #215 ) ) ;
#140 = CALENDAR_DATE ( 2026, 22, 6 ) ;
#141 = APPROVAL ( #93, 'Coincident' ) ;
#142 = PERSON_AND_ORGANIZATION ( #18446744073709551615, #18446744073709551615 ) ;
#143 = CC_DESIGN_APPROVAL ( #83, ( #44 ) ) ;
#144 = IDENTIFICATION_ROLE ( 'external document id and location', $) ;
#145 = CC_DESIGN_PERSON_AND_ORGANIZATION_ASSIGNMENT ( #51, #88, ( #161 ) ) ;
#146 = PRODUCT ( '11557214112.step', '11557214112.step', '', ( #21 ) ) ;
#147 = APPROVAL_PERSON_ORGANIZATION ( #142, #141, #25 ) ;
#148 =( GEOMETRIC_REPRESENTATION_CONTEXT ( 3 ) GLOBAL_UNCERTAINTY_ASSIGNED_CONTEXT ( ( #195 ) ) GLOBAL_UNIT_ASSIGNED_CONTEXT ( ( #166, #47, #81 ) ) REPRESENTATION_CONTEXT ( 'NONE', 'WORKASPACE' ) );
#149 = APPROVAL_PERSON_ORGANIZATION ( #125, #121, #207 ) ;
#150 = COORDINATED_UNIVERSAL_TIME_OFFSET ( 10, 0, .AHEAD. ) ;
#151 = PERSON_AND_ORGANIZATION ( #18446744073709551615, #18446744073709551615 ) ;
#152 = COORDINATED_UNIVERSAL_TIME_OFFSET ( 10, 0, .AHEAD. ) ;
#153 = PERSON_AND_ORGANIZATION ( #18446744073709551615, #18446744073709551615 ) ;
#154 = DATE_AND_TIME ( #68, #17 ) ;
#155 = LOCAL_TIME ( 18, 49, 55.00000000000000000, #152 ) ;
#156 = PRODUCT_DEFINITION ( 'General', '', #161, #198 ) ;
#157 = COORDINATED_UNIVERSAL_TIME_OFFSET ( 10, 0, .AHEAD. ) ;
#158 = APPROVAL_ROLE ( '' ) ;
#159 = OBJECT_ROLE ('mandatory',$ ) ;
#160 = CALENDAR_DATE ( 2026, 22, 6 ) ;
#161 = PRODUCT_DEFINITION_FORMATION_WITH_SPECIFIED_SOURCE ( 'Symmetric', '', #129, .NOT_KNOWN. ) ;
#162 = CALENDAR_DATE ( 2026, 22, 6 ) ;
#163 = APPROVAL_DATE_TIME ( #10, #14 ) ;
#164 = CC_DESIGN_PERSON_AND_ORGANIZATION_ASSIGNMENT ( #167, #15, ( #39 ) ) ;
#165 = DIRECTION ( 'NONE',  ( 0.000000000000000000, 0.000000000000000000, 1.000000000000000000 ) ) ;
#166 =( LENGTH_UNIT ( ) NAMED_UNIT ( * ) SI_UNIT ( .MILLI., .METRE. ) );
#167 = PERSON_AND_ORGANIZATION ( #18446744073709551615, #18446744073709551615 ) ;
#168 = APPROVAL_DATE_TIME ( #104, #179 ) ;
#169 = PERSON_AND_ORGANIZATION ( #18446744073709551615, #18446744073709551615 ) ;
#170 = COORDINATED_UNIVERSAL_TIME_OFFSET ( 10, 0, .AHEAD. ) ;
#171 = APPROVAL_ROLE ( '' ) ;
#172 = CC_DESIGN_PERSON_AND_ORGANIZATION_ASSIGNMENT ( #22, #182, ( #161 ) ) ;
#173 = APPROVAL_STATUS ( 'not_yet_approved' ) ;
#174 = DATE_AND_TIME ( #106, #66 ) ;
#175 = PROPERTY_DEFINITION_REPRESENTATION ( #113, #177 ) ;
#176 = APPROVAL_PERSON_ORGANIZATION ( #96, #14, #158 ) ;
#177 = SHAPE_REPRESENTATION ( '11557214112.step', ( #85 ), #201 ) ;
#178 = CARTESIAN_POINT ( 'NONE',  ( 12.75000100705100614, 7.324993408203001266, -2.558323621749998278 ) ) ;
#179 = APPROVAL ( #71, 'Coincident' ) ;
#180 = CC_DESIGN_APPROVAL ( #179, ( #156 ) ) ;
#181 = DATE_TIME_ROLE ( 'creation_date' ) ;
#182 = PERSON_AND_ORGANIZATION_ROLE ( 'design_supplier' ) ;
#183 = SHAPE_DEFINITION_REPRESENTATION ( #29, #209 ) ;
#184 = APPLICATION_CONTEXT ( 'configuration controlled 3d designs of mechanical parts and assemblies' ) ;
#185 = CC_DESIGN_DATE_AND_TIME_ASSIGNMENT ( #87, #36, ( #156 ) ) ;
#186 = PERSON_AND_ORGANIZATION ( #18446744073709551615, #18446744073709551615 ) ;
#187 = PERSON_AND_ORGANIZATION ( #18446744073709551615, #18446744073709551615 ) ;
#188 = LOCAL_TIME ( 18, 49, 55.00000000000000000, #190 ) ;
#189 = PERSON_AND_ORGANIZATION_ROLE ( 'classification_officer' ) ;
#190 = COORDINATED_UNIVERSAL_TIME_OFFSET ( 10, 0, .AHEAD. ) ;
#191 = LOCAL_TIME ( 18, 49, 55.00000000000000000, #65 ) ;
#192 = CC_DESIGN_APPROVAL ( #121, ( #194 ) ) ;
#193 = PRODUCT_DEFINITION_SHAPE ( 'NONE', 'NONE',  #39 ) ;
#194 = PRODUCT_DEFINITION_FORMATION_WITH_SPECIFIED_SOURCE ( 'Symmetric', '', #146, .NOT_KNOWN. ) ;
#195 = UNCERTAINTY_MEASURE_WITH_UNIT (LENGTH_MEASURE( 1.000000000000000082E-05 ), #166, 'distance_accuracy_value', 'NONE');
#196 =( LENGTH_UNIT ( ) NAMED_UNIT ( * ) SI_UNIT ( .MILLI., .METRE. ) );
#197 = CALENDAR_DATE ( 2026, 22, 6 ) ;
#198 = DESIGN_CONTEXT ( 'detailed design', #24, 'design' ) ;
#199 = DATE_TIME_ROLE ( 'classification_date' ) ;
#200 = PERSON_AND_ORGANIZATION_ROLE ( 'classification_officer' ) ;
#201 =( GEOMETRIC_REPRESENTATION_CONTEXT ( 3 ) GLOBAL_UNCERTAINTY_ASSIGNED_CONTEXT ( ( #20 ) ) GLOBAL_UNIT_ASSIGNED_CONTEXT ( ( #196, #130, #30 ) ) REPRESENTATION_CONTEXT ( 'NONE', 'WORKASPACE' ) );
#202 = COORDINATED_UNIVERSAL_TIME_OFFSET ( 10, 0, .AHEAD. ) ;
#203 = COORDINATED_UNIVERSAL_TIME_OFFSET ( 10, 0, .AHEAD. ) ;
#204 = SECURITY_CLASSIFICATION_LEVEL ( 'unclassified' ) ;
#205 = COORDINATED_UNIVERSAL_TIME_OFFSET ( 10, 0, .AHEAD. ) ;
#206 = DATE_AND_TIME ( #59, #53 ) ;
#207 = APPROVAL_ROLE ( '' ) ;
#208 = CC_DESIGN_DATE_AND_TIME_ASSIGNMENT ( #108, #128, ( #111 ) ) ;
#209 = SHAPE_REPRESENTATION ( 'U1.step', ( #127, #27 ), #148 ) ;
#210 = LOCAL_TIME ( 18, 49, 55.00000000000000000, #205 ) ;
#211 = PERSON_AND_ORGANIZATION ( #18446744073709551615, #18446744073709551615 ) ;
#212 = APPLICATION_PROTOCOL_DEFINITION ( 'international standard', 'config_control_design', 1994, #107 ) ;
#213 = CC_DESIGN_PERSON_AND_ORGANIZATION_ASSIGNMENT ( #91, #72, ( #194 ) ) ;
#214 = LOCAL_TIME ( 18, 49, 55.00000000000000000, #150 ) ;
#215 = NEXT_ASSEMBLY_USAGE_OCCURRENCE ( 'NAUO99', ' ', ' ', #156, #39, $ ) ;
ENDSEC;
END-ISO-10303-21;
