ISO-10303-21;
HEADER;
FILE_DESCRIPTION (( 'STEP AP203' ),
    '1' );
FILE_NAME ('U2-Thruster.STEP',
    '2026-06-22T08:50:28',
    ( 'localuser' ),
    ( '' ),
    'SwSTEP 2.0',
    'SolidWorks 2025',
    '' );
FILE_SCHEMA (( 'CONFIG_CONTROL_DESIGN' ));
ENDSEC;

DATA;
#1 = PROPERTY_DEFINITION_REPRESENTATION ( #212, #204 ) ;
#2 =( NAMED_UNIT ( * ) SI_UNIT ( $, .STERADIAN. ) SOLID_ANGLE_UNIT ( ) );
#3 = LOCAL_TIME ( 18, 50, 28.00000000000000000, #44 ) ;
#4 = COORDINATED_UNIVERSAL_TIME_OFFSET ( 10, 0, .AHEAD. ) ;
#5 = PERSON_AND_ORGANIZATION ( #18446744073709551615, #18446744073709551615 ) ;
#6 = CC_DESIGN_APPROVAL ( #125, ( #131 ) ) ;
#7 = PERSON_AND_ORGANIZATION_ROLE ( 'classification_officer' ) ;
#8 = DATE_AND_TIME ( #23, #16 ) ;
#9 = PERSON_AND_ORGANIZATION_ROLE ( 'creator' ) ;
#10 = COORDINATED_UNIVERSAL_TIME_OFFSET ( 10, 0, .AHEAD. ) ;
#11 = CC_DESIGN_PERSON_AND_ORGANIZATION_ASSIGNMENT ( #165, #185, ( #29 ) ) ;
#12 = SECURITY_CLASSIFICATION ( '', '', #141 ) ;
#13 = COORDINATED_UNIVERSAL_TIME_OFFSET ( 10, 0, .AHEAD. ) ;
#14 = OBJECT_ROLE ('mandatory',$ ) ;
#15 = PERSON_AND_ORGANIZATION ( #18446744073709551615, #18446744073709551615 ) ;
#16 = LOCAL_TIME ( 18, 50, 28.00000000000000000, #13 ) ;
#17 = CARTESIAN_POINT ( 'NONE',  ( -0.01338672059935400518, 0.002477472897270001015, -2.715691202800907256E-05 ) ) ;
#18 = APPROVAL ( #171, 'Coincident' ) ;
#19 = CALENDAR_DATE ( 2026, 22, 6 ) ;
#20 = APPLICATION_PROTOCOL_DEFINITION ( 'international standard', 'config_control_design', 1994, #76 ) ;
#21 = COORDINATED_UNIVERSAL_TIME_OFFSET ( 10, 0, .AHEAD. ) ;
#22 = DATE_AND_TIME ( #170, #49 ) ;
#23 = CALENDAR_DATE ( 2026, 22, 6 ) ;
#24 = CC_DESIGN_APPROVAL ( #158, ( #114 ) ) ;
#25 = COORDINATED_UNIVERSAL_TIME_OFFSET ( 10, 0, .AHEAD. ) ;
#26 = PRODUCT_DEFINITION_SHAPE ( 'NONE', 'NONE',  #215 ) ;
#27 = APPROVAL ( #183, 'Coincident' ) ;
#28 = PERSON ( 'NAUO-PER439', 'UNSPECIFIED', 'UNSPECIFIED', ('UNSPECIFIED'), ('UNSPECIFIED'), ('UNSPECIFIED') ) ;
#29 = PRODUCT_DEFINITION ( 'General', '', #131, #208 ) ;
#30 = LOCAL_TIME ( 18, 50, 28.00000000000000000, #32 ) ;
#31 = APPROVAL_ROLE ( '' ) ;
#32 = COORDINATED_UNIVERSAL_TIME_OFFSET ( 10, 0, .AHEAD. ) ;
#33 = APPLICATION_PROTOCOL_DEFINITION ( 'international standard', 'config_control_design', 1994, #39 ) ;
#34 = APPROVAL_PERSON_ORGANIZATION ( #86, #18, #100 ) ;
#35 = CARTESIAN_POINT ( 'NONE',  ( 0.000000000000000000, 0.000000000000000000, 0.000000000000000000 ) ) ;
#36 = PERSON_AND_ORGANIZATION ( #18446744073709551615, #18446744073709551615 ) ;
#37 = CC_DESIGN_PERSON_AND_ORGANIZATION_ASSIGNMENT ( #88, #132, ( #87 ) ) ;
#38 = DATE_AND_TIME ( #56, #126 ) ;
#39 = APPLICATION_CONTEXT ( 'configuration controlled 3d designs of mechanical parts and assemblies' ) ;
#40 = APPROVAL_STATUS ( 'not_yet_approved' ) ;
#41 = PERSON_AND_ORGANIZATION ( #18446744073709551615, #18446744073709551615 ) ;
#42 = PERSON_AND_ORGANIZATION ( #18446744073709551615, #18446744073709551615 ) ;
#43 = SHAPE_DEFINITION_REPRESENTATION ( #194, #204 ) ;
#44 = COORDINATED_UNIVERSAL_TIME_OFFSET ( 10, 0, .AHEAD. ) ;
#45 =( GEOMETRIC_REPRESENTATION_CONTEXT ( 3 ) GLOBAL_UNCERTAINTY_ASSIGNED_CONTEXT ( ( #200 ) ) GLOBAL_UNIT_ASSIGNED_CONTEXT ( ( #79, #47, #61 ) ) REPRESENTATION_CONTEXT ( 'NONE', 'WORKASPACE' ) );
#46 = LOCAL_TIME ( 18, 50, 28.00000000000000000, #77 ) ;
#47 =( NAMED_UNIT ( * ) PLANE_ANGLE_UNIT ( ) SI_UNIT ( $, .RADIAN. ) );
#48 = CC_DESIGN_PERSON_AND_ORGANIZATION_ASSIGNMENT ( #15, #50, ( #213 ) ) ;
#49 = LOCAL_TIME ( 18, 50, 28.00000000000000000, #210 ) ;
#50 = PERSON_AND_ORGANIZATION_ROLE ( 'design_owner' ) ;
#51 = APPLICATION_PROTOCOL_DEFINITION ( 'international standard', 'config_control_design', 1994, #96 ) ;
#52 = APPROVAL_PERSON_ORGANIZATION ( #5, #125, #31 ) ;
#53 = APPROVAL_STATUS ( 'not_yet_approved' ) ;
#54 = APPROVAL_DATE_TIME ( #8, #125 ) ;
#55 = COORDINATED_UNIVERSAL_TIME_OFFSET ( 10, 0, .AHEAD. ) ;
#56 = CALENDAR_DATE ( 2026, 22, 6 ) ;
#57 = PERSON_AND_ORGANIZATION_ROLE ( 'design_supplier' ) ;
#58 = PERSON_AND_ORGANIZATION ( #28, #71 ) ;
#59 = APPROVAL_ROLE ( '' ) ;
#60 = CC_DESIGN_APPROVAL ( #78, ( #97 ) ) ;
#61 =( NAMED_UNIT ( * ) SI_UNIT ( $, .STERADIAN. ) SOLID_ANGLE_UNIT ( ) );
#62 = LOCAL_TIME ( 18, 50, 28.00000000000000000, #10 ) ;
#63 = PRODUCT_DEFINITION ( 'General', '', #114, #174 ) ;
#64 = CALENDAR_DATE ( 2026, 22, 6 ) ;
#65 = CALENDAR_DATE ( 2026, 22, 6 ) ;
#66 = SECURITY_CLASSIFICATION ( '', '', #84 ) ;
#67 = CALENDAR_DATE ( 2026, 22, 6 ) ;
#68 = PERSON_AND_ORGANIZATION ( #18446744073709551615, #18446744073709551615 ) ;
#69 = PERSON_AND_ORGANIZATION ( #18446744073709551615, #18446744073709551615 ) ;
#70 =( GEOMETRIC_REPRESENTATION_CONTEXT ( 3 ) GLOBAL_UNCERTAINTY_ASSIGNED_CONTEXT ( ( #134 ) ) GLOBAL_UNIT_ASSIGNED_CONTEXT ( ( #98, #80, #2 ) ) REPRESENTATION_CONTEXT ( 'NONE', 'WORKASPACE' ) );
#71 = ORGANIZATION ( 'NAUO-ORG439', 'UNSPECIFIED', 'UNSPECIFIED' ) ;
#72 = CALENDAR_DATE ( 2026, 22, 6 ) ;
#73 = APPROVAL_PERSON_ORGANIZATION ( #42, #209, #155 ) ;
#74 = APPROVAL_PERSON_ORGANIZATION ( #69, #78, #106 ) ;
#75 = APPLIED_DOCUMENT_REFERENCE ( #115,'',( #63) ) ;
#76 = APPLICATION_CONTEXT ( 'configuration controlled 3d designs of mechanical parts and assemblies' ) ;
#77 = COORDINATED_UNIVERSAL_TIME_OFFSET ( 10, 0, .AHEAD. ) ;
#78 = APPROVAL ( #40, 'Coincident' ) ;
#79 =( LENGTH_UNIT ( ) NAMED_UNIT ( * ) SI_UNIT ( $, .METRE. ) );
#80 =( NAMED_UNIT ( * ) PLANE_ANGLE_UNIT ( ) SI_UNIT ( $, .RADIAN. ) );
#81 = DATE_TIME_ROLE ( 'creation_date' ) ;
#82 = PERSON_AND_ORGANIZATION_ROLE ( 'design_supplier' ) ;
#83 = DATE_AND_TIME ( #120, #152 ) ;
#84 = SECURITY_CLASSIFICATION_LEVEL ( 'unclassified' ) ;
#85 = CC_DESIGN_PERSON_AND_ORGANIZATION_ASSIGNMENT ( #36, #9, ( #114 ) ) ;
#86 = PERSON_AND_ORGANIZATION ( #18446744073709551615, #18446744073709551615 ) ;
#87 = PRODUCT ( 'Component1.step', 'Component1.step', '', ( #103 ) ) ;
#88 = PERSON_AND_ORGANIZATION ( #18446744073709551615, #18446744073709551615 ) ;
#89 = ITEM_DEFINED_TRANSFORMATION ( 'NONE', 'NONE', #101,  #162 ) ;
#90 = ROLE_ASSOCIATION ( #14, #75 ) ;
#91 = APPROVAL_DATE_TIME ( #22, #78 ) ;
#92 = CC_DESIGN_SECURITY_CLASSIFICATION ( #97, ( #114 ) ) ;
#93 = CC_DESIGN_DATE_AND_TIME_ASSIGNMENT ( #107, #123, ( #66 ) ) ;
#94 = DIRECTION ( 'NONE',  ( 1.000000000000000444, -8.259373677663993603E-27, -1.469163872402557893E-30 ) ) ;
#95 = APPROVAL_DATE_TIME ( #149, #27 ) ;
#96 = APPLICATION_CONTEXT ( 'configuration controlled 3d designs of mechanical parts and assemblies' ) ;
#97 = SECURITY_CLASSIFICATION ( '', '', #135 ) ;
#98 =( LENGTH_UNIT ( ) NAMED_UNIT ( * ) SI_UNIT ( $, .METRE. ) );
#99 = DIRECTION ( 'NONE',  ( 1.000000000000000000, 0.000000000000000000, 0.000000000000000000 ) ) ;
#100 = APPROVAL_ROLE ( '' ) ;
#101 = AXIS2_PLACEMENT_3D ( 'NONE', #17, #163, #94 ) ;
#102 = LOCAL_TIME ( 18, 50, 28.00000000000000000, #25 ) ;
#103 = MECHANICAL_CONTEXT ( 'NONE', #76, 'mechanical' ) ;
#104 = PROPERTY_DEFINITION ('external definition','', #115 ) ;
#105 = CC_DESIGN_PERSON_AND_ORGANIZATION_ASSIGNMENT ( #211, #192, ( #131 ) ) ;
#106 = APPROVAL_ROLE ( '' ) ;
#107 = DATE_AND_TIME ( #65, #129 ) ;
#108 = APPROVAL_DATE_TIME ( #138, #209 ) ;
#109 = CC_DESIGN_APPROVAL ( #112, ( #12 ) ) ;
#110 = CALENDAR_DATE ( 2026, 22, 6 ) ;
#111 = APPROVAL_PERSON_ORGANIZATION ( #58, #112, #59 ) ;
#112 = APPROVAL ( #197, 'UNKNOWN' ) ;
#113 = CONTEXT_DEPENDENT_SHAPE_REPRESENTATION ( #186, #26 ) ;
#114 = PRODUCT_DEFINITION_FORMATION_WITH_SPECIFIED_SOURCE ( 'Symmetric', '', #87, .NOT_KNOWN. ) ;
#115 = DOCUMENT_FILE ( 'Component1.step.STEP' , '', '', #193, '' ,$ ) ;
#116 = CC_DESIGN_APPROVAL ( #18, ( #66 ) ) ;
#117 = CC_DESIGN_DATE_AND_TIME_ASSIGNMENT ( #133, #190, ( #97 ) ) ;
#118 = APPROVAL_ROLE ( '' ) ;
#119 = SHAPE_REPRESENTATION ( 'U2-Thruster', ( #160, #101 ), #70 ) ;
#120 = CALENDAR_DATE ( 2026, 22, 6 ) ;
#121 = COORDINATED_UNIVERSAL_TIME_OFFSET ( 10, 0, .AHEAD. ) ;
#122 = DATE_TIME_ROLE ( 'creation_date' ) ;
#123 = DATE_TIME_ROLE ( 'classification_date' ) ;
#124 = PERSON_AND_ORGANIZATION ( #18446744073709551615, #18446744073709551615 ) ;
#125 = APPROVAL ( #180, 'Coincident' ) ;
#126 = LOCAL_TIME ( 18, 50, 28.00000000000000000, #121 ) ;
#127 = PRODUCT_RELATED_PRODUCT_CATEGORY ( 'detail', '', ( #213 ) ) ;
#128 = APPROVAL_DATE_TIME ( #179, #112 ) ;
#129 = LOCAL_TIME ( 18, 50, 28.00000000000000000, #55 ) ;
#130 = CARTESIAN_POINT ( 'NONE',  ( 0.000000000000000000, 0.000000000000000000, 0.000000000000000000 ) ) ;
#131 = PRODUCT_DEFINITION_FORMATION_WITH_SPECIFIED_SOURCE ( 'Symmetric', '', #213, .NOT_KNOWN. ) ;
#132 = PERSON_AND_ORGANIZATION_ROLE ( 'design_owner' ) ;
#133 = DATE_AND_TIME ( #67, #181 ) ;
#134 = UNCERTAINTY_MEASURE_WITH_UNIT (LENGTH_MEASURE( 1.000000000000000082E-05 ), #98, 'distance_accuracy_value', 'NONE');
#135 = SECURITY_CLASSIFICATION_LEVEL ( 'unclassified' ) ;
#136 = APPLIED_EXTERNAL_IDENTIFICATION_ASSIGNMENT ( 'Component1.step.STEP' , #175, #150,( #115) ) ;
#137 = PERSON_AND_ORGANIZATION ( #18446744073709551615, #18446744073709551615 ) ;
#138 = DATE_AND_TIME ( #72, #62 ) ;
#139 = CC_DESIGN_DATE_AND_TIME_ASSIGNMENT ( #184, #81, ( #29 ) ) ;
#140 = DATE_TIME_ROLE ( 'classification_date' ) ;
#141 = SECURITY_CLASSIFICATION_LEVEL ( 'unclassified' ) ;
#142 = CALENDAR_DATE ( 2026, 22, 6 ) ;
#143 = APPROVAL_PERSON_ORGANIZATION ( #147, #27, #118 ) ;
#144 = CC_DESIGN_APPROVAL ( #209, ( #63 ) ) ;
#145 = CC_DESIGN_DATE_AND_TIME_ASSIGNMENT ( #176, #140, ( #12 ) ) ;
#146 = DIRECTION ( 'NONE',  ( 0.000000000000000000, 0.000000000000000000, 1.000000000000000000 ) ) ;
#147 = PERSON_AND_ORGANIZATION ( #18446744073709551615, #18446744073709551615 ) ;
#148 = PRODUCT_RELATED_PRODUCT_CATEGORY ( 'detail', '', ( #87 ) ) ;
#149 = DATE_AND_TIME ( #19, #30 ) ;
#150 = EXTERNAL_SOURCE (IDENTIFIER('') ) ;
#151 = MECHANICAL_CONTEXT ( 'NONE', #96, 'mechanical' ) ;
#152 = LOCAL_TIME ( 18, 50, 28.00000000000000000, #21 ) ;
#153 = SHAPE_DEFINITION_REPRESENTATION ( #214, #119 ) ;
#154 = APPROVAL_STATUS ( 'not_yet_approved' ) ;
#155 = APPROVAL_ROLE ( '' ) ;
#156 = APPROVAL_PERSON_ORGANIZATION ( #159, #158, #167 ) ;
#157 = APPROVAL_DATE_TIME ( #38, #18 ) ;
#158 = APPROVAL ( #53, 'Coincident' ) ;
#159 = PERSON_AND_ORGANIZATION ( #18446744073709551615, #18446744073709551615 ) ;
#160 = AXIS2_PLACEMENT_3D ( 'NONE', #130, #203, #99 ) ;
#161 = CC_DESIGN_PERSON_AND_ORGANIZATION_ASSIGNMENT ( #58, #178, ( #12 ) ) ;
#162 = AXIS2_PLACEMENT_3D ( 'NONE', #35, #146, #201 ) ;
#163 = DIRECTION ( 'NONE',  ( -1.469163872402557893E-30, -6.792903027419116756E-23, 1.000000000000000444 ) ) ;
#164 = CC_DESIGN_DATE_AND_TIME_ASSIGNMENT ( #169, #122, ( #63 ) ) ;
#165 = PERSON_AND_ORGANIZATION ( #18446744073709551615, #18446744073709551615 ) ;
#166 = APPLICATION_CONTEXT ( 'configuration controlled 3d designs of mechanical parts and assemblies' ) ;
#167 = APPROVAL_ROLE ( '' ) ;
#168 = CC_DESIGN_SECURITY_CLASSIFICATION ( #12, ( #215 ) ) ;
#169 = DATE_AND_TIME ( #206, #102 ) ;
#170 = CALENDAR_DATE ( 2026, 22, 6 ) ;
#171 = APPROVAL_STATUS ( 'not_yet_approved' ) ;
#172 = LOCAL_TIME ( 18, 50, 28.00000000000000000, #4 ) ;
#173 = PERSON_AND_ORGANIZATION ( #18446744073709551615, #18446744073709551615 ) ;
#174 = DESIGN_CONTEXT ( 'detailed design', #166, 'design' ) ;
#175 = IDENTIFICATION_ROLE ( 'external document id and location', $) ;
#176 = DATE_AND_TIME ( #142, #3 ) ;
#177 = CC_DESIGN_APPROVAL ( #27, ( #29 ) ) ;
#178 = PERSON_AND_ORGANIZATION_ROLE ( 'classification_officer' ) ;
#179 = DATE_AND_TIME ( #110, #46 ) ;
#180 = APPROVAL_STATUS ( 'not_yet_approved' ) ;
#181 = LOCAL_TIME ( 18, 50, 28.00000000000000000, #207 ) ;
#182 = CC_DESIGN_PERSON_AND_ORGANIZATION_ASSIGNMENT ( #41, #57, ( #131 ) ) ;
#183 = APPROVAL_STATUS ( 'not_yet_approved' ) ;
#184 = DATE_AND_TIME ( #64, #172 ) ;
#185 = PERSON_AND_ORGANIZATION_ROLE ( 'creator' ) ;
#186 =( REPRESENTATION_RELATIONSHIP ('NONE','NONE', #119, #204 ) REPRESENTATION_RELATIONSHIP_WITH_TRANSFORMATION ( #89 )SHAPE_REPRESENTATION_RELATIONSHIP( ) );
#187 = APPROVAL_DATE_TIME ( #83, #158 ) ;
#188 = CC_DESIGN_PERSON_AND_ORGANIZATION_ASSIGNMENT ( #124, #189, ( #66 ) ) ;
#189 = PERSON_AND_ORGANIZATION_ROLE ( 'classification_officer' ) ;
#190 = DATE_TIME_ROLE ( 'classification_date' ) ;
#191 = CC_DESIGN_PERSON_AND_ORGANIZATION_ASSIGNMENT ( #137, #7, ( #97 ) ) ;
#192 = PERSON_AND_ORGANIZATION_ROLE ( 'creator' ) ;
#193 = DOCUMENT_TYPE ( 'geometry' ) ;
#194 = PRODUCT_DEFINITION_SHAPE ( 'NONE', 'NONE',  #63 ) ;
#195 = APPLICATION_PROTOCOL_DEFINITION ( 'international standard', 'config_control_design', 1994, #166 ) ;
#196 = CC_DESIGN_SECURITY_CLASSIFICATION ( #66, ( #131 ) ) ;
#197 = APPROVAL_STATUS ( 'not_yet_approved' ) ;
#198 = PROPERTY_DEFINITION_REPRESENTATION ( #104, #204 ) ;
#199 = CC_DESIGN_PERSON_AND_ORGANIZATION_ASSIGNMENT ( #173, #205, ( #63 ) ) ;
#200 = UNCERTAINTY_MEASURE_WITH_UNIT (LENGTH_MEASURE( 1.000000000000000082E-05 ), #79, 'distance_accuracy_value', 'NONE');
#201 = DIRECTION ( 'NONE',  ( 1.000000000000000000, 0.000000000000000000, 0.000000000000000000 ) ) ;
#202 = CC_DESIGN_PERSON_AND_ORGANIZATION_ASSIGNMENT ( #68, #82, ( #114 ) ) ;
#203 = DIRECTION ( 'NONE',  ( 0.000000000000000000, 0.000000000000000000, 1.000000000000000000 ) ) ;
#204 = SHAPE_REPRESENTATION ( 'Component1.step', ( #162 ), #45 ) ;
#205 = PERSON_AND_ORGANIZATION_ROLE ( 'creator' ) ;
#206 = CALENDAR_DATE ( 2026, 22, 6 ) ;
#207 = COORDINATED_UNIVERSAL_TIME_OFFSET ( 10, 0, .AHEAD. ) ;
#208 = DESIGN_CONTEXT ( 'detailed design', #39, 'design' ) ;
#209 = APPROVAL ( #154, 'Coincident' ) ;
#210 = COORDINATED_UNIVERSAL_TIME_OFFSET ( 10, 0, .AHEAD. ) ;
#211 = PERSON_AND_ORGANIZATION ( #18446744073709551615, #18446744073709551615 ) ;
#212 = PROPERTY_DEFINITION ('document property','', #115 ) ;
#213 = PRODUCT ( 'U2-Thruster', 'U2-Thruster', '', ( #151 ) ) ;
#214 = PRODUCT_DEFINITION_SHAPE ( 'NONE', 'NONE',  #29 ) ;
#215 = NEXT_ASSEMBLY_USAGE_OCCURRENCE ( 'NAUO439', ' ', ' ', #29, #63, $ ) ;
ENDSEC;
END-ISO-10303-21;
