ISO-10303-21;
HEADER;
FILE_DESCRIPTION (( 'STEP AP203' ),
    '1' );
FILE_NAME ('U2.step.STEP',
    '2026-06-22T08:49:55',
    ( 'localuser' ),
    ( '' ),
    'SwSTEP 2.0',
    'SolidWorks 2025',
    '' );
FILE_SCHEMA (( 'CONFIG_CONTROL_DESIGN' ));
ENDSEC;

DATA;
#1 = APPROVAL_STATUS ( 'not_yet_approved' ) ;
#2 = ROLE_ASSOCIATION ( #51, #169 ) ;
#3 = APPROVAL ( #138, 'Coincident' ) ;
#4 = DATE_AND_TIME ( #87, #123 ) ;
#5 = CC_DESIGN_PERSON_AND_ORGANIZATION_ASSIGNMENT ( #175, #64, ( #149 ) ) ;
#6 = APPROVAL_PERSON_ORGANIZATION ( #143, #44, #71 ) ;
#7 = CC_DESIGN_PERSON_AND_ORGANIZATION_ASSIGNMENT ( #146, #184, ( #194 ) ) ;
#8 = PERSON_AND_ORGANIZATION ( #18446744073709551615, #18446744073709551615 ) ;
#9 = LOCAL_TIME ( 18, 49, 55.00000000000000000, #170 ) ;
#10 = PERSON_AND_ORGANIZATION ( #18446744073709551615, #18446744073709551615 ) ;
#11 = PRODUCT_DEFINITION ( 'General', '', #194, #198 ) ;
#12 = APPROVAL_DATE_TIME ( #28, #3 ) ;
#13 = PERSON_AND_ORGANIZATION ( #18446744073709551615, #18446744073709551615 ) ;
#14 = DATE_AND_TIME ( #168, #84 ) ;
#15 = CC_DESIGN_PERSON_AND_ORGANIZATION_ASSIGNMENT ( #128, #200, ( #194 ) ) ;
#16 = COORDINATED_UNIVERSAL_TIME_OFFSET ( 10, 0, .AHEAD. ) ;
#17 =( GEOMETRIC_REPRESENTATION_CONTEXT ( 3 ) GLOBAL_UNCERTAINTY_ASSIGNED_CONTEXT ( ( #73 ) ) GLOBAL_UNIT_ASSIGNED_CONTEXT ( ( #204, #91, #57 ) ) REPRESENTATION_CONTEXT ( 'NONE', 'WORKASPACE' ) );
#18 = CC_DESIGN_APPROVAL ( #179, ( #29 ) ) ;
#19 = APPROVAL ( #26, 'Coincident' ) ;
#20 = PERSON_AND_ORGANIZATION ( #18446744073709551615, #18446744073709551615 ) ;
#21 = SECURITY_CLASSIFICATION_LEVEL ( 'unclassified' ) ;
#22 = APPROVAL ( #103, 'Coincident' ) ;
#23 = CARTESIAN_POINT ( 'NONE',  ( 11.57890420529300179, 21.50019482421900108, 0.000000000000000000 ) ) ;
#24 = PRODUCT_DEFINITION_SHAPE ( 'NONE', 'NONE',  #215 ) ;
#25 = PERSON_AND_ORGANIZATION_ROLE ( 'design_supplier' ) ;
#26 = APPROVAL_STATUS ( 'not_yet_approved' ) ;
#27 = COORDINATED_UNIVERSAL_TIME_OFFSET ( 10, 0, .AHEAD. ) ;
#28 = DATE_AND_TIME ( #181, #70 ) ;
#29 = SECURITY_CLASSIFICATION ( '', '', #21 ) ;
#30 = PERSON_AND_ORGANIZATION ( #18446744073709551615, #18446744073709551615 ) ;
#31 = DATE_TIME_ROLE ( 'classification_date' ) ;
#32 = PROPERTY_DEFINITION_REPRESENTATION ( #95, #34 ) ;
#33 =( LENGTH_UNIT ( ) NAMED_UNIT ( * ) SI_UNIT ( .MILLI., .METRE. ) );
#34 = SHAPE_REPRESENTATION ( '11552548624.step', ( #67 ), #17 ) ;
#35 = APPROVAL_DATE_TIME ( #141, #167 ) ;
#36 = CARTESIAN_POINT ( 'NONE',  ( 0.000000000000000000, 0.000000000000000000, 0.000000000000000000 ) ) ;
#37 = APPLICATION_PROTOCOL_DEFINITION ( 'international standard', 'config_control_design', 1994, #94 ) ;
#38 = PRODUCT_RELATED_PRODUCT_CATEGORY ( 'detail', '', ( #191 ) ) ;
#39 = ORGANIZATION ( 'NAUO-ORG91', 'UNSPECIFIED', 'UNSPECIFIED' ) ;
#40 = PERSON_AND_ORGANIZATION_ROLE ( 'design_owner' ) ;
#41 = LOCAL_TIME ( 18, 49, 55.00000000000000000, #121 ) ;
#42 = PERSON_AND_ORGANIZATION ( #18446744073709551615, #18446744073709551615 ) ;
#43 = APPLICATION_PROTOCOL_DEFINITION ( 'international standard', 'config_control_design', 1994, #114 ) ;
#44 = APPROVAL ( #68, 'Coincident' ) ;
#45 = COORDINATED_UNIVERSAL_TIME_OFFSET ( 10, 0, .AHEAD. ) ;
#46 = PERSON_AND_ORGANIZATION_ROLE ( 'classification_officer' ) ;
#47 = SECURITY_CLASSIFICATION ( '', '', #119 ) ;
#48 = DATE_AND_TIME ( #89, #159 ) ;
#49 = PERSON_AND_ORGANIZATION ( #211, #39 ) ;
#50 = PROPERTY_DEFINITION_REPRESENTATION ( #133, #34 ) ;
#51 = OBJECT_ROLE ('mandatory',$ ) ;
#52 = SHAPE_REPRESENTATION ( 'U2.step', ( #188, #62 ), #205 ) ;
#53 = APPROVAL_DATE_TIME ( #107, #44 ) ;
#54 = CC_DESIGN_PERSON_AND_ORGANIZATION_ASSIGNMENT ( #49, #124, ( #127 ) ) ;
#55 = APPROVAL_STATUS ( 'not_yet_approved' ) ;
#56 = PRODUCT_DEFINITION ( 'General', '', #132, #108 ) ;
#57 =( NAMED_UNIT ( * ) SI_UNIT ( $, .STERADIAN. ) SOLID_ANGLE_UNIT ( ) );
#58 = APPLICATION_CONTEXT ( 'configuration controlled 3d designs of mechanical parts and assemblies' ) ;
#59 = COORDINATED_UNIVERSAL_TIME_OFFSET ( 10, 0, .AHEAD. ) ;
#60 = PRODUCT_DEFINITION_SHAPE ( 'NONE', 'NONE',  #56 ) ;
#61 = APPLICATION_PROTOCOL_DEFINITION ( 'international standard', 'config_control_design', 1994, #58 ) ;
#62 = AXIS2_PLACEMENT_3D ( 'NONE', #23, #93, #72 ) ;
#63 = CARTESIAN_POINT ( 'NONE',  ( 0.000000000000000000, 0.000000000000000000, 0.000000000000000000 ) ) ;
#64 = PERSON_AND_ORGANIZATION_ROLE ( 'design_owner' ) ;
#65 = PERSON_AND_ORGANIZATION ( #18446744073709551615, #18446744073709551615 ) ;
#66 = PERSON_AND_ORGANIZATION_ROLE ( 'classification_officer' ) ;
#67 = AXIS2_PLACEMENT_3D ( 'NONE', #36, #174, #189 ) ;
#68 = APPROVAL_STATUS ( 'not_yet_approved' ) ;
#69 = SECURITY_CLASSIFICATION_LEVEL ( 'unclassified' ) ;
#70 = LOCAL_TIME ( 18, 49, 55.00000000000000000, #45 ) ;
#71 = APPROVAL_ROLE ( '' ) ;
#72 = DIRECTION ( 'NONE',  ( 1.000000000000000222, -1.092455418989176591E-28, 4.890937612370273194E-29 ) ) ;
#73 = UNCERTAINTY_MEASURE_WITH_UNIT (LENGTH_MEASURE( 1.000000000000000082E-05 ), #204, 'distance_accuracy_value', 'NONE');
#74 = LOCAL_TIME ( 18, 49, 55.00000000000000000, #100 ) ;
#75 = APPROVAL_PERSON_ORGANIZATION ( #49, #167, #126 ) ;
#76 = CALENDAR_DATE ( 2026, 22, 6 ) ;
#77 = PERSON_AND_ORGANIZATION_ROLE ( 'creator' ) ;
#78 = DATE_AND_TIME ( #76, #182 ) ;
#79 = PRODUCT_RELATED_PRODUCT_CATEGORY ( 'detail', '', ( #149 ) ) ;
#80 = DATE_AND_TIME ( #116, #74 ) ;
#81 = APPLIED_EXTERNAL_IDENTIFICATION_ASSIGNMENT ( '11552548624.step.STEP' , #196, #185,( #193) ) ;
#82 = PERSON_AND_ORGANIZATION ( #18446744073709551615, #18446744073709551615 ) ;
#83 = CALENDAR_DATE ( 2026, 22, 6 ) ;
#84 = LOCAL_TIME ( 18, 49, 55.00000000000000000, #101 ) ;
#85 = CC_DESIGN_SECURITY_CLASSIFICATION ( #127, ( #215 ) ) ;
#86 = APPROVAL_ROLE ( '' ) ;
#87 = CALENDAR_DATE ( 2026, 22, 6 ) ;
#88 = CC_DESIGN_PERSON_AND_ORGANIZATION_ASSIGNMENT ( #42, #46, ( #47 ) ) ;
#89 = CALENDAR_DATE ( 2026, 22, 6 ) ;
#90 = APPROVAL_PERSON_ORGANIZATION ( #178, #3, #165 ) ;
#91 =( NAMED_UNIT ( * ) PLANE_ANGLE_UNIT ( ) SI_UNIT ( $, .RADIAN. ) );
#92 = CC_DESIGN_DATE_AND_TIME_ASSIGNMENT ( #183, #207, ( #11 ) ) ;
#93 = DIRECTION ( 'NONE',  ( 4.890937612370273194E-29, -3.155443620884047222E-30, 0.9999999999999997780 ) ) ;
#94 = APPLICATION_CONTEXT ( 'configuration controlled 3d designs of mechanical parts and assemblies' ) ;
#95 = PROPERTY_DEFINITION ('document property','', #193 ) ;
#96 = APPROVAL_PERSON_ORGANIZATION ( #30, #22, #137 ) ;
#97 = MECHANICAL_CONTEXT ( 'NONE', #106, 'mechanical' ) ;
#98 = UNCERTAINTY_MEASURE_WITH_UNIT (LENGTH_MEASURE( 1.000000000000000082E-05 ), #33, 'distance_accuracy_value', 'NONE');
#99 = APPROVAL_ROLE ( '' ) ;
#100 = COORDINATED_UNIVERSAL_TIME_OFFSET ( 10, 0, .AHEAD. ) ;
#101 = COORDINATED_UNIVERSAL_TIME_OFFSET ( 10, 0, .AHEAD. ) ;
#102 = CC_DESIGN_APPROVAL ( #167, ( #127 ) ) ;
#103 = APPROVAL_STATUS ( 'not_yet_approved' ) ;
#104 = SHAPE_DEFINITION_REPRESENTATION ( #112, #34 ) ;
#105 = COORDINATED_UNIVERSAL_TIME_OFFSET ( 10, 0, .AHEAD. ) ;
#106 = APPLICATION_CONTEXT ( 'configuration controlled 3d designs of mechanical parts and assemblies' ) ;
#107 = DATE_AND_TIME ( #83, #150 ) ;
#108 = DESIGN_CONTEXT ( 'detailed design', #114, 'design' ) ;
#109 = DOCUMENT_TYPE ( 'geometry' ) ;
#110 = MECHANICAL_CONTEXT ( 'NONE', #94, 'mechanical' ) ;
#111 = CC_DESIGN_DATE_AND_TIME_ASSIGNMENT ( #202, #31, ( #29 ) ) ;
#112 = PRODUCT_DEFINITION_SHAPE ( 'NONE', 'NONE',  #11 ) ;
#113 = APPLICATION_PROTOCOL_DEFINITION ( 'international standard', 'config_control_design', 1994, #106 ) ;
#114 = APPLICATION_CONTEXT ( 'configuration controlled 3d designs of mechanical parts and assemblies' ) ;
#115 = CC_DESIGN_APPROVAL ( #19, ( #47 ) ) ;
#116 = CALENDAR_DATE ( 2026, 22, 6 ) ;
#117 = CC_DESIGN_PERSON_AND_ORGANIZATION_ASSIGNMENT ( #8, #197, ( #56 ) ) ;
#118 = APPROVAL_DATE_TIME ( #156, #22 ) ;
#119 = SECURITY_CLASSIFICATION_LEVEL ( 'unclassified' ) ;
#120 = CC_DESIGN_APPROVAL ( #122, ( #132 ) ) ;
#121 = COORDINATED_UNIVERSAL_TIME_OFFSET ( 10, 0, .AHEAD. ) ;
#122 = APPROVAL ( #195, 'Coincident' ) ;
#123 = LOCAL_TIME ( 18, 49, 55.00000000000000000, #105 ) ;
#124 = PERSON_AND_ORGANIZATION_ROLE ( 'classification_officer' ) ;
#125 = CC_DESIGN_PERSON_AND_ORGANIZATION_ASSIGNMENT ( #13, #25, ( #132 ) ) ;
#126 = APPROVAL_ROLE ( '' ) ;
#127 = SECURITY_CLASSIFICATION ( '', '', #69 ) ;
#128 = PERSON_AND_ORGANIZATION ( #18446744073709551615, #18446744073709551615 ) ;
#129 = COORDINATED_UNIVERSAL_TIME_OFFSET ( 10, 0, .AHEAD. ) ;
#130 = CC_DESIGN_PERSON_AND_ORGANIZATION_ASSIGNMENT ( #152, #77, ( #132 ) ) ;
#131 = APPROVAL_PERSON_ORGANIZATION ( #192, #19, #134 ) ;
#132 = PRODUCT_DEFINITION_FORMATION_WITH_SPECIFIED_SOURCE ( 'Symmetric', '', #149, .NOT_KNOWN. ) ;
#133 = PROPERTY_DEFINITION ('external definition','', #193 ) ;
#134 = APPROVAL_ROLE ( '' ) ;
#135 = COORDINATED_UNIVERSAL_TIME_OFFSET ( 10, 0, .AHEAD. ) ;
#136 = APPROVAL_PERSON_ORGANIZATION ( #20, #179, #86 ) ;
#137 = APPROVAL_ROLE ( '' ) ;
#138 = APPROVAL_STATUS ( 'not_yet_approved' ) ;
#139 = CC_DESIGN_DATE_AND_TIME_ASSIGNMENT ( #4, #157, ( #127 ) ) ;
#140 = PERSON_AND_ORGANIZATION_ROLE ( 'creator' ) ;
#141 = DATE_AND_TIME ( #144, #177 ) ;
#142 = APPROVAL_DATE_TIME ( #48, #179 ) ;
#143 = PERSON_AND_ORGANIZATION ( #18446744073709551615, #18446744073709551615 ) ;
#144 = CALENDAR_DATE ( 2026, 22, 6 ) ;
#145 = CC_DESIGN_SECURITY_CLASSIFICATION ( #29, ( #194 ) ) ;
#146 = PERSON_AND_ORGANIZATION ( #18446744073709551615, #18446744073709551615 ) ;
#147 = CC_DESIGN_APPROVAL ( #3, ( #11 ) ) ;
#148 = CC_DESIGN_PERSON_AND_ORGANIZATION_ASSIGNMENT ( #187, #66, ( #29 ) ) ;
#149 = PRODUCT ( 'U2.step', 'U2.step', '', ( #110 ) ) ;
#150 = LOCAL_TIME ( 18, 49, 55.00000000000000000, #16 ) ;
#151 = DATE_AND_TIME ( #212, #203 ) ;
#152 = PERSON_AND_ORGANIZATION ( #18446744073709551615, #18446744073709551615 ) ;
#153 = DIRECTION ( 'NONE',  ( 0.000000000000000000, 0.000000000000000000, 1.000000000000000000 ) ) ;
#154 = CC_DESIGN_APPROVAL ( #22, ( #56 ) ) ;
#155 = APPROVAL_DATE_TIME ( #151, #19 ) ;
#156 = DATE_AND_TIME ( #208, #214 ) ;
#157 = DATE_TIME_ROLE ( 'classification_date' ) ;
#158 =( NAMED_UNIT ( * ) SI_UNIT ( $, .STERADIAN. ) SOLID_ANGLE_UNIT ( ) );
#159 = LOCAL_TIME ( 18, 49, 55.00000000000000000, #199 ) ;
#160 = CC_DESIGN_PERSON_AND_ORGANIZATION_ASSIGNMENT ( #65, #140, ( #11 ) ) ;
#161 =( REPRESENTATION_RELATIONSHIP ('NONE','NONE', #52, #34 ) REPRESENTATION_RELATIONSHIP_WITH_TRANSFORMATION ( #171 )SHAPE_REPRESENTATION_RELATIONSHIP( ) );
#162 = CC_DESIGN_DATE_AND_TIME_ASSIGNMENT ( #14, #164, ( #56 ) ) ;
#163 = CC_DESIGN_SECURITY_CLASSIFICATION ( #47, ( #132 ) ) ;
#164 = DATE_TIME_ROLE ( 'creation_date' ) ;
#165 = APPROVAL_ROLE ( '' ) ;
#166 = DIRECTION ( 'NONE',  ( 1.000000000000000000, 0.000000000000000000, 0.000000000000000000 ) ) ;
#167 = APPROVAL ( #55, 'UNKNOWN' ) ;
#168 = CALENDAR_DATE ( 2026, 22, 6 ) ;
#169 = APPLIED_DOCUMENT_REFERENCE ( #193,'',( #11) ) ;
#170 = COORDINATED_UNIVERSAL_TIME_OFFSET ( 10, 0, .AHEAD. ) ;
#171 = ITEM_DEFINED_TRANSFORMATION ( 'NONE', 'NONE', #62,  #67 ) ;
#172 =( NAMED_UNIT ( * ) PLANE_ANGLE_UNIT ( ) SI_UNIT ( $, .RADIAN. ) );
#173 = CC_DESIGN_DATE_AND_TIME_ASSIGNMENT ( #80, #180, ( #47 ) ) ;
#174 = DIRECTION ( 'NONE',  ( 0.000000000000000000, 0.000000000000000000, 1.000000000000000000 ) ) ;
#175 = PERSON_AND_ORGANIZATION ( #18446744073709551615, #18446744073709551615 ) ;
#176 = CALENDAR_DATE ( 2026, 22, 6 ) ;
#177 = LOCAL_TIME ( 18, 49, 55.00000000000000000, #129 ) ;
#178 = PERSON_AND_ORGANIZATION ( #18446744073709551615, #18446744073709551615 ) ;
#179 = APPROVAL ( #1, 'Coincident' ) ;
#180 = DATE_TIME_ROLE ( 'classification_date' ) ;
#181 = CALENDAR_DATE ( 2026, 22, 6 ) ;
#182 = LOCAL_TIME ( 18, 49, 55.00000000000000000, #59 ) ;
#183 = DATE_AND_TIME ( #176, #41 ) ;
#184 = PERSON_AND_ORGANIZATION_ROLE ( 'creator' ) ;
#185 = EXTERNAL_SOURCE (IDENTIFIER('') ) ;
#186 = CALENDAR_DATE ( 2026, 22, 6 ) ;
#187 = PERSON_AND_ORGANIZATION ( #18446744073709551615, #18446744073709551615 ) ;
#188 = AXIS2_PLACEMENT_3D ( 'NONE', #63, #153, #166 ) ;
#189 = DIRECTION ( 'NONE',  ( 1.000000000000000000, 0.000000000000000000, 0.000000000000000000 ) ) ;
#190 = APPROVAL_PERSON_ORGANIZATION ( #82, #122, #99 ) ;
#191 = PRODUCT ( '11552548624.step', '11552548624.step', '', ( #97 ) ) ;
#192 = PERSON_AND_ORGANIZATION ( #18446744073709551615, #18446744073709551615 ) ;
#193 = DOCUMENT_FILE ( '11552548624.step.STEP' , '', '', #109, '' ,$ ) ;
#194 = PRODUCT_DEFINITION_FORMATION_WITH_SPECIFIED_SOURCE ( 'Symmetric', '', #191, .NOT_KNOWN. ) ;
#195 = APPROVAL_STATUS ( 'not_yet_approved' ) ;
#196 = IDENTIFICATION_ROLE ( 'external document id and location', $) ;
#197 = PERSON_AND_ORGANIZATION_ROLE ( 'creator' ) ;
#198 = DESIGN_CONTEXT ( 'detailed design', #58, 'design' ) ;
#199 = COORDINATED_UNIVERSAL_TIME_OFFSET ( 10, 0, .AHEAD. ) ;
#200 = PERSON_AND_ORGANIZATION_ROLE ( 'design_supplier' ) ;
#201 = CONTEXT_DEPENDENT_SHAPE_REPRESENTATION ( #161, #24 ) ;
#202 = DATE_AND_TIME ( #186, #9 ) ;
#203 = LOCAL_TIME ( 18, 49, 55.00000000000000000, #135 ) ;
#204 =( LENGTH_UNIT ( ) NAMED_UNIT ( * ) SI_UNIT ( .MILLI., .METRE. ) );
#205 =( GEOMETRIC_REPRESENTATION_CONTEXT ( 3 ) GLOBAL_UNCERTAINTY_ASSIGNED_CONTEXT ( ( #98 ) ) GLOBAL_UNIT_ASSIGNED_CONTEXT ( ( #33, #172, #158 ) ) REPRESENTATION_CONTEXT ( 'NONE', 'WORKASPACE' ) );
#206 = CC_DESIGN_APPROVAL ( #44, ( #194 ) ) ;
#207 = DATE_TIME_ROLE ( 'creation_date' ) ;
#208 = CALENDAR_DATE ( 2026, 22, 6 ) ;
#209 = APPROVAL_DATE_TIME ( #78, #122 ) ;
#210 = SHAPE_DEFINITION_REPRESENTATION ( #60, #52 ) ;
#211 = PERSON ( 'NAUO-PER91', 'UNSPECIFIED', 'UNSPECIFIED', ('UNSPECIFIED'), ('UNSPECIFIED'), ('UNSPECIFIED') ) ;
#212 = CALENDAR_DATE ( 2026, 22, 6 ) ;
#213 = CC_DESIGN_PERSON_AND_ORGANIZATION_ASSIGNMENT ( #10, #40, ( #191 ) ) ;
#214 = LOCAL_TIME ( 18, 49, 55.00000000000000000, #27 ) ;
#215 = NEXT_ASSEMBLY_USAGE_OCCURRENCE ( 'NAUO91', ' ', ' ', #56, #11, $ ) ;
ENDSEC;
END-ISO-10303-21;
