ISO-10303-21;
HEADER;
FILE_DESCRIPTION (( 'STEP AP203' ),
    '1' );
FILE_NAME ('Willow Durakool DG82 Series Automotive Relays.STEP',
    '2026-06-22T08:49:50',
    ( 'localuser' ),
    ( '' ),
    'SwSTEP 2.0',
    'SolidWorks 2025',
    '' );
FILE_SCHEMA (( 'CONFIG_CONTROL_DESIGN' ));
ENDSEC;

DATA;
#1 = CARTESIAN_POINT ( 'NONE',  ( 2.938144257330039366, 5.401208102912331555, 12.00000000000000000 ) ) ;
#2 = DIRECTION ( 'NONE',  ( 1.000000000000000000, 0.000000000000000000, -0.000000000000000000 ) ) ;
#3 = ORIENTED_EDGE ( 'NONE', *, *, #577, .T. ) ;
#4 = CARTESIAN_POINT ( 'NONE',  ( 22.21454157486616054, 14.45687827131529168, 0.000000000000000000 ) ) ;
#5 = LINE ( 'NONE', #364, #492 ) ;
#6 = VERTEX_POINT ( 'NONE', #291 ) ;
#7 = LINE ( 'NONE', #232, #485 ) ;
#8 = PLANE ( 'NONE',  #632 ) ;
#9 = CARTESIAN_POINT ( 'NONE',  ( 2.938144257330039366, 5.401208102912331555, 12.00000000000000000 ) ) ;
#10 = VERTEX_POINT ( 'NONE', #53 ) ;
#11 = ADVANCED_FACE ( 'NONE', ( #363 ), #103, .F. ) ;
#12 = DIRECTION ( 'NONE',  ( -0.000000000000000000, -0.000000000000000000, -1.000000000000000000 ) ) ;
#13 = VECTOR ( 'NONE', #299, 1000.000000000000000 ) ;
#14 = DATE_AND_TIME ( #432, #126 ) ;
#15 = VERTEX_POINT ( 'NONE', #599 ) ;
#16 = CARTESIAN_POINT ( 'NONE',  ( 0.000000000000000000, 0.000000000000000000, 0.000000000000000000 ) ) ;
#17 = CC_DESIGN_PERSON_AND_ORGANIZATION_ASSIGNMENT ( #75, #281, ( #405 ) ) ;
#18 = COORDINATED_UNIVERSAL_TIME_OFFSET ( 10, 0, .AHEAD. ) ;
#19 = VERTEX_POINT ( 'NONE', #499 ) ;
#20 = LINE ( 'NONE', #383, #132 ) ;
#21 = ADVANCED_FACE ( 'NONE', ( #648 ), #258, .F. ) ;
#22 = VECTOR ( 'NONE', #116, 1000.000000000000000 ) ;
#23 = VECTOR ( 'NONE', #283, 1000.000000000000000 ) ;
#24 = APPLICATION_PROTOCOL_DEFINITION ( 'international standard', 'config_control_design', 1994, #338 ) ;
#25 = CARTESIAN_POINT ( 'NONE',  ( 22.21454157486616054, 4.289108257669862923, 0.000000000000000000 ) ) ;
#26 = EDGE_CURVE ( 'NONE', #215, #32, #96, .T. ) ;
#27 = LINE ( 'NONE', #193, #233 ) ;
#28 = CARTESIAN_POINT ( 'NONE',  ( 2.832229986354565909, 11.96789290339166989, 12.00000000000000000 ) ) ;
#29 = ORIENTED_EDGE ( 'NONE', *, *, #408, .F. ) ;
#30 = EDGE_CURVE ( 'NONE', #596, #650, #652, .T. ) ;
#31 = PLANE ( 'NONE',  #311 ) ;
#32 = VERTEX_POINT ( 'NONE', #547 ) ;
#33 = LINE ( 'NONE', #399, #73 ) ;
#34 = DIRECTION ( 'NONE',  ( -1.000000000000000000, -0.000000000000000000, -0.000000000000000000 ) ) ;
#35 = VERTEX_POINT ( 'NONE', #4 ) ;
#36 = PRODUCT_DEFINITION_FORMATION_WITH_SPECIFIED_SOURCE ( 'Symmetric', '', #405, .NOT_KNOWN. ) ;
#37 = LINE ( 'NONE', #305, #296 ) ;
#38 = DIRECTION ( 'NONE',  ( 0.000000000000000000, 0.000000000000000000, -1.000000000000000000 ) ) ;
#39 = CARTESIAN_POINT ( 'NONE',  ( 2.832229986354565909, 11.96789290339166989, 12.00000000000000000 ) ) ;
#40 = ORIENTED_EDGE ( 'NONE', *, *, #196, .T. ) ;
#41 = PRODUCT_DEFINITION_SHAPE ( 'NONE', 'NONE',  #539 ) ;
#42 = DIRECTION ( 'NONE',  ( -0.000000000000000000, -0.000000000000000000, -1.000000000000000000 ) ) ;
#43 = DIRECTION ( 'NONE',  ( -0.000000000000000000, -0.000000000000000000, -1.000000000000000000 ) ) ;
#44 = ORIENTED_EDGE ( 'NONE', *, *, #488, .F. ) ;
#45 = LINE ( 'NONE', #411, #660 ) ;
#46 = EDGE_CURVE ( 'NONE', #118, #224, #33, .T. ) ;
#47 = FACE_OUTER_BOUND ( 'NONE', #385, .T. ) ;
#48 = LINE ( 'NONE', #510, #544 ) ;
#49 = EDGE_LOOP ( 'NONE', ( #303, #513, #191, #157 ) ) ;
#50 = AXIS2_PLACEMENT_3D ( 'NONE', #145, #406, #100 ) ;
#51 =( GEOMETRIC_REPRESENTATION_CONTEXT ( 3 ) GLOBAL_UNCERTAINTY_ASSIGNED_CONTEXT ( ( #610 ) ) GLOBAL_UNIT_ASSIGNED_CONTEXT ( ( #128, #177, #384 ) ) REPRESENTATION_CONTEXT ( 'NONE', 'WORKASPACE' ) );
#52 = VECTOR ( 'NONE', #379, 1000.000000000000000 ) ;
#53 = CARTESIAN_POINT ( 'NONE',  ( 2.832229986354565909, 11.96789290339166989, 0.000000000000000000 ) ) ;
#54 = PLANE ( 'NONE',  #286 ) ;
#55 = ORIENTED_EDGE ( 'NONE', *, *, #174, .T. ) ;
#56 = CARTESIAN_POINT ( 'NONE',  ( 0.000000000000000000, 0.000000000000000000, 12.00000000000000000 ) ) ;
#57 = CARTESIAN_POINT ( 'NONE',  ( 22.21454157486616054, 14.45687827131529168, 12.00000000000000000 ) ) ;
#58 = EDGE_CURVE ( 'NONE', #247, #370, #248, .T. ) ;
#59 = ORIENTED_EDGE ( 'NONE', *, *, #244, .T. ) ;
#60 = CARTESIAN_POINT ( 'NONE',  ( 12.28507867091555283, 5.401208102912330666, 0.000000000000000000 ) ) ;
#61 = LINE ( 'NONE', #57, #646 ) ;
#62 = VERTEX_POINT ( 'NONE', #463 ) ;
#63 = CARTESIAN_POINT ( 'NONE',  ( 2.938144257330039366, 7.069357870776033614, 12.00000000000000000 ) ) ;
#64 = CARTESIAN_POINT ( 'NONE',  ( 11.91437872250139129, 13.79491407771858391, 12.00000000000000000 ) ) ;
#65 = PERSON_AND_ORGANIZATION ( #18446744073709551615, #18446744073709551615 ) ;
#66 = ORIENTED_EDGE ( 'NONE', *, *, #532, .T. ) ;
#67 = CARTESIAN_POINT ( 'NONE',  ( 0.000000000000000000, 15.50000000000000000, 0.000000000000000000 ) ) ;
#68 = EDGE_CURVE ( 'NONE', #118, #596, #602, .T. ) ;
#69 = APPROVAL_DATE_TIME ( #230, #276 ) ;
#70 = CARTESIAN_POINT ( 'NONE',  ( 0.000000000000000000, 15.50000000000000000, 0.000000000000000000 ) ) ;
#71 = DIRECTION ( 'NONE',  ( 1.000000000000000000, 0.000000000000000000, 0.000000000000000000 ) ) ;
#72 = ORIENTED_EDGE ( 'NONE', *, *, #458, .F. ) ;
#73 = VECTOR ( 'NONE', #556, 1000.000000000000000 ) ;
#74 = APPROVAL_PERSON_ORGANIZATION ( #534, #391, #483 ) ;
#75 = PERSON_AND_ORGANIZATION ( #18446744073709551615, #18446744073709551615 ) ;
#76 = EDGE_LOOP ( 'NONE', ( #422, #315, #427, #201 ) ) ;
#77 = CARTESIAN_POINT ( 'NONE',  ( 11.91437872250139129, 13.79491407771858391, 0.000000000000000000 ) ) ;
#78 = EDGE_CURVE ( 'NONE', #290, #35, #240, .T. ) ;
#79 = SHAPE_DEFINITION_REPRESENTATION ( #41, #484 ) ;
#80 = DIRECTION ( 'NONE',  ( 0.000000000000000000, -0.000000000000000000, 1.000000000000000000 ) ) ;
#81 = AXIS2_PLACEMENT_3D ( 'NONE', #583, #431, #490 ) ;
#82 = SECURITY_CLASSIFICATION ( '', '', #117 ) ;
#83 = LINE ( 'NONE', #638, #280 ) ;
#84 = ORIENTED_EDGE ( 'NONE', *, *, #608, .T. ) ;
#85 = ADVANCED_FACE ( 'NONE', ( #47 ), #197, .F. ) ;
#86 = DIRECTION ( 'NONE',  ( -0.000000000000000000, 1.000000000000000000, -0.000000000000000000 ) ) ;
#87 = EDGE_LOOP ( 'NONE', ( #645, #578, #261, #66 ) ) ;
#88 = ORIENTED_EDGE ( 'NONE', *, *, #493, .T. ) ;
#89 = LINE ( 'NONE', #183, #582 ) ;
#90 = ORIENTED_EDGE ( 'NONE', *, *, #127, .F. ) ;
#91 = CARTESIAN_POINT ( 'NONE',  ( 25.99999999999999645, 15.50000000000000000, 0.000000000000000000 ) ) ;
#92 = CARTESIAN_POINT ( 'NONE',  ( 11.91437872250139129, 13.79491407771858391, 0.000000000000000000 ) ) ;
#93 = CARTESIAN_POINT ( 'NONE',  ( 19.88442761340575515, 4.289108257669861146, 0.000000000000000000 ) ) ;
#94 = VERTEX_POINT ( 'NONE', #245 ) ;
#95 = VECTOR ( 'NONE', #254, 1000.000000000000000 ) ;
#96 = LINE ( 'NONE', #1, #148 ) ;
#97 = CARTESIAN_POINT ( 'NONE',  ( 2.938144257330039366, 5.401208102912331555, 0.000000000000000000 ) ) ;
#98 = ORIENTED_EDGE ( 'NONE', *, *, #160, .T. ) ;
#99 = EDGE_CURVE ( 'NONE', #215, #15, #354, .T. ) ;
#100 = DIRECTION ( 'NONE',  ( 0.000000000000000000, -0.000000000000000000, 1.000000000000000000 ) ) ;
#101 = DIRECTION ( 'NONE',  ( 0.000000000000000000, -0.000000000000000000, 1.000000000000000000 ) ) ;
#102 = ORIENTED_EDGE ( 'NONE', *, *, #109, .T. ) ;
#103 = PLANE ( 'NONE',  #50 ) ;
#104 = CARTESIAN_POINT ( 'NONE',  ( 0.000000000000000000, 15.50000000000000000, -23.50000000000000000 ) ) ;
#105 = EDGE_LOOP ( 'NONE', ( #300, #466, #374, #180 ) ) ;
#106 = VECTOR ( 'NONE', #169, 1000.000000000000000 ) ;
#107 = AXIS2_PLACEMENT_3D ( 'NONE', #641, #236, #246 ) ;
#108 = FACE_OUTER_BOUND ( 'NONE', #124, .T. ) ;
#109 = EDGE_CURVE ( 'NONE', #268, #352, #358, .T. ) ;
#110 = DIRECTION ( 'NONE',  ( -0.000000000000000000, 0.000000000000000000, 1.000000000000000000 ) ) ;
#111 = EDGE_LOOP ( 'NONE', ( #659, #72, #520, #531 ) ) ;
#112 = DIRECTION ( 'NONE',  ( 0.000000000000000000, -1.000000000000000000, 0.000000000000000000 ) ) ;
#113 = DIRECTION ( 'NONE',  ( -0.000000000000000000, 1.000000000000000000, -0.000000000000000000 ) ) ;
#114 = ORIENTED_EDGE ( 'NONE', *, *, #292, .T. ) ;
#115 = LINE ( 'NONE', #521, #106 ) ;
#116 = DIRECTION ( 'NONE',  ( 0.000000000000000000, -1.000000000000000000, 0.000000000000000000 ) ) ;
#117 = SECURITY_CLASSIFICATION_LEVEL ( 'unclassified' ) ;
#118 = VERTEX_POINT ( 'NONE', #416 ) ;
#119 = ADVANCED_FACE ( 'NONE', ( #475 ), #326, .F. ) ;
#120 = LINE ( 'NONE', #400, #620 ) ;
#121 = VECTOR ( 'NONE', #472, 1000.000000000000000 ) ;
#122 = PERSON_AND_ORGANIZATION ( #18446744073709551615, #18446744073709551615 ) ;
#123 = DIRECTION ( 'NONE',  ( -1.000000000000000000, 0.000000000000000000, -0.000000000000000000 ) ) ;
#124 = EDGE_LOOP ( 'NONE', ( #467, #319, #398, #55 ) ) ;
#125 = DATE_TIME_ROLE ( 'creation_date' ) ;
#126 = LOCAL_TIME ( 18, 49, 50.00000000000000000, #585 ) ;
#127 = EDGE_CURVE ( 'NONE', #94, #288, #200, .T. ) ;
#128 =( LENGTH_UNIT ( ) NAMED_UNIT ( * ) SI_UNIT ( .MILLI., .METRE. ) );
#129 = CARTESIAN_POINT ( 'NONE',  ( 0.000000000000000000, 15.50000000000000000, 0.000000000000000000 ) ) ;
#130 = CARTESIAN_POINT ( 'NONE',  ( 0.000000000000000000, 15.50000000000000000, -23.50000000000000000 ) ) ;
#131 = EDGE_CURVE ( 'NONE', #288, #268, #37, .T. ) ;
#132 = VECTOR ( 'NONE', #327, 1000.000000000000000 ) ;
#133 = AXIS2_PLACEMENT_3D ( 'NONE', #56, #627, #474 ) ;
#134 = PLANE ( 'NONE',  #486 ) ;
#135 = ORIENTED_EDGE ( 'NONE', *, *, #182, .F. ) ;
#136 = CC_DESIGN_DATE_AND_TIME_ASSIGNMENT ( #14, #125, ( #539 ) ) ;
#137 = CALENDAR_DATE ( 2026, 22, 6 ) ;
#138 = ORIENTED_EDGE ( 'NONE', *, *, #179, .F. ) ;
#139 = LINE ( 'NONE', #548, #323 ) ;
#140 = VERTEX_POINT ( 'NONE', #91 ) ;
#141 = VERTEX_POINT ( 'NONE', #462 ) ;
#142 = PLANE ( 'NONE',  #516 ) ;
#143 = EDGE_LOOP ( 'NONE', ( #527, #159, #404, #235 ) ) ;
#144 = CARTESIAN_POINT ( 'NONE',  ( 19.88442761340575515, 14.45687827131529168, 12.00000000000000000 ) ) ;
#145 = CARTESIAN_POINT ( 'NONE',  ( 2.938144257330039366, 5.401208102912331555, 12.00000000000000000 ) ) ;
#146 = EDGE_CURVE ( 'NONE', #141, #606, #295, .T. ) ;
#147 = CARTESIAN_POINT ( 'NONE',  ( 0.000000000000000000, 0.000000000000000000, 12.00000000000000000 ) ) ;
#148 = VECTOR ( 'NONE', #42, 1000.000000000000000 ) ;
#149 = ORIENTED_EDGE ( 'NONE', *, *, #30, .F. ) ;
#150 = CC_DESIGN_APPROVAL ( #276, ( #36 ) ) ;
#151 = CARTESIAN_POINT ( 'NONE',  ( 0.000000000000000000, 15.50000000000000000, 0.000000000000000000 ) ) ;
#152 = DIRECTION ( 'NONE',  ( 1.000000000000000000, 0.000000000000000000, 0.000000000000000000 ) ) ;
#153 = MANIFOLD_SOLID_BREP ( 'Boss-Extrude2', #255 ) ;
#154 = CC_DESIGN_DATE_AND_TIME_ASSIGNMENT ( #628, #581, ( #82 ) ) ;
#155 = CARTESIAN_POINT ( 'NONE',  ( 2.832229986354565909, 13.79491407771858391, 12.00000000000000000 ) ) ;
#156 = ORIENTED_EDGE ( 'NONE', *, *, #160, .F. ) ;
#157 = ORIENTED_EDGE ( 'NONE', *, *, #127, .T. ) ;
#158 = LINE ( 'NONE', #373, #570 ) ;
#159 = ORIENTED_EDGE ( 'NONE', *, *, #335, .F. ) ;
#160 = EDGE_CURVE ( 'NONE', #370, #461, #651, .T. ) ;
#161 = CARTESIAN_POINT ( 'NONE',  ( 2.832229986354565909, 13.79491407771858391, 12.00000000000000000 ) ) ;
#162 = CARTESIAN_POINT ( 'NONE',  ( 19.88442761340575515, 4.289108257669862034, 12.00000000000000000 ) ) ;
#163 = ORIENTED_EDGE ( 'NONE', *, *, #146, .T. ) ;
#164 = AXIS2_PLACEMENT_3D ( 'NONE', #64, #436, #204 ) ;
#165 = VECTOR ( 'NONE', #307, 1000.000000000000000 ) ;
#166 = CARTESIAN_POINT ( 'NONE',  ( 2.832229986354565909, 13.79491407771858391, 12.00000000000000000 ) ) ;
#167 = LINE ( 'NONE', #460, #530 ) ;
#168 = EDGE_LOOP ( 'NONE', ( #102, #639, #495, #572 ) ) ;
#169 = DIRECTION ( 'NONE',  ( -1.000000000000000000, -0.000000000000000000, -0.000000000000000000 ) ) ;
#170 = CALENDAR_DATE ( 2026, 22, 6 ) ;
#171 = EDGE_LOOP ( 'NONE', ( #604, #501, #256, #88 ) ) ;
#172 = CARTESIAN_POINT ( 'NONE',  ( 19.88442761340575515, 14.45687827131529168, 0.000000000000000000 ) ) ;
#173 = PERSON_AND_ORGANIZATION ( #18446744073709551615, #18446744073709551615 ) ;
#174 = EDGE_CURVE ( 'NONE', #224, #360, #457, .T. ) ;
#175 = DIRECTION ( 'NONE',  ( 0.000000000000000000, -1.000000000000000000, 0.000000000000000000 ) ) ;
#176 = LOCAL_TIME ( 18, 49, 50.00000000000000000, #18 ) ;
#177 =( NAMED_UNIT ( * ) PLANE_ANGLE_UNIT ( ) SI_UNIT ( $, .RADIAN. ) );
#178 = PERSON_AND_ORGANIZATION_ROLE ( 'creator' ) ;
#179 = EDGE_CURVE ( 'NONE', #141, #247, #615, .T. ) ;
#180 = ORIENTED_EDGE ( 'NONE', *, *, #564, .F. ) ;
#181 = CARTESIAN_POINT ( 'NONE',  ( 25.99999999999999645, 0.000000000000000000, -23.50000000000000000 ) ) ;
#182 = EDGE_CURVE ( 'NONE', #15, #238, #415, .T. ) ;
#183 = CARTESIAN_POINT ( 'NONE',  ( 2.938144257330039366, 7.069357870776033614, 12.00000000000000000 ) ) ;
#184 = APPROVAL_ROLE ( '' ) ;
#185 = DIRECTION ( 'NONE',  ( -1.000000000000000000, 0.000000000000000000, 0.000000000000000000 ) ) ;
#186 = LINE ( 'NONE', #130, #13 ) ;
#187 = ORIENTED_EDGE ( 'NONE', *, *, #346, .T. ) ;
#188 = AXIS2_PLACEMENT_3D ( 'NONE', #636, #316, #428 ) ;
#189 = VECTOR ( 'NONE', #198, 1000.000000000000000 ) ;
#190 = CARTESIAN_POINT ( 'NONE',  ( 22.21454157486616054, 14.45687827131529168, 12.00000000000000000 ) ) ;
#191 = ORIENTED_EDGE ( 'NONE', *, *, #614, .T. ) ;
#192 = CARTESIAN_POINT ( 'NONE',  ( 19.88442761340575515, 14.45687827131529168, 12.00000000000000000 ) ) ;
#193 = CARTESIAN_POINT ( 'NONE',  ( 19.88442761340575515, 14.45687827131529168, 0.000000000000000000 ) ) ;
#194 = ORIENTED_EDGE ( 'NONE', *, *, #656, .F. ) ;
#195 = DIRECTION ( 'NONE',  ( 1.000000000000000000, 0.000000000000000000, 0.000000000000000000 ) ) ;
#196 = EDGE_CURVE ( 'NONE', #606, #370, #45, .T. ) ;
#197 = PLANE ( 'NONE',  #448 ) ;
#198 = DIRECTION ( 'NONE',  ( -0.000000000000000000, -0.000000000000000000, -1.000000000000000000 ) ) ;
#199 = ORIENTED_EDGE ( 'NONE', *, *, #633, .T. ) ;
#200 = LINE ( 'NONE', #144, #285 ) ;
#201 = ORIENTED_EDGE ( 'NONE', *, *, #335, .T. ) ;
#202 = LINE ( 'NONE', #413, #342 ) ;
#203 = EDGE_LOOP ( 'NONE', ( #565, #220, #452, #59 ) ) ;
#204 = DIRECTION ( 'NONE',  ( 0.000000000000000000, 0.000000000000000000, 1.000000000000000000 ) ) ;
#205 = CARTESIAN_POINT ( 'NONE',  ( 19.88442761340575515, 14.45687827131529168, 0.000000000000000000 ) ) ;
#206 = FACE_OUTER_BOUND ( 'NONE', #294, .T. ) ;
#207 = ADVANCED_FACE ( 'NONE', ( #439 ), #643, .F. ) ;
#208 = ORIENTED_EDGE ( 'NONE', *, *, #99, .F. ) ;
#209 = DIRECTION ( 'NONE',  ( -0.000000000000000000, -0.000000000000000000, -1.000000000000000000 ) ) ;
#210 = ORIENTED_EDGE ( 'NONE', *, *, #493, .F. ) ;
#211 = CARTESIAN_POINT ( 'NONE',  ( 2.938144257330039366, 7.069357870776033614, 12.00000000000000000 ) ) ;
#212 = EDGE_LOOP ( 'NONE', ( #613, #412, #199, #356 ) ) ;
#213 = LINE ( 'NONE', #419, #343 ) ;
#214 = DIRECTION ( 'NONE',  ( -0.000000000000000000, 1.000000000000000000, -0.000000000000000000 ) ) ;
#215 = VERTEX_POINT ( 'NONE', #9 ) ;
#216 = VECTOR ( 'NONE', #504, 1000.000000000000000 ) ;
#217 = AXIS2_PLACEMENT_3D ( 'NONE', #658, #465, #625 ) ;
#218 = FACE_OUTER_BOUND ( 'NONE', #626, .T. ) ;
#219 = APPROVAL_ROLE ( '' ) ;
#220 = ORIENTED_EDGE ( 'NONE', *, *, #26, .F. ) ;
#221 = FACE_OUTER_BOUND ( 'NONE', #203, .T. ) ;
#222 = EDGE_CURVE ( 'NONE', #394, #118, #369, .T. ) ;
#223 = CALENDAR_DATE ( 2026, 22, 6 ) ;
#224 = VERTEX_POINT ( 'NONE', #525 ) ;
#225 = FACE_OUTER_BOUND ( 'NONE', #609, .T. ) ;
#226 = CC_DESIGN_PERSON_AND_ORGANIZATION_ASSIGNMENT ( #173, #376, ( #36 ) ) ;
#227 = VECTOR ( 'NONE', #375, 1000.000000000000000 ) ;
#228 = APPLICATION_PROTOCOL_DEFINITION ( 'international standard', 'config_control_design', 1994, #266 ) ;
#229 = ADVANCED_FACE ( 'NONE', ( #225 ), #576, .F. ) ;
#230 = DATE_AND_TIME ( #223, #421 ) ;
#231 = CC_DESIGN_PERSON_AND_ORGANIZATION_ASSIGNMENT ( #487, #178, ( #539 ) ) ;
#232 = CARTESIAN_POINT ( 'NONE',  ( 2.938144257330039366, 7.069357870776033614, 0.000000000000000000 ) ) ;
#233 = VECTOR ( 'NONE', #289, 1000.000000000000000 ) ;
#234 = CARTESIAN_POINT ( 'NONE',  ( 25.99999999999999645, 15.50000000000000000, 0.000000000000000000 ) ) ;
#235 = ORIENTED_EDGE ( 'NONE', *, *, #68, .T. ) ;
#236 = DIRECTION ( 'NONE',  ( 1.000000000000000000, 0.000000000000000000, -0.000000000000000000 ) ) ;
#237 = DIRECTION ( 'NONE',  ( 0.000000000000000000, -1.000000000000000000, 0.000000000000000000 ) ) ;
#238 = VERTEX_POINT ( 'NONE', #60 ) ;
#239 = DATE_AND_TIME ( #137, #588 ) ;
#240 = LINE ( 'NONE', #450, #216 ) ;
#241 = LOCAL_TIME ( 18, 49, 50.00000000000000000, #435 ) ;
#242 = DIRECTION ( 'NONE',  ( -0.000000000000000000, -1.000000000000000000, -0.000000000000000000 ) ) ;
#243 = ORIENTED_EDGE ( 'NONE', *, *, #507, .F. ) ;
#244 = EDGE_CURVE ( 'NONE', #345, #515, #528, .T. ) ;
#245 = CARTESIAN_POINT ( 'NONE',  ( 22.21454157486616054, 14.45687827131529168, 12.00000000000000000 ) ) ;
#246 = DIRECTION ( 'NONE',  ( -0.000000000000000000, 0.000000000000000000, -1.000000000000000000 ) ) ;
#247 = VERTEX_POINT ( 'NONE', #70 ) ;
#248 = LINE ( 'NONE', #297, #580 ) ;
#249 = DIRECTION ( 'NONE',  ( 0.000000000000000000, -0.000000000000000000, -1.000000000000000000 ) ) ;
#250 = VERTEX_POINT ( 'NONE', #278 ) ;
#251 = EDGE_CURVE ( 'NONE', #10, #596, #272, .T. ) ;
#252 = CARTESIAN_POINT ( 'NONE',  ( 0.000000000000000000, 15.50000000000000000, 0.000000000000000000 ) ) ;
#253 = VECTOR ( 'NONE', #480, 1000.000000000000000 ) ;
#254 = DIRECTION ( 'NONE',  ( 1.000000000000000000, 0.000000000000000000, 0.000000000000000000 ) ) ;
#255 = CLOSED_SHELL ( 'NONE', ( #271, #85, #395, #569, #381, #279, #429, #469, #119, #536, #318, #304, #11, #207, #624, #584, #21, #557, #443, #229, #647 ) ) ;
#256 = ORIENTED_EDGE ( 'NONE', *, *, #633, .F. ) ;
#257 = CC_DESIGN_APPROVAL ( #425, ( #82 ) ) ;
#258 = PLANE ( 'NONE',  #619 ) ;
#259 = EDGE_CURVE ( 'NONE', #650, #6, #115, .T. ) ;
#260 = DIRECTION ( 'NONE',  ( 0.000000000000000000, 0.000000000000000000, 1.000000000000000000 ) ) ;
#261 = ORIENTED_EDGE ( 'NONE', *, *, #496, .F. ) ;
#262 = LINE ( 'NONE', #166, #605 ) ;
#263 = LINE ( 'NONE', #162, #464 ) ;
#264 = ORIENTED_EDGE ( 'NONE', *, *, #146, .F. ) ;
#265 = PLANE ( 'NONE',  #133 ) ;
#266 = APPLICATION_CONTEXT ( 'configuration controlled 3d designs of mechanical parts and assemblies' ) ;
#267 = LINE ( 'NONE', #653, #95 ) ;
#268 = VERTEX_POINT ( 'NONE', #172 ) ;
#269 = VECTOR ( 'NONE', #357, 1000.000000000000000 ) ;
#270 = VECTOR ( 'NONE', #497, 1000.000000000000000 ) ;
#271 = ADVANCED_FACE ( 'NONE', ( #324, #482, #313, #371 ), #320, .F. ) ;
#272 = LINE ( 'NONE', #573, #253 ) ;
#273 = PERSON_AND_ORGANIZATION_ROLE ( 'classification_officer' ) ;
#274 = ORIENTED_EDGE ( 'NONE', *, *, #551, .T. ) ;
#275 = DIRECTION ( 'NONE',  ( -0.000000000000000000, -0.000000000000000000, -1.000000000000000000 ) ) ;
#276 = APPROVAL ( #529, 'Coincident' ) ;
#277 = APPROVAL_STATUS ( 'not_yet_approved' ) ;
#278 = CARTESIAN_POINT ( 'NONE',  ( 25.99999999999999645, 15.50000000000000000, -23.50000000000000000 ) ) ;
#279 = ADVANCED_FACE ( 'NONE', ( #218 ), #568, .T. ) ;
#280 = VECTOR ( 'NONE', #542, 1000.000000000000000 ) ;
#281 = PERSON_AND_ORGANIZATION_ROLE ( 'design_owner' ) ;
#282 = ORIENTED_EDGE ( 'NONE', *, *, #590, .F. ) ;
#283 = DIRECTION ( 'NONE',  ( -0.000000000000000000, -0.000000000000000000, -1.000000000000000000 ) ) ;
#284 = EDGE_CURVE ( 'NONE', #288, #322, #20, .T. ) ;
#285 = VECTOR ( 'NONE', #508, 1000.000000000000000 ) ;
#286 = AXIS2_PLACEMENT_3D ( 'NONE', #104, #260, #2 ) ;
#287 = DIRECTION ( 'NONE',  ( 1.000000000000000000, 0.000000000000000000, 0.000000000000000000 ) ) ;
#288 = VERTEX_POINT ( 'NONE', #629 ) ;
#289 = DIRECTION ( 'NONE',  ( -1.000000000000000000, -0.000000000000000000, -0.000000000000000000 ) ) ;
#290 = VERTEX_POINT ( 'NONE', #25 ) ;
#291 = CARTESIAN_POINT ( 'NONE',  ( 2.832229986354565909, 13.79491407771858391, 0.000000000000000000 ) ) ;
#292 = EDGE_CURVE ( 'NONE', #250, #479, #471, .T. ) ;
#293 = DIRECTION ( 'NONE',  ( 0.000000000000000000, -0.000000000000000000, -1.000000000000000000 ) ) ;
#294 = EDGE_LOOP ( 'NONE', ( #349, #264, #350, #114 ) ) ;
#295 = LINE ( 'NONE', #502, #332 ) ;
#296 = VECTOR ( 'NONE', #209, 1000.000000000000000 ) ;
#297 = CARTESIAN_POINT ( 'NONE',  ( 0.000000000000000000, 15.50000000000000000, 0.000000000000000000 ) ) ;
#298 = EDGE_CURVE ( 'NONE', #515, #32, #7, .T. ) ;
#299 = DIRECTION ( 'NONE',  ( -1.000000000000000000, -0.000000000000000000, -0.000000000000000000 ) ) ;
#300 = ORIENTED_EDGE ( 'NONE', *, *, #298, .F. ) ;
#301 = ORIENTED_EDGE ( 'NONE', *, *, #58, .T. ) ;
#302 = LINE ( 'NONE', #97, #165 ) ;
#303 = ORIENTED_EDGE ( 'NONE', *, *, #284, .T. ) ;
#304 = ADVANCED_FACE ( 'NONE', ( #221 ), #440, .F. ) ;
#305 = CARTESIAN_POINT ( 'NONE',  ( 19.88442761340575515, 14.45687827131529168, 12.00000000000000000 ) ) ;
#306 = DIRECTION ( 'NONE',  ( -0.000000000000000000, -0.000000000000000000, -1.000000000000000000 ) ) ;
#307 = DIRECTION ( 'NONE',  ( 1.000000000000000000, 0.000000000000000000, 0.000000000000000000 ) ) ;
#308 = ORIENTED_EDGE ( 'NONE', *, *, #346, .F. ) ;
#309 = DIRECTION ( 'NONE',  ( -0.000000000000000000, 0.000000000000000000, -1.000000000000000000 ) ) ;
#310 = DIRECTION ( 'NONE',  ( -0.000000000000000000, -0.000000000000000000, -1.000000000000000000 ) ) ;
#311 = AXIS2_PLACEMENT_3D ( 'NONE', #190, #592, #336 ) ;
#312 = ORIENTED_EDGE ( 'NONE', *, *, #517, .F. ) ;
#313 = FACE_BOUND ( 'NONE', #401, .T. ) ;
#314 = DIRECTION ( 'NONE',  ( -0.000000000000000000, -0.000000000000000000, -1.000000000000000000 ) ) ;
#315 = ORIENTED_EDGE ( 'NONE', *, *, #328, .F. ) ;
#316 = DIRECTION ( 'NONE',  ( 1.000000000000000000, 0.000000000000000000, -0.000000000000000000 ) ) ;
#317 = DIRECTION ( 'NONE',  ( 0.000000000000000000, -0.000000000000000000, -1.000000000000000000 ) ) ;
#318 = ADVANCED_FACE ( 'NONE', ( #108 ), #265, .T. ) ;
#319 = ORIENTED_EDGE ( 'NONE', *, *, #222, .T. ) ;
#320 = PLANE ( 'NONE',  #630 ) ;
#321 = PERSON_AND_ORGANIZATION ( #18446744073709551615, #18446744073709551615 ) ;
#322 = VERTEX_POINT ( 'NONE', #378 ) ;
#323 = VECTOR ( 'NONE', #644, 1000.000000000000000 ) ;
#324 = FACE_BOUND ( 'NONE', #105, .T. ) ;
#325 = DIRECTION ( 'NONE',  ( 0.000000000000000000, 0.000000000000000000, 1.000000000000000000 ) ) ;
#326 = PLANE ( 'NONE',  #164 ) ;
#327 = DIRECTION ( 'NONE',  ( 0.000000000000000000, -1.000000000000000000, 0.000000000000000000 ) ) ;
#328 = EDGE_CURVE ( 'NONE', #360, #6, #262, .T. ) ;
#329 = APPROVAL_STATUS ( 'not_yet_approved' ) ;
#330 = CC_DESIGN_PERSON_AND_ORGANIZATION_ASSIGNMENT ( #65, #273, ( #82 ) ) ;
#331 = COORDINATED_UNIVERSAL_TIME_OFFSET ( 10, 0, .AHEAD. ) ;
#332 = VECTOR ( 'NONE', #453, 1000.000000000000000 ) ;
#333 = CC_DESIGN_APPROVAL ( #391, ( #539 ) ) ;
#334 = PERSON_AND_ORGANIZATION_ROLE ( 'design_supplier' ) ;
#335 = EDGE_CURVE ( 'NONE', #224, #650, #213, .T. ) ;
#336 = DIRECTION ( 'NONE',  ( 0.000000000000000000, 0.000000000000000000, 1.000000000000000000 ) ) ;
#337 = VERTEX_POINT ( 'NONE', #533 ) ;
#338 = APPLICATION_CONTEXT ( 'configuration controlled 3d designs of mechanical parts and assemblies' ) ;
#339 = DIRECTION ( 'NONE',  ( 0.000000000000000000, 1.000000000000000000, 0.000000000000000000 ) ) ;
#340 = ORIENTED_EDGE ( 'NONE', *, *, #608, .F. ) ;
#341 = AXIS2_PLACEMENT_3D ( 'NONE', #16, #112, #424 ) ;
#342 = VECTOR ( 'NONE', #113, 1000.000000000000000 ) ;
#343 = VECTOR ( 'NONE', #12, 1000.000000000000000 ) ;
#344 = LINE ( 'NONE', #494, #270 ) ;
#345 = VERTEX_POINT ( 'NONE', #623 ) ;
#346 = EDGE_CURVE ( 'NONE', #15, #62, #120, .T. ) ;
#347 = DIRECTION ( 'NONE',  ( 1.000000000000000000, 0.000000000000000000, -0.000000000000000000 ) ) ;
#348 = CARTESIAN_POINT ( 'NONE',  ( 25.99999999999999645, 0.000000000000000000, 0.000000000000000000 ) ) ;
#349 = ORIENTED_EDGE ( 'NONE', *, *, #656, .T. ) ;
#350 = ORIENTED_EDGE ( 'NONE', *, *, #438, .F. ) ;
#351 = DIRECTION ( 'NONE',  ( 0.000000000000000000, -1.000000000000000000, 0.000000000000000000 ) ) ;
#352 = VERTEX_POINT ( 'NONE', #93 ) ;
#353 = VECTOR ( 'NONE', #367, 1000.000000000000000 ) ;
#354 = LINE ( 'NONE', #657, #587 ) ;
#355 = PLANE ( 'NONE',  #661 ) ;
#356 = ORIENTED_EDGE ( 'NONE', *, *, #438, .T. ) ;
#357 = DIRECTION ( 'NONE',  ( -0.000000000000000000, -0.000000000000000000, 1.000000000000000000 ) ) ;
#358 = LINE ( 'NONE', #205, #22 ) ;
#359 = FACE_OUTER_BOUND ( 'NONE', #76, .T. ) ;
#360 = VERTEX_POINT ( 'NONE', #393 ) ;
#361 = PRODUCT_RELATED_PRODUCT_CATEGORY ( 'detail', '', ( #405 ) ) ;
#362 = DIRECTION ( 'NONE',  ( -0.000000000000000000, -0.000000000000000000, 1.000000000000000000 ) ) ;
#363 = FACE_OUTER_BOUND ( 'NONE', #575, .T. ) ;
#364 = CARTESIAN_POINT ( 'NONE',  ( 22.21454157486616054, 14.45687827131529168, 12.00000000000000000 ) ) ;
#365 = ORIENTED_EDGE ( 'NONE', *, *, #551, .F. ) ;
#366 = DIRECTION ( 'NONE',  ( -0.000000000000000000, -0.000000000000000000, -1.000000000000000000 ) ) ;
#367 = DIRECTION ( 'NONE',  ( 1.000000000000000000, 0.000000000000000000, 0.000000000000000000 ) ) ;
#368 = LINE ( 'NONE', #607, #121 ) ;
#369 = LINE ( 'NONE', #522, #353 ) ;
#370 = VERTEX_POINT ( 'NONE', #540 ) ;
#371 = FACE_BOUND ( 'NONE', #111, .T. ) ;
#372 = EDGE_CURVE ( 'NONE', #337, #515, #83, .T. ) ;
#373 = CARTESIAN_POINT ( 'NONE',  ( 22.21454157486616054, 4.289108257669862034, 12.00000000000000000 ) ) ;
#374 = ORIENTED_EDGE ( 'NONE', *, *, #577, .F. ) ;
#375 = DIRECTION ( 'NONE',  ( -0.000000000000000000, -1.000000000000000000, -0.000000000000000000 ) ) ;
#376 = PERSON_AND_ORGANIZATION_ROLE ( 'creator' ) ;
#377 = ORIENTED_EDGE ( 'NONE', *, *, #244, .F. ) ;
#378 = CARTESIAN_POINT ( 'NONE',  ( 19.88442761340575515, 4.289108257669862034, 12.00000000000000000 ) ) ;
#379 = DIRECTION ( 'NONE',  ( -1.000000000000000000, -0.000000000000000000, -0.000000000000000000 ) ) ;
#380 = AXIS2_PLACEMENT_3D ( 'NONE', #640, #185, #325 ) ;
#381 = ADVANCED_FACE ( 'NONE', ( #545 ), #142, .F. ) ;
#382 = APPROVAL_PERSON_ORGANIZATION ( #321, #276, #219 ) ;
#383 = CARTESIAN_POINT ( 'NONE',  ( 19.88442761340575515, 14.45687827131529168, 12.00000000000000000 ) ) ;
#384 =( NAMED_UNIT ( * ) SI_UNIT ( $, .STERADIAN. ) SOLID_ANGLE_UNIT ( ) );
#385 = EDGE_LOOP ( 'NONE', ( #40, #447, #138, #163 ) ) ;
#386 = CARTESIAN_POINT ( 'NONE',  ( 0.000000000000000000, 0.000000000000000000, 0.000000000000000000 ) ) ;
#387 = VECTOR ( 'NONE', #306, 1000.000000000000000 ) ;
#388 = AXIS2_PLACEMENT_3D ( 'NONE', #155, #523, #317 ) ;
#389 = EDGE_CURVE ( 'NONE', #345, #215, #89, .T. ) ;
#390 = DIRECTION ( 'NONE',  ( 0.000000000000000000, 0.000000000000000000, 1.000000000000000000 ) ) ;
#391 = APPROVAL ( #329, 'Coincident' ) ;
#392 = PLANE ( 'NONE',  #478 ) ;
#393 = CARTESIAN_POINT ( 'NONE',  ( 2.832229986354565909, 13.79491407771858391, 12.00000000000000000 ) ) ;
#394 = VERTEX_POINT ( 'NONE', #28 ) ;
#395 = ADVANCED_FACE ( 'NONE', ( #451 ), #392, .F. ) ;
#396 = VECTOR ( 'NONE', #34, 1000.000000000000000 ) ;
#397 = LINE ( 'NONE', #129, #449 ) ;
#398 = ORIENTED_EDGE ( 'NONE', *, *, #46, .T. ) ;
#399 = CARTESIAN_POINT ( 'NONE',  ( 11.91437872250139129, 13.79491407771858391, 12.00000000000000000 ) ) ;
#400 = CARTESIAN_POINT ( 'NONE',  ( 12.28507867091555283, 7.069357870776033614, 12.00000000000000000 ) ) ;
#401 = EDGE_LOOP ( 'NONE', ( #593, #622, #149, #518 ) ) ;
#402 = DIRECTION ( 'NONE',  ( 1.000000000000000000, -0.000000000000000000, 0.000000000000000000 ) ) ;
#403 = DIRECTION ( 'NONE',  ( 0.000000000000000000, 0.000000000000000000, -1.000000000000000000 ) ) ;
#404 = ORIENTED_EDGE ( 'NONE', *, *, #46, .F. ) ;
#405 = PRODUCT ( 'Willow Durakool DG82 Series Automotive Relays', 'Willow Durakool DG82 Series Automotive Relays', '', ( #631 ) ) ;
#406 = DIRECTION ( 'NONE',  ( 0.000000000000000000, 1.000000000000000000, 0.000000000000000000 ) ) ;
#407 = AXIS2_PLACEMENT_3D ( 'NONE', #147, #110, #526 ) ;
#408 = EDGE_CURVE ( 'NONE', #394, #10, #455, .T. ) ;
#409 = CARTESIAN_POINT ( 'NONE',  ( 0.000000000000000000, 0.000000000000000000, -23.50000000000000000 ) ) ;
#410 = ORIENTED_EDGE ( 'NONE', *, *, #68, .F. ) ;
#411 = CARTESIAN_POINT ( 'NONE',  ( 0.000000000000000000, 0.000000000000000000, 0.000000000000000000 ) ) ;
#412 = ORIENTED_EDGE ( 'NONE', *, *, #507, .T. ) ;
#413 = CARTESIAN_POINT ( 'NONE',  ( 12.28507867091555283, 7.069357870776033614, 0.000000000000000000 ) ) ;
#414 = ORIENTED_EDGE ( 'NONE', *, *, #99, .T. ) ;
#415 = LINE ( 'NONE', #560, #635 ) ;
#416 = CARTESIAN_POINT ( 'NONE',  ( 11.91437872250139129, 11.96789290339166989, 12.00000000000000000 ) ) ;
#417 = FACE_OUTER_BOUND ( 'NONE', #49, .T. ) ;
#418 = ORIENTED_EDGE ( 'NONE', *, *, #597, .T. ) ;
#419 = CARTESIAN_POINT ( 'NONE',  ( 11.91437872250139129, 13.79491407771858391, 12.00000000000000000 ) ) ;
#420 = FACE_OUTER_BOUND ( 'NONE', #601, .T. ) ;
#421 = LOCAL_TIME ( 18, 49, 50.00000000000000000, #331 ) ;
#422 = ORIENTED_EDGE ( 'NONE', *, *, #259, .T. ) ;
#423 = DESIGN_CONTEXT ( 'detailed design', #266, 'design' ) ;
#424 = DIRECTION ( 'NONE',  ( 0.000000000000000000, -0.000000000000000000, -1.000000000000000000 ) ) ;
#425 = APPROVAL ( #277, 'Coincident' ) ;
#426 = CARTESIAN_POINT ( 'NONE',  ( 0.000000000000000000, 0.000000000000000000, -23.50000000000000000 ) ) ;
#427 = ORIENTED_EDGE ( 'NONE', *, *, #174, .F. ) ;
#428 = DIRECTION ( 'NONE',  ( -0.000000000000000000, 0.000000000000000000, -1.000000000000000000 ) ) ;
#429 = ADVANCED_FACE ( 'NONE', ( #552 ), #444, .F. ) ;
#430 = CALENDAR_DATE ( 2026, 22, 6 ) ;
#431 = DIRECTION ( 'NONE',  ( 0.000000000000000000, -1.000000000000000000, 0.000000000000000000 ) ) ;
#432 = CALENDAR_DATE ( 2026, 22, 6 ) ;
#433 = VECTOR ( 'NONE', #454, 1000.000000000000000 ) ;
#434 = CC_DESIGN_SECURITY_CLASSIFICATION ( #82, ( #36 ) ) ;
#435 = COORDINATED_UNIVERSAL_TIME_OFFSET ( 10, 0, .AHEAD. ) ;
#436 = DIRECTION ( 'NONE',  ( -1.000000000000000000, 0.000000000000000000, 0.000000000000000000 ) ) ;
#437 = PERSON_AND_ORGANIZATION ( #18446744073709551615, #18446744073709551615 ) ;
#438 = EDGE_CURVE ( 'NONE', #250, #141, #186, .T. ) ;
#439 = FACE_OUTER_BOUND ( 'NONE', #611, .T. ) ;
#440 = PLANE ( 'NONE',  #188 ) ;
#441 = COORDINATED_UNIVERSAL_TIME_OFFSET ( 10, 0, .AHEAD. ) ;
#442 = FACE_OUTER_BOUND ( 'NONE', #642, .T. ) ;
#443 = ADVANCED_FACE ( 'NONE', ( #505 ), #31, .F. ) ;
#444 = PLANE ( 'NONE',  #107 ) ;
#445 = CC_DESIGN_PERSON_AND_ORGANIZATION_ASSIGNMENT ( #437, #334, ( #36 ) ) ;
#446 = LINE ( 'NONE', #500, #396 ) ;
#447 = ORIENTED_EDGE ( 'NONE', *, *, #58, .F. ) ;
#448 = AXIS2_PLACEMENT_3D ( 'NONE', #252, #402, #38 ) ;
#449 = VECTOR ( 'NONE', #287, 1000.000000000000000 ) ;
#450 = CARTESIAN_POINT ( 'NONE',  ( 22.21454157486616054, 14.45687827131529168, 0.000000000000000000 ) ) ;
#451 = FACE_OUTER_BOUND ( 'NONE', #171, .T. ) ;
#452 = ORIENTED_EDGE ( 'NONE', *, *, #389, .F. ) ;
#453 = DIRECTION ( 'NONE',  ( -0.000000000000000000, -1.000000000000000000, -0.000000000000000000 ) ) ;
#454 = DIRECTION ( 'NONE',  ( -0.000000000000000000, 1.000000000000000000, -0.000000000000000000 ) ) ;
#455 = LINE ( 'NONE', #600, #23 ) ;
#456 = EDGE_LOOP ( 'NONE', ( #481, #340, #561, #418 ) ) ;
#457 = LINE ( 'NONE', #161, #554 ) ;
#458 = EDGE_CURVE ( 'NONE', #35, #268, #27, .T. ) ;
#459 = CARTESIAN_POINT ( 'NONE',  ( 11.91437872250139129, 11.96789290339166989, 12.00000000000000000 ) ) ;
#460 = CARTESIAN_POINT ( 'NONE',  ( 25.99999999999999645, 15.50000000000000000, 0.000000000000000000 ) ) ;
#461 = VERTEX_POINT ( 'NONE', #348 ) ;
#462 = CARTESIAN_POINT ( 'NONE',  ( 0.000000000000000000, 15.50000000000000000, -23.50000000000000000 ) ) ;
#463 = CARTESIAN_POINT ( 'NONE',  ( 12.28507867091555283, 7.069357870776033614, 12.00000000000000000 ) ) ;
#464 = VECTOR ( 'NONE', #310, 1000.000000000000000 ) ;
#465 = DIRECTION ( 'NONE',  ( -0.000000000000000000, 0.000000000000000000, 1.000000000000000000 ) ) ;
#466 = ORIENTED_EDGE ( 'NONE', *, *, #372, .F. ) ;
#467 = ORIENTED_EDGE ( 'NONE', *, *, #590, .T. ) ;
#468 = PLANE ( 'NONE',  #407 ) ;
#469 = ADVANCED_FACE ( 'NONE', ( #442 ), #134, .F. ) ;
#470 = EDGE_LOOP ( 'NONE', ( #98, #210, #243, #301 ) ) ;
#471 = LINE ( 'NONE', #535, #227 ) ;
#472 = DIRECTION ( 'NONE',  ( 0.000000000000000000, -1.000000000000000000, 0.000000000000000000 ) ) ;
#473 = ORIENTED_EDGE ( 'NONE', *, *, #541, .T. ) ;
#474 = DIRECTION ( 'NONE',  ( 1.000000000000000000, 0.000000000000000000, 0.000000000000000000 ) ) ;
#475 = FACE_OUTER_BOUND ( 'NONE', #143, .T. ) ;
#476 = VECTOR ( 'NONE', #195, 1000.000000000000000 ) ;
#477 = DATE_AND_TIME ( #170, #241 ) ;
#478 = AXIS2_PLACEMENT_3D ( 'NONE', #591, #649, #390 ) ;
#479 = VERTEX_POINT ( 'NONE', #181 ) ;
#480 = DIRECTION ( 'NONE',  ( 1.000000000000000000, 0.000000000000000000, 0.000000000000000000 ) ) ;
#481 = ORIENTED_EDGE ( 'NONE', *, *, #78, .T. ) ;
#482 = FACE_OUTER_BOUND ( 'NONE', #470, .T. ) ;
#483 = APPROVAL_ROLE ( '' ) ;
#484 = ADVANCED_BREP_SHAPE_REPRESENTATION ( 'Willow Durakool DG82 Series Automotive Relays', ( #153, #538 ), #51 ) ;
#485 = VECTOR ( 'NONE', #175, 1000.000000000000000 ) ;
#486 = AXIS2_PLACEMENT_3D ( 'NONE', #39, #339, #80 ) ;
#487 = PERSON_AND_ORGANIZATION ( #18446744073709551615, #18446744073709551615 ) ;
#488 = EDGE_CURVE ( 'NONE', #62, #345, #446, .T. ) ;
#489 = EDGE_LOOP ( 'NONE', ( #473, #29, #282, #563 ) ) ;
#490 = DIRECTION ( 'NONE',  ( 0.000000000000000000, -0.000000000000000000, -1.000000000000000000 ) ) ;
#491 = CARTESIAN_POINT ( 'NONE',  ( 0.000000000000000000, 15.50000000000000000, 0.000000000000000000 ) ) ;
#492 = VECTOR ( 'NONE', #314, 1000.000000000000000 ) ;
#493 = EDGE_CURVE ( 'NONE', #140, #461, #589, .T. ) ;
#494 = CARTESIAN_POINT ( 'NONE',  ( 25.99999999999999645, 0.000000000000000000, 0.000000000000000000 ) ) ;
#495 = ORIENTED_EDGE ( 'NONE', *, *, #284, .F. ) ;
#496 = EDGE_CURVE ( 'NONE', #322, #19, #139, .T. ) ;
#497 = DIRECTION ( 'NONE',  ( 0.000000000000000000, 0.000000000000000000, -1.000000000000000000 ) ) ;
#498 = ORIENTED_EDGE ( 'NONE', *, *, #196, .F. ) ;
#499 = CARTESIAN_POINT ( 'NONE',  ( 22.21454157486616054, 4.289108257669862034, 12.00000000000000000 ) ) ;
#500 = CARTESIAN_POINT ( 'NONE',  ( 2.938144257330039366, 7.069357870776033614, 12.00000000000000000 ) ) ;
#501 = ORIENTED_EDGE ( 'NONE', *, *, #292, .F. ) ;
#502 = CARTESIAN_POINT ( 'NONE',  ( 0.000000000000000000, 15.50000000000000000, -23.50000000000000000 ) ) ;
#503 = VECTOR ( 'NONE', #242, 1000.000000000000000 ) ;
#504 = DIRECTION ( 'NONE',  ( -0.000000000000000000, 1.000000000000000000, -0.000000000000000000 ) ) ;
#505 = FACE_OUTER_BOUND ( 'NONE', #456, .T. ) ;
#506 = ORIENTED_EDGE ( 'NONE', *, *, #408, .T. ) ;
#507 = EDGE_CURVE ( 'NONE', #247, #140, #397, .T. ) ;
#508 = DIRECTION ( 'NONE',  ( -1.000000000000000000, -0.000000000000000000, -0.000000000000000000 ) ) ;
#509 = ORIENTED_EDGE ( 'NONE', *, *, #372, .T. ) ;
#510 = CARTESIAN_POINT ( 'NONE',  ( 2.832229986354565909, 13.79491407771858391, 12.00000000000000000 ) ) ;
#511 = ORIENTED_EDGE ( 'NONE', *, *, #131, .F. ) ;
#512 = CARTESIAN_POINT ( 'NONE',  ( 0.000000000000000000, 0.000000000000000000, 0.000000000000000000 ) ) ;
#513 = ORIENTED_EDGE ( 'NONE', *, *, #496, .T. ) ;
#514 = CARTESIAN_POINT ( 'NONE',  ( 12.28507867091555283, 7.069357870776033614, 12.00000000000000000 ) ) ;
#515 = VERTEX_POINT ( 'NONE', #595 ) ;
#516 = AXIS2_PLACEMENT_3D ( 'NONE', #491, #351, #293 ) ;
#517 = EDGE_CURVE ( 'NONE', #461, #479, #344, .T. ) ;
#518 = ORIENTED_EDGE ( 'NONE', *, *, #251, .F. ) ;
#519 = DIRECTION ( 'NONE',  ( 0.000000000000000000, 1.000000000000000000, 0.000000000000000000 ) ) ;
#520 = ORIENTED_EDGE ( 'NONE', *, *, #78, .F. ) ;
#521 = CARTESIAN_POINT ( 'NONE',  ( 2.832229986354565909, 13.79491407771858391, 0.000000000000000000 ) ) ;
#522 = CARTESIAN_POINT ( 'NONE',  ( 2.832229986354565909, 11.96789290339166989, 12.00000000000000000 ) ) ;
#523 = DIRECTION ( 'NONE',  ( 0.000000000000000000, -1.000000000000000000, 0.000000000000000000 ) ) ;
#524 = ORIENTED_EDGE ( 'NONE', *, *, #222, .F. ) ;
#525 = CARTESIAN_POINT ( 'NONE',  ( 11.91437872250139129, 13.79491407771858391, 12.00000000000000000 ) ) ;
#526 = DIRECTION ( 'NONE',  ( 1.000000000000000000, 0.000000000000000000, 0.000000000000000000 ) ) ;
#527 = ORIENTED_EDGE ( 'NONE', *, *, #30, .T. ) ;
#528 = LINE ( 'NONE', #63, #543 ) ;
#529 = APPROVAL_STATUS ( 'not_yet_approved' ) ;
#530 = VECTOR ( 'NONE', #403, 1000.000000000000000 ) ;
#531 = ORIENTED_EDGE ( 'NONE', *, *, #637, .F. ) ;
#532 = EDGE_CURVE ( 'NONE', #322, #352, #263, .T. ) ;
#533 = CARTESIAN_POINT ( 'NONE',  ( 12.28507867091555283, 7.069357870776032726, 0.000000000000000000 ) ) ;
#534 = PERSON_AND_ORGANIZATION ( #18446744073709551615, #18446744073709551615 ) ;
#535 = CARTESIAN_POINT ( 'NONE',  ( 25.99999999999999645, 15.50000000000000000, -23.50000000000000000 ) ) ;
#536 = ADVANCED_FACE ( 'NONE', ( #359 ), #566, .F. ) ;
#537 = DIRECTION ( 'NONE',  ( 0.000000000000000000, 0.000000000000000000, 1.000000000000000000 ) ) ;
#538 = AXIS2_PLACEMENT_3D ( 'NONE', #386, #537, #71 ) ;
#539 = PRODUCT_DEFINITION ( 'General', '', #36, #423 ) ;
#540 = CARTESIAN_POINT ( 'NONE',  ( 0.000000000000000000, 0.000000000000000000, 0.000000000000000000 ) ) ;
#541 = EDGE_CURVE ( 'NONE', #6, #10, #368, .T. ) ;
#542 = DIRECTION ( 'NONE',  ( -1.000000000000000000, -0.000000000000000000, -0.000000000000000000 ) ) ;
#543 = VECTOR ( 'NONE', #275, 1000.000000000000000 ) ;
#544 = VECTOR ( 'NONE', #603, 1000.000000000000000 ) ;
#545 = FACE_OUTER_BOUND ( 'NONE', #212, .T. ) ;
#546 = ORIENTED_EDGE ( 'NONE', *, *, #251, .T. ) ;
#547 = CARTESIAN_POINT ( 'NONE',  ( 2.938144257330039366, 5.401208102912332443, 0.000000000000000000 ) ) ;
#548 = CARTESIAN_POINT ( 'NONE',  ( 19.88442761340575515, 4.289108257669862034, 12.00000000000000000 ) ) ;
#549 = ORIENTED_EDGE ( 'NONE', *, *, #182, .T. ) ;
#550 = ORIENTED_EDGE ( 'NONE', *, *, #389, .T. ) ;
#551 = EDGE_CURVE ( 'NONE', #62, #337, #574, .T. ) ;
#552 = FACE_OUTER_BOUND ( 'NONE', #489, .T. ) ;
#553 = ORIENTED_EDGE ( 'NONE', *, *, #458, .T. ) ;
#554 = VECTOR ( 'NONE', #655, 1000.000000000000000 ) ;
#555 = APPROVAL_PERSON_ORGANIZATION ( #122, #425, #184 ) ;
#556 = DIRECTION ( 'NONE',  ( -0.000000000000000000, 1.000000000000000000, -0.000000000000000000 ) ) ;
#557 = ADVANCED_FACE ( 'NONE', ( #571 ), #8, .F. ) ;
#558 = PLANE ( 'NONE',  #217 ) ;
#559 = ORIENTED_EDGE ( 'NONE', *, *, #488, .T. ) ;
#560 = CARTESIAN_POINT ( 'NONE',  ( 12.28507867091555283, 5.401208102912331555, 12.00000000000000000 ) ) ;
#561 = ORIENTED_EDGE ( 'NONE', *, *, #614, .F. ) ;
#562 = CARTESIAN_POINT ( 'NONE',  ( 19.88442761340575515, 4.289108257669862034, 12.00000000000000000 ) ) ;
#563 = ORIENTED_EDGE ( 'NONE', *, *, #328, .T. ) ;
#564 = EDGE_CURVE ( 'NONE', #32, #238, #302, .T. ) ;
#565 = ORIENTED_EDGE ( 'NONE', *, *, #298, .T. ) ;
#566 = PLANE ( 'NONE',  #388 ) ;
#567 = ORIENTED_EDGE ( 'NONE', *, *, #564, .T. ) ;
#568 = PLANE ( 'NONE',  #341 ) ;
#569 = ADVANCED_FACE ( 'NONE', ( #206 ), #54, .F. ) ;
#570 = VECTOR ( 'NONE', #43, 1000.000000000000000 ) ;
#571 = FACE_OUTER_BOUND ( 'NONE', #87, .T. ) ;
#572 = ORIENTED_EDGE ( 'NONE', *, *, #131, .T. ) ;
#573 = CARTESIAN_POINT ( 'NONE',  ( 2.832229986354565909, 11.96789290339166989, 0.000000000000000000 ) ) ;
#574 = LINE ( 'NONE', #514, #189 ) ;
#575 = EDGE_LOOP ( 'NONE', ( #567, #135, #208, #617 ) ) ;
#576 = PLANE ( 'NONE',  #81 ) ;
#577 = EDGE_CURVE ( 'NONE', #238, #337, #202, .T. ) ;
#578 = ORIENTED_EDGE ( 'NONE', *, *, #597, .F. ) ;
#579 = DIRECTION ( 'NONE',  ( -0.000000000000000000, -0.000000000000000000, -1.000000000000000000 ) ) ;
#580 = VECTOR ( 'NONE', #594, 1000.000000000000000 ) ;
#581 = DATE_TIME_ROLE ( 'classification_date' ) ;
#582 = VECTOR ( 'NONE', #237, 1000.000000000000000 ) ;
#583 = CARTESIAN_POINT ( 'NONE',  ( 19.88442761340575515, 14.45687827131529168, 12.00000000000000000 ) ) ;
#584 = ADVANCED_FACE ( 'NONE', ( #616 ), #468, .T. ) ;
#585 = COORDINATED_UNIVERSAL_TIME_OFFSET ( 10, 0, .AHEAD. ) ;
#586 = LINE ( 'NONE', #426, #52 ) ;
#587 = VECTOR ( 'NONE', #152, 1000.000000000000000 ) ;
#588 = LOCAL_TIME ( 18, 49, 50.00000000000000000, #441 ) ;
#589 = LINE ( 'NONE', #234, #503 ) ;
#590 = EDGE_CURVE ( 'NONE', #360, #394, #48, .T. ) ;
#591 = CARTESIAN_POINT ( 'NONE',  ( 25.99999999999999645, 15.50000000000000000, 0.000000000000000000 ) ) ;
#592 = DIRECTION ( 'NONE',  ( -1.000000000000000000, 0.000000000000000000, 0.000000000000000000 ) ) ;
#593 = ORIENTED_EDGE ( 'NONE', *, *, #541, .F. ) ;
#594 = DIRECTION ( 'NONE',  ( -0.000000000000000000, -1.000000000000000000, -0.000000000000000000 ) ) ;
#595 = CARTESIAN_POINT ( 'NONE',  ( 2.938144257330039366, 7.069357870776033614, 0.000000000000000000 ) ) ;
#596 = VERTEX_POINT ( 'NONE', #621 ) ;
#597 = EDGE_CURVE ( 'NONE', #19, #290, #158, .T. ) ;
#598 = APPROVAL_DATE_TIME ( #239, #425 ) ;
#599 = CARTESIAN_POINT ( 'NONE',  ( 12.28507867091555283, 5.401208102912331555, 12.00000000000000000 ) ) ;
#600 = CARTESIAN_POINT ( 'NONE',  ( 2.832229986354565909, 11.96789290339166989, 12.00000000000000000 ) ) ;
#601 = EDGE_LOOP ( 'NONE', ( #509, #377, #44, #274 ) ) ;
#602 = LINE ( 'NONE', #459, #387 ) ;
#603 = DIRECTION ( 'NONE',  ( 0.000000000000000000, -1.000000000000000000, 0.000000000000000000 ) ) ;
#604 = ORIENTED_EDGE ( 'NONE', *, *, #517, .T. ) ;
#605 = VECTOR ( 'NONE', #579, 1000.000000000000000 ) ;
#606 = VERTEX_POINT ( 'NONE', #409 ) ;
#607 = CARTESIAN_POINT ( 'NONE',  ( 2.832229986354565909, 13.79491407771858391, 0.000000000000000000 ) ) ;
#608 = EDGE_CURVE ( 'NONE', #94, #35, #5, .T. ) ;
#609 = EDGE_LOOP ( 'NONE', ( #553, #511, #90, #84 ) ) ;
#610 = UNCERTAINTY_MEASURE_WITH_UNIT (LENGTH_MEASURE( 1.000000000000000082E-05 ), #128, 'distance_accuracy_value', 'NONE');
#611 = EDGE_LOOP ( 'NONE', ( #3, #365, #308, #549 ) ) ;
#612 = DIRECTION ( 'NONE',  ( 0.000000000000000000, -1.000000000000000000, 0.000000000000000000 ) ) ;
#613 = ORIENTED_EDGE ( 'NONE', *, *, #179, .T. ) ;
#614 = EDGE_CURVE ( 'NONE', #19, #94, #61, .T. ) ;
#615 = LINE ( 'NONE', #151, #269 ) ;
#616 = FACE_OUTER_BOUND ( 'NONE', #654, .T. ) ;
#617 = ORIENTED_EDGE ( 'NONE', *, *, #26, .T. ) ;
#618 = DIRECTION ( 'NONE',  ( 0.000000000000000000, 0.000000000000000000, -1.000000000000000000 ) ) ;
#619 = AXIS2_PLACEMENT_3D ( 'NONE', #192, #347, #309 ) ;
#620 = VECTOR ( 'NONE', #86, 1000.000000000000000 ) ;
#621 = CARTESIAN_POINT ( 'NONE',  ( 11.91437872250139129, 11.96789290339166989, 0.000000000000000000 ) ) ;
#622 = ORIENTED_EDGE ( 'NONE', *, *, #259, .F. ) ;
#623 = CARTESIAN_POINT ( 'NONE',  ( 2.938144257330039366, 7.069357870776033614, 12.00000000000000000 ) ) ;
#624 = ADVANCED_FACE ( 'NONE', ( #420 ), #355, .F. ) ;
#625 = DIRECTION ( 'NONE',  ( 1.000000000000000000, 0.000000000000000000, 0.000000000000000000 ) ) ;
#626 = EDGE_LOOP ( 'NONE', ( #498, #194, #312, #156 ) ) ;
#627 = DIRECTION ( 'NONE',  ( -0.000000000000000000, 0.000000000000000000, 1.000000000000000000 ) ) ;
#628 = DATE_AND_TIME ( #430, #176 ) ;
#629 = CARTESIAN_POINT ( 'NONE',  ( 19.88442761340575515, 14.45687827131529168, 12.00000000000000000 ) ) ;
#630 = AXIS2_PLACEMENT_3D ( 'NONE', #67, #618, #123 ) ;
#631 = MECHANICAL_CONTEXT ( 'NONE', #338, 'mechanical' ) ;
#632 = AXIS2_PLACEMENT_3D ( 'NONE', #562, #519, #101 ) ;
#633 = EDGE_CURVE ( 'NONE', #140, #250, #167, .T. ) ;
#634 = APPROVAL_DATE_TIME ( #477, #391 ) ;
#635 = VECTOR ( 'NONE', #366, 1000.000000000000000 ) ;
#636 = CARTESIAN_POINT ( 'NONE',  ( 2.938144257330039366, 7.069357870776033614, 12.00000000000000000 ) ) ;
#637 = EDGE_CURVE ( 'NONE', #352, #290, #267, .T. ) ;
#638 = CARTESIAN_POINT ( 'NONE',  ( 2.938144257330039366, 7.069357870776033614, 0.000000000000000000 ) ) ;
#639 = ORIENTED_EDGE ( 'NONE', *, *, #532, .F. ) ;
#640 = CARTESIAN_POINT ( 'NONE',  ( 12.28507867091555283, 7.069357870776033614, 12.00000000000000000 ) ) ;
#641 = CARTESIAN_POINT ( 'NONE',  ( 2.832229986354565909, 13.79491407771858391, 12.00000000000000000 ) ) ;
#642 = EDGE_LOOP ( 'NONE', ( #546, #410, #524, #506 ) ) ;
#643 = PLANE ( 'NONE',  #380 ) ;
#644 = DIRECTION ( 'NONE',  ( 1.000000000000000000, 0.000000000000000000, 0.000000000000000000 ) ) ;
#645 = ORIENTED_EDGE ( 'NONE', *, *, #637, .T. ) ;
#646 = VECTOR ( 'NONE', #214, 1000.000000000000000 ) ;
#647 = ADVANCED_FACE ( 'NONE', ( #417 ), #558, .T. ) ;
#648 = FACE_OUTER_BOUND ( 'NONE', #168, .T. ) ;
#649 = DIRECTION ( 'NONE',  ( -1.000000000000000000, 0.000000000000000000, 0.000000000000000000 ) ) ;
#650 = VERTEX_POINT ( 'NONE', #77 ) ;
#651 = LINE ( 'NONE', #512, #476 ) ;
#652 = LINE ( 'NONE', #92, #433 ) ;
#653 = CARTESIAN_POINT ( 'NONE',  ( 19.88442761340575515, 4.289108257669862034, 0.000000000000000000 ) ) ;
#654 = EDGE_LOOP ( 'NONE', ( #550, #414, #187, #559 ) ) ;
#655 = DIRECTION ( 'NONE',  ( -1.000000000000000000, -0.000000000000000000, -0.000000000000000000 ) ) ;
#656 = EDGE_CURVE ( 'NONE', #479, #606, #586, .T. ) ;
#657 = CARTESIAN_POINT ( 'NONE',  ( 2.938144257330039366, 5.401208102912331555, 12.00000000000000000 ) ) ;
#658 = CARTESIAN_POINT ( 'NONE',  ( 0.000000000000000000, 0.000000000000000000, 12.00000000000000000 ) ) ;
#659 = ORIENTED_EDGE ( 'NONE', *, *, #109, .F. ) ;
#660 = VECTOR ( 'NONE', #362, 1000.000000000000000 ) ;
#661 = AXIS2_PLACEMENT_3D ( 'NONE', #211, #612, #249 ) ;
ENDSEC;
END-ISO-10303-21;
