ISO-10303-21;
HEADER;
FILE_DESCRIPTION (( 'STEP AP203' ),
    '1' );
FILE_NAME ('WTE3-P-DOME-R1.STEP',
    '2026-06-22T08:50:24',
    ( 'localuser' ),
    ( '' ),
    'SwSTEP 2.0',
    'SolidWorks 2025',
    '' );
FILE_SCHEMA (( 'CONFIG_CONTROL_DESIGN' ));
ENDSEC;

DATA;
#1 = CIRCLE ( 'NONE', #32, 31.21720498163740842 ) ;
#2 = AXIS2_PLACEMENT_3D ( 'NONE', #405, #304, #299 ) ;
#3 = CARTESIAN_POINT ( 'NONE',  ( 4.544351839057050933E-16, -1.734723475976807094E-15, 0.000000000000000000 ) ) ;
#4 = ORIENTED_EDGE ( 'NONE', *, *, #124, .F. ) ;
#5 = DIRECTION ( 'NONE',  ( 1.000000000000000000, 0.000000000000000000, 1.224646799147353207E-16 ) ) ;
#6 = VERTEX_POINT ( 'NONE', #125 ) ;
#7 = EDGE_CURVE ( 'NONE', #74, #332, #230, .T. ) ;
#8 = EDGE_LOOP ( 'NONE', ( #374, #303, #238, #119 ) ) ;
#9 = CARTESIAN_POINT ( 'NONE',  ( 4.544351839057050933E-16, 1.431297709923665007, 0.000000000000000000 ) ) ;
#10 = CIRCLE ( 'NONE', #107, 1.500000000000001332 ) ;
#11 = ORIENTED_EDGE ( 'NONE', *, *, #23, .T. ) ;
#12 = CALENDAR_DATE ( 2026, 22, 6 ) ;
#13 = ORIENTED_EDGE ( 'NONE', *, *, #429, .T. ) ;
#14 = DIRECTION ( 'NONE',  ( 0.000000000000000000, 0.000000000000000000, 1.000000000000000000 ) ) ;
#15 = ORIENTED_EDGE ( 'NONE', *, *, #324, .T. ) ;
#16 = DATE_TIME_ROLE ( 'classification_date' ) ;
#17 = AXIS2_PLACEMENT_3D ( 'NONE', #282, #414, #410 ) ;
#18 = DIRECTION ( 'NONE',  ( 0.000000000000000000, 0.000000000000000000, 1.000000000000000000 ) ) ;
#19 = CONICAL_SURFACE ( 'NONE', #137, 39.62500000000000000, 0.08726646259971024278 ) ;
#20 = DIRECTION ( 'NONE',  ( 1.000000000000000000, 0.000000000000000000, 0.000000000000000000 ) ) ;
#21 = DIRECTION ( 'NONE',  ( 1.000000000000000000, 0.000000000000000000, 0.000000000000000000 ) ) ;
#22 = PERSON_AND_ORGANIZATION ( #18446744073709551615, #18446744073709551615 ) ;
#23 = EDGE_CURVE ( 'NONE', #181, #74, #277, .T. ) ;
#24 = ORIENTED_EDGE ( 'NONE', *, *, #78, .T. ) ;
#25 = DIRECTION ( 'NONE',  ( 0.000000000000000000, 0.000000000000000000, 1.000000000000000000 ) ) ;
#26 = SECURITY_CLASSIFICATION ( '', '', #218 ) ;
#27 = LOCAL_TIME ( 18, 50, 24.00000000000000000, #118 ) ;
#28 = CC_DESIGN_APPROVAL ( #397, ( #26 ) ) ;
#29 = FACE_OUTER_BOUND ( 'NONE', #8, .T. ) ;
#30 = CARTESIAN_POINT ( 'NONE',  ( 34.16623642967440588, 3.548350071736014577, 0.000000000000000000 ) ) ;
#31 = CARTESIAN_POINT ( 'NONE',  ( 34.20983045851001947, 3.100000000000003197, 0.000000000000000000 ) ) ;
#32 = AXIS2_PLACEMENT_3D ( 'NONE', #127, #123, #253 ) ;
#33 = CIRCLE ( 'NONE', #132, 34.34999999999999432 ) ;
#34 = CARTESIAN_POINT ( 'NONE',  ( 0.000000000000000000, 0.000000000000000000, 0.000000000000000000 ) ) ;
#35 = DIRECTION ( 'NONE',  ( 0.000000000000000000, -1.000000000000000000, 0.000000000000000000 ) ) ;
#36 = CC_DESIGN_PERSON_AND_ORGANIZATION_ASSIGNMENT ( #22, #275, ( #245 ) ) ;
#37 = CARTESIAN_POINT ( 'NONE',  ( 4.544351839057050933E-16, 1.431297709923665007, 0.000000000000000000 ) ) ;
#38 = EDGE_LOOP ( 'NONE', ( #153, #139 ) ) ;
#39 = CARTESIAN_POINT ( 'NONE',  ( 4.544351839057050933E-16, -1.734723475976807094E-15, 0.000000000000000000 ) ) ;
#40 = ORIENTED_EDGE ( 'NONE', *, *, #161, .F. ) ;
#41 = DIRECTION ( 'NONE',  ( -1.000000000000000000, 0.000000000000000000, 0.000000000000000000 ) ) ;
#42 = VERTEX_POINT ( 'NONE', #250 ) ;
#43 = EDGE_CURVE ( 'NONE', #141, #185, #289, .T. ) ;
#44 = FACE_OUTER_BOUND ( 'NONE', #175, .T. ) ;
#45 = ORIENTED_EDGE ( 'NONE', *, *, #104, .T. ) ;
#46 = LOCAL_TIME ( 18, 50, 24.00000000000000000, #122 ) ;
#47 = DIRECTION ( 'NONE',  ( -1.224646799147353207E-16, 0.000000000000000000, 1.000000000000000000 ) ) ;
#48 = CIRCLE ( 'NONE', #252, 39.62500000000000000 ) ;
#49 = ORIENTED_EDGE ( 'NONE', *, *, #200, .F. ) ;
#50 = PERSON_AND_ORGANIZATION_ROLE ( 'classification_officer' ) ;
#51 = EDGE_CURVE ( 'NONE', #185, #219, #158, .T. ) ;
#52 = EDGE_LOOP ( 'NONE', ( #183, #82 ) ) ;
#53 = DATE_AND_TIME ( #409, #86 ) ;
#54 = DIRECTION ( 'NONE',  ( -0.000000000000000000, 1.000000000000000000, -0.000000000000000000 ) ) ;
#55 = SHAPE_DEFINITION_REPRESENTATION ( #314, #210 ) ;
#56 = AXIS2_PLACEMENT_3D ( 'NONE', #39, #47, #5 ) ;
#57 = DIRECTION ( 'NONE',  ( 1.224646799147353207E-16, 0.000000000000000000, -1.000000000000000000 ) ) ;
#58 = CC_DESIGN_APPROVAL ( #129, ( #359 ) ) ;
#59 = EDGE_CURVE ( 'NONE', #264, #408, #394, .T. ) ;
#60 = PERSON_AND_ORGANIZATION ( #18446744073709551615, #18446744073709551615 ) ;
#61 = ORIENTED_EDGE ( 'NONE', *, *, #257, .T. ) ;
#62 = APPLICATION_CONTEXT ( 'configuration controlled 3d designs of mechanical parts and assemblies' ) ;
#63 = DIRECTION ( 'NONE',  ( 0.000000000000000000, -1.000000000000000000, 0.000000000000000000 ) ) ;
#64 = CARTESIAN_POINT ( 'NONE',  ( -34.16623642967440588, 3.548350071736014577, -4.184157208251246286E-15 ) ) ;
#65 = AXIS2_PLACEMENT_3D ( 'NONE', #172, #169, #41 ) ;
#66 = PLANE ( 'NONE',  #244 ) ;
#67 = CC_DESIGN_DATE_AND_TIME_ASSIGNMENT ( #53, #16, ( #26 ) ) ;
#68 = CARTESIAN_POINT ( 'NONE',  ( 0.000000000000000000, 3.100000000000000089, -39.35378514306965769 ) ) ;
#69 = DIRECTION ( 'NONE',  ( 0.000000000000000000, 0.000000000000000000, 1.000000000000000000 ) ) ;
#70 = AXIS2_PLACEMENT_3D ( 'NONE', #142, #396, #199 ) ;
#71 = CC_DESIGN_PERSON_AND_ORGANIZATION_ASSIGNMENT ( #415, #378, ( #428 ) ) ;
#72 = DIRECTION ( 'NONE',  ( 0.000000000000000000, 0.000000000000000000, 1.000000000000000000 ) ) ;
#73 = FACE_OUTER_BOUND ( 'NONE', #235, .T. ) ;
#74 = VERTEX_POINT ( 'NONE', #311 ) ;
#75 = ORIENTED_EDGE ( 'NONE', *, *, #403, .T. ) ;
#76 = TOROIDAL_SURFACE ( 'NONE', #171, 34.66356155965510766, 0.5000000000000000000 ) ;
#77 = EDGE_LOOP ( 'NONE', ( #61, #370 ) ) ;
#78 = EDGE_CURVE ( 'NONE', #74, #6, #1, .T. ) ;
#79 = SPHERICAL_SURFACE ( 'NONE', #65, 31.25000000000000000 ) ;
#80 = EDGE_LOOP ( 'NONE', ( #416, #369, #203, #45, #401 ) ) ;
#81 = CARTESIAN_POINT ( 'NONE',  ( 4.544351839057050933E-16, 3.600000000000003197, 0.000000000000000000 ) ) ;
#82 = ORIENTED_EDGE ( 'NONE', *, *, #363, .T. ) ;
#83 = CLOSED_SHELL ( 'NONE', ( #99, #164, #293, #146, #418, #347, #381, #207, #154, #267, #357, #92 ) ) ;
#84 = APPROVAL_DATE_TIME ( #249, #386 ) ;
#85 = AXIS2_PLACEMENT_3D ( 'NONE', #422, #131, #198 ) ;
#86 = LOCAL_TIME ( 18, 50, 24.00000000000000000, #182 ) ;
#87 = DIRECTION ( 'NONE',  ( 0.000000000000000000, 0.000000000000000000, -1.000000000000000000 ) ) ;
#88 = CALENDAR_DATE ( 2026, 22, 6 ) ;
#89 = CARTESIAN_POINT ( 'NONE',  ( 4.544351839057050933E-16, -1.734723475976807094E-15, 0.000000000000000000 ) ) ;
#90 = APPROVAL_DATE_TIME ( #247, #397 ) ;
#91 = CARTESIAN_POINT ( 'NONE',  ( -1.459075439762034259E-15, 31.25000000000000000, 0.000000000000000000 ) ) ;
#92 = ADVANCED_FACE ( 'NONE', ( #97 ), #94, .T. ) ;
#93 = PERSON_AND_ORGANIZATION ( #18446744073709551615, #18446744073709551615 ) ;
#94 = TOROIDAL_SURFACE ( 'NONE', #323, 32.71563082075599738, 1.500000000000000000 ) ;
#95 = AXIS2_PLACEMENT_3D ( 'NONE', #322, #136, #103 ) ;
#96 = CARTESIAN_POINT ( 'NONE',  ( 4.544351839057050933E-16, 3.100000000000003197, 0.000000000000000000 ) ) ;
#97 = FACE_OUTER_BOUND ( 'NONE', #80, .T. ) ;
#98 = FACE_BOUND ( 'NONE', #335, .T. ) ;
#99 = ADVANCED_FACE ( 'NONE', ( #379 ), #243, .T. ) ;
#100 = DIRECTION ( 'NONE',  ( 1.067350013832221094E-17, -0.9961946980917459893, 0.08715574274765194862 ) ) ;
#101 = VECTOR ( 'NONE', #100, 1000.000000000000114 ) ;
#102 = PLANE ( 'NONE',  #411 ) ;
#103 = DIRECTION ( 'NONE',  ( 0.000000000000000000, 0.000000000000000000, 1.000000000000000000 ) ) ;
#104 = EDGE_CURVE ( 'NONE', #362, #406, #10, .T. ) ;
#105 = CARTESIAN_POINT ( 'NONE',  ( 4.699497155013590951E-15, 3.600000000000003197, 34.66356155965510766 ) ) ;
#106 = AXIS2_PLACEMENT_3D ( 'NONE', #417, #54, #345 ) ;
#107 = AXIS2_PLACEMENT_3D ( 'NONE', #217, #159, #18 ) ;
#108 =( NAMED_UNIT ( * ) PLANE_ANGLE_UNIT ( ) SI_UNIT ( $, .RADIAN. ) );
#109 = DIRECTION ( 'NONE',  ( 0.000000000000000000, 0.000000000000000000, 1.000000000000000000 ) ) ;
#110 = ORIENTED_EDGE ( 'NONE', *, *, #200, .T. ) ;
#111 = CARTESIAN_POINT ( 'NONE',  ( 4.544351839057050933E-16, 8.673617379884035472E-16, 32.71563082075599738 ) ) ;
#112 = ORIENTED_EDGE ( 'NONE', *, *, #176, .F. ) ;
#113 = AXIS2_PLACEMENT_3D ( 'NONE', #229, #425, #130 ) ;
#114 = DIRECTION ( 'NONE',  ( 0.000000000000000000, -1.000000000000000000, 0.000000000000000000 ) ) ;
#115 = ORIENTED_EDGE ( 'NONE', *, *, #124, .T. ) ;
#116 = DIRECTION ( 'NONE',  ( 0.000000000000000000, 0.000000000000000000, -1.000000000000000000 ) ) ;
#117 = EDGE_LOOP ( 'NONE', ( #316, #266, #75, #157 ) ) ;
#118 = COORDINATED_UNIVERSAL_TIME_OFFSET ( 10, 0, .AHEAD. ) ;
#119 = ORIENTED_EDGE ( 'NONE', *, *, #403, .F. ) ;
#120 = AXIS2_PLACEMENT_3D ( 'NONE', #239, #373, #140 ) ;
#121 = CARTESIAN_POINT ( 'NONE',  ( 4.544351839057050933E-16, 1.431297709923665007, 0.000000000000000000 ) ) ;
#122 = COORDINATED_UNIVERSAL_TIME_OFFSET ( 10, 0, .AHEAD. ) ;
#123 = DIRECTION ( 'NONE',  ( 0.000000000000000000, -1.000000000000000000, 0.000000000000000000 ) ) ;
#124 = EDGE_CURVE ( 'NONE', #178, #219, #33, .T. ) ;
#125 = CARTESIAN_POINT ( 'NONE',  ( 31.21720498163740842, 1.431297709923665007, 3.823005015908906487E-15 ) ) ;
#126 = AXIS2_PLACEMENT_3D ( 'NONE', #398, #109, #336 ) ;
#127 = CARTESIAN_POINT ( 'NONE',  ( 4.544351839057050933E-16, 1.431297709923665007, 0.000000000000000000 ) ) ;
#128 = CARTESIAN_POINT ( 'NONE',  ( 4.669044773585270820E-15, 3.548350071736014577, 34.16623642967440588 ) ) ;
#129 = APPROVAL ( #310, 'Coincident' ) ;
#130 = DIRECTION ( 'NONE',  ( 0.000000000000000000, 0.000000000000000000, -1.000000000000000000 ) ) ;
#131 = DIRECTION ( 'NONE',  ( -1.000000000000000000, -0.000000000000000000, -0.000000000000000000 ) ) ;
#132 = AXIS2_PLACEMENT_3D ( 'NONE', #285, #420, #21 ) ;
#133 = CIRCLE ( 'NONE', #144, 39.35378514306965769 ) ;
#134 = CARTESIAN_POINT ( 'NONE',  ( 4.852662941621387345E-15, 0.000000000000000000, 39.62500000000000000 ) ) ;
#135 = CC_DESIGN_PERSON_AND_ORGANIZATION_ASSIGNMENT ( #93, #214, ( #359 ) ) ;
#136 = DIRECTION ( 'NONE',  ( -0.000000000000000000, 1.000000000000000000, -0.000000000000000000 ) ) ;
#137 = AXIS2_PLACEMENT_3D ( 'NONE', #34, #162, #286 ) ;
#138 = DIRECTION ( 'NONE',  ( -0.000000000000000000, 1.000000000000000000, -0.000000000000000000 ) ) ;
#139 = ORIENTED_EDGE ( 'NONE', *, *, #195, .F. ) ;
#140 = DIRECTION ( 'NONE',  ( -1.000000000000000000, 0.000000000000000000, 0.000000000000000000 ) ) ;
#141 = VERTEX_POINT ( 'NONE', #215 ) ;
#142 = CARTESIAN_POINT ( 'NONE',  ( 4.544351839057050933E-16, 3.100000000000003197, 0.000000000000000000 ) ) ;
#143 = ORIENTED_EDGE ( 'NONE', *, *, #274, .T. ) ;
#144 = AXIS2_PLACEMENT_3D ( 'NONE', #392, #254, #358 ) ;
#145 = SPHERICAL_SURFACE ( 'NONE', #236, 34.34999999999999432 ) ;
#146 = ADVANCED_FACE ( 'NONE', ( #341 ), #350, .T. ) ;
#147 = VERTEX_POINT ( 'NONE', #91 ) ;
#148 = DATE_TIME_ROLE ( 'creation_date' ) ;
#149 = ORIENTED_EDGE ( 'NONE', *, *, #190, .T. ) ;
#150 = APPROVAL_ROLE ( '' ) ;
#151 = ORIENTED_EDGE ( 'NONE', *, *, #51, .F. ) ;
#152 = PERSON_AND_ORGANIZATION ( #18446744073709551615, #18446744073709551615 ) ;
#153 = ORIENTED_EDGE ( 'NONE', *, *, #352, .F. ) ;
#154 = ADVANCED_FACE ( 'NONE', ( #225 ), #269, .T. ) ;
#155 = COORDINATED_UNIVERSAL_TIME_OFFSET ( 10, 0, .AHEAD. ) ;
#156 = DIRECTION ( 'NONE',  ( 0.000000000000000000, 0.000000000000000000, 1.000000000000000000 ) ) ;
#157 = ORIENTED_EDGE ( 'NONE', *, *, #352, .T. ) ;
#158 = CIRCLE ( 'NONE', #330, 34.34999999999999432 ) ;
#159 = DIRECTION ( 'NONE',  ( -1.000000000000000000, 0.000000000000000000, 0.000000000000000000 ) ) ;
#160 = APPROVAL_PERSON_ORGANIZATION ( #407, #129, #150 ) ;
#161 = EDGE_CURVE ( 'NONE', #264, #141, #262, .T. ) ;
#162 = DIRECTION ( 'NONE',  ( 0.000000000000000000, -1.000000000000000000, 0.000000000000000000 ) ) ;
#163 = DIRECTION ( 'NONE',  ( 1.000000000000000000, 0.000000000000000000, 0.000000000000000000 ) ) ;
#164 = ADVANCED_FACE ( 'NONE', ( #260 ), #76, .F. ) ;
#165 = CARTESIAN_POINT ( 'NONE',  ( 2.557766061441283649E-15, 34.34999999999999432, 0.000000000000000000 ) ) ;
#166 = CIRCLE ( 'NONE', #113, 34.16623642967440588 ) ;
#167 = FACE_BOUND ( 'NONE', #52, .T. ) ;
#168 = DIRECTION ( 'NONE',  ( -1.224646799147349509E-16, 0.000000000000000000, -1.000000000000000000 ) ) ;
#169 = DIRECTION ( 'NONE',  ( 0.000000000000000000, 0.000000000000000000, 1.000000000000000000 ) ) ;
#170 = VERTEX_POINT ( 'NONE', #68 ) ;
#171 = AXIS2_PLACEMENT_3D ( 'NONE', #356, #391, #227 ) ;
#172 = CARTESIAN_POINT ( 'NONE',  ( 4.544351839057050933E-16, -1.734723475976807094E-15, 0.000000000000000000 ) ) ;
#173 = ORIENTED_EDGE ( 'NONE', *, *, #51, .T. ) ;
#174 = DIRECTION ( 'NONE',  ( 0.000000000000000000, 0.000000000000000000, -1.000000000000000000 ) ) ;
#175 = EDGE_LOOP ( 'NONE', ( #49, #276, #308, #201, #279 ) ) ;
#176 = EDGE_CURVE ( 'NONE', #406, #332, #318, .T. ) ;
#177 = DIRECTION ( 'NONE',  ( 0.000000000000000000, 0.000000000000000000, 1.000000000000000000 ) ) ;
#178 = VERTEX_POINT ( 'NONE', #30 ) ;
#179 =( GEOMETRIC_REPRESENTATION_CONTEXT ( 3 ) GLOBAL_UNCERTAINTY_ASSIGNED_CONTEXT ( ( #255 ) ) GLOBAL_UNIT_ASSIGNED_CONTEXT ( ( #208, #108, #361 ) ) REPRESENTATION_CONTEXT ( 'NONE', 'WORKASPACE' ) );
#180 = APPROVAL_PERSON_ORGANIZATION ( #152, #397, #413 ) ;
#181 = VERTEX_POINT ( 'NONE', #327 ) ;
#182 = COORDINATED_UNIVERSAL_TIME_OFFSET ( 10, 0, .AHEAD. ) ;
#183 = ORIENTED_EDGE ( 'NONE', *, *, #59, .T. ) ;
#184 = APPROVAL_ROLE ( '' ) ;
#185 = VERTEX_POINT ( 'NONE', #64 ) ;
#186 = EDGE_CURVE ( 'NONE', #329, #170, #221, .T. ) ;
#187 = AXIS2_PLACEMENT_3D ( 'NONE', #292, #390, #291 ) ;
#188 = DIRECTION ( 'NONE',  ( 0.000000000000000000, -1.000000000000000000, 0.000000000000000000 ) ) ;
#189 = EDGE_LOOP ( 'NONE', ( #268, #110, #271, #343, #40 ) ) ;
#190 = EDGE_CURVE ( 'NONE', #178, #141, #346, .T. ) ;
#191 = AXIS2_PLACEMENT_3D ( 'NONE', #37, #265, #334 ) ;
#192 = CARTESIAN_POINT ( 'NONE',  ( 31.25000000000000000, 9.049811734601998677E-16, 0.000000000000000000 ) ) ;
#193 = DIRECTION ( 'NONE',  ( -0.000000000000000000, 1.000000000000000000, 0.000000000000000000 ) ) ;
#194 = FACE_OUTER_BOUND ( 'NONE', #77, .T. ) ;
#195 = EDGE_CURVE ( 'NONE', #240, #42, #290, .T. ) ;
#196 = DIRECTION ( 'NONE',  ( 0.000000000000000000, -0.000000000000000000, -1.000000000000000000 ) ) ;
#197 = CIRCLE ( 'NONE', #70, 34.66356155965510766 ) ;
#198 = DIRECTION ( 'NONE',  ( 0.000000000000000000, 0.000000000000000000, 1.000000000000000000 ) ) ;
#199 = DIRECTION ( 'NONE',  ( 0.000000000000000000, 0.000000000000000000, -1.000000000000000000 ) ) ;
#200 = EDGE_CURVE ( 'NONE', #408, #206, #339, .T. ) ;
#201 = ORIENTED_EDGE ( 'NONE', *, *, #190, .F. ) ;
#202 = CARTESIAN_POINT ( 'NONE',  ( 0.000000000000000000, 0.000000000000000000, 0.000000000000000000 ) ) ;
#203 = ORIENTED_EDGE ( 'NONE', *, *, #371, .F. ) ;
#204 = CIRCLE ( 'NONE', #2, 34.16623642967440588 ) ;
#205 = CARTESIAN_POINT ( 'NONE',  ( 4.460944440578237663E-15, 8.673617379884035472E-16, -32.71563082075599738 ) ) ;
#206 = VERTEX_POINT ( 'NONE', #128 ) ;
#207 = ADVANCED_FACE ( 'NONE', ( #167, #194 ), #102, .F. ) ;
#208 =( LENGTH_UNIT ( ) NAMED_UNIT ( * ) SI_UNIT ( .MILLI., .METRE. ) );
#209 = ORIENTED_EDGE ( 'NONE', *, *, #333, .T. ) ;
#210 = ADVANCED_BREP_SHAPE_REPRESENTATION ( 'WTE3-P-DOME-R1', ( #372, #419 ), #179 ) ;
#211 = FACE_OUTER_BOUND ( 'NONE', #224, .T. ) ;
#212 = ORIENTED_EDGE ( 'NONE', *, *, #104, .F. ) ;
#213 = CC_DESIGN_APPROVAL ( #386, ( #245 ) ) ;
#214 = PERSON_AND_ORGANIZATION_ROLE ( 'creator' ) ;
#215 = CARTESIAN_POINT ( 'NONE',  ( 4.544351839057050933E-16, 3.548350071736014577, -34.16623642967440588 ) ) ;
#216 = PERSON_AND_ORGANIZATION ( #18446744073709551615, #18446744073709551615 ) ;
#217 = CARTESIAN_POINT ( 'NONE',  ( 4.544351839057050933E-16, 1.500000000000000888, 32.71563082075599738 ) ) ;
#218 = SECURITY_CLASSIFICATION_LEVEL ( 'unclassified' ) ;
#219 = VERTEX_POINT ( 'NONE', #165 ) ;
#220 = AXIS2_PLACEMENT_3D ( 'NONE', #96, #188, #242 ) ;
#221 = CIRCLE ( 'NONE', #187, 39.35378514306965769 ) ;
#222 = COORDINATED_UNIVERSAL_TIME_OFFSET ( 10, 0, .AHEAD. ) ;
#223 = PRODUCT_RELATED_PRODUCT_CATEGORY ( 'detail', '', ( #428 ) ) ;
#224 = EDGE_LOOP ( 'NONE', ( #151, #15, #300, #115 ) ) ;
#225 = FACE_OUTER_BOUND ( 'NONE', #117, .T. ) ;
#226 = AXIS2_PLACEMENT_3D ( 'NONE', #259, #426, #294 ) ;
#227 = DIRECTION ( 'NONE',  ( 0.000000000000000000, 0.000000000000000000, -1.000000000000000000 ) ) ;
#228 = DIRECTION ( 'NONE',  ( 0.000000000000000000, 0.000000000000000000, -1.000000000000000000 ) ) ;
#229 = CARTESIAN_POINT ( 'NONE',  ( 4.544351839057050933E-16, 3.548350071736014577, 0.000000000000000000 ) ) ;
#230 = CIRCLE ( 'NONE', #17, 1.500000000000001332 ) ;
#231 = APPROVAL_PERSON_ORGANIZATION ( #216, #386, #184 ) ;
#232 = APPLICATION_CONTEXT ( 'configuration controlled 3d designs of mechanical parts and assemblies' ) ;
#233 = ORIENTED_EDGE ( 'NONE', *, *, #320, .T. ) ;
#234 = FACE_OUTER_BOUND ( 'NONE', #317, .T. ) ;
#235 = EDGE_LOOP ( 'NONE', ( #11, #24, #233, #404 ) ) ;
#236 = AXIS2_PLACEMENT_3D ( 'NONE', #3, #302, #270 ) ;
#237 = CARTESIAN_POINT ( 'NONE',  ( 4.699497155013590951E-15, 3.100000000000003197, 34.66356155965510766 ) ) ;
#238 = ORIENTED_EDGE ( 'NONE', *, *, #195, .T. ) ;
#239 = CARTESIAN_POINT ( 'NONE',  ( 4.544351839057050933E-16, -1.734723475976807094E-15, 0.000000000000000000 ) ) ;
#240 = VERTEX_POINT ( 'NONE', #134 ) ;
#241 = CARTESIAN_POINT ( 'NONE',  ( 0.000000000000000000, 0.000000000000000000, 0.000000000000000000 ) ) ;
#242 = DIRECTION ( 'NONE',  ( 0.000000000000000000, 0.000000000000000000, -1.000000000000000000 ) ) ;
#243 = TOROIDAL_SURFACE ( 'NONE', #296, 32.71563082075599738, 1.500000000000000000 ) ;
#244 = AXIS2_PLACEMENT_3D ( 'NONE', #192, #193, #69 ) ;
#245 = PRODUCT_DEFINITION ( 'General', '', #359, #367 ) ;
#246 = DIRECTION ( 'NONE',  ( -1.000000000000000000, 0.000000000000000000, -1.224646799147353207E-16 ) ) ;
#247 = DATE_AND_TIME ( #344, #46 ) ;
#248 = DIRECTION ( 'NONE',  ( -0.000000000000000000, 1.000000000000000000, -0.000000000000000000 ) ) ;
#249 = DATE_AND_TIME ( #12, #395 ) ;
#250 = CARTESIAN_POINT ( 'NONE',  ( 0.000000000000000000, 0.000000000000000000, -39.62500000000000000 ) ) ;
#251 = EDGE_CURVE ( 'NONE', #206, #178, #166, .T. ) ;
#252 = AXIS2_PLACEMENT_3D ( 'NONE', #202, #138, #177 ) ;
#253 = DIRECTION ( 'NONE',  ( 0.000000000000000000, 0.000000000000000000, -1.000000000000000000 ) ) ;
#254 = DIRECTION ( 'NONE',  ( -0.000000000000000000, 1.000000000000000000, -0.000000000000000000 ) ) ;
#255 = UNCERTAINTY_MEASURE_WITH_UNIT (LENGTH_MEASURE( 1.000000000000000082E-05 ), #208, 'distance_accuracy_value', 'NONE');
#256 = CARTESIAN_POINT ( 'NONE',  ( 4.852662941621387345E-15, 0.000000000000000000, 39.62500000000000000 ) ) ;
#257 = EDGE_CURVE ( 'NONE', #170, #329, #133, .T. ) ;
#258 = CIRCLE ( 'NONE', #120, 31.25000000000000000 ) ;
#259 = CARTESIAN_POINT ( 'NONE',  ( 4.544351839057050933E-16, 3.548350071736014577, 0.000000000000000000 ) ) ;
#260 = FACE_OUTER_BOUND ( 'NONE', #189, .T. ) ;
#261 = DIRECTION ( 'NONE',  ( 0.000000000000000000, -1.000000000000000000, 0.000000000000000000 ) ) ;
#262 = CIRCLE ( 'NONE', #85, 0.5000000000000004441 ) ;
#263 = CARTESIAN_POINT ( 'NONE',  ( 0.000000000000000000, 0.000000000000000000, -39.62500000000000000 ) ) ;
#264 = VERTEX_POINT ( 'NONE', #387 ) ;
#265 = DIRECTION ( 'NONE',  ( 0.000000000000000000, -1.000000000000000000, 0.000000000000000000 ) ) ;
#266 = ORIENTED_EDGE ( 'NONE', *, *, #257, .F. ) ;
#267 = ADVANCED_FACE ( 'NONE', ( #98, #353 ), #66, .F. ) ;
#268 = ORIENTED_EDGE ( 'NONE', *, *, #363, .F. ) ;
#269 = CONICAL_SURFACE ( 'NONE', #366, 39.62500000000000000, 0.08726646259971024278 ) ;
#270 = DIRECTION ( 'NONE',  ( 1.000000000000000000, 0.000000000000000000, 0.000000000000000000 ) ) ;
#271 = ORIENTED_EDGE ( 'NONE', *, *, #324, .F. ) ;
#272 = APPROVAL_STATUS ( 'not_yet_approved' ) ;
#273 = ORIENTED_EDGE ( 'NONE', *, *, #43, .T. ) ;
#274 = EDGE_CURVE ( 'NONE', #332, #406, #297, .T. ) ;
#275 = PERSON_AND_ORGANIZATION_ROLE ( 'creator' ) ;
#276 = ORIENTED_EDGE ( 'NONE', *, *, #59, .F. ) ;
#277 = CIRCLE ( 'NONE', #283, 31.21720498163740842 ) ;
#278 = APPROVAL_STATUS ( 'not_yet_approved' ) ;
#279 = ORIENTED_EDGE ( 'NONE', *, *, #251, .F. ) ;
#280 = DATE_AND_TIME ( #342, #348 ) ;
#281 = DIRECTION ( 'NONE',  ( -0.000000000000000000, 1.000000000000000000, -0.000000000000000000 ) ) ;
#282 = CARTESIAN_POINT ( 'NONE',  ( 4.460944440578237663E-15, 1.500000000000000888, -32.71563082075599738 ) ) ;
#283 = AXIS2_PLACEMENT_3D ( 'NONE', #121, #63, #385 ) ;
#284 = VECTOR ( 'NONE', #427, 1000.000000000000114 ) ;
#285 = CARTESIAN_POINT ( 'NONE',  ( 4.544351839057050933E-16, -1.734723475976807094E-15, 0.000000000000000000 ) ) ;
#286 = DIRECTION ( 'NONE',  ( 0.000000000000000000, 0.000000000000000000, -1.000000000000000000 ) ) ;
#287 = CC_DESIGN_PERSON_AND_ORGANIZATION_ASSIGNMENT ( #340, #349, ( #359 ) ) ;
#288 = DIRECTION ( 'NONE',  ( 1.000000000000000000, 0.000000000000000000, -1.224646799147353207E-16 ) ) ;
#289 = CIRCLE ( 'NONE', #106, 34.16623642967440588 ) ;
#290 = CIRCLE ( 'NONE', #95, 39.62500000000000000 ) ;
#291 = DIRECTION ( 'NONE',  ( 0.000000000000000000, 0.000000000000000000, 1.000000000000000000 ) ) ;
#292 = CARTESIAN_POINT ( 'NONE',  ( 0.000000000000000000, 3.100000000000000089, 0.000000000000000000 ) ) ;
#293 = ADVANCED_FACE ( 'NONE', ( #29 ), #19, .T. ) ;
#294 = DIRECTION ( 'NONE',  ( 0.000000000000000000, 0.000000000000000000, -1.000000000000000000 ) ) ;
#295 = CARTESIAN_POINT ( 'NONE',  ( 4.544351839057050933E-16, 1.431297709923665007, 31.21720498163740842 ) ) ;
#296 = AXIS2_PLACEMENT_3D ( 'NONE', #313, #281, #25 ) ;
#297 = CIRCLE ( 'NONE', #312, 32.71563082075599738 ) ;
#298 = EDGE_LOOP ( 'NONE', ( #149, #273, #173, #4 ) ) ;
#299 = DIRECTION ( 'NONE',  ( 0.000000000000000000, 0.000000000000000000, -1.000000000000000000 ) ) ;
#300 = ORIENTED_EDGE ( 'NONE', *, *, #251, .T. ) ;
#301 = EDGE_CURVE ( 'NONE', #329, #240, #421, .T. ) ;
#302 = DIRECTION ( 'NONE',  ( 0.000000000000000000, 0.000000000000000000, -1.000000000000000000 ) ) ;
#303 = ORIENTED_EDGE ( 'NONE', *, *, #301, .T. ) ;
#304 = DIRECTION ( 'NONE',  ( -0.000000000000000000, 1.000000000000000000, -0.000000000000000000 ) ) ;
#305 = ORIENTED_EDGE ( 'NONE', *, *, #176, .T. ) ;
#306 = CIRCLE ( 'NONE', #354, 31.21720498163740842 ) ;
#307 = APPLICATION_PROTOCOL_DEFINITION ( 'international standard', 'config_control_design', 1994, #232 ) ;
#308 = ORIENTED_EDGE ( 'NONE', *, *, #161, .T. ) ;
#309 = EDGE_LOOP ( 'NONE', ( #364, #383, #112, #212, #337 ) ) ;
#310 = APPROVAL_STATUS ( 'not_yet_approved' ) ;
#311 = CARTESIAN_POINT ( 'NONE',  ( 4.369192320196423882E-15, 1.431297709923665007, -31.21720498163740842 ) ) ;
#312 = AXIS2_PLACEMENT_3D ( 'NONE', #321, #319, #326 ) ;
#313 = CARTESIAN_POINT ( 'NONE',  ( 4.544351839057050933E-16, 1.500000000000000888, 0.000000000000000000 ) ) ;
#314 = PRODUCT_DEFINITION_SHAPE ( 'NONE', 'NONE',  #245 ) ;
#315 = APPLICATION_PROTOCOL_DEFINITION ( 'international standard', 'config_control_design', 1994, #62 ) ;
#316 = ORIENTED_EDGE ( 'NONE', *, *, #301, .F. ) ;
#317 = EDGE_LOOP ( 'NONE', ( #338, #209, #399, #13 ) ) ;
#318 = CIRCLE ( 'NONE', #377, 32.71563082075599738 ) ;
#319 = DIRECTION ( 'NONE',  ( -0.000000000000000000, 1.000000000000000000, -0.000000000000000000 ) ) ;
#320 = EDGE_CURVE ( 'NONE', #6, #147, #389, .T. ) ;
#321 = CARTESIAN_POINT ( 'NONE',  ( 4.544351839057050933E-16, 8.673617379884035472E-16, 0.000000000000000000 ) ) ;
#322 = CARTESIAN_POINT ( 'NONE',  ( 0.000000000000000000, 0.000000000000000000, 0.000000000000000000 ) ) ;
#323 = AXIS2_PLACEMENT_3D ( 'NONE', #351, #248, #156 ) ;
#324 = EDGE_CURVE ( 'NONE', #185, #206, #204, .T. ) ;
#325 = AXIS2_PLACEMENT_3D ( 'NONE', #81, #365, #174 ) ;
#326 = DIRECTION ( 'NONE',  ( 0.000000000000000000, 0.000000000000000000, 1.000000000000000000 ) ) ;
#327 = CARTESIAN_POINT ( 'NONE',  ( -31.21720498163740842, 1.431297709923665007, 0.000000000000000000 ) ) ;
#328 = SPHERICAL_SURFACE ( 'NONE', #126, 31.25000000000000000 ) ;
#329 = VERTEX_POINT ( 'NONE', #400 ) ;
#330 = AXIS2_PLACEMENT_3D ( 'NONE', #89, #57, #246 ) ;
#331 = AXIS2_PLACEMENT_3D ( 'NONE', #376, #87, #163 ) ;
#332 = VERTEX_POINT ( 'NONE', #205 ) ;
#333 = EDGE_CURVE ( 'NONE', #6, #362, #384, .T. ) ;
#334 = DIRECTION ( 'NONE',  ( 0.000000000000000000, 0.000000000000000000, -1.000000000000000000 ) ) ;
#335 = EDGE_LOOP ( 'NONE', ( #305, #143 ) ) ;
#336 = DIRECTION ( 'NONE',  ( -1.000000000000000000, 0.000000000000000000, 0.000000000000000000 ) ) ;
#337 = ORIENTED_EDGE ( 'NONE', *, *, #333, .F. ) ;
#338 = ORIENTED_EDGE ( 'NONE', *, *, #320, .F. ) ;
#339 = CIRCLE ( 'NONE', #368, 0.5000000000000004441 ) ;
#340 = PERSON_AND_ORGANIZATION ( #18446744073709551615, #18446744073709551615 ) ;
#341 = FACE_OUTER_BOUND ( 'NONE', #298, .T. ) ;
#342 = CALENDAR_DATE ( 2026, 22, 6 ) ;
#343 = ORIENTED_EDGE ( 'NONE', *, *, #43, .F. ) ;
#344 = CALENDAR_DATE ( 2026, 22, 6 ) ;
#345 = DIRECTION ( 'NONE',  ( 0.000000000000000000, 0.000000000000000000, -1.000000000000000000 ) ) ;
#346 = CIRCLE ( 'NONE', #226, 34.16623642967440588 ) ;
#347 = ADVANCED_FACE ( 'NONE', ( #234 ), #79, .F. ) ;
#348 = LOCAL_TIME ( 18, 50, 24.00000000000000000, #222 ) ;
#349 = PERSON_AND_ORGANIZATION_ROLE ( 'design_supplier' ) ;
#350 = SPHERICAL_SURFACE ( 'NONE', #331, 34.34999999999999432 ) ;
#351 = CARTESIAN_POINT ( 'NONE',  ( 4.544351839057050933E-16, 1.500000000000000888, 0.000000000000000000 ) ) ;
#352 = EDGE_CURVE ( 'NONE', #42, #240, #48, .T. ) ;
#353 = FACE_OUTER_BOUND ( 'NONE', #38, .T. ) ;
#354 = AXIS2_PLACEMENT_3D ( 'NONE', #9, #114, #116 ) ;
#355 = DIRECTION ( 'NONE',  ( -0.000000000000000000, 1.000000000000000000, -0.000000000000000000 ) ) ;
#356 = CARTESIAN_POINT ( 'NONE',  ( 4.544351839057050933E-16, 3.600000000000003197, 0.000000000000000000 ) ) ;
#357 = ADVANCED_FACE ( 'NONE', ( #44 ), #423, .F. ) ;
#358 = DIRECTION ( 'NONE',  ( 0.000000000000000000, 0.000000000000000000, 1.000000000000000000 ) ) ;
#359 = PRODUCT_DEFINITION_FORMATION_WITH_SPECIFIED_SOURCE ( 'Symmetric', '', #428, .NOT_KNOWN. ) ;
#360 = CARTESIAN_POINT ( 'NONE',  ( 0.000000000000000000, 0.000000000000000000, 0.000000000000000000 ) ) ;
#361 =( NAMED_UNIT ( * ) SI_UNIT ( $, .STERADIAN. ) SOLID_ANGLE_UNIT ( ) );
#362 = VERTEX_POINT ( 'NONE', #295 ) ;
#363 = EDGE_CURVE ( 'NONE', #408, #264, #197, .T. ) ;
#364 = ORIENTED_EDGE ( 'NONE', *, *, #78, .F. ) ;
#365 = DIRECTION ( 'NONE',  ( 0.000000000000000000, -1.000000000000000000, 0.000000000000000000 ) ) ;
#366 = AXIS2_PLACEMENT_3D ( 'NONE', #360, #261, #228 ) ;
#367 = DESIGN_CONTEXT ( 'detailed design', #232, 'design' ) ;
#368 = AXIS2_PLACEMENT_3D ( 'NONE', #105, #288, #168 ) ;
#369 = ORIENTED_EDGE ( 'NONE', *, *, #23, .F. ) ;
#370 = ORIENTED_EDGE ( 'NONE', *, *, #186, .T. ) ;
#371 = EDGE_CURVE ( 'NONE', #362, #181, #306, .T. ) ;
#372 = MANIFOLD_SOLID_BREP ( '<WTE3-P-DOME-R1>-<Fillet2>', #83 ) ;
#373 = DIRECTION ( 'NONE',  ( -0.000000000000000000, -0.000000000000000000, -1.000000000000000000 ) ) ;
#374 = ORIENTED_EDGE ( 'NONE', *, *, #186, .F. ) ;
#375 = MECHANICAL_CONTEXT ( 'NONE', #62, 'mechanical' ) ;
#376 = CARTESIAN_POINT ( 'NONE',  ( 4.544351839057050933E-16, -1.734723475976807094E-15, 0.000000000000000000 ) ) ;
#377 = AXIS2_PLACEMENT_3D ( 'NONE', #388, #355, #72 ) ;
#378 = PERSON_AND_ORGANIZATION_ROLE ( 'design_owner' ) ;
#379 = FACE_OUTER_BOUND ( 'NONE', #309, .T. ) ;
#380 = APPROVAL_DATE_TIME ( #280, #129 ) ;
#381 = ADVANCED_FACE ( 'NONE', ( #211 ), #145, .T. ) ;
#382 = DATE_AND_TIME ( #88, #27 ) ;
#383 = ORIENTED_EDGE ( 'NONE', *, *, #7, .T. ) ;
#384 = CIRCLE ( 'NONE', #191, 31.21720498163740842 ) ;
#385 = DIRECTION ( 'NONE',  ( 0.000000000000000000, 0.000000000000000000, -1.000000000000000000 ) ) ;
#386 = APPROVAL ( #272, 'Coincident' ) ;
#387 = CARTESIAN_POINT ( 'NONE',  ( 4.544351839057050933E-16, 3.100000000000003197, -34.66356155965510766 ) ) ;
#388 = CARTESIAN_POINT ( 'NONE',  ( 4.544351839057050933E-16, 8.673617379884035472E-16, 0.000000000000000000 ) ) ;
#389 = CIRCLE ( 'NONE', #56, 31.25000000000000000 ) ;
#390 = DIRECTION ( 'NONE',  ( -0.000000000000000000, 1.000000000000000000, -0.000000000000000000 ) ) ;
#391 = DIRECTION ( 'NONE',  ( 0.000000000000000000, -1.000000000000000000, 0.000000000000000000 ) ) ;
#392 = CARTESIAN_POINT ( 'NONE',  ( 0.000000000000000000, 3.100000000000000089, 0.000000000000000000 ) ) ;
#393 = CC_DESIGN_SECURITY_CLASSIFICATION ( #26, ( #359 ) ) ;
#394 = CIRCLE ( 'NONE', #220, 34.66356155965510766 ) ;
#395 = LOCAL_TIME ( 18, 50, 24.00000000000000000, #155 ) ;
#396 = DIRECTION ( 'NONE',  ( 0.000000000000000000, -1.000000000000000000, 0.000000000000000000 ) ) ;
#397 = APPROVAL ( #278, 'Coincident' ) ;
#398 = CARTESIAN_POINT ( 'NONE',  ( 4.544351839057050933E-16, -1.734723475976807094E-15, 0.000000000000000000 ) ) ;
#399 = ORIENTED_EDGE ( 'NONE', *, *, #371, .T. ) ;
#400 = CARTESIAN_POINT ( 'NONE',  ( 4.836055821300339285E-15, 3.100000000000000089, 39.35378514306965769 ) ) ;
#401 = ORIENTED_EDGE ( 'NONE', *, *, #274, .F. ) ;
#402 = LINE ( 'NONE', #263, #284 ) ;
#403 = EDGE_CURVE ( 'NONE', #170, #42, #402, .T. ) ;
#404 = ORIENTED_EDGE ( 'NONE', *, *, #429, .F. ) ;
#405 = CARTESIAN_POINT ( 'NONE',  ( 4.544351839057050933E-16, 3.548350071736014577, 0.000000000000000000 ) ) ;
#406 = VERTEX_POINT ( 'NONE', #111 ) ;
#407 = PERSON_AND_ORGANIZATION ( #18446744073709551615, #18446744073709551615 ) ;
#408 = VERTEX_POINT ( 'NONE', #237 ) ;
#409 = CALENDAR_DATE ( 2026, 22, 6 ) ;
#410 = DIRECTION ( 'NONE',  ( 1.224646799147354440E-16, 0.000000000000000000, -1.000000000000000000 ) ) ;
#411 = AXIS2_PLACEMENT_3D ( 'NONE', #31, #35, #196 ) ;
#412 = CC_DESIGN_DATE_AND_TIME_ASSIGNMENT ( #382, #148, ( #245 ) ) ;
#413 = APPROVAL_ROLE ( '' ) ;
#414 = DIRECTION ( 'NONE',  ( 1.000000000000000000, 0.000000000000000000, 1.224646799147353207E-16 ) ) ;
#415 = PERSON_AND_ORGANIZATION ( #18446744073709551615, #18446744073709551615 ) ;
#416 = ORIENTED_EDGE ( 'NONE', *, *, #7, .F. ) ;
#417 = CARTESIAN_POINT ( 'NONE',  ( 4.544351839057050933E-16, 3.548350071736014577, 0.000000000000000000 ) ) ;
#418 = ADVANCED_FACE ( 'NONE', ( #73 ), #328, .F. ) ;
#419 = AXIS2_PLACEMENT_3D ( 'NONE', #241, #14, #20 ) ;
#420 = DIRECTION ( 'NONE',  ( 0.000000000000000000, 0.000000000000000000, 1.000000000000000000 ) ) ;
#421 = LINE ( 'NONE', #256, #101 ) ;
#422 = CARTESIAN_POINT ( 'NONE',  ( 4.544351839057050933E-16, 3.600000000000003197, -34.66356155965510766 ) ) ;
#423 = TOROIDAL_SURFACE ( 'NONE', #325, 34.66356155965510766, 0.5000000000000000000 ) ;
#424 = CC_DESIGN_PERSON_AND_ORGANIZATION_ASSIGNMENT ( #60, #50, ( #26 ) ) ;
#425 = DIRECTION ( 'NONE',  ( -0.000000000000000000, 1.000000000000000000, -0.000000000000000000 ) ) ;
#426 = DIRECTION ( 'NONE',  ( -0.000000000000000000, 1.000000000000000000, -0.000000000000000000 ) ) ;
#427 = DIRECTION ( 'NONE',  ( 0.000000000000000000, -0.9961946980917459893, -0.08715574274765194862 ) ) ;
#428 = PRODUCT ( 'WTE3-P-DOME-R1', 'WTE3-P-DOME-R1', '', ( #375 ) ) ;
#429 = EDGE_CURVE ( 'NONE', #181, #147, #258, .T. ) ;
ENDSEC;
END-ISO-10303-21;
