ISO-10303-21;
HEADER;
FILE_DESCRIPTION (( 'STEP AP203' ),
    '1' );
FILE_NAME ('Y1.step.STEP',
    '2026-06-22T08:49:56',
    ( 'localuser' ),
    ( '' ),
    'SwSTEP 2.0',
    'SolidWorks 2025',
    '' );
FILE_SCHEMA (( 'CONFIG_CONTROL_DESIGN' ));
ENDSEC;

DATA;
#1 = PERSON_AND_ORGANIZATION_ROLE ( 'design_owner' ) ;
#2 = APPROVAL ( #281, 'UNKNOWN' ) ;
#3 = PERSON_AND_ORGANIZATION ( #18446744073709551615, #18446744073709551615 ) ;
#4 = PERSON_AND_ORGANIZATION_ROLE ( 'design_supplier' ) ;
#5 = APPROVAL_STATUS ( 'not_yet_approved' ) ;
#6 = DATE_AND_TIME ( #199, #343 ) ;
#7 = APPROVAL_ROLE ( '' ) ;
#8 = PRODUCT_DEFINITION_FORMATION_WITH_SPECIFIED_SOURCE ( 'Symmetric', '', #41, .NOT_KNOWN. ) ;
#9 = APPROVAL_DATE_TIME ( #322, #331 ) ;
#10 = PRODUCT_DEFINITION ( 'General', '', #8, #222 ) ;
#11 =( NAMED_UNIT ( * ) PLANE_ANGLE_UNIT ( ) SI_UNIT ( $, .RADIAN. ) );
#12 = CARTESIAN_POINT ( 'NONE',  ( 0.000000000000000000, 0.000000000000000000, 0.000000000000000000 ) ) ;
#13 = CC_DESIGN_PERSON_AND_ORGANIZATION_ASSIGNMENT ( #284, #151, ( #41 ) ) ;
#14 = CONTEXT_DEPENDENT_SHAPE_REPRESENTATION ( #90, #205 ) ;
#15 = LOCAL_TIME ( 18, 49, 56.00000000000000000, #231 ) ;
#16 = PERSON_AND_ORGANIZATION ( #18446744073709551615, #18446744073709551615 ) ;
#17 = DIRECTION ( 'NONE',  ( 0.000000000000000000, 0.000000000000000000, 1.000000000000000000 ) ) ;
#18 = APPLIED_DOCUMENT_REFERENCE ( #39,'',( #288) ) ;
#19 = PERSON_AND_ORGANIZATION ( #18446744073709551615, #18446744073709551615 ) ;
#20 = DATE_AND_TIME ( #45, #82 ) ;
#21 = COORDINATED_UNIVERSAL_TIME_OFFSET ( 10, 0, .AHEAD. ) ;
#22 = DATE_TIME_ROLE ( 'creation_date' ) ;
#23 = PRODUCT_RELATED_PRODUCT_CATEGORY ( 'detail', '', ( #232 ) ) ;
#24 = PERSON_AND_ORGANIZATION_ROLE ( 'classification_officer' ) ;
#25 =( GEOMETRIC_REPRESENTATION_CONTEXT ( 3 ) GLOBAL_UNCERTAINTY_ASSIGNED_CONTEXT ( ( #134 ) ) GLOBAL_UNIT_ASSIGNED_CONTEXT ( ( #286, #11, #204 ) ) REPRESENTATION_CONTEXT ( 'NONE', 'WORKASPACE' ) );
#26 = DATE_TIME_ROLE ( 'creation_date' ) ;
#27 = DATE_TIME_ROLE ( 'classification_date' ) ;
#28 = CC_DESIGN_DATE_AND_TIME_ASSIGNMENT ( #6, #114, ( #288 ) ) ;
#29 = ITEM_DEFINED_TRANSFORMATION ( 'NONE', 'NONE', #308,  #173 ) ;
#30 = DIRECTION ( 'NONE',  ( 0.000000000000000000, 0.000000000000000000, 1.000000000000000000 ) ) ;
#31 = CC_DESIGN_APPROVAL ( #2, ( #234 ) ) ;
#32 = DATE_TIME_ROLE ( 'classification_date' ) ;
#33 = SHAPE_REPRESENTATION ( '6461078016.step', ( #142 ), #333 ) ;
#34 = APPLICATION_CONTEXT ( 'configuration controlled 3d designs of mechanical parts and assemblies' ) ;
#35 = COORDINATED_UNIVERSAL_TIME_OFFSET ( 10, 0, .AHEAD. ) ;
#36 = PERSON_AND_ORGANIZATION_ROLE ( 'design_owner' ) ;
#37 = LOCAL_TIME ( 18, 49, 56.00000000000000000, #297 ) ;
#38 = APPROVAL_DATE_TIME ( #208, #2 ) ;
#39 = DOCUMENT_FILE ( '6461077856.step.STEP' , '', '', #179, '' ,$ ) ;
#40 = CONTEXT_DEPENDENT_SHAPE_REPRESENTATION ( #130, #66 ) ;
#41 = PRODUCT ( 'Y1.step', 'Y1.step', '', ( #92 ) ) ;
#42 = CC_DESIGN_SECURITY_CLASSIFICATION ( #131, ( #344 ) ) ;
#43 = CC_DESIGN_PERSON_AND_ORGANIZATION_ASSIGNMENT ( #246, #132, ( #108 ) ) ;
#44 = PERSON_AND_ORGANIZATION ( #18446744073709551615, #18446744073709551615 ) ;
#45 = CALENDAR_DATE ( 2026, 22, 6 ) ;
#46 = APPLIED_EXTERNAL_IDENTIFICATION_ASSIGNMENT ( '6461077856.step.STEP' , #329, #218,( #39) ) ;
#47 = DATE_TIME_ROLE ( 'classification_date' ) ;
#48 = APPROVAL ( #58, 'Coincident' ) ;
#49 = CALENDAR_DATE ( 2026, 22, 6 ) ;
#50 = PERSON_AND_ORGANIZATION ( #18446744073709551615, #18446744073709551615 ) ;
#51 = APPROVAL_PERSON_ORGANIZATION ( #320, #88, #295 ) ;
#52 = CALENDAR_DATE ( 2026, 22, 6 ) ;
#53 = COORDINATED_UNIVERSAL_TIME_OFFSET ( 10, 0, .AHEAD. ) ;
#54 = CC_DESIGN_PERSON_AND_ORGANIZATION_ASSIGNMENT ( #191, #1, ( #232 ) ) ;
#55 = CARTESIAN_POINT ( 'NONE',  ( 0.000000000000000000, 0.000000000000000000, 0.000000000000000000 ) ) ;
#56 = DATE_AND_TIME ( #327, #187 ) ;
#57 = APPROVAL_PERSON_ORGANIZATION ( #85, #48, #254 ) ;
#58 = APPROVAL_STATUS ( 'not_yet_approved' ) ;
#59 = CC_DESIGN_PERSON_AND_ORGANIZATION_ASSIGNMENT ( #44, #240, ( #93 ) ) ;
#60 = COORDINATED_UNIVERSAL_TIME_OFFSET ( 10, 0, .AHEAD. ) ;
#61 = ITEM_DEFINED_TRANSFORMATION ( 'NONE', 'NONE', #178,  #142 ) ;
#62 = CC_DESIGN_APPROVAL ( #84, ( #239 ) ) ;
#63 = ROLE_ASSOCIATION ( #290, #99 ) ;
#64 = PRODUCT_RELATED_PRODUCT_CATEGORY ( 'detail', '', ( #175 ) ) ;
#65 = APPROVAL_ROLE ( '' ) ;
#66 = PRODUCT_DEFINITION_SHAPE ( 'NONE', 'NONE',  #345 ) ;
#67 = DATE_AND_TIME ( #336, #15 ) ;
#68 = DIRECTION ( 'NONE',  ( 1.000000000000000222, -1.092455418989176591E-28, 4.890937612370273194E-29 ) ) ;
#69 = OBJECT_ROLE ('mandatory',$ ) ;
#70 = CC_DESIGN_APPROVAL ( #304, ( #10 ) ) ;
#71 = PERSON_AND_ORGANIZATION_ROLE ( 'classification_officer' ) ;
#72 = ORGANIZATION ( 'NAUO-ORG134', 'UNSPECIFIED', 'UNSPECIFIED' ) ;
#73 = APPROVAL_STATUS ( 'not_yet_approved' ) ;
#74 = APPROVAL_STATUS ( 'not_yet_approved' ) ;
#75 = SHAPE_DEFINITION_REPRESENTATION ( #98, #242 ) ;
#76 = PERSON_AND_ORGANIZATION ( #18446744073709551615, #18446744073709551615 ) ;
#77 = CC_DESIGN_SECURITY_CLASSIFICATION ( #93, ( #108 ) ) ;
#78 = UNCERTAINTY_MEASURE_WITH_UNIT (LENGTH_MEASURE( 1.000000000000000082E-05 ), #207, 'distance_accuracy_value', 'NONE');
#79 = COORDINATED_UNIVERSAL_TIME_OFFSET ( 10, 0, .AHEAD. ) ;
#80 = PERSON_AND_ORGANIZATION_ROLE ( 'creator' ) ;
#81 = COORDINATED_UNIVERSAL_TIME_OFFSET ( 10, 0, .AHEAD. ) ;
#82 = LOCAL_TIME ( 18, 49, 56.00000000000000000, #107 ) ;
#83 = LOCAL_TIME ( 18, 49, 56.00000000000000000, #60 ) ;
#84 = APPROVAL ( #317, 'Coincident' ) ;
#85 = PERSON_AND_ORGANIZATION ( #18446744073709551615, #18446744073709551615 ) ;
#86 = CALENDAR_DATE ( 2026, 22, 6 ) ;
#87 = APPROVAL_DATE_TIME ( #300, #255 ) ;
#88 = APPROVAL ( #74, 'Coincident' ) ;
#89 = APPLICATION_CONTEXT ( 'configuration controlled 3d designs of mechanical parts and assemblies' ) ;
#90 =( REPRESENTATION_RELATIONSHIP ('NONE','NONE', #242, #217 ) REPRESENTATION_RELATIONSHIP_WITH_TRANSFORMATION ( #29 )SHAPE_REPRESENTATION_RELATIONSHIP( ) );
#91 = CALENDAR_DATE ( 2026, 22, 6 ) ;
#92 = MECHANICAL_CONTEXT ( 'NONE', #271, 'mechanical' ) ;
#93 = SECURITY_CLASSIFICATION ( '', '', #291 ) ;
#94 = APPROVAL_DATE_TIME ( #262, #190 ) ;
#95 = PROPERTY_DEFINITION ('document property','', #149 ) ;
#96 = DIRECTION ( 'NONE',  ( 4.890937612370273194E-29, -3.155443620884047222E-30, 0.9999999999999997780 ) ) ;
#97 = PERSON_AND_ORGANIZATION ( #250, #244 ) ;
#98 = PRODUCT_DEFINITION_SHAPE ( 'NONE', 'NONE',  #10 ) ;
#99 = APPLIED_DOCUMENT_REFERENCE ( #149,'',( #150) ) ;
#100 = DIRECTION ( 'NONE',  ( 1.000000000000000000, 0.000000000000000000, 0.000000000000000000 ) ) ;
#101 = CC_DESIGN_DATE_AND_TIME_ASSIGNMENT ( #67, #285, ( #234 ) ) ;
#102 = CC_DESIGN_APPROVAL ( #88, ( #8 ) ) ;
#103 = APPROVAL_PERSON_ORGANIZATION ( #177, #2, #310 ) ;
#104 = CALENDAR_DATE ( 2026, 22, 6 ) ;
#105 = PERSON ( 'NAUO-PER134', 'UNSPECIFIED', 'UNSPECIFIED', ('UNSPECIFIED'), ('UNSPECIFIED'), ('UNSPECIFIED') ) ;
#106 = CALENDAR_DATE ( 2026, 22, 6 ) ;
#107 = COORDINATED_UNIVERSAL_TIME_OFFSET ( 10, 0, .AHEAD. ) ;
#108 = PRODUCT_DEFINITION_FORMATION_WITH_SPECIFIED_SOURCE ( 'Symmetric', '', #232, .NOT_KNOWN. ) ;
#109 = APPLICATION_CONTEXT ( 'configuration controlled 3d designs of mechanical parts and assemblies' ) ;
#110 = APPROVAL_ROLE ( '' ) ;
#111 = COORDINATED_UNIVERSAL_TIME_OFFSET ( 10, 0, .AHEAD. ) ;
#112 = UNCERTAINTY_MEASURE_WITH_UNIT (LENGTH_MEASURE( 1.000000000000000082E-05 ), #260, 'distance_accuracy_value', 'NONE');
#113 = APPROVAL ( #164, 'Coincident' ) ;
#114 = DATE_TIME_ROLE ( 'creation_date' ) ;
#115 = APPROVAL_PERSON_ORGANIZATION ( #19, #304, #65 ) ;
#116 = APPROVAL_PERSON_ORGANIZATION ( #220, #84, #241 ) ;
#117 = COORDINATED_UNIVERSAL_TIME_OFFSET ( 10, 0, .AHEAD. ) ;
#118 = CARTESIAN_POINT ( 'NONE',  ( 0.000000000000000000, 0.000000000000000000, 0.000000000000000000 ) ) ;
#119 = CC_DESIGN_PERSON_AND_ORGANIZATION_ASSIGNMENT ( #3, #183, ( #108 ) ) ;
#120 = APPROVAL_STATUS ( 'not_yet_approved' ) ;
#121 = APPROVAL_ROLE ( '' ) ;
#122 = APPROVAL_PERSON_ORGANIZATION ( #278, #337, #121 ) ;
#123 = APPROVAL_PERSON_ORGANIZATION ( #50, #113, #135 ) ;
#124 = CALENDAR_DATE ( 2026, 22, 6 ) ;
#125 = CALENDAR_DATE ( 2026, 22, 6 ) ;
#126 = LOCAL_TIME ( 18, 49, 56.00000000000000000, #81 ) ;
#127 = PERSON_AND_ORGANIZATION_ROLE ( 'classification_officer' ) ;
#128 = APPLICATION_PROTOCOL_DEFINITION ( 'international standard', 'config_control_design', 1994, #271 ) ;
#129 = DATE_TIME_ROLE ( 'classification_date' ) ;
#130 =( REPRESENTATION_RELATIONSHIP ('NONE','NONE', #242, #33 ) REPRESENTATION_RELATIONSHIP_WITH_TRANSFORMATION ( #61 )SHAPE_REPRESENTATION_RELATIONSHIP( ) );
#131 = SECURITY_CLASSIFICATION ( '', '', #252 ) ;
#132 = PERSON_AND_ORGANIZATION_ROLE ( 'creator' ) ;
#133 = PERSON_AND_ORGANIZATION_ROLE ( 'design_supplier' ) ;
#134 = UNCERTAINTY_MEASURE_WITH_UNIT (LENGTH_MEASURE( 1.000000000000000082E-05 ), #286, 'distance_accuracy_value', 'NONE');
#135 = APPROVAL_ROLE ( '' ) ;
#136 = SECURITY_CLASSIFICATION_LEVEL ( 'unclassified' ) ;
#137 = LOCAL_TIME ( 18, 49, 56.00000000000000000, #35 ) ;
#138 = APPROVAL_DATE_TIME ( #273, #113 ) ;
#139 = CC_DESIGN_DATE_AND_TIME_ASSIGNMENT ( #188, #26, ( #10 ) ) ;
#140 = DATE_AND_TIME ( #192, #305 ) ;
#141 = APPROVAL_STATUS ( 'not_yet_approved' ) ;
#142 = AXIS2_PLACEMENT_3D ( 'NONE', #12, #17, #100 ) ;
#143 = CC_DESIGN_APPROVAL ( #331, ( #294 ) ) ;
#144 = PERSON_AND_ORGANIZATION_ROLE ( 'creator' ) ;
#145 = COORDINATED_UNIVERSAL_TIME_OFFSET ( 10, 0, .AHEAD. ) ;
#146 = IDENTIFICATION_ROLE ( 'external document id and location', $) ;
#147 = DATE_AND_TIME ( #52, #137 ) ;
#148 = CC_DESIGN_APPROVAL ( #337, ( #288 ) ) ;
#149 = DOCUMENT_FILE ( '6461078016.step.STEP' , '', '', #307, '' ,$ ) ;
#150 = PRODUCT_DEFINITION ( 'General', '', #108, #302 ) ;
#151 = PERSON_AND_ORGANIZATION_ROLE ( 'design_owner' ) ;
#152 = PRODUCT_DEFINITION_SHAPE ( 'NONE', 'NONE',  #150 ) ;
#153 = CC_DESIGN_SECURITY_CLASSIFICATION ( #239, ( #8 ) ) ;
#154 = CALENDAR_DATE ( 2026, 22, 6 ) ;
#155 =( NAMED_UNIT ( * ) SI_UNIT ( $, .STERADIAN. ) SOLID_ANGLE_UNIT ( ) );
#156 = PERSON_AND_ORGANIZATION ( #18446744073709551615, #18446744073709551615 ) ;
#157 = LOCAL_TIME ( 18, 49, 56.00000000000000000, #210 ) ;
#158 = APPLICATION_PROTOCOL_DEFINITION ( 'international standard', 'config_control_design', 1994, #109 ) ;
#159 = CALENDAR_DATE ( 2026, 22, 6 ) ;
#160 = PERSON_AND_ORGANIZATION_ROLE ( 'creator' ) ;
#161 = APPLICATION_CONTEXT ( 'configuration controlled 3d designs of mechanical parts and assemblies' ) ;
#162 = CC_DESIGN_DATE_AND_TIME_ASSIGNMENT ( #56, #129, ( #131 ) ) ;
#163 = SECURITY_CLASSIFICATION ( '', '', #275 ) ;
#164 = APPROVAL_STATUS ( 'not_yet_approved' ) ;
#165 = COORDINATED_UNIVERSAL_TIME_OFFSET ( 10, 0, .AHEAD. ) ;
#166 = PERSON_AND_ORGANIZATION ( #18446744073709551615, #18446744073709551615 ) ;
#167 = CC_DESIGN_PERSON_AND_ORGANIZATION_ASSIGNMENT ( #177, #71, ( #234 ) ) ;
#168 = COORDINATED_UNIVERSAL_TIME_OFFSET ( 10, 0, .AHEAD. ) ;
#169 = CC_DESIGN_SECURITY_CLASSIFICATION ( #234, ( #345 ) ) ;
#170 = PERSON_AND_ORGANIZATION ( #18446744073709551615, #18446744073709551615 ) ;
#171 = APPROVAL_DATE_TIME ( #147, #337 ) ;
#172 = CARTESIAN_POINT ( 'NONE',  ( 11.55000024411100412, 15.94999340820300127, -2.058321952819998302 ) ) ;
#173 = AXIS2_PLACEMENT_3D ( 'NONE', #55, #30, #253 ) ;
#174 = PROPERTY_DEFINITION_REPRESENTATION ( #95, #33 ) ;
#175 = PRODUCT ( '6461077856.step', '6461077856.step', '', ( #330 ) ) ;
#176 = CC_DESIGN_PERSON_AND_ORGANIZATION_ASSIGNMENT ( #76, #24, ( #239 ) ) ;
#177 = PERSON_AND_ORGANIZATION ( #105, #72 ) ;
#178 = AXIS2_PLACEMENT_3D ( 'NONE', #172, #182, #263 ) ;
#179 = DOCUMENT_TYPE ( 'geometry' ) ;
#180 = LOCAL_TIME ( 18, 49, 56.00000000000000000, #340 ) ;
#181 = LOCAL_TIME ( 18, 49, 56.00000000000000000, #203 ) ;
#182 = DIRECTION ( 'NONE',  ( 4.890937612370273194E-29, -3.155443620884047222E-30, 0.9999999999999997780 ) ) ;
#183 = PERSON_AND_ORGANIZATION_ROLE ( 'design_supplier' ) ;
#184 = CC_DESIGN_DATE_AND_TIME_ASSIGNMENT ( #269, #22, ( #150 ) ) ;
#185 = APPROVAL_DATE_TIME ( #292, #88 ) ;
#186 = PERSON_AND_ORGANIZATION ( #18446744073709551615, #18446744073709551615 ) ;
#187 = LOCAL_TIME ( 18, 49, 56.00000000000000000, #117 ) ;
#188 = DATE_AND_TIME ( #270, #37 ) ;
#189 = CALENDAR_DATE ( 2026, 22, 6 ) ;
#190 = APPROVAL ( #5, 'UNKNOWN' ) ;
#191 = PERSON_AND_ORGANIZATION ( #18446744073709551615, #18446744073709551615 ) ;
#192 = CALENDAR_DATE ( 2026, 22, 6 ) ;
#193 = CC_DESIGN_PERSON_AND_ORGANIZATION_ASSIGNMENT ( #166, #279, ( #294 ) ) ;
#194 = APPLICATION_PROTOCOL_DEFINITION ( 'international standard', 'config_control_design', 1994, #161 ) ;
#195 = DATE_AND_TIME ( #86, #180 ) ;
#196 = APPROVAL_STATUS ( 'not_yet_approved' ) ;
#197 = CC_DESIGN_APPROVAL ( #248, ( #150 ) ) ;
#198 = APPLICATION_CONTEXT ( 'configuration controlled 3d designs of mechanical parts and assemblies' ) ;
#199 = CALENDAR_DATE ( 2026, 22, 6 ) ;
#200 = PRODUCT_RELATED_PRODUCT_CATEGORY ( 'detail', '', ( #41 ) ) ;
#201 = APPLICATION_PROTOCOL_DEFINITION ( 'international standard', 'config_control_design', 1994, #34 ) ;
#202 = CC_DESIGN_APPROVAL ( #255, ( #163 ) ) ;
#203 = COORDINATED_UNIVERSAL_TIME_OFFSET ( 10, 0, .AHEAD. ) ;
#204 =( NAMED_UNIT ( * ) SI_UNIT ( $, .STERADIAN. ) SOLID_ANGLE_UNIT ( ) );
#205 = PRODUCT_DEFINITION_SHAPE ( 'NONE', 'NONE',  #344 ) ;
#206 = SECURITY_CLASSIFICATION_LEVEL ( 'unclassified' ) ;
#207 =( LENGTH_UNIT ( ) NAMED_UNIT ( * ) SI_UNIT ( .MILLI., .METRE. ) );
#208 = DATE_AND_TIME ( #125, #181 ) ;
#209 = LOCAL_TIME ( 18, 49, 56.00000000000000000, #21 ) ;
#210 = COORDINATED_UNIVERSAL_TIME_OFFSET ( 10, 0, .AHEAD. ) ;
#211 = CC_DESIGN_PERSON_AND_ORGANIZATION_ASSIGNMENT ( #247, #4, ( #294 ) ) ;
#212 = APPROVAL_STATUS ( 'not_yet_approved' ) ;
#213 = PERSON_AND_ORGANIZATION ( #18446744073709551615, #18446744073709551615 ) ;
#214 = APPLIED_EXTERNAL_IDENTIFICATION_ASSIGNMENT ( '6461078016.step.STEP' , #146, #237,( #149) ) ;
#215 = APPROVAL_DATE_TIME ( #318, #248 ) ;
#216 = CC_DESIGN_PERSON_AND_ORGANIZATION_ASSIGNMENT ( #301, #144, ( #288 ) ) ;
#217 = SHAPE_REPRESENTATION ( '6461077856.step', ( #173 ), #249 ) ;
#218 = EXTERNAL_SOURCE (IDENTIFIER('') ) ;
#219 = MECHANICAL_CONTEXT ( 'NONE', #109, 'mechanical' ) ;
#220 = PERSON_AND_ORGANIZATION ( #18446744073709551615, #18446744073709551615 ) ;
#221 = APPROVAL_DATE_TIME ( #140, #48 ) ;
#222 = DESIGN_CONTEXT ( 'detailed design', #34, 'design' ) ;
#223 = SHAPE_DEFINITION_REPRESENTATION ( #152, #33 ) ;
#224 = PROPERTY_DEFINITION ('external definition','', #39 ) ;
#225 = APPLICATION_PROTOCOL_DEFINITION ( 'international standard', 'config_control_design', 1994, #89 ) ;
#226 = SHAPE_DEFINITION_REPRESENTATION ( #311, #217 ) ;
#227 = AXIS2_PLACEMENT_3D ( 'NONE', #118, #229, #332 ) ;
#228 = APPROVAL_PERSON_ORGANIZATION ( #97, #190, #265 ) ;
#229 = DIRECTION ( 'NONE',  ( 0.000000000000000000, 0.000000000000000000, 1.000000000000000000 ) ) ;
#230 = CC_DESIGN_PERSON_AND_ORGANIZATION_ASSIGNMENT ( #97, #127, ( #131 ) ) ;
#231 = COORDINATED_UNIVERSAL_TIME_OFFSET ( 10, 0, .AHEAD. ) ;
#232 = PRODUCT ( '6461078016.step', '6461078016.step', '', ( #219 ) ) ;
#233 =( NAMED_UNIT ( * ) SI_UNIT ( $, .STERADIAN. ) SOLID_ANGLE_UNIT ( ) );
#234 = SECURITY_CLASSIFICATION ( '', '', #206 ) ;
#235 = CALENDAR_DATE ( 2026, 22, 6 ) ;
#236 =( NAMED_UNIT ( * ) PLANE_ANGLE_UNIT ( ) SI_UNIT ( $, .RADIAN. ) );
#237 = EXTERNAL_SOURCE (IDENTIFIER('') ) ;
#238 = CC_DESIGN_DATE_AND_TIME_ASSIGNMENT ( #20, #47, ( #239 ) ) ;
#239 = SECURITY_CLASSIFICATION ( '', '', #136 ) ;
#240 = PERSON_AND_ORGANIZATION_ROLE ( 'classification_officer' ) ;
#241 = APPROVAL_ROLE ( '' ) ;
#242 = SHAPE_REPRESENTATION ( 'Y1.step', ( #227, #308, #178 ), #25 ) ;
#243 = COORDINATED_UNIVERSAL_TIME_OFFSET ( 10, 0, .AHEAD. ) ;
#244 = ORGANIZATION ( 'NAUO-ORG133', 'UNSPECIFIED', 'UNSPECIFIED' ) ;
#245 = PERSON_AND_ORGANIZATION_ROLE ( 'creator' ) ;
#246 = PERSON_AND_ORGANIZATION ( #18446744073709551615, #18446744073709551615 ) ;
#247 = PERSON_AND_ORGANIZATION ( #18446744073709551615, #18446744073709551615 ) ;
#248 = APPROVAL ( #212, 'Coincident' ) ;
#249 =( GEOMETRIC_REPRESENTATION_CONTEXT ( 3 ) GLOBAL_UNCERTAINTY_ASSIGNED_CONTEXT ( ( #112 ) ) GLOBAL_UNIT_ASSIGNED_CONTEXT ( ( #260, #338, #155 ) ) REPRESENTATION_CONTEXT ( 'NONE', 'WORKASPACE' ) );
#250 = PERSON ( 'NAUO-PER133', 'UNSPECIFIED', 'UNSPECIFIED', ('UNSPECIFIED'), ('UNSPECIFIED'), ('UNSPECIFIED') ) ;
#251 = CC_DESIGN_APPROVAL ( #113, ( #108 ) ) ;
#252 = SECURITY_CLASSIFICATION_LEVEL ( 'unclassified' ) ;
#253 = DIRECTION ( 'NONE',  ( 1.000000000000000000, 0.000000000000000000, 0.000000000000000000 ) ) ;
#254 = APPROVAL_ROLE ( '' ) ;
#255 = APPROVAL ( #196, 'Coincident' ) ;
#256 = DATE_AND_TIME ( #124, #83 ) ;
#257 = PERSON_AND_ORGANIZATION_ROLE ( 'classification_officer' ) ;
#258 = LOCAL_TIME ( 18, 49, 56.00000000000000000, #111 ) ;
#259 = ROLE_ASSOCIATION ( #69, #18 ) ;
#260 =( LENGTH_UNIT ( ) NAMED_UNIT ( * ) SI_UNIT ( .MILLI., .METRE. ) );
#261 = CC_DESIGN_PERSON_AND_ORGANIZATION_ASSIGNMENT ( #266, #80, ( #8 ) ) ;
#262 = DATE_AND_TIME ( #235, #319 ) ;
#263 = DIRECTION ( 'NONE',  ( 1.000000000000000222, -1.092455418989176591E-28, 4.890937612370273194E-29 ) ) ;
#264 = PROPERTY_DEFINITION_REPRESENTATION ( #326, #217 ) ;
#265 = APPROVAL_ROLE ( '' ) ;
#266 = PERSON_AND_ORGANIZATION ( #18446744073709551615, #18446744073709551615 ) ;
#267 = APPROVAL_PERSON_ORGANIZATION ( #325, #255, #7 ) ;
#268 = APPLICATION_PROTOCOL_DEFINITION ( 'international standard', 'config_control_design', 1994, #198 ) ;
#269 = DATE_AND_TIME ( #159, #339 ) ;
#270 = CALENDAR_DATE ( 2026, 22, 6 ) ;
#271 = APPLICATION_CONTEXT ( 'configuration controlled 3d designs of mechanical parts and assemblies' ) ;
#272 = APPROVAL_PERSON_ORGANIZATION ( #306, #331, #277 ) ;
#273 = DATE_AND_TIME ( #49, #287 ) ;
#274 = CC_DESIGN_PERSON_AND_ORGANIZATION_ASSIGNMENT ( #213, #133, ( #8 ) ) ;
#275 = SECURITY_CLASSIFICATION_LEVEL ( 'unclassified' ) ;
#276 = LOCAL_TIME ( 18, 49, 56.00000000000000000, #342 ) ;
#277 = APPROVAL_ROLE ( '' ) ;
#278 = PERSON_AND_ORGANIZATION ( #18446744073709551615, #18446744073709551615 ) ;
#279 = PERSON_AND_ORGANIZATION_ROLE ( 'creator' ) ;
#280 = CC_DESIGN_APPROVAL ( #48, ( #93 ) ) ;
#281 = APPROVAL_STATUS ( 'not_yet_approved' ) ;
#282 = APPROVAL_DATE_TIME ( #335, #304 ) ;
#283 = CC_DESIGN_PERSON_AND_ORGANIZATION_ASSIGNMENT ( #170, #36, ( #175 ) ) ;
#284 = PERSON_AND_ORGANIZATION ( #18446744073709551615, #18446744073709551615 ) ;
#285 = DATE_TIME_ROLE ( 'classification_date' ) ;
#286 =( LENGTH_UNIT ( ) NAMED_UNIT ( * ) SI_UNIT ( .MILLI., .METRE. ) );
#287 = LOCAL_TIME ( 18, 49, 56.00000000000000000, #243 ) ;
#288 = PRODUCT_DEFINITION ( 'General', '', #294, #296 ) ;
#289 = PROPERTY_DEFINITION_REPRESENTATION ( #309, #33 ) ;
#290 = OBJECT_ROLE ('mandatory',$ ) ;
#291 = SECURITY_CLASSIFICATION_LEVEL ( 'unclassified' ) ;
#292 = DATE_AND_TIME ( #104, #258 ) ;
#293 = CC_DESIGN_PERSON_AND_ORGANIZATION_ASSIGNMENT ( #156, #160, ( #150 ) ) ;
#294 = PRODUCT_DEFINITION_FORMATION_WITH_SPECIFIED_SOURCE ( 'Symmetric', '', #175, .NOT_KNOWN. ) ;
#295 = APPROVAL_ROLE ( '' ) ;
#296 = DESIGN_CONTEXT ( 'detailed design', #89, 'design' ) ;
#297 = COORDINATED_UNIVERSAL_TIME_OFFSET ( 10, 0, .AHEAD. ) ;
#298 = APPROVAL_DATE_TIME ( #321, #84 ) ;
#299 = CC_DESIGN_PERSON_AND_ORGANIZATION_ASSIGNMENT ( #16, #245, ( #10 ) ) ;
#300 = DATE_AND_TIME ( #328, #126 ) ;
#301 = PERSON_AND_ORGANIZATION ( #18446744073709551615, #18446744073709551615 ) ;
#302 = DESIGN_CONTEXT ( 'detailed design', #198, 'design' ) ;
#303 = PERSON_AND_ORGANIZATION ( #18446744073709551615, #18446744073709551615 ) ;
#304 = APPROVAL ( #73, 'Coincident' ) ;
#305 = LOCAL_TIME ( 18, 49, 56.00000000000000000, #165 ) ;
#306 = PERSON_AND_ORGANIZATION ( #18446744073709551615, #18446744073709551615 ) ;
#307 = DOCUMENT_TYPE ( 'geometry' ) ;
#308 = AXIS2_PLACEMENT_3D ( 'NONE', #315, #96, #68 ) ;
#309 = PROPERTY_DEFINITION ('external definition','', #149 ) ;
#310 = APPROVAL_ROLE ( '' ) ;
#311 = PRODUCT_DEFINITION_SHAPE ( 'NONE', 'NONE',  #288 ) ;
#312 = PROPERTY_DEFINITION_REPRESENTATION ( #224, #217 ) ;
#313 = CC_DESIGN_PERSON_AND_ORGANIZATION_ASSIGNMENT ( #303, #257, ( #163 ) ) ;
#314 = LOCAL_TIME ( 18, 49, 56.00000000000000000, #145 ) ;
#315 = CARTESIAN_POINT ( 'NONE',  ( 11.55000024411100412, 15.94999340820300127, -2.358324050902998792 ) ) ;
#316 = CC_DESIGN_DATE_AND_TIME_ASSIGNMENT ( #256, #27, ( #163 ) ) ;
#317 = APPROVAL_STATUS ( 'not_yet_approved' ) ;
#318 = DATE_AND_TIME ( #189, #209 ) ;
#319 = LOCAL_TIME ( 18, 49, 56.00000000000000000, #168 ) ;
#320 = PERSON_AND_ORGANIZATION ( #18446744073709551615, #18446744073709551615 ) ;
#321 = DATE_AND_TIME ( #106, #276 ) ;
#322 = DATE_AND_TIME ( #91, #314 ) ;
#323 = APPROVAL_PERSON_ORGANIZATION ( #186, #248, #110 ) ;
#324 = CC_DESIGN_APPROVAL ( #190, ( #131 ) ) ;
#325 = PERSON_AND_ORGANIZATION ( #18446744073709551615, #18446744073709551615 ) ;
#326 = PROPERTY_DEFINITION ('document property','', #39 ) ;
#327 = CALENDAR_DATE ( 2026, 22, 6 ) ;
#328 = CALENDAR_DATE ( 2026, 22, 6 ) ;
#329 = IDENTIFICATION_ROLE ( 'external document id and location', $) ;
#330 = MECHANICAL_CONTEXT ( 'NONE', #161, 'mechanical' ) ;
#331 = APPROVAL ( #120, 'Coincident' ) ;
#332 = DIRECTION ( 'NONE',  ( 1.000000000000000000, 0.000000000000000000, 0.000000000000000000 ) ) ;
#333 =( GEOMETRIC_REPRESENTATION_CONTEXT ( 3 ) GLOBAL_UNCERTAINTY_ASSIGNED_CONTEXT ( ( #78 ) ) GLOBAL_UNIT_ASSIGNED_CONTEXT ( ( #207, #236, #233 ) ) REPRESENTATION_CONTEXT ( 'NONE', 'WORKASPACE' ) );
#334 = CC_DESIGN_SECURITY_CLASSIFICATION ( #163, ( #294 ) ) ;
#335 = DATE_AND_TIME ( #154, #157 ) ;
#336 = CALENDAR_DATE ( 2026, 22, 6 ) ;
#337 = APPROVAL ( #141, 'Coincident' ) ;
#338 =( NAMED_UNIT ( * ) PLANE_ANGLE_UNIT ( ) SI_UNIT ( $, .RADIAN. ) );
#339 = LOCAL_TIME ( 18, 49, 56.00000000000000000, #79 ) ;
#340 = COORDINATED_UNIVERSAL_TIME_OFFSET ( 10, 0, .AHEAD. ) ;
#341 = CC_DESIGN_DATE_AND_TIME_ASSIGNMENT ( #195, #32, ( #93 ) ) ;
#342 = COORDINATED_UNIVERSAL_TIME_OFFSET ( 10, 0, .AHEAD. ) ;
#343 = LOCAL_TIME ( 18, 49, 56.00000000000000000, #53 ) ;
#344 = NEXT_ASSEMBLY_USAGE_OCCURRENCE ( 'NAUO133', ' ', ' ', #10, #288, $ ) ;
#345 = NEXT_ASSEMBLY_USAGE_OCCURRENCE ( 'NAUO134', ' ', ' ', #10, #150, $ ) ;
ENDSEC;
END-ISO-10303-21;
